<?xml version="1.0"?>
<!DOCTYPE lmms-project>
<lmms-project version="31" type="song" creatorversion="1.3.0-alpha.1.847+889a2f8" creator="LMMS">
  <head timesig_numerator="4" bpm="100" masterpitch="0" mastervol="100" timesig_denominator="4"/>
  <song>
    <trackcontainer type="song" visible="1" height="600" minimized="0" x="4" maximized="0" y="1" width="1032">
      <track type="0" name="SGM-V2" mutedBeforeSolo="1" muted="1" solo="0">
        <instrumenttrack pan="0" range_import="1" mixch="0" pitchrange="1" firstkey="0" keymap="0" usemasterpitch="1" scale="0" pitch="0" basenote="69" lastkey="127" enablecc="0" enabled="0" vol="100">
          <midicontrollers cc115="0" cc71="0" cc3="0" cc63="0" cc90="0" cc74="0" cc82="0" cc96="0" cc10="0" cc17="0" cc116="0" cc59="0" cc122="0" cc118="0" cc45="0" cc77="0" cc72="0" cc40="0" cc2="0" cc105="0" cc24="0" cc33="0" cc43="0" cc13="0" cc88="0" cc6="0" cc31="0" cc52="0" cc15="0" cc67="0" cc7="0" cc41="0" cc4="0" cc19="0" cc125="0" cc75="0" cc79="0" cc93="0" cc25="0" cc39="0" cc51="0" cc87="0" cc55="0" cc28="0" cc26="0" cc98="0" cc102="0" cc50="0" cc23="0" cc16="0" cc92="0" cc57="0" cc69="0" cc18="0" cc85="0" cc103="0" cc126="0" cc124="0" cc9="0" cc20="0" cc68="0" cc114="0" cc30="0" cc47="0" cc86="0" cc97="0" cc5="0" cc73="0" cc60="0" cc108="0" cc66="0" cc58="0" cc121="0" cc49="0" cc99="0" cc65="0" cc83="0" cc35="0" cc94="0" cc44="0" cc112="0" cc37="0" cc64="0" cc84="0" cc14="0" cc38="0" cc32="0" cc62="0" cc78="0" cc54="0" cc34="0" cc117="0" cc76="0" cc127="0" cc89="0" cc0="0" cc100="0" cc109="0" cc111="0" cc29="0" cc95="0" cc70="0" cc91="0" cc27="0" cc81="0" cc120="0" cc1="0" cc42="0" cc113="0" cc22="0" cc80="0" cc110="0" cc8="0" cc46="0" cc12="0" cc53="0" cc11="0" cc21="0" cc36="0" cc56="0" cc101="0" cc106="0" cc61="0" cc48="0" cc123="0" cc104="0" cc119="0" cc107="0"/>
          <instrument name="sf2player">
            <sf2player reverbWidth="0.5" reverbLevel="0.89999998" chorusDepth="8" src="usersoundfont:SGM-V2.01.sf2" chorusOn="0" bank="0" chorusSpeed="0.30000001" chorusNum="3" reverbOn="0" gain="1" patch="1" reverbRoomSize="0.2" chorusLevel="2" reverbDamping="0">
              <key/>
            </sf2player>
          </instrument>
          <eldata ftype="0" fres="0.5" fcut="14000" fwet="0">
            <elvol pdel="0" lshp="0" lspd_numerator="4" rel="0.1" ctlenvamt="0" lspd_denominator="4" dec="0.5" hold="0.5" lamt="0" lpdel="0" x100="0" userwavefile="" amt="0" latt="0" sustain="0.5" lspd_syncmode="0" att="0" lspd="0.1"/>
            <elcut pdel="0" lshp="0" lspd_numerator="4" rel="0.1" ctlenvamt="0" lspd_denominator="4" dec="0.5" hold="0.5" lamt="0" lpdel="0" x100="0" userwavefile="" amt="0" latt="0" sustain="0.5" lspd_syncmode="0" att="0" lspd="0.1"/>
            <elres pdel="0" lshp="0" lspd_numerator="4" rel="0.1" ctlenvamt="0" lspd_denominator="4" dec="0.5" hold="0.5" lamt="0" lpdel="0" x100="0" userwavefile="" amt="0" latt="0" sustain="0.5" lspd_syncmode="0" att="0" lspd="0.1"/>
          </eldata>
          <chordcreator chord="0" chordrange="1" chord-enabled="0"/>
          <arpeggiator arprange="1" arpdir="0" arpskip="0" arpmode="0" arpmiss="0" arptime="200" arpgate="100" arptime_numerator="4" arp-enabled="0" arpcycle="0" arptime_denominator="4" arptime_syncmode="0" arprepeats="1" arp="0"/>
          <midiport inputcontroller="0" fixedoutputvelocity="-1" readable="0" fixedoutputnote="-1" basevelocity="63" fixedinputvelocity="-1" inputchannel="0" outputchannel="1" writable="0" outputcontroller="0" outputprogram="1"/>
          <fxchain numofeffects="0" enabled="0"/>
        </instrumenttrack>
        <midiclip type="1" autoresize="1" name="" off="0" len="1536" pos="576" muted="0" steps="16">
          <note pan="0" type="0" len="12" pos="144" key="60" vol="100"/>
          <note pan="0" type="0" len="24" pos="156" key="60" vol="100"/>
          <note pan="0" type="0" len="12" pos="180" key="60" vol="100"/>
          <note pan="0" type="0" len="24" pos="192" key="72" vol="100"/>
          <note pan="0" type="0" len="192" pos="192" key="55" vol="100"/>
          <note pan="0" type="0" len="192" pos="192" key="51" vol="100"/>
          <note pan="0" type="0" len="192" pos="192" key="48" vol="100"/>
          <note pan="0" type="0" len="192" pos="192" key="36" vol="100"/>
          <note pan="0" type="0" len="12" pos="216" key="67" vol="100"/>
          <note pan="0" type="0" len="36" pos="228" key="67" vol="100"/>
          <note pan="0" type="0" len="12" pos="264" key="67" vol="100"/>
          <note pan="0" type="0" len="36" pos="276" key="65" vol="100"/>
          <note pan="0" type="0" len="12" pos="312" key="65" vol="100"/>
          <note pan="0" type="0" len="24" pos="324" key="65" vol="100"/>
          <note pan="0" type="0" len="36" pos="348" key="63" vol="100"/>
          <note pan="0" type="0" len="24" pos="384" key="72" vol="100"/>
          <note pan="0" type="0" len="192" pos="384" key="56" vol="100"/>
          <note pan="0" type="0" len="192" pos="384" key="51" vol="100"/>
          <note pan="0" type="0" len="192" pos="384" key="48" vol="100"/>
          <note pan="0" type="0" len="192" pos="384" key="32" vol="100"/>
          <note pan="0" type="0" len="12" pos="408" key="67" vol="100"/>
          <note pan="0" type="0" len="36" pos="420" key="67" vol="100"/>
          <note pan="0" type="0" len="12" pos="456" key="67" vol="100"/>
          <note pan="0" type="0" len="36" pos="468" key="65" vol="100"/>
          <note pan="0" type="0" len="12" pos="504" key="65" vol="100"/>
          <note pan="0" type="0" len="24" pos="516" key="65" vol="100"/>
          <note pan="0" type="0" len="36" pos="540" key="63" vol="100"/>
          <note pan="0" type="0" len="24" pos="576" key="62" vol="100"/>
          <note pan="0" type="0" len="192" pos="576" key="55" vol="100"/>
          <note pan="0" type="0" len="192" pos="576" key="50" vol="100"/>
          <note pan="0" type="0" len="192" pos="576" key="47" vol="100"/>
          <note pan="0" type="0" len="192" pos="576" key="38" vol="100"/>
          <note pan="0" type="0" len="12" pos="600" key="63" vol="100"/>
          <note pan="0" type="0" len="36" pos="612" key="62" vol="100"/>
          <note pan="0" type="0" len="12" pos="648" key="63" vol="100"/>
          <note pan="0" type="0" len="36" pos="660" key="62" vol="100"/>
          <note pan="0" type="0" len="12" pos="696" key="60" vol="100"/>
          <note pan="0" type="0" len="60" pos="708" key="59" vol="100"/>
          <note pan="0" type="0" len="96" pos="768" key="35" vol="100"/>
          <note pan="0" type="0" len="96" pos="864" key="39" vol="100"/>
          <note pan="0" type="0" len="24" pos="936" key="60" vol="100"/>
          <note pan="0" type="0" len="24" pos="960" key="72" vol="100"/>
          <note pan="0" type="0" len="192" pos="960" key="55" vol="100"/>
          <note pan="0" type="0" len="192" pos="960" key="51" vol="100"/>
          <note pan="0" type="0" len="192" pos="960" key="48" vol="100"/>
          <note pan="0" type="0" len="192" pos="960" key="36" vol="100"/>
          <note pan="0" type="0" len="12" pos="984" key="67" vol="100"/>
          <note pan="0" type="0" len="36" pos="996" key="67" vol="100"/>
          <note pan="0" type="0" len="12" pos="1032" key="65" vol="100"/>
          <note pan="0" type="0" len="36" pos="1044" key="65" vol="100"/>
          <note pan="0" type="0" len="12" pos="1080" key="65" vol="100"/>
          <note pan="0" type="0" len="24" pos="1092" key="65" vol="100"/>
          <note pan="0" type="0" len="36" pos="1116" key="63" vol="100"/>
          <note pan="0" type="0" len="24" pos="1152" key="72" vol="100"/>
          <note pan="0" type="0" len="192" pos="1152" key="56" vol="100"/>
          <note pan="0" type="0" len="192" pos="1152" key="51" vol="100"/>
          <note pan="0" type="0" len="192" pos="1152" key="48" vol="100"/>
          <note pan="0" type="0" len="192" pos="1152" key="32" vol="100"/>
          <note pan="0" type="0" len="12" pos="1176" key="68" vol="100"/>
          <note pan="0" type="0" len="36" pos="1188" key="68" vol="100"/>
          <note pan="0" type="0" len="12" pos="1224" key="67" vol="100"/>
          <note pan="0" type="0" len="36" pos="1236" key="67" vol="100"/>
          <note pan="0" type="0" len="12" pos="1272" key="65" vol="100"/>
          <note pan="0" type="0" len="24" pos="1284" key="65" vol="100"/>
          <note pan="0" type="0" len="36" pos="1308" key="63" vol="100"/>
          <note pan="0" type="0" len="36" pos="1344" key="62" vol="100"/>
          <note pan="0" type="0" len="192" pos="1344" key="59" vol="100"/>
          <note pan="0" type="0" len="192" pos="1344" key="55" vol="100"/>
          <note pan="0" type="0" len="192" pos="1344" key="50" vol="100"/>
          <note pan="0" type="0" len="96" pos="1344" key="38" vol="100"/>
          <note pan="0" type="0" len="36" pos="1380" key="65" vol="100"/>
          <note pan="0" type="0" len="24" pos="1416" key="68" vol="100"/>
          <note pan="0" type="0" len="96" pos="1440" key="67" vol="100"/>
          <note pan="0" type="0" len="96" pos="1440" key="43" vol="100"/>
        </midiclip>
      </track>
      <track type="0" name="FluidR3 GM" mutedBeforeSolo="0" muted="0" solo="0">
        <instrumenttrack pan="0" range_import="1" mixch="5" pitchrange="1" firstkey="0" keymap="0" usemasterpitch="1" scale="0" pitch="0" basenote="69" lastkey="127" enablecc="0" enabled="0" vol="100">
          <midicontrollers cc115="0" cc71="0" cc3="0" cc63="0" cc90="0" cc74="0" cc82="0" cc96="0" cc10="0" cc17="0" cc116="0" cc59="0" cc122="0" cc118="0" cc45="0" cc77="0" cc72="0" cc40="0" cc2="0" cc105="0" cc24="0" cc33="0" cc43="0" cc13="0" cc88="0" cc6="0" cc31="0" cc52="0" cc15="0" cc67="0" cc7="0" cc41="0" cc4="0" cc19="0" cc125="0" cc75="0" cc79="0" cc93="0" cc25="0" cc39="0" cc51="0" cc87="0" cc55="0" cc28="0" cc26="0" cc98="0" cc102="0" cc50="0" cc23="0" cc16="0" cc92="0" cc57="0" cc69="0" cc18="0" cc85="0" cc103="0" cc126="0" cc124="0" cc9="0" cc20="0" cc68="0" cc114="0" cc30="0" cc47="0" cc86="0" cc97="0" cc5="0" cc73="0" cc60="0" cc108="0" cc66="0" cc58="0" cc121="0" cc49="0" cc99="0" cc65="0" cc83="0" cc35="0" cc94="0" cc44="0" cc112="0" cc37="0" cc64="0" cc84="0" cc14="0" cc38="0" cc32="0" cc62="0" cc78="0" cc54="0" cc34="0" cc117="0" cc76="0" cc127="0" cc89="0" cc0="0" cc100="0" cc109="0" cc111="0" cc29="0" cc95="0" cc70="0" cc91="0" cc27="0" cc81="0" cc120="0" cc1="0" cc42="0" cc113="0" cc22="0" cc80="0" cc110="0" cc8="0" cc46="0" cc12="0" cc53="0" cc11="0" cc21="0" cc36="0" cc56="0" cc101="0" cc106="0" cc61="0" cc48="0" cc123="0" cc104="0" cc119="0" cc107="0"/>
          <instrument name="sf2player">
            <sf2player reverbWidth="0.5" reverbLevel="0.89999998" chorusDepth="8" src="usersoundfont:FluidR3 GM.sf2" chorusOn="0" bank="0" chorusSpeed="0.30000001" chorusNum="3" reverbOn="0" gain="1" patch="4" reverbRoomSize="0.2" chorusLevel="2" reverbDamping="0">
              <key/>
            </sf2player>
          </instrument>
          <eldata ftype="0" fres="0.5" fcut="14000" fwet="0">
            <elvol pdel="0" lshp="0" lspd_numerator="4" rel="0.1" ctlenvamt="0" lspd_denominator="4" dec="0.5" hold="0.5" lamt="0" lpdel="0" x100="0" userwavefile="" amt="0" latt="0" sustain="0.5" lspd_syncmode="0" att="0" lspd="0.1"/>
            <elcut pdel="0" lshp="0" lspd_numerator="4" rel="0.1" ctlenvamt="0" lspd_denominator="4" dec="0.5" hold="0.5" lamt="0" lpdel="0" x100="0" userwavefile="" amt="0" latt="0" sustain="0.5" lspd_syncmode="0" att="0" lspd="0.1"/>
            <elres pdel="0" lshp="0" lspd_numerator="4" rel="0.1" ctlenvamt="0" lspd_denominator="4" dec="0.5" hold="0.5" lamt="0" lpdel="0" x100="0" userwavefile="" amt="0" latt="0" sustain="0.5" lspd_syncmode="0" att="0" lspd="0.1"/>
          </eldata>
          <chordcreator chord="0" chordrange="1" chord-enabled="0"/>
          <arpeggiator arprange="1" arpdir="0" arpskip="0" arpmode="0" arpmiss="0" arptime="200" arpgate="100" arptime_numerator="4" arp-enabled="0" arpcycle="0" arptime_denominator="4" arptime_syncmode="0" arprepeats="1" arp="0"/>
          <midiport inputcontroller="0" fixedoutputvelocity="-1" readable="0" fixedoutputnote="-1" basevelocity="63" fixedinputvelocity="-1" inputchannel="0" outputchannel="1" writable="0" outputcontroller="0" outputprogram="1"/>
          <fxchain numofeffects="0" enabled="0"/>
        </instrumenttrack>
        <midiclip type="1" autoresize="1" name="" off="0" len="1536" pos="768" muted="0" steps="16">
          <note pan="0" type="0" len="24" pos="0" key="46" vol="100"/>
          <note pan="0" type="0" len="12" pos="24" key="65" vol="100"/>
          <note pan="0" type="0" len="12" pos="24" key="61" vol="100"/>
          <note pan="0" type="0" len="12" pos="24" key="58" vol="100"/>
          <note pan="0" type="0" len="24" pos="36" key="46" vol="100"/>
          <note pan="0" type="0" len="12" pos="60" key="66" vol="100"/>
          <note pan="0" type="0" len="12" pos="60" key="61" vol="100"/>
          <note pan="0" type="0" len="12" pos="60" key="58" vol="100"/>
          <note pan="0" type="0" len="24" pos="72" key="49" vol="100"/>
          <note pan="0" type="0" len="12" pos="96" key="65" vol="100"/>
          <note pan="0" type="0" len="12" pos="96" key="61" vol="100"/>
          <note pan="0" type="0" len="12" pos="96" key="58" vol="100"/>
          <note pan="0" type="0" len="24" pos="108" key="46" vol="100"/>
          <note pan="0" type="0" len="12" pos="132" key="65" vol="100"/>
          <note pan="0" type="0" len="12" pos="132" key="61" vol="100"/>
          <note pan="0" type="0" len="12" pos="132" key="58" vol="100"/>
          <note pan="0" type="0" len="24" pos="144" key="46" vol="100"/>
          <note pan="0" type="0" len="12" pos="168" key="65" vol="100"/>
          <note pan="0" type="0" len="12" pos="168" key="61" vol="100"/>
          <note pan="0" type="0" len="12" pos="168" key="58" vol="100"/>
          <note pan="0" type="0" len="12" pos="180" key="46" vol="100"/>
          <note pan="0" type="0" len="24" pos="192" key="42" vol="100"/>
          <note pan="0" type="0" len="12" pos="216" key="66" vol="100"/>
          <note pan="0" type="0" len="12" pos="216" key="61" vol="100"/>
          <note pan="0" type="0" len="12" pos="216" key="58" vol="100"/>
          <note pan="0" type="0" len="24" pos="228" key="42" vol="100"/>
          <note pan="0" type="0" len="12" pos="252" key="65" vol="100"/>
          <note pan="0" type="0" len="12" pos="252" key="61" vol="100"/>
          <note pan="0" type="0" len="12" pos="252" key="58" vol="100"/>
          <note pan="0" type="0" len="24" pos="264" key="46" vol="100"/>
          <note pan="0" type="0" len="12" pos="288" key="66" vol="100"/>
          <note pan="0" type="0" len="12" pos="288" key="61" vol="100"/>
          <note pan="0" type="0" len="12" pos="288" key="58" vol="100"/>
          <note pan="0" type="0" len="24" pos="300" key="42" vol="100"/>
          <note pan="0" type="0" len="12" pos="324" key="66" vol="100"/>
          <note pan="0" type="0" len="12" pos="324" key="61" vol="100"/>
          <note pan="0" type="0" len="12" pos="324" key="58" vol="100"/>
          <note pan="0" type="0" len="24" pos="336" key="37" vol="100"/>
          <note pan="0" type="0" len="12" pos="360" key="66" vol="100"/>
          <note pan="0" type="0" len="12" pos="360" key="61" vol="100"/>
          <note pan="0" type="0" len="12" pos="360" key="58" vol="100"/>
          <note pan="0" type="0" len="12" pos="372" key="42" vol="100"/>
          <note pan="0" type="0" len="24" pos="384" key="48" vol="100"/>
          <note pan="0" type="0" len="12" pos="408" key="65" vol="100"/>
          <note pan="0" type="0" len="12" pos="408" key="60" vol="100"/>
          <note pan="0" type="0" len="12" pos="408" key="57" vol="100"/>
          <note pan="0" type="0" len="24" pos="420" key="48" vol="100"/>
          <note pan="0" type="0" len="12" pos="444" key="65" vol="100"/>
          <note pan="0" type="0" len="12" pos="444" key="60" vol="100"/>
          <note pan="0" type="0" len="12" pos="444" key="57" vol="100"/>
          <note pan="0" type="0" len="24" pos="456" key="45" vol="100"/>
          <note pan="0" type="0" len="12" pos="480" key="65" vol="100"/>
          <note pan="0" type="0" len="12" pos="480" key="60" vol="100"/>
          <note pan="0" type="0" len="12" pos="480" key="57" vol="100"/>
          <note pan="0" type="0" len="24" pos="492" key="45" vol="100"/>
          <note pan="0" type="0" len="12" pos="516" key="65" vol="100"/>
          <note pan="0" type="0" len="12" pos="516" key="60" vol="100"/>
          <note pan="0" type="0" len="12" pos="516" key="57" vol="100"/>
          <note pan="0" type="0" len="24" pos="528" key="41" vol="100"/>
          <note pan="0" type="0" len="12" pos="552" key="65" vol="100"/>
          <note pan="0" type="0" len="12" pos="552" key="60" vol="100"/>
          <note pan="0" type="0" len="12" pos="552" key="57" vol="100"/>
          <note pan="0" type="0" len="12" pos="564" key="41" vol="100"/>
          <note pan="0" type="0" len="96" pos="576" key="45" vol="100"/>
          <note pan="0" type="0" len="72" pos="600" key="60" vol="100"/>
          <note pan="0" type="0" len="72" pos="600" key="57" vol="100"/>
          <note pan="0" type="0" len="72" pos="600" key="53" vol="100"/>
          <note pan="0" type="0" len="96" pos="672" key="48" vol="100"/>
          <note pan="0" type="0" len="72" pos="696" key="65" vol="100"/>
          <note pan="0" type="0" len="72" pos="696" key="60" vol="100"/>
          <note pan="0" type="0" len="72" pos="696" key="57" vol="100"/>
          <note pan="0" type="0" len="24" pos="768" key="46" vol="100"/>
          <note pan="0" type="0" len="12" pos="792" key="65" vol="100"/>
          <note pan="0" type="0" len="12" pos="792" key="61" vol="100"/>
          <note pan="0" type="0" len="12" pos="792" key="58" vol="100"/>
          <note pan="0" type="0" len="24" pos="804" key="53" vol="100"/>
          <note pan="0" type="0" len="12" pos="828" key="66" vol="100"/>
          <note pan="0" type="0" len="12" pos="828" key="61" vol="100"/>
          <note pan="0" type="0" len="12" pos="828" key="58" vol="100"/>
          <note pan="0" type="0" len="24" pos="840" key="46" vol="100"/>
          <note pan="0" type="0" len="12" pos="864" key="65" vol="100"/>
          <note pan="0" type="0" len="12" pos="864" key="61" vol="100"/>
          <note pan="0" type="0" len="12" pos="864" key="58" vol="100"/>
          <note pan="0" type="0" len="24" pos="876" key="49" vol="100"/>
          <note pan="0" type="0" len="12" pos="900" key="65" vol="100"/>
          <note pan="0" type="0" len="12" pos="900" key="61" vol="100"/>
          <note pan="0" type="0" len="12" pos="900" key="58" vol="100"/>
          <note pan="0" type="0" len="24" pos="912" key="46" vol="100"/>
          <note pan="0" type="0" len="12" pos="936" key="65" vol="100"/>
          <note pan="0" type="0" len="12" pos="936" key="61" vol="100"/>
          <note pan="0" type="0" len="12" pos="936" key="58" vol="100"/>
          <note pan="0" type="0" len="12" pos="948" key="41" vol="100"/>
          <note pan="0" type="0" len="24" pos="960" key="42" vol="100"/>
          <note pan="0" type="0" len="12" pos="984" key="66" vol="100"/>
          <note pan="0" type="0" len="12" pos="984" key="61" vol="100"/>
          <note pan="0" type="0" len="12" pos="984" key="58" vol="100"/>
          <note pan="0" type="0" len="24" pos="996" key="49" vol="100"/>
          <note pan="0" type="0" len="12" pos="1020" key="65" vol="100"/>
          <note pan="0" type="0" len="12" pos="1020" key="61" vol="100"/>
          <note pan="0" type="0" len="12" pos="1020" key="58" vol="100"/>
          <note pan="0" type="0" len="24" pos="1032" key="42" vol="100"/>
          <note pan="0" type="0" len="12" pos="1056" key="66" vol="100"/>
          <note pan="0" type="0" len="12" pos="1056" key="61" vol="100"/>
          <note pan="0" type="0" len="12" pos="1056" key="58" vol="100"/>
          <note pan="0" type="0" len="24" pos="1068" key="46" vol="100"/>
          <note pan="0" type="0" len="12" pos="1092" key="66" vol="100"/>
          <note pan="0" type="0" len="12" pos="1092" key="61" vol="100"/>
          <note pan="0" type="0" len="12" pos="1092" key="58" vol="100"/>
          <note pan="0" type="0" len="24" pos="1104" key="42" vol="100"/>
          <note pan="0" type="0" len="12" pos="1128" key="66" vol="100"/>
          <note pan="0" type="0" len="12" pos="1128" key="61" vol="100"/>
          <note pan="0" type="0" len="12" pos="1128" key="58" vol="100"/>
          <note pan="0" type="0" len="12" pos="1140" key="39" vol="100"/>
          <note pan="0" type="0" len="96" pos="1152" key="48" vol="100"/>
          <note pan="0" type="0" len="12" pos="1176" key="69" vol="100"/>
          <note pan="0" type="0" len="12" pos="1176" key="65" vol="100"/>
          <note pan="0" type="0" len="12" pos="1176" key="60" vol="100"/>
          <note pan="0" type="0" len="12" pos="1212" key="69" vol="100"/>
          <note pan="0" type="0" len="12" pos="1212" key="65" vol="100"/>
          <note pan="0" type="0" len="12" pos="1212" key="60" vol="100"/>
          <note pan="0" type="0" len="12" pos="1248" key="69" vol="100"/>
          <note pan="0" type="0" len="12" pos="1248" key="65" vol="100"/>
          <note pan="0" type="0" len="12" pos="1248" key="60" vol="100"/>
          <note pan="0" type="0" len="96" pos="1248" key="53" vol="100"/>
          <note pan="0" type="0" len="12" pos="1284" key="69" vol="100"/>
          <note pan="0" type="0" len="12" pos="1284" key="65" vol="100"/>
          <note pan="0" type="0" len="12" pos="1284" key="60" vol="100"/>
          <note pan="0" type="0" len="12" pos="1320" key="69" vol="100"/>
          <note pan="0" type="0" len="12" pos="1320" key="65" vol="100"/>
          <note pan="0" type="0" len="12" pos="1320" key="60" vol="100"/>
          <note pan="0" type="0" len="96" pos="1344" key="57" vol="100"/>
          <note pan="0" type="0" len="72" pos="1368" key="69" vol="100"/>
          <note pan="0" type="0" len="72" pos="1368" key="65" vol="100"/>
          <note pan="0" type="0" len="72" pos="1368" key="60" vol="100"/>
          <note pan="0" type="0" len="96" pos="1440" key="53" vol="100"/>
          <note pan="0" type="0" len="72" pos="1464" key="72" vol="100"/>
          <note pan="0" type="0" len="72" pos="1464" key="69" vol="100"/>
          <note pan="0" type="0" len="72" pos="1464" key="65" vol="100"/>
        </midiclip>
        <midiclip type="1" autoresize="1" name="" off="0" len="768" pos="7104" muted="0" steps="16">
          <note pan="0" type="0" len="48" pos="0" key="79" vol="100"/>
          <note pan="0" type="0" len="96" pos="0" key="60" vol="100"/>
          <note pan="0" type="0" len="96" pos="0" key="55" vol="100"/>
          <note pan="0" type="0" len="96" pos="0" key="52" vol="100"/>
          <note pan="0" type="0" len="96" pos="0" key="36" vol="100"/>
          <note pan="0" type="0" len="48" pos="48" key="84" vol="100"/>
          <note pan="0" type="0" len="48" pos="96" key="78" vol="100"/>
          <note pan="0" type="0" len="96" pos="96" key="60" vol="100"/>
          <note pan="0" type="0" len="96" pos="96" key="54" vol="100"/>
          <note pan="0" type="0" len="96" pos="96" key="50" vol="100"/>
          <note pan="0" type="0" len="96" pos="96" key="35" vol="100"/>
          <note pan="0" type="0" len="48" pos="144" key="84" vol="100"/>
          <note pan="0" type="0" len="48" pos="192" key="77" vol="100"/>
          <note pan="0" type="0" len="96" pos="192" key="57" vol="100"/>
          <note pan="0" type="0" len="96" pos="192" key="53" vol="100"/>
          <note pan="0" type="0" len="96" pos="192" key="48" vol="100"/>
          <note pan="0" type="0" len="96" pos="192" key="33" vol="100"/>
          <note pan="0" type="0" len="48" pos="240" key="84" vol="100"/>
          <note pan="0" type="0" len="24" pos="288" key="88" vol="100"/>
          <note pan="0" type="0" len="48" pos="288" key="60" vol="100"/>
          <note pan="0" type="0" len="48" pos="288" key="55" vol="100"/>
          <note pan="0" type="0" len="48" pos="288" key="50" vol="100"/>
          <note pan="0" type="0" len="48" pos="288" key="35" vol="100"/>
          <note pan="0" type="0" len="24" pos="312" key="86" vol="100"/>
          <note pan="0" type="0" len="24" pos="336" key="84" vol="100"/>
          <note pan="0" type="0" len="48" pos="336" key="60" vol="100"/>
          <note pan="0" type="0" len="48" pos="336" key="55" vol="100"/>
          <note pan="0" type="0" len="48" pos="336" key="52" vol="100"/>
          <note pan="0" type="0" len="48" pos="336" key="38" vol="100"/>
          <note pan="0" type="0" len="408" pos="360" key="86" vol="100"/>
          <note pan="0" type="0" len="384" pos="384" key="62" vol="100"/>
          <note pan="0" type="0" len="384" pos="384" key="59" vol="100"/>
          <note pan="0" type="0" len="384" pos="384" key="55" vol="100"/>
          <note pan="0" type="0" len="192" pos="384" key="31" vol="100"/>
          <note pan="0" type="0" len="24" pos="576" key="40" vol="100"/>
          <note pan="0" type="0" len="24" pos="600" key="38" vol="100"/>
          <note pan="0" type="0" len="24" pos="624" key="36" vol="100"/>
          <note pan="0" type="0" len="72" pos="648" key="38" vol="100"/>
          <note pan="0" type="0" len="48" pos="720" key="31" vol="100"/>
        </midiclip>
        <midiclip type="1" autoresize="1" name="" off="0" len="768" pos="2304" muted="0" steps="16">
          <note pan="0" type="0" len="72" pos="0" key="58" vol="100"/>
          <note pan="0" type="0" len="48" pos="24" key="74" vol="100"/>
          <note pan="0" type="0" len="48" pos="24" key="70" vol="100"/>
          <note pan="0" type="0" len="48" pos="24" key="65" vol="100"/>
          <note pan="0" type="0" len="120" pos="72" key="72" vol="100"/>
          <note pan="0" type="0" len="120" pos="72" key="68" vol="100"/>
          <note pan="0" type="0" len="120" pos="72" key="65" vol="100"/>
          <note pan="0" type="0" len="120" pos="72" key="56" vol="100"/>
          <note pan="0" type="0" len="24" pos="192" key="55" vol="100"/>
          <note pan="0" type="0" len="48" pos="216" key="72" vol="100"/>
          <note pan="0" type="0" len="48" pos="216" key="67" vol="100"/>
          <note pan="0" type="0" len="48" pos="216" key="63" vol="100"/>
          <note pan="0" type="0" len="48" pos="216" key="60" vol="100"/>
          <note pan="0" type="0" len="72" pos="264" key="74" vol="100"/>
          <note pan="0" type="0" len="72" pos="264" key="70" vol="100"/>
          <note pan="0" type="0" len="72" pos="264" key="67" vol="100"/>
          <note pan="0" type="0" len="96" pos="264" key="62" vol="100"/>
          <note pan="0" type="0" len="24" pos="336" key="72" vol="100"/>
          <note pan="0" type="0" len="192" pos="360" key="75" vol="100"/>
          <note pan="0" type="0" len="192" pos="360" key="72" vol="100"/>
          <note pan="0" type="0" len="192" pos="360" key="67" vol="100"/>
          <note pan="0" type="0" len="192" pos="360" key="63" vol="100"/>
          <note pan="0" type="0" len="120" pos="552" key="72" vol="100"/>
          <note pan="0" type="0" len="120" pos="552" key="69" vol="100"/>
          <note pan="0" type="0" len="120" pos="552" key="65" vol="100"/>
          <note pan="0" type="0" len="120" pos="552" key="57" vol="100"/>
          <note pan="0" type="0" len="48" pos="672" key="72" vol="100"/>
          <note pan="0" type="0" len="48" pos="672" key="69" vol="100"/>
          <note pan="0" type="0" len="48" pos="672" key="63" vol="100"/>
          <note pan="0" type="0" len="48" pos="672" key="57" vol="100"/>
          <note pan="0" type="0" len="48" pos="720" key="70" vol="100"/>
          <note pan="0" type="0" len="48" pos="720" key="65" vol="100"/>
          <note pan="0" type="0" len="48" pos="720" key="62" vol="100"/>
          <note pan="0" type="0" len="48" pos="720" key="58" vol="100"/>
        </midiclip>
        <midiclip type="1" autoresize="1" name="" off="0" len="1344" pos="3072" muted="0" steps="16">
          <note pan="0" type="0" len="144" pos="0" key="60" vol="100"/>
          <note pan="0" type="0" len="144" pos="0" key="55" vol="100"/>
          <note pan="0" type="0" len="144" pos="0" key="51" vol="100"/>
          <note pan="0" type="0" len="144" pos="0" key="48" vol="100"/>
          <note pan="0" type="0" len="144" pos="0" key="36" vol="100"/>
          <note pan="0" type="0" len="192" pos="144" key="63" vol="100"/>
          <note pan="0" type="0" len="192" pos="144" key="60" vol="100"/>
          <note pan="0" type="0" len="192" pos="144" key="57" vol="100"/>
          <note pan="0" type="0" len="144" pos="144" key="53" vol="100"/>
          <note pan="0" type="0" len="192" pos="144" key="41" vol="100"/>
          <note pan="0" type="0" len="48" pos="288" key="51" vol="100"/>
          <note pan="0" type="0" len="144" pos="336" key="62" vol="100"/>
          <note pan="0" type="0" len="144" pos="336" key="58" vol="100"/>
          <note pan="0" type="0" len="144" pos="336" key="56" vol="100"/>
          <note pan="0" type="0" len="144" pos="336" key="53" vol="100"/>
          <note pan="0" type="0" len="144" pos="336" key="34" vol="100"/>
          <note pan="0" type="0" len="192" pos="480" key="65" vol="100"/>
          <note pan="0" type="0" len="192" pos="480" key="62" vol="100"/>
          <note pan="0" type="0" len="192" pos="480" key="58" vol="100"/>
          <note pan="0" type="0" len="144" pos="480" key="53" vol="100"/>
          <note pan="0" type="0" len="192" pos="480" key="29" vol="100"/>
          <note pan="0" type="0" len="48" pos="624" key="51" vol="100"/>
          <note pan="0" type="0" len="144" pos="672" key="67" vol="100"/>
          <note pan="0" type="0" len="144" pos="672" key="63" vol="100"/>
          <note pan="0" type="0" len="144" pos="672" key="60" vol="100"/>
          <note pan="0" type="0" len="144" pos="672" key="55" vol="100"/>
          <note pan="0" type="0" len="144" pos="672" key="36" vol="100"/>
          <note pan="0" type="0" len="192" pos="816" key="65" vol="100"/>
          <note pan="0" type="0" len="192" pos="816" key="62" vol="100"/>
          <note pan="0" type="0" len="192" pos="816" key="58" vol="100"/>
          <note pan="0" type="0" len="144" pos="816" key="53" vol="100"/>
          <note pan="0" type="0" len="192" pos="816" key="34" vol="100"/>
          <note pan="0" type="0" len="48" pos="960" key="51" vol="100"/>
          <note pan="0" type="0" len="144" pos="1008" key="63" vol="100"/>
          <note pan="0" type="0" len="144" pos="1008" key="60" vol="100"/>
          <note pan="0" type="0" len="144" pos="1008" key="58" vol="100"/>
          <note pan="0" type="0" len="144" pos="1008" key="56" vol="100"/>
          <note pan="0" type="0" len="144" pos="1008" key="39" vol="100"/>
          <note pan="0" type="0" len="192" pos="1152" key="62" vol="100"/>
          <note pan="0" type="0" len="192" pos="1152" key="59" vol="100"/>
          <note pan="0" type="0" len="192" pos="1152" key="57" vol="100"/>
          <note pan="0" type="0" len="192" pos="1152" key="55" vol="100"/>
          <note pan="0" type="0" len="192" pos="1152" key="35" vol="100"/>
        </midiclip>
      </track>
      <track type="0" name="tgsf21x" mutedBeforeSolo="0" muted="0" solo="0">
        <instrumenttrack pan="0" range_import="1" mixch="4" pitchrange="1" firstkey="0" keymap="0" usemasterpitch="1" scale="0" pitch="0" basenote="69" lastkey="127" enablecc="0" enabled="0" vol="100">
          <midicontrollers cc115="0" cc71="0" cc3="0" cc63="0" cc90="0" cc74="0" cc82="0" cc96="0" cc10="0" cc17="0" cc116="0" cc59="0" cc122="0" cc118="0" cc45="0" cc77="0" cc72="0" cc40="0" cc2="0" cc105="0" cc24="0" cc33="0" cc43="0" cc13="0" cc88="0" cc6="0" cc31="0" cc52="0" cc15="0" cc67="0" cc7="0" cc41="0" cc4="0" cc19="0" cc125="0" cc75="0" cc79="0" cc93="0" cc25="0" cc39="0" cc51="0" cc87="0" cc55="0" cc28="0" cc26="0" cc98="0" cc102="0" cc50="0" cc23="0" cc16="0" cc92="0" cc57="0" cc69="0" cc18="0" cc85="0" cc103="0" cc126="0" cc124="0" cc9="0" cc20="0" cc68="0" cc114="0" cc30="0" cc47="0" cc86="0" cc97="0" cc5="0" cc73="0" cc60="0" cc108="0" cc66="0" cc58="0" cc121="0" cc49="0" cc99="0" cc65="0" cc83="0" cc35="0" cc94="0" cc44="0" cc112="0" cc37="0" cc64="0" cc84="0" cc14="0" cc38="0" cc32="0" cc62="0" cc78="0" cc54="0" cc34="0" cc117="0" cc76="0" cc127="0" cc89="0" cc0="0" cc100="0" cc109="0" cc111="0" cc29="0" cc95="0" cc70="0" cc91="0" cc27="0" cc81="0" cc120="0" cc1="0" cc42="0" cc113="0" cc22="0" cc80="0" cc110="0" cc8="0" cc46="0" cc12="0" cc53="0" cc11="0" cc21="0" cc36="0" cc56="0" cc101="0" cc106="0" cc61="0" cc48="0" cc123="0" cc104="0" cc119="0" cc107="0"/>
          <instrument name="sf2player">
            <sf2player reverbWidth="0.5" reverbLevel="0.89999998" chorusDepth="8" src="usersoundfont:tgsf21x.sf2" chorusOn="0" bank="0" chorusSpeed="0.30000001" chorusNum="3" reverbOn="0" gain="0.41999999" patch="101" reverbRoomSize="0.2" chorusLevel="2" reverbDamping="0">
              <key/>
            </sf2player>
          </instrument>
          <eldata ftype="0" fres="0.5" fcut="14000" fwet="0">
            <elvol pdel="0" lshp="0" lspd_numerator="4" rel="0.1" ctlenvamt="0" lspd_denominator="4" dec="0.5" hold="0.5" lamt="0" lpdel="0" x100="0" userwavefile="" amt="0" latt="0" sustain="0.5" lspd_syncmode="0" att="0" lspd="0.1"/>
            <elcut pdel="0" lshp="0" lspd_numerator="4" rel="0.1" ctlenvamt="0" lspd_denominator="4" dec="0.5" hold="0.5" lamt="0" lpdel="0" x100="0" userwavefile="" amt="0" latt="0" sustain="0.5" lspd_syncmode="0" att="0" lspd="0.1"/>
            <elres pdel="0" lshp="0" lspd_numerator="4" rel="0.1" ctlenvamt="0" lspd_denominator="4" dec="0.5" hold="0.5" lamt="0" lpdel="0" x100="0" userwavefile="" amt="0" latt="0" sustain="0.5" lspd_syncmode="0" att="0" lspd="0.1"/>
          </eldata>
          <chordcreator chord="0" chordrange="1" chord-enabled="0"/>
          <arpeggiator arprange="1" arpdir="0" arpskip="0" arpmode="0" arpmiss="0" arptime="200" arpgate="100" arptime_numerator="4" arp-enabled="0" arpcycle="0" arptime_denominator="4" arptime_syncmode="0" arprepeats="1" arp="0"/>
          <midiport inputcontroller="0" fixedoutputvelocity="-1" readable="0" fixedoutputnote="-1" basevelocity="63" fixedinputvelocity="-1" inputchannel="0" outputchannel="1" writable="0" outputcontroller="0" outputprogram="1"/>
          <fxchain numofeffects="0" enabled="0"/>
        </instrumenttrack>
        <midiclip type="1" autoresize="1" name="" off="0" len="1536" pos="768" muted="0" steps="16">
          <note pan="0" type="0" len="192" pos="0" key="65" vol="100"/>
          <note pan="0" type="0" len="192" pos="0" key="61" vol="100"/>
          <note pan="0" type="0" len="192" pos="0" key="58" vol="100"/>
          <note pan="0" type="0" len="192" pos="192" key="66" vol="100"/>
          <note pan="0" type="0" len="192" pos="192" key="61" vol="100"/>
          <note pan="0" type="0" len="192" pos="192" key="58" vol="100"/>
          <note pan="0" type="0" len="384" pos="384" key="65" vol="100"/>
          <note pan="0" type="0" len="384" pos="384" key="60" vol="100"/>
          <note pan="0" type="0" len="384" pos="384" key="57" vol="100"/>
          <note pan="0" type="0" len="192" pos="768" key="65" vol="100"/>
          <note pan="0" type="0" len="192" pos="768" key="61" vol="100"/>
          <note pan="0" type="0" len="192" pos="768" key="58" vol="100"/>
          <note pan="0" type="0" len="192" pos="960" key="66" vol="100"/>
          <note pan="0" type="0" len="192" pos="960" key="61" vol="100"/>
          <note pan="0" type="0" len="192" pos="960" key="58" vol="100"/>
          <note pan="0" type="0" len="384" pos="1152" key="69" vol="100"/>
          <note pan="0" type="0" len="384" pos="1152" key="65" vol="100"/>
          <note pan="0" type="0" len="384" pos="1152" key="60" vol="100"/>
        </midiclip>
        <midiclip type="1" autoresize="1" name="" off="0" len="768" pos="2304" muted="0" steps="16">
          <note pan="0" type="0" len="72" pos="0" key="65" vol="100"/>
          <note pan="0" type="0" len="72" pos="0" key="62" vol="100"/>
          <note pan="0" type="0" len="72" pos="0" key="58" vol="100"/>
          <note pan="0" type="0" len="120" pos="72" key="63" vol="100"/>
          <note pan="0" type="0" len="120" pos="72" key="60" vol="100"/>
          <note pan="0" type="0" len="120" pos="72" key="56" vol="100"/>
          <note pan="0" type="0" len="72" pos="192" key="67" vol="100"/>
          <note pan="0" type="0" len="72" pos="192" key="63" vol="100"/>
          <note pan="0" type="0" len="72" pos="192" key="59" vol="100"/>
          <note pan="0" type="0" len="96" pos="264" key="65" vol="100"/>
          <note pan="0" type="0" len="96" pos="264" key="62" vol="100"/>
          <note pan="0" type="0" len="96" pos="264" key="59" vol="100"/>
          <note pan="0" type="0" len="192" pos="360" key="67" vol="100"/>
          <note pan="0" type="0" len="192" pos="360" key="63" vol="100"/>
          <note pan="0" type="0" len="192" pos="360" key="60" vol="100"/>
          <note pan="0" type="0" len="120" pos="552" key="65" vol="100"/>
          <note pan="0" type="0" len="120" pos="552" key="60" vol="100"/>
          <note pan="0" type="0" len="120" pos="552" key="57" vol="100"/>
          <note pan="0" type="0" len="48" pos="672" key="63" vol="100"/>
          <note pan="0" type="0" len="48" pos="672" key="60" vol="100"/>
          <note pan="0" type="0" len="48" pos="672" key="57" vol="100"/>
          <note pan="0" type="0" len="48" pos="720" key="62" vol="100"/>
          <note pan="0" type="0" len="48" pos="720" key="58" vol="100"/>
          <note pan="0" type="0" len="48" pos="720" key="55" vol="100"/>
        </midiclip>
        <midiclip type="1" autoresize="1" name="" off="0" len="1536" pos="5376" muted="0" steps="16">
          <note pan="0" type="0" len="192" pos="0" key="65" vol="100"/>
          <note pan="0" type="0" len="192" pos="0" key="62" vol="100"/>
          <note pan="0" type="0" len="192" pos="0" key="58" vol="100"/>
          <note pan="0" type="0" len="192" pos="192" key="65" vol="100"/>
          <note pan="0" type="0" len="192" pos="192" key="62" vol="100"/>
          <note pan="0" type="0" len="192" pos="192" key="60" vol="100"/>
          <note pan="0" type="0" len="192" pos="384" key="67" vol="100"/>
          <note pan="0" type="0" len="192" pos="384" key="63" vol="100"/>
          <note pan="0" type="0" len="192" pos="384" key="58" vol="100"/>
          <note pan="0" type="0" len="192" pos="576" key="67" vol="100"/>
          <note pan="0" type="0" len="192" pos="576" key="63" vol="100"/>
          <note pan="0" type="0" len="192" pos="576" key="60" vol="100"/>
          <note pan="0" type="0" len="192" pos="768" key="62" vol="100"/>
          <note pan="0" type="0" len="192" pos="768" key="58" vol="100"/>
          <note pan="0" type="0" len="192" pos="768" key="53" vol="100"/>
          <note pan="0" type="0" len="192" pos="960" key="58" vol="100"/>
          <note pan="0" type="0" len="192" pos="960" key="55" vol="100"/>
          <note pan="0" type="0" len="192" pos="960" key="51" vol="100"/>
          <note pan="0" type="0" len="192" pos="1152" key="62" vol="100"/>
          <note pan="0" type="0" len="192" pos="1152" key="58" vol="100"/>
          <note pan="0" type="0" len="192" pos="1152" key="55" vol="100"/>
          <note pan="0" type="0" len="192" pos="1344" key="63" vol="100"/>
          <note pan="0" type="0" len="192" pos="1344" key="60" vol="100"/>
          <note pan="0" type="0" len="192" pos="1344" key="57" vol="100"/>
        </midiclip>
        <midiclip type="1" autoresize="1" name="" off="0" len="768" pos="4416" muted="0" steps="16">
          <note pan="0" type="0" len="96" pos="0" key="60" vol="100"/>
          <note pan="0" type="0" len="96" pos="0" key="55" vol="100"/>
          <note pan="0" type="0" len="96" pos="0" key="52" vol="100"/>
          <note pan="0" type="0" len="96" pos="96" key="60" vol="100"/>
          <note pan="0" type="0" len="96" pos="96" key="54" vol="100"/>
          <note pan="0" type="0" len="96" pos="96" key="50" vol="100"/>
          <note pan="0" type="0" len="96" pos="192" key="57" vol="100"/>
          <note pan="0" type="0" len="96" pos="192" key="53" vol="100"/>
          <note pan="0" type="0" len="96" pos="192" key="48" vol="100"/>
          <note pan="0" type="0" len="48" pos="288" key="60" vol="100"/>
          <note pan="0" type="0" len="48" pos="288" key="55" vol="100"/>
          <note pan="0" type="0" len="48" pos="288" key="50" vol="100"/>
          <note pan="0" type="0" len="48" pos="336" key="60" vol="100"/>
          <note pan="0" type="0" len="48" pos="336" key="55" vol="100"/>
          <note pan="0" type="0" len="48" pos="336" key="52" vol="100"/>
          <note pan="0" type="0" len="384" pos="384" key="62" vol="100"/>
          <note pan="0" type="0" len="384" pos="384" key="59" vol="100"/>
          <note pan="0" type="0" len="384" pos="384" key="55" vol="100"/>
        </midiclip>
        <midiclip type="1" autoresize="1" name="" off="0" len="1344" pos="3072" muted="0" steps="16">
          <note pan="0" type="0" len="144" pos="0" key="60" vol="100"/>
          <note pan="0" type="0" len="144" pos="0" key="55" vol="100"/>
          <note pan="0" type="0" len="144" pos="0" key="51" vol="100"/>
          <note pan="0" type="0" len="144" pos="0" key="48" vol="100"/>
          <note pan="0" type="0" len="192" pos="144" key="63" vol="100"/>
          <note pan="0" type="0" len="192" pos="144" key="60" vol="100"/>
          <note pan="0" type="0" len="192" pos="144" key="57" vol="100"/>
          <note pan="0" type="0" len="144" pos="144" key="53" vol="100"/>
          <note pan="0" type="0" len="48" pos="288" key="51" vol="100"/>
          <note pan="0" type="0" len="144" pos="336" key="62" vol="100"/>
          <note pan="0" type="0" len="144" pos="336" key="58" vol="100"/>
          <note pan="0" type="0" len="144" pos="336" key="56" vol="100"/>
          <note pan="0" type="0" len="144" pos="336" key="53" vol="100"/>
          <note pan="0" type="0" len="192" pos="480" key="65" vol="100"/>
          <note pan="0" type="0" len="192" pos="480" key="62" vol="100"/>
          <note pan="0" type="0" len="192" pos="480" key="58" vol="100"/>
          <note pan="0" type="0" len="144" pos="480" key="53" vol="100"/>
          <note pan="0" type="0" len="48" pos="624" key="51" vol="100"/>
          <note pan="0" type="0" len="144" pos="672" key="67" vol="100"/>
          <note pan="0" type="0" len="144" pos="672" key="63" vol="100"/>
          <note pan="0" type="0" len="144" pos="672" key="60" vol="100"/>
          <note pan="0" type="0" len="144" pos="672" key="55" vol="100"/>
          <note pan="0" type="0" len="192" pos="816" key="65" vol="100"/>
          <note pan="0" type="0" len="192" pos="816" key="62" vol="100"/>
          <note pan="0" type="0" len="192" pos="816" key="58" vol="100"/>
          <note pan="0" type="0" len="144" pos="816" key="53" vol="100"/>
          <note pan="0" type="0" len="48" pos="960" key="51" vol="100"/>
          <note pan="0" type="0" len="144" pos="1008" key="63" vol="100"/>
          <note pan="0" type="0" len="144" pos="1008" key="60" vol="100"/>
          <note pan="0" type="0" len="144" pos="1008" key="58" vol="100"/>
          <note pan="0" type="0" len="144" pos="1008" key="56" vol="100"/>
          <note pan="0" type="0" len="192" pos="1152" key="62" vol="100"/>
          <note pan="0" type="0" len="192" pos="1152" key="59" vol="100"/>
          <note pan="0" type="0" len="192" pos="1152" key="57" vol="100"/>
          <note pan="0" type="0" len="192" pos="1152" key="55" vol="100"/>
        </midiclip>
      </track>
      <track type="0" name="tgsf21x" mutedBeforeSolo="0" muted="0" solo="0">
        <instrumenttrack pan="0" range_import="1" mixch="4" pitchrange="1" firstkey="0" keymap="0" usemasterpitch="1" scale="0" pitch="0" basenote="69" lastkey="127" enablecc="0" enabled="0" vol="100">
          <midicontrollers cc115="0" cc71="0" cc3="0" cc63="0" cc90="0" cc74="0" cc82="0" cc96="0" cc10="0" cc17="0" cc116="0" cc59="0" cc122="0" cc118="0" cc45="0" cc77="0" cc72="0" cc40="0" cc2="0" cc105="0" cc24="0" cc33="0" cc43="0" cc13="0" cc88="0" cc6="0" cc31="0" cc52="0" cc15="0" cc67="0" cc7="0" cc41="0" cc4="0" cc19="0" cc125="0" cc75="0" cc79="0" cc93="0" cc25="0" cc39="0" cc51="0" cc87="0" cc55="0" cc28="0" cc26="0" cc98="0" cc102="0" cc50="0" cc23="0" cc16="0" cc92="0" cc57="0" cc69="0" cc18="0" cc85="0" cc103="0" cc126="0" cc124="0" cc9="0" cc20="0" cc68="0" cc114="0" cc30="0" cc47="0" cc86="0" cc97="0" cc5="0" cc73="0" cc60="0" cc108="0" cc66="0" cc58="0" cc121="0" cc49="0" cc99="0" cc65="0" cc83="0" cc35="0" cc94="0" cc44="0" cc112="0" cc37="0" cc64="0" cc84="0" cc14="0" cc38="0" cc32="0" cc62="0" cc78="0" cc54="0" cc34="0" cc117="0" cc76="0" cc127="0" cc89="0" cc0="0" cc100="0" cc109="0" cc111="0" cc29="0" cc95="0" cc70="0" cc91="0" cc27="0" cc81="0" cc120="0" cc1="0" cc42="0" cc113="0" cc22="0" cc80="0" cc110="0" cc8="0" cc46="0" cc12="0" cc53="0" cc11="0" cc21="0" cc36="0" cc56="0" cc101="0" cc106="0" cc61="0" cc48="0" cc123="0" cc104="0" cc119="0" cc107="0"/>
          <instrument name="sf2player">
            <sf2player reverbWidth="0.5" reverbLevel="0.89999998" chorusDepth="8" src="usersoundfont:tgsf21x.sf2" chorusOn="0" bank="0" chorusSpeed="0.30000001" chorusNum="3" reverbOn="0" gain="0.41999999" patch="88" reverbRoomSize="0.2" chorusLevel="2" reverbDamping="0">
              <key/>
            </sf2player>
          </instrument>
          <eldata ftype="0" fres="0.5" fcut="14000" fwet="0">
            <elvol pdel="0" lshp="0" lspd_numerator="4" rel="0.1" ctlenvamt="0" lspd_denominator="4" dec="0.5" hold="0.5" lamt="0" lpdel="0" x100="0" userwavefile="" amt="0" latt="0" sustain="0.5" lspd_syncmode="0" att="0" lspd="0.1"/>
            <elcut pdel="0" lshp="0" lspd_numerator="4" rel="0.1" ctlenvamt="0" lspd_denominator="4" dec="0.5" hold="0.5" lamt="0" lpdel="0" x100="0" userwavefile="" amt="0" latt="0" sustain="0.5" lspd_syncmode="0" att="0" lspd="0.1"/>
            <elres pdel="0" lshp="0" lspd_numerator="4" rel="0.1" ctlenvamt="0" lspd_denominator="4" dec="0.5" hold="0.5" lamt="0" lpdel="0" x100="0" userwavefile="" amt="0" latt="0" sustain="0.5" lspd_syncmode="0" att="0" lspd="0.1"/>
          </eldata>
          <chordcreator chord="0" chordrange="1" chord-enabled="0"/>
          <arpeggiator arprange="1" arpdir="0" arpskip="0" arpmode="0" arpmiss="0" arptime="200" arpgate="100" arptime_numerator="4" arp-enabled="0" arpcycle="0" arptime_denominator="4" arptime_syncmode="0" arprepeats="1" arp="0"/>
          <midiport inputcontroller="0" fixedoutputvelocity="-1" readable="0" fixedoutputnote="-1" basevelocity="63" fixedinputvelocity="-1" inputchannel="0" outputchannel="1" writable="0" outputcontroller="0" outputprogram="1"/>
          <fxchain numofeffects="0" enabled="0"/>
        </instrumenttrack>
        <midiclip type="1" autoresize="1" name="" off="0" len="1536" pos="768" muted="0" steps="16">
          <note pan="0" type="0" len="192" pos="0" key="65" vol="100"/>
          <note pan="0" type="0" len="192" pos="0" key="61" vol="100"/>
          <note pan="0" type="0" len="192" pos="0" key="58" vol="100"/>
          <note pan="0" type="0" len="192" pos="192" key="66" vol="100"/>
          <note pan="0" type="0" len="192" pos="192" key="61" vol="100"/>
          <note pan="0" type="0" len="192" pos="192" key="58" vol="100"/>
          <note pan="0" type="0" len="384" pos="384" key="65" vol="100"/>
          <note pan="0" type="0" len="384" pos="384" key="60" vol="100"/>
          <note pan="0" type="0" len="384" pos="384" key="57" vol="100"/>
          <note pan="0" type="0" len="192" pos="768" key="65" vol="100"/>
          <note pan="0" type="0" len="192" pos="768" key="61" vol="100"/>
          <note pan="0" type="0" len="192" pos="768" key="58" vol="100"/>
          <note pan="0" type="0" len="192" pos="960" key="66" vol="100"/>
          <note pan="0" type="0" len="192" pos="960" key="61" vol="100"/>
          <note pan="0" type="0" len="192" pos="960" key="58" vol="100"/>
          <note pan="0" type="0" len="384" pos="1152" key="69" vol="100"/>
          <note pan="0" type="0" len="384" pos="1152" key="65" vol="100"/>
          <note pan="0" type="0" len="384" pos="1152" key="60" vol="100"/>
        </midiclip>
        <midiclip type="1" autoresize="1" name="" off="0" len="768" pos="2304" muted="0" steps="16">
          <note pan="0" type="0" len="72" pos="0" key="65" vol="100"/>
          <note pan="0" type="0" len="72" pos="0" key="62" vol="100"/>
          <note pan="0" type="0" len="72" pos="0" key="58" vol="100"/>
          <note pan="0" type="0" len="120" pos="72" key="63" vol="100"/>
          <note pan="0" type="0" len="120" pos="72" key="60" vol="100"/>
          <note pan="0" type="0" len="120" pos="72" key="56" vol="100"/>
          <note pan="0" type="0" len="72" pos="192" key="67" vol="100"/>
          <note pan="0" type="0" len="72" pos="192" key="63" vol="100"/>
          <note pan="0" type="0" len="72" pos="192" key="59" vol="100"/>
          <note pan="0" type="0" len="96" pos="264" key="65" vol="100"/>
          <note pan="0" type="0" len="96" pos="264" key="62" vol="100"/>
          <note pan="0" type="0" len="96" pos="264" key="59" vol="100"/>
          <note pan="0" type="0" len="192" pos="360" key="67" vol="100"/>
          <note pan="0" type="0" len="192" pos="360" key="63" vol="100"/>
          <note pan="0" type="0" len="192" pos="360" key="60" vol="100"/>
          <note pan="0" type="0" len="120" pos="552" key="65" vol="100"/>
          <note pan="0" type="0" len="120" pos="552" key="60" vol="100"/>
          <note pan="0" type="0" len="120" pos="552" key="57" vol="100"/>
          <note pan="0" type="0" len="48" pos="672" key="63" vol="100"/>
          <note pan="0" type="0" len="48" pos="672" key="60" vol="100"/>
          <note pan="0" type="0" len="48" pos="672" key="57" vol="100"/>
          <note pan="0" type="0" len="48" pos="720" key="62" vol="100"/>
          <note pan="0" type="0" len="48" pos="720" key="58" vol="100"/>
          <note pan="0" type="0" len="48" pos="720" key="55" vol="100"/>
        </midiclip>
        <midiclip type="1" autoresize="1" name="" off="0" len="1536" pos="5376" muted="0" steps="16">
          <note pan="0" type="0" len="192" pos="0" key="65" vol="100"/>
          <note pan="0" type="0" len="192" pos="0" key="62" vol="100"/>
          <note pan="0" type="0" len="192" pos="0" key="58" vol="100"/>
          <note pan="0" type="0" len="192" pos="192" key="65" vol="100"/>
          <note pan="0" type="0" len="192" pos="192" key="62" vol="100"/>
          <note pan="0" type="0" len="192" pos="192" key="60" vol="100"/>
          <note pan="0" type="0" len="192" pos="384" key="67" vol="100"/>
          <note pan="0" type="0" len="192" pos="384" key="63" vol="100"/>
          <note pan="0" type="0" len="192" pos="384" key="58" vol="100"/>
          <note pan="0" type="0" len="192" pos="576" key="67" vol="100"/>
          <note pan="0" type="0" len="192" pos="576" key="63" vol="100"/>
          <note pan="0" type="0" len="192" pos="576" key="60" vol="100"/>
          <note pan="0" type="0" len="192" pos="768" key="62" vol="100"/>
          <note pan="0" type="0" len="192" pos="768" key="58" vol="100"/>
          <note pan="0" type="0" len="192" pos="768" key="53" vol="100"/>
          <note pan="0" type="0" len="192" pos="960" key="58" vol="100"/>
          <note pan="0" type="0" len="192" pos="960" key="55" vol="100"/>
          <note pan="0" type="0" len="192" pos="960" key="51" vol="100"/>
          <note pan="0" type="0" len="192" pos="1152" key="62" vol="100"/>
          <note pan="0" type="0" len="192" pos="1152" key="58" vol="100"/>
          <note pan="0" type="0" len="192" pos="1152" key="55" vol="100"/>
          <note pan="0" type="0" len="192" pos="1344" key="63" vol="100"/>
          <note pan="0" type="0" len="192" pos="1344" key="60" vol="100"/>
          <note pan="0" type="0" len="192" pos="1344" key="57" vol="100"/>
        </midiclip>
        <midiclip type="1" autoresize="1" name="" off="0" len="768" pos="4416" muted="0" steps="16">
          <note pan="0" type="0" len="96" pos="0" key="60" vol="100"/>
          <note pan="0" type="0" len="96" pos="0" key="55" vol="100"/>
          <note pan="0" type="0" len="96" pos="0" key="52" vol="100"/>
          <note pan="0" type="0" len="96" pos="96" key="60" vol="100"/>
          <note pan="0" type="0" len="96" pos="96" key="54" vol="100"/>
          <note pan="0" type="0" len="96" pos="96" key="50" vol="100"/>
          <note pan="0" type="0" len="96" pos="192" key="57" vol="100"/>
          <note pan="0" type="0" len="96" pos="192" key="53" vol="100"/>
          <note pan="0" type="0" len="96" pos="192" key="48" vol="100"/>
          <note pan="0" type="0" len="48" pos="288" key="60" vol="100"/>
          <note pan="0" type="0" len="48" pos="288" key="55" vol="100"/>
          <note pan="0" type="0" len="48" pos="288" key="50" vol="100"/>
          <note pan="0" type="0" len="48" pos="336" key="60" vol="100"/>
          <note pan="0" type="0" len="48" pos="336" key="55" vol="100"/>
          <note pan="0" type="0" len="48" pos="336" key="52" vol="100"/>
          <note pan="0" type="0" len="384" pos="384" key="62" vol="100"/>
          <note pan="0" type="0" len="384" pos="384" key="59" vol="100"/>
          <note pan="0" type="0" len="384" pos="384" key="55" vol="100"/>
        </midiclip>
        <midiclip type="1" autoresize="1" name="" off="0" len="1344" pos="3072" muted="0" steps="16">
          <note pan="0" type="0" len="144" pos="0" key="60" vol="100"/>
          <note pan="0" type="0" len="144" pos="0" key="55" vol="100"/>
          <note pan="0" type="0" len="144" pos="0" key="51" vol="100"/>
          <note pan="0" type="0" len="144" pos="0" key="48" vol="100"/>
          <note pan="0" type="0" len="192" pos="144" key="63" vol="100"/>
          <note pan="0" type="0" len="192" pos="144" key="60" vol="100"/>
          <note pan="0" type="0" len="192" pos="144" key="57" vol="100"/>
          <note pan="0" type="0" len="144" pos="144" key="53" vol="100"/>
          <note pan="0" type="0" len="48" pos="288" key="51" vol="100"/>
          <note pan="0" type="0" len="144" pos="336" key="62" vol="100"/>
          <note pan="0" type="0" len="144" pos="336" key="58" vol="100"/>
          <note pan="0" type="0" len="144" pos="336" key="56" vol="100"/>
          <note pan="0" type="0" len="144" pos="336" key="53" vol="100"/>
          <note pan="0" type="0" len="192" pos="480" key="65" vol="100"/>
          <note pan="0" type="0" len="192" pos="480" key="62" vol="100"/>
          <note pan="0" type="0" len="192" pos="480" key="58" vol="100"/>
          <note pan="0" type="0" len="144" pos="480" key="53" vol="100"/>
          <note pan="0" type="0" len="48" pos="624" key="51" vol="100"/>
          <note pan="0" type="0" len="144" pos="672" key="67" vol="100"/>
          <note pan="0" type="0" len="144" pos="672" key="63" vol="100"/>
          <note pan="0" type="0" len="144" pos="672" key="60" vol="100"/>
          <note pan="0" type="0" len="144" pos="672" key="55" vol="100"/>
          <note pan="0" type="0" len="192" pos="816" key="65" vol="100"/>
          <note pan="0" type="0" len="192" pos="816" key="62" vol="100"/>
          <note pan="0" type="0" len="192" pos="816" key="58" vol="100"/>
          <note pan="0" type="0" len="144" pos="816" key="53" vol="100"/>
          <note pan="0" type="0" len="48" pos="960" key="51" vol="100"/>
          <note pan="0" type="0" len="144" pos="1008" key="63" vol="100"/>
          <note pan="0" type="0" len="144" pos="1008" key="60" vol="100"/>
          <note pan="0" type="0" len="144" pos="1008" key="58" vol="100"/>
          <note pan="0" type="0" len="144" pos="1008" key="56" vol="100"/>
          <note pan="0" type="0" len="192" pos="1152" key="62" vol="100"/>
          <note pan="0" type="0" len="192" pos="1152" key="59" vol="100"/>
          <note pan="0" type="0" len="192" pos="1152" key="57" vol="100"/>
          <note pan="0" type="0" len="192" pos="1152" key="55" vol="100"/>
        </midiclip>
      </track>
      <track type="0" name="GeneralUser GS v1" mutedBeforeSolo="0" muted="0" solo="0">
        <instrumenttrack pan="0" range_import="1" mixch="4" pitchrange="1" firstkey="0" keymap="0" usemasterpitch="1" scale="0" pitch="0" basenote="69" lastkey="127" enablecc="0" enabled="0" vol="100">
          <midicontrollers cc115="0" cc71="0" cc3="0" cc63="0" cc90="0" cc74="0" cc82="0" cc96="0" cc10="0" cc17="0" cc116="0" cc59="0" cc122="0" cc118="0" cc45="0" cc77="0" cc72="0" cc40="0" cc2="0" cc105="0" cc24="0" cc33="0" cc43="0" cc13="0" cc88="0" cc6="0" cc31="0" cc52="0" cc15="0" cc67="0" cc7="0" cc41="0" cc4="0" cc19="0" cc125="0" cc75="0" cc79="0" cc93="0" cc25="0" cc39="0" cc51="0" cc87="0" cc55="0" cc28="0" cc26="0" cc98="0" cc102="0" cc50="0" cc23="0" cc16="0" cc92="0" cc57="0" cc69="0" cc18="0" cc85="0" cc103="0" cc126="0" cc124="0" cc9="0" cc20="0" cc68="0" cc114="0" cc30="0" cc47="0" cc86="0" cc97="0" cc5="0" cc73="0" cc60="0" cc108="0" cc66="0" cc58="0" cc121="0" cc49="0" cc99="0" cc65="0" cc83="0" cc35="0" cc94="0" cc44="0" cc112="0" cc37="0" cc64="0" cc84="0" cc14="0" cc38="0" cc32="0" cc62="0" cc78="0" cc54="0" cc34="0" cc117="0" cc76="0" cc127="0" cc89="0" cc0="0" cc100="0" cc109="0" cc111="0" cc29="0" cc95="0" cc70="0" cc91="0" cc27="0" cc81="0" cc120="0" cc1="0" cc42="0" cc113="0" cc22="0" cc80="0" cc110="0" cc8="0" cc46="0" cc12="0" cc53="0" cc11="0" cc21="0" cc36="0" cc56="0" cc101="0" cc106="0" cc61="0" cc48="0" cc123="0" cc104="0" cc119="0" cc107="0"/>
          <instrument name="sf2player">
            <sf2player reverbWidth="0.5" reverbLevel="0.89999998" chorusDepth="8" src="usersoundfont:GeneralUser GS v1.471.sf2" chorusOn="0" bank="8" chorusSpeed="0.30000001" chorusNum="3" reverbOn="0" gain="0.41999999" patch="26" reverbRoomSize="0.2" chorusLevel="2" reverbDamping="0">
              <key/>
            </sf2player>
          </instrument>
          <eldata ftype="0" fres="0.5" fcut="14000" fwet="0">
            <elvol pdel="0" lshp="0" lspd_numerator="4" rel="0.1" ctlenvamt="0" lspd_denominator="4" dec="0.5" hold="0.5" lamt="0" lpdel="0" x100="0" userwavefile="" amt="0" latt="0" sustain="0.5" lspd_syncmode="0" att="0" lspd="0.1"/>
            <elcut pdel="0" lshp="0" lspd_numerator="4" rel="0.1" ctlenvamt="0" lspd_denominator="4" dec="0.5" hold="0.5" lamt="0" lpdel="0" x100="0" userwavefile="" amt="0" latt="0" sustain="0.5" lspd_syncmode="0" att="0" lspd="0.1"/>
            <elres pdel="0" lshp="0" lspd_numerator="4" rel="0.1" ctlenvamt="0" lspd_denominator="4" dec="0.5" hold="0.5" lamt="0" lpdel="0" x100="0" userwavefile="" amt="0" latt="0" sustain="0.5" lspd_syncmode="0" att="0" lspd="0.1"/>
          </eldata>
          <chordcreator chord="0" chordrange="1" chord-enabled="0"/>
          <arpeggiator arprange="1" arpdir="0" arpskip="0" arpmode="0" arpmiss="0" arptime="200" arpgate="100" arptime_numerator="4" arp-enabled="0" arpcycle="0" arptime_denominator="4" arptime_syncmode="0" arprepeats="1" arp="0"/>
          <midiport inputcontroller="0" fixedoutputvelocity="-1" readable="0" fixedoutputnote="-1" basevelocity="63" fixedinputvelocity="-1" inputchannel="0" outputchannel="1" writable="0" outputcontroller="0" outputprogram="1"/>
          <fxchain numofeffects="0" enabled="0"/>
        </instrumenttrack>
        <midiclip type="1" autoresize="1" name="" off="0" len="1536" pos="768" muted="0" steps="16">
          <note pan="0" type="0" len="192" pos="0" key="65" vol="100"/>
          <note pan="0" type="0" len="192" pos="0" key="61" vol="100"/>
          <note pan="0" type="0" len="192" pos="0" key="58" vol="100"/>
          <note pan="0" type="0" len="192" pos="192" key="66" vol="100"/>
          <note pan="0" type="0" len="192" pos="192" key="61" vol="100"/>
          <note pan="0" type="0" len="192" pos="192" key="58" vol="100"/>
          <note pan="0" type="0" len="384" pos="384" key="65" vol="100"/>
          <note pan="0" type="0" len="384" pos="384" key="60" vol="100"/>
          <note pan="0" type="0" len="384" pos="384" key="57" vol="100"/>
          <note pan="0" type="0" len="192" pos="768" key="65" vol="100"/>
          <note pan="0" type="0" len="192" pos="768" key="61" vol="100"/>
          <note pan="0" type="0" len="192" pos="768" key="58" vol="100"/>
          <note pan="0" type="0" len="192" pos="960" key="66" vol="100"/>
          <note pan="0" type="0" len="192" pos="960" key="61" vol="100"/>
          <note pan="0" type="0" len="192" pos="960" key="58" vol="100"/>
          <note pan="0" type="0" len="384" pos="1152" key="69" vol="100"/>
          <note pan="0" type="0" len="384" pos="1152" key="65" vol="100"/>
          <note pan="0" type="0" len="384" pos="1152" key="60" vol="100"/>
        </midiclip>
        <midiclip type="1" autoresize="1" name="" off="0" len="768" pos="2304" muted="0" steps="16">
          <note pan="0" type="0" len="72" pos="0" key="65" vol="100"/>
          <note pan="0" type="0" len="72" pos="0" key="62" vol="100"/>
          <note pan="0" type="0" len="72" pos="0" key="58" vol="100"/>
          <note pan="0" type="0" len="120" pos="72" key="63" vol="100"/>
          <note pan="0" type="0" len="120" pos="72" key="60" vol="100"/>
          <note pan="0" type="0" len="120" pos="72" key="56" vol="100"/>
          <note pan="0" type="0" len="72" pos="192" key="67" vol="100"/>
          <note pan="0" type="0" len="72" pos="192" key="63" vol="100"/>
          <note pan="0" type="0" len="72" pos="192" key="59" vol="100"/>
          <note pan="0" type="0" len="96" pos="264" key="65" vol="100"/>
          <note pan="0" type="0" len="96" pos="264" key="62" vol="100"/>
          <note pan="0" type="0" len="96" pos="264" key="59" vol="100"/>
          <note pan="0" type="0" len="192" pos="360" key="67" vol="100"/>
          <note pan="0" type="0" len="192" pos="360" key="63" vol="100"/>
          <note pan="0" type="0" len="192" pos="360" key="60" vol="100"/>
          <note pan="0" type="0" len="120" pos="552" key="65" vol="100"/>
          <note pan="0" type="0" len="120" pos="552" key="60" vol="100"/>
          <note pan="0" type="0" len="120" pos="552" key="57" vol="100"/>
          <note pan="0" type="0" len="48" pos="672" key="63" vol="100"/>
          <note pan="0" type="0" len="48" pos="672" key="60" vol="100"/>
          <note pan="0" type="0" len="48" pos="672" key="57" vol="100"/>
          <note pan="0" type="0" len="48" pos="720" key="62" vol="100"/>
          <note pan="0" type="0" len="48" pos="720" key="58" vol="100"/>
          <note pan="0" type="0" len="48" pos="720" key="55" vol="100"/>
        </midiclip>
        <midiclip type="1" autoresize="1" name="" off="0" len="1536" pos="5376" muted="0" steps="16">
          <note pan="0" type="0" len="192" pos="0" key="65" vol="100"/>
          <note pan="0" type="0" len="192" pos="0" key="62" vol="100"/>
          <note pan="0" type="0" len="192" pos="0" key="58" vol="100"/>
          <note pan="0" type="0" len="192" pos="192" key="65" vol="100"/>
          <note pan="0" type="0" len="192" pos="192" key="62" vol="100"/>
          <note pan="0" type="0" len="192" pos="192" key="60" vol="100"/>
          <note pan="0" type="0" len="192" pos="384" key="67" vol="100"/>
          <note pan="0" type="0" len="192" pos="384" key="63" vol="100"/>
          <note pan="0" type="0" len="192" pos="384" key="58" vol="100"/>
          <note pan="0" type="0" len="192" pos="576" key="67" vol="100"/>
          <note pan="0" type="0" len="192" pos="576" key="63" vol="100"/>
          <note pan="0" type="0" len="192" pos="576" key="60" vol="100"/>
          <note pan="0" type="0" len="192" pos="768" key="62" vol="100"/>
          <note pan="0" type="0" len="192" pos="768" key="58" vol="100"/>
          <note pan="0" type="0" len="192" pos="768" key="53" vol="100"/>
          <note pan="0" type="0" len="192" pos="960" key="58" vol="100"/>
          <note pan="0" type="0" len="192" pos="960" key="55" vol="100"/>
          <note pan="0" type="0" len="192" pos="960" key="51" vol="100"/>
          <note pan="0" type="0" len="192" pos="1152" key="62" vol="100"/>
          <note pan="0" type="0" len="192" pos="1152" key="58" vol="100"/>
          <note pan="0" type="0" len="192" pos="1152" key="55" vol="100"/>
          <note pan="0" type="0" len="192" pos="1344" key="63" vol="100"/>
          <note pan="0" type="0" len="192" pos="1344" key="60" vol="100"/>
          <note pan="0" type="0" len="192" pos="1344" key="57" vol="100"/>
        </midiclip>
        <midiclip type="1" autoresize="1" name="" off="0" len="768" pos="4416" muted="0" steps="16">
          <note pan="0" type="0" len="96" pos="0" key="60" vol="100"/>
          <note pan="0" type="0" len="96" pos="0" key="55" vol="100"/>
          <note pan="0" type="0" len="96" pos="0" key="52" vol="100"/>
          <note pan="0" type="0" len="96" pos="96" key="60" vol="100"/>
          <note pan="0" type="0" len="96" pos="96" key="54" vol="100"/>
          <note pan="0" type="0" len="96" pos="96" key="50" vol="100"/>
          <note pan="0" type="0" len="96" pos="192" key="57" vol="100"/>
          <note pan="0" type="0" len="96" pos="192" key="53" vol="100"/>
          <note pan="0" type="0" len="96" pos="192" key="48" vol="100"/>
          <note pan="0" type="0" len="48" pos="288" key="60" vol="100"/>
          <note pan="0" type="0" len="48" pos="288" key="55" vol="100"/>
          <note pan="0" type="0" len="48" pos="288" key="50" vol="100"/>
          <note pan="0" type="0" len="48" pos="336" key="60" vol="100"/>
          <note pan="0" type="0" len="48" pos="336" key="55" vol="100"/>
          <note pan="0" type="0" len="48" pos="336" key="52" vol="100"/>
          <note pan="0" type="0" len="384" pos="384" key="62" vol="100"/>
          <note pan="0" type="0" len="384" pos="384" key="59" vol="100"/>
          <note pan="0" type="0" len="384" pos="384" key="55" vol="100"/>
        </midiclip>
        <midiclip type="1" autoresize="1" name="" off="0" len="1344" pos="3072" muted="0" steps="16">
          <note pan="0" type="0" len="144" pos="0" key="60" vol="100"/>
          <note pan="0" type="0" len="144" pos="0" key="55" vol="100"/>
          <note pan="0" type="0" len="144" pos="0" key="51" vol="100"/>
          <note pan="0" type="0" len="144" pos="0" key="48" vol="100"/>
          <note pan="0" type="0" len="192" pos="144" key="63" vol="100"/>
          <note pan="0" type="0" len="192" pos="144" key="60" vol="100"/>
          <note pan="0" type="0" len="192" pos="144" key="57" vol="100"/>
          <note pan="0" type="0" len="144" pos="144" key="53" vol="100"/>
          <note pan="0" type="0" len="48" pos="288" key="51" vol="100"/>
          <note pan="0" type="0" len="144" pos="336" key="62" vol="100"/>
          <note pan="0" type="0" len="144" pos="336" key="58" vol="100"/>
          <note pan="0" type="0" len="144" pos="336" key="56" vol="100"/>
          <note pan="0" type="0" len="144" pos="336" key="53" vol="100"/>
          <note pan="0" type="0" len="192" pos="480" key="65" vol="100"/>
          <note pan="0" type="0" len="192" pos="480" key="62" vol="100"/>
          <note pan="0" type="0" len="192" pos="480" key="58" vol="100"/>
          <note pan="0" type="0" len="144" pos="480" key="53" vol="100"/>
          <note pan="0" type="0" len="48" pos="624" key="51" vol="100"/>
          <note pan="0" type="0" len="144" pos="672" key="67" vol="100"/>
          <note pan="0" type="0" len="144" pos="672" key="63" vol="100"/>
          <note pan="0" type="0" len="144" pos="672" key="60" vol="100"/>
          <note pan="0" type="0" len="144" pos="672" key="55" vol="100"/>
          <note pan="0" type="0" len="192" pos="816" key="65" vol="100"/>
          <note pan="0" type="0" len="192" pos="816" key="62" vol="100"/>
          <note pan="0" type="0" len="192" pos="816" key="58" vol="100"/>
          <note pan="0" type="0" len="144" pos="816" key="53" vol="100"/>
          <note pan="0" type="0" len="48" pos="960" key="51" vol="100"/>
          <note pan="0" type="0" len="144" pos="1008" key="63" vol="100"/>
          <note pan="0" type="0" len="144" pos="1008" key="60" vol="100"/>
          <note pan="0" type="0" len="144" pos="1008" key="58" vol="100"/>
          <note pan="0" type="0" len="144" pos="1008" key="56" vol="100"/>
          <note pan="0" type="0" len="192" pos="1152" key="62" vol="100"/>
          <note pan="0" type="0" len="192" pos="1152" key="59" vol="100"/>
          <note pan="0" type="0" len="192" pos="1152" key="57" vol="100"/>
          <note pan="0" type="0" len="192" pos="1152" key="55" vol="100"/>
        </midiclip>
      </track>
      <track type="0" name="Touhou" mutedBeforeSolo="0" muted="0" solo="0">
        <instrumenttrack pan="0" range_import="1" mixch="1" pitchrange="1" firstkey="0" keymap="0" usemasterpitch="0" scale="0" pitch="0" basenote="69" lastkey="127" enablecc="0" enabled="0" vol="100">
          <midicontrollers cc115="0" cc71="0" cc3="0" cc63="0" cc90="0" cc74="0" cc82="0" cc96="0" cc10="0" cc17="0" cc116="0" cc59="0" cc122="0" cc118="0" cc45="0" cc77="0" cc72="0" cc40="0" cc2="0" cc105="0" cc24="0" cc33="0" cc43="0" cc13="0" cc88="0" cc6="0" cc31="0" cc52="0" cc15="0" cc67="0" cc7="0" cc41="0" cc4="0" cc19="0" cc125="0" cc75="0" cc79="0" cc93="0" cc25="0" cc39="0" cc51="0" cc87="0" cc55="0" cc28="0" cc26="0" cc98="0" cc102="0" cc50="0" cc23="0" cc16="0" cc92="0" cc57="0" cc69="0" cc18="0" cc85="0" cc103="0" cc126="0" cc124="0" cc9="0" cc20="0" cc68="0" cc114="0" cc30="0" cc47="0" cc86="0" cc97="0" cc5="0" cc73="0" cc60="0" cc108="0" cc66="0" cc58="0" cc121="0" cc49="0" cc99="0" cc65="0" cc83="0" cc35="0" cc94="0" cc44="0" cc112="0" cc37="0" cc64="0" cc84="0" cc14="0" cc38="0" cc32="0" cc62="0" cc78="0" cc54="0" cc34="0" cc117="0" cc76="0" cc127="0" cc89="0" cc0="0" cc100="0" cc109="0" cc111="0" cc29="0" cc95="0" cc70="0" cc91="0" cc27="0" cc81="0" cc120="0" cc1="0" cc42="0" cc113="0" cc22="0" cc80="0" cc110="0" cc8="0" cc46="0" cc12="0" cc53="0" cc11="0" cc21="0" cc36="0" cc56="0" cc101="0" cc106="0" cc61="0" cc48="0" cc123="0" cc104="0" cc119="0" cc107="0"/>
          <instrument name="sf2player">
            <sf2player reverbWidth="0.5" reverbLevel="0.89999998" chorusDepth="8" src="usersoundfont:Touhou.sf2" chorusOn="0" bank="128" chorusSpeed="0.30000001" chorusNum="3" reverbOn="0" gain="1" patch="16" reverbRoomSize="0.2" chorusLevel="2" reverbDamping="0">
              <key/>
            </sf2player>
          </instrument>
          <eldata ftype="0" fres="0.5" fcut="14000" fwet="0">
            <elvol pdel="0" lshp="0" lspd_numerator="4" rel="0.1" ctlenvamt="0" lspd_denominator="4" dec="0.5" hold="0.5" lamt="0" lpdel="0" x100="0" userwavefile="" amt="0" latt="0" sustain="0.5" lspd_syncmode="0" att="0" lspd="0.1"/>
            <elcut pdel="0" lshp="0" lspd_numerator="4" rel="0.1" ctlenvamt="0" lspd_denominator="4" dec="0.5" hold="0.5" lamt="0" lpdel="0" x100="0" userwavefile="" amt="0" latt="0" sustain="0.5" lspd_syncmode="0" att="0" lspd="0.1"/>
            <elres pdel="0" lshp="0" lspd_numerator="4" rel="0.1" ctlenvamt="0" lspd_denominator="4" dec="0.5" hold="0.5" lamt="0" lpdel="0" x100="0" userwavefile="" amt="0" latt="0" sustain="0.5" lspd_syncmode="0" att="0" lspd="0.1"/>
          </eldata>
          <chordcreator chord="0" chordrange="1" chord-enabled="0"/>
          <arpeggiator arprange="1" arpdir="0" arpskip="0" arpmode="0" arpmiss="0" arptime="200" arpgate="100" arptime_numerator="4" arp-enabled="0" arpcycle="0" arptime_denominator="4" arptime_syncmode="0" arprepeats="1" arp="0"/>
          <midiport inputcontroller="0" fixedoutputvelocity="-1" readable="0" fixedoutputnote="-1" basevelocity="63" fixedinputvelocity="-1" inputchannel="0" outputchannel="1" writable="0" outputcontroller="0" outputprogram="1"/>
          <fxchain numofeffects="0" enabled="0"/>
        </instrumenttrack>
        <midiclip type="1" autoresize="1" name="" off="0" len="384" pos="768" muted="0" steps="16">
          <note pan="0" type="0" len="12" pos="0" key="51" vol="100"/>
          <note pan="0" type="0" len="12" pos="0" key="36" vol="100"/>
          <note pan="0" type="0" len="12" pos="24" key="44" vol="100"/>
          <note pan="0" type="0" len="12" pos="24" key="43" vol="100"/>
          <note pan="0" type="0" len="12" pos="36" key="44" vol="100"/>
          <note pan="0" type="0" len="12" pos="48" key="38" vol="100"/>
          <note pan="0" type="0" len="12" pos="48" key="36" vol="100"/>
          <note pan="0" type="0" len="12" pos="72" key="44" vol="100"/>
          <note pan="0" type="0" len="12" pos="96" key="53" vol="100"/>
          <note pan="0" type="0" len="12" pos="96" key="36" vol="100"/>
          <note pan="0" type="0" len="12" pos="120" key="48" vol="100"/>
          <note pan="0" type="0" len="12" pos="120" key="44" vol="100"/>
          <note pan="0" type="0" len="12" pos="132" key="44" vol="100"/>
          <note pan="0" type="0" len="12" pos="132" key="40" vol="100"/>
          <note pan="0" type="0" len="12" pos="144" key="38" vol="100"/>
          <note pan="0" type="0" len="12" pos="144" key="36" vol="100"/>
          <note pan="0" type="0" len="12" pos="156" key="47" vol="100"/>
          <note pan="0" type="0" len="12" pos="168" key="44" vol="100"/>
          <note pan="0" type="0" len="12" pos="192" key="51" vol="100"/>
          <note pan="0" type="0" len="12" pos="192" key="36" vol="100"/>
          <note pan="0" type="0" len="12" pos="216" key="44" vol="100"/>
          <note pan="0" type="0" len="12" pos="228" key="44" vol="100"/>
          <note pan="0" type="0" len="12" pos="240" key="38" vol="100"/>
          <note pan="0" type="0" len="12" pos="240" key="36" vol="100"/>
          <note pan="0" type="0" len="12" pos="264" key="44" vol="100"/>
          <note pan="0" type="0" len="12" pos="288" key="36" vol="100"/>
          <note pan="0" type="0" len="12" pos="312" key="44" vol="100"/>
          <note pan="0" type="0" len="12" pos="324" key="44" vol="100"/>
          <note pan="0" type="0" len="12" pos="324" key="40" vol="100"/>
          <note pan="0" type="0" len="12" pos="336" key="38" vol="100"/>
          <note pan="0" type="0" len="12" pos="336" key="36" vol="100"/>
          <note pan="0" type="0" len="12" pos="360" key="44" vol="100"/>
        </midiclip>
        <midiclip type="1" autoresize="1" name="" off="0" len="384" pos="1152" muted="0" steps="16">
          <note pan="0" type="0" len="12" pos="0" key="51" vol="100"/>
          <note pan="0" type="0" len="12" pos="0" key="36" vol="100"/>
          <note pan="0" type="0" len="12" pos="24" key="44" vol="100"/>
          <note pan="0" type="0" len="12" pos="24" key="43" vol="100"/>
          <note pan="0" type="0" len="12" pos="36" key="44" vol="100"/>
          <note pan="0" type="0" len="12" pos="48" key="38" vol="100"/>
          <note pan="0" type="0" len="12" pos="48" key="36" vol="100"/>
          <note pan="0" type="0" len="12" pos="72" key="44" vol="100"/>
          <note pan="0" type="0" len="12" pos="96" key="53" vol="100"/>
          <note pan="0" type="0" len="12" pos="96" key="36" vol="100"/>
          <note pan="0" type="0" len="12" pos="120" key="48" vol="100"/>
          <note pan="0" type="0" len="12" pos="120" key="44" vol="100"/>
          <note pan="0" type="0" len="12" pos="132" key="44" vol="100"/>
          <note pan="0" type="0" len="12" pos="132" key="40" vol="100"/>
          <note pan="0" type="0" len="12" pos="144" key="38" vol="100"/>
          <note pan="0" type="0" len="12" pos="144" key="36" vol="100"/>
          <note pan="0" type="0" len="12" pos="156" key="47" vol="100"/>
          <note pan="0" type="0" len="12" pos="168" key="44" vol="100"/>
          <note pan="0" type="0" len="12" pos="192" key="51" vol="100"/>
          <note pan="0" type="0" len="12" pos="192" key="36" vol="100"/>
          <note pan="0" type="0" len="12" pos="216" key="44" vol="100"/>
          <note pan="0" type="0" len="12" pos="228" key="44" vol="100"/>
          <note pan="0" type="0" len="12" pos="240" key="38" vol="100"/>
          <note pan="0" type="0" len="12" pos="240" key="36" vol="100"/>
          <note pan="0" type="0" len="12" pos="264" key="44" vol="100"/>
          <note pan="0" type="0" len="12" pos="288" key="52" vol="100"/>
          <note pan="0" type="0" len="12" pos="288" key="36" vol="100"/>
          <note pan="0" type="0" len="12" pos="312" key="44" vol="100"/>
          <note pan="0" type="0" len="12" pos="324" key="44" vol="100"/>
          <note pan="0" type="0" len="12" pos="324" key="40" vol="100"/>
          <note pan="0" type="0" len="12" pos="336" key="52" vol="100"/>
          <note pan="0" type="0" len="12" pos="336" key="38" vol="100"/>
          <note pan="0" type="0" len="12" pos="336" key="36" vol="100"/>
          <note pan="0" type="0" len="12" pos="360" key="44" vol="100"/>
        </midiclip>
        <midiclip type="1" autoresize="1" name="" off="0" len="384" pos="1536" muted="0" steps="16">
          <note pan="0" type="0" len="12" pos="0" key="51" vol="100"/>
          <note pan="0" type="0" len="12" pos="0" key="36" vol="100"/>
          <note pan="0" type="0" len="12" pos="24" key="44" vol="100"/>
          <note pan="0" type="0" len="12" pos="24" key="43" vol="100"/>
          <note pan="0" type="0" len="12" pos="36" key="44" vol="100"/>
          <note pan="0" type="0" len="12" pos="48" key="38" vol="100"/>
          <note pan="0" type="0" len="12" pos="48" key="36" vol="100"/>
          <note pan="0" type="0" len="12" pos="72" key="44" vol="100"/>
          <note pan="0" type="0" len="12" pos="96" key="53" vol="100"/>
          <note pan="0" type="0" len="12" pos="96" key="36" vol="100"/>
          <note pan="0" type="0" len="12" pos="120" key="48" vol="100"/>
          <note pan="0" type="0" len="12" pos="120" key="44" vol="100"/>
          <note pan="0" type="0" len="12" pos="132" key="44" vol="100"/>
          <note pan="0" type="0" len="12" pos="132" key="40" vol="100"/>
          <note pan="0" type="0" len="12" pos="144" key="38" vol="100"/>
          <note pan="0" type="0" len="12" pos="144" key="36" vol="100"/>
          <note pan="0" type="0" len="12" pos="156" key="47" vol="100"/>
          <note pan="0" type="0" len="12" pos="168" key="44" vol="100"/>
          <note pan="0" type="0" len="12" pos="192" key="51" vol="100"/>
          <note pan="0" type="0" len="12" pos="192" key="36" vol="100"/>
          <note pan="0" type="0" len="12" pos="216" key="44" vol="100"/>
          <note pan="0" type="0" len="12" pos="228" key="44" vol="100"/>
          <note pan="0" type="0" len="12" pos="240" key="38" vol="100"/>
          <note pan="0" type="0" len="12" pos="240" key="36" vol="100"/>
          <note pan="0" type="0" len="12" pos="264" key="44" vol="100"/>
          <note pan="0" type="0" len="12" pos="288" key="36" vol="100"/>
          <note pan="0" type="0" len="12" pos="312" key="44" vol="100"/>
          <note pan="0" type="0" len="12" pos="324" key="44" vol="100"/>
          <note pan="0" type="0" len="12" pos="324" key="40" vol="100"/>
          <note pan="0" type="0" len="12" pos="336" key="38" vol="100"/>
          <note pan="0" type="0" len="12" pos="336" key="36" vol="100"/>
          <note pan="0" type="0" len="12" pos="360" key="44" vol="100"/>
        </midiclip>
        <midiclip type="1" autoresize="1" name="" off="0" len="384" pos="1920" muted="0" steps="16">
          <note pan="0" type="0" len="12" pos="0" key="51" vol="100"/>
          <note pan="0" type="0" len="12" pos="0" key="36" vol="100"/>
          <note pan="0" type="0" len="12" pos="24" key="44" vol="100"/>
          <note pan="0" type="0" len="12" pos="24" key="43" vol="100"/>
          <note pan="0" type="0" len="12" pos="36" key="44" vol="100"/>
          <note pan="0" type="0" len="12" pos="48" key="38" vol="100"/>
          <note pan="0" type="0" len="12" pos="48" key="36" vol="100"/>
          <note pan="0" type="0" len="12" pos="72" key="44" vol="100"/>
          <note pan="0" type="0" len="12" pos="96" key="53" vol="100"/>
          <note pan="0" type="0" len="12" pos="96" key="36" vol="100"/>
          <note pan="0" type="0" len="12" pos="120" key="48" vol="100"/>
          <note pan="0" type="0" len="12" pos="120" key="44" vol="100"/>
          <note pan="0" type="0" len="12" pos="132" key="44" vol="100"/>
          <note pan="0" type="0" len="12" pos="132" key="40" vol="100"/>
          <note pan="0" type="0" len="12" pos="144" key="38" vol="100"/>
          <note pan="0" type="0" len="12" pos="144" key="36" vol="100"/>
          <note pan="0" type="0" len="12" pos="156" key="47" vol="100"/>
          <note pan="0" type="0" len="12" pos="168" key="44" vol="100"/>
          <note pan="0" type="0" len="12" pos="192" key="51" vol="100"/>
          <note pan="0" type="0" len="12" pos="192" key="36" vol="100"/>
          <note pan="0" type="0" len="12" pos="216" key="44" vol="100"/>
          <note pan="0" type="0" len="12" pos="228" key="44" vol="100"/>
          <note pan="0" type="0" len="12" pos="240" key="38" vol="100"/>
          <note pan="0" type="0" len="12" pos="240" key="36" vol="100"/>
          <note pan="0" type="0" len="12" pos="264" key="44" vol="100"/>
          <note pan="0" type="0" len="12" pos="288" key="52" vol="100"/>
          <note pan="0" type="0" len="12" pos="288" key="36" vol="100"/>
          <note pan="0" type="0" len="12" pos="312" key="44" vol="100"/>
          <note pan="0" type="0" len="12" pos="324" key="44" vol="100"/>
          <note pan="0" type="0" len="12" pos="324" key="40" vol="100"/>
          <note pan="0" type="0" len="12" pos="336" key="52" vol="100"/>
          <note pan="0" type="0" len="12" pos="336" key="38" vol="100"/>
          <note pan="0" type="0" len="12" pos="336" key="36" vol="100"/>
          <note pan="0" type="0" len="12" pos="360" key="44" vol="100"/>
        </midiclip>
        <midiclip type="1" autoresize="1" name="" off="0" len="384" pos="0" muted="0" steps="16">
          <note pan="0" type="0" len="12" pos="0" key="51" vol="100"/>
          <note pan="0" type="0" len="12" pos="0" key="36" vol="100"/>
          <note pan="0" type="0" len="12" pos="24" key="44" vol="100"/>
          <note pan="0" type="0" len="12" pos="24" key="43" vol="100"/>
          <note pan="0" type="0" len="12" pos="72" key="44" vol="100"/>
          <note pan="0" type="0" len="12" pos="96" key="53" vol="100"/>
          <note pan="0" type="0" len="12" pos="96" key="36" vol="100"/>
          <note pan="0" type="0" len="12" pos="120" key="48" vol="100"/>
          <note pan="0" type="0" len="12" pos="120" key="44" vol="100"/>
          <note pan="0" type="0" len="12" pos="156" key="47" vol="100"/>
          <note pan="0" type="0" len="12" pos="168" key="44" vol="100"/>
          <note pan="0" type="0" len="12" pos="192" key="51" vol="100"/>
          <note pan="0" type="0" len="12" pos="192" key="36" vol="100"/>
          <note pan="0" type="0" len="12" pos="216" key="44" vol="100"/>
          <note pan="0" type="0" len="12" pos="240" key="41" vol="100"/>
          <note pan="0" type="0" len="12" pos="264" key="44" vol="100"/>
          <note pan="0" type="0" len="12" pos="288" key="52" vol="100"/>
          <note pan="0" type="0" len="12" pos="288" key="36" vol="100"/>
          <note pan="0" type="0" len="12" pos="312" key="44" vol="100"/>
          <note pan="0" type="0" len="12" pos="336" key="52" vol="100"/>
          <note pan="0" type="0" len="12" pos="336" key="36" vol="100"/>
          <note pan="0" type="0" len="12" pos="360" key="44" vol="100"/>
        </midiclip>
        <midiclip type="1" autoresize="1" name="" off="0" len="384" pos="384" muted="0" steps="16">
          <note pan="0" type="0" len="12" pos="0" key="51" vol="100"/>
          <note pan="0" type="0" len="12" pos="0" key="36" vol="100"/>
          <note pan="0" type="0" len="12" pos="12" key="36" vol="100"/>
          <note pan="0" type="0" len="12" pos="24" key="44" vol="100"/>
          <note pan="0" type="0" len="12" pos="24" key="43" vol="100"/>
          <note pan="0" type="0" len="12" pos="36" key="44" vol="100"/>
          <note pan="0" type="0" len="12" pos="72" key="44" vol="100"/>
          <note pan="0" type="0" len="12" pos="72" key="36" vol="100"/>
          <note pan="0" type="0" len="12" pos="96" key="53" vol="100"/>
          <note pan="0" type="0" len="12" pos="96" key="36" vol="100"/>
          <note pan="0" type="0" len="12" pos="120" key="48" vol="100"/>
          <note pan="0" type="0" len="12" pos="120" key="44" vol="100"/>
          <note pan="0" type="0" len="12" pos="132" key="48" vol="100"/>
          <note pan="0" type="0" len="12" pos="132" key="44" vol="100"/>
          <note pan="0" type="0" len="12" pos="144" key="36" vol="100"/>
          <note pan="0" type="0" len="12" pos="156" key="48" vol="100"/>
          <note pan="0" type="0" len="12" pos="168" key="47" vol="100"/>
          <note pan="0" type="0" len="12" pos="168" key="44" vol="100"/>
          <note pan="0" type="0" len="12" pos="192" key="51" vol="100"/>
          <note pan="0" type="0" len="12" pos="192" key="36" vol="100"/>
          <note pan="0" type="0" len="12" pos="216" key="44" vol="100"/>
          <note pan="0" type="0" len="12" pos="216" key="41" vol="100"/>
          <note pan="0" type="0" len="12" pos="216" key="36" vol="100"/>
          <note pan="0" type="0" len="12" pos="228" key="44" vol="100"/>
          <note pan="0" type="0" len="12" pos="228" key="41" vol="100"/>
          <note pan="0" type="0" len="12" pos="240" key="41" vol="100"/>
          <note pan="0" type="0" len="12" pos="240" key="36" vol="100"/>
          <note pan="0" type="0" len="12" pos="264" key="44" vol="100"/>
          <note pan="0" type="0" len="12" pos="288" key="52" vol="100"/>
          <note pan="0" type="0" len="12" pos="288" key="36" vol="100"/>
          <note pan="0" type="0" len="12" pos="312" key="44" vol="100"/>
          <note pan="0" type="0" len="12" pos="312" key="43" vol="100"/>
          <note pan="0" type="0" len="12" pos="324" key="44" vol="100"/>
          <note pan="0" type="0" len="12" pos="324" key="43" vol="100"/>
          <note pan="0" type="0" len="12" pos="336" key="52" vol="100"/>
          <note pan="0" type="0" len="12" pos="336" key="43" vol="100"/>
          <note pan="0" type="0" len="12" pos="336" key="36" vol="100"/>
          <note pan="0" type="0" len="12" pos="360" key="44" vol="100"/>
        </midiclip>
        <midiclip type="1" autoresize="1" name="" off="0" len="768" pos="2304" muted="0" steps="16">
          <note pan="0" type="0" len="72" pos="0" key="46" vol="100"/>
          <note pan="0" type="0" len="12" pos="0" key="36" vol="100"/>
          <note pan="0" type="0" len="12" pos="72" key="44" vol="100"/>
          <note pan="0" type="0" len="12" pos="72" key="36" vol="100"/>
          <note pan="0" type="0" len="12" pos="120" key="44" vol="100"/>
          <note pan="0" type="0" len="12" pos="144" key="44" vol="100"/>
          <note pan="0" type="0" len="12" pos="168" key="44" vol="100"/>
          <note pan="0" type="0" len="72" pos="192" key="46" vol="100"/>
          <note pan="0" type="0" len="12" pos="192" key="36" vol="100"/>
          <note pan="0" type="0" len="12" pos="264" key="44" vol="100"/>
          <note pan="0" type="0" len="12" pos="264" key="36" vol="100"/>
          <note pan="0" type="0" len="12" pos="312" key="37" vol="100"/>
          <note pan="0" type="0" len="24" pos="336" key="46" vol="100"/>
          <note pan="0" type="0" len="12" pos="336" key="36" vol="100"/>
          <note pan="0" type="0" len="12" pos="360" key="44" vol="100"/>
          <note pan="0" type="0" len="12" pos="360" key="38" vol="100"/>
          <note pan="0" type="0" len="12" pos="360" key="36" vol="100"/>
          <note pan="0" type="0" len="48" pos="384" key="46" vol="100"/>
          <note pan="0" type="0" len="12" pos="456" key="44" vol="100"/>
          <note pan="0" type="0" len="12" pos="480" key="44" vol="100"/>
          <note pan="0" type="0" len="12" pos="504" key="44" vol="100"/>
          <note pan="0" type="0" len="12" pos="528" key="41" vol="100"/>
          <note pan="0" type="0" len="12" pos="564" key="41" vol="100"/>
          <note pan="0" type="0" len="12" pos="576" key="36" vol="100"/>
          <note pan="0" type="0" len="12" pos="696" key="36" vol="100"/>
          <note pan="0" type="0" len="12" pos="720" key="44" vol="100"/>
          <note pan="0" type="0" len="12" pos="744" key="44" vol="100"/>
        </midiclip>
        <midiclip type="1" autoresize="1" name="" off="0" len="1344" pos="3072" muted="0" steps="16">
          <note pan="0" type="0" len="12" pos="0" key="36" vol="100"/>
          <note pan="0" type="0" len="12" pos="48" key="44" vol="100"/>
          <note pan="0" type="0" len="12" pos="60" key="46" vol="100"/>
          <note pan="0" type="0" len="12" pos="72" key="42" vol="100"/>
          <note pan="0" type="0" len="12" pos="96" key="36" vol="100"/>
          <note pan="0" type="0" len="12" pos="120" key="36" vol="100"/>
          <note pan="0" type="0" len="12" pos="144" key="38" vol="100"/>
          <note pan="0" type="0" len="12" pos="168" key="44" vol="100"/>
          <note pan="0" type="0" len="12" pos="192" key="36" vol="100"/>
          <note pan="0" type="0" len="12" pos="216" key="36" vol="100"/>
          <note pan="0" type="0" len="12" pos="240" key="36" vol="100"/>
          <note pan="0" type="0" len="12" pos="288" key="38" vol="100"/>
          <note pan="0" type="0" len="12" pos="312" key="44" vol="100"/>
          <note pan="0" type="0" len="12" pos="336" key="36" vol="100"/>
          <note pan="0" type="0" len="12" pos="384" key="44" vol="100"/>
          <note pan="0" type="0" len="12" pos="396" key="46" vol="100"/>
          <note pan="0" type="0" len="12" pos="408" key="42" vol="100"/>
          <note pan="0" type="0" len="12" pos="432" key="36" vol="100"/>
          <note pan="0" type="0" len="12" pos="456" key="36" vol="100"/>
          <note pan="0" type="0" len="12" pos="480" key="38" vol="100"/>
          <note pan="0" type="0" len="12" pos="504" key="44" vol="100"/>
          <note pan="0" type="0" len="12" pos="528" key="36" vol="100"/>
          <note pan="0" type="0" len="12" pos="552" key="36" vol="100"/>
          <note pan="0" type="0" len="12" pos="576" key="36" vol="100"/>
          <note pan="0" type="0" len="12" pos="624" key="38" vol="100"/>
          <note pan="0" type="0" len="12" pos="648" key="44" vol="100"/>
          <note pan="0" type="0" len="12" pos="672" key="36" vol="100"/>
          <note pan="0" type="0" len="12" pos="720" key="44" vol="100"/>
          <note pan="0" type="0" len="12" pos="732" key="46" vol="100"/>
          <note pan="0" type="0" len="12" pos="744" key="42" vol="100"/>
          <note pan="0" type="0" len="12" pos="768" key="36" vol="100"/>
          <note pan="0" type="0" len="12" pos="792" key="36" vol="100"/>
          <note pan="0" type="0" len="12" pos="816" key="38" vol="100"/>
          <note pan="0" type="0" len="12" pos="840" key="44" vol="100"/>
          <note pan="0" type="0" len="12" pos="864" key="36" vol="100"/>
          <note pan="0" type="0" len="12" pos="888" key="36" vol="100"/>
          <note pan="0" type="0" len="12" pos="912" key="36" vol="100"/>
          <note pan="0" type="0" len="12" pos="960" key="38" vol="100"/>
          <note pan="0" type="0" len="12" pos="984" key="44" vol="100"/>
          <note pan="0" type="0" len="12" pos="1008" key="36" vol="100"/>
          <note pan="0" type="0" len="12" pos="1056" key="44" vol="100"/>
          <note pan="0" type="0" len="12" pos="1068" key="46" vol="100"/>
          <note pan="0" type="0" len="12" pos="1080" key="42" vol="100"/>
          <note pan="0" type="0" len="12" pos="1104" key="36" vol="100"/>
          <note pan="0" type="0" len="12" pos="1128" key="36" vol="100"/>
          <note pan="0" type="0" len="12" pos="1152" key="38" vol="100"/>
          <note pan="0" type="0" len="12" pos="1176" key="44" vol="100"/>
          <note pan="0" type="0" len="12" pos="1200" key="36" vol="100"/>
          <note pan="0" type="0" len="12" pos="1224" key="36" vol="100"/>
          <note pan="0" type="0" len="12" pos="1248" key="36" vol="100"/>
          <note pan="0" type="0" len="12" pos="1296" key="38" vol="100"/>
          <note pan="0" type="0" len="12" pos="1320" key="44" vol="100"/>
        </midiclip>
        <midiclip type="1" autoresize="1" name="" off="0" len="192" pos="4416" muted="0" steps="16">
          <note pan="0" type="0" len="12" pos="0" key="38" vol="100"/>
          <note pan="0" type="0" len="12" pos="0" key="36" vol="100"/>
          <note pan="0" type="0" len="12" pos="36" key="44" vol="100"/>
          <note pan="0" type="0" len="12" pos="48" key="40" vol="100"/>
          <note pan="0" type="0" len="12" pos="84" key="44" vol="100"/>
          <note pan="0" type="0" len="12" pos="96" key="38" vol="100"/>
          <note pan="0" type="0" len="12" pos="96" key="36" vol="100"/>
          <note pan="0" type="0" len="12" pos="132" key="44" vol="100"/>
          <note pan="0" type="0" len="12" pos="144" key="40" vol="100"/>
          <note pan="0" type="0" len="12" pos="180" key="44" vol="100"/>
        </midiclip>
        <midiclip type="1" autoresize="1" name="" off="0" len="192" pos="4800" muted="0" steps="16">
          <note pan="0" type="0" len="12" pos="0" key="55" vol="100"/>
        </midiclip>
        <midiclip type="1" autoresize="1" name="" off="0" len="192" pos="4608" muted="0" steps="16">
          <note pan="0" type="0" len="12" pos="0" key="38" vol="100"/>
          <note pan="0" type="0" len="12" pos="0" key="36" vol="100"/>
          <note pan="0" type="0" len="12" pos="36" key="44" vol="100"/>
          <note pan="0" type="0" len="12" pos="48" key="40" vol="100"/>
          <note pan="0" type="0" len="12" pos="84" key="44" vol="100"/>
          <note pan="0" type="0" len="12" pos="96" key="38" vol="100"/>
          <note pan="0" type="0" len="12" pos="96" key="36" vol="100"/>
          <note pan="0" type="0" len="12" pos="120" key="44" vol="100"/>
          <note pan="0" type="0" len="12" pos="144" key="40" vol="100"/>
          <note pan="0" type="0" len="12" pos="168" key="44" vol="100"/>
        </midiclip>
      </track>
      <track type="0" name="tgsf21x" mutedBeforeSolo="0" muted="0" solo="0">
        <instrumenttrack pan="0" range_import="1" mixch="3" pitchrange="1" firstkey="0" keymap="0" usemasterpitch="1" scale="0" pitch="0" basenote="69" lastkey="127" enablecc="0" enabled="0" vol="100">
          <midicontrollers cc115="0" cc71="0" cc3="0" cc63="0" cc90="0" cc74="0" cc82="0" cc96="0" cc10="0" cc17="0" cc116="0" cc59="0" cc122="0" cc118="0" cc45="0" cc77="0" cc72="0" cc40="0" cc2="0" cc105="0" cc24="0" cc33="0" cc43="0" cc13="0" cc88="0" cc6="0" cc31="0" cc52="0" cc15="0" cc67="0" cc7="0" cc41="0" cc4="0" cc19="0" cc125="0" cc75="0" cc79="0" cc93="0" cc25="0" cc39="0" cc51="0" cc87="0" cc55="0" cc28="0" cc26="0" cc98="0" cc102="0" cc50="0" cc23="0" cc16="0" cc92="0" cc57="0" cc69="0" cc18="0" cc85="0" cc103="0" cc126="0" cc124="0" cc9="0" cc20="0" cc68="0" cc114="0" cc30="0" cc47="0" cc86="0" cc97="0" cc5="0" cc73="0" cc60="0" cc108="0" cc66="0" cc58="0" cc121="0" cc49="0" cc99="0" cc65="0" cc83="0" cc35="0" cc94="0" cc44="0" cc112="0" cc37="0" cc64="0" cc84="0" cc14="0" cc38="0" cc32="0" cc62="0" cc78="0" cc54="0" cc34="0" cc117="0" cc76="0" cc127="0" cc89="0" cc0="0" cc100="0" cc109="0" cc111="0" cc29="0" cc95="0" cc70="0" cc91="0" cc27="0" cc81="0" cc120="0" cc1="0" cc42="0" cc113="0" cc22="0" cc80="0" cc110="0" cc8="0" cc46="0" cc12="0" cc53="0" cc11="0" cc21="0" cc36="0" cc56="0" cc101="0" cc106="0" cc61="0" cc48="0" cc123="0" cc104="0" cc119="0" cc107="0"/>
          <instrument name="sf2player">
            <sf2player reverbWidth="0.5" reverbLevel="0.89999998" chorusDepth="8" src="usersoundfont:tgsf21x.sf2" chorusOn="0" bank="0" chorusSpeed="0.30000001" chorusNum="3" reverbOn="0" gain="1" patch="37" reverbRoomSize="0.2" chorusLevel="2" reverbDamping="0">
              <key/>
            </sf2player>
          </instrument>
          <eldata ftype="0" fres="0.5" fcut="14000" fwet="0">
            <elvol pdel="0" lshp="0" lspd_numerator="4" rel="0.1" ctlenvamt="0" lspd_denominator="4" dec="0.5" hold="0.5" lamt="0" lpdel="0" x100="0" userwavefile="" amt="0" latt="0" sustain="0.5" lspd_syncmode="0" att="0" lspd="0.1"/>
            <elcut pdel="0" lshp="0" lspd_numerator="4" rel="0.1" ctlenvamt="0" lspd_denominator="4" dec="0.5" hold="0.5" lamt="0" lpdel="0" x100="0" userwavefile="" amt="0" latt="0" sustain="0.5" lspd_syncmode="0" att="0" lspd="0.1"/>
            <elres pdel="0" lshp="0" lspd_numerator="4" rel="0.1" ctlenvamt="0" lspd_denominator="4" dec="0.5" hold="0.5" lamt="0" lpdel="0" x100="0" userwavefile="" amt="0" latt="0" sustain="0.5" lspd_syncmode="0" att="0" lspd="0.1"/>
          </eldata>
          <chordcreator chord="0" chordrange="2" chord-enabled="0"/>
          <arpeggiator arprange="1" arpdir="0" arpskip="0" arpmode="0" arpmiss="0" arptime="200" arpgate="100" arptime_numerator="4" arp-enabled="0" arpcycle="0" arptime_denominator="4" arptime_syncmode="0" arprepeats="1" arp="0"/>
          <midiport inputcontroller="0" fixedoutputvelocity="-1" readable="0" fixedoutputnote="-1" basevelocity="63" fixedinputvelocity="-1" inputchannel="0" outputchannel="1" writable="0" outputcontroller="0" outputprogram="1"/>
          <fxchain numofeffects="0" enabled="0"/>
        </instrumenttrack>
        <midiclip type="1" autoresize="1" name="" off="0" len="1536" pos="768" muted="0" steps="16">
          <note pan="0" type="0" len="12" pos="0" key="34" vol="100"/>
          <note pan="0" type="0" len="12" pos="24" key="34" vol="100"/>
          <note pan="0" type="0" len="12" pos="36" key="34" vol="100"/>
          <note pan="0" type="0" len="12" pos="60" key="34" vol="100"/>
          <note pan="0" type="0" len="24" pos="72" key="34" vol="100"/>
          <note pan="0" type="0" len="24" pos="96" key="29" vol="100"/>
          <note pan="0" type="0" len="24" pos="120" key="29" vol="100"/>
          <note pan="0" type="0" len="24" pos="144" key="34" vol="100"/>
          <note pan="0" type="0" len="24" pos="168" key="34" vol="100"/>
          <note pan="0" type="0" len="12" pos="192" key="30" vol="100"/>
          <note pan="0" type="0" len="12" pos="216" key="30" vol="100"/>
          <note pan="0" type="0" len="12" pos="228" key="30" vol="100"/>
          <note pan="0" type="0" len="12" pos="252" key="30" vol="100"/>
          <note pan="0" type="0" len="24" pos="264" key="30" vol="100"/>
          <note pan="0" type="0" len="24" pos="288" key="34" vol="100"/>
          <note pan="0" type="0" len="24" pos="312" key="30" vol="100"/>
          <note pan="0" type="0" len="24" pos="336" key="37" vol="100"/>
          <note pan="0" type="0" len="24" pos="360" key="30" vol="100"/>
          <note pan="0" type="0" len="12" pos="384" key="36" vol="100"/>
          <note pan="0" type="0" len="12" pos="408" key="36" vol="100"/>
          <note pan="0" type="0" len="12" pos="420" key="36" vol="100"/>
          <note pan="0" type="0" len="12" pos="444" key="36" vol="100"/>
          <note pan="0" type="0" len="24" pos="456" key="36" vol="100"/>
          <note pan="0" type="0" len="24" pos="480" key="29" vol="100"/>
          <note pan="0" type="0" len="24" pos="504" key="36" vol="100"/>
          <note pan="0" type="0" len="24" pos="528" key="36" vol="100"/>
          <note pan="0" type="0" len="24" pos="552" key="29" vol="100"/>
          <note pan="0" type="0" len="12" pos="576" key="33" vol="100"/>
          <note pan="0" type="0" len="12" pos="600" key="33" vol="100"/>
          <note pan="0" type="0" len="12" pos="612" key="33" vol="100"/>
          <note pan="0" type="0" len="12" pos="636" key="33" vol="100"/>
          <note pan="0" type="0" len="24" pos="648" key="33" vol="100"/>
          <note pan="0" type="0" len="24" pos="672" key="36" vol="100"/>
          <note pan="0" type="0" len="24" pos="696" key="36" vol="100"/>
          <note pan="0" type="0" len="24" pos="720" key="37" vol="100"/>
          <note pan="0" type="0" len="24" pos="744" key="36" vol="100"/>
          <note pan="0" type="0" len="12" pos="768" key="34" vol="100"/>
          <note pan="0" type="0" len="12" pos="792" key="34" vol="100"/>
          <note pan="0" type="0" len="12" pos="804" key="34" vol="100"/>
          <note pan="0" type="0" len="12" pos="828" key="34" vol="100"/>
          <note pan="0" type="0" len="24" pos="840" key="34" vol="100"/>
          <note pan="0" type="0" len="24" pos="864" key="29" vol="100"/>
          <note pan="0" type="0" len="24" pos="888" key="29" vol="100"/>
          <note pan="0" type="0" len="24" pos="912" key="34" vol="100"/>
          <note pan="0" type="0" len="24" pos="936" key="34" vol="100"/>
          <note pan="0" type="0" len="12" pos="960" key="30" vol="100"/>
          <note pan="0" type="0" len="12" pos="984" key="30" vol="100"/>
          <note pan="0" type="0" len="12" pos="996" key="30" vol="100"/>
          <note pan="0" type="0" len="12" pos="1020" key="30" vol="100"/>
          <note pan="0" type="0" len="24" pos="1032" key="30" vol="100"/>
          <note pan="0" type="0" len="24" pos="1056" key="34" vol="100"/>
          <note pan="0" type="0" len="24" pos="1080" key="30" vol="100"/>
          <note pan="0" type="0" len="24" pos="1104" key="37" vol="100"/>
          <note pan="0" type="0" len="24" pos="1128" key="30" vol="100"/>
          <note pan="0" type="0" len="12" pos="1152" key="36" vol="100"/>
          <note pan="0" type="0" len="12" pos="1176" key="28" vol="100"/>
          <note pan="0" type="0" len="36" pos="1188" key="36" vol="100"/>
          <note pan="0" type="0" len="12" pos="1224" key="36" vol="100"/>
          <note pan="0" type="0" len="24" pos="1248" key="41" vol="100"/>
          <note pan="0" type="0" len="24" pos="1272" key="41" vol="100"/>
          <note pan="0" type="0" len="24" pos="1296" key="41" vol="100"/>
          <note pan="0" type="0" len="24" pos="1320" key="41" vol="100"/>
          <note pan="0" type="0" len="48" pos="1344" key="29" vol="100"/>
          <note pan="0" type="0" len="48" pos="1392" key="29" vol="100"/>
          <note pan="0" type="0" len="36" pos="1440" key="29" vol="100"/>
          <note pan="0" type="0" len="36" pos="1476" key="29" vol="100"/>
          <note pan="0" type="0" len="24" pos="1512" key="29" vol="100"/>
        </midiclip>
        <midiclip type="1" autoresize="1" name="" off="0" len="768" pos="2304" muted="0" steps="16">
          <note pan="0" type="0" len="72" pos="0" key="36" vol="100"/>
          <note pan="0" type="0" len="120" pos="72" key="39" vol="100"/>
          <note pan="0" type="0" len="72" pos="192" key="43" vol="100"/>
          <note pan="0" type="0" len="72" pos="264" key="41" vol="100"/>
          <note pan="0" type="0" len="24" pos="336" key="39" vol="100"/>
          <note pan="0" type="0" len="144" pos="360" key="36" vol="100"/>
          <note pan="0" type="0" len="24" pos="504" key="31" vol="100"/>
          <note pan="0" type="0" len="24" pos="528" key="36" vol="100"/>
          <note pan="0" type="0" len="120" pos="552" key="41" vol="100"/>
          <note pan="0" type="0" len="48" pos="672" key="39" vol="100"/>
          <note pan="0" type="0" len="48" pos="720" key="38" vol="100"/>
        </midiclip>
        <midiclip type="1" autoresize="1" name="" off="0" len="1536" pos="5376" muted="0" steps="16">
          <note pan="0" type="0" len="192" pos="0" key="46" vol="100"/>
          <note pan="0" type="0" len="192" pos="192" key="38" vol="100"/>
          <note pan="0" type="0" len="192" pos="384" key="39" vol="100"/>
          <note pan="0" type="0" len="192" pos="576" key="43" vol="100"/>
          <note pan="0" type="0" len="192" pos="768" key="46" vol="100"/>
          <note pan="0" type="0" len="192" pos="960" key="39" vol="100"/>
          <note pan="0" type="0" len="192" pos="1152" key="43" vol="100"/>
          <note pan="0" type="0" len="192" pos="1344" key="41" vol="100"/>
        </midiclip>
        <midiclip type="1" autoresize="1" name="" off="0" len="768" pos="4416" muted="0" steps="16">
          <note pan="0" type="0" len="96" pos="0" key="36" vol="100"/>
          <note pan="0" type="0" len="96" pos="96" key="35" vol="100"/>
          <note pan="0" type="0" len="96" pos="192" key="33" vol="100"/>
          <note pan="0" type="0" len="48" pos="288" key="35" vol="100"/>
          <note pan="0" type="0" len="48" pos="336" key="38" vol="100"/>
          <note pan="0" type="0" len="192" pos="384" key="31" vol="100"/>
          <note pan="0" type="0" len="24" pos="576" key="40" vol="100"/>
          <note pan="0" type="0" len="24" pos="600" key="38" vol="100"/>
          <note pan="0" type="0" len="24" pos="624" key="36" vol="100"/>
          <note pan="0" type="0" len="72" pos="648" key="38" vol="100"/>
          <note pan="0" type="0" len="48" pos="720" key="31" vol="100"/>
        </midiclip>
        <midiclip type="1" autoresize="1" name="" off="0" len="1344" pos="3072" muted="0" steps="16">
          <note pan="0" type="0" len="144" pos="0" key="36" vol="100"/>
          <note pan="0" type="0" len="192" pos="144" key="41" vol="100"/>
          <note pan="0" type="0" len="144" pos="336" key="34" vol="100"/>
          <note pan="0" type="0" len="192" pos="480" key="29" vol="100"/>
          <note pan="0" type="0" len="144" pos="672" key="36" vol="100"/>
          <note pan="0" type="0" len="192" pos="816" key="34" vol="100"/>
          <note pan="0" type="0" len="144" pos="1008" key="39" vol="100"/>
          <note pan="0" type="0" len="192" pos="1152" key="35" vol="100"/>
        </midiclip>
      </track>
      <track type="0" name="RealFont_2_1" mutedBeforeSolo="0" muted="0" solo="0">
        <instrumenttrack pan="0" range_import="1" mixch="2" pitchrange="1" firstkey="0" keymap="0" usemasterpitch="1" scale="0" pitch="0" basenote="57" lastkey="127" enablecc="0" enabled="0" vol="100">
          <midicontrollers cc115="0" cc71="0" cc3="0" cc63="0" cc90="0" cc74="0" cc82="0" cc96="0" cc10="0" cc17="0" cc116="0" cc59="0" cc122="0" cc118="0" cc45="0" cc77="0" cc72="0" cc40="0" cc2="0" cc105="0" cc24="0" cc33="0" cc43="0" cc13="0" cc88="0" cc6="0" cc31="0" cc52="0" cc15="0" cc67="0" cc7="0" cc41="0" cc4="0" cc19="0" cc125="0" cc75="0" cc79="0" cc93="0" cc25="0" cc39="0" cc51="0" cc87="0" cc55="0" cc28="0" cc26="0" cc98="0" cc102="0" cc50="0" cc23="0" cc16="0" cc92="0" cc57="0" cc69="0" cc18="0" cc85="0" cc103="0" cc126="0" cc124="0" cc9="0" cc20="0" cc68="0" cc114="0" cc30="0" cc47="0" cc86="0" cc97="0" cc5="0" cc73="0" cc60="0" cc108="0" cc66="0" cc58="0" cc121="0" cc49="0" cc99="0" cc65="0" cc83="0" cc35="0" cc94="0" cc44="0" cc112="0" cc37="0" cc64="0" cc84="0" cc14="0" cc38="0" cc32="0" cc62="0" cc78="0" cc54="0" cc34="0" cc117="0" cc76="0" cc127="0" cc89="0" cc0="0" cc100="0" cc109="0" cc111="0" cc29="0" cc95="0" cc70="0" cc91="0" cc27="0" cc81="0" cc120="0" cc1="0" cc42="0" cc113="0" cc22="0" cc80="0" cc110="0" cc8="0" cc46="0" cc12="0" cc53="0" cc11="0" cc21="0" cc36="0" cc56="0" cc101="0" cc106="0" cc61="0" cc48="0" cc123="0" cc104="0" cc119="0" cc107="0"/>
          <instrument name="sf2player">
            <sf2player reverbWidth="0.5" reverbLevel="0.89999998" chorusDepth="8" src="usersoundfont:RealFont_2_1.SF2" chorusOn="0" bank="0" chorusSpeed="0.30000001" chorusNum="3" reverbOn="0" gain="1" patch="26" reverbRoomSize="0.2" chorusLevel="2" reverbDamping="0">
              <key/>
            </sf2player>
          </instrument>
          <eldata ftype="0" fres="0.5" fcut="14000" fwet="0">
            <elvol pdel="0" lshp="0" lspd_numerator="4" rel="0.1" ctlenvamt="0" lspd_denominator="4" dec="0.5" hold="0.5" lamt="0" lpdel="0" x100="0" userwavefile="" amt="0" latt="0" sustain="0.5" lspd_syncmode="0" att="0" lspd="0.1"/>
            <elcut pdel="0" lshp="0" lspd_numerator="4" rel="0.1" ctlenvamt="0" lspd_denominator="4" dec="0.5" hold="0.5" lamt="0" lpdel="0" x100="0" userwavefile="" amt="0" latt="0" sustain="0.5" lspd_syncmode="0" att="0" lspd="0.1"/>
            <elres pdel="0" lshp="0" lspd_numerator="4" rel="0.1" ctlenvamt="0" lspd_denominator="4" dec="0.5" hold="0.5" lamt="0" lpdel="0" x100="0" userwavefile="" amt="0" latt="0" sustain="0.5" lspd_syncmode="0" att="0" lspd="0.1"/>
          </eldata>
          <chordcreator chord="0" chordrange="1" chord-enabled="0"/>
          <arpeggiator arprange="1" arpdir="0" arpskip="0" arpmode="0" arpmiss="0" arptime="200" arpgate="100" arptime_numerator="4" arp-enabled="0" arpcycle="0" arptime_denominator="4" arptime_syncmode="0" arprepeats="1" arp="0"/>
          <midiport inputcontroller="0" fixedoutputvelocity="-1" readable="0" fixedoutputnote="-1" basevelocity="63" fixedinputvelocity="-1" inputchannel="0" outputchannel="1" writable="0" outputcontroller="0" outputprogram="1"/>
          <fxchain numofeffects="0" enabled="0"/>
        </instrumenttrack>
        <midiclip type="1" autoresize="1" name="" off="0" len="1536" pos="768" muted="0" steps="16">
          <note pan="0" type="0" len="24" pos="0" key="70" vol="100"/>
          <note pan="0" type="0" len="12" pos="24" key="65" vol="100"/>
          <note pan="0" type="0" len="36" pos="36" key="65" vol="100"/>
          <note pan="0" type="0" len="12" pos="72" key="65" vol="100"/>
          <note pan="0" type="0" len="36" pos="84" key="63" vol="100"/>
          <note pan="0" type="0" len="12" pos="120" key="63" vol="100"/>
          <note pan="0" type="0" len="24" pos="132" key="63" vol="100"/>
          <note pan="0" type="0" len="36" pos="156" key="61" vol="100"/>
          <note pan="0" type="0" len="24" pos="192" key="70" vol="100"/>
          <note pan="0" type="0" len="12" pos="216" key="65" vol="100"/>
          <note pan="0" type="0" len="36" pos="228" key="65" vol="100"/>
          <note pan="0" type="0" len="12" pos="264" key="65" vol="100"/>
          <note pan="0" type="0" len="36" pos="276" key="63" vol="100"/>
          <note pan="0" type="0" len="12" pos="312" key="63" vol="100"/>
          <note pan="0" type="0" len="24" pos="324" key="63" vol="100"/>
          <note pan="0" type="0" len="36" pos="348" key="61" vol="100"/>
          <note pan="0" type="0" len="24" pos="384" key="60" vol="100"/>
          <note pan="0" type="0" len="12" pos="408" key="61" vol="100"/>
          <note pan="0" type="0" len="36" pos="420" key="60" vol="100"/>
          <note pan="0" type="0" len="12" pos="456" key="61" vol="100"/>
          <note pan="0" type="0" len="36" pos="468" key="60" vol="100"/>
          <note pan="0" type="0" len="12" pos="504" key="58" vol="100"/>
          <note pan="0" type="0" len="156" pos="516" key="57" vol="100"/>
          <note pan="0" type="0" len="24" pos="744" key="58" vol="100"/>
          <note pan="0" type="0" len="24" pos="768" key="70" vol="100"/>
          <note pan="0" type="0" len="12" pos="792" key="65" vol="100"/>
          <note pan="0" type="0" len="36" pos="804" key="65" vol="100"/>
          <note pan="0" type="0" len="12" pos="840" key="63" vol="100"/>
          <note pan="0" type="0" len="36" pos="852" key="63" vol="100"/>
          <note pan="0" type="0" len="12" pos="888" key="63" vol="100"/>
          <note pan="0" type="0" len="24" pos="900" key="63" vol="100"/>
          <note pan="0" type="0" len="36" pos="924" key="61" vol="100"/>
          <note pan="0" type="0" len="24" pos="960" key="70" vol="100"/>
          <note pan="0" type="0" len="12" pos="984" key="66" vol="100"/>
          <note pan="0" type="0" len="36" pos="996" key="66" vol="100"/>
          <note pan="0" type="0" len="12" pos="1032" key="65" vol="100"/>
          <note pan="0" type="0" len="36" pos="1044" key="65" vol="100"/>
          <note pan="0" type="0" len="12" pos="1080" key="63" vol="100"/>
          <note pan="0" type="0" len="24" pos="1092" key="63" vol="100"/>
          <note pan="0" type="0" len="36" pos="1116" key="61" vol="100"/>
          <note pan="0" type="0" len="36" pos="1152" key="60" vol="100"/>
          <note pan="0" type="0" len="36" pos="1188" key="63" vol="100"/>
          <note pan="0" type="0" len="24" pos="1224" key="66" vol="100"/>
          <note pan="0" type="0" len="240" pos="1248" key="65" vol="100"/>
        </midiclip>
        <midiclip type="1" autoresize="1" name="" off="0" len="192" pos="576" muted="0" steps="16">
          <note pan="0" type="0" len="12" pos="144" key="58" vol="100"/>
          <note pan="0" type="0" len="24" pos="156" key="58" vol="100"/>
          <note pan="0" type="0" len="12" pos="180" key="58" vol="100"/>
        </midiclip>
        <midiclip type="1" autoresize="1" name="" off="0" len="1536" pos="8448" muted="0" steps="16">
          <note pan="0" type="0" len="24" pos="0" key="70" vol="100"/>
          <note pan="0" type="0" len="12" pos="24" key="65" vol="100"/>
          <note pan="0" type="0" len="36" pos="36" key="65" vol="100"/>
          <note pan="0" type="0" len="12" pos="72" key="65" vol="100"/>
          <note pan="0" type="0" len="36" pos="84" key="63" vol="100"/>
          <note pan="0" type="0" len="12" pos="120" key="63" vol="100"/>
          <note pan="0" type="0" len="24" pos="132" key="63" vol="100"/>
          <note pan="0" type="0" len="36" pos="156" key="61" vol="100"/>
          <note pan="0" type="0" len="24" pos="192" key="70" vol="100"/>
          <note pan="0" type="0" len="12" pos="216" key="65" vol="100"/>
          <note pan="0" type="0" len="36" pos="228" key="65" vol="100"/>
          <note pan="0" type="0" len="12" pos="264" key="65" vol="100"/>
          <note pan="0" type="0" len="36" pos="276" key="63" vol="100"/>
          <note pan="0" type="0" len="12" pos="312" key="63" vol="100"/>
          <note pan="0" type="0" len="24" pos="324" key="63" vol="100"/>
          <note pan="0" type="0" len="24" pos="348" key="61" vol="100"/>
          <note pan="0" type="0" len="12" pos="372" key="61" vol="100"/>
          <note pan="0" type="0" len="24" pos="384" key="60" vol="100"/>
          <note pan="0" type="0" len="12" pos="408" key="61" vol="100"/>
          <note pan="0" type="0" len="36" pos="420" key="60" vol="100"/>
          <note pan="0" type="0" len="12" pos="456" key="61" vol="100"/>
          <note pan="0" type="0" len="36" pos="468" key="60" vol="100"/>
          <note pan="0" type="0" len="12" pos="504" key="58" vol="100"/>
          <note pan="0" type="0" len="156" pos="516" key="57" vol="100"/>
          <note pan="0" type="0" len="24" pos="744" key="58" vol="100"/>
          <note pan="0" type="0" len="24" pos="768" key="70" vol="100"/>
          <note pan="0" type="0" len="12" pos="792" key="65" vol="100"/>
          <note pan="0" type="0" len="36" pos="804" key="65" vol="100"/>
          <note pan="0" type="0" len="12" pos="840" key="63" vol="100"/>
          <note pan="0" type="0" len="36" pos="852" key="63" vol="100"/>
          <note pan="0" type="0" len="12" pos="888" key="63" vol="100"/>
          <note pan="0" type="0" len="24" pos="900" key="63" vol="100"/>
          <note pan="0" type="0" len="36" pos="924" key="61" vol="100"/>
          <note pan="0" type="0" len="24" pos="960" key="70" vol="100"/>
          <note pan="0" type="0" len="12" pos="984" key="66" vol="100"/>
          <note pan="0" type="0" len="36" pos="996" key="66" vol="100"/>
          <note pan="0" type="0" len="12" pos="1032" key="65" vol="100"/>
          <note pan="0" type="0" len="36" pos="1044" key="65" vol="100"/>
          <note pan="0" type="0" len="12" pos="1080" key="63" vol="100"/>
          <note pan="0" type="0" len="24" pos="1092" key="63" vol="100"/>
          <note pan="0" type="0" len="36" pos="1116" key="61" vol="100"/>
          <note pan="0" type="0" len="36" pos="1152" key="60" vol="100"/>
          <note pan="0" type="0" len="36" pos="1188" key="63" vol="100"/>
          <note pan="0" type="0" len="24" pos="1224" key="66" vol="100"/>
          <note pan="0" type="0" len="36" pos="1248" key="65" vol="100"/>
          <note pan="0" type="0" len="36" pos="1284" key="69" vol="100"/>
          <note pan="0" type="0" len="24" pos="1320" key="72" vol="100"/>
          <note pan="0" type="0" len="192" pos="1344" key="77" vol="100"/>
        </midiclip>
        <midiclip type="1" autoresize="1" name="" off="0" len="1536" pos="5376" muted="0" steps="16">
          <note pan="0" type="0" len="96" pos="0" key="62" vol="100"/>
          <note pan="0" type="0" len="48" pos="96" key="70" vol="100"/>
          <note pan="0" type="0" len="48" pos="144" key="69" vol="100"/>
          <note pan="0" type="0" len="96" pos="192" key="65" vol="100"/>
          <note pan="0" type="0" len="48" pos="288" key="62" vol="100"/>
          <note pan="0" type="0" len="48" pos="336" key="60" vol="100"/>
          <note pan="0" type="0" len="48" pos="384" key="63" vol="100"/>
          <note pan="0" type="0" len="48" pos="432" key="58" vol="100"/>
          <note pan="0" type="0" len="48" pos="480" key="67" vol="100"/>
          <note pan="0" type="0" len="48" pos="528" key="65" vol="100"/>
          <note pan="0" type="0" len="96" pos="576" key="63" vol="100"/>
          <note pan="0" type="0" len="48" pos="672" key="65" vol="100"/>
          <note pan="0" type="0" len="48" pos="720" key="63" vol="100"/>
          <note pan="0" type="0" len="48" pos="768" key="62" vol="100"/>
          <note pan="0" type="0" len="48" pos="816" key="58" vol="100"/>
          <note pan="0" type="0" len="48" pos="864" key="53" vol="100"/>
          <note pan="0" type="0" len="48" pos="912" key="57" vol="100"/>
          <note pan="0" type="0" len="48" pos="960" key="58" vol="100"/>
          <note pan="0" type="0" len="48" pos="1008" key="62" vol="100"/>
          <note pan="0" type="0" len="48" pos="1056" key="67" vol="100"/>
          <note pan="0" type="0" len="48" pos="1104" key="62" vol="100"/>
          <note pan="0" type="0" len="192" pos="1152" key="63" vol="100"/>
          <note pan="0" type="0" len="192" pos="1344" key="60" vol="100"/>
        </midiclip>
        <midiclip type="1" autoresize="1" name="" off="0" len="192" pos="5184" muted="0" steps="16">
          <note pan="0" type="0" len="48" pos="96" key="58" vol="100"/>
          <note pan="0" type="0" len="48" pos="144" key="60" vol="100"/>
        </midiclip>
        <midiclip type="1" autoresize="1" name="" off="0" len="768" pos="4416" muted="0" steps="16">
          <note pan="0" type="0" len="48" pos="0" key="67" vol="100"/>
          <note pan="0" type="0" len="48" pos="48" key="72" vol="100"/>
          <note pan="0" type="0" len="48" pos="96" key="66" vol="100"/>
          <note pan="0" type="0" len="48" pos="144" key="72" vol="100"/>
          <note pan="0" type="0" len="48" pos="192" key="65" vol="100"/>
          <note pan="0" type="0" len="48" pos="240" key="72" vol="100"/>
          <note pan="0" type="0" len="24" pos="288" key="76" vol="100"/>
          <note pan="0" type="0" len="24" pos="312" key="74" vol="100"/>
          <note pan="0" type="0" len="24" pos="336" key="72" vol="100"/>
          <note pan="0" type="0" len="408" pos="360" key="74" vol="100"/>
        </midiclip>
        <midiclip type="1" autoresize="1" name="" off="0" len="1344" pos="3072" muted="0" steps="16">
          <note pan="0" type="0" len="96" pos="0" key="63" vol="100"/>
          <note pan="0" type="0" len="48" pos="96" key="67" vol="100"/>
          <note pan="0" type="0" len="144" pos="144" key="60" vol="100"/>
          <note pan="0" type="0" len="48" pos="288" key="58" vol="100"/>
          <note pan="0" type="0" len="96" pos="336" key="62" vol="100"/>
          <note pan="0" type="0" len="48" pos="432" key="65" vol="100"/>
          <note pan="0" type="0" len="144" pos="480" key="58" vol="100"/>
          <note pan="0" type="0" len="48" pos="624" key="55" vol="100"/>
          <note pan="0" type="0" len="96" pos="672" key="63" vol="100"/>
          <note pan="0" type="0" len="48" pos="768" key="63" vol="100"/>
          <note pan="0" type="0" len="144" pos="816" key="67" vol="100"/>
          <note pan="0" type="0" len="48" pos="960" key="65" vol="100"/>
          <note pan="0" type="0" len="96" pos="1008" key="65" vol="100"/>
          <note pan="0" type="0" len="48" pos="1104" key="65" vol="100"/>
          <note pan="0" type="0" len="96" pos="1152" key="62" vol="100"/>
          <note pan="0" type="0" len="48" pos="1248" key="64" vol="100"/>
          <note pan="0" type="0" len="48" pos="1296" key="65" vol="100"/>
        </midiclip>
      </track>
    </trackcontainer>
    <mixer visible="1" height="387" minimized="0" x="48" maximized="0" y="360" width="1553">
      <mixerchannel name="Master" volume="1" num="0" soloed="0" muted="0">
        <fxchain numofeffects="2" enabled="1">
          <effect name="eq" autoquit_numerator="4" on="1" autoquit_syncmode="0" autoquit_denominator="4" gate="0" autoquit="1" wet="1">
            <Eq Peak3bw="0.30000001" Peak2bw="0.30000001" LowShelfres="0.70700002" Lowshelfactive="0" LPactive="1" Peak2active="0" Peak1active="0" Peak3active="0" Highshelfactive="0" AnalyseOut="1" Peak2gain="0" HighShelfres="0.70700002" HP12="0" Outputgain="0" HP24="0" HPres="0.70700002" Peak4gain="0" LP12="0" Peak3gain="0" HPactive="1" HP48="1" HP="2" HighShelfgain="0" LP48="1" Peak4bw="0.30000001" Peak4active="0" LP="2" AnalyseIn="1" Peak1bw="0.30000001" LPres="0.70700002" LP24="0" Lowshelfgain="0">
              <Inputgain scale_type="log" value="0" id="32249"/>
              <Peak1gain scale_type="log" value="0" id="8793"/>
              <HPfreq scale_type="log" value="31" id="7032"/>
              <LowShelffreq scale_type="log" value="80" id="11692"/>
              <Peak1freq scale_type="log" value="120" id="30635"/>
              <Peak2freq scale_type="log" value="250" id="31383"/>
              <Peak3freq scale_type="log" value="2000" id="26388"/>
              <Peak4freq scale_type="log" value="4000" id="14855"/>
              <Highshelffreq scale_type="log" value="12000" id="20311"/>
              <LPfreq scale_type="log" value="18000" id="7848"/>
            </Eq>
            <key/>
          </effect>
          <effect name="eq" autoquit_numerator="4" on="1" autoquit_syncmode="0" autoquit_denominator="4" gate="0" autoquit="1" wet="1">
            <Eq Peak3bw="0.30000001" Peak2bw="0.30000001" LowShelfres="0.70700002" Lowshelfactive="0" LPactive="1" Peak2active="0" Peak1active="0" Peak3active="0" Highshelfactive="0" AnalyseOut="1" Peak2gain="0" HighShelfres="0.70700002" HP12="0" Outputgain="0" HP24="0" HPres="0.70700002" Peak4gain="0" LP12="0" Peak3gain="0" HPactive="1" HP48="1" HP="2" HighShelfgain="0" LP48="1" Peak4bw="0.30000001" Peak4active="0" LP="2" AnalyseIn="1" Peak1bw="0.30000001" LPres="0.70700002" LP24="0" Lowshelfgain="0">
              <Inputgain scale_type="log" value="0" id="20452"/>
              <Peak1gain scale_type="log" value="0" id="13714"/>
              <HPfreq scale_type="log" value="31" id="6941"/>
              <LowShelffreq scale_type="log" value="80" id="25353"/>
              <Peak1freq scale_type="log" value="120" id="29969"/>
              <Peak2freq scale_type="log" value="250" id="31426"/>
              <Peak3freq scale_type="log" value="2000" id="2752"/>
              <Peak4freq scale_type="log" value="4000" id="14918"/>
              <Highshelffreq scale_type="log" value="12000" id="1323"/>
              <LPfreq scale_type="log" value="18000" id="28740"/>
            </Eq>
            <key/>
          </effect>
        </fxchain>
      </mixerchannel>
      <mixerchannel name="Drums" volume="0.74400002" num="1" soloed="0" muted="0">
        <fxchain numofeffects="3" enabled="1">
          <effect name="stereomatrix" autoquit_numerator="4" on="1" autoquit_syncmode="0" autoquit_denominator="4" gate="0" autoquit="1" wet="1">
            <stereomatrixcontrols l-l="0.75" r-l="0.25" r-r="0.75" l-r="0.25"/>
            <key/>
          </effect>
          <effect name="vsteffect" autoquit_numerator="4" on="1" autoquit_syncmode="0" autoquit_denominator="4" gate="0" autoquit="1" wet="1">
            <vsteffectcontrols guivisible="0" param2="2:Level:0.53" param0="0:Bypass:0" param1="1:Drive:0.635" program="0" plugin="Effects\DeadDuckSoftware\DD Overdrive.dll" numparams="3"/>
            <key>
              <attribute name="file" value="Effects\DeadDuckSoftware\DD Overdrive.dll"/>
            </key>
          </effect>
          <effect name="vsteffect" autoquit_numerator="4" on="1" autoquit_syncmode="0" autoquit_denominator="4" gate="0" autoquit="1" wet="1">
            <vsteffectcontrols param6="6:Mix:0.21" param3="3:Hi Damp:1" param4="4:Lo Cut:0.3" guivisible="0" param2="2:Predelay:0.5" param0="0:Size:1" param1="1:Damping:1" program="0" param5="5:Early Ref.:0" param7="7:Level:0.5" plugin="Effects\Classic Reverb\Classic Reverb.dll" numparams="8"/>
            <key>
              <attribute name="file" value="Effects\Classic Reverb\Classic Reverb.dll"/>
            </key>
          </effect>
        </fxchain>
        <send amount="1" channel="0"/>
      </mixerchannel>
      <mixerchannel name="Lead" volume="0.255" num="2" soloed="0" muted="0">
        <fxchain numofeffects="2" enabled="1">
          <effect name="vsteffect" autoquit_numerator="4" on="1" autoquit_syncmode="0" autoquit_denominator="4" gate="0" autoquit="1" wet="1">
            <vsteffectcontrols guivisible="0" program="10" plugin="Effects\Voxengo Boogex Amp Simulator\Voxengo Boogex Amp Simulator.dll" chunk="AAAAAAAAAAAAAAAAAAAAAGFibmu9QgMAAwHEA3ic7Z0JXAzv/8BXKqGQm6ilviWEEnLOkJuS8kOOb23tVqutXbubyn3k+jpy5fZF39xn5I5y8xVyhb5yJoVCRM7+O1u7dtfus1v/nVlbn+f1ypjdeZ7PzDMzz87M+z3PY0qj0bxYAgGbG0rvxQgNbiiaNxX9dfALcO7SmxXACOMIh4nmzUR/fpE8hkDgwApl+HFYXUUfWIj+GGFMNrdNCJfpxmCHtpFbpJLoa+KPVjKV/J9IJqK/QD43jCdgcTqK/l//l6Ik36JKIdaKHSoQMkL9WQ6hjBBWf6VrJbdIJZlylP3RJf+pRxTOdeAx+IwQQfHqiAsQXBR9Yf1rEGWLKhZuojDvaCAz41RZZqa9ocyMs5HMTAdjmZmOVWRmOskW7yKZIUIQJRMFEuUQ2auUrEvtX7eRHRoYQVSDug0ULae4a0xoqtJbTH5Kw+WnJtJpY7k1Yoc6+AcxQkNZnOL6DBeFaYFYM8XlFeu/lsL8YNn695TUPzEd4C7dA8Wz0n1QPCvdC8Wz0v1QPCvdE8WzLlXlZjtXK5k1FM86tqsuP+9oKj/vZCY/376G/LxzTfn5DrXk5ztK5lGHArGKxHoR60LEJ2IScWqWVFtdxR0jOgiEooNgoujz5uhdUrKk6sPll8NC4yR/koriSIJNoqFPUplFyVgvC7n1EgRxwx0YHI7k4BQMEH1tj1i7XzKgWkFiz4iK6MXlBrIi2vgz/ByY/MgQdkQvmrI9o2zJ0pVe3LprUrq634G3WP1fSg9gc1jEuTtC9I2NmvIly6Lac+L4Lvkhk3xU55eg7FAmK6Kn6ONmaiKKF1S9Qe54TbmymXz2BFZ30UdNEeWKF9K8kljjJUeJXzhTTSXJLqsYwejnPsZVTTvWuJr5fvg3rKGKNQjgs8YHiL6z1WgdiKVVrgWOFUfFfUqm00qmG/FWR+oPOTQ4CVe1FoGigJqvBbG06rpQ/KX6Oa3Z2Wx9THKWyroQfcbSfC2IpRF7RE1qiDdRsRY8PmsCUfY40fctNVoTSQ7Va9MER9dNQ7ye3NoEMoSsknPflaasGVa6KKoRavhr+cIgPkvUTHKYfdXUufzSqqM4JdeQi0LUSTdi6xFlK6s32TNXvl5ENe0gqnfiAPRSUy8yiyqWX1mmfMVpA7l4oh3L4kta4T6ir/5ARJRbWPNtKslGrKi6fS2zqLLyB/My5kbWScUaKStfVB9MFocR2U/0pZ36GJLFlcWZVHdvvycT4xRa1ZKMAh7Dn9Wbhm5VZZdFRVBaU0J2iNqzQmZR1XuiUPkWhLOZwiANt0C8LGpfy//4CxhCDS8tfi6JOqstFUv3YwkZ0h8sNkPgOFi0RGt0nF/yKItoNfvV0KOWd7DmqIhBDD4zVHQv7OghWqqd5lGl+ZRF/rbj3U03Pw/NIjuVMbKTssjRZwpajIl+qllk9zJGdlcWOSCzY8v+9FSMjorM4TkQ1wPuomXaaB63JJfKo+r1WRy5vUSDLb419Cvd9krzoS41idspNxaTHRYi+cQWtS7ELQjRGDr4c/l84iGLs+brI5dXWW28PJhPy0xNT7JCrUGEuAw30SIOmoeOUNmCS1oN5B6IcAgq3oelPOKk+VRGTuaj932EA6eMkdUddZYJuLV8ZB7LX8gPC5EUwQgVshkcUes0VLSYIyq0qoyodrQZOvaEQOKHZIhoobaliVycDbWfbZBx/Thc/2AHAXsiy1O0nFMpQv/MqTp6XRy91Uy2gLiQKe1Wl2Qrxa+WQgGiW1KO2l8tJXlQ9Yw+togj0yGIHRhU2mNLmlFl7Hm3FM8oZUVwuOFqzygV+VRvtbOaM0raIDNLudUateRKHhrQkavDDQgQsIRqf8yU5ir7qc0VXcVxGLzSHuQl2VTHfazm1OYzQgNZ4kOntKf2z5zKoqdGrXTAmiarOeCLyxAdPaU94KUZlcWuXf10PD6dria2gOVffIdU2tjSjGXf26IihJG8UjdpJdlUxzXBrdBxOVweS+1FgrJMqmPWVnN6C0K4XGEQOzSw1PUsyVj2JpyordI24egaVtd6hLNDmdzw0rYexblQUZvKRY3gCsP8WHL3SoNEC7RChFSSRVm8A3ct9rRIvJOkLp5T6eMpvbVJGbLpSdrDf5HxiIvUUsYTZ1F6MT3raebF7x8VLmzlMwfxAlgsph/DP1jdj6GqfJofsb+UIPo5VXfEKsujLOIPh8YXJns3xFER2aHErildxOI8Zd1G0QktKry0EdXdqKCOn+BQFquU54c4i7J4iw5Zb21cZRauLl4pj1dxFqX7sEiUsGjkPuSwQ9hCtQ9YlOVRFvFxiKdVt/s11Ud0KkNEpdtIHxVj9mazBU5HReQV/+aqa1mV50IdOcjtLMP5yFF5Pga5pIcIs1MUbnfkc0uvaX1o6GsDFdlQl8IEKx7B4EsfaaDqW/RRGepbkgvVNlihooYJNXmMoTSTspi+ZjV+zOnzBkNuaXF2x1JuaUku1JFloz4q8czHUd2Vt+qcqHrWMLpTmaMr/z1ve8XGau25JA2jty9z9PaaX33LlxFB3DMRP2Dqrr5VZFMWd2DSEW+7mGzkVYW4gACO0E/tLbaqfMoib59tm3BkDg1H1bekBKJdKl19y+ZUFv0Pbmsuq3UkskUTl0HstTLUt6rzupd3j5UbFphIEP2QMGE/sWgm+kclopddCHXWEtYMj88S3c2LG1Si8W/0S3kyC6BaXCUPHwhPS6zkibY6JJLuGsTgB7L4BEYCMQ/EPBDzZGZBzAMxD5FAzKuQYl5frYp5Ri/NbLf8bzROnZj3gDc2bEB6ZXzQ1w0prasbUCnm0XoXrwUejQ9MjeI/2uiDe9S19zWtEY8vTRx3oOlnqsW84Q1fNnr85j9s+7J7llEHsrH8Me1zZ5m+0I2Yh8uv3e8t5pEnoJ2sNdlliIcZDgKaegHtRkLU0TXsf0gU0NjuxgPbtI8lTUB7PXjXthmNv5EooE3/PK7ayGc5JAlopzDmHPuIE1gz+dJBnABxAsQJbYsT6MMNFAZQGEBh0AeFobzKBN6u+6KHZL6lTCbwrLfZy2vQtwohE5wbGZBVy9YAZAItygTNj98J/9PGBGQCLcoEeRcOjD+XZ4zTURFJkgnQx6oOZQJfmtZlAuLRhZeQz5BevqAqvHzYBB+GTpqVMDsXbALKbIJhwZ7WLS6e1ZFNgE/pYG9YZ5vCswWwCcAmUG8T/BfH5ia/e4mZ00pwv5f4VoDemwARQPuB9gPtB9oPtF/zBLS/QtJ+N63S/ufv8r4VMEdQQPsllH/658acQvpnbP5tn7gl82risVE7eeOzCiii/Q/mRblu7TIH/zgydmbD3aPw1884h/x27sUdN1/KjrVOpIj2u9TuGuK6/Ae27O/FSStWvsHsBh2odjT6GfZpk19kPbPnlNJ+1Xxdl7T/V/eALNp/b2/C7raLsjBmU7PDqwxoeF5azVZ127zT6+5mjttPudQyLo102v/WbrzpgsrrSaT9y6dZtb50I5402j9uxrOOvj8q4/ra3YzzpwPrU81TgfYD7QfaD7QfaD/QfqD9vwvtf5539PHu9x8po/2FXV3sm9mdo4z2T7gW6xAZ/bVC0P7vF06nXcg1B9qvRdovYeFU0f7J7eoJx84YRCHt736CHpxrhj5qtEv7i8TJGqejIpYD2i9OM2/rtOsAL26Aii60qIH9bzEqYf/u+zm+jJR8imG/U8kZpBvY/7i7ndmEpPuaqgZahv1vHQ3d+l5J1hHsT/W+fTK+y94k1BlGBuxPTssoyGgTrwPYb30wY8feO3uQe5s82J8xJszzfWcPymH/jhiPrE9WezBtwn6vZlvjR7V/gREYRAz7Pdj+waILD7orPyzUPwhG3QHcD7gfcD/gfs0T4P4KiftpWsX9/1b/4Z9v7k3hy/3+vYZ5RLwxwr9nbbGsak/pqDsyL/e722Z2Mh0agjud+a9zwtJd+JMc+v7YU1Thfsm04PlAbtGaTMzwUP9Ws7xfYitSvc6Mvpahk5f7fy/cXz5H3emh9VF3in+efi6tPQ2ijUOygcDMGP8ifn70BrvAnRzQo81jvdYgbNfMoft53yZdgziz5ey1av12kahBRDw0u7tw5SLSNAj2qZ0Wpoc+6O2oO8bLd4fP6nILg1F3FEooJ6PuFCcYdUeXo+48mUgM/QWj7sCoO6CTlSI06GSysUEng1F3lBUAEhtIbCCxwag70vP2z7xWG7MfIVUkbapzQa4+7ka7s5DxtKnO+XtFxDYtUrywpU6dQ4/yoV11zsg80oKV/R0ZEdQ51VmUxTNPXG8aXziaMnUujDstZA9rDIXqXOXRrpGLfS0oVOdqLntxfJtZbZyOilgORt25HcybUH3hVZ12lOPB5fGkz1JRFc4tF+6cdXRzv0/DMyl259pe8plPW1hLR+6cJOnGncseOEeQ0+6Yjtw5urFd6/yj2ynvKCd7c+fVLsmXdeDOfWzumz1/mqmOOsoxWnNyobf9dsrdOdsOzaP/Z/Jcq+7cQ/7TPx8Gv1Ycdofge2UedofgkPIKnuQbQsQRG3pu7FB2yXfQGw/oeaDngZ4Hep7mCfS8iqjnTe+jVT3PPCOv5Y6MURTqeZLp8uubbW8Mf4/pRs8rnnLxrfdOBH5zOIBfS+65Ku+fUxTreZLpptSUgfe+PMeGWvtwN4dl6WbsHYW1+731PPLG3pFM9VlDo2rsnWjrnTFGKZtI1ND2d11bVOXKOtI0tKMxCZMbfMglXUPLJklDk6Rm8qWDPgH6BOgT2tYn0IcbiAwgMoDIoA8iA4y9U6p4MPYODcbeIUMpgLF3tK8UwNg71CkFMPYOBUpBcYKxdzQoA8be0SwwjL0jF5eMsXdat0/80H9BjszYO8QTPqD9QPuB9gPtB9pf6vUC2l8RaT/NVau0P3js9fQTgVTS/uOjehqlPKqkY9qfc3rkhsVNpuO9109J+3AlHt+cOO5A089JFNP+v94Ff/S7XITV+2NqR6fkV5hZZ7P1Mcm6of361RmP9mi/hIxnnoi+O9mmAJs9aVmDQiYN12faH8N7efX1ysuk0/5ziwz8J7Q8RiLt5z/q1ciq8t+k0f5D/UOGv176VW87nZGkZvKlA+0H2g+0H2g/0H6g/UD7FSNSRfsf7woR1mlylbIOBAqL5u1OYl6hjPanzaw3qEPm9QpB+9/1Yf5VdVcVoP1apP17hIfpVqF8ymj/qTP3o+kzvqJfc9cq7b8d1HPpzJNf1EfUGu2fMr/S0CsGX5FItjzQfnHSdOwdBk3rtJ94rt2fwWeypP0Uomq8fOD+oZGePVOPvgDcTxnuP0t0dnrmvI5w//6ee1t+fX6Ectyfud6q5aDa2UnU4/5WzeP9R5z+oqPRdxaGRW7dGEn96DvbBzb93PR7mlZ7EJCctQTjE+P+vgwhfSBj4kRA/YD6AfUD6gfUr3kC1F8hUX8HraJ+YaJndP+8BhVu3B3LBk0eH3/Nx88kNtqf43sQvycwNAv5cIZi1H8u2eiAU+8sbEzLSZ+bnfiAvR/TPneW6QtA/Tp4sZ9tuN9uOb2ydD30GfU/WjFgG377Aumo3zYh7cPaucdJRP1B8U2Xe/L3k4b6LWoMWnomqhqur6j/x6avzok7ryrcjQPqB9QPqB9QP6B+QP2A+n+JSBXqf5539PHu9x8pe7G/sKuLfTO7c5Sh/gnXYh0io79WCNT//cLptAu55oD6tYj6Ja+9U4X6J7erJxw7YxCFL/Z3P0EPzjVDHzXaRf3iUVKLrHE6KmJFQ/0+NK2jfuL5thc3QMWYWdSAfmqHCth9P8eXkZJPMeh3KjmDdAP6H3e3M5uQdF9TzUDLoP+to6Fb3yvJOgL9qd63T8Z32ZuEOsPIAP3JaRkFGW3idfBev/XBjB177+zREejPGBPm+b4z9aB/R4xH1ierPVoF/a1K3usnyhSDfqKP/0hA/YD6VWwgoH7ZWUD9gPplE6D+Con6W2sV9X99OiJyayRGIerv9i1uaf2LrzDdon67HO/N4woi8NGjuA+aTD2sI9TP6prYyfVQGtb3+Bz/26+/wlv9OkD9h0b+tX/58ydYTlCNep+2G+LV7LdsOeHzRK9Rv4fLuNZ9f9wgHfULEv7Kin1B5lv94bXGH3xYEEca6ucuOP5k1+Saeov691763/wGlhmA+gH1A+oH1A+oH1A/oH5A/YD6AfWj86AuNgD1A+oH1A+oXz4moH5A/YD6AfW3CVGP+sO+Gkb1aPESIzCIGPW7sYQMDoftT/fgMIQswP2A+wH3A+4H3K95AtxfIXF/L63i/qTBEc5GfTx08Gb/oK8bUlpXN9AR7n/favyrS835OKOuva9pjXjcbfOl7FjrRIpxv0GvbrMHxL7Fziybv2eKQyU8H97spxz3P3mx+HLBPpo0/slak12GeJjpdSf+q6tnMto1eUw67m/CuHb+/Me/SMT9tw3v8Eav/os03C/8e51ngksuiZ34O52t9nZJ60ck4X7D5bvDZ3W5BbgfcD/gfsD9gPsB9wPu/11wv8uV9EYj5t+gDPdv6rvi8q1W6HjaxP2ZFtZNfDiFOsP9b5Gdo2sX99dON+lxmFcZcL8Wcf+iQ9ZbG1eZRRnuXxU3s8eqfRp0qa813C8RGqjD/THznW/SujfC6aiI5QX3T76jGe73pWkd9xOPLlz5bIH0wg1V4WTxfmr78D+2OtYuqUMe9OFPGe+3mR638dSR0zri/ZKEOsXI4P37H3SwqD/urg54v4VfXMxDtjHSLSGP9wdsaVOV1mkq5byfl/TwvH2wMa5N3i85a4nnasV9+LP5AqGDP4chENCH8RmCIED+gPwB+QPyB+SveQLkXxGR//T+WkX+tdqk3rxxw5cC5H9+ntvnzH7/YvPobycM+noay0uutuDdmptYbNRO3visAoqQf+C72elXX23Ghzh0ulilxyK8van7421XDuKDe+7JzVpwgiLkf2ha8L2V6+5i2+qmt27X5Z70TX93ax/u5jBq3/BXDdl1ifxpCvPkIf+VnQd2mbbCGPcfsL+PRXMDvF5sPnaL9lSv3/A/bj/lUsu4NNKR/42EqKNr2P+QiPx90wY7+Y87QRryry149Yh7II9E5C/Z1+Qg/1rRDds+/nMtIH9A/oD8AfkD8gfkD8j/d0H+wg7XnKLsrlOG/F+LexTIQiJbbSL/v6PupUasq45XBOT/w6HxhcneDQH56zHyjz4Xb7uuzywK3/AH5P9bIH8GTevIn3iu3ZvlxxBIz11UjZcP5t9v0MUa7XdkAvOnjPlXu/sPr3u1Izpi/nRju9b5R7crPFwgn/m38zvePHPY7iTqmf/22bYJR+bQdMT8uy+fWut+ZCjlzP/UiaP1J+15rtV3/AdM2TqlWY9MzJxWwvyHs0OFjEAWfTCLwRxGA9wPuB9wv9ws4H7A/YgEuL8i4n5aD63i/uiJ7bA3G7kU4H7h9qNP51X6KD3c59/2iVsyryZFb/i/8Dzg1iQ8DC9qdCEm3kuImz05nbG2xlD8+qRKQ/2WMvHjvrPt1nU9QjLuz66dUTVqYC4WWIL3JZi/9riWXu8K32Me7Nlufy/IpwT3q3+n/nd+wz+QIWSVnPvqgK/MoqhGqOGv5QuD+CxRM8lh9lVT5/JLI87d5BpyUYg66UZsPaJsZfUmu95kaRCq9gf5GoTiNmlPg8BOmtvM+36LdA0i2npnjFHKJhI1iF0beo7u6byNNA1i2/jno+bVqEX6QAfZJGkQkmSpWLofS8iQ4zRqWZKSPMoiWs1+NfSo5R2F9xIUcgcx+MxQlkDgqBaOq8inLPK3He9uuvl5aBbZqYyRlT8/P1PQYkz0U80iu5cxsruyyAGZHVv2p6cqPHlUKIHDcyCuB9Q9eVSeS+VR9fqsogAhn1/6tNivdNsboulTZjcWkx0WIvnEFrUuxC0I0Rg6EI/0iIcszpqvj1xeZbXx8mA+LTM1PckKtQYRDpo8cVaaCXVRj9wDEQ5BxfuwlEecNJ/KyMl89L6PcOCUMbK6o84yQQ2TZ4QK2QyOqHUqLZOXZkS1o83QsUEnA50MmVFlbNDJOCo6Bf/FCwsIELCEan/MlOYq+6kNEhtIbCCx6YPERkdGDGeHMrnhpW09inOholKlzqX+mddqY/YjpIqkTXUuyNXH3Wg3deqcv1dEbNMixQvb8qnOGZlHWrCyvyMjgjqnOouyeOaJ603jC0dTps6FcaeF7GGNoVCdqzzaNXKxrwWF6lzNZS+ObzOrjdNREUlS59Dno3bVudvBvAnVF17VaW85HlweT/osFVXh3HIxOo51dHO/T8OpNufaXvKZT1tYS0ej40iSbsy57IFzBDntjlUwcy57c+fVLsmXddBbzsfmvtnzp5nqyJwzWnNyobf9dsrNOdsOzaP/Z6Jdcy50R/iyCe2yMEKb4fFZott5cYtK3LY0+qU8mQVQTS6h38gKeJLPCQ1HbOcNE93g0F35YaH+0BcPyHkg54Gcp7hjQM5DJJDzKqKcp+W+eI5cz7I83qInBXLeoloLW7u3f4F1+xa3tP7FVxjtCu95JRNDioffeWRj88nEbjoeYXEhdMmA9fickD2Pbhsew8/lPi049OMkRX3xDFkhwM73NMZZ9XZ5my40xq+ObJc1Y3EWtil40qUZa59DXzwUDr9zaORf+5c/f4IZ1981ayyrEu67f7m15ccvet0XzxGK+uLZ6zHqX6+oBSRKaM4eg4y+OyeQJqFN69CTv2dUht72xZP3z7hdE4bcg754QJ4AeYJseQJ9uIHGABoDaAz6oDFQJRQcuGuxp0XiHcr64vF23Rc9JPMtZcPveNbb7OU16JvOhAI0bNeuUHBuZEBWLVsD6ItHi0JB8+N3wv+0MaFMKPhRJEpYdLnuiyfvwoHx5/KMcToqYjnoiyfIJT1EmJ2iU6HAS8hnSC9fUBVOllBAbVc8H4ZOmpUwOxe64qFMKBgW7Gnd4uJZHQkF+JQO9oZ1tlEuFAxMOuJtF5OtA6FAt13x/MFtzWW1jqRcKOjl3WPlhgUm2h1+Z0fqDH6n7J9d8biFBQRwWEx637CJE4H2A+0H2g+0H2i/5glof0Wk/bTOWqX9nPjwrj2M/Sig/ZKpf69hHhFvjPDGwy3Z86yMKab9xesQjV81+1h1364d+HxGj0EjcoLwxi/p+2NPJVJE+yVTL5fMxAbMR5iE+n8eO+YZP/4lpbT/17UqnlYU2n+4hPZ3Zjz1nrvUAG+wQbhh38BKuD7T/i6ru9xgPnpQDkbeyZkxMuFu3k7SaH+jM4N4uVvv6y3tfxEXPcVnzmGg/UD7gfYD7QfaD7QfaH9Fpf0pQzY9SXv4L2W0/+Wsp5kXv3+sELQfRt7RPu2neuSdikD76aNizN5stsDpqIjloPuAUtF+H5rWaT/xfHsEgy/tERFV3+UD9vua1fgxp88bgP2Uwf6UtldsrNae0xHslyTUGQawH2C/sjL/i2Nzk9+9xAgMIob9vfiiu0wh3YPtHyy6/gDcD7gfcD/gfsD9mifA/RUS93fQ7sv91X/455t7U4j7p39uzCmkf8aWX99se2P4e0w3uL+oZvtt33bE4xOH5u4IKZyEY5svZcdaU437JSPwVHGbdP5h6lOsZ/+ns6rbvgDcTyHuP2aQf/DPOR+wC5emx921y8IkT2j0Gfcv+tDrWkjd+6TjfvdmtmZmJw+QiPuPn3j698XkGNJw/6lu11tczfug57g/DXA/4H7A/YD7AfcD7gfcD7gfcD/gfnQe1MUG4H7A/YD7AffLxwTcD7gfcD/g/jYh6nH/dosqazcyczAC/hbjfq5AwADaD7QfaD/QfqD9QPuB9mtE+2tplfY3tBy9ptXbLhTS/lnpx7ObDamJf8/aYlnVnqajl/tt/lsYEfaJgY+553lgVvBOnG+1++PSvckU0/5D2R+nDmr0FEsr6cp/7pZth3oMfQy0n0LaH7L1WsySP+9gZ69ubfCtQQ6Wl1azVd027/S6K3/bNXPoft63Saf9Z7acvVat3y4SaX9b67Yu13oeJI32s0/ttDA9pL+0f+u/Gx1yFlwG2g+0H2g/0H6g/UD7gfYD7QfaD7QfnQd1sQG0H2g/0H6g/fIxgfYD7QfaD7S/TYh62t/51o1Je3oX/KT9rny2gBdJd+WHhfoHAe0H2g+0H2g/0H7NE9D+Ckn7e2mV9gePvZ5+InAUhbT/AW9s2ID0yviXwm6fwje81dG7/ascvYfeddyC0/c9eX/xz0DcXidd+Uu68JdMgw9v2ML1hnf7qaT9kjg93Pus+3vLB2lcfab9MbyXV1+vvEw67b+Yzi6qE7KZRNq/ZH9qo5VLVpBG+y/Sfer2HvROb2n/xIcpd1f2OQa0H2g/0H6g/UD7gfYD7f9daL/LlfRGI+bfoIz2b+q74vKtVuh42qT9mRbWTXw4hTqj/Wi6qF3aXzvdpMdhXmWg/XpM+1fFzeyxat8XNJPWc9ofM9/5Jq17I5yOikgS7Ucfq9ql/eI0+Y5mtN+XpnXaTzy6ECMsyQeoCi8fuP/Y6li7pA55gPspw/020+M2njpyuoLh/v0POljUH3dXB7jfwi8u5iHbWEe4P2BLm6q0TlMpx/28pIfn7YONtYr7N/K+1ThVOR8zp5Xgfi9uAPTkD7QfaD8NaD/QfqD9QPs1ov2uWqX9e5kGrmPCelJA+2eUvNMv6cmfdoX3vJKJIR4btZM3PquAItr/r39WSDRnPP5xZOzMhrtH4avS3+X59t+Kh2zLXbru7jGKaL+kB/9lfy9OWrHyDeazftdX8/1GeErem7AlfV9RSvulDZDCvG5pP01hnnza3+rs9aVxi7Iwl6uJx4Q1DPW6J/8amT2bL6DfJJ32HxzSZ8uCu0dIpP3MVP7rYSlHSaP934vESW9pP26w/Jl7xnWg/UD7gfYD7QfaD7QfaP/vQvuf5x19vPv9R8pof2FXF/tmducoo/0TrsU6REZ/rRDv9n+/cDrtQq450H4t0n4JC6eK9k9uV084dsYgCt/t736CHpxrhj5qtEv7i+9nrHE6KmJ5of0zb+v03X6CYEnmUfVNFux/i1EJ+3ffz/FlpORTDPudSs4g3cD+x93tzCYk3ddUNdAy7H/raOjW90qyjmB/qvftk/Fd9iahzjAyYH9yWkZBRpt4HcB+64MZO/be2YPc2+TB/owxYZ7vO3tQDvt3xHhkfbLag2kT9q8qWhbcc9FrjKB6YtjvyWXwRRce9F7cCOImAlg/sH5g/TKzwPqB9SMSsP4Kyfp7a5X1t07f+mTEAA8KWL915CS2Q1YhZlMytRj1okXY8G9UvtmPY3j1mDWzwpL88XpVhv9xJ3Qevm5v1gu3sP34wI8psffOHqWI9c/1Mf703xID3LPFTscbbnex2SXz78e0z51lSu2b/arfpf+d3+wPZAhZJee+OtorsyiqEWr4a/nCID5L1ExymH3V1Ln80qqjOCXXkItC1Ek3YusRZSurN9nmjSwHglvneNH+IEN8eVH2MfdZBdj9pRg9NSdNr3s8GMzLmBtZJ5V0ByK6MN31ZmACiQ7Elf7xdY68XEKaA1GcCvXWgZAkS8XS/VhChhykUQuSlORRFtFq9quhRy3vKDyiUMgdxOAzQ1kCgaNaMq4in7LI33a8u+nm56FZZKcyRlb6MCr6TEGLMdFPNYvsXsbI7soiB2R2bNmfnqrw4FGhBA7PgbgeUPfgUXkulUfV67OK9oN8fumjYr/SbW+IJo+YidspNxaTHSbtQNYWtS7ELQjRGDoQT/SGiZZ01nx95PIqq42XB/NpmanpSVaoNYhw0OSBs9JMqFYDuQciHIKK92EpjzhpPpWRk/nofR/hwCljZHVHnWWCGrMJfK5ShAafSzY2+Fzgc4HPBT4X+FwqaRmM1YKIV158LhirRfs+F4zVon2fC8Zqoc7ngrFaoPMWGKsFxmrRjs9VnsZqkZy1hM3B47MELKG4QSV2VqNfypNZANXiEmXJaGGSj6XDwXiJbzZKhoMBaQykMZDGQBoDaUzzBNIYSGOs/6805mjrtX7Ep94USGNDrq6byC2qjBsZ73QMjM/HPhzCE4tyn1AsjdVt0OTx8dd+eNWohfd8E9fgQT7bLo9tfBC/nPjHs26rD1Ikja2z7ZS2K+MJNrNEFhtlb9DQeOA3LOvphX79VmWDNAbSmNwyqOYNpLFfI+haGjvLmLhmbqVdJEpjPil9B7vNm0OaNLbuyIG+4fVoOEhjmkpjk6vY/ZEZpaFApVVpbMC8UxzH5Oc6kMZ+TKf7bM+ZqgNprEPzZy72NbIplsbWDkgY7P/qtI6lsf6iimFJNS7dSWNfbq14Z3HucQWRxkKnRkQfGThWB9JYfxeX+QY79oE0pqQMkMZAGkNnRLWmII2BNAbSGEhjII2BNEYDaQykMZDGQBr7+QfSGCI7SGMgjYE0BtIYFdIYwQjE0phHWEBAJL0vAdqIR8OgjYE2BtoYaGOgjWmeQBuriNrY9D5a1cbWmY8/NWVIewq0sUk2S21Y401wy5I+xiR9jlGrjYW87bVl1DomXnPY7lWjDy7DF5T0NUatNlZ9xexCC7cH2FSTtmtSY59gx7d+Ca52koaDNlZetbFP5g/68awwPdLGqpx6tC/YPQ9LeNp38bU7+Ri/wZuzTgsr6fV4a+VHG2v6+dGpdjt2kqaNvY1LT+36MB/6GgNtDLQxaVTQxmRrA7Qx0MZAGwNtTH0+1VsN2pg4gTamqgjQxkAbU5UHFRG0sVLFA22MBtoYaGOgjYE29vMPtDFEdtDGQBsDbQy0MUVtjHjKWGZtjFg/BTVM8pU5rUQdc2MzxfeVdA8GE7wx8MbAGwNvDLwxzRN4YxXSG3PTqjc2NurUsx5jB1LY3ZjEGzvwYh7/xv03FHtjmG1mJ9OhY3GfGSYPkrosxg/fYLZ3fbKXYm/M2Qh7G9z+A5Zq0iGpJScDqxF64lrkA0P82fnviwZ/hDEqy583tuG8sP4t7x565I1Vv3gwsfrgTCzTo46Xk9dnrE4XuwfTHhTpdXdjzhZ1J9hVukm6N2ZeuP/V3PNxJHpjw8yb+xY8X0GaN5YdUGDXZvU78MY09sYkqSKNUfkyiNE2wv2ZDrwxyTbTUZG17o0VdnL6wndI1LE35sUNEP4O3ticUXv2rvxxt4J4Y+6m7Z2DFznrwBsznV/QKv/OGvDGlJQB3hh4Y+iMqNYUvDHwxsAbA28MvDHwxmjgjYE3Bt4YeGM//8AbQ2QHbwy8MfDGwBtT9MaI+4cye2OEFSLrhUk+J0wRsTQ2jB0aSXRE5kkDYQyEMRDG5GZBGANhDJFAGKuQwph2Oxprnb71yYgBHiQKYzu7FVmOs8qSjke5u2S+h1uD+FFnX1IkjAVGev7R9Woo3rAn3qhjwzF4w+Dw5O/JM3CDxQb3o9wP4Ilj/jfiGeMAycJYlZIOxrq84E/L8TLEWfV2eZsuNJZOqRTGVKlZIIxJM1Xo8Skbdr76usPhTIy+dvLITrWq4s7pvs7dxn/Ua2GMqo7GogvTXW8GJpAojKU8cMptcDSRNGFsXiXPN4kfasL4lCCMgTAmjQrCmGxtgDAGwhgIYyCMqc+neqt/O2GMjlwdbkCAgCVU+4OiNBfqYEMf5KCpgaYGmhpoaj/jgaYGmpq6iKCpgaYGmho6j7KIoKkRCTQ10NRAUwNNTU80NTJGxSSUFLGl5hrECie+6xcWAqIaiGogqoGoBqKa5glEtYooqtEGa1VUG31iv4flip4kimqSHswMjHc6BsbnSwU1i7GJp1vsK6BIVOs0u9Ozzs+D8LN7m9dseGg4zhiXV2+EwwLpiJhbH8w7dWL3PpJFtU57rNcyHnzBqrpNOv8w9SnmUrtriOvyHxhn5LzWd69VxncOnzuxd19qRsQEUU2+EQJR7Wf5xA/4uKs5rGfxL7E1gZEfecFGuPXYcNfJjd6BqKaBqFY75HTWcqfVJIpqtaOub7r/egFpolrKkuObmuGF0LMZjIgJI2JKo8KImLK1ASNiUiOqwYiYqssAUQ1ENXRGVGsKohoyLohqIKqBqAaiGohqIKqBqAaiGohqIKqBqAaiWimig6gm/gNRLYRcUY1oi8osqhE2hqTLNMlnhLYkPwCnF5fDBU8NPDXw1MBTA09N8wSeWoX01Prp6Qick2yW2rDGm0hH4LSJnMR2yCqkeATOBus/5/RkMPCq/y2MCPs0Hu+1d9OCpa3j8SNje+1hP95F0Qic/9YWpmV9oOEz1wVX9315F2OETrnLLzTCK3v68UbmUOOp/Vwb5VPw1LTpqX0yf9CPZ4XpkafWo2huv3a8h9jUD8OqdtxuiC9+buO3LAo8NU08tZfdg/n4pSUkemrjHY3e+7RNIs1Tu7Zuzp3zcV/BUwNPDTw1aVTw1GRrAzw18NTAUwNPTX0+1VsNnpo4oQ9y8NTAUwNPDTy1n/HAUwNPTV1E8NTAUwNPDZ1HWUTw1IgEnhp4auCpgaemJ54a8WyzzJ4asX4eYQEBkfS+BMIjHjpLvvo/W4vzMA=="/>
            <key>
              <attribute name="file" value="Effects\Voxengo Boogex Amp Simulator\Voxengo Boogex Amp Simulator.dll"/>
            </key>
          </effect>
          <effect name="vsteffect" autoquit_numerator="4" on="1" autoquit_syncmode="0" autoquit_denominator="4" gate="0" autoquit="1" wet="1">
            <vsteffectcontrols param6="6:Mix:0.22" param3="3:Hi Damp:0.19" param4="4:Lo Cut:0.3" guivisible="0" param2="2:Predelay:0.5" param0="0:Size:0.84" param1="1:Damping:0.18" program="0" param5="5:Early Ref.:0" param7="7:Level:0.5" plugin="Effects\Classic Reverb\Classic Reverb.dll" numparams="8"/>
            <key>
              <attribute name="file" value="Effects\Classic Reverb\Classic Reverb.dll"/>
            </key>
          </effect>
        </fxchain>
        <send amount="1" channel="0"/>
      </mixerchannel>
      <mixerchannel name="Bass" volume="1.4" num="3" soloed="0" muted="0">
        <fxchain numofeffects="2" enabled="1">
          <effect name="dualfilter" autoquit_numerator="4" on="1" autoquit_syncmode="0" autoquit_denominator="4" gate="0" autoquit="1" wet="1">
            <DualFilterControls filter2="5" filter1="10" enabled2="1" res1="2.0999999" res2="0.5" enabled1="1" gain1="159.2" mix="-0.34999999" cut2="7000" gain2="144" cut1="3880"/>
            <key/>
          </effect>
          <effect name="vsteffect" autoquit_numerator="4" on="1" autoquit_syncmode="0" autoquit_denominator="4" gate="0" autoquit="1" wet="1">
            <vsteffectcontrols guivisible="0" program="0" plugin="Effects\XBass 4000L Bass Enhancer\XBass 4000L Bass Enhancer.dll" chunk="zcysPpqZCT/NzDw/zcwsP5qZ2T6amZk+QWNvdXN0aWMgYmFzcwB0aW9uAAEgS8QBAErEAVBLxAEzM5M+mpkJP83MPD9mZoY+AABQP83MDD5BY291c3RpYyBiYXNzIDIAb24AASBLxAEASsQBUEvEAc3MrD5mZiY/zcw8P2Zmpj6amZk+ZmYmPkFjb3VzdGljIGJhc3MgMwBvbgABIEvEAQBKxAFQS8QBAACAPs3MLD8zMyM/mpmZPZqZGT0zM3M+QWNvdXN0aWMgYmFzcyA0AG9uAAEgS8QBAErEAVBLxAEAAIA+MzNDPwAAMD8AAIA/AACAPwAAgD1BY291c3RpYyBiYXNzIDUAb24AASBLxAEASsQBUEvEATMzAz8AAIA/AAAwPwAAgD8AAIA/zcwMPkFjb3VzdGljIGJhc3MgNgBvbgABIEvEAQBKxAFQS8QBAAAgP83MzD7NzEw/MzNjP5qZ+T4AAOA+QWNvdXN0aWMgYmFzcyA3AG9uAAEgS8QBAErEAVBLxAGamVk+mpkpP83MTD8AAAA+ZmYmPgAAgD1BY291c3RpYyBiYXNzIDgAb24AASBLxAEASsQBUEvEAQAAgD4AACA/zcxMP83MDD5mZiY+mpmZPktpY2sgZHJ1bQBhc3MgOABvbgABIEvEAQBKxAFQS8QBAACAPjMzEz/NzEw/AAAAPpqZGT6amVk+S2ljayBkcnVtIDIAcyA4AG9uAAEgS8QBAErEAVBLxAHNzIw+mpkpP83MTD8AAMA+MzNzPgAAAD5LaWNrIGRydW0gMwBzIDgAb24AASBLxAEASsQBUEvEAc3MrD5mZjY/zcxMP2ZmVj9mZsY+mpkZPUtpY2sgZHJ1bSA0AHMgOABvbgABIEvEAQBKxAFQS8QBZmaGPs3MDD/NzEw/mpkZPmZmZj4AAAA+S2ljayBkcnVtIDUAcyA4AG9uAAEgS8QBAErEAVBLxAE="/>
            <key>
              <attribute name="file" value="Effects\XBass 4000L Bass Enhancer\XBass 4000L Bass Enhancer.dll"/>
            </key>
          </effect>
        </fxchain>
        <send amount="1" channel="0"/>
      </mixerchannel>
      <mixerchannel name="Chords" volume="1.302" num="4" soloed="0" muted="0">
        <fxchain numofeffects="1" enabled="1">
          <effect name="vsteffect" autoquit_numerator="4" on="1" autoquit_syncmode="0" autoquit_denominator="4" gate="0" autoquit="1" wet="1">
            <vsteffectcontrols param6="6:Mix:0.21" param3="3:Hi Damp:0.39" param4="4:Lo Cut:0" guivisible="0" param2="2:Predelay:0.5" param0="0:Size:0.87" param1="1:Damping:0.28" program="0" param5="5:Early Ref.:0" param7="7:Level:0.5" plugin="Effects\Classic Reverb\Classic Reverb.dll" numparams="8"/>
            <key>
              <attribute name="file" value="Effects\Classic Reverb\Classic Reverb.dll"/>
            </key>
          </effect>
        </fxchain>
        <send amount="1" channel="0"/>
      </mixerchannel>
      <mixerchannel name="Piano" volume="0.75" num="5" soloed="0" muted="0">
        <fxchain numofeffects="1" enabled="1">
          <effect name="vsteffect" autoquit_numerator="4" on="1" autoquit_syncmode="0" autoquit_denominator="4" gate="0" autoquit="1" wet="1">
            <vsteffectcontrols param4="4:T.S.N.:0" param9="9:Quality:0.7" param8="8:Ping-Pong:1" param10="10:Low Cut:0" param13="13:Level:0.5" param3="3:Sync:1" param5="5:T.S.D.:0.35" param12="12:Mix:0.1" guivisible="0" numparams="14" param2="2:Type:0.5" plugin="Effects\Classic Delay\Classic Delay.dll" param11="11:Hi Cut:0.9" program="0" param1="1:Mono:0" param7="7:Feedback:0.15" param0="0:Pan:0.5" param6="6:Time:0.5"/>
            <key>
              <attribute name="file" value="Effects\Classic Delay\Classic Delay.dll"/>
            </key>
          </effect>
        </fxchain>
        <send amount="1" channel="0"/>
      </mixerchannel>
    </mixer>
    <ControllerRackView visible="0" height="200" minimized="0" x="550" maximized="0" y="487" width="350"/>
    <pianoroll visible="0" height="599" minimized="0" x="29" maximized="0" y="430" stopbehaviour="0" width="970"/>
    <automationeditor visible="0" height="400" minimized="0" x="1" maximized="0" y="1" width="860"/>
    <projectnotes visible="1" height="400" minimized="0" x="219" maximized="0" y="129" width="699"><![CDATA[<!DOCTYPE HTML PUBLIC "-//W3C//DTD HTML 4.0//EN" "http://www.w3.org/TR/REC-html40/strict.dtd">
<html><head><meta name="qrichtext" content="1" /><style type="text/css">
p, li { white-space: pre-wrap; }
</style></head><body style=" font-family:'MS Shell Dlg 2'; font-size:8.25pt; font-weight:400; font-style:normal;">
<p style=" margin-top:0px; margin-bottom:0px; margin-left:0px; margin-right:0px; -qt-block-indent:0; text-indent:0px;">and i don't</p>
<p style=" margin-top:0px; margin-bottom:0px; margin-left:0px; margin-right:0px; -qt-block-indent:0; text-indent:0px;">want to see the sadness seeping,</p>
<p style=" margin-top:0px; margin-bottom:0px; margin-left:0px; margin-right:0px; -qt-block-indent:0; text-indent:0px;">want to feel the darkness creeping,</p>
<p style=" margin-top:0px; margin-bottom:0px; margin-left:0px; margin-right:0px; -qt-block-indent:0; text-indent:0px;">through the cracks in my facade.</p>
<p style="-qt-paragraph-type:empty; margin-top:0px; margin-bottom:0px; margin-left:0px; margin-right:0px; -qt-block-indent:0; text-indent:0px;"><br /></p>
<p style=" margin-top:0px; margin-bottom:0px; margin-left:0px; margin-right:0px; -qt-block-indent:0; text-indent:0px;">don't</p>
<p style=" margin-top:0px; margin-bottom:0px; margin-left:0px; margin-right:0px; -qt-block-indent:0; text-indent:0px;">want to feel like i'm the greatest,</p>
<p style=" margin-top:0px; margin-bottom:0px; margin-left:0px; margin-right:0px; -qt-block-indent:0; text-indent:0px;">while i feel i'm just a statist,</p>
<p style=" margin-top:0px; margin-bottom:0px; margin-left:0px; margin-right:0px; -qt-block-indent:0; text-indent:0px;">play ing my part?</p>
<p style="-qt-paragraph-type:empty; margin-top:0px; margin-bottom:0px; margin-left:0px; margin-right:0px; -qt-block-indent:0; text-indent:0px;"><br /></p>
<p style=" margin-top:0px; margin-bottom:0px; margin-left:0px; margin-right:0px; -qt-block-indent:0; text-indent:0px;">still don't</p>
<p style=" margin-top:0px; margin-bottom:0px; margin-left:0px; margin-right:0px; -qt-block-indent:0; text-indent:0px;">want to feel forgotten, lonely</p>
<p style=" margin-top:0px; margin-bottom:0px; margin-left:0px; margin-right:0px; -qt-block-indent:0; text-indent:0px;">want to be a burden only,</p>
<p style=" margin-top:0px; margin-bottom:0px; margin-left:0px; margin-right:0px; -qt-block-indent:0; text-indent:0px;">no gain, just pain, and no reward.</p>
<p style="-qt-paragraph-type:empty; margin-top:0px; margin-bottom:0px; margin-left:0px; margin-right:0px; -qt-block-indent:0; text-indent:0px;"><br /></p>
<p style=" margin-top:0px; margin-bottom:0px; margin-left:0px; margin-right:0px; -qt-block-indent:0; text-indent:0px;">though</p>
<p style=" margin-top:0px; margin-bottom:0px; margin-left:0px; margin-right:0px; -qt-block-indent:0; text-indent:0px;">everyone seems, at the latest, to</p>
<p style=" margin-top:0px; margin-bottom:0px; margin-left:0px; margin-right:0px; -qt-block-indent:0; text-indent:0px;">live a lie, you sure can attest,</p>
<p style=" margin-top:0px; margin-bottom:0px; margin-left:0px; margin-right:0px; -qt-block-indent:0; text-indent:0px;">woe be us, forever flawed.</p>
<p style="-qt-paragraph-type:empty; margin-top:0px; margin-bottom:0px; margin-left:0px; margin-right:0px; -qt-block-indent:0; text-indent:0px; color:#e0e0e0;"><br /></p>
<p style="-qt-paragraph-type:empty; margin-top:0px; margin-bottom:0px; margin-left:0px; margin-right:0px; -qt-block-indent:0; text-indent:0px; color:#e0e0e0;"><br /></p>
<p style=" margin-top:0px; margin-bottom:0px; margin-left:0px; margin-right:0px; -qt-block-indent:0; text-indent:0px;"><span style=" color:#e0e0e0;">darkness falls</span></p>
<p style=" margin-top:0px; margin-bottom:0px; margin-left:0px; margin-right:0px; -qt-block-indent:0; text-indent:0px;"><span style=" color:#e0e0e0;">forevermore (up-)</span></p>
<p style=" margin-top:0px; margin-bottom:0px; margin-left:0px; margin-right:0px; -qt-block-indent:0; text-indent:0px;"><span style=" color:#e0e0e0;">-on the dreams</span></p>
<p style=" margin-top:0px; margin-bottom:0px; margin-left:0px; margin-right:0px; -qt-block-indent:0; text-indent:0px;"><span style=" color:#e0e0e0;">that came before</span></p></body></html>]]></projectnotes>
    <timeline lp0pos="0" lpstate="1" lp1pos="6912" stopbehaviour="1"/>
    <controllers/>
    <scales>
      <scale description="empty">
        <interval den="1" num="1"/>
      </scale>
      <scale description="empty">
        <interval den="1" num="1"/>
      </scale>
      <scale description="empty">
        <interval den="1" num="1"/>
      </scale>
      <scale description="empty">
        <interval den="1" num="1"/>
      </scale>
      <scale description="empty">
        <interval den="1" num="1"/>
      </scale>
      <scale description="empty">
        <interval den="1" num="1"/>
      </scale>
      <scale description="empty">
        <interval den="1" num="1"/>
      </scale>
      <scale description="empty">
        <interval den="1" num="1"/>
      </scale>
      <scale description="empty">
        <interval den="1" num="1"/>
      </scale>
      <scale description="empty">
        <interval den="1" num="1"/>
      </scale>
    </scales>
    <keymaps>
      <keymap first_key="0" middle_key="60" description="empty" base_freq="440" base_key="69" last_key="127"/>
      <keymap first_key="0" middle_key="60" description="empty" base_freq="440" base_key="69" last_key="127"/>
      <keymap first_key="0" middle_key="60" description="empty" base_freq="440" base_key="69" last_key="127"/>
      <keymap first_key="0" middle_key="60" description="empty" base_freq="440" base_key="69" last_key="127"/>
      <keymap first_key="0" middle_key="60" description="empty" base_freq="440" base_key="69" last_key="127"/>
      <keymap first_key="0" middle_key="60" description="empty" base_freq="440" base_key="69" last_key="127"/>
      <keymap first_key="0" middle_key="60" description="empty" base_freq="440" base_key="69" last_key="127"/>
      <keymap first_key="0" middle_key="60" description="empty" base_freq="440" base_key="69" last_key="127"/>
      <keymap first_key="0" middle_key="60" description="empty" base_freq="440" base_key="69" last_key="127"/>
      <keymap first_key="0" middle_key="60" description="empty" base_freq="440" base_key="69" last_key="127"/>
    </keymaps>
  </song>
</lmms-project>
