<?xml version="1.0"?>
<!DOCTYPE lmms-project>
<lmms-project version="23" creatorversion="1.3.0-alpha.1.231+g49b1f83e4" type="song" creator="LMMS">
  <head timesig_numerator="4" mastervol="100" masterpitch="0" bpm="128" timesig_denominator="4"/>
  <song>
    <trackcontainer height="582" type="song" visible="1" minimized="0" x="3" width="1047" maximized="0" y="1">
      <track name="Annotations" mutedBeforeSolo="0" type="1" muted="0" solo="0">
        <patterntrack>
          <trackcontainer height="300" type="patternstore" visible="0" minimized="0" x="523" width="700" maximized="0" y="212"/>
        </patterntrack>
        <patternclip name="A Bed to Rest" len="1920" muted="0" pos="6720"/>
        <patternclip name="A Call to Action" len="1728" muted="0" pos="960"/>
        <patternclip name="Mission Control is Off Its Screws" len="960" muted="0" pos="0"/>
        <patternclip name="Mission: Explodable" len="1920" muted="0" pos="3072"/>
        <patternclip name="Twined in Fate" len="1728" muted="0" pos="4992"/>
        <patternclip name="Interlude" len="384" muted="0" pos="2688"/>
      </track>
      <track name="Fade>Volume" mutedBeforeSolo="0" type="5" muted="0" solo="0">
        <automationtrack/>
        <automationclip name="Fade>Volume" mute="0" len="192" tens="1" prog="0" pos="0">
          <time outValue="1" value="1" pos="0"/>
          <object id="15691"/>
        </automationclip>
        <automationclip name="Fade>Volume" mute="0" len="576" tens="1" prog="1" pos="8064">
          <time outValue="1" value="1" pos="0"/>
          <time outValue="1" value="1" pos="96"/>
          <time outValue="0" value="0" pos="576"/>
          <object id="15691"/>
        </automationclip>
      </track>
      <track name="Oboe" mutedBeforeSolo="0" type="0" muted="0" solo="0">
        <instrumenttrack scale="0" pan="0" enabled="0" keymap="0" enablecc="0" range_import="1" usemasterpitch="1" basenote="69" lastkey="127" pitch="0" firstkey="0" pitchrange="12" mixch="2">
          <vol id="1205" value="60" scale_type="linear"/>
          <midicontrollers cc59="0" cc89="0" cc29="0" cc88="0" cc90="0" cc57="0" cc44="0" cc67="0" cc97="0" cc119="0" cc62="0" cc73="0" cc99="0" cc27="0" cc15="0" cc102="0" cc126="0" cc23="0" cc32="0" cc103="0" cc114="0" cc116="0" cc0="0" cc37="0" cc26="0" cc4="0" cc101="0" cc78="0" cc100="0" cc66="0" cc55="0" cc16="0" cc71="0" cc61="0" cc6="0" cc7="0" cc113="0" cc76="0" cc93="0" cc38="0" cc28="0" cc91="0" cc5="0" cc86="0" cc18="0" cc24="0" cc75="0" cc115="0" cc117="0" cc79="0" cc85="0" cc60="0" cc48="0" cc74="0" cc120="0" cc122="0" cc36="0" cc104="0" cc8="0" cc49="0" cc118="0" cc40="0" cc50="0" cc96="0" cc77="0" cc3="0" cc83="0" cc41="0" cc124="0" cc1="0" cc112="0" cc56="0" cc125="0" cc94="0" cc108="0" cc46="0" cc69="0" cc42="0" cc68="0" cc2="0" cc12="0" cc107="0" cc17="0" cc54="0" cc64="0" cc31="0" cc30="0" cc43="0" cc20="0" cc72="0" cc51="0" cc35="0" cc58="0" cc19="0" cc123="0" cc9="0" cc106="0" cc82="0" cc65="0" cc110="0" cc47="0" cc87="0" cc84="0" cc53="0" cc22="0" cc34="0" cc63="0" cc39="0" cc13="0" cc33="0" cc92="0" cc81="0" cc105="0" cc95="0" cc121="0" cc111="0" cc11="0" cc52="0" cc14="0" cc45="0" cc21="0" cc109="0" cc10="0" cc25="0" cc98="0" cc70="0" cc80="0" cc127="0"/>
          <instrument name="sf2player">
            <sf2player reverbRoomSize="0.2" chorusDepth="8" patch="68" chorusSpeed="0.3" reverbOn="0" src="usersoundfont:Touhou.sf2" reverbDamping="0" chorusLevel="2" bank="0" reverbLevel="0.9" chorusNum="3" reverbWidth="0.5" chorusOn="0" gain="1.44">
              <key/>
            </sf2player>
          </instrument>
          <eldata fwet="0" fcut="14000" fres="0.5" ftype="0">
            <elvol lspd_denominator="4" dec="0.5" latt="0" sustain="0.5" lspd_syncmode="0" ctlenvamt="0" att="0" lshp="0" x100="0" lamt="0" lspd_numerator="4" hold="0.5" rel="0.1" pdel="0" lspd="0.1" amt="0" lpdel="0" userwavefile=""/>
            <elcut lspd_denominator="4" dec="0.5" latt="0" sustain="0.5" lspd_syncmode="0" ctlenvamt="0" att="0" lshp="0" x100="0" lamt="0" lspd_numerator="4" hold="0.5" rel="0.1" pdel="0" lspd="0.1" amt="0" lpdel="0" userwavefile=""/>
            <elres lspd_denominator="4" dec="0.5" latt="0" sustain="0.5" lspd_syncmode="0" ctlenvamt="0" att="0" lshp="0" x100="0" lamt="0" lspd_numerator="4" hold="0.5" rel="0.1" pdel="0" lspd="0.1" amt="0" lpdel="0" userwavefile=""/>
          </eldata>
          <chordcreator chord-enabled="0" chordrange="1" chord="0"/>
          <arpeggiator arp="0" arptime_syncmode="0" arpcycle="0" arprepeats="1" arptime="200" arptime_denominator="4" arpmode="0" arptime_numerator="4" arp-enabled="0" arprange="1" arpgate="100" arpskip="0" arpmiss="0" arpdir="0"/>
          <midiport inputcontroller="0" fixedoutputnote="-1" outputprogram="1" outputchannel="1" readable="1" fixedoutputvelocity="-1" inputchannel="0" writable="0" outputcontroller="0" fixedinputvelocity="-1" basevelocity="63" inports=""/>
          <fxchain enabled="0" numofeffects="0"/>
        </instrumenttrack>
        <midiclip name="" steps="16" type="1" muted="0" pos="960">
          <note pan="0" len="12" vol="100" pos="144" key="80"/>
          <note pan="0" len="144" vol="100" pos="168" key="80"/>
          <note pan="0" len="24" vol="100" pos="336" key="80"/>
          <note pan="0" len="48" vol="100" pos="360" key="78"/>
          <note pan="0" len="48" vol="100" pos="408" key="75"/>
          <note pan="0" len="48" vol="100" pos="456" key="73"/>
          <note pan="0" len="48" vol="100" pos="504" key="71"/>
          <note pan="0" len="48" vol="100" pos="576" key="73"/>
          <note pan="0" len="24" vol="100" pos="624" key="71"/>
          <note pan="0" len="48" vol="100" pos="648" key="73"/>
          <note pan="0" len="48" vol="100" pos="696" key="78"/>
          <note pan="0" len="132" vol="100" pos="744" key="75"/>
          <note pan="0" len="12" vol="100" pos="912" key="80"/>
          <note pan="0" len="144" vol="100" pos="936" key="80"/>
          <note pan="0" len="24" vol="100" pos="1104" key="80"/>
          <note pan="0" len="48" vol="100" pos="1128" key="78"/>
          <note pan="0" len="48" vol="100" pos="1176" key="75"/>
          <note pan="0" len="48" vol="100" pos="1224" key="73"/>
          <note pan="0" len="48" vol="100" pos="1272" key="71"/>
          <note pan="0" len="48" vol="100" pos="1344" key="76"/>
          <note pan="0" len="24" vol="100" pos="1392" key="71"/>
          <note pan="0" len="48" vol="100" pos="1416" key="68"/>
          <note pan="0" len="48" vol="100" pos="1464" key="76"/>
          <note pan="0" len="72" vol="100" pos="1512" key="75"/>
          <note pan="0" len="48" vol="100" pos="1584" key="73"/>
          <note pan="0" len="48" vol="100" pos="1632" key="71"/>
          <note pan="0" len="48" vol="100" pos="1680" key="70"/>
        </midiclip>
        <midiclip name="" steps="16" type="1" muted="0" pos="2688">
          <note pan="0" len="192" vol="100" pos="0" key="68"/>
        </midiclip>
        <midiclip name="" steps="16" type="1" muted="0" pos="6720">
          <note pan="0" len="96" vol="100" pos="0" key="78"/>
          <note pan="0" len="48" vol="100" pos="96" key="76"/>
          <note pan="0" len="96" vol="100" pos="144" key="75"/>
          <note pan="0" len="96" vol="100" pos="240" key="71"/>
          <note pan="0" len="96" vol="100" pos="384" key="73"/>
          <note pan="0" len="48" vol="100" pos="480" key="71"/>
          <note pan="0" len="96" vol="100" pos="528" key="69"/>
          <note pan="0" len="96" vol="100" pos="624" key="66"/>
          <note pan="0" len="96" vol="100" pos="768" key="69"/>
          <note pan="0" len="48" vol="100" pos="864" key="73"/>
          <note pan="0" len="96" vol="100" pos="912" key="73"/>
          <note pan="0" len="48" vol="100" pos="1008" key="71"/>
          <note pan="0" len="48" vol="100" pos="1056" key="71"/>
          <note pan="0" len="96" vol="100" pos="1152" key="71"/>
          <note pan="0" len="48" vol="100" pos="1248" key="71"/>
          <note pan="0" len="96" vol="100" pos="1296" key="70"/>
          <note pan="0" len="528" vol="100" pos="1392" key="66"/>
        </midiclip>
      </track>
      <track name="Oboe>Volume" mutedBeforeSolo="0" type="5" muted="0" solo="0">
        <automationtrack/>
        <automationclip name="Oboe>Volume" mute="0" len="192" tens="1" prog="0" pos="960">
          <time outValue="100" value="100" pos="0"/>
          <object id="1205"/>
        </automationclip>
        <automationclip name="Oboe>Volume" mute="0" len="192" tens="1" prog="0" pos="6720">
          <time outValue="100" value="100" pos="0"/>
          <object id="1205"/>
        </automationclip>
        <automationclip name="Oboe>Volume" mute="0" len="192" tens="1" prog="1" pos="2688">
          <time outValue="100" value="100" pos="0"/>
          <time outValue="60" value="60" pos="192"/>
          <object id="1205"/>
        </automationclip>
      </track>
      <track name="Sax>HQ" mutedBeforeSolo="0" type="0" muted="0" solo="0">
        <instrumenttrack scale="0" pan="0" enabled="0" keymap="0" enablecc="0" range_import="1" usemasterpitch="1" basenote="69" lastkey="127" pitch="0" firstkey="0" pitchrange="12" mixch="3">
          <vol id="4840" value="0" scale_type="linear"/>
          <midicontrollers cc59="0" cc89="0" cc29="0" cc88="0" cc90="0" cc57="0" cc44="0" cc67="0" cc97="0" cc119="0" cc62="0" cc73="0" cc99="0" cc27="0" cc15="0" cc102="0" cc126="0" cc23="0" cc32="0" cc103="0" cc114="0" cc116="0" cc0="0" cc37="0" cc26="0" cc4="0" cc101="0" cc78="0" cc100="0" cc66="0" cc55="0" cc16="0" cc71="0" cc61="0" cc6="0" cc7="0" cc113="0" cc76="0" cc93="0" cc38="0" cc28="0" cc91="0" cc5="0" cc86="0" cc18="0" cc24="0" cc75="0" cc115="0" cc117="0" cc79="0" cc85="0" cc60="0" cc48="0" cc74="0" cc120="0" cc122="0" cc36="0" cc104="0" cc8="0" cc49="0" cc118="0" cc40="0" cc50="0" cc96="0" cc77="0" cc3="0" cc83="0" cc41="0" cc124="0" cc1="0" cc112="0" cc56="0" cc125="0" cc94="0" cc108="0" cc46="0" cc69="0" cc42="0" cc68="0" cc2="0" cc12="0" cc107="0" cc17="0" cc54="0" cc64="0" cc31="0" cc30="0" cc43="0" cc20="0" cc72="0" cc51="0" cc35="0" cc58="0" cc19="0" cc123="0" cc9="0" cc106="0" cc82="0" cc65="0" cc110="0" cc47="0" cc87="0" cc84="0" cc53="0" cc22="0" cc34="0" cc63="0" cc39="0" cc13="0" cc33="0" cc92="0" cc81="0" cc105="0" cc95="0" cc121="0" cc111="0" cc11="0" cc52="0" cc14="0" cc45="0" cc21="0" cc109="0" cc10="0" cc25="0" cc98="0" cc70="0" cc80="0" cc127="0"/>
          <instrument name="sf2player">
            <sf2player reverbRoomSize="0.2" chorusDepth="8" patch="0" chorusSpeed="0.3" reverbOn="0" src="usersoundfont:Pseudo_Realistic_T_Sax_edit.sf2" reverbDamping="0" chorusLevel="2" bank="0" reverbLevel="0.9" chorusNum="3" reverbWidth="0.5" chorusOn="0" gain="1.54">
              <key/>
            </sf2player>
          </instrument>
          <eldata fwet="0" fcut="14000" fres="0.5" ftype="0">
            <elvol lspd_denominator="4" dec="0.5" latt="0" sustain="0.5" lspd_syncmode="0" ctlenvamt="0" att="0" lshp="0" x100="0" lamt="0" lspd_numerator="4" hold="0.5" rel="0.1" pdel="0" lspd="0.1" amt="0" lpdel="0" userwavefile=""/>
            <elcut lspd_denominator="4" dec="0.5" latt="0" sustain="0.5" lspd_syncmode="0" ctlenvamt="0" att="0" lshp="0" x100="0" lamt="0" lspd_numerator="4" hold="0.5" rel="0.1" pdel="0" lspd="0.1" amt="0" lpdel="0" userwavefile=""/>
            <elres lspd_denominator="4" dec="0.5" latt="0" sustain="0.5" lspd_syncmode="0" ctlenvamt="0" att="0" lshp="0" x100="0" lamt="0" lspd_numerator="4" hold="0.5" rel="0.1" pdel="0" lspd="0.1" amt="0" lpdel="0" userwavefile=""/>
          </eldata>
          <chordcreator chord-enabled="0" chordrange="1" chord="0"/>
          <arpeggiator arp="0" arptime_syncmode="0" arpcycle="0" arprepeats="1" arptime="200" arptime_denominator="4" arpmode="0" arptime_numerator="4" arp-enabled="0" arprange="1" arpgate="100" arpskip="0" arpmiss="0" arpdir="0"/>
          <midiport inputcontroller="0" fixedoutputnote="-1" outputprogram="1" outputchannel="1" readable="1" fixedoutputvelocity="-1" inputchannel="0" writable="0" outputcontroller="0" fixedinputvelocity="-1" basevelocity="63" inports=""/>
          <fxchain enabled="0" numofeffects="0"/>
        </instrumenttrack>
        <midiclip name="" steps="16" type="1" muted="0" pos="4032">
          <note pan="0" len="72" vol="100" pos="0" key="51"/>
          <note pan="0" len="72" vol="100" pos="72" key="54"/>
          <note pan="0" len="24" vol="100" pos="144" key="56"/>
          <note pan="0" len="24" vol="100" pos="168" key="54"/>
          <note pan="0" len="24" vol="100" pos="192" key="57"/>
          <note pan="0" len="12" vol="100" pos="216" key="56"/>
          <note pan="0" len="72" vol="100" pos="240" key="51"/>
          <note pan="0" len="72" vol="100" pos="312" key="54"/>
          <note pan="0" len="24" vol="100" pos="384" key="56"/>
          <note pan="0" len="24" vol="100" pos="408" key="54"/>
          <note pan="0" len="24" vol="100" pos="432" key="59"/>
          <note pan="0" len="12" vol="100" pos="456" key="57"/>
          <note pan="0" len="72" vol="100" pos="480" key="57"/>
          <note pan="0" len="72" vol="100" pos="552" key="59"/>
          <note pan="0" len="24" vol="100" pos="624" key="60"/>
          <note pan="0" len="24" vol="100" pos="648" key="59"/>
          <note pan="0" len="24" vol="100" pos="672" key="64"/>
          <note pan="0" len="12" vol="100" pos="696" key="60"/>
          <note pan="0" len="72" vol="100" pos="720" key="57"/>
          <note pan="0" len="72" vol="100" pos="792" key="59"/>
          <note pan="0" len="24" vol="100" pos="864" key="60"/>
          <note pan="0" len="24" vol="100" pos="888" key="59"/>
          <note pan="0" len="24" vol="100" pos="912" key="64"/>
          <note pan="0" len="12" vol="100" pos="936" key="65"/>
        </midiclip>
        <midiclip name="" steps="16" type="1" muted="0" pos="4992">
          <note pan="0" len="384" vol="100" pos="0" key="66"/>
        </midiclip>
        <midiclip name="" steps="16" type="1" muted="0" pos="6720">
          <note pan="0" len="144" vol="100" pos="0" key="61"/>
          <note pan="0" len="144" vol="100" pos="0" key="57"/>
          <note pan="0" len="192" vol="100" pos="144" key="63"/>
          <note pan="0" len="192" vol="100" pos="144" key="59"/>
          <note pan="0" len="144" vol="100" pos="384" key="61"/>
          <note pan="0" len="144" vol="100" pos="384" key="58"/>
          <note pan="0" len="192" vol="100" pos="528" key="57"/>
          <note pan="0" len="192" vol="100" pos="528" key="54"/>
          <note pan="0" len="144" vol="100" pos="768" key="64"/>
          <note pan="0" len="144" vol="100" pos="768" key="57"/>
          <note pan="0" len="192" vol="100" pos="912" key="63"/>
          <note pan="0" len="192" vol="100" pos="912" key="59"/>
          <note pan="0" len="144" vol="100" pos="1152" key="64"/>
          <note pan="0" len="144" vol="100" pos="1152" key="59"/>
          <note pan="0" len="624" vol="100" pos="1296" key="61"/>
          <note pan="0" len="624" vol="100" pos="1296" key="58"/>
        </midiclip>
        <midiclip name="" steps="16" type="1" muted="0" pos="3072">
          <note pan="0" len="72" vol="100" pos="0" key="51"/>
          <note pan="0" len="72" vol="100" pos="72" key="54"/>
          <note pan="0" len="24" vol="100" pos="144" key="56"/>
          <note pan="0" len="24" vol="100" pos="168" key="54"/>
          <note pan="0" len="24" vol="100" pos="192" key="57"/>
          <note pan="0" len="12" vol="100" pos="216" key="56"/>
          <note pan="0" len="72" vol="100" pos="240" key="51"/>
          <note pan="0" len="72" vol="100" pos="312" key="54"/>
          <note pan="0" len="24" vol="100" pos="384" key="56"/>
          <note pan="0" len="24" vol="100" pos="408" key="54"/>
          <note pan="0" len="24" vol="100" pos="432" key="59"/>
          <note pan="0" len="12" vol="100" pos="456" key="57"/>
          <note pan="0" len="72" vol="100" pos="480" key="57"/>
          <note pan="0" len="72" vol="100" pos="552" key="59"/>
          <note pan="0" len="24" vol="100" pos="624" key="60"/>
          <note pan="0" len="24" vol="100" pos="648" key="59"/>
          <note pan="0" len="24" vol="100" pos="672" key="64"/>
          <note pan="0" len="12" vol="100" pos="696" key="60"/>
          <note pan="0" len="72" vol="100" pos="720" key="57"/>
          <note pan="0" len="72" vol="100" pos="792" key="59"/>
          <note pan="0" len="24" vol="100" pos="864" key="60"/>
          <note pan="0" len="24" vol="100" pos="888" key="59"/>
          <note pan="0" len="24" vol="100" pos="912" key="64"/>
          <note pan="0" len="12" vol="100" pos="936" key="60"/>
        </midiclip>
        <midiclip name="" steps="16" type="1" muted="0" pos="960">
          <note pan="0" len="12" vol="100" pos="144" key="63"/>
          <note pan="0" len="12" vol="100" pos="144" key="59"/>
          <note pan="0" len="144" vol="100" pos="168" key="63"/>
          <note pan="0" len="144" vol="100" pos="168" key="59"/>
          <note pan="0" len="24" vol="100" pos="336" key="59"/>
          <note pan="0" len="24" vol="100" pos="336" key="56"/>
          <note pan="0" len="96" vol="100" pos="360" key="61"/>
          <note pan="0" len="96" vol="100" pos="360" key="58"/>
          <note pan="0" len="48" vol="100" pos="456" key="59"/>
          <note pan="0" len="48" vol="100" pos="456" key="56"/>
          <note pan="0" len="60" vol="100" pos="504" key="58"/>
          <note pan="0" len="60" vol="100" pos="504" key="54"/>
          <note pan="0" len="156" vol="100" pos="576" key="56"/>
          <note pan="0" len="156" vol="100" pos="576" key="53"/>
          <note pan="0" len="132" vol="100" pos="744" key="58"/>
          <note pan="0" len="132" vol="100" pos="744" key="55"/>
          <note pan="0" len="12" vol="100" pos="912" key="59"/>
          <note pan="0" len="12" vol="100" pos="912" key="56"/>
          <note pan="0" len="144" vol="100" pos="936" key="63"/>
          <note pan="0" len="144" vol="100" pos="936" key="59"/>
          <note pan="0" len="24" vol="100" pos="1104" key="59"/>
          <note pan="0" len="24" vol="100" pos="1104" key="56"/>
          <note pan="0" len="96" vol="100" pos="1128" key="61"/>
          <note pan="0" len="96" vol="100" pos="1128" key="58"/>
          <note pan="0" len="48" vol="100" pos="1224" key="59"/>
          <note pan="0" len="48" vol="100" pos="1224" key="56"/>
          <note pan="0" len="60" vol="100" pos="1272" key="58"/>
          <note pan="0" len="60" vol="100" pos="1272" key="54"/>
          <note pan="0" len="156" vol="100" pos="1344" key="56"/>
          <note pan="0" len="156" vol="100" pos="1344" key="52"/>
          <note pan="0" len="72" vol="100" pos="1512" key="58"/>
          <note pan="0" len="72" vol="100" pos="1512" key="55"/>
          <note pan="0" len="36" vol="100" pos="1584" key="63"/>
          <note pan="0" len="36" vol="100" pos="1584" key="59"/>
          <note pan="0" len="36" vol="100" pos="1632" key="61"/>
          <note pan="0" len="36" vol="100" pos="1632" key="58"/>
          <note pan="0" len="36" vol="100" pos="1680" key="59"/>
          <note pan="0" len="36" vol="100" pos="1680" key="56"/>
        </midiclip>
        <midiclip name="" steps="16" type="1" muted="0" pos="2688">
          <note pan="0" len="192" vol="100" pos="0" key="56"/>
          <note pan="0" len="192" vol="100" pos="0" key="51"/>
        </midiclip>
      </track>
      <track name="Sax>LQ" mutedBeforeSolo="0" type="0" muted="1" solo="0">
        <instrumenttrack scale="0" pan="0" enabled="0" keymap="0" enablecc="0" range_import="1" usemasterpitch="1" basenote="69" lastkey="127" pitch="0" firstkey="0" pitchrange="12" mixch="3">
          <vol id="25129" value="0" scale_type="linear"/>
          <midicontrollers cc59="0" cc89="0" cc29="0" cc88="0" cc90="0" cc57="0" cc44="0" cc67="0" cc97="0" cc119="0" cc62="0" cc73="0" cc99="0" cc27="0" cc15="0" cc102="0" cc126="0" cc23="0" cc32="0" cc103="0" cc114="0" cc116="0" cc0="0" cc37="0" cc26="0" cc4="0" cc101="0" cc78="0" cc100="0" cc66="0" cc55="0" cc16="0" cc71="0" cc61="0" cc6="0" cc7="0" cc113="0" cc76="0" cc93="0" cc38="0" cc28="0" cc91="0" cc5="0" cc86="0" cc18="0" cc24="0" cc75="0" cc115="0" cc117="0" cc79="0" cc85="0" cc60="0" cc48="0" cc74="0" cc120="0" cc122="0" cc36="0" cc104="0" cc8="0" cc49="0" cc118="0" cc40="0" cc50="0" cc96="0" cc77="0" cc3="0" cc83="0" cc41="0" cc124="0" cc1="0" cc112="0" cc56="0" cc125="0" cc94="0" cc108="0" cc46="0" cc69="0" cc42="0" cc68="0" cc2="0" cc12="0" cc107="0" cc17="0" cc54="0" cc64="0" cc31="0" cc30="0" cc43="0" cc20="0" cc72="0" cc51="0" cc35="0" cc58="0" cc19="0" cc123="0" cc9="0" cc106="0" cc82="0" cc65="0" cc110="0" cc47="0" cc87="0" cc84="0" cc53="0" cc22="0" cc34="0" cc63="0" cc39="0" cc13="0" cc33="0" cc92="0" cc81="0" cc105="0" cc95="0" cc121="0" cc111="0" cc11="0" cc52="0" cc14="0" cc45="0" cc21="0" cc109="0" cc10="0" cc25="0" cc98="0" cc70="0" cc80="0" cc127="0"/>
          <instrument name="sf2player">
            <sf2player reverbRoomSize="0.2" chorusDepth="8" patch="67" chorusSpeed="0.3" reverbOn="0" src="usersoundfont:SGM-V2.01.sf2" reverbDamping="0" chorusLevel="2" bank="0" reverbLevel="0.9" chorusNum="3" reverbWidth="0.5" chorusOn="0" gain="2.1">
              <key/>
            </sf2player>
          </instrument>
          <eldata fwet="0" fcut="14000" fres="0.5" ftype="0">
            <elvol lspd_denominator="4" dec="0.5" latt="0" sustain="0.5" lspd_syncmode="0" ctlenvamt="0" att="0" lshp="0" x100="0" lamt="0" lspd_numerator="4" hold="0.5" rel="0.1" pdel="0" lspd="0.1" amt="0" lpdel="0" userwavefile=""/>
            <elcut lspd_denominator="4" dec="0.5" latt="0" sustain="0.5" lspd_syncmode="0" ctlenvamt="0" att="0" lshp="0" x100="0" lamt="0" lspd_numerator="4" hold="0.5" rel="0.1" pdel="0" lspd="0.1" amt="0" lpdel="0" userwavefile=""/>
            <elres lspd_denominator="4" dec="0.5" latt="0" sustain="0.5" lspd_syncmode="0" ctlenvamt="0" att="0" lshp="0" x100="0" lamt="0" lspd_numerator="4" hold="0.5" rel="0.1" pdel="0" lspd="0.1" amt="0" lpdel="0" userwavefile=""/>
          </eldata>
          <chordcreator chord-enabled="0" chordrange="1" chord="0"/>
          <arpeggiator arp="0" arptime_syncmode="0" arpcycle="0" arprepeats="1" arptime="200" arptime_denominator="4" arpmode="0" arptime_numerator="4" arp-enabled="0" arprange="1" arpgate="100" arpskip="0" arpmiss="0" arpdir="0"/>
          <midiport inputcontroller="0" fixedoutputnote="-1" outputprogram="1" outputchannel="1" readable="1" fixedoutputvelocity="-1" inputchannel="0" writable="0" outputcontroller="0" fixedinputvelocity="-1" basevelocity="63" inports=""/>
          <fxchain enabled="0" numofeffects="0"/>
        </instrumenttrack>
        <midiclip name="" steps="16" type="1" muted="0" pos="4032">
          <note pan="0" len="72" vol="100" pos="0" key="51"/>
          <note pan="0" len="72" vol="100" pos="72" key="54"/>
          <note pan="0" len="24" vol="100" pos="144" key="56"/>
          <note pan="0" len="24" vol="100" pos="168" key="54"/>
          <note pan="0" len="24" vol="100" pos="192" key="57"/>
          <note pan="0" len="12" vol="100" pos="216" key="56"/>
          <note pan="0" len="72" vol="100" pos="240" key="51"/>
          <note pan="0" len="72" vol="100" pos="312" key="54"/>
          <note pan="0" len="24" vol="100" pos="384" key="56"/>
          <note pan="0" len="24" vol="100" pos="408" key="54"/>
          <note pan="0" len="24" vol="100" pos="432" key="59"/>
          <note pan="0" len="12" vol="100" pos="456" key="57"/>
          <note pan="0" len="72" vol="100" pos="480" key="57"/>
          <note pan="0" len="72" vol="100" pos="552" key="59"/>
          <note pan="0" len="24" vol="100" pos="624" key="60"/>
          <note pan="0" len="24" vol="100" pos="648" key="59"/>
          <note pan="0" len="24" vol="100" pos="672" key="64"/>
          <note pan="0" len="12" vol="100" pos="696" key="60"/>
          <note pan="0" len="72" vol="100" pos="720" key="57"/>
          <note pan="0" len="72" vol="100" pos="792" key="59"/>
          <note pan="0" len="24" vol="100" pos="864" key="60"/>
          <note pan="0" len="24" vol="100" pos="888" key="59"/>
          <note pan="0" len="24" vol="100" pos="912" key="64"/>
          <note pan="0" len="12" vol="100" pos="936" key="65"/>
        </midiclip>
        <midiclip name="" steps="16" type="1" muted="0" pos="4992">
          <note pan="0" len="384" vol="100" pos="0" key="66"/>
        </midiclip>
        <midiclip name="" steps="16" type="1" muted="0" pos="6720">
          <note pan="0" len="144" vol="100" pos="0" key="61"/>
          <note pan="0" len="144" vol="100" pos="0" key="57"/>
          <note pan="0" len="192" vol="100" pos="144" key="63"/>
          <note pan="0" len="192" vol="100" pos="144" key="59"/>
          <note pan="0" len="144" vol="100" pos="384" key="61"/>
          <note pan="0" len="144" vol="100" pos="384" key="58"/>
          <note pan="0" len="192" vol="100" pos="528" key="57"/>
          <note pan="0" len="192" vol="100" pos="528" key="54"/>
          <note pan="0" len="144" vol="100" pos="768" key="64"/>
          <note pan="0" len="144" vol="100" pos="768" key="57"/>
          <note pan="0" len="192" vol="100" pos="912" key="63"/>
          <note pan="0" len="192" vol="100" pos="912" key="59"/>
          <note pan="0" len="144" vol="100" pos="1152" key="64"/>
          <note pan="0" len="144" vol="100" pos="1152" key="59"/>
          <note pan="0" len="624" vol="100" pos="1296" key="61"/>
          <note pan="0" len="624" vol="100" pos="1296" key="58"/>
        </midiclip>
        <midiclip name="" steps="16" type="1" muted="0" pos="3072">
          <note pan="0" len="72" vol="100" pos="0" key="51"/>
          <note pan="0" len="72" vol="100" pos="72" key="54"/>
          <note pan="0" len="24" vol="100" pos="144" key="56"/>
          <note pan="0" len="24" vol="100" pos="168" key="54"/>
          <note pan="0" len="24" vol="100" pos="192" key="57"/>
          <note pan="0" len="12" vol="100" pos="216" key="56"/>
          <note pan="0" len="72" vol="100" pos="240" key="51"/>
          <note pan="0" len="72" vol="100" pos="312" key="54"/>
          <note pan="0" len="24" vol="100" pos="384" key="56"/>
          <note pan="0" len="24" vol="100" pos="408" key="54"/>
          <note pan="0" len="24" vol="100" pos="432" key="59"/>
          <note pan="0" len="12" vol="100" pos="456" key="57"/>
          <note pan="0" len="72" vol="100" pos="480" key="57"/>
          <note pan="0" len="72" vol="100" pos="552" key="59"/>
          <note pan="0" len="24" vol="100" pos="624" key="60"/>
          <note pan="0" len="24" vol="100" pos="648" key="59"/>
          <note pan="0" len="24" vol="100" pos="672" key="64"/>
          <note pan="0" len="12" vol="100" pos="696" key="60"/>
          <note pan="0" len="72" vol="100" pos="720" key="57"/>
          <note pan="0" len="72" vol="100" pos="792" key="59"/>
          <note pan="0" len="24" vol="100" pos="864" key="60"/>
          <note pan="0" len="24" vol="100" pos="888" key="59"/>
          <note pan="0" len="24" vol="100" pos="912" key="64"/>
          <note pan="0" len="12" vol="100" pos="936" key="60"/>
        </midiclip>
        <midiclip name="" steps="16" type="1" muted="0" pos="960">
          <note pan="0" len="12" vol="100" pos="144" key="63"/>
          <note pan="0" len="12" vol="100" pos="144" key="59"/>
          <note pan="0" len="144" vol="100" pos="168" key="63"/>
          <note pan="0" len="144" vol="100" pos="168" key="59"/>
          <note pan="0" len="24" vol="100" pos="336" key="59"/>
          <note pan="0" len="24" vol="100" pos="336" key="56"/>
          <note pan="0" len="96" vol="100" pos="360" key="61"/>
          <note pan="0" len="96" vol="100" pos="360" key="58"/>
          <note pan="0" len="48" vol="100" pos="456" key="59"/>
          <note pan="0" len="48" vol="100" pos="456" key="56"/>
          <note pan="0" len="60" vol="100" pos="504" key="58"/>
          <note pan="0" len="60" vol="100" pos="504" key="54"/>
          <note pan="0" len="156" vol="100" pos="576" key="56"/>
          <note pan="0" len="156" vol="100" pos="576" key="53"/>
          <note pan="0" len="132" vol="100" pos="744" key="58"/>
          <note pan="0" len="132" vol="100" pos="744" key="55"/>
          <note pan="0" len="12" vol="100" pos="912" key="59"/>
          <note pan="0" len="12" vol="100" pos="912" key="56"/>
          <note pan="0" len="144" vol="100" pos="936" key="63"/>
          <note pan="0" len="144" vol="100" pos="936" key="59"/>
          <note pan="0" len="24" vol="100" pos="1104" key="59"/>
          <note pan="0" len="24" vol="100" pos="1104" key="56"/>
          <note pan="0" len="96" vol="100" pos="1128" key="61"/>
          <note pan="0" len="96" vol="100" pos="1128" key="58"/>
          <note pan="0" len="48" vol="100" pos="1224" key="59"/>
          <note pan="0" len="48" vol="100" pos="1224" key="56"/>
          <note pan="0" len="60" vol="100" pos="1272" key="58"/>
          <note pan="0" len="60" vol="100" pos="1272" key="54"/>
          <note pan="0" len="156" vol="100" pos="1344" key="56"/>
          <note pan="0" len="156" vol="100" pos="1344" key="52"/>
          <note pan="0" len="72" vol="100" pos="1512" key="58"/>
          <note pan="0" len="72" vol="100" pos="1512" key="55"/>
          <note pan="0" len="36" vol="100" pos="1584" key="63"/>
          <note pan="0" len="36" vol="100" pos="1584" key="59"/>
          <note pan="0" len="36" vol="100" pos="1632" key="61"/>
          <note pan="0" len="36" vol="100" pos="1632" key="58"/>
          <note pan="0" len="36" vol="100" pos="1680" key="59"/>
          <note pan="0" len="36" vol="100" pos="1680" key="56"/>
        </midiclip>
        <midiclip name="" steps="16" type="1" muted="0" pos="2688">
          <note pan="0" len="192" vol="100" pos="0" key="56"/>
          <note pan="0" len="192" vol="100" pos="0" key="51"/>
        </midiclip>
      </track>
      <track name="Sax>Volume" mutedBeforeSolo="0" type="5" muted="0" solo="0">
        <automationtrack/>
        <automationclip name="Sax>Volume" mute="0" len="384" tens="1" prog="1" pos="4992">
          <time outValue="100" value="100" pos="0"/>
          <time outValue="0" value="0" pos="384"/>
          <object id="4840"/>
          <object id="25129"/>
        </automationclip>
        <automationclip name="Sax>Volume" mute="0" len="192" tens="1" prog="0" pos="960">
          <time outValue="100" value="100" pos="0"/>
          <object id="4840"/>
          <object id="25129"/>
        </automationclip>
        <automationclip name="Sax>Volume" mute="0" len="192" tens="1" prog="0" pos="6720">
          <time outValue="70" value="70" pos="0"/>
          <object id="4840"/>
          <object id="25129"/>
        </automationclip>
        <automationclip name="Sax>Volume" mute="0" len="192" tens="1" prog="0" pos="3072">
          <time outValue="100" value="100" pos="0"/>
          <object id="4840"/>
          <object id="25129"/>
        </automationclip>
        <automationclip name="Sax>Volume" mute="0" len="192" tens="1" prog="1" pos="2688">
          <time outValue="100" value="100" pos="0"/>
          <time outValue="60" value="60" pos="192"/>
          <object id="4840"/>
          <object id="25129"/>
        </automationclip>
      </track>
      <track name="Bass>Picked" mutedBeforeSolo="0" type="0" muted="0" solo="0">
        <instrumenttrack scale="0" pan="0" enabled="0" keymap="0" enablecc="0" range_import="1" usemasterpitch="1" vol="100" basenote="69" lastkey="127" firstkey="0" pitchrange="12" mixch="5">
          <pitch id="20308" value="0" scale_type="linear"/>
          <midicontrollers cc59="0" cc89="0" cc29="0" cc88="0" cc90="0" cc57="0" cc44="0" cc67="0" cc97="0" cc119="0" cc62="0" cc73="0" cc99="0" cc27="0" cc15="0" cc102="0" cc126="0" cc23="0" cc32="0" cc103="0" cc114="0" cc116="0" cc0="0" cc37="0" cc26="0" cc4="0" cc101="0" cc78="0" cc100="0" cc66="0" cc55="0" cc16="0" cc71="0" cc61="0" cc6="0" cc7="0" cc113="0" cc76="0" cc93="0" cc38="0" cc28="0" cc91="0" cc5="0" cc86="0" cc18="0" cc24="0" cc75="0" cc115="0" cc117="0" cc79="0" cc85="0" cc60="0" cc48="0" cc74="0" cc120="0" cc122="0" cc36="0" cc104="0" cc8="0" cc49="0" cc118="0" cc40="0" cc50="0" cc96="0" cc77="0" cc3="0" cc83="0" cc41="0" cc124="0" cc1="0" cc112="0" cc56="0" cc125="0" cc94="0" cc108="0" cc46="0" cc69="0" cc42="0" cc68="0" cc2="0" cc12="0" cc107="0" cc17="0" cc54="0" cc64="0" cc31="0" cc30="0" cc43="0" cc20="0" cc72="0" cc51="0" cc35="0" cc58="0" cc19="0" cc123="0" cc9="0" cc106="0" cc82="0" cc65="0" cc110="0" cc47="0" cc87="0" cc84="0" cc53="0" cc22="0" cc34="0" cc63="0" cc39="0" cc13="0" cc33="0" cc92="0" cc81="0" cc105="0" cc95="0" cc121="0" cc111="0" cc11="0" cc52="0" cc14="0" cc45="0" cc21="0" cc109="0" cc10="0" cc25="0" cc98="0" cc70="0" cc80="0" cc127="0"/>
          <instrument name="sf2player">
            <sf2player reverbRoomSize="0.2" chorusDepth="8" patch="34" chorusSpeed="0.3" reverbOn="0" src="usersoundfont:SGM-V2.01.sf2" reverbDamping="0" chorusLevel="2" bank="0" reverbLevel="0.9" chorusNum="3" reverbWidth="0.5" chorusOn="0" gain="0.84">
              <key/>
            </sf2player>
          </instrument>
          <eldata fwet="0" fcut="14000" fres="0.5" ftype="0">
            <elvol lspd_denominator="4" dec="0.5" latt="0" sustain="0.5" lspd_syncmode="0" ctlenvamt="0" att="0" lshp="0" x100="0" lamt="0" lspd_numerator="4" hold="0.5" rel="0.1" pdel="0" lspd="0.1" amt="0" lpdel="0" userwavefile=""/>
            <elcut lspd_denominator="4" dec="0.5" latt="0" sustain="0.5" lspd_syncmode="0" ctlenvamt="0" att="0" lshp="0" x100="0" lamt="0" lspd_numerator="4" hold="0.5" rel="0.1" pdel="0" lspd="0.1" amt="0" lpdel="0" userwavefile=""/>
            <elres lspd_denominator="4" dec="0.5" latt="0" sustain="0.5" lspd_syncmode="0" ctlenvamt="0" att="0" lshp="0" x100="0" lamt="0" lspd_numerator="4" hold="0.5" rel="0.1" pdel="0" lspd="0.1" amt="0" lpdel="0" userwavefile=""/>
          </eldata>
          <chordcreator chord-enabled="0" chordrange="1" chord="0"/>
          <arpeggiator arp="0" arptime_syncmode="0" arpcycle="0" arprepeats="1" arptime="200" arptime_denominator="4" arpmode="0" arptime_numerator="4" arp-enabled="0" arprange="1" arpgate="100" arpskip="0" arpmiss="0" arpdir="0"/>
          <midiport inputcontroller="0" fixedoutputnote="-1" outputprogram="1" outputchannel="1" readable="1" fixedoutputvelocity="-1" inputchannel="0" writable="0" outputcontroller="0" fixedinputvelocity="-1" basevelocity="63" inports=""/>
          <fxchain enabled="0" numofeffects="0"/>
        </instrumenttrack>
        <midiclip name="" steps="16" type="1" muted="0" pos="3072">
          <note pan="0" len="48" vol="100" pos="0" key="32"/>
          <note pan="0" len="24" vol="100" pos="48" key="35"/>
          <note pan="0" len="48" vol="100" pos="72" key="37"/>
          <note pan="0" len="24" vol="100" pos="120" key="35"/>
          <note pan="0" len="24" vol="100" pos="144" key="39"/>
          <note pan="0" len="24" vol="100" pos="168" key="37"/>
          <note pan="0" len="24" vol="100" pos="192" key="35"/>
          <note pan="0" len="24" vol="100" pos="216" key="37"/>
          <note pan="0" len="48" vol="100" pos="240" key="32"/>
          <note pan="0" len="24" vol="100" pos="288" key="35"/>
          <note pan="0" len="48" vol="100" pos="312" key="37"/>
          <note pan="0" len="24" vol="100" pos="360" key="35"/>
          <note pan="0" len="24" vol="100" pos="384" key="39"/>
          <note pan="0" len="24" vol="100" pos="408" key="37"/>
          <note pan="0" len="24" vol="100" pos="432" key="35"/>
          <note pan="0" len="24" vol="100" pos="456" key="37"/>
          <note pan="0" len="48" vol="100" pos="480" key="35"/>
          <note pan="0" len="24" vol="100" pos="528" key="38"/>
          <note pan="0" len="48" vol="100" pos="552" key="40"/>
          <note pan="0" len="24" vol="100" pos="600" key="38"/>
          <note pan="0" len="24" vol="100" pos="624" key="41"/>
          <note pan="0" len="24" vol="100" pos="648" key="40"/>
          <note pan="0" len="24" vol="100" pos="672" key="38"/>
          <note pan="0" len="24" vol="100" pos="696" key="40"/>
          <note pan="0" len="48" vol="100" pos="720" key="35"/>
          <note pan="0" len="24" vol="100" pos="768" key="38"/>
          <note pan="0" len="48" vol="100" pos="792" key="40"/>
          <note pan="0" len="24" vol="100" pos="840" key="38"/>
          <note pan="0" len="24" vol="100" pos="864" key="41"/>
          <note pan="0" len="24" vol="100" pos="888" key="40"/>
          <note pan="0" len="24" vol="100" pos="912" key="38"/>
          <note pan="0" len="24" vol="100" pos="936" key="40"/>
        </midiclip>
        <midiclip name="" steps="16" type="1" muted="0" pos="4032">
          <note pan="0" len="48" vol="100" pos="0" key="32"/>
          <note pan="0" len="24" vol="100" pos="48" key="35"/>
          <note pan="0" len="48" vol="100" pos="72" key="37"/>
          <note pan="0" len="24" vol="100" pos="120" key="35"/>
          <note pan="0" len="24" vol="100" pos="144" key="39"/>
          <note pan="0" len="24" vol="100" pos="168" key="37"/>
          <note pan="0" len="24" vol="100" pos="192" key="35"/>
          <note pan="0" len="24" vol="100" pos="216" key="37"/>
          <note pan="0" len="48" vol="100" pos="240" key="32"/>
          <note pan="0" len="24" vol="100" pos="288" key="35"/>
          <note pan="0" len="48" vol="100" pos="312" key="37"/>
          <note pan="0" len="24" vol="100" pos="360" key="35"/>
          <note pan="0" len="24" vol="100" pos="384" key="39"/>
          <note pan="0" len="24" vol="100" pos="408" key="37"/>
          <note pan="0" len="24" vol="100" pos="432" key="35"/>
          <note pan="0" len="24" vol="100" pos="456" key="37"/>
          <note pan="0" len="48" vol="100" pos="480" key="35"/>
          <note pan="0" len="24" vol="100" pos="528" key="38"/>
          <note pan="0" len="48" vol="100" pos="552" key="40"/>
          <note pan="0" len="24" vol="100" pos="600" key="38"/>
          <note pan="0" len="24" vol="100" pos="624" key="41"/>
          <note pan="0" len="24" vol="100" pos="648" key="40"/>
          <note pan="0" len="24" vol="100" pos="672" key="38"/>
          <note pan="0" len="24" vol="100" pos="696" key="40"/>
          <note pan="0" len="48" vol="100" pos="720" key="35"/>
          <note pan="0" len="24" vol="100" pos="768" key="38"/>
          <note pan="0" len="48" vol="100" pos="792" key="40"/>
          <note pan="0" len="24" vol="100" pos="840" key="38"/>
          <note pan="0" len="24" vol="100" pos="864" key="41"/>
          <note pan="0" len="24" vol="100" pos="888" key="40"/>
          <note pan="0" len="24" vol="100" pos="912" key="38"/>
          <note pan="0" len="24" vol="100" pos="936" key="40"/>
        </midiclip>
        <midiclip name="" steps="16" type="1" muted="0" pos="6720">
          <note pan="0" len="144" vol="100" pos="0" key="33"/>
          <note pan="0" len="240" vol="100" pos="144" key="35"/>
          <note pan="0" len="144" vol="100" pos="384" key="42"/>
          <note pan="0" len="240" vol="100" pos="528" key="35"/>
          <note pan="0" len="144" vol="100" pos="768" key="33"/>
          <note pan="0" len="240" vol="100" pos="912" key="39"/>
          <note pan="0" len="144" vol="100" pos="1152" key="35"/>
          <note pan="0" len="624" vol="100" pos="1296" key="30"/>
        </midiclip>
        <midiclip name="" steps="16" type="1" muted="0" pos="960">
          <note pan="0" len="144" vol="100" pos="0" key="32"/>
          <note pan="0" len="12" vol="100" pos="144" key="32"/>
          <note pan="0" len="12" vol="100" pos="168" key="32"/>
        </midiclip>
        <midiclip name="" steps="16" type="1" muted="0" pos="0">
          <note pan="0" len="72" vol="100" pos="0" key="32"/>
          <note pan="0" len="72" vol="100" pos="72" key="35"/>
          <note pan="0" len="48" vol="100" pos="144" key="37"/>
          <note pan="0" len="36" vol="100" pos="192" key="42"/>
          <note pan="0" len="72" vol="100" pos="240" key="32"/>
          <note pan="0" len="72" vol="100" pos="312" key="35"/>
          <note pan="0" len="48" vol="100" pos="384" key="37"/>
          <note pan="0" len="72" vol="100" pos="480" key="33"/>
          <note pan="0" len="72" vol="100" pos="552" key="37"/>
          <note pan="0" len="48" vol="100" pos="624" key="38"/>
          <note pan="0" len="36" vol="100" pos="672" key="37"/>
          <note pan="0" len="72" vol="100" pos="720" key="33"/>
          <note pan="0" len="72" vol="100" pos="792" key="37"/>
          <note pan="0" len="48" vol="100" pos="864" key="38"/>
        </midiclip>
        <midiclip name="" steps="16" type="1" muted="0" pos="2688">
          <note pan="0" len="120" vol="100" pos="0" key="32"/>
          <note pan="0" len="12" vol="100" pos="144" key="32"/>
          <note pan="0" len="72" vol="100" pos="168" key="32"/>
          <note pan="0" len="24" vol="100" pos="264" key="32"/>
          <note pan="0" len="24" vol="100" pos="312" key="32"/>
          <note pan="0" len="12" vol="100" pos="360" key="32"/>
        </midiclip>
        <midiclip name="" steps="16" type="1" muted="0" pos="1152">
          <note pan="0" len="12" vol="100" pos="0" key="32"/>
          <note pan="0" len="12" vol="100" pos="24" key="32"/>
          <note pan="0" len="12" vol="100" pos="48" key="32"/>
          <note pan="0" len="12" vol="100" pos="72" key="32"/>
          <note pan="0" len="12" vol="100" pos="96" key="32"/>
          <note pan="0" len="12" vol="100" pos="120" key="32"/>
          <note pan="0" len="12" vol="100" pos="144" key="32"/>
          <note pan="0" len="12" vol="100" pos="168" key="37"/>
          <note pan="0" len="12" vol="100" pos="192" key="37"/>
          <note pan="0" len="12" vol="100" pos="216" key="37"/>
          <note pan="0" len="12" vol="100" pos="240" key="37"/>
          <note pan="0" len="12" vol="100" pos="264" key="37"/>
          <note pan="0" len="12" vol="100" pos="288" key="37"/>
          <note pan="0" len="12" vol="100" pos="312" key="37"/>
          <note pan="0" len="12" vol="100" pos="336" key="37"/>
          <note pan="0" len="12" vol="100" pos="360" key="32"/>
          <note pan="0" len="12" vol="100" pos="384" key="25"/>
          <note pan="0" len="12" vol="100" pos="408" key="25"/>
          <note pan="0" len="12" vol="100" pos="432" key="25"/>
          <note pan="0" len="12" vol="100" pos="456" key="25"/>
          <note pan="0" len="12" vol="100" pos="480" key="25"/>
          <note pan="0" len="12" vol="100" pos="504" key="23"/>
          <note pan="0" len="12" vol="100" pos="528" key="23"/>
          <note pan="0" len="12" vol="100" pos="552" key="27"/>
          <note pan="0" len="12" vol="100" pos="576" key="27"/>
          <note pan="0" len="12" vol="100" pos="600" key="27"/>
          <note pan="0" len="12" vol="100" pos="624" key="27"/>
          <note pan="0" len="12" vol="100" pos="648" key="27"/>
          <note pan="0" len="12" vol="100" pos="672" key="27"/>
          <note pan="0" len="12" vol="100" pos="696" key="29"/>
          <note pan="0" len="12" vol="100" pos="720" key="30"/>
          <note pan="0" len="12" vol="100" pos="744" key="32"/>
          <note pan="0" len="12" vol="100" pos="768" key="32"/>
          <note pan="0" len="12" vol="100" pos="792" key="32"/>
          <note pan="0" len="12" vol="100" pos="816" key="32"/>
          <note pan="0" len="12" vol="100" pos="840" key="32"/>
          <note pan="0" len="12" vol="100" pos="864" key="32"/>
          <note pan="0" len="12" vol="100" pos="888" key="32"/>
          <note pan="0" len="12" vol="100" pos="912" key="32"/>
          <note pan="0" len="12" vol="100" pos="936" key="37"/>
          <note pan="0" len="12" vol="100" pos="960" key="37"/>
          <note pan="0" len="12" vol="100" pos="984" key="37"/>
          <note pan="0" len="12" vol="100" pos="1008" key="37"/>
          <note pan="0" len="12" vol="100" pos="1032" key="37"/>
          <note pan="0" len="12" vol="100" pos="1056" key="37"/>
          <note pan="0" len="12" vol="100" pos="1080" key="37"/>
          <note pan="0" len="12" vol="100" pos="1104" key="37"/>
          <note pan="0" len="12" vol="100" pos="1128" key="32"/>
          <note pan="0" len="12" vol="100" pos="1152" key="25"/>
          <note pan="0" len="12" vol="100" pos="1176" key="25"/>
          <note pan="0" len="12" vol="100" pos="1200" key="25"/>
          <note pan="0" len="12" vol="100" pos="1224" key="25"/>
          <note pan="0" len="12" vol="100" pos="1248" key="25"/>
          <note pan="0" len="12" vol="100" pos="1272" key="23"/>
          <note pan="0" len="12" vol="100" pos="1296" key="23"/>
          <note pan="0" len="12" vol="100" pos="1320" key="27"/>
          <note pan="0" len="12" vol="100" pos="1344" key="27"/>
          <note pan="0" len="12" vol="100" pos="1368" key="27"/>
          <note pan="0" len="36" vol="100" pos="1392" key="27"/>
          <note pan="0" len="36" vol="100" pos="1440" key="34"/>
          <note pan="0" len="36" vol="100" pos="1488" key="37"/>
        </midiclip>
        <midiclip name="" steps="16" type="1" muted="0" pos="5760">
          <note pan="0" len="36" vol="100" pos="0" key="38"/>
          <note pan="0" len="36" vol="100" pos="36" key="33"/>
          <note pan="0" len="36" vol="100" pos="72" key="38"/>
          <note pan="0" len="36" vol="100" pos="108" key="30"/>
          <note pan="0" len="36" vol="100" pos="144" key="38"/>
          <note pan="0" len="36" vol="100" pos="180" key="33"/>
          <note pan="0" len="36" vol="100" pos="216" key="38"/>
          <note pan="0" len="36" vol="100" pos="252" key="26"/>
          <note pan="0" len="36" vol="100" pos="288" key="38"/>
          <note pan="0" len="36" vol="100" pos="324" key="33"/>
          <note pan="0" len="24" vol="100" pos="360" key="38"/>
        </midiclip>
        <midiclip name="" steps="16" type="1" muted="0" pos="5376">
          <note pan="0" len="36" vol="100" pos="0" key="40"/>
          <note pan="0" len="36" vol="100" pos="36" key="28"/>
          <note pan="0" len="36" vol="100" pos="72" key="35"/>
          <note pan="0" len="36" vol="100" pos="108" key="28"/>
          <note pan="0" len="36" vol="100" pos="144" key="40"/>
          <note pan="0" len="36" vol="100" pos="180" key="35"/>
          <note pan="0" len="36" vol="100" pos="216" key="28"/>
          <note pan="0" len="36" vol="100" pos="252" key="35"/>
          <note pan="0" len="36" vol="100" pos="288" key="40"/>
          <note pan="0" len="36" vol="100" pos="324" key="33"/>
          <note pan="0" len="24" vol="100" pos="360" key="40"/>
        </midiclip>
        <midiclip name="" steps="16" type="1" muted="0" pos="4992">
          <note pan="0" len="36" vol="100" pos="0" key="42"/>
          <note pan="0" len="36" vol="100" pos="36" key="30"/>
          <note pan="0" len="36" vol="100" pos="72" key="37"/>
          <note pan="0" len="36" vol="100" pos="108" key="30"/>
          <note pan="0" len="36" vol="100" pos="144" key="42"/>
          <note pan="0" len="36" vol="100" pos="180" key="30"/>
          <note pan="0" len="36" vol="100" pos="216" key="37"/>
          <note pan="0" len="36" vol="100" pos="252" key="30"/>
          <note pan="0" len="36" vol="100" pos="288" key="37"/>
          <note pan="0" len="36" vol="100" pos="324" key="33"/>
          <note pan="0" len="24" vol="100" pos="360" key="42"/>
        </midiclip>
        <midiclip name="" steps="16" type="1" muted="0" pos="6144">
          <note pan="0" len="36" vol="100" pos="0" key="37"/>
          <note pan="0" len="36" vol="100" pos="36" key="32"/>
          <note pan="0" len="36" vol="100" pos="72" key="37"/>
          <note pan="0" len="36" vol="100" pos="108" key="32"/>
          <note pan="0" len="36" vol="100" pos="144" key="37"/>
          <note pan="0" len="36" vol="100" pos="180" key="32"/>
          <note pan="0" len="36" vol="100" pos="216" key="37"/>
          <note pan="0" len="36" vol="100" pos="252" key="29"/>
          <note pan="0" len="36" vol="100" pos="288" key="37"/>
          <note pan="0" len="36" vol="100" pos="324" key="32"/>
          <note pan="0" len="24" vol="100" pos="360" key="37"/>
          <note pan="0" len="192" vol="100" pos="384" key="25"/>
        </midiclip>
      </track>
      <track name="Bass>Acoustic" mutedBeforeSolo="0" type="0" muted="0" solo="0">
        <instrumenttrack scale="0" pan="0" enabled="0" keymap="0" enablecc="0" range_import="1" usemasterpitch="1" vol="100" basenote="69" lastkey="127" firstkey="0" pitchrange="12" mixch="5">
          <pitch id="29480" value="0" scale_type="linear"/>
          <midicontrollers cc59="0" cc89="0" cc29="0" cc88="0" cc90="0" cc57="0" cc44="0" cc67="0" cc97="0" cc119="0" cc62="0" cc73="0" cc99="0" cc27="0" cc15="0" cc102="0" cc126="0" cc23="0" cc32="0" cc103="0" cc114="0" cc116="0" cc0="0" cc37="0" cc26="0" cc4="0" cc101="0" cc78="0" cc100="0" cc66="0" cc55="0" cc16="0" cc71="0" cc61="0" cc6="0" cc7="0" cc113="0" cc76="0" cc93="0" cc38="0" cc28="0" cc91="0" cc5="0" cc86="0" cc18="0" cc24="0" cc75="0" cc115="0" cc117="0" cc79="0" cc85="0" cc60="0" cc48="0" cc74="0" cc120="0" cc122="0" cc36="0" cc104="0" cc8="0" cc49="0" cc118="0" cc40="0" cc50="0" cc96="0" cc77="0" cc3="0" cc83="0" cc41="0" cc124="0" cc1="0" cc112="0" cc56="0" cc125="0" cc94="0" cc108="0" cc46="0" cc69="0" cc42="0" cc68="0" cc2="0" cc12="0" cc107="0" cc17="0" cc54="0" cc64="0" cc31="0" cc30="0" cc43="0" cc20="0" cc72="0" cc51="0" cc35="0" cc58="0" cc19="0" cc123="0" cc9="0" cc106="0" cc82="0" cc65="0" cc110="0" cc47="0" cc87="0" cc84="0" cc53="0" cc22="0" cc34="0" cc63="0" cc39="0" cc13="0" cc33="0" cc92="0" cc81="0" cc105="0" cc95="0" cc121="0" cc111="0" cc11="0" cc52="0" cc14="0" cc45="0" cc21="0" cc109="0" cc10="0" cc25="0" cc98="0" cc70="0" cc80="0" cc127="0"/>
          <instrument name="sf2player">
            <sf2player reverbRoomSize="0.2" chorusDepth="8" patch="32" chorusSpeed="0.3" reverbOn="0" src="usersoundfont:SGM-V2.01.sf2" reverbDamping="0" chorusLevel="2" bank="0" reverbLevel="0.9" chorusNum="3" reverbWidth="0.5" chorusOn="0" gain="0.98">
              <key/>
            </sf2player>
          </instrument>
          <eldata fwet="0" fcut="14000" fres="0.5" ftype="0">
            <elvol lspd_denominator="4" dec="0.5" latt="0" sustain="0.5" lspd_syncmode="0" ctlenvamt="0" att="0" lshp="0" x100="0" lamt="0" lspd_numerator="4" hold="0.5" rel="0.1" pdel="0" lspd="0.1" amt="0" lpdel="0" userwavefile=""/>
            <elcut lspd_denominator="4" dec="0.5" latt="0" sustain="0.5" lspd_syncmode="0" ctlenvamt="0" att="0" lshp="0" x100="0" lamt="0" lspd_numerator="4" hold="0.5" rel="0.1" pdel="0" lspd="0.1" amt="0" lpdel="0" userwavefile=""/>
            <elres lspd_denominator="4" dec="0.5" latt="0" sustain="0.5" lspd_syncmode="0" ctlenvamt="0" att="0" lshp="0" x100="0" lamt="0" lspd_numerator="4" hold="0.5" rel="0.1" pdel="0" lspd="0.1" amt="0" lpdel="0" userwavefile=""/>
          </eldata>
          <chordcreator chord-enabled="0" chordrange="1" chord="0"/>
          <arpeggiator arp="0" arptime_syncmode="0" arpcycle="0" arprepeats="1" arptime="200" arptime_denominator="4" arpmode="0" arptime_numerator="4" arp-enabled="0" arprange="1" arpgate="100" arpskip="0" arpmiss="0" arpdir="0"/>
          <midiport inputcontroller="0" fixedoutputnote="-1" outputprogram="1" outputchannel="1" readable="1" fixedoutputvelocity="-1" inputchannel="0" writable="0" outputcontroller="0" fixedinputvelocity="-1" basevelocity="63" inports=""/>
          <fxchain enabled="0" numofeffects="0"/>
        </instrumenttrack>
        <midiclip name="" steps="16" type="1" muted="0" pos="3072">
          <note pan="0" len="48" vol="100" pos="0" key="32"/>
          <note pan="0" len="24" vol="100" pos="48" key="35"/>
          <note pan="0" len="48" vol="100" pos="72" key="37"/>
          <note pan="0" len="24" vol="100" pos="120" key="35"/>
          <note pan="0" len="24" vol="100" pos="144" key="39"/>
          <note pan="0" len="24" vol="100" pos="168" key="37"/>
          <note pan="0" len="24" vol="100" pos="192" key="35"/>
          <note pan="0" len="24" vol="100" pos="216" key="37"/>
          <note pan="0" len="48" vol="100" pos="240" key="32"/>
          <note pan="0" len="24" vol="100" pos="288" key="35"/>
          <note pan="0" len="48" vol="100" pos="312" key="37"/>
          <note pan="0" len="24" vol="100" pos="360" key="35"/>
          <note pan="0" len="24" vol="100" pos="384" key="39"/>
          <note pan="0" len="24" vol="100" pos="408" key="37"/>
          <note pan="0" len="24" vol="100" pos="432" key="35"/>
          <note pan="0" len="24" vol="100" pos="456" key="37"/>
          <note pan="0" len="48" vol="100" pos="480" key="35"/>
          <note pan="0" len="24" vol="100" pos="528" key="38"/>
          <note pan="0" len="48" vol="100" pos="552" key="40"/>
          <note pan="0" len="24" vol="100" pos="600" key="38"/>
          <note pan="0" len="24" vol="100" pos="624" key="41"/>
          <note pan="0" len="24" vol="100" pos="648" key="40"/>
          <note pan="0" len="24" vol="100" pos="672" key="38"/>
          <note pan="0" len="24" vol="100" pos="696" key="40"/>
          <note pan="0" len="48" vol="100" pos="720" key="35"/>
          <note pan="0" len="24" vol="100" pos="768" key="38"/>
          <note pan="0" len="48" vol="100" pos="792" key="40"/>
          <note pan="0" len="24" vol="100" pos="840" key="38"/>
          <note pan="0" len="24" vol="100" pos="864" key="41"/>
          <note pan="0" len="24" vol="100" pos="888" key="40"/>
          <note pan="0" len="24" vol="100" pos="912" key="38"/>
          <note pan="0" len="24" vol="100" pos="936" key="40"/>
        </midiclip>
        <midiclip name="" steps="16" type="1" muted="0" pos="4032">
          <note pan="0" len="48" vol="100" pos="0" key="32"/>
          <note pan="0" len="24" vol="100" pos="48" key="35"/>
          <note pan="0" len="48" vol="100" pos="72" key="37"/>
          <note pan="0" len="24" vol="100" pos="120" key="35"/>
          <note pan="0" len="24" vol="100" pos="144" key="39"/>
          <note pan="0" len="24" vol="100" pos="168" key="37"/>
          <note pan="0" len="24" vol="100" pos="192" key="35"/>
          <note pan="0" len="24" vol="100" pos="216" key="37"/>
          <note pan="0" len="48" vol="100" pos="240" key="32"/>
          <note pan="0" len="24" vol="100" pos="288" key="35"/>
          <note pan="0" len="48" vol="100" pos="312" key="37"/>
          <note pan="0" len="24" vol="100" pos="360" key="35"/>
          <note pan="0" len="24" vol="100" pos="384" key="39"/>
          <note pan="0" len="24" vol="100" pos="408" key="37"/>
          <note pan="0" len="24" vol="100" pos="432" key="35"/>
          <note pan="0" len="24" vol="100" pos="456" key="37"/>
          <note pan="0" len="48" vol="100" pos="480" key="35"/>
          <note pan="0" len="24" vol="100" pos="528" key="38"/>
          <note pan="0" len="48" vol="100" pos="552" key="40"/>
          <note pan="0" len="24" vol="100" pos="600" key="38"/>
          <note pan="0" len="24" vol="100" pos="624" key="41"/>
          <note pan="0" len="24" vol="100" pos="648" key="40"/>
          <note pan="0" len="24" vol="100" pos="672" key="38"/>
          <note pan="0" len="24" vol="100" pos="696" key="40"/>
          <note pan="0" len="48" vol="100" pos="720" key="35"/>
          <note pan="0" len="24" vol="100" pos="768" key="38"/>
          <note pan="0" len="48" vol="100" pos="792" key="40"/>
          <note pan="0" len="24" vol="100" pos="840" key="38"/>
          <note pan="0" len="24" vol="100" pos="864" key="41"/>
          <note pan="0" len="24" vol="100" pos="888" key="40"/>
          <note pan="0" len="24" vol="100" pos="912" key="38"/>
          <note pan="0" len="24" vol="100" pos="936" key="40"/>
        </midiclip>
        <midiclip name="" steps="16" type="1" muted="0" pos="6720">
          <note pan="0" len="144" vol="100" pos="0" key="33"/>
          <note pan="0" len="240" vol="100" pos="144" key="35"/>
          <note pan="0" len="144" vol="100" pos="384" key="42"/>
          <note pan="0" len="240" vol="100" pos="528" key="35"/>
          <note pan="0" len="144" vol="100" pos="768" key="33"/>
          <note pan="0" len="240" vol="100" pos="912" key="39"/>
          <note pan="0" len="144" vol="100" pos="1152" key="35"/>
          <note pan="0" len="624" vol="100" pos="1296" key="30"/>
        </midiclip>
        <midiclip name="" steps="16" type="1" muted="0" pos="6144">
          <note pan="0" len="36" vol="100" pos="0" key="37"/>
          <note pan="0" len="36" vol="100" pos="36" key="32"/>
          <note pan="0" len="36" vol="100" pos="72" key="37"/>
          <note pan="0" len="36" vol="100" pos="108" key="32"/>
          <note pan="0" len="36" vol="100" pos="144" key="37"/>
          <note pan="0" len="36" vol="100" pos="180" key="32"/>
          <note pan="0" len="36" vol="100" pos="216" key="37"/>
          <note pan="0" len="36" vol="100" pos="252" key="29"/>
          <note pan="0" len="36" vol="100" pos="288" key="37"/>
          <note pan="0" len="36" vol="100" pos="324" key="32"/>
          <note pan="0" len="24" vol="100" pos="360" key="37"/>
          <note pan="0" len="192" vol="100" pos="384" key="25"/>
        </midiclip>
        <midiclip name="" steps="16" type="1" muted="0" pos="960">
          <note pan="0" len="144" vol="100" pos="0" key="32"/>
          <note pan="0" len="12" vol="100" pos="144" key="32"/>
          <note pan="0" len="12" vol="100" pos="168" key="32"/>
        </midiclip>
        <midiclip name="" steps="16" type="1" muted="0" pos="0">
          <note pan="0" len="72" vol="100" pos="0" key="32"/>
          <note pan="0" len="72" vol="100" pos="72" key="35"/>
          <note pan="0" len="48" vol="100" pos="144" key="37"/>
          <note pan="0" len="36" vol="100" pos="192" key="42"/>
          <note pan="0" len="72" vol="100" pos="240" key="32"/>
          <note pan="0" len="72" vol="100" pos="312" key="35"/>
          <note pan="0" len="48" vol="100" pos="384" key="37"/>
          <note pan="0" len="72" vol="100" pos="480" key="33"/>
          <note pan="0" len="72" vol="100" pos="552" key="37"/>
          <note pan="0" len="48" vol="100" pos="624" key="38"/>
          <note pan="0" len="36" vol="100" pos="672" key="37"/>
          <note pan="0" len="72" vol="100" pos="720" key="33"/>
          <note pan="0" len="72" vol="100" pos="792" key="37"/>
          <note pan="0" len="48" vol="100" pos="864" key="38"/>
        </midiclip>
        <midiclip name="" steps="16" type="1" muted="0" pos="2688">
          <note pan="0" len="120" vol="100" pos="0" key="32"/>
          <note pan="0" len="12" vol="100" pos="144" key="32"/>
          <note pan="0" len="72" vol="100" pos="168" key="32"/>
          <note pan="0" len="24" vol="100" pos="264" key="32"/>
          <note pan="0" len="24" vol="100" pos="312" key="32"/>
          <note pan="0" len="12" vol="100" pos="360" key="32"/>
        </midiclip>
        <midiclip name="" steps="16" type="1" muted="0" pos="1152">
          <note pan="0" len="12" vol="100" pos="0" key="32"/>
          <note pan="0" len="12" vol="100" pos="24" key="32"/>
          <note pan="0" len="12" vol="100" pos="48" key="32"/>
          <note pan="0" len="12" vol="100" pos="72" key="32"/>
          <note pan="0" len="12" vol="100" pos="96" key="32"/>
          <note pan="0" len="12" vol="100" pos="120" key="32"/>
          <note pan="0" len="12" vol="100" pos="144" key="32"/>
          <note pan="0" len="12" vol="100" pos="168" key="37"/>
          <note pan="0" len="12" vol="100" pos="192" key="37"/>
          <note pan="0" len="12" vol="100" pos="216" key="37"/>
          <note pan="0" len="12" vol="100" pos="240" key="37"/>
          <note pan="0" len="12" vol="100" pos="264" key="37"/>
          <note pan="0" len="12" vol="100" pos="288" key="37"/>
          <note pan="0" len="12" vol="100" pos="312" key="37"/>
          <note pan="0" len="12" vol="100" pos="336" key="37"/>
          <note pan="0" len="12" vol="100" pos="360" key="32"/>
          <note pan="0" len="12" vol="100" pos="384" key="25"/>
          <note pan="0" len="12" vol="100" pos="408" key="25"/>
          <note pan="0" len="12" vol="100" pos="432" key="25"/>
          <note pan="0" len="12" vol="100" pos="456" key="25"/>
          <note pan="0" len="12" vol="100" pos="480" key="25"/>
          <note pan="0" len="12" vol="100" pos="504" key="23"/>
          <note pan="0" len="12" vol="100" pos="528" key="23"/>
          <note pan="0" len="12" vol="100" pos="552" key="27"/>
          <note pan="0" len="12" vol="100" pos="576" key="27"/>
          <note pan="0" len="12" vol="100" pos="600" key="27"/>
          <note pan="0" len="12" vol="100" pos="624" key="27"/>
          <note pan="0" len="12" vol="100" pos="648" key="27"/>
          <note pan="0" len="12" vol="100" pos="672" key="27"/>
          <note pan="0" len="12" vol="100" pos="696" key="29"/>
          <note pan="0" len="12" vol="100" pos="720" key="30"/>
          <note pan="0" len="12" vol="100" pos="744" key="32"/>
          <note pan="0" len="12" vol="100" pos="768" key="32"/>
          <note pan="0" len="12" vol="100" pos="792" key="32"/>
          <note pan="0" len="12" vol="100" pos="816" key="32"/>
          <note pan="0" len="12" vol="100" pos="840" key="32"/>
          <note pan="0" len="12" vol="100" pos="864" key="32"/>
          <note pan="0" len="12" vol="100" pos="888" key="32"/>
          <note pan="0" len="12" vol="100" pos="912" key="32"/>
          <note pan="0" len="12" vol="100" pos="936" key="37"/>
          <note pan="0" len="12" vol="100" pos="960" key="37"/>
          <note pan="0" len="12" vol="100" pos="984" key="37"/>
          <note pan="0" len="12" vol="100" pos="1008" key="37"/>
          <note pan="0" len="12" vol="100" pos="1032" key="37"/>
          <note pan="0" len="12" vol="100" pos="1056" key="37"/>
          <note pan="0" len="12" vol="100" pos="1080" key="37"/>
          <note pan="0" len="12" vol="100" pos="1104" key="37"/>
          <note pan="0" len="12" vol="100" pos="1128" key="32"/>
          <note pan="0" len="12" vol="100" pos="1152" key="25"/>
          <note pan="0" len="12" vol="100" pos="1176" key="25"/>
          <note pan="0" len="12" vol="100" pos="1200" key="25"/>
          <note pan="0" len="12" vol="100" pos="1224" key="25"/>
          <note pan="0" len="12" vol="100" pos="1248" key="25"/>
          <note pan="0" len="12" vol="100" pos="1272" key="23"/>
          <note pan="0" len="12" vol="100" pos="1296" key="23"/>
          <note pan="0" len="12" vol="100" pos="1320" key="27"/>
          <note pan="0" len="12" vol="100" pos="1344" key="27"/>
          <note pan="0" len="12" vol="100" pos="1368" key="27"/>
          <note pan="0" len="36" vol="100" pos="1392" key="27"/>
          <note pan="0" len="36" vol="100" pos="1440" key="34"/>
          <note pan="0" len="36" vol="100" pos="1488" key="37"/>
        </midiclip>
        <midiclip name="" steps="16" type="1" muted="0" pos="5760">
          <note pan="0" len="36" vol="100" pos="0" key="38"/>
          <note pan="0" len="36" vol="100" pos="36" key="33"/>
          <note pan="0" len="36" vol="100" pos="72" key="38"/>
          <note pan="0" len="36" vol="100" pos="108" key="30"/>
          <note pan="0" len="36" vol="100" pos="144" key="38"/>
          <note pan="0" len="36" vol="100" pos="180" key="33"/>
          <note pan="0" len="36" vol="100" pos="216" key="38"/>
          <note pan="0" len="36" vol="100" pos="252" key="26"/>
          <note pan="0" len="36" vol="100" pos="288" key="38"/>
          <note pan="0" len="36" vol="100" pos="324" key="33"/>
          <note pan="0" len="24" vol="100" pos="360" key="38"/>
        </midiclip>
        <midiclip name="" steps="16" type="1" muted="0" pos="5376">
          <note pan="0" len="36" vol="100" pos="0" key="40"/>
          <note pan="0" len="36" vol="100" pos="36" key="28"/>
          <note pan="0" len="36" vol="100" pos="72" key="35"/>
          <note pan="0" len="36" vol="100" pos="108" key="28"/>
          <note pan="0" len="36" vol="100" pos="144" key="40"/>
          <note pan="0" len="36" vol="100" pos="180" key="35"/>
          <note pan="0" len="36" vol="100" pos="216" key="28"/>
          <note pan="0" len="36" vol="100" pos="252" key="35"/>
          <note pan="0" len="36" vol="100" pos="288" key="40"/>
          <note pan="0" len="36" vol="100" pos="324" key="33"/>
          <note pan="0" len="24" vol="100" pos="360" key="40"/>
        </midiclip>
        <midiclip name="" steps="16" type="1" muted="0" pos="4992">
          <note pan="0" len="36" vol="100" pos="0" key="42"/>
          <note pan="0" len="36" vol="100" pos="36" key="30"/>
          <note pan="0" len="36" vol="100" pos="72" key="37"/>
          <note pan="0" len="36" vol="100" pos="108" key="30"/>
          <note pan="0" len="36" vol="100" pos="144" key="42"/>
          <note pan="0" len="36" vol="100" pos="180" key="30"/>
          <note pan="0" len="36" vol="100" pos="216" key="37"/>
          <note pan="0" len="36" vol="100" pos="252" key="30"/>
          <note pan="0" len="36" vol="100" pos="288" key="37"/>
          <note pan="0" len="36" vol="100" pos="324" key="33"/>
          <note pan="0" len="24" vol="100" pos="360" key="42"/>
        </midiclip>
      </track>
      <track name="Bass>Pitch" mutedBeforeSolo="0" type="5" muted="0" solo="0">
        <automationtrack/>
        <automationclip name="Bass>Pitch" mute="0" len="192" tens="1" prog="1" pos="192">
          <time outValue="0" value="0" pos="0"/>
          <time outValue="0" value="0" pos="12"/>
          <time outValue="-300" value="-300" pos="36"/>
          <time outValue="-300" value="-300" pos="47"/>
          <time outValue="0" value="0" pos="48"/>
          <object id="20308"/>
          <object id="29480"/>
        </automationclip>
        <automationclip name="Bass>Pitch" mute="0" len="192" tens="1" prog="1" pos="576">
          <time outValue="0" value="0" pos="0"/>
          <time outValue="0" value="0" pos="96"/>
          <time outValue="0" value="0" pos="108"/>
          <time outValue="-200" value="-200" pos="132"/>
          <time outValue="-200" value="-200" pos="143"/>
          <time outValue="0" value="0" pos="144"/>
          <object id="20308"/>
          <object id="29480"/>
          <object id="20308"/>
          <object id="29480"/>
          <object id="20308"/>
          <object id="29480"/>
          <object id="20308"/>
          <object id="29480"/>
          <object id="20308"/>
          <object id="29480"/>
        </automationclip>
        <automationclip name="Bass>Pitch" mute="0" len="192" tens="1" prog="0" pos="0">
          <time outValue="0" value="0" pos="0"/>
          <object id="29480"/>
          <object id="20308"/>
        </automationclip>
      </track>
      <track name="Piano" mutedBeforeSolo="0" type="0" muted="0" solo="0">
        <instrumenttrack scale="0" pan="0" enabled="0" keymap="0" enablecc="0" range_import="1" usemasterpitch="1" basenote="69" lastkey="127" pitch="0" firstkey="0" pitchrange="12" mixch="6">
          <vol id="16429" value="100" scale_type="linear"/>
          <midicontrollers cc59="0" cc89="0" cc29="0" cc88="0" cc90="0" cc57="0" cc44="0" cc67="0" cc97="0" cc119="0" cc62="0" cc73="0" cc99="0" cc27="0" cc15="0" cc102="0" cc126="0" cc23="0" cc32="0" cc103="0" cc114="0" cc116="0" cc0="0" cc37="0" cc26="0" cc4="0" cc101="0" cc78="0" cc100="0" cc66="0" cc55="0" cc16="0" cc71="0" cc61="0" cc6="0" cc7="0" cc113="0" cc76="0" cc93="0" cc38="0" cc28="0" cc91="0" cc5="0" cc86="0" cc18="0" cc24="0" cc75="0" cc115="0" cc117="0" cc79="0" cc85="0" cc60="0" cc48="0" cc74="0" cc120="0" cc122="0" cc36="0" cc104="0" cc8="0" cc49="0" cc118="0" cc40="0" cc50="0" cc96="0" cc77="0" cc3="0" cc83="0" cc41="0" cc124="0" cc1="0" cc112="0" cc56="0" cc125="0" cc94="0" cc108="0" cc46="0" cc69="0" cc42="0" cc68="0" cc2="0" cc12="0" cc107="0" cc17="0" cc54="0" cc64="0" cc31="0" cc30="0" cc43="0" cc20="0" cc72="0" cc51="0" cc35="0" cc58="0" cc19="0" cc123="0" cc9="0" cc106="0" cc82="0" cc65="0" cc110="0" cc47="0" cc87="0" cc84="0" cc53="0" cc22="0" cc34="0" cc63="0" cc39="0" cc13="0" cc33="0" cc92="0" cc81="0" cc105="0" cc95="0" cc121="0" cc111="0" cc11="0" cc52="0" cc14="0" cc45="0" cc21="0" cc109="0" cc10="0" cc25="0" cc98="0" cc70="0" cc80="0" cc127="0"/>
          <instrument name="sf2player">
            <sf2player reverbRoomSize="0.2" chorusDepth="8" patch="0" chorusSpeed="0.3" reverbOn="0" src="usersoundfont:SGM-V2.01.sf2" reverbDamping="0" chorusLevel="2" bank="0" reverbLevel="0.9" chorusNum="3" reverbWidth="0.5" chorusOn="0" gain="0.9">
              <key/>
            </sf2player>
          </instrument>
          <eldata fwet="0" fcut="14000" fres="0.5" ftype="0">
            <elvol lspd_denominator="4" dec="0.5" latt="0" sustain="0.5" lspd_syncmode="0" ctlenvamt="0" att="0" lshp="0" x100="0" lamt="0" lspd_numerator="4" hold="0.5" rel="0.1" pdel="0" lspd="0.1" amt="0" lpdel="0" userwavefile=""/>
            <elcut lspd_denominator="4" dec="0.5" latt="0" sustain="0.5" lspd_syncmode="0" ctlenvamt="0" att="0" lshp="0" x100="0" lamt="0" lspd_numerator="4" hold="0.5" rel="0.1" pdel="0" lspd="0.1" amt="0" lpdel="0" userwavefile=""/>
            <elres lspd_denominator="4" dec="0.5" latt="0" sustain="0.5" lspd_syncmode="0" ctlenvamt="0" att="0" lshp="0" x100="0" lamt="0" lspd_numerator="4" hold="0.5" rel="0.1" pdel="0" lspd="0.1" amt="0" lpdel="0" userwavefile=""/>
          </eldata>
          <chordcreator chord-enabled="0" chordrange="1" chord="0"/>
          <arpeggiator arp="0" arptime_syncmode="0" arpcycle="0" arprepeats="1" arptime="200" arptime_denominator="4" arpmode="0" arptime_numerator="4" arp-enabled="0" arprange="1" arpgate="100" arpskip="0" arpmiss="0" arpdir="0"/>
          <midiport inputcontroller="0" fixedoutputnote="-1" outputprogram="1" outputchannel="1" readable="1" fixedoutputvelocity="-1" inputchannel="0" writable="0" outputcontroller="0" fixedinputvelocity="-1" basevelocity="127" inports=""/>
          <fxchain enabled="0" numofeffects="0"/>
        </instrumenttrack>
        <midiclip name="" steps="16" type="1" muted="0" pos="4032">
          <note pan="0" len="18" vol="100" pos="0" key="75"/>
          <note pan="0" len="18" vol="100" pos="0" key="71"/>
          <note pan="0" len="18" vol="100" pos="0" key="68"/>
          <note pan="0" len="24" vol="100" pos="24" key="56"/>
          <note pan="0" len="24" vol="100" pos="48" key="51"/>
          <note pan="0" len="18" vol="100" pos="72" key="74"/>
          <note pan="0" len="18" vol="100" pos="72" key="70"/>
          <note pan="0" len="18" vol="100" pos="72" key="66"/>
          <note pan="0" len="24" vol="100" pos="120" key="54"/>
          <note pan="0" len="18" vol="100" pos="144" key="73"/>
          <note pan="0" len="18" vol="100" pos="144" key="68"/>
          <note pan="0" len="18" vol="100" pos="144" key="66"/>
          <note pan="0" len="24" vol="100" pos="168" key="56"/>
          <note pan="0" len="18" vol="100" pos="192" key="63"/>
          <note pan="0" len="18" vol="100" pos="216" key="66"/>
          <note pan="0" len="18" vol="100" pos="240" key="75"/>
          <note pan="0" len="18" vol="100" pos="240" key="71"/>
          <note pan="0" len="18" vol="100" pos="240" key="68"/>
          <note pan="0" len="24" vol="100" pos="264" key="56"/>
          <note pan="0" len="24" vol="100" pos="288" key="51"/>
          <note pan="0" len="18" vol="100" pos="312" key="74"/>
          <note pan="0" len="18" vol="100" pos="312" key="68"/>
          <note pan="0" len="18" vol="100" pos="312" key="66"/>
          <note pan="0" len="24" vol="100" pos="360" key="54"/>
          <note pan="0" len="18" vol="100" pos="384" key="73"/>
          <note pan="0" len="18" vol="100" pos="384" key="70"/>
          <note pan="0" len="18" vol="100" pos="384" key="68"/>
          <note pan="0" len="18" vol="100" pos="408" key="66"/>
          <note pan="0" len="18" vol="100" pos="432" key="63"/>
          <note pan="0" len="18" vol="100" pos="456" key="66"/>
          <note pan="0" len="18" vol="100" pos="480" key="74"/>
          <note pan="0" len="18" vol="100" pos="480" key="71"/>
          <note pan="0" len="18" vol="100" pos="480" key="69"/>
          <note pan="0" len="24" vol="100" pos="504" key="59"/>
          <note pan="0" len="24" vol="100" pos="528" key="54"/>
          <note pan="0" len="18" vol="100" pos="552" key="73"/>
          <note pan="0" len="18" vol="100" pos="552" key="71"/>
          <note pan="0" len="18" vol="100" pos="552" key="69"/>
          <note pan="0" len="24" vol="100" pos="600" key="57"/>
          <note pan="0" len="18" vol="100" pos="624" key="74"/>
          <note pan="0" len="18" vol="100" pos="624" key="71"/>
          <note pan="0" len="18" vol="100" pos="624" key="69"/>
          <note pan="0" len="24" vol="100" pos="648" key="54"/>
          <note pan="0" len="18" vol="100" pos="672" key="66"/>
          <note pan="0" len="18" vol="100" pos="696" key="68"/>
          <note pan="0" len="18" vol="100" pos="720" key="74"/>
          <note pan="0" len="18" vol="100" pos="720" key="71"/>
          <note pan="0" len="18" vol="100" pos="720" key="69"/>
          <note pan="0" len="24" vol="100" pos="744" key="59"/>
          <note pan="0" len="24" vol="100" pos="768" key="54"/>
          <note pan="0" len="18" vol="100" pos="792" key="73"/>
          <note pan="0" len="18" vol="100" pos="792" key="71"/>
          <note pan="0" len="18" vol="100" pos="792" key="69"/>
          <note pan="0" len="24" vol="100" pos="840" key="57"/>
          <note pan="0" len="18" vol="100" pos="864" key="74"/>
          <note pan="0" len="18" vol="100" pos="864" key="71"/>
          <note pan="0" len="18" vol="100" pos="864" key="69"/>
          <note pan="0" len="18" vol="100" pos="888" key="64"/>
          <note pan="0" len="18" vol="100" pos="912" key="66"/>
          <note pan="0" len="18" vol="100" pos="936" key="69"/>
        </midiclip>
        <midiclip name="" steps="16" type="1" muted="0" pos="4992">
          <note pan="0" len="48" vol="100" pos="0" key="78"/>
          <note pan="0" len="48" vol="100" pos="0" key="73"/>
          <note pan="0" len="48" vol="100" pos="0" key="69"/>
          <note pan="0" len="48" vol="100" pos="72" key="78"/>
          <note pan="0" len="48" vol="100" pos="72" key="73"/>
          <note pan="0" len="48" vol="100" pos="72" key="69"/>
          <note pan="0" len="48" vol="100" pos="144" key="78"/>
          <note pan="0" len="48" vol="100" pos="144" key="73"/>
          <note pan="0" len="48" vol="100" pos="144" key="69"/>
        </midiclip>
        <midiclip name="" steps="16" type="1" muted="0" pos="5184">
          <note pan="0" len="48" vol="100" pos="0" key="78"/>
          <note pan="0" len="48" vol="100" pos="0" key="73"/>
          <note pan="0" len="48" vol="100" pos="0" key="69"/>
          <note pan="0" len="48" vol="100" pos="72" key="78"/>
          <note pan="0" len="48" vol="100" pos="72" key="73"/>
          <note pan="0" len="48" vol="100" pos="72" key="69"/>
          <note pan="0" len="48" vol="100" pos="144" key="78"/>
          <note pan="0" len="48" vol="100" pos="144" key="73"/>
          <note pan="0" len="48" vol="100" pos="144" key="69"/>
        </midiclip>
        <midiclip name="" steps="16" type="1" muted="0" pos="5376">
          <note pan="0" len="48" vol="100" pos="0" key="78"/>
          <note pan="0" len="48" vol="100" pos="0" key="73"/>
          <note pan="0" len="48" vol="100" pos="0" key="69"/>
          <note pan="0" len="48" vol="100" pos="72" key="78"/>
          <note pan="0" len="48" vol="100" pos="72" key="73"/>
          <note pan="0" len="48" vol="100" pos="72" key="69"/>
          <note pan="0" len="48" vol="100" pos="144" key="78"/>
          <note pan="0" len="48" vol="100" pos="144" key="73"/>
          <note pan="0" len="48" vol="100" pos="144" key="69"/>
        </midiclip>
        <midiclip name="" steps="16" type="1" muted="0" pos="5568">
          <note pan="0" len="48" vol="100" pos="0" key="69"/>
          <note pan="0" len="48" vol="100" pos="0" key="66"/>
          <note pan="0" len="48" vol="100" pos="0" key="61"/>
          <note pan="0" len="48" vol="100" pos="72" key="73"/>
          <note pan="0" len="48" vol="100" pos="72" key="69"/>
          <note pan="0" len="48" vol="100" pos="72" key="66"/>
          <note pan="0" len="48" vol="100" pos="144" key="76"/>
          <note pan="0" len="48" vol="100" pos="144" key="73"/>
          <note pan="0" len="48" vol="100" pos="144" key="69"/>
        </midiclip>
        <midiclip name="" steps="16" type="1" muted="0" pos="5760">
          <note pan="0" len="48" vol="100" pos="0" key="74"/>
          <note pan="0" len="48" vol="100" pos="0" key="69"/>
          <note pan="0" len="48" vol="100" pos="0" key="66"/>
          <note pan="0" len="48" vol="100" pos="72" key="74"/>
          <note pan="0" len="48" vol="100" pos="72" key="69"/>
          <note pan="0" len="48" vol="100" pos="72" key="66"/>
          <note pan="0" len="48" vol="100" pos="144" key="74"/>
          <note pan="0" len="48" vol="100" pos="144" key="69"/>
          <note pan="0" len="48" vol="100" pos="144" key="66"/>
        </midiclip>
        <midiclip name="" steps="16" type="1" muted="0" pos="5952">
          <note pan="0" len="48" vol="100" pos="0" key="74"/>
          <note pan="0" len="48" vol="100" pos="0" key="69"/>
          <note pan="0" len="48" vol="100" pos="0" key="66"/>
          <note pan="0" len="48" vol="100" pos="72" key="74"/>
          <note pan="0" len="48" vol="100" pos="72" key="69"/>
          <note pan="0" len="48" vol="100" pos="72" key="66"/>
          <note pan="0" len="48" vol="100" pos="144" key="74"/>
          <note pan="0" len="48" vol="100" pos="144" key="69"/>
          <note pan="0" len="48" vol="100" pos="144" key="66"/>
        </midiclip>
        <midiclip name="" steps="16" type="1" muted="0" pos="6144">
          <note pan="0" len="48" vol="100" pos="0" key="74"/>
          <note pan="0" len="48" vol="100" pos="0" key="71"/>
          <note pan="0" len="48" vol="100" pos="0" key="68"/>
          <note pan="0" len="48" vol="100" pos="72" key="74"/>
          <note pan="0" len="48" vol="100" pos="72" key="71"/>
          <note pan="0" len="48" vol="100" pos="72" key="68"/>
          <note pan="0" len="48" vol="100" pos="144" key="74"/>
          <note pan="0" len="48" vol="100" pos="144" key="71"/>
          <note pan="0" len="48" vol="100" pos="144" key="68"/>
        </midiclip>
        <midiclip name="" steps="16" type="1" muted="0" pos="6336">
          <note pan="0" len="384" vol="100" pos="0" key="73"/>
          <note pan="0" len="384" vol="100" pos="0" key="68"/>
          <note pan="0" len="384" vol="100" pos="0" key="65"/>
        </midiclip>
        <midiclip name="" steps="16" type="1" muted="0" pos="6720">
          <note pan="0" len="144" vol="100" pos="0" key="59"/>
          <note pan="0" len="144" vol="100" pos="0" key="57"/>
          <note pan="0" len="144" vol="100" pos="0" key="52"/>
          <note pan="0" len="240" vol="100" pos="144" key="63"/>
          <note pan="0" len="240" vol="100" pos="144" key="59"/>
          <note pan="0" len="240" vol="100" pos="144" key="54"/>
          <note pan="0" len="144" vol="100" pos="384" key="61"/>
          <note pan="0" len="144" vol="100" pos="384" key="58"/>
          <note pan="0" len="144" vol="100" pos="384" key="54"/>
          <note pan="0" len="240" vol="100" pos="528" key="59"/>
          <note pan="0" len="240" vol="100" pos="528" key="57"/>
          <note pan="0" len="240" vol="100" pos="528" key="52"/>
          <note pan="0" len="144" vol="100" pos="768" key="57"/>
          <note pan="0" len="144" vol="100" pos="768" key="54"/>
          <note pan="0" len="144" vol="100" pos="768" key="52"/>
          <note pan="0" len="240" vol="100" pos="912" key="59"/>
          <note pan="0" len="240" vol="100" pos="912" key="54"/>
          <note pan="0" len="240" vol="100" pos="912" key="51"/>
          <note pan="0" len="144" vol="100" pos="1152" key="59"/>
          <note pan="0" len="144" vol="100" pos="1152" key="57"/>
          <note pan="0" len="144" vol="100" pos="1152" key="52"/>
          <note pan="0" len="624" vol="100" pos="1296" key="61"/>
          <note pan="0" len="624" vol="100" pos="1296" key="58"/>
          <note pan="0" len="624" vol="100" pos="1296" key="54"/>
        </midiclip>
        <midiclip name="" steps="16" type="1" muted="0" pos="0">
          <note pan="0" len="18" vol="100" pos="0" key="75"/>
          <note pan="0" len="18" vol="100" pos="0" key="71"/>
          <note pan="0" len="18" vol="100" pos="0" key="68"/>
          <note pan="0" len="24" vol="100" pos="0" key="32"/>
          <note pan="0" len="24" vol="100" pos="24" key="56"/>
          <note pan="0" len="24" vol="100" pos="48" key="51"/>
          <note pan="0" len="42" vol="100" pos="72" key="74"/>
          <note pan="0" len="42" vol="100" pos="72" key="70"/>
          <note pan="0" len="42" vol="100" pos="72" key="66"/>
          <note pan="0" len="36" vol="100" pos="72" key="35"/>
          <note pan="0" len="24" vol="100" pos="120" key="54"/>
          <note pan="0" len="18" vol="100" pos="144" key="73"/>
          <note pan="0" len="18" vol="100" pos="144" key="68"/>
          <note pan="0" len="18" vol="100" pos="144" key="66"/>
          <note pan="0" len="48" vol="100" pos="144" key="37"/>
          <note pan="0" len="24" vol="100" pos="168" key="56"/>
          <note pan="0" len="18" vol="100" pos="192" key="63"/>
          <note pan="0" len="24" vol="100" pos="192" key="39"/>
          <note pan="0" len="18" vol="100" pos="216" key="66"/>
          <note pan="0" len="24" vol="100" pos="216" key="42"/>
          <note pan="0" len="18" vol="100" pos="240" key="75"/>
          <note pan="0" len="18" vol="100" pos="240" key="71"/>
          <note pan="0" len="18" vol="100" pos="240" key="68"/>
          <note pan="0" len="24" vol="100" pos="240" key="32"/>
          <note pan="0" len="24" vol="100" pos="264" key="56"/>
          <note pan="0" len="24" vol="100" pos="288" key="51"/>
          <note pan="0" len="42" vol="100" pos="312" key="74"/>
          <note pan="0" len="42" vol="100" pos="312" key="68"/>
          <note pan="0" len="42" vol="100" pos="312" key="66"/>
          <note pan="0" len="36" vol="100" pos="312" key="35"/>
          <note pan="0" len="24" vol="100" pos="360" key="54"/>
          <note pan="0" len="18" vol="100" pos="384" key="73"/>
          <note pan="0" len="18" vol="100" pos="384" key="70"/>
          <note pan="0" len="18" vol="100" pos="384" key="68"/>
          <note pan="0" len="48" vol="100" pos="384" key="37"/>
          <note pan="0" len="18" vol="100" pos="408" key="66"/>
          <note pan="0" len="18" vol="100" pos="432" key="63"/>
          <note pan="0" len="24" vol="100" pos="432" key="42"/>
          <note pan="0" len="18" vol="100" pos="456" key="66"/>
          <note pan="0" len="24" vol="100" pos="456" key="45"/>
          <note pan="0" len="18" vol="100" pos="480" key="74"/>
          <note pan="0" len="18" vol="100" pos="480" key="71"/>
          <note pan="0" len="18" vol="100" pos="480" key="69"/>
          <note pan="0" len="24" vol="100" pos="480" key="38"/>
          <note pan="0" len="24" vol="100" pos="504" key="59"/>
          <note pan="0" len="24" vol="100" pos="528" key="54"/>
          <note pan="0" len="42" vol="100" pos="552" key="73"/>
          <note pan="0" len="42" vol="100" pos="552" key="71"/>
          <note pan="0" len="42" vol="100" pos="552" key="69"/>
          <note pan="0" len="36" vol="100" pos="552" key="37"/>
          <note pan="0" len="24" vol="100" pos="600" key="57"/>
          <note pan="0" len="18" vol="100" pos="624" key="74"/>
          <note pan="0" len="18" vol="100" pos="624" key="69"/>
          <note pan="0" len="18" vol="100" pos="624" key="66"/>
          <note pan="0" len="48" vol="100" pos="624" key="38"/>
          <note pan="0" len="24" vol="100" pos="648" key="54"/>
          <note pan="0" len="18" vol="100" pos="672" key="66"/>
          <note pan="0" len="24" vol="100" pos="672" key="42"/>
          <note pan="0" len="18" vol="100" pos="696" key="68"/>
          <note pan="0" len="24" vol="100" pos="696" key="44"/>
          <note pan="0" len="18" vol="100" pos="720" key="74"/>
          <note pan="0" len="18" vol="100" pos="720" key="71"/>
          <note pan="0" len="18" vol="100" pos="720" key="69"/>
          <note pan="0" len="24" vol="100" pos="720" key="38"/>
          <note pan="0" len="24" vol="100" pos="744" key="59"/>
          <note pan="0" len="24" vol="100" pos="768" key="54"/>
          <note pan="0" len="42" vol="100" pos="792" key="76"/>
          <note pan="0" len="42" vol="100" pos="792" key="73"/>
          <note pan="0" len="42" vol="100" pos="792" key="71"/>
          <note pan="0" len="36" vol="100" pos="792" key="37"/>
          <note pan="0" len="24" vol="100" pos="840" key="57"/>
          <note pan="0" len="18" vol="100" pos="864" key="78"/>
          <note pan="0" len="18" vol="100" pos="864" key="74"/>
          <note pan="0" len="18" vol="100" pos="864" key="71"/>
          <note pan="0" len="48" vol="100" pos="864" key="38"/>
          <note pan="0" len="18" vol="100" pos="888" key="64"/>
          <note pan="0" len="18" vol="100" pos="912" key="66"/>
          <note pan="0" len="24" vol="100" pos="912" key="42"/>
          <note pan="0" len="18" vol="100" pos="936" key="69"/>
          <note pan="0" len="24" vol="100" pos="936" key="45"/>
        </midiclip>
        <midiclip name="" steps="16" type="1" muted="0" pos="960">
          <note pan="0" len="144" vol="100" pos="0" key="71"/>
          <note pan="0" len="144" vol="100" pos="0" key="68"/>
          <note pan="0" len="144" vol="100" pos="0" key="66"/>
          <note pan="0" len="144" vol="100" pos="0" key="63"/>
          <note pan="0" len="144" vol="100" pos="0" key="32"/>
        </midiclip>
        <midiclip name="" steps="16" type="1" muted="0" pos="1152">
          <note pan="0" len="168" vol="100" pos="0" key="75"/>
          <note pan="0" len="24" vol="100" pos="48" key="83"/>
          <note pan="0" len="48" vol="100" pos="72" key="82"/>
          <note pan="0" len="48" vol="100" pos="120" key="80"/>
          <note pan="0" len="216" vol="100" pos="168" key="78"/>
          <note pan="0" len="48" vol="100" pos="216" key="80"/>
          <note pan="0" len="48" vol="100" pos="264" key="82"/>
          <note pan="0" len="72" vol="100" pos="312" key="83"/>
          <note pan="0" len="168" vol="100" pos="384" key="73"/>
          <note pan="0" len="24" vol="100" pos="432" key="77"/>
          <note pan="0" len="48" vol="100" pos="456" key="80"/>
          <note pan="0" len="48" vol="100" pos="504" key="83"/>
          <note pan="0" len="72" vol="100" pos="552" key="82"/>
          <note pan="0" len="192" vol="100" pos="552" key="75"/>
          <note pan="0" len="24" vol="100" pos="624" key="83"/>
          <note pan="0" len="48" vol="100" pos="648" key="82"/>
          <note pan="0" len="48" vol="100" pos="696" key="80"/>
          <note pan="0" len="192" vol="100" pos="744" key="75"/>
          <note pan="0" len="24" vol="100" pos="816" key="83"/>
          <note pan="0" len="48" vol="100" pos="840" key="82"/>
          <note pan="0" len="48" vol="100" pos="888" key="80"/>
          <note pan="0" len="216" vol="100" pos="936" key="78"/>
          <note pan="0" len="48" vol="100" pos="984" key="80"/>
          <note pan="0" len="48" vol="100" pos="1032" key="82"/>
          <note pan="0" len="72" vol="100" pos="1080" key="83"/>
          <note pan="0" len="168" vol="100" pos="1152" key="73"/>
          <note pan="0" len="24" vol="100" pos="1200" key="76"/>
          <note pan="0" len="48" vol="100" pos="1224" key="80"/>
          <note pan="0" len="48" vol="100" pos="1272" key="83"/>
          <note pan="0" len="72" vol="100" pos="1320" key="82"/>
          <note pan="0" len="168" vol="100" pos="1320" key="75"/>
          <note pan="0" len="48" vol="100" pos="1392" key="83"/>
          <note pan="0" len="96" vol="100" pos="1440" key="82"/>
          <note pan="0" len="48" vol="100" pos="1488" key="75"/>
        </midiclip>
        <midiclip name="" steps="16" type="1" muted="0" pos="2688">
          <note pan="0" len="384" vol="100" pos="0" key="68"/>
          <note pan="0" len="48" vol="100" pos="144" key="75"/>
          <note pan="0" len="96" vol="100" pos="192" key="78"/>
          <note pan="0" len="96" vol="100" pos="288" key="80"/>
        </midiclip>
      </track>
      <track name="Piano>Volume" mutedBeforeSolo="0" type="5" muted="0" solo="0">
        <automationtrack/>
        <automationclip name="Piano>Volume" mute="0" len="192" tens="1" prog="0" pos="0">
          <time outValue="100" value="100" pos="0"/>
          <object id="16429"/>
        </automationclip>
        <automationclip name="Piano>Volume" mute="0" len="192" tens="1" prog="0" pos="4032">
          <time outValue="100" value="100" pos="0"/>
          <object id="16429"/>
        </automationclip>
        <automationclip name="Piano>Volume" mute="0" len="192" tens="1" prog="0" pos="1152">
          <time outValue="75" value="75" pos="0"/>
          <object id="16429"/>
        </automationclip>
        <automationclip name="Piano>Volume" mute="0" len="384" tens="1" prog="1" pos="2688">
          <time outValue="75" value="75" pos="0"/>
          <time outValue="0" value="0" pos="384"/>
          <object id="16429"/>
        </automationclip>
      </track>
      <track name="Guitar" mutedBeforeSolo="0" type="0" muted="0" solo="0">
        <instrumenttrack scale="0" pan="0" enabled="0" keymap="0" enablecc="0" range_import="1" usemasterpitch="1" basenote="69" lastkey="127" pitch="0" firstkey="0" pitchrange="12" mixch="7">
          <vol id="5908" value="100" scale_type="linear"/>
          <midicontrollers cc59="0" cc89="0" cc29="0" cc88="0" cc90="0" cc57="0" cc44="0" cc67="0" cc97="0" cc119="0" cc62="0" cc73="0" cc99="0" cc27="0" cc15="0" cc102="0" cc126="0" cc23="0" cc32="0" cc103="0" cc114="0" cc116="0" cc0="0" cc37="0" cc26="0" cc4="0" cc101="0" cc78="0" cc100="0" cc66="0" cc55="0" cc16="0" cc71="0" cc61="0" cc6="0" cc7="0" cc113="0" cc76="0" cc93="0" cc38="0" cc28="0" cc91="0" cc5="0" cc86="0" cc18="0" cc24="0" cc75="0" cc115="0" cc117="0" cc79="0" cc85="0" cc60="0" cc48="0" cc74="0" cc120="0" cc122="0" cc36="0" cc104="0" cc8="0" cc49="0" cc118="0" cc40="0" cc50="0" cc96="0" cc77="0" cc3="0" cc83="0" cc41="0" cc124="0" cc1="0" cc112="0" cc56="0" cc125="0" cc94="0" cc108="0" cc46="0" cc69="0" cc42="0" cc68="0" cc2="0" cc12="0" cc107="0" cc17="0" cc54="0" cc64="0" cc31="0" cc30="0" cc43="0" cc20="0" cc72="0" cc51="0" cc35="0" cc58="0" cc19="0" cc123="0" cc9="0" cc106="0" cc82="0" cc65="0" cc110="0" cc47="0" cc87="0" cc84="0" cc53="0" cc22="0" cc34="0" cc63="0" cc39="0" cc13="0" cc33="0" cc92="0" cc81="0" cc105="0" cc95="0" cc121="0" cc111="0" cc11="0" cc52="0" cc14="0" cc45="0" cc21="0" cc109="0" cc10="0" cc25="0" cc98="0" cc70="0" cc80="0" cc127="0"/>
          <instrument name="sf2player">
            <sf2player reverbRoomSize="0.2" chorusDepth="8" patch="24" chorusSpeed="0.3" reverbOn="0" src="usersoundfont:Touhou.sf2" reverbDamping="0" chorusLevel="2" bank="0" reverbLevel="0.9" chorusNum="3" reverbWidth="0.5" chorusOn="0" gain="1.68">
              <key/>
            </sf2player>
          </instrument>
          <eldata fwet="0" fcut="14000" fres="0.5" ftype="0">
            <elvol lspd_denominator="4" dec="0.5" latt="0" sustain="0.5" lspd_syncmode="0" ctlenvamt="0" att="0" lshp="0" x100="0" lamt="0" lspd_numerator="4" hold="0.5" rel="0.1" pdel="0" lspd="0.1" amt="0" lpdel="0" userwavefile=""/>
            <elcut lspd_denominator="4" dec="0.5" latt="0" sustain="0.5" lspd_syncmode="0" ctlenvamt="0" att="0" lshp="0" x100="0" lamt="0" lspd_numerator="4" hold="0.5" rel="0.1" pdel="0" lspd="0.1" amt="0" lpdel="0" userwavefile=""/>
            <elres lspd_denominator="4" dec="0.5" latt="0" sustain="0.5" lspd_syncmode="0" ctlenvamt="0" att="0" lshp="0" x100="0" lamt="0" lspd_numerator="4" hold="0.5" rel="0.1" pdel="0" lspd="0.1" amt="0" lpdel="0" userwavefile=""/>
          </eldata>
          <chordcreator chord-enabled="0" chordrange="1" chord="0"/>
          <arpeggiator arp="0" arptime_syncmode="0" arpcycle="0" arprepeats="1" arptime="200" arptime_denominator="4" arpmode="0" arptime_numerator="4" arp-enabled="0" arprange="1" arpgate="100" arpskip="0" arpmiss="0" arpdir="0"/>
          <midiport inputcontroller="0" fixedoutputnote="-1" outputprogram="1" outputchannel="1" readable="1" fixedoutputvelocity="-1" inputchannel="0" writable="0" outputcontroller="0" fixedinputvelocity="-1" basevelocity="63" inports=""/>
          <fxchain enabled="0" numofeffects="0"/>
        </instrumenttrack>
        <midiclip name="" steps="16" type="1" muted="0" pos="960">
          <note pan="0" len="153" vol="100" pos="183" key="56"/>
          <note pan="0" len="150" vol="100" pos="186" key="59"/>
          <note pan="0" len="147" vol="100" pos="189" key="63"/>
          <note pan="0" len="144" vol="100" pos="192" key="66"/>
          <note pan="0" len="141" vol="100" pos="195" key="68"/>
          <note pan="0" len="138" vol="100" pos="198" key="71"/>
          <note pan="0" len="201" vol="100" pos="351" key="58"/>
          <note pan="0" len="198" vol="100" pos="354" key="61"/>
          <note pan="0" len="195" vol="100" pos="357" key="66"/>
          <note pan="0" len="192" vol="100" pos="360" key="68"/>
          <note pan="0" len="189" vol="100" pos="363" key="70"/>
          <note pan="0" len="186" vol="100" pos="366" key="73"/>
          <note pan="0" len="153" vol="100" pos="567" key="49"/>
          <note pan="0" len="150" vol="100" pos="570" key="53"/>
          <note pan="0" len="147" vol="100" pos="573" key="56"/>
          <note pan="0" len="144" vol="100" pos="576" key="61"/>
          <note pan="0" len="141" vol="100" pos="579" key="65"/>
          <note pan="0" len="138" vol="100" pos="582" key="68"/>
          <note pan="0" len="177" vol="100" pos="735" key="55"/>
          <note pan="0" len="174" vol="100" pos="738" key="58"/>
          <note pan="0" len="171" vol="100" pos="741" key="61"/>
          <note pan="0" len="168" vol="100" pos="744" key="63"/>
          <note pan="0" len="165" vol="100" pos="747" key="67"/>
          <note pan="0" len="162" vol="100" pos="750" key="70"/>
          <note pan="0" len="177" vol="100" pos="927" key="56"/>
          <note pan="0" len="174" vol="100" pos="930" key="61"/>
          <note pan="0" len="171" vol="100" pos="933" key="63"/>
          <note pan="0" len="168" vol="100" pos="936" key="66"/>
          <note pan="0" len="165" vol="100" pos="939" key="68"/>
          <note pan="0" len="162" vol="100" pos="942" key="71"/>
          <note pan="0" len="201" vol="100" pos="1119" key="58"/>
          <note pan="0" len="198" vol="100" pos="1122" key="61"/>
          <note pan="0" len="195" vol="100" pos="1125" key="66"/>
          <note pan="0" len="192" vol="100" pos="1128" key="68"/>
          <note pan="0" len="189" vol="100" pos="1131" key="70"/>
          <note pan="0" len="186" vol="100" pos="1134" key="73"/>
          <note pan="0" len="153" vol="100" pos="1335" key="49"/>
          <note pan="0" len="150" vol="100" pos="1338" key="52"/>
          <note pan="0" len="147" vol="100" pos="1341" key="56"/>
          <note pan="0" len="144" vol="100" pos="1344" key="61"/>
          <note pan="0" len="141" vol="100" pos="1347" key="64"/>
          <note pan="0" len="138" vol="100" pos="1350" key="68"/>
          <note pan="0" len="213" vol="100" pos="1503" key="55"/>
          <note pan="0" len="210" vol="100" pos="1506" key="58"/>
          <note pan="0" len="207" vol="100" pos="1509" key="61"/>
          <note pan="0" len="204" vol="100" pos="1512" key="63"/>
          <note pan="0" len="201" vol="100" pos="1515" key="67"/>
          <note pan="0" len="198" vol="100" pos="1518" key="70"/>
        </midiclip>
        <midiclip name="" steps="16" type="1" muted="0" pos="4992">
          <note pan="0" len="12" vol="100" pos="0" key="66"/>
          <note pan="0" len="12" vol="100" pos="12" key="73"/>
          <note pan="0" len="12" vol="100" pos="24" key="78"/>
          <note pan="0" len="12" vol="100" pos="36" key="73"/>
          <note pan="0" len="12" vol="100" pos="48" key="76"/>
          <note pan="0" len="12" vol="100" pos="60" key="78"/>
          <note pan="0" len="12" vol="100" pos="72" key="81"/>
          <note pan="0" len="12" vol="100" pos="84" key="78"/>
          <note pan="0" len="12" vol="100" pos="96" key="73"/>
          <note pan="0" len="12" vol="100" pos="108" key="66"/>
          <note pan="0" len="12" vol="100" pos="120" key="73"/>
          <note pan="0" len="12" vol="100" pos="132" key="78"/>
          <note pan="0" len="12" vol="100" pos="144" key="81"/>
          <note pan="0" len="12" vol="100" pos="156" key="78"/>
          <note pan="0" len="12" vol="100" pos="168" key="81"/>
          <note pan="0" len="12" vol="100" pos="180" key="85"/>
          <note pan="0" len="12" vol="100" pos="192" key="83"/>
          <note pan="0" len="12" vol="100" pos="204" key="81"/>
          <note pan="0" len="12" vol="100" pos="216" key="80"/>
          <note pan="0" len="12" vol="100" pos="228" key="76"/>
          <note pan="0" len="12" vol="100" pos="240" key="81"/>
          <note pan="0" len="12" vol="100" pos="252" key="80"/>
          <note pan="0" len="12" vol="100" pos="264" key="76"/>
          <note pan="0" len="12" vol="100" pos="276" key="71"/>
          <note pan="0" len="12" vol="100" pos="288" key="68"/>
          <note pan="0" len="12" vol="100" pos="300" key="76"/>
          <note pan="0" len="12" vol="100" pos="312" key="71"/>
          <note pan="0" len="12" vol="100" pos="324" key="68"/>
          <note pan="0" len="12" vol="100" pos="336" key="76"/>
          <note pan="0" len="12" vol="100" pos="348" key="83"/>
          <note pan="0" len="12" vol="100" pos="360" key="80"/>
          <note pan="0" len="12" vol="100" pos="372" key="76"/>
          <note pan="0" len="12" vol="100" pos="384" key="81"/>
          <note pan="0" len="12" vol="100" pos="396" key="80"/>
          <note pan="0" len="12" vol="100" pos="408" key="76"/>
          <note pan="0" len="12" vol="100" pos="420" key="71"/>
          <note pan="0" len="12" vol="100" pos="432" key="76"/>
          <note pan="0" len="12" vol="100" pos="444" key="71"/>
          <note pan="0" len="12" vol="100" pos="456" key="68"/>
          <note pan="0" len="12" vol="100" pos="468" key="71"/>
          <note pan="0" len="12" vol="100" pos="480" key="76"/>
          <note pan="0" len="12" vol="100" pos="492" key="71"/>
          <note pan="0" len="12" vol="100" pos="504" key="68"/>
          <note pan="0" len="12" vol="100" pos="516" key="71"/>
          <note pan="0" len="12" vol="100" pos="528" key="76"/>
          <note pan="0" len="12" vol="100" pos="540" key="71"/>
          <note pan="0" len="12" vol="100" pos="552" key="80"/>
          <note pan="0" len="12" vol="100" pos="564" key="83"/>
          <note pan="0" len="12" vol="100" pos="576" key="64"/>
          <note pan="0" len="12" vol="100" pos="588" key="68"/>
          <note pan="0" len="12" vol="100" pos="600" key="71"/>
          <note pan="0" len="12" vol="100" pos="612" key="68"/>
          <note pan="0" len="12" vol="100" pos="624" key="71"/>
          <note pan="0" len="12" vol="100" pos="636" key="76"/>
          <note pan="0" len="12" vol="100" pos="648" key="71"/>
          <note pan="0" len="12" vol="100" pos="660" key="76"/>
          <note pan="0" len="12" vol="100" pos="672" key="80"/>
          <note pan="0" len="12" vol="100" pos="684" key="76"/>
          <note pan="0" len="12" vol="100" pos="696" key="80"/>
          <note pan="0" len="12" vol="100" pos="708" key="83"/>
          <note pan="0" len="12" vol="100" pos="720" key="81"/>
          <note pan="0" len="12" vol="100" pos="732" key="80"/>
          <note pan="0" len="12" vol="100" pos="744" key="76"/>
          <note pan="0" len="12" vol="100" pos="756" key="73"/>
          <note pan="0" len="12" vol="100" pos="768" key="74"/>
          <note pan="0" len="12" vol="100" pos="780" key="78"/>
          <note pan="0" len="12" vol="100" pos="792" key="81"/>
          <note pan="0" len="12" vol="100" pos="804" key="85"/>
          <note pan="0" len="12" vol="100" pos="816" key="86"/>
          <note pan="0" len="12" vol="100" pos="828" key="85"/>
          <note pan="0" len="12" vol="100" pos="840" key="81"/>
          <note pan="0" len="12" vol="100" pos="852" key="74"/>
          <note pan="0" len="12" vol="100" pos="864" key="78"/>
          <note pan="0" len="12" vol="100" pos="876" key="74"/>
          <note pan="0" len="12" vol="100" pos="888" key="78"/>
          <note pan="0" len="12" vol="100" pos="900" key="81"/>
          <note pan="0" len="12" vol="100" pos="912" key="78"/>
          <note pan="0" len="12" vol="100" pos="924" key="69"/>
          <note pan="0" len="12" vol="100" pos="936" key="74"/>
          <note pan="0" len="12" vol="100" pos="948" key="69"/>
          <note pan="0" len="12" vol="100" pos="960" key="66"/>
          <note pan="0" len="12" vol="100" pos="972" key="69"/>
          <note pan="0" len="12" vol="100" pos="984" key="74"/>
          <note pan="0" len="12" vol="100" pos="996" key="69"/>
          <note pan="0" len="12" vol="100" pos="1008" key="74"/>
          <note pan="0" len="12" vol="100" pos="1020" key="69"/>
          <note pan="0" len="12" vol="100" pos="1032" key="66"/>
          <note pan="0" len="12" vol="100" pos="1044" key="62"/>
          <note pan="0" len="12" vol="100" pos="1056" key="66"/>
          <note pan="0" len="12" vol="100" pos="1068" key="62"/>
          <note pan="0" len="12" vol="100" pos="1080" key="66"/>
          <note pan="0" len="12" vol="100" pos="1092" key="73"/>
          <note pan="0" len="12" vol="100" pos="1104" key="71"/>
          <note pan="0" len="12" vol="100" pos="1116" key="69"/>
          <note pan="0" len="12" vol="100" pos="1128" key="68"/>
          <note pan="0" len="12" vol="100" pos="1140" key="64"/>
          <note pan="0" len="12" vol="100" pos="1152" key="68"/>
          <note pan="0" len="12" vol="100" pos="1164" key="66"/>
          <note pan="0" len="12" vol="100" pos="1176" key="65"/>
          <note pan="0" len="12" vol="100" pos="1188" key="68"/>
          <note pan="0" len="12" vol="100" pos="1200" key="71"/>
          <note pan="0" len="12" vol="100" pos="1212" key="69"/>
          <note pan="0" len="12" vol="100" pos="1224" key="68"/>
          <note pan="0" len="12" vol="100" pos="1236" key="73"/>
          <note pan="0" len="12" vol="100" pos="1248" key="76"/>
          <note pan="0" len="12" vol="100" pos="1260" key="74"/>
          <note pan="0" len="12" vol="100" pos="1272" key="73"/>
          <note pan="0" len="12" vol="100" pos="1284" key="68"/>
          <note pan="0" len="12" vol="100" pos="1296" key="64"/>
          <note pan="0" len="12" vol="100" pos="1308" key="62"/>
          <note pan="0" len="12" vol="100" pos="1320" key="61"/>
          <note pan="0" len="12" vol="100" pos="1332" key="59"/>
          <note pan="0" len="12" vol="100" pos="1344" key="65"/>
          <note pan="0" len="12" vol="100" pos="1356" key="68"/>
          <note pan="0" len="12" vol="100" pos="1368" key="73"/>
          <note pan="0" len="12" vol="100" pos="1380" key="77"/>
          <note pan="0" len="12" vol="100" pos="1392" key="80"/>
          <note pan="0" len="12" vol="100" pos="1404" key="73"/>
          <note pan="0" len="12" vol="100" pos="1416" key="77"/>
          <note pan="0" len="12" vol="100" pos="1428" key="80"/>
          <note pan="0" len="12" vol="100" pos="1440" key="73"/>
          <note pan="0" len="12" vol="100" pos="1452" key="77"/>
          <note pan="0" len="12" vol="100" pos="1464" key="80"/>
          <note pan="0" len="12" vol="100" pos="1476" key="83"/>
          <note pan="0" len="12" vol="100" pos="1488" key="81"/>
          <note pan="0" len="12" vol="100" pos="1500" key="80"/>
          <note pan="0" len="12" vol="100" pos="1512" key="78"/>
          <note pan="0" len="12" vol="100" pos="1524" key="76"/>
        </midiclip>
        <midiclip name="" steps="16" type="1" muted="0" pos="6528">
          <note pan="0" len="12" vol="100" pos="0" key="80"/>
          <note pan="0" len="12" vol="100" pos="12" key="78"/>
          <note pan="0" len="12" vol="100" pos="24" key="77"/>
          <note pan="0" len="12" vol="100" pos="36" key="73"/>
          <note pan="0" len="12" vol="100" pos="48" key="80"/>
          <note pan="0" len="12" vol="100" pos="60" key="78"/>
          <note pan="0" len="12" vol="100" pos="72" key="77"/>
          <note pan="0" len="12" vol="100" pos="84" key="73"/>
          <note pan="0" len="12" vol="100" pos="96" key="80"/>
          <note pan="0" len="12" vol="100" pos="108" key="78"/>
          <note pan="0" len="12" vol="100" pos="120" key="77"/>
          <note pan="0" len="12" vol="100" pos="132" key="73"/>
          <note pan="0" len="12" vol="100" pos="144" key="80"/>
          <note pan="0" len="12" vol="100" pos="156" key="78"/>
          <note pan="0" len="12" vol="100" pos="168" key="77"/>
          <note pan="0" len="12" vol="100" pos="180" key="73"/>
        </midiclip>
        <midiclip name="" steps="16" type="1" muted="0" pos="2688">
          <note pan="0" len="360" vol="100" pos="0" key="56"/>
          <note pan="0" len="312" vol="100" pos="24" key="59"/>
          <note pan="0" len="264" vol="100" pos="48" key="63"/>
          <note pan="0" len="216" vol="100" pos="72" key="66"/>
          <note pan="0" len="168" vol="100" pos="96" key="68"/>
          <note pan="0" len="408" vol="100" pos="120" key="70"/>
          <note pan="0" len="96" vol="100" pos="144" key="71"/>
          <note pan="0" len="48" vol="100" pos="168" key="75"/>
          <note pan="0" len="336" vol="100" pos="192" key="78"/>
          <note pan="0" len="312" vol="100" pos="216" key="75"/>
          <note pan="0" len="288" vol="100" pos="240" key="71"/>
          <note pan="0" len="264" vol="100" pos="264" key="68"/>
          <note pan="0" len="240" vol="100" pos="288" key="66"/>
          <note pan="0" len="216" vol="100" pos="312" key="63"/>
          <note pan="0" len="192" vol="100" pos="336" key="59"/>
          <note pan="0" len="168" vol="100" pos="360" key="56"/>
        </midiclip>
      </track>
      <track name="Guitar>Volume" mutedBeforeSolo="0" type="5" muted="0" solo="0">
        <automationtrack/>
        <automationclip name="Guitar>Volume" mute="0" len="192" tens="1" prog="0" pos="960">
          <time outValue="65" value="65" pos="0"/>
          <object id="5908"/>
        </automationclip>
        <automationclip name="Guitar>Volume" mute="0" len="192" tens="1" prog="1" pos="6528">
          <time outValue="100" value="100" pos="0"/>
          <time outValue="33" value="33" pos="192"/>
          <object id="5908"/>
        </automationclip>
        <automationclip name="Guitar>Volume" mute="0" len="192" tens="1" prog="0" pos="4992">
          <time outValue="100" value="100" pos="0"/>
          <object id="5908"/>
        </automationclip>
      </track>
      <track name="Drums>Power" mutedBeforeSolo="0" type="0" muted="0" solo="0">
        <instrumenttrack scale="0" pan="0" enabled="0" keymap="0" enablecc="0" range_import="1" usemasterpitch="0" vol="100" basenote="69" lastkey="127" pitch="0" firstkey="0" pitchrange="12" mixch="4">
          <midicontrollers cc59="0" cc89="0" cc29="0" cc88="0" cc90="0" cc57="0" cc44="0" cc67="0" cc97="0" cc119="0" cc62="0" cc73="0" cc99="0" cc27="0" cc15="0" cc102="0" cc126="0" cc23="0" cc32="0" cc103="0" cc114="0" cc116="0" cc0="0" cc37="0" cc26="0" cc4="0" cc101="0" cc78="0" cc100="0" cc66="0" cc55="0" cc16="0" cc71="0" cc61="0" cc6="0" cc7="0" cc113="0" cc76="0" cc93="0" cc38="0" cc28="0" cc91="0" cc5="0" cc86="0" cc18="0" cc24="0" cc75="0" cc115="0" cc117="0" cc79="0" cc85="0" cc60="0" cc48="0" cc74="0" cc120="0" cc122="0" cc36="0" cc104="0" cc8="0" cc49="0" cc118="0" cc40="0" cc50="0" cc96="0" cc77="0" cc3="0" cc83="0" cc41="0" cc124="0" cc1="0" cc112="0" cc56="0" cc125="0" cc94="0" cc108="0" cc46="0" cc69="0" cc42="0" cc68="0" cc2="0" cc12="0" cc107="0" cc17="0" cc54="0" cc64="0" cc31="0" cc30="0" cc43="0" cc20="0" cc72="0" cc51="0" cc35="0" cc58="0" cc19="0" cc123="0" cc9="0" cc106="0" cc82="0" cc65="0" cc110="0" cc47="0" cc87="0" cc84="0" cc53="0" cc22="0" cc34="0" cc63="0" cc39="0" cc13="0" cc33="0" cc92="0" cc81="0" cc105="0" cc95="0" cc121="0" cc111="0" cc11="0" cc52="0" cc14="0" cc45="0" cc21="0" cc109="0" cc10="0" cc25="0" cc98="0" cc70="0" cc80="0" cc127="0"/>
          <instrument name="sf2player">
            <sf2player reverbRoomSize="0.2" chorusDepth="8" patch="32" chorusSpeed="0.3" reverbOn="0" src="usersoundfont:Touhou.sf2" reverbDamping="0" chorusLevel="2" bank="128" reverbLevel="0.9" chorusNum="3" reverbWidth="0.5" chorusOn="0" gain="0.34">
              <key/>
            </sf2player>
          </instrument>
          <eldata fwet="0" fcut="14000" fres="0.5" ftype="0">
            <elvol lspd_denominator="4" dec="0.5" latt="0" sustain="0.5" lspd_syncmode="0" ctlenvamt="0" att="0" lshp="0" x100="0" lamt="0" lspd_numerator="4" hold="0.5" rel="0.1" pdel="0" lspd="0.1" amt="0" lpdel="0" userwavefile=""/>
            <elcut lspd_denominator="4" dec="0.5" latt="0" sustain="0.5" lspd_syncmode="0" ctlenvamt="0" att="0" lshp="0" x100="0" lamt="0" lspd_numerator="4" hold="0.5" rel="0.1" pdel="0" lspd="0.1" amt="0" lpdel="0" userwavefile=""/>
            <elres lspd_denominator="4" dec="0.5" latt="0" sustain="0.5" lspd_syncmode="0" ctlenvamt="0" att="0" lshp="0" x100="0" lamt="0" lspd_numerator="4" hold="0.5" rel="0.1" pdel="0" lspd="0.1" amt="0" lpdel="0" userwavefile=""/>
          </eldata>
          <chordcreator chord-enabled="0" chordrange="1" chord="0"/>
          <arpeggiator arp="0" arptime_syncmode="0" arpcycle="0" arprepeats="1" arptime="200" arptime_denominator="4" arpmode="0" arptime_numerator="4" arp-enabled="0" arprange="1" arpgate="100" arpskip="0" arpmiss="0" arpdir="0"/>
          <midiport inputcontroller="0" fixedoutputnote="-1" outputprogram="1" outputchannel="1" readable="1" fixedoutputvelocity="-1" inputchannel="0" writable="0" outputcontroller="0" fixedinputvelocity="-1" basevelocity="63" inports=""/>
          <fxchain enabled="0" numofeffects="0"/>
        </instrumenttrack>
        <midiclip name="" steps="16" type="1" muted="0" pos="1152">
          <note pan="0" len="12" vol="100" pos="0" key="36"/>
          <note pan="0" len="12" vol="100" pos="24" key="42"/>
          <note pan="0" len="12" vol="100" pos="48" key="40"/>
          <note pan="0" len="12" vol="100" pos="48" key="36"/>
          <note pan="0" len="12" vol="100" pos="72" key="42"/>
          <note pan="0" len="12" vol="100" pos="96" key="36"/>
          <note pan="0" len="12" vol="100" pos="120" key="42"/>
          <note pan="0" len="12" vol="100" pos="144" key="40"/>
          <note pan="0" len="12" vol="100" pos="144" key="36"/>
          <note pan="0" len="12" vol="100" pos="168" key="42"/>
        </midiclip>
        <midiclip name="" steps="16" type="1" muted="0" pos="1536">
          <note pan="0" len="12" vol="100" pos="0" key="36"/>
          <note pan="0" len="12" vol="100" pos="24" key="42"/>
          <note pan="0" len="12" vol="100" pos="48" key="40"/>
          <note pan="0" len="12" vol="100" pos="48" key="36"/>
          <note pan="0" len="12" vol="100" pos="72" key="42"/>
          <note pan="0" len="12" vol="100" pos="96" key="36"/>
          <note pan="0" len="12" vol="100" pos="120" key="42"/>
          <note pan="0" len="12" vol="100" pos="144" key="40"/>
          <note pan="0" len="12" vol="100" pos="144" key="36"/>
          <note pan="0" len="12" vol="100" pos="168" key="42"/>
        </midiclip>
        <midiclip name="" steps="16" type="1" muted="0" pos="1728">
          <note pan="0" len="12" vol="100" pos="0" key="36"/>
          <note pan="0" len="12" vol="100" pos="24" key="42"/>
          <note pan="0" len="12" vol="100" pos="48" key="40"/>
          <note pan="0" len="12" vol="100" pos="48" key="36"/>
          <note pan="0" len="12" vol="100" pos="72" key="42"/>
          <note pan="0" len="12" vol="100" pos="96" key="36"/>
          <note pan="0" len="12" vol="100" pos="120" key="47"/>
          <note pan="0" len="12" vol="100" pos="120" key="42"/>
          <note pan="0" len="12" vol="100" pos="132" key="45"/>
          <note pan="0" len="12" vol="100" pos="144" key="43"/>
          <note pan="0" len="12" vol="100" pos="144" key="40"/>
          <note pan="0" len="12" vol="100" pos="144" key="36"/>
          <note pan="0" len="12" vol="100" pos="168" key="42"/>
          <note pan="0" len="12" vol="100" pos="168" key="41"/>
        </midiclip>
        <midiclip name="" steps="16" type="1" muted="0" pos="1920">
          <note pan="0" len="12" vol="100" pos="0" key="36"/>
          <note pan="0" len="12" vol="100" pos="24" key="42"/>
          <note pan="0" len="12" vol="100" pos="48" key="40"/>
          <note pan="0" len="12" vol="100" pos="48" key="36"/>
          <note pan="0" len="12" vol="100" pos="72" key="42"/>
          <note pan="0" len="12" vol="100" pos="96" key="36"/>
          <note pan="0" len="12" vol="100" pos="120" key="42"/>
          <note pan="0" len="12" vol="100" pos="144" key="40"/>
          <note pan="0" len="12" vol="100" pos="144" key="36"/>
          <note pan="0" len="12" vol="100" pos="168" key="42"/>
        </midiclip>
        <midiclip name="" steps="16" type="1" muted="0" pos="2304">
          <note pan="0" len="12" vol="100" pos="0" key="36"/>
          <note pan="0" len="12" vol="100" pos="24" key="42"/>
          <note pan="0" len="12" vol="100" pos="48" key="40"/>
          <note pan="0" len="12" vol="100" pos="48" key="36"/>
          <note pan="0" len="12" vol="100" pos="72" key="42"/>
          <note pan="0" len="12" vol="100" pos="96" key="36"/>
          <note pan="0" len="12" vol="100" pos="120" key="42"/>
          <note pan="0" len="12" vol="100" pos="144" key="40"/>
          <note pan="0" len="12" vol="100" pos="144" key="36"/>
          <note pan="0" len="12" vol="100" pos="168" key="42"/>
        </midiclip>
        <midiclip name="" steps="16" type="1" muted="0" pos="2496">
          <note pan="0" len="12" vol="100" pos="0" key="36"/>
          <note pan="0" len="12" vol="100" pos="24" key="42"/>
          <note pan="0" len="12" vol="100" pos="36" key="44"/>
          <note pan="0" len="12" vol="100" pos="48" key="46"/>
          <note pan="0" len="12" vol="100" pos="48" key="40"/>
          <note pan="0" len="12" vol="100" pos="48" key="36"/>
          <note pan="0" len="12" vol="100" pos="72" key="42"/>
          <note pan="0" len="12" vol="100" pos="96" key="36"/>
          <note pan="0" len="12" vol="100" pos="120" key="46"/>
          <note pan="0" len="12" vol="100" pos="120" key="42"/>
          <note pan="0" len="12" vol="100" pos="144" key="40"/>
          <note pan="0" len="12" vol="100" pos="144" key="36"/>
          <note pan="0" len="12" vol="100" pos="168" key="46"/>
          <note pan="0" len="12" vol="100" pos="168" key="42"/>
        </midiclip>
        <midiclip name="" steps="16" type="1" muted="0" pos="3072">
          <note pan="0" len="12" vol="100" pos="0" key="36"/>
          <note pan="0" len="12" vol="100" pos="24" key="42"/>
          <note pan="0" len="12" vol="100" pos="48" key="42"/>
          <note pan="0" len="12" vol="100" pos="72" key="36"/>
          <note pan="0" len="12" vol="100" pos="96" key="42"/>
          <note pan="0" len="12" vol="100" pos="120" key="42"/>
          <note pan="0" len="12" vol="100" pos="132" key="42"/>
          <note pan="0" len="12" vol="100" pos="144" key="36"/>
          <note pan="0" len="12" vol="100" pos="168" key="42"/>
          <note pan="0" len="12" vol="100" pos="192" key="40"/>
          <note pan="0" len="12" vol="100" pos="192" key="36"/>
          <note pan="0" len="12" vol="100" pos="216" key="42"/>
          <note pan="0" len="12" vol="100" pos="240" key="36"/>
          <note pan="0" len="12" vol="100" pos="264" key="42"/>
          <note pan="0" len="12" vol="100" pos="288" key="42"/>
          <note pan="0" len="12" vol="100" pos="312" key="36"/>
          <note pan="0" len="12" vol="100" pos="336" key="42"/>
          <note pan="0" len="12" vol="100" pos="360" key="42"/>
          <note pan="0" len="12" vol="100" pos="384" key="46"/>
          <note pan="0" len="12" vol="100" pos="384" key="36"/>
          <note pan="0" len="12" vol="100" pos="408" key="42"/>
          <note pan="0" len="12" vol="100" pos="432" key="40"/>
          <note pan="0" len="12" vol="100" pos="432" key="36"/>
          <note pan="0" len="12" vol="100" pos="456" key="42"/>
          <note pan="0" len="12" vol="100" pos="480" key="36"/>
          <note pan="0" len="12" vol="100" pos="504" key="42"/>
          <note pan="0" len="12" vol="100" pos="528" key="42"/>
          <note pan="0" len="12" vol="100" pos="552" key="36"/>
          <note pan="0" len="12" vol="100" pos="576" key="42"/>
          <note pan="0" len="12" vol="100" pos="600" key="42"/>
          <note pan="0" len="12" vol="100" pos="612" key="42"/>
          <note pan="0" len="12" vol="100" pos="624" key="36"/>
          <note pan="0" len="12" vol="100" pos="648" key="42"/>
          <note pan="0" len="12" vol="100" pos="672" key="40"/>
          <note pan="0" len="12" vol="100" pos="672" key="36"/>
          <note pan="0" len="12" vol="100" pos="696" key="42"/>
          <note pan="0" len="12" vol="100" pos="720" key="36"/>
          <note pan="0" len="12" vol="100" pos="744" key="42"/>
          <note pan="0" len="12" vol="100" pos="768" key="42"/>
          <note pan="0" len="12" vol="100" pos="792" key="36"/>
          <note pan="0" len="12" vol="100" pos="816" key="42"/>
          <note pan="0" len="12" vol="100" pos="840" key="42"/>
          <note pan="0" len="12" vol="100" pos="864" key="46"/>
          <note pan="0" len="12" vol="100" pos="864" key="36"/>
          <note pan="0" len="12" vol="100" pos="888" key="42"/>
          <note pan="0" len="12" vol="100" pos="912" key="40"/>
          <note pan="0" len="12" vol="100" pos="912" key="36"/>
          <note pan="0" len="12" vol="100" pos="936" key="42"/>
        </midiclip>
        <midiclip name="" steps="16" type="1" muted="0" pos="4032">
          <note pan="0" len="12" vol="100" pos="0" key="36"/>
          <note pan="0" len="12" vol="100" pos="24" key="42"/>
          <note pan="0" len="12" vol="100" pos="48" key="42"/>
          <note pan="0" len="12" vol="100" pos="72" key="36"/>
          <note pan="0" len="12" vol="100" pos="96" key="42"/>
          <note pan="0" len="12" vol="100" pos="120" key="42"/>
          <note pan="0" len="12" vol="100" pos="132" key="42"/>
          <note pan="0" len="12" vol="100" pos="144" key="36"/>
          <note pan="0" len="12" vol="100" pos="168" key="42"/>
          <note pan="0" len="12" vol="100" pos="192" key="40"/>
          <note pan="0" len="12" vol="100" pos="192" key="36"/>
          <note pan="0" len="12" vol="100" pos="216" key="42"/>
          <note pan="0" len="12" vol="100" pos="240" key="36"/>
          <note pan="0" len="12" vol="100" pos="264" key="42"/>
          <note pan="0" len="12" vol="100" pos="288" key="42"/>
          <note pan="0" len="12" vol="100" pos="312" key="36"/>
          <note pan="0" len="12" vol="100" pos="336" key="42"/>
          <note pan="0" len="12" vol="100" pos="360" key="42"/>
          <note pan="0" len="12" vol="100" pos="384" key="46"/>
          <note pan="0" len="12" vol="100" pos="384" key="36"/>
          <note pan="0" len="12" vol="100" pos="408" key="42"/>
          <note pan="0" len="12" vol="100" pos="432" key="40"/>
          <note pan="0" len="12" vol="100" pos="432" key="36"/>
          <note pan="0" len="12" vol="100" pos="456" key="42"/>
          <note pan="0" len="12" vol="100" pos="480" key="36"/>
          <note pan="0" len="12" vol="100" pos="504" key="42"/>
          <note pan="0" len="12" vol="100" pos="528" key="42"/>
          <note pan="0" len="12" vol="100" pos="552" key="36"/>
          <note pan="0" len="12" vol="100" pos="576" key="42"/>
          <note pan="0" len="12" vol="100" pos="600" key="42"/>
          <note pan="0" len="12" vol="100" pos="612" key="42"/>
          <note pan="0" len="12" vol="100" pos="624" key="36"/>
          <note pan="0" len="12" vol="100" pos="648" key="42"/>
          <note pan="0" len="12" vol="100" pos="672" key="40"/>
          <note pan="0" len="12" vol="100" pos="672" key="36"/>
          <note pan="0" len="12" vol="100" pos="696" key="42"/>
          <note pan="0" len="12" vol="100" pos="720" key="36"/>
          <note pan="0" len="12" vol="100" pos="744" key="42"/>
          <note pan="0" len="12" vol="100" pos="768" key="42"/>
          <note pan="0" len="12" vol="100" pos="792" key="36"/>
          <note pan="0" len="12" vol="100" pos="816" key="42"/>
          <note pan="0" len="12" vol="100" pos="840" key="42"/>
          <note pan="0" len="12" vol="100" pos="864" key="46"/>
          <note pan="0" len="12" vol="100" pos="864" key="36"/>
          <note pan="0" len="12" vol="100" pos="888" key="42"/>
          <note pan="0" len="12" vol="100" pos="912" key="40"/>
          <note pan="0" len="12" vol="100" pos="912" key="36"/>
          <note pan="0" len="12" vol="100" pos="936" key="42"/>
        </midiclip>
        <midiclip name="" steps="16" type="1" muted="0" pos="4992">
          <note pan="0" len="12" vol="100" pos="0" key="36"/>
          <note pan="0" len="12" vol="100" pos="24" key="36"/>
          <note pan="0" len="12" vol="100" pos="48" key="42"/>
          <note pan="0" len="12" vol="100" pos="48" key="40"/>
          <note pan="0" len="12" vol="100" pos="48" key="36"/>
          <note pan="0" len="12" vol="100" pos="72" key="42"/>
          <note pan="0" len="12" vol="100" pos="96" key="36"/>
          <note pan="0" len="12" vol="100" pos="120" key="36"/>
          <note pan="0" len="12" vol="100" pos="144" key="40"/>
          <note pan="0" len="12" vol="100" pos="144" key="36"/>
          <note pan="0" len="12" vol="100" pos="168" key="42"/>
        </midiclip>
        <midiclip name="" steps="16" type="1" muted="0" pos="5184">
          <note pan="0" len="12" vol="100" pos="0" key="36"/>
          <note pan="0" len="12" vol="100" pos="24" key="36"/>
          <note pan="0" len="12" vol="100" pos="48" key="42"/>
          <note pan="0" len="12" vol="100" pos="48" key="40"/>
          <note pan="0" len="12" vol="100" pos="48" key="36"/>
          <note pan="0" len="12" vol="100" pos="72" key="36"/>
          <note pan="0" len="12" vol="100" pos="96" key="36"/>
          <note pan="0" len="12" vol="100" pos="120" key="36"/>
          <note pan="0" len="12" vol="100" pos="144" key="40"/>
          <note pan="0" len="12" vol="100" pos="144" key="36"/>
          <note pan="0" len="12" vol="100" pos="168" key="42"/>
        </midiclip>
        <midiclip name="" steps="16" type="1" muted="0" pos="5376">
          <note pan="0" len="12" vol="100" pos="0" key="36"/>
          <note pan="0" len="12" vol="100" pos="24" key="36"/>
          <note pan="0" len="12" vol="100" pos="48" key="42"/>
          <note pan="0" len="12" vol="100" pos="48" key="40"/>
          <note pan="0" len="12" vol="100" pos="48" key="36"/>
          <note pan="0" len="12" vol="100" pos="72" key="42"/>
          <note pan="0" len="12" vol="100" pos="96" key="36"/>
          <note pan="0" len="12" vol="100" pos="120" key="36"/>
          <note pan="0" len="12" vol="100" pos="144" key="40"/>
          <note pan="0" len="12" vol="100" pos="144" key="36"/>
          <note pan="0" len="12" vol="100" pos="168" key="42"/>
        </midiclip>
        <midiclip name="" steps="16" type="1" muted="0" pos="6528">
          <note pan="0" len="12" vol="100" pos="0" key="36"/>
          <note pan="0" len="12" vol="100" pos="48" key="36"/>
          <note pan="0" len="12" vol="100" pos="96" key="36"/>
          <note pan="0" len="12" vol="100" pos="144" key="36"/>
        </midiclip>
        <midiclip name="" steps="16" type="1" muted="0" pos="960">
          <note pan="0" len="12" vol="100" pos="0" key="36"/>
          <note pan="0" len="12" vol="100" pos="24" key="42"/>
          <note pan="0" len="12" vol="100" pos="48" key="42"/>
          <note pan="0" len="12" vol="100" pos="72" key="36"/>
          <note pan="0" len="12" vol="100" pos="96" key="46"/>
          <note pan="0" len="12" vol="100" pos="120" key="42"/>
          <note pan="0" len="12" vol="100" pos="144" key="42"/>
          <note pan="0" len="12" vol="100" pos="144" key="36"/>
          <note pan="0" len="12" vol="100" pos="168" key="42"/>
        </midiclip>
        <midiclip name="" steps="16" type="1" muted="0" pos="7104">
          <note pan="0" len="12" vol="100" pos="0" key="36"/>
          <note pan="0" len="12" vol="100" pos="72" key="36"/>
          <note pan="0" len="12" vol="100" pos="144" key="40"/>
          <note pan="0" len="12" vol="100" pos="216" key="46"/>
          <note pan="0" len="12" vol="100" pos="216" key="36"/>
          <note pan="0" len="12" vol="100" pos="288" key="36"/>
          <note pan="0" len="12" vol="100" pos="336" key="36"/>
        </midiclip>
        <midiclip name="" steps="16" type="1" muted="0" pos="6720">
          <note pan="0" len="12" vol="100" pos="0" key="46"/>
          <note pan="0" len="12" vol="100" pos="0" key="36"/>
          <note pan="0" len="12" vol="100" pos="72" key="36"/>
          <note pan="0" len="12" vol="100" pos="144" key="38"/>
          <note pan="0" len="12" vol="100" pos="216" key="36"/>
          <note pan="0" len="12" vol="100" pos="288" key="36"/>
          <note pan="0" len="12" vol="100" pos="336" key="36"/>
        </midiclip>
        <midiclip name="" steps="16" type="1" muted="0" pos="7872">
          <note pan="0" len="12" vol="100" pos="0" key="36"/>
          <note pan="0" len="12" vol="100" pos="72" key="36"/>
          <note pan="0" len="12" vol="100" pos="144" key="40"/>
          <note pan="0" len="12" vol="100" pos="216" key="46"/>
          <note pan="0" len="12" vol="100" pos="216" key="36"/>
          <note pan="0" len="12" vol="100" pos="288" key="36"/>
          <note pan="0" len="12" vol="100" pos="336" key="36"/>
        </midiclip>
        <midiclip name="" steps="16" type="1" muted="0" pos="7488">
          <note pan="0" len="12" vol="100" pos="0" key="46"/>
          <note pan="0" len="12" vol="100" pos="0" key="36"/>
          <note pan="0" len="12" vol="100" pos="72" key="36"/>
          <note pan="0" len="12" vol="100" pos="144" key="38"/>
          <note pan="0" len="12" vol="100" pos="216" key="36"/>
          <note pan="0" len="12" vol="100" pos="288" key="36"/>
          <note pan="0" len="12" vol="100" pos="336" key="36"/>
        </midiclip>
        <midiclip name="" steps="16" type="1" muted="0" pos="8256">
          <note pan="0" len="12" vol="100" pos="0" key="46"/>
          <note pan="0" len="12" vol="100" pos="0" key="36"/>
        </midiclip>
        <midiclip name="" steps="16" type="1" muted="0" pos="5568">
          <note pan="0" len="12" vol="100" pos="0" key="36"/>
          <note pan="0" len="12" vol="100" pos="24" key="36"/>
          <note pan="0" len="12" vol="100" pos="48" key="42"/>
          <note pan="0" len="12" vol="100" pos="48" key="40"/>
          <note pan="0" len="12" vol="100" pos="48" key="36"/>
          <note pan="0" len="12" vol="100" pos="72" key="42"/>
          <note pan="0" len="12" vol="100" pos="96" key="36"/>
          <note pan="0" len="12" vol="100" pos="120" key="36"/>
          <note pan="0" len="12" vol="100" pos="144" key="40"/>
          <note pan="0" len="12" vol="100" pos="144" key="36"/>
          <note pan="0" len="12" vol="100" pos="168" key="36"/>
        </midiclip>
        <midiclip name="" steps="16" type="1" muted="0" pos="0">
          <note pan="0" len="12" vol="100" pos="0" key="36"/>
          <note pan="0" len="12" vol="100" pos="72" key="36"/>
          <note pan="0" len="12" vol="100" pos="144" key="36"/>
          <note pan="0" len="12" vol="100" pos="192" key="40"/>
          <note pan="0" len="12" vol="100" pos="192" key="36"/>
          <note pan="0" len="12" vol="100" pos="216" key="46"/>
          <note pan="0" len="12" vol="100" pos="240" key="36"/>
          <note pan="0" len="12" vol="100" pos="312" key="36"/>
          <note pan="0" len="12" vol="100" pos="384" key="46"/>
          <note pan="0" len="12" vol="100" pos="384" key="36"/>
          <note pan="0" len="12" vol="100" pos="432" key="40"/>
          <note pan="0" len="12" vol="100" pos="432" key="36"/>
          <note pan="0" len="12" vol="100" pos="480" key="36"/>
          <note pan="0" len="12" vol="100" pos="552" key="36"/>
          <note pan="0" len="12" vol="100" pos="624" key="36"/>
          <note pan="0" len="12" vol="100" pos="672" key="40"/>
          <note pan="0" len="12" vol="100" pos="672" key="36"/>
          <note pan="0" len="12" vol="100" pos="696" key="46"/>
          <note pan="0" len="12" vol="100" pos="720" key="36"/>
          <note pan="0" len="12" vol="100" pos="792" key="36"/>
          <note pan="0" len="12" vol="100" pos="864" key="46"/>
          <note pan="0" len="12" vol="100" pos="864" key="36"/>
          <note pan="0" len="12" vol="100" pos="912" key="40"/>
          <note pan="0" len="12" vol="100" pos="912" key="36"/>
        </midiclip>
        <midiclip name="" steps="16" type="1" muted="0" pos="1344">
          <note pan="0" len="12" vol="100" pos="0" key="36"/>
          <note pan="0" len="12" vol="100" pos="24" key="42"/>
          <note pan="0" len="12" vol="100" pos="48" key="40"/>
          <note pan="0" len="12" vol="100" pos="48" key="36"/>
          <note pan="0" len="12" vol="100" pos="72" key="42"/>
          <note pan="0" len="12" vol="100" pos="96" key="36"/>
          <note pan="0" len="12" vol="100" pos="120" key="42"/>
          <note pan="0" len="12" vol="100" pos="144" key="40"/>
          <note pan="0" len="12" vol="100" pos="144" key="36"/>
          <note pan="0" len="12" vol="100" pos="168" key="42"/>
        </midiclip>
        <midiclip name="" steps="16" type="1" muted="0" pos="2112">
          <note pan="0" len="12" vol="100" pos="0" key="36"/>
          <note pan="0" len="12" vol="100" pos="24" key="42"/>
          <note pan="0" len="12" vol="100" pos="48" key="40"/>
          <note pan="0" len="12" vol="100" pos="48" key="36"/>
          <note pan="0" len="12" vol="100" pos="72" key="42"/>
          <note pan="0" len="12" vol="100" pos="96" key="36"/>
          <note pan="0" len="12" vol="100" pos="120" key="42"/>
          <note pan="0" len="12" vol="100" pos="144" key="40"/>
          <note pan="0" len="12" vol="100" pos="144" key="36"/>
          <note pan="0" len="12" vol="100" pos="168" key="42"/>
        </midiclip>
        <midiclip name="" steps="16" type="1" muted="0" pos="2688">
          <note pan="0" len="12" vol="100" pos="0" key="36"/>
          <note pan="0" len="12" vol="100" pos="24" key="42"/>
          <note pan="0" len="12" vol="100" pos="48" key="40"/>
          <note pan="0" len="12" vol="100" pos="48" key="36"/>
          <note pan="0" len="12" vol="100" pos="72" key="42"/>
          <note pan="0" len="12" vol="100" pos="96" key="36"/>
          <note pan="0" len="12" vol="100" pos="120" key="42"/>
          <note pan="0" len="12" vol="100" pos="144" key="40"/>
          <note pan="0" len="12" vol="100" pos="144" key="36"/>
          <note pan="0" len="12" vol="100" pos="168" key="42"/>
        </midiclip>
        <midiclip name="" steps="16" type="1" muted="0" pos="2880">
          <note pan="0" len="12" vol="100" pos="0" key="36"/>
          <note pan="0" len="12" vol="100" pos="24" key="42"/>
          <note pan="0" len="12" vol="100" pos="36" key="44"/>
          <note pan="0" len="12" vol="100" pos="48" key="46"/>
          <note pan="0" len="12" vol="100" pos="48" key="40"/>
          <note pan="0" len="12" vol="100" pos="48" key="36"/>
          <note pan="0" len="12" vol="100" pos="72" key="42"/>
          <note pan="0" len="12" vol="100" pos="96" key="36"/>
          <note pan="0" len="12" vol="100" pos="120" key="46"/>
          <note pan="0" len="12" vol="100" pos="120" key="42"/>
          <note pan="0" len="12" vol="100" pos="144" key="40"/>
          <note pan="0" len="12" vol="100" pos="144" key="36"/>
          <note pan="0" len="12" vol="100" pos="168" key="46"/>
          <note pan="0" len="12" vol="100" pos="168" key="42"/>
        </midiclip>
        <midiclip name="" steps="16" type="1" muted="0" pos="5760">
          <note pan="0" len="12" vol="100" pos="0" key="36"/>
          <note pan="0" len="12" vol="100" pos="24" key="36"/>
          <note pan="0" len="12" vol="100" pos="48" key="42"/>
          <note pan="0" len="12" vol="100" pos="48" key="40"/>
          <note pan="0" len="12" vol="100" pos="48" key="36"/>
          <note pan="0" len="12" vol="100" pos="72" key="42"/>
          <note pan="0" len="12" vol="100" pos="96" key="36"/>
          <note pan="0" len="12" vol="100" pos="120" key="36"/>
          <note pan="0" len="12" vol="100" pos="144" key="40"/>
          <note pan="0" len="12" vol="100" pos="144" key="36"/>
          <note pan="0" len="12" vol="100" pos="168" key="42"/>
        </midiclip>
        <midiclip name="" steps="16" type="1" muted="0" pos="5952">
          <note pan="0" len="12" vol="100" pos="0" key="36"/>
          <note pan="0" len="12" vol="100" pos="24" key="36"/>
          <note pan="0" len="12" vol="100" pos="48" key="42"/>
          <note pan="0" len="12" vol="100" pos="48" key="40"/>
          <note pan="0" len="12" vol="100" pos="48" key="36"/>
          <note pan="0" len="12" vol="100" pos="72" key="36"/>
          <note pan="0" len="12" vol="100" pos="96" key="36"/>
          <note pan="0" len="12" vol="100" pos="120" key="36"/>
          <note pan="0" len="12" vol="100" pos="144" key="40"/>
          <note pan="0" len="12" vol="100" pos="144" key="36"/>
          <note pan="0" len="12" vol="100" pos="168" key="42"/>
        </midiclip>
        <midiclip name="" steps="16" type="1" muted="0" pos="6144">
          <note pan="0" len="12" vol="100" pos="0" key="36"/>
          <note pan="0" len="12" vol="100" pos="24" key="36"/>
          <note pan="0" len="12" vol="100" pos="48" key="42"/>
          <note pan="0" len="12" vol="100" pos="48" key="40"/>
          <note pan="0" len="12" vol="100" pos="48" key="36"/>
          <note pan="0" len="12" vol="100" pos="72" key="42"/>
          <note pan="0" len="12" vol="100" pos="96" key="36"/>
          <note pan="0" len="12" vol="100" pos="120" key="36"/>
          <note pan="0" len="12" vol="100" pos="144" key="40"/>
          <note pan="0" len="12" vol="100" pos="144" key="36"/>
          <note pan="0" len="12" vol="100" pos="168" key="42"/>
        </midiclip>
        <midiclip name="" steps="16" type="1" muted="0" pos="6336">
          <note pan="0" len="12" vol="100" pos="0" key="36"/>
          <note pan="0" len="12" vol="100" pos="24" key="36"/>
          <note pan="0" len="12" vol="100" pos="48" key="42"/>
          <note pan="0" len="12" vol="100" pos="48" key="40"/>
          <note pan="0" len="12" vol="100" pos="48" key="36"/>
          <note pan="0" len="12" vol="100" pos="72" key="42"/>
          <note pan="0" len="12" vol="100" pos="96" key="36"/>
          <note pan="0" len="12" vol="100" pos="120" key="36"/>
          <note pan="0" len="12" vol="100" pos="144" key="40"/>
          <note pan="0" len="12" vol="100" pos="144" key="36"/>
          <note pan="0" len="12" vol="100" pos="168" key="36"/>
        </midiclip>
      </track>
      <track name="Drums>Natural" mutedBeforeSolo="0" type="0" muted="0" solo="0" trackheight="32">
        <instrumenttrack scale="0" pan="0" enabled="0" keymap="0" enablecc="0" range_import="1" usemasterpitch="0" vol="100" basenote="69" lastkey="127" pitch="0" firstkey="0" pitchrange="12" mixch="4">
          <midicontrollers cc59="0" cc89="0" cc29="0" cc88="0" cc90="0" cc57="0" cc44="0" cc67="0" cc97="0" cc119="0" cc62="0" cc73="0" cc99="0" cc27="0" cc15="0" cc102="0" cc126="0" cc23="0" cc32="0" cc103="0" cc114="0" cc116="0" cc0="0" cc37="0" cc26="0" cc4="0" cc101="0" cc78="0" cc100="0" cc66="0" cc55="0" cc16="0" cc71="0" cc61="0" cc6="0" cc7="0" cc113="0" cc76="0" cc93="0" cc38="0" cc28="0" cc91="0" cc5="0" cc86="0" cc18="0" cc24="0" cc75="0" cc115="0" cc117="0" cc79="0" cc85="0" cc60="0" cc48="0" cc74="0" cc120="0" cc122="0" cc36="0" cc104="0" cc8="0" cc49="0" cc118="0" cc40="0" cc50="0" cc96="0" cc77="0" cc3="0" cc83="0" cc41="0" cc124="0" cc1="0" cc112="0" cc56="0" cc125="0" cc94="0" cc108="0" cc46="0" cc69="0" cc42="0" cc68="0" cc2="0" cc12="0" cc107="0" cc17="0" cc54="0" cc64="0" cc31="0" cc30="0" cc43="0" cc20="0" cc72="0" cc51="0" cc35="0" cc58="0" cc19="0" cc123="0" cc9="0" cc106="0" cc82="0" cc65="0" cc110="0" cc47="0" cc87="0" cc84="0" cc53="0" cc22="0" cc34="0" cc63="0" cc39="0" cc13="0" cc33="0" cc92="0" cc81="0" cc105="0" cc95="0" cc121="0" cc111="0" cc11="0" cc52="0" cc14="0" cc45="0" cc21="0" cc109="0" cc10="0" cc25="0" cc98="0" cc70="0" cc80="0" cc127="0"/>
          <instrument name="sf2player">
            <sf2player reverbRoomSize="0.2" chorusDepth="8" patch="0" chorusSpeed="0.3" reverbOn="0" src="usersoundfont:drums_ken_ardency_mono.sf2" reverbDamping="0" chorusLevel="2" bank="128" reverbLevel="0.9" chorusNum="3" reverbWidth="0.5" chorusOn="0" gain="0.22">
              <key/>
            </sf2player>
          </instrument>
          <eldata fwet="0" fcut="14000" fres="0.5" ftype="0">
            <elvol lspd_denominator="4" dec="0.5" latt="0" sustain="0.5" lspd_syncmode="0" ctlenvamt="0" att="0" lshp="0" x100="0" lamt="0" lspd_numerator="4" hold="0.5" rel="0.1" pdel="0" lspd="0.1" amt="0" lpdel="0" userwavefile=""/>
            <elcut lspd_denominator="4" dec="0.5" latt="0" sustain="0.5" lspd_syncmode="0" ctlenvamt="0" att="0" lshp="0" x100="0" lamt="0" lspd_numerator="4" hold="0.5" rel="0.1" pdel="0" lspd="0.1" amt="0" lpdel="0" userwavefile=""/>
            <elres lspd_denominator="4" dec="0.5" latt="0" sustain="0.5" lspd_syncmode="0" ctlenvamt="0" att="0" lshp="0" x100="0" lamt="0" lspd_numerator="4" hold="0.5" rel="0.1" pdel="0" lspd="0.1" amt="0" lpdel="0" userwavefile=""/>
          </eldata>
          <chordcreator chord-enabled="0" chordrange="1" chord="0"/>
          <arpeggiator arp="0" arptime_syncmode="0" arpcycle="0" arprepeats="1" arptime="200" arptime_denominator="4" arpmode="0" arptime_numerator="4" arp-enabled="0" arprange="1" arpgate="100" arpskip="0" arpmiss="0" arpdir="0"/>
          <midiport inputcontroller="0" fixedoutputnote="-1" outputprogram="1" outputchannel="1" readable="1" fixedoutputvelocity="-1" inputchannel="0" writable="0" outputcontroller="0" fixedinputvelocity="-1" basevelocity="127" inports=""/>
          <fxchain enabled="0" numofeffects="0"/>
        </instrumenttrack>
        <midiclip name="" steps="16" type="1" muted="0" pos="1152">
          <note pan="0" len="12" vol="100" pos="0" key="36"/>
          <note pan="0" len="12" vol="100" pos="24" key="42"/>
          <note pan="0" len="12" vol="100" pos="48" key="40"/>
          <note pan="0" len="12" vol="100" pos="48" key="36"/>
          <note pan="0" len="12" vol="100" pos="72" key="42"/>
          <note pan="0" len="12" vol="100" pos="96" key="36"/>
          <note pan="0" len="12" vol="100" pos="120" key="42"/>
          <note pan="0" len="12" vol="100" pos="144" key="40"/>
          <note pan="0" len="12" vol="100" pos="144" key="36"/>
          <note pan="0" len="12" vol="100" pos="168" key="42"/>
        </midiclip>
        <midiclip name="" steps="16" type="1" muted="0" pos="1536">
          <note pan="0" len="12" vol="100" pos="0" key="36"/>
          <note pan="0" len="12" vol="100" pos="24" key="42"/>
          <note pan="0" len="12" vol="100" pos="48" key="40"/>
          <note pan="0" len="12" vol="100" pos="48" key="36"/>
          <note pan="0" len="12" vol="100" pos="72" key="42"/>
          <note pan="0" len="12" vol="100" pos="96" key="36"/>
          <note pan="0" len="12" vol="100" pos="120" key="42"/>
          <note pan="0" len="12" vol="100" pos="144" key="40"/>
          <note pan="0" len="12" vol="100" pos="144" key="36"/>
          <note pan="0" len="12" vol="100" pos="168" key="42"/>
        </midiclip>
        <midiclip name="" steps="16" type="1" muted="0" pos="1728">
          <note pan="0" len="12" vol="100" pos="0" key="36"/>
          <note pan="0" len="12" vol="100" pos="24" key="42"/>
          <note pan="0" len="12" vol="100" pos="48" key="40"/>
          <note pan="0" len="12" vol="100" pos="48" key="36"/>
          <note pan="0" len="12" vol="100" pos="72" key="42"/>
          <note pan="0" len="12" vol="100" pos="96" key="36"/>
          <note pan="0" len="12" vol="100" pos="120" key="47"/>
          <note pan="0" len="12" vol="100" pos="120" key="42"/>
          <note pan="0" len="12" vol="100" pos="132" key="45"/>
          <note pan="0" len="12" vol="100" pos="144" key="43"/>
          <note pan="0" len="12" vol="100" pos="144" key="40"/>
          <note pan="0" len="12" vol="100" pos="144" key="36"/>
          <note pan="0" len="12" vol="100" pos="168" key="42"/>
          <note pan="0" len="12" vol="100" pos="168" key="41"/>
        </midiclip>
        <midiclip name="" steps="16" type="1" muted="0" pos="1920">
          <note pan="0" len="12" vol="100" pos="0" key="36"/>
          <note pan="0" len="12" vol="100" pos="24" key="42"/>
          <note pan="0" len="12" vol="100" pos="48" key="40"/>
          <note pan="0" len="12" vol="100" pos="48" key="36"/>
          <note pan="0" len="12" vol="100" pos="72" key="42"/>
          <note pan="0" len="12" vol="100" pos="96" key="36"/>
          <note pan="0" len="12" vol="100" pos="120" key="42"/>
          <note pan="0" len="12" vol="100" pos="144" key="40"/>
          <note pan="0" len="12" vol="100" pos="144" key="36"/>
          <note pan="0" len="12" vol="100" pos="168" key="42"/>
        </midiclip>
        <midiclip name="" steps="16" type="1" muted="0" pos="2304">
          <note pan="0" len="12" vol="100" pos="0" key="36"/>
          <note pan="0" len="12" vol="100" pos="24" key="42"/>
          <note pan="0" len="12" vol="100" pos="48" key="40"/>
          <note pan="0" len="12" vol="100" pos="48" key="36"/>
          <note pan="0" len="12" vol="100" pos="72" key="42"/>
          <note pan="0" len="12" vol="100" pos="96" key="36"/>
          <note pan="0" len="12" vol="100" pos="120" key="42"/>
          <note pan="0" len="12" vol="100" pos="144" key="40"/>
          <note pan="0" len="12" vol="100" pos="144" key="36"/>
          <note pan="0" len="12" vol="100" pos="168" key="42"/>
        </midiclip>
        <midiclip name="" steps="16" type="1" muted="0" pos="2496">
          <note pan="0" len="12" vol="100" pos="0" key="36"/>
          <note pan="0" len="12" vol="100" pos="24" key="42"/>
          <note pan="0" len="12" vol="100" pos="36" key="44"/>
          <note pan="0" len="12" vol="100" pos="48" key="46"/>
          <note pan="0" len="12" vol="100" pos="48" key="40"/>
          <note pan="0" len="12" vol="100" pos="48" key="36"/>
          <note pan="0" len="12" vol="100" pos="72" key="42"/>
          <note pan="0" len="12" vol="100" pos="96" key="36"/>
          <note pan="0" len="12" vol="100" pos="120" key="46"/>
          <note pan="0" len="12" vol="100" pos="120" key="42"/>
          <note pan="0" len="12" vol="100" pos="144" key="40"/>
          <note pan="0" len="12" vol="100" pos="144" key="36"/>
          <note pan="0" len="12" vol="100" pos="168" key="46"/>
          <note pan="0" len="12" vol="100" pos="168" key="42"/>
        </midiclip>
        <midiclip name="" steps="16" type="1" muted="0" pos="3072">
          <note pan="0" len="12" vol="100" pos="0" key="36"/>
          <note pan="0" len="12" vol="100" pos="24" key="42"/>
          <note pan="0" len="12" vol="100" pos="48" key="42"/>
          <note pan="0" len="12" vol="100" pos="72" key="36"/>
          <note pan="0" len="12" vol="100" pos="96" key="42"/>
          <note pan="0" len="12" vol="100" pos="120" key="42"/>
          <note pan="0" len="12" vol="100" pos="132" key="42"/>
          <note pan="0" len="12" vol="100" pos="144" key="36"/>
          <note pan="0" len="12" vol="100" pos="168" key="42"/>
          <note pan="0" len="12" vol="100" pos="192" key="40"/>
          <note pan="0" len="12" vol="100" pos="192" key="36"/>
          <note pan="0" len="12" vol="100" pos="216" key="42"/>
          <note pan="0" len="12" vol="100" pos="240" key="36"/>
          <note pan="0" len="12" vol="100" pos="264" key="42"/>
          <note pan="0" len="12" vol="100" pos="288" key="42"/>
          <note pan="0" len="12" vol="100" pos="312" key="36"/>
          <note pan="0" len="12" vol="100" pos="336" key="42"/>
          <note pan="0" len="12" vol="100" pos="360" key="42"/>
          <note pan="0" len="12" vol="100" pos="384" key="46"/>
          <note pan="0" len="12" vol="100" pos="384" key="36"/>
          <note pan="0" len="12" vol="100" pos="408" key="42"/>
          <note pan="0" len="12" vol="100" pos="432" key="40"/>
          <note pan="0" len="12" vol="100" pos="432" key="36"/>
          <note pan="0" len="12" vol="100" pos="456" key="42"/>
          <note pan="0" len="12" vol="100" pos="480" key="36"/>
          <note pan="0" len="12" vol="100" pos="504" key="42"/>
          <note pan="0" len="12" vol="100" pos="528" key="42"/>
          <note pan="0" len="12" vol="100" pos="552" key="36"/>
          <note pan="0" len="12" vol="100" pos="576" key="42"/>
          <note pan="0" len="12" vol="100" pos="600" key="42"/>
          <note pan="0" len="12" vol="100" pos="612" key="42"/>
          <note pan="0" len="12" vol="100" pos="624" key="36"/>
          <note pan="0" len="12" vol="100" pos="648" key="42"/>
          <note pan="0" len="12" vol="100" pos="672" key="40"/>
          <note pan="0" len="12" vol="100" pos="672" key="36"/>
          <note pan="0" len="12" vol="100" pos="696" key="42"/>
          <note pan="0" len="12" vol="100" pos="720" key="36"/>
          <note pan="0" len="12" vol="100" pos="744" key="42"/>
          <note pan="0" len="12" vol="100" pos="768" key="42"/>
          <note pan="0" len="12" vol="100" pos="792" key="36"/>
          <note pan="0" len="12" vol="100" pos="816" key="42"/>
          <note pan="0" len="12" vol="100" pos="840" key="42"/>
          <note pan="0" len="12" vol="100" pos="864" key="46"/>
          <note pan="0" len="12" vol="100" pos="864" key="36"/>
          <note pan="0" len="12" vol="100" pos="888" key="42"/>
          <note pan="0" len="12" vol="100" pos="912" key="40"/>
          <note pan="0" len="12" vol="100" pos="912" key="36"/>
          <note pan="0" len="12" vol="100" pos="936" key="42"/>
        </midiclip>
        <midiclip name="" steps="16" type="1" muted="0" pos="4032">
          <note pan="0" len="12" vol="100" pos="0" key="36"/>
          <note pan="0" len="12" vol="100" pos="24" key="42"/>
          <note pan="0" len="12" vol="100" pos="48" key="42"/>
          <note pan="0" len="12" vol="100" pos="72" key="36"/>
          <note pan="0" len="12" vol="100" pos="96" key="42"/>
          <note pan="0" len="12" vol="100" pos="120" key="42"/>
          <note pan="0" len="12" vol="100" pos="132" key="42"/>
          <note pan="0" len="12" vol="100" pos="144" key="36"/>
          <note pan="0" len="12" vol="100" pos="168" key="42"/>
          <note pan="0" len="12" vol="100" pos="192" key="40"/>
          <note pan="0" len="12" vol="100" pos="192" key="36"/>
          <note pan="0" len="12" vol="100" pos="216" key="42"/>
          <note pan="0" len="12" vol="100" pos="240" key="36"/>
          <note pan="0" len="12" vol="100" pos="264" key="42"/>
          <note pan="0" len="12" vol="100" pos="288" key="42"/>
          <note pan="0" len="12" vol="100" pos="312" key="36"/>
          <note pan="0" len="12" vol="100" pos="336" key="42"/>
          <note pan="0" len="12" vol="100" pos="360" key="42"/>
          <note pan="0" len="12" vol="100" pos="384" key="46"/>
          <note pan="0" len="12" vol="100" pos="384" key="36"/>
          <note pan="0" len="12" vol="100" pos="408" key="42"/>
          <note pan="0" len="12" vol="100" pos="432" key="40"/>
          <note pan="0" len="12" vol="100" pos="432" key="36"/>
          <note pan="0" len="12" vol="100" pos="456" key="42"/>
          <note pan="0" len="12" vol="100" pos="480" key="36"/>
          <note pan="0" len="12" vol="100" pos="504" key="42"/>
          <note pan="0" len="12" vol="100" pos="528" key="42"/>
          <note pan="0" len="12" vol="100" pos="552" key="36"/>
          <note pan="0" len="12" vol="100" pos="576" key="42"/>
          <note pan="0" len="12" vol="100" pos="600" key="42"/>
          <note pan="0" len="12" vol="100" pos="612" key="42"/>
          <note pan="0" len="12" vol="100" pos="624" key="36"/>
          <note pan="0" len="12" vol="100" pos="648" key="42"/>
          <note pan="0" len="12" vol="100" pos="672" key="40"/>
          <note pan="0" len="12" vol="100" pos="672" key="36"/>
          <note pan="0" len="12" vol="100" pos="696" key="42"/>
          <note pan="0" len="12" vol="100" pos="720" key="36"/>
          <note pan="0" len="12" vol="100" pos="744" key="42"/>
          <note pan="0" len="12" vol="100" pos="768" key="42"/>
          <note pan="0" len="12" vol="100" pos="792" key="36"/>
          <note pan="0" len="12" vol="100" pos="816" key="42"/>
          <note pan="0" len="12" vol="100" pos="840" key="42"/>
          <note pan="0" len="12" vol="100" pos="864" key="46"/>
          <note pan="0" len="12" vol="100" pos="864" key="36"/>
          <note pan="0" len="12" vol="100" pos="888" key="42"/>
          <note pan="0" len="12" vol="100" pos="912" key="40"/>
          <note pan="0" len="12" vol="100" pos="912" key="36"/>
          <note pan="0" len="12" vol="100" pos="936" key="42"/>
        </midiclip>
        <midiclip name="" steps="16" type="1" muted="0" pos="960">
          <note pan="0" len="12" vol="100" pos="0" key="36"/>
          <note pan="0" len="12" vol="100" pos="24" key="42"/>
          <note pan="0" len="12" vol="100" pos="48" key="42"/>
          <note pan="0" len="12" vol="100" pos="72" key="36"/>
          <note pan="0" len="12" vol="100" pos="96" key="46"/>
          <note pan="0" len="12" vol="100" pos="120" key="42"/>
          <note pan="0" len="12" vol="100" pos="144" key="42"/>
          <note pan="0" len="12" vol="100" pos="144" key="36"/>
          <note pan="0" len="12" vol="100" pos="168" key="42"/>
        </midiclip>
        <midiclip name="" steps="16" type="1" muted="0" pos="0">
          <note pan="0" len="12" vol="100" pos="0" key="36"/>
          <note pan="0" len="12" vol="100" pos="72" key="36"/>
          <note pan="0" len="12" vol="100" pos="144" key="36"/>
          <note pan="0" len="12" vol="100" pos="192" key="40"/>
          <note pan="0" len="12" vol="100" pos="192" key="36"/>
          <note pan="0" len="12" vol="100" pos="216" key="46"/>
          <note pan="0" len="12" vol="100" pos="240" key="36"/>
          <note pan="0" len="12" vol="100" pos="312" key="36"/>
          <note pan="0" len="12" vol="100" pos="384" key="46"/>
          <note pan="0" len="12" vol="100" pos="384" key="36"/>
          <note pan="0" len="12" vol="100" pos="432" key="40"/>
          <note pan="0" len="12" vol="100" pos="432" key="36"/>
          <note pan="0" len="12" vol="100" pos="480" key="36"/>
          <note pan="0" len="12" vol="100" pos="552" key="36"/>
          <note pan="0" len="12" vol="100" pos="624" key="36"/>
          <note pan="0" len="12" vol="100" pos="672" key="40"/>
          <note pan="0" len="12" vol="100" pos="672" key="36"/>
          <note pan="0" len="12" vol="100" pos="696" key="46"/>
          <note pan="0" len="12" vol="100" pos="720" key="36"/>
          <note pan="0" len="12" vol="100" pos="792" key="36"/>
          <note pan="0" len="12" vol="100" pos="864" key="46"/>
          <note pan="0" len="12" vol="100" pos="864" key="36"/>
          <note pan="0" len="12" vol="100" pos="912" key="40"/>
          <note pan="0" len="12" vol="100" pos="912" key="36"/>
        </midiclip>
        <midiclip name="" steps="16" type="1" muted="0" pos="1344">
          <note pan="0" len="12" vol="100" pos="0" key="36"/>
          <note pan="0" len="12" vol="100" pos="24" key="42"/>
          <note pan="0" len="12" vol="100" pos="48" key="40"/>
          <note pan="0" len="12" vol="100" pos="48" key="36"/>
          <note pan="0" len="12" vol="100" pos="72" key="42"/>
          <note pan="0" len="12" vol="100" pos="96" key="36"/>
          <note pan="0" len="12" vol="100" pos="120" key="42"/>
          <note pan="0" len="12" vol="100" pos="144" key="40"/>
          <note pan="0" len="12" vol="100" pos="144" key="36"/>
          <note pan="0" len="12" vol="100" pos="168" key="42"/>
        </midiclip>
        <midiclip name="" steps="16" type="1" muted="0" pos="2112">
          <note pan="0" len="12" vol="100" pos="0" key="36"/>
          <note pan="0" len="12" vol="100" pos="24" key="42"/>
          <note pan="0" len="12" vol="100" pos="48" key="40"/>
          <note pan="0" len="12" vol="100" pos="48" key="36"/>
          <note pan="0" len="12" vol="100" pos="72" key="42"/>
          <note pan="0" len="12" vol="100" pos="96" key="36"/>
          <note pan="0" len="12" vol="100" pos="120" key="42"/>
          <note pan="0" len="12" vol="100" pos="144" key="40"/>
          <note pan="0" len="12" vol="100" pos="144" key="36"/>
          <note pan="0" len="12" vol="100" pos="168" key="42"/>
        </midiclip>
        <midiclip name="" steps="16" type="1" muted="0" pos="2688">
          <note pan="0" len="12" vol="100" pos="0" key="36"/>
          <note pan="0" len="12" vol="100" pos="24" key="42"/>
          <note pan="0" len="12" vol="100" pos="48" key="40"/>
          <note pan="0" len="12" vol="100" pos="48" key="36"/>
          <note pan="0" len="12" vol="100" pos="72" key="42"/>
          <note pan="0" len="12" vol="100" pos="96" key="36"/>
          <note pan="0" len="12" vol="100" pos="120" key="42"/>
          <note pan="0" len="12" vol="100" pos="144" key="40"/>
          <note pan="0" len="12" vol="100" pos="144" key="36"/>
          <note pan="0" len="12" vol="100" pos="168" key="42"/>
        </midiclip>
        <midiclip name="" steps="16" type="1" muted="0" pos="2880">
          <note pan="0" len="12" vol="100" pos="0" key="36"/>
          <note pan="0" len="12" vol="100" pos="24" key="42"/>
          <note pan="0" len="12" vol="100" pos="36" key="44"/>
          <note pan="0" len="12" vol="100" pos="48" key="46"/>
          <note pan="0" len="12" vol="100" pos="48" key="40"/>
          <note pan="0" len="12" vol="100" pos="48" key="36"/>
          <note pan="0" len="12" vol="100" pos="72" key="42"/>
          <note pan="0" len="12" vol="100" pos="96" key="36"/>
          <note pan="0" len="12" vol="100" pos="120" key="46"/>
          <note pan="0" len="12" vol="100" pos="120" key="42"/>
          <note pan="0" len="12" vol="100" pos="144" key="40"/>
          <note pan="0" len="12" vol="100" pos="144" key="36"/>
          <note pan="0" len="12" vol="100" pos="168" key="46"/>
          <note pan="0" len="12" vol="100" pos="168" key="42"/>
        </midiclip>
        <midiclip name="" steps="16" type="1" muted="0" pos="4992">
          <note pan="0" len="12" vol="100" pos="0" key="36"/>
          <note pan="0" len="12" vol="100" pos="24" key="36"/>
          <note pan="0" len="12" vol="100" pos="48" key="42"/>
          <note pan="0" len="12" vol="100" pos="48" key="40"/>
          <note pan="0" len="12" vol="100" pos="48" key="36"/>
          <note pan="0" len="12" vol="100" pos="72" key="42"/>
          <note pan="0" len="12" vol="100" pos="96" key="36"/>
          <note pan="0" len="12" vol="100" pos="120" key="36"/>
          <note pan="0" len="12" vol="100" pos="144" key="40"/>
          <note pan="0" len="12" vol="100" pos="144" key="36"/>
          <note pan="0" len="12" vol="100" pos="168" key="42"/>
        </midiclip>
        <midiclip name="" steps="16" type="1" muted="0" pos="5184">
          <note pan="0" len="12" vol="100" pos="0" key="36"/>
          <note pan="0" len="12" vol="100" pos="24" key="36"/>
          <note pan="0" len="12" vol="100" pos="48" key="42"/>
          <note pan="0" len="12" vol="100" pos="48" key="40"/>
          <note pan="0" len="12" vol="100" pos="48" key="36"/>
          <note pan="0" len="12" vol="100" pos="72" key="36"/>
          <note pan="0" len="12" vol="100" pos="96" key="36"/>
          <note pan="0" len="12" vol="100" pos="120" key="36"/>
          <note pan="0" len="12" vol="100" pos="144" key="40"/>
          <note pan="0" len="12" vol="100" pos="144" key="36"/>
          <note pan="0" len="12" vol="100" pos="168" key="42"/>
        </midiclip>
        <midiclip name="" steps="16" type="1" muted="0" pos="5376">
          <note pan="0" len="12" vol="100" pos="0" key="36"/>
          <note pan="0" len="12" vol="100" pos="24" key="36"/>
          <note pan="0" len="12" vol="100" pos="48" key="42"/>
          <note pan="0" len="12" vol="100" pos="48" key="40"/>
          <note pan="0" len="12" vol="100" pos="48" key="36"/>
          <note pan="0" len="12" vol="100" pos="72" key="42"/>
          <note pan="0" len="12" vol="100" pos="96" key="36"/>
          <note pan="0" len="12" vol="100" pos="120" key="36"/>
          <note pan="0" len="12" vol="100" pos="144" key="40"/>
          <note pan="0" len="12" vol="100" pos="144" key="36"/>
          <note pan="0" len="12" vol="100" pos="168" key="42"/>
        </midiclip>
        <midiclip name="" steps="16" type="1" muted="0" pos="6528">
          <note pan="0" len="12" vol="100" pos="0" key="36"/>
          <note pan="0" len="12" vol="100" pos="48" key="36"/>
          <note pan="0" len="12" vol="100" pos="96" key="36"/>
          <note pan="0" len="12" vol="100" pos="144" key="36"/>
        </midiclip>
        <midiclip name="" steps="16" type="1" muted="0" pos="7104">
          <note pan="0" len="12" vol="100" pos="0" key="36"/>
          <note pan="0" len="12" vol="100" pos="72" key="36"/>
          <note pan="0" len="12" vol="100" pos="144" key="40"/>
          <note pan="0" len="12" vol="100" pos="216" key="46"/>
          <note pan="0" len="12" vol="100" pos="216" key="36"/>
          <note pan="0" len="12" vol="100" pos="288" key="36"/>
          <note pan="0" len="12" vol="100" pos="336" key="36"/>
        </midiclip>
        <midiclip name="" steps="16" type="1" muted="0" pos="6720">
          <note pan="0" len="12" vol="100" pos="0" key="46"/>
          <note pan="0" len="12" vol="100" pos="0" key="36"/>
          <note pan="0" len="12" vol="100" pos="72" key="36"/>
          <note pan="0" len="12" vol="100" pos="144" key="38"/>
          <note pan="0" len="12" vol="100" pos="216" key="36"/>
          <note pan="0" len="12" vol="100" pos="288" key="36"/>
          <note pan="0" len="12" vol="100" pos="336" key="36"/>
        </midiclip>
        <midiclip name="" steps="16" type="1" muted="0" pos="7872">
          <note pan="0" len="12" vol="100" pos="0" key="36"/>
          <note pan="0" len="12" vol="100" pos="72" key="36"/>
          <note pan="0" len="12" vol="100" pos="144" key="40"/>
          <note pan="0" len="12" vol="100" pos="216" key="46"/>
          <note pan="0" len="12" vol="100" pos="216" key="36"/>
          <note pan="0" len="12" vol="100" pos="288" key="36"/>
          <note pan="0" len="12" vol="100" pos="336" key="36"/>
        </midiclip>
        <midiclip name="" steps="16" type="1" muted="0" pos="7488">
          <note pan="0" len="12" vol="100" pos="0" key="46"/>
          <note pan="0" len="12" vol="100" pos="0" key="36"/>
          <note pan="0" len="12" vol="100" pos="72" key="36"/>
          <note pan="0" len="12" vol="100" pos="144" key="38"/>
          <note pan="0" len="12" vol="100" pos="216" key="36"/>
          <note pan="0" len="12" vol="100" pos="288" key="36"/>
          <note pan="0" len="12" vol="100" pos="336" key="36"/>
        </midiclip>
        <midiclip name="" steps="16" type="1" muted="0" pos="8256">
          <note pan="0" len="12" vol="100" pos="0" key="46"/>
          <note pan="0" len="12" vol="100" pos="0" key="36"/>
        </midiclip>
        <midiclip name="" steps="16" type="1" muted="0" pos="5568">
          <note pan="0" len="12" vol="100" pos="0" key="36"/>
          <note pan="0" len="12" vol="100" pos="24" key="36"/>
          <note pan="0" len="12" vol="100" pos="48" key="42"/>
          <note pan="0" len="12" vol="100" pos="48" key="40"/>
          <note pan="0" len="12" vol="100" pos="48" key="36"/>
          <note pan="0" len="12" vol="100" pos="72" key="42"/>
          <note pan="0" len="12" vol="100" pos="96" key="36"/>
          <note pan="0" len="12" vol="100" pos="120" key="36"/>
          <note pan="0" len="12" vol="100" pos="144" key="40"/>
          <note pan="0" len="12" vol="100" pos="144" key="36"/>
          <note pan="0" len="12" vol="100" pos="168" key="36"/>
        </midiclip>
        <midiclip name="" steps="16" type="1" muted="0" pos="5760">
          <note pan="0" len="12" vol="100" pos="0" key="36"/>
          <note pan="0" len="12" vol="100" pos="24" key="36"/>
          <note pan="0" len="12" vol="100" pos="48" key="42"/>
          <note pan="0" len="12" vol="100" pos="48" key="40"/>
          <note pan="0" len="12" vol="100" pos="48" key="36"/>
          <note pan="0" len="12" vol="100" pos="72" key="42"/>
          <note pan="0" len="12" vol="100" pos="96" key="36"/>
          <note pan="0" len="12" vol="100" pos="120" key="36"/>
          <note pan="0" len="12" vol="100" pos="144" key="40"/>
          <note pan="0" len="12" vol="100" pos="144" key="36"/>
          <note pan="0" len="12" vol="100" pos="168" key="42"/>
        </midiclip>
        <midiclip name="" steps="16" type="1" muted="0" pos="5952">
          <note pan="0" len="12" vol="100" pos="0" key="36"/>
          <note pan="0" len="12" vol="100" pos="24" key="36"/>
          <note pan="0" len="12" vol="100" pos="48" key="42"/>
          <note pan="0" len="12" vol="100" pos="48" key="40"/>
          <note pan="0" len="12" vol="100" pos="48" key="36"/>
          <note pan="0" len="12" vol="100" pos="72" key="36"/>
          <note pan="0" len="12" vol="100" pos="96" key="36"/>
          <note pan="0" len="12" vol="100" pos="120" key="36"/>
          <note pan="0" len="12" vol="100" pos="144" key="40"/>
          <note pan="0" len="12" vol="100" pos="144" key="36"/>
          <note pan="0" len="12" vol="100" pos="168" key="42"/>
        </midiclip>
        <midiclip name="" steps="16" type="1" muted="0" pos="6144">
          <note pan="0" len="12" vol="100" pos="0" key="36"/>
          <note pan="0" len="12" vol="100" pos="24" key="36"/>
          <note pan="0" len="12" vol="100" pos="48" key="42"/>
          <note pan="0" len="12" vol="100" pos="48" key="40"/>
          <note pan="0" len="12" vol="100" pos="48" key="36"/>
          <note pan="0" len="12" vol="100" pos="72" key="42"/>
          <note pan="0" len="12" vol="100" pos="96" key="36"/>
          <note pan="0" len="12" vol="100" pos="120" key="36"/>
          <note pan="0" len="12" vol="100" pos="144" key="40"/>
          <note pan="0" len="12" vol="100" pos="144" key="36"/>
          <note pan="0" len="12" vol="100" pos="168" key="42"/>
        </midiclip>
        <midiclip name="" steps="16" type="1" muted="0" pos="6336">
          <note pan="0" len="12" vol="100" pos="0" key="36"/>
          <note pan="0" len="12" vol="100" pos="24" key="36"/>
          <note pan="0" len="12" vol="100" pos="48" key="42"/>
          <note pan="0" len="12" vol="100" pos="48" key="40"/>
          <note pan="0" len="12" vol="100" pos="48" key="36"/>
          <note pan="0" len="12" vol="100" pos="72" key="42"/>
          <note pan="0" len="12" vol="100" pos="96" key="36"/>
          <note pan="0" len="12" vol="100" pos="120" key="36"/>
          <note pan="0" len="12" vol="100" pos="144" key="40"/>
          <note pan="0" len="12" vol="100" pos="144" key="36"/>
          <note pan="0" len="12" vol="100" pos="168" key="36"/>
        </midiclip>
      </track>
    </trackcontainer>
    <track name="Automation track" mutedBeforeSolo="0" type="6" muted="0" solo="0">
      <automationtrack/>
      <automationclip name="Numerator" mute="0" len="192" tens="1" prog="0" pos="0"/>
      <automationclip name="Denominator" mute="0" len="192" tens="1" prog="0" pos="0"/>
      <automationclip name="Tempo" mute="0" len="192" tens="1" prog="0" pos="0"/>
      <automationclip name="Master volume" mute="0" len="192" tens="1" prog="0" pos="0"/>
      <automationclip name="Master pitch" mute="0" len="192" tens="1" prog="0" pos="0"/>
    </track>
    <mixer height="333" visible="1" minimized="0" x="2" width="1049" maximized="0" y="586">
      <mixerchannel name="Master" soloed="0" num="0" volume="1.5" muted="0">
        <fxchain enabled="1" numofeffects="0"/>
      </mixerchannel>
      <mixerchannel name="Fade" soloed="0" num="1" muted="0">
        <fxchain enabled="1" numofeffects="0"/>
        <volume id="15691" value="1" scale_type="linear"/>
        <send amount="1" channel="0"/>
      </mixerchannel>
      <mixerchannel name="Oboe" soloed="0" num="2" volume="0.42" muted="0">
        <fxchain enabled="1" numofeffects="1">
          <effect autoquit_denominator="4" name="vsteffect" autoquit_syncmode="0" autoquit="1" wet="1" autoquit_numerator="4" on="1" gate="0">
            <vsteffectcontrols param5="5:Early Ref.:0.5" plugin="Effects\Classic Reverb\Classic Reverb.dll" numparams="8" param1="1:Damping:0.24" param0="0:Size:0.81" param3="3:Hi Damp:0.23" program="0" param2="2:Predelay:0.5" param4="4:Lo Cut:0.3" param7="7:Level:0.5" guivisible="0" param6="6:Mix:0.2"/>
            <key>
              <attribute name="file" value="Effects\Classic Reverb\Classic Reverb.dll"/>
            </key>
          </effect>
        </fxchain>
        <send amount="1" channel="1"/>
      </mixerchannel>
      <mixerchannel name="Sax" soloed="0" num="3" volume="0.55" muted="0">
        <fxchain enabled="1" numofeffects="2">
          <effect autoquit_denominator="4" name="vsteffect" autoquit_syncmode="0" autoquit="1" wet="1" autoquit_numerator="4" on="1" gate="0">
            <vsteffectcontrols param5="5:Early Ref.:0" plugin="Effects\Classic Reverb\Classic Reverb.dll" numparams="8" param1="1:Damping:0.28" param0="0:Size:0.68" param3="3:Hi Damp:0.36" program="0" param2="2:Predelay:0.5" param4="4:Lo Cut:0.3" param7="7:Level:0.5" guivisible="0" param6="6:Mix:0.2"/>
            <key>
              <attribute name="file" value="Effects\Classic Reverb\Classic Reverb.dll"/>
            </key>
          </effect>
          <effect autoquit_denominator="4" name="vsteffect" autoquit_syncmode="0" autoquit="1" wet="1" autoquit_numerator="4" on="1" gate="0">
            <vsteffectcontrols param10="10:Low Cut:0" param11="11:Hi Cut:0.9" param2="2:Type:0.5" numparams="14" param0="0:Pan:0.5" param5="5:T.S.D.:0.33" param3="3:Sync:1" plugin="Effects\Classic Delay\Classic Delay.dll" param12="12:Mix:0.1" param8="8:Ping-Pong:0" param6="6:Time:0.5" param13="13:Level:0.5" guivisible="0" param9="9:Quality:0.7" program="0" param7="7:Feedback:0.4" param4="4:T.S.N.:0" param1="1:Mono:0"/>
            <key>
              <attribute name="file" value="Effects\Classic Delay\Classic Delay.dll"/>
            </key>
          </effect>
        </fxchain>
        <send amount="1" channel="1"/>
      </mixerchannel>
      <mixerchannel name="Drums" soloed="0" num="4" volume="1.35" muted="0">
        <fxchain enabled="1" numofeffects="2">
          <effect autoquit_denominator="4" name="vsteffect" autoquit_syncmode="0" autoquit="1" wet="1" autoquit_numerator="4" on="1" gate="0">
            <vsteffectcontrols param5="5:Early Ref.:0" plugin="Effects\Classic Reverb\Classic Reverb.dll" numparams="8" param1="1:Damping:0.3" param0="0:Size:0.88" param3="3:Hi Damp:0.5" program="0" param2="2:Predelay:0.5" param4="4:Lo Cut:0.3" param7="7:Level:0.5" guivisible="0" param6="6:Mix:0.1"/>
            <key>
              <attribute name="file" value="Effects\Classic Reverb\Classic Reverb.dll"/>
            </key>
          </effect>
          <effect autoquit_denominator="4" name="vsteffect" autoquit_syncmode="0" autoquit="1" wet="1" autoquit_numerator="4" on="1" gate="0">
            <vsteffectcontrols param10="10:Low Cut:0" param11="11:Hi Cut:0.9" param2="2:Type:0.5" numparams="14" param0="0:Pan:0.5" param5="5:T.S.D.:0.26" param3="3:Sync:1" plugin="Effects\Classic Delay\Classic Delay.dll" param12="12:Mix:0.1" param8="8:Ping-Pong:0" param6="6:Time:0.5" param13="13:Level:0.5" guivisible="0" param9="9:Quality:0" program="0" param7="7:Feedback:0" param4="4:T.S.N.:0" param1="1:Mono:0"/>
            <key>
              <attribute name="file" value="Effects\Classic Delay\Classic Delay.dll"/>
            </key>
          </effect>
        </fxchain>
        <send amount="1" channel="1"/>
      </mixerchannel>
      <mixerchannel name="Bass" soloed="0" num="5" volume="1.25" muted="0">
        <fxchain enabled="1" numofeffects="1">
          <effect autoquit_denominator="4" name="vsteffect" autoquit_syncmode="0" autoquit="1" wet="1" autoquit_numerator="4" on="1" gate="0">
            <vsteffectcontrols param5="5:Early Ref.:0" plugin="Effects\Classic Reverb\Classic Reverb.dll" numparams="8" param1="1:Damping:0.3" param0="0:Size:0.74" param3="3:Hi Damp:0.5" program="0" param2="2:Predelay:0.5" param4="4:Lo Cut:0.3" param7="7:Level:0.5" guivisible="0" param6="6:Mix:0.2"/>
            <key>
              <attribute name="file" value="Effects\Classic Reverb\Classic Reverb.dll"/>
            </key>
          </effect>
        </fxchain>
        <send amount="1" channel="1"/>
      </mixerchannel>
      <mixerchannel name="Piano" soloed="0" num="6" volume="0.22" muted="0">
        <fxchain enabled="1" numofeffects="2">
          <effect autoquit_denominator="4" name="vsteffect" autoquit_syncmode="0" autoquit="1" wet="1" autoquit_numerator="4" on="1" gate="0">
            <vsteffectcontrols param5="5:Early Ref.:0" plugin="Effects\Classic Reverb\Classic Reverb.dll" numparams="8" param1="1:Damping:0.28" param0="0:Size:0.87" param3="3:Hi Damp:0.33" program="0" param2="2:Predelay:0.5" param4="4:Lo Cut:0.3" param7="7:Level:0.5" guivisible="0" param6="6:Mix:0.18"/>
            <key>
              <attribute name="file" value="Effects\Classic Reverb\Classic Reverb.dll"/>
            </key>
          </effect>
          <effect autoquit_denominator="4" name="vsteffect" autoquit_syncmode="0" autoquit="1" wet="1" autoquit_numerator="4" on="1" gate="0">
            <vsteffectcontrols param10="10:Low Cut:0" param11="11:Hi Cut:0.9" param2="2:Type:0.5" numparams="14" param0="0:Pan:0.5" param5="5:T.S.D.:0.47" param3="3:Sync:1" plugin="Effects\Classic Delay\Classic Delay.dll" param12="12:Mix:0.12" param8="8:Ping-Pong:0" param6="6:Time:0.5" param13="13:Level:0.5" guivisible="0" param9="9:Quality:0.5" program="0" param7="7:Feedback:0.25" param4="4:T.S.N.:0" param1="1:Mono:0"/>
            <key>
              <attribute name="file" value="Effects\Classic Delay\Classic Delay.dll"/>
            </key>
          </effect>
        </fxchain>
        <send amount="1" channel="1"/>
      </mixerchannel>
      <mixerchannel name="Guitar" soloed="0" num="7" volume="0.28" muted="0">
        <fxchain enabled="1" numofeffects="2">
          <effect autoquit_denominator="4" name="vsteffect" autoquit_syncmode="0" autoquit="1" wet="1" autoquit_numerator="4" on="1" gate="0">
            <vsteffectcontrols param5="5:Early Ref.:0" plugin="Effects\Classic Reverb\Classic Reverb.dll" numparams="8" param1="1:Damping:0.13" param0="0:Size:0.87" param3="3:Hi Damp:0.39" program="0" param2="2:Predelay:0.5" param4="4:Lo Cut:0.3" param7="7:Level:0.5" guivisible="0" param6="6:Mix:0.3"/>
            <key>
              <attribute name="file" value="Effects\Classic Reverb\Classic Reverb.dll"/>
            </key>
          </effect>
          <effect autoquit_denominator="4" name="vsteffect" autoquit_syncmode="0" autoquit="1" wet="1" autoquit_numerator="4" on="1" gate="0">
            <vsteffectcontrols param10="10:Low Cut:0" param11="11:Hi Cut:0.9" param2="2:Type:0.5" numparams="14" param0="0:Pan:0" param5="5:T.S.D.:0.53" param3="3:Sync:1" plugin="Effects\Classic Delay\Classic Delay.dll" param12="12:Mix:0.2" param8="8:Ping-Pong:1" param6="6:Time:0.5" param13="13:Level:0.5" guivisible="0" param9="9:Quality:0.7" program="0" param7="7:Feedback:0.7" param4="4:T.S.N.:0.01" param1="1:Mono:0"/>
            <key>
              <attribute name="file" value="Effects\Classic Delay\Classic Delay.dll"/>
            </key>
          </effect>
        </fxchain>
        <send amount="1" channel="1"/>
      </mixerchannel>
    </mixer>
    <ControllerRackView height="200" visible="0" minimized="0" x="550" width="350" maximized="0" y="475"/>
    <pianoroll height="602" visible="0" minimized="0" x="161" width="970" maximized="0" y="141"/>
    <automationeditor height="400" visible="0" minimized="0" x="984" width="860" maximized="0" y="253"/>
    <projectnotes height="918" visible="1" minimized="0" x="1054" width="799" maximized="0" y="1"><![CDATA[<!DOCTYPE HTML PUBLIC "-//W3C//DTD HTML 4.0//EN" "http://www.w3.org/TR/REC-html40/strict.dtd">
<html><head><meta name="qrichtext" content="1" /><style type="text/css">
p, li { white-space: pre-wrap; }
</style></head><body style=" font-family:'MS Shell Dlg 2'; font-size:8.25pt; font-weight:400; font-style:normal;">
<p style=" margin-top:0px; margin-bottom:0px; margin-left:0px; margin-right:0px; -qt-block-indent:0; text-indent:0px;"><span style=" color:#e0e0e0;">Greetings.</span></p>
<p style=" margin-top:0px; margin-bottom:0px; margin-left:0px; margin-right:0px; -qt-block-indent:0; text-indent:0px;"><span style=" color:#e0e0e0;">Please use this in LMMS 1.3 or higher. Previous versions require editing to load correctly.</span></p>
<p style="-qt-paragraph-type:empty; margin-top:0px; margin-bottom:0px; margin-left:0px; margin-right:0px; -qt-block-indent:0; text-indent:0px; color:#e0e0e0;"><br /></p>
<p style=" margin-top:0px; margin-bottom:0px; margin-left:0px; margin-right:0px; -qt-block-indent:0; text-indent:0px;"><span style=" color:#e0e0e0;">Instruments:</span></p>
<p style=" margin-top:0px; margin-bottom:0px; margin-left:0px; margin-right:0px; -qt-block-indent:0; text-indent:0px;">Touhou.sf2: The venerable Touhou soundfont. Freely available.</p>
<p style=" margin-top:0px; margin-bottom:0px; margin-left:0px; margin-right:0px; -qt-block-indent:0; text-indent:0px;">Pseudo_Realistic_T_Sax_edit.sf2: An even-volume edit of the Pseudo_Realistic_T_Sax.sf2 on Musical Artifacts. No current known license holder, and no one has claimed ownership.</p>
<p style=" margin-top:0px; margin-bottom:0px; margin-left:0px; margin-right:0px; -qt-block-indent:0; text-indent:0px;">SGM-V2.01.sf2: The good ol' SGM soundfont. SF2 is freely available.</p>
<p style=" margin-top:0px; margin-bottom:0px; margin-left:0px; margin-right:0px; -qt-block-indent:0; text-indent:0px;">drums_ken_ardency_mono.sf: You can find drums_ken_ardency.sf2 on the internet. This is a mono edit that keeps stereo samples, yet removes the toms being shifted left and right.</p>
<p style="-qt-paragraph-type:empty; margin-top:0px; margin-bottom:0px; margin-left:0px; margin-right:0px; -qt-block-indent:0; text-indent:0px;"><br /></p>
<p style=" margin-top:0px; margin-bottom:0px; margin-left:0px; margin-right:0px; -qt-block-indent:0; text-indent:0px;"><span style=" color:#e0e0e0;">Effects:</span></p>
<p style=" margin-top:0px; margin-bottom:0px; margin-left:0px; margin-right:0px; -qt-block-indent:0; text-indent:0px;"><span style=" color:#e0e0e0;">Classic Reverb, Classic Delay: Kjrhus Audio Classic Collection. Should be available even in the trial version of Acoustica's Mixcraft.</span></p>
<p style="-qt-paragraph-type:empty; margin-top:0px; margin-bottom:0px; margin-left:0px; margin-right:0px; -qt-block-indent:0; text-indent:0px; color:#e0e0e0;"><br /></p>
<p style=" margin-top:0px; margin-bottom:0px; margin-left:0px; margin-right:0px; -qt-block-indent:0; text-indent:0px;"><span style=" color:#e0e0e0;">Released as .mmp, adjust paths as desired.</span></p>
<p style="-qt-paragraph-type:empty; margin-top:0px; margin-bottom:0px; margin-left:0px; margin-right:0px; -qt-block-indent:0; text-indent:0px; color:#e0e0e0;"><br /></p>
<p style="-qt-paragraph-type:empty; margin-top:0px; margin-bottom:0px; margin-left:0px; margin-right:0px; -qt-block-indent:0; text-indent:0px; color:#e0e0e0;"><br /></p>
<p style=" margin-top:0px; margin-bottom:0px; margin-left:0px; margin-right:0px; -qt-block-indent:0; text-indent:0px;">Please note that the author explicitely wishes to have eventual derivates or redistributions distributed ONLY as .mmp files, not .mmpz.</p>
<p style=" margin-top:0px; margin-bottom:0px; margin-left:0px; margin-right:0px; -qt-block-indent:0; text-indent:0px;">There is nothing the license can do from stopping you as saving it as .mmpz, except that the author will insult you severely.</p>
<p style="-qt-paragraph-type:empty; margin-top:0px; margin-bottom:0px; margin-left:0px; margin-right:0px; -qt-block-indent:0; text-indent:0px;"><br /></p>
<p style=" margin-top:0px; margin-bottom:0px; margin-left:0px; margin-right:0px; -qt-block-indent:0; text-indent:0px;">Should you have received this file as an .mmpz, please insult its forwarder.</p>
<p style=" margin-top:0px; margin-bottom:0px; margin-left:0px; margin-right:0px; -qt-block-indent:0; text-indent:0px;">To convert the file into .mmp, follow these steps:</p>
<p style="-qt-paragraph-type:empty; margin-top:0px; margin-bottom:0px; margin-left:0px; margin-right:0px; -qt-block-indent:0; text-indent:0px;"><br /></p>
<p style=" margin-top:0px; margin-bottom:0px; margin-left:0px; margin-right:0px; -qt-block-indent:0; text-indent:0px;">1.: Create a a file called &quot;Decompress.cmd&quot; in the LMMS directory. (Where lmms.exe is located.)</p>
<p style=" margin-top:0px; margin-bottom:0px; margin-left:0px; margin-right:0px; -qt-block-indent:0; text-indent:0px;">2.: Right click on file, click &quot;Edit&quot;.</p>
<p style=" margin-top:0px; margin-bottom:0px; margin-left:0px; margin-right:0px; -qt-block-indent:0; text-indent:0px;">3.: Put the following line into the file:</p>
<p style="-qt-paragraph-type:empty; margin-top:0px; margin-bottom:0px; margin-left:0px; margin-right:0px; -qt-block-indent:0; text-indent:0px;"><br /></p>
<p style=" margin-top:0px; margin-bottom:0px; margin-left:0px; margin-right:0px; -qt-block-indent:0; text-indent:0px;">&quot;%~dp0LMMS.exe&quot; -d &quot;%*&quot; &gt; &quot;%*.mmp&quot;</p>
<p style="-qt-paragraph-type:empty; margin-top:0px; margin-bottom:0px; margin-left:0px; margin-right:0px; -qt-block-indent:0; text-indent:0px;"><br /></p>
<p style=" margin-top:0px; margin-bottom:0px; margin-left:0px; margin-right:0px; -qt-block-indent:0; text-indent:0px;">This does the following:</p>
<p style=" margin-top:0px; margin-bottom:0px; margin-left:0px; margin-right:0px; -qt-block-indent:0; text-indent:0px;">%~dp0 return the folder where the .cmd file is located.</p>
<p style=" margin-top:0px; margin-bottom:0px; margin-left:0px; margin-right:0px; -qt-block-indent:0; text-indent:0px;">It then calls LMMS.exe inside that folder.</p>
<p style=" margin-top:0px; margin-bottom:0px; margin-left:0px; margin-right:0px; -qt-block-indent:0; text-indent:0px;">-d is the decompress option for an .mmpz file.</p>
<p style=" margin-top:0px; margin-bottom:0px; margin-left:0px; margin-right:0px; -qt-block-indent:0; text-indent:0px;">%* returns any parameters given to the .cmd file.</p>
<p style=" margin-top:0px; margin-bottom:0px; margin-left:0px; margin-right:0px; -qt-block-indent:0; text-indent:0px;">&gt; sends the output into a file.</p>
<p style="-qt-paragraph-type:empty; margin-top:0px; margin-bottom:0px; margin-left:0px; margin-right:0px; -qt-block-indent:0; text-indent:0px;"><br /></p>
<p style=" margin-top:0px; margin-bottom:0px; margin-left:0px; margin-right:0px; -qt-block-indent:0; text-indent:0px;">If you drag an .mmpz file onto the .cmd file, it will decompress it into &quot;[filename].mmpz.mmp&quot;, at the original location.</p></body></html>]]></projectnotes>
    <timeline stopbehaviour="1" lp0pos="0" lpstate="1" lp1pos="9024"/>
    <controllers/>
    <scales>
      <scale description="empty">
        <interval num="1" den="1"/>
      </scale>
      <scale description="empty">
        <interval num="1" den="1"/>
      </scale>
      <scale description="empty">
        <interval num="1" den="1"/>
      </scale>
      <scale description="empty">
        <interval num="1" den="1"/>
      </scale>
      <scale description="empty">
        <interval num="1" den="1"/>
      </scale>
      <scale description="empty">
        <interval num="1" den="1"/>
      </scale>
      <scale description="empty">
        <interval num="1" den="1"/>
      </scale>
      <scale description="empty">
        <interval num="1" den="1"/>
      </scale>
      <scale description="empty">
        <interval num="1" den="1"/>
      </scale>
      <scale description="empty">
        <interval num="1" den="1"/>
      </scale>
    </scales>
    <keymaps>
      <keymap base_freq="440" base_key="69" description="empty" first_key="0" middle_key="60" last_key="127"/>
      <keymap base_freq="440" base_key="69" description="empty" first_key="0" middle_key="60" last_key="127"/>
      <keymap base_freq="440" base_key="69" description="empty" first_key="0" middle_key="60" last_key="127"/>
      <keymap base_freq="440" base_key="69" description="empty" first_key="0" middle_key="60" last_key="127"/>
      <keymap base_freq="440" base_key="69" description="empty" first_key="0" middle_key="60" last_key="127"/>
      <keymap base_freq="440" base_key="69" description="empty" first_key="0" middle_key="60" last_key="127"/>
      <keymap base_freq="440" base_key="69" description="empty" first_key="0" middle_key="60" last_key="127"/>
      <keymap base_freq="440" base_key="69" description="empty" first_key="0" middle_key="60" last_key="127"/>
      <keymap base_freq="440" base_key="69" description="empty" first_key="0" middle_key="60" last_key="127"/>
      <keymap base_freq="440" base_key="69" description="empty" first_key="0" middle_key="60" last_key="127"/>
    </keymaps>
  </song>
</lmms-project>
