<?xml version="1.0"?>
<!DOCTYPE lmms-project>
<lmms-project creator="LMMS" type="song" version="18" creatorversion="1.3.0-alpha.1.33+g4f74151f0">
  <head bpm="76" mastervol="100" timesig_numerator="4" timesig_denominator="4" masterpitch="0"/>
  <song>
    <trackcontainer minimized="0" type="song" visible="1" x="3" maximized="0" y="5" width="1150" height="555">
      <track mutedBeforeSolo="0" type="0" muted="0" solo="0" name="sforzando">
        <instrumenttrack pitch="0" fxch="1" vol="100" basenote="45" pitchrange="1" pan="0" usemasterpitch="1">
          <instrument name="vestige">
            <vestige chunk="Q0VHUH0FAAB4nI1UTW/bMAy9D9h/EHRPLPkzLuIVWVMMPgQrkPZcMLKSCpOlzJazbr9+tJM43tDA8Ul8fKTIJ5Pz+/dSk4OsamVNRvmUUXL/5fOn+aJSsIaDHPjSOKVkX9miES5fIsB4SJFL8JuvpXPK7GryswGt3G90U1K7SkKJcEYDn5IS3tcdstDaitXXjEYc4VW+zL83bmUL2UVB42wJDi9da+syyoaQlgepM6oM5m5KaRwlWh3kMRiZtcAcQXcADQhxMiGyLWpaC32CHzBOVhmNkbfTdgP6uTFdmQh4fUt4O1FFBxooMf/DnfdSox7eUhnrLa3oKqi9evtHFsp54s1WhQIzRYCSDZgfOYZPsKdeRcwl3sCYtonWsbcatYpDStylhP3mtQKzkyeKQ6PuHOXgaIXD9/m36bJxJ+TXq4YaxfP7J+p6WoEy554OoJuj4t6HFN5T2DWKP04JxinhOCUap8TjlGScMhunpOMUzm7g3KAvv0FgfoPC/AaJ+XWNn6CC8n+Rp4wlsyRkPEr4LE5nEfOvhnH/ouukjWTc91nCAu5H14OCgULTiAVpkDAWpWmcsHDw1869dlLPxuN2K4Ubzm4/HcchXpQbJY2QlwHtFtlw0YXHRSf6rdJf9e0lP6cF4XDx5Jcd1dmPvV1LjYXI4hk2xzluk8y982JF4y8gI3CR" program="0" plugin="uservst:Instruments/sforzando/sforzando VST_x86.dll" guivisible="0">
              <key/>
            </vestige>
          </instrument>
          <eldata fcut="14000" ftype="0" fres="0.5" fwet="0">
            <elvol x100="0" lpdel="0" dec="0.5" amt="0" lspd="0.1" lspd_syncmode="0" hold="0.5" ctlenvamt="0" lspd_numerator="4" lamt="0" sustain="0.5" latt="0" lspd_denominator="4" att="0" rel="0.1" pdel="0" lshp="0" userwavefile=""/>
            <elcut x100="0" lpdel="0" dec="0.5" amt="0" lspd="0.1" lspd_syncmode="0" hold="0.5" ctlenvamt="0" lspd_numerator="4" lamt="0" sustain="0.5" latt="0" lspd_denominator="4" att="0" rel="0.1" pdel="0" lshp="0" userwavefile=""/>
            <elres x100="0" lpdel="0" dec="0.5" amt="0" lspd="0.1" lspd_syncmode="0" hold="0.5" ctlenvamt="0" lspd_numerator="4" lamt="0" sustain="0.5" latt="0" lspd_denominator="4" att="0" rel="0.1" pdel="0" lshp="0" userwavefile=""/>
          </eldata>
          <chordcreator chord-enabled="0" chord="0" chordrange="1"/>
          <arpeggiator arpmiss="0" arp-enabled="0" arpdir="0" arpcycle="0" arprange="1" arpgate="100" arptime_denominator="4" arp="0" arptime_numerator="4" arptime_syncmode="0" arptime="25" arpmode="2" arpskip="0"/>
          <midiport inputcontroller="0" outputcontroller="0" outputchannel="1" basevelocity="63" inputchannel="0" outputprogram="1" writable="0" fixedinputvelocity="-1" fixedoutputnote="-1" inports="" fixedoutputvelocity="-1" readable="1"/>
          <fxchain enabled="0" numofeffects="0"/>
        </instrumenttrack>
        <pattern type="1" steps="16" muted="0" name="" pos="0">
          <note key="60" vol="103" len="12" pan="0" pos="0"/>
          <note key="26" vol="103" len="12" pan="0" pos="0"/>
          <note key="12" vol="103" len="192" pan="0" pos="0"/>
          <note key="0" vol="103" len="192" pan="0" pos="0"/>
          <note key="61" vol="103" len="12" pan="0" pos="12"/>
          <note key="62" vol="103" len="12" pan="0" pos="24"/>
          <note key="29" vol="103" len="12" pan="0" pos="24"/>
          <note key="24" vol="103" len="6" pan="0" pos="24"/>
          <note key="36" vol="103" len="12" pan="0" pos="36"/>
          <note key="63" vol="103" len="12" pan="0" pos="48"/>
          <note key="26" vol="103" len="12" pan="0" pos="48"/>
          <note key="64" vol="103" len="12" pan="0" pos="60"/>
          <note key="65" vol="103" len="12" pan="0" pos="72"/>
          <note key="29" vol="103" len="12" pan="0" pos="72"/>
          <note key="43" vol="103" len="12" pan="0" pos="84"/>
          <note key="66" vol="103" len="12" pan="0" pos="96"/>
          <note key="26" vol="103" len="12" pan="0" pos="96"/>
          <note key="67" vol="103" len="12" pan="0" pos="108"/>
          <note key="68" vol="103" len="12" pan="0" pos="120"/>
          <note key="29" vol="103" len="12" pan="0" pos="120"/>
          <note key="24" vol="103" len="6" pan="0" pos="120"/>
          <note key="36" vol="103" len="12" pan="0" pos="132"/>
          <note key="69" vol="103" len="12" pan="0" pos="144"/>
          <note key="26" vol="103" len="12" pan="0" pos="144"/>
          <note key="70" vol="103" len="12" pan="0" pos="156"/>
          <note key="29" vol="103" len="12" pan="0" pos="156"/>
          <note key="71" vol="103" len="12" pan="0" pos="168"/>
          <note key="26" vol="103" len="12" pan="0" pos="168"/>
          <note key="36" vol="103" len="12" pan="0" pos="180"/>
          <note key="29" vol="103" len="12" pan="0" pos="180"/>
          <note key="24" vol="103" len="6" pan="0" pos="180"/>
          <note key="60" vol="103" len="12" pan="0" pos="192"/>
          <note key="26" vol="103" len="12" pan="0" pos="192"/>
          <note key="12" vol="103" len="192" pan="0" pos="192"/>
          <note key="2" vol="103" len="192" pan="0" pos="192"/>
          <note key="61" vol="103" len="12" pan="0" pos="204"/>
          <note key="62" vol="103" len="12" pan="0" pos="216"/>
          <note key="29" vol="103" len="12" pan="0" pos="216"/>
          <note key="24" vol="103" len="6" pan="0" pos="216"/>
          <note key="48" vol="103" len="12" pan="0" pos="228"/>
          <note key="63" vol="103" len="12" pan="0" pos="240"/>
          <note key="26" vol="103" len="12" pan="0" pos="240"/>
          <note key="64" vol="103" len="12" pan="0" pos="252"/>
          <note key="65" vol="103" len="12" pan="0" pos="264"/>
          <note key="29" vol="103" len="12" pan="0" pos="264"/>
          <note key="55" vol="103" len="12" pan="0" pos="276"/>
          <note key="66" vol="103" len="12" pan="0" pos="288"/>
          <note key="26" vol="103" len="12" pan="0" pos="288"/>
          <note key="67" vol="103" len="12" pan="0" pos="300"/>
          <note key="68" vol="103" len="12" pan="0" pos="312"/>
          <note key="29" vol="103" len="12" pan="0" pos="312"/>
          <note key="24" vol="103" len="6" pan="0" pos="312"/>
          <note key="48" vol="103" len="12" pan="0" pos="324"/>
          <note key="69" vol="103" len="12" pan="0" pos="336"/>
          <note key="26" vol="103" len="12" pan="0" pos="336"/>
          <note key="70" vol="103" len="12" pan="0" pos="348"/>
          <note key="29" vol="103" len="12" pan="0" pos="348"/>
          <note key="71" vol="103" len="12" pan="0" pos="360"/>
          <note key="26" vol="103" len="12" pan="0" pos="360"/>
          <note key="48" vol="103" len="12" pan="0" pos="372"/>
          <note key="29" vol="103" len="12" pan="0" pos="372"/>
          <note key="24" vol="103" len="6" pan="0" pos="372"/>
          <note key="60" vol="103" len="12" pan="0" pos="384"/>
          <note key="26" vol="103" len="12" pan="0" pos="384"/>
          <note key="12" vol="103" len="192" pan="0" pos="384"/>
          <note key="4" vol="103" len="192" pan="0" pos="384"/>
          <note key="61" vol="103" len="12" pan="0" pos="396"/>
          <note key="62" vol="103" len="12" pan="0" pos="408"/>
          <note key="29" vol="103" len="12" pan="0" pos="408"/>
          <note key="24" vol="103" len="6" pan="0" pos="408"/>
          <note key="36" vol="103" len="12" pan="0" pos="420"/>
          <note key="63" vol="103" len="12" pan="0" pos="432"/>
          <note key="26" vol="103" len="12" pan="0" pos="432"/>
          <note key="64" vol="103" len="12" pan="0" pos="444"/>
          <note key="65" vol="103" len="12" pan="0" pos="456"/>
          <note key="29" vol="103" len="12" pan="0" pos="456"/>
          <note key="43" vol="103" len="12" pan="0" pos="468"/>
          <note key="66" vol="103" len="12" pan="0" pos="480"/>
          <note key="26" vol="103" len="12" pan="0" pos="480"/>
          <note key="67" vol="103" len="12" pan="0" pos="492"/>
          <note key="68" vol="103" len="12" pan="0" pos="504"/>
          <note key="29" vol="103" len="12" pan="0" pos="504"/>
          <note key="24" vol="103" len="6" pan="0" pos="504"/>
          <note key="36" vol="103" len="12" pan="0" pos="516"/>
          <note key="69" vol="103" len="12" pan="0" pos="528"/>
          <note key="26" vol="103" len="12" pan="0" pos="528"/>
          <note key="70" vol="103" len="12" pan="0" pos="540"/>
          <note key="29" vol="103" len="12" pan="0" pos="540"/>
          <note key="71" vol="103" len="12" pan="0" pos="552"/>
          <note key="26" vol="103" len="12" pan="0" pos="552"/>
          <note key="36" vol="103" len="12" pan="0" pos="564"/>
          <note key="29" vol="103" len="12" pan="0" pos="564"/>
          <note key="24" vol="103" len="6" pan="0" pos="564"/>
          <note key="60" vol="103" len="12" pan="0" pos="576"/>
          <note key="26" vol="103" len="12" pan="0" pos="576"/>
          <note key="12" vol="103" len="192" pan="0" pos="576"/>
          <note key="5" vol="103" len="192" pan="0" pos="576"/>
          <note key="61" vol="103" len="12" pan="0" pos="588"/>
          <note key="62" vol="103" len="12" pan="0" pos="600"/>
          <note key="29" vol="103" len="12" pan="0" pos="600"/>
          <note key="24" vol="103" len="6" pan="0" pos="600"/>
          <note key="48" vol="103" len="12" pan="0" pos="612"/>
          <note key="63" vol="103" len="12" pan="0" pos="624"/>
          <note key="26" vol="103" len="12" pan="0" pos="624"/>
          <note key="64" vol="103" len="12" pan="0" pos="636"/>
          <note key="65" vol="103" len="12" pan="0" pos="648"/>
          <note key="29" vol="103" len="12" pan="0" pos="648"/>
          <note key="57" vol="103" len="12" pan="0" pos="660"/>
          <note key="66" vol="103" len="12" pan="0" pos="672"/>
          <note key="26" vol="103" len="12" pan="0" pos="672"/>
          <note key="67" vol="103" len="12" pan="0" pos="684"/>
          <note key="68" vol="103" len="12" pan="0" pos="696"/>
          <note key="29" vol="103" len="12" pan="0" pos="696"/>
          <note key="24" vol="103" len="6" pan="0" pos="696"/>
          <note key="48" vol="103" len="12" pan="0" pos="708"/>
          <note key="69" vol="103" len="12" pan="0" pos="720"/>
          <note key="26" vol="103" len="12" pan="0" pos="720"/>
          <note key="70" vol="103" len="12" pan="0" pos="732"/>
          <note key="29" vol="103" len="12" pan="0" pos="732"/>
          <note key="71" vol="103" len="12" pan="0" pos="744"/>
          <note key="26" vol="103" len="12" pan="0" pos="744"/>
          <note key="48" vol="103" len="12" pan="0" pos="756"/>
          <note key="29" vol="103" len="12" pan="0" pos="756"/>
          <note key="24" vol="103" len="6" pan="0" pos="756"/>
          <note key="60" vol="103" len="12" pan="0" pos="768"/>
          <note key="26" vol="103" len="12" pan="0" pos="768"/>
          <note key="12" vol="103" len="192" pan="0" pos="768"/>
          <note key="7" vol="103" len="192" pan="0" pos="768"/>
          <note key="61" vol="103" len="12" pan="0" pos="780"/>
          <note key="62" vol="103" len="12" pan="0" pos="792"/>
          <note key="29" vol="103" len="12" pan="0" pos="792"/>
          <note key="24" vol="103" len="6" pan="0" pos="792"/>
          <note key="36" vol="103" len="12" pan="0" pos="804"/>
          <note key="63" vol="103" len="12" pan="0" pos="816"/>
          <note key="26" vol="103" len="12" pan="0" pos="816"/>
          <note key="64" vol="103" len="12" pan="0" pos="828"/>
          <note key="65" vol="103" len="12" pan="0" pos="840"/>
          <note key="29" vol="103" len="12" pan="0" pos="840"/>
          <note key="43" vol="103" len="12" pan="0" pos="852"/>
          <note key="66" vol="103" len="12" pan="0" pos="864"/>
          <note key="26" vol="103" len="12" pan="0" pos="864"/>
          <note key="67" vol="103" len="12" pan="0" pos="876"/>
          <note key="68" vol="103" len="12" pan="0" pos="888"/>
          <note key="29" vol="103" len="12" pan="0" pos="888"/>
          <note key="24" vol="103" len="6" pan="0" pos="888"/>
          <note key="36" vol="103" len="12" pan="0" pos="900"/>
          <note key="69" vol="103" len="12" pan="0" pos="912"/>
          <note key="26" vol="103" len="12" pan="0" pos="912"/>
          <note key="70" vol="103" len="12" pan="0" pos="924"/>
          <note key="29" vol="103" len="12" pan="0" pos="924"/>
          <note key="71" vol="103" len="12" pan="0" pos="936"/>
          <note key="26" vol="103" len="12" pan="0" pos="936"/>
          <note key="36" vol="103" len="12" pan="0" pos="948"/>
          <note key="29" vol="103" len="12" pan="0" pos="948"/>
          <note key="24" vol="103" len="6" pan="0" pos="948"/>
          <note key="60" vol="103" len="12" pan="0" pos="960"/>
          <note key="26" vol="103" len="12" pan="0" pos="960"/>
          <note key="12" vol="103" len="192" pan="0" pos="960"/>
          <note key="9" vol="103" len="192" pan="0" pos="960"/>
          <note key="61" vol="103" len="12" pan="0" pos="972"/>
          <note key="62" vol="103" len="12" pan="0" pos="984"/>
          <note key="29" vol="103" len="12" pan="0" pos="984"/>
          <note key="24" vol="103" len="6" pan="0" pos="984"/>
          <note key="48" vol="103" len="12" pan="0" pos="996"/>
          <note key="63" vol="103" len="12" pan="0" pos="1008"/>
          <note key="26" vol="103" len="12" pan="0" pos="1008"/>
          <note key="64" vol="103" len="12" pan="0" pos="1020"/>
          <note key="65" vol="103" len="12" pan="0" pos="1032"/>
          <note key="29" vol="103" len="12" pan="0" pos="1032"/>
          <note key="55" vol="103" len="12" pan="0" pos="1044"/>
          <note key="66" vol="103" len="12" pan="0" pos="1056"/>
          <note key="26" vol="103" len="12" pan="0" pos="1056"/>
          <note key="67" vol="103" len="12" pan="0" pos="1068"/>
          <note key="68" vol="103" len="12" pan="0" pos="1080"/>
          <note key="29" vol="103" len="12" pan="0" pos="1080"/>
          <note key="24" vol="103" len="6" pan="0" pos="1080"/>
          <note key="48" vol="103" len="12" pan="0" pos="1092"/>
          <note key="69" vol="103" len="12" pan="0" pos="1104"/>
          <note key="26" vol="103" len="12" pan="0" pos="1104"/>
          <note key="70" vol="103" len="12" pan="0" pos="1116"/>
          <note key="29" vol="103" len="12" pan="0" pos="1116"/>
          <note key="71" vol="103" len="12" pan="0" pos="1128"/>
          <note key="26" vol="103" len="12" pan="0" pos="1128"/>
          <note key="48" vol="103" len="12" pan="0" pos="1140"/>
          <note key="29" vol="103" len="12" pan="0" pos="1140"/>
          <note key="24" vol="103" len="6" pan="0" pos="1140"/>
          <note key="60" vol="103" len="12" pan="0" pos="1152"/>
          <note key="26" vol="103" len="12" pan="0" pos="1152"/>
          <note key="12" vol="103" len="192" pan="0" pos="1152"/>
          <note key="11" vol="103" len="192" pan="0" pos="1152"/>
          <note key="61" vol="103" len="12" pan="0" pos="1164"/>
          <note key="62" vol="103" len="12" pan="0" pos="1176"/>
          <note key="29" vol="103" len="12" pan="0" pos="1176"/>
          <note key="24" vol="103" len="6" pan="0" pos="1176"/>
          <note key="36" vol="103" len="12" pan="0" pos="1188"/>
          <note key="63" vol="103" len="12" pan="0" pos="1200"/>
          <note key="26" vol="103" len="12" pan="0" pos="1200"/>
          <note key="64" vol="103" len="12" pan="0" pos="1212"/>
          <note key="65" vol="103" len="12" pan="0" pos="1224"/>
          <note key="29" vol="103" len="12" pan="0" pos="1224"/>
          <note key="44" vol="103" len="12" pan="0" pos="1236"/>
          <note key="66" vol="103" len="12" pan="0" pos="1248"/>
          <note key="26" vol="103" len="12" pan="0" pos="1248"/>
          <note key="67" vol="103" len="12" pan="0" pos="1260"/>
          <note key="68" vol="103" len="12" pan="0" pos="1272"/>
          <note key="29" vol="103" len="12" pan="0" pos="1272"/>
          <note key="24" vol="103" len="6" pan="0" pos="1272"/>
          <note key="36" vol="103" len="12" pan="0" pos="1284"/>
          <note key="69" vol="103" len="12" pan="0" pos="1296"/>
          <note key="26" vol="103" len="12" pan="0" pos="1296"/>
          <note key="70" vol="103" len="12" pan="0" pos="1308"/>
          <note key="29" vol="103" len="12" pan="0" pos="1308"/>
          <note key="71" vol="103" len="12" pan="0" pos="1320"/>
          <note key="26" vol="103" len="12" pan="0" pos="1320"/>
          <note key="36" vol="103" len="12" pan="0" pos="1332"/>
          <note key="29" vol="103" len="12" pan="0" pos="1332"/>
          <note key="24" vol="103" len="6" pan="0" pos="1332"/>
          <note key="60" vol="103" len="12" pan="0" pos="1344"/>
          <note key="26" vol="103" len="12" pan="0" pos="1344"/>
          <note key="12" vol="103" len="192" pan="0" pos="1344"/>
          <note key="2" vol="103" len="192" pan="0" pos="1344"/>
          <note key="61" vol="103" len="12" pan="0" pos="1356"/>
          <note key="62" vol="103" len="12" pan="0" pos="1368"/>
          <note key="29" vol="103" len="12" pan="0" pos="1368"/>
          <note key="24" vol="103" len="6" pan="0" pos="1368"/>
          <note key="48" vol="103" len="12" pan="0" pos="1380"/>
          <note key="63" vol="103" len="12" pan="0" pos="1392"/>
          <note key="26" vol="103" len="12" pan="0" pos="1392"/>
          <note key="64" vol="103" len="12" pan="0" pos="1404"/>
          <note key="65" vol="103" len="12" pan="0" pos="1416"/>
          <note key="29" vol="103" len="12" pan="0" pos="1416"/>
          <note key="55" vol="103" len="12" pan="0" pos="1428"/>
          <note key="66" vol="103" len="12" pan="0" pos="1440"/>
          <note key="26" vol="103" len="12" pan="0" pos="1440"/>
          <note key="67" vol="103" len="12" pan="0" pos="1452"/>
          <note key="68" vol="103" len="12" pan="0" pos="1464"/>
          <note key="29" vol="103" len="12" pan="0" pos="1464"/>
          <note key="24" vol="103" len="6" pan="0" pos="1464"/>
          <note key="48" vol="103" len="12" pan="0" pos="1476"/>
          <note key="69" vol="103" len="12" pan="0" pos="1488"/>
          <note key="26" vol="103" len="12" pan="0" pos="1488"/>
          <note key="70" vol="103" len="12" pan="0" pos="1500"/>
          <note key="29" vol="103" len="12" pan="0" pos="1500"/>
          <note key="71" vol="103" len="12" pan="0" pos="1512"/>
          <note key="26" vol="103" len="12" pan="0" pos="1512"/>
          <note key="48" vol="103" len="12" pan="0" pos="1524"/>
          <note key="29" vol="103" len="12" pan="0" pos="1524"/>
          <note key="24" vol="103" len="6" pan="0" pos="1524"/>
        </pattern>
        <pattern type="1" steps="16" muted="0" name="" pos="1536">
          <note key="60" vol="103" len="12" pan="0" pos="0"/>
          <note key="26" vol="103" len="12" pan="0" pos="0"/>
          <note key="15" vol="103" len="192" pan="0" pos="0"/>
          <note key="0" vol="103" len="192" pan="0" pos="0"/>
          <note key="61" vol="103" len="12" pan="0" pos="12"/>
          <note key="62" vol="103" len="12" pan="0" pos="24"/>
          <note key="29" vol="103" len="12" pan="0" pos="24"/>
          <note key="24" vol="103" len="6" pan="0" pos="24"/>
          <note key="36" vol="103" len="12" pan="0" pos="36"/>
          <note key="63" vol="103" len="12" pan="0" pos="48"/>
          <note key="26" vol="103" len="12" pan="0" pos="48"/>
          <note key="64" vol="103" len="12" pan="0" pos="60"/>
          <note key="65" vol="103" len="12" pan="0" pos="72"/>
          <note key="29" vol="103" len="12" pan="0" pos="72"/>
          <note key="43" vol="103" len="12" pan="0" pos="84"/>
          <note key="66" vol="103" len="12" pan="0" pos="96"/>
          <note key="26" vol="103" len="12" pan="0" pos="96"/>
          <note key="67" vol="103" len="12" pan="0" pos="108"/>
          <note key="68" vol="103" len="12" pan="0" pos="120"/>
          <note key="29" vol="103" len="12" pan="0" pos="120"/>
          <note key="24" vol="103" len="6" pan="0" pos="120"/>
          <note key="36" vol="103" len="12" pan="0" pos="132"/>
          <note key="69" vol="103" len="12" pan="0" pos="144"/>
          <note key="26" vol="103" len="12" pan="0" pos="144"/>
          <note key="70" vol="103" len="12" pan="0" pos="156"/>
          <note key="29" vol="103" len="12" pan="0" pos="156"/>
          <note key="71" vol="103" len="12" pan="0" pos="168"/>
          <note key="26" vol="103" len="12" pan="0" pos="168"/>
          <note key="36" vol="103" len="12" pan="0" pos="180"/>
          <note key="29" vol="103" len="12" pan="0" pos="180"/>
          <note key="24" vol="103" len="6" pan="0" pos="180"/>
          <note key="60" vol="103" len="12" pan="0" pos="192"/>
          <note key="26" vol="103" len="12" pan="0" pos="192"/>
          <note key="15" vol="103" len="192" pan="0" pos="192"/>
          <note key="2" vol="103" len="192" pan="0" pos="192"/>
          <note key="61" vol="103" len="12" pan="0" pos="204"/>
          <note key="62" vol="103" len="12" pan="0" pos="216"/>
          <note key="29" vol="103" len="12" pan="0" pos="216"/>
          <note key="24" vol="103" len="6" pan="0" pos="216"/>
          <note key="48" vol="103" len="12" pan="0" pos="228"/>
          <note key="63" vol="103" len="12" pan="0" pos="240"/>
          <note key="26" vol="103" len="12" pan="0" pos="240"/>
          <note key="64" vol="103" len="12" pan="0" pos="252"/>
          <note key="65" vol="103" len="12" pan="0" pos="264"/>
          <note key="29" vol="103" len="12" pan="0" pos="264"/>
          <note key="55" vol="103" len="12" pan="0" pos="276"/>
          <note key="66" vol="103" len="12" pan="0" pos="288"/>
          <note key="26" vol="103" len="12" pan="0" pos="288"/>
          <note key="67" vol="103" len="12" pan="0" pos="300"/>
          <note key="68" vol="103" len="12" pan="0" pos="312"/>
          <note key="29" vol="103" len="12" pan="0" pos="312"/>
          <note key="24" vol="103" len="6" pan="0" pos="312"/>
          <note key="48" vol="103" len="12" pan="0" pos="324"/>
          <note key="69" vol="103" len="12" pan="0" pos="336"/>
          <note key="26" vol="103" len="12" pan="0" pos="336"/>
          <note key="70" vol="103" len="12" pan="0" pos="348"/>
          <note key="29" vol="103" len="12" pan="0" pos="348"/>
          <note key="71" vol="103" len="12" pan="0" pos="360"/>
          <note key="26" vol="103" len="12" pan="0" pos="360"/>
          <note key="48" vol="103" len="12" pan="0" pos="372"/>
          <note key="29" vol="103" len="12" pan="0" pos="372"/>
          <note key="24" vol="103" len="6" pan="0" pos="372"/>
          <note key="60" vol="103" len="12" pan="0" pos="384"/>
          <note key="26" vol="103" len="12" pan="0" pos="384"/>
          <note key="15" vol="103" len="192" pan="0" pos="384"/>
          <note key="4" vol="103" len="192" pan="0" pos="384"/>
          <note key="61" vol="103" len="12" pan="0" pos="396"/>
          <note key="62" vol="103" len="12" pan="0" pos="408"/>
          <note key="29" vol="103" len="12" pan="0" pos="408"/>
          <note key="24" vol="103" len="6" pan="0" pos="408"/>
          <note key="36" vol="103" len="12" pan="0" pos="420"/>
          <note key="63" vol="103" len="12" pan="0" pos="432"/>
          <note key="26" vol="103" len="12" pan="0" pos="432"/>
          <note key="64" vol="103" len="12" pan="0" pos="444"/>
          <note key="65" vol="103" len="12" pan="0" pos="456"/>
          <note key="29" vol="103" len="12" pan="0" pos="456"/>
          <note key="43" vol="103" len="12" pan="0" pos="468"/>
          <note key="66" vol="103" len="12" pan="0" pos="480"/>
          <note key="26" vol="103" len="12" pan="0" pos="480"/>
          <note key="67" vol="103" len="12" pan="0" pos="492"/>
          <note key="68" vol="103" len="12" pan="0" pos="504"/>
          <note key="29" vol="103" len="12" pan="0" pos="504"/>
          <note key="24" vol="103" len="6" pan="0" pos="504"/>
          <note key="36" vol="103" len="12" pan="0" pos="516"/>
          <note key="69" vol="103" len="12" pan="0" pos="528"/>
          <note key="26" vol="103" len="12" pan="0" pos="528"/>
          <note key="70" vol="103" len="12" pan="0" pos="540"/>
          <note key="29" vol="103" len="12" pan="0" pos="540"/>
          <note key="71" vol="103" len="12" pan="0" pos="552"/>
          <note key="26" vol="103" len="12" pan="0" pos="552"/>
          <note key="36" vol="103" len="12" pan="0" pos="564"/>
          <note key="29" vol="103" len="12" pan="0" pos="564"/>
          <note key="24" vol="103" len="6" pan="0" pos="564"/>
          <note key="60" vol="103" len="12" pan="0" pos="576"/>
          <note key="26" vol="103" len="12" pan="0" pos="576"/>
          <note key="15" vol="103" len="192" pan="0" pos="576"/>
          <note key="5" vol="103" len="192" pan="0" pos="576"/>
          <note key="61" vol="103" len="12" pan="0" pos="588"/>
          <note key="62" vol="103" len="12" pan="0" pos="600"/>
          <note key="29" vol="103" len="12" pan="0" pos="600"/>
          <note key="24" vol="103" len="6" pan="0" pos="600"/>
          <note key="48" vol="103" len="12" pan="0" pos="612"/>
          <note key="63" vol="103" len="12" pan="0" pos="624"/>
          <note key="26" vol="103" len="12" pan="0" pos="624"/>
          <note key="64" vol="103" len="12" pan="0" pos="636"/>
          <note key="65" vol="103" len="12" pan="0" pos="648"/>
          <note key="29" vol="103" len="12" pan="0" pos="648"/>
          <note key="57" vol="103" len="12" pan="0" pos="660"/>
          <note key="66" vol="103" len="12" pan="0" pos="672"/>
          <note key="26" vol="103" len="12" pan="0" pos="672"/>
          <note key="67" vol="103" len="12" pan="0" pos="684"/>
          <note key="68" vol="103" len="12" pan="0" pos="696"/>
          <note key="29" vol="103" len="12" pan="0" pos="696"/>
          <note key="24" vol="103" len="6" pan="0" pos="696"/>
          <note key="48" vol="103" len="12" pan="0" pos="708"/>
          <note key="69" vol="103" len="12" pan="0" pos="720"/>
          <note key="26" vol="103" len="12" pan="0" pos="720"/>
          <note key="70" vol="103" len="12" pan="0" pos="732"/>
          <note key="29" vol="103" len="12" pan="0" pos="732"/>
          <note key="71" vol="103" len="12" pan="0" pos="744"/>
          <note key="26" vol="103" len="12" pan="0" pos="744"/>
          <note key="48" vol="103" len="12" pan="0" pos="756"/>
          <note key="29" vol="103" len="12" pan="0" pos="756"/>
          <note key="24" vol="103" len="6" pan="0" pos="756"/>
          <note key="60" vol="103" len="12" pan="0" pos="768"/>
          <note key="26" vol="103" len="12" pan="0" pos="768"/>
          <note key="15" vol="103" len="192" pan="0" pos="768"/>
          <note key="7" vol="103" len="192" pan="0" pos="768"/>
          <note key="61" vol="103" len="12" pan="0" pos="780"/>
          <note key="62" vol="103" len="12" pan="0" pos="792"/>
          <note key="29" vol="103" len="12" pan="0" pos="792"/>
          <note key="24" vol="103" len="6" pan="0" pos="792"/>
          <note key="36" vol="103" len="12" pan="0" pos="804"/>
          <note key="63" vol="103" len="12" pan="0" pos="816"/>
          <note key="26" vol="103" len="12" pan="0" pos="816"/>
          <note key="64" vol="103" len="12" pan="0" pos="828"/>
          <note key="65" vol="103" len="12" pan="0" pos="840"/>
          <note key="29" vol="103" len="12" pan="0" pos="840"/>
          <note key="43" vol="103" len="12" pan="0" pos="852"/>
          <note key="66" vol="103" len="12" pan="0" pos="864"/>
          <note key="26" vol="103" len="12" pan="0" pos="864"/>
          <note key="67" vol="103" len="12" pan="0" pos="876"/>
          <note key="68" vol="103" len="12" pan="0" pos="888"/>
          <note key="29" vol="103" len="12" pan="0" pos="888"/>
          <note key="24" vol="103" len="6" pan="0" pos="888"/>
          <note key="36" vol="103" len="12" pan="0" pos="900"/>
          <note key="69" vol="103" len="12" pan="0" pos="912"/>
          <note key="26" vol="103" len="12" pan="0" pos="912"/>
          <note key="70" vol="103" len="12" pan="0" pos="924"/>
          <note key="29" vol="103" len="12" pan="0" pos="924"/>
          <note key="71" vol="103" len="12" pan="0" pos="936"/>
          <note key="26" vol="103" len="12" pan="0" pos="936"/>
          <note key="36" vol="103" len="12" pan="0" pos="948"/>
          <note key="29" vol="103" len="12" pan="0" pos="948"/>
          <note key="24" vol="103" len="6" pan="0" pos="948"/>
          <note key="60" vol="103" len="12" pan="0" pos="960"/>
          <note key="26" vol="103" len="12" pan="0" pos="960"/>
          <note key="15" vol="103" len="192" pan="0" pos="960"/>
          <note key="9" vol="103" len="192" pan="0" pos="960"/>
          <note key="61" vol="103" len="12" pan="0" pos="972"/>
          <note key="62" vol="103" len="12" pan="0" pos="984"/>
          <note key="29" vol="103" len="12" pan="0" pos="984"/>
          <note key="24" vol="103" len="6" pan="0" pos="984"/>
          <note key="48" vol="103" len="12" pan="0" pos="996"/>
          <note key="63" vol="103" len="12" pan="0" pos="1008"/>
          <note key="26" vol="103" len="12" pan="0" pos="1008"/>
          <note key="64" vol="103" len="12" pan="0" pos="1020"/>
          <note key="65" vol="103" len="12" pan="0" pos="1032"/>
          <note key="29" vol="103" len="12" pan="0" pos="1032"/>
          <note key="55" vol="103" len="12" pan="0" pos="1044"/>
          <note key="66" vol="103" len="12" pan="0" pos="1056"/>
          <note key="26" vol="103" len="12" pan="0" pos="1056"/>
          <note key="67" vol="103" len="12" pan="0" pos="1068"/>
          <note key="68" vol="103" len="12" pan="0" pos="1080"/>
          <note key="29" vol="103" len="12" pan="0" pos="1080"/>
          <note key="24" vol="103" len="6" pan="0" pos="1080"/>
          <note key="48" vol="103" len="12" pan="0" pos="1092"/>
          <note key="69" vol="103" len="12" pan="0" pos="1104"/>
          <note key="26" vol="103" len="12" pan="0" pos="1104"/>
          <note key="70" vol="103" len="12" pan="0" pos="1116"/>
          <note key="29" vol="103" len="12" pan="0" pos="1116"/>
          <note key="71" vol="103" len="12" pan="0" pos="1128"/>
          <note key="26" vol="103" len="12" pan="0" pos="1128"/>
          <note key="48" vol="103" len="12" pan="0" pos="1140"/>
          <note key="29" vol="103" len="12" pan="0" pos="1140"/>
          <note key="24" vol="103" len="6" pan="0" pos="1140"/>
          <note key="60" vol="103" len="12" pan="0" pos="1152"/>
          <note key="26" vol="103" len="12" pan="0" pos="1152"/>
          <note key="15" vol="103" len="192" pan="0" pos="1152"/>
          <note key="11" vol="103" len="192" pan="0" pos="1152"/>
          <note key="61" vol="103" len="12" pan="0" pos="1164"/>
          <note key="62" vol="103" len="12" pan="0" pos="1176"/>
          <note key="29" vol="103" len="12" pan="0" pos="1176"/>
          <note key="24" vol="103" len="6" pan="0" pos="1176"/>
          <note key="36" vol="103" len="12" pan="0" pos="1188"/>
          <note key="63" vol="103" len="12" pan="0" pos="1200"/>
          <note key="26" vol="103" len="12" pan="0" pos="1200"/>
          <note key="64" vol="103" len="12" pan="0" pos="1212"/>
          <note key="65" vol="103" len="12" pan="0" pos="1224"/>
          <note key="29" vol="103" len="12" pan="0" pos="1224"/>
          <note key="44" vol="103" len="12" pan="0" pos="1236"/>
          <note key="66" vol="103" len="12" pan="0" pos="1248"/>
          <note key="26" vol="103" len="12" pan="0" pos="1248"/>
          <note key="67" vol="103" len="12" pan="0" pos="1260"/>
          <note key="68" vol="103" len="12" pan="0" pos="1272"/>
          <note key="29" vol="103" len="12" pan="0" pos="1272"/>
          <note key="24" vol="103" len="6" pan="0" pos="1272"/>
          <note key="36" vol="103" len="12" pan="0" pos="1284"/>
          <note key="69" vol="103" len="12" pan="0" pos="1296"/>
          <note key="26" vol="103" len="12" pan="0" pos="1296"/>
          <note key="70" vol="103" len="12" pan="0" pos="1308"/>
          <note key="29" vol="103" len="12" pan="0" pos="1308"/>
          <note key="71" vol="103" len="12" pan="0" pos="1320"/>
          <note key="26" vol="103" len="12" pan="0" pos="1320"/>
          <note key="36" vol="103" len="12" pan="0" pos="1332"/>
          <note key="29" vol="103" len="12" pan="0" pos="1332"/>
          <note key="24" vol="103" len="6" pan="0" pos="1332"/>
          <note key="60" vol="103" len="12" pan="0" pos="1344"/>
          <note key="26" vol="103" len="12" pan="0" pos="1344"/>
          <note key="15" vol="103" len="192" pan="0" pos="1344"/>
          <note key="2" vol="103" len="192" pan="0" pos="1344"/>
          <note key="61" vol="103" len="12" pan="0" pos="1356"/>
          <note key="62" vol="103" len="12" pan="0" pos="1368"/>
          <note key="29" vol="103" len="12" pan="0" pos="1368"/>
          <note key="24" vol="103" len="6" pan="0" pos="1368"/>
          <note key="48" vol="103" len="12" pan="0" pos="1380"/>
          <note key="63" vol="103" len="12" pan="0" pos="1392"/>
          <note key="26" vol="103" len="12" pan="0" pos="1392"/>
          <note key="64" vol="103" len="12" pan="0" pos="1404"/>
          <note key="65" vol="103" len="12" pan="0" pos="1416"/>
          <note key="29" vol="103" len="12" pan="0" pos="1416"/>
          <note key="55" vol="103" len="12" pan="0" pos="1428"/>
          <note key="66" vol="103" len="12" pan="0" pos="1440"/>
          <note key="26" vol="103" len="12" pan="0" pos="1440"/>
          <note key="67" vol="103" len="12" pan="0" pos="1452"/>
          <note key="68" vol="103" len="12" pan="0" pos="1464"/>
          <note key="29" vol="103" len="12" pan="0" pos="1464"/>
          <note key="24" vol="103" len="6" pan="0" pos="1464"/>
          <note key="48" vol="103" len="12" pan="0" pos="1476"/>
          <note key="69" vol="103" len="12" pan="0" pos="1488"/>
          <note key="26" vol="103" len="12" pan="0" pos="1488"/>
          <note key="70" vol="103" len="12" pan="0" pos="1500"/>
          <note key="29" vol="103" len="12" pan="0" pos="1500"/>
          <note key="71" vol="103" len="12" pan="0" pos="1512"/>
          <note key="26" vol="103" len="12" pan="0" pos="1512"/>
          <note key="48" vol="103" len="12" pan="0" pos="1524"/>
          <note key="29" vol="103" len="12" pan="0" pos="1524"/>
          <note key="24" vol="103" len="6" pan="0" pos="1524"/>
        </pattern>
        <pattern type="1" steps="16" muted="0" name="" pos="3072">
          <note key="60" vol="103" len="12" pan="0" pos="0"/>
          <note key="26" vol="103" len="12" pan="0" pos="0"/>
          <note key="14" vol="103" len="192" pan="0" pos="0"/>
          <note key="0" vol="103" len="192" pan="0" pos="0"/>
          <note key="61" vol="103" len="12" pan="0" pos="12"/>
          <note key="62" vol="103" len="12" pan="0" pos="24"/>
          <note key="29" vol="103" len="12" pan="0" pos="24"/>
          <note key="24" vol="103" len="6" pan="0" pos="24"/>
          <note key="36" vol="103" len="12" pan="0" pos="36"/>
          <note key="63" vol="103" len="12" pan="0" pos="48"/>
          <note key="26" vol="103" len="12" pan="0" pos="48"/>
          <note key="64" vol="103" len="12" pan="0" pos="60"/>
          <note key="65" vol="103" len="12" pan="0" pos="72"/>
          <note key="29" vol="103" len="12" pan="0" pos="72"/>
          <note key="43" vol="103" len="12" pan="0" pos="84"/>
          <note key="66" vol="103" len="12" pan="0" pos="96"/>
          <note key="26" vol="103" len="12" pan="0" pos="96"/>
          <note key="67" vol="103" len="12" pan="0" pos="108"/>
          <note key="68" vol="103" len="12" pan="0" pos="120"/>
          <note key="29" vol="103" len="12" pan="0" pos="120"/>
          <note key="24" vol="103" len="6" pan="0" pos="120"/>
          <note key="36" vol="103" len="12" pan="0" pos="132"/>
          <note key="69" vol="103" len="12" pan="0" pos="144"/>
          <note key="26" vol="103" len="12" pan="0" pos="144"/>
          <note key="70" vol="103" len="12" pan="0" pos="156"/>
          <note key="29" vol="103" len="12" pan="0" pos="156"/>
          <note key="71" vol="103" len="12" pan="0" pos="168"/>
          <note key="26" vol="103" len="12" pan="0" pos="168"/>
          <note key="36" vol="103" len="12" pan="0" pos="180"/>
          <note key="29" vol="103" len="12" pan="0" pos="180"/>
          <note key="24" vol="103" len="6" pan="0" pos="180"/>
          <note key="60" vol="103" len="12" pan="0" pos="192"/>
          <note key="26" vol="103" len="12" pan="0" pos="192"/>
          <note key="14" vol="103" len="192" pan="0" pos="192"/>
          <note key="2" vol="103" len="192" pan="0" pos="192"/>
          <note key="61" vol="103" len="12" pan="0" pos="204"/>
          <note key="62" vol="103" len="12" pan="0" pos="216"/>
          <note key="29" vol="103" len="12" pan="0" pos="216"/>
          <note key="24" vol="103" len="6" pan="0" pos="216"/>
          <note key="48" vol="103" len="12" pan="0" pos="228"/>
          <note key="63" vol="103" len="12" pan="0" pos="240"/>
          <note key="26" vol="103" len="12" pan="0" pos="240"/>
          <note key="64" vol="103" len="12" pan="0" pos="252"/>
          <note key="65" vol="103" len="12" pan="0" pos="264"/>
          <note key="29" vol="103" len="12" pan="0" pos="264"/>
          <note key="55" vol="103" len="12" pan="0" pos="276"/>
          <note key="66" vol="103" len="12" pan="0" pos="288"/>
          <note key="26" vol="103" len="12" pan="0" pos="288"/>
          <note key="67" vol="103" len="12" pan="0" pos="300"/>
          <note key="68" vol="103" len="12" pan="0" pos="312"/>
          <note key="29" vol="103" len="12" pan="0" pos="312"/>
          <note key="24" vol="103" len="6" pan="0" pos="312"/>
          <note key="48" vol="103" len="12" pan="0" pos="324"/>
          <note key="69" vol="103" len="12" pan="0" pos="336"/>
          <note key="26" vol="103" len="12" pan="0" pos="336"/>
          <note key="70" vol="103" len="12" pan="0" pos="348"/>
          <note key="29" vol="103" len="12" pan="0" pos="348"/>
          <note key="71" vol="103" len="12" pan="0" pos="360"/>
          <note key="26" vol="103" len="12" pan="0" pos="360"/>
          <note key="48" vol="103" len="12" pan="0" pos="372"/>
          <note key="29" vol="103" len="12" pan="0" pos="372"/>
          <note key="24" vol="103" len="6" pan="0" pos="372"/>
          <note key="60" vol="103" len="12" pan="0" pos="384"/>
          <note key="26" vol="103" len="12" pan="0" pos="384"/>
          <note key="14" vol="103" len="192" pan="0" pos="384"/>
          <note key="4" vol="103" len="192" pan="0" pos="384"/>
          <note key="61" vol="103" len="12" pan="0" pos="396"/>
          <note key="62" vol="103" len="12" pan="0" pos="408"/>
          <note key="29" vol="103" len="12" pan="0" pos="408"/>
          <note key="24" vol="103" len="6" pan="0" pos="408"/>
          <note key="36" vol="103" len="12" pan="0" pos="420"/>
          <note key="63" vol="103" len="12" pan="0" pos="432"/>
          <note key="26" vol="103" len="12" pan="0" pos="432"/>
          <note key="64" vol="103" len="12" pan="0" pos="444"/>
          <note key="65" vol="103" len="12" pan="0" pos="456"/>
          <note key="29" vol="103" len="12" pan="0" pos="456"/>
          <note key="43" vol="103" len="12" pan="0" pos="468"/>
          <note key="66" vol="103" len="12" pan="0" pos="480"/>
          <note key="26" vol="103" len="12" pan="0" pos="480"/>
          <note key="67" vol="103" len="12" pan="0" pos="492"/>
          <note key="68" vol="103" len="12" pan="0" pos="504"/>
          <note key="29" vol="103" len="12" pan="0" pos="504"/>
          <note key="24" vol="103" len="6" pan="0" pos="504"/>
          <note key="36" vol="103" len="12" pan="0" pos="516"/>
          <note key="69" vol="103" len="12" pan="0" pos="528"/>
          <note key="26" vol="103" len="12" pan="0" pos="528"/>
          <note key="70" vol="103" len="12" pan="0" pos="540"/>
          <note key="29" vol="103" len="12" pan="0" pos="540"/>
          <note key="71" vol="103" len="12" pan="0" pos="552"/>
          <note key="26" vol="103" len="12" pan="0" pos="552"/>
          <note key="36" vol="103" len="12" pan="0" pos="564"/>
          <note key="29" vol="103" len="12" pan="0" pos="564"/>
          <note key="24" vol="103" len="6" pan="0" pos="564"/>
          <note key="60" vol="103" len="12" pan="0" pos="576"/>
          <note key="26" vol="103" len="12" pan="0" pos="576"/>
          <note key="14" vol="103" len="192" pan="0" pos="576"/>
          <note key="5" vol="103" len="192" pan="0" pos="576"/>
          <note key="61" vol="103" len="12" pan="0" pos="588"/>
          <note key="62" vol="103" len="12" pan="0" pos="600"/>
          <note key="29" vol="103" len="12" pan="0" pos="600"/>
          <note key="24" vol="103" len="6" pan="0" pos="600"/>
          <note key="48" vol="103" len="12" pan="0" pos="612"/>
          <note key="63" vol="103" len="12" pan="0" pos="624"/>
          <note key="26" vol="103" len="12" pan="0" pos="624"/>
          <note key="64" vol="103" len="12" pan="0" pos="636"/>
          <note key="65" vol="103" len="12" pan="0" pos="648"/>
          <note key="29" vol="103" len="12" pan="0" pos="648"/>
          <note key="57" vol="103" len="12" pan="0" pos="660"/>
          <note key="66" vol="103" len="12" pan="0" pos="672"/>
          <note key="26" vol="103" len="12" pan="0" pos="672"/>
          <note key="67" vol="103" len="12" pan="0" pos="684"/>
          <note key="68" vol="103" len="12" pan="0" pos="696"/>
          <note key="29" vol="103" len="12" pan="0" pos="696"/>
          <note key="24" vol="103" len="6" pan="0" pos="696"/>
          <note key="48" vol="103" len="12" pan="0" pos="708"/>
          <note key="69" vol="103" len="12" pan="0" pos="720"/>
          <note key="26" vol="103" len="12" pan="0" pos="720"/>
          <note key="70" vol="103" len="12" pan="0" pos="732"/>
          <note key="29" vol="103" len="12" pan="0" pos="732"/>
          <note key="71" vol="103" len="12" pan="0" pos="744"/>
          <note key="26" vol="103" len="12" pan="0" pos="744"/>
          <note key="48" vol="103" len="12" pan="0" pos="756"/>
          <note key="29" vol="103" len="12" pan="0" pos="756"/>
          <note key="24" vol="103" len="6" pan="0" pos="756"/>
          <note key="60" vol="103" len="12" pan="0" pos="768"/>
          <note key="26" vol="103" len="12" pan="0" pos="768"/>
          <note key="14" vol="103" len="192" pan="0" pos="768"/>
          <note key="7" vol="103" len="192" pan="0" pos="768"/>
          <note key="61" vol="103" len="12" pan="0" pos="780"/>
          <note key="62" vol="103" len="12" pan="0" pos="792"/>
          <note key="29" vol="103" len="12" pan="0" pos="792"/>
          <note key="24" vol="103" len="6" pan="0" pos="792"/>
          <note key="36" vol="103" len="12" pan="0" pos="804"/>
          <note key="63" vol="103" len="12" pan="0" pos="816"/>
          <note key="26" vol="103" len="12" pan="0" pos="816"/>
          <note key="64" vol="103" len="12" pan="0" pos="828"/>
          <note key="65" vol="103" len="12" pan="0" pos="840"/>
          <note key="29" vol="103" len="12" pan="0" pos="840"/>
          <note key="43" vol="103" len="12" pan="0" pos="852"/>
          <note key="66" vol="103" len="12" pan="0" pos="864"/>
          <note key="26" vol="103" len="12" pan="0" pos="864"/>
          <note key="67" vol="103" len="12" pan="0" pos="876"/>
          <note key="68" vol="103" len="12" pan="0" pos="888"/>
          <note key="29" vol="103" len="12" pan="0" pos="888"/>
          <note key="24" vol="103" len="6" pan="0" pos="888"/>
          <note key="36" vol="103" len="12" pan="0" pos="900"/>
          <note key="69" vol="103" len="12" pan="0" pos="912"/>
          <note key="26" vol="103" len="12" pan="0" pos="912"/>
          <note key="70" vol="103" len="12" pan="0" pos="924"/>
          <note key="29" vol="103" len="12" pan="0" pos="924"/>
          <note key="71" vol="103" len="12" pan="0" pos="936"/>
          <note key="26" vol="103" len="12" pan="0" pos="936"/>
          <note key="36" vol="103" len="12" pan="0" pos="948"/>
          <note key="29" vol="103" len="12" pan="0" pos="948"/>
          <note key="24" vol="103" len="6" pan="0" pos="948"/>
          <note key="60" vol="103" len="12" pan="0" pos="960"/>
          <note key="26" vol="103" len="12" pan="0" pos="960"/>
          <note key="14" vol="103" len="192" pan="0" pos="960"/>
          <note key="9" vol="103" len="192" pan="0" pos="960"/>
          <note key="61" vol="103" len="12" pan="0" pos="972"/>
          <note key="62" vol="103" len="12" pan="0" pos="984"/>
          <note key="29" vol="103" len="12" pan="0" pos="984"/>
          <note key="24" vol="103" len="6" pan="0" pos="984"/>
          <note key="48" vol="103" len="12" pan="0" pos="996"/>
          <note key="63" vol="103" len="12" pan="0" pos="1008"/>
          <note key="26" vol="103" len="12" pan="0" pos="1008"/>
          <note key="64" vol="103" len="12" pan="0" pos="1020"/>
          <note key="65" vol="103" len="12" pan="0" pos="1032"/>
          <note key="29" vol="103" len="12" pan="0" pos="1032"/>
          <note key="55" vol="103" len="12" pan="0" pos="1044"/>
          <note key="66" vol="103" len="12" pan="0" pos="1056"/>
          <note key="26" vol="103" len="12" pan="0" pos="1056"/>
          <note key="67" vol="103" len="12" pan="0" pos="1068"/>
          <note key="68" vol="103" len="12" pan="0" pos="1080"/>
          <note key="29" vol="103" len="12" pan="0" pos="1080"/>
          <note key="24" vol="103" len="6" pan="0" pos="1080"/>
          <note key="48" vol="103" len="12" pan="0" pos="1092"/>
          <note key="69" vol="103" len="12" pan="0" pos="1104"/>
          <note key="26" vol="103" len="12" pan="0" pos="1104"/>
          <note key="70" vol="103" len="12" pan="0" pos="1116"/>
          <note key="29" vol="103" len="12" pan="0" pos="1116"/>
          <note key="71" vol="103" len="12" pan="0" pos="1128"/>
          <note key="26" vol="103" len="12" pan="0" pos="1128"/>
          <note key="48" vol="103" len="12" pan="0" pos="1140"/>
          <note key="29" vol="103" len="12" pan="0" pos="1140"/>
          <note key="24" vol="103" len="6" pan="0" pos="1140"/>
          <note key="60" vol="103" len="12" pan="0" pos="1152"/>
          <note key="26" vol="103" len="12" pan="0" pos="1152"/>
          <note key="14" vol="103" len="192" pan="0" pos="1152"/>
          <note key="11" vol="103" len="192" pan="0" pos="1152"/>
          <note key="61" vol="103" len="12" pan="0" pos="1164"/>
          <note key="62" vol="103" len="12" pan="0" pos="1176"/>
          <note key="29" vol="103" len="12" pan="0" pos="1176"/>
          <note key="24" vol="103" len="6" pan="0" pos="1176"/>
          <note key="36" vol="103" len="12" pan="0" pos="1188"/>
          <note key="63" vol="103" len="12" pan="0" pos="1200"/>
          <note key="26" vol="103" len="12" pan="0" pos="1200"/>
          <note key="64" vol="103" len="12" pan="0" pos="1212"/>
          <note key="65" vol="103" len="12" pan="0" pos="1224"/>
          <note key="29" vol="103" len="12" pan="0" pos="1224"/>
          <note key="44" vol="103" len="12" pan="0" pos="1236"/>
          <note key="66" vol="103" len="12" pan="0" pos="1248"/>
          <note key="26" vol="103" len="12" pan="0" pos="1248"/>
          <note key="67" vol="103" len="12" pan="0" pos="1260"/>
          <note key="68" vol="103" len="12" pan="0" pos="1272"/>
          <note key="29" vol="103" len="12" pan="0" pos="1272"/>
          <note key="24" vol="103" len="6" pan="0" pos="1272"/>
          <note key="36" vol="103" len="12" pan="0" pos="1284"/>
          <note key="69" vol="103" len="12" pan="0" pos="1296"/>
          <note key="26" vol="103" len="12" pan="0" pos="1296"/>
          <note key="70" vol="103" len="12" pan="0" pos="1308"/>
          <note key="29" vol="103" len="12" pan="0" pos="1308"/>
          <note key="71" vol="103" len="12" pan="0" pos="1320"/>
          <note key="26" vol="103" len="12" pan="0" pos="1320"/>
          <note key="36" vol="103" len="12" pan="0" pos="1332"/>
          <note key="29" vol="103" len="12" pan="0" pos="1332"/>
          <note key="24" vol="103" len="6" pan="0" pos="1332"/>
          <note key="60" vol="103" len="12" pan="0" pos="1344"/>
          <note key="26" vol="103" len="12" pan="0" pos="1344"/>
          <note key="14" vol="103" len="192" pan="0" pos="1344"/>
          <note key="2" vol="103" len="192" pan="0" pos="1344"/>
          <note key="61" vol="103" len="12" pan="0" pos="1356"/>
          <note key="62" vol="103" len="12" pan="0" pos="1368"/>
          <note key="29" vol="103" len="12" pan="0" pos="1368"/>
          <note key="24" vol="103" len="6" pan="0" pos="1368"/>
          <note key="48" vol="103" len="12" pan="0" pos="1380"/>
          <note key="63" vol="103" len="12" pan="0" pos="1392"/>
          <note key="26" vol="103" len="12" pan="0" pos="1392"/>
          <note key="64" vol="103" len="12" pan="0" pos="1404"/>
          <note key="65" vol="103" len="12" pan="0" pos="1416"/>
          <note key="29" vol="103" len="12" pan="0" pos="1416"/>
          <note key="55" vol="103" len="12" pan="0" pos="1428"/>
          <note key="66" vol="103" len="12" pan="0" pos="1440"/>
          <note key="26" vol="103" len="12" pan="0" pos="1440"/>
          <note key="67" vol="103" len="12" pan="0" pos="1452"/>
          <note key="68" vol="103" len="12" pan="0" pos="1464"/>
          <note key="29" vol="103" len="12" pan="0" pos="1464"/>
          <note key="24" vol="103" len="6" pan="0" pos="1464"/>
          <note key="48" vol="103" len="12" pan="0" pos="1476"/>
          <note key="69" vol="103" len="12" pan="0" pos="1488"/>
          <note key="26" vol="103" len="12" pan="0" pos="1488"/>
          <note key="70" vol="103" len="12" pan="0" pos="1500"/>
          <note key="29" vol="103" len="12" pan="0" pos="1500"/>
          <note key="71" vol="103" len="12" pan="0" pos="1512"/>
          <note key="26" vol="103" len="12" pan="0" pos="1512"/>
          <note key="48" vol="103" len="12" pan="0" pos="1524"/>
          <note key="29" vol="103" len="12" pan="0" pos="1524"/>
          <note key="24" vol="103" len="6" pan="0" pos="1524"/>
        </pattern>
        <pattern type="1" steps="16" muted="0" name="" pos="4608">
          <note key="60" vol="103" len="12" pan="0" pos="0"/>
          <note key="26" vol="103" len="12" pan="0" pos="0"/>
          <note key="13" vol="103" len="192" pan="0" pos="0"/>
          <note key="0" vol="103" len="192" pan="0" pos="0"/>
          <note key="61" vol="103" len="12" pan="0" pos="12"/>
          <note key="62" vol="103" len="12" pan="0" pos="24"/>
          <note key="29" vol="103" len="12" pan="0" pos="24"/>
          <note key="24" vol="103" len="6" pan="0" pos="24"/>
          <note key="36" vol="103" len="12" pan="0" pos="36"/>
          <note key="63" vol="103" len="12" pan="0" pos="48"/>
          <note key="26" vol="103" len="12" pan="0" pos="48"/>
          <note key="64" vol="103" len="12" pan="0" pos="60"/>
          <note key="65" vol="103" len="12" pan="0" pos="72"/>
          <note key="29" vol="103" len="12" pan="0" pos="72"/>
          <note key="43" vol="103" len="12" pan="0" pos="84"/>
          <note key="66" vol="103" len="12" pan="0" pos="96"/>
          <note key="26" vol="103" len="12" pan="0" pos="96"/>
          <note key="67" vol="103" len="12" pan="0" pos="108"/>
          <note key="68" vol="103" len="12" pan="0" pos="120"/>
          <note key="29" vol="103" len="12" pan="0" pos="120"/>
          <note key="24" vol="103" len="6" pan="0" pos="120"/>
          <note key="36" vol="103" len="12" pan="0" pos="132"/>
          <note key="69" vol="103" len="12" pan="0" pos="144"/>
          <note key="26" vol="103" len="12" pan="0" pos="144"/>
          <note key="70" vol="103" len="12" pan="0" pos="156"/>
          <note key="29" vol="103" len="12" pan="0" pos="156"/>
          <note key="71" vol="103" len="12" pan="0" pos="168"/>
          <note key="26" vol="103" len="12" pan="0" pos="168"/>
          <note key="36" vol="103" len="12" pan="0" pos="180"/>
          <note key="29" vol="103" len="12" pan="0" pos="180"/>
          <note key="24" vol="103" len="6" pan="0" pos="180"/>
          <note key="60" vol="103" len="12" pan="0" pos="192"/>
          <note key="26" vol="103" len="12" pan="0" pos="192"/>
          <note key="13" vol="103" len="192" pan="0" pos="192"/>
          <note key="2" vol="103" len="192" pan="0" pos="192"/>
          <note key="61" vol="103" len="12" pan="0" pos="204"/>
          <note key="62" vol="103" len="12" pan="0" pos="216"/>
          <note key="29" vol="103" len="12" pan="0" pos="216"/>
          <note key="24" vol="103" len="6" pan="0" pos="216"/>
          <note key="48" vol="103" len="12" pan="0" pos="228"/>
          <note key="63" vol="103" len="12" pan="0" pos="240"/>
          <note key="26" vol="103" len="12" pan="0" pos="240"/>
          <note key="64" vol="103" len="12" pan="0" pos="252"/>
          <note key="65" vol="103" len="12" pan="0" pos="264"/>
          <note key="29" vol="103" len="12" pan="0" pos="264"/>
          <note key="55" vol="103" len="12" pan="0" pos="276"/>
          <note key="66" vol="103" len="12" pan="0" pos="288"/>
          <note key="26" vol="103" len="12" pan="0" pos="288"/>
          <note key="67" vol="103" len="12" pan="0" pos="300"/>
          <note key="68" vol="103" len="12" pan="0" pos="312"/>
          <note key="29" vol="103" len="12" pan="0" pos="312"/>
          <note key="24" vol="103" len="6" pan="0" pos="312"/>
          <note key="48" vol="103" len="12" pan="0" pos="324"/>
          <note key="69" vol="103" len="12" pan="0" pos="336"/>
          <note key="26" vol="103" len="12" pan="0" pos="336"/>
          <note key="70" vol="103" len="12" pan="0" pos="348"/>
          <note key="29" vol="103" len="12" pan="0" pos="348"/>
          <note key="71" vol="103" len="12" pan="0" pos="360"/>
          <note key="26" vol="103" len="12" pan="0" pos="360"/>
          <note key="48" vol="103" len="12" pan="0" pos="372"/>
          <note key="29" vol="103" len="12" pan="0" pos="372"/>
          <note key="24" vol="103" len="6" pan="0" pos="372"/>
          <note key="60" vol="103" len="12" pan="0" pos="384"/>
          <note key="26" vol="103" len="12" pan="0" pos="384"/>
          <note key="13" vol="103" len="192" pan="0" pos="384"/>
          <note key="4" vol="103" len="192" pan="0" pos="384"/>
          <note key="61" vol="103" len="12" pan="0" pos="396"/>
          <note key="62" vol="103" len="12" pan="0" pos="408"/>
          <note key="29" vol="103" len="12" pan="0" pos="408"/>
          <note key="24" vol="103" len="6" pan="0" pos="408"/>
          <note key="36" vol="103" len="12" pan="0" pos="420"/>
          <note key="63" vol="103" len="12" pan="0" pos="432"/>
          <note key="26" vol="103" len="12" pan="0" pos="432"/>
          <note key="64" vol="103" len="12" pan="0" pos="444"/>
          <note key="65" vol="103" len="12" pan="0" pos="456"/>
          <note key="29" vol="103" len="12" pan="0" pos="456"/>
          <note key="43" vol="103" len="12" pan="0" pos="468"/>
          <note key="66" vol="103" len="12" pan="0" pos="480"/>
          <note key="26" vol="103" len="12" pan="0" pos="480"/>
          <note key="67" vol="103" len="12" pan="0" pos="492"/>
          <note key="68" vol="103" len="12" pan="0" pos="504"/>
          <note key="29" vol="103" len="12" pan="0" pos="504"/>
          <note key="24" vol="103" len="6" pan="0" pos="504"/>
          <note key="36" vol="103" len="12" pan="0" pos="516"/>
          <note key="69" vol="103" len="12" pan="0" pos="528"/>
          <note key="26" vol="103" len="12" pan="0" pos="528"/>
          <note key="70" vol="103" len="12" pan="0" pos="540"/>
          <note key="29" vol="103" len="12" pan="0" pos="540"/>
          <note key="71" vol="103" len="12" pan="0" pos="552"/>
          <note key="26" vol="103" len="12" pan="0" pos="552"/>
          <note key="36" vol="103" len="12" pan="0" pos="564"/>
          <note key="29" vol="103" len="12" pan="0" pos="564"/>
          <note key="24" vol="103" len="6" pan="0" pos="564"/>
          <note key="60" vol="103" len="12" pan="0" pos="576"/>
          <note key="26" vol="103" len="12" pan="0" pos="576"/>
          <note key="13" vol="103" len="192" pan="0" pos="576"/>
          <note key="5" vol="103" len="192" pan="0" pos="576"/>
          <note key="61" vol="103" len="12" pan="0" pos="588"/>
          <note key="62" vol="103" len="12" pan="0" pos="600"/>
          <note key="29" vol="103" len="12" pan="0" pos="600"/>
          <note key="24" vol="103" len="6" pan="0" pos="600"/>
          <note key="48" vol="103" len="12" pan="0" pos="612"/>
          <note key="63" vol="103" len="12" pan="0" pos="624"/>
          <note key="26" vol="103" len="12" pan="0" pos="624"/>
          <note key="64" vol="103" len="12" pan="0" pos="636"/>
          <note key="65" vol="103" len="12" pan="0" pos="648"/>
          <note key="29" vol="103" len="12" pan="0" pos="648"/>
          <note key="57" vol="103" len="12" pan="0" pos="660"/>
          <note key="66" vol="103" len="12" pan="0" pos="672"/>
          <note key="26" vol="103" len="12" pan="0" pos="672"/>
          <note key="67" vol="103" len="12" pan="0" pos="684"/>
          <note key="68" vol="103" len="12" pan="0" pos="696"/>
          <note key="29" vol="103" len="12" pan="0" pos="696"/>
          <note key="24" vol="103" len="6" pan="0" pos="696"/>
          <note key="48" vol="103" len="12" pan="0" pos="708"/>
          <note key="69" vol="103" len="12" pan="0" pos="720"/>
          <note key="26" vol="103" len="12" pan="0" pos="720"/>
          <note key="70" vol="103" len="12" pan="0" pos="732"/>
          <note key="29" vol="103" len="12" pan="0" pos="732"/>
          <note key="71" vol="103" len="12" pan="0" pos="744"/>
          <note key="26" vol="103" len="12" pan="0" pos="744"/>
          <note key="48" vol="103" len="12" pan="0" pos="756"/>
          <note key="29" vol="103" len="12" pan="0" pos="756"/>
          <note key="24" vol="103" len="6" pan="0" pos="756"/>
          <note key="60" vol="103" len="12" pan="0" pos="768"/>
          <note key="26" vol="103" len="12" pan="0" pos="768"/>
          <note key="13" vol="103" len="192" pan="0" pos="768"/>
          <note key="7" vol="103" len="192" pan="0" pos="768"/>
          <note key="61" vol="103" len="12" pan="0" pos="780"/>
          <note key="62" vol="103" len="12" pan="0" pos="792"/>
          <note key="29" vol="103" len="12" pan="0" pos="792"/>
          <note key="24" vol="103" len="6" pan="0" pos="792"/>
          <note key="36" vol="103" len="12" pan="0" pos="804"/>
          <note key="63" vol="103" len="12" pan="0" pos="816"/>
          <note key="26" vol="103" len="12" pan="0" pos="816"/>
          <note key="64" vol="103" len="12" pan="0" pos="828"/>
          <note key="65" vol="103" len="12" pan="0" pos="840"/>
          <note key="29" vol="103" len="12" pan="0" pos="840"/>
          <note key="43" vol="103" len="12" pan="0" pos="852"/>
          <note key="66" vol="103" len="12" pan="0" pos="864"/>
          <note key="26" vol="103" len="12" pan="0" pos="864"/>
          <note key="67" vol="103" len="12" pan="0" pos="876"/>
          <note key="68" vol="103" len="12" pan="0" pos="888"/>
          <note key="29" vol="103" len="12" pan="0" pos="888"/>
          <note key="24" vol="103" len="6" pan="0" pos="888"/>
          <note key="36" vol="103" len="12" pan="0" pos="900"/>
          <note key="69" vol="103" len="12" pan="0" pos="912"/>
          <note key="26" vol="103" len="12" pan="0" pos="912"/>
          <note key="70" vol="103" len="12" pan="0" pos="924"/>
          <note key="29" vol="103" len="12" pan="0" pos="924"/>
          <note key="71" vol="103" len="12" pan="0" pos="936"/>
          <note key="26" vol="103" len="12" pan="0" pos="936"/>
          <note key="36" vol="103" len="12" pan="0" pos="948"/>
          <note key="29" vol="103" len="12" pan="0" pos="948"/>
          <note key="24" vol="103" len="6" pan="0" pos="948"/>
          <note key="60" vol="103" len="12" pan="0" pos="960"/>
          <note key="26" vol="103" len="12" pan="0" pos="960"/>
          <note key="13" vol="103" len="192" pan="0" pos="960"/>
          <note key="9" vol="103" len="192" pan="0" pos="960"/>
          <note key="61" vol="103" len="12" pan="0" pos="972"/>
          <note key="62" vol="103" len="12" pan="0" pos="984"/>
          <note key="29" vol="103" len="12" pan="0" pos="984"/>
          <note key="24" vol="103" len="6" pan="0" pos="984"/>
          <note key="48" vol="103" len="12" pan="0" pos="996"/>
          <note key="63" vol="103" len="12" pan="0" pos="1008"/>
          <note key="26" vol="103" len="12" pan="0" pos="1008"/>
          <note key="64" vol="103" len="12" pan="0" pos="1020"/>
          <note key="65" vol="103" len="12" pan="0" pos="1032"/>
          <note key="29" vol="103" len="12" pan="0" pos="1032"/>
          <note key="55" vol="103" len="12" pan="0" pos="1044"/>
          <note key="66" vol="103" len="12" pan="0" pos="1056"/>
          <note key="26" vol="103" len="12" pan="0" pos="1056"/>
          <note key="67" vol="103" len="12" pan="0" pos="1068"/>
          <note key="68" vol="103" len="12" pan="0" pos="1080"/>
          <note key="29" vol="103" len="12" pan="0" pos="1080"/>
          <note key="24" vol="103" len="6" pan="0" pos="1080"/>
          <note key="48" vol="103" len="12" pan="0" pos="1092"/>
          <note key="69" vol="103" len="12" pan="0" pos="1104"/>
          <note key="26" vol="103" len="12" pan="0" pos="1104"/>
          <note key="70" vol="103" len="12" pan="0" pos="1116"/>
          <note key="29" vol="103" len="12" pan="0" pos="1116"/>
          <note key="71" vol="103" len="12" pan="0" pos="1128"/>
          <note key="26" vol="103" len="12" pan="0" pos="1128"/>
          <note key="48" vol="103" len="12" pan="0" pos="1140"/>
          <note key="29" vol="103" len="12" pan="0" pos="1140"/>
          <note key="24" vol="103" len="6" pan="0" pos="1140"/>
          <note key="60" vol="103" len="12" pan="0" pos="1152"/>
          <note key="26" vol="103" len="12" pan="0" pos="1152"/>
          <note key="13" vol="103" len="192" pan="0" pos="1152"/>
          <note key="11" vol="103" len="192" pan="0" pos="1152"/>
          <note key="61" vol="103" len="12" pan="0" pos="1164"/>
          <note key="62" vol="103" len="12" pan="0" pos="1176"/>
          <note key="29" vol="103" len="12" pan="0" pos="1176"/>
          <note key="24" vol="103" len="6" pan="0" pos="1176"/>
          <note key="36" vol="103" len="12" pan="0" pos="1188"/>
          <note key="63" vol="103" len="12" pan="0" pos="1200"/>
          <note key="26" vol="103" len="12" pan="0" pos="1200"/>
          <note key="64" vol="103" len="12" pan="0" pos="1212"/>
          <note key="65" vol="103" len="12" pan="0" pos="1224"/>
          <note key="29" vol="103" len="12" pan="0" pos="1224"/>
          <note key="44" vol="103" len="12" pan="0" pos="1236"/>
          <note key="66" vol="103" len="12" pan="0" pos="1248"/>
          <note key="26" vol="103" len="12" pan="0" pos="1248"/>
          <note key="67" vol="103" len="12" pan="0" pos="1260"/>
          <note key="68" vol="103" len="12" pan="0" pos="1272"/>
          <note key="29" vol="103" len="12" pan="0" pos="1272"/>
          <note key="24" vol="103" len="6" pan="0" pos="1272"/>
          <note key="36" vol="103" len="12" pan="0" pos="1284"/>
          <note key="69" vol="103" len="12" pan="0" pos="1296"/>
          <note key="26" vol="103" len="12" pan="0" pos="1296"/>
          <note key="70" vol="103" len="12" pan="0" pos="1308"/>
          <note key="29" vol="103" len="12" pan="0" pos="1308"/>
          <note key="71" vol="103" len="12" pan="0" pos="1320"/>
          <note key="26" vol="103" len="12" pan="0" pos="1320"/>
          <note key="36" vol="103" len="12" pan="0" pos="1332"/>
          <note key="29" vol="103" len="12" pan="0" pos="1332"/>
          <note key="24" vol="103" len="6" pan="0" pos="1332"/>
          <note key="60" vol="103" len="12" pan="0" pos="1344"/>
          <note key="26" vol="103" len="12" pan="0" pos="1344"/>
          <note key="13" vol="103" len="192" pan="0" pos="1344"/>
          <note key="2" vol="103" len="192" pan="0" pos="1344"/>
          <note key="61" vol="103" len="12" pan="0" pos="1356"/>
          <note key="62" vol="103" len="12" pan="0" pos="1368"/>
          <note key="29" vol="103" len="12" pan="0" pos="1368"/>
          <note key="24" vol="103" len="6" pan="0" pos="1368"/>
          <note key="48" vol="103" len="12" pan="0" pos="1380"/>
          <note key="63" vol="103" len="12" pan="0" pos="1392"/>
          <note key="26" vol="103" len="12" pan="0" pos="1392"/>
          <note key="64" vol="103" len="12" pan="0" pos="1404"/>
          <note key="65" vol="103" len="12" pan="0" pos="1416"/>
          <note key="29" vol="103" len="12" pan="0" pos="1416"/>
          <note key="55" vol="103" len="12" pan="0" pos="1428"/>
          <note key="66" vol="103" len="12" pan="0" pos="1440"/>
          <note key="26" vol="103" len="12" pan="0" pos="1440"/>
          <note key="67" vol="103" len="12" pan="0" pos="1452"/>
          <note key="68" vol="103" len="12" pan="0" pos="1464"/>
          <note key="29" vol="103" len="12" pan="0" pos="1464"/>
          <note key="24" vol="103" len="6" pan="0" pos="1464"/>
          <note key="48" vol="103" len="12" pan="0" pos="1476"/>
          <note key="69" vol="103" len="12" pan="0" pos="1488"/>
          <note key="26" vol="103" len="12" pan="0" pos="1488"/>
          <note key="70" vol="103" len="12" pan="0" pos="1500"/>
          <note key="29" vol="103" len="12" pan="0" pos="1500"/>
          <note key="71" vol="103" len="12" pan="0" pos="1512"/>
          <note key="26" vol="103" len="12" pan="0" pos="1512"/>
          <note key="48" vol="103" len="12" pan="0" pos="1524"/>
          <note key="29" vol="103" len="12" pan="0" pos="1524"/>
          <note key="24" vol="103" len="6" pan="0" pos="1524"/>
        </pattern>
        <pattern type="1" steps="16" muted="0" name="" pos="6144">
          <note key="60" vol="103" len="12" pan="0" pos="0"/>
          <note key="26" vol="103" len="12" pan="0" pos="0"/>
          <note key="16" vol="103" len="192" pan="0" pos="0"/>
          <note key="0" vol="103" len="192" pan="0" pos="0"/>
          <note key="61" vol="103" len="12" pan="0" pos="12"/>
          <note key="62" vol="103" len="12" pan="0" pos="24"/>
          <note key="29" vol="103" len="12" pan="0" pos="24"/>
          <note key="24" vol="103" len="6" pan="0" pos="24"/>
          <note key="36" vol="103" len="12" pan="0" pos="36"/>
          <note key="63" vol="103" len="12" pan="0" pos="48"/>
          <note key="26" vol="103" len="12" pan="0" pos="48"/>
          <note key="64" vol="103" len="12" pan="0" pos="60"/>
          <note key="65" vol="103" len="12" pan="0" pos="72"/>
          <note key="29" vol="103" len="12" pan="0" pos="72"/>
          <note key="43" vol="103" len="12" pan="0" pos="84"/>
          <note key="66" vol="103" len="12" pan="0" pos="96"/>
          <note key="26" vol="103" len="12" pan="0" pos="96"/>
          <note key="67" vol="103" len="12" pan="0" pos="108"/>
          <note key="68" vol="103" len="12" pan="0" pos="120"/>
          <note key="29" vol="103" len="12" pan="0" pos="120"/>
          <note key="24" vol="103" len="6" pan="0" pos="120"/>
          <note key="36" vol="103" len="12" pan="0" pos="132"/>
          <note key="69" vol="103" len="12" pan="0" pos="144"/>
          <note key="26" vol="103" len="12" pan="0" pos="144"/>
          <note key="70" vol="103" len="12" pan="0" pos="156"/>
          <note key="29" vol="103" len="12" pan="0" pos="156"/>
          <note key="71" vol="103" len="12" pan="0" pos="168"/>
          <note key="26" vol="103" len="12" pan="0" pos="168"/>
          <note key="36" vol="103" len="12" pan="0" pos="180"/>
          <note key="29" vol="103" len="12" pan="0" pos="180"/>
          <note key="24" vol="103" len="6" pan="0" pos="180"/>
          <note key="60" vol="103" len="12" pan="0" pos="192"/>
          <note key="26" vol="103" len="12" pan="0" pos="192"/>
          <note key="16" vol="103" len="192" pan="0" pos="192"/>
          <note key="2" vol="103" len="192" pan="0" pos="192"/>
          <note key="61" vol="103" len="12" pan="0" pos="204"/>
          <note key="62" vol="103" len="12" pan="0" pos="216"/>
          <note key="29" vol="103" len="12" pan="0" pos="216"/>
          <note key="24" vol="103" len="6" pan="0" pos="216"/>
          <note key="48" vol="103" len="12" pan="0" pos="228"/>
          <note key="63" vol="103" len="12" pan="0" pos="240"/>
          <note key="26" vol="103" len="12" pan="0" pos="240"/>
          <note key="64" vol="103" len="12" pan="0" pos="252"/>
          <note key="65" vol="103" len="12" pan="0" pos="264"/>
          <note key="29" vol="103" len="12" pan="0" pos="264"/>
          <note key="55" vol="103" len="12" pan="0" pos="276"/>
          <note key="66" vol="103" len="12" pan="0" pos="288"/>
          <note key="26" vol="103" len="12" pan="0" pos="288"/>
          <note key="67" vol="103" len="12" pan="0" pos="300"/>
          <note key="68" vol="103" len="12" pan="0" pos="312"/>
          <note key="29" vol="103" len="12" pan="0" pos="312"/>
          <note key="24" vol="103" len="6" pan="0" pos="312"/>
          <note key="48" vol="103" len="12" pan="0" pos="324"/>
          <note key="69" vol="103" len="12" pan="0" pos="336"/>
          <note key="26" vol="103" len="12" pan="0" pos="336"/>
          <note key="70" vol="103" len="12" pan="0" pos="348"/>
          <note key="29" vol="103" len="12" pan="0" pos="348"/>
          <note key="71" vol="103" len="12" pan="0" pos="360"/>
          <note key="26" vol="103" len="12" pan="0" pos="360"/>
          <note key="48" vol="103" len="12" pan="0" pos="372"/>
          <note key="29" vol="103" len="12" pan="0" pos="372"/>
          <note key="24" vol="103" len="6" pan="0" pos="372"/>
          <note key="60" vol="103" len="12" pan="0" pos="384"/>
          <note key="26" vol="103" len="12" pan="0" pos="384"/>
          <note key="16" vol="103" len="192" pan="0" pos="384"/>
          <note key="4" vol="103" len="192" pan="0" pos="384"/>
          <note key="61" vol="103" len="12" pan="0" pos="396"/>
          <note key="62" vol="103" len="12" pan="0" pos="408"/>
          <note key="29" vol="103" len="12" pan="0" pos="408"/>
          <note key="24" vol="103" len="6" pan="0" pos="408"/>
          <note key="36" vol="103" len="12" pan="0" pos="420"/>
          <note key="63" vol="103" len="12" pan="0" pos="432"/>
          <note key="26" vol="103" len="12" pan="0" pos="432"/>
          <note key="64" vol="103" len="12" pan="0" pos="444"/>
          <note key="65" vol="103" len="12" pan="0" pos="456"/>
          <note key="29" vol="103" len="12" pan="0" pos="456"/>
          <note key="43" vol="103" len="12" pan="0" pos="468"/>
          <note key="66" vol="103" len="12" pan="0" pos="480"/>
          <note key="26" vol="103" len="12" pan="0" pos="480"/>
          <note key="67" vol="103" len="12" pan="0" pos="492"/>
          <note key="68" vol="103" len="12" pan="0" pos="504"/>
          <note key="29" vol="103" len="12" pan="0" pos="504"/>
          <note key="24" vol="103" len="6" pan="0" pos="504"/>
          <note key="36" vol="103" len="12" pan="0" pos="516"/>
          <note key="69" vol="103" len="12" pan="0" pos="528"/>
          <note key="26" vol="103" len="12" pan="0" pos="528"/>
          <note key="70" vol="103" len="12" pan="0" pos="540"/>
          <note key="29" vol="103" len="12" pan="0" pos="540"/>
          <note key="71" vol="103" len="12" pan="0" pos="552"/>
          <note key="26" vol="103" len="12" pan="0" pos="552"/>
          <note key="36" vol="103" len="12" pan="0" pos="564"/>
          <note key="29" vol="103" len="12" pan="0" pos="564"/>
          <note key="24" vol="103" len="6" pan="0" pos="564"/>
          <note key="60" vol="103" len="12" pan="0" pos="576"/>
          <note key="26" vol="103" len="12" pan="0" pos="576"/>
          <note key="16" vol="103" len="192" pan="0" pos="576"/>
          <note key="5" vol="103" len="192" pan="0" pos="576"/>
          <note key="61" vol="103" len="12" pan="0" pos="588"/>
          <note key="62" vol="103" len="12" pan="0" pos="600"/>
          <note key="29" vol="103" len="12" pan="0" pos="600"/>
          <note key="24" vol="103" len="6" pan="0" pos="600"/>
          <note key="48" vol="103" len="12" pan="0" pos="612"/>
          <note key="63" vol="103" len="12" pan="0" pos="624"/>
          <note key="26" vol="103" len="12" pan="0" pos="624"/>
          <note key="64" vol="103" len="12" pan="0" pos="636"/>
          <note key="65" vol="103" len="12" pan="0" pos="648"/>
          <note key="29" vol="103" len="12" pan="0" pos="648"/>
          <note key="57" vol="103" len="12" pan="0" pos="660"/>
          <note key="66" vol="103" len="12" pan="0" pos="672"/>
          <note key="26" vol="103" len="12" pan="0" pos="672"/>
          <note key="67" vol="103" len="12" pan="0" pos="684"/>
          <note key="68" vol="103" len="12" pan="0" pos="696"/>
          <note key="29" vol="103" len="12" pan="0" pos="696"/>
          <note key="24" vol="103" len="6" pan="0" pos="696"/>
          <note key="48" vol="103" len="12" pan="0" pos="708"/>
          <note key="69" vol="103" len="12" pan="0" pos="720"/>
          <note key="26" vol="103" len="12" pan="0" pos="720"/>
          <note key="70" vol="103" len="12" pan="0" pos="732"/>
          <note key="29" vol="103" len="12" pan="0" pos="732"/>
          <note key="71" vol="103" len="12" pan="0" pos="744"/>
          <note key="26" vol="103" len="12" pan="0" pos="744"/>
          <note key="48" vol="103" len="12" pan="0" pos="756"/>
          <note key="29" vol="103" len="12" pan="0" pos="756"/>
          <note key="24" vol="103" len="6" pan="0" pos="756"/>
          <note key="60" vol="103" len="12" pan="0" pos="768"/>
          <note key="26" vol="103" len="12" pan="0" pos="768"/>
          <note key="16" vol="103" len="192" pan="0" pos="768"/>
          <note key="7" vol="103" len="192" pan="0" pos="768"/>
          <note key="61" vol="103" len="12" pan="0" pos="780"/>
          <note key="62" vol="103" len="12" pan="0" pos="792"/>
          <note key="29" vol="103" len="12" pan="0" pos="792"/>
          <note key="24" vol="103" len="6" pan="0" pos="792"/>
          <note key="36" vol="103" len="12" pan="0" pos="804"/>
          <note key="63" vol="103" len="12" pan="0" pos="816"/>
          <note key="26" vol="103" len="12" pan="0" pos="816"/>
          <note key="64" vol="103" len="12" pan="0" pos="828"/>
          <note key="65" vol="103" len="12" pan="0" pos="840"/>
          <note key="29" vol="103" len="12" pan="0" pos="840"/>
          <note key="43" vol="103" len="12" pan="0" pos="852"/>
          <note key="66" vol="103" len="12" pan="0" pos="864"/>
          <note key="26" vol="103" len="12" pan="0" pos="864"/>
          <note key="67" vol="103" len="12" pan="0" pos="876"/>
          <note key="68" vol="103" len="12" pan="0" pos="888"/>
          <note key="29" vol="103" len="12" pan="0" pos="888"/>
          <note key="24" vol="103" len="6" pan="0" pos="888"/>
          <note key="36" vol="103" len="12" pan="0" pos="900"/>
          <note key="69" vol="103" len="12" pan="0" pos="912"/>
          <note key="26" vol="103" len="12" pan="0" pos="912"/>
          <note key="70" vol="103" len="12" pan="0" pos="924"/>
          <note key="29" vol="103" len="12" pan="0" pos="924"/>
          <note key="71" vol="103" len="12" pan="0" pos="936"/>
          <note key="26" vol="103" len="12" pan="0" pos="936"/>
          <note key="36" vol="103" len="12" pan="0" pos="948"/>
          <note key="29" vol="103" len="12" pan="0" pos="948"/>
          <note key="24" vol="103" len="6" pan="0" pos="948"/>
          <note key="60" vol="103" len="12" pan="0" pos="960"/>
          <note key="26" vol="103" len="12" pan="0" pos="960"/>
          <note key="16" vol="103" len="192" pan="0" pos="960"/>
          <note key="9" vol="103" len="192" pan="0" pos="960"/>
          <note key="61" vol="103" len="12" pan="0" pos="972"/>
          <note key="62" vol="103" len="12" pan="0" pos="984"/>
          <note key="29" vol="103" len="12" pan="0" pos="984"/>
          <note key="24" vol="103" len="6" pan="0" pos="984"/>
          <note key="48" vol="103" len="12" pan="0" pos="996"/>
          <note key="63" vol="103" len="12" pan="0" pos="1008"/>
          <note key="26" vol="103" len="12" pan="0" pos="1008"/>
          <note key="64" vol="103" len="12" pan="0" pos="1020"/>
          <note key="65" vol="103" len="12" pan="0" pos="1032"/>
          <note key="29" vol="103" len="12" pan="0" pos="1032"/>
          <note key="55" vol="103" len="12" pan="0" pos="1044"/>
          <note key="66" vol="103" len="12" pan="0" pos="1056"/>
          <note key="26" vol="103" len="12" pan="0" pos="1056"/>
          <note key="67" vol="103" len="12" pan="0" pos="1068"/>
          <note key="68" vol="103" len="12" pan="0" pos="1080"/>
          <note key="29" vol="103" len="12" pan="0" pos="1080"/>
          <note key="24" vol="103" len="6" pan="0" pos="1080"/>
          <note key="48" vol="103" len="12" pan="0" pos="1092"/>
          <note key="69" vol="103" len="12" pan="0" pos="1104"/>
          <note key="26" vol="103" len="12" pan="0" pos="1104"/>
          <note key="70" vol="103" len="12" pan="0" pos="1116"/>
          <note key="29" vol="103" len="12" pan="0" pos="1116"/>
          <note key="71" vol="103" len="12" pan="0" pos="1128"/>
          <note key="26" vol="103" len="12" pan="0" pos="1128"/>
          <note key="48" vol="103" len="12" pan="0" pos="1140"/>
          <note key="29" vol="103" len="12" pan="0" pos="1140"/>
          <note key="24" vol="103" len="6" pan="0" pos="1140"/>
          <note key="60" vol="103" len="12" pan="0" pos="1152"/>
          <note key="26" vol="103" len="12" pan="0" pos="1152"/>
          <note key="16" vol="103" len="192" pan="0" pos="1152"/>
          <note key="11" vol="103" len="192" pan="0" pos="1152"/>
          <note key="61" vol="103" len="12" pan="0" pos="1164"/>
          <note key="62" vol="103" len="12" pan="0" pos="1176"/>
          <note key="29" vol="103" len="12" pan="0" pos="1176"/>
          <note key="24" vol="103" len="6" pan="0" pos="1176"/>
          <note key="36" vol="103" len="12" pan="0" pos="1188"/>
          <note key="63" vol="103" len="12" pan="0" pos="1200"/>
          <note key="26" vol="103" len="12" pan="0" pos="1200"/>
          <note key="64" vol="103" len="12" pan="0" pos="1212"/>
          <note key="65" vol="103" len="12" pan="0" pos="1224"/>
          <note key="29" vol="103" len="12" pan="0" pos="1224"/>
          <note key="44" vol="103" len="12" pan="0" pos="1236"/>
          <note key="66" vol="103" len="12" pan="0" pos="1248"/>
          <note key="26" vol="103" len="12" pan="0" pos="1248"/>
          <note key="67" vol="103" len="12" pan="0" pos="1260"/>
          <note key="68" vol="103" len="12" pan="0" pos="1272"/>
          <note key="29" vol="103" len="12" pan="0" pos="1272"/>
          <note key="24" vol="103" len="6" pan="0" pos="1272"/>
          <note key="36" vol="103" len="12" pan="0" pos="1284"/>
          <note key="69" vol="103" len="12" pan="0" pos="1296"/>
          <note key="26" vol="103" len="12" pan="0" pos="1296"/>
          <note key="70" vol="103" len="12" pan="0" pos="1308"/>
          <note key="29" vol="103" len="12" pan="0" pos="1308"/>
          <note key="71" vol="103" len="12" pan="0" pos="1320"/>
          <note key="26" vol="103" len="12" pan="0" pos="1320"/>
          <note key="36" vol="103" len="12" pan="0" pos="1332"/>
          <note key="29" vol="103" len="12" pan="0" pos="1332"/>
          <note key="24" vol="103" len="6" pan="0" pos="1332"/>
          <note key="60" vol="103" len="12" pan="0" pos="1344"/>
          <note key="26" vol="103" len="12" pan="0" pos="1344"/>
          <note key="16" vol="103" len="192" pan="0" pos="1344"/>
          <note key="2" vol="103" len="192" pan="0" pos="1344"/>
          <note key="61" vol="103" len="12" pan="0" pos="1356"/>
          <note key="62" vol="103" len="12" pan="0" pos="1368"/>
          <note key="29" vol="103" len="12" pan="0" pos="1368"/>
          <note key="24" vol="103" len="6" pan="0" pos="1368"/>
          <note key="48" vol="103" len="12" pan="0" pos="1380"/>
          <note key="63" vol="103" len="12" pan="0" pos="1392"/>
          <note key="26" vol="103" len="12" pan="0" pos="1392"/>
          <note key="64" vol="103" len="12" pan="0" pos="1404"/>
          <note key="65" vol="103" len="12" pan="0" pos="1416"/>
          <note key="29" vol="103" len="12" pan="0" pos="1416"/>
          <note key="55" vol="103" len="12" pan="0" pos="1428"/>
          <note key="66" vol="103" len="12" pan="0" pos="1440"/>
          <note key="26" vol="103" len="12" pan="0" pos="1440"/>
          <note key="67" vol="103" len="12" pan="0" pos="1452"/>
          <note key="68" vol="103" len="12" pan="0" pos="1464"/>
          <note key="29" vol="103" len="12" pan="0" pos="1464"/>
          <note key="24" vol="103" len="6" pan="0" pos="1464"/>
          <note key="48" vol="103" len="12" pan="0" pos="1476"/>
          <note key="69" vol="103" len="12" pan="0" pos="1488"/>
          <note key="26" vol="103" len="12" pan="0" pos="1488"/>
          <note key="70" vol="103" len="12" pan="0" pos="1500"/>
          <note key="29" vol="103" len="12" pan="0" pos="1500"/>
          <note key="71" vol="103" len="12" pan="0" pos="1512"/>
          <note key="26" vol="103" len="12" pan="0" pos="1512"/>
          <note key="48" vol="103" len="12" pan="0" pos="1524"/>
          <note key="29" vol="103" len="12" pan="0" pos="1524"/>
          <note key="24" vol="103" len="6" pan="0" pos="1524"/>
        </pattern>
        <pattern type="1" steps="16" muted="0" name="" pos="7680">
          <note key="60" vol="103" len="12" pan="0" pos="0"/>
          <note key="26" vol="103" len="12" pan="0" pos="0"/>
          <note key="19" vol="103" len="192" pan="0" pos="0"/>
          <note key="0" vol="103" len="192" pan="0" pos="0"/>
          <note key="61" vol="103" len="12" pan="0" pos="12"/>
          <note key="62" vol="103" len="12" pan="0" pos="24"/>
          <note key="29" vol="103" len="12" pan="0" pos="24"/>
          <note key="24" vol="103" len="6" pan="0" pos="24"/>
          <note key="36" vol="103" len="12" pan="0" pos="36"/>
          <note key="63" vol="103" len="12" pan="0" pos="48"/>
          <note key="26" vol="103" len="12" pan="0" pos="48"/>
          <note key="64" vol="103" len="12" pan="0" pos="60"/>
          <note key="65" vol="103" len="12" pan="0" pos="72"/>
          <note key="29" vol="103" len="12" pan="0" pos="72"/>
          <note key="43" vol="103" len="12" pan="0" pos="84"/>
          <note key="66" vol="103" len="12" pan="0" pos="96"/>
          <note key="26" vol="103" len="12" pan="0" pos="96"/>
          <note key="67" vol="103" len="12" pan="0" pos="108"/>
          <note key="68" vol="103" len="12" pan="0" pos="120"/>
          <note key="29" vol="103" len="12" pan="0" pos="120"/>
          <note key="24" vol="103" len="6" pan="0" pos="120"/>
          <note key="36" vol="103" len="12" pan="0" pos="132"/>
          <note key="69" vol="103" len="12" pan="0" pos="144"/>
          <note key="26" vol="103" len="12" pan="0" pos="144"/>
          <note key="70" vol="103" len="12" pan="0" pos="156"/>
          <note key="29" vol="103" len="12" pan="0" pos="156"/>
          <note key="71" vol="103" len="12" pan="0" pos="168"/>
          <note key="26" vol="103" len="12" pan="0" pos="168"/>
          <note key="36" vol="103" len="12" pan="0" pos="180"/>
          <note key="29" vol="103" len="12" pan="0" pos="180"/>
          <note key="24" vol="103" len="6" pan="0" pos="180"/>
          <note key="60" vol="103" len="12" pan="0" pos="192"/>
          <note key="26" vol="103" len="12" pan="0" pos="192"/>
          <note key="19" vol="103" len="192" pan="0" pos="192"/>
          <note key="2" vol="103" len="192" pan="0" pos="192"/>
          <note key="61" vol="103" len="12" pan="0" pos="204"/>
          <note key="62" vol="103" len="12" pan="0" pos="216"/>
          <note key="29" vol="103" len="12" pan="0" pos="216"/>
          <note key="24" vol="103" len="6" pan="0" pos="216"/>
          <note key="48" vol="103" len="12" pan="0" pos="228"/>
          <note key="63" vol="103" len="12" pan="0" pos="240"/>
          <note key="26" vol="103" len="12" pan="0" pos="240"/>
          <note key="64" vol="103" len="12" pan="0" pos="252"/>
          <note key="65" vol="103" len="12" pan="0" pos="264"/>
          <note key="29" vol="103" len="12" pan="0" pos="264"/>
          <note key="55" vol="103" len="12" pan="0" pos="276"/>
          <note key="66" vol="103" len="12" pan="0" pos="288"/>
          <note key="26" vol="103" len="12" pan="0" pos="288"/>
          <note key="67" vol="103" len="12" pan="0" pos="300"/>
          <note key="68" vol="103" len="12" pan="0" pos="312"/>
          <note key="29" vol="103" len="12" pan="0" pos="312"/>
          <note key="24" vol="103" len="6" pan="0" pos="312"/>
          <note key="48" vol="103" len="12" pan="0" pos="324"/>
          <note key="69" vol="103" len="12" pan="0" pos="336"/>
          <note key="26" vol="103" len="12" pan="0" pos="336"/>
          <note key="70" vol="103" len="12" pan="0" pos="348"/>
          <note key="29" vol="103" len="12" pan="0" pos="348"/>
          <note key="71" vol="103" len="12" pan="0" pos="360"/>
          <note key="26" vol="103" len="12" pan="0" pos="360"/>
          <note key="48" vol="103" len="12" pan="0" pos="372"/>
          <note key="29" vol="103" len="12" pan="0" pos="372"/>
          <note key="24" vol="103" len="6" pan="0" pos="372"/>
          <note key="60" vol="103" len="12" pan="0" pos="384"/>
          <note key="26" vol="103" len="12" pan="0" pos="384"/>
          <note key="19" vol="103" len="192" pan="0" pos="384"/>
          <note key="4" vol="103" len="192" pan="0" pos="384"/>
          <note key="61" vol="103" len="12" pan="0" pos="396"/>
          <note key="62" vol="103" len="12" pan="0" pos="408"/>
          <note key="29" vol="103" len="12" pan="0" pos="408"/>
          <note key="24" vol="103" len="6" pan="0" pos="408"/>
          <note key="36" vol="103" len="12" pan="0" pos="420"/>
          <note key="63" vol="103" len="12" pan="0" pos="432"/>
          <note key="26" vol="103" len="12" pan="0" pos="432"/>
          <note key="64" vol="103" len="12" pan="0" pos="444"/>
          <note key="65" vol="103" len="12" pan="0" pos="456"/>
          <note key="29" vol="103" len="12" pan="0" pos="456"/>
          <note key="43" vol="103" len="12" pan="0" pos="468"/>
          <note key="66" vol="103" len="12" pan="0" pos="480"/>
          <note key="26" vol="103" len="12" pan="0" pos="480"/>
          <note key="67" vol="103" len="12" pan="0" pos="492"/>
          <note key="68" vol="103" len="12" pan="0" pos="504"/>
          <note key="29" vol="103" len="12" pan="0" pos="504"/>
          <note key="24" vol="103" len="6" pan="0" pos="504"/>
          <note key="36" vol="103" len="12" pan="0" pos="516"/>
          <note key="69" vol="103" len="12" pan="0" pos="528"/>
          <note key="26" vol="103" len="12" pan="0" pos="528"/>
          <note key="70" vol="103" len="12" pan="0" pos="540"/>
          <note key="29" vol="103" len="12" pan="0" pos="540"/>
          <note key="71" vol="103" len="12" pan="0" pos="552"/>
          <note key="26" vol="103" len="12" pan="0" pos="552"/>
          <note key="36" vol="103" len="12" pan="0" pos="564"/>
          <note key="29" vol="103" len="12" pan="0" pos="564"/>
          <note key="24" vol="103" len="6" pan="0" pos="564"/>
          <note key="60" vol="103" len="12" pan="0" pos="576"/>
          <note key="26" vol="103" len="12" pan="0" pos="576"/>
          <note key="19" vol="103" len="192" pan="0" pos="576"/>
          <note key="5" vol="103" len="192" pan="0" pos="576"/>
          <note key="61" vol="103" len="12" pan="0" pos="588"/>
          <note key="62" vol="103" len="12" pan="0" pos="600"/>
          <note key="29" vol="103" len="12" pan="0" pos="600"/>
          <note key="24" vol="103" len="6" pan="0" pos="600"/>
          <note key="48" vol="103" len="12" pan="0" pos="612"/>
          <note key="63" vol="103" len="12" pan="0" pos="624"/>
          <note key="26" vol="103" len="12" pan="0" pos="624"/>
          <note key="64" vol="103" len="12" pan="0" pos="636"/>
          <note key="65" vol="103" len="12" pan="0" pos="648"/>
          <note key="29" vol="103" len="12" pan="0" pos="648"/>
          <note key="57" vol="103" len="12" pan="0" pos="660"/>
          <note key="66" vol="103" len="12" pan="0" pos="672"/>
          <note key="26" vol="103" len="12" pan="0" pos="672"/>
          <note key="67" vol="103" len="12" pan="0" pos="684"/>
          <note key="68" vol="103" len="12" pan="0" pos="696"/>
          <note key="29" vol="103" len="12" pan="0" pos="696"/>
          <note key="24" vol="103" len="6" pan="0" pos="696"/>
          <note key="48" vol="103" len="12" pan="0" pos="708"/>
          <note key="69" vol="103" len="12" pan="0" pos="720"/>
          <note key="26" vol="103" len="12" pan="0" pos="720"/>
          <note key="70" vol="103" len="12" pan="0" pos="732"/>
          <note key="29" vol="103" len="12" pan="0" pos="732"/>
          <note key="71" vol="103" len="12" pan="0" pos="744"/>
          <note key="26" vol="103" len="12" pan="0" pos="744"/>
          <note key="48" vol="103" len="12" pan="0" pos="756"/>
          <note key="29" vol="103" len="12" pan="0" pos="756"/>
          <note key="24" vol="103" len="6" pan="0" pos="756"/>
          <note key="60" vol="103" len="12" pan="0" pos="768"/>
          <note key="26" vol="103" len="12" pan="0" pos="768"/>
          <note key="19" vol="103" len="192" pan="0" pos="768"/>
          <note key="7" vol="103" len="192" pan="0" pos="768"/>
          <note key="61" vol="103" len="12" pan="0" pos="780"/>
          <note key="62" vol="103" len="12" pan="0" pos="792"/>
          <note key="29" vol="103" len="12" pan="0" pos="792"/>
          <note key="24" vol="103" len="6" pan="0" pos="792"/>
          <note key="36" vol="103" len="12" pan="0" pos="804"/>
          <note key="63" vol="103" len="12" pan="0" pos="816"/>
          <note key="26" vol="103" len="12" pan="0" pos="816"/>
          <note key="64" vol="103" len="12" pan="0" pos="828"/>
          <note key="65" vol="103" len="12" pan="0" pos="840"/>
          <note key="29" vol="103" len="12" pan="0" pos="840"/>
          <note key="43" vol="103" len="12" pan="0" pos="852"/>
          <note key="66" vol="103" len="12" pan="0" pos="864"/>
          <note key="26" vol="103" len="12" pan="0" pos="864"/>
          <note key="67" vol="103" len="12" pan="0" pos="876"/>
          <note key="68" vol="103" len="12" pan="0" pos="888"/>
          <note key="29" vol="103" len="12" pan="0" pos="888"/>
          <note key="24" vol="103" len="6" pan="0" pos="888"/>
          <note key="36" vol="103" len="12" pan="0" pos="900"/>
          <note key="69" vol="103" len="12" pan="0" pos="912"/>
          <note key="26" vol="103" len="12" pan="0" pos="912"/>
          <note key="70" vol="103" len="12" pan="0" pos="924"/>
          <note key="29" vol="103" len="12" pan="0" pos="924"/>
          <note key="71" vol="103" len="12" pan="0" pos="936"/>
          <note key="26" vol="103" len="12" pan="0" pos="936"/>
          <note key="36" vol="103" len="12" pan="0" pos="948"/>
          <note key="29" vol="103" len="12" pan="0" pos="948"/>
          <note key="24" vol="103" len="6" pan="0" pos="948"/>
          <note key="60" vol="103" len="12" pan="0" pos="960"/>
          <note key="26" vol="103" len="12" pan="0" pos="960"/>
          <note key="19" vol="103" len="192" pan="0" pos="960"/>
          <note key="9" vol="103" len="192" pan="0" pos="960"/>
          <note key="61" vol="103" len="12" pan="0" pos="972"/>
          <note key="62" vol="103" len="12" pan="0" pos="984"/>
          <note key="29" vol="103" len="12" pan="0" pos="984"/>
          <note key="24" vol="103" len="6" pan="0" pos="984"/>
          <note key="48" vol="103" len="12" pan="0" pos="996"/>
          <note key="63" vol="103" len="12" pan="0" pos="1008"/>
          <note key="26" vol="103" len="12" pan="0" pos="1008"/>
          <note key="64" vol="103" len="12" pan="0" pos="1020"/>
          <note key="65" vol="103" len="12" pan="0" pos="1032"/>
          <note key="29" vol="103" len="12" pan="0" pos="1032"/>
          <note key="55" vol="103" len="12" pan="0" pos="1044"/>
          <note key="66" vol="103" len="12" pan="0" pos="1056"/>
          <note key="26" vol="103" len="12" pan="0" pos="1056"/>
          <note key="67" vol="103" len="12" pan="0" pos="1068"/>
          <note key="68" vol="103" len="12" pan="0" pos="1080"/>
          <note key="29" vol="103" len="12" pan="0" pos="1080"/>
          <note key="24" vol="103" len="6" pan="0" pos="1080"/>
          <note key="48" vol="103" len="12" pan="0" pos="1092"/>
          <note key="69" vol="103" len="12" pan="0" pos="1104"/>
          <note key="26" vol="103" len="12" pan="0" pos="1104"/>
          <note key="70" vol="103" len="12" pan="0" pos="1116"/>
          <note key="29" vol="103" len="12" pan="0" pos="1116"/>
          <note key="71" vol="103" len="12" pan="0" pos="1128"/>
          <note key="26" vol="103" len="12" pan="0" pos="1128"/>
          <note key="48" vol="103" len="12" pan="0" pos="1140"/>
          <note key="29" vol="103" len="12" pan="0" pos="1140"/>
          <note key="24" vol="103" len="6" pan="0" pos="1140"/>
          <note key="60" vol="103" len="12" pan="0" pos="1152"/>
          <note key="26" vol="103" len="12" pan="0" pos="1152"/>
          <note key="19" vol="103" len="192" pan="0" pos="1152"/>
          <note key="11" vol="103" len="192" pan="0" pos="1152"/>
          <note key="61" vol="103" len="12" pan="0" pos="1164"/>
          <note key="62" vol="103" len="12" pan="0" pos="1176"/>
          <note key="29" vol="103" len="12" pan="0" pos="1176"/>
          <note key="24" vol="103" len="6" pan="0" pos="1176"/>
          <note key="36" vol="103" len="12" pan="0" pos="1188"/>
          <note key="63" vol="103" len="12" pan="0" pos="1200"/>
          <note key="26" vol="103" len="12" pan="0" pos="1200"/>
          <note key="64" vol="103" len="12" pan="0" pos="1212"/>
          <note key="65" vol="103" len="12" pan="0" pos="1224"/>
          <note key="29" vol="103" len="12" pan="0" pos="1224"/>
          <note key="44" vol="103" len="12" pan="0" pos="1236"/>
          <note key="66" vol="103" len="12" pan="0" pos="1248"/>
          <note key="26" vol="103" len="12" pan="0" pos="1248"/>
          <note key="67" vol="103" len="12" pan="0" pos="1260"/>
          <note key="68" vol="103" len="12" pan="0" pos="1272"/>
          <note key="29" vol="103" len="12" pan="0" pos="1272"/>
          <note key="24" vol="103" len="6" pan="0" pos="1272"/>
          <note key="36" vol="103" len="12" pan="0" pos="1284"/>
          <note key="69" vol="103" len="12" pan="0" pos="1296"/>
          <note key="26" vol="103" len="12" pan="0" pos="1296"/>
          <note key="70" vol="103" len="12" pan="0" pos="1308"/>
          <note key="29" vol="103" len="12" pan="0" pos="1308"/>
          <note key="71" vol="103" len="12" pan="0" pos="1320"/>
          <note key="26" vol="103" len="12" pan="0" pos="1320"/>
          <note key="36" vol="103" len="12" pan="0" pos="1332"/>
          <note key="29" vol="103" len="12" pan="0" pos="1332"/>
          <note key="24" vol="103" len="6" pan="0" pos="1332"/>
          <note key="60" vol="103" len="12" pan="0" pos="1344"/>
          <note key="26" vol="103" len="12" pan="0" pos="1344"/>
          <note key="19" vol="103" len="192" pan="0" pos="1344"/>
          <note key="2" vol="103" len="192" pan="0" pos="1344"/>
          <note key="61" vol="103" len="12" pan="0" pos="1356"/>
          <note key="62" vol="103" len="12" pan="0" pos="1368"/>
          <note key="29" vol="103" len="12" pan="0" pos="1368"/>
          <note key="24" vol="103" len="6" pan="0" pos="1368"/>
          <note key="48" vol="103" len="12" pan="0" pos="1380"/>
          <note key="63" vol="103" len="12" pan="0" pos="1392"/>
          <note key="26" vol="103" len="12" pan="0" pos="1392"/>
          <note key="64" vol="103" len="12" pan="0" pos="1404"/>
          <note key="65" vol="103" len="12" pan="0" pos="1416"/>
          <note key="29" vol="103" len="12" pan="0" pos="1416"/>
          <note key="55" vol="103" len="12" pan="0" pos="1428"/>
          <note key="66" vol="103" len="12" pan="0" pos="1440"/>
          <note key="26" vol="103" len="12" pan="0" pos="1440"/>
          <note key="67" vol="103" len="12" pan="0" pos="1452"/>
          <note key="68" vol="103" len="12" pan="0" pos="1464"/>
          <note key="29" vol="103" len="12" pan="0" pos="1464"/>
          <note key="24" vol="103" len="6" pan="0" pos="1464"/>
          <note key="48" vol="103" len="12" pan="0" pos="1476"/>
          <note key="69" vol="103" len="12" pan="0" pos="1488"/>
          <note key="26" vol="103" len="12" pan="0" pos="1488"/>
          <note key="70" vol="103" len="12" pan="0" pos="1500"/>
          <note key="29" vol="103" len="12" pan="0" pos="1500"/>
          <note key="71" vol="103" len="12" pan="0" pos="1512"/>
          <note key="26" vol="103" len="12" pan="0" pos="1512"/>
          <note key="48" vol="103" len="12" pan="0" pos="1524"/>
          <note key="29" vol="103" len="12" pan="0" pos="1524"/>
          <note key="24" vol="103" len="6" pan="0" pos="1524"/>
        </pattern>
        <pattern type="1" steps="16" muted="0" name="" pos="9216">
          <note key="60" vol="103" len="12" pan="0" pos="0"/>
          <note key="26" vol="103" len="12" pan="0" pos="0"/>
          <note key="18" vol="103" len="192" pan="0" pos="0"/>
          <note key="0" vol="103" len="192" pan="0" pos="0"/>
          <note key="61" vol="103" len="12" pan="0" pos="12"/>
          <note key="62" vol="103" len="12" pan="0" pos="24"/>
          <note key="29" vol="103" len="12" pan="0" pos="24"/>
          <note key="24" vol="103" len="6" pan="0" pos="24"/>
          <note key="36" vol="103" len="12" pan="0" pos="36"/>
          <note key="63" vol="103" len="12" pan="0" pos="48"/>
          <note key="26" vol="103" len="12" pan="0" pos="48"/>
          <note key="64" vol="103" len="12" pan="0" pos="60"/>
          <note key="65" vol="103" len="12" pan="0" pos="72"/>
          <note key="29" vol="103" len="12" pan="0" pos="72"/>
          <note key="43" vol="103" len="12" pan="0" pos="84"/>
          <note key="66" vol="103" len="12" pan="0" pos="96"/>
          <note key="26" vol="103" len="12" pan="0" pos="96"/>
          <note key="67" vol="103" len="12" pan="0" pos="108"/>
          <note key="68" vol="103" len="12" pan="0" pos="120"/>
          <note key="29" vol="103" len="12" pan="0" pos="120"/>
          <note key="24" vol="103" len="6" pan="0" pos="120"/>
          <note key="36" vol="103" len="12" pan="0" pos="132"/>
          <note key="69" vol="103" len="12" pan="0" pos="144"/>
          <note key="26" vol="103" len="12" pan="0" pos="144"/>
          <note key="70" vol="103" len="12" pan="0" pos="156"/>
          <note key="29" vol="103" len="12" pan="0" pos="156"/>
          <note key="71" vol="103" len="12" pan="0" pos="168"/>
          <note key="26" vol="103" len="12" pan="0" pos="168"/>
          <note key="36" vol="103" len="12" pan="0" pos="180"/>
          <note key="29" vol="103" len="12" pan="0" pos="180"/>
          <note key="24" vol="103" len="6" pan="0" pos="180"/>
          <note key="60" vol="103" len="12" pan="0" pos="192"/>
          <note key="26" vol="103" len="12" pan="0" pos="192"/>
          <note key="18" vol="103" len="192" pan="0" pos="192"/>
          <note key="2" vol="103" len="192" pan="0" pos="192"/>
          <note key="61" vol="103" len="12" pan="0" pos="204"/>
          <note key="62" vol="103" len="12" pan="0" pos="216"/>
          <note key="29" vol="103" len="12" pan="0" pos="216"/>
          <note key="24" vol="103" len="6" pan="0" pos="216"/>
          <note key="48" vol="103" len="12" pan="0" pos="228"/>
          <note key="63" vol="103" len="12" pan="0" pos="240"/>
          <note key="26" vol="103" len="12" pan="0" pos="240"/>
          <note key="64" vol="103" len="12" pan="0" pos="252"/>
          <note key="65" vol="103" len="12" pan="0" pos="264"/>
          <note key="29" vol="103" len="12" pan="0" pos="264"/>
          <note key="55" vol="103" len="12" pan="0" pos="276"/>
          <note key="66" vol="103" len="12" pan="0" pos="288"/>
          <note key="26" vol="103" len="12" pan="0" pos="288"/>
          <note key="67" vol="103" len="12" pan="0" pos="300"/>
          <note key="68" vol="103" len="12" pan="0" pos="312"/>
          <note key="29" vol="103" len="12" pan="0" pos="312"/>
          <note key="24" vol="103" len="6" pan="0" pos="312"/>
          <note key="48" vol="103" len="12" pan="0" pos="324"/>
          <note key="69" vol="103" len="12" pan="0" pos="336"/>
          <note key="26" vol="103" len="12" pan="0" pos="336"/>
          <note key="70" vol="103" len="12" pan="0" pos="348"/>
          <note key="29" vol="103" len="12" pan="0" pos="348"/>
          <note key="71" vol="103" len="12" pan="0" pos="360"/>
          <note key="26" vol="103" len="12" pan="0" pos="360"/>
          <note key="48" vol="103" len="12" pan="0" pos="372"/>
          <note key="29" vol="103" len="12" pan="0" pos="372"/>
          <note key="24" vol="103" len="6" pan="0" pos="372"/>
          <note key="60" vol="103" len="12" pan="0" pos="384"/>
          <note key="26" vol="103" len="12" pan="0" pos="384"/>
          <note key="18" vol="103" len="192" pan="0" pos="384"/>
          <note key="4" vol="103" len="192" pan="0" pos="384"/>
          <note key="61" vol="103" len="12" pan="0" pos="396"/>
          <note key="62" vol="103" len="12" pan="0" pos="408"/>
          <note key="29" vol="103" len="12" pan="0" pos="408"/>
          <note key="24" vol="103" len="6" pan="0" pos="408"/>
          <note key="36" vol="103" len="12" pan="0" pos="420"/>
          <note key="63" vol="103" len="12" pan="0" pos="432"/>
          <note key="26" vol="103" len="12" pan="0" pos="432"/>
          <note key="64" vol="103" len="12" pan="0" pos="444"/>
          <note key="65" vol="103" len="12" pan="0" pos="456"/>
          <note key="29" vol="103" len="12" pan="0" pos="456"/>
          <note key="43" vol="103" len="12" pan="0" pos="468"/>
          <note key="66" vol="103" len="12" pan="0" pos="480"/>
          <note key="26" vol="103" len="12" pan="0" pos="480"/>
          <note key="67" vol="103" len="12" pan="0" pos="492"/>
          <note key="68" vol="103" len="12" pan="0" pos="504"/>
          <note key="29" vol="103" len="12" pan="0" pos="504"/>
          <note key="24" vol="103" len="6" pan="0" pos="504"/>
          <note key="36" vol="103" len="12" pan="0" pos="516"/>
          <note key="69" vol="103" len="12" pan="0" pos="528"/>
          <note key="26" vol="103" len="12" pan="0" pos="528"/>
          <note key="70" vol="103" len="12" pan="0" pos="540"/>
          <note key="29" vol="103" len="12" pan="0" pos="540"/>
          <note key="71" vol="103" len="12" pan="0" pos="552"/>
          <note key="26" vol="103" len="12" pan="0" pos="552"/>
          <note key="36" vol="103" len="12" pan="0" pos="564"/>
          <note key="29" vol="103" len="12" pan="0" pos="564"/>
          <note key="24" vol="103" len="6" pan="0" pos="564"/>
          <note key="60" vol="103" len="12" pan="0" pos="576"/>
          <note key="26" vol="103" len="12" pan="0" pos="576"/>
          <note key="18" vol="103" len="192" pan="0" pos="576"/>
          <note key="5" vol="103" len="192" pan="0" pos="576"/>
          <note key="61" vol="103" len="12" pan="0" pos="588"/>
          <note key="62" vol="103" len="12" pan="0" pos="600"/>
          <note key="29" vol="103" len="12" pan="0" pos="600"/>
          <note key="24" vol="103" len="6" pan="0" pos="600"/>
          <note key="48" vol="103" len="12" pan="0" pos="612"/>
          <note key="63" vol="103" len="12" pan="0" pos="624"/>
          <note key="26" vol="103" len="12" pan="0" pos="624"/>
          <note key="64" vol="103" len="12" pan="0" pos="636"/>
          <note key="65" vol="103" len="12" pan="0" pos="648"/>
          <note key="29" vol="103" len="12" pan="0" pos="648"/>
          <note key="57" vol="103" len="12" pan="0" pos="660"/>
          <note key="66" vol="103" len="12" pan="0" pos="672"/>
          <note key="26" vol="103" len="12" pan="0" pos="672"/>
          <note key="67" vol="103" len="12" pan="0" pos="684"/>
          <note key="68" vol="103" len="12" pan="0" pos="696"/>
          <note key="29" vol="103" len="12" pan="0" pos="696"/>
          <note key="24" vol="103" len="6" pan="0" pos="696"/>
          <note key="48" vol="103" len="12" pan="0" pos="708"/>
          <note key="69" vol="103" len="12" pan="0" pos="720"/>
          <note key="26" vol="103" len="12" pan="0" pos="720"/>
          <note key="70" vol="103" len="12" pan="0" pos="732"/>
          <note key="29" vol="103" len="12" pan="0" pos="732"/>
          <note key="71" vol="103" len="12" pan="0" pos="744"/>
          <note key="26" vol="103" len="12" pan="0" pos="744"/>
          <note key="48" vol="103" len="12" pan="0" pos="756"/>
          <note key="29" vol="103" len="12" pan="0" pos="756"/>
          <note key="24" vol="103" len="6" pan="0" pos="756"/>
          <note key="60" vol="103" len="12" pan="0" pos="768"/>
          <note key="26" vol="103" len="12" pan="0" pos="768"/>
          <note key="18" vol="103" len="192" pan="0" pos="768"/>
          <note key="7" vol="103" len="192" pan="0" pos="768"/>
          <note key="61" vol="103" len="12" pan="0" pos="780"/>
          <note key="62" vol="103" len="12" pan="0" pos="792"/>
          <note key="29" vol="103" len="12" pan="0" pos="792"/>
          <note key="24" vol="103" len="6" pan="0" pos="792"/>
          <note key="36" vol="103" len="12" pan="0" pos="804"/>
          <note key="63" vol="103" len="12" pan="0" pos="816"/>
          <note key="26" vol="103" len="12" pan="0" pos="816"/>
          <note key="64" vol="103" len="12" pan="0" pos="828"/>
          <note key="65" vol="103" len="12" pan="0" pos="840"/>
          <note key="29" vol="103" len="12" pan="0" pos="840"/>
          <note key="43" vol="103" len="12" pan="0" pos="852"/>
          <note key="66" vol="103" len="12" pan="0" pos="864"/>
          <note key="26" vol="103" len="12" pan="0" pos="864"/>
          <note key="67" vol="103" len="12" pan="0" pos="876"/>
          <note key="68" vol="103" len="12" pan="0" pos="888"/>
          <note key="29" vol="103" len="12" pan="0" pos="888"/>
          <note key="24" vol="103" len="6" pan="0" pos="888"/>
          <note key="36" vol="103" len="12" pan="0" pos="900"/>
          <note key="69" vol="103" len="12" pan="0" pos="912"/>
          <note key="26" vol="103" len="12" pan="0" pos="912"/>
          <note key="70" vol="103" len="12" pan="0" pos="924"/>
          <note key="29" vol="103" len="12" pan="0" pos="924"/>
          <note key="71" vol="103" len="12" pan="0" pos="936"/>
          <note key="26" vol="103" len="12" pan="0" pos="936"/>
          <note key="36" vol="103" len="12" pan="0" pos="948"/>
          <note key="29" vol="103" len="12" pan="0" pos="948"/>
          <note key="24" vol="103" len="6" pan="0" pos="948"/>
          <note key="60" vol="103" len="12" pan="0" pos="960"/>
          <note key="26" vol="103" len="12" pan="0" pos="960"/>
          <note key="18" vol="103" len="192" pan="0" pos="960"/>
          <note key="9" vol="103" len="192" pan="0" pos="960"/>
          <note key="61" vol="103" len="12" pan="0" pos="972"/>
          <note key="62" vol="103" len="12" pan="0" pos="984"/>
          <note key="29" vol="103" len="12" pan="0" pos="984"/>
          <note key="24" vol="103" len="6" pan="0" pos="984"/>
          <note key="48" vol="103" len="12" pan="0" pos="996"/>
          <note key="63" vol="103" len="12" pan="0" pos="1008"/>
          <note key="26" vol="103" len="12" pan="0" pos="1008"/>
          <note key="64" vol="103" len="12" pan="0" pos="1020"/>
          <note key="65" vol="103" len="12" pan="0" pos="1032"/>
          <note key="29" vol="103" len="12" pan="0" pos="1032"/>
          <note key="55" vol="103" len="12" pan="0" pos="1044"/>
          <note key="66" vol="103" len="12" pan="0" pos="1056"/>
          <note key="26" vol="103" len="12" pan="0" pos="1056"/>
          <note key="67" vol="103" len="12" pan="0" pos="1068"/>
          <note key="68" vol="103" len="12" pan="0" pos="1080"/>
          <note key="29" vol="103" len="12" pan="0" pos="1080"/>
          <note key="24" vol="103" len="6" pan="0" pos="1080"/>
          <note key="48" vol="103" len="12" pan="0" pos="1092"/>
          <note key="69" vol="103" len="12" pan="0" pos="1104"/>
          <note key="26" vol="103" len="12" pan="0" pos="1104"/>
          <note key="70" vol="103" len="12" pan="0" pos="1116"/>
          <note key="29" vol="103" len="12" pan="0" pos="1116"/>
          <note key="71" vol="103" len="12" pan="0" pos="1128"/>
          <note key="26" vol="103" len="12" pan="0" pos="1128"/>
          <note key="48" vol="103" len="12" pan="0" pos="1140"/>
          <note key="29" vol="103" len="12" pan="0" pos="1140"/>
          <note key="24" vol="103" len="6" pan="0" pos="1140"/>
          <note key="60" vol="103" len="12" pan="0" pos="1152"/>
          <note key="26" vol="103" len="12" pan="0" pos="1152"/>
          <note key="18" vol="103" len="192" pan="0" pos="1152"/>
          <note key="11" vol="103" len="192" pan="0" pos="1152"/>
          <note key="61" vol="103" len="12" pan="0" pos="1164"/>
          <note key="62" vol="103" len="12" pan="0" pos="1176"/>
          <note key="29" vol="103" len="12" pan="0" pos="1176"/>
          <note key="24" vol="103" len="6" pan="0" pos="1176"/>
          <note key="36" vol="103" len="12" pan="0" pos="1188"/>
          <note key="63" vol="103" len="12" pan="0" pos="1200"/>
          <note key="26" vol="103" len="12" pan="0" pos="1200"/>
          <note key="64" vol="103" len="12" pan="0" pos="1212"/>
          <note key="65" vol="103" len="12" pan="0" pos="1224"/>
          <note key="29" vol="103" len="12" pan="0" pos="1224"/>
          <note key="44" vol="103" len="12" pan="0" pos="1236"/>
          <note key="66" vol="103" len="12" pan="0" pos="1248"/>
          <note key="26" vol="103" len="12" pan="0" pos="1248"/>
          <note key="67" vol="103" len="12" pan="0" pos="1260"/>
          <note key="68" vol="103" len="12" pan="0" pos="1272"/>
          <note key="29" vol="103" len="12" pan="0" pos="1272"/>
          <note key="24" vol="103" len="6" pan="0" pos="1272"/>
          <note key="36" vol="103" len="12" pan="0" pos="1284"/>
          <note key="69" vol="103" len="12" pan="0" pos="1296"/>
          <note key="26" vol="103" len="12" pan="0" pos="1296"/>
          <note key="70" vol="103" len="12" pan="0" pos="1308"/>
          <note key="29" vol="103" len="12" pan="0" pos="1308"/>
          <note key="71" vol="103" len="12" pan="0" pos="1320"/>
          <note key="26" vol="103" len="12" pan="0" pos="1320"/>
          <note key="36" vol="103" len="12" pan="0" pos="1332"/>
          <note key="29" vol="103" len="12" pan="0" pos="1332"/>
          <note key="24" vol="103" len="6" pan="0" pos="1332"/>
          <note key="60" vol="103" len="12" pan="0" pos="1344"/>
          <note key="26" vol="103" len="12" pan="0" pos="1344"/>
          <note key="18" vol="103" len="192" pan="0" pos="1344"/>
          <note key="2" vol="103" len="192" pan="0" pos="1344"/>
          <note key="61" vol="103" len="12" pan="0" pos="1356"/>
          <note key="62" vol="103" len="12" pan="0" pos="1368"/>
          <note key="29" vol="103" len="12" pan="0" pos="1368"/>
          <note key="24" vol="103" len="6" pan="0" pos="1368"/>
          <note key="48" vol="103" len="12" pan="0" pos="1380"/>
          <note key="63" vol="103" len="12" pan="0" pos="1392"/>
          <note key="26" vol="103" len="12" pan="0" pos="1392"/>
          <note key="64" vol="103" len="12" pan="0" pos="1404"/>
          <note key="65" vol="103" len="12" pan="0" pos="1416"/>
          <note key="29" vol="103" len="12" pan="0" pos="1416"/>
          <note key="55" vol="103" len="12" pan="0" pos="1428"/>
          <note key="66" vol="103" len="12" pan="0" pos="1440"/>
          <note key="26" vol="103" len="12" pan="0" pos="1440"/>
          <note key="67" vol="103" len="12" pan="0" pos="1452"/>
          <note key="68" vol="103" len="12" pan="0" pos="1464"/>
          <note key="29" vol="103" len="12" pan="0" pos="1464"/>
          <note key="24" vol="103" len="6" pan="0" pos="1464"/>
          <note key="48" vol="103" len="12" pan="0" pos="1476"/>
          <note key="69" vol="103" len="12" pan="0" pos="1488"/>
          <note key="26" vol="103" len="12" pan="0" pos="1488"/>
          <note key="70" vol="103" len="12" pan="0" pos="1500"/>
          <note key="29" vol="103" len="12" pan="0" pos="1500"/>
          <note key="71" vol="103" len="12" pan="0" pos="1512"/>
          <note key="26" vol="103" len="12" pan="0" pos="1512"/>
          <note key="48" vol="103" len="12" pan="0" pos="1524"/>
          <note key="29" vol="103" len="12" pan="0" pos="1524"/>
          <note key="24" vol="103" len="6" pan="0" pos="1524"/>
        </pattern>
        <pattern type="1" steps="16" muted="0" name="" pos="10752">
          <note key="60" vol="103" len="12" pan="0" pos="0"/>
          <note key="26" vol="103" len="12" pan="0" pos="0"/>
          <note key="17" vol="103" len="192" pan="0" pos="0"/>
          <note key="0" vol="103" len="192" pan="0" pos="0"/>
          <note key="61" vol="103" len="12" pan="0" pos="12"/>
          <note key="62" vol="103" len="12" pan="0" pos="24"/>
          <note key="29" vol="103" len="12" pan="0" pos="24"/>
          <note key="24" vol="103" len="6" pan="0" pos="24"/>
          <note key="36" vol="103" len="12" pan="0" pos="36"/>
          <note key="63" vol="103" len="12" pan="0" pos="48"/>
          <note key="26" vol="103" len="12" pan="0" pos="48"/>
          <note key="64" vol="103" len="12" pan="0" pos="60"/>
          <note key="65" vol="103" len="12" pan="0" pos="72"/>
          <note key="29" vol="103" len="12" pan="0" pos="72"/>
          <note key="43" vol="103" len="12" pan="0" pos="84"/>
          <note key="66" vol="103" len="12" pan="0" pos="96"/>
          <note key="26" vol="103" len="12" pan="0" pos="96"/>
          <note key="67" vol="103" len="12" pan="0" pos="108"/>
          <note key="68" vol="103" len="12" pan="0" pos="120"/>
          <note key="29" vol="103" len="12" pan="0" pos="120"/>
          <note key="24" vol="103" len="6" pan="0" pos="120"/>
          <note key="36" vol="103" len="12" pan="0" pos="132"/>
          <note key="69" vol="103" len="12" pan="0" pos="144"/>
          <note key="26" vol="103" len="12" pan="0" pos="144"/>
          <note key="70" vol="103" len="12" pan="0" pos="156"/>
          <note key="29" vol="103" len="12" pan="0" pos="156"/>
          <note key="71" vol="103" len="12" pan="0" pos="168"/>
          <note key="26" vol="103" len="12" pan="0" pos="168"/>
          <note key="36" vol="103" len="12" pan="0" pos="180"/>
          <note key="29" vol="103" len="12" pan="0" pos="180"/>
          <note key="24" vol="103" len="6" pan="0" pos="180"/>
          <note key="60" vol="103" len="12" pan="0" pos="192"/>
          <note key="26" vol="103" len="12" pan="0" pos="192"/>
          <note key="17" vol="103" len="192" pan="0" pos="192"/>
          <note key="2" vol="103" len="192" pan="0" pos="192"/>
          <note key="61" vol="103" len="12" pan="0" pos="204"/>
          <note key="62" vol="103" len="12" pan="0" pos="216"/>
          <note key="29" vol="103" len="12" pan="0" pos="216"/>
          <note key="24" vol="103" len="6" pan="0" pos="216"/>
          <note key="48" vol="103" len="12" pan="0" pos="228"/>
          <note key="63" vol="103" len="12" pan="0" pos="240"/>
          <note key="26" vol="103" len="12" pan="0" pos="240"/>
          <note key="64" vol="103" len="12" pan="0" pos="252"/>
          <note key="65" vol="103" len="12" pan="0" pos="264"/>
          <note key="29" vol="103" len="12" pan="0" pos="264"/>
          <note key="55" vol="103" len="12" pan="0" pos="276"/>
          <note key="66" vol="103" len="12" pan="0" pos="288"/>
          <note key="26" vol="103" len="12" pan="0" pos="288"/>
          <note key="67" vol="103" len="12" pan="0" pos="300"/>
          <note key="68" vol="103" len="12" pan="0" pos="312"/>
          <note key="29" vol="103" len="12" pan="0" pos="312"/>
          <note key="24" vol="103" len="6" pan="0" pos="312"/>
          <note key="48" vol="103" len="12" pan="0" pos="324"/>
          <note key="69" vol="103" len="12" pan="0" pos="336"/>
          <note key="26" vol="103" len="12" pan="0" pos="336"/>
          <note key="70" vol="103" len="12" pan="0" pos="348"/>
          <note key="29" vol="103" len="12" pan="0" pos="348"/>
          <note key="71" vol="103" len="12" pan="0" pos="360"/>
          <note key="26" vol="103" len="12" pan="0" pos="360"/>
          <note key="48" vol="103" len="12" pan="0" pos="372"/>
          <note key="29" vol="103" len="12" pan="0" pos="372"/>
          <note key="24" vol="103" len="6" pan="0" pos="372"/>
          <note key="60" vol="103" len="12" pan="0" pos="384"/>
          <note key="26" vol="103" len="12" pan="0" pos="384"/>
          <note key="17" vol="103" len="192" pan="0" pos="384"/>
          <note key="4" vol="103" len="192" pan="0" pos="384"/>
          <note key="61" vol="103" len="12" pan="0" pos="396"/>
          <note key="62" vol="103" len="12" pan="0" pos="408"/>
          <note key="29" vol="103" len="12" pan="0" pos="408"/>
          <note key="24" vol="103" len="6" pan="0" pos="408"/>
          <note key="36" vol="103" len="12" pan="0" pos="420"/>
          <note key="63" vol="103" len="12" pan="0" pos="432"/>
          <note key="26" vol="103" len="12" pan="0" pos="432"/>
          <note key="64" vol="103" len="12" pan="0" pos="444"/>
          <note key="65" vol="103" len="12" pan="0" pos="456"/>
          <note key="29" vol="103" len="12" pan="0" pos="456"/>
          <note key="43" vol="103" len="12" pan="0" pos="468"/>
          <note key="66" vol="103" len="12" pan="0" pos="480"/>
          <note key="26" vol="103" len="12" pan="0" pos="480"/>
          <note key="67" vol="103" len="12" pan="0" pos="492"/>
          <note key="68" vol="103" len="12" pan="0" pos="504"/>
          <note key="29" vol="103" len="12" pan="0" pos="504"/>
          <note key="24" vol="103" len="6" pan="0" pos="504"/>
          <note key="36" vol="103" len="12" pan="0" pos="516"/>
          <note key="69" vol="103" len="12" pan="0" pos="528"/>
          <note key="26" vol="103" len="12" pan="0" pos="528"/>
          <note key="70" vol="103" len="12" pan="0" pos="540"/>
          <note key="29" vol="103" len="12" pan="0" pos="540"/>
          <note key="71" vol="103" len="12" pan="0" pos="552"/>
          <note key="26" vol="103" len="12" pan="0" pos="552"/>
          <note key="36" vol="103" len="12" pan="0" pos="564"/>
          <note key="29" vol="103" len="12" pan="0" pos="564"/>
          <note key="24" vol="103" len="6" pan="0" pos="564"/>
          <note key="60" vol="103" len="12" pan="0" pos="576"/>
          <note key="26" vol="103" len="12" pan="0" pos="576"/>
          <note key="17" vol="103" len="192" pan="0" pos="576"/>
          <note key="5" vol="103" len="192" pan="0" pos="576"/>
          <note key="61" vol="103" len="12" pan="0" pos="588"/>
          <note key="62" vol="103" len="12" pan="0" pos="600"/>
          <note key="29" vol="103" len="12" pan="0" pos="600"/>
          <note key="24" vol="103" len="6" pan="0" pos="600"/>
          <note key="48" vol="103" len="12" pan="0" pos="612"/>
          <note key="63" vol="103" len="12" pan="0" pos="624"/>
          <note key="26" vol="103" len="12" pan="0" pos="624"/>
          <note key="64" vol="103" len="12" pan="0" pos="636"/>
          <note key="65" vol="103" len="12" pan="0" pos="648"/>
          <note key="29" vol="103" len="12" pan="0" pos="648"/>
          <note key="57" vol="103" len="12" pan="0" pos="660"/>
          <note key="66" vol="103" len="12" pan="0" pos="672"/>
          <note key="26" vol="103" len="12" pan="0" pos="672"/>
          <note key="67" vol="103" len="12" pan="0" pos="684"/>
          <note key="68" vol="103" len="12" pan="0" pos="696"/>
          <note key="29" vol="103" len="12" pan="0" pos="696"/>
          <note key="24" vol="103" len="6" pan="0" pos="696"/>
          <note key="48" vol="103" len="12" pan="0" pos="708"/>
          <note key="69" vol="103" len="12" pan="0" pos="720"/>
          <note key="26" vol="103" len="12" pan="0" pos="720"/>
          <note key="70" vol="103" len="12" pan="0" pos="732"/>
          <note key="29" vol="103" len="12" pan="0" pos="732"/>
          <note key="71" vol="103" len="12" pan="0" pos="744"/>
          <note key="26" vol="103" len="12" pan="0" pos="744"/>
          <note key="48" vol="103" len="12" pan="0" pos="756"/>
          <note key="29" vol="103" len="12" pan="0" pos="756"/>
          <note key="24" vol="103" len="6" pan="0" pos="756"/>
          <note key="60" vol="103" len="12" pan="0" pos="768"/>
          <note key="26" vol="103" len="12" pan="0" pos="768"/>
          <note key="17" vol="103" len="192" pan="0" pos="768"/>
          <note key="7" vol="103" len="192" pan="0" pos="768"/>
          <note key="61" vol="103" len="12" pan="0" pos="780"/>
          <note key="62" vol="103" len="12" pan="0" pos="792"/>
          <note key="29" vol="103" len="12" pan="0" pos="792"/>
          <note key="24" vol="103" len="6" pan="0" pos="792"/>
          <note key="36" vol="103" len="12" pan="0" pos="804"/>
          <note key="63" vol="103" len="12" pan="0" pos="816"/>
          <note key="26" vol="103" len="12" pan="0" pos="816"/>
          <note key="64" vol="103" len="12" pan="0" pos="828"/>
          <note key="65" vol="103" len="12" pan="0" pos="840"/>
          <note key="29" vol="103" len="12" pan="0" pos="840"/>
          <note key="43" vol="103" len="12" pan="0" pos="852"/>
          <note key="66" vol="103" len="12" pan="0" pos="864"/>
          <note key="26" vol="103" len="12" pan="0" pos="864"/>
          <note key="67" vol="103" len="12" pan="0" pos="876"/>
          <note key="68" vol="103" len="12" pan="0" pos="888"/>
          <note key="29" vol="103" len="12" pan="0" pos="888"/>
          <note key="24" vol="103" len="6" pan="0" pos="888"/>
          <note key="36" vol="103" len="12" pan="0" pos="900"/>
          <note key="69" vol="103" len="12" pan="0" pos="912"/>
          <note key="26" vol="103" len="12" pan="0" pos="912"/>
          <note key="70" vol="103" len="12" pan="0" pos="924"/>
          <note key="29" vol="103" len="12" pan="0" pos="924"/>
          <note key="71" vol="103" len="12" pan="0" pos="936"/>
          <note key="26" vol="103" len="12" pan="0" pos="936"/>
          <note key="36" vol="103" len="12" pan="0" pos="948"/>
          <note key="29" vol="103" len="12" pan="0" pos="948"/>
          <note key="24" vol="103" len="6" pan="0" pos="948"/>
          <note key="60" vol="103" len="12" pan="0" pos="960"/>
          <note key="26" vol="103" len="12" pan="0" pos="960"/>
          <note key="17" vol="103" len="192" pan="0" pos="960"/>
          <note key="9" vol="103" len="192" pan="0" pos="960"/>
          <note key="61" vol="103" len="12" pan="0" pos="972"/>
          <note key="62" vol="103" len="12" pan="0" pos="984"/>
          <note key="29" vol="103" len="12" pan="0" pos="984"/>
          <note key="24" vol="103" len="6" pan="0" pos="984"/>
          <note key="48" vol="103" len="12" pan="0" pos="996"/>
          <note key="63" vol="103" len="12" pan="0" pos="1008"/>
          <note key="26" vol="103" len="12" pan="0" pos="1008"/>
          <note key="64" vol="103" len="12" pan="0" pos="1020"/>
          <note key="65" vol="103" len="12" pan="0" pos="1032"/>
          <note key="29" vol="103" len="12" pan="0" pos="1032"/>
          <note key="55" vol="103" len="12" pan="0" pos="1044"/>
          <note key="66" vol="103" len="12" pan="0" pos="1056"/>
          <note key="26" vol="103" len="12" pan="0" pos="1056"/>
          <note key="67" vol="103" len="12" pan="0" pos="1068"/>
          <note key="68" vol="103" len="12" pan="0" pos="1080"/>
          <note key="29" vol="103" len="12" pan="0" pos="1080"/>
          <note key="24" vol="103" len="6" pan="0" pos="1080"/>
          <note key="48" vol="103" len="12" pan="0" pos="1092"/>
          <note key="69" vol="103" len="12" pan="0" pos="1104"/>
          <note key="26" vol="103" len="12" pan="0" pos="1104"/>
          <note key="70" vol="103" len="12" pan="0" pos="1116"/>
          <note key="29" vol="103" len="12" pan="0" pos="1116"/>
          <note key="71" vol="103" len="12" pan="0" pos="1128"/>
          <note key="26" vol="103" len="12" pan="0" pos="1128"/>
          <note key="48" vol="103" len="12" pan="0" pos="1140"/>
          <note key="29" vol="103" len="12" pan="0" pos="1140"/>
          <note key="24" vol="103" len="6" pan="0" pos="1140"/>
          <note key="60" vol="103" len="12" pan="0" pos="1152"/>
          <note key="26" vol="103" len="12" pan="0" pos="1152"/>
          <note key="17" vol="103" len="192" pan="0" pos="1152"/>
          <note key="11" vol="103" len="192" pan="0" pos="1152"/>
          <note key="61" vol="103" len="12" pan="0" pos="1164"/>
          <note key="62" vol="103" len="12" pan="0" pos="1176"/>
          <note key="29" vol="103" len="12" pan="0" pos="1176"/>
          <note key="24" vol="103" len="6" pan="0" pos="1176"/>
          <note key="36" vol="103" len="12" pan="0" pos="1188"/>
          <note key="63" vol="103" len="12" pan="0" pos="1200"/>
          <note key="26" vol="103" len="12" pan="0" pos="1200"/>
          <note key="64" vol="103" len="12" pan="0" pos="1212"/>
          <note key="65" vol="103" len="12" pan="0" pos="1224"/>
          <note key="29" vol="103" len="12" pan="0" pos="1224"/>
          <note key="44" vol="103" len="12" pan="0" pos="1236"/>
          <note key="66" vol="103" len="12" pan="0" pos="1248"/>
          <note key="26" vol="103" len="12" pan="0" pos="1248"/>
          <note key="67" vol="103" len="12" pan="0" pos="1260"/>
          <note key="68" vol="103" len="12" pan="0" pos="1272"/>
          <note key="29" vol="103" len="12" pan="0" pos="1272"/>
          <note key="24" vol="103" len="6" pan="0" pos="1272"/>
          <note key="36" vol="103" len="12" pan="0" pos="1284"/>
          <note key="69" vol="103" len="12" pan="0" pos="1296"/>
          <note key="26" vol="103" len="12" pan="0" pos="1296"/>
          <note key="70" vol="103" len="12" pan="0" pos="1308"/>
          <note key="29" vol="103" len="12" pan="0" pos="1308"/>
          <note key="71" vol="103" len="12" pan="0" pos="1320"/>
          <note key="26" vol="103" len="12" pan="0" pos="1320"/>
          <note key="36" vol="103" len="12" pan="0" pos="1332"/>
          <note key="29" vol="103" len="12" pan="0" pos="1332"/>
          <note key="24" vol="103" len="6" pan="0" pos="1332"/>
          <note key="60" vol="103" len="12" pan="0" pos="1344"/>
          <note key="26" vol="103" len="12" pan="0" pos="1344"/>
          <note key="17" vol="103" len="192" pan="0" pos="1344"/>
          <note key="2" vol="103" len="192" pan="0" pos="1344"/>
          <note key="61" vol="103" len="12" pan="0" pos="1356"/>
          <note key="62" vol="103" len="12" pan="0" pos="1368"/>
          <note key="29" vol="103" len="12" pan="0" pos="1368"/>
          <note key="24" vol="103" len="6" pan="0" pos="1368"/>
          <note key="48" vol="103" len="12" pan="0" pos="1380"/>
          <note key="63" vol="103" len="12" pan="0" pos="1392"/>
          <note key="26" vol="103" len="12" pan="0" pos="1392"/>
          <note key="64" vol="103" len="12" pan="0" pos="1404"/>
          <note key="65" vol="103" len="12" pan="0" pos="1416"/>
          <note key="29" vol="103" len="12" pan="0" pos="1416"/>
          <note key="55" vol="103" len="12" pan="0" pos="1428"/>
          <note key="66" vol="103" len="12" pan="0" pos="1440"/>
          <note key="26" vol="103" len="12" pan="0" pos="1440"/>
          <note key="67" vol="103" len="12" pan="0" pos="1452"/>
          <note key="68" vol="103" len="12" pan="0" pos="1464"/>
          <note key="29" vol="103" len="12" pan="0" pos="1464"/>
          <note key="24" vol="103" len="6" pan="0" pos="1464"/>
          <note key="48" vol="103" len="12" pan="0" pos="1476"/>
          <note key="69" vol="103" len="12" pan="0" pos="1488"/>
          <note key="26" vol="103" len="12" pan="0" pos="1488"/>
          <note key="70" vol="103" len="12" pan="0" pos="1500"/>
          <note key="29" vol="103" len="12" pan="0" pos="1500"/>
          <note key="71" vol="103" len="12" pan="0" pos="1512"/>
          <note key="26" vol="103" len="12" pan="0" pos="1512"/>
          <note key="48" vol="103" len="12" pan="0" pos="1524"/>
          <note key="29" vol="103" len="12" pan="0" pos="1524"/>
          <note key="24" vol="103" len="6" pan="0" pos="1524"/>
        </pattern>
        <pattern type="1" steps="16" muted="0" name="" pos="12288">
          <note key="60" vol="103" len="12" pan="0" pos="0"/>
          <note key="26" vol="103" len="12" pan="0" pos="0"/>
          <note key="20" vol="98" len="192" pan="0" pos="0"/>
          <note key="0" vol="103" len="192" pan="0" pos="0"/>
          <note key="61" vol="103" len="12" pan="0" pos="12"/>
          <note key="62" vol="103" len="12" pan="0" pos="24"/>
          <note key="29" vol="103" len="12" pan="0" pos="24"/>
          <note key="24" vol="103" len="6" pan="0" pos="24"/>
          <note key="36" vol="103" len="12" pan="0" pos="36"/>
          <note key="63" vol="103" len="12" pan="0" pos="48"/>
          <note key="26" vol="103" len="12" pan="0" pos="48"/>
          <note key="64" vol="103" len="12" pan="0" pos="60"/>
          <note key="65" vol="103" len="12" pan="0" pos="72"/>
          <note key="29" vol="103" len="12" pan="0" pos="72"/>
          <note key="43" vol="103" len="12" pan="0" pos="84"/>
          <note key="66" vol="103" len="12" pan="0" pos="96"/>
          <note key="26" vol="103" len="12" pan="0" pos="96"/>
          <note key="67" vol="103" len="12" pan="0" pos="108"/>
          <note key="68" vol="103" len="12" pan="0" pos="120"/>
          <note key="29" vol="103" len="12" pan="0" pos="120"/>
          <note key="24" vol="103" len="6" pan="0" pos="120"/>
          <note key="36" vol="103" len="12" pan="0" pos="132"/>
          <note key="69" vol="103" len="12" pan="0" pos="144"/>
          <note key="26" vol="103" len="12" pan="0" pos="144"/>
          <note key="70" vol="103" len="12" pan="0" pos="156"/>
          <note key="29" vol="103" len="12" pan="0" pos="156"/>
          <note key="71" vol="103" len="12" pan="0" pos="168"/>
          <note key="26" vol="103" len="12" pan="0" pos="168"/>
          <note key="36" vol="103" len="12" pan="0" pos="180"/>
          <note key="29" vol="103" len="12" pan="0" pos="180"/>
          <note key="24" vol="103" len="6" pan="0" pos="180"/>
          <note key="60" vol="103" len="12" pan="0" pos="192"/>
          <note key="26" vol="103" len="12" pan="0" pos="192"/>
          <note key="20" vol="98" len="192" pan="0" pos="192"/>
          <note key="2" vol="103" len="192" pan="0" pos="192"/>
          <note key="61" vol="103" len="12" pan="0" pos="204"/>
          <note key="62" vol="103" len="12" pan="0" pos="216"/>
          <note key="29" vol="103" len="12" pan="0" pos="216"/>
          <note key="24" vol="103" len="6" pan="0" pos="216"/>
          <note key="48" vol="103" len="12" pan="0" pos="228"/>
          <note key="63" vol="103" len="12" pan="0" pos="240"/>
          <note key="26" vol="103" len="12" pan="0" pos="240"/>
          <note key="64" vol="103" len="12" pan="0" pos="252"/>
          <note key="65" vol="103" len="12" pan="0" pos="264"/>
          <note key="29" vol="103" len="12" pan="0" pos="264"/>
          <note key="55" vol="103" len="12" pan="0" pos="276"/>
          <note key="66" vol="103" len="12" pan="0" pos="288"/>
          <note key="26" vol="103" len="12" pan="0" pos="288"/>
          <note key="67" vol="103" len="12" pan="0" pos="300"/>
          <note key="68" vol="103" len="12" pan="0" pos="312"/>
          <note key="29" vol="103" len="12" pan="0" pos="312"/>
          <note key="24" vol="103" len="6" pan="0" pos="312"/>
          <note key="48" vol="103" len="12" pan="0" pos="324"/>
          <note key="69" vol="103" len="12" pan="0" pos="336"/>
          <note key="26" vol="103" len="12" pan="0" pos="336"/>
          <note key="70" vol="103" len="12" pan="0" pos="348"/>
          <note key="29" vol="103" len="12" pan="0" pos="348"/>
          <note key="71" vol="103" len="12" pan="0" pos="360"/>
          <note key="26" vol="103" len="12" pan="0" pos="360"/>
          <note key="48" vol="103" len="12" pan="0" pos="372"/>
          <note key="29" vol="103" len="12" pan="0" pos="372"/>
          <note key="24" vol="103" len="6" pan="0" pos="372"/>
          <note key="60" vol="103" len="12" pan="0" pos="384"/>
          <note key="26" vol="103" len="12" pan="0" pos="384"/>
          <note key="20" vol="98" len="192" pan="0" pos="384"/>
          <note key="4" vol="103" len="192" pan="0" pos="384"/>
          <note key="61" vol="103" len="12" pan="0" pos="396"/>
          <note key="62" vol="103" len="12" pan="0" pos="408"/>
          <note key="29" vol="103" len="12" pan="0" pos="408"/>
          <note key="24" vol="103" len="6" pan="0" pos="408"/>
          <note key="36" vol="103" len="12" pan="0" pos="420"/>
          <note key="63" vol="103" len="12" pan="0" pos="432"/>
          <note key="26" vol="103" len="12" pan="0" pos="432"/>
          <note key="64" vol="103" len="12" pan="0" pos="444"/>
          <note key="65" vol="103" len="12" pan="0" pos="456"/>
          <note key="29" vol="103" len="12" pan="0" pos="456"/>
          <note key="43" vol="103" len="12" pan="0" pos="468"/>
          <note key="66" vol="103" len="12" pan="0" pos="480"/>
          <note key="26" vol="103" len="12" pan="0" pos="480"/>
          <note key="67" vol="103" len="12" pan="0" pos="492"/>
          <note key="68" vol="103" len="12" pan="0" pos="504"/>
          <note key="29" vol="103" len="12" pan="0" pos="504"/>
          <note key="24" vol="103" len="6" pan="0" pos="504"/>
          <note key="36" vol="103" len="12" pan="0" pos="516"/>
          <note key="69" vol="103" len="12" pan="0" pos="528"/>
          <note key="26" vol="103" len="12" pan="0" pos="528"/>
          <note key="70" vol="103" len="12" pan="0" pos="540"/>
          <note key="29" vol="103" len="12" pan="0" pos="540"/>
          <note key="71" vol="103" len="12" pan="0" pos="552"/>
          <note key="26" vol="103" len="12" pan="0" pos="552"/>
          <note key="36" vol="103" len="12" pan="0" pos="564"/>
          <note key="29" vol="103" len="12" pan="0" pos="564"/>
          <note key="24" vol="103" len="6" pan="0" pos="564"/>
          <note key="60" vol="103" len="12" pan="0" pos="576"/>
          <note key="26" vol="103" len="12" pan="0" pos="576"/>
          <note key="20" vol="98" len="192" pan="0" pos="576"/>
          <note key="5" vol="103" len="192" pan="0" pos="576"/>
          <note key="61" vol="103" len="12" pan="0" pos="588"/>
          <note key="62" vol="103" len="12" pan="0" pos="600"/>
          <note key="29" vol="103" len="12" pan="0" pos="600"/>
          <note key="24" vol="103" len="6" pan="0" pos="600"/>
          <note key="48" vol="103" len="12" pan="0" pos="612"/>
          <note key="63" vol="103" len="12" pan="0" pos="624"/>
          <note key="26" vol="103" len="12" pan="0" pos="624"/>
          <note key="64" vol="103" len="12" pan="0" pos="636"/>
          <note key="65" vol="103" len="12" pan="0" pos="648"/>
          <note key="29" vol="103" len="12" pan="0" pos="648"/>
          <note key="57" vol="103" len="12" pan="0" pos="660"/>
          <note key="66" vol="103" len="12" pan="0" pos="672"/>
          <note key="26" vol="103" len="12" pan="0" pos="672"/>
          <note key="67" vol="103" len="12" pan="0" pos="684"/>
          <note key="68" vol="103" len="12" pan="0" pos="696"/>
          <note key="29" vol="103" len="12" pan="0" pos="696"/>
          <note key="24" vol="103" len="6" pan="0" pos="696"/>
          <note key="48" vol="103" len="12" pan="0" pos="708"/>
          <note key="69" vol="103" len="12" pan="0" pos="720"/>
          <note key="26" vol="103" len="12" pan="0" pos="720"/>
          <note key="70" vol="103" len="12" pan="0" pos="732"/>
          <note key="29" vol="103" len="12" pan="0" pos="732"/>
          <note key="71" vol="103" len="12" pan="0" pos="744"/>
          <note key="26" vol="103" len="12" pan="0" pos="744"/>
          <note key="48" vol="103" len="12" pan="0" pos="756"/>
          <note key="29" vol="103" len="12" pan="0" pos="756"/>
          <note key="24" vol="103" len="6" pan="0" pos="756"/>
          <note key="60" vol="103" len="12" pan="0" pos="768"/>
          <note key="26" vol="103" len="12" pan="0" pos="768"/>
          <note key="20" vol="98" len="192" pan="0" pos="768"/>
          <note key="7" vol="103" len="192" pan="0" pos="768"/>
          <note key="61" vol="103" len="12" pan="0" pos="780"/>
          <note key="62" vol="103" len="12" pan="0" pos="792"/>
          <note key="29" vol="103" len="12" pan="0" pos="792"/>
          <note key="24" vol="103" len="6" pan="0" pos="792"/>
          <note key="36" vol="103" len="12" pan="0" pos="804"/>
          <note key="63" vol="103" len="12" pan="0" pos="816"/>
          <note key="26" vol="103" len="12" pan="0" pos="816"/>
          <note key="64" vol="103" len="12" pan="0" pos="828"/>
          <note key="65" vol="103" len="12" pan="0" pos="840"/>
          <note key="29" vol="103" len="12" pan="0" pos="840"/>
          <note key="43" vol="103" len="12" pan="0" pos="852"/>
          <note key="66" vol="103" len="12" pan="0" pos="864"/>
          <note key="26" vol="103" len="12" pan="0" pos="864"/>
          <note key="67" vol="103" len="12" pan="0" pos="876"/>
          <note key="68" vol="103" len="12" pan="0" pos="888"/>
          <note key="29" vol="103" len="12" pan="0" pos="888"/>
          <note key="24" vol="103" len="6" pan="0" pos="888"/>
          <note key="36" vol="103" len="12" pan="0" pos="900"/>
          <note key="69" vol="103" len="12" pan="0" pos="912"/>
          <note key="26" vol="103" len="12" pan="0" pos="912"/>
          <note key="70" vol="103" len="12" pan="0" pos="924"/>
          <note key="29" vol="103" len="12" pan="0" pos="924"/>
          <note key="71" vol="103" len="12" pan="0" pos="936"/>
          <note key="26" vol="103" len="12" pan="0" pos="936"/>
          <note key="36" vol="103" len="12" pan="0" pos="948"/>
          <note key="29" vol="103" len="12" pan="0" pos="948"/>
          <note key="24" vol="103" len="6" pan="0" pos="948"/>
          <note key="60" vol="102" len="12" pan="0" pos="960"/>
          <note key="26" vol="102" len="12" pan="0" pos="960"/>
          <note key="20" vol="98" len="192" pan="0" pos="960"/>
          <note key="9" vol="102" len="192" pan="0" pos="960"/>
          <note key="61" vol="100" len="12" pan="0" pos="972"/>
          <note key="62" vol="100" len="12" pan="0" pos="984"/>
          <note key="29" vol="100" len="12" pan="0" pos="984"/>
          <note key="24" vol="100" len="6" pan="0" pos="984"/>
          <note key="48" vol="103" len="12" pan="0" pos="996"/>
          <note key="63" vol="103" len="12" pan="0" pos="1008"/>
          <note key="26" vol="103" len="12" pan="0" pos="1008"/>
          <note key="64" vol="103" len="12" pan="0" pos="1020"/>
          <note key="65" vol="103" len="12" pan="0" pos="1032"/>
          <note key="29" vol="103" len="12" pan="0" pos="1032"/>
          <note key="55" vol="103" len="12" pan="0" pos="1044"/>
          <note key="66" vol="103" len="12" pan="0" pos="1056"/>
          <note key="26" vol="103" len="12" pan="0" pos="1056"/>
          <note key="67" vol="103" len="12" pan="0" pos="1068"/>
          <note key="68" vol="103" len="12" pan="0" pos="1080"/>
          <note key="29" vol="103" len="12" pan="0" pos="1080"/>
          <note key="24" vol="103" len="6" pan="0" pos="1080"/>
          <note key="48" vol="103" len="12" pan="0" pos="1092"/>
          <note key="69" vol="103" len="12" pan="0" pos="1104"/>
          <note key="26" vol="103" len="12" pan="0" pos="1104"/>
          <note key="70" vol="103" len="12" pan="0" pos="1116"/>
          <note key="29" vol="103" len="12" pan="0" pos="1116"/>
          <note key="71" vol="103" len="12" pan="0" pos="1128"/>
          <note key="26" vol="103" len="12" pan="0" pos="1128"/>
          <note key="48" vol="103" len="12" pan="0" pos="1140"/>
          <note key="29" vol="103" len="12" pan="0" pos="1140"/>
          <note key="24" vol="103" len="6" pan="0" pos="1140"/>
          <note key="60" vol="103" len="12" pan="0" pos="1152"/>
          <note key="26" vol="103" len="12" pan="0" pos="1152"/>
          <note key="20" vol="98" len="192" pan="0" pos="1152"/>
          <note key="11" vol="103" len="192" pan="0" pos="1152"/>
          <note key="61" vol="103" len="12" pan="0" pos="1164"/>
          <note key="62" vol="103" len="12" pan="0" pos="1176"/>
          <note key="29" vol="103" len="12" pan="0" pos="1176"/>
          <note key="24" vol="103" len="6" pan="0" pos="1176"/>
          <note key="36" vol="103" len="12" pan="0" pos="1188"/>
          <note key="63" vol="103" len="12" pan="0" pos="1200"/>
          <note key="26" vol="103" len="12" pan="0" pos="1200"/>
          <note key="64" vol="103" len="12" pan="0" pos="1212"/>
          <note key="65" vol="103" len="12" pan="0" pos="1224"/>
          <note key="29" vol="103" len="12" pan="0" pos="1224"/>
          <note key="44" vol="103" len="12" pan="0" pos="1236"/>
          <note key="66" vol="103" len="12" pan="0" pos="1248"/>
          <note key="26" vol="103" len="12" pan="0" pos="1248"/>
          <note key="67" vol="103" len="12" pan="0" pos="1260"/>
          <note key="68" vol="103" len="12" pan="0" pos="1272"/>
          <note key="29" vol="103" len="12" pan="0" pos="1272"/>
          <note key="24" vol="103" len="6" pan="0" pos="1272"/>
          <note key="36" vol="103" len="12" pan="0" pos="1284"/>
          <note key="69" vol="103" len="12" pan="0" pos="1296"/>
          <note key="26" vol="103" len="12" pan="0" pos="1296"/>
          <note key="70" vol="103" len="12" pan="0" pos="1308"/>
          <note key="29" vol="103" len="12" pan="0" pos="1308"/>
          <note key="71" vol="103" len="12" pan="0" pos="1320"/>
          <note key="26" vol="103" len="12" pan="0" pos="1320"/>
          <note key="36" vol="103" len="12" pan="0" pos="1332"/>
          <note key="29" vol="103" len="12" pan="0" pos="1332"/>
          <note key="24" vol="103" len="6" pan="0" pos="1332"/>
          <note key="60" vol="103" len="12" pan="0" pos="1344"/>
          <note key="26" vol="103" len="12" pan="0" pos="1344"/>
          <note key="20" vol="98" len="192" pan="0" pos="1344"/>
          <note key="2" vol="103" len="192" pan="0" pos="1344"/>
          <note key="61" vol="103" len="12" pan="0" pos="1356"/>
          <note key="62" vol="103" len="12" pan="0" pos="1368"/>
          <note key="29" vol="103" len="12" pan="0" pos="1368"/>
          <note key="24" vol="103" len="6" pan="0" pos="1368"/>
          <note key="48" vol="103" len="12" pan="0" pos="1380"/>
          <note key="63" vol="103" len="12" pan="0" pos="1392"/>
          <note key="26" vol="103" len="12" pan="0" pos="1392"/>
          <note key="64" vol="103" len="12" pan="0" pos="1404"/>
          <note key="65" vol="103" len="12" pan="0" pos="1416"/>
          <note key="29" vol="103" len="12" pan="0" pos="1416"/>
          <note key="55" vol="103" len="12" pan="0" pos="1428"/>
          <note key="66" vol="103" len="12" pan="0" pos="1440"/>
          <note key="26" vol="103" len="12" pan="0" pos="1440"/>
          <note key="67" vol="103" len="12" pan="0" pos="1452"/>
          <note key="68" vol="103" len="12" pan="0" pos="1464"/>
          <note key="29" vol="103" len="12" pan="0" pos="1464"/>
          <note key="24" vol="103" len="6" pan="0" pos="1464"/>
          <note key="48" vol="103" len="12" pan="0" pos="1476"/>
          <note key="69" vol="103" len="12" pan="0" pos="1488"/>
          <note key="26" vol="103" len="12" pan="0" pos="1488"/>
          <note key="70" vol="103" len="12" pan="0" pos="1500"/>
          <note key="29" vol="103" len="12" pan="0" pos="1500"/>
          <note key="71" vol="103" len="12" pan="0" pos="1512"/>
          <note key="26" vol="103" len="12" pan="0" pos="1512"/>
          <note key="48" vol="103" len="12" pan="0" pos="1524"/>
          <note key="29" vol="103" len="12" pan="0" pos="1524"/>
          <note key="24" vol="103" len="6" pan="0" pos="1524"/>
        </pattern>
        <pattern type="1" steps="16" muted="0" name="" pos="13824">
          <note key="60" vol="103" len="12" pan="0" pos="0"/>
          <note key="26" vol="103" len="12" pan="0" pos="0"/>
          <note key="23" vol="103" len="192" pan="0" pos="0"/>
          <note key="0" vol="103" len="192" pan="0" pos="0"/>
          <note key="61" vol="103" len="12" pan="0" pos="12"/>
          <note key="62" vol="103" len="12" pan="0" pos="24"/>
          <note key="29" vol="103" len="12" pan="0" pos="24"/>
          <note key="24" vol="103" len="6" pan="0" pos="24"/>
          <note key="36" vol="103" len="12" pan="0" pos="36"/>
          <note key="63" vol="103" len="12" pan="0" pos="48"/>
          <note key="26" vol="103" len="12" pan="0" pos="48"/>
          <note key="64" vol="103" len="12" pan="0" pos="60"/>
          <note key="65" vol="103" len="12" pan="0" pos="72"/>
          <note key="29" vol="103" len="12" pan="0" pos="72"/>
          <note key="43" vol="103" len="12" pan="0" pos="84"/>
          <note key="66" vol="103" len="12" pan="0" pos="96"/>
          <note key="26" vol="103" len="12" pan="0" pos="96"/>
          <note key="67" vol="103" len="12" pan="0" pos="108"/>
          <note key="68" vol="103" len="12" pan="0" pos="120"/>
          <note key="29" vol="103" len="12" pan="0" pos="120"/>
          <note key="24" vol="103" len="6" pan="0" pos="120"/>
          <note key="36" vol="103" len="12" pan="0" pos="132"/>
          <note key="69" vol="103" len="12" pan="0" pos="144"/>
          <note key="26" vol="103" len="12" pan="0" pos="144"/>
          <note key="70" vol="103" len="12" pan="0" pos="156"/>
          <note key="29" vol="103" len="12" pan="0" pos="156"/>
          <note key="71" vol="103" len="12" pan="0" pos="168"/>
          <note key="26" vol="103" len="12" pan="0" pos="168"/>
          <note key="36" vol="103" len="12" pan="0" pos="180"/>
          <note key="29" vol="103" len="12" pan="0" pos="180"/>
          <note key="24" vol="103" len="6" pan="0" pos="180"/>
          <note key="60" vol="103" len="12" pan="0" pos="192"/>
          <note key="26" vol="103" len="12" pan="0" pos="192"/>
          <note key="23" vol="103" len="192" pan="0" pos="192"/>
          <note key="2" vol="103" len="192" pan="0" pos="192"/>
          <note key="61" vol="103" len="12" pan="0" pos="204"/>
          <note key="62" vol="103" len="12" pan="0" pos="216"/>
          <note key="29" vol="103" len="12" pan="0" pos="216"/>
          <note key="24" vol="103" len="6" pan="0" pos="216"/>
          <note key="48" vol="103" len="12" pan="0" pos="228"/>
          <note key="63" vol="103" len="12" pan="0" pos="240"/>
          <note key="26" vol="103" len="12" pan="0" pos="240"/>
          <note key="64" vol="103" len="12" pan="0" pos="252"/>
          <note key="65" vol="103" len="12" pan="0" pos="264"/>
          <note key="29" vol="103" len="12" pan="0" pos="264"/>
          <note key="55" vol="103" len="12" pan="0" pos="276"/>
          <note key="66" vol="103" len="12" pan="0" pos="288"/>
          <note key="26" vol="103" len="12" pan="0" pos="288"/>
          <note key="67" vol="103" len="12" pan="0" pos="300"/>
          <note key="68" vol="103" len="12" pan="0" pos="312"/>
          <note key="29" vol="103" len="12" pan="0" pos="312"/>
          <note key="24" vol="103" len="6" pan="0" pos="312"/>
          <note key="48" vol="103" len="12" pan="0" pos="324"/>
          <note key="69" vol="103" len="12" pan="0" pos="336"/>
          <note key="26" vol="103" len="12" pan="0" pos="336"/>
          <note key="70" vol="103" len="12" pan="0" pos="348"/>
          <note key="29" vol="103" len="12" pan="0" pos="348"/>
          <note key="71" vol="103" len="12" pan="0" pos="360"/>
          <note key="26" vol="103" len="12" pan="0" pos="360"/>
          <note key="48" vol="103" len="12" pan="0" pos="372"/>
          <note key="29" vol="103" len="12" pan="0" pos="372"/>
          <note key="24" vol="103" len="6" pan="0" pos="372"/>
          <note key="60" vol="103" len="12" pan="0" pos="384"/>
          <note key="26" vol="103" len="12" pan="0" pos="384"/>
          <note key="23" vol="103" len="192" pan="0" pos="384"/>
          <note key="4" vol="103" len="192" pan="0" pos="384"/>
          <note key="61" vol="103" len="12" pan="0" pos="396"/>
          <note key="62" vol="103" len="12" pan="0" pos="408"/>
          <note key="29" vol="103" len="12" pan="0" pos="408"/>
          <note key="24" vol="103" len="6" pan="0" pos="408"/>
          <note key="36" vol="103" len="12" pan="0" pos="420"/>
          <note key="63" vol="103" len="12" pan="0" pos="432"/>
          <note key="26" vol="103" len="12" pan="0" pos="432"/>
          <note key="64" vol="103" len="12" pan="0" pos="444"/>
          <note key="65" vol="103" len="12" pan="0" pos="456"/>
          <note key="29" vol="103" len="12" pan="0" pos="456"/>
          <note key="43" vol="103" len="12" pan="0" pos="468"/>
          <note key="66" vol="103" len="12" pan="0" pos="480"/>
          <note key="26" vol="103" len="12" pan="0" pos="480"/>
          <note key="67" vol="103" len="12" pan="0" pos="492"/>
          <note key="68" vol="103" len="12" pan="0" pos="504"/>
          <note key="29" vol="103" len="12" pan="0" pos="504"/>
          <note key="24" vol="103" len="6" pan="0" pos="504"/>
          <note key="36" vol="103" len="12" pan="0" pos="516"/>
          <note key="69" vol="103" len="12" pan="0" pos="528"/>
          <note key="26" vol="103" len="12" pan="0" pos="528"/>
          <note key="70" vol="103" len="12" pan="0" pos="540"/>
          <note key="29" vol="103" len="12" pan="0" pos="540"/>
          <note key="71" vol="103" len="12" pan="0" pos="552"/>
          <note key="26" vol="103" len="12" pan="0" pos="552"/>
          <note key="36" vol="103" len="12" pan="0" pos="564"/>
          <note key="29" vol="103" len="12" pan="0" pos="564"/>
          <note key="24" vol="103" len="6" pan="0" pos="564"/>
          <note key="60" vol="103" len="12" pan="0" pos="576"/>
          <note key="26" vol="103" len="12" pan="0" pos="576"/>
          <note key="23" vol="103" len="192" pan="0" pos="576"/>
          <note key="5" vol="103" len="192" pan="0" pos="576"/>
          <note key="61" vol="103" len="12" pan="0" pos="588"/>
          <note key="62" vol="103" len="12" pan="0" pos="600"/>
          <note key="29" vol="103" len="12" pan="0" pos="600"/>
          <note key="24" vol="103" len="6" pan="0" pos="600"/>
          <note key="48" vol="103" len="12" pan="0" pos="612"/>
          <note key="63" vol="103" len="12" pan="0" pos="624"/>
          <note key="26" vol="103" len="12" pan="0" pos="624"/>
          <note key="64" vol="103" len="12" pan="0" pos="636"/>
          <note key="65" vol="103" len="12" pan="0" pos="648"/>
          <note key="29" vol="103" len="12" pan="0" pos="648"/>
          <note key="57" vol="103" len="12" pan="0" pos="660"/>
          <note key="66" vol="103" len="12" pan="0" pos="672"/>
          <note key="26" vol="103" len="12" pan="0" pos="672"/>
          <note key="67" vol="103" len="12" pan="0" pos="684"/>
          <note key="68" vol="103" len="12" pan="0" pos="696"/>
          <note key="29" vol="103" len="12" pan="0" pos="696"/>
          <note key="24" vol="103" len="6" pan="0" pos="696"/>
          <note key="48" vol="103" len="12" pan="0" pos="708"/>
          <note key="69" vol="103" len="12" pan="0" pos="720"/>
          <note key="26" vol="103" len="12" pan="0" pos="720"/>
          <note key="70" vol="103" len="12" pan="0" pos="732"/>
          <note key="29" vol="103" len="12" pan="0" pos="732"/>
          <note key="71" vol="103" len="12" pan="0" pos="744"/>
          <note key="26" vol="103" len="12" pan="0" pos="744"/>
          <note key="48" vol="103" len="12" pan="0" pos="756"/>
          <note key="29" vol="103" len="12" pan="0" pos="756"/>
          <note key="24" vol="103" len="6" pan="0" pos="756"/>
          <note key="60" vol="103" len="12" pan="0" pos="768"/>
          <note key="26" vol="103" len="12" pan="0" pos="768"/>
          <note key="23" vol="103" len="192" pan="0" pos="768"/>
          <note key="7" vol="103" len="192" pan="0" pos="768"/>
          <note key="61" vol="103" len="12" pan="0" pos="780"/>
          <note key="62" vol="103" len="12" pan="0" pos="792"/>
          <note key="29" vol="103" len="12" pan="0" pos="792"/>
          <note key="24" vol="103" len="6" pan="0" pos="792"/>
          <note key="36" vol="103" len="12" pan="0" pos="804"/>
          <note key="63" vol="103" len="12" pan="0" pos="816"/>
          <note key="26" vol="103" len="12" pan="0" pos="816"/>
          <note key="64" vol="103" len="12" pan="0" pos="828"/>
          <note key="65" vol="103" len="12" pan="0" pos="840"/>
          <note key="29" vol="103" len="12" pan="0" pos="840"/>
          <note key="43" vol="103" len="12" pan="0" pos="852"/>
          <note key="66" vol="103" len="12" pan="0" pos="864"/>
          <note key="26" vol="103" len="12" pan="0" pos="864"/>
          <note key="67" vol="103" len="12" pan="0" pos="876"/>
          <note key="68" vol="103" len="12" pan="0" pos="888"/>
          <note key="29" vol="103" len="12" pan="0" pos="888"/>
          <note key="24" vol="103" len="6" pan="0" pos="888"/>
          <note key="36" vol="103" len="12" pan="0" pos="900"/>
          <note key="69" vol="103" len="12" pan="0" pos="912"/>
          <note key="26" vol="103" len="12" pan="0" pos="912"/>
          <note key="70" vol="103" len="12" pan="0" pos="924"/>
          <note key="29" vol="103" len="12" pan="0" pos="924"/>
          <note key="71" vol="103" len="12" pan="0" pos="936"/>
          <note key="26" vol="103" len="12" pan="0" pos="936"/>
          <note key="36" vol="103" len="12" pan="0" pos="948"/>
          <note key="29" vol="103" len="12" pan="0" pos="948"/>
          <note key="24" vol="103" len="6" pan="0" pos="948"/>
          <note key="60" vol="103" len="12" pan="0" pos="960"/>
          <note key="26" vol="103" len="12" pan="0" pos="960"/>
          <note key="23" vol="103" len="192" pan="0" pos="960"/>
          <note key="9" vol="103" len="192" pan="0" pos="960"/>
          <note key="61" vol="103" len="12" pan="0" pos="972"/>
          <note key="62" vol="103" len="12" pan="0" pos="984"/>
          <note key="29" vol="103" len="12" pan="0" pos="984"/>
          <note key="24" vol="103" len="6" pan="0" pos="984"/>
          <note key="48" vol="103" len="12" pan="0" pos="996"/>
          <note key="63" vol="103" len="12" pan="0" pos="1008"/>
          <note key="26" vol="103" len="12" pan="0" pos="1008"/>
          <note key="64" vol="103" len="12" pan="0" pos="1020"/>
          <note key="65" vol="103" len="12" pan="0" pos="1032"/>
          <note key="29" vol="103" len="12" pan="0" pos="1032"/>
          <note key="55" vol="103" len="12" pan="0" pos="1044"/>
          <note key="66" vol="103" len="12" pan="0" pos="1056"/>
          <note key="26" vol="103" len="12" pan="0" pos="1056"/>
          <note key="67" vol="103" len="12" pan="0" pos="1068"/>
          <note key="68" vol="103" len="12" pan="0" pos="1080"/>
          <note key="29" vol="103" len="12" pan="0" pos="1080"/>
          <note key="24" vol="103" len="6" pan="0" pos="1080"/>
          <note key="48" vol="103" len="12" pan="0" pos="1092"/>
          <note key="69" vol="103" len="12" pan="0" pos="1104"/>
          <note key="26" vol="103" len="12" pan="0" pos="1104"/>
          <note key="70" vol="103" len="12" pan="0" pos="1116"/>
          <note key="29" vol="103" len="12" pan="0" pos="1116"/>
          <note key="71" vol="103" len="12" pan="0" pos="1128"/>
          <note key="26" vol="103" len="12" pan="0" pos="1128"/>
          <note key="48" vol="103" len="12" pan="0" pos="1140"/>
          <note key="29" vol="103" len="12" pan="0" pos="1140"/>
          <note key="24" vol="103" len="6" pan="0" pos="1140"/>
          <note key="60" vol="103" len="12" pan="0" pos="1152"/>
          <note key="26" vol="103" len="12" pan="0" pos="1152"/>
          <note key="23" vol="103" len="192" pan="0" pos="1152"/>
          <note key="11" vol="103" len="192" pan="0" pos="1152"/>
          <note key="61" vol="103" len="12" pan="0" pos="1164"/>
          <note key="62" vol="103" len="12" pan="0" pos="1176"/>
          <note key="29" vol="103" len="12" pan="0" pos="1176"/>
          <note key="24" vol="103" len="6" pan="0" pos="1176"/>
          <note key="36" vol="103" len="12" pan="0" pos="1188"/>
          <note key="63" vol="103" len="12" pan="0" pos="1200"/>
          <note key="26" vol="103" len="12" pan="0" pos="1200"/>
          <note key="64" vol="103" len="12" pan="0" pos="1212"/>
          <note key="65" vol="103" len="12" pan="0" pos="1224"/>
          <note key="29" vol="103" len="12" pan="0" pos="1224"/>
          <note key="44" vol="103" len="12" pan="0" pos="1236"/>
          <note key="66" vol="103" len="12" pan="0" pos="1248"/>
          <note key="26" vol="103" len="12" pan="0" pos="1248"/>
          <note key="67" vol="103" len="12" pan="0" pos="1260"/>
          <note key="68" vol="103" len="12" pan="0" pos="1272"/>
          <note key="29" vol="103" len="12" pan="0" pos="1272"/>
          <note key="24" vol="103" len="6" pan="0" pos="1272"/>
          <note key="36" vol="103" len="12" pan="0" pos="1284"/>
          <note key="69" vol="103" len="12" pan="0" pos="1296"/>
          <note key="26" vol="103" len="12" pan="0" pos="1296"/>
          <note key="70" vol="103" len="12" pan="0" pos="1308"/>
          <note key="29" vol="103" len="12" pan="0" pos="1308"/>
          <note key="71" vol="103" len="12" pan="0" pos="1320"/>
          <note key="26" vol="103" len="12" pan="0" pos="1320"/>
          <note key="36" vol="103" len="12" pan="0" pos="1332"/>
          <note key="29" vol="103" len="12" pan="0" pos="1332"/>
          <note key="24" vol="103" len="6" pan="0" pos="1332"/>
          <note key="60" vol="103" len="12" pan="0" pos="1344"/>
          <note key="26" vol="103" len="12" pan="0" pos="1344"/>
          <note key="23" vol="103" len="192" pan="0" pos="1344"/>
          <note key="2" vol="103" len="192" pan="0" pos="1344"/>
          <note key="61" vol="103" len="12" pan="0" pos="1356"/>
          <note key="62" vol="103" len="12" pan="0" pos="1368"/>
          <note key="29" vol="103" len="12" pan="0" pos="1368"/>
          <note key="24" vol="103" len="6" pan="0" pos="1368"/>
          <note key="48" vol="103" len="12" pan="0" pos="1380"/>
          <note key="63" vol="103" len="12" pan="0" pos="1392"/>
          <note key="26" vol="103" len="12" pan="0" pos="1392"/>
          <note key="64" vol="103" len="12" pan="0" pos="1404"/>
          <note key="65" vol="103" len="12" pan="0" pos="1416"/>
          <note key="29" vol="103" len="12" pan="0" pos="1416"/>
          <note key="55" vol="103" len="12" pan="0" pos="1428"/>
          <note key="66" vol="103" len="12" pan="0" pos="1440"/>
          <note key="26" vol="103" len="12" pan="0" pos="1440"/>
          <note key="67" vol="103" len="12" pan="0" pos="1452"/>
          <note key="68" vol="103" len="12" pan="0" pos="1464"/>
          <note key="29" vol="103" len="12" pan="0" pos="1464"/>
          <note key="24" vol="103" len="6" pan="0" pos="1464"/>
          <note key="48" vol="103" len="12" pan="0" pos="1476"/>
          <note key="69" vol="103" len="12" pan="0" pos="1488"/>
          <note key="26" vol="103" len="12" pan="0" pos="1488"/>
          <note key="70" vol="103" len="12" pan="0" pos="1500"/>
          <note key="29" vol="103" len="12" pan="0" pos="1500"/>
          <note key="71" vol="103" len="12" pan="0" pos="1512"/>
          <note key="26" vol="103" len="12" pan="0" pos="1512"/>
          <note key="48" vol="103" len="12" pan="0" pos="1524"/>
          <note key="29" vol="103" len="12" pan="0" pos="1524"/>
          <note key="24" vol="103" len="6" pan="0" pos="1524"/>
        </pattern>
        <pattern type="1" steps="16" muted="0" name="" pos="15360">
          <note key="60" vol="103" len="12" pan="0" pos="0"/>
          <note key="26" vol="103" len="12" pan="0" pos="0"/>
          <note key="22" vol="103" len="192" pan="0" pos="0"/>
          <note key="0" vol="103" len="192" pan="0" pos="0"/>
          <note key="61" vol="103" len="12" pan="0" pos="12"/>
          <note key="62" vol="103" len="12" pan="0" pos="24"/>
          <note key="29" vol="103" len="12" pan="0" pos="24"/>
          <note key="24" vol="103" len="6" pan="0" pos="24"/>
          <note key="36" vol="103" len="12" pan="0" pos="36"/>
          <note key="63" vol="103" len="12" pan="0" pos="48"/>
          <note key="26" vol="103" len="12" pan="0" pos="48"/>
          <note key="64" vol="103" len="12" pan="0" pos="60"/>
          <note key="65" vol="103" len="12" pan="0" pos="72"/>
          <note key="29" vol="103" len="12" pan="0" pos="72"/>
          <note key="43" vol="103" len="12" pan="0" pos="84"/>
          <note key="66" vol="103" len="12" pan="0" pos="96"/>
          <note key="26" vol="103" len="12" pan="0" pos="96"/>
          <note key="67" vol="103" len="12" pan="0" pos="108"/>
          <note key="68" vol="103" len="12" pan="0" pos="120"/>
          <note key="29" vol="103" len="12" pan="0" pos="120"/>
          <note key="24" vol="103" len="6" pan="0" pos="120"/>
          <note key="36" vol="103" len="12" pan="0" pos="132"/>
          <note key="69" vol="103" len="12" pan="0" pos="144"/>
          <note key="26" vol="103" len="12" pan="0" pos="144"/>
          <note key="70" vol="103" len="12" pan="0" pos="156"/>
          <note key="29" vol="103" len="12" pan="0" pos="156"/>
          <note key="71" vol="103" len="12" pan="0" pos="168"/>
          <note key="26" vol="103" len="12" pan="0" pos="168"/>
          <note key="36" vol="103" len="12" pan="0" pos="180"/>
          <note key="29" vol="103" len="12" pan="0" pos="180"/>
          <note key="24" vol="103" len="6" pan="0" pos="180"/>
          <note key="60" vol="103" len="12" pan="0" pos="192"/>
          <note key="26" vol="103" len="12" pan="0" pos="192"/>
          <note key="22" vol="103" len="192" pan="0" pos="192"/>
          <note key="2" vol="103" len="192" pan="0" pos="192"/>
          <note key="61" vol="103" len="12" pan="0" pos="204"/>
          <note key="62" vol="103" len="12" pan="0" pos="216"/>
          <note key="29" vol="103" len="12" pan="0" pos="216"/>
          <note key="24" vol="103" len="6" pan="0" pos="216"/>
          <note key="48" vol="103" len="12" pan="0" pos="228"/>
          <note key="63" vol="103" len="12" pan="0" pos="240"/>
          <note key="26" vol="103" len="12" pan="0" pos="240"/>
          <note key="64" vol="103" len="12" pan="0" pos="252"/>
          <note key="65" vol="103" len="12" pan="0" pos="264"/>
          <note key="29" vol="103" len="12" pan="0" pos="264"/>
          <note key="55" vol="103" len="12" pan="0" pos="276"/>
          <note key="66" vol="103" len="12" pan="0" pos="288"/>
          <note key="26" vol="103" len="12" pan="0" pos="288"/>
          <note key="67" vol="103" len="12" pan="0" pos="300"/>
          <note key="68" vol="103" len="12" pan="0" pos="312"/>
          <note key="29" vol="103" len="12" pan="0" pos="312"/>
          <note key="24" vol="103" len="6" pan="0" pos="312"/>
          <note key="48" vol="103" len="12" pan="0" pos="324"/>
          <note key="69" vol="103" len="12" pan="0" pos="336"/>
          <note key="26" vol="103" len="12" pan="0" pos="336"/>
          <note key="70" vol="103" len="12" pan="0" pos="348"/>
          <note key="29" vol="103" len="12" pan="0" pos="348"/>
          <note key="71" vol="103" len="12" pan="0" pos="360"/>
          <note key="26" vol="103" len="12" pan="0" pos="360"/>
          <note key="48" vol="103" len="12" pan="0" pos="372"/>
          <note key="29" vol="103" len="12" pan="0" pos="372"/>
          <note key="24" vol="103" len="6" pan="0" pos="372"/>
          <note key="60" vol="103" len="12" pan="0" pos="384"/>
          <note key="26" vol="103" len="12" pan="0" pos="384"/>
          <note key="22" vol="103" len="192" pan="0" pos="384"/>
          <note key="4" vol="103" len="192" pan="0" pos="384"/>
          <note key="61" vol="103" len="12" pan="0" pos="396"/>
          <note key="62" vol="103" len="12" pan="0" pos="408"/>
          <note key="29" vol="103" len="12" pan="0" pos="408"/>
          <note key="24" vol="103" len="6" pan="0" pos="408"/>
          <note key="36" vol="103" len="12" pan="0" pos="420"/>
          <note key="63" vol="103" len="12" pan="0" pos="432"/>
          <note key="26" vol="103" len="12" pan="0" pos="432"/>
          <note key="64" vol="103" len="12" pan="0" pos="444"/>
          <note key="65" vol="103" len="12" pan="0" pos="456"/>
          <note key="29" vol="103" len="12" pan="0" pos="456"/>
          <note key="43" vol="103" len="12" pan="0" pos="468"/>
          <note key="66" vol="103" len="12" pan="0" pos="480"/>
          <note key="26" vol="103" len="12" pan="0" pos="480"/>
          <note key="67" vol="103" len="12" pan="0" pos="492"/>
          <note key="68" vol="103" len="12" pan="0" pos="504"/>
          <note key="29" vol="103" len="12" pan="0" pos="504"/>
          <note key="24" vol="103" len="6" pan="0" pos="504"/>
          <note key="36" vol="103" len="12" pan="0" pos="516"/>
          <note key="69" vol="103" len="12" pan="0" pos="528"/>
          <note key="26" vol="103" len="12" pan="0" pos="528"/>
          <note key="70" vol="103" len="12" pan="0" pos="540"/>
          <note key="29" vol="103" len="12" pan="0" pos="540"/>
          <note key="71" vol="103" len="12" pan="0" pos="552"/>
          <note key="26" vol="103" len="12" pan="0" pos="552"/>
          <note key="36" vol="103" len="12" pan="0" pos="564"/>
          <note key="29" vol="103" len="12" pan="0" pos="564"/>
          <note key="24" vol="103" len="6" pan="0" pos="564"/>
          <note key="60" vol="103" len="12" pan="0" pos="576"/>
          <note key="26" vol="103" len="12" pan="0" pos="576"/>
          <note key="22" vol="103" len="192" pan="0" pos="576"/>
          <note key="5" vol="103" len="192" pan="0" pos="576"/>
          <note key="61" vol="103" len="12" pan="0" pos="588"/>
          <note key="62" vol="103" len="12" pan="0" pos="600"/>
          <note key="29" vol="103" len="12" pan="0" pos="600"/>
          <note key="24" vol="103" len="6" pan="0" pos="600"/>
          <note key="48" vol="103" len="12" pan="0" pos="612"/>
          <note key="63" vol="103" len="12" pan="0" pos="624"/>
          <note key="26" vol="103" len="12" pan="0" pos="624"/>
          <note key="64" vol="103" len="12" pan="0" pos="636"/>
          <note key="65" vol="103" len="12" pan="0" pos="648"/>
          <note key="29" vol="103" len="12" pan="0" pos="648"/>
          <note key="57" vol="103" len="12" pan="0" pos="660"/>
          <note key="66" vol="103" len="12" pan="0" pos="672"/>
          <note key="26" vol="103" len="12" pan="0" pos="672"/>
          <note key="67" vol="103" len="12" pan="0" pos="684"/>
          <note key="68" vol="103" len="12" pan="0" pos="696"/>
          <note key="29" vol="103" len="12" pan="0" pos="696"/>
          <note key="24" vol="103" len="6" pan="0" pos="696"/>
          <note key="48" vol="103" len="12" pan="0" pos="708"/>
          <note key="69" vol="103" len="12" pan="0" pos="720"/>
          <note key="26" vol="103" len="12" pan="0" pos="720"/>
          <note key="70" vol="103" len="12" pan="0" pos="732"/>
          <note key="29" vol="103" len="12" pan="0" pos="732"/>
          <note key="71" vol="103" len="12" pan="0" pos="744"/>
          <note key="26" vol="103" len="12" pan="0" pos="744"/>
          <note key="48" vol="103" len="12" pan="0" pos="756"/>
          <note key="29" vol="103" len="12" pan="0" pos="756"/>
          <note key="24" vol="103" len="6" pan="0" pos="756"/>
          <note key="60" vol="103" len="12" pan="0" pos="768"/>
          <note key="26" vol="103" len="12" pan="0" pos="768"/>
          <note key="22" vol="103" len="192" pan="0" pos="768"/>
          <note key="7" vol="103" len="192" pan="0" pos="768"/>
          <note key="61" vol="103" len="12" pan="0" pos="780"/>
          <note key="62" vol="103" len="12" pan="0" pos="792"/>
          <note key="29" vol="103" len="12" pan="0" pos="792"/>
          <note key="24" vol="103" len="6" pan="0" pos="792"/>
          <note key="36" vol="103" len="12" pan="0" pos="804"/>
          <note key="63" vol="103" len="12" pan="0" pos="816"/>
          <note key="26" vol="103" len="12" pan="0" pos="816"/>
          <note key="64" vol="103" len="12" pan="0" pos="828"/>
          <note key="65" vol="103" len="12" pan="0" pos="840"/>
          <note key="29" vol="103" len="12" pan="0" pos="840"/>
          <note key="43" vol="103" len="12" pan="0" pos="852"/>
          <note key="66" vol="103" len="12" pan="0" pos="864"/>
          <note key="26" vol="103" len="12" pan="0" pos="864"/>
          <note key="67" vol="103" len="12" pan="0" pos="876"/>
          <note key="68" vol="103" len="12" pan="0" pos="888"/>
          <note key="29" vol="103" len="12" pan="0" pos="888"/>
          <note key="24" vol="103" len="6" pan="0" pos="888"/>
          <note key="36" vol="103" len="12" pan="0" pos="900"/>
          <note key="69" vol="103" len="12" pan="0" pos="912"/>
          <note key="26" vol="103" len="12" pan="0" pos="912"/>
          <note key="70" vol="103" len="12" pan="0" pos="924"/>
          <note key="29" vol="103" len="12" pan="0" pos="924"/>
          <note key="71" vol="103" len="12" pan="0" pos="936"/>
          <note key="26" vol="103" len="12" pan="0" pos="936"/>
          <note key="36" vol="103" len="12" pan="0" pos="948"/>
          <note key="29" vol="103" len="12" pan="0" pos="948"/>
          <note key="24" vol="103" len="6" pan="0" pos="948"/>
          <note key="60" vol="103" len="12" pan="0" pos="960"/>
          <note key="26" vol="103" len="12" pan="0" pos="960"/>
          <note key="22" vol="103" len="192" pan="0" pos="960"/>
          <note key="9" vol="103" len="192" pan="0" pos="960"/>
          <note key="61" vol="103" len="12" pan="0" pos="972"/>
          <note key="62" vol="103" len="12" pan="0" pos="984"/>
          <note key="29" vol="103" len="12" pan="0" pos="984"/>
          <note key="24" vol="103" len="6" pan="0" pos="984"/>
          <note key="48" vol="103" len="12" pan="0" pos="996"/>
          <note key="63" vol="103" len="12" pan="0" pos="1008"/>
          <note key="26" vol="103" len="12" pan="0" pos="1008"/>
          <note key="64" vol="103" len="12" pan="0" pos="1020"/>
          <note key="65" vol="103" len="12" pan="0" pos="1032"/>
          <note key="29" vol="103" len="12" pan="0" pos="1032"/>
          <note key="55" vol="103" len="12" pan="0" pos="1044"/>
          <note key="66" vol="103" len="12" pan="0" pos="1056"/>
          <note key="26" vol="103" len="12" pan="0" pos="1056"/>
          <note key="67" vol="103" len="12" pan="0" pos="1068"/>
          <note key="68" vol="103" len="12" pan="0" pos="1080"/>
          <note key="29" vol="103" len="12" pan="0" pos="1080"/>
          <note key="24" vol="103" len="6" pan="0" pos="1080"/>
          <note key="48" vol="103" len="12" pan="0" pos="1092"/>
          <note key="69" vol="103" len="12" pan="0" pos="1104"/>
          <note key="26" vol="103" len="12" pan="0" pos="1104"/>
          <note key="70" vol="103" len="12" pan="0" pos="1116"/>
          <note key="29" vol="103" len="12" pan="0" pos="1116"/>
          <note key="71" vol="103" len="12" pan="0" pos="1128"/>
          <note key="26" vol="103" len="12" pan="0" pos="1128"/>
          <note key="48" vol="103" len="12" pan="0" pos="1140"/>
          <note key="29" vol="103" len="12" pan="0" pos="1140"/>
          <note key="24" vol="103" len="6" pan="0" pos="1140"/>
          <note key="60" vol="103" len="12" pan="0" pos="1152"/>
          <note key="26" vol="103" len="12" pan="0" pos="1152"/>
          <note key="22" vol="103" len="192" pan="0" pos="1152"/>
          <note key="11" vol="103" len="192" pan="0" pos="1152"/>
          <note key="61" vol="103" len="12" pan="0" pos="1164"/>
          <note key="62" vol="103" len="12" pan="0" pos="1176"/>
          <note key="29" vol="103" len="12" pan="0" pos="1176"/>
          <note key="24" vol="103" len="6" pan="0" pos="1176"/>
          <note key="36" vol="103" len="12" pan="0" pos="1188"/>
          <note key="63" vol="103" len="12" pan="0" pos="1200"/>
          <note key="26" vol="103" len="12" pan="0" pos="1200"/>
          <note key="64" vol="103" len="12" pan="0" pos="1212"/>
          <note key="65" vol="103" len="12" pan="0" pos="1224"/>
          <note key="29" vol="103" len="12" pan="0" pos="1224"/>
          <note key="44" vol="103" len="12" pan="0" pos="1236"/>
          <note key="66" vol="103" len="12" pan="0" pos="1248"/>
          <note key="26" vol="103" len="12" pan="0" pos="1248"/>
          <note key="67" vol="103" len="12" pan="0" pos="1260"/>
          <note key="68" vol="103" len="12" pan="0" pos="1272"/>
          <note key="29" vol="103" len="12" pan="0" pos="1272"/>
          <note key="24" vol="103" len="6" pan="0" pos="1272"/>
          <note key="36" vol="103" len="12" pan="0" pos="1284"/>
          <note key="69" vol="103" len="12" pan="0" pos="1296"/>
          <note key="26" vol="103" len="12" pan="0" pos="1296"/>
          <note key="70" vol="103" len="12" pan="0" pos="1308"/>
          <note key="29" vol="103" len="12" pan="0" pos="1308"/>
          <note key="71" vol="103" len="12" pan="0" pos="1320"/>
          <note key="26" vol="103" len="12" pan="0" pos="1320"/>
          <note key="36" vol="103" len="12" pan="0" pos="1332"/>
          <note key="29" vol="103" len="12" pan="0" pos="1332"/>
          <note key="24" vol="103" len="6" pan="0" pos="1332"/>
          <note key="60" vol="103" len="12" pan="0" pos="1344"/>
          <note key="26" vol="103" len="12" pan="0" pos="1344"/>
          <note key="22" vol="103" len="192" pan="0" pos="1344"/>
          <note key="2" vol="103" len="192" pan="0" pos="1344"/>
          <note key="61" vol="103" len="12" pan="0" pos="1356"/>
          <note key="62" vol="103" len="12" pan="0" pos="1368"/>
          <note key="29" vol="103" len="12" pan="0" pos="1368"/>
          <note key="24" vol="103" len="6" pan="0" pos="1368"/>
          <note key="48" vol="103" len="12" pan="0" pos="1380"/>
          <note key="63" vol="103" len="12" pan="0" pos="1392"/>
          <note key="26" vol="103" len="12" pan="0" pos="1392"/>
          <note key="64" vol="103" len="12" pan="0" pos="1404"/>
          <note key="65" vol="103" len="12" pan="0" pos="1416"/>
          <note key="29" vol="103" len="12" pan="0" pos="1416"/>
          <note key="55" vol="103" len="12" pan="0" pos="1428"/>
          <note key="66" vol="103" len="12" pan="0" pos="1440"/>
          <note key="26" vol="103" len="12" pan="0" pos="1440"/>
          <note key="67" vol="103" len="12" pan="0" pos="1452"/>
          <note key="68" vol="103" len="12" pan="0" pos="1464"/>
          <note key="29" vol="103" len="12" pan="0" pos="1464"/>
          <note key="24" vol="103" len="6" pan="0" pos="1464"/>
          <note key="48" vol="103" len="12" pan="0" pos="1476"/>
          <note key="69" vol="103" len="12" pan="0" pos="1488"/>
          <note key="26" vol="103" len="12" pan="0" pos="1488"/>
          <note key="70" vol="103" len="12" pan="0" pos="1500"/>
          <note key="29" vol="103" len="12" pan="0" pos="1500"/>
          <note key="71" vol="103" len="12" pan="0" pos="1512"/>
          <note key="26" vol="103" len="12" pan="0" pos="1512"/>
          <note key="48" vol="103" len="12" pan="0" pos="1524"/>
          <note key="29" vol="103" len="12" pan="0" pos="1524"/>
          <note key="24" vol="103" len="6" pan="0" pos="1524"/>
        </pattern>
        <pattern type="1" steps="16" muted="0" name="" pos="16896">
          <note key="60" vol="103" len="12" pan="0" pos="0"/>
          <note key="26" vol="103" len="12" pan="0" pos="0"/>
          <note key="21" vol="103" len="192" pan="0" pos="0"/>
          <note key="0" vol="103" len="192" pan="0" pos="0"/>
          <note key="61" vol="103" len="12" pan="0" pos="12"/>
          <note key="62" vol="103" len="12" pan="0" pos="24"/>
          <note key="29" vol="103" len="12" pan="0" pos="24"/>
          <note key="24" vol="103" len="6" pan="0" pos="24"/>
          <note key="36" vol="103" len="12" pan="0" pos="36"/>
          <note key="63" vol="103" len="12" pan="0" pos="48"/>
          <note key="26" vol="103" len="12" pan="0" pos="48"/>
          <note key="64" vol="103" len="12" pan="0" pos="60"/>
          <note key="65" vol="103" len="12" pan="0" pos="72"/>
          <note key="29" vol="103" len="12" pan="0" pos="72"/>
          <note key="43" vol="103" len="12" pan="0" pos="84"/>
          <note key="66" vol="103" len="12" pan="0" pos="96"/>
          <note key="26" vol="103" len="12" pan="0" pos="96"/>
          <note key="67" vol="103" len="12" pan="0" pos="108"/>
          <note key="68" vol="103" len="12" pan="0" pos="120"/>
          <note key="29" vol="103" len="12" pan="0" pos="120"/>
          <note key="24" vol="103" len="6" pan="0" pos="120"/>
          <note key="36" vol="103" len="12" pan="0" pos="132"/>
          <note key="69" vol="103" len="12" pan="0" pos="144"/>
          <note key="26" vol="103" len="12" pan="0" pos="144"/>
          <note key="70" vol="103" len="12" pan="0" pos="156"/>
          <note key="29" vol="103" len="12" pan="0" pos="156"/>
          <note key="71" vol="103" len="12" pan="0" pos="168"/>
          <note key="26" vol="103" len="12" pan="0" pos="168"/>
          <note key="36" vol="103" len="12" pan="0" pos="180"/>
          <note key="29" vol="103" len="12" pan="0" pos="180"/>
          <note key="24" vol="103" len="6" pan="0" pos="180"/>
          <note key="60" vol="103" len="12" pan="0" pos="192"/>
          <note key="26" vol="103" len="12" pan="0" pos="192"/>
          <note key="21" vol="103" len="192" pan="0" pos="192"/>
          <note key="2" vol="103" len="192" pan="0" pos="192"/>
          <note key="61" vol="103" len="12" pan="0" pos="204"/>
          <note key="62" vol="103" len="12" pan="0" pos="216"/>
          <note key="29" vol="103" len="12" pan="0" pos="216"/>
          <note key="24" vol="103" len="6" pan="0" pos="216"/>
          <note key="48" vol="103" len="12" pan="0" pos="228"/>
          <note key="63" vol="103" len="12" pan="0" pos="240"/>
          <note key="26" vol="103" len="12" pan="0" pos="240"/>
          <note key="64" vol="103" len="12" pan="0" pos="252"/>
          <note key="65" vol="103" len="12" pan="0" pos="264"/>
          <note key="29" vol="103" len="12" pan="0" pos="264"/>
          <note key="55" vol="103" len="12" pan="0" pos="276"/>
          <note key="66" vol="103" len="12" pan="0" pos="288"/>
          <note key="26" vol="103" len="12" pan="0" pos="288"/>
          <note key="67" vol="103" len="12" pan="0" pos="300"/>
          <note key="68" vol="103" len="12" pan="0" pos="312"/>
          <note key="29" vol="103" len="12" pan="0" pos="312"/>
          <note key="24" vol="103" len="6" pan="0" pos="312"/>
          <note key="48" vol="103" len="12" pan="0" pos="324"/>
          <note key="69" vol="103" len="12" pan="0" pos="336"/>
          <note key="26" vol="103" len="12" pan="0" pos="336"/>
          <note key="70" vol="103" len="12" pan="0" pos="348"/>
          <note key="29" vol="103" len="12" pan="0" pos="348"/>
          <note key="71" vol="103" len="12" pan="0" pos="360"/>
          <note key="26" vol="103" len="12" pan="0" pos="360"/>
          <note key="48" vol="103" len="12" pan="0" pos="372"/>
          <note key="29" vol="103" len="12" pan="0" pos="372"/>
          <note key="24" vol="103" len="6" pan="0" pos="372"/>
          <note key="60" vol="103" len="12" pan="0" pos="384"/>
          <note key="26" vol="103" len="12" pan="0" pos="384"/>
          <note key="21" vol="103" len="192" pan="0" pos="384"/>
          <note key="4" vol="103" len="192" pan="0" pos="384"/>
          <note key="61" vol="103" len="12" pan="0" pos="396"/>
          <note key="62" vol="103" len="12" pan="0" pos="408"/>
          <note key="29" vol="103" len="12" pan="0" pos="408"/>
          <note key="24" vol="103" len="6" pan="0" pos="408"/>
          <note key="36" vol="103" len="12" pan="0" pos="420"/>
          <note key="63" vol="103" len="12" pan="0" pos="432"/>
          <note key="26" vol="103" len="12" pan="0" pos="432"/>
          <note key="64" vol="103" len="12" pan="0" pos="444"/>
          <note key="65" vol="103" len="12" pan="0" pos="456"/>
          <note key="29" vol="103" len="12" pan="0" pos="456"/>
          <note key="43" vol="103" len="12" pan="0" pos="468"/>
          <note key="66" vol="103" len="12" pan="0" pos="480"/>
          <note key="26" vol="103" len="12" pan="0" pos="480"/>
          <note key="67" vol="103" len="12" pan="0" pos="492"/>
          <note key="68" vol="103" len="12" pan="0" pos="504"/>
          <note key="29" vol="103" len="12" pan="0" pos="504"/>
          <note key="24" vol="103" len="6" pan="0" pos="504"/>
          <note key="36" vol="103" len="12" pan="0" pos="516"/>
          <note key="69" vol="103" len="12" pan="0" pos="528"/>
          <note key="26" vol="103" len="12" pan="0" pos="528"/>
          <note key="70" vol="103" len="12" pan="0" pos="540"/>
          <note key="29" vol="103" len="12" pan="0" pos="540"/>
          <note key="71" vol="103" len="12" pan="0" pos="552"/>
          <note key="26" vol="103" len="12" pan="0" pos="552"/>
          <note key="36" vol="103" len="12" pan="0" pos="564"/>
          <note key="29" vol="103" len="12" pan="0" pos="564"/>
          <note key="24" vol="103" len="6" pan="0" pos="564"/>
          <note key="60" vol="103" len="12" pan="0" pos="576"/>
          <note key="26" vol="103" len="12" pan="0" pos="576"/>
          <note key="21" vol="103" len="192" pan="0" pos="576"/>
          <note key="5" vol="103" len="192" pan="0" pos="576"/>
          <note key="61" vol="103" len="12" pan="0" pos="588"/>
          <note key="62" vol="103" len="12" pan="0" pos="600"/>
          <note key="29" vol="103" len="12" pan="0" pos="600"/>
          <note key="24" vol="103" len="6" pan="0" pos="600"/>
          <note key="48" vol="103" len="12" pan="0" pos="612"/>
          <note key="63" vol="103" len="12" pan="0" pos="624"/>
          <note key="26" vol="103" len="12" pan="0" pos="624"/>
          <note key="64" vol="103" len="12" pan="0" pos="636"/>
          <note key="65" vol="103" len="12" pan="0" pos="648"/>
          <note key="29" vol="103" len="12" pan="0" pos="648"/>
          <note key="57" vol="103" len="12" pan="0" pos="660"/>
          <note key="66" vol="103" len="12" pan="0" pos="672"/>
          <note key="26" vol="103" len="12" pan="0" pos="672"/>
          <note key="67" vol="103" len="12" pan="0" pos="684"/>
          <note key="68" vol="103" len="12" pan="0" pos="696"/>
          <note key="29" vol="103" len="12" pan="0" pos="696"/>
          <note key="24" vol="103" len="6" pan="0" pos="696"/>
          <note key="48" vol="103" len="12" pan="0" pos="708"/>
          <note key="69" vol="103" len="12" pan="0" pos="720"/>
          <note key="26" vol="103" len="12" pan="0" pos="720"/>
          <note key="70" vol="103" len="12" pan="0" pos="732"/>
          <note key="29" vol="103" len="12" pan="0" pos="732"/>
          <note key="71" vol="103" len="12" pan="0" pos="744"/>
          <note key="26" vol="103" len="12" pan="0" pos="744"/>
          <note key="48" vol="103" len="12" pan="0" pos="756"/>
          <note key="29" vol="103" len="12" pan="0" pos="756"/>
          <note key="24" vol="103" len="6" pan="0" pos="756"/>
          <note key="60" vol="103" len="12" pan="0" pos="768"/>
          <note key="26" vol="103" len="12" pan="0" pos="768"/>
          <note key="21" vol="103" len="192" pan="0" pos="768"/>
          <note key="7" vol="103" len="192" pan="0" pos="768"/>
          <note key="61" vol="103" len="12" pan="0" pos="780"/>
          <note key="62" vol="103" len="12" pan="0" pos="792"/>
          <note key="29" vol="103" len="12" pan="0" pos="792"/>
          <note key="24" vol="103" len="6" pan="0" pos="792"/>
          <note key="36" vol="103" len="12" pan="0" pos="804"/>
          <note key="63" vol="103" len="12" pan="0" pos="816"/>
          <note key="26" vol="103" len="12" pan="0" pos="816"/>
          <note key="64" vol="103" len="12" pan="0" pos="828"/>
          <note key="65" vol="103" len="12" pan="0" pos="840"/>
          <note key="29" vol="103" len="12" pan="0" pos="840"/>
          <note key="43" vol="103" len="12" pan="0" pos="852"/>
          <note key="66" vol="103" len="12" pan="0" pos="864"/>
          <note key="26" vol="103" len="12" pan="0" pos="864"/>
          <note key="67" vol="103" len="12" pan="0" pos="876"/>
          <note key="68" vol="103" len="12" pan="0" pos="888"/>
          <note key="29" vol="103" len="12" pan="0" pos="888"/>
          <note key="24" vol="103" len="6" pan="0" pos="888"/>
          <note key="36" vol="103" len="12" pan="0" pos="900"/>
          <note key="69" vol="103" len="12" pan="0" pos="912"/>
          <note key="26" vol="103" len="12" pan="0" pos="912"/>
          <note key="70" vol="103" len="12" pan="0" pos="924"/>
          <note key="29" vol="103" len="12" pan="0" pos="924"/>
          <note key="71" vol="103" len="12" pan="0" pos="936"/>
          <note key="26" vol="103" len="12" pan="0" pos="936"/>
          <note key="36" vol="103" len="12" pan="0" pos="948"/>
          <note key="29" vol="103" len="12" pan="0" pos="948"/>
          <note key="24" vol="103" len="6" pan="0" pos="948"/>
          <note key="60" vol="103" len="12" pan="0" pos="960"/>
          <note key="26" vol="103" len="12" pan="0" pos="960"/>
          <note key="21" vol="103" len="192" pan="0" pos="960"/>
          <note key="9" vol="103" len="192" pan="0" pos="960"/>
          <note key="61" vol="103" len="12" pan="0" pos="972"/>
          <note key="62" vol="103" len="12" pan="0" pos="984"/>
          <note key="29" vol="103" len="12" pan="0" pos="984"/>
          <note key="24" vol="103" len="6" pan="0" pos="984"/>
          <note key="48" vol="103" len="12" pan="0" pos="996"/>
          <note key="63" vol="103" len="12" pan="0" pos="1008"/>
          <note key="26" vol="103" len="12" pan="0" pos="1008"/>
          <note key="64" vol="103" len="12" pan="0" pos="1020"/>
          <note key="65" vol="103" len="12" pan="0" pos="1032"/>
          <note key="29" vol="103" len="12" pan="0" pos="1032"/>
          <note key="55" vol="103" len="12" pan="0" pos="1044"/>
          <note key="66" vol="103" len="12" pan="0" pos="1056"/>
          <note key="26" vol="103" len="12" pan="0" pos="1056"/>
          <note key="67" vol="103" len="12" pan="0" pos="1068"/>
          <note key="68" vol="103" len="12" pan="0" pos="1080"/>
          <note key="29" vol="103" len="12" pan="0" pos="1080"/>
          <note key="24" vol="103" len="6" pan="0" pos="1080"/>
          <note key="48" vol="103" len="12" pan="0" pos="1092"/>
          <note key="69" vol="103" len="12" pan="0" pos="1104"/>
          <note key="26" vol="103" len="12" pan="0" pos="1104"/>
          <note key="70" vol="103" len="12" pan="0" pos="1116"/>
          <note key="29" vol="103" len="12" pan="0" pos="1116"/>
          <note key="71" vol="103" len="12" pan="0" pos="1128"/>
          <note key="26" vol="103" len="12" pan="0" pos="1128"/>
          <note key="48" vol="103" len="12" pan="0" pos="1140"/>
          <note key="29" vol="103" len="12" pan="0" pos="1140"/>
          <note key="24" vol="103" len="6" pan="0" pos="1140"/>
          <note key="60" vol="103" len="12" pan="0" pos="1152"/>
          <note key="26" vol="103" len="12" pan="0" pos="1152"/>
          <note key="21" vol="103" len="192" pan="0" pos="1152"/>
          <note key="11" vol="103" len="192" pan="0" pos="1152"/>
          <note key="61" vol="103" len="12" pan="0" pos="1164"/>
          <note key="62" vol="103" len="12" pan="0" pos="1176"/>
          <note key="29" vol="103" len="12" pan="0" pos="1176"/>
          <note key="24" vol="103" len="6" pan="0" pos="1176"/>
          <note key="36" vol="103" len="12" pan="0" pos="1188"/>
          <note key="63" vol="103" len="12" pan="0" pos="1200"/>
          <note key="26" vol="103" len="12" pan="0" pos="1200"/>
          <note key="64" vol="103" len="12" pan="0" pos="1212"/>
          <note key="65" vol="103" len="12" pan="0" pos="1224"/>
          <note key="29" vol="103" len="12" pan="0" pos="1224"/>
          <note key="44" vol="103" len="12" pan="0" pos="1236"/>
          <note key="66" vol="103" len="12" pan="0" pos="1248"/>
          <note key="26" vol="103" len="12" pan="0" pos="1248"/>
          <note key="67" vol="103" len="12" pan="0" pos="1260"/>
          <note key="68" vol="103" len="12" pan="0" pos="1272"/>
          <note key="29" vol="103" len="12" pan="0" pos="1272"/>
          <note key="24" vol="103" len="6" pan="0" pos="1272"/>
          <note key="36" vol="103" len="12" pan="0" pos="1284"/>
          <note key="69" vol="103" len="12" pan="0" pos="1296"/>
          <note key="26" vol="103" len="12" pan="0" pos="1296"/>
          <note key="70" vol="103" len="12" pan="0" pos="1308"/>
          <note key="29" vol="103" len="12" pan="0" pos="1308"/>
          <note key="71" vol="103" len="12" pan="0" pos="1320"/>
          <note key="26" vol="103" len="12" pan="0" pos="1320"/>
          <note key="36" vol="103" len="12" pan="0" pos="1332"/>
          <note key="29" vol="103" len="12" pan="0" pos="1332"/>
          <note key="24" vol="103" len="6" pan="0" pos="1332"/>
          <note key="60" vol="103" len="12" pan="0" pos="1344"/>
          <note key="26" vol="103" len="12" pan="0" pos="1344"/>
          <note key="21" vol="103" len="192" pan="0" pos="1344"/>
          <note key="2" vol="103" len="192" pan="0" pos="1344"/>
          <note key="61" vol="103" len="12" pan="0" pos="1356"/>
          <note key="62" vol="103" len="12" pan="0" pos="1368"/>
          <note key="29" vol="103" len="12" pan="0" pos="1368"/>
          <note key="24" vol="103" len="6" pan="0" pos="1368"/>
          <note key="48" vol="103" len="12" pan="0" pos="1380"/>
          <note key="63" vol="103" len="12" pan="0" pos="1392"/>
          <note key="26" vol="103" len="12" pan="0" pos="1392"/>
          <note key="64" vol="103" len="12" pan="0" pos="1404"/>
          <note key="65" vol="103" len="12" pan="0" pos="1416"/>
          <note key="29" vol="103" len="12" pan="0" pos="1416"/>
          <note key="55" vol="103" len="12" pan="0" pos="1428"/>
          <note key="66" vol="103" len="12" pan="0" pos="1440"/>
          <note key="26" vol="103" len="12" pan="0" pos="1440"/>
          <note key="67" vol="103" len="12" pan="0" pos="1452"/>
          <note key="68" vol="103" len="12" pan="0" pos="1464"/>
          <note key="29" vol="103" len="12" pan="0" pos="1464"/>
          <note key="24" vol="103" len="6" pan="0" pos="1464"/>
          <note key="48" vol="103" len="12" pan="0" pos="1476"/>
          <note key="69" vol="103" len="12" pan="0" pos="1488"/>
          <note key="26" vol="103" len="12" pan="0" pos="1488"/>
          <note key="70" vol="103" len="12" pan="0" pos="1500"/>
          <note key="29" vol="103" len="12" pan="0" pos="1500"/>
          <note key="71" vol="103" len="12" pan="0" pos="1512"/>
          <note key="26" vol="103" len="12" pan="0" pos="1512"/>
          <note key="48" vol="103" len="12" pan="0" pos="1524"/>
          <note key="29" vol="103" len="12" pan="0" pos="1524"/>
          <note key="24" vol="103" len="6" pan="0" pos="1524"/>
        </pattern>
      </track>
    </trackcontainer>
    <track mutedBeforeSolo="0" type="6" muted="0" solo="0" name="Automation track">
      <automationtrack/>
      <automationpattern prog="0" mute="0" len="192" tens="1" name="Numerator" pos="0"/>
      <automationpattern prog="0" mute="0" len="192" tens="1" name="Denominator" pos="0"/>
      <automationpattern prog="0" mute="0" len="192" tens="1" name="Tempo" pos="0"/>
      <automationpattern prog="0" mute="0" len="192" tens="1" name="Master volume" pos="0"/>
      <automationpattern prog="0" mute="0" len="192" tens="1" name="Master pitch" pos="0"/>
    </track>
    <fxmixer minimized="0" visible="1" x="1" maximized="0" y="562" width="1682" height="333">
      <fxchannel num="0" volume="1" soloed="0" muted="0" name="Master">
        <fxchain enabled="0" numofeffects="0"/>
      </fxchannel>
      <fxchannel num="1" volume="1" soloed="0" muted="0" name="sforzando">
        <fxchain enabled="0" numofeffects="1">
          <effect gate="0" wet="1" autoquit_numerator="4" autoquit_denominator="4" on="1" autoquit="1" name="vsteffect" autoquit_syncmode="0">
            <vsteffectcontrols numparams="8" param5="5:Early Ref.:0" program="0" param7="7:Level:0.5" param0="0:Size:0.81" param3="3:Hi Damp:0.16" plugin="Effects\Classic Reverb\Classic Reverb.dll" param4="4:Lo Cut:0" param1="1:Damping:0.15" guivisible="0" param2="2:Predelay:0.5" param6="6:Mix:0.04"/>
            <key>
              <attribute value="Effects\Classic Reverb\Classic Reverb.dll" name="file"/>
            </key>
          </effect>
        </fxchain>
        <send amount="1" channel="0"/>
      </fxchannel>
    </fxmixer>
    <ControllerRackView minimized="0" visible="0" x="547" maximized="0" y="487" width="350" height="200"/>
    <pianoroll minimized="0" visible="0" x="46" maximized="0" y="215" width="1593" height="567"/>
    <automationeditor minimized="0" visible="0" x="1" maximized="0" y="1" width="860" height="400"/>
    <projectnotes minimized="0" visible="0" x="697" maximized="0" y="10" width="689" height="400"><![CDATA[<!DOCTYPE HTML PUBLIC "-//W3C//DTD HTML 4.0//EN" "http://www.w3.org/TR/REC-html40/strict.dtd">
<html><head><meta name="qrichtext" content="1" /><style type="text/css">
p, li { white-space: pre-wrap; }
</style></head><body style=" font-family:'MS Shell Dlg 2'; font-size:8.25pt; font-weight:400; font-style:normal;">
<p style=" margin-top:0px; margin-bottom:0px; margin-left:0px; margin-right:0px; -qt-block-indent:0; text-indent:0px;"><span style=" color:#e0e0e0;">&lt;&lt;&lt;&lt;&lt;&lt;</span></p></body></html>]]></projectnotes>
    <timeline stopbehaviour="0" lp1pos="18432" lp0pos="0" lpstate="1"/>
    <controllers/>
  </song>
</lmms-project>
