<?xml version="1.0"?>
<!DOCTYPE lmms-project>
<lmms-project version="23" type="song" creatorversion="1.3.0-alpha.1.231+g49b1f83e4" creator="LMMS">
  <head timesig_numerator="4" mastervol="124" masterpitch="0" timesig_denominator="4" bpm="115"/>
  <song>
    <trackcontainer y="1" width="1455" type="song" visible="1" minimized="0" height="450" x="1" maximized="0">
      <track solo="1" type="0" name="SGM-V2" muted="0" mutedBeforeSolo="1">
        <instrumenttrack pitchrange="12" vol="100" pitch="0" lastkey="127" enabled="0" pan="0" usemasterpitch="1" basenote="69" mixch="0" keymap="0" enablecc="0" range_import="1" firstkey="0" scale="0">
          <midicontrollers cc56="0" cc92="0" cc46="0" cc0="0" cc36="0" cc122="0" cc63="0" cc93="0" cc66="0" cc80="0" cc123="0" cc104="0" cc59="0" cc81="0" cc106="0" cc64="0" cc6="0" cc5="0" cc96="0" cc114="0" cc79="0" cc91="0" cc25="0" cc10="0" cc86="0" cc2="0" cc16="0" cc53="0" cc97="0" cc44="0" cc20="0" cc75="0" cc34="0" cc62="0" cc98="0" cc51="0" cc84="0" cc69="0" cc101="0" cc52="0" cc121="0" cc42="0" cc78="0" cc30="0" cc82="0" cc107="0" cc22="0" cc33="0" cc47="0" cc61="0" cc15="0" cc48="0" cc109="0" cc9="0" cc7="0" cc17="0" cc71="0" cc73="0" cc43="0" cc112="0" cc127="0" cc28="0" cc76="0" cc58="0" cc125="0" cc26="0" cc94="0" cc105="0" cc54="0" cc117="0" cc8="0" cc77="0" cc99="0" cc116="0" cc50="0" cc4="0" cc45="0" cc40="0" cc27="0" cc83="0" cc102="0" cc23="0" cc12="0" cc65="0" cc57="0" cc88="0" cc118="0" cc11="0" cc89="0" cc110="0" cc18="0" cc70="0" cc29="0" cc3="0" cc55="0" cc35="0" cc95="0" cc85="0" cc19="0" cc115="0" cc120="0" cc39="0" cc67="0" cc72="0" cc90="0" cc126="0" cc119="0" cc1="0" cc68="0" cc14="0" cc38="0" cc49="0" cc21="0" cc87="0" cc32="0" cc37="0" cc100="0" cc103="0" cc74="0" cc111="0" cc113="0" cc24="0" cc31="0" cc60="0" cc41="0" cc13="0" cc124="0" cc108="0"/>
          <instrument name="sf2player">
            <sf2player bank="0" gain="0.98" reverbOn="0" reverbWidth="0.5" chorusLevel="2" src="usersoundfont:SGM-V2.01.sf2" chorusDepth="8" patch="3" reverbRoomSize="0.2" reverbLevel="0.9" chorusOn="0" chorusNum="3" chorusSpeed="0.3" reverbDamping="0">
              <key/>
            </sf2player>
          </instrument>
          <eldata fcut="14000" fres="0.5" ftype="0" fwet="0">
            <elvol sustain="0.5" lspd="0.1" lspd_syncmode="0" amt="0" hold="0.5" lspd_denominator="4" att="0" pdel="0" userwavefile="" lshp="0" x100="0" ctlenvamt="0" lpdel="0" rel="0.1" dec="0.5" lamt="0" lspd_numerator="4" latt="0"/>
            <elcut sustain="0.5" lspd="0.1" lspd_syncmode="0" amt="0" hold="0.5" lspd_denominator="4" att="0" pdel="0" userwavefile="" lshp="0" x100="0" ctlenvamt="0" lpdel="0" rel="0.1" dec="0.5" lamt="0" lspd_numerator="4" latt="0"/>
            <elres sustain="0.5" lspd="0.1" lspd_syncmode="0" amt="0" hold="0.5" lspd_denominator="4" att="0" pdel="0" userwavefile="" lshp="0" x100="0" ctlenvamt="0" lpdel="0" rel="0.1" dec="0.5" lamt="0" lspd_numerator="4" latt="0"/>
          </eldata>
          <chordcreator chordrange="1" chord-enabled="0" chord="0"/>
          <arpeggiator arp-enabled="0" arpcycle="0" arprange="1" arpgate="100" arptime_numerator="4" arptime_syncmode="0" arpskip="0" arptime_denominator="4" arptime="200" arpdir="0" arp="0" arpmode="0" arprepeats="1" arpmiss="0"/>
          <midiport fixedinputvelocity="-1" readable="1" outputcontroller="0" inports="" inputcontroller="0" inputchannel="0" outputchannel="1" fixedoutputnote="-1" basevelocity="63" writable="0" fixedoutputvelocity="-1" outputprogram="1"/>
          <fxchain enabled="0" numofeffects="0"/>
        </instrumenttrack>
        <midiclip type="1" name="" muted="0" steps="16" pos="3264">
          <note key="74" vol="100" pan="0" len="156" pos="0"/>
          <note key="70" vol="100" pan="0" len="18" pos="0"/>
          <note key="67" vol="100" pan="0" len="18" pos="0"/>
          <note key="43" vol="100" pan="0" len="12" pos="0"/>
          <note key="70" vol="100" pan="0" len="6" pos="24"/>
          <note key="67" vol="100" pan="0" len="6" pos="24"/>
          <note key="46" vol="100" pan="0" len="12" pos="24"/>
          <note key="70" vol="100" pan="0" len="6" pos="48"/>
          <note key="67" vol="100" pan="0" len="6" pos="48"/>
          <note key="50" vol="100" pan="0" len="12" pos="48"/>
          <note key="70" vol="100" pan="0" len="18" pos="72"/>
          <note key="67" vol="100" pan="0" len="18" pos="72"/>
          <note key="46" vol="100" pan="0" len="12" pos="72"/>
          <note key="70" vol="100" pan="0" len="6" pos="96"/>
          <note key="67" vol="100" pan="0" len="6" pos="96"/>
          <note key="55" vol="100" pan="0" len="12" pos="96"/>
          <note key="70" vol="100" pan="0" len="6" pos="120"/>
          <note key="67" vol="100" pan="0" len="6" pos="120"/>
          <note key="50" vol="100" pan="0" len="12" pos="120"/>
          <note key="70" vol="100" pan="0" len="18" pos="144"/>
          <note key="67" vol="100" pan="0" len="18" pos="144"/>
          <note key="46" vol="100" pan="0" len="12" pos="144"/>
          <note key="75" vol="100" pan="0" len="132" pos="168"/>
          <note key="72" vol="100" pan="0" len="18" pos="168"/>
          <note key="67" vol="100" pan="0" len="18" pos="168"/>
          <note key="48" vol="100" pan="0" len="12" pos="168"/>
          <note key="72" vol="100" pan="0" len="6" pos="192"/>
          <note key="67" vol="100" pan="0" len="6" pos="192"/>
          <note key="51" vol="100" pan="0" len="12" pos="192"/>
          <note key="72" vol="100" pan="0" len="6" pos="216"/>
          <note key="67" vol="100" pan="0" len="6" pos="216"/>
          <note key="55" vol="100" pan="0" len="12" pos="216"/>
          <note key="72" vol="100" pan="0" len="6" pos="240"/>
          <note key="67" vol="100" pan="0" len="6" pos="240"/>
          <note key="43" vol="100" pan="0" len="12" pos="240"/>
          <note key="72" vol="100" pan="0" len="6" pos="264"/>
          <note key="67" vol="100" pan="0" len="6" pos="264"/>
          <note key="48" vol="100" pan="0" len="12" pos="264"/>
          <note key="72" vol="100" pan="0" len="18" pos="288"/>
          <note key="67" vol="100" pan="0" len="18" pos="288"/>
          <note key="51" vol="100" pan="0" len="12" pos="288"/>
          <note key="77" vol="100" pan="0" len="72" pos="312"/>
          <note key="72" vol="100" pan="0" len="18" pos="312"/>
          <note key="69" vol="100" pan="0" len="18" pos="312"/>
          <note key="53" vol="100" pan="0" len="12" pos="312"/>
          <note key="72" vol="100" pan="0" len="6" pos="336"/>
          <note key="69" vol="100" pan="0" len="6" pos="336"/>
          <note key="57" vol="100" pan="0" len="12" pos="336"/>
          <note key="72" vol="100" pan="0" len="18" pos="360"/>
          <note key="69" vol="100" pan="0" len="18" pos="360"/>
          <note key="53" vol="100" pan="0" len="12" pos="360"/>
          <note key="72" vol="100" pan="0" len="24" pos="384"/>
          <note key="69" vol="100" pan="0" len="18" pos="384"/>
          <note key="65" vol="100" pan="0" len="18" pos="384"/>
          <note key="48" vol="100" pan="0" len="12" pos="384"/>
          <note key="75" vol="100" pan="0" len="24" pos="408"/>
          <note key="70" vol="100" pan="0" len="18" pos="408"/>
          <note key="67" vol="100" pan="0" len="18" pos="408"/>
          <note key="53" vol="100" pan="0" len="12" pos="408"/>
          <note key="77" vol="100" pan="0" len="12" pos="432"/>
          <note key="70" vol="100" pan="0" len="6" pos="432"/>
          <note key="67" vol="100" pan="0" len="6" pos="432"/>
          <note key="57" vol="100" pan="0" len="12" pos="432"/>
          <note key="75" vol="100" pan="0" len="12" pos="444"/>
          <note key="74" vol="100" pan="0" len="132" pos="456"/>
          <note key="70" vol="100" pan="0" len="18" pos="456"/>
          <note key="67" vol="100" pan="0" len="18" pos="456"/>
          <note key="55" vol="100" pan="0" len="12" pos="456"/>
          <note key="70" vol="100" pan="0" len="6" pos="480"/>
          <note key="67" vol="100" pan="0" len="6" pos="480"/>
          <note key="50" vol="100" pan="0" len="12" pos="480"/>
          <note key="70" vol="100" pan="0" len="6" pos="504"/>
          <note key="67" vol="100" pan="0" len="6" pos="504"/>
          <note key="46" vol="100" pan="0" len="12" pos="504"/>
          <note key="70" vol="100" pan="0" len="6" pos="528"/>
          <note key="67" vol="100" pan="0" len="6" pos="528"/>
          <note key="50" vol="100" pan="0" len="12" pos="528"/>
          <note key="70" vol="100" pan="0" len="6" pos="552"/>
          <note key="67" vol="100" pan="0" len="6" pos="552"/>
          <note key="43" vol="100" pan="0" len="12" pos="552"/>
          <note key="70" vol="100" pan="0" len="18" pos="576"/>
          <note key="67" vol="100" pan="0" len="18" pos="576"/>
          <note key="46" vol="100" pan="0" len="12" pos="576"/>
          <note key="70" vol="100" pan="0" len="96" pos="600"/>
          <note key="67" vol="100" pan="0" len="18" pos="600"/>
          <note key="62" vol="100" pan="0" len="18" pos="600"/>
          <note key="58" vol="100" pan="0" len="18" pos="600"/>
          <note key="43" vol="100" pan="0" len="12" pos="600"/>
          <note key="67" vol="100" pan="0" len="6" pos="624"/>
          <note key="62" vol="100" pan="0" len="6" pos="624"/>
          <note key="58" vol="100" pan="0" len="6" pos="624"/>
          <note key="46" vol="100" pan="0" len="12" pos="624"/>
          <note key="67" vol="100" pan="0" len="6" pos="648"/>
          <note key="62" vol="100" pan="0" len="6" pos="648"/>
          <note key="58" vol="100" pan="0" len="6" pos="648"/>
          <note key="50" vol="100" pan="0" len="12" pos="648"/>
          <note key="67" vol="100" pan="0" len="18" pos="672"/>
          <note key="62" vol="100" pan="0" len="18" pos="672"/>
          <note key="58" vol="100" pan="0" len="18" pos="672"/>
          <note key="46" vol="100" pan="0" len="12" pos="672"/>
          <note key="67" vol="100" pan="0" len="48" pos="696"/>
          <note key="65" vol="100" pan="0" len="18" pos="696"/>
          <note key="62" vol="100" pan="0" len="18" pos="696"/>
          <note key="58" vol="100" pan="0" len="18" pos="696"/>
          <note key="55" vol="100" pan="0" len="12" pos="696"/>
          <note key="65" vol="100" pan="0" len="6" pos="720"/>
          <note key="62" vol="100" pan="0" len="6" pos="720"/>
          <note key="58" vol="100" pan="0" len="6" pos="720"/>
          <note key="50" vol="100" pan="0" len="12" pos="720"/>
          <note key="72" vol="100" pan="0" len="114" pos="744"/>
          <note key="67" vol="100" pan="0" len="18" pos="744"/>
          <note key="63" vol="100" pan="0" len="18" pos="744"/>
          <note key="60" vol="100" pan="0" len="18" pos="744"/>
          <note key="51" vol="100" pan="0" len="12" pos="744"/>
          <note key="67" vol="100" pan="0" len="6" pos="768"/>
          <note key="63" vol="100" pan="0" len="6" pos="768"/>
          <note key="60" vol="100" pan="0" len="6" pos="768"/>
          <note key="48" vol="100" pan="0" len="12" pos="768"/>
          <note key="67" vol="100" pan="0" len="6" pos="792"/>
          <note key="63" vol="100" pan="0" len="6" pos="792"/>
          <note key="60" vol="100" pan="0" len="6" pos="792"/>
          <note key="51" vol="100" pan="0" len="12" pos="792"/>
          <note key="67" vol="100" pan="0" len="6" pos="816"/>
          <note key="63" vol="100" pan="0" len="6" pos="816"/>
          <note key="60" vol="100" pan="0" len="6" pos="816"/>
          <note key="55" vol="100" pan="0" len="12" pos="816"/>
          <note key="67" vol="100" pan="0" len="6" pos="840"/>
          <note key="63" vol="100" pan="0" len="6" pos="840"/>
          <note key="60" vol="100" pan="0" len="6" pos="840"/>
          <note key="43" vol="100" pan="0" len="12" pos="840"/>
          <note key="69" vol="100" pan="0" len="24" pos="864"/>
          <note key="67" vol="100" pan="0" len="18" pos="864"/>
          <note key="63" vol="100" pan="0" len="18" pos="864"/>
          <note key="60" vol="100" pan="0" len="18" pos="864"/>
          <note key="48" vol="100" pan="0" len="12" pos="864"/>
          <note key="72" vol="100" pan="0" len="96" pos="888"/>
          <note key="69" vol="100" pan="0" len="18" pos="888"/>
          <note key="65" vol="100" pan="0" len="18" pos="888"/>
          <note key="60" vol="100" pan="0" len="18" pos="888"/>
          <note key="53" vol="100" pan="0" len="12" pos="888"/>
          <note key="69" vol="100" pan="0" len="6" pos="912"/>
          <note key="65" vol="100" pan="0" len="6" pos="912"/>
          <note key="60" vol="100" pan="0" len="6" pos="912"/>
          <note key="57" vol="100" pan="0" len="12" pos="912"/>
          <note key="69" vol="100" pan="0" len="6" pos="936"/>
          <note key="65" vol="100" pan="0" len="6" pos="936"/>
          <note key="60" vol="100" pan="0" len="6" pos="936"/>
          <note key="53" vol="100" pan="0" len="12" pos="936"/>
          <note key="69" vol="100" pan="0" len="6" pos="960"/>
          <note key="65" vol="100" pan="0" len="6" pos="960"/>
          <note key="60" vol="100" pan="0" len="6" pos="960"/>
          <note key="48" vol="100" pan="0" len="12" pos="960"/>
          <note key="73" vol="100" pan="0" len="48" pos="984"/>
          <note key="70" vol="100" pan="0" len="18" pos="984"/>
          <note key="67" vol="100" pan="0" len="18" pos="984"/>
          <note key="63" vol="100" pan="0" len="18" pos="984"/>
          <note key="55" vol="100" pan="0" len="12" pos="984"/>
          <note key="70" vol="100" pan="0" len="12" pos="1008"/>
          <note key="67" vol="100" pan="0" len="12" pos="1008"/>
          <note key="63" vol="100" pan="0" len="12" pos="1008"/>
          <note key="58" vol="100" pan="0" len="12" pos="1008"/>
          <note key="74" vol="100" pan="0" len="144" pos="1032"/>
          <note key="69" vol="100" pan="0" len="18" pos="1032"/>
          <note key="66" vol="100" pan="0" len="18" pos="1032"/>
          <note key="62" vol="100" pan="0" len="18" pos="1032"/>
          <note key="54" vol="100" pan="0" len="12" pos="1032"/>
          <note key="69" vol="100" pan="0" len="6" pos="1056"/>
          <note key="66" vol="100" pan="0" len="6" pos="1056"/>
          <note key="62" vol="100" pan="0" len="6" pos="1056"/>
          <note key="50" vol="100" pan="0" len="12" pos="1056"/>
          <note key="69" vol="100" pan="0" len="6" pos="1080"/>
          <note key="66" vol="100" pan="0" len="6" pos="1080"/>
          <note key="62" vol="100" pan="0" len="6" pos="1080"/>
          <note key="45" vol="100" pan="0" len="12" pos="1080"/>
          <note key="69" vol="100" pan="0" len="6" pos="1104"/>
          <note key="66" vol="100" pan="0" len="6" pos="1104"/>
          <note key="62" vol="100" pan="0" len="6" pos="1104"/>
          <note key="50" vol="100" pan="0" len="12" pos="1104"/>
          <note key="69" vol="100" pan="0" len="6" pos="1128"/>
          <note key="66" vol="100" pan="0" len="6" pos="1128"/>
          <note key="62" vol="100" pan="0" len="6" pos="1128"/>
          <note key="38" vol="100" pan="0" len="12" pos="1128"/>
          <note key="69" vol="100" pan="0" len="6" pos="1152"/>
          <note key="66" vol="100" pan="0" len="6" pos="1152"/>
          <note key="62" vol="100" pan="0" len="6" pos="1152"/>
          <note key="45" vol="100" pan="0" len="12" pos="1152"/>
          <note key="74" vol="100" pan="0" len="36" pos="1176"/>
          <note key="66" vol="100" pan="0" len="36" pos="1176"/>
          <note key="62" vol="100" pan="0" len="36" pos="1176"/>
          <note key="45" vol="100" pan="0" len="24" pos="1176"/>
          <note key="74" vol="100" pan="0" len="36" pos="1212"/>
          <note key="66" vol="100" pan="0" len="36" pos="1212"/>
          <note key="62" vol="100" pan="0" len="36" pos="1212"/>
          <note key="38" vol="100" pan="0" len="24" pos="1212"/>
          <note key="74" vol="100" pan="0" len="84" pos="1248"/>
          <note key="66" vol="100" pan="0" len="84" pos="1248"/>
          <note key="62" vol="100" pan="0" len="84" pos="1248"/>
          <note key="45" vol="100" pan="0" len="72" pos="1248"/>
          <note key="69" vol="100" pan="0" len="36" pos="1332"/>
          <note key="66" vol="100" pan="0" len="36" pos="1332"/>
          <note key="62" vol="100" pan="0" len="36" pos="1332"/>
          <note key="54" vol="100" pan="0" len="24" pos="1332"/>
          <note key="69" vol="100" pan="0" len="36" pos="1368"/>
          <note key="66" vol="100" pan="0" len="36" pos="1368"/>
          <note key="62" vol="100" pan="0" len="36" pos="1368"/>
          <note key="50" vol="100" pan="0" len="24" pos="1368"/>
          <note key="69" vol="100" pan="0" len="132" pos="1404"/>
          <note key="66" vol="100" pan="0" len="132" pos="1404"/>
          <note key="62" vol="100" pan="0" len="132" pos="1404"/>
          <note key="38" vol="100" pan="0" len="120" pos="1404"/>
        </midiclip>
        <midiclip type="1" name="" muted="0" steps="16" pos="1728">
          <note key="72" vol="100" pan="0" len="30" pos="0"/>
          <note key="55" vol="100" pan="0" len="6" pos="0"/>
          <note key="48" vol="100" pan="0" len="6" pos="12"/>
          <note key="67" vol="100" pan="0" len="30" pos="24"/>
          <note key="63" vol="100" pan="0" len="30" pos="24"/>
          <note key="79" vol="100" pan="0" len="18" pos="36"/>
          <note key="48" vol="100" pan="0" len="18" pos="36"/>
          <note key="79" vol="100" pan="0" len="6" pos="60"/>
          <note key="67" vol="100" pan="0" len="6" pos="60"/>
          <note key="63" vol="100" pan="0" len="6" pos="60"/>
          <note key="48" vol="100" pan="0" len="6" pos="60"/>
          <note key="77" vol="100" pan="0" len="30" pos="72"/>
          <note key="48" vol="100" pan="0" len="6" pos="72"/>
          <note key="67" vol="100" pan="0" len="30" pos="96"/>
          <note key="63" vol="100" pan="0" len="30" pos="96"/>
          <note key="51" vol="100" pan="0" len="18" pos="96"/>
          <note key="77" vol="100" pan="0" len="6" pos="108"/>
          <note key="75" vol="100" pan="0" len="18" pos="120"/>
          <note key="48" vol="100" pan="0" len="6" pos="120"/>
          <note key="65" vol="100" pan="0" len="6" pos="132"/>
          <note key="60" vol="100" pan="0" len="6" pos="132"/>
          <note key="74" vol="100" pan="0" len="18" pos="144"/>
          <note key="50" vol="100" pan="0" len="6" pos="144"/>
          <note key="70" vol="100" pan="0" len="18" pos="168"/>
          <note key="65" vol="100" pan="0" len="18" pos="168"/>
          <note key="60" vol="100" pan="0" len="18" pos="168"/>
          <note key="51" vol="100" pan="0" len="18" pos="168"/>
          <note key="72" vol="100" pan="0" len="30" pos="192"/>
          <note key="55" vol="100" pan="0" len="6" pos="192"/>
          <note key="48" vol="100" pan="0" len="6" pos="204"/>
          <note key="67" vol="100" pan="0" len="30" pos="216"/>
          <note key="63" vol="100" pan="0" len="30" pos="216"/>
          <note key="79" vol="100" pan="0" len="18" pos="228"/>
          <note key="48" vol="100" pan="0" len="18" pos="228"/>
          <note key="79" vol="100" pan="0" len="6" pos="252"/>
          <note key="67" vol="100" pan="0" len="6" pos="252"/>
          <note key="63" vol="100" pan="0" len="6" pos="252"/>
          <note key="55" vol="100" pan="0" len="6" pos="252"/>
          <note key="81" vol="100" pan="0" len="42" pos="264"/>
          <note key="53" vol="100" pan="0" len="42" pos="264"/>
          <note key="69" vol="100" pan="0" len="30" pos="288"/>
          <note key="65" vol="100" pan="0" len="30" pos="288"/>
          <note key="77" vol="100" pan="0" len="54" pos="312"/>
          <note key="53" vol="100" pan="0" len="6" pos="312"/>
          <note key="70" vol="100" pan="0" len="6" pos="324"/>
          <note key="65" vol="100" pan="0" len="6" pos="324"/>
          <note key="51" vol="100" pan="0" len="6" pos="336"/>
          <note key="69" vol="100" pan="0" len="18" pos="360"/>
          <note key="65" vol="100" pan="0" len="18" pos="360"/>
          <note key="53" vol="100" pan="0" len="18" pos="360"/>
          <note key="72" vol="100" pan="0" len="30" pos="384"/>
          <note key="55" vol="100" pan="0" len="6" pos="384"/>
          <note key="48" vol="100" pan="0" len="6" pos="396"/>
          <note key="67" vol="100" pan="0" len="30" pos="408"/>
          <note key="63" vol="100" pan="0" len="30" pos="408"/>
          <note key="79" vol="100" pan="0" len="18" pos="420"/>
          <note key="48" vol="100" pan="0" len="18" pos="420"/>
          <note key="79" vol="100" pan="0" len="6" pos="444"/>
          <note key="67" vol="100" pan="0" len="6" pos="444"/>
          <note key="63" vol="100" pan="0" len="6" pos="444"/>
          <note key="48" vol="100" pan="0" len="6" pos="444"/>
          <note key="77" vol="100" pan="0" len="30" pos="456"/>
          <note key="48" vol="100" pan="0" len="6" pos="456"/>
          <note key="67" vol="100" pan="0" len="30" pos="480"/>
          <note key="63" vol="100" pan="0" len="30" pos="480"/>
          <note key="51" vol="100" pan="0" len="18" pos="480"/>
          <note key="77" vol="100" pan="0" len="6" pos="492"/>
          <note key="75" vol="100" pan="0" len="18" pos="504"/>
          <note key="48" vol="100" pan="0" len="6" pos="504"/>
          <note key="65" vol="100" pan="0" len="6" pos="516"/>
          <note key="60" vol="100" pan="0" len="6" pos="516"/>
          <note key="74" vol="100" pan="0" len="18" pos="528"/>
          <note key="50" vol="100" pan="0" len="6" pos="528"/>
          <note key="70" vol="100" pan="0" len="18" pos="552"/>
          <note key="65" vol="100" pan="0" len="18" pos="552"/>
          <note key="60" vol="100" pan="0" len="18" pos="552"/>
          <note key="51" vol="100" pan="0" len="18" pos="552"/>
          <note key="69" vol="100" pan="0" len="30" pos="576"/>
          <note key="53" vol="100" pan="0" len="6" pos="576"/>
          <note key="45" vol="100" pan="0" len="6" pos="588"/>
          <note key="65" vol="100" pan="0" len="30" pos="600"/>
          <note key="60" vol="100" pan="0" len="30" pos="600"/>
          <note key="77" vol="100" pan="0" len="18" pos="612"/>
          <note key="45" vol="100" pan="0" len="18" pos="612"/>
          <note key="77" vol="100" pan="0" len="6" pos="636"/>
          <note key="65" vol="100" pan="0" len="6" pos="636"/>
          <note key="60" vol="100" pan="0" len="6" pos="636"/>
          <note key="57" vol="100" pan="0" len="6" pos="636"/>
          <note key="81" vol="100" pan="0" len="30" pos="648"/>
          <note key="53" vol="100" pan="0" len="30" pos="648"/>
          <note key="69" vol="100" pan="0" len="30" pos="672"/>
          <note key="65" vol="100" pan="0" len="30" pos="672"/>
          <note key="81" vol="100" pan="0" len="6" pos="684"/>
          <note key="82" vol="100" pan="0" len="18" pos="696"/>
          <note key="51" vol="100" pan="0" len="6" pos="696"/>
          <note key="70" vol="100" pan="0" len="6" pos="708"/>
          <note key="65" vol="100" pan="0" len="6" pos="708"/>
          <note key="81" vol="100" pan="0" len="18" pos="720"/>
          <note key="53" vol="100" pan="0" len="6" pos="720"/>
          <note key="79" vol="100" pan="0" len="18" pos="744"/>
          <note key="69" vol="100" pan="0" len="18" pos="744"/>
          <note key="65" vol="100" pan="0" len="18" pos="744"/>
          <note key="57" vol="100" pan="0" len="18" pos="744"/>
          <note key="72" vol="100" pan="0" len="30" pos="768"/>
          <note key="55" vol="100" pan="0" len="6" pos="768"/>
          <note key="48" vol="100" pan="0" len="6" pos="780"/>
          <note key="67" vol="100" pan="0" len="30" pos="792"/>
          <note key="63" vol="100" pan="0" len="30" pos="792"/>
          <note key="79" vol="100" pan="0" len="18" pos="804"/>
          <note key="48" vol="100" pan="0" len="18" pos="804"/>
          <note key="79" vol="100" pan="0" len="6" pos="828"/>
          <note key="67" vol="100" pan="0" len="6" pos="828"/>
          <note key="63" vol="100" pan="0" len="6" pos="828"/>
          <note key="48" vol="100" pan="0" len="6" pos="828"/>
          <note key="77" vol="100" pan="0" len="30" pos="840"/>
          <note key="48" vol="100" pan="0" len="6" pos="840"/>
          <note key="67" vol="100" pan="0" len="30" pos="864"/>
          <note key="63" vol="100" pan="0" len="30" pos="864"/>
          <note key="51" vol="100" pan="0" len="18" pos="864"/>
          <note key="77" vol="100" pan="0" len="6" pos="876"/>
          <note key="75" vol="100" pan="0" len="18" pos="888"/>
          <note key="48" vol="100" pan="0" len="6" pos="888"/>
          <note key="65" vol="100" pan="0" len="6" pos="900"/>
          <note key="60" vol="100" pan="0" len="6" pos="900"/>
          <note key="74" vol="100" pan="0" len="18" pos="912"/>
          <note key="50" vol="100" pan="0" len="6" pos="912"/>
          <note key="70" vol="100" pan="0" len="18" pos="936"/>
          <note key="65" vol="100" pan="0" len="18" pos="936"/>
          <note key="60" vol="100" pan="0" len="18" pos="936"/>
          <note key="51" vol="100" pan="0" len="18" pos="936"/>
          <note key="72" vol="100" pan="0" len="30" pos="960"/>
          <note key="55" vol="100" pan="0" len="6" pos="960"/>
          <note key="48" vol="100" pan="0" len="6" pos="972"/>
          <note key="67" vol="100" pan="0" len="30" pos="984"/>
          <note key="63" vol="100" pan="0" len="30" pos="984"/>
          <note key="79" vol="100" pan="0" len="18" pos="996"/>
          <note key="48" vol="100" pan="0" len="18" pos="996"/>
          <note key="79" vol="100" pan="0" len="6" pos="1020"/>
          <note key="67" vol="100" pan="0" len="6" pos="1020"/>
          <note key="63" vol="100" pan="0" len="6" pos="1020"/>
          <note key="55" vol="100" pan="0" len="6" pos="1020"/>
          <note key="81" vol="100" pan="0" len="42" pos="1032"/>
          <note key="53" vol="100" pan="0" len="42" pos="1032"/>
          <note key="69" vol="100" pan="0" len="30" pos="1056"/>
          <note key="65" vol="100" pan="0" len="30" pos="1056"/>
          <note key="77" vol="100" pan="0" len="54" pos="1080"/>
          <note key="53" vol="100" pan="0" len="6" pos="1080"/>
          <note key="70" vol="100" pan="0" len="6" pos="1092"/>
          <note key="65" vol="100" pan="0" len="6" pos="1092"/>
          <note key="51" vol="100" pan="0" len="6" pos="1104"/>
          <note key="69" vol="100" pan="0" len="18" pos="1128"/>
          <note key="65" vol="100" pan="0" len="18" pos="1128"/>
          <note key="53" vol="100" pan="0" len="18" pos="1128"/>
          <note key="72" vol="100" pan="0" len="30" pos="1152"/>
          <note key="55" vol="100" pan="0" len="6" pos="1152"/>
          <note key="48" vol="100" pan="0" len="6" pos="1164"/>
          <note key="67" vol="100" pan="0" len="30" pos="1176"/>
          <note key="63" vol="100" pan="0" len="30" pos="1176"/>
          <note key="79" vol="100" pan="0" len="18" pos="1188"/>
          <note key="48" vol="100" pan="0" len="18" pos="1188"/>
          <note key="79" vol="100" pan="0" len="6" pos="1212"/>
          <note key="67" vol="100" pan="0" len="6" pos="1212"/>
          <note key="63" vol="100" pan="0" len="6" pos="1212"/>
          <note key="48" vol="100" pan="0" len="6" pos="1212"/>
          <note key="77" vol="100" pan="0" len="30" pos="1224"/>
          <note key="48" vol="100" pan="0" len="6" pos="1224"/>
          <note key="67" vol="100" pan="0" len="30" pos="1248"/>
          <note key="63" vol="100" pan="0" len="30" pos="1248"/>
          <note key="51" vol="100" pan="0" len="18" pos="1248"/>
          <note key="77" vol="100" pan="0" len="6" pos="1260"/>
          <note key="75" vol="100" pan="0" len="18" pos="1272"/>
          <note key="48" vol="100" pan="0" len="6" pos="1272"/>
          <note key="65" vol="100" pan="0" len="6" pos="1284"/>
          <note key="60" vol="100" pan="0" len="6" pos="1284"/>
          <note key="74" vol="100" pan="0" len="18" pos="1296"/>
          <note key="50" vol="100" pan="0" len="6" pos="1296"/>
          <note key="70" vol="100" pan="0" len="18" pos="1320"/>
          <note key="65" vol="100" pan="0" len="18" pos="1320"/>
          <note key="60" vol="100" pan="0" len="18" pos="1320"/>
          <note key="51" vol="100" pan="0" len="18" pos="1320"/>
          <note key="77" vol="100" pan="0" len="30" pos="1344"/>
          <note key="69" vol="100" pan="0" len="30" pos="1344"/>
          <note key="65" vol="100" pan="0" len="30" pos="1344"/>
          <note key="41" vol="100" pan="0" len="30" pos="1344"/>
          <note key="77" vol="100" pan="0" len="30" pos="1380"/>
          <note key="69" vol="100" pan="0" len="30" pos="1380"/>
          <note key="65" vol="100" pan="0" len="30" pos="1380"/>
          <note key="53" vol="100" pan="0" len="30" pos="1380"/>
          <note key="75" vol="100" pan="0" len="30" pos="1416"/>
          <note key="67" vol="100" pan="0" len="30" pos="1416"/>
          <note key="63" vol="100" pan="0" len="30" pos="1416"/>
          <note key="41" vol="100" pan="0" len="30" pos="1416"/>
          <note key="75" vol="100" pan="0" len="18" pos="1452"/>
          <note key="67" vol="100" pan="0" len="30" pos="1452"/>
          <note key="63" vol="100" pan="0" len="30" pos="1452"/>
          <note key="53" vol="100" pan="0" len="30" pos="1452"/>
          <note key="75" vol="100" pan="0" len="6" pos="1476"/>
          <note key="75" vol="100" pan="0" len="42" pos="1488"/>
          <note key="67" vol="100" pan="0" len="42" pos="1488"/>
          <note key="63" vol="100" pan="0" len="42" pos="1488"/>
          <note key="41" vol="100" pan="0" len="42" pos="1488"/>
        </midiclip>
        <midiclip type="1" name="" muted="0" steps="16" pos="4800">
          <note key="79" vol="100" pan="0" len="30" pos="0"/>
          <note key="74" vol="100" pan="0" len="30" pos="0"/>
          <note key="50" vol="100" pan="0" len="6" pos="0"/>
          <note key="43" vol="100" pan="0" len="6" pos="12"/>
          <note key="70" vol="100" pan="0" len="30" pos="24"/>
          <note key="62" vol="100" pan="0" len="30" pos="24"/>
          <note key="86" vol="100" pan="0" len="18" pos="36"/>
          <note key="82" vol="100" pan="0" len="18" pos="36"/>
          <note key="43" vol="100" pan="0" len="18" pos="36"/>
          <note key="86" vol="100" pan="0" len="6" pos="60"/>
          <note key="82" vol="100" pan="0" len="6" pos="60"/>
          <note key="70" vol="100" pan="0" len="6" pos="60"/>
          <note key="62" vol="100" pan="0" len="6" pos="60"/>
          <note key="43" vol="100" pan="0" len="6" pos="60"/>
          <note key="84" vol="100" pan="0" len="30" pos="72"/>
          <note key="81" vol="100" pan="0" len="30" pos="72"/>
          <note key="43" vol="100" pan="0" len="6" pos="72"/>
          <note key="70" vol="100" pan="0" len="30" pos="96"/>
          <note key="62" vol="100" pan="0" len="30" pos="96"/>
          <note key="46" vol="100" pan="0" len="18" pos="96"/>
          <note key="84" vol="100" pan="0" len="6" pos="108"/>
          <note key="81" vol="100" pan="0" len="6" pos="108"/>
          <note key="82" vol="100" pan="0" len="18" pos="120"/>
          <note key="79" vol="100" pan="0" len="18" pos="120"/>
          <note key="43" vol="100" pan="0" len="6" pos="120"/>
          <note key="69" vol="100" pan="0" len="6" pos="132"/>
          <note key="60" vol="100" pan="0" len="6" pos="132"/>
          <note key="81" vol="100" pan="0" len="18" pos="144"/>
          <note key="77" vol="100" pan="0" len="18" pos="144"/>
          <note key="45" vol="100" pan="0" len="6" pos="144"/>
          <note key="77" vol="100" pan="0" len="18" pos="168"/>
          <note key="74" vol="100" pan="0" len="18" pos="168"/>
          <note key="69" vol="100" pan="0" len="18" pos="168"/>
          <note key="60" vol="100" pan="0" len="18" pos="168"/>
          <note key="46" vol="100" pan="0" len="18" pos="168"/>
          <note key="79" vol="100" pan="0" len="30" pos="192"/>
          <note key="74" vol="100" pan="0" len="30" pos="192"/>
          <note key="50" vol="100" pan="0" len="6" pos="192"/>
          <note key="43" vol="100" pan="0" len="6" pos="204"/>
          <note key="70" vol="100" pan="0" len="30" pos="216"/>
          <note key="62" vol="100" pan="0" len="30" pos="216"/>
          <note key="86" vol="100" pan="0" len="18" pos="228"/>
          <note key="82" vol="100" pan="0" len="18" pos="228"/>
          <note key="43" vol="100" pan="0" len="18" pos="228"/>
          <note key="86" vol="100" pan="0" len="6" pos="252"/>
          <note key="82" vol="100" pan="0" len="6" pos="252"/>
          <note key="70" vol="100" pan="0" len="6" pos="252"/>
          <note key="62" vol="100" pan="0" len="6" pos="252"/>
          <note key="50" vol="100" pan="0" len="6" pos="252"/>
          <note key="88" vol="100" pan="0" len="42" pos="264"/>
          <note key="84" vol="100" pan="0" len="42" pos="264"/>
          <note key="48" vol="100" pan="0" len="42" pos="264"/>
          <note key="72" vol="100" pan="0" len="30" pos="288"/>
          <note key="64" vol="100" pan="0" len="30" pos="288"/>
          <note key="84" vol="100" pan="0" len="42" pos="312"/>
          <note key="79" vol="100" pan="0" len="42" pos="312"/>
          <note key="48" vol="100" pan="0" len="6" pos="312"/>
          <note key="74" vol="100" pan="0" len="6" pos="324"/>
          <note key="65" vol="100" pan="0" len="6" pos="324"/>
          <note key="46" vol="100" pan="0" len="6" pos="336"/>
          <note key="72" vol="100" pan="0" len="18" pos="360"/>
          <note key="64" vol="100" pan="0" len="18" pos="360"/>
          <note key="48" vol="100" pan="0" len="18" pos="360"/>
          <note key="79" vol="100" pan="0" len="30" pos="384"/>
          <note key="74" vol="100" pan="0" len="30" pos="384"/>
          <note key="50" vol="100" pan="0" len="6" pos="384"/>
          <note key="43" vol="100" pan="0" len="6" pos="396"/>
          <note key="70" vol="100" pan="0" len="30" pos="408"/>
          <note key="62" vol="100" pan="0" len="30" pos="408"/>
          <note key="86" vol="100" pan="0" len="18" pos="420"/>
          <note key="82" vol="100" pan="0" len="18" pos="420"/>
          <note key="43" vol="100" pan="0" len="18" pos="420"/>
          <note key="86" vol="100" pan="0" len="6" pos="444"/>
          <note key="82" vol="100" pan="0" len="6" pos="444"/>
          <note key="70" vol="100" pan="0" len="6" pos="444"/>
          <note key="62" vol="100" pan="0" len="6" pos="444"/>
          <note key="43" vol="100" pan="0" len="6" pos="444"/>
          <note key="84" vol="100" pan="0" len="30" pos="456"/>
          <note key="81" vol="100" pan="0" len="30" pos="456"/>
          <note key="43" vol="100" pan="0" len="6" pos="456"/>
          <note key="70" vol="100" pan="0" len="30" pos="480"/>
          <note key="62" vol="100" pan="0" len="30" pos="480"/>
          <note key="46" vol="100" pan="0" len="18" pos="480"/>
          <note key="84" vol="100" pan="0" len="6" pos="492"/>
          <note key="81" vol="100" pan="0" len="6" pos="492"/>
          <note key="82" vol="100" pan="0" len="18" pos="504"/>
          <note key="79" vol="100" pan="0" len="18" pos="504"/>
          <note key="43" vol="100" pan="0" len="6" pos="504"/>
          <note key="69" vol="100" pan="0" len="6" pos="516"/>
          <note key="60" vol="100" pan="0" len="6" pos="516"/>
          <note key="81" vol="100" pan="0" len="18" pos="528"/>
          <note key="77" vol="100" pan="0" len="18" pos="528"/>
          <note key="45" vol="100" pan="0" len="6" pos="528"/>
          <note key="77" vol="100" pan="0" len="18" pos="552"/>
          <note key="74" vol="100" pan="0" len="18" pos="552"/>
          <note key="69" vol="100" pan="0" len="18" pos="552"/>
          <note key="60" vol="100" pan="0" len="18" pos="552"/>
          <note key="46" vol="100" pan="0" len="18" pos="552"/>
          <note key="76" vol="100" pan="0" len="30" pos="576"/>
          <note key="72" vol="100" pan="0" len="30" pos="576"/>
          <note key="48" vol="100" pan="0" len="6" pos="576"/>
          <note key="40" vol="100" pan="0" len="6" pos="588"/>
          <note key="67" vol="100" pan="0" len="30" pos="600"/>
          <note key="60" vol="100" pan="0" len="30" pos="600"/>
          <note key="84" vol="100" pan="0" len="18" pos="612"/>
          <note key="79" vol="100" pan="0" len="18" pos="612"/>
          <note key="40" vol="100" pan="0" len="18" pos="612"/>
          <note key="84" vol="100" pan="0" len="6" pos="636"/>
          <note key="79" vol="100" pan="0" len="6" pos="636"/>
          <note key="67" vol="100" pan="0" len="6" pos="636"/>
          <note key="60" vol="100" pan="0" len="6" pos="636"/>
          <note key="52" vol="100" pan="0" len="6" pos="636"/>
          <note key="88" vol="100" pan="0" len="30" pos="648"/>
          <note key="82" vol="100" pan="0" len="30" pos="648"/>
          <note key="48" vol="100" pan="0" len="30" pos="648"/>
          <note key="72" vol="100" pan="0" len="30" pos="672"/>
          <note key="64" vol="100" pan="0" len="30" pos="672"/>
          <note key="88" vol="100" pan="0" len="6" pos="684"/>
          <note key="82" vol="100" pan="0" len="6" pos="684"/>
          <note key="89" vol="100" pan="0" len="18" pos="696"/>
          <note key="84" vol="100" pan="0" len="18" pos="696"/>
          <note key="46" vol="100" pan="0" len="6" pos="696"/>
          <note key="74" vol="100" pan="0" len="6" pos="708"/>
          <note key="65" vol="100" pan="0" len="6" pos="708"/>
          <note key="88" vol="100" pan="0" len="18" pos="720"/>
          <note key="82" vol="100" pan="0" len="18" pos="720"/>
          <note key="48" vol="100" pan="0" len="6" pos="720"/>
          <note key="86" vol="100" pan="0" len="18" pos="744"/>
          <note key="81" vol="100" pan="0" len="18" pos="744"/>
          <note key="72" vol="100" pan="0" len="18" pos="744"/>
          <note key="64" vol="100" pan="0" len="18" pos="744"/>
          <note key="52" vol="100" pan="0" len="18" pos="744"/>
          <note key="79" vol="100" pan="0" len="30" pos="768"/>
          <note key="74" vol="100" pan="0" len="30" pos="768"/>
          <note key="50" vol="100" pan="0" len="6" pos="768"/>
          <note key="43" vol="100" pan="0" len="6" pos="780"/>
          <note key="70" vol="100" pan="0" len="30" pos="792"/>
          <note key="62" vol="100" pan="0" len="30" pos="792"/>
          <note key="86" vol="100" pan="0" len="18" pos="804"/>
          <note key="82" vol="100" pan="0" len="18" pos="804"/>
          <note key="43" vol="100" pan="0" len="18" pos="804"/>
          <note key="86" vol="100" pan="0" len="6" pos="828"/>
          <note key="82" vol="100" pan="0" len="6" pos="828"/>
          <note key="70" vol="100" pan="0" len="6" pos="828"/>
          <note key="62" vol="100" pan="0" len="6" pos="828"/>
          <note key="43" vol="100" pan="0" len="6" pos="828"/>
          <note key="84" vol="100" pan="0" len="30" pos="840"/>
          <note key="81" vol="100" pan="0" len="30" pos="840"/>
          <note key="43" vol="100" pan="0" len="6" pos="840"/>
          <note key="70" vol="100" pan="0" len="30" pos="864"/>
          <note key="62" vol="100" pan="0" len="30" pos="864"/>
          <note key="46" vol="100" pan="0" len="18" pos="864"/>
          <note key="84" vol="100" pan="0" len="6" pos="876"/>
          <note key="81" vol="100" pan="0" len="6" pos="876"/>
          <note key="82" vol="100" pan="0" len="18" pos="888"/>
          <note key="79" vol="100" pan="0" len="18" pos="888"/>
          <note key="43" vol="100" pan="0" len="6" pos="888"/>
          <note key="69" vol="100" pan="0" len="6" pos="900"/>
          <note key="60" vol="100" pan="0" len="6" pos="900"/>
          <note key="81" vol="100" pan="0" len="18" pos="912"/>
          <note key="77" vol="100" pan="0" len="18" pos="912"/>
          <note key="45" vol="100" pan="0" len="6" pos="912"/>
          <note key="77" vol="100" pan="0" len="18" pos="936"/>
          <note key="74" vol="100" pan="0" len="18" pos="936"/>
          <note key="69" vol="100" pan="0" len="18" pos="936"/>
          <note key="60" vol="100" pan="0" len="18" pos="936"/>
          <note key="46" vol="100" pan="0" len="18" pos="936"/>
          <note key="79" vol="100" pan="0" len="30" pos="960"/>
          <note key="74" vol="100" pan="0" len="30" pos="960"/>
          <note key="50" vol="100" pan="0" len="6" pos="960"/>
          <note key="43" vol="100" pan="0" len="6" pos="972"/>
          <note key="70" vol="100" pan="0" len="30" pos="984"/>
          <note key="62" vol="100" pan="0" len="30" pos="984"/>
          <note key="86" vol="100" pan="0" len="18" pos="996"/>
          <note key="82" vol="100" pan="0" len="18" pos="996"/>
          <note key="43" vol="100" pan="0" len="18" pos="996"/>
          <note key="86" vol="100" pan="0" len="6" pos="1020"/>
          <note key="82" vol="100" pan="0" len="6" pos="1020"/>
          <note key="70" vol="100" pan="0" len="6" pos="1020"/>
          <note key="62" vol="100" pan="0" len="6" pos="1020"/>
          <note key="50" vol="100" pan="0" len="6" pos="1020"/>
          <note key="88" vol="100" pan="0" len="42" pos="1032"/>
          <note key="84" vol="100" pan="0" len="42" pos="1032"/>
          <note key="48" vol="100" pan="0" len="42" pos="1032"/>
          <note key="72" vol="100" pan="0" len="30" pos="1056"/>
          <note key="64" vol="100" pan="0" len="30" pos="1056"/>
          <note key="84" vol="100" pan="0" len="42" pos="1080"/>
          <note key="79" vol="100" pan="0" len="42" pos="1080"/>
          <note key="48" vol="100" pan="0" len="6" pos="1080"/>
          <note key="74" vol="100" pan="0" len="6" pos="1092"/>
          <note key="65" vol="100" pan="0" len="6" pos="1092"/>
          <note key="46" vol="100" pan="0" len="6" pos="1104"/>
          <note key="72" vol="100" pan="0" len="18" pos="1128"/>
          <note key="64" vol="100" pan="0" len="18" pos="1128"/>
          <note key="48" vol="100" pan="0" len="18" pos="1128"/>
          <note key="79" vol="100" pan="0" len="30" pos="1152"/>
          <note key="74" vol="100" pan="0" len="30" pos="1152"/>
          <note key="50" vol="100" pan="0" len="6" pos="1152"/>
          <note key="43" vol="100" pan="0" len="6" pos="1164"/>
          <note key="70" vol="100" pan="0" len="30" pos="1176"/>
          <note key="62" vol="100" pan="0" len="30" pos="1176"/>
          <note key="86" vol="100" pan="0" len="18" pos="1188"/>
          <note key="82" vol="100" pan="0" len="18" pos="1188"/>
          <note key="43" vol="100" pan="0" len="18" pos="1188"/>
          <note key="86" vol="100" pan="0" len="6" pos="1212"/>
          <note key="82" vol="100" pan="0" len="6" pos="1212"/>
          <note key="70" vol="100" pan="0" len="6" pos="1212"/>
          <note key="62" vol="100" pan="0" len="6" pos="1212"/>
          <note key="43" vol="100" pan="0" len="6" pos="1212"/>
          <note key="84" vol="100" pan="0" len="30" pos="1224"/>
          <note key="81" vol="100" pan="0" len="30" pos="1224"/>
          <note key="43" vol="100" pan="0" len="6" pos="1224"/>
          <note key="70" vol="100" pan="0" len="30" pos="1248"/>
          <note key="62" vol="100" pan="0" len="30" pos="1248"/>
          <note key="46" vol="100" pan="0" len="18" pos="1248"/>
          <note key="84" vol="100" pan="0" len="6" pos="1260"/>
          <note key="81" vol="100" pan="0" len="6" pos="1260"/>
          <note key="82" vol="100" pan="0" len="18" pos="1272"/>
          <note key="79" vol="100" pan="0" len="18" pos="1272"/>
          <note key="43" vol="100" pan="0" len="6" pos="1272"/>
          <note key="69" vol="100" pan="0" len="6" pos="1284"/>
          <note key="60" vol="100" pan="0" len="6" pos="1284"/>
          <note key="81" vol="100" pan="0" len="18" pos="1296"/>
          <note key="77" vol="100" pan="0" len="18" pos="1296"/>
          <note key="45" vol="100" pan="0" len="6" pos="1296"/>
          <note key="77" vol="100" pan="0" len="18" pos="1320"/>
          <note key="74" vol="100" pan="0" len="18" pos="1320"/>
          <note key="69" vol="100" pan="0" len="18" pos="1320"/>
          <note key="60" vol="100" pan="0" len="18" pos="1320"/>
          <note key="46" vol="100" pan="0" len="18" pos="1320"/>
          <note key="84" vol="100" pan="0" len="30" pos="1344"/>
          <note key="76" vol="100" pan="0" len="30" pos="1344"/>
          <note key="64" vol="100" pan="0" len="30" pos="1344"/>
          <note key="60" vol="100" pan="0" len="30" pos="1344"/>
          <note key="36" vol="100" pan="0" len="30" pos="1344"/>
          <note key="84" vol="100" pan="0" len="18" pos="1380"/>
          <note key="76" vol="100" pan="0" len="18" pos="1380"/>
          <note key="64" vol="100" pan="0" len="30" pos="1380"/>
          <note key="60" vol="100" pan="0" len="30" pos="1380"/>
          <note key="48" vol="100" pan="0" len="30" pos="1380"/>
          <note key="84" vol="100" pan="0" len="6" pos="1404"/>
          <note key="76" vol="100" pan="0" len="6" pos="1404"/>
          <note key="82" vol="100" pan="0" len="30" pos="1416"/>
          <note key="74" vol="100" pan="0" len="30" pos="1416"/>
          <note key="62" vol="100" pan="0" len="30" pos="1416"/>
          <note key="58" vol="100" pan="0" len="30" pos="1416"/>
          <note key="36" vol="100" pan="0" len="30" pos="1416"/>
          <note key="82" vol="100" pan="0" len="18" pos="1452"/>
          <note key="74" vol="100" pan="0" len="18" pos="1452"/>
          <note key="62" vol="100" pan="0" len="30" pos="1452"/>
          <note key="58" vol="100" pan="0" len="30" pos="1452"/>
          <note key="48" vol="100" pan="0" len="30" pos="1452"/>
          <note key="82" vol="100" pan="0" len="18" pos="1476"/>
          <note key="74" vol="100" pan="0" len="18" pos="1476"/>
          <note key="62" vol="100" pan="0" len="18" pos="1488"/>
          <note key="58" vol="100" pan="0" len="18" pos="1488"/>
          <note key="36" vol="100" pan="0" len="18" pos="1488"/>
          <note key="82" vol="100" pan="0" len="6" pos="1500"/>
          <note key="74" vol="100" pan="0" len="6" pos="1500"/>
          <note key="81" vol="100" pan="0" len="18" pos="1512"/>
          <note key="72" vol="100" pan="0" len="18" pos="1512"/>
          <note key="60" vol="100" pan="0" len="18" pos="1512"/>
          <note key="52" vol="100" pan="0" len="18" pos="1512"/>
          <note key="40" vol="100" pan="0" len="18" pos="1512"/>
          <note key="79" vol="100" pan="0" len="144" pos="1536"/>
          <note key="70" vol="100" pan="0" len="144" pos="1536"/>
          <note key="62" vol="100" pan="0" len="144" pos="1536"/>
          <note key="55" vol="100" pan="0" len="144" pos="1536"/>
          <note key="43" vol="100" pan="0" len="144" pos="1536"/>
        </midiclip>
        <midiclip type="1" name="" muted="0" steps="16" pos="0">
          <note key="72" vol="100" pan="0" len="168" pos="0"/>
          <note key="77" vol="100" pan="0" len="48" pos="24"/>
          <note key="79" vol="100" pan="0" len="120" pos="48"/>
          <note key="77" vol="100" pan="0" len="120" pos="72"/>
          <note key="72" vol="100" pan="0" len="168" pos="168"/>
          <note key="77" vol="100" pan="0" len="168" pos="192"/>
          <note key="79" vol="100" pan="0" len="120" pos="216"/>
          <note key="72" vol="100" pan="0" len="168" pos="336"/>
          <note key="77" vol="100" pan="0" len="48" pos="360"/>
          <note key="79" vol="100" pan="0" len="120" pos="384"/>
          <note key="77" vol="100" pan="0" len="120" pos="408"/>
          <note key="72" vol="100" pan="0" len="168" pos="504"/>
          <note key="77" vol="100" pan="0" len="168" pos="528"/>
          <note key="79" vol="100" pan="0" len="144" pos="552"/>
          <note key="70" vol="100" pan="0" len="144" pos="672"/>
          <note key="58" vol="100" pan="0" len="144" pos="672"/>
          <note key="77" vol="100" pan="0" len="144" pos="696"/>
          <note key="79" vol="100" pan="0" len="96" pos="720"/>
          <note key="74" vol="100" pan="0" len="120" pos="744"/>
          <note key="75" vol="100" pan="0" len="24" pos="792"/>
          <note key="68" vol="100" pan="0" len="144" pos="816"/>
          <note key="56" vol="100" pan="0" len="144" pos="816"/>
          <note key="72" vol="100" pan="0" len="120" pos="840"/>
          <note key="77" vol="100" pan="0" len="72" pos="864"/>
          <note key="75" vol="100" pan="0" len="120" pos="888"/>
          <note key="77" vol="100" pan="0" len="24" pos="936"/>
          <note key="67" vol="100" pan="0" len="264" pos="960"/>
          <note key="55" vol="100" pan="0" len="288" pos="960"/>
          <note key="70" vol="100" pan="0" len="264" pos="984"/>
          <note key="74" vol="100" pan="0" len="240" pos="1008"/>
          <note key="77" vol="100" pan="0" len="216" pos="1032"/>
          <note key="79" vol="100" pan="0" len="144" pos="1104"/>
          <note key="65" vol="100" pan="0" len="72" pos="1176"/>
          <note key="67" vol="100" pan="0" len="24" pos="1224"/>
          <note key="72" vol="100" pan="0" len="480" pos="1248"/>
          <note key="67" vol="100" pan="0" len="480" pos="1248"/>
          <note key="60" vol="100" pan="0" len="480" pos="1248"/>
          <note key="48" vol="100" pan="0" len="408" pos="1320"/>
          <note key="36" vol="100" pan="0" len="336" pos="1392"/>
        </midiclip>
      </track>
      <track solo="0" type="0" name="Dore Mark's Fazioli F308-v3" muted="1" mutedBeforeSolo="0">
        <instrumenttrack pitchrange="12" vol="100" pitch="0" lastkey="127" enabled="0" pan="0" usemasterpitch="1" basenote="69" mixch="1" keymap="0" enablecc="0" range_import="1" firstkey="0" scale="0">
          <midicontrollers cc56="0" cc92="0" cc46="0" cc0="0" cc36="0" cc122="0" cc63="0" cc93="0" cc66="0" cc80="0" cc123="0" cc104="0" cc59="0" cc81="0" cc106="0" cc64="0" cc6="0" cc5="0" cc96="0" cc114="0" cc79="0" cc91="0" cc25="0" cc10="0" cc86="0" cc2="0" cc16="0" cc53="0" cc97="0" cc44="0" cc20="0" cc75="0" cc34="0" cc62="0" cc98="0" cc51="0" cc84="0" cc69="0" cc101="0" cc52="0" cc121="0" cc42="0" cc78="0" cc30="0" cc82="0" cc107="0" cc22="0" cc33="0" cc47="0" cc61="0" cc15="0" cc48="0" cc109="0" cc9="0" cc7="0" cc17="0" cc71="0" cc73="0" cc43="0" cc112="0" cc127="0" cc28="0" cc76="0" cc58="0" cc125="0" cc26="0" cc94="0" cc105="0" cc54="0" cc117="0" cc8="0" cc77="0" cc99="0" cc116="0" cc50="0" cc4="0" cc45="0" cc40="0" cc27="0" cc83="0" cc102="0" cc23="0" cc12="0" cc65="0" cc57="0" cc88="0" cc118="0" cc11="0" cc89="0" cc110="0" cc18="0" cc70="0" cc29="0" cc3="0" cc55="0" cc35="0" cc95="0" cc85="0" cc19="0" cc115="0" cc120="0" cc39="0" cc67="0" cc72="0" cc90="0" cc126="0" cc119="0" cc1="0" cc68="0" cc14="0" cc38="0" cc49="0" cc21="0" cc87="0" cc32="0" cc37="0" cc100="0" cc103="0" cc74="0" cc111="0" cc113="0" cc24="0" cc31="0" cc60="0" cc41="0" cc13="0" cc124="0" cc108="0"/>
          <instrument name="sf2player">
            <sf2player bank="0" gain="0.38" reverbOn="0" reverbWidth="0.5" chorusLevel="2" src="usersoundfont:Dore Mark's Fazioli F308-v3.0.sf2" chorusDepth="8" patch="0" reverbRoomSize="0.2" reverbLevel="0.9" chorusOn="0" chorusNum="3" chorusSpeed="0.3" reverbDamping="0">
              <key/>
            </sf2player>
          </instrument>
          <eldata fcut="14000" fres="0.5" ftype="0" fwet="0">
            <elvol sustain="0.5" lspd="0.1" lspd_syncmode="0" amt="0" hold="0.5" lspd_denominator="4" att="0" pdel="0" userwavefile="" lshp="0" x100="0" ctlenvamt="0" lpdel="0" rel="0.1" dec="0.5" lamt="0" lspd_numerator="4" latt="0"/>
            <elcut sustain="0.5" lspd="0.1" lspd_syncmode="0" amt="0" hold="0.5" lspd_denominator="4" att="0" pdel="0" userwavefile="" lshp="0" x100="0" ctlenvamt="0" lpdel="0" rel="0.1" dec="0.5" lamt="0" lspd_numerator="4" latt="0"/>
            <elres sustain="0.5" lspd="0.1" lspd_syncmode="0" amt="0" hold="0.5" lspd_denominator="4" att="0" pdel="0" userwavefile="" lshp="0" x100="0" ctlenvamt="0" lpdel="0" rel="0.1" dec="0.5" lamt="0" lspd_numerator="4" latt="0"/>
          </eldata>
          <chordcreator chordrange="1" chord-enabled="0" chord="0"/>
          <arpeggiator arp-enabled="0" arpcycle="0" arprange="1" arpgate="100" arptime_numerator="4" arptime_syncmode="0" arpskip="0" arptime_denominator="4" arptime="200" arpdir="0" arp="0" arpmode="0" arprepeats="1" arpmiss="0"/>
          <midiport fixedinputvelocity="-1" readable="1" outputcontroller="0" inports="" inputcontroller="0" inputchannel="0" outputchannel="1" fixedoutputnote="-1" basevelocity="83" writable="0" fixedoutputvelocity="-1" outputprogram="1"/>
          <fxchain enabled="0" numofeffects="0"/>
        </instrumenttrack>
        <midiclip type="1" name="" muted="0" steps="16" pos="0">
          <note key="67" vol="100" pan="0" len="168" pos="0"/>
          <note key="72" vol="100" pan="0" len="48" pos="24"/>
          <note key="74" vol="100" pan="0" len="120" pos="48"/>
          <note key="72" vol="100" pan="0" len="120" pos="72"/>
          <note key="67" vol="100" pan="0" len="168" pos="168"/>
          <note key="72" vol="100" pan="0" len="168" pos="192"/>
          <note key="74" vol="100" pan="0" len="120" pos="216"/>
          <note key="67" vol="100" pan="0" len="168" pos="336"/>
          <note key="72" vol="100" pan="0" len="48" pos="360"/>
          <note key="74" vol="100" pan="0" len="120" pos="384"/>
          <note key="72" vol="100" pan="0" len="120" pos="408"/>
          <note key="67" vol="100" pan="0" len="168" pos="504"/>
          <note key="72" vol="100" pan="0" len="168" pos="528"/>
          <note key="74" vol="100" pan="0" len="144" pos="552"/>
          <note key="65" vol="100" pan="0" len="144" pos="672"/>
          <note key="53" vol="100" pan="0" len="144" pos="672"/>
          <note key="72" vol="100" pan="0" len="144" pos="696"/>
          <note key="74" vol="100" pan="0" len="96" pos="720"/>
          <note key="69" vol="100" pan="0" len="120" pos="744"/>
          <note key="70" vol="100" pan="0" len="24" pos="792"/>
          <note key="63" vol="100" pan="0" len="144" pos="816"/>
          <note key="51" vol="100" pan="0" len="144" pos="816"/>
          <note key="67" vol="100" pan="0" len="120" pos="840"/>
          <note key="72" vol="100" pan="0" len="72" pos="864"/>
          <note key="70" vol="100" pan="0" len="120" pos="888"/>
          <note key="72" vol="100" pan="0" len="24" pos="936"/>
          <note key="62" vol="100" pan="0" len="264" pos="960"/>
          <note key="50" vol="100" pan="0" len="288" pos="960"/>
          <note key="65" vol="100" pan="0" len="264" pos="984"/>
          <note key="69" vol="100" pan="0" len="240" pos="1008"/>
          <note key="72" vol="100" pan="0" len="216" pos="1032"/>
          <note key="74" vol="100" pan="0" len="144" pos="1104"/>
          <note key="60" vol="100" pan="0" len="72" pos="1176"/>
          <note key="62" vol="100" pan="0" len="24" pos="1224"/>
          <note key="67" vol="100" pan="0" len="480" pos="1248"/>
          <note key="62" vol="100" pan="0" len="480" pos="1248"/>
          <note key="55" vol="100" pan="0" len="480" pos="1248"/>
          <note key="43" vol="100" pan="0" len="408" pos="1320"/>
          <note key="31" vol="100" pan="0" len="336" pos="1392"/>
        </midiclip>
        <midiclip type="1" name="" muted="0" steps="16" pos="3264">
          <note key="65" vol="100" pan="0" len="168" pos="0"/>
          <note key="62" vol="100" pan="0" len="168" pos="0"/>
          <note key="38" vol="100" pan="0" len="24" pos="0"/>
          <note key="41" vol="100" pan="0" len="24" pos="24"/>
          <note key="45" vol="100" pan="0" len="24" pos="48"/>
          <note key="41" vol="100" pan="0" len="24" pos="72"/>
          <note key="50" vol="100" pan="0" len="24" pos="96"/>
          <note key="45" vol="100" pan="0" len="24" pos="120"/>
          <note key="41" vol="100" pan="0" len="24" pos="144"/>
          <note key="67" vol="100" pan="0" len="144" pos="168"/>
          <note key="62" vol="100" pan="0" len="144" pos="168"/>
          <note key="43" vol="100" pan="0" len="24" pos="168"/>
          <note key="46" vol="100" pan="0" len="24" pos="192"/>
          <note key="50" vol="100" pan="0" len="24" pos="216"/>
          <note key="38" vol="100" pan="0" len="24" pos="240"/>
          <note key="43" vol="100" pan="0" len="24" pos="264"/>
          <note key="46" vol="100" pan="0" len="24" pos="288"/>
          <note key="67" vol="100" pan="0" len="72" pos="312"/>
          <note key="64" vol="100" pan="0" len="72" pos="312"/>
          <note key="48" vol="100" pan="0" len="24" pos="312"/>
          <note key="52" vol="100" pan="0" len="24" pos="336"/>
          <note key="48" vol="100" pan="0" len="24" pos="360"/>
          <note key="64" vol="100" pan="0" len="24" pos="384"/>
          <note key="60" vol="100" pan="0" len="24" pos="384"/>
          <note key="43" vol="100" pan="0" len="24" pos="384"/>
          <note key="65" vol="100" pan="0" len="48" pos="408"/>
          <note key="62" vol="100" pan="0" len="48" pos="408"/>
          <note key="48" vol="100" pan="0" len="24" pos="408"/>
          <note key="52" vol="100" pan="0" len="24" pos="432"/>
          <note key="65" vol="100" pan="0" len="144" pos="456"/>
          <note key="62" vol="100" pan="0" len="144" pos="456"/>
          <note key="50" vol="100" pan="0" len="24" pos="456"/>
          <note key="45" vol="100" pan="0" len="24" pos="480"/>
          <note key="41" vol="100" pan="0" len="24" pos="504"/>
          <note key="45" vol="100" pan="0" len="24" pos="528"/>
          <note key="38" vol="100" pan="0" len="24" pos="552"/>
          <note key="41" vol="100" pan="0" len="24" pos="576"/>
          <note key="62" vol="100" pan="0" len="96" pos="600"/>
          <note key="57" vol="100" pan="0" len="96" pos="600"/>
          <note key="53" vol="100" pan="0" len="96" pos="600"/>
          <note key="38" vol="100" pan="0" len="24" pos="600"/>
          <note key="41" vol="100" pan="0" len="24" pos="624"/>
          <note key="45" vol="100" pan="0" len="24" pos="648"/>
          <note key="41" vol="100" pan="0" len="24" pos="672"/>
          <note key="60" vol="100" pan="0" len="48" pos="696"/>
          <note key="57" vol="100" pan="0" len="48" pos="696"/>
          <note key="53" vol="100" pan="0" len="48" pos="696"/>
          <note key="50" vol="100" pan="0" len="24" pos="696"/>
          <note key="45" vol="100" pan="0" len="24" pos="720"/>
          <note key="62" vol="100" pan="0" len="144" pos="744"/>
          <note key="58" vol="100" pan="0" len="144" pos="744"/>
          <note key="55" vol="100" pan="0" len="144" pos="744"/>
          <note key="46" vol="100" pan="0" len="24" pos="744"/>
          <note key="43" vol="100" pan="0" len="24" pos="768"/>
          <note key="46" vol="100" pan="0" len="24" pos="792"/>
          <note key="50" vol="100" pan="0" len="24" pos="816"/>
          <note key="38" vol="100" pan="0" len="24" pos="840"/>
          <note key="43" vol="100" pan="0" len="24" pos="864"/>
          <note key="64" vol="100" pan="0" len="96" pos="888"/>
          <note key="60" vol="100" pan="0" len="96" pos="888"/>
          <note key="55" vol="100" pan="0" len="96" pos="888"/>
          <note key="48" vol="100" pan="0" len="24" pos="888"/>
          <note key="52" vol="100" pan="0" len="24" pos="912"/>
          <note key="48" vol="100" pan="0" len="24" pos="936"/>
          <note key="43" vol="100" pan="0" len="24" pos="960"/>
          <note key="65" vol="100" pan="0" len="48" pos="984"/>
          <note key="62" vol="100" pan="0" len="48" pos="984"/>
          <note key="58" vol="100" pan="0" len="48" pos="984"/>
          <note key="50" vol="100" pan="0" len="24" pos="984"/>
          <note key="53" vol="100" pan="0" len="24" pos="1008"/>
          <note key="64" vol="100" pan="0" len="144" pos="1032"/>
          <note key="61" vol="100" pan="0" len="144" pos="1032"/>
          <note key="57" vol="100" pan="0" len="144" pos="1032"/>
          <note key="49" vol="100" pan="0" len="24" pos="1032"/>
          <note key="45" vol="100" pan="0" len="24" pos="1056"/>
          <note key="40" vol="100" pan="0" len="24" pos="1080"/>
          <note key="45" vol="100" pan="0" len="24" pos="1104"/>
          <note key="33" vol="100" pan="0" len="24" pos="1128"/>
          <note key="40" vol="100" pan="0" len="24" pos="1152"/>
          <note key="61" vol="100" pan="0" len="36" pos="1176"/>
          <note key="57" vol="100" pan="0" len="36" pos="1176"/>
          <note key="40" vol="100" pan="0" len="36" pos="1176"/>
          <note key="61" vol="100" pan="0" len="36" pos="1212"/>
          <note key="57" vol="100" pan="0" len="36" pos="1212"/>
          <note key="33" vol="100" pan="0" len="36" pos="1212"/>
          <note key="61" vol="100" pan="0" len="84" pos="1248"/>
          <note key="57" vol="100" pan="0" len="84" pos="1248"/>
          <note key="40" vol="100" pan="0" len="84" pos="1248"/>
          <note key="61" vol="100" pan="0" len="36" pos="1332"/>
          <note key="57" vol="100" pan="0" len="36" pos="1332"/>
          <note key="49" vol="100" pan="0" len="36" pos="1332"/>
          <note key="61" vol="100" pan="0" len="36" pos="1368"/>
          <note key="57" vol="100" pan="0" len="36" pos="1368"/>
          <note key="45" vol="100" pan="0" len="36" pos="1368"/>
          <note key="61" vol="100" pan="0" len="132" pos="1404"/>
          <note key="57" vol="100" pan="0" len="132" pos="1404"/>
          <note key="33" vol="100" pan="0" len="132" pos="1404"/>
        </midiclip>
        <midiclip type="1" name="" muted="0" steps="16" pos="4800">
          <note key="45" vol="100" pan="0" len="12" pos="0"/>
          <note key="38" vol="100" pan="0" len="12" pos="12"/>
          <note key="65" vol="100" pan="0" len="36" pos="24"/>
          <note key="57" vol="100" pan="0" len="36" pos="24"/>
          <note key="38" vol="100" pan="0" len="24" pos="36"/>
          <note key="65" vol="100" pan="0" len="12" pos="60"/>
          <note key="57" vol="100" pan="0" len="12" pos="60"/>
          <note key="38" vol="100" pan="0" len="12" pos="60"/>
          <note key="38" vol="100" pan="0" len="12" pos="72"/>
          <note key="65" vol="100" pan="0" len="36" pos="96"/>
          <note key="57" vol="100" pan="0" len="36" pos="96"/>
          <note key="41" vol="100" pan="0" len="24" pos="96"/>
          <note key="38" vol="100" pan="0" len="12" pos="120"/>
          <note key="64" vol="100" pan="0" len="12" pos="132"/>
          <note key="55" vol="100" pan="0" len="12" pos="132"/>
          <note key="40" vol="100" pan="0" len="12" pos="144"/>
          <note key="64" vol="100" pan="0" len="24" pos="168"/>
          <note key="55" vol="100" pan="0" len="24" pos="168"/>
          <note key="41" vol="100" pan="0" len="24" pos="168"/>
          <note key="45" vol="100" pan="0" len="12" pos="192"/>
          <note key="38" vol="100" pan="0" len="12" pos="204"/>
          <note key="65" vol="100" pan="0" len="36" pos="216"/>
          <note key="57" vol="100" pan="0" len="36" pos="216"/>
          <note key="38" vol="100" pan="0" len="24" pos="228"/>
          <note key="65" vol="100" pan="0" len="12" pos="252"/>
          <note key="57" vol="100" pan="0" len="12" pos="252"/>
          <note key="45" vol="100" pan="0" len="12" pos="252"/>
          <note key="43" vol="100" pan="0" len="48" pos="264"/>
          <note key="67" vol="100" pan="0" len="36" pos="288"/>
          <note key="59" vol="100" pan="0" len="36" pos="288"/>
          <note key="43" vol="100" pan="0" len="12" pos="312"/>
          <note key="69" vol="100" pan="0" len="12" pos="324"/>
          <note key="60" vol="100" pan="0" len="12" pos="324"/>
          <note key="41" vol="100" pan="0" len="12" pos="336"/>
          <note key="67" vol="100" pan="0" len="24" pos="360"/>
          <note key="59" vol="100" pan="0" len="24" pos="360"/>
          <note key="43" vol="100" pan="0" len="24" pos="360"/>
          <note key="45" vol="100" pan="0" len="12" pos="384"/>
          <note key="38" vol="100" pan="0" len="12" pos="396"/>
          <note key="65" vol="100" pan="0" len="36" pos="408"/>
          <note key="57" vol="100" pan="0" len="36" pos="408"/>
          <note key="38" vol="100" pan="0" len="24" pos="420"/>
          <note key="65" vol="100" pan="0" len="12" pos="444"/>
          <note key="57" vol="100" pan="0" len="12" pos="444"/>
          <note key="38" vol="100" pan="0" len="12" pos="444"/>
          <note key="38" vol="100" pan="0" len="12" pos="456"/>
          <note key="65" vol="100" pan="0" len="36" pos="480"/>
          <note key="57" vol="100" pan="0" len="36" pos="480"/>
          <note key="41" vol="100" pan="0" len="24" pos="480"/>
          <note key="38" vol="100" pan="0" len="12" pos="504"/>
          <note key="64" vol="100" pan="0" len="12" pos="516"/>
          <note key="55" vol="100" pan="0" len="12" pos="516"/>
          <note key="40" vol="100" pan="0" len="12" pos="528"/>
          <note key="64" vol="100" pan="0" len="24" pos="552"/>
          <note key="55" vol="100" pan="0" len="24" pos="552"/>
          <note key="41" vol="100" pan="0" len="24" pos="552"/>
          <note key="43" vol="100" pan="0" len="12" pos="576"/>
          <note key="35" vol="100" pan="0" len="12" pos="588"/>
          <note key="62" vol="100" pan="0" len="36" pos="600"/>
          <note key="55" vol="100" pan="0" len="36" pos="600"/>
          <note key="35" vol="100" pan="0" len="24" pos="612"/>
          <note key="62" vol="100" pan="0" len="12" pos="636"/>
          <note key="55" vol="100" pan="0" len="12" pos="636"/>
          <note key="47" vol="100" pan="0" len="12" pos="636"/>
          <note key="43" vol="100" pan="0" len="36" pos="648"/>
          <note key="67" vol="100" pan="0" len="36" pos="672"/>
          <note key="59" vol="100" pan="0" len="36" pos="672"/>
          <note key="41" vol="100" pan="0" len="12" pos="696"/>
          <note key="69" vol="100" pan="0" len="12" pos="708"/>
          <note key="60" vol="100" pan="0" len="12" pos="708"/>
          <note key="43" vol="100" pan="0" len="12" pos="720"/>
          <note key="67" vol="100" pan="0" len="24" pos="744"/>
          <note key="59" vol="100" pan="0" len="24" pos="744"/>
          <note key="47" vol="100" pan="0" len="24" pos="744"/>
          <note key="45" vol="100" pan="0" len="12" pos="768"/>
          <note key="38" vol="100" pan="0" len="12" pos="780"/>
          <note key="65" vol="100" pan="0" len="36" pos="792"/>
          <note key="57" vol="100" pan="0" len="36" pos="792"/>
          <note key="38" vol="100" pan="0" len="24" pos="804"/>
          <note key="65" vol="100" pan="0" len="12" pos="828"/>
          <note key="57" vol="100" pan="0" len="12" pos="828"/>
          <note key="38" vol="100" pan="0" len="12" pos="828"/>
          <note key="38" vol="100" pan="0" len="12" pos="840"/>
          <note key="65" vol="100" pan="0" len="36" pos="864"/>
          <note key="57" vol="100" pan="0" len="36" pos="864"/>
          <note key="41" vol="100" pan="0" len="24" pos="864"/>
          <note key="38" vol="100" pan="0" len="12" pos="888"/>
          <note key="64" vol="100" pan="0" len="12" pos="900"/>
          <note key="55" vol="100" pan="0" len="12" pos="900"/>
          <note key="40" vol="100" pan="0" len="12" pos="912"/>
          <note key="64" vol="100" pan="0" len="24" pos="936"/>
          <note key="55" vol="100" pan="0" len="24" pos="936"/>
          <note key="41" vol="100" pan="0" len="24" pos="936"/>
          <note key="45" vol="100" pan="0" len="12" pos="960"/>
          <note key="38" vol="100" pan="0" len="12" pos="972"/>
          <note key="65" vol="100" pan="0" len="36" pos="984"/>
          <note key="57" vol="100" pan="0" len="36" pos="984"/>
          <note key="38" vol="100" pan="0" len="24" pos="996"/>
          <note key="65" vol="100" pan="0" len="12" pos="1020"/>
          <note key="57" vol="100" pan="0" len="12" pos="1020"/>
          <note key="45" vol="100" pan="0" len="12" pos="1020"/>
          <note key="43" vol="100" pan="0" len="48" pos="1032"/>
          <note key="67" vol="100" pan="0" len="36" pos="1056"/>
          <note key="59" vol="100" pan="0" len="36" pos="1056"/>
          <note key="43" vol="100" pan="0" len="12" pos="1080"/>
          <note key="69" vol="100" pan="0" len="12" pos="1092"/>
          <note key="60" vol="100" pan="0" len="12" pos="1092"/>
          <note key="41" vol="100" pan="0" len="12" pos="1104"/>
          <note key="67" vol="100" pan="0" len="24" pos="1128"/>
          <note key="59" vol="100" pan="0" len="24" pos="1128"/>
          <note key="43" vol="100" pan="0" len="24" pos="1128"/>
          <note key="45" vol="100" pan="0" len="12" pos="1152"/>
          <note key="38" vol="100" pan="0" len="12" pos="1164"/>
          <note key="65" vol="100" pan="0" len="36" pos="1176"/>
          <note key="57" vol="100" pan="0" len="36" pos="1176"/>
          <note key="38" vol="100" pan="0" len="24" pos="1188"/>
          <note key="65" vol="100" pan="0" len="12" pos="1212"/>
          <note key="57" vol="100" pan="0" len="12" pos="1212"/>
          <note key="38" vol="100" pan="0" len="12" pos="1212"/>
          <note key="38" vol="100" pan="0" len="12" pos="1224"/>
          <note key="65" vol="100" pan="0" len="36" pos="1248"/>
          <note key="57" vol="100" pan="0" len="36" pos="1248"/>
          <note key="41" vol="100" pan="0" len="24" pos="1248"/>
          <note key="38" vol="100" pan="0" len="12" pos="1272"/>
          <note key="64" vol="100" pan="0" len="12" pos="1284"/>
          <note key="55" vol="100" pan="0" len="12" pos="1284"/>
          <note key="40" vol="100" pan="0" len="12" pos="1296"/>
          <note key="64" vol="100" pan="0" len="24" pos="1320"/>
          <note key="55" vol="100" pan="0" len="24" pos="1320"/>
          <note key="41" vol="100" pan="0" len="24" pos="1320"/>
          <note key="59" vol="100" pan="0" len="36" pos="1344"/>
          <note key="55" vol="100" pan="0" len="36" pos="1344"/>
          <note key="31" vol="100" pan="0" len="36" pos="1344"/>
          <note key="59" vol="100" pan="0" len="36" pos="1380"/>
          <note key="55" vol="100" pan="0" len="36" pos="1380"/>
          <note key="43" vol="100" pan="0" len="36" pos="1380"/>
          <note key="57" vol="100" pan="0" len="36" pos="1416"/>
          <note key="53" vol="100" pan="0" len="36" pos="1416"/>
          <note key="31" vol="100" pan="0" len="36" pos="1416"/>
          <note key="57" vol="100" pan="0" len="36" pos="1452"/>
          <note key="53" vol="100" pan="0" len="36" pos="1452"/>
          <note key="43" vol="100" pan="0" len="36" pos="1452"/>
          <note key="57" vol="100" pan="0" len="24" pos="1488"/>
          <note key="53" vol="100" pan="0" len="24" pos="1488"/>
          <note key="31" vol="100" pan="0" len="24" pos="1488"/>
          <note key="55" vol="100" pan="0" len="24" pos="1512"/>
          <note key="47" vol="100" pan="0" len="24" pos="1512"/>
          <note key="35" vol="100" pan="0" len="24" pos="1512"/>
          <note key="57" vol="100" pan="0" len="720" pos="1536"/>
          <note key="50" vol="100" pan="0" len="720" pos="1536"/>
          <note key="38" vol="100" pan="0" len="720" pos="1536"/>
        </midiclip>
        <midiclip type="1" name="" muted="0" steps="16" pos="1728">
          <note key="50" vol="100" pan="0" len="12" pos="0"/>
          <note key="43" vol="100" pan="0" len="12" pos="12"/>
          <note key="62" vol="100" pan="0" len="36" pos="24"/>
          <note key="58" vol="100" pan="0" len="36" pos="24"/>
          <note key="43" vol="100" pan="0" len="24" pos="36"/>
          <note key="62" vol="100" pan="0" len="12" pos="60"/>
          <note key="58" vol="100" pan="0" len="12" pos="60"/>
          <note key="43" vol="100" pan="0" len="12" pos="60"/>
          <note key="43" vol="100" pan="0" len="12" pos="72"/>
          <note key="62" vol="100" pan="0" len="36" pos="96"/>
          <note key="58" vol="100" pan="0" len="36" pos="96"/>
          <note key="46" vol="100" pan="0" len="24" pos="96"/>
          <note key="43" vol="100" pan="0" len="12" pos="120"/>
          <note key="60" vol="100" pan="0" len="12" pos="132"/>
          <note key="55" vol="100" pan="0" len="12" pos="132"/>
          <note key="45" vol="100" pan="0" len="12" pos="144"/>
          <note key="60" vol="100" pan="0" len="24" pos="168"/>
          <note key="55" vol="100" pan="0" len="24" pos="168"/>
          <note key="46" vol="100" pan="0" len="24" pos="168"/>
          <note key="50" vol="100" pan="0" len="12" pos="192"/>
          <note key="43" vol="100" pan="0" len="12" pos="204"/>
          <note key="62" vol="100" pan="0" len="36" pos="216"/>
          <note key="58" vol="100" pan="0" len="36" pos="216"/>
          <note key="43" vol="100" pan="0" len="24" pos="228"/>
          <note key="62" vol="100" pan="0" len="12" pos="252"/>
          <note key="58" vol="100" pan="0" len="12" pos="252"/>
          <note key="50" vol="100" pan="0" len="12" pos="252"/>
          <note key="48" vol="100" pan="0" len="48" pos="264"/>
          <note key="64" vol="100" pan="0" len="36" pos="288"/>
          <note key="60" vol="100" pan="0" len="36" pos="288"/>
          <note key="48" vol="100" pan="0" len="12" pos="312"/>
          <note key="65" vol="100" pan="0" len="12" pos="324"/>
          <note key="60" vol="100" pan="0" len="12" pos="324"/>
          <note key="46" vol="100" pan="0" len="12" pos="336"/>
          <note key="64" vol="100" pan="0" len="24" pos="360"/>
          <note key="60" vol="100" pan="0" len="24" pos="360"/>
          <note key="48" vol="100" pan="0" len="24" pos="360"/>
          <note key="50" vol="100" pan="0" len="12" pos="384"/>
          <note key="43" vol="100" pan="0" len="12" pos="396"/>
          <note key="62" vol="100" pan="0" len="36" pos="408"/>
          <note key="58" vol="100" pan="0" len="36" pos="408"/>
          <note key="43" vol="100" pan="0" len="24" pos="420"/>
          <note key="62" vol="100" pan="0" len="12" pos="444"/>
          <note key="58" vol="100" pan="0" len="12" pos="444"/>
          <note key="43" vol="100" pan="0" len="12" pos="444"/>
          <note key="43" vol="100" pan="0" len="12" pos="456"/>
          <note key="62" vol="100" pan="0" len="36" pos="480"/>
          <note key="58" vol="100" pan="0" len="36" pos="480"/>
          <note key="46" vol="100" pan="0" len="24" pos="480"/>
          <note key="43" vol="100" pan="0" len="12" pos="504"/>
          <note key="60" vol="100" pan="0" len="12" pos="516"/>
          <note key="55" vol="100" pan="0" len="12" pos="516"/>
          <note key="45" vol="100" pan="0" len="12" pos="528"/>
          <note key="60" vol="100" pan="0" len="24" pos="552"/>
          <note key="55" vol="100" pan="0" len="24" pos="552"/>
          <note key="46" vol="100" pan="0" len="24" pos="552"/>
          <note key="48" vol="100" pan="0" len="12" pos="576"/>
          <note key="40" vol="100" pan="0" len="12" pos="588"/>
          <note key="60" vol="100" pan="0" len="36" pos="600"/>
          <note key="55" vol="100" pan="0" len="36" pos="600"/>
          <note key="40" vol="100" pan="0" len="24" pos="612"/>
          <note key="60" vol="100" pan="0" len="12" pos="636"/>
          <note key="55" vol="100" pan="0" len="12" pos="636"/>
          <note key="52" vol="100" pan="0" len="12" pos="636"/>
          <note key="48" vol="100" pan="0" len="36" pos="648"/>
          <note key="64" vol="100" pan="0" len="36" pos="672"/>
          <note key="60" vol="100" pan="0" len="36" pos="672"/>
          <note key="46" vol="100" pan="0" len="12" pos="696"/>
          <note key="65" vol="100" pan="0" len="12" pos="708"/>
          <note key="60" vol="100" pan="0" len="12" pos="708"/>
          <note key="48" vol="100" pan="0" len="12" pos="720"/>
          <note key="64" vol="100" pan="0" len="24" pos="744"/>
          <note key="60" vol="100" pan="0" len="24" pos="744"/>
          <note key="52" vol="100" pan="0" len="24" pos="744"/>
          <note key="50" vol="100" pan="0" len="12" pos="768"/>
          <note key="43" vol="100" pan="0" len="12" pos="780"/>
          <note key="62" vol="100" pan="0" len="36" pos="792"/>
          <note key="58" vol="100" pan="0" len="36" pos="792"/>
          <note key="43" vol="100" pan="0" len="24" pos="804"/>
          <note key="62" vol="100" pan="0" len="12" pos="828"/>
          <note key="58" vol="100" pan="0" len="12" pos="828"/>
          <note key="43" vol="100" pan="0" len="12" pos="828"/>
          <note key="43" vol="100" pan="0" len="12" pos="840"/>
          <note key="62" vol="100" pan="0" len="36" pos="864"/>
          <note key="58" vol="100" pan="0" len="36" pos="864"/>
          <note key="46" vol="100" pan="0" len="24" pos="864"/>
          <note key="43" vol="100" pan="0" len="12" pos="888"/>
          <note key="60" vol="100" pan="0" len="12" pos="900"/>
          <note key="55" vol="100" pan="0" len="12" pos="900"/>
          <note key="45" vol="100" pan="0" len="12" pos="912"/>
          <note key="60" vol="100" pan="0" len="24" pos="936"/>
          <note key="55" vol="100" pan="0" len="24" pos="936"/>
          <note key="46" vol="100" pan="0" len="24" pos="936"/>
          <note key="50" vol="100" pan="0" len="12" pos="960"/>
          <note key="43" vol="100" pan="0" len="12" pos="972"/>
          <note key="62" vol="100" pan="0" len="36" pos="984"/>
          <note key="58" vol="100" pan="0" len="36" pos="984"/>
          <note key="43" vol="100" pan="0" len="24" pos="996"/>
          <note key="62" vol="100" pan="0" len="12" pos="1020"/>
          <note key="58" vol="100" pan="0" len="12" pos="1020"/>
          <note key="50" vol="100" pan="0" len="12" pos="1020"/>
          <note key="48" vol="100" pan="0" len="48" pos="1032"/>
          <note key="64" vol="100" pan="0" len="36" pos="1056"/>
          <note key="60" vol="100" pan="0" len="36" pos="1056"/>
          <note key="48" vol="100" pan="0" len="12" pos="1080"/>
          <note key="65" vol="100" pan="0" len="12" pos="1092"/>
          <note key="60" vol="100" pan="0" len="12" pos="1092"/>
          <note key="46" vol="100" pan="0" len="12" pos="1104"/>
          <note key="64" vol="100" pan="0" len="24" pos="1128"/>
          <note key="60" vol="100" pan="0" len="24" pos="1128"/>
          <note key="48" vol="100" pan="0" len="24" pos="1128"/>
          <note key="50" vol="100" pan="0" len="12" pos="1152"/>
          <note key="43" vol="100" pan="0" len="12" pos="1164"/>
          <note key="62" vol="100" pan="0" len="36" pos="1176"/>
          <note key="58" vol="100" pan="0" len="36" pos="1176"/>
          <note key="43" vol="100" pan="0" len="24" pos="1188"/>
          <note key="62" vol="100" pan="0" len="12" pos="1212"/>
          <note key="58" vol="100" pan="0" len="12" pos="1212"/>
          <note key="43" vol="100" pan="0" len="12" pos="1212"/>
          <note key="43" vol="100" pan="0" len="12" pos="1224"/>
          <note key="62" vol="100" pan="0" len="36" pos="1248"/>
          <note key="58" vol="100" pan="0" len="36" pos="1248"/>
          <note key="46" vol="100" pan="0" len="24" pos="1248"/>
          <note key="43" vol="100" pan="0" len="12" pos="1272"/>
          <note key="60" vol="100" pan="0" len="12" pos="1284"/>
          <note key="55" vol="100" pan="0" len="12" pos="1284"/>
          <note key="45" vol="100" pan="0" len="12" pos="1296"/>
          <note key="60" vol="100" pan="0" len="24" pos="1320"/>
          <note key="55" vol="100" pan="0" len="24" pos="1320"/>
          <note key="46" vol="100" pan="0" len="24" pos="1320"/>
          <note key="64" vol="100" pan="0" len="36" pos="1344"/>
          <note key="60" vol="100" pan="0" len="36" pos="1344"/>
          <note key="36" vol="100" pan="0" len="36" pos="1344"/>
          <note key="64" vol="100" pan="0" len="36" pos="1380"/>
          <note key="60" vol="100" pan="0" len="36" pos="1380"/>
          <note key="48" vol="100" pan="0" len="36" pos="1380"/>
          <note key="62" vol="100" pan="0" len="36" pos="1416"/>
          <note key="58" vol="100" pan="0" len="36" pos="1416"/>
          <note key="36" vol="100" pan="0" len="36" pos="1416"/>
          <note key="62" vol="100" pan="0" len="36" pos="1452"/>
          <note key="58" vol="100" pan="0" len="36" pos="1452"/>
          <note key="48" vol="100" pan="0" len="36" pos="1452"/>
          <note key="62" vol="100" pan="0" len="48" pos="1488"/>
          <note key="58" vol="100" pan="0" len="48" pos="1488"/>
          <note key="36" vol="100" pan="0" len="48" pos="1488"/>
        </midiclip>
      </track>
      <track solo="0" type="0" name="Touhou" muted="1" mutedBeforeSolo="0">
        <instrumenttrack pitchrange="1" vol="100" pitch="0" lastkey="127" enabled="0" pan="0" usemasterpitch="1" basenote="69" mixch="2" keymap="0" enablecc="0" range_import="1" firstkey="0" scale="0">
          <midicontrollers cc56="0" cc92="0" cc46="0" cc0="0" cc36="0" cc122="0" cc63="0" cc93="0" cc66="0" cc80="0" cc123="0" cc104="0" cc59="0" cc81="0" cc106="0" cc64="0" cc6="0" cc5="0" cc96="0" cc114="0" cc79="0" cc91="0" cc25="0" cc10="0" cc86="0" cc2="0" cc16="0" cc53="0" cc97="0" cc44="0" cc20="0" cc75="0" cc34="0" cc62="0" cc98="0" cc51="0" cc84="0" cc69="0" cc101="0" cc52="0" cc121="0" cc42="0" cc78="0" cc30="0" cc82="0" cc107="0" cc22="0" cc33="0" cc47="0" cc61="0" cc15="0" cc48="0" cc109="0" cc9="0" cc7="0" cc17="0" cc71="0" cc73="0" cc43="0" cc112="0" cc127="0" cc28="0" cc76="0" cc58="0" cc125="0" cc26="0" cc94="0" cc105="0" cc54="0" cc117="0" cc8="0" cc77="0" cc99="0" cc116="0" cc50="0" cc4="0" cc45="0" cc40="0" cc27="0" cc83="0" cc102="0" cc23="0" cc12="0" cc65="0" cc57="0" cc88="0" cc118="0" cc11="0" cc89="0" cc110="0" cc18="0" cc70="0" cc29="0" cc3="0" cc55="0" cc35="0" cc95="0" cc85="0" cc19="0" cc115="0" cc120="0" cc39="0" cc67="0" cc72="0" cc90="0" cc126="0" cc119="0" cc1="0" cc68="0" cc14="0" cc38="0" cc49="0" cc21="0" cc87="0" cc32="0" cc37="0" cc100="0" cc103="0" cc74="0" cc111="0" cc113="0" cc24="0" cc31="0" cc60="0" cc41="0" cc13="0" cc124="0" cc108="0"/>
          <instrument name="sf2player">
            <sf2player bank="0" gain="1.36" reverbOn="0" reverbWidth="0.5" chorusLevel="2" src="usersoundfont:Touhou.sf2" chorusDepth="8" patch="11" reverbRoomSize="0.2" reverbLevel="0.9" chorusOn="0" chorusNum="3" chorusSpeed="0.3" reverbDamping="0">
              <key/>
            </sf2player>
          </instrument>
          <eldata fcut="14000" fres="0.5" ftype="0" fwet="0">
            <elvol sustain="0.5" lspd="0.1" lspd_syncmode="0" amt="0" hold="0.5" lspd_denominator="4" att="0" pdel="0" userwavefile="" lshp="0" x100="0" ctlenvamt="0" lpdel="0" rel="0.1" dec="0.5" lamt="0" lspd_numerator="4" latt="0"/>
            <elcut sustain="0.5" lspd="0.1" lspd_syncmode="0" amt="0" hold="0.5" lspd_denominator="4" att="0" pdel="0" userwavefile="" lshp="0" x100="0" ctlenvamt="0" lpdel="0" rel="0.1" dec="0.5" lamt="0" lspd_numerator="4" latt="0"/>
            <elres sustain="0.5" lspd="0.1" lspd_syncmode="0" amt="0" hold="0.5" lspd_denominator="4" att="0" pdel="0" userwavefile="" lshp="0" x100="0" ctlenvamt="0" lpdel="0" rel="0.1" dec="0.5" lamt="0" lspd_numerator="4" latt="0"/>
          </eldata>
          <chordcreator chordrange="1" chord-enabled="0" chord="0"/>
          <arpeggiator arp-enabled="0" arpcycle="0" arprange="1" arpgate="100" arptime_numerator="4" arptime_syncmode="0" arpskip="0" arptime_denominator="4" arptime="200" arpdir="0" arp="0" arpmode="0" arprepeats="1" arpmiss="0"/>
          <midiport fixedinputvelocity="-1" readable="1" outputcontroller="0" inports="" inputcontroller="0" inputchannel="0" outputchannel="1" fixedoutputnote="-1" basevelocity="63" writable="0" fixedoutputvelocity="-1" outputprogram="1"/>
          <fxchain enabled="0" numofeffects="0"/>
        </instrumenttrack>
        <midiclip type="1" name="" muted="0" steps="16" pos="1728">
          <note key="67" vol="100" pan="0" len="36" pos="0"/>
          <note key="74" vol="100" pan="0" len="24" pos="36"/>
          <note key="74" vol="100" pan="0" len="12" pos="60"/>
          <note key="72" vol="100" pan="0" len="36" pos="72"/>
          <note key="72" vol="100" pan="0" len="12" pos="108"/>
          <note key="70" vol="100" pan="0" len="24" pos="120"/>
          <note key="69" vol="100" pan="0" len="24" pos="144"/>
          <note key="65" vol="100" pan="0" len="24" pos="168"/>
          <note key="67" vol="100" pan="0" len="36" pos="192"/>
          <note key="74" vol="100" pan="0" len="24" pos="228"/>
          <note key="74" vol="100" pan="0" len="12" pos="252"/>
          <note key="76" vol="100" pan="0" len="48" pos="264"/>
          <note key="72" vol="100" pan="0" len="60" pos="312"/>
          <note key="67" vol="100" pan="0" len="36" pos="384"/>
          <note key="74" vol="100" pan="0" len="24" pos="420"/>
          <note key="74" vol="100" pan="0" len="12" pos="444"/>
          <note key="72" vol="100" pan="0" len="36" pos="456"/>
          <note key="72" vol="100" pan="0" len="12" pos="492"/>
          <note key="70" vol="100" pan="0" len="24" pos="504"/>
          <note key="69" vol="100" pan="0" len="24" pos="528"/>
          <note key="65" vol="100" pan="0" len="24" pos="552"/>
          <note key="64" vol="100" pan="0" len="36" pos="576"/>
          <note key="72" vol="100" pan="0" len="24" pos="612"/>
          <note key="72" vol="100" pan="0" len="12" pos="636"/>
          <note key="76" vol="100" pan="0" len="36" pos="648"/>
          <note key="76" vol="100" pan="0" len="12" pos="684"/>
          <note key="77" vol="100" pan="0" len="24" pos="696"/>
          <note key="76" vol="100" pan="0" len="24" pos="720"/>
          <note key="74" vol="100" pan="0" len="24" pos="744"/>
          <note key="67" vol="100" pan="0" len="36" pos="768"/>
          <note key="74" vol="100" pan="0" len="24" pos="804"/>
          <note key="74" vol="100" pan="0" len="12" pos="828"/>
          <note key="72" vol="100" pan="0" len="36" pos="840"/>
          <note key="72" vol="100" pan="0" len="12" pos="876"/>
          <note key="70" vol="100" pan="0" len="24" pos="888"/>
          <note key="69" vol="100" pan="0" len="24" pos="912"/>
          <note key="65" vol="100" pan="0" len="24" pos="936"/>
          <note key="67" vol="100" pan="0" len="36" pos="960"/>
          <note key="74" vol="100" pan="0" len="24" pos="996"/>
          <note key="74" vol="100" pan="0" len="12" pos="1020"/>
          <note key="76" vol="100" pan="0" len="48" pos="1032"/>
          <note key="72" vol="100" pan="0" len="60" pos="1080"/>
          <note key="67" vol="100" pan="0" len="36" pos="1152"/>
          <note key="74" vol="100" pan="0" len="24" pos="1188"/>
          <note key="74" vol="100" pan="0" len="12" pos="1212"/>
          <note key="72" vol="100" pan="0" len="36" pos="1224"/>
          <note key="72" vol="100" pan="0" len="12" pos="1260"/>
          <note key="70" vol="100" pan="0" len="24" pos="1272"/>
          <note key="69" vol="100" pan="0" len="24" pos="1296"/>
          <note key="65" vol="100" pan="0" len="24" pos="1320"/>
          <note key="72" vol="100" pan="0" len="36" pos="1344"/>
          <note key="72" vol="100" pan="0" len="36" pos="1380"/>
          <note key="70" vol="100" pan="0" len="36" pos="1416"/>
          <note key="70" vol="100" pan="0" len="24" pos="1452"/>
          <note key="70" vol="100" pan="0" len="12" pos="1476"/>
          <note key="70" vol="100" pan="0" len="48" pos="1488"/>
        </midiclip>
        <midiclip type="1" name="" muted="0" steps="16" pos="4800">
          <note key="74" vol="100" pan="0" len="36" pos="0"/>
          <note key="69" vol="100" pan="0" len="36" pos="0"/>
          <note key="81" vol="100" pan="0" len="24" pos="36"/>
          <note key="77" vol="100" pan="0" len="24" pos="36"/>
          <note key="81" vol="100" pan="0" len="12" pos="60"/>
          <note key="77" vol="100" pan="0" len="12" pos="60"/>
          <note key="79" vol="100" pan="0" len="36" pos="72"/>
          <note key="76" vol="100" pan="0" len="36" pos="72"/>
          <note key="79" vol="100" pan="0" len="12" pos="108"/>
          <note key="76" vol="100" pan="0" len="12" pos="108"/>
          <note key="77" vol="100" pan="0" len="24" pos="120"/>
          <note key="74" vol="100" pan="0" len="24" pos="120"/>
          <note key="76" vol="100" pan="0" len="24" pos="144"/>
          <note key="72" vol="100" pan="0" len="24" pos="144"/>
          <note key="72" vol="100" pan="0" len="24" pos="168"/>
          <note key="69" vol="100" pan="0" len="24" pos="168"/>
          <note key="74" vol="100" pan="0" len="36" pos="192"/>
          <note key="69" vol="100" pan="0" len="36" pos="192"/>
          <note key="81" vol="100" pan="0" len="24" pos="228"/>
          <note key="77" vol="100" pan="0" len="24" pos="228"/>
          <note key="81" vol="100" pan="0" len="12" pos="252"/>
          <note key="77" vol="100" pan="0" len="12" pos="252"/>
          <note key="83" vol="100" pan="0" len="48" pos="264"/>
          <note key="79" vol="100" pan="0" len="48" pos="264"/>
          <note key="79" vol="100" pan="0" len="48" pos="312"/>
          <note key="74" vol="100" pan="0" len="48" pos="312"/>
          <note key="74" vol="100" pan="0" len="36" pos="384"/>
          <note key="69" vol="100" pan="0" len="36" pos="384"/>
          <note key="81" vol="100" pan="0" len="24" pos="420"/>
          <note key="77" vol="100" pan="0" len="24" pos="420"/>
          <note key="81" vol="100" pan="0" len="12" pos="444"/>
          <note key="77" vol="100" pan="0" len="12" pos="444"/>
          <note key="79" vol="100" pan="0" len="36" pos="456"/>
          <note key="76" vol="100" pan="0" len="36" pos="456"/>
          <note key="79" vol="100" pan="0" len="12" pos="492"/>
          <note key="76" vol="100" pan="0" len="12" pos="492"/>
          <note key="77" vol="100" pan="0" len="24" pos="504"/>
          <note key="74" vol="100" pan="0" len="24" pos="504"/>
          <note key="76" vol="100" pan="0" len="24" pos="528"/>
          <note key="72" vol="100" pan="0" len="24" pos="528"/>
          <note key="72" vol="100" pan="0" len="24" pos="552"/>
          <note key="69" vol="100" pan="0" len="24" pos="552"/>
          <note key="71" vol="100" pan="0" len="36" pos="576"/>
          <note key="67" vol="100" pan="0" len="36" pos="576"/>
          <note key="79" vol="100" pan="0" len="24" pos="612"/>
          <note key="74" vol="100" pan="0" len="24" pos="612"/>
          <note key="79" vol="100" pan="0" len="12" pos="636"/>
          <note key="74" vol="100" pan="0" len="12" pos="636"/>
          <note key="83" vol="100" pan="0" len="36" pos="648"/>
          <note key="77" vol="100" pan="0" len="36" pos="648"/>
          <note key="83" vol="100" pan="0" len="12" pos="684"/>
          <note key="77" vol="100" pan="0" len="12" pos="684"/>
          <note key="84" vol="100" pan="0" len="24" pos="696"/>
          <note key="79" vol="100" pan="0" len="24" pos="696"/>
          <note key="83" vol="100" pan="0" len="24" pos="720"/>
          <note key="77" vol="100" pan="0" len="24" pos="720"/>
          <note key="81" vol="100" pan="0" len="24" pos="744"/>
          <note key="76" vol="100" pan="0" len="24" pos="744"/>
          <note key="74" vol="100" pan="0" len="36" pos="768"/>
          <note key="69" vol="100" pan="0" len="36" pos="768"/>
          <note key="81" vol="100" pan="0" len="24" pos="804"/>
          <note key="77" vol="100" pan="0" len="24" pos="804"/>
          <note key="81" vol="100" pan="0" len="12" pos="828"/>
          <note key="77" vol="100" pan="0" len="12" pos="828"/>
          <note key="79" vol="100" pan="0" len="36" pos="840"/>
          <note key="76" vol="100" pan="0" len="36" pos="840"/>
          <note key="79" vol="100" pan="0" len="12" pos="876"/>
          <note key="76" vol="100" pan="0" len="12" pos="876"/>
          <note key="77" vol="100" pan="0" len="24" pos="888"/>
          <note key="74" vol="100" pan="0" len="24" pos="888"/>
          <note key="76" vol="100" pan="0" len="24" pos="912"/>
          <note key="72" vol="100" pan="0" len="24" pos="912"/>
          <note key="72" vol="100" pan="0" len="24" pos="936"/>
          <note key="69" vol="100" pan="0" len="24" pos="936"/>
          <note key="74" vol="100" pan="0" len="36" pos="960"/>
          <note key="69" vol="100" pan="0" len="36" pos="960"/>
          <note key="81" vol="100" pan="0" len="24" pos="996"/>
          <note key="77" vol="100" pan="0" len="24" pos="996"/>
          <note key="81" vol="100" pan="0" len="12" pos="1020"/>
          <note key="77" vol="100" pan="0" len="12" pos="1020"/>
          <note key="83" vol="100" pan="0" len="48" pos="1032"/>
          <note key="79" vol="100" pan="0" len="48" pos="1032"/>
          <note key="79" vol="100" pan="0" len="48" pos="1080"/>
          <note key="74" vol="100" pan="0" len="48" pos="1080"/>
          <note key="74" vol="100" pan="0" len="36" pos="1152"/>
          <note key="69" vol="100" pan="0" len="36" pos="1152"/>
          <note key="81" vol="100" pan="0" len="24" pos="1188"/>
          <note key="77" vol="100" pan="0" len="24" pos="1188"/>
          <note key="81" vol="100" pan="0" len="12" pos="1212"/>
          <note key="77" vol="100" pan="0" len="12" pos="1212"/>
          <note key="79" vol="100" pan="0" len="36" pos="1224"/>
          <note key="76" vol="100" pan="0" len="36" pos="1224"/>
          <note key="79" vol="100" pan="0" len="12" pos="1260"/>
          <note key="76" vol="100" pan="0" len="12" pos="1260"/>
          <note key="77" vol="100" pan="0" len="24" pos="1272"/>
          <note key="74" vol="100" pan="0" len="24" pos="1272"/>
          <note key="76" vol="100" pan="0" len="24" pos="1296"/>
          <note key="72" vol="100" pan="0" len="24" pos="1296"/>
          <note key="72" vol="100" pan="0" len="24" pos="1320"/>
          <note key="69" vol="100" pan="0" len="24" pos="1320"/>
          <note key="79" vol="100" pan="0" len="36" pos="1344"/>
          <note key="71" vol="100" pan="0" len="36" pos="1344"/>
          <note key="79" vol="100" pan="0" len="24" pos="1380"/>
          <note key="71" vol="100" pan="0" len="24" pos="1380"/>
          <note key="79" vol="100" pan="0" len="12" pos="1404"/>
          <note key="71" vol="100" pan="0" len="12" pos="1404"/>
          <note key="77" vol="100" pan="0" len="36" pos="1416"/>
          <note key="69" vol="100" pan="0" len="36" pos="1416"/>
          <note key="77" vol="100" pan="0" len="24" pos="1452"/>
          <note key="69" vol="100" pan="0" len="24" pos="1452"/>
          <note key="77" vol="100" pan="0" len="24" pos="1476"/>
          <note key="69" vol="100" pan="0" len="24" pos="1476"/>
          <note key="77" vol="100" pan="0" len="12" pos="1500"/>
          <note key="69" vol="100" pan="0" len="12" pos="1500"/>
          <note key="76" vol="100" pan="0" len="24" pos="1512"/>
          <note key="67" vol="100" pan="0" len="24" pos="1512"/>
          <note key="74" vol="100" pan="0" len="720" pos="1536"/>
          <note key="65" vol="100" pan="0" len="720" pos="1536"/>
        </midiclip>
        <midiclip type="1" name="" muted="0" steps="16" pos="3264">
          <note key="69" vol="100" pan="0" len="168" pos="0"/>
          <note key="70" vol="100" pan="0" len="144" pos="168"/>
          <note key="72" vol="100" pan="0" len="72" pos="312"/>
          <note key="67" vol="100" pan="0" len="24" pos="384"/>
          <note key="70" vol="100" pan="0" len="24" pos="408"/>
          <note key="72" vol="100" pan="0" len="12" pos="432"/>
          <note key="70" vol="100" pan="0" len="12" pos="444"/>
          <note key="69" vol="100" pan="0" len="144" pos="456"/>
          <note key="65" vol="100" pan="0" len="96" pos="600"/>
          <note key="62" vol="100" pan="0" len="48" pos="696"/>
          <note key="67" vol="100" pan="0" len="120" pos="744"/>
          <note key="64" vol="100" pan="0" len="24" pos="864"/>
          <note key="67" vol="100" pan="0" len="96" pos="888"/>
          <note key="68" vol="100" pan="0" len="48" pos="984"/>
          <note key="69" vol="100" pan="0" len="144" pos="1032"/>
          <note key="69" vol="100" pan="0" len="36" pos="1176"/>
          <note key="69" vol="100" pan="0" len="36" pos="1212"/>
          <note key="69" vol="100" pan="0" len="84" pos="1248"/>
          <note key="64" vol="100" pan="0" len="36" pos="1332"/>
          <note key="64" vol="100" pan="0" len="36" pos="1368"/>
          <note key="64" vol="100" pan="0" len="132" pos="1404"/>
        </midiclip>
        <midiclip type="1" name="" muted="0" steps="16" pos="0">
          <note key="67" vol="100" pan="0" len="168" pos="0"/>
          <note key="72" vol="100" pan="0" len="48" pos="24"/>
          <note key="74" vol="100" pan="0" len="120" pos="48"/>
          <note key="72" vol="100" pan="0" len="120" pos="72"/>
          <note key="67" vol="100" pan="0" len="168" pos="168"/>
          <note key="72" vol="100" pan="0" len="168" pos="192"/>
          <note key="74" vol="100" pan="0" len="120" pos="216"/>
          <note key="67" vol="100" pan="0" len="168" pos="336"/>
          <note key="72" vol="100" pan="0" len="48" pos="360"/>
          <note key="74" vol="100" pan="0" len="120" pos="384"/>
          <note key="72" vol="100" pan="0" len="120" pos="408"/>
          <note key="67" vol="100" pan="0" len="168" pos="504"/>
          <note key="72" vol="100" pan="0" len="168" pos="528"/>
          <note key="74" vol="100" pan="0" len="144" pos="552"/>
          <note key="65" vol="100" pan="0" len="144" pos="672"/>
          <note key="72" vol="100" pan="0" len="144" pos="696"/>
          <note key="74" vol="100" pan="0" len="96" pos="720"/>
          <note key="69" vol="100" pan="0" len="120" pos="744"/>
          <note key="70" vol="100" pan="0" len="24" pos="792"/>
          <note key="63" vol="100" pan="0" len="144" pos="816"/>
          <note key="67" vol="100" pan="0" len="120" pos="840"/>
          <note key="72" vol="100" pan="0" len="72" pos="864"/>
          <note key="70" vol="100" pan="0" len="120" pos="888"/>
          <note key="72" vol="100" pan="0" len="24" pos="936"/>
          <note key="62" vol="100" pan="0" len="288" pos="960"/>
          <note key="65" vol="100" pan="0" len="264" pos="984"/>
          <note key="69" vol="100" pan="0" len="240" pos="1008"/>
          <note key="72" vol="100" pan="0" len="216" pos="1032"/>
          <note key="74" vol="100" pan="0" len="144" pos="1104"/>
          <note key="70" vol="100" pan="0" len="480" pos="1248"/>
          <note key="67" vol="100" pan="0" len="480" pos="1248"/>
        </midiclip>
      </track>
      <track solo="0" type="0" name="Orpheus_1" muted="1" mutedBeforeSolo="0">
        <instrumenttrack pitchrange="1" vol="100" pitch="0" lastkey="127" enabled="0" pan="-16" usemasterpitch="1" basenote="69" mixch="3" keymap="0" enablecc="0" range_import="1" firstkey="0" scale="0">
          <midicontrollers cc56="0" cc92="0" cc46="0" cc0="0" cc36="0" cc122="0" cc63="0" cc93="0" cc66="0" cc80="0" cc123="0" cc104="0" cc59="0" cc81="0" cc106="0" cc64="0" cc6="0" cc5="0" cc96="0" cc114="0" cc79="0" cc91="0" cc25="0" cc10="0" cc86="0" cc2="0" cc16="0" cc53="0" cc97="0" cc44="0" cc20="0" cc75="0" cc34="0" cc62="0" cc98="0" cc51="0" cc84="0" cc69="0" cc101="0" cc52="0" cc121="0" cc42="0" cc78="0" cc30="0" cc82="0" cc107="0" cc22="0" cc33="0" cc47="0" cc61="0" cc15="0" cc48="0" cc109="0" cc9="0" cc7="0" cc17="0" cc71="0" cc73="0" cc43="0" cc112="0" cc127="0" cc28="0" cc76="0" cc58="0" cc125="0" cc26="0" cc94="0" cc105="0" cc54="0" cc117="0" cc8="0" cc77="0" cc99="0" cc116="0" cc50="0" cc4="0" cc45="0" cc40="0" cc27="0" cc83="0" cc102="0" cc23="0" cc12="0" cc65="0" cc57="0" cc88="0" cc118="0" cc11="0" cc89="0" cc110="0" cc18="0" cc70="0" cc29="0" cc3="0" cc55="0" cc35="0" cc95="0" cc85="0" cc19="0" cc115="0" cc120="0" cc39="0" cc67="0" cc72="0" cc90="0" cc126="0" cc119="0" cc1="0" cc68="0" cc14="0" cc38="0" cc49="0" cc21="0" cc87="0" cc32="0" cc37="0" cc100="0" cc103="0" cc74="0" cc111="0" cc113="0" cc24="0" cc31="0" cc60="0" cc41="0" cc13="0" cc124="0" cc108="0"/>
          <instrument name="sf2player">
            <sf2player bank="0" gain="1.6" reverbOn="0" reverbWidth="0.5" chorusLevel="2" src="usersoundfont:Orpheus_1.047e.sf2" chorusDepth="8" patch="35" reverbRoomSize="0.2" reverbLevel="0.9" chorusOn="0" chorusNum="3" chorusSpeed="0.3" reverbDamping="0">
              <key/>
            </sf2player>
          </instrument>
          <eldata fcut="14000" fres="0.5" ftype="0" fwet="0">
            <elvol sustain="0.5" lspd="0.1" lspd_syncmode="0" amt="0" hold="0.5" lspd_denominator="4" att="0" pdel="0" userwavefile="" lshp="0" x100="0" ctlenvamt="0" lpdel="0" rel="0.1" dec="0.5" lamt="0" lspd_numerator="4" latt="0"/>
            <elcut sustain="0.5" lspd="0.1" lspd_syncmode="0" amt="0" hold="0.5" lspd_denominator="4" att="0" pdel="0" userwavefile="" lshp="0" x100="0" ctlenvamt="0" lpdel="0" rel="0.1" dec="0.5" lamt="0" lspd_numerator="4" latt="0"/>
            <elres sustain="0.5" lspd="0.1" lspd_syncmode="0" amt="0" hold="0.5" lspd_denominator="4" att="0" pdel="0" userwavefile="" lshp="0" x100="0" ctlenvamt="0" lpdel="0" rel="0.1" dec="0.5" lamt="0" lspd_numerator="4" latt="0"/>
          </eldata>
          <chordcreator chordrange="1" chord-enabled="0" chord="0"/>
          <arpeggiator arp-enabled="0" arpcycle="0" arprange="1" arpgate="100" arptime_numerator="4" arptime_syncmode="0" arpskip="0" arptime_denominator="4" arptime="200" arpdir="0" arp="0" arpmode="0" arprepeats="1" arpmiss="0"/>
          <midiport fixedinputvelocity="-1" readable="1" outputcontroller="0" inports="" inputcontroller="0" inputchannel="0" outputchannel="1" fixedoutputnote="-1" basevelocity="63" writable="0" fixedoutputvelocity="-1" outputprogram="1"/>
          <fxchain enabled="0" numofeffects="0"/>
        </instrumenttrack>
        <midiclip type="1" name="" muted="0" steps="16" pos="1728">
          <note key="38" vol="100" pan="0" len="12" pos="0"/>
          <note key="31" vol="100" pan="0" len="12" pos="12"/>
          <note key="31" vol="100" pan="0" len="24" pos="36"/>
          <note key="31" vol="100" pan="0" len="12" pos="60"/>
          <note key="31" vol="100" pan="0" len="12" pos="72"/>
          <note key="34" vol="100" pan="0" len="24" pos="96"/>
          <note key="31" vol="100" pan="0" len="12" pos="120"/>
          <note key="33" vol="100" pan="0" len="12" pos="144"/>
          <note key="34" vol="100" pan="0" len="24" pos="168"/>
          <note key="38" vol="100" pan="0" len="12" pos="192"/>
          <note key="31" vol="100" pan="0" len="12" pos="204"/>
          <note key="31" vol="100" pan="0" len="24" pos="228"/>
          <note key="38" vol="100" pan="0" len="12" pos="252"/>
          <note key="36" vol="100" pan="0" len="48" pos="264"/>
          <note key="36" vol="100" pan="0" len="12" pos="312"/>
          <note key="34" vol="100" pan="0" len="12" pos="336"/>
          <note key="36" vol="100" pan="0" len="24" pos="360"/>
          <note key="38" vol="100" pan="0" len="12" pos="384"/>
          <note key="31" vol="100" pan="0" len="12" pos="396"/>
          <note key="31" vol="100" pan="0" len="24" pos="420"/>
          <note key="31" vol="100" pan="0" len="12" pos="444"/>
          <note key="31" vol="100" pan="0" len="12" pos="456"/>
          <note key="34" vol="100" pan="0" len="24" pos="480"/>
          <note key="31" vol="100" pan="0" len="12" pos="504"/>
          <note key="33" vol="100" pan="0" len="12" pos="528"/>
          <note key="34" vol="100" pan="0" len="24" pos="552"/>
          <note key="36" vol="100" pan="0" len="12" pos="576"/>
          <note key="28" vol="100" pan="0" len="12" pos="588"/>
          <note key="28" vol="100" pan="0" len="24" pos="612"/>
          <note key="40" vol="100" pan="0" len="12" pos="636"/>
          <note key="36" vol="100" pan="0" len="36" pos="648"/>
          <note key="34" vol="100" pan="0" len="12" pos="696"/>
          <note key="36" vol="100" pan="0" len="12" pos="720"/>
          <note key="40" vol="100" pan="0" len="24" pos="744"/>
          <note key="38" vol="100" pan="0" len="12" pos="768"/>
          <note key="31" vol="100" pan="0" len="12" pos="780"/>
          <note key="31" vol="100" pan="0" len="24" pos="804"/>
          <note key="31" vol="100" pan="0" len="12" pos="828"/>
          <note key="31" vol="100" pan="0" len="12" pos="840"/>
          <note key="34" vol="100" pan="0" len="24" pos="864"/>
          <note key="31" vol="100" pan="0" len="12" pos="888"/>
          <note key="33" vol="100" pan="0" len="12" pos="912"/>
          <note key="34" vol="100" pan="0" len="24" pos="936"/>
          <note key="38" vol="100" pan="0" len="12" pos="960"/>
          <note key="31" vol="100" pan="0" len="12" pos="972"/>
          <note key="31" vol="100" pan="0" len="24" pos="996"/>
          <note key="38" vol="100" pan="0" len="12" pos="1020"/>
          <note key="36" vol="100" pan="0" len="48" pos="1032"/>
          <note key="36" vol="100" pan="0" len="12" pos="1080"/>
          <note key="34" vol="100" pan="0" len="12" pos="1104"/>
          <note key="36" vol="100" pan="0" len="24" pos="1128"/>
          <note key="38" vol="100" pan="0" len="12" pos="1152"/>
          <note key="31" vol="100" pan="0" len="12" pos="1164"/>
          <note key="31" vol="100" pan="0" len="24" pos="1188"/>
          <note key="31" vol="100" pan="0" len="12" pos="1212"/>
          <note key="31" vol="100" pan="0" len="12" pos="1224"/>
          <note key="34" vol="100" pan="0" len="24" pos="1248"/>
          <note key="31" vol="100" pan="0" len="12" pos="1272"/>
          <note key="33" vol="100" pan="0" len="12" pos="1296"/>
          <note key="34" vol="100" pan="0" len="24" pos="1320"/>
          <note key="24" vol="100" pan="0" len="36" pos="1344"/>
          <note key="36" vol="100" pan="0" len="36" pos="1380"/>
          <note key="24" vol="100" pan="0" len="36" pos="1416"/>
          <note key="36" vol="100" pan="0" len="36" pos="1452"/>
          <note key="24" vol="100" pan="0" len="48" pos="1488"/>
        </midiclip>
        <midiclip type="1" name="" muted="0" steps="16" pos="3264">
          <note key="26" vol="100" pan="0" len="24" pos="0"/>
          <note key="29" vol="100" pan="0" len="24" pos="24"/>
          <note key="33" vol="100" pan="0" len="24" pos="48"/>
          <note key="29" vol="100" pan="0" len="24" pos="72"/>
          <note key="38" vol="100" pan="0" len="24" pos="96"/>
          <note key="33" vol="100" pan="0" len="24" pos="120"/>
          <note key="29" vol="100" pan="0" len="24" pos="144"/>
          <note key="31" vol="100" pan="0" len="24" pos="168"/>
          <note key="34" vol="100" pan="0" len="24" pos="192"/>
          <note key="38" vol="100" pan="0" len="24" pos="216"/>
          <note key="26" vol="100" pan="0" len="24" pos="240"/>
          <note key="31" vol="100" pan="0" len="24" pos="264"/>
          <note key="34" vol="100" pan="0" len="24" pos="288"/>
          <note key="36" vol="100" pan="0" len="24" pos="312"/>
          <note key="40" vol="100" pan="0" len="24" pos="336"/>
          <note key="36" vol="100" pan="0" len="24" pos="360"/>
          <note key="31" vol="100" pan="0" len="24" pos="384"/>
          <note key="36" vol="100" pan="0" len="24" pos="408"/>
          <note key="40" vol="100" pan="0" len="24" pos="432"/>
          <note key="38" vol="100" pan="0" len="24" pos="456"/>
          <note key="33" vol="100" pan="0" len="24" pos="480"/>
          <note key="29" vol="100" pan="0" len="24" pos="504"/>
          <note key="33" vol="100" pan="0" len="24" pos="528"/>
          <note key="26" vol="100" pan="0" len="24" pos="552"/>
          <note key="29" vol="100" pan="0" len="24" pos="576"/>
          <note key="26" vol="100" pan="0" len="24" pos="600"/>
          <note key="29" vol="100" pan="0" len="24" pos="624"/>
          <note key="33" vol="100" pan="0" len="24" pos="648"/>
          <note key="29" vol="100" pan="0" len="24" pos="672"/>
          <note key="38" vol="100" pan="0" len="24" pos="696"/>
          <note key="33" vol="100" pan="0" len="24" pos="720"/>
          <note key="34" vol="100" pan="0" len="24" pos="744"/>
          <note key="31" vol="100" pan="0" len="24" pos="768"/>
          <note key="34" vol="100" pan="0" len="24" pos="792"/>
          <note key="38" vol="100" pan="0" len="24" pos="816"/>
          <note key="26" vol="100" pan="0" len="24" pos="840"/>
          <note key="31" vol="100" pan="0" len="24" pos="864"/>
          <note key="36" vol="100" pan="0" len="24" pos="888"/>
          <note key="40" vol="100" pan="0" len="24" pos="912"/>
          <note key="36" vol="100" pan="0" len="24" pos="936"/>
          <note key="31" vol="100" pan="0" len="24" pos="960"/>
          <note key="38" vol="100" pan="0" len="24" pos="984"/>
          <note key="41" vol="100" pan="0" len="24" pos="1008"/>
          <note key="37" vol="100" pan="0" len="24" pos="1032"/>
          <note key="33" vol="100" pan="0" len="24" pos="1056"/>
          <note key="28" vol="100" pan="0" len="24" pos="1080"/>
          <note key="33" vol="100" pan="0" len="24" pos="1104"/>
          <note key="21" vol="100" pan="0" len="24" pos="1128"/>
          <note key="28" vol="100" pan="0" len="24" pos="1152"/>
          <note key="28" vol="100" pan="0" len="36" pos="1176"/>
          <note key="21" vol="100" pan="0" len="36" pos="1212"/>
          <note key="28" vol="100" pan="0" len="84" pos="1248"/>
          <note key="37" vol="100" pan="0" len="36" pos="1332"/>
          <note key="33" vol="100" pan="0" len="36" pos="1368"/>
          <note key="21" vol="100" pan="0" len="132" pos="1404"/>
        </midiclip>
        <midiclip type="1" name="" muted="0" steps="16" pos="4800">
          <note key="33" vol="100" pan="0" len="12" pos="0"/>
          <note key="26" vol="100" pan="0" len="12" pos="12"/>
          <note key="26" vol="100" pan="0" len="24" pos="36"/>
          <note key="26" vol="100" pan="0" len="12" pos="60"/>
          <note key="26" vol="100" pan="0" len="12" pos="72"/>
          <note key="29" vol="100" pan="0" len="24" pos="96"/>
          <note key="26" vol="100" pan="0" len="12" pos="120"/>
          <note key="28" vol="100" pan="0" len="12" pos="144"/>
          <note key="29" vol="100" pan="0" len="24" pos="168"/>
          <note key="33" vol="100" pan="0" len="12" pos="192"/>
          <note key="26" vol="100" pan="0" len="12" pos="204"/>
          <note key="26" vol="100" pan="0" len="24" pos="228"/>
          <note key="33" vol="100" pan="0" len="12" pos="252"/>
          <note key="31" vol="100" pan="0" len="48" pos="264"/>
          <note key="31" vol="100" pan="0" len="12" pos="312"/>
          <note key="29" vol="100" pan="0" len="12" pos="336"/>
          <note key="31" vol="100" pan="0" len="24" pos="360"/>
          <note key="33" vol="100" pan="0" len="12" pos="384"/>
          <note key="26" vol="100" pan="0" len="12" pos="396"/>
          <note key="26" vol="100" pan="0" len="24" pos="420"/>
          <note key="26" vol="100" pan="0" len="12" pos="444"/>
          <note key="26" vol="100" pan="0" len="12" pos="456"/>
          <note key="29" vol="100" pan="0" len="24" pos="480"/>
          <note key="26" vol="100" pan="0" len="12" pos="504"/>
          <note key="28" vol="100" pan="0" len="12" pos="528"/>
          <note key="29" vol="100" pan="0" len="24" pos="552"/>
          <note key="31" vol="100" pan="0" len="12" pos="576"/>
          <note key="23" vol="100" pan="0" len="12" pos="588"/>
          <note key="23" vol="100" pan="0" len="24" pos="612"/>
          <note key="35" vol="100" pan="0" len="12" pos="636"/>
          <note key="31" vol="100" pan="0" len="36" pos="648"/>
          <note key="29" vol="100" pan="0" len="12" pos="696"/>
          <note key="31" vol="100" pan="0" len="12" pos="720"/>
          <note key="35" vol="100" pan="0" len="24" pos="744"/>
          <note key="33" vol="100" pan="0" len="12" pos="768"/>
          <note key="26" vol="100" pan="0" len="12" pos="780"/>
          <note key="26" vol="100" pan="0" len="24" pos="804"/>
          <note key="26" vol="100" pan="0" len="12" pos="828"/>
          <note key="26" vol="100" pan="0" len="12" pos="840"/>
          <note key="29" vol="100" pan="0" len="24" pos="864"/>
          <note key="26" vol="100" pan="0" len="12" pos="888"/>
          <note key="28" vol="100" pan="0" len="12" pos="912"/>
          <note key="29" vol="100" pan="0" len="24" pos="936"/>
          <note key="33" vol="100" pan="0" len="12" pos="960"/>
          <note key="26" vol="100" pan="0" len="12" pos="972"/>
          <note key="26" vol="100" pan="0" len="24" pos="996"/>
          <note key="33" vol="100" pan="0" len="12" pos="1020"/>
          <note key="31" vol="100" pan="0" len="48" pos="1032"/>
          <note key="31" vol="100" pan="0" len="12" pos="1080"/>
          <note key="29" vol="100" pan="0" len="12" pos="1104"/>
          <note key="31" vol="100" pan="0" len="24" pos="1128"/>
          <note key="33" vol="100" pan="0" len="12" pos="1152"/>
          <note key="26" vol="100" pan="0" len="12" pos="1164"/>
          <note key="26" vol="100" pan="0" len="24" pos="1188"/>
          <note key="26" vol="100" pan="0" len="12" pos="1212"/>
          <note key="26" vol="100" pan="0" len="12" pos="1224"/>
          <note key="29" vol="100" pan="0" len="24" pos="1248"/>
          <note key="26" vol="100" pan="0" len="12" pos="1272"/>
          <note key="28" vol="100" pan="0" len="12" pos="1296"/>
          <note key="29" vol="100" pan="0" len="24" pos="1320"/>
          <note key="19" vol="100" pan="0" len="36" pos="1344"/>
          <note key="31" vol="100" pan="0" len="36" pos="1380"/>
          <note key="19" vol="100" pan="0" len="36" pos="1416"/>
          <note key="31" vol="100" pan="0" len="36" pos="1452"/>
          <note key="19" vol="100" pan="0" len="24" pos="1488"/>
          <note key="23" vol="100" pan="0" len="24" pos="1512"/>
          <note key="26" vol="100" pan="0" len="720" pos="1536"/>
        </midiclip>
        <midiclip type="1" name="" muted="0" steps="16" pos="1152">
          <note key="31" vol="100" pan="0" len="72" pos="96"/>
          <note key="31" vol="100" pan="0" len="72" pos="168"/>
          <note key="31" vol="100" pan="0" len="336" pos="240"/>
        </midiclip>
      </track>
      <track solo="0" type="0" name="BD" muted="1" mutedBeforeSolo="0">
        <instrumenttrack pitchrange="12" vol="100" pitch="-600" lastkey="127" enabled="0" pan="0" usemasterpitch="0" basenote="69" mixch="8" keymap="0" enablecc="0" range_import="1" firstkey="0" scale="0">
          <midicontrollers cc56="0" cc92="0" cc46="0" cc0="0" cc36="0" cc122="0" cc63="0" cc93="0" cc66="0" cc80="0" cc123="0" cc104="0" cc59="0" cc81="0" cc106="0" cc64="0" cc6="0" cc5="0" cc96="0" cc114="0" cc79="0" cc91="0" cc25="0" cc10="0" cc86="0" cc2="0" cc16="0" cc53="0" cc97="0" cc44="0" cc20="0" cc75="0" cc34="0" cc62="0" cc98="0" cc51="0" cc84="0" cc69="0" cc101="0" cc52="0" cc121="0" cc42="0" cc78="0" cc30="0" cc82="0" cc107="0" cc22="0" cc33="0" cc47="0" cc61="0" cc15="0" cc48="0" cc109="0" cc9="0" cc7="0" cc17="0" cc71="0" cc73="0" cc43="0" cc112="0" cc127="0" cc28="0" cc76="0" cc58="0" cc125="0" cc26="0" cc94="0" cc105="0" cc54="0" cc117="0" cc8="0" cc77="0" cc99="0" cc116="0" cc50="0" cc4="0" cc45="0" cc40="0" cc27="0" cc83="0" cc102="0" cc23="0" cc12="0" cc65="0" cc57="0" cc88="0" cc118="0" cc11="0" cc89="0" cc110="0" cc18="0" cc70="0" cc29="0" cc3="0" cc55="0" cc35="0" cc95="0" cc85="0" cc19="0" cc115="0" cc120="0" cc39="0" cc67="0" cc72="0" cc90="0" cc126="0" cc119="0" cc1="0" cc68="0" cc14="0" cc38="0" cc49="0" cc21="0" cc87="0" cc32="0" cc37="0" cc100="0" cc103="0" cc74="0" cc111="0" cc113="0" cc24="0" cc31="0" cc60="0" cc41="0" cc13="0" cc124="0" cc108="0"/>
          <instrument name="sf2player">
            <sf2player bank="128" gain="0.84" reverbOn="0" reverbWidth="0.5" chorusLevel="2" src="usersoundfont:SGM-V2.01.sf2" chorusDepth="8" patch="32" reverbRoomSize="0.2" reverbLevel="0.9" chorusOn="0" chorusNum="3" chorusSpeed="0.3" reverbDamping="0">
              <key/>
            </sf2player>
          </instrument>
          <eldata fcut="14000" fres="0.5" ftype="0" fwet="0">
            <elvol sustain="0.5" lspd="0.1" lspd_syncmode="0" amt="0" hold="0.5" lspd_denominator="4" att="0" pdel="0" userwavefile="" lshp="0" x100="0" ctlenvamt="0" lpdel="0" rel="0.1" dec="0.5" lamt="0" lspd_numerator="4" latt="0"/>
            <elcut sustain="0.5" lspd="0.1" lspd_syncmode="0" amt="0" hold="0.5" lspd_denominator="4" att="0" pdel="0" userwavefile="" lshp="0" x100="0" ctlenvamt="0" lpdel="0" rel="0.1" dec="0.5" lamt="0" lspd_numerator="4" latt="0"/>
            <elres sustain="0.5" lspd="0.1" lspd_syncmode="0" amt="0" hold="0.5" lspd_denominator="4" att="0" pdel="0" userwavefile="" lshp="0" x100="0" ctlenvamt="0" lpdel="0" rel="0.1" dec="0.5" lamt="0" lspd_numerator="4" latt="0"/>
          </eldata>
          <chordcreator chordrange="1" chord-enabled="0" chord="0"/>
          <arpeggiator arp-enabled="0" arpcycle="0" arprange="1" arpgate="100" arptime_numerator="4" arptime_syncmode="0" arpskip="0" arptime_denominator="4" arptime="200" arpdir="0" arp="0" arpmode="0" arprepeats="1" arpmiss="0"/>
          <midiport fixedinputvelocity="-1" readable="1" outputcontroller="0" inports="" inputcontroller="0" inputchannel="0" outputchannel="1" fixedoutputnote="-1" basevelocity="127" writable="0" fixedoutputvelocity="-1" outputprogram="1"/>
          <fxchain enabled="0" numofeffects="0"/>
        </instrumenttrack>
        <midiclip type="1" name="" muted="0" steps="16" pos="1728">
          <note key="36" vol="100" pan="0" len="12" pos="0"/>
          <note key="36" vol="100" pan="0" len="12" pos="72"/>
          <note key="36" vol="100" pan="0" len="12" pos="120"/>
          <note key="36" vol="100" pan="0" len="12" pos="192"/>
          <note key="36" vol="100" pan="0" len="12" pos="264"/>
          <note key="36" vol="100" pan="0" len="12" pos="312"/>
          <note key="36" vol="100" pan="0" len="12" pos="336"/>
        </midiclip>
        <midiclip type="1" name="" muted="0" steps="16" pos="2496">
          <note key="36" vol="100" pan="0" len="12" pos="0"/>
          <note key="36" vol="100" pan="0" len="12" pos="72"/>
          <note key="36" vol="100" pan="0" len="12" pos="120"/>
          <note key="36" vol="100" pan="0" len="12" pos="192"/>
          <note key="36" vol="100" pan="0" len="12" pos="264"/>
          <note key="36" vol="100" pan="0" len="12" pos="312"/>
          <note key="36" vol="100" pan="0" len="12" pos="336"/>
        </midiclip>
        <midiclip type="1" name="" muted="0" steps="16" pos="3264">
          <note key="36" vol="100" pan="0" len="12" pos="0"/>
          <note key="36" vol="100" pan="0" len="12" pos="48"/>
          <note key="36" vol="100" pan="0" len="12" pos="72"/>
          <note key="36" vol="100" pan="0" len="12" pos="96"/>
          <note key="36" vol="100" pan="0" len="12" pos="144"/>
          <note key="36" vol="100" pan="0" len="12" pos="168"/>
          <note key="36" vol="100" pan="0" len="12" pos="216"/>
          <note key="36" vol="100" pan="0" len="12" pos="240"/>
          <note key="36" vol="100" pan="0" len="12" pos="264"/>
          <note key="36" vol="100" pan="0" len="12" pos="288"/>
          <note key="36" vol="100" pan="0" len="12" pos="312"/>
          <note key="36" vol="100" pan="0" len="12" pos="360"/>
          <note key="36" vol="100" pan="0" len="12" pos="408"/>
          <note key="36" vol="100" pan="0" len="12" pos="432"/>
          <note key="36" vol="100" pan="0" len="12" pos="456"/>
          <note key="36" vol="100" pan="0" len="12" pos="504"/>
          <note key="36" vol="100" pan="0" len="12" pos="528"/>
          <note key="36" vol="100" pan="0" len="12" pos="576"/>
          <note key="36" vol="100" pan="0" len="12" pos="600"/>
          <note key="36" vol="100" pan="0" len="12" pos="648"/>
          <note key="36" vol="100" pan="0" len="12" pos="672"/>
          <note key="36" vol="100" pan="0" len="12" pos="696"/>
          <note key="36" vol="100" pan="0" len="12" pos="720"/>
          <note key="36" vol="100" pan="0" len="12" pos="744"/>
          <note key="36" vol="100" pan="0" len="12" pos="792"/>
          <note key="36" vol="100" pan="0" len="12" pos="816"/>
          <note key="36" vol="100" pan="0" len="12" pos="864"/>
          <note key="36" vol="100" pan="0" len="12" pos="888"/>
          <note key="36" vol="100" pan="0" len="12" pos="936"/>
          <note key="36" vol="100" pan="0" len="12" pos="960"/>
          <note key="36" vol="100" pan="0" len="12" pos="984"/>
          <note key="36" vol="100" pan="0" len="12" pos="1008"/>
          <note key="36" vol="100" pan="0" len="12" pos="1032"/>
          <note key="36" vol="100" pan="0" len="12" pos="1080"/>
          <note key="36" vol="100" pan="0" len="12" pos="1104"/>
          <note key="36" vol="100" pan="0" len="12" pos="1152"/>
          <note key="36" vol="100" pan="0" len="12" pos="1176"/>
          <note key="36" vol="100" pan="0" len="12" pos="1212"/>
          <note key="36" vol="100" pan="0" len="12" pos="1248"/>
          <note key="36" vol="100" pan="0" len="12" pos="1332"/>
          <note key="36" vol="100" pan="0" len="12" pos="1368"/>
          <note key="36" vol="100" pan="0" len="12" pos="1404"/>
          <note key="36" vol="100" pan="0" len="12" pos="1488"/>
          <note key="36" vol="100" pan="0" len="12" pos="1512"/>
        </midiclip>
        <midiclip type="1" name="" muted="0" steps="16" pos="1536">
          <note key="36" vol="100" pan="0" len="12" pos="132"/>
          <note key="36" vol="100" pan="0" len="12" pos="168"/>
        </midiclip>
        <midiclip type="1" name="" muted="0" steps="16" pos="2880">
          <note key="36" vol="100" pan="0" len="12" pos="0"/>
          <note key="36" vol="100" pan="0" len="12" pos="72"/>
          <note key="36" vol="100" pan="0" len="12" pos="120"/>
          <note key="36" vol="100" pan="0" len="12" pos="192"/>
          <note key="36" vol="100" pan="0" len="12" pos="264"/>
          <note key="36" vol="100" pan="0" len="12" pos="312"/>
          <note key="36" vol="100" pan="0" len="12" pos="336"/>
        </midiclip>
        <midiclip type="1" name="" muted="0" steps="16" pos="6336">
          <note key="36" vol="100" pan="0" len="12" pos="0"/>
        </midiclip>
        <midiclip type="1" name="" muted="0" steps="16" pos="2112">
          <note key="36" vol="100" pan="0" len="12" pos="0"/>
          <note key="36" vol="100" pan="0" len="12" pos="72"/>
          <note key="36" vol="100" pan="0" len="12" pos="120"/>
          <note key="36" vol="100" pan="0" len="12" pos="192"/>
          <note key="36" vol="100" pan="0" len="12" pos="264"/>
          <note key="36" vol="100" pan="0" len="12" pos="312"/>
          <note key="36" vol="100" pan="0" len="12" pos="336"/>
        </midiclip>
        <midiclip type="1" name="" muted="0" steps="16" pos="4800">
          <note key="36" vol="100" pan="0" len="12" pos="0"/>
          <note key="36" vol="100" pan="0" len="12" pos="72"/>
          <note key="36" vol="100" pan="0" len="12" pos="120"/>
          <note key="36" vol="100" pan="0" len="12" pos="192"/>
          <note key="36" vol="100" pan="0" len="12" pos="264"/>
          <note key="36" vol="100" pan="0" len="12" pos="312"/>
          <note key="36" vol="100" pan="0" len="12" pos="336"/>
        </midiclip>
        <midiclip type="1" name="" muted="0" steps="16" pos="5568">
          <note key="36" vol="100" pan="0" len="12" pos="0"/>
          <note key="36" vol="100" pan="0" len="12" pos="72"/>
          <note key="36" vol="100" pan="0" len="12" pos="120"/>
          <note key="36" vol="100" pan="0" len="12" pos="192"/>
          <note key="36" vol="100" pan="0" len="12" pos="264"/>
          <note key="36" vol="100" pan="0" len="12" pos="312"/>
          <note key="36" vol="100" pan="0" len="12" pos="336"/>
        </midiclip>
        <midiclip type="1" name="" muted="0" steps="16" pos="5952">
          <note key="36" vol="100" pan="0" len="12" pos="0"/>
          <note key="36" vol="100" pan="0" len="12" pos="72"/>
          <note key="36" vol="100" pan="0" len="12" pos="120"/>
          <note key="36" vol="100" pan="0" len="12" pos="192"/>
          <note key="36" vol="100" pan="0" len="12" pos="264"/>
          <note key="36" vol="100" pan="0" len="12" pos="312"/>
          <note key="36" vol="100" pan="0" len="12" pos="336"/>
        </midiclip>
        <midiclip type="1" name="" muted="0" steps="16" pos="5184">
          <note key="36" vol="100" pan="0" len="12" pos="0"/>
          <note key="36" vol="100" pan="0" len="12" pos="72"/>
          <note key="36" vol="100" pan="0" len="12" pos="120"/>
          <note key="36" vol="100" pan="0" len="12" pos="192"/>
          <note key="36" vol="100" pan="0" len="12" pos="264"/>
          <note key="36" vol="100" pan="0" len="12" pos="312"/>
          <note key="36" vol="100" pan="0" len="12" pos="336"/>
        </midiclip>
      </track>
      <track solo="0" type="0" name="HIHATS" muted="1" mutedBeforeSolo="0">
        <instrumenttrack pitchrange="12" vol="100" pitch="0" lastkey="127" enabled="0" pan="-39.8" usemasterpitch="0" basenote="69" mixch="7" keymap="0" enablecc="0" range_import="1" firstkey="0" scale="0">
          <midicontrollers cc56="0" cc92="0" cc46="0" cc0="0" cc36="0" cc122="0" cc63="0" cc93="0" cc66="0" cc80="0" cc123="0" cc104="0" cc59="0" cc81="0" cc106="0" cc64="0" cc6="0" cc5="0" cc96="0" cc114="0" cc79="0" cc91="0" cc25="0" cc10="0" cc86="0" cc2="0" cc16="0" cc53="0" cc97="0" cc44="0" cc20="0" cc75="0" cc34="0" cc62="0" cc98="0" cc51="0" cc84="0" cc69="0" cc101="0" cc52="0" cc121="0" cc42="0" cc78="0" cc30="0" cc82="0" cc107="0" cc22="0" cc33="0" cc47="0" cc61="0" cc15="0" cc48="0" cc109="0" cc9="0" cc7="0" cc17="0" cc71="0" cc73="0" cc43="0" cc112="0" cc127="0" cc28="0" cc76="0" cc58="0" cc125="0" cc26="0" cc94="0" cc105="0" cc54="0" cc117="0" cc8="0" cc77="0" cc99="0" cc116="0" cc50="0" cc4="0" cc45="0" cc40="0" cc27="0" cc83="0" cc102="0" cc23="0" cc12="0" cc65="0" cc57="0" cc88="0" cc118="0" cc11="0" cc89="0" cc110="0" cc18="0" cc70="0" cc29="0" cc3="0" cc55="0" cc35="0" cc95="0" cc85="0" cc19="0" cc115="0" cc120="0" cc39="0" cc67="0" cc72="0" cc90="0" cc126="0" cc119="0" cc1="0" cc68="0" cc14="0" cc38="0" cc49="0" cc21="0" cc87="0" cc32="0" cc37="0" cc100="0" cc103="0" cc74="0" cc111="0" cc113="0" cc24="0" cc31="0" cc60="0" cc41="0" cc13="0" cc124="0" cc108="0"/>
          <instrument name="sf2player">
            <sf2player bank="128" gain="0.9" reverbOn="0" reverbWidth="0.5" chorusLevel="2" src="usersoundfont:SGM-V2.01.sf2" chorusDepth="8" patch="32" reverbRoomSize="0.2" reverbLevel="0.9" chorusOn="0" chorusNum="3" chorusSpeed="0.3" reverbDamping="0">
              <key/>
            </sf2player>
          </instrument>
          <eldata fcut="14000" fres="0.5" ftype="0" fwet="0">
            <elvol sustain="0.5" lspd="0.1" lspd_syncmode="0" amt="0" hold="0.5" lspd_denominator="4" att="0" pdel="0" userwavefile="" lshp="0" x100="0" ctlenvamt="0" lpdel="0" rel="0.1" dec="0.5" lamt="0" lspd_numerator="4" latt="0"/>
            <elcut sustain="0.5" lspd="0.1" lspd_syncmode="0" amt="0" hold="0.5" lspd_denominator="4" att="0" pdel="0" userwavefile="" lshp="0" x100="0" ctlenvamt="0" lpdel="0" rel="0.1" dec="0.5" lamt="0" lspd_numerator="4" latt="0"/>
            <elres sustain="0.5" lspd="0.1" lspd_syncmode="0" amt="0" hold="0.5" lspd_denominator="4" att="0" pdel="0" userwavefile="" lshp="0" x100="0" ctlenvamt="0" lpdel="0" rel="0.1" dec="0.5" lamt="0" lspd_numerator="4" latt="0"/>
          </eldata>
          <chordcreator chordrange="1" chord-enabled="0" chord="0"/>
          <arpeggiator arp-enabled="0" arpcycle="0" arprange="1" arpgate="100" arptime_numerator="4" arptime_syncmode="0" arpskip="0" arptime_denominator="4" arptime="200" arpdir="0" arp="0" arpmode="0" arprepeats="1" arpmiss="0"/>
          <midiport fixedinputvelocity="-1" readable="1" outputcontroller="0" inports="" inputcontroller="0" inputchannel="0" outputchannel="1" fixedoutputnote="-1" basevelocity="127" writable="0" fixedoutputvelocity="-1" outputprogram="1"/>
          <fxchain enabled="0" numofeffects="0"/>
        </instrumenttrack>
        <midiclip type="1" name="" muted="0" steps="16" pos="1728">
          <note key="42" vol="100" pan="0" len="12" pos="0"/>
          <note key="44" vol="100" pan="0" len="12" pos="24"/>
          <note key="44" vol="100" pan="0" len="12" pos="36"/>
          <note key="46" vol="100" pan="0" len="12" pos="60"/>
          <note key="44" vol="100" pan="0" len="12" pos="96"/>
          <note key="44" vol="100" pan="0" len="12" pos="168"/>
          <note key="42" vol="100" pan="0" len="12" pos="192"/>
          <note key="44" vol="100" pan="0" len="12" pos="216"/>
          <note key="44" vol="100" pan="0" len="12" pos="228"/>
          <note key="46" vol="100" pan="0" len="12" pos="252"/>
          <note key="44" vol="100" pan="0" len="12" pos="288"/>
          <note key="44" vol="100" pan="0" len="12" pos="360"/>
        </midiclip>
        <midiclip type="1" name="" muted="0" steps="16" pos="2496">
          <note key="42" vol="100" pan="0" len="12" pos="0"/>
          <note key="44" vol="100" pan="0" len="12" pos="24"/>
          <note key="44" vol="100" pan="0" len="12" pos="36"/>
          <note key="46" vol="100" pan="0" len="12" pos="60"/>
          <note key="44" vol="100" pan="0" len="12" pos="96"/>
          <note key="44" vol="100" pan="0" len="12" pos="168"/>
          <note key="42" vol="100" pan="0" len="12" pos="192"/>
          <note key="44" vol="100" pan="0" len="12" pos="216"/>
          <note key="44" vol="100" pan="0" len="12" pos="228"/>
          <note key="46" vol="100" pan="0" len="12" pos="252"/>
          <note key="44" vol="100" pan="0" len="12" pos="288"/>
          <note key="44" vol="100" pan="0" len="12" pos="360"/>
        </midiclip>
        <midiclip type="1" name="" muted="0" steps="16" pos="2880">
          <note key="42" vol="100" pan="0" len="12" pos="0"/>
          <note key="44" vol="100" pan="0" len="12" pos="24"/>
          <note key="44" vol="100" pan="0" len="12" pos="36"/>
          <note key="46" vol="100" pan="0" len="12" pos="60"/>
          <note key="44" vol="100" pan="0" len="12" pos="96"/>
          <note key="44" vol="100" pan="0" len="12" pos="168"/>
          <note key="42" vol="100" pan="0" len="12" pos="192"/>
          <note key="44" vol="100" pan="0" len="12" pos="216"/>
          <note key="44" vol="100" pan="0" len="12" pos="228"/>
          <note key="46" vol="100" pan="0" len="12" pos="252"/>
          <note key="44" vol="100" pan="0" len="12" pos="288"/>
          <note key="46" vol="100" pan="0" len="12" pos="312"/>
          <note key="44" vol="100" pan="0" len="12" pos="336"/>
          <note key="46" vol="100" pan="0" len="12" pos="360"/>
        </midiclip>
        <midiclip type="1" name="" muted="0" steps="16" pos="2112">
          <note key="42" vol="100" pan="0" len="12" pos="0"/>
          <note key="44" vol="100" pan="0" len="12" pos="24"/>
          <note key="44" vol="100" pan="0" len="12" pos="36"/>
          <note key="46" vol="100" pan="0" len="12" pos="60"/>
          <note key="44" vol="100" pan="0" len="12" pos="96"/>
          <note key="44" vol="100" pan="0" len="12" pos="168"/>
          <note key="42" vol="100" pan="0" len="12" pos="192"/>
          <note key="44" vol="100" pan="0" len="12" pos="216"/>
          <note key="44" vol="100" pan="0" len="12" pos="228"/>
          <note key="46" vol="100" pan="0" len="12" pos="252"/>
          <note key="44" vol="100" pan="0" len="12" pos="288"/>
          <note key="44" vol="100" pan="0" len="12" pos="360"/>
        </midiclip>
        <midiclip type="1" name="" muted="0" steps="16" pos="4800">
          <note key="42" vol="100" pan="0" len="12" pos="0"/>
          <note key="44" vol="100" pan="0" len="12" pos="24"/>
          <note key="44" vol="100" pan="0" len="12" pos="36"/>
          <note key="46" vol="100" pan="0" len="12" pos="60"/>
          <note key="44" vol="100" pan="0" len="12" pos="96"/>
          <note key="44" vol="100" pan="0" len="12" pos="168"/>
          <note key="42" vol="100" pan="0" len="12" pos="192"/>
          <note key="44" vol="100" pan="0" len="12" pos="216"/>
          <note key="44" vol="100" pan="0" len="12" pos="228"/>
          <note key="46" vol="100" pan="0" len="12" pos="252"/>
          <note key="44" vol="100" pan="0" len="12" pos="288"/>
          <note key="44" vol="100" pan="0" len="12" pos="360"/>
        </midiclip>
        <midiclip type="1" name="" muted="0" steps="16" pos="5568">
          <note key="42" vol="100" pan="0" len="12" pos="0"/>
          <note key="44" vol="100" pan="0" len="12" pos="24"/>
          <note key="44" vol="100" pan="0" len="12" pos="36"/>
          <note key="46" vol="100" pan="0" len="12" pos="60"/>
          <note key="44" vol="100" pan="0" len="12" pos="96"/>
          <note key="44" vol="100" pan="0" len="12" pos="168"/>
          <note key="42" vol="100" pan="0" len="12" pos="192"/>
          <note key="44" vol="100" pan="0" len="12" pos="216"/>
          <note key="44" vol="100" pan="0" len="12" pos="228"/>
          <note key="46" vol="100" pan="0" len="12" pos="252"/>
          <note key="44" vol="100" pan="0" len="12" pos="288"/>
          <note key="44" vol="100" pan="0" len="12" pos="360"/>
        </midiclip>
        <midiclip type="1" name="" muted="0" steps="16" pos="5952">
          <note key="42" vol="100" pan="0" len="12" pos="0"/>
          <note key="44" vol="100" pan="0" len="12" pos="24"/>
          <note key="44" vol="100" pan="0" len="12" pos="36"/>
          <note key="46" vol="100" pan="0" len="12" pos="60"/>
          <note key="44" vol="100" pan="0" len="12" pos="96"/>
          <note key="44" vol="100" pan="0" len="12" pos="168"/>
          <note key="42" vol="100" pan="0" len="12" pos="192"/>
          <note key="44" vol="100" pan="0" len="12" pos="216"/>
          <note key="44" vol="100" pan="0" len="12" pos="228"/>
          <note key="46" vol="100" pan="0" len="12" pos="252"/>
          <note key="44" vol="100" pan="0" len="12" pos="288"/>
          <note key="46" vol="100" pan="0" len="12" pos="312"/>
          <note key="44" vol="100" pan="0" len="12" pos="336"/>
          <note key="46" vol="100" pan="0" len="12" pos="360"/>
        </midiclip>
        <midiclip type="1" name="" muted="0" steps="16" pos="5184">
          <note key="42" vol="100" pan="0" len="12" pos="0"/>
          <note key="44" vol="100" pan="0" len="12" pos="24"/>
          <note key="44" vol="100" pan="0" len="12" pos="36"/>
          <note key="46" vol="100" pan="0" len="12" pos="60"/>
          <note key="44" vol="100" pan="0" len="12" pos="96"/>
          <note key="44" vol="100" pan="0" len="12" pos="168"/>
          <note key="42" vol="100" pan="0" len="12" pos="192"/>
          <note key="44" vol="100" pan="0" len="12" pos="216"/>
          <note key="44" vol="100" pan="0" len="12" pos="228"/>
          <note key="46" vol="100" pan="0" len="12" pos="252"/>
          <note key="44" vol="100" pan="0" len="12" pos="288"/>
          <note key="44" vol="100" pan="0" len="12" pos="360"/>
        </midiclip>
      </track>
      <track solo="0" type="0" name="SNARE" muted="1" mutedBeforeSolo="0">
        <instrumenttrack pitchrange="12" vol="100" pitch="-600" lastkey="127" enabled="0" pan="-6.4" usemasterpitch="0" basenote="69" mixch="6" keymap="0" enablecc="0" range_import="1" firstkey="0" scale="0">
          <midicontrollers cc56="0" cc92="0" cc46="0" cc0="0" cc36="0" cc122="0" cc63="0" cc93="0" cc66="0" cc80="0" cc123="0" cc104="0" cc59="0" cc81="0" cc106="0" cc64="0" cc6="0" cc5="0" cc96="0" cc114="0" cc79="0" cc91="0" cc25="0" cc10="0" cc86="0" cc2="0" cc16="0" cc53="0" cc97="0" cc44="0" cc20="0" cc75="0" cc34="0" cc62="0" cc98="0" cc51="0" cc84="0" cc69="0" cc101="0" cc52="0" cc121="0" cc42="0" cc78="0" cc30="0" cc82="0" cc107="0" cc22="0" cc33="0" cc47="0" cc61="0" cc15="0" cc48="0" cc109="0" cc9="0" cc7="0" cc17="0" cc71="0" cc73="0" cc43="0" cc112="0" cc127="0" cc28="0" cc76="0" cc58="0" cc125="0" cc26="0" cc94="0" cc105="0" cc54="0" cc117="0" cc8="0" cc77="0" cc99="0" cc116="0" cc50="0" cc4="0" cc45="0" cc40="0" cc27="0" cc83="0" cc102="0" cc23="0" cc12="0" cc65="0" cc57="0" cc88="0" cc118="0" cc11="0" cc89="0" cc110="0" cc18="0" cc70="0" cc29="0" cc3="0" cc55="0" cc35="0" cc95="0" cc85="0" cc19="0" cc115="0" cc120="0" cc39="0" cc67="0" cc72="0" cc90="0" cc126="0" cc119="0" cc1="0" cc68="0" cc14="0" cc38="0" cc49="0" cc21="0" cc87="0" cc32="0" cc37="0" cc100="0" cc103="0" cc74="0" cc111="0" cc113="0" cc24="0" cc31="0" cc60="0" cc41="0" cc13="0" cc124="0" cc108="0"/>
          <instrument name="sf2player">
            <sf2player bank="128" gain="0.76" reverbOn="0" reverbWidth="0.5" chorusLevel="2" src="usersoundfont:SGM-V2.01.sf2" chorusDepth="8" patch="32" reverbRoomSize="0.2" reverbLevel="0.9" chorusOn="0" chorusNum="3" chorusSpeed="0.3" reverbDamping="0">
              <key/>
            </sf2player>
          </instrument>
          <eldata fcut="14000" fres="0.5" ftype="0" fwet="0">
            <elvol sustain="0.5" lspd="0.1" lspd_syncmode="0" amt="0" hold="0.5" lspd_denominator="4" att="0" pdel="0" userwavefile="" lshp="0" x100="0" ctlenvamt="0" lpdel="0" rel="0.1" dec="0.5" lamt="0" lspd_numerator="4" latt="0"/>
            <elcut sustain="0.5" lspd="0.1" lspd_syncmode="0" amt="0" hold="0.5" lspd_denominator="4" att="0" pdel="0" userwavefile="" lshp="0" x100="0" ctlenvamt="0" lpdel="0" rel="0.1" dec="0.5" lamt="0" lspd_numerator="4" latt="0"/>
            <elres sustain="0.5" lspd="0.1" lspd_syncmode="0" amt="0" hold="0.5" lspd_denominator="4" att="0" pdel="0" userwavefile="" lshp="0" x100="0" ctlenvamt="0" lpdel="0" rel="0.1" dec="0.5" lamt="0" lspd_numerator="4" latt="0"/>
          </eldata>
          <chordcreator chordrange="1" chord-enabled="0" chord="0"/>
          <arpeggiator arp-enabled="0" arpcycle="0" arprange="1" arpgate="100" arptime_numerator="4" arptime_syncmode="0" arpskip="0" arptime_denominator="4" arptime="200" arpdir="0" arp="0" arpmode="0" arprepeats="1" arpmiss="0"/>
          <midiport fixedinputvelocity="-1" readable="1" outputcontroller="0" inports="" inputcontroller="0" inputchannel="0" outputchannel="1" fixedoutputnote="-1" basevelocity="127" writable="0" fixedoutputvelocity="-1" outputprogram="1"/>
          <fxchain enabled="0" numofeffects="0"/>
        </instrumenttrack>
        <midiclip type="1" name="" muted="0" steps="16" pos="1728">
          <note key="38" vol="100" pan="0" len="12" pos="120"/>
          <note key="40" vol="100" pan="0" len="12" pos="144"/>
          <note key="38" vol="100" pan="0" len="12" pos="336"/>
        </midiclip>
        <midiclip type="1" name="" muted="0" steps="16" pos="2496">
          <note key="38" vol="100" pan="0" len="12" pos="120"/>
          <note key="40" vol="100" pan="0" len="12" pos="144"/>
          <note key="38" vol="100" pan="0" len="12" pos="336"/>
        </midiclip>
        <midiclip type="1" name="" muted="0" steps="16" pos="2880">
          <note key="38" vol="100" pan="0" len="12" pos="120"/>
          <note key="40" vol="100" pan="0" len="12" pos="144"/>
          <note key="38" vol="100" pan="0" len="12" pos="336"/>
        </midiclip>
        <midiclip type="1" name="" muted="0" steps="16" pos="2112">
          <note key="38" vol="100" pan="0" len="12" pos="120"/>
          <note key="40" vol="100" pan="0" len="12" pos="144"/>
          <note key="38" vol="100" pan="0" len="12" pos="336"/>
        </midiclip>
        <midiclip type="1" name="" muted="0" steps="16" pos="4800">
          <note key="38" vol="100" pan="0" len="12" pos="120"/>
          <note key="40" vol="100" pan="0" len="12" pos="144"/>
          <note key="38" vol="100" pan="0" len="12" pos="336"/>
        </midiclip>
        <midiclip type="1" name="" muted="0" steps="16" pos="5184">
          <note key="38" vol="100" pan="0" len="12" pos="120"/>
          <note key="40" vol="100" pan="0" len="12" pos="144"/>
          <note key="38" vol="100" pan="0" len="12" pos="336"/>
        </midiclip>
        <midiclip type="1" name="" muted="0" steps="16" pos="5568">
          <note key="38" vol="100" pan="0" len="12" pos="120"/>
          <note key="40" vol="100" pan="0" len="12" pos="144"/>
          <note key="38" vol="100" pan="0" len="12" pos="336"/>
        </midiclip>
        <midiclip type="1" name="" muted="0" steps="16" pos="5952">
          <note key="38" vol="100" pan="0" len="12" pos="120"/>
          <note key="40" vol="100" pan="0" len="12" pos="144"/>
          <note key="38" vol="100" pan="0" len="12" pos="336"/>
        </midiclip>
      </track>
      <track solo="0" type="0" name="TOMS" muted="1" mutedBeforeSolo="0">
        <instrumenttrack pitchrange="12" vol="100" pitch="-600" lastkey="127" enabled="0" pan="0" usemasterpitch="0" basenote="69" mixch="9" keymap="0" enablecc="0" range_import="1" firstkey="0" scale="0">
          <midicontrollers cc56="0" cc92="0" cc46="0" cc0="0" cc36="0" cc122="0" cc63="0" cc93="0" cc66="0" cc80="0" cc123="0" cc104="0" cc59="0" cc81="0" cc106="0" cc64="0" cc6="0" cc5="0" cc96="0" cc114="0" cc79="0" cc91="0" cc25="0" cc10="0" cc86="0" cc2="0" cc16="0" cc53="0" cc97="0" cc44="0" cc20="0" cc75="0" cc34="0" cc62="0" cc98="0" cc51="0" cc84="0" cc69="0" cc101="0" cc52="0" cc121="0" cc42="0" cc78="0" cc30="0" cc82="0" cc107="0" cc22="0" cc33="0" cc47="0" cc61="0" cc15="0" cc48="0" cc109="0" cc9="0" cc7="0" cc17="0" cc71="0" cc73="0" cc43="0" cc112="0" cc127="0" cc28="0" cc76="0" cc58="0" cc125="0" cc26="0" cc94="0" cc105="0" cc54="0" cc117="0" cc8="0" cc77="0" cc99="0" cc116="0" cc50="0" cc4="0" cc45="0" cc40="0" cc27="0" cc83="0" cc102="0" cc23="0" cc12="0" cc65="0" cc57="0" cc88="0" cc118="0" cc11="0" cc89="0" cc110="0" cc18="0" cc70="0" cc29="0" cc3="0" cc55="0" cc35="0" cc95="0" cc85="0" cc19="0" cc115="0" cc120="0" cc39="0" cc67="0" cc72="0" cc90="0" cc126="0" cc119="0" cc1="0" cc68="0" cc14="0" cc38="0" cc49="0" cc21="0" cc87="0" cc32="0" cc37="0" cc100="0" cc103="0" cc74="0" cc111="0" cc113="0" cc24="0" cc31="0" cc60="0" cc41="0" cc13="0" cc124="0" cc108="0"/>
          <instrument name="sf2player">
            <sf2player bank="128" gain="0.62" reverbOn="0" reverbWidth="0.5" chorusLevel="2" src="usersoundfont:SGM-V2.01.sf2" chorusDepth="8" patch="32" reverbRoomSize="0.2" reverbLevel="0.9" chorusOn="0" chorusNum="3" chorusSpeed="0.3" reverbDamping="0">
              <key/>
            </sf2player>
          </instrument>
          <eldata fcut="14000" fres="0.5" ftype="0" fwet="0">
            <elvol sustain="0.5" lspd="0.1" lspd_syncmode="0" amt="0" hold="0.5" lspd_denominator="4" att="0" pdel="0" userwavefile="" lshp="0" x100="0" ctlenvamt="0" lpdel="0" rel="0.1" dec="0.5" lamt="0" lspd_numerator="4" latt="0"/>
            <elcut sustain="0.5" lspd="0.1" lspd_syncmode="0" amt="0" hold="0.5" lspd_denominator="4" att="0" pdel="0" userwavefile="" lshp="0" x100="0" ctlenvamt="0" lpdel="0" rel="0.1" dec="0.5" lamt="0" lspd_numerator="4" latt="0"/>
            <elres sustain="0.5" lspd="0.1" lspd_syncmode="0" amt="0" hold="0.5" lspd_denominator="4" att="0" pdel="0" userwavefile="" lshp="0" x100="0" ctlenvamt="0" lpdel="0" rel="0.1" dec="0.5" lamt="0" lspd_numerator="4" latt="0"/>
          </eldata>
          <chordcreator chordrange="1" chord-enabled="0" chord="0"/>
          <arpeggiator arp-enabled="0" arpcycle="0" arprange="1" arpgate="100" arptime_numerator="4" arptime_syncmode="0" arpskip="0" arptime_denominator="4" arptime="200" arpdir="0" arp="0" arpmode="0" arprepeats="1" arpmiss="0"/>
          <midiport fixedinputvelocity="-1" readable="1" outputcontroller="0" inports="" inputcontroller="0" inputchannel="0" outputchannel="1" fixedoutputnote="-1" basevelocity="127" writable="0" fixedoutputvelocity="-1" outputprogram="1"/>
          <fxchain enabled="0" numofeffects="0"/>
        </instrumenttrack>
        <midiclip type="1" name="" muted="0" steps="16" pos="2304">
          <note key="48" vol="100" pan="0" len="12" pos="120"/>
          <note key="47" vol="100" pan="0" len="12" pos="132"/>
          <note key="41" vol="100" pan="0" len="12" pos="144"/>
        </midiclip>
        <midiclip type="1" name="" muted="0" steps="16" pos="4800">
          <note key="45" vol="100" pan="0" len="12" pos="144"/>
          <note key="47" vol="100" pan="0" len="12" pos="168"/>
        </midiclip>
        <midiclip type="1" name="" muted="0" steps="16" pos="5184">
          <note key="45" vol="100" pan="0" len="12" pos="144"/>
          <note key="47" vol="100" pan="0" len="12" pos="168"/>
          <note key="48" vol="100" pan="0" len="12" pos="312"/>
          <note key="47" vol="100" pan="0" len="12" pos="324"/>
          <note key="41" vol="100" pan="0" len="12" pos="336"/>
        </midiclip>
        <midiclip type="1" name="" muted="0" steps="16" pos="5568">
          <note key="45" vol="100" pan="0" len="12" pos="144"/>
          <note key="47" vol="100" pan="0" len="12" pos="168"/>
        </midiclip>
        <midiclip type="1" name="" muted="0" steps="16" pos="5952">
          <note key="45" vol="100" pan="0" len="12" pos="144"/>
          <note key="47" vol="100" pan="0" len="12" pos="168"/>
        </midiclip>
      </track>
      <track solo="0" type="0" name="RIDE" muted="1" mutedBeforeSolo="0">
        <instrumenttrack pitchrange="12" vol="100" pitch="-200" lastkey="127" enabled="0" pan="28.2" usemasterpitch="0" basenote="69" mixch="5" keymap="0" enablecc="0" range_import="1" firstkey="0" scale="0">
          <midicontrollers cc56="0" cc92="0" cc46="0" cc0="0" cc36="0" cc122="0" cc63="0" cc93="0" cc66="0" cc80="0" cc123="0" cc104="0" cc59="0" cc81="0" cc106="0" cc64="0" cc6="0" cc5="0" cc96="0" cc114="0" cc79="0" cc91="0" cc25="0" cc10="0" cc86="0" cc2="0" cc16="0" cc53="0" cc97="0" cc44="0" cc20="0" cc75="0" cc34="0" cc62="0" cc98="0" cc51="0" cc84="0" cc69="0" cc101="0" cc52="0" cc121="0" cc42="0" cc78="0" cc30="0" cc82="0" cc107="0" cc22="0" cc33="0" cc47="0" cc61="0" cc15="0" cc48="0" cc109="0" cc9="0" cc7="0" cc17="0" cc71="0" cc73="0" cc43="0" cc112="0" cc127="0" cc28="0" cc76="0" cc58="0" cc125="0" cc26="0" cc94="0" cc105="0" cc54="0" cc117="0" cc8="0" cc77="0" cc99="0" cc116="0" cc50="0" cc4="0" cc45="0" cc40="0" cc27="0" cc83="0" cc102="0" cc23="0" cc12="0" cc65="0" cc57="0" cc88="0" cc118="0" cc11="0" cc89="0" cc110="0" cc18="0" cc70="0" cc29="0" cc3="0" cc55="0" cc35="0" cc95="0" cc85="0" cc19="0" cc115="0" cc120="0" cc39="0" cc67="0" cc72="0" cc90="0" cc126="0" cc119="0" cc1="0" cc68="0" cc14="0" cc38="0" cc49="0" cc21="0" cc87="0" cc32="0" cc37="0" cc100="0" cc103="0" cc74="0" cc111="0" cc113="0" cc24="0" cc31="0" cc60="0" cc41="0" cc13="0" cc124="0" cc108="0"/>
          <instrument name="sf2player">
            <sf2player bank="128" gain="0.66" reverbOn="0" reverbWidth="0.5" chorusLevel="2" src="usersoundfont:SGM-V2.01.sf2" chorusDepth="8" patch="32" reverbRoomSize="0.2" reverbLevel="0.9" chorusOn="0" chorusNum="3" chorusSpeed="0.3" reverbDamping="0">
              <key/>
            </sf2player>
          </instrument>
          <eldata fcut="14000" fres="0.5" ftype="0" fwet="0">
            <elvol sustain="0.5" lspd="0.1" lspd_syncmode="0" amt="0" hold="0.5" lspd_denominator="4" att="0" pdel="0" userwavefile="" lshp="0" x100="0" ctlenvamt="0" lpdel="0" rel="0.1" dec="0.5" lamt="0" lspd_numerator="4" latt="0"/>
            <elcut sustain="0.5" lspd="0.1" lspd_syncmode="0" amt="0" hold="0.5" lspd_denominator="4" att="0" pdel="0" userwavefile="" lshp="0" x100="0" ctlenvamt="0" lpdel="0" rel="0.1" dec="0.5" lamt="0" lspd_numerator="4" latt="0"/>
            <elres sustain="0.5" lspd="0.1" lspd_syncmode="0" amt="0" hold="0.5" lspd_denominator="4" att="0" pdel="0" userwavefile="" lshp="0" x100="0" ctlenvamt="0" lpdel="0" rel="0.1" dec="0.5" lamt="0" lspd_numerator="4" latt="0"/>
          </eldata>
          <chordcreator chordrange="1" chord-enabled="0" chord="0"/>
          <arpeggiator arp-enabled="0" arpcycle="0" arprange="1" arpgate="100" arptime_numerator="4" arptime_syncmode="0" arpskip="0" arptime_denominator="4" arptime="200" arpdir="0" arp="0" arpmode="0" arprepeats="1" arpmiss="0"/>
          <midiport fixedinputvelocity="-1" readable="1" outputcontroller="0" inports="" inputcontroller="0" inputchannel="0" outputchannel="1" fixedoutputnote="-1" basevelocity="127" writable="0" fixedoutputvelocity="-1" outputprogram="1"/>
          <fxchain enabled="0" numofeffects="0"/>
        </instrumenttrack>
        <midiclip type="1" name="" muted="0" steps="16" pos="1728">
          <note key="51" vol="100" pan="0" len="12" pos="0"/>
          <note key="51" vol="100" pan="0" len="12" pos="192"/>
          <note key="53" vol="100" pan="0" len="12" pos="336"/>
        </midiclip>
        <midiclip type="1" name="" muted="0" steps="16" pos="2496">
          <note key="51" vol="100" pan="0" len="12" pos="0"/>
          <note key="51" vol="100" pan="0" len="12" pos="192"/>
          <note key="53" vol="100" pan="0" len="12" pos="336"/>
        </midiclip>
        <midiclip type="1" name="" muted="0" steps="16" pos="1536">
          <note key="51" vol="100" pan="0" len="12" pos="144"/>
        </midiclip>
        <midiclip type="1" name="" muted="0" steps="16" pos="2880">
          <note key="51" vol="100" pan="0" len="12" pos="0"/>
          <note key="51" vol="100" pan="0" len="12" pos="192"/>
        </midiclip>
        <midiclip type="1" name="" muted="0" steps="16" pos="2112">
          <note key="51" vol="100" pan="0" len="12" pos="0"/>
          <note key="51" vol="100" pan="0" len="12" pos="192"/>
          <note key="53" vol="100" pan="0" len="12" pos="336"/>
        </midiclip>
        <midiclip type="1" name="" muted="0" steps="16" pos="4800">
          <note key="51" vol="100" pan="0" len="12" pos="0"/>
          <note key="51" vol="100" pan="0" len="12" pos="192"/>
          <note key="53" vol="100" pan="0" len="12" pos="336"/>
        </midiclip>
        <midiclip type="1" name="" muted="0" steps="16" pos="5184">
          <note key="51" vol="100" pan="0" len="12" pos="0"/>
          <note key="51" vol="100" pan="0" len="12" pos="192"/>
          <note key="53" vol="100" pan="0" len="12" pos="336"/>
        </midiclip>
        <midiclip type="1" name="" muted="0" steps="16" pos="5568">
          <note key="51" vol="100" pan="0" len="12" pos="0"/>
          <note key="51" vol="100" pan="0" len="12" pos="192"/>
        </midiclip>
        <midiclip type="1" name="" muted="0" steps="16" pos="5952">
          <note key="51" vol="100" pan="0" len="12" pos="0"/>
          <note key="51" vol="100" pan="0" len="12" pos="192"/>
        </midiclip>
        <midiclip type="1" name="" muted="0" steps="16" pos="3264">
          <note key="53" vol="100" pan="0" len="12" pos="0"/>
          <note key="51" vol="100" pan="0" len="12" pos="144"/>
          <note key="53" vol="100" pan="0" len="12" pos="168"/>
          <note key="51" vol="100" pan="0" len="12" pos="288"/>
          <note key="53" vol="100" pan="0" len="12" pos="312"/>
          <note key="51" vol="100" pan="0" len="12" pos="432"/>
          <note key="53" vol="100" pan="0" len="12" pos="456"/>
          <note key="51" vol="100" pan="0" len="12" pos="576"/>
          <note key="53" vol="100" pan="0" len="12" pos="600"/>
          <note key="51" vol="100" pan="0" len="12" pos="720"/>
          <note key="53" vol="100" pan="0" len="12" pos="744"/>
          <note key="51" vol="100" pan="0" len="12" pos="864"/>
          <note key="53" vol="100" pan="0" len="12" pos="888"/>
          <note key="51" vol="100" pan="0" len="12" pos="1008"/>
          <note key="53" vol="100" pan="0" len="12" pos="1032"/>
          <note key="51" vol="100" pan="0" len="12" pos="1176"/>
          <note key="51" vol="100" pan="0" len="12" pos="1212"/>
          <note key="51" vol="100" pan="0" len="12" pos="1248"/>
          <note key="53" vol="100" pan="0" len="12" pos="1332"/>
          <note key="53" vol="100" pan="0" len="12" pos="1368"/>
          <note key="53" vol="100" pan="0" len="12" pos="1404"/>
        </midiclip>
      </track>
      <track solo="0" type="0" name="EVENT" muted="1" mutedBeforeSolo="0">
        <instrumenttrack pitchrange="24" vol="100" pitch="-400" lastkey="127" enabled="0" pan="-61.6" usemasterpitch="0" basenote="69" mixch="4" keymap="0" enablecc="0" range_import="1" firstkey="0" scale="0">
          <midicontrollers cc56="0" cc92="0" cc46="0" cc0="0" cc36="0" cc122="0" cc63="0" cc93="0" cc66="0" cc80="0" cc123="0" cc104="0" cc59="0" cc81="0" cc106="0" cc64="0" cc6="0" cc5="0" cc96="0" cc114="0" cc79="0" cc91="0" cc25="0" cc10="0" cc86="0" cc2="0" cc16="0" cc53="0" cc97="0" cc44="0" cc20="0" cc75="0" cc34="0" cc62="0" cc98="0" cc51="0" cc84="0" cc69="0" cc101="0" cc52="0" cc121="0" cc42="0" cc78="0" cc30="0" cc82="0" cc107="0" cc22="0" cc33="0" cc47="0" cc61="0" cc15="0" cc48="0" cc109="0" cc9="0" cc7="0" cc17="0" cc71="0" cc73="0" cc43="0" cc112="0" cc127="0" cc28="0" cc76="0" cc58="0" cc125="0" cc26="0" cc94="0" cc105="0" cc54="0" cc117="0" cc8="0" cc77="0" cc99="0" cc116="0" cc50="0" cc4="0" cc45="0" cc40="0" cc27="0" cc83="0" cc102="0" cc23="0" cc12="0" cc65="0" cc57="0" cc88="0" cc118="0" cc11="0" cc89="0" cc110="0" cc18="0" cc70="0" cc29="0" cc3="0" cc55="0" cc35="0" cc95="0" cc85="0" cc19="0" cc115="0" cc120="0" cc39="0" cc67="0" cc72="0" cc90="0" cc126="0" cc119="0" cc1="0" cc68="0" cc14="0" cc38="0" cc49="0" cc21="0" cc87="0" cc32="0" cc37="0" cc100="0" cc103="0" cc74="0" cc111="0" cc113="0" cc24="0" cc31="0" cc60="0" cc41="0" cc13="0" cc124="0" cc108="0"/>
          <instrument name="sf2player">
            <sf2player bank="128" gain="0.64" reverbOn="0" reverbWidth="0.5" chorusLevel="2" src="usersoundfont:SGM-V2.01.sf2" chorusDepth="8" patch="32" reverbRoomSize="0.2" reverbLevel="0.9" chorusOn="0" chorusNum="3" chorusSpeed="0.3" reverbDamping="0">
              <key/>
            </sf2player>
          </instrument>
          <eldata fcut="14000" fres="0.5" ftype="0" fwet="0">
            <elvol sustain="0.5" lspd="0.1" lspd_syncmode="0" amt="0" hold="0.5" lspd_denominator="4" att="0" pdel="0" userwavefile="" lshp="0" x100="0" ctlenvamt="0" lpdel="0" rel="0.1" dec="0.5" lamt="0" lspd_numerator="4" latt="0"/>
            <elcut sustain="0.5" lspd="0.1" lspd_syncmode="0" amt="0" hold="0.5" lspd_denominator="4" att="0" pdel="0" userwavefile="" lshp="0" x100="0" ctlenvamt="0" lpdel="0" rel="0.1" dec="0.5" lamt="0" lspd_numerator="4" latt="0"/>
            <elres sustain="0.5" lspd="0.1" lspd_syncmode="0" amt="0" hold="0.5" lspd_denominator="4" att="0" pdel="0" userwavefile="" lshp="0" x100="0" ctlenvamt="0" lpdel="0" rel="0.1" dec="0.5" lamt="0" lspd_numerator="4" latt="0"/>
          </eldata>
          <chordcreator chordrange="1" chord-enabled="0" chord="0"/>
          <arpeggiator arp-enabled="0" arpcycle="0" arprange="1" arpgate="100" arptime_numerator="4" arptime_syncmode="0" arpskip="0" arptime_denominator="4" arptime="200" arpdir="0" arp="0" arpmode="0" arprepeats="1" arpmiss="0"/>
          <midiport fixedinputvelocity="-1" readable="1" outputcontroller="0" inports="" inputcontroller="0" inputchannel="0" outputchannel="1" fixedoutputnote="-1" basevelocity="127" writable="0" fixedoutputvelocity="-1" outputprogram="1"/>
          <fxchain enabled="0" numofeffects="0"/>
        </instrumenttrack>
        <midiclip type="1" name="" muted="0" steps="16" pos="1728">
          <note key="77" vol="100" pan="0" len="12" pos="144"/>
          <note key="77" vol="100" pan="0" len="12" pos="312"/>
          <note key="76" vol="100" pan="0" len="12" pos="360"/>
        </midiclip>
        <midiclip type="1" name="" muted="0" steps="16" pos="2496">
          <note key="77" vol="100" pan="0" len="12" pos="144"/>
          <note key="77" vol="100" pan="0" len="12" pos="312"/>
          <note key="76" vol="100" pan="0" len="12" pos="360"/>
        </midiclip>
        <midiclip type="1" name="" muted="0" steps="16" pos="2880">
          <note key="77" vol="100" pan="0" len="12" pos="144"/>
        </midiclip>
        <midiclip type="1" name="" muted="0" steps="16" pos="2112">
          <note key="77" vol="100" pan="0" len="12" pos="144"/>
          <note key="77" vol="100" pan="0" len="12" pos="312"/>
        </midiclip>
        <midiclip type="1" name="" muted="0" steps="16" pos="4800">
          <note key="77" vol="100" pan="0" len="12" pos="144"/>
          <note key="76" vol="100" pan="0" len="12" pos="312"/>
          <note key="77" vol="100" pan="0" len="12" pos="360"/>
        </midiclip>
        <midiclip type="1" name="" muted="0" steps="16" pos="5184">
          <note key="77" vol="100" pan="0" len="12" pos="144"/>
          <note key="77" vol="100" pan="0" len="12" pos="312"/>
        </midiclip>
        <midiclip type="1" name="" muted="0" steps="16" pos="5568">
          <note key="77" vol="100" pan="0" len="12" pos="144"/>
          <note key="76" vol="100" pan="0" len="12" pos="312"/>
          <note key="77" vol="100" pan="0" len="12" pos="360"/>
        </midiclip>
        <midiclip type="1" name="" muted="0" steps="16" pos="5952">
          <note key="77" vol="100" pan="0" len="12" pos="144"/>
        </midiclip>
        <midiclip type="1" name="" muted="0" steps="16" pos="3264">
          <note key="77" vol="100" pan="0" len="12" pos="0"/>
          <note key="77" vol="100" pan="0" len="12" pos="120"/>
          <note key="77" vol="100" pan="0" len="12" pos="144"/>
          <note key="76" vol="100" pan="0" len="12" pos="168"/>
          <note key="77" vol="100" pan="0" len="12" pos="288"/>
          <note key="76" vol="100" pan="0" len="12" pos="312"/>
          <note key="77" vol="100" pan="0" len="12" pos="384"/>
          <note key="77" vol="100" pan="0" len="12" pos="408"/>
          <note key="76" vol="100" pan="0" len="12" pos="432"/>
          <note key="77" vol="100" pan="0" len="12" pos="456"/>
          <note key="77" vol="100" pan="0" len="12" pos="600"/>
          <note key="77" vol="100" pan="0" len="12" pos="696"/>
          <note key="77" vol="100" pan="0" len="12" pos="720"/>
          <note key="76" vol="100" pan="0" len="12" pos="744"/>
          <note key="77" vol="100" pan="0" len="12" pos="864"/>
          <note key="77" vol="100" pan="0" len="12" pos="888"/>
          <note key="77" vol="100" pan="0" len="12" pos="960"/>
          <note key="77" vol="100" pan="0" len="12" pos="984"/>
          <note key="77" vol="100" pan="0" len="12" pos="1008"/>
          <note key="76" vol="100" pan="0" len="12" pos="1032"/>
          <note key="77" vol="100" pan="0" len="12" pos="1176"/>
          <note key="76" vol="100" pan="0" len="12" pos="1212"/>
          <note key="77" vol="100" pan="0" len="12" pos="1248"/>
          <note key="77" vol="100" pan="0" len="12" pos="1332"/>
          <note key="77" vol="100" pan="0" len="12" pos="1368"/>
          <note key="77" vol="100" pan="0" len="12" pos="1404"/>
        </midiclip>
      </track>
      <track solo="0" type="0" name="CRASH" muted="1" mutedBeforeSolo="0">
        <instrumenttrack pitchrange="12" vol="100" pitch="-600" lastkey="127" enabled="0" pan="-42.4" usemasterpitch="0" basenote="69" mixch="10" keymap="0" enablecc="0" range_import="1" firstkey="0" scale="0">
          <midicontrollers cc56="0" cc92="0" cc46="0" cc0="0" cc36="0" cc122="0" cc63="0" cc93="0" cc66="0" cc80="0" cc123="0" cc104="0" cc59="0" cc81="0" cc106="0" cc64="0" cc6="0" cc5="0" cc96="0" cc114="0" cc79="0" cc91="0" cc25="0" cc10="0" cc86="0" cc2="0" cc16="0" cc53="0" cc97="0" cc44="0" cc20="0" cc75="0" cc34="0" cc62="0" cc98="0" cc51="0" cc84="0" cc69="0" cc101="0" cc52="0" cc121="0" cc42="0" cc78="0" cc30="0" cc82="0" cc107="0" cc22="0" cc33="0" cc47="0" cc61="0" cc15="0" cc48="0" cc109="0" cc9="0" cc7="0" cc17="0" cc71="0" cc73="0" cc43="0" cc112="0" cc127="0" cc28="0" cc76="0" cc58="0" cc125="0" cc26="0" cc94="0" cc105="0" cc54="0" cc117="0" cc8="0" cc77="0" cc99="0" cc116="0" cc50="0" cc4="0" cc45="0" cc40="0" cc27="0" cc83="0" cc102="0" cc23="0" cc12="0" cc65="0" cc57="0" cc88="0" cc118="0" cc11="0" cc89="0" cc110="0" cc18="0" cc70="0" cc29="0" cc3="0" cc55="0" cc35="0" cc95="0" cc85="0" cc19="0" cc115="0" cc120="0" cc39="0" cc67="0" cc72="0" cc90="0" cc126="0" cc119="0" cc1="0" cc68="0" cc14="0" cc38="0" cc49="0" cc21="0" cc87="0" cc32="0" cc37="0" cc100="0" cc103="0" cc74="0" cc111="0" cc113="0" cc24="0" cc31="0" cc60="0" cc41="0" cc13="0" cc124="0" cc108="0"/>
          <instrument name="sf2player">
            <sf2player bank="128" gain="0.74" reverbOn="0" reverbWidth="0.5" chorusLevel="2" src="usersoundfont:SGM-V2.01.sf2" chorusDepth="8" patch="32" reverbRoomSize="0.2" reverbLevel="0.9" chorusOn="0" chorusNum="3" chorusSpeed="0.3" reverbDamping="0">
              <key/>
            </sf2player>
          </instrument>
          <eldata fcut="14000" fres="0.5" ftype="0" fwet="0">
            <elvol sustain="0.5" lspd="0.1" lspd_syncmode="0" amt="0" hold="0.5" lspd_denominator="4" att="0" pdel="0" userwavefile="" lshp="0" x100="0" ctlenvamt="0" lpdel="0" rel="0.1" dec="0.5" lamt="0" lspd_numerator="4" latt="0"/>
            <elcut sustain="0.5" lspd="0.1" lspd_syncmode="0" amt="0" hold="0.5" lspd_denominator="4" att="0" pdel="0" userwavefile="" lshp="0" x100="0" ctlenvamt="0" lpdel="0" rel="0.1" dec="0.5" lamt="0" lspd_numerator="4" latt="0"/>
            <elres sustain="0.5" lspd="0.1" lspd_syncmode="0" amt="0" hold="0.5" lspd_denominator="4" att="0" pdel="0" userwavefile="" lshp="0" x100="0" ctlenvamt="0" lpdel="0" rel="0.1" dec="0.5" lamt="0" lspd_numerator="4" latt="0"/>
          </eldata>
          <chordcreator chordrange="1" chord-enabled="0" chord="0"/>
          <arpeggiator arp-enabled="0" arpcycle="0" arprange="1" arpgate="100" arptime_numerator="4" arptime_syncmode="0" arpskip="0" arptime_denominator="4" arptime="200" arpdir="0" arp="0" arpmode="0" arprepeats="1" arpmiss="0"/>
          <midiport fixedinputvelocity="-1" readable="1" outputcontroller="0" inports="" inputcontroller="0" inputchannel="0" outputchannel="1" fixedoutputnote="-1" basevelocity="127" writable="0" fixedoutputvelocity="-1" outputprogram="1"/>
          <fxchain enabled="0" numofeffects="0"/>
        </instrumenttrack>
        <midiclip type="1" name="" muted="0" steps="16" pos="5760">
          <note key="49" vol="100" pan="0" len="12" pos="144"/>
        </midiclip>
        <midiclip type="1" name="" muted="0" steps="16" pos="6336">
          <note key="49" vol="100" pan="0" len="12" pos="0"/>
        </midiclip>
      </track>
    </trackcontainer>
    <track solo="0" type="6" name="Automation track" muted="0" mutedBeforeSolo="0">
      <automationtrack/>
      <automationclip tens="1" name="Numerator" len="192" prog="0" pos="0" mute="0"/>
      <automationclip tens="1" name="Denominator" len="192" prog="0" pos="0" mute="0"/>
      <automationclip tens="1" name="Tempo" len="192" prog="0" pos="0" mute="0"/>
      <automationclip tens="1" name="Master volume" len="192" prog="0" pos="0" mute="0"/>
      <automationclip tens="1" name="Master pitch" len="192" prog="0" pos="0" mute="0"/>
    </track>
    <mixer y="600" width="1840" visible="1" minimized="0" height="333" x="1" maximized="0">
      <mixerchannel num="0" volume="0.75" name="Master" soloed="0" muted="0">
        <fxchain enabled="1" numofeffects="1">
          <effect autoquit="1" autoquit_syncmode="0" autoquit_numerator="4" gate="0" name="vsteffect" on="1" wet="1" autoquit_denominator="4">
            <vsteffectcontrols program="1" chunk="UGFyYW1ldGVycwAAATNQQVJBTQABAmlkAAEMBWNoZXdfZGVwdGgAdmFsdWUAAQUFMC4wAABQQVJBTQABAmlkAAELBWNoZXdfZnJlcQB2YWx1ZQABBQUwLjAAAFBBUkFNAAECaWQAAQoFY2hld192YXIAdmFsdWUAAQUFMC4wAABQQVJBTQABAmlkAAEJBWRlZ19hbXQAdmFsdWUAAQUFMC4wAABQQVJBTQABAmlkAAELBWRlZ19kZXB0aAB2YWx1ZQABBQUwLjAAAFBBUkFNAAECaWQAAQkFZGVnX3ZhcgB2YWx1ZQABBQUwLjAAAFBBUkFNAAECaWQAAQcFZGVwdGgAdmFsdWUAARMFMC4xOTk5OTk5ODgwNzkwNzEAAFBBUkFNAAECaWQAAQcFZHJpdmUAdmFsdWUAARQFMC42NTk5OTk5NjY2MjEzOTg5AABQQVJBTQABAmlkAAEIBWRyeXdldAB2YWx1ZQABBwUxMDAuMAAAUEFSQU0AAQJpZAABBQVnYXAAdmFsdWUAAQkEAAAAgJmZ+T8AUEFSQU0AAQJpZAABCAVoX2Jhc3MAdmFsdWUAAQUFMC4wAABQQVJBTQABAmlkAAEKBWhfdHJlYmxlAHZhbHVlAAEFBTAuMAAAUEFSQU0AAQJpZAABCAVpbmdhaW4AdmFsdWUAAQkEAAAAAAAAGMAAUEFSQU0AAQJpZAABBgVtb2RlAHZhbHVlAAEDBTIAAFBBUkFNAAECaWQAAQQFb3MAdmFsdWUAAQkEAAAAAAAAAEAAUEFSQU0AAQJpZAABCQVvdXRnYWluAHZhbHVlAAEJBAAAAAAAAABAAFBBUkFNAAECaWQAAQYFcmF0ZQB2YWx1ZQABEwUwLjE5OTk5OTk4ODA3OTA3MQAAUEFSQU0AAQJpZAABBQVzYXQAdmFsdWUAAQkEAAAAgJmZ6T8AUEFSQU0AAQJpZAABCQVzcGFjaW5nAHZhbHVlAAEJBAAAAGADudE/AFBBUkFNAAECaWQAAQcFc3BlZWQAdmFsdWUAAQkEAAAAAAAAPkAAUEFSQU0AAQJpZAABBwV0aGljawB2YWx1ZQABCQQAAACAa3UWQABQQVJBTQABAmlkAAEHBXdpZHRoAHZhbHVlAAEUBTAuMzU5OTk5OTg0NTAyNzkyNAAAUEFSQU0AAQJpZAABCwV3b3dfZGVwdGgAdmFsdWUAAQkEAAAAgJmZyT8AUEFSQU0AAQJpZAABCgV3b3dfcmF0ZQB2YWx1ZQABCQQAAACAmZnJPwBQQVJBTQABAmlkAAEIBXByZXNldAB2YWx1ZQABAwUxAABQQVJBTQABAmlkAAEJBW9zX21vZGUAdmFsdWUAAQkEAAAAAAAAAAAAUEFSQU0AAQJpZAABEgVvc19yZW5kZXJfZmFjdG9yAHZhbHVlAAEJBAAAAAAAAPA/AFBBUkFNAAECaWQAARAFb3NfcmVuZGVyX21vZGUAdmFsdWUAAQkEAAAAAAAAAAAAUEFSQU0AAQJpZAABGQVvc19yZW5kZXJfbGlrZV9yZWFsdGltZQB2YWx1ZQABCQQAAAAAAADwPwBQQVJBTQABAmlkAAEJBWF6aW11dGgAdmFsdWUAAQkEAAAAAAAAAAAAUEFSQU0AAQFpZAABDAVjaGV3X29ub2ZmAABQQVJBTQABAWlkAAEKBWNvbXBfYW10AABQQVJBTQABAWlkAAENBWNvbXBfYXR0YWNrAABQQVJBTQABAWlkAAEMBWNvbXBfb25vZmYAAFBBUkFNAAEBaWQAAQ4FY29tcF9yZWxlYXNlAABQQVJBTQABAWlkAAEJBWRlZ19lbnYAAFBBUkFNAAEBaWQAAQsFZGVnX29ub2ZmAABQQVJBTQABAWlkAAENBWRlZ19wb2ludDF4AABQQVJBTQABAmlkAAEPBWZsdXR0ZXJfb25vZmYAdmFsdWUAAQkEAAAAAAAAAAAAUEFSQU0AAQFpZAABCQVoX3RmcmVxAABQQVJBTQABAWlkAAEMBWh5c3Rfb25vZmYAAFBBUkFNAAEBaWQAAQwFaWZpbHRfaGlnaAAAUEFSQU0AAQFpZAABCwVpZmlsdF9sb3cAAFBBUkFNAAEBaWQAAQ4FaWZpbHRfbWFrZXVwAABQQVJBTQABAWlkAAENBWlmaWx0X29ub2ZmAABQQVJBTQABAWlkAAEMBWxvc3Nfb25vZmYAAFBBUkFNAAEBaWQAAQsFbWl4X2dyb3VwAABQQVJBTQABAWlkAAEMBXRvbmVfb25vZmYAAFBBUkFNAAEBaWQAAQsFd293X2RyaWZ0AABQQVJBTQABAWlkAAEJBXdvd192YXIAAGxhc3Qtc2l6ZQAAAA==" plugin="Effects\ChowTapeModel\CHOWTapeModel.dll" guivisible="0"/>
            <key>
              <attribute name="file" value="Effects\ChowTapeModel\CHOWTapeModel.dll"/>
            </key>
          </effect>
        </fxchain>
      </mixerchannel>
      <mixerchannel num="1" volume="1" name="Dore Mark's Fazioli F308-v3" soloed="0" muted="0">
        <fxchain enabled="1" numofeffects="2">
          <effect autoquit="1" autoquit_syncmode="0" autoquit_numerator="4" gate="0" name="stereomatrix" on="1" wet="1" autoquit_denominator="4">
            <stereomatrixcontrols l-r="0.25" r-r="0.75" l-l="0.75" r-l="0.25"/>
            <key/>
          </effect>
          <effect autoquit="1" autoquit_syncmode="0" autoquit_numerator="4" gate="0" name="vsteffect" on="1" wet="1" autoquit_denominator="4">
            <vsteffectcontrols param6="6:Mix:0.17" param0="0:Size:0.57" param3="3:Hi Damp:0.72" param4="4:Lo Cut:0.3" program="0" param7="7:Level:0.55" plugin="Effects\Classic Reverb\Classic Reverb.dll" param5="5:Early Ref.:0.6" guivisible="0" numparams="8" param2="2:Predelay:0.5" param1="1:Damping:0.65"/>
            <key>
              <attribute name="file" value="Effects\Classic Reverb\Classic Reverb.dll"/>
            </key>
          </effect>
        </fxchain>
        <send channel="0" amount="1"/>
      </mixerchannel>
      <mixerchannel num="2" volume="1" name="Touhou" soloed="0" muted="0">
        <fxchain enabled="1" numofeffects="1">
          <effect autoquit="1" autoquit_syncmode="0" autoquit_numerator="4" gate="0" name="stereomatrix" on="1" wet="1" autoquit_denominator="4">
            <stereomatrixcontrols l-r="0.4" r-r="0.6" l-l="0.6" r-l="0.4"/>
            <key/>
          </effect>
        </fxchain>
        <send channel="0" amount="1"/>
      </mixerchannel>
      <mixerchannel num="3" volume="1" name="Orpheus_1" soloed="0" muted="0">
        <fxchain enabled="1" numofeffects="3">
          <effect autoquit="1" autoquit_syncmode="0" autoquit_numerator="4" gate="0" name="vsteffect" on="1" wet="1" autoquit_denominator="4">
            <vsteffectcontrols param6="6:Mix:0.3" param0="0:Size:0.64" param3="3:Hi Damp:0.82" param4="4:Lo Cut:1" program="0" param7="7:Level:0.67" plugin="Effects\Classic Reverb\Classic Reverb.dll" param5="5:Early Ref.:0" guivisible="0" numparams="8" param2="2:Predelay:0.5" param1="1:Damping:0.8"/>
            <key>
              <attribute name="file" value="Effects\Classic Reverb\Classic Reverb.dll"/>
            </key>
          </effect>
          <effect autoquit="1" autoquit_syncmode="0" autoquit_numerator="4" gate="0" name="eq" on="1" wet="1" autoquit_denominator="4">
            <Eq Peak4gain="-10.98" LPres="0.163" Lowshelfgain="0" Peak1bw="2.878" LPactive="1" Peak4bw="4" Lowshelfactive="0" HP="0" HP48="0" Highshelfactive="0" Peak3active="0" HP24="0" HighShelfgain="0" Peak3bw="0.3" HighShelfres="1.65" Peak2gain="-5.76" LP24="0" AnalyseIn="1" Peak2bw="0.3" Peak1active="1" Peak2active="0" LP12="1" HP12="1" Outputgain="0" HPactive="0" AnalyseOut="1" LowShelfres="1.4" LP48="0" LP="0" Peak3gain="-7.38" HPres="0.707" Peak4active="1">
              <Inputgain id="4111" scale_type="log" value="0"/>
              <Peak1gain id="15742" scale_type="log" value="-3.6"/>
              <HPfreq id="6721" scale_type="log" value="31"/>
              <LowShelffreq id="8233" scale_type="log" value="80"/>
              <Peak1freq id="31948" scale_type="log" value="148.77"/>
              <Peak2freq id="23045" scale_type="log" value="295.988"/>
              <Peak3freq id="28262" scale_type="log" value="2596.35"/>
              <Peak4freq id="23765" scale_type="log" value="4453.76"/>
              <Highshelffreq id="16304" scale_type="log" value="12000"/>
              <LPfreq id="14803" scale_type="log" value="18000"/>
            </Eq>
            <key/>
          </effect>
          <effect autoquit="1" autoquit_syncmode="0" autoquit_numerator="4" gate="0" name="vsteffect" on="1" wet="1" autoquit_denominator="4">
            <vsteffectcontrols param8="8:Ping-Pong:1" guivisible="0" program="0" param10="10:Low Cut:1" param6="6:Time:0.5" param13="13:Level:0.5" param11="11:Hi Cut:1" plugin="Effects\Classic Delay\Classic Delay.dll" numparams="14" param7="7:Feedback:0.26" param4="4:T.S.N.:0.01" param1="1:Mono:0" param2="2:Type:0.5" param12="12:Mix:0.21" param3="3:Sync:1" param0="0:Pan:0.5" param9="9:Quality:1" param5="5:T.S.D.:0.17"/>
            <key>
              <attribute name="file" value="Effects\Classic Delay\Classic Delay.dll"/>
            </key>
          </effect>
        </fxchain>
        <send channel="0" amount="1"/>
      </mixerchannel>
      <mixerchannel num="4" volume="1" name="EVENT" soloed="0" muted="0">
        <fxchain enabled="1" numofeffects="1">
          <effect autoquit="1" autoquit_syncmode="0" autoquit_numerator="4" gate="0" name="vsteffect" on="1" wet="1" autoquit_denominator="4">
            <vsteffectcontrols param6="6:Mix:0.32" param0="0:Size:0.62" param3="3:Hi Damp:0.5" param4="4:Lo Cut:0.3" program="0" param7="7:Level:0.5" plugin="Effects\Classic Reverb\Classic Reverb.dll" param5="5:Early Ref.:0" guivisible="0" numparams="8" param2="2:Predelay:0.5" param1="1:Damping:0.3"/>
            <key>
              <attribute name="file" value="Effects\Classic Reverb\Classic Reverb.dll"/>
            </key>
          </effect>
        </fxchain>
        <send channel="0" amount="1"/>
      </mixerchannel>
      <mixerchannel num="5" volume="1" name="RIDE" soloed="0" muted="0">
        <fxchain enabled="1" numofeffects="2">
          <effect autoquit="1" autoquit_syncmode="0" autoquit_numerator="4" gate="0" name="stereomatrix" on="1" wet="1" autoquit_denominator="4">
            <stereomatrixcontrols l-r="0.333" r-r="0.666" l-l="0.666" r-l="0.333"/>
            <key/>
          </effect>
          <effect autoquit="1" autoquit_syncmode="0" autoquit_numerator="4" gate="0" name="vsteffect" on="1" wet="1" autoquit_denominator="4">
            <vsteffectcontrols param6="6:Mix:0.27" param0="0:Size:0.55" param3="3:Hi Damp:0.81" param4="4:Lo Cut:0.3" program="0" param7="7:Level:0.5" plugin="Effects\Classic Reverb\Classic Reverb.dll" param5="5:Early Ref.:1" guivisible="0" numparams="8" param2="2:Predelay:0.5" param1="1:Damping:0.71"/>
            <key>
              <attribute name="file" value="Effects\Classic Reverb\Classic Reverb.dll"/>
            </key>
          </effect>
        </fxchain>
        <send channel="0" amount="1"/>
      </mixerchannel>
      <mixerchannel num="6" volume="1" name="SNARE" soloed="0" muted="0">
        <fxchain enabled="1" numofeffects="1">
          <effect autoquit="1" autoquit_syncmode="0" autoquit_numerator="4" gate="0" name="vsteffect" on="1" wet="1" autoquit_denominator="4">
            <vsteffectcontrols param6="6:Mix:0.15" param0="0:Size:0.4" param3="3:Hi Damp:0.55" param4="4:Lo Cut:0.3" program="13" param7="7:Level:0.5" plugin="Effects\Classic Reverb\Classic Reverb.dll" param5="5:Early Ref.:0" guivisible="0" numparams="8" param2="2:Predelay:0.5" param1="1:Damping:0.5"/>
            <key>
              <attribute name="file" value="Effects\Classic Reverb\Classic Reverb.dll"/>
            </key>
          </effect>
        </fxchain>
        <send channel="0" amount="1"/>
      </mixerchannel>
      <mixerchannel num="7" volume="1" name="HIHATS" soloed="0" muted="0">
        <fxchain enabled="1" numofeffects="1">
          <effect autoquit="1" autoquit_syncmode="0" autoquit_numerator="4" gate="0" name="vsteffect" on="1" wet="1" autoquit_denominator="4">
            <vsteffectcontrols param6="6:Mix:0.1" param0="0:Size:0.62" param3="3:Hi Damp:0.5" param4="4:Lo Cut:0.3" program="0" param7="7:Level:0.5" plugin="Effects\Classic Reverb\Classic Reverb.dll" param5="5:Early Ref.:0" guivisible="0" numparams="8" param2="2:Predelay:0.5" param1="1:Damping:0.6"/>
            <key>
              <attribute name="file" value="Effects\Classic Reverb\Classic Reverb.dll"/>
            </key>
          </effect>
        </fxchain>
        <send channel="0" amount="1"/>
      </mixerchannel>
      <mixerchannel num="8" volume="1" name="BD" soloed="0" muted="0">
        <fxchain enabled="1" numofeffects="1">
          <effect autoquit="1" autoquit_syncmode="0" autoquit_numerator="4" gate="0" name="vsteffect" on="1" wet="1" autoquit_denominator="4">
            <vsteffectcontrols param6="6:Mix:0.26" param0="0:Size:0.5" param3="3:Hi Damp:0.67" param4="4:Lo Cut:0.7" program="16" param7="7:Level:0.5" plugin="Effects\Classic Reverb\Classic Reverb.dll" param5="5:Early Ref.:0.2" guivisible="0" numparams="8" param2="2:Predelay:0.5" param1="1:Damping:0.3"/>
            <key>
              <attribute name="file" value="Effects\Classic Reverb\Classic Reverb.dll"/>
            </key>
          </effect>
        </fxchain>
        <send channel="0" amount="1"/>
      </mixerchannel>
      <mixerchannel num="9" volume="1" name="TOMS" soloed="0" muted="0">
        <fxchain enabled="1" numofeffects="1">
          <effect autoquit="1" autoquit_syncmode="0" autoquit_numerator="4" gate="0" name="vsteffect" on="1" wet="1" autoquit_denominator="4">
            <vsteffectcontrols param6="6:Mix:0.19" param0="0:Size:0.54" param3="3:Hi Damp:0.5" param4="4:Lo Cut:0.3" program="0" param7="7:Level:0.5" plugin="Effects\Classic Reverb\Classic Reverb.dll" param5="5:Early Ref.:0.6" guivisible="0" numparams="8" param2="2:Predelay:0.5" param1="1:Damping:0.66"/>
            <key>
              <attribute name="file" value="Effects\Classic Reverb\Classic Reverb.dll"/>
            </key>
          </effect>
        </fxchain>
        <send channel="0" amount="1"/>
      </mixerchannel>
      <mixerchannel num="10" volume="1" name="CRASH" soloed="0" muted="0">
        <fxchain enabled="1" numofeffects="1">
          <effect autoquit="1" autoquit_syncmode="0" autoquit_numerator="4" gate="0" name="vsteffect" on="1" wet="1" autoquit_denominator="4">
            <vsteffectcontrols param6="6:Mix:0.24" param0="0:Size:0.69" param3="3:Hi Damp:0.5" param4="4:Lo Cut:0.3" program="0" param7="7:Level:0.5" plugin="Effects\Classic Reverb\Classic Reverb.dll" param5="5:Early Ref.:0" guivisible="0" numparams="8" param2="2:Predelay:0.5" param1="1:Damping:0.51"/>
            <key>
              <attribute name="file" value="Effects\Classic Reverb\Classic Reverb.dll"/>
            </key>
          </effect>
        </fxchain>
        <send channel="0" amount="1"/>
      </mixerchannel>
    </mixer>
    <ControllerRackView y="487" width="350" visible="0" minimized="0" height="200" x="550" maximized="0"/>
    <pianoroll y="238" width="1215" visible="1" minimized="0" height="437" x="200" maximized="1">
      <markedSemiTones>
        <semiTone key="127"/>
        <semiTone key="125"/>
        <semiTone key="124"/>
        <semiTone key="122"/>
        <semiTone key="120"/>
        <semiTone key="118"/>
        <semiTone key="117"/>
        <semiTone key="115"/>
        <semiTone key="113"/>
        <semiTone key="112"/>
        <semiTone key="110"/>
        <semiTone key="108"/>
        <semiTone key="106"/>
        <semiTone key="105"/>
        <semiTone key="103"/>
        <semiTone key="101"/>
        <semiTone key="100"/>
        <semiTone key="98"/>
        <semiTone key="96"/>
        <semiTone key="94"/>
        <semiTone key="93"/>
        <semiTone key="91"/>
        <semiTone key="89"/>
        <semiTone key="88"/>
        <semiTone key="86"/>
        <semiTone key="84"/>
        <semiTone key="82"/>
        <semiTone key="81"/>
        <semiTone key="79"/>
        <semiTone key="77"/>
        <semiTone key="76"/>
        <semiTone key="74"/>
        <semiTone key="72"/>
        <semiTone key="70"/>
        <semiTone key="69"/>
        <semiTone key="67"/>
        <semiTone key="65"/>
        <semiTone key="64"/>
        <semiTone key="62"/>
        <semiTone key="60"/>
        <semiTone key="58"/>
        <semiTone key="57"/>
        <semiTone key="55"/>
        <semiTone key="53"/>
        <semiTone key="52"/>
        <semiTone key="50"/>
        <semiTone key="48"/>
        <semiTone key="46"/>
        <semiTone key="45"/>
        <semiTone key="43"/>
        <semiTone key="41"/>
        <semiTone key="40"/>
        <semiTone key="38"/>
        <semiTone key="36"/>
        <semiTone key="34"/>
        <semiTone key="33"/>
        <semiTone key="31"/>
        <semiTone key="29"/>
        <semiTone key="28"/>
        <semiTone key="26"/>
        <semiTone key="24"/>
        <semiTone key="22"/>
        <semiTone key="21"/>
        <semiTone key="19"/>
        <semiTone key="17"/>
        <semiTone key="16"/>
        <semiTone key="14"/>
        <semiTone key="12"/>
        <semiTone key="10"/>
        <semiTone key="9"/>
        <semiTone key="7"/>
        <semiTone key="5"/>
        <semiTone key="4"/>
        <semiTone key="2"/>
        <semiTone key="0"/>
      </markedSemiTones>
    </pianoroll>
    <automationeditor y="1" width="860" visible="0" minimized="0" height="400" x="1" maximized="0"/>
    <projectnotes y="10" width="686" visible="0" minimized="0" height="400" x="700" maximized="0"><![CDATA[<!DOCTYPE HTML PUBLIC "-//W3C//DTD HTML 4.0//EN" "http://www.w3.org/TR/REC-html40/strict.dtd">
<html><head><meta name="qrichtext" content="1" /><style type="text/css">
p, li { white-space: pre-wrap; }
</style></head><body style=" font-family:'MS Shell Dlg 2'; font-size:8.25pt; font-weight:400; font-style:normal;">
<p style=" margin-top:0px; margin-bottom:0px; margin-left:0px; margin-right:0px; -qt-block-indent:0; text-indent:0px;"><span style=" color:#e0e0e0;">&lt;&lt;&lt;&lt;&lt;&lt;</span></p></body></html>]]></projectnotes>
    <timeline lpstate="1" lp1pos="7488" stopbehaviour="1" lp0pos="0"/>
    <controllers/>
    <scales>
      <scale description="empty">
        <interval num="1" den="1"/>
      </scale>
      <scale description="empty">
        <interval num="1" den="1"/>
      </scale>
      <scale description="empty">
        <interval num="1" den="1"/>
      </scale>
      <scale description="empty">
        <interval num="1" den="1"/>
      </scale>
      <scale description="empty">
        <interval num="1" den="1"/>
      </scale>
      <scale description="empty">
        <interval num="1" den="1"/>
      </scale>
      <scale description="empty">
        <interval num="1" den="1"/>
      </scale>
      <scale description="empty">
        <interval num="1" den="1"/>
      </scale>
      <scale description="empty">
        <interval num="1" den="1"/>
      </scale>
      <scale description="empty">
        <interval num="1" den="1"/>
      </scale>
    </scales>
    <keymaps>
      <keymap description="empty" first_key="0" last_key="127" middle_key="60" base_key="69" base_freq="440"/>
      <keymap description="empty" first_key="0" last_key="127" middle_key="60" base_key="69" base_freq="440"/>
      <keymap description="empty" first_key="0" last_key="127" middle_key="60" base_key="69" base_freq="440"/>
      <keymap description="empty" first_key="0" last_key="127" middle_key="60" base_key="69" base_freq="440"/>
      <keymap description="empty" first_key="0" last_key="127" middle_key="60" base_key="69" base_freq="440"/>
      <keymap description="empty" first_key="0" last_key="127" middle_key="60" base_key="69" base_freq="440"/>
      <keymap description="empty" first_key="0" last_key="127" middle_key="60" base_key="69" base_freq="440"/>
      <keymap description="empty" first_key="0" last_key="127" middle_key="60" base_key="69" base_freq="440"/>
      <keymap description="empty" first_key="0" last_key="127" middle_key="60" base_key="69" base_freq="440"/>
      <keymap description="empty" first_key="0" last_key="127" middle_key="60" base_key="69" base_freq="440"/>
    </keymaps>
  </song>
</lmms-project>
