<?xml version="1.0"?>
<!DOCTYPE lmms-project>
<lmms-project creatorversion="1.3.0-alpha.1.102+g89fc6c960" type="song" creator="LMMS" version="20">
  <head mastervol="100" timesig_numerator="4" bpm="110" masterpitch="0" timesig_denominator="4"/>
  <song>
    <trackcontainer minimized="0" x="2" visible="1" height="581" maximized="0" y="3" type="song" width="882">
      <track muted="0" mutedBeforeSolo="0" trackheight="32" name="Piano>Base" type="0" solo="0">
        <instrumenttrack pitch="0" vol="100" pitchrange="1" usemasterpitch="1" enablecc="0" pan="0" firstkey="0" lastkey="127" fxch="16" basenote="81">
          <midicontrollers cc51="0" cc52="0" cc103="0" cc44="0" cc35="0" cc85="0" cc104="0" cc6="0" cc77="0" cc56="0" cc112="0" cc11="0" cc30="0" cc88="0" cc99="0" cc58="0" cc73="0" cc78="0" cc113="0" cc100="0" cc126="0" cc1="0" cc127="0" cc84="0" cc115="0" cc18="0" cc54="0" cc27="0" cc68="0" cc14="0" cc45="0" cc21="0" cc13="0" cc0="0" cc75="0" cc91="0" cc70="0" cc36="0" cc5="0" cc19="0" cc66="0" cc25="0" cc38="0" cc65="0" cc109="0" cc92="0" cc3="0" cc43="0" cc110="0" cc81="0" cc111="0" cc61="0" cc86="0" cc49="0" cc50="0" cc7="0" cc107="0" cc22="0" cc93="0" cc79="0" cc10="0" cc39="0" cc98="0" cc59="0" cc62="0" cc63="0" cc74="0" cc15="0" cc41="0" cc16="0" cc120="0" cc83="0" cc108="0" cc9="0" cc53="0" cc71="0" cc124="0" cc80="0" cc87="0" cc106="0" cc2="0" cc48="0" cc123="0" cc57="0" cc114="0" cc122="0" cc116="0" cc8="0" cc55="0" cc17="0" cc12="0" cc4="0" cc47="0" cc23="0" cc82="0" cc46="0" cc121="0" cc105="0" cc60="0" cc76="0" cc125="0" cc31="0" cc37="0" cc20="0" cc102="0" cc89="0" cc64="0" cc69="0" cc90="0" cc33="0" cc94="0" cc34="0" cc67="0" cc72="0" cc40="0" cc95="0" cc117="0" cc32="0" cc101="0" cc26="0" cc97="0" cc118="0" cc42="0" cc29="0" cc96="0" cc119="0" cc24="0" cc28="0"/>
          <instrument name="sf2player">
            <sf2player reverbRoomSize="0.2" chorusDepth="8" gain="1" reverbWidth="0.5" patch="0" chorusLevel="2" reverbDamping="0" reverbOn="0" chorusSpeed="0.3" chorusOn="0" chorusNum="3" src="usersoundfont:FluidR3 GM.sf2" bank="0" reverbLevel="0.9">
              <key/>
            </sf2player>
          </instrument>
          <eldata fwet="0" fres="0.5" ftype="0" fcut="14000">
            <elvol pdel="0" lamt="0" lspd="0.1" lspd_syncmode="0" rel="0.1" lpdel="0" amt="0" sustain="0.5" lspd_numerator="4" lspd_denominator="4" hold="0.5" ctlenvamt="0" att="0" x100="0" latt="0" dec="0.5" userwavefile="" lshp="0"/>
            <elcut pdel="0" lamt="0" lspd="0.1" lspd_syncmode="0" rel="0.1" lpdel="0" amt="0" sustain="0.5" lspd_numerator="4" lspd_denominator="4" hold="0.5" ctlenvamt="0" att="0" x100="0" latt="0" dec="0.5" userwavefile="" lshp="0"/>
            <elres pdel="0" lamt="0" lspd="0.1" lspd_syncmode="0" rel="0.1" lpdel="0" amt="0" sustain="0.5" lspd_numerator="4" lspd_denominator="4" hold="0.5" ctlenvamt="0" att="0" x100="0" latt="0" dec="0.5" userwavefile="" lshp="0"/>
          </eldata>
          <chordcreator chord="0" chord-enabled="0" chordrange="1"/>
          <arpeggiator arptime_denominator="4" arprange="1" arp-enabled="0" arpcycle="0" arpgate="31" arpdir="0" arp="0" arptime="409.091" arpmode="2" arprepeats="1" arptime_syncmode="8" arptime_numerator="3" arpmiss="0" arpskip="0"/>
          <midiport outputchannel="1" inputcontroller="0" fixedoutputvelocity="-1" inputchannel="0" writable="0" outputprogram="1" inports="" fixedinputvelocity="-1" fixedoutputnote="-1" basevelocity="63" outputcontroller="0" readable="1"/>
          <fxchain enabled="0" numofeffects="0"/>
        </instrumenttrack>
        <pattern muted="0" steps="16" name="" type="1" pos="768">
          <note vol="100" pan="0" pos="0" key="50" len="36"/>
          <note vol="100" pan="0" pos="36" key="62" len="36"/>
          <note vol="100" pan="0" pos="72" key="50" len="12"/>
          <note vol="100" pan="0" pos="120" key="50" len="12"/>
          <note vol="100" pan="0" pos="144" key="50" len="12"/>
          <note vol="100" pan="0" pos="168" key="50" len="12"/>
        </pattern>
        <pattern muted="0" steps="16" name="" type="1" pos="960">
          <note vol="100" pan="0" pos="0" key="52" len="36"/>
          <note vol="100" pan="0" pos="36" key="64" len="36"/>
          <note vol="100" pan="0" pos="72" key="52" len="12"/>
          <note vol="100" pan="0" pos="120" key="52" len="12"/>
          <note vol="100" pan="0" pos="144" key="52" len="12"/>
          <note vol="100" pan="0" pos="168" key="52" len="12"/>
        </pattern>
        <pattern muted="0" steps="16" name="" type="1" pos="1152">
          <note vol="100" pan="0" pos="0" key="53" len="36"/>
          <note vol="100" pan="0" pos="36" key="65" len="36"/>
          <note vol="100" pan="0" pos="72" key="53" len="12"/>
          <note vol="100" pan="0" pos="96" key="41" len="12"/>
          <note vol="100" pan="0" pos="120" key="53" len="12"/>
          <note vol="100" pan="0" pos="144" key="53" len="12"/>
          <note vol="100" pan="0" pos="168" key="53" len="12"/>
        </pattern>
        <pattern muted="0" steps="16" name="" type="1" pos="1344">
          <note vol="100" pan="0" pos="0" key="55" len="36"/>
          <note vol="100" pan="0" pos="36" key="53" len="12"/>
          <note vol="100" pan="0" pos="72" key="55" len="24"/>
          <note vol="100" pan="0" pos="96" key="45" len="12"/>
          <note vol="100" pan="0" pos="132" key="45" len="12"/>
          <note vol="100" pan="0" pos="168" key="45" len="12"/>
        </pattern>
        <pattern muted="0" steps="16" name="" type="1" pos="1536">
          <note vol="100" pan="0" pos="0" key="45" len="12"/>
          <note vol="100" pan="0" pos="48" key="44" len="12"/>
          <note vol="100" pan="0" pos="96" key="42" len="12"/>
          <note vol="100" pan="0" pos="144" key="41" len="12"/>
        </pattern>
        <pattern muted="0" steps="16" name="" type="1" pos="1728">
          <note vol="100" pan="0" pos="0" key="40" len="12"/>
          <note vol="100" pan="0" pos="48" key="39" len="12"/>
          <note vol="100" pan="0" pos="96" key="37" len="12"/>
          <note vol="100" pan="0" pos="144" key="35" len="12"/>
        </pattern>
        <pattern muted="0" steps="16" name="" type="1" pos="1920">
          <note vol="100" pan="0" pos="0" key="33" len="384"/>
        </pattern>
        <pattern muted="0" steps="16" name="" type="1" pos="2304">
          <note vol="100" pan="0" pos="0" key="54" len="192"/>
          <note vol="100" pan="0" pos="192" key="52" len="192"/>
          <note vol="100" pan="0" pos="384" key="54" len="192"/>
          <note vol="100" pan="0" pos="576" key="52" len="192"/>
          <note vol="100" pan="0" pos="768" key="50" len="192"/>
          <note vol="100" pan="0" pos="960" key="45" len="96"/>
          <note vol="100" pan="0" pos="1056" key="53" len="48"/>
          <note vol="100" pan="0" pos="1104" key="50" len="48"/>
          <note vol="100" pan="0" pos="1152" key="49" len="192"/>
          <note vol="100" pan="0" pos="1344" key="54" len="192"/>
          <note vol="100" pan="0" pos="1536" key="50" len="192"/>
          <note vol="100" pan="0" pos="1728" key="49" len="192"/>
          <note vol="100" pan="0" pos="1920" key="45" len="192"/>
          <note vol="100" pan="0" pos="2112" key="42" len="144"/>
          <note vol="100" pan="0" pos="2256" key="44" len="48"/>
          <note vol="100" pan="0" pos="2304" key="45" len="192"/>
          <note vol="100" pan="0" pos="2496" key="49" len="192"/>
          <note vol="100" pan="0" pos="2688" key="54" len="192"/>
          <note vol="100" pan="0" pos="2880" key="42" len="192"/>
        </pattern>
      </track>
      <track muted="0" mutedBeforeSolo="0" name="Piano>Texture" type="0" solo="0">
        <instrumenttrack pitch="0" vol="100" pitchrange="1" usemasterpitch="1" enablecc="0" pan="0" firstkey="0" lastkey="127" fxch="17" basenote="81">
          <midicontrollers cc51="0" cc52="0" cc103="0" cc44="0" cc35="0" cc85="0" cc104="0" cc6="0" cc77="0" cc56="0" cc112="0" cc11="0" cc30="0" cc88="0" cc99="0" cc58="0" cc73="0" cc78="0" cc113="0" cc100="0" cc126="0" cc1="0" cc127="0" cc84="0" cc115="0" cc18="0" cc54="0" cc27="0" cc68="0" cc14="0" cc45="0" cc21="0" cc13="0" cc0="0" cc75="0" cc91="0" cc70="0" cc36="0" cc5="0" cc19="0" cc66="0" cc25="0" cc38="0" cc65="0" cc109="0" cc92="0" cc3="0" cc43="0" cc110="0" cc81="0" cc111="0" cc61="0" cc86="0" cc49="0" cc50="0" cc7="0" cc107="0" cc22="0" cc93="0" cc79="0" cc10="0" cc39="0" cc98="0" cc59="0" cc62="0" cc63="0" cc74="0" cc15="0" cc41="0" cc16="0" cc120="0" cc83="0" cc108="0" cc9="0" cc53="0" cc71="0" cc124="0" cc80="0" cc87="0" cc106="0" cc2="0" cc48="0" cc123="0" cc57="0" cc114="0" cc122="0" cc116="0" cc8="0" cc55="0" cc17="0" cc12="0" cc4="0" cc47="0" cc23="0" cc82="0" cc46="0" cc121="0" cc105="0" cc60="0" cc76="0" cc125="0" cc31="0" cc37="0" cc20="0" cc102="0" cc89="0" cc64="0" cc69="0" cc90="0" cc33="0" cc94="0" cc34="0" cc67="0" cc72="0" cc40="0" cc95="0" cc117="0" cc32="0" cc101="0" cc26="0" cc97="0" cc118="0" cc42="0" cc29="0" cc96="0" cc119="0" cc24="0" cc28="0"/>
          <instrument name="sf2player">
            <sf2player reverbRoomSize="0.2" chorusDepth="8" gain="1" reverbWidth="0.5" patch="1" chorusLevel="2" reverbDamping="0" reverbOn="0" chorusSpeed="0.3" chorusOn="0" chorusNum="3" src="usersoundfont:FluidR3 GM.sf2" bank="0" reverbLevel="0.9">
              <key/>
            </sf2player>
          </instrument>
          <eldata fwet="0" fres="0.5" ftype="0" fcut="14000">
            <elvol pdel="0" lamt="0" lspd="0.1" lspd_syncmode="0" rel="0.1" lpdel="0" amt="0" sustain="0.5" lspd_numerator="4" lspd_denominator="4" hold="0.5" ctlenvamt="0" att="0" x100="0" latt="0" dec="0.5" userwavefile="" lshp="0"/>
            <elcut pdel="0" lamt="0" lspd="0.1" lspd_syncmode="0" rel="0.1" lpdel="0" amt="0" sustain="0.5" lspd_numerator="4" lspd_denominator="4" hold="0.5" ctlenvamt="0" att="0" x100="0" latt="0" dec="0.5" userwavefile="" lshp="0"/>
            <elres pdel="0" lamt="0" lspd="0.1" lspd_syncmode="0" rel="0.1" lpdel="0" amt="0" sustain="0.5" lspd_numerator="4" lspd_denominator="4" hold="0.5" ctlenvamt="0" att="0" x100="0" latt="0" dec="0.5" userwavefile="" lshp="0"/>
          </eldata>
          <chordcreator chord="0" chord-enabled="0" chordrange="1"/>
          <arpeggiator arptime_denominator="4" arprange="1" arp-enabled="0" arpcycle="0" arpgate="31" arpdir="0" arp="0" arptime="409.091" arpmode="2" arprepeats="1" arptime_syncmode="8" arptime_numerator="3" arpmiss="0" arpskip="0"/>
          <midiport outputchannel="1" inputcontroller="0" fixedoutputvelocity="-1" inputchannel="0" writable="0" outputprogram="1" inports="" fixedinputvelocity="-1" fixedoutputnote="-1" basevelocity="63" outputcontroller="0" readable="1"/>
          <fxchain enabled="0" numofeffects="0"/>
        </instrumenttrack>
        <pattern muted="0" steps="16" name="" type="1" pos="2304">
          <note vol="100" pan="0" pos="0" key="85" len="168"/>
          <note vol="100" pan="0" pos="0" key="81" len="192"/>
          <note vol="100" pan="0" pos="0" key="78" len="192"/>
          <note vol="100" pan="0" pos="0" key="76" len="192"/>
          <note vol="100" pan="0" pos="168" key="83" len="12"/>
          <note vol="100" pan="0" pos="180" key="85" len="12"/>
          <note vol="100" pan="0" pos="192" key="88" len="144"/>
          <note vol="100" pan="0" pos="192" key="85" len="192"/>
          <note vol="100" pan="0" pos="192" key="83" len="192"/>
          <note vol="100" pan="0" pos="192" key="80" len="192"/>
          <note vol="100" pan="0" pos="336" key="90" len="24"/>
          <note vol="100" pan="0" pos="360" key="88" len="24"/>
          <note vol="100" pan="0" pos="384" key="90" len="72"/>
          <note vol="100" pan="0" pos="384" key="88" len="72"/>
          <note vol="100" pan="0" pos="384" key="85" len="72"/>
          <note vol="100" pan="0" pos="384" key="81" len="72"/>
          <note vol="100" pan="0" pos="456" key="88" len="72"/>
          <note vol="100" pan="0" pos="456" key="85" len="72"/>
          <note vol="100" pan="0" pos="456" key="81" len="72"/>
          <note vol="100" pan="0" pos="456" key="78" len="72"/>
          <note vol="100" pan="0" pos="528" key="85" len="48"/>
          <note vol="100" pan="0" pos="528" key="81" len="48"/>
          <note vol="100" pan="0" pos="528" key="78" len="48"/>
          <note vol="100" pan="0" pos="528" key="76" len="48"/>
          <note vol="100" pan="0" pos="576" key="88" len="120"/>
          <note vol="100" pan="0" pos="576" key="85" len="120"/>
          <note vol="100" pan="0" pos="576" key="82" len="120"/>
          <note vol="100" pan="0" pos="576" key="80" len="120"/>
          <note vol="100" pan="0" pos="696" key="85" len="72"/>
          <note vol="100" pan="0" pos="696" key="82" len="72"/>
          <note vol="100" pan="0" pos="696" key="80" len="72"/>
          <note vol="100" pan="0" pos="696" key="76" len="72"/>
          <note vol="100" pan="0" pos="768" key="86" len="72"/>
          <note vol="100" pan="0" pos="768" key="84" len="96"/>
          <note vol="100" pan="0" pos="768" key="81" len="192"/>
          <note vol="100" pan="0" pos="768" key="78" len="192"/>
          <note vol="100" pan="0" pos="840" key="90" len="24"/>
          <note vol="100" pan="0" pos="864" key="93" len="72"/>
          <note vol="100" pan="0" pos="864" key="90" len="72"/>
          <note vol="100" pan="0" pos="936" key="93" len="24"/>
          <note vol="100" pan="0" pos="936" key="86" len="24"/>
          <note vol="100" pan="0" pos="960" key="86" len="48"/>
          <note vol="100" pan="0" pos="960" key="84" len="144"/>
          <note vol="100" pan="0" pos="960" key="81" len="144"/>
          <note vol="100" pan="0" pos="960" key="77" len="144"/>
          <note vol="100" pan="0" pos="1008" key="89" len="48"/>
          <note vol="100" pan="0" pos="1056" key="92" len="48"/>
          <note vol="100" pan="0" pos="1056" key="89" len="48"/>
          <note vol="100" pan="0" pos="1104" key="89" len="48"/>
          <note vol="100" pan="0" pos="1104" key="84" len="48"/>
          <note vol="100" pan="0" pos="1104" key="81" len="48"/>
          <note vol="100" pan="0" pos="1104" key="77" len="48"/>
          <note vol="100" pan="0" pos="1152" key="85" len="72"/>
          <note vol="100" pan="0" pos="1152" key="83" len="72"/>
          <note vol="100" pan="0" pos="1152" key="80" len="192"/>
          <note vol="100" pan="0" pos="1152" key="76" len="192"/>
          <note vol="100" pan="0" pos="1224" key="90" len="72"/>
          <note vol="100" pan="0" pos="1224" key="85" len="72"/>
          <note vol="100" pan="0" pos="1296" key="88" len="48"/>
          <note vol="100" pan="0" pos="1296" key="85" len="48"/>
          <note vol="100" pan="0" pos="1344" key="90" len="144"/>
          <note vol="100" pan="0" pos="1344" key="88" len="144"/>
          <note vol="100" pan="0" pos="1344" key="85" len="144"/>
          <note vol="100" pan="0" pos="1344" key="82" len="144"/>
          <note vol="100" pan="0" pos="1488" key="88" len="48"/>
          <note vol="100" pan="0" pos="1488" key="85" len="48"/>
          <note vol="100" pan="0" pos="1488" key="82" len="48"/>
          <note vol="100" pan="0" pos="1488" key="78" len="48"/>
          <note vol="100" pan="0" pos="1536" key="90" len="72"/>
          <note vol="100" pan="0" pos="1536" key="86" len="72"/>
          <note vol="100" pan="0" pos="1536" key="83" len="72"/>
          <note vol="100" pan="0" pos="1536" key="81" len="72"/>
          <note vol="100" pan="0" pos="1608" key="86" len="120"/>
          <note vol="100" pan="0" pos="1608" key="83" len="120"/>
          <note vol="100" pan="0" pos="1608" key="81" len="120"/>
          <note vol="100" pan="0" pos="1608" key="78" len="120"/>
          <note vol="100" pan="0" pos="1728" key="88" len="72"/>
          <note vol="100" pan="0" pos="1728" key="85" len="72"/>
          <note vol="100" pan="0" pos="1728" key="82" len="72"/>
          <note vol="100" pan="0" pos="1728" key="80" len="72"/>
          <note vol="100" pan="0" pos="1800" key="85" len="72"/>
          <note vol="100" pan="0" pos="1800" key="82" len="72"/>
          <note vol="100" pan="0" pos="1800" key="80" len="72"/>
          <note vol="100" pan="0" pos="1800" key="76" len="72"/>
          <note vol="100" pan="0" pos="1872" key="82" len="48"/>
          <note vol="100" pan="0" pos="1872" key="80" len="48"/>
          <note vol="100" pan="0" pos="1872" key="76" len="48"/>
          <note vol="100" pan="0" pos="1872" key="73" len="48"/>
          <note vol="100" pan="0" pos="1920" key="88" len="192"/>
          <note vol="100" pan="0" pos="1920" key="85" len="120"/>
          <note vol="100" pan="0" pos="1920" key="81" len="192"/>
          <note vol="100" pan="0" pos="1920" key="78" len="192"/>
          <note vol="100" pan="0" pos="1944" key="93" len="24"/>
          <note vol="100" pan="0" pos="1968" key="100" len="72"/>
          <note vol="100" pan="0" pos="1968" key="97" len="72"/>
          <note vol="100" pan="0" pos="1968" key="93" len="72"/>
          <note vol="100" pan="0" pos="1968" key="90" len="72"/>
          <note vol="100" pan="0" pos="2016" key="95" len="96"/>
          <note vol="100" pan="0" pos="2040" key="97" len="72"/>
          <note vol="100" pan="0" pos="2040" key="93" len="72"/>
          <note vol="100" pan="0" pos="2040" key="90" len="24"/>
          <note vol="100" pan="0" pos="2040" key="85" len="72"/>
          <note vol="100" pan="0" pos="2064" key="90" len="48"/>
          <note vol="100" pan="0" pos="2088" key="92" len="24"/>
          <note vol="100" pan="0" pos="2112" key="95" len="72"/>
          <note vol="100" pan="0" pos="2112" key="92" len="144"/>
          <note vol="100" pan="0" pos="2112" key="88" len="120"/>
          <note vol="100" pan="0" pos="2112" key="85" len="72"/>
          <note vol="100" pan="0" pos="2112" key="83" len="144"/>
          <note vol="100" pan="0" pos="2112" key="81" len="72"/>
          <note vol="100" pan="0" pos="2112" key="78" len="192"/>
          <note vol="100" pan="0" pos="2160" key="90" len="24"/>
          <note vol="100" pan="0" pos="2184" key="93" len="72"/>
          <note vol="100" pan="0" pos="2184" key="90" len="72"/>
          <note vol="100" pan="0" pos="2184" key="85" len="24"/>
          <note vol="100" pan="0" pos="2184" key="81" len="72"/>
          <note vol="100" pan="0" pos="2208" key="85" len="48"/>
          <note vol="100" pan="0" pos="2232" key="88" len="24"/>
          <note vol="100" pan="0" pos="2256" key="92" len="48"/>
          <note vol="100" pan="0" pos="2256" key="88" len="48"/>
          <note vol="100" pan="0" pos="2256" key="85" len="24"/>
          <note vol="100" pan="0" pos="2256" key="83" len="48"/>
          <note vol="100" pan="0" pos="2256" key="80" len="48"/>
          <note vol="100" pan="0" pos="2256" key="76" len="48"/>
          <note vol="100" pan="0" pos="2280" key="85" len="24"/>
          <note vol="100" pan="0" pos="2304" key="85" len="192"/>
          <note vol="100" pan="0" pos="2304" key="83" len="192"/>
          <note vol="100" pan="0" pos="2304" key="81" len="192"/>
          <note vol="100" pan="0" pos="2304" key="76" len="192"/>
          <note vol="100" pan="0" pos="2376" key="88" len="24"/>
          <note vol="100" pan="0" pos="2400" key="93" len="72"/>
          <note vol="100" pan="0" pos="2472" key="92" len="24"/>
          <note vol="100" pan="0" pos="2496" key="88" len="192"/>
          <note vol="100" pan="0" pos="2496" key="85" len="192"/>
          <note vol="100" pan="0" pos="2496" key="83" len="192"/>
          <note vol="100" pan="0" pos="2496" key="80" len="192"/>
          <note vol="100" pan="0" pos="2568" key="90" len="24"/>
          <note vol="100" pan="0" pos="2592" key="93" len="72"/>
          <note vol="100" pan="0" pos="2664" key="92" len="24"/>
          <note vol="100" pan="0" pos="2688" key="90" len="192"/>
          <note vol="100" pan="0" pos="2688" key="88" len="192"/>
          <note vol="100" pan="0" pos="2688" key="85" len="192"/>
          <note vol="100" pan="0" pos="2688" key="81" len="192"/>
          <note vol="100" pan="0" pos="2760" key="93" len="24"/>
          <note vol="100" pan="0" pos="2784" key="97" len="72"/>
          <note vol="100" pan="0" pos="2856" key="95" len="24"/>
          <note vol="100" pan="0" pos="2880" key="93" len="48"/>
          <note vol="100" pan="0" pos="2880" key="88" len="192"/>
          <note vol="100" pan="0" pos="2880" key="83" len="192"/>
          <note vol="100" pan="0" pos="2880" key="81" len="192"/>
          <note vol="100" pan="0" pos="2880" key="78" len="192"/>
          <note vol="100" pan="0" pos="2928" key="90" len="24"/>
          <note vol="100" pan="0" pos="2952" key="102" len="120"/>
        </pattern>
        <pattern muted="0" steps="16" name="" type="1" pos="768">
          <note vol="100" pan="0" pos="72" key="81" len="12"/>
          <note vol="100" pan="0" pos="72" key="77" len="12"/>
          <note vol="100" pan="0" pos="72" key="74" len="12"/>
          <note vol="100" pan="0" pos="72" key="69" len="12"/>
        </pattern>
        <pattern muted="0" steps="16" name="" type="1" pos="960">
          <note vol="100" pan="0" pos="72" key="88" len="12"/>
          <note vol="100" pan="0" pos="72" key="83" len="12"/>
          <note vol="100" pan="0" pos="72" key="80" len="12"/>
          <note vol="100" pan="0" pos="72" key="76" len="12"/>
          <note vol="100" pan="0" pos="96" key="88" len="12"/>
          <note vol="100" pan="0" pos="96" key="83" len="12"/>
          <note vol="100" pan="0" pos="96" key="80" len="12"/>
          <note vol="100" pan="0" pos="96" key="76" len="12"/>
        </pattern>
        <pattern muted="0" steps="16" name="" type="1" pos="1152">
          <note vol="100" pan="0" pos="72" key="89" len="12"/>
          <note vol="100" pan="0" pos="72" key="84" len="12"/>
          <note vol="100" pan="0" pos="72" key="81" len="12"/>
          <note vol="100" pan="0" pos="72" key="77" len="12"/>
        </pattern>
        <pattern muted="0" steps="16" name="" type="1" pos="1344">
          <note vol="100" pan="0" pos="0" key="91" len="12"/>
          <note vol="100" pan="0" pos="0" key="86" len="12"/>
          <note vol="100" pan="0" pos="0" key="82" len="12"/>
          <note vol="100" pan="0" pos="0" key="79" len="12"/>
          <note vol="100" pan="0" pos="96" key="93" len="12"/>
          <note vol="100" pan="0" pos="96" key="88" len="12"/>
          <note vol="100" pan="0" pos="96" key="85" len="12"/>
          <note vol="100" pan="0" pos="96" key="81" len="12"/>
          <note vol="100" pan="0" pos="168" key="93" len="12"/>
          <note vol="100" pan="0" pos="168" key="88" len="12"/>
          <note vol="100" pan="0" pos="168" key="85" len="12"/>
          <note vol="100" pan="0" pos="168" key="81" len="12"/>
        </pattern>
        <pattern muted="0" steps="16" name="" type="1" pos="1536">
          <note vol="100" pan="0" pos="0" key="93" len="12"/>
          <note vol="100" pan="0" pos="0" key="88" len="12"/>
          <note vol="100" pan="0" pos="0" key="85" len="12"/>
          <note vol="100" pan="0" pos="0" key="81" len="12"/>
          <note vol="100" pan="0" pos="48" key="93" len="12"/>
          <note vol="100" pan="0" pos="48" key="88" len="12"/>
          <note vol="100" pan="0" pos="48" key="85" len="12"/>
          <note vol="100" pan="0" pos="48" key="81" len="12"/>
          <note vol="100" pan="0" pos="96" key="93" len="12"/>
          <note vol="100" pan="0" pos="96" key="88" len="12"/>
          <note vol="100" pan="0" pos="96" key="85" len="12"/>
          <note vol="100" pan="0" pos="96" key="81" len="12"/>
          <note vol="100" pan="0" pos="144" key="93" len="12"/>
          <note vol="100" pan="0" pos="144" key="88" len="12"/>
          <note vol="100" pan="0" pos="144" key="85" len="12"/>
          <note vol="100" pan="0" pos="144" key="81" len="12"/>
        </pattern>
        <pattern muted="0" steps="16" name="" type="1" pos="1728">
          <note vol="100" pan="0" pos="0" key="93" len="12"/>
          <note vol="100" pan="0" pos="0" key="88" len="12"/>
          <note vol="100" pan="0" pos="0" key="85" len="12"/>
          <note vol="100" pan="0" pos="0" key="81" len="12"/>
          <note vol="100" pan="0" pos="48" key="93" len="12"/>
          <note vol="100" pan="0" pos="48" key="88" len="12"/>
          <note vol="100" pan="0" pos="48" key="85" len="12"/>
          <note vol="100" pan="0" pos="48" key="81" len="12"/>
          <note vol="100" pan="0" pos="96" key="93" len="12"/>
          <note vol="100" pan="0" pos="96" key="88" len="12"/>
          <note vol="100" pan="0" pos="96" key="85" len="12"/>
          <note vol="100" pan="0" pos="96" key="81" len="12"/>
          <note vol="100" pan="0" pos="144" key="93" len="12"/>
          <note vol="100" pan="0" pos="144" key="88" len="12"/>
          <note vol="100" pan="0" pos="144" key="85" len="12"/>
          <note vol="100" pan="0" pos="144" key="81" len="12"/>
        </pattern>
        <pattern muted="0" steps="16" name="" type="1" pos="1920">
          <note vol="100" pan="0" pos="0" key="93" len="384"/>
          <note vol="100" pan="0" pos="0" key="88" len="384"/>
          <note vol="100" pan="0" pos="0" key="85" len="384"/>
          <note vol="100" pan="0" pos="0" key="81" len="384"/>
        </pattern>
      </track>
      <track muted="0" mutedBeforeSolo="0" name="FX15Piano>Stereo Matrix>Wet/Dry mix" type="5" solo="0">
        <automationtrack/>
        <automationpattern prog="0" name="Stereo Matrix>Wet/Dry mix" pos="768" mute="0" len="192" tens="1">
          <time pos="0" value="0" outValue="0"/>
          <object id="26757"/>
        </automationpattern>
        <automationpattern prog="1" name="Stereo Matrix>Wet/Dry mix" pos="1536" mute="0" len="384" tens="1">
          <time pos="0" value="0" outValue="0"/>
          <time pos="384" value="1" outValue="1"/>
          <object id="26757"/>
        </automationpattern>
      </track>
      <track muted="0" mutedBeforeSolo="0" name="FX15Piano>SendTo>FX01Hall" type="5" solo="0">
        <automationtrack/>
        <automationpattern prog="1" name="Amount to send from channel 15 to channel 2" pos="1536" mute="0" len="384" tens="1">
          <time pos="0" value="0.444" outValue="0.444"/>
          <time pos="384" value="0.666" outValue="0.666"/>
          <object id="16932"/>
        </automationpattern>
        <automationpattern prog="0" name="Amount to send from channel 15 to channel 2" pos="768" mute="0" len="192" tens="1">
          <time pos="0" value="0.444" outValue="0.444"/>
          <object id="16932"/>
        </automationpattern>
      </track>
      <track muted="0" mutedBeforeSolo="0" name="Chords>Main" type="0" solo="0">
        <instrumenttrack pitch="0" pitchrange="12" usemasterpitch="1" enablecc="0" pan="0" firstkey="0" lastkey="127" fxch="14" basenote="81">
          <vol id="3800" scale_type="linear" value="7.09375"/>
          <midicontrollers cc51="0" cc52="0" cc103="0" cc44="0" cc35="0" cc85="0" cc104="0" cc6="0" cc77="0" cc56="0" cc112="0" cc11="0" cc30="0" cc88="0" cc99="0" cc58="0" cc73="0" cc78="0" cc113="0" cc100="0" cc126="0" cc1="0" cc127="0" cc84="0" cc115="0" cc18="0" cc54="0" cc27="0" cc68="0" cc14="0" cc45="0" cc21="0" cc13="0" cc0="0" cc75="0" cc91="0" cc70="0" cc36="0" cc5="0" cc19="0" cc66="0" cc25="0" cc38="0" cc65="0" cc109="0" cc92="0" cc3="0" cc43="0" cc110="0" cc81="0" cc111="0" cc61="0" cc86="0" cc49="0" cc50="0" cc7="0" cc107="0" cc22="0" cc93="0" cc79="0" cc10="0" cc39="0" cc98="0" cc59="0" cc62="0" cc63="0" cc74="0" cc15="0" cc41="0" cc16="0" cc120="0" cc83="0" cc108="0" cc9="0" cc53="0" cc71="0" cc124="0" cc80="0" cc87="0" cc106="0" cc2="0" cc48="0" cc123="0" cc57="0" cc114="0" cc122="0" cc116="0" cc8="0" cc55="0" cc17="0" cc12="0" cc4="0" cc47="0" cc23="0" cc82="0" cc46="0" cc121="0" cc105="0" cc60="0" cc76="0" cc125="0" cc31="0" cc37="0" cc20="0" cc102="0" cc89="0" cc64="0" cc69="0" cc90="0" cc33="0" cc94="0" cc34="0" cc67="0" cc72="0" cc40="0" cc95="0" cc117="0" cc32="0" cc101="0" cc26="0" cc97="0" cc118="0" cc42="0" cc29="0" cc96="0" cc119="0" cc24="0" cc28="0"/>
          <instrument name="sf2player">
            <sf2player reverbRoomSize="0.2" chorusDepth="8" gain="1" reverbWidth="0.5" patch="69" chorusLevel="2" reverbDamping="0" reverbOn="0" chorusSpeed="0.3" chorusOn="0" chorusNum="3" src="usersoundfont:FluidR3 GM.sf2" bank="0" reverbLevel="0.9">
              <key/>
            </sf2player>
          </instrument>
          <eldata fwet="0" fres="0.5" ftype="0" fcut="14000">
            <elvol pdel="0" lamt="0" lspd="0.1" lspd_syncmode="0" rel="0.1" lpdel="0" amt="0" sustain="0.5" lspd_numerator="4" lspd_denominator="4" hold="0.5" ctlenvamt="0" att="0" x100="0" latt="0" dec="0.5" userwavefile="" lshp="0"/>
            <elcut pdel="0" lamt="0" lspd="0.1" lspd_syncmode="0" rel="0.1" lpdel="0" amt="0" sustain="0.5" lspd_numerator="4" lspd_denominator="4" hold="0.5" ctlenvamt="0" att="0" x100="0" latt="0" dec="0.5" userwavefile="" lshp="0"/>
            <elres pdel="0" lamt="0" lspd="0.1" lspd_syncmode="0" rel="0.1" lpdel="0" amt="0" sustain="0.5" lspd_numerator="4" lspd_denominator="4" hold="0.5" ctlenvamt="0" att="0" x100="0" latt="0" dec="0.5" userwavefile="" lshp="0"/>
          </eldata>
          <chordcreator chord="0" chord-enabled="0" chordrange="1"/>
          <arpeggiator arptime_denominator="4" arprange="1" arp-enabled="0" arpcycle="0" arpgate="31" arpdir="0" arp="0" arptime="441.176" arpmode="1" arprepeats="1" arptime_syncmode="0" arptime_numerator="3" arpmiss="0" arpskip="0"/>
          <midiport outputchannel="1" inputcontroller="0" fixedoutputvelocity="-1" inputchannel="0" writable="0" outputprogram="1" inports="" fixedinputvelocity="-1" fixedoutputnote="-1" basevelocity="63" outputcontroller="0" readable="1"/>
          <fxchain enabled="0" numofeffects="0"/>
        </instrumenttrack>
        <pattern muted="0" steps="16" name="" type="1" pos="2304">
          <note vol="100" pan="0" pos="0" key="54" len="12"/>
          <note vol="100" pan="0" pos="36" key="85" len="18"/>
          <note vol="100" pan="0" pos="36" key="81" len="18"/>
          <note vol="100" pan="0" pos="36" key="78" len="18"/>
          <note vol="100" pan="0" pos="36" key="76" len="18"/>
          <note vol="100" pan="0" pos="36" key="54" len="12"/>
          <note vol="100" pan="0" pos="72" key="85" len="18"/>
          <note vol="100" pan="0" pos="72" key="81" len="18"/>
          <note vol="100" pan="0" pos="72" key="78" len="18"/>
          <note vol="100" pan="0" pos="72" key="76" len="18"/>
          <note vol="100" pan="0" pos="72" key="54" len="12"/>
          <note vol="100" pan="0" pos="108" key="85" len="18"/>
          <note vol="100" pan="0" pos="108" key="81" len="18"/>
          <note vol="100" pan="0" pos="108" key="78" len="18"/>
          <note vol="100" pan="0" pos="108" key="76" len="18"/>
          <note vol="100" pan="0" pos="108" key="54" len="12"/>
          <note vol="100" pan="0" pos="144" key="85" len="18"/>
          <note vol="100" pan="0" pos="144" key="81" len="18"/>
          <note vol="100" pan="0" pos="144" key="78" len="18"/>
          <note vol="100" pan="0" pos="144" key="76" len="18"/>
          <note vol="100" pan="0" pos="144" key="54" len="12"/>
          <note vol="100" pan="0" pos="180" key="85" len="18"/>
          <note vol="100" pan="0" pos="180" key="81" len="18"/>
          <note vol="100" pan="0" pos="180" key="78" len="18"/>
          <note vol="100" pan="0" pos="180" key="76" len="18"/>
          <note vol="100" pan="0" pos="180" key="54" len="12"/>
          <note vol="100" pan="0" pos="192" key="52" len="12"/>
          <note vol="100" pan="0" pos="228" key="88" len="18"/>
          <note vol="100" pan="0" pos="228" key="85" len="18"/>
          <note vol="100" pan="0" pos="228" key="83" len="18"/>
          <note vol="100" pan="0" pos="228" key="80" len="18"/>
          <note vol="100" pan="0" pos="228" key="52" len="12"/>
          <note vol="100" pan="0" pos="264" key="88" len="18"/>
          <note vol="100" pan="0" pos="264" key="85" len="18"/>
          <note vol="100" pan="0" pos="264" key="83" len="18"/>
          <note vol="100" pan="0" pos="264" key="80" len="18"/>
          <note vol="100" pan="0" pos="264" key="52" len="12"/>
          <note vol="100" pan="0" pos="300" key="88" len="18"/>
          <note vol="100" pan="0" pos="300" key="85" len="18"/>
          <note vol="100" pan="0" pos="300" key="83" len="18"/>
          <note vol="100" pan="0" pos="300" key="80" len="18"/>
          <note vol="100" pan="0" pos="300" key="52" len="12"/>
          <note vol="100" pan="0" pos="336" key="88" len="18"/>
          <note vol="100" pan="0" pos="336" key="85" len="18"/>
          <note vol="100" pan="0" pos="336" key="83" len="18"/>
          <note vol="100" pan="0" pos="336" key="80" len="18"/>
          <note vol="100" pan="0" pos="336" key="52" len="12"/>
          <note vol="100" pan="0" pos="372" key="88" len="18"/>
          <note vol="100" pan="0" pos="372" key="85" len="18"/>
          <note vol="100" pan="0" pos="372" key="83" len="18"/>
          <note vol="100" pan="0" pos="372" key="80" len="18"/>
          <note vol="100" pan="0" pos="372" key="52" len="12"/>
          <note vol="100" pan="0" pos="384" key="54" len="12"/>
          <note vol="100" pan="0" pos="420" key="90" len="18"/>
          <note vol="100" pan="0" pos="420" key="88" len="18"/>
          <note vol="100" pan="0" pos="420" key="85" len="18"/>
          <note vol="100" pan="0" pos="420" key="81" len="18"/>
          <note vol="100" pan="0" pos="420" key="54" len="12"/>
          <note vol="100" pan="0" pos="456" key="90" len="18"/>
          <note vol="100" pan="0" pos="456" key="88" len="18"/>
          <note vol="100" pan="0" pos="456" key="85" len="18"/>
          <note vol="100" pan="0" pos="456" key="81" len="18"/>
          <note vol="100" pan="0" pos="456" key="54" len="12"/>
          <note vol="100" pan="0" pos="492" key="90" len="18"/>
          <note vol="100" pan="0" pos="492" key="88" len="18"/>
          <note vol="100" pan="0" pos="492" key="85" len="18"/>
          <note vol="100" pan="0" pos="492" key="81" len="18"/>
          <note vol="100" pan="0" pos="492" key="54" len="12"/>
          <note vol="100" pan="0" pos="528" key="90" len="18"/>
          <note vol="100" pan="0" pos="528" key="88" len="18"/>
          <note vol="100" pan="0" pos="528" key="85" len="18"/>
          <note vol="100" pan="0" pos="528" key="81" len="18"/>
          <note vol="100" pan="0" pos="528" key="54" len="12"/>
          <note vol="100" pan="0" pos="564" key="90" len="18"/>
          <note vol="100" pan="0" pos="564" key="88" len="18"/>
          <note vol="100" pan="0" pos="564" key="85" len="18"/>
          <note vol="100" pan="0" pos="564" key="81" len="18"/>
          <note vol="100" pan="0" pos="564" key="54" len="12"/>
          <note vol="100" pan="0" pos="576" key="52" len="12"/>
          <note vol="100" pan="0" pos="612" key="88" len="18"/>
          <note vol="100" pan="0" pos="612" key="85" len="18"/>
          <note vol="100" pan="0" pos="612" key="82" len="18"/>
          <note vol="100" pan="0" pos="612" key="80" len="18"/>
          <note vol="100" pan="0" pos="612" key="52" len="12"/>
          <note vol="100" pan="0" pos="648" key="88" len="18"/>
          <note vol="100" pan="0" pos="648" key="85" len="18"/>
          <note vol="100" pan="0" pos="648" key="82" len="18"/>
          <note vol="100" pan="0" pos="648" key="80" len="18"/>
          <note vol="100" pan="0" pos="648" key="52" len="12"/>
          <note vol="100" pan="0" pos="684" key="88" len="18"/>
          <note vol="100" pan="0" pos="684" key="85" len="18"/>
          <note vol="100" pan="0" pos="684" key="82" len="18"/>
          <note vol="100" pan="0" pos="684" key="80" len="18"/>
          <note vol="100" pan="0" pos="684" key="52" len="12"/>
          <note vol="100" pan="0" pos="720" key="88" len="18"/>
          <note vol="100" pan="0" pos="720" key="85" len="18"/>
          <note vol="100" pan="0" pos="720" key="82" len="18"/>
          <note vol="100" pan="0" pos="720" key="80" len="18"/>
          <note vol="100" pan="0" pos="720" key="52" len="12"/>
          <note vol="100" pan="0" pos="756" key="88" len="18"/>
          <note vol="100" pan="0" pos="756" key="85" len="18"/>
          <note vol="100" pan="0" pos="756" key="82" len="18"/>
          <note vol="100" pan="0" pos="756" key="80" len="18"/>
          <note vol="100" pan="0" pos="756" key="52" len="12"/>
          <note vol="100" pan="0" pos="768" key="50" len="12"/>
          <note vol="100" pan="0" pos="804" key="86" len="18"/>
          <note vol="100" pan="0" pos="804" key="84" len="18"/>
          <note vol="100" pan="0" pos="804" key="81" len="18"/>
          <note vol="100" pan="0" pos="804" key="78" len="18"/>
          <note vol="100" pan="0" pos="804" key="50" len="12"/>
          <note vol="100" pan="0" pos="840" key="86" len="18"/>
          <note vol="100" pan="0" pos="840" key="84" len="18"/>
          <note vol="100" pan="0" pos="840" key="81" len="18"/>
          <note vol="100" pan="0" pos="840" key="78" len="18"/>
          <note vol="100" pan="0" pos="840" key="50" len="12"/>
          <note vol="100" pan="0" pos="876" key="86" len="18"/>
          <note vol="100" pan="0" pos="876" key="84" len="18"/>
          <note vol="100" pan="0" pos="876" key="81" len="18"/>
          <note vol="100" pan="0" pos="876" key="78" len="18"/>
          <note vol="100" pan="0" pos="876" key="50" len="12"/>
          <note vol="100" pan="0" pos="912" key="86" len="18"/>
          <note vol="100" pan="0" pos="912" key="84" len="18"/>
          <note vol="100" pan="0" pos="912" key="81" len="18"/>
          <note vol="100" pan="0" pos="912" key="78" len="18"/>
          <note vol="100" pan="0" pos="912" key="50" len="12"/>
          <note vol="100" pan="0" pos="948" key="86" len="18"/>
          <note vol="100" pan="0" pos="948" key="84" len="18"/>
          <note vol="100" pan="0" pos="948" key="81" len="18"/>
          <note vol="100" pan="0" pos="948" key="78" len="18"/>
          <note vol="100" pan="0" pos="948" key="50" len="12"/>
          <note vol="100" pan="0" pos="960" key="45" len="12"/>
          <note vol="100" pan="0" pos="996" key="86" len="18"/>
          <note vol="100" pan="0" pos="996" key="84" len="18"/>
          <note vol="100" pan="0" pos="996" key="81" len="18"/>
          <note vol="100" pan="0" pos="996" key="77" len="18"/>
          <note vol="100" pan="0" pos="996" key="45" len="12"/>
          <note vol="100" pan="0" pos="1032" key="86" len="18"/>
          <note vol="100" pan="0" pos="1032" key="84" len="18"/>
          <note vol="100" pan="0" pos="1032" key="81" len="18"/>
          <note vol="100" pan="0" pos="1032" key="77" len="18"/>
          <note vol="100" pan="0" pos="1032" key="45" len="12"/>
          <note vol="100" pan="0" pos="1068" key="89" len="18"/>
          <note vol="100" pan="0" pos="1068" key="84" len="18"/>
          <note vol="100" pan="0" pos="1068" key="81" len="18"/>
          <note vol="100" pan="0" pos="1068" key="77" len="18"/>
          <note vol="100" pan="0" pos="1068" key="53" len="12"/>
          <note vol="100" pan="0" pos="1104" key="86" len="18"/>
          <note vol="100" pan="0" pos="1104" key="84" len="18"/>
          <note vol="100" pan="0" pos="1104" key="81" len="18"/>
          <note vol="100" pan="0" pos="1104" key="77" len="18"/>
          <note vol="100" pan="0" pos="1104" key="50" len="12"/>
          <note vol="100" pan="0" pos="1140" key="86" len="18"/>
          <note vol="100" pan="0" pos="1140" key="84" len="18"/>
          <note vol="100" pan="0" pos="1140" key="81" len="18"/>
          <note vol="100" pan="0" pos="1140" key="77" len="18"/>
          <note vol="100" pan="0" pos="1140" key="50" len="12"/>
          <note vol="100" pan="0" pos="1152" key="49" len="12"/>
          <note vol="100" pan="0" pos="1188" key="85" len="18"/>
          <note vol="100" pan="0" pos="1188" key="83" len="18"/>
          <note vol="100" pan="0" pos="1188" key="80" len="18"/>
          <note vol="100" pan="0" pos="1188" key="76" len="18"/>
          <note vol="100" pan="0" pos="1188" key="49" len="12"/>
          <note vol="100" pan="0" pos="1224" key="85" len="18"/>
          <note vol="100" pan="0" pos="1224" key="83" len="18"/>
          <note vol="100" pan="0" pos="1224" key="80" len="18"/>
          <note vol="100" pan="0" pos="1224" key="76" len="18"/>
          <note vol="100" pan="0" pos="1224" key="49" len="12"/>
          <note vol="100" pan="0" pos="1260" key="85" len="18"/>
          <note vol="100" pan="0" pos="1260" key="83" len="18"/>
          <note vol="100" pan="0" pos="1260" key="80" len="18"/>
          <note vol="100" pan="0" pos="1260" key="76" len="18"/>
          <note vol="100" pan="0" pos="1260" key="49" len="12"/>
          <note vol="100" pan="0" pos="1296" key="85" len="18"/>
          <note vol="100" pan="0" pos="1296" key="83" len="18"/>
          <note vol="100" pan="0" pos="1296" key="80" len="18"/>
          <note vol="100" pan="0" pos="1296" key="76" len="18"/>
          <note vol="100" pan="0" pos="1296" key="49" len="12"/>
          <note vol="100" pan="0" pos="1332" key="85" len="18"/>
          <note vol="100" pan="0" pos="1332" key="83" len="18"/>
          <note vol="100" pan="0" pos="1332" key="80" len="18"/>
          <note vol="100" pan="0" pos="1332" key="76" len="18"/>
          <note vol="100" pan="0" pos="1332" key="49" len="12"/>
          <note vol="100" pan="0" pos="1344" key="54" len="12"/>
          <note vol="100" pan="0" pos="1380" key="90" len="18"/>
          <note vol="100" pan="0" pos="1380" key="88" len="18"/>
          <note vol="100" pan="0" pos="1380" key="85" len="18"/>
          <note vol="100" pan="0" pos="1380" key="82" len="18"/>
          <note vol="100" pan="0" pos="1380" key="54" len="12"/>
          <note vol="100" pan="0" pos="1416" key="90" len="18"/>
          <note vol="100" pan="0" pos="1416" key="88" len="18"/>
          <note vol="100" pan="0" pos="1416" key="85" len="18"/>
          <note vol="100" pan="0" pos="1416" key="82" len="18"/>
          <note vol="100" pan="0" pos="1416" key="54" len="12"/>
          <note vol="100" pan="0" pos="1452" key="90" len="18"/>
          <note vol="100" pan="0" pos="1452" key="88" len="18"/>
          <note vol="100" pan="0" pos="1452" key="85" len="18"/>
          <note vol="100" pan="0" pos="1452" key="82" len="18"/>
          <note vol="100" pan="0" pos="1452" key="54" len="12"/>
          <note vol="100" pan="0" pos="1488" key="90" len="18"/>
          <note vol="100" pan="0" pos="1488" key="88" len="18"/>
          <note vol="100" pan="0" pos="1488" key="85" len="18"/>
          <note vol="100" pan="0" pos="1488" key="82" len="18"/>
          <note vol="100" pan="0" pos="1488" key="54" len="12"/>
          <note vol="100" pan="0" pos="1524" key="88" len="18"/>
          <note vol="100" pan="0" pos="1524" key="85" len="18"/>
          <note vol="100" pan="0" pos="1524" key="82" len="18"/>
          <note vol="100" pan="0" pos="1524" key="78" len="18"/>
          <note vol="100" pan="0" pos="1524" key="54" len="12"/>
          <note vol="100" pan="0" pos="1536" key="50" len="12"/>
          <note vol="100" pan="0" pos="1572" key="90" len="18"/>
          <note vol="100" pan="0" pos="1572" key="86" len="18"/>
          <note vol="100" pan="0" pos="1572" key="83" len="18"/>
          <note vol="100" pan="0" pos="1572" key="81" len="18"/>
          <note vol="100" pan="0" pos="1572" key="50" len="12"/>
          <note vol="100" pan="0" pos="1608" key="90" len="18"/>
          <note vol="100" pan="0" pos="1608" key="86" len="18"/>
          <note vol="100" pan="0" pos="1608" key="83" len="18"/>
          <note vol="100" pan="0" pos="1608" key="81" len="18"/>
          <note vol="100" pan="0" pos="1608" key="50" len="12"/>
          <note vol="100" pan="0" pos="1644" key="90" len="18"/>
          <note vol="100" pan="0" pos="1644" key="86" len="18"/>
          <note vol="100" pan="0" pos="1644" key="83" len="18"/>
          <note vol="100" pan="0" pos="1644" key="81" len="18"/>
          <note vol="100" pan="0" pos="1644" key="50" len="12"/>
          <note vol="100" pan="0" pos="1680" key="90" len="18"/>
          <note vol="100" pan="0" pos="1680" key="86" len="18"/>
          <note vol="100" pan="0" pos="1680" key="83" len="18"/>
          <note vol="100" pan="0" pos="1680" key="81" len="18"/>
          <note vol="100" pan="0" pos="1680" key="50" len="12"/>
          <note vol="100" pan="0" pos="1716" key="90" len="18"/>
          <note vol="100" pan="0" pos="1716" key="86" len="18"/>
          <note vol="100" pan="0" pos="1716" key="83" len="18"/>
          <note vol="100" pan="0" pos="1716" key="81" len="18"/>
          <note vol="100" pan="0" pos="1716" key="50" len="12"/>
          <note vol="100" pan="0" pos="1728" key="49" len="12"/>
          <note vol="100" pan="0" pos="1764" key="88" len="18"/>
          <note vol="100" pan="0" pos="1764" key="85" len="18"/>
          <note vol="100" pan="0" pos="1764" key="82" len="18"/>
          <note vol="100" pan="0" pos="1764" key="80" len="18"/>
          <note vol="100" pan="0" pos="1764" key="49" len="12"/>
          <note vol="100" pan="0" pos="1800" key="88" len="18"/>
          <note vol="100" pan="0" pos="1800" key="85" len="18"/>
          <note vol="100" pan="0" pos="1800" key="82" len="18"/>
          <note vol="100" pan="0" pos="1800" key="80" len="18"/>
          <note vol="100" pan="0" pos="1800" key="49" len="12"/>
          <note vol="100" pan="0" pos="1836" key="88" len="18"/>
          <note vol="100" pan="0" pos="1836" key="85" len="18"/>
          <note vol="100" pan="0" pos="1836" key="82" len="18"/>
          <note vol="100" pan="0" pos="1836" key="80" len="18"/>
          <note vol="100" pan="0" pos="1836" key="49" len="12"/>
          <note vol="100" pan="0" pos="1872" key="88" len="18"/>
          <note vol="100" pan="0" pos="1872" key="85" len="18"/>
          <note vol="100" pan="0" pos="1872" key="82" len="18"/>
          <note vol="100" pan="0" pos="1872" key="80" len="18"/>
          <note vol="100" pan="0" pos="1872" key="49" len="12"/>
          <note vol="100" pan="0" pos="1908" key="88" len="18"/>
          <note vol="100" pan="0" pos="1908" key="85" len="18"/>
          <note vol="100" pan="0" pos="1908" key="82" len="18"/>
          <note vol="100" pan="0" pos="1908" key="80" len="18"/>
          <note vol="100" pan="0" pos="1908" key="49" len="12"/>
          <note vol="100" pan="0" pos="1920" key="45" len="12"/>
          <note vol="100" pan="0" pos="1956" key="88" len="18"/>
          <note vol="100" pan="0" pos="1956" key="85" len="18"/>
          <note vol="100" pan="0" pos="1956" key="81" len="18"/>
          <note vol="100" pan="0" pos="1956" key="78" len="18"/>
          <note vol="100" pan="0" pos="1956" key="45" len="12"/>
          <note vol="100" pan="0" pos="1992" key="88" len="18"/>
          <note vol="100" pan="0" pos="1992" key="85" len="18"/>
          <note vol="100" pan="0" pos="1992" key="81" len="18"/>
          <note vol="100" pan="0" pos="1992" key="78" len="18"/>
          <note vol="100" pan="0" pos="1992" key="45" len="12"/>
          <note vol="100" pan="0" pos="2028" key="88" len="18"/>
          <note vol="100" pan="0" pos="2028" key="85" len="18"/>
          <note vol="100" pan="0" pos="2028" key="81" len="18"/>
          <note vol="100" pan="0" pos="2028" key="78" len="18"/>
          <note vol="100" pan="0" pos="2028" key="45" len="12"/>
          <note vol="100" pan="0" pos="2064" key="88" len="18"/>
          <note vol="100" pan="0" pos="2064" key="85" len="18"/>
          <note vol="100" pan="0" pos="2064" key="81" len="18"/>
          <note vol="100" pan="0" pos="2064" key="78" len="18"/>
          <note vol="100" pan="0" pos="2064" key="45" len="12"/>
          <note vol="100" pan="0" pos="2100" key="88" len="18"/>
          <note vol="100" pan="0" pos="2100" key="85" len="18"/>
          <note vol="100" pan="0" pos="2100" key="81" len="18"/>
          <note vol="100" pan="0" pos="2100" key="78" len="18"/>
          <note vol="100" pan="0" pos="2100" key="45" len="12"/>
          <note vol="100" pan="0" pos="2112" key="42" len="12"/>
          <note vol="100" pan="0" pos="2148" key="85" len="18"/>
          <note vol="100" pan="0" pos="2148" key="83" len="18"/>
          <note vol="100" pan="0" pos="2148" key="81" len="18"/>
          <note vol="100" pan="0" pos="2148" key="78" len="18"/>
          <note vol="100" pan="0" pos="2148" key="42" len="12"/>
          <note vol="100" pan="0" pos="2184" key="85" len="18"/>
          <note vol="100" pan="0" pos="2184" key="83" len="18"/>
          <note vol="100" pan="0" pos="2184" key="81" len="18"/>
          <note vol="100" pan="0" pos="2184" key="78" len="18"/>
          <note vol="100" pan="0" pos="2184" key="42" len="12"/>
          <note vol="100" pan="0" pos="2220" key="85" len="18"/>
          <note vol="100" pan="0" pos="2220" key="83" len="18"/>
          <note vol="100" pan="0" pos="2220" key="81" len="18"/>
          <note vol="100" pan="0" pos="2220" key="78" len="18"/>
          <note vol="100" pan="0" pos="2220" key="42" len="12"/>
          <note vol="100" pan="0" pos="2256" key="85" len="18"/>
          <note vol="100" pan="0" pos="2256" key="83" len="18"/>
          <note vol="100" pan="0" pos="2256" key="81" len="18"/>
          <note vol="100" pan="0" pos="2256" key="78" len="18"/>
          <note vol="100" pan="0" pos="2256" key="42" len="12"/>
          <note vol="100" pan="0" pos="2292" key="83" len="18"/>
          <note vol="100" pan="0" pos="2292" key="81" len="18"/>
          <note vol="100" pan="0" pos="2292" key="80" len="18"/>
          <note vol="100" pan="0" pos="2292" key="76" len="18"/>
          <note vol="100" pan="0" pos="2292" key="44" len="12"/>
          <note vol="100" pan="0" pos="2304" key="45" len="12"/>
          <note vol="100" pan="0" pos="2340" key="85" len="18"/>
          <note vol="100" pan="0" pos="2340" key="83" len="18"/>
          <note vol="100" pan="0" pos="2340" key="81" len="18"/>
          <note vol="100" pan="0" pos="2340" key="76" len="18"/>
          <note vol="100" pan="0" pos="2340" key="45" len="12"/>
          <note vol="100" pan="0" pos="2376" key="85" len="18"/>
          <note vol="100" pan="0" pos="2376" key="83" len="18"/>
          <note vol="100" pan="0" pos="2376" key="81" len="18"/>
          <note vol="100" pan="0" pos="2376" key="76" len="18"/>
          <note vol="100" pan="0" pos="2376" key="45" len="12"/>
          <note vol="100" pan="0" pos="2412" key="85" len="18"/>
          <note vol="100" pan="0" pos="2412" key="83" len="18"/>
          <note vol="100" pan="0" pos="2412" key="81" len="18"/>
          <note vol="100" pan="0" pos="2412" key="76" len="18"/>
          <note vol="100" pan="0" pos="2412" key="45" len="12"/>
          <note vol="100" pan="0" pos="2448" key="85" len="18"/>
          <note vol="100" pan="0" pos="2448" key="83" len="18"/>
          <note vol="100" pan="0" pos="2448" key="81" len="18"/>
          <note vol="100" pan="0" pos="2448" key="76" len="18"/>
          <note vol="100" pan="0" pos="2448" key="45" len="12"/>
          <note vol="100" pan="0" pos="2484" key="85" len="18"/>
          <note vol="100" pan="0" pos="2484" key="83" len="18"/>
          <note vol="100" pan="0" pos="2484" key="81" len="18"/>
          <note vol="100" pan="0" pos="2484" key="76" len="18"/>
          <note vol="100" pan="0" pos="2484" key="45" len="12"/>
          <note vol="100" pan="0" pos="2496" key="49" len="12"/>
          <note vol="100" pan="0" pos="2532" key="88" len="18"/>
          <note vol="100" pan="0" pos="2532" key="85" len="18"/>
          <note vol="100" pan="0" pos="2532" key="83" len="18"/>
          <note vol="100" pan="0" pos="2532" key="80" len="18"/>
          <note vol="100" pan="0" pos="2532" key="49" len="12"/>
          <note vol="100" pan="0" pos="2568" key="88" len="18"/>
          <note vol="100" pan="0" pos="2568" key="85" len="18"/>
          <note vol="100" pan="0" pos="2568" key="83" len="18"/>
          <note vol="100" pan="0" pos="2568" key="80" len="18"/>
          <note vol="100" pan="0" pos="2568" key="49" len="12"/>
          <note vol="100" pan="0" pos="2604" key="88" len="18"/>
          <note vol="100" pan="0" pos="2604" key="85" len="18"/>
          <note vol="100" pan="0" pos="2604" key="83" len="18"/>
          <note vol="100" pan="0" pos="2604" key="80" len="18"/>
          <note vol="100" pan="0" pos="2604" key="49" len="12"/>
          <note vol="100" pan="0" pos="2640" key="88" len="18"/>
          <note vol="100" pan="0" pos="2640" key="85" len="18"/>
          <note vol="100" pan="0" pos="2640" key="83" len="18"/>
          <note vol="100" pan="0" pos="2640" key="80" len="18"/>
          <note vol="100" pan="0" pos="2640" key="49" len="12"/>
          <note vol="100" pan="0" pos="2676" key="88" len="18"/>
          <note vol="100" pan="0" pos="2676" key="85" len="18"/>
          <note vol="100" pan="0" pos="2676" key="83" len="18"/>
          <note vol="100" pan="0" pos="2676" key="80" len="18"/>
          <note vol="100" pan="0" pos="2676" key="49" len="12"/>
          <note vol="100" pan="0" pos="2688" key="54" len="12"/>
          <note vol="100" pan="0" pos="2724" key="90" len="18"/>
          <note vol="100" pan="0" pos="2724" key="88" len="18"/>
          <note vol="100" pan="0" pos="2724" key="85" len="18"/>
          <note vol="100" pan="0" pos="2724" key="81" len="18"/>
          <note vol="100" pan="0" pos="2724" key="54" len="12"/>
          <note vol="100" pan="0" pos="2760" key="90" len="18"/>
          <note vol="100" pan="0" pos="2760" key="88" len="18"/>
          <note vol="100" pan="0" pos="2760" key="85" len="18"/>
          <note vol="100" pan="0" pos="2760" key="81" len="18"/>
          <note vol="100" pan="0" pos="2760" key="54" len="12"/>
          <note vol="100" pan="0" pos="2796" key="90" len="18"/>
          <note vol="100" pan="0" pos="2796" key="88" len="18"/>
          <note vol="100" pan="0" pos="2796" key="85" len="18"/>
          <note vol="100" pan="0" pos="2796" key="81" len="18"/>
          <note vol="100" pan="0" pos="2796" key="54" len="12"/>
          <note vol="100" pan="0" pos="2832" key="90" len="18"/>
          <note vol="100" pan="0" pos="2832" key="88" len="18"/>
          <note vol="100" pan="0" pos="2832" key="85" len="18"/>
          <note vol="100" pan="0" pos="2832" key="81" len="18"/>
          <note vol="100" pan="0" pos="2832" key="54" len="12"/>
          <note vol="100" pan="0" pos="2868" key="90" len="18"/>
          <note vol="100" pan="0" pos="2868" key="88" len="18"/>
          <note vol="100" pan="0" pos="2868" key="85" len="18"/>
          <note vol="100" pan="0" pos="2868" key="81" len="18"/>
          <note vol="100" pan="0" pos="2868" key="54" len="12"/>
          <note vol="100" pan="0" pos="2880" key="42" len="12"/>
          <note vol="100" pan="0" pos="2916" key="88" len="18"/>
          <note vol="100" pan="0" pos="2916" key="83" len="18"/>
          <note vol="100" pan="0" pos="2916" key="81" len="18"/>
          <note vol="100" pan="0" pos="2916" key="78" len="18"/>
          <note vol="100" pan="0" pos="2916" key="42" len="12"/>
          <note vol="100" pan="0" pos="2952" key="88" len="18"/>
          <note vol="100" pan="0" pos="2952" key="83" len="18"/>
          <note vol="100" pan="0" pos="2952" key="81" len="18"/>
          <note vol="100" pan="0" pos="2952" key="78" len="18"/>
          <note vol="100" pan="0" pos="2952" key="42" len="12"/>
          <note vol="100" pan="0" pos="2988" key="88" len="18"/>
          <note vol="100" pan="0" pos="2988" key="83" len="18"/>
          <note vol="100" pan="0" pos="2988" key="81" len="18"/>
          <note vol="100" pan="0" pos="2988" key="78" len="18"/>
          <note vol="100" pan="0" pos="2988" key="42" len="12"/>
          <note vol="100" pan="0" pos="3024" key="88" len="18"/>
          <note vol="100" pan="0" pos="3024" key="83" len="18"/>
          <note vol="100" pan="0" pos="3024" key="81" len="18"/>
          <note vol="100" pan="0" pos="3024" key="78" len="18"/>
          <note vol="100" pan="0" pos="3024" key="42" len="12"/>
          <note vol="100" pan="0" pos="3060" key="88" len="18"/>
          <note vol="100" pan="0" pos="3060" key="83" len="18"/>
          <note vol="100" pan="0" pos="3060" key="81" len="18"/>
          <note vol="100" pan="0" pos="3060" key="78" len="18"/>
          <note vol="100" pan="0" pos="3060" key="42" len="12"/>
          <note vol="100" pan="0" pos="3096" key="88" len="18"/>
          <note vol="100" pan="0" pos="3096" key="83" len="18"/>
          <note vol="100" pan="0" pos="3096" key="81" len="18"/>
          <note vol="100" pan="0" pos="3096" key="78" len="18"/>
          <note vol="100" pan="0" pos="3132" key="88" len="18"/>
          <note vol="100" pan="0" pos="3132" key="83" len="18"/>
          <note vol="100" pan="0" pos="3132" key="81" len="18"/>
          <note vol="100" pan="0" pos="3132" key="78" len="18"/>
          <note vol="100" pan="0" pos="3168" key="88" len="18"/>
          <note vol="100" pan="0" pos="3168" key="83" len="18"/>
          <note vol="100" pan="0" pos="3168" key="81" len="18"/>
          <note vol="100" pan="0" pos="3168" key="78" len="18"/>
          <note vol="100" pan="0" pos="3204" key="88" len="18"/>
          <note vol="100" pan="0" pos="3204" key="83" len="18"/>
          <note vol="100" pan="0" pos="3204" key="81" len="18"/>
          <note vol="100" pan="0" pos="3204" key="78" len="18"/>
          <note vol="100" pan="0" pos="3240" key="88" len="18"/>
          <note vol="100" pan="0" pos="3240" key="83" len="18"/>
          <note vol="100" pan="0" pos="3240" key="81" len="18"/>
          <note vol="100" pan="0" pos="3240" key="78" len="18"/>
          <note vol="100" pan="0" pos="3276" key="86" len="18"/>
          <note vol="100" pan="0" pos="3276" key="83" len="18"/>
          <note vol="100" pan="0" pos="3276" key="81" len="18"/>
          <note vol="100" pan="0" pos="3276" key="78" len="18"/>
          <note vol="100" pan="0" pos="3312" key="86" len="18"/>
          <note vol="100" pan="0" pos="3312" key="83" len="18"/>
          <note vol="100" pan="0" pos="3312" key="81" len="18"/>
          <note vol="100" pan="0" pos="3312" key="78" len="18"/>
          <note vol="100" pan="0" pos="3348" key="86" len="18"/>
          <note vol="100" pan="0" pos="3348" key="83" len="18"/>
          <note vol="100" pan="0" pos="3348" key="81" len="18"/>
          <note vol="100" pan="0" pos="3348" key="78" len="18"/>
          <note vol="100" pan="0" pos="3384" key="86" len="18"/>
          <note vol="100" pan="0" pos="3384" key="83" len="18"/>
          <note vol="100" pan="0" pos="3384" key="81" len="18"/>
          <note vol="100" pan="0" pos="3384" key="78" len="18"/>
          <note vol="100" pan="0" pos="3420" key="86" len="18"/>
          <note vol="100" pan="0" pos="3420" key="83" len="18"/>
          <note vol="100" pan="0" pos="3420" key="81" len="18"/>
          <note vol="100" pan="0" pos="3420" key="78" len="18"/>
          <note vol="100" pan="0" pos="3456" key="85" len="18"/>
          <note vol="100" pan="0" pos="3456" key="81" len="18"/>
          <note vol="100" pan="0" pos="3456" key="78" len="18"/>
          <note vol="100" pan="0" pos="3456" key="76" len="18"/>
          <note vol="100" pan="0" pos="3492" key="85" len="18"/>
          <note vol="100" pan="0" pos="3492" key="81" len="18"/>
          <note vol="100" pan="0" pos="3492" key="78" len="18"/>
          <note vol="100" pan="0" pos="3492" key="76" len="18"/>
          <note vol="100" pan="0" pos="3528" key="85" len="18"/>
          <note vol="100" pan="0" pos="3528" key="81" len="18"/>
          <note vol="100" pan="0" pos="3528" key="78" len="18"/>
          <note vol="100" pan="0" pos="3528" key="76" len="18"/>
          <note vol="100" pan="0" pos="3564" key="85" len="18"/>
          <note vol="100" pan="0" pos="3564" key="81" len="18"/>
          <note vol="100" pan="0" pos="3564" key="78" len="18"/>
          <note vol="100" pan="0" pos="3564" key="76" len="18"/>
          <note vol="100" pan="0" pos="3600" key="85" len="18"/>
          <note vol="100" pan="0" pos="3600" key="81" len="18"/>
          <note vol="100" pan="0" pos="3600" key="78" len="18"/>
          <note vol="100" pan="0" pos="3600" key="76" len="18"/>
          <note vol="100" pan="0" pos="3648" key="86" len="18"/>
          <note vol="100" pan="0" pos="3648" key="81" len="18"/>
          <note vol="100" pan="0" pos="3648" key="78" len="18"/>
          <note vol="100" pan="0" pos="3648" key="76" len="18"/>
          <note vol="100" pan="0" pos="3684" key="86" len="18"/>
          <note vol="100" pan="0" pos="3684" key="81" len="18"/>
          <note vol="100" pan="0" pos="3684" key="78" len="18"/>
          <note vol="100" pan="0" pos="3684" key="76" len="18"/>
          <note vol="100" pan="0" pos="3720" key="86" len="18"/>
          <note vol="100" pan="0" pos="3720" key="81" len="18"/>
          <note vol="100" pan="0" pos="3720" key="78" len="18"/>
          <note vol="100" pan="0" pos="3720" key="76" len="18"/>
          <note vol="100" pan="0" pos="3756" key="86" len="18"/>
          <note vol="100" pan="0" pos="3756" key="81" len="18"/>
          <note vol="100" pan="0" pos="3756" key="78" len="18"/>
          <note vol="100" pan="0" pos="3756" key="76" len="18"/>
          <note vol="100" pan="0" pos="3792" key="86" len="18"/>
          <note vol="100" pan="0" pos="3792" key="81" len="18"/>
          <note vol="100" pan="0" pos="3792" key="78" len="18"/>
          <note vol="100" pan="0" pos="3792" key="76" len="18"/>
        </pattern>
        <pattern muted="0" steps="16" name="" type="1" pos="768">
          <note vol="100" pan="0" pos="0" key="69" len="192"/>
          <note vol="100" pan="0" pos="12" key="74" len="192"/>
          <note vol="100" pan="0" pos="24" key="77" len="192"/>
          <note vol="100" pan="0" pos="36" key="81" len="192"/>
          <note vol="100" pan="0" pos="192" key="76" len="192"/>
          <note vol="100" pan="0" pos="204" key="80" len="192"/>
          <note vol="100" pan="0" pos="216" key="83" len="192"/>
          <note vol="100" pan="0" pos="228" key="88" len="192"/>
          <note vol="100" pan="0" pos="384" key="77" len="192"/>
          <note vol="100" pan="0" pos="396" key="81" len="192"/>
          <note vol="100" pan="0" pos="408" key="84" len="192"/>
          <note vol="100" pan="0" pos="420" key="89" len="192"/>
          <note vol="100" pan="0" pos="576" key="79" len="96"/>
          <note vol="100" pan="0" pos="588" key="82" len="96"/>
          <note vol="100" pan="0" pos="600" key="86" len="96"/>
          <note vol="100" pan="0" pos="612" key="91" len="96"/>
          <note vol="100" pan="0" pos="672" key="81" len="852"/>
          <note vol="100" pan="0" pos="684" key="85" len="840"/>
          <note vol="100" pan="0" pos="696" key="88" len="828"/>
          <note vol="100" pan="0" pos="708" key="93" len="816"/>
        </pattern>
      </track>
      <track muted="0" mutedBeforeSolo="0" name="Chords>Main>Volume" type="5" solo="0">
        <automationtrack/>
        <automationpattern prog="1" name="Chords>Main>Volume" pos="2304" mute="0" len="192" tens="1">
          <time pos="0" value="30" outValue="30"/>
          <time pos="192" value="100" outValue="100"/>
          <object id="3800"/>
        </automationpattern>
        <automationpattern prog="1" name="Chords>Main>Volume" pos="2496" mute="0" len="192" tens="1">
          <time pos="0" value="30" outValue="30"/>
          <time pos="192" value="100" outValue="100"/>
          <object id="3800"/>
        </automationpattern>
        <automationpattern prog="1" name="Chords>Main>Volume" pos="2688" mute="0" len="192" tens="1">
          <time pos="0" value="30" outValue="30"/>
          <time pos="192" value="100" outValue="100"/>
          <object id="3800"/>
        </automationpattern>
        <automationpattern prog="1" name="Chords>Main>Volume" pos="2880" mute="0" len="192" tens="1">
          <time pos="0" value="30" outValue="30"/>
          <time pos="192" value="100" outValue="100"/>
          <object id="3800"/>
        </automationpattern>
        <automationpattern prog="1" name="Chords>Main>Volume" pos="768" mute="0" len="768" tens="1">
          <time pos="0" value="6" outValue="6"/>
          <time pos="768" value="30" outValue="30"/>
          <object id="3800"/>
        </automationpattern>
        <automationpattern prog="1" name="Chords>Main>Volume" pos="1920" mute="0" len="384" tens="1">
          <time pos="0" value="30" outValue="30"/>
          <time pos="384" value="0" outValue="0"/>
          <object id="3800"/>
        </automationpattern>
        <automationpattern prog="1" name="Chords>Main>Volume" pos="5376" mute="0" len="768" tens="1">
          <time pos="0" value="100" outValue="100"/>
          <time pos="768" value="0" outValue="0"/>
          <object id="3800"/>
        </automationpattern>
        <automationpattern prog="1" name="Chords>Main>Volume" pos="3072" mute="0" len="192" tens="1">
          <time pos="0" value="30" outValue="30"/>
          <time pos="192" value="100" outValue="100"/>
          <object id="3800"/>
        </automationpattern>
        <automationpattern prog="1" name="Chords>Main>Volume" pos="3264" mute="0" len="192" tens="1">
          <time pos="0" value="30" outValue="30"/>
          <time pos="192" value="100" outValue="100"/>
          <object id="3800"/>
        </automationpattern>
        <automationpattern prog="1" name="Chords>Main>Volume" pos="3456" mute="0" len="192" tens="1">
          <time pos="0" value="30" outValue="30"/>
          <time pos="192" value="100" outValue="100"/>
          <object id="3800"/>
        </automationpattern>
        <automationpattern prog="1" name="Chords>Main>Volume" pos="3648" mute="0" len="192" tens="1">
          <time pos="0" value="30" outValue="30"/>
          <time pos="192" value="100" outValue="100"/>
          <object id="3800"/>
        </automationpattern>
        <automationpattern prog="1" name="Chords>Main>Volume" pos="3840" mute="0" len="192" tens="1">
          <time pos="0" value="30" outValue="30"/>
          <time pos="192" value="100" outValue="100"/>
          <object id="3800"/>
        </automationpattern>
        <automationpattern prog="1" name="Chords>Main>Volume" pos="4032" mute="0" len="192" tens="1">
          <time pos="0" value="30" outValue="30"/>
          <time pos="192" value="100" outValue="100"/>
          <object id="3800"/>
        </automationpattern>
        <automationpattern prog="1" name="Chords>Main>Volume" pos="4224" mute="0" len="192" tens="1">
          <time pos="0" value="30" outValue="30"/>
          <time pos="192" value="100" outValue="100"/>
          <object id="3800"/>
        </automationpattern>
        <automationpattern prog="1" name="Chords>Main>Volume" pos="4416" mute="0" len="192" tens="1">
          <time pos="0" value="30" outValue="30"/>
          <time pos="192" value="100" outValue="100"/>
          <object id="3800"/>
        </automationpattern>
        <automationpattern prog="1" name="Chords>Main>Volume" pos="4608" mute="0" len="192" tens="1">
          <time pos="0" value="30" outValue="30"/>
          <time pos="192" value="100" outValue="100"/>
          <object id="3800"/>
        </automationpattern>
        <automationpattern prog="1" name="Chords>Main>Volume" pos="4800" mute="0" len="192" tens="1">
          <time pos="0" value="30" outValue="30"/>
          <time pos="192" value="100" outValue="100"/>
          <object id="3800"/>
        </automationpattern>
        <automationpattern prog="1" name="Chords>Main>Volume" pos="4992" mute="0" len="192" tens="1">
          <time pos="0" value="30" outValue="30"/>
          <time pos="192" value="100" outValue="100"/>
          <object id="3800"/>
        </automationpattern>
        <automationpattern prog="1" name="Chords>Main>Volume" pos="5184" mute="0" len="192" tens="1">
          <time pos="0" value="30" outValue="30"/>
          <time pos="192" value="100" outValue="100"/>
          <object id="3800"/>
        </automationpattern>
      </track>
      <track muted="0" mutedBeforeSolo="0" name="Chords>Fall" type="0" solo="0">
        <instrumenttrack pitchrange="12" usemasterpitch="1" enablecc="0" pan="0" firstkey="0" lastkey="127" fxch="14" basenote="81">
          <vol id="28892" scale_type="linear" value="3.77474"/>
          <pitch id="5531" scale_type="linear" value="0"/>
          <midicontrollers cc51="0" cc52="0" cc103="0" cc44="0" cc35="0" cc85="0" cc104="0" cc6="0" cc77="0" cc56="0" cc112="0" cc11="0" cc30="0" cc88="0" cc99="0" cc58="0" cc73="0" cc78="0" cc113="0" cc100="0" cc126="0" cc1="0" cc127="0" cc84="0" cc115="0" cc18="0" cc54="0" cc27="0" cc68="0" cc14="0" cc45="0" cc21="0" cc13="0" cc0="0" cc75="0" cc91="0" cc70="0" cc36="0" cc5="0" cc19="0" cc66="0" cc25="0" cc38="0" cc65="0" cc109="0" cc92="0" cc3="0" cc43="0" cc110="0" cc81="0" cc111="0" cc61="0" cc86="0" cc49="0" cc50="0" cc7="0" cc107="0" cc22="0" cc93="0" cc79="0" cc10="0" cc39="0" cc98="0" cc59="0" cc62="0" cc63="0" cc74="0" cc15="0" cc41="0" cc16="0" cc120="0" cc83="0" cc108="0" cc9="0" cc53="0" cc71="0" cc124="0" cc80="0" cc87="0" cc106="0" cc2="0" cc48="0" cc123="0" cc57="0" cc114="0" cc122="0" cc116="0" cc8="0" cc55="0" cc17="0" cc12="0" cc4="0" cc47="0" cc23="0" cc82="0" cc46="0" cc121="0" cc105="0" cc60="0" cc76="0" cc125="0" cc31="0" cc37="0" cc20="0" cc102="0" cc89="0" cc64="0" cc69="0" cc90="0" cc33="0" cc94="0" cc34="0" cc67="0" cc72="0" cc40="0" cc95="0" cc117="0" cc32="0" cc101="0" cc26="0" cc97="0" cc118="0" cc42="0" cc29="0" cc96="0" cc119="0" cc24="0" cc28="0"/>
          <instrument name="sf2player">
            <sf2player reverbRoomSize="0.2" chorusDepth="8" gain="1" reverbWidth="0.5" patch="69" chorusLevel="2" reverbDamping="0" reverbOn="0" chorusSpeed="0.3" chorusOn="0" chorusNum="3" src="usersoundfont:FluidR3 GM.sf2" bank="0" reverbLevel="0.9">
              <key/>
            </sf2player>
          </instrument>
          <eldata fwet="0" fres="0.5" ftype="0" fcut="14000">
            <elvol pdel="0" lamt="0" lspd="0.1" lspd_syncmode="0" rel="0.1" lpdel="0" amt="0" sustain="0.5" lspd_numerator="4" lspd_denominator="4" hold="0.5" ctlenvamt="0" att="0" x100="0" latt="0" dec="0.5" userwavefile="" lshp="0"/>
            <elcut pdel="0" lamt="0" lspd="0.1" lspd_syncmode="0" rel="0.1" lpdel="0" amt="0" sustain="0.5" lspd_numerator="4" lspd_denominator="4" hold="0.5" ctlenvamt="0" att="0" x100="0" latt="0" dec="0.5" userwavefile="" lshp="0"/>
            <elres pdel="0" lamt="0" lspd="0.1" lspd_syncmode="0" rel="0.1" lpdel="0" amt="0" sustain="0.5" lspd_numerator="4" lspd_denominator="4" hold="0.5" ctlenvamt="0" att="0" x100="0" latt="0" dec="0.5" userwavefile="" lshp="0"/>
          </eldata>
          <chordcreator chord="0" chord-enabled="0" chordrange="1"/>
          <arpeggiator arptime_denominator="4" arprange="1" arp-enabled="0" arpcycle="0" arpgate="31" arpdir="0" arp="0" arptime="441.176" arpmode="1" arprepeats="1" arptime_syncmode="0" arptime_numerator="3" arpmiss="0" arpskip="0"/>
          <midiport outputchannel="1" inputcontroller="0" fixedoutputvelocity="-1" inputchannel="0" writable="0" outputprogram="1" inports="" fixedinputvelocity="-1" fixedoutputnote="-1" basevelocity="63" outputcontroller="0" readable="1"/>
          <fxchain enabled="0" numofeffects="0"/>
        </instrumenttrack>
        <pattern muted="0" steps="16" name="" type="1" pos="768">
          <note vol="100" pan="0" pos="0" key="69" len="192"/>
          <note vol="100" pan="0" pos="12" key="74" len="192"/>
          <note vol="100" pan="0" pos="24" key="77" len="192"/>
          <note vol="100" pan="0" pos="36" key="81" len="192"/>
          <note vol="100" pan="0" pos="192" key="76" len="192"/>
          <note vol="100" pan="0" pos="204" key="80" len="192"/>
          <note vol="100" pan="0" pos="216" key="83" len="192"/>
          <note vol="100" pan="0" pos="228" key="88" len="192"/>
          <note vol="100" pan="0" pos="384" key="77" len="192"/>
          <note vol="100" pan="0" pos="396" key="81" len="192"/>
          <note vol="100" pan="0" pos="408" key="84" len="192"/>
          <note vol="100" pan="0" pos="420" key="89" len="192"/>
          <note vol="100" pan="0" pos="576" key="79" len="96"/>
          <note vol="100" pan="0" pos="588" key="82" len="96"/>
          <note vol="100" pan="0" pos="600" key="86" len="96"/>
          <note vol="100" pan="0" pos="612" key="91" len="96"/>
          <note vol="100" pan="0" pos="672" key="81" len="852"/>
          <note vol="100" pan="0" pos="684" key="85" len="840"/>
          <note vol="100" pan="0" pos="696" key="88" len="828"/>
          <note vol="100" pan="0" pos="708" key="93" len="816"/>
        </pattern>
      </track>
      <track muted="0" mutedBeforeSolo="0" trackheight="32" name="Chords>Fall>Volume" type="5" solo="0">
        <automationtrack/>
        <automationpattern prog="1" name="Chords>Fall>Volume" pos="768" mute="0" len="768" tens="1">
          <time pos="0" value="3" outValue="3"/>
          <time pos="768" value="20" outValue="20"/>
          <object id="28892"/>
        </automationpattern>
        <automationpattern prog="1" name="Chords>Fall>Volume" pos="1920" mute="0" len="384" tens="1">
          <time pos="0" value="20" outValue="20"/>
          <time pos="384" value="0" outValue="0"/>
          <object id="28892"/>
        </automationpattern>
      </track>
      <track muted="0" mutedBeforeSolo="0" name="Chords>Fall>Pitch" type="5" solo="0">
        <automationtrack/>
        <automationpattern prog="1" name="Chords>Fall>Pitch" pos="1536" mute="0" len="384" tens="0">
          <time pos="0" value="0.5" outValue="0.5"/>
          <time pos="384" value="-1200" outValue="-1200"/>
          <object id="5531"/>
        </automationpattern>
        <automationpattern prog="0" name="Chords>Fall>Pitch" pos="768" mute="0" len="192" tens="1">
          <time pos="0" value="0" outValue="0"/>
          <object id="5531"/>
        </automationpattern>
      </track>
      <track muted="0" mutedBeforeSolo="0" name="FX14Chords>SendTo>FX01Hall" type="5" solo="0">
        <automationtrack/>
        <automationpattern prog="1" name="Amount to send from channel 12 to channel 1" pos="768" mute="0" len="768" tens="1">
          <time pos="0" value="0.222" outValue="0.222"/>
          <time pos="768" value="0.5" outValue="0.5"/>
          <object id="8565"/>
        </automationpattern>
        <automationpattern prog="1" name="Amount to send from channel 12 to channel 1" pos="1536" mute="0" len="576" tens="1">
          <time pos="0" value="0.5" outValue="0.5"/>
          <time pos="384" value="0.666" outValue="0.666"/>
          <time pos="576" value="0" outValue="0"/>
          <object id="8565"/>
        </automationpattern>
      </track>
      <track muted="0" mutedBeforeSolo="0" name="FX01Hall>Stereo Matrix>Wet/Dry mix" type="5" solo="0">
        <automationtrack/>
        <automationpattern prog="1" name="Stereo Matrix>Wet/Dry mix" pos="1536" mute="0" len="576" tens="0">
          <time pos="0" value="1" outValue="1"/>
          <time pos="384" value="0" outValue="0"/>
          <object id="27975"/>
        </automationpattern>
        <automationpattern prog="0" name="Stereo Matrix>Wet/Dry mix" pos="768" mute="0" len="192" tens="1">
          <time pos="0" value="0.99" outValue="0.99"/>
          <object id="27975"/>
        </automationpattern>
      </track>
      <track muted="0" mutedBeforeSolo="0" name="BitDrums>BD" type="0" solo="0">
        <instrumenttrack pitch="0" pitchrange="1" usemasterpitch="0" enablecc="0" pan="0" firstkey="0" lastkey="127" fxch="11" basenote="69">
          <vol id="29798" scale_type="linear" value="100"/>
          <midicontrollers cc51="0" cc52="0" cc103="0" cc44="0" cc35="0" cc85="0" cc104="0" cc6="0" cc77="0" cc56="0" cc112="0" cc11="0" cc30="0" cc88="0" cc99="0" cc58="0" cc73="0" cc78="0" cc113="0" cc100="0" cc126="0" cc1="0" cc127="0" cc84="0" cc115="0" cc18="0" cc54="0" cc27="0" cc68="0" cc14="0" cc45="0" cc21="0" cc13="0" cc0="0" cc75="0" cc91="0" cc70="0" cc36="0" cc5="0" cc19="0" cc66="0" cc25="0" cc38="0" cc65="0" cc109="0" cc92="0" cc3="0" cc43="0" cc110="0" cc81="0" cc111="0" cc61="0" cc86="0" cc49="0" cc50="0" cc7="0" cc107="0" cc22="0" cc93="0" cc79="0" cc10="0" cc39="0" cc98="0" cc59="0" cc62="0" cc63="0" cc74="0" cc15="0" cc41="0" cc16="0" cc120="0" cc83="0" cc108="0" cc9="0" cc53="0" cc71="0" cc124="0" cc80="0" cc87="0" cc106="0" cc2="0" cc48="0" cc123="0" cc57="0" cc114="0" cc122="0" cc116="0" cc8="0" cc55="0" cc17="0" cc12="0" cc4="0" cc47="0" cc23="0" cc82="0" cc46="0" cc121="0" cc105="0" cc60="0" cc76="0" cc125="0" cc31="0" cc37="0" cc20="0" cc102="0" cc89="0" cc64="0" cc69="0" cc90="0" cc33="0" cc94="0" cc34="0" cc67="0" cc72="0" cc40="0" cc95="0" cc117="0" cc32="0" cc101="0" cc26="0" cc97="0" cc118="0" cc42="0" cc29="0" cc96="0" cc119="0" cc24="0" cc28="0"/>
          <instrument name="vestige">
            <vestige plugin="uservst:Instruments/Acoustica Expanded Instruments/Acoustica Expanded Instruments.dll" program="60" guivisible="0" numparams="0">
              <key/>
            </vestige>
          </instrument>
          <eldata fwet="0" fres="0.5" ftype="0" fcut="14000">
            <elvol pdel="0" lamt="0" lspd="0.1" lspd_syncmode="0" rel="0.1" lpdel="0" amt="0" sustain="0.5" lspd_numerator="4" lspd_denominator="4" hold="0.5" ctlenvamt="0" att="0" x100="0" latt="0" dec="0.5" userwavefile="" lshp="0"/>
            <elcut pdel="0" lamt="0" lspd="0.1" lspd_syncmode="0" rel="0.1" lpdel="0" amt="0" sustain="0.5" lspd_numerator="4" lspd_denominator="4" hold="0.5" ctlenvamt="0" att="0" x100="0" latt="0" dec="0.5" userwavefile="" lshp="0"/>
            <elres pdel="0" lamt="0" lspd="0.1" lspd_syncmode="0" rel="0.1" lpdel="0" amt="0" sustain="0.5" lspd_numerator="4" lspd_denominator="4" hold="0.5" ctlenvamt="0" att="0" x100="0" latt="0" dec="0.5" userwavefile="" lshp="0"/>
          </eldata>
          <chordcreator chord="0" chord-enabled="0" chordrange="1"/>
          <arpeggiator arptime_denominator="4" arprange="1" arp-enabled="0" arpcycle="0" arpgate="100" arpdir="0" arp="0" arptime="200" arpmode="0" arprepeats="1" arptime_syncmode="0" arptime_numerator="4" arpmiss="0" arpskip="0"/>
          <midiport outputchannel="1" inputcontroller="0" fixedoutputvelocity="-1" inputchannel="0" writable="0" outputprogram="1" inports="" fixedinputvelocity="-1" fixedoutputnote="-1" basevelocity="63" outputcontroller="0" readable="1"/>
          <fxchain enabled="0" numofeffects="0"/>
        </instrumenttrack>
        <pattern muted="0" steps="16" name="" type="1" pos="2304">
          <note vol="100" pan="0" pos="0" key="33" len="12"/>
          <note vol="100" pan="0" pos="48" key="33" len="12"/>
          <note vol="100" pan="0" pos="96" key="33" len="12"/>
          <note vol="100" pan="0" pos="144" key="33" len="12"/>
          <note vol="100" pan="0" pos="168" key="33" len="12"/>
          <note vol="100" pan="0" pos="180" key="33" len="12"/>
        </pattern>
        <pattern muted="0" steps="16" name="" type="1" pos="2496">
          <note vol="100" pan="0" pos="0" key="33" len="12"/>
          <note vol="100" pan="0" pos="48" key="33" len="12"/>
          <note vol="100" pan="0" pos="96" key="33" len="12"/>
          <note vol="100" pan="0" pos="144" key="33" len="12"/>
          <note vol="100" pan="0" pos="168" key="33" len="12"/>
          <note vol="100" pan="0" pos="180" key="33" len="12"/>
        </pattern>
        <pattern muted="0" steps="16" name="" type="1" pos="2688">
          <note vol="100" pan="0" pos="0" key="33" len="12"/>
          <note vol="100" pan="0" pos="48" key="33" len="12"/>
          <note vol="100" pan="0" pos="96" key="33" len="12"/>
          <note vol="100" pan="0" pos="144" key="33" len="12"/>
          <note vol="100" pan="0" pos="168" key="33" len="12"/>
          <note vol="100" pan="0" pos="180" key="33" len="12"/>
        </pattern>
        <pattern muted="0" steps="16" name="" type="1" pos="2880">
          <note vol="100" pan="0" pos="0" key="33" len="12"/>
          <note vol="100" pan="0" pos="48" key="33" len="12"/>
          <note vol="100" pan="0" pos="96" key="33" len="12"/>
          <note vol="100" pan="0" pos="144" key="33" len="12"/>
          <note vol="100" pan="0" pos="168" key="33" len="12"/>
          <note vol="100" pan="0" pos="180" key="33" len="12"/>
        </pattern>
        <pattern muted="0" steps="16" name="" type="1" pos="3072">
          <note vol="100" pan="0" pos="0" key="33" len="12"/>
          <note vol="100" pan="0" pos="48" key="33" len="12"/>
          <note vol="100" pan="0" pos="96" key="33" len="12"/>
          <note vol="100" pan="0" pos="144" key="33" len="12"/>
          <note vol="100" pan="0" pos="168" key="33" len="12"/>
          <note vol="100" pan="0" pos="180" key="33" len="12"/>
        </pattern>
        <pattern muted="0" steps="16" name="" type="1" pos="3264">
          <note vol="100" pan="0" pos="0" key="33" len="12"/>
          <note vol="100" pan="0" pos="48" key="33" len="12"/>
          <note vol="100" pan="0" pos="96" key="33" len="12"/>
          <note vol="100" pan="0" pos="144" key="33" len="12"/>
          <note vol="100" pan="0" pos="168" key="33" len="12"/>
          <note vol="100" pan="0" pos="180" key="33" len="12"/>
        </pattern>
        <pattern muted="0" steps="16" name="" type="1" pos="3456">
          <note vol="100" pan="0" pos="0" key="33" len="12"/>
          <note vol="100" pan="0" pos="48" key="33" len="12"/>
          <note vol="100" pan="0" pos="96" key="33" len="12"/>
          <note vol="100" pan="0" pos="144" key="33" len="12"/>
          <note vol="100" pan="0" pos="168" key="33" len="12"/>
          <note vol="100" pan="0" pos="180" key="33" len="12"/>
        </pattern>
        <pattern muted="0" steps="16" name="" type="1" pos="3648">
          <note vol="100" pan="0" pos="0" key="33" len="12"/>
          <note vol="100" pan="0" pos="48" key="33" len="12"/>
          <note vol="100" pan="0" pos="96" key="33" len="12"/>
          <note vol="100" pan="0" pos="144" key="33" len="12"/>
          <note vol="100" pan="0" pos="168" key="33" len="12"/>
          <note vol="100" pan="0" pos="180" key="33" len="12"/>
        </pattern>
        <pattern muted="0" steps="16" name="" type="1" pos="3840">
          <note vol="100" pan="0" pos="0" key="33" len="12"/>
          <note vol="100" pan="0" pos="48" key="33" len="12"/>
          <note vol="100" pan="0" pos="96" key="33" len="12"/>
          <note vol="100" pan="0" pos="144" key="33" len="12"/>
          <note vol="100" pan="0" pos="168" key="33" len="12"/>
          <note vol="100" pan="0" pos="180" key="33" len="12"/>
        </pattern>
        <pattern muted="0" steps="16" name="" type="1" pos="4032">
          <note vol="100" pan="0" pos="0" key="33" len="12"/>
          <note vol="100" pan="0" pos="48" key="33" len="12"/>
          <note vol="100" pan="0" pos="96" key="33" len="12"/>
          <note vol="100" pan="0" pos="144" key="33" len="12"/>
          <note vol="100" pan="0" pos="168" key="33" len="12"/>
          <note vol="100" pan="0" pos="180" key="33" len="12"/>
        </pattern>
        <pattern muted="0" steps="16" name="" type="1" pos="4224">
          <note vol="100" pan="0" pos="0" key="33" len="12"/>
          <note vol="100" pan="0" pos="48" key="33" len="12"/>
          <note vol="100" pan="0" pos="96" key="33" len="12"/>
          <note vol="100" pan="0" pos="144" key="33" len="12"/>
          <note vol="100" pan="0" pos="168" key="33" len="12"/>
          <note vol="100" pan="0" pos="180" key="33" len="12"/>
        </pattern>
        <pattern muted="0" steps="16" name="" type="1" pos="4416">
          <note vol="100" pan="0" pos="0" key="33" len="12"/>
          <note vol="100" pan="0" pos="48" key="33" len="12"/>
          <note vol="100" pan="0" pos="96" key="33" len="12"/>
          <note vol="100" pan="0" pos="144" key="33" len="12"/>
          <note vol="100" pan="0" pos="168" key="33" len="12"/>
          <note vol="100" pan="0" pos="180" key="33" len="12"/>
        </pattern>
        <pattern muted="0" steps="16" name="" type="1" pos="4608">
          <note vol="100" pan="0" pos="0" key="33" len="12"/>
          <note vol="100" pan="0" pos="48" key="33" len="12"/>
          <note vol="100" pan="0" pos="96" key="33" len="12"/>
          <note vol="100" pan="0" pos="144" key="33" len="12"/>
          <note vol="100" pan="0" pos="168" key="33" len="12"/>
          <note vol="100" pan="0" pos="180" key="33" len="12"/>
        </pattern>
        <pattern muted="0" steps="16" name="" type="1" pos="4800">
          <note vol="100" pan="0" pos="0" key="33" len="12"/>
          <note vol="100" pan="0" pos="48" key="33" len="12"/>
          <note vol="100" pan="0" pos="96" key="33" len="12"/>
          <note vol="100" pan="0" pos="144" key="33" len="12"/>
          <note vol="100" pan="0" pos="168" key="33" len="12"/>
          <note vol="100" pan="0" pos="180" key="33" len="12"/>
        </pattern>
        <pattern muted="0" steps="16" name="" type="1" pos="4992">
          <note vol="100" pan="0" pos="0" key="33" len="12"/>
          <note vol="100" pan="0" pos="48" key="33" len="12"/>
          <note vol="100" pan="0" pos="96" key="33" len="12"/>
          <note vol="100" pan="0" pos="144" key="33" len="12"/>
          <note vol="100" pan="0" pos="168" key="33" len="12"/>
          <note vol="100" pan="0" pos="180" key="33" len="12"/>
        </pattern>
        <pattern muted="0" steps="16" name="" type="1" pos="5184">
          <note vol="100" pan="0" pos="0" key="33" len="12"/>
          <note vol="100" pan="0" pos="48" key="33" len="12"/>
          <note vol="100" pan="0" pos="96" key="33" len="12"/>
          <note vol="100" pan="0" pos="144" key="33" len="12"/>
          <note vol="100" pan="0" pos="168" key="33" len="12"/>
          <note vol="100" pan="0" pos="180" key="33" len="12"/>
        </pattern>
        <pattern muted="0" steps="16" name="" type="1" pos="768">
          <note vol="100" pan="0" pos="0" key="33" len="12"/>
          <note vol="100" pan="0" pos="96" key="33" len="12"/>
        </pattern>
        <pattern muted="0" steps="16" name="" type="1" pos="960">
          <note vol="100" pan="0" pos="0" key="33" len="12"/>
          <note vol="100" pan="0" pos="96" key="33" len="12"/>
        </pattern>
        <pattern muted="0" steps="16" name="" type="1" pos="1152">
          <note vol="100" pan="0" pos="0" key="33" len="12"/>
          <note vol="100" pan="0" pos="96" key="33" len="12"/>
        </pattern>
        <pattern muted="0" steps="16" name="" type="1" pos="1344">
          <note vol="100" pan="0" pos="0" key="33" len="12"/>
          <note vol="100" pan="0" pos="96" key="33" len="12"/>
        </pattern>
        <pattern muted="0" steps="16" name="" type="1" pos="0">
          <note vol="100" pan="0" pos="0" key="33" len="12"/>
          <note vol="100" pan="0" pos="96" key="33" len="12"/>
        </pattern>
        <pattern muted="0" steps="16" name="" type="1" pos="192">
          <note vol="100" pan="0" pos="0" key="33" len="12"/>
          <note vol="100" pan="0" pos="96" key="33" len="12"/>
        </pattern>
        <pattern muted="0" steps="16" name="" type="1" pos="384">
          <note vol="100" pan="0" pos="0" key="33" len="12"/>
          <note vol="100" pan="0" pos="96" key="33" len="12"/>
        </pattern>
        <pattern muted="0" steps="16" name="" type="1" pos="576">
          <note vol="100" pan="0" pos="0" key="33" len="12"/>
          <note vol="100" pan="0" pos="96" key="33" len="12"/>
        </pattern>
        <pattern muted="0" steps="16" name="" type="1" pos="5376">
          <note vol="100" pan="0" pos="0" key="33" len="12"/>
          <note vol="100" pan="0" pos="48" key="33" len="12"/>
          <note vol="100" pan="0" pos="96" key="33" len="12"/>
          <note vol="100" pan="0" pos="144" key="33" len="12"/>
          <note vol="100" pan="0" pos="168" key="33" len="12"/>
          <note vol="100" pan="0" pos="180" key="33" len="12"/>
        </pattern>
        <pattern muted="0" steps="16" name="" type="1" pos="5568">
          <note vol="100" pan="0" pos="0" key="33" len="12"/>
          <note vol="100" pan="0" pos="48" key="33" len="12"/>
          <note vol="100" pan="0" pos="96" key="33" len="12"/>
          <note vol="100" pan="0" pos="144" key="33" len="12"/>
          <note vol="100" pan="0" pos="168" key="33" len="12"/>
          <note vol="100" pan="0" pos="180" key="33" len="12"/>
        </pattern>
        <pattern muted="0" steps="16" name="" type="1" pos="5760">
          <note vol="100" pan="0" pos="0" key="33" len="12"/>
          <note vol="100" pan="0" pos="48" key="33" len="12"/>
          <note vol="100" pan="0" pos="96" key="33" len="12"/>
          <note vol="100" pan="0" pos="144" key="33" len="12"/>
          <note vol="100" pan="0" pos="168" key="33" len="12"/>
          <note vol="100" pan="0" pos="180" key="33" len="12"/>
        </pattern>
        <pattern muted="0" steps="16" name="" type="1" pos="5952">
          <note vol="100" pan="0" pos="0" key="33" len="12"/>
          <note vol="100" pan="0" pos="48" key="33" len="12"/>
          <note vol="100" pan="0" pos="96" key="33" len="12"/>
          <note vol="100" pan="0" pos="144" key="33" len="12"/>
          <note vol="100" pan="0" pos="168" key="33" len="12"/>
          <note vol="100" pan="0" pos="180" key="33" len="12"/>
        </pattern>
      </track>
      <track muted="0" mutedBeforeSolo="0" name="BitDrums>BD>Volume" type="5" solo="0">
        <automationtrack/>
        <automationpattern prog="0" name="BitDrums>BD>Volume" pos="0" mute="0" len="192" tens="1">
          <time pos="0" value="100" outValue="100"/>
          <object id="29798"/>
        </automationpattern>
        <automationpattern prog="1" name="BitDrums>BD>Volume" pos="5376" mute="0" len="768" tens="1">
          <time pos="0" value="100" outValue="100"/>
          <time pos="768" value="0" outValue="0"/>
          <object id="29798"/>
        </automationpattern>
      </track>
      <track muted="0" mutedBeforeSolo="0" name="BitDrums>Snare" type="0" solo="0">
        <instrumenttrack pitch="0" vol="100" pitchrange="1" usemasterpitch="0" enablecc="0" pan="0" firstkey="0" lastkey="127" fxch="12" basenote="69">
          <midicontrollers cc51="0" cc52="0" cc103="0" cc44="0" cc35="0" cc85="0" cc104="0" cc6="0" cc77="0" cc56="0" cc112="0" cc11="0" cc30="0" cc88="0" cc99="0" cc58="0" cc73="0" cc78="0" cc113="0" cc100="0" cc126="0" cc1="0" cc127="0" cc84="0" cc115="0" cc18="0" cc54="0" cc27="0" cc68="0" cc14="0" cc45="0" cc21="0" cc13="0" cc0="0" cc75="0" cc91="0" cc70="0" cc36="0" cc5="0" cc19="0" cc66="0" cc25="0" cc38="0" cc65="0" cc109="0" cc92="0" cc3="0" cc43="0" cc110="0" cc81="0" cc111="0" cc61="0" cc86="0" cc49="0" cc50="0" cc7="0" cc107="0" cc22="0" cc93="0" cc79="0" cc10="0" cc39="0" cc98="0" cc59="0" cc62="0" cc63="0" cc74="0" cc15="0" cc41="0" cc16="0" cc120="0" cc83="0" cc108="0" cc9="0" cc53="0" cc71="0" cc124="0" cc80="0" cc87="0" cc106="0" cc2="0" cc48="0" cc123="0" cc57="0" cc114="0" cc122="0" cc116="0" cc8="0" cc55="0" cc17="0" cc12="0" cc4="0" cc47="0" cc23="0" cc82="0" cc46="0" cc121="0" cc105="0" cc60="0" cc76="0" cc125="0" cc31="0" cc37="0" cc20="0" cc102="0" cc89="0" cc64="0" cc69="0" cc90="0" cc33="0" cc94="0" cc34="0" cc67="0" cc72="0" cc40="0" cc95="0" cc117="0" cc32="0" cc101="0" cc26="0" cc97="0" cc118="0" cc42="0" cc29="0" cc96="0" cc119="0" cc24="0" cc28="0"/>
          <instrument name="vestige">
            <vestige plugin="uservst:Instruments/Acoustica Expanded Instruments/Acoustica Expanded Instruments.dll" program="60" guivisible="0" numparams="0">
              <key/>
            </vestige>
          </instrument>
          <eldata fwet="0" fres="0.5" ftype="0" fcut="14000">
            <elvol pdel="0" lamt="0" lspd="0.1" lspd_syncmode="0" rel="0.1" lpdel="0" amt="0" sustain="0.5" lspd_numerator="4" lspd_denominator="4" hold="0.5" ctlenvamt="0" att="0" x100="0" latt="0" dec="0.5" userwavefile="" lshp="0"/>
            <elcut pdel="0" lamt="0" lspd="0.1" lspd_syncmode="0" rel="0.1" lpdel="0" amt="0" sustain="0.5" lspd_numerator="4" lspd_denominator="4" hold="0.5" ctlenvamt="0" att="0" x100="0" latt="0" dec="0.5" userwavefile="" lshp="0"/>
            <elres pdel="0" lamt="0" lspd="0.1" lspd_syncmode="0" rel="0.1" lpdel="0" amt="0" sustain="0.5" lspd_numerator="4" lspd_denominator="4" hold="0.5" ctlenvamt="0" att="0" x100="0" latt="0" dec="0.5" userwavefile="" lshp="0"/>
          </eldata>
          <chordcreator chord="0" chord-enabled="0" chordrange="1"/>
          <arpeggiator arptime_denominator="4" arprange="1" arp-enabled="0" arpcycle="0" arpgate="100" arpdir="0" arp="0" arptime="200" arpmode="0" arprepeats="1" arptime_syncmode="0" arptime_numerator="4" arpmiss="0" arpskip="0"/>
          <midiport outputchannel="1" inputcontroller="0" fixedoutputvelocity="-1" inputchannel="0" writable="0" outputprogram="1" inports="" fixedinputvelocity="-1" fixedoutputnote="-1" basevelocity="63" outputcontroller="0" readable="1"/>
          <fxchain enabled="0" numofeffects="0"/>
        </instrumenttrack>
        <pattern muted="0" steps="16" name="" type="1" pos="2304">
          <note vol="100" pan="0" pos="48" key="35" len="12"/>
          <note vol="100" pan="0" pos="144" key="35" len="12"/>
          <note vol="100" pan="0" pos="180" key="35" len="12"/>
        </pattern>
        <pattern muted="0" steps="16" name="" type="1" pos="768">
          <note vol="100" pan="0" pos="144" key="35" len="12"/>
        </pattern>
        <pattern muted="0" steps="16" name="" type="1" pos="960">
          <note vol="100" pan="0" pos="144" key="35" len="12"/>
        </pattern>
        <pattern muted="0" steps="16" name="" type="1" pos="1152">
          <note vol="100" pan="0" pos="144" key="35" len="12"/>
        </pattern>
        <pattern muted="0" steps="16" name="" type="1" pos="1344">
          <note vol="100" pan="0" pos="144" key="35" len="12"/>
        </pattern>
        <pattern muted="0" steps="16" name="" type="1" pos="2496">
          <note vol="100" pan="0" pos="48" key="35" len="12"/>
          <note vol="100" pan="0" pos="144" key="35" len="12"/>
          <note vol="100" pan="0" pos="180" key="35" len="12"/>
        </pattern>
        <pattern muted="0" steps="16" name="" type="1" pos="2688">
          <note vol="100" pan="0" pos="48" key="35" len="12"/>
          <note vol="100" pan="0" pos="144" key="35" len="12"/>
          <note vol="100" pan="0" pos="180" key="35" len="12"/>
        </pattern>
        <pattern muted="0" steps="16" name="" type="1" pos="2880">
          <note vol="100" pan="0" pos="48" key="35" len="12"/>
          <note vol="100" pan="0" pos="144" key="35" len="12"/>
          <note vol="100" pan="0" pos="180" key="35" len="12"/>
        </pattern>
        <pattern muted="0" steps="16" name="" type="1" pos="3072">
          <note vol="100" pan="0" pos="48" key="35" len="12"/>
          <note vol="100" pan="0" pos="144" key="35" len="12"/>
          <note vol="100" pan="0" pos="180" key="35" len="12"/>
        </pattern>
        <pattern muted="0" steps="16" name="" type="1" pos="3264">
          <note vol="100" pan="0" pos="48" key="35" len="12"/>
          <note vol="100" pan="0" pos="144" key="35" len="12"/>
          <note vol="100" pan="0" pos="180" key="35" len="12"/>
        </pattern>
        <pattern muted="0" steps="16" name="" type="1" pos="3456">
          <note vol="100" pan="0" pos="48" key="35" len="12"/>
          <note vol="100" pan="0" pos="144" key="35" len="12"/>
          <note vol="100" pan="0" pos="180" key="35" len="12"/>
        </pattern>
        <pattern muted="0" steps="16" name="" type="1" pos="3648">
          <note vol="100" pan="0" pos="48" key="35" len="12"/>
          <note vol="100" pan="0" pos="144" key="35" len="12"/>
          <note vol="100" pan="0" pos="180" key="35" len="12"/>
        </pattern>
        <pattern muted="0" steps="16" name="" type="1" pos="3840">
          <note vol="100" pan="0" pos="48" key="35" len="12"/>
          <note vol="100" pan="0" pos="144" key="35" len="12"/>
          <note vol="100" pan="0" pos="180" key="35" len="12"/>
        </pattern>
        <pattern muted="0" steps="16" name="" type="1" pos="4032">
          <note vol="100" pan="0" pos="48" key="35" len="12"/>
          <note vol="100" pan="0" pos="144" key="35" len="12"/>
          <note vol="100" pan="0" pos="180" key="35" len="12"/>
        </pattern>
        <pattern muted="0" steps="16" name="" type="1" pos="4224">
          <note vol="100" pan="0" pos="48" key="35" len="12"/>
          <note vol="100" pan="0" pos="144" key="35" len="12"/>
          <note vol="100" pan="0" pos="180" key="35" len="12"/>
        </pattern>
        <pattern muted="0" steps="16" name="" type="1" pos="4416">
          <note vol="100" pan="0" pos="48" key="35" len="12"/>
          <note vol="100" pan="0" pos="144" key="35" len="12"/>
          <note vol="100" pan="0" pos="180" key="35" len="12"/>
        </pattern>
        <pattern muted="0" steps="16" name="" type="1" pos="4608">
          <note vol="100" pan="0" pos="48" key="35" len="12"/>
          <note vol="100" pan="0" pos="144" key="35" len="12"/>
          <note vol="100" pan="0" pos="180" key="35" len="12"/>
        </pattern>
        <pattern muted="0" steps="16" name="" type="1" pos="4800">
          <note vol="100" pan="0" pos="48" key="35" len="12"/>
          <note vol="100" pan="0" pos="144" key="35" len="12"/>
          <note vol="100" pan="0" pos="180" key="35" len="12"/>
        </pattern>
        <pattern muted="0" steps="16" name="" type="1" pos="4992">
          <note vol="100" pan="0" pos="48" key="35" len="12"/>
          <note vol="100" pan="0" pos="144" key="35" len="12"/>
          <note vol="100" pan="0" pos="180" key="35" len="12"/>
        </pattern>
        <pattern muted="0" steps="16" name="" type="1" pos="5184">
          <note vol="100" pan="0" pos="48" key="35" len="12"/>
          <note vol="100" pan="0" pos="144" key="35" len="12"/>
          <note vol="100" pan="0" pos="180" key="35" len="12"/>
        </pattern>
      </track>
      <track muted="0" mutedBeforeSolo="0" name="BitDrums>HiHat" type="0" solo="0">
        <instrumenttrack pitch="0" vol="99.9" pitchrange="1" usemasterpitch="0" enablecc="0" pan="0" firstkey="0" lastkey="127" fxch="13" basenote="69">
          <midicontrollers cc51="0" cc52="0" cc103="0" cc44="0" cc35="0" cc85="0" cc104="0" cc6="0" cc77="0" cc56="0" cc112="0" cc11="0" cc30="0" cc88="0" cc99="0" cc58="0" cc73="0" cc78="0" cc113="0" cc100="0" cc126="0" cc1="0" cc127="0" cc84="0" cc115="0" cc18="0" cc54="0" cc27="0" cc68="0" cc14="0" cc45="0" cc21="0" cc13="0" cc0="0" cc75="0" cc91="0" cc70="0" cc36="0" cc5="0" cc19="0" cc66="0" cc25="0" cc38="0" cc65="0" cc109="0" cc92="0" cc3="0" cc43="0" cc110="0" cc81="0" cc111="0" cc61="0" cc86="0" cc49="0" cc50="0" cc7="0" cc107="0" cc22="0" cc93="0" cc79="0" cc10="0" cc39="0" cc98="0" cc59="0" cc62="0" cc63="0" cc74="0" cc15="0" cc41="0" cc16="0" cc120="0" cc83="0" cc108="0" cc9="0" cc53="0" cc71="0" cc124="0" cc80="0" cc87="0" cc106="0" cc2="0" cc48="0" cc123="0" cc57="0" cc114="0" cc122="0" cc116="0" cc8="0" cc55="0" cc17="0" cc12="0" cc4="0" cc47="0" cc23="0" cc82="0" cc46="0" cc121="0" cc105="0" cc60="0" cc76="0" cc125="0" cc31="0" cc37="0" cc20="0" cc102="0" cc89="0" cc64="0" cc69="0" cc90="0" cc33="0" cc94="0" cc34="0" cc67="0" cc72="0" cc40="0" cc95="0" cc117="0" cc32="0" cc101="0" cc26="0" cc97="0" cc118="0" cc42="0" cc29="0" cc96="0" cc119="0" cc24="0" cc28="0"/>
          <instrument name="vestige">
            <vestige plugin="uservst:Instruments/Acoustica Expanded Instruments/Acoustica Expanded Instruments.dll" program="60" guivisible="0" numparams="0">
              <key/>
            </vestige>
          </instrument>
          <eldata fwet="0" fres="0.5" ftype="0" fcut="14000">
            <elvol pdel="0" lamt="0" lspd="0.1" lspd_syncmode="0" rel="0.1" lpdel="0" amt="0" sustain="0.5" lspd_numerator="4" lspd_denominator="4" hold="0.5" ctlenvamt="0" att="0" x100="0" latt="0" dec="0.5" userwavefile="" lshp="0"/>
            <elcut pdel="0" lamt="0" lspd="0.1" lspd_syncmode="0" rel="0.1" lpdel="0" amt="0" sustain="0.5" lspd_numerator="4" lspd_denominator="4" hold="0.5" ctlenvamt="0" att="0" x100="0" latt="0" dec="0.5" userwavefile="" lshp="0"/>
            <elres pdel="0" lamt="0" lspd="0.1" lspd_syncmode="0" rel="0.1" lpdel="0" amt="0" sustain="0.5" lspd_numerator="4" lspd_denominator="4" hold="0.5" ctlenvamt="0" att="0" x100="0" latt="0" dec="0.5" userwavefile="" lshp="0"/>
          </eldata>
          <chordcreator chord="0" chord-enabled="0" chordrange="1"/>
          <arpeggiator arptime_denominator="4" arprange="1" arp-enabled="0" arpcycle="0" arpgate="100" arpdir="0" arp="0" arptime="200" arpmode="0" arprepeats="1" arptime_syncmode="0" arptime_numerator="4" arpmiss="0" arpskip="0"/>
          <midiport outputchannel="1" inputcontroller="0" fixedoutputvelocity="-1" inputchannel="0" writable="0" outputprogram="1" inports="" fixedinputvelocity="-1" fixedoutputnote="-1" basevelocity="63" outputcontroller="0" readable="1"/>
          <fxchain enabled="0" numofeffects="0"/>
        </instrumenttrack>
        <pattern muted="0" steps="16" name="" type="1" pos="2304">
          <note vol="100" pan="0" pos="24" key="34" len="12"/>
          <note vol="100" pan="0" pos="72" key="34" len="12"/>
          <note vol="100" pan="0" pos="120" key="34" len="12"/>
          <note vol="100" pan="0" pos="156" key="34" len="12"/>
          <note vol="100" pan="0" pos="168" key="34" len="12"/>
        </pattern>
        <pattern muted="0" steps="16" name="" type="1" pos="2496">
          <note vol="100" pan="0" pos="24" key="34" len="12"/>
          <note vol="100" pan="0" pos="72" key="34" len="12"/>
          <note vol="100" pan="0" pos="120" key="34" len="12"/>
          <note vol="100" pan="0" pos="156" key="34" len="12"/>
          <note vol="100" pan="0" pos="168" key="34" len="12"/>
        </pattern>
        <pattern muted="0" steps="16" name="" type="1" pos="2688">
          <note vol="100" pan="0" pos="24" key="34" len="12"/>
          <note vol="100" pan="0" pos="72" key="34" len="12"/>
          <note vol="100" pan="0" pos="120" key="34" len="12"/>
          <note vol="100" pan="0" pos="156" key="34" len="12"/>
          <note vol="100" pan="0" pos="168" key="34" len="12"/>
        </pattern>
        <pattern muted="0" steps="16" name="" type="1" pos="2880">
          <note vol="100" pan="0" pos="24" key="34" len="12"/>
          <note vol="100" pan="0" pos="72" key="34" len="12"/>
          <note vol="100" pan="0" pos="120" key="34" len="12"/>
          <note vol="100" pan="0" pos="156" key="34" len="12"/>
          <note vol="100" pan="0" pos="168" key="34" len="12"/>
        </pattern>
        <pattern muted="0" steps="16" name="" type="1" pos="3072">
          <note vol="100" pan="0" pos="24" key="34" len="12"/>
          <note vol="100" pan="0" pos="72" key="34" len="12"/>
          <note vol="100" pan="0" pos="120" key="34" len="12"/>
          <note vol="100" pan="0" pos="156" key="34" len="12"/>
          <note vol="100" pan="0" pos="168" key="34" len="12"/>
        </pattern>
        <pattern muted="0" steps="16" name="" type="1" pos="3264">
          <note vol="100" pan="0" pos="24" key="34" len="12"/>
          <note vol="100" pan="0" pos="72" key="34" len="12"/>
          <note vol="100" pan="0" pos="120" key="34" len="12"/>
          <note vol="100" pan="0" pos="156" key="34" len="12"/>
          <note vol="100" pan="0" pos="168" key="34" len="12"/>
        </pattern>
        <pattern muted="0" steps="16" name="" type="1" pos="3456">
          <note vol="100" pan="0" pos="24" key="34" len="12"/>
          <note vol="100" pan="0" pos="72" key="34" len="12"/>
          <note vol="100" pan="0" pos="120" key="34" len="12"/>
          <note vol="100" pan="0" pos="156" key="34" len="12"/>
          <note vol="100" pan="0" pos="168" key="34" len="12"/>
        </pattern>
        <pattern muted="0" steps="16" name="" type="1" pos="3648">
          <note vol="100" pan="0" pos="24" key="34" len="12"/>
          <note vol="100" pan="0" pos="72" key="34" len="12"/>
          <note vol="100" pan="0" pos="120" key="34" len="12"/>
          <note vol="100" pan="0" pos="156" key="34" len="12"/>
          <note vol="100" pan="0" pos="168" key="34" len="12"/>
        </pattern>
        <pattern muted="0" steps="16" name="" type="1" pos="3840">
          <note vol="100" pan="0" pos="24" key="34" len="12"/>
          <note vol="100" pan="0" pos="72" key="34" len="12"/>
          <note vol="100" pan="0" pos="120" key="34" len="12"/>
          <note vol="100" pan="0" pos="156" key="34" len="12"/>
          <note vol="100" pan="0" pos="168" key="34" len="12"/>
        </pattern>
        <pattern muted="0" steps="16" name="" type="1" pos="4032">
          <note vol="100" pan="0" pos="24" key="34" len="12"/>
          <note vol="100" pan="0" pos="72" key="34" len="12"/>
          <note vol="100" pan="0" pos="120" key="34" len="12"/>
          <note vol="100" pan="0" pos="156" key="34" len="12"/>
          <note vol="100" pan="0" pos="168" key="34" len="12"/>
        </pattern>
        <pattern muted="0" steps="16" name="" type="1" pos="4224">
          <note vol="100" pan="0" pos="24" key="34" len="12"/>
          <note vol="100" pan="0" pos="72" key="34" len="12"/>
          <note vol="100" pan="0" pos="120" key="34" len="12"/>
          <note vol="100" pan="0" pos="156" key="34" len="12"/>
          <note vol="100" pan="0" pos="168" key="34" len="12"/>
        </pattern>
        <pattern muted="0" steps="16" name="" type="1" pos="4416">
          <note vol="100" pan="0" pos="24" key="34" len="12"/>
          <note vol="100" pan="0" pos="72" key="34" len="12"/>
          <note vol="100" pan="0" pos="120" key="34" len="12"/>
          <note vol="100" pan="0" pos="156" key="34" len="12"/>
          <note vol="100" pan="0" pos="168" key="34" len="12"/>
        </pattern>
        <pattern muted="0" steps="16" name="" type="1" pos="4608">
          <note vol="100" pan="0" pos="24" key="34" len="12"/>
          <note vol="100" pan="0" pos="72" key="34" len="12"/>
          <note vol="100" pan="0" pos="120" key="34" len="12"/>
          <note vol="100" pan="0" pos="156" key="34" len="12"/>
          <note vol="100" pan="0" pos="168" key="34" len="12"/>
        </pattern>
        <pattern muted="0" steps="16" name="" type="1" pos="4800">
          <note vol="100" pan="0" pos="24" key="34" len="12"/>
          <note vol="100" pan="0" pos="72" key="34" len="12"/>
          <note vol="100" pan="0" pos="120" key="34" len="12"/>
          <note vol="100" pan="0" pos="156" key="34" len="12"/>
          <note vol="100" pan="0" pos="168" key="34" len="12"/>
        </pattern>
        <pattern muted="0" steps="16" name="" type="1" pos="4992">
          <note vol="100" pan="0" pos="24" key="34" len="12"/>
          <note vol="100" pan="0" pos="72" key="34" len="12"/>
          <note vol="100" pan="0" pos="120" key="34" len="12"/>
          <note vol="100" pan="0" pos="156" key="34" len="12"/>
          <note vol="100" pan="0" pos="168" key="34" len="12"/>
        </pattern>
        <pattern muted="0" steps="16" name="" type="1" pos="5184">
          <note vol="100" pan="0" pos="24" key="34" len="12"/>
          <note vol="100" pan="0" pos="72" key="34" len="12"/>
          <note vol="100" pan="0" pos="120" key="34" len="12"/>
          <note vol="100" pan="0" pos="156" key="34" len="12"/>
          <note vol="100" pan="0" pos="168" key="34" len="12"/>
        </pattern>
        <pattern muted="0" steps="16" name="" type="1" pos="768">
          <note vol="100" pan="0" pos="24" key="34" len="12"/>
          <note vol="100" pan="0" pos="72" key="34" len="12"/>
          <note vol="100" pan="0" pos="120" key="34" len="12"/>
          <note vol="100" pan="0" pos="168" key="34" len="12"/>
        </pattern>
        <pattern muted="0" steps="16" name="" type="1" pos="960">
          <note vol="100" pan="0" pos="24" key="34" len="12"/>
          <note vol="100" pan="0" pos="72" key="34" len="12"/>
          <note vol="100" pan="0" pos="120" key="34" len="12"/>
          <note vol="100" pan="0" pos="168" key="34" len="12"/>
        </pattern>
        <pattern muted="0" steps="16" name="" type="1" pos="1152">
          <note vol="100" pan="0" pos="24" key="34" len="12"/>
          <note vol="100" pan="0" pos="72" key="34" len="12"/>
          <note vol="100" pan="0" pos="120" key="34" len="12"/>
          <note vol="100" pan="0" pos="168" key="34" len="12"/>
        </pattern>
        <pattern muted="0" steps="16" name="" type="1" pos="1344">
          <note vol="100" pan="0" pos="24" key="34" len="12"/>
          <note vol="100" pan="0" pos="72" key="34" len="12"/>
          <note vol="100" pan="0" pos="120" key="34" len="12"/>
          <note vol="100" pan="0" pos="168" key="34" len="12"/>
        </pattern>
        <pattern muted="0" steps="16" name="" type="1" pos="1536">
          <note vol="100" pan="0" pos="24" key="34" len="12"/>
          <note vol="100" pan="0" pos="72" key="34" len="12"/>
          <note vol="100" pan="0" pos="120" key="34" len="12"/>
          <note vol="100" pan="0" pos="168" key="34" len="12"/>
        </pattern>
        <pattern muted="0" steps="16" name="" type="1" pos="1728">
          <note vol="100" pan="0" pos="24" key="34" len="12"/>
          <note vol="100" pan="0" pos="72" key="34" len="12"/>
          <note vol="100" pan="0" pos="120" key="34" len="12"/>
          <note vol="100" pan="0" pos="168" key="34" len="12"/>
        </pattern>
        <pattern muted="0" steps="16" name="" type="1" pos="1920">
          <note vol="100" pan="0" pos="24" key="34" len="12"/>
          <note vol="100" pan="0" pos="72" key="34" len="12"/>
          <note vol="100" pan="0" pos="120" key="34" len="12"/>
          <note vol="100" pan="0" pos="168" key="34" len="12"/>
        </pattern>
        <pattern muted="0" steps="16" name="" type="1" pos="2112">
          <note vol="100" pan="0" pos="24" key="34" len="12"/>
          <note vol="100" pan="0" pos="72" key="34" len="12"/>
          <note vol="100" pan="0" pos="120" key="34" len="12"/>
          <note vol="100" pan="0" pos="168" key="34" len="12"/>
        </pattern>
      </track>
      <track muted="0" mutedBeforeSolo="0" name="SID>Bass" type="0" solo="0">
        <instrumenttrack pitch="0" vol="100.2" pitchrange="1" usemasterpitch="1" enablecc="0" pan="0" firstkey="0" lastkey="127" fxch="7" basenote="81">
          <midicontrollers cc51="0" cc52="0" cc103="0" cc44="0" cc35="0" cc85="0" cc104="0" cc6="0" cc77="0" cc56="0" cc112="0" cc11="0" cc30="0" cc88="0" cc99="0" cc58="0" cc73="0" cc78="0" cc113="0" cc100="0" cc126="0" cc1="0" cc127="0" cc84="0" cc115="0" cc18="0" cc54="0" cc27="0" cc68="0" cc14="0" cc45="0" cc21="0" cc13="0" cc0="0" cc75="0" cc91="0" cc70="0" cc36="0" cc5="0" cc19="0" cc66="0" cc25="0" cc38="0" cc65="0" cc109="0" cc92="0" cc3="0" cc43="0" cc110="0" cc81="0" cc111="0" cc61="0" cc86="0" cc49="0" cc50="0" cc7="0" cc107="0" cc22="0" cc93="0" cc79="0" cc10="0" cc39="0" cc98="0" cc59="0" cc62="0" cc63="0" cc74="0" cc15="0" cc41="0" cc16="0" cc120="0" cc83="0" cc108="0" cc9="0" cc53="0" cc71="0" cc124="0" cc80="0" cc87="0" cc106="0" cc2="0" cc48="0" cc123="0" cc57="0" cc114="0" cc122="0" cc116="0" cc8="0" cc55="0" cc17="0" cc12="0" cc4="0" cc47="0" cc23="0" cc82="0" cc46="0" cc121="0" cc105="0" cc60="0" cc76="0" cc125="0" cc31="0" cc37="0" cc20="0" cc102="0" cc89="0" cc64="0" cc69="0" cc90="0" cc33="0" cc94="0" cc34="0" cc67="0" cc72="0" cc40="0" cc95="0" cc117="0" cc32="0" cc101="0" cc26="0" cc97="0" cc118="0" cc42="0" cc29="0" cc96="0" cc119="0" cc24="0" cc28="0"/>
          <instrument name="sid">
            <sid decay2="5" sync0="0" chipModel="1" coarse0="12" ringmod1="0" pulsewidth0="2813" test1="0" release1="0" sustain2="15" ringmod0="0" filterResonance="0" waveform2="1" pulsewidth1="2670" voice3Off="0" attack2="0" decay0="1" waveform1="0" attack0="0" waveform0="2" release2="0" sustain0="0" sync2="0" volume="8" filtered2="0" attack1="0" release0="0" filterFC="827" filterMode="2" decay1="8" filtered1="0" filtered0="0" sustain1="8" test2="0" pulsewidth2="560" ringmod2="0" test0="0" coarse1="0" sync1="0" coarse2="-12">
              <key/>
            </sid>
          </instrument>
          <eldata fwet="0" fres="1.09" ftype="7" fcut="449">
            <elvol pdel="0" lamt="0" lspd="0.1" lspd_syncmode="0" rel="0.1" lpdel="0" amt="0" sustain="0.5" lspd_numerator="4" lspd_denominator="4" hold="0.5" ctlenvamt="0" att="0" x100="0" latt="0" dec="0.5" userwavefile="" lshp="0"/>
            <elcut pdel="0" lamt="0" lspd="0.1" lspd_syncmode="0" rel="0.1" lpdel="0" amt="0" sustain="0.5" lspd_numerator="4" lspd_denominator="4" hold="0.5" ctlenvamt="0" att="0" x100="0" latt="0" dec="0.5" userwavefile="" lshp="0"/>
            <elres pdel="0" lamt="0" lspd="0.1" lspd_syncmode="0" rel="0.1" lpdel="0" amt="0" sustain="0.5" lspd_numerator="4" lspd_denominator="4" hold="0.5" ctlenvamt="0" att="0" x100="0" latt="0" dec="0.5" userwavefile="" lshp="0"/>
          </eldata>
          <chordcreator chord="0" chord-enabled="0" chordrange="1"/>
          <arpeggiator arptime_denominator="4" arprange="1" arp-enabled="0" arpcycle="0" arpgate="100" arpdir="0" arp="0" arptime="136.364" arpmode="0" arprepeats="1" arptime_syncmode="6" arptime_numerator="4" arpmiss="0" arpskip="0"/>
          <midiport outputchannel="1" inputcontroller="0" fixedoutputvelocity="-1" inputchannel="0" writable="0" outputprogram="1" inports="" fixedinputvelocity="-1" fixedoutputnote="-1" basevelocity="63" outputcontroller="0" readable="1"/>
          <fxchain enabled="0" numofeffects="0"/>
        </instrumenttrack>
        <pattern muted="0" steps="16" name="" type="1" pos="2304">
          <note vol="100" pan="0" pos="0" key="54" len="12"/>
          <note vol="100" pan="0" pos="60" key="54" len="12"/>
          <note vol="100" pan="0" pos="120" key="54" len="12"/>
          <note vol="100" pan="0" pos="180" key="54" len="12"/>
          <note vol="100" pan="0" pos="192" key="52" len="12"/>
          <note vol="100" pan="0" pos="252" key="52" len="12"/>
          <note vol="100" pan="0" pos="312" key="52" len="12"/>
          <note vol="100" pan="0" pos="372" key="52" len="12"/>
          <note vol="100" pan="0" pos="384" key="54" len="12"/>
          <note vol="100" pan="0" pos="444" key="54" len="12"/>
          <note vol="100" pan="0" pos="504" key="54" len="12"/>
          <note vol="100" pan="0" pos="564" key="54" len="12"/>
          <note vol="100" pan="0" pos="576" key="52" len="12"/>
          <note vol="100" pan="0" pos="636" key="52" len="12"/>
          <note vol="100" pan="0" pos="696" key="52" len="12"/>
          <note vol="100" pan="0" pos="756" key="52" len="12"/>
          <note vol="100" pan="0" pos="768" key="50" len="12"/>
          <note vol="100" pan="0" pos="828" key="50" len="12"/>
          <note vol="100" pan="0" pos="888" key="50" len="12"/>
          <note vol="100" pan="0" pos="948" key="50" len="12"/>
          <note vol="100" pan="0" pos="960" key="45" len="12"/>
          <note vol="100" pan="0" pos="1020" key="45" len="12"/>
          <note vol="100" pan="0" pos="1080" key="53" len="12"/>
          <note vol="100" pan="0" pos="1140" key="53" len="12"/>
          <note vol="100" pan="0" pos="1152" key="49" len="12"/>
          <note vol="100" pan="0" pos="1212" key="49" len="12"/>
          <note vol="100" pan="0" pos="1272" key="49" len="12"/>
          <note vol="100" pan="0" pos="1332" key="49" len="12"/>
          <note vol="100" pan="0" pos="1344" key="54" len="12"/>
          <note vol="100" pan="0" pos="1404" key="54" len="12"/>
          <note vol="100" pan="0" pos="1464" key="54" len="12"/>
          <note vol="100" pan="0" pos="1524" key="52" len="12"/>
          <note vol="100" pan="0" pos="1536" key="50" len="12"/>
          <note vol="100" pan="0" pos="1596" key="50" len="12"/>
          <note vol="100" pan="0" pos="1656" key="50" len="12"/>
          <note vol="100" pan="0" pos="1716" key="50" len="12"/>
          <note vol="100" pan="0" pos="1728" key="49" len="12"/>
          <note vol="100" pan="0" pos="1788" key="49" len="12"/>
          <note vol="100" pan="0" pos="1848" key="49" len="12"/>
          <note vol="100" pan="0" pos="1908" key="49" len="12"/>
          <note vol="100" pan="0" pos="1920" key="45" len="12"/>
          <note vol="100" pan="0" pos="1980" key="45" len="12"/>
          <note vol="100" pan="0" pos="2040" key="45" len="12"/>
          <note vol="100" pan="0" pos="2100" key="45" len="12"/>
          <note vol="100" pan="0" pos="2112" key="42" len="12"/>
          <note vol="100" pan="0" pos="2172" key="42" len="12"/>
          <note vol="100" pan="0" pos="2232" key="42" len="12"/>
          <note vol="100" pan="0" pos="2292" key="44" len="12"/>
          <note vol="100" pan="0" pos="2304" key="45" len="12"/>
          <note vol="100" pan="0" pos="2364" key="45" len="12"/>
          <note vol="100" pan="0" pos="2424" key="45" len="12"/>
          <note vol="100" pan="0" pos="2484" key="45" len="12"/>
          <note vol="100" pan="0" pos="2496" key="49" len="12"/>
          <note vol="100" pan="0" pos="2556" key="49" len="12"/>
          <note vol="100" pan="0" pos="2616" key="49" len="12"/>
          <note vol="100" pan="0" pos="2676" key="49" len="12"/>
          <note vol="100" pan="0" pos="2688" key="54" len="12"/>
          <note vol="100" pan="0" pos="2748" key="54" len="12"/>
          <note vol="100" pan="0" pos="2808" key="54" len="12"/>
          <note vol="100" pan="0" pos="2868" key="54" len="12"/>
          <note vol="100" pan="0" pos="2880" key="42" len="12"/>
          <note vol="100" pan="0" pos="2940" key="42" len="12"/>
          <note vol="100" pan="0" pos="3000" key="42" len="12"/>
          <note vol="100" pan="0" pos="3060" key="42" len="12"/>
        </pattern>
        <pattern muted="0" steps="16" name="" type="1" pos="768">
          <note vol="100" pan="0" pos="0" key="50" len="12"/>
          <note vol="100" pan="0" pos="60" key="50" len="12"/>
          <note vol="100" pan="0" pos="120" key="50" len="12"/>
          <note vol="100" pan="0" pos="180" key="50" len="12"/>
        </pattern>
        <pattern muted="0" steps="16" name="" type="1" pos="960">
          <note vol="100" pan="0" pos="0" key="52" len="12"/>
          <note vol="100" pan="0" pos="60" key="52" len="12"/>
          <note vol="100" pan="0" pos="120" key="52" len="12"/>
          <note vol="100" pan="0" pos="180" key="52" len="12"/>
        </pattern>
        <pattern muted="0" steps="16" name="" type="1" pos="1152">
          <note vol="100" pan="0" pos="0" key="48" len="12"/>
          <note vol="100" pan="0" pos="60" key="48" len="12"/>
          <note vol="100" pan="0" pos="120" key="48" len="12"/>
          <note vol="100" pan="0" pos="180" key="48" len="12"/>
        </pattern>
        <pattern muted="0" steps="16" name="" type="1" pos="1344">
          <note vol="100" pan="0" pos="0" key="50" len="12"/>
          <note vol="100" pan="0" pos="60" key="55" len="12"/>
          <note vol="100" pan="0" pos="96" key="52" len="12"/>
          <note vol="100" pan="0" pos="156" key="52" len="12"/>
        </pattern>
        <pattern muted="0" steps="16" name="" type="1" pos="0">
          <note vol="100" pan="0" pos="0" key="50" len="12"/>
          <note vol="100" pan="0" pos="60" key="50" len="12"/>
          <note vol="100" pan="0" pos="120" key="50" len="12"/>
          <note vol="100" pan="0" pos="180" key="50" len="12"/>
        </pattern>
        <pattern muted="0" steps="16" name="" type="1" pos="192">
          <note vol="100" pan="0" pos="0" key="52" len="12"/>
          <note vol="100" pan="0" pos="60" key="52" len="12"/>
          <note vol="100" pan="0" pos="120" key="52" len="12"/>
          <note vol="100" pan="0" pos="180" key="52" len="12"/>
        </pattern>
        <pattern muted="0" steps="16" name="" type="1" pos="384">
          <note vol="100" pan="0" pos="0" key="57" len="12"/>
          <note vol="100" pan="0" pos="60" key="57" len="12"/>
          <note vol="100" pan="0" pos="120" key="57" len="12"/>
          <note vol="100" pan="0" pos="180" key="57" len="12"/>
        </pattern>
        <pattern muted="0" steps="16" name="" type="1" pos="576">
          <note vol="100" pan="0" pos="0" key="50" len="12"/>
          <note vol="100" pan="0" pos="60" key="53" len="12"/>
          <note vol="100" pan="0" pos="120" key="52" len="12"/>
          <note vol="100" pan="0" pos="180" key="52" len="12"/>
        </pattern>
      </track>
      <track muted="0" mutedBeforeSolo="0" name="SID>Pop" type="0" solo="0">
        <instrumenttrack pitch="0" vol="100" pitchrange="1" usemasterpitch="1" enablecc="0" pan="0" firstkey="0" lastkey="127" fxch="4" basenote="81">
          <midicontrollers cc51="0" cc52="0" cc103="0" cc44="0" cc35="0" cc85="0" cc104="0" cc6="0" cc77="0" cc56="0" cc112="0" cc11="0" cc30="0" cc88="0" cc99="0" cc58="0" cc73="0" cc78="0" cc113="0" cc100="0" cc126="0" cc1="0" cc127="0" cc84="0" cc115="0" cc18="0" cc54="0" cc27="0" cc68="0" cc14="0" cc45="0" cc21="0" cc13="0" cc0="0" cc75="0" cc91="0" cc70="0" cc36="0" cc5="0" cc19="0" cc66="0" cc25="0" cc38="0" cc65="0" cc109="0" cc92="0" cc3="0" cc43="0" cc110="0" cc81="0" cc111="0" cc61="0" cc86="0" cc49="0" cc50="0" cc7="0" cc107="0" cc22="0" cc93="0" cc79="0" cc10="0" cc39="0" cc98="0" cc59="0" cc62="0" cc63="0" cc74="0" cc15="0" cc41="0" cc16="0" cc120="0" cc83="0" cc108="0" cc9="0" cc53="0" cc71="0" cc124="0" cc80="0" cc87="0" cc106="0" cc2="0" cc48="0" cc123="0" cc57="0" cc114="0" cc122="0" cc116="0" cc8="0" cc55="0" cc17="0" cc12="0" cc4="0" cc47="0" cc23="0" cc82="0" cc46="0" cc121="0" cc105="0" cc60="0" cc76="0" cc125="0" cc31="0" cc37="0" cc20="0" cc102="0" cc89="0" cc64="0" cc69="0" cc90="0" cc33="0" cc94="0" cc34="0" cc67="0" cc72="0" cc40="0" cc95="0" cc117="0" cc32="0" cc101="0" cc26="0" cc97="0" cc118="0" cc42="0" cc29="0" cc96="0" cc119="0" cc24="0" cc28="0"/>
          <instrument name="sid">
            <sid decay2="0" sync0="0" chipModel="1" coarse0="0" ringmod1="0" pulsewidth0="2813" test1="0" release1="0" sustain2="0" ringmod0="0" filterResonance="6" waveform2="1" pulsewidth1="2192" voice3Off="1" attack2="0" decay0="1" waveform1="0" attack0="0" waveform0="2" release2="0" sustain0="0" sync2="0" volume="8" filtered2="0" attack1="0" release0="0" filterFC="743" filterMode="2" decay1="8" filtered1="0" filtered0="0" sustain1="0" test2="0" pulsewidth2="0" ringmod2="0" test0="0" coarse1="0" sync1="0" coarse2="-24">
              <key/>
            </sid>
          </instrument>
          <eldata fwet="0" fres="2.1" ftype="0" fcut="897">
            <elvol pdel="0" lamt="0" lspd="0.1" lspd_syncmode="0" rel="0.1" lpdel="0" amt="0" sustain="0.5" lspd_numerator="4" lspd_denominator="4" hold="0.5" ctlenvamt="0" att="0" x100="0" latt="0" dec="0.5" userwavefile="" lshp="0"/>
            <elcut pdel="0" lamt="0" lspd="0.1" lspd_syncmode="0" rel="0.1" lpdel="0" amt="0" sustain="0.5" lspd_numerator="4" lspd_denominator="4" hold="0.5" ctlenvamt="0" att="0" x100="0" latt="0" dec="0.5" userwavefile="" lshp="0"/>
            <elres pdel="0" lamt="0" lspd="0.1" lspd_syncmode="0" rel="0.1" lpdel="0" amt="0" sustain="0.5" lspd_numerator="4" lspd_denominator="4" hold="0.5" ctlenvamt="0" att="0" x100="0" latt="0" dec="0.5" userwavefile="" lshp="0"/>
          </eldata>
          <chordcreator chord="0" chord-enabled="0" chordrange="1"/>
          <arpeggiator arptime_denominator="4" arprange="1" arp-enabled="0" arpcycle="0" arpgate="100" arpdir="0" arp="0" arptime="136.364" arpmode="0" arprepeats="1" arptime_syncmode="6" arptime_numerator="4" arpmiss="0" arpskip="0"/>
          <midiport outputchannel="1" inputcontroller="0" fixedoutputvelocity="-1" inputchannel="0" writable="0" outputprogram="1" inports="" fixedinputvelocity="-1" fixedoutputnote="-1" basevelocity="63" outputcontroller="0" readable="1"/>
          <fxchain enabled="0" numofeffects="0"/>
        </instrumenttrack>
        <pattern muted="0" steps="16" name="" type="1" pos="2304">
          <note vol="100" pan="0" pos="12" key="76" len="12"/>
          <note vol="100" pan="0" pos="24" key="78" len="12"/>
          <note vol="100" pan="0" pos="36" key="81" len="12"/>
          <note vol="100" pan="0" pos="48" key="85" len="12"/>
          <note vol="100" pan="0" pos="72" key="76" len="12"/>
          <note vol="100" pan="0" pos="84" key="78" len="12"/>
          <note vol="100" pan="0" pos="96" key="81" len="12"/>
          <note vol="100" pan="0" pos="108" key="85" len="12"/>
          <note vol="100" pan="0" pos="132" key="76" len="12"/>
          <note vol="100" pan="0" pos="144" key="78" len="12"/>
          <note vol="100" pan="0" pos="156" key="81" len="12"/>
          <note vol="100" pan="0" pos="168" key="85" len="12"/>
          <note vol="100" pan="0" pos="204" key="80" len="12"/>
          <note vol="100" pan="0" pos="216" key="83" len="12"/>
          <note vol="100" pan="0" pos="228" key="85" len="12"/>
          <note vol="100" pan="0" pos="240" key="88" len="12"/>
          <note vol="100" pan="0" pos="264" key="80" len="12"/>
          <note vol="100" pan="0" pos="276" key="83" len="12"/>
          <note vol="100" pan="0" pos="288" key="85" len="12"/>
          <note vol="100" pan="0" pos="300" key="88" len="12"/>
          <note vol="100" pan="0" pos="324" key="80" len="12"/>
          <note vol="100" pan="0" pos="336" key="83" len="12"/>
          <note vol="100" pan="0" pos="348" key="85" len="12"/>
          <note vol="100" pan="0" pos="360" key="88" len="12"/>
          <note vol="100" pan="0" pos="396" key="81" len="12"/>
          <note vol="100" pan="0" pos="408" key="85" len="12"/>
          <note vol="100" pan="0" pos="420" key="88" len="12"/>
          <note vol="100" pan="0" pos="432" key="90" len="12"/>
          <note vol="100" pan="0" pos="456" key="81" len="12"/>
          <note vol="100" pan="0" pos="468" key="85" len="12"/>
          <note vol="100" pan="0" pos="480" key="88" len="12"/>
          <note vol="100" pan="0" pos="492" key="90" len="12"/>
          <note vol="100" pan="0" pos="516" key="81" len="12"/>
          <note vol="100" pan="0" pos="528" key="85" len="12"/>
          <note vol="100" pan="0" pos="540" key="88" len="12"/>
          <note vol="100" pan="0" pos="552" key="90" len="12"/>
          <note vol="100" pan="0" pos="588" key="80" len="12"/>
          <note vol="100" pan="0" pos="600" key="82" len="12"/>
          <note vol="100" pan="0" pos="612" key="85" len="12"/>
          <note vol="100" pan="0" pos="624" key="88" len="12"/>
          <note vol="100" pan="0" pos="648" key="80" len="12"/>
          <note vol="100" pan="0" pos="660" key="82" len="12"/>
          <note vol="100" pan="0" pos="672" key="85" len="12"/>
          <note vol="100" pan="0" pos="684" key="88" len="12"/>
          <note vol="100" pan="0" pos="708" key="80" len="12"/>
          <note vol="100" pan="0" pos="720" key="82" len="12"/>
          <note vol="100" pan="0" pos="732" key="85" len="12"/>
          <note vol="100" pan="0" pos="744" key="88" len="12"/>
          <note vol="100" pan="0" pos="780" key="78" len="12"/>
          <note vol="100" pan="0" pos="792" key="81" len="12"/>
          <note vol="100" pan="0" pos="804" key="84" len="12"/>
          <note vol="100" pan="0" pos="816" key="86" len="12"/>
          <note vol="100" pan="0" pos="840" key="78" len="12"/>
          <note vol="100" pan="0" pos="852" key="81" len="12"/>
          <note vol="100" pan="0" pos="864" key="84" len="12"/>
          <note vol="100" pan="0" pos="876" key="86" len="12"/>
          <note vol="100" pan="0" pos="900" key="78" len="12"/>
          <note vol="100" pan="0" pos="912" key="81" len="12"/>
          <note vol="100" pan="0" pos="924" key="84" len="12"/>
          <note vol="100" pan="0" pos="936" key="86" len="12"/>
          <note vol="100" pan="0" pos="972" key="77" len="12"/>
          <note vol="100" pan="0" pos="984" key="81" len="12"/>
          <note vol="100" pan="0" pos="996" key="84" len="12"/>
          <note vol="100" pan="0" pos="1008" key="86" len="12"/>
          <note vol="100" pan="0" pos="1032" key="77" len="12"/>
          <note vol="100" pan="0" pos="1044" key="81" len="12"/>
          <note vol="100" pan="0" pos="1056" key="84" len="12"/>
          <note vol="100" pan="0" pos="1068" key="86" len="12"/>
          <note vol="100" pan="0" pos="1092" key="77" len="12"/>
          <note vol="100" pan="0" pos="1104" key="81" len="12"/>
          <note vol="100" pan="0" pos="1116" key="84" len="12"/>
          <note vol="100" pan="0" pos="1128" key="86" len="12"/>
          <note vol="100" pan="0" pos="1164" key="76" len="12"/>
          <note vol="100" pan="0" pos="1176" key="80" len="12"/>
          <note vol="100" pan="0" pos="1188" key="83" len="12"/>
          <note vol="100" pan="0" pos="1200" key="85" len="12"/>
          <note vol="100" pan="0" pos="1224" key="76" len="12"/>
          <note vol="100" pan="0" pos="1236" key="80" len="12"/>
          <note vol="100" pan="0" pos="1248" key="83" len="12"/>
          <note vol="100" pan="0" pos="1260" key="85" len="12"/>
          <note vol="100" pan="0" pos="1284" key="76" len="12"/>
          <note vol="100" pan="0" pos="1296" key="80" len="12"/>
          <note vol="100" pan="0" pos="1308" key="83" len="12"/>
          <note vol="100" pan="0" pos="1320" key="85" len="12"/>
          <note vol="100" pan="0" pos="1356" key="82" len="12"/>
          <note vol="100" pan="0" pos="1368" key="85" len="12"/>
          <note vol="100" pan="0" pos="1380" key="88" len="12"/>
          <note vol="100" pan="0" pos="1392" key="90" len="12"/>
          <note vol="100" pan="0" pos="1416" key="82" len="12"/>
          <note vol="100" pan="0" pos="1428" key="85" len="12"/>
          <note vol="100" pan="0" pos="1440" key="88" len="12"/>
          <note vol="100" pan="0" pos="1452" key="90" len="12"/>
          <note vol="100" pan="0" pos="1476" key="82" len="12"/>
          <note vol="100" pan="0" pos="1488" key="88" len="12"/>
          <note vol="100" pan="0" pos="1500" key="85" len="12"/>
          <note vol="100" pan="0" pos="1512" key="90" len="12"/>
          <note vol="100" pan="0" pos="1548" key="81" len="12"/>
          <note vol="100" pan="0" pos="1560" key="83" len="12"/>
          <note vol="100" pan="0" pos="1572" key="86" len="12"/>
          <note vol="100" pan="0" pos="1584" key="90" len="12"/>
          <note vol="100" pan="0" pos="1608" key="81" len="12"/>
          <note vol="100" pan="0" pos="1620" key="83" len="12"/>
          <note vol="100" pan="0" pos="1632" key="86" len="12"/>
          <note vol="100" pan="0" pos="1644" key="90" len="12"/>
          <note vol="100" pan="0" pos="1668" key="81" len="12"/>
          <note vol="100" pan="0" pos="1680" key="83" len="12"/>
          <note vol="100" pan="0" pos="1692" key="86" len="12"/>
          <note vol="100" pan="0" pos="1704" key="90" len="12"/>
          <note vol="100" pan="0" pos="1740" key="80" len="12"/>
          <note vol="100" pan="0" pos="1752" key="82" len="12"/>
          <note vol="100" pan="0" pos="1764" key="85" len="12"/>
          <note vol="100" pan="0" pos="1776" key="88" len="12"/>
          <note vol="100" pan="0" pos="1800" key="80" len="12"/>
          <note vol="100" pan="0" pos="1812" key="82" len="12"/>
          <note vol="100" pan="0" pos="1824" key="85" len="12"/>
          <note vol="100" pan="0" pos="1836" key="88" len="12"/>
          <note vol="100" pan="0" pos="1860" key="80" len="12"/>
          <note vol="100" pan="0" pos="1872" key="82" len="12"/>
          <note vol="100" pan="0" pos="1884" key="85" len="12"/>
          <note vol="100" pan="0" pos="1896" key="88" len="12"/>
          <note vol="100" pan="0" pos="1932" key="78" len="12"/>
          <note vol="100" pan="0" pos="1944" key="81" len="12"/>
          <note vol="100" pan="0" pos="1956" key="85" len="12"/>
          <note vol="100" pan="0" pos="1968" key="88" len="12"/>
          <note vol="100" pan="0" pos="1992" key="78" len="12"/>
          <note vol="100" pan="0" pos="2004" key="81" len="12"/>
          <note vol="100" pan="0" pos="2016" key="85" len="12"/>
          <note vol="100" pan="0" pos="2028" key="88" len="12"/>
          <note vol="100" pan="0" pos="2052" key="78" len="12"/>
          <note vol="100" pan="0" pos="2064" key="81" len="12"/>
          <note vol="100" pan="0" pos="2076" key="85" len="12"/>
          <note vol="100" pan="0" pos="2088" key="88" len="12"/>
          <note vol="100" pan="0" pos="2124" key="78" len="12"/>
          <note vol="100" pan="0" pos="2136" key="81" len="12"/>
          <note vol="100" pan="0" pos="2148" key="83" len="12"/>
          <note vol="100" pan="0" pos="2160" key="85" len="12"/>
          <note vol="100" pan="0" pos="2184" key="78" len="12"/>
          <note vol="100" pan="0" pos="2196" key="81" len="12"/>
          <note vol="100" pan="0" pos="2208" key="83" len="12"/>
          <note vol="100" pan="0" pos="2220" key="85" len="12"/>
          <note vol="100" pan="0" pos="2244" key="76" len="12"/>
          <note vol="100" pan="0" pos="2256" key="80" len="12"/>
          <note vol="100" pan="0" pos="2268" key="81" len="12"/>
          <note vol="100" pan="0" pos="2280" key="83" len="12"/>
          <note vol="100" pan="0" pos="2316" key="76" len="12"/>
          <note vol="100" pan="0" pos="2328" key="81" len="12"/>
          <note vol="100" pan="0" pos="2340" key="83" len="12"/>
          <note vol="100" pan="0" pos="2352" key="85" len="12"/>
          <note vol="100" pan="0" pos="2376" key="76" len="12"/>
          <note vol="100" pan="0" pos="2388" key="81" len="12"/>
          <note vol="100" pan="0" pos="2400" key="83" len="12"/>
          <note vol="100" pan="0" pos="2412" key="85" len="12"/>
          <note vol="100" pan="0" pos="2436" key="76" len="12"/>
          <note vol="100" pan="0" pos="2448" key="81" len="12"/>
          <note vol="100" pan="0" pos="2460" key="83" len="12"/>
          <note vol="100" pan="0" pos="2472" key="85" len="12"/>
          <note vol="100" pan="0" pos="2508" key="80" len="12"/>
          <note vol="100" pan="0" pos="2520" key="83" len="12"/>
          <note vol="100" pan="0" pos="2532" key="85" len="12"/>
          <note vol="100" pan="0" pos="2544" key="88" len="12"/>
          <note vol="100" pan="0" pos="2568" key="80" len="12"/>
          <note vol="100" pan="0" pos="2580" key="83" len="12"/>
          <note vol="100" pan="0" pos="2592" key="85" len="12"/>
          <note vol="100" pan="0" pos="2604" key="88" len="12"/>
          <note vol="100" pan="0" pos="2628" key="80" len="12"/>
          <note vol="100" pan="0" pos="2640" key="83" len="12"/>
          <note vol="100" pan="0" pos="2652" key="85" len="12"/>
          <note vol="100" pan="0" pos="2664" key="88" len="12"/>
          <note vol="100" pan="0" pos="2700" key="81" len="12"/>
          <note vol="100" pan="0" pos="2712" key="85" len="12"/>
          <note vol="100" pan="0" pos="2724" key="88" len="12"/>
          <note vol="100" pan="0" pos="2736" key="90" len="12"/>
          <note vol="100" pan="0" pos="2760" key="81" len="12"/>
          <note vol="100" pan="0" pos="2772" key="85" len="12"/>
          <note vol="100" pan="0" pos="2784" key="88" len="12"/>
          <note vol="100" pan="0" pos="2796" key="90" len="12"/>
          <note vol="100" pan="0" pos="2820" key="81" len="12"/>
          <note vol="100" pan="0" pos="2832" key="85" len="12"/>
          <note vol="100" pan="0" pos="2844" key="88" len="12"/>
          <note vol="100" pan="0" pos="2856" key="90" len="12"/>
          <note vol="100" pan="0" pos="2892" key="78" len="12"/>
          <note vol="100" pan="0" pos="2904" key="81" len="12"/>
          <note vol="100" pan="0" pos="2916" key="83" len="12"/>
          <note vol="100" pan="0" pos="2928" key="88" len="12"/>
          <note vol="100" pan="0" pos="2952" key="78" len="12"/>
          <note vol="100" pan="0" pos="2964" key="81" len="12"/>
          <note vol="100" pan="0" pos="2976" key="83" len="12"/>
          <note vol="100" pan="0" pos="2988" key="88" len="12"/>
          <note vol="100" pan="0" pos="3012" key="78" len="12"/>
          <note vol="100" pan="0" pos="3024" key="81" len="12"/>
          <note vol="100" pan="0" pos="3036" key="83" len="12"/>
          <note vol="100" pan="0" pos="3048" key="88" len="12"/>
        </pattern>
        <pattern muted="0" steps="16" name="" type="1" pos="768">
          <note vol="100" pan="0" pos="12" key="69" len="12"/>
          <note vol="100" pan="0" pos="24" key="74" len="12"/>
          <note vol="100" pan="0" pos="36" key="77" len="12"/>
          <note vol="100" pan="0" pos="48" key="81" len="12"/>
        </pattern>
        <pattern muted="0" steps="16" name="" type="1" pos="960">
          <note vol="100" pan="0" pos="12" key="76" len="12"/>
          <note vol="100" pan="0" pos="24" key="80" len="12"/>
          <note vol="100" pan="0" pos="36" key="83" len="12"/>
          <note vol="100" pan="0" pos="48" key="88" len="12"/>
        </pattern>
        <pattern muted="0" steps="16" name="" type="1" pos="1152">
          <note vol="100" pan="0" pos="12" key="76" len="12"/>
          <note vol="100" pan="0" pos="24" key="81" len="12"/>
          <note vol="100" pan="0" pos="36" key="84" len="12"/>
          <note vol="100" pan="0" pos="48" key="88" len="12"/>
        </pattern>
        <pattern muted="0" steps="16" name="" type="1" pos="1344">
          <note vol="100" pan="0" pos="12" key="74" len="12"/>
          <note vol="100" pan="0" pos="24" key="77" len="12"/>
          <note vol="100" pan="0" pos="36" key="81" len="12"/>
          <note vol="100" pan="0" pos="48" key="86" len="12"/>
          <note vol="100" pan="0" pos="60" key="93" len="12"/>
          <note vol="100" pan="0" pos="72" key="91" len="12"/>
          <note vol="100" pan="0" pos="84" key="88" len="12"/>
          <note vol="100" pan="0" pos="96" key="76" len="12"/>
          <note vol="100" pan="0" pos="108" key="80" len="12"/>
          <note vol="100" pan="0" pos="120" key="83" len="12"/>
          <note vol="100" pan="0" pos="132" key="88" len="12"/>
          <note vol="100" pan="0" pos="144" key="95" len="12"/>
          <note vol="100" pan="0" pos="156" key="93" len="12"/>
          <note vol="100" pan="0" pos="168" key="92" len="12"/>
          <note vol="100" pan="0" pos="180" key="88" len="12"/>
        </pattern>
        <pattern muted="0" steps="16" name="" type="1" pos="0">
          <note vol="100" pan="0" pos="12" key="69" len="12"/>
          <note vol="100" pan="0" pos="24" key="74" len="12"/>
          <note vol="100" pan="0" pos="36" key="77" len="12"/>
          <note vol="100" pan="0" pos="48" key="81" len="12"/>
        </pattern>
        <pattern muted="0" steps="16" name="" type="1" pos="192">
          <note vol="100" pan="0" pos="12" key="76" len="12"/>
          <note vol="100" pan="0" pos="24" key="80" len="12"/>
          <note vol="100" pan="0" pos="36" key="83" len="12"/>
          <note vol="100" pan="0" pos="48" key="88" len="12"/>
        </pattern>
        <pattern muted="0" steps="16" name="" type="1" pos="384">
          <note vol="100" pan="0" pos="12" key="76" len="12"/>
          <note vol="100" pan="0" pos="24" key="81" len="12"/>
          <note vol="100" pan="0" pos="36" key="84" len="12"/>
          <note vol="100" pan="0" pos="48" key="88" len="12"/>
        </pattern>
        <pattern muted="0" steps="16" name="" type="1" pos="576">
          <note vol="100" pan="0" pos="12" key="74" len="12"/>
          <note vol="100" pan="0" pos="24" key="77" len="12"/>
          <note vol="100" pan="0" pos="36" key="81" len="12"/>
          <note vol="100" pan="0" pos="48" key="86" len="12"/>
          <note vol="100" pan="0" pos="96" key="76" len="12"/>
          <note vol="100" pan="0" pos="108" key="80" len="12"/>
          <note vol="100" pan="0" pos="120" key="83" len="12"/>
          <note vol="100" pan="0" pos="132" key="88" len="12"/>
        </pattern>
        <pattern muted="0" steps="16" name="" type="1" pos="1536">
          <note vol="100" pan="0" pos="0" key="95" len="12"/>
          <note vol="100" pan="0" pos="12" key="93" len="12"/>
          <note vol="100" pan="0" pos="24" key="92" len="12"/>
          <note vol="100" pan="0" pos="36" key="88" len="12"/>
          <note vol="100" pan="0" pos="48" key="95" len="12"/>
          <note vol="100" pan="0" pos="60" key="93" len="12"/>
          <note vol="100" pan="0" pos="72" key="92" len="12"/>
          <note vol="100" pan="0" pos="84" key="88" len="12"/>
          <note vol="100" pan="0" pos="96" key="95" len="12"/>
          <note vol="100" pan="0" pos="108" key="93" len="12"/>
          <note vol="100" pan="0" pos="120" key="92" len="12"/>
          <note vol="100" pan="0" pos="132" key="88" len="12"/>
          <note vol="100" pan="0" pos="144" key="95" len="12"/>
          <note vol="100" pan="0" pos="156" key="93" len="12"/>
          <note vol="100" pan="0" pos="168" key="92" len="12"/>
          <note vol="100" pan="0" pos="180" key="88" len="12"/>
        </pattern>
        <pattern muted="0" steps="16" name="" type="1" pos="1728">
          <note vol="100" pan="0" pos="0" key="95" len="12"/>
          <note vol="100" pan="0" pos="12" key="93" len="12"/>
          <note vol="100" pan="0" pos="24" key="92" len="12"/>
          <note vol="100" pan="0" pos="36" key="88" len="12"/>
          <note vol="100" pan="0" pos="48" key="95" len="12"/>
          <note vol="100" pan="0" pos="60" key="92" len="12"/>
          <note vol="100" pan="0" pos="72" key="91" len="12"/>
          <note vol="100" pan="0" pos="84" key="88" len="12"/>
          <note vol="100" pan="0" pos="96" key="95" len="12"/>
          <note vol="100" pan="0" pos="108" key="91" len="12"/>
          <note vol="100" pan="0" pos="120" key="90" len="12"/>
          <note vol="100" pan="0" pos="132" key="88" len="12"/>
          <note vol="100" pan="0" pos="144" key="95" len="12"/>
          <note vol="100" pan="0" pos="156" key="90" len="12"/>
          <note vol="100" pan="0" pos="168" key="88" len="12"/>
          <note vol="100" pan="0" pos="180" key="86" len="12"/>
        </pattern>
        <pattern muted="0" steps="16" name="" type="1" pos="1920">
          <note vol="100" pan="0" pos="0" key="95" len="12"/>
          <note vol="100" pan="0" pos="12" key="93" len="12"/>
          <note vol="100" pan="0" pos="24" key="92" len="12"/>
          <note vol="100" pan="0" pos="36" key="88" len="12"/>
          <note vol="100" pan="0" pos="48" key="95" len="12"/>
          <note vol="100" pan="0" pos="60" key="93" len="12"/>
          <note vol="100" pan="0" pos="72" key="91" len="12"/>
          <note vol="100" pan="0" pos="84" key="88" len="12"/>
          <note vol="100" pan="0" pos="96" key="95" len="12"/>
          <note vol="100" pan="0" pos="108" key="91" len="12"/>
          <note vol="100" pan="0" pos="120" key="90" len="12"/>
          <note vol="100" pan="0" pos="132" key="88" len="12"/>
          <note vol="100" pan="0" pos="144" key="95" len="12"/>
          <note vol="100" pan="0" pos="156" key="90" len="12"/>
          <note vol="100" pan="0" pos="168" key="88" len="12"/>
          <note vol="100" pan="0" pos="180" key="86" len="12"/>
        </pattern>
        <pattern muted="0" steps="16" name="" type="1" pos="2112">
          <note vol="100" pan="0" pos="0" key="88" len="12"/>
          <note vol="100" pan="0" pos="12" key="88" len="12"/>
          <note vol="100" pan="0" pos="24" key="81" len="12"/>
          <note vol="100" pan="0" pos="36" key="81" len="12"/>
          <note vol="100" pan="0" pos="48" key="88" len="12"/>
          <note vol="100" pan="0" pos="60" key="88" len="12"/>
          <note vol="100" pan="0" pos="72" key="76" len="12"/>
          <note vol="100" pan="0" pos="84" key="76" len="12"/>
          <note vol="100" pan="0" pos="96" key="88" len="12"/>
          <note vol="100" pan="0" pos="108" key="88" len="12"/>
          <note vol="100" pan="0" pos="120" key="81" len="12"/>
          <note vol="100" pan="0" pos="132" key="81" len="12"/>
          <note vol="100" pan="0" pos="144" key="88" len="12"/>
          <note vol="100" pan="0" pos="156" key="88" len="12"/>
          <note vol="100" pan="0" pos="168" key="76" len="12"/>
          <note vol="100" pan="0" pos="180" key="76" len="12"/>
        </pattern>
      </track>
      <track muted="0" mutedBeforeSolo="0" name="SID>Pop>SendTo>Delay" type="5" solo="0">
        <automationtrack/>
        <automationpattern prog="0" name="Amount to send from channel 4 to channel 6" pos="768" mute="0" len="192" tens="1">
          <time pos="0" value="1" outValue="1"/>
          <object id="5309"/>
        </automationpattern>
        <automationpattern prog="0" name="Amount to send from channel 4 to channel 6" pos="0" mute="0" len="192" tens="1">
          <time pos="0" value="0" outValue="0"/>
          <object id="5309"/>
        </automationpattern>
      </track>
      <track muted="0" mutedBeforeSolo="0" name="SID>Delay>Pan" type="5" solo="0">
        <automationtrack/>
        <automationpattern prog="0" name="Effects\Classic Delay\Classic Delay>>0" pos="768" mute="0" len="192" tens="1">
          <time pos="0" value="0.62" outValue="0.62"/>
          <time pos="12" value="0" outValue="0"/>
          <time pos="24" value="0.96" outValue="0.96"/>
          <time pos="36" value="0.25" outValue="0.25"/>
          <time pos="48" value="0.75" outValue="0.75"/>
          <time pos="60" value="0.95" outValue="0.95"/>
          <time pos="72" value="0" outValue="0"/>
          <time pos="84" value="0.57" outValue="0.57"/>
          <time pos="96" value="0.75" outValue="0.75"/>
          <time pos="108" value="0.15" outValue="0.15"/>
          <time pos="120" value="0.66" outValue="0.66"/>
          <time pos="132" value="0.01" outValue="0.01"/>
          <time pos="144" value="0.86" outValue="0.86"/>
          <time pos="156" value="0.28" outValue="0.28"/>
          <time pos="168" value="0.72" outValue="0.72"/>
          <time pos="180" value="0.89" outValue="0.89"/>
          <object id="21288"/>
        </automationpattern>
        <automationpattern prog="0" name="Effects\Classic Delay\Classic Delay>>0" pos="960" mute="0" len="192" tens="1">
          <time pos="0" value="0.38" outValue="0.38"/>
          <time pos="12" value="1" outValue="1"/>
          <time pos="24" value="0.04" outValue="0.04"/>
          <time pos="36" value="0.75" outValue="0.75"/>
          <time pos="48" value="0.25" outValue="0.25"/>
          <time pos="60" value="0.05" outValue="0.05"/>
          <time pos="72" value="1" outValue="1"/>
          <time pos="84" value="0.43" outValue="0.43"/>
          <time pos="96" value="0.25" outValue="0.25"/>
          <time pos="108" value="0.85" outValue="0.85"/>
          <time pos="120" value="0.34" outValue="0.34"/>
          <time pos="132" value="0.99" outValue="0.99"/>
          <time pos="144" value="0.14" outValue="0.14"/>
          <time pos="156" value="0.72" outValue="0.72"/>
          <time pos="168" value="0.28" outValue="0.28"/>
          <time pos="180" value="0.11" outValue="0.11"/>
          <object id="21288"/>
        </automationpattern>
        <automationpattern prog="0" name="Effects\Classic Delay\Classic Delay>>0" pos="1152" mute="0" len="192" tens="1">
          <time pos="0" value="0.62" outValue="0.62"/>
          <time pos="12" value="0" outValue="0"/>
          <time pos="24" value="0.96" outValue="0.96"/>
          <time pos="36" value="0.25" outValue="0.25"/>
          <time pos="48" value="0.75" outValue="0.75"/>
          <time pos="60" value="0.95" outValue="0.95"/>
          <time pos="72" value="0" outValue="0"/>
          <time pos="84" value="0.57" outValue="0.57"/>
          <time pos="96" value="0.75" outValue="0.75"/>
          <time pos="108" value="0.15" outValue="0.15"/>
          <time pos="120" value="0.66" outValue="0.66"/>
          <time pos="132" value="0.01" outValue="0.01"/>
          <time pos="144" value="0.86" outValue="0.86"/>
          <time pos="156" value="0.28" outValue="0.28"/>
          <time pos="168" value="0.72" outValue="0.72"/>
          <time pos="180" value="0.89" outValue="0.89"/>
          <object id="21288"/>
        </automationpattern>
        <automationpattern prog="0" name="Effects\Classic Delay\Classic Delay>>0" pos="1344" mute="0" len="192" tens="1">
          <time pos="0" value="0.38" outValue="0.38"/>
          <time pos="12" value="1" outValue="1"/>
          <time pos="24" value="0.04" outValue="0.04"/>
          <time pos="36" value="0.75" outValue="0.75"/>
          <time pos="48" value="0.25" outValue="0.25"/>
          <time pos="60" value="0.05" outValue="0.05"/>
          <time pos="72" value="1" outValue="1"/>
          <time pos="84" value="0.43" outValue="0.43"/>
          <time pos="96" value="0.25" outValue="0.25"/>
          <time pos="108" value="0.85" outValue="0.85"/>
          <time pos="120" value="0.34" outValue="0.34"/>
          <time pos="132" value="0.99" outValue="0.99"/>
          <time pos="144" value="0.14" outValue="0.14"/>
          <time pos="156" value="0.72" outValue="0.72"/>
          <time pos="168" value="0.28" outValue="0.28"/>
          <time pos="180" value="0.11" outValue="0.11"/>
          <object id="21288"/>
        </automationpattern>
        <automationpattern prog="0" name="Effects\Classic Delay\Classic Delay>>0" pos="1536" mute="0" len="192" tens="1">
          <time pos="0" value="0.62" outValue="0.62"/>
          <time pos="12" value="0" outValue="0"/>
          <time pos="24" value="0.96" outValue="0.96"/>
          <time pos="36" value="0.25" outValue="0.25"/>
          <time pos="48" value="0.75" outValue="0.75"/>
          <time pos="60" value="0.95" outValue="0.95"/>
          <time pos="72" value="0" outValue="0"/>
          <time pos="84" value="0.57" outValue="0.57"/>
          <time pos="96" value="0.75" outValue="0.75"/>
          <time pos="108" value="0.15" outValue="0.15"/>
          <time pos="120" value="0.66" outValue="0.66"/>
          <time pos="132" value="0.01" outValue="0.01"/>
          <time pos="144" value="0.86" outValue="0.86"/>
          <time pos="156" value="0.28" outValue="0.28"/>
          <time pos="168" value="0.72" outValue="0.72"/>
          <time pos="180" value="0.89" outValue="0.89"/>
          <object id="21288"/>
        </automationpattern>
        <automationpattern prog="0" name="Effects\Classic Delay\Classic Delay>>0" pos="1728" mute="0" len="192" tens="1">
          <time pos="0" value="0.38" outValue="0.38"/>
          <time pos="12" value="1" outValue="1"/>
          <time pos="24" value="0.04" outValue="0.04"/>
          <time pos="36" value="0.75" outValue="0.75"/>
          <time pos="48" value="0.25" outValue="0.25"/>
          <time pos="60" value="0.05" outValue="0.05"/>
          <time pos="72" value="1" outValue="1"/>
          <time pos="84" value="0.43" outValue="0.43"/>
          <time pos="96" value="0.25" outValue="0.25"/>
          <time pos="108" value="0.85" outValue="0.85"/>
          <time pos="120" value="0.34" outValue="0.34"/>
          <time pos="132" value="0.99" outValue="0.99"/>
          <time pos="144" value="0.14" outValue="0.14"/>
          <time pos="156" value="0.72" outValue="0.72"/>
          <time pos="168" value="0.28" outValue="0.28"/>
          <time pos="180" value="0.11" outValue="0.11"/>
          <object id="21288"/>
        </automationpattern>
        <automationpattern prog="0" name="Effects\Classic Delay\Classic Delay>>0" pos="1920" mute="0" len="192" tens="1">
          <time pos="0" value="0.62" outValue="0.62"/>
          <time pos="12" value="0" outValue="0"/>
          <time pos="24" value="0.96" outValue="0.96"/>
          <time pos="36" value="0.25" outValue="0.25"/>
          <time pos="48" value="0.75" outValue="0.75"/>
          <time pos="60" value="0.95" outValue="0.95"/>
          <time pos="72" value="0" outValue="0"/>
          <time pos="84" value="0.57" outValue="0.57"/>
          <time pos="96" value="0.75" outValue="0.75"/>
          <time pos="108" value="0.15" outValue="0.15"/>
          <time pos="120" value="0.66" outValue="0.66"/>
          <time pos="132" value="0.01" outValue="0.01"/>
          <time pos="144" value="0.86" outValue="0.86"/>
          <time pos="156" value="0.28" outValue="0.28"/>
          <time pos="168" value="0.72" outValue="0.72"/>
          <time pos="180" value="0.89" outValue="0.89"/>
          <object id="21288"/>
        </automationpattern>
        <automationpattern prog="0" name="Effects\Classic Delay\Classic Delay>>0" pos="2112" mute="0" len="192" tens="1">
          <time pos="0" value="0.38" outValue="0.38"/>
          <time pos="12" value="1" outValue="1"/>
          <time pos="24" value="0.04" outValue="0.04"/>
          <time pos="36" value="0.75" outValue="0.75"/>
          <time pos="48" value="0.25" outValue="0.25"/>
          <time pos="60" value="0.05" outValue="0.05"/>
          <time pos="72" value="1" outValue="1"/>
          <time pos="84" value="0.43" outValue="0.43"/>
          <time pos="96" value="0.25" outValue="0.25"/>
          <time pos="108" value="0.85" outValue="0.85"/>
          <time pos="120" value="0.34" outValue="0.34"/>
          <time pos="132" value="0.99" outValue="0.99"/>
          <time pos="144" value="0.14" outValue="0.14"/>
          <time pos="156" value="0.72" outValue="0.72"/>
          <time pos="168" value="0.28" outValue="0.28"/>
          <time pos="180" value="0.11" outValue="0.11"/>
          <object id="21288"/>
        </automationpattern>
        <automationpattern prog="0" name="Effects\Classic Delay\Classic Delay>>0" pos="2304" mute="0" len="192" tens="1">
          <time pos="0" value="0.62" outValue="0.62"/>
          <time pos="12" value="0" outValue="0"/>
          <time pos="24" value="0.96" outValue="0.96"/>
          <time pos="36" value="0.25" outValue="0.25"/>
          <time pos="48" value="0.75" outValue="0.75"/>
          <time pos="60" value="0.95" outValue="0.95"/>
          <time pos="72" value="0" outValue="0"/>
          <time pos="84" value="0.57" outValue="0.57"/>
          <time pos="96" value="0.75" outValue="0.75"/>
          <time pos="108" value="0.15" outValue="0.15"/>
          <time pos="120" value="0.66" outValue="0.66"/>
          <time pos="132" value="0.01" outValue="0.01"/>
          <time pos="144" value="0.86" outValue="0.86"/>
          <time pos="156" value="0.28" outValue="0.28"/>
          <time pos="168" value="0.72" outValue="0.72"/>
          <time pos="180" value="0.89" outValue="0.89"/>
          <object id="21288"/>
        </automationpattern>
        <automationpattern prog="0" name="Effects\Classic Delay\Classic Delay>>0" pos="2496" mute="0" len="192" tens="1">
          <time pos="0" value="0.38" outValue="0.38"/>
          <time pos="12" value="1" outValue="1"/>
          <time pos="24" value="0.04" outValue="0.04"/>
          <time pos="36" value="0.75" outValue="0.75"/>
          <time pos="48" value="0.25" outValue="0.25"/>
          <time pos="60" value="0.05" outValue="0.05"/>
          <time pos="72" value="1" outValue="1"/>
          <time pos="84" value="0.43" outValue="0.43"/>
          <time pos="96" value="0.25" outValue="0.25"/>
          <time pos="108" value="0.85" outValue="0.85"/>
          <time pos="120" value="0.34" outValue="0.34"/>
          <time pos="132" value="0.99" outValue="0.99"/>
          <time pos="144" value="0.14" outValue="0.14"/>
          <time pos="156" value="0.72" outValue="0.72"/>
          <time pos="168" value="0.28" outValue="0.28"/>
          <time pos="180" value="0.11" outValue="0.11"/>
          <object id="21288"/>
        </automationpattern>
        <automationpattern prog="0" name="Effects\Classic Delay\Classic Delay>>0" pos="2688" mute="0" len="192" tens="1">
          <time pos="0" value="0.62" outValue="0.62"/>
          <time pos="12" value="0" outValue="0"/>
          <time pos="24" value="0.96" outValue="0.96"/>
          <time pos="36" value="0.25" outValue="0.25"/>
          <time pos="48" value="0.75" outValue="0.75"/>
          <time pos="60" value="0.95" outValue="0.95"/>
          <time pos="72" value="0" outValue="0"/>
          <time pos="84" value="0.57" outValue="0.57"/>
          <time pos="96" value="0.75" outValue="0.75"/>
          <time pos="108" value="0.15" outValue="0.15"/>
          <time pos="120" value="0.66" outValue="0.66"/>
          <time pos="132" value="0.01" outValue="0.01"/>
          <time pos="144" value="0.86" outValue="0.86"/>
          <time pos="156" value="0.28" outValue="0.28"/>
          <time pos="168" value="0.72" outValue="0.72"/>
          <time pos="180" value="0.89" outValue="0.89"/>
          <object id="21288"/>
        </automationpattern>
        <automationpattern prog="0" name="Effects\Classic Delay\Classic Delay>>0" pos="2880" mute="0" len="192" tens="1">
          <time pos="0" value="0.38" outValue="0.38"/>
          <time pos="12" value="1" outValue="1"/>
          <time pos="24" value="0.04" outValue="0.04"/>
          <time pos="36" value="0.75" outValue="0.75"/>
          <time pos="48" value="0.25" outValue="0.25"/>
          <time pos="60" value="0.05" outValue="0.05"/>
          <time pos="72" value="1" outValue="1"/>
          <time pos="84" value="0.43" outValue="0.43"/>
          <time pos="96" value="0.25" outValue="0.25"/>
          <time pos="108" value="0.85" outValue="0.85"/>
          <time pos="120" value="0.34" outValue="0.34"/>
          <time pos="132" value="0.99" outValue="0.99"/>
          <time pos="144" value="0.14" outValue="0.14"/>
          <time pos="156" value="0.72" outValue="0.72"/>
          <time pos="168" value="0.28" outValue="0.28"/>
          <time pos="180" value="0.11" outValue="0.11"/>
          <object id="21288"/>
        </automationpattern>
        <automationpattern prog="0" name="Effects\Classic Delay\Classic Delay>>0" pos="3072" mute="0" len="192" tens="1">
          <time pos="0" value="0.62" outValue="0.62"/>
          <time pos="12" value="0" outValue="0"/>
          <time pos="24" value="0.96" outValue="0.96"/>
          <time pos="36" value="0.25" outValue="0.25"/>
          <time pos="48" value="0.75" outValue="0.75"/>
          <time pos="60" value="0.95" outValue="0.95"/>
          <time pos="72" value="0" outValue="0"/>
          <time pos="84" value="0.57" outValue="0.57"/>
          <time pos="96" value="0.75" outValue="0.75"/>
          <time pos="108" value="0.15" outValue="0.15"/>
          <time pos="120" value="0.66" outValue="0.66"/>
          <time pos="132" value="0.01" outValue="0.01"/>
          <time pos="144" value="0.86" outValue="0.86"/>
          <time pos="156" value="0.28" outValue="0.28"/>
          <time pos="168" value="0.72" outValue="0.72"/>
          <time pos="180" value="0.89" outValue="0.89"/>
          <object id="21288"/>
        </automationpattern>
        <automationpattern prog="0" name="Effects\Classic Delay\Classic Delay>>0" pos="3264" mute="0" len="192" tens="1">
          <time pos="0" value="0.38" outValue="0.38"/>
          <time pos="12" value="1" outValue="1"/>
          <time pos="24" value="0.04" outValue="0.04"/>
          <time pos="36" value="0.75" outValue="0.75"/>
          <time pos="48" value="0.25" outValue="0.25"/>
          <time pos="60" value="0.05" outValue="0.05"/>
          <time pos="72" value="1" outValue="1"/>
          <time pos="84" value="0.43" outValue="0.43"/>
          <time pos="96" value="0.25" outValue="0.25"/>
          <time pos="108" value="0.85" outValue="0.85"/>
          <time pos="120" value="0.34" outValue="0.34"/>
          <time pos="132" value="0.99" outValue="0.99"/>
          <time pos="144" value="0.14" outValue="0.14"/>
          <time pos="156" value="0.72" outValue="0.72"/>
          <time pos="168" value="0.28" outValue="0.28"/>
          <time pos="180" value="0.11" outValue="0.11"/>
          <object id="21288"/>
        </automationpattern>
        <automationpattern prog="0" name="Effects\Classic Delay\Classic Delay>>0" pos="3456" mute="0" len="192" tens="1">
          <time pos="0" value="0.62" outValue="0.62"/>
          <time pos="12" value="0" outValue="0"/>
          <time pos="24" value="0.96" outValue="0.96"/>
          <time pos="36" value="0.25" outValue="0.25"/>
          <time pos="48" value="0.75" outValue="0.75"/>
          <time pos="60" value="0.95" outValue="0.95"/>
          <time pos="72" value="0" outValue="0"/>
          <time pos="84" value="0.57" outValue="0.57"/>
          <time pos="96" value="0.75" outValue="0.75"/>
          <time pos="108" value="0.15" outValue="0.15"/>
          <time pos="120" value="0.66" outValue="0.66"/>
          <time pos="132" value="0.01" outValue="0.01"/>
          <time pos="144" value="0.86" outValue="0.86"/>
          <time pos="156" value="0.28" outValue="0.28"/>
          <time pos="168" value="0.72" outValue="0.72"/>
          <time pos="180" value="0.89" outValue="0.89"/>
          <object id="21288"/>
        </automationpattern>
        <automationpattern prog="0" name="Effects\Classic Delay\Classic Delay>>0" pos="3648" mute="0" len="192" tens="1">
          <time pos="0" value="0.38" outValue="0.38"/>
          <time pos="12" value="1" outValue="1"/>
          <time pos="24" value="0.04" outValue="0.04"/>
          <time pos="36" value="0.75" outValue="0.75"/>
          <time pos="48" value="0.25" outValue="0.25"/>
          <time pos="60" value="0.05" outValue="0.05"/>
          <time pos="72" value="1" outValue="1"/>
          <time pos="84" value="0.43" outValue="0.43"/>
          <time pos="96" value="0.25" outValue="0.25"/>
          <time pos="108" value="0.85" outValue="0.85"/>
          <time pos="120" value="0.34" outValue="0.34"/>
          <time pos="132" value="0.99" outValue="0.99"/>
          <time pos="144" value="0.14" outValue="0.14"/>
          <time pos="156" value="0.72" outValue="0.72"/>
          <time pos="168" value="0.28" outValue="0.28"/>
          <time pos="180" value="0.11" outValue="0.11"/>
          <object id="21288"/>
        </automationpattern>
        <automationpattern prog="0" name="Effects\Classic Delay\Classic Delay>>0" pos="3840" mute="0" len="192" tens="1">
          <time pos="0" value="0.62" outValue="0.62"/>
          <time pos="12" value="0" outValue="0"/>
          <time pos="24" value="0.96" outValue="0.96"/>
          <time pos="36" value="0.25" outValue="0.25"/>
          <time pos="48" value="0.75" outValue="0.75"/>
          <time pos="60" value="0.95" outValue="0.95"/>
          <time pos="72" value="0" outValue="0"/>
          <time pos="84" value="0.57" outValue="0.57"/>
          <time pos="96" value="0.75" outValue="0.75"/>
          <time pos="108" value="0.15" outValue="0.15"/>
          <time pos="120" value="0.66" outValue="0.66"/>
          <time pos="132" value="0.01" outValue="0.01"/>
          <time pos="144" value="0.86" outValue="0.86"/>
          <time pos="156" value="0.28" outValue="0.28"/>
          <time pos="168" value="0.72" outValue="0.72"/>
          <time pos="180" value="0.89" outValue="0.89"/>
          <object id="21288"/>
        </automationpattern>
        <automationpattern prog="0" name="Effects\Classic Delay\Classic Delay>>0" pos="4032" mute="0" len="192" tens="1">
          <time pos="0" value="0.38" outValue="0.38"/>
          <time pos="12" value="1" outValue="1"/>
          <time pos="24" value="0.04" outValue="0.04"/>
          <time pos="36" value="0.75" outValue="0.75"/>
          <time pos="48" value="0.25" outValue="0.25"/>
          <time pos="60" value="0.05" outValue="0.05"/>
          <time pos="72" value="1" outValue="1"/>
          <time pos="84" value="0.43" outValue="0.43"/>
          <time pos="96" value="0.25" outValue="0.25"/>
          <time pos="108" value="0.85" outValue="0.85"/>
          <time pos="120" value="0.34" outValue="0.34"/>
          <time pos="132" value="0.99" outValue="0.99"/>
          <time pos="144" value="0.14" outValue="0.14"/>
          <time pos="156" value="0.72" outValue="0.72"/>
          <time pos="168" value="0.28" outValue="0.28"/>
          <time pos="180" value="0.11" outValue="0.11"/>
          <object id="21288"/>
        </automationpattern>
        <automationpattern prog="0" name="Effects\Classic Delay\Classic Delay>>0" pos="4224" mute="0" len="192" tens="1">
          <time pos="0" value="0.62" outValue="0.62"/>
          <time pos="12" value="0" outValue="0"/>
          <time pos="24" value="0.96" outValue="0.96"/>
          <time pos="36" value="0.25" outValue="0.25"/>
          <time pos="48" value="0.75" outValue="0.75"/>
          <time pos="60" value="0.95" outValue="0.95"/>
          <time pos="72" value="0" outValue="0"/>
          <time pos="84" value="0.57" outValue="0.57"/>
          <time pos="96" value="0.75" outValue="0.75"/>
          <time pos="108" value="0.15" outValue="0.15"/>
          <time pos="120" value="0.66" outValue="0.66"/>
          <time pos="132" value="0.01" outValue="0.01"/>
          <time pos="144" value="0.86" outValue="0.86"/>
          <time pos="156" value="0.28" outValue="0.28"/>
          <time pos="168" value="0.72" outValue="0.72"/>
          <time pos="180" value="0.89" outValue="0.89"/>
          <object id="21288"/>
        </automationpattern>
        <automationpattern prog="0" name="Effects\Classic Delay\Classic Delay>>0" pos="4416" mute="0" len="192" tens="1">
          <time pos="0" value="0.38" outValue="0.38"/>
          <time pos="12" value="1" outValue="1"/>
          <time pos="24" value="0.04" outValue="0.04"/>
          <time pos="36" value="0.75" outValue="0.75"/>
          <time pos="48" value="0.25" outValue="0.25"/>
          <time pos="60" value="0.05" outValue="0.05"/>
          <time pos="72" value="1" outValue="1"/>
          <time pos="84" value="0.43" outValue="0.43"/>
          <time pos="96" value="0.25" outValue="0.25"/>
          <time pos="108" value="0.85" outValue="0.85"/>
          <time pos="120" value="0.34" outValue="0.34"/>
          <time pos="132" value="0.99" outValue="0.99"/>
          <time pos="144" value="0.14" outValue="0.14"/>
          <time pos="156" value="0.72" outValue="0.72"/>
          <time pos="168" value="0.28" outValue="0.28"/>
          <time pos="180" value="0.11" outValue="0.11"/>
          <object id="21288"/>
        </automationpattern>
        <automationpattern prog="0" name="Effects\Classic Delay\Classic Delay>>0" pos="4608" mute="0" len="192" tens="1">
          <time pos="0" value="0.62" outValue="0.62"/>
          <time pos="12" value="0" outValue="0"/>
          <time pos="24" value="0.96" outValue="0.96"/>
          <time pos="36" value="0.25" outValue="0.25"/>
          <time pos="48" value="0.75" outValue="0.75"/>
          <time pos="60" value="0.95" outValue="0.95"/>
          <time pos="72" value="0" outValue="0"/>
          <time pos="84" value="0.57" outValue="0.57"/>
          <time pos="96" value="0.75" outValue="0.75"/>
          <time pos="108" value="0.15" outValue="0.15"/>
          <time pos="120" value="0.66" outValue="0.66"/>
          <time pos="132" value="0.01" outValue="0.01"/>
          <time pos="144" value="0.86" outValue="0.86"/>
          <time pos="156" value="0.28" outValue="0.28"/>
          <time pos="168" value="0.72" outValue="0.72"/>
          <time pos="180" value="0.89" outValue="0.89"/>
          <object id="21288"/>
        </automationpattern>
        <automationpattern prog="0" name="Effects\Classic Delay\Classic Delay>>0" pos="4800" mute="0" len="192" tens="1">
          <time pos="0" value="0.38" outValue="0.38"/>
          <time pos="12" value="1" outValue="1"/>
          <time pos="24" value="0.04" outValue="0.04"/>
          <time pos="36" value="0.75" outValue="0.75"/>
          <time pos="48" value="0.25" outValue="0.25"/>
          <time pos="60" value="0.05" outValue="0.05"/>
          <time pos="72" value="1" outValue="1"/>
          <time pos="84" value="0.43" outValue="0.43"/>
          <time pos="96" value="0.25" outValue="0.25"/>
          <time pos="108" value="0.85" outValue="0.85"/>
          <time pos="120" value="0.34" outValue="0.34"/>
          <time pos="132" value="0.99" outValue="0.99"/>
          <time pos="144" value="0.14" outValue="0.14"/>
          <time pos="156" value="0.72" outValue="0.72"/>
          <time pos="168" value="0.28" outValue="0.28"/>
          <time pos="180" value="0.11" outValue="0.11"/>
          <object id="21288"/>
        </automationpattern>
        <automationpattern prog="0" name="Effects\Classic Delay\Classic Delay>>0" pos="4992" mute="0" len="192" tens="1">
          <time pos="0" value="0.62" outValue="0.62"/>
          <time pos="12" value="0" outValue="0"/>
          <time pos="24" value="0.96" outValue="0.96"/>
          <time pos="36" value="0.25" outValue="0.25"/>
          <time pos="48" value="0.75" outValue="0.75"/>
          <time pos="60" value="0.95" outValue="0.95"/>
          <time pos="72" value="0" outValue="0"/>
          <time pos="84" value="0.57" outValue="0.57"/>
          <time pos="96" value="0.75" outValue="0.75"/>
          <time pos="108" value="0.15" outValue="0.15"/>
          <time pos="120" value="0.66" outValue="0.66"/>
          <time pos="132" value="0.01" outValue="0.01"/>
          <time pos="144" value="0.86" outValue="0.86"/>
          <time pos="156" value="0.28" outValue="0.28"/>
          <time pos="168" value="0.72" outValue="0.72"/>
          <time pos="180" value="0.89" outValue="0.89"/>
          <object id="21288"/>
        </automationpattern>
        <automationpattern prog="0" name="Effects\Classic Delay\Classic Delay>>0" pos="5184" mute="0" len="192" tens="1">
          <time pos="0" value="0.38" outValue="0.38"/>
          <time pos="12" value="1" outValue="1"/>
          <time pos="24" value="0.04" outValue="0.04"/>
          <time pos="36" value="0.75" outValue="0.75"/>
          <time pos="48" value="0.25" outValue="0.25"/>
          <time pos="60" value="0.05" outValue="0.05"/>
          <time pos="72" value="1" outValue="1"/>
          <time pos="84" value="0.43" outValue="0.43"/>
          <time pos="96" value="0.25" outValue="0.25"/>
          <time pos="108" value="0.85" outValue="0.85"/>
          <time pos="120" value="0.34" outValue="0.34"/>
          <time pos="132" value="0.99" outValue="0.99"/>
          <time pos="144" value="0.14" outValue="0.14"/>
          <time pos="156" value="0.72" outValue="0.72"/>
          <time pos="168" value="0.28" outValue="0.28"/>
          <time pos="180" value="0.11" outValue="0.11"/>
          <object id="21288"/>
        </automationpattern>
        <automationpattern prog="0" name="Effects\Classic Delay\Classic Delay>>0" pos="5376" mute="0" len="192" tens="1">
          <time pos="0" value="0.62" outValue="0.62"/>
          <time pos="12" value="0" outValue="0"/>
          <time pos="24" value="0.96" outValue="0.96"/>
          <time pos="36" value="0.25" outValue="0.25"/>
          <time pos="48" value="0.75" outValue="0.75"/>
          <time pos="60" value="0.95" outValue="0.95"/>
          <time pos="72" value="0" outValue="0"/>
          <time pos="84" value="0.57" outValue="0.57"/>
          <time pos="96" value="0.75" outValue="0.75"/>
          <time pos="108" value="0.15" outValue="0.15"/>
          <time pos="120" value="0.66" outValue="0.66"/>
          <time pos="132" value="0.01" outValue="0.01"/>
          <time pos="144" value="0.86" outValue="0.86"/>
          <time pos="156" value="0.28" outValue="0.28"/>
          <time pos="168" value="0.72" outValue="0.72"/>
          <time pos="180" value="0.89" outValue="0.89"/>
          <object id="21288"/>
        </automationpattern>
        <automationpattern prog="0" name="Effects\Classic Delay\Classic Delay>>0" pos="5568" mute="0" len="192" tens="1">
          <time pos="0" value="0.38" outValue="0.38"/>
          <time pos="12" value="1" outValue="1"/>
          <time pos="24" value="0.04" outValue="0.04"/>
          <time pos="36" value="0.75" outValue="0.75"/>
          <time pos="48" value="0.25" outValue="0.25"/>
          <time pos="60" value="0.05" outValue="0.05"/>
          <time pos="72" value="1" outValue="1"/>
          <time pos="84" value="0.43" outValue="0.43"/>
          <time pos="96" value="0.25" outValue="0.25"/>
          <time pos="108" value="0.85" outValue="0.85"/>
          <time pos="120" value="0.34" outValue="0.34"/>
          <time pos="132" value="0.99" outValue="0.99"/>
          <time pos="144" value="0.14" outValue="0.14"/>
          <time pos="156" value="0.72" outValue="0.72"/>
          <time pos="168" value="0.28" outValue="0.28"/>
          <time pos="180" value="0.11" outValue="0.11"/>
          <object id="21288"/>
        </automationpattern>
        <automationpattern prog="0" name="Effects\Classic Delay\Classic Delay>>0" pos="5760" mute="0" len="192" tens="1">
          <time pos="0" value="0.62" outValue="0.62"/>
          <time pos="12" value="0" outValue="0"/>
          <time pos="24" value="0.96" outValue="0.96"/>
          <time pos="36" value="0.25" outValue="0.25"/>
          <time pos="48" value="0.75" outValue="0.75"/>
          <time pos="60" value="0.95" outValue="0.95"/>
          <time pos="72" value="0" outValue="0"/>
          <time pos="84" value="0.57" outValue="0.57"/>
          <time pos="96" value="0.75" outValue="0.75"/>
          <time pos="108" value="0.15" outValue="0.15"/>
          <time pos="120" value="0.66" outValue="0.66"/>
          <time pos="132" value="0.01" outValue="0.01"/>
          <time pos="144" value="0.86" outValue="0.86"/>
          <time pos="156" value="0.28" outValue="0.28"/>
          <time pos="168" value="0.72" outValue="0.72"/>
          <time pos="180" value="0.89" outValue="0.89"/>
          <object id="21288"/>
        </automationpattern>
        <automationpattern prog="0" name="Effects\Classic Delay\Classic Delay>>0" pos="5952" mute="0" len="192" tens="1">
          <time pos="0" value="0.38" outValue="0.38"/>
          <time pos="12" value="1" outValue="1"/>
          <time pos="24" value="0.04" outValue="0.04"/>
          <time pos="36" value="0.75" outValue="0.75"/>
          <time pos="48" value="0.25" outValue="0.25"/>
          <time pos="60" value="0.05" outValue="0.05"/>
          <time pos="72" value="1" outValue="1"/>
          <time pos="84" value="0.43" outValue="0.43"/>
          <time pos="96" value="0.25" outValue="0.25"/>
          <time pos="108" value="0.85" outValue="0.85"/>
          <time pos="120" value="0.34" outValue="0.34"/>
          <time pos="132" value="0.99" outValue="0.99"/>
          <time pos="144" value="0.14" outValue="0.14"/>
          <time pos="156" value="0.72" outValue="0.72"/>
          <time pos="168" value="0.28" outValue="0.28"/>
          <time pos="180" value="0.11" outValue="0.11"/>
          <object id="21288"/>
        </automationpattern>
        <automationpattern prog="0" name="Effects\Classic Delay\Classic Delay>>0" pos="0" mute="0" len="192" tens="1">
          <time pos="0" value="0.62" outValue="0.62"/>
          <time pos="12" value="0" outValue="0"/>
          <time pos="24" value="0.96" outValue="0.96"/>
          <time pos="36" value="0.25" outValue="0.25"/>
          <time pos="48" value="0.75" outValue="0.75"/>
          <time pos="60" value="0.95" outValue="0.95"/>
          <time pos="72" value="0" outValue="0"/>
          <time pos="84" value="0.57" outValue="0.57"/>
          <time pos="96" value="0.75" outValue="0.75"/>
          <time pos="108" value="0.15" outValue="0.15"/>
          <time pos="120" value="0.66" outValue="0.66"/>
          <time pos="132" value="0.01" outValue="0.01"/>
          <time pos="144" value="0.86" outValue="0.86"/>
          <time pos="156" value="0.28" outValue="0.28"/>
          <time pos="168" value="0.72" outValue="0.72"/>
          <time pos="180" value="0.89" outValue="0.89"/>
          <object id="21288"/>
        </automationpattern>
        <automationpattern prog="0" name="Effects\Classic Delay\Classic Delay>>0" pos="192" mute="0" len="192" tens="1">
          <time pos="0" value="0.38" outValue="0.38"/>
          <time pos="12" value="1" outValue="1"/>
          <time pos="24" value="0.04" outValue="0.04"/>
          <time pos="36" value="0.75" outValue="0.75"/>
          <time pos="48" value="0.25" outValue="0.25"/>
          <time pos="60" value="0.05" outValue="0.05"/>
          <time pos="72" value="1" outValue="1"/>
          <time pos="84" value="0.43" outValue="0.43"/>
          <time pos="96" value="0.25" outValue="0.25"/>
          <time pos="108" value="0.85" outValue="0.85"/>
          <time pos="120" value="0.34" outValue="0.34"/>
          <time pos="132" value="0.99" outValue="0.99"/>
          <time pos="144" value="0.14" outValue="0.14"/>
          <time pos="156" value="0.72" outValue="0.72"/>
          <time pos="168" value="0.28" outValue="0.28"/>
          <time pos="180" value="0.11" outValue="0.11"/>
          <object id="21288"/>
        </automationpattern>
        <automationpattern prog="0" name="Effects\Classic Delay\Classic Delay>>0" pos="384" mute="0" len="192" tens="1">
          <time pos="0" value="0.62" outValue="0.62"/>
          <time pos="12" value="0" outValue="0"/>
          <time pos="24" value="0.96" outValue="0.96"/>
          <time pos="36" value="0.25" outValue="0.25"/>
          <time pos="48" value="0.75" outValue="0.75"/>
          <time pos="60" value="0.95" outValue="0.95"/>
          <time pos="72" value="0" outValue="0"/>
          <time pos="84" value="0.57" outValue="0.57"/>
          <time pos="96" value="0.75" outValue="0.75"/>
          <time pos="108" value="0.15" outValue="0.15"/>
          <time pos="120" value="0.66" outValue="0.66"/>
          <time pos="132" value="0.01" outValue="0.01"/>
          <time pos="144" value="0.86" outValue="0.86"/>
          <time pos="156" value="0.28" outValue="0.28"/>
          <time pos="168" value="0.72" outValue="0.72"/>
          <time pos="180" value="0.89" outValue="0.89"/>
          <object id="21288"/>
        </automationpattern>
        <automationpattern prog="0" name="Effects\Classic Delay\Classic Delay>>0" pos="576" mute="0" len="192" tens="1">
          <time pos="0" value="0.38" outValue="0.38"/>
          <time pos="12" value="1" outValue="1"/>
          <time pos="24" value="0.04" outValue="0.04"/>
          <time pos="36" value="0.75" outValue="0.75"/>
          <time pos="48" value="0.25" outValue="0.25"/>
          <time pos="60" value="0.05" outValue="0.05"/>
          <time pos="72" value="1" outValue="1"/>
          <time pos="84" value="0.43" outValue="0.43"/>
          <time pos="96" value="0.25" outValue="0.25"/>
          <time pos="108" value="0.85" outValue="0.85"/>
          <time pos="120" value="0.34" outValue="0.34"/>
          <time pos="132" value="0.99" outValue="0.99"/>
          <time pos="144" value="0.14" outValue="0.14"/>
          <time pos="156" value="0.72" outValue="0.72"/>
          <time pos="168" value="0.28" outValue="0.28"/>
          <time pos="180" value="0.11" outValue="0.11"/>
          <object id="21288"/>
        </automationpattern>
      </track>
      <track muted="0" mutedBeforeSolo="0" name="SID>Lead1" type="0" solo="0">
        <instrumenttrack pitch="0" pitchrange="1" usemasterpitch="1" enablecc="0" pan="0" firstkey="0" lastkey="127" fxch="8" basenote="69">
          <vol id="32257" scale_type="linear" value="100"/>
          <midicontrollers cc51="0" cc52="0" cc103="0" cc44="0" cc35="0" cc85="0" cc104="0" cc6="0" cc77="0" cc56="0" cc112="0" cc11="0" cc30="0" cc88="0" cc99="0" cc58="0" cc73="0" cc78="0" cc113="0" cc100="0" cc126="0" cc1="0" cc127="0" cc84="0" cc115="0" cc18="0" cc54="0" cc27="0" cc68="0" cc14="0" cc45="0" cc21="0" cc13="0" cc0="0" cc75="0" cc91="0" cc70="0" cc36="0" cc5="0" cc19="0" cc66="0" cc25="0" cc38="0" cc65="0" cc109="0" cc92="0" cc3="0" cc43="0" cc110="0" cc81="0" cc111="0" cc61="0" cc86="0" cc49="0" cc50="0" cc7="0" cc107="0" cc22="0" cc93="0" cc79="0" cc10="0" cc39="0" cc98="0" cc59="0" cc62="0" cc63="0" cc74="0" cc15="0" cc41="0" cc16="0" cc120="0" cc83="0" cc108="0" cc9="0" cc53="0" cc71="0" cc124="0" cc80="0" cc87="0" cc106="0" cc2="0" cc48="0" cc123="0" cc57="0" cc114="0" cc122="0" cc116="0" cc8="0" cc55="0" cc17="0" cc12="0" cc4="0" cc47="0" cc23="0" cc82="0" cc46="0" cc121="0" cc105="0" cc60="0" cc76="0" cc125="0" cc31="0" cc37="0" cc20="0" cc102="0" cc89="0" cc64="0" cc69="0" cc90="0" cc33="0" cc94="0" cc34="0" cc67="0" cc72="0" cc40="0" cc95="0" cc117="0" cc32="0" cc101="0" cc26="0" cc97="0" cc118="0" cc42="0" cc29="0" cc96="0" cc119="0" cc24="0" cc28="0"/>
          <instrument name="sid">
            <sid decay2="8" sync0="0" chipModel="1" coarse0="0" ringmod1="1" pulsewidth0="1030" test1="0" release1="0" sustain2="15" ringmod0="0" filterResonance="8" waveform2="1" pulsewidth1="2884" voice3Off="0" attack2="0" decay0="6" waveform1="2" attack0="0" waveform0="1" release2="0" sustain0="0" sync2="0" volume="10" filtered2="0" attack1="0" release0="0" filterFC="1024" filterMode="2" decay1="8" filtered1="0" filtered0="0" sustain1="0" test2="0" pulsewidth2="3587" ringmod2="1" test0="0" coarse1="0" sync1="1" coarse2="0">
              <key/>
            </sid>
          </instrument>
          <eldata fwet="0" fres="0.5" ftype="0" fcut="14000">
            <elvol pdel="0" lamt="0" lspd="0.1" lspd_syncmode="0" rel="0.1" lpdel="0" amt="0" sustain="0.5" lspd_numerator="4" lspd_denominator="4" hold="0.5" ctlenvamt="0" att="0" x100="0" latt="0" dec="0.5" userwavefile="" lshp="0"/>
            <elcut pdel="0" lamt="0" lspd="0.1" lspd_syncmode="0" rel="0.1" lpdel="0" amt="0" sustain="0.5" lspd_numerator="4" lspd_denominator="4" hold="0.5" ctlenvamt="0" att="0" x100="0" latt="0" dec="0.5" userwavefile="" lshp="0"/>
            <elres pdel="0" lamt="0" lspd="0.1" lspd_syncmode="0" rel="0.1" lpdel="0" amt="0" sustain="0.5" lspd_numerator="4" lspd_denominator="4" hold="0.5" ctlenvamt="0" att="0" x100="0" latt="0" dec="0.5" userwavefile="" lshp="0"/>
          </eldata>
          <chordcreator chord="0" chord-enabled="0" chordrange="1"/>
          <arpeggiator arptime_denominator="4" arprange="1" arp-enabled="0" arpcycle="0" arpgate="100" arpdir="0" arp="0" arptime="200" arpmode="0" arprepeats="1" arptime_syncmode="0" arptime_numerator="4" arpmiss="0" arpskip="0"/>
          <midiport outputchannel="1" inputcontroller="0" fixedoutputvelocity="-1" inputchannel="0" writable="0" outputprogram="1" inports="" fixedinputvelocity="-1" fixedoutputnote="-1" basevelocity="63" outputcontroller="0" readable="1"/>
          <fxchain enabled="0" numofeffects="0"/>
        </instrumenttrack>
        <pattern muted="0" steps="16" name="" type="1" pos="2688">
          <note vol="100" pan="0" pos="0" key="81" len="12"/>
          <note vol="100" pan="0" pos="48" key="80" len="12"/>
          <note vol="100" pan="0" pos="96" key="78" len="12"/>
          <note vol="100" pan="0" pos="132" key="73" len="12"/>
          <note vol="100" pan="0" pos="168" key="76" len="12"/>
          <note vol="100" pan="0" pos="336" key="71" len="12"/>
          <note vol="100" pan="0" pos="360" key="73" len="12"/>
          <note vol="100" pan="0" pos="384" key="74" len="12"/>
          <note vol="100" pan="0" pos="456" key="66" len="12"/>
          <note vol="100" pan="0" pos="480" key="69" len="12"/>
          <note vol="100" pan="0" pos="552" key="68" len="12"/>
          <note vol="100" pan="0" pos="576" key="72" len="12"/>
          <note vol="100" pan="0" pos="624" key="69" len="12"/>
          <note vol="100" pan="0" pos="672" key="68" len="12"/>
          <note vol="100" pan="0" pos="720" key="65" len="12"/>
          <note vol="100" pan="0" pos="768" key="68" len="12"/>
          <note vol="100" pan="0" pos="840" key="68" len="12"/>
          <note vol="100" pan="0" pos="888" key="69" len="12"/>
          <note vol="100" pan="0" pos="924" key="68" len="12"/>
          <note vol="100" pan="0" pos="960" key="66" len="12"/>
          <note vol="100" pan="0" pos="1137" key="83" len="3"/>
          <note vol="100" pan="0" pos="1140" key="81" len="3"/>
          <note vol="100" pan="0" pos="1143" key="86" len="3"/>
          <note vol="100" pan="0" pos="1146" key="83" len="3"/>
          <note vol="100" pan="0" pos="1149" key="90" len="3"/>
        </pattern>
        <pattern muted="0" steps="16" name="" type="1" pos="3840">
          <note vol="100" pan="0" pos="0" key="93" len="12"/>
          <note vol="100" pan="0" pos="36" key="93" len="12"/>
          <note vol="100" pan="0" pos="72" key="95" len="12"/>
          <note vol="100" pan="0" pos="96" key="93" len="12"/>
          <note vol="100" pan="0" pos="144" key="95" len="12"/>
          <note vol="100" pan="0" pos="168" key="93" len="12"/>
          <note vol="100" pan="0" pos="192" key="92" len="12"/>
          <note vol="100" pan="0" pos="228" key="92" len="12"/>
          <note vol="100" pan="0" pos="264" key="93" len="12"/>
          <note vol="100" pan="0" pos="300" key="92" len="12"/>
          <note vol="100" pan="0" pos="336" key="92" len="12"/>
          <note vol="100" pan="0" pos="360" key="88" len="12"/>
          <note vol="100" pan="0" pos="384" key="90" len="12"/>
          <note vol="100" pan="0" pos="420" key="85" len="12"/>
          <note vol="100" pan="0" pos="456" key="81" len="12"/>
          <note vol="100" pan="0" pos="480" key="78" len="12"/>
          <note vol="100" pan="0" pos="558" key="66" len="6"/>
          <note vol="100" pan="0" pos="564" key="74" len="3"/>
          <note vol="100" pan="0" pos="567" key="78" len="3"/>
          <note vol="100" pan="0" pos="570" key="69" len="3"/>
          <note vol="100" pan="0" pos="573" key="74" len="3"/>
          <note vol="100" pan="0" pos="576" key="81" len="12"/>
          <note vol="100" pan="0" pos="612" key="78" len="12"/>
          <note vol="100" pan="0" pos="654" key="66" len="6"/>
          <note vol="100" pan="0" pos="660" key="74" len="3"/>
          <note vol="100" pan="0" pos="663" key="81" len="3"/>
          <note vol="100" pan="0" pos="666" key="69" len="3"/>
          <note vol="100" pan="0" pos="669" key="74" len="3"/>
          <note vol="100" pan="0" pos="672" key="85" len="12"/>
          <note vol="100" pan="0" pos="708" key="81" len="12"/>
          <note vol="100" pan="0" pos="744" key="80" len="12"/>
        </pattern>
        <pattern muted="0" steps="16" name="" type="1" pos="5184">
          <note vol="100" pan="0" pos="0" key="81" len="12"/>
          <note vol="100" pan="0" pos="24" key="81" len="12"/>
          <note vol="100" pan="0" pos="48" key="80" len="12"/>
          <note vol="100" pan="0" pos="60" key="81" len="12"/>
          <note vol="100" pan="0" pos="72" key="80" len="12"/>
          <note vol="100" pan="0" pos="84" key="78" len="12"/>
        </pattern>
        <pattern muted="0" steps="16" name="" type="1" pos="4608">
          <note vol="100" pan="0" pos="0" key="81" len="192"/>
          <note vol="100" pan="0" pos="192" key="80" len="192"/>
          <note vol="100" pan="0" pos="384" key="78" len="192"/>
        </pattern>
      </track>
      <track muted="0" mutedBeforeSolo="0" name="SID>Lead1>Volume" type="5" solo="0">
        <automationtrack/>
        <automationpattern prog="1" name="SID>Lead1>Volume" pos="4608" mute="0" len="192" tens="1">
          <time pos="0" value="100" outValue="100"/>
          <time pos="192" value="0" outValue="0"/>
          <object id="32257"/>
        </automationpattern>
        <automationpattern prog="1" name="SID>Lead1>Volume" pos="4800" mute="0" len="192" tens="1">
          <time pos="0" value="100" outValue="100"/>
          <time pos="192" value="0" outValue="0"/>
          <object id="32257"/>
        </automationpattern>
        <automationpattern prog="1" name="SID>Lead1>Volume" pos="4992" mute="0" len="192" tens="1">
          <time pos="0" value="100" outValue="100"/>
          <time pos="192" value="0" outValue="0"/>
          <object id="32257"/>
        </automationpattern>
        <automationpattern prog="0" name="SID>Lead1>Volume" pos="5184" mute="0" len="192" tens="1">
          <time pos="0" value="100" outValue="100"/>
          <object id="32257"/>
        </automationpattern>
        <automationpattern prog="0" name="SID>Lead1>Volume" pos="2688" mute="0" len="192" tens="1">
          <time pos="0" value="100" outValue="100"/>
          <object id="32257"/>
        </automationpattern>
      </track>
      <track muted="0" mutedBeforeSolo="0" name="SID>Lead2" type="0" solo="0">
        <instrumenttrack pitch="0" pitchrange="1" usemasterpitch="1" enablecc="0" pan="0" firstkey="0" lastkey="127" fxch="9" basenote="69">
          <vol id="8093" scale_type="linear" value="100"/>
          <midicontrollers cc51="0" cc52="0" cc103="0" cc44="0" cc35="0" cc85="0" cc104="0" cc6="0" cc77="0" cc56="0" cc112="0" cc11="0" cc30="0" cc88="0" cc99="0" cc58="0" cc73="0" cc78="0" cc113="0" cc100="0" cc126="0" cc1="0" cc127="0" cc84="0" cc115="0" cc18="0" cc54="0" cc27="0" cc68="0" cc14="0" cc45="0" cc21="0" cc13="0" cc0="0" cc75="0" cc91="0" cc70="0" cc36="0" cc5="0" cc19="0" cc66="0" cc25="0" cc38="0" cc65="0" cc109="0" cc92="0" cc3="0" cc43="0" cc110="0" cc81="0" cc111="0" cc61="0" cc86="0" cc49="0" cc50="0" cc7="0" cc107="0" cc22="0" cc93="0" cc79="0" cc10="0" cc39="0" cc98="0" cc59="0" cc62="0" cc63="0" cc74="0" cc15="0" cc41="0" cc16="0" cc120="0" cc83="0" cc108="0" cc9="0" cc53="0" cc71="0" cc124="0" cc80="0" cc87="0" cc106="0" cc2="0" cc48="0" cc123="0" cc57="0" cc114="0" cc122="0" cc116="0" cc8="0" cc55="0" cc17="0" cc12="0" cc4="0" cc47="0" cc23="0" cc82="0" cc46="0" cc121="0" cc105="0" cc60="0" cc76="0" cc125="0" cc31="0" cc37="0" cc20="0" cc102="0" cc89="0" cc64="0" cc69="0" cc90="0" cc33="0" cc94="0" cc34="0" cc67="0" cc72="0" cc40="0" cc95="0" cc117="0" cc32="0" cc101="0" cc26="0" cc97="0" cc118="0" cc42="0" cc29="0" cc96="0" cc119="0" cc24="0" cc28="0"/>
          <instrument name="sid">
            <sid decay2="8" sync0="0" chipModel="1" coarse0="0" ringmod1="1" pulsewidth0="1030" test1="0" release1="0" sustain2="15" ringmod0="0" filterResonance="8" waveform2="1" pulsewidth1="2884" voice3Off="0" attack2="0" decay0="6" waveform1="2" attack0="0" waveform0="1" release2="0" sustain0="0" sync2="0" volume="10" filtered2="0" attack1="0" release0="0" filterFC="1024" filterMode="2" decay1="8" filtered1="0" filtered0="0" sustain1="0" test2="0" pulsewidth2="3587" ringmod2="1" test0="0" coarse1="0" sync1="1" coarse2="0">
              <key/>
            </sid>
          </instrument>
          <eldata fwet="0" fres="0.5" ftype="0" fcut="14000">
            <elvol pdel="0" lamt="0" lspd="0.1" lspd_syncmode="0" rel="0.1" lpdel="0" amt="0" sustain="0.5" lspd_numerator="4" lspd_denominator="4" hold="0.5" ctlenvamt="0" att="0" x100="0" latt="0" dec="0.5" userwavefile="" lshp="0"/>
            <elcut pdel="0" lamt="0" lspd="0.1" lspd_syncmode="0" rel="0.1" lpdel="0" amt="0" sustain="0.5" lspd_numerator="4" lspd_denominator="4" hold="0.5" ctlenvamt="0" att="0" x100="0" latt="0" dec="0.5" userwavefile="" lshp="0"/>
            <elres pdel="0" lamt="0" lspd="0.1" lspd_syncmode="0" rel="0.1" lpdel="0" amt="0" sustain="0.5" lspd_numerator="4" lspd_denominator="4" hold="0.5" ctlenvamt="0" att="0" x100="0" latt="0" dec="0.5" userwavefile="" lshp="0"/>
          </eldata>
          <chordcreator chord="0" chord-enabled="0" chordrange="1"/>
          <arpeggiator arptime_denominator="4" arprange="1" arp-enabled="0" arpcycle="0" arpgate="100" arpdir="0" arp="0" arptime="200" arpmode="0" arprepeats="1" arptime_syncmode="0" arptime_numerator="4" arpmiss="0" arpskip="0"/>
          <midiport outputchannel="1" inputcontroller="0" fixedoutputvelocity="-1" inputchannel="0" writable="0" outputprogram="1" inports="" fixedinputvelocity="-1" fixedoutputnote="-1" basevelocity="63" outputcontroller="0" readable="1"/>
          <fxchain enabled="0" numofeffects="0"/>
        </instrumenttrack>
        <pattern muted="0" steps="16" name="" type="1" pos="4608">
          <note vol="100" pan="0" pos="0" key="57" len="192"/>
          <note vol="100" pan="0" pos="192" key="56" len="192"/>
          <note vol="100" pan="0" pos="384" key="54" len="192"/>
          <note vol="100" pan="0" pos="576" key="18" len="192"/>
        </pattern>
        <pattern muted="0" steps="16" name="" type="1" pos="2880">
          <note vol="100" pan="0" pos="48" key="66" len="12"/>
          <note vol="100" pan="0" pos="84" key="64" len="12"/>
          <note vol="100" pan="0" pos="120" key="61" len="12"/>
        </pattern>
        <pattern muted="0" steps="16" name="" type="1" pos="3840">
          <note vol="100" pan="0" pos="0" key="54" len="12"/>
          <note vol="100" pan="0" pos="12" key="52" len="12"/>
          <note vol="100" pan="0" pos="24" key="54" len="12"/>
          <note vol="100" pan="0" pos="36" key="52" len="12"/>
          <note vol="100" pan="0" pos="48" key="54" len="12"/>
          <note vol="100" pan="0" pos="60" key="52" len="12"/>
          <note vol="100" pan="0" pos="72" key="54" len="12"/>
          <note vol="100" pan="0" pos="84" key="52" len="12"/>
          <note vol="100" pan="0" pos="96" key="54" len="12"/>
          <note vol="100" pan="0" pos="108" key="52" len="12"/>
          <note vol="100" pan="0" pos="120" key="54" len="12"/>
          <note vol="100" pan="0" pos="132" key="52" len="12"/>
          <note vol="100" pan="0" pos="144" key="54" len="12"/>
          <note vol="100" pan="0" pos="156" key="52" len="12"/>
          <note vol="100" pan="0" pos="168" key="54" len="12"/>
        </pattern>
        <pattern muted="0" steps="16" name="" type="1" pos="3072">
          <note vol="100" pan="0" pos="36" key="78" len="3"/>
          <note vol="100" pan="0" pos="39" key="74" len="3"/>
          <note vol="100" pan="0" pos="42" key="81" len="3"/>
          <note vol="100" pan="0" pos="45" key="86" len="3"/>
          <note vol="100" pan="0" pos="48" key="78" len="3"/>
          <note vol="100" pan="0" pos="51" key="86" len="3"/>
          <note vol="100" pan="0" pos="54" key="90" len="3"/>
          <note vol="100" pan="0" pos="57" key="86" len="3"/>
          <note vol="100" pan="0" pos="60" key="93" len="3"/>
          <note vol="100" pan="0" pos="63" key="86" len="3"/>
          <note vol="100" pan="0" pos="66" key="90" len="3"/>
          <note vol="100" pan="0" pos="69" key="81" len="3"/>
          <note vol="100" pan="0" pos="72" key="93" len="3"/>
          <note vol="100" pan="0" pos="75" key="98" len="3"/>
          <note vol="100" pan="0" pos="78" key="90" len="3"/>
          <note vol="100" pan="0" pos="81" key="93" len="3"/>
          <note vol="100" pan="0" pos="84" key="86" len="3"/>
          <note vol="100" pan="0" pos="87" key="93" len="3"/>
          <note vol="100" pan="0" pos="90" key="98" len="3"/>
          <note vol="100" pan="0" pos="93" key="93" len="3"/>
          <note vol="100" pan="0" pos="96" key="90" len="3"/>
          <note vol="100" pan="0" pos="99" key="93" len="3"/>
          <note vol="100" pan="0" pos="102" key="90" len="3"/>
          <note vol="100" pan="0" pos="105" key="86" len="3"/>
          <note vol="100" pan="0" pos="108" key="90" len="3"/>
          <note vol="100" pan="0" pos="111" key="86" len="3"/>
          <note vol="100" pan="0" pos="114" key="81" len="3"/>
          <note vol="100" pan="0" pos="117" key="86" len="3"/>
          <note vol="100" pan="0" pos="120" key="81" len="3"/>
          <note vol="100" pan="0" pos="123" key="78" len="3"/>
          <note vol="100" pan="0" pos="126" key="81" len="3"/>
          <note vol="100" pan="0" pos="129" key="78" len="3"/>
          <note vol="100" pan="0" pos="132" key="74" len="3"/>
          <note vol="100" pan="0" pos="135" key="78" len="3"/>
          <note vol="100" pan="0" pos="138" key="74" len="3"/>
          <note vol="100" pan="0" pos="141" key="69" len="3"/>
          <note vol="100" pan="0" pos="192" key="60" len="3"/>
          <note vol="100" pan="0" pos="195" key="65" len="3"/>
          <note vol="100" pan="0" pos="198" key="69" len="3"/>
          <note vol="100" pan="0" pos="201" key="65" len="3"/>
          <note vol="100" pan="0" pos="204" key="69" len="3"/>
          <note vol="100" pan="0" pos="207" key="72" len="3"/>
          <note vol="100" pan="0" pos="210" key="69" len="3"/>
          <note vol="100" pan="0" pos="213" key="72" len="3"/>
          <note vol="100" pan="0" pos="216" key="74" len="3"/>
          <note vol="100" pan="0" pos="219" key="72" len="3"/>
          <note vol="100" pan="0" pos="222" key="74" len="3"/>
          <note vol="100" pan="0" pos="225" key="81" len="3"/>
          <note vol="100" pan="0" pos="228" key="74" len="3"/>
          <note vol="100" pan="0" pos="231" key="81" len="3"/>
          <note vol="100" pan="0" pos="234" key="84" len="3"/>
          <note vol="100" pan="0" pos="237" key="81" len="3"/>
          <note vol="100" pan="0" pos="264" key="60" len="3"/>
          <note vol="100" pan="0" pos="267" key="65" len="3"/>
          <note vol="100" pan="0" pos="270" key="69" len="3"/>
          <note vol="100" pan="0" pos="273" key="65" len="3"/>
          <note vol="100" pan="0" pos="276" key="69" len="3"/>
          <note vol="100" pan="0" pos="279" key="72" len="3"/>
          <note vol="100" pan="0" pos="282" key="69" len="3"/>
          <note vol="100" pan="0" pos="285" key="72" len="3"/>
          <note vol="100" pan="0" pos="288" key="74" len="3"/>
          <note vol="100" pan="0" pos="291" key="72" len="3"/>
          <note vol="100" pan="0" pos="294" key="74" len="3"/>
          <note vol="100" pan="0" pos="297" key="81" len="3"/>
          <note vol="100" pan="0" pos="300" key="74" len="3"/>
          <note vol="100" pan="0" pos="303" key="81" len="3"/>
          <note vol="100" pan="0" pos="306" key="84" len="3"/>
          <note vol="100" pan="0" pos="309" key="81" len="3"/>
          <note vol="100" pan="0" pos="312" key="60" len="3"/>
          <note vol="100" pan="0" pos="315" key="65" len="3"/>
          <note vol="100" pan="0" pos="318" key="69" len="3"/>
          <note vol="100" pan="0" pos="321" key="65" len="3"/>
          <note vol="100" pan="0" pos="324" key="69" len="3"/>
          <note vol="100" pan="0" pos="327" key="72" len="3"/>
          <note vol="100" pan="0" pos="330" key="69" len="3"/>
          <note vol="100" pan="0" pos="333" key="72" len="3"/>
          <note vol="100" pan="0" pos="336" key="74" len="3"/>
          <note vol="100" pan="0" pos="339" key="72" len="3"/>
          <note vol="100" pan="0" pos="342" key="74" len="3"/>
          <note vol="100" pan="0" pos="345" key="81" len="3"/>
          <note vol="100" pan="0" pos="348" key="74" len="3"/>
          <note vol="100" pan="0" pos="351" key="81" len="3"/>
          <note vol="100" pan="0" pos="354" key="84" len="3"/>
          <note vol="100" pan="0" pos="357" key="81" len="3"/>
        </pattern>
        <pattern muted="0" steps="16" name="" type="1" pos="3456">
          <note vol="100" pan="0" pos="0" key="61" len="3"/>
          <note vol="100" pan="0" pos="3" key="64" len="3"/>
          <note vol="100" pan="0" pos="6" key="68" len="3"/>
          <note vol="100" pan="0" pos="9" key="64" len="3"/>
          <note vol="100" pan="0" pos="12" key="68" len="3"/>
          <note vol="100" pan="0" pos="15" key="71" len="3"/>
          <note vol="100" pan="0" pos="18" key="68" len="3"/>
          <note vol="100" pan="0" pos="21" key="71" len="3"/>
          <note vol="100" pan="0" pos="24" key="73" len="3"/>
          <note vol="100" pan="0" pos="27" key="71" len="3"/>
          <note vol="100" pan="0" pos="30" key="73" len="3"/>
          <note vol="100" pan="0" pos="33" key="80" len="3"/>
          <note vol="100" pan="0" pos="36" key="73" len="3"/>
          <note vol="100" pan="0" pos="39" key="80" len="3"/>
          <note vol="100" pan="0" pos="42" key="85" len="3"/>
          <note vol="100" pan="0" pos="45" key="80" len="3"/>
          <note vol="100" pan="0" pos="48" key="73" len="3"/>
          <note vol="100" pan="0" pos="51" key="80" len="3"/>
          <note vol="100" pan="0" pos="54" key="85" len="3"/>
          <note vol="100" pan="0" pos="57" key="80" len="3"/>
          <note vol="100" pan="0" pos="60" key="85" len="3"/>
          <note vol="100" pan="0" pos="63" key="80" len="3"/>
          <note vol="100" pan="0" pos="66" key="73" len="3"/>
          <note vol="100" pan="0" pos="69" key="80" len="3"/>
          <note vol="100" pan="0" pos="72" key="85" len="3"/>
          <note vol="100" pan="0" pos="75" key="80" len="3"/>
          <note vol="100" pan="0" pos="78" key="85" len="3"/>
          <note vol="100" pan="0" pos="81" key="80" len="3"/>
          <note vol="100" pan="0" pos="84" key="73" len="3"/>
          <note vol="100" pan="0" pos="87" key="80" len="3"/>
          <note vol="100" pan="0" pos="90" key="85" len="3"/>
          <note vol="100" pan="0" pos="93" key="80" len="3"/>
          <note vol="100" pan="0" pos="96" key="85" len="3"/>
          <note vol="100" pan="0" pos="99" key="80" len="3"/>
          <note vol="100" pan="0" pos="102" key="73" len="3"/>
          <note vol="100" pan="0" pos="105" key="80" len="3"/>
          <note vol="100" pan="0" pos="108" key="85" len="3"/>
          <note vol="100" pan="0" pos="111" key="80" len="3"/>
          <note vol="100" pan="0" pos="114" key="85" len="3"/>
          <note vol="100" pan="0" pos="117" key="80" len="3"/>
          <note vol="100" pan="0" pos="120" key="73" len="3"/>
          <note vol="100" pan="0" pos="123" key="80" len="3"/>
          <note vol="100" pan="0" pos="126" key="85" len="3"/>
          <note vol="100" pan="0" pos="129" key="80" len="3"/>
          <note vol="100" pan="0" pos="132" key="85" len="3"/>
          <note vol="100" pan="0" pos="135" key="80" len="3"/>
          <note vol="100" pan="0" pos="138" key="73" len="3"/>
          <note vol="100" pan="0" pos="141" key="80" len="3"/>
          <note vol="100" pan="0" pos="144" key="85" len="3"/>
          <note vol="100" pan="0" pos="147" key="80" len="3"/>
          <note vol="100" pan="0" pos="150" key="85" len="3"/>
          <note vol="100" pan="0" pos="153" key="80" len="3"/>
          <note vol="100" pan="0" pos="156" key="73" len="3"/>
          <note vol="100" pan="0" pos="159" key="80" len="3"/>
          <note vol="100" pan="0" pos="162" key="85" len="3"/>
          <note vol="100" pan="0" pos="165" key="80" len="3"/>
          <note vol="100" pan="0" pos="168" key="85" len="3"/>
          <note vol="100" pan="0" pos="171" key="80" len="3"/>
          <note vol="100" pan="0" pos="174" key="73" len="3"/>
          <note vol="100" pan="0" pos="177" key="80" len="3"/>
          <note vol="100" pan="0" pos="180" key="85" len="3"/>
          <note vol="100" pan="0" pos="183" key="80" len="3"/>
          <note vol="100" pan="0" pos="186" key="85" len="3"/>
          <note vol="100" pan="0" pos="189" key="80" len="3"/>
        </pattern>
        <pattern muted="0" steps="16" name="" type="1" pos="3648">
          <note vol="100" pan="0" pos="0" key="73" len="3"/>
          <note vol="100" pan="0" pos="3" key="78" len="3"/>
          <note vol="100" pan="0" pos="6" key="85" len="3"/>
          <note vol="100" pan="0" pos="9" key="78" len="3"/>
          <note vol="100" pan="0" pos="12" key="85" len="3"/>
          <note vol="100" pan="0" pos="15" key="78" len="3"/>
          <note vol="100" pan="0" pos="18" key="73" len="3"/>
          <note vol="100" pan="0" pos="21" key="78" len="3"/>
          <note vol="100" pan="0" pos="24" key="85" len="3"/>
          <note vol="100" pan="0" pos="27" key="78" len="3"/>
          <note vol="100" pan="0" pos="30" key="85" len="3"/>
          <note vol="100" pan="0" pos="33" key="78" len="3"/>
          <note vol="100" pan="0" pos="36" key="73" len="3"/>
          <note vol="100" pan="0" pos="39" key="78" len="3"/>
          <note vol="100" pan="0" pos="42" key="85" len="3"/>
          <note vol="100" pan="0" pos="45" key="78" len="3"/>
          <note vol="100" pan="0" pos="48" key="85" len="3"/>
          <note vol="100" pan="0" pos="51" key="78" len="3"/>
          <note vol="100" pan="0" pos="54" key="73" len="3"/>
          <note vol="100" pan="0" pos="57" key="78" len="3"/>
          <note vol="100" pan="0" pos="60" key="85" len="3"/>
          <note vol="100" pan="0" pos="63" key="78" len="3"/>
          <note vol="100" pan="0" pos="66" key="85" len="3"/>
          <note vol="100" pan="0" pos="69" key="78" len="3"/>
          <note vol="100" pan="0" pos="72" key="73" len="3"/>
          <note vol="100" pan="0" pos="75" key="78" len="3"/>
          <note vol="100" pan="0" pos="78" key="85" len="3"/>
          <note vol="100" pan="0" pos="81" key="78" len="3"/>
          <note vol="100" pan="0" pos="84" key="85" len="3"/>
          <note vol="100" pan="0" pos="87" key="78" len="3"/>
          <note vol="100" pan="0" pos="90" key="73" len="3"/>
          <note vol="100" pan="0" pos="93" key="78" len="3"/>
          <note vol="100" pan="0" pos="96" key="85" len="3"/>
          <note vol="100" pan="0" pos="99" key="78" len="3"/>
          <note vol="100" pan="0" pos="102" key="85" len="3"/>
          <note vol="100" pan="0" pos="105" key="78" len="3"/>
          <note vol="100" pan="0" pos="108" key="73" len="3"/>
          <note vol="100" pan="0" pos="111" key="78" len="3"/>
          <note vol="100" pan="0" pos="114" key="85" len="3"/>
          <note vol="100" pan="0" pos="117" key="78" len="3"/>
          <note vol="100" pan="0" pos="120" key="85" len="3"/>
          <note vol="100" pan="0" pos="123" key="78" len="3"/>
          <note vol="100" pan="0" pos="126" key="73" len="3"/>
          <note vol="100" pan="0" pos="129" key="78" len="3"/>
          <note vol="100" pan="0" pos="132" key="85" len="3"/>
          <note vol="100" pan="0" pos="135" key="78" len="3"/>
          <note vol="100" pan="0" pos="138" key="85" len="3"/>
          <note vol="100" pan="0" pos="141" key="78" len="3"/>
          <note vol="100" pan="0" pos="144" key="71" len="3"/>
          <note vol="100" pan="0" pos="147" key="76" len="3"/>
          <note vol="100" pan="0" pos="150" key="83" len="3"/>
          <note vol="100" pan="0" pos="153" key="76" len="3"/>
          <note vol="100" pan="0" pos="156" key="83" len="3"/>
          <note vol="100" pan="0" pos="159" key="76" len="3"/>
          <note vol="100" pan="0" pos="162" key="71" len="3"/>
          <note vol="100" pan="0" pos="165" key="76" len="3"/>
          <note vol="100" pan="0" pos="168" key="83" len="3"/>
          <note vol="100" pan="0" pos="171" key="76" len="3"/>
          <note vol="100" pan="0" pos="174" key="83" len="3"/>
          <note vol="100" pan="0" pos="177" key="76" len="3"/>
          <note vol="100" pan="0" pos="180" key="71" len="3"/>
          <note vol="100" pan="0" pos="183" key="64" len="3"/>
          <note vol="100" pan="0" pos="186" key="71" len="3"/>
          <note vol="100" pan="0" pos="189" key="59" len="3"/>
        </pattern>
        <pattern muted="0" steps="16" name="" type="1" pos="4032">
          <note vol="100" pan="0" pos="0" key="56" len="12"/>
          <note vol="100" pan="0" pos="12" key="52" len="12"/>
          <note vol="100" pan="0" pos="24" key="56" len="12"/>
          <note vol="100" pan="0" pos="36" key="52" len="12"/>
          <note vol="100" pan="0" pos="48" key="56" len="12"/>
          <note vol="100" pan="0" pos="60" key="52" len="12"/>
          <note vol="100" pan="0" pos="72" key="56" len="12"/>
          <note vol="100" pan="0" pos="84" key="52" len="12"/>
          <note vol="100" pan="0" pos="96" key="56" len="12"/>
          <note vol="100" pan="0" pos="108" key="52" len="12"/>
          <note vol="100" pan="0" pos="120" key="56" len="12"/>
          <note vol="100" pan="0" pos="132" key="52" len="12"/>
          <note vol="100" pan="0" pos="144" key="56" len="12"/>
          <note vol="100" pan="0" pos="156" key="52" len="12"/>
          <note vol="100" pan="0" pos="168" key="56" len="12"/>
        </pattern>
        <pattern muted="0" steps="16" name="" type="1" pos="4224">
          <note vol="100" pan="0" pos="0" key="57" len="12"/>
          <note vol="100" pan="0" pos="12" key="54" len="12"/>
          <note vol="100" pan="0" pos="24" key="57" len="12"/>
          <note vol="100" pan="0" pos="36" key="54" len="12"/>
          <note vol="100" pan="0" pos="48" key="57" len="12"/>
          <note vol="100" pan="0" pos="60" key="54" len="12"/>
          <note vol="100" pan="0" pos="72" key="57" len="12"/>
          <note vol="100" pan="0" pos="84" key="54" len="12"/>
          <note vol="100" pan="0" pos="96" key="57" len="12"/>
          <note vol="100" pan="0" pos="108" key="54" len="12"/>
          <note vol="100" pan="0" pos="120" key="57" len="12"/>
          <note vol="100" pan="0" pos="132" key="54" len="12"/>
          <note vol="100" pan="0" pos="144" key="57" len="12"/>
          <note vol="100" pan="0" pos="156" key="54" len="12"/>
          <note vol="100" pan="0" pos="168" key="57" len="12"/>
        </pattern>
        <pattern muted="0" steps="16" name="" type="1" pos="4416">
          <note vol="100" pan="0" pos="0" key="54" len="12"/>
          <note vol="100" pan="0" pos="12" key="57" len="12"/>
          <note vol="100" pan="0" pos="24" key="54" len="12"/>
          <note vol="100" pan="0" pos="36" key="57" len="12"/>
          <note vol="100" pan="0" pos="48" key="54" len="12"/>
          <note vol="100" pan="0" pos="60" key="61" len="12"/>
          <note vol="100" pan="0" pos="72" key="54" len="12"/>
          <note vol="100" pan="0" pos="84" key="61" len="12"/>
          <note vol="100" pan="0" pos="96" key="54" len="12"/>
          <note vol="100" pan="0" pos="108" key="59" len="12"/>
          <note vol="100" pan="0" pos="120" key="54" len="12"/>
          <note vol="100" pan="0" pos="132" key="57" len="12"/>
          <note vol="100" pan="0" pos="144" key="54" len="12"/>
          <note vol="100" pan="0" pos="156" key="57" len="12"/>
          <note vol="100" pan="0" pos="168" key="54" len="12"/>
        </pattern>
      </track>
      <track muted="0" mutedBeforeSolo="0" name="SID>Lead2>Volume" type="5" solo="0">
        <automationtrack/>
        <automationpattern prog="1" name="SID>Lead2>Volume" pos="4608" mute="0" len="192" tens="1">
          <time pos="0" value="0" outValue="0"/>
          <time pos="192" value="100" outValue="100"/>
          <object id="8093"/>
        </automationpattern>
        <automationpattern prog="1" name="SID>Lead2>Volume" pos="4800" mute="0" len="192" tens="1">
          <time pos="0" value="0" outValue="0"/>
          <time pos="192" value="100" outValue="100"/>
          <object id="8093"/>
        </automationpattern>
        <automationpattern prog="1" name="SID>Lead2>Volume" pos="4992" mute="0" len="192" tens="1">
          <time pos="0" value="0" outValue="0"/>
          <time pos="192" value="100" outValue="100"/>
          <object id="8093"/>
        </automationpattern>
        <automationpattern prog="0" name="SID>Lead2>Volume" pos="2880" mute="0" len="192" tens="1">
          <time pos="0" value="30" outValue="30"/>
          <object id="8093"/>
        </automationpattern>
        <automationpattern prog="1" name="SID>Lead2>Volume" pos="3840" mute="0" len="192" tens="1">
          <time pos="0" value="0" outValue="0"/>
          <time pos="192" value="50" outValue="50"/>
          <object id="8093"/>
        </automationpattern>
        <automationpattern prog="1" name="SID>Lead2>Volume" pos="4032" mute="0" len="192" tens="1">
          <time pos="0" value="0" outValue="0"/>
          <time pos="192" value="50" outValue="50"/>
          <object id="8093"/>
        </automationpattern>
        <automationpattern prog="1" name="SID>Lead2>Volume" pos="4224" mute="0" len="192" tens="1">
          <time pos="0" value="0" outValue="0"/>
          <time pos="192" value="50" outValue="50"/>
          <object id="8093"/>
        </automationpattern>
        <automationpattern prog="1" name="SID>Lead2>Volume" pos="4416" mute="0" len="192" tens="1">
          <time pos="0" value="0" outValue="0"/>
          <time pos="192" value="50" outValue="50"/>
          <object id="8093"/>
        </automationpattern>
        <automationpattern prog="1" name="SID>Lead2>Volume" pos="5184" mute="0" len="192" tens="1">
          <time pos="0" value="0" outValue="0"/>
          <time pos="192" value="100" outValue="100"/>
          <object id="8093"/>
        </automationpattern>
      </track>
    </trackcontainer>
    <track muted="0" mutedBeforeSolo="0" name="Automation track" type="6" solo="0">
      <automationtrack/>
      <automationpattern prog="0" name="Numerator" pos="0" mute="0" len="192" tens="1"/>
      <automationpattern prog="0" name="Denominator" pos="0" mute="0" len="192" tens="1"/>
      <automationpattern prog="0" name="Tempo" pos="0" mute="0" len="192" tens="1"/>
      <automationpattern prog="0" name="Master volume" pos="0" mute="0" len="192" tens="1"/>
      <automationpattern prog="0" name="Master pitch" pos="0" mute="0" len="192" tens="1"/>
    </track>
    <fxmixer minimized="0" x="1" visible="1" height="333" maximized="0" y="588" width="1575">
      <fxchannel muted="0" name="Master" soloed="0" num="0" volume="1">
        <fxchain enabled="0" numofeffects="0"/>
      </fxchannel>
      <fxchannel muted="0" name="Main" soloed="0" num="1" volume="1">
        <fxchain enabled="0" numofeffects="0"/>
        <send amount="1" channel="0"/>
      </fxchannel>
      <fxchannel muted="0" name="Hall" soloed="0" num="2" volume="0.837">
        <fxchain enabled="1" numofeffects="2">
          <effect on="1" autoquit_denominator="4" autoquit_numerator="4" autoquit="1" wet="1" name="vsteffect" autoquit_syncmode="0" gate="0">
            <vsteffectcontrols param5="5:Early Ref.:0" plugin="Effects\Classic Reverb\Classic Reverb.dll" param4="4:Lo Cut:0.81" param2="2:Predelay:0.5" param3="3:Hi Damp:0.11" program="0" guivisible="0" param6="6:Mix:1" numparams="8" param0="0:Size:0.71" param7="7:Level:0.5" param1="1:Damping:0.16"/>
            <key>
              <attribute name="file" value="Effects\Classic Reverb\Classic Reverb.dll"/>
            </key>
          </effect>
          <effect on="1" autoquit_denominator="4" autoquit_numerator="4" autoquit="1" name="stereomatrix" autoquit_syncmode="0" gate="0">
            <wet id="27975" scale_type="linear" value="0.99"/>
            <stereomatrixcontrols r-r="1" l-l="1" l-r="1" r-l="1"/>
            <key/>
          </effect>
        </fxchain>
        <send amount="1" channel="0"/>
      </fxchannel>
      <fxchannel muted="0" name="SID" soloed="0" num="3" volume="0.768">
        <fxchain enabled="0" numofeffects="0"/>
        <send amount="1" channel="1"/>
      </fxchannel>
      <fxchannel muted="0" name="SID>Pop>RAW" soloed="0" num="4" volume="0.674">
        <fxchain enabled="0" numofeffects="0"/>
        <send channel="5">
          <amount id="5309" scale_type="linear" value="1"/>
        </send>
        <send amount="1" channel="6"/>
      </fxchannel>
      <fxchannel muted="0" name="SID>Delay" soloed="0" num="5" volume="0.209">
        <fxchain enabled="1" numofeffects="1">
          <effect on="1" autoquit_denominator="4" autoquit_numerator="4" autoquit="1" wet="1" name="vsteffect" autoquit_syncmode="0" gate="0">
            <vsteffectcontrols param5="5:T.S.D.:0.28" numparams="14" param6="6:Time:0.5" param1="1:Mono:0" guivisible="0" program="0" param3="3:Sync:1" param9="9:Quality:1" param4="4:T.S.N.:0.15" param8="8:Ping-Pong:1" param10="10:Low Cut:0" param0="0:Pan:0.96" plugin="Effects\Classic Delay\Classic Delay.dll" param2="2:Type:0.5" param12="12:Mix:1" param7="7:Feedback:0.6" param13="13:Level:0.5" param11="11:Hi Cut:1">
              <param0 id="21288" scale_type="linear" value="0.96"/>
            </vsteffectcontrols>
            <key>
              <attribute name="file" value="Effects\Classic Delay\Classic Delay.dll"/>
            </key>
          </effect>
        </fxchain>
        <send amount="1" channel="3"/>
      </fxchannel>
      <fxchannel muted="0" name="Sid>Pop>" soloed="0" num="6" volume="0.558">
        <fxchain enabled="0" numofeffects="0"/>
        <send amount="1" channel="3"/>
      </fxchannel>
      <fxchannel muted="0" name="SID>Bass" soloed="0" num="7" volume="0.697">
        <fxchain enabled="1" numofeffects="1">
          <effect on="1" autoquit_denominator="4" autoquit_numerator="4" autoquit="1" wet="1" name="bassbooster" autoquit_syncmode="0" gate="0">
            <bassboostercontrols gain="1" ratio="1" freq="100"/>
            <key/>
          </effect>
        </fxchain>
        <send amount="1" channel="3"/>
      </fxchannel>
      <fxchannel muted="0" name="SID>Lead1" soloed="0" num="8" volume="0.489">
        <fxchain enabled="1" numofeffects="1">
          <effect on="1" autoquit_denominator="4" autoquit_numerator="4" autoquit="1" wet="1" name="vsteffect" autoquit_syncmode="0" gate="0">
            <vsteffectcontrols plugin="Effects\Wider\Wider32.dll" program="0" guivisible="0" chunk="2o99Pg=="/>
            <key>
              <attribute name="file" value="Effects\Wider\Wider32.dll"/>
            </key>
          </effect>
        </fxchain>
        <send amount="1" channel="3"/>
        <send amount="1" channel="5"/>
      </fxchannel>
      <fxchannel muted="0" name="SID>Lead2" soloed="0" num="9" volume="0.3">
        <fxchain enabled="1" numofeffects="1">
          <effect on="1" autoquit_denominator="4" autoquit_numerator="4" autoquit="1" wet="1" name="vsteffect" autoquit_syncmode="0" gate="0">
            <vsteffectcontrols plugin="Effects\Wider\Wider32.dll" program="0" guivisible="0" chunk="AACAPw=="/>
            <key>
              <attribute name="file" value="Effects\Wider\Wider32.dll"/>
            </key>
          </effect>
        </fxchain>
        <send amount="1" channel="3"/>
      </fxchannel>
      <fxchannel muted="0" name="BitDrums" soloed="0" num="10" volume="1">
        <fxchain enabled="0" numofeffects="0"/>
        <send amount="1" channel="1"/>
      </fxchannel>
      <fxchannel muted="0" name="BitDrums>BD" soloed="0" num="11" volume="0.884">
        <fxchain enabled="0" numofeffects="0"/>
        <send amount="1" channel="10"/>
      </fxchannel>
      <fxchannel muted="0" name="BitDrums>Snare" soloed="0" num="12" volume="0.837">
        <fxchain enabled="0" numofeffects="0"/>
        <send amount="1" channel="10"/>
      </fxchannel>
      <fxchannel muted="0" name="BitDrums>HiHat" soloed="0" num="13" volume="0.884">
        <fxchain enabled="0" numofeffects="0"/>
        <send amount="1" channel="10"/>
      </fxchannel>
      <fxchannel muted="0" name="Chords" soloed="0" num="14" volume="0.604">
        <fxchain enabled="1" numofeffects="2">
          <effect on="1" autoquit_denominator="4" autoquit_numerator="4" autoquit="1" wet="1" name="vsteffect" autoquit_syncmode="0" gate="0">
            <vsteffectcontrols plugin="Effects\DeadDuckSoftware\DD Tremolo.dll" param4="4:Depth:0.635" param2="2::8.47501e+11" param3="3:Rate:0.83" program="0" guivisible="0" numparams="5" param0="0:Bypass:0" param1="1:Sync:1"/>
            <key>
              <attribute name="file" value="Effects\DeadDuckSoftware\DD Tremolo.dll"/>
            </key>
          </effect>
          <effect on="1" autoquit_denominator="4" autoquit_numerator="4" autoquit="1" wet="1" name="vsteffect" autoquit_syncmode="0" gate="0">
            <vsteffectcontrols param5="5:T.S.D.:0.49" numparams="14" param6="6:Time:0.5" param1="1:Mono:0" guivisible="0" program="0" param3="3:Sync:1" param9="9:Quality:1" param4="4:T.S.N.:0.02" param8="8:Ping-Pong:1" param10="10:Low Cut:0" param0="0:Pan:0.5" plugin="Effects\Classic Delay\Classic Delay.dll" param2="2:Type:0.5" param12="12:Mix:0.15" param7="7:Feedback:0.4" param13="13:Level:0.5" param11="11:Hi Cut:1"/>
            <key>
              <attribute name="file" value="Effects\Classic Delay\Classic Delay.dll"/>
            </key>
          </effect>
        </fxchain>
        <send channel="2">
          <amount id="8565" scale_type="linear" value="0.234669"/>
        </send>
        <send amount="1" channel="1"/>
      </fxchannel>
      <fxchannel muted="0" name="Piano" soloed="0" num="15" volume="0.423">
        <fxchain enabled="1" numofeffects="1">
          <effect on="1" autoquit_denominator="4" autoquit_numerator="4" autoquit="1" name="stereomatrix" autoquit_syncmode="0" gate="0">
            <wet id="26757" scale_type="linear" value="0"/>
            <stereomatrixcontrols r-r="1" l-l="1" l-r="0.333" r-l="0.333"/>
            <key/>
          </effect>
        </fxchain>
        <send channel="2">
          <amount id="16932" scale_type="linear" value="0.444"/>
        </send>
        <send amount="1" channel="1"/>
      </fxchannel>
      <fxchannel muted="0" name="Piano>Base" soloed="0" num="16" volume="1">
        <fxchain enabled="0" numofeffects="0"/>
        <send amount="1" channel="15"/>
      </fxchannel>
      <fxchannel muted="0" name="Piano>Texture" soloed="0" num="17" volume="0.95">
        <fxchain enabled="1" numofeffects="2">
          <effect on="1" autoquit_denominator="4" autoquit_numerator="4" autoquit="1" wet="1" name="ladspaeffect" autoquit_syncmode="0" gate="0">
            <ladspacontrols ports="2" link="1">
              <port00 data="1e-6" link="1"/>
              <port10 data="1e-6"/>
            </ladspacontrols>
            <key>
              <attribute name="file" value="const_1909"/>
              <attribute name="plugin" value="const"/>
            </key>
          </effect>
          <effect on="1" autoquit_denominator="4" autoquit_numerator="4" autoquit="1" wet="1" name="eq" autoquit_syncmode="0" gate="0">
            <Eq Peak3gain="5.4" LP24="0" Peak4bw="0.3" HP12="1" HP24="0" Highshelfactive="0" LPactive="0" Outputgain="0" AnalyseIn="1" HP="0" Peak1active="0" HighShelfgain="0" LP="0" LPres="0.707" Peak2active="1" HighShelfres="1.4" LowShelfres="1.4" Lowshelfgain="0" Peak3bw="0.709" HPres="0.707" Peak2bw="0.864" LP12="1" AnalyseOut="1" Peak3active="1" HPactive="0" Peak4active="0" Peak1bw="0.3" LP48="0" Lowshelfactive="0" Peak4gain="0" Peak2gain="-12.96" HP48="0">
              <Inputgain id="14169" scale_type="log" value="0"/>
              <Peak1gain id="9513" scale_type="log" value="0"/>
              <HPfreq id="22249" scale_type="log" value="48.3833"/>
              <LowShelffreq id="4282" scale_type="log" value="80"/>
              <Peak1freq id="31622" scale_type="log" value="120"/>
              <Peak2freq id="24760" scale_type="log" value="269.944"/>
              <Peak3freq id="13588" scale_type="log" value="369.57"/>
              <Peak4freq id="3624" scale_type="log" value="4000"/>
              <Highshelffreq id="6832" scale_type="log" value="12000"/>
              <LPfreq id="7967" scale_type="log" value="18000"/>
            </Eq>
            <key/>
          </effect>
        </fxchain>
        <send amount="1" channel="15"/>
      </fxchannel>
    </fxmixer>
    <ControllerRackView minimized="0" x="550" visible="0" height="200" maximized="0" y="475" width="350"/>
    <pianoroll minimized="0" x="804" visible="0" height="686" maximized="0" y="51" width="970"/>
    <automationeditor minimized="0" x="852" visible="0" height="400" maximized="0" y="104" width="860"/>
    <projectnotes minimized="0" x="888" visible="1" height="584" maximized="0" y="0" width="687"><![CDATA[<!DOCTYPE HTML PUBLIC "-//W3C//DTD HTML 4.0//EN" "http://www.w3.org/TR/REC-html40/strict.dtd">
<html><head><meta name="qrichtext" content="1" /><style type="text/css">
p, li { white-space: pre-wrap; }
</style></head><body style=" font-family:'MS Shell Dlg 2'; font-size:8.25pt; font-weight:400; font-style:normal;">
<p style=" margin-top:0px; margin-bottom:0px; margin-left:0px; margin-right:0px; -qt-block-indent:0; text-indent:0px;"><span style=" color:#e0e0e0;">Greetings.</span></p>
<p style=" margin-top:0px; margin-bottom:0px; margin-left:0px; margin-right:0px; -qt-block-indent:0; text-indent:0px;"><span style=" color:#e0e0e0;">Please use this in LMMS 1.3 or higher. Previous versions require editing to load correctly.</span></p>
<p style=" margin-top:0px; margin-bottom:0px; margin-left:0px; margin-right:0px; -qt-block-indent:0; text-indent:0px;"><span style=" color:#e0e0e0;">Constant Signal Generator is used to counteract an &quot;Equalizer uses crazy high CPU when idle without input&quot;-bug.</span></p>
<p style=" margin-top:0px; margin-bottom:0px; margin-left:0px; margin-right:0px; -qt-block-indent:0; text-indent:0px;"><span style=" color:#e0e0e0;">Have &quot;Keep effects running even without input&quot; on.</span></p>
<p style="-qt-paragraph-type:empty; margin-top:0px; margin-bottom:0px; margin-left:0px; margin-right:0px; -qt-block-indent:0; text-indent:0px; color:#e0e0e0;"><br /></p>
<p style="-qt-paragraph-type:empty; margin-top:0px; margin-bottom:0px; margin-left:0px; margin-right:0px; -qt-block-indent:0; text-indent:0px; color:#e0e0e0;"><br /></p>
<p style=" margin-top:0px; margin-bottom:0px; margin-left:0px; margin-right:0px; -qt-block-indent:0; text-indent:0px;"><span style=" color:#e0e0e0;">Instruments:</span></p>
<p style=" margin-top:0px; margin-bottom:0px; margin-left:0px; margin-right:0px; -qt-block-indent:0; text-indent:0px;"><span style=" color:#e0e0e0;">FluidR3 GM: Freely downloadable.</span></p>
<p style=" margin-top:0px; margin-bottom:0px; margin-left:0px; margin-right:0px; -qt-block-indent:0; text-indent:0px;"><span style=" color:#e0e0e0;">Acoustica Expanded Instruments: Should be available even in the trial version of Acoustica Mixcraft.</span></p>
<p style=" margin-top:0px; margin-bottom:0px; margin-left:0px; margin-right:0px; -qt-block-indent:0; text-indent:0px;"><span style=" color:#e0e0e0;">SID: Built into LMMS.</span></p>
<p style="-qt-paragraph-type:empty; margin-top:0px; margin-bottom:0px; margin-left:0px; margin-right:0px; -qt-block-indent:0; text-indent:0px; color:#e0e0e0;"><br /></p>
<p style=" margin-top:0px; margin-bottom:0px; margin-left:0px; margin-right:0px; -qt-block-indent:0; text-indent:0px;"><span style=" color:#e0e0e0;">Effects:</span></p>
<p style=" margin-top:0px; margin-bottom:0px; margin-left:0px; margin-right:0px; -qt-block-indent:0; text-indent:0px;"><span style=" color:#e0e0e0;">Classic Delay, Classic Reverb: Kjrhus Audio Classic Collection. Should be available even in the trial version of Acoustica's Mixcraft.</span></p>
<p style=" margin-top:0px; margin-bottom:0px; margin-left:0px; margin-right:0px; -qt-block-indent:0; text-indent:0px;"><span style=" color:#e0e0e0;">DD-Tremolo: Dead Duck MDA variants. Freely available.</span></p>
<p style=" margin-top:0px; margin-bottom:0px; margin-left:0px; margin-right:0px; -qt-block-indent:0; text-indent:0px;"><span style=" color:#e0e0e0;">Wider32 from Polyverse: Freely available.</span></p>
<p style=" margin-top:0px; margin-bottom:0px; margin-left:0px; margin-right:0px; -qt-block-indent:0; text-indent:0px;"><span style=" color:#e0e0e0;">Stereo Matrix, Bass Booster, Equalizer, Constant Signal Generator: Built into LMMS.</span></p>
<p style="-qt-paragraph-type:empty; margin-top:0px; margin-bottom:0px; margin-left:0px; margin-right:0px; -qt-block-indent:0; text-indent:0px; color:#e0e0e0;"><br /></p>
<p style=" margin-top:0px; margin-bottom:0px; margin-left:0px; margin-right:0px; -qt-block-indent:0; text-indent:0px;"><span style=" color:#e0e0e0;">Released as .mmp, adjust paths as desired.</span></p>
<p style="-qt-paragraph-type:empty; margin-top:0px; margin-bottom:0px; margin-left:0px; margin-right:0px; -qt-block-indent:0; text-indent:0px; color:#e0e0e0;"><br /></p>
<p style="-qt-paragraph-type:empty; margin-top:0px; margin-bottom:0px; margin-left:0px; margin-right:0px; -qt-block-indent:0; text-indent:0px; color:#e0e0e0;"><br /></p>
<p style=" margin-top:0px; margin-bottom:0px; margin-left:0px; margin-right:0px; -qt-block-indent:0; text-indent:0px;">Please note that the author explicitely wishes to have eventual derivates or redistributions distributed ONLY as .mmp files, not .mmpz.</p>
<p style=" margin-top:0px; margin-bottom:0px; margin-left:0px; margin-right:0px; -qt-block-indent:0; text-indent:0px;">There is nothing the license can do from stopping you as saving it as .mmpz, except that the author will insult you severely.</p>
<p style="-qt-paragraph-type:empty; margin-top:0px; margin-bottom:0px; margin-left:0px; margin-right:0px; -qt-block-indent:0; text-indent:0px;"><br /></p>
<p style=" margin-top:0px; margin-bottom:0px; margin-left:0px; margin-right:0px; -qt-block-indent:0; text-indent:0px;">Should you have received this file as an .mmpz, please insult its forwarder.</p>
<p style=" margin-top:0px; margin-bottom:0px; margin-left:0px; margin-right:0px; -qt-block-indent:0; text-indent:0px;">To convert the file into .mmp, follow these steps:</p>
<p style="-qt-paragraph-type:empty; margin-top:0px; margin-bottom:0px; margin-left:0px; margin-right:0px; -qt-block-indent:0; text-indent:0px;"><br /></p>
<p style=" margin-top:0px; margin-bottom:0px; margin-left:0px; margin-right:0px; -qt-block-indent:0; text-indent:0px;">1.: Create a a file called &quot;Decompress.cmd&quot; in the LMMS directory. (Where lmms.exe is located.)</p>
<p style=" margin-top:0px; margin-bottom:0px; margin-left:0px; margin-right:0px; -qt-block-indent:0; text-indent:0px;">2.: Right click on file, click &quot;Edit&quot;.</p>
<p style=" margin-top:0px; margin-bottom:0px; margin-left:0px; margin-right:0px; -qt-block-indent:0; text-indent:0px;">3.: Put the following line into the file:</p>
<p style="-qt-paragraph-type:empty; margin-top:0px; margin-bottom:0px; margin-left:0px; margin-right:0px; -qt-block-indent:0; text-indent:0px;"><br /></p>
<p style=" margin-top:0px; margin-bottom:0px; margin-left:0px; margin-right:0px; -qt-block-indent:0; text-indent:0px;">&quot;%~dp0LMMS.exe&quot; -d &quot;%*&quot; &gt; &quot;%*.mmp&quot;</p>
<p style="-qt-paragraph-type:empty; margin-top:0px; margin-bottom:0px; margin-left:0px; margin-right:0px; -qt-block-indent:0; text-indent:0px;"><br /></p>
<p style=" margin-top:0px; margin-bottom:0px; margin-left:0px; margin-right:0px; -qt-block-indent:0; text-indent:0px;">This does the following:</p>
<p style=" margin-top:0px; margin-bottom:0px; margin-left:0px; margin-right:0px; -qt-block-indent:0; text-indent:0px;">%~dp0 return the folder where the .cmd file is located.</p>
<p style=" margin-top:0px; margin-bottom:0px; margin-left:0px; margin-right:0px; -qt-block-indent:0; text-indent:0px;">It then calls LMMS.exe inside that folder.</p>
<p style=" margin-top:0px; margin-bottom:0px; margin-left:0px; margin-right:0px; -qt-block-indent:0; text-indent:0px;">-d is the decompress option for an .mmpz file.</p>
<p style=" margin-top:0px; margin-bottom:0px; margin-left:0px; margin-right:0px; -qt-block-indent:0; text-indent:0px;">%* returns any parameters given to the .cmd file.</p>
<p style=" margin-top:0px; margin-bottom:0px; margin-left:0px; margin-right:0px; -qt-block-indent:0; text-indent:0px;">&gt; sends the output into a file.</p>
<p style="-qt-paragraph-type:empty; margin-top:0px; margin-bottom:0px; margin-left:0px; margin-right:0px; -qt-block-indent:0; text-indent:0px;"><br /></p>
<p style=" margin-top:0px; margin-bottom:0px; margin-left:0px; margin-right:0px; -qt-block-indent:0; text-indent:0px;">If you drag an .mmpz file onto the .cmd file, it will decompress it into &quot;[filename].mmpz.mmp&quot;, at the original location.</p>
<p style="-qt-paragraph-type:empty; margin-top:0px; margin-bottom:0px; margin-left:0px; margin-right:0px; -qt-block-indent:0; text-indent:0px;"><br /></p></body></html>]]></projectnotes>
    <timeline lp0pos="0" lpstate="1" stopbehaviour="1" lp1pos="6144"/>
    <controllers/>
  </song>
</lmms-project>
