<?xml version="1.0"?>
<!DOCTYPE lmms-project>
<lmms-project version="23" type="song" creator="LMMS" creatorversion="1.3.0-alpha.1.231+g49b1f83e4">
  <head timesig_denominator="4" timesig_numerator="4" mastervol="100" masterpitch="0" bpm="115"/>
  <song>
    <trackcontainer maximized="0" visible="1" minimized="0" x="22" width="1390" type="song" y="3" height="462">
      <track muted="0" mutedBeforeSolo="0" name="Lyrics" type="1" solo="0">
        <patterntrack>
          <trackcontainer maximized="0" visible="1" minimized="0" x="610" width="700" type="patternstore" y="5" height="300"/>
        </patterntrack>
        <patternclip muted="0" pos="1920" name="I urged you to" len="192"/>
        <patternclip muted="0" pos="2112" name="Reconsider" len="192"/>
        <patternclip muted="0" pos="2304" name="That it would turn bad" len="192"/>
        <patternclip muted="0" pos="2496" name="In the" len="192"/>
        <patternclip muted="0" pos="2688" name="End, I fell to" len="192"/>
        <patternclip muted="0" pos="2880" name="Your Whisper-ers" len="192"/>
        <patternclip muted="0" pos="3072" name="A mistake I must" len="192"/>
        <patternclip muted="0" pos="3264" name="Admit" len="192"/>
        <patternclip muted="0" pos="3456" name="Now we are here" len="192"/>
        <patternclip muted="0" pos="3648" name="At the crossroads" len="192"/>
        <patternclip muted="0" pos="3840" name="Our paths having been" len="192"/>
        <patternclip muted="0" pos="4032" name="Se-et, and the" len="192"/>
        <patternclip muted="0" pos="4224" name="Pain flows, so" len="192"/>
        <patternclip muted="0" pos="4416" name="gra-cious-ly, though" len="192"/>
        <patternclip muted="0" pos="4608" name="we don't know just" len="192"/>
        <patternclip muted="0" pos="4800" name="what we had" len="192"/>
        <patternclip muted="0" pos="8448" name="I urged you to" len="192"/>
        <patternclip muted="0" pos="8640" name="Reconsider" len="192"/>
        <patternclip muted="0" pos="8832" name="That it would turn bad" len="192"/>
        <patternclip muted="0" pos="9024" name="In the" len="192"/>
        <patternclip muted="0" pos="9216" name="End, I fell to" len="192"/>
        <patternclip muted="0" pos="9408" name="Your Whisper-ers" len="192"/>
        <patternclip muted="0" pos="9600" name="A mistake I must" len="192"/>
        <patternclip muted="0" pos="9792" name="Admit" len="192"/>
        <patternclip muted="0" pos="9984" name="Now we are here" len="192"/>
        <patternclip muted="0" pos="10176" name="At the crossroads" len="192"/>
        <patternclip muted="0" pos="10368" name="Our paths having been" len="192"/>
        <patternclip muted="0" pos="10560" name="Se-et, and the" len="192"/>
        <patternclip muted="0" pos="10752" name="Pain flows, so" len="192"/>
        <patternclip muted="0" pos="10944" name="gra-cious-ly, though" len="192"/>
        <patternclip muted="0" pos="11136" name="we don't know just" len="192"/>
        <patternclip muted="0" pos="11328" name="what we had" len="192"/>
      </track>
      <track muted="1" mutedBeforeSolo="1" name="Vocal" type="0" solo="0">
        <instrumenttrack pitchrange="1" usemasterpitch="1" vol="100" keymap="0" pan="0" basenote="69" enablecc="0" enabled="0" firstkey="0" range_import="1" mixch="0" lastkey="127" scale="0" pitch="0">
          <midicontrollers cc36="0" cc15="0" cc90="0" cc2="0" cc41="0" cc85="0" cc45="0" cc88="0" cc124="0" cc31="0" cc21="0" cc91="0" cc109="0" cc32="0" cc53="0" cc60="0" cc25="0" cc64="0" cc97="0" cc55="0" cc66="0" cc0="0" cc34="0" cc106="0" cc63="0" cc43="0" cc100="0" cc76="0" cc98="0" cc4="0" cc84="0" cc44="0" cc78="0" cc14="0" cc23="0" cc11="0" cc75="0" cc87="0" cc103="0" cc107="0" cc26="0" cc1="0" cc50="0" cc86="0" cc112="0" cc16="0" cc20="0" cc82="0" cc101="0" cc113="0" cc46="0" cc96="0" cc19="0" cc119="0" cc65="0" cc108="0" cc61="0" cc12="0" cc127="0" cc52="0" cc56="0" cc6="0" cc10="0" cc102="0" cc126="0" cc29="0" cc37="0" cc24="0" cc38="0" cc39="0" cc115="0" cc40="0" cc27="0" cc33="0" cc69="0" cc18="0" cc22="0" cc77="0" cc121="0" cc35="0" cc9="0" cc73="0" cc51="0" cc48="0" cc67="0" cc57="0" cc93="0" cc80="0" cc5="0" cc28="0" cc62="0" cc104="0" cc122="0" cc49="0" cc123="0" cc42="0" cc68="0" cc74="0" cc117="0" cc3="0" cc59="0" cc99="0" cc79="0" cc72="0" cc83="0" cc120="0" cc70="0" cc89="0" cc47="0" cc92="0" cc116="0" cc125="0" cc94="0" cc7="0" cc71="0" cc17="0" cc105="0" cc111="0" cc118="0" cc8="0" cc95="0" cc54="0" cc110="0" cc114="0" cc81="0" cc13="0" cc30="0" cc58="0"/>
          <instrument name="sf2player">
            <sf2player reverbDamping="0" reverbWidth="0.5" reverbLevel="0.9" chorusNum="3" gain="1" chorusLevel="2" chorusDepth="8" chorusSpeed="0.3" reverbOn="0" reverbRoomSize="0.2" src="usersoundfont:Creative (emu10k1)8MBGMSFX.SF2" bank="0" chorusOn="0" patch="0">
              <key/>
            </sf2player>
          </instrument>
          <eldata fcut="14000" fres="0.5" ftype="0" fwet="0">
            <elvol lspd_numerator="4" dec="0.5" pdel="0" latt="0" sustain="0.5" hold="0.5" lamt="0" lspd_denominator="4" att="0" lspd="0.1" lpdel="0" x100="0" amt="0" lspd_syncmode="0" lshp="0" rel="0.1" userwavefile="" ctlenvamt="0"/>
            <elcut lspd_numerator="4" dec="0.5" pdel="0" latt="0" sustain="0.5" hold="0.5" lamt="0" lspd_denominator="4" att="0" lspd="0.1" lpdel="0" x100="0" amt="0" lspd_syncmode="0" lshp="0" rel="0.1" userwavefile="" ctlenvamt="0"/>
            <elres lspd_numerator="4" dec="0.5" pdel="0" latt="0" sustain="0.5" hold="0.5" lamt="0" lspd_denominator="4" att="0" lspd="0.1" lpdel="0" x100="0" amt="0" lspd_syncmode="0" lshp="0" rel="0.1" userwavefile="" ctlenvamt="0"/>
          </eldata>
          <chordcreator chord="0" chord-enabled="0" chordrange="1"/>
          <arpeggiator arptime_numerator="4" arpgate="100" arpcycle="0" arpdir="0" arpmode="0" arpskip="0" arptime_denominator="4" arprepeats="1" arp-enabled="0" arprange="1" arptime="200" arp="0" arpmiss="0" arptime_syncmode="0"/>
          <midiport inputchannel="0" writable="0" fixedinputvelocity="-1" fixedoutputvelocity="-1" outputprogram="1" readable="1" fixedoutputnote="-1" basevelocity="63" outputchannel="1" inports="" inputcontroller="0" outputcontroller="0"/>
          <fxchain enabled="0" numofeffects="0"/>
        </instrumenttrack>
        <midiclip muted="0" pos="1920" name="" type="1" steps="16">
          <note pos="0" vol="100" pan="0" key="84" len="12"/>
          <note pos="24" vol="100" pan="0" key="72" len="36"/>
          <note pos="72" vol="100" pan="0" key="76" len="48"/>
          <note pos="120" vol="100" pan="0" key="79" len="72"/>
          <note pos="192" vol="100" pan="0" key="75" len="12"/>
          <note pos="216" vol="100" pan="0" key="75" len="36"/>
          <note pos="264" vol="100" pan="0" key="76" len="48"/>
          <note pos="312" vol="100" pan="0" key="78" len="72"/>
          <note pos="384" vol="100" pan="0" key="83" len="12"/>
          <note pos="408" vol="100" pan="0" key="71" len="36"/>
          <note pos="456" vol="100" pan="0" key="74" len="48"/>
          <note pos="504" vol="100" pan="0" key="76" len="48"/>
          <note pos="552" vol="100" pan="0" key="73" len="48"/>
          <note pos="720" vol="100" pan="0" key="69" len="24"/>
          <note pos="744" vol="100" pan="0" key="71" len="24"/>
          <note pos="768" vol="100" pan="0" key="72" len="72"/>
          <note pos="840" vol="100" pan="0" key="76" len="48"/>
          <note pos="888" vol="100" pan="0" key="72" len="48"/>
          <note pos="936" vol="100" pan="0" key="67" len="24"/>
          <note pos="960" vol="100" pan="0" key="75" len="60"/>
          <note pos="1032" vol="100" pan="0" key="71" len="72"/>
          <note pos="1104" vol="100" pan="0" key="69" len="24"/>
          <note pos="1128" vol="100" pan="0" key="67" len="24"/>
          <note pos="1152" vol="100" pan="0" key="71" len="24"/>
          <note pos="1176" vol="100" pan="0" key="64" len="48"/>
          <note pos="1224" vol="100" pan="0" key="76" len="36"/>
          <note pos="1272" vol="100" pan="0" key="74" len="48"/>
          <note pos="1320" vol="100" pan="0" key="73" len="36"/>
          <note pos="1368" vol="100" pan="0" key="71" len="24"/>
          <note pos="1392" vol="100" pan="0" key="69" len="24"/>
        </midiclip>
        <midiclip muted="0" pos="3456" name="" type="1" steps="16">
          <note pos="0" vol="100" pan="0" key="84" len="12"/>
          <note pos="24" vol="100" pan="0" key="72" len="36"/>
          <note pos="72" vol="100" pan="0" key="76" len="48"/>
          <note pos="120" vol="100" pan="0" key="79" len="72"/>
          <note pos="192" vol="100" pan="0" key="75" len="12"/>
          <note pos="216" vol="100" pan="0" key="75" len="36"/>
          <note pos="264" vol="100" pan="0" key="76" len="48"/>
          <note pos="312" vol="100" pan="0" key="78" len="72"/>
          <note pos="384" vol="100" pan="0" key="83" len="12"/>
          <note pos="408" vol="100" pan="0" key="84" len="36"/>
          <note pos="456" vol="100" pan="0" key="83" len="48"/>
          <note pos="504" vol="100" pan="0" key="79" len="48"/>
          <note pos="552" vol="100" pan="0" key="81" len="36"/>
          <note pos="588" vol="100" pan="0" key="79" len="12"/>
          <note pos="600" vol="100" pan="0" key="76" len="48"/>
          <note pos="720" vol="100" pan="0" key="84" len="24"/>
          <note pos="744" vol="100" pan="0" key="83" len="24"/>
          <note pos="768" vol="100" pan="0" key="81" len="60"/>
          <note pos="828" vol="100" pan="0" key="83" len="6"/>
          <note pos="834" vol="100" pan="0" key="81" len="6"/>
          <note pos="840" vol="100" pan="0" key="79" len="48"/>
          <note pos="888" vol="100" pan="0" key="76" len="48"/>
          <note pos="960" vol="100" pan="0" key="78" len="72"/>
          <note pos="1032" vol="100" pan="0" key="79" len="72"/>
          <note pos="1104" vol="100" pan="0" key="81" len="24"/>
          <note pos="1128" vol="100" pan="0" key="76" len="24"/>
          <note pos="1152" vol="100" pan="0" key="83" len="24"/>
          <note pos="1176" vol="100" pan="0" key="79" len="48"/>
          <note pos="1224" vol="100" pan="0" key="81" len="48"/>
          <note pos="1272" vol="100" pan="0" key="83" len="24"/>
          <note pos="1320" vol="100" pan="0" key="81" len="48"/>
          <note pos="1368" vol="100" pan="0" key="79" len="24"/>
          <note pos="1392" vol="100" pan="0" key="76" len="48"/>
        </midiclip>
        <midiclip muted="0" pos="8448" name="" type="1" steps="16">
          <note pos="0" vol="100" pan="0" key="84" len="12"/>
          <note pos="24" vol="100" pan="0" key="72" len="36"/>
          <note pos="72" vol="100" pan="0" key="76" len="48"/>
          <note pos="120" vol="100" pan="0" key="79" len="72"/>
          <note pos="192" vol="100" pan="0" key="75" len="12"/>
          <note pos="216" vol="100" pan="0" key="75" len="36"/>
          <note pos="264" vol="100" pan="0" key="76" len="48"/>
          <note pos="312" vol="100" pan="0" key="78" len="72"/>
          <note pos="384" vol="100" pan="0" key="83" len="12"/>
          <note pos="408" vol="100" pan="0" key="71" len="36"/>
          <note pos="456" vol="100" pan="0" key="74" len="48"/>
          <note pos="504" vol="100" pan="0" key="76" len="48"/>
          <note pos="552" vol="100" pan="0" key="73" len="48"/>
          <note pos="720" vol="100" pan="0" key="69" len="24"/>
          <note pos="744" vol="100" pan="0" key="71" len="24"/>
          <note pos="768" vol="100" pan="0" key="72" len="72"/>
          <note pos="840" vol="100" pan="0" key="76" len="48"/>
          <note pos="888" vol="100" pan="0" key="72" len="48"/>
          <note pos="936" vol="100" pan="0" key="67" len="24"/>
          <note pos="960" vol="100" pan="0" key="75" len="60"/>
          <note pos="1032" vol="100" pan="0" key="71" len="72"/>
          <note pos="1104" vol="100" pan="0" key="69" len="24"/>
          <note pos="1128" vol="100" pan="0" key="67" len="24"/>
          <note pos="1152" vol="100" pan="0" key="71" len="24"/>
          <note pos="1176" vol="100" pan="0" key="64" len="48"/>
          <note pos="1224" vol="100" pan="0" key="76" len="36"/>
          <note pos="1272" vol="100" pan="0" key="74" len="48"/>
          <note pos="1320" vol="100" pan="0" key="73" len="36"/>
          <note pos="1368" vol="100" pan="0" key="71" len="24"/>
          <note pos="1392" vol="100" pan="0" key="69" len="24"/>
        </midiclip>
        <midiclip muted="0" pos="9984" name="" type="1" steps="16">
          <note pos="0" vol="100" pan="0" key="84" len="12"/>
          <note pos="24" vol="100" pan="0" key="72" len="36"/>
          <note pos="72" vol="100" pan="0" key="76" len="48"/>
          <note pos="120" vol="100" pan="0" key="79" len="72"/>
          <note pos="192" vol="100" pan="0" key="75" len="12"/>
          <note pos="216" vol="100" pan="0" key="75" len="36"/>
          <note pos="264" vol="100" pan="0" key="76" len="48"/>
          <note pos="312" vol="100" pan="0" key="78" len="72"/>
          <note pos="384" vol="100" pan="0" key="83" len="12"/>
          <note pos="408" vol="100" pan="0" key="84" len="36"/>
          <note pos="456" vol="100" pan="0" key="83" len="48"/>
          <note pos="504" vol="100" pan="0" key="79" len="48"/>
          <note pos="552" vol="100" pan="0" key="81" len="36"/>
          <note pos="588" vol="100" pan="0" key="79" len="12"/>
          <note pos="600" vol="100" pan="0" key="76" len="48"/>
          <note pos="720" vol="100" pan="0" key="84" len="24"/>
          <note pos="744" vol="100" pan="0" key="83" len="24"/>
          <note pos="768" vol="100" pan="0" key="81" len="60"/>
          <note pos="828" vol="100" pan="0" key="83" len="6"/>
          <note pos="834" vol="100" pan="0" key="81" len="6"/>
          <note pos="840" vol="100" pan="0" key="79" len="48"/>
          <note pos="888" vol="100" pan="0" key="76" len="48"/>
          <note pos="960" vol="100" pan="0" key="78" len="72"/>
          <note pos="1032" vol="100" pan="0" key="79" len="72"/>
          <note pos="1104" vol="100" pan="0" key="81" len="24"/>
          <note pos="1128" vol="100" pan="0" key="76" len="24"/>
          <note pos="1152" vol="100" pan="0" key="83" len="24"/>
          <note pos="1176" vol="100" pan="0" key="79" len="48"/>
          <note pos="1224" vol="100" pan="0" key="81" len="48"/>
          <note pos="1272" vol="100" pan="0" key="83" len="24"/>
          <note pos="1320" vol="100" pan="0" key="81" len="48"/>
          <note pos="1368" vol="100" pan="0" key="79" len="24"/>
          <note pos="1392" vol="100" pan="0" key="76" len="48"/>
        </midiclip>
      </track>
      <track muted="0" mutedBeforeSolo="0" name="Automation track" type="5" solo="0">
        <automationtrack/>
        <automationclip pos="0" prog="0" tens="1" name="Master>Volume" mute="0" len="192">
          <time pos="0" outValue="1" value="1"/>
          <object id="7004"/>
        </automationclip>
        <automationclip pos="11520" prog="1" tens="1" name="Master>Volume" mute="0" len="1536">
          <time pos="0" outValue="1" value="1"/>
          <time pos="1536" outValue="0" value="0"/>
          <object id="7004"/>
        </automationclip>
      </track>
      <track muted="0" mutedBeforeSolo="0" name="Piano" type="0" solo="0">
        <instrumenttrack pitchrange="1" usemasterpitch="1" vol="100" keymap="0" pan="0" basenote="69" enablecc="0" enabled="0" firstkey="0" range_import="1" mixch="1" lastkey="127" scale="0" pitch="0">
          <midicontrollers cc36="0" cc15="0" cc90="0" cc2="0" cc41="0" cc85="0" cc45="0" cc88="0" cc124="0" cc31="0" cc21="0" cc91="0" cc109="0" cc32="0" cc53="0" cc60="0" cc25="0" cc64="0" cc97="0" cc55="0" cc66="0" cc0="0" cc34="0" cc106="0" cc63="0" cc43="0" cc100="0" cc76="0" cc98="0" cc4="0" cc84="0" cc44="0" cc78="0" cc14="0" cc23="0" cc11="0" cc75="0" cc87="0" cc103="0" cc107="0" cc26="0" cc1="0" cc50="0" cc86="0" cc112="0" cc16="0" cc20="0" cc82="0" cc101="0" cc113="0" cc46="0" cc96="0" cc19="0" cc119="0" cc65="0" cc108="0" cc61="0" cc12="0" cc127="0" cc52="0" cc56="0" cc6="0" cc10="0" cc102="0" cc126="0" cc29="0" cc37="0" cc24="0" cc38="0" cc39="0" cc115="0" cc40="0" cc27="0" cc33="0" cc69="0" cc18="0" cc22="0" cc77="0" cc121="0" cc35="0" cc9="0" cc73="0" cc51="0" cc48="0" cc67="0" cc57="0" cc93="0" cc80="0" cc5="0" cc28="0" cc62="0" cc104="0" cc122="0" cc49="0" cc123="0" cc42="0" cc68="0" cc74="0" cc117="0" cc3="0" cc59="0" cc99="0" cc79="0" cc72="0" cc83="0" cc120="0" cc70="0" cc89="0" cc47="0" cc92="0" cc116="0" cc125="0" cc94="0" cc7="0" cc71="0" cc17="0" cc105="0" cc111="0" cc118="0" cc8="0" cc95="0" cc54="0" cc110="0" cc114="0" cc81="0" cc13="0" cc30="0" cc58="0"/>
          <instrument name="sf2player">
            <sf2player reverbDamping="0" reverbWidth="0.5" reverbLevel="0.9" chorusNum="3" gain="0.3" chorusLevel="2" chorusDepth="8" chorusSpeed="0.3" reverbOn="0" reverbRoomSize="0.2" src="usersoundfont:SGM-V2.01.sf2" bank="0" chorusOn="0" patch="5">
              <key/>
            </sf2player>
          </instrument>
          <eldata fcut="14000" fres="0.5" ftype="0" fwet="0">
            <elvol lspd_numerator="4" dec="0.5" pdel="0" latt="0" sustain="0.5" hold="0.5" lamt="0" lspd_denominator="4" att="0" lspd="0.1" lpdel="0" x100="0" amt="0" lspd_syncmode="0" lshp="0" rel="0.1" userwavefile="" ctlenvamt="0"/>
            <elcut lspd_numerator="4" dec="0.5" pdel="0" latt="0" sustain="0.5" hold="0.5" lamt="0" lspd_denominator="4" att="0" lspd="0.1" lpdel="0" x100="0" amt="0" lspd_syncmode="0" lshp="0" rel="0.1" userwavefile="" ctlenvamt="0"/>
            <elres lspd_numerator="4" dec="0.5" pdel="0" latt="0" sustain="0.5" hold="0.5" lamt="0" lspd_denominator="4" att="0" lspd="0.1" lpdel="0" x100="0" amt="0" lspd_syncmode="0" lshp="0" rel="0.1" userwavefile="" ctlenvamt="0"/>
          </eldata>
          <chordcreator chord="0" chord-enabled="0" chordrange="1"/>
          <arpeggiator arptime_numerator="4" arpgate="100" arpcycle="0" arpdir="0" arpmode="0" arpskip="0" arptime_denominator="4" arprepeats="1" arp-enabled="0" arprange="1" arptime="200" arp="0" arpmiss="0" arptime_syncmode="0"/>
          <midiport inputchannel="0" writable="0" fixedinputvelocity="-1" fixedoutputvelocity="-1" outputprogram="1" readable="1" fixedoutputnote="-1" basevelocity="127" outputchannel="1" inports="" inputcontroller="0" outputcontroller="0"/>
          <fxchain enabled="0" numofeffects="0"/>
        </instrumenttrack>
        <midiclip muted="0" pos="1920" name="" type="1" steps="16">
          <note pos="0" vol="100" pan="0" key="60" len="192"/>
          <note pos="0" vol="100" pan="0" key="55" len="120"/>
          <note pos="0" vol="100" pan="0" key="52" len="72"/>
          <note pos="0" vol="100" pan="0" key="48" len="192"/>
          <note pos="72" vol="100" pan="0" key="52" len="120"/>
          <note pos="120" vol="100" pan="0" key="55" len="48"/>
          <note pos="168" vol="100" pan="0" key="57" len="24"/>
          <note pos="192" vol="100" pan="0" key="63" len="192"/>
          <note pos="192" vol="100" pan="0" key="59" len="144"/>
          <note pos="192" vol="100" pan="0" key="57" len="72"/>
          <note pos="192" vol="100" pan="0" key="54" len="192"/>
          <note pos="264" vol="100" pan="0" key="57" len="120"/>
          <note pos="336" vol="100" pan="0" key="59" len="48"/>
          <note pos="384" vol="100" pan="0" key="64" len="72"/>
          <note pos="384" vol="100" pan="0" key="59" len="144"/>
          <note pos="384" vol="100" pan="0" key="55" len="192"/>
          <note pos="384" vol="100" pan="0" key="52" len="24"/>
          <note pos="408" vol="100" pan="0" key="52" len="96"/>
          <note pos="456" vol="100" pan="0" key="64" len="120"/>
          <note pos="504" vol="100" pan="0" key="52" len="72"/>
          <note pos="528" vol="100" pan="0" key="59" len="24"/>
          <note pos="552" vol="100" pan="0" key="57" len="24"/>
          <note pos="576" vol="100" pan="0" key="61" len="144"/>
          <note pos="576" vol="100" pan="0" key="59" len="192"/>
          <note pos="576" vol="100" pan="0" key="57" len="120"/>
          <note pos="576" vol="100" pan="0" key="52" len="96"/>
          <note pos="672" vol="100" pan="0" key="52" len="72"/>
          <note pos="696" vol="100" pan="0" key="57" len="72"/>
          <note pos="720" vol="100" pan="0" key="61" len="48"/>
          <note pos="744" vol="100" pan="0" key="52" len="24"/>
          <note pos="768" vol="100" pan="0" key="64" len="144"/>
          <note pos="768" vol="100" pan="0" key="60" len="72"/>
          <note pos="768" vol="100" pan="0" key="59" len="192"/>
          <note pos="768" vol="100" pan="0" key="55" len="120"/>
          <note pos="840" vol="100" pan="0" key="60" len="120"/>
          <note pos="888" vol="100" pan="0" key="55" len="48"/>
          <note pos="912" vol="100" pan="0" key="52" len="48"/>
          <note pos="936" vol="100" pan="0" key="57" len="24"/>
          <note pos="960" vol="100" pan="0" key="63" len="96"/>
          <note pos="960" vol="100" pan="0" key="59" len="72"/>
          <note pos="960" vol="100" pan="0" key="57" len="132"/>
          <note pos="960" vol="100" pan="0" key="54" len="24"/>
          <note pos="984" vol="100" pan="0" key="54" len="108"/>
          <note pos="1032" vol="100" pan="0" key="59" len="24"/>
          <note pos="1056" vol="100" pan="0" key="66" len="36"/>
          <note pos="1056" vol="100" pan="0" key="63" len="36"/>
          <note pos="1104" vol="100" pan="0" key="64" len="48"/>
          <note pos="1104" vol="100" pan="0" key="61" len="48"/>
          <note pos="1104" vol="100" pan="0" key="57" len="48"/>
          <note pos="1104" vol="100" pan="0" key="55" len="48"/>
          <note pos="1152" vol="100" pan="0" key="59" len="120"/>
          <note pos="1152" vol="100" pan="0" key="55" len="192"/>
          <note pos="1152" vol="100" pan="0" key="52" len="72"/>
          <note pos="1152" vol="100" pan="0" key="50" len="24"/>
          <note pos="1176" vol="100" pan="0" key="50" len="120"/>
          <note pos="1224" vol="100" pan="0" key="52" len="96"/>
          <note pos="1272" vol="100" pan="0" key="59" len="72"/>
          <note pos="1296" vol="100" pan="0" key="50" len="48"/>
          <note pos="1320" vol="100" pan="0" key="52" len="24"/>
          <note pos="1344" vol="100" pan="0" key="61" len="84"/>
          <note pos="1344" vol="100" pan="0" key="57" len="84"/>
          <note pos="1344" vol="100" pan="0" key="55" len="84"/>
          <note pos="1344" vol="100" pan="0" key="52" len="84"/>
          <note pos="1440" vol="100" pan="0" key="62" len="36"/>
          <note pos="1440" vol="100" pan="0" key="59" len="36"/>
          <note pos="1440" vol="100" pan="0" key="57" len="36"/>
          <note pos="1440" vol="100" pan="0" key="55" len="36"/>
          <note pos="1488" vol="100" pan="0" key="61" len="36"/>
          <note pos="1488" vol="100" pan="0" key="57" len="36"/>
          <note pos="1488" vol="100" pan="0" key="55" len="36"/>
          <note pos="1488" vol="100" pan="0" key="52" len="36"/>
        </midiclip>
        <midiclip muted="0" pos="384" name="" type="1" steps="16">
          <note pos="0" vol="100" pan="0" key="62" len="384"/>
          <note pos="0" vol="100" pan="0" key="59" len="384"/>
          <note pos="0" vol="100" pan="0" key="55" len="384"/>
          <note pos="0" vol="100" pan="0" key="52" len="384"/>
          <note pos="384" vol="100" pan="0" key="64" len="192"/>
          <note pos="384" vol="100" pan="0" key="61" len="192"/>
          <note pos="384" vol="100" pan="0" key="59" len="192"/>
          <note pos="384" vol="100" pan="0" key="55" len="192"/>
          <note pos="576" vol="100" pan="0" key="66" len="192"/>
          <note pos="576" vol="100" pan="0" key="62" len="192"/>
          <note pos="576" vol="100" pan="0" key="59" len="192"/>
          <note pos="576" vol="100" pan="0" key="57" len="192"/>
        </midiclip>
        <midiclip muted="0" pos="1152" name="" type="1" steps="16">
          <note pos="0" vol="100" pan="0" key="62" len="384"/>
          <note pos="0" vol="100" pan="0" key="59" len="384"/>
          <note pos="0" vol="100" pan="0" key="57" len="384"/>
          <note pos="0" vol="100" pan="0" key="52" len="384"/>
          <note pos="384" vol="100" pan="0" key="64" len="192"/>
          <note pos="384" vol="100" pan="0" key="61" len="192"/>
          <note pos="384" vol="100" pan="0" key="59" len="192"/>
          <note pos="384" vol="100" pan="0" key="55" len="192"/>
          <note pos="576" vol="100" pan="0" key="66" len="192"/>
          <note pos="576" vol="100" pan="0" key="62" len="192"/>
          <note pos="576" vol="100" pan="0" key="59" len="192"/>
          <note pos="576" vol="100" pan="0" key="57" len="192"/>
        </midiclip>
        <midiclip muted="0" pos="3456" name="" type="1" steps="16">
          <note pos="0" vol="100" pan="0" key="60" len="192"/>
          <note pos="0" vol="100" pan="0" key="55" len="120"/>
          <note pos="0" vol="100" pan="0" key="52" len="72"/>
          <note pos="0" vol="100" pan="0" key="48" len="24"/>
          <note pos="24" vol="100" pan="0" key="48" len="168"/>
          <note pos="72" vol="100" pan="0" key="52" len="120"/>
          <note pos="120" vol="100" pan="0" key="55" len="48"/>
          <note pos="168" vol="100" pan="0" key="57" len="24"/>
          <note pos="192" vol="100" pan="0" key="63" len="192"/>
          <note pos="192" vol="100" pan="0" key="59" len="144"/>
          <note pos="192" vol="100" pan="0" key="57" len="72"/>
          <note pos="192" vol="100" pan="0" key="54" len="24"/>
          <note pos="216" vol="100" pan="0" key="54" len="168"/>
          <note pos="264" vol="100" pan="0" key="57" len="120"/>
          <note pos="336" vol="100" pan="0" key="59" len="24"/>
          <note pos="360" vol="100" pan="0" key="62" len="24"/>
          <note pos="384" vol="100" pan="0" key="64" len="72"/>
          <note pos="384" vol="100" pan="0" key="59" len="144"/>
          <note pos="384" vol="100" pan="0" key="55" len="192"/>
          <note pos="384" vol="100" pan="0" key="52" len="24"/>
          <note pos="408" vol="100" pan="0" key="52" len="96"/>
          <note pos="456" vol="100" pan="0" key="64" len="120"/>
          <note pos="504" vol="100" pan="0" key="52" len="72"/>
          <note pos="528" vol="100" pan="0" key="59" len="24"/>
          <note pos="552" vol="100" pan="0" key="57" len="24"/>
          <note pos="576" vol="100" pan="0" key="61" len="144"/>
          <note pos="576" vol="100" pan="0" key="59" len="192"/>
          <note pos="576" vol="100" pan="0" key="57" len="120"/>
          <note pos="576" vol="100" pan="0" key="52" len="96"/>
          <note pos="672" vol="100" pan="0" key="52" len="72"/>
          <note pos="696" vol="100" pan="0" key="57" len="72"/>
          <note pos="720" vol="100" pan="0" key="61" len="48"/>
          <note pos="744" vol="100" pan="0" key="52" len="24"/>
          <note pos="768" vol="100" pan="0" key="64" len="144"/>
          <note pos="768" vol="100" pan="0" key="60" len="72"/>
          <note pos="768" vol="100" pan="0" key="59" len="192"/>
          <note pos="768" vol="100" pan="0" key="55" len="120"/>
          <note pos="840" vol="100" pan="0" key="60" len="120"/>
          <note pos="888" vol="100" pan="0" key="55" len="48"/>
          <note pos="912" vol="100" pan="0" key="52" len="48"/>
          <note pos="936" vol="100" pan="0" key="57" len="24"/>
          <note pos="960" vol="100" pan="0" key="63" len="96"/>
          <note pos="960" vol="100" pan="0" key="59" len="72"/>
          <note pos="960" vol="100" pan="0" key="57" len="132"/>
          <note pos="960" vol="100" pan="0" key="54" len="24"/>
          <note pos="984" vol="100" pan="0" key="54" len="108"/>
          <note pos="1032" vol="100" pan="0" key="59" len="24"/>
          <note pos="1056" vol="100" pan="0" key="66" len="36"/>
          <note pos="1056" vol="100" pan="0" key="63" len="36"/>
          <note pos="1104" vol="100" pan="0" key="69" len="48"/>
          <note pos="1104" vol="100" pan="0" key="67" len="48"/>
          <note pos="1104" vol="100" pan="0" key="64" len="48"/>
          <note pos="1104" vol="100" pan="0" key="61" len="48"/>
          <note pos="1152" vol="100" pan="0" key="67" len="192"/>
          <note pos="1152" vol="100" pan="0" key="64" len="72"/>
          <note pos="1152" vol="100" pan="0" key="62" len="24"/>
          <note pos="1152" vol="100" pan="0" key="59" len="120"/>
          <note pos="1176" vol="100" pan="0" key="62" len="120"/>
          <note pos="1224" vol="100" pan="0" key="64" len="96"/>
          <note pos="1272" vol="100" pan="0" key="59" len="72"/>
          <note pos="1296" vol="100" pan="0" key="62" len="48"/>
          <note pos="1320" vol="100" pan="0" key="64" len="24"/>
          <note pos="1344" vol="100" pan="0" key="69" len="84"/>
          <note pos="1344" vol="100" pan="0" key="67" len="84"/>
          <note pos="1344" vol="100" pan="0" key="64" len="84"/>
          <note pos="1344" vol="100" pan="0" key="61" len="84"/>
          <note pos="1440" vol="100" pan="0" key="71" len="36"/>
          <note pos="1440" vol="100" pan="0" key="69" len="36"/>
          <note pos="1440" vol="100" pan="0" key="67" len="36"/>
          <note pos="1440" vol="100" pan="0" key="62" len="36"/>
          <note pos="1488" vol="100" pan="0" key="69" len="36"/>
          <note pos="1488" vol="100" pan="0" key="67" len="36"/>
          <note pos="1488" vol="100" pan="0" key="64" len="36"/>
          <note pos="1488" vol="100" pan="0" key="61" len="36"/>
        </midiclip>
        <midiclip muted="0" pos="4992" name="" type="1" steps="16">
          <note pos="0" vol="100" pan="0" key="62" len="384"/>
          <note pos="0" vol="100" pan="0" key="59" len="384"/>
          <note pos="0" vol="100" pan="0" key="55" len="384"/>
          <note pos="0" vol="100" pan="0" key="52" len="384"/>
        </midiclip>
        <midiclip muted="0" pos="5376" name="" type="1" steps="16">
          <note pos="0" vol="100" pan="0" key="64" len="12"/>
          <note pos="0" vol="100" pan="0" key="59" len="12"/>
          <note pos="0" vol="100" pan="0" key="55" len="12"/>
          <note pos="24" vol="100" pan="0" key="64" len="36"/>
          <note pos="24" vol="100" pan="0" key="59" len="36"/>
          <note pos="24" vol="100" pan="0" key="55" len="36"/>
          <note pos="72" vol="100" pan="0" key="64" len="12"/>
          <note pos="72" vol="100" pan="0" key="59" len="12"/>
          <note pos="72" vol="100" pan="0" key="55" len="12"/>
          <note pos="96" vol="100" pan="0" key="64" len="36"/>
          <note pos="96" vol="100" pan="0" key="59" len="36"/>
          <note pos="96" vol="100" pan="0" key="55" len="36"/>
          <note pos="144" vol="100" pan="0" key="64" len="12"/>
          <note pos="144" vol="100" pan="0" key="59" len="12"/>
          <note pos="144" vol="100" pan="0" key="55" len="12"/>
          <note pos="168" vol="100" pan="0" key="64" len="24"/>
          <note pos="168" vol="100" pan="0" key="59" len="24"/>
          <note pos="168" vol="100" pan="0" key="55" len="24"/>
        </midiclip>
        <midiclip muted="0" pos="5568" name="" type="1" steps="16">
          <note pos="0" vol="100" pan="0" key="64" len="12"/>
          <note pos="0" vol="100" pan="0" key="59" len="12"/>
          <note pos="0" vol="100" pan="0" key="55" len="12"/>
          <note pos="24" vol="100" pan="0" key="64" len="36"/>
          <note pos="24" vol="100" pan="0" key="59" len="36"/>
          <note pos="24" vol="100" pan="0" key="55" len="36"/>
          <note pos="72" vol="100" pan="0" key="64" len="12"/>
          <note pos="72" vol="100" pan="0" key="59" len="12"/>
          <note pos="72" vol="100" pan="0" key="55" len="12"/>
          <note pos="96" vol="100" pan="0" key="64" len="36"/>
          <note pos="96" vol="100" pan="0" key="59" len="36"/>
          <note pos="96" vol="100" pan="0" key="55" len="36"/>
          <note pos="144" vol="100" pan="0" key="64" len="12"/>
          <note pos="144" vol="100" pan="0" key="59" len="12"/>
          <note pos="144" vol="100" pan="0" key="55" len="12"/>
          <note pos="168" vol="100" pan="0" key="64" len="24"/>
          <note pos="168" vol="100" pan="0" key="59" len="24"/>
          <note pos="168" vol="100" pan="0" key="55" len="24"/>
        </midiclip>
        <midiclip muted="0" pos="5760" name="" type="1" steps="16">
          <note pos="0" vol="100" pan="0" key="64" len="12"/>
          <note pos="0" vol="100" pan="0" key="59" len="12"/>
          <note pos="0" vol="100" pan="0" key="54" len="12"/>
          <note pos="24" vol="100" pan="0" key="64" len="36"/>
          <note pos="24" vol="100" pan="0" key="59" len="36"/>
          <note pos="24" vol="100" pan="0" key="54" len="36"/>
          <note pos="72" vol="100" pan="0" key="64" len="12"/>
          <note pos="72" vol="100" pan="0" key="59" len="12"/>
          <note pos="72" vol="100" pan="0" key="54" len="12"/>
          <note pos="96" vol="100" pan="0" key="64" len="36"/>
          <note pos="96" vol="100" pan="0" key="59" len="36"/>
          <note pos="96" vol="100" pan="0" key="54" len="36"/>
          <note pos="144" vol="100" pan="0" key="64" len="12"/>
          <note pos="144" vol="100" pan="0" key="59" len="12"/>
          <note pos="144" vol="100" pan="0" key="54" len="12"/>
          <note pos="168" vol="100" pan="0" key="64" len="24"/>
          <note pos="168" vol="100" pan="0" key="59" len="24"/>
          <note pos="168" vol="100" pan="0" key="54" len="24"/>
        </midiclip>
        <midiclip muted="0" pos="5952" name="" type="1" steps="16">
          <note pos="0" vol="100" pan="0" key="62" len="12"/>
          <note pos="0" vol="100" pan="0" key="59" len="12"/>
          <note pos="0" vol="100" pan="0" key="54" len="12"/>
          <note pos="24" vol="100" pan="0" key="62" len="36"/>
          <note pos="24" vol="100" pan="0" key="59" len="36"/>
          <note pos="24" vol="100" pan="0" key="54" len="36"/>
          <note pos="72" vol="100" pan="0" key="62" len="12"/>
          <note pos="72" vol="100" pan="0" key="59" len="12"/>
          <note pos="72" vol="100" pan="0" key="54" len="12"/>
          <note pos="96" vol="100" pan="0" key="62" len="36"/>
          <note pos="96" vol="100" pan="0" key="59" len="36"/>
          <note pos="96" vol="100" pan="0" key="54" len="36"/>
          <note pos="144" vol="100" pan="0" key="62" len="12"/>
          <note pos="144" vol="100" pan="0" key="59" len="12"/>
          <note pos="144" vol="100" pan="0" key="54" len="12"/>
          <note pos="168" vol="100" pan="0" key="62" len="24"/>
          <note pos="168" vol="100" pan="0" key="59" len="24"/>
          <note pos="168" vol="100" pan="0" key="54" len="24"/>
        </midiclip>
        <midiclip muted="0" pos="6144" name="" type="1" steps="16">
          <note pos="0" vol="100" pan="0" key="60" len="12"/>
          <note pos="0" vol="100" pan="0" key="55" len="12"/>
          <note pos="0" vol="100" pan="0" key="52" len="12"/>
          <note pos="24" vol="100" pan="0" key="60" len="36"/>
          <note pos="24" vol="100" pan="0" key="55" len="36"/>
          <note pos="24" vol="100" pan="0" key="52" len="36"/>
          <note pos="72" vol="100" pan="0" key="60" len="12"/>
          <note pos="72" vol="100" pan="0" key="55" len="12"/>
          <note pos="72" vol="100" pan="0" key="52" len="12"/>
          <note pos="96" vol="100" pan="0" key="60" len="36"/>
          <note pos="96" vol="100" pan="0" key="55" len="36"/>
          <note pos="96" vol="100" pan="0" key="52" len="36"/>
          <note pos="144" vol="100" pan="0" key="60" len="12"/>
          <note pos="144" vol="100" pan="0" key="55" len="12"/>
          <note pos="144" vol="100" pan="0" key="52" len="12"/>
          <note pos="168" vol="100" pan="0" key="60" len="24"/>
          <note pos="168" vol="100" pan="0" key="55" len="24"/>
          <note pos="168" vol="100" pan="0" key="52" len="24"/>
        </midiclip>
        <midiclip muted="0" pos="6336" name="" type="1" steps="16">
          <note pos="0" vol="100" pan="0" key="62" len="12"/>
          <note pos="0" vol="100" pan="0" key="57" len="12"/>
          <note pos="0" vol="100" pan="0" key="54" len="12"/>
          <note pos="24" vol="100" pan="0" key="62" len="36"/>
          <note pos="24" vol="100" pan="0" key="57" len="36"/>
          <note pos="24" vol="100" pan="0" key="54" len="36"/>
          <note pos="72" vol="100" pan="0" key="62" len="12"/>
          <note pos="72" vol="100" pan="0" key="57" len="12"/>
          <note pos="72" vol="100" pan="0" key="54" len="12"/>
          <note pos="96" vol="100" pan="0" key="62" len="36"/>
          <note pos="96" vol="100" pan="0" key="57" len="36"/>
          <note pos="96" vol="100" pan="0" key="54" len="36"/>
          <note pos="144" vol="100" pan="0" key="62" len="12"/>
          <note pos="144" vol="100" pan="0" key="57" len="12"/>
          <note pos="144" vol="100" pan="0" key="54" len="12"/>
          <note pos="168" vol="100" pan="0" key="62" len="24"/>
          <note pos="168" vol="100" pan="0" key="57" len="24"/>
          <note pos="168" vol="100" pan="0" key="54" len="24"/>
        </midiclip>
        <midiclip muted="0" pos="6528" name="" type="1" steps="16">
          <note pos="0" vol="100" pan="0" key="64" len="12"/>
          <note pos="0" vol="100" pan="0" key="59" len="12"/>
          <note pos="0" vol="100" pan="0" key="55" len="12"/>
          <note pos="24" vol="100" pan="0" key="64" len="36"/>
          <note pos="24" vol="100" pan="0" key="59" len="36"/>
          <note pos="24" vol="100" pan="0" key="55" len="36"/>
          <note pos="72" vol="100" pan="0" key="64" len="12"/>
          <note pos="72" vol="100" pan="0" key="59" len="12"/>
          <note pos="72" vol="100" pan="0" key="55" len="12"/>
          <note pos="96" vol="100" pan="0" key="64" len="36"/>
          <note pos="96" vol="100" pan="0" key="59" len="36"/>
          <note pos="96" vol="100" pan="0" key="55" len="36"/>
          <note pos="144" vol="100" pan="0" key="64" len="12"/>
          <note pos="144" vol="100" pan="0" key="59" len="12"/>
          <note pos="144" vol="100" pan="0" key="55" len="12"/>
          <note pos="168" vol="100" pan="0" key="64" len="24"/>
          <note pos="168" vol="100" pan="0" key="59" len="24"/>
          <note pos="168" vol="100" pan="0" key="55" len="24"/>
        </midiclip>
        <midiclip muted="0" pos="6720" name="" type="1" steps="16">
          <note pos="0" vol="100" pan="0" key="62" len="12"/>
          <note pos="0" vol="100" pan="0" key="57" len="12"/>
          <note pos="0" vol="100" pan="0" key="54" len="12"/>
          <note pos="24" vol="100" pan="0" key="62" len="36"/>
          <note pos="24" vol="100" pan="0" key="57" len="36"/>
          <note pos="24" vol="100" pan="0" key="54" len="36"/>
          <note pos="72" vol="100" pan="0" key="62" len="12"/>
          <note pos="72" vol="100" pan="0" key="57" len="12"/>
          <note pos="72" vol="100" pan="0" key="54" len="12"/>
          <note pos="96" vol="100" pan="0" key="62" len="36"/>
          <note pos="96" vol="100" pan="0" key="57" len="36"/>
          <note pos="96" vol="100" pan="0" key="54" len="36"/>
          <note pos="144" vol="100" pan="0" key="62" len="12"/>
          <note pos="144" vol="100" pan="0" key="57" len="12"/>
          <note pos="144" vol="100" pan="0" key="54" len="12"/>
          <note pos="168" vol="100" pan="0" key="62" len="24"/>
          <note pos="168" vol="100" pan="0" key="57" len="24"/>
          <note pos="168" vol="100" pan="0" key="54" len="24"/>
        </midiclip>
        <midiclip muted="0" pos="6912" name="" type="1" steps="16">
          <note pos="0" vol="100" pan="0" key="64" len="12"/>
          <note pos="0" vol="100" pan="0" key="59" len="12"/>
          <note pos="0" vol="100" pan="0" key="55" len="12"/>
          <note pos="24" vol="100" pan="0" key="64" len="36"/>
          <note pos="24" vol="100" pan="0" key="59" len="36"/>
          <note pos="24" vol="100" pan="0" key="55" len="36"/>
          <note pos="72" vol="100" pan="0" key="64" len="12"/>
          <note pos="72" vol="100" pan="0" key="59" len="12"/>
          <note pos="72" vol="100" pan="0" key="55" len="12"/>
          <note pos="96" vol="100" pan="0" key="64" len="36"/>
          <note pos="96" vol="100" pan="0" key="59" len="36"/>
          <note pos="96" vol="100" pan="0" key="55" len="36"/>
          <note pos="144" vol="100" pan="0" key="64" len="12"/>
          <note pos="144" vol="100" pan="0" key="59" len="12"/>
          <note pos="144" vol="100" pan="0" key="55" len="12"/>
          <note pos="168" vol="100" pan="0" key="64" len="24"/>
          <note pos="168" vol="100" pan="0" key="59" len="24"/>
          <note pos="168" vol="100" pan="0" key="55" len="24"/>
        </midiclip>
        <midiclip muted="0" pos="7104" name="" type="1" steps="16">
          <note pos="0" vol="100" pan="0" key="64" len="12"/>
          <note pos="0" vol="100" pan="0" key="59" len="12"/>
          <note pos="0" vol="100" pan="0" key="55" len="12"/>
          <note pos="24" vol="100" pan="0" key="64" len="36"/>
          <note pos="24" vol="100" pan="0" key="59" len="36"/>
          <note pos="24" vol="100" pan="0" key="55" len="36"/>
          <note pos="72" vol="100" pan="0" key="64" len="12"/>
          <note pos="72" vol="100" pan="0" key="59" len="12"/>
          <note pos="72" vol="100" pan="0" key="55" len="12"/>
          <note pos="96" vol="100" pan="0" key="64" len="36"/>
          <note pos="96" vol="100" pan="0" key="59" len="36"/>
          <note pos="96" vol="100" pan="0" key="55" len="36"/>
          <note pos="144" vol="100" pan="0" key="64" len="12"/>
          <note pos="144" vol="100" pan="0" key="59" len="12"/>
          <note pos="144" vol="100" pan="0" key="55" len="12"/>
          <note pos="168" vol="100" pan="0" key="64" len="24"/>
          <note pos="168" vol="100" pan="0" key="59" len="24"/>
          <note pos="168" vol="100" pan="0" key="55" len="24"/>
        </midiclip>
        <midiclip muted="0" pos="7296" name="" type="1" steps="16">
          <note pos="0" vol="100" pan="0" key="64" len="12"/>
          <note pos="0" vol="100" pan="0" key="59" len="12"/>
          <note pos="0" vol="100" pan="0" key="54" len="12"/>
          <note pos="24" vol="100" pan="0" key="64" len="36"/>
          <note pos="24" vol="100" pan="0" key="59" len="36"/>
          <note pos="24" vol="100" pan="0" key="54" len="36"/>
          <note pos="72" vol="100" pan="0" key="64" len="12"/>
          <note pos="72" vol="100" pan="0" key="59" len="12"/>
          <note pos="72" vol="100" pan="0" key="54" len="12"/>
          <note pos="96" vol="100" pan="0" key="64" len="36"/>
          <note pos="96" vol="100" pan="0" key="59" len="36"/>
          <note pos="96" vol="100" pan="0" key="54" len="36"/>
          <note pos="144" vol="100" pan="0" key="64" len="12"/>
          <note pos="144" vol="100" pan="0" key="59" len="12"/>
          <note pos="144" vol="100" pan="0" key="54" len="12"/>
          <note pos="168" vol="100" pan="0" key="64" len="24"/>
          <note pos="168" vol="100" pan="0" key="59" len="24"/>
          <note pos="168" vol="100" pan="0" key="54" len="24"/>
        </midiclip>
        <midiclip muted="0" pos="7488" name="" type="1" steps="16">
          <note pos="0" vol="100" pan="0" key="62" len="12"/>
          <note pos="0" vol="100" pan="0" key="59" len="12"/>
          <note pos="0" vol="100" pan="0" key="54" len="12"/>
          <note pos="24" vol="100" pan="0" key="62" len="36"/>
          <note pos="24" vol="100" pan="0" key="59" len="36"/>
          <note pos="24" vol="100" pan="0" key="54" len="36"/>
          <note pos="72" vol="100" pan="0" key="62" len="12"/>
          <note pos="72" vol="100" pan="0" key="59" len="12"/>
          <note pos="72" vol="100" pan="0" key="54" len="12"/>
          <note pos="96" vol="100" pan="0" key="62" len="36"/>
          <note pos="96" vol="100" pan="0" key="59" len="36"/>
          <note pos="96" vol="100" pan="0" key="54" len="36"/>
          <note pos="144" vol="100" pan="0" key="62" len="12"/>
          <note pos="144" vol="100" pan="0" key="59" len="12"/>
          <note pos="144" vol="100" pan="0" key="54" len="12"/>
          <note pos="168" vol="100" pan="0" key="62" len="24"/>
          <note pos="168" vol="100" pan="0" key="59" len="24"/>
          <note pos="168" vol="100" pan="0" key="54" len="24"/>
        </midiclip>
        <midiclip muted="0" pos="7680" name="" type="1" steps="16">
          <note pos="0" vol="100" pan="0" key="60" len="12"/>
          <note pos="0" vol="100" pan="0" key="55" len="12"/>
          <note pos="0" vol="100" pan="0" key="52" len="12"/>
          <note pos="24" vol="100" pan="0" key="60" len="36"/>
          <note pos="24" vol="100" pan="0" key="55" len="36"/>
          <note pos="24" vol="100" pan="0" key="52" len="36"/>
          <note pos="72" vol="100" pan="0" key="60" len="12"/>
          <note pos="72" vol="100" pan="0" key="55" len="12"/>
          <note pos="72" vol="100" pan="0" key="52" len="12"/>
          <note pos="96" vol="100" pan="0" key="60" len="36"/>
          <note pos="96" vol="100" pan="0" key="55" len="36"/>
          <note pos="96" vol="100" pan="0" key="52" len="36"/>
          <note pos="144" vol="100" pan="0" key="60" len="12"/>
          <note pos="144" vol="100" pan="0" key="55" len="12"/>
          <note pos="144" vol="100" pan="0" key="52" len="12"/>
          <note pos="168" vol="100" pan="0" key="60" len="24"/>
          <note pos="168" vol="100" pan="0" key="55" len="24"/>
          <note pos="168" vol="100" pan="0" key="52" len="24"/>
        </midiclip>
        <midiclip muted="0" pos="7872" name="" type="1" steps="16">
          <note pos="0" vol="100" pan="0" key="62" len="12"/>
          <note pos="0" vol="100" pan="0" key="57" len="12"/>
          <note pos="0" vol="100" pan="0" key="54" len="12"/>
          <note pos="24" vol="100" pan="0" key="62" len="36"/>
          <note pos="24" vol="100" pan="0" key="57" len="36"/>
          <note pos="24" vol="100" pan="0" key="54" len="36"/>
          <note pos="72" vol="100" pan="0" key="62" len="12"/>
          <note pos="72" vol="100" pan="0" key="57" len="12"/>
          <note pos="72" vol="100" pan="0" key="54" len="12"/>
          <note pos="96" vol="100" pan="0" key="62" len="36"/>
          <note pos="96" vol="100" pan="0" key="57" len="36"/>
          <note pos="96" vol="100" pan="0" key="54" len="36"/>
          <note pos="144" vol="100" pan="0" key="62" len="12"/>
          <note pos="144" vol="100" pan="0" key="57" len="12"/>
          <note pos="144" vol="100" pan="0" key="54" len="12"/>
          <note pos="168" vol="100" pan="0" key="62" len="24"/>
          <note pos="168" vol="100" pan="0" key="57" len="24"/>
          <note pos="168" vol="100" pan="0" key="54" len="24"/>
        </midiclip>
        <midiclip muted="0" pos="8064" name="" type="1" steps="16">
          <note pos="0" vol="100" pan="0" key="64" len="12"/>
          <note pos="0" vol="100" pan="0" key="59" len="12"/>
          <note pos="0" vol="100" pan="0" key="55" len="12"/>
          <note pos="24" vol="100" pan="0" key="64" len="36"/>
          <note pos="24" vol="100" pan="0" key="59" len="36"/>
          <note pos="24" vol="100" pan="0" key="55" len="36"/>
          <note pos="72" vol="100" pan="0" key="64" len="12"/>
          <note pos="72" vol="100" pan="0" key="59" len="12"/>
          <note pos="72" vol="100" pan="0" key="55" len="12"/>
          <note pos="96" vol="100" pan="0" key="64" len="36"/>
          <note pos="96" vol="100" pan="0" key="59" len="36"/>
          <note pos="96" vol="100" pan="0" key="55" len="36"/>
          <note pos="144" vol="100" pan="0" key="64" len="12"/>
          <note pos="144" vol="100" pan="0" key="59" len="12"/>
          <note pos="144" vol="100" pan="0" key="55" len="12"/>
          <note pos="168" vol="100" pan="0" key="64" len="24"/>
          <note pos="168" vol="100" pan="0" key="59" len="24"/>
          <note pos="168" vol="100" pan="0" key="55" len="24"/>
        </midiclip>
        <midiclip muted="0" pos="8256" name="" type="1" steps="16">
          <note pos="0" vol="100" pan="0" key="62" len="12"/>
          <note pos="0" vol="100" pan="0" key="57" len="12"/>
          <note pos="0" vol="100" pan="0" key="54" len="12"/>
          <note pos="24" vol="100" pan="0" key="62" len="36"/>
          <note pos="24" vol="100" pan="0" key="57" len="36"/>
          <note pos="24" vol="100" pan="0" key="54" len="36"/>
          <note pos="72" vol="100" pan="0" key="62" len="12"/>
          <note pos="72" vol="100" pan="0" key="57" len="12"/>
          <note pos="72" vol="100" pan="0" key="54" len="12"/>
          <note pos="96" vol="100" pan="0" key="62" len="36"/>
          <note pos="96" vol="100" pan="0" key="57" len="36"/>
          <note pos="96" vol="100" pan="0" key="54" len="36"/>
          <note pos="144" vol="100" pan="0" key="62" len="12"/>
          <note pos="144" vol="100" pan="0" key="57" len="12"/>
          <note pos="144" vol="100" pan="0" key="54" len="12"/>
          <note pos="168" vol="100" pan="0" key="62" len="24"/>
          <note pos="168" vol="100" pan="0" key="57" len="24"/>
          <note pos="168" vol="100" pan="0" key="54" len="24"/>
        </midiclip>
        <midiclip muted="0" pos="11520" name="" type="1" steps="16">
          <note pos="0" vol="100" pan="0" key="62" len="384"/>
          <note pos="0" vol="100" pan="0" key="59" len="384"/>
          <note pos="0" vol="100" pan="0" key="55" len="384"/>
          <note pos="0" vol="100" pan="0" key="52" len="384"/>
        </midiclip>
        <midiclip muted="0" pos="11904" name="" type="1" steps="16">
          <note pos="0" vol="100" pan="0" key="62" len="384"/>
          <note pos="0" vol="100" pan="0" key="59" len="384"/>
          <note pos="0" vol="100" pan="0" key="55" len="384"/>
          <note pos="0" vol="100" pan="0" key="52" len="384"/>
        </midiclip>
        <midiclip muted="0" pos="12288" name="" type="1" steps="16">
          <note pos="0" vol="100" pan="0" key="62" len="384"/>
          <note pos="0" vol="100" pan="0" key="59" len="384"/>
          <note pos="0" vol="100" pan="0" key="55" len="384"/>
          <note pos="0" vol="100" pan="0" key="52" len="384"/>
        </midiclip>
        <midiclip muted="0" pos="12672" name="" type="1" steps="16">
          <note pos="0" vol="100" pan="0" key="62" len="384"/>
          <note pos="0" vol="100" pan="0" key="59" len="384"/>
          <note pos="0" vol="100" pan="0" key="55" len="384"/>
          <note pos="0" vol="100" pan="0" key="52" len="384"/>
        </midiclip>
        <midiclip muted="0" pos="8448" name="" type="1" steps="16">
          <note pos="0" vol="100" pan="0" key="60" len="192"/>
          <note pos="0" vol="100" pan="0" key="55" len="120"/>
          <note pos="0" vol="100" pan="0" key="52" len="72"/>
          <note pos="0" vol="100" pan="0" key="48" len="192"/>
          <note pos="72" vol="100" pan="0" key="52" len="120"/>
          <note pos="120" vol="100" pan="0" key="55" len="48"/>
          <note pos="168" vol="100" pan="0" key="57" len="24"/>
          <note pos="192" vol="100" pan="0" key="63" len="192"/>
          <note pos="192" vol="100" pan="0" key="59" len="144"/>
          <note pos="192" vol="100" pan="0" key="57" len="72"/>
          <note pos="192" vol="100" pan="0" key="54" len="192"/>
          <note pos="264" vol="100" pan="0" key="57" len="120"/>
          <note pos="336" vol="100" pan="0" key="59" len="48"/>
          <note pos="384" vol="100" pan="0" key="64" len="72"/>
          <note pos="384" vol="100" pan="0" key="59" len="144"/>
          <note pos="384" vol="100" pan="0" key="55" len="192"/>
          <note pos="384" vol="100" pan="0" key="52" len="24"/>
          <note pos="408" vol="100" pan="0" key="52" len="96"/>
          <note pos="456" vol="100" pan="0" key="64" len="120"/>
          <note pos="504" vol="100" pan="0" key="52" len="72"/>
          <note pos="528" vol="100" pan="0" key="59" len="24"/>
          <note pos="552" vol="100" pan="0" key="57" len="24"/>
          <note pos="576" vol="100" pan="0" key="61" len="144"/>
          <note pos="576" vol="100" pan="0" key="59" len="192"/>
          <note pos="576" vol="100" pan="0" key="57" len="120"/>
          <note pos="576" vol="100" pan="0" key="52" len="96"/>
          <note pos="672" vol="100" pan="0" key="52" len="72"/>
          <note pos="696" vol="100" pan="0" key="57" len="72"/>
          <note pos="720" vol="100" pan="0" key="61" len="48"/>
          <note pos="744" vol="100" pan="0" key="52" len="24"/>
          <note pos="768" vol="100" pan="0" key="64" len="144"/>
          <note pos="768" vol="100" pan="0" key="60" len="72"/>
          <note pos="768" vol="100" pan="0" key="59" len="192"/>
          <note pos="768" vol="100" pan="0" key="55" len="120"/>
          <note pos="840" vol="100" pan="0" key="60" len="120"/>
          <note pos="888" vol="100" pan="0" key="55" len="48"/>
          <note pos="912" vol="100" pan="0" key="52" len="48"/>
          <note pos="936" vol="100" pan="0" key="57" len="24"/>
          <note pos="960" vol="100" pan="0" key="63" len="96"/>
          <note pos="960" vol="100" pan="0" key="59" len="72"/>
          <note pos="960" vol="100" pan="0" key="57" len="132"/>
          <note pos="960" vol="100" pan="0" key="54" len="24"/>
          <note pos="984" vol="100" pan="0" key="54" len="108"/>
          <note pos="1032" vol="100" pan="0" key="59" len="24"/>
          <note pos="1056" vol="100" pan="0" key="66" len="36"/>
          <note pos="1056" vol="100" pan="0" key="63" len="36"/>
          <note pos="1104" vol="100" pan="0" key="64" len="48"/>
          <note pos="1104" vol="100" pan="0" key="61" len="48"/>
          <note pos="1104" vol="100" pan="0" key="57" len="48"/>
          <note pos="1104" vol="100" pan="0" key="55" len="48"/>
          <note pos="1152" vol="100" pan="0" key="59" len="120"/>
          <note pos="1152" vol="100" pan="0" key="55" len="192"/>
          <note pos="1152" vol="100" pan="0" key="52" len="72"/>
          <note pos="1152" vol="100" pan="0" key="50" len="24"/>
          <note pos="1176" vol="100" pan="0" key="50" len="120"/>
          <note pos="1224" vol="100" pan="0" key="52" len="96"/>
          <note pos="1272" vol="100" pan="0" key="59" len="72"/>
          <note pos="1296" vol="100" pan="0" key="50" len="48"/>
          <note pos="1320" vol="100" pan="0" key="52" len="24"/>
          <note pos="1344" vol="100" pan="0" key="61" len="84"/>
          <note pos="1344" vol="100" pan="0" key="57" len="84"/>
          <note pos="1344" vol="100" pan="0" key="55" len="84"/>
          <note pos="1344" vol="100" pan="0" key="52" len="84"/>
          <note pos="1440" vol="100" pan="0" key="62" len="36"/>
          <note pos="1440" vol="100" pan="0" key="59" len="36"/>
          <note pos="1440" vol="100" pan="0" key="57" len="36"/>
          <note pos="1440" vol="100" pan="0" key="55" len="36"/>
          <note pos="1488" vol="100" pan="0" key="61" len="36"/>
          <note pos="1488" vol="100" pan="0" key="57" len="36"/>
          <note pos="1488" vol="100" pan="0" key="55" len="36"/>
          <note pos="1488" vol="100" pan="0" key="52" len="36"/>
        </midiclip>
        <midiclip muted="0" pos="9984" name="" type="1" steps="16">
          <note pos="0" vol="100" pan="0" key="60" len="192"/>
          <note pos="0" vol="100" pan="0" key="55" len="120"/>
          <note pos="0" vol="100" pan="0" key="52" len="72"/>
          <note pos="0" vol="100" pan="0" key="48" len="24"/>
          <note pos="24" vol="100" pan="0" key="48" len="168"/>
          <note pos="72" vol="100" pan="0" key="52" len="120"/>
          <note pos="120" vol="100" pan="0" key="55" len="48"/>
          <note pos="168" vol="100" pan="0" key="57" len="24"/>
          <note pos="192" vol="100" pan="0" key="63" len="192"/>
          <note pos="192" vol="100" pan="0" key="59" len="144"/>
          <note pos="192" vol="100" pan="0" key="57" len="72"/>
          <note pos="192" vol="100" pan="0" key="54" len="24"/>
          <note pos="216" vol="100" pan="0" key="54" len="168"/>
          <note pos="264" vol="100" pan="0" key="57" len="120"/>
          <note pos="336" vol="100" pan="0" key="59" len="24"/>
          <note pos="360" vol="100" pan="0" key="62" len="24"/>
          <note pos="384" vol="100" pan="0" key="64" len="72"/>
          <note pos="384" vol="100" pan="0" key="59" len="144"/>
          <note pos="384" vol="100" pan="0" key="55" len="192"/>
          <note pos="384" vol="100" pan="0" key="52" len="24"/>
          <note pos="408" vol="100" pan="0" key="52" len="96"/>
          <note pos="456" vol="100" pan="0" key="64" len="120"/>
          <note pos="504" vol="100" pan="0" key="52" len="72"/>
          <note pos="528" vol="100" pan="0" key="59" len="24"/>
          <note pos="552" vol="100" pan="0" key="57" len="24"/>
          <note pos="576" vol="100" pan="0" key="61" len="144"/>
          <note pos="576" vol="100" pan="0" key="59" len="192"/>
          <note pos="576" vol="100" pan="0" key="57" len="120"/>
          <note pos="576" vol="100" pan="0" key="52" len="96"/>
          <note pos="672" vol="100" pan="0" key="52" len="72"/>
          <note pos="696" vol="100" pan="0" key="57" len="72"/>
          <note pos="720" vol="100" pan="0" key="61" len="48"/>
          <note pos="744" vol="100" pan="0" key="52" len="24"/>
          <note pos="768" vol="100" pan="0" key="64" len="144"/>
          <note pos="768" vol="100" pan="0" key="60" len="72"/>
          <note pos="768" vol="100" pan="0" key="59" len="192"/>
          <note pos="768" vol="100" pan="0" key="55" len="120"/>
          <note pos="840" vol="100" pan="0" key="60" len="120"/>
          <note pos="888" vol="100" pan="0" key="55" len="48"/>
          <note pos="912" vol="100" pan="0" key="52" len="48"/>
          <note pos="936" vol="100" pan="0" key="57" len="24"/>
          <note pos="960" vol="100" pan="0" key="63" len="96"/>
          <note pos="960" vol="100" pan="0" key="59" len="72"/>
          <note pos="960" vol="100" pan="0" key="57" len="132"/>
          <note pos="960" vol="100" pan="0" key="54" len="24"/>
          <note pos="984" vol="100" pan="0" key="54" len="108"/>
          <note pos="1032" vol="100" pan="0" key="59" len="24"/>
          <note pos="1056" vol="100" pan="0" key="66" len="36"/>
          <note pos="1056" vol="100" pan="0" key="63" len="36"/>
          <note pos="1104" vol="100" pan="0" key="69" len="48"/>
          <note pos="1104" vol="100" pan="0" key="67" len="48"/>
          <note pos="1104" vol="100" pan="0" key="64" len="48"/>
          <note pos="1104" vol="100" pan="0" key="61" len="48"/>
          <note pos="1152" vol="100" pan="0" key="67" len="192"/>
          <note pos="1152" vol="100" pan="0" key="64" len="72"/>
          <note pos="1152" vol="100" pan="0" key="62" len="24"/>
          <note pos="1152" vol="100" pan="0" key="59" len="120"/>
          <note pos="1176" vol="100" pan="0" key="62" len="120"/>
          <note pos="1224" vol="100" pan="0" key="64" len="96"/>
          <note pos="1272" vol="100" pan="0" key="59" len="72"/>
          <note pos="1296" vol="100" pan="0" key="62" len="48"/>
          <note pos="1320" vol="100" pan="0" key="64" len="24"/>
          <note pos="1344" vol="100" pan="0" key="69" len="84"/>
          <note pos="1344" vol="100" pan="0" key="67" len="84"/>
          <note pos="1344" vol="100" pan="0" key="64" len="84"/>
          <note pos="1344" vol="100" pan="0" key="61" len="84"/>
          <note pos="1440" vol="100" pan="0" key="71" len="36"/>
          <note pos="1440" vol="100" pan="0" key="69" len="36"/>
          <note pos="1440" vol="100" pan="0" key="67" len="36"/>
          <note pos="1440" vol="100" pan="0" key="62" len="36"/>
          <note pos="1488" vol="100" pan="0" key="69" len="36"/>
          <note pos="1488" vol="100" pan="0" key="67" len="36"/>
          <note pos="1488" vol="100" pan="0" key="64" len="36"/>
          <note pos="1488" vol="100" pan="0" key="61" len="36"/>
        </midiclip>
      </track>
      <track muted="0" mutedBeforeSolo="0" name="Oboe" type="0" solo="0">
        <instrumenttrack pitchrange="1" usemasterpitch="1" vol="100" keymap="0" pan="0" basenote="69" enablecc="0" enabled="0" firstkey="0" range_import="1" mixch="2" lastkey="127" scale="0" pitch="0">
          <midicontrollers cc36="0" cc15="0" cc90="0" cc2="0" cc41="0" cc85="0" cc45="0" cc88="0" cc124="0" cc31="0" cc21="0" cc91="0" cc109="0" cc32="0" cc53="0" cc60="0" cc25="0" cc64="0" cc97="0" cc55="0" cc66="0" cc0="0" cc34="0" cc106="0" cc63="0" cc43="0" cc100="0" cc76="0" cc98="0" cc4="0" cc84="0" cc44="0" cc78="0" cc14="0" cc23="0" cc11="0" cc75="0" cc87="0" cc103="0" cc107="0" cc26="0" cc1="0" cc50="0" cc86="0" cc112="0" cc16="0" cc20="0" cc82="0" cc101="0" cc113="0" cc46="0" cc96="0" cc19="0" cc119="0" cc65="0" cc108="0" cc61="0" cc12="0" cc127="0" cc52="0" cc56="0" cc6="0" cc10="0" cc102="0" cc126="0" cc29="0" cc37="0" cc24="0" cc38="0" cc39="0" cc115="0" cc40="0" cc27="0" cc33="0" cc69="0" cc18="0" cc22="0" cc77="0" cc121="0" cc35="0" cc9="0" cc73="0" cc51="0" cc48="0" cc67="0" cc57="0" cc93="0" cc80="0" cc5="0" cc28="0" cc62="0" cc104="0" cc122="0" cc49="0" cc123="0" cc42="0" cc68="0" cc74="0" cc117="0" cc3="0" cc59="0" cc99="0" cc79="0" cc72="0" cc83="0" cc120="0" cc70="0" cc89="0" cc47="0" cc92="0" cc116="0" cc125="0" cc94="0" cc7="0" cc71="0" cc17="0" cc105="0" cc111="0" cc118="0" cc8="0" cc95="0" cc54="0" cc110="0" cc114="0" cc81="0" cc13="0" cc30="0" cc58="0"/>
          <instrument name="sf2player">
            <sf2player reverbDamping="0" reverbWidth="0.5" reverbLevel="0.9" chorusNum="3" gain="0.7" chorusLevel="2" chorusDepth="8" chorusSpeed="0.3" reverbOn="0" reverbRoomSize="0.2" src="usersoundfont:Touhou.sf2" bank="0" chorusOn="0" patch="68">
              <key/>
            </sf2player>
          </instrument>
          <eldata fcut="14000" fres="0.5" ftype="0" fwet="0">
            <elvol lspd_numerator="4" dec="0.5" pdel="0" latt="0" sustain="0.5" hold="0.5" lamt="0" lspd_denominator="4" att="0" lspd="0.1" lpdel="0" x100="0" amt="0" lspd_syncmode="0" lshp="0" rel="0.1" userwavefile="" ctlenvamt="0"/>
            <elcut lspd_numerator="4" dec="0.5" pdel="0" latt="0" sustain="0.5" hold="0.5" lamt="0" lspd_denominator="4" att="0" lspd="0.1" lpdel="0" x100="0" amt="0" lspd_syncmode="0" lshp="0" rel="0.1" userwavefile="" ctlenvamt="0"/>
            <elres lspd_numerator="4" dec="0.5" pdel="0" latt="0" sustain="0.5" hold="0.5" lamt="0" lspd_denominator="4" att="0" lspd="0.1" lpdel="0" x100="0" amt="0" lspd_syncmode="0" lshp="0" rel="0.1" userwavefile="" ctlenvamt="0"/>
          </eldata>
          <chordcreator chord="0" chord-enabled="0" chordrange="1"/>
          <arpeggiator arptime_numerator="4" arpgate="100" arpcycle="0" arpdir="0" arpmode="0" arpskip="0" arptime_denominator="4" arprepeats="1" arp-enabled="0" arprange="1" arptime="200" arp="0" arpmiss="0" arptime_syncmode="0"/>
          <midiport inputchannel="0" writable="0" fixedinputvelocity="-1" fixedoutputvelocity="-1" outputprogram="1" readable="1" fixedoutputnote="-1" basevelocity="63" outputchannel="1" inports="" inputcontroller="0" outputcontroller="0"/>
          <fxchain enabled="0" numofeffects="0"/>
        </instrumenttrack>
        <midiclip muted="0" pos="1152" name="" type="1" steps="16">
          <note pos="0" vol="100" pan="0" key="76" len="168"/>
          <note pos="168" vol="100" pan="0" key="81" len="24"/>
          <note pos="276" vol="100" pan="0" key="74" len="6"/>
          <note pos="282" vol="100" pan="0" key="76" len="6"/>
          <note pos="288" vol="100" pan="0" key="78" len="24"/>
          <note pos="312" vol="100" pan="0" key="76" len="24"/>
          <note pos="336" vol="100" pan="0" key="74" len="24"/>
          <note pos="360" vol="100" pan="0" key="76" len="192"/>
          <note pos="552" vol="100" pan="0" key="74" len="24"/>
        </midiclip>
        <midiclip muted="0" pos="1920" name="" type="1" steps="16">
          <note pos="0" vol="100" pan="0" key="84" len="12"/>
          <note pos="24" vol="100" pan="0" key="72" len="36"/>
          <note pos="72" vol="100" pan="0" key="76" len="48"/>
          <note pos="120" vol="100" pan="0" key="79" len="72"/>
          <note pos="192" vol="100" pan="0" key="75" len="12"/>
          <note pos="216" vol="100" pan="0" key="75" len="36"/>
          <note pos="264" vol="100" pan="0" key="76" len="48"/>
          <note pos="312" vol="100" pan="0" key="78" len="72"/>
          <note pos="384" vol="100" pan="0" key="83" len="12"/>
          <note pos="408" vol="100" pan="0" key="71" len="36"/>
          <note pos="456" vol="100" pan="0" key="74" len="48"/>
          <note pos="504" vol="100" pan="0" key="76" len="48"/>
          <note pos="552" vol="100" pan="0" key="73" len="120"/>
          <note pos="720" vol="100" pan="0" key="69" len="24"/>
          <note pos="744" vol="100" pan="0" key="71" len="24"/>
          <note pos="768" vol="100" pan="0" key="72" len="72"/>
          <note pos="840" vol="100" pan="0" key="76" len="48"/>
          <note pos="888" vol="100" pan="0" key="72" len="48"/>
          <note pos="936" vol="100" pan="0" key="69" len="24"/>
          <note pos="960" vol="100" pan="0" key="75" len="72"/>
          <note pos="1032" vol="100" pan="0" key="71" len="72"/>
          <note pos="1104" vol="100" pan="0" key="69" len="24"/>
          <note pos="1128" vol="100" pan="0" key="67" len="24"/>
          <note pos="1152" vol="100" pan="0" key="71" len="24"/>
          <note pos="1176" vol="100" pan="0" key="64" len="48"/>
          <note pos="1224" vol="100" pan="0" key="76" len="48"/>
          <note pos="1272" vol="100" pan="0" key="74" len="48"/>
          <note pos="1320" vol="100" pan="0" key="73" len="48"/>
          <note pos="1368" vol="100" pan="0" key="71" len="24"/>
          <note pos="1392" vol="100" pan="0" key="69" len="96"/>
        </midiclip>
        <midiclip muted="0" pos="3456" name="" type="1" steps="16">
          <note pos="0" vol="100" pan="0" key="84" len="12"/>
          <note pos="24" vol="100" pan="0" key="72" len="36"/>
          <note pos="72" vol="100" pan="0" key="76" len="48"/>
          <note pos="120" vol="100" pan="0" key="79" len="72"/>
          <note pos="192" vol="100" pan="0" key="75" len="12"/>
          <note pos="216" vol="100" pan="0" key="75" len="36"/>
          <note pos="264" vol="100" pan="0" key="76" len="48"/>
          <note pos="312" vol="100" pan="0" key="78" len="72"/>
          <note pos="384" vol="100" pan="0" key="83" len="12"/>
          <note pos="408" vol="100" pan="0" key="84" len="36"/>
          <note pos="456" vol="100" pan="0" key="83" len="48"/>
          <note pos="504" vol="100" pan="0" key="79" len="48"/>
          <note pos="552" vol="100" pan="0" key="81" len="36"/>
          <note pos="588" vol="100" pan="0" key="79" len="12"/>
          <note pos="600" vol="100" pan="0" key="76" len="84"/>
          <note pos="720" vol="100" pan="0" key="84" len="24"/>
          <note pos="744" vol="100" pan="0" key="83" len="24"/>
          <note pos="768" vol="100" pan="0" key="81" len="60"/>
          <note pos="828" vol="100" pan="0" key="83" len="6"/>
          <note pos="834" vol="100" pan="0" key="81" len="6"/>
          <note pos="840" vol="100" pan="0" key="79" len="48"/>
          <note pos="888" vol="100" pan="0" key="76" len="48"/>
          <note pos="960" vol="100" pan="0" key="78" len="72"/>
          <note pos="1032" vol="100" pan="0" key="79" len="72"/>
          <note pos="1104" vol="100" pan="0" key="81" len="24"/>
          <note pos="1128" vol="100" pan="0" key="76" len="24"/>
          <note pos="1152" vol="100" pan="0" key="83" len="24"/>
          <note pos="1176" vol="100" pan="0" key="79" len="48"/>
          <note pos="1224" vol="100" pan="0" key="81" len="48"/>
          <note pos="1272" vol="100" pan="0" key="83" len="24"/>
          <note pos="1320" vol="100" pan="0" key="81" len="48"/>
          <note pos="1368" vol="100" pan="0" key="79" len="24"/>
          <note pos="1392" vol="100" pan="0" key="76" len="312"/>
        </midiclip>
        <midiclip muted="0" pos="8448" name="" type="1" steps="16">
          <note pos="0" vol="100" pan="0" key="84" len="12"/>
          <note pos="24" vol="100" pan="0" key="72" len="36"/>
          <note pos="72" vol="100" pan="0" key="76" len="48"/>
          <note pos="120" vol="100" pan="0" key="79" len="72"/>
          <note pos="192" vol="100" pan="0" key="75" len="12"/>
          <note pos="216" vol="100" pan="0" key="75" len="36"/>
          <note pos="264" vol="100" pan="0" key="76" len="48"/>
          <note pos="312" vol="100" pan="0" key="78" len="72"/>
          <note pos="384" vol="100" pan="0" key="83" len="12"/>
          <note pos="408" vol="100" pan="0" key="71" len="36"/>
          <note pos="456" vol="100" pan="0" key="74" len="48"/>
          <note pos="504" vol="100" pan="0" key="76" len="48"/>
          <note pos="552" vol="100" pan="0" key="73" len="120"/>
          <note pos="720" vol="100" pan="0" key="69" len="24"/>
          <note pos="744" vol="100" pan="0" key="71" len="24"/>
          <note pos="768" vol="100" pan="0" key="72" len="72"/>
          <note pos="840" vol="100" pan="0" key="76" len="48"/>
          <note pos="888" vol="100" pan="0" key="72" len="48"/>
          <note pos="936" vol="100" pan="0" key="69" len="24"/>
          <note pos="960" vol="100" pan="0" key="75" len="72"/>
          <note pos="1032" vol="100" pan="0" key="71" len="72"/>
          <note pos="1104" vol="100" pan="0" key="69" len="24"/>
          <note pos="1128" vol="100" pan="0" key="67" len="24"/>
          <note pos="1152" vol="100" pan="0" key="71" len="24"/>
          <note pos="1176" vol="100" pan="0" key="64" len="48"/>
          <note pos="1224" vol="100" pan="0" key="76" len="48"/>
          <note pos="1272" vol="100" pan="0" key="74" len="48"/>
          <note pos="1320" vol="100" pan="0" key="73" len="48"/>
          <note pos="1368" vol="100" pan="0" key="71" len="24"/>
          <note pos="1392" vol="100" pan="0" key="69" len="96"/>
        </midiclip>
        <midiclip muted="0" pos="9984" name="" type="1" steps="16">
          <note pos="0" vol="100" pan="0" key="84" len="12"/>
          <note pos="24" vol="100" pan="0" key="72" len="36"/>
          <note pos="72" vol="100" pan="0" key="76" len="48"/>
          <note pos="120" vol="100" pan="0" key="79" len="72"/>
          <note pos="192" vol="100" pan="0" key="75" len="12"/>
          <note pos="216" vol="100" pan="0" key="75" len="36"/>
          <note pos="264" vol="100" pan="0" key="76" len="48"/>
          <note pos="312" vol="100" pan="0" key="78" len="72"/>
          <note pos="384" vol="100" pan="0" key="83" len="12"/>
          <note pos="408" vol="100" pan="0" key="84" len="36"/>
          <note pos="456" vol="100" pan="0" key="83" len="48"/>
          <note pos="504" vol="100" pan="0" key="79" len="48"/>
          <note pos="552" vol="100" pan="0" key="81" len="36"/>
          <note pos="588" vol="100" pan="0" key="79" len="12"/>
          <note pos="600" vol="100" pan="0" key="76" len="84"/>
          <note pos="720" vol="100" pan="0" key="84" len="24"/>
          <note pos="744" vol="100" pan="0" key="83" len="24"/>
          <note pos="768" vol="100" pan="0" key="81" len="60"/>
          <note pos="828" vol="100" pan="0" key="83" len="6"/>
          <note pos="834" vol="100" pan="0" key="81" len="6"/>
          <note pos="840" vol="100" pan="0" key="79" len="48"/>
          <note pos="888" vol="100" pan="0" key="76" len="48"/>
          <note pos="960" vol="100" pan="0" key="78" len="72"/>
          <note pos="1032" vol="100" pan="0" key="79" len="72"/>
          <note pos="1104" vol="100" pan="0" key="81" len="24"/>
          <note pos="1128" vol="100" pan="0" key="76" len="24"/>
          <note pos="1152" vol="100" pan="0" key="83" len="24"/>
          <note pos="1176" vol="100" pan="0" key="79" len="48"/>
          <note pos="1224" vol="100" pan="0" key="81" len="48"/>
          <note pos="1272" vol="100" pan="0" key="83" len="24"/>
          <note pos="1320" vol="100" pan="0" key="81" len="48"/>
          <note pos="1368" vol="100" pan="0" key="79" len="24"/>
          <note pos="1392" vol="100" pan="0" key="76" len="312"/>
        </midiclip>
      </track>
      <track muted="0" mutedBeforeSolo="0" name="Acid" type="0" solo="0">
        <instrumenttrack pitchrange="1" usemasterpitch="1" vol="100" keymap="0" pan="0" basenote="57" enablecc="0" enabled="0" firstkey="0" range_import="1" mixch="3" lastkey="127" scale="0" pitch="0">
          <midicontrollers cc36="0" cc15="0" cc90="0" cc2="0" cc41="0" cc85="0" cc45="0" cc88="0" cc124="0" cc31="0" cc21="0" cc91="0" cc109="0" cc32="0" cc53="0" cc60="0" cc25="0" cc64="0" cc97="0" cc55="0" cc66="0" cc0="0" cc34="0" cc106="0" cc63="0" cc43="0" cc100="0" cc76="0" cc98="0" cc4="0" cc84="0" cc44="0" cc78="0" cc14="0" cc23="0" cc11="0" cc75="0" cc87="0" cc103="0" cc107="0" cc26="0" cc1="0" cc50="0" cc86="0" cc112="0" cc16="0" cc20="0" cc82="0" cc101="0" cc113="0" cc46="0" cc96="0" cc19="0" cc119="0" cc65="0" cc108="0" cc61="0" cc12="0" cc127="0" cc52="0" cc56="0" cc6="0" cc10="0" cc102="0" cc126="0" cc29="0" cc37="0" cc24="0" cc38="0" cc39="0" cc115="0" cc40="0" cc27="0" cc33="0" cc69="0" cc18="0" cc22="0" cc77="0" cc121="0" cc35="0" cc9="0" cc73="0" cc51="0" cc48="0" cc67="0" cc57="0" cc93="0" cc80="0" cc5="0" cc28="0" cc62="0" cc104="0" cc122="0" cc49="0" cc123="0" cc42="0" cc68="0" cc74="0" cc117="0" cc3="0" cc59="0" cc99="0" cc79="0" cc72="0" cc83="0" cc120="0" cc70="0" cc89="0" cc47="0" cc92="0" cc116="0" cc125="0" cc94="0" cc7="0" cc71="0" cc17="0" cc105="0" cc111="0" cc118="0" cc8="0" cc95="0" cc54="0" cc110="0" cc114="0" cc81="0" cc13="0" cc30="0" cc58="0"/>
          <instrument name="vestige">
            <vestige guivisible="0" chunk="zgANACsAAACFQAAAkE4AANQZAADpJQAAL1wAAAAAAACvGQAALQkAAPovAAC/EQAA/wsAAFRNAACKEQAA1A8AAOEhAABPDwAAthwAALVuAAChYQAARSYAAHAaAACZWAAAgkkAAJ0eAADdYgAA4xUAAKx3AADVOAAAeGQAAG86AAA5eAAAAgYAAJFsAACULQAAPQUAAPVaAAA9GQAAgiwAACAPAACdQgAAkG8AAKoBAADQbQAAgAAAAP/+/wlQAGEAdABjAGgAIAAgACAAMQD//v8JUABhAHQAYwBoACAAIAAgADIA//7/CVAAYQB0AGMAaAAgACAAIAAzAP/+/wlQAGEAdABjAGgAIAAgACAANAD//v8JUABhAHQAYwBoACAAIAAgADUA//7/CVAAYQB0AGMAaAAgACAAIAA2AP/+/wlQAGEAdABjAGgAIAAgACAANwD//v8JUABhAHQAYwBoACAAIAAgADgA//7/CVAAYQB0AGMAaAAgACAAIAA5AP/+/wlQAGEAdABjAGgAIAAgADEAMAD//v8JUABhAHQAYwBoACAAIAAxADEA//7/CVAAYQB0AGMAaAAgACAAMQAyAP/+/wlQAGEAdABjAGgAIAAgADEAMwD//v8JUABhAHQAYwBoACAAIAAxADQA//7/CVAAYQB0AGMAaAAgACAAMQA1AP/+/wlQAGEAdABjAGgAIAAgADEANgD//v8JUABhAHQAYwBoACAAIAAxADcA//7/CVAAYQB0AGMAaAAgACAAMQA4AP/+/wlQAGEAdABjAGgAIAAgADEAOQD//v8JUABhAHQAYwBoACAAIAAyADAA//7/CVAAYQB0AGMAaAAgACAAMgAxAP/+/wlQAGEAdABjAGgAIAAgADIAMgD//v8JUABhAHQAYwBoACAAIAAyADMA//7/CVAAYQB0AGMAaAAgACAAMgA0AP/+/wlQAGEAdABjAGgAIAAgADIANQD//v8JUABhAHQAYwBoACAAIAAyADYA//7/CVAAYQB0AGMAaAAgACAAMgA3AP/+/wlQAGEAdABjAGgAIAAgADIAOAD//v8JUABhAHQAYwBoACAAIAAyADkA//7/CVAAYQB0AGMAaAAgACAAMwAwAP/+/wlQAGEAdABjAGgAIAAgADMAMQD//v8JUABhAHQAYwBoACAAIAAzADIA//7/CVAAYQB0AGMAaAAgACAAMwAzAP/+/wlQAGEAdABjAGgAIAAgADMANAD//v8JUABhAHQAYwBoACAAIAAzADUA//7/CVAAYQB0AGMAaAAgACAAMwA2AP/+/wlQAGEAdABjAGgAIAAgADMANwD//v8JUABhAHQAYwBoACAAIAAzADgA//7/CVAAYQB0AGMAaAAgACAAMwA5AP/+/wlQAGEAdABjAGgAIAAgADQAMAD//v8JUABhAHQAYwBoACAAIAA0ADEA//7/CVAAYQB0AGMAaAAgACAANAAyAP/+/wlQAGEAdABjAGgAIAAgADQAMwD//v8JUABhAHQAYwBoACAAIAA0ADQA//7/CVAAYQB0AGMAaAAgACAANAA1AP/+/wlQAGEAdABjAGgAIAAgADQANgD//v8JUABhAHQAYwBoACAAIAA0ADcA//7/CVAAYQB0AGMAaAAgACAANAA4AP/+/wlQAGEAdABjAGgAIAAgADQAOQD//v8JUABhAHQAYwBoACAAIAA1ADAA//7/CVAAYQB0AGMAaAAgACAANQAxAP/+/wlQAGEAdABjAGgAIAAgADUAMgD//v8JUABhAHQAYwBoACAAIAA1ADMA//7/CVAAYQB0AGMAaAAgACAANQA0AP/+/wlQAGEAdABjAGgAIAAgADUANQD//v8JUABhAHQAYwBoACAAIAA1ADYA//7/CVAAYQB0AGMAaAAgACAANQA3AP/+/wlQAGEAdABjAGgAIAAgADUAOAD//v8JUABhAHQAYwBoACAAIAA1ADkA//7/CVAAYQB0AGMAaAAgACAANgAwAP/+/wlQAGEAdABjAGgAIAAgADYAMQD//v8JUABhAHQAYwBoACAAIAA2ADIA//7/CVAAYQB0AGMAaAAgACAANgAzAP/+/wlQAGEAdABjAGgAIAAgADYANAD//v8JUABhAHQAYwBoACAAIAA2ADUA//7/CVAAYQB0AGMAaAAgACAANgA2AP/+/wlQAGEAdABjAGgAIAAgADYANwD//v8JUABhAHQAYwBoACAAIAA2ADgA//7/CVAAYQB0AGMAaAAgACAANgA5AP/+/wlQAGEAdABjAGgAIAAgADcAMAD//v8JUABhAHQAYwBoACAAIAA3ADEA//7/CVAAYQB0AGMAaAAgACAANwAyAP/+/wlQAGEAdABjAGgAIAAgADcAMwD//v8JUABhAHQAYwBoACAAIAA3ADQA//7/CVAAYQB0AGMAaAAgACAANwA1AP/+/wlQAGEAdABjAGgAIAAgADcANgD//v8JUABhAHQAYwBoACAAIAA3ADcA//7/CVAAYQB0AGMAaAAgACAANwA4AP/+/wlQAGEAdABjAGgAIAAgADcAOQD//v8JUABhAHQAYwBoACAAIAA4ADAA//7/CVAAYQB0AGMAaAAgACAAOAAxAP/+/wlQAGEAdABjAGgAIAAgADgAMgD//v8JUABhAHQAYwBoACAAIAA4ADMA//7/CVAAYQB0AGMAaAAgACAAOAA0AP/+/wlQAGEAdABjAGgAIAAgADgANQD//v8JUABhAHQAYwBoACAAIAA4ADYA//7/CVAAYQB0AGMAaAAgACAAOAA3AP/+/wlQAGEAdABjAGgAIAAgADgAOAD//v8JUABhAHQAYwBoACAAIAA4ADkA//7/CVAAYQB0AGMAaAAgACAAOQAwAP/+/wlQAGEAdABjAGgAIAAgADkAMQD//v8JUABhAHQAYwBoACAAIAA5ADIA//7/CVAAYQB0AGMAaAAgACAAOQAzAP/+/wlQAGEAdABjAGgAIAAgADkANAD//v8JUABhAHQAYwBoACAAIAA5ADUA//7/CVAAYQB0AGMAaAAgACAAOQA2AP/+/wlQAGEAdABjAGgAIAAgADkANwD//v8JUABhAHQAYwBoACAAIAA5ADgA//7/CVAAYQB0AGMAaAAgACAAOQA5AP/+/wlQAGEAdABjAGgAIAAxADAAMAD//v8JUABhAHQAYwBoACAAMQAwADEA//7/CVAAYQB0AGMAaAAgADEAMAAyAP/+/wlQAGEAdABjAGgAIAAxADAAMwD//v8JUABhAHQAYwBoACAAMQAwADQA//7/CVAAYQB0AGMAaAAgADEAMAA1AP/+/wlQAGEAdABjAGgAIAAxADAANgD//v8JUABhAHQAYwBoACAAMQAwADcA//7/CVAAYQB0AGMAaAAgADEAMAA4AP/+/wlQAGEAdABjAGgAIAAxADAAOQD//v8JUABhAHQAYwBoACAAMQAxADAA//7/CVAAYQB0AGMAaAAgADEAMQAxAP/+/wlQAGEAdABjAGgAIAAxADEAMgD//v8JUABhAHQAYwBoACAAMQAxADMA//7/CVAAYQB0AGMAaAAgADEAMQA0AP/+/wlQAGEAdABjAGgAIAAxADEANQD//v8JUABhAHQAYwBoACAAMQAxADYA//7/CVAAYQB0AGMAaAAgADEAMQA3AP/+/wlQAGEAdABjAGgAIAAxADEAOAD//v8JUABhAHQAYwBoACAAMQAxADkA//7/CVAAYQB0AGMAaAAgADEAMgAwAP/+/wlQAGEAdABjAGgAIAAxADIAMQD//v8JUABhAHQAYwBoACAAMQAyADIA//7/CVAAYQB0AGMAaAAgADEAMgAzAP/+/wlQAGEAdABjAGgAIAAxADIANAD//v8JUABhAHQAYwBoACAAMQAyADUA//7/CVAAYQB0AGMAaAAgADEAMgA2AP/+/wlQAGEAdABjAGgAIAAxADIANwD//v8JUABhAHQAYwBoACAAMQAyADgABgAAAIAAAAD8/4dAAAAAAAAAAAAAAAAAAAAAAAAAAAAAAAAAAAAAAAAAAAAAAAAAAAAAAAAAAAAAAAAAAAAAAAAAAAAAAAAAAAAAAAAAAAAAAAAAAAAAAAAAAAAAAAAAAAAAAAAAAAAAAAAAAAAAAAAAAAAAAAAAAAAAAAAAAAAAAAAAAAAAAAAAAAAAAAAAAAAAAAAAAAAAAAAAAAAAAAAAAAAAAAAAAAAAAAAAAAAAAAAAAAAAAAAAAAAAAAAAAAAAAAAAAAAAAAAAAAAAAAAAAAAAAAAAAAAAAAAAAAAAAAAAAAAAAAAAAAAAAAAAAAAAAAAAAAAAAAAAAAAAAAAAAAAAAAAAAAAAAAAAAAAAAAAAAAAAAAAAAAAAAAAAAAAAAAAAAAAAAAAAAAAAAAAAAAAAAAAAAAAAAAAAAAAAAAAAAAAAAAAAAAAAAAAAAAAAAAAAAAAAAAAAAAAAAAAAAAAAAAAAAAAAAAAAAAAAAAAAAAAAAAAAAAAAAAAAAAAAAAAAAAAAAAAAAAAAAAAAAAAAAAAAAAAAAAAAAAAAAAAAAAAAAAAAAAAAAAAAAAAAAAAAAAAAAAAAAAAAAAAAAAAAAAAAAAAAAAAAAAAAAAAAAAAAAAAAAAAAAAAAAAAAAAAAAAAAAAAAAAAAAAAAAAAAAAAAAAAAAAAAAAAAAAAAAAAAAP///////v8ABgAAAIAAAADGzORAAAAAAAAAAAAAAAAAAAAAAAAAAAAAAAAAAAAAAAAAAAAAAAAAAAAAAAAAAAAAAAAAAAAAAAAAAAAAAAAAAAAAAAAAAAAAAAAAAAAAAAAAAAAAAAAAAAAAAAAAAAAAAAAAAAAAAAAAAAAAAAAAAAAAAAAAAAAAAAAAAAAAAAAAAAAAAAAAAAAAAAAAAAAAAAAAAAAAAAAAAAAAAAAAAAAAAAAAAAAAAAAAAAAAAAAAAAAAAAAAAAAAAAAAAAAAAAAAAAAAAAAAAAAAAAAAAAAAAAAAAAAAAAAAAAAAAAAAAAAAAAAAAAAAAAAAAAAAAAAAAAAAAAAAAAAAAAAAAAAAAAAAAAAAAAAAAAAAAAAAAAAAAAAAAAAAAAAAAAAAAAAAAAAAAAAAAAAAAAAAAAAAAAAAAAAAAAAAAAAAAAAAAAAAAAAAAAAAAAAAAAAAAAAAAAAAAAAAAAAAAAAAAAAAAAAAAAAAAAAAAAAAAAAAAAAAAAAAAAAAAAAAAAAAAAAAAAAAAAAAAAAAAAAAAAAAAAAAAAAAAAAAAAAAAAAAAAAAAAAAAAAAAAAAAAAAAAAAAAAAAAAAAAAAAAAAAAAAAAAAAAAAAAAAAAAAAAAAAAAAAAAAAAAAAAAAAAAAAAAAAAAAAAAAAAAAAAAAAAAAAAAAAAAAAAAAAAAAAP///////v8ABgAAAAEAAAAAAAAA///////+/wAGAAAAAQAAAAAAAAD///////7/AAYAAAABAAAAAAAAAP///////v8ABgAAAAEAAAAAACBC///////+/wAGAAAAgAAAAAAAIEEAAAAAAAAAAAAAAAAAAAAAAAAAAAAAAAAAAAAAAAAAAAAAAAAAAAAAAAAAAAAAAAAAAAAAAAAAAAAAAAAAAAAAAAAAAAAAAAAAAAAAAAAAAAAAAAAAAAAAAAAAAAAAAAAAAAAAAAAAAAAAAAAAAAAAAAAAAAAAAAAAAAAAAAAAAAAAAAAAAAAAAAAAAAAAAAAAAAAAAAAAAAAAAAAAAAAAAAAAAAAAAAAAAAAAAAAAAAAAAAAAAAAAAAAAAAAAAAAAAAAAAAAAAAAAAAAAAAAAAAAAAAAAAAAAAAAAAAAAAAAAAAAAAAAAAAAAAAAAAAAAAAAAAAAAAAAAAAAAAAAAAAAAAAAAAAAAAAAAAAAAAAAAAAAAAAAAAAAAAAAAAAAAAAAAAAAAAAAAAAAAAAAAAAAAAAAAAAAAAAAAAAAAAAAAAAAAAAAAAAAAAAAAAAAAAAAAAAAAAAAAAAAAAAAAAAAAAAAAAAAAAAAAAAAAAAAAAAAAAAAAAAAAAAAAAAAAAAAAAAAAAAAAAAAAAAAAAAAAAAAAAAAAAAAAAAAAAAAAAAAAAAAAAAAAAAAAAAAAAAAAAAAAAAAAAAAAAAAAAAAAAAAAAAAAAAAAAAAAAAAAAAAAAAAAAAAAAAAAAAAAAAAAAAAAAAAAAAAAAAAAAAAAAAAAAAAAAAAA///////+/wAGAAAAgAAAAAAAoEAAAAAAAAAAAAAAAAAAAAAAAAAAAAAAAAAAAAAAAAAAAAAAAAAAAAAAAAAAAAAAAAAAAAAAAAAAAAAAAAAAAAAAAAAAAAAAAAAAAAAAAAAAAAAAAAAAAAAAAAAAAAAAAAAAAAAAAAAAAAAAAAAAAAAAAAAAAAAAAAAAAAAAAAAAAAAAAAAAAAAAAAAAAAAAAAAAAAAAAAAAAAAAAAAAAAAAAAAAAAAAAAAAAAAAAAAAAAAAAAAAAAAAAAAAAAAAAAAAAAAAAAAAAAAAAAAAAAAAAAAAAAAAAAAAAAAAAAAAAAAAAAAAAAAAAAAAAAAAAAAAAAAAAAAAAAAAAAAAAAAAAAAAAAAAAAAAAAAAAAAAAAAAAAAAAAAAAAAAAAAAAAAAAAAAAAAAAAAAAAAAAAAAAAAAAAAAAAAAAAAAAAAAAAAAAAAAAAAAAAAAAAAAAAAAAAAAAAAAAAAAAAAAAAAAAAAAAAAAAAAAAAAAAAAAAAAAAAAAAAAAAAAAAAAAAAAAAAAAAAAAAAAAAAAAAAAAAAAAAAAAAAAAAAAAAAAAAAAAAAAAAAAAAAAAAAAAAAAAAAAAAAAAAAAAAAAAAAAAAAAAAAAAAAAAAAAAAAAAAAAAAAAAAAAAAAAAAAAAAAAAAAAAAAAAAAAAAAAAAAAAAAAAAAAAAAAAAAAA///////+/wAGAAAAgAAAAA8wgEAAAAAAAAAAAAAAAAAAAAAAAAAAAAAAAAAAAAAAAAAAAAAAAAAAAAAAAAAAAAAAAAAAAAAAAAAAAAAAAAAAAAAAAAAAAAAAAAAAAAAAAAAAAAAAAAAAAAAAAAAAAAAAAAAAAAAAAAAAAAAAAAAAAAAAAAAAAAAAAAAAAAAAAAAAAAAAAAAAAAAAAAAAAAAAAAAAAAAAAAAAAAAAAAAAAAAAAAAAAAAAAAAAAAAAAAAAAAAAAAAAAAAAAAAAAAAAAAAAAAAAAAAAAAAAAAAAAAAAAAAAAAAAAAAAAAAAAAAAAAAAAAAAAAAAAAAAAAAAAAAAAAAAAAAAAAAAAAAAAAAAAAAAAAAAAAAAAAAAAAAAAAAAAAAAAAAAAAAAAAAAAAAAAAAAAAAAAAAAAAAAAAAAAAAAAAAAAAAAAAAAAAAAAAAAAAAAAAAAAAAAAAAAAAAAAAAAAAAAAAAAAAAAAAAAAAAAAAAAAAAAAAAAAAAAAAAAAAAAAAAAAAAAAAAAAAAAAAAAAAAAAAAAAAAAAAAAAAAAAAAAAAAAAAAAAAAAAAAAAAAAAAAAAAAAAAAAAAAAAAAAAAAAAAAAAAAAAAAAAAAAAAAAAAAAAAAAAAAAAAAAAAAAAAAAAAAAAAAAAAAAAAAAAAAAAAAAAAAAAAAAAAAAAAAAAAAAAAAA///////+/wAGAAAAgAAAAKvr3EAAAAAAAAAAAAAAAAAAAAAAAAAAAAAAAAAAAAAAAAAAAAAAAAAAAAAAAAAAAAAAAAAAAAAAAAAAAAAAAAAAAAAAAAAAAAAAAAAAAAAAAAAAAAAAAAAAAAAAAAAAAAAAAAAAAAAAAAAAAAAAAAAAAAAAAAAAAAAAAAAAAAAAAAAAAAAAAAAAAAAAAAAAAAAAAAAAAAAAAAAAAAAAAAAAAAAAAAAAAAAAAAAAAAAAAAAAAAAAAAAAAAAAAAAAAAAAAAAAAAAAAAAAAAAAAAAAAAAAAAAAAAAAAAAAAAAAAAAAAAAAAAAAAAAAAAAAAAAAAAAAAAAAAAAAAAAAAAAAAAAAAAAAAAAAAAAAAAAAAAAAAAAAAAAAAAAAAAAAAAAAAAAAAAAAAAAAAAAAAAAAAAAAAAAAAAAAAAAAAAAAAAAAAAAAAAAAAAAAAAAAAAAAAAAAAAAAAAAAAAAAAAAAAAAAAAAAAAAAAAAAAAAAAAAAAAAAAAAAAAAAAAAAAAAAAAAAAAAAAAAAAAAAAAAAAAAAAAAAAAAAAAAAAAAAAAAAAAAAAAAAAAAAAAAAAAAAAAAAAAAAAAAAAAAAAAAAAAAAAAAAAAAAAAAAAAAAAAAAAAAAAAAAAAAAAAAAAAAAAAAAAAAAAAAAAAAAAAAAAAAAAAAAAAAAAAAAAAAA///////+/wAGAAAAAQAAAAAAAAD///////7/AAYAAACAAAAAzcwcQAAAAAAAAAAAAAAAAAAAAAAAAAAAAAAAAAAAAAAAAAAAAAAAAAAAAAAAAAAAAAAAAAAAAAAAAAAAAAAAAAAAAAAAAAAAAAAAAAAAAAAAAAAAAAAAAAAAAAAAAAAAAAAAAAAAAAAAAAAAAAAAAAAAAAAAAAAAAAAAAAAAAAAAAAAAAAAAAAAAAAAAAAAAAAAAAAAAAAAAAAAAAAAAAAAAAAAAAAAAAAAAAAAAAAAAAAAAAAAAAAAAAAAAAAAAAAAAAAAAAAAAAAAAAAAAAAAAAAAAAAAAAAAAAAAAAAAAAAAAAAAAAAAAAAAAAAAAAAAAAAAAAAAAAAAAAAAAAAAAAAAAAAAAAAAAAAAAAAAAAAAAAAAAAAAAAAAAAAAAAAAAAAAAAAAAAAAAAAAAAAAAAAAAAAAAAAAAAAAAAAAAAAAAAAAAAAAAAAAAAAAAAAAAAAAAAAAAAAAAAAAAAAAAAAAAAAAAAAAAAAAAAAAAAAAAAAAAAAAAAAAAAAAAAAAAAAAAAAAAAAAAAAAAAAAAAAAAAAAAAAAAAAAAAAAAAAAAAAAAAAAAAAAAAAAAAAAAAAAAAAAAAAAAAAAAAAAAAAAAAAAAAAAAAAAAAAAAAAAAAAAAAAAAAAAAAAAAAAAAAAAAAAAAAAAAAAAAAAAAAAAAAAAAAAAAAAAAAAD///////7/AAYAAAABAAAAAAAAAP///////v8ABgAAAAEAAAAAAAAA///////+/wAGAAAAgAAAAGJmFkEAAAAAAAAAAAAAAAAAAAAAAAAAAAAAAAAAAAAAAAAAAAAAAAAAAAAAAAAAAAAAAAAAAAAAAAAAAAAAAAAAAAAAAAAAAAAAAAAAAAAAAAAAAAAAAAAAAAAAAAAAAAAAAAAAAAAAAAAAAAAAAAAAAAAAAAAAAAAAAAAAAAAAAAAAAAAAAAAAAAAAAAAAAAAAAAAAAAAAAAAAAAAAAAAAAAAAAAAAAAAAAAAAAAAAAAAAAAAAAAAAAAAAAAAAAAAAAAAAAAAAAAAAAAAAAAAAAAAAAAAAAAAAAAAAAAAAAAAAAAAAAAAAAAAAAAAAAAAAAAAAAAAAAAAAAAAAAAAAAAAAAAAAAAAAAAAAAAAAAAAAAAAAAAAAAAAAAAAAAAAAAAAAAAAAAAAAAAAAAAAAAAAAAAAAAAAAAAAAAAAAAAAAAAAAAAAAAAAAAAAAAAAAAAAAAAAAAAAAAAAAAAAAAAAAAAAAAAAAAAAAAAAAAAAAAAAAAAAAAAAAAAAAAAAAAAAAAAAAAAAAAAAAAAAAAAAAAAAAAAAAAAAAAAAAAAAAAAAAAAAAAAAAAAAAAAAAAAAAAAAAAAAAAAAAAAAAAAAAAAAAAAAAAAAAAAAAAAAAAAAAAAAAAAAAAAAAAAAAAAAAAAAAAAAAAAAAAAAAAAAAAAAAAAAAAAAAAAAA///////+/wAGAAAAAQAAAAAAAAD///////7/AAYAAACAAAAAAADwQgAA8EIAAPBCAADwQgAA8EIAAPBCAADwQgAA8EIAAPBCAADwQgAA8EIAAPBCAADwQgAA8EIAAPBCAADwQgAA8EIAAPBCAADwQgAA8EIAAPBCAADwQgAA8EIAAPBCAADwQgAA8EIAAPBCAADwQgAA8EIAAPBCAADwQgAA8EIAAPBCAADwQgAA8EIAAPBCAADwQgAA8EIAAPBCAADwQgAA8EIAAPBCAADwQgAA8EIAAPBCAADwQgAA8EIAAPBCAADwQgAA8EIAAPBCAADwQgAA8EIAAPBCAADwQgAA8EIAAPBCAADwQgAA8EIAAPBCAADwQgAA8EIAAPBCAADwQgAA8EIAAPBCAADwQgAA8EIAAPBCAADwQgAA8EIAAPBCAADwQgAA8EIAAPBCAADwQgAA8EIAAPBCAADwQgAA8EIAAPBCAADwQgAA8EIAAPBCAADwQgAA8EIAAPBCAADwQgAA8EIAAPBCAADwQgAA8EIAAPBCAADwQgAA8EIAAPBCAADwQgAA8EIAAPBCAADwQgAA8EIAAPBCAADwQgAA8EIAAPBCAADwQgAA8EIAAPBCAADwQgAA8EIAAPBCAADwQgAA8EIAAPBCAADwQgAA8EIAAPBCAADwQgAA8EIAAPBCAADwQgAA8EIAAPBCAADwQgAA8EIAAPBCAADwQgAA8EL///////7/AAYAAAABAAAAAAAAAP///////v8ABgAAAIAAAACV16tAAAAAAAAAAAAAAAAAAAAAAAAAAAAAAAAAAAAAAAAAAAAAAAAAAAAAAAAAAAAAAAAAAAAAAAAAAAAAAAAAAAAAAAAAAAAAAAAAAAAAAAAAAAAAAAAAAAAAAAAAAAAAAAAAAAAAAAAAAAAAAAAAAAAAAAAAAAAAAAAAAAAAAAAAAAAAAAAAAAAAAAAAAAAAAAAAAAAAAAAAAAAAAAAAAAAAAAAAAAAAAAAAAAAAAAAAAAAAAAAAAAAAAAAAAAAAAAAAAAAAAAAAAAAAAAAAAAAAAAAAAAAAAAAAAAAAAAAAAAAAAAAAAAAAAAAAAAAAAAAAAAAAAAAAAAAAAAAAAAAAAAAAAAAAAAAAAAAAAAAAAAAAAAAAAAAAAAAAAAAAAAAAAAAAAAAAAAAAAAAAAAAAAAAAAAAAAAAAAAAAAAAAAAAAAAAAAAAAAAAAAAAAAAAAAAAAAAAAAAAAAAAAAAAAAAAAAAAAAAAAAAAAAAAAAAAAAAAAAAAAAAAAAAAAAAAAAAAAAAAAAAAAAAAAAAAAAAAAAAAAAAAAAAAAAAAAAAAAAAAAAAAAAAAAAAAAAAAAAAAAAAAAAAAAAAAAAAAAAAAAAAAAAAAAAAAAAAAAAAAAAAAAAAAAAAAAAAAAAAAAAAAAAAAAAAAAAAAAAAAAAAAAAAAAAAAAAAAAAP///////v8ABgAAAAEAAAAAAAAA///////+/wAGAAAAgAAAAMjMpEAAAAAAAAAAAAAAAAAAAAAAAAAAAAAAAAAAAAAAAAAAAAAAAAAAAAAAAAAAAAAAAAAAAAAAAAAAAAAAAAAAAAAAAAAAAAAAAAAAAAAAAAAAAAAAAAAAAAAAAAAAAAAAAAAAAAAAAAAAAAAAAAAAAAAAAAAAAAAAAAAAAAAAAAAAAAAAAAAAAAAAAAAAAAAAAAAAAAAAAAAAAAAAAAAAAAAAAAAAAAAAAAAAAAAAAAAAAAAAAAAAAAAAAAAAAAAAAAAAAAAAAAAAAAAAAAAAAAAAAAAAAAAAAAAAAAAAAAAAAAAAAAAAAAAAAAAAAAAAAAAAAAAAAAAAAAAAAAAAAAAAAAAAAAAAAAAAAAAAAAAAAAAAAAAAAAAAAAAAAAAAAAAAAAAAAAAAAAAAAAAAAAAAAAAAAAAAAAAAAAAAAAAAAAAAAAAAAAAAAAAAAAAAAAAAAAAAAAAAAAAAAAAAAAAAAAAAAAAAAAAAAAAAAAAAAAAAAAAAAAAAAAAAAAAAAAAAAAAAAAAAAAAAAAAAAAAAAAAAAAAAAAAAAAAAAAAAAAAAAAAAAAAAAAAAAAAAAAAAAAAAAAAAAAAAAAAAAAAAAAAAAAAAAAAAAAAAAAAAAAAAAAAAAAAAAAAAAAAAAAAAAAAAAAAAAAAAAAAAAAAAAAAAAAAAAAAAAAAA///////+/wAGAAAAgAAAAJSZGUEAAAAAAAAAAAAAAAAAAAAAAAAAAAAAAAAAAAAAAAAAAAAAAAAAAAAAAAAAAAAAAAAAAAAAAAAAAAAAAAAAAAAAAAAAAAAAAAAAAAAAAAAAAAAAAAAAAAAAAAAAAAAAAAAAAAAAAAAAAAAAAAAAAAAAAAAAAAAAAAAAAAAAAAAAAAAAAAAAAAAAAAAAAAAAAAAAAAAAAAAAAAAAAAAAAAAAAAAAAAAAAAAAAAAAAAAAAAAAAAAAAAAAAAAAAAAAAAAAAAAAAAAAAAAAAAAAAAAAAAAAAAAAAAAAAAAAAAAAAAAAAAAAAAAAAAAAAAAAAAAAAAAAAAAAAAAAAAAAAAAAAAAAAAAAAAAAAAAAAAAAAAAAAAAAAAAAAAAAAAAAAAAAAAAAAAAAAAAAAAAAAAAAAAAAAAAAAAAAAAAAAAAAAAAAAAAAAAAAAAAAAAAAAAAAAAAAAAAAAAAAAAAAAAAAAAAAAAAAAAAAAAAAAAAAAAAAAAAAAAAAAAAAAAAAAAAAAAAAAAAAAAAAAAAAAAAAAAAAAAAAAAAAAAAAAAAAAAAAAAAAAAAAAAAAAAAAAAAAAAAAAAAAAAAAAAAAAAAAAAAAAAAAAAAAAAAAAAAAAAAAAAAAAAAAAAAAAAAAAAAAAAAAAAAAAAAAAAAAAAAAAAAAAAAAAAAAAAAA///////+/wAGAAAAgAAAAAAAIEEAAAAAAAAAAAAAAAAAAAAAAAAAAAAAAAAAAAAAAAAAAAAAAAAAAAAAAAAAAAAAAAAAAAAAAAAAAAAAAAAAAAAAAAAAAAAAAAAAAAAAAAAAAAAAAAAAAAAAAAAAAAAAAAAAAAAAAAAAAAAAAAAAAAAAAAAAAAAAAAAAAAAAAAAAAAAAAAAAAAAAAAAAAAAAAAAAAAAAAAAAAAAAAAAAAAAAAAAAAAAAAAAAAAAAAAAAAAAAAAAAAAAAAAAAAAAAAAAAAAAAAAAAAAAAAAAAAAAAAAAAAAAAAAAAAAAAAAAAAAAAAAAAAAAAAAAAAAAAAAAAAAAAAAAAAAAAAAAAAAAAAAAAAAAAAAAAAAAAAAAAAAAAAAAAAAAAAAAAAAAAAAAAAAAAAAAAAAAAAAAAAAAAAAAAAAAAAAAAAAAAAAAAAAAAAAAAAAAAAAAAAAAAAAAAAAAAAAAAAAAAAAAAAAAAAAAAAAAAAAAAAAAAAAAAAAAAAAAAAAAAAAAAAAAAAAAAAAAAAAAAAAAAAAAAAAAAAAAAAAAAAAAAAAAAAAAAAAAAAAAAAAAAAAAAAAAAAAAAAAAAAAAAAAAAAAAAAAAAAAAAAAAAAAAAAAAAAAAAAAAAAAAAAAAAAAAAAAAAAAAAAAAAAAAAAAAAAAAAAAAAAAAAAAAAAAAAAAAA///////+/wAGAAAAgAAAAAAAoMAAAAAAAAAAAAAAAAAAAAAAAAAAAAAAAAAAAAAAAAAAAAAAAAAAAAAAAAAAAAAAAAAAAAAAAAAAAAAAAAAAAAAAAAAAAAAAAAAAAAAAAAAAAAAAAAAAAAAAAAAAAAAAAAAAAAAAAAAAAAAAAAAAAAAAAAAAAAAAAAAAAAAAAAAAAAAAAAAAAAAAAAAAAAAAAAAAAAAAAAAAAAAAAAAAAAAAAAAAAAAAAAAAAAAAAAAAAAAAAAAAAAAAAAAAAAAAAAAAAAAAAAAAAAAAAAAAAAAAAAAAAAAAAAAAAAAAAAAAAAAAAAAAAAAAAAAAAAAAAAAAAAAAAAAAAAAAAAAAAAAAAAAAAAAAAAAAAAAAAAAAAAAAAAAAAAAAAAAAAAAAAAAAAAAAAAAAAAAAAAAAAAAAAAAAAAAAAAAAAAAAAAAAAAAAAAAAAAAAAAAAAAAAAAAAAAAAAAAAAAAAAAAAAAAAAAAAAAAAAAAAAAAAAAAAAAAAAAAAAAAAAAAAAAAAAAAAAAAAAAAAAAAAAAAAAAAAAAAAAAAAAAAAAAAAAAAAAAAAAAAAAAAAAAAAAAAAAAAAAAAAAAAAAAAAAAAAAAAAAAAAAAAAAAAAAAAAAAAAAAAAAAAAAAAAAAAAAAAAAAAAAAAAAAAAAAAAAAAAAAAAAAAAAAAAAAAAAAAA///////+/wAGAAAAgAAAADYzcz8AAAAAAAAAAAAAAAAAAAAAAAAAAAAAAAAAAAAAAAAAAAAAAAAAAAAAAAAAAAAAAAAAAAAAAAAAAAAAAAAAAAAAAAAAAAAAAAAAAAAAAAAAAAAAAAAAAAAAAAAAAAAAAAAAAAAAAAAAAAAAAAAAAAAAAAAAAAAAAAAAAAAAAAAAAAAAAAAAAAAAAAAAAAAAAAAAAAAAAAAAAAAAAAAAAAAAAAAAAAAAAAAAAAAAAAAAAAAAAAAAAAAAAAAAAAAAAAAAAAAAAAAAAAAAAAAAAAAAAAAAAAAAAAAAAAAAAAAAAAAAAAAAAAAAAAAAAAAAAAAAAAAAAAAAAAAAAAAAAAAAAAAAAAAAAAAAAAAAAAAAAAAAAAAAAAAAAAAAAAAAAAAAAAAAAAAAAAAAAAAAAAAAAAAAAAAAAAAAAAAAAAAAAAAAAAAAAAAAAAAAAAAAAAAAAAAAAAAAAAAAAAAAAAAAAAAAAAAAAAAAAAAAAAAAAAAAAAAAAAAAAAAAAAAAAAAAAAAAAAAAAAAAAAAAAAAAAAAAAAAAAAAAAAAAAAAAAAAAAAAAAAAAAAAAAAAAAAAAAAAAAAAAAAAAAAAAAAAAAAAAAAAAAAAAAAAAAAAAAAAAAAAAAAAAAAAAAAAAAAAAAAAAAAAAAAAAAAAAAAAAAAAAAAAAAAAAAAAA///////+/wAGAAAAgAAAAGZmxkAAAAAAAAAAAAAAAAAAAAAAAAAAAAAAAAAAAAAAAAAAAAAAAAAAAAAAAAAAAAAAAAAAAAAAAAAAAAAAAAAAAAAAAAAAAAAAAAAAAAAAAAAAAAAAAAAAAAAAAAAAAAAAAAAAAAAAAAAAAAAAAAAAAAAAAAAAAAAAAAAAAAAAAAAAAAAAAAAAAAAAAAAAAAAAAAAAAAAAAAAAAAAAAAAAAAAAAAAAAAAAAAAAAAAAAAAAAAAAAAAAAAAAAAAAAAAAAAAAAAAAAAAAAAAAAAAAAAAAAAAAAAAAAAAAAAAAAAAAAAAAAAAAAAAAAAAAAAAAAAAAAAAAAAAAAAAAAAAAAAAAAAAAAAAAAAAAAAAAAAAAAAAAAAAAAAAAAAAAAAAAAAAAAAAAAAAAAAAAAAAAAAAAAAAAAAAAAAAAAAAAAAAAAAAAAAAAAAAAAAAAAAAAAAAAAAAAAAAAAAAAAAAAAAAAAAAAAAAAAAAAAAAAAAAAAAAAAAAAAAAAAAAAAAAAAAAAAAAAAAAAAAAAAAAAAAAAAAAAAAAAAAAAAAAAAAAAAAAAAAAAAAAAAAAAAAAAAAAAAAAAAAAAAAAAAAAAAAAAAAAAAAAAAAAAAAAAAAAAAAAAAAAAAAAAAAAAAAAAAAAAAAAAAAAAAAAAAAAAAAAAAAAAAAAAAAAAAAAA///////+/wAGAAAAgAAAAMTM/EAAAAAAAAAAAAAAAAAAAAAAAAAAAAAAAAAAAAAAAAAAAAAAAAAAAAAAAAAAAAAAAAAAAAAAAAAAAAAAAAAAAAAAAAAAAAAAAAAAAAAAAAAAAAAAAAAAAAAAAAAAAAAAAAAAAAAAAAAAAAAAAAAAAAAAAAAAAAAAAAAAAAAAAAAAAAAAAAAAAAAAAAAAAAAAAAAAAAAAAAAAAAAAAAAAAAAAAAAAAAAAAAAAAAAAAAAAAAAAAAAAAAAAAAAAAAAAAAAAAAAAAAAAAAAAAAAAAAAAAAAAAAAAAAAAAAAAAAAAAAAAAAAAAAAAAAAAAAAAAAAAAAAAAAAAAAAAAAAAAAAAAAAAAAAAAAAAAAAAAAAAAAAAAAAAAAAAAAAAAAAAAAAAAAAAAAAAAAAAAAAAAAAAAAAAAAAAAAAAAAAAAAAAAAAAAAAAAAAAAAAAAAAAAAAAAAAAAAAAAAAAAAAAAAAAAAAAAAAAAAAAAAAAAAAAAAAAAAAAAAAAAAAAAAAAAAAAAAAAAAAAAAAAAAAAAAAAAAAAAAAAAAAAAAAAAAAAAAAAAAAAAAAAAAAAAAAAAAAAAAAAAAAAAAAAAAAAAAAAAAAAAAAAAAAAAAAAAAAAAAAAAAAAAAAAAAAAAAAAAAAAAAAAAAAAAAAAAAAAAAAAAAAAAAAAAAAAAAAA///////+/wAGAAAAgAAAADgJ4EAAAAAAAAAAAAAAAAAAAAAAAAAAAAAAAAAAAAAAAAAAAAAAAAAAAAAAAAAAAAAAAAAAAAAAAAAAAAAAAAAAAAAAAAAAAAAAAAAAAAAAAAAAAAAAAAAAAAAAAAAAAAAAAAAAAAAAAAAAAAAAAAAAAAAAAAAAAAAAAAAAAAAAAAAAAAAAAAAAAAAAAAAAAAAAAAAAAAAAAAAAAAAAAAAAAAAAAAAAAAAAAAAAAAAAAAAAAAAAAAAAAAAAAAAAAAAAAAAAAAAAAAAAAAAAAAAAAAAAAAAAAAAAAAAAAAAAAAAAAAAAAAAAAAAAAAAAAAAAAAAAAAAAAAAAAAAAAAAAAAAAAAAAAAAAAAAAAAAAAAAAAAAAAAAAAAAAAAAAAAAAAAAAAAAAAAAAAAAAAAAAAAAAAAAAAAAAAAAAAAAAAAAAAAAAAAAAAAAAAAAAAAAAAAAAAAAAAAAAAAAAAAAAAAAAAAAAAAAAAAAAAAAAAAAAAAAAAAAAAAAAAAAAAAAAAAAAAAAAAAAAAAAAAAAAAAAAAAAAAAAAAAAAAAAAAAAAAAAAAAAAAAAAAAAAAAAAAAAAAAAAAAAAAAAAAAAAAAAAAAAAAAAAAAAAAAAAAAAAAAAAAAAAAAAAAAAAAAAAAAAAAAAAAAAAAAAAAAAAAAAAAAAAAAAAAAAAAAAA///////+/wAGAAAAAQAAAAAAoED///////7/AAYAAACAAAAAYmYKQQAAAAAAAAAAAAAAAAAAAAAAAAAAAAAAAAAAAAAAAAAAAAAAAAAAAAAAAAAAAAAAAAAAAAAAAAAAAAAAAAAAAAAAAAAAAAAAAAAAAAAAAAAAAAAAAAAAAAAAAAAAAAAAAAAAAAAAAAAAAAAAAAAAAAAAAAAAAAAAAAAAAAAAAAAAAAAAAAAAAAAAAAAAAAAAAAAAAAAAAAAAAAAAAAAAAAAAAAAAAAAAAAAAAAAAAAAAAAAAAAAAAAAAAAAAAAAAAAAAAAAAAAAAAAAAAAAAAAAAAAAAAAAAAAAAAAAAAAAAAAAAAAAAAAAAAAAAAAAAAAAAAAAAAAAAAAAAAAAAAAAAAAAAAAAAAAAAAAAAAAAAAAAAAAAAAAAAAAAAAAAAAAAAAAAAAAAAAAAAAAAAAAAAAAAAAAAAAAAAAAAAAAAAAAAAAAAAAAAAAAAAAAAAAAAAAAAAAAAAAAAAAAAAAAAAAAAAAAAAAAAAAAAAAAAAAAAAAAAAAAAAAAAAAAAAAAAAAAAAAAAAAAAAAAAAAAAAAAAAAAAAAAAAAAAAAAAAAAAAAAAAAAAAAAAAAAAAAAAAAAAAAAAAAAAAAAAAAAAAAAAAAAAAAAAAAAAAAAAAAAAAAAAAAAAAAAAAAAAAAAAAAAAAAAAAAAAAAAAAAAAAAAAAAAAAAAAAAAD///////7/AAYAAACAAAAA9/9PQAAAAAAAAAAAAAAAAAAAAAAAAAAAAAAAAAAAAAAAAAAAAAAAAAAAAAAAAAAAAAAAAAAAAAAAAAAAAAAAAAAAAAAAAAAAAAAAAAAAAAAAAAAAAAAAAAAAAAAAAAAAAAAAAAAAAAAAAAAAAAAAAAAAAAAAAAAAAAAAAAAAAAAAAAAAAAAAAAAAAAAAAAAAAAAAAAAAAAAAAAAAAAAAAAAAAAAAAAAAAAAAAAAAAAAAAAAAAAAAAAAAAAAAAAAAAAAAAAAAAAAAAAAAAAAAAAAAAAAAAAAAAAAAAAAAAAAAAAAAAAAAAAAAAAAAAAAAAAAAAAAAAAAAAAAAAAAAAAAAAAAAAAAAAAAAAAAAAAAAAAAAAAAAAAAAAAAAAAAAAAAAAAAAAAAAAAAAAAAAAAAAAAAAAAAAAAAAAAAAAAAAAAAAAAAAAAAAAAAAAAAAAAAAAAAAAAAAAAAAAAAAAAAAAAAAAAAAAAAAAAAAAAAAAAAAAAAAAAAAAAAAAAAAAAAAAAAAAAAAAAAAAAAAAAAAAAAAAAAAAAAAAAAAAAAAAAAAAAAAAAAAAAAAAAAAAAAAAAAAAAAAAAAAAAAAAAAAAAAAAAAAAAAAAAAAAAAAAAAAAAAAAAAAAAAAAAAAAAAAAAAAAAAAAAAAAAAAAAAAAAAAAAAAAAAAAAAAAAD///////7/AAYAAACAAAAAlJl5QAAAAAAAAAAAAAAAAAAAAAAAAAAAAAAAAAAAAAAAAAAAAAAAAAAAAAAAAAAAAAAAAAAAAAAAAAAAAAAAAAAAAAAAAAAAAAAAAAAAAAAAAAAAAAAAAAAAAAAAAAAAAAAAAAAAAAAAAAAAAAAAAAAAAAAAAAAAAAAAAAAAAAAAAAAAAAAAAAAAAAAAAAAAAAAAAAAAAAAAAAAAAAAAAAAAAAAAAAAAAAAAAAAAAAAAAAAAAAAAAAAAAAAAAAAAAAAAAAAAAAAAAAAAAAAAAAAAAAAAAAAAAAAAAAAAAAAAAAAAAAAAAAAAAAAAAAAAAAAAAAAAAAAAAAAAAAAAAAAAAAAAAAAAAAAAAAAAAAAAAAAAAAAAAAAAAAAAAAAAAAAAAAAAAAAAAAAAAAAAAAAAAAAAAAAAAAAAAAAAAAAAAAAAAAAAAAAAAAAAAAAAAAAAAAAAAAAAAAAAAAAAAAAAAAAAAAAAAAAAAAAAAAAAAAAAAAAAAAAAAAAAAAAAAAAAAAAAAAAAAAAAAAAAAAAAAAAAAAAAAAAAAAAAAAAAAAAAAAAAAAAAAAAAAAAAAAAAAAAAAAAAAAAAAAAAAAAAAAAAAAAAAAAAAAAAAAAAAAAAAAAAAAAAAAAAAAAAAAAAAAAAAAAAAAAAAAAAAAAAAAAAAAAAAAAAAAAAAAD///////7/AAYAAACAAAAAAAAAAAAAAAAAAAAAAAAAAAAAAAAAAAAAAAAAAAAAAAAAAAAAAAAAAAAAAAAAAAAAAAAAAAAAAAAAAAAAAAAAAAAAAAAAAAAAAAAAAAAAAAAAAAAAAAAAAAAAAAAAAAAAAAAAAAAAAAAAAAAAAAAAAAAAAAAAAAAAAAAAAAAAAAAAAAAAAAAAAAAAAAAAAAAAAAAAAAAAAAAAAAAAAAAAAAAAAAAAAAAAAAAAAAAAAAAAAAAAAAAAAAAAAAAAAAAAAAAAAAAAAAAAAAAAAAAAAAAAAAAAAAAAAAAAAAAAAAAAAAAAAAAAAAAAAAAAAAAAAAAAAAAAAAAAAAAAAAAAAAAAAAAAAAAAAAAAAAAAAAAAAAAAAAAAAAAAAAAAAAAAAAAAAAAAAAAAAAAAAAAAAAAAAAAAAAAAAAAAAAAAAAAAAAAAAAAAAAAAAAAAAAAAAAAAAAAAAAAAAAAAAAAAAAAAAAAAAAAAAAAAAAAAAAAAAAAAAAAAAAAAAAAAAAAAAAAAAAAAAAAAAAAAAAAAAAAAAAAAAAAAAAAAAAAAAAAAAAAAAAAAAAAAAAAAAAAAAAAAAAAAAAAAAAAAAAAAAAAAAAAAAAAAAAAAAAAAAAAAAAAAAAAAAAAAAAAAAAAAAAAAAAAAAAAAAAAAAAAAAAAAAAAAAAAAAAAAAAAAAAD///////7/AAAAAACAAAAAAAAAAAAAAAAAAAAAAAAAAAAAAAAAAAAAAAAAAAAAAAAAAAAAAAAAAAAAAAAAAAAAAAAAAAAAAAAAAAAAAAAAAAAAAAAAAAAAAAAAAAAAAAAAAAAAAAAAAAAAAAAAAAAAAAAAAAAAAAAAAAAAAAAAAAAAAAAAAAAAAAAAAAAAAAAAAAAAAAAAAAAAAAAAAAAAAAAAAAAAAAAAAAAAAAAAAAAAAAAAAAAAAAAAAAAAAAAAAAAAAAAAAAAAAAAAAAAAAAAAAAAAAAAAAAAAAAAAAAAAAAAAAAAAAAAAAAAAAAAAAAAAAAAAAAAAAAAAAAAAAAAAAAAAAAAAAAAAAAAAAAAAAAAAAAAAAAAAAAAAAAAAAAAAAAAAAAAAAAAAAAAAAAAAAAAAAAAAAAAAAAAAAAAAAAAAAAAAAAAAAAAAAAAAAAAAAAAAAAAAAAAAAAAAAAAAAAAAAAAAAAAAAAAAAAAAAAAAAAAAAAAAAAAAAAAAAAAAAAAAAAAAAAAAAAAAAAAAAAAAAAAAAAAAAAAAAAAAAAAAAAAAAAAAAAAAAAAAAAAAAAAAAAAAAAAAAAAAAAAAAAAAAAAAAAAAAAAAAAAAAAAAAAAAAAAAAAAAAAAAAAAAAAAAAAAAAAAAAAAAAAAAAAAAAAAAAAAAAAAAAAAAAAAAAAAAAAAAAAAAAAD///////7/AAYAAAABAAAAAAAAAP///////v8ABgAAAAEAAAAAAAAA///////+/wAGAAAAAQAAAAAAAAD///////7/AAYAAACAAAAAYmZmQAAAAAAAAAAAAAAAAAAAAAAAAAAAAAAAAAAAAAAAAAAAAAAAAAAAAAAAAAAAAAAAAAAAAAAAAAAAAAAAAAAAAAAAAAAAAAAAAAAAAAAAAAAAAAAAAAAAAAAAAAAAAAAAAAAAAAAAAAAAAAAAAAAAAAAAAAAAAAAAAAAAAAAAAAAAAAAAAAAAAAAAAAAAAAAAAAAAAAAAAAAAAAAAAAAAAAAAAAAAAAAAAAAAAAAAAAAAAAAAAAAAAAAAAAAAAAAAAAAAAAAAAAAAAAAAAAAAAAAAAAAAAAAAAAAAAAAAAAAAAAAAAAAAAAAAAAAAAAAAAAAAAAAAAAAAAAAAAAAAAAAAAAAAAAAAAAAAAAAAAAAAAAAAAAAAAAAAAAAAAAAAAAAAAAAAAAAAAAAAAAAAAAAAAAAAAAAAAAAAAAAAAAAAAAAAAAAAAAAAAAAAAAAAAAAAAAAAAAAAAAAAAAAAAAAAAAAAAAAAAAAAAAAAAAAAAAAAAAAAAAAAAAAAAAAAAAAAAAAAAAAAAAAAAAAAAAAAAAAAAAAAAAAAAAAAAAAAAAAAAAAAAAAAAAAAAAAAAAAAAAAAAAAAAAAAAAAAAAAAAAAAAAAAAAAAAAAAAAAAAAAAAAAAAAAAAAAAAAAAAAAAAAAAAAAAAAAAAAAAAAAAAAAAAAAAAAAAAAD///////7/AAYAAACAAAAAxszMQAAAAAAAAAAAAAAAAAAAAAAAAAAAAAAAAAAAAAAAAAAAAAAAAAAAAAAAAAAAAAAAAAAAAAAAAAAAAAAAAAAAAAAAAAAAAAAAAAAAAAAAAAAAAAAAAAAAAAAAAAAAAAAAAAAAAAAAAAAAAAAAAAAAAAAAAAAAAAAAAAAAAAAAAAAAAAAAAAAAAAAAAAAAAAAAAAAAAAAAAAAAAAAAAAAAAAAAAAAAAAAAAAAAAAAAAAAAAAAAAAAAAAAAAAAAAAAAAAAAAAAAAAAAAAAAAAAAAAAAAAAAAAAAAAAAAAAAAAAAAAAAAAAAAAAAAAAAAAAAAAAAAAAAAAAAAAAAAAAAAAAAAAAAAAAAAAAAAAAAAAAAAAAAAAAAAAAAAAAAAAAAAAAAAAAAAAAAAAAAAAAAAAAAAAAAAAAAAAAAAAAAAAAAAAAAAAAAAAAAAAAAAAAAAAAAAAAAAAAAAAAAAAAAAAAAAAAAAAAAAAAAAAAAAAAAAAAAAAAAAAAAAAAAAAAAAAAAAAAAAAAAAAAAAAAAAAAAAAAAAAAAAAAAAAAAAAAAAAAAAAAAAAAAAAAAAAAAAAAAAAAAAAAAAAAAAAAAAAAAAAAAAAAAAAAAAAAAAAAAAAAAAAAAAAAAAAAAAAAAAAAAAAAAAAAAAAAAAAAAAAAAAAAAAAAAAAAAAAD///////7/AAYAAACAAAAAAACAPwAAAAAAAAAAAAAAAAAAAAAAAAAAAAAAAAAAAAAAAAAAAAAAAAAAAAAAAAAAAAAAAAAAAAAAAAAAAAAAAAAAAAAAAAAAAAAAAAAAAAAAAAAAAAAAAAAAAAAAAAAAAAAAAAAAAAAAAAAAAAAAAAAAAAAAAAAAAAAAAAAAAAAAAAAAAAAAAAAAAAAAAAAAAAAAAAAAAAAAAAAAAAAAAAAAAAAAAAAAAAAAAAAAAAAAAAAAAAAAAAAAAAAAAAAAAAAAAAAAAAAAAAAAAAAAAAAAAAAAAAAAAAAAAAAAAAAAAAAAAAAAAAAAAAAAAAAAAAAAAAAAAAAAAAAAAAAAAAAAAAAAAAAAAAAAAAAAAAAAAAAAAAAAAAAAAAAAAAAAAAAAAAAAAAAAAAAAAAAAAAAAAAAAAAAAAAAAAAAAAAAAAAAAAAAAAAAAAAAAAAAAAAAAAAAAAAAAAAAAAAAAAAAAAAAAAAAAAAAAAAAAAAAAAAAAAAAAAAAAAAAAAAAAAAAAAAAAAAAAAAAAAAAAAAAAAAAAAAAAAAAAAAAAAAAAAAAAAAAAAAAAAAAAAAAAAAAAAAAAAAAAAAAAAAAAAAAAAAAAAAAAAAAAAAAAAAAAAAAAAAAAAAAAAAAAAAAAAAAAAAAAAAAAAAAAAAAAAAAAAAAAAAAAAAAAAAAAAAD///////7/AAYAAACAAAAAAAAAAAAAAEEAAABBAAAAQQAAAEEAAABBAAAAQQAAAEEAAABBAAAAQQAAAEEAAABBAAAAQQAAAEEAAABBAAAAQQAAAEEAAABBAAAAQQAAAEEAAABBAAAAQQAAAEEAAABBAAAAQQAAAEEAAABBAAAAQQAAAEEAAABBAAAAQQAAAEEAAABBAAAAQQAAAEEAAABBAAAAQQAAAEEAAABBAAAAQQAAAEEAAABBAAAAQQAAAEEAAABBAAAAQQAAAEEAAABBAAAAQQAAAEEAAABBAAAAQQAAAEEAAABBAAAAQQAAAEEAAABBAAAAQQAAAEEAAABBAAAAQQAAAEEAAABBAAAAQQAAAEEAAABBAAAAQQAAAEEAAABBAAAAQQAAAEEAAABBAAAAQQAAAEEAAABBAAAAQQAAAEEAAABBAAAAQQAAAEEAAABBAAAAQQAAAEEAAABBAAAAQQAAAEEAAABBAAAAQQAAAEEAAABBAAAAQQAAAEEAAABBAAAAQQAAAEEAAABBAAAAQQAAAEEAAABBAAAAQQAAAEEAAABBAAAAQQAAAEEAAABBAAAAQQAAAEEAAABBAAAAQQAAAEEAAABBAAAAQQAAAEEAAABBAAAAQQAAAEEAAABBAAAAQQAAAEEAAABBAAAAQQAAAEEAAABBAAAAQQAAAEEAAABBAAAAQQAAAEH///////7/AAYAAAABAAAAAAAAAP///////v8ABgAAAAEAAAAAAAAA///////+/wA=" program="0" plugin="uservst:Instruments/basscruncher/basscruncher.dll">
              <key/>
            </vestige>
          </instrument>
          <eldata fcut="14000" fres="0.5" ftype="0" fwet="0">
            <elvol lspd_numerator="4" dec="0.5" pdel="0" latt="0" sustain="0.5" hold="0.5" lamt="0" lspd_denominator="4" att="0" lspd="0.1" lpdel="0" x100="0" amt="0" lspd_syncmode="0" lshp="0" rel="0.1" userwavefile="" ctlenvamt="0"/>
            <elcut lspd_numerator="4" dec="0.5" pdel="0" latt="0" sustain="0.5" hold="0.5" lamt="0" lspd_denominator="4" att="0" lspd="0.1" lpdel="0" x100="0" amt="0" lspd_syncmode="0" lshp="0" rel="0.1" userwavefile="" ctlenvamt="0"/>
            <elres lspd_numerator="4" dec="0.5" pdel="0" latt="0" sustain="0.5" hold="0.5" lamt="0" lspd_denominator="4" att="0" lspd="0.1" lpdel="0" x100="0" amt="0" lspd_syncmode="0" lshp="0" rel="0.1" userwavefile="" ctlenvamt="0"/>
          </eldata>
          <chordcreator chord="0" chord-enabled="0" chordrange="1"/>
          <arpeggiator arptime_numerator="4" arpgate="100" arpcycle="0" arpdir="0" arpmode="0" arpskip="0" arptime_denominator="4" arprepeats="1" arp-enabled="0" arprange="1" arptime="200" arp="0" arpmiss="0" arptime_syncmode="0"/>
          <midiport inputchannel="0" writable="0" fixedinputvelocity="-1" fixedoutputvelocity="-1" outputprogram="1" readable="1" fixedoutputnote="-1" basevelocity="63" outputchannel="1" inports="" inputcontroller="0" outputcontroller="0"/>
          <fxchain enabled="0" numofeffects="0"/>
        </instrumenttrack>
        <midiclip muted="0" pos="1920" name="" type="1" steps="16">
          <note pos="0" vol="100" pan="0" key="36" len="10"/>
          <note pos="24" vol="100" pan="0" key="36" len="10"/>
          <note pos="48" vol="100" pan="0" key="31" len="10"/>
          <note pos="72" vol="100" pan="0" key="35" len="10"/>
          <note pos="96" vol="100" pan="0" key="36" len="10"/>
          <note pos="120" vol="100" pan="0" key="36" len="10"/>
          <note pos="144" vol="100" pan="0" key="38" len="10"/>
          <note pos="168" vol="100" pan="0" key="40" len="10"/>
          <note pos="192" vol="100" pan="0" key="35" len="10"/>
          <note pos="216" vol="100" pan="0" key="35" len="10"/>
          <note pos="240" vol="100" pan="0" key="30" len="10"/>
          <note pos="264" vol="100" pan="0" key="33" len="10"/>
          <note pos="288" vol="100" pan="0" key="35" len="10"/>
          <note pos="312" vol="100" pan="0" key="35" len="10"/>
          <note pos="336" vol="100" pan="0" key="37" len="10"/>
          <note pos="360" vol="100" pan="0" key="39" len="10"/>
          <note pos="384" vol="100" pan="0" key="40" len="10"/>
          <note pos="408" vol="100" pan="0" key="40" len="10"/>
          <note pos="432" vol="100" pan="0" key="28" len="10"/>
          <note pos="456" vol="100" pan="0" key="31" len="10"/>
          <note pos="480" vol="100" pan="0" key="33" len="10"/>
          <note pos="504" vol="100" pan="0" key="33" len="10"/>
          <note pos="528" vol="100" pan="0" key="35" len="10"/>
          <note pos="552" vol="100" pan="0" key="37" len="10"/>
          <note pos="576" vol="100" pan="0" key="33" len="10"/>
          <note pos="600" vol="100" pan="0" key="33" len="10"/>
          <note pos="624" vol="100" pan="0" key="37" len="10"/>
          <note pos="648" vol="100" pan="0" key="40" len="10"/>
          <note pos="672" vol="100" pan="0" key="28" len="10"/>
          <note pos="696" vol="100" pan="0" key="28" len="10"/>
          <note pos="720" vol="100" pan="0" key="31" len="10"/>
          <note pos="744" vol="100" pan="0" key="33" len="10"/>
          <note pos="768" vol="100" pan="0" key="36" len="10"/>
          <note pos="792" vol="100" pan="0" key="36" len="10"/>
          <note pos="816" vol="100" pan="0" key="31" len="10"/>
          <note pos="840" vol="100" pan="0" key="33" len="10"/>
          <note pos="864" vol="100" pan="0" key="36" len="10"/>
          <note pos="888" vol="100" pan="0" key="36" len="10"/>
          <note pos="912" vol="100" pan="0" key="38" len="10"/>
          <note pos="936" vol="100" pan="0" key="40" len="10"/>
          <note pos="960" vol="100" pan="0" key="35" len="10"/>
          <note pos="984" vol="100" pan="0" key="35" len="10"/>
          <note pos="1008" vol="100" pan="0" key="30" len="10"/>
          <note pos="1032" vol="100" pan="0" key="33" len="10"/>
          <note pos="1056" vol="100" pan="0" key="35" len="10"/>
          <note pos="1080" vol="100" pan="0" key="35" len="10"/>
          <note pos="1104" vol="100" pan="0" key="37" len="10"/>
          <note pos="1128" vol="100" pan="0" key="39" len="10"/>
          <note pos="1152" vol="100" pan="0" key="40" len="10"/>
          <note pos="1176" vol="100" pan="0" key="28" len="10"/>
          <note pos="1200" vol="100" pan="0" key="28" len="22"/>
          <note pos="1224" vol="100" pan="0" key="40" len="10"/>
          <note pos="1248" vol="100" pan="0" key="28" len="10"/>
          <note pos="1272" vol="100" pan="0" key="28" len="22"/>
          <note pos="1296" vol="100" pan="0" key="40" len="10"/>
          <note pos="1320" vol="100" pan="0" key="28" len="22"/>
          <note pos="1344" vol="100" pan="0" key="33" len="10"/>
          <note pos="1368" vol="100" pan="0" key="33" len="10"/>
          <note pos="1392" vol="100" pan="0" key="28" len="10"/>
          <note pos="1416" vol="100" pan="0" key="31" len="10"/>
          <note pos="1440" vol="100" pan="0" key="33" len="10"/>
          <note pos="1464" vol="100" pan="0" key="33" len="10"/>
          <note pos="1488" vol="100" pan="0" key="35" len="10"/>
          <note pos="1512" vol="100" pan="0" key="37" len="10"/>
        </midiclip>
        <midiclip muted="0" pos="384" name="" type="1" steps="16">
          <note pos="0" vol="100" pan="0" key="40" len="10"/>
          <note pos="24" vol="100" pan="0" key="40" len="10"/>
          <note pos="48" vol="100" pan="0" key="35" len="10"/>
          <note pos="72" vol="100" pan="0" key="38" len="10"/>
          <note pos="96" vol="100" pan="0" key="40" len="10"/>
          <note pos="120" vol="100" pan="0" key="40" len="10"/>
          <note pos="144" vol="100" pan="0" key="42" len="10"/>
          <note pos="168" vol="100" pan="0" key="43" len="10"/>
        </midiclip>
        <midiclip muted="0" pos="576" name="" type="1" steps="16">
          <note pos="0" vol="100" pan="0" key="40" len="10"/>
          <note pos="24" vol="100" pan="0" key="40" len="10"/>
          <note pos="48" vol="100" pan="0" key="35" len="10"/>
          <note pos="72" vol="100" pan="0" key="38" len="10"/>
          <note pos="96" vol="100" pan="0" key="40" len="10"/>
          <note pos="120" vol="100" pan="0" key="40" len="10"/>
          <note pos="144" vol="100" pan="0" key="42" len="10"/>
          <note pos="168" vol="100" pan="0" key="43" len="10"/>
        </midiclip>
        <midiclip muted="0" pos="768" name="" type="1" steps="16">
          <note pos="0" vol="100" pan="0" key="40" len="10"/>
          <note pos="24" vol="100" pan="0" key="40" len="10"/>
          <note pos="48" vol="100" pan="0" key="35" len="10"/>
          <note pos="72" vol="100" pan="0" key="38" len="10"/>
          <note pos="96" vol="100" pan="0" key="40" len="10"/>
          <note pos="120" vol="100" pan="0" key="40" len="10"/>
          <note pos="144" vol="100" pan="0" key="42" len="10"/>
          <note pos="168" vol="100" pan="0" key="43" len="10"/>
        </midiclip>
        <midiclip muted="0" pos="960" name="" type="1" steps="16">
          <note pos="0" vol="100" pan="0" key="40" len="10"/>
          <note pos="24" vol="100" pan="0" key="40" len="10"/>
          <note pos="48" vol="100" pan="0" key="35" len="10"/>
          <note pos="72" vol="100" pan="0" key="38" len="10"/>
          <note pos="96" vol="100" pan="0" key="40" len="10"/>
          <note pos="120" vol="100" pan="0" key="40" len="10"/>
          <note pos="144" vol="100" pan="0" key="42" len="10"/>
          <note pos="168" vol="100" pan="0" key="43" len="10"/>
        </midiclip>
        <midiclip muted="0" pos="1152" name="" type="1" steps="16">
          <note pos="0" vol="100" pan="0" key="40" len="10"/>
          <note pos="24" vol="100" pan="0" key="40" len="10"/>
          <note pos="48" vol="100" pan="0" key="35" len="10"/>
          <note pos="72" vol="100" pan="0" key="38" len="10"/>
          <note pos="96" vol="100" pan="0" key="40" len="10"/>
          <note pos="120" vol="100" pan="0" key="40" len="10"/>
          <note pos="144" vol="100" pan="0" key="42" len="10"/>
          <note pos="168" vol="100" pan="0" key="43" len="10"/>
        </midiclip>
        <midiclip muted="0" pos="1344" name="" type="1" steps="16">
          <note pos="0" vol="100" pan="0" key="40" len="10"/>
          <note pos="24" vol="100" pan="0" key="40" len="10"/>
          <note pos="48" vol="100" pan="0" key="35" len="10"/>
          <note pos="72" vol="100" pan="0" key="38" len="10"/>
          <note pos="96" vol="100" pan="0" key="40" len="10"/>
          <note pos="120" vol="100" pan="0" key="40" len="10"/>
          <note pos="144" vol="100" pan="0" key="42" len="10"/>
          <note pos="168" vol="100" pan="0" key="43" len="10"/>
        </midiclip>
        <midiclip muted="0" pos="1536" name="" type="1" steps="16">
          <note pos="0" vol="100" pan="0" key="40" len="10"/>
          <note pos="24" vol="100" pan="0" key="40" len="10"/>
          <note pos="48" vol="100" pan="0" key="35" len="10"/>
          <note pos="72" vol="100" pan="0" key="38" len="10"/>
          <note pos="96" vol="100" pan="0" key="40" len="10"/>
          <note pos="120" vol="100" pan="0" key="40" len="10"/>
          <note pos="144" vol="100" pan="0" key="42" len="10"/>
          <note pos="168" vol="100" pan="0" key="43" len="10"/>
        </midiclip>
        <midiclip muted="0" pos="1728" name="" type="1" steps="16">
          <note pos="0" vol="100" pan="0" key="40" len="10"/>
          <note pos="24" vol="100" pan="0" key="40" len="10"/>
          <note pos="48" vol="100" pan="0" key="35" len="10"/>
          <note pos="72" vol="100" pan="0" key="38" len="10"/>
          <note pos="96" vol="100" pan="0" key="40" len="10"/>
          <note pos="120" vol="100" pan="0" key="40" len="10"/>
          <note pos="144" vol="100" pan="0" key="42" len="10"/>
          <note pos="168" vol="100" pan="0" key="43" len="10"/>
        </midiclip>
        <midiclip muted="0" pos="3456" name="" type="1" steps="16">
          <note pos="0" vol="100" pan="0" key="36" len="10"/>
          <note pos="24" vol="100" pan="0" key="36" len="10"/>
          <note pos="48" vol="100" pan="0" key="31" len="10"/>
          <note pos="72" vol="100" pan="0" key="35" len="10"/>
          <note pos="96" vol="100" pan="0" key="36" len="10"/>
          <note pos="120" vol="100" pan="0" key="36" len="10"/>
          <note pos="144" vol="100" pan="0" key="38" len="10"/>
          <note pos="168" vol="100" pan="0" key="40" len="10"/>
          <note pos="192" vol="100" pan="0" key="35" len="10"/>
          <note pos="216" vol="100" pan="0" key="35" len="10"/>
          <note pos="240" vol="100" pan="0" key="30" len="10"/>
          <note pos="264" vol="100" pan="0" key="33" len="10"/>
          <note pos="288" vol="100" pan="0" key="35" len="10"/>
          <note pos="312" vol="100" pan="0" key="35" len="10"/>
          <note pos="336" vol="100" pan="0" key="37" len="10"/>
          <note pos="360" vol="100" pan="0" key="39" len="10"/>
          <note pos="384" vol="100" pan="0" key="40" len="10"/>
          <note pos="408" vol="100" pan="0" key="40" len="10"/>
          <note pos="432" vol="100" pan="0" key="28" len="10"/>
          <note pos="456" vol="100" pan="0" key="31" len="10"/>
          <note pos="480" vol="100" pan="0" key="33" len="10"/>
          <note pos="504" vol="100" pan="0" key="33" len="10"/>
          <note pos="528" vol="100" pan="0" key="35" len="10"/>
          <note pos="552" vol="100" pan="0" key="37" len="10"/>
          <note pos="576" vol="100" pan="0" key="33" len="10"/>
          <note pos="600" vol="100" pan="0" key="33" len="10"/>
          <note pos="624" vol="100" pan="0" key="37" len="10"/>
          <note pos="648" vol="100" pan="0" key="40" len="10"/>
          <note pos="672" vol="100" pan="0" key="28" len="10"/>
          <note pos="696" vol="100" pan="0" key="28" len="10"/>
          <note pos="720" vol="100" pan="0" key="31" len="10"/>
          <note pos="744" vol="100" pan="0" key="33" len="10"/>
          <note pos="768" vol="100" pan="0" key="36" len="10"/>
          <note pos="792" vol="100" pan="0" key="36" len="10"/>
          <note pos="816" vol="100" pan="0" key="31" len="10"/>
          <note pos="840" vol="100" pan="0" key="33" len="10"/>
          <note pos="864" vol="100" pan="0" key="36" len="10"/>
          <note pos="888" vol="100" pan="0" key="36" len="10"/>
          <note pos="912" vol="100" pan="0" key="38" len="10"/>
          <note pos="936" vol="100" pan="0" key="40" len="10"/>
          <note pos="960" vol="100" pan="0" key="35" len="10"/>
          <note pos="984" vol="100" pan="0" key="35" len="10"/>
          <note pos="1008" vol="100" pan="0" key="30" len="10"/>
          <note pos="1032" vol="100" pan="0" key="33" len="10"/>
          <note pos="1056" vol="100" pan="0" key="35" len="10"/>
          <note pos="1080" vol="100" pan="0" key="35" len="10"/>
          <note pos="1104" vol="100" pan="0" key="37" len="10"/>
          <note pos="1128" vol="100" pan="0" key="39" len="10"/>
          <note pos="1152" vol="100" pan="0" key="40" len="10"/>
          <note pos="1176" vol="100" pan="0" key="28" len="10"/>
          <note pos="1200" vol="100" pan="0" key="28" len="22"/>
          <note pos="1224" vol="100" pan="0" key="40" len="10"/>
          <note pos="1248" vol="100" pan="0" key="28" len="10"/>
          <note pos="1272" vol="100" pan="0" key="28" len="22"/>
          <note pos="1296" vol="100" pan="0" key="40" len="10"/>
          <note pos="1320" vol="100" pan="0" key="28" len="22"/>
          <note pos="1344" vol="100" pan="0" key="33" len="10"/>
          <note pos="1368" vol="100" pan="0" key="33" len="10"/>
          <note pos="1392" vol="100" pan="0" key="28" len="10"/>
          <note pos="1416" vol="100" pan="0" key="31" len="10"/>
          <note pos="1440" vol="100" pan="0" key="33" len="10"/>
          <note pos="1464" vol="100" pan="0" key="33" len="10"/>
          <note pos="1488" vol="100" pan="0" key="35" len="10"/>
          <note pos="1512" vol="100" pan="0" key="37" len="10"/>
        </midiclip>
        <midiclip muted="0" pos="4992" name="" type="1" steps="16">
          <note pos="0" vol="100" pan="0" key="40" len="10"/>
          <note pos="24" vol="100" pan="0" key="40" len="10"/>
          <note pos="48" vol="100" pan="0" key="35" len="10"/>
          <note pos="72" vol="100" pan="0" key="38" len="10"/>
          <note pos="96" vol="100" pan="0" key="40" len="10"/>
          <note pos="120" vol="100" pan="0" key="40" len="10"/>
          <note pos="144" vol="100" pan="0" key="42" len="10"/>
          <note pos="168" vol="100" pan="0" key="43" len="10"/>
        </midiclip>
        <midiclip muted="0" pos="5184" name="" type="1" steps="16">
          <note pos="0" vol="100" pan="0" key="40" len="10"/>
          <note pos="24" vol="100" pan="0" key="40" len="10"/>
          <note pos="48" vol="100" pan="0" key="35" len="10"/>
          <note pos="72" vol="100" pan="0" key="38" len="10"/>
          <note pos="96" vol="100" pan="0" key="40" len="10"/>
          <note pos="120" vol="100" pan="0" key="40" len="10"/>
          <note pos="144" vol="100" pan="0" key="42" len="10"/>
          <note pos="168" vol="100" pan="0" key="43" len="10"/>
        </midiclip>
        <midiclip muted="0" pos="5376" name="" type="1" steps="16">
          <note pos="0" vol="100" pan="0" key="40" len="10"/>
          <note pos="24" vol="100" pan="0" key="40" len="10"/>
          <note pos="48" vol="100" pan="0" key="35" len="10"/>
          <note pos="72" vol="100" pan="0" key="38" len="10"/>
          <note pos="96" vol="100" pan="0" key="40" len="10"/>
          <note pos="120" vol="100" pan="0" key="40" len="10"/>
          <note pos="144" vol="100" pan="0" key="42" len="10"/>
          <note pos="168" vol="100" pan="0" key="43" len="10"/>
        </midiclip>
        <midiclip muted="0" pos="5568" name="" type="1" steps="16">
          <note pos="0" vol="100" pan="0" key="40" len="10"/>
          <note pos="24" vol="100" pan="0" key="40" len="10"/>
          <note pos="48" vol="100" pan="0" key="35" len="10"/>
          <note pos="72" vol="100" pan="0" key="38" len="10"/>
          <note pos="96" vol="100" pan="0" key="40" len="10"/>
          <note pos="120" vol="100" pan="0" key="40" len="10"/>
          <note pos="144" vol="100" pan="0" key="42" len="10"/>
          <note pos="168" vol="100" pan="0" key="43" len="10"/>
        </midiclip>
        <midiclip muted="0" pos="5760" name="" type="1" steps="16">
          <note pos="0" vol="100" pan="0" key="40" len="10"/>
          <note pos="24" vol="100" pan="0" key="40" len="10"/>
          <note pos="48" vol="100" pan="0" key="35" len="10"/>
          <note pos="72" vol="100" pan="0" key="38" len="10"/>
          <note pos="96" vol="100" pan="0" key="40" len="10"/>
          <note pos="120" vol="100" pan="0" key="40" len="10"/>
          <note pos="144" vol="100" pan="0" key="42" len="10"/>
          <note pos="168" vol="100" pan="0" key="43" len="10"/>
        </midiclip>
        <midiclip muted="0" pos="5952" name="" type="1" steps="16">
          <note pos="0" vol="100" pan="0" key="40" len="10"/>
          <note pos="24" vol="100" pan="0" key="40" len="10"/>
          <note pos="48" vol="100" pan="0" key="35" len="10"/>
          <note pos="72" vol="100" pan="0" key="38" len="10"/>
          <note pos="96" vol="100" pan="0" key="40" len="10"/>
          <note pos="120" vol="100" pan="0" key="40" len="10"/>
          <note pos="144" vol="100" pan="0" key="42" len="10"/>
          <note pos="168" vol="100" pan="0" key="43" len="10"/>
        </midiclip>
        <midiclip muted="0" pos="6144" name="" type="1" steps="16">
          <note pos="0" vol="100" pan="0" key="40" len="10"/>
          <note pos="24" vol="100" pan="0" key="40" len="10"/>
          <note pos="48" vol="100" pan="0" key="35" len="10"/>
          <note pos="72" vol="100" pan="0" key="38" len="10"/>
          <note pos="96" vol="100" pan="0" key="40" len="10"/>
          <note pos="120" vol="100" pan="0" key="40" len="10"/>
          <note pos="144" vol="100" pan="0" key="42" len="10"/>
          <note pos="168" vol="100" pan="0" key="43" len="10"/>
        </midiclip>
        <midiclip muted="0" pos="6336" name="" type="1" steps="16">
          <note pos="0" vol="100" pan="0" key="40" len="10"/>
          <note pos="24" vol="100" pan="0" key="40" len="10"/>
          <note pos="48" vol="100" pan="0" key="35" len="10"/>
          <note pos="72" vol="100" pan="0" key="38" len="10"/>
          <note pos="96" vol="100" pan="0" key="40" len="10"/>
          <note pos="120" vol="100" pan="0" key="40" len="10"/>
          <note pos="144" vol="100" pan="0" key="42" len="10"/>
          <note pos="168" vol="100" pan="0" key="43" len="10"/>
        </midiclip>
        <midiclip muted="0" pos="6528" name="" type="1" steps="16">
          <note pos="0" vol="100" pan="0" key="40" len="10"/>
          <note pos="24" vol="100" pan="0" key="40" len="10"/>
          <note pos="48" vol="100" pan="0" key="35" len="10"/>
          <note pos="72" vol="100" pan="0" key="38" len="10"/>
          <note pos="96" vol="100" pan="0" key="40" len="10"/>
          <note pos="120" vol="100" pan="0" key="40" len="10"/>
          <note pos="144" vol="100" pan="0" key="42" len="10"/>
          <note pos="168" vol="100" pan="0" key="43" len="10"/>
        </midiclip>
        <midiclip muted="0" pos="6720" name="" type="1" steps="16">
          <note pos="0" vol="100" pan="0" key="40" len="10"/>
          <note pos="24" vol="100" pan="0" key="40" len="10"/>
          <note pos="48" vol="100" pan="0" key="35" len="10"/>
          <note pos="72" vol="100" pan="0" key="38" len="10"/>
          <note pos="96" vol="100" pan="0" key="40" len="10"/>
          <note pos="120" vol="100" pan="0" key="40" len="10"/>
          <note pos="144" vol="100" pan="0" key="42" len="10"/>
          <note pos="168" vol="100" pan="0" key="43" len="10"/>
        </midiclip>
        <midiclip muted="0" pos="6912" name="" type="1" steps="16">
          <note pos="0" vol="100" pan="0" key="40" len="10"/>
          <note pos="24" vol="100" pan="0" key="40" len="10"/>
          <note pos="48" vol="100" pan="0" key="35" len="10"/>
          <note pos="72" vol="100" pan="0" key="38" len="10"/>
          <note pos="96" vol="100" pan="0" key="40" len="10"/>
          <note pos="120" vol="100" pan="0" key="40" len="10"/>
          <note pos="144" vol="100" pan="0" key="42" len="10"/>
          <note pos="168" vol="100" pan="0" key="43" len="10"/>
        </midiclip>
        <midiclip muted="0" pos="7104" name="" type="1" steps="16">
          <note pos="0" vol="100" pan="0" key="40" len="10"/>
          <note pos="24" vol="100" pan="0" key="40" len="10"/>
          <note pos="48" vol="100" pan="0" key="35" len="10"/>
          <note pos="72" vol="100" pan="0" key="38" len="10"/>
          <note pos="96" vol="100" pan="0" key="40" len="10"/>
          <note pos="120" vol="100" pan="0" key="40" len="10"/>
          <note pos="144" vol="100" pan="0" key="42" len="10"/>
          <note pos="168" vol="100" pan="0" key="43" len="10"/>
        </midiclip>
        <midiclip muted="0" pos="7296" name="" type="1" steps="16">
          <note pos="0" vol="100" pan="0" key="40" len="10"/>
          <note pos="24" vol="100" pan="0" key="40" len="10"/>
          <note pos="48" vol="100" pan="0" key="35" len="10"/>
          <note pos="72" vol="100" pan="0" key="38" len="10"/>
          <note pos="96" vol="100" pan="0" key="40" len="10"/>
          <note pos="120" vol="100" pan="0" key="40" len="10"/>
          <note pos="144" vol="100" pan="0" key="42" len="10"/>
          <note pos="168" vol="100" pan="0" key="43" len="10"/>
        </midiclip>
        <midiclip muted="0" pos="7488" name="" type="1" steps="16">
          <note pos="0" vol="100" pan="0" key="40" len="10"/>
          <note pos="24" vol="100" pan="0" key="40" len="10"/>
          <note pos="48" vol="100" pan="0" key="35" len="10"/>
          <note pos="72" vol="100" pan="0" key="38" len="10"/>
          <note pos="96" vol="100" pan="0" key="40" len="10"/>
          <note pos="120" vol="100" pan="0" key="40" len="10"/>
          <note pos="144" vol="100" pan="0" key="42" len="10"/>
          <note pos="168" vol="100" pan="0" key="43" len="10"/>
        </midiclip>
        <midiclip muted="0" pos="7680" name="" type="1" steps="16">
          <note pos="0" vol="100" pan="0" key="40" len="10"/>
          <note pos="24" vol="100" pan="0" key="40" len="10"/>
          <note pos="48" vol="100" pan="0" key="35" len="10"/>
          <note pos="72" vol="100" pan="0" key="38" len="10"/>
          <note pos="96" vol="100" pan="0" key="40" len="10"/>
          <note pos="120" vol="100" pan="0" key="40" len="10"/>
          <note pos="144" vol="100" pan="0" key="42" len="10"/>
          <note pos="168" vol="100" pan="0" key="43" len="10"/>
        </midiclip>
        <midiclip muted="0" pos="7872" name="" type="1" steps="16">
          <note pos="0" vol="100" pan="0" key="40" len="10"/>
          <note pos="24" vol="100" pan="0" key="40" len="10"/>
          <note pos="48" vol="100" pan="0" key="35" len="10"/>
          <note pos="72" vol="100" pan="0" key="38" len="10"/>
          <note pos="96" vol="100" pan="0" key="40" len="10"/>
          <note pos="120" vol="100" pan="0" key="40" len="10"/>
          <note pos="144" vol="100" pan="0" key="42" len="10"/>
          <note pos="168" vol="100" pan="0" key="43" len="10"/>
        </midiclip>
        <midiclip muted="0" pos="8064" name="" type="1" steps="16">
          <note pos="0" vol="100" pan="0" key="40" len="10"/>
          <note pos="24" vol="100" pan="0" key="40" len="10"/>
          <note pos="48" vol="100" pan="0" key="35" len="10"/>
          <note pos="72" vol="100" pan="0" key="38" len="10"/>
          <note pos="96" vol="100" pan="0" key="40" len="10"/>
          <note pos="120" vol="100" pan="0" key="40" len="10"/>
          <note pos="144" vol="100" pan="0" key="42" len="10"/>
          <note pos="168" vol="100" pan="0" key="43" len="10"/>
        </midiclip>
        <midiclip muted="0" pos="8256" name="" type="1" steps="16">
          <note pos="0" vol="100" pan="0" key="40" len="10"/>
          <note pos="24" vol="100" pan="0" key="40" len="10"/>
          <note pos="48" vol="100" pan="0" key="35" len="10"/>
          <note pos="72" vol="100" pan="0" key="38" len="10"/>
          <note pos="96" vol="100" pan="0" key="40" len="10"/>
          <note pos="120" vol="100" pan="0" key="40" len="10"/>
          <note pos="144" vol="100" pan="0" key="42" len="10"/>
          <note pos="168" vol="100" pan="0" key="43" len="10"/>
        </midiclip>
        <midiclip muted="0" pos="11520" name="" type="1" steps="16">
          <note pos="0" vol="100" pan="0" key="28" len="10"/>
          <note pos="24" vol="100" pan="0" key="28" len="10"/>
          <note pos="48" vol="100" pan="0" key="28" len="10"/>
          <note pos="72" vol="100" pan="0" key="28" len="10"/>
          <note pos="96" vol="100" pan="0" key="28" len="10"/>
          <note pos="120" vol="100" pan="0" key="28" len="10"/>
          <note pos="144" vol="100" pan="0" key="28" len="10"/>
          <note pos="168" vol="100" pan="0" key="28" len="10"/>
        </midiclip>
        <midiclip muted="0" pos="11712" name="" type="1" steps="16">
          <note pos="0" vol="100" pan="0" key="28" len="10"/>
          <note pos="24" vol="100" pan="0" key="28" len="10"/>
          <note pos="48" vol="100" pan="0" key="28" len="10"/>
          <note pos="72" vol="100" pan="0" key="28" len="10"/>
          <note pos="96" vol="100" pan="0" key="28" len="10"/>
          <note pos="120" vol="100" pan="0" key="28" len="10"/>
          <note pos="144" vol="100" pan="0" key="28" len="10"/>
          <note pos="168" vol="100" pan="0" key="28" len="10"/>
        </midiclip>
        <midiclip muted="0" pos="11904" name="" type="1" steps="16">
          <note pos="0" vol="100" pan="0" key="28" len="10"/>
          <note pos="24" vol="100" pan="0" key="28" len="10"/>
          <note pos="48" vol="100" pan="0" key="28" len="10"/>
          <note pos="72" vol="100" pan="0" key="28" len="10"/>
          <note pos="96" vol="100" pan="0" key="28" len="10"/>
          <note pos="120" vol="100" pan="0" key="28" len="10"/>
          <note pos="144" vol="100" pan="0" key="28" len="10"/>
          <note pos="168" vol="100" pan="0" key="28" len="10"/>
        </midiclip>
        <midiclip muted="0" pos="12096" name="" type="1" steps="16">
          <note pos="0" vol="100" pan="0" key="28" len="10"/>
          <note pos="24" vol="100" pan="0" key="28" len="10"/>
          <note pos="48" vol="100" pan="0" key="28" len="10"/>
          <note pos="72" vol="100" pan="0" key="28" len="10"/>
          <note pos="96" vol="100" pan="0" key="28" len="10"/>
          <note pos="120" vol="100" pan="0" key="28" len="10"/>
          <note pos="144" vol="100" pan="0" key="28" len="10"/>
          <note pos="168" vol="100" pan="0" key="28" len="10"/>
        </midiclip>
        <midiclip muted="0" pos="12288" name="" type="1" steps="16">
          <note pos="0" vol="100" pan="0" key="28" len="10"/>
          <note pos="24" vol="100" pan="0" key="28" len="10"/>
          <note pos="48" vol="100" pan="0" key="28" len="10"/>
          <note pos="72" vol="100" pan="0" key="28" len="10"/>
          <note pos="96" vol="100" pan="0" key="28" len="10"/>
          <note pos="120" vol="100" pan="0" key="28" len="10"/>
          <note pos="144" vol="100" pan="0" key="28" len="10"/>
          <note pos="168" vol="100" pan="0" key="28" len="10"/>
        </midiclip>
        <midiclip muted="0" pos="12480" name="" type="1" steps="16">
          <note pos="0" vol="100" pan="0" key="28" len="10"/>
          <note pos="24" vol="100" pan="0" key="28" len="10"/>
          <note pos="48" vol="100" pan="0" key="28" len="10"/>
          <note pos="72" vol="100" pan="0" key="28" len="10"/>
          <note pos="96" vol="100" pan="0" key="28" len="10"/>
          <note pos="120" vol="100" pan="0" key="28" len="10"/>
          <note pos="144" vol="100" pan="0" key="28" len="10"/>
          <note pos="168" vol="100" pan="0" key="28" len="10"/>
        </midiclip>
        <midiclip muted="0" pos="12672" name="" type="1" steps="16">
          <note pos="0" vol="100" pan="0" key="28" len="10"/>
          <note pos="24" vol="100" pan="0" key="28" len="10"/>
          <note pos="48" vol="100" pan="0" key="28" len="10"/>
          <note pos="72" vol="100" pan="0" key="28" len="10"/>
          <note pos="96" vol="100" pan="0" key="28" len="10"/>
          <note pos="120" vol="100" pan="0" key="28" len="10"/>
          <note pos="144" vol="100" pan="0" key="28" len="10"/>
          <note pos="168" vol="100" pan="0" key="28" len="10"/>
        </midiclip>
        <midiclip muted="0" pos="12864" name="" type="1" steps="16">
          <note pos="0" vol="100" pan="0" key="28" len="10"/>
          <note pos="24" vol="100" pan="0" key="28" len="10"/>
          <note pos="48" vol="100" pan="0" key="28" len="10"/>
          <note pos="72" vol="100" pan="0" key="28" len="10"/>
          <note pos="96" vol="100" pan="0" key="28" len="10"/>
          <note pos="120" vol="100" pan="0" key="28" len="10"/>
          <note pos="144" vol="100" pan="0" key="28" len="10"/>
          <note pos="168" vol="100" pan="0" key="28" len="10"/>
        </midiclip>
        <midiclip muted="0" pos="0" name="" type="1" steps="16">
          <note pos="0" vol="100" pan="0" key="40" len="10"/>
          <note pos="24" vol="100" pan="0" key="40" len="10"/>
          <note pos="48" vol="100" pan="0" key="35" len="10"/>
          <note pos="72" vol="100" pan="0" key="38" len="10"/>
          <note pos="96" vol="100" pan="0" key="40" len="10"/>
          <note pos="120" vol="100" pan="0" key="40" len="10"/>
          <note pos="144" vol="100" pan="0" key="42" len="10"/>
          <note pos="168" vol="100" pan="0" key="43" len="10"/>
        </midiclip>
        <midiclip muted="0" pos="192" name="" type="1" steps="16">
          <note pos="0" vol="100" pan="0" key="40" len="10"/>
          <note pos="24" vol="100" pan="0" key="40" len="10"/>
          <note pos="48" vol="100" pan="0" key="35" len="10"/>
          <note pos="72" vol="100" pan="0" key="38" len="10"/>
          <note pos="96" vol="100" pan="0" key="40" len="10"/>
          <note pos="120" vol="100" pan="0" key="40" len="10"/>
          <note pos="144" vol="100" pan="0" key="42" len="10"/>
          <note pos="168" vol="100" pan="0" key="43" len="10"/>
        </midiclip>
        <midiclip muted="0" pos="8448" name="" type="1" steps="16">
          <note pos="0" vol="100" pan="0" key="36" len="10"/>
          <note pos="24" vol="100" pan="0" key="36" len="10"/>
          <note pos="48" vol="100" pan="0" key="31" len="10"/>
          <note pos="72" vol="100" pan="0" key="35" len="10"/>
          <note pos="96" vol="100" pan="0" key="36" len="10"/>
          <note pos="120" vol="100" pan="0" key="36" len="10"/>
          <note pos="144" vol="100" pan="0" key="38" len="10"/>
          <note pos="168" vol="100" pan="0" key="40" len="10"/>
          <note pos="192" vol="100" pan="0" key="35" len="10"/>
          <note pos="216" vol="100" pan="0" key="35" len="10"/>
          <note pos="240" vol="100" pan="0" key="30" len="10"/>
          <note pos="264" vol="100" pan="0" key="33" len="10"/>
          <note pos="288" vol="100" pan="0" key="35" len="10"/>
          <note pos="312" vol="100" pan="0" key="35" len="10"/>
          <note pos="336" vol="100" pan="0" key="37" len="10"/>
          <note pos="360" vol="100" pan="0" key="39" len="10"/>
          <note pos="384" vol="100" pan="0" key="40" len="10"/>
          <note pos="408" vol="100" pan="0" key="40" len="10"/>
          <note pos="432" vol="100" pan="0" key="28" len="10"/>
          <note pos="456" vol="100" pan="0" key="31" len="10"/>
          <note pos="480" vol="100" pan="0" key="33" len="10"/>
          <note pos="504" vol="100" pan="0" key="33" len="10"/>
          <note pos="528" vol="100" pan="0" key="35" len="10"/>
          <note pos="552" vol="100" pan="0" key="37" len="10"/>
          <note pos="576" vol="100" pan="0" key="33" len="10"/>
          <note pos="600" vol="100" pan="0" key="33" len="10"/>
          <note pos="624" vol="100" pan="0" key="37" len="10"/>
          <note pos="648" vol="100" pan="0" key="40" len="10"/>
          <note pos="672" vol="100" pan="0" key="28" len="10"/>
          <note pos="696" vol="100" pan="0" key="28" len="10"/>
          <note pos="720" vol="100" pan="0" key="31" len="10"/>
          <note pos="744" vol="100" pan="0" key="33" len="10"/>
          <note pos="768" vol="100" pan="0" key="36" len="10"/>
          <note pos="792" vol="100" pan="0" key="36" len="10"/>
          <note pos="816" vol="100" pan="0" key="31" len="10"/>
          <note pos="840" vol="100" pan="0" key="33" len="10"/>
          <note pos="864" vol="100" pan="0" key="36" len="10"/>
          <note pos="888" vol="100" pan="0" key="36" len="10"/>
          <note pos="912" vol="100" pan="0" key="38" len="10"/>
          <note pos="936" vol="100" pan="0" key="40" len="10"/>
          <note pos="960" vol="100" pan="0" key="35" len="10"/>
          <note pos="984" vol="100" pan="0" key="35" len="10"/>
          <note pos="1008" vol="100" pan="0" key="30" len="10"/>
          <note pos="1032" vol="100" pan="0" key="33" len="10"/>
          <note pos="1056" vol="100" pan="0" key="35" len="10"/>
          <note pos="1080" vol="100" pan="0" key="35" len="10"/>
          <note pos="1104" vol="100" pan="0" key="37" len="10"/>
          <note pos="1128" vol="100" pan="0" key="39" len="10"/>
          <note pos="1152" vol="100" pan="0" key="40" len="10"/>
          <note pos="1176" vol="100" pan="0" key="28" len="10"/>
          <note pos="1200" vol="100" pan="0" key="28" len="22"/>
          <note pos="1224" vol="100" pan="0" key="40" len="10"/>
          <note pos="1248" vol="100" pan="0" key="28" len="10"/>
          <note pos="1272" vol="100" pan="0" key="28" len="22"/>
          <note pos="1296" vol="100" pan="0" key="40" len="10"/>
          <note pos="1320" vol="100" pan="0" key="28" len="22"/>
          <note pos="1344" vol="100" pan="0" key="33" len="10"/>
          <note pos="1368" vol="100" pan="0" key="33" len="10"/>
          <note pos="1392" vol="100" pan="0" key="28" len="10"/>
          <note pos="1416" vol="100" pan="0" key="31" len="10"/>
          <note pos="1440" vol="100" pan="0" key="33" len="10"/>
          <note pos="1464" vol="100" pan="0" key="33" len="10"/>
          <note pos="1488" vol="100" pan="0" key="35" len="10"/>
          <note pos="1512" vol="100" pan="0" key="37" len="10"/>
        </midiclip>
        <midiclip muted="0" pos="9984" name="" type="1" steps="16">
          <note pos="0" vol="100" pan="0" key="36" len="10"/>
          <note pos="24" vol="100" pan="0" key="36" len="10"/>
          <note pos="48" vol="100" pan="0" key="31" len="10"/>
          <note pos="72" vol="100" pan="0" key="35" len="10"/>
          <note pos="96" vol="100" pan="0" key="36" len="10"/>
          <note pos="120" vol="100" pan="0" key="36" len="10"/>
          <note pos="144" vol="100" pan="0" key="38" len="10"/>
          <note pos="168" vol="100" pan="0" key="40" len="10"/>
          <note pos="192" vol="100" pan="0" key="35" len="10"/>
          <note pos="216" vol="100" pan="0" key="35" len="10"/>
          <note pos="240" vol="100" pan="0" key="30" len="10"/>
          <note pos="264" vol="100" pan="0" key="33" len="10"/>
          <note pos="288" vol="100" pan="0" key="35" len="10"/>
          <note pos="312" vol="100" pan="0" key="35" len="10"/>
          <note pos="336" vol="100" pan="0" key="37" len="10"/>
          <note pos="360" vol="100" pan="0" key="39" len="10"/>
          <note pos="384" vol="100" pan="0" key="40" len="10"/>
          <note pos="408" vol="100" pan="0" key="40" len="10"/>
          <note pos="432" vol="100" pan="0" key="28" len="10"/>
          <note pos="456" vol="100" pan="0" key="31" len="10"/>
          <note pos="480" vol="100" pan="0" key="33" len="10"/>
          <note pos="504" vol="100" pan="0" key="33" len="10"/>
          <note pos="528" vol="100" pan="0" key="35" len="10"/>
          <note pos="552" vol="100" pan="0" key="37" len="10"/>
          <note pos="576" vol="100" pan="0" key="33" len="10"/>
          <note pos="600" vol="100" pan="0" key="33" len="10"/>
          <note pos="624" vol="100" pan="0" key="37" len="10"/>
          <note pos="648" vol="100" pan="0" key="40" len="10"/>
          <note pos="672" vol="100" pan="0" key="28" len="10"/>
          <note pos="696" vol="100" pan="0" key="28" len="10"/>
          <note pos="720" vol="100" pan="0" key="31" len="10"/>
          <note pos="744" vol="100" pan="0" key="33" len="10"/>
          <note pos="768" vol="100" pan="0" key="36" len="10"/>
          <note pos="792" vol="100" pan="0" key="36" len="10"/>
          <note pos="816" vol="100" pan="0" key="31" len="10"/>
          <note pos="840" vol="100" pan="0" key="33" len="10"/>
          <note pos="864" vol="100" pan="0" key="36" len="10"/>
          <note pos="888" vol="100" pan="0" key="36" len="10"/>
          <note pos="912" vol="100" pan="0" key="38" len="10"/>
          <note pos="936" vol="100" pan="0" key="40" len="10"/>
          <note pos="960" vol="100" pan="0" key="35" len="10"/>
          <note pos="984" vol="100" pan="0" key="35" len="10"/>
          <note pos="1008" vol="100" pan="0" key="30" len="10"/>
          <note pos="1032" vol="100" pan="0" key="33" len="10"/>
          <note pos="1056" vol="100" pan="0" key="35" len="10"/>
          <note pos="1080" vol="100" pan="0" key="35" len="10"/>
          <note pos="1104" vol="100" pan="0" key="37" len="10"/>
          <note pos="1128" vol="100" pan="0" key="39" len="10"/>
          <note pos="1152" vol="100" pan="0" key="40" len="10"/>
          <note pos="1176" vol="100" pan="0" key="28" len="10"/>
          <note pos="1200" vol="100" pan="0" key="28" len="22"/>
          <note pos="1224" vol="100" pan="0" key="40" len="10"/>
          <note pos="1248" vol="100" pan="0" key="28" len="10"/>
          <note pos="1272" vol="100" pan="0" key="28" len="22"/>
          <note pos="1296" vol="100" pan="0" key="40" len="10"/>
          <note pos="1320" vol="100" pan="0" key="28" len="22"/>
          <note pos="1344" vol="100" pan="0" key="33" len="10"/>
          <note pos="1368" vol="100" pan="0" key="33" len="10"/>
          <note pos="1392" vol="100" pan="0" key="28" len="10"/>
          <note pos="1416" vol="100" pan="0" key="31" len="10"/>
          <note pos="1440" vol="100" pan="0" key="33" len="10"/>
          <note pos="1464" vol="100" pan="0" key="33" len="10"/>
          <note pos="1488" vol="100" pan="0" key="35" len="10"/>
          <note pos="1512" vol="100" pan="0" key="37" len="10"/>
        </midiclip>
      </track>
      <track muted="0" mutedBeforeSolo="0" name="Drums>BD" trackheight="32" type="0" solo="0">
        <instrumenttrack pitchrange="1" usemasterpitch="0" vol="100" keymap="0" pan="0" basenote="69" enablecc="0" enabled="0" firstkey="36" range_import="1" mixch="4" lastkey="36" scale="0" pitch="-100">
          <midicontrollers cc36="0" cc15="0" cc90="0" cc2="0" cc41="0" cc85="0" cc45="0" cc88="0" cc124="0" cc31="0" cc21="0" cc91="0" cc109="0" cc32="0" cc53="0" cc60="0" cc25="0" cc64="0" cc97="0" cc55="0" cc66="0" cc0="0" cc34="0" cc106="0" cc63="0" cc43="0" cc100="0" cc76="0" cc98="0" cc4="0" cc84="0" cc44="0" cc78="0" cc14="0" cc23="0" cc11="0" cc75="0" cc87="0" cc103="0" cc107="0" cc26="0" cc1="0" cc50="0" cc86="0" cc112="0" cc16="0" cc20="0" cc82="0" cc101="0" cc113="0" cc46="0" cc96="0" cc19="0" cc119="0" cc65="0" cc108="0" cc61="0" cc12="0" cc127="0" cc52="0" cc56="0" cc6="0" cc10="0" cc102="0" cc126="0" cc29="0" cc37="0" cc24="0" cc38="0" cc39="0" cc115="0" cc40="0" cc27="0" cc33="0" cc69="0" cc18="0" cc22="0" cc77="0" cc121="0" cc35="0" cc9="0" cc73="0" cc51="0" cc48="0" cc67="0" cc57="0" cc93="0" cc80="0" cc5="0" cc28="0" cc62="0" cc104="0" cc122="0" cc49="0" cc123="0" cc42="0" cc68="0" cc74="0" cc117="0" cc3="0" cc59="0" cc99="0" cc79="0" cc72="0" cc83="0" cc120="0" cc70="0" cc89="0" cc47="0" cc92="0" cc116="0" cc125="0" cc94="0" cc7="0" cc71="0" cc17="0" cc105="0" cc111="0" cc118="0" cc8="0" cc95="0" cc54="0" cc110="0" cc114="0" cc81="0" cc13="0" cc30="0" cc58="0"/>
          <instrument name="sf2player">
            <sf2player reverbDamping="0" reverbWidth="0.5" reverbLevel="0.9" chorusNum="3" gain="0.32" chorusLevel="2" chorusDepth="8" chorusSpeed="0.3" reverbOn="0" reverbRoomSize="0.2" src="usersoundfont:FluidR3 GM.sf2" bank="128" chorusOn="0" patch="17">
              <key/>
            </sf2player>
          </instrument>
          <eldata fcut="14000" fres="0.5" ftype="0" fwet="0">
            <elvol lspd_numerator="4" dec="0.5" pdel="0" latt="0" sustain="0.5" hold="0.5" lamt="0" lspd_denominator="4" att="0" lspd="0.1" lpdel="0" x100="0" amt="0" lspd_syncmode="0" lshp="0" rel="0.1" userwavefile="" ctlenvamt="0"/>
            <elcut lspd_numerator="4" dec="0.5" pdel="0" latt="0" sustain="0.5" hold="0.5" lamt="0" lspd_denominator="4" att="0" lspd="0.1" lpdel="0" x100="0" amt="0" lspd_syncmode="0" lshp="0" rel="0.1" userwavefile="" ctlenvamt="0"/>
            <elres lspd_numerator="4" dec="0.5" pdel="0" latt="0" sustain="0.5" hold="0.5" lamt="0" lspd_denominator="4" att="0" lspd="0.1" lpdel="0" x100="0" amt="0" lspd_syncmode="0" lshp="0" rel="0.1" userwavefile="" ctlenvamt="0"/>
          </eldata>
          <chordcreator chord="0" chord-enabled="0" chordrange="1"/>
          <arpeggiator arptime_numerator="4" arpgate="100" arpcycle="0" arpdir="0" arpmode="0" arpskip="0" arptime_denominator="4" arprepeats="1" arp-enabled="0" arprange="1" arptime="200" arp="0" arpmiss="0" arptime_syncmode="0"/>
          <midiport inputchannel="0" writable="0" fixedinputvelocity="-1" fixedoutputvelocity="-1" outputprogram="1" readable="1" fixedoutputnote="-1" basevelocity="127" outputchannel="1" inports="" inputcontroller="0" outputcontroller="0"/>
          <fxchain enabled="0" numofeffects="0"/>
        </instrumenttrack>
        <midiclip muted="0" pos="1920" name="" type="1" steps="16">
          <note pos="0" vol="100" pan="0" key="36" len="24"/>
          <note pos="24" vol="100" pan="0" key="54" len="24"/>
          <note pos="48" vol="100" pan="0" key="52" len="24"/>
          <note pos="72" vol="100" pan="0" key="36" len="24"/>
          <note pos="96" vol="100" pan="0" key="42" len="24"/>
          <note pos="120" vol="100" pan="0" key="52" len="24"/>
          <note pos="144" vol="100" pan="0" key="36" len="24"/>
          <note pos="192" vol="100" pan="0" key="36" len="24"/>
          <note pos="216" vol="100" pan="0" key="54" len="24"/>
          <note pos="240" vol="100" pan="0" key="52" len="24"/>
          <note pos="264" vol="100" pan="0" key="36" len="24"/>
          <note pos="288" vol="100" pan="0" key="42" len="24"/>
          <note pos="312" vol="100" pan="0" key="52" len="24"/>
          <note pos="336" vol="100" pan="0" key="46" len="24"/>
          <note pos="336" vol="100" pan="0" key="36" len="24"/>
          <note pos="360" vol="100" pan="0" key="44" len="24"/>
        </midiclip>
        <midiclip muted="0" pos="2304" name="" type="1" steps="16">
          <note pos="0" vol="100" pan="0" key="36" len="24"/>
          <note pos="24" vol="100" pan="0" key="54" len="24"/>
          <note pos="48" vol="100" pan="0" key="52" len="24"/>
          <note pos="72" vol="100" pan="0" key="36" len="24"/>
          <note pos="96" vol="100" pan="0" key="42" len="24"/>
          <note pos="120" vol="100" pan="0" key="52" len="24"/>
          <note pos="144" vol="100" pan="0" key="36" len="24"/>
          <note pos="192" vol="100" pan="0" key="36" len="24"/>
          <note pos="216" vol="100" pan="0" key="54" len="24"/>
          <note pos="240" vol="100" pan="0" key="52" len="24"/>
          <note pos="264" vol="100" pan="0" key="36" len="24"/>
          <note pos="288" vol="100" pan="0" key="42" len="24"/>
          <note pos="312" vol="100" pan="0" key="52" len="24"/>
          <note pos="336" vol="100" pan="0" key="46" len="24"/>
          <note pos="336" vol="100" pan="0" key="36" len="24"/>
          <note pos="360" vol="100" pan="0" key="44" len="24"/>
        </midiclip>
        <midiclip muted="0" pos="2688" name="" type="1" steps="16">
          <note pos="0" vol="100" pan="0" key="36" len="24"/>
          <note pos="24" vol="100" pan="0" key="54" len="24"/>
          <note pos="48" vol="100" pan="0" key="52" len="24"/>
          <note pos="72" vol="100" pan="0" key="36" len="24"/>
          <note pos="96" vol="100" pan="0" key="42" len="24"/>
          <note pos="120" vol="100" pan="0" key="52" len="24"/>
          <note pos="144" vol="100" pan="0" key="36" len="24"/>
          <note pos="192" vol="100" pan="0" key="36" len="24"/>
          <note pos="216" vol="100" pan="0" key="54" len="24"/>
          <note pos="240" vol="100" pan="0" key="52" len="24"/>
          <note pos="264" vol="100" pan="0" key="36" len="24"/>
          <note pos="288" vol="100" pan="0" key="42" len="24"/>
          <note pos="312" vol="100" pan="0" key="52" len="24"/>
          <note pos="336" vol="100" pan="0" key="46" len="24"/>
          <note pos="336" vol="100" pan="0" key="36" len="24"/>
          <note pos="360" vol="100" pan="0" key="44" len="24"/>
        </midiclip>
        <midiclip muted="0" pos="3072" name="" type="1" steps="16">
          <note pos="0" vol="100" pan="0" key="36" len="24"/>
          <note pos="24" vol="100" pan="0" key="54" len="24"/>
          <note pos="48" vol="100" pan="0" key="52" len="24"/>
          <note pos="72" vol="100" pan="0" key="36" len="24"/>
          <note pos="96" vol="100" pan="0" key="42" len="24"/>
          <note pos="120" vol="100" pan="0" key="52" len="24"/>
          <note pos="144" vol="100" pan="0" key="36" len="24"/>
          <note pos="192" vol="100" pan="0" key="36" len="24"/>
          <note pos="216" vol="100" pan="0" key="54" len="24"/>
          <note pos="240" vol="100" pan="0" key="52" len="24"/>
          <note pos="264" vol="100" pan="0" key="36" len="24"/>
          <note pos="288" vol="100" pan="0" key="42" len="24"/>
          <note pos="312" vol="100" pan="0" key="52" len="24"/>
          <note pos="336" vol="100" pan="0" key="46" len="24"/>
          <note pos="336" vol="100" pan="0" key="36" len="24"/>
          <note pos="360" vol="100" pan="0" key="44" len="24"/>
        </midiclip>
        <midiclip muted="0" pos="1152" name="" type="1" steps="16">
          <note pos="0" vol="100" pan="0" key="36" len="24"/>
          <note pos="72" vol="100" pan="0" key="36" len="24"/>
          <note pos="144" vol="100" pan="0" key="36" len="24"/>
          <note pos="192" vol="100" pan="0" key="36" len="24"/>
          <note pos="264" vol="100" pan="0" key="36" len="24"/>
          <note pos="336" vol="100" pan="0" key="36" len="24"/>
        </midiclip>
        <midiclip muted="0" pos="1536" name="" type="1" steps="16">
          <note pos="0" vol="100" pan="0" key="36" len="24"/>
          <note pos="72" vol="100" pan="0" key="36" len="24"/>
          <note pos="144" vol="100" pan="0" key="36" len="24"/>
          <note pos="192" vol="100" pan="0" key="36" len="24"/>
          <note pos="264" vol="100" pan="0" key="36" len="24"/>
          <note pos="288" vol="100" pan="0" key="44" len="24"/>
          <note pos="312" vol="100" pan="0" key="46" len="24"/>
          <note pos="336" vol="100" pan="0" key="42" len="24"/>
          <note pos="336" vol="100" pan="0" key="36" len="24"/>
          <note pos="360" vol="100" pan="0" key="52" len="24"/>
        </midiclip>
        <midiclip muted="0" pos="3456" name="" type="1" steps="16">
          <note pos="0" vol="100" pan="0" key="36" len="24"/>
          <note pos="24" vol="100" pan="0" key="54" len="24"/>
          <note pos="48" vol="100" pan="0" key="52" len="24"/>
          <note pos="72" vol="100" pan="0" key="36" len="24"/>
          <note pos="96" vol="100" pan="0" key="42" len="24"/>
          <note pos="120" vol="100" pan="0" key="52" len="24"/>
          <note pos="144" vol="100" pan="0" key="36" len="24"/>
          <note pos="192" vol="100" pan="0" key="36" len="24"/>
          <note pos="216" vol="100" pan="0" key="54" len="24"/>
          <note pos="240" vol="100" pan="0" key="52" len="24"/>
          <note pos="264" vol="100" pan="0" key="36" len="24"/>
          <note pos="288" vol="100" pan="0" key="42" len="24"/>
          <note pos="312" vol="100" pan="0" key="52" len="24"/>
          <note pos="336" vol="100" pan="0" key="46" len="24"/>
          <note pos="336" vol="100" pan="0" key="36" len="24"/>
          <note pos="360" vol="100" pan="0" key="44" len="24"/>
        </midiclip>
        <midiclip muted="0" pos="3840" name="" type="1" steps="16">
          <note pos="0" vol="100" pan="0" key="36" len="24"/>
          <note pos="24" vol="100" pan="0" key="54" len="24"/>
          <note pos="48" vol="100" pan="0" key="52" len="24"/>
          <note pos="72" vol="100" pan="0" key="36" len="24"/>
          <note pos="96" vol="100" pan="0" key="42" len="24"/>
          <note pos="120" vol="100" pan="0" key="52" len="24"/>
          <note pos="144" vol="100" pan="0" key="36" len="24"/>
          <note pos="192" vol="100" pan="0" key="36" len="24"/>
          <note pos="216" vol="100" pan="0" key="54" len="24"/>
          <note pos="240" vol="100" pan="0" key="52" len="24"/>
          <note pos="264" vol="100" pan="0" key="36" len="24"/>
          <note pos="288" vol="100" pan="0" key="42" len="24"/>
          <note pos="312" vol="100" pan="0" key="52" len="24"/>
          <note pos="336" vol="100" pan="0" key="46" len="24"/>
          <note pos="336" vol="100" pan="0" key="36" len="24"/>
          <note pos="360" vol="100" pan="0" key="44" len="24"/>
        </midiclip>
        <midiclip muted="0" pos="4224" name="" type="1" steps="16">
          <note pos="0" vol="100" pan="0" key="36" len="24"/>
          <note pos="24" vol="100" pan="0" key="54" len="24"/>
          <note pos="48" vol="100" pan="0" key="52" len="24"/>
          <note pos="72" vol="100" pan="0" key="36" len="24"/>
          <note pos="96" vol="100" pan="0" key="42" len="24"/>
          <note pos="120" vol="100" pan="0" key="52" len="24"/>
          <note pos="144" vol="100" pan="0" key="36" len="24"/>
          <note pos="192" vol="100" pan="0" key="36" len="24"/>
          <note pos="216" vol="100" pan="0" key="54" len="24"/>
          <note pos="240" vol="100" pan="0" key="52" len="24"/>
          <note pos="264" vol="100" pan="0" key="36" len="24"/>
          <note pos="288" vol="100" pan="0" key="42" len="24"/>
          <note pos="312" vol="100" pan="0" key="52" len="24"/>
          <note pos="336" vol="100" pan="0" key="46" len="24"/>
          <note pos="336" vol="100" pan="0" key="36" len="24"/>
          <note pos="360" vol="100" pan="0" key="44" len="24"/>
        </midiclip>
        <midiclip muted="0" pos="4608" name="" type="1" steps="16">
          <note pos="0" vol="100" pan="0" key="36" len="24"/>
          <note pos="24" vol="100" pan="0" key="54" len="24"/>
          <note pos="48" vol="100" pan="0" key="52" len="24"/>
          <note pos="72" vol="100" pan="0" key="36" len="24"/>
          <note pos="96" vol="100" pan="0" key="42" len="24"/>
          <note pos="120" vol="100" pan="0" key="52" len="24"/>
          <note pos="144" vol="100" pan="0" key="36" len="24"/>
          <note pos="192" vol="100" pan="0" key="36" len="24"/>
          <note pos="216" vol="100" pan="0" key="54" len="24"/>
          <note pos="240" vol="100" pan="0" key="52" len="24"/>
          <note pos="264" vol="100" pan="0" key="36" len="24"/>
          <note pos="288" vol="100" pan="0" key="42" len="24"/>
          <note pos="312" vol="100" pan="0" key="52" len="24"/>
          <note pos="336" vol="100" pan="0" key="46" len="24"/>
          <note pos="336" vol="100" pan="0" key="36" len="24"/>
          <note pos="360" vol="100" pan="0" key="44" len="24"/>
        </midiclip>
        <midiclip muted="0" pos="6912" name="" type="1" steps="16">
          <note pos="0" vol="100" pan="0" key="36" len="12"/>
          <note pos="24" vol="100" pan="0" key="46" len="12"/>
          <note pos="48" vol="100" pan="0" key="36" len="12"/>
          <note pos="72" vol="100" pan="0" key="44" len="12"/>
          <note pos="96" vol="100" pan="0" key="36" len="12"/>
          <note pos="120" vol="100" pan="0" key="46" len="12"/>
          <note pos="144" vol="100" pan="0" key="36" len="12"/>
          <note pos="168" vol="100" pan="0" key="44" len="12"/>
          <note pos="192" vol="100" pan="0" key="36" len="12"/>
          <note pos="216" vol="100" pan="0" key="46" len="12"/>
          <note pos="240" vol="100" pan="0" key="36" len="12"/>
          <note pos="264" vol="100" pan="0" key="44" len="12"/>
          <note pos="288" vol="100" pan="0" key="36" len="12"/>
          <note pos="312" vol="100" pan="0" key="46" len="12"/>
          <note pos="312" vol="100" pan="0" key="36" len="12"/>
          <note pos="324" vol="100" pan="0" key="36" len="12"/>
          <note pos="336" vol="100" pan="0" key="36" len="12"/>
          <note pos="360" vol="100" pan="0" key="44" len="12"/>
          <note pos="360" vol="100" pan="0" key="36" len="12"/>
        </midiclip>
        <midiclip muted="0" pos="7296" name="" type="1" steps="16">
          <note pos="0" vol="100" pan="0" key="36" len="12"/>
          <note pos="24" vol="100" pan="0" key="46" len="12"/>
          <note pos="48" vol="100" pan="0" key="36" len="12"/>
          <note pos="72" vol="100" pan="0" key="44" len="12"/>
          <note pos="96" vol="100" pan="0" key="36" len="12"/>
          <note pos="120" vol="100" pan="0" key="46" len="12"/>
          <note pos="144" vol="100" pan="0" key="36" len="12"/>
          <note pos="168" vol="100" pan="0" key="44" len="12"/>
          <note pos="192" vol="100" pan="0" key="36" len="12"/>
          <note pos="216" vol="100" pan="0" key="46" len="12"/>
          <note pos="240" vol="100" pan="0" key="36" len="12"/>
          <note pos="264" vol="100" pan="0" key="44" len="12"/>
          <note pos="288" vol="100" pan="0" key="36" len="12"/>
          <note pos="312" vol="100" pan="0" key="46" len="12"/>
          <note pos="312" vol="100" pan="0" key="36" len="12"/>
          <note pos="324" vol="100" pan="0" key="36" len="12"/>
          <note pos="336" vol="100" pan="0" key="36" len="12"/>
          <note pos="360" vol="100" pan="0" key="44" len="12"/>
          <note pos="360" vol="100" pan="0" key="36" len="12"/>
        </midiclip>
        <midiclip muted="0" pos="7680" name="" type="1" steps="16">
          <note pos="0" vol="100" pan="0" key="36" len="12"/>
          <note pos="24" vol="100" pan="0" key="46" len="12"/>
          <note pos="48" vol="100" pan="0" key="36" len="12"/>
          <note pos="72" vol="100" pan="0" key="44" len="12"/>
          <note pos="96" vol="100" pan="0" key="36" len="12"/>
          <note pos="120" vol="100" pan="0" key="46" len="12"/>
          <note pos="144" vol="100" pan="0" key="36" len="12"/>
          <note pos="168" vol="100" pan="0" key="44" len="12"/>
          <note pos="192" vol="100" pan="0" key="36" len="12"/>
          <note pos="216" vol="100" pan="0" key="46" len="12"/>
          <note pos="240" vol="100" pan="0" key="36" len="12"/>
          <note pos="264" vol="100" pan="0" key="44" len="12"/>
          <note pos="288" vol="100" pan="0" key="36" len="12"/>
          <note pos="312" vol="100" pan="0" key="46" len="12"/>
          <note pos="312" vol="100" pan="0" key="36" len="12"/>
          <note pos="324" vol="100" pan="0" key="36" len="12"/>
          <note pos="336" vol="100" pan="0" key="36" len="12"/>
          <note pos="360" vol="100" pan="0" key="44" len="12"/>
          <note pos="360" vol="100" pan="0" key="36" len="12"/>
        </midiclip>
        <midiclip muted="0" pos="8064" name="" type="1" steps="16">
          <note pos="0" vol="100" pan="0" key="36" len="12"/>
          <note pos="24" vol="100" pan="0" key="46" len="12"/>
          <note pos="48" vol="100" pan="0" key="36" len="12"/>
          <note pos="72" vol="100" pan="0" key="44" len="12"/>
          <note pos="96" vol="100" pan="0" key="36" len="12"/>
          <note pos="120" vol="100" pan="0" key="46" len="12"/>
          <note pos="144" vol="100" pan="0" key="36" len="12"/>
          <note pos="168" vol="100" pan="0" key="44" len="12"/>
          <note pos="192" vol="100" pan="0" key="36" len="12"/>
          <note pos="216" vol="100" pan="0" key="46" len="12"/>
          <note pos="240" vol="100" pan="0" key="36" len="12"/>
          <note pos="264" vol="100" pan="0" key="44" len="12"/>
          <note pos="288" vol="100" pan="0" key="36" len="12"/>
          <note pos="312" vol="100" pan="0" key="46" len="12"/>
          <note pos="312" vol="100" pan="0" key="36" len="12"/>
          <note pos="324" vol="100" pan="0" key="36" len="12"/>
          <note pos="336" vol="100" pan="0" key="36" len="12"/>
          <note pos="360" vol="100" pan="0" key="44" len="12"/>
          <note pos="360" vol="100" pan="0" key="36" len="12"/>
        </midiclip>
        <midiclip muted="0" pos="8448" name="" type="1" steps="16">
          <note pos="0" vol="100" pan="0" key="36" len="24"/>
          <note pos="24" vol="100" pan="0" key="54" len="24"/>
          <note pos="48" vol="100" pan="0" key="52" len="24"/>
          <note pos="72" vol="100" pan="0" key="36" len="24"/>
          <note pos="96" vol="100" pan="0" key="42" len="24"/>
          <note pos="120" vol="100" pan="0" key="52" len="24"/>
          <note pos="144" vol="100" pan="0" key="36" len="24"/>
          <note pos="192" vol="100" pan="0" key="36" len="24"/>
          <note pos="216" vol="100" pan="0" key="54" len="24"/>
          <note pos="240" vol="100" pan="0" key="52" len="24"/>
          <note pos="264" vol="100" pan="0" key="36" len="24"/>
          <note pos="288" vol="100" pan="0" key="42" len="24"/>
          <note pos="312" vol="100" pan="0" key="52" len="24"/>
          <note pos="336" vol="100" pan="0" key="46" len="24"/>
          <note pos="336" vol="100" pan="0" key="36" len="24"/>
          <note pos="360" vol="100" pan="0" key="44" len="24"/>
        </midiclip>
        <midiclip muted="0" pos="8832" name="" type="1" steps="16">
          <note pos="0" vol="100" pan="0" key="36" len="24"/>
          <note pos="24" vol="100" pan="0" key="54" len="24"/>
          <note pos="48" vol="100" pan="0" key="52" len="24"/>
          <note pos="72" vol="100" pan="0" key="36" len="24"/>
          <note pos="96" vol="100" pan="0" key="42" len="24"/>
          <note pos="120" vol="100" pan="0" key="52" len="24"/>
          <note pos="144" vol="100" pan="0" key="36" len="24"/>
          <note pos="192" vol="100" pan="0" key="36" len="24"/>
          <note pos="216" vol="100" pan="0" key="54" len="24"/>
          <note pos="240" vol="100" pan="0" key="52" len="24"/>
          <note pos="264" vol="100" pan="0" key="36" len="24"/>
          <note pos="288" vol="100" pan="0" key="42" len="24"/>
          <note pos="312" vol="100" pan="0" key="52" len="24"/>
          <note pos="336" vol="100" pan="0" key="46" len="24"/>
          <note pos="336" vol="100" pan="0" key="36" len="24"/>
          <note pos="360" vol="100" pan="0" key="44" len="24"/>
        </midiclip>
        <midiclip muted="0" pos="9216" name="" type="1" steps="16">
          <note pos="0" vol="100" pan="0" key="36" len="24"/>
          <note pos="24" vol="100" pan="0" key="54" len="24"/>
          <note pos="48" vol="100" pan="0" key="52" len="24"/>
          <note pos="72" vol="100" pan="0" key="36" len="24"/>
          <note pos="96" vol="100" pan="0" key="42" len="24"/>
          <note pos="120" vol="100" pan="0" key="52" len="24"/>
          <note pos="144" vol="100" pan="0" key="36" len="24"/>
          <note pos="192" vol="100" pan="0" key="36" len="24"/>
          <note pos="216" vol="100" pan="0" key="54" len="24"/>
          <note pos="240" vol="100" pan="0" key="52" len="24"/>
          <note pos="264" vol="100" pan="0" key="36" len="24"/>
          <note pos="288" vol="100" pan="0" key="42" len="24"/>
          <note pos="312" vol="100" pan="0" key="52" len="24"/>
          <note pos="336" vol="100" pan="0" key="46" len="24"/>
          <note pos="336" vol="100" pan="0" key="36" len="24"/>
          <note pos="360" vol="100" pan="0" key="44" len="24"/>
        </midiclip>
        <midiclip muted="0" pos="9600" name="" type="1" steps="16">
          <note pos="0" vol="100" pan="0" key="36" len="24"/>
          <note pos="24" vol="100" pan="0" key="54" len="24"/>
          <note pos="48" vol="100" pan="0" key="52" len="24"/>
          <note pos="72" vol="100" pan="0" key="36" len="24"/>
          <note pos="96" vol="100" pan="0" key="42" len="24"/>
          <note pos="120" vol="100" pan="0" key="52" len="24"/>
          <note pos="144" vol="100" pan="0" key="36" len="24"/>
          <note pos="192" vol="100" pan="0" key="36" len="24"/>
          <note pos="216" vol="100" pan="0" key="54" len="24"/>
          <note pos="240" vol="100" pan="0" key="52" len="24"/>
          <note pos="264" vol="100" pan="0" key="36" len="24"/>
          <note pos="288" vol="100" pan="0" key="42" len="24"/>
          <note pos="312" vol="100" pan="0" key="52" len="24"/>
          <note pos="336" vol="100" pan="0" key="46" len="24"/>
          <note pos="336" vol="100" pan="0" key="36" len="24"/>
          <note pos="360" vol="100" pan="0" key="44" len="24"/>
        </midiclip>
        <midiclip muted="0" pos="9984" name="" type="1" steps="16">
          <note pos="0" vol="100" pan="0" key="36" len="24"/>
          <note pos="24" vol="100" pan="0" key="54" len="24"/>
          <note pos="48" vol="100" pan="0" key="52" len="24"/>
          <note pos="72" vol="100" pan="0" key="36" len="24"/>
          <note pos="96" vol="100" pan="0" key="42" len="24"/>
          <note pos="120" vol="100" pan="0" key="52" len="24"/>
          <note pos="144" vol="100" pan="0" key="36" len="24"/>
          <note pos="192" vol="100" pan="0" key="36" len="24"/>
          <note pos="216" vol="100" pan="0" key="54" len="24"/>
          <note pos="240" vol="100" pan="0" key="52" len="24"/>
          <note pos="264" vol="100" pan="0" key="36" len="24"/>
          <note pos="288" vol="100" pan="0" key="42" len="24"/>
          <note pos="312" vol="100" pan="0" key="52" len="24"/>
          <note pos="336" vol="100" pan="0" key="46" len="24"/>
          <note pos="336" vol="100" pan="0" key="36" len="24"/>
          <note pos="360" vol="100" pan="0" key="44" len="24"/>
        </midiclip>
        <midiclip muted="0" pos="10368" name="" type="1" steps="16">
          <note pos="0" vol="100" pan="0" key="36" len="24"/>
          <note pos="24" vol="100" pan="0" key="54" len="24"/>
          <note pos="48" vol="100" pan="0" key="52" len="24"/>
          <note pos="72" vol="100" pan="0" key="36" len="24"/>
          <note pos="96" vol="100" pan="0" key="42" len="24"/>
          <note pos="120" vol="100" pan="0" key="52" len="24"/>
          <note pos="144" vol="100" pan="0" key="36" len="24"/>
          <note pos="192" vol="100" pan="0" key="36" len="24"/>
          <note pos="216" vol="100" pan="0" key="54" len="24"/>
          <note pos="240" vol="100" pan="0" key="52" len="24"/>
          <note pos="264" vol="100" pan="0" key="36" len="24"/>
          <note pos="288" vol="100" pan="0" key="42" len="24"/>
          <note pos="312" vol="100" pan="0" key="52" len="24"/>
          <note pos="336" vol="100" pan="0" key="46" len="24"/>
          <note pos="336" vol="100" pan="0" key="36" len="24"/>
          <note pos="360" vol="100" pan="0" key="44" len="24"/>
        </midiclip>
        <midiclip muted="0" pos="10752" name="" type="1" steps="16">
          <note pos="0" vol="100" pan="0" key="36" len="24"/>
          <note pos="24" vol="100" pan="0" key="54" len="24"/>
          <note pos="48" vol="100" pan="0" key="52" len="24"/>
          <note pos="72" vol="100" pan="0" key="36" len="24"/>
          <note pos="96" vol="100" pan="0" key="42" len="24"/>
          <note pos="120" vol="100" pan="0" key="52" len="24"/>
          <note pos="144" vol="100" pan="0" key="36" len="24"/>
          <note pos="192" vol="100" pan="0" key="36" len="24"/>
          <note pos="216" vol="100" pan="0" key="54" len="24"/>
          <note pos="240" vol="100" pan="0" key="52" len="24"/>
          <note pos="264" vol="100" pan="0" key="36" len="24"/>
          <note pos="288" vol="100" pan="0" key="42" len="24"/>
          <note pos="312" vol="100" pan="0" key="52" len="24"/>
          <note pos="336" vol="100" pan="0" key="46" len="24"/>
          <note pos="336" vol="100" pan="0" key="36" len="24"/>
          <note pos="360" vol="100" pan="0" key="44" len="24"/>
        </midiclip>
        <midiclip muted="0" pos="11136" name="" type="1" steps="16">
          <note pos="0" vol="100" pan="0" key="36" len="24"/>
          <note pos="24" vol="100" pan="0" key="54" len="24"/>
          <note pos="48" vol="100" pan="0" key="52" len="24"/>
          <note pos="72" vol="100" pan="0" key="36" len="24"/>
          <note pos="96" vol="100" pan="0" key="42" len="24"/>
          <note pos="120" vol="100" pan="0" key="52" len="24"/>
          <note pos="144" vol="100" pan="0" key="36" len="24"/>
          <note pos="192" vol="100" pan="0" key="36" len="24"/>
          <note pos="216" vol="100" pan="0" key="54" len="24"/>
          <note pos="240" vol="100" pan="0" key="52" len="24"/>
          <note pos="264" vol="100" pan="0" key="36" len="24"/>
          <note pos="288" vol="100" pan="0" key="42" len="24"/>
          <note pos="312" vol="100" pan="0" key="52" len="24"/>
          <note pos="336" vol="100" pan="0" key="46" len="24"/>
          <note pos="336" vol="100" pan="0" key="36" len="24"/>
          <note pos="360" vol="100" pan="0" key="44" len="24"/>
        </midiclip>
      </track>
      <track muted="0" mutedBeforeSolo="0" name="Drums>Stick" trackheight="32" type="0" solo="0">
        <instrumenttrack pitchrange="1" usemasterpitch="0" vol="100" keymap="0" pan="0" basenote="69" enablecc="0" enabled="0" firstkey="42" range_import="1" mixch="4" lastkey="42" scale="0" pitch="-100">
          <midicontrollers cc36="0" cc15="0" cc90="0" cc2="0" cc41="0" cc85="0" cc45="0" cc88="0" cc124="0" cc31="0" cc21="0" cc91="0" cc109="0" cc32="0" cc53="0" cc60="0" cc25="0" cc64="0" cc97="0" cc55="0" cc66="0" cc0="0" cc34="0" cc106="0" cc63="0" cc43="0" cc100="0" cc76="0" cc98="0" cc4="0" cc84="0" cc44="0" cc78="0" cc14="0" cc23="0" cc11="0" cc75="0" cc87="0" cc103="0" cc107="0" cc26="0" cc1="0" cc50="0" cc86="0" cc112="0" cc16="0" cc20="0" cc82="0" cc101="0" cc113="0" cc46="0" cc96="0" cc19="0" cc119="0" cc65="0" cc108="0" cc61="0" cc12="0" cc127="0" cc52="0" cc56="0" cc6="0" cc10="0" cc102="0" cc126="0" cc29="0" cc37="0" cc24="0" cc38="0" cc39="0" cc115="0" cc40="0" cc27="0" cc33="0" cc69="0" cc18="0" cc22="0" cc77="0" cc121="0" cc35="0" cc9="0" cc73="0" cc51="0" cc48="0" cc67="0" cc57="0" cc93="0" cc80="0" cc5="0" cc28="0" cc62="0" cc104="0" cc122="0" cc49="0" cc123="0" cc42="0" cc68="0" cc74="0" cc117="0" cc3="0" cc59="0" cc99="0" cc79="0" cc72="0" cc83="0" cc120="0" cc70="0" cc89="0" cc47="0" cc92="0" cc116="0" cc125="0" cc94="0" cc7="0" cc71="0" cc17="0" cc105="0" cc111="0" cc118="0" cc8="0" cc95="0" cc54="0" cc110="0" cc114="0" cc81="0" cc13="0" cc30="0" cc58="0"/>
          <instrument name="sf2player">
            <sf2player reverbDamping="0" reverbWidth="0.5" reverbLevel="0.9" chorusNum="3" gain="0.3" chorusLevel="2" chorusDepth="8" chorusSpeed="0.3" reverbOn="0" reverbRoomSize="0.2" src="usersoundfont:FluidR3 GM.sf2" bank="128" chorusOn="0" patch="17">
              <key/>
            </sf2player>
          </instrument>
          <eldata fcut="14000" fres="0.5" ftype="0" fwet="0">
            <elvol lspd_numerator="4" dec="0.5" pdel="0" latt="0" sustain="0.5" hold="0.5" lamt="0" lspd_denominator="4" att="0" lspd="0.1" lpdel="0" x100="0" amt="0" lspd_syncmode="0" lshp="0" rel="0.1" userwavefile="" ctlenvamt="0"/>
            <elcut lspd_numerator="4" dec="0.5" pdel="0" latt="0" sustain="0.5" hold="0.5" lamt="0" lspd_denominator="4" att="0" lspd="0.1" lpdel="0" x100="0" amt="0" lspd_syncmode="0" lshp="0" rel="0.1" userwavefile="" ctlenvamt="0"/>
            <elres lspd_numerator="4" dec="0.5" pdel="0" latt="0" sustain="0.5" hold="0.5" lamt="0" lspd_denominator="4" att="0" lspd="0.1" lpdel="0" x100="0" amt="0" lspd_syncmode="0" lshp="0" rel="0.1" userwavefile="" ctlenvamt="0"/>
          </eldata>
          <chordcreator chord="0" chord-enabled="0" chordrange="1"/>
          <arpeggiator arptime_numerator="4" arpgate="100" arpcycle="0" arpdir="0" arpmode="0" arpskip="0" arptime_denominator="4" arprepeats="1" arp-enabled="0" arprange="1" arptime="200" arp="0" arpmiss="0" arptime_syncmode="0"/>
          <midiport inputchannel="0" writable="0" fixedinputvelocity="-1" fixedoutputvelocity="-1" outputprogram="1" readable="1" fixedoutputnote="-1" basevelocity="127" outputchannel="1" inports="" inputcontroller="0" outputcontroller="0"/>
          <fxchain enabled="0" numofeffects="0"/>
        </instrumenttrack>
        <midiclip muted="0" pos="1920" name="" type="1" steps="16">
          <note pos="0" vol="100" pan="0" key="36" len="24"/>
          <note pos="24" vol="100" pan="0" key="54" len="24"/>
          <note pos="48" vol="100" pan="0" key="52" len="24"/>
          <note pos="72" vol="100" pan="0" key="36" len="24"/>
          <note pos="96" vol="100" pan="0" key="42" len="24"/>
          <note pos="120" vol="100" pan="0" key="52" len="24"/>
          <note pos="144" vol="100" pan="0" key="36" len="24"/>
          <note pos="192" vol="100" pan="0" key="36" len="24"/>
          <note pos="216" vol="100" pan="0" key="54" len="24"/>
          <note pos="240" vol="100" pan="0" key="52" len="24"/>
          <note pos="264" vol="100" pan="0" key="36" len="24"/>
          <note pos="288" vol="100" pan="0" key="42" len="24"/>
          <note pos="312" vol="100" pan="0" key="52" len="24"/>
          <note pos="336" vol="100" pan="0" key="46" len="24"/>
          <note pos="336" vol="100" pan="0" key="36" len="24"/>
          <note pos="360" vol="100" pan="0" key="44" len="24"/>
        </midiclip>
        <midiclip muted="0" pos="2304" name="" type="1" steps="16">
          <note pos="0" vol="100" pan="0" key="36" len="24"/>
          <note pos="24" vol="100" pan="0" key="54" len="24"/>
          <note pos="48" vol="100" pan="0" key="52" len="24"/>
          <note pos="72" vol="100" pan="0" key="36" len="24"/>
          <note pos="96" vol="100" pan="0" key="42" len="24"/>
          <note pos="120" vol="100" pan="0" key="52" len="24"/>
          <note pos="144" vol="100" pan="0" key="36" len="24"/>
          <note pos="192" vol="100" pan="0" key="36" len="24"/>
          <note pos="216" vol="100" pan="0" key="54" len="24"/>
          <note pos="240" vol="100" pan="0" key="52" len="24"/>
          <note pos="264" vol="100" pan="0" key="36" len="24"/>
          <note pos="288" vol="100" pan="0" key="42" len="24"/>
          <note pos="312" vol="100" pan="0" key="52" len="24"/>
          <note pos="336" vol="100" pan="0" key="46" len="24"/>
          <note pos="336" vol="100" pan="0" key="36" len="24"/>
          <note pos="360" vol="100" pan="0" key="44" len="24"/>
        </midiclip>
        <midiclip muted="0" pos="2688" name="" type="1" steps="16">
          <note pos="0" vol="100" pan="0" key="36" len="24"/>
          <note pos="24" vol="100" pan="0" key="54" len="24"/>
          <note pos="48" vol="100" pan="0" key="52" len="24"/>
          <note pos="72" vol="100" pan="0" key="36" len="24"/>
          <note pos="96" vol="100" pan="0" key="42" len="24"/>
          <note pos="120" vol="100" pan="0" key="52" len="24"/>
          <note pos="144" vol="100" pan="0" key="36" len="24"/>
          <note pos="192" vol="100" pan="0" key="36" len="24"/>
          <note pos="216" vol="100" pan="0" key="54" len="24"/>
          <note pos="240" vol="100" pan="0" key="52" len="24"/>
          <note pos="264" vol="100" pan="0" key="36" len="24"/>
          <note pos="288" vol="100" pan="0" key="42" len="24"/>
          <note pos="312" vol="100" pan="0" key="52" len="24"/>
          <note pos="336" vol="100" pan="0" key="46" len="24"/>
          <note pos="336" vol="100" pan="0" key="36" len="24"/>
          <note pos="360" vol="100" pan="0" key="44" len="24"/>
        </midiclip>
        <midiclip muted="0" pos="3072" name="" type="1" steps="16">
          <note pos="0" vol="100" pan="0" key="36" len="24"/>
          <note pos="24" vol="100" pan="0" key="54" len="24"/>
          <note pos="48" vol="100" pan="0" key="52" len="24"/>
          <note pos="72" vol="100" pan="0" key="36" len="24"/>
          <note pos="96" vol="100" pan="0" key="42" len="24"/>
          <note pos="120" vol="100" pan="0" key="52" len="24"/>
          <note pos="144" vol="100" pan="0" key="36" len="24"/>
          <note pos="192" vol="100" pan="0" key="36" len="24"/>
          <note pos="216" vol="100" pan="0" key="54" len="24"/>
          <note pos="240" vol="100" pan="0" key="52" len="24"/>
          <note pos="264" vol="100" pan="0" key="36" len="24"/>
          <note pos="288" vol="100" pan="0" key="42" len="24"/>
          <note pos="312" vol="100" pan="0" key="52" len="24"/>
          <note pos="336" vol="100" pan="0" key="46" len="24"/>
          <note pos="336" vol="100" pan="0" key="36" len="24"/>
          <note pos="360" vol="100" pan="0" key="44" len="24"/>
        </midiclip>
        <midiclip muted="0" pos="1152" name="" type="1" steps="16">
          <note pos="0" vol="100" pan="0" key="36" len="24"/>
          <note pos="72" vol="100" pan="0" key="36" len="24"/>
          <note pos="144" vol="100" pan="0" key="36" len="24"/>
          <note pos="192" vol="100" pan="0" key="36" len="24"/>
          <note pos="264" vol="100" pan="0" key="36" len="24"/>
          <note pos="336" vol="100" pan="0" key="36" len="24"/>
        </midiclip>
        <midiclip muted="0" pos="1536" name="" type="1" steps="16">
          <note pos="0" vol="100" pan="0" key="36" len="24"/>
          <note pos="72" vol="100" pan="0" key="36" len="24"/>
          <note pos="144" vol="100" pan="0" key="36" len="24"/>
          <note pos="192" vol="100" pan="0" key="36" len="24"/>
          <note pos="264" vol="100" pan="0" key="36" len="24"/>
          <note pos="288" vol="100" pan="0" key="44" len="24"/>
          <note pos="312" vol="100" pan="0" key="46" len="24"/>
          <note pos="336" vol="100" pan="0" key="42" len="24"/>
          <note pos="336" vol="100" pan="0" key="36" len="24"/>
          <note pos="360" vol="100" pan="0" key="52" len="24"/>
        </midiclip>
        <midiclip muted="0" pos="3456" name="" type="1" steps="16">
          <note pos="0" vol="100" pan="0" key="36" len="24"/>
          <note pos="24" vol="100" pan="0" key="54" len="24"/>
          <note pos="48" vol="100" pan="0" key="52" len="24"/>
          <note pos="72" vol="100" pan="0" key="36" len="24"/>
          <note pos="96" vol="100" pan="0" key="42" len="24"/>
          <note pos="120" vol="100" pan="0" key="52" len="24"/>
          <note pos="144" vol="100" pan="0" key="36" len="24"/>
          <note pos="192" vol="100" pan="0" key="36" len="24"/>
          <note pos="216" vol="100" pan="0" key="54" len="24"/>
          <note pos="240" vol="100" pan="0" key="52" len="24"/>
          <note pos="264" vol="100" pan="0" key="36" len="24"/>
          <note pos="288" vol="100" pan="0" key="42" len="24"/>
          <note pos="312" vol="100" pan="0" key="52" len="24"/>
          <note pos="336" vol="100" pan="0" key="46" len="24"/>
          <note pos="336" vol="100" pan="0" key="36" len="24"/>
          <note pos="360" vol="100" pan="0" key="44" len="24"/>
        </midiclip>
        <midiclip muted="0" pos="3840" name="" type="1" steps="16">
          <note pos="0" vol="100" pan="0" key="36" len="24"/>
          <note pos="24" vol="100" pan="0" key="54" len="24"/>
          <note pos="48" vol="100" pan="0" key="52" len="24"/>
          <note pos="72" vol="100" pan="0" key="36" len="24"/>
          <note pos="96" vol="100" pan="0" key="42" len="24"/>
          <note pos="120" vol="100" pan="0" key="52" len="24"/>
          <note pos="144" vol="100" pan="0" key="36" len="24"/>
          <note pos="192" vol="100" pan="0" key="36" len="24"/>
          <note pos="216" vol="100" pan="0" key="54" len="24"/>
          <note pos="240" vol="100" pan="0" key="52" len="24"/>
          <note pos="264" vol="100" pan="0" key="36" len="24"/>
          <note pos="288" vol="100" pan="0" key="42" len="24"/>
          <note pos="312" vol="100" pan="0" key="52" len="24"/>
          <note pos="336" vol="100" pan="0" key="46" len="24"/>
          <note pos="336" vol="100" pan="0" key="36" len="24"/>
          <note pos="360" vol="100" pan="0" key="44" len="24"/>
        </midiclip>
        <midiclip muted="0" pos="4224" name="" type="1" steps="16">
          <note pos="0" vol="100" pan="0" key="36" len="24"/>
          <note pos="24" vol="100" pan="0" key="54" len="24"/>
          <note pos="48" vol="100" pan="0" key="52" len="24"/>
          <note pos="72" vol="100" pan="0" key="36" len="24"/>
          <note pos="96" vol="100" pan="0" key="42" len="24"/>
          <note pos="120" vol="100" pan="0" key="52" len="24"/>
          <note pos="144" vol="100" pan="0" key="36" len="24"/>
          <note pos="192" vol="100" pan="0" key="36" len="24"/>
          <note pos="216" vol="100" pan="0" key="54" len="24"/>
          <note pos="240" vol="100" pan="0" key="52" len="24"/>
          <note pos="264" vol="100" pan="0" key="36" len="24"/>
          <note pos="288" vol="100" pan="0" key="42" len="24"/>
          <note pos="312" vol="100" pan="0" key="52" len="24"/>
          <note pos="336" vol="100" pan="0" key="46" len="24"/>
          <note pos="336" vol="100" pan="0" key="36" len="24"/>
          <note pos="360" vol="100" pan="0" key="44" len="24"/>
        </midiclip>
        <midiclip muted="0" pos="4608" name="" type="1" steps="16">
          <note pos="0" vol="100" pan="0" key="36" len="24"/>
          <note pos="24" vol="100" pan="0" key="54" len="24"/>
          <note pos="48" vol="100" pan="0" key="52" len="24"/>
          <note pos="72" vol="100" pan="0" key="36" len="24"/>
          <note pos="96" vol="100" pan="0" key="42" len="24"/>
          <note pos="120" vol="100" pan="0" key="52" len="24"/>
          <note pos="144" vol="100" pan="0" key="36" len="24"/>
          <note pos="192" vol="100" pan="0" key="36" len="24"/>
          <note pos="216" vol="100" pan="0" key="54" len="24"/>
          <note pos="240" vol="100" pan="0" key="52" len="24"/>
          <note pos="264" vol="100" pan="0" key="36" len="24"/>
          <note pos="288" vol="100" pan="0" key="42" len="24"/>
          <note pos="312" vol="100" pan="0" key="52" len="24"/>
          <note pos="336" vol="100" pan="0" key="46" len="24"/>
          <note pos="336" vol="100" pan="0" key="36" len="24"/>
          <note pos="360" vol="100" pan="0" key="44" len="24"/>
        </midiclip>
        <midiclip muted="0" pos="6912" name="" type="1" steps="16">
          <note pos="0" vol="100" pan="0" key="36" len="12"/>
          <note pos="24" vol="100" pan="0" key="46" len="12"/>
          <note pos="48" vol="100" pan="0" key="36" len="12"/>
          <note pos="72" vol="100" pan="0" key="44" len="12"/>
          <note pos="96" vol="100" pan="0" key="36" len="12"/>
          <note pos="120" vol="100" pan="0" key="46" len="12"/>
          <note pos="144" vol="100" pan="0" key="36" len="12"/>
          <note pos="168" vol="100" pan="0" key="44" len="12"/>
          <note pos="192" vol="100" pan="0" key="36" len="12"/>
          <note pos="216" vol="100" pan="0" key="46" len="12"/>
          <note pos="240" vol="100" pan="0" key="36" len="12"/>
          <note pos="264" vol="100" pan="0" key="44" len="12"/>
          <note pos="288" vol="100" pan="0" key="36" len="12"/>
          <note pos="312" vol="100" pan="0" key="46" len="12"/>
          <note pos="312" vol="100" pan="0" key="36" len="12"/>
          <note pos="324" vol="100" pan="0" key="36" len="12"/>
          <note pos="336" vol="100" pan="0" key="36" len="12"/>
          <note pos="360" vol="100" pan="0" key="44" len="12"/>
          <note pos="360" vol="100" pan="0" key="36" len="12"/>
        </midiclip>
        <midiclip muted="0" pos="7296" name="" type="1" steps="16">
          <note pos="0" vol="100" pan="0" key="36" len="12"/>
          <note pos="24" vol="100" pan="0" key="46" len="12"/>
          <note pos="48" vol="100" pan="0" key="36" len="12"/>
          <note pos="72" vol="100" pan="0" key="44" len="12"/>
          <note pos="96" vol="100" pan="0" key="36" len="12"/>
          <note pos="120" vol="100" pan="0" key="46" len="12"/>
          <note pos="144" vol="100" pan="0" key="36" len="12"/>
          <note pos="168" vol="100" pan="0" key="44" len="12"/>
          <note pos="192" vol="100" pan="0" key="36" len="12"/>
          <note pos="216" vol="100" pan="0" key="46" len="12"/>
          <note pos="240" vol="100" pan="0" key="36" len="12"/>
          <note pos="264" vol="100" pan="0" key="44" len="12"/>
          <note pos="288" vol="100" pan="0" key="36" len="12"/>
          <note pos="312" vol="100" pan="0" key="46" len="12"/>
          <note pos="312" vol="100" pan="0" key="36" len="12"/>
          <note pos="324" vol="100" pan="0" key="36" len="12"/>
          <note pos="336" vol="100" pan="0" key="36" len="12"/>
          <note pos="360" vol="100" pan="0" key="44" len="12"/>
          <note pos="360" vol="100" pan="0" key="36" len="12"/>
        </midiclip>
        <midiclip muted="0" pos="7680" name="" type="1" steps="16">
          <note pos="0" vol="100" pan="0" key="36" len="12"/>
          <note pos="24" vol="100" pan="0" key="46" len="12"/>
          <note pos="48" vol="100" pan="0" key="36" len="12"/>
          <note pos="72" vol="100" pan="0" key="44" len="12"/>
          <note pos="96" vol="100" pan="0" key="36" len="12"/>
          <note pos="120" vol="100" pan="0" key="46" len="12"/>
          <note pos="144" vol="100" pan="0" key="36" len="12"/>
          <note pos="168" vol="100" pan="0" key="44" len="12"/>
          <note pos="192" vol="100" pan="0" key="36" len="12"/>
          <note pos="216" vol="100" pan="0" key="46" len="12"/>
          <note pos="240" vol="100" pan="0" key="36" len="12"/>
          <note pos="264" vol="100" pan="0" key="44" len="12"/>
          <note pos="288" vol="100" pan="0" key="36" len="12"/>
          <note pos="312" vol="100" pan="0" key="46" len="12"/>
          <note pos="312" vol="100" pan="0" key="36" len="12"/>
          <note pos="324" vol="100" pan="0" key="36" len="12"/>
          <note pos="336" vol="100" pan="0" key="36" len="12"/>
          <note pos="360" vol="100" pan="0" key="44" len="12"/>
          <note pos="360" vol="100" pan="0" key="36" len="12"/>
        </midiclip>
        <midiclip muted="0" pos="8064" name="" type="1" steps="16">
          <note pos="0" vol="100" pan="0" key="36" len="12"/>
          <note pos="24" vol="100" pan="0" key="46" len="12"/>
          <note pos="48" vol="100" pan="0" key="36" len="12"/>
          <note pos="72" vol="100" pan="0" key="44" len="12"/>
          <note pos="96" vol="100" pan="0" key="36" len="12"/>
          <note pos="120" vol="100" pan="0" key="46" len="12"/>
          <note pos="144" vol="100" pan="0" key="36" len="12"/>
          <note pos="168" vol="100" pan="0" key="44" len="12"/>
          <note pos="192" vol="100" pan="0" key="36" len="12"/>
          <note pos="216" vol="100" pan="0" key="46" len="12"/>
          <note pos="240" vol="100" pan="0" key="36" len="12"/>
          <note pos="264" vol="100" pan="0" key="44" len="12"/>
          <note pos="288" vol="100" pan="0" key="36" len="12"/>
          <note pos="312" vol="100" pan="0" key="46" len="12"/>
          <note pos="312" vol="100" pan="0" key="36" len="12"/>
          <note pos="324" vol="100" pan="0" key="36" len="12"/>
          <note pos="336" vol="100" pan="0" key="36" len="12"/>
          <note pos="360" vol="100" pan="0" key="44" len="12"/>
          <note pos="360" vol="100" pan="0" key="36" len="12"/>
        </midiclip>
        <midiclip muted="0" pos="8448" name="" type="1" steps="16">
          <note pos="0" vol="100" pan="0" key="36" len="24"/>
          <note pos="24" vol="100" pan="0" key="54" len="24"/>
          <note pos="48" vol="100" pan="0" key="52" len="24"/>
          <note pos="72" vol="100" pan="0" key="36" len="24"/>
          <note pos="96" vol="100" pan="0" key="42" len="24"/>
          <note pos="120" vol="100" pan="0" key="52" len="24"/>
          <note pos="144" vol="100" pan="0" key="36" len="24"/>
          <note pos="192" vol="100" pan="0" key="36" len="24"/>
          <note pos="216" vol="100" pan="0" key="54" len="24"/>
          <note pos="240" vol="100" pan="0" key="52" len="24"/>
          <note pos="264" vol="100" pan="0" key="36" len="24"/>
          <note pos="288" vol="100" pan="0" key="42" len="24"/>
          <note pos="312" vol="100" pan="0" key="52" len="24"/>
          <note pos="336" vol="100" pan="0" key="46" len="24"/>
          <note pos="336" vol="100" pan="0" key="36" len="24"/>
          <note pos="360" vol="100" pan="0" key="44" len="24"/>
        </midiclip>
        <midiclip muted="0" pos="8832" name="" type="1" steps="16">
          <note pos="0" vol="100" pan="0" key="36" len="24"/>
          <note pos="24" vol="100" pan="0" key="54" len="24"/>
          <note pos="48" vol="100" pan="0" key="52" len="24"/>
          <note pos="72" vol="100" pan="0" key="36" len="24"/>
          <note pos="96" vol="100" pan="0" key="42" len="24"/>
          <note pos="120" vol="100" pan="0" key="52" len="24"/>
          <note pos="144" vol="100" pan="0" key="36" len="24"/>
          <note pos="192" vol="100" pan="0" key="36" len="24"/>
          <note pos="216" vol="100" pan="0" key="54" len="24"/>
          <note pos="240" vol="100" pan="0" key="52" len="24"/>
          <note pos="264" vol="100" pan="0" key="36" len="24"/>
          <note pos="288" vol="100" pan="0" key="42" len="24"/>
          <note pos="312" vol="100" pan="0" key="52" len="24"/>
          <note pos="336" vol="100" pan="0" key="46" len="24"/>
          <note pos="336" vol="100" pan="0" key="36" len="24"/>
          <note pos="360" vol="100" pan="0" key="44" len="24"/>
        </midiclip>
        <midiclip muted="0" pos="9216" name="" type="1" steps="16">
          <note pos="0" vol="100" pan="0" key="36" len="24"/>
          <note pos="24" vol="100" pan="0" key="54" len="24"/>
          <note pos="48" vol="100" pan="0" key="52" len="24"/>
          <note pos="72" vol="100" pan="0" key="36" len="24"/>
          <note pos="96" vol="100" pan="0" key="42" len="24"/>
          <note pos="120" vol="100" pan="0" key="52" len="24"/>
          <note pos="144" vol="100" pan="0" key="36" len="24"/>
          <note pos="192" vol="100" pan="0" key="36" len="24"/>
          <note pos="216" vol="100" pan="0" key="54" len="24"/>
          <note pos="240" vol="100" pan="0" key="52" len="24"/>
          <note pos="264" vol="100" pan="0" key="36" len="24"/>
          <note pos="288" vol="100" pan="0" key="42" len="24"/>
          <note pos="312" vol="100" pan="0" key="52" len="24"/>
          <note pos="336" vol="100" pan="0" key="46" len="24"/>
          <note pos="336" vol="100" pan="0" key="36" len="24"/>
          <note pos="360" vol="100" pan="0" key="44" len="24"/>
        </midiclip>
        <midiclip muted="0" pos="9600" name="" type="1" steps="16">
          <note pos="0" vol="100" pan="0" key="36" len="24"/>
          <note pos="24" vol="100" pan="0" key="54" len="24"/>
          <note pos="48" vol="100" pan="0" key="52" len="24"/>
          <note pos="72" vol="100" pan="0" key="36" len="24"/>
          <note pos="96" vol="100" pan="0" key="42" len="24"/>
          <note pos="120" vol="100" pan="0" key="52" len="24"/>
          <note pos="144" vol="100" pan="0" key="36" len="24"/>
          <note pos="192" vol="100" pan="0" key="36" len="24"/>
          <note pos="216" vol="100" pan="0" key="54" len="24"/>
          <note pos="240" vol="100" pan="0" key="52" len="24"/>
          <note pos="264" vol="100" pan="0" key="36" len="24"/>
          <note pos="288" vol="100" pan="0" key="42" len="24"/>
          <note pos="312" vol="100" pan="0" key="52" len="24"/>
          <note pos="336" vol="100" pan="0" key="46" len="24"/>
          <note pos="336" vol="100" pan="0" key="36" len="24"/>
          <note pos="360" vol="100" pan="0" key="44" len="24"/>
        </midiclip>
        <midiclip muted="0" pos="9984" name="" type="1" steps="16">
          <note pos="0" vol="100" pan="0" key="36" len="24"/>
          <note pos="24" vol="100" pan="0" key="54" len="24"/>
          <note pos="48" vol="100" pan="0" key="52" len="24"/>
          <note pos="72" vol="100" pan="0" key="36" len="24"/>
          <note pos="96" vol="100" pan="0" key="42" len="24"/>
          <note pos="120" vol="100" pan="0" key="52" len="24"/>
          <note pos="144" vol="100" pan="0" key="36" len="24"/>
          <note pos="192" vol="100" pan="0" key="36" len="24"/>
          <note pos="216" vol="100" pan="0" key="54" len="24"/>
          <note pos="240" vol="100" pan="0" key="52" len="24"/>
          <note pos="264" vol="100" pan="0" key="36" len="24"/>
          <note pos="288" vol="100" pan="0" key="42" len="24"/>
          <note pos="312" vol="100" pan="0" key="52" len="24"/>
          <note pos="336" vol="100" pan="0" key="46" len="24"/>
          <note pos="336" vol="100" pan="0" key="36" len="24"/>
          <note pos="360" vol="100" pan="0" key="44" len="24"/>
        </midiclip>
        <midiclip muted="0" pos="10368" name="" type="1" steps="16">
          <note pos="0" vol="100" pan="0" key="36" len="24"/>
          <note pos="24" vol="100" pan="0" key="54" len="24"/>
          <note pos="48" vol="100" pan="0" key="52" len="24"/>
          <note pos="72" vol="100" pan="0" key="36" len="24"/>
          <note pos="96" vol="100" pan="0" key="42" len="24"/>
          <note pos="120" vol="100" pan="0" key="52" len="24"/>
          <note pos="144" vol="100" pan="0" key="36" len="24"/>
          <note pos="192" vol="100" pan="0" key="36" len="24"/>
          <note pos="216" vol="100" pan="0" key="54" len="24"/>
          <note pos="240" vol="100" pan="0" key="52" len="24"/>
          <note pos="264" vol="100" pan="0" key="36" len="24"/>
          <note pos="288" vol="100" pan="0" key="42" len="24"/>
          <note pos="312" vol="100" pan="0" key="52" len="24"/>
          <note pos="336" vol="100" pan="0" key="46" len="24"/>
          <note pos="336" vol="100" pan="0" key="36" len="24"/>
          <note pos="360" vol="100" pan="0" key="44" len="24"/>
        </midiclip>
        <midiclip muted="0" pos="10752" name="" type="1" steps="16">
          <note pos="0" vol="100" pan="0" key="36" len="24"/>
          <note pos="24" vol="100" pan="0" key="54" len="24"/>
          <note pos="48" vol="100" pan="0" key="52" len="24"/>
          <note pos="72" vol="100" pan="0" key="36" len="24"/>
          <note pos="96" vol="100" pan="0" key="42" len="24"/>
          <note pos="120" vol="100" pan="0" key="52" len="24"/>
          <note pos="144" vol="100" pan="0" key="36" len="24"/>
          <note pos="192" vol="100" pan="0" key="36" len="24"/>
          <note pos="216" vol="100" pan="0" key="54" len="24"/>
          <note pos="240" vol="100" pan="0" key="52" len="24"/>
          <note pos="264" vol="100" pan="0" key="36" len="24"/>
          <note pos="288" vol="100" pan="0" key="42" len="24"/>
          <note pos="312" vol="100" pan="0" key="52" len="24"/>
          <note pos="336" vol="100" pan="0" key="46" len="24"/>
          <note pos="336" vol="100" pan="0" key="36" len="24"/>
          <note pos="360" vol="100" pan="0" key="44" len="24"/>
        </midiclip>
        <midiclip muted="0" pos="11136" name="" type="1" steps="16">
          <note pos="0" vol="100" pan="0" key="36" len="24"/>
          <note pos="24" vol="100" pan="0" key="54" len="24"/>
          <note pos="48" vol="100" pan="0" key="52" len="24"/>
          <note pos="72" vol="100" pan="0" key="36" len="24"/>
          <note pos="96" vol="100" pan="0" key="42" len="24"/>
          <note pos="120" vol="100" pan="0" key="52" len="24"/>
          <note pos="144" vol="100" pan="0" key="36" len="24"/>
          <note pos="192" vol="100" pan="0" key="36" len="24"/>
          <note pos="216" vol="100" pan="0" key="54" len="24"/>
          <note pos="240" vol="100" pan="0" key="52" len="24"/>
          <note pos="264" vol="100" pan="0" key="36" len="24"/>
          <note pos="288" vol="100" pan="0" key="42" len="24"/>
          <note pos="312" vol="100" pan="0" key="52" len="24"/>
          <note pos="336" vol="100" pan="0" key="46" len="24"/>
          <note pos="336" vol="100" pan="0" key="36" len="24"/>
          <note pos="360" vol="100" pan="0" key="44" len="24"/>
        </midiclip>
      </track>
      <track muted="0" mutedBeforeSolo="0" name="Drums>Hat" trackheight="32" type="0" solo="0">
        <instrumenttrack pitchrange="1" usemasterpitch="0" vol="100" keymap="0" pan="0" basenote="69" enablecc="0" enabled="0" firstkey="44" range_import="1" mixch="4" lastkey="46" scale="0" pitch="-100">
          <midicontrollers cc36="0" cc15="0" cc90="0" cc2="0" cc41="0" cc85="0" cc45="0" cc88="0" cc124="0" cc31="0" cc21="0" cc91="0" cc109="0" cc32="0" cc53="0" cc60="0" cc25="0" cc64="0" cc97="0" cc55="0" cc66="0" cc0="0" cc34="0" cc106="0" cc63="0" cc43="0" cc100="0" cc76="0" cc98="0" cc4="0" cc84="0" cc44="0" cc78="0" cc14="0" cc23="0" cc11="0" cc75="0" cc87="0" cc103="0" cc107="0" cc26="0" cc1="0" cc50="0" cc86="0" cc112="0" cc16="0" cc20="0" cc82="0" cc101="0" cc113="0" cc46="0" cc96="0" cc19="0" cc119="0" cc65="0" cc108="0" cc61="0" cc12="0" cc127="0" cc52="0" cc56="0" cc6="0" cc10="0" cc102="0" cc126="0" cc29="0" cc37="0" cc24="0" cc38="0" cc39="0" cc115="0" cc40="0" cc27="0" cc33="0" cc69="0" cc18="0" cc22="0" cc77="0" cc121="0" cc35="0" cc9="0" cc73="0" cc51="0" cc48="0" cc67="0" cc57="0" cc93="0" cc80="0" cc5="0" cc28="0" cc62="0" cc104="0" cc122="0" cc49="0" cc123="0" cc42="0" cc68="0" cc74="0" cc117="0" cc3="0" cc59="0" cc99="0" cc79="0" cc72="0" cc83="0" cc120="0" cc70="0" cc89="0" cc47="0" cc92="0" cc116="0" cc125="0" cc94="0" cc7="0" cc71="0" cc17="0" cc105="0" cc111="0" cc118="0" cc8="0" cc95="0" cc54="0" cc110="0" cc114="0" cc81="0" cc13="0" cc30="0" cc58="0"/>
          <instrument name="sf2player">
            <sf2player reverbDamping="0" reverbWidth="0.5" reverbLevel="0.9" chorusNum="3" gain="0.28" chorusLevel="2" chorusDepth="8" chorusSpeed="0.3" reverbOn="0" reverbRoomSize="0.2" src="usersoundfont:FluidR3 GM.sf2" bank="128" chorusOn="0" patch="17">
              <key/>
            </sf2player>
          </instrument>
          <eldata fcut="14000" fres="0.5" ftype="0" fwet="0">
            <elvol lspd_numerator="4" dec="0.5" pdel="0" latt="0" sustain="0.5" hold="0.5" lamt="0" lspd_denominator="4" att="0" lspd="0.1" lpdel="0" x100="0" amt="0" lspd_syncmode="0" lshp="0" rel="0.1" userwavefile="" ctlenvamt="0"/>
            <elcut lspd_numerator="4" dec="0.5" pdel="0" latt="0" sustain="0.5" hold="0.5" lamt="0" lspd_denominator="4" att="0" lspd="0.1" lpdel="0" x100="0" amt="0" lspd_syncmode="0" lshp="0" rel="0.1" userwavefile="" ctlenvamt="0"/>
            <elres lspd_numerator="4" dec="0.5" pdel="0" latt="0" sustain="0.5" hold="0.5" lamt="0" lspd_denominator="4" att="0" lspd="0.1" lpdel="0" x100="0" amt="0" lspd_syncmode="0" lshp="0" rel="0.1" userwavefile="" ctlenvamt="0"/>
          </eldata>
          <chordcreator chord="0" chord-enabled="0" chordrange="1"/>
          <arpeggiator arptime_numerator="4" arpgate="100" arpcycle="0" arpdir="0" arpmode="0" arpskip="0" arptime_denominator="4" arprepeats="1" arp-enabled="0" arprange="1" arptime="200" arp="0" arpmiss="0" arptime_syncmode="0"/>
          <midiport inputchannel="0" writable="0" fixedinputvelocity="-1" fixedoutputvelocity="-1" outputprogram="1" readable="1" fixedoutputnote="-1" basevelocity="127" outputchannel="1" inports="" inputcontroller="0" outputcontroller="0"/>
          <fxchain enabled="0" numofeffects="0"/>
        </instrumenttrack>
        <midiclip muted="0" pos="1920" name="" type="1" steps="16">
          <note pos="0" vol="100" pan="0" key="36" len="24"/>
          <note pos="24" vol="100" pan="0" key="54" len="24"/>
          <note pos="48" vol="100" pan="0" key="52" len="24"/>
          <note pos="72" vol="100" pan="0" key="36" len="24"/>
          <note pos="96" vol="100" pan="0" key="42" len="24"/>
          <note pos="120" vol="100" pan="0" key="52" len="24"/>
          <note pos="144" vol="100" pan="0" key="36" len="24"/>
          <note pos="192" vol="100" pan="0" key="36" len="24"/>
          <note pos="216" vol="100" pan="0" key="54" len="24"/>
          <note pos="240" vol="100" pan="0" key="52" len="24"/>
          <note pos="264" vol="100" pan="0" key="36" len="24"/>
          <note pos="288" vol="100" pan="0" key="42" len="24"/>
          <note pos="312" vol="100" pan="0" key="52" len="24"/>
          <note pos="336" vol="100" pan="0" key="46" len="24"/>
          <note pos="336" vol="100" pan="0" key="36" len="24"/>
          <note pos="360" vol="100" pan="0" key="44" len="24"/>
        </midiclip>
        <midiclip muted="0" pos="2304" name="" type="1" steps="16">
          <note pos="0" vol="100" pan="0" key="36" len="24"/>
          <note pos="24" vol="100" pan="0" key="54" len="24"/>
          <note pos="48" vol="100" pan="0" key="52" len="24"/>
          <note pos="72" vol="100" pan="0" key="36" len="24"/>
          <note pos="96" vol="100" pan="0" key="42" len="24"/>
          <note pos="120" vol="100" pan="0" key="52" len="24"/>
          <note pos="144" vol="100" pan="0" key="36" len="24"/>
          <note pos="192" vol="100" pan="0" key="36" len="24"/>
          <note pos="216" vol="100" pan="0" key="54" len="24"/>
          <note pos="240" vol="100" pan="0" key="52" len="24"/>
          <note pos="264" vol="100" pan="0" key="36" len="24"/>
          <note pos="288" vol="100" pan="0" key="42" len="24"/>
          <note pos="312" vol="100" pan="0" key="52" len="24"/>
          <note pos="336" vol="100" pan="0" key="46" len="24"/>
          <note pos="336" vol="100" pan="0" key="36" len="24"/>
          <note pos="360" vol="100" pan="0" key="44" len="24"/>
        </midiclip>
        <midiclip muted="0" pos="2688" name="" type="1" steps="16">
          <note pos="0" vol="100" pan="0" key="36" len="24"/>
          <note pos="24" vol="100" pan="0" key="54" len="24"/>
          <note pos="48" vol="100" pan="0" key="52" len="24"/>
          <note pos="72" vol="100" pan="0" key="36" len="24"/>
          <note pos="96" vol="100" pan="0" key="42" len="24"/>
          <note pos="120" vol="100" pan="0" key="52" len="24"/>
          <note pos="144" vol="100" pan="0" key="36" len="24"/>
          <note pos="192" vol="100" pan="0" key="36" len="24"/>
          <note pos="216" vol="100" pan="0" key="54" len="24"/>
          <note pos="240" vol="100" pan="0" key="52" len="24"/>
          <note pos="264" vol="100" pan="0" key="36" len="24"/>
          <note pos="288" vol="100" pan="0" key="42" len="24"/>
          <note pos="312" vol="100" pan="0" key="52" len="24"/>
          <note pos="336" vol="100" pan="0" key="46" len="24"/>
          <note pos="336" vol="100" pan="0" key="36" len="24"/>
          <note pos="360" vol="100" pan="0" key="44" len="24"/>
        </midiclip>
        <midiclip muted="0" pos="3072" name="" type="1" steps="16">
          <note pos="0" vol="100" pan="0" key="36" len="24"/>
          <note pos="24" vol="100" pan="0" key="54" len="24"/>
          <note pos="48" vol="100" pan="0" key="52" len="24"/>
          <note pos="72" vol="100" pan="0" key="36" len="24"/>
          <note pos="96" vol="100" pan="0" key="42" len="24"/>
          <note pos="120" vol="100" pan="0" key="52" len="24"/>
          <note pos="144" vol="100" pan="0" key="36" len="24"/>
          <note pos="192" vol="100" pan="0" key="36" len="24"/>
          <note pos="216" vol="100" pan="0" key="54" len="24"/>
          <note pos="240" vol="100" pan="0" key="52" len="24"/>
          <note pos="264" vol="100" pan="0" key="36" len="24"/>
          <note pos="288" vol="100" pan="0" key="42" len="24"/>
          <note pos="312" vol="100" pan="0" key="52" len="24"/>
          <note pos="336" vol="100" pan="0" key="46" len="24"/>
          <note pos="336" vol="100" pan="0" key="36" len="24"/>
          <note pos="360" vol="100" pan="0" key="44" len="24"/>
        </midiclip>
        <midiclip muted="0" pos="1152" name="" type="1" steps="16">
          <note pos="0" vol="100" pan="0" key="36" len="24"/>
          <note pos="72" vol="100" pan="0" key="36" len="24"/>
          <note pos="144" vol="100" pan="0" key="36" len="24"/>
          <note pos="192" vol="100" pan="0" key="36" len="24"/>
          <note pos="264" vol="100" pan="0" key="36" len="24"/>
          <note pos="336" vol="100" pan="0" key="36" len="24"/>
        </midiclip>
        <midiclip muted="0" pos="1536" name="" type="1" steps="16">
          <note pos="0" vol="100" pan="0" key="36" len="24"/>
          <note pos="72" vol="100" pan="0" key="36" len="24"/>
          <note pos="144" vol="100" pan="0" key="36" len="24"/>
          <note pos="192" vol="100" pan="0" key="36" len="24"/>
          <note pos="264" vol="100" pan="0" key="36" len="24"/>
          <note pos="288" vol="100" pan="0" key="44" len="24"/>
          <note pos="312" vol="100" pan="0" key="46" len="24"/>
          <note pos="336" vol="100" pan="0" key="42" len="24"/>
          <note pos="336" vol="100" pan="0" key="36" len="24"/>
          <note pos="360" vol="100" pan="0" key="52" len="24"/>
        </midiclip>
        <midiclip muted="0" pos="3456" name="" type="1" steps="16">
          <note pos="0" vol="100" pan="0" key="36" len="24"/>
          <note pos="24" vol="100" pan="0" key="54" len="24"/>
          <note pos="48" vol="100" pan="0" key="52" len="24"/>
          <note pos="72" vol="100" pan="0" key="36" len="24"/>
          <note pos="96" vol="100" pan="0" key="42" len="24"/>
          <note pos="120" vol="100" pan="0" key="52" len="24"/>
          <note pos="144" vol="100" pan="0" key="36" len="24"/>
          <note pos="192" vol="100" pan="0" key="36" len="24"/>
          <note pos="216" vol="100" pan="0" key="54" len="24"/>
          <note pos="240" vol="100" pan="0" key="52" len="24"/>
          <note pos="264" vol="100" pan="0" key="36" len="24"/>
          <note pos="288" vol="100" pan="0" key="42" len="24"/>
          <note pos="312" vol="100" pan="0" key="52" len="24"/>
          <note pos="336" vol="100" pan="0" key="46" len="24"/>
          <note pos="336" vol="100" pan="0" key="36" len="24"/>
          <note pos="360" vol="100" pan="0" key="44" len="24"/>
        </midiclip>
        <midiclip muted="0" pos="3840" name="" type="1" steps="16">
          <note pos="0" vol="100" pan="0" key="36" len="24"/>
          <note pos="24" vol="100" pan="0" key="54" len="24"/>
          <note pos="48" vol="100" pan="0" key="52" len="24"/>
          <note pos="72" vol="100" pan="0" key="36" len="24"/>
          <note pos="96" vol="100" pan="0" key="42" len="24"/>
          <note pos="120" vol="100" pan="0" key="52" len="24"/>
          <note pos="144" vol="100" pan="0" key="36" len="24"/>
          <note pos="192" vol="100" pan="0" key="36" len="24"/>
          <note pos="216" vol="100" pan="0" key="54" len="24"/>
          <note pos="240" vol="100" pan="0" key="52" len="24"/>
          <note pos="264" vol="100" pan="0" key="36" len="24"/>
          <note pos="288" vol="100" pan="0" key="42" len="24"/>
          <note pos="312" vol="100" pan="0" key="52" len="24"/>
          <note pos="336" vol="100" pan="0" key="46" len="24"/>
          <note pos="336" vol="100" pan="0" key="36" len="24"/>
          <note pos="360" vol="100" pan="0" key="44" len="24"/>
        </midiclip>
        <midiclip muted="0" pos="4224" name="" type="1" steps="16">
          <note pos="0" vol="100" pan="0" key="36" len="24"/>
          <note pos="24" vol="100" pan="0" key="54" len="24"/>
          <note pos="48" vol="100" pan="0" key="52" len="24"/>
          <note pos="72" vol="100" pan="0" key="36" len="24"/>
          <note pos="96" vol="100" pan="0" key="42" len="24"/>
          <note pos="120" vol="100" pan="0" key="52" len="24"/>
          <note pos="144" vol="100" pan="0" key="36" len="24"/>
          <note pos="192" vol="100" pan="0" key="36" len="24"/>
          <note pos="216" vol="100" pan="0" key="54" len="24"/>
          <note pos="240" vol="100" pan="0" key="52" len="24"/>
          <note pos="264" vol="100" pan="0" key="36" len="24"/>
          <note pos="288" vol="100" pan="0" key="42" len="24"/>
          <note pos="312" vol="100" pan="0" key="52" len="24"/>
          <note pos="336" vol="100" pan="0" key="46" len="24"/>
          <note pos="336" vol="100" pan="0" key="36" len="24"/>
          <note pos="360" vol="100" pan="0" key="44" len="24"/>
        </midiclip>
        <midiclip muted="0" pos="4608" name="" type="1" steps="16">
          <note pos="0" vol="100" pan="0" key="36" len="24"/>
          <note pos="24" vol="100" pan="0" key="54" len="24"/>
          <note pos="48" vol="100" pan="0" key="52" len="24"/>
          <note pos="72" vol="100" pan="0" key="36" len="24"/>
          <note pos="96" vol="100" pan="0" key="42" len="24"/>
          <note pos="120" vol="100" pan="0" key="52" len="24"/>
          <note pos="144" vol="100" pan="0" key="36" len="24"/>
          <note pos="192" vol="100" pan="0" key="36" len="24"/>
          <note pos="216" vol="100" pan="0" key="54" len="24"/>
          <note pos="240" vol="100" pan="0" key="52" len="24"/>
          <note pos="264" vol="100" pan="0" key="36" len="24"/>
          <note pos="288" vol="100" pan="0" key="42" len="24"/>
          <note pos="312" vol="100" pan="0" key="52" len="24"/>
          <note pos="336" vol="100" pan="0" key="46" len="24"/>
          <note pos="336" vol="100" pan="0" key="36" len="24"/>
          <note pos="360" vol="100" pan="0" key="44" len="24"/>
        </midiclip>
        <midiclip muted="0" pos="6912" name="" type="1" steps="16">
          <note pos="0" vol="100" pan="0" key="36" len="12"/>
          <note pos="24" vol="100" pan="0" key="46" len="12"/>
          <note pos="48" vol="100" pan="0" key="36" len="12"/>
          <note pos="72" vol="100" pan="0" key="44" len="12"/>
          <note pos="96" vol="100" pan="0" key="36" len="12"/>
          <note pos="120" vol="100" pan="0" key="46" len="12"/>
          <note pos="144" vol="100" pan="0" key="36" len="12"/>
          <note pos="168" vol="100" pan="0" key="44" len="12"/>
          <note pos="192" vol="100" pan="0" key="36" len="12"/>
          <note pos="216" vol="100" pan="0" key="46" len="12"/>
          <note pos="240" vol="100" pan="0" key="36" len="12"/>
          <note pos="264" vol="100" pan="0" key="44" len="12"/>
          <note pos="288" vol="100" pan="0" key="36" len="12"/>
          <note pos="312" vol="100" pan="0" key="46" len="12"/>
          <note pos="312" vol="100" pan="0" key="36" len="12"/>
          <note pos="324" vol="100" pan="0" key="36" len="12"/>
          <note pos="336" vol="100" pan="0" key="36" len="12"/>
          <note pos="360" vol="100" pan="0" key="44" len="12"/>
          <note pos="360" vol="100" pan="0" key="36" len="12"/>
        </midiclip>
        <midiclip muted="0" pos="7296" name="" type="1" steps="16">
          <note pos="0" vol="100" pan="0" key="36" len="12"/>
          <note pos="24" vol="100" pan="0" key="46" len="12"/>
          <note pos="48" vol="100" pan="0" key="36" len="12"/>
          <note pos="72" vol="100" pan="0" key="44" len="12"/>
          <note pos="96" vol="100" pan="0" key="36" len="12"/>
          <note pos="120" vol="100" pan="0" key="46" len="12"/>
          <note pos="144" vol="100" pan="0" key="36" len="12"/>
          <note pos="168" vol="100" pan="0" key="44" len="12"/>
          <note pos="192" vol="100" pan="0" key="36" len="12"/>
          <note pos="216" vol="100" pan="0" key="46" len="12"/>
          <note pos="240" vol="100" pan="0" key="36" len="12"/>
          <note pos="264" vol="100" pan="0" key="44" len="12"/>
          <note pos="288" vol="100" pan="0" key="36" len="12"/>
          <note pos="312" vol="100" pan="0" key="46" len="12"/>
          <note pos="312" vol="100" pan="0" key="36" len="12"/>
          <note pos="324" vol="100" pan="0" key="36" len="12"/>
          <note pos="336" vol="100" pan="0" key="36" len="12"/>
          <note pos="360" vol="100" pan="0" key="44" len="12"/>
          <note pos="360" vol="100" pan="0" key="36" len="12"/>
        </midiclip>
        <midiclip muted="0" pos="7680" name="" type="1" steps="16">
          <note pos="0" vol="100" pan="0" key="36" len="12"/>
          <note pos="24" vol="100" pan="0" key="46" len="12"/>
          <note pos="48" vol="100" pan="0" key="36" len="12"/>
          <note pos="72" vol="100" pan="0" key="44" len="12"/>
          <note pos="96" vol="100" pan="0" key="36" len="12"/>
          <note pos="120" vol="100" pan="0" key="46" len="12"/>
          <note pos="144" vol="100" pan="0" key="36" len="12"/>
          <note pos="168" vol="100" pan="0" key="44" len="12"/>
          <note pos="192" vol="100" pan="0" key="36" len="12"/>
          <note pos="216" vol="100" pan="0" key="46" len="12"/>
          <note pos="240" vol="100" pan="0" key="36" len="12"/>
          <note pos="264" vol="100" pan="0" key="44" len="12"/>
          <note pos="288" vol="100" pan="0" key="36" len="12"/>
          <note pos="312" vol="100" pan="0" key="46" len="12"/>
          <note pos="312" vol="100" pan="0" key="36" len="12"/>
          <note pos="324" vol="100" pan="0" key="36" len="12"/>
          <note pos="336" vol="100" pan="0" key="36" len="12"/>
          <note pos="360" vol="100" pan="0" key="44" len="12"/>
          <note pos="360" vol="100" pan="0" key="36" len="12"/>
        </midiclip>
        <midiclip muted="0" pos="8064" name="" type="1" steps="16">
          <note pos="0" vol="100" pan="0" key="36" len="12"/>
          <note pos="24" vol="100" pan="0" key="46" len="12"/>
          <note pos="48" vol="100" pan="0" key="36" len="12"/>
          <note pos="72" vol="100" pan="0" key="44" len="12"/>
          <note pos="96" vol="100" pan="0" key="36" len="12"/>
          <note pos="120" vol="100" pan="0" key="46" len="12"/>
          <note pos="144" vol="100" pan="0" key="36" len="12"/>
          <note pos="168" vol="100" pan="0" key="44" len="12"/>
          <note pos="192" vol="100" pan="0" key="36" len="12"/>
          <note pos="216" vol="100" pan="0" key="46" len="12"/>
          <note pos="240" vol="100" pan="0" key="36" len="12"/>
          <note pos="264" vol="100" pan="0" key="44" len="12"/>
          <note pos="288" vol="100" pan="0" key="36" len="12"/>
          <note pos="312" vol="100" pan="0" key="46" len="12"/>
          <note pos="312" vol="100" pan="0" key="36" len="12"/>
          <note pos="324" vol="100" pan="0" key="36" len="12"/>
          <note pos="336" vol="100" pan="0" key="36" len="12"/>
          <note pos="360" vol="100" pan="0" key="44" len="12"/>
          <note pos="360" vol="100" pan="0" key="36" len="12"/>
        </midiclip>
        <midiclip muted="0" pos="8448" name="" type="1" steps="16">
          <note pos="0" vol="100" pan="0" key="36" len="24"/>
          <note pos="24" vol="100" pan="0" key="54" len="24"/>
          <note pos="48" vol="100" pan="0" key="52" len="24"/>
          <note pos="72" vol="100" pan="0" key="36" len="24"/>
          <note pos="96" vol="100" pan="0" key="42" len="24"/>
          <note pos="120" vol="100" pan="0" key="52" len="24"/>
          <note pos="144" vol="100" pan="0" key="36" len="24"/>
          <note pos="192" vol="100" pan="0" key="36" len="24"/>
          <note pos="216" vol="100" pan="0" key="54" len="24"/>
          <note pos="240" vol="100" pan="0" key="52" len="24"/>
          <note pos="264" vol="100" pan="0" key="36" len="24"/>
          <note pos="288" vol="100" pan="0" key="42" len="24"/>
          <note pos="312" vol="100" pan="0" key="52" len="24"/>
          <note pos="336" vol="100" pan="0" key="46" len="24"/>
          <note pos="336" vol="100" pan="0" key="36" len="24"/>
          <note pos="360" vol="100" pan="0" key="44" len="24"/>
        </midiclip>
        <midiclip muted="0" pos="8832" name="" type="1" steps="16">
          <note pos="0" vol="100" pan="0" key="36" len="24"/>
          <note pos="24" vol="100" pan="0" key="54" len="24"/>
          <note pos="48" vol="100" pan="0" key="52" len="24"/>
          <note pos="72" vol="100" pan="0" key="36" len="24"/>
          <note pos="96" vol="100" pan="0" key="42" len="24"/>
          <note pos="120" vol="100" pan="0" key="52" len="24"/>
          <note pos="144" vol="100" pan="0" key="36" len="24"/>
          <note pos="192" vol="100" pan="0" key="36" len="24"/>
          <note pos="216" vol="100" pan="0" key="54" len="24"/>
          <note pos="240" vol="100" pan="0" key="52" len="24"/>
          <note pos="264" vol="100" pan="0" key="36" len="24"/>
          <note pos="288" vol="100" pan="0" key="42" len="24"/>
          <note pos="312" vol="100" pan="0" key="52" len="24"/>
          <note pos="336" vol="100" pan="0" key="46" len="24"/>
          <note pos="336" vol="100" pan="0" key="36" len="24"/>
          <note pos="360" vol="100" pan="0" key="44" len="24"/>
        </midiclip>
        <midiclip muted="0" pos="9216" name="" type="1" steps="16">
          <note pos="0" vol="100" pan="0" key="36" len="24"/>
          <note pos="24" vol="100" pan="0" key="54" len="24"/>
          <note pos="48" vol="100" pan="0" key="52" len="24"/>
          <note pos="72" vol="100" pan="0" key="36" len="24"/>
          <note pos="96" vol="100" pan="0" key="42" len="24"/>
          <note pos="120" vol="100" pan="0" key="52" len="24"/>
          <note pos="144" vol="100" pan="0" key="36" len="24"/>
          <note pos="192" vol="100" pan="0" key="36" len="24"/>
          <note pos="216" vol="100" pan="0" key="54" len="24"/>
          <note pos="240" vol="100" pan="0" key="52" len="24"/>
          <note pos="264" vol="100" pan="0" key="36" len="24"/>
          <note pos="288" vol="100" pan="0" key="42" len="24"/>
          <note pos="312" vol="100" pan="0" key="52" len="24"/>
          <note pos="336" vol="100" pan="0" key="46" len="24"/>
          <note pos="336" vol="100" pan="0" key="36" len="24"/>
          <note pos="360" vol="100" pan="0" key="44" len="24"/>
        </midiclip>
        <midiclip muted="0" pos="9600" name="" type="1" steps="16">
          <note pos="0" vol="100" pan="0" key="36" len="24"/>
          <note pos="24" vol="100" pan="0" key="54" len="24"/>
          <note pos="48" vol="100" pan="0" key="52" len="24"/>
          <note pos="72" vol="100" pan="0" key="36" len="24"/>
          <note pos="96" vol="100" pan="0" key="42" len="24"/>
          <note pos="120" vol="100" pan="0" key="52" len="24"/>
          <note pos="144" vol="100" pan="0" key="36" len="24"/>
          <note pos="192" vol="100" pan="0" key="36" len="24"/>
          <note pos="216" vol="100" pan="0" key="54" len="24"/>
          <note pos="240" vol="100" pan="0" key="52" len="24"/>
          <note pos="264" vol="100" pan="0" key="36" len="24"/>
          <note pos="288" vol="100" pan="0" key="42" len="24"/>
          <note pos="312" vol="100" pan="0" key="52" len="24"/>
          <note pos="336" vol="100" pan="0" key="46" len="24"/>
          <note pos="336" vol="100" pan="0" key="36" len="24"/>
          <note pos="360" vol="100" pan="0" key="44" len="24"/>
        </midiclip>
        <midiclip muted="0" pos="9984" name="" type="1" steps="16">
          <note pos="0" vol="100" pan="0" key="36" len="24"/>
          <note pos="24" vol="100" pan="0" key="54" len="24"/>
          <note pos="48" vol="100" pan="0" key="52" len="24"/>
          <note pos="72" vol="100" pan="0" key="36" len="24"/>
          <note pos="96" vol="100" pan="0" key="42" len="24"/>
          <note pos="120" vol="100" pan="0" key="52" len="24"/>
          <note pos="144" vol="100" pan="0" key="36" len="24"/>
          <note pos="192" vol="100" pan="0" key="36" len="24"/>
          <note pos="216" vol="100" pan="0" key="54" len="24"/>
          <note pos="240" vol="100" pan="0" key="52" len="24"/>
          <note pos="264" vol="100" pan="0" key="36" len="24"/>
          <note pos="288" vol="100" pan="0" key="42" len="24"/>
          <note pos="312" vol="100" pan="0" key="52" len="24"/>
          <note pos="336" vol="100" pan="0" key="46" len="24"/>
          <note pos="336" vol="100" pan="0" key="36" len="24"/>
          <note pos="360" vol="100" pan="0" key="44" len="24"/>
        </midiclip>
        <midiclip muted="0" pos="10368" name="" type="1" steps="16">
          <note pos="0" vol="100" pan="0" key="36" len="24"/>
          <note pos="24" vol="100" pan="0" key="54" len="24"/>
          <note pos="48" vol="100" pan="0" key="52" len="24"/>
          <note pos="72" vol="100" pan="0" key="36" len="24"/>
          <note pos="96" vol="100" pan="0" key="42" len="24"/>
          <note pos="120" vol="100" pan="0" key="52" len="24"/>
          <note pos="144" vol="100" pan="0" key="36" len="24"/>
          <note pos="192" vol="100" pan="0" key="36" len="24"/>
          <note pos="216" vol="100" pan="0" key="54" len="24"/>
          <note pos="240" vol="100" pan="0" key="52" len="24"/>
          <note pos="264" vol="100" pan="0" key="36" len="24"/>
          <note pos="288" vol="100" pan="0" key="42" len="24"/>
          <note pos="312" vol="100" pan="0" key="52" len="24"/>
          <note pos="336" vol="100" pan="0" key="46" len="24"/>
          <note pos="336" vol="100" pan="0" key="36" len="24"/>
          <note pos="360" vol="100" pan="0" key="44" len="24"/>
        </midiclip>
        <midiclip muted="0" pos="10752" name="" type="1" steps="16">
          <note pos="0" vol="100" pan="0" key="36" len="24"/>
          <note pos="24" vol="100" pan="0" key="54" len="24"/>
          <note pos="48" vol="100" pan="0" key="52" len="24"/>
          <note pos="72" vol="100" pan="0" key="36" len="24"/>
          <note pos="96" vol="100" pan="0" key="42" len="24"/>
          <note pos="120" vol="100" pan="0" key="52" len="24"/>
          <note pos="144" vol="100" pan="0" key="36" len="24"/>
          <note pos="192" vol="100" pan="0" key="36" len="24"/>
          <note pos="216" vol="100" pan="0" key="54" len="24"/>
          <note pos="240" vol="100" pan="0" key="52" len="24"/>
          <note pos="264" vol="100" pan="0" key="36" len="24"/>
          <note pos="288" vol="100" pan="0" key="42" len="24"/>
          <note pos="312" vol="100" pan="0" key="52" len="24"/>
          <note pos="336" vol="100" pan="0" key="46" len="24"/>
          <note pos="336" vol="100" pan="0" key="36" len="24"/>
          <note pos="360" vol="100" pan="0" key="44" len="24"/>
        </midiclip>
        <midiclip muted="0" pos="11136" name="" type="1" steps="16">
          <note pos="0" vol="100" pan="0" key="36" len="24"/>
          <note pos="24" vol="100" pan="0" key="54" len="24"/>
          <note pos="48" vol="100" pan="0" key="52" len="24"/>
          <note pos="72" vol="100" pan="0" key="36" len="24"/>
          <note pos="96" vol="100" pan="0" key="42" len="24"/>
          <note pos="120" vol="100" pan="0" key="52" len="24"/>
          <note pos="144" vol="100" pan="0" key="36" len="24"/>
          <note pos="192" vol="100" pan="0" key="36" len="24"/>
          <note pos="216" vol="100" pan="0" key="54" len="24"/>
          <note pos="240" vol="100" pan="0" key="52" len="24"/>
          <note pos="264" vol="100" pan="0" key="36" len="24"/>
          <note pos="288" vol="100" pan="0" key="42" len="24"/>
          <note pos="312" vol="100" pan="0" key="52" len="24"/>
          <note pos="336" vol="100" pan="0" key="46" len="24"/>
          <note pos="336" vol="100" pan="0" key="36" len="24"/>
          <note pos="360" vol="100" pan="0" key="44" len="24"/>
        </midiclip>
      </track>
      <track muted="0" mutedBeforeSolo="0" name="Drums>Crash" trackheight="32" type="0" solo="0">
        <instrumenttrack pitchrange="1" usemasterpitch="0" vol="100" keymap="0" pan="0" basenote="69" enablecc="0" enabled="0" firstkey="52" range_import="1" mixch="4" lastkey="54" scale="0" pitch="-100">
          <midicontrollers cc36="0" cc15="0" cc90="0" cc2="0" cc41="0" cc85="0" cc45="0" cc88="0" cc124="0" cc31="0" cc21="0" cc91="0" cc109="0" cc32="0" cc53="0" cc60="0" cc25="0" cc64="0" cc97="0" cc55="0" cc66="0" cc0="0" cc34="0" cc106="0" cc63="0" cc43="0" cc100="0" cc76="0" cc98="0" cc4="0" cc84="0" cc44="0" cc78="0" cc14="0" cc23="0" cc11="0" cc75="0" cc87="0" cc103="0" cc107="0" cc26="0" cc1="0" cc50="0" cc86="0" cc112="0" cc16="0" cc20="0" cc82="0" cc101="0" cc113="0" cc46="0" cc96="0" cc19="0" cc119="0" cc65="0" cc108="0" cc61="0" cc12="0" cc127="0" cc52="0" cc56="0" cc6="0" cc10="0" cc102="0" cc126="0" cc29="0" cc37="0" cc24="0" cc38="0" cc39="0" cc115="0" cc40="0" cc27="0" cc33="0" cc69="0" cc18="0" cc22="0" cc77="0" cc121="0" cc35="0" cc9="0" cc73="0" cc51="0" cc48="0" cc67="0" cc57="0" cc93="0" cc80="0" cc5="0" cc28="0" cc62="0" cc104="0" cc122="0" cc49="0" cc123="0" cc42="0" cc68="0" cc74="0" cc117="0" cc3="0" cc59="0" cc99="0" cc79="0" cc72="0" cc83="0" cc120="0" cc70="0" cc89="0" cc47="0" cc92="0" cc116="0" cc125="0" cc94="0" cc7="0" cc71="0" cc17="0" cc105="0" cc111="0" cc118="0" cc8="0" cc95="0" cc54="0" cc110="0" cc114="0" cc81="0" cc13="0" cc30="0" cc58="0"/>
          <instrument name="sf2player">
            <sf2player reverbDamping="0" reverbWidth="0.5" reverbLevel="0.9" chorusNum="3" gain="0.22" chorusLevel="2" chorusDepth="8" chorusSpeed="0.3" reverbOn="0" reverbRoomSize="0.2" src="usersoundfont:FluidR3 GM.sf2" bank="128" chorusOn="0" patch="17">
              <key/>
            </sf2player>
          </instrument>
          <eldata fcut="14000" fres="0.5" ftype="0" fwet="0">
            <elvol lspd_numerator="4" dec="0.5" pdel="0" latt="0" sustain="0.5" hold="0.5" lamt="0" lspd_denominator="4" att="0" lspd="0.1" lpdel="0" x100="0" amt="0" lspd_syncmode="0" lshp="0" rel="0.1" userwavefile="" ctlenvamt="0"/>
            <elcut lspd_numerator="4" dec="0.5" pdel="0" latt="0" sustain="0.5" hold="0.5" lamt="0" lspd_denominator="4" att="0" lspd="0.1" lpdel="0" x100="0" amt="0" lspd_syncmode="0" lshp="0" rel="0.1" userwavefile="" ctlenvamt="0"/>
            <elres lspd_numerator="4" dec="0.5" pdel="0" latt="0" sustain="0.5" hold="0.5" lamt="0" lspd_denominator="4" att="0" lspd="0.1" lpdel="0" x100="0" amt="0" lspd_syncmode="0" lshp="0" rel="0.1" userwavefile="" ctlenvamt="0"/>
          </eldata>
          <chordcreator chord="0" chord-enabled="0" chordrange="1"/>
          <arpeggiator arptime_numerator="4" arpgate="100" arpcycle="0" arpdir="0" arpmode="0" arpskip="0" arptime_denominator="4" arprepeats="1" arp-enabled="0" arprange="1" arptime="200" arp="0" arpmiss="0" arptime_syncmode="0"/>
          <midiport inputchannel="0" writable="0" fixedinputvelocity="-1" fixedoutputvelocity="-1" outputprogram="1" readable="1" fixedoutputnote="-1" basevelocity="127" outputchannel="1" inports="" inputcontroller="0" outputcontroller="0"/>
          <fxchain enabled="0" numofeffects="0"/>
        </instrumenttrack>
        <midiclip muted="0" pos="1920" name="" type="1" steps="16">
          <note pos="0" vol="100" pan="0" key="36" len="24"/>
          <note pos="24" vol="100" pan="0" key="54" len="24"/>
          <note pos="48" vol="100" pan="0" key="52" len="24"/>
          <note pos="72" vol="100" pan="0" key="36" len="24"/>
          <note pos="96" vol="100" pan="0" key="42" len="24"/>
          <note pos="120" vol="100" pan="0" key="52" len="24"/>
          <note pos="144" vol="100" pan="0" key="36" len="24"/>
          <note pos="192" vol="100" pan="0" key="36" len="24"/>
          <note pos="216" vol="100" pan="0" key="54" len="24"/>
          <note pos="240" vol="100" pan="0" key="52" len="24"/>
          <note pos="264" vol="100" pan="0" key="36" len="24"/>
          <note pos="288" vol="100" pan="0" key="42" len="24"/>
          <note pos="312" vol="100" pan="0" key="52" len="24"/>
          <note pos="336" vol="100" pan="0" key="46" len="24"/>
          <note pos="336" vol="100" pan="0" key="36" len="24"/>
          <note pos="360" vol="100" pan="0" key="44" len="24"/>
        </midiclip>
        <midiclip muted="0" pos="2304" name="" type="1" steps="16">
          <note pos="0" vol="100" pan="0" key="36" len="24"/>
          <note pos="24" vol="100" pan="0" key="54" len="24"/>
          <note pos="48" vol="100" pan="0" key="52" len="24"/>
          <note pos="72" vol="100" pan="0" key="36" len="24"/>
          <note pos="96" vol="100" pan="0" key="42" len="24"/>
          <note pos="120" vol="100" pan="0" key="52" len="24"/>
          <note pos="144" vol="100" pan="0" key="36" len="24"/>
          <note pos="192" vol="100" pan="0" key="36" len="24"/>
          <note pos="216" vol="100" pan="0" key="54" len="24"/>
          <note pos="240" vol="100" pan="0" key="52" len="24"/>
          <note pos="264" vol="100" pan="0" key="36" len="24"/>
          <note pos="288" vol="100" pan="0" key="42" len="24"/>
          <note pos="312" vol="100" pan="0" key="52" len="24"/>
          <note pos="336" vol="100" pan="0" key="46" len="24"/>
          <note pos="336" vol="100" pan="0" key="36" len="24"/>
          <note pos="360" vol="100" pan="0" key="44" len="24"/>
        </midiclip>
        <midiclip muted="0" pos="2688" name="" type="1" steps="16">
          <note pos="0" vol="100" pan="0" key="36" len="24"/>
          <note pos="24" vol="100" pan="0" key="54" len="24"/>
          <note pos="48" vol="100" pan="0" key="52" len="24"/>
          <note pos="72" vol="100" pan="0" key="36" len="24"/>
          <note pos="96" vol="100" pan="0" key="42" len="24"/>
          <note pos="120" vol="100" pan="0" key="52" len="24"/>
          <note pos="144" vol="100" pan="0" key="36" len="24"/>
          <note pos="192" vol="100" pan="0" key="36" len="24"/>
          <note pos="216" vol="100" pan="0" key="54" len="24"/>
          <note pos="240" vol="100" pan="0" key="52" len="24"/>
          <note pos="264" vol="100" pan="0" key="36" len="24"/>
          <note pos="288" vol="100" pan="0" key="42" len="24"/>
          <note pos="312" vol="100" pan="0" key="52" len="24"/>
          <note pos="336" vol="100" pan="0" key="46" len="24"/>
          <note pos="336" vol="100" pan="0" key="36" len="24"/>
          <note pos="360" vol="100" pan="0" key="44" len="24"/>
        </midiclip>
        <midiclip muted="0" pos="3072" name="" type="1" steps="16">
          <note pos="0" vol="100" pan="0" key="36" len="24"/>
          <note pos="24" vol="100" pan="0" key="54" len="24"/>
          <note pos="48" vol="100" pan="0" key="52" len="24"/>
          <note pos="72" vol="100" pan="0" key="36" len="24"/>
          <note pos="96" vol="100" pan="0" key="42" len="24"/>
          <note pos="120" vol="100" pan="0" key="52" len="24"/>
          <note pos="144" vol="100" pan="0" key="36" len="24"/>
          <note pos="192" vol="100" pan="0" key="36" len="24"/>
          <note pos="216" vol="100" pan="0" key="54" len="24"/>
          <note pos="240" vol="100" pan="0" key="52" len="24"/>
          <note pos="264" vol="100" pan="0" key="36" len="24"/>
          <note pos="288" vol="100" pan="0" key="42" len="24"/>
          <note pos="312" vol="100" pan="0" key="52" len="24"/>
          <note pos="336" vol="100" pan="0" key="46" len="24"/>
          <note pos="336" vol="100" pan="0" key="36" len="24"/>
          <note pos="360" vol="100" pan="0" key="44" len="24"/>
        </midiclip>
        <midiclip muted="0" pos="1152" name="" type="1" steps="16">
          <note pos="0" vol="100" pan="0" key="36" len="24"/>
          <note pos="72" vol="100" pan="0" key="36" len="24"/>
          <note pos="144" vol="100" pan="0" key="36" len="24"/>
          <note pos="192" vol="100" pan="0" key="36" len="24"/>
          <note pos="264" vol="100" pan="0" key="36" len="24"/>
          <note pos="336" vol="100" pan="0" key="36" len="24"/>
        </midiclip>
        <midiclip muted="0" pos="1536" name="" type="1" steps="16">
          <note pos="0" vol="100" pan="0" key="36" len="24"/>
          <note pos="72" vol="100" pan="0" key="36" len="24"/>
          <note pos="144" vol="100" pan="0" key="36" len="24"/>
          <note pos="192" vol="100" pan="0" key="36" len="24"/>
          <note pos="264" vol="100" pan="0" key="36" len="24"/>
          <note pos="288" vol="100" pan="0" key="44" len="24"/>
          <note pos="312" vol="100" pan="0" key="46" len="24"/>
          <note pos="336" vol="100" pan="0" key="42" len="24"/>
          <note pos="336" vol="100" pan="0" key="36" len="24"/>
          <note pos="360" vol="100" pan="0" key="52" len="24"/>
        </midiclip>
        <midiclip muted="0" pos="3456" name="" type="1" steps="16">
          <note pos="0" vol="100" pan="0" key="36" len="24"/>
          <note pos="24" vol="100" pan="0" key="54" len="24"/>
          <note pos="48" vol="100" pan="0" key="52" len="24"/>
          <note pos="72" vol="100" pan="0" key="36" len="24"/>
          <note pos="96" vol="100" pan="0" key="42" len="24"/>
          <note pos="120" vol="100" pan="0" key="52" len="24"/>
          <note pos="144" vol="100" pan="0" key="36" len="24"/>
          <note pos="192" vol="100" pan="0" key="36" len="24"/>
          <note pos="216" vol="100" pan="0" key="54" len="24"/>
          <note pos="240" vol="100" pan="0" key="52" len="24"/>
          <note pos="264" vol="100" pan="0" key="36" len="24"/>
          <note pos="288" vol="100" pan="0" key="42" len="24"/>
          <note pos="312" vol="100" pan="0" key="52" len="24"/>
          <note pos="336" vol="100" pan="0" key="46" len="24"/>
          <note pos="336" vol="100" pan="0" key="36" len="24"/>
          <note pos="360" vol="100" pan="0" key="44" len="24"/>
        </midiclip>
        <midiclip muted="0" pos="3840" name="" type="1" steps="16">
          <note pos="0" vol="100" pan="0" key="36" len="24"/>
          <note pos="24" vol="100" pan="0" key="54" len="24"/>
          <note pos="48" vol="100" pan="0" key="52" len="24"/>
          <note pos="72" vol="100" pan="0" key="36" len="24"/>
          <note pos="96" vol="100" pan="0" key="42" len="24"/>
          <note pos="120" vol="100" pan="0" key="52" len="24"/>
          <note pos="144" vol="100" pan="0" key="36" len="24"/>
          <note pos="192" vol="100" pan="0" key="36" len="24"/>
          <note pos="216" vol="100" pan="0" key="54" len="24"/>
          <note pos="240" vol="100" pan="0" key="52" len="24"/>
          <note pos="264" vol="100" pan="0" key="36" len="24"/>
          <note pos="288" vol="100" pan="0" key="42" len="24"/>
          <note pos="312" vol="100" pan="0" key="52" len="24"/>
          <note pos="336" vol="100" pan="0" key="46" len="24"/>
          <note pos="336" vol="100" pan="0" key="36" len="24"/>
          <note pos="360" vol="100" pan="0" key="44" len="24"/>
        </midiclip>
        <midiclip muted="0" pos="4224" name="" type="1" steps="16">
          <note pos="0" vol="100" pan="0" key="36" len="24"/>
          <note pos="24" vol="100" pan="0" key="54" len="24"/>
          <note pos="48" vol="100" pan="0" key="52" len="24"/>
          <note pos="72" vol="100" pan="0" key="36" len="24"/>
          <note pos="96" vol="100" pan="0" key="42" len="24"/>
          <note pos="120" vol="100" pan="0" key="52" len="24"/>
          <note pos="144" vol="100" pan="0" key="36" len="24"/>
          <note pos="192" vol="100" pan="0" key="36" len="24"/>
          <note pos="216" vol="100" pan="0" key="54" len="24"/>
          <note pos="240" vol="100" pan="0" key="52" len="24"/>
          <note pos="264" vol="100" pan="0" key="36" len="24"/>
          <note pos="288" vol="100" pan="0" key="42" len="24"/>
          <note pos="312" vol="100" pan="0" key="52" len="24"/>
          <note pos="336" vol="100" pan="0" key="46" len="24"/>
          <note pos="336" vol="100" pan="0" key="36" len="24"/>
          <note pos="360" vol="100" pan="0" key="44" len="24"/>
        </midiclip>
        <midiclip muted="0" pos="4608" name="" type="1" steps="16">
          <note pos="0" vol="100" pan="0" key="36" len="24"/>
          <note pos="24" vol="100" pan="0" key="54" len="24"/>
          <note pos="48" vol="100" pan="0" key="52" len="24"/>
          <note pos="72" vol="100" pan="0" key="36" len="24"/>
          <note pos="96" vol="100" pan="0" key="42" len="24"/>
          <note pos="120" vol="100" pan="0" key="52" len="24"/>
          <note pos="144" vol="100" pan="0" key="36" len="24"/>
          <note pos="192" vol="100" pan="0" key="36" len="24"/>
          <note pos="216" vol="100" pan="0" key="54" len="24"/>
          <note pos="240" vol="100" pan="0" key="52" len="24"/>
          <note pos="264" vol="100" pan="0" key="36" len="24"/>
          <note pos="288" vol="100" pan="0" key="42" len="24"/>
          <note pos="312" vol="100" pan="0" key="52" len="24"/>
          <note pos="336" vol="100" pan="0" key="46" len="24"/>
          <note pos="336" vol="100" pan="0" key="36" len="24"/>
          <note pos="360" vol="100" pan="0" key="44" len="24"/>
        </midiclip>
        <midiclip muted="0" pos="6912" name="" type="1" steps="16">
          <note pos="0" vol="100" pan="0" key="36" len="12"/>
          <note pos="24" vol="100" pan="0" key="46" len="12"/>
          <note pos="48" vol="100" pan="0" key="36" len="12"/>
          <note pos="72" vol="100" pan="0" key="44" len="12"/>
          <note pos="96" vol="100" pan="0" key="36" len="12"/>
          <note pos="120" vol="100" pan="0" key="46" len="12"/>
          <note pos="144" vol="100" pan="0" key="36" len="12"/>
          <note pos="168" vol="100" pan="0" key="44" len="12"/>
          <note pos="192" vol="100" pan="0" key="36" len="12"/>
          <note pos="216" vol="100" pan="0" key="46" len="12"/>
          <note pos="240" vol="100" pan="0" key="36" len="12"/>
          <note pos="264" vol="100" pan="0" key="44" len="12"/>
          <note pos="288" vol="100" pan="0" key="36" len="12"/>
          <note pos="312" vol="100" pan="0" key="46" len="12"/>
          <note pos="312" vol="100" pan="0" key="36" len="12"/>
          <note pos="324" vol="100" pan="0" key="36" len="12"/>
          <note pos="336" vol="100" pan="0" key="36" len="12"/>
          <note pos="360" vol="100" pan="0" key="44" len="12"/>
          <note pos="360" vol="100" pan="0" key="36" len="12"/>
        </midiclip>
        <midiclip muted="0" pos="7296" name="" type="1" steps="16">
          <note pos="0" vol="100" pan="0" key="36" len="12"/>
          <note pos="24" vol="100" pan="0" key="46" len="12"/>
          <note pos="48" vol="100" pan="0" key="36" len="12"/>
          <note pos="72" vol="100" pan="0" key="44" len="12"/>
          <note pos="96" vol="100" pan="0" key="36" len="12"/>
          <note pos="120" vol="100" pan="0" key="46" len="12"/>
          <note pos="144" vol="100" pan="0" key="36" len="12"/>
          <note pos="168" vol="100" pan="0" key="44" len="12"/>
          <note pos="192" vol="100" pan="0" key="36" len="12"/>
          <note pos="216" vol="100" pan="0" key="46" len="12"/>
          <note pos="240" vol="100" pan="0" key="36" len="12"/>
          <note pos="264" vol="100" pan="0" key="44" len="12"/>
          <note pos="288" vol="100" pan="0" key="36" len="12"/>
          <note pos="312" vol="100" pan="0" key="46" len="12"/>
          <note pos="312" vol="100" pan="0" key="36" len="12"/>
          <note pos="324" vol="100" pan="0" key="36" len="12"/>
          <note pos="336" vol="100" pan="0" key="36" len="12"/>
          <note pos="360" vol="100" pan="0" key="44" len="12"/>
          <note pos="360" vol="100" pan="0" key="36" len="12"/>
        </midiclip>
        <midiclip muted="0" pos="7680" name="" type="1" steps="16">
          <note pos="0" vol="100" pan="0" key="36" len="12"/>
          <note pos="24" vol="100" pan="0" key="46" len="12"/>
          <note pos="48" vol="100" pan="0" key="36" len="12"/>
          <note pos="72" vol="100" pan="0" key="44" len="12"/>
          <note pos="96" vol="100" pan="0" key="36" len="12"/>
          <note pos="120" vol="100" pan="0" key="46" len="12"/>
          <note pos="144" vol="100" pan="0" key="36" len="12"/>
          <note pos="168" vol="100" pan="0" key="44" len="12"/>
          <note pos="192" vol="100" pan="0" key="36" len="12"/>
          <note pos="216" vol="100" pan="0" key="46" len="12"/>
          <note pos="240" vol="100" pan="0" key="36" len="12"/>
          <note pos="264" vol="100" pan="0" key="44" len="12"/>
          <note pos="288" vol="100" pan="0" key="36" len="12"/>
          <note pos="312" vol="100" pan="0" key="46" len="12"/>
          <note pos="312" vol="100" pan="0" key="36" len="12"/>
          <note pos="324" vol="100" pan="0" key="36" len="12"/>
          <note pos="336" vol="100" pan="0" key="36" len="12"/>
          <note pos="360" vol="100" pan="0" key="44" len="12"/>
          <note pos="360" vol="100" pan="0" key="36" len="12"/>
        </midiclip>
        <midiclip muted="0" pos="8064" name="" type="1" steps="16">
          <note pos="0" vol="100" pan="0" key="36" len="12"/>
          <note pos="24" vol="100" pan="0" key="46" len="12"/>
          <note pos="48" vol="100" pan="0" key="36" len="12"/>
          <note pos="72" vol="100" pan="0" key="44" len="12"/>
          <note pos="96" vol="100" pan="0" key="36" len="12"/>
          <note pos="120" vol="100" pan="0" key="46" len="12"/>
          <note pos="144" vol="100" pan="0" key="36" len="12"/>
          <note pos="168" vol="100" pan="0" key="44" len="12"/>
          <note pos="192" vol="100" pan="0" key="36" len="12"/>
          <note pos="216" vol="100" pan="0" key="46" len="12"/>
          <note pos="240" vol="100" pan="0" key="36" len="12"/>
          <note pos="264" vol="100" pan="0" key="44" len="12"/>
          <note pos="288" vol="100" pan="0" key="36" len="12"/>
          <note pos="312" vol="100" pan="0" key="46" len="12"/>
          <note pos="312" vol="100" pan="0" key="36" len="12"/>
          <note pos="324" vol="100" pan="0" key="36" len="12"/>
          <note pos="336" vol="100" pan="0" key="36" len="12"/>
          <note pos="360" vol="100" pan="0" key="44" len="12"/>
          <note pos="360" vol="100" pan="0" key="36" len="12"/>
        </midiclip>
        <midiclip muted="0" pos="8448" name="" type="1" steps="16">
          <note pos="0" vol="100" pan="0" key="36" len="24"/>
          <note pos="24" vol="100" pan="0" key="54" len="24"/>
          <note pos="48" vol="100" pan="0" key="52" len="24"/>
          <note pos="72" vol="100" pan="0" key="36" len="24"/>
          <note pos="96" vol="100" pan="0" key="42" len="24"/>
          <note pos="120" vol="100" pan="0" key="52" len="24"/>
          <note pos="144" vol="100" pan="0" key="36" len="24"/>
          <note pos="192" vol="100" pan="0" key="36" len="24"/>
          <note pos="216" vol="100" pan="0" key="54" len="24"/>
          <note pos="240" vol="100" pan="0" key="52" len="24"/>
          <note pos="264" vol="100" pan="0" key="36" len="24"/>
          <note pos="288" vol="100" pan="0" key="42" len="24"/>
          <note pos="312" vol="100" pan="0" key="52" len="24"/>
          <note pos="336" vol="100" pan="0" key="46" len="24"/>
          <note pos="336" vol="100" pan="0" key="36" len="24"/>
          <note pos="360" vol="100" pan="0" key="44" len="24"/>
        </midiclip>
        <midiclip muted="0" pos="8832" name="" type="1" steps="16">
          <note pos="0" vol="100" pan="0" key="36" len="24"/>
          <note pos="24" vol="100" pan="0" key="54" len="24"/>
          <note pos="48" vol="100" pan="0" key="52" len="24"/>
          <note pos="72" vol="100" pan="0" key="36" len="24"/>
          <note pos="96" vol="100" pan="0" key="42" len="24"/>
          <note pos="120" vol="100" pan="0" key="52" len="24"/>
          <note pos="144" vol="100" pan="0" key="36" len="24"/>
          <note pos="192" vol="100" pan="0" key="36" len="24"/>
          <note pos="216" vol="100" pan="0" key="54" len="24"/>
          <note pos="240" vol="100" pan="0" key="52" len="24"/>
          <note pos="264" vol="100" pan="0" key="36" len="24"/>
          <note pos="288" vol="100" pan="0" key="42" len="24"/>
          <note pos="312" vol="100" pan="0" key="52" len="24"/>
          <note pos="336" vol="100" pan="0" key="46" len="24"/>
          <note pos="336" vol="100" pan="0" key="36" len="24"/>
          <note pos="360" vol="100" pan="0" key="44" len="24"/>
        </midiclip>
        <midiclip muted="0" pos="9216" name="" type="1" steps="16">
          <note pos="0" vol="100" pan="0" key="36" len="24"/>
          <note pos="24" vol="100" pan="0" key="54" len="24"/>
          <note pos="48" vol="100" pan="0" key="52" len="24"/>
          <note pos="72" vol="100" pan="0" key="36" len="24"/>
          <note pos="96" vol="100" pan="0" key="42" len="24"/>
          <note pos="120" vol="100" pan="0" key="52" len="24"/>
          <note pos="144" vol="100" pan="0" key="36" len="24"/>
          <note pos="192" vol="100" pan="0" key="36" len="24"/>
          <note pos="216" vol="100" pan="0" key="54" len="24"/>
          <note pos="240" vol="100" pan="0" key="52" len="24"/>
          <note pos="264" vol="100" pan="0" key="36" len="24"/>
          <note pos="288" vol="100" pan="0" key="42" len="24"/>
          <note pos="312" vol="100" pan="0" key="52" len="24"/>
          <note pos="336" vol="100" pan="0" key="46" len="24"/>
          <note pos="336" vol="100" pan="0" key="36" len="24"/>
          <note pos="360" vol="100" pan="0" key="44" len="24"/>
        </midiclip>
        <midiclip muted="0" pos="9600" name="" type="1" steps="16">
          <note pos="0" vol="100" pan="0" key="36" len="24"/>
          <note pos="24" vol="100" pan="0" key="54" len="24"/>
          <note pos="48" vol="100" pan="0" key="52" len="24"/>
          <note pos="72" vol="100" pan="0" key="36" len="24"/>
          <note pos="96" vol="100" pan="0" key="42" len="24"/>
          <note pos="120" vol="100" pan="0" key="52" len="24"/>
          <note pos="144" vol="100" pan="0" key="36" len="24"/>
          <note pos="192" vol="100" pan="0" key="36" len="24"/>
          <note pos="216" vol="100" pan="0" key="54" len="24"/>
          <note pos="240" vol="100" pan="0" key="52" len="24"/>
          <note pos="264" vol="100" pan="0" key="36" len="24"/>
          <note pos="288" vol="100" pan="0" key="42" len="24"/>
          <note pos="312" vol="100" pan="0" key="52" len="24"/>
          <note pos="336" vol="100" pan="0" key="46" len="24"/>
          <note pos="336" vol="100" pan="0" key="36" len="24"/>
          <note pos="360" vol="100" pan="0" key="44" len="24"/>
        </midiclip>
        <midiclip muted="0" pos="9984" name="" type="1" steps="16">
          <note pos="0" vol="100" pan="0" key="36" len="24"/>
          <note pos="24" vol="100" pan="0" key="54" len="24"/>
          <note pos="48" vol="100" pan="0" key="52" len="24"/>
          <note pos="72" vol="100" pan="0" key="36" len="24"/>
          <note pos="96" vol="100" pan="0" key="42" len="24"/>
          <note pos="120" vol="100" pan="0" key="52" len="24"/>
          <note pos="144" vol="100" pan="0" key="36" len="24"/>
          <note pos="192" vol="100" pan="0" key="36" len="24"/>
          <note pos="216" vol="100" pan="0" key="54" len="24"/>
          <note pos="240" vol="100" pan="0" key="52" len="24"/>
          <note pos="264" vol="100" pan="0" key="36" len="24"/>
          <note pos="288" vol="100" pan="0" key="42" len="24"/>
          <note pos="312" vol="100" pan="0" key="52" len="24"/>
          <note pos="336" vol="100" pan="0" key="46" len="24"/>
          <note pos="336" vol="100" pan="0" key="36" len="24"/>
          <note pos="360" vol="100" pan="0" key="44" len="24"/>
        </midiclip>
        <midiclip muted="0" pos="10368" name="" type="1" steps="16">
          <note pos="0" vol="100" pan="0" key="36" len="24"/>
          <note pos="24" vol="100" pan="0" key="54" len="24"/>
          <note pos="48" vol="100" pan="0" key="52" len="24"/>
          <note pos="72" vol="100" pan="0" key="36" len="24"/>
          <note pos="96" vol="100" pan="0" key="42" len="24"/>
          <note pos="120" vol="100" pan="0" key="52" len="24"/>
          <note pos="144" vol="100" pan="0" key="36" len="24"/>
          <note pos="192" vol="100" pan="0" key="36" len="24"/>
          <note pos="216" vol="100" pan="0" key="54" len="24"/>
          <note pos="240" vol="100" pan="0" key="52" len="24"/>
          <note pos="264" vol="100" pan="0" key="36" len="24"/>
          <note pos="288" vol="100" pan="0" key="42" len="24"/>
          <note pos="312" vol="100" pan="0" key="52" len="24"/>
          <note pos="336" vol="100" pan="0" key="46" len="24"/>
          <note pos="336" vol="100" pan="0" key="36" len="24"/>
          <note pos="360" vol="100" pan="0" key="44" len="24"/>
        </midiclip>
        <midiclip muted="0" pos="10752" name="" type="1" steps="16">
          <note pos="0" vol="100" pan="0" key="36" len="24"/>
          <note pos="24" vol="100" pan="0" key="54" len="24"/>
          <note pos="48" vol="100" pan="0" key="52" len="24"/>
          <note pos="72" vol="100" pan="0" key="36" len="24"/>
          <note pos="96" vol="100" pan="0" key="42" len="24"/>
          <note pos="120" vol="100" pan="0" key="52" len="24"/>
          <note pos="144" vol="100" pan="0" key="36" len="24"/>
          <note pos="192" vol="100" pan="0" key="36" len="24"/>
          <note pos="216" vol="100" pan="0" key="54" len="24"/>
          <note pos="240" vol="100" pan="0" key="52" len="24"/>
          <note pos="264" vol="100" pan="0" key="36" len="24"/>
          <note pos="288" vol="100" pan="0" key="42" len="24"/>
          <note pos="312" vol="100" pan="0" key="52" len="24"/>
          <note pos="336" vol="100" pan="0" key="46" len="24"/>
          <note pos="336" vol="100" pan="0" key="36" len="24"/>
          <note pos="360" vol="100" pan="0" key="44" len="24"/>
        </midiclip>
        <midiclip muted="0" pos="11136" name="" type="1" steps="16">
          <note pos="0" vol="100" pan="0" key="36" len="24"/>
          <note pos="24" vol="100" pan="0" key="54" len="24"/>
          <note pos="48" vol="100" pan="0" key="52" len="24"/>
          <note pos="72" vol="100" pan="0" key="36" len="24"/>
          <note pos="96" vol="100" pan="0" key="42" len="24"/>
          <note pos="120" vol="100" pan="0" key="52" len="24"/>
          <note pos="144" vol="100" pan="0" key="36" len="24"/>
          <note pos="192" vol="100" pan="0" key="36" len="24"/>
          <note pos="216" vol="100" pan="0" key="54" len="24"/>
          <note pos="240" vol="100" pan="0" key="52" len="24"/>
          <note pos="264" vol="100" pan="0" key="36" len="24"/>
          <note pos="288" vol="100" pan="0" key="42" len="24"/>
          <note pos="312" vol="100" pan="0" key="52" len="24"/>
          <note pos="336" vol="100" pan="0" key="46" len="24"/>
          <note pos="336" vol="100" pan="0" key="36" len="24"/>
          <note pos="360" vol="100" pan="0" key="44" len="24"/>
        </midiclip>
      </track>
    </trackcontainer>
    <track muted="0" mutedBeforeSolo="0" name="Automation track" type="6" solo="0">
      <automationtrack/>
      <automationclip pos="0" prog="0" tens="1" name="Numerator" mute="0" len="192"/>
      <automationclip pos="0" prog="0" tens="1" name="Denominator" mute="0" len="192"/>
      <automationclip pos="0" prog="0" tens="1" name="Tempo" mute="0" len="192"/>
      <automationclip pos="0" prog="0" tens="1" name="Master volume" mute="0" len="192"/>
      <automationclip pos="0" prog="0" tens="1" name="Master pitch" mute="0" len="192"/>
    </track>
    <mixer maximized="0" visible="1" minimized="0" x="21" width="1392" y="550" height="333">
      <mixerchannel muted="0" num="0" name="Master" soloed="0">
        <fxchain enabled="0" numofeffects="0"/>
        <volume scale_type="linear" value="0.855469" id="7004"/>
      </mixerchannel>
      <mixerchannel muted="0" num="1" volume="1" name="Piano" soloed="0">
        <fxchain enabled="1" numofeffects="1">
          <effect name="vsteffect" wet="1" autoquit_denominator="4" autoquit="1" autoquit_syncmode="0" on="1" autoquit_numerator="4" gate="0">
            <vsteffectcontrols param5="5:T.S.D.:0.38" guivisible="0" param6="6:Time:0.5" param3="3:Sync:1" param11="11:Hi Cut:0.9" param1="1:Mono:0" numparams="14" param10="10:Low Cut:1" param12="12:Mix:0.18" program="0" param13="13:Level:0.5" param0="0:Pan:0.5" param7="7:Feedback:0.9" param2="2:Type:0.5" plugin="Effects\Classic Delay\Classic Delay.dll" param9="9:Quality:0.34" param4="4:T.S.N.:0" param8="8:Ping-Pong:1"/>
            <key>
              <attribute name="file" value="Effects\Classic Delay\Classic Delay.dll"/>
            </key>
          </effect>
        </fxchain>
        <send channel="0" amount="1"/>
      </mixerchannel>
      <mixerchannel muted="0" num="2" volume="1" name="Oboe" soloed="0">
        <fxchain enabled="1" numofeffects="1">
          <effect name="vsteffect" wet="1" autoquit_denominator="4" autoquit="1" autoquit_syncmode="0" on="1" autoquit_numerator="4" gate="0">
            <vsteffectcontrols guivisible="0" param7="7:Level:0.5" param2="2:Predelay:0.5" program="0" param6="6:Mix:0.2" param1="1:Damping:0.22" numparams="8" plugin="Effects\Classic Reverb\Classic Reverb.dll" param4="4:Lo Cut:0.3" param5="5:Early Ref.:0" param0="0:Size:0.9" param3="3:Hi Damp:0.42"/>
            <key>
              <attribute name="file" value="Effects\Classic Reverb\Classic Reverb.dll"/>
            </key>
          </effect>
        </fxchain>
        <send channel="0" amount="1"/>
      </mixerchannel>
      <mixerchannel muted="0" num="3" volume="1" name="Acid" soloed="0">
        <fxchain enabled="1" numofeffects="1">
          <effect name="stereomatrix" wet="1" autoquit_denominator="4" autoquit="1" autoquit_syncmode="0" on="1" autoquit_numerator="4" gate="0">
            <stereomatrixcontrols l-l="0.5" r-l="0.5" r-r="0.5" l-r="0.5"/>
            <key/>
          </effect>
        </fxchain>
        <send channel="0" amount="1"/>
      </mixerchannel>
      <mixerchannel muted="0" num="4" volume="1" name="Drums" soloed="0">
        <fxchain enabled="1" numofeffects="1">
          <effect name="vsteffect" wet="1" autoquit_denominator="4" autoquit="1" autoquit_syncmode="0" on="1" autoquit_numerator="4" gate="0">
            <vsteffectcontrols guivisible="0" param7="7:Level:0.5" param2="2:Predelay:0.5" program="0" param6="6:Mix:0.05" param1="1:Damping:0.16" numparams="8" plugin="Effects\Classic Reverb\Classic Reverb.dll" param4="4:Lo Cut:1" param5="5:Early Ref.:0" param0="0:Size:0.93" param3="3:Hi Damp:1"/>
            <key>
              <attribute name="file" value="Effects\Classic Reverb\Classic Reverb.dll"/>
            </key>
          </effect>
        </fxchain>
        <send channel="0" amount="1"/>
      </mixerchannel>
    </mixer>
    <ControllerRackView maximized="0" visible="0" minimized="0" x="550" width="350" y="487" height="200"/>
    <pianoroll maximized="1" visible="0" minimized="0" x="59" width="1319" y="197" height="600"/>
    <automationeditor maximized="0" visible="0" minimized="0" x="1" width="860" y="1" height="400"/>
    <projectnotes maximized="0" visible="0" minimized="0" x="700" width="686" y="10" height="400"><![CDATA[<!DOCTYPE HTML PUBLIC "-//W3C//DTD HTML 4.0//EN" "http://www.w3.org/TR/REC-html40/strict.dtd">
<html><head><meta name="qrichtext" content="1" /><style type="text/css">
p, li { white-space: pre-wrap; }
</style></head><body style=" font-family:'MS Shell Dlg 2'; font-size:8.25pt; font-weight:400; font-style:normal;">
<p style=" margin-top:0px; margin-bottom:0px; margin-left:0px; margin-right:0px; -qt-block-indent:0; text-indent:0px;"><span style=" color:#e0e0e0;">&lt;&lt;&lt;&lt;&lt;&lt;</span></p></body></html>]]></projectnotes>
    <timeline stopbehaviour="1" lp0pos="0" lp1pos="13440" lpstate="1"/>
    <controllers/>
    <scales>
      <scale description="empty">
        <interval den="1" num="1"/>
      </scale>
      <scale description="empty">
        <interval den="1" num="1"/>
      </scale>
      <scale description="empty">
        <interval den="1" num="1"/>
      </scale>
      <scale description="empty">
        <interval den="1" num="1"/>
      </scale>
      <scale description="empty">
        <interval den="1" num="1"/>
      </scale>
      <scale description="empty">
        <interval den="1" num="1"/>
      </scale>
      <scale description="empty">
        <interval den="1" num="1"/>
      </scale>
      <scale description="empty">
        <interval den="1" num="1"/>
      </scale>
      <scale description="empty">
        <interval den="1" num="1"/>
      </scale>
      <scale description="empty">
        <interval den="1" num="1"/>
      </scale>
    </scales>
    <keymaps>
      <keymap first_key="0" last_key="127" middle_key="60" base_key="69" base_freq="440" description="empty"/>
      <keymap first_key="0" last_key="127" middle_key="60" base_key="69" base_freq="440" description="empty"/>
      <keymap first_key="0" last_key="127" middle_key="60" base_key="69" base_freq="440" description="empty"/>
      <keymap first_key="0" last_key="127" middle_key="60" base_key="69" base_freq="440" description="empty"/>
      <keymap first_key="0" last_key="127" middle_key="60" base_key="69" base_freq="440" description="empty"/>
      <keymap first_key="0" last_key="127" middle_key="60" base_key="69" base_freq="440" description="empty"/>
      <keymap first_key="0" last_key="127" middle_key="60" base_key="69" base_freq="440" description="empty"/>
      <keymap first_key="0" last_key="127" middle_key="60" base_key="69" base_freq="440" description="empty"/>
      <keymap first_key="0" last_key="127" middle_key="60" base_key="69" base_freq="440" description="empty"/>
      <keymap first_key="0" last_key="127" middle_key="60" base_key="69" base_freq="440" description="empty"/>
    </keymaps>
  </song>
</lmms-project>
