<?xml version="1.0"?>
<!DOCTYPE lmms-project>
<lmms-project version="31" type="song" creatorversion="1.3.0-alpha.1.847+889a2f8" creator="LMMS">
  <head timesig_numerator="4" bpm="118" masterpitch="0" mastervol="100" timesig_denominator="4"/>
  <song>
    <trackcontainer type="song" visible="1" height="455" minimized="0" x="8" maximized="0" y="8" width="900">
      <track type="1" name="Annotations" mutedBeforeSolo="0" muted="0" solo="0">
        <patterntrack>
          <trackcontainer type="patternstore" visible="0" height="300" minimized="0" x="610" maximized="0" y="5" width="736"/>
        </patterntrack>
        <patternclip autoresize="1" name="Hardship" off="0" len="3072" pos="5376" muted="0"/>
        <patternclip autoresize="1" name="Reprise" off="0" len="3072" pos="8448" muted="0"/>
        <patternclip autoresize="1" name="Lament" off="0" len="3072" pos="1920" muted="0"/>
        <patternclip autoresize="1" name="Interlude" off="0" len="384" pos="4992" muted="0"/>
        <patternclip autoresize="1" name="Outro" off="0" len="1536" pos="11520" muted="0"/>
        <patternclip autoresize="1" name="Setting the Scene" off="0" len="1920" pos="0" muted="0"/>
      </track>
      <track type="5" name="Fade" mutedBeforeSolo="0" muted="0" solo="0">
        <automationtrack/>
        <automationclip autoresize="1" name="Master>Volume" prog="0" off="0" len="192" tens="1" pos="0" mute="0">
          <time outValue="1" value="1" lockedTan="0" outTan="0" inTan="0" pos="0"/>
          <object id="21091"/>
        </automationclip>
        <automationclip autoresize="1" name="Master>Volume" prog="1" off="0" len="1536" tens="1" pos="11520" mute="0">
          <time outValue="1" value="1" lockedTan="0" outTan="-0.00065104169" inTan="0" pos="0"/>
          <time outValue="0" value="0" lockedTan="0" outTan="0" inTan="0" pos="1536"/>
          <object id="21091"/>
        </automationclip>
      </track>
      <track type="0" name="Piano" mutedBeforeSolo="0" muted="0" solo="0">
        <instrumenttrack pan="0" range_import="1" mixch="2" pitchrange="1" firstkey="0" keymap="0" usemasterpitch="1" scale="0" pitch="0" basenote="69" lastkey="127" enablecc="0" enabled="0" vol="100">
          <midicontrollers cc115="0" cc71="0" cc3="0" cc63="0" cc90="0" cc74="0" cc82="0" cc96="0" cc10="0" cc17="0" cc116="0" cc59="0" cc122="0" cc118="0" cc45="0" cc77="0" cc72="0" cc40="0" cc2="0" cc105="0" cc24="0" cc33="0" cc43="0" cc13="0" cc88="0" cc6="0" cc31="0" cc52="0" cc15="0" cc67="0" cc7="0" cc41="0" cc4="0" cc19="0" cc125="0" cc75="0" cc79="0" cc93="0" cc25="0" cc39="0" cc51="0" cc87="0" cc55="0" cc28="0" cc26="0" cc98="0" cc102="0" cc50="0" cc23="0" cc16="0" cc92="0" cc57="0" cc69="0" cc18="0" cc85="0" cc103="0" cc126="0" cc124="0" cc9="0" cc20="0" cc68="0" cc114="0" cc30="0" cc47="0" cc86="0" cc97="0" cc5="0" cc73="0" cc60="0" cc108="0" cc66="0" cc58="0" cc121="0" cc49="0" cc99="0" cc65="0" cc83="0" cc35="0" cc94="0" cc44="0" cc112="0" cc37="0" cc64="0" cc84="0" cc14="0" cc38="0" cc32="0" cc62="0" cc78="0" cc54="0" cc34="0" cc117="0" cc76="0" cc127="0" cc89="0" cc0="0" cc100="0" cc109="0" cc111="0" cc29="0" cc95="0" cc70="0" cc91="0" cc27="0" cc81="0" cc120="0" cc1="0" cc42="0" cc113="0" cc22="0" cc80="0" cc110="0" cc8="0" cc46="0" cc12="0" cc53="0" cc11="0" cc21="0" cc36="0" cc56="0" cc101="0" cc106="0" cc61="0" cc48="0" cc123="0" cc104="0" cc119="0" cc107="0"/>
          <instrument name="sf2player">
            <sf2player reverbWidth="0.5" reverbLevel="0.89999998" chorusDepth="8" src="usersoundfont:SGM-V2.01.sf2" chorusOn="0" bank="0" chorusSpeed="0.30000001" chorusNum="3" reverbOn="0" gain="0.36000001" patch="5" reverbRoomSize="0.2" chorusLevel="2" reverbDamping="0">
              <key/>
            </sf2player>
          </instrument>
          <eldata ftype="0" fres="0.5" fcut="14000" fwet="0">
            <elvol pdel="0" lshp="0" lspd_numerator="4" rel="0.1" ctlenvamt="0" lspd_denominator="4" dec="0.5" hold="0.5" lamt="0" lpdel="0" x100="0" userwavefile="" amt="0" latt="0" sustain="0.5" lspd_syncmode="0" att="0" lspd="0.1"/>
            <elcut pdel="0" lshp="0" lspd_numerator="4" rel="0.1" ctlenvamt="0" lspd_denominator="4" dec="0.5" hold="0.5" lamt="0" lpdel="0" x100="0" userwavefile="" amt="0" latt="0" sustain="0.5" lspd_syncmode="0" att="0" lspd="0.1"/>
            <elres pdel="0" lshp="0" lspd_numerator="4" rel="0.1" ctlenvamt="0" lspd_denominator="4" dec="0.5" hold="0.5" lamt="0" lpdel="0" x100="0" userwavefile="" amt="0" latt="0" sustain="0.5" lspd_syncmode="0" att="0" lspd="0.1"/>
          </eldata>
          <chordcreator chord="0" chordrange="1" chord-enabled="0"/>
          <arpeggiator arprange="1" arpdir="0" arpskip="0" arpmode="0" arpmiss="0" arptime="200" arpgate="100" arptime_numerator="4" arp-enabled="0" arpcycle="0" arptime_denominator="4" arptime_syncmode="0" arprepeats="1" arp="0"/>
          <midiport inputcontroller="0" fixedoutputvelocity="-1" readable="1" fixedoutputnote="-1" basevelocity="127" fixedinputvelocity="-1" inports="" inputchannel="0" outputchannel="1" writable="0" outputcontroller="0" outputprogram="1"/>
          <fxchain numofeffects="0" enabled="0"/>
        </instrumenttrack>
        <midiclip type="1" autoresize="1" name="" off="0" len="768" pos="384" muted="0" steps="16">
          <note pan="0" type="0" len="384" pos="0" key="60" vol="100"/>
          <note pan="0" type="0" len="384" pos="0" key="57" vol="100"/>
          <note pan="0" type="0" len="384" pos="0" key="53" vol="100"/>
          <note pan="0" type="0" len="384" pos="0" key="50" vol="100"/>
          <note pan="0" type="0" len="192" pos="384" key="62" vol="100"/>
          <note pan="0" type="0" len="192" pos="384" key="59" vol="100"/>
          <note pan="0" type="0" len="192" pos="384" key="57" vol="100"/>
          <note pan="0" type="0" len="192" pos="384" key="53" vol="100"/>
          <note pan="0" type="0" len="192" pos="576" key="64" vol="100"/>
          <note pan="0" type="0" len="192" pos="576" key="60" vol="100"/>
          <note pan="0" type="0" len="192" pos="576" key="57" vol="100"/>
          <note pan="0" type="0" len="192" pos="576" key="55" vol="100"/>
        </midiclip>
        <midiclip type="1" autoresize="1" name="" off="0" len="768" pos="1152" muted="0" steps="16">
          <note pan="0" type="0" len="384" pos="0" key="60" vol="100"/>
          <note pan="0" type="0" len="384" pos="0" key="57" vol="100"/>
          <note pan="0" type="0" len="384" pos="0" key="55" vol="100"/>
          <note pan="0" type="0" len="384" pos="0" key="50" vol="100"/>
          <note pan="0" type="0" len="192" pos="384" key="62" vol="100"/>
          <note pan="0" type="0" len="192" pos="384" key="59" vol="100"/>
          <note pan="0" type="0" len="192" pos="384" key="57" vol="100"/>
          <note pan="0" type="0" len="192" pos="384" key="53" vol="100"/>
          <note pan="0" type="0" len="192" pos="576" key="60" vol="100"/>
          <note pan="0" type="0" len="192" pos="576" key="57" vol="100"/>
          <note pan="0" type="0" len="192" pos="576" key="55" vol="100"/>
          <note pan="0" type="0" len="192" pos="576" key="52" vol="100"/>
        </midiclip>
        <midiclip type="1" autoresize="1" name="" off="0" len="384" pos="4992" muted="0" steps="16">
          <note pan="0" type="0" len="384" pos="0" key="60" vol="100"/>
          <note pan="0" type="0" len="384" pos="0" key="57" vol="100"/>
          <note pan="0" type="0" len="384" pos="0" key="53" vol="100"/>
          <note pan="0" type="0" len="384" pos="0" key="50" vol="100"/>
        </midiclip>
        <midiclip type="1" autoresize="1" name="" off="0" len="384" pos="11520" muted="0" steps="16">
          <note pan="0" type="0" len="384" pos="0" key="60" vol="100"/>
          <note pan="0" type="0" len="384" pos="0" key="57" vol="100"/>
          <note pan="0" type="0" len="384" pos="0" key="53" vol="100"/>
          <note pan="0" type="0" len="384" pos="0" key="50" vol="100"/>
        </midiclip>
        <midiclip type="1" autoresize="1" name="" off="0" len="384" pos="11904" muted="0" steps="16">
          <note pan="0" type="0" len="384" pos="0" key="60" vol="100"/>
          <note pan="0" type="0" len="384" pos="0" key="57" vol="100"/>
          <note pan="0" type="0" len="384" pos="0" key="53" vol="100"/>
          <note pan="0" type="0" len="384" pos="0" key="50" vol="100"/>
        </midiclip>
        <midiclip type="1" autoresize="1" name="" off="0" len="384" pos="12288" muted="0" steps="16">
          <note pan="0" type="0" len="384" pos="0" key="60" vol="100"/>
          <note pan="0" type="0" len="384" pos="0" key="57" vol="100"/>
          <note pan="0" type="0" len="384" pos="0" key="53" vol="100"/>
          <note pan="0" type="0" len="384" pos="0" key="50" vol="100"/>
        </midiclip>
        <midiclip type="1" autoresize="1" name="" off="0" len="384" pos="12672" muted="0" steps="16">
          <note pan="0" type="0" len="384" pos="0" key="60" vol="100"/>
          <note pan="0" type="0" len="384" pos="0" key="57" vol="100"/>
          <note pan="0" type="0" len="384" pos="0" key="53" vol="100"/>
          <note pan="0" type="0" len="384" pos="0" key="50" vol="100"/>
        </midiclip>
        <midiclip type="1" autoresize="1" name="" off="0" len="1536" pos="8448" muted="0" steps="16">
          <note pan="0" type="0" len="192" pos="0" key="58" vol="100"/>
          <note pan="0" type="0" len="120" pos="0" key="53" vol="100"/>
          <note pan="0" type="0" len="72" pos="0" key="50" vol="100"/>
          <note pan="0" type="0" len="24" pos="0" key="46" vol="100"/>
          <note pan="0" type="0" len="168" pos="24" key="46" vol="100"/>
          <note pan="0" type="0" len="120" pos="72" key="50" vol="100"/>
          <note pan="0" type="0" len="48" pos="120" key="53" vol="100"/>
          <note pan="0" type="0" len="24" pos="168" key="55" vol="100"/>
          <note pan="0" type="0" len="192" pos="192" key="61" vol="100"/>
          <note pan="0" type="0" len="144" pos="192" key="57" vol="100"/>
          <note pan="0" type="0" len="72" pos="192" key="55" vol="100"/>
          <note pan="0" type="0" len="24" pos="192" key="52" vol="100"/>
          <note pan="0" type="0" len="168" pos="216" key="52" vol="100"/>
          <note pan="0" type="0" len="96" pos="264" key="55" vol="100"/>
          <note pan="0" type="0" len="48" pos="336" key="57" vol="100"/>
          <note pan="0" type="0" len="24" pos="360" key="55" vol="100"/>
          <note pan="0" type="0" len="72" pos="384" key="62" vol="100"/>
          <note pan="0" type="0" len="144" pos="384" key="57" vol="100"/>
          <note pan="0" type="0" len="192" pos="384" key="53" vol="100"/>
          <note pan="0" type="0" len="24" pos="384" key="50" vol="100"/>
          <note pan="0" type="0" len="96" pos="408" key="50" vol="100"/>
          <note pan="0" type="0" len="120" pos="456" key="62" vol="100"/>
          <note pan="0" type="0" len="72" pos="504" key="50" vol="100"/>
          <note pan="0" type="0" len="24" pos="528" key="57" vol="100"/>
          <note pan="0" type="0" len="24" pos="552" key="55" vol="100"/>
          <note pan="0" type="0" len="144" pos="576" key="59" vol="100"/>
          <note pan="0" type="0" len="192" pos="576" key="57" vol="100"/>
          <note pan="0" type="0" len="120" pos="576" key="55" vol="100"/>
          <note pan="0" type="0" len="96" pos="576" key="50" vol="100"/>
          <note pan="0" type="0" len="72" pos="672" key="50" vol="100"/>
          <note pan="0" type="0" len="72" pos="696" key="55" vol="100"/>
          <note pan="0" type="0" len="48" pos="720" key="59" vol="100"/>
          <note pan="0" type="0" len="24" pos="744" key="50" vol="100"/>
          <note pan="0" type="0" len="144" pos="768" key="62" vol="100"/>
          <note pan="0" type="0" len="72" pos="768" key="58" vol="100"/>
          <note pan="0" type="0" len="192" pos="768" key="57" vol="100"/>
          <note pan="0" type="0" len="120" pos="768" key="53" vol="100"/>
          <note pan="0" type="0" len="120" pos="840" key="58" vol="100"/>
          <note pan="0" type="0" len="48" pos="888" key="53" vol="100"/>
          <note pan="0" type="0" len="48" pos="912" key="50" vol="100"/>
          <note pan="0" type="0" len="24" pos="936" key="55" vol="100"/>
          <note pan="0" type="0" len="96" pos="960" key="61" vol="100"/>
          <note pan="0" type="0" len="72" pos="960" key="57" vol="100"/>
          <note pan="0" type="0" len="132" pos="960" key="55" vol="100"/>
          <note pan="0" type="0" len="24" pos="960" key="52" vol="100"/>
          <note pan="0" type="0" len="108" pos="984" key="52" vol="100"/>
          <note pan="0" type="0" len="24" pos="1032" key="57" vol="100"/>
          <note pan="0" type="0" len="36" pos="1056" key="64" vol="100"/>
          <note pan="0" type="0" len="36" pos="1056" key="61" vol="100"/>
          <note pan="0" type="0" len="48" pos="1104" key="62" vol="100"/>
          <note pan="0" type="0" len="48" pos="1104" key="59" vol="100"/>
          <note pan="0" type="0" len="48" pos="1104" key="55" vol="100"/>
          <note pan="0" type="0" len="48" pos="1104" key="53" vol="100"/>
          <note pan="0" type="0" len="120" pos="1152" key="57" vol="100"/>
          <note pan="0" type="0" len="192" pos="1152" key="53" vol="100"/>
          <note pan="0" type="0" len="72" pos="1152" key="50" vol="100"/>
          <note pan="0" type="0" len="24" pos="1152" key="48" vol="100"/>
          <note pan="0" type="0" len="120" pos="1176" key="48" vol="100"/>
          <note pan="0" type="0" len="96" pos="1224" key="50" vol="100"/>
          <note pan="0" type="0" len="72" pos="1272" key="57" vol="100"/>
          <note pan="0" type="0" len="48" pos="1296" key="48" vol="100"/>
          <note pan="0" type="0" len="24" pos="1320" key="50" vol="100"/>
          <note pan="0" type="0" len="84" pos="1344" key="59" vol="100"/>
          <note pan="0" type="0" len="84" pos="1344" key="55" vol="100"/>
          <note pan="0" type="0" len="84" pos="1344" key="53" vol="100"/>
          <note pan="0" type="0" len="84" pos="1344" key="50" vol="100"/>
          <note pan="0" type="0" len="36" pos="1440" key="60" vol="100"/>
          <note pan="0" type="0" len="36" pos="1440" key="57" vol="100"/>
          <note pan="0" type="0" len="36" pos="1440" key="55" vol="100"/>
          <note pan="0" type="0" len="36" pos="1440" key="53" vol="100"/>
          <note pan="0" type="0" len="36" pos="1488" key="59" vol="100"/>
          <note pan="0" type="0" len="36" pos="1488" key="55" vol="100"/>
          <note pan="0" type="0" len="36" pos="1488" key="53" vol="100"/>
          <note pan="0" type="0" len="36" pos="1488" key="50" vol="100"/>
        </midiclip>
        <midiclip type="1" autoresize="1" name="" off="0" len="1536" pos="1920" muted="0" steps="16">
          <note pan="0" type="0" len="192" pos="0" key="58" vol="100"/>
          <note pan="0" type="0" len="120" pos="0" key="53" vol="100"/>
          <note pan="0" type="0" len="72" pos="0" key="50" vol="100"/>
          <note pan="0" type="0" len="24" pos="0" key="46" vol="100"/>
          <note pan="0" type="0" len="168" pos="24" key="46" vol="100"/>
          <note pan="0" type="0" len="120" pos="72" key="50" vol="100"/>
          <note pan="0" type="0" len="48" pos="120" key="53" vol="100"/>
          <note pan="0" type="0" len="24" pos="168" key="55" vol="100"/>
          <note pan="0" type="0" len="192" pos="192" key="61" vol="100"/>
          <note pan="0" type="0" len="144" pos="192" key="57" vol="100"/>
          <note pan="0" type="0" len="72" pos="192" key="55" vol="100"/>
          <note pan="0" type="0" len="24" pos="192" key="52" vol="100"/>
          <note pan="0" type="0" len="168" pos="216" key="52" vol="100"/>
          <note pan="0" type="0" len="96" pos="264" key="55" vol="100"/>
          <note pan="0" type="0" len="48" pos="336" key="57" vol="100"/>
          <note pan="0" type="0" len="24" pos="360" key="55" vol="100"/>
          <note pan="0" type="0" len="72" pos="384" key="62" vol="100"/>
          <note pan="0" type="0" len="144" pos="384" key="57" vol="100"/>
          <note pan="0" type="0" len="192" pos="384" key="53" vol="100"/>
          <note pan="0" type="0" len="24" pos="384" key="50" vol="100"/>
          <note pan="0" type="0" len="96" pos="408" key="50" vol="100"/>
          <note pan="0" type="0" len="120" pos="456" key="62" vol="100"/>
          <note pan="0" type="0" len="72" pos="504" key="50" vol="100"/>
          <note pan="0" type="0" len="24" pos="528" key="57" vol="100"/>
          <note pan="0" type="0" len="24" pos="552" key="55" vol="100"/>
          <note pan="0" type="0" len="144" pos="576" key="59" vol="100"/>
          <note pan="0" type="0" len="192" pos="576" key="57" vol="100"/>
          <note pan="0" type="0" len="120" pos="576" key="55" vol="100"/>
          <note pan="0" type="0" len="96" pos="576" key="50" vol="100"/>
          <note pan="0" type="0" len="72" pos="672" key="50" vol="100"/>
          <note pan="0" type="0" len="72" pos="696" key="55" vol="100"/>
          <note pan="0" type="0" len="48" pos="720" key="59" vol="100"/>
          <note pan="0" type="0" len="24" pos="744" key="50" vol="100"/>
          <note pan="0" type="0" len="144" pos="768" key="62" vol="100"/>
          <note pan="0" type="0" len="72" pos="768" key="58" vol="100"/>
          <note pan="0" type="0" len="192" pos="768" key="57" vol="100"/>
          <note pan="0" type="0" len="120" pos="768" key="53" vol="100"/>
          <note pan="0" type="0" len="120" pos="840" key="58" vol="100"/>
          <note pan="0" type="0" len="48" pos="888" key="53" vol="100"/>
          <note pan="0" type="0" len="48" pos="912" key="50" vol="100"/>
          <note pan="0" type="0" len="24" pos="936" key="55" vol="100"/>
          <note pan="0" type="0" len="96" pos="960" key="61" vol="100"/>
          <note pan="0" type="0" len="72" pos="960" key="57" vol="100"/>
          <note pan="0" type="0" len="132" pos="960" key="55" vol="100"/>
          <note pan="0" type="0" len="24" pos="960" key="52" vol="100"/>
          <note pan="0" type="0" len="108" pos="984" key="52" vol="100"/>
          <note pan="0" type="0" len="24" pos="1032" key="57" vol="100"/>
          <note pan="0" type="0" len="36" pos="1056" key="64" vol="100"/>
          <note pan="0" type="0" len="36" pos="1056" key="61" vol="100"/>
          <note pan="0" type="0" len="48" pos="1104" key="62" vol="100"/>
          <note pan="0" type="0" len="48" pos="1104" key="59" vol="100"/>
          <note pan="0" type="0" len="48" pos="1104" key="55" vol="100"/>
          <note pan="0" type="0" len="48" pos="1104" key="53" vol="100"/>
          <note pan="0" type="0" len="120" pos="1152" key="57" vol="100"/>
          <note pan="0" type="0" len="192" pos="1152" key="53" vol="100"/>
          <note pan="0" type="0" len="72" pos="1152" key="50" vol="100"/>
          <note pan="0" type="0" len="24" pos="1152" key="48" vol="100"/>
          <note pan="0" type="0" len="120" pos="1176" key="48" vol="100"/>
          <note pan="0" type="0" len="96" pos="1224" key="50" vol="100"/>
          <note pan="0" type="0" len="72" pos="1272" key="57" vol="100"/>
          <note pan="0" type="0" len="48" pos="1296" key="48" vol="100"/>
          <note pan="0" type="0" len="24" pos="1320" key="50" vol="100"/>
          <note pan="0" type="0" len="84" pos="1344" key="59" vol="100"/>
          <note pan="0" type="0" len="84" pos="1344" key="55" vol="100"/>
          <note pan="0" type="0" len="84" pos="1344" key="53" vol="100"/>
          <note pan="0" type="0" len="84" pos="1344" key="50" vol="100"/>
          <note pan="0" type="0" len="36" pos="1440" key="60" vol="100"/>
          <note pan="0" type="0" len="36" pos="1440" key="57" vol="100"/>
          <note pan="0" type="0" len="36" pos="1440" key="55" vol="100"/>
          <note pan="0" type="0" len="36" pos="1440" key="53" vol="100"/>
          <note pan="0" type="0" len="36" pos="1488" key="59" vol="100"/>
          <note pan="0" type="0" len="36" pos="1488" key="55" vol="100"/>
          <note pan="0" type="0" len="36" pos="1488" key="53" vol="100"/>
          <note pan="0" type="0" len="36" pos="1488" key="50" vol="100"/>
        </midiclip>
        <midiclip type="1" autoresize="1" name="" off="0" len="1536" pos="3456" muted="0" steps="16">
          <note pan="0" type="0" len="192" pos="0" key="58" vol="100"/>
          <note pan="0" type="0" len="120" pos="0" key="53" vol="100"/>
          <note pan="0" type="0" len="72" pos="0" key="50" vol="100"/>
          <note pan="0" type="0" len="24" pos="0" key="46" vol="100"/>
          <note pan="0" type="0" len="168" pos="24" key="46" vol="100"/>
          <note pan="0" type="0" len="120" pos="72" key="50" vol="100"/>
          <note pan="0" type="0" len="48" pos="120" key="53" vol="100"/>
          <note pan="0" type="0" len="24" pos="168" key="55" vol="100"/>
          <note pan="0" type="0" len="192" pos="192" key="61" vol="100"/>
          <note pan="0" type="0" len="144" pos="192" key="57" vol="100"/>
          <note pan="0" type="0" len="72" pos="192" key="55" vol="100"/>
          <note pan="0" type="0" len="24" pos="192" key="52" vol="100"/>
          <note pan="0" type="0" len="168" pos="216" key="52" vol="100"/>
          <note pan="0" type="0" len="120" pos="264" key="55" vol="100"/>
          <note pan="0" type="0" len="24" pos="336" key="57" vol="100"/>
          <note pan="0" type="0" len="24" pos="360" key="60" vol="100"/>
          <note pan="0" type="0" len="72" pos="384" key="62" vol="100"/>
          <note pan="0" type="0" len="144" pos="384" key="57" vol="100"/>
          <note pan="0" type="0" len="192" pos="384" key="53" vol="100"/>
          <note pan="0" type="0" len="24" pos="384" key="50" vol="100"/>
          <note pan="0" type="0" len="96" pos="408" key="50" vol="100"/>
          <note pan="0" type="0" len="120" pos="456" key="62" vol="100"/>
          <note pan="0" type="0" len="72" pos="504" key="50" vol="100"/>
          <note pan="0" type="0" len="24" pos="528" key="57" vol="100"/>
          <note pan="0" type="0" len="24" pos="552" key="55" vol="100"/>
          <note pan="0" type="0" len="192" pos="576" key="59" vol="100"/>
          <note pan="0" type="0" len="144" pos="576" key="57" vol="100"/>
          <note pan="0" type="0" len="120" pos="576" key="55" vol="100"/>
          <note pan="0" type="0" len="96" pos="576" key="50" vol="100"/>
          <note pan="0" type="0" len="96" pos="672" key="50" vol="100"/>
          <note pan="0" type="0" len="72" pos="696" key="55" vol="100"/>
          <note pan="0" type="0" len="48" pos="720" key="57" vol="100"/>
          <note pan="0" type="0" len="24" pos="744" key="62" vol="100"/>
          <note pan="0" type="0" len="144" pos="768" key="62" vol="100"/>
          <note pan="0" type="0" len="72" pos="768" key="58" vol="100"/>
          <note pan="0" type="0" len="192" pos="768" key="57" vol="100"/>
          <note pan="0" type="0" len="120" pos="768" key="53" vol="100"/>
          <note pan="0" type="0" len="120" pos="840" key="58" vol="100"/>
          <note pan="0" type="0" len="48" pos="888" key="53" vol="100"/>
          <note pan="0" type="0" len="48" pos="912" key="50" vol="100"/>
          <note pan="0" type="0" len="24" pos="936" key="55" vol="100"/>
          <note pan="0" type="0" len="96" pos="960" key="61" vol="100"/>
          <note pan="0" type="0" len="72" pos="960" key="57" vol="100"/>
          <note pan="0" type="0" len="132" pos="960" key="55" vol="100"/>
          <note pan="0" type="0" len="24" pos="960" key="52" vol="100"/>
          <note pan="0" type="0" len="108" pos="984" key="52" vol="100"/>
          <note pan="0" type="0" len="24" pos="1032" key="57" vol="100"/>
          <note pan="0" type="0" len="36" pos="1056" key="64" vol="100"/>
          <note pan="0" type="0" len="36" pos="1056" key="61" vol="100"/>
          <note pan="0" type="0" len="48" pos="1104" key="67" vol="100"/>
          <note pan="0" type="0" len="48" pos="1104" key="65" vol="100"/>
          <note pan="0" type="0" len="48" pos="1104" key="62" vol="100"/>
          <note pan="0" type="0" len="48" pos="1104" key="59" vol="100"/>
          <note pan="0" type="0" len="192" pos="1152" key="65" vol="100"/>
          <note pan="0" type="0" len="72" pos="1152" key="62" vol="100"/>
          <note pan="0" type="0" len="24" pos="1152" key="60" vol="100"/>
          <note pan="0" type="0" len="120" pos="1152" key="57" vol="100"/>
          <note pan="0" type="0" len="120" pos="1176" key="60" vol="100"/>
          <note pan="0" type="0" len="96" pos="1224" key="62" vol="100"/>
          <note pan="0" type="0" len="72" pos="1272" key="57" vol="100"/>
          <note pan="0" type="0" len="48" pos="1296" key="60" vol="100"/>
          <note pan="0" type="0" len="24" pos="1320" key="62" vol="100"/>
          <note pan="0" type="0" len="84" pos="1344" key="67" vol="100"/>
          <note pan="0" type="0" len="84" pos="1344" key="65" vol="100"/>
          <note pan="0" type="0" len="84" pos="1344" key="62" vol="100"/>
          <note pan="0" type="0" len="84" pos="1344" key="59" vol="100"/>
          <note pan="0" type="0" len="36" pos="1440" key="69" vol="100"/>
          <note pan="0" type="0" len="36" pos="1440" key="67" vol="100"/>
          <note pan="0" type="0" len="36" pos="1440" key="65" vol="100"/>
          <note pan="0" type="0" len="36" pos="1440" key="60" vol="100"/>
          <note pan="0" type="0" len="36" pos="1488" key="67" vol="100"/>
          <note pan="0" type="0" len="36" pos="1488" key="65" vol="100"/>
          <note pan="0" type="0" len="36" pos="1488" key="62" vol="100"/>
          <note pan="0" type="0" len="36" pos="1488" key="59" vol="100"/>
        </midiclip>
        <midiclip type="1" autoresize="1" name="" off="0" len="1536" pos="9984" muted="0" steps="16">
          <note pan="0" type="0" len="192" pos="0" key="58" vol="100"/>
          <note pan="0" type="0" len="120" pos="0" key="53" vol="100"/>
          <note pan="0" type="0" len="72" pos="0" key="50" vol="100"/>
          <note pan="0" type="0" len="24" pos="0" key="46" vol="100"/>
          <note pan="0" type="0" len="168" pos="24" key="46" vol="100"/>
          <note pan="0" type="0" len="120" pos="72" key="50" vol="100"/>
          <note pan="0" type="0" len="48" pos="120" key="53" vol="100"/>
          <note pan="0" type="0" len="24" pos="168" key="55" vol="100"/>
          <note pan="0" type="0" len="192" pos="192" key="61" vol="100"/>
          <note pan="0" type="0" len="144" pos="192" key="57" vol="100"/>
          <note pan="0" type="0" len="72" pos="192" key="55" vol="100"/>
          <note pan="0" type="0" len="24" pos="192" key="52" vol="100"/>
          <note pan="0" type="0" len="168" pos="216" key="52" vol="100"/>
          <note pan="0" type="0" len="120" pos="264" key="55" vol="100"/>
          <note pan="0" type="0" len="24" pos="336" key="57" vol="100"/>
          <note pan="0" type="0" len="24" pos="360" key="60" vol="100"/>
          <note pan="0" type="0" len="72" pos="384" key="62" vol="100"/>
          <note pan="0" type="0" len="144" pos="384" key="57" vol="100"/>
          <note pan="0" type="0" len="192" pos="384" key="53" vol="100"/>
          <note pan="0" type="0" len="24" pos="384" key="50" vol="100"/>
          <note pan="0" type="0" len="96" pos="408" key="50" vol="100"/>
          <note pan="0" type="0" len="120" pos="456" key="62" vol="100"/>
          <note pan="0" type="0" len="72" pos="504" key="50" vol="100"/>
          <note pan="0" type="0" len="24" pos="528" key="57" vol="100"/>
          <note pan="0" type="0" len="24" pos="552" key="55" vol="100"/>
          <note pan="0" type="0" len="192" pos="576" key="59" vol="100"/>
          <note pan="0" type="0" len="144" pos="576" key="57" vol="100"/>
          <note pan="0" type="0" len="120" pos="576" key="55" vol="100"/>
          <note pan="0" type="0" len="96" pos="576" key="50" vol="100"/>
          <note pan="0" type="0" len="96" pos="672" key="50" vol="100"/>
          <note pan="0" type="0" len="72" pos="696" key="55" vol="100"/>
          <note pan="0" type="0" len="48" pos="720" key="57" vol="100"/>
          <note pan="0" type="0" len="24" pos="744" key="62" vol="100"/>
          <note pan="0" type="0" len="144" pos="768" key="62" vol="100"/>
          <note pan="0" type="0" len="72" pos="768" key="58" vol="100"/>
          <note pan="0" type="0" len="192" pos="768" key="57" vol="100"/>
          <note pan="0" type="0" len="120" pos="768" key="53" vol="100"/>
          <note pan="0" type="0" len="120" pos="840" key="58" vol="100"/>
          <note pan="0" type="0" len="48" pos="888" key="53" vol="100"/>
          <note pan="0" type="0" len="48" pos="912" key="50" vol="100"/>
          <note pan="0" type="0" len="24" pos="936" key="55" vol="100"/>
          <note pan="0" type="0" len="96" pos="960" key="61" vol="100"/>
          <note pan="0" type="0" len="72" pos="960" key="57" vol="100"/>
          <note pan="0" type="0" len="132" pos="960" key="55" vol="100"/>
          <note pan="0" type="0" len="24" pos="960" key="52" vol="100"/>
          <note pan="0" type="0" len="108" pos="984" key="52" vol="100"/>
          <note pan="0" type="0" len="24" pos="1032" key="57" vol="100"/>
          <note pan="0" type="0" len="36" pos="1056" key="64" vol="100"/>
          <note pan="0" type="0" len="36" pos="1056" key="61" vol="100"/>
          <note pan="0" type="0" len="48" pos="1104" key="67" vol="100"/>
          <note pan="0" type="0" len="48" pos="1104" key="65" vol="100"/>
          <note pan="0" type="0" len="48" pos="1104" key="62" vol="100"/>
          <note pan="0" type="0" len="48" pos="1104" key="59" vol="100"/>
          <note pan="0" type="0" len="192" pos="1152" key="65" vol="100"/>
          <note pan="0" type="0" len="72" pos="1152" key="62" vol="100"/>
          <note pan="0" type="0" len="24" pos="1152" key="60" vol="100"/>
          <note pan="0" type="0" len="120" pos="1152" key="57" vol="100"/>
          <note pan="0" type="0" len="120" pos="1176" key="60" vol="100"/>
          <note pan="0" type="0" len="96" pos="1224" key="62" vol="100"/>
          <note pan="0" type="0" len="72" pos="1272" key="57" vol="100"/>
          <note pan="0" type="0" len="48" pos="1296" key="60" vol="100"/>
          <note pan="0" type="0" len="24" pos="1320" key="62" vol="100"/>
          <note pan="0" type="0" len="84" pos="1344" key="67" vol="100"/>
          <note pan="0" type="0" len="84" pos="1344" key="65" vol="100"/>
          <note pan="0" type="0" len="84" pos="1344" key="62" vol="100"/>
          <note pan="0" type="0" len="84" pos="1344" key="59" vol="100"/>
          <note pan="0" type="0" len="36" pos="1440" key="69" vol="100"/>
          <note pan="0" type="0" len="36" pos="1440" key="67" vol="100"/>
          <note pan="0" type="0" len="36" pos="1440" key="65" vol="100"/>
          <note pan="0" type="0" len="36" pos="1440" key="60" vol="100"/>
          <note pan="0" type="0" len="36" pos="1488" key="67" vol="100"/>
          <note pan="0" type="0" len="36" pos="1488" key="65" vol="100"/>
          <note pan="0" type="0" len="36" pos="1488" key="62" vol="100"/>
          <note pan="0" type="0" len="36" pos="1488" key="59" vol="100"/>
        </midiclip>
        <midiclip type="1" autoresize="1" name="" off="0" len="1536" pos="6912" muted="0" steps="16">
          <note pan="0" type="0" len="12" pos="0" key="62" vol="100"/>
          <note pan="0" type="0" len="12" pos="0" key="57" vol="100"/>
          <note pan="0" type="0" len="12" pos="0" key="53" vol="100"/>
          <note pan="0" type="0" len="36" pos="24" key="62" vol="100"/>
          <note pan="0" type="0" len="36" pos="24" key="57" vol="100"/>
          <note pan="0" type="0" len="36" pos="24" key="53" vol="100"/>
          <note pan="0" type="0" len="12" pos="72" key="62" vol="100"/>
          <note pan="0" type="0" len="12" pos="72" key="57" vol="100"/>
          <note pan="0" type="0" len="12" pos="72" key="53" vol="100"/>
          <note pan="0" type="0" len="36" pos="96" key="62" vol="100"/>
          <note pan="0" type="0" len="36" pos="96" key="57" vol="100"/>
          <note pan="0" type="0" len="36" pos="96" key="53" vol="100"/>
          <note pan="0" type="0" len="12" pos="144" key="60" vol="100"/>
          <note pan="0" type="0" len="12" pos="144" key="57" vol="100"/>
          <note pan="0" type="0" len="12" pos="144" key="53" vol="100"/>
          <note pan="0" type="0" len="24" pos="168" key="62" vol="100"/>
          <note pan="0" type="0" len="24" pos="168" key="57" vol="100"/>
          <note pan="0" type="0" len="24" pos="168" key="53" vol="100"/>
          <note pan="0" type="0" len="12" pos="192" key="65" vol="100"/>
          <note pan="0" type="0" len="12" pos="192" key="62" vol="100"/>
          <note pan="0" type="0" len="12" pos="192" key="57" vol="100"/>
          <note pan="0" type="0" len="36" pos="216" key="65" vol="100"/>
          <note pan="0" type="0" len="36" pos="216" key="62" vol="100"/>
          <note pan="0" type="0" len="36" pos="216" key="57" vol="100"/>
          <note pan="0" type="0" len="12" pos="264" key="64" vol="100"/>
          <note pan="0" type="0" len="12" pos="264" key="62" vol="100"/>
          <note pan="0" type="0" len="12" pos="264" key="57" vol="100"/>
          <note pan="0" type="0" len="36" pos="288" key="65" vol="100"/>
          <note pan="0" type="0" len="36" pos="288" key="62" vol="100"/>
          <note pan="0" type="0" len="36" pos="288" key="57" vol="100"/>
          <note pan="0" type="0" len="12" pos="336" key="64" vol="100"/>
          <note pan="0" type="0" len="12" pos="336" key="62" vol="100"/>
          <note pan="0" type="0" len="12" pos="336" key="57" vol="100"/>
          <note pan="0" type="0" len="24" pos="360" key="65" vol="100"/>
          <note pan="0" type="0" len="24" pos="360" key="62" vol="100"/>
          <note pan="0" type="0" len="24" pos="360" key="57" vol="100"/>
          <note pan="0" type="0" len="12" pos="384" key="62" vol="100"/>
          <note pan="0" type="0" len="12" pos="384" key="57" vol="100"/>
          <note pan="0" type="0" len="12" pos="384" key="52" vol="100"/>
          <note pan="0" type="0" len="36" pos="408" key="62" vol="100"/>
          <note pan="0" type="0" len="36" pos="408" key="57" vol="100"/>
          <note pan="0" type="0" len="36" pos="408" key="52" vol="100"/>
          <note pan="0" type="0" len="12" pos="456" key="60" vol="100"/>
          <note pan="0" type="0" len="12" pos="456" key="57" vol="100"/>
          <note pan="0" type="0" len="12" pos="456" key="52" vol="100"/>
          <note pan="0" type="0" len="36" pos="480" key="62" vol="100"/>
          <note pan="0" type="0" len="36" pos="480" key="57" vol="100"/>
          <note pan="0" type="0" len="36" pos="480" key="52" vol="100"/>
          <note pan="0" type="0" len="12" pos="528" key="60" vol="100"/>
          <note pan="0" type="0" len="12" pos="528" key="57" vol="100"/>
          <note pan="0" type="0" len="12" pos="528" key="52" vol="100"/>
          <note pan="0" type="0" len="24" pos="552" key="62" vol="100"/>
          <note pan="0" type="0" len="24" pos="552" key="57" vol="100"/>
          <note pan="0" type="0" len="24" pos="552" key="52" vol="100"/>
          <note pan="0" type="0" len="12" pos="576" key="64" vol="100"/>
          <note pan="0" type="0" len="12" pos="576" key="60" vol="100"/>
          <note pan="0" type="0" len="12" pos="576" key="57" vol="100"/>
          <note pan="0" type="0" len="36" pos="600" key="64" vol="100"/>
          <note pan="0" type="0" len="36" pos="600" key="60" vol="100"/>
          <note pan="0" type="0" len="36" pos="600" key="57" vol="100"/>
          <note pan="0" type="0" len="12" pos="648" key="62" vol="100"/>
          <note pan="0" type="0" len="12" pos="648" key="60" vol="100"/>
          <note pan="0" type="0" len="12" pos="648" key="57" vol="100"/>
          <note pan="0" type="0" len="36" pos="672" key="64" vol="100"/>
          <note pan="0" type="0" len="36" pos="672" key="60" vol="100"/>
          <note pan="0" type="0" len="36" pos="672" key="57" vol="100"/>
          <note pan="0" type="0" len="12" pos="720" key="62" vol="100"/>
          <note pan="0" type="0" len="12" pos="720" key="60" vol="100"/>
          <note pan="0" type="0" len="12" pos="720" key="57" vol="100"/>
          <note pan="0" type="0" len="24" pos="744" key="64" vol="100"/>
          <note pan="0" type="0" len="24" pos="744" key="60" vol="100"/>
          <note pan="0" type="0" len="24" pos="744" key="57" vol="100"/>
          <note pan="0" type="0" len="12" pos="768" key="58" vol="100"/>
          <note pan="0" type="0" len="12" pos="768" key="53" vol="100"/>
          <note pan="0" type="0" len="12" pos="768" key="50" vol="100"/>
          <note pan="0" type="0" len="36" pos="792" key="58" vol="100"/>
          <note pan="0" type="0" len="36" pos="792" key="53" vol="100"/>
          <note pan="0" type="0" len="36" pos="792" key="50" vol="100"/>
          <note pan="0" type="0" len="12" pos="840" key="57" vol="100"/>
          <note pan="0" type="0" len="12" pos="840" key="53" vol="100"/>
          <note pan="0" type="0" len="12" pos="840" key="50" vol="100"/>
          <note pan="0" type="0" len="36" pos="864" key="58" vol="100"/>
          <note pan="0" type="0" len="36" pos="864" key="53" vol="100"/>
          <note pan="0" type="0" len="36" pos="864" key="50" vol="100"/>
          <note pan="0" type="0" len="12" pos="912" key="57" vol="100"/>
          <note pan="0" type="0" len="12" pos="912" key="53" vol="100"/>
          <note pan="0" type="0" len="12" pos="912" key="50" vol="100"/>
          <note pan="0" type="0" len="24" pos="936" key="58" vol="100"/>
          <note pan="0" type="0" len="24" pos="936" key="53" vol="100"/>
          <note pan="0" type="0" len="24" pos="936" key="50" vol="100"/>
          <note pan="0" type="0" len="12" pos="960" key="64" vol="100"/>
          <note pan="0" type="0" len="12" pos="960" key="60" vol="100"/>
          <note pan="0" type="0" len="12" pos="960" key="55" vol="100"/>
          <note pan="0" type="0" len="36" pos="984" key="64" vol="100"/>
          <note pan="0" type="0" len="36" pos="984" key="60" vol="100"/>
          <note pan="0" type="0" len="36" pos="984" key="55" vol="100"/>
          <note pan="0" type="0" len="12" pos="1032" key="62" vol="100"/>
          <note pan="0" type="0" len="12" pos="1032" key="60" vol="100"/>
          <note pan="0" type="0" len="12" pos="1032" key="55" vol="100"/>
          <note pan="0" type="0" len="36" pos="1056" key="64" vol="100"/>
          <note pan="0" type="0" len="36" pos="1056" key="60" vol="100"/>
          <note pan="0" type="0" len="36" pos="1056" key="55" vol="100"/>
          <note pan="0" type="0" len="12" pos="1104" key="62" vol="100"/>
          <note pan="0" type="0" len="12" pos="1104" key="60" vol="100"/>
          <note pan="0" type="0" len="12" pos="1104" key="55" vol="100"/>
          <note pan="0" type="0" len="24" pos="1128" key="64" vol="100"/>
          <note pan="0" type="0" len="24" pos="1128" key="60" vol="100"/>
          <note pan="0" type="0" len="24" pos="1128" key="55" vol="100"/>
          <note pan="0" type="0" len="12" pos="1152" key="62" vol="100"/>
          <note pan="0" type="0" len="12" pos="1152" key="57" vol="100"/>
          <note pan="0" type="0" len="12" pos="1152" key="53" vol="100"/>
          <note pan="0" type="0" len="36" pos="1176" key="62" vol="100"/>
          <note pan="0" type="0" len="36" pos="1176" key="57" vol="100"/>
          <note pan="0" type="0" len="36" pos="1176" key="53" vol="100"/>
          <note pan="0" type="0" len="12" pos="1224" key="62" vol="100"/>
          <note pan="0" type="0" len="12" pos="1224" key="57" vol="100"/>
          <note pan="0" type="0" len="12" pos="1224" key="53" vol="100"/>
          <note pan="0" type="0" len="36" pos="1248" key="62" vol="100"/>
          <note pan="0" type="0" len="36" pos="1248" key="57" vol="100"/>
          <note pan="0" type="0" len="36" pos="1248" key="53" vol="100"/>
          <note pan="0" type="0" len="12" pos="1296" key="60" vol="100"/>
          <note pan="0" type="0" len="12" pos="1296" key="57" vol="100"/>
          <note pan="0" type="0" len="12" pos="1296" key="52" vol="100"/>
          <note pan="0" type="0" len="24" pos="1320" key="62" vol="100"/>
          <note pan="0" type="0" len="24" pos="1320" key="57" vol="100"/>
          <note pan="0" type="0" len="24" pos="1320" key="53" vol="100"/>
          <note pan="0" type="0" len="12" pos="1344" key="64" vol="100"/>
          <note pan="0" type="0" len="12" pos="1344" key="60" vol="100"/>
          <note pan="0" type="0" len="12" pos="1344" key="55" vol="100"/>
          <note pan="0" type="0" len="36" pos="1368" key="64" vol="100"/>
          <note pan="0" type="0" len="36" pos="1368" key="60" vol="100"/>
          <note pan="0" type="0" len="36" pos="1368" key="55" vol="100"/>
          <note pan="0" type="0" len="12" pos="1416" key="62" vol="100"/>
          <note pan="0" type="0" len="12" pos="1416" key="60" vol="100"/>
          <note pan="0" type="0" len="12" pos="1416" key="55" vol="100"/>
          <note pan="0" type="0" len="36" pos="1440" key="64" vol="100"/>
          <note pan="0" type="0" len="36" pos="1440" key="60" vol="100"/>
          <note pan="0" type="0" len="36" pos="1440" key="55" vol="100"/>
          <note pan="0" type="0" len="12" pos="1488" key="65" vol="100"/>
          <note pan="0" type="0" len="12" pos="1488" key="60" vol="100"/>
          <note pan="0" type="0" len="12" pos="1488" key="55" vol="100"/>
          <note pan="0" type="0" len="24" pos="1512" key="67" vol="100"/>
          <note pan="0" type="0" len="24" pos="1512" key="64" vol="100"/>
          <note pan="0" type="0" len="24" pos="1512" key="60" vol="100"/>
        </midiclip>
        <midiclip type="1" autoresize="1" name="" off="0" len="1536" pos="5376" muted="0" steps="16">
          <note pan="0" type="0" len="12" pos="0" key="62" vol="100"/>
          <note pan="0" type="0" len="12" pos="0" key="57" vol="100"/>
          <note pan="0" type="0" len="12" pos="0" key="53" vol="100"/>
          <note pan="0" type="0" len="36" pos="24" key="62" vol="100"/>
          <note pan="0" type="0" len="36" pos="24" key="57" vol="100"/>
          <note pan="0" type="0" len="36" pos="24" key="53" vol="100"/>
          <note pan="0" type="0" len="12" pos="72" key="62" vol="100"/>
          <note pan="0" type="0" len="12" pos="72" key="57" vol="100"/>
          <note pan="0" type="0" len="12" pos="72" key="53" vol="100"/>
          <note pan="0" type="0" len="36" pos="96" key="62" vol="100"/>
          <note pan="0" type="0" len="36" pos="96" key="57" vol="100"/>
          <note pan="0" type="0" len="36" pos="96" key="53" vol="100"/>
          <note pan="0" type="0" len="12" pos="144" key="62" vol="100"/>
          <note pan="0" type="0" len="12" pos="144" key="57" vol="100"/>
          <note pan="0" type="0" len="12" pos="144" key="53" vol="100"/>
          <note pan="0" type="0" len="24" pos="168" key="62" vol="100"/>
          <note pan="0" type="0" len="24" pos="168" key="57" vol="100"/>
          <note pan="0" type="0" len="24" pos="168" key="53" vol="100"/>
          <note pan="0" type="0" len="12" pos="192" key="62" vol="100"/>
          <note pan="0" type="0" len="12" pos="192" key="57" vol="100"/>
          <note pan="0" type="0" len="12" pos="192" key="53" vol="100"/>
          <note pan="0" type="0" len="36" pos="216" key="62" vol="100"/>
          <note pan="0" type="0" len="36" pos="216" key="57" vol="100"/>
          <note pan="0" type="0" len="36" pos="216" key="53" vol="100"/>
          <note pan="0" type="0" len="12" pos="264" key="62" vol="100"/>
          <note pan="0" type="0" len="12" pos="264" key="57" vol="100"/>
          <note pan="0" type="0" len="12" pos="264" key="53" vol="100"/>
          <note pan="0" type="0" len="36" pos="288" key="62" vol="100"/>
          <note pan="0" type="0" len="36" pos="288" key="57" vol="100"/>
          <note pan="0" type="0" len="36" pos="288" key="53" vol="100"/>
          <note pan="0" type="0" len="12" pos="336" key="62" vol="100"/>
          <note pan="0" type="0" len="12" pos="336" key="57" vol="100"/>
          <note pan="0" type="0" len="12" pos="336" key="53" vol="100"/>
          <note pan="0" type="0" len="24" pos="360" key="62" vol="100"/>
          <note pan="0" type="0" len="24" pos="360" key="57" vol="100"/>
          <note pan="0" type="0" len="24" pos="360" key="53" vol="100"/>
          <note pan="0" type="0" len="12" pos="384" key="62" vol="100"/>
          <note pan="0" type="0" len="12" pos="384" key="57" vol="100"/>
          <note pan="0" type="0" len="12" pos="384" key="52" vol="100"/>
          <note pan="0" type="0" len="36" pos="408" key="62" vol="100"/>
          <note pan="0" type="0" len="36" pos="408" key="57" vol="100"/>
          <note pan="0" type="0" len="36" pos="408" key="52" vol="100"/>
          <note pan="0" type="0" len="12" pos="456" key="62" vol="100"/>
          <note pan="0" type="0" len="12" pos="456" key="57" vol="100"/>
          <note pan="0" type="0" len="12" pos="456" key="52" vol="100"/>
          <note pan="0" type="0" len="36" pos="480" key="62" vol="100"/>
          <note pan="0" type="0" len="36" pos="480" key="57" vol="100"/>
          <note pan="0" type="0" len="36" pos="480" key="52" vol="100"/>
          <note pan="0" type="0" len="12" pos="528" key="62" vol="100"/>
          <note pan="0" type="0" len="12" pos="528" key="57" vol="100"/>
          <note pan="0" type="0" len="12" pos="528" key="52" vol="100"/>
          <note pan="0" type="0" len="24" pos="552" key="62" vol="100"/>
          <note pan="0" type="0" len="24" pos="552" key="57" vol="100"/>
          <note pan="0" type="0" len="24" pos="552" key="52" vol="100"/>
          <note pan="0" type="0" len="12" pos="576" key="60" vol="100"/>
          <note pan="0" type="0" len="12" pos="576" key="57" vol="100"/>
          <note pan="0" type="0" len="12" pos="576" key="52" vol="100"/>
          <note pan="0" type="0" len="36" pos="600" key="60" vol="100"/>
          <note pan="0" type="0" len="36" pos="600" key="57" vol="100"/>
          <note pan="0" type="0" len="36" pos="600" key="52" vol="100"/>
          <note pan="0" type="0" len="12" pos="648" key="60" vol="100"/>
          <note pan="0" type="0" len="12" pos="648" key="57" vol="100"/>
          <note pan="0" type="0" len="12" pos="648" key="52" vol="100"/>
          <note pan="0" type="0" len="36" pos="672" key="60" vol="100"/>
          <note pan="0" type="0" len="36" pos="672" key="57" vol="100"/>
          <note pan="0" type="0" len="36" pos="672" key="52" vol="100"/>
          <note pan="0" type="0" len="12" pos="720" key="60" vol="100"/>
          <note pan="0" type="0" len="12" pos="720" key="57" vol="100"/>
          <note pan="0" type="0" len="12" pos="720" key="52" vol="100"/>
          <note pan="0" type="0" len="24" pos="744" key="60" vol="100"/>
          <note pan="0" type="0" len="24" pos="744" key="57" vol="100"/>
          <note pan="0" type="0" len="24" pos="744" key="52" vol="100"/>
          <note pan="0" type="0" len="12" pos="768" key="58" vol="100"/>
          <note pan="0" type="0" len="12" pos="768" key="53" vol="100"/>
          <note pan="0" type="0" len="12" pos="768" key="50" vol="100"/>
          <note pan="0" type="0" len="36" pos="792" key="58" vol="100"/>
          <note pan="0" type="0" len="36" pos="792" key="53" vol="100"/>
          <note pan="0" type="0" len="36" pos="792" key="50" vol="100"/>
          <note pan="0" type="0" len="12" pos="840" key="58" vol="100"/>
          <note pan="0" type="0" len="12" pos="840" key="53" vol="100"/>
          <note pan="0" type="0" len="12" pos="840" key="50" vol="100"/>
          <note pan="0" type="0" len="36" pos="864" key="58" vol="100"/>
          <note pan="0" type="0" len="36" pos="864" key="53" vol="100"/>
          <note pan="0" type="0" len="36" pos="864" key="50" vol="100"/>
          <note pan="0" type="0" len="12" pos="912" key="58" vol="100"/>
          <note pan="0" type="0" len="12" pos="912" key="53" vol="100"/>
          <note pan="0" type="0" len="12" pos="912" key="50" vol="100"/>
          <note pan="0" type="0" len="24" pos="936" key="58" vol="100"/>
          <note pan="0" type="0" len="24" pos="936" key="53" vol="100"/>
          <note pan="0" type="0" len="24" pos="936" key="50" vol="100"/>
          <note pan="0" type="0" len="12" pos="960" key="60" vol="100"/>
          <note pan="0" type="0" len="12" pos="960" key="55" vol="100"/>
          <note pan="0" type="0" len="12" pos="960" key="52" vol="100"/>
          <note pan="0" type="0" len="36" pos="984" key="60" vol="100"/>
          <note pan="0" type="0" len="36" pos="984" key="55" vol="100"/>
          <note pan="0" type="0" len="36" pos="984" key="52" vol="100"/>
          <note pan="0" type="0" len="12" pos="1032" key="60" vol="100"/>
          <note pan="0" type="0" len="12" pos="1032" key="55" vol="100"/>
          <note pan="0" type="0" len="12" pos="1032" key="52" vol="100"/>
          <note pan="0" type="0" len="36" pos="1056" key="60" vol="100"/>
          <note pan="0" type="0" len="36" pos="1056" key="55" vol="100"/>
          <note pan="0" type="0" len="36" pos="1056" key="52" vol="100"/>
          <note pan="0" type="0" len="12" pos="1104" key="60" vol="100"/>
          <note pan="0" type="0" len="12" pos="1104" key="55" vol="100"/>
          <note pan="0" type="0" len="12" pos="1104" key="52" vol="100"/>
          <note pan="0" type="0" len="24" pos="1128" key="60" vol="100"/>
          <note pan="0" type="0" len="24" pos="1128" key="55" vol="100"/>
          <note pan="0" type="0" len="24" pos="1128" key="52" vol="100"/>
          <note pan="0" type="0" len="12" pos="1152" key="62" vol="100"/>
          <note pan="0" type="0" len="12" pos="1152" key="57" vol="100"/>
          <note pan="0" type="0" len="12" pos="1152" key="53" vol="100"/>
          <note pan="0" type="0" len="36" pos="1176" key="62" vol="100"/>
          <note pan="0" type="0" len="36" pos="1176" key="57" vol="100"/>
          <note pan="0" type="0" len="36" pos="1176" key="53" vol="100"/>
          <note pan="0" type="0" len="12" pos="1224" key="62" vol="100"/>
          <note pan="0" type="0" len="12" pos="1224" key="57" vol="100"/>
          <note pan="0" type="0" len="12" pos="1224" key="53" vol="100"/>
          <note pan="0" type="0" len="36" pos="1248" key="62" vol="100"/>
          <note pan="0" type="0" len="36" pos="1248" key="57" vol="100"/>
          <note pan="0" type="0" len="36" pos="1248" key="53" vol="100"/>
          <note pan="0" type="0" len="12" pos="1296" key="62" vol="100"/>
          <note pan="0" type="0" len="12" pos="1296" key="57" vol="100"/>
          <note pan="0" type="0" len="12" pos="1296" key="53" vol="100"/>
          <note pan="0" type="0" len="24" pos="1320" key="62" vol="100"/>
          <note pan="0" type="0" len="24" pos="1320" key="57" vol="100"/>
          <note pan="0" type="0" len="24" pos="1320" key="53" vol="100"/>
          <note pan="0" type="0" len="12" pos="1344" key="60" vol="100"/>
          <note pan="0" type="0" len="12" pos="1344" key="55" vol="100"/>
          <note pan="0" type="0" len="12" pos="1344" key="52" vol="100"/>
          <note pan="0" type="0" len="36" pos="1368" key="60" vol="100"/>
          <note pan="0" type="0" len="36" pos="1368" key="55" vol="100"/>
          <note pan="0" type="0" len="36" pos="1368" key="52" vol="100"/>
          <note pan="0" type="0" len="12" pos="1416" key="60" vol="100"/>
          <note pan="0" type="0" len="12" pos="1416" key="55" vol="100"/>
          <note pan="0" type="0" len="12" pos="1416" key="52" vol="100"/>
          <note pan="0" type="0" len="36" pos="1440" key="60" vol="100"/>
          <note pan="0" type="0" len="36" pos="1440" key="55" vol="100"/>
          <note pan="0" type="0" len="36" pos="1440" key="52" vol="100"/>
          <note pan="0" type="0" len="12" pos="1488" key="62" vol="100"/>
          <note pan="0" type="0" len="12" pos="1488" key="57" vol="100"/>
          <note pan="0" type="0" len="12" pos="1488" key="53" vol="100"/>
          <note pan="0" type="0" len="24" pos="1512" key="64" vol="100"/>
          <note pan="0" type="0" len="24" pos="1512" key="60" vol="100"/>
          <note pan="0" type="0" len="24" pos="1512" key="57" vol="100"/>
        </midiclip>
      </track>
      <track type="5" name="Woodwinds>Volume" mutedBeforeSolo="0" muted="0" solo="0">
        <automationtrack/>
        <automationclip autoresize="1" name="Windwoods>Oboe>Volume" prog="0" off="0" len="192" tens="1" pos="0" mute="0">
          <time outValue="100" value="100" lockedTan="0" outTan="0" inTan="0" pos="0"/>
          <object id="22137"/>
          <object id="16200"/>
        </automationclip>
        <automationclip autoresize="1" name="Windwoods>Oboe>Volume" prog="1" off="0" len="384" tens="1" pos="4800" mute="0">
          <time outValue="100" value="100" lockedTan="0" outTan="-0.29761904" inTan="0" pos="0"/>
          <time outValue="0" value="0" lockedTan="0" outTan="0" inTan="0" pos="336"/>
          <object id="22137"/>
          <object id="16200"/>
        </automationclip>
        <automationclip autoresize="1" name="Windwoods>Oboe>Volume" prog="0" off="0" len="192" tens="1" pos="8448" mute="0">
          <time outValue="100" value="100" lockedTan="0" outTan="0" inTan="0" pos="0"/>
          <object id="22137"/>
          <object id="16200"/>
        </automationclip>
        <automationclip autoresize="1" name="Windwoods>Oboe>Volume" prog="1" off="0" len="384" tens="1" pos="11328" mute="0">
          <time outValue="100" value="100" lockedTan="0" outTan="-0.29761904" inTan="0" pos="0"/>
          <time outValue="0" value="0" lockedTan="0" outTan="0" inTan="0" pos="336"/>
          <object id="22137"/>
          <object id="16200"/>
        </automationclip>
      </track>
      <track type="0" name="Windwoods>Oboe" mutedBeforeSolo="0" muted="0" solo="0">
        <instrumenttrack pan="0" range_import="1" mixch="3" pitchrange="1" firstkey="0" keymap="0" usemasterpitch="1" scale="0" pitch="0" basenote="69" lastkey="127" enablecc="0" enabled="0">
          <vol scale_type="linear" value="0" id="22137"/>
          <midicontrollers cc115="0" cc71="0" cc3="0" cc63="0" cc90="0" cc74="0" cc82="0" cc96="0" cc10="0" cc17="0" cc116="0" cc59="0" cc122="0" cc118="0" cc45="0" cc77="0" cc72="0" cc40="0" cc2="0" cc105="0" cc24="0" cc33="0" cc43="0" cc13="0" cc88="0" cc6="0" cc31="0" cc52="0" cc15="0" cc67="0" cc7="0" cc41="0" cc4="0" cc19="0" cc125="0" cc75="0" cc79="0" cc93="0" cc25="0" cc39="0" cc51="0" cc87="0" cc55="0" cc28="0" cc26="0" cc98="0" cc102="0" cc50="0" cc23="0" cc16="0" cc92="0" cc57="0" cc69="0" cc18="0" cc85="0" cc103="0" cc126="0" cc124="0" cc9="0" cc20="0" cc68="0" cc114="0" cc30="0" cc47="0" cc86="0" cc97="0" cc5="0" cc73="0" cc60="0" cc108="0" cc66="0" cc58="0" cc121="0" cc49="0" cc99="0" cc65="0" cc83="0" cc35="0" cc94="0" cc44="0" cc112="0" cc37="0" cc64="0" cc84="0" cc14="0" cc38="0" cc32="0" cc62="0" cc78="0" cc54="0" cc34="0" cc117="0" cc76="0" cc127="0" cc89="0" cc0="0" cc100="0" cc109="0" cc111="0" cc29="0" cc95="0" cc70="0" cc91="0" cc27="0" cc81="0" cc120="0" cc1="0" cc42="0" cc113="0" cc22="0" cc80="0" cc110="0" cc8="0" cc46="0" cc12="0" cc53="0" cc11="0" cc21="0" cc36="0" cc56="0" cc101="0" cc106="0" cc61="0" cc48="0" cc123="0" cc104="0" cc119="0" cc107="0"/>
          <instrument name="sf2player">
            <sf2player reverbWidth="0.5" reverbLevel="0.89999998" chorusDepth="8" src="usersoundfont:Touhou.sf2" chorusOn="0" bank="0" chorusSpeed="0.30000001" chorusNum="3" reverbOn="0" gain="0.95999998" patch="68" reverbRoomSize="0.2" chorusLevel="2" reverbDamping="0">
              <key/>
            </sf2player>
          </instrument>
          <eldata ftype="0" fres="0.5" fcut="14000" fwet="0">
            <elvol pdel="0" lshp="0" lspd_numerator="4" rel="0.1" ctlenvamt="0" lspd_denominator="4" dec="0.5" hold="0.5" lamt="0" lpdel="0" x100="0" userwavefile="" amt="0" latt="0" sustain="0.5" lspd_syncmode="0" att="0" lspd="0.1"/>
            <elcut pdel="0" lshp="0" lspd_numerator="4" rel="0.1" ctlenvamt="0" lspd_denominator="4" dec="0.5" hold="0.5" lamt="0" lpdel="0" x100="0" userwavefile="" amt="0" latt="0" sustain="0.5" lspd_syncmode="0" att="0" lspd="0.1"/>
            <elres pdel="0" lshp="0" lspd_numerator="4" rel="0.1" ctlenvamt="0" lspd_denominator="4" dec="0.5" hold="0.5" lamt="0" lpdel="0" x100="0" userwavefile="" amt="0" latt="0" sustain="0.5" lspd_syncmode="0" att="0" lspd="0.1"/>
          </eldata>
          <chordcreator chord="0" chordrange="1" chord-enabled="0"/>
          <arpeggiator arprange="1" arpdir="0" arpskip="0" arpmode="0" arpmiss="0" arptime="200" arpgate="100" arptime_numerator="4" arp-enabled="0" arpcycle="0" arptime_denominator="4" arptime_syncmode="0" arprepeats="1" arp="0"/>
          <midiport inputcontroller="0" fixedoutputvelocity="-1" readable="1" fixedoutputnote="-1" basevelocity="63" fixedinputvelocity="-1" inports="" inputchannel="0" outputchannel="1" writable="0" outputcontroller="0" outputprogram="1"/>
          <fxchain numofeffects="0" enabled="0"/>
        </instrumenttrack>
        <midiclip type="1" autoresize="1" name="" off="0" len="1728" pos="3456" muted="0" steps="16">
          <note pan="0" type="0" len="12" pos="0" key="82" vol="100"/>
          <note pan="0" type="0" len="36" pos="24" key="70" vol="100"/>
          <note pan="0" type="0" len="48" pos="72" key="74" vol="100"/>
          <note pan="0" type="0" len="72" pos="120" key="77" vol="100"/>
          <note pan="0" type="0" len="12" pos="192" key="73" vol="100"/>
          <note pan="0" type="0" len="36" pos="216" key="73" vol="100"/>
          <note pan="0" type="0" len="48" pos="264" key="74" vol="100"/>
          <note pan="0" type="0" len="72" pos="312" key="76" vol="100"/>
          <note pan="0" type="0" len="12" pos="384" key="81" vol="100"/>
          <note pan="0" type="0" len="36" pos="408" key="82" vol="100"/>
          <note pan="0" type="0" len="48" pos="456" key="81" vol="100"/>
          <note pan="0" type="0" len="48" pos="504" key="77" vol="100"/>
          <note pan="0" type="0" len="36" pos="552" key="79" vol="100"/>
          <note pan="0" type="0" len="12" pos="588" key="77" vol="100"/>
          <note pan="0" type="0" len="84" pos="600" key="74" vol="100"/>
          <note pan="0" type="0" len="24" pos="720" key="82" vol="100"/>
          <note pan="0" type="0" len="24" pos="744" key="81" vol="100"/>
          <note pan="0" type="0" len="60" pos="768" key="79" vol="100"/>
          <note pan="0" type="0" len="6" pos="828" key="81" vol="100"/>
          <note pan="0" type="0" len="6" pos="834" key="79" vol="100"/>
          <note pan="0" type="0" len="48" pos="840" key="77" vol="100"/>
          <note pan="0" type="0" len="48" pos="888" key="74" vol="100"/>
          <note pan="0" type="0" len="72" pos="960" key="76" vol="100"/>
          <note pan="0" type="0" len="72" pos="1032" key="77" vol="100"/>
          <note pan="0" type="0" len="24" pos="1104" key="79" vol="100"/>
          <note pan="0" type="0" len="24" pos="1128" key="74" vol="100"/>
          <note pan="0" type="0" len="24" pos="1152" key="81" vol="100"/>
          <note pan="0" type="0" len="48" pos="1176" key="77" vol="100"/>
          <note pan="0" type="0" len="48" pos="1224" key="79" vol="100"/>
          <note pan="0" type="0" len="24" pos="1272" key="81" vol="100"/>
          <note pan="0" type="0" len="48" pos="1320" key="79" vol="100"/>
          <note pan="0" type="0" len="24" pos="1368" key="77" vol="100"/>
          <note pan="0" type="0" len="336" pos="1392" key="74" vol="100"/>
        </midiclip>
        <midiclip type="1" autoresize="1" name="" off="0" len="1536" pos="1920" muted="0" steps="16">
          <note pan="0" type="0" len="12" pos="0" key="82" vol="100"/>
          <note pan="0" type="0" len="36" pos="24" key="70" vol="100"/>
          <note pan="0" type="0" len="48" pos="72" key="74" vol="100"/>
          <note pan="0" type="0" len="72" pos="120" key="77" vol="100"/>
          <note pan="0" type="0" len="12" pos="192" key="73" vol="100"/>
          <note pan="0" type="0" len="36" pos="216" key="73" vol="100"/>
          <note pan="0" type="0" len="48" pos="264" key="74" vol="100"/>
          <note pan="0" type="0" len="72" pos="312" key="76" vol="100"/>
          <note pan="0" type="0" len="12" pos="384" key="81" vol="100"/>
          <note pan="0" type="0" len="36" pos="408" key="69" vol="100"/>
          <note pan="0" type="0" len="48" pos="456" key="72" vol="100"/>
          <note pan="0" type="0" len="48" pos="504" key="74" vol="100"/>
          <note pan="0" type="0" len="120" pos="552" key="71" vol="100"/>
          <note pan="0" type="0" len="24" pos="720" key="67" vol="100"/>
          <note pan="0" type="0" len="24" pos="744" key="69" vol="100"/>
          <note pan="0" type="0" len="72" pos="768" key="70" vol="100"/>
          <note pan="0" type="0" len="48" pos="840" key="74" vol="100"/>
          <note pan="0" type="0" len="48" pos="888" key="70" vol="100"/>
          <note pan="0" type="0" len="12" pos="936" key="67" vol="100"/>
          <note pan="0" type="0" len="12" pos="948" key="69" vol="100"/>
          <note pan="0" type="0" len="72" pos="960" key="73" vol="100"/>
          <note pan="0" type="0" len="72" pos="1032" key="69" vol="100"/>
          <note pan="0" type="0" len="24" pos="1104" key="67" vol="100"/>
          <note pan="0" type="0" len="24" pos="1128" key="65" vol="100"/>
          <note pan="0" type="0" len="24" pos="1152" key="69" vol="100"/>
          <note pan="0" type="0" len="48" pos="1176" key="62" vol="100"/>
          <note pan="0" type="0" len="48" pos="1224" key="74" vol="100"/>
          <note pan="0" type="0" len="48" pos="1272" key="72" vol="100"/>
          <note pan="0" type="0" len="48" pos="1320" key="71" vol="100"/>
          <note pan="0" type="0" len="24" pos="1368" key="69" vol="100"/>
          <note pan="0" type="0" len="96" pos="1392" key="67" vol="100"/>
        </midiclip>
        <midiclip type="1" autoresize="1" name="" off="0" len="576" pos="1152" muted="0" steps="16">
          <note pan="0" type="0" len="162" pos="0" key="74" vol="100"/>
          <note pan="0" type="0" len="6" pos="162" key="69" vol="100"/>
          <note pan="0" type="0" len="24" pos="168" key="79" vol="100"/>
          <note pan="0" type="0" len="6" pos="276" key="72" vol="100"/>
          <note pan="0" type="0" len="6" pos="282" key="74" vol="100"/>
          <note pan="0" type="0" len="24" pos="288" key="76" vol="100"/>
          <note pan="0" type="0" len="24" pos="312" key="74" vol="100"/>
          <note pan="0" type="0" len="18" pos="336" key="72" vol="100"/>
          <note pan="0" type="0" len="6" pos="354" key="69" vol="100"/>
          <note pan="0" type="0" len="186" pos="360" key="74" vol="100"/>
          <note pan="0" type="0" len="6" pos="546" key="69" vol="100"/>
          <note pan="0" type="0" len="24" pos="552" key="72" vol="100"/>
        </midiclip>
        <midiclip type="1" autoresize="1" name="" off="0" len="1728" pos="9984" muted="0" steps="16">
          <note pan="0" type="0" len="12" pos="0" key="82" vol="100"/>
          <note pan="0" type="0" len="36" pos="24" key="70" vol="100"/>
          <note pan="0" type="0" len="48" pos="72" key="74" vol="100"/>
          <note pan="0" type="0" len="72" pos="120" key="77" vol="100"/>
          <note pan="0" type="0" len="12" pos="192" key="73" vol="100"/>
          <note pan="0" type="0" len="36" pos="216" key="73" vol="100"/>
          <note pan="0" type="0" len="48" pos="264" key="74" vol="100"/>
          <note pan="0" type="0" len="72" pos="312" key="76" vol="100"/>
          <note pan="0" type="0" len="12" pos="384" key="81" vol="100"/>
          <note pan="0" type="0" len="36" pos="408" key="82" vol="100"/>
          <note pan="0" type="0" len="48" pos="456" key="81" vol="100"/>
          <note pan="0" type="0" len="48" pos="504" key="77" vol="100"/>
          <note pan="0" type="0" len="36" pos="552" key="79" vol="100"/>
          <note pan="0" type="0" len="12" pos="588" key="77" vol="100"/>
          <note pan="0" type="0" len="84" pos="600" key="74" vol="100"/>
          <note pan="0" type="0" len="24" pos="720" key="82" vol="100"/>
          <note pan="0" type="0" len="24" pos="744" key="81" vol="100"/>
          <note pan="0" type="0" len="60" pos="768" key="79" vol="100"/>
          <note pan="0" type="0" len="6" pos="828" key="81" vol="100"/>
          <note pan="0" type="0" len="6" pos="834" key="79" vol="100"/>
          <note pan="0" type="0" len="48" pos="840" key="77" vol="100"/>
          <note pan="0" type="0" len="48" pos="888" key="74" vol="100"/>
          <note pan="0" type="0" len="72" pos="960" key="76" vol="100"/>
          <note pan="0" type="0" len="72" pos="1032" key="77" vol="100"/>
          <note pan="0" type="0" len="24" pos="1104" key="79" vol="100"/>
          <note pan="0" type="0" len="24" pos="1128" key="74" vol="100"/>
          <note pan="0" type="0" len="24" pos="1152" key="81" vol="100"/>
          <note pan="0" type="0" len="48" pos="1176" key="77" vol="100"/>
          <note pan="0" type="0" len="48" pos="1224" key="79" vol="100"/>
          <note pan="0" type="0" len="24" pos="1272" key="81" vol="100"/>
          <note pan="0" type="0" len="48" pos="1320" key="79" vol="100"/>
          <note pan="0" type="0" len="24" pos="1368" key="77" vol="100"/>
          <note pan="0" type="0" len="336" pos="1392" key="74" vol="100"/>
        </midiclip>
        <midiclip type="1" autoresize="1" name="" off="0" len="1536" pos="8448" muted="0" steps="16">
          <note pan="0" type="0" len="12" pos="0" key="82" vol="100"/>
          <note pan="0" type="0" len="36" pos="24" key="70" vol="100"/>
          <note pan="0" type="0" len="48" pos="72" key="74" vol="100"/>
          <note pan="0" type="0" len="72" pos="120" key="77" vol="100"/>
          <note pan="0" type="0" len="12" pos="192" key="73" vol="100"/>
          <note pan="0" type="0" len="36" pos="216" key="73" vol="100"/>
          <note pan="0" type="0" len="48" pos="264" key="74" vol="100"/>
          <note pan="0" type="0" len="72" pos="312" key="76" vol="100"/>
          <note pan="0" type="0" len="12" pos="384" key="81" vol="100"/>
          <note pan="0" type="0" len="36" pos="408" key="69" vol="100"/>
          <note pan="0" type="0" len="48" pos="456" key="72" vol="100"/>
          <note pan="0" type="0" len="48" pos="504" key="74" vol="100"/>
          <note pan="0" type="0" len="120" pos="552" key="71" vol="100"/>
          <note pan="0" type="0" len="24" pos="720" key="67" vol="100"/>
          <note pan="0" type="0" len="24" pos="744" key="69" vol="100"/>
          <note pan="0" type="0" len="72" pos="768" key="70" vol="100"/>
          <note pan="0" type="0" len="48" pos="840" key="74" vol="100"/>
          <note pan="0" type="0" len="48" pos="888" key="70" vol="100"/>
          <note pan="0" type="0" len="12" pos="936" key="67" vol="100"/>
          <note pan="0" type="0" len="12" pos="948" key="69" vol="100"/>
          <note pan="0" type="0" len="72" pos="960" key="73" vol="100"/>
          <note pan="0" type="0" len="72" pos="1032" key="69" vol="100"/>
          <note pan="0" type="0" len="24" pos="1104" key="67" vol="100"/>
          <note pan="0" type="0" len="24" pos="1128" key="65" vol="100"/>
          <note pan="0" type="0" len="24" pos="1152" key="69" vol="100"/>
          <note pan="0" type="0" len="48" pos="1176" key="62" vol="100"/>
          <note pan="0" type="0" len="48" pos="1224" key="74" vol="100"/>
          <note pan="0" type="0" len="48" pos="1272" key="72" vol="100"/>
          <note pan="0" type="0" len="48" pos="1320" key="71" vol="100"/>
          <note pan="0" type="0" len="24" pos="1368" key="69" vol="100"/>
          <note pan="0" type="0" len="96" pos="1392" key="67" vol="100"/>
        </midiclip>
      </track>
      <track type="0" name="Windwoods>Bassoon" mutedBeforeSolo="0" muted="0" solo="0">
        <instrumenttrack pan="0" range_import="1" mixch="3" pitchrange="1" firstkey="0" keymap="0" usemasterpitch="1" scale="0" pitch="0" basenote="69" lastkey="127" enablecc="0" enabled="0">
          <vol scale_type="linear" value="0" id="16200"/>
          <midicontrollers cc115="0" cc71="0" cc3="0" cc63="0" cc90="0" cc74="0" cc82="0" cc96="0" cc10="0" cc17="0" cc116="0" cc59="0" cc122="0" cc118="0" cc45="0" cc77="0" cc72="0" cc40="0" cc2="0" cc105="0" cc24="0" cc33="0" cc43="0" cc13="0" cc88="0" cc6="0" cc31="0" cc52="0" cc15="0" cc67="0" cc7="0" cc41="0" cc4="0" cc19="0" cc125="0" cc75="0" cc79="0" cc93="0" cc25="0" cc39="0" cc51="0" cc87="0" cc55="0" cc28="0" cc26="0" cc98="0" cc102="0" cc50="0" cc23="0" cc16="0" cc92="0" cc57="0" cc69="0" cc18="0" cc85="0" cc103="0" cc126="0" cc124="0" cc9="0" cc20="0" cc68="0" cc114="0" cc30="0" cc47="0" cc86="0" cc97="0" cc5="0" cc73="0" cc60="0" cc108="0" cc66="0" cc58="0" cc121="0" cc49="0" cc99="0" cc65="0" cc83="0" cc35="0" cc94="0" cc44="0" cc112="0" cc37="0" cc64="0" cc84="0" cc14="0" cc38="0" cc32="0" cc62="0" cc78="0" cc54="0" cc34="0" cc117="0" cc76="0" cc127="0" cc89="0" cc0="0" cc100="0" cc109="0" cc111="0" cc29="0" cc95="0" cc70="0" cc91="0" cc27="0" cc81="0" cc120="0" cc1="0" cc42="0" cc113="0" cc22="0" cc80="0" cc110="0" cc8="0" cc46="0" cc12="0" cc53="0" cc11="0" cc21="0" cc36="0" cc56="0" cc101="0" cc106="0" cc61="0" cc48="0" cc123="0" cc104="0" cc119="0" cc107="0"/>
          <instrument name="sf2player">
            <sf2player reverbWidth="0.5" reverbLevel="0.89999998" chorusDepth="8" src="usersoundfont:Touhou.sf2" chorusOn="0" bank="0" chorusSpeed="0.30000001" chorusNum="3" reverbOn="0" gain="0.46000001" patch="70" reverbRoomSize="0.2" chorusLevel="2" reverbDamping="0">
              <key/>
            </sf2player>
          </instrument>
          <eldata ftype="0" fres="0.5" fcut="14000" fwet="0">
            <elvol pdel="0" lshp="0" lspd_numerator="4" rel="0.1" ctlenvamt="0" lspd_denominator="4" dec="0.5" hold="0.5" lamt="0" lpdel="0" x100="0" userwavefile="" amt="0" latt="0" sustain="0.5" lspd_syncmode="0" att="0" lspd="0.1"/>
            <elcut pdel="0" lshp="0" lspd_numerator="4" rel="0.1" ctlenvamt="0" lspd_denominator="4" dec="0.5" hold="0.5" lamt="0" lpdel="0" x100="0" userwavefile="" amt="0" latt="0" sustain="0.5" lspd_syncmode="0" att="0" lspd="0.1"/>
            <elres pdel="0" lshp="0" lspd_numerator="4" rel="0.1" ctlenvamt="0" lspd_denominator="4" dec="0.5" hold="0.5" lamt="0" lpdel="0" x100="0" userwavefile="" amt="0" latt="0" sustain="0.5" lspd_syncmode="0" att="0" lspd="0.1"/>
          </eldata>
          <chordcreator chord="0" chordrange="1" chord-enabled="0"/>
          <arpeggiator arprange="1" arpdir="0" arpskip="0" arpmode="0" arpmiss="0" arptime="200" arpgate="100" arptime_numerator="4" arp-enabled="0" arpcycle="0" arptime_denominator="4" arptime_syncmode="0" arprepeats="1" arp="0"/>
          <midiport inputcontroller="0" fixedoutputvelocity="-1" readable="1" fixedoutputnote="-1" basevelocity="63" fixedinputvelocity="-1" inports="" inputchannel="0" outputchannel="1" writable="0" outputcontroller="0" outputprogram="1"/>
          <fxchain numofeffects="0" enabled="0"/>
        </instrumenttrack>
        <midiclip type="1" autoresize="1" name="" off="0" len="1536" pos="8448" muted="0" steps="16">
          <note pan="0" type="0" len="12" pos="0" key="65" vol="100"/>
          <note pan="0" type="0" len="36" pos="24" key="65" vol="100"/>
          <note pan="0" type="0" len="48" pos="72" key="67" vol="100"/>
          <note pan="0" type="0" len="72" pos="120" key="69" vol="100"/>
          <note pan="0" type="0" len="12" pos="192" key="64" vol="100"/>
          <note pan="0" type="0" len="36" pos="216" key="64" vol="100"/>
          <note pan="0" type="0" len="48" pos="264" key="65" vol="100"/>
          <note pan="0" type="0" len="72" pos="312" key="67" vol="100"/>
          <note pan="0" type="0" len="12" pos="384" key="65" vol="100"/>
          <note pan="0" type="0" len="36" pos="408" key="65" vol="100"/>
          <note pan="0" type="0" len="48" pos="456" key="67" vol="100"/>
          <note pan="0" type="0" len="48" pos="504" key="69" vol="100"/>
          <note pan="0" type="0" len="120" pos="552" key="67" vol="100"/>
          <note pan="0" type="0" len="24" pos="720" key="62" vol="100"/>
          <note pan="0" type="0" len="24" pos="744" key="64" vol="100"/>
          <note pan="0" type="0" len="72" pos="768" key="65" vol="100"/>
          <note pan="0" type="0" len="48" pos="840" key="69" vol="100"/>
          <note pan="0" type="0" len="48" pos="888" key="65" vol="100"/>
          <note pan="0" type="0" len="12" pos="936" key="62" vol="100"/>
          <note pan="0" type="0" len="12" pos="948" key="61" vol="100"/>
          <note pan="0" type="0" len="72" pos="960" key="64" vol="100"/>
          <note pan="0" type="0" len="72" pos="1032" key="61" vol="100"/>
          <note pan="0" type="0" len="24" pos="1104" key="62" vol="100"/>
          <note pan="0" type="0" len="24" pos="1128" key="60" vol="100"/>
          <note pan="0" type="0" len="24" pos="1152" key="62" vol="100"/>
          <note pan="0" type="0" len="48" pos="1176" key="57" vol="100"/>
          <note pan="0" type="0" len="48" pos="1224" key="69" vol="100"/>
          <note pan="0" type="0" len="48" pos="1272" key="65" vol="100"/>
          <note pan="0" type="0" len="48" pos="1320" key="62" vol="100"/>
          <note pan="0" type="0" len="24" pos="1368" key="60" vol="100"/>
          <note pan="0" type="0" len="96" pos="1392" key="59" vol="100"/>
        </midiclip>
        <midiclip type="1" autoresize="1" name="" off="0" len="1728" pos="9984" muted="0" steps="16">
          <note pan="0" type="0" len="12" pos="0" key="65" vol="100"/>
          <note pan="0" type="0" len="36" pos="24" key="65" vol="100"/>
          <note pan="0" type="0" len="48" pos="72" key="67" vol="100"/>
          <note pan="0" type="0" len="72" pos="120" key="69" vol="100"/>
          <note pan="0" type="0" len="12" pos="192" key="64" vol="100"/>
          <note pan="0" type="0" len="36" pos="216" key="64" vol="100"/>
          <note pan="0" type="0" len="48" pos="264" key="65" vol="100"/>
          <note pan="0" type="0" len="72" pos="312" key="67" vol="100"/>
          <note pan="0" type="0" len="12" pos="384" key="74" vol="100"/>
          <note pan="0" type="0" len="36" pos="408" key="74" vol="100"/>
          <note pan="0" type="0" len="48" pos="456" key="76" vol="100"/>
          <note pan="0" type="0" len="48" pos="504" key="74" vol="100"/>
          <note pan="0" type="0" len="36" pos="552" key="71" vol="100"/>
          <note pan="0" type="0" len="12" pos="588" key="69" vol="100"/>
          <note pan="0" type="0" len="84" pos="600" key="67" vol="100"/>
          <note pan="0" type="0" len="24" pos="720" key="77" vol="100"/>
          <note pan="0" type="0" len="24" pos="744" key="76" vol="100"/>
          <note pan="0" type="0" len="60" pos="768" key="74" vol="100"/>
          <note pan="0" type="0" len="6" pos="828" key="76" vol="100"/>
          <note pan="0" type="0" len="6" pos="834" key="74" vol="100"/>
          <note pan="0" type="0" len="48" pos="840" key="70" vol="100"/>
          <note pan="0" type="0" len="48" pos="888" key="67" vol="100"/>
          <note pan="0" type="0" len="72" pos="960" key="69" vol="100"/>
          <note pan="0" type="0" len="72" pos="1032" key="73" vol="100"/>
          <note pan="0" type="0" len="24" pos="1104" key="74" vol="100"/>
          <note pan="0" type="0" len="24" pos="1128" key="69" vol="100"/>
          <note pan="0" type="0" len="24" pos="1152" key="74" vol="100"/>
          <note pan="0" type="0" len="48" pos="1176" key="69" vol="100"/>
          <note pan="0" type="0" len="48" pos="1224" key="72" vol="100"/>
          <note pan="0" type="0" len="24" pos="1272" key="74" vol="100"/>
          <note pan="0" type="0" len="48" pos="1320" key="72" vol="100"/>
          <note pan="0" type="0" len="24" pos="1368" key="71" vol="100"/>
          <note pan="0" type="0" len="144" pos="1392" key="67" vol="100"/>
          <note pan="0" type="0" len="192" pos="1536" key="69" vol="100"/>
        </midiclip>
      </track>
      <track type="0" name="Acid" mutedBeforeSolo="0" muted="0" solo="0">
        <instrumenttrack pan="0" range_import="1" mixch="4" pitchrange="1" firstkey="0" keymap="0" usemasterpitch="1" scale="0" pitch="0" basenote="57" lastkey="127" enablecc="0" enabled="0" vol="100">
          <midicontrollers cc115="0" cc71="0" cc3="0" cc63="0" cc90="0" cc74="0" cc82="0" cc96="0" cc10="0" cc17="0" cc116="0" cc59="0" cc122="0" cc118="0" cc45="0" cc77="0" cc72="0" cc40="0" cc2="0" cc105="0" cc24="0" cc33="0" cc43="0" cc13="0" cc88="0" cc6="0" cc31="0" cc52="0" cc15="0" cc67="0" cc7="0" cc41="0" cc4="0" cc19="0" cc125="0" cc75="0" cc79="0" cc93="0" cc25="0" cc39="0" cc51="0" cc87="0" cc55="0" cc28="0" cc26="0" cc98="0" cc102="0" cc50="0" cc23="0" cc16="0" cc92="0" cc57="0" cc69="0" cc18="0" cc85="0" cc103="0" cc126="0" cc124="0" cc9="0" cc20="0" cc68="0" cc114="0" cc30="0" cc47="0" cc86="0" cc97="0" cc5="0" cc73="0" cc60="0" cc108="0" cc66="0" cc58="0" cc121="0" cc49="0" cc99="0" cc65="0" cc83="0" cc35="0" cc94="0" cc44="0" cc112="0" cc37="0" cc64="0" cc84="0" cc14="0" cc38="0" cc32="0" cc62="0" cc78="0" cc54="0" cc34="0" cc117="0" cc76="0" cc127="0" cc89="0" cc0="0" cc100="0" cc109="0" cc111="0" cc29="0" cc95="0" cc70="0" cc91="0" cc27="0" cc81="0" cc120="0" cc1="0" cc42="0" cc113="0" cc22="0" cc80="0" cc110="0" cc8="0" cc46="0" cc12="0" cc53="0" cc11="0" cc21="0" cc36="0" cc56="0" cc101="0" cc106="0" cc61="0" cc48="0" cc123="0" cc104="0" cc119="0" cc107="0"/>
          <instrument name="vestige">
            <vestige guivisible="0" program="0" plugin="uservst:Instruments/basscruncher/basscruncher.dll" chunk="zgANACsAAADQbQAAbzoAALVuAAD1WgAAkE4AAE8PAACqAQAAeGQAANQPAACQbwAAihEAACAPAABUTQAA4SEAANU4AABwGgAAthwAAJ1CAAChYQAARSYAAIVAAADjFQAAgkkAAN1iAACdHgAArHcAAJlYAACCLAAAAgYAAJFsAACULQAAPRkAADl4AAA9BQAA1BkAAC9cAACvGQAALQkAAAAAAAD6LwAAvxEAAP8LAADpJQAAgAAAAP/+/wlQAGEAdABjAGgAIAAgACAAMQD//v8JUABhAHQAYwBoACAAIAAgADIA//7/CVAAYQB0AGMAaAAgACAAIAAzAP/+/wlQAGEAdABjAGgAIAAgACAANAD//v8JUABhAHQAYwBoACAAIAAgADUA//7/CVAAYQB0AGMAaAAgACAAIAA2AP/+/wlQAGEAdABjAGgAIAAgACAANwD//v8JUABhAHQAYwBoACAAIAAgADgA//7/CVAAYQB0AGMAaAAgACAAIAA5AP/+/wlQAGEAdABjAGgAIAAgADEAMAD//v8JUABhAHQAYwBoACAAIAAxADEA//7/CVAAYQB0AGMAaAAgACAAMQAyAP/+/wlQAGEAdABjAGgAIAAgADEAMwD//v8JUABhAHQAYwBoACAAIAAxADQA//7/CVAAYQB0AGMAaAAgACAAMQA1AP/+/wlQAGEAdABjAGgAIAAgADEANgD//v8JUABhAHQAYwBoACAAIAAxADcA//7/CVAAYQB0AGMAaAAgACAAMQA4AP/+/wlQAGEAdABjAGgAIAAgADEAOQD//v8JUABhAHQAYwBoACAAIAAyADAA//7/CVAAYQB0AGMAaAAgACAAMgAxAP/+/wlQAGEAdABjAGgAIAAgADIAMgD//v8JUABhAHQAYwBoACAAIAAyADMA//7/CVAAYQB0AGMAaAAgACAAMgA0AP/+/wlQAGEAdABjAGgAIAAgADIANQD//v8JUABhAHQAYwBoACAAIAAyADYA//7/CVAAYQB0AGMAaAAgACAAMgA3AP/+/wlQAGEAdABjAGgAIAAgADIAOAD//v8JUABhAHQAYwBoACAAIAAyADkA//7/CVAAYQB0AGMAaAAgACAAMwAwAP/+/wlQAGEAdABjAGgAIAAgADMAMQD//v8JUABhAHQAYwBoACAAIAAzADIA//7/CVAAYQB0AGMAaAAgACAAMwAzAP/+/wlQAGEAdABjAGgAIAAgADMANAD//v8JUABhAHQAYwBoACAAIAAzADUA//7/CVAAYQB0AGMAaAAgACAAMwA2AP/+/wlQAGEAdABjAGgAIAAgADMANwD//v8JUABhAHQAYwBoACAAIAAzADgA//7/CVAAYQB0AGMAaAAgACAAMwA5AP/+/wlQAGEAdABjAGgAIAAgADQAMAD//v8JUABhAHQAYwBoACAAIAA0ADEA//7/CVAAYQB0AGMAaAAgACAANAAyAP/+/wlQAGEAdABjAGgAIAAgADQAMwD//v8JUABhAHQAYwBoACAAIAA0ADQA//7/CVAAYQB0AGMAaAAgACAANAA1AP/+/wlQAGEAdABjAGgAIAAgADQANgD//v8JUABhAHQAYwBoACAAIAA0ADcA//7/CVAAYQB0AGMAaAAgACAANAA4AP/+/wlQAGEAdABjAGgAIAAgADQAOQD//v8JUABhAHQAYwBoACAAIAA1ADAA//7/CVAAYQB0AGMAaAAgACAANQAxAP/+/wlQAGEAdABjAGgAIAAgADUAMgD//v8JUABhAHQAYwBoACAAIAA1ADMA//7/CVAAYQB0AGMAaAAgACAANQA0AP/+/wlQAGEAdABjAGgAIAAgADUANQD//v8JUABhAHQAYwBoACAAIAA1ADYA//7/CVAAYQB0AGMAaAAgACAANQA3AP/+/wlQAGEAdABjAGgAIAAgADUAOAD//v8JUABhAHQAYwBoACAAIAA1ADkA//7/CVAAYQB0AGMAaAAgACAANgAwAP/+/wlQAGEAdABjAGgAIAAgADYAMQD//v8JUABhAHQAYwBoACAAIAA2ADIA//7/CVAAYQB0AGMAaAAgACAANgAzAP/+/wlQAGEAdABjAGgAIAAgADYANAD//v8JUABhAHQAYwBoACAAIAA2ADUA//7/CVAAYQB0AGMAaAAgACAANgA2AP/+/wlQAGEAdABjAGgAIAAgADYANwD//v8JUABhAHQAYwBoACAAIAA2ADgA//7/CVAAYQB0AGMAaAAgACAANgA5AP/+/wlQAGEAdABjAGgAIAAgADcAMAD//v8JUABhAHQAYwBoACAAIAA3ADEA//7/CVAAYQB0AGMAaAAgACAANwAyAP/+/wlQAGEAdABjAGgAIAAgADcAMwD//v8JUABhAHQAYwBoACAAIAA3ADQA//7/CVAAYQB0AGMAaAAgACAANwA1AP/+/wlQAGEAdABjAGgAIAAgADcANgD//v8JUABhAHQAYwBoACAAIAA3ADcA//7/CVAAYQB0AGMAaAAgACAANwA4AP/+/wlQAGEAdABjAGgAIAAgADcAOQD//v8JUABhAHQAYwBoACAAIAA4ADAA//7/CVAAYQB0AGMAaAAgACAAOAAxAP/+/wlQAGEAdABjAGgAIAAgADgAMgD//v8JUABhAHQAYwBoACAAIAA4ADMA//7/CVAAYQB0AGMAaAAgACAAOAA0AP/+/wlQAGEAdABjAGgAIAAgADgANQD//v8JUABhAHQAYwBoACAAIAA4ADYA//7/CVAAYQB0AGMAaAAgACAAOAA3AP/+/wlQAGEAdABjAGgAIAAgADgAOAD//v8JUABhAHQAYwBoACAAIAA4ADkA//7/CVAAYQB0AGMAaAAgACAAOQAwAP/+/wlQAGEAdABjAGgAIAAgADkAMQD//v8JUABhAHQAYwBoACAAIAA5ADIA//7/CVAAYQB0AGMAaAAgACAAOQAzAP/+/wlQAGEAdABjAGgAIAAgADkANAD//v8JUABhAHQAYwBoACAAIAA5ADUA//7/CVAAYQB0AGMAaAAgACAAOQA2AP/+/wlQAGEAdABjAGgAIAAgADkANwD//v8JUABhAHQAYwBoACAAIAA5ADgA//7/CVAAYQB0AGMAaAAgACAAOQA5AP/+/wlQAGEAdABjAGgAIAAxADAAMAD//v8JUABhAHQAYwBoACAAMQAwADEA//7/CVAAYQB0AGMAaAAgADEAMAAyAP/+/wlQAGEAdABjAGgAIAAxADAAMwD//v8JUABhAHQAYwBoACAAMQAwADQA//7/CVAAYQB0AGMAaAAgADEAMAA1AP/+/wlQAGEAdABjAGgAIAAxADAANgD//v8JUABhAHQAYwBoACAAMQAwADcA//7/CVAAYQB0AGMAaAAgADEAMAA4AP/+/wlQAGEAdABjAGgAIAAxADAAOQD//v8JUABhAHQAYwBoACAAMQAxADAA//7/CVAAYQB0AGMAaAAgADEAMQAxAP/+/wlQAGEAdABjAGgAIAAxADEAMgD//v8JUABhAHQAYwBoACAAMQAxADMA//7/CVAAYQB0AGMAaAAgADEAMQA0AP/+/wlQAGEAdABjAGgAIAAxADEANQD//v8JUABhAHQAYwBoACAAMQAxADYA//7/CVAAYQB0AGMAaAAgADEAMQA3AP/+/wlQAGEAdABjAGgAIAAxADEAOAD//v8JUABhAHQAYwBoACAAMQAxADkA//7/CVAAYQB0AGMAaAAgADEAMgAwAP/+/wlQAGEAdABjAGgAIAAxADIAMQD//v8JUABhAHQAYwBoACAAMQAyADIA//7/CVAAYQB0AGMAaAAgADEAMgAzAP/+/wlQAGEAdABjAGgAIAAxADIANAD//v8JUABhAHQAYwBoACAAMQAyADUA//7/CVAAYQB0AGMAaAAgADEAMgA2AP/+/wlQAGEAdABjAGgAIAAxADIANwD//v8JUABhAHQAYwBoACAAMQAyADgABgAAAAEAAAAAAAAA///////+/wAGAAAAgAAAAAAAIEEAAAAAAAAAAAAAAAAAAAAAAAAAAAAAAAAAAAAAAAAAAAAAAAAAAAAAAAAAAAAAAAAAAAAAAAAAAAAAAAAAAAAAAAAAAAAAAAAAAAAAAAAAAAAAAAAAAAAAAAAAAAAAAAAAAAAAAAAAAAAAAAAAAAAAAAAAAAAAAAAAAAAAAAAAAAAAAAAAAAAAAAAAAAAAAAAAAAAAAAAAAAAAAAAAAAAAAAAAAAAAAAAAAAAAAAAAAAAAAAAAAAAAAAAAAAAAAAAAAAAAAAAAAAAAAAAAAAAAAAAAAAAAAAAAAAAAAAAAAAAAAAAAAAAAAAAAAAAAAAAAAAAAAAAAAAAAAAAAAAAAAAAAAAAAAAAAAAAAAAAAAAAAAAAAAAAAAAAAAAAAAAAAAAAAAAAAAAAAAAAAAAAAAAAAAAAAAAAAAAAAAAAAAAAAAAAAAAAAAAAAAAAAAAAAAAAAAAAAAAAAAAAAAAAAAAAAAAAAAAAAAAAAAAAAAAAAAAAAAAAAAAAAAAAAAAAAAAAAAAAAAAAAAAAAAAAAAAAAAAAAAAAAAAAAAAAAAAAAAAAAAAAAAAAAAAAAAAAAAAAAAAAAAAAAAAAAAAAAAAAAAAAAAAAAAAAAAAAAAAAAAAAAAAAAAAAAAAAAAAAAAAAAAAAAAAAAAAAAAAAAAAAAAAAAAAAAAAAA///////+/wAGAAAAAQAAAAAAAAD///////7/AAYAAAABAAAAAAAAAP///////v8ABgAAAIAAAAAAACBBAAAAAAAAAAAAAAAAAAAAAAAAAAAAAAAAAAAAAAAAAAAAAAAAAAAAAAAAAAAAAAAAAAAAAAAAAAAAAAAAAAAAAAAAAAAAAAAAAAAAAAAAAAAAAAAAAAAAAAAAAAAAAAAAAAAAAAAAAAAAAAAAAAAAAAAAAAAAAAAAAAAAAAAAAAAAAAAAAAAAAAAAAAAAAAAAAAAAAAAAAAAAAAAAAAAAAAAAAAAAAAAAAAAAAAAAAAAAAAAAAAAAAAAAAAAAAAAAAAAAAAAAAAAAAAAAAAAAAAAAAAAAAAAAAAAAAAAAAAAAAAAAAAAAAAAAAAAAAAAAAAAAAAAAAAAAAAAAAAAAAAAAAAAAAAAAAAAAAAAAAAAAAAAAAAAAAAAAAAAAAAAAAAAAAAAAAAAAAAAAAAAAAAAAAAAAAAAAAAAAAAAAAAAAAAAAAAAAAAAAAAAAAAAAAAAAAAAAAAAAAAAAAAAAAAAAAAAAAAAAAAAAAAAAAAAAAAAAAAAAAAAAAAAAAAAAAAAAAAAAAAAAAAAAAAAAAAAAAAAAAAAAAAAAAAAAAAAAAAAAAAAAAAAAAAAAAAAAAAAAAAAAAAAAAAAAAAAAAAAAAAAAAAAAAAAAAAAAAAAAAAAAAAAAAAAAAAAAAAAAAAAAAAAAAAAAAAAAAAAAAAAAAAAAAAAAAAAAAP///////v8ABgAAAAEAAAAAAAAA///////+/wAGAAAAAQAAAAAAAAD///////7/AAYAAAABAAAAAAAAAP///////v8ABgAAAAEAAAAAAAAA///////+/wAGAAAAgAAAAAAAAAAAAABBAAAAQQAAAEEAAABBAAAAQQAAAEEAAABBAAAAQQAAAEEAAABBAAAAQQAAAEEAAABBAAAAQQAAAEEAAABBAAAAQQAAAEEAAABBAAAAQQAAAEEAAABBAAAAQQAAAEEAAABBAAAAQQAAAEEAAABBAAAAQQAAAEEAAABBAAAAQQAAAEEAAABBAAAAQQAAAEEAAABBAAAAQQAAAEEAAABBAAAAQQAAAEEAAABBAAAAQQAAAEEAAABBAAAAQQAAAEEAAABBAAAAQQAAAEEAAABBAAAAQQAAAEEAAABBAAAAQQAAAEEAAABBAAAAQQAAAEEAAABBAAAAQQAAAEEAAABBAAAAQQAAAEEAAABBAAAAQQAAAEEAAABBAAAAQQAAAEEAAABBAAAAQQAAAEEAAABBAAAAQQAAAEEAAABBAAAAQQAAAEEAAABBAAAAQQAAAEEAAABBAAAAQQAAAEEAAABBAAAAQQAAAEEAAABBAAAAQQAAAEEAAABBAAAAQQAAAEEAAABBAAAAQQAAAEEAAABBAAAAQQAAAEEAAABBAAAAQQAAAEEAAABBAAAAQQAAAEEAAABBAAAAQQAAAEEAAABBAAAAQQAAAEEAAABBAAAAQQAAAEEAAABBAAAAQQAAAEEAAABBAAAAQQAAAEEAAABBAAAAQQAAAEEAAABB///////+/wAGAAAAAQAAAAAAAAD///////7/AAYAAACAAAAAAAAgQQAAAAAAAAAAAAAAAAAAAAAAAAAAAAAAAAAAAAAAAAAAAAAAAAAAAAAAAAAAAAAAAAAAAAAAAAAAAAAAAAAAAAAAAAAAAAAAAAAAAAAAAAAAAAAAAAAAAAAAAAAAAAAAAAAAAAAAAAAAAAAAAAAAAAAAAAAAAAAAAAAAAAAAAAAAAAAAAAAAAAAAAAAAAAAAAAAAAAAAAAAAAAAAAAAAAAAAAAAAAAAAAAAAAAAAAAAAAAAAAAAAAAAAAAAAAAAAAAAAAAAAAAAAAAAAAAAAAAAAAAAAAAAAAAAAAAAAAAAAAAAAAAAAAAAAAAAAAAAAAAAAAAAAAAAAAAAAAAAAAAAAAAAAAAAAAAAAAAAAAAAAAAAAAAAAAAAAAAAAAAAAAAAAAAAAAAAAAAAAAAAAAAAAAAAAAAAAAAAAAAAAAAAAAAAAAAAAAAAAAAAAAAAAAAAAAAAAAAAAAAAAAAAAAAAAAAAAAAAAAAAAAAAAAAAAAAAAAAAAAAAAAAAAAAAAAAAAAAAAAAAAAAAAAAAAAAAAAAAAAAAAAAAAAAAAAAAAAAAAAAAAAAAAAAAAAAAAAAAAAAAAAAAAAAAAAAAAAAAAAAAAAAAAAAAAAAAAAAAAAAAAAAAAAAAAAAAAAAAAAAAAAAAAAAAAAAAAAAAAAAAAAAAAAAAAAAAAAAD///////7/AAYAAACAAAAAAAAgQQAAAAAAAAAAAAAAAAAAAAAAAAAAAAAAAAAAAAAAAAAAAAAAAAAAAAAAAAAAAAAAAAAAAAAAAAAAAAAAAAAAAAAAAAAAAAAAAAAAAAAAAAAAAAAAAAAAAAAAAAAAAAAAAAAAAAAAAAAAAAAAAAAAAAAAAAAAAAAAAAAAAAAAAAAAAAAAAAAAAAAAAAAAAAAAAAAAAAAAAAAAAAAAAAAAAAAAAAAAAAAAAAAAAAAAAAAAAAAAAAAAAAAAAAAAAAAAAAAAAAAAAAAAAAAAAAAAAAAAAAAAAAAAAAAAAAAAAAAAAAAAAAAAAAAAAAAAAAAAAAAAAAAAAAAAAAAAAAAAAAAAAAAAAAAAAAAAAAAAAAAAAAAAAAAAAAAAAAAAAAAAAAAAAAAAAAAAAAAAAAAAAAAAAAAAAAAAAAAAAAAAAAAAAAAAAAAAAAAAAAAAAAAAAAAAAAAAAAAAAAAAAAAAAAAAAAAAAAAAAAAAAAAAAAAAAAAAAAAAAAAAAAAAAAAAAAAAAAAAAAAAAAAAAAAAAAAAAAAAAAAAAAAAAAAAAAAAAAAAAAAAAAAAAAAAAAAAAAAAAAAAAAAAAAAAAAAAAAAAAAAAAAAAAAAAAAAAAAAAAAAAAAAAAAAAAAAAAAAAAAAAAAAAAAAAAAAAAAAAAAAAAAAAAAAAAAAAAAD///////7/AAYAAACAAAAAAAAgQQAAAAAAAAAAAAAAAAAAAAAAAAAAAAAAAAAAAAAAAAAAAAAAAAAAAAAAAAAAAAAAAAAAAAAAAAAAAAAAAAAAAAAAAAAAAAAAAAAAAAAAAAAAAAAAAAAAAAAAAAAAAAAAAAAAAAAAAAAAAAAAAAAAAAAAAAAAAAAAAAAAAAAAAAAAAAAAAAAAAAAAAAAAAAAAAAAAAAAAAAAAAAAAAAAAAAAAAAAAAAAAAAAAAAAAAAAAAAAAAAAAAAAAAAAAAAAAAAAAAAAAAAAAAAAAAAAAAAAAAAAAAAAAAAAAAAAAAAAAAAAAAAAAAAAAAAAAAAAAAAAAAAAAAAAAAAAAAAAAAAAAAAAAAAAAAAAAAAAAAAAAAAAAAAAAAAAAAAAAAAAAAAAAAAAAAAAAAAAAAAAAAAAAAAAAAAAAAAAAAAAAAAAAAAAAAAAAAAAAAAAAAAAAAAAAAAAAAAAAAAAAAAAAAAAAAAAAAAAAAAAAAAAAAAAAAAAAAAAAAAAAAAAAAAAAAAAAAAAAAAAAAAAAAAAAAAAAAAAAAAAAAAAAAAAAAAAAAAAAAAAAAAAAAAAAAAAAAAAAAAAAAAAAAAAAAAAAAAAAAAAAAAAAAAAAAAAAAAAAAAAAAAAAAAAAAAAAAAAAAAAAAAAAAAAAAAAAAAAAAAAAAAAAAAAAAAAAAAD///////7/AAYAAACAAAAAOAngQAAAAAAAAAAAAAAAAAAAAAAAAAAAAAAAAAAAAAAAAAAAAAAAAAAAAAAAAAAAAAAAAAAAAAAAAAAAAAAAAAAAAAAAAAAAAAAAAAAAAAAAAAAAAAAAAAAAAAAAAAAAAAAAAAAAAAAAAAAAAAAAAAAAAAAAAAAAAAAAAAAAAAAAAAAAAAAAAAAAAAAAAAAAAAAAAAAAAAAAAAAAAAAAAAAAAAAAAAAAAAAAAAAAAAAAAAAAAAAAAAAAAAAAAAAAAAAAAAAAAAAAAAAAAAAAAAAAAAAAAAAAAAAAAAAAAAAAAAAAAAAAAAAAAAAAAAAAAAAAAAAAAAAAAAAAAAAAAAAAAAAAAAAAAAAAAAAAAAAAAAAAAAAAAAAAAAAAAAAAAAAAAAAAAAAAAAAAAAAAAAAAAAAAAAAAAAAAAAAAAAAAAAAAAAAAAAAAAAAAAAAAAAAAAAAAAAAAAAAAAAAAAAAAAAAAAAAAAAAAAAAAAAAAAAAAAAAAAAAAAAAAAAAAAAAAAAAAAAAAAAAAAAAAAAAAAAAAAAAAAAAAAAAAAAAAAAAAAAAAAAAAAAAAAAAAAAAAAAAAAAAAAAAAAAAAAAAAAAAAAAAAAAAAAAAAAAAAAAAAAAAAAAAAAAAAAAAAAAAAAAAAAAAAAAAAAAAAAAAAAAAAAAAAAAAAAAAAAAD///////7/AAYAAACAAAAAAAAgQQAAAAAAAAAAAAAAAAAAAAAAAAAAAAAAAAAAAAAAAAAAAAAAAAAAAAAAAAAAAAAAAAAAAAAAAAAAAAAAAAAAAAAAAAAAAAAAAAAAAAAAAAAAAAAAAAAAAAAAAAAAAAAAAAAAAAAAAAAAAAAAAAAAAAAAAAAAAAAAAAAAAAAAAAAAAAAAAAAAAAAAAAAAAAAAAAAAAAAAAAAAAAAAAAAAAAAAAAAAAAAAAAAAAAAAAAAAAAAAAAAAAAAAAAAAAAAAAAAAAAAAAAAAAAAAAAAAAAAAAAAAAAAAAAAAAAAAAAAAAAAAAAAAAAAAAAAAAAAAAAAAAAAAAAAAAAAAAAAAAAAAAAAAAAAAAAAAAAAAAAAAAAAAAAAAAAAAAAAAAAAAAAAAAAAAAAAAAAAAAAAAAAAAAAAAAAAAAAAAAAAAAAAAAAAAAAAAAAAAAAAAAAAAAAAAAAAAAAAAAAAAAAAAAAAAAAAAAAAAAAAAAAAAAAAAAAAAAAAAAAAAAAAAAAAAAAAAAAAAAAAAAAAAAAAAAAAAAAAAAAAAAAAAAAAAAAAAAAAAAAAAAAAAAAAAAAAAAAAAAAAAAAAAAAAAAAAAAAAAAAAAAAAAAAAAAAAAAAAAAAAAAAAAAAAAAAAAAAAAAAAAAAAAAAAAAAAAAAAAAAAAAAAAAAAAAAAAAAD///////7/AAYAAACAAAAAAADwQgAA8EIAAPBCAADwQgAA8EIAAPBCAADwQgAA8EIAAPBCAADwQgAA8EIAAPBCAADwQgAA8EIAAPBCAADwQgAA8EIAAPBCAADwQgAA8EIAAPBCAADwQgAA8EIAAPBCAADwQgAA8EIAAPBCAADwQgAA8EIAAPBCAADwQgAA8EIAAPBCAADwQgAA8EIAAPBCAADwQgAA8EIAAPBCAADwQgAA8EIAAPBCAADwQgAA8EIAAPBCAADwQgAA8EIAAPBCAADwQgAA8EIAAPBCAADwQgAA8EIAAPBCAADwQgAA8EIAAPBCAADwQgAA8EIAAPBCAADwQgAA8EIAAPBCAADwQgAA8EIAAPBCAADwQgAA8EIAAPBCAADwQgAA8EIAAPBCAADwQgAA8EIAAPBCAADwQgAA8EIAAPBCAADwQgAA8EIAAPBCAADwQgAA8EIAAPBCAADwQgAA8EIAAPBCAADwQgAA8EIAAPBCAADwQgAA8EIAAPBCAADwQgAA8EIAAPBCAADwQgAA8EIAAPBCAADwQgAA8EIAAPBCAADwQgAA8EIAAPBCAADwQgAA8EIAAPBCAADwQgAA8EIAAPBCAADwQgAA8EIAAPBCAADwQgAA8EIAAPBCAADwQgAA8EIAAPBCAADwQgAA8EIAAPBCAADwQgAA8EIAAPBCAADwQgAA8EL///////7/AAYAAACAAAAAAAAgQQAAAAAAAAAAAAAAAAAAAAAAAAAAAAAAAAAAAAAAAAAAAAAAAAAAAAAAAAAAAAAAAAAAAAAAAAAAAAAAAAAAAAAAAAAAAAAAAAAAAAAAAAAAAAAAAAAAAAAAAAAAAAAAAAAAAAAAAAAAAAAAAAAAAAAAAAAAAAAAAAAAAAAAAAAAAAAAAAAAAAAAAAAAAAAAAAAAAAAAAAAAAAAAAAAAAAAAAAAAAAAAAAAAAAAAAAAAAAAAAAAAAAAAAAAAAAAAAAAAAAAAAAAAAAAAAAAAAAAAAAAAAAAAAAAAAAAAAAAAAAAAAAAAAAAAAAAAAAAAAAAAAAAAAAAAAAAAAAAAAAAAAAAAAAAAAAAAAAAAAAAAAAAAAAAAAAAAAAAAAAAAAAAAAAAAAAAAAAAAAAAAAAAAAAAAAAAAAAAAAAAAAAAAAAAAAAAAAAAAAAAAAAAAAAAAAAAAAAAAAAAAAAAAAAAAAAAAAAAAAAAAAAAAAAAAAAAAAAAAAAAAAAAAAAAAAAAAAAAAAAAAAAAAAAAAAAAAAAAAAAAAAAAAAAAAAAAAAAAAAAAAAAAAAAAAAAAAAAAAAAAAAAAAAAAAAAAAAAAAAAAAAAAAAAAAAAAAAAAAAAAAAAAAAAAAAAAAAAAAAAAAAAAAAAAAAAAAAAAAAAAAAAAAAAAAAAAAAAD///////7/AAYAAACAAAAAlderQAAAAAAAAAAAAAAAAAAAAAAAAAAAAAAAAAAAAAAAAAAAAAAAAAAAAAAAAAAAAAAAAAAAAAAAAAAAAAAAAAAAAAAAAAAAAAAAAAAAAAAAAAAAAAAAAAAAAAAAAAAAAAAAAAAAAAAAAAAAAAAAAAAAAAAAAAAAAAAAAAAAAAAAAAAAAAAAAAAAAAAAAAAAAAAAAAAAAAAAAAAAAAAAAAAAAAAAAAAAAAAAAAAAAAAAAAAAAAAAAAAAAAAAAAAAAAAAAAAAAAAAAAAAAAAAAAAAAAAAAAAAAAAAAAAAAAAAAAAAAAAAAAAAAAAAAAAAAAAAAAAAAAAAAAAAAAAAAAAAAAAAAAAAAAAAAAAAAAAAAAAAAAAAAAAAAAAAAAAAAAAAAAAAAAAAAAAAAAAAAAAAAAAAAAAAAAAAAAAAAAAAAAAAAAAAAAAAAAAAAAAAAAAAAAAAAAAAAAAAAAAAAAAAAAAAAAAAAAAAAAAAAAAAAAAAAAAAAAAAAAAAAAAAAAAAAAAAAAAAAAAAAAAAAAAAAAAAAAAAAAAAAAAAAAAAAAAAAAAAAAAAAAAAAAAAAAAAAAAAAAAAAAAAAAAAAAAAAAAAAAAAAAAAAAAAAAAAAAAAAAAAAAAAAAAAAAAAAAAAAAAAAAAAAAAAAAAAAAAAAAAAAAAAAAAAAAAAAAD///////7/AAYAAAABAAAAAAAAAP///////v8ABgAAAIAAAAAAACBBAAAAAAAAAAAAAAAAAAAAAAAAAAAAAAAAAAAAAAAAAAAAAAAAAAAAAAAAAAAAAAAAAAAAAAAAAAAAAAAAAAAAAAAAAAAAAAAAAAAAAAAAAAAAAAAAAAAAAAAAAAAAAAAAAAAAAAAAAAAAAAAAAAAAAAAAAAAAAAAAAAAAAAAAAAAAAAAAAAAAAAAAAAAAAAAAAAAAAAAAAAAAAAAAAAAAAAAAAAAAAAAAAAAAAAAAAAAAAAAAAAAAAAAAAAAAAAAAAAAAAAAAAAAAAAAAAAAAAAAAAAAAAAAAAAAAAAAAAAAAAAAAAAAAAAAAAAAAAAAAAAAAAAAAAAAAAAAAAAAAAAAAAAAAAAAAAAAAAAAAAAAAAAAAAAAAAAAAAAAAAAAAAAAAAAAAAAAAAAAAAAAAAAAAAAAAAAAAAAAAAAAAAAAAAAAAAAAAAAAAAAAAAAAAAAAAAAAAAAAAAAAAAAAAAAAAAAAAAAAAAAAAAAAAAAAAAAAAAAAAAAAAAAAAAAAAAAAAAAAAAAAAAAAAAAAAAAAAAAAAAAAAAAAAAAAAAAAAAAAAAAAAAAAAAAAAAAAAAAAAAAAAAAAAAAAAAAAAAAAAAAAAAAAAAAAAAAAAAAAAAAAAAAAAAAAAAAAAAAAAAAAAAAAAAAAAAAAAAAAAAAAAAAAAAAAAAAAAAP///////v8ABgAAAIAAAAAAACBBAAAAAAAAAAAAAAAAAAAAAAAAAAAAAAAAAAAAAAAAAAAAAAAAAAAAAAAAAAAAAAAAAAAAAAAAAAAAAAAAAAAAAAAAAAAAAAAAAAAAAAAAAAAAAAAAAAAAAAAAAAAAAAAAAAAAAAAAAAAAAAAAAAAAAAAAAAAAAAAAAAAAAAAAAAAAAAAAAAAAAAAAAAAAAAAAAAAAAAAAAAAAAAAAAAAAAAAAAAAAAAAAAAAAAAAAAAAAAAAAAAAAAAAAAAAAAAAAAAAAAAAAAAAAAAAAAAAAAAAAAAAAAAAAAAAAAAAAAAAAAAAAAAAAAAAAAAAAAAAAAAAAAAAAAAAAAAAAAAAAAAAAAAAAAAAAAAAAAAAAAAAAAAAAAAAAAAAAAAAAAAAAAAAAAAAAAAAAAAAAAAAAAAAAAAAAAAAAAAAAAAAAAAAAAAAAAAAAAAAAAAAAAAAAAAAAAAAAAAAAAAAAAAAAAAAAAAAAAAAAAAAAAAAAAAAAAAAAAAAAAAAAAAAAAAAAAAAAAAAAAAAAAAAAAAAAAAAAAAAAAAAAAAAAAAAAAAAAAAAAAAAAAAAAAAAAAAAAAAAAAAAAAAAAAAAAAAAAAAAAAAAAAAAAAAAAAAAAAAAAAAAAAAAAAAAAAAAAAAAAAAAAAAAAAAAAAAAAAAAAAAAAAAAAAAAAAAAAAP///////v8ABgAAAIAAAAAAACBBAAAAAAAAAAAAAAAAAAAAAAAAAAAAAAAAAAAAAAAAAAAAAAAAAAAAAAAAAAAAAAAAAAAAAAAAAAAAAAAAAAAAAAAAAAAAAAAAAAAAAAAAAAAAAAAAAAAAAAAAAAAAAAAAAAAAAAAAAAAAAAAAAAAAAAAAAAAAAAAAAAAAAAAAAAAAAAAAAAAAAAAAAAAAAAAAAAAAAAAAAAAAAAAAAAAAAAAAAAAAAAAAAAAAAAAAAAAAAAAAAAAAAAAAAAAAAAAAAAAAAAAAAAAAAAAAAAAAAAAAAAAAAAAAAAAAAAAAAAAAAAAAAAAAAAAAAAAAAAAAAAAAAAAAAAAAAAAAAAAAAAAAAAAAAAAAAAAAAAAAAAAAAAAAAAAAAAAAAAAAAAAAAAAAAAAAAAAAAAAAAAAAAAAAAAAAAAAAAAAAAAAAAAAAAAAAAAAAAAAAAAAAAAAAAAAAAAAAAAAAAAAAAAAAAAAAAAAAAAAAAAAAAAAAAAAAAAAAAAAAAAAAAAAAAAAAAAAAAAAAAAAAAAAAAAAAAAAAAAAAAAAAAAAAAAAAAAAAAAAAAAAAAAAAAAAAAAAAAAAAAAAAAAAAAAAAAAAAAAAAAAAAAAAAAAAAAAAAAAAAAAAAAAAAAAAAAAAAAAAAAAAAAAAAAAAAAAAAAAAAAAAAAAAAAAAAAAAAAP///////v8ABgAAAIAAAAAAACBBAAAAAAAAAAAAAAAAAAAAAAAAAAAAAAAAAAAAAAAAAAAAAAAAAAAAAAAAAAAAAAAAAAAAAAAAAAAAAAAAAAAAAAAAAAAAAAAAAAAAAAAAAAAAAAAAAAAAAAAAAAAAAAAAAAAAAAAAAAAAAAAAAAAAAAAAAAAAAAAAAAAAAAAAAAAAAAAAAAAAAAAAAAAAAAAAAAAAAAAAAAAAAAAAAAAAAAAAAAAAAAAAAAAAAAAAAAAAAAAAAAAAAAAAAAAAAAAAAAAAAAAAAAAAAAAAAAAAAAAAAAAAAAAAAAAAAAAAAAAAAAAAAAAAAAAAAAAAAAAAAAAAAAAAAAAAAAAAAAAAAAAAAAAAAAAAAAAAAAAAAAAAAAAAAAAAAAAAAAAAAAAAAAAAAAAAAAAAAAAAAAAAAAAAAAAAAAAAAAAAAAAAAAAAAAAAAAAAAAAAAAAAAAAAAAAAAAAAAAAAAAAAAAAAAAAAAAAAAAAAAAAAAAAAAAAAAAAAAAAAAAAAAAAAAAAAAAAAAAAAAAAAAAAAAAAAAAAAAAAAAAAAAAAAAAAAAAAAAAAAAAAAAAAAAAAAAAAAAAAAAAAAAAAAAAAAAAAAAAAAAAAAAAAAAAAAAAAAAAAAAAAAAAAAAAAAAAAAAAAAAAAAAAAAAAAAAAAAAAAAAAAAAAAAAAAAAAAAAP///////v8ABgAAAIAAAAAAAKDAAAAAAAAAAAAAAAAAAAAAAAAAAAAAAAAAAAAAAAAAAAAAAAAAAAAAAAAAAAAAAAAAAAAAAAAAAAAAAAAAAAAAAAAAAAAAAAAAAAAAAAAAAAAAAAAAAAAAAAAAAAAAAAAAAAAAAAAAAAAAAAAAAAAAAAAAAAAAAAAAAAAAAAAAAAAAAAAAAAAAAAAAAAAAAAAAAAAAAAAAAAAAAAAAAAAAAAAAAAAAAAAAAAAAAAAAAAAAAAAAAAAAAAAAAAAAAAAAAAAAAAAAAAAAAAAAAAAAAAAAAAAAAAAAAAAAAAAAAAAAAAAAAAAAAAAAAAAAAAAAAAAAAAAAAAAAAAAAAAAAAAAAAAAAAAAAAAAAAAAAAAAAAAAAAAAAAAAAAAAAAAAAAAAAAAAAAAAAAAAAAAAAAAAAAAAAAAAAAAAAAAAAAAAAAAAAAAAAAAAAAAAAAAAAAAAAAAAAAAAAAAAAAAAAAAAAAAAAAAAAAAAAAAAAAAAAAAAAAAAAAAAAAAAAAAAAAAAAAAAAAAAAAAAAAAAAAAAAAAAAAAAAAAAAAAAAAAAAAAAAAAAAAAAAAAAAAAAAAAAAAAAAAAAAAAAAAAAAAAAAAAAAAAAAAAAAAAAAAAAAAAAAAAAAAAAAAAAAAAAAAAAAAAAAAAAAAAAAAAAAAAAAAAAAAAAAAAAAAP///////v8ABgAAAIAAAAAAACBBAAAAAAAAAAAAAAAAAAAAAAAAAAAAAAAAAAAAAAAAAAAAAAAAAAAAAAAAAAAAAAAAAAAAAAAAAAAAAAAAAAAAAAAAAAAAAAAAAAAAAAAAAAAAAAAAAAAAAAAAAAAAAAAAAAAAAAAAAAAAAAAAAAAAAAAAAAAAAAAAAAAAAAAAAAAAAAAAAAAAAAAAAAAAAAAAAAAAAAAAAAAAAAAAAAAAAAAAAAAAAAAAAAAAAAAAAAAAAAAAAAAAAAAAAAAAAAAAAAAAAAAAAAAAAAAAAAAAAAAAAAAAAAAAAAAAAAAAAAAAAAAAAAAAAAAAAAAAAAAAAAAAAAAAAAAAAAAAAAAAAAAAAAAAAAAAAAAAAAAAAAAAAAAAAAAAAAAAAAAAAAAAAAAAAAAAAAAAAAAAAAAAAAAAAAAAAAAAAAAAAAAAAAAAAAAAAAAAAAAAAAAAAAAAAAAAAAAAAAAAAAAAAAAAAAAAAAAAAAAAAAAAAAAAAAAAAAAAAAAAAAAAAAAAAAAAAAAAAAAAAAAAAAAAAAAAAAAAAAAAAAAAAAAAAAAAAAAAAAAAAAAAAAAAAAAAAAAAAAAAAAAAAAAAAAAAAAAAAAAAAAAAAAAAAAAAAAAAAAAAAAAAAAAAAAAAAAAAAAAAAAAAAAAAAAAAAAAAAAAAAAAAAAAAAAAAAAAAAP///////v8ABgAAAIAAAAAAACBBAAAAAAAAAAAAAAAAAAAAAAAAAAAAAAAAAAAAAAAAAAAAAAAAAAAAAAAAAAAAAAAAAAAAAAAAAAAAAAAAAAAAAAAAAAAAAAAAAAAAAAAAAAAAAAAAAAAAAAAAAAAAAAAAAAAAAAAAAAAAAAAAAAAAAAAAAAAAAAAAAAAAAAAAAAAAAAAAAAAAAAAAAAAAAAAAAAAAAAAAAAAAAAAAAAAAAAAAAAAAAAAAAAAAAAAAAAAAAAAAAAAAAAAAAAAAAAAAAAAAAAAAAAAAAAAAAAAAAAAAAAAAAAAAAAAAAAAAAAAAAAAAAAAAAAAAAAAAAAAAAAAAAAAAAAAAAAAAAAAAAAAAAAAAAAAAAAAAAAAAAAAAAAAAAAAAAAAAAAAAAAAAAAAAAAAAAAAAAAAAAAAAAAAAAAAAAAAAAAAAAAAAAAAAAAAAAAAAAAAAAAAAAAAAAAAAAAAAAAAAAAAAAAAAAAAAAAAAAAAAAAAAAAAAAAAAAAAAAAAAAAAAAAAAAAAAAAAAAAAAAAAAAAAAAAAAAAAAAAAAAAAAAAAAAAAAAAAAAAAAAAAAAAAAAAAAAAAAAAAAAAAAAAAAAAAAAAAAAAAAAAAAAAAAAAAAAAAAAAAAAAAAAAAAAAAAAAAAAAAAAAAAAAAAAAAAAAAAAAAAAAAAAAAAAAAAAAAAAP///////v8ABgAAAIAAAAAAACBBAAAAAAAAAAAAAAAAAAAAAAAAAAAAAAAAAAAAAAAAAAAAAAAAAAAAAAAAAAAAAAAAAAAAAAAAAAAAAAAAAAAAAAAAAAAAAAAAAAAAAAAAAAAAAAAAAAAAAAAAAAAAAAAAAAAAAAAAAAAAAAAAAAAAAAAAAAAAAAAAAAAAAAAAAAAAAAAAAAAAAAAAAAAAAAAAAAAAAAAAAAAAAAAAAAAAAAAAAAAAAAAAAAAAAAAAAAAAAAAAAAAAAAAAAAAAAAAAAAAAAAAAAAAAAAAAAAAAAAAAAAAAAAAAAAAAAAAAAAAAAAAAAAAAAAAAAAAAAAAAAAAAAAAAAAAAAAAAAAAAAAAAAAAAAAAAAAAAAAAAAAAAAAAAAAAAAAAAAAAAAAAAAAAAAAAAAAAAAAAAAAAAAAAAAAAAAAAAAAAAAAAAAAAAAAAAAAAAAAAAAAAAAAAAAAAAAAAAAAAAAAAAAAAAAAAAAAAAAAAAAAAAAAAAAAAAAAAAAAAAAAAAAAAAAAAAAAAAAAAAAAAAAAAAAAAAAAAAAAAAAAAAAAAAAAAAAAAAAAAAAAAAAAAAAAAAAAAAAAAAAAAAAAAAAAAAAAAAAAAAAAAAAAAAAAAAAAAAAAAAAAAAAAAAAAAAAAAAAAAAAAAAAAAAAAAAAAAAAAAAAAAAAAAAAAAAAAAAAP///////v8ABgAAAIAAAAAAACBBAAAAAAAAAAAAAAAAAAAAAAAAAAAAAAAAAAAAAAAAAAAAAAAAAAAAAAAAAAAAAAAAAAAAAAAAAAAAAAAAAAAAAAAAAAAAAAAAAAAAAAAAAAAAAAAAAAAAAAAAAAAAAAAAAAAAAAAAAAAAAAAAAAAAAAAAAAAAAAAAAAAAAAAAAAAAAAAAAAAAAAAAAAAAAAAAAAAAAAAAAAAAAAAAAAAAAAAAAAAAAAAAAAAAAAAAAAAAAAAAAAAAAAAAAAAAAAAAAAAAAAAAAAAAAAAAAAAAAAAAAAAAAAAAAAAAAAAAAAAAAAAAAAAAAAAAAAAAAAAAAAAAAAAAAAAAAAAAAAAAAAAAAAAAAAAAAAAAAAAAAAAAAAAAAAAAAAAAAAAAAAAAAAAAAAAAAAAAAAAAAAAAAAAAAAAAAAAAAAAAAAAAAAAAAAAAAAAAAAAAAAAAAAAAAAAAAAAAAAAAAAAAAAAAAAAAAAAAAAAAAAAAAAAAAAAAAAAAAAAAAAAAAAAAAAAAAAAAAAAAAAAAAAAAAAAAAAAAAAAAAAAAAAAAAAAAAAAAAAAAAAAAAAAAAAAAAAAAAAAAAAAAAAAAAAAAAAAAAAAAAAAAAAAAAAAAAAAAAAAAAAAAAAAAAAAAAAAAAAAAAAAAAAAAAAAAAAAAAAAAAAAAAAAAAAAAAAAAAP///////v8ABgAAAIAAAAAAACBBAAAAAAAAAAAAAAAAAAAAAAAAAAAAAAAAAAAAAAAAAAAAAAAAAAAAAAAAAAAAAAAAAAAAAAAAAAAAAAAAAAAAAAAAAAAAAAAAAAAAAAAAAAAAAAAAAAAAAAAAAAAAAAAAAAAAAAAAAAAAAAAAAAAAAAAAAAAAAAAAAAAAAAAAAAAAAAAAAAAAAAAAAAAAAAAAAAAAAAAAAAAAAAAAAAAAAAAAAAAAAAAAAAAAAAAAAAAAAAAAAAAAAAAAAAAAAAAAAAAAAAAAAAAAAAAAAAAAAAAAAAAAAAAAAAAAAAAAAAAAAAAAAAAAAAAAAAAAAAAAAAAAAAAAAAAAAAAAAAAAAAAAAAAAAAAAAAAAAAAAAAAAAAAAAAAAAAAAAAAAAAAAAAAAAAAAAAAAAAAAAAAAAAAAAAAAAAAAAAAAAAAAAAAAAAAAAAAAAAAAAAAAAAAAAAAAAAAAAAAAAAAAAAAAAAAAAAAAAAAAAAAAAAAAAAAAAAAAAAAAAAAAAAAAAAAAAAAAAAAAAAAAAAAAAAAAAAAAAAAAAAAAAAAAAAAAAAAAAAAAAAAAAAAAAAAAAAAAAAAAAAAAAAAAAAAAAAAAAAAAAAAAAAAAAAAAAAAAAAAAAAAAAAAAAAAAAAAAAAAAAAAAAAAAAAAAAAAAAAAAAAAAAAAAAAAAAAAAAP///////v8AAAAAAIAAAAAAAAAAAAAAAAAAAAAAAAAAAAAAAAAAAAAAAAAAAAAAAAAAAAAAAAAAAAAAAAAAAAAAAAAAAAAAAAAAAAAAAAAAAAAAAAAAAAAAAAAAAAAAAAAAAAAAAAAAAAAAAAAAAAAAAAAAAAAAAAAAAAAAAAAAAAAAAAAAAAAAAAAAAAAAAAAAAAAAAAAAAAAAAAAAAAAAAAAAAAAAAAAAAAAAAAAAAAAAAAAAAAAAAAAAAAAAAAAAAAAAAAAAAAAAAAAAAAAAAAAAAAAAAAAAAAAAAAAAAAAAAAAAAAAAAAAAAAAAAAAAAAAAAAAAAAAAAAAAAAAAAAAAAAAAAAAAAAAAAAAAAAAAAAAAAAAAAAAAAAAAAAAAAAAAAAAAAAAAAAAAAAAAAAAAAAAAAAAAAAAAAAAAAAAAAAAAAAAAAAAAAAAAAAAAAAAAAAAAAAAAAAAAAAAAAAAAAAAAAAAAAAAAAAAAAAAAAAAAAAAAAAAAAAAAAAAAAAAAAAAAAAAAAAAAAAAAAAAAAAAAAAAAAAAAAAAAAAAAAAAAAAAAAAAAAAAAAAAAAAAAAAAAAAAAAAAAAAAAAAAAAAAAAAAAAAAAAAAAAAAAAAAAAAAAAAAAAAAAAAAAAAAAAAAAAAAAAAAAAAAAAAAAAAAAAAAAAAAAAAAAAAAAAAAAAAAAAAAAAAAAAP///////v8ABgAAAAEAAAAAAAAA///////+/wAGAAAAgAAAAPf/T0AAAAAAAAAAAAAAAAAAAAAAAAAAAAAAAAAAAAAAAAAAAAAAAAAAAAAAAAAAAAAAAAAAAAAAAAAAAAAAAAAAAAAAAAAAAAAAAAAAAAAAAAAAAAAAAAAAAAAAAAAAAAAAAAAAAAAAAAAAAAAAAAAAAAAAAAAAAAAAAAAAAAAAAAAAAAAAAAAAAAAAAAAAAAAAAAAAAAAAAAAAAAAAAAAAAAAAAAAAAAAAAAAAAAAAAAAAAAAAAAAAAAAAAAAAAAAAAAAAAAAAAAAAAAAAAAAAAAAAAAAAAAAAAAAAAAAAAAAAAAAAAAAAAAAAAAAAAAAAAAAAAAAAAAAAAAAAAAAAAAAAAAAAAAAAAAAAAAAAAAAAAAAAAAAAAAAAAAAAAAAAAAAAAAAAAAAAAAAAAAAAAAAAAAAAAAAAAAAAAAAAAAAAAAAAAAAAAAAAAAAAAAAAAAAAAAAAAAAAAAAAAAAAAAAAAAAAAAAAAAAAAAAAAAAAAAAAAAAAAAAAAAAAAAAAAAAAAAAAAAAAAAAAAAAAAAAAAAAAAAAAAAAAAAAAAAAAAAAAAAAAAAAAAAAAAAAAAAAAAAAAAAAAAAAAAAAAAAAAAAAAAAAAAAAAAAAAAAAAAAAAAAAAAAAAAAAAAAAAAAAAAAAAAAAAAAAAAAAAAAAAAAAAAAAAAAAAAAAA///////+/wAGAAAAAQAAAAAAAAD///////7/AAYAAAABAAAAAAAAAP///////v8ABgAAAAEAAAAAAAAA///////+/wAGAAAAgAAAAAAAIEEAAAAAAAAAAAAAAAAAAAAAAAAAAAAAAAAAAAAAAAAAAAAAAAAAAAAAAAAAAAAAAAAAAAAAAAAAAAAAAAAAAAAAAAAAAAAAAAAAAAAAAAAAAAAAAAAAAAAAAAAAAAAAAAAAAAAAAAAAAAAAAAAAAAAAAAAAAAAAAAAAAAAAAAAAAAAAAAAAAAAAAAAAAAAAAAAAAAAAAAAAAAAAAAAAAAAAAAAAAAAAAAAAAAAAAAAAAAAAAAAAAAAAAAAAAAAAAAAAAAAAAAAAAAAAAAAAAAAAAAAAAAAAAAAAAAAAAAAAAAAAAAAAAAAAAAAAAAAAAAAAAAAAAAAAAAAAAAAAAAAAAAAAAAAAAAAAAAAAAAAAAAAAAAAAAAAAAAAAAAAAAAAAAAAAAAAAAAAAAAAAAAAAAAAAAAAAAAAAAAAAAAAAAAAAAAAAAAAAAAAAAAAAAAAAAAAAAAAAAAAAAAAAAAAAAAAAAAAAAAAAAAAAAAAAAAAAAAAAAAAAAAAAAAAAAAAAAAAAAAAAAAAAAAAAAAAAAAAAAAAAAAAAAAAAAAAAAAAAAAAAAAAAAAAAAAAAAAAAAAAAAAAAAAAAAAAAAAAAAAAAAAAAAAAAAAAAAAAAAAAAAAAAAAAAAAAAAAAAAAAAAAAAAAAAAAAAAAAAAAAAAAAAAAAAAAAAAAAA///////+/wAGAAAAgAAAAAAAoEAAAAAAAAAAAAAAAAAAAAAAAAAAAAAAAAAAAAAAAAAAAAAAAAAAAAAAAAAAAAAAAAAAAAAAAAAAAAAAAAAAAAAAAAAAAAAAAAAAAAAAAAAAAAAAAAAAAAAAAAAAAAAAAAAAAAAAAAAAAAAAAAAAAAAAAAAAAAAAAAAAAAAAAAAAAAAAAAAAAAAAAAAAAAAAAAAAAAAAAAAAAAAAAAAAAAAAAAAAAAAAAAAAAAAAAAAAAAAAAAAAAAAAAAAAAAAAAAAAAAAAAAAAAAAAAAAAAAAAAAAAAAAAAAAAAAAAAAAAAAAAAAAAAAAAAAAAAAAAAAAAAAAAAAAAAAAAAAAAAAAAAAAAAAAAAAAAAAAAAAAAAAAAAAAAAAAAAAAAAAAAAAAAAAAAAAAAAAAAAAAAAAAAAAAAAAAAAAAAAAAAAAAAAAAAAAAAAAAAAAAAAAAAAAAAAAAAAAAAAAAAAAAAAAAAAAAAAAAAAAAAAAAAAAAAAAAAAAAAAAAAAAAAAAAAAAAAAAAAAAAAAAAAAAAAAAAAAAAAAAAAAAAAAAAAAAAAAAAAAAAAAAAAAAAAAAAAAAAAAAAAAAAAAAAAAAAAAAAAAAAAAAAAAAAAAAAAAAAAAAAAAAAAAAAAAAAAAAAAAAAAAAAAAAAAAAAAAAAAAAAAAAAAAAAAAAAAAAAA///////+/wAGAAAAAQAAAAAAIEL///////7/AAYAAACAAAAADzCAQAAAAAAAAAAAAAAAAAAAAAAAAAAAAAAAAAAAAAAAAAAAAAAAAAAAAAAAAAAAAAAAAAAAAAAAAAAAAAAAAAAAAAAAAAAAAAAAAAAAAAAAAAAAAAAAAAAAAAAAAAAAAAAAAAAAAAAAAAAAAAAAAAAAAAAAAAAAAAAAAAAAAAAAAAAAAAAAAAAAAAAAAAAAAAAAAAAAAAAAAAAAAAAAAAAAAAAAAAAAAAAAAAAAAAAAAAAAAAAAAAAAAAAAAAAAAAAAAAAAAAAAAAAAAAAAAAAAAAAAAAAAAAAAAAAAAAAAAAAAAAAAAAAAAAAAAAAAAAAAAAAAAAAAAAAAAAAAAAAAAAAAAAAAAAAAAAAAAAAAAAAAAAAAAAAAAAAAAAAAAAAAAAAAAAAAAAAAAAAAAAAAAAAAAAAAAAAAAAAAAAAAAAAAAAAAAAAAAAAAAAAAAAAAAAAAAAAAAAAAAAAAAAAAAAAAAAAAAAAAAAAAAAAAAAAAAAAAAAAAAAAAAAAAAAAAAAAAAAAAAAAAAAAAAAAAAAAAAAAAAAAAAAAAAAAAAAAAAAAAAAAAAAAAAAAAAAAAAAAAAAAAAAAAAAAAAAAAAAAAAAAAAAAAAAAAAAAAAAAAAAAAAAAAAAAAAAAAAAAAAAAAAAAAAAAAAAAAAAAAAAAAAAAAAAAAAAAAAAD///////7/AAYAAACAAAAAq+vcQAAAAAAAAAAAAAAAAAAAAAAAAAAAAAAAAAAAAAAAAAAAAAAAAAAAAAAAAAAAAAAAAAAAAAAAAAAAAAAAAAAAAAAAAAAAAAAAAAAAAAAAAAAAAAAAAAAAAAAAAAAAAAAAAAAAAAAAAAAAAAAAAAAAAAAAAAAAAAAAAAAAAAAAAAAAAAAAAAAAAAAAAAAAAAAAAAAAAAAAAAAAAAAAAAAAAAAAAAAAAAAAAAAAAAAAAAAAAAAAAAAAAAAAAAAAAAAAAAAAAAAAAAAAAAAAAAAAAAAAAAAAAAAAAAAAAAAAAAAAAAAAAAAAAAAAAAAAAAAAAAAAAAAAAAAAAAAAAAAAAAAAAAAAAAAAAAAAAAAAAAAAAAAAAAAAAAAAAAAAAAAAAAAAAAAAAAAAAAAAAAAAAAAAAAAAAAAAAAAAAAAAAAAAAAAAAAAAAAAAAAAAAAAAAAAAAAAAAAAAAAAAAAAAAAAAAAAAAAAAAAAAAAAAAAAAAAAAAAAAAAAAAAAAAAAAAAAAAAAAAAAAAAAAAAAAAAAAAAAAAAAAAAAAAAAAAAAAAAAAAAAAAAAAAAAAAAAAAAAAAAAAAAAAAAAAAAAAAAAAAAAAAAAAAAAAAAAAAAAAAAAAAAAAAAAAAAAAAAAAAAAAAAAAAAAAAAAAAAAAAAAAAAAAAAAAAAAAAAD///////7/AAYAAAABAAAAAAAAAP///////v8ABgAAAAEAAAAAAAAA///////+/wA=">
              <key/>
            </vestige>
          </instrument>
          <eldata ftype="0" fres="0.5" fcut="14000" fwet="0">
            <elvol pdel="0" lshp="0" lspd_numerator="4" rel="0.1" ctlenvamt="0" lspd_denominator="4" dec="0.5" hold="0.5" lamt="0" lpdel="0" x100="0" userwavefile="" amt="0" latt="0" sustain="0.5" lspd_syncmode="0" att="0" lspd="0.1"/>
            <elcut pdel="0" lshp="0" lspd_numerator="4" rel="0.1" ctlenvamt="0" lspd_denominator="4" dec="0.5" hold="0.5" lamt="0" lpdel="0" x100="0" userwavefile="" amt="0" latt="0" sustain="0.5" lspd_syncmode="0" att="0" lspd="0.1"/>
            <elres pdel="0" lshp="0" lspd_numerator="4" rel="0.1" ctlenvamt="0" lspd_denominator="4" dec="0.5" hold="0.5" lamt="0" lpdel="0" x100="0" userwavefile="" amt="0" latt="0" sustain="0.5" lspd_syncmode="0" att="0" lspd="0.1"/>
          </eldata>
          <chordcreator chord="0" chordrange="1" chord-enabled="0"/>
          <arpeggiator arprange="1" arpdir="0" arpskip="0" arpmode="0" arpmiss="0" arptime="200" arpgate="100" arptime_numerator="4" arp-enabled="0" arpcycle="0" arptime_denominator="4" arptime_syncmode="0" arprepeats="1" arp="0"/>
          <midiport inputcontroller="0" fixedoutputvelocity="-1" readable="1" fixedoutputnote="-1" basevelocity="63" fixedinputvelocity="-1" inports="" inputchannel="0" outputchannel="1" writable="0" outputcontroller="0" outputprogram="1"/>
          <fxchain numofeffects="0" enabled="0"/>
        </instrumenttrack>
        <midiclip type="1" autoresize="1" name="" off="0" len="1536" pos="1920" muted="0" steps="16">
          <note pan="0" type="0" len="10" pos="0" key="34" vol="100"/>
          <note pan="0" type="0" len="10" pos="24" key="34" vol="100"/>
          <note pan="0" type="0" len="10" pos="48" key="29" vol="100"/>
          <note pan="0" type="0" len="10" pos="72" key="33" vol="100"/>
          <note pan="0" type="0" len="10" pos="96" key="34" vol="100"/>
          <note pan="0" type="0" len="10" pos="120" key="34" vol="100"/>
          <note pan="0" type="0" len="10" pos="144" key="36" vol="100"/>
          <note pan="0" type="0" len="10" pos="168" key="38" vol="100"/>
          <note pan="0" type="0" len="10" pos="192" key="33" vol="100"/>
          <note pan="0" type="0" len="10" pos="216" key="33" vol="100"/>
          <note pan="0" type="0" len="10" pos="240" key="28" vol="100"/>
          <note pan="0" type="0" len="10" pos="264" key="31" vol="100"/>
          <note pan="0" type="0" len="10" pos="288" key="33" vol="100"/>
          <note pan="0" type="0" len="10" pos="312" key="33" vol="100"/>
          <note pan="0" type="0" len="10" pos="336" key="35" vol="100"/>
          <note pan="0" type="0" len="10" pos="360" key="37" vol="100"/>
          <note pan="0" type="0" len="10" pos="384" key="38" vol="100"/>
          <note pan="0" type="0" len="10" pos="408" key="38" vol="100"/>
          <note pan="0" type="0" len="10" pos="432" key="26" vol="100"/>
          <note pan="0" type="0" len="10" pos="456" key="29" vol="100"/>
          <note pan="0" type="0" len="10" pos="480" key="31" vol="100"/>
          <note pan="0" type="0" len="10" pos="504" key="31" vol="100"/>
          <note pan="0" type="0" len="10" pos="528" key="33" vol="100"/>
          <note pan="0" type="0" len="10" pos="552" key="35" vol="100"/>
          <note pan="0" type="0" len="10" pos="576" key="31" vol="100"/>
          <note pan="0" type="0" len="10" pos="600" key="31" vol="100"/>
          <note pan="0" type="0" len="10" pos="624" key="35" vol="100"/>
          <note pan="0" type="0" len="10" pos="648" key="38" vol="100"/>
          <note pan="0" type="0" len="10" pos="672" key="26" vol="100"/>
          <note pan="0" type="0" len="10" pos="696" key="26" vol="100"/>
          <note pan="0" type="0" len="10" pos="720" key="29" vol="100"/>
          <note pan="0" type="0" len="10" pos="744" key="31" vol="100"/>
          <note pan="0" type="0" len="10" pos="768" key="34" vol="100"/>
          <note pan="0" type="0" len="10" pos="792" key="34" vol="100"/>
          <note pan="0" type="0" len="10" pos="816" key="29" vol="100"/>
          <note pan="0" type="0" len="10" pos="840" key="31" vol="100"/>
          <note pan="0" type="0" len="10" pos="864" key="34" vol="100"/>
          <note pan="0" type="0" len="10" pos="888" key="34" vol="100"/>
          <note pan="0" type="0" len="10" pos="912" key="36" vol="100"/>
          <note pan="0" type="0" len="10" pos="936" key="38" vol="100"/>
          <note pan="0" type="0" len="10" pos="960" key="33" vol="100"/>
          <note pan="0" type="0" len="10" pos="984" key="33" vol="100"/>
          <note pan="0" type="0" len="10" pos="1008" key="28" vol="100"/>
          <note pan="0" type="0" len="10" pos="1032" key="31" vol="100"/>
          <note pan="0" type="0" len="10" pos="1056" key="33" vol="100"/>
          <note pan="0" type="0" len="10" pos="1080" key="33" vol="100"/>
          <note pan="0" type="0" len="10" pos="1104" key="35" vol="100"/>
          <note pan="0" type="0" len="10" pos="1128" key="37" vol="100"/>
          <note pan="0" type="0" len="10" pos="1152" key="38" vol="100"/>
          <note pan="0" type="0" len="10" pos="1176" key="26" vol="100"/>
          <note pan="0" type="0" len="22" pos="1200" key="26" vol="100"/>
          <note pan="0" type="0" len="10" pos="1224" key="38" vol="100"/>
          <note pan="0" type="0" len="10" pos="1248" key="26" vol="100"/>
          <note pan="0" type="0" len="22" pos="1272" key="26" vol="100"/>
          <note pan="0" type="0" len="10" pos="1296" key="38" vol="100"/>
          <note pan="0" type="0" len="22" pos="1320" key="26" vol="100"/>
          <note pan="0" type="0" len="10" pos="1344" key="31" vol="100"/>
          <note pan="0" type="0" len="10" pos="1368" key="31" vol="100"/>
          <note pan="0" type="0" len="10" pos="1392" key="26" vol="100"/>
          <note pan="0" type="0" len="10" pos="1416" key="29" vol="100"/>
          <note pan="0" type="0" len="10" pos="1440" key="31" vol="100"/>
          <note pan="0" type="0" len="10" pos="1464" key="31" vol="100"/>
          <note pan="0" type="0" len="10" pos="1488" key="33" vol="100"/>
          <note pan="0" type="0" len="10" pos="1512" key="36" vol="100"/>
        </midiclip>
        <midiclip type="1" autoresize="1" name="" off="0" len="192" pos="384" muted="0" steps="16">
          <note pan="0" type="0" len="10" pos="0" key="38" vol="100"/>
          <note pan="0" type="0" len="10" pos="24" key="38" vol="100"/>
          <note pan="0" type="0" len="10" pos="48" key="33" vol="100"/>
          <note pan="0" type="0" len="10" pos="72" key="36" vol="100"/>
          <note pan="0" type="0" len="10" pos="96" key="38" vol="100"/>
          <note pan="0" type="0" len="10" pos="120" key="38" vol="100"/>
          <note pan="0" type="0" len="10" pos="144" key="40" vol="100"/>
          <note pan="0" type="0" len="10" pos="168" key="41" vol="100"/>
        </midiclip>
        <midiclip type="1" autoresize="1" name="" off="0" len="192" pos="576" muted="0" steps="16">
          <note pan="0" type="0" len="10" pos="0" key="38" vol="100"/>
          <note pan="0" type="0" len="10" pos="24" key="38" vol="100"/>
          <note pan="0" type="0" len="10" pos="48" key="33" vol="100"/>
          <note pan="0" type="0" len="10" pos="72" key="36" vol="100"/>
          <note pan="0" type="0" len="10" pos="96" key="38" vol="100"/>
          <note pan="0" type="0" len="10" pos="120" key="38" vol="100"/>
          <note pan="0" type="0" len="10" pos="144" key="40" vol="100"/>
          <note pan="0" type="0" len="10" pos="168" key="41" vol="100"/>
        </midiclip>
        <midiclip type="1" autoresize="1" name="" off="0" len="192" pos="768" muted="0" steps="16">
          <note pan="0" type="0" len="10" pos="0" key="38" vol="100"/>
          <note pan="0" type="0" len="10" pos="24" key="38" vol="100"/>
          <note pan="0" type="0" len="10" pos="48" key="33" vol="100"/>
          <note pan="0" type="0" len="10" pos="72" key="36" vol="100"/>
          <note pan="0" type="0" len="10" pos="96" key="38" vol="100"/>
          <note pan="0" type="0" len="10" pos="120" key="38" vol="100"/>
          <note pan="0" type="0" len="10" pos="144" key="40" vol="100"/>
          <note pan="0" type="0" len="10" pos="168" key="41" vol="100"/>
        </midiclip>
        <midiclip type="1" autoresize="1" name="" off="0" len="192" pos="960" muted="0" steps="16">
          <note pan="0" type="0" len="10" pos="0" key="38" vol="100"/>
          <note pan="0" type="0" len="10" pos="24" key="38" vol="100"/>
          <note pan="0" type="0" len="10" pos="48" key="33" vol="100"/>
          <note pan="0" type="0" len="10" pos="72" key="36" vol="100"/>
          <note pan="0" type="0" len="10" pos="96" key="38" vol="100"/>
          <note pan="0" type="0" len="10" pos="120" key="38" vol="100"/>
          <note pan="0" type="0" len="10" pos="144" key="40" vol="100"/>
          <note pan="0" type="0" len="10" pos="168" key="41" vol="100"/>
        </midiclip>
        <midiclip type="1" autoresize="1" name="" off="0" len="192" pos="1152" muted="0" steps="16">
          <note pan="0" type="0" len="10" pos="0" key="38" vol="100"/>
          <note pan="0" type="0" len="10" pos="24" key="38" vol="100"/>
          <note pan="0" type="0" len="10" pos="48" key="33" vol="100"/>
          <note pan="0" type="0" len="10" pos="72" key="36" vol="100"/>
          <note pan="0" type="0" len="10" pos="96" key="38" vol="100"/>
          <note pan="0" type="0" len="10" pos="120" key="38" vol="100"/>
          <note pan="0" type="0" len="10" pos="144" key="40" vol="100"/>
          <note pan="0" type="0" len="10" pos="168" key="41" vol="100"/>
        </midiclip>
        <midiclip type="1" autoresize="1" name="" off="0" len="192" pos="1344" muted="0" steps="16">
          <note pan="0" type="0" len="10" pos="0" key="38" vol="100"/>
          <note pan="0" type="0" len="10" pos="24" key="38" vol="100"/>
          <note pan="0" type="0" len="10" pos="48" key="33" vol="100"/>
          <note pan="0" type="0" len="10" pos="72" key="36" vol="100"/>
          <note pan="0" type="0" len="10" pos="96" key="38" vol="100"/>
          <note pan="0" type="0" len="10" pos="120" key="38" vol="100"/>
          <note pan="0" type="0" len="10" pos="144" key="40" vol="100"/>
          <note pan="0" type="0" len="10" pos="168" key="41" vol="100"/>
        </midiclip>
        <midiclip type="1" autoresize="1" name="" off="0" len="192" pos="1536" muted="0" steps="16">
          <note pan="0" type="0" len="10" pos="0" key="38" vol="100"/>
          <note pan="0" type="0" len="10" pos="24" key="38" vol="100"/>
          <note pan="0" type="0" len="10" pos="48" key="33" vol="100"/>
          <note pan="0" type="0" len="10" pos="72" key="36" vol="100"/>
          <note pan="0" type="0" len="10" pos="96" key="38" vol="100"/>
          <note pan="0" type="0" len="10" pos="120" key="38" vol="100"/>
          <note pan="0" type="0" len="10" pos="144" key="40" vol="100"/>
          <note pan="0" type="0" len="10" pos="168" key="41" vol="100"/>
        </midiclip>
        <midiclip type="1" autoresize="1" name="" off="0" len="192" pos="1728" muted="0" steps="16">
          <note pan="0" type="0" len="10" pos="0" key="38" vol="100"/>
          <note pan="0" type="0" len="10" pos="24" key="38" vol="100"/>
          <note pan="0" type="0" len="10" pos="48" key="33" vol="100"/>
          <note pan="0" type="0" len="10" pos="72" key="36" vol="100"/>
          <note pan="0" type="0" len="10" pos="96" key="38" vol="100"/>
          <note pan="0" type="0" len="10" pos="120" key="38" vol="100"/>
          <note pan="0" type="0" len="10" pos="144" key="40" vol="100"/>
          <note pan="0" type="0" len="10" pos="168" key="41" vol="100"/>
        </midiclip>
        <midiclip type="1" autoresize="1" name="" off="0" len="1536" pos="3456" muted="0" steps="16">
          <note pan="0" type="0" len="10" pos="0" key="34" vol="100"/>
          <note pan="0" type="0" len="10" pos="24" key="34" vol="100"/>
          <note pan="0" type="0" len="10" pos="48" key="29" vol="100"/>
          <note pan="0" type="0" len="10" pos="72" key="33" vol="100"/>
          <note pan="0" type="0" len="10" pos="96" key="34" vol="100"/>
          <note pan="0" type="0" len="10" pos="120" key="34" vol="100"/>
          <note pan="0" type="0" len="10" pos="144" key="36" vol="100"/>
          <note pan="0" type="0" len="10" pos="168" key="38" vol="100"/>
          <note pan="0" type="0" len="10" pos="192" key="33" vol="100"/>
          <note pan="0" type="0" len="10" pos="216" key="33" vol="100"/>
          <note pan="0" type="0" len="10" pos="240" key="28" vol="100"/>
          <note pan="0" type="0" len="10" pos="264" key="31" vol="100"/>
          <note pan="0" type="0" len="10" pos="288" key="33" vol="100"/>
          <note pan="0" type="0" len="10" pos="312" key="33" vol="100"/>
          <note pan="0" type="0" len="10" pos="336" key="35" vol="100"/>
          <note pan="0" type="0" len="10" pos="360" key="37" vol="100"/>
          <note pan="0" type="0" len="10" pos="384" key="38" vol="100"/>
          <note pan="0" type="0" len="10" pos="408" key="38" vol="100"/>
          <note pan="0" type="0" len="10" pos="432" key="26" vol="100"/>
          <note pan="0" type="0" len="10" pos="456" key="29" vol="100"/>
          <note pan="0" type="0" len="10" pos="480" key="31" vol="100"/>
          <note pan="0" type="0" len="10" pos="504" key="31" vol="100"/>
          <note pan="0" type="0" len="10" pos="528" key="33" vol="100"/>
          <note pan="0" type="0" len="10" pos="552" key="35" vol="100"/>
          <note pan="0" type="0" len="10" pos="576" key="31" vol="100"/>
          <note pan="0" type="0" len="10" pos="600" key="31" vol="100"/>
          <note pan="0" type="0" len="10" pos="624" key="35" vol="100"/>
          <note pan="0" type="0" len="10" pos="648" key="38" vol="100"/>
          <note pan="0" type="0" len="10" pos="672" key="26" vol="100"/>
          <note pan="0" type="0" len="10" pos="696" key="26" vol="100"/>
          <note pan="0" type="0" len="10" pos="720" key="29" vol="100"/>
          <note pan="0" type="0" len="10" pos="744" key="31" vol="100"/>
          <note pan="0" type="0" len="10" pos="768" key="34" vol="100"/>
          <note pan="0" type="0" len="10" pos="792" key="34" vol="100"/>
          <note pan="0" type="0" len="10" pos="816" key="29" vol="100"/>
          <note pan="0" type="0" len="10" pos="840" key="31" vol="100"/>
          <note pan="0" type="0" len="10" pos="864" key="34" vol="100"/>
          <note pan="0" type="0" len="10" pos="888" key="34" vol="100"/>
          <note pan="0" type="0" len="10" pos="912" key="36" vol="100"/>
          <note pan="0" type="0" len="10" pos="936" key="38" vol="100"/>
          <note pan="0" type="0" len="10" pos="960" key="33" vol="100"/>
          <note pan="0" type="0" len="10" pos="984" key="33" vol="100"/>
          <note pan="0" type="0" len="10" pos="1008" key="28" vol="100"/>
          <note pan="0" type="0" len="10" pos="1032" key="31" vol="100"/>
          <note pan="0" type="0" len="10" pos="1056" key="33" vol="100"/>
          <note pan="0" type="0" len="10" pos="1080" key="33" vol="100"/>
          <note pan="0" type="0" len="10" pos="1104" key="35" vol="100"/>
          <note pan="0" type="0" len="10" pos="1128" key="37" vol="100"/>
          <note pan="0" type="0" len="10" pos="1152" key="38" vol="100"/>
          <note pan="0" type="0" len="10" pos="1176" key="26" vol="100"/>
          <note pan="0" type="0" len="22" pos="1200" key="26" vol="100"/>
          <note pan="0" type="0" len="10" pos="1224" key="38" vol="100"/>
          <note pan="0" type="0" len="10" pos="1248" key="26" vol="100"/>
          <note pan="0" type="0" len="22" pos="1272" key="26" vol="100"/>
          <note pan="0" type="0" len="10" pos="1296" key="38" vol="100"/>
          <note pan="0" type="0" len="22" pos="1320" key="26" vol="100"/>
          <note pan="0" type="0" len="10" pos="1344" key="31" vol="100"/>
          <note pan="0" type="0" len="10" pos="1368" key="31" vol="100"/>
          <note pan="0" type="0" len="10" pos="1392" key="26" vol="100"/>
          <note pan="0" type="0" len="10" pos="1416" key="29" vol="100"/>
          <note pan="0" type="0" len="10" pos="1440" key="31" vol="100"/>
          <note pan="0" type="0" len="10" pos="1464" key="31" vol="100"/>
          <note pan="0" type="0" len="10" pos="1488" key="33" vol="100"/>
          <note pan="0" type="0" len="10" pos="1512" key="36" vol="100"/>
        </midiclip>
        <midiclip type="1" autoresize="1" name="" off="0" len="192" pos="4992" muted="0" steps="16">
          <note pan="0" type="0" len="10" pos="0" key="38" vol="100"/>
          <note pan="0" type="0" len="10" pos="24" key="38" vol="100"/>
          <note pan="0" type="0" len="10" pos="48" key="33" vol="100"/>
          <note pan="0" type="0" len="10" pos="72" key="36" vol="100"/>
          <note pan="0" type="0" len="10" pos="96" key="38" vol="100"/>
          <note pan="0" type="0" len="10" pos="120" key="38" vol="100"/>
          <note pan="0" type="0" len="10" pos="144" key="40" vol="100"/>
          <note pan="0" type="0" len="10" pos="168" key="41" vol="100"/>
        </midiclip>
        <midiclip type="1" autoresize="1" name="" off="0" len="192" pos="5184" muted="0" steps="16">
          <note pan="0" type="0" len="10" pos="0" key="38" vol="100"/>
          <note pan="0" type="0" len="10" pos="24" key="38" vol="100"/>
          <note pan="0" type="0" len="10" pos="48" key="33" vol="100"/>
          <note pan="0" type="0" len="10" pos="72" key="36" vol="100"/>
          <note pan="0" type="0" len="10" pos="96" key="38" vol="100"/>
          <note pan="0" type="0" len="10" pos="120" key="38" vol="100"/>
          <note pan="0" type="0" len="10" pos="144" key="40" vol="100"/>
          <note pan="0" type="0" len="10" pos="168" key="41" vol="100"/>
        </midiclip>
        <midiclip type="1" autoresize="1" name="" off="0" len="192" pos="5376" muted="0" steps="16">
          <note pan="0" type="0" len="10" pos="0" key="38" vol="100"/>
          <note pan="0" type="0" len="10" pos="24" key="38" vol="100"/>
          <note pan="0" type="0" len="10" pos="48" key="33" vol="100"/>
          <note pan="0" type="0" len="10" pos="72" key="36" vol="100"/>
          <note pan="0" type="0" len="10" pos="96" key="38" vol="100"/>
          <note pan="0" type="0" len="10" pos="120" key="38" vol="100"/>
          <note pan="0" type="0" len="10" pos="144" key="40" vol="100"/>
          <note pan="0" type="0" len="10" pos="168" key="41" vol="100"/>
        </midiclip>
        <midiclip type="1" autoresize="1" name="" off="0" len="192" pos="5568" muted="0" steps="16">
          <note pan="0" type="0" len="10" pos="0" key="38" vol="100"/>
          <note pan="0" type="0" len="10" pos="24" key="38" vol="100"/>
          <note pan="0" type="0" len="10" pos="48" key="33" vol="100"/>
          <note pan="0" type="0" len="10" pos="72" key="36" vol="100"/>
          <note pan="0" type="0" len="10" pos="96" key="38" vol="100"/>
          <note pan="0" type="0" len="10" pos="120" key="38" vol="100"/>
          <note pan="0" type="0" len="10" pos="144" key="40" vol="100"/>
          <note pan="0" type="0" len="10" pos="168" key="41" vol="100"/>
        </midiclip>
        <midiclip type="1" autoresize="1" name="" off="0" len="192" pos="5760" muted="0" steps="16">
          <note pan="0" type="0" len="10" pos="0" key="38" vol="100"/>
          <note pan="0" type="0" len="10" pos="24" key="38" vol="100"/>
          <note pan="0" type="0" len="10" pos="48" key="33" vol="100"/>
          <note pan="0" type="0" len="10" pos="72" key="36" vol="100"/>
          <note pan="0" type="0" len="10" pos="96" key="38" vol="100"/>
          <note pan="0" type="0" len="10" pos="120" key="38" vol="100"/>
          <note pan="0" type="0" len="10" pos="144" key="40" vol="100"/>
          <note pan="0" type="0" len="10" pos="168" key="41" vol="100"/>
        </midiclip>
        <midiclip type="1" autoresize="1" name="" off="0" len="192" pos="5952" muted="0" steps="16">
          <note pan="0" type="0" len="10" pos="0" key="38" vol="100"/>
          <note pan="0" type="0" len="10" pos="24" key="38" vol="100"/>
          <note pan="0" type="0" len="10" pos="48" key="33" vol="100"/>
          <note pan="0" type="0" len="10" pos="72" key="36" vol="100"/>
          <note pan="0" type="0" len="10" pos="96" key="38" vol="100"/>
          <note pan="0" type="0" len="10" pos="120" key="38" vol="100"/>
          <note pan="0" type="0" len="10" pos="144" key="40" vol="100"/>
          <note pan="0" type="0" len="10" pos="168" key="41" vol="100"/>
        </midiclip>
        <midiclip type="1" autoresize="1" name="" off="0" len="192" pos="6144" muted="0" steps="16">
          <note pan="0" type="0" len="10" pos="0" key="38" vol="100"/>
          <note pan="0" type="0" len="10" pos="24" key="38" vol="100"/>
          <note pan="0" type="0" len="10" pos="48" key="33" vol="100"/>
          <note pan="0" type="0" len="10" pos="72" key="36" vol="100"/>
          <note pan="0" type="0" len="10" pos="96" key="38" vol="100"/>
          <note pan="0" type="0" len="10" pos="120" key="38" vol="100"/>
          <note pan="0" type="0" len="10" pos="144" key="40" vol="100"/>
          <note pan="0" type="0" len="10" pos="168" key="41" vol="100"/>
        </midiclip>
        <midiclip type="1" autoresize="1" name="" off="0" len="192" pos="6336" muted="0" steps="16">
          <note pan="0" type="0" len="10" pos="0" key="38" vol="100"/>
          <note pan="0" type="0" len="10" pos="24" key="38" vol="100"/>
          <note pan="0" type="0" len="10" pos="48" key="33" vol="100"/>
          <note pan="0" type="0" len="10" pos="72" key="36" vol="100"/>
          <note pan="0" type="0" len="10" pos="96" key="38" vol="100"/>
          <note pan="0" type="0" len="10" pos="120" key="38" vol="100"/>
          <note pan="0" type="0" len="10" pos="144" key="40" vol="100"/>
          <note pan="0" type="0" len="10" pos="168" key="41" vol="100"/>
        </midiclip>
        <midiclip type="1" autoresize="1" name="" off="0" len="192" pos="6528" muted="0" steps="16">
          <note pan="0" type="0" len="10" pos="0" key="38" vol="100"/>
          <note pan="0" type="0" len="10" pos="24" key="38" vol="100"/>
          <note pan="0" type="0" len="10" pos="48" key="33" vol="100"/>
          <note pan="0" type="0" len="10" pos="72" key="36" vol="100"/>
          <note pan="0" type="0" len="10" pos="96" key="38" vol="100"/>
          <note pan="0" type="0" len="10" pos="120" key="38" vol="100"/>
          <note pan="0" type="0" len="10" pos="144" key="40" vol="100"/>
          <note pan="0" type="0" len="10" pos="168" key="41" vol="100"/>
        </midiclip>
        <midiclip type="1" autoresize="1" name="" off="0" len="192" pos="6720" muted="0" steps="16">
          <note pan="0" type="0" len="10" pos="0" key="38" vol="100"/>
          <note pan="0" type="0" len="10" pos="24" key="38" vol="100"/>
          <note pan="0" type="0" len="10" pos="48" key="33" vol="100"/>
          <note pan="0" type="0" len="10" pos="72" key="36" vol="100"/>
          <note pan="0" type="0" len="10" pos="96" key="38" vol="100"/>
          <note pan="0" type="0" len="10" pos="120" key="38" vol="100"/>
          <note pan="0" type="0" len="10" pos="144" key="40" vol="100"/>
          <note pan="0" type="0" len="10" pos="168" key="41" vol="100"/>
        </midiclip>
        <midiclip type="1" autoresize="1" name="" off="0" len="192" pos="6912" muted="0" steps="16">
          <note pan="0" type="0" len="10" pos="0" key="38" vol="100"/>
          <note pan="0" type="0" len="10" pos="24" key="38" vol="100"/>
          <note pan="0" type="0" len="10" pos="48" key="33" vol="100"/>
          <note pan="0" type="0" len="10" pos="72" key="36" vol="100"/>
          <note pan="0" type="0" len="10" pos="96" key="38" vol="100"/>
          <note pan="0" type="0" len="10" pos="120" key="38" vol="100"/>
          <note pan="0" type="0" len="10" pos="144" key="40" vol="100"/>
          <note pan="0" type="0" len="10" pos="168" key="41" vol="100"/>
        </midiclip>
        <midiclip type="1" autoresize="1" name="" off="0" len="192" pos="7104" muted="0" steps="16">
          <note pan="0" type="0" len="10" pos="0" key="38" vol="100"/>
          <note pan="0" type="0" len="10" pos="24" key="38" vol="100"/>
          <note pan="0" type="0" len="10" pos="48" key="33" vol="100"/>
          <note pan="0" type="0" len="10" pos="72" key="36" vol="100"/>
          <note pan="0" type="0" len="10" pos="96" key="38" vol="100"/>
          <note pan="0" type="0" len="10" pos="120" key="38" vol="100"/>
          <note pan="0" type="0" len="10" pos="144" key="40" vol="100"/>
          <note pan="0" type="0" len="10" pos="168" key="41" vol="100"/>
        </midiclip>
        <midiclip type="1" autoresize="1" name="" off="0" len="192" pos="7296" muted="0" steps="16">
          <note pan="0" type="0" len="10" pos="0" key="38" vol="100"/>
          <note pan="0" type="0" len="10" pos="24" key="38" vol="100"/>
          <note pan="0" type="0" len="10" pos="48" key="33" vol="100"/>
          <note pan="0" type="0" len="10" pos="72" key="36" vol="100"/>
          <note pan="0" type="0" len="10" pos="96" key="38" vol="100"/>
          <note pan="0" type="0" len="10" pos="120" key="38" vol="100"/>
          <note pan="0" type="0" len="10" pos="144" key="40" vol="100"/>
          <note pan="0" type="0" len="10" pos="168" key="41" vol="100"/>
        </midiclip>
        <midiclip type="1" autoresize="1" name="" off="0" len="192" pos="7488" muted="0" steps="16">
          <note pan="0" type="0" len="10" pos="0" key="38" vol="100"/>
          <note pan="0" type="0" len="10" pos="24" key="38" vol="100"/>
          <note pan="0" type="0" len="10" pos="48" key="33" vol="100"/>
          <note pan="0" type="0" len="10" pos="72" key="36" vol="100"/>
          <note pan="0" type="0" len="10" pos="96" key="38" vol="100"/>
          <note pan="0" type="0" len="10" pos="120" key="38" vol="100"/>
          <note pan="0" type="0" len="10" pos="144" key="40" vol="100"/>
          <note pan="0" type="0" len="10" pos="168" key="41" vol="100"/>
        </midiclip>
        <midiclip type="1" autoresize="1" name="" off="0" len="192" pos="7680" muted="0" steps="16">
          <note pan="0" type="0" len="10" pos="0" key="38" vol="100"/>
          <note pan="0" type="0" len="10" pos="24" key="38" vol="100"/>
          <note pan="0" type="0" len="10" pos="48" key="33" vol="100"/>
          <note pan="0" type="0" len="10" pos="72" key="36" vol="100"/>
          <note pan="0" type="0" len="10" pos="96" key="38" vol="100"/>
          <note pan="0" type="0" len="10" pos="120" key="38" vol="100"/>
          <note pan="0" type="0" len="10" pos="144" key="40" vol="100"/>
          <note pan="0" type="0" len="10" pos="168" key="41" vol="100"/>
        </midiclip>
        <midiclip type="1" autoresize="1" name="" off="0" len="192" pos="7872" muted="0" steps="16">
          <note pan="0" type="0" len="10" pos="0" key="38" vol="100"/>
          <note pan="0" type="0" len="10" pos="24" key="38" vol="100"/>
          <note pan="0" type="0" len="10" pos="48" key="33" vol="100"/>
          <note pan="0" type="0" len="10" pos="72" key="36" vol="100"/>
          <note pan="0" type="0" len="10" pos="96" key="38" vol="100"/>
          <note pan="0" type="0" len="10" pos="120" key="38" vol="100"/>
          <note pan="0" type="0" len="10" pos="144" key="40" vol="100"/>
          <note pan="0" type="0" len="10" pos="168" key="41" vol="100"/>
        </midiclip>
        <midiclip type="1" autoresize="1" name="" off="0" len="192" pos="8064" muted="0" steps="16">
          <note pan="0" type="0" len="10" pos="0" key="38" vol="100"/>
          <note pan="0" type="0" len="10" pos="24" key="38" vol="100"/>
          <note pan="0" type="0" len="10" pos="48" key="33" vol="100"/>
          <note pan="0" type="0" len="10" pos="72" key="36" vol="100"/>
          <note pan="0" type="0" len="10" pos="96" key="38" vol="100"/>
          <note pan="0" type="0" len="10" pos="120" key="38" vol="100"/>
          <note pan="0" type="0" len="10" pos="144" key="40" vol="100"/>
          <note pan="0" type="0" len="10" pos="168" key="41" vol="100"/>
        </midiclip>
        <midiclip type="1" autoresize="1" name="" off="0" len="192" pos="8256" muted="0" steps="16">
          <note pan="0" type="0" len="10" pos="0" key="38" vol="100"/>
          <note pan="0" type="0" len="10" pos="24" key="38" vol="100"/>
          <note pan="0" type="0" len="10" pos="48" key="33" vol="100"/>
          <note pan="0" type="0" len="10" pos="72" key="36" vol="100"/>
          <note pan="0" type="0" len="10" pos="96" key="38" vol="100"/>
          <note pan="0" type="0" len="10" pos="120" key="38" vol="100"/>
          <note pan="0" type="0" len="10" pos="144" key="40" vol="100"/>
          <note pan="0" type="0" len="10" pos="168" key="41" vol="100"/>
        </midiclip>
        <midiclip type="1" autoresize="1" name="" off="0" len="192" pos="11520" muted="0" steps="16">
          <note pan="0" type="0" len="10" pos="0" key="26" vol="100"/>
          <note pan="0" type="0" len="10" pos="24" key="26" vol="100"/>
          <note pan="0" type="0" len="10" pos="48" key="26" vol="100"/>
          <note pan="0" type="0" len="10" pos="72" key="26" vol="100"/>
          <note pan="0" type="0" len="10" pos="96" key="26" vol="100"/>
          <note pan="0" type="0" len="10" pos="120" key="26" vol="100"/>
          <note pan="0" type="0" len="10" pos="144" key="26" vol="100"/>
          <note pan="0" type="0" len="10" pos="168" key="26" vol="100"/>
        </midiclip>
        <midiclip type="1" autoresize="1" name="" off="0" len="192" pos="11712" muted="0" steps="16">
          <note pan="0" type="0" len="10" pos="0" key="26" vol="100"/>
          <note pan="0" type="0" len="10" pos="24" key="26" vol="100"/>
          <note pan="0" type="0" len="10" pos="48" key="26" vol="100"/>
          <note pan="0" type="0" len="10" pos="72" key="26" vol="100"/>
          <note pan="0" type="0" len="10" pos="96" key="26" vol="100"/>
          <note pan="0" type="0" len="10" pos="120" key="26" vol="100"/>
          <note pan="0" type="0" len="10" pos="144" key="26" vol="100"/>
          <note pan="0" type="0" len="10" pos="168" key="26" vol="100"/>
        </midiclip>
        <midiclip type="1" autoresize="1" name="" off="0" len="192" pos="11904" muted="0" steps="16">
          <note pan="0" type="0" len="10" pos="0" key="26" vol="100"/>
          <note pan="0" type="0" len="10" pos="24" key="26" vol="100"/>
          <note pan="0" type="0" len="10" pos="48" key="26" vol="100"/>
          <note pan="0" type="0" len="10" pos="72" key="26" vol="100"/>
          <note pan="0" type="0" len="10" pos="96" key="26" vol="100"/>
          <note pan="0" type="0" len="10" pos="120" key="26" vol="100"/>
          <note pan="0" type="0" len="10" pos="144" key="26" vol="100"/>
          <note pan="0" type="0" len="10" pos="168" key="26" vol="100"/>
        </midiclip>
        <midiclip type="1" autoresize="1" name="" off="0" len="192" pos="12096" muted="0" steps="16">
          <note pan="0" type="0" len="10" pos="0" key="26" vol="100"/>
          <note pan="0" type="0" len="10" pos="24" key="26" vol="100"/>
          <note pan="0" type="0" len="10" pos="48" key="26" vol="100"/>
          <note pan="0" type="0" len="10" pos="72" key="26" vol="100"/>
          <note pan="0" type="0" len="10" pos="96" key="26" vol="100"/>
          <note pan="0" type="0" len="10" pos="120" key="26" vol="100"/>
          <note pan="0" type="0" len="10" pos="144" key="26" vol="100"/>
          <note pan="0" type="0" len="10" pos="168" key="26" vol="100"/>
        </midiclip>
        <midiclip type="1" autoresize="1" name="" off="0" len="192" pos="12288" muted="0" steps="16">
          <note pan="0" type="0" len="10" pos="0" key="26" vol="100"/>
          <note pan="0" type="0" len="10" pos="24" key="26" vol="100"/>
          <note pan="0" type="0" len="10" pos="48" key="26" vol="100"/>
          <note pan="0" type="0" len="10" pos="72" key="26" vol="100"/>
          <note pan="0" type="0" len="10" pos="96" key="26" vol="100"/>
          <note pan="0" type="0" len="10" pos="120" key="26" vol="100"/>
          <note pan="0" type="0" len="10" pos="144" key="26" vol="100"/>
          <note pan="0" type="0" len="10" pos="168" key="26" vol="100"/>
        </midiclip>
        <midiclip type="1" autoresize="1" name="" off="0" len="192" pos="12480" muted="0" steps="16">
          <note pan="0" type="0" len="10" pos="0" key="26" vol="100"/>
          <note pan="0" type="0" len="10" pos="24" key="26" vol="100"/>
          <note pan="0" type="0" len="10" pos="48" key="26" vol="100"/>
          <note pan="0" type="0" len="10" pos="72" key="26" vol="100"/>
          <note pan="0" type="0" len="10" pos="96" key="26" vol="100"/>
          <note pan="0" type="0" len="10" pos="120" key="26" vol="100"/>
          <note pan="0" type="0" len="10" pos="144" key="26" vol="100"/>
          <note pan="0" type="0" len="10" pos="168" key="26" vol="100"/>
        </midiclip>
        <midiclip type="1" autoresize="1" name="" off="0" len="192" pos="12672" muted="0" steps="16">
          <note pan="0" type="0" len="10" pos="0" key="26" vol="100"/>
          <note pan="0" type="0" len="10" pos="24" key="26" vol="100"/>
          <note pan="0" type="0" len="10" pos="48" key="26" vol="100"/>
          <note pan="0" type="0" len="10" pos="72" key="26" vol="100"/>
          <note pan="0" type="0" len="10" pos="96" key="26" vol="100"/>
          <note pan="0" type="0" len="10" pos="120" key="26" vol="100"/>
          <note pan="0" type="0" len="10" pos="144" key="26" vol="100"/>
          <note pan="0" type="0" len="10" pos="168" key="26" vol="100"/>
        </midiclip>
        <midiclip type="1" autoresize="1" name="" off="0" len="192" pos="12864" muted="0" steps="16">
          <note pan="0" type="0" len="10" pos="0" key="26" vol="100"/>
          <note pan="0" type="0" len="10" pos="24" key="26" vol="100"/>
          <note pan="0" type="0" len="10" pos="48" key="26" vol="100"/>
          <note pan="0" type="0" len="10" pos="72" key="26" vol="100"/>
          <note pan="0" type="0" len="10" pos="96" key="26" vol="100"/>
          <note pan="0" type="0" len="10" pos="120" key="26" vol="100"/>
          <note pan="0" type="0" len="10" pos="144" key="26" vol="100"/>
          <note pan="0" type="0" len="10" pos="168" key="26" vol="100"/>
        </midiclip>
        <midiclip type="1" autoresize="1" name="" off="0" len="192" pos="0" muted="0" steps="16">
          <note pan="0" type="0" len="10" pos="0" key="38" vol="100"/>
          <note pan="0" type="0" len="10" pos="24" key="38" vol="100"/>
          <note pan="0" type="0" len="10" pos="48" key="33" vol="100"/>
          <note pan="0" type="0" len="10" pos="72" key="36" vol="100"/>
          <note pan="0" type="0" len="10" pos="96" key="38" vol="100"/>
          <note pan="0" type="0" len="10" pos="120" key="38" vol="100"/>
          <note pan="0" type="0" len="10" pos="144" key="40" vol="100"/>
          <note pan="0" type="0" len="10" pos="168" key="41" vol="100"/>
        </midiclip>
        <midiclip type="1" autoresize="1" name="" off="0" len="192" pos="192" muted="0" steps="16">
          <note pan="0" type="0" len="10" pos="0" key="38" vol="100"/>
          <note pan="0" type="0" len="10" pos="24" key="38" vol="100"/>
          <note pan="0" type="0" len="10" pos="48" key="33" vol="100"/>
          <note pan="0" type="0" len="10" pos="72" key="36" vol="100"/>
          <note pan="0" type="0" len="10" pos="96" key="38" vol="100"/>
          <note pan="0" type="0" len="10" pos="120" key="38" vol="100"/>
          <note pan="0" type="0" len="10" pos="144" key="40" vol="100"/>
          <note pan="0" type="0" len="10" pos="168" key="41" vol="100"/>
        </midiclip>
        <midiclip type="1" autoresize="1" name="" off="0" len="1536" pos="8448" muted="0" steps="16">
          <note pan="0" type="0" len="10" pos="0" key="34" vol="100"/>
          <note pan="0" type="0" len="10" pos="24" key="34" vol="100"/>
          <note pan="0" type="0" len="10" pos="48" key="29" vol="100"/>
          <note pan="0" type="0" len="10" pos="72" key="33" vol="100"/>
          <note pan="0" type="0" len="10" pos="96" key="34" vol="100"/>
          <note pan="0" type="0" len="10" pos="120" key="34" vol="100"/>
          <note pan="0" type="0" len="10" pos="144" key="36" vol="100"/>
          <note pan="0" type="0" len="10" pos="168" key="38" vol="100"/>
          <note pan="0" type="0" len="10" pos="192" key="33" vol="100"/>
          <note pan="0" type="0" len="10" pos="216" key="33" vol="100"/>
          <note pan="0" type="0" len="10" pos="240" key="28" vol="100"/>
          <note pan="0" type="0" len="10" pos="264" key="31" vol="100"/>
          <note pan="0" type="0" len="10" pos="288" key="33" vol="100"/>
          <note pan="0" type="0" len="10" pos="312" key="33" vol="100"/>
          <note pan="0" type="0" len="10" pos="336" key="35" vol="100"/>
          <note pan="0" type="0" len="10" pos="360" key="37" vol="100"/>
          <note pan="0" type="0" len="10" pos="384" key="38" vol="100"/>
          <note pan="0" type="0" len="10" pos="408" key="38" vol="100"/>
          <note pan="0" type="0" len="10" pos="432" key="26" vol="100"/>
          <note pan="0" type="0" len="10" pos="456" key="29" vol="100"/>
          <note pan="0" type="0" len="10" pos="480" key="31" vol="100"/>
          <note pan="0" type="0" len="10" pos="504" key="31" vol="100"/>
          <note pan="0" type="0" len="10" pos="528" key="33" vol="100"/>
          <note pan="0" type="0" len="10" pos="552" key="35" vol="100"/>
          <note pan="0" type="0" len="10" pos="576" key="31" vol="100"/>
          <note pan="0" type="0" len="10" pos="600" key="31" vol="100"/>
          <note pan="0" type="0" len="10" pos="624" key="35" vol="100"/>
          <note pan="0" type="0" len="10" pos="648" key="38" vol="100"/>
          <note pan="0" type="0" len="10" pos="672" key="26" vol="100"/>
          <note pan="0" type="0" len="10" pos="696" key="26" vol="100"/>
          <note pan="0" type="0" len="10" pos="720" key="29" vol="100"/>
          <note pan="0" type="0" len="10" pos="744" key="31" vol="100"/>
          <note pan="0" type="0" len="10" pos="768" key="34" vol="100"/>
          <note pan="0" type="0" len="10" pos="792" key="34" vol="100"/>
          <note pan="0" type="0" len="10" pos="816" key="29" vol="100"/>
          <note pan="0" type="0" len="10" pos="840" key="31" vol="100"/>
          <note pan="0" type="0" len="10" pos="864" key="34" vol="100"/>
          <note pan="0" type="0" len="10" pos="888" key="34" vol="100"/>
          <note pan="0" type="0" len="10" pos="912" key="36" vol="100"/>
          <note pan="0" type="0" len="10" pos="936" key="38" vol="100"/>
          <note pan="0" type="0" len="10" pos="960" key="33" vol="100"/>
          <note pan="0" type="0" len="10" pos="984" key="33" vol="100"/>
          <note pan="0" type="0" len="10" pos="1008" key="28" vol="100"/>
          <note pan="0" type="0" len="10" pos="1032" key="31" vol="100"/>
          <note pan="0" type="0" len="10" pos="1056" key="33" vol="100"/>
          <note pan="0" type="0" len="10" pos="1080" key="33" vol="100"/>
          <note pan="0" type="0" len="10" pos="1104" key="35" vol="100"/>
          <note pan="0" type="0" len="10" pos="1128" key="37" vol="100"/>
          <note pan="0" type="0" len="10" pos="1152" key="38" vol="100"/>
          <note pan="0" type="0" len="10" pos="1176" key="26" vol="100"/>
          <note pan="0" type="0" len="22" pos="1200" key="26" vol="100"/>
          <note pan="0" type="0" len="10" pos="1224" key="38" vol="100"/>
          <note pan="0" type="0" len="10" pos="1248" key="26" vol="100"/>
          <note pan="0" type="0" len="22" pos="1272" key="26" vol="100"/>
          <note pan="0" type="0" len="10" pos="1296" key="38" vol="100"/>
          <note pan="0" type="0" len="22" pos="1320" key="26" vol="100"/>
          <note pan="0" type="0" len="10" pos="1344" key="31" vol="100"/>
          <note pan="0" type="0" len="10" pos="1368" key="31" vol="100"/>
          <note pan="0" type="0" len="10" pos="1392" key="26" vol="100"/>
          <note pan="0" type="0" len="10" pos="1416" key="29" vol="100"/>
          <note pan="0" type="0" len="10" pos="1440" key="31" vol="100"/>
          <note pan="0" type="0" len="10" pos="1464" key="31" vol="100"/>
          <note pan="0" type="0" len="10" pos="1488" key="33" vol="100"/>
          <note pan="0" type="0" len="10" pos="1512" key="36" vol="100"/>
        </midiclip>
        <midiclip type="1" autoresize="1" name="" off="0" len="1536" pos="9984" muted="0" steps="16">
          <note pan="0" type="0" len="10" pos="0" key="34" vol="100"/>
          <note pan="0" type="0" len="10" pos="24" key="34" vol="100"/>
          <note pan="0" type="0" len="10" pos="48" key="29" vol="100"/>
          <note pan="0" type="0" len="10" pos="72" key="33" vol="100"/>
          <note pan="0" type="0" len="10" pos="96" key="34" vol="100"/>
          <note pan="0" type="0" len="10" pos="120" key="34" vol="100"/>
          <note pan="0" type="0" len="10" pos="144" key="36" vol="100"/>
          <note pan="0" type="0" len="10" pos="168" key="38" vol="100"/>
          <note pan="0" type="0" len="10" pos="192" key="33" vol="100"/>
          <note pan="0" type="0" len="10" pos="216" key="33" vol="100"/>
          <note pan="0" type="0" len="10" pos="240" key="28" vol="100"/>
          <note pan="0" type="0" len="10" pos="264" key="31" vol="100"/>
          <note pan="0" type="0" len="10" pos="288" key="33" vol="100"/>
          <note pan="0" type="0" len="10" pos="312" key="33" vol="100"/>
          <note pan="0" type="0" len="10" pos="336" key="35" vol="100"/>
          <note pan="0" type="0" len="10" pos="360" key="37" vol="100"/>
          <note pan="0" type="0" len="10" pos="384" key="38" vol="100"/>
          <note pan="0" type="0" len="10" pos="408" key="38" vol="100"/>
          <note pan="0" type="0" len="10" pos="432" key="26" vol="100"/>
          <note pan="0" type="0" len="10" pos="456" key="29" vol="100"/>
          <note pan="0" type="0" len="10" pos="480" key="31" vol="100"/>
          <note pan="0" type="0" len="10" pos="504" key="31" vol="100"/>
          <note pan="0" type="0" len="10" pos="528" key="33" vol="100"/>
          <note pan="0" type="0" len="10" pos="552" key="35" vol="100"/>
          <note pan="0" type="0" len="10" pos="576" key="31" vol="100"/>
          <note pan="0" type="0" len="10" pos="600" key="31" vol="100"/>
          <note pan="0" type="0" len="10" pos="624" key="35" vol="100"/>
          <note pan="0" type="0" len="10" pos="648" key="38" vol="100"/>
          <note pan="0" type="0" len="10" pos="672" key="26" vol="100"/>
          <note pan="0" type="0" len="10" pos="696" key="26" vol="100"/>
          <note pan="0" type="0" len="10" pos="720" key="29" vol="100"/>
          <note pan="0" type="0" len="10" pos="744" key="31" vol="100"/>
          <note pan="0" type="0" len="10" pos="768" key="34" vol="100"/>
          <note pan="0" type="0" len="10" pos="792" key="34" vol="100"/>
          <note pan="0" type="0" len="10" pos="816" key="29" vol="100"/>
          <note pan="0" type="0" len="10" pos="840" key="31" vol="100"/>
          <note pan="0" type="0" len="10" pos="864" key="34" vol="100"/>
          <note pan="0" type="0" len="10" pos="888" key="34" vol="100"/>
          <note pan="0" type="0" len="10" pos="912" key="36" vol="100"/>
          <note pan="0" type="0" len="10" pos="936" key="38" vol="100"/>
          <note pan="0" type="0" len="10" pos="960" key="33" vol="100"/>
          <note pan="0" type="0" len="10" pos="984" key="33" vol="100"/>
          <note pan="0" type="0" len="10" pos="1008" key="28" vol="100"/>
          <note pan="0" type="0" len="10" pos="1032" key="31" vol="100"/>
          <note pan="0" type="0" len="10" pos="1056" key="33" vol="100"/>
          <note pan="0" type="0" len="10" pos="1080" key="33" vol="100"/>
          <note pan="0" type="0" len="10" pos="1104" key="35" vol="100"/>
          <note pan="0" type="0" len="10" pos="1128" key="37" vol="100"/>
          <note pan="0" type="0" len="10" pos="1152" key="38" vol="100"/>
          <note pan="0" type="0" len="10" pos="1176" key="26" vol="100"/>
          <note pan="0" type="0" len="22" pos="1200" key="26" vol="100"/>
          <note pan="0" type="0" len="10" pos="1224" key="38" vol="100"/>
          <note pan="0" type="0" len="10" pos="1248" key="26" vol="100"/>
          <note pan="0" type="0" len="22" pos="1272" key="26" vol="100"/>
          <note pan="0" type="0" len="10" pos="1296" key="38" vol="100"/>
          <note pan="0" type="0" len="22" pos="1320" key="26" vol="100"/>
          <note pan="0" type="0" len="10" pos="1344" key="31" vol="100"/>
          <note pan="0" type="0" len="10" pos="1368" key="31" vol="100"/>
          <note pan="0" type="0" len="10" pos="1392" key="26" vol="100"/>
          <note pan="0" type="0" len="10" pos="1416" key="29" vol="100"/>
          <note pan="0" type="0" len="10" pos="1440" key="31" vol="100"/>
          <note pan="0" type="0" len="10" pos="1464" key="31" vol="100"/>
          <note pan="0" type="0" len="10" pos="1488" key="33" vol="100"/>
          <note pan="0" type="0" len="10" pos="1512" key="36" vol="100"/>
        </midiclip>
      </track>
      <track type="0" name="Drums>BD" trackheight="32" mutedBeforeSolo="0" muted="0" solo="0">
        <instrumenttrack pan="0" range_import="1" mixch="5" pitchrange="1" firstkey="36" keymap="0" usemasterpitch="0" scale="0" pitch="-100" basenote="69" lastkey="36" enablecc="0" enabled="0" vol="100">
          <midicontrollers cc115="0" cc71="0" cc3="0" cc63="0" cc90="0" cc74="0" cc82="0" cc96="0" cc10="0" cc17="0" cc116="0" cc59="0" cc122="0" cc118="0" cc45="0" cc77="0" cc72="0" cc40="0" cc2="0" cc105="0" cc24="0" cc33="0" cc43="0" cc13="0" cc88="0" cc6="0" cc31="0" cc52="0" cc15="0" cc67="0" cc7="0" cc41="0" cc4="0" cc19="0" cc125="0" cc75="0" cc79="0" cc93="0" cc25="0" cc39="0" cc51="0" cc87="0" cc55="0" cc28="0" cc26="0" cc98="0" cc102="0" cc50="0" cc23="0" cc16="0" cc92="0" cc57="0" cc69="0" cc18="0" cc85="0" cc103="0" cc126="0" cc124="0" cc9="0" cc20="0" cc68="0" cc114="0" cc30="0" cc47="0" cc86="0" cc97="0" cc5="0" cc73="0" cc60="0" cc108="0" cc66="0" cc58="0" cc121="0" cc49="0" cc99="0" cc65="0" cc83="0" cc35="0" cc94="0" cc44="0" cc112="0" cc37="0" cc64="0" cc84="0" cc14="0" cc38="0" cc32="0" cc62="0" cc78="0" cc54="0" cc34="0" cc117="0" cc76="0" cc127="0" cc89="0" cc0="0" cc100="0" cc109="0" cc111="0" cc29="0" cc95="0" cc70="0" cc91="0" cc27="0" cc81="0" cc120="0" cc1="0" cc42="0" cc113="0" cc22="0" cc80="0" cc110="0" cc8="0" cc46="0" cc12="0" cc53="0" cc11="0" cc21="0" cc36="0" cc56="0" cc101="0" cc106="0" cc61="0" cc48="0" cc123="0" cc104="0" cc119="0" cc107="0"/>
          <instrument name="sf2player">
            <sf2player reverbWidth="0.5" reverbLevel="0.89999998" chorusDepth="8" src="usersoundfont:FluidR3 GM.sf2" chorusOn="0" bank="128" chorusSpeed="0.30000001" chorusNum="3" reverbOn="0" gain="0.36000001" patch="17" reverbRoomSize="0.2" chorusLevel="2" reverbDamping="0">
              <key/>
            </sf2player>
          </instrument>
          <eldata ftype="0" fres="0.5" fcut="14000" fwet="0">
            <elvol pdel="0" lshp="0" lspd_numerator="4" rel="0.1" ctlenvamt="0" lspd_denominator="4" dec="0.5" hold="0.5" lamt="0" lpdel="0" x100="0" userwavefile="" amt="0" latt="0" sustain="0.5" lspd_syncmode="0" att="0" lspd="0.1"/>
            <elcut pdel="0" lshp="0" lspd_numerator="4" rel="0.1" ctlenvamt="0" lspd_denominator="4" dec="0.5" hold="0.5" lamt="0" lpdel="0" x100="0" userwavefile="" amt="0" latt="0" sustain="0.5" lspd_syncmode="0" att="0" lspd="0.1"/>
            <elres pdel="0" lshp="0" lspd_numerator="4" rel="0.1" ctlenvamt="0" lspd_denominator="4" dec="0.5" hold="0.5" lamt="0" lpdel="0" x100="0" userwavefile="" amt="0" latt="0" sustain="0.5" lspd_syncmode="0" att="0" lspd="0.1"/>
          </eldata>
          <chordcreator chord="0" chordrange="1" chord-enabled="0"/>
          <arpeggiator arprange="1" arpdir="0" arpskip="0" arpmode="0" arpmiss="0" arptime="200" arpgate="100" arptime_numerator="4" arp-enabled="0" arpcycle="0" arptime_denominator="4" arptime_syncmode="0" arprepeats="1" arp="0"/>
          <midiport inputcontroller="0" fixedoutputvelocity="-1" readable="1" fixedoutputnote="-1" basevelocity="127" fixedinputvelocity="-1" inports="" inputchannel="0" outputchannel="1" writable="0" outputcontroller="0" outputprogram="1"/>
          <fxchain numofeffects="0" enabled="0"/>
        </instrumenttrack>
        <midiclip type="1" autoresize="1" name="" off="0" len="384" pos="1920" muted="0" steps="16">
          <note pan="0" type="0" len="24" pos="0" key="36" vol="100"/>
          <note pan="0" type="0" len="24" pos="24" key="54" vol="100"/>
          <note pan="0" type="0" len="24" pos="48" key="52" vol="100"/>
          <note pan="0" type="0" len="24" pos="72" key="36" vol="100"/>
          <note pan="0" type="0" len="24" pos="96" key="42" vol="100"/>
          <note pan="0" type="0" len="24" pos="120" key="52" vol="100"/>
          <note pan="0" type="0" len="24" pos="144" key="36" vol="100"/>
          <note pan="0" type="0" len="24" pos="192" key="36" vol="100"/>
          <note pan="0" type="0" len="24" pos="216" key="54" vol="100"/>
          <note pan="0" type="0" len="24" pos="240" key="52" vol="100"/>
          <note pan="0" type="0" len="24" pos="264" key="36" vol="100"/>
          <note pan="0" type="0" len="24" pos="288" key="42" vol="100"/>
          <note pan="0" type="0" len="24" pos="312" key="52" vol="100"/>
          <note pan="0" type="0" len="24" pos="336" key="46" vol="100"/>
          <note pan="0" type="0" len="24" pos="336" key="36" vol="100"/>
          <note pan="0" type="0" len="24" pos="360" key="44" vol="100"/>
        </midiclip>
        <midiclip type="1" autoresize="1" name="" off="0" len="384" pos="2304" muted="0" steps="16">
          <note pan="0" type="0" len="24" pos="0" key="36" vol="100"/>
          <note pan="0" type="0" len="24" pos="24" key="54" vol="100"/>
          <note pan="0" type="0" len="24" pos="48" key="52" vol="100"/>
          <note pan="0" type="0" len="24" pos="72" key="36" vol="100"/>
          <note pan="0" type="0" len="24" pos="96" key="42" vol="100"/>
          <note pan="0" type="0" len="24" pos="120" key="52" vol="100"/>
          <note pan="0" type="0" len="24" pos="144" key="36" vol="100"/>
          <note pan="0" type="0" len="24" pos="192" key="36" vol="100"/>
          <note pan="0" type="0" len="24" pos="216" key="54" vol="100"/>
          <note pan="0" type="0" len="24" pos="240" key="52" vol="100"/>
          <note pan="0" type="0" len="24" pos="264" key="36" vol="100"/>
          <note pan="0" type="0" len="24" pos="288" key="42" vol="100"/>
          <note pan="0" type="0" len="24" pos="312" key="52" vol="100"/>
          <note pan="0" type="0" len="24" pos="336" key="46" vol="100"/>
          <note pan="0" type="0" len="24" pos="336" key="36" vol="100"/>
          <note pan="0" type="0" len="24" pos="360" key="44" vol="100"/>
        </midiclip>
        <midiclip type="1" autoresize="1" name="" off="0" len="384" pos="2688" muted="0" steps="16">
          <note pan="0" type="0" len="24" pos="0" key="36" vol="100"/>
          <note pan="0" type="0" len="24" pos="24" key="54" vol="100"/>
          <note pan="0" type="0" len="24" pos="48" key="52" vol="100"/>
          <note pan="0" type="0" len="24" pos="72" key="36" vol="100"/>
          <note pan="0" type="0" len="24" pos="96" key="42" vol="100"/>
          <note pan="0" type="0" len="24" pos="120" key="52" vol="100"/>
          <note pan="0" type="0" len="24" pos="144" key="36" vol="100"/>
          <note pan="0" type="0" len="24" pos="192" key="36" vol="100"/>
          <note pan="0" type="0" len="24" pos="216" key="54" vol="100"/>
          <note pan="0" type="0" len="24" pos="240" key="52" vol="100"/>
          <note pan="0" type="0" len="24" pos="264" key="36" vol="100"/>
          <note pan="0" type="0" len="24" pos="288" key="42" vol="100"/>
          <note pan="0" type="0" len="24" pos="312" key="52" vol="100"/>
          <note pan="0" type="0" len="24" pos="336" key="46" vol="100"/>
          <note pan="0" type="0" len="24" pos="336" key="36" vol="100"/>
          <note pan="0" type="0" len="24" pos="360" key="44" vol="100"/>
        </midiclip>
        <midiclip type="1" autoresize="1" name="" off="0" len="384" pos="3072" muted="0" steps="16">
          <note pan="0" type="0" len="24" pos="0" key="36" vol="100"/>
          <note pan="0" type="0" len="24" pos="24" key="54" vol="100"/>
          <note pan="0" type="0" len="24" pos="48" key="52" vol="100"/>
          <note pan="0" type="0" len="24" pos="72" key="36" vol="100"/>
          <note pan="0" type="0" len="24" pos="96" key="42" vol="100"/>
          <note pan="0" type="0" len="24" pos="120" key="52" vol="100"/>
          <note pan="0" type="0" len="24" pos="144" key="36" vol="100"/>
          <note pan="0" type="0" len="24" pos="192" key="36" vol="100"/>
          <note pan="0" type="0" len="24" pos="216" key="54" vol="100"/>
          <note pan="0" type="0" len="24" pos="240" key="52" vol="100"/>
          <note pan="0" type="0" len="24" pos="264" key="36" vol="100"/>
          <note pan="0" type="0" len="24" pos="288" key="42" vol="100"/>
          <note pan="0" type="0" len="24" pos="312" key="52" vol="100"/>
          <note pan="0" type="0" len="24" pos="336" key="46" vol="100"/>
          <note pan="0" type="0" len="24" pos="336" key="36" vol="100"/>
          <note pan="0" type="0" len="24" pos="360" key="44" vol="100"/>
        </midiclip>
        <midiclip type="1" autoresize="1" name="" off="0" len="384" pos="1152" muted="0" steps="16">
          <note pan="0" type="0" len="24" pos="0" key="36" vol="100"/>
          <note pan="0" type="0" len="24" pos="72" key="36" vol="100"/>
          <note pan="0" type="0" len="24" pos="144" key="36" vol="100"/>
          <note pan="0" type="0" len="24" pos="192" key="36" vol="100"/>
          <note pan="0" type="0" len="24" pos="264" key="36" vol="100"/>
          <note pan="0" type="0" len="24" pos="336" key="36" vol="100"/>
        </midiclip>
        <midiclip type="1" autoresize="1" name="" off="0" len="384" pos="1536" muted="0" steps="16">
          <note pan="0" type="0" len="24" pos="0" key="36" vol="100"/>
          <note pan="0" type="0" len="24" pos="72" key="36" vol="100"/>
          <note pan="0" type="0" len="24" pos="144" key="36" vol="100"/>
          <note pan="0" type="0" len="24" pos="192" key="36" vol="100"/>
          <note pan="0" type="0" len="24" pos="264" key="36" vol="100"/>
          <note pan="0" type="0" len="24" pos="288" key="44" vol="100"/>
          <note pan="0" type="0" len="24" pos="312" key="46" vol="100"/>
          <note pan="0" type="0" len="24" pos="336" key="42" vol="100"/>
          <note pan="0" type="0" len="24" pos="336" key="36" vol="100"/>
          <note pan="0" type="0" len="24" pos="360" key="52" vol="100"/>
        </midiclip>
        <midiclip type="1" autoresize="1" name="" off="0" len="384" pos="3456" muted="0" steps="16">
          <note pan="0" type="0" len="24" pos="0" key="36" vol="100"/>
          <note pan="0" type="0" len="24" pos="24" key="54" vol="100"/>
          <note pan="0" type="0" len="24" pos="48" key="52" vol="100"/>
          <note pan="0" type="0" len="24" pos="72" key="36" vol="100"/>
          <note pan="0" type="0" len="24" pos="96" key="42" vol="100"/>
          <note pan="0" type="0" len="24" pos="120" key="52" vol="100"/>
          <note pan="0" type="0" len="24" pos="144" key="36" vol="100"/>
          <note pan="0" type="0" len="24" pos="192" key="36" vol="100"/>
          <note pan="0" type="0" len="24" pos="216" key="54" vol="100"/>
          <note pan="0" type="0" len="24" pos="240" key="52" vol="100"/>
          <note pan="0" type="0" len="24" pos="264" key="36" vol="100"/>
          <note pan="0" type="0" len="24" pos="288" key="42" vol="100"/>
          <note pan="0" type="0" len="24" pos="312" key="52" vol="100"/>
          <note pan="0" type="0" len="24" pos="336" key="46" vol="100"/>
          <note pan="0" type="0" len="24" pos="336" key="36" vol="100"/>
          <note pan="0" type="0" len="24" pos="360" key="44" vol="100"/>
        </midiclip>
        <midiclip type="1" autoresize="1" name="" off="0" len="384" pos="3840" muted="0" steps="16">
          <note pan="0" type="0" len="24" pos="0" key="36" vol="100"/>
          <note pan="0" type="0" len="24" pos="24" key="54" vol="100"/>
          <note pan="0" type="0" len="24" pos="48" key="52" vol="100"/>
          <note pan="0" type="0" len="24" pos="72" key="36" vol="100"/>
          <note pan="0" type="0" len="24" pos="96" key="42" vol="100"/>
          <note pan="0" type="0" len="24" pos="120" key="52" vol="100"/>
          <note pan="0" type="0" len="24" pos="144" key="36" vol="100"/>
          <note pan="0" type="0" len="24" pos="192" key="36" vol="100"/>
          <note pan="0" type="0" len="24" pos="216" key="54" vol="100"/>
          <note pan="0" type="0" len="24" pos="240" key="52" vol="100"/>
          <note pan="0" type="0" len="24" pos="264" key="36" vol="100"/>
          <note pan="0" type="0" len="24" pos="288" key="42" vol="100"/>
          <note pan="0" type="0" len="24" pos="312" key="52" vol="100"/>
          <note pan="0" type="0" len="24" pos="336" key="46" vol="100"/>
          <note pan="0" type="0" len="24" pos="336" key="36" vol="100"/>
          <note pan="0" type="0" len="24" pos="360" key="44" vol="100"/>
        </midiclip>
        <midiclip type="1" autoresize="1" name="" off="0" len="384" pos="4224" muted="0" steps="16">
          <note pan="0" type="0" len="24" pos="0" key="36" vol="100"/>
          <note pan="0" type="0" len="24" pos="24" key="54" vol="100"/>
          <note pan="0" type="0" len="24" pos="48" key="52" vol="100"/>
          <note pan="0" type="0" len="24" pos="72" key="36" vol="100"/>
          <note pan="0" type="0" len="24" pos="96" key="42" vol="100"/>
          <note pan="0" type="0" len="24" pos="120" key="52" vol="100"/>
          <note pan="0" type="0" len="24" pos="144" key="36" vol="100"/>
          <note pan="0" type="0" len="24" pos="192" key="36" vol="100"/>
          <note pan="0" type="0" len="24" pos="216" key="54" vol="100"/>
          <note pan="0" type="0" len="24" pos="240" key="52" vol="100"/>
          <note pan="0" type="0" len="24" pos="264" key="36" vol="100"/>
          <note pan="0" type="0" len="24" pos="288" key="42" vol="100"/>
          <note pan="0" type="0" len="24" pos="312" key="52" vol="100"/>
          <note pan="0" type="0" len="24" pos="336" key="46" vol="100"/>
          <note pan="0" type="0" len="24" pos="336" key="36" vol="100"/>
          <note pan="0" type="0" len="24" pos="360" key="44" vol="100"/>
        </midiclip>
        <midiclip type="1" autoresize="1" name="" off="0" len="384" pos="4608" muted="0" steps="16">
          <note pan="0" type="0" len="24" pos="0" key="36" vol="100"/>
          <note pan="0" type="0" len="24" pos="24" key="54" vol="100"/>
          <note pan="0" type="0" len="24" pos="48" key="52" vol="100"/>
          <note pan="0" type="0" len="24" pos="72" key="36" vol="100"/>
          <note pan="0" type="0" len="24" pos="96" key="42" vol="100"/>
          <note pan="0" type="0" len="24" pos="120" key="52" vol="100"/>
          <note pan="0" type="0" len="24" pos="144" key="36" vol="100"/>
          <note pan="0" type="0" len="24" pos="192" key="36" vol="100"/>
          <note pan="0" type="0" len="24" pos="216" key="54" vol="100"/>
          <note pan="0" type="0" len="24" pos="240" key="52" vol="100"/>
          <note pan="0" type="0" len="24" pos="264" key="36" vol="100"/>
          <note pan="0" type="0" len="24" pos="288" key="42" vol="100"/>
          <note pan="0" type="0" len="24" pos="312" key="52" vol="100"/>
          <note pan="0" type="0" len="24" pos="336" key="46" vol="100"/>
          <note pan="0" type="0" len="24" pos="336" key="36" vol="100"/>
          <note pan="0" type="0" len="24" pos="360" key="44" vol="100"/>
        </midiclip>
        <midiclip type="1" autoresize="1" name="" off="0" len="384" pos="6912" muted="0" steps="16">
          <note pan="0" type="0" len="12" pos="0" key="36" vol="100"/>
          <note pan="0" type="0" len="12" pos="24" key="46" vol="100"/>
          <note pan="0" type="0" len="12" pos="48" key="36" vol="100"/>
          <note pan="0" type="0" len="12" pos="72" key="44" vol="100"/>
          <note pan="0" type="0" len="12" pos="96" key="36" vol="100"/>
          <note pan="0" type="0" len="12" pos="120" key="46" vol="100"/>
          <note pan="0" type="0" len="12" pos="144" key="36" vol="100"/>
          <note pan="0" type="0" len="12" pos="168" key="44" vol="100"/>
          <note pan="0" type="0" len="12" pos="192" key="36" vol="100"/>
          <note pan="0" type="0" len="12" pos="216" key="46" vol="100"/>
          <note pan="0" type="0" len="12" pos="240" key="36" vol="100"/>
          <note pan="0" type="0" len="12" pos="264" key="44" vol="100"/>
          <note pan="0" type="0" len="12" pos="288" key="36" vol="100"/>
          <note pan="0" type="0" len="12" pos="312" key="46" vol="100"/>
          <note pan="0" type="0" len="12" pos="312" key="36" vol="100"/>
          <note pan="0" type="0" len="12" pos="324" key="36" vol="100"/>
          <note pan="0" type="0" len="12" pos="336" key="36" vol="100"/>
          <note pan="0" type="0" len="12" pos="360" key="44" vol="100"/>
          <note pan="0" type="0" len="12" pos="360" key="36" vol="100"/>
        </midiclip>
        <midiclip type="1" autoresize="1" name="" off="0" len="384" pos="7296" muted="0" steps="16">
          <note pan="0" type="0" len="12" pos="0" key="36" vol="100"/>
          <note pan="0" type="0" len="12" pos="24" key="46" vol="100"/>
          <note pan="0" type="0" len="12" pos="48" key="36" vol="100"/>
          <note pan="0" type="0" len="12" pos="72" key="44" vol="100"/>
          <note pan="0" type="0" len="12" pos="96" key="36" vol="100"/>
          <note pan="0" type="0" len="12" pos="120" key="46" vol="100"/>
          <note pan="0" type="0" len="12" pos="144" key="36" vol="100"/>
          <note pan="0" type="0" len="12" pos="168" key="44" vol="100"/>
          <note pan="0" type="0" len="12" pos="192" key="36" vol="100"/>
          <note pan="0" type="0" len="12" pos="216" key="46" vol="100"/>
          <note pan="0" type="0" len="12" pos="240" key="36" vol="100"/>
          <note pan="0" type="0" len="12" pos="264" key="44" vol="100"/>
          <note pan="0" type="0" len="12" pos="288" key="36" vol="100"/>
          <note pan="0" type="0" len="12" pos="312" key="46" vol="100"/>
          <note pan="0" type="0" len="12" pos="312" key="36" vol="100"/>
          <note pan="0" type="0" len="12" pos="324" key="36" vol="100"/>
          <note pan="0" type="0" len="12" pos="336" key="36" vol="100"/>
          <note pan="0" type="0" len="12" pos="360" key="44" vol="100"/>
          <note pan="0" type="0" len="12" pos="360" key="36" vol="100"/>
        </midiclip>
        <midiclip type="1" autoresize="1" name="" off="0" len="384" pos="7680" muted="0" steps="16">
          <note pan="0" type="0" len="12" pos="0" key="36" vol="100"/>
          <note pan="0" type="0" len="12" pos="24" key="46" vol="100"/>
          <note pan="0" type="0" len="12" pos="48" key="36" vol="100"/>
          <note pan="0" type="0" len="12" pos="72" key="44" vol="100"/>
          <note pan="0" type="0" len="12" pos="96" key="36" vol="100"/>
          <note pan="0" type="0" len="12" pos="120" key="46" vol="100"/>
          <note pan="0" type="0" len="12" pos="144" key="36" vol="100"/>
          <note pan="0" type="0" len="12" pos="168" key="44" vol="100"/>
          <note pan="0" type="0" len="12" pos="192" key="36" vol="100"/>
          <note pan="0" type="0" len="12" pos="216" key="46" vol="100"/>
          <note pan="0" type="0" len="12" pos="240" key="36" vol="100"/>
          <note pan="0" type="0" len="12" pos="264" key="44" vol="100"/>
          <note pan="0" type="0" len="12" pos="288" key="36" vol="100"/>
          <note pan="0" type="0" len="12" pos="312" key="46" vol="100"/>
          <note pan="0" type="0" len="12" pos="312" key="36" vol="100"/>
          <note pan="0" type="0" len="12" pos="324" key="36" vol="100"/>
          <note pan="0" type="0" len="12" pos="336" key="36" vol="100"/>
          <note pan="0" type="0" len="12" pos="360" key="44" vol="100"/>
          <note pan="0" type="0" len="12" pos="360" key="36" vol="100"/>
        </midiclip>
        <midiclip type="1" autoresize="1" name="" off="0" len="384" pos="8064" muted="0" steps="16">
          <note pan="0" type="0" len="12" pos="0" key="36" vol="100"/>
          <note pan="0" type="0" len="12" pos="24" key="46" vol="100"/>
          <note pan="0" type="0" len="12" pos="48" key="36" vol="100"/>
          <note pan="0" type="0" len="12" pos="72" key="44" vol="100"/>
          <note pan="0" type="0" len="12" pos="96" key="36" vol="100"/>
          <note pan="0" type="0" len="12" pos="120" key="46" vol="100"/>
          <note pan="0" type="0" len="12" pos="144" key="36" vol="100"/>
          <note pan="0" type="0" len="12" pos="168" key="44" vol="100"/>
          <note pan="0" type="0" len="12" pos="192" key="36" vol="100"/>
          <note pan="0" type="0" len="12" pos="216" key="46" vol="100"/>
          <note pan="0" type="0" len="12" pos="240" key="36" vol="100"/>
          <note pan="0" type="0" len="12" pos="264" key="44" vol="100"/>
          <note pan="0" type="0" len="12" pos="288" key="36" vol="100"/>
          <note pan="0" type="0" len="12" pos="312" key="46" vol="100"/>
          <note pan="0" type="0" len="12" pos="312" key="36" vol="100"/>
          <note pan="0" type="0" len="12" pos="324" key="36" vol="100"/>
          <note pan="0" type="0" len="12" pos="336" key="36" vol="100"/>
          <note pan="0" type="0" len="12" pos="360" key="44" vol="100"/>
          <note pan="0" type="0" len="12" pos="360" key="36" vol="100"/>
        </midiclip>
        <midiclip type="1" autoresize="1" name="" off="0" len="384" pos="8448" muted="0" steps="16">
          <note pan="0" type="0" len="24" pos="0" key="36" vol="100"/>
          <note pan="0" type="0" len="24" pos="24" key="54" vol="100"/>
          <note pan="0" type="0" len="24" pos="48" key="52" vol="100"/>
          <note pan="0" type="0" len="24" pos="72" key="36" vol="100"/>
          <note pan="0" type="0" len="24" pos="96" key="42" vol="100"/>
          <note pan="0" type="0" len="24" pos="120" key="52" vol="100"/>
          <note pan="0" type="0" len="24" pos="144" key="36" vol="100"/>
          <note pan="0" type="0" len="24" pos="192" key="36" vol="100"/>
          <note pan="0" type="0" len="24" pos="216" key="54" vol="100"/>
          <note pan="0" type="0" len="24" pos="240" key="52" vol="100"/>
          <note pan="0" type="0" len="24" pos="264" key="36" vol="100"/>
          <note pan="0" type="0" len="24" pos="288" key="42" vol="100"/>
          <note pan="0" type="0" len="24" pos="312" key="52" vol="100"/>
          <note pan="0" type="0" len="24" pos="336" key="46" vol="100"/>
          <note pan="0" type="0" len="24" pos="336" key="36" vol="100"/>
          <note pan="0" type="0" len="24" pos="360" key="44" vol="100"/>
        </midiclip>
        <midiclip type="1" autoresize="1" name="" off="0" len="384" pos="8832" muted="0" steps="16">
          <note pan="0" type="0" len="24" pos="0" key="36" vol="100"/>
          <note pan="0" type="0" len="24" pos="24" key="54" vol="100"/>
          <note pan="0" type="0" len="24" pos="48" key="52" vol="100"/>
          <note pan="0" type="0" len="24" pos="72" key="36" vol="100"/>
          <note pan="0" type="0" len="24" pos="96" key="42" vol="100"/>
          <note pan="0" type="0" len="24" pos="120" key="52" vol="100"/>
          <note pan="0" type="0" len="24" pos="144" key="36" vol="100"/>
          <note pan="0" type="0" len="24" pos="192" key="36" vol="100"/>
          <note pan="0" type="0" len="24" pos="216" key="54" vol="100"/>
          <note pan="0" type="0" len="24" pos="240" key="52" vol="100"/>
          <note pan="0" type="0" len="24" pos="264" key="36" vol="100"/>
          <note pan="0" type="0" len="24" pos="288" key="42" vol="100"/>
          <note pan="0" type="0" len="24" pos="312" key="52" vol="100"/>
          <note pan="0" type="0" len="24" pos="336" key="46" vol="100"/>
          <note pan="0" type="0" len="24" pos="336" key="36" vol="100"/>
          <note pan="0" type="0" len="24" pos="360" key="44" vol="100"/>
        </midiclip>
        <midiclip type="1" autoresize="1" name="" off="0" len="384" pos="9216" muted="0" steps="16">
          <note pan="0" type="0" len="24" pos="0" key="36" vol="100"/>
          <note pan="0" type="0" len="24" pos="24" key="54" vol="100"/>
          <note pan="0" type="0" len="24" pos="48" key="52" vol="100"/>
          <note pan="0" type="0" len="24" pos="72" key="36" vol="100"/>
          <note pan="0" type="0" len="24" pos="96" key="42" vol="100"/>
          <note pan="0" type="0" len="24" pos="120" key="52" vol="100"/>
          <note pan="0" type="0" len="24" pos="144" key="36" vol="100"/>
          <note pan="0" type="0" len="24" pos="192" key="36" vol="100"/>
          <note pan="0" type="0" len="24" pos="216" key="54" vol="100"/>
          <note pan="0" type="0" len="24" pos="240" key="52" vol="100"/>
          <note pan="0" type="0" len="24" pos="264" key="36" vol="100"/>
          <note pan="0" type="0" len="24" pos="288" key="42" vol="100"/>
          <note pan="0" type="0" len="24" pos="312" key="52" vol="100"/>
          <note pan="0" type="0" len="24" pos="336" key="46" vol="100"/>
          <note pan="0" type="0" len="24" pos="336" key="36" vol="100"/>
          <note pan="0" type="0" len="24" pos="360" key="44" vol="100"/>
        </midiclip>
        <midiclip type="1" autoresize="1" name="" off="0" len="384" pos="9600" muted="0" steps="16">
          <note pan="0" type="0" len="24" pos="0" key="36" vol="100"/>
          <note pan="0" type="0" len="24" pos="24" key="54" vol="100"/>
          <note pan="0" type="0" len="24" pos="48" key="52" vol="100"/>
          <note pan="0" type="0" len="24" pos="72" key="36" vol="100"/>
          <note pan="0" type="0" len="24" pos="96" key="42" vol="100"/>
          <note pan="0" type="0" len="24" pos="120" key="52" vol="100"/>
          <note pan="0" type="0" len="24" pos="144" key="36" vol="100"/>
          <note pan="0" type="0" len="24" pos="192" key="36" vol="100"/>
          <note pan="0" type="0" len="24" pos="216" key="54" vol="100"/>
          <note pan="0" type="0" len="24" pos="240" key="52" vol="100"/>
          <note pan="0" type="0" len="24" pos="264" key="36" vol="100"/>
          <note pan="0" type="0" len="24" pos="288" key="42" vol="100"/>
          <note pan="0" type="0" len="24" pos="312" key="52" vol="100"/>
          <note pan="0" type="0" len="24" pos="336" key="46" vol="100"/>
          <note pan="0" type="0" len="24" pos="336" key="36" vol="100"/>
          <note pan="0" type="0" len="24" pos="360" key="44" vol="100"/>
        </midiclip>
        <midiclip type="1" autoresize="1" name="" off="0" len="384" pos="9984" muted="0" steps="16">
          <note pan="0" type="0" len="24" pos="0" key="36" vol="100"/>
          <note pan="0" type="0" len="24" pos="24" key="54" vol="100"/>
          <note pan="0" type="0" len="24" pos="48" key="52" vol="100"/>
          <note pan="0" type="0" len="24" pos="72" key="36" vol="100"/>
          <note pan="0" type="0" len="24" pos="96" key="42" vol="100"/>
          <note pan="0" type="0" len="24" pos="120" key="52" vol="100"/>
          <note pan="0" type="0" len="24" pos="144" key="36" vol="100"/>
          <note pan="0" type="0" len="24" pos="192" key="36" vol="100"/>
          <note pan="0" type="0" len="24" pos="216" key="54" vol="100"/>
          <note pan="0" type="0" len="24" pos="240" key="52" vol="100"/>
          <note pan="0" type="0" len="24" pos="264" key="36" vol="100"/>
          <note pan="0" type="0" len="24" pos="288" key="42" vol="100"/>
          <note pan="0" type="0" len="24" pos="312" key="52" vol="100"/>
          <note pan="0" type="0" len="24" pos="336" key="46" vol="100"/>
          <note pan="0" type="0" len="24" pos="336" key="36" vol="100"/>
          <note pan="0" type="0" len="24" pos="360" key="44" vol="100"/>
        </midiclip>
        <midiclip type="1" autoresize="1" name="" off="0" len="384" pos="10368" muted="0" steps="16">
          <note pan="0" type="0" len="24" pos="0" key="36" vol="100"/>
          <note pan="0" type="0" len="24" pos="24" key="54" vol="100"/>
          <note pan="0" type="0" len="24" pos="48" key="52" vol="100"/>
          <note pan="0" type="0" len="24" pos="72" key="36" vol="100"/>
          <note pan="0" type="0" len="24" pos="96" key="42" vol="100"/>
          <note pan="0" type="0" len="24" pos="120" key="52" vol="100"/>
          <note pan="0" type="0" len="24" pos="144" key="36" vol="100"/>
          <note pan="0" type="0" len="24" pos="192" key="36" vol="100"/>
          <note pan="0" type="0" len="24" pos="216" key="54" vol="100"/>
          <note pan="0" type="0" len="24" pos="240" key="52" vol="100"/>
          <note pan="0" type="0" len="24" pos="264" key="36" vol="100"/>
          <note pan="0" type="0" len="24" pos="288" key="42" vol="100"/>
          <note pan="0" type="0" len="24" pos="312" key="52" vol="100"/>
          <note pan="0" type="0" len="24" pos="336" key="46" vol="100"/>
          <note pan="0" type="0" len="24" pos="336" key="36" vol="100"/>
          <note pan="0" type="0" len="24" pos="360" key="44" vol="100"/>
        </midiclip>
        <midiclip type="1" autoresize="1" name="" off="0" len="384" pos="10752" muted="0" steps="16">
          <note pan="0" type="0" len="24" pos="0" key="36" vol="100"/>
          <note pan="0" type="0" len="24" pos="24" key="54" vol="100"/>
          <note pan="0" type="0" len="24" pos="48" key="52" vol="100"/>
          <note pan="0" type="0" len="24" pos="72" key="36" vol="100"/>
          <note pan="0" type="0" len="24" pos="96" key="42" vol="100"/>
          <note pan="0" type="0" len="24" pos="120" key="52" vol="100"/>
          <note pan="0" type="0" len="24" pos="144" key="36" vol="100"/>
          <note pan="0" type="0" len="24" pos="192" key="36" vol="100"/>
          <note pan="0" type="0" len="24" pos="216" key="54" vol="100"/>
          <note pan="0" type="0" len="24" pos="240" key="52" vol="100"/>
          <note pan="0" type="0" len="24" pos="264" key="36" vol="100"/>
          <note pan="0" type="0" len="24" pos="288" key="42" vol="100"/>
          <note pan="0" type="0" len="24" pos="312" key="52" vol="100"/>
          <note pan="0" type="0" len="24" pos="336" key="46" vol="100"/>
          <note pan="0" type="0" len="24" pos="336" key="36" vol="100"/>
          <note pan="0" type="0" len="24" pos="360" key="44" vol="100"/>
        </midiclip>
        <midiclip type="1" autoresize="1" name="" off="0" len="384" pos="11136" muted="0" steps="16">
          <note pan="0" type="0" len="24" pos="0" key="36" vol="100"/>
          <note pan="0" type="0" len="24" pos="24" key="54" vol="100"/>
          <note pan="0" type="0" len="24" pos="48" key="52" vol="100"/>
          <note pan="0" type="0" len="24" pos="72" key="36" vol="100"/>
          <note pan="0" type="0" len="24" pos="96" key="42" vol="100"/>
          <note pan="0" type="0" len="24" pos="120" key="52" vol="100"/>
          <note pan="0" type="0" len="24" pos="144" key="36" vol="100"/>
          <note pan="0" type="0" len="24" pos="192" key="36" vol="100"/>
          <note pan="0" type="0" len="24" pos="216" key="54" vol="100"/>
          <note pan="0" type="0" len="24" pos="240" key="52" vol="100"/>
          <note pan="0" type="0" len="24" pos="264" key="36" vol="100"/>
          <note pan="0" type="0" len="24" pos="288" key="42" vol="100"/>
          <note pan="0" type="0" len="24" pos="312" key="52" vol="100"/>
          <note pan="0" type="0" len="24" pos="336" key="46" vol="100"/>
          <note pan="0" type="0" len="24" pos="336" key="36" vol="100"/>
          <note pan="0" type="0" len="24" pos="360" key="44" vol="100"/>
        </midiclip>
      </track>
      <track type="0" name="Drums>Stick" trackheight="32" mutedBeforeSolo="0" muted="0" solo="0">
        <instrumenttrack pan="0" range_import="1" mixch="5" pitchrange="1" firstkey="42" keymap="0" usemasterpitch="0" scale="0" pitch="-100" basenote="69" lastkey="42" enablecc="0" enabled="0" vol="100">
          <midicontrollers cc115="0" cc71="0" cc3="0" cc63="0" cc90="0" cc74="0" cc82="0" cc96="0" cc10="0" cc17="0" cc116="0" cc59="0" cc122="0" cc118="0" cc45="0" cc77="0" cc72="0" cc40="0" cc2="0" cc105="0" cc24="0" cc33="0" cc43="0" cc13="0" cc88="0" cc6="0" cc31="0" cc52="0" cc15="0" cc67="0" cc7="0" cc41="0" cc4="0" cc19="0" cc125="0" cc75="0" cc79="0" cc93="0" cc25="0" cc39="0" cc51="0" cc87="0" cc55="0" cc28="0" cc26="0" cc98="0" cc102="0" cc50="0" cc23="0" cc16="0" cc92="0" cc57="0" cc69="0" cc18="0" cc85="0" cc103="0" cc126="0" cc124="0" cc9="0" cc20="0" cc68="0" cc114="0" cc30="0" cc47="0" cc86="0" cc97="0" cc5="0" cc73="0" cc60="0" cc108="0" cc66="0" cc58="0" cc121="0" cc49="0" cc99="0" cc65="0" cc83="0" cc35="0" cc94="0" cc44="0" cc112="0" cc37="0" cc64="0" cc84="0" cc14="0" cc38="0" cc32="0" cc62="0" cc78="0" cc54="0" cc34="0" cc117="0" cc76="0" cc127="0" cc89="0" cc0="0" cc100="0" cc109="0" cc111="0" cc29="0" cc95="0" cc70="0" cc91="0" cc27="0" cc81="0" cc120="0" cc1="0" cc42="0" cc113="0" cc22="0" cc80="0" cc110="0" cc8="0" cc46="0" cc12="0" cc53="0" cc11="0" cc21="0" cc36="0" cc56="0" cc101="0" cc106="0" cc61="0" cc48="0" cc123="0" cc104="0" cc119="0" cc107="0"/>
          <instrument name="sf2player">
            <sf2player reverbWidth="0.5" reverbLevel="0.89999998" chorusDepth="8" src="usersoundfont:FluidR3 GM.sf2" chorusOn="0" bank="128" chorusSpeed="0.30000001" chorusNum="3" reverbOn="0" gain="0.34" patch="17" reverbRoomSize="0.2" chorusLevel="2" reverbDamping="0">
              <key/>
            </sf2player>
          </instrument>
          <eldata ftype="0" fres="0.5" fcut="14000" fwet="0">
            <elvol pdel="0" lshp="0" lspd_numerator="4" rel="0.1" ctlenvamt="0" lspd_denominator="4" dec="0.5" hold="0.5" lamt="0" lpdel="0" x100="0" userwavefile="" amt="0" latt="0" sustain="0.5" lspd_syncmode="0" att="0" lspd="0.1"/>
            <elcut pdel="0" lshp="0" lspd_numerator="4" rel="0.1" ctlenvamt="0" lspd_denominator="4" dec="0.5" hold="0.5" lamt="0" lpdel="0" x100="0" userwavefile="" amt="0" latt="0" sustain="0.5" lspd_syncmode="0" att="0" lspd="0.1"/>
            <elres pdel="0" lshp="0" lspd_numerator="4" rel="0.1" ctlenvamt="0" lspd_denominator="4" dec="0.5" hold="0.5" lamt="0" lpdel="0" x100="0" userwavefile="" amt="0" latt="0" sustain="0.5" lspd_syncmode="0" att="0" lspd="0.1"/>
          </eldata>
          <chordcreator chord="0" chordrange="1" chord-enabled="0"/>
          <arpeggiator arprange="1" arpdir="0" arpskip="0" arpmode="0" arpmiss="0" arptime="200" arpgate="100" arptime_numerator="4" arp-enabled="0" arpcycle="0" arptime_denominator="4" arptime_syncmode="0" arprepeats="1" arp="0"/>
          <midiport inputcontroller="0" fixedoutputvelocity="-1" readable="1" fixedoutputnote="-1" basevelocity="127" fixedinputvelocity="-1" inports="" inputchannel="0" outputchannel="1" writable="0" outputcontroller="0" outputprogram="1"/>
          <fxchain numofeffects="0" enabled="0"/>
        </instrumenttrack>
        <midiclip type="1" autoresize="1" name="" off="0" len="384" pos="1920" muted="0" steps="16">
          <note pan="0" type="0" len="24" pos="0" key="36" vol="100"/>
          <note pan="0" type="0" len="24" pos="24" key="54" vol="100"/>
          <note pan="0" type="0" len="24" pos="48" key="52" vol="100"/>
          <note pan="0" type="0" len="24" pos="72" key="36" vol="100"/>
          <note pan="0" type="0" len="24" pos="96" key="42" vol="100"/>
          <note pan="0" type="0" len="24" pos="120" key="52" vol="100"/>
          <note pan="0" type="0" len="24" pos="144" key="36" vol="100"/>
          <note pan="0" type="0" len="24" pos="192" key="36" vol="100"/>
          <note pan="0" type="0" len="24" pos="216" key="54" vol="100"/>
          <note pan="0" type="0" len="24" pos="240" key="52" vol="100"/>
          <note pan="0" type="0" len="24" pos="264" key="36" vol="100"/>
          <note pan="0" type="0" len="24" pos="288" key="42" vol="100"/>
          <note pan="0" type="0" len="24" pos="312" key="52" vol="100"/>
          <note pan="0" type="0" len="24" pos="336" key="46" vol="100"/>
          <note pan="0" type="0" len="24" pos="336" key="36" vol="100"/>
          <note pan="0" type="0" len="24" pos="360" key="44" vol="100"/>
        </midiclip>
        <midiclip type="1" autoresize="1" name="" off="0" len="384" pos="2304" muted="0" steps="16">
          <note pan="0" type="0" len="24" pos="0" key="36" vol="100"/>
          <note pan="0" type="0" len="24" pos="24" key="54" vol="100"/>
          <note pan="0" type="0" len="24" pos="48" key="52" vol="100"/>
          <note pan="0" type="0" len="24" pos="72" key="36" vol="100"/>
          <note pan="0" type="0" len="24" pos="96" key="42" vol="100"/>
          <note pan="0" type="0" len="24" pos="120" key="52" vol="100"/>
          <note pan="0" type="0" len="24" pos="144" key="36" vol="100"/>
          <note pan="0" type="0" len="24" pos="192" key="36" vol="100"/>
          <note pan="0" type="0" len="24" pos="216" key="54" vol="100"/>
          <note pan="0" type="0" len="24" pos="240" key="52" vol="100"/>
          <note pan="0" type="0" len="24" pos="264" key="36" vol="100"/>
          <note pan="0" type="0" len="24" pos="288" key="42" vol="100"/>
          <note pan="0" type="0" len="24" pos="312" key="52" vol="100"/>
          <note pan="0" type="0" len="24" pos="336" key="46" vol="100"/>
          <note pan="0" type="0" len="24" pos="336" key="36" vol="100"/>
          <note pan="0" type="0" len="24" pos="360" key="44" vol="100"/>
        </midiclip>
        <midiclip type="1" autoresize="1" name="" off="0" len="384" pos="2688" muted="0" steps="16">
          <note pan="0" type="0" len="24" pos="0" key="36" vol="100"/>
          <note pan="0" type="0" len="24" pos="24" key="54" vol="100"/>
          <note pan="0" type="0" len="24" pos="48" key="52" vol="100"/>
          <note pan="0" type="0" len="24" pos="72" key="36" vol="100"/>
          <note pan="0" type="0" len="24" pos="96" key="42" vol="100"/>
          <note pan="0" type="0" len="24" pos="120" key="52" vol="100"/>
          <note pan="0" type="0" len="24" pos="144" key="36" vol="100"/>
          <note pan="0" type="0" len="24" pos="192" key="36" vol="100"/>
          <note pan="0" type="0" len="24" pos="216" key="54" vol="100"/>
          <note pan="0" type="0" len="24" pos="240" key="52" vol="100"/>
          <note pan="0" type="0" len="24" pos="264" key="36" vol="100"/>
          <note pan="0" type="0" len="24" pos="288" key="42" vol="100"/>
          <note pan="0" type="0" len="24" pos="312" key="52" vol="100"/>
          <note pan="0" type="0" len="24" pos="336" key="46" vol="100"/>
          <note pan="0" type="0" len="24" pos="336" key="36" vol="100"/>
          <note pan="0" type="0" len="24" pos="360" key="44" vol="100"/>
        </midiclip>
        <midiclip type="1" autoresize="1" name="" off="0" len="384" pos="3072" muted="0" steps="16">
          <note pan="0" type="0" len="24" pos="0" key="36" vol="100"/>
          <note pan="0" type="0" len="24" pos="24" key="54" vol="100"/>
          <note pan="0" type="0" len="24" pos="48" key="52" vol="100"/>
          <note pan="0" type="0" len="24" pos="72" key="36" vol="100"/>
          <note pan="0" type="0" len="24" pos="96" key="42" vol="100"/>
          <note pan="0" type="0" len="24" pos="120" key="52" vol="100"/>
          <note pan="0" type="0" len="24" pos="144" key="36" vol="100"/>
          <note pan="0" type="0" len="24" pos="192" key="36" vol="100"/>
          <note pan="0" type="0" len="24" pos="216" key="54" vol="100"/>
          <note pan="0" type="0" len="24" pos="240" key="52" vol="100"/>
          <note pan="0" type="0" len="24" pos="264" key="36" vol="100"/>
          <note pan="0" type="0" len="24" pos="288" key="42" vol="100"/>
          <note pan="0" type="0" len="24" pos="312" key="52" vol="100"/>
          <note pan="0" type="0" len="24" pos="336" key="46" vol="100"/>
          <note pan="0" type="0" len="24" pos="336" key="36" vol="100"/>
          <note pan="0" type="0" len="24" pos="360" key="44" vol="100"/>
        </midiclip>
        <midiclip type="1" autoresize="1" name="" off="0" len="384" pos="1152" muted="0" steps="16">
          <note pan="0" type="0" len="24" pos="0" key="36" vol="100"/>
          <note pan="0" type="0" len="24" pos="72" key="36" vol="100"/>
          <note pan="0" type="0" len="24" pos="144" key="36" vol="100"/>
          <note pan="0" type="0" len="24" pos="192" key="36" vol="100"/>
          <note pan="0" type="0" len="24" pos="264" key="36" vol="100"/>
          <note pan="0" type="0" len="24" pos="336" key="36" vol="100"/>
        </midiclip>
        <midiclip type="1" autoresize="1" name="" off="0" len="384" pos="1536" muted="0" steps="16">
          <note pan="0" type="0" len="24" pos="0" key="36" vol="100"/>
          <note pan="0" type="0" len="24" pos="72" key="36" vol="100"/>
          <note pan="0" type="0" len="24" pos="144" key="36" vol="100"/>
          <note pan="0" type="0" len="24" pos="192" key="36" vol="100"/>
          <note pan="0" type="0" len="24" pos="264" key="36" vol="100"/>
          <note pan="0" type="0" len="24" pos="288" key="44" vol="100"/>
          <note pan="0" type="0" len="24" pos="312" key="46" vol="100"/>
          <note pan="0" type="0" len="24" pos="336" key="42" vol="100"/>
          <note pan="0" type="0" len="24" pos="336" key="36" vol="100"/>
          <note pan="0" type="0" len="24" pos="360" key="52" vol="100"/>
        </midiclip>
        <midiclip type="1" autoresize="1" name="" off="0" len="384" pos="3456" muted="0" steps="16">
          <note pan="0" type="0" len="24" pos="0" key="36" vol="100"/>
          <note pan="0" type="0" len="24" pos="24" key="54" vol="100"/>
          <note pan="0" type="0" len="24" pos="48" key="52" vol="100"/>
          <note pan="0" type="0" len="24" pos="72" key="36" vol="100"/>
          <note pan="0" type="0" len="24" pos="96" key="42" vol="100"/>
          <note pan="0" type="0" len="24" pos="120" key="52" vol="100"/>
          <note pan="0" type="0" len="24" pos="144" key="36" vol="100"/>
          <note pan="0" type="0" len="24" pos="192" key="36" vol="100"/>
          <note pan="0" type="0" len="24" pos="216" key="54" vol="100"/>
          <note pan="0" type="0" len="24" pos="240" key="52" vol="100"/>
          <note pan="0" type="0" len="24" pos="264" key="36" vol="100"/>
          <note pan="0" type="0" len="24" pos="288" key="42" vol="100"/>
          <note pan="0" type="0" len="24" pos="312" key="52" vol="100"/>
          <note pan="0" type="0" len="24" pos="336" key="46" vol="100"/>
          <note pan="0" type="0" len="24" pos="336" key="36" vol="100"/>
          <note pan="0" type="0" len="24" pos="360" key="44" vol="100"/>
        </midiclip>
        <midiclip type="1" autoresize="1" name="" off="0" len="384" pos="3840" muted="0" steps="16">
          <note pan="0" type="0" len="24" pos="0" key="36" vol="100"/>
          <note pan="0" type="0" len="24" pos="24" key="54" vol="100"/>
          <note pan="0" type="0" len="24" pos="48" key="52" vol="100"/>
          <note pan="0" type="0" len="24" pos="72" key="36" vol="100"/>
          <note pan="0" type="0" len="24" pos="96" key="42" vol="100"/>
          <note pan="0" type="0" len="24" pos="120" key="52" vol="100"/>
          <note pan="0" type="0" len="24" pos="144" key="36" vol="100"/>
          <note pan="0" type="0" len="24" pos="192" key="36" vol="100"/>
          <note pan="0" type="0" len="24" pos="216" key="54" vol="100"/>
          <note pan="0" type="0" len="24" pos="240" key="52" vol="100"/>
          <note pan="0" type="0" len="24" pos="264" key="36" vol="100"/>
          <note pan="0" type="0" len="24" pos="288" key="42" vol="100"/>
          <note pan="0" type="0" len="24" pos="312" key="52" vol="100"/>
          <note pan="0" type="0" len="24" pos="336" key="46" vol="100"/>
          <note pan="0" type="0" len="24" pos="336" key="36" vol="100"/>
          <note pan="0" type="0" len="24" pos="360" key="44" vol="100"/>
        </midiclip>
        <midiclip type="1" autoresize="1" name="" off="0" len="384" pos="4224" muted="0" steps="16">
          <note pan="0" type="0" len="24" pos="0" key="36" vol="100"/>
          <note pan="0" type="0" len="24" pos="24" key="54" vol="100"/>
          <note pan="0" type="0" len="24" pos="48" key="52" vol="100"/>
          <note pan="0" type="0" len="24" pos="72" key="36" vol="100"/>
          <note pan="0" type="0" len="24" pos="96" key="42" vol="100"/>
          <note pan="0" type="0" len="24" pos="120" key="52" vol="100"/>
          <note pan="0" type="0" len="24" pos="144" key="36" vol="100"/>
          <note pan="0" type="0" len="24" pos="192" key="36" vol="100"/>
          <note pan="0" type="0" len="24" pos="216" key="54" vol="100"/>
          <note pan="0" type="0" len="24" pos="240" key="52" vol="100"/>
          <note pan="0" type="0" len="24" pos="264" key="36" vol="100"/>
          <note pan="0" type="0" len="24" pos="288" key="42" vol="100"/>
          <note pan="0" type="0" len="24" pos="312" key="52" vol="100"/>
          <note pan="0" type="0" len="24" pos="336" key="46" vol="100"/>
          <note pan="0" type="0" len="24" pos="336" key="36" vol="100"/>
          <note pan="0" type="0" len="24" pos="360" key="44" vol="100"/>
        </midiclip>
        <midiclip type="1" autoresize="1" name="" off="0" len="384" pos="4608" muted="0" steps="16">
          <note pan="0" type="0" len="24" pos="0" key="36" vol="100"/>
          <note pan="0" type="0" len="24" pos="24" key="54" vol="100"/>
          <note pan="0" type="0" len="24" pos="48" key="52" vol="100"/>
          <note pan="0" type="0" len="24" pos="72" key="36" vol="100"/>
          <note pan="0" type="0" len="24" pos="96" key="42" vol="100"/>
          <note pan="0" type="0" len="24" pos="120" key="52" vol="100"/>
          <note pan="0" type="0" len="24" pos="144" key="36" vol="100"/>
          <note pan="0" type="0" len="24" pos="192" key="36" vol="100"/>
          <note pan="0" type="0" len="24" pos="216" key="54" vol="100"/>
          <note pan="0" type="0" len="24" pos="240" key="52" vol="100"/>
          <note pan="0" type="0" len="24" pos="264" key="36" vol="100"/>
          <note pan="0" type="0" len="24" pos="288" key="42" vol="100"/>
          <note pan="0" type="0" len="24" pos="312" key="52" vol="100"/>
          <note pan="0" type="0" len="24" pos="336" key="46" vol="100"/>
          <note pan="0" type="0" len="24" pos="336" key="36" vol="100"/>
          <note pan="0" type="0" len="24" pos="360" key="44" vol="100"/>
        </midiclip>
        <midiclip type="1" autoresize="1" name="" off="0" len="384" pos="6912" muted="0" steps="16">
          <note pan="0" type="0" len="12" pos="0" key="36" vol="100"/>
          <note pan="0" type="0" len="12" pos="24" key="46" vol="100"/>
          <note pan="0" type="0" len="12" pos="48" key="36" vol="100"/>
          <note pan="0" type="0" len="12" pos="72" key="44" vol="100"/>
          <note pan="0" type="0" len="12" pos="96" key="36" vol="100"/>
          <note pan="0" type="0" len="12" pos="120" key="46" vol="100"/>
          <note pan="0" type="0" len="12" pos="144" key="36" vol="100"/>
          <note pan="0" type="0" len="12" pos="168" key="44" vol="100"/>
          <note pan="0" type="0" len="12" pos="192" key="36" vol="100"/>
          <note pan="0" type="0" len="12" pos="216" key="46" vol="100"/>
          <note pan="0" type="0" len="12" pos="240" key="36" vol="100"/>
          <note pan="0" type="0" len="12" pos="264" key="44" vol="100"/>
          <note pan="0" type="0" len="12" pos="288" key="36" vol="100"/>
          <note pan="0" type="0" len="12" pos="312" key="46" vol="100"/>
          <note pan="0" type="0" len="12" pos="312" key="36" vol="100"/>
          <note pan="0" type="0" len="12" pos="324" key="36" vol="100"/>
          <note pan="0" type="0" len="12" pos="336" key="36" vol="100"/>
          <note pan="0" type="0" len="12" pos="360" key="44" vol="100"/>
          <note pan="0" type="0" len="12" pos="360" key="36" vol="100"/>
        </midiclip>
        <midiclip type="1" autoresize="1" name="" off="0" len="384" pos="7296" muted="0" steps="16">
          <note pan="0" type="0" len="12" pos="0" key="36" vol="100"/>
          <note pan="0" type="0" len="12" pos="24" key="46" vol="100"/>
          <note pan="0" type="0" len="12" pos="48" key="36" vol="100"/>
          <note pan="0" type="0" len="12" pos="72" key="44" vol="100"/>
          <note pan="0" type="0" len="12" pos="96" key="36" vol="100"/>
          <note pan="0" type="0" len="12" pos="120" key="46" vol="100"/>
          <note pan="0" type="0" len="12" pos="144" key="36" vol="100"/>
          <note pan="0" type="0" len="12" pos="168" key="44" vol="100"/>
          <note pan="0" type="0" len="12" pos="192" key="36" vol="100"/>
          <note pan="0" type="0" len="12" pos="216" key="46" vol="100"/>
          <note pan="0" type="0" len="12" pos="240" key="36" vol="100"/>
          <note pan="0" type="0" len="12" pos="264" key="44" vol="100"/>
          <note pan="0" type="0" len="12" pos="288" key="36" vol="100"/>
          <note pan="0" type="0" len="12" pos="312" key="46" vol="100"/>
          <note pan="0" type="0" len="12" pos="312" key="36" vol="100"/>
          <note pan="0" type="0" len="12" pos="324" key="36" vol="100"/>
          <note pan="0" type="0" len="12" pos="336" key="36" vol="100"/>
          <note pan="0" type="0" len="12" pos="360" key="44" vol="100"/>
          <note pan="0" type="0" len="12" pos="360" key="36" vol="100"/>
        </midiclip>
        <midiclip type="1" autoresize="1" name="" off="0" len="384" pos="7680" muted="0" steps="16">
          <note pan="0" type="0" len="12" pos="0" key="36" vol="100"/>
          <note pan="0" type="0" len="12" pos="24" key="46" vol="100"/>
          <note pan="0" type="0" len="12" pos="48" key="36" vol="100"/>
          <note pan="0" type="0" len="12" pos="72" key="44" vol="100"/>
          <note pan="0" type="0" len="12" pos="96" key="36" vol="100"/>
          <note pan="0" type="0" len="12" pos="120" key="46" vol="100"/>
          <note pan="0" type="0" len="12" pos="144" key="36" vol="100"/>
          <note pan="0" type="0" len="12" pos="168" key="44" vol="100"/>
          <note pan="0" type="0" len="12" pos="192" key="36" vol="100"/>
          <note pan="0" type="0" len="12" pos="216" key="46" vol="100"/>
          <note pan="0" type="0" len="12" pos="240" key="36" vol="100"/>
          <note pan="0" type="0" len="12" pos="264" key="44" vol="100"/>
          <note pan="0" type="0" len="12" pos="288" key="36" vol="100"/>
          <note pan="0" type="0" len="12" pos="312" key="46" vol="100"/>
          <note pan="0" type="0" len="12" pos="312" key="36" vol="100"/>
          <note pan="0" type="0" len="12" pos="324" key="36" vol="100"/>
          <note pan="0" type="0" len="12" pos="336" key="36" vol="100"/>
          <note pan="0" type="0" len="12" pos="360" key="44" vol="100"/>
          <note pan="0" type="0" len="12" pos="360" key="36" vol="100"/>
        </midiclip>
        <midiclip type="1" autoresize="1" name="" off="0" len="384" pos="8064" muted="0" steps="16">
          <note pan="0" type="0" len="12" pos="0" key="36" vol="100"/>
          <note pan="0" type="0" len="12" pos="24" key="46" vol="100"/>
          <note pan="0" type="0" len="12" pos="48" key="36" vol="100"/>
          <note pan="0" type="0" len="12" pos="72" key="44" vol="100"/>
          <note pan="0" type="0" len="12" pos="96" key="36" vol="100"/>
          <note pan="0" type="0" len="12" pos="120" key="46" vol="100"/>
          <note pan="0" type="0" len="12" pos="144" key="36" vol="100"/>
          <note pan="0" type="0" len="12" pos="168" key="44" vol="100"/>
          <note pan="0" type="0" len="12" pos="192" key="36" vol="100"/>
          <note pan="0" type="0" len="12" pos="216" key="46" vol="100"/>
          <note pan="0" type="0" len="12" pos="240" key="36" vol="100"/>
          <note pan="0" type="0" len="12" pos="264" key="44" vol="100"/>
          <note pan="0" type="0" len="12" pos="288" key="36" vol="100"/>
          <note pan="0" type="0" len="12" pos="312" key="46" vol="100"/>
          <note pan="0" type="0" len="12" pos="312" key="36" vol="100"/>
          <note pan="0" type="0" len="12" pos="324" key="36" vol="100"/>
          <note pan="0" type="0" len="12" pos="336" key="36" vol="100"/>
          <note pan="0" type="0" len="12" pos="360" key="44" vol="100"/>
          <note pan="0" type="0" len="12" pos="360" key="36" vol="100"/>
        </midiclip>
        <midiclip type="1" autoresize="1" name="" off="0" len="384" pos="8448" muted="0" steps="16">
          <note pan="0" type="0" len="24" pos="0" key="36" vol="100"/>
          <note pan="0" type="0" len="24" pos="24" key="54" vol="100"/>
          <note pan="0" type="0" len="24" pos="48" key="52" vol="100"/>
          <note pan="0" type="0" len="24" pos="72" key="36" vol="100"/>
          <note pan="0" type="0" len="24" pos="96" key="42" vol="100"/>
          <note pan="0" type="0" len="24" pos="120" key="52" vol="100"/>
          <note pan="0" type="0" len="24" pos="144" key="36" vol="100"/>
          <note pan="0" type="0" len="24" pos="192" key="36" vol="100"/>
          <note pan="0" type="0" len="24" pos="216" key="54" vol="100"/>
          <note pan="0" type="0" len="24" pos="240" key="52" vol="100"/>
          <note pan="0" type="0" len="24" pos="264" key="36" vol="100"/>
          <note pan="0" type="0" len="24" pos="288" key="42" vol="100"/>
          <note pan="0" type="0" len="24" pos="312" key="52" vol="100"/>
          <note pan="0" type="0" len="24" pos="336" key="46" vol="100"/>
          <note pan="0" type="0" len="24" pos="336" key="36" vol="100"/>
          <note pan="0" type="0" len="24" pos="360" key="44" vol="100"/>
        </midiclip>
        <midiclip type="1" autoresize="1" name="" off="0" len="384" pos="8832" muted="0" steps="16">
          <note pan="0" type="0" len="24" pos="0" key="36" vol="100"/>
          <note pan="0" type="0" len="24" pos="24" key="54" vol="100"/>
          <note pan="0" type="0" len="24" pos="48" key="52" vol="100"/>
          <note pan="0" type="0" len="24" pos="72" key="36" vol="100"/>
          <note pan="0" type="0" len="24" pos="96" key="42" vol="100"/>
          <note pan="0" type="0" len="24" pos="120" key="52" vol="100"/>
          <note pan="0" type="0" len="24" pos="144" key="36" vol="100"/>
          <note pan="0" type="0" len="24" pos="192" key="36" vol="100"/>
          <note pan="0" type="0" len="24" pos="216" key="54" vol="100"/>
          <note pan="0" type="0" len="24" pos="240" key="52" vol="100"/>
          <note pan="0" type="0" len="24" pos="264" key="36" vol="100"/>
          <note pan="0" type="0" len="24" pos="288" key="42" vol="100"/>
          <note pan="0" type="0" len="24" pos="312" key="52" vol="100"/>
          <note pan="0" type="0" len="24" pos="336" key="46" vol="100"/>
          <note pan="0" type="0" len="24" pos="336" key="36" vol="100"/>
          <note pan="0" type="0" len="24" pos="360" key="44" vol="100"/>
        </midiclip>
        <midiclip type="1" autoresize="1" name="" off="0" len="384" pos="9216" muted="0" steps="16">
          <note pan="0" type="0" len="24" pos="0" key="36" vol="100"/>
          <note pan="0" type="0" len="24" pos="24" key="54" vol="100"/>
          <note pan="0" type="0" len="24" pos="48" key="52" vol="100"/>
          <note pan="0" type="0" len="24" pos="72" key="36" vol="100"/>
          <note pan="0" type="0" len="24" pos="96" key="42" vol="100"/>
          <note pan="0" type="0" len="24" pos="120" key="52" vol="100"/>
          <note pan="0" type="0" len="24" pos="144" key="36" vol="100"/>
          <note pan="0" type="0" len="24" pos="192" key="36" vol="100"/>
          <note pan="0" type="0" len="24" pos="216" key="54" vol="100"/>
          <note pan="0" type="0" len="24" pos="240" key="52" vol="100"/>
          <note pan="0" type="0" len="24" pos="264" key="36" vol="100"/>
          <note pan="0" type="0" len="24" pos="288" key="42" vol="100"/>
          <note pan="0" type="0" len="24" pos="312" key="52" vol="100"/>
          <note pan="0" type="0" len="24" pos="336" key="46" vol="100"/>
          <note pan="0" type="0" len="24" pos="336" key="36" vol="100"/>
          <note pan="0" type="0" len="24" pos="360" key="44" vol="100"/>
        </midiclip>
        <midiclip type="1" autoresize="1" name="" off="0" len="384" pos="9600" muted="0" steps="16">
          <note pan="0" type="0" len="24" pos="0" key="36" vol="100"/>
          <note pan="0" type="0" len="24" pos="24" key="54" vol="100"/>
          <note pan="0" type="0" len="24" pos="48" key="52" vol="100"/>
          <note pan="0" type="0" len="24" pos="72" key="36" vol="100"/>
          <note pan="0" type="0" len="24" pos="96" key="42" vol="100"/>
          <note pan="0" type="0" len="24" pos="120" key="52" vol="100"/>
          <note pan="0" type="0" len="24" pos="144" key="36" vol="100"/>
          <note pan="0" type="0" len="24" pos="192" key="36" vol="100"/>
          <note pan="0" type="0" len="24" pos="216" key="54" vol="100"/>
          <note pan="0" type="0" len="24" pos="240" key="52" vol="100"/>
          <note pan="0" type="0" len="24" pos="264" key="36" vol="100"/>
          <note pan="0" type="0" len="24" pos="288" key="42" vol="100"/>
          <note pan="0" type="0" len="24" pos="312" key="52" vol="100"/>
          <note pan="0" type="0" len="24" pos="336" key="46" vol="100"/>
          <note pan="0" type="0" len="24" pos="336" key="36" vol="100"/>
          <note pan="0" type="0" len="24" pos="360" key="44" vol="100"/>
        </midiclip>
        <midiclip type="1" autoresize="1" name="" off="0" len="384" pos="9984" muted="0" steps="16">
          <note pan="0" type="0" len="24" pos="0" key="36" vol="100"/>
          <note pan="0" type="0" len="24" pos="24" key="54" vol="100"/>
          <note pan="0" type="0" len="24" pos="48" key="52" vol="100"/>
          <note pan="0" type="0" len="24" pos="72" key="36" vol="100"/>
          <note pan="0" type="0" len="24" pos="96" key="42" vol="100"/>
          <note pan="0" type="0" len="24" pos="120" key="52" vol="100"/>
          <note pan="0" type="0" len="24" pos="144" key="36" vol="100"/>
          <note pan="0" type="0" len="24" pos="192" key="36" vol="100"/>
          <note pan="0" type="0" len="24" pos="216" key="54" vol="100"/>
          <note pan="0" type="0" len="24" pos="240" key="52" vol="100"/>
          <note pan="0" type="0" len="24" pos="264" key="36" vol="100"/>
          <note pan="0" type="0" len="24" pos="288" key="42" vol="100"/>
          <note pan="0" type="0" len="24" pos="312" key="52" vol="100"/>
          <note pan="0" type="0" len="24" pos="336" key="46" vol="100"/>
          <note pan="0" type="0" len="24" pos="336" key="36" vol="100"/>
          <note pan="0" type="0" len="24" pos="360" key="44" vol="100"/>
        </midiclip>
        <midiclip type="1" autoresize="1" name="" off="0" len="384" pos="10368" muted="0" steps="16">
          <note pan="0" type="0" len="24" pos="0" key="36" vol="100"/>
          <note pan="0" type="0" len="24" pos="24" key="54" vol="100"/>
          <note pan="0" type="0" len="24" pos="48" key="52" vol="100"/>
          <note pan="0" type="0" len="24" pos="72" key="36" vol="100"/>
          <note pan="0" type="0" len="24" pos="96" key="42" vol="100"/>
          <note pan="0" type="0" len="24" pos="120" key="52" vol="100"/>
          <note pan="0" type="0" len="24" pos="144" key="36" vol="100"/>
          <note pan="0" type="0" len="24" pos="192" key="36" vol="100"/>
          <note pan="0" type="0" len="24" pos="216" key="54" vol="100"/>
          <note pan="0" type="0" len="24" pos="240" key="52" vol="100"/>
          <note pan="0" type="0" len="24" pos="264" key="36" vol="100"/>
          <note pan="0" type="0" len="24" pos="288" key="42" vol="100"/>
          <note pan="0" type="0" len="24" pos="312" key="52" vol="100"/>
          <note pan="0" type="0" len="24" pos="336" key="46" vol="100"/>
          <note pan="0" type="0" len="24" pos="336" key="36" vol="100"/>
          <note pan="0" type="0" len="24" pos="360" key="44" vol="100"/>
        </midiclip>
        <midiclip type="1" autoresize="1" name="" off="0" len="384" pos="10752" muted="0" steps="16">
          <note pan="0" type="0" len="24" pos="0" key="36" vol="100"/>
          <note pan="0" type="0" len="24" pos="24" key="54" vol="100"/>
          <note pan="0" type="0" len="24" pos="48" key="52" vol="100"/>
          <note pan="0" type="0" len="24" pos="72" key="36" vol="100"/>
          <note pan="0" type="0" len="24" pos="96" key="42" vol="100"/>
          <note pan="0" type="0" len="24" pos="120" key="52" vol="100"/>
          <note pan="0" type="0" len="24" pos="144" key="36" vol="100"/>
          <note pan="0" type="0" len="24" pos="192" key="36" vol="100"/>
          <note pan="0" type="0" len="24" pos="216" key="54" vol="100"/>
          <note pan="0" type="0" len="24" pos="240" key="52" vol="100"/>
          <note pan="0" type="0" len="24" pos="264" key="36" vol="100"/>
          <note pan="0" type="0" len="24" pos="288" key="42" vol="100"/>
          <note pan="0" type="0" len="24" pos="312" key="52" vol="100"/>
          <note pan="0" type="0" len="24" pos="336" key="46" vol="100"/>
          <note pan="0" type="0" len="24" pos="336" key="36" vol="100"/>
          <note pan="0" type="0" len="24" pos="360" key="44" vol="100"/>
        </midiclip>
        <midiclip type="1" autoresize="1" name="" off="0" len="384" pos="11136" muted="0" steps="16">
          <note pan="0" type="0" len="24" pos="0" key="36" vol="100"/>
          <note pan="0" type="0" len="24" pos="24" key="54" vol="100"/>
          <note pan="0" type="0" len="24" pos="48" key="52" vol="100"/>
          <note pan="0" type="0" len="24" pos="72" key="36" vol="100"/>
          <note pan="0" type="0" len="24" pos="96" key="42" vol="100"/>
          <note pan="0" type="0" len="24" pos="120" key="52" vol="100"/>
          <note pan="0" type="0" len="24" pos="144" key="36" vol="100"/>
          <note pan="0" type="0" len="24" pos="192" key="36" vol="100"/>
          <note pan="0" type="0" len="24" pos="216" key="54" vol="100"/>
          <note pan="0" type="0" len="24" pos="240" key="52" vol="100"/>
          <note pan="0" type="0" len="24" pos="264" key="36" vol="100"/>
          <note pan="0" type="0" len="24" pos="288" key="42" vol="100"/>
          <note pan="0" type="0" len="24" pos="312" key="52" vol="100"/>
          <note pan="0" type="0" len="24" pos="336" key="46" vol="100"/>
          <note pan="0" type="0" len="24" pos="336" key="36" vol="100"/>
          <note pan="0" type="0" len="24" pos="360" key="44" vol="100"/>
        </midiclip>
      </track>
      <track type="0" name="Drums>Hat" trackheight="32" mutedBeforeSolo="0" muted="0" solo="0">
        <instrumenttrack pan="0" range_import="1" mixch="5" pitchrange="1" firstkey="44" keymap="0" usemasterpitch="0" scale="0" pitch="-100" basenote="69" lastkey="46" enablecc="0" enabled="0" vol="100">
          <midicontrollers cc115="0" cc71="0" cc3="0" cc63="0" cc90="0" cc74="0" cc82="0" cc96="0" cc10="0" cc17="0" cc116="0" cc59="0" cc122="0" cc118="0" cc45="0" cc77="0" cc72="0" cc40="0" cc2="0" cc105="0" cc24="0" cc33="0" cc43="0" cc13="0" cc88="0" cc6="0" cc31="0" cc52="0" cc15="0" cc67="0" cc7="0" cc41="0" cc4="0" cc19="0" cc125="0" cc75="0" cc79="0" cc93="0" cc25="0" cc39="0" cc51="0" cc87="0" cc55="0" cc28="0" cc26="0" cc98="0" cc102="0" cc50="0" cc23="0" cc16="0" cc92="0" cc57="0" cc69="0" cc18="0" cc85="0" cc103="0" cc126="0" cc124="0" cc9="0" cc20="0" cc68="0" cc114="0" cc30="0" cc47="0" cc86="0" cc97="0" cc5="0" cc73="0" cc60="0" cc108="0" cc66="0" cc58="0" cc121="0" cc49="0" cc99="0" cc65="0" cc83="0" cc35="0" cc94="0" cc44="0" cc112="0" cc37="0" cc64="0" cc84="0" cc14="0" cc38="0" cc32="0" cc62="0" cc78="0" cc54="0" cc34="0" cc117="0" cc76="0" cc127="0" cc89="0" cc0="0" cc100="0" cc109="0" cc111="0" cc29="0" cc95="0" cc70="0" cc91="0" cc27="0" cc81="0" cc120="0" cc1="0" cc42="0" cc113="0" cc22="0" cc80="0" cc110="0" cc8="0" cc46="0" cc12="0" cc53="0" cc11="0" cc21="0" cc36="0" cc56="0" cc101="0" cc106="0" cc61="0" cc48="0" cc123="0" cc104="0" cc119="0" cc107="0"/>
          <instrument name="sf2player">
            <sf2player reverbWidth="0.5" reverbLevel="0.89999998" chorusDepth="8" src="usersoundfont:FluidR3 GM.sf2" chorusOn="0" bank="128" chorusSpeed="0.30000001" chorusNum="3" reverbOn="0" gain="0.31999999" patch="17" reverbRoomSize="0.2" chorusLevel="2" reverbDamping="0">
              <key/>
            </sf2player>
          </instrument>
          <eldata ftype="0" fres="0.5" fcut="14000" fwet="0">
            <elvol pdel="0" lshp="0" lspd_numerator="4" rel="0.1" ctlenvamt="0" lspd_denominator="4" dec="0.5" hold="0.5" lamt="0" lpdel="0" x100="0" userwavefile="" amt="0" latt="0" sustain="0.5" lspd_syncmode="0" att="0" lspd="0.1"/>
            <elcut pdel="0" lshp="0" lspd_numerator="4" rel="0.1" ctlenvamt="0" lspd_denominator="4" dec="0.5" hold="0.5" lamt="0" lpdel="0" x100="0" userwavefile="" amt="0" latt="0" sustain="0.5" lspd_syncmode="0" att="0" lspd="0.1"/>
            <elres pdel="0" lshp="0" lspd_numerator="4" rel="0.1" ctlenvamt="0" lspd_denominator="4" dec="0.5" hold="0.5" lamt="0" lpdel="0" x100="0" userwavefile="" amt="0" latt="0" sustain="0.5" lspd_syncmode="0" att="0" lspd="0.1"/>
          </eldata>
          <chordcreator chord="0" chordrange="1" chord-enabled="0"/>
          <arpeggiator arprange="1" arpdir="0" arpskip="0" arpmode="0" arpmiss="0" arptime="200" arpgate="100" arptime_numerator="4" arp-enabled="0" arpcycle="0" arptime_denominator="4" arptime_syncmode="0" arprepeats="1" arp="0"/>
          <midiport inputcontroller="0" fixedoutputvelocity="-1" readable="1" fixedoutputnote="-1" basevelocity="127" fixedinputvelocity="-1" inports="" inputchannel="0" outputchannel="1" writable="0" outputcontroller="0" outputprogram="1"/>
          <fxchain numofeffects="0" enabled="0"/>
        </instrumenttrack>
        <midiclip type="1" autoresize="1" name="" off="0" len="384" pos="1920" muted="0" steps="16">
          <note pan="0" type="0" len="24" pos="0" key="36" vol="100"/>
          <note pan="0" type="0" len="24" pos="24" key="54" vol="100"/>
          <note pan="0" type="0" len="24" pos="48" key="52" vol="100"/>
          <note pan="0" type="0" len="24" pos="72" key="36" vol="100"/>
          <note pan="0" type="0" len="24" pos="96" key="42" vol="100"/>
          <note pan="0" type="0" len="24" pos="120" key="52" vol="100"/>
          <note pan="0" type="0" len="24" pos="144" key="36" vol="100"/>
          <note pan="0" type="0" len="24" pos="192" key="36" vol="100"/>
          <note pan="0" type="0" len="24" pos="216" key="54" vol="100"/>
          <note pan="0" type="0" len="24" pos="240" key="52" vol="100"/>
          <note pan="0" type="0" len="24" pos="264" key="36" vol="100"/>
          <note pan="0" type="0" len="24" pos="288" key="42" vol="100"/>
          <note pan="0" type="0" len="24" pos="312" key="52" vol="100"/>
          <note pan="0" type="0" len="24" pos="336" key="46" vol="100"/>
          <note pan="0" type="0" len="24" pos="336" key="36" vol="100"/>
          <note pan="0" type="0" len="24" pos="360" key="44" vol="100"/>
        </midiclip>
        <midiclip type="1" autoresize="1" name="" off="0" len="384" pos="2304" muted="0" steps="16">
          <note pan="0" type="0" len="24" pos="0" key="36" vol="100"/>
          <note pan="0" type="0" len="24" pos="24" key="54" vol="100"/>
          <note pan="0" type="0" len="24" pos="48" key="52" vol="100"/>
          <note pan="0" type="0" len="24" pos="72" key="36" vol="100"/>
          <note pan="0" type="0" len="24" pos="96" key="42" vol="100"/>
          <note pan="0" type="0" len="24" pos="120" key="52" vol="100"/>
          <note pan="0" type="0" len="24" pos="144" key="36" vol="100"/>
          <note pan="0" type="0" len="24" pos="192" key="36" vol="100"/>
          <note pan="0" type="0" len="24" pos="216" key="54" vol="100"/>
          <note pan="0" type="0" len="24" pos="240" key="52" vol="100"/>
          <note pan="0" type="0" len="24" pos="264" key="36" vol="100"/>
          <note pan="0" type="0" len="24" pos="288" key="42" vol="100"/>
          <note pan="0" type="0" len="24" pos="312" key="52" vol="100"/>
          <note pan="0" type="0" len="24" pos="336" key="46" vol="100"/>
          <note pan="0" type="0" len="24" pos="336" key="36" vol="100"/>
          <note pan="0" type="0" len="24" pos="360" key="44" vol="100"/>
        </midiclip>
        <midiclip type="1" autoresize="1" name="" off="0" len="384" pos="2688" muted="0" steps="16">
          <note pan="0" type="0" len="24" pos="0" key="36" vol="100"/>
          <note pan="0" type="0" len="24" pos="24" key="54" vol="100"/>
          <note pan="0" type="0" len="24" pos="48" key="52" vol="100"/>
          <note pan="0" type="0" len="24" pos="72" key="36" vol="100"/>
          <note pan="0" type="0" len="24" pos="96" key="42" vol="100"/>
          <note pan="0" type="0" len="24" pos="120" key="52" vol="100"/>
          <note pan="0" type="0" len="24" pos="144" key="36" vol="100"/>
          <note pan="0" type="0" len="24" pos="192" key="36" vol="100"/>
          <note pan="0" type="0" len="24" pos="216" key="54" vol="100"/>
          <note pan="0" type="0" len="24" pos="240" key="52" vol="100"/>
          <note pan="0" type="0" len="24" pos="264" key="36" vol="100"/>
          <note pan="0" type="0" len="24" pos="288" key="42" vol="100"/>
          <note pan="0" type="0" len="24" pos="312" key="52" vol="100"/>
          <note pan="0" type="0" len="24" pos="336" key="46" vol="100"/>
          <note pan="0" type="0" len="24" pos="336" key="36" vol="100"/>
          <note pan="0" type="0" len="24" pos="360" key="44" vol="100"/>
        </midiclip>
        <midiclip type="1" autoresize="1" name="" off="0" len="384" pos="3072" muted="0" steps="16">
          <note pan="0" type="0" len="24" pos="0" key="36" vol="100"/>
          <note pan="0" type="0" len="24" pos="24" key="54" vol="100"/>
          <note pan="0" type="0" len="24" pos="48" key="52" vol="100"/>
          <note pan="0" type="0" len="24" pos="72" key="36" vol="100"/>
          <note pan="0" type="0" len="24" pos="96" key="42" vol="100"/>
          <note pan="0" type="0" len="24" pos="120" key="52" vol="100"/>
          <note pan="0" type="0" len="24" pos="144" key="36" vol="100"/>
          <note pan="0" type="0" len="24" pos="192" key="36" vol="100"/>
          <note pan="0" type="0" len="24" pos="216" key="54" vol="100"/>
          <note pan="0" type="0" len="24" pos="240" key="52" vol="100"/>
          <note pan="0" type="0" len="24" pos="264" key="36" vol="100"/>
          <note pan="0" type="0" len="24" pos="288" key="42" vol="100"/>
          <note pan="0" type="0" len="24" pos="312" key="52" vol="100"/>
          <note pan="0" type="0" len="24" pos="336" key="46" vol="100"/>
          <note pan="0" type="0" len="24" pos="336" key="36" vol="100"/>
          <note pan="0" type="0" len="24" pos="360" key="44" vol="100"/>
        </midiclip>
        <midiclip type="1" autoresize="1" name="" off="0" len="384" pos="1152" muted="0" steps="16">
          <note pan="0" type="0" len="24" pos="0" key="36" vol="100"/>
          <note pan="0" type="0" len="24" pos="72" key="36" vol="100"/>
          <note pan="0" type="0" len="24" pos="144" key="36" vol="100"/>
          <note pan="0" type="0" len="24" pos="192" key="36" vol="100"/>
          <note pan="0" type="0" len="24" pos="264" key="36" vol="100"/>
          <note pan="0" type="0" len="24" pos="336" key="36" vol="100"/>
        </midiclip>
        <midiclip type="1" autoresize="1" name="" off="0" len="384" pos="1536" muted="0" steps="16">
          <note pan="0" type="0" len="24" pos="0" key="36" vol="100"/>
          <note pan="0" type="0" len="24" pos="72" key="36" vol="100"/>
          <note pan="0" type="0" len="24" pos="144" key="36" vol="100"/>
          <note pan="0" type="0" len="24" pos="192" key="36" vol="100"/>
          <note pan="0" type="0" len="24" pos="264" key="36" vol="100"/>
          <note pan="0" type="0" len="24" pos="288" key="44" vol="100"/>
          <note pan="0" type="0" len="24" pos="312" key="46" vol="100"/>
          <note pan="0" type="0" len="24" pos="336" key="42" vol="100"/>
          <note pan="0" type="0" len="24" pos="336" key="36" vol="100"/>
          <note pan="0" type="0" len="24" pos="360" key="52" vol="100"/>
        </midiclip>
        <midiclip type="1" autoresize="1" name="" off="0" len="384" pos="3456" muted="0" steps="16">
          <note pan="0" type="0" len="24" pos="0" key="36" vol="100"/>
          <note pan="0" type="0" len="24" pos="24" key="54" vol="100"/>
          <note pan="0" type="0" len="24" pos="48" key="52" vol="100"/>
          <note pan="0" type="0" len="24" pos="72" key="36" vol="100"/>
          <note pan="0" type="0" len="24" pos="96" key="42" vol="100"/>
          <note pan="0" type="0" len="24" pos="120" key="52" vol="100"/>
          <note pan="0" type="0" len="24" pos="144" key="36" vol="100"/>
          <note pan="0" type="0" len="24" pos="192" key="36" vol="100"/>
          <note pan="0" type="0" len="24" pos="216" key="54" vol="100"/>
          <note pan="0" type="0" len="24" pos="240" key="52" vol="100"/>
          <note pan="0" type="0" len="24" pos="264" key="36" vol="100"/>
          <note pan="0" type="0" len="24" pos="288" key="42" vol="100"/>
          <note pan="0" type="0" len="24" pos="312" key="52" vol="100"/>
          <note pan="0" type="0" len="24" pos="336" key="46" vol="100"/>
          <note pan="0" type="0" len="24" pos="336" key="36" vol="100"/>
          <note pan="0" type="0" len="24" pos="360" key="44" vol="100"/>
        </midiclip>
        <midiclip type="1" autoresize="1" name="" off="0" len="384" pos="3840" muted="0" steps="16">
          <note pan="0" type="0" len="24" pos="0" key="36" vol="100"/>
          <note pan="0" type="0" len="24" pos="24" key="54" vol="100"/>
          <note pan="0" type="0" len="24" pos="48" key="52" vol="100"/>
          <note pan="0" type="0" len="24" pos="72" key="36" vol="100"/>
          <note pan="0" type="0" len="24" pos="96" key="42" vol="100"/>
          <note pan="0" type="0" len="24" pos="120" key="52" vol="100"/>
          <note pan="0" type="0" len="24" pos="144" key="36" vol="100"/>
          <note pan="0" type="0" len="24" pos="192" key="36" vol="100"/>
          <note pan="0" type="0" len="24" pos="216" key="54" vol="100"/>
          <note pan="0" type="0" len="24" pos="240" key="52" vol="100"/>
          <note pan="0" type="0" len="24" pos="264" key="36" vol="100"/>
          <note pan="0" type="0" len="24" pos="288" key="42" vol="100"/>
          <note pan="0" type="0" len="24" pos="312" key="52" vol="100"/>
          <note pan="0" type="0" len="24" pos="336" key="46" vol="100"/>
          <note pan="0" type="0" len="24" pos="336" key="36" vol="100"/>
          <note pan="0" type="0" len="24" pos="360" key="44" vol="100"/>
        </midiclip>
        <midiclip type="1" autoresize="1" name="" off="0" len="384" pos="4224" muted="0" steps="16">
          <note pan="0" type="0" len="24" pos="0" key="36" vol="100"/>
          <note pan="0" type="0" len="24" pos="24" key="54" vol="100"/>
          <note pan="0" type="0" len="24" pos="48" key="52" vol="100"/>
          <note pan="0" type="0" len="24" pos="72" key="36" vol="100"/>
          <note pan="0" type="0" len="24" pos="96" key="42" vol="100"/>
          <note pan="0" type="0" len="24" pos="120" key="52" vol="100"/>
          <note pan="0" type="0" len="24" pos="144" key="36" vol="100"/>
          <note pan="0" type="0" len="24" pos="192" key="36" vol="100"/>
          <note pan="0" type="0" len="24" pos="216" key="54" vol="100"/>
          <note pan="0" type="0" len="24" pos="240" key="52" vol="100"/>
          <note pan="0" type="0" len="24" pos="264" key="36" vol="100"/>
          <note pan="0" type="0" len="24" pos="288" key="42" vol="100"/>
          <note pan="0" type="0" len="24" pos="312" key="52" vol="100"/>
          <note pan="0" type="0" len="24" pos="336" key="46" vol="100"/>
          <note pan="0" type="0" len="24" pos="336" key="36" vol="100"/>
          <note pan="0" type="0" len="24" pos="360" key="44" vol="100"/>
        </midiclip>
        <midiclip type="1" autoresize="1" name="" off="0" len="384" pos="4608" muted="0" steps="16">
          <note pan="0" type="0" len="24" pos="0" key="36" vol="100"/>
          <note pan="0" type="0" len="24" pos="24" key="54" vol="100"/>
          <note pan="0" type="0" len="24" pos="48" key="52" vol="100"/>
          <note pan="0" type="0" len="24" pos="72" key="36" vol="100"/>
          <note pan="0" type="0" len="24" pos="96" key="42" vol="100"/>
          <note pan="0" type="0" len="24" pos="120" key="52" vol="100"/>
          <note pan="0" type="0" len="24" pos="144" key="36" vol="100"/>
          <note pan="0" type="0" len="24" pos="192" key="36" vol="100"/>
          <note pan="0" type="0" len="24" pos="216" key="54" vol="100"/>
          <note pan="0" type="0" len="24" pos="240" key="52" vol="100"/>
          <note pan="0" type="0" len="24" pos="264" key="36" vol="100"/>
          <note pan="0" type="0" len="24" pos="288" key="42" vol="100"/>
          <note pan="0" type="0" len="24" pos="312" key="52" vol="100"/>
          <note pan="0" type="0" len="24" pos="336" key="46" vol="100"/>
          <note pan="0" type="0" len="24" pos="336" key="36" vol="100"/>
          <note pan="0" type="0" len="24" pos="360" key="44" vol="100"/>
        </midiclip>
        <midiclip type="1" autoresize="1" name="" off="0" len="384" pos="6912" muted="0" steps="16">
          <note pan="0" type="0" len="12" pos="0" key="36" vol="100"/>
          <note pan="0" type="0" len="12" pos="24" key="46" vol="100"/>
          <note pan="0" type="0" len="12" pos="48" key="36" vol="100"/>
          <note pan="0" type="0" len="12" pos="72" key="44" vol="100"/>
          <note pan="0" type="0" len="12" pos="96" key="36" vol="100"/>
          <note pan="0" type="0" len="12" pos="120" key="46" vol="100"/>
          <note pan="0" type="0" len="12" pos="144" key="36" vol="100"/>
          <note pan="0" type="0" len="12" pos="168" key="44" vol="100"/>
          <note pan="0" type="0" len="12" pos="192" key="36" vol="100"/>
          <note pan="0" type="0" len="12" pos="216" key="46" vol="100"/>
          <note pan="0" type="0" len="12" pos="240" key="36" vol="100"/>
          <note pan="0" type="0" len="12" pos="264" key="44" vol="100"/>
          <note pan="0" type="0" len="12" pos="288" key="36" vol="100"/>
          <note pan="0" type="0" len="12" pos="312" key="46" vol="100"/>
          <note pan="0" type="0" len="12" pos="312" key="36" vol="100"/>
          <note pan="0" type="0" len="12" pos="324" key="36" vol="100"/>
          <note pan="0" type="0" len="12" pos="336" key="36" vol="100"/>
          <note pan="0" type="0" len="12" pos="360" key="44" vol="100"/>
          <note pan="0" type="0" len="12" pos="360" key="36" vol="100"/>
        </midiclip>
        <midiclip type="1" autoresize="1" name="" off="0" len="384" pos="7296" muted="0" steps="16">
          <note pan="0" type="0" len="12" pos="0" key="36" vol="100"/>
          <note pan="0" type="0" len="12" pos="24" key="46" vol="100"/>
          <note pan="0" type="0" len="12" pos="48" key="36" vol="100"/>
          <note pan="0" type="0" len="12" pos="72" key="44" vol="100"/>
          <note pan="0" type="0" len="12" pos="96" key="36" vol="100"/>
          <note pan="0" type="0" len="12" pos="120" key="46" vol="100"/>
          <note pan="0" type="0" len="12" pos="144" key="36" vol="100"/>
          <note pan="0" type="0" len="12" pos="168" key="44" vol="100"/>
          <note pan="0" type="0" len="12" pos="192" key="36" vol="100"/>
          <note pan="0" type="0" len="12" pos="216" key="46" vol="100"/>
          <note pan="0" type="0" len="12" pos="240" key="36" vol="100"/>
          <note pan="0" type="0" len="12" pos="264" key="44" vol="100"/>
          <note pan="0" type="0" len="12" pos="288" key="36" vol="100"/>
          <note pan="0" type="0" len="12" pos="312" key="46" vol="100"/>
          <note pan="0" type="0" len="12" pos="312" key="36" vol="100"/>
          <note pan="0" type="0" len="12" pos="324" key="36" vol="100"/>
          <note pan="0" type="0" len="12" pos="336" key="36" vol="100"/>
          <note pan="0" type="0" len="12" pos="360" key="44" vol="100"/>
          <note pan="0" type="0" len="12" pos="360" key="36" vol="100"/>
        </midiclip>
        <midiclip type="1" autoresize="1" name="" off="0" len="384" pos="7680" muted="0" steps="16">
          <note pan="0" type="0" len="12" pos="0" key="36" vol="100"/>
          <note pan="0" type="0" len="12" pos="24" key="46" vol="100"/>
          <note pan="0" type="0" len="12" pos="48" key="36" vol="100"/>
          <note pan="0" type="0" len="12" pos="72" key="44" vol="100"/>
          <note pan="0" type="0" len="12" pos="96" key="36" vol="100"/>
          <note pan="0" type="0" len="12" pos="120" key="46" vol="100"/>
          <note pan="0" type="0" len="12" pos="144" key="36" vol="100"/>
          <note pan="0" type="0" len="12" pos="168" key="44" vol="100"/>
          <note pan="0" type="0" len="12" pos="192" key="36" vol="100"/>
          <note pan="0" type="0" len="12" pos="216" key="46" vol="100"/>
          <note pan="0" type="0" len="12" pos="240" key="36" vol="100"/>
          <note pan="0" type="0" len="12" pos="264" key="44" vol="100"/>
          <note pan="0" type="0" len="12" pos="288" key="36" vol="100"/>
          <note pan="0" type="0" len="12" pos="312" key="46" vol="100"/>
          <note pan="0" type="0" len="12" pos="312" key="36" vol="100"/>
          <note pan="0" type="0" len="12" pos="324" key="36" vol="100"/>
          <note pan="0" type="0" len="12" pos="336" key="36" vol="100"/>
          <note pan="0" type="0" len="12" pos="360" key="44" vol="100"/>
          <note pan="0" type="0" len="12" pos="360" key="36" vol="100"/>
        </midiclip>
        <midiclip type="1" autoresize="1" name="" off="0" len="384" pos="8064" muted="0" steps="16">
          <note pan="0" type="0" len="12" pos="0" key="36" vol="100"/>
          <note pan="0" type="0" len="12" pos="24" key="46" vol="100"/>
          <note pan="0" type="0" len="12" pos="48" key="36" vol="100"/>
          <note pan="0" type="0" len="12" pos="72" key="44" vol="100"/>
          <note pan="0" type="0" len="12" pos="96" key="36" vol="100"/>
          <note pan="0" type="0" len="12" pos="120" key="46" vol="100"/>
          <note pan="0" type="0" len="12" pos="144" key="36" vol="100"/>
          <note pan="0" type="0" len="12" pos="168" key="44" vol="100"/>
          <note pan="0" type="0" len="12" pos="192" key="36" vol="100"/>
          <note pan="0" type="0" len="12" pos="216" key="46" vol="100"/>
          <note pan="0" type="0" len="12" pos="240" key="36" vol="100"/>
          <note pan="0" type="0" len="12" pos="264" key="44" vol="100"/>
          <note pan="0" type="0" len="12" pos="288" key="36" vol="100"/>
          <note pan="0" type="0" len="12" pos="312" key="46" vol="100"/>
          <note pan="0" type="0" len="12" pos="312" key="36" vol="100"/>
          <note pan="0" type="0" len="12" pos="324" key="36" vol="100"/>
          <note pan="0" type="0" len="12" pos="336" key="36" vol="100"/>
          <note pan="0" type="0" len="12" pos="360" key="44" vol="100"/>
          <note pan="0" type="0" len="12" pos="360" key="36" vol="100"/>
        </midiclip>
        <midiclip type="1" autoresize="1" name="" off="0" len="384" pos="8448" muted="0" steps="16">
          <note pan="0" type="0" len="24" pos="0" key="36" vol="100"/>
          <note pan="0" type="0" len="24" pos="24" key="54" vol="100"/>
          <note pan="0" type="0" len="24" pos="48" key="52" vol="100"/>
          <note pan="0" type="0" len="24" pos="72" key="36" vol="100"/>
          <note pan="0" type="0" len="24" pos="96" key="42" vol="100"/>
          <note pan="0" type="0" len="24" pos="120" key="52" vol="100"/>
          <note pan="0" type="0" len="24" pos="144" key="36" vol="100"/>
          <note pan="0" type="0" len="24" pos="192" key="36" vol="100"/>
          <note pan="0" type="0" len="24" pos="216" key="54" vol="100"/>
          <note pan="0" type="0" len="24" pos="240" key="52" vol="100"/>
          <note pan="0" type="0" len="24" pos="264" key="36" vol="100"/>
          <note pan="0" type="0" len="24" pos="288" key="42" vol="100"/>
          <note pan="0" type="0" len="24" pos="312" key="52" vol="100"/>
          <note pan="0" type="0" len="24" pos="336" key="46" vol="100"/>
          <note pan="0" type="0" len="24" pos="336" key="36" vol="100"/>
          <note pan="0" type="0" len="24" pos="360" key="44" vol="100"/>
        </midiclip>
        <midiclip type="1" autoresize="1" name="" off="0" len="384" pos="8832" muted="0" steps="16">
          <note pan="0" type="0" len="24" pos="0" key="36" vol="100"/>
          <note pan="0" type="0" len="24" pos="24" key="54" vol="100"/>
          <note pan="0" type="0" len="24" pos="48" key="52" vol="100"/>
          <note pan="0" type="0" len="24" pos="72" key="36" vol="100"/>
          <note pan="0" type="0" len="24" pos="96" key="42" vol="100"/>
          <note pan="0" type="0" len="24" pos="120" key="52" vol="100"/>
          <note pan="0" type="0" len="24" pos="144" key="36" vol="100"/>
          <note pan="0" type="0" len="24" pos="192" key="36" vol="100"/>
          <note pan="0" type="0" len="24" pos="216" key="54" vol="100"/>
          <note pan="0" type="0" len="24" pos="240" key="52" vol="100"/>
          <note pan="0" type="0" len="24" pos="264" key="36" vol="100"/>
          <note pan="0" type="0" len="24" pos="288" key="42" vol="100"/>
          <note pan="0" type="0" len="24" pos="312" key="52" vol="100"/>
          <note pan="0" type="0" len="24" pos="336" key="46" vol="100"/>
          <note pan="0" type="0" len="24" pos="336" key="36" vol="100"/>
          <note pan="0" type="0" len="24" pos="360" key="44" vol="100"/>
        </midiclip>
        <midiclip type="1" autoresize="1" name="" off="0" len="384" pos="9216" muted="0" steps="16">
          <note pan="0" type="0" len="24" pos="0" key="36" vol="100"/>
          <note pan="0" type="0" len="24" pos="24" key="54" vol="100"/>
          <note pan="0" type="0" len="24" pos="48" key="52" vol="100"/>
          <note pan="0" type="0" len="24" pos="72" key="36" vol="100"/>
          <note pan="0" type="0" len="24" pos="96" key="42" vol="100"/>
          <note pan="0" type="0" len="24" pos="120" key="52" vol="100"/>
          <note pan="0" type="0" len="24" pos="144" key="36" vol="100"/>
          <note pan="0" type="0" len="24" pos="192" key="36" vol="100"/>
          <note pan="0" type="0" len="24" pos="216" key="54" vol="100"/>
          <note pan="0" type="0" len="24" pos="240" key="52" vol="100"/>
          <note pan="0" type="0" len="24" pos="264" key="36" vol="100"/>
          <note pan="0" type="0" len="24" pos="288" key="42" vol="100"/>
          <note pan="0" type="0" len="24" pos="312" key="52" vol="100"/>
          <note pan="0" type="0" len="24" pos="336" key="46" vol="100"/>
          <note pan="0" type="0" len="24" pos="336" key="36" vol="100"/>
          <note pan="0" type="0" len="24" pos="360" key="44" vol="100"/>
        </midiclip>
        <midiclip type="1" autoresize="1" name="" off="0" len="384" pos="9600" muted="0" steps="16">
          <note pan="0" type="0" len="24" pos="0" key="36" vol="100"/>
          <note pan="0" type="0" len="24" pos="24" key="54" vol="100"/>
          <note pan="0" type="0" len="24" pos="48" key="52" vol="100"/>
          <note pan="0" type="0" len="24" pos="72" key="36" vol="100"/>
          <note pan="0" type="0" len="24" pos="96" key="42" vol="100"/>
          <note pan="0" type="0" len="24" pos="120" key="52" vol="100"/>
          <note pan="0" type="0" len="24" pos="144" key="36" vol="100"/>
          <note pan="0" type="0" len="24" pos="192" key="36" vol="100"/>
          <note pan="0" type="0" len="24" pos="216" key="54" vol="100"/>
          <note pan="0" type="0" len="24" pos="240" key="52" vol="100"/>
          <note pan="0" type="0" len="24" pos="264" key="36" vol="100"/>
          <note pan="0" type="0" len="24" pos="288" key="42" vol="100"/>
          <note pan="0" type="0" len="24" pos="312" key="52" vol="100"/>
          <note pan="0" type="0" len="24" pos="336" key="46" vol="100"/>
          <note pan="0" type="0" len="24" pos="336" key="36" vol="100"/>
          <note pan="0" type="0" len="24" pos="360" key="44" vol="100"/>
        </midiclip>
        <midiclip type="1" autoresize="1" name="" off="0" len="384" pos="9984" muted="0" steps="16">
          <note pan="0" type="0" len="24" pos="0" key="36" vol="100"/>
          <note pan="0" type="0" len="24" pos="24" key="54" vol="100"/>
          <note pan="0" type="0" len="24" pos="48" key="52" vol="100"/>
          <note pan="0" type="0" len="24" pos="72" key="36" vol="100"/>
          <note pan="0" type="0" len="24" pos="96" key="42" vol="100"/>
          <note pan="0" type="0" len="24" pos="120" key="52" vol="100"/>
          <note pan="0" type="0" len="24" pos="144" key="36" vol="100"/>
          <note pan="0" type="0" len="24" pos="192" key="36" vol="100"/>
          <note pan="0" type="0" len="24" pos="216" key="54" vol="100"/>
          <note pan="0" type="0" len="24" pos="240" key="52" vol="100"/>
          <note pan="0" type="0" len="24" pos="264" key="36" vol="100"/>
          <note pan="0" type="0" len="24" pos="288" key="42" vol="100"/>
          <note pan="0" type="0" len="24" pos="312" key="52" vol="100"/>
          <note pan="0" type="0" len="24" pos="336" key="46" vol="100"/>
          <note pan="0" type="0" len="24" pos="336" key="36" vol="100"/>
          <note pan="0" type="0" len="24" pos="360" key="44" vol="100"/>
        </midiclip>
        <midiclip type="1" autoresize="1" name="" off="0" len="384" pos="10368" muted="0" steps="16">
          <note pan="0" type="0" len="24" pos="0" key="36" vol="100"/>
          <note pan="0" type="0" len="24" pos="24" key="54" vol="100"/>
          <note pan="0" type="0" len="24" pos="48" key="52" vol="100"/>
          <note pan="0" type="0" len="24" pos="72" key="36" vol="100"/>
          <note pan="0" type="0" len="24" pos="96" key="42" vol="100"/>
          <note pan="0" type="0" len="24" pos="120" key="52" vol="100"/>
          <note pan="0" type="0" len="24" pos="144" key="36" vol="100"/>
          <note pan="0" type="0" len="24" pos="192" key="36" vol="100"/>
          <note pan="0" type="0" len="24" pos="216" key="54" vol="100"/>
          <note pan="0" type="0" len="24" pos="240" key="52" vol="100"/>
          <note pan="0" type="0" len="24" pos="264" key="36" vol="100"/>
          <note pan="0" type="0" len="24" pos="288" key="42" vol="100"/>
          <note pan="0" type="0" len="24" pos="312" key="52" vol="100"/>
          <note pan="0" type="0" len="24" pos="336" key="46" vol="100"/>
          <note pan="0" type="0" len="24" pos="336" key="36" vol="100"/>
          <note pan="0" type="0" len="24" pos="360" key="44" vol="100"/>
        </midiclip>
        <midiclip type="1" autoresize="1" name="" off="0" len="384" pos="10752" muted="0" steps="16">
          <note pan="0" type="0" len="24" pos="0" key="36" vol="100"/>
          <note pan="0" type="0" len="24" pos="24" key="54" vol="100"/>
          <note pan="0" type="0" len="24" pos="48" key="52" vol="100"/>
          <note pan="0" type="0" len="24" pos="72" key="36" vol="100"/>
          <note pan="0" type="0" len="24" pos="96" key="42" vol="100"/>
          <note pan="0" type="0" len="24" pos="120" key="52" vol="100"/>
          <note pan="0" type="0" len="24" pos="144" key="36" vol="100"/>
          <note pan="0" type="0" len="24" pos="192" key="36" vol="100"/>
          <note pan="0" type="0" len="24" pos="216" key="54" vol="100"/>
          <note pan="0" type="0" len="24" pos="240" key="52" vol="100"/>
          <note pan="0" type="0" len="24" pos="264" key="36" vol="100"/>
          <note pan="0" type="0" len="24" pos="288" key="42" vol="100"/>
          <note pan="0" type="0" len="24" pos="312" key="52" vol="100"/>
          <note pan="0" type="0" len="24" pos="336" key="46" vol="100"/>
          <note pan="0" type="0" len="24" pos="336" key="36" vol="100"/>
          <note pan="0" type="0" len="24" pos="360" key="44" vol="100"/>
        </midiclip>
        <midiclip type="1" autoresize="1" name="" off="0" len="384" pos="11136" muted="0" steps="16">
          <note pan="0" type="0" len="24" pos="0" key="36" vol="100"/>
          <note pan="0" type="0" len="24" pos="24" key="54" vol="100"/>
          <note pan="0" type="0" len="24" pos="48" key="52" vol="100"/>
          <note pan="0" type="0" len="24" pos="72" key="36" vol="100"/>
          <note pan="0" type="0" len="24" pos="96" key="42" vol="100"/>
          <note pan="0" type="0" len="24" pos="120" key="52" vol="100"/>
          <note pan="0" type="0" len="24" pos="144" key="36" vol="100"/>
          <note pan="0" type="0" len="24" pos="192" key="36" vol="100"/>
          <note pan="0" type="0" len="24" pos="216" key="54" vol="100"/>
          <note pan="0" type="0" len="24" pos="240" key="52" vol="100"/>
          <note pan="0" type="0" len="24" pos="264" key="36" vol="100"/>
          <note pan="0" type="0" len="24" pos="288" key="42" vol="100"/>
          <note pan="0" type="0" len="24" pos="312" key="52" vol="100"/>
          <note pan="0" type="0" len="24" pos="336" key="46" vol="100"/>
          <note pan="0" type="0" len="24" pos="336" key="36" vol="100"/>
          <note pan="0" type="0" len="24" pos="360" key="44" vol="100"/>
        </midiclip>
      </track>
      <track type="0" name="Drums>Crash" trackheight="32" mutedBeforeSolo="0" muted="0" solo="0">
        <instrumenttrack pan="0" range_import="1" mixch="5" pitchrange="1" firstkey="52" keymap="0" usemasterpitch="0" scale="0" pitch="-100" basenote="69" lastkey="54" enablecc="0" enabled="0" vol="100">
          <midicontrollers cc115="0" cc71="0" cc3="0" cc63="0" cc90="0" cc74="0" cc82="0" cc96="0" cc10="0" cc17="0" cc116="0" cc59="0" cc122="0" cc118="0" cc45="0" cc77="0" cc72="0" cc40="0" cc2="0" cc105="0" cc24="0" cc33="0" cc43="0" cc13="0" cc88="0" cc6="0" cc31="0" cc52="0" cc15="0" cc67="0" cc7="0" cc41="0" cc4="0" cc19="0" cc125="0" cc75="0" cc79="0" cc93="0" cc25="0" cc39="0" cc51="0" cc87="0" cc55="0" cc28="0" cc26="0" cc98="0" cc102="0" cc50="0" cc23="0" cc16="0" cc92="0" cc57="0" cc69="0" cc18="0" cc85="0" cc103="0" cc126="0" cc124="0" cc9="0" cc20="0" cc68="0" cc114="0" cc30="0" cc47="0" cc86="0" cc97="0" cc5="0" cc73="0" cc60="0" cc108="0" cc66="0" cc58="0" cc121="0" cc49="0" cc99="0" cc65="0" cc83="0" cc35="0" cc94="0" cc44="0" cc112="0" cc37="0" cc64="0" cc84="0" cc14="0" cc38="0" cc32="0" cc62="0" cc78="0" cc54="0" cc34="0" cc117="0" cc76="0" cc127="0" cc89="0" cc0="0" cc100="0" cc109="0" cc111="0" cc29="0" cc95="0" cc70="0" cc91="0" cc27="0" cc81="0" cc120="0" cc1="0" cc42="0" cc113="0" cc22="0" cc80="0" cc110="0" cc8="0" cc46="0" cc12="0" cc53="0" cc11="0" cc21="0" cc36="0" cc56="0" cc101="0" cc106="0" cc61="0" cc48="0" cc123="0" cc104="0" cc119="0" cc107="0"/>
          <instrument name="sf2player">
            <sf2player reverbWidth="0.5" reverbLevel="0.89999998" chorusDepth="8" src="usersoundfont:FluidR3 GM.sf2" chorusOn="0" bank="128" chorusSpeed="0.30000001" chorusNum="3" reverbOn="0" gain="0.28" patch="17" reverbRoomSize="0.2" chorusLevel="2" reverbDamping="0">
              <key/>
            </sf2player>
          </instrument>
          <eldata ftype="0" fres="0.5" fcut="14000" fwet="0">
            <elvol pdel="0" lshp="0" lspd_numerator="4" rel="0.1" ctlenvamt="0" lspd_denominator="4" dec="0.5" hold="0.5" lamt="0" lpdel="0" x100="0" userwavefile="" amt="0" latt="0" sustain="0.5" lspd_syncmode="0" att="0" lspd="0.1"/>
            <elcut pdel="0" lshp="0" lspd_numerator="4" rel="0.1" ctlenvamt="0" lspd_denominator="4" dec="0.5" hold="0.5" lamt="0" lpdel="0" x100="0" userwavefile="" amt="0" latt="0" sustain="0.5" lspd_syncmode="0" att="0" lspd="0.1"/>
            <elres pdel="0" lshp="0" lspd_numerator="4" rel="0.1" ctlenvamt="0" lspd_denominator="4" dec="0.5" hold="0.5" lamt="0" lpdel="0" x100="0" userwavefile="" amt="0" latt="0" sustain="0.5" lspd_syncmode="0" att="0" lspd="0.1"/>
          </eldata>
          <chordcreator chord="0" chordrange="1" chord-enabled="0"/>
          <arpeggiator arprange="1" arpdir="0" arpskip="0" arpmode="0" arpmiss="0" arptime="200" arpgate="100" arptime_numerator="4" arp-enabled="0" arpcycle="0" arptime_denominator="4" arptime_syncmode="0" arprepeats="1" arp="0"/>
          <midiport inputcontroller="0" fixedoutputvelocity="-1" readable="1" fixedoutputnote="-1" basevelocity="127" fixedinputvelocity="-1" inports="" inputchannel="0" outputchannel="1" writable="0" outputcontroller="0" outputprogram="1"/>
          <fxchain numofeffects="0" enabled="0"/>
        </instrumenttrack>
        <midiclip type="1" autoresize="1" name="" off="0" len="384" pos="1920" muted="0" steps="16">
          <note pan="0" type="0" len="24" pos="0" key="36" vol="100"/>
          <note pan="0" type="0" len="24" pos="24" key="54" vol="100"/>
          <note pan="0" type="0" len="24" pos="48" key="52" vol="100"/>
          <note pan="0" type="0" len="24" pos="72" key="36" vol="100"/>
          <note pan="0" type="0" len="24" pos="96" key="42" vol="100"/>
          <note pan="0" type="0" len="24" pos="120" key="52" vol="100"/>
          <note pan="0" type="0" len="24" pos="144" key="36" vol="100"/>
          <note pan="0" type="0" len="24" pos="192" key="36" vol="100"/>
          <note pan="0" type="0" len="24" pos="216" key="54" vol="100"/>
          <note pan="0" type="0" len="24" pos="240" key="52" vol="100"/>
          <note pan="0" type="0" len="24" pos="264" key="36" vol="100"/>
          <note pan="0" type="0" len="24" pos="288" key="42" vol="100"/>
          <note pan="0" type="0" len="24" pos="312" key="52" vol="100"/>
          <note pan="0" type="0" len="24" pos="336" key="46" vol="100"/>
          <note pan="0" type="0" len="24" pos="336" key="36" vol="100"/>
          <note pan="0" type="0" len="24" pos="360" key="44" vol="100"/>
        </midiclip>
        <midiclip type="1" autoresize="1" name="" off="0" len="384" pos="2304" muted="0" steps="16">
          <note pan="0" type="0" len="24" pos="0" key="36" vol="100"/>
          <note pan="0" type="0" len="24" pos="24" key="54" vol="100"/>
          <note pan="0" type="0" len="24" pos="48" key="52" vol="100"/>
          <note pan="0" type="0" len="24" pos="72" key="36" vol="100"/>
          <note pan="0" type="0" len="24" pos="96" key="42" vol="100"/>
          <note pan="0" type="0" len="24" pos="120" key="52" vol="100"/>
          <note pan="0" type="0" len="24" pos="144" key="36" vol="100"/>
          <note pan="0" type="0" len="24" pos="192" key="36" vol="100"/>
          <note pan="0" type="0" len="24" pos="216" key="54" vol="100"/>
          <note pan="0" type="0" len="24" pos="240" key="52" vol="100"/>
          <note pan="0" type="0" len="24" pos="264" key="36" vol="100"/>
          <note pan="0" type="0" len="24" pos="288" key="42" vol="100"/>
          <note pan="0" type="0" len="24" pos="312" key="52" vol="100"/>
          <note pan="0" type="0" len="24" pos="336" key="46" vol="100"/>
          <note pan="0" type="0" len="24" pos="336" key="36" vol="100"/>
          <note pan="0" type="0" len="24" pos="360" key="44" vol="100"/>
        </midiclip>
        <midiclip type="1" autoresize="1" name="" off="0" len="384" pos="2688" muted="0" steps="16">
          <note pan="0" type="0" len="24" pos="0" key="36" vol="100"/>
          <note pan="0" type="0" len="24" pos="24" key="54" vol="100"/>
          <note pan="0" type="0" len="24" pos="48" key="52" vol="100"/>
          <note pan="0" type="0" len="24" pos="72" key="36" vol="100"/>
          <note pan="0" type="0" len="24" pos="96" key="42" vol="100"/>
          <note pan="0" type="0" len="24" pos="120" key="52" vol="100"/>
          <note pan="0" type="0" len="24" pos="144" key="36" vol="100"/>
          <note pan="0" type="0" len="24" pos="192" key="36" vol="100"/>
          <note pan="0" type="0" len="24" pos="216" key="54" vol="100"/>
          <note pan="0" type="0" len="24" pos="240" key="52" vol="100"/>
          <note pan="0" type="0" len="24" pos="264" key="36" vol="100"/>
          <note pan="0" type="0" len="24" pos="288" key="42" vol="100"/>
          <note pan="0" type="0" len="24" pos="312" key="52" vol="100"/>
          <note pan="0" type="0" len="24" pos="336" key="46" vol="100"/>
          <note pan="0" type="0" len="24" pos="336" key="36" vol="100"/>
          <note pan="0" type="0" len="24" pos="360" key="44" vol="100"/>
        </midiclip>
        <midiclip type="1" autoresize="1" name="" off="0" len="384" pos="3072" muted="0" steps="16">
          <note pan="0" type="0" len="24" pos="0" key="36" vol="100"/>
          <note pan="0" type="0" len="24" pos="24" key="54" vol="100"/>
          <note pan="0" type="0" len="24" pos="48" key="52" vol="100"/>
          <note pan="0" type="0" len="24" pos="72" key="36" vol="100"/>
          <note pan="0" type="0" len="24" pos="96" key="42" vol="100"/>
          <note pan="0" type="0" len="24" pos="120" key="52" vol="100"/>
          <note pan="0" type="0" len="24" pos="144" key="36" vol="100"/>
          <note pan="0" type="0" len="24" pos="192" key="36" vol="100"/>
          <note pan="0" type="0" len="24" pos="216" key="54" vol="100"/>
          <note pan="0" type="0" len="24" pos="240" key="52" vol="100"/>
          <note pan="0" type="0" len="24" pos="264" key="36" vol="100"/>
          <note pan="0" type="0" len="24" pos="288" key="42" vol="100"/>
          <note pan="0" type="0" len="24" pos="312" key="52" vol="100"/>
          <note pan="0" type="0" len="24" pos="336" key="46" vol="100"/>
          <note pan="0" type="0" len="24" pos="336" key="36" vol="100"/>
          <note pan="0" type="0" len="24" pos="360" key="44" vol="100"/>
        </midiclip>
        <midiclip type="1" autoresize="1" name="" off="0" len="384" pos="1152" muted="0" steps="16">
          <note pan="0" type="0" len="24" pos="0" key="36" vol="100"/>
          <note pan="0" type="0" len="24" pos="72" key="36" vol="100"/>
          <note pan="0" type="0" len="24" pos="144" key="36" vol="100"/>
          <note pan="0" type="0" len="24" pos="192" key="36" vol="100"/>
          <note pan="0" type="0" len="24" pos="264" key="36" vol="100"/>
          <note pan="0" type="0" len="24" pos="336" key="36" vol="100"/>
        </midiclip>
        <midiclip type="1" autoresize="1" name="" off="0" len="384" pos="1536" muted="0" steps="16">
          <note pan="0" type="0" len="24" pos="0" key="36" vol="100"/>
          <note pan="0" type="0" len="24" pos="72" key="36" vol="100"/>
          <note pan="0" type="0" len="24" pos="144" key="36" vol="100"/>
          <note pan="0" type="0" len="24" pos="192" key="36" vol="100"/>
          <note pan="0" type="0" len="24" pos="264" key="36" vol="100"/>
          <note pan="0" type="0" len="24" pos="288" key="44" vol="100"/>
          <note pan="0" type="0" len="24" pos="312" key="46" vol="100"/>
          <note pan="0" type="0" len="24" pos="336" key="42" vol="100"/>
          <note pan="0" type="0" len="24" pos="336" key="36" vol="100"/>
          <note pan="0" type="0" len="24" pos="360" key="52" vol="100"/>
        </midiclip>
        <midiclip type="1" autoresize="1" name="" off="0" len="384" pos="3456" muted="0" steps="16">
          <note pan="0" type="0" len="24" pos="0" key="36" vol="100"/>
          <note pan="0" type="0" len="24" pos="24" key="54" vol="100"/>
          <note pan="0" type="0" len="24" pos="48" key="52" vol="100"/>
          <note pan="0" type="0" len="24" pos="72" key="36" vol="100"/>
          <note pan="0" type="0" len="24" pos="96" key="42" vol="100"/>
          <note pan="0" type="0" len="24" pos="120" key="52" vol="100"/>
          <note pan="0" type="0" len="24" pos="144" key="36" vol="100"/>
          <note pan="0" type="0" len="24" pos="192" key="36" vol="100"/>
          <note pan="0" type="0" len="24" pos="216" key="54" vol="100"/>
          <note pan="0" type="0" len="24" pos="240" key="52" vol="100"/>
          <note pan="0" type="0" len="24" pos="264" key="36" vol="100"/>
          <note pan="0" type="0" len="24" pos="288" key="42" vol="100"/>
          <note pan="0" type="0" len="24" pos="312" key="52" vol="100"/>
          <note pan="0" type="0" len="24" pos="336" key="46" vol="100"/>
          <note pan="0" type="0" len="24" pos="336" key="36" vol="100"/>
          <note pan="0" type="0" len="24" pos="360" key="44" vol="100"/>
        </midiclip>
        <midiclip type="1" autoresize="1" name="" off="0" len="384" pos="3840" muted="0" steps="16">
          <note pan="0" type="0" len="24" pos="0" key="36" vol="100"/>
          <note pan="0" type="0" len="24" pos="24" key="54" vol="100"/>
          <note pan="0" type="0" len="24" pos="48" key="52" vol="100"/>
          <note pan="0" type="0" len="24" pos="72" key="36" vol="100"/>
          <note pan="0" type="0" len="24" pos="96" key="42" vol="100"/>
          <note pan="0" type="0" len="24" pos="120" key="52" vol="100"/>
          <note pan="0" type="0" len="24" pos="144" key="36" vol="100"/>
          <note pan="0" type="0" len="24" pos="192" key="36" vol="100"/>
          <note pan="0" type="0" len="24" pos="216" key="54" vol="100"/>
          <note pan="0" type="0" len="24" pos="240" key="52" vol="100"/>
          <note pan="0" type="0" len="24" pos="264" key="36" vol="100"/>
          <note pan="0" type="0" len="24" pos="288" key="42" vol="100"/>
          <note pan="0" type="0" len="24" pos="312" key="52" vol="100"/>
          <note pan="0" type="0" len="24" pos="336" key="46" vol="100"/>
          <note pan="0" type="0" len="24" pos="336" key="36" vol="100"/>
          <note pan="0" type="0" len="24" pos="360" key="44" vol="100"/>
        </midiclip>
        <midiclip type="1" autoresize="1" name="" off="0" len="384" pos="4224" muted="0" steps="16">
          <note pan="0" type="0" len="24" pos="0" key="36" vol="100"/>
          <note pan="0" type="0" len="24" pos="24" key="54" vol="100"/>
          <note pan="0" type="0" len="24" pos="48" key="52" vol="100"/>
          <note pan="0" type="0" len="24" pos="72" key="36" vol="100"/>
          <note pan="0" type="0" len="24" pos="96" key="42" vol="100"/>
          <note pan="0" type="0" len="24" pos="120" key="52" vol="100"/>
          <note pan="0" type="0" len="24" pos="144" key="36" vol="100"/>
          <note pan="0" type="0" len="24" pos="192" key="36" vol="100"/>
          <note pan="0" type="0" len="24" pos="216" key="54" vol="100"/>
          <note pan="0" type="0" len="24" pos="240" key="52" vol="100"/>
          <note pan="0" type="0" len="24" pos="264" key="36" vol="100"/>
          <note pan="0" type="0" len="24" pos="288" key="42" vol="100"/>
          <note pan="0" type="0" len="24" pos="312" key="52" vol="100"/>
          <note pan="0" type="0" len="24" pos="336" key="46" vol="100"/>
          <note pan="0" type="0" len="24" pos="336" key="36" vol="100"/>
          <note pan="0" type="0" len="24" pos="360" key="44" vol="100"/>
        </midiclip>
        <midiclip type="1" autoresize="1" name="" off="0" len="384" pos="4608" muted="0" steps="16">
          <note pan="0" type="0" len="24" pos="0" key="36" vol="100"/>
          <note pan="0" type="0" len="24" pos="24" key="54" vol="100"/>
          <note pan="0" type="0" len="24" pos="48" key="52" vol="100"/>
          <note pan="0" type="0" len="24" pos="72" key="36" vol="100"/>
          <note pan="0" type="0" len="24" pos="96" key="42" vol="100"/>
          <note pan="0" type="0" len="24" pos="120" key="52" vol="100"/>
          <note pan="0" type="0" len="24" pos="144" key="36" vol="100"/>
          <note pan="0" type="0" len="24" pos="192" key="36" vol="100"/>
          <note pan="0" type="0" len="24" pos="216" key="54" vol="100"/>
          <note pan="0" type="0" len="24" pos="240" key="52" vol="100"/>
          <note pan="0" type="0" len="24" pos="264" key="36" vol="100"/>
          <note pan="0" type="0" len="24" pos="288" key="42" vol="100"/>
          <note pan="0" type="0" len="24" pos="312" key="52" vol="100"/>
          <note pan="0" type="0" len="24" pos="336" key="46" vol="100"/>
          <note pan="0" type="0" len="24" pos="336" key="36" vol="100"/>
          <note pan="0" type="0" len="24" pos="360" key="44" vol="100"/>
        </midiclip>
        <midiclip type="1" autoresize="1" name="" off="0" len="384" pos="6912" muted="0" steps="16">
          <note pan="0" type="0" len="12" pos="0" key="36" vol="100"/>
          <note pan="0" type="0" len="12" pos="24" key="46" vol="100"/>
          <note pan="0" type="0" len="12" pos="48" key="36" vol="100"/>
          <note pan="0" type="0" len="12" pos="72" key="44" vol="100"/>
          <note pan="0" type="0" len="12" pos="96" key="36" vol="100"/>
          <note pan="0" type="0" len="12" pos="120" key="46" vol="100"/>
          <note pan="0" type="0" len="12" pos="144" key="36" vol="100"/>
          <note pan="0" type="0" len="12" pos="168" key="44" vol="100"/>
          <note pan="0" type="0" len="12" pos="192" key="36" vol="100"/>
          <note pan="0" type="0" len="12" pos="216" key="46" vol="100"/>
          <note pan="0" type="0" len="12" pos="240" key="36" vol="100"/>
          <note pan="0" type="0" len="12" pos="264" key="44" vol="100"/>
          <note pan="0" type="0" len="12" pos="288" key="36" vol="100"/>
          <note pan="0" type="0" len="12" pos="312" key="46" vol="100"/>
          <note pan="0" type="0" len="12" pos="312" key="36" vol="100"/>
          <note pan="0" type="0" len="12" pos="324" key="36" vol="100"/>
          <note pan="0" type="0" len="12" pos="336" key="36" vol="100"/>
          <note pan="0" type="0" len="12" pos="360" key="44" vol="100"/>
          <note pan="0" type="0" len="12" pos="360" key="36" vol="100"/>
        </midiclip>
        <midiclip type="1" autoresize="1" name="" off="0" len="384" pos="7296" muted="0" steps="16">
          <note pan="0" type="0" len="12" pos="0" key="36" vol="100"/>
          <note pan="0" type="0" len="12" pos="24" key="46" vol="100"/>
          <note pan="0" type="0" len="12" pos="48" key="36" vol="100"/>
          <note pan="0" type="0" len="12" pos="72" key="44" vol="100"/>
          <note pan="0" type="0" len="12" pos="96" key="36" vol="100"/>
          <note pan="0" type="0" len="12" pos="120" key="46" vol="100"/>
          <note pan="0" type="0" len="12" pos="144" key="36" vol="100"/>
          <note pan="0" type="0" len="12" pos="168" key="44" vol="100"/>
          <note pan="0" type="0" len="12" pos="192" key="36" vol="100"/>
          <note pan="0" type="0" len="12" pos="216" key="46" vol="100"/>
          <note pan="0" type="0" len="12" pos="240" key="36" vol="100"/>
          <note pan="0" type="0" len="12" pos="264" key="44" vol="100"/>
          <note pan="0" type="0" len="12" pos="288" key="36" vol="100"/>
          <note pan="0" type="0" len="12" pos="312" key="46" vol="100"/>
          <note pan="0" type="0" len="12" pos="312" key="36" vol="100"/>
          <note pan="0" type="0" len="12" pos="324" key="36" vol="100"/>
          <note pan="0" type="0" len="12" pos="336" key="36" vol="100"/>
          <note pan="0" type="0" len="12" pos="360" key="44" vol="100"/>
          <note pan="0" type="0" len="12" pos="360" key="36" vol="100"/>
        </midiclip>
        <midiclip type="1" autoresize="1" name="" off="0" len="384" pos="7680" muted="0" steps="16">
          <note pan="0" type="0" len="12" pos="0" key="36" vol="100"/>
          <note pan="0" type="0" len="12" pos="24" key="46" vol="100"/>
          <note pan="0" type="0" len="12" pos="48" key="36" vol="100"/>
          <note pan="0" type="0" len="12" pos="72" key="44" vol="100"/>
          <note pan="0" type="0" len="12" pos="96" key="36" vol="100"/>
          <note pan="0" type="0" len="12" pos="120" key="46" vol="100"/>
          <note pan="0" type="0" len="12" pos="144" key="36" vol="100"/>
          <note pan="0" type="0" len="12" pos="168" key="44" vol="100"/>
          <note pan="0" type="0" len="12" pos="192" key="36" vol="100"/>
          <note pan="0" type="0" len="12" pos="216" key="46" vol="100"/>
          <note pan="0" type="0" len="12" pos="240" key="36" vol="100"/>
          <note pan="0" type="0" len="12" pos="264" key="44" vol="100"/>
          <note pan="0" type="0" len="12" pos="288" key="36" vol="100"/>
          <note pan="0" type="0" len="12" pos="312" key="46" vol="100"/>
          <note pan="0" type="0" len="12" pos="312" key="36" vol="100"/>
          <note pan="0" type="0" len="12" pos="324" key="36" vol="100"/>
          <note pan="0" type="0" len="12" pos="336" key="36" vol="100"/>
          <note pan="0" type="0" len="12" pos="360" key="44" vol="100"/>
          <note pan="0" type="0" len="12" pos="360" key="36" vol="100"/>
        </midiclip>
        <midiclip type="1" autoresize="1" name="" off="0" len="384" pos="8064" muted="0" steps="16">
          <note pan="0" type="0" len="12" pos="0" key="36" vol="100"/>
          <note pan="0" type="0" len="12" pos="24" key="46" vol="100"/>
          <note pan="0" type="0" len="12" pos="48" key="36" vol="100"/>
          <note pan="0" type="0" len="12" pos="72" key="44" vol="100"/>
          <note pan="0" type="0" len="12" pos="96" key="36" vol="100"/>
          <note pan="0" type="0" len="12" pos="120" key="46" vol="100"/>
          <note pan="0" type="0" len="12" pos="144" key="36" vol="100"/>
          <note pan="0" type="0" len="12" pos="168" key="44" vol="100"/>
          <note pan="0" type="0" len="12" pos="192" key="36" vol="100"/>
          <note pan="0" type="0" len="12" pos="216" key="46" vol="100"/>
          <note pan="0" type="0" len="12" pos="240" key="36" vol="100"/>
          <note pan="0" type="0" len="12" pos="264" key="44" vol="100"/>
          <note pan="0" type="0" len="12" pos="288" key="36" vol="100"/>
          <note pan="0" type="0" len="12" pos="312" key="46" vol="100"/>
          <note pan="0" type="0" len="12" pos="312" key="36" vol="100"/>
          <note pan="0" type="0" len="12" pos="324" key="36" vol="100"/>
          <note pan="0" type="0" len="12" pos="336" key="36" vol="100"/>
          <note pan="0" type="0" len="12" pos="360" key="44" vol="100"/>
          <note pan="0" type="0" len="12" pos="360" key="36" vol="100"/>
        </midiclip>
        <midiclip type="1" autoresize="1" name="" off="0" len="384" pos="8448" muted="0" steps="16">
          <note pan="0" type="0" len="24" pos="0" key="36" vol="100"/>
          <note pan="0" type="0" len="24" pos="24" key="54" vol="100"/>
          <note pan="0" type="0" len="24" pos="48" key="52" vol="100"/>
          <note pan="0" type="0" len="24" pos="72" key="36" vol="100"/>
          <note pan="0" type="0" len="24" pos="96" key="42" vol="100"/>
          <note pan="0" type="0" len="24" pos="120" key="52" vol="100"/>
          <note pan="0" type="0" len="24" pos="144" key="36" vol="100"/>
          <note pan="0" type="0" len="24" pos="192" key="36" vol="100"/>
          <note pan="0" type="0" len="24" pos="216" key="54" vol="100"/>
          <note pan="0" type="0" len="24" pos="240" key="52" vol="100"/>
          <note pan="0" type="0" len="24" pos="264" key="36" vol="100"/>
          <note pan="0" type="0" len="24" pos="288" key="42" vol="100"/>
          <note pan="0" type="0" len="24" pos="312" key="52" vol="100"/>
          <note pan="0" type="0" len="24" pos="336" key="46" vol="100"/>
          <note pan="0" type="0" len="24" pos="336" key="36" vol="100"/>
          <note pan="0" type="0" len="24" pos="360" key="44" vol="100"/>
        </midiclip>
        <midiclip type="1" autoresize="1" name="" off="0" len="384" pos="8832" muted="0" steps="16">
          <note pan="0" type="0" len="24" pos="0" key="36" vol="100"/>
          <note pan="0" type="0" len="24" pos="24" key="54" vol="100"/>
          <note pan="0" type="0" len="24" pos="48" key="52" vol="100"/>
          <note pan="0" type="0" len="24" pos="72" key="36" vol="100"/>
          <note pan="0" type="0" len="24" pos="96" key="42" vol="100"/>
          <note pan="0" type="0" len="24" pos="120" key="52" vol="100"/>
          <note pan="0" type="0" len="24" pos="144" key="36" vol="100"/>
          <note pan="0" type="0" len="24" pos="192" key="36" vol="100"/>
          <note pan="0" type="0" len="24" pos="216" key="54" vol="100"/>
          <note pan="0" type="0" len="24" pos="240" key="52" vol="100"/>
          <note pan="0" type="0" len="24" pos="264" key="36" vol="100"/>
          <note pan="0" type="0" len="24" pos="288" key="42" vol="100"/>
          <note pan="0" type="0" len="24" pos="312" key="52" vol="100"/>
          <note pan="0" type="0" len="24" pos="336" key="46" vol="100"/>
          <note pan="0" type="0" len="24" pos="336" key="36" vol="100"/>
          <note pan="0" type="0" len="24" pos="360" key="44" vol="100"/>
        </midiclip>
        <midiclip type="1" autoresize="1" name="" off="0" len="384" pos="9216" muted="0" steps="16">
          <note pan="0" type="0" len="24" pos="0" key="36" vol="100"/>
          <note pan="0" type="0" len="24" pos="24" key="54" vol="100"/>
          <note pan="0" type="0" len="24" pos="48" key="52" vol="100"/>
          <note pan="0" type="0" len="24" pos="72" key="36" vol="100"/>
          <note pan="0" type="0" len="24" pos="96" key="42" vol="100"/>
          <note pan="0" type="0" len="24" pos="120" key="52" vol="100"/>
          <note pan="0" type="0" len="24" pos="144" key="36" vol="100"/>
          <note pan="0" type="0" len="24" pos="192" key="36" vol="100"/>
          <note pan="0" type="0" len="24" pos="216" key="54" vol="100"/>
          <note pan="0" type="0" len="24" pos="240" key="52" vol="100"/>
          <note pan="0" type="0" len="24" pos="264" key="36" vol="100"/>
          <note pan="0" type="0" len="24" pos="288" key="42" vol="100"/>
          <note pan="0" type="0" len="24" pos="312" key="52" vol="100"/>
          <note pan="0" type="0" len="24" pos="336" key="46" vol="100"/>
          <note pan="0" type="0" len="24" pos="336" key="36" vol="100"/>
          <note pan="0" type="0" len="24" pos="360" key="44" vol="100"/>
        </midiclip>
        <midiclip type="1" autoresize="1" name="" off="0" len="384" pos="9600" muted="0" steps="16">
          <note pan="0" type="0" len="24" pos="0" key="36" vol="100"/>
          <note pan="0" type="0" len="24" pos="24" key="54" vol="100"/>
          <note pan="0" type="0" len="24" pos="48" key="52" vol="100"/>
          <note pan="0" type="0" len="24" pos="72" key="36" vol="100"/>
          <note pan="0" type="0" len="24" pos="96" key="42" vol="100"/>
          <note pan="0" type="0" len="24" pos="120" key="52" vol="100"/>
          <note pan="0" type="0" len="24" pos="144" key="36" vol="100"/>
          <note pan="0" type="0" len="24" pos="192" key="36" vol="100"/>
          <note pan="0" type="0" len="24" pos="216" key="54" vol="100"/>
          <note pan="0" type="0" len="24" pos="240" key="52" vol="100"/>
          <note pan="0" type="0" len="24" pos="264" key="36" vol="100"/>
          <note pan="0" type="0" len="24" pos="288" key="42" vol="100"/>
          <note pan="0" type="0" len="24" pos="312" key="52" vol="100"/>
          <note pan="0" type="0" len="24" pos="336" key="46" vol="100"/>
          <note pan="0" type="0" len="24" pos="336" key="36" vol="100"/>
          <note pan="0" type="0" len="24" pos="360" key="44" vol="100"/>
        </midiclip>
        <midiclip type="1" autoresize="1" name="" off="0" len="384" pos="9984" muted="0" steps="16">
          <note pan="0" type="0" len="24" pos="0" key="36" vol="100"/>
          <note pan="0" type="0" len="24" pos="24" key="54" vol="100"/>
          <note pan="0" type="0" len="24" pos="48" key="52" vol="100"/>
          <note pan="0" type="0" len="24" pos="72" key="36" vol="100"/>
          <note pan="0" type="0" len="24" pos="96" key="42" vol="100"/>
          <note pan="0" type="0" len="24" pos="120" key="52" vol="100"/>
          <note pan="0" type="0" len="24" pos="144" key="36" vol="100"/>
          <note pan="0" type="0" len="24" pos="192" key="36" vol="100"/>
          <note pan="0" type="0" len="24" pos="216" key="54" vol="100"/>
          <note pan="0" type="0" len="24" pos="240" key="52" vol="100"/>
          <note pan="0" type="0" len="24" pos="264" key="36" vol="100"/>
          <note pan="0" type="0" len="24" pos="288" key="42" vol="100"/>
          <note pan="0" type="0" len="24" pos="312" key="52" vol="100"/>
          <note pan="0" type="0" len="24" pos="336" key="46" vol="100"/>
          <note pan="0" type="0" len="24" pos="336" key="36" vol="100"/>
          <note pan="0" type="0" len="24" pos="360" key="44" vol="100"/>
        </midiclip>
        <midiclip type="1" autoresize="1" name="" off="0" len="384" pos="10368" muted="0" steps="16">
          <note pan="0" type="0" len="24" pos="0" key="36" vol="100"/>
          <note pan="0" type="0" len="24" pos="24" key="54" vol="100"/>
          <note pan="0" type="0" len="24" pos="48" key="52" vol="100"/>
          <note pan="0" type="0" len="24" pos="72" key="36" vol="100"/>
          <note pan="0" type="0" len="24" pos="96" key="42" vol="100"/>
          <note pan="0" type="0" len="24" pos="120" key="52" vol="100"/>
          <note pan="0" type="0" len="24" pos="144" key="36" vol="100"/>
          <note pan="0" type="0" len="24" pos="192" key="36" vol="100"/>
          <note pan="0" type="0" len="24" pos="216" key="54" vol="100"/>
          <note pan="0" type="0" len="24" pos="240" key="52" vol="100"/>
          <note pan="0" type="0" len="24" pos="264" key="36" vol="100"/>
          <note pan="0" type="0" len="24" pos="288" key="42" vol="100"/>
          <note pan="0" type="0" len="24" pos="312" key="52" vol="100"/>
          <note pan="0" type="0" len="24" pos="336" key="46" vol="100"/>
          <note pan="0" type="0" len="24" pos="336" key="36" vol="100"/>
          <note pan="0" type="0" len="24" pos="360" key="44" vol="100"/>
        </midiclip>
        <midiclip type="1" autoresize="1" name="" off="0" len="384" pos="10752" muted="0" steps="16">
          <note pan="0" type="0" len="24" pos="0" key="36" vol="100"/>
          <note pan="0" type="0" len="24" pos="24" key="54" vol="100"/>
          <note pan="0" type="0" len="24" pos="48" key="52" vol="100"/>
          <note pan="0" type="0" len="24" pos="72" key="36" vol="100"/>
          <note pan="0" type="0" len="24" pos="96" key="42" vol="100"/>
          <note pan="0" type="0" len="24" pos="120" key="52" vol="100"/>
          <note pan="0" type="0" len="24" pos="144" key="36" vol="100"/>
          <note pan="0" type="0" len="24" pos="192" key="36" vol="100"/>
          <note pan="0" type="0" len="24" pos="216" key="54" vol="100"/>
          <note pan="0" type="0" len="24" pos="240" key="52" vol="100"/>
          <note pan="0" type="0" len="24" pos="264" key="36" vol="100"/>
          <note pan="0" type="0" len="24" pos="288" key="42" vol="100"/>
          <note pan="0" type="0" len="24" pos="312" key="52" vol="100"/>
          <note pan="0" type="0" len="24" pos="336" key="46" vol="100"/>
          <note pan="0" type="0" len="24" pos="336" key="36" vol="100"/>
          <note pan="0" type="0" len="24" pos="360" key="44" vol="100"/>
        </midiclip>
        <midiclip type="1" autoresize="1" name="" off="0" len="384" pos="11136" muted="0" steps="16">
          <note pan="0" type="0" len="24" pos="0" key="36" vol="100"/>
          <note pan="0" type="0" len="24" pos="24" key="54" vol="100"/>
          <note pan="0" type="0" len="24" pos="48" key="52" vol="100"/>
          <note pan="0" type="0" len="24" pos="72" key="36" vol="100"/>
          <note pan="0" type="0" len="24" pos="96" key="42" vol="100"/>
          <note pan="0" type="0" len="24" pos="120" key="52" vol="100"/>
          <note pan="0" type="0" len="24" pos="144" key="36" vol="100"/>
          <note pan="0" type="0" len="24" pos="192" key="36" vol="100"/>
          <note pan="0" type="0" len="24" pos="216" key="54" vol="100"/>
          <note pan="0" type="0" len="24" pos="240" key="52" vol="100"/>
          <note pan="0" type="0" len="24" pos="264" key="36" vol="100"/>
          <note pan="0" type="0" len="24" pos="288" key="42" vol="100"/>
          <note pan="0" type="0" len="24" pos="312" key="52" vol="100"/>
          <note pan="0" type="0" len="24" pos="336" key="46" vol="100"/>
          <note pan="0" type="0" len="24" pos="336" key="36" vol="100"/>
          <note pan="0" type="0" len="24" pos="360" key="44" vol="100"/>
        </midiclip>
      </track>
    </trackcontainer>
    <mixer visible="1" height="387" minimized="0" x="9" maximized="0" y="468" width="889">
      <mixerchannel name="Master" volume="1.4" num="0" soloed="0" muted="0">
        <fxchain numofeffects="3" enabled="1">
          <effect name="vsteffect" autoquit_numerator="4" on="1" autoquit_syncmode="0" autoquit_denominator="4" gate="0" autoquit="1" wet="1">
            <vsteffectcontrols guivisible="0" program="0" plugin="Effects\ChowTapeModel\CHOWTapeModel.dll" chunk="UGFyYW1ldGVycwAAATNQQVJBTQABAmlkAAEJBWF6aW11dGgAdmFsdWUAAQkEAAAAAAAAAAAAUEFSQU0AAQJpZAABDAVjaGV3X2RlcHRoAHZhbHVlAAEJBAAAAAAAAAAAAFBBUkFNAAECaWQAAQsFY2hld19mcmVxAHZhbHVlAAEJBAAAAAAAAAAAAFBBUkFNAAECaWQAAQwFY2hld19vbm9mZgB2YWx1ZQABCQQAAAAAAAAAAABQQVJBTQABAmlkAAEKBWNoZXdfdmFyAHZhbHVlAAEJBAAAAAAAAAAAAFBBUkFNAAECaWQAAQoFY29tcF9hbXQAdmFsdWUAAQkEAAAAAAAAAAAAUEFSQU0AAQJpZAABDQVjb21wX2F0dGFjawB2YWx1ZQABCQQAAAAAAAAUQABQQVJBTQABAmlkAAEMBWNvbXBfb25vZmYAdmFsdWUAAQkEAAAAAAAAAAAAUEFSQU0AAQJpZAABDgVjb21wX3JlbGVhc2UAdmFsdWUAAQkEAAAAIAAAaUAAUEFSQU0AAQJpZAABCQVkZWdfYW10AHZhbHVlAAEJBAAAAAAAAAAAAFBBUkFNAAECaWQAAQsFZGVnX2RlcHRoAHZhbHVlAAEJBAAAAAAAAAAAAFBBUkFNAAECaWQAAQkFZGVnX2VudgB2YWx1ZQABCQQAAAAAAAAAAABQQVJBTQABAmlkAAELBWRlZ19vbm9mZgB2YWx1ZQABCQQAAAAAAAAAAABQQVJBTQABAmlkAAENBWRlZ19wb2ludDF4AHZhbHVlAAEJBAAAAAAAAAAAAFBBUkFNAAECaWQAAQkFZGVnX3ZhcgB2YWx1ZQABCQQAAAAAAAAAAABQQVJBTQABAmlkAAEHBWRlcHRoAHZhbHVlAAEJBAAAAAAAAAAAAFBBUkFNAAECaWQAAQcFZHJpdmUAdmFsdWUAAQkEAAAAAAAA4D8AUEFSQU0AAQJpZAABCAVkcnl3ZXQAdmFsdWUAAQkEAAAAAAAAWUAAUEFSQU0AAQJpZAABDwVmbHV0dGVyX29ub2ZmAHZhbHVlAAEJBAAAAAAAAAAAAFBBUkFNAAECaWQAAQUFZ2FwAHZhbHVlAAEJBAAAAAAAAPA/AFBBUkFNAAECaWQAAQgFaF9iYXNzAHZhbHVlAAEJBAAAAAAAAAAAAFBBUkFNAAECaWQAAQkFaF90ZnJlcQB2YWx1ZQABCQQAAACg/z9/QABQQVJBTQABAmlkAAEKBWhfdHJlYmxlAHZhbHVlAAEJBAAAAAAAAAAAAFBBUkFNAAECaWQAAQwFaHlzdF9vbm9mZgB2YWx1ZQABCQQAAAAAAADwPwBQQVJBTQABAmlkAAEMBWlmaWx0X2hpZ2gAdmFsdWUAAQkEAAAAAAB81UAAUEFSQU0AAQJpZAABCwVpZmlsdF9sb3cAdmFsdWUAAQkEAAAAAAAANEAAUEFSQU0AAQJpZAABDgVpZmlsdF9tYWtldXAAdmFsdWUAAQkEAAAAAAAAAAAAUEFSQU0AAQJpZAABDQVpZmlsdF9vbm9mZgB2YWx1ZQABCQQAAAAAAAAAAABQQVJBTQABAmlkAAEIBWluZ2FpbgB2YWx1ZQABCQQAAAAAAAAAAABQQVJBTQABAmlkAAEMBWxvc3Nfb25vZmYAdmFsdWUAAQkEAAAAAAAA8D8AUEFSQU0AAQJpZAABCwVtaXhfZ3JvdXAAdmFsdWUAAQkEAAAAAAAAAAAAUEFSQU0AAQJpZAABBgVtb2RlAHZhbHVlAAEJBAAAAAAAAAAAAFBBUkFNAAECaWQAAQQFb3MAdmFsdWUAAQkEAAAAAAAA8D8AUEFSQU0AAQJpZAABCQVvc19tb2RlAHZhbHVlAAEJBAAAAAAAAAAAAFBBUkFNAAECaWQAARIFb3NfcmVuZGVyX2ZhY3RvcgB2YWx1ZQABCQQAAAAAAADwPwBQQVJBTQABAmlkAAEZBW9zX3JlbmRlcl9saWtlX3JlYWx0aW1lAHZhbHVlAAEJBAAAAAAAAPA/AFBBUkFNAAECaWQAARAFb3NfcmVuZGVyX21vZGUAdmFsdWUAAQkEAAAAAAAAAAAAUEFSQU0AAQJpZAABCQVvdXRnYWluAHZhbHVlAAEJBAAAAAAAAAAAAFBBUkFNAAECaWQAAQgFcHJlc2V0AHZhbHVlAAEJBAAAAAAAAAAAAFBBUkFNAAECaWQAAQYFcmF0ZQB2YWx1ZQABCQQAAAAgMzPTPwBQQVJBTQABAmlkAAEFBXNhdAB2YWx1ZQABCQQAAAAAAADgPwBQQVJBTQABAmlkAAEJBXNwYWNpbmcAdmFsdWUAAQkEAAAAoJmZuT8AUEFSQU0AAQJpZAABBwVzcGVlZAB2YWx1ZQABCQQAAAAAAAA+QABQQVJBTQABAmlkAAEHBXRoaWNrAHZhbHVlAAEJBAAAAKCZmbk/AFBBUkFNAAECaWQAAQwFdG9uZV9vbm9mZgB2YWx1ZQABCQQAAAAAAADwPwBQQVJBTQABAmlkAAEHBXdpZHRoAHZhbHVlAAEJBAAAAOBRuN4/AFBBUkFNAAECaWQAAQsFd293X2RlcHRoAHZhbHVlAAEJBAAAAAAAAAAAAFBBUkFNAAECaWQAAQsFd293X2RyaWZ0AHZhbHVlAAEJBAAAAAAAAAAAAFBBUkFNAAECaWQAAQoFd293X3JhdGUAdmFsdWUAAQkEAAAAAAAA0D8AUEFSQU0AAQJpZAABCQV3b3dfdmFyAHZhbHVlAAEJBAAAAAAAAAAAAGxhc3Qtc2l6ZQABAndpZHRoAAEFAYACAABoZWlnaHQAAQUBbAIAAAA="/>
            <key>
              <attribute name="file" value="Effects\ChowTapeModel\CHOWTapeModel.dll"/>
            </key>
          </effect>
          <effect name="eq" autoquit_numerator="4" on="1" autoquit_syncmode="0" autoquit_denominator="4" gate="0" autoquit="1" wet="1">
            <Eq Peak3bw="0.30000001" Peak2bw="0.30000001" LowShelfres="1.4" Lowshelfactive="0" LPactive="1" Peak2active="0" Peak1active="0" Peak3active="0" Highshelfactive="0" AnalyseOut="1" Peak2gain="0" HighShelfres="1.4" HP12="0" Outputgain="0" HP24="0" HPres="0.70700002" Peak4gain="0" LP12="0" Peak3gain="0" HPactive="1" HP48="1" HP="2" HighShelfgain="0" LP48="1" Peak4bw="0.30000001" Peak4active="0" LP="2" AnalyseIn="1" Peak1bw="0.30000001" LPres="0.70700002" LP24="0" Lowshelfgain="0">
              <Inputgain scale_type="log" value="0" id="28782"/>
              <Peak1gain scale_type="log" value="0" id="4575"/>
              <HPfreq scale_type="log" value="31" id="9170"/>
              <LowShelffreq scale_type="log" value="80" id="1323"/>
              <Peak1freq scale_type="log" value="120" id="10755"/>
              <Peak2freq scale_type="log" value="250" id="23065"/>
              <Peak3freq scale_type="log" value="2000" id="16803"/>
              <Peak4freq scale_type="log" value="4000" id="26771"/>
              <Highshelffreq scale_type="log" value="12000" id="19546"/>
              <LPfreq scale_type="log" value="18000" id="960"/>
            </Eq>
            <key/>
          </effect>
          <effect name="eq" autoquit_numerator="4" on="1" autoquit_syncmode="0" autoquit_denominator="4" gate="0" autoquit="1" wet="1">
            <Eq Peak3bw="0.30000001" Peak2bw="0.30000001" LowShelfres="1.4" Lowshelfactive="0" LPactive="1" Peak2active="0" Peak1active="0" Peak3active="0" Highshelfactive="0" AnalyseOut="1" Peak2gain="0" HighShelfres="1.4" HP12="0" Outputgain="0" HP24="0" HPres="0.70700002" Peak4gain="0" LP12="0" Peak3gain="0" HPactive="1" HP48="1" HP="2" HighShelfgain="0" LP48="1" Peak4bw="0.30000001" Peak4active="0" LP="2" AnalyseIn="1" Peak1bw="0.30000001" LPres="0.70700002" LP24="0" Lowshelfgain="0">
              <Inputgain scale_type="log" value="0" id="6830"/>
              <Peak1gain scale_type="log" value="0" id="17081"/>
              <HPfreq scale_type="log" value="31" id="18931"/>
              <LowShelffreq scale_type="log" value="80" id="32490"/>
              <Peak1freq scale_type="log" value="120" id="29740"/>
              <Peak2freq scale_type="log" value="250" id="25109"/>
              <Peak3freq scale_type="log" value="2000" id="20881"/>
              <Peak4freq scale_type="log" value="4000" id="12457"/>
              <Highshelffreq scale_type="log" value="12000" id="15941"/>
              <LPfreq scale_type="log" value="18000" id="14771"/>
            </Eq>
            <key/>
          </effect>
        </fxchain>
      </mixerchannel>
      <mixerchannel name="Fade" num="1" soloed="0" muted="0">
        <fxchain numofeffects="0" enabled="1"/>
        <volume scale_type="linear" value="1" id="21091"/>
        <send amount="1" channel="0"/>
      </mixerchannel>
      <mixerchannel name="Piano" volume="1" num="2" soloed="0" muted="0">
        <fxchain numofeffects="1" enabled="1">
          <effect name="vsteffect" autoquit_numerator="4" on="1" autoquit_syncmode="0" autoquit_denominator="4" gate="0" autoquit="1" wet="1">
            <vsteffectcontrols param4="4:T.S.N.:0" param9="9:Quality:0.34" param8="8:Ping-Pong:1" param10="10:Low Cut:1" param13="13:Level:0.5" param3="3:Sync:1" param5="5:T.S.D.:0.38" param12="12:Mix:0.18" guivisible="0" numparams="14" param2="2:Type:0.5" plugin="Effects\Classic Delay\Classic Delay.dll" param11="11:Hi Cut:0.9" program="0" param1="1:Mono:0" param7="7:Feedback:0.9" param0="0:Pan:0.5" param6="6:Time:0.5"/>
            <key>
              <attribute name="file" value="Effects\Classic Delay\Classic Delay.dll"/>
            </key>
          </effect>
        </fxchain>
        <send amount="1" channel="1"/>
      </mixerchannel>
      <mixerchannel name="Windwoods" volume="1" num="3" soloed="0" muted="0">
        <fxchain numofeffects="2" enabled="1">
          <effect name="vsteffect" autoquit_numerator="4" on="1" autoquit_syncmode="0" autoquit_denominator="4" gate="0" autoquit="1" wet="1">
            <vsteffectcontrols param6="6:Mix:0.46" param3="3:Hi Damp:0.34" param4="4:Lo Cut:1" guivisible="0" param2="2:Predelay:0.5" param0="0:Size:0.65" param1="1:Damping:0.44" program="0" param5="5:Early Ref.:0" param7="7:Level:0.5" plugin="Effects\Classic Reverb\Classic Reverb.dll" numparams="8"/>
            <key>
              <attribute name="file" value="Effects\Classic Reverb\Classic Reverb.dll"/>
            </key>
          </effect>
          <effect name="vsteffect" autoquit_numerator="4" on="1" autoquit_syncmode="0" autoquit_denominator="4" gate="0" autoquit="1" wet="1">
            <vsteffectcontrols param4="4:T.S.N.:0.02" param9="9:Quality:0.7" param8="8:Ping-Pong:1" param10="10:Low Cut:1" param13="13:Level:0.5" param3="3:Sync:1" param5="5:T.S.D.:0.46" param12="12:Mix:0.16" guivisible="0" numparams="14" param2="2:Type:0.5" plugin="Effects\Classic Delay\Classic Delay.dll" param11="11:Hi Cut:0.37" program="0" param1="1:Mono:0" param7="7:Feedback:0.55" param0="0:Pan:1" param6="6:Time:0.5"/>
            <key>
              <attribute name="file" value="Effects\Classic Delay\Classic Delay.dll"/>
            </key>
          </effect>
        </fxchain>
        <send amount="1" channel="1"/>
      </mixerchannel>
      <mixerchannel name="Acid" volume="1" num="4" soloed="0" muted="0">
        <fxchain numofeffects="1" enabled="1">
          <effect name="stereomatrix" autoquit_numerator="4" on="1" autoquit_syncmode="0" autoquit_denominator="4" gate="0" autoquit="1" wet="1">
            <stereomatrixcontrols l-l="0.5" r-l="0.5" r-r="0.5" l-r="0.5"/>
            <key/>
          </effect>
        </fxchain>
        <send amount="1" channel="1"/>
      </mixerchannel>
      <mixerchannel name="Drums" volume="1" num="5" soloed="0" muted="0">
        <fxchain numofeffects="1" enabled="1">
          <effect name="vsteffect" autoquit_numerator="4" on="1" autoquit_syncmode="0" autoquit_denominator="4" gate="0" autoquit="1" wet="1">
            <vsteffectcontrols param6="6:Mix:0.02" param3="3:Hi Damp:0.72" param4="4:Lo Cut:1" guivisible="0" param2="2:Predelay:0.5" param0="0:Size:0.93" param1="1:Damping:0.16" program="0" param5="5:Early Ref.:0" param7="7:Level:0.5" plugin="Effects\Classic Reverb\Classic Reverb.dll" numparams="8"/>
            <key>
              <attribute name="file" value="Effects\Classic Reverb\Classic Reverb.dll"/>
            </key>
          </effect>
        </fxchain>
        <send amount="1" channel="1"/>
      </mixerchannel>
    </mixer>
    <ControllerRackView visible="0" height="200" minimized="0" x="550" maximized="0" y="487" width="350"/>
    <pianoroll visible="0" height="600" minimized="0" x="120" maximized="0" y="204" stopbehaviour="0" width="1319"/>
    <automationeditor visible="0" height="400" minimized="0" x="1" maximized="0" y="1" width="860"/>
    <projectnotes visible="1" height="794" minimized="0" x="907" maximized="0" y="7" width="723"><![CDATA[<!DOCTYPE HTML PUBLIC "-//W3C//DTD HTML 4.0//EN" "http://www.w3.org/TR/REC-html40/strict.dtd">
<html><head><meta name="qrichtext" content="1" /><style type="text/css">
p, li { white-space: pre-wrap; }
</style></head><body style=" font-family:'MS Shell Dlg 2'; font-size:8.25pt; font-weight:400; font-style:normal;">
<p style=" margin-top:0px; margin-bottom:0px; margin-left:0px; margin-right:0px; -qt-block-indent:0; text-indent:0px;">Heartbroken Synthie Pop</p>
<p style="-qt-paragraph-type:empty; margin-top:0px; margin-bottom:0px; margin-left:0px; margin-right:0px; -qt-block-indent:0; text-indent:0px;"><br /></p>
<p style=" margin-top:0px; margin-bottom:0px; margin-left:0px; margin-right:0px; -qt-block-indent:0; text-indent:0px;">____</p>
<p style="-qt-paragraph-type:empty; margin-top:0px; margin-bottom:0px; margin-left:0px; margin-right:0px; -qt-block-indent:0; text-indent:0px;"><br /></p>
<p style=" margin-top:0px; margin-bottom:0px; margin-left:0px; margin-right:0px; -qt-block-indent:0; text-indent:0px;">I urged you to</p>
<p style=" margin-top:0px; margin-bottom:0px; margin-left:0px; margin-right:0px; -qt-block-indent:0; text-indent:0px;">reconsider,</p>
<p style=" margin-top:0px; margin-bottom:0px; margin-left:0px; margin-right:0px; -qt-block-indent:0; text-indent:0px;">knew it would turn bad.</p>
<p style=" margin-top:0px; margin-bottom:0px; margin-left:0px; margin-right:0px; -qt-block-indent:0; text-indent:0px;">In the end,</p>
<p style=" margin-top:0px; margin-bottom:0px; margin-left:0px; margin-right:0px; -qt-block-indent:0; text-indent:0px;">I fell to your whispers,</p>
<p style=" margin-top:0px; margin-bottom:0px; margin-left:0px; margin-right:0px; -qt-block-indent:0; text-indent:0px;">a mistake - I must admit.</p>
<p style="-qt-paragraph-type:empty; margin-top:0px; margin-bottom:0px; margin-left:0px; margin-right:0px; -qt-block-indent:0; text-indent:0px;"><br /></p>
<p style=" margin-top:0px; margin-bottom:0px; margin-left:0px; margin-right:0px; -qt-block-indent:0; text-indent:0px;">Now we stand here,</p>
<p style=" margin-top:0px; margin-bottom:0px; margin-left:0px; margin-right:0px; -qt-block-indent:0; text-indent:0px;">at the crossroads,</p>
<p style=" margin-top:0px; margin-bottom:0px; margin-left:0px; margin-right:0px; -qt-block-indent:0; text-indent:0px;">our paths having been set.</p>
<p style=" margin-top:0px; margin-bottom:0px; margin-left:0px; margin-right:0px; -qt-block-indent:0; text-indent:0px;">And the tears flow so</p>
<p style=" margin-top:0px; margin-bottom:0px; margin-left:0px; margin-right:0px; -qt-block-indent:0; text-indent:0px;">gracefully while we don't know</p>
<p style=" margin-top:0px; margin-bottom:0px; margin-left:0px; margin-right:0px; -qt-block-indent:0; text-indent:0px;">just what we had.</p>
<p style="-qt-paragraph-type:empty; margin-top:0px; margin-bottom:0px; margin-left:0px; margin-right:0px; -qt-block-indent:0; text-indent:0px;"><br /></p>
<p style=" margin-top:0px; margin-bottom:0px; margin-left:0px; margin-right:0px; -qt-block-indent:0; text-indent:0px;">____</p>
<p style="-qt-paragraph-type:empty; margin-top:0px; margin-bottom:0px; margin-left:0px; margin-right:0px; -qt-block-indent:0; text-indent:0px;"><br /></p>
<p style=" margin-top:0px; margin-bottom:0px; margin-left:0px; margin-right:0px; -qt-block-indent:0; text-indent:0px;"><span style=" color:#e0e0e0;">Greetings.</span></p>
<p style=" margin-top:0px; margin-bottom:0px; margin-left:0px; margin-right:0px; -qt-block-indent:0; text-indent:0px;"><span style=" color:#e0e0e0;">Please use this in LMMS 1.3 or higher. Previous versions require editing to load correctly.</span></p>
<p style="-qt-paragraph-type:empty; margin-top:0px; margin-bottom:0px; margin-left:0px; margin-right:0px; -qt-block-indent:0; text-indent:0px; color:#e0e0e0;"><br /></p>
<p style=" margin-top:0px; margin-bottom:0px; margin-left:0px; margin-right:0px; -qt-block-indent:0; text-indent:0px;"><span style=" color:#e0e0e0;">Instruments:</span></p>
<p style=" margin-top:0px; margin-bottom:0px; margin-left:0px; margin-right:0px; -qt-block-indent:0; text-indent:0px;"><span style=" color:#e0e0e0;">SGM-V2.01.SF2</span></p>
<p style=" margin-top:0px; margin-bottom:0px; margin-left:0px; margin-right:0px; -qt-block-indent:0; text-indent:0px;"><span style=" color:#e0e0e0;">FluidR3 GM.SF2</span></p>
<p style=" margin-top:0px; margin-bottom:0px; margin-left:0px; margin-right:0px; -qt-block-indent:0; text-indent:0px;"><span style=" color:#e0e0e0;">Touhou.SF2</span></p>
<p style=" margin-top:0px; margin-bottom:0px; margin-left:0px; margin-right:0px; -qt-block-indent:0; text-indent:0px;"><span style=" color:#e0e0e0;">Basscruncher</span></p>
<p style="-qt-paragraph-type:empty; margin-top:0px; margin-bottom:0px; margin-left:0px; margin-right:0px; -qt-block-indent:0; text-indent:0px; color:#e0e0e0;"><br /></p>
<p style=" margin-top:0px; margin-bottom:0px; margin-left:0px; margin-right:0px; -qt-block-indent:0; text-indent:0px;"><span style=" color:#e0e0e0;">Effects:</span></p>
<p style=" margin-top:0px; margin-bottom:0px; margin-left:0px; margin-right:0px; -qt-block-indent:0; text-indent:0px;">CHOW Tape Model</p>
<p style=" margin-top:0px; margin-bottom:0px; margin-left:0px; margin-right:0px; -qt-block-indent:0; text-indent:0px;"><span style=" color:#e0e0e0;">Classic Delay</span></p>
<p style=" margin-top:0px; margin-bottom:0px; margin-left:0px; margin-right:0px; -qt-block-indent:0; text-indent:0px;"><span style=" color:#e0e0e0;">Classic Reverb</span></p>
<p style=" margin-top:0px; margin-bottom:0px; margin-left:0px; margin-right:0px; -qt-block-indent:0; text-indent:0px;"><span style=" color:#e0e0e0;">Stereo Matrix</span></p>
<p style="-qt-paragraph-type:empty; margin-top:0px; margin-bottom:0px; margin-left:0px; margin-right:0px; -qt-block-indent:0; text-indent:0px; color:#e0e0e0;"><br /></p>
<p style=" margin-top:0px; margin-bottom:0px; margin-left:0px; margin-right:0px; -qt-block-indent:0; text-indent:0px;"><span style=" color:#e0e0e0;">Released as .mmp, adjust paths as desired.</span></p>
<p style=" margin-top:0px; margin-bottom:0px; margin-left:0px; margin-right:0px; -qt-block-indent:0; text-indent:0px;"><span style=" color:#e0e0e0;">____</span></p>
<p style="-qt-paragraph-type:empty; margin-top:0px; margin-bottom:0px; margin-left:0px; margin-right:0px; -qt-block-indent:0; text-indent:0px; color:#e0e0e0;"><br /></p>
<p style=" margin-top:0px; margin-bottom:0px; margin-left:0px; margin-right:0px; -qt-block-indent:0; text-indent:0px;">Please note that the author explicitely wishes to have eventual derivates or redistributions distributed ONLY as .mmp files, not .mmpz.</p>
<p style=" margin-top:0px; margin-bottom:0px; margin-left:0px; margin-right:0px; -qt-block-indent:0; text-indent:0px;">There is nothing the license can do from stopping you as saving it as .mmpz, except that the author will insult you severely.</p>
<p style="-qt-paragraph-type:empty; margin-top:0px; margin-bottom:0px; margin-left:0px; margin-right:0px; -qt-block-indent:0; text-indent:0px;"><br /></p>
<p style=" margin-top:0px; margin-bottom:0px; margin-left:0px; margin-right:0px; -qt-block-indent:0; text-indent:0px;">Should you have received this file as an .mmpz, please insult its forwarder.</p>
<p style=" margin-top:0px; margin-bottom:0px; margin-left:0px; margin-right:0px; -qt-block-indent:0; text-indent:0px;">To convert the file into .mmp, follow these steps:</p>
<p style="-qt-paragraph-type:empty; margin-top:0px; margin-bottom:0px; margin-left:0px; margin-right:0px; -qt-block-indent:0; text-indent:0px;"><br /></p>
<p style=" margin-top:0px; margin-bottom:0px; margin-left:0px; margin-right:0px; -qt-block-indent:0; text-indent:0px;">1.: Create a a file called &quot;Decompress.cmd&quot; in the LMMS directory. (Where lmms.exe is located.)</p>
<p style=" margin-top:0px; margin-bottom:0px; margin-left:0px; margin-right:0px; -qt-block-indent:0; text-indent:0px;">2.: Right click on file, click &quot;Edit&quot;.</p>
<p style=" margin-top:0px; margin-bottom:0px; margin-left:0px; margin-right:0px; -qt-block-indent:0; text-indent:0px;">3.: Put the following line into the file:</p>
<p style="-qt-paragraph-type:empty; margin-top:0px; margin-bottom:0px; margin-left:0px; margin-right:0px; -qt-block-indent:0; text-indent:0px;"><br /></p>
<p style=" margin-top:0px; margin-bottom:0px; margin-left:0px; margin-right:0px; -qt-block-indent:0; text-indent:0px;">&quot;%~dp0LMMS.exe&quot; -d &quot;%*&quot; &gt; &quot;%*.mmp&quot;</p>
<p style="-qt-paragraph-type:empty; margin-top:0px; margin-bottom:0px; margin-left:0px; margin-right:0px; -qt-block-indent:0; text-indent:0px;"><br /></p>
<p style=" margin-top:0px; margin-bottom:0px; margin-left:0px; margin-right:0px; -qt-block-indent:0; text-indent:0px;">This does the following:</p>
<p style=" margin-top:0px; margin-bottom:0px; margin-left:0px; margin-right:0px; -qt-block-indent:0; text-indent:0px;">%~dp0 return the folder where the .cmd file is located.</p>
<p style=" margin-top:0px; margin-bottom:0px; margin-left:0px; margin-right:0px; -qt-block-indent:0; text-indent:0px;">It then calls LMMS.exe inside that folder.</p>
<p style=" margin-top:0px; margin-bottom:0px; margin-left:0px; margin-right:0px; -qt-block-indent:0; text-indent:0px;">-d is the decompress option for an .mmpz file.</p>
<p style=" margin-top:0px; margin-bottom:0px; margin-left:0px; margin-right:0px; -qt-block-indent:0; text-indent:0px;">%* returns any parameters given to the .cmd file.</p>
<p style=" margin-top:0px; margin-bottom:0px; margin-left:0px; margin-right:0px; -qt-block-indent:0; text-indent:0px;">&gt; sends the output into a file.</p>
<p style="-qt-paragraph-type:empty; margin-top:0px; margin-bottom:0px; margin-left:0px; margin-right:0px; -qt-block-indent:0; text-indent:0px;"><br /></p>
<p style=" margin-top:0px; margin-bottom:0px; margin-left:0px; margin-right:0px; -qt-block-indent:0; text-indent:0px;">If you drag an .mmpz file onto the .cmd file, it will decompress it into &quot;[filename].mmpz.mmp&quot;, at the original location.</p>
<p style="-qt-paragraph-type:empty; margin-top:0px; margin-bottom:0px; margin-left:0px; margin-right:0px; -qt-block-indent:0; text-indent:0px;"><br /></p></body></html>]]></projectnotes>
    <timeline lp0pos="0" lpstate="1" lp1pos="13440" stopbehaviour="1"/>
    <controllers/>
    <scales>
      <scale description="empty">
        <interval den="1" num="1"/>
      </scale>
      <scale description="empty">
        <interval den="1" num="1"/>
      </scale>
      <scale description="empty">
        <interval den="1" num="1"/>
      </scale>
      <scale description="empty">
        <interval den="1" num="1"/>
      </scale>
      <scale description="empty">
        <interval den="1" num="1"/>
      </scale>
      <scale description="empty">
        <interval den="1" num="1"/>
      </scale>
      <scale description="empty">
        <interval den="1" num="1"/>
      </scale>
      <scale description="empty">
        <interval den="1" num="1"/>
      </scale>
      <scale description="empty">
        <interval den="1" num="1"/>
      </scale>
      <scale description="empty">
        <interval den="1" num="1"/>
      </scale>
    </scales>
    <keymaps>
      <keymap first_key="0" middle_key="60" description="empty" base_freq="440" base_key="69" last_key="127"/>
      <keymap first_key="0" middle_key="60" description="empty" base_freq="440" base_key="69" last_key="127"/>
      <keymap first_key="0" middle_key="60" description="empty" base_freq="440" base_key="69" last_key="127"/>
      <keymap first_key="0" middle_key="60" description="empty" base_freq="440" base_key="69" last_key="127"/>
      <keymap first_key="0" middle_key="60" description="empty" base_freq="440" base_key="69" last_key="127"/>
      <keymap first_key="0" middle_key="60" description="empty" base_freq="440" base_key="69" last_key="127"/>
      <keymap first_key="0" middle_key="60" description="empty" base_freq="440" base_key="69" last_key="127"/>
      <keymap first_key="0" middle_key="60" description="empty" base_freq="440" base_key="69" last_key="127"/>
      <keymap first_key="0" middle_key="60" description="empty" base_freq="440" base_key="69" last_key="127"/>
      <keymap first_key="0" middle_key="60" description="empty" base_freq="440" base_key="69" last_key="127"/>
    </keymaps>
  </song>
</lmms-project>
