<?xml version="1.0"?>
<!DOCTYPE lmms-project>
<lmms-project version="30" creatorversion="1.3.0-alpha.1.714+pr7535.gfe6055ea6" creator="LMMS" type="song">
  <head masterpitch="0" bpm="118" mastervol="100" timesig_denominator="4" timesig_numerator="4"/>
  <song>
    <trackcontainer visible="1" minimized="0" width="1491" y="8" height="455" maximized="0" x="8" type="song">
      <track muted="0" mutedBeforeSolo="0" name="Annotations" solo="0" type="1">
        <patterntrack>
          <trackcontainer visible="0" minimized="0" width="732" y="5" height="300" maximized="0" x="610" type="patternstore"/>
        </patterntrack>
        <patternclip muted="0" name="Hardship" pos="5376" len="3072" off="0"/>
        <patternclip muted="0" name="Reprise" pos="8448" len="3072" off="0"/>
        <patternclip muted="0" name="Lament" pos="1920" len="3072" off="0"/>
        <patternclip muted="0" name="Interlude" pos="4992" len="384" off="0"/>
        <patternclip muted="0" name="Outro" pos="11520" len="1536" off="0"/>
        <patternclip muted="0" name="Setting the Scene" pos="0" len="1920" off="0"/>
      </track>
      <track muted="0" mutedBeforeSolo="0" name="Fade" solo="0" type="5">
        <automationtrack/>
        <automationclip tens="1" pos="0" name="Master>Volume" len="192" mute="0" prog="0">
          <time lockedTan="0" pos="0" outValue="1" value="1" inTan="0" outTan="0"/>
          <object id="21091"/>
        </automationclip>
        <automationclip tens="1" pos="11520" name="Master>Volume" len="1536" mute="0" prog="1">
          <time lockedTan="0" pos="0" outValue="1" value="1" inTan="0" outTan="-0.00065104169"/>
          <time lockedTan="0" pos="1536" outValue="0" value="0" inTan="0" outTan="0"/>
          <object id="21091"/>
        </automationclip>
      </track>
      <track muted="0" mutedBeforeSolo="0" name="Piano" solo="0" type="0">
        <instrumenttrack usemasterpitch="1" scale="0" range_import="1" firstkey="0" lastkey="127" keymap="0" enablecc="0" pan="0" enabled="0" pitch="0" pitchrange="1" basenote="69" vol="100" mixch="2">
          <midicontrollers cc10="0" cc92="0" cc121="0" cc11="0" cc35="0" cc80="0" cc4="0" cc57="0" cc34="0" cc50="0" cc12="0" cc70="0" cc117="0" cc75="0" cc124="0" cc3="0" cc0="0" cc89="0" cc21="0" cc56="0" cc44="0" cc78="0" cc36="0" cc38="0" cc88="0" cc48="0" cc27="0" cc67="0" cc82="0" cc42="0" cc99="0" cc112="0" cc45="0" cc39="0" cc127="0" cc73="0" cc58="0" cc13="0" cc61="0" cc116="0" cc8="0" cc63="0" cc111="0" cc60="0" cc72="0" cc97="0" cc114="0" cc115="0" cc76="0" cc69="0" cc20="0" cc106="0" cc79="0" cc24="0" cc81="0" cc19="0" cc87="0" cc107="0" cc46="0" cc47="0" cc83="0" cc93="0" cc102="0" cc65="0" cc1="0" cc18="0" cc85="0" cc94="0" cc64="0" cc66="0" cc16="0" cc84="0" cc98="0" cc110="0" cc9="0" cc126="0" cc2="0" cc29="0" cc25="0" cc43="0" cc59="0" cc62="0" cc53="0" cc105="0" cc40="0" cc54="0" cc120="0" cc90="0" cc86="0" cc100="0" cc49="0" cc22="0" cc41="0" cc108="0" cc77="0" cc95="0" cc109="0" cc15="0" cc104="0" cc119="0" cc125="0" cc68="0" cc122="0" cc17="0" cc74="0" cc28="0" cc14="0" cc26="0" cc32="0" cc5="0" cc123="0" cc101="0" cc33="0" cc51="0" cc37="0" cc96="0" cc103="0" cc30="0" cc71="0" cc6="0" cc52="0" cc113="0" cc31="0" cc91="0" cc23="0" cc7="0" cc55="0" cc118="0"/>
          <instrument name="sf2player">
            <sf2player reverbRoomSize="0.2" chorusNum="3" reverbOn="0" gain="0.36000001" reverbDamping="0" chorusSpeed="0.30000001" chorusOn="0" src="usersoundfont:SGM-V2.01.sf2" chorusDepth="8" bank="0" reverbLevel="0.89999998" patch="5" reverbWidth="0.5" chorusLevel="2">
              <key/>
            </sf2player>
          </instrument>
          <eldata ftype="0" fcut="14000" fres="0.5" fwet="0">
            <elvol ctlenvamt="0" pdel="0" lspd_numerator="4" rel="0.1" att="0" lpdel="0" dec="0.5" lspd_syncmode="0" lamt="0" lspd="0.1" sustain="0.5" userwavefile="" latt="0" hold="0.5" lshp="0" lspd_denominator="4" amt="0" x100="0"/>
            <elcut ctlenvamt="0" pdel="0" lspd_numerator="4" rel="0.1" att="0" lpdel="0" dec="0.5" lspd_syncmode="0" lamt="0" lspd="0.1" sustain="0.5" userwavefile="" latt="0" hold="0.5" lshp="0" lspd_denominator="4" amt="0" x100="0"/>
            <elres ctlenvamt="0" pdel="0" lspd_numerator="4" rel="0.1" att="0" lpdel="0" dec="0.5" lspd_syncmode="0" lamt="0" lspd="0.1" sustain="0.5" userwavefile="" latt="0" hold="0.5" lshp="0" lspd_denominator="4" amt="0" x100="0"/>
          </eldata>
          <chordcreator chordrange="1" chord-enabled="0" chord="0"/>
          <arpeggiator arptime_syncmode="0" arprepeats="1" arp-enabled="0" arpdir="0" arptime_denominator="4" arp="0" arpcycle="0" arprange="1" arpmiss="0" arptime_numerator="4" arptime="200" arpskip="0" arpmode="0" arpgate="100"/>
          <midiport basevelocity="127" readable="1" fixedoutputnote="-1" inputchannel="0" inputcontroller="0" fixedinputvelocity="-1" inports="" outputprogram="1" writable="0" outputchannel="1" fixedoutputvelocity="-1" outputcontroller="0"/>
          <fxchain numofeffects="0" enabled="0"/>
        </instrumenttrack>
        <midiclip muted="0" name="" pos="384" steps="16" type="1">
          <note pos="0" len="384" key="60" pan="0" vol="100" type="0"/>
          <note pos="0" len="384" key="57" pan="0" vol="100" type="0"/>
          <note pos="0" len="384" key="53" pan="0" vol="100" type="0"/>
          <note pos="0" len="384" key="50" pan="0" vol="100" type="0"/>
          <note pos="384" len="192" key="62" pan="0" vol="100" type="0"/>
          <note pos="384" len="192" key="59" pan="0" vol="100" type="0"/>
          <note pos="384" len="192" key="57" pan="0" vol="100" type="0"/>
          <note pos="384" len="192" key="53" pan="0" vol="100" type="0"/>
          <note pos="576" len="192" key="64" pan="0" vol="100" type="0"/>
          <note pos="576" len="192" key="60" pan="0" vol="100" type="0"/>
          <note pos="576" len="192" key="57" pan="0" vol="100" type="0"/>
          <note pos="576" len="192" key="55" pan="0" vol="100" type="0"/>
        </midiclip>
        <midiclip muted="0" name="" pos="1152" steps="16" type="1">
          <note pos="0" len="384" key="60" pan="0" vol="100" type="0"/>
          <note pos="0" len="384" key="57" pan="0" vol="100" type="0"/>
          <note pos="0" len="384" key="55" pan="0" vol="100" type="0"/>
          <note pos="0" len="384" key="50" pan="0" vol="100" type="0"/>
          <note pos="384" len="192" key="62" pan="0" vol="100" type="0"/>
          <note pos="384" len="192" key="59" pan="0" vol="100" type="0"/>
          <note pos="384" len="192" key="57" pan="0" vol="100" type="0"/>
          <note pos="384" len="192" key="53" pan="0" vol="100" type="0"/>
          <note pos="576" len="192" key="60" pan="0" vol="100" type="0"/>
          <note pos="576" len="192" key="57" pan="0" vol="100" type="0"/>
          <note pos="576" len="192" key="55" pan="0" vol="100" type="0"/>
          <note pos="576" len="192" key="52" pan="0" vol="100" type="0"/>
        </midiclip>
        <midiclip muted="0" name="" pos="4992" steps="16" type="1">
          <note pos="0" len="384" key="60" pan="0" vol="100" type="0"/>
          <note pos="0" len="384" key="57" pan="0" vol="100" type="0"/>
          <note pos="0" len="384" key="53" pan="0" vol="100" type="0"/>
          <note pos="0" len="384" key="50" pan="0" vol="100" type="0"/>
        </midiclip>
        <midiclip muted="0" name="" pos="11520" steps="16" type="1">
          <note pos="0" len="384" key="60" pan="0" vol="100" type="0"/>
          <note pos="0" len="384" key="57" pan="0" vol="100" type="0"/>
          <note pos="0" len="384" key="53" pan="0" vol="100" type="0"/>
          <note pos="0" len="384" key="50" pan="0" vol="100" type="0"/>
        </midiclip>
        <midiclip muted="0" name="" pos="11904" steps="16" type="1">
          <note pos="0" len="384" key="60" pan="0" vol="100" type="0"/>
          <note pos="0" len="384" key="57" pan="0" vol="100" type="0"/>
          <note pos="0" len="384" key="53" pan="0" vol="100" type="0"/>
          <note pos="0" len="384" key="50" pan="0" vol="100" type="0"/>
        </midiclip>
        <midiclip muted="0" name="" pos="12288" steps="16" type="1">
          <note pos="0" len="384" key="60" pan="0" vol="100" type="0"/>
          <note pos="0" len="384" key="57" pan="0" vol="100" type="0"/>
          <note pos="0" len="384" key="53" pan="0" vol="100" type="0"/>
          <note pos="0" len="384" key="50" pan="0" vol="100" type="0"/>
        </midiclip>
        <midiclip muted="0" name="" pos="12672" steps="16" type="1">
          <note pos="0" len="384" key="60" pan="0" vol="100" type="0"/>
          <note pos="0" len="384" key="57" pan="0" vol="100" type="0"/>
          <note pos="0" len="384" key="53" pan="0" vol="100" type="0"/>
          <note pos="0" len="384" key="50" pan="0" vol="100" type="0"/>
        </midiclip>
        <midiclip muted="0" name="" pos="8448" steps="16" type="1">
          <note pos="0" len="192" key="58" pan="0" vol="100" type="0"/>
          <note pos="0" len="120" key="53" pan="0" vol="100" type="0"/>
          <note pos="0" len="72" key="50" pan="0" vol="100" type="0"/>
          <note pos="0" len="24" key="46" pan="0" vol="100" type="0"/>
          <note pos="24" len="168" key="46" pan="0" vol="100" type="0"/>
          <note pos="72" len="120" key="50" pan="0" vol="100" type="0"/>
          <note pos="120" len="48" key="53" pan="0" vol="100" type="0"/>
          <note pos="168" len="24" key="55" pan="0" vol="100" type="0"/>
          <note pos="192" len="192" key="61" pan="0" vol="100" type="0"/>
          <note pos="192" len="144" key="57" pan="0" vol="100" type="0"/>
          <note pos="192" len="72" key="55" pan="0" vol="100" type="0"/>
          <note pos="192" len="24" key="52" pan="0" vol="100" type="0"/>
          <note pos="216" len="168" key="52" pan="0" vol="100" type="0"/>
          <note pos="264" len="96" key="55" pan="0" vol="100" type="0"/>
          <note pos="336" len="48" key="57" pan="0" vol="100" type="0"/>
          <note pos="360" len="24" key="55" pan="0" vol="100" type="0"/>
          <note pos="384" len="72" key="62" pan="0" vol="100" type="0"/>
          <note pos="384" len="144" key="57" pan="0" vol="100" type="0"/>
          <note pos="384" len="192" key="53" pan="0" vol="100" type="0"/>
          <note pos="384" len="24" key="50" pan="0" vol="100" type="0"/>
          <note pos="408" len="96" key="50" pan="0" vol="100" type="0"/>
          <note pos="456" len="120" key="62" pan="0" vol="100" type="0"/>
          <note pos="504" len="72" key="50" pan="0" vol="100" type="0"/>
          <note pos="528" len="24" key="57" pan="0" vol="100" type="0"/>
          <note pos="552" len="24" key="55" pan="0" vol="100" type="0"/>
          <note pos="576" len="144" key="59" pan="0" vol="100" type="0"/>
          <note pos="576" len="192" key="57" pan="0" vol="100" type="0"/>
          <note pos="576" len="120" key="55" pan="0" vol="100" type="0"/>
          <note pos="576" len="96" key="50" pan="0" vol="100" type="0"/>
          <note pos="672" len="72" key="50" pan="0" vol="100" type="0"/>
          <note pos="696" len="72" key="55" pan="0" vol="100" type="0"/>
          <note pos="720" len="48" key="59" pan="0" vol="100" type="0"/>
          <note pos="744" len="24" key="50" pan="0" vol="100" type="0"/>
          <note pos="768" len="144" key="62" pan="0" vol="100" type="0"/>
          <note pos="768" len="72" key="58" pan="0" vol="100" type="0"/>
          <note pos="768" len="192" key="57" pan="0" vol="100" type="0"/>
          <note pos="768" len="120" key="53" pan="0" vol="100" type="0"/>
          <note pos="840" len="120" key="58" pan="0" vol="100" type="0"/>
          <note pos="888" len="48" key="53" pan="0" vol="100" type="0"/>
          <note pos="912" len="48" key="50" pan="0" vol="100" type="0"/>
          <note pos="936" len="24" key="55" pan="0" vol="100" type="0"/>
          <note pos="960" len="96" key="61" pan="0" vol="100" type="0"/>
          <note pos="960" len="72" key="57" pan="0" vol="100" type="0"/>
          <note pos="960" len="132" key="55" pan="0" vol="100" type="0"/>
          <note pos="960" len="24" key="52" pan="0" vol="100" type="0"/>
          <note pos="984" len="108" key="52" pan="0" vol="100" type="0"/>
          <note pos="1032" len="24" key="57" pan="0" vol="100" type="0"/>
          <note pos="1056" len="36" key="64" pan="0" vol="100" type="0"/>
          <note pos="1056" len="36" key="61" pan="0" vol="100" type="0"/>
          <note pos="1104" len="48" key="62" pan="0" vol="100" type="0"/>
          <note pos="1104" len="48" key="59" pan="0" vol="100" type="0"/>
          <note pos="1104" len="48" key="55" pan="0" vol="100" type="0"/>
          <note pos="1104" len="48" key="53" pan="0" vol="100" type="0"/>
          <note pos="1152" len="120" key="57" pan="0" vol="100" type="0"/>
          <note pos="1152" len="192" key="53" pan="0" vol="100" type="0"/>
          <note pos="1152" len="72" key="50" pan="0" vol="100" type="0"/>
          <note pos="1152" len="24" key="48" pan="0" vol="100" type="0"/>
          <note pos="1176" len="120" key="48" pan="0" vol="100" type="0"/>
          <note pos="1224" len="96" key="50" pan="0" vol="100" type="0"/>
          <note pos="1272" len="72" key="57" pan="0" vol="100" type="0"/>
          <note pos="1296" len="48" key="48" pan="0" vol="100" type="0"/>
          <note pos="1320" len="24" key="50" pan="0" vol="100" type="0"/>
          <note pos="1344" len="84" key="59" pan="0" vol="100" type="0"/>
          <note pos="1344" len="84" key="55" pan="0" vol="100" type="0"/>
          <note pos="1344" len="84" key="53" pan="0" vol="100" type="0"/>
          <note pos="1344" len="84" key="50" pan="0" vol="100" type="0"/>
          <note pos="1440" len="36" key="60" pan="0" vol="100" type="0"/>
          <note pos="1440" len="36" key="57" pan="0" vol="100" type="0"/>
          <note pos="1440" len="36" key="55" pan="0" vol="100" type="0"/>
          <note pos="1440" len="36" key="53" pan="0" vol="100" type="0"/>
          <note pos="1488" len="36" key="59" pan="0" vol="100" type="0"/>
          <note pos="1488" len="36" key="55" pan="0" vol="100" type="0"/>
          <note pos="1488" len="36" key="53" pan="0" vol="100" type="0"/>
          <note pos="1488" len="36" key="50" pan="0" vol="100" type="0"/>
        </midiclip>
        <midiclip muted="0" name="" pos="1920" steps="16" type="1">
          <note pos="0" len="192" key="58" pan="0" vol="100" type="0"/>
          <note pos="0" len="120" key="53" pan="0" vol="100" type="0"/>
          <note pos="0" len="72" key="50" pan="0" vol="100" type="0"/>
          <note pos="0" len="24" key="46" pan="0" vol="100" type="0"/>
          <note pos="24" len="168" key="46" pan="0" vol="100" type="0"/>
          <note pos="72" len="120" key="50" pan="0" vol="100" type="0"/>
          <note pos="120" len="48" key="53" pan="0" vol="100" type="0"/>
          <note pos="168" len="24" key="55" pan="0" vol="100" type="0"/>
          <note pos="192" len="192" key="61" pan="0" vol="100" type="0"/>
          <note pos="192" len="144" key="57" pan="0" vol="100" type="0"/>
          <note pos="192" len="72" key="55" pan="0" vol="100" type="0"/>
          <note pos="192" len="24" key="52" pan="0" vol="100" type="0"/>
          <note pos="216" len="168" key="52" pan="0" vol="100" type="0"/>
          <note pos="264" len="96" key="55" pan="0" vol="100" type="0"/>
          <note pos="336" len="48" key="57" pan="0" vol="100" type="0"/>
          <note pos="360" len="24" key="55" pan="0" vol="100" type="0"/>
          <note pos="384" len="72" key="62" pan="0" vol="100" type="0"/>
          <note pos="384" len="144" key="57" pan="0" vol="100" type="0"/>
          <note pos="384" len="192" key="53" pan="0" vol="100" type="0"/>
          <note pos="384" len="24" key="50" pan="0" vol="100" type="0"/>
          <note pos="408" len="96" key="50" pan="0" vol="100" type="0"/>
          <note pos="456" len="120" key="62" pan="0" vol="100" type="0"/>
          <note pos="504" len="72" key="50" pan="0" vol="100" type="0"/>
          <note pos="528" len="24" key="57" pan="0" vol="100" type="0"/>
          <note pos="552" len="24" key="55" pan="0" vol="100" type="0"/>
          <note pos="576" len="144" key="59" pan="0" vol="100" type="0"/>
          <note pos="576" len="192" key="57" pan="0" vol="100" type="0"/>
          <note pos="576" len="120" key="55" pan="0" vol="100" type="0"/>
          <note pos="576" len="96" key="50" pan="0" vol="100" type="0"/>
          <note pos="672" len="72" key="50" pan="0" vol="100" type="0"/>
          <note pos="696" len="72" key="55" pan="0" vol="100" type="0"/>
          <note pos="720" len="48" key="59" pan="0" vol="100" type="0"/>
          <note pos="744" len="24" key="50" pan="0" vol="100" type="0"/>
          <note pos="768" len="144" key="62" pan="0" vol="100" type="0"/>
          <note pos="768" len="72" key="58" pan="0" vol="100" type="0"/>
          <note pos="768" len="192" key="57" pan="0" vol="100" type="0"/>
          <note pos="768" len="120" key="53" pan="0" vol="100" type="0"/>
          <note pos="840" len="120" key="58" pan="0" vol="100" type="0"/>
          <note pos="888" len="48" key="53" pan="0" vol="100" type="0"/>
          <note pos="912" len="48" key="50" pan="0" vol="100" type="0"/>
          <note pos="936" len="24" key="55" pan="0" vol="100" type="0"/>
          <note pos="960" len="96" key="61" pan="0" vol="100" type="0"/>
          <note pos="960" len="72" key="57" pan="0" vol="100" type="0"/>
          <note pos="960" len="132" key="55" pan="0" vol="100" type="0"/>
          <note pos="960" len="24" key="52" pan="0" vol="100" type="0"/>
          <note pos="984" len="108" key="52" pan="0" vol="100" type="0"/>
          <note pos="1032" len="24" key="57" pan="0" vol="100" type="0"/>
          <note pos="1056" len="36" key="64" pan="0" vol="100" type="0"/>
          <note pos="1056" len="36" key="61" pan="0" vol="100" type="0"/>
          <note pos="1104" len="48" key="62" pan="0" vol="100" type="0"/>
          <note pos="1104" len="48" key="59" pan="0" vol="100" type="0"/>
          <note pos="1104" len="48" key="55" pan="0" vol="100" type="0"/>
          <note pos="1104" len="48" key="53" pan="0" vol="100" type="0"/>
          <note pos="1152" len="120" key="57" pan="0" vol="100" type="0"/>
          <note pos="1152" len="192" key="53" pan="0" vol="100" type="0"/>
          <note pos="1152" len="72" key="50" pan="0" vol="100" type="0"/>
          <note pos="1152" len="24" key="48" pan="0" vol="100" type="0"/>
          <note pos="1176" len="120" key="48" pan="0" vol="100" type="0"/>
          <note pos="1224" len="96" key="50" pan="0" vol="100" type="0"/>
          <note pos="1272" len="72" key="57" pan="0" vol="100" type="0"/>
          <note pos="1296" len="48" key="48" pan="0" vol="100" type="0"/>
          <note pos="1320" len="24" key="50" pan="0" vol="100" type="0"/>
          <note pos="1344" len="84" key="59" pan="0" vol="100" type="0"/>
          <note pos="1344" len="84" key="55" pan="0" vol="100" type="0"/>
          <note pos="1344" len="84" key="53" pan="0" vol="100" type="0"/>
          <note pos="1344" len="84" key="50" pan="0" vol="100" type="0"/>
          <note pos="1440" len="36" key="60" pan="0" vol="100" type="0"/>
          <note pos="1440" len="36" key="57" pan="0" vol="100" type="0"/>
          <note pos="1440" len="36" key="55" pan="0" vol="100" type="0"/>
          <note pos="1440" len="36" key="53" pan="0" vol="100" type="0"/>
          <note pos="1488" len="36" key="59" pan="0" vol="100" type="0"/>
          <note pos="1488" len="36" key="55" pan="0" vol="100" type="0"/>
          <note pos="1488" len="36" key="53" pan="0" vol="100" type="0"/>
          <note pos="1488" len="36" key="50" pan="0" vol="100" type="0"/>
        </midiclip>
        <midiclip muted="0" name="" pos="3456" steps="16" type="1">
          <note pos="0" len="192" key="58" pan="0" vol="100" type="0"/>
          <note pos="0" len="120" key="53" pan="0" vol="100" type="0"/>
          <note pos="0" len="72" key="50" pan="0" vol="100" type="0"/>
          <note pos="0" len="24" key="46" pan="0" vol="100" type="0"/>
          <note pos="24" len="168" key="46" pan="0" vol="100" type="0"/>
          <note pos="72" len="120" key="50" pan="0" vol="100" type="0"/>
          <note pos="120" len="48" key="53" pan="0" vol="100" type="0"/>
          <note pos="168" len="24" key="55" pan="0" vol="100" type="0"/>
          <note pos="192" len="192" key="61" pan="0" vol="100" type="0"/>
          <note pos="192" len="144" key="57" pan="0" vol="100" type="0"/>
          <note pos="192" len="72" key="55" pan="0" vol="100" type="0"/>
          <note pos="192" len="24" key="52" pan="0" vol="100" type="0"/>
          <note pos="216" len="168" key="52" pan="0" vol="100" type="0"/>
          <note pos="264" len="120" key="55" pan="0" vol="100" type="0"/>
          <note pos="336" len="24" key="57" pan="0" vol="100" type="0"/>
          <note pos="360" len="24" key="60" pan="0" vol="100" type="0"/>
          <note pos="384" len="72" key="62" pan="0" vol="100" type="0"/>
          <note pos="384" len="144" key="57" pan="0" vol="100" type="0"/>
          <note pos="384" len="192" key="53" pan="0" vol="100" type="0"/>
          <note pos="384" len="24" key="50" pan="0" vol="100" type="0"/>
          <note pos="408" len="96" key="50" pan="0" vol="100" type="0"/>
          <note pos="456" len="120" key="62" pan="0" vol="100" type="0"/>
          <note pos="504" len="72" key="50" pan="0" vol="100" type="0"/>
          <note pos="528" len="24" key="57" pan="0" vol="100" type="0"/>
          <note pos="552" len="24" key="55" pan="0" vol="100" type="0"/>
          <note pos="576" len="192" key="59" pan="0" vol="100" type="0"/>
          <note pos="576" len="144" key="57" pan="0" vol="100" type="0"/>
          <note pos="576" len="120" key="55" pan="0" vol="100" type="0"/>
          <note pos="576" len="96" key="50" pan="0" vol="100" type="0"/>
          <note pos="672" len="96" key="50" pan="0" vol="100" type="0"/>
          <note pos="696" len="72" key="55" pan="0" vol="100" type="0"/>
          <note pos="720" len="48" key="57" pan="0" vol="100" type="0"/>
          <note pos="744" len="24" key="62" pan="0" vol="100" type="0"/>
          <note pos="768" len="144" key="62" pan="0" vol="100" type="0"/>
          <note pos="768" len="72" key="58" pan="0" vol="100" type="0"/>
          <note pos="768" len="192" key="57" pan="0" vol="100" type="0"/>
          <note pos="768" len="120" key="53" pan="0" vol="100" type="0"/>
          <note pos="840" len="120" key="58" pan="0" vol="100" type="0"/>
          <note pos="888" len="48" key="53" pan="0" vol="100" type="0"/>
          <note pos="912" len="48" key="50" pan="0" vol="100" type="0"/>
          <note pos="936" len="24" key="55" pan="0" vol="100" type="0"/>
          <note pos="960" len="96" key="61" pan="0" vol="100" type="0"/>
          <note pos="960" len="72" key="57" pan="0" vol="100" type="0"/>
          <note pos="960" len="132" key="55" pan="0" vol="100" type="0"/>
          <note pos="960" len="24" key="52" pan="0" vol="100" type="0"/>
          <note pos="984" len="108" key="52" pan="0" vol="100" type="0"/>
          <note pos="1032" len="24" key="57" pan="0" vol="100" type="0"/>
          <note pos="1056" len="36" key="64" pan="0" vol="100" type="0"/>
          <note pos="1056" len="36" key="61" pan="0" vol="100" type="0"/>
          <note pos="1104" len="48" key="67" pan="0" vol="100" type="0"/>
          <note pos="1104" len="48" key="65" pan="0" vol="100" type="0"/>
          <note pos="1104" len="48" key="62" pan="0" vol="100" type="0"/>
          <note pos="1104" len="48" key="59" pan="0" vol="100" type="0"/>
          <note pos="1152" len="192" key="65" pan="0" vol="100" type="0"/>
          <note pos="1152" len="72" key="62" pan="0" vol="100" type="0"/>
          <note pos="1152" len="24" key="60" pan="0" vol="100" type="0"/>
          <note pos="1152" len="120" key="57" pan="0" vol="100" type="0"/>
          <note pos="1176" len="120" key="60" pan="0" vol="100" type="0"/>
          <note pos="1224" len="96" key="62" pan="0" vol="100" type="0"/>
          <note pos="1272" len="72" key="57" pan="0" vol="100" type="0"/>
          <note pos="1296" len="48" key="60" pan="0" vol="100" type="0"/>
          <note pos="1320" len="24" key="62" pan="0" vol="100" type="0"/>
          <note pos="1344" len="84" key="67" pan="0" vol="100" type="0"/>
          <note pos="1344" len="84" key="65" pan="0" vol="100" type="0"/>
          <note pos="1344" len="84" key="62" pan="0" vol="100" type="0"/>
          <note pos="1344" len="84" key="59" pan="0" vol="100" type="0"/>
          <note pos="1440" len="36" key="69" pan="0" vol="100" type="0"/>
          <note pos="1440" len="36" key="67" pan="0" vol="100" type="0"/>
          <note pos="1440" len="36" key="65" pan="0" vol="100" type="0"/>
          <note pos="1440" len="36" key="60" pan="0" vol="100" type="0"/>
          <note pos="1488" len="36" key="67" pan="0" vol="100" type="0"/>
          <note pos="1488" len="36" key="65" pan="0" vol="100" type="0"/>
          <note pos="1488" len="36" key="62" pan="0" vol="100" type="0"/>
          <note pos="1488" len="36" key="59" pan="0" vol="100" type="0"/>
        </midiclip>
        <midiclip muted="0" name="" pos="9984" steps="16" type="1">
          <note pos="0" len="192" key="58" pan="0" vol="100" type="0"/>
          <note pos="0" len="120" key="53" pan="0" vol="100" type="0"/>
          <note pos="0" len="72" key="50" pan="0" vol="100" type="0"/>
          <note pos="0" len="24" key="46" pan="0" vol="100" type="0"/>
          <note pos="24" len="168" key="46" pan="0" vol="100" type="0"/>
          <note pos="72" len="120" key="50" pan="0" vol="100" type="0"/>
          <note pos="120" len="48" key="53" pan="0" vol="100" type="0"/>
          <note pos="168" len="24" key="55" pan="0" vol="100" type="0"/>
          <note pos="192" len="192" key="61" pan="0" vol="100" type="0"/>
          <note pos="192" len="144" key="57" pan="0" vol="100" type="0"/>
          <note pos="192" len="72" key="55" pan="0" vol="100" type="0"/>
          <note pos="192" len="24" key="52" pan="0" vol="100" type="0"/>
          <note pos="216" len="168" key="52" pan="0" vol="100" type="0"/>
          <note pos="264" len="120" key="55" pan="0" vol="100" type="0"/>
          <note pos="336" len="24" key="57" pan="0" vol="100" type="0"/>
          <note pos="360" len="24" key="60" pan="0" vol="100" type="0"/>
          <note pos="384" len="72" key="62" pan="0" vol="100" type="0"/>
          <note pos="384" len="144" key="57" pan="0" vol="100" type="0"/>
          <note pos="384" len="192" key="53" pan="0" vol="100" type="0"/>
          <note pos="384" len="24" key="50" pan="0" vol="100" type="0"/>
          <note pos="408" len="96" key="50" pan="0" vol="100" type="0"/>
          <note pos="456" len="120" key="62" pan="0" vol="100" type="0"/>
          <note pos="504" len="72" key="50" pan="0" vol="100" type="0"/>
          <note pos="528" len="24" key="57" pan="0" vol="100" type="0"/>
          <note pos="552" len="24" key="55" pan="0" vol="100" type="0"/>
          <note pos="576" len="192" key="59" pan="0" vol="100" type="0"/>
          <note pos="576" len="144" key="57" pan="0" vol="100" type="0"/>
          <note pos="576" len="120" key="55" pan="0" vol="100" type="0"/>
          <note pos="576" len="96" key="50" pan="0" vol="100" type="0"/>
          <note pos="672" len="96" key="50" pan="0" vol="100" type="0"/>
          <note pos="696" len="72" key="55" pan="0" vol="100" type="0"/>
          <note pos="720" len="48" key="57" pan="0" vol="100" type="0"/>
          <note pos="744" len="24" key="62" pan="0" vol="100" type="0"/>
          <note pos="768" len="144" key="62" pan="0" vol="100" type="0"/>
          <note pos="768" len="72" key="58" pan="0" vol="100" type="0"/>
          <note pos="768" len="192" key="57" pan="0" vol="100" type="0"/>
          <note pos="768" len="120" key="53" pan="0" vol="100" type="0"/>
          <note pos="840" len="120" key="58" pan="0" vol="100" type="0"/>
          <note pos="888" len="48" key="53" pan="0" vol="100" type="0"/>
          <note pos="912" len="48" key="50" pan="0" vol="100" type="0"/>
          <note pos="936" len="24" key="55" pan="0" vol="100" type="0"/>
          <note pos="960" len="96" key="61" pan="0" vol="100" type="0"/>
          <note pos="960" len="72" key="57" pan="0" vol="100" type="0"/>
          <note pos="960" len="132" key="55" pan="0" vol="100" type="0"/>
          <note pos="960" len="24" key="52" pan="0" vol="100" type="0"/>
          <note pos="984" len="108" key="52" pan="0" vol="100" type="0"/>
          <note pos="1032" len="24" key="57" pan="0" vol="100" type="0"/>
          <note pos="1056" len="36" key="64" pan="0" vol="100" type="0"/>
          <note pos="1056" len="36" key="61" pan="0" vol="100" type="0"/>
          <note pos="1104" len="48" key="67" pan="0" vol="100" type="0"/>
          <note pos="1104" len="48" key="65" pan="0" vol="100" type="0"/>
          <note pos="1104" len="48" key="62" pan="0" vol="100" type="0"/>
          <note pos="1104" len="48" key="59" pan="0" vol="100" type="0"/>
          <note pos="1152" len="192" key="65" pan="0" vol="100" type="0"/>
          <note pos="1152" len="72" key="62" pan="0" vol="100" type="0"/>
          <note pos="1152" len="24" key="60" pan="0" vol="100" type="0"/>
          <note pos="1152" len="120" key="57" pan="0" vol="100" type="0"/>
          <note pos="1176" len="120" key="60" pan="0" vol="100" type="0"/>
          <note pos="1224" len="96" key="62" pan="0" vol="100" type="0"/>
          <note pos="1272" len="72" key="57" pan="0" vol="100" type="0"/>
          <note pos="1296" len="48" key="60" pan="0" vol="100" type="0"/>
          <note pos="1320" len="24" key="62" pan="0" vol="100" type="0"/>
          <note pos="1344" len="84" key="67" pan="0" vol="100" type="0"/>
          <note pos="1344" len="84" key="65" pan="0" vol="100" type="0"/>
          <note pos="1344" len="84" key="62" pan="0" vol="100" type="0"/>
          <note pos="1344" len="84" key="59" pan="0" vol="100" type="0"/>
          <note pos="1440" len="36" key="69" pan="0" vol="100" type="0"/>
          <note pos="1440" len="36" key="67" pan="0" vol="100" type="0"/>
          <note pos="1440" len="36" key="65" pan="0" vol="100" type="0"/>
          <note pos="1440" len="36" key="60" pan="0" vol="100" type="0"/>
          <note pos="1488" len="36" key="67" pan="0" vol="100" type="0"/>
          <note pos="1488" len="36" key="65" pan="0" vol="100" type="0"/>
          <note pos="1488" len="36" key="62" pan="0" vol="100" type="0"/>
          <note pos="1488" len="36" key="59" pan="0" vol="100" type="0"/>
        </midiclip>
        <midiclip muted="0" name="" pos="6912" steps="16" type="1">
          <note pos="0" len="12" key="62" pan="0" vol="100" type="0"/>
          <note pos="0" len="12" key="57" pan="0" vol="100" type="0"/>
          <note pos="0" len="12" key="53" pan="0" vol="100" type="0"/>
          <note pos="24" len="36" key="62" pan="0" vol="100" type="0"/>
          <note pos="24" len="36" key="57" pan="0" vol="100" type="0"/>
          <note pos="24" len="36" key="53" pan="0" vol="100" type="0"/>
          <note pos="72" len="12" key="62" pan="0" vol="100" type="0"/>
          <note pos="72" len="12" key="57" pan="0" vol="100" type="0"/>
          <note pos="72" len="12" key="53" pan="0" vol="100" type="0"/>
          <note pos="96" len="36" key="62" pan="0" vol="100" type="0"/>
          <note pos="96" len="36" key="57" pan="0" vol="100" type="0"/>
          <note pos="96" len="36" key="53" pan="0" vol="100" type="0"/>
          <note pos="144" len="12" key="60" pan="0" vol="100" type="0"/>
          <note pos="144" len="12" key="57" pan="0" vol="100" type="0"/>
          <note pos="144" len="12" key="53" pan="0" vol="100" type="0"/>
          <note pos="168" len="24" key="62" pan="0" vol="100" type="0"/>
          <note pos="168" len="24" key="57" pan="0" vol="100" type="0"/>
          <note pos="168" len="24" key="53" pan="0" vol="100" type="0"/>
          <note pos="192" len="12" key="65" pan="0" vol="100" type="0"/>
          <note pos="192" len="12" key="62" pan="0" vol="100" type="0"/>
          <note pos="192" len="12" key="57" pan="0" vol="100" type="0"/>
          <note pos="216" len="36" key="65" pan="0" vol="100" type="0"/>
          <note pos="216" len="36" key="62" pan="0" vol="100" type="0"/>
          <note pos="216" len="36" key="57" pan="0" vol="100" type="0"/>
          <note pos="264" len="12" key="64" pan="0" vol="100" type="0"/>
          <note pos="264" len="12" key="62" pan="0" vol="100" type="0"/>
          <note pos="264" len="12" key="57" pan="0" vol="100" type="0"/>
          <note pos="288" len="36" key="65" pan="0" vol="100" type="0"/>
          <note pos="288" len="36" key="62" pan="0" vol="100" type="0"/>
          <note pos="288" len="36" key="57" pan="0" vol="100" type="0"/>
          <note pos="336" len="12" key="64" pan="0" vol="100" type="0"/>
          <note pos="336" len="12" key="62" pan="0" vol="100" type="0"/>
          <note pos="336" len="12" key="57" pan="0" vol="100" type="0"/>
          <note pos="360" len="24" key="65" pan="0" vol="100" type="0"/>
          <note pos="360" len="24" key="62" pan="0" vol="100" type="0"/>
          <note pos="360" len="24" key="57" pan="0" vol="100" type="0"/>
          <note pos="384" len="12" key="62" pan="0" vol="100" type="0"/>
          <note pos="384" len="12" key="57" pan="0" vol="100" type="0"/>
          <note pos="384" len="12" key="52" pan="0" vol="100" type="0"/>
          <note pos="408" len="36" key="62" pan="0" vol="100" type="0"/>
          <note pos="408" len="36" key="57" pan="0" vol="100" type="0"/>
          <note pos="408" len="36" key="52" pan="0" vol="100" type="0"/>
          <note pos="456" len="12" key="60" pan="0" vol="100" type="0"/>
          <note pos="456" len="12" key="57" pan="0" vol="100" type="0"/>
          <note pos="456" len="12" key="52" pan="0" vol="100" type="0"/>
          <note pos="480" len="36" key="62" pan="0" vol="100" type="0"/>
          <note pos="480" len="36" key="57" pan="0" vol="100" type="0"/>
          <note pos="480" len="36" key="52" pan="0" vol="100" type="0"/>
          <note pos="528" len="12" key="60" pan="0" vol="100" type="0"/>
          <note pos="528" len="12" key="57" pan="0" vol="100" type="0"/>
          <note pos="528" len="12" key="52" pan="0" vol="100" type="0"/>
          <note pos="552" len="24" key="62" pan="0" vol="100" type="0"/>
          <note pos="552" len="24" key="57" pan="0" vol="100" type="0"/>
          <note pos="552" len="24" key="52" pan="0" vol="100" type="0"/>
          <note pos="576" len="12" key="64" pan="0" vol="100" type="0"/>
          <note pos="576" len="12" key="60" pan="0" vol="100" type="0"/>
          <note pos="576" len="12" key="57" pan="0" vol="100" type="0"/>
          <note pos="600" len="36" key="64" pan="0" vol="100" type="0"/>
          <note pos="600" len="36" key="60" pan="0" vol="100" type="0"/>
          <note pos="600" len="36" key="57" pan="0" vol="100" type="0"/>
          <note pos="648" len="12" key="62" pan="0" vol="100" type="0"/>
          <note pos="648" len="12" key="60" pan="0" vol="100" type="0"/>
          <note pos="648" len="12" key="57" pan="0" vol="100" type="0"/>
          <note pos="672" len="36" key="64" pan="0" vol="100" type="0"/>
          <note pos="672" len="36" key="60" pan="0" vol="100" type="0"/>
          <note pos="672" len="36" key="57" pan="0" vol="100" type="0"/>
          <note pos="720" len="12" key="62" pan="0" vol="100" type="0"/>
          <note pos="720" len="12" key="60" pan="0" vol="100" type="0"/>
          <note pos="720" len="12" key="57" pan="0" vol="100" type="0"/>
          <note pos="744" len="24" key="64" pan="0" vol="100" type="0"/>
          <note pos="744" len="24" key="60" pan="0" vol="100" type="0"/>
          <note pos="744" len="24" key="57" pan="0" vol="100" type="0"/>
          <note pos="768" len="12" key="58" pan="0" vol="100" type="0"/>
          <note pos="768" len="12" key="53" pan="0" vol="100" type="0"/>
          <note pos="768" len="12" key="50" pan="0" vol="100" type="0"/>
          <note pos="792" len="36" key="58" pan="0" vol="100" type="0"/>
          <note pos="792" len="36" key="53" pan="0" vol="100" type="0"/>
          <note pos="792" len="36" key="50" pan="0" vol="100" type="0"/>
          <note pos="840" len="12" key="57" pan="0" vol="100" type="0"/>
          <note pos="840" len="12" key="53" pan="0" vol="100" type="0"/>
          <note pos="840" len="12" key="50" pan="0" vol="100" type="0"/>
          <note pos="864" len="36" key="58" pan="0" vol="100" type="0"/>
          <note pos="864" len="36" key="53" pan="0" vol="100" type="0"/>
          <note pos="864" len="36" key="50" pan="0" vol="100" type="0"/>
          <note pos="912" len="12" key="57" pan="0" vol="100" type="0"/>
          <note pos="912" len="12" key="53" pan="0" vol="100" type="0"/>
          <note pos="912" len="12" key="50" pan="0" vol="100" type="0"/>
          <note pos="936" len="24" key="58" pan="0" vol="100" type="0"/>
          <note pos="936" len="24" key="53" pan="0" vol="100" type="0"/>
          <note pos="936" len="24" key="50" pan="0" vol="100" type="0"/>
          <note pos="960" len="12" key="64" pan="0" vol="100" type="0"/>
          <note pos="960" len="12" key="60" pan="0" vol="100" type="0"/>
          <note pos="960" len="12" key="55" pan="0" vol="100" type="0"/>
          <note pos="984" len="36" key="64" pan="0" vol="100" type="0"/>
          <note pos="984" len="36" key="60" pan="0" vol="100" type="0"/>
          <note pos="984" len="36" key="55" pan="0" vol="100" type="0"/>
          <note pos="1032" len="12" key="62" pan="0" vol="100" type="0"/>
          <note pos="1032" len="12" key="60" pan="0" vol="100" type="0"/>
          <note pos="1032" len="12" key="55" pan="0" vol="100" type="0"/>
          <note pos="1056" len="36" key="64" pan="0" vol="100" type="0"/>
          <note pos="1056" len="36" key="60" pan="0" vol="100" type="0"/>
          <note pos="1056" len="36" key="55" pan="0" vol="100" type="0"/>
          <note pos="1104" len="12" key="62" pan="0" vol="100" type="0"/>
          <note pos="1104" len="12" key="60" pan="0" vol="100" type="0"/>
          <note pos="1104" len="12" key="55" pan="0" vol="100" type="0"/>
          <note pos="1128" len="24" key="64" pan="0" vol="100" type="0"/>
          <note pos="1128" len="24" key="60" pan="0" vol="100" type="0"/>
          <note pos="1128" len="24" key="55" pan="0" vol="100" type="0"/>
          <note pos="1152" len="12" key="62" pan="0" vol="100" type="0"/>
          <note pos="1152" len="12" key="57" pan="0" vol="100" type="0"/>
          <note pos="1152" len="12" key="53" pan="0" vol="100" type="0"/>
          <note pos="1176" len="36" key="62" pan="0" vol="100" type="0"/>
          <note pos="1176" len="36" key="57" pan="0" vol="100" type="0"/>
          <note pos="1176" len="36" key="53" pan="0" vol="100" type="0"/>
          <note pos="1224" len="12" key="62" pan="0" vol="100" type="0"/>
          <note pos="1224" len="12" key="57" pan="0" vol="100" type="0"/>
          <note pos="1224" len="12" key="53" pan="0" vol="100" type="0"/>
          <note pos="1248" len="36" key="62" pan="0" vol="100" type="0"/>
          <note pos="1248" len="36" key="57" pan="0" vol="100" type="0"/>
          <note pos="1248" len="36" key="53" pan="0" vol="100" type="0"/>
          <note pos="1296" len="12" key="60" pan="0" vol="100" type="0"/>
          <note pos="1296" len="12" key="57" pan="0" vol="100" type="0"/>
          <note pos="1296" len="12" key="52" pan="0" vol="100" type="0"/>
          <note pos="1320" len="24" key="62" pan="0" vol="100" type="0"/>
          <note pos="1320" len="24" key="57" pan="0" vol="100" type="0"/>
          <note pos="1320" len="24" key="53" pan="0" vol="100" type="0"/>
          <note pos="1344" len="12" key="64" pan="0" vol="100" type="0"/>
          <note pos="1344" len="12" key="60" pan="0" vol="100" type="0"/>
          <note pos="1344" len="12" key="55" pan="0" vol="100" type="0"/>
          <note pos="1368" len="36" key="64" pan="0" vol="100" type="0"/>
          <note pos="1368" len="36" key="60" pan="0" vol="100" type="0"/>
          <note pos="1368" len="36" key="55" pan="0" vol="100" type="0"/>
          <note pos="1416" len="12" key="62" pan="0" vol="100" type="0"/>
          <note pos="1416" len="12" key="60" pan="0" vol="100" type="0"/>
          <note pos="1416" len="12" key="55" pan="0" vol="100" type="0"/>
          <note pos="1440" len="36" key="64" pan="0" vol="100" type="0"/>
          <note pos="1440" len="36" key="60" pan="0" vol="100" type="0"/>
          <note pos="1440" len="36" key="55" pan="0" vol="100" type="0"/>
          <note pos="1488" len="12" key="65" pan="0" vol="100" type="0"/>
          <note pos="1488" len="12" key="60" pan="0" vol="100" type="0"/>
          <note pos="1488" len="12" key="55" pan="0" vol="100" type="0"/>
          <note pos="1512" len="24" key="67" pan="0" vol="100" type="0"/>
          <note pos="1512" len="24" key="64" pan="0" vol="100" type="0"/>
          <note pos="1512" len="24" key="60" pan="0" vol="100" type="0"/>
        </midiclip>
        <midiclip muted="0" name="" pos="5376" steps="16" type="1">
          <note pos="0" len="12" key="62" pan="0" vol="100" type="0"/>
          <note pos="0" len="12" key="57" pan="0" vol="100" type="0"/>
          <note pos="0" len="12" key="53" pan="0" vol="100" type="0"/>
          <note pos="24" len="36" key="62" pan="0" vol="100" type="0"/>
          <note pos="24" len="36" key="57" pan="0" vol="100" type="0"/>
          <note pos="24" len="36" key="53" pan="0" vol="100" type="0"/>
          <note pos="72" len="12" key="62" pan="0" vol="100" type="0"/>
          <note pos="72" len="12" key="57" pan="0" vol="100" type="0"/>
          <note pos="72" len="12" key="53" pan="0" vol="100" type="0"/>
          <note pos="96" len="36" key="62" pan="0" vol="100" type="0"/>
          <note pos="96" len="36" key="57" pan="0" vol="100" type="0"/>
          <note pos="96" len="36" key="53" pan="0" vol="100" type="0"/>
          <note pos="144" len="12" key="62" pan="0" vol="100" type="0"/>
          <note pos="144" len="12" key="57" pan="0" vol="100" type="0"/>
          <note pos="144" len="12" key="53" pan="0" vol="100" type="0"/>
          <note pos="168" len="24" key="62" pan="0" vol="100" type="0"/>
          <note pos="168" len="24" key="57" pan="0" vol="100" type="0"/>
          <note pos="168" len="24" key="53" pan="0" vol="100" type="0"/>
          <note pos="192" len="12" key="62" pan="0" vol="100" type="0"/>
          <note pos="192" len="12" key="57" pan="0" vol="100" type="0"/>
          <note pos="192" len="12" key="53" pan="0" vol="100" type="0"/>
          <note pos="216" len="36" key="62" pan="0" vol="100" type="0"/>
          <note pos="216" len="36" key="57" pan="0" vol="100" type="0"/>
          <note pos="216" len="36" key="53" pan="0" vol="100" type="0"/>
          <note pos="264" len="12" key="62" pan="0" vol="100" type="0"/>
          <note pos="264" len="12" key="57" pan="0" vol="100" type="0"/>
          <note pos="264" len="12" key="53" pan="0" vol="100" type="0"/>
          <note pos="288" len="36" key="62" pan="0" vol="100" type="0"/>
          <note pos="288" len="36" key="57" pan="0" vol="100" type="0"/>
          <note pos="288" len="36" key="53" pan="0" vol="100" type="0"/>
          <note pos="336" len="12" key="62" pan="0" vol="100" type="0"/>
          <note pos="336" len="12" key="57" pan="0" vol="100" type="0"/>
          <note pos="336" len="12" key="53" pan="0" vol="100" type="0"/>
          <note pos="360" len="24" key="62" pan="0" vol="100" type="0"/>
          <note pos="360" len="24" key="57" pan="0" vol="100" type="0"/>
          <note pos="360" len="24" key="53" pan="0" vol="100" type="0"/>
          <note pos="384" len="12" key="62" pan="0" vol="100" type="0"/>
          <note pos="384" len="12" key="57" pan="0" vol="100" type="0"/>
          <note pos="384" len="12" key="52" pan="0" vol="100" type="0"/>
          <note pos="408" len="36" key="62" pan="0" vol="100" type="0"/>
          <note pos="408" len="36" key="57" pan="0" vol="100" type="0"/>
          <note pos="408" len="36" key="52" pan="0" vol="100" type="0"/>
          <note pos="456" len="12" key="62" pan="0" vol="100" type="0"/>
          <note pos="456" len="12" key="57" pan="0" vol="100" type="0"/>
          <note pos="456" len="12" key="52" pan="0" vol="100" type="0"/>
          <note pos="480" len="36" key="62" pan="0" vol="100" type="0"/>
          <note pos="480" len="36" key="57" pan="0" vol="100" type="0"/>
          <note pos="480" len="36" key="52" pan="0" vol="100" type="0"/>
          <note pos="528" len="12" key="62" pan="0" vol="100" type="0"/>
          <note pos="528" len="12" key="57" pan="0" vol="100" type="0"/>
          <note pos="528" len="12" key="52" pan="0" vol="100" type="0"/>
          <note pos="552" len="24" key="62" pan="0" vol="100" type="0"/>
          <note pos="552" len="24" key="57" pan="0" vol="100" type="0"/>
          <note pos="552" len="24" key="52" pan="0" vol="100" type="0"/>
          <note pos="576" len="12" key="60" pan="0" vol="100" type="0"/>
          <note pos="576" len="12" key="57" pan="0" vol="100" type="0"/>
          <note pos="576" len="12" key="52" pan="0" vol="100" type="0"/>
          <note pos="600" len="36" key="60" pan="0" vol="100" type="0"/>
          <note pos="600" len="36" key="57" pan="0" vol="100" type="0"/>
          <note pos="600" len="36" key="52" pan="0" vol="100" type="0"/>
          <note pos="648" len="12" key="60" pan="0" vol="100" type="0"/>
          <note pos="648" len="12" key="57" pan="0" vol="100" type="0"/>
          <note pos="648" len="12" key="52" pan="0" vol="100" type="0"/>
          <note pos="672" len="36" key="60" pan="0" vol="100" type="0"/>
          <note pos="672" len="36" key="57" pan="0" vol="100" type="0"/>
          <note pos="672" len="36" key="52" pan="0" vol="100" type="0"/>
          <note pos="720" len="12" key="60" pan="0" vol="100" type="0"/>
          <note pos="720" len="12" key="57" pan="0" vol="100" type="0"/>
          <note pos="720" len="12" key="52" pan="0" vol="100" type="0"/>
          <note pos="744" len="24" key="60" pan="0" vol="100" type="0"/>
          <note pos="744" len="24" key="57" pan="0" vol="100" type="0"/>
          <note pos="744" len="24" key="52" pan="0" vol="100" type="0"/>
          <note pos="768" len="12" key="58" pan="0" vol="100" type="0"/>
          <note pos="768" len="12" key="53" pan="0" vol="100" type="0"/>
          <note pos="768" len="12" key="50" pan="0" vol="100" type="0"/>
          <note pos="792" len="36" key="58" pan="0" vol="100" type="0"/>
          <note pos="792" len="36" key="53" pan="0" vol="100" type="0"/>
          <note pos="792" len="36" key="50" pan="0" vol="100" type="0"/>
          <note pos="840" len="12" key="58" pan="0" vol="100" type="0"/>
          <note pos="840" len="12" key="53" pan="0" vol="100" type="0"/>
          <note pos="840" len="12" key="50" pan="0" vol="100" type="0"/>
          <note pos="864" len="36" key="58" pan="0" vol="100" type="0"/>
          <note pos="864" len="36" key="53" pan="0" vol="100" type="0"/>
          <note pos="864" len="36" key="50" pan="0" vol="100" type="0"/>
          <note pos="912" len="12" key="58" pan="0" vol="100" type="0"/>
          <note pos="912" len="12" key="53" pan="0" vol="100" type="0"/>
          <note pos="912" len="12" key="50" pan="0" vol="100" type="0"/>
          <note pos="936" len="24" key="58" pan="0" vol="100" type="0"/>
          <note pos="936" len="24" key="53" pan="0" vol="100" type="0"/>
          <note pos="936" len="24" key="50" pan="0" vol="100" type="0"/>
          <note pos="960" len="12" key="60" pan="0" vol="100" type="0"/>
          <note pos="960" len="12" key="55" pan="0" vol="100" type="0"/>
          <note pos="960" len="12" key="52" pan="0" vol="100" type="0"/>
          <note pos="984" len="36" key="60" pan="0" vol="100" type="0"/>
          <note pos="984" len="36" key="55" pan="0" vol="100" type="0"/>
          <note pos="984" len="36" key="52" pan="0" vol="100" type="0"/>
          <note pos="1032" len="12" key="60" pan="0" vol="100" type="0"/>
          <note pos="1032" len="12" key="55" pan="0" vol="100" type="0"/>
          <note pos="1032" len="12" key="52" pan="0" vol="100" type="0"/>
          <note pos="1056" len="36" key="60" pan="0" vol="100" type="0"/>
          <note pos="1056" len="36" key="55" pan="0" vol="100" type="0"/>
          <note pos="1056" len="36" key="52" pan="0" vol="100" type="0"/>
          <note pos="1104" len="12" key="60" pan="0" vol="100" type="0"/>
          <note pos="1104" len="12" key="55" pan="0" vol="100" type="0"/>
          <note pos="1104" len="12" key="52" pan="0" vol="100" type="0"/>
          <note pos="1128" len="24" key="60" pan="0" vol="100" type="0"/>
          <note pos="1128" len="24" key="55" pan="0" vol="100" type="0"/>
          <note pos="1128" len="24" key="52" pan="0" vol="100" type="0"/>
          <note pos="1152" len="12" key="62" pan="0" vol="100" type="0"/>
          <note pos="1152" len="12" key="57" pan="0" vol="100" type="0"/>
          <note pos="1152" len="12" key="53" pan="0" vol="100" type="0"/>
          <note pos="1176" len="36" key="62" pan="0" vol="100" type="0"/>
          <note pos="1176" len="36" key="57" pan="0" vol="100" type="0"/>
          <note pos="1176" len="36" key="53" pan="0" vol="100" type="0"/>
          <note pos="1224" len="12" key="62" pan="0" vol="100" type="0"/>
          <note pos="1224" len="12" key="57" pan="0" vol="100" type="0"/>
          <note pos="1224" len="12" key="53" pan="0" vol="100" type="0"/>
          <note pos="1248" len="36" key="62" pan="0" vol="100" type="0"/>
          <note pos="1248" len="36" key="57" pan="0" vol="100" type="0"/>
          <note pos="1248" len="36" key="53" pan="0" vol="100" type="0"/>
          <note pos="1296" len="12" key="62" pan="0" vol="100" type="0"/>
          <note pos="1296" len="12" key="57" pan="0" vol="100" type="0"/>
          <note pos="1296" len="12" key="53" pan="0" vol="100" type="0"/>
          <note pos="1320" len="24" key="62" pan="0" vol="100" type="0"/>
          <note pos="1320" len="24" key="57" pan="0" vol="100" type="0"/>
          <note pos="1320" len="24" key="53" pan="0" vol="100" type="0"/>
          <note pos="1344" len="12" key="60" pan="0" vol="100" type="0"/>
          <note pos="1344" len="12" key="55" pan="0" vol="100" type="0"/>
          <note pos="1344" len="12" key="52" pan="0" vol="100" type="0"/>
          <note pos="1368" len="36" key="60" pan="0" vol="100" type="0"/>
          <note pos="1368" len="36" key="55" pan="0" vol="100" type="0"/>
          <note pos="1368" len="36" key="52" pan="0" vol="100" type="0"/>
          <note pos="1416" len="12" key="60" pan="0" vol="100" type="0"/>
          <note pos="1416" len="12" key="55" pan="0" vol="100" type="0"/>
          <note pos="1416" len="12" key="52" pan="0" vol="100" type="0"/>
          <note pos="1440" len="36" key="60" pan="0" vol="100" type="0"/>
          <note pos="1440" len="36" key="55" pan="0" vol="100" type="0"/>
          <note pos="1440" len="36" key="52" pan="0" vol="100" type="0"/>
          <note pos="1488" len="12" key="62" pan="0" vol="100" type="0"/>
          <note pos="1488" len="12" key="57" pan="0" vol="100" type="0"/>
          <note pos="1488" len="12" key="53" pan="0" vol="100" type="0"/>
          <note pos="1512" len="24" key="64" pan="0" vol="100" type="0"/>
          <note pos="1512" len="24" key="60" pan="0" vol="100" type="0"/>
          <note pos="1512" len="24" key="57" pan="0" vol="100" type="0"/>
        </midiclip>
      </track>
      <track muted="0" mutedBeforeSolo="0" name="Woodwinds>Volume" solo="0" type="5">
        <automationtrack/>
        <automationclip tens="1" pos="0" name="Windwoods>Oboe>Volume" len="192" mute="0" prog="0">
          <time lockedTan="0" pos="0" outValue="100" value="100" inTan="0" outTan="0"/>
          <object id="22137"/>
          <object id="16200"/>
        </automationclip>
        <automationclip tens="1" pos="4800" name="Windwoods>Oboe>Volume" len="384" mute="0" prog="1">
          <time lockedTan="0" pos="0" outValue="100" value="100" inTan="0" outTan="-0.29761904"/>
          <time lockedTan="0" pos="336" outValue="0" value="0" inTan="0" outTan="0"/>
          <object id="22137"/>
          <object id="16200"/>
        </automationclip>
        <automationclip tens="1" pos="8448" name="Windwoods>Oboe>Volume" len="192" mute="0" prog="0">
          <time lockedTan="0" pos="0" outValue="100" value="100" inTan="0" outTan="0"/>
          <object id="22137"/>
          <object id="16200"/>
        </automationclip>
        <automationclip tens="1" pos="11328" name="Windwoods>Oboe>Volume" len="384" mute="0" prog="1">
          <time lockedTan="0" pos="0" outValue="100" value="100" inTan="0" outTan="-0.29761904"/>
          <time lockedTan="0" pos="336" outValue="0" value="0" inTan="0" outTan="0"/>
          <object id="22137"/>
          <object id="16200"/>
        </automationclip>
      </track>
      <track muted="0" mutedBeforeSolo="0" name="Windwoods>Oboe" solo="0" type="0">
        <instrumenttrack usemasterpitch="1" scale="0" range_import="1" firstkey="0" lastkey="127" keymap="0" enablecc="0" pan="0" enabled="0" pitch="0" pitchrange="1" basenote="69" mixch="3">
          <vol id="22137" value="50.297619" scale_type="linear"/>
          <midicontrollers cc10="0" cc92="0" cc121="0" cc11="0" cc35="0" cc80="0" cc4="0" cc57="0" cc34="0" cc50="0" cc12="0" cc70="0" cc117="0" cc75="0" cc124="0" cc3="0" cc0="0" cc89="0" cc21="0" cc56="0" cc44="0" cc78="0" cc36="0" cc38="0" cc88="0" cc48="0" cc27="0" cc67="0" cc82="0" cc42="0" cc99="0" cc112="0" cc45="0" cc39="0" cc127="0" cc73="0" cc58="0" cc13="0" cc61="0" cc116="0" cc8="0" cc63="0" cc111="0" cc60="0" cc72="0" cc97="0" cc114="0" cc115="0" cc76="0" cc69="0" cc20="0" cc106="0" cc79="0" cc24="0" cc81="0" cc19="0" cc87="0" cc107="0" cc46="0" cc47="0" cc83="0" cc93="0" cc102="0" cc65="0" cc1="0" cc18="0" cc85="0" cc94="0" cc64="0" cc66="0" cc16="0" cc84="0" cc98="0" cc110="0" cc9="0" cc126="0" cc2="0" cc29="0" cc25="0" cc43="0" cc59="0" cc62="0" cc53="0" cc105="0" cc40="0" cc54="0" cc120="0" cc90="0" cc86="0" cc100="0" cc49="0" cc22="0" cc41="0" cc108="0" cc77="0" cc95="0" cc109="0" cc15="0" cc104="0" cc119="0" cc125="0" cc68="0" cc122="0" cc17="0" cc74="0" cc28="0" cc14="0" cc26="0" cc32="0" cc5="0" cc123="0" cc101="0" cc33="0" cc51="0" cc37="0" cc96="0" cc103="0" cc30="0" cc71="0" cc6="0" cc52="0" cc113="0" cc31="0" cc91="0" cc23="0" cc7="0" cc55="0" cc118="0"/>
          <instrument name="sf2player">
            <sf2player reverbRoomSize="0.2" chorusNum="3" reverbOn="0" gain="0.95999998" reverbDamping="0" chorusSpeed="0.30000001" chorusOn="0" src="usersoundfont:Touhou.sf2" chorusDepth="8" bank="0" reverbLevel="0.89999998" patch="68" reverbWidth="0.5" chorusLevel="2">
              <key/>
            </sf2player>
          </instrument>
          <eldata ftype="0" fcut="14000" fres="0.5" fwet="0">
            <elvol ctlenvamt="0" pdel="0" lspd_numerator="4" rel="0.1" att="0" lpdel="0" dec="0.5" lspd_syncmode="0" lamt="0" lspd="0.1" sustain="0.5" userwavefile="" latt="0" hold="0.5" lshp="0" lspd_denominator="4" amt="0" x100="0"/>
            <elcut ctlenvamt="0" pdel="0" lspd_numerator="4" rel="0.1" att="0" lpdel="0" dec="0.5" lspd_syncmode="0" lamt="0" lspd="0.1" sustain="0.5" userwavefile="" latt="0" hold="0.5" lshp="0" lspd_denominator="4" amt="0" x100="0"/>
            <elres ctlenvamt="0" pdel="0" lspd_numerator="4" rel="0.1" att="0" lpdel="0" dec="0.5" lspd_syncmode="0" lamt="0" lspd="0.1" sustain="0.5" userwavefile="" latt="0" hold="0.5" lshp="0" lspd_denominator="4" amt="0" x100="0"/>
          </eldata>
          <chordcreator chordrange="1" chord-enabled="0" chord="0"/>
          <arpeggiator arptime_syncmode="0" arprepeats="1" arp-enabled="0" arpdir="0" arptime_denominator="4" arp="0" arpcycle="0" arprange="1" arpmiss="0" arptime_numerator="4" arptime="200" arpskip="0" arpmode="0" arpgate="100"/>
          <midiport basevelocity="63" readable="1" fixedoutputnote="-1" inputchannel="0" inputcontroller="0" fixedinputvelocity="-1" inports="" outputprogram="1" writable="0" outputchannel="1" fixedoutputvelocity="-1" outputcontroller="0"/>
          <fxchain numofeffects="0" enabled="0"/>
        </instrumenttrack>
        <midiclip muted="0" name="" pos="3456" steps="16" type="1">
          <note pos="0" len="12" key="82" pan="0" vol="100" type="0"/>
          <note pos="24" len="36" key="70" pan="0" vol="100" type="0"/>
          <note pos="72" len="48" key="72" pan="0" vol="100" type="0">
            <automationclip>
              <detuning tens="1" pos="0" name="Note detuning" len="192" mute="0" prog="2">
                <time lockedTan="0" pos="0" outValue="0" value="0" inTan="0" outTan="0"/>
                <time lockedTan="0" pos="12" outValue="0" value="0" inTan="0.11111111" outTan="0.11111111"/>
                <time lockedTan="0" pos="18" outValue="2" value="2" inTan="0" outTan="0"/>
                <object id="29744"/>
              </detuning>
            </automationclip>
          </note>
          <note pos="120" len="72" key="77" pan="0" vol="100" type="0">
            <automationclip>
              <detuning tens="1" pos="0" name="Note detuning" len="192" mute="0" prog="1">
                <time lockedTan="0" pos="0" outValue="0" value="0" inTan="0" outTan="0"/>
                <time lockedTan="0" pos="60" outValue="0" value="0" inTan="-0.0069444445" outTan="-0.0069444445"/>
                <time lockedTan="0" pos="72" outValue="-0.5" value="-0.5" inTan="0" outTan="0"/>
                <object id="29428"/>
              </detuning>
            </automationclip>
          </note>
          <note pos="192" len="12" key="73" pan="0" vol="100" type="0"/>
          <note pos="216" len="36" key="73" pan="0" vol="100" type="0"/>
          <note pos="264" len="48" key="73" pan="0" vol="100" type="0">
            <automationclip>
              <detuning tens="1" pos="0" name="Note detuning" len="192" mute="0" prog="2">
                <time lockedTan="0" pos="0" outValue="0" value="0" inTan="0" outTan="0"/>
                <time lockedTan="0" pos="12" outValue="0" value="0" inTan="0.055555556" outTan="0.055555556"/>
                <time lockedTan="0" pos="18" outValue="1" value="1" inTan="0" outTan="0"/>
                <object id="7764"/>
              </detuning>
            </automationclip>
          </note>
          <note pos="312" len="72" key="76" pan="0" vol="100" type="0">
            <automationclip>
              <detuning tens="1" pos="0" name="Note detuning" len="192" mute="0" prog="1">
                <time lockedTan="0" pos="0" outValue="0" value="0" inTan="0" outTan="0"/>
                <time lockedTan="0" pos="60" outValue="0" value="0" inTan="-0.0069444445" outTan="-0.0069444445"/>
                <time lockedTan="0" pos="72" outValue="-0.5" value="-0.5" inTan="0" outTan="0"/>
                <object id="23535"/>
              </detuning>
            </automationclip>
          </note>
          <note pos="384" len="12" key="81" pan="0" vol="100" type="0"/>
          <note pos="408" len="36" key="82" pan="0" vol="100" type="0"/>
          <note pos="456" len="48" key="82" pan="0" vol="100" type="0">
            <automationclip>
              <detuning tens="1" pos="0" name="Note detuning" len="192" mute="0" prog="2">
                <time lockedTan="0" pos="0" outValue="0" value="0" inTan="0" outTan="-0.083333336"/>
                <time lockedTan="0" pos="12" outValue="-1" value="-1" inTan="0" outTan="0"/>
                <object id="19659"/>
              </detuning>
            </automationclip>
          </note>
          <note pos="504" len="48" key="77" pan="0" vol="100" type="0"/>
          <note pos="552" len="36" key="77" pan="0" vol="100" type="0">
            <automationclip>
              <detuning tens="1" pos="0" name="Note detuning" len="192" mute="0" prog="2">
                <time lockedTan="0" pos="0" outValue="0" value="0" inTan="0" outTan="0"/>
                <time lockedTan="0" pos="12" outValue="0" value="0" inTan="0.11111111" outTan="0.11111111"/>
                <time lockedTan="0" pos="18" outValue="2" value="2" inTan="0" outTan="0"/>
                <object id="18049"/>
              </detuning>
            </automationclip>
          </note>
          <note pos="588" len="12" key="77" pan="0" vol="100" type="0"/>
          <note pos="600" len="84" key="74" pan="0" vol="100" type="0"/>
          <note pos="720" len="24" key="82" pan="0" vol="100" type="0"/>
          <note pos="744" len="24" key="81" pan="0" vol="100" type="0"/>
          <note pos="768" len="60" key="79" pan="0" vol="100" type="0"/>
          <note pos="828" len="6" key="81" pan="0" vol="100" type="0"/>
          <note pos="834" len="6" key="79" pan="0" vol="100" type="0"/>
          <note pos="840" len="48" key="77" pan="0" vol="100" type="0"/>
          <note pos="888" len="48" key="74" pan="0" vol="100" type="0"/>
          <note pos="960" len="72" key="74" pan="0" vol="100" type="0">
            <automationclip>
              <detuning tens="1" pos="0" name="Note detuning" len="192" mute="0" prog="2">
                <time lockedTan="0" pos="0" outValue="0" value="0" inTan="0" outTan="0"/>
                <time lockedTan="0" pos="6" outValue="0" value="0" inTan="0.16666667" outTan="0.16666667"/>
                <time lockedTan="0" pos="12" outValue="2" value="2" inTan="0" outTan="0"/>
                <object id="10353"/>
              </detuning>
            </automationclip>
          </note>
          <note pos="1032" len="72" key="77" pan="0" vol="100" type="0"/>
          <note pos="1104" len="24" key="79" pan="0" vol="100" type="0"/>
          <note pos="1128" len="24" key="74" pan="0" vol="100" type="0"/>
          <note pos="1152" len="24" key="81" pan="0" vol="100" type="0"/>
          <note pos="1176" len="48" key="77" pan="0" vol="100" type="0"/>
          <note pos="1224" len="48" key="77" pan="0" vol="100" type="0">
            <automationclip>
              <detuning tens="1" pos="0" name="Note detuning" len="192" mute="0" prog="2">
                <time lockedTan="0" pos="0" outValue="0" value="0" inTan="0" outTan="0"/>
                <time lockedTan="0" pos="6" outValue="0" value="0" inTan="0.16666667" outTan="0.16666667"/>
                <time lockedTan="0" pos="12" outValue="2" value="2" inTan="0" outTan="0"/>
                <object id="17091"/>
              </detuning>
            </automationclip>
          </note>
          <note pos="1272" len="24" key="81" pan="0" vol="100" type="0"/>
          <note pos="1320" len="48" key="79" pan="0" vol="100" type="0"/>
          <note pos="1368" len="24" key="77" pan="0" vol="100" type="0"/>
          <note pos="1392" len="336" key="74" pan="0" vol="100" type="0"/>
        </midiclip>
        <midiclip muted="0" name="" pos="1920" steps="16" type="1">
          <note pos="0" len="12" key="82" pan="0" vol="100" type="0"/>
          <note pos="24" len="36" key="70" pan="0" vol="100" type="0"/>
          <note pos="72" len="48" key="72" pan="0" vol="100" type="0">
            <automationclip>
              <detuning tens="1" pos="0" name="Note detuning" len="192" mute="0" prog="2">
                <time lockedTan="0" pos="0" outValue="0" value="0" inTan="0" outTan="0"/>
                <time lockedTan="0" pos="12" outValue="0" value="0" inTan="0.11111111" outTan="0.11111111"/>
                <time lockedTan="0" pos="18" outValue="2" value="2" inTan="0" outTan="0"/>
                <object id="25682"/>
              </detuning>
            </automationclip>
          </note>
          <note pos="120" len="72" key="77" pan="0" vol="100" type="0">
            <automationclip>
              <detuning tens="1" pos="0" name="Note detuning" len="192" mute="0" prog="1">
                <time lockedTan="0" pos="0" outValue="0" value="0" inTan="0" outTan="0"/>
                <time lockedTan="0" pos="60" outValue="0" value="0" inTan="-0.0069444445" outTan="-0.0069444445"/>
                <time lockedTan="0" pos="72" outValue="-0.5" value="-0.5" inTan="0" outTan="0"/>
                <object id="28684"/>
              </detuning>
            </automationclip>
          </note>
          <note pos="192" len="12" key="73" pan="0" vol="100" type="0"/>
          <note pos="216" len="36" key="73" pan="0" vol="100" type="0"/>
          <note pos="264" len="48" key="73" pan="0" vol="100" type="0">
            <automationclip>
              <detuning tens="1" pos="0" name="Note detuning" len="192" mute="0" prog="2">
                <time lockedTan="0" pos="0" outValue="0" value="0" inTan="0" outTan="0"/>
                <time lockedTan="0" pos="12" outValue="0" value="0" inTan="0.055555556" outTan="0.055555556"/>
                <time lockedTan="0" pos="18" outValue="1" value="1" inTan="0" outTan="0"/>
                <object id="5241"/>
              </detuning>
            </automationclip>
          </note>
          <note pos="312" len="72" key="76" pan="0" vol="100" type="0">
            <automationclip>
              <detuning tens="1" pos="0" name="Note detuning" len="192" mute="0" prog="1">
                <time lockedTan="0" pos="0" outValue="0" value="0" inTan="0" outTan="0"/>
                <time lockedTan="0" pos="60" outValue="0" value="0" inTan="-0.0069444445" outTan="-0.0069444445"/>
                <time lockedTan="0" pos="72" outValue="-0.5" value="-0.5" inTan="0" outTan="0"/>
                <object id="10840"/>
              </detuning>
            </automationclip>
          </note>
          <note pos="384" len="12" key="81" pan="0" vol="100" type="0"/>
          <note pos="408" len="36" key="69" pan="0" vol="100" type="0"/>
          <note pos="456" len="48" key="71" pan="0" vol="100" type="0">
            <automationclip>
              <detuning tens="1" pos="0" name="Note detuning" len="192" mute="0" prog="2">
                <time lockedTan="0" pos="0" outValue="0" value="0" inTan="0" outTan="0"/>
                <time lockedTan="0" pos="12" outValue="0" value="0" inTan="0.055555556" outTan="0.055555556"/>
                <time lockedTan="0" pos="18" outValue="1" value="1" inTan="0" outTan="0"/>
                <object id="29141"/>
              </detuning>
            </automationclip>
          </note>
          <note pos="504" len="48" key="74" pan="0" vol="100" type="0"/>
          <note pos="552" len="120" key="71" pan="0" vol="100" type="0">
            <automationclip>
              <detuning tens="1" pos="0" name="Note detuning" len="192" mute="0" prog="2">
                <time lockedTan="0" pos="0" outValue="0" value="0" inTan="0" outTan="0"/>
                <time lockedTan="0" pos="6" outValue="0" value="0" inTan="-0.041666668" outTan="-0.041666668"/>
                <time lockedTan="0" pos="12" outValue="-0.5" value="-0.5" inTan="-0.055555556" outTan="-0.055555556"/>
                <time lockedTan="0" pos="15" outValue="-0.5" value="-0.5" inTan="0.083333336" outTan="0.083333336"/>
                <time lockedTan="0" pos="18" outValue="0" value="0" inTan="0" outTan="0"/>
                <object id="29225"/>
              </detuning>
            </automationclip>
          </note>
          <note pos="720" len="24" key="67" pan="0" vol="100" type="0"/>
          <note pos="744" len="24" key="69" pan="0" vol="100" type="0"/>
          <note pos="768" len="72" key="70" pan="0" vol="100" type="0"/>
          <note pos="840" len="48" key="72" pan="0" vol="100" type="0">
            <automationclip>
              <detuning tens="1" pos="0" name="Note detuning" len="192" mute="0" prog="2">
                <time lockedTan="0" pos="0" outValue="0" value="0" inTan="0" outTan="0"/>
                <time lockedTan="0" pos="12" outValue="0" value="0" inTan="0.11111111" outTan="0.11111111"/>
                <time lockedTan="0" pos="18" outValue="2" value="2" inTan="0" outTan="0"/>
                <object id="2147"/>
              </detuning>
            </automationclip>
          </note>
          <note pos="888" len="48" key="70" pan="0" vol="100" type="0"/>
          <note pos="936" len="12" key="67" pan="0" vol="100" type="0"/>
          <note pos="948" len="12" key="69" pan="0" vol="100" type="0"/>
          <note pos="960" len="72" key="73" pan="0" vol="100" type="0">
            <automationclip>
              <detuning tens="1" pos="0" name="Note detuning" len="192" mute="0" prog="1">
                <time lockedTan="0" pos="0" outValue="0" value="0" inTan="0" outTan="0"/>
                <time lockedTan="0" pos="60" outValue="0" value="0" inTan="-0.0069444445" outTan="-0.0069444445"/>
                <time lockedTan="0" pos="72" outValue="-0.5" value="-0.5" inTan="0" outTan="0"/>
                <object id="15723"/>
              </detuning>
            </automationclip>
          </note>
          <note pos="1032" len="72" key="69" pan="0" vol="100" type="0">
            <automationclip>
              <detuning tens="1" pos="0" name="Note detuning" len="192" mute="0" prog="2">
                <time lockedTan="0" pos="0" outValue="0" value="0" inTan="0" outTan="0"/>
                <time lockedTan="0" pos="6" outValue="0" value="0" inTan="-0.041666668" outTan="-0.041666668"/>
                <time lockedTan="0" pos="12" outValue="-0.5" value="-0.5" inTan="-0.055555556" outTan="-0.055555556"/>
                <time lockedTan="0" pos="15" outValue="-0.5" value="-0.5" inTan="0.083333336" outTan="0.083333336"/>
                <time lockedTan="0" pos="18" outValue="0" value="0" inTan="0" outTan="0"/>
                <object id="32569"/>
              </detuning>
            </automationclip>
          </note>
          <note pos="1104" len="24" key="67" pan="0" vol="100" type="0"/>
          <note pos="1128" len="24" key="65" pan="0" vol="100" type="0"/>
          <note pos="1152" len="24" key="69" pan="0" vol="100" type="0"/>
          <note pos="1176" len="48" key="62" pan="0" vol="100" type="0"/>
          <note pos="1224" len="48" key="72" pan="0" vol="100" type="0">
            <automationclip>
              <detuning tens="1" pos="0" name="Note detuning" len="192" mute="0" prog="2">
                <time lockedTan="0" pos="0" outValue="0" value="0" inTan="0" outTan="0"/>
                <time lockedTan="0" pos="12" outValue="0" value="0" inTan="0.11111111" outTan="0.11111111"/>
                <time lockedTan="0" pos="18" outValue="2" value="2" inTan="0" outTan="0"/>
                <object id="20527"/>
              </detuning>
            </automationclip>
          </note>
          <note pos="1272" len="48" key="72" pan="0" vol="100" type="0"/>
          <note pos="1320" len="48" key="71" pan="0" vol="100" type="0"/>
          <note pos="1368" len="24" key="69" pan="0" vol="100" type="0"/>
          <note pos="1392" len="96" key="67" pan="0" vol="100" type="0"/>
        </midiclip>
        <midiclip muted="0" name="" pos="1152" steps="16" type="1">
          <note pos="0" len="162" key="74" pan="0" vol="100" type="0"/>
          <note pos="162" len="6" key="69" pan="0" vol="100" type="0"/>
          <note pos="168" len="24" key="79" pan="0" vol="100" type="0"/>
          <note pos="276" len="6" key="72" pan="0" vol="100" type="0"/>
          <note pos="282" len="6" key="74" pan="0" vol="100" type="0"/>
          <note pos="288" len="24" key="76" pan="0" vol="100" type="0"/>
          <note pos="312" len="24" key="74" pan="0" vol="100" type="0"/>
          <note pos="336" len="18" key="72" pan="0" vol="100" type="0"/>
          <note pos="354" len="6" key="69" pan="0" vol="100" type="0"/>
          <note pos="360" len="186" key="74" pan="0" vol="100" type="0"/>
          <note pos="546" len="6" key="69" pan="0" vol="100" type="0"/>
          <note pos="552" len="24" key="72" pan="0" vol="100" type="0"/>
        </midiclip>
        <midiclip muted="0" name="" pos="9984" steps="16" type="1">
          <note pos="0" len="12" key="82" pan="0" vol="100" type="0"/>
          <note pos="24" len="36" key="70" pan="0" vol="100" type="0"/>
          <note pos="72" len="48" key="72" pan="0" vol="100" type="0">
            <automationclip>
              <detuning tens="1" pos="0" name="Note detuning" len="192" mute="0" prog="2">
                <time lockedTan="0" pos="0" outValue="0" value="0" inTan="0" outTan="0"/>
                <time lockedTan="0" pos="12" outValue="0" value="0" inTan="0.11111111" outTan="0.11111111"/>
                <time lockedTan="0" pos="18" outValue="2" value="2" inTan="0" outTan="0"/>
                <object id="24712"/>
              </detuning>
            </automationclip>
          </note>
          <note pos="120" len="72" key="77" pan="0" vol="100" type="0">
            <automationclip>
              <detuning tens="1" pos="0" name="Note detuning" len="192" mute="0" prog="1">
                <time lockedTan="0" pos="0" outValue="0" value="0" inTan="0" outTan="0"/>
                <time lockedTan="0" pos="60" outValue="0" value="0" inTan="-0.0069444445" outTan="-0.0069444445"/>
                <time lockedTan="0" pos="72" outValue="-0.5" value="-0.5" inTan="0" outTan="0"/>
                <object id="24625"/>
              </detuning>
            </automationclip>
          </note>
          <note pos="192" len="12" key="73" pan="0" vol="100" type="0"/>
          <note pos="216" len="36" key="73" pan="0" vol="100" type="0"/>
          <note pos="264" len="48" key="73" pan="0" vol="100" type="0">
            <automationclip>
              <detuning tens="1" pos="0" name="Note detuning" len="192" mute="0" prog="2">
                <time lockedTan="0" pos="0" outValue="0" value="0" inTan="0" outTan="0"/>
                <time lockedTan="0" pos="12" outValue="0" value="0" inTan="0.055555556" outTan="0.055555556"/>
                <time lockedTan="0" pos="18" outValue="1" value="1" inTan="0" outTan="0"/>
                <object id="21791"/>
              </detuning>
            </automationclip>
          </note>
          <note pos="312" len="72" key="76" pan="0" vol="100" type="0">
            <automationclip>
              <detuning tens="1" pos="0" name="Note detuning" len="192" mute="0" prog="1">
                <time lockedTan="0" pos="0" outValue="0" value="0" inTan="0" outTan="0"/>
                <time lockedTan="0" pos="60" outValue="0" value="0" inTan="-0.0069444445" outTan="-0.0069444445"/>
                <time lockedTan="0" pos="72" outValue="-0.5" value="-0.5" inTan="0" outTan="0"/>
                <object id="20562"/>
              </detuning>
            </automationclip>
          </note>
          <note pos="384" len="12" key="81" pan="0" vol="100" type="0"/>
          <note pos="408" len="36" key="82" pan="0" vol="100" type="0"/>
          <note pos="456" len="48" key="82" pan="0" vol="100" type="0">
            <automationclip>
              <detuning tens="1" pos="0" name="Note detuning" len="192" mute="0" prog="2">
                <time lockedTan="0" pos="0" outValue="0" value="0" inTan="0" outTan="-0.083333336"/>
                <time lockedTan="0" pos="12" outValue="-1" value="-1" inTan="0" outTan="0"/>
                <object id="19729"/>
              </detuning>
            </automationclip>
          </note>
          <note pos="504" len="48" key="77" pan="0" vol="100" type="0"/>
          <note pos="552" len="36" key="77" pan="0" vol="100" type="0">
            <automationclip>
              <detuning tens="1" pos="0" name="Note detuning" len="192" mute="0" prog="2">
                <time lockedTan="0" pos="0" outValue="0" value="0" inTan="0" outTan="0"/>
                <time lockedTan="0" pos="12" outValue="0" value="0" inTan="0.11111111" outTan="0.11111111"/>
                <time lockedTan="0" pos="18" outValue="2" value="2" inTan="0" outTan="0"/>
                <object id="643"/>
              </detuning>
            </automationclip>
          </note>
          <note pos="588" len="12" key="77" pan="0" vol="100" type="0"/>
          <note pos="600" len="84" key="74" pan="0" vol="100" type="0"/>
          <note pos="720" len="24" key="82" pan="0" vol="100" type="0"/>
          <note pos="744" len="24" key="81" pan="0" vol="100" type="0"/>
          <note pos="768" len="60" key="79" pan="0" vol="100" type="0"/>
          <note pos="828" len="6" key="81" pan="0" vol="100" type="0"/>
          <note pos="834" len="6" key="79" pan="0" vol="100" type="0"/>
          <note pos="840" len="48" key="77" pan="0" vol="100" type="0"/>
          <note pos="888" len="48" key="74" pan="0" vol="100" type="0"/>
          <note pos="960" len="72" key="74" pan="0" vol="100" type="0">
            <automationclip>
              <detuning tens="1" pos="0" name="Note detuning" len="192" mute="0" prog="2">
                <time lockedTan="0" pos="0" outValue="0" value="0" inTan="0" outTan="0"/>
                <time lockedTan="0" pos="6" outValue="0" value="0" inTan="0.16666667" outTan="0.16666667"/>
                <time lockedTan="0" pos="12" outValue="2" value="2" inTan="0" outTan="0"/>
                <object id="22960"/>
              </detuning>
            </automationclip>
          </note>
          <note pos="1032" len="72" key="77" pan="0" vol="100" type="0"/>
          <note pos="1104" len="24" key="79" pan="0" vol="100" type="0"/>
          <note pos="1128" len="24" key="74" pan="0" vol="100" type="0"/>
          <note pos="1152" len="24" key="81" pan="0" vol="100" type="0"/>
          <note pos="1176" len="48" key="77" pan="0" vol="100" type="0"/>
          <note pos="1224" len="48" key="77" pan="0" vol="100" type="0">
            <automationclip>
              <detuning tens="1" pos="0" name="Note detuning" len="192" mute="0" prog="2">
                <time lockedTan="0" pos="0" outValue="0" value="0" inTan="0" outTan="0"/>
                <time lockedTan="0" pos="6" outValue="0" value="0" inTan="0.16666667" outTan="0.16666667"/>
                <time lockedTan="0" pos="12" outValue="2" value="2" inTan="0" outTan="0"/>
                <object id="27142"/>
              </detuning>
            </automationclip>
          </note>
          <note pos="1272" len="24" key="81" pan="0" vol="100" type="0"/>
          <note pos="1320" len="48" key="79" pan="0" vol="100" type="0"/>
          <note pos="1368" len="24" key="77" pan="0" vol="100" type="0"/>
          <note pos="1392" len="336" key="74" pan="0" vol="100" type="0"/>
        </midiclip>
        <midiclip muted="0" name="" pos="8448" steps="16" type="1">
          <note pos="0" len="12" key="82" pan="0" vol="100" type="0"/>
          <note pos="24" len="36" key="70" pan="0" vol="100" type="0"/>
          <note pos="72" len="48" key="72" pan="0" vol="100" type="0">
            <automationclip>
              <detuning tens="1" pos="0" name="Note detuning" len="192" mute="0" prog="2">
                <time lockedTan="0" pos="0" outValue="0" value="0" inTan="0" outTan="0"/>
                <time lockedTan="0" pos="12" outValue="0" value="0" inTan="0.11111111" outTan="0.11111111"/>
                <time lockedTan="0" pos="18" outValue="2" value="2" inTan="0" outTan="0"/>
                <object id="21907"/>
              </detuning>
            </automationclip>
          </note>
          <note pos="120" len="72" key="77" pan="0" vol="100" type="0">
            <automationclip>
              <detuning tens="1" pos="0" name="Note detuning" len="192" mute="0" prog="1">
                <time lockedTan="0" pos="0" outValue="0" value="0" inTan="0" outTan="0"/>
                <time lockedTan="0" pos="60" outValue="0" value="0" inTan="-0.0069444445" outTan="-0.0069444445"/>
                <time lockedTan="0" pos="72" outValue="-0.5" value="-0.5" inTan="0" outTan="0"/>
                <object id="12659"/>
              </detuning>
            </automationclip>
          </note>
          <note pos="192" len="12" key="73" pan="0" vol="100" type="0"/>
          <note pos="216" len="36" key="73" pan="0" vol="100" type="0"/>
          <note pos="264" len="48" key="73" pan="0" vol="100" type="0">
            <automationclip>
              <detuning tens="1" pos="0" name="Note detuning" len="192" mute="0" prog="2">
                <time lockedTan="0" pos="0" outValue="0" value="0" inTan="0" outTan="0"/>
                <time lockedTan="0" pos="12" outValue="0" value="0" inTan="0.055555556" outTan="0.055555556"/>
                <time lockedTan="0" pos="18" outValue="1" value="1" inTan="0" outTan="0"/>
                <object id="29714"/>
              </detuning>
            </automationclip>
          </note>
          <note pos="312" len="72" key="76" pan="0" vol="100" type="0">
            <automationclip>
              <detuning tens="1" pos="0" name="Note detuning" len="192" mute="0" prog="1">
                <time lockedTan="0" pos="0" outValue="0" value="0" inTan="0" outTan="0"/>
                <time lockedTan="0" pos="60" outValue="0" value="0" inTan="-0.0069444445" outTan="-0.0069444445"/>
                <time lockedTan="0" pos="72" outValue="-0.5" value="-0.5" inTan="0" outTan="0"/>
                <object id="26957"/>
              </detuning>
            </automationclip>
          </note>
          <note pos="384" len="12" key="81" pan="0" vol="100" type="0"/>
          <note pos="408" len="36" key="69" pan="0" vol="100" type="0"/>
          <note pos="456" len="48" key="71" pan="0" vol="100" type="0">
            <automationclip>
              <detuning tens="1" pos="0" name="Note detuning" len="192" mute="0" prog="2">
                <time lockedTan="0" pos="0" outValue="0" value="0" inTan="0" outTan="0"/>
                <time lockedTan="0" pos="12" outValue="0" value="0" inTan="0.055555556" outTan="0.055555556"/>
                <time lockedTan="0" pos="18" outValue="1" value="1" inTan="0" outTan="0"/>
                <object id="1467"/>
              </detuning>
            </automationclip>
          </note>
          <note pos="504" len="48" key="74" pan="0" vol="100" type="0"/>
          <note pos="552" len="120" key="71" pan="0" vol="100" type="0">
            <automationclip>
              <detuning tens="1" pos="0" name="Note detuning" len="192" mute="0" prog="2">
                <time lockedTan="0" pos="0" outValue="0" value="0" inTan="0" outTan="0"/>
                <time lockedTan="0" pos="6" outValue="0" value="0" inTan="-0.041666668" outTan="-0.041666668"/>
                <time lockedTan="0" pos="12" outValue="-0.5" value="-0.5" inTan="-0.055555556" outTan="-0.055555556"/>
                <time lockedTan="0" pos="15" outValue="-0.5" value="-0.5" inTan="0.083333336" outTan="0.083333336"/>
                <time lockedTan="0" pos="18" outValue="0" value="0" inTan="0" outTan="0"/>
                <object id="19344"/>
              </detuning>
            </automationclip>
          </note>
          <note pos="720" len="24" key="67" pan="0" vol="100" type="0"/>
          <note pos="744" len="24" key="69" pan="0" vol="100" type="0"/>
          <note pos="768" len="72" key="70" pan="0" vol="100" type="0"/>
          <note pos="840" len="48" key="72" pan="0" vol="100" type="0">
            <automationclip>
              <detuning tens="1" pos="0" name="Note detuning" len="192" mute="0" prog="2">
                <time lockedTan="0" pos="0" outValue="0" value="0" inTan="0" outTan="0"/>
                <time lockedTan="0" pos="12" outValue="0" value="0" inTan="0.11111111" outTan="0.11111111"/>
                <time lockedTan="0" pos="18" outValue="2" value="2" inTan="0" outTan="0"/>
                <object id="16011"/>
              </detuning>
            </automationclip>
          </note>
          <note pos="888" len="48" key="70" pan="0" vol="100" type="0"/>
          <note pos="936" len="12" key="67" pan="0" vol="100" type="0"/>
          <note pos="948" len="12" key="69" pan="0" vol="100" type="0"/>
          <note pos="960" len="72" key="73" pan="0" vol="100" type="0">
            <automationclip>
              <detuning tens="1" pos="0" name="Note detuning" len="192" mute="0" prog="1">
                <time lockedTan="0" pos="0" outValue="0" value="0" inTan="0" outTan="0"/>
                <time lockedTan="0" pos="60" outValue="0" value="0" inTan="-0.0069444445" outTan="-0.0069444445"/>
                <time lockedTan="0" pos="72" outValue="-0.5" value="-0.5" inTan="0" outTan="0"/>
                <object id="16441"/>
              </detuning>
            </automationclip>
          </note>
          <note pos="1032" len="72" key="69" pan="0" vol="100" type="0">
            <automationclip>
              <detuning tens="1" pos="0" name="Note detuning" len="192" mute="0" prog="2">
                <time lockedTan="0" pos="0" outValue="0" value="0" inTan="0" outTan="0"/>
                <time lockedTan="0" pos="6" outValue="0" value="0" inTan="-0.041666668" outTan="-0.041666668"/>
                <time lockedTan="0" pos="12" outValue="-0.5" value="-0.5" inTan="-0.055555556" outTan="-0.055555556"/>
                <time lockedTan="0" pos="15" outValue="-0.5" value="-0.5" inTan="0.083333336" outTan="0.083333336"/>
                <time lockedTan="0" pos="18" outValue="0" value="0" inTan="0" outTan="0"/>
                <object id="18299"/>
              </detuning>
            </automationclip>
          </note>
          <note pos="1104" len="24" key="67" pan="0" vol="100" type="0"/>
          <note pos="1128" len="24" key="65" pan="0" vol="100" type="0"/>
          <note pos="1152" len="24" key="69" pan="0" vol="100" type="0"/>
          <note pos="1176" len="48" key="62" pan="0" vol="100" type="0"/>
          <note pos="1224" len="48" key="72" pan="0" vol="100" type="0">
            <automationclip>
              <detuning tens="1" pos="0" name="Note detuning" len="192" mute="0" prog="2">
                <time lockedTan="0" pos="0" outValue="0" value="0" inTan="0" outTan="0"/>
                <time lockedTan="0" pos="12" outValue="0" value="0" inTan="0.11111111" outTan="0.11111111"/>
                <time lockedTan="0" pos="18" outValue="2" value="2" inTan="0" outTan="0"/>
                <object id="24623"/>
              </detuning>
            </automationclip>
          </note>
          <note pos="1272" len="48" key="72" pan="0" vol="100" type="0"/>
          <note pos="1320" len="48" key="71" pan="0" vol="100" type="0"/>
          <note pos="1368" len="24" key="69" pan="0" vol="100" type="0"/>
          <note pos="1392" len="96" key="67" pan="0" vol="100" type="0"/>
        </midiclip>
      </track>
      <track muted="0" mutedBeforeSolo="0" name="Windwoods>Bassoon" solo="0" type="0">
        <instrumenttrack usemasterpitch="1" scale="0" range_import="1" firstkey="0" lastkey="127" keymap="0" enablecc="0" pan="0" enabled="0" pitch="0" pitchrange="1" basenote="69" mixch="3">
          <vol id="16200" value="50.297619" scale_type="linear"/>
          <midicontrollers cc10="0" cc92="0" cc121="0" cc11="0" cc35="0" cc80="0" cc4="0" cc57="0" cc34="0" cc50="0" cc12="0" cc70="0" cc117="0" cc75="0" cc124="0" cc3="0" cc0="0" cc89="0" cc21="0" cc56="0" cc44="0" cc78="0" cc36="0" cc38="0" cc88="0" cc48="0" cc27="0" cc67="0" cc82="0" cc42="0" cc99="0" cc112="0" cc45="0" cc39="0" cc127="0" cc73="0" cc58="0" cc13="0" cc61="0" cc116="0" cc8="0" cc63="0" cc111="0" cc60="0" cc72="0" cc97="0" cc114="0" cc115="0" cc76="0" cc69="0" cc20="0" cc106="0" cc79="0" cc24="0" cc81="0" cc19="0" cc87="0" cc107="0" cc46="0" cc47="0" cc83="0" cc93="0" cc102="0" cc65="0" cc1="0" cc18="0" cc85="0" cc94="0" cc64="0" cc66="0" cc16="0" cc84="0" cc98="0" cc110="0" cc9="0" cc126="0" cc2="0" cc29="0" cc25="0" cc43="0" cc59="0" cc62="0" cc53="0" cc105="0" cc40="0" cc54="0" cc120="0" cc90="0" cc86="0" cc100="0" cc49="0" cc22="0" cc41="0" cc108="0" cc77="0" cc95="0" cc109="0" cc15="0" cc104="0" cc119="0" cc125="0" cc68="0" cc122="0" cc17="0" cc74="0" cc28="0" cc14="0" cc26="0" cc32="0" cc5="0" cc123="0" cc101="0" cc33="0" cc51="0" cc37="0" cc96="0" cc103="0" cc30="0" cc71="0" cc6="0" cc52="0" cc113="0" cc31="0" cc91="0" cc23="0" cc7="0" cc55="0" cc118="0"/>
          <instrument name="sf2player">
            <sf2player reverbRoomSize="0.2" chorusNum="3" reverbOn="0" gain="0.46000001" reverbDamping="0" chorusSpeed="0.30000001" chorusOn="0" src="usersoundfont:Touhou.sf2" chorusDepth="8" bank="0" reverbLevel="0.89999998" patch="70" reverbWidth="0.5" chorusLevel="2">
              <key/>
            </sf2player>
          </instrument>
          <eldata ftype="0" fcut="14000" fres="0.5" fwet="0">
            <elvol ctlenvamt="0" pdel="0" lspd_numerator="4" rel="0.1" att="0" lpdel="0" dec="0.5" lspd_syncmode="0" lamt="0" lspd="0.1" sustain="0.5" userwavefile="" latt="0" hold="0.5" lshp="0" lspd_denominator="4" amt="0" x100="0"/>
            <elcut ctlenvamt="0" pdel="0" lspd_numerator="4" rel="0.1" att="0" lpdel="0" dec="0.5" lspd_syncmode="0" lamt="0" lspd="0.1" sustain="0.5" userwavefile="" latt="0" hold="0.5" lshp="0" lspd_denominator="4" amt="0" x100="0"/>
            <elres ctlenvamt="0" pdel="0" lspd_numerator="4" rel="0.1" att="0" lpdel="0" dec="0.5" lspd_syncmode="0" lamt="0" lspd="0.1" sustain="0.5" userwavefile="" latt="0" hold="0.5" lshp="0" lspd_denominator="4" amt="0" x100="0"/>
          </eldata>
          <chordcreator chordrange="1" chord-enabled="0" chord="0"/>
          <arpeggiator arptime_syncmode="0" arprepeats="1" arp-enabled="0" arpdir="0" arptime_denominator="4" arp="0" arpcycle="0" arprange="1" arpmiss="0" arptime_numerator="4" arptime="200" arpskip="0" arpmode="0" arpgate="100"/>
          <midiport basevelocity="63" readable="1" fixedoutputnote="-1" inputchannel="0" inputcontroller="0" fixedinputvelocity="-1" inports="" outputprogram="1" writable="0" outputchannel="1" fixedoutputvelocity="-1" outputcontroller="0"/>
          <fxchain numofeffects="0" enabled="0"/>
        </instrumenttrack>
        <midiclip muted="0" name="" pos="8448" steps="16" type="1">
          <note pos="0" len="12" key="65" pan="0" vol="100" type="0"/>
          <note pos="24" len="36" key="65" pan="0" vol="100" type="0"/>
          <note pos="72" len="48" key="67" pan="0" vol="100" type="0"/>
          <note pos="120" len="72" key="69" pan="0" vol="100" type="0"/>
          <note pos="192" len="12" key="64" pan="0" vol="100" type="0"/>
          <note pos="216" len="36" key="64" pan="0" vol="100" type="0"/>
          <note pos="264" len="48" key="65" pan="0" vol="100" type="0"/>
          <note pos="312" len="72" key="67" pan="0" vol="100" type="0"/>
          <note pos="384" len="12" key="65" pan="0" vol="100" type="0"/>
          <note pos="408" len="36" key="65" pan="0" vol="100" type="0"/>
          <note pos="456" len="48" key="67" pan="0" vol="100" type="0"/>
          <note pos="504" len="48" key="69" pan="0" vol="100" type="0"/>
          <note pos="552" len="120" key="67" pan="0" vol="100" type="0"/>
          <note pos="720" len="24" key="62" pan="0" vol="100" type="0"/>
          <note pos="744" len="24" key="64" pan="0" vol="100" type="0"/>
          <note pos="768" len="72" key="65" pan="0" vol="100" type="0"/>
          <note pos="840" len="48" key="69" pan="0" vol="100" type="0"/>
          <note pos="888" len="48" key="65" pan="0" vol="100" type="0"/>
          <note pos="936" len="12" key="62" pan="0" vol="100" type="0"/>
          <note pos="948" len="12" key="61" pan="0" vol="100" type="0"/>
          <note pos="960" len="72" key="64" pan="0" vol="100" type="0"/>
          <note pos="1032" len="72" key="61" pan="0" vol="100" type="0"/>
          <note pos="1104" len="24" key="62" pan="0" vol="100" type="0"/>
          <note pos="1128" len="24" key="60" pan="0" vol="100" type="0"/>
          <note pos="1152" len="24" key="62" pan="0" vol="100" type="0"/>
          <note pos="1176" len="48" key="57" pan="0" vol="100" type="0"/>
          <note pos="1224" len="48" key="69" pan="0" vol="100" type="0"/>
          <note pos="1272" len="48" key="65" pan="0" vol="100" type="0"/>
          <note pos="1320" len="48" key="62" pan="0" vol="100" type="0"/>
          <note pos="1368" len="24" key="60" pan="0" vol="100" type="0"/>
          <note pos="1392" len="96" key="59" pan="0" vol="100" type="0"/>
        </midiclip>
        <midiclip muted="0" name="" pos="9984" steps="16" type="1">
          <note pos="0" len="12" key="65" pan="0" vol="100" type="0"/>
          <note pos="24" len="36" key="65" pan="0" vol="100" type="0"/>
          <note pos="72" len="48" key="67" pan="0" vol="100" type="0"/>
          <note pos="120" len="72" key="69" pan="0" vol="100" type="0"/>
          <note pos="192" len="12" key="64" pan="0" vol="100" type="0"/>
          <note pos="216" len="36" key="64" pan="0" vol="100" type="0"/>
          <note pos="264" len="48" key="65" pan="0" vol="100" type="0"/>
          <note pos="312" len="72" key="67" pan="0" vol="100" type="0"/>
          <note pos="384" len="12" key="74" pan="0" vol="100" type="0"/>
          <note pos="408" len="36" key="74" pan="0" vol="100" type="0"/>
          <note pos="456" len="48" key="76" pan="0" vol="100" type="0"/>
          <note pos="504" len="48" key="74" pan="0" vol="100" type="0"/>
          <note pos="552" len="36" key="71" pan="0" vol="100" type="0"/>
          <note pos="588" len="12" key="69" pan="0" vol="100" type="0"/>
          <note pos="600" len="84" key="67" pan="0" vol="100" type="0"/>
          <note pos="720" len="24" key="77" pan="0" vol="100" type="0"/>
          <note pos="744" len="24" key="76" pan="0" vol="100" type="0"/>
          <note pos="768" len="60" key="74" pan="0" vol="100" type="0"/>
          <note pos="828" len="6" key="76" pan="0" vol="100" type="0"/>
          <note pos="834" len="6" key="74" pan="0" vol="100" type="0"/>
          <note pos="840" len="48" key="70" pan="0" vol="100" type="0"/>
          <note pos="888" len="48" key="67" pan="0" vol="100" type="0"/>
          <note pos="960" len="72" key="69" pan="0" vol="100" type="0"/>
          <note pos="1032" len="72" key="73" pan="0" vol="100" type="0"/>
          <note pos="1104" len="24" key="74" pan="0" vol="100" type="0"/>
          <note pos="1128" len="24" key="69" pan="0" vol="100" type="0"/>
          <note pos="1152" len="24" key="74" pan="0" vol="100" type="0"/>
          <note pos="1176" len="48" key="69" pan="0" vol="100" type="0"/>
          <note pos="1224" len="48" key="72" pan="0" vol="100" type="0"/>
          <note pos="1272" len="24" key="74" pan="0" vol="100" type="0"/>
          <note pos="1320" len="48" key="72" pan="0" vol="100" type="0"/>
          <note pos="1368" len="24" key="71" pan="0" vol="100" type="0"/>
          <note pos="1392" len="144" key="67" pan="0" vol="100" type="0"/>
          <note pos="1536" len="192" key="69" pan="0" vol="100" type="0"/>
        </midiclip>
      </track>
      <track muted="0" mutedBeforeSolo="0" name="Acid" solo="0" type="0">
        <instrumenttrack usemasterpitch="1" scale="0" range_import="1" firstkey="0" lastkey="127" keymap="0" enablecc="0" pan="0" enabled="0" pitch="0" pitchrange="1" basenote="57" vol="100" mixch="4">
          <midicontrollers cc10="0" cc92="0" cc121="0" cc11="0" cc35="0" cc80="0" cc4="0" cc57="0" cc34="0" cc50="0" cc12="0" cc70="0" cc117="0" cc75="0" cc124="0" cc3="0" cc0="0" cc89="0" cc21="0" cc56="0" cc44="0" cc78="0" cc36="0" cc38="0" cc88="0" cc48="0" cc27="0" cc67="0" cc82="0" cc42="0" cc99="0" cc112="0" cc45="0" cc39="0" cc127="0" cc73="0" cc58="0" cc13="0" cc61="0" cc116="0" cc8="0" cc63="0" cc111="0" cc60="0" cc72="0" cc97="0" cc114="0" cc115="0" cc76="0" cc69="0" cc20="0" cc106="0" cc79="0" cc24="0" cc81="0" cc19="0" cc87="0" cc107="0" cc46="0" cc47="0" cc83="0" cc93="0" cc102="0" cc65="0" cc1="0" cc18="0" cc85="0" cc94="0" cc64="0" cc66="0" cc16="0" cc84="0" cc98="0" cc110="0" cc9="0" cc126="0" cc2="0" cc29="0" cc25="0" cc43="0" cc59="0" cc62="0" cc53="0" cc105="0" cc40="0" cc54="0" cc120="0" cc90="0" cc86="0" cc100="0" cc49="0" cc22="0" cc41="0" cc108="0" cc77="0" cc95="0" cc109="0" cc15="0" cc104="0" cc119="0" cc125="0" cc68="0" cc122="0" cc17="0" cc74="0" cc28="0" cc14="0" cc26="0" cc32="0" cc5="0" cc123="0" cc101="0" cc33="0" cc51="0" cc37="0" cc96="0" cc103="0" cc30="0" cc71="0" cc6="0" cc52="0" cc113="0" cc31="0" cc91="0" cc23="0" cc7="0" cc55="0" cc118="0"/>
          <instrument name="vestige">
            <vestige plugin="uservst:Instruments/basscruncher/basscruncher.dll" chunk="zgANACsAAADQbQAA4xUAAJ0eAACZWAAA3WIAAKx3AACCSQAA1BkAAJBOAABUTQAAnUIAAIoRAAB4ZAAAcBoAAJBvAAChYQAAthwAAEUmAADVOAAAqgEAAC0JAAAvXAAArxkAAAAAAAC/EQAA/wsAAOklAAD6LwAAIA8AAJFsAACULQAAPQUAANQPAADhIQAATw8AAG86AAC1bgAA9VoAAD0ZAACCLAAAOXgAAAIGAACFQAAAgAAAAP/+/wlQAGEAdABjAGgAIAAgACAAMQD//v8JUABhAHQAYwBoACAAIAAgADIA//7/CVAAYQB0AGMAaAAgACAAIAAzAP/+/wlQAGEAdABjAGgAIAAgACAANAD//v8JUABhAHQAYwBoACAAIAAgADUA//7/CVAAYQB0AGMAaAAgACAAIAA2AP/+/wlQAGEAdABjAGgAIAAgACAANwD//v8JUABhAHQAYwBoACAAIAAgADgA//7/CVAAYQB0AGMAaAAgACAAIAA5AP/+/wlQAGEAdABjAGgAIAAgADEAMAD//v8JUABhAHQAYwBoACAAIAAxADEA//7/CVAAYQB0AGMAaAAgACAAMQAyAP/+/wlQAGEAdABjAGgAIAAgADEAMwD//v8JUABhAHQAYwBoACAAIAAxADQA//7/CVAAYQB0AGMAaAAgACAAMQA1AP/+/wlQAGEAdABjAGgAIAAgADEANgD//v8JUABhAHQAYwBoACAAIAAxADcA//7/CVAAYQB0AGMAaAAgACAAMQA4AP/+/wlQAGEAdABjAGgAIAAgADEAOQD//v8JUABhAHQAYwBoACAAIAAyADAA//7/CVAAYQB0AGMAaAAgACAAMgAxAP/+/wlQAGEAdABjAGgAIAAgADIAMgD//v8JUABhAHQAYwBoACAAIAAyADMA//7/CVAAYQB0AGMAaAAgACAAMgA0AP/+/wlQAGEAdABjAGgAIAAgADIANQD//v8JUABhAHQAYwBoACAAIAAyADYA//7/CVAAYQB0AGMAaAAgACAAMgA3AP/+/wlQAGEAdABjAGgAIAAgADIAOAD//v8JUABhAHQAYwBoACAAIAAyADkA//7/CVAAYQB0AGMAaAAgACAAMwAwAP/+/wlQAGEAdABjAGgAIAAgADMAMQD//v8JUABhAHQAYwBoACAAIAAzADIA//7/CVAAYQB0AGMAaAAgACAAMwAzAP/+/wlQAGEAdABjAGgAIAAgADMANAD//v8JUABhAHQAYwBoACAAIAAzADUA//7/CVAAYQB0AGMAaAAgACAAMwA2AP/+/wlQAGEAdABjAGgAIAAgADMANwD//v8JUABhAHQAYwBoACAAIAAzADgA//7/CVAAYQB0AGMAaAAgACAAMwA5AP/+/wlQAGEAdABjAGgAIAAgADQAMAD//v8JUABhAHQAYwBoACAAIAA0ADEA//7/CVAAYQB0AGMAaAAgACAANAAyAP/+/wlQAGEAdABjAGgAIAAgADQAMwD//v8JUABhAHQAYwBoACAAIAA0ADQA//7/CVAAYQB0AGMAaAAgACAANAA1AP/+/wlQAGEAdABjAGgAIAAgADQANgD//v8JUABhAHQAYwBoACAAIAA0ADcA//7/CVAAYQB0AGMAaAAgACAANAA4AP/+/wlQAGEAdABjAGgAIAAgADQAOQD//v8JUABhAHQAYwBoACAAIAA1ADAA//7/CVAAYQB0AGMAaAAgACAANQAxAP/+/wlQAGEAdABjAGgAIAAgADUAMgD//v8JUABhAHQAYwBoACAAIAA1ADMA//7/CVAAYQB0AGMAaAAgACAANQA0AP/+/wlQAGEAdABjAGgAIAAgADUANQD//v8JUABhAHQAYwBoACAAIAA1ADYA//7/CVAAYQB0AGMAaAAgACAANQA3AP/+/wlQAGEAdABjAGgAIAAgADUAOAD//v8JUABhAHQAYwBoACAAIAA1ADkA//7/CVAAYQB0AGMAaAAgACAANgAwAP/+/wlQAGEAdABjAGgAIAAgADYAMQD//v8JUABhAHQAYwBoACAAIAA2ADIA//7/CVAAYQB0AGMAaAAgACAANgAzAP/+/wlQAGEAdABjAGgAIAAgADYANAD//v8JUABhAHQAYwBoACAAIAA2ADUA//7/CVAAYQB0AGMAaAAgACAANgA2AP/+/wlQAGEAdABjAGgAIAAgADYANwD//v8JUABhAHQAYwBoACAAIAA2ADgA//7/CVAAYQB0AGMAaAAgACAANgA5AP/+/wlQAGEAdABjAGgAIAAgADcAMAD//v8JUABhAHQAYwBoACAAIAA3ADEA//7/CVAAYQB0AGMAaAAgACAANwAyAP/+/wlQAGEAdABjAGgAIAAgADcAMwD//v8JUABhAHQAYwBoACAAIAA3ADQA//7/CVAAYQB0AGMAaAAgACAANwA1AP/+/wlQAGEAdABjAGgAIAAgADcANgD//v8JUABhAHQAYwBoACAAIAA3ADcA//7/CVAAYQB0AGMAaAAgACAANwA4AP/+/wlQAGEAdABjAGgAIAAgADcAOQD//v8JUABhAHQAYwBoACAAIAA4ADAA//7/CVAAYQB0AGMAaAAgACAAOAAxAP/+/wlQAGEAdABjAGgAIAAgADgAMgD//v8JUABhAHQAYwBoACAAIAA4ADMA//7/CVAAYQB0AGMAaAAgACAAOAA0AP/+/wlQAGEAdABjAGgAIAAgADgANQD//v8JUABhAHQAYwBoACAAIAA4ADYA//7/CVAAYQB0AGMAaAAgACAAOAA3AP/+/wlQAGEAdABjAGgAIAAgADgAOAD//v8JUABhAHQAYwBoACAAIAA4ADkA//7/CVAAYQB0AGMAaAAgACAAOQAwAP/+/wlQAGEAdABjAGgAIAAgADkAMQD//v8JUABhAHQAYwBoACAAIAA5ADIA//7/CVAAYQB0AGMAaAAgACAAOQAzAP/+/wlQAGEAdABjAGgAIAAgADkANAD//v8JUABhAHQAYwBoACAAIAA5ADUA//7/CVAAYQB0AGMAaAAgACAAOQA2AP/+/wlQAGEAdABjAGgAIAAgADkANwD//v8JUABhAHQAYwBoACAAIAA5ADgA//7/CVAAYQB0AGMAaAAgACAAOQA5AP/+/wlQAGEAdABjAGgAIAAxADAAMAD//v8JUABhAHQAYwBoACAAMQAwADEA//7/CVAAYQB0AGMAaAAgADEAMAAyAP/+/wlQAGEAdABjAGgAIAAxADAAMwD//v8JUABhAHQAYwBoACAAMQAwADQA//7/CVAAYQB0AGMAaAAgADEAMAA1AP/+/wlQAGEAdABjAGgAIAAxADAANgD//v8JUABhAHQAYwBoACAAMQAwADcA//7/CVAAYQB0AGMAaAAgADEAMAA4AP/+/wlQAGEAdABjAGgAIAAxADAAOQD//v8JUABhAHQAYwBoACAAMQAxADAA//7/CVAAYQB0AGMAaAAgADEAMQAxAP/+/wlQAGEAdABjAGgAIAAxADEAMgD//v8JUABhAHQAYwBoACAAMQAxADMA//7/CVAAYQB0AGMAaAAgADEAMQA0AP/+/wlQAGEAdABjAGgAIAAxADEANQD//v8JUABhAHQAYwBoACAAMQAxADYA//7/CVAAYQB0AGMAaAAgADEAMQA3AP/+/wlQAGEAdABjAGgAIAAxADEAOAD//v8JUABhAHQAYwBoACAAMQAxADkA//7/CVAAYQB0AGMAaAAgADEAMgAwAP/+/wlQAGEAdABjAGgAIAAxADIAMQD//v8JUABhAHQAYwBoACAAMQAyADIA//7/CVAAYQB0AGMAaAAgADEAMgAzAP/+/wlQAGEAdABjAGgAIAAxADIANAD//v8JUABhAHQAYwBoACAAMQAyADUA//7/CVAAYQB0AGMAaAAgADEAMgA2AP/+/wlQAGEAdABjAGgAIAAxADIANwD//v8JUABhAHQAYwBoACAAMQAyADgABgAAAAEAAAAAAAAA///////+/wAGAAAAgAAAAAAAIEEAAAAAAAAAAAAAAAAAAAAAAAAAAAAAAAAAAAAAAAAAAAAAAAAAAAAAAAAAAAAAAAAAAAAAAAAAAAAAAAAAAAAAAAAAAAAAAAAAAAAAAAAAAAAAAAAAAAAAAAAAAAAAAAAAAAAAAAAAAAAAAAAAAAAAAAAAAAAAAAAAAAAAAAAAAAAAAAAAAAAAAAAAAAAAAAAAAAAAAAAAAAAAAAAAAAAAAAAAAAAAAAAAAAAAAAAAAAAAAAAAAAAAAAAAAAAAAAAAAAAAAAAAAAAAAAAAAAAAAAAAAAAAAAAAAAAAAAAAAAAAAAAAAAAAAAAAAAAAAAAAAAAAAAAAAAAAAAAAAAAAAAAAAAAAAAAAAAAAAAAAAAAAAAAAAAAAAAAAAAAAAAAAAAAAAAAAAAAAAAAAAAAAAAAAAAAAAAAAAAAAAAAAAAAAAAAAAAAAAAAAAAAAAAAAAAAAAAAAAAAAAAAAAAAAAAAAAAAAAAAAAAAAAAAAAAAAAAAAAAAAAAAAAAAAAAAAAAAAAAAAAAAAAAAAAAAAAAAAAAAAAAAAAAAAAAAAAAAAAAAAAAAAAAAAAAAAAAAAAAAAAAAAAAAAAAAAAAAAAAAAAAAAAAAAAAAAAAAAAAAAAAAAAAAAAAAAAAAAAAAAAAAAAAAAAAAAAAAAAAAAAAAAAAAAAAAAAAAA///////+/wAGAAAAgAAAAAAAoMAAAAAAAAAAAAAAAAAAAAAAAAAAAAAAAAAAAAAAAAAAAAAAAAAAAAAAAAAAAAAAAAAAAAAAAAAAAAAAAAAAAAAAAAAAAAAAAAAAAAAAAAAAAAAAAAAAAAAAAAAAAAAAAAAAAAAAAAAAAAAAAAAAAAAAAAAAAAAAAAAAAAAAAAAAAAAAAAAAAAAAAAAAAAAAAAAAAAAAAAAAAAAAAAAAAAAAAAAAAAAAAAAAAAAAAAAAAAAAAAAAAAAAAAAAAAAAAAAAAAAAAAAAAAAAAAAAAAAAAAAAAAAAAAAAAAAAAAAAAAAAAAAAAAAAAAAAAAAAAAAAAAAAAAAAAAAAAAAAAAAAAAAAAAAAAAAAAAAAAAAAAAAAAAAAAAAAAAAAAAAAAAAAAAAAAAAAAAAAAAAAAAAAAAAAAAAAAAAAAAAAAAAAAAAAAAAAAAAAAAAAAAAAAAAAAAAAAAAAAAAAAAAAAAAAAAAAAAAAAAAAAAAAAAAAAAAAAAAAAAAAAAAAAAAAAAAAAAAAAAAAAAAAAAAAAAAAAAAAAAAAAAAAAAAAAAAAAAAAAAAAAAAAAAAAAAAAAAAAAAAAAAAAAAAAAAAAAAAAAAAAAAAAAAAAAAAAAAAAAAAAAAAAAAAAAAAAAAAAAAAAAAAAAAAAAAAAAAAAAAAAAAAAAAAAAAAAAAAA///////+/wAGAAAAgAAAAAAAIEEAAAAAAAAAAAAAAAAAAAAAAAAAAAAAAAAAAAAAAAAAAAAAAAAAAAAAAAAAAAAAAAAAAAAAAAAAAAAAAAAAAAAAAAAAAAAAAAAAAAAAAAAAAAAAAAAAAAAAAAAAAAAAAAAAAAAAAAAAAAAAAAAAAAAAAAAAAAAAAAAAAAAAAAAAAAAAAAAAAAAAAAAAAAAAAAAAAAAAAAAAAAAAAAAAAAAAAAAAAAAAAAAAAAAAAAAAAAAAAAAAAAAAAAAAAAAAAAAAAAAAAAAAAAAAAAAAAAAAAAAAAAAAAAAAAAAAAAAAAAAAAAAAAAAAAAAAAAAAAAAAAAAAAAAAAAAAAAAAAAAAAAAAAAAAAAAAAAAAAAAAAAAAAAAAAAAAAAAAAAAAAAAAAAAAAAAAAAAAAAAAAAAAAAAAAAAAAAAAAAAAAAAAAAAAAAAAAAAAAAAAAAAAAAAAAAAAAAAAAAAAAAAAAAAAAAAAAAAAAAAAAAAAAAAAAAAAAAAAAAAAAAAAAAAAAAAAAAAAAAAAAAAAAAAAAAAAAAAAAAAAAAAAAAAAAAAAAAAAAAAAAAAAAAAAAAAAAAAAAAAAAAAAAAAAAAAAAAAAAAAAAAAAAAAAAAAAAAAAAAAAAAAAAAAAAAAAAAAAAAAAAAAAAAAAAAAAAAAAAAAAAAAAAAAAAAAAAAAA///////+/wAGAAAAgAAAAAAAIEEAAAAAAAAAAAAAAAAAAAAAAAAAAAAAAAAAAAAAAAAAAAAAAAAAAAAAAAAAAAAAAAAAAAAAAAAAAAAAAAAAAAAAAAAAAAAAAAAAAAAAAAAAAAAAAAAAAAAAAAAAAAAAAAAAAAAAAAAAAAAAAAAAAAAAAAAAAAAAAAAAAAAAAAAAAAAAAAAAAAAAAAAAAAAAAAAAAAAAAAAAAAAAAAAAAAAAAAAAAAAAAAAAAAAAAAAAAAAAAAAAAAAAAAAAAAAAAAAAAAAAAAAAAAAAAAAAAAAAAAAAAAAAAAAAAAAAAAAAAAAAAAAAAAAAAAAAAAAAAAAAAAAAAAAAAAAAAAAAAAAAAAAAAAAAAAAAAAAAAAAAAAAAAAAAAAAAAAAAAAAAAAAAAAAAAAAAAAAAAAAAAAAAAAAAAAAAAAAAAAAAAAAAAAAAAAAAAAAAAAAAAAAAAAAAAAAAAAAAAAAAAAAAAAAAAAAAAAAAAAAAAAAAAAAAAAAAAAAAAAAAAAAAAAAAAAAAAAAAAAAAAAAAAAAAAAAAAAAAAAAAAAAAAAAAAAAAAAAAAAAAAAAAAAAAAAAAAAAAAAAAAAAAAAAAAAAAAAAAAAAAAAAAAAAAAAAAAAAAAAAAAAAAAAAAAAAAAAAAAAAAAAAAAAAAAAAAAAAAAAAAAAAAAAAAAAAAAAAA///////+/wAGAAAAgAAAAAAAIEEAAAAAAAAAAAAAAAAAAAAAAAAAAAAAAAAAAAAAAAAAAAAAAAAAAAAAAAAAAAAAAAAAAAAAAAAAAAAAAAAAAAAAAAAAAAAAAAAAAAAAAAAAAAAAAAAAAAAAAAAAAAAAAAAAAAAAAAAAAAAAAAAAAAAAAAAAAAAAAAAAAAAAAAAAAAAAAAAAAAAAAAAAAAAAAAAAAAAAAAAAAAAAAAAAAAAAAAAAAAAAAAAAAAAAAAAAAAAAAAAAAAAAAAAAAAAAAAAAAAAAAAAAAAAAAAAAAAAAAAAAAAAAAAAAAAAAAAAAAAAAAAAAAAAAAAAAAAAAAAAAAAAAAAAAAAAAAAAAAAAAAAAAAAAAAAAAAAAAAAAAAAAAAAAAAAAAAAAAAAAAAAAAAAAAAAAAAAAAAAAAAAAAAAAAAAAAAAAAAAAAAAAAAAAAAAAAAAAAAAAAAAAAAAAAAAAAAAAAAAAAAAAAAAAAAAAAAAAAAAAAAAAAAAAAAAAAAAAAAAAAAAAAAAAAAAAAAAAAAAAAAAAAAAAAAAAAAAAAAAAAAAAAAAAAAAAAAAAAAAAAAAAAAAAAAAAAAAAAAAAAAAAAAAAAAAAAAAAAAAAAAAAAAAAAAAAAAAAAAAAAAAAAAAAAAAAAAAAAAAAAAAAAAAAAAAAAAAAAAAAAAAAAAAAAAAAAAAAA///////+/wAGAAAAgAAAAAAAIEEAAAAAAAAAAAAAAAAAAAAAAAAAAAAAAAAAAAAAAAAAAAAAAAAAAAAAAAAAAAAAAAAAAAAAAAAAAAAAAAAAAAAAAAAAAAAAAAAAAAAAAAAAAAAAAAAAAAAAAAAAAAAAAAAAAAAAAAAAAAAAAAAAAAAAAAAAAAAAAAAAAAAAAAAAAAAAAAAAAAAAAAAAAAAAAAAAAAAAAAAAAAAAAAAAAAAAAAAAAAAAAAAAAAAAAAAAAAAAAAAAAAAAAAAAAAAAAAAAAAAAAAAAAAAAAAAAAAAAAAAAAAAAAAAAAAAAAAAAAAAAAAAAAAAAAAAAAAAAAAAAAAAAAAAAAAAAAAAAAAAAAAAAAAAAAAAAAAAAAAAAAAAAAAAAAAAAAAAAAAAAAAAAAAAAAAAAAAAAAAAAAAAAAAAAAAAAAAAAAAAAAAAAAAAAAAAAAAAAAAAAAAAAAAAAAAAAAAAAAAAAAAAAAAAAAAAAAAAAAAAAAAAAAAAAAAAAAAAAAAAAAAAAAAAAAAAAAAAAAAAAAAAAAAAAAAAAAAAAAAAAAAAAAAAAAAAAAAAAAAAAAAAAAAAAAAAAAAAAAAAAAAAAAAAAAAAAAAAAAAAAAAAAAAAAAAAAAAAAAAAAAAAAAAAAAAAAAAAAAAAAAAAAAAAAAAAAAAAAAAAAAAAAAAAAAAAAAAAA///////+/wAGAAAAAQAAAAAAAAD///////7/AAYAAACAAAAAAAAgQQAAAAAAAAAAAAAAAAAAAAAAAAAAAAAAAAAAAAAAAAAAAAAAAAAAAAAAAAAAAAAAAAAAAAAAAAAAAAAAAAAAAAAAAAAAAAAAAAAAAAAAAAAAAAAAAAAAAAAAAAAAAAAAAAAAAAAAAAAAAAAAAAAAAAAAAAAAAAAAAAAAAAAAAAAAAAAAAAAAAAAAAAAAAAAAAAAAAAAAAAAAAAAAAAAAAAAAAAAAAAAAAAAAAAAAAAAAAAAAAAAAAAAAAAAAAAAAAAAAAAAAAAAAAAAAAAAAAAAAAAAAAAAAAAAAAAAAAAAAAAAAAAAAAAAAAAAAAAAAAAAAAAAAAAAAAAAAAAAAAAAAAAAAAAAAAAAAAAAAAAAAAAAAAAAAAAAAAAAAAAAAAAAAAAAAAAAAAAAAAAAAAAAAAAAAAAAAAAAAAAAAAAAAAAAAAAAAAAAAAAAAAAAAAAAAAAAAAAAAAAAAAAAAAAAAAAAAAAAAAAAAAAAAAAAAAAAAAAAAAAAAAAAAAAAAAAAAAAAAAAAAAAAAAAAAAAAAAAAAAAAAAAAAAAAAAAAAAAAAAAAAAAAAAAAAAAAAAAAAAAAAAAAAAAAAAAAAAAAAAAAAAAAAAAAAAAAAAAAAAAAAAAAAAAAAAAAAAAAAAAAAAAAAAAAAAAAAAAAAAAAAAAAAAAAAAAAAAAD///////7/AAYAAACAAAAAAAAgQQAAAAAAAAAAAAAAAAAAAAAAAAAAAAAAAAAAAAAAAAAAAAAAAAAAAAAAAAAAAAAAAAAAAAAAAAAAAAAAAAAAAAAAAAAAAAAAAAAAAAAAAAAAAAAAAAAAAAAAAAAAAAAAAAAAAAAAAAAAAAAAAAAAAAAAAAAAAAAAAAAAAAAAAAAAAAAAAAAAAAAAAAAAAAAAAAAAAAAAAAAAAAAAAAAAAAAAAAAAAAAAAAAAAAAAAAAAAAAAAAAAAAAAAAAAAAAAAAAAAAAAAAAAAAAAAAAAAAAAAAAAAAAAAAAAAAAAAAAAAAAAAAAAAAAAAAAAAAAAAAAAAAAAAAAAAAAAAAAAAAAAAAAAAAAAAAAAAAAAAAAAAAAAAAAAAAAAAAAAAAAAAAAAAAAAAAAAAAAAAAAAAAAAAAAAAAAAAAAAAAAAAAAAAAAAAAAAAAAAAAAAAAAAAAAAAAAAAAAAAAAAAAAAAAAAAAAAAAAAAAAAAAAAAAAAAAAAAAAAAAAAAAAAAAAAAAAAAAAAAAAAAAAAAAAAAAAAAAAAAAAAAAAAAAAAAAAAAAAAAAAAAAAAAAAAAAAAAAAAAAAAAAAAAAAAAAAAAAAAAAAAAAAAAAAAAAAAAAAAAAAAAAAAAAAAAAAAAAAAAAAAAAAAAAAAAAAAAAAAAAAAAAAAAAAAAAAAAAD///////7/AAYAAACAAAAAAAAgQQAAAAAAAAAAAAAAAAAAAAAAAAAAAAAAAAAAAAAAAAAAAAAAAAAAAAAAAAAAAAAAAAAAAAAAAAAAAAAAAAAAAAAAAAAAAAAAAAAAAAAAAAAAAAAAAAAAAAAAAAAAAAAAAAAAAAAAAAAAAAAAAAAAAAAAAAAAAAAAAAAAAAAAAAAAAAAAAAAAAAAAAAAAAAAAAAAAAAAAAAAAAAAAAAAAAAAAAAAAAAAAAAAAAAAAAAAAAAAAAAAAAAAAAAAAAAAAAAAAAAAAAAAAAAAAAAAAAAAAAAAAAAAAAAAAAAAAAAAAAAAAAAAAAAAAAAAAAAAAAAAAAAAAAAAAAAAAAAAAAAAAAAAAAAAAAAAAAAAAAAAAAAAAAAAAAAAAAAAAAAAAAAAAAAAAAAAAAAAAAAAAAAAAAAAAAAAAAAAAAAAAAAAAAAAAAAAAAAAAAAAAAAAAAAAAAAAAAAAAAAAAAAAAAAAAAAAAAAAAAAAAAAAAAAAAAAAAAAAAAAAAAAAAAAAAAAAAAAAAAAAAAAAAAAAAAAAAAAAAAAAAAAAAAAAAAAAAAAAAAAAAAAAAAAAAAAAAAAAAAAAAAAAAAAAAAAAAAAAAAAAAAAAAAAAAAAAAAAAAAAAAAAAAAAAAAAAAAAAAAAAAAAAAAAAAAAAAAAAAAAAAAAAAAAAAAAAAAAD///////7/AAYAAAABAAAAAAAAAP///////v8ABgAAAAEAAAAAAKBA///////+/wAGAAAAgAAAAAAAIEEAAAAAAAAAAAAAAAAAAAAAAAAAAAAAAAAAAAAAAAAAAAAAAAAAAAAAAAAAAAAAAAAAAAAAAAAAAAAAAAAAAAAAAAAAAAAAAAAAAAAAAAAAAAAAAAAAAAAAAAAAAAAAAAAAAAAAAAAAAAAAAAAAAAAAAAAAAAAAAAAAAAAAAAAAAAAAAAAAAAAAAAAAAAAAAAAAAAAAAAAAAAAAAAAAAAAAAAAAAAAAAAAAAAAAAAAAAAAAAAAAAAAAAAAAAAAAAAAAAAAAAAAAAAAAAAAAAAAAAAAAAAAAAAAAAAAAAAAAAAAAAAAAAAAAAAAAAAAAAAAAAAAAAAAAAAAAAAAAAAAAAAAAAAAAAAAAAAAAAAAAAAAAAAAAAAAAAAAAAAAAAAAAAAAAAAAAAAAAAAAAAAAAAAAAAAAAAAAAAAAAAAAAAAAAAAAAAAAAAAAAAAAAAAAAAAAAAAAAAAAAAAAAAAAAAAAAAAAAAAAAAAAAAAAAAAAAAAAAAAAAAAAAAAAAAAAAAAAAAAAAAAAAAAAAAAAAAAAAAAAAAAAAAAAAAAAAAAAAAAAAAAAAAAAAAAAAAAAAAAAAAAAAAAAAAAAAAAAAAAAAAAAAAAAAAAAAAAAAAAAAAAAAAAAAAAAAAAAAAAAAAAAAAAAAAAAAAAAAAAAAAAAAAAAAAAAAAAAA///////+/wAGAAAAgAAAAAAAAAAAAABBAAAAQQAAAEEAAABBAAAAQQAAAEEAAABBAAAAQQAAAEEAAABBAAAAQQAAAEEAAABBAAAAQQAAAEEAAABBAAAAQQAAAEEAAABBAAAAQQAAAEEAAABBAAAAQQAAAEEAAABBAAAAQQAAAEEAAABBAAAAQQAAAEEAAABBAAAAQQAAAEEAAABBAAAAQQAAAEEAAABBAAAAQQAAAEEAAABBAAAAQQAAAEEAAABBAAAAQQAAAEEAAABBAAAAQQAAAEEAAABBAAAAQQAAAEEAAABBAAAAQQAAAEEAAABBAAAAQQAAAEEAAABBAAAAQQAAAEEAAABBAAAAQQAAAEEAAABBAAAAQQAAAEEAAABBAAAAQQAAAEEAAABBAAAAQQAAAEEAAABBAAAAQQAAAEEAAABBAAAAQQAAAEEAAABBAAAAQQAAAEEAAABBAAAAQQAAAEEAAABBAAAAQQAAAEEAAABBAAAAQQAAAEEAAABBAAAAQQAAAEEAAABBAAAAQQAAAEEAAABBAAAAQQAAAEEAAABBAAAAQQAAAEEAAABBAAAAQQAAAEEAAABBAAAAQQAAAEEAAABBAAAAQQAAAEEAAABBAAAAQQAAAEEAAABBAAAAQQAAAEEAAABBAAAAQQAAAEEAAABBAAAAQQAAAEEAAABBAAAAQQAAAEEAAABB///////+/wAGAAAAgAAAAJXXq0AAAAAAAAAAAAAAAAAAAAAAAAAAAAAAAAAAAAAAAAAAAAAAAAAAAAAAAAAAAAAAAAAAAAAAAAAAAAAAAAAAAAAAAAAAAAAAAAAAAAAAAAAAAAAAAAAAAAAAAAAAAAAAAAAAAAAAAAAAAAAAAAAAAAAAAAAAAAAAAAAAAAAAAAAAAAAAAAAAAAAAAAAAAAAAAAAAAAAAAAAAAAAAAAAAAAAAAAAAAAAAAAAAAAAAAAAAAAAAAAAAAAAAAAAAAAAAAAAAAAAAAAAAAAAAAAAAAAAAAAAAAAAAAAAAAAAAAAAAAAAAAAAAAAAAAAAAAAAAAAAAAAAAAAAAAAAAAAAAAAAAAAAAAAAAAAAAAAAAAAAAAAAAAAAAAAAAAAAAAAAAAAAAAAAAAAAAAAAAAAAAAAAAAAAAAAAAAAAAAAAAAAAAAAAAAAAAAAAAAAAAAAAAAAAAAAAAAAAAAAAAAAAAAAAAAAAAAAAAAAAAAAAAAAAAAAAAAAAAAAAAAAAAAAAAAAAAAAAAAAAAAAAAAAAAAAAAAAAAAAAAAAAAAAAAAAAAAAAAAAAAAAAAAAAAAAAAAAAAAAAAAAAAAAAAAAAAAAAAAAAAAAAAAAAAAAAAAAAAAAAAAAAAAAAAAAAAAAAAAAAAAAAAAAAAAAAAAAAAAAAAAAAAAAAAAAAAAAAA///////+/wAGAAAAgAAAAAAA8EIAAPBCAADwQgAA8EIAAPBCAADwQgAA8EIAAPBCAADwQgAA8EIAAPBCAADwQgAA8EIAAPBCAADwQgAA8EIAAPBCAADwQgAA8EIAAPBCAADwQgAA8EIAAPBCAADwQgAA8EIAAPBCAADwQgAA8EIAAPBCAADwQgAA8EIAAPBCAADwQgAA8EIAAPBCAADwQgAA8EIAAPBCAADwQgAA8EIAAPBCAADwQgAA8EIAAPBCAADwQgAA8EIAAPBCAADwQgAA8EIAAPBCAADwQgAA8EIAAPBCAADwQgAA8EIAAPBCAADwQgAA8EIAAPBCAADwQgAA8EIAAPBCAADwQgAA8EIAAPBCAADwQgAA8EIAAPBCAADwQgAA8EIAAPBCAADwQgAA8EIAAPBCAADwQgAA8EIAAPBCAADwQgAA8EIAAPBCAADwQgAA8EIAAPBCAADwQgAA8EIAAPBCAADwQgAA8EIAAPBCAADwQgAA8EIAAPBCAADwQgAA8EIAAPBCAADwQgAA8EIAAPBCAADwQgAA8EIAAPBCAADwQgAA8EIAAPBCAADwQgAA8EIAAPBCAADwQgAA8EIAAPBCAADwQgAA8EIAAPBCAADwQgAA8EIAAPBCAADwQgAA8EIAAPBCAADwQgAA8EIAAPBCAADwQgAA8EIAAPBCAADwQgAA8EIAAPBC///////+/wAGAAAAAQAAAAAAAAD///////7/AAYAAACAAAAAOAngQAAAAAAAAAAAAAAAAAAAAAAAAAAAAAAAAAAAAAAAAAAAAAAAAAAAAAAAAAAAAAAAAAAAAAAAAAAAAAAAAAAAAAAAAAAAAAAAAAAAAAAAAAAAAAAAAAAAAAAAAAAAAAAAAAAAAAAAAAAAAAAAAAAAAAAAAAAAAAAAAAAAAAAAAAAAAAAAAAAAAAAAAAAAAAAAAAAAAAAAAAAAAAAAAAAAAAAAAAAAAAAAAAAAAAAAAAAAAAAAAAAAAAAAAAAAAAAAAAAAAAAAAAAAAAAAAAAAAAAAAAAAAAAAAAAAAAAAAAAAAAAAAAAAAAAAAAAAAAAAAAAAAAAAAAAAAAAAAAAAAAAAAAAAAAAAAAAAAAAAAAAAAAAAAAAAAAAAAAAAAAAAAAAAAAAAAAAAAAAAAAAAAAAAAAAAAAAAAAAAAAAAAAAAAAAAAAAAAAAAAAAAAAAAAAAAAAAAAAAAAAAAAAAAAAAAAAAAAAAAAAAAAAAAAAAAAAAAAAAAAAAAAAAAAAAAAAAAAAAAAAAAAAAAAAAAAAAAAAAAAAAAAAAAAAAAAAAAAAAAAAAAAAAAAAAAAAAAAAAAAAAAAAAAAAAAAAAAAAAAAAAAAAAAAAAAAAAAAAAAAAAAAAAAAAAAAAAAAAAAAAAAAAAAAAAAAAAAAAAAAAAAAAAAAAAAAAAAAAD///////7/AAYAAAABAAAAAAAAAP///////v8ABgAAAIAAAAAAAKBAAAAAAAAAAAAAAAAAAAAAAAAAAAAAAAAAAAAAAAAAAAAAAAAAAAAAAAAAAAAAAAAAAAAAAAAAAAAAAAAAAAAAAAAAAAAAAAAAAAAAAAAAAAAAAAAAAAAAAAAAAAAAAAAAAAAAAAAAAAAAAAAAAAAAAAAAAAAAAAAAAAAAAAAAAAAAAAAAAAAAAAAAAAAAAAAAAAAAAAAAAAAAAAAAAAAAAAAAAAAAAAAAAAAAAAAAAAAAAAAAAAAAAAAAAAAAAAAAAAAAAAAAAAAAAAAAAAAAAAAAAAAAAAAAAAAAAAAAAAAAAAAAAAAAAAAAAAAAAAAAAAAAAAAAAAAAAAAAAAAAAAAAAAAAAAAAAAAAAAAAAAAAAAAAAAAAAAAAAAAAAAAAAAAAAAAAAAAAAAAAAAAAAAAAAAAAAAAAAAAAAAAAAAAAAAAAAAAAAAAAAAAAAAAAAAAAAAAAAAAAAAAAAAAAAAAAAAAAAAAAAAAAAAAAAAAAAAAAAAAAAAAAAAAAAAAAAAAAAAAAAAAAAAAAAAAAAAAAAAAAAAAAAAAAAAAAAAAAAAAAAAAAAAAAAAAAAAAAAAAAAAAAAAAAAAAAAAAAAAAAAAAAAAAAAAAAAAAAAAAAAAAAAAAAAAAAAAAAAAAAAAAAAAAAAAAAAAAAAAAAAAAAAAAAAAAAAAAAAP///////v8ABgAAAAEAAAAAAAAA///////+/wAGAAAAgAAAAAAAIEEAAAAAAAAAAAAAAAAAAAAAAAAAAAAAAAAAAAAAAAAAAAAAAAAAAAAAAAAAAAAAAAAAAAAAAAAAAAAAAAAAAAAAAAAAAAAAAAAAAAAAAAAAAAAAAAAAAAAAAAAAAAAAAAAAAAAAAAAAAAAAAAAAAAAAAAAAAAAAAAAAAAAAAAAAAAAAAAAAAAAAAAAAAAAAAAAAAAAAAAAAAAAAAAAAAAAAAAAAAAAAAAAAAAAAAAAAAAAAAAAAAAAAAAAAAAAAAAAAAAAAAAAAAAAAAAAAAAAAAAAAAAAAAAAAAAAAAAAAAAAAAAAAAAAAAAAAAAAAAAAAAAAAAAAAAAAAAAAAAAAAAAAAAAAAAAAAAAAAAAAAAAAAAAAAAAAAAAAAAAAAAAAAAAAAAAAAAAAAAAAAAAAAAAAAAAAAAAAAAAAAAAAAAAAAAAAAAAAAAAAAAAAAAAAAAAAAAAAAAAAAAAAAAAAAAAAAAAAAAAAAAAAAAAAAAAAAAAAAAAAAAAAAAAAAAAAAAAAAAAAAAAAAAAAAAAAAAAAAAAAAAAAAAAAAAAAAAAAAAAAAAAAAAAAAAAAAAAAAAAAAAAAAAAAAAAAAAAAAAAAAAAAAAAAAAAAAAAAAAAAAAAAAAAAAAAAAAAAAAAAAAAAAAAAAAAAAAAAAAAAAAAAAAAAAAAAAAAAA///////+/wAGAAAAAQAAAAAAIEL///////7/AAYAAACAAAAAq+vcQAAAAAAAAAAAAAAAAAAAAAAAAAAAAAAAAAAAAAAAAAAAAAAAAAAAAAAAAAAAAAAAAAAAAAAAAAAAAAAAAAAAAAAAAAAAAAAAAAAAAAAAAAAAAAAAAAAAAAAAAAAAAAAAAAAAAAAAAAAAAAAAAAAAAAAAAAAAAAAAAAAAAAAAAAAAAAAAAAAAAAAAAAAAAAAAAAAAAAAAAAAAAAAAAAAAAAAAAAAAAAAAAAAAAAAAAAAAAAAAAAAAAAAAAAAAAAAAAAAAAAAAAAAAAAAAAAAAAAAAAAAAAAAAAAAAAAAAAAAAAAAAAAAAAAAAAAAAAAAAAAAAAAAAAAAAAAAAAAAAAAAAAAAAAAAAAAAAAAAAAAAAAAAAAAAAAAAAAAAAAAAAAAAAAAAAAAAAAAAAAAAAAAAAAAAAAAAAAAAAAAAAAAAAAAAAAAAAAAAAAAAAAAAAAAAAAAAAAAAAAAAAAAAAAAAAAAAAAAAAAAAAAAAAAAAAAAAAAAAAAAAAAAAAAAAAAAAAAAAAAAAAAAAAAAAAAAAAAAAAAAAAAAAAAAAAAAAAAAAAAAAAAAAAAAAAAAAAAAAAAAAAAAAAAAAAAAAAAAAAAAAAAAAAAAAAAAAAAAAAAAAAAAAAAAAAAAAAAAAAAAAAAAAAAAAAAAAAAAAAAAAAAAAAAAAAAAAAAAD///////7/AAYAAAABAAAAAAAAAP///////v8ABgAAAAEAAAAAAAAA///////+/wAGAAAAgAAAAA8wgEAAAAAAAAAAAAAAAAAAAAAAAAAAAAAAAAAAAAAAAAAAAAAAAAAAAAAAAAAAAAAAAAAAAAAAAAAAAAAAAAAAAAAAAAAAAAAAAAAAAAAAAAAAAAAAAAAAAAAAAAAAAAAAAAAAAAAAAAAAAAAAAAAAAAAAAAAAAAAAAAAAAAAAAAAAAAAAAAAAAAAAAAAAAAAAAAAAAAAAAAAAAAAAAAAAAAAAAAAAAAAAAAAAAAAAAAAAAAAAAAAAAAAAAAAAAAAAAAAAAAAAAAAAAAAAAAAAAAAAAAAAAAAAAAAAAAAAAAAAAAAAAAAAAAAAAAAAAAAAAAAAAAAAAAAAAAAAAAAAAAAAAAAAAAAAAAAAAAAAAAAAAAAAAAAAAAAAAAAAAAAAAAAAAAAAAAAAAAAAAAAAAAAAAAAAAAAAAAAAAAAAAAAAAAAAAAAAAAAAAAAAAAAAAAAAAAAAAAAAAAAAAAAAAAAAAAAAAAAAAAAAAAAAAAAAAAAAAAAAAAAAAAAAAAAAAAAAAAAAAAAAAAAAAAAAAAAAAAAAAAAAAAAAAAAAAAAAAAAAAAAAAAAAAAAAAAAAAAAAAAAAAAAAAAAAAAAAAAAAAAAAAAAAAAAAAAAAAAAAAAAAAAAAAAAAAAAAAAAAAAAAAAAAAAAAAAAAAAAAAAAAAAAAAAAAAAAAAAAA///////+/wAGAAAAgAAAAAAAIEEAAAAAAAAAAAAAAAAAAAAAAAAAAAAAAAAAAAAAAAAAAAAAAAAAAAAAAAAAAAAAAAAAAAAAAAAAAAAAAAAAAAAAAAAAAAAAAAAAAAAAAAAAAAAAAAAAAAAAAAAAAAAAAAAAAAAAAAAAAAAAAAAAAAAAAAAAAAAAAAAAAAAAAAAAAAAAAAAAAAAAAAAAAAAAAAAAAAAAAAAAAAAAAAAAAAAAAAAAAAAAAAAAAAAAAAAAAAAAAAAAAAAAAAAAAAAAAAAAAAAAAAAAAAAAAAAAAAAAAAAAAAAAAAAAAAAAAAAAAAAAAAAAAAAAAAAAAAAAAAAAAAAAAAAAAAAAAAAAAAAAAAAAAAAAAAAAAAAAAAAAAAAAAAAAAAAAAAAAAAAAAAAAAAAAAAAAAAAAAAAAAAAAAAAAAAAAAAAAAAAAAAAAAAAAAAAAAAAAAAAAAAAAAAAAAAAAAAAAAAAAAAAAAAAAAAAAAAAAAAAAAAAAAAAAAAAAAAAAAAAAAAAAAAAAAAAAAAAAAAAAAAAAAAAAAAAAAAAAAAAAAAAAAAAAAAAAAAAAAAAAAAAAAAAAAAAAAAAAAAAAAAAAAAAAAAAAAAAAAAAAAAAAAAAAAAAAAAAAAAAAAAAAAAAAAAAAAAAAAAAAAAAAAAAAAAAAAAAAAAAAAAAAAAAAAAAAAAAA///////+/wAGAAAAgAAAAAAAIEEAAAAAAAAAAAAAAAAAAAAAAAAAAAAAAAAAAAAAAAAAAAAAAAAAAAAAAAAAAAAAAAAAAAAAAAAAAAAAAAAAAAAAAAAAAAAAAAAAAAAAAAAAAAAAAAAAAAAAAAAAAAAAAAAAAAAAAAAAAAAAAAAAAAAAAAAAAAAAAAAAAAAAAAAAAAAAAAAAAAAAAAAAAAAAAAAAAAAAAAAAAAAAAAAAAAAAAAAAAAAAAAAAAAAAAAAAAAAAAAAAAAAAAAAAAAAAAAAAAAAAAAAAAAAAAAAAAAAAAAAAAAAAAAAAAAAAAAAAAAAAAAAAAAAAAAAAAAAAAAAAAAAAAAAAAAAAAAAAAAAAAAAAAAAAAAAAAAAAAAAAAAAAAAAAAAAAAAAAAAAAAAAAAAAAAAAAAAAAAAAAAAAAAAAAAAAAAAAAAAAAAAAAAAAAAAAAAAAAAAAAAAAAAAAAAAAAAAAAAAAAAAAAAAAAAAAAAAAAAAAAAAAAAAAAAAAAAAAAAAAAAAAAAAAAAAAAAAAAAAAAAAAAAAAAAAAAAAAAAAAAAAAAAAAAAAAAAAAAAAAAAAAAAAAAAAAAAAAAAAAAAAAAAAAAAAAAAAAAAAAAAAAAAAAAAAAAAAAAAAAAAAAAAAAAAAAAAAAAAAAAAAAAAAAAAAAAAAAAAAAAAAAAAAAAAAAAAAAA///////+/wAAAAAAgAAAAAAAAAAAAAAAAAAAAAAAAAAAAAAAAAAAAAAAAAAAAAAAAAAAAAAAAAAAAAAAAAAAAAAAAAAAAAAAAAAAAAAAAAAAAAAAAAAAAAAAAAAAAAAAAAAAAAAAAAAAAAAAAAAAAAAAAAAAAAAAAAAAAAAAAAAAAAAAAAAAAAAAAAAAAAAAAAAAAAAAAAAAAAAAAAAAAAAAAAAAAAAAAAAAAAAAAAAAAAAAAAAAAAAAAAAAAAAAAAAAAAAAAAAAAAAAAAAAAAAAAAAAAAAAAAAAAAAAAAAAAAAAAAAAAAAAAAAAAAAAAAAAAAAAAAAAAAAAAAAAAAAAAAAAAAAAAAAAAAAAAAAAAAAAAAAAAAAAAAAAAAAAAAAAAAAAAAAAAAAAAAAAAAAAAAAAAAAAAAAAAAAAAAAAAAAAAAAAAAAAAAAAAAAAAAAAAAAAAAAAAAAAAAAAAAAAAAAAAAAAAAAAAAAAAAAAAAAAAAAAAAAAAAAAAAAAAAAAAAAAAAAAAAAAAAAAAAAAAAAAAAAAAAAAAAAAAAAAAAAAAAAAAAAAAAAAAAAAAAAAAAAAAAAAAAAAAAAAAAAAAAAAAAAAAAAAAAAAAAAAAAAAAAAAAAAAAAAAAAAAAAAAAAAAAAAAAAAAAAAAAAAAAAAAAAAAAAAAAAAAAAAAAAAAAAAAAAAAAAAAAAAA///////+/wAGAAAAAQAAAAAAAAD///////7/AAYAAAABAAAAAAAAAP///////v8ABgAAAIAAAAAAACBBAAAAAAAAAAAAAAAAAAAAAAAAAAAAAAAAAAAAAAAAAAAAAAAAAAAAAAAAAAAAAAAAAAAAAAAAAAAAAAAAAAAAAAAAAAAAAAAAAAAAAAAAAAAAAAAAAAAAAAAAAAAAAAAAAAAAAAAAAAAAAAAAAAAAAAAAAAAAAAAAAAAAAAAAAAAAAAAAAAAAAAAAAAAAAAAAAAAAAAAAAAAAAAAAAAAAAAAAAAAAAAAAAAAAAAAAAAAAAAAAAAAAAAAAAAAAAAAAAAAAAAAAAAAAAAAAAAAAAAAAAAAAAAAAAAAAAAAAAAAAAAAAAAAAAAAAAAAAAAAAAAAAAAAAAAAAAAAAAAAAAAAAAAAAAAAAAAAAAAAAAAAAAAAAAAAAAAAAAAAAAAAAAAAAAAAAAAAAAAAAAAAAAAAAAAAAAAAAAAAAAAAAAAAAAAAAAAAAAAAAAAAAAAAAAAAAAAAAAAAAAAAAAAAAAAAAAAAAAAAAAAAAAAAAAAAAAAAAAAAAAAAAAAAAAAAAAAAAAAAAAAAAAAAAAAAAAAAAAAAAAAAAAAAAAAAAAAAAAAAAAAAAAAAAAAAAAAAAAAAAAAAAAAAAAAAAAAAAAAAAAAAAAAAAAAAAAAAAAAAAAAAAAAAAAAAAAAAAAAAAAAAAAAAAAAAAAAAAAAAAAAAAAAAAAAAAAAAAAP///////v8ABgAAAAEAAAAAAAAA///////+/wAGAAAAgAAAAAAAIEEAAAAAAAAAAAAAAAAAAAAAAAAAAAAAAAAAAAAAAAAAAAAAAAAAAAAAAAAAAAAAAAAAAAAAAAAAAAAAAAAAAAAAAAAAAAAAAAAAAAAAAAAAAAAAAAAAAAAAAAAAAAAAAAAAAAAAAAAAAAAAAAAAAAAAAAAAAAAAAAAAAAAAAAAAAAAAAAAAAAAAAAAAAAAAAAAAAAAAAAAAAAAAAAAAAAAAAAAAAAAAAAAAAAAAAAAAAAAAAAAAAAAAAAAAAAAAAAAAAAAAAAAAAAAAAAAAAAAAAAAAAAAAAAAAAAAAAAAAAAAAAAAAAAAAAAAAAAAAAAAAAAAAAAAAAAAAAAAAAAAAAAAAAAAAAAAAAAAAAAAAAAAAAAAAAAAAAAAAAAAAAAAAAAAAAAAAAAAAAAAAAAAAAAAAAAAAAAAAAAAAAAAAAAAAAAAAAAAAAAAAAAAAAAAAAAAAAAAAAAAAAAAAAAAAAAAAAAAAAAAAAAAAAAAAAAAAAAAAAAAAAAAAAAAAAAAAAAAAAAAAAAAAAAAAAAAAAAAAAAAAAAAAAAAAAAAAAAAAAAAAAAAAAAAAAAAAAAAAAAAAAAAAAAAAAAAAAAAAAAAAAAAAAAAAAAAAAAAAAAAAAAAAAAAAAAAAAAAAAAAAAAAAAAAAAAAAAAAAAAAAAAAAAAAAAAAAAAAA///////+/wAGAAAAAQAAAAAAAAD///////7/AAYAAAABAAAAAAAAAP///////v8ABgAAAAEAAAAAAAAA///////+/wAGAAAAgAAAAAAAIEEAAAAAAAAAAAAAAAAAAAAAAAAAAAAAAAAAAAAAAAAAAAAAAAAAAAAAAAAAAAAAAAAAAAAAAAAAAAAAAAAAAAAAAAAAAAAAAAAAAAAAAAAAAAAAAAAAAAAAAAAAAAAAAAAAAAAAAAAAAAAAAAAAAAAAAAAAAAAAAAAAAAAAAAAAAAAAAAAAAAAAAAAAAAAAAAAAAAAAAAAAAAAAAAAAAAAAAAAAAAAAAAAAAAAAAAAAAAAAAAAAAAAAAAAAAAAAAAAAAAAAAAAAAAAAAAAAAAAAAAAAAAAAAAAAAAAAAAAAAAAAAAAAAAAAAAAAAAAAAAAAAAAAAAAAAAAAAAAAAAAAAAAAAAAAAAAAAAAAAAAAAAAAAAAAAAAAAAAAAAAAAAAAAAAAAAAAAAAAAAAAAAAAAAAAAAAAAAAAAAAAAAAAAAAAAAAAAAAAAAAAAAAAAAAAAAAAAAAAAAAAAAAAAAAAAAAAAAAAAAAAAAAAAAAAAAAAAAAAAAAAAAAAAAAAAAAAAAAAAAAAAAAAAAAAAAAAAAAAAAAAAAAAAAAAAAAAAAAAAAAAAAAAAAAAAAAAAAAAAAAAAAAAAAAAAAAAAAAAAAAAAAAAAAAAAAAAAAAAAAAAAAAAAAAAAAAAAAAAAAAAAAAAAAAAAAAAAAAAAAAAAAAAAAAAAAAAAAAA///////+/wAGAAAAgAAAAPf/T0AAAAAAAAAAAAAAAAAAAAAAAAAAAAAAAAAAAAAAAAAAAAAAAAAAAAAAAAAAAAAAAAAAAAAAAAAAAAAAAAAAAAAAAAAAAAAAAAAAAAAAAAAAAAAAAAAAAAAAAAAAAAAAAAAAAAAAAAAAAAAAAAAAAAAAAAAAAAAAAAAAAAAAAAAAAAAAAAAAAAAAAAAAAAAAAAAAAAAAAAAAAAAAAAAAAAAAAAAAAAAAAAAAAAAAAAAAAAAAAAAAAAAAAAAAAAAAAAAAAAAAAAAAAAAAAAAAAAAAAAAAAAAAAAAAAAAAAAAAAAAAAAAAAAAAAAAAAAAAAAAAAAAAAAAAAAAAAAAAAAAAAAAAAAAAAAAAAAAAAAAAAAAAAAAAAAAAAAAAAAAAAAAAAAAAAAAAAAAAAAAAAAAAAAAAAAAAAAAAAAAAAAAAAAAAAAAAAAAAAAAAAAAAAAAAAAAAAAAAAAAAAAAAAAAAAAAAAAAAAAAAAAAAAAAAAAAAAAAAAAAAAAAAAAAAAAAAAAAAAAAAAAAAAAAAAAAAAAAAAAAAAAAAAAAAAAAAAAAAAAAAAAAAAAAAAAAAAAAAAAAAAAAAAAAAAAAAAAAAAAAAAAAAAAAAAAAAAAAAAAAAAAAAAAAAAAAAAAAAAAAAAAAAAAAAAAAAAAAAAAAAAAAAAAAAAAAAAAAA///////+/wAGAAAAgAAAAAAAIEEAAAAAAAAAAAAAAAAAAAAAAAAAAAAAAAAAAAAAAAAAAAAAAAAAAAAAAAAAAAAAAAAAAAAAAAAAAAAAAAAAAAAAAAAAAAAAAAAAAAAAAAAAAAAAAAAAAAAAAAAAAAAAAAAAAAAAAAAAAAAAAAAAAAAAAAAAAAAAAAAAAAAAAAAAAAAAAAAAAAAAAAAAAAAAAAAAAAAAAAAAAAAAAAAAAAAAAAAAAAAAAAAAAAAAAAAAAAAAAAAAAAAAAAAAAAAAAAAAAAAAAAAAAAAAAAAAAAAAAAAAAAAAAAAAAAAAAAAAAAAAAAAAAAAAAAAAAAAAAAAAAAAAAAAAAAAAAAAAAAAAAAAAAAAAAAAAAAAAAAAAAAAAAAAAAAAAAAAAAAAAAAAAAAAAAAAAAAAAAAAAAAAAAAAAAAAAAAAAAAAAAAAAAAAAAAAAAAAAAAAAAAAAAAAAAAAAAAAAAAAAAAAAAAAAAAAAAAAAAAAAAAAAAAAAAAAAAAAAAAAAAAAAAAAAAAAAAAAAAAAAAAAAAAAAAAAAAAAAAAAAAAAAAAAAAAAAAAAAAAAAAAAAAAAAAAAAAAAAAAAAAAAAAAAAAAAAAAAAAAAAAAAAAAAAAAAAAAAAAAAAAAAAAAAAAAAAAAAAAAAAAAAAAAAAAAAAAAAAAAAAAAAAAAAAAAAAAAAA///////+/wAGAAAAgAAAAAAAIEEAAAAAAAAAAAAAAAAAAAAAAAAAAAAAAAAAAAAAAAAAAAAAAAAAAAAAAAAAAAAAAAAAAAAAAAAAAAAAAAAAAAAAAAAAAAAAAAAAAAAAAAAAAAAAAAAAAAAAAAAAAAAAAAAAAAAAAAAAAAAAAAAAAAAAAAAAAAAAAAAAAAAAAAAAAAAAAAAAAAAAAAAAAAAAAAAAAAAAAAAAAAAAAAAAAAAAAAAAAAAAAAAAAAAAAAAAAAAAAAAAAAAAAAAAAAAAAAAAAAAAAAAAAAAAAAAAAAAAAAAAAAAAAAAAAAAAAAAAAAAAAAAAAAAAAAAAAAAAAAAAAAAAAAAAAAAAAAAAAAAAAAAAAAAAAAAAAAAAAAAAAAAAAAAAAAAAAAAAAAAAAAAAAAAAAAAAAAAAAAAAAAAAAAAAAAAAAAAAAAAAAAAAAAAAAAAAAAAAAAAAAAAAAAAAAAAAAAAAAAAAAAAAAAAAAAAAAAAAAAAAAAAAAAAAAAAAAAAAAAAAAAAAAAAAAAAAAAAAAAAAAAAAAAAAAAAAAAAAAAAAAAAAAAAAAAAAAAAAAAAAAAAAAAAAAAAAAAAAAAAAAAAAAAAAAAAAAAAAAAAAAAAAAAAAAAAAAAAAAAAAAAAAAAAAAAAAAAAAAAAAAAAAAAAAAAAAAAAAAAAAAAAAAAAAAAAAAAAA///////+/wA=" guivisible="0" program="0">
              <key/>
            </vestige>
          </instrument>
          <eldata ftype="0" fcut="14000" fres="0.5" fwet="0">
            <elvol ctlenvamt="0" pdel="0" lspd_numerator="4" rel="0.1" att="0" lpdel="0" dec="0.5" lspd_syncmode="0" lamt="0" lspd="0.1" sustain="0.5" userwavefile="" latt="0" hold="0.5" lshp="0" lspd_denominator="4" amt="0" x100="0"/>
            <elcut ctlenvamt="0" pdel="0" lspd_numerator="4" rel="0.1" att="0" lpdel="0" dec="0.5" lspd_syncmode="0" lamt="0" lspd="0.1" sustain="0.5" userwavefile="" latt="0" hold="0.5" lshp="0" lspd_denominator="4" amt="0" x100="0"/>
            <elres ctlenvamt="0" pdel="0" lspd_numerator="4" rel="0.1" att="0" lpdel="0" dec="0.5" lspd_syncmode="0" lamt="0" lspd="0.1" sustain="0.5" userwavefile="" latt="0" hold="0.5" lshp="0" lspd_denominator="4" amt="0" x100="0"/>
          </eldata>
          <chordcreator chordrange="1" chord-enabled="0" chord="0"/>
          <arpeggiator arptime_syncmode="0" arprepeats="1" arp-enabled="0" arpdir="0" arptime_denominator="4" arp="0" arpcycle="0" arprange="1" arpmiss="0" arptime_numerator="4" arptime="200" arpskip="0" arpmode="0" arpgate="100"/>
          <midiport basevelocity="63" readable="1" fixedoutputnote="-1" inputchannel="0" inputcontroller="0" fixedinputvelocity="-1" inports="" outputprogram="1" writable="0" outputchannel="1" fixedoutputvelocity="-1" outputcontroller="0"/>
          <fxchain numofeffects="0" enabled="0"/>
        </instrumenttrack>
        <midiclip muted="0" name="" pos="1920" steps="16" type="1">
          <note pos="0" len="10" key="34" pan="0" vol="100" type="0"/>
          <note pos="24" len="10" key="34" pan="0" vol="100" type="0"/>
          <note pos="48" len="10" key="29" pan="0" vol="100" type="0"/>
          <note pos="72" len="10" key="33" pan="0" vol="100" type="0"/>
          <note pos="96" len="10" key="34" pan="0" vol="100" type="0"/>
          <note pos="120" len="10" key="34" pan="0" vol="100" type="0"/>
          <note pos="144" len="10" key="36" pan="0" vol="100" type="0"/>
          <note pos="168" len="10" key="38" pan="0" vol="100" type="0"/>
          <note pos="192" len="10" key="33" pan="0" vol="100" type="0"/>
          <note pos="216" len="10" key="33" pan="0" vol="100" type="0"/>
          <note pos="240" len="10" key="28" pan="0" vol="100" type="0"/>
          <note pos="264" len="10" key="31" pan="0" vol="100" type="0"/>
          <note pos="288" len="10" key="33" pan="0" vol="100" type="0"/>
          <note pos="312" len="10" key="33" pan="0" vol="100" type="0"/>
          <note pos="336" len="10" key="35" pan="0" vol="100" type="0"/>
          <note pos="360" len="10" key="37" pan="0" vol="100" type="0"/>
          <note pos="384" len="10" key="38" pan="0" vol="100" type="0"/>
          <note pos="408" len="10" key="38" pan="0" vol="100" type="0"/>
          <note pos="432" len="10" key="26" pan="0" vol="100" type="0"/>
          <note pos="456" len="10" key="29" pan="0" vol="100" type="0"/>
          <note pos="480" len="10" key="31" pan="0" vol="100" type="0"/>
          <note pos="504" len="10" key="31" pan="0" vol="100" type="0"/>
          <note pos="528" len="10" key="33" pan="0" vol="100" type="0"/>
          <note pos="552" len="10" key="35" pan="0" vol="100" type="0"/>
          <note pos="576" len="10" key="31" pan="0" vol="100" type="0"/>
          <note pos="600" len="10" key="31" pan="0" vol="100" type="0"/>
          <note pos="624" len="10" key="35" pan="0" vol="100" type="0"/>
          <note pos="648" len="10" key="38" pan="0" vol="100" type="0"/>
          <note pos="672" len="10" key="26" pan="0" vol="100" type="0"/>
          <note pos="696" len="10" key="26" pan="0" vol="100" type="0"/>
          <note pos="720" len="10" key="29" pan="0" vol="100" type="0"/>
          <note pos="744" len="10" key="31" pan="0" vol="100" type="0"/>
          <note pos="768" len="10" key="34" pan="0" vol="100" type="0"/>
          <note pos="792" len="10" key="34" pan="0" vol="100" type="0"/>
          <note pos="816" len="10" key="29" pan="0" vol="100" type="0"/>
          <note pos="840" len="10" key="31" pan="0" vol="100" type="0"/>
          <note pos="864" len="10" key="34" pan="0" vol="100" type="0"/>
          <note pos="888" len="10" key="34" pan="0" vol="100" type="0"/>
          <note pos="912" len="10" key="36" pan="0" vol="100" type="0"/>
          <note pos="936" len="10" key="38" pan="0" vol="100" type="0"/>
          <note pos="960" len="10" key="33" pan="0" vol="100" type="0"/>
          <note pos="984" len="10" key="33" pan="0" vol="100" type="0"/>
          <note pos="1008" len="10" key="28" pan="0" vol="100" type="0"/>
          <note pos="1032" len="10" key="31" pan="0" vol="100" type="0"/>
          <note pos="1056" len="10" key="33" pan="0" vol="100" type="0"/>
          <note pos="1080" len="10" key="33" pan="0" vol="100" type="0"/>
          <note pos="1104" len="10" key="35" pan="0" vol="100" type="0"/>
          <note pos="1128" len="10" key="37" pan="0" vol="100" type="0"/>
          <note pos="1152" len="10" key="38" pan="0" vol="100" type="0"/>
          <note pos="1176" len="10" key="26" pan="0" vol="100" type="0"/>
          <note pos="1200" len="22" key="26" pan="0" vol="100" type="0"/>
          <note pos="1224" len="10" key="38" pan="0" vol="100" type="0"/>
          <note pos="1248" len="10" key="26" pan="0" vol="100" type="0"/>
          <note pos="1272" len="22" key="26" pan="0" vol="100" type="0"/>
          <note pos="1296" len="10" key="38" pan="0" vol="100" type="0"/>
          <note pos="1320" len="22" key="26" pan="0" vol="100" type="0"/>
          <note pos="1344" len="10" key="31" pan="0" vol="100" type="0"/>
          <note pos="1368" len="10" key="31" pan="0" vol="100" type="0"/>
          <note pos="1392" len="10" key="26" pan="0" vol="100" type="0"/>
          <note pos="1416" len="10" key="29" pan="0" vol="100" type="0"/>
          <note pos="1440" len="10" key="31" pan="0" vol="100" type="0"/>
          <note pos="1464" len="10" key="31" pan="0" vol="100" type="0"/>
          <note pos="1488" len="10" key="33" pan="0" vol="100" type="0"/>
          <note pos="1512" len="10" key="36" pan="0" vol="100" type="0"/>
        </midiclip>
        <midiclip muted="0" name="" pos="384" steps="16" type="1">
          <note pos="0" len="10" key="38" pan="0" vol="100" type="0"/>
          <note pos="24" len="10" key="38" pan="0" vol="100" type="0"/>
          <note pos="48" len="10" key="33" pan="0" vol="100" type="0"/>
          <note pos="72" len="10" key="36" pan="0" vol="100" type="0"/>
          <note pos="96" len="10" key="38" pan="0" vol="100" type="0"/>
          <note pos="120" len="10" key="38" pan="0" vol="100" type="0"/>
          <note pos="144" len="10" key="40" pan="0" vol="100" type="0"/>
          <note pos="168" len="10" key="41" pan="0" vol="100" type="0"/>
        </midiclip>
        <midiclip muted="0" name="" pos="576" steps="16" type="1">
          <note pos="0" len="10" key="38" pan="0" vol="100" type="0"/>
          <note pos="24" len="10" key="38" pan="0" vol="100" type="0"/>
          <note pos="48" len="10" key="33" pan="0" vol="100" type="0"/>
          <note pos="72" len="10" key="36" pan="0" vol="100" type="0"/>
          <note pos="96" len="10" key="38" pan="0" vol="100" type="0"/>
          <note pos="120" len="10" key="38" pan="0" vol="100" type="0"/>
          <note pos="144" len="10" key="40" pan="0" vol="100" type="0"/>
          <note pos="168" len="10" key="41" pan="0" vol="100" type="0"/>
        </midiclip>
        <midiclip muted="0" name="" pos="768" steps="16" type="1">
          <note pos="0" len="10" key="38" pan="0" vol="100" type="0"/>
          <note pos="24" len="10" key="38" pan="0" vol="100" type="0"/>
          <note pos="48" len="10" key="33" pan="0" vol="100" type="0"/>
          <note pos="72" len="10" key="36" pan="0" vol="100" type="0"/>
          <note pos="96" len="10" key="38" pan="0" vol="100" type="0"/>
          <note pos="120" len="10" key="38" pan="0" vol="100" type="0"/>
          <note pos="144" len="10" key="40" pan="0" vol="100" type="0"/>
          <note pos="168" len="10" key="41" pan="0" vol="100" type="0"/>
        </midiclip>
        <midiclip muted="0" name="" pos="960" steps="16" type="1">
          <note pos="0" len="10" key="38" pan="0" vol="100" type="0"/>
          <note pos="24" len="10" key="38" pan="0" vol="100" type="0"/>
          <note pos="48" len="10" key="33" pan="0" vol="100" type="0"/>
          <note pos="72" len="10" key="36" pan="0" vol="100" type="0"/>
          <note pos="96" len="10" key="38" pan="0" vol="100" type="0"/>
          <note pos="120" len="10" key="38" pan="0" vol="100" type="0"/>
          <note pos="144" len="10" key="40" pan="0" vol="100" type="0"/>
          <note pos="168" len="10" key="41" pan="0" vol="100" type="0"/>
        </midiclip>
        <midiclip muted="0" name="" pos="1152" steps="16" type="1">
          <note pos="0" len="10" key="38" pan="0" vol="100" type="0"/>
          <note pos="24" len="10" key="38" pan="0" vol="100" type="0"/>
          <note pos="48" len="10" key="33" pan="0" vol="100" type="0"/>
          <note pos="72" len="10" key="36" pan="0" vol="100" type="0"/>
          <note pos="96" len="10" key="38" pan="0" vol="100" type="0"/>
          <note pos="120" len="10" key="38" pan="0" vol="100" type="0"/>
          <note pos="144" len="10" key="40" pan="0" vol="100" type="0"/>
          <note pos="168" len="10" key="41" pan="0" vol="100" type="0"/>
        </midiclip>
        <midiclip muted="0" name="" pos="1344" steps="16" type="1">
          <note pos="0" len="10" key="38" pan="0" vol="100" type="0"/>
          <note pos="24" len="10" key="38" pan="0" vol="100" type="0"/>
          <note pos="48" len="10" key="33" pan="0" vol="100" type="0"/>
          <note pos="72" len="10" key="36" pan="0" vol="100" type="0"/>
          <note pos="96" len="10" key="38" pan="0" vol="100" type="0"/>
          <note pos="120" len="10" key="38" pan="0" vol="100" type="0"/>
          <note pos="144" len="10" key="40" pan="0" vol="100" type="0"/>
          <note pos="168" len="10" key="41" pan="0" vol="100" type="0"/>
        </midiclip>
        <midiclip muted="0" name="" pos="1536" steps="16" type="1">
          <note pos="0" len="10" key="38" pan="0" vol="100" type="0"/>
          <note pos="24" len="10" key="38" pan="0" vol="100" type="0"/>
          <note pos="48" len="10" key="33" pan="0" vol="100" type="0"/>
          <note pos="72" len="10" key="36" pan="0" vol="100" type="0"/>
          <note pos="96" len="10" key="38" pan="0" vol="100" type="0"/>
          <note pos="120" len="10" key="38" pan="0" vol="100" type="0"/>
          <note pos="144" len="10" key="40" pan="0" vol="100" type="0"/>
          <note pos="168" len="10" key="41" pan="0" vol="100" type="0"/>
        </midiclip>
        <midiclip muted="0" name="" pos="1728" steps="16" type="1">
          <note pos="0" len="10" key="38" pan="0" vol="100" type="0"/>
          <note pos="24" len="10" key="38" pan="0" vol="100" type="0"/>
          <note pos="48" len="10" key="33" pan="0" vol="100" type="0"/>
          <note pos="72" len="10" key="36" pan="0" vol="100" type="0"/>
          <note pos="96" len="10" key="38" pan="0" vol="100" type="0"/>
          <note pos="120" len="10" key="38" pan="0" vol="100" type="0"/>
          <note pos="144" len="10" key="40" pan="0" vol="100" type="0"/>
          <note pos="168" len="10" key="41" pan="0" vol="100" type="0"/>
        </midiclip>
        <midiclip muted="0" name="" pos="3456" steps="16" type="1">
          <note pos="0" len="10" key="34" pan="0" vol="100" type="0"/>
          <note pos="24" len="10" key="34" pan="0" vol="100" type="0"/>
          <note pos="48" len="10" key="29" pan="0" vol="100" type="0"/>
          <note pos="72" len="10" key="33" pan="0" vol="100" type="0"/>
          <note pos="96" len="10" key="34" pan="0" vol="100" type="0"/>
          <note pos="120" len="10" key="34" pan="0" vol="100" type="0"/>
          <note pos="144" len="10" key="36" pan="0" vol="100" type="0"/>
          <note pos="168" len="10" key="38" pan="0" vol="100" type="0"/>
          <note pos="192" len="10" key="33" pan="0" vol="100" type="0"/>
          <note pos="216" len="10" key="33" pan="0" vol="100" type="0"/>
          <note pos="240" len="10" key="28" pan="0" vol="100" type="0"/>
          <note pos="264" len="10" key="31" pan="0" vol="100" type="0"/>
          <note pos="288" len="10" key="33" pan="0" vol="100" type="0"/>
          <note pos="312" len="10" key="33" pan="0" vol="100" type="0"/>
          <note pos="336" len="10" key="35" pan="0" vol="100" type="0"/>
          <note pos="360" len="10" key="37" pan="0" vol="100" type="0"/>
          <note pos="384" len="10" key="38" pan="0" vol="100" type="0"/>
          <note pos="408" len="10" key="38" pan="0" vol="100" type="0"/>
          <note pos="432" len="10" key="26" pan="0" vol="100" type="0"/>
          <note pos="456" len="10" key="29" pan="0" vol="100" type="0"/>
          <note pos="480" len="10" key="31" pan="0" vol="100" type="0"/>
          <note pos="504" len="10" key="31" pan="0" vol="100" type="0"/>
          <note pos="528" len="10" key="33" pan="0" vol="100" type="0"/>
          <note pos="552" len="10" key="35" pan="0" vol="100" type="0"/>
          <note pos="576" len="10" key="31" pan="0" vol="100" type="0"/>
          <note pos="600" len="10" key="31" pan="0" vol="100" type="0"/>
          <note pos="624" len="10" key="35" pan="0" vol="100" type="0"/>
          <note pos="648" len="10" key="38" pan="0" vol="100" type="0"/>
          <note pos="672" len="10" key="26" pan="0" vol="100" type="0"/>
          <note pos="696" len="10" key="26" pan="0" vol="100" type="0"/>
          <note pos="720" len="10" key="29" pan="0" vol="100" type="0"/>
          <note pos="744" len="10" key="31" pan="0" vol="100" type="0"/>
          <note pos="768" len="10" key="34" pan="0" vol="100" type="0"/>
          <note pos="792" len="10" key="34" pan="0" vol="100" type="0"/>
          <note pos="816" len="10" key="29" pan="0" vol="100" type="0"/>
          <note pos="840" len="10" key="31" pan="0" vol="100" type="0"/>
          <note pos="864" len="10" key="34" pan="0" vol="100" type="0"/>
          <note pos="888" len="10" key="34" pan="0" vol="100" type="0"/>
          <note pos="912" len="10" key="36" pan="0" vol="100" type="0"/>
          <note pos="936" len="10" key="38" pan="0" vol="100" type="0"/>
          <note pos="960" len="10" key="33" pan="0" vol="100" type="0"/>
          <note pos="984" len="10" key="33" pan="0" vol="100" type="0"/>
          <note pos="1008" len="10" key="28" pan="0" vol="100" type="0"/>
          <note pos="1032" len="10" key="31" pan="0" vol="100" type="0"/>
          <note pos="1056" len="10" key="33" pan="0" vol="100" type="0"/>
          <note pos="1080" len="10" key="33" pan="0" vol="100" type="0"/>
          <note pos="1104" len="10" key="35" pan="0" vol="100" type="0"/>
          <note pos="1128" len="10" key="37" pan="0" vol="100" type="0"/>
          <note pos="1152" len="10" key="38" pan="0" vol="100" type="0"/>
          <note pos="1176" len="10" key="26" pan="0" vol="100" type="0"/>
          <note pos="1200" len="22" key="26" pan="0" vol="100" type="0"/>
          <note pos="1224" len="10" key="38" pan="0" vol="100" type="0"/>
          <note pos="1248" len="10" key="26" pan="0" vol="100" type="0"/>
          <note pos="1272" len="22" key="26" pan="0" vol="100" type="0"/>
          <note pos="1296" len="10" key="38" pan="0" vol="100" type="0"/>
          <note pos="1320" len="22" key="26" pan="0" vol="100" type="0"/>
          <note pos="1344" len="10" key="31" pan="0" vol="100" type="0"/>
          <note pos="1368" len="10" key="31" pan="0" vol="100" type="0"/>
          <note pos="1392" len="10" key="26" pan="0" vol="100" type="0"/>
          <note pos="1416" len="10" key="29" pan="0" vol="100" type="0"/>
          <note pos="1440" len="10" key="31" pan="0" vol="100" type="0"/>
          <note pos="1464" len="10" key="31" pan="0" vol="100" type="0"/>
          <note pos="1488" len="10" key="33" pan="0" vol="100" type="0"/>
          <note pos="1512" len="10" key="36" pan="0" vol="100" type="0"/>
        </midiclip>
        <midiclip muted="0" name="" pos="4992" steps="16" type="1">
          <note pos="0" len="10" key="38" pan="0" vol="100" type="0"/>
          <note pos="24" len="10" key="38" pan="0" vol="100" type="0"/>
          <note pos="48" len="10" key="33" pan="0" vol="100" type="0"/>
          <note pos="72" len="10" key="36" pan="0" vol="100" type="0"/>
          <note pos="96" len="10" key="38" pan="0" vol="100" type="0"/>
          <note pos="120" len="10" key="38" pan="0" vol="100" type="0"/>
          <note pos="144" len="10" key="40" pan="0" vol="100" type="0"/>
          <note pos="168" len="10" key="41" pan="0" vol="100" type="0"/>
        </midiclip>
        <midiclip muted="0" name="" pos="5184" steps="16" type="1">
          <note pos="0" len="10" key="38" pan="0" vol="100" type="0"/>
          <note pos="24" len="10" key="38" pan="0" vol="100" type="0"/>
          <note pos="48" len="10" key="33" pan="0" vol="100" type="0"/>
          <note pos="72" len="10" key="36" pan="0" vol="100" type="0"/>
          <note pos="96" len="10" key="38" pan="0" vol="100" type="0"/>
          <note pos="120" len="10" key="38" pan="0" vol="100" type="0"/>
          <note pos="144" len="10" key="40" pan="0" vol="100" type="0"/>
          <note pos="168" len="10" key="41" pan="0" vol="100" type="0"/>
        </midiclip>
        <midiclip muted="0" name="" pos="5376" steps="16" type="1">
          <note pos="0" len="10" key="38" pan="0" vol="100" type="0"/>
          <note pos="24" len="10" key="38" pan="0" vol="100" type="0"/>
          <note pos="48" len="10" key="33" pan="0" vol="100" type="0"/>
          <note pos="72" len="10" key="36" pan="0" vol="100" type="0"/>
          <note pos="96" len="10" key="38" pan="0" vol="100" type="0"/>
          <note pos="120" len="10" key="38" pan="0" vol="100" type="0"/>
          <note pos="144" len="10" key="40" pan="0" vol="100" type="0"/>
          <note pos="168" len="10" key="41" pan="0" vol="100" type="0"/>
        </midiclip>
        <midiclip muted="0" name="" pos="5568" steps="16" type="1">
          <note pos="0" len="10" key="38" pan="0" vol="100" type="0"/>
          <note pos="24" len="10" key="38" pan="0" vol="100" type="0"/>
          <note pos="48" len="10" key="33" pan="0" vol="100" type="0"/>
          <note pos="72" len="10" key="36" pan="0" vol="100" type="0"/>
          <note pos="96" len="10" key="38" pan="0" vol="100" type="0"/>
          <note pos="120" len="10" key="38" pan="0" vol="100" type="0"/>
          <note pos="144" len="10" key="40" pan="0" vol="100" type="0"/>
          <note pos="168" len="10" key="41" pan="0" vol="100" type="0"/>
        </midiclip>
        <midiclip muted="0" name="" pos="5760" steps="16" type="1">
          <note pos="0" len="10" key="38" pan="0" vol="100" type="0"/>
          <note pos="24" len="10" key="38" pan="0" vol="100" type="0"/>
          <note pos="48" len="10" key="33" pan="0" vol="100" type="0"/>
          <note pos="72" len="10" key="36" pan="0" vol="100" type="0"/>
          <note pos="96" len="10" key="38" pan="0" vol="100" type="0"/>
          <note pos="120" len="10" key="38" pan="0" vol="100" type="0"/>
          <note pos="144" len="10" key="40" pan="0" vol="100" type="0"/>
          <note pos="168" len="10" key="41" pan="0" vol="100" type="0"/>
        </midiclip>
        <midiclip muted="0" name="" pos="5952" steps="16" type="1">
          <note pos="0" len="10" key="38" pan="0" vol="100" type="0"/>
          <note pos="24" len="10" key="38" pan="0" vol="100" type="0"/>
          <note pos="48" len="10" key="33" pan="0" vol="100" type="0"/>
          <note pos="72" len="10" key="36" pan="0" vol="100" type="0"/>
          <note pos="96" len="10" key="38" pan="0" vol="100" type="0"/>
          <note pos="120" len="10" key="38" pan="0" vol="100" type="0"/>
          <note pos="144" len="10" key="40" pan="0" vol="100" type="0"/>
          <note pos="168" len="10" key="41" pan="0" vol="100" type="0"/>
        </midiclip>
        <midiclip muted="0" name="" pos="6144" steps="16" type="1">
          <note pos="0" len="10" key="38" pan="0" vol="100" type="0"/>
          <note pos="24" len="10" key="38" pan="0" vol="100" type="0"/>
          <note pos="48" len="10" key="33" pan="0" vol="100" type="0"/>
          <note pos="72" len="10" key="36" pan="0" vol="100" type="0"/>
          <note pos="96" len="10" key="38" pan="0" vol="100" type="0"/>
          <note pos="120" len="10" key="38" pan="0" vol="100" type="0"/>
          <note pos="144" len="10" key="40" pan="0" vol="100" type="0"/>
          <note pos="168" len="10" key="41" pan="0" vol="100" type="0"/>
        </midiclip>
        <midiclip muted="0" name="" pos="6336" steps="16" type="1">
          <note pos="0" len="10" key="38" pan="0" vol="100" type="0"/>
          <note pos="24" len="10" key="38" pan="0" vol="100" type="0"/>
          <note pos="48" len="10" key="33" pan="0" vol="100" type="0"/>
          <note pos="72" len="10" key="36" pan="0" vol="100" type="0"/>
          <note pos="96" len="10" key="38" pan="0" vol="100" type="0"/>
          <note pos="120" len="10" key="38" pan="0" vol="100" type="0"/>
          <note pos="144" len="10" key="40" pan="0" vol="100" type="0"/>
          <note pos="168" len="10" key="41" pan="0" vol="100" type="0"/>
        </midiclip>
        <midiclip muted="0" name="" pos="6528" steps="16" type="1">
          <note pos="0" len="10" key="38" pan="0" vol="100" type="0"/>
          <note pos="24" len="10" key="38" pan="0" vol="100" type="0"/>
          <note pos="48" len="10" key="33" pan="0" vol="100" type="0"/>
          <note pos="72" len="10" key="36" pan="0" vol="100" type="0"/>
          <note pos="96" len="10" key="38" pan="0" vol="100" type="0"/>
          <note pos="120" len="10" key="38" pan="0" vol="100" type="0"/>
          <note pos="144" len="10" key="40" pan="0" vol="100" type="0"/>
          <note pos="168" len="10" key="41" pan="0" vol="100" type="0"/>
        </midiclip>
        <midiclip muted="0" name="" pos="6720" steps="16" type="1">
          <note pos="0" len="10" key="38" pan="0" vol="100" type="0"/>
          <note pos="24" len="10" key="38" pan="0" vol="100" type="0"/>
          <note pos="48" len="10" key="33" pan="0" vol="100" type="0"/>
          <note pos="72" len="10" key="36" pan="0" vol="100" type="0"/>
          <note pos="96" len="10" key="38" pan="0" vol="100" type="0"/>
          <note pos="120" len="10" key="38" pan="0" vol="100" type="0"/>
          <note pos="144" len="10" key="40" pan="0" vol="100" type="0"/>
          <note pos="168" len="10" key="41" pan="0" vol="100" type="0"/>
        </midiclip>
        <midiclip muted="0" name="" pos="6912" steps="16" type="1">
          <note pos="0" len="10" key="38" pan="0" vol="100" type="0"/>
          <note pos="24" len="10" key="38" pan="0" vol="100" type="0"/>
          <note pos="48" len="10" key="33" pan="0" vol="100" type="0"/>
          <note pos="72" len="10" key="36" pan="0" vol="100" type="0"/>
          <note pos="96" len="10" key="38" pan="0" vol="100" type="0"/>
          <note pos="120" len="10" key="38" pan="0" vol="100" type="0"/>
          <note pos="144" len="10" key="40" pan="0" vol="100" type="0"/>
          <note pos="168" len="10" key="41" pan="0" vol="100" type="0"/>
        </midiclip>
        <midiclip muted="0" name="" pos="7104" steps="16" type="1">
          <note pos="0" len="10" key="38" pan="0" vol="100" type="0"/>
          <note pos="24" len="10" key="38" pan="0" vol="100" type="0"/>
          <note pos="48" len="10" key="33" pan="0" vol="100" type="0"/>
          <note pos="72" len="10" key="36" pan="0" vol="100" type="0"/>
          <note pos="96" len="10" key="38" pan="0" vol="100" type="0"/>
          <note pos="120" len="10" key="38" pan="0" vol="100" type="0"/>
          <note pos="144" len="10" key="40" pan="0" vol="100" type="0"/>
          <note pos="168" len="10" key="41" pan="0" vol="100" type="0"/>
        </midiclip>
        <midiclip muted="0" name="" pos="7296" steps="16" type="1">
          <note pos="0" len="10" key="38" pan="0" vol="100" type="0"/>
          <note pos="24" len="10" key="38" pan="0" vol="100" type="0"/>
          <note pos="48" len="10" key="33" pan="0" vol="100" type="0"/>
          <note pos="72" len="10" key="36" pan="0" vol="100" type="0"/>
          <note pos="96" len="10" key="38" pan="0" vol="100" type="0"/>
          <note pos="120" len="10" key="38" pan="0" vol="100" type="0"/>
          <note pos="144" len="10" key="40" pan="0" vol="100" type="0"/>
          <note pos="168" len="10" key="41" pan="0" vol="100" type="0"/>
        </midiclip>
        <midiclip muted="0" name="" pos="7488" steps="16" type="1">
          <note pos="0" len="10" key="38" pan="0" vol="100" type="0"/>
          <note pos="24" len="10" key="38" pan="0" vol="100" type="0"/>
          <note pos="48" len="10" key="33" pan="0" vol="100" type="0"/>
          <note pos="72" len="10" key="36" pan="0" vol="100" type="0"/>
          <note pos="96" len="10" key="38" pan="0" vol="100" type="0"/>
          <note pos="120" len="10" key="38" pan="0" vol="100" type="0"/>
          <note pos="144" len="10" key="40" pan="0" vol="100" type="0"/>
          <note pos="168" len="10" key="41" pan="0" vol="100" type="0"/>
        </midiclip>
        <midiclip muted="0" name="" pos="7680" steps="16" type="1">
          <note pos="0" len="10" key="38" pan="0" vol="100" type="0"/>
          <note pos="24" len="10" key="38" pan="0" vol="100" type="0"/>
          <note pos="48" len="10" key="33" pan="0" vol="100" type="0"/>
          <note pos="72" len="10" key="36" pan="0" vol="100" type="0"/>
          <note pos="96" len="10" key="38" pan="0" vol="100" type="0"/>
          <note pos="120" len="10" key="38" pan="0" vol="100" type="0"/>
          <note pos="144" len="10" key="40" pan="0" vol="100" type="0"/>
          <note pos="168" len="10" key="41" pan="0" vol="100" type="0"/>
        </midiclip>
        <midiclip muted="0" name="" pos="7872" steps="16" type="1">
          <note pos="0" len="10" key="38" pan="0" vol="100" type="0"/>
          <note pos="24" len="10" key="38" pan="0" vol="100" type="0"/>
          <note pos="48" len="10" key="33" pan="0" vol="100" type="0"/>
          <note pos="72" len="10" key="36" pan="0" vol="100" type="0"/>
          <note pos="96" len="10" key="38" pan="0" vol="100" type="0"/>
          <note pos="120" len="10" key="38" pan="0" vol="100" type="0"/>
          <note pos="144" len="10" key="40" pan="0" vol="100" type="0"/>
          <note pos="168" len="10" key="41" pan="0" vol="100" type="0"/>
        </midiclip>
        <midiclip muted="0" name="" pos="8064" steps="16" type="1">
          <note pos="0" len="10" key="38" pan="0" vol="100" type="0"/>
          <note pos="24" len="10" key="38" pan="0" vol="100" type="0"/>
          <note pos="48" len="10" key="33" pan="0" vol="100" type="0"/>
          <note pos="72" len="10" key="36" pan="0" vol="100" type="0"/>
          <note pos="96" len="10" key="38" pan="0" vol="100" type="0"/>
          <note pos="120" len="10" key="38" pan="0" vol="100" type="0"/>
          <note pos="144" len="10" key="40" pan="0" vol="100" type="0"/>
          <note pos="168" len="10" key="41" pan="0" vol="100" type="0"/>
        </midiclip>
        <midiclip muted="0" name="" pos="8256" steps="16" type="1">
          <note pos="0" len="10" key="38" pan="0" vol="100" type="0"/>
          <note pos="24" len="10" key="38" pan="0" vol="100" type="0"/>
          <note pos="48" len="10" key="33" pan="0" vol="100" type="0"/>
          <note pos="72" len="10" key="36" pan="0" vol="100" type="0"/>
          <note pos="96" len="10" key="38" pan="0" vol="100" type="0"/>
          <note pos="120" len="10" key="38" pan="0" vol="100" type="0"/>
          <note pos="144" len="10" key="40" pan="0" vol="100" type="0"/>
          <note pos="168" len="10" key="41" pan="0" vol="100" type="0"/>
        </midiclip>
        <midiclip muted="0" name="" pos="11520" steps="16" type="1">
          <note pos="0" len="10" key="26" pan="0" vol="100" type="0"/>
          <note pos="24" len="10" key="26" pan="0" vol="100" type="0"/>
          <note pos="48" len="10" key="26" pan="0" vol="100" type="0"/>
          <note pos="72" len="10" key="26" pan="0" vol="100" type="0"/>
          <note pos="96" len="10" key="26" pan="0" vol="100" type="0"/>
          <note pos="120" len="10" key="26" pan="0" vol="100" type="0"/>
          <note pos="144" len="10" key="26" pan="0" vol="100" type="0"/>
          <note pos="168" len="10" key="26" pan="0" vol="100" type="0"/>
        </midiclip>
        <midiclip muted="0" name="" pos="11712" steps="16" type="1">
          <note pos="0" len="10" key="26" pan="0" vol="100" type="0"/>
          <note pos="24" len="10" key="26" pan="0" vol="100" type="0"/>
          <note pos="48" len="10" key="26" pan="0" vol="100" type="0"/>
          <note pos="72" len="10" key="26" pan="0" vol="100" type="0"/>
          <note pos="96" len="10" key="26" pan="0" vol="100" type="0"/>
          <note pos="120" len="10" key="26" pan="0" vol="100" type="0"/>
          <note pos="144" len="10" key="26" pan="0" vol="100" type="0"/>
          <note pos="168" len="10" key="26" pan="0" vol="100" type="0"/>
        </midiclip>
        <midiclip muted="0" name="" pos="11904" steps="16" type="1">
          <note pos="0" len="10" key="26" pan="0" vol="100" type="0"/>
          <note pos="24" len="10" key="26" pan="0" vol="100" type="0"/>
          <note pos="48" len="10" key="26" pan="0" vol="100" type="0"/>
          <note pos="72" len="10" key="26" pan="0" vol="100" type="0"/>
          <note pos="96" len="10" key="26" pan="0" vol="100" type="0"/>
          <note pos="120" len="10" key="26" pan="0" vol="100" type="0"/>
          <note pos="144" len="10" key="26" pan="0" vol="100" type="0"/>
          <note pos="168" len="10" key="26" pan="0" vol="100" type="0"/>
        </midiclip>
        <midiclip muted="0" name="" pos="12096" steps="16" type="1">
          <note pos="0" len="10" key="26" pan="0" vol="100" type="0"/>
          <note pos="24" len="10" key="26" pan="0" vol="100" type="0"/>
          <note pos="48" len="10" key="26" pan="0" vol="100" type="0"/>
          <note pos="72" len="10" key="26" pan="0" vol="100" type="0"/>
          <note pos="96" len="10" key="26" pan="0" vol="100" type="0"/>
          <note pos="120" len="10" key="26" pan="0" vol="100" type="0"/>
          <note pos="144" len="10" key="26" pan="0" vol="100" type="0"/>
          <note pos="168" len="10" key="26" pan="0" vol="100" type="0"/>
        </midiclip>
        <midiclip muted="0" name="" pos="12288" steps="16" type="1">
          <note pos="0" len="10" key="26" pan="0" vol="100" type="0"/>
          <note pos="24" len="10" key="26" pan="0" vol="100" type="0"/>
          <note pos="48" len="10" key="26" pan="0" vol="100" type="0"/>
          <note pos="72" len="10" key="26" pan="0" vol="100" type="0"/>
          <note pos="96" len="10" key="26" pan="0" vol="100" type="0"/>
          <note pos="120" len="10" key="26" pan="0" vol="100" type="0"/>
          <note pos="144" len="10" key="26" pan="0" vol="100" type="0"/>
          <note pos="168" len="10" key="26" pan="0" vol="100" type="0"/>
        </midiclip>
        <midiclip muted="0" name="" pos="12480" steps="16" type="1">
          <note pos="0" len="10" key="26" pan="0" vol="100" type="0"/>
          <note pos="24" len="10" key="26" pan="0" vol="100" type="0"/>
          <note pos="48" len="10" key="26" pan="0" vol="100" type="0"/>
          <note pos="72" len="10" key="26" pan="0" vol="100" type="0"/>
          <note pos="96" len="10" key="26" pan="0" vol="100" type="0"/>
          <note pos="120" len="10" key="26" pan="0" vol="100" type="0"/>
          <note pos="144" len="10" key="26" pan="0" vol="100" type="0"/>
          <note pos="168" len="10" key="26" pan="0" vol="100" type="0"/>
        </midiclip>
        <midiclip muted="0" name="" pos="12672" steps="16" type="1">
          <note pos="0" len="10" key="26" pan="0" vol="100" type="0"/>
          <note pos="24" len="10" key="26" pan="0" vol="100" type="0"/>
          <note pos="48" len="10" key="26" pan="0" vol="100" type="0"/>
          <note pos="72" len="10" key="26" pan="0" vol="100" type="0"/>
          <note pos="96" len="10" key="26" pan="0" vol="100" type="0"/>
          <note pos="120" len="10" key="26" pan="0" vol="100" type="0"/>
          <note pos="144" len="10" key="26" pan="0" vol="100" type="0"/>
          <note pos="168" len="10" key="26" pan="0" vol="100" type="0"/>
        </midiclip>
        <midiclip muted="0" name="" pos="12864" steps="16" type="1">
          <note pos="0" len="10" key="26" pan="0" vol="100" type="0"/>
          <note pos="24" len="10" key="26" pan="0" vol="100" type="0"/>
          <note pos="48" len="10" key="26" pan="0" vol="100" type="0"/>
          <note pos="72" len="10" key="26" pan="0" vol="100" type="0"/>
          <note pos="96" len="10" key="26" pan="0" vol="100" type="0"/>
          <note pos="120" len="10" key="26" pan="0" vol="100" type="0"/>
          <note pos="144" len="10" key="26" pan="0" vol="100" type="0"/>
          <note pos="168" len="10" key="26" pan="0" vol="100" type="0"/>
        </midiclip>
        <midiclip muted="0" name="" pos="0" steps="16" type="1">
          <note pos="0" len="10" key="38" pan="0" vol="100" type="0"/>
          <note pos="24" len="10" key="38" pan="0" vol="100" type="0"/>
          <note pos="48" len="10" key="33" pan="0" vol="100" type="0"/>
          <note pos="72" len="10" key="36" pan="0" vol="100" type="0"/>
          <note pos="96" len="10" key="38" pan="0" vol="100" type="0"/>
          <note pos="120" len="10" key="38" pan="0" vol="100" type="0"/>
          <note pos="144" len="10" key="40" pan="0" vol="100" type="0"/>
          <note pos="168" len="10" key="41" pan="0" vol="100" type="0"/>
        </midiclip>
        <midiclip muted="0" name="" pos="192" steps="16" type="1">
          <note pos="0" len="10" key="38" pan="0" vol="100" type="0"/>
          <note pos="24" len="10" key="38" pan="0" vol="100" type="0"/>
          <note pos="48" len="10" key="33" pan="0" vol="100" type="0"/>
          <note pos="72" len="10" key="36" pan="0" vol="100" type="0"/>
          <note pos="96" len="10" key="38" pan="0" vol="100" type="0"/>
          <note pos="120" len="10" key="38" pan="0" vol="100" type="0"/>
          <note pos="144" len="10" key="40" pan="0" vol="100" type="0"/>
          <note pos="168" len="10" key="41" pan="0" vol="100" type="0"/>
        </midiclip>
        <midiclip muted="0" name="" pos="8448" steps="16" type="1">
          <note pos="0" len="10" key="34" pan="0" vol="100" type="0"/>
          <note pos="24" len="10" key="34" pan="0" vol="100" type="0"/>
          <note pos="48" len="10" key="29" pan="0" vol="100" type="0"/>
          <note pos="72" len="10" key="33" pan="0" vol="100" type="0"/>
          <note pos="96" len="10" key="34" pan="0" vol="100" type="0"/>
          <note pos="120" len="10" key="34" pan="0" vol="100" type="0"/>
          <note pos="144" len="10" key="36" pan="0" vol="100" type="0"/>
          <note pos="168" len="10" key="38" pan="0" vol="100" type="0"/>
          <note pos="192" len="10" key="33" pan="0" vol="100" type="0"/>
          <note pos="216" len="10" key="33" pan="0" vol="100" type="0"/>
          <note pos="240" len="10" key="28" pan="0" vol="100" type="0"/>
          <note pos="264" len="10" key="31" pan="0" vol="100" type="0"/>
          <note pos="288" len="10" key="33" pan="0" vol="100" type="0"/>
          <note pos="312" len="10" key="33" pan="0" vol="100" type="0"/>
          <note pos="336" len="10" key="35" pan="0" vol="100" type="0"/>
          <note pos="360" len="10" key="37" pan="0" vol="100" type="0"/>
          <note pos="384" len="10" key="38" pan="0" vol="100" type="0"/>
          <note pos="408" len="10" key="38" pan="0" vol="100" type="0"/>
          <note pos="432" len="10" key="26" pan="0" vol="100" type="0"/>
          <note pos="456" len="10" key="29" pan="0" vol="100" type="0"/>
          <note pos="480" len="10" key="31" pan="0" vol="100" type="0"/>
          <note pos="504" len="10" key="31" pan="0" vol="100" type="0"/>
          <note pos="528" len="10" key="33" pan="0" vol="100" type="0"/>
          <note pos="552" len="10" key="35" pan="0" vol="100" type="0"/>
          <note pos="576" len="10" key="31" pan="0" vol="100" type="0"/>
          <note pos="600" len="10" key="31" pan="0" vol="100" type="0"/>
          <note pos="624" len="10" key="35" pan="0" vol="100" type="0"/>
          <note pos="648" len="10" key="38" pan="0" vol="100" type="0"/>
          <note pos="672" len="10" key="26" pan="0" vol="100" type="0"/>
          <note pos="696" len="10" key="26" pan="0" vol="100" type="0"/>
          <note pos="720" len="10" key="29" pan="0" vol="100" type="0"/>
          <note pos="744" len="10" key="31" pan="0" vol="100" type="0"/>
          <note pos="768" len="10" key="34" pan="0" vol="100" type="0"/>
          <note pos="792" len="10" key="34" pan="0" vol="100" type="0"/>
          <note pos="816" len="10" key="29" pan="0" vol="100" type="0"/>
          <note pos="840" len="10" key="31" pan="0" vol="100" type="0"/>
          <note pos="864" len="10" key="34" pan="0" vol="100" type="0"/>
          <note pos="888" len="10" key="34" pan="0" vol="100" type="0"/>
          <note pos="912" len="10" key="36" pan="0" vol="100" type="0"/>
          <note pos="936" len="10" key="38" pan="0" vol="100" type="0"/>
          <note pos="960" len="10" key="33" pan="0" vol="100" type="0"/>
          <note pos="984" len="10" key="33" pan="0" vol="100" type="0"/>
          <note pos="1008" len="10" key="28" pan="0" vol="100" type="0"/>
          <note pos="1032" len="10" key="31" pan="0" vol="100" type="0"/>
          <note pos="1056" len="10" key="33" pan="0" vol="100" type="0"/>
          <note pos="1080" len="10" key="33" pan="0" vol="100" type="0"/>
          <note pos="1104" len="10" key="35" pan="0" vol="100" type="0"/>
          <note pos="1128" len="10" key="37" pan="0" vol="100" type="0"/>
          <note pos="1152" len="10" key="38" pan="0" vol="100" type="0"/>
          <note pos="1176" len="10" key="26" pan="0" vol="100" type="0"/>
          <note pos="1200" len="22" key="26" pan="0" vol="100" type="0"/>
          <note pos="1224" len="10" key="38" pan="0" vol="100" type="0"/>
          <note pos="1248" len="10" key="26" pan="0" vol="100" type="0"/>
          <note pos="1272" len="22" key="26" pan="0" vol="100" type="0"/>
          <note pos="1296" len="10" key="38" pan="0" vol="100" type="0"/>
          <note pos="1320" len="22" key="26" pan="0" vol="100" type="0"/>
          <note pos="1344" len="10" key="31" pan="0" vol="100" type="0"/>
          <note pos="1368" len="10" key="31" pan="0" vol="100" type="0"/>
          <note pos="1392" len="10" key="26" pan="0" vol="100" type="0"/>
          <note pos="1416" len="10" key="29" pan="0" vol="100" type="0"/>
          <note pos="1440" len="10" key="31" pan="0" vol="100" type="0"/>
          <note pos="1464" len="10" key="31" pan="0" vol="100" type="0"/>
          <note pos="1488" len="10" key="33" pan="0" vol="100" type="0"/>
          <note pos="1512" len="10" key="36" pan="0" vol="100" type="0"/>
        </midiclip>
        <midiclip muted="0" name="" pos="9984" steps="16" type="1">
          <note pos="0" len="10" key="34" pan="0" vol="100" type="0"/>
          <note pos="24" len="10" key="34" pan="0" vol="100" type="0"/>
          <note pos="48" len="10" key="29" pan="0" vol="100" type="0"/>
          <note pos="72" len="10" key="33" pan="0" vol="100" type="0"/>
          <note pos="96" len="10" key="34" pan="0" vol="100" type="0"/>
          <note pos="120" len="10" key="34" pan="0" vol="100" type="0"/>
          <note pos="144" len="10" key="36" pan="0" vol="100" type="0"/>
          <note pos="168" len="10" key="38" pan="0" vol="100" type="0"/>
          <note pos="192" len="10" key="33" pan="0" vol="100" type="0"/>
          <note pos="216" len="10" key="33" pan="0" vol="100" type="0"/>
          <note pos="240" len="10" key="28" pan="0" vol="100" type="0"/>
          <note pos="264" len="10" key="31" pan="0" vol="100" type="0"/>
          <note pos="288" len="10" key="33" pan="0" vol="100" type="0"/>
          <note pos="312" len="10" key="33" pan="0" vol="100" type="0"/>
          <note pos="336" len="10" key="35" pan="0" vol="100" type="0"/>
          <note pos="360" len="10" key="37" pan="0" vol="100" type="0"/>
          <note pos="384" len="10" key="38" pan="0" vol="100" type="0"/>
          <note pos="408" len="10" key="38" pan="0" vol="100" type="0"/>
          <note pos="432" len="10" key="26" pan="0" vol="100" type="0"/>
          <note pos="456" len="10" key="29" pan="0" vol="100" type="0"/>
          <note pos="480" len="10" key="31" pan="0" vol="100" type="0"/>
          <note pos="504" len="10" key="31" pan="0" vol="100" type="0"/>
          <note pos="528" len="10" key="33" pan="0" vol="100" type="0"/>
          <note pos="552" len="10" key="35" pan="0" vol="100" type="0"/>
          <note pos="576" len="10" key="31" pan="0" vol="100" type="0"/>
          <note pos="600" len="10" key="31" pan="0" vol="100" type="0"/>
          <note pos="624" len="10" key="35" pan="0" vol="100" type="0"/>
          <note pos="648" len="10" key="38" pan="0" vol="100" type="0"/>
          <note pos="672" len="10" key="26" pan="0" vol="100" type="0"/>
          <note pos="696" len="10" key="26" pan="0" vol="100" type="0"/>
          <note pos="720" len="10" key="29" pan="0" vol="100" type="0"/>
          <note pos="744" len="10" key="31" pan="0" vol="100" type="0"/>
          <note pos="768" len="10" key="34" pan="0" vol="100" type="0"/>
          <note pos="792" len="10" key="34" pan="0" vol="100" type="0"/>
          <note pos="816" len="10" key="29" pan="0" vol="100" type="0"/>
          <note pos="840" len="10" key="31" pan="0" vol="100" type="0"/>
          <note pos="864" len="10" key="34" pan="0" vol="100" type="0"/>
          <note pos="888" len="10" key="34" pan="0" vol="100" type="0"/>
          <note pos="912" len="10" key="36" pan="0" vol="100" type="0"/>
          <note pos="936" len="10" key="38" pan="0" vol="100" type="0"/>
          <note pos="960" len="10" key="33" pan="0" vol="100" type="0"/>
          <note pos="984" len="10" key="33" pan="0" vol="100" type="0"/>
          <note pos="1008" len="10" key="28" pan="0" vol="100" type="0"/>
          <note pos="1032" len="10" key="31" pan="0" vol="100" type="0"/>
          <note pos="1056" len="10" key="33" pan="0" vol="100" type="0"/>
          <note pos="1080" len="10" key="33" pan="0" vol="100" type="0"/>
          <note pos="1104" len="10" key="35" pan="0" vol="100" type="0"/>
          <note pos="1128" len="10" key="37" pan="0" vol="100" type="0"/>
          <note pos="1152" len="10" key="38" pan="0" vol="100" type="0"/>
          <note pos="1176" len="10" key="26" pan="0" vol="100" type="0"/>
          <note pos="1200" len="22" key="26" pan="0" vol="100" type="0"/>
          <note pos="1224" len="10" key="38" pan="0" vol="100" type="0"/>
          <note pos="1248" len="10" key="26" pan="0" vol="100" type="0"/>
          <note pos="1272" len="22" key="26" pan="0" vol="100" type="0"/>
          <note pos="1296" len="10" key="38" pan="0" vol="100" type="0"/>
          <note pos="1320" len="22" key="26" pan="0" vol="100" type="0"/>
          <note pos="1344" len="10" key="31" pan="0" vol="100" type="0"/>
          <note pos="1368" len="10" key="31" pan="0" vol="100" type="0"/>
          <note pos="1392" len="10" key="26" pan="0" vol="100" type="0"/>
          <note pos="1416" len="10" key="29" pan="0" vol="100" type="0"/>
          <note pos="1440" len="10" key="31" pan="0" vol="100" type="0"/>
          <note pos="1464" len="10" key="31" pan="0" vol="100" type="0"/>
          <note pos="1488" len="10" key="33" pan="0" vol="100" type="0"/>
          <note pos="1512" len="10" key="36" pan="0" vol="100" type="0"/>
        </midiclip>
      </track>
      <track muted="0" mutedBeforeSolo="0" name="Drums>BD" trackheight="32" solo="0" type="0">
        <instrumenttrack usemasterpitch="0" scale="0" range_import="1" firstkey="36" lastkey="36" keymap="0" enablecc="0" pan="0" enabled="0" pitch="-100" pitchrange="1" basenote="69" vol="100" mixch="5">
          <midicontrollers cc10="0" cc92="0" cc121="0" cc11="0" cc35="0" cc80="0" cc4="0" cc57="0" cc34="0" cc50="0" cc12="0" cc70="0" cc117="0" cc75="0" cc124="0" cc3="0" cc0="0" cc89="0" cc21="0" cc56="0" cc44="0" cc78="0" cc36="0" cc38="0" cc88="0" cc48="0" cc27="0" cc67="0" cc82="0" cc42="0" cc99="0" cc112="0" cc45="0" cc39="0" cc127="0" cc73="0" cc58="0" cc13="0" cc61="0" cc116="0" cc8="0" cc63="0" cc111="0" cc60="0" cc72="0" cc97="0" cc114="0" cc115="0" cc76="0" cc69="0" cc20="0" cc106="0" cc79="0" cc24="0" cc81="0" cc19="0" cc87="0" cc107="0" cc46="0" cc47="0" cc83="0" cc93="0" cc102="0" cc65="0" cc1="0" cc18="0" cc85="0" cc94="0" cc64="0" cc66="0" cc16="0" cc84="0" cc98="0" cc110="0" cc9="0" cc126="0" cc2="0" cc29="0" cc25="0" cc43="0" cc59="0" cc62="0" cc53="0" cc105="0" cc40="0" cc54="0" cc120="0" cc90="0" cc86="0" cc100="0" cc49="0" cc22="0" cc41="0" cc108="0" cc77="0" cc95="0" cc109="0" cc15="0" cc104="0" cc119="0" cc125="0" cc68="0" cc122="0" cc17="0" cc74="0" cc28="0" cc14="0" cc26="0" cc32="0" cc5="0" cc123="0" cc101="0" cc33="0" cc51="0" cc37="0" cc96="0" cc103="0" cc30="0" cc71="0" cc6="0" cc52="0" cc113="0" cc31="0" cc91="0" cc23="0" cc7="0" cc55="0" cc118="0"/>
          <instrument name="sf2player">
            <sf2player reverbRoomSize="0.2" chorusNum="3" reverbOn="0" gain="0.36000001" reverbDamping="0" chorusSpeed="0.30000001" chorusOn="0" src="usersoundfont:FluidR3 GM.sf2" chorusDepth="8" bank="128" reverbLevel="0.89999998" patch="17" reverbWidth="0.5" chorusLevel="2">
              <key/>
            </sf2player>
          </instrument>
          <eldata ftype="0" fcut="14000" fres="0.5" fwet="0">
            <elvol ctlenvamt="0" pdel="0" lspd_numerator="4" rel="0.1" att="0" lpdel="0" dec="0.5" lspd_syncmode="0" lamt="0" lspd="0.1" sustain="0.5" userwavefile="" latt="0" hold="0.5" lshp="0" lspd_denominator="4" amt="0" x100="0"/>
            <elcut ctlenvamt="0" pdel="0" lspd_numerator="4" rel="0.1" att="0" lpdel="0" dec="0.5" lspd_syncmode="0" lamt="0" lspd="0.1" sustain="0.5" userwavefile="" latt="0" hold="0.5" lshp="0" lspd_denominator="4" amt="0" x100="0"/>
            <elres ctlenvamt="0" pdel="0" lspd_numerator="4" rel="0.1" att="0" lpdel="0" dec="0.5" lspd_syncmode="0" lamt="0" lspd="0.1" sustain="0.5" userwavefile="" latt="0" hold="0.5" lshp="0" lspd_denominator="4" amt="0" x100="0"/>
          </eldata>
          <chordcreator chordrange="1" chord-enabled="0" chord="0"/>
          <arpeggiator arptime_syncmode="0" arprepeats="1" arp-enabled="0" arpdir="0" arptime_denominator="4" arp="0" arpcycle="0" arprange="1" arpmiss="0" arptime_numerator="4" arptime="200" arpskip="0" arpmode="0" arpgate="100"/>
          <midiport basevelocity="127" readable="1" fixedoutputnote="-1" inputchannel="0" inputcontroller="0" fixedinputvelocity="-1" inports="" outputprogram="1" writable="0" outputchannel="1" fixedoutputvelocity="-1" outputcontroller="0"/>
          <fxchain numofeffects="0" enabled="0"/>
        </instrumenttrack>
        <midiclip muted="0" name="" pos="1920" steps="16" type="1">
          <note pos="0" len="24" key="36" pan="0" vol="100" type="0"/>
          <note pos="24" len="24" key="54" pan="0" vol="100" type="0"/>
          <note pos="48" len="24" key="52" pan="0" vol="100" type="0"/>
          <note pos="72" len="24" key="36" pan="0" vol="100" type="0"/>
          <note pos="96" len="24" key="42" pan="0" vol="100" type="0"/>
          <note pos="120" len="24" key="52" pan="0" vol="100" type="0"/>
          <note pos="144" len="24" key="36" pan="0" vol="100" type="0"/>
          <note pos="192" len="24" key="36" pan="0" vol="100" type="0"/>
          <note pos="216" len="24" key="54" pan="0" vol="100" type="0"/>
          <note pos="240" len="24" key="52" pan="0" vol="100" type="0"/>
          <note pos="264" len="24" key="36" pan="0" vol="100" type="0"/>
          <note pos="288" len="24" key="42" pan="0" vol="100" type="0"/>
          <note pos="312" len="24" key="52" pan="0" vol="100" type="0"/>
          <note pos="336" len="24" key="46" pan="0" vol="100" type="0"/>
          <note pos="336" len="24" key="36" pan="0" vol="100" type="0"/>
          <note pos="360" len="24" key="44" pan="0" vol="100" type="0"/>
        </midiclip>
        <midiclip muted="0" name="" pos="2304" steps="16" type="1">
          <note pos="0" len="24" key="36" pan="0" vol="100" type="0"/>
          <note pos="24" len="24" key="54" pan="0" vol="100" type="0"/>
          <note pos="48" len="24" key="52" pan="0" vol="100" type="0"/>
          <note pos="72" len="24" key="36" pan="0" vol="100" type="0"/>
          <note pos="96" len="24" key="42" pan="0" vol="100" type="0"/>
          <note pos="120" len="24" key="52" pan="0" vol="100" type="0"/>
          <note pos="144" len="24" key="36" pan="0" vol="100" type="0"/>
          <note pos="192" len="24" key="36" pan="0" vol="100" type="0"/>
          <note pos="216" len="24" key="54" pan="0" vol="100" type="0"/>
          <note pos="240" len="24" key="52" pan="0" vol="100" type="0"/>
          <note pos="264" len="24" key="36" pan="0" vol="100" type="0"/>
          <note pos="288" len="24" key="42" pan="0" vol="100" type="0"/>
          <note pos="312" len="24" key="52" pan="0" vol="100" type="0"/>
          <note pos="336" len="24" key="46" pan="0" vol="100" type="0"/>
          <note pos="336" len="24" key="36" pan="0" vol="100" type="0"/>
          <note pos="360" len="24" key="44" pan="0" vol="100" type="0"/>
        </midiclip>
        <midiclip muted="0" name="" pos="2688" steps="16" type="1">
          <note pos="0" len="24" key="36" pan="0" vol="100" type="0"/>
          <note pos="24" len="24" key="54" pan="0" vol="100" type="0"/>
          <note pos="48" len="24" key="52" pan="0" vol="100" type="0"/>
          <note pos="72" len="24" key="36" pan="0" vol="100" type="0"/>
          <note pos="96" len="24" key="42" pan="0" vol="100" type="0"/>
          <note pos="120" len="24" key="52" pan="0" vol="100" type="0"/>
          <note pos="144" len="24" key="36" pan="0" vol="100" type="0"/>
          <note pos="192" len="24" key="36" pan="0" vol="100" type="0"/>
          <note pos="216" len="24" key="54" pan="0" vol="100" type="0"/>
          <note pos="240" len="24" key="52" pan="0" vol="100" type="0"/>
          <note pos="264" len="24" key="36" pan="0" vol="100" type="0"/>
          <note pos="288" len="24" key="42" pan="0" vol="100" type="0"/>
          <note pos="312" len="24" key="52" pan="0" vol="100" type="0"/>
          <note pos="336" len="24" key="46" pan="0" vol="100" type="0"/>
          <note pos="336" len="24" key="36" pan="0" vol="100" type="0"/>
          <note pos="360" len="24" key="44" pan="0" vol="100" type="0"/>
        </midiclip>
        <midiclip muted="0" name="" pos="3072" steps="16" type="1">
          <note pos="0" len="24" key="36" pan="0" vol="100" type="0"/>
          <note pos="24" len="24" key="54" pan="0" vol="100" type="0"/>
          <note pos="48" len="24" key="52" pan="0" vol="100" type="0"/>
          <note pos="72" len="24" key="36" pan="0" vol="100" type="0"/>
          <note pos="96" len="24" key="42" pan="0" vol="100" type="0"/>
          <note pos="120" len="24" key="52" pan="0" vol="100" type="0"/>
          <note pos="144" len="24" key="36" pan="0" vol="100" type="0"/>
          <note pos="192" len="24" key="36" pan="0" vol="100" type="0"/>
          <note pos="216" len="24" key="54" pan="0" vol="100" type="0"/>
          <note pos="240" len="24" key="52" pan="0" vol="100" type="0"/>
          <note pos="264" len="24" key="36" pan="0" vol="100" type="0"/>
          <note pos="288" len="24" key="42" pan="0" vol="100" type="0"/>
          <note pos="312" len="24" key="52" pan="0" vol="100" type="0"/>
          <note pos="336" len="24" key="46" pan="0" vol="100" type="0"/>
          <note pos="336" len="24" key="36" pan="0" vol="100" type="0"/>
          <note pos="360" len="24" key="44" pan="0" vol="100" type="0"/>
        </midiclip>
        <midiclip muted="0" name="" pos="1152" steps="16" type="1">
          <note pos="0" len="24" key="36" pan="0" vol="100" type="0"/>
          <note pos="72" len="24" key="36" pan="0" vol="100" type="0"/>
          <note pos="144" len="24" key="36" pan="0" vol="100" type="0"/>
          <note pos="192" len="24" key="36" pan="0" vol="100" type="0"/>
          <note pos="264" len="24" key="36" pan="0" vol="100" type="0"/>
          <note pos="336" len="24" key="36" pan="0" vol="100" type="0"/>
        </midiclip>
        <midiclip muted="0" name="" pos="1536" steps="16" type="1">
          <note pos="0" len="24" key="36" pan="0" vol="100" type="0"/>
          <note pos="72" len="24" key="36" pan="0" vol="100" type="0"/>
          <note pos="144" len="24" key="36" pan="0" vol="100" type="0"/>
          <note pos="192" len="24" key="36" pan="0" vol="100" type="0"/>
          <note pos="264" len="24" key="36" pan="0" vol="100" type="0"/>
          <note pos="288" len="24" key="44" pan="0" vol="100" type="0"/>
          <note pos="312" len="24" key="46" pan="0" vol="100" type="0"/>
          <note pos="336" len="24" key="42" pan="0" vol="100" type="0"/>
          <note pos="336" len="24" key="36" pan="0" vol="100" type="0"/>
          <note pos="360" len="24" key="52" pan="0" vol="100" type="0"/>
        </midiclip>
        <midiclip muted="0" name="" pos="3456" steps="16" type="1">
          <note pos="0" len="24" key="36" pan="0" vol="100" type="0"/>
          <note pos="24" len="24" key="54" pan="0" vol="100" type="0"/>
          <note pos="48" len="24" key="52" pan="0" vol="100" type="0"/>
          <note pos="72" len="24" key="36" pan="0" vol="100" type="0"/>
          <note pos="96" len="24" key="42" pan="0" vol="100" type="0"/>
          <note pos="120" len="24" key="52" pan="0" vol="100" type="0"/>
          <note pos="144" len="24" key="36" pan="0" vol="100" type="0"/>
          <note pos="192" len="24" key="36" pan="0" vol="100" type="0"/>
          <note pos="216" len="24" key="54" pan="0" vol="100" type="0"/>
          <note pos="240" len="24" key="52" pan="0" vol="100" type="0"/>
          <note pos="264" len="24" key="36" pan="0" vol="100" type="0"/>
          <note pos="288" len="24" key="42" pan="0" vol="100" type="0"/>
          <note pos="312" len="24" key="52" pan="0" vol="100" type="0"/>
          <note pos="336" len="24" key="46" pan="0" vol="100" type="0"/>
          <note pos="336" len="24" key="36" pan="0" vol="100" type="0"/>
          <note pos="360" len="24" key="44" pan="0" vol="100" type="0"/>
        </midiclip>
        <midiclip muted="0" name="" pos="3840" steps="16" type="1">
          <note pos="0" len="24" key="36" pan="0" vol="100" type="0"/>
          <note pos="24" len="24" key="54" pan="0" vol="100" type="0"/>
          <note pos="48" len="24" key="52" pan="0" vol="100" type="0"/>
          <note pos="72" len="24" key="36" pan="0" vol="100" type="0"/>
          <note pos="96" len="24" key="42" pan="0" vol="100" type="0"/>
          <note pos="120" len="24" key="52" pan="0" vol="100" type="0"/>
          <note pos="144" len="24" key="36" pan="0" vol="100" type="0"/>
          <note pos="192" len="24" key="36" pan="0" vol="100" type="0"/>
          <note pos="216" len="24" key="54" pan="0" vol="100" type="0"/>
          <note pos="240" len="24" key="52" pan="0" vol="100" type="0"/>
          <note pos="264" len="24" key="36" pan="0" vol="100" type="0"/>
          <note pos="288" len="24" key="42" pan="0" vol="100" type="0"/>
          <note pos="312" len="24" key="52" pan="0" vol="100" type="0"/>
          <note pos="336" len="24" key="46" pan="0" vol="100" type="0"/>
          <note pos="336" len="24" key="36" pan="0" vol="100" type="0"/>
          <note pos="360" len="24" key="44" pan="0" vol="100" type="0"/>
        </midiclip>
        <midiclip muted="0" name="" pos="4224" steps="16" type="1">
          <note pos="0" len="24" key="36" pan="0" vol="100" type="0"/>
          <note pos="24" len="24" key="54" pan="0" vol="100" type="0"/>
          <note pos="48" len="24" key="52" pan="0" vol="100" type="0"/>
          <note pos="72" len="24" key="36" pan="0" vol="100" type="0"/>
          <note pos="96" len="24" key="42" pan="0" vol="100" type="0"/>
          <note pos="120" len="24" key="52" pan="0" vol="100" type="0"/>
          <note pos="144" len="24" key="36" pan="0" vol="100" type="0"/>
          <note pos="192" len="24" key="36" pan="0" vol="100" type="0"/>
          <note pos="216" len="24" key="54" pan="0" vol="100" type="0"/>
          <note pos="240" len="24" key="52" pan="0" vol="100" type="0"/>
          <note pos="264" len="24" key="36" pan="0" vol="100" type="0"/>
          <note pos="288" len="24" key="42" pan="0" vol="100" type="0"/>
          <note pos="312" len="24" key="52" pan="0" vol="100" type="0"/>
          <note pos="336" len="24" key="46" pan="0" vol="100" type="0"/>
          <note pos="336" len="24" key="36" pan="0" vol="100" type="0"/>
          <note pos="360" len="24" key="44" pan="0" vol="100" type="0"/>
        </midiclip>
        <midiclip muted="0" name="" pos="4608" steps="16" type="1">
          <note pos="0" len="24" key="36" pan="0" vol="100" type="0"/>
          <note pos="24" len="24" key="54" pan="0" vol="100" type="0"/>
          <note pos="48" len="24" key="52" pan="0" vol="100" type="0"/>
          <note pos="72" len="24" key="36" pan="0" vol="100" type="0"/>
          <note pos="96" len="24" key="42" pan="0" vol="100" type="0"/>
          <note pos="120" len="24" key="52" pan="0" vol="100" type="0"/>
          <note pos="144" len="24" key="36" pan="0" vol="100" type="0"/>
          <note pos="192" len="24" key="36" pan="0" vol="100" type="0"/>
          <note pos="216" len="24" key="54" pan="0" vol="100" type="0"/>
          <note pos="240" len="24" key="52" pan="0" vol="100" type="0"/>
          <note pos="264" len="24" key="36" pan="0" vol="100" type="0"/>
          <note pos="288" len="24" key="42" pan="0" vol="100" type="0"/>
          <note pos="312" len="24" key="52" pan="0" vol="100" type="0"/>
          <note pos="336" len="24" key="46" pan="0" vol="100" type="0"/>
          <note pos="336" len="24" key="36" pan="0" vol="100" type="0"/>
          <note pos="360" len="24" key="44" pan="0" vol="100" type="0"/>
        </midiclip>
        <midiclip muted="0" name="" pos="6912" steps="16" type="1">
          <note pos="0" len="12" key="36" pan="0" vol="100" type="0"/>
          <note pos="24" len="12" key="46" pan="0" vol="100" type="0"/>
          <note pos="48" len="12" key="36" pan="0" vol="100" type="0"/>
          <note pos="72" len="12" key="44" pan="0" vol="100" type="0"/>
          <note pos="96" len="12" key="36" pan="0" vol="100" type="0"/>
          <note pos="120" len="12" key="46" pan="0" vol="100" type="0"/>
          <note pos="144" len="12" key="36" pan="0" vol="100" type="0"/>
          <note pos="168" len="12" key="44" pan="0" vol="100" type="0"/>
          <note pos="192" len="12" key="36" pan="0" vol="100" type="0"/>
          <note pos="216" len="12" key="46" pan="0" vol="100" type="0"/>
          <note pos="240" len="12" key="36" pan="0" vol="100" type="0"/>
          <note pos="264" len="12" key="44" pan="0" vol="100" type="0"/>
          <note pos="288" len="12" key="36" pan="0" vol="100" type="0"/>
          <note pos="312" len="12" key="46" pan="0" vol="100" type="0"/>
          <note pos="312" len="12" key="36" pan="0" vol="100" type="0"/>
          <note pos="324" len="12" key="36" pan="0" vol="100" type="0"/>
          <note pos="336" len="12" key="36" pan="0" vol="100" type="0"/>
          <note pos="360" len="12" key="44" pan="0" vol="100" type="0"/>
          <note pos="360" len="12" key="36" pan="0" vol="100" type="0"/>
        </midiclip>
        <midiclip muted="0" name="" pos="7296" steps="16" type="1">
          <note pos="0" len="12" key="36" pan="0" vol="100" type="0"/>
          <note pos="24" len="12" key="46" pan="0" vol="100" type="0"/>
          <note pos="48" len="12" key="36" pan="0" vol="100" type="0"/>
          <note pos="72" len="12" key="44" pan="0" vol="100" type="0"/>
          <note pos="96" len="12" key="36" pan="0" vol="100" type="0"/>
          <note pos="120" len="12" key="46" pan="0" vol="100" type="0"/>
          <note pos="144" len="12" key="36" pan="0" vol="100" type="0"/>
          <note pos="168" len="12" key="44" pan="0" vol="100" type="0"/>
          <note pos="192" len="12" key="36" pan="0" vol="100" type="0"/>
          <note pos="216" len="12" key="46" pan="0" vol="100" type="0"/>
          <note pos="240" len="12" key="36" pan="0" vol="100" type="0"/>
          <note pos="264" len="12" key="44" pan="0" vol="100" type="0"/>
          <note pos="288" len="12" key="36" pan="0" vol="100" type="0"/>
          <note pos="312" len="12" key="46" pan="0" vol="100" type="0"/>
          <note pos="312" len="12" key="36" pan="0" vol="100" type="0"/>
          <note pos="324" len="12" key="36" pan="0" vol="100" type="0"/>
          <note pos="336" len="12" key="36" pan="0" vol="100" type="0"/>
          <note pos="360" len="12" key="44" pan="0" vol="100" type="0"/>
          <note pos="360" len="12" key="36" pan="0" vol="100" type="0"/>
        </midiclip>
        <midiclip muted="0" name="" pos="7680" steps="16" type="1">
          <note pos="0" len="12" key="36" pan="0" vol="100" type="0"/>
          <note pos="24" len="12" key="46" pan="0" vol="100" type="0"/>
          <note pos="48" len="12" key="36" pan="0" vol="100" type="0"/>
          <note pos="72" len="12" key="44" pan="0" vol="100" type="0"/>
          <note pos="96" len="12" key="36" pan="0" vol="100" type="0"/>
          <note pos="120" len="12" key="46" pan="0" vol="100" type="0"/>
          <note pos="144" len="12" key="36" pan="0" vol="100" type="0"/>
          <note pos="168" len="12" key="44" pan="0" vol="100" type="0"/>
          <note pos="192" len="12" key="36" pan="0" vol="100" type="0"/>
          <note pos="216" len="12" key="46" pan="0" vol="100" type="0"/>
          <note pos="240" len="12" key="36" pan="0" vol="100" type="0"/>
          <note pos="264" len="12" key="44" pan="0" vol="100" type="0"/>
          <note pos="288" len="12" key="36" pan="0" vol="100" type="0"/>
          <note pos="312" len="12" key="46" pan="0" vol="100" type="0"/>
          <note pos="312" len="12" key="36" pan="0" vol="100" type="0"/>
          <note pos="324" len="12" key="36" pan="0" vol="100" type="0"/>
          <note pos="336" len="12" key="36" pan="0" vol="100" type="0"/>
          <note pos="360" len="12" key="44" pan="0" vol="100" type="0"/>
          <note pos="360" len="12" key="36" pan="0" vol="100" type="0"/>
        </midiclip>
        <midiclip muted="0" name="" pos="8064" steps="16" type="1">
          <note pos="0" len="12" key="36" pan="0" vol="100" type="0"/>
          <note pos="24" len="12" key="46" pan="0" vol="100" type="0"/>
          <note pos="48" len="12" key="36" pan="0" vol="100" type="0"/>
          <note pos="72" len="12" key="44" pan="0" vol="100" type="0"/>
          <note pos="96" len="12" key="36" pan="0" vol="100" type="0"/>
          <note pos="120" len="12" key="46" pan="0" vol="100" type="0"/>
          <note pos="144" len="12" key="36" pan="0" vol="100" type="0"/>
          <note pos="168" len="12" key="44" pan="0" vol="100" type="0"/>
          <note pos="192" len="12" key="36" pan="0" vol="100" type="0"/>
          <note pos="216" len="12" key="46" pan="0" vol="100" type="0"/>
          <note pos="240" len="12" key="36" pan="0" vol="100" type="0"/>
          <note pos="264" len="12" key="44" pan="0" vol="100" type="0"/>
          <note pos="288" len="12" key="36" pan="0" vol="100" type="0"/>
          <note pos="312" len="12" key="46" pan="0" vol="100" type="0"/>
          <note pos="312" len="12" key="36" pan="0" vol="100" type="0"/>
          <note pos="324" len="12" key="36" pan="0" vol="100" type="0"/>
          <note pos="336" len="12" key="36" pan="0" vol="100" type="0"/>
          <note pos="360" len="12" key="44" pan="0" vol="100" type="0"/>
          <note pos="360" len="12" key="36" pan="0" vol="100" type="0"/>
        </midiclip>
        <midiclip muted="0" name="" pos="8448" steps="16" type="1">
          <note pos="0" len="24" key="36" pan="0" vol="100" type="0"/>
          <note pos="24" len="24" key="54" pan="0" vol="100" type="0"/>
          <note pos="48" len="24" key="52" pan="0" vol="100" type="0"/>
          <note pos="72" len="24" key="36" pan="0" vol="100" type="0"/>
          <note pos="96" len="24" key="42" pan="0" vol="100" type="0"/>
          <note pos="120" len="24" key="52" pan="0" vol="100" type="0"/>
          <note pos="144" len="24" key="36" pan="0" vol="100" type="0"/>
          <note pos="192" len="24" key="36" pan="0" vol="100" type="0"/>
          <note pos="216" len="24" key="54" pan="0" vol="100" type="0"/>
          <note pos="240" len="24" key="52" pan="0" vol="100" type="0"/>
          <note pos="264" len="24" key="36" pan="0" vol="100" type="0"/>
          <note pos="288" len="24" key="42" pan="0" vol="100" type="0"/>
          <note pos="312" len="24" key="52" pan="0" vol="100" type="0"/>
          <note pos="336" len="24" key="46" pan="0" vol="100" type="0"/>
          <note pos="336" len="24" key="36" pan="0" vol="100" type="0"/>
          <note pos="360" len="24" key="44" pan="0" vol="100" type="0"/>
        </midiclip>
        <midiclip muted="0" name="" pos="8832" steps="16" type="1">
          <note pos="0" len="24" key="36" pan="0" vol="100" type="0"/>
          <note pos="24" len="24" key="54" pan="0" vol="100" type="0"/>
          <note pos="48" len="24" key="52" pan="0" vol="100" type="0"/>
          <note pos="72" len="24" key="36" pan="0" vol="100" type="0"/>
          <note pos="96" len="24" key="42" pan="0" vol="100" type="0"/>
          <note pos="120" len="24" key="52" pan="0" vol="100" type="0"/>
          <note pos="144" len="24" key="36" pan="0" vol="100" type="0"/>
          <note pos="192" len="24" key="36" pan="0" vol="100" type="0"/>
          <note pos="216" len="24" key="54" pan="0" vol="100" type="0"/>
          <note pos="240" len="24" key="52" pan="0" vol="100" type="0"/>
          <note pos="264" len="24" key="36" pan="0" vol="100" type="0"/>
          <note pos="288" len="24" key="42" pan="0" vol="100" type="0"/>
          <note pos="312" len="24" key="52" pan="0" vol="100" type="0"/>
          <note pos="336" len="24" key="46" pan="0" vol="100" type="0"/>
          <note pos="336" len="24" key="36" pan="0" vol="100" type="0"/>
          <note pos="360" len="24" key="44" pan="0" vol="100" type="0"/>
        </midiclip>
        <midiclip muted="0" name="" pos="9216" steps="16" type="1">
          <note pos="0" len="24" key="36" pan="0" vol="100" type="0"/>
          <note pos="24" len="24" key="54" pan="0" vol="100" type="0"/>
          <note pos="48" len="24" key="52" pan="0" vol="100" type="0"/>
          <note pos="72" len="24" key="36" pan="0" vol="100" type="0"/>
          <note pos="96" len="24" key="42" pan="0" vol="100" type="0"/>
          <note pos="120" len="24" key="52" pan="0" vol="100" type="0"/>
          <note pos="144" len="24" key="36" pan="0" vol="100" type="0"/>
          <note pos="192" len="24" key="36" pan="0" vol="100" type="0"/>
          <note pos="216" len="24" key="54" pan="0" vol="100" type="0"/>
          <note pos="240" len="24" key="52" pan="0" vol="100" type="0"/>
          <note pos="264" len="24" key="36" pan="0" vol="100" type="0"/>
          <note pos="288" len="24" key="42" pan="0" vol="100" type="0"/>
          <note pos="312" len="24" key="52" pan="0" vol="100" type="0"/>
          <note pos="336" len="24" key="46" pan="0" vol="100" type="0"/>
          <note pos="336" len="24" key="36" pan="0" vol="100" type="0"/>
          <note pos="360" len="24" key="44" pan="0" vol="100" type="0"/>
        </midiclip>
        <midiclip muted="0" name="" pos="9600" steps="16" type="1">
          <note pos="0" len="24" key="36" pan="0" vol="100" type="0"/>
          <note pos="24" len="24" key="54" pan="0" vol="100" type="0"/>
          <note pos="48" len="24" key="52" pan="0" vol="100" type="0"/>
          <note pos="72" len="24" key="36" pan="0" vol="100" type="0"/>
          <note pos="96" len="24" key="42" pan="0" vol="100" type="0"/>
          <note pos="120" len="24" key="52" pan="0" vol="100" type="0"/>
          <note pos="144" len="24" key="36" pan="0" vol="100" type="0"/>
          <note pos="192" len="24" key="36" pan="0" vol="100" type="0"/>
          <note pos="216" len="24" key="54" pan="0" vol="100" type="0"/>
          <note pos="240" len="24" key="52" pan="0" vol="100" type="0"/>
          <note pos="264" len="24" key="36" pan="0" vol="100" type="0"/>
          <note pos="288" len="24" key="42" pan="0" vol="100" type="0"/>
          <note pos="312" len="24" key="52" pan="0" vol="100" type="0"/>
          <note pos="336" len="24" key="46" pan="0" vol="100" type="0"/>
          <note pos="336" len="24" key="36" pan="0" vol="100" type="0"/>
          <note pos="360" len="24" key="44" pan="0" vol="100" type="0"/>
        </midiclip>
        <midiclip muted="0" name="" pos="9984" steps="16" type="1">
          <note pos="0" len="24" key="36" pan="0" vol="100" type="0"/>
          <note pos="24" len="24" key="54" pan="0" vol="100" type="0"/>
          <note pos="48" len="24" key="52" pan="0" vol="100" type="0"/>
          <note pos="72" len="24" key="36" pan="0" vol="100" type="0"/>
          <note pos="96" len="24" key="42" pan="0" vol="100" type="0"/>
          <note pos="120" len="24" key="52" pan="0" vol="100" type="0"/>
          <note pos="144" len="24" key="36" pan="0" vol="100" type="0"/>
          <note pos="192" len="24" key="36" pan="0" vol="100" type="0"/>
          <note pos="216" len="24" key="54" pan="0" vol="100" type="0"/>
          <note pos="240" len="24" key="52" pan="0" vol="100" type="0"/>
          <note pos="264" len="24" key="36" pan="0" vol="100" type="0"/>
          <note pos="288" len="24" key="42" pan="0" vol="100" type="0"/>
          <note pos="312" len="24" key="52" pan="0" vol="100" type="0"/>
          <note pos="336" len="24" key="46" pan="0" vol="100" type="0"/>
          <note pos="336" len="24" key="36" pan="0" vol="100" type="0"/>
          <note pos="360" len="24" key="44" pan="0" vol="100" type="0"/>
        </midiclip>
        <midiclip muted="0" name="" pos="10368" steps="16" type="1">
          <note pos="0" len="24" key="36" pan="0" vol="100" type="0"/>
          <note pos="24" len="24" key="54" pan="0" vol="100" type="0"/>
          <note pos="48" len="24" key="52" pan="0" vol="100" type="0"/>
          <note pos="72" len="24" key="36" pan="0" vol="100" type="0"/>
          <note pos="96" len="24" key="42" pan="0" vol="100" type="0"/>
          <note pos="120" len="24" key="52" pan="0" vol="100" type="0"/>
          <note pos="144" len="24" key="36" pan="0" vol="100" type="0"/>
          <note pos="192" len="24" key="36" pan="0" vol="100" type="0"/>
          <note pos="216" len="24" key="54" pan="0" vol="100" type="0"/>
          <note pos="240" len="24" key="52" pan="0" vol="100" type="0"/>
          <note pos="264" len="24" key="36" pan="0" vol="100" type="0"/>
          <note pos="288" len="24" key="42" pan="0" vol="100" type="0"/>
          <note pos="312" len="24" key="52" pan="0" vol="100" type="0"/>
          <note pos="336" len="24" key="46" pan="0" vol="100" type="0"/>
          <note pos="336" len="24" key="36" pan="0" vol="100" type="0"/>
          <note pos="360" len="24" key="44" pan="0" vol="100" type="0"/>
        </midiclip>
        <midiclip muted="0" name="" pos="10752" steps="16" type="1">
          <note pos="0" len="24" key="36" pan="0" vol="100" type="0"/>
          <note pos="24" len="24" key="54" pan="0" vol="100" type="0"/>
          <note pos="48" len="24" key="52" pan="0" vol="100" type="0"/>
          <note pos="72" len="24" key="36" pan="0" vol="100" type="0"/>
          <note pos="96" len="24" key="42" pan="0" vol="100" type="0"/>
          <note pos="120" len="24" key="52" pan="0" vol="100" type="0"/>
          <note pos="144" len="24" key="36" pan="0" vol="100" type="0"/>
          <note pos="192" len="24" key="36" pan="0" vol="100" type="0"/>
          <note pos="216" len="24" key="54" pan="0" vol="100" type="0"/>
          <note pos="240" len="24" key="52" pan="0" vol="100" type="0"/>
          <note pos="264" len="24" key="36" pan="0" vol="100" type="0"/>
          <note pos="288" len="24" key="42" pan="0" vol="100" type="0"/>
          <note pos="312" len="24" key="52" pan="0" vol="100" type="0"/>
          <note pos="336" len="24" key="46" pan="0" vol="100" type="0"/>
          <note pos="336" len="24" key="36" pan="0" vol="100" type="0"/>
          <note pos="360" len="24" key="44" pan="0" vol="100" type="0"/>
        </midiclip>
        <midiclip muted="0" name="" pos="11136" steps="16" type="1">
          <note pos="0" len="24" key="36" pan="0" vol="100" type="0"/>
          <note pos="24" len="24" key="54" pan="0" vol="100" type="0"/>
          <note pos="48" len="24" key="52" pan="0" vol="100" type="0"/>
          <note pos="72" len="24" key="36" pan="0" vol="100" type="0"/>
          <note pos="96" len="24" key="42" pan="0" vol="100" type="0"/>
          <note pos="120" len="24" key="52" pan="0" vol="100" type="0"/>
          <note pos="144" len="24" key="36" pan="0" vol="100" type="0"/>
          <note pos="192" len="24" key="36" pan="0" vol="100" type="0"/>
          <note pos="216" len="24" key="54" pan="0" vol="100" type="0"/>
          <note pos="240" len="24" key="52" pan="0" vol="100" type="0"/>
          <note pos="264" len="24" key="36" pan="0" vol="100" type="0"/>
          <note pos="288" len="24" key="42" pan="0" vol="100" type="0"/>
          <note pos="312" len="24" key="52" pan="0" vol="100" type="0"/>
          <note pos="336" len="24" key="46" pan="0" vol="100" type="0"/>
          <note pos="336" len="24" key="36" pan="0" vol="100" type="0"/>
          <note pos="360" len="24" key="44" pan="0" vol="100" type="0"/>
        </midiclip>
      </track>
      <track muted="0" mutedBeforeSolo="0" name="Drums>Stick" trackheight="32" solo="0" type="0">
        <instrumenttrack usemasterpitch="0" scale="0" range_import="1" firstkey="42" lastkey="42" keymap="0" enablecc="0" pan="0" enabled="0" pitch="-100" pitchrange="1" basenote="69" vol="100" mixch="5">
          <midicontrollers cc10="0" cc92="0" cc121="0" cc11="0" cc35="0" cc80="0" cc4="0" cc57="0" cc34="0" cc50="0" cc12="0" cc70="0" cc117="0" cc75="0" cc124="0" cc3="0" cc0="0" cc89="0" cc21="0" cc56="0" cc44="0" cc78="0" cc36="0" cc38="0" cc88="0" cc48="0" cc27="0" cc67="0" cc82="0" cc42="0" cc99="0" cc112="0" cc45="0" cc39="0" cc127="0" cc73="0" cc58="0" cc13="0" cc61="0" cc116="0" cc8="0" cc63="0" cc111="0" cc60="0" cc72="0" cc97="0" cc114="0" cc115="0" cc76="0" cc69="0" cc20="0" cc106="0" cc79="0" cc24="0" cc81="0" cc19="0" cc87="0" cc107="0" cc46="0" cc47="0" cc83="0" cc93="0" cc102="0" cc65="0" cc1="0" cc18="0" cc85="0" cc94="0" cc64="0" cc66="0" cc16="0" cc84="0" cc98="0" cc110="0" cc9="0" cc126="0" cc2="0" cc29="0" cc25="0" cc43="0" cc59="0" cc62="0" cc53="0" cc105="0" cc40="0" cc54="0" cc120="0" cc90="0" cc86="0" cc100="0" cc49="0" cc22="0" cc41="0" cc108="0" cc77="0" cc95="0" cc109="0" cc15="0" cc104="0" cc119="0" cc125="0" cc68="0" cc122="0" cc17="0" cc74="0" cc28="0" cc14="0" cc26="0" cc32="0" cc5="0" cc123="0" cc101="0" cc33="0" cc51="0" cc37="0" cc96="0" cc103="0" cc30="0" cc71="0" cc6="0" cc52="0" cc113="0" cc31="0" cc91="0" cc23="0" cc7="0" cc55="0" cc118="0"/>
          <instrument name="sf2player">
            <sf2player reverbRoomSize="0.2" chorusNum="3" reverbOn="0" gain="0.34" reverbDamping="0" chorusSpeed="0.30000001" chorusOn="0" src="usersoundfont:FluidR3 GM.sf2" chorusDepth="8" bank="128" reverbLevel="0.89999998" patch="17" reverbWidth="0.5" chorusLevel="2">
              <key/>
            </sf2player>
          </instrument>
          <eldata ftype="0" fcut="14000" fres="0.5" fwet="0">
            <elvol ctlenvamt="0" pdel="0" lspd_numerator="4" rel="0.1" att="0" lpdel="0" dec="0.5" lspd_syncmode="0" lamt="0" lspd="0.1" sustain="0.5" userwavefile="" latt="0" hold="0.5" lshp="0" lspd_denominator="4" amt="0" x100="0"/>
            <elcut ctlenvamt="0" pdel="0" lspd_numerator="4" rel="0.1" att="0" lpdel="0" dec="0.5" lspd_syncmode="0" lamt="0" lspd="0.1" sustain="0.5" userwavefile="" latt="0" hold="0.5" lshp="0" lspd_denominator="4" amt="0" x100="0"/>
            <elres ctlenvamt="0" pdel="0" lspd_numerator="4" rel="0.1" att="0" lpdel="0" dec="0.5" lspd_syncmode="0" lamt="0" lspd="0.1" sustain="0.5" userwavefile="" latt="0" hold="0.5" lshp="0" lspd_denominator="4" amt="0" x100="0"/>
          </eldata>
          <chordcreator chordrange="1" chord-enabled="0" chord="0"/>
          <arpeggiator arptime_syncmode="0" arprepeats="1" arp-enabled="0" arpdir="0" arptime_denominator="4" arp="0" arpcycle="0" arprange="1" arpmiss="0" arptime_numerator="4" arptime="200" arpskip="0" arpmode="0" arpgate="100"/>
          <midiport basevelocity="127" readable="1" fixedoutputnote="-1" inputchannel="0" inputcontroller="0" fixedinputvelocity="-1" inports="" outputprogram="1" writable="0" outputchannel="1" fixedoutputvelocity="-1" outputcontroller="0"/>
          <fxchain numofeffects="0" enabled="0"/>
        </instrumenttrack>
        <midiclip muted="0" name="" pos="1920" steps="16" type="1">
          <note pos="0" len="24" key="36" pan="0" vol="100" type="0"/>
          <note pos="24" len="24" key="54" pan="0" vol="100" type="0"/>
          <note pos="48" len="24" key="52" pan="0" vol="100" type="0"/>
          <note pos="72" len="24" key="36" pan="0" vol="100" type="0"/>
          <note pos="96" len="24" key="42" pan="0" vol="100" type="0"/>
          <note pos="120" len="24" key="52" pan="0" vol="100" type="0"/>
          <note pos="144" len="24" key="36" pan="0" vol="100" type="0"/>
          <note pos="192" len="24" key="36" pan="0" vol="100" type="0"/>
          <note pos="216" len="24" key="54" pan="0" vol="100" type="0"/>
          <note pos="240" len="24" key="52" pan="0" vol="100" type="0"/>
          <note pos="264" len="24" key="36" pan="0" vol="100" type="0"/>
          <note pos="288" len="24" key="42" pan="0" vol="100" type="0"/>
          <note pos="312" len="24" key="52" pan="0" vol="100" type="0"/>
          <note pos="336" len="24" key="46" pan="0" vol="100" type="0"/>
          <note pos="336" len="24" key="36" pan="0" vol="100" type="0"/>
          <note pos="360" len="24" key="44" pan="0" vol="100" type="0"/>
        </midiclip>
        <midiclip muted="0" name="" pos="2304" steps="16" type="1">
          <note pos="0" len="24" key="36" pan="0" vol="100" type="0"/>
          <note pos="24" len="24" key="54" pan="0" vol="100" type="0"/>
          <note pos="48" len="24" key="52" pan="0" vol="100" type="0"/>
          <note pos="72" len="24" key="36" pan="0" vol="100" type="0"/>
          <note pos="96" len="24" key="42" pan="0" vol="100" type="0"/>
          <note pos="120" len="24" key="52" pan="0" vol="100" type="0"/>
          <note pos="144" len="24" key="36" pan="0" vol="100" type="0"/>
          <note pos="192" len="24" key="36" pan="0" vol="100" type="0"/>
          <note pos="216" len="24" key="54" pan="0" vol="100" type="0"/>
          <note pos="240" len="24" key="52" pan="0" vol="100" type="0"/>
          <note pos="264" len="24" key="36" pan="0" vol="100" type="0"/>
          <note pos="288" len="24" key="42" pan="0" vol="100" type="0"/>
          <note pos="312" len="24" key="52" pan="0" vol="100" type="0"/>
          <note pos="336" len="24" key="46" pan="0" vol="100" type="0"/>
          <note pos="336" len="24" key="36" pan="0" vol="100" type="0"/>
          <note pos="360" len="24" key="44" pan="0" vol="100" type="0"/>
        </midiclip>
        <midiclip muted="0" name="" pos="2688" steps="16" type="1">
          <note pos="0" len="24" key="36" pan="0" vol="100" type="0"/>
          <note pos="24" len="24" key="54" pan="0" vol="100" type="0"/>
          <note pos="48" len="24" key="52" pan="0" vol="100" type="0"/>
          <note pos="72" len="24" key="36" pan="0" vol="100" type="0"/>
          <note pos="96" len="24" key="42" pan="0" vol="100" type="0"/>
          <note pos="120" len="24" key="52" pan="0" vol="100" type="0"/>
          <note pos="144" len="24" key="36" pan="0" vol="100" type="0"/>
          <note pos="192" len="24" key="36" pan="0" vol="100" type="0"/>
          <note pos="216" len="24" key="54" pan="0" vol="100" type="0"/>
          <note pos="240" len="24" key="52" pan="0" vol="100" type="0"/>
          <note pos="264" len="24" key="36" pan="0" vol="100" type="0"/>
          <note pos="288" len="24" key="42" pan="0" vol="100" type="0"/>
          <note pos="312" len="24" key="52" pan="0" vol="100" type="0"/>
          <note pos="336" len="24" key="46" pan="0" vol="100" type="0"/>
          <note pos="336" len="24" key="36" pan="0" vol="100" type="0"/>
          <note pos="360" len="24" key="44" pan="0" vol="100" type="0"/>
        </midiclip>
        <midiclip muted="0" name="" pos="3072" steps="16" type="1">
          <note pos="0" len="24" key="36" pan="0" vol="100" type="0"/>
          <note pos="24" len="24" key="54" pan="0" vol="100" type="0"/>
          <note pos="48" len="24" key="52" pan="0" vol="100" type="0"/>
          <note pos="72" len="24" key="36" pan="0" vol="100" type="0"/>
          <note pos="96" len="24" key="42" pan="0" vol="100" type="0"/>
          <note pos="120" len="24" key="52" pan="0" vol="100" type="0"/>
          <note pos="144" len="24" key="36" pan="0" vol="100" type="0"/>
          <note pos="192" len="24" key="36" pan="0" vol="100" type="0"/>
          <note pos="216" len="24" key="54" pan="0" vol="100" type="0"/>
          <note pos="240" len="24" key="52" pan="0" vol="100" type="0"/>
          <note pos="264" len="24" key="36" pan="0" vol="100" type="0"/>
          <note pos="288" len="24" key="42" pan="0" vol="100" type="0"/>
          <note pos="312" len="24" key="52" pan="0" vol="100" type="0"/>
          <note pos="336" len="24" key="46" pan="0" vol="100" type="0"/>
          <note pos="336" len="24" key="36" pan="0" vol="100" type="0"/>
          <note pos="360" len="24" key="44" pan="0" vol="100" type="0"/>
        </midiclip>
        <midiclip muted="0" name="" pos="1152" steps="16" type="1">
          <note pos="0" len="24" key="36" pan="0" vol="100" type="0"/>
          <note pos="72" len="24" key="36" pan="0" vol="100" type="0"/>
          <note pos="144" len="24" key="36" pan="0" vol="100" type="0"/>
          <note pos="192" len="24" key="36" pan="0" vol="100" type="0"/>
          <note pos="264" len="24" key="36" pan="0" vol="100" type="0"/>
          <note pos="336" len="24" key="36" pan="0" vol="100" type="0"/>
        </midiclip>
        <midiclip muted="0" name="" pos="1536" steps="16" type="1">
          <note pos="0" len="24" key="36" pan="0" vol="100" type="0"/>
          <note pos="72" len="24" key="36" pan="0" vol="100" type="0"/>
          <note pos="144" len="24" key="36" pan="0" vol="100" type="0"/>
          <note pos="192" len="24" key="36" pan="0" vol="100" type="0"/>
          <note pos="264" len="24" key="36" pan="0" vol="100" type="0"/>
          <note pos="288" len="24" key="44" pan="0" vol="100" type="0"/>
          <note pos="312" len="24" key="46" pan="0" vol="100" type="0"/>
          <note pos="336" len="24" key="42" pan="0" vol="100" type="0"/>
          <note pos="336" len="24" key="36" pan="0" vol="100" type="0"/>
          <note pos="360" len="24" key="52" pan="0" vol="100" type="0"/>
        </midiclip>
        <midiclip muted="0" name="" pos="3456" steps="16" type="1">
          <note pos="0" len="24" key="36" pan="0" vol="100" type="0"/>
          <note pos="24" len="24" key="54" pan="0" vol="100" type="0"/>
          <note pos="48" len="24" key="52" pan="0" vol="100" type="0"/>
          <note pos="72" len="24" key="36" pan="0" vol="100" type="0"/>
          <note pos="96" len="24" key="42" pan="0" vol="100" type="0"/>
          <note pos="120" len="24" key="52" pan="0" vol="100" type="0"/>
          <note pos="144" len="24" key="36" pan="0" vol="100" type="0"/>
          <note pos="192" len="24" key="36" pan="0" vol="100" type="0"/>
          <note pos="216" len="24" key="54" pan="0" vol="100" type="0"/>
          <note pos="240" len="24" key="52" pan="0" vol="100" type="0"/>
          <note pos="264" len="24" key="36" pan="0" vol="100" type="0"/>
          <note pos="288" len="24" key="42" pan="0" vol="100" type="0"/>
          <note pos="312" len="24" key="52" pan="0" vol="100" type="0"/>
          <note pos="336" len="24" key="46" pan="0" vol="100" type="0"/>
          <note pos="336" len="24" key="36" pan="0" vol="100" type="0"/>
          <note pos="360" len="24" key="44" pan="0" vol="100" type="0"/>
        </midiclip>
        <midiclip muted="0" name="" pos="3840" steps="16" type="1">
          <note pos="0" len="24" key="36" pan="0" vol="100" type="0"/>
          <note pos="24" len="24" key="54" pan="0" vol="100" type="0"/>
          <note pos="48" len="24" key="52" pan="0" vol="100" type="0"/>
          <note pos="72" len="24" key="36" pan="0" vol="100" type="0"/>
          <note pos="96" len="24" key="42" pan="0" vol="100" type="0"/>
          <note pos="120" len="24" key="52" pan="0" vol="100" type="0"/>
          <note pos="144" len="24" key="36" pan="0" vol="100" type="0"/>
          <note pos="192" len="24" key="36" pan="0" vol="100" type="0"/>
          <note pos="216" len="24" key="54" pan="0" vol="100" type="0"/>
          <note pos="240" len="24" key="52" pan="0" vol="100" type="0"/>
          <note pos="264" len="24" key="36" pan="0" vol="100" type="0"/>
          <note pos="288" len="24" key="42" pan="0" vol="100" type="0"/>
          <note pos="312" len="24" key="52" pan="0" vol="100" type="0"/>
          <note pos="336" len="24" key="46" pan="0" vol="100" type="0"/>
          <note pos="336" len="24" key="36" pan="0" vol="100" type="0"/>
          <note pos="360" len="24" key="44" pan="0" vol="100" type="0"/>
        </midiclip>
        <midiclip muted="0" name="" pos="4224" steps="16" type="1">
          <note pos="0" len="24" key="36" pan="0" vol="100" type="0"/>
          <note pos="24" len="24" key="54" pan="0" vol="100" type="0"/>
          <note pos="48" len="24" key="52" pan="0" vol="100" type="0"/>
          <note pos="72" len="24" key="36" pan="0" vol="100" type="0"/>
          <note pos="96" len="24" key="42" pan="0" vol="100" type="0"/>
          <note pos="120" len="24" key="52" pan="0" vol="100" type="0"/>
          <note pos="144" len="24" key="36" pan="0" vol="100" type="0"/>
          <note pos="192" len="24" key="36" pan="0" vol="100" type="0"/>
          <note pos="216" len="24" key="54" pan="0" vol="100" type="0"/>
          <note pos="240" len="24" key="52" pan="0" vol="100" type="0"/>
          <note pos="264" len="24" key="36" pan="0" vol="100" type="0"/>
          <note pos="288" len="24" key="42" pan="0" vol="100" type="0"/>
          <note pos="312" len="24" key="52" pan="0" vol="100" type="0"/>
          <note pos="336" len="24" key="46" pan="0" vol="100" type="0"/>
          <note pos="336" len="24" key="36" pan="0" vol="100" type="0"/>
          <note pos="360" len="24" key="44" pan="0" vol="100" type="0"/>
        </midiclip>
        <midiclip muted="0" name="" pos="4608" steps="16" type="1">
          <note pos="0" len="24" key="36" pan="0" vol="100" type="0"/>
          <note pos="24" len="24" key="54" pan="0" vol="100" type="0"/>
          <note pos="48" len="24" key="52" pan="0" vol="100" type="0"/>
          <note pos="72" len="24" key="36" pan="0" vol="100" type="0"/>
          <note pos="96" len="24" key="42" pan="0" vol="100" type="0"/>
          <note pos="120" len="24" key="52" pan="0" vol="100" type="0"/>
          <note pos="144" len="24" key="36" pan="0" vol="100" type="0"/>
          <note pos="192" len="24" key="36" pan="0" vol="100" type="0"/>
          <note pos="216" len="24" key="54" pan="0" vol="100" type="0"/>
          <note pos="240" len="24" key="52" pan="0" vol="100" type="0"/>
          <note pos="264" len="24" key="36" pan="0" vol="100" type="0"/>
          <note pos="288" len="24" key="42" pan="0" vol="100" type="0"/>
          <note pos="312" len="24" key="52" pan="0" vol="100" type="0"/>
          <note pos="336" len="24" key="46" pan="0" vol="100" type="0"/>
          <note pos="336" len="24" key="36" pan="0" vol="100" type="0"/>
          <note pos="360" len="24" key="44" pan="0" vol="100" type="0"/>
        </midiclip>
        <midiclip muted="0" name="" pos="6912" steps="16" type="1">
          <note pos="0" len="12" key="36" pan="0" vol="100" type="0"/>
          <note pos="24" len="12" key="46" pan="0" vol="100" type="0"/>
          <note pos="48" len="12" key="36" pan="0" vol="100" type="0"/>
          <note pos="72" len="12" key="44" pan="0" vol="100" type="0"/>
          <note pos="96" len="12" key="36" pan="0" vol="100" type="0"/>
          <note pos="120" len="12" key="46" pan="0" vol="100" type="0"/>
          <note pos="144" len="12" key="36" pan="0" vol="100" type="0"/>
          <note pos="168" len="12" key="44" pan="0" vol="100" type="0"/>
          <note pos="192" len="12" key="36" pan="0" vol="100" type="0"/>
          <note pos="216" len="12" key="46" pan="0" vol="100" type="0"/>
          <note pos="240" len="12" key="36" pan="0" vol="100" type="0"/>
          <note pos="264" len="12" key="44" pan="0" vol="100" type="0"/>
          <note pos="288" len="12" key="36" pan="0" vol="100" type="0"/>
          <note pos="312" len="12" key="46" pan="0" vol="100" type="0"/>
          <note pos="312" len="12" key="36" pan="0" vol="100" type="0"/>
          <note pos="324" len="12" key="36" pan="0" vol="100" type="0"/>
          <note pos="336" len="12" key="36" pan="0" vol="100" type="0"/>
          <note pos="360" len="12" key="44" pan="0" vol="100" type="0"/>
          <note pos="360" len="12" key="36" pan="0" vol="100" type="0"/>
        </midiclip>
        <midiclip muted="0" name="" pos="7296" steps="16" type="1">
          <note pos="0" len="12" key="36" pan="0" vol="100" type="0"/>
          <note pos="24" len="12" key="46" pan="0" vol="100" type="0"/>
          <note pos="48" len="12" key="36" pan="0" vol="100" type="0"/>
          <note pos="72" len="12" key="44" pan="0" vol="100" type="0"/>
          <note pos="96" len="12" key="36" pan="0" vol="100" type="0"/>
          <note pos="120" len="12" key="46" pan="0" vol="100" type="0"/>
          <note pos="144" len="12" key="36" pan="0" vol="100" type="0"/>
          <note pos="168" len="12" key="44" pan="0" vol="100" type="0"/>
          <note pos="192" len="12" key="36" pan="0" vol="100" type="0"/>
          <note pos="216" len="12" key="46" pan="0" vol="100" type="0"/>
          <note pos="240" len="12" key="36" pan="0" vol="100" type="0"/>
          <note pos="264" len="12" key="44" pan="0" vol="100" type="0"/>
          <note pos="288" len="12" key="36" pan="0" vol="100" type="0"/>
          <note pos="312" len="12" key="46" pan="0" vol="100" type="0"/>
          <note pos="312" len="12" key="36" pan="0" vol="100" type="0"/>
          <note pos="324" len="12" key="36" pan="0" vol="100" type="0"/>
          <note pos="336" len="12" key="36" pan="0" vol="100" type="0"/>
          <note pos="360" len="12" key="44" pan="0" vol="100" type="0"/>
          <note pos="360" len="12" key="36" pan="0" vol="100" type="0"/>
        </midiclip>
        <midiclip muted="0" name="" pos="7680" steps="16" type="1">
          <note pos="0" len="12" key="36" pan="0" vol="100" type="0"/>
          <note pos="24" len="12" key="46" pan="0" vol="100" type="0"/>
          <note pos="48" len="12" key="36" pan="0" vol="100" type="0"/>
          <note pos="72" len="12" key="44" pan="0" vol="100" type="0"/>
          <note pos="96" len="12" key="36" pan="0" vol="100" type="0"/>
          <note pos="120" len="12" key="46" pan="0" vol="100" type="0"/>
          <note pos="144" len="12" key="36" pan="0" vol="100" type="0"/>
          <note pos="168" len="12" key="44" pan="0" vol="100" type="0"/>
          <note pos="192" len="12" key="36" pan="0" vol="100" type="0"/>
          <note pos="216" len="12" key="46" pan="0" vol="100" type="0"/>
          <note pos="240" len="12" key="36" pan="0" vol="100" type="0"/>
          <note pos="264" len="12" key="44" pan="0" vol="100" type="0"/>
          <note pos="288" len="12" key="36" pan="0" vol="100" type="0"/>
          <note pos="312" len="12" key="46" pan="0" vol="100" type="0"/>
          <note pos="312" len="12" key="36" pan="0" vol="100" type="0"/>
          <note pos="324" len="12" key="36" pan="0" vol="100" type="0"/>
          <note pos="336" len="12" key="36" pan="0" vol="100" type="0"/>
          <note pos="360" len="12" key="44" pan="0" vol="100" type="0"/>
          <note pos="360" len="12" key="36" pan="0" vol="100" type="0"/>
        </midiclip>
        <midiclip muted="0" name="" pos="8064" steps="16" type="1">
          <note pos="0" len="12" key="36" pan="0" vol="100" type="0"/>
          <note pos="24" len="12" key="46" pan="0" vol="100" type="0"/>
          <note pos="48" len="12" key="36" pan="0" vol="100" type="0"/>
          <note pos="72" len="12" key="44" pan="0" vol="100" type="0"/>
          <note pos="96" len="12" key="36" pan="0" vol="100" type="0"/>
          <note pos="120" len="12" key="46" pan="0" vol="100" type="0"/>
          <note pos="144" len="12" key="36" pan="0" vol="100" type="0"/>
          <note pos="168" len="12" key="44" pan="0" vol="100" type="0"/>
          <note pos="192" len="12" key="36" pan="0" vol="100" type="0"/>
          <note pos="216" len="12" key="46" pan="0" vol="100" type="0"/>
          <note pos="240" len="12" key="36" pan="0" vol="100" type="0"/>
          <note pos="264" len="12" key="44" pan="0" vol="100" type="0"/>
          <note pos="288" len="12" key="36" pan="0" vol="100" type="0"/>
          <note pos="312" len="12" key="46" pan="0" vol="100" type="0"/>
          <note pos="312" len="12" key="36" pan="0" vol="100" type="0"/>
          <note pos="324" len="12" key="36" pan="0" vol="100" type="0"/>
          <note pos="336" len="12" key="36" pan="0" vol="100" type="0"/>
          <note pos="360" len="12" key="44" pan="0" vol="100" type="0"/>
          <note pos="360" len="12" key="36" pan="0" vol="100" type="0"/>
        </midiclip>
        <midiclip muted="0" name="" pos="8448" steps="16" type="1">
          <note pos="0" len="24" key="36" pan="0" vol="100" type="0"/>
          <note pos="24" len="24" key="54" pan="0" vol="100" type="0"/>
          <note pos="48" len="24" key="52" pan="0" vol="100" type="0"/>
          <note pos="72" len="24" key="36" pan="0" vol="100" type="0"/>
          <note pos="96" len="24" key="42" pan="0" vol="100" type="0"/>
          <note pos="120" len="24" key="52" pan="0" vol="100" type="0"/>
          <note pos="144" len="24" key="36" pan="0" vol="100" type="0"/>
          <note pos="192" len="24" key="36" pan="0" vol="100" type="0"/>
          <note pos="216" len="24" key="54" pan="0" vol="100" type="0"/>
          <note pos="240" len="24" key="52" pan="0" vol="100" type="0"/>
          <note pos="264" len="24" key="36" pan="0" vol="100" type="0"/>
          <note pos="288" len="24" key="42" pan="0" vol="100" type="0"/>
          <note pos="312" len="24" key="52" pan="0" vol="100" type="0"/>
          <note pos="336" len="24" key="46" pan="0" vol="100" type="0"/>
          <note pos="336" len="24" key="36" pan="0" vol="100" type="0"/>
          <note pos="360" len="24" key="44" pan="0" vol="100" type="0"/>
        </midiclip>
        <midiclip muted="0" name="" pos="8832" steps="16" type="1">
          <note pos="0" len="24" key="36" pan="0" vol="100" type="0"/>
          <note pos="24" len="24" key="54" pan="0" vol="100" type="0"/>
          <note pos="48" len="24" key="52" pan="0" vol="100" type="0"/>
          <note pos="72" len="24" key="36" pan="0" vol="100" type="0"/>
          <note pos="96" len="24" key="42" pan="0" vol="100" type="0"/>
          <note pos="120" len="24" key="52" pan="0" vol="100" type="0"/>
          <note pos="144" len="24" key="36" pan="0" vol="100" type="0"/>
          <note pos="192" len="24" key="36" pan="0" vol="100" type="0"/>
          <note pos="216" len="24" key="54" pan="0" vol="100" type="0"/>
          <note pos="240" len="24" key="52" pan="0" vol="100" type="0"/>
          <note pos="264" len="24" key="36" pan="0" vol="100" type="0"/>
          <note pos="288" len="24" key="42" pan="0" vol="100" type="0"/>
          <note pos="312" len="24" key="52" pan="0" vol="100" type="0"/>
          <note pos="336" len="24" key="46" pan="0" vol="100" type="0"/>
          <note pos="336" len="24" key="36" pan="0" vol="100" type="0"/>
          <note pos="360" len="24" key="44" pan="0" vol="100" type="0"/>
        </midiclip>
        <midiclip muted="0" name="" pos="9216" steps="16" type="1">
          <note pos="0" len="24" key="36" pan="0" vol="100" type="0"/>
          <note pos="24" len="24" key="54" pan="0" vol="100" type="0"/>
          <note pos="48" len="24" key="52" pan="0" vol="100" type="0"/>
          <note pos="72" len="24" key="36" pan="0" vol="100" type="0"/>
          <note pos="96" len="24" key="42" pan="0" vol="100" type="0"/>
          <note pos="120" len="24" key="52" pan="0" vol="100" type="0"/>
          <note pos="144" len="24" key="36" pan="0" vol="100" type="0"/>
          <note pos="192" len="24" key="36" pan="0" vol="100" type="0"/>
          <note pos="216" len="24" key="54" pan="0" vol="100" type="0"/>
          <note pos="240" len="24" key="52" pan="0" vol="100" type="0"/>
          <note pos="264" len="24" key="36" pan="0" vol="100" type="0"/>
          <note pos="288" len="24" key="42" pan="0" vol="100" type="0"/>
          <note pos="312" len="24" key="52" pan="0" vol="100" type="0"/>
          <note pos="336" len="24" key="46" pan="0" vol="100" type="0"/>
          <note pos="336" len="24" key="36" pan="0" vol="100" type="0"/>
          <note pos="360" len="24" key="44" pan="0" vol="100" type="0"/>
        </midiclip>
        <midiclip muted="0" name="" pos="9600" steps="16" type="1">
          <note pos="0" len="24" key="36" pan="0" vol="100" type="0"/>
          <note pos="24" len="24" key="54" pan="0" vol="100" type="0"/>
          <note pos="48" len="24" key="52" pan="0" vol="100" type="0"/>
          <note pos="72" len="24" key="36" pan="0" vol="100" type="0"/>
          <note pos="96" len="24" key="42" pan="0" vol="100" type="0"/>
          <note pos="120" len="24" key="52" pan="0" vol="100" type="0"/>
          <note pos="144" len="24" key="36" pan="0" vol="100" type="0"/>
          <note pos="192" len="24" key="36" pan="0" vol="100" type="0"/>
          <note pos="216" len="24" key="54" pan="0" vol="100" type="0"/>
          <note pos="240" len="24" key="52" pan="0" vol="100" type="0"/>
          <note pos="264" len="24" key="36" pan="0" vol="100" type="0"/>
          <note pos="288" len="24" key="42" pan="0" vol="100" type="0"/>
          <note pos="312" len="24" key="52" pan="0" vol="100" type="0"/>
          <note pos="336" len="24" key="46" pan="0" vol="100" type="0"/>
          <note pos="336" len="24" key="36" pan="0" vol="100" type="0"/>
          <note pos="360" len="24" key="44" pan="0" vol="100" type="0"/>
        </midiclip>
        <midiclip muted="0" name="" pos="9984" steps="16" type="1">
          <note pos="0" len="24" key="36" pan="0" vol="100" type="0"/>
          <note pos="24" len="24" key="54" pan="0" vol="100" type="0"/>
          <note pos="48" len="24" key="52" pan="0" vol="100" type="0"/>
          <note pos="72" len="24" key="36" pan="0" vol="100" type="0"/>
          <note pos="96" len="24" key="42" pan="0" vol="100" type="0"/>
          <note pos="120" len="24" key="52" pan="0" vol="100" type="0"/>
          <note pos="144" len="24" key="36" pan="0" vol="100" type="0"/>
          <note pos="192" len="24" key="36" pan="0" vol="100" type="0"/>
          <note pos="216" len="24" key="54" pan="0" vol="100" type="0"/>
          <note pos="240" len="24" key="52" pan="0" vol="100" type="0"/>
          <note pos="264" len="24" key="36" pan="0" vol="100" type="0"/>
          <note pos="288" len="24" key="42" pan="0" vol="100" type="0"/>
          <note pos="312" len="24" key="52" pan="0" vol="100" type="0"/>
          <note pos="336" len="24" key="46" pan="0" vol="100" type="0"/>
          <note pos="336" len="24" key="36" pan="0" vol="100" type="0"/>
          <note pos="360" len="24" key="44" pan="0" vol="100" type="0"/>
        </midiclip>
        <midiclip muted="0" name="" pos="10368" steps="16" type="1">
          <note pos="0" len="24" key="36" pan="0" vol="100" type="0"/>
          <note pos="24" len="24" key="54" pan="0" vol="100" type="0"/>
          <note pos="48" len="24" key="52" pan="0" vol="100" type="0"/>
          <note pos="72" len="24" key="36" pan="0" vol="100" type="0"/>
          <note pos="96" len="24" key="42" pan="0" vol="100" type="0"/>
          <note pos="120" len="24" key="52" pan="0" vol="100" type="0"/>
          <note pos="144" len="24" key="36" pan="0" vol="100" type="0"/>
          <note pos="192" len="24" key="36" pan="0" vol="100" type="0"/>
          <note pos="216" len="24" key="54" pan="0" vol="100" type="0"/>
          <note pos="240" len="24" key="52" pan="0" vol="100" type="0"/>
          <note pos="264" len="24" key="36" pan="0" vol="100" type="0"/>
          <note pos="288" len="24" key="42" pan="0" vol="100" type="0"/>
          <note pos="312" len="24" key="52" pan="0" vol="100" type="0"/>
          <note pos="336" len="24" key="46" pan="0" vol="100" type="0"/>
          <note pos="336" len="24" key="36" pan="0" vol="100" type="0"/>
          <note pos="360" len="24" key="44" pan="0" vol="100" type="0"/>
        </midiclip>
        <midiclip muted="0" name="" pos="10752" steps="16" type="1">
          <note pos="0" len="24" key="36" pan="0" vol="100" type="0"/>
          <note pos="24" len="24" key="54" pan="0" vol="100" type="0"/>
          <note pos="48" len="24" key="52" pan="0" vol="100" type="0"/>
          <note pos="72" len="24" key="36" pan="0" vol="100" type="0"/>
          <note pos="96" len="24" key="42" pan="0" vol="100" type="0"/>
          <note pos="120" len="24" key="52" pan="0" vol="100" type="0"/>
          <note pos="144" len="24" key="36" pan="0" vol="100" type="0"/>
          <note pos="192" len="24" key="36" pan="0" vol="100" type="0"/>
          <note pos="216" len="24" key="54" pan="0" vol="100" type="0"/>
          <note pos="240" len="24" key="52" pan="0" vol="100" type="0"/>
          <note pos="264" len="24" key="36" pan="0" vol="100" type="0"/>
          <note pos="288" len="24" key="42" pan="0" vol="100" type="0"/>
          <note pos="312" len="24" key="52" pan="0" vol="100" type="0"/>
          <note pos="336" len="24" key="46" pan="0" vol="100" type="0"/>
          <note pos="336" len="24" key="36" pan="0" vol="100" type="0"/>
          <note pos="360" len="24" key="44" pan="0" vol="100" type="0"/>
        </midiclip>
        <midiclip muted="0" name="" pos="11136" steps="16" type="1">
          <note pos="0" len="24" key="36" pan="0" vol="100" type="0"/>
          <note pos="24" len="24" key="54" pan="0" vol="100" type="0"/>
          <note pos="48" len="24" key="52" pan="0" vol="100" type="0"/>
          <note pos="72" len="24" key="36" pan="0" vol="100" type="0"/>
          <note pos="96" len="24" key="42" pan="0" vol="100" type="0"/>
          <note pos="120" len="24" key="52" pan="0" vol="100" type="0"/>
          <note pos="144" len="24" key="36" pan="0" vol="100" type="0"/>
          <note pos="192" len="24" key="36" pan="0" vol="100" type="0"/>
          <note pos="216" len="24" key="54" pan="0" vol="100" type="0"/>
          <note pos="240" len="24" key="52" pan="0" vol="100" type="0"/>
          <note pos="264" len="24" key="36" pan="0" vol="100" type="0"/>
          <note pos="288" len="24" key="42" pan="0" vol="100" type="0"/>
          <note pos="312" len="24" key="52" pan="0" vol="100" type="0"/>
          <note pos="336" len="24" key="46" pan="0" vol="100" type="0"/>
          <note pos="336" len="24" key="36" pan="0" vol="100" type="0"/>
          <note pos="360" len="24" key="44" pan="0" vol="100" type="0"/>
        </midiclip>
      </track>
      <track muted="0" mutedBeforeSolo="0" name="Drums>Hat" trackheight="32" solo="0" type="0">
        <instrumenttrack usemasterpitch="0" scale="0" range_import="1" firstkey="44" lastkey="46" keymap="0" enablecc="0" pan="0" enabled="0" pitch="-100" pitchrange="1" basenote="69" vol="100" mixch="5">
          <midicontrollers cc10="0" cc92="0" cc121="0" cc11="0" cc35="0" cc80="0" cc4="0" cc57="0" cc34="0" cc50="0" cc12="0" cc70="0" cc117="0" cc75="0" cc124="0" cc3="0" cc0="0" cc89="0" cc21="0" cc56="0" cc44="0" cc78="0" cc36="0" cc38="0" cc88="0" cc48="0" cc27="0" cc67="0" cc82="0" cc42="0" cc99="0" cc112="0" cc45="0" cc39="0" cc127="0" cc73="0" cc58="0" cc13="0" cc61="0" cc116="0" cc8="0" cc63="0" cc111="0" cc60="0" cc72="0" cc97="0" cc114="0" cc115="0" cc76="0" cc69="0" cc20="0" cc106="0" cc79="0" cc24="0" cc81="0" cc19="0" cc87="0" cc107="0" cc46="0" cc47="0" cc83="0" cc93="0" cc102="0" cc65="0" cc1="0" cc18="0" cc85="0" cc94="0" cc64="0" cc66="0" cc16="0" cc84="0" cc98="0" cc110="0" cc9="0" cc126="0" cc2="0" cc29="0" cc25="0" cc43="0" cc59="0" cc62="0" cc53="0" cc105="0" cc40="0" cc54="0" cc120="0" cc90="0" cc86="0" cc100="0" cc49="0" cc22="0" cc41="0" cc108="0" cc77="0" cc95="0" cc109="0" cc15="0" cc104="0" cc119="0" cc125="0" cc68="0" cc122="0" cc17="0" cc74="0" cc28="0" cc14="0" cc26="0" cc32="0" cc5="0" cc123="0" cc101="0" cc33="0" cc51="0" cc37="0" cc96="0" cc103="0" cc30="0" cc71="0" cc6="0" cc52="0" cc113="0" cc31="0" cc91="0" cc23="0" cc7="0" cc55="0" cc118="0"/>
          <instrument name="sf2player">
            <sf2player reverbRoomSize="0.2" chorusNum="3" reverbOn="0" gain="0.31999999" reverbDamping="0" chorusSpeed="0.30000001" chorusOn="0" src="usersoundfont:FluidR3 GM.sf2" chorusDepth="8" bank="128" reverbLevel="0.89999998" patch="17" reverbWidth="0.5" chorusLevel="2">
              <key/>
            </sf2player>
          </instrument>
          <eldata ftype="0" fcut="14000" fres="0.5" fwet="0">
            <elvol ctlenvamt="0" pdel="0" lspd_numerator="4" rel="0.1" att="0" lpdel="0" dec="0.5" lspd_syncmode="0" lamt="0" lspd="0.1" sustain="0.5" userwavefile="" latt="0" hold="0.5" lshp="0" lspd_denominator="4" amt="0" x100="0"/>
            <elcut ctlenvamt="0" pdel="0" lspd_numerator="4" rel="0.1" att="0" lpdel="0" dec="0.5" lspd_syncmode="0" lamt="0" lspd="0.1" sustain="0.5" userwavefile="" latt="0" hold="0.5" lshp="0" lspd_denominator="4" amt="0" x100="0"/>
            <elres ctlenvamt="0" pdel="0" lspd_numerator="4" rel="0.1" att="0" lpdel="0" dec="0.5" lspd_syncmode="0" lamt="0" lspd="0.1" sustain="0.5" userwavefile="" latt="0" hold="0.5" lshp="0" lspd_denominator="4" amt="0" x100="0"/>
          </eldata>
          <chordcreator chordrange="1" chord-enabled="0" chord="0"/>
          <arpeggiator arptime_syncmode="0" arprepeats="1" arp-enabled="0" arpdir="0" arptime_denominator="4" arp="0" arpcycle="0" arprange="1" arpmiss="0" arptime_numerator="4" arptime="200" arpskip="0" arpmode="0" arpgate="100"/>
          <midiport basevelocity="127" readable="1" fixedoutputnote="-1" inputchannel="0" inputcontroller="0" fixedinputvelocity="-1" inports="" outputprogram="1" writable="0" outputchannel="1" fixedoutputvelocity="-1" outputcontroller="0"/>
          <fxchain numofeffects="0" enabled="0"/>
        </instrumenttrack>
        <midiclip muted="0" name="" pos="1920" steps="16" type="1">
          <note pos="0" len="24" key="36" pan="0" vol="100" type="0"/>
          <note pos="24" len="24" key="54" pan="0" vol="100" type="0"/>
          <note pos="48" len="24" key="52" pan="0" vol="100" type="0"/>
          <note pos="72" len="24" key="36" pan="0" vol="100" type="0"/>
          <note pos="96" len="24" key="42" pan="0" vol="100" type="0"/>
          <note pos="120" len="24" key="52" pan="0" vol="100" type="0"/>
          <note pos="144" len="24" key="36" pan="0" vol="100" type="0"/>
          <note pos="192" len="24" key="36" pan="0" vol="100" type="0"/>
          <note pos="216" len="24" key="54" pan="0" vol="100" type="0"/>
          <note pos="240" len="24" key="52" pan="0" vol="100" type="0"/>
          <note pos="264" len="24" key="36" pan="0" vol="100" type="0"/>
          <note pos="288" len="24" key="42" pan="0" vol="100" type="0"/>
          <note pos="312" len="24" key="52" pan="0" vol="100" type="0"/>
          <note pos="336" len="24" key="46" pan="0" vol="100" type="0"/>
          <note pos="336" len="24" key="36" pan="0" vol="100" type="0"/>
          <note pos="360" len="24" key="44" pan="0" vol="100" type="0"/>
        </midiclip>
        <midiclip muted="0" name="" pos="2304" steps="16" type="1">
          <note pos="0" len="24" key="36" pan="0" vol="100" type="0"/>
          <note pos="24" len="24" key="54" pan="0" vol="100" type="0"/>
          <note pos="48" len="24" key="52" pan="0" vol="100" type="0"/>
          <note pos="72" len="24" key="36" pan="0" vol="100" type="0"/>
          <note pos="96" len="24" key="42" pan="0" vol="100" type="0"/>
          <note pos="120" len="24" key="52" pan="0" vol="100" type="0"/>
          <note pos="144" len="24" key="36" pan="0" vol="100" type="0"/>
          <note pos="192" len="24" key="36" pan="0" vol="100" type="0"/>
          <note pos="216" len="24" key="54" pan="0" vol="100" type="0"/>
          <note pos="240" len="24" key="52" pan="0" vol="100" type="0"/>
          <note pos="264" len="24" key="36" pan="0" vol="100" type="0"/>
          <note pos="288" len="24" key="42" pan="0" vol="100" type="0"/>
          <note pos="312" len="24" key="52" pan="0" vol="100" type="0"/>
          <note pos="336" len="24" key="46" pan="0" vol="100" type="0"/>
          <note pos="336" len="24" key="36" pan="0" vol="100" type="0"/>
          <note pos="360" len="24" key="44" pan="0" vol="100" type="0"/>
        </midiclip>
        <midiclip muted="0" name="" pos="2688" steps="16" type="1">
          <note pos="0" len="24" key="36" pan="0" vol="100" type="0"/>
          <note pos="24" len="24" key="54" pan="0" vol="100" type="0"/>
          <note pos="48" len="24" key="52" pan="0" vol="100" type="0"/>
          <note pos="72" len="24" key="36" pan="0" vol="100" type="0"/>
          <note pos="96" len="24" key="42" pan="0" vol="100" type="0"/>
          <note pos="120" len="24" key="52" pan="0" vol="100" type="0"/>
          <note pos="144" len="24" key="36" pan="0" vol="100" type="0"/>
          <note pos="192" len="24" key="36" pan="0" vol="100" type="0"/>
          <note pos="216" len="24" key="54" pan="0" vol="100" type="0"/>
          <note pos="240" len="24" key="52" pan="0" vol="100" type="0"/>
          <note pos="264" len="24" key="36" pan="0" vol="100" type="0"/>
          <note pos="288" len="24" key="42" pan="0" vol="100" type="0"/>
          <note pos="312" len="24" key="52" pan="0" vol="100" type="0"/>
          <note pos="336" len="24" key="46" pan="0" vol="100" type="0"/>
          <note pos="336" len="24" key="36" pan="0" vol="100" type="0"/>
          <note pos="360" len="24" key="44" pan="0" vol="100" type="0"/>
        </midiclip>
        <midiclip muted="0" name="" pos="3072" steps="16" type="1">
          <note pos="0" len="24" key="36" pan="0" vol="100" type="0"/>
          <note pos="24" len="24" key="54" pan="0" vol="100" type="0"/>
          <note pos="48" len="24" key="52" pan="0" vol="100" type="0"/>
          <note pos="72" len="24" key="36" pan="0" vol="100" type="0"/>
          <note pos="96" len="24" key="42" pan="0" vol="100" type="0"/>
          <note pos="120" len="24" key="52" pan="0" vol="100" type="0"/>
          <note pos="144" len="24" key="36" pan="0" vol="100" type="0"/>
          <note pos="192" len="24" key="36" pan="0" vol="100" type="0"/>
          <note pos="216" len="24" key="54" pan="0" vol="100" type="0"/>
          <note pos="240" len="24" key="52" pan="0" vol="100" type="0"/>
          <note pos="264" len="24" key="36" pan="0" vol="100" type="0"/>
          <note pos="288" len="24" key="42" pan="0" vol="100" type="0"/>
          <note pos="312" len="24" key="52" pan="0" vol="100" type="0"/>
          <note pos="336" len="24" key="46" pan="0" vol="100" type="0"/>
          <note pos="336" len="24" key="36" pan="0" vol="100" type="0"/>
          <note pos="360" len="24" key="44" pan="0" vol="100" type="0"/>
        </midiclip>
        <midiclip muted="0" name="" pos="1152" steps="16" type="1">
          <note pos="0" len="24" key="36" pan="0" vol="100" type="0"/>
          <note pos="72" len="24" key="36" pan="0" vol="100" type="0"/>
          <note pos="144" len="24" key="36" pan="0" vol="100" type="0"/>
          <note pos="192" len="24" key="36" pan="0" vol="100" type="0"/>
          <note pos="264" len="24" key="36" pan="0" vol="100" type="0"/>
          <note pos="336" len="24" key="36" pan="0" vol="100" type="0"/>
        </midiclip>
        <midiclip muted="0" name="" pos="1536" steps="16" type="1">
          <note pos="0" len="24" key="36" pan="0" vol="100" type="0"/>
          <note pos="72" len="24" key="36" pan="0" vol="100" type="0"/>
          <note pos="144" len="24" key="36" pan="0" vol="100" type="0"/>
          <note pos="192" len="24" key="36" pan="0" vol="100" type="0"/>
          <note pos="264" len="24" key="36" pan="0" vol="100" type="0"/>
          <note pos="288" len="24" key="44" pan="0" vol="100" type="0"/>
          <note pos="312" len="24" key="46" pan="0" vol="100" type="0"/>
          <note pos="336" len="24" key="42" pan="0" vol="100" type="0"/>
          <note pos="336" len="24" key="36" pan="0" vol="100" type="0"/>
          <note pos="360" len="24" key="52" pan="0" vol="100" type="0"/>
        </midiclip>
        <midiclip muted="0" name="" pos="3456" steps="16" type="1">
          <note pos="0" len="24" key="36" pan="0" vol="100" type="0"/>
          <note pos="24" len="24" key="54" pan="0" vol="100" type="0"/>
          <note pos="48" len="24" key="52" pan="0" vol="100" type="0"/>
          <note pos="72" len="24" key="36" pan="0" vol="100" type="0"/>
          <note pos="96" len="24" key="42" pan="0" vol="100" type="0"/>
          <note pos="120" len="24" key="52" pan="0" vol="100" type="0"/>
          <note pos="144" len="24" key="36" pan="0" vol="100" type="0"/>
          <note pos="192" len="24" key="36" pan="0" vol="100" type="0"/>
          <note pos="216" len="24" key="54" pan="0" vol="100" type="0"/>
          <note pos="240" len="24" key="52" pan="0" vol="100" type="0"/>
          <note pos="264" len="24" key="36" pan="0" vol="100" type="0"/>
          <note pos="288" len="24" key="42" pan="0" vol="100" type="0"/>
          <note pos="312" len="24" key="52" pan="0" vol="100" type="0"/>
          <note pos="336" len="24" key="46" pan="0" vol="100" type="0"/>
          <note pos="336" len="24" key="36" pan="0" vol="100" type="0"/>
          <note pos="360" len="24" key="44" pan="0" vol="100" type="0"/>
        </midiclip>
        <midiclip muted="0" name="" pos="3840" steps="16" type="1">
          <note pos="0" len="24" key="36" pan="0" vol="100" type="0"/>
          <note pos="24" len="24" key="54" pan="0" vol="100" type="0"/>
          <note pos="48" len="24" key="52" pan="0" vol="100" type="0"/>
          <note pos="72" len="24" key="36" pan="0" vol="100" type="0"/>
          <note pos="96" len="24" key="42" pan="0" vol="100" type="0"/>
          <note pos="120" len="24" key="52" pan="0" vol="100" type="0"/>
          <note pos="144" len="24" key="36" pan="0" vol="100" type="0"/>
          <note pos="192" len="24" key="36" pan="0" vol="100" type="0"/>
          <note pos="216" len="24" key="54" pan="0" vol="100" type="0"/>
          <note pos="240" len="24" key="52" pan="0" vol="100" type="0"/>
          <note pos="264" len="24" key="36" pan="0" vol="100" type="0"/>
          <note pos="288" len="24" key="42" pan="0" vol="100" type="0"/>
          <note pos="312" len="24" key="52" pan="0" vol="100" type="0"/>
          <note pos="336" len="24" key="46" pan="0" vol="100" type="0"/>
          <note pos="336" len="24" key="36" pan="0" vol="100" type="0"/>
          <note pos="360" len="24" key="44" pan="0" vol="100" type="0"/>
        </midiclip>
        <midiclip muted="0" name="" pos="4224" steps="16" type="1">
          <note pos="0" len="24" key="36" pan="0" vol="100" type="0"/>
          <note pos="24" len="24" key="54" pan="0" vol="100" type="0"/>
          <note pos="48" len="24" key="52" pan="0" vol="100" type="0"/>
          <note pos="72" len="24" key="36" pan="0" vol="100" type="0"/>
          <note pos="96" len="24" key="42" pan="0" vol="100" type="0"/>
          <note pos="120" len="24" key="52" pan="0" vol="100" type="0"/>
          <note pos="144" len="24" key="36" pan="0" vol="100" type="0"/>
          <note pos="192" len="24" key="36" pan="0" vol="100" type="0"/>
          <note pos="216" len="24" key="54" pan="0" vol="100" type="0"/>
          <note pos="240" len="24" key="52" pan="0" vol="100" type="0"/>
          <note pos="264" len="24" key="36" pan="0" vol="100" type="0"/>
          <note pos="288" len="24" key="42" pan="0" vol="100" type="0"/>
          <note pos="312" len="24" key="52" pan="0" vol="100" type="0"/>
          <note pos="336" len="24" key="46" pan="0" vol="100" type="0"/>
          <note pos="336" len="24" key="36" pan="0" vol="100" type="0"/>
          <note pos="360" len="24" key="44" pan="0" vol="100" type="0"/>
        </midiclip>
        <midiclip muted="0" name="" pos="4608" steps="16" type="1">
          <note pos="0" len="24" key="36" pan="0" vol="100" type="0"/>
          <note pos="24" len="24" key="54" pan="0" vol="100" type="0"/>
          <note pos="48" len="24" key="52" pan="0" vol="100" type="0"/>
          <note pos="72" len="24" key="36" pan="0" vol="100" type="0"/>
          <note pos="96" len="24" key="42" pan="0" vol="100" type="0"/>
          <note pos="120" len="24" key="52" pan="0" vol="100" type="0"/>
          <note pos="144" len="24" key="36" pan="0" vol="100" type="0"/>
          <note pos="192" len="24" key="36" pan="0" vol="100" type="0"/>
          <note pos="216" len="24" key="54" pan="0" vol="100" type="0"/>
          <note pos="240" len="24" key="52" pan="0" vol="100" type="0"/>
          <note pos="264" len="24" key="36" pan="0" vol="100" type="0"/>
          <note pos="288" len="24" key="42" pan="0" vol="100" type="0"/>
          <note pos="312" len="24" key="52" pan="0" vol="100" type="0"/>
          <note pos="336" len="24" key="46" pan="0" vol="100" type="0"/>
          <note pos="336" len="24" key="36" pan="0" vol="100" type="0"/>
          <note pos="360" len="24" key="44" pan="0" vol="100" type="0"/>
        </midiclip>
        <midiclip muted="0" name="" pos="6912" steps="16" type="1">
          <note pos="0" len="12" key="36" pan="0" vol="100" type="0"/>
          <note pos="24" len="12" key="46" pan="0" vol="100" type="0"/>
          <note pos="48" len="12" key="36" pan="0" vol="100" type="0"/>
          <note pos="72" len="12" key="44" pan="0" vol="100" type="0"/>
          <note pos="96" len="12" key="36" pan="0" vol="100" type="0"/>
          <note pos="120" len="12" key="46" pan="0" vol="100" type="0"/>
          <note pos="144" len="12" key="36" pan="0" vol="100" type="0"/>
          <note pos="168" len="12" key="44" pan="0" vol="100" type="0"/>
          <note pos="192" len="12" key="36" pan="0" vol="100" type="0"/>
          <note pos="216" len="12" key="46" pan="0" vol="100" type="0"/>
          <note pos="240" len="12" key="36" pan="0" vol="100" type="0"/>
          <note pos="264" len="12" key="44" pan="0" vol="100" type="0"/>
          <note pos="288" len="12" key="36" pan="0" vol="100" type="0"/>
          <note pos="312" len="12" key="46" pan="0" vol="100" type="0"/>
          <note pos="312" len="12" key="36" pan="0" vol="100" type="0"/>
          <note pos="324" len="12" key="36" pan="0" vol="100" type="0"/>
          <note pos="336" len="12" key="36" pan="0" vol="100" type="0"/>
          <note pos="360" len="12" key="44" pan="0" vol="100" type="0"/>
          <note pos="360" len="12" key="36" pan="0" vol="100" type="0"/>
        </midiclip>
        <midiclip muted="0" name="" pos="7296" steps="16" type="1">
          <note pos="0" len="12" key="36" pan="0" vol="100" type="0"/>
          <note pos="24" len="12" key="46" pan="0" vol="100" type="0"/>
          <note pos="48" len="12" key="36" pan="0" vol="100" type="0"/>
          <note pos="72" len="12" key="44" pan="0" vol="100" type="0"/>
          <note pos="96" len="12" key="36" pan="0" vol="100" type="0"/>
          <note pos="120" len="12" key="46" pan="0" vol="100" type="0"/>
          <note pos="144" len="12" key="36" pan="0" vol="100" type="0"/>
          <note pos="168" len="12" key="44" pan="0" vol="100" type="0"/>
          <note pos="192" len="12" key="36" pan="0" vol="100" type="0"/>
          <note pos="216" len="12" key="46" pan="0" vol="100" type="0"/>
          <note pos="240" len="12" key="36" pan="0" vol="100" type="0"/>
          <note pos="264" len="12" key="44" pan="0" vol="100" type="0"/>
          <note pos="288" len="12" key="36" pan="0" vol="100" type="0"/>
          <note pos="312" len="12" key="46" pan="0" vol="100" type="0"/>
          <note pos="312" len="12" key="36" pan="0" vol="100" type="0"/>
          <note pos="324" len="12" key="36" pan="0" vol="100" type="0"/>
          <note pos="336" len="12" key="36" pan="0" vol="100" type="0"/>
          <note pos="360" len="12" key="44" pan="0" vol="100" type="0"/>
          <note pos="360" len="12" key="36" pan="0" vol="100" type="0"/>
        </midiclip>
        <midiclip muted="0" name="" pos="7680" steps="16" type="1">
          <note pos="0" len="12" key="36" pan="0" vol="100" type="0"/>
          <note pos="24" len="12" key="46" pan="0" vol="100" type="0"/>
          <note pos="48" len="12" key="36" pan="0" vol="100" type="0"/>
          <note pos="72" len="12" key="44" pan="0" vol="100" type="0"/>
          <note pos="96" len="12" key="36" pan="0" vol="100" type="0"/>
          <note pos="120" len="12" key="46" pan="0" vol="100" type="0"/>
          <note pos="144" len="12" key="36" pan="0" vol="100" type="0"/>
          <note pos="168" len="12" key="44" pan="0" vol="100" type="0"/>
          <note pos="192" len="12" key="36" pan="0" vol="100" type="0"/>
          <note pos="216" len="12" key="46" pan="0" vol="100" type="0"/>
          <note pos="240" len="12" key="36" pan="0" vol="100" type="0"/>
          <note pos="264" len="12" key="44" pan="0" vol="100" type="0"/>
          <note pos="288" len="12" key="36" pan="0" vol="100" type="0"/>
          <note pos="312" len="12" key="46" pan="0" vol="100" type="0"/>
          <note pos="312" len="12" key="36" pan="0" vol="100" type="0"/>
          <note pos="324" len="12" key="36" pan="0" vol="100" type="0"/>
          <note pos="336" len="12" key="36" pan="0" vol="100" type="0"/>
          <note pos="360" len="12" key="44" pan="0" vol="100" type="0"/>
          <note pos="360" len="12" key="36" pan="0" vol="100" type="0"/>
        </midiclip>
        <midiclip muted="0" name="" pos="8064" steps="16" type="1">
          <note pos="0" len="12" key="36" pan="0" vol="100" type="0"/>
          <note pos="24" len="12" key="46" pan="0" vol="100" type="0"/>
          <note pos="48" len="12" key="36" pan="0" vol="100" type="0"/>
          <note pos="72" len="12" key="44" pan="0" vol="100" type="0"/>
          <note pos="96" len="12" key="36" pan="0" vol="100" type="0"/>
          <note pos="120" len="12" key="46" pan="0" vol="100" type="0"/>
          <note pos="144" len="12" key="36" pan="0" vol="100" type="0"/>
          <note pos="168" len="12" key="44" pan="0" vol="100" type="0"/>
          <note pos="192" len="12" key="36" pan="0" vol="100" type="0"/>
          <note pos="216" len="12" key="46" pan="0" vol="100" type="0"/>
          <note pos="240" len="12" key="36" pan="0" vol="100" type="0"/>
          <note pos="264" len="12" key="44" pan="0" vol="100" type="0"/>
          <note pos="288" len="12" key="36" pan="0" vol="100" type="0"/>
          <note pos="312" len="12" key="46" pan="0" vol="100" type="0"/>
          <note pos="312" len="12" key="36" pan="0" vol="100" type="0"/>
          <note pos="324" len="12" key="36" pan="0" vol="100" type="0"/>
          <note pos="336" len="12" key="36" pan="0" vol="100" type="0"/>
          <note pos="360" len="12" key="44" pan="0" vol="100" type="0"/>
          <note pos="360" len="12" key="36" pan="0" vol="100" type="0"/>
        </midiclip>
        <midiclip muted="0" name="" pos="8448" steps="16" type="1">
          <note pos="0" len="24" key="36" pan="0" vol="100" type="0"/>
          <note pos="24" len="24" key="54" pan="0" vol="100" type="0"/>
          <note pos="48" len="24" key="52" pan="0" vol="100" type="0"/>
          <note pos="72" len="24" key="36" pan="0" vol="100" type="0"/>
          <note pos="96" len="24" key="42" pan="0" vol="100" type="0"/>
          <note pos="120" len="24" key="52" pan="0" vol="100" type="0"/>
          <note pos="144" len="24" key="36" pan="0" vol="100" type="0"/>
          <note pos="192" len="24" key="36" pan="0" vol="100" type="0"/>
          <note pos="216" len="24" key="54" pan="0" vol="100" type="0"/>
          <note pos="240" len="24" key="52" pan="0" vol="100" type="0"/>
          <note pos="264" len="24" key="36" pan="0" vol="100" type="0"/>
          <note pos="288" len="24" key="42" pan="0" vol="100" type="0"/>
          <note pos="312" len="24" key="52" pan="0" vol="100" type="0"/>
          <note pos="336" len="24" key="46" pan="0" vol="100" type="0"/>
          <note pos="336" len="24" key="36" pan="0" vol="100" type="0"/>
          <note pos="360" len="24" key="44" pan="0" vol="100" type="0"/>
        </midiclip>
        <midiclip muted="0" name="" pos="8832" steps="16" type="1">
          <note pos="0" len="24" key="36" pan="0" vol="100" type="0"/>
          <note pos="24" len="24" key="54" pan="0" vol="100" type="0"/>
          <note pos="48" len="24" key="52" pan="0" vol="100" type="0"/>
          <note pos="72" len="24" key="36" pan="0" vol="100" type="0"/>
          <note pos="96" len="24" key="42" pan="0" vol="100" type="0"/>
          <note pos="120" len="24" key="52" pan="0" vol="100" type="0"/>
          <note pos="144" len="24" key="36" pan="0" vol="100" type="0"/>
          <note pos="192" len="24" key="36" pan="0" vol="100" type="0"/>
          <note pos="216" len="24" key="54" pan="0" vol="100" type="0"/>
          <note pos="240" len="24" key="52" pan="0" vol="100" type="0"/>
          <note pos="264" len="24" key="36" pan="0" vol="100" type="0"/>
          <note pos="288" len="24" key="42" pan="0" vol="100" type="0"/>
          <note pos="312" len="24" key="52" pan="0" vol="100" type="0"/>
          <note pos="336" len="24" key="46" pan="0" vol="100" type="0"/>
          <note pos="336" len="24" key="36" pan="0" vol="100" type="0"/>
          <note pos="360" len="24" key="44" pan="0" vol="100" type="0"/>
        </midiclip>
        <midiclip muted="0" name="" pos="9216" steps="16" type="1">
          <note pos="0" len="24" key="36" pan="0" vol="100" type="0"/>
          <note pos="24" len="24" key="54" pan="0" vol="100" type="0"/>
          <note pos="48" len="24" key="52" pan="0" vol="100" type="0"/>
          <note pos="72" len="24" key="36" pan="0" vol="100" type="0"/>
          <note pos="96" len="24" key="42" pan="0" vol="100" type="0"/>
          <note pos="120" len="24" key="52" pan="0" vol="100" type="0"/>
          <note pos="144" len="24" key="36" pan="0" vol="100" type="0"/>
          <note pos="192" len="24" key="36" pan="0" vol="100" type="0"/>
          <note pos="216" len="24" key="54" pan="0" vol="100" type="0"/>
          <note pos="240" len="24" key="52" pan="0" vol="100" type="0"/>
          <note pos="264" len="24" key="36" pan="0" vol="100" type="0"/>
          <note pos="288" len="24" key="42" pan="0" vol="100" type="0"/>
          <note pos="312" len="24" key="52" pan="0" vol="100" type="0"/>
          <note pos="336" len="24" key="46" pan="0" vol="100" type="0"/>
          <note pos="336" len="24" key="36" pan="0" vol="100" type="0"/>
          <note pos="360" len="24" key="44" pan="0" vol="100" type="0"/>
        </midiclip>
        <midiclip muted="0" name="" pos="9600" steps="16" type="1">
          <note pos="0" len="24" key="36" pan="0" vol="100" type="0"/>
          <note pos="24" len="24" key="54" pan="0" vol="100" type="0"/>
          <note pos="48" len="24" key="52" pan="0" vol="100" type="0"/>
          <note pos="72" len="24" key="36" pan="0" vol="100" type="0"/>
          <note pos="96" len="24" key="42" pan="0" vol="100" type="0"/>
          <note pos="120" len="24" key="52" pan="0" vol="100" type="0"/>
          <note pos="144" len="24" key="36" pan="0" vol="100" type="0"/>
          <note pos="192" len="24" key="36" pan="0" vol="100" type="0"/>
          <note pos="216" len="24" key="54" pan="0" vol="100" type="0"/>
          <note pos="240" len="24" key="52" pan="0" vol="100" type="0"/>
          <note pos="264" len="24" key="36" pan="0" vol="100" type="0"/>
          <note pos="288" len="24" key="42" pan="0" vol="100" type="0"/>
          <note pos="312" len="24" key="52" pan="0" vol="100" type="0"/>
          <note pos="336" len="24" key="46" pan="0" vol="100" type="0"/>
          <note pos="336" len="24" key="36" pan="0" vol="100" type="0"/>
          <note pos="360" len="24" key="44" pan="0" vol="100" type="0"/>
        </midiclip>
        <midiclip muted="0" name="" pos="9984" steps="16" type="1">
          <note pos="0" len="24" key="36" pan="0" vol="100" type="0"/>
          <note pos="24" len="24" key="54" pan="0" vol="100" type="0"/>
          <note pos="48" len="24" key="52" pan="0" vol="100" type="0"/>
          <note pos="72" len="24" key="36" pan="0" vol="100" type="0"/>
          <note pos="96" len="24" key="42" pan="0" vol="100" type="0"/>
          <note pos="120" len="24" key="52" pan="0" vol="100" type="0"/>
          <note pos="144" len="24" key="36" pan="0" vol="100" type="0"/>
          <note pos="192" len="24" key="36" pan="0" vol="100" type="0"/>
          <note pos="216" len="24" key="54" pan="0" vol="100" type="0"/>
          <note pos="240" len="24" key="52" pan="0" vol="100" type="0"/>
          <note pos="264" len="24" key="36" pan="0" vol="100" type="0"/>
          <note pos="288" len="24" key="42" pan="0" vol="100" type="0"/>
          <note pos="312" len="24" key="52" pan="0" vol="100" type="0"/>
          <note pos="336" len="24" key="46" pan="0" vol="100" type="0"/>
          <note pos="336" len="24" key="36" pan="0" vol="100" type="0"/>
          <note pos="360" len="24" key="44" pan="0" vol="100" type="0"/>
        </midiclip>
        <midiclip muted="0" name="" pos="10368" steps="16" type="1">
          <note pos="0" len="24" key="36" pan="0" vol="100" type="0"/>
          <note pos="24" len="24" key="54" pan="0" vol="100" type="0"/>
          <note pos="48" len="24" key="52" pan="0" vol="100" type="0"/>
          <note pos="72" len="24" key="36" pan="0" vol="100" type="0"/>
          <note pos="96" len="24" key="42" pan="0" vol="100" type="0"/>
          <note pos="120" len="24" key="52" pan="0" vol="100" type="0"/>
          <note pos="144" len="24" key="36" pan="0" vol="100" type="0"/>
          <note pos="192" len="24" key="36" pan="0" vol="100" type="0"/>
          <note pos="216" len="24" key="54" pan="0" vol="100" type="0"/>
          <note pos="240" len="24" key="52" pan="0" vol="100" type="0"/>
          <note pos="264" len="24" key="36" pan="0" vol="100" type="0"/>
          <note pos="288" len="24" key="42" pan="0" vol="100" type="0"/>
          <note pos="312" len="24" key="52" pan="0" vol="100" type="0"/>
          <note pos="336" len="24" key="46" pan="0" vol="100" type="0"/>
          <note pos="336" len="24" key="36" pan="0" vol="100" type="0"/>
          <note pos="360" len="24" key="44" pan="0" vol="100" type="0"/>
        </midiclip>
        <midiclip muted="0" name="" pos="10752" steps="16" type="1">
          <note pos="0" len="24" key="36" pan="0" vol="100" type="0"/>
          <note pos="24" len="24" key="54" pan="0" vol="100" type="0"/>
          <note pos="48" len="24" key="52" pan="0" vol="100" type="0"/>
          <note pos="72" len="24" key="36" pan="0" vol="100" type="0"/>
          <note pos="96" len="24" key="42" pan="0" vol="100" type="0"/>
          <note pos="120" len="24" key="52" pan="0" vol="100" type="0"/>
          <note pos="144" len="24" key="36" pan="0" vol="100" type="0"/>
          <note pos="192" len="24" key="36" pan="0" vol="100" type="0"/>
          <note pos="216" len="24" key="54" pan="0" vol="100" type="0"/>
          <note pos="240" len="24" key="52" pan="0" vol="100" type="0"/>
          <note pos="264" len="24" key="36" pan="0" vol="100" type="0"/>
          <note pos="288" len="24" key="42" pan="0" vol="100" type="0"/>
          <note pos="312" len="24" key="52" pan="0" vol="100" type="0"/>
          <note pos="336" len="24" key="46" pan="0" vol="100" type="0"/>
          <note pos="336" len="24" key="36" pan="0" vol="100" type="0"/>
          <note pos="360" len="24" key="44" pan="0" vol="100" type="0"/>
        </midiclip>
        <midiclip muted="0" name="" pos="11136" steps="16" type="1">
          <note pos="0" len="24" key="36" pan="0" vol="100" type="0"/>
          <note pos="24" len="24" key="54" pan="0" vol="100" type="0"/>
          <note pos="48" len="24" key="52" pan="0" vol="100" type="0"/>
          <note pos="72" len="24" key="36" pan="0" vol="100" type="0"/>
          <note pos="96" len="24" key="42" pan="0" vol="100" type="0"/>
          <note pos="120" len="24" key="52" pan="0" vol="100" type="0"/>
          <note pos="144" len="24" key="36" pan="0" vol="100" type="0"/>
          <note pos="192" len="24" key="36" pan="0" vol="100" type="0"/>
          <note pos="216" len="24" key="54" pan="0" vol="100" type="0"/>
          <note pos="240" len="24" key="52" pan="0" vol="100" type="0"/>
          <note pos="264" len="24" key="36" pan="0" vol="100" type="0"/>
          <note pos="288" len="24" key="42" pan="0" vol="100" type="0"/>
          <note pos="312" len="24" key="52" pan="0" vol="100" type="0"/>
          <note pos="336" len="24" key="46" pan="0" vol="100" type="0"/>
          <note pos="336" len="24" key="36" pan="0" vol="100" type="0"/>
          <note pos="360" len="24" key="44" pan="0" vol="100" type="0"/>
        </midiclip>
      </track>
      <track muted="0" mutedBeforeSolo="0" name="Drums>Crash" trackheight="32" solo="0" type="0">
        <instrumenttrack usemasterpitch="0" scale="0" range_import="1" firstkey="52" lastkey="54" keymap="0" enablecc="0" pan="0" enabled="0" pitch="-100" pitchrange="1" basenote="69" vol="100" mixch="5">
          <midicontrollers cc10="0" cc92="0" cc121="0" cc11="0" cc35="0" cc80="0" cc4="0" cc57="0" cc34="0" cc50="0" cc12="0" cc70="0" cc117="0" cc75="0" cc124="0" cc3="0" cc0="0" cc89="0" cc21="0" cc56="0" cc44="0" cc78="0" cc36="0" cc38="0" cc88="0" cc48="0" cc27="0" cc67="0" cc82="0" cc42="0" cc99="0" cc112="0" cc45="0" cc39="0" cc127="0" cc73="0" cc58="0" cc13="0" cc61="0" cc116="0" cc8="0" cc63="0" cc111="0" cc60="0" cc72="0" cc97="0" cc114="0" cc115="0" cc76="0" cc69="0" cc20="0" cc106="0" cc79="0" cc24="0" cc81="0" cc19="0" cc87="0" cc107="0" cc46="0" cc47="0" cc83="0" cc93="0" cc102="0" cc65="0" cc1="0" cc18="0" cc85="0" cc94="0" cc64="0" cc66="0" cc16="0" cc84="0" cc98="0" cc110="0" cc9="0" cc126="0" cc2="0" cc29="0" cc25="0" cc43="0" cc59="0" cc62="0" cc53="0" cc105="0" cc40="0" cc54="0" cc120="0" cc90="0" cc86="0" cc100="0" cc49="0" cc22="0" cc41="0" cc108="0" cc77="0" cc95="0" cc109="0" cc15="0" cc104="0" cc119="0" cc125="0" cc68="0" cc122="0" cc17="0" cc74="0" cc28="0" cc14="0" cc26="0" cc32="0" cc5="0" cc123="0" cc101="0" cc33="0" cc51="0" cc37="0" cc96="0" cc103="0" cc30="0" cc71="0" cc6="0" cc52="0" cc113="0" cc31="0" cc91="0" cc23="0" cc7="0" cc55="0" cc118="0"/>
          <instrument name="sf2player">
            <sf2player reverbRoomSize="0.2" chorusNum="3" reverbOn="0" gain="0.28" reverbDamping="0" chorusSpeed="0.30000001" chorusOn="0" src="usersoundfont:FluidR3 GM.sf2" chorusDepth="8" bank="128" reverbLevel="0.89999998" patch="17" reverbWidth="0.5" chorusLevel="2">
              <key/>
            </sf2player>
          </instrument>
          <eldata ftype="0" fcut="14000" fres="0.5" fwet="0">
            <elvol ctlenvamt="0" pdel="0" lspd_numerator="4" rel="0.1" att="0" lpdel="0" dec="0.5" lspd_syncmode="0" lamt="0" lspd="0.1" sustain="0.5" userwavefile="" latt="0" hold="0.5" lshp="0" lspd_denominator="4" amt="0" x100="0"/>
            <elcut ctlenvamt="0" pdel="0" lspd_numerator="4" rel="0.1" att="0" lpdel="0" dec="0.5" lspd_syncmode="0" lamt="0" lspd="0.1" sustain="0.5" userwavefile="" latt="0" hold="0.5" lshp="0" lspd_denominator="4" amt="0" x100="0"/>
            <elres ctlenvamt="0" pdel="0" lspd_numerator="4" rel="0.1" att="0" lpdel="0" dec="0.5" lspd_syncmode="0" lamt="0" lspd="0.1" sustain="0.5" userwavefile="" latt="0" hold="0.5" lshp="0" lspd_denominator="4" amt="0" x100="0"/>
          </eldata>
          <chordcreator chordrange="1" chord-enabled="0" chord="0"/>
          <arpeggiator arptime_syncmode="0" arprepeats="1" arp-enabled="0" arpdir="0" arptime_denominator="4" arp="0" arpcycle="0" arprange="1" arpmiss="0" arptime_numerator="4" arptime="200" arpskip="0" arpmode="0" arpgate="100"/>
          <midiport basevelocity="127" readable="1" fixedoutputnote="-1" inputchannel="0" inputcontroller="0" fixedinputvelocity="-1" inports="" outputprogram="1" writable="0" outputchannel="1" fixedoutputvelocity="-1" outputcontroller="0"/>
          <fxchain numofeffects="0" enabled="0"/>
        </instrumenttrack>
        <midiclip muted="0" name="" pos="1920" steps="16" type="1">
          <note pos="0" len="24" key="36" pan="0" vol="100" type="0"/>
          <note pos="24" len="24" key="54" pan="0" vol="100" type="0"/>
          <note pos="48" len="24" key="52" pan="0" vol="100" type="0"/>
          <note pos="72" len="24" key="36" pan="0" vol="100" type="0"/>
          <note pos="96" len="24" key="42" pan="0" vol="100" type="0"/>
          <note pos="120" len="24" key="52" pan="0" vol="100" type="0"/>
          <note pos="144" len="24" key="36" pan="0" vol="100" type="0"/>
          <note pos="192" len="24" key="36" pan="0" vol="100" type="0"/>
          <note pos="216" len="24" key="54" pan="0" vol="100" type="0"/>
          <note pos="240" len="24" key="52" pan="0" vol="100" type="0"/>
          <note pos="264" len="24" key="36" pan="0" vol="100" type="0"/>
          <note pos="288" len="24" key="42" pan="0" vol="100" type="0"/>
          <note pos="312" len="24" key="52" pan="0" vol="100" type="0"/>
          <note pos="336" len="24" key="46" pan="0" vol="100" type="0"/>
          <note pos="336" len="24" key="36" pan="0" vol="100" type="0"/>
          <note pos="360" len="24" key="44" pan="0" vol="100" type="0"/>
        </midiclip>
        <midiclip muted="0" name="" pos="2304" steps="16" type="1">
          <note pos="0" len="24" key="36" pan="0" vol="100" type="0"/>
          <note pos="24" len="24" key="54" pan="0" vol="100" type="0"/>
          <note pos="48" len="24" key="52" pan="0" vol="100" type="0"/>
          <note pos="72" len="24" key="36" pan="0" vol="100" type="0"/>
          <note pos="96" len="24" key="42" pan="0" vol="100" type="0"/>
          <note pos="120" len="24" key="52" pan="0" vol="100" type="0"/>
          <note pos="144" len="24" key="36" pan="0" vol="100" type="0"/>
          <note pos="192" len="24" key="36" pan="0" vol="100" type="0"/>
          <note pos="216" len="24" key="54" pan="0" vol="100" type="0"/>
          <note pos="240" len="24" key="52" pan="0" vol="100" type="0"/>
          <note pos="264" len="24" key="36" pan="0" vol="100" type="0"/>
          <note pos="288" len="24" key="42" pan="0" vol="100" type="0"/>
          <note pos="312" len="24" key="52" pan="0" vol="100" type="0"/>
          <note pos="336" len="24" key="46" pan="0" vol="100" type="0"/>
          <note pos="336" len="24" key="36" pan="0" vol="100" type="0"/>
          <note pos="360" len="24" key="44" pan="0" vol="100" type="0"/>
        </midiclip>
        <midiclip muted="0" name="" pos="2688" steps="16" type="1">
          <note pos="0" len="24" key="36" pan="0" vol="100" type="0"/>
          <note pos="24" len="24" key="54" pan="0" vol="100" type="0"/>
          <note pos="48" len="24" key="52" pan="0" vol="100" type="0"/>
          <note pos="72" len="24" key="36" pan="0" vol="100" type="0"/>
          <note pos="96" len="24" key="42" pan="0" vol="100" type="0"/>
          <note pos="120" len="24" key="52" pan="0" vol="100" type="0"/>
          <note pos="144" len="24" key="36" pan="0" vol="100" type="0"/>
          <note pos="192" len="24" key="36" pan="0" vol="100" type="0"/>
          <note pos="216" len="24" key="54" pan="0" vol="100" type="0"/>
          <note pos="240" len="24" key="52" pan="0" vol="100" type="0"/>
          <note pos="264" len="24" key="36" pan="0" vol="100" type="0"/>
          <note pos="288" len="24" key="42" pan="0" vol="100" type="0"/>
          <note pos="312" len="24" key="52" pan="0" vol="100" type="0"/>
          <note pos="336" len="24" key="46" pan="0" vol="100" type="0"/>
          <note pos="336" len="24" key="36" pan="0" vol="100" type="0"/>
          <note pos="360" len="24" key="44" pan="0" vol="100" type="0"/>
        </midiclip>
        <midiclip muted="0" name="" pos="3072" steps="16" type="1">
          <note pos="0" len="24" key="36" pan="0" vol="100" type="0"/>
          <note pos="24" len="24" key="54" pan="0" vol="100" type="0"/>
          <note pos="48" len="24" key="52" pan="0" vol="100" type="0"/>
          <note pos="72" len="24" key="36" pan="0" vol="100" type="0"/>
          <note pos="96" len="24" key="42" pan="0" vol="100" type="0"/>
          <note pos="120" len="24" key="52" pan="0" vol="100" type="0"/>
          <note pos="144" len="24" key="36" pan="0" vol="100" type="0"/>
          <note pos="192" len="24" key="36" pan="0" vol="100" type="0"/>
          <note pos="216" len="24" key="54" pan="0" vol="100" type="0"/>
          <note pos="240" len="24" key="52" pan="0" vol="100" type="0"/>
          <note pos="264" len="24" key="36" pan="0" vol="100" type="0"/>
          <note pos="288" len="24" key="42" pan="0" vol="100" type="0"/>
          <note pos="312" len="24" key="52" pan="0" vol="100" type="0"/>
          <note pos="336" len="24" key="46" pan="0" vol="100" type="0"/>
          <note pos="336" len="24" key="36" pan="0" vol="100" type="0"/>
          <note pos="360" len="24" key="44" pan="0" vol="100" type="0"/>
        </midiclip>
        <midiclip muted="0" name="" pos="1152" steps="16" type="1">
          <note pos="0" len="24" key="36" pan="0" vol="100" type="0"/>
          <note pos="72" len="24" key="36" pan="0" vol="100" type="0"/>
          <note pos="144" len="24" key="36" pan="0" vol="100" type="0"/>
          <note pos="192" len="24" key="36" pan="0" vol="100" type="0"/>
          <note pos="264" len="24" key="36" pan="0" vol="100" type="0"/>
          <note pos="336" len="24" key="36" pan="0" vol="100" type="0"/>
        </midiclip>
        <midiclip muted="0" name="" pos="1536" steps="16" type="1">
          <note pos="0" len="24" key="36" pan="0" vol="100" type="0"/>
          <note pos="72" len="24" key="36" pan="0" vol="100" type="0"/>
          <note pos="144" len="24" key="36" pan="0" vol="100" type="0"/>
          <note pos="192" len="24" key="36" pan="0" vol="100" type="0"/>
          <note pos="264" len="24" key="36" pan="0" vol="100" type="0"/>
          <note pos="288" len="24" key="44" pan="0" vol="100" type="0"/>
          <note pos="312" len="24" key="46" pan="0" vol="100" type="0"/>
          <note pos="336" len="24" key="42" pan="0" vol="100" type="0"/>
          <note pos="336" len="24" key="36" pan="0" vol="100" type="0"/>
          <note pos="360" len="24" key="52" pan="0" vol="100" type="0"/>
        </midiclip>
        <midiclip muted="0" name="" pos="3456" steps="16" type="1">
          <note pos="0" len="24" key="36" pan="0" vol="100" type="0"/>
          <note pos="24" len="24" key="54" pan="0" vol="100" type="0"/>
          <note pos="48" len="24" key="52" pan="0" vol="100" type="0"/>
          <note pos="72" len="24" key="36" pan="0" vol="100" type="0"/>
          <note pos="96" len="24" key="42" pan="0" vol="100" type="0"/>
          <note pos="120" len="24" key="52" pan="0" vol="100" type="0"/>
          <note pos="144" len="24" key="36" pan="0" vol="100" type="0"/>
          <note pos="192" len="24" key="36" pan="0" vol="100" type="0"/>
          <note pos="216" len="24" key="54" pan="0" vol="100" type="0"/>
          <note pos="240" len="24" key="52" pan="0" vol="100" type="0"/>
          <note pos="264" len="24" key="36" pan="0" vol="100" type="0"/>
          <note pos="288" len="24" key="42" pan="0" vol="100" type="0"/>
          <note pos="312" len="24" key="52" pan="0" vol="100" type="0"/>
          <note pos="336" len="24" key="46" pan="0" vol="100" type="0"/>
          <note pos="336" len="24" key="36" pan="0" vol="100" type="0"/>
          <note pos="360" len="24" key="44" pan="0" vol="100" type="0"/>
        </midiclip>
        <midiclip muted="0" name="" pos="3840" steps="16" type="1">
          <note pos="0" len="24" key="36" pan="0" vol="100" type="0"/>
          <note pos="24" len="24" key="54" pan="0" vol="100" type="0"/>
          <note pos="48" len="24" key="52" pan="0" vol="100" type="0"/>
          <note pos="72" len="24" key="36" pan="0" vol="100" type="0"/>
          <note pos="96" len="24" key="42" pan="0" vol="100" type="0"/>
          <note pos="120" len="24" key="52" pan="0" vol="100" type="0"/>
          <note pos="144" len="24" key="36" pan="0" vol="100" type="0"/>
          <note pos="192" len="24" key="36" pan="0" vol="100" type="0"/>
          <note pos="216" len="24" key="54" pan="0" vol="100" type="0"/>
          <note pos="240" len="24" key="52" pan="0" vol="100" type="0"/>
          <note pos="264" len="24" key="36" pan="0" vol="100" type="0"/>
          <note pos="288" len="24" key="42" pan="0" vol="100" type="0"/>
          <note pos="312" len="24" key="52" pan="0" vol="100" type="0"/>
          <note pos="336" len="24" key="46" pan="0" vol="100" type="0"/>
          <note pos="336" len="24" key="36" pan="0" vol="100" type="0"/>
          <note pos="360" len="24" key="44" pan="0" vol="100" type="0"/>
        </midiclip>
        <midiclip muted="0" name="" pos="4224" steps="16" type="1">
          <note pos="0" len="24" key="36" pan="0" vol="100" type="0"/>
          <note pos="24" len="24" key="54" pan="0" vol="100" type="0"/>
          <note pos="48" len="24" key="52" pan="0" vol="100" type="0"/>
          <note pos="72" len="24" key="36" pan="0" vol="100" type="0"/>
          <note pos="96" len="24" key="42" pan="0" vol="100" type="0"/>
          <note pos="120" len="24" key="52" pan="0" vol="100" type="0"/>
          <note pos="144" len="24" key="36" pan="0" vol="100" type="0"/>
          <note pos="192" len="24" key="36" pan="0" vol="100" type="0"/>
          <note pos="216" len="24" key="54" pan="0" vol="100" type="0"/>
          <note pos="240" len="24" key="52" pan="0" vol="100" type="0"/>
          <note pos="264" len="24" key="36" pan="0" vol="100" type="0"/>
          <note pos="288" len="24" key="42" pan="0" vol="100" type="0"/>
          <note pos="312" len="24" key="52" pan="0" vol="100" type="0"/>
          <note pos="336" len="24" key="46" pan="0" vol="100" type="0"/>
          <note pos="336" len="24" key="36" pan="0" vol="100" type="0"/>
          <note pos="360" len="24" key="44" pan="0" vol="100" type="0"/>
        </midiclip>
        <midiclip muted="0" name="" pos="4608" steps="16" type="1">
          <note pos="0" len="24" key="36" pan="0" vol="100" type="0"/>
          <note pos="24" len="24" key="54" pan="0" vol="100" type="0"/>
          <note pos="48" len="24" key="52" pan="0" vol="100" type="0"/>
          <note pos="72" len="24" key="36" pan="0" vol="100" type="0"/>
          <note pos="96" len="24" key="42" pan="0" vol="100" type="0"/>
          <note pos="120" len="24" key="52" pan="0" vol="100" type="0"/>
          <note pos="144" len="24" key="36" pan="0" vol="100" type="0"/>
          <note pos="192" len="24" key="36" pan="0" vol="100" type="0"/>
          <note pos="216" len="24" key="54" pan="0" vol="100" type="0"/>
          <note pos="240" len="24" key="52" pan="0" vol="100" type="0"/>
          <note pos="264" len="24" key="36" pan="0" vol="100" type="0"/>
          <note pos="288" len="24" key="42" pan="0" vol="100" type="0"/>
          <note pos="312" len="24" key="52" pan="0" vol="100" type="0"/>
          <note pos="336" len="24" key="46" pan="0" vol="100" type="0"/>
          <note pos="336" len="24" key="36" pan="0" vol="100" type="0"/>
          <note pos="360" len="24" key="44" pan="0" vol="100" type="0"/>
        </midiclip>
        <midiclip muted="0" name="" pos="6912" steps="16" type="1">
          <note pos="0" len="12" key="36" pan="0" vol="100" type="0"/>
          <note pos="24" len="12" key="46" pan="0" vol="100" type="0"/>
          <note pos="48" len="12" key="36" pan="0" vol="100" type="0"/>
          <note pos="72" len="12" key="44" pan="0" vol="100" type="0"/>
          <note pos="96" len="12" key="36" pan="0" vol="100" type="0"/>
          <note pos="120" len="12" key="46" pan="0" vol="100" type="0"/>
          <note pos="144" len="12" key="36" pan="0" vol="100" type="0"/>
          <note pos="168" len="12" key="44" pan="0" vol="100" type="0"/>
          <note pos="192" len="12" key="36" pan="0" vol="100" type="0"/>
          <note pos="216" len="12" key="46" pan="0" vol="100" type="0"/>
          <note pos="240" len="12" key="36" pan="0" vol="100" type="0"/>
          <note pos="264" len="12" key="44" pan="0" vol="100" type="0"/>
          <note pos="288" len="12" key="36" pan="0" vol="100" type="0"/>
          <note pos="312" len="12" key="46" pan="0" vol="100" type="0"/>
          <note pos="312" len="12" key="36" pan="0" vol="100" type="0"/>
          <note pos="324" len="12" key="36" pan="0" vol="100" type="0"/>
          <note pos="336" len="12" key="36" pan="0" vol="100" type="0"/>
          <note pos="360" len="12" key="44" pan="0" vol="100" type="0"/>
          <note pos="360" len="12" key="36" pan="0" vol="100" type="0"/>
        </midiclip>
        <midiclip muted="0" name="" pos="7296" steps="16" type="1">
          <note pos="0" len="12" key="36" pan="0" vol="100" type="0"/>
          <note pos="24" len="12" key="46" pan="0" vol="100" type="0"/>
          <note pos="48" len="12" key="36" pan="0" vol="100" type="0"/>
          <note pos="72" len="12" key="44" pan="0" vol="100" type="0"/>
          <note pos="96" len="12" key="36" pan="0" vol="100" type="0"/>
          <note pos="120" len="12" key="46" pan="0" vol="100" type="0"/>
          <note pos="144" len="12" key="36" pan="0" vol="100" type="0"/>
          <note pos="168" len="12" key="44" pan="0" vol="100" type="0"/>
          <note pos="192" len="12" key="36" pan="0" vol="100" type="0"/>
          <note pos="216" len="12" key="46" pan="0" vol="100" type="0"/>
          <note pos="240" len="12" key="36" pan="0" vol="100" type="0"/>
          <note pos="264" len="12" key="44" pan="0" vol="100" type="0"/>
          <note pos="288" len="12" key="36" pan="0" vol="100" type="0"/>
          <note pos="312" len="12" key="46" pan="0" vol="100" type="0"/>
          <note pos="312" len="12" key="36" pan="0" vol="100" type="0"/>
          <note pos="324" len="12" key="36" pan="0" vol="100" type="0"/>
          <note pos="336" len="12" key="36" pan="0" vol="100" type="0"/>
          <note pos="360" len="12" key="44" pan="0" vol="100" type="0"/>
          <note pos="360" len="12" key="36" pan="0" vol="100" type="0"/>
        </midiclip>
        <midiclip muted="0" name="" pos="7680" steps="16" type="1">
          <note pos="0" len="12" key="36" pan="0" vol="100" type="0"/>
          <note pos="24" len="12" key="46" pan="0" vol="100" type="0"/>
          <note pos="48" len="12" key="36" pan="0" vol="100" type="0"/>
          <note pos="72" len="12" key="44" pan="0" vol="100" type="0"/>
          <note pos="96" len="12" key="36" pan="0" vol="100" type="0"/>
          <note pos="120" len="12" key="46" pan="0" vol="100" type="0"/>
          <note pos="144" len="12" key="36" pan="0" vol="100" type="0"/>
          <note pos="168" len="12" key="44" pan="0" vol="100" type="0"/>
          <note pos="192" len="12" key="36" pan="0" vol="100" type="0"/>
          <note pos="216" len="12" key="46" pan="0" vol="100" type="0"/>
          <note pos="240" len="12" key="36" pan="0" vol="100" type="0"/>
          <note pos="264" len="12" key="44" pan="0" vol="100" type="0"/>
          <note pos="288" len="12" key="36" pan="0" vol="100" type="0"/>
          <note pos="312" len="12" key="46" pan="0" vol="100" type="0"/>
          <note pos="312" len="12" key="36" pan="0" vol="100" type="0"/>
          <note pos="324" len="12" key="36" pan="0" vol="100" type="0"/>
          <note pos="336" len="12" key="36" pan="0" vol="100" type="0"/>
          <note pos="360" len="12" key="44" pan="0" vol="100" type="0"/>
          <note pos="360" len="12" key="36" pan="0" vol="100" type="0"/>
        </midiclip>
        <midiclip muted="0" name="" pos="8064" steps="16" type="1">
          <note pos="0" len="12" key="36" pan="0" vol="100" type="0"/>
          <note pos="24" len="12" key="46" pan="0" vol="100" type="0"/>
          <note pos="48" len="12" key="36" pan="0" vol="100" type="0"/>
          <note pos="72" len="12" key="44" pan="0" vol="100" type="0"/>
          <note pos="96" len="12" key="36" pan="0" vol="100" type="0"/>
          <note pos="120" len="12" key="46" pan="0" vol="100" type="0"/>
          <note pos="144" len="12" key="36" pan="0" vol="100" type="0"/>
          <note pos="168" len="12" key="44" pan="0" vol="100" type="0"/>
          <note pos="192" len="12" key="36" pan="0" vol="100" type="0"/>
          <note pos="216" len="12" key="46" pan="0" vol="100" type="0"/>
          <note pos="240" len="12" key="36" pan="0" vol="100" type="0"/>
          <note pos="264" len="12" key="44" pan="0" vol="100" type="0"/>
          <note pos="288" len="12" key="36" pan="0" vol="100" type="0"/>
          <note pos="312" len="12" key="46" pan="0" vol="100" type="0"/>
          <note pos="312" len="12" key="36" pan="0" vol="100" type="0"/>
          <note pos="324" len="12" key="36" pan="0" vol="100" type="0"/>
          <note pos="336" len="12" key="36" pan="0" vol="100" type="0"/>
          <note pos="360" len="12" key="44" pan="0" vol="100" type="0"/>
          <note pos="360" len="12" key="36" pan="0" vol="100" type="0"/>
        </midiclip>
        <midiclip muted="0" name="" pos="8448" steps="16" type="1">
          <note pos="0" len="24" key="36" pan="0" vol="100" type="0"/>
          <note pos="24" len="24" key="54" pan="0" vol="100" type="0"/>
          <note pos="48" len="24" key="52" pan="0" vol="100" type="0"/>
          <note pos="72" len="24" key="36" pan="0" vol="100" type="0"/>
          <note pos="96" len="24" key="42" pan="0" vol="100" type="0"/>
          <note pos="120" len="24" key="52" pan="0" vol="100" type="0"/>
          <note pos="144" len="24" key="36" pan="0" vol="100" type="0"/>
          <note pos="192" len="24" key="36" pan="0" vol="100" type="0"/>
          <note pos="216" len="24" key="54" pan="0" vol="100" type="0"/>
          <note pos="240" len="24" key="52" pan="0" vol="100" type="0"/>
          <note pos="264" len="24" key="36" pan="0" vol="100" type="0"/>
          <note pos="288" len="24" key="42" pan="0" vol="100" type="0"/>
          <note pos="312" len="24" key="52" pan="0" vol="100" type="0"/>
          <note pos="336" len="24" key="46" pan="0" vol="100" type="0"/>
          <note pos="336" len="24" key="36" pan="0" vol="100" type="0"/>
          <note pos="360" len="24" key="44" pan="0" vol="100" type="0"/>
        </midiclip>
        <midiclip muted="0" name="" pos="8832" steps="16" type="1">
          <note pos="0" len="24" key="36" pan="0" vol="100" type="0"/>
          <note pos="24" len="24" key="54" pan="0" vol="100" type="0"/>
          <note pos="48" len="24" key="52" pan="0" vol="100" type="0"/>
          <note pos="72" len="24" key="36" pan="0" vol="100" type="0"/>
          <note pos="96" len="24" key="42" pan="0" vol="100" type="0"/>
          <note pos="120" len="24" key="52" pan="0" vol="100" type="0"/>
          <note pos="144" len="24" key="36" pan="0" vol="100" type="0"/>
          <note pos="192" len="24" key="36" pan="0" vol="100" type="0"/>
          <note pos="216" len="24" key="54" pan="0" vol="100" type="0"/>
          <note pos="240" len="24" key="52" pan="0" vol="100" type="0"/>
          <note pos="264" len="24" key="36" pan="0" vol="100" type="0"/>
          <note pos="288" len="24" key="42" pan="0" vol="100" type="0"/>
          <note pos="312" len="24" key="52" pan="0" vol="100" type="0"/>
          <note pos="336" len="24" key="46" pan="0" vol="100" type="0"/>
          <note pos="336" len="24" key="36" pan="0" vol="100" type="0"/>
          <note pos="360" len="24" key="44" pan="0" vol="100" type="0"/>
        </midiclip>
        <midiclip muted="0" name="" pos="9216" steps="16" type="1">
          <note pos="0" len="24" key="36" pan="0" vol="100" type="0"/>
          <note pos="24" len="24" key="54" pan="0" vol="100" type="0"/>
          <note pos="48" len="24" key="52" pan="0" vol="100" type="0"/>
          <note pos="72" len="24" key="36" pan="0" vol="100" type="0"/>
          <note pos="96" len="24" key="42" pan="0" vol="100" type="0"/>
          <note pos="120" len="24" key="52" pan="0" vol="100" type="0"/>
          <note pos="144" len="24" key="36" pan="0" vol="100" type="0"/>
          <note pos="192" len="24" key="36" pan="0" vol="100" type="0"/>
          <note pos="216" len="24" key="54" pan="0" vol="100" type="0"/>
          <note pos="240" len="24" key="52" pan="0" vol="100" type="0"/>
          <note pos="264" len="24" key="36" pan="0" vol="100" type="0"/>
          <note pos="288" len="24" key="42" pan="0" vol="100" type="0"/>
          <note pos="312" len="24" key="52" pan="0" vol="100" type="0"/>
          <note pos="336" len="24" key="46" pan="0" vol="100" type="0"/>
          <note pos="336" len="24" key="36" pan="0" vol="100" type="0"/>
          <note pos="360" len="24" key="44" pan="0" vol="100" type="0"/>
        </midiclip>
        <midiclip muted="0" name="" pos="9600" steps="16" type="1">
          <note pos="0" len="24" key="36" pan="0" vol="100" type="0"/>
          <note pos="24" len="24" key="54" pan="0" vol="100" type="0"/>
          <note pos="48" len="24" key="52" pan="0" vol="100" type="0"/>
          <note pos="72" len="24" key="36" pan="0" vol="100" type="0"/>
          <note pos="96" len="24" key="42" pan="0" vol="100" type="0"/>
          <note pos="120" len="24" key="52" pan="0" vol="100" type="0"/>
          <note pos="144" len="24" key="36" pan="0" vol="100" type="0"/>
          <note pos="192" len="24" key="36" pan="0" vol="100" type="0"/>
          <note pos="216" len="24" key="54" pan="0" vol="100" type="0"/>
          <note pos="240" len="24" key="52" pan="0" vol="100" type="0"/>
          <note pos="264" len="24" key="36" pan="0" vol="100" type="0"/>
          <note pos="288" len="24" key="42" pan="0" vol="100" type="0"/>
          <note pos="312" len="24" key="52" pan="0" vol="100" type="0"/>
          <note pos="336" len="24" key="46" pan="0" vol="100" type="0"/>
          <note pos="336" len="24" key="36" pan="0" vol="100" type="0"/>
          <note pos="360" len="24" key="44" pan="0" vol="100" type="0"/>
        </midiclip>
        <midiclip muted="0" name="" pos="9984" steps="16" type="1">
          <note pos="0" len="24" key="36" pan="0" vol="100" type="0"/>
          <note pos="24" len="24" key="54" pan="0" vol="100" type="0"/>
          <note pos="48" len="24" key="52" pan="0" vol="100" type="0"/>
          <note pos="72" len="24" key="36" pan="0" vol="100" type="0"/>
          <note pos="96" len="24" key="42" pan="0" vol="100" type="0"/>
          <note pos="120" len="24" key="52" pan="0" vol="100" type="0"/>
          <note pos="144" len="24" key="36" pan="0" vol="100" type="0"/>
          <note pos="192" len="24" key="36" pan="0" vol="100" type="0"/>
          <note pos="216" len="24" key="54" pan="0" vol="100" type="0"/>
          <note pos="240" len="24" key="52" pan="0" vol="100" type="0"/>
          <note pos="264" len="24" key="36" pan="0" vol="100" type="0"/>
          <note pos="288" len="24" key="42" pan="0" vol="100" type="0"/>
          <note pos="312" len="24" key="52" pan="0" vol="100" type="0"/>
          <note pos="336" len="24" key="46" pan="0" vol="100" type="0"/>
          <note pos="336" len="24" key="36" pan="0" vol="100" type="0"/>
          <note pos="360" len="24" key="44" pan="0" vol="100" type="0"/>
        </midiclip>
        <midiclip muted="0" name="" pos="10368" steps="16" type="1">
          <note pos="0" len="24" key="36" pan="0" vol="100" type="0"/>
          <note pos="24" len="24" key="54" pan="0" vol="100" type="0"/>
          <note pos="48" len="24" key="52" pan="0" vol="100" type="0"/>
          <note pos="72" len="24" key="36" pan="0" vol="100" type="0"/>
          <note pos="96" len="24" key="42" pan="0" vol="100" type="0"/>
          <note pos="120" len="24" key="52" pan="0" vol="100" type="0"/>
          <note pos="144" len="24" key="36" pan="0" vol="100" type="0"/>
          <note pos="192" len="24" key="36" pan="0" vol="100" type="0"/>
          <note pos="216" len="24" key="54" pan="0" vol="100" type="0"/>
          <note pos="240" len="24" key="52" pan="0" vol="100" type="0"/>
          <note pos="264" len="24" key="36" pan="0" vol="100" type="0"/>
          <note pos="288" len="24" key="42" pan="0" vol="100" type="0"/>
          <note pos="312" len="24" key="52" pan="0" vol="100" type="0"/>
          <note pos="336" len="24" key="46" pan="0" vol="100" type="0"/>
          <note pos="336" len="24" key="36" pan="0" vol="100" type="0"/>
          <note pos="360" len="24" key="44" pan="0" vol="100" type="0"/>
        </midiclip>
        <midiclip muted="0" name="" pos="10752" steps="16" type="1">
          <note pos="0" len="24" key="36" pan="0" vol="100" type="0"/>
          <note pos="24" len="24" key="54" pan="0" vol="100" type="0"/>
          <note pos="48" len="24" key="52" pan="0" vol="100" type="0"/>
          <note pos="72" len="24" key="36" pan="0" vol="100" type="0"/>
          <note pos="96" len="24" key="42" pan="0" vol="100" type="0"/>
          <note pos="120" len="24" key="52" pan="0" vol="100" type="0"/>
          <note pos="144" len="24" key="36" pan="0" vol="100" type="0"/>
          <note pos="192" len="24" key="36" pan="0" vol="100" type="0"/>
          <note pos="216" len="24" key="54" pan="0" vol="100" type="0"/>
          <note pos="240" len="24" key="52" pan="0" vol="100" type="0"/>
          <note pos="264" len="24" key="36" pan="0" vol="100" type="0"/>
          <note pos="288" len="24" key="42" pan="0" vol="100" type="0"/>
          <note pos="312" len="24" key="52" pan="0" vol="100" type="0"/>
          <note pos="336" len="24" key="46" pan="0" vol="100" type="0"/>
          <note pos="336" len="24" key="36" pan="0" vol="100" type="0"/>
          <note pos="360" len="24" key="44" pan="0" vol="100" type="0"/>
        </midiclip>
        <midiclip muted="0" name="" pos="11136" steps="16" type="1">
          <note pos="0" len="24" key="36" pan="0" vol="100" type="0"/>
          <note pos="24" len="24" key="54" pan="0" vol="100" type="0"/>
          <note pos="48" len="24" key="52" pan="0" vol="100" type="0"/>
          <note pos="72" len="24" key="36" pan="0" vol="100" type="0"/>
          <note pos="96" len="24" key="42" pan="0" vol="100" type="0"/>
          <note pos="120" len="24" key="52" pan="0" vol="100" type="0"/>
          <note pos="144" len="24" key="36" pan="0" vol="100" type="0"/>
          <note pos="192" len="24" key="36" pan="0" vol="100" type="0"/>
          <note pos="216" len="24" key="54" pan="0" vol="100" type="0"/>
          <note pos="240" len="24" key="52" pan="0" vol="100" type="0"/>
          <note pos="264" len="24" key="36" pan="0" vol="100" type="0"/>
          <note pos="288" len="24" key="42" pan="0" vol="100" type="0"/>
          <note pos="312" len="24" key="52" pan="0" vol="100" type="0"/>
          <note pos="336" len="24" key="46" pan="0" vol="100" type="0"/>
          <note pos="336" len="24" key="36" pan="0" vol="100" type="0"/>
          <note pos="360" len="24" key="44" pan="0" vol="100" type="0"/>
        </midiclip>
      </track>
    </trackcontainer>
    <track muted="0" mutedBeforeSolo="0" name="Automation track" solo="0" type="6">
      <automationtrack/>
      <automationclip tens="1" pos="0" name="Numerator" len="192" mute="0" prog="0"/>
      <automationclip tens="1" pos="0" name="Denominator" len="192" mute="0" prog="0"/>
      <automationclip tens="1" pos="0" name="Tempo" len="192" mute="0" prog="0"/>
      <automationclip tens="1" pos="0" name="Master volume" len="192" mute="0" prog="0"/>
      <automationclip tens="1" pos="0" name="Master pitch" len="192" mute="0" prog="0"/>
    </track>
    <mixer visible="1" minimized="0" width="889" y="468" height="369" maximized="0" x="9">
      <mixerchannel soloed="0" muted="0" name="Master" num="0" volume="1.4">
        <fxchain numofeffects="3" enabled="1">
          <effect on="1" gate="0" autoquit_numerator="4" name="eq" wet="1" autoquit_syncmode="0" autoquit_denominator="4" autoquit="1">
            <Eq LPactive="1" AnalyseIn="1" Peak1bw="0.30000001" Peak2gain="0" Peak3gain="0" LP24="0" HighShelfgain="0" Peak4active="0" HP24="0" LP48="1" LP12="0" HP="2" HighShelfres="1.4" HP48="1" Peak1active="0" Lowshelfgain="0" LowShelfres="1.4" AnalyseOut="1" Peak3active="0" HP12="0" Peak3bw="0.30000001" Peak4bw="0.30000001" Peak4gain="0" Lowshelfactive="0" HPres="0.70700002" Peak2active="0" Peak2bw="0.30000001" Outputgain="0" LPres="0.70700002" HPactive="1" Highshelfactive="0" LP="2">
              <Inputgain id="28782" value="0" scale_type="log"/>
              <Peak1gain id="4575" value="0" scale_type="log"/>
              <HPfreq id="9170" value="31" scale_type="log"/>
              <LowShelffreq id="1323" value="80" scale_type="log"/>
              <Peak1freq id="10755" value="120" scale_type="log"/>
              <Peak2freq id="23065" value="250" scale_type="log"/>
              <Peak3freq id="16803" value="2000" scale_type="log"/>
              <Peak4freq id="26771" value="4000" scale_type="log"/>
              <Highshelffreq id="19546" value="12000" scale_type="log"/>
              <LPfreq id="960" value="18000" scale_type="log"/>
            </Eq>
            <key/>
          </effect>
          <effect on="1" gate="0" autoquit_numerator="4" name="vsteffect" wet="1" autoquit_syncmode="0" autoquit_denominator="4" autoquit="1">
            <vsteffectcontrols plugin="Effects\ChowTapeModel\CHOWTapeModel.dll" chunk="UGFyYW1ldGVycwAAATNQQVJBTQABAmlkAAEJBWF6aW11dGgAdmFsdWUAAQkEAAAAAAAAAAAAUEFSQU0AAQJpZAABDAVjaGV3X2RlcHRoAHZhbHVlAAEJBAAAAAAAAAAAAFBBUkFNAAECaWQAAQsFY2hld19mcmVxAHZhbHVlAAEJBAAAAAAAAAAAAFBBUkFNAAECaWQAAQwFY2hld19vbm9mZgB2YWx1ZQABCQQAAAAAAAAAAABQQVJBTQABAmlkAAEKBWNoZXdfdmFyAHZhbHVlAAEJBAAAAAAAAAAAAFBBUkFNAAECaWQAAQoFY29tcF9hbXQAdmFsdWUAAQkEAAAAAAAAAAAAUEFSQU0AAQJpZAABDQVjb21wX2F0dGFjawB2YWx1ZQABCQQAAAAAAAAUQABQQVJBTQABAmlkAAEMBWNvbXBfb25vZmYAdmFsdWUAAQkEAAAAAAAAAAAAUEFSQU0AAQJpZAABDgVjb21wX3JlbGVhc2UAdmFsdWUAAQkEAAAAIAAAaUAAUEFSQU0AAQJpZAABCQVkZWdfYW10AHZhbHVlAAEJBAAAAAAAAAAAAFBBUkFNAAECaWQAAQsFZGVnX2RlcHRoAHZhbHVlAAEJBAAAAAAAAAAAAFBBUkFNAAECaWQAAQkFZGVnX2VudgB2YWx1ZQABCQQAAAAAAAAAAABQQVJBTQABAmlkAAELBWRlZ19vbm9mZgB2YWx1ZQABCQQAAAAAAAAAAABQQVJBTQABAmlkAAENBWRlZ19wb2ludDF4AHZhbHVlAAEJBAAAAAAAAAAAAFBBUkFNAAECaWQAAQkFZGVnX3ZhcgB2YWx1ZQABCQQAAAAAAAAAAABQQVJBTQABAmlkAAEHBWRlcHRoAHZhbHVlAAEJBAAAAAAAAAAAAFBBUkFNAAECaWQAAQcFZHJpdmUAdmFsdWUAAQkEAAAAAAAA4D8AUEFSQU0AAQJpZAABCAVkcnl3ZXQAdmFsdWUAAQkEAAAAAAAAWUAAUEFSQU0AAQJpZAABDwVmbHV0dGVyX29ub2ZmAHZhbHVlAAEJBAAAAAAAAAAAAFBBUkFNAAECaWQAAQUFZ2FwAHZhbHVlAAEJBAAAAAAAAPA/AFBBUkFNAAECaWQAAQgFaF9iYXNzAHZhbHVlAAEJBAAAAAAAAAAAAFBBUkFNAAECaWQAAQkFaF90ZnJlcQB2YWx1ZQABCQQAAACg/z9/QABQQVJBTQABAmlkAAEKBWhfdHJlYmxlAHZhbHVlAAEJBAAAAAAAAAAAAFBBUkFNAAECaWQAAQwFaHlzdF9vbm9mZgB2YWx1ZQABCQQAAAAAAADwPwBQQVJBTQABAmlkAAEMBWlmaWx0X2hpZ2gAdmFsdWUAAQkEAAAAAAB81UAAUEFSQU0AAQJpZAABCwVpZmlsdF9sb3cAdmFsdWUAAQkEAAAAAAAANEAAUEFSQU0AAQJpZAABDgVpZmlsdF9tYWtldXAAdmFsdWUAAQkEAAAAAAAAAAAAUEFSQU0AAQJpZAABDQVpZmlsdF9vbm9mZgB2YWx1ZQABCQQAAAAAAAAAAABQQVJBTQABAmlkAAEIBWluZ2FpbgB2YWx1ZQABCQQAAAAAAAAAAABQQVJBTQABAmlkAAEMBWxvc3Nfb25vZmYAdmFsdWUAAQkEAAAAAAAA8D8AUEFSQU0AAQJpZAABCwVtaXhfZ3JvdXAAdmFsdWUAAQkEAAAAAAAAAAAAUEFSQU0AAQJpZAABBgVtb2RlAHZhbHVlAAEJBAAAAAAAAAAAAFBBUkFNAAECaWQAAQQFb3MAdmFsdWUAAQkEAAAAAAAA8D8AUEFSQU0AAQJpZAABCQVvc19tb2RlAHZhbHVlAAEJBAAAAAAAAAAAAFBBUkFNAAECaWQAARIFb3NfcmVuZGVyX2ZhY3RvcgB2YWx1ZQABCQQAAAAAAADwPwBQQVJBTQABAmlkAAEZBW9zX3JlbmRlcl9saWtlX3JlYWx0aW1lAHZhbHVlAAEJBAAAAAAAAPA/AFBBUkFNAAECaWQAARAFb3NfcmVuZGVyX21vZGUAdmFsdWUAAQkEAAAAAAAAAAAAUEFSQU0AAQJpZAABCQVvdXRnYWluAHZhbHVlAAEJBAAAAAAAAAAAAFBBUkFNAAECaWQAAQgFcHJlc2V0AHZhbHVlAAEJBAAAAAAAAAAAAFBBUkFNAAECaWQAAQYFcmF0ZQB2YWx1ZQABCQQAAAAgMzPTPwBQQVJBTQABAmlkAAEFBXNhdAB2YWx1ZQABCQQAAAAAAADgPwBQQVJBTQABAmlkAAEJBXNwYWNpbmcAdmFsdWUAAQkEAAAAoJmZuT8AUEFSQU0AAQJpZAABBwVzcGVlZAB2YWx1ZQABCQQAAAAAAAA+QABQQVJBTQABAmlkAAEHBXRoaWNrAHZhbHVlAAEJBAAAAKCZmbk/AFBBUkFNAAECaWQAAQwFdG9uZV9vbm9mZgB2YWx1ZQABCQQAAAAAAADwPwBQQVJBTQABAmlkAAEHBXdpZHRoAHZhbHVlAAEJBAAAAOBRuN4/AFBBUkFNAAECaWQAAQsFd293X2RlcHRoAHZhbHVlAAEJBAAAAAAAAAAAAFBBUkFNAAECaWQAAQsFd293X2RyaWZ0AHZhbHVlAAEJBAAAAAAAAAAAAFBBUkFNAAECaWQAAQoFd293X3JhdGUAdmFsdWUAAQkEAAAAAAAA0D8AUEFSQU0AAQJpZAABCQV3b3dfdmFyAHZhbHVlAAEJBAAAAAAAAAAAAGxhc3Qtc2l6ZQABAndpZHRoAAEFAYACAABoZWlnaHQAAQUBbAIAAAA=" guivisible="0" program="0"/>
            <key>
              <attribute name="file" value="Effects\ChowTapeModel\CHOWTapeModel.dll"/>
            </key>
          </effect>
          <effect on="1" gate="0" autoquit_numerator="4" name="eq" wet="1" autoquit_syncmode="0" autoquit_denominator="4" autoquit="1">
            <Eq LPactive="1" AnalyseIn="1" Peak1bw="0.30000001" Peak2gain="0" Peak3gain="0" LP24="0" HighShelfgain="0" Peak4active="0" HP24="0" LP48="1" LP12="0" HP="2" HighShelfres="1.4" HP48="1" Peak1active="0" Lowshelfgain="0" LowShelfres="1.4" AnalyseOut="1" Peak3active="0" HP12="0" Peak3bw="0.30000001" Peak4bw="0.30000001" Peak4gain="0" Lowshelfactive="0" HPres="0.70700002" Peak2active="0" Peak2bw="0.30000001" Outputgain="0" LPres="0.70700002" HPactive="1" Highshelfactive="0" LP="2">
              <Inputgain id="6830" value="0" scale_type="log"/>
              <Peak1gain id="17081" value="0" scale_type="log"/>
              <HPfreq id="18931" value="31" scale_type="log"/>
              <LowShelffreq id="32490" value="80" scale_type="log"/>
              <Peak1freq id="29740" value="120" scale_type="log"/>
              <Peak2freq id="25109" value="250" scale_type="log"/>
              <Peak3freq id="20881" value="2000" scale_type="log"/>
              <Peak4freq id="12457" value="4000" scale_type="log"/>
              <Highshelffreq id="15941" value="12000" scale_type="log"/>
              <LPfreq id="14771" value="18000" scale_type="log"/>
            </Eq>
            <key/>
          </effect>
        </fxchain>
      </mixerchannel>
      <mixerchannel soloed="0" muted="0" name="Fade" num="1">
        <fxchain numofeffects="0" enabled="1"/>
        <volume id="21091" value="1" scale_type="linear"/>
        <send channel="0" amount="1"/>
      </mixerchannel>
      <mixerchannel soloed="0" muted="0" name="Piano" num="2" volume="1">
        <fxchain numofeffects="1" enabled="1">
          <effect on="1" gate="0" autoquit_numerator="4" name="vsteffect" wet="1" autoquit_syncmode="0" autoquit_denominator="4" autoquit="1">
            <vsteffectcontrols param7="7:Feedback:0.9" param11="11:Hi Cut:0.9" param3="3:Sync:1" program="0" param2="2:Type:0.5" param10="10:Low Cut:1" param9="9:Quality:0.34" param12="12:Mix:0.18" guivisible="0" param5="5:T.S.D.:0.38" param8="8:Ping-Pong:1" param4="4:T.S.N.:0" param6="6:Time:0.5" plugin="Effects\Classic Delay\Classic Delay.dll" param0="0:Pan:0.5" numparams="14" param1="1:Mono:0" param13="13:Level:0.5"/>
            <key>
              <attribute name="file" value="Effects\Classic Delay\Classic Delay.dll"/>
            </key>
          </effect>
        </fxchain>
        <send channel="1" amount="1"/>
      </mixerchannel>
      <mixerchannel soloed="0" muted="0" name="Windwoods" num="3" volume="1">
        <fxchain numofeffects="2" enabled="1">
          <effect on="1" gate="0" autoquit_numerator="4" name="vsteffect" wet="1" autoquit_syncmode="0" autoquit_denominator="4" autoquit="1">
            <vsteffectcontrols plugin="Effects\Classic Reverb\Classic Reverb.dll" numparams="8" param2="2:Predelay:0.5" param6="6:Mix:0.46" param7="7:Level:0.5" param5="5:Early Ref.:0" guivisible="0" param3="3:Hi Damp:0.34" param1="1:Damping:0.44" param4="4:Lo Cut:1" program="0" param0="0:Size:0.65"/>
            <key>
              <attribute name="file" value="Effects\Classic Reverb\Classic Reverb.dll"/>
            </key>
          </effect>
          <effect on="1" gate="0" autoquit_numerator="4" name="vsteffect" wet="1" autoquit_syncmode="0" autoquit_denominator="4" autoquit="1">
            <vsteffectcontrols param7="7:Feedback:0.55" param11="11:Hi Cut:0.37" param3="3:Sync:1" program="0" param2="2:Type:0.5" param10="10:Low Cut:1" param9="9:Quality:0.7" param12="12:Mix:0.16" guivisible="0" param5="5:T.S.D.:0.46" param8="8:Ping-Pong:1" param4="4:T.S.N.:0.02" param6="6:Time:0.5" plugin="Effects\Classic Delay\Classic Delay.dll" param0="0:Pan:1" numparams="14" param1="1:Mono:0" param13="13:Level:0.5"/>
            <key>
              <attribute name="file" value="Effects\Classic Delay\Classic Delay.dll"/>
            </key>
          </effect>
        </fxchain>
        <send channel="1" amount="1"/>
      </mixerchannel>
      <mixerchannel soloed="0" muted="0" name="Acid" num="4" volume="1">
        <fxchain numofeffects="1" enabled="1">
          <effect on="1" gate="0" autoquit_numerator="4" name="stereomatrix" wet="1" autoquit_syncmode="0" autoquit_denominator="4" autoquit="1">
            <stereomatrixcontrols r-r="0.5" r-l="0.5" l-r="0.5" l-l="0.5"/>
            <key/>
          </effect>
        </fxchain>
        <send channel="1" amount="1"/>
      </mixerchannel>
      <mixerchannel soloed="0" muted="0" name="Drums" num="5" volume="1">
        <fxchain numofeffects="1" enabled="1">
          <effect on="1" gate="0" autoquit_numerator="4" name="vsteffect" wet="1" autoquit_syncmode="0" autoquit_denominator="4" autoquit="1">
            <vsteffectcontrols plugin="Effects\Classic Reverb\Classic Reverb.dll" numparams="8" param2="2:Predelay:0.5" param6="6:Mix:0.02" param7="7:Level:0.5" param5="5:Early Ref.:0" guivisible="0" param3="3:Hi Damp:0.72" param1="1:Damping:0.16" param4="4:Lo Cut:1" program="0" param0="0:Size:0.93"/>
            <key>
              <attribute name="file" value="Effects\Classic Reverb\Classic Reverb.dll"/>
            </key>
          </effect>
        </fxchain>
        <send channel="1" amount="1"/>
      </mixerchannel>
    </mixer>
    <ControllerRackView visible="0" minimized="0" width="350" y="487" height="200" maximized="0" x="550"/>
    <pianoroll stopbehaviour="1" visible="0" minimized="0" width="1319" y="303" height="600" maximized="0" x="419"/>
    <automationeditor visible="1" minimized="0" width="860" y="398" height="400" maximized="0" x="732"/>
    <projectnotes visible="1" minimized="0" width="723" y="7" height="794" maximized="0" x="907"><![CDATA[<!DOCTYPE HTML PUBLIC "-//W3C//DTD HTML 4.0//EN" "http://www.w3.org/TR/REC-html40/strict.dtd">
<html><head><meta name="qrichtext" content="1" /><style type="text/css">
p, li { white-space: pre-wrap; }
</style></head><body style=" font-family:'MS Shell Dlg 2'; font-size:8.25pt; font-weight:400; font-style:normal;">
<p style=" margin-top:0px; margin-bottom:0px; margin-left:0px; margin-right:0px; -qt-block-indent:0; text-indent:0px;">Heartbroken Synthie Pop</p>
<p style="-qt-paragraph-type:empty; margin-top:0px; margin-bottom:0px; margin-left:0px; margin-right:0px; -qt-block-indent:0; text-indent:0px;"><br /></p>
<p style=" margin-top:0px; margin-bottom:0px; margin-left:0px; margin-right:0px; -qt-block-indent:0; text-indent:0px;">____</p>
<p style="-qt-paragraph-type:empty; margin-top:0px; margin-bottom:0px; margin-left:0px; margin-right:0px; -qt-block-indent:0; text-indent:0px;"><br /></p>
<p style=" margin-top:0px; margin-bottom:0px; margin-left:0px; margin-right:0px; -qt-block-indent:0; text-indent:0px;">I urged you to</p>
<p style=" margin-top:0px; margin-bottom:0px; margin-left:0px; margin-right:0px; -qt-block-indent:0; text-indent:0px;">reconsider,</p>
<p style=" margin-top:0px; margin-bottom:0px; margin-left:0px; margin-right:0px; -qt-block-indent:0; text-indent:0px;">knew it would turn bad.</p>
<p style=" margin-top:0px; margin-bottom:0px; margin-left:0px; margin-right:0px; -qt-block-indent:0; text-indent:0px;">In the end,</p>
<p style=" margin-top:0px; margin-bottom:0px; margin-left:0px; margin-right:0px; -qt-block-indent:0; text-indent:0px;">I fell to your whispers,</p>
<p style=" margin-top:0px; margin-bottom:0px; margin-left:0px; margin-right:0px; -qt-block-indent:0; text-indent:0px;">a mistake - I must admit.</p>
<p style="-qt-paragraph-type:empty; margin-top:0px; margin-bottom:0px; margin-left:0px; margin-right:0px; -qt-block-indent:0; text-indent:0px;"><br /></p>
<p style=" margin-top:0px; margin-bottom:0px; margin-left:0px; margin-right:0px; -qt-block-indent:0; text-indent:0px;">Now we stand here,</p>
<p style=" margin-top:0px; margin-bottom:0px; margin-left:0px; margin-right:0px; -qt-block-indent:0; text-indent:0px;">at the crossroads,</p>
<p style=" margin-top:0px; margin-bottom:0px; margin-left:0px; margin-right:0px; -qt-block-indent:0; text-indent:0px;">our paths having been set.</p>
<p style=" margin-top:0px; margin-bottom:0px; margin-left:0px; margin-right:0px; -qt-block-indent:0; text-indent:0px;">And the tears flow so</p>
<p style=" margin-top:0px; margin-bottom:0px; margin-left:0px; margin-right:0px; -qt-block-indent:0; text-indent:0px;">gracefully while we don't know</p>
<p style=" margin-top:0px; margin-bottom:0px; margin-left:0px; margin-right:0px; -qt-block-indent:0; text-indent:0px;">just what we had.</p>
<p style="-qt-paragraph-type:empty; margin-top:0px; margin-bottom:0px; margin-left:0px; margin-right:0px; -qt-block-indent:0; text-indent:0px;"><br /></p>
<p style=" margin-top:0px; margin-bottom:0px; margin-left:0px; margin-right:0px; -qt-block-indent:0; text-indent:0px;">____</p>
<p style="-qt-paragraph-type:empty; margin-top:0px; margin-bottom:0px; margin-left:0px; margin-right:0px; -qt-block-indent:0; text-indent:0px;"><br /></p>
<p style=" margin-top:0px; margin-bottom:0px; margin-left:0px; margin-right:0px; -qt-block-indent:0; text-indent:0px;"><span style=" color:#e0e0e0;">Greetings.</span></p>
<p style=" margin-top:0px; margin-bottom:0px; margin-left:0px; margin-right:0px; -qt-block-indent:0; text-indent:0px;"><span style=" color:#e0e0e0;">Please use this in LMMS 1.3 or higher. Previous versions require editing to load correctly.</span></p>
<p style="-qt-paragraph-type:empty; margin-top:0px; margin-bottom:0px; margin-left:0px; margin-right:0px; -qt-block-indent:0; text-indent:0px; color:#e0e0e0;"><br /></p>
<p style=" margin-top:0px; margin-bottom:0px; margin-left:0px; margin-right:0px; -qt-block-indent:0; text-indent:0px;"><span style=" color:#e0e0e0;">Instruments:</span></p>
<p style=" margin-top:0px; margin-bottom:0px; margin-left:0px; margin-right:0px; -qt-block-indent:0; text-indent:0px;"><span style=" color:#e0e0e0;">SGM-V2.01.SF2</span></p>
<p style=" margin-top:0px; margin-bottom:0px; margin-left:0px; margin-right:0px; -qt-block-indent:0; text-indent:0px;"><span style=" color:#e0e0e0;">FluidR3 GM.SF2</span></p>
<p style=" margin-top:0px; margin-bottom:0px; margin-left:0px; margin-right:0px; -qt-block-indent:0; text-indent:0px;"><span style=" color:#e0e0e0;">Touhou.SF2</span></p>
<p style=" margin-top:0px; margin-bottom:0px; margin-left:0px; margin-right:0px; -qt-block-indent:0; text-indent:0px;"><span style=" color:#e0e0e0;">Basscruncher</span></p>
<p style="-qt-paragraph-type:empty; margin-top:0px; margin-bottom:0px; margin-left:0px; margin-right:0px; -qt-block-indent:0; text-indent:0px; color:#e0e0e0;"><br /></p>
<p style=" margin-top:0px; margin-bottom:0px; margin-left:0px; margin-right:0px; -qt-block-indent:0; text-indent:0px;"><span style=" color:#e0e0e0;">Effects:</span></p>
<p style=" margin-top:0px; margin-bottom:0px; margin-left:0px; margin-right:0px; -qt-block-indent:0; text-indent:0px;">CHOW Tape Model</p>
<p style=" margin-top:0px; margin-bottom:0px; margin-left:0px; margin-right:0px; -qt-block-indent:0; text-indent:0px;"><span style=" color:#e0e0e0;">Classic Delay</span></p>
<p style=" margin-top:0px; margin-bottom:0px; margin-left:0px; margin-right:0px; -qt-block-indent:0; text-indent:0px;"><span style=" color:#e0e0e0;">Classic Reverb</span></p>
<p style=" margin-top:0px; margin-bottom:0px; margin-left:0px; margin-right:0px; -qt-block-indent:0; text-indent:0px;"><span style=" color:#e0e0e0;">Stereo Matrix</span></p>
<p style="-qt-paragraph-type:empty; margin-top:0px; margin-bottom:0px; margin-left:0px; margin-right:0px; -qt-block-indent:0; text-indent:0px; color:#e0e0e0;"><br /></p>
<p style=" margin-top:0px; margin-bottom:0px; margin-left:0px; margin-right:0px; -qt-block-indent:0; text-indent:0px;"><span style=" color:#e0e0e0;">Released as .mmp, adjust paths as desired.</span></p>
<p style=" margin-top:0px; margin-bottom:0px; margin-left:0px; margin-right:0px; -qt-block-indent:0; text-indent:0px;"><span style=" color:#e0e0e0;">____</span></p>
<p style="-qt-paragraph-type:empty; margin-top:0px; margin-bottom:0px; margin-left:0px; margin-right:0px; -qt-block-indent:0; text-indent:0px; color:#e0e0e0;"><br /></p>
<p style=" margin-top:0px; margin-bottom:0px; margin-left:0px; margin-right:0px; -qt-block-indent:0; text-indent:0px;">Please note that the author explicitely wishes to have eventual derivates or redistributions distributed ONLY as .mmp files, not .mmpz.</p>
<p style=" margin-top:0px; margin-bottom:0px; margin-left:0px; margin-right:0px; -qt-block-indent:0; text-indent:0px;">There is nothing the license can do from stopping you as saving it as .mmpz, except that the author will insult you severely.</p>
<p style="-qt-paragraph-type:empty; margin-top:0px; margin-bottom:0px; margin-left:0px; margin-right:0px; -qt-block-indent:0; text-indent:0px;"><br /></p>
<p style=" margin-top:0px; margin-bottom:0px; margin-left:0px; margin-right:0px; -qt-block-indent:0; text-indent:0px;">Should you have received this file as an .mmpz, please insult its forwarder.</p>
<p style=" margin-top:0px; margin-bottom:0px; margin-left:0px; margin-right:0px; -qt-block-indent:0; text-indent:0px;">To convert the file into .mmp, follow these steps:</p>
<p style="-qt-paragraph-type:empty; margin-top:0px; margin-bottom:0px; margin-left:0px; margin-right:0px; -qt-block-indent:0; text-indent:0px;"><br /></p>
<p style=" margin-top:0px; margin-bottom:0px; margin-left:0px; margin-right:0px; -qt-block-indent:0; text-indent:0px;">1.: Create a a file called &quot;Decompress.cmd&quot; in the LMMS directory. (Where lmms.exe is located.)</p>
<p style=" margin-top:0px; margin-bottom:0px; margin-left:0px; margin-right:0px; -qt-block-indent:0; text-indent:0px;">2.: Right click on file, click &quot;Edit&quot;.</p>
<p style=" margin-top:0px; margin-bottom:0px; margin-left:0px; margin-right:0px; -qt-block-indent:0; text-indent:0px;">3.: Put the following line into the file:</p>
<p style="-qt-paragraph-type:empty; margin-top:0px; margin-bottom:0px; margin-left:0px; margin-right:0px; -qt-block-indent:0; text-indent:0px;"><br /></p>
<p style=" margin-top:0px; margin-bottom:0px; margin-left:0px; margin-right:0px; -qt-block-indent:0; text-indent:0px;">&quot;%~dp0LMMS.exe&quot; -d &quot;%*&quot; &gt; &quot;%*.mmp&quot;</p>
<p style="-qt-paragraph-type:empty; margin-top:0px; margin-bottom:0px; margin-left:0px; margin-right:0px; -qt-block-indent:0; text-indent:0px;"><br /></p>
<p style=" margin-top:0px; margin-bottom:0px; margin-left:0px; margin-right:0px; -qt-block-indent:0; text-indent:0px;">This does the following:</p>
<p style=" margin-top:0px; margin-bottom:0px; margin-left:0px; margin-right:0px; -qt-block-indent:0; text-indent:0px;">%~dp0 return the folder where the .cmd file is located.</p>
<p style=" margin-top:0px; margin-bottom:0px; margin-left:0px; margin-right:0px; -qt-block-indent:0; text-indent:0px;">It then calls LMMS.exe inside that folder.</p>
<p style=" margin-top:0px; margin-bottom:0px; margin-left:0px; margin-right:0px; -qt-block-indent:0; text-indent:0px;">-d is the decompress option for an .mmpz file.</p>
<p style=" margin-top:0px; margin-bottom:0px; margin-left:0px; margin-right:0px; -qt-block-indent:0; text-indent:0px;">%* returns any parameters given to the .cmd file.</p>
<p style=" margin-top:0px; margin-bottom:0px; margin-left:0px; margin-right:0px; -qt-block-indent:0; text-indent:0px;">&gt; sends the output into a file.</p>
<p style="-qt-paragraph-type:empty; margin-top:0px; margin-bottom:0px; margin-left:0px; margin-right:0px; -qt-block-indent:0; text-indent:0px;"><br /></p>
<p style=" margin-top:0px; margin-bottom:0px; margin-left:0px; margin-right:0px; -qt-block-indent:0; text-indent:0px;">If you drag an .mmpz file onto the .cmd file, it will decompress it into &quot;[filename].mmpz.mmp&quot;, at the original location.</p>
<p style="-qt-paragraph-type:empty; margin-top:0px; margin-bottom:0px; margin-left:0px; margin-right:0px; -qt-block-indent:0; text-indent:0px;"><br /></p></body></html>]]></projectnotes>
    <timeline stopbehaviour="1" lp1pos="13056" lp0pos="0" lpstate="1"/>
    <controllers/>
    <scales>
      <scale description="empty">
        <interval den="1" num="1"/>
      </scale>
      <scale description="empty">
        <interval den="1" num="1"/>
      </scale>
      <scale description="empty">
        <interval den="1" num="1"/>
      </scale>
      <scale description="empty">
        <interval den="1" num="1"/>
      </scale>
      <scale description="empty">
        <interval den="1" num="1"/>
      </scale>
      <scale description="empty">
        <interval den="1" num="1"/>
      </scale>
      <scale description="empty">
        <interval den="1" num="1"/>
      </scale>
      <scale description="empty">
        <interval den="1" num="1"/>
      </scale>
      <scale description="empty">
        <interval den="1" num="1"/>
      </scale>
      <scale description="empty">
        <interval den="1" num="1"/>
      </scale>
    </scales>
    <keymaps>
      <keymap first_key="0" description="empty" last_key="127" base_key="69" middle_key="60" base_freq="440"/>
      <keymap first_key="0" description="empty" last_key="127" base_key="69" middle_key="60" base_freq="440"/>
      <keymap first_key="0" description="empty" last_key="127" base_key="69" middle_key="60" base_freq="440"/>
      <keymap first_key="0" description="empty" last_key="127" base_key="69" middle_key="60" base_freq="440"/>
      <keymap first_key="0" description="empty" last_key="127" base_key="69" middle_key="60" base_freq="440"/>
      <keymap first_key="0" description="empty" last_key="127" base_key="69" middle_key="60" base_freq="440"/>
      <keymap first_key="0" description="empty" last_key="127" base_key="69" middle_key="60" base_freq="440"/>
      <keymap first_key="0" description="empty" last_key="127" base_key="69" middle_key="60" base_freq="440"/>
      <keymap first_key="0" description="empty" last_key="127" base_key="69" middle_key="60" base_freq="440"/>
      <keymap first_key="0" description="empty" last_key="127" base_key="69" middle_key="60" base_freq="440"/>
    </keymaps>
  </song>
</lmms-project>
