<?xml version="1.0"?>
<!DOCTYPE lmms-project>
<lmms-project version="23" type="song" creator="LMMS" creatorversion="1.3.0-alpha.1.231+g49b1f83e4">
  <head bpm="98" masterpitch="0" timesig_numerator="4" timesig_denominator="4" mastervol="100"/>
  <song>
    <trackcontainer maximized="0" width="1047" x="3" y="1" type="song" visible="1" minimized="0" height="582">
      <track type="1" mutedBeforeSolo="0" solo="0" muted="1" name="Annotations">
        <patterntrack>
          <trackcontainer maximized="0" width="700" x="523" y="212" type="patternstore" visible="0" minimized="0" height="300"/>
        </patterntrack>
        <patternclip pos="6720" len="1920" muted="0" name="A Bed to Rest"/>
        <patternclip pos="960" len="1728" muted="0" name="A Call to Action"/>
        <patternclip pos="0" len="960" muted="0" name="Mission Control is Off Its Screws"/>
        <patternclip pos="3072" len="1920" muted="0" name="Mission: Explodable"/>
        <patternclip pos="4992" len="1728" muted="0" name="Twined in Fate"/>
        <patternclip pos="2688" len="384" muted="0" name="Interlude"/>
      </track>
      <track type="5" mutedBeforeSolo="0" solo="0" muted="0" name="Fade>Volume">
        <automationtrack/>
        <automationclip pos="0" mute="0" prog="0" len="192" tens="1" name="Fade>Volume">
          <time pos="0" value="1" outValue="1"/>
          <object id="15691"/>
        </automationclip>
        <automationclip pos="11712" mute="0" prog="1" len="576" tens="1" name="Fade>Volume">
          <time pos="0" value="1" outValue="1"/>
          <time pos="96" value="1" outValue="1"/>
          <time pos="576" value="0" outValue="0"/>
          <object id="15691"/>
        </automationclip>
      </track>
      <track type="0" mutedBeforeSolo="1" solo="0" muted="0" name="Oboe">
        <instrumenttrack pan="0" basenote="69" enabled="0" enablecc="0" lastkey="127" scale="0" range_import="1" keymap="0" usemasterpitch="1" mixch="2" pitchrange="12" pitch="0" firstkey="0">
          <vol id="1205" value="100" scale_type="linear"/>
          <midicontrollers cc78="0" cc9="0" cc44="0" cc86="0" cc117="0" cc74="0" cc15="0" cc89="0" cc65="0" cc70="0" cc20="0" cc79="0" cc124="0" cc51="0" cc95="0" cc98="0" cc104="0" cc30="0" cc41="0" cc5="0" cc90="0" cc67="0" cc6="0" cc48="0" cc3="0" cc23="0" cc99="0" cc113="0" cc118="0" cc37="0" cc1="0" cc22="0" cc88="0" cc62="0" cc114="0" cc8="0" cc7="0" cc77="0" cc85="0" cc106="0" cc36="0" cc26="0" cc76="0" cc110="0" cc19="0" cc66="0" cc11="0" cc81="0" cc35="0" cc47="0" cc63="0" cc87="0" cc101="0" cc27="0" cc100="0" cc42="0" cc119="0" cc34="0" cc17="0" cc39="0" cc0="0" cc97="0" cc14="0" cc10="0" cc116="0" cc18="0" cc2="0" cc60="0" cc125="0" cc46="0" cc105="0" cc56="0" cc25="0" cc102="0" cc45="0" cc108="0" cc43="0" cc71="0" cc69="0" cc93="0" cc32="0" cc73="0" cc57="0" cc112="0" cc29="0" cc54="0" cc91="0" cc31="0" cc16="0" cc84="0" cc49="0" cc103="0" cc50="0" cc82="0" cc122="0" cc126="0" cc123="0" cc24="0" cc92="0" cc38="0" cc68="0" cc28="0" cc94="0" cc72="0" cc61="0" cc4="0" cc75="0" cc115="0" cc33="0" cc55="0" cc59="0" cc120="0" cc52="0" cc53="0" cc121="0" cc12="0" cc83="0" cc96="0" cc40="0" cc127="0" cc13="0" cc64="0" cc111="0" cc109="0" cc58="0" cc21="0" cc80="0" cc107="0"/>
          <instrument name="sf2player">
            <sf2player bank="0" src="usersoundfont:Touhou.sf2" chorusOn="0" chorusNum="3" chorusDepth="8" chorusSpeed="0.3" reverbOn="0" reverbRoomSize="0.2" chorusLevel="2" reverbLevel="0.9" patch="68" gain="1.44" reverbDamping="0" reverbWidth="0.5">
              <key/>
            </sf2player>
          </instrument>
          <eldata fres="0.5" fcut="14000" ftype="0" fwet="0">
            <elvol pdel="0" amt="0" rel="0.1" hold="0.5" latt="0" dec="0.5" lamt="0" lspd_syncmode="0" x100="0" lspd_numerator="4" sustain="0.5" lpdel="0" lspd_denominator="4" userwavefile="" lshp="0" att="0" lspd="0.1" ctlenvamt="0"/>
            <elcut pdel="0" amt="0" rel="0.1" hold="0.5" latt="0" dec="0.5" lamt="0" lspd_syncmode="0" x100="0" lspd_numerator="4" sustain="0.5" lpdel="0" lspd_denominator="4" userwavefile="" lshp="0" att="0" lspd="0.1" ctlenvamt="0"/>
            <elres pdel="0" amt="0" rel="0.1" hold="0.5" latt="0" dec="0.5" lamt="0" lspd_syncmode="0" x100="0" lspd_numerator="4" sustain="0.5" lpdel="0" lspd_denominator="4" userwavefile="" lshp="0" att="0" lspd="0.1" ctlenvamt="0"/>
          </eldata>
          <chordcreator chord="0" chord-enabled="0" chordrange="1"/>
          <arpeggiator arpcycle="0" arp-enabled="0" arpgate="100" arpdir="0" arprepeats="1" arptime_numerator="4" arptime_denominator="4" arpmode="0" arptime_syncmode="0" arprange="1" arptime="200" arpskip="0" arp="0" arpmiss="0"/>
          <midiport fixedinputvelocity="-1" inputcontroller="0" writable="0" fixedoutputvelocity="-1" fixedoutputnote="-1" basevelocity="63" inputchannel="0" outputchannel="1" outputprogram="1" readable="1" outputcontroller="0" inports=""/>
          <fxchain enabled="0" numofeffects="0"/>
        </instrumenttrack>
        <midiclip pos="960" type="1" muted="0" name="" steps="16">
          <note pos="144" pan="0" len="12" key="80" vol="100"/>
          <note pos="168" pan="0" len="144" key="80" vol="100"/>
          <note pos="336" pan="0" len="24" key="80" vol="100"/>
          <note pos="360" pan="0" len="48" key="78" vol="100"/>
          <note pos="408" pan="0" len="48" key="75" vol="100"/>
          <note pos="456" pan="0" len="48" key="73" vol="100"/>
          <note pos="504" pan="0" len="48" key="71" vol="100"/>
          <note pos="576" pan="0" len="48" key="73" vol="100"/>
          <note pos="624" pan="0" len="24" key="71" vol="100"/>
          <note pos="648" pan="0" len="48" key="73" vol="100"/>
          <note pos="696" pan="0" len="48" key="78" vol="100"/>
          <note pos="744" pan="0" len="132" key="75" vol="100"/>
          <note pos="912" pan="0" len="12" key="80" vol="100"/>
          <note pos="936" pan="0" len="144" key="80" vol="100"/>
          <note pos="1104" pan="0" len="24" key="80" vol="100"/>
          <note pos="1128" pan="0" len="48" key="78" vol="100"/>
          <note pos="1176" pan="0" len="48" key="75" vol="100"/>
          <note pos="1224" pan="0" len="48" key="73" vol="100"/>
          <note pos="1272" pan="0" len="48" key="71" vol="100"/>
          <note pos="1344" pan="0" len="48" key="76" vol="100"/>
          <note pos="1392" pan="0" len="24" key="71" vol="100"/>
          <note pos="1416" pan="0" len="48" key="68" vol="100"/>
          <note pos="1464" pan="0" len="48" key="76" vol="100"/>
          <note pos="1512" pan="0" len="72" key="75" vol="100"/>
          <note pos="1584" pan="0" len="48" key="73" vol="100"/>
          <note pos="1632" pan="0" len="48" key="71" vol="100"/>
          <note pos="1680" pan="0" len="48" key="70" vol="100"/>
        </midiclip>
        <midiclip pos="2688" type="1" muted="0" name="" steps="16">
          <note pos="0" pan="0" len="192" key="68" vol="100"/>
        </midiclip>
        <midiclip pos="6720" type="1" muted="0" name="" steps="16">
          <note pos="0" pan="0" len="96" key="78" vol="100"/>
          <note pos="96" pan="0" len="48" key="76" vol="100"/>
          <note pos="144" pan="0" len="96" key="75" vol="100"/>
          <note pos="240" pan="0" len="96" key="71" vol="100"/>
          <note pos="384" pan="0" len="96" key="73" vol="100"/>
          <note pos="480" pan="0" len="48" key="71" vol="100"/>
          <note pos="528" pan="0" len="96" key="69" vol="100"/>
          <note pos="624" pan="0" len="96" key="66" vol="100"/>
          <note pos="768" pan="0" len="96" key="69" vol="100"/>
          <note pos="864" pan="0" len="48" key="73" vol="100"/>
          <note pos="912" pan="0" len="96" key="73" vol="100"/>
          <note pos="1008" pan="0" len="48" key="71" vol="100"/>
          <note pos="1056" pan="0" len="48" key="71" vol="100"/>
          <note pos="1152" pan="0" len="96" key="71" vol="100"/>
          <note pos="1248" pan="0" len="48" key="71" vol="100"/>
          <note pos="1296" pan="0" len="96" key="70" vol="100"/>
          <note pos="1392" pan="0" len="528" key="66" vol="100"/>
        </midiclip>
        <midiclip pos="12672" type="1" muted="0" name="" steps="16">
          <note pos="0" pan="0" len="36" key="72" vol="100"/>
          <note pos="0" pan="0" len="36" key="68" vol="100"/>
          <note pos="0" pan="0" len="36" key="65" vol="100"/>
          <note pos="0" pan="0" len="36" key="60" vol="100"/>
          <note pos="36" pan="0" len="12" key="75" vol="100"/>
          <note pos="36" pan="0" len="12" key="68" vol="100"/>
          <note pos="36" pan="0" len="12" key="65" vol="100"/>
          <note pos="36" pan="0" len="12" key="60" vol="100"/>
          <note pos="72" pan="0" len="24" key="70" vol="100"/>
          <note pos="96" pan="0" len="12" key="72" vol="100"/>
          <note pos="96" pan="0" len="12" key="67" vol="100"/>
          <note pos="96" pan="0" len="12" key="63" vol="100"/>
          <note pos="96" pan="0" len="12" key="58" vol="100"/>
          <note pos="120" pan="0" len="12" key="67" vol="100"/>
          <note pos="120" pan="0" len="12" key="63" vol="100"/>
          <note pos="120" pan="0" len="12" key="58" vol="100"/>
          <note pos="144" pan="0" len="12" key="67" vol="100"/>
          <note pos="144" pan="0" len="12" key="63" vol="100"/>
          <note pos="144" pan="0" len="12" key="58" vol="100"/>
          <note pos="168" pan="0" len="12" key="67" vol="100"/>
          <note pos="168" pan="0" len="12" key="63" vol="100"/>
          <note pos="168" pan="0" len="12" key="58" vol="100"/>
          <note pos="192" pan="0" len="36" key="68" vol="100"/>
          <note pos="192" pan="0" len="36" key="65" vol="100"/>
          <note pos="192" pan="0" len="36" key="61" vol="100"/>
          <note pos="192" pan="0" len="36" key="58" vol="100"/>
          <note pos="228" pan="0" len="12" key="70" vol="100"/>
          <note pos="228" pan="0" len="12" key="68" vol="100"/>
          <note pos="228" pan="0" len="12" key="65" vol="100"/>
          <note pos="228" pan="0" len="12" key="61" vol="100"/>
          <note pos="264" pan="0" len="24" key="75" vol="100"/>
          <note pos="288" pan="0" len="24" key="72" vol="100"/>
          <note pos="288" pan="0" len="24" key="68" vol="100"/>
          <note pos="288" pan="0" len="24" key="65" vol="100"/>
          <note pos="288" pan="0" len="24" key="60" vol="100"/>
          <note pos="312" pan="0" len="12" key="68" vol="100"/>
          <note pos="312" pan="0" len="12" key="65" vol="100"/>
          <note pos="312" pan="0" len="12" key="60" vol="100"/>
          <note pos="336" pan="0" len="24" key="65" vol="100"/>
          <note pos="336" pan="0" len="24" key="63" vol="100"/>
          <note pos="336" pan="0" len="24" key="60" vol="100"/>
          <note pos="336" pan="0" len="24" key="56" vol="100"/>
          <note pos="360" pan="0" len="12" key="67" vol="100"/>
          <note pos="360" pan="0" len="12" key="65" vol="100"/>
          <note pos="360" pan="0" len="12" key="60" vol="100"/>
          <note pos="384" pan="0" len="36" key="72" vol="100"/>
          <note pos="384" pan="0" len="36" key="68" vol="100"/>
          <note pos="384" pan="0" len="36" key="65" vol="100"/>
          <note pos="384" pan="0" len="36" key="60" vol="100"/>
          <note pos="420" pan="0" len="12" key="75" vol="100"/>
          <note pos="420" pan="0" len="12" key="68" vol="100"/>
          <note pos="420" pan="0" len="12" key="65" vol="100"/>
          <note pos="420" pan="0" len="12" key="60" vol="100"/>
          <note pos="456" pan="0" len="24" key="70" vol="100"/>
          <note pos="480" pan="0" len="12" key="72" vol="100"/>
          <note pos="480" pan="0" len="12" key="67" vol="100"/>
          <note pos="480" pan="0" len="12" key="63" vol="100"/>
          <note pos="480" pan="0" len="12" key="58" vol="100"/>
          <note pos="504" pan="0" len="12" key="67" vol="100"/>
          <note pos="504" pan="0" len="12" key="63" vol="100"/>
          <note pos="504" pan="0" len="12" key="58" vol="100"/>
          <note pos="528" pan="0" len="24" key="72" vol="100"/>
          <note pos="528" pan="0" len="24" key="67" vol="100"/>
          <note pos="528" pan="0" len="24" key="63" vol="100"/>
          <note pos="528" pan="0" len="24" key="58" vol="100"/>
          <note pos="552" pan="0" len="12" key="75" vol="100"/>
          <note pos="552" pan="0" len="12" key="70" vol="100"/>
          <note pos="552" pan="0" len="12" key="67" vol="100"/>
          <note pos="552" pan="0" len="12" key="63" vol="100"/>
          <note pos="576" pan="0" len="36" key="79" vol="100"/>
          <note pos="576" pan="0" len="36" key="73" vol="100"/>
          <note pos="576" pan="0" len="36" key="68" vol="100"/>
          <note pos="576" pan="0" len="36" key="65" vol="100"/>
          <note pos="612" pan="0" len="12" key="80" vol="100"/>
          <note pos="612" pan="0" len="12" key="73" vol="100"/>
          <note pos="612" pan="0" len="12" key="68" vol="100"/>
          <note pos="612" pan="0" len="12" key="65" vol="100"/>
          <note pos="648" pan="0" len="24" key="77" vol="100"/>
          <note pos="672" pan="0" len="72" key="72" vol="100"/>
          <note pos="672" pan="0" len="72" key="68" vol="100"/>
          <note pos="672" pan="0" len="72" key="65" vol="100"/>
          <note pos="672" pan="0" len="72" key="60" vol="100"/>
          <note pos="744" pan="0" len="24" key="65" vol="100"/>
          <note pos="744" pan="0" len="24" key="60" vol="100"/>
          <note pos="744" pan="0" len="24" key="56" vol="100"/>
        </midiclip>
        <midiclip pos="13248" type="1" muted="0" name="" steps="16">
          <note pos="0" pan="0" len="36" key="72" vol="100"/>
          <note pos="0" pan="0" len="36" key="68" vol="100"/>
          <note pos="0" pan="0" len="36" key="65" vol="100"/>
          <note pos="0" pan="0" len="36" key="60" vol="100"/>
          <note pos="0" pan="0" len="36" key="53" vol="100"/>
          <note pos="36" pan="0" len="12" key="75" vol="100"/>
          <note pos="36" pan="0" len="12" key="68" vol="100"/>
          <note pos="36" pan="0" len="12" key="65" vol="100"/>
          <note pos="36" pan="0" len="12" key="60" vol="100"/>
          <note pos="36" pan="0" len="12" key="52" vol="100"/>
          <note pos="72" pan="0" len="24" key="70" vol="100"/>
          <note pos="72" pan="0" len="24" key="48" vol="100"/>
          <note pos="96" pan="0" len="12" key="72" vol="100"/>
          <note pos="96" pan="0" len="12" key="67" vol="100"/>
          <note pos="96" pan="0" len="12" key="63" vol="100"/>
          <note pos="96" pan="0" len="12" key="58" vol="100"/>
          <note pos="96" pan="0" len="48" key="51" vol="100"/>
          <note pos="120" pan="0" len="12" key="67" vol="100"/>
          <note pos="120" pan="0" len="12" key="63" vol="100"/>
          <note pos="120" pan="0" len="12" key="58" vol="100"/>
          <note pos="144" pan="0" len="12" key="67" vol="100"/>
          <note pos="144" pan="0" len="12" key="63" vol="100"/>
          <note pos="144" pan="0" len="12" key="58" vol="100"/>
          <note pos="144" pan="0" len="36" key="46" vol="100"/>
          <note pos="168" pan="0" len="12" key="67" vol="100"/>
          <note pos="168" pan="0" len="12" key="63" vol="100"/>
          <note pos="168" pan="0" len="12" key="58" vol="100"/>
          <note pos="192" pan="0" len="36" key="68" vol="100"/>
          <note pos="192" pan="0" len="36" key="65" vol="100"/>
          <note pos="192" pan="0" len="36" key="61" vol="100"/>
          <note pos="192" pan="0" len="36" key="58" vol="100"/>
          <note pos="192" pan="0" len="36" key="49" vol="100"/>
          <note pos="228" pan="0" len="12" key="70" vol="100"/>
          <note pos="228" pan="0" len="12" key="68" vol="100"/>
          <note pos="228" pan="0" len="12" key="65" vol="100"/>
          <note pos="228" pan="0" len="12" key="61" vol="100"/>
          <note pos="228" pan="0" len="12" key="48" vol="100"/>
          <note pos="264" pan="0" len="24" key="75" vol="100"/>
          <note pos="264" pan="0" len="24" key="51" vol="100"/>
          <note pos="288" pan="0" len="24" key="72" vol="100"/>
          <note pos="288" pan="0" len="24" key="68" vol="100"/>
          <note pos="288" pan="0" len="24" key="65" vol="100"/>
          <note pos="288" pan="0" len="24" key="60" vol="100"/>
          <note pos="288" pan="0" len="48" key="53" vol="100"/>
          <note pos="312" pan="0" len="12" key="68" vol="100"/>
          <note pos="312" pan="0" len="12" key="65" vol="100"/>
          <note pos="312" pan="0" len="12" key="60" vol="100"/>
          <note pos="336" pan="0" len="24" key="65" vol="100"/>
          <note pos="336" pan="0" len="24" key="63" vol="100"/>
          <note pos="336" pan="0" len="24" key="60" vol="100"/>
          <note pos="336" pan="0" len="24" key="56" vol="100"/>
          <note pos="336" pan="0" len="48" key="55" vol="100"/>
          <note pos="360" pan="0" len="12" key="67" vol="100"/>
          <note pos="360" pan="0" len="12" key="65" vol="100"/>
          <note pos="360" pan="0" len="12" key="63" vol="100"/>
          <note pos="360" pan="0" len="12" key="60" vol="100"/>
          <note pos="384" pan="0" len="36" key="72" vol="100"/>
          <note pos="384" pan="0" len="36" key="68" vol="100"/>
          <note pos="384" pan="0" len="36" key="65" vol="100"/>
          <note pos="384" pan="0" len="36" key="60" vol="100"/>
          <note pos="384" pan="0" len="36" key="56" vol="100"/>
          <note pos="420" pan="0" len="12" key="75" vol="100"/>
          <note pos="420" pan="0" len="12" key="68" vol="100"/>
          <note pos="420" pan="0" len="12" key="65" vol="100"/>
          <note pos="420" pan="0" len="12" key="60" vol="100"/>
          <note pos="420" pan="0" len="12" key="55" vol="100"/>
          <note pos="456" pan="0" len="24" key="70" vol="100"/>
          <note pos="456" pan="0" len="24" key="53" vol="100"/>
          <note pos="480" pan="0" len="12" key="72" vol="100"/>
          <note pos="480" pan="0" len="12" key="67" vol="100"/>
          <note pos="480" pan="0" len="12" key="63" vol="100"/>
          <note pos="480" pan="0" len="12" key="58" vol="100"/>
          <note pos="480" pan="0" len="48" key="51" vol="100"/>
          <note pos="504" pan="0" len="12" key="67" vol="100"/>
          <note pos="504" pan="0" len="12" key="63" vol="100"/>
          <note pos="504" pan="0" len="12" key="58" vol="100"/>
          <note pos="528" pan="0" len="24" key="72" vol="100"/>
          <note pos="528" pan="0" len="24" key="67" vol="100"/>
          <note pos="528" pan="0" len="24" key="63" vol="100"/>
          <note pos="528" pan="0" len="24" key="58" vol="100"/>
          <note pos="528" pan="0" len="48" key="48" vol="100"/>
          <note pos="552" pan="0" len="12" key="75" vol="100"/>
          <note pos="552" pan="0" len="12" key="70" vol="100"/>
          <note pos="552" pan="0" len="12" key="67" vol="100"/>
          <note pos="552" pan="0" len="12" key="63" vol="100"/>
          <note pos="576" pan="0" len="36" key="79" vol="100"/>
          <note pos="576" pan="0" len="36" key="73" vol="100"/>
          <note pos="576" pan="0" len="36" key="68" vol="100"/>
          <note pos="576" pan="0" len="36" key="65" vol="100"/>
          <note pos="576" pan="0" len="36" key="53" vol="100"/>
          <note pos="612" pan="0" len="12" key="80" vol="100"/>
          <note pos="612" pan="0" len="12" key="73" vol="100"/>
          <note pos="612" pan="0" len="12" key="68" vol="100"/>
          <note pos="612" pan="0" len="12" key="65" vol="100"/>
          <note pos="612" pan="0" len="12" key="56" vol="100"/>
          <note pos="648" pan="0" len="24" key="77" vol="100"/>
          <note pos="648" pan="0" len="24" key="55" vol="100"/>
          <note pos="672" pan="0" len="72" key="72" vol="100"/>
          <note pos="672" pan="0" len="72" key="68" vol="100"/>
          <note pos="672" pan="0" len="72" key="65" vol="100"/>
          <note pos="672" pan="0" len="72" key="60" vol="100"/>
          <note pos="672" pan="0" len="48" key="53" vol="100"/>
          <note pos="720" pan="0" len="48" key="48" vol="100"/>
          <note pos="744" pan="0" len="24" key="65" vol="100"/>
          <note pos="744" pan="0" len="24" key="60" vol="100"/>
          <note pos="744" pan="0" len="24" key="56" vol="100"/>
          <note pos="768" pan="0" len="36" key="72" vol="100"/>
          <note pos="768" pan="0" len="36" key="68" vol="100"/>
          <note pos="768" pan="0" len="36" key="65" vol="100"/>
          <note pos="768" pan="0" len="36" key="60" vol="100"/>
          <note pos="768" pan="0" len="36" key="53" vol="100"/>
          <note pos="804" pan="0" len="12" key="75" vol="100"/>
          <note pos="804" pan="0" len="12" key="68" vol="100"/>
          <note pos="804" pan="0" len="12" key="65" vol="100"/>
          <note pos="804" pan="0" len="12" key="60" vol="100"/>
          <note pos="804" pan="0" len="12" key="52" vol="100"/>
          <note pos="840" pan="0" len="24" key="70" vol="100"/>
          <note pos="840" pan="0" len="24" key="48" vol="100"/>
          <note pos="864" pan="0" len="12" key="72" vol="100"/>
          <note pos="864" pan="0" len="12" key="67" vol="100"/>
          <note pos="864" pan="0" len="12" key="63" vol="100"/>
          <note pos="864" pan="0" len="12" key="58" vol="100"/>
          <note pos="864" pan="0" len="48" key="51" vol="100"/>
          <note pos="888" pan="0" len="12" key="67" vol="100"/>
          <note pos="888" pan="0" len="12" key="63" vol="100"/>
          <note pos="888" pan="0" len="12" key="58" vol="100"/>
          <note pos="912" pan="0" len="12" key="67" vol="100"/>
          <note pos="912" pan="0" len="12" key="63" vol="100"/>
          <note pos="912" pan="0" len="12" key="58" vol="100"/>
          <note pos="912" pan="0" len="36" key="46" vol="100"/>
          <note pos="936" pan="0" len="12" key="67" vol="100"/>
          <note pos="936" pan="0" len="12" key="63" vol="100"/>
          <note pos="936" pan="0" len="12" key="58" vol="100"/>
          <note pos="960" pan="0" len="36" key="68" vol="100"/>
          <note pos="960" pan="0" len="36" key="65" vol="100"/>
          <note pos="960" pan="0" len="36" key="61" vol="100"/>
          <note pos="960" pan="0" len="36" key="58" vol="100"/>
          <note pos="960" pan="0" len="36" key="49" vol="100"/>
          <note pos="996" pan="0" len="12" key="70" vol="100"/>
          <note pos="996" pan="0" len="12" key="68" vol="100"/>
          <note pos="996" pan="0" len="12" key="65" vol="100"/>
          <note pos="996" pan="0" len="12" key="61" vol="100"/>
          <note pos="996" pan="0" len="12" key="48" vol="100"/>
          <note pos="1032" pan="0" len="24" key="75" vol="100"/>
          <note pos="1032" pan="0" len="24" key="51" vol="100"/>
          <note pos="1056" pan="0" len="24" key="72" vol="100"/>
          <note pos="1056" pan="0" len="24" key="68" vol="100"/>
          <note pos="1056" pan="0" len="24" key="65" vol="100"/>
          <note pos="1056" pan="0" len="24" key="60" vol="100"/>
          <note pos="1056" pan="0" len="48" key="53" vol="100"/>
          <note pos="1080" pan="0" len="12" key="68" vol="100"/>
          <note pos="1080" pan="0" len="12" key="65" vol="100"/>
          <note pos="1080" pan="0" len="12" key="60" vol="100"/>
          <note pos="1104" pan="0" len="24" key="65" vol="100"/>
          <note pos="1104" pan="0" len="24" key="63" vol="100"/>
          <note pos="1104" pan="0" len="24" key="60" vol="100"/>
          <note pos="1104" pan="0" len="24" key="56" vol="100"/>
          <note pos="1104" pan="0" len="48" key="55" vol="100"/>
          <note pos="1128" pan="0" len="12" key="68" vol="100"/>
          <note pos="1128" pan="0" len="12" key="65" vol="100"/>
          <note pos="1128" pan="0" len="12" key="63" vol="100"/>
          <note pos="1128" pan="0" len="12" key="60" vol="100"/>
          <note pos="1152" pan="0" len="36" key="80" vol="100"/>
          <note pos="1152" pan="0" len="36" key="68" vol="100"/>
          <note pos="1152" pan="0" len="36" key="65" vol="100"/>
          <note pos="1152" pan="0" len="36" key="60" vol="100"/>
          <note pos="1152" pan="0" len="36" key="56" vol="100"/>
          <note pos="1188" pan="0" len="12" key="79" vol="100"/>
          <note pos="1188" pan="0" len="12" key="68" vol="100"/>
          <note pos="1188" pan="0" len="12" key="65" vol="100"/>
          <note pos="1188" pan="0" len="12" key="60" vol="100"/>
          <note pos="1188" pan="0" len="12" key="55" vol="100"/>
          <note pos="1224" pan="0" len="24" key="77" vol="100"/>
          <note pos="1224" pan="0" len="24" key="53" vol="100"/>
          <note pos="1248" pan="0" len="12" key="72" vol="100"/>
          <note pos="1248" pan="0" len="12" key="67" vol="100"/>
          <note pos="1248" pan="0" len="12" key="63" vol="100"/>
          <note pos="1248" pan="0" len="12" key="58" vol="100"/>
          <note pos="1248" pan="0" len="48" key="51" vol="100"/>
          <note pos="1272" pan="0" len="12" key="67" vol="100"/>
          <note pos="1272" pan="0" len="12" key="63" vol="100"/>
          <note pos="1272" pan="0" len="12" key="58" vol="100"/>
          <note pos="1296" pan="0" len="24" key="72" vol="100"/>
          <note pos="1296" pan="0" len="24" key="67" vol="100"/>
          <note pos="1296" pan="0" len="24" key="63" vol="100"/>
          <note pos="1296" pan="0" len="24" key="58" vol="100"/>
          <note pos="1296" pan="0" len="48" key="48" vol="100"/>
          <note pos="1320" pan="0" len="12" key="75" vol="100"/>
          <note pos="1320" pan="0" len="12" key="70" vol="100"/>
          <note pos="1320" pan="0" len="12" key="67" vol="100"/>
          <note pos="1320" pan="0" len="12" key="63" vol="100"/>
          <note pos="1344" pan="0" len="36" key="79" vol="100"/>
          <note pos="1344" pan="0" len="36" key="73" vol="100"/>
          <note pos="1344" pan="0" len="36" key="68" vol="100"/>
          <note pos="1344" pan="0" len="36" key="65" vol="100"/>
          <note pos="1344" pan="0" len="36" key="53" vol="100"/>
          <note pos="1380" pan="0" len="12" key="80" vol="100"/>
          <note pos="1380" pan="0" len="12" key="73" vol="100"/>
          <note pos="1380" pan="0" len="12" key="68" vol="100"/>
          <note pos="1380" pan="0" len="12" key="65" vol="100"/>
          <note pos="1380" pan="0" len="12" key="56" vol="100"/>
          <note pos="1416" pan="0" len="24" key="82" vol="100"/>
          <note pos="1416" pan="0" len="24" key="55" vol="100"/>
          <note pos="1440" pan="0" len="84" key="84" vol="100"/>
          <note pos="1440" pan="0" len="84" key="72" vol="100"/>
          <note pos="1440" pan="0" len="84" key="68" vol="100"/>
          <note pos="1440" pan="0" len="84" key="65" vol="100"/>
          <note pos="1440" pan="0" len="84" key="53" vol="100"/>
        </midiclip>
      </track>
      <track type="5" mutedBeforeSolo="0" solo="0" muted="0" name="Oboe>Volume">
        <automationtrack/>
        <automationclip pos="960" mute="0" prog="0" len="192" tens="1" name="Oboe>Volume">
          <time pos="0" value="100" outValue="100"/>
          <object id="1205"/>
        </automationclip>
        <automationclip pos="6720" mute="0" prog="0" len="192" tens="1" name="Oboe>Volume">
          <time pos="0" value="100" outValue="100"/>
          <object id="1205"/>
        </automationclip>
        <automationclip pos="2688" mute="0" prog="1" len="192" tens="1" name="Oboe>Volume">
          <time pos="0" value="100" outValue="100"/>
          <time pos="192" value="60" outValue="60"/>
          <object id="1205"/>
        </automationclip>
      </track>
      <track type="0" mutedBeforeSolo="0" solo="1" muted="0" name="Sax>HQ">
        <instrumenttrack pan="0" basenote="69" enabled="0" enablecc="0" lastkey="127" scale="0" range_import="1" keymap="0" usemasterpitch="1" mixch="3" pitchrange="12" pitch="0" firstkey="0">
          <vol id="4840" value="100" scale_type="linear"/>
          <midicontrollers cc78="0" cc9="0" cc44="0" cc86="0" cc117="0" cc74="0" cc15="0" cc89="0" cc65="0" cc70="0" cc20="0" cc79="0" cc124="0" cc51="0" cc95="0" cc98="0" cc104="0" cc30="0" cc41="0" cc5="0" cc90="0" cc67="0" cc6="0" cc48="0" cc3="0" cc23="0" cc99="0" cc113="0" cc118="0" cc37="0" cc1="0" cc22="0" cc88="0" cc62="0" cc114="0" cc8="0" cc7="0" cc77="0" cc85="0" cc106="0" cc36="0" cc26="0" cc76="0" cc110="0" cc19="0" cc66="0" cc11="0" cc81="0" cc35="0" cc47="0" cc63="0" cc87="0" cc101="0" cc27="0" cc100="0" cc42="0" cc119="0" cc34="0" cc17="0" cc39="0" cc0="0" cc97="0" cc14="0" cc10="0" cc116="0" cc18="0" cc2="0" cc60="0" cc125="0" cc46="0" cc105="0" cc56="0" cc25="0" cc102="0" cc45="0" cc108="0" cc43="0" cc71="0" cc69="0" cc93="0" cc32="0" cc73="0" cc57="0" cc112="0" cc29="0" cc54="0" cc91="0" cc31="0" cc16="0" cc84="0" cc49="0" cc103="0" cc50="0" cc82="0" cc122="0" cc126="0" cc123="0" cc24="0" cc92="0" cc38="0" cc68="0" cc28="0" cc94="0" cc72="0" cc61="0" cc4="0" cc75="0" cc115="0" cc33="0" cc55="0" cc59="0" cc120="0" cc52="0" cc53="0" cc121="0" cc12="0" cc83="0" cc96="0" cc40="0" cc127="0" cc13="0" cc64="0" cc111="0" cc109="0" cc58="0" cc21="0" cc80="0" cc107="0"/>
          <instrument name="sf2player">
            <sf2player bank="0" src="usersoundfont:Pseudo_Realistic_T_Sax_edit.sf2" chorusOn="0" chorusNum="3" chorusDepth="8" chorusSpeed="0.3" reverbOn="0" reverbRoomSize="0.2" chorusLevel="2" reverbLevel="0.9" patch="0" gain="1.54" reverbDamping="0" reverbWidth="0.5">
              <key/>
            </sf2player>
          </instrument>
          <eldata fres="0.5" fcut="14000" ftype="0" fwet="0">
            <elvol pdel="0" amt="0" rel="0.1" hold="0.5" latt="0" dec="0.5" lamt="0" lspd_syncmode="0" x100="0" lspd_numerator="4" sustain="0.5" lpdel="0" lspd_denominator="4" userwavefile="" lshp="0" att="0" lspd="0.1" ctlenvamt="0"/>
            <elcut pdel="0" amt="0" rel="0.1" hold="0.5" latt="0" dec="0.5" lamt="0" lspd_syncmode="0" x100="0" lspd_numerator="4" sustain="0.5" lpdel="0" lspd_denominator="4" userwavefile="" lshp="0" att="0" lspd="0.1" ctlenvamt="0"/>
            <elres pdel="0" amt="0" rel="0.1" hold="0.5" latt="0" dec="0.5" lamt="0" lspd_syncmode="0" x100="0" lspd_numerator="4" sustain="0.5" lpdel="0" lspd_denominator="4" userwavefile="" lshp="0" att="0" lspd="0.1" ctlenvamt="0"/>
          </eldata>
          <chordcreator chord="0" chord-enabled="0" chordrange="1"/>
          <arpeggiator arpcycle="0" arp-enabled="0" arpgate="100" arpdir="0" arprepeats="1" arptime_numerator="4" arptime_denominator="4" arpmode="0" arptime_syncmode="0" arprange="1" arptime="200" arpskip="0" arp="0" arpmiss="0"/>
          <midiport fixedinputvelocity="-1" inputcontroller="0" writable="0" fixedoutputvelocity="-1" fixedoutputnote="-1" basevelocity="63" inputchannel="0" outputchannel="1" outputprogram="1" readable="1" outputcontroller="0" inports=""/>
          <fxchain enabled="0" numofeffects="0"/>
        </instrumenttrack>
        <midiclip pos="4032" type="1" muted="0" name="" steps="16">
          <note pos="0" pan="0" len="72" key="51" vol="100"/>
          <note pos="72" pan="0" len="72" key="54" vol="100"/>
          <note pos="144" pan="0" len="24" key="56" vol="100"/>
          <note pos="168" pan="0" len="24" key="54" vol="100"/>
          <note pos="192" pan="0" len="24" key="57" vol="100"/>
          <note pos="216" pan="0" len="12" key="56" vol="100"/>
          <note pos="240" pan="0" len="72" key="51" vol="100"/>
          <note pos="312" pan="0" len="72" key="54" vol="100"/>
          <note pos="384" pan="0" len="24" key="56" vol="100"/>
          <note pos="408" pan="0" len="24" key="54" vol="100"/>
          <note pos="432" pan="0" len="24" key="59" vol="100"/>
          <note pos="456" pan="0" len="12" key="57" vol="100"/>
          <note pos="480" pan="0" len="72" key="57" vol="100"/>
          <note pos="552" pan="0" len="72" key="59" vol="100"/>
          <note pos="624" pan="0" len="24" key="60" vol="100"/>
          <note pos="648" pan="0" len="24" key="59" vol="100"/>
          <note pos="672" pan="0" len="24" key="64" vol="100"/>
          <note pos="696" pan="0" len="12" key="60" vol="100"/>
          <note pos="720" pan="0" len="72" key="57" vol="100"/>
          <note pos="792" pan="0" len="72" key="59" vol="100"/>
          <note pos="864" pan="0" len="24" key="60" vol="100"/>
          <note pos="888" pan="0" len="24" key="59" vol="100"/>
          <note pos="912" pan="0" len="24" key="64" vol="100"/>
          <note pos="936" pan="0" len="12" key="65" vol="100"/>
        </midiclip>
        <midiclip pos="4992" type="1" muted="0" name="" steps="16">
          <note pos="0" pan="0" len="384" key="66" vol="100"/>
        </midiclip>
        <midiclip pos="6720" type="1" muted="0" name="" steps="16">
          <note pos="0" pan="0" len="144" key="61" vol="100"/>
          <note pos="0" pan="0" len="144" key="57" vol="100"/>
          <note pos="144" pan="0" len="192" key="63" vol="100"/>
          <note pos="144" pan="0" len="192" key="59" vol="100"/>
          <note pos="384" pan="0" len="144" key="61" vol="100"/>
          <note pos="384" pan="0" len="144" key="58" vol="100"/>
          <note pos="528" pan="0" len="192" key="57" vol="100"/>
          <note pos="528" pan="0" len="192" key="54" vol="100"/>
          <note pos="768" pan="0" len="144" key="64" vol="100"/>
          <note pos="768" pan="0" len="144" key="57" vol="100"/>
          <note pos="912" pan="0" len="192" key="63" vol="100"/>
          <note pos="912" pan="0" len="192" key="59" vol="100"/>
          <note pos="1152" pan="0" len="144" key="64" vol="100"/>
          <note pos="1152" pan="0" len="144" key="59" vol="100"/>
          <note pos="1296" pan="0" len="624" key="61" vol="100"/>
          <note pos="1296" pan="0" len="624" key="58" vol="100"/>
        </midiclip>
        <midiclip pos="3072" type="1" muted="0" name="" steps="16">
          <note pos="0" pan="0" len="72" key="51" vol="100"/>
          <note pos="72" pan="0" len="72" key="54" vol="100"/>
          <note pos="144" pan="0" len="24" key="56" vol="100"/>
          <note pos="168" pan="0" len="24" key="54" vol="100"/>
          <note pos="192" pan="0" len="24" key="57" vol="100"/>
          <note pos="216" pan="0" len="12" key="56" vol="100"/>
          <note pos="240" pan="0" len="72" key="51" vol="100"/>
          <note pos="312" pan="0" len="72" key="54" vol="100"/>
          <note pos="384" pan="0" len="24" key="56" vol="100"/>
          <note pos="408" pan="0" len="24" key="54" vol="100"/>
          <note pos="432" pan="0" len="24" key="59" vol="100"/>
          <note pos="456" pan="0" len="12" key="57" vol="100"/>
          <note pos="480" pan="0" len="72" key="57" vol="100"/>
          <note pos="552" pan="0" len="72" key="59" vol="100"/>
          <note pos="624" pan="0" len="24" key="60" vol="100"/>
          <note pos="648" pan="0" len="24" key="59" vol="100"/>
          <note pos="672" pan="0" len="24" key="64" vol="100"/>
          <note pos="696" pan="0" len="12" key="60" vol="100"/>
          <note pos="720" pan="0" len="72" key="57" vol="100"/>
          <note pos="792" pan="0" len="72" key="59" vol="100"/>
          <note pos="864" pan="0" len="24" key="60" vol="100"/>
          <note pos="888" pan="0" len="24" key="59" vol="100"/>
          <note pos="912" pan="0" len="24" key="64" vol="100"/>
          <note pos="936" pan="0" len="12" key="60" vol="100"/>
        </midiclip>
        <midiclip pos="960" type="1" muted="0" name="" steps="16">
          <note pos="144" pan="0" len="12" key="63" vol="100"/>
          <note pos="144" pan="0" len="12" key="59" vol="100"/>
          <note pos="168" pan="0" len="144" key="63" vol="100"/>
          <note pos="168" pan="0" len="144" key="59" vol="100"/>
          <note pos="336" pan="0" len="24" key="59" vol="100"/>
          <note pos="336" pan="0" len="24" key="56" vol="100"/>
          <note pos="360" pan="0" len="96" key="61" vol="100"/>
          <note pos="360" pan="0" len="96" key="58" vol="100"/>
          <note pos="456" pan="0" len="48" key="59" vol="100"/>
          <note pos="456" pan="0" len="48" key="56" vol="100"/>
          <note pos="504" pan="0" len="60" key="58" vol="100"/>
          <note pos="504" pan="0" len="60" key="54" vol="100"/>
          <note pos="576" pan="0" len="156" key="56" vol="100"/>
          <note pos="576" pan="0" len="156" key="53" vol="100"/>
          <note pos="744" pan="0" len="132" key="58" vol="100"/>
          <note pos="744" pan="0" len="132" key="55" vol="100"/>
          <note pos="912" pan="0" len="12" key="59" vol="100"/>
          <note pos="912" pan="0" len="12" key="56" vol="100"/>
          <note pos="936" pan="0" len="144" key="63" vol="100"/>
          <note pos="936" pan="0" len="144" key="59" vol="100"/>
          <note pos="1104" pan="0" len="24" key="59" vol="100"/>
          <note pos="1104" pan="0" len="24" key="56" vol="100"/>
          <note pos="1128" pan="0" len="96" key="61" vol="100"/>
          <note pos="1128" pan="0" len="96" key="58" vol="100"/>
          <note pos="1224" pan="0" len="48" key="59" vol="100"/>
          <note pos="1224" pan="0" len="48" key="56" vol="100"/>
          <note pos="1272" pan="0" len="60" key="58" vol="100"/>
          <note pos="1272" pan="0" len="60" key="54" vol="100"/>
          <note pos="1344" pan="0" len="156" key="56" vol="100"/>
          <note pos="1344" pan="0" len="156" key="52" vol="100"/>
          <note pos="1512" pan="0" len="72" key="58" vol="100"/>
          <note pos="1512" pan="0" len="72" key="55" vol="100"/>
          <note pos="1584" pan="0" len="36" key="63" vol="100"/>
          <note pos="1584" pan="0" len="36" key="59" vol="100"/>
          <note pos="1632" pan="0" len="36" key="61" vol="100"/>
          <note pos="1632" pan="0" len="36" key="58" vol="100"/>
          <note pos="1680" pan="0" len="36" key="59" vol="100"/>
          <note pos="1680" pan="0" len="36" key="56" vol="100"/>
        </midiclip>
        <midiclip pos="2688" type="1" muted="0" name="" steps="16">
          <note pos="0" pan="0" len="192" key="56" vol="100"/>
          <note pos="0" pan="0" len="192" key="51" vol="100"/>
        </midiclip>
        <midiclip pos="9792" type="1" muted="0" name="" steps="16">
          <note pos="0" pan="0" len="36" key="72" vol="100"/>
          <note pos="0" pan="0" len="36" key="68" vol="100"/>
          <note pos="0" pan="0" len="36" key="65" vol="100"/>
          <note pos="0" pan="0" len="36" key="60" vol="100"/>
          <note pos="0" pan="0" len="36" key="53" vol="100"/>
          <note pos="36" pan="0" len="12" key="75" vol="100"/>
          <note pos="36" pan="0" len="12" key="68" vol="100"/>
          <note pos="36" pan="0" len="12" key="65" vol="100"/>
          <note pos="36" pan="0" len="12" key="60" vol="100"/>
          <note pos="36" pan="0" len="12" key="52" vol="100"/>
          <note pos="72" pan="0" len="24" key="70" vol="100"/>
          <note pos="72" pan="0" len="24" key="48" vol="100"/>
          <note pos="96" pan="0" len="12" key="72" vol="100"/>
          <note pos="96" pan="0" len="12" key="67" vol="100"/>
          <note pos="96" pan="0" len="12" key="63" vol="100"/>
          <note pos="96" pan="0" len="12" key="58" vol="100"/>
          <note pos="96" pan="0" len="48" key="51" vol="100"/>
          <note pos="120" pan="0" len="12" key="67" vol="100"/>
          <note pos="120" pan="0" len="12" key="63" vol="100"/>
          <note pos="120" pan="0" len="12" key="58" vol="100"/>
          <note pos="144" pan="0" len="12" key="67" vol="100"/>
          <note pos="144" pan="0" len="12" key="63" vol="100"/>
          <note pos="144" pan="0" len="12" key="58" vol="100"/>
          <note pos="144" pan="0" len="36" key="46" vol="100"/>
          <note pos="168" pan="0" len="12" key="67" vol="100"/>
          <note pos="168" pan="0" len="12" key="63" vol="100"/>
          <note pos="168" pan="0" len="12" key="58" vol="100"/>
          <note pos="192" pan="0" len="36" key="68" vol="100"/>
          <note pos="192" pan="0" len="36" key="65" vol="100"/>
          <note pos="192" pan="0" len="36" key="61" vol="100"/>
          <note pos="192" pan="0" len="36" key="58" vol="100"/>
          <note pos="192" pan="0" len="36" key="49" vol="100"/>
          <note pos="228" pan="0" len="12" key="70" vol="100"/>
          <note pos="228" pan="0" len="12" key="68" vol="100"/>
          <note pos="228" pan="0" len="12" key="65" vol="100"/>
          <note pos="228" pan="0" len="12" key="61" vol="100"/>
          <note pos="228" pan="0" len="12" key="48" vol="100"/>
          <note pos="264" pan="0" len="24" key="75" vol="100"/>
          <note pos="264" pan="0" len="24" key="51" vol="100"/>
          <note pos="288" pan="0" len="24" key="72" vol="100"/>
          <note pos="288" pan="0" len="24" key="68" vol="100"/>
          <note pos="288" pan="0" len="24" key="65" vol="100"/>
          <note pos="288" pan="0" len="24" key="60" vol="100"/>
          <note pos="288" pan="0" len="48" key="53" vol="100"/>
          <note pos="312" pan="0" len="12" key="68" vol="100"/>
          <note pos="312" pan="0" len="12" key="65" vol="100"/>
          <note pos="312" pan="0" len="12" key="60" vol="100"/>
          <note pos="336" pan="0" len="24" key="65" vol="100"/>
          <note pos="336" pan="0" len="24" key="63" vol="100"/>
          <note pos="336" pan="0" len="24" key="60" vol="100"/>
          <note pos="336" pan="0" len="24" key="56" vol="100"/>
          <note pos="336" pan="0" len="48" key="55" vol="100"/>
          <note pos="360" pan="0" len="12" key="67" vol="100"/>
          <note pos="360" pan="0" len="12" key="65" vol="100"/>
          <note pos="360" pan="0" len="12" key="63" vol="100"/>
          <note pos="360" pan="0" len="12" key="60" vol="100"/>
          <note pos="384" pan="0" len="36" key="72" vol="100"/>
          <note pos="384" pan="0" len="36" key="68" vol="100"/>
          <note pos="384" pan="0" len="36" key="65" vol="100"/>
          <note pos="384" pan="0" len="36" key="60" vol="100"/>
          <note pos="384" pan="0" len="36" key="56" vol="100"/>
          <note pos="420" pan="0" len="12" key="75" vol="100"/>
          <note pos="420" pan="0" len="12" key="68" vol="100"/>
          <note pos="420" pan="0" len="12" key="65" vol="100"/>
          <note pos="420" pan="0" len="12" key="60" vol="100"/>
          <note pos="420" pan="0" len="12" key="55" vol="100"/>
          <note pos="456" pan="0" len="24" key="70" vol="100"/>
          <note pos="456" pan="0" len="24" key="53" vol="100"/>
          <note pos="480" pan="0" len="12" key="72" vol="100"/>
          <note pos="480" pan="0" len="12" key="67" vol="100"/>
          <note pos="480" pan="0" len="12" key="63" vol="100"/>
          <note pos="480" pan="0" len="12" key="58" vol="100"/>
          <note pos="480" pan="0" len="48" key="51" vol="100"/>
          <note pos="504" pan="0" len="12" key="67" vol="100"/>
          <note pos="504" pan="0" len="12" key="63" vol="100"/>
          <note pos="504" pan="0" len="12" key="58" vol="100"/>
          <note pos="528" pan="0" len="24" key="72" vol="100"/>
          <note pos="528" pan="0" len="24" key="67" vol="100"/>
          <note pos="528" pan="0" len="24" key="63" vol="100"/>
          <note pos="528" pan="0" len="24" key="58" vol="100"/>
          <note pos="528" pan="0" len="48" key="48" vol="100"/>
          <note pos="552" pan="0" len="12" key="75" vol="100"/>
          <note pos="552" pan="0" len="12" key="70" vol="100"/>
          <note pos="552" pan="0" len="12" key="67" vol="100"/>
          <note pos="552" pan="0" len="12" key="63" vol="100"/>
          <note pos="576" pan="0" len="36" key="79" vol="100"/>
          <note pos="576" pan="0" len="36" key="73" vol="100"/>
          <note pos="576" pan="0" len="36" key="68" vol="100"/>
          <note pos="576" pan="0" len="36" key="65" vol="100"/>
          <note pos="576" pan="0" len="36" key="53" vol="100"/>
          <note pos="612" pan="0" len="12" key="80" vol="100"/>
          <note pos="612" pan="0" len="12" key="73" vol="100"/>
          <note pos="612" pan="0" len="12" key="68" vol="100"/>
          <note pos="612" pan="0" len="12" key="65" vol="100"/>
          <note pos="612" pan="0" len="12" key="56" vol="100"/>
          <note pos="648" pan="0" len="24" key="77" vol="100"/>
          <note pos="648" pan="0" len="24" key="55" vol="100"/>
          <note pos="672" pan="0" len="72" key="72" vol="100"/>
          <note pos="672" pan="0" len="72" key="68" vol="100"/>
          <note pos="672" pan="0" len="72" key="65" vol="100"/>
          <note pos="672" pan="0" len="72" key="60" vol="100"/>
          <note pos="672" pan="0" len="48" key="53" vol="100"/>
          <note pos="720" pan="0" len="48" key="48" vol="100"/>
          <note pos="744" pan="0" len="24" key="65" vol="100"/>
          <note pos="744" pan="0" len="24" key="60" vol="100"/>
          <note pos="744" pan="0" len="24" key="56" vol="100"/>
          <note pos="768" pan="0" len="36" key="72" vol="100"/>
          <note pos="768" pan="0" len="36" key="68" vol="100"/>
          <note pos="768" pan="0" len="36" key="65" vol="100"/>
          <note pos="768" pan="0" len="36" key="60" vol="100"/>
          <note pos="768" pan="0" len="36" key="53" vol="100"/>
          <note pos="804" pan="0" len="12" key="75" vol="100"/>
          <note pos="804" pan="0" len="12" key="68" vol="100"/>
          <note pos="804" pan="0" len="12" key="65" vol="100"/>
          <note pos="804" pan="0" len="12" key="60" vol="100"/>
          <note pos="804" pan="0" len="12" key="52" vol="100"/>
          <note pos="840" pan="0" len="24" key="70" vol="100"/>
          <note pos="840" pan="0" len="24" key="48" vol="100"/>
          <note pos="864" pan="0" len="12" key="72" vol="100"/>
          <note pos="864" pan="0" len="12" key="67" vol="100"/>
          <note pos="864" pan="0" len="12" key="63" vol="100"/>
          <note pos="864" pan="0" len="12" key="58" vol="100"/>
          <note pos="864" pan="0" len="48" key="51" vol="100"/>
          <note pos="888" pan="0" len="12" key="67" vol="100"/>
          <note pos="888" pan="0" len="12" key="63" vol="100"/>
          <note pos="888" pan="0" len="12" key="58" vol="100"/>
          <note pos="912" pan="0" len="12" key="67" vol="100"/>
          <note pos="912" pan="0" len="12" key="63" vol="100"/>
          <note pos="912" pan="0" len="12" key="58" vol="100"/>
          <note pos="912" pan="0" len="36" key="46" vol="100"/>
          <note pos="936" pan="0" len="12" key="67" vol="100"/>
          <note pos="936" pan="0" len="12" key="63" vol="100"/>
          <note pos="936" pan="0" len="12" key="58" vol="100"/>
          <note pos="960" pan="0" len="36" key="68" vol="100"/>
          <note pos="960" pan="0" len="36" key="65" vol="100"/>
          <note pos="960" pan="0" len="36" key="61" vol="100"/>
          <note pos="960" pan="0" len="36" key="58" vol="100"/>
          <note pos="960" pan="0" len="36" key="49" vol="100"/>
          <note pos="996" pan="0" len="12" key="70" vol="100"/>
          <note pos="996" pan="0" len="12" key="68" vol="100"/>
          <note pos="996" pan="0" len="12" key="65" vol="100"/>
          <note pos="996" pan="0" len="12" key="61" vol="100"/>
          <note pos="996" pan="0" len="12" key="48" vol="100"/>
          <note pos="1032" pan="0" len="24" key="75" vol="100"/>
          <note pos="1032" pan="0" len="24" key="51" vol="100"/>
          <note pos="1056" pan="0" len="24" key="72" vol="100"/>
          <note pos="1056" pan="0" len="24" key="68" vol="100"/>
          <note pos="1056" pan="0" len="24" key="65" vol="100"/>
          <note pos="1056" pan="0" len="24" key="60" vol="100"/>
          <note pos="1056" pan="0" len="48" key="53" vol="100"/>
          <note pos="1080" pan="0" len="12" key="68" vol="100"/>
          <note pos="1080" pan="0" len="12" key="65" vol="100"/>
          <note pos="1080" pan="0" len="12" key="60" vol="100"/>
          <note pos="1104" pan="0" len="24" key="65" vol="100"/>
          <note pos="1104" pan="0" len="24" key="63" vol="100"/>
          <note pos="1104" pan="0" len="24" key="60" vol="100"/>
          <note pos="1104" pan="0" len="24" key="56" vol="100"/>
          <note pos="1104" pan="0" len="48" key="55" vol="100"/>
          <note pos="1128" pan="0" len="12" key="68" vol="100"/>
          <note pos="1128" pan="0" len="12" key="65" vol="100"/>
          <note pos="1128" pan="0" len="12" key="63" vol="100"/>
          <note pos="1128" pan="0" len="12" key="60" vol="100"/>
          <note pos="1152" pan="0" len="36" key="80" vol="100"/>
          <note pos="1152" pan="0" len="36" key="68" vol="100"/>
          <note pos="1152" pan="0" len="36" key="65" vol="100"/>
          <note pos="1152" pan="0" len="36" key="60" vol="100"/>
          <note pos="1152" pan="0" len="36" key="56" vol="100"/>
          <note pos="1188" pan="0" len="12" key="79" vol="100"/>
          <note pos="1188" pan="0" len="12" key="68" vol="100"/>
          <note pos="1188" pan="0" len="12" key="65" vol="100"/>
          <note pos="1188" pan="0" len="12" key="60" vol="100"/>
          <note pos="1188" pan="0" len="12" key="55" vol="100"/>
          <note pos="1224" pan="0" len="24" key="77" vol="100"/>
          <note pos="1224" pan="0" len="24" key="53" vol="100"/>
          <note pos="1248" pan="0" len="12" key="72" vol="100"/>
          <note pos="1248" pan="0" len="12" key="67" vol="100"/>
          <note pos="1248" pan="0" len="12" key="63" vol="100"/>
          <note pos="1248" pan="0" len="12" key="58" vol="100"/>
          <note pos="1248" pan="0" len="48" key="51" vol="100"/>
          <note pos="1272" pan="0" len="12" key="67" vol="100"/>
          <note pos="1272" pan="0" len="12" key="63" vol="100"/>
          <note pos="1272" pan="0" len="12" key="58" vol="100"/>
          <note pos="1296" pan="0" len="24" key="72" vol="100"/>
          <note pos="1296" pan="0" len="24" key="67" vol="100"/>
          <note pos="1296" pan="0" len="24" key="63" vol="100"/>
          <note pos="1296" pan="0" len="24" key="58" vol="100"/>
          <note pos="1296" pan="0" len="48" key="48" vol="100"/>
          <note pos="1320" pan="0" len="12" key="75" vol="100"/>
          <note pos="1320" pan="0" len="12" key="70" vol="100"/>
          <note pos="1320" pan="0" len="12" key="67" vol="100"/>
          <note pos="1320" pan="0" len="12" key="63" vol="100"/>
          <note pos="1344" pan="0" len="36" key="79" vol="100"/>
          <note pos="1344" pan="0" len="36" key="73" vol="100"/>
          <note pos="1344" pan="0" len="36" key="68" vol="100"/>
          <note pos="1344" pan="0" len="36" key="65" vol="100"/>
          <note pos="1344" pan="0" len="36" key="53" vol="100"/>
          <note pos="1380" pan="0" len="12" key="80" vol="100"/>
          <note pos="1380" pan="0" len="12" key="73" vol="100"/>
          <note pos="1380" pan="0" len="12" key="68" vol="100"/>
          <note pos="1380" pan="0" len="12" key="65" vol="100"/>
          <note pos="1380" pan="0" len="12" key="56" vol="100"/>
          <note pos="1416" pan="0" len="24" key="82" vol="100"/>
          <note pos="1416" pan="0" len="24" key="55" vol="100"/>
          <note pos="1440" pan="0" len="84" key="84" vol="100"/>
          <note pos="1440" pan="0" len="84" key="72" vol="100"/>
          <note pos="1440" pan="0" len="84" key="68" vol="100"/>
          <note pos="1440" pan="0" len="84" key="65" vol="100"/>
          <note pos="1440" pan="0" len="84" key="53" vol="100"/>
        </midiclip>
      </track>
      <track type="0" mutedBeforeSolo="1" solo="0" muted="1" name="Sax>LQ">
        <instrumenttrack pan="0" basenote="69" enabled="0" enablecc="0" lastkey="127" scale="0" range_import="1" keymap="0" usemasterpitch="1" mixch="3" pitchrange="12" pitch="0" firstkey="0">
          <vol id="25129" value="100" scale_type="linear"/>
          <midicontrollers cc78="0" cc9="0" cc44="0" cc86="0" cc117="0" cc74="0" cc15="0" cc89="0" cc65="0" cc70="0" cc20="0" cc79="0" cc124="0" cc51="0" cc95="0" cc98="0" cc104="0" cc30="0" cc41="0" cc5="0" cc90="0" cc67="0" cc6="0" cc48="0" cc3="0" cc23="0" cc99="0" cc113="0" cc118="0" cc37="0" cc1="0" cc22="0" cc88="0" cc62="0" cc114="0" cc8="0" cc7="0" cc77="0" cc85="0" cc106="0" cc36="0" cc26="0" cc76="0" cc110="0" cc19="0" cc66="0" cc11="0" cc81="0" cc35="0" cc47="0" cc63="0" cc87="0" cc101="0" cc27="0" cc100="0" cc42="0" cc119="0" cc34="0" cc17="0" cc39="0" cc0="0" cc97="0" cc14="0" cc10="0" cc116="0" cc18="0" cc2="0" cc60="0" cc125="0" cc46="0" cc105="0" cc56="0" cc25="0" cc102="0" cc45="0" cc108="0" cc43="0" cc71="0" cc69="0" cc93="0" cc32="0" cc73="0" cc57="0" cc112="0" cc29="0" cc54="0" cc91="0" cc31="0" cc16="0" cc84="0" cc49="0" cc103="0" cc50="0" cc82="0" cc122="0" cc126="0" cc123="0" cc24="0" cc92="0" cc38="0" cc68="0" cc28="0" cc94="0" cc72="0" cc61="0" cc4="0" cc75="0" cc115="0" cc33="0" cc55="0" cc59="0" cc120="0" cc52="0" cc53="0" cc121="0" cc12="0" cc83="0" cc96="0" cc40="0" cc127="0" cc13="0" cc64="0" cc111="0" cc109="0" cc58="0" cc21="0" cc80="0" cc107="0"/>
          <instrument name="sf2player">
            <sf2player bank="0" src="usersoundfont:SGM-V2.01.sf2" chorusOn="0" chorusNum="3" chorusDepth="8" chorusSpeed="0.3" reverbOn="0" reverbRoomSize="0.2" chorusLevel="2" reverbLevel="0.9" patch="67" gain="2.1" reverbDamping="0" reverbWidth="0.5">
              <key/>
            </sf2player>
          </instrument>
          <eldata fres="0.5" fcut="14000" ftype="0" fwet="0">
            <elvol pdel="0" amt="0" rel="0.1" hold="0.5" latt="0" dec="0.5" lamt="0" lspd_syncmode="0" x100="0" lspd_numerator="4" sustain="0.5" lpdel="0" lspd_denominator="4" userwavefile="" lshp="0" att="0" lspd="0.1" ctlenvamt="0"/>
            <elcut pdel="0" amt="0" rel="0.1" hold="0.5" latt="0" dec="0.5" lamt="0" lspd_syncmode="0" x100="0" lspd_numerator="4" sustain="0.5" lpdel="0" lspd_denominator="4" userwavefile="" lshp="0" att="0" lspd="0.1" ctlenvamt="0"/>
            <elres pdel="0" amt="0" rel="0.1" hold="0.5" latt="0" dec="0.5" lamt="0" lspd_syncmode="0" x100="0" lspd_numerator="4" sustain="0.5" lpdel="0" lspd_denominator="4" userwavefile="" lshp="0" att="0" lspd="0.1" ctlenvamt="0"/>
          </eldata>
          <chordcreator chord="0" chord-enabled="0" chordrange="1"/>
          <arpeggiator arpcycle="0" arp-enabled="0" arpgate="100" arpdir="0" arprepeats="1" arptime_numerator="4" arptime_denominator="4" arpmode="0" arptime_syncmode="0" arprange="1" arptime="200" arpskip="0" arp="0" arpmiss="0"/>
          <midiport fixedinputvelocity="-1" inputcontroller="0" writable="0" fixedoutputvelocity="-1" fixedoutputnote="-1" basevelocity="63" inputchannel="0" outputchannel="1" outputprogram="1" readable="1" outputcontroller="0" inports=""/>
          <fxchain enabled="0" numofeffects="0"/>
        </instrumenttrack>
        <midiclip pos="4032" type="1" muted="0" name="" steps="16">
          <note pos="0" pan="0" len="72" key="51" vol="100"/>
          <note pos="72" pan="0" len="72" key="54" vol="100"/>
          <note pos="144" pan="0" len="24" key="56" vol="100"/>
          <note pos="168" pan="0" len="24" key="54" vol="100"/>
          <note pos="192" pan="0" len="24" key="57" vol="100"/>
          <note pos="216" pan="0" len="12" key="56" vol="100"/>
          <note pos="240" pan="0" len="72" key="51" vol="100"/>
          <note pos="312" pan="0" len="72" key="54" vol="100"/>
          <note pos="384" pan="0" len="24" key="56" vol="100"/>
          <note pos="408" pan="0" len="24" key="54" vol="100"/>
          <note pos="432" pan="0" len="24" key="59" vol="100"/>
          <note pos="456" pan="0" len="12" key="57" vol="100"/>
          <note pos="480" pan="0" len="72" key="57" vol="100"/>
          <note pos="552" pan="0" len="72" key="59" vol="100"/>
          <note pos="624" pan="0" len="24" key="60" vol="100"/>
          <note pos="648" pan="0" len="24" key="59" vol="100"/>
          <note pos="672" pan="0" len="24" key="64" vol="100"/>
          <note pos="696" pan="0" len="12" key="60" vol="100"/>
          <note pos="720" pan="0" len="72" key="57" vol="100"/>
          <note pos="792" pan="0" len="72" key="59" vol="100"/>
          <note pos="864" pan="0" len="24" key="60" vol="100"/>
          <note pos="888" pan="0" len="24" key="59" vol="100"/>
          <note pos="912" pan="0" len="24" key="64" vol="100"/>
          <note pos="936" pan="0" len="12" key="65" vol="100"/>
        </midiclip>
        <midiclip pos="4992" type="1" muted="0" name="" steps="16">
          <note pos="0" pan="0" len="384" key="66" vol="100"/>
        </midiclip>
        <midiclip pos="6720" type="1" muted="0" name="" steps="16">
          <note pos="0" pan="0" len="144" key="61" vol="100"/>
          <note pos="0" pan="0" len="144" key="57" vol="100"/>
          <note pos="144" pan="0" len="192" key="63" vol="100"/>
          <note pos="144" pan="0" len="192" key="59" vol="100"/>
          <note pos="384" pan="0" len="144" key="61" vol="100"/>
          <note pos="384" pan="0" len="144" key="58" vol="100"/>
          <note pos="528" pan="0" len="192" key="57" vol="100"/>
          <note pos="528" pan="0" len="192" key="54" vol="100"/>
          <note pos="768" pan="0" len="144" key="64" vol="100"/>
          <note pos="768" pan="0" len="144" key="57" vol="100"/>
          <note pos="912" pan="0" len="192" key="63" vol="100"/>
          <note pos="912" pan="0" len="192" key="59" vol="100"/>
          <note pos="1152" pan="0" len="144" key="64" vol="100"/>
          <note pos="1152" pan="0" len="144" key="59" vol="100"/>
          <note pos="1296" pan="0" len="624" key="61" vol="100"/>
          <note pos="1296" pan="0" len="624" key="58" vol="100"/>
        </midiclip>
        <midiclip pos="3072" type="1" muted="0" name="" steps="16">
          <note pos="0" pan="0" len="72" key="51" vol="100"/>
          <note pos="72" pan="0" len="72" key="54" vol="100"/>
          <note pos="144" pan="0" len="24" key="56" vol="100"/>
          <note pos="168" pan="0" len="24" key="54" vol="100"/>
          <note pos="192" pan="0" len="24" key="57" vol="100"/>
          <note pos="216" pan="0" len="12" key="56" vol="100"/>
          <note pos="240" pan="0" len="72" key="51" vol="100"/>
          <note pos="312" pan="0" len="72" key="54" vol="100"/>
          <note pos="384" pan="0" len="24" key="56" vol="100"/>
          <note pos="408" pan="0" len="24" key="54" vol="100"/>
          <note pos="432" pan="0" len="24" key="59" vol="100"/>
          <note pos="456" pan="0" len="12" key="57" vol="100"/>
          <note pos="480" pan="0" len="72" key="57" vol="100"/>
          <note pos="552" pan="0" len="72" key="59" vol="100"/>
          <note pos="624" pan="0" len="24" key="60" vol="100"/>
          <note pos="648" pan="0" len="24" key="59" vol="100"/>
          <note pos="672" pan="0" len="24" key="64" vol="100"/>
          <note pos="696" pan="0" len="12" key="60" vol="100"/>
          <note pos="720" pan="0" len="72" key="57" vol="100"/>
          <note pos="792" pan="0" len="72" key="59" vol="100"/>
          <note pos="864" pan="0" len="24" key="60" vol="100"/>
          <note pos="888" pan="0" len="24" key="59" vol="100"/>
          <note pos="912" pan="0" len="24" key="64" vol="100"/>
          <note pos="936" pan="0" len="12" key="60" vol="100"/>
        </midiclip>
        <midiclip pos="960" type="1" muted="0" name="" steps="16">
          <note pos="144" pan="0" len="12" key="63" vol="100"/>
          <note pos="144" pan="0" len="12" key="59" vol="100"/>
          <note pos="168" pan="0" len="144" key="63" vol="100"/>
          <note pos="168" pan="0" len="144" key="59" vol="100"/>
          <note pos="336" pan="0" len="24" key="59" vol="100"/>
          <note pos="336" pan="0" len="24" key="56" vol="100"/>
          <note pos="360" pan="0" len="96" key="61" vol="100"/>
          <note pos="360" pan="0" len="96" key="58" vol="100"/>
          <note pos="456" pan="0" len="48" key="59" vol="100"/>
          <note pos="456" pan="0" len="48" key="56" vol="100"/>
          <note pos="504" pan="0" len="60" key="58" vol="100"/>
          <note pos="504" pan="0" len="60" key="54" vol="100"/>
          <note pos="576" pan="0" len="156" key="56" vol="100"/>
          <note pos="576" pan="0" len="156" key="53" vol="100"/>
          <note pos="744" pan="0" len="132" key="58" vol="100"/>
          <note pos="744" pan="0" len="132" key="55" vol="100"/>
          <note pos="912" pan="0" len="12" key="59" vol="100"/>
          <note pos="912" pan="0" len="12" key="56" vol="100"/>
          <note pos="936" pan="0" len="144" key="63" vol="100"/>
          <note pos="936" pan="0" len="144" key="59" vol="100"/>
          <note pos="1104" pan="0" len="24" key="59" vol="100"/>
          <note pos="1104" pan="0" len="24" key="56" vol="100"/>
          <note pos="1128" pan="0" len="96" key="61" vol="100"/>
          <note pos="1128" pan="0" len="96" key="58" vol="100"/>
          <note pos="1224" pan="0" len="48" key="59" vol="100"/>
          <note pos="1224" pan="0" len="48" key="56" vol="100"/>
          <note pos="1272" pan="0" len="60" key="58" vol="100"/>
          <note pos="1272" pan="0" len="60" key="54" vol="100"/>
          <note pos="1344" pan="0" len="156" key="56" vol="100"/>
          <note pos="1344" pan="0" len="156" key="52" vol="100"/>
          <note pos="1512" pan="0" len="72" key="58" vol="100"/>
          <note pos="1512" pan="0" len="72" key="55" vol="100"/>
          <note pos="1584" pan="0" len="36" key="63" vol="100"/>
          <note pos="1584" pan="0" len="36" key="59" vol="100"/>
          <note pos="1632" pan="0" len="36" key="61" vol="100"/>
          <note pos="1632" pan="0" len="36" key="58" vol="100"/>
          <note pos="1680" pan="0" len="36" key="59" vol="100"/>
          <note pos="1680" pan="0" len="36" key="56" vol="100"/>
        </midiclip>
        <midiclip pos="2688" type="1" muted="0" name="" steps="16">
          <note pos="0" pan="0" len="192" key="56" vol="100"/>
          <note pos="0" pan="0" len="192" key="51" vol="100"/>
        </midiclip>
      </track>
      <track type="5" mutedBeforeSolo="0" solo="0" muted="0" name="Sax>Volume">
        <automationtrack/>
        <automationclip pos="4992" mute="0" prog="1" len="384" tens="1" name="Sax>Volume">
          <time pos="0" value="100" outValue="100"/>
          <time pos="384" value="0" outValue="0"/>
          <object id="4840"/>
          <object id="25129"/>
        </automationclip>
        <automationclip pos="960" mute="0" prog="0" len="192" tens="1" name="Sax>Volume">
          <time pos="0" value="100" outValue="100"/>
          <object id="4840"/>
          <object id="25129"/>
        </automationclip>
        <automationclip pos="6720" mute="0" prog="0" len="192" tens="1" name="Sax>Volume">
          <time pos="0" value="70" outValue="70"/>
          <object id="4840"/>
          <object id="25129"/>
        </automationclip>
        <automationclip pos="3072" mute="0" prog="0" len="192" tens="1" name="Sax>Volume">
          <time pos="0" value="100" outValue="100"/>
          <object id="4840"/>
          <object id="25129"/>
        </automationclip>
        <automationclip pos="2688" mute="0" prog="1" len="192" tens="1" name="Sax>Volume">
          <time pos="0" value="100" outValue="100"/>
          <time pos="192" value="60" outValue="60"/>
          <object id="4840"/>
          <object id="25129"/>
        </automationclip>
        <automationclip pos="9792" mute="0" prog="0" len="192" tens="1" name="Sax>Volume">
          <time pos="0" value="100" outValue="100"/>
          <object id="4840"/>
          <object id="25129"/>
        </automationclip>
      </track>
      <track type="0" mutedBeforeSolo="1" solo="0" muted="0" name="Bass>Picked">
        <instrumenttrack pan="0" basenote="69" enabled="0" enablecc="0" lastkey="127" scale="0" range_import="1" keymap="0" usemasterpitch="1" mixch="5" vol="100" pitchrange="12" firstkey="0">
          <pitch id="20308" value="0" scale_type="linear"/>
          <midicontrollers cc78="0" cc9="0" cc44="0" cc86="0" cc117="0" cc74="0" cc15="0" cc89="0" cc65="0" cc70="0" cc20="0" cc79="0" cc124="0" cc51="0" cc95="0" cc98="0" cc104="0" cc30="0" cc41="0" cc5="0" cc90="0" cc67="0" cc6="0" cc48="0" cc3="0" cc23="0" cc99="0" cc113="0" cc118="0" cc37="0" cc1="0" cc22="0" cc88="0" cc62="0" cc114="0" cc8="0" cc7="0" cc77="0" cc85="0" cc106="0" cc36="0" cc26="0" cc76="0" cc110="0" cc19="0" cc66="0" cc11="0" cc81="0" cc35="0" cc47="0" cc63="0" cc87="0" cc101="0" cc27="0" cc100="0" cc42="0" cc119="0" cc34="0" cc17="0" cc39="0" cc0="0" cc97="0" cc14="0" cc10="0" cc116="0" cc18="0" cc2="0" cc60="0" cc125="0" cc46="0" cc105="0" cc56="0" cc25="0" cc102="0" cc45="0" cc108="0" cc43="0" cc71="0" cc69="0" cc93="0" cc32="0" cc73="0" cc57="0" cc112="0" cc29="0" cc54="0" cc91="0" cc31="0" cc16="0" cc84="0" cc49="0" cc103="0" cc50="0" cc82="0" cc122="0" cc126="0" cc123="0" cc24="0" cc92="0" cc38="0" cc68="0" cc28="0" cc94="0" cc72="0" cc61="0" cc4="0" cc75="0" cc115="0" cc33="0" cc55="0" cc59="0" cc120="0" cc52="0" cc53="0" cc121="0" cc12="0" cc83="0" cc96="0" cc40="0" cc127="0" cc13="0" cc64="0" cc111="0" cc109="0" cc58="0" cc21="0" cc80="0" cc107="0"/>
          <instrument name="sf2player">
            <sf2player bank="0" src="usersoundfont:SGM-V2.01.sf2" chorusOn="0" chorusNum="3" chorusDepth="8" chorusSpeed="0.3" reverbOn="0" reverbRoomSize="0.2" chorusLevel="2" reverbLevel="0.9" patch="34" gain="1.24" reverbDamping="0" reverbWidth="0.5">
              <key/>
            </sf2player>
          </instrument>
          <eldata fres="0.5" fcut="14000" ftype="0" fwet="0">
            <elvol pdel="0" amt="0" rel="0.1" hold="0.5" latt="0" dec="0.5" lamt="0" lspd_syncmode="0" x100="0" lspd_numerator="4" sustain="0.5" lpdel="0" lspd_denominator="4" userwavefile="" lshp="0" att="0" lspd="0.1" ctlenvamt="0"/>
            <elcut pdel="0" amt="0" rel="0.1" hold="0.5" latt="0" dec="0.5" lamt="0" lspd_syncmode="0" x100="0" lspd_numerator="4" sustain="0.5" lpdel="0" lspd_denominator="4" userwavefile="" lshp="0" att="0" lspd="0.1" ctlenvamt="0"/>
            <elres pdel="0" amt="0" rel="0.1" hold="0.5" latt="0" dec="0.5" lamt="0" lspd_syncmode="0" x100="0" lspd_numerator="4" sustain="0.5" lpdel="0" lspd_denominator="4" userwavefile="" lshp="0" att="0" lspd="0.1" ctlenvamt="0"/>
          </eldata>
          <chordcreator chord="0" chord-enabled="0" chordrange="1"/>
          <arpeggiator arpcycle="0" arp-enabled="0" arpgate="100" arpdir="0" arprepeats="1" arptime_numerator="4" arptime_denominator="4" arpmode="0" arptime_syncmode="0" arprange="1" arptime="200" arpskip="0" arp="0" arpmiss="0"/>
          <midiport fixedinputvelocity="-1" inputcontroller="0" writable="0" fixedoutputvelocity="-1" fixedoutputnote="-1" basevelocity="63" inputchannel="0" outputchannel="1" outputprogram="1" readable="1" outputcontroller="0" inports=""/>
          <fxchain enabled="0" numofeffects="0"/>
        </instrumenttrack>
        <midiclip pos="3072" type="1" muted="0" name="" steps="16">
          <note pos="0" pan="0" len="48" key="32" vol="100"/>
          <note pos="48" pan="0" len="24" key="35" vol="100"/>
          <note pos="72" pan="0" len="48" key="37" vol="100"/>
          <note pos="120" pan="0" len="24" key="35" vol="100"/>
          <note pos="144" pan="0" len="24" key="39" vol="100"/>
          <note pos="168" pan="0" len="24" key="37" vol="100"/>
          <note pos="192" pan="0" len="24" key="35" vol="100"/>
          <note pos="216" pan="0" len="24" key="37" vol="100"/>
          <note pos="240" pan="0" len="48" key="32" vol="100"/>
          <note pos="288" pan="0" len="24" key="35" vol="100"/>
          <note pos="312" pan="0" len="48" key="37" vol="100"/>
          <note pos="360" pan="0" len="24" key="35" vol="100"/>
          <note pos="384" pan="0" len="24" key="39" vol="100"/>
          <note pos="408" pan="0" len="24" key="37" vol="100"/>
          <note pos="432" pan="0" len="24" key="35" vol="100"/>
          <note pos="456" pan="0" len="24" key="37" vol="100"/>
          <note pos="480" pan="0" len="48" key="35" vol="100"/>
          <note pos="528" pan="0" len="24" key="38" vol="100"/>
          <note pos="552" pan="0" len="48" key="40" vol="100"/>
          <note pos="600" pan="0" len="24" key="38" vol="100"/>
          <note pos="624" pan="0" len="24" key="41" vol="100"/>
          <note pos="648" pan="0" len="24" key="40" vol="100"/>
          <note pos="672" pan="0" len="24" key="38" vol="100"/>
          <note pos="696" pan="0" len="24" key="40" vol="100"/>
          <note pos="720" pan="0" len="48" key="35" vol="100"/>
          <note pos="768" pan="0" len="24" key="38" vol="100"/>
          <note pos="792" pan="0" len="48" key="40" vol="100"/>
          <note pos="840" pan="0" len="24" key="38" vol="100"/>
          <note pos="864" pan="0" len="24" key="41" vol="100"/>
          <note pos="888" pan="0" len="24" key="40" vol="100"/>
          <note pos="912" pan="0" len="24" key="38" vol="100"/>
          <note pos="936" pan="0" len="24" key="40" vol="100"/>
        </midiclip>
        <midiclip pos="4032" type="1" muted="0" name="" steps="16">
          <note pos="0" pan="0" len="48" key="32" vol="100"/>
          <note pos="48" pan="0" len="24" key="35" vol="100"/>
          <note pos="72" pan="0" len="48" key="37" vol="100"/>
          <note pos="120" pan="0" len="24" key="35" vol="100"/>
          <note pos="144" pan="0" len="24" key="39" vol="100"/>
          <note pos="168" pan="0" len="24" key="37" vol="100"/>
          <note pos="192" pan="0" len="24" key="35" vol="100"/>
          <note pos="216" pan="0" len="24" key="37" vol="100"/>
          <note pos="240" pan="0" len="48" key="32" vol="100"/>
          <note pos="288" pan="0" len="24" key="35" vol="100"/>
          <note pos="312" pan="0" len="48" key="37" vol="100"/>
          <note pos="360" pan="0" len="24" key="35" vol="100"/>
          <note pos="384" pan="0" len="24" key="39" vol="100"/>
          <note pos="408" pan="0" len="24" key="37" vol="100"/>
          <note pos="432" pan="0" len="24" key="35" vol="100"/>
          <note pos="456" pan="0" len="24" key="37" vol="100"/>
          <note pos="480" pan="0" len="48" key="35" vol="100"/>
          <note pos="528" pan="0" len="24" key="38" vol="100"/>
          <note pos="552" pan="0" len="48" key="40" vol="100"/>
          <note pos="600" pan="0" len="24" key="38" vol="100"/>
          <note pos="624" pan="0" len="24" key="41" vol="100"/>
          <note pos="648" pan="0" len="24" key="40" vol="100"/>
          <note pos="672" pan="0" len="24" key="38" vol="100"/>
          <note pos="696" pan="0" len="24" key="40" vol="100"/>
          <note pos="720" pan="0" len="48" key="35" vol="100"/>
          <note pos="768" pan="0" len="24" key="38" vol="100"/>
          <note pos="792" pan="0" len="48" key="40" vol="100"/>
          <note pos="840" pan="0" len="24" key="38" vol="100"/>
          <note pos="864" pan="0" len="24" key="41" vol="100"/>
          <note pos="888" pan="0" len="24" key="40" vol="100"/>
          <note pos="912" pan="0" len="24" key="38" vol="100"/>
          <note pos="936" pan="0" len="24" key="40" vol="100"/>
        </midiclip>
        <midiclip pos="6720" type="1" muted="0" name="" steps="16">
          <note pos="0" pan="0" len="144" key="33" vol="100"/>
          <note pos="144" pan="0" len="240" key="35" vol="100"/>
          <note pos="384" pan="0" len="144" key="42" vol="100"/>
          <note pos="528" pan="0" len="240" key="35" vol="100"/>
          <note pos="768" pan="0" len="144" key="33" vol="100"/>
          <note pos="912" pan="0" len="240" key="39" vol="100"/>
          <note pos="1152" pan="0" len="144" key="35" vol="100"/>
          <note pos="1296" pan="0" len="624" key="30" vol="100"/>
        </midiclip>
        <midiclip pos="960" type="1" muted="0" name="" steps="16">
          <note pos="0" pan="0" len="144" key="32" vol="100"/>
          <note pos="144" pan="0" len="12" key="32" vol="100"/>
          <note pos="168" pan="0" len="12" key="32" vol="100"/>
        </midiclip>
        <midiclip pos="0" type="1" muted="0" name="" steps="16">
          <note pos="0" pan="0" len="72" key="32" vol="100"/>
          <note pos="72" pan="0" len="72" key="35" vol="100"/>
          <note pos="144" pan="0" len="48" key="37" vol="100"/>
          <note pos="192" pan="0" len="36" key="42" vol="100"/>
          <note pos="240" pan="0" len="72" key="32" vol="100"/>
          <note pos="312" pan="0" len="72" key="35" vol="100"/>
          <note pos="384" pan="0" len="48" key="37" vol="100"/>
          <note pos="480" pan="0" len="72" key="33" vol="100"/>
          <note pos="552" pan="0" len="72" key="37" vol="100"/>
          <note pos="624" pan="0" len="48" key="38" vol="100"/>
          <note pos="672" pan="0" len="36" key="37" vol="100"/>
          <note pos="720" pan="0" len="72" key="33" vol="100"/>
          <note pos="792" pan="0" len="72" key="37" vol="100"/>
          <note pos="864" pan="0" len="48" key="38" vol="100"/>
        </midiclip>
        <midiclip pos="2688" type="1" muted="0" name="" steps="16">
          <note pos="0" pan="0" len="120" key="32" vol="100"/>
          <note pos="144" pan="0" len="12" key="32" vol="100"/>
          <note pos="168" pan="0" len="72" key="32" vol="100"/>
          <note pos="264" pan="0" len="24" key="32" vol="100"/>
          <note pos="312" pan="0" len="24" key="32" vol="100"/>
          <note pos="360" pan="0" len="12" key="32" vol="100"/>
        </midiclip>
        <midiclip pos="1152" type="1" muted="0" name="" steps="16">
          <note pos="0" pan="0" len="12" key="32" vol="100"/>
          <note pos="24" pan="0" len="12" key="32" vol="100"/>
          <note pos="48" pan="0" len="12" key="32" vol="100"/>
          <note pos="72" pan="0" len="12" key="32" vol="100"/>
          <note pos="96" pan="0" len="12" key="32" vol="100"/>
          <note pos="120" pan="0" len="12" key="32" vol="100"/>
          <note pos="144" pan="0" len="12" key="32" vol="100"/>
          <note pos="168" pan="0" len="12" key="37" vol="100"/>
          <note pos="192" pan="0" len="12" key="37" vol="100"/>
          <note pos="216" pan="0" len="12" key="37" vol="100"/>
          <note pos="240" pan="0" len="12" key="37" vol="100"/>
          <note pos="264" pan="0" len="12" key="37" vol="100"/>
          <note pos="288" pan="0" len="12" key="37" vol="100"/>
          <note pos="312" pan="0" len="12" key="37" vol="100"/>
          <note pos="336" pan="0" len="12" key="37" vol="100"/>
          <note pos="360" pan="0" len="12" key="32" vol="100"/>
          <note pos="384" pan="0" len="12" key="25" vol="100"/>
          <note pos="408" pan="0" len="12" key="25" vol="100"/>
          <note pos="432" pan="0" len="12" key="25" vol="100"/>
          <note pos="456" pan="0" len="12" key="25" vol="100"/>
          <note pos="480" pan="0" len="12" key="25" vol="100"/>
          <note pos="504" pan="0" len="12" key="23" vol="100"/>
          <note pos="528" pan="0" len="12" key="23" vol="100"/>
          <note pos="552" pan="0" len="12" key="27" vol="100"/>
          <note pos="576" pan="0" len="12" key="27" vol="100"/>
          <note pos="600" pan="0" len="12" key="27" vol="100"/>
          <note pos="624" pan="0" len="12" key="27" vol="100"/>
          <note pos="648" pan="0" len="12" key="27" vol="100"/>
          <note pos="672" pan="0" len="12" key="27" vol="100"/>
          <note pos="696" pan="0" len="12" key="29" vol="100"/>
          <note pos="720" pan="0" len="12" key="30" vol="100"/>
          <note pos="744" pan="0" len="12" key="32" vol="100"/>
          <note pos="768" pan="0" len="12" key="32" vol="100"/>
          <note pos="792" pan="0" len="12" key="32" vol="100"/>
          <note pos="816" pan="0" len="12" key="32" vol="100"/>
          <note pos="840" pan="0" len="12" key="32" vol="100"/>
          <note pos="864" pan="0" len="12" key="32" vol="100"/>
          <note pos="888" pan="0" len="12" key="32" vol="100"/>
          <note pos="912" pan="0" len="12" key="32" vol="100"/>
          <note pos="936" pan="0" len="12" key="37" vol="100"/>
          <note pos="960" pan="0" len="12" key="37" vol="100"/>
          <note pos="984" pan="0" len="12" key="37" vol="100"/>
          <note pos="1008" pan="0" len="12" key="37" vol="100"/>
          <note pos="1032" pan="0" len="12" key="37" vol="100"/>
          <note pos="1056" pan="0" len="12" key="37" vol="100"/>
          <note pos="1080" pan="0" len="12" key="37" vol="100"/>
          <note pos="1104" pan="0" len="12" key="37" vol="100"/>
          <note pos="1128" pan="0" len="12" key="32" vol="100"/>
          <note pos="1152" pan="0" len="12" key="25" vol="100"/>
          <note pos="1176" pan="0" len="12" key="25" vol="100"/>
          <note pos="1200" pan="0" len="12" key="25" vol="100"/>
          <note pos="1224" pan="0" len="12" key="25" vol="100"/>
          <note pos="1248" pan="0" len="12" key="25" vol="100"/>
          <note pos="1272" pan="0" len="12" key="23" vol="100"/>
          <note pos="1296" pan="0" len="12" key="23" vol="100"/>
          <note pos="1320" pan="0" len="12" key="27" vol="100"/>
          <note pos="1344" pan="0" len="12" key="27" vol="100"/>
          <note pos="1368" pan="0" len="12" key="27" vol="100"/>
          <note pos="1392" pan="0" len="36" key="27" vol="100"/>
          <note pos="1440" pan="0" len="36" key="34" vol="100"/>
          <note pos="1488" pan="0" len="36" key="37" vol="100"/>
        </midiclip>
        <midiclip pos="5760" type="1" muted="0" name="" steps="16">
          <note pos="0" pan="0" len="36" key="38" vol="100"/>
          <note pos="36" pan="0" len="36" key="33" vol="100"/>
          <note pos="72" pan="0" len="36" key="38" vol="100"/>
          <note pos="108" pan="0" len="36" key="30" vol="100"/>
          <note pos="144" pan="0" len="36" key="38" vol="100"/>
          <note pos="180" pan="0" len="36" key="33" vol="100"/>
          <note pos="216" pan="0" len="36" key="38" vol="100"/>
          <note pos="252" pan="0" len="36" key="26" vol="100"/>
          <note pos="288" pan="0" len="36" key="38" vol="100"/>
          <note pos="324" pan="0" len="36" key="33" vol="100"/>
          <note pos="360" pan="0" len="24" key="38" vol="100"/>
        </midiclip>
        <midiclip pos="5376" type="1" muted="0" name="" steps="16">
          <note pos="0" pan="0" len="36" key="40" vol="100"/>
          <note pos="36" pan="0" len="36" key="28" vol="100"/>
          <note pos="72" pan="0" len="36" key="35" vol="100"/>
          <note pos="108" pan="0" len="36" key="28" vol="100"/>
          <note pos="144" pan="0" len="36" key="40" vol="100"/>
          <note pos="180" pan="0" len="36" key="35" vol="100"/>
          <note pos="216" pan="0" len="36" key="28" vol="100"/>
          <note pos="252" pan="0" len="36" key="35" vol="100"/>
          <note pos="288" pan="0" len="36" key="40" vol="100"/>
          <note pos="324" pan="0" len="36" key="33" vol="100"/>
          <note pos="360" pan="0" len="24" key="40" vol="100"/>
        </midiclip>
        <midiclip pos="4992" type="1" muted="0" name="" steps="16">
          <note pos="0" pan="0" len="36" key="42" vol="100"/>
          <note pos="36" pan="0" len="36" key="30" vol="100"/>
          <note pos="72" pan="0" len="36" key="37" vol="100"/>
          <note pos="108" pan="0" len="36" key="30" vol="100"/>
          <note pos="144" pan="0" len="36" key="42" vol="100"/>
          <note pos="180" pan="0" len="36" key="30" vol="100"/>
          <note pos="216" pan="0" len="36" key="37" vol="100"/>
          <note pos="252" pan="0" len="36" key="30" vol="100"/>
          <note pos="288" pan="0" len="36" key="37" vol="100"/>
          <note pos="324" pan="0" len="36" key="33" vol="100"/>
          <note pos="360" pan="0" len="24" key="42" vol="100"/>
        </midiclip>
        <midiclip pos="6144" type="1" muted="0" name="" steps="16">
          <note pos="0" pan="0" len="36" key="37" vol="100"/>
          <note pos="36" pan="0" len="36" key="32" vol="100"/>
          <note pos="72" pan="0" len="36" key="37" vol="100"/>
          <note pos="108" pan="0" len="36" key="32" vol="100"/>
          <note pos="144" pan="0" len="36" key="37" vol="100"/>
          <note pos="180" pan="0" len="36" key="32" vol="100"/>
          <note pos="216" pan="0" len="36" key="37" vol="100"/>
          <note pos="252" pan="0" len="36" key="29" vol="100"/>
          <note pos="288" pan="0" len="36" key="37" vol="100"/>
          <note pos="324" pan="0" len="36" key="32" vol="100"/>
          <note pos="360" pan="0" len="24" key="37" vol="100"/>
          <note pos="384" pan="0" len="192" key="25" vol="100"/>
        </midiclip>
        <midiclip pos="9792" type="1" muted="0" name="" steps="16">
          <note pos="0" pan="0" len="24" key="41" vol="100"/>
          <note pos="24" pan="0" len="24" key="41" vol="100"/>
          <note pos="48" pan="0" len="24" key="53" vol="100"/>
          <note pos="72" pan="0" len="12" key="41" vol="100"/>
          <note pos="84" pan="0" len="12" key="40" vol="100"/>
          <note pos="96" pan="0" len="24" key="39" vol="100"/>
          <note pos="120" pan="0" len="24" key="51" vol="100"/>
          <note pos="144" pan="0" len="24" key="39" vol="100"/>
          <note pos="168" pan="0" len="24" key="39" vol="100"/>
          <note pos="192" pan="0" len="24" key="46" vol="100"/>
          <note pos="216" pan="0" len="24" key="46" vol="100"/>
          <note pos="240" pan="0" len="24" key="46" vol="100"/>
          <note pos="264" pan="0" len="12" key="44" vol="100"/>
          <note pos="276" pan="0" len="12" key="43" vol="100"/>
          <note pos="288" pan="0" len="24" key="41" vol="100"/>
          <note pos="312" pan="0" len="24" key="41" vol="100"/>
          <note pos="336" pan="0" len="24" key="41" vol="100"/>
          <note pos="360" pan="0" len="24" key="43" vol="100"/>
          <note pos="384" pan="0" len="24" key="44" vol="100"/>
          <note pos="408" pan="0" len="24" key="56" vol="100"/>
          <note pos="432" pan="0" len="24" key="44" vol="100"/>
          <note pos="456" pan="0" len="12" key="43" vol="100"/>
          <note pos="468" pan="0" len="12" key="41" vol="100"/>
          <note pos="480" pan="0" len="24" key="39" vol="100"/>
          <note pos="504" pan="0" len="24" key="51" vol="100"/>
          <note pos="528" pan="0" len="24" key="39" vol="100"/>
          <note pos="552" pan="0" len="24" key="41" vol="100"/>
          <note pos="576" pan="0" len="24" key="46" vol="100"/>
          <note pos="600" pan="0" len="24" key="46" vol="100"/>
          <note pos="624" pan="0" len="24" key="46" vol="100"/>
          <note pos="648" pan="0" len="12" key="44" vol="100"/>
          <note pos="660" pan="0" len="12" key="43" vol="100"/>
          <note pos="672" pan="0" len="24" key="41" vol="100"/>
          <note pos="696" pan="0" len="24" key="41" vol="100"/>
          <note pos="720" pan="0" len="24" key="39" vol="100"/>
          <note pos="744" pan="0" len="24" key="44" vol="100"/>
        </midiclip>
        <midiclip pos="10560" type="1" muted="0" name="" steps="16">
          <note pos="0" pan="0" len="24" key="41" vol="100"/>
          <note pos="24" pan="0" len="24" key="41" vol="100"/>
          <note pos="48" pan="0" len="24" key="53" vol="100"/>
          <note pos="72" pan="0" len="12" key="41" vol="100"/>
          <note pos="84" pan="0" len="12" key="40" vol="100"/>
          <note pos="96" pan="0" len="24" key="39" vol="100"/>
          <note pos="120" pan="0" len="24" key="51" vol="100"/>
          <note pos="144" pan="0" len="24" key="39" vol="100"/>
          <note pos="168" pan="0" len="24" key="39" vol="100"/>
          <note pos="192" pan="0" len="24" key="46" vol="100"/>
          <note pos="216" pan="0" len="24" key="46" vol="100"/>
          <note pos="240" pan="0" len="24" key="46" vol="100"/>
          <note pos="264" pan="0" len="12" key="44" vol="100"/>
          <note pos="276" pan="0" len="12" key="43" vol="100"/>
          <note pos="288" pan="0" len="24" key="41" vol="100"/>
          <note pos="312" pan="0" len="24" key="41" vol="100"/>
          <note pos="336" pan="0" len="24" key="41" vol="100"/>
          <note pos="360" pan="0" len="24" key="43" vol="100"/>
          <note pos="384" pan="0" len="24" key="44" vol="100"/>
          <note pos="408" pan="0" len="24" key="56" vol="100"/>
          <note pos="432" pan="0" len="24" key="44" vol="100"/>
          <note pos="456" pan="0" len="12" key="43" vol="100"/>
          <note pos="468" pan="0" len="12" key="41" vol="100"/>
          <note pos="480" pan="0" len="24" key="39" vol="100"/>
          <note pos="504" pan="0" len="24" key="51" vol="100"/>
          <note pos="528" pan="0" len="24" key="39" vol="100"/>
          <note pos="552" pan="0" len="24" key="41" vol="100"/>
          <note pos="576" pan="0" len="24" key="46" vol="100"/>
          <note pos="600" pan="0" len="24" key="46" vol="100"/>
          <note pos="624" pan="0" len="24" key="46" vol="100"/>
          <note pos="648" pan="0" len="12" key="44" vol="100"/>
          <note pos="660" pan="0" len="12" key="43" vol="100"/>
          <note pos="672" pan="0" len="24" key="41" vol="100"/>
          <note pos="696" pan="0" len="24" key="41" vol="100"/>
          <note pos="720" pan="0" len="24" key="39" vol="100"/>
          <note pos="744" pan="0" len="24" key="44" vol="100"/>
        </midiclip>
      </track>
      <track type="0" mutedBeforeSolo="1" solo="0" muted="0" name="Bass>Acoustic">
        <instrumenttrack pan="0" basenote="69" enabled="0" enablecc="0" lastkey="127" scale="0" range_import="1" keymap="0" usemasterpitch="1" mixch="5" vol="100" pitchrange="12" firstkey="0">
          <pitch id="29480" value="0" scale_type="linear"/>
          <midicontrollers cc78="0" cc9="0" cc44="0" cc86="0" cc117="0" cc74="0" cc15="0" cc89="0" cc65="0" cc70="0" cc20="0" cc79="0" cc124="0" cc51="0" cc95="0" cc98="0" cc104="0" cc30="0" cc41="0" cc5="0" cc90="0" cc67="0" cc6="0" cc48="0" cc3="0" cc23="0" cc99="0" cc113="0" cc118="0" cc37="0" cc1="0" cc22="0" cc88="0" cc62="0" cc114="0" cc8="0" cc7="0" cc77="0" cc85="0" cc106="0" cc36="0" cc26="0" cc76="0" cc110="0" cc19="0" cc66="0" cc11="0" cc81="0" cc35="0" cc47="0" cc63="0" cc87="0" cc101="0" cc27="0" cc100="0" cc42="0" cc119="0" cc34="0" cc17="0" cc39="0" cc0="0" cc97="0" cc14="0" cc10="0" cc116="0" cc18="0" cc2="0" cc60="0" cc125="0" cc46="0" cc105="0" cc56="0" cc25="0" cc102="0" cc45="0" cc108="0" cc43="0" cc71="0" cc69="0" cc93="0" cc32="0" cc73="0" cc57="0" cc112="0" cc29="0" cc54="0" cc91="0" cc31="0" cc16="0" cc84="0" cc49="0" cc103="0" cc50="0" cc82="0" cc122="0" cc126="0" cc123="0" cc24="0" cc92="0" cc38="0" cc68="0" cc28="0" cc94="0" cc72="0" cc61="0" cc4="0" cc75="0" cc115="0" cc33="0" cc55="0" cc59="0" cc120="0" cc52="0" cc53="0" cc121="0" cc12="0" cc83="0" cc96="0" cc40="0" cc127="0" cc13="0" cc64="0" cc111="0" cc109="0" cc58="0" cc21="0" cc80="0" cc107="0"/>
          <instrument name="sf2player">
            <sf2player bank="0" src="usersoundfont:SGM-V2.01.sf2" chorusOn="0" chorusNum="3" chorusDepth="8" chorusSpeed="0.3" reverbOn="0" reverbRoomSize="0.2" chorusLevel="2" reverbLevel="0.9" patch="32" gain="0.98" reverbDamping="0" reverbWidth="0.5">
              <key/>
            </sf2player>
          </instrument>
          <eldata fres="0.5" fcut="14000" ftype="0" fwet="0">
            <elvol pdel="0" amt="0" rel="0.1" hold="0.5" latt="0" dec="0.5" lamt="0" lspd_syncmode="0" x100="0" lspd_numerator="4" sustain="0.5" lpdel="0" lspd_denominator="4" userwavefile="" lshp="0" att="0" lspd="0.1" ctlenvamt="0"/>
            <elcut pdel="0" amt="0" rel="0.1" hold="0.5" latt="0" dec="0.5" lamt="0" lspd_syncmode="0" x100="0" lspd_numerator="4" sustain="0.5" lpdel="0" lspd_denominator="4" userwavefile="" lshp="0" att="0" lspd="0.1" ctlenvamt="0"/>
            <elres pdel="0" amt="0" rel="0.1" hold="0.5" latt="0" dec="0.5" lamt="0" lspd_syncmode="0" x100="0" lspd_numerator="4" sustain="0.5" lpdel="0" lspd_denominator="4" userwavefile="" lshp="0" att="0" lspd="0.1" ctlenvamt="0"/>
          </eldata>
          <chordcreator chord="0" chord-enabled="0" chordrange="1"/>
          <arpeggiator arpcycle="0" arp-enabled="0" arpgate="100" arpdir="0" arprepeats="1" arptime_numerator="4" arptime_denominator="4" arpmode="0" arptime_syncmode="0" arprange="1" arptime="200" arpskip="0" arp="0" arpmiss="0"/>
          <midiport fixedinputvelocity="-1" inputcontroller="0" writable="0" fixedoutputvelocity="-1" fixedoutputnote="-1" basevelocity="63" inputchannel="0" outputchannel="1" outputprogram="1" readable="1" outputcontroller="0" inports=""/>
          <fxchain enabled="0" numofeffects="0"/>
        </instrumenttrack>
        <midiclip pos="3072" type="1" muted="0" name="" steps="16">
          <note pos="0" pan="0" len="48" key="32" vol="100"/>
          <note pos="48" pan="0" len="24" key="35" vol="100"/>
          <note pos="72" pan="0" len="48" key="37" vol="100"/>
          <note pos="120" pan="0" len="24" key="35" vol="100"/>
          <note pos="144" pan="0" len="24" key="39" vol="100"/>
          <note pos="168" pan="0" len="24" key="37" vol="100"/>
          <note pos="192" pan="0" len="24" key="35" vol="100"/>
          <note pos="216" pan="0" len="24" key="37" vol="100"/>
          <note pos="240" pan="0" len="48" key="32" vol="100"/>
          <note pos="288" pan="0" len="24" key="35" vol="100"/>
          <note pos="312" pan="0" len="48" key="37" vol="100"/>
          <note pos="360" pan="0" len="24" key="35" vol="100"/>
          <note pos="384" pan="0" len="24" key="39" vol="100"/>
          <note pos="408" pan="0" len="24" key="37" vol="100"/>
          <note pos="432" pan="0" len="24" key="35" vol="100"/>
          <note pos="456" pan="0" len="24" key="37" vol="100"/>
          <note pos="480" pan="0" len="48" key="35" vol="100"/>
          <note pos="528" pan="0" len="24" key="38" vol="100"/>
          <note pos="552" pan="0" len="48" key="40" vol="100"/>
          <note pos="600" pan="0" len="24" key="38" vol="100"/>
          <note pos="624" pan="0" len="24" key="41" vol="100"/>
          <note pos="648" pan="0" len="24" key="40" vol="100"/>
          <note pos="672" pan="0" len="24" key="38" vol="100"/>
          <note pos="696" pan="0" len="24" key="40" vol="100"/>
          <note pos="720" pan="0" len="48" key="35" vol="100"/>
          <note pos="768" pan="0" len="24" key="38" vol="100"/>
          <note pos="792" pan="0" len="48" key="40" vol="100"/>
          <note pos="840" pan="0" len="24" key="38" vol="100"/>
          <note pos="864" pan="0" len="24" key="41" vol="100"/>
          <note pos="888" pan="0" len="24" key="40" vol="100"/>
          <note pos="912" pan="0" len="24" key="38" vol="100"/>
          <note pos="936" pan="0" len="24" key="40" vol="100"/>
        </midiclip>
        <midiclip pos="4032" type="1" muted="0" name="" steps="16">
          <note pos="0" pan="0" len="48" key="32" vol="100"/>
          <note pos="48" pan="0" len="24" key="35" vol="100"/>
          <note pos="72" pan="0" len="48" key="37" vol="100"/>
          <note pos="120" pan="0" len="24" key="35" vol="100"/>
          <note pos="144" pan="0" len="24" key="39" vol="100"/>
          <note pos="168" pan="0" len="24" key="37" vol="100"/>
          <note pos="192" pan="0" len="24" key="35" vol="100"/>
          <note pos="216" pan="0" len="24" key="37" vol="100"/>
          <note pos="240" pan="0" len="48" key="32" vol="100"/>
          <note pos="288" pan="0" len="24" key="35" vol="100"/>
          <note pos="312" pan="0" len="48" key="37" vol="100"/>
          <note pos="360" pan="0" len="24" key="35" vol="100"/>
          <note pos="384" pan="0" len="24" key="39" vol="100"/>
          <note pos="408" pan="0" len="24" key="37" vol="100"/>
          <note pos="432" pan="0" len="24" key="35" vol="100"/>
          <note pos="456" pan="0" len="24" key="37" vol="100"/>
          <note pos="480" pan="0" len="48" key="35" vol="100"/>
          <note pos="528" pan="0" len="24" key="38" vol="100"/>
          <note pos="552" pan="0" len="48" key="40" vol="100"/>
          <note pos="600" pan="0" len="24" key="38" vol="100"/>
          <note pos="624" pan="0" len="24" key="41" vol="100"/>
          <note pos="648" pan="0" len="24" key="40" vol="100"/>
          <note pos="672" pan="0" len="24" key="38" vol="100"/>
          <note pos="696" pan="0" len="24" key="40" vol="100"/>
          <note pos="720" pan="0" len="48" key="35" vol="100"/>
          <note pos="768" pan="0" len="24" key="38" vol="100"/>
          <note pos="792" pan="0" len="48" key="40" vol="100"/>
          <note pos="840" pan="0" len="24" key="38" vol="100"/>
          <note pos="864" pan="0" len="24" key="41" vol="100"/>
          <note pos="888" pan="0" len="24" key="40" vol="100"/>
          <note pos="912" pan="0" len="24" key="38" vol="100"/>
          <note pos="936" pan="0" len="24" key="40" vol="100"/>
        </midiclip>
        <midiclip pos="6720" type="1" muted="0" name="" steps="16">
          <note pos="0" pan="0" len="144" key="33" vol="100"/>
          <note pos="144" pan="0" len="240" key="35" vol="100"/>
          <note pos="384" pan="0" len="144" key="42" vol="100"/>
          <note pos="528" pan="0" len="240" key="35" vol="100"/>
          <note pos="768" pan="0" len="144" key="33" vol="100"/>
          <note pos="912" pan="0" len="240" key="39" vol="100"/>
          <note pos="1152" pan="0" len="144" key="35" vol="100"/>
          <note pos="1296" pan="0" len="624" key="30" vol="100"/>
        </midiclip>
        <midiclip pos="6144" type="1" muted="0" name="" steps="16">
          <note pos="0" pan="0" len="36" key="37" vol="100"/>
          <note pos="36" pan="0" len="36" key="32" vol="100"/>
          <note pos="72" pan="0" len="36" key="37" vol="100"/>
          <note pos="108" pan="0" len="36" key="32" vol="100"/>
          <note pos="144" pan="0" len="36" key="37" vol="100"/>
          <note pos="180" pan="0" len="36" key="32" vol="100"/>
          <note pos="216" pan="0" len="36" key="37" vol="100"/>
          <note pos="252" pan="0" len="36" key="29" vol="100"/>
          <note pos="288" pan="0" len="36" key="37" vol="100"/>
          <note pos="324" pan="0" len="36" key="32" vol="100"/>
          <note pos="360" pan="0" len="24" key="37" vol="100"/>
          <note pos="384" pan="0" len="192" key="25" vol="100"/>
        </midiclip>
        <midiclip pos="960" type="1" muted="0" name="" steps="16">
          <note pos="0" pan="0" len="144" key="32" vol="100"/>
          <note pos="144" pan="0" len="12" key="32" vol="100"/>
          <note pos="168" pan="0" len="12" key="32" vol="100"/>
        </midiclip>
        <midiclip pos="0" type="1" muted="0" name="" steps="16">
          <note pos="0" pan="0" len="72" key="32" vol="100"/>
          <note pos="72" pan="0" len="72" key="35" vol="100"/>
          <note pos="144" pan="0" len="48" key="37" vol="100"/>
          <note pos="192" pan="0" len="36" key="42" vol="100"/>
          <note pos="240" pan="0" len="72" key="32" vol="100"/>
          <note pos="312" pan="0" len="72" key="35" vol="100"/>
          <note pos="384" pan="0" len="48" key="37" vol="100"/>
          <note pos="480" pan="0" len="72" key="33" vol="100"/>
          <note pos="552" pan="0" len="72" key="37" vol="100"/>
          <note pos="624" pan="0" len="48" key="38" vol="100"/>
          <note pos="672" pan="0" len="36" key="37" vol="100"/>
          <note pos="720" pan="0" len="72" key="33" vol="100"/>
          <note pos="792" pan="0" len="72" key="37" vol="100"/>
          <note pos="864" pan="0" len="48" key="38" vol="100"/>
        </midiclip>
        <midiclip pos="2688" type="1" muted="0" name="" steps="16">
          <note pos="0" pan="0" len="120" key="32" vol="100"/>
          <note pos="144" pan="0" len="12" key="32" vol="100"/>
          <note pos="168" pan="0" len="72" key="32" vol="100"/>
          <note pos="264" pan="0" len="24" key="32" vol="100"/>
          <note pos="312" pan="0" len="24" key="32" vol="100"/>
          <note pos="360" pan="0" len="12" key="32" vol="100"/>
        </midiclip>
        <midiclip pos="1152" type="1" muted="0" name="" steps="16">
          <note pos="0" pan="0" len="12" key="32" vol="100"/>
          <note pos="24" pan="0" len="12" key="32" vol="100"/>
          <note pos="48" pan="0" len="12" key="32" vol="100"/>
          <note pos="72" pan="0" len="12" key="32" vol="100"/>
          <note pos="96" pan="0" len="12" key="32" vol="100"/>
          <note pos="120" pan="0" len="12" key="32" vol="100"/>
          <note pos="144" pan="0" len="12" key="32" vol="100"/>
          <note pos="168" pan="0" len="12" key="37" vol="100"/>
          <note pos="192" pan="0" len="12" key="37" vol="100"/>
          <note pos="216" pan="0" len="12" key="37" vol="100"/>
          <note pos="240" pan="0" len="12" key="37" vol="100"/>
          <note pos="264" pan="0" len="12" key="37" vol="100"/>
          <note pos="288" pan="0" len="12" key="37" vol="100"/>
          <note pos="312" pan="0" len="12" key="37" vol="100"/>
          <note pos="336" pan="0" len="12" key="37" vol="100"/>
          <note pos="360" pan="0" len="12" key="32" vol="100"/>
          <note pos="384" pan="0" len="12" key="25" vol="100"/>
          <note pos="408" pan="0" len="12" key="25" vol="100"/>
          <note pos="432" pan="0" len="12" key="25" vol="100"/>
          <note pos="456" pan="0" len="12" key="25" vol="100"/>
          <note pos="480" pan="0" len="12" key="25" vol="100"/>
          <note pos="504" pan="0" len="12" key="23" vol="100"/>
          <note pos="528" pan="0" len="12" key="23" vol="100"/>
          <note pos="552" pan="0" len="12" key="27" vol="100"/>
          <note pos="576" pan="0" len="12" key="27" vol="100"/>
          <note pos="600" pan="0" len="12" key="27" vol="100"/>
          <note pos="624" pan="0" len="12" key="27" vol="100"/>
          <note pos="648" pan="0" len="12" key="27" vol="100"/>
          <note pos="672" pan="0" len="12" key="27" vol="100"/>
          <note pos="696" pan="0" len="12" key="29" vol="100"/>
          <note pos="720" pan="0" len="12" key="30" vol="100"/>
          <note pos="744" pan="0" len="12" key="32" vol="100"/>
          <note pos="768" pan="0" len="12" key="32" vol="100"/>
          <note pos="792" pan="0" len="12" key="32" vol="100"/>
          <note pos="816" pan="0" len="12" key="32" vol="100"/>
          <note pos="840" pan="0" len="12" key="32" vol="100"/>
          <note pos="864" pan="0" len="12" key="32" vol="100"/>
          <note pos="888" pan="0" len="12" key="32" vol="100"/>
          <note pos="912" pan="0" len="12" key="32" vol="100"/>
          <note pos="936" pan="0" len="12" key="37" vol="100"/>
          <note pos="960" pan="0" len="12" key="37" vol="100"/>
          <note pos="984" pan="0" len="12" key="37" vol="100"/>
          <note pos="1008" pan="0" len="12" key="37" vol="100"/>
          <note pos="1032" pan="0" len="12" key="37" vol="100"/>
          <note pos="1056" pan="0" len="12" key="37" vol="100"/>
          <note pos="1080" pan="0" len="12" key="37" vol="100"/>
          <note pos="1104" pan="0" len="12" key="37" vol="100"/>
          <note pos="1128" pan="0" len="12" key="32" vol="100"/>
          <note pos="1152" pan="0" len="12" key="25" vol="100"/>
          <note pos="1176" pan="0" len="12" key="25" vol="100"/>
          <note pos="1200" pan="0" len="12" key="25" vol="100"/>
          <note pos="1224" pan="0" len="12" key="25" vol="100"/>
          <note pos="1248" pan="0" len="12" key="25" vol="100"/>
          <note pos="1272" pan="0" len="12" key="23" vol="100"/>
          <note pos="1296" pan="0" len="12" key="23" vol="100"/>
          <note pos="1320" pan="0" len="12" key="27" vol="100"/>
          <note pos="1344" pan="0" len="12" key="27" vol="100"/>
          <note pos="1368" pan="0" len="12" key="27" vol="100"/>
          <note pos="1392" pan="0" len="36" key="27" vol="100"/>
          <note pos="1440" pan="0" len="36" key="34" vol="100"/>
          <note pos="1488" pan="0" len="36" key="37" vol="100"/>
        </midiclip>
        <midiclip pos="5760" type="1" muted="0" name="" steps="16">
          <note pos="0" pan="0" len="36" key="38" vol="100"/>
          <note pos="36" pan="0" len="36" key="33" vol="100"/>
          <note pos="72" pan="0" len="36" key="38" vol="100"/>
          <note pos="108" pan="0" len="36" key="30" vol="100"/>
          <note pos="144" pan="0" len="36" key="38" vol="100"/>
          <note pos="180" pan="0" len="36" key="33" vol="100"/>
          <note pos="216" pan="0" len="36" key="38" vol="100"/>
          <note pos="252" pan="0" len="36" key="26" vol="100"/>
          <note pos="288" pan="0" len="36" key="38" vol="100"/>
          <note pos="324" pan="0" len="36" key="33" vol="100"/>
          <note pos="360" pan="0" len="24" key="38" vol="100"/>
        </midiclip>
        <midiclip pos="5376" type="1" muted="0" name="" steps="16">
          <note pos="0" pan="0" len="36" key="40" vol="100"/>
          <note pos="36" pan="0" len="36" key="28" vol="100"/>
          <note pos="72" pan="0" len="36" key="35" vol="100"/>
          <note pos="108" pan="0" len="36" key="28" vol="100"/>
          <note pos="144" pan="0" len="36" key="40" vol="100"/>
          <note pos="180" pan="0" len="36" key="35" vol="100"/>
          <note pos="216" pan="0" len="36" key="28" vol="100"/>
          <note pos="252" pan="0" len="36" key="35" vol="100"/>
          <note pos="288" pan="0" len="36" key="40" vol="100"/>
          <note pos="324" pan="0" len="36" key="33" vol="100"/>
          <note pos="360" pan="0" len="24" key="40" vol="100"/>
        </midiclip>
        <midiclip pos="4992" type="1" muted="0" name="" steps="16">
          <note pos="0" pan="0" len="36" key="42" vol="100"/>
          <note pos="36" pan="0" len="36" key="30" vol="100"/>
          <note pos="72" pan="0" len="36" key="37" vol="100"/>
          <note pos="108" pan="0" len="36" key="30" vol="100"/>
          <note pos="144" pan="0" len="36" key="42" vol="100"/>
          <note pos="180" pan="0" len="36" key="30" vol="100"/>
          <note pos="216" pan="0" len="36" key="37" vol="100"/>
          <note pos="252" pan="0" len="36" key="30" vol="100"/>
          <note pos="288" pan="0" len="36" key="37" vol="100"/>
          <note pos="324" pan="0" len="36" key="33" vol="100"/>
          <note pos="360" pan="0" len="24" key="42" vol="100"/>
        </midiclip>
        <midiclip pos="9792" type="1" muted="0" name="" steps="16">
          <note pos="0" pan="0" len="24" key="41" vol="100"/>
          <note pos="24" pan="0" len="24" key="41" vol="100"/>
          <note pos="48" pan="0" len="24" key="53" vol="100"/>
          <note pos="72" pan="0" len="12" key="41" vol="100"/>
          <note pos="84" pan="0" len="12" key="40" vol="100"/>
          <note pos="96" pan="0" len="24" key="39" vol="100"/>
          <note pos="120" pan="0" len="24" key="51" vol="100"/>
          <note pos="144" pan="0" len="24" key="39" vol="100"/>
          <note pos="168" pan="0" len="24" key="39" vol="100"/>
          <note pos="192" pan="0" len="24" key="46" vol="100"/>
          <note pos="216" pan="0" len="24" key="46" vol="100"/>
          <note pos="240" pan="0" len="24" key="46" vol="100"/>
          <note pos="264" pan="0" len="12" key="44" vol="100"/>
          <note pos="276" pan="0" len="12" key="43" vol="100"/>
          <note pos="288" pan="0" len="24" key="41" vol="100"/>
          <note pos="312" pan="0" len="24" key="41" vol="100"/>
          <note pos="336" pan="0" len="24" key="41" vol="100"/>
          <note pos="360" pan="0" len="24" key="43" vol="100"/>
          <note pos="384" pan="0" len="24" key="44" vol="100"/>
          <note pos="408" pan="0" len="24" key="56" vol="100"/>
          <note pos="432" pan="0" len="24" key="44" vol="100"/>
          <note pos="456" pan="0" len="12" key="43" vol="100"/>
          <note pos="468" pan="0" len="12" key="41" vol="100"/>
          <note pos="480" pan="0" len="24" key="39" vol="100"/>
          <note pos="504" pan="0" len="24" key="51" vol="100"/>
          <note pos="528" pan="0" len="24" key="39" vol="100"/>
          <note pos="552" pan="0" len="24" key="41" vol="100"/>
          <note pos="576" pan="0" len="24" key="46" vol="100"/>
          <note pos="600" pan="0" len="24" key="46" vol="100"/>
          <note pos="624" pan="0" len="24" key="46" vol="100"/>
          <note pos="648" pan="0" len="12" key="44" vol="100"/>
          <note pos="660" pan="0" len="12" key="43" vol="100"/>
          <note pos="672" pan="0" len="24" key="41" vol="100"/>
          <note pos="696" pan="0" len="24" key="41" vol="100"/>
          <note pos="720" pan="0" len="24" key="39" vol="100"/>
          <note pos="744" pan="0" len="24" key="44" vol="100"/>
        </midiclip>
        <midiclip pos="10560" type="1" muted="0" name="" steps="16">
          <note pos="0" pan="0" len="24" key="41" vol="100"/>
          <note pos="24" pan="0" len="24" key="41" vol="100"/>
          <note pos="48" pan="0" len="24" key="53" vol="100"/>
          <note pos="72" pan="0" len="12" key="41" vol="100"/>
          <note pos="84" pan="0" len="12" key="40" vol="100"/>
          <note pos="96" pan="0" len="24" key="39" vol="100"/>
          <note pos="120" pan="0" len="24" key="51" vol="100"/>
          <note pos="144" pan="0" len="24" key="39" vol="100"/>
          <note pos="168" pan="0" len="24" key="39" vol="100"/>
          <note pos="192" pan="0" len="24" key="46" vol="100"/>
          <note pos="216" pan="0" len="24" key="46" vol="100"/>
          <note pos="240" pan="0" len="24" key="46" vol="100"/>
          <note pos="264" pan="0" len="12" key="44" vol="100"/>
          <note pos="276" pan="0" len="12" key="43" vol="100"/>
          <note pos="288" pan="0" len="24" key="41" vol="100"/>
          <note pos="312" pan="0" len="24" key="41" vol="100"/>
          <note pos="336" pan="0" len="24" key="41" vol="100"/>
          <note pos="360" pan="0" len="24" key="43" vol="100"/>
          <note pos="384" pan="0" len="24" key="44" vol="100"/>
          <note pos="408" pan="0" len="24" key="56" vol="100"/>
          <note pos="432" pan="0" len="24" key="44" vol="100"/>
          <note pos="456" pan="0" len="12" key="43" vol="100"/>
          <note pos="468" pan="0" len="12" key="41" vol="100"/>
          <note pos="480" pan="0" len="24" key="39" vol="100"/>
          <note pos="504" pan="0" len="24" key="51" vol="100"/>
          <note pos="528" pan="0" len="24" key="39" vol="100"/>
          <note pos="552" pan="0" len="24" key="41" vol="100"/>
          <note pos="576" pan="0" len="24" key="46" vol="100"/>
          <note pos="600" pan="0" len="24" key="46" vol="100"/>
          <note pos="624" pan="0" len="24" key="46" vol="100"/>
          <note pos="648" pan="0" len="12" key="44" vol="100"/>
          <note pos="660" pan="0" len="12" key="43" vol="100"/>
          <note pos="672" pan="0" len="24" key="41" vol="100"/>
          <note pos="696" pan="0" len="24" key="41" vol="100"/>
          <note pos="720" pan="0" len="24" key="39" vol="100"/>
          <note pos="744" pan="0" len="24" key="44" vol="100"/>
        </midiclip>
      </track>
      <track type="5" mutedBeforeSolo="0" solo="0" muted="0" name="Bass>Pitch">
        <automationtrack/>
        <automationclip pos="192" mute="0" prog="1" len="192" tens="1" name="Bass>Pitch">
          <time pos="0" value="0" outValue="0"/>
          <time pos="12" value="0" outValue="0"/>
          <time pos="36" value="-300" outValue="-300"/>
          <time pos="47" value="-300" outValue="-300"/>
          <time pos="48" value="0" outValue="0"/>
          <object id="20308"/>
          <object id="29480"/>
        </automationclip>
        <automationclip pos="576" mute="0" prog="1" len="192" tens="1" name="Bass>Pitch">
          <time pos="0" value="0" outValue="0"/>
          <time pos="96" value="0" outValue="0"/>
          <time pos="108" value="0" outValue="0"/>
          <time pos="132" value="-200" outValue="-200"/>
          <time pos="143" value="-200" outValue="-200"/>
          <time pos="144" value="0" outValue="0"/>
          <object id="20308"/>
          <object id="29480"/>
          <object id="20308"/>
          <object id="29480"/>
          <object id="20308"/>
          <object id="29480"/>
          <object id="20308"/>
          <object id="29480"/>
          <object id="20308"/>
          <object id="29480"/>
        </automationclip>
        <automationclip pos="0" mute="0" prog="0" len="192" tens="1" name="Bass>Pitch">
          <time pos="0" value="0" outValue="0"/>
          <object id="29480"/>
          <object id="20308"/>
        </automationclip>
      </track>
      <track type="0" mutedBeforeSolo="1" solo="0" muted="1" name="Piano">
        <instrumenttrack pan="0" basenote="69" enabled="0" enablecc="0" lastkey="127" scale="0" range_import="1" keymap="0" usemasterpitch="1" mixch="6" pitchrange="12" pitch="0" firstkey="0">
          <vol id="16429" value="100" scale_type="linear"/>
          <midicontrollers cc78="0" cc9="0" cc44="0" cc86="0" cc117="0" cc74="0" cc15="0" cc89="0" cc65="0" cc70="0" cc20="0" cc79="0" cc124="0" cc51="0" cc95="0" cc98="0" cc104="0" cc30="0" cc41="0" cc5="0" cc90="0" cc67="0" cc6="0" cc48="0" cc3="0" cc23="0" cc99="0" cc113="0" cc118="0" cc37="0" cc1="0" cc22="0" cc88="0" cc62="0" cc114="0" cc8="0" cc7="0" cc77="0" cc85="0" cc106="0" cc36="0" cc26="0" cc76="0" cc110="0" cc19="0" cc66="0" cc11="0" cc81="0" cc35="0" cc47="0" cc63="0" cc87="0" cc101="0" cc27="0" cc100="0" cc42="0" cc119="0" cc34="0" cc17="0" cc39="0" cc0="0" cc97="0" cc14="0" cc10="0" cc116="0" cc18="0" cc2="0" cc60="0" cc125="0" cc46="0" cc105="0" cc56="0" cc25="0" cc102="0" cc45="0" cc108="0" cc43="0" cc71="0" cc69="0" cc93="0" cc32="0" cc73="0" cc57="0" cc112="0" cc29="0" cc54="0" cc91="0" cc31="0" cc16="0" cc84="0" cc49="0" cc103="0" cc50="0" cc82="0" cc122="0" cc126="0" cc123="0" cc24="0" cc92="0" cc38="0" cc68="0" cc28="0" cc94="0" cc72="0" cc61="0" cc4="0" cc75="0" cc115="0" cc33="0" cc55="0" cc59="0" cc120="0" cc52="0" cc53="0" cc121="0" cc12="0" cc83="0" cc96="0" cc40="0" cc127="0" cc13="0" cc64="0" cc111="0" cc109="0" cc58="0" cc21="0" cc80="0" cc107="0"/>
          <instrument name="sf2player">
            <sf2player bank="0" src="usersoundfont:SGM-V2.01.sf2" chorusOn="0" chorusNum="3" chorusDepth="8" chorusSpeed="0.3" reverbOn="0" reverbRoomSize="0.2" chorusLevel="2" reverbLevel="0.9" patch="0" gain="0.9" reverbDamping="0" reverbWidth="0.5">
              <key/>
            </sf2player>
          </instrument>
          <eldata fres="0.5" fcut="14000" ftype="0" fwet="0">
            <elvol pdel="0" amt="0" rel="0.1" hold="0.5" latt="0" dec="0.5" lamt="0" lspd_syncmode="0" x100="0" lspd_numerator="4" sustain="0.5" lpdel="0" lspd_denominator="4" userwavefile="" lshp="0" att="0" lspd="0.1" ctlenvamt="0"/>
            <elcut pdel="0" amt="0" rel="0.1" hold="0.5" latt="0" dec="0.5" lamt="0" lspd_syncmode="0" x100="0" lspd_numerator="4" sustain="0.5" lpdel="0" lspd_denominator="4" userwavefile="" lshp="0" att="0" lspd="0.1" ctlenvamt="0"/>
            <elres pdel="0" amt="0" rel="0.1" hold="0.5" latt="0" dec="0.5" lamt="0" lspd_syncmode="0" x100="0" lspd_numerator="4" sustain="0.5" lpdel="0" lspd_denominator="4" userwavefile="" lshp="0" att="0" lspd="0.1" ctlenvamt="0"/>
          </eldata>
          <chordcreator chord="0" chord-enabled="0" chordrange="1"/>
          <arpeggiator arpcycle="0" arp-enabled="0" arpgate="100" arpdir="0" arprepeats="1" arptime_numerator="4" arptime_denominator="4" arpmode="0" arptime_syncmode="0" arprange="1" arptime="200" arpskip="0" arp="0" arpmiss="0"/>
          <midiport fixedinputvelocity="-1" inputcontroller="0" writable="0" fixedoutputvelocity="-1" fixedoutputnote="-1" basevelocity="127" inputchannel="0" outputchannel="1" outputprogram="1" readable="1" outputcontroller="0" inports=""/>
          <fxchain enabled="0" numofeffects="0"/>
        </instrumenttrack>
        <midiclip pos="4032" type="1" muted="0" name="" steps="16">
          <note pos="0" pan="0" len="18" key="75" vol="100"/>
          <note pos="0" pan="0" len="18" key="71" vol="100"/>
          <note pos="0" pan="0" len="18" key="68" vol="100"/>
          <note pos="24" pan="0" len="24" key="56" vol="100"/>
          <note pos="48" pan="0" len="24" key="51" vol="100"/>
          <note pos="72" pan="0" len="18" key="74" vol="100"/>
          <note pos="72" pan="0" len="18" key="70" vol="100"/>
          <note pos="72" pan="0" len="18" key="66" vol="100"/>
          <note pos="120" pan="0" len="24" key="54" vol="100"/>
          <note pos="144" pan="0" len="18" key="73" vol="100"/>
          <note pos="144" pan="0" len="18" key="68" vol="100"/>
          <note pos="144" pan="0" len="18" key="66" vol="100"/>
          <note pos="168" pan="0" len="24" key="56" vol="100"/>
          <note pos="192" pan="0" len="18" key="63" vol="100"/>
          <note pos="216" pan="0" len="18" key="66" vol="100"/>
          <note pos="240" pan="0" len="18" key="75" vol="100"/>
          <note pos="240" pan="0" len="18" key="71" vol="100"/>
          <note pos="240" pan="0" len="18" key="68" vol="100"/>
          <note pos="264" pan="0" len="24" key="56" vol="100"/>
          <note pos="288" pan="0" len="24" key="51" vol="100"/>
          <note pos="312" pan="0" len="18" key="74" vol="100"/>
          <note pos="312" pan="0" len="18" key="68" vol="100"/>
          <note pos="312" pan="0" len="18" key="66" vol="100"/>
          <note pos="360" pan="0" len="24" key="54" vol="100"/>
          <note pos="384" pan="0" len="18" key="73" vol="100"/>
          <note pos="384" pan="0" len="18" key="70" vol="100"/>
          <note pos="384" pan="0" len="18" key="68" vol="100"/>
          <note pos="408" pan="0" len="18" key="66" vol="100"/>
          <note pos="432" pan="0" len="18" key="63" vol="100"/>
          <note pos="456" pan="0" len="18" key="66" vol="100"/>
          <note pos="480" pan="0" len="18" key="74" vol="100"/>
          <note pos="480" pan="0" len="18" key="71" vol="100"/>
          <note pos="480" pan="0" len="18" key="69" vol="100"/>
          <note pos="504" pan="0" len="24" key="59" vol="100"/>
          <note pos="528" pan="0" len="24" key="54" vol="100"/>
          <note pos="552" pan="0" len="18" key="73" vol="100"/>
          <note pos="552" pan="0" len="18" key="71" vol="100"/>
          <note pos="552" pan="0" len="18" key="69" vol="100"/>
          <note pos="600" pan="0" len="24" key="57" vol="100"/>
          <note pos="624" pan="0" len="18" key="74" vol="100"/>
          <note pos="624" pan="0" len="18" key="71" vol="100"/>
          <note pos="624" pan="0" len="18" key="69" vol="100"/>
          <note pos="648" pan="0" len="24" key="54" vol="100"/>
          <note pos="672" pan="0" len="18" key="66" vol="100"/>
          <note pos="696" pan="0" len="18" key="68" vol="100"/>
          <note pos="720" pan="0" len="18" key="74" vol="100"/>
          <note pos="720" pan="0" len="18" key="71" vol="100"/>
          <note pos="720" pan="0" len="18" key="69" vol="100"/>
          <note pos="744" pan="0" len="24" key="59" vol="100"/>
          <note pos="768" pan="0" len="24" key="54" vol="100"/>
          <note pos="792" pan="0" len="18" key="73" vol="100"/>
          <note pos="792" pan="0" len="18" key="71" vol="100"/>
          <note pos="792" pan="0" len="18" key="69" vol="100"/>
          <note pos="840" pan="0" len="24" key="57" vol="100"/>
          <note pos="864" pan="0" len="18" key="74" vol="100"/>
          <note pos="864" pan="0" len="18" key="71" vol="100"/>
          <note pos="864" pan="0" len="18" key="69" vol="100"/>
          <note pos="888" pan="0" len="18" key="64" vol="100"/>
          <note pos="912" pan="0" len="18" key="66" vol="100"/>
          <note pos="936" pan="0" len="18" key="69" vol="100"/>
        </midiclip>
        <midiclip pos="4992" type="1" muted="0" name="" steps="16">
          <note pos="0" pan="0" len="48" key="78" vol="100"/>
          <note pos="0" pan="0" len="48" key="73" vol="100"/>
          <note pos="0" pan="0" len="48" key="69" vol="100"/>
          <note pos="72" pan="0" len="48" key="78" vol="100"/>
          <note pos="72" pan="0" len="48" key="73" vol="100"/>
          <note pos="72" pan="0" len="48" key="69" vol="100"/>
          <note pos="144" pan="0" len="48" key="78" vol="100"/>
          <note pos="144" pan="0" len="48" key="73" vol="100"/>
          <note pos="144" pan="0" len="48" key="69" vol="100"/>
        </midiclip>
        <midiclip pos="5184" type="1" muted="0" name="" steps="16">
          <note pos="0" pan="0" len="48" key="78" vol="100"/>
          <note pos="0" pan="0" len="48" key="73" vol="100"/>
          <note pos="0" pan="0" len="48" key="69" vol="100"/>
          <note pos="72" pan="0" len="48" key="78" vol="100"/>
          <note pos="72" pan="0" len="48" key="73" vol="100"/>
          <note pos="72" pan="0" len="48" key="69" vol="100"/>
          <note pos="144" pan="0" len="48" key="78" vol="100"/>
          <note pos="144" pan="0" len="48" key="73" vol="100"/>
          <note pos="144" pan="0" len="48" key="69" vol="100"/>
        </midiclip>
        <midiclip pos="5376" type="1" muted="0" name="" steps="16">
          <note pos="0" pan="0" len="48" key="78" vol="100"/>
          <note pos="0" pan="0" len="48" key="73" vol="100"/>
          <note pos="0" pan="0" len="48" key="69" vol="100"/>
          <note pos="72" pan="0" len="48" key="78" vol="100"/>
          <note pos="72" pan="0" len="48" key="73" vol="100"/>
          <note pos="72" pan="0" len="48" key="69" vol="100"/>
          <note pos="144" pan="0" len="48" key="78" vol="100"/>
          <note pos="144" pan="0" len="48" key="73" vol="100"/>
          <note pos="144" pan="0" len="48" key="69" vol="100"/>
        </midiclip>
        <midiclip pos="5568" type="1" muted="0" name="" steps="16">
          <note pos="0" pan="0" len="48" key="69" vol="100"/>
          <note pos="0" pan="0" len="48" key="66" vol="100"/>
          <note pos="0" pan="0" len="48" key="61" vol="100"/>
          <note pos="72" pan="0" len="48" key="73" vol="100"/>
          <note pos="72" pan="0" len="48" key="69" vol="100"/>
          <note pos="72" pan="0" len="48" key="66" vol="100"/>
          <note pos="144" pan="0" len="48" key="76" vol="100"/>
          <note pos="144" pan="0" len="48" key="73" vol="100"/>
          <note pos="144" pan="0" len="48" key="69" vol="100"/>
        </midiclip>
        <midiclip pos="5760" type="1" muted="0" name="" steps="16">
          <note pos="0" pan="0" len="48" key="74" vol="100"/>
          <note pos="0" pan="0" len="48" key="69" vol="100"/>
          <note pos="0" pan="0" len="48" key="66" vol="100"/>
          <note pos="72" pan="0" len="48" key="74" vol="100"/>
          <note pos="72" pan="0" len="48" key="69" vol="100"/>
          <note pos="72" pan="0" len="48" key="66" vol="100"/>
          <note pos="144" pan="0" len="48" key="74" vol="100"/>
          <note pos="144" pan="0" len="48" key="69" vol="100"/>
          <note pos="144" pan="0" len="48" key="66" vol="100"/>
        </midiclip>
        <midiclip pos="5952" type="1" muted="0" name="" steps="16">
          <note pos="0" pan="0" len="48" key="74" vol="100"/>
          <note pos="0" pan="0" len="48" key="69" vol="100"/>
          <note pos="0" pan="0" len="48" key="66" vol="100"/>
          <note pos="72" pan="0" len="48" key="74" vol="100"/>
          <note pos="72" pan="0" len="48" key="69" vol="100"/>
          <note pos="72" pan="0" len="48" key="66" vol="100"/>
          <note pos="144" pan="0" len="48" key="74" vol="100"/>
          <note pos="144" pan="0" len="48" key="69" vol="100"/>
          <note pos="144" pan="0" len="48" key="66" vol="100"/>
        </midiclip>
        <midiclip pos="6144" type="1" muted="0" name="" steps="16">
          <note pos="0" pan="0" len="48" key="74" vol="100"/>
          <note pos="0" pan="0" len="48" key="71" vol="100"/>
          <note pos="0" pan="0" len="48" key="68" vol="100"/>
          <note pos="72" pan="0" len="48" key="74" vol="100"/>
          <note pos="72" pan="0" len="48" key="71" vol="100"/>
          <note pos="72" pan="0" len="48" key="68" vol="100"/>
          <note pos="144" pan="0" len="48" key="74" vol="100"/>
          <note pos="144" pan="0" len="48" key="71" vol="100"/>
          <note pos="144" pan="0" len="48" key="68" vol="100"/>
        </midiclip>
        <midiclip pos="6336" type="1" muted="0" name="" steps="16">
          <note pos="0" pan="0" len="384" key="73" vol="100"/>
          <note pos="0" pan="0" len="384" key="68" vol="100"/>
          <note pos="0" pan="0" len="384" key="65" vol="100"/>
        </midiclip>
        <midiclip pos="6720" type="1" muted="0" name="" steps="16">
          <note pos="0" pan="0" len="144" key="59" vol="100"/>
          <note pos="0" pan="0" len="144" key="57" vol="100"/>
          <note pos="0" pan="0" len="144" key="52" vol="100"/>
          <note pos="144" pan="0" len="240" key="63" vol="100"/>
          <note pos="144" pan="0" len="240" key="59" vol="100"/>
          <note pos="144" pan="0" len="240" key="54" vol="100"/>
          <note pos="384" pan="0" len="144" key="61" vol="100"/>
          <note pos="384" pan="0" len="144" key="58" vol="100"/>
          <note pos="384" pan="0" len="144" key="54" vol="100"/>
          <note pos="528" pan="0" len="240" key="59" vol="100"/>
          <note pos="528" pan="0" len="240" key="57" vol="100"/>
          <note pos="528" pan="0" len="240" key="52" vol="100"/>
          <note pos="768" pan="0" len="144" key="57" vol="100"/>
          <note pos="768" pan="0" len="144" key="54" vol="100"/>
          <note pos="768" pan="0" len="144" key="52" vol="100"/>
          <note pos="912" pan="0" len="240" key="59" vol="100"/>
          <note pos="912" pan="0" len="240" key="54" vol="100"/>
          <note pos="912" pan="0" len="240" key="51" vol="100"/>
          <note pos="1152" pan="0" len="144" key="59" vol="100"/>
          <note pos="1152" pan="0" len="144" key="57" vol="100"/>
          <note pos="1152" pan="0" len="144" key="52" vol="100"/>
          <note pos="1296" pan="0" len="624" key="61" vol="100"/>
          <note pos="1296" pan="0" len="624" key="58" vol="100"/>
          <note pos="1296" pan="0" len="624" key="54" vol="100"/>
        </midiclip>
        <midiclip pos="0" type="1" muted="0" name="" steps="16">
          <note pos="0" pan="0" len="18" key="75" vol="100"/>
          <note pos="0" pan="0" len="18" key="71" vol="100"/>
          <note pos="0" pan="0" len="18" key="68" vol="100"/>
          <note pos="0" pan="0" len="24" key="32" vol="100"/>
          <note pos="24" pan="0" len="24" key="56" vol="100"/>
          <note pos="48" pan="0" len="24" key="51" vol="100"/>
          <note pos="72" pan="0" len="42" key="74" vol="100"/>
          <note pos="72" pan="0" len="42" key="70" vol="100"/>
          <note pos="72" pan="0" len="42" key="66" vol="100"/>
          <note pos="72" pan="0" len="36" key="35" vol="100"/>
          <note pos="120" pan="0" len="24" key="54" vol="100"/>
          <note pos="144" pan="0" len="18" key="73" vol="100"/>
          <note pos="144" pan="0" len="18" key="68" vol="100"/>
          <note pos="144" pan="0" len="18" key="66" vol="100"/>
          <note pos="144" pan="0" len="48" key="37" vol="100"/>
          <note pos="168" pan="0" len="24" key="56" vol="100"/>
          <note pos="192" pan="0" len="18" key="63" vol="100"/>
          <note pos="192" pan="0" len="24" key="39" vol="100"/>
          <note pos="216" pan="0" len="18" key="66" vol="100"/>
          <note pos="216" pan="0" len="24" key="42" vol="100"/>
          <note pos="240" pan="0" len="18" key="75" vol="100"/>
          <note pos="240" pan="0" len="18" key="71" vol="100"/>
          <note pos="240" pan="0" len="18" key="68" vol="100"/>
          <note pos="240" pan="0" len="24" key="32" vol="100"/>
          <note pos="264" pan="0" len="24" key="56" vol="100"/>
          <note pos="288" pan="0" len="24" key="51" vol="100"/>
          <note pos="312" pan="0" len="42" key="74" vol="100"/>
          <note pos="312" pan="0" len="42" key="68" vol="100"/>
          <note pos="312" pan="0" len="42" key="66" vol="100"/>
          <note pos="312" pan="0" len="36" key="35" vol="100"/>
          <note pos="360" pan="0" len="24" key="54" vol="100"/>
          <note pos="384" pan="0" len="18" key="73" vol="100"/>
          <note pos="384" pan="0" len="18" key="70" vol="100"/>
          <note pos="384" pan="0" len="18" key="68" vol="100"/>
          <note pos="384" pan="0" len="48" key="37" vol="100"/>
          <note pos="408" pan="0" len="18" key="66" vol="100"/>
          <note pos="432" pan="0" len="18" key="63" vol="100"/>
          <note pos="432" pan="0" len="24" key="42" vol="100"/>
          <note pos="456" pan="0" len="18" key="66" vol="100"/>
          <note pos="456" pan="0" len="24" key="45" vol="100"/>
          <note pos="480" pan="0" len="18" key="74" vol="100"/>
          <note pos="480" pan="0" len="18" key="71" vol="100"/>
          <note pos="480" pan="0" len="18" key="69" vol="100"/>
          <note pos="480" pan="0" len="24" key="38" vol="100"/>
          <note pos="504" pan="0" len="24" key="59" vol="100"/>
          <note pos="528" pan="0" len="24" key="54" vol="100"/>
          <note pos="552" pan="0" len="42" key="73" vol="100"/>
          <note pos="552" pan="0" len="42" key="71" vol="100"/>
          <note pos="552" pan="0" len="42" key="69" vol="100"/>
          <note pos="552" pan="0" len="36" key="37" vol="100"/>
          <note pos="600" pan="0" len="24" key="57" vol="100"/>
          <note pos="624" pan="0" len="18" key="74" vol="100"/>
          <note pos="624" pan="0" len="18" key="69" vol="100"/>
          <note pos="624" pan="0" len="18" key="66" vol="100"/>
          <note pos="624" pan="0" len="48" key="38" vol="100"/>
          <note pos="648" pan="0" len="24" key="54" vol="100"/>
          <note pos="672" pan="0" len="18" key="66" vol="100"/>
          <note pos="672" pan="0" len="24" key="42" vol="100"/>
          <note pos="696" pan="0" len="18" key="68" vol="100"/>
          <note pos="696" pan="0" len="24" key="44" vol="100"/>
          <note pos="720" pan="0" len="18" key="74" vol="100"/>
          <note pos="720" pan="0" len="18" key="71" vol="100"/>
          <note pos="720" pan="0" len="18" key="69" vol="100"/>
          <note pos="720" pan="0" len="24" key="38" vol="100"/>
          <note pos="744" pan="0" len="24" key="59" vol="100"/>
          <note pos="768" pan="0" len="24" key="54" vol="100"/>
          <note pos="792" pan="0" len="42" key="76" vol="100"/>
          <note pos="792" pan="0" len="42" key="73" vol="100"/>
          <note pos="792" pan="0" len="42" key="71" vol="100"/>
          <note pos="792" pan="0" len="36" key="37" vol="100"/>
          <note pos="840" pan="0" len="24" key="57" vol="100"/>
          <note pos="864" pan="0" len="18" key="78" vol="100"/>
          <note pos="864" pan="0" len="18" key="74" vol="100"/>
          <note pos="864" pan="0" len="18" key="71" vol="100"/>
          <note pos="864" pan="0" len="48" key="38" vol="100"/>
          <note pos="888" pan="0" len="18" key="64" vol="100"/>
          <note pos="912" pan="0" len="18" key="66" vol="100"/>
          <note pos="912" pan="0" len="24" key="42" vol="100"/>
          <note pos="936" pan="0" len="18" key="69" vol="100"/>
          <note pos="936" pan="0" len="24" key="45" vol="100"/>
        </midiclip>
        <midiclip pos="960" type="1" muted="0" name="" steps="16">
          <note pos="0" pan="0" len="144" key="71" vol="100"/>
          <note pos="0" pan="0" len="144" key="68" vol="100"/>
          <note pos="0" pan="0" len="144" key="66" vol="100"/>
          <note pos="0" pan="0" len="144" key="63" vol="100"/>
          <note pos="0" pan="0" len="144" key="32" vol="100"/>
        </midiclip>
        <midiclip pos="1152" type="1" muted="0" name="" steps="16">
          <note pos="0" pan="0" len="168" key="75" vol="100"/>
          <note pos="48" pan="0" len="24" key="83" vol="100"/>
          <note pos="72" pan="0" len="48" key="82" vol="100"/>
          <note pos="120" pan="0" len="48" key="80" vol="100"/>
          <note pos="168" pan="0" len="216" key="78" vol="100"/>
          <note pos="216" pan="0" len="48" key="80" vol="100"/>
          <note pos="264" pan="0" len="48" key="82" vol="100"/>
          <note pos="312" pan="0" len="72" key="83" vol="100"/>
          <note pos="384" pan="0" len="168" key="73" vol="100"/>
          <note pos="432" pan="0" len="24" key="77" vol="100"/>
          <note pos="456" pan="0" len="48" key="80" vol="100"/>
          <note pos="504" pan="0" len="48" key="83" vol="100"/>
          <note pos="552" pan="0" len="72" key="82" vol="100"/>
          <note pos="552" pan="0" len="192" key="75" vol="100"/>
          <note pos="624" pan="0" len="24" key="83" vol="100"/>
          <note pos="648" pan="0" len="48" key="82" vol="100"/>
          <note pos="696" pan="0" len="48" key="80" vol="100"/>
          <note pos="744" pan="0" len="192" key="75" vol="100"/>
          <note pos="816" pan="0" len="24" key="83" vol="100"/>
          <note pos="840" pan="0" len="48" key="82" vol="100"/>
          <note pos="888" pan="0" len="48" key="80" vol="100"/>
          <note pos="936" pan="0" len="216" key="78" vol="100"/>
          <note pos="984" pan="0" len="48" key="80" vol="100"/>
          <note pos="1032" pan="0" len="48" key="82" vol="100"/>
          <note pos="1080" pan="0" len="72" key="83" vol="100"/>
          <note pos="1152" pan="0" len="168" key="73" vol="100"/>
          <note pos="1200" pan="0" len="24" key="76" vol="100"/>
          <note pos="1224" pan="0" len="48" key="80" vol="100"/>
          <note pos="1272" pan="0" len="48" key="83" vol="100"/>
          <note pos="1320" pan="0" len="72" key="82" vol="100"/>
          <note pos="1320" pan="0" len="168" key="75" vol="100"/>
          <note pos="1392" pan="0" len="48" key="83" vol="100"/>
          <note pos="1440" pan="0" len="96" key="82" vol="100"/>
          <note pos="1488" pan="0" len="48" key="75" vol="100"/>
        </midiclip>
        <midiclip pos="2688" type="1" muted="0" name="" steps="16">
          <note pos="0" pan="0" len="384" key="68" vol="100"/>
          <note pos="144" pan="0" len="48" key="75" vol="100"/>
          <note pos="192" pan="0" len="96" key="78" vol="100"/>
          <note pos="288" pan="0" len="96" key="80" vol="100"/>
        </midiclip>
        <midiclip pos="9792" type="1" muted="0" name="" steps="16">
          <note pos="0" pan="0" len="36" key="72" vol="100"/>
          <note pos="0" pan="0" len="36" key="68" vol="100"/>
          <note pos="0" pan="0" len="36" key="65" vol="100"/>
          <note pos="0" pan="0" len="36" key="60" vol="100"/>
          <note pos="36" pan="0" len="12" key="75" vol="100"/>
          <note pos="36" pan="0" len="12" key="68" vol="100"/>
          <note pos="36" pan="0" len="12" key="65" vol="100"/>
          <note pos="36" pan="0" len="12" key="60" vol="100"/>
          <note pos="72" pan="0" len="24" key="70" vol="100"/>
          <note pos="96" pan="0" len="12" key="72" vol="100"/>
          <note pos="96" pan="0" len="12" key="67" vol="100"/>
          <note pos="96" pan="0" len="12" key="63" vol="100"/>
          <note pos="96" pan="0" len="12" key="58" vol="100"/>
          <note pos="120" pan="0" len="12" key="67" vol="100"/>
          <note pos="120" pan="0" len="12" key="63" vol="100"/>
          <note pos="120" pan="0" len="12" key="58" vol="100"/>
          <note pos="144" pan="0" len="12" key="67" vol="100"/>
          <note pos="144" pan="0" len="12" key="63" vol="100"/>
          <note pos="144" pan="0" len="12" key="58" vol="100"/>
          <note pos="168" pan="0" len="12" key="67" vol="100"/>
          <note pos="168" pan="0" len="12" key="63" vol="100"/>
          <note pos="168" pan="0" len="12" key="58" vol="100"/>
          <note pos="192" pan="0" len="36" key="68" vol="100"/>
          <note pos="192" pan="0" len="36" key="65" vol="100"/>
          <note pos="192" pan="0" len="36" key="61" vol="100"/>
          <note pos="192" pan="0" len="36" key="58" vol="100"/>
          <note pos="228" pan="0" len="12" key="70" vol="100"/>
          <note pos="228" pan="0" len="12" key="68" vol="100"/>
          <note pos="228" pan="0" len="12" key="65" vol="100"/>
          <note pos="228" pan="0" len="12" key="61" vol="100"/>
          <note pos="264" pan="0" len="24" key="75" vol="100"/>
          <note pos="288" pan="0" len="24" key="72" vol="100"/>
          <note pos="288" pan="0" len="24" key="68" vol="100"/>
          <note pos="288" pan="0" len="24" key="65" vol="100"/>
          <note pos="288" pan="0" len="24" key="60" vol="100"/>
          <note pos="312" pan="0" len="12" key="68" vol="100"/>
          <note pos="312" pan="0" len="12" key="65" vol="100"/>
          <note pos="312" pan="0" len="12" key="60" vol="100"/>
          <note pos="336" pan="0" len="24" key="65" vol="100"/>
          <note pos="336" pan="0" len="24" key="63" vol="100"/>
          <note pos="336" pan="0" len="24" key="60" vol="100"/>
          <note pos="336" pan="0" len="24" key="56" vol="100"/>
          <note pos="360" pan="0" len="12" key="67" vol="100"/>
          <note pos="360" pan="0" len="12" key="65" vol="100"/>
          <note pos="360" pan="0" len="12" key="60" vol="100"/>
          <note pos="384" pan="0" len="36" key="72" vol="100"/>
          <note pos="384" pan="0" len="36" key="68" vol="100"/>
          <note pos="384" pan="0" len="36" key="65" vol="100"/>
          <note pos="384" pan="0" len="36" key="60" vol="100"/>
          <note pos="420" pan="0" len="12" key="75" vol="100"/>
          <note pos="420" pan="0" len="12" key="68" vol="100"/>
          <note pos="420" pan="0" len="12" key="65" vol="100"/>
          <note pos="420" pan="0" len="12" key="60" vol="100"/>
          <note pos="456" pan="0" len="24" key="70" vol="100"/>
          <note pos="480" pan="0" len="12" key="72" vol="100"/>
          <note pos="480" pan="0" len="12" key="67" vol="100"/>
          <note pos="480" pan="0" len="12" key="63" vol="100"/>
          <note pos="480" pan="0" len="12" key="58" vol="100"/>
          <note pos="504" pan="0" len="12" key="67" vol="100"/>
          <note pos="504" pan="0" len="12" key="63" vol="100"/>
          <note pos="504" pan="0" len="12" key="58" vol="100"/>
          <note pos="528" pan="0" len="24" key="72" vol="100"/>
          <note pos="528" pan="0" len="24" key="67" vol="100"/>
          <note pos="528" pan="0" len="24" key="63" vol="100"/>
          <note pos="528" pan="0" len="24" key="58" vol="100"/>
          <note pos="552" pan="0" len="12" key="75" vol="100"/>
          <note pos="552" pan="0" len="12" key="70" vol="100"/>
          <note pos="552" pan="0" len="12" key="67" vol="100"/>
          <note pos="552" pan="0" len="12" key="63" vol="100"/>
          <note pos="576" pan="0" len="36" key="79" vol="100"/>
          <note pos="576" pan="0" len="36" key="73" vol="100"/>
          <note pos="576" pan="0" len="36" key="68" vol="100"/>
          <note pos="576" pan="0" len="36" key="65" vol="100"/>
          <note pos="612" pan="0" len="12" key="80" vol="100"/>
          <note pos="612" pan="0" len="12" key="73" vol="100"/>
          <note pos="612" pan="0" len="12" key="68" vol="100"/>
          <note pos="612" pan="0" len="12" key="65" vol="100"/>
          <note pos="648" pan="0" len="24" key="77" vol="100"/>
          <note pos="672" pan="0" len="72" key="72" vol="100"/>
          <note pos="672" pan="0" len="72" key="68" vol="100"/>
          <note pos="672" pan="0" len="72" key="65" vol="100"/>
          <note pos="672" pan="0" len="72" key="60" vol="100"/>
          <note pos="744" pan="0" len="24" key="65" vol="100"/>
          <note pos="744" pan="0" len="24" key="60" vol="100"/>
          <note pos="744" pan="0" len="24" key="56" vol="100"/>
        </midiclip>
      </track>
      <track type="5" mutedBeforeSolo="0" solo="0" muted="0" name="Piano>Volume">
        <automationtrack/>
        <automationclip pos="0" mute="0" prog="0" len="192" tens="1" name="Piano>Volume">
          <time pos="0" value="100" outValue="100"/>
          <object id="16429"/>
        </automationclip>
        <automationclip pos="4032" mute="0" prog="0" len="192" tens="1" name="Piano>Volume">
          <time pos="0" value="100" outValue="100"/>
          <object id="16429"/>
        </automationclip>
        <automationclip pos="1152" mute="0" prog="0" len="192" tens="1" name="Piano>Volume">
          <time pos="0" value="75" outValue="75"/>
          <object id="16429"/>
        </automationclip>
        <automationclip pos="2688" mute="0" prog="1" len="384" tens="1" name="Piano>Volume">
          <time pos="0" value="75" outValue="75"/>
          <time pos="384" value="0" outValue="0"/>
          <object id="16429"/>
        </automationclip>
      </track>
      <track type="0" mutedBeforeSolo="1" solo="0" muted="1" name="Guitar">
        <instrumenttrack pan="0" basenote="69" enabled="0" enablecc="0" lastkey="127" scale="0" range_import="1" keymap="0" usemasterpitch="1" mixch="7" pitchrange="12" pitch="0" firstkey="0">
          <vol id="5908" value="33" scale_type="linear"/>
          <midicontrollers cc78="0" cc9="0" cc44="0" cc86="0" cc117="0" cc74="0" cc15="0" cc89="0" cc65="0" cc70="0" cc20="0" cc79="0" cc124="0" cc51="0" cc95="0" cc98="0" cc104="0" cc30="0" cc41="0" cc5="0" cc90="0" cc67="0" cc6="0" cc48="0" cc3="0" cc23="0" cc99="0" cc113="0" cc118="0" cc37="0" cc1="0" cc22="0" cc88="0" cc62="0" cc114="0" cc8="0" cc7="0" cc77="0" cc85="0" cc106="0" cc36="0" cc26="0" cc76="0" cc110="0" cc19="0" cc66="0" cc11="0" cc81="0" cc35="0" cc47="0" cc63="0" cc87="0" cc101="0" cc27="0" cc100="0" cc42="0" cc119="0" cc34="0" cc17="0" cc39="0" cc0="0" cc97="0" cc14="0" cc10="0" cc116="0" cc18="0" cc2="0" cc60="0" cc125="0" cc46="0" cc105="0" cc56="0" cc25="0" cc102="0" cc45="0" cc108="0" cc43="0" cc71="0" cc69="0" cc93="0" cc32="0" cc73="0" cc57="0" cc112="0" cc29="0" cc54="0" cc91="0" cc31="0" cc16="0" cc84="0" cc49="0" cc103="0" cc50="0" cc82="0" cc122="0" cc126="0" cc123="0" cc24="0" cc92="0" cc38="0" cc68="0" cc28="0" cc94="0" cc72="0" cc61="0" cc4="0" cc75="0" cc115="0" cc33="0" cc55="0" cc59="0" cc120="0" cc52="0" cc53="0" cc121="0" cc12="0" cc83="0" cc96="0" cc40="0" cc127="0" cc13="0" cc64="0" cc111="0" cc109="0" cc58="0" cc21="0" cc80="0" cc107="0"/>
          <instrument name="sf2player">
            <sf2player bank="0" src="usersoundfont:Touhou.sf2" chorusOn="0" chorusNum="3" chorusDepth="8" chorusSpeed="0.3" reverbOn="0" reverbRoomSize="0.2" chorusLevel="2" reverbLevel="0.9" patch="24" gain="1.68" reverbDamping="0" reverbWidth="0.5">
              <key/>
            </sf2player>
          </instrument>
          <eldata fres="0.5" fcut="14000" ftype="0" fwet="0">
            <elvol pdel="0" amt="0" rel="0.1" hold="0.5" latt="0" dec="0.5" lamt="0" lspd_syncmode="0" x100="0" lspd_numerator="4" sustain="0.5" lpdel="0" lspd_denominator="4" userwavefile="" lshp="0" att="0" lspd="0.1" ctlenvamt="0"/>
            <elcut pdel="0" amt="0" rel="0.1" hold="0.5" latt="0" dec="0.5" lamt="0" lspd_syncmode="0" x100="0" lspd_numerator="4" sustain="0.5" lpdel="0" lspd_denominator="4" userwavefile="" lshp="0" att="0" lspd="0.1" ctlenvamt="0"/>
            <elres pdel="0" amt="0" rel="0.1" hold="0.5" latt="0" dec="0.5" lamt="0" lspd_syncmode="0" x100="0" lspd_numerator="4" sustain="0.5" lpdel="0" lspd_denominator="4" userwavefile="" lshp="0" att="0" lspd="0.1" ctlenvamt="0"/>
          </eldata>
          <chordcreator chord="0" chord-enabled="0" chordrange="1"/>
          <arpeggiator arpcycle="0" arp-enabled="0" arpgate="100" arpdir="0" arprepeats="1" arptime_numerator="4" arptime_denominator="4" arpmode="0" arptime_syncmode="0" arprange="1" arptime="200" arpskip="0" arp="0" arpmiss="0"/>
          <midiport fixedinputvelocity="-1" inputcontroller="0" writable="0" fixedoutputvelocity="-1" fixedoutputnote="-1" basevelocity="63" inputchannel="0" outputchannel="1" outputprogram="1" readable="1" outputcontroller="0" inports=""/>
          <fxchain enabled="0" numofeffects="0"/>
        </instrumenttrack>
        <midiclip pos="960" type="1" muted="0" name="" steps="16">
          <note pos="183" pan="0" len="153" key="56" vol="100"/>
          <note pos="186" pan="0" len="150" key="59" vol="100"/>
          <note pos="189" pan="0" len="147" key="63" vol="100"/>
          <note pos="192" pan="0" len="144" key="66" vol="100"/>
          <note pos="195" pan="0" len="141" key="68" vol="100"/>
          <note pos="198" pan="0" len="138" key="71" vol="100"/>
          <note pos="351" pan="0" len="201" key="58" vol="100"/>
          <note pos="354" pan="0" len="198" key="61" vol="100"/>
          <note pos="357" pan="0" len="195" key="66" vol="100"/>
          <note pos="360" pan="0" len="192" key="68" vol="100"/>
          <note pos="363" pan="0" len="189" key="70" vol="100"/>
          <note pos="366" pan="0" len="186" key="73" vol="100"/>
          <note pos="567" pan="0" len="153" key="49" vol="100"/>
          <note pos="570" pan="0" len="150" key="53" vol="100"/>
          <note pos="573" pan="0" len="147" key="56" vol="100"/>
          <note pos="576" pan="0" len="144" key="61" vol="100"/>
          <note pos="579" pan="0" len="141" key="65" vol="100"/>
          <note pos="582" pan="0" len="138" key="68" vol="100"/>
          <note pos="735" pan="0" len="177" key="55" vol="100"/>
          <note pos="738" pan="0" len="174" key="58" vol="100"/>
          <note pos="741" pan="0" len="171" key="61" vol="100"/>
          <note pos="744" pan="0" len="168" key="63" vol="100"/>
          <note pos="747" pan="0" len="165" key="67" vol="100"/>
          <note pos="750" pan="0" len="162" key="70" vol="100"/>
          <note pos="927" pan="0" len="177" key="56" vol="100"/>
          <note pos="930" pan="0" len="174" key="61" vol="100"/>
          <note pos="933" pan="0" len="171" key="63" vol="100"/>
          <note pos="936" pan="0" len="168" key="66" vol="100"/>
          <note pos="939" pan="0" len="165" key="68" vol="100"/>
          <note pos="942" pan="0" len="162" key="71" vol="100"/>
          <note pos="1119" pan="0" len="201" key="58" vol="100"/>
          <note pos="1122" pan="0" len="198" key="61" vol="100"/>
          <note pos="1125" pan="0" len="195" key="66" vol="100"/>
          <note pos="1128" pan="0" len="192" key="68" vol="100"/>
          <note pos="1131" pan="0" len="189" key="70" vol="100"/>
          <note pos="1134" pan="0" len="186" key="73" vol="100"/>
          <note pos="1335" pan="0" len="153" key="49" vol="100"/>
          <note pos="1338" pan="0" len="150" key="52" vol="100"/>
          <note pos="1341" pan="0" len="147" key="56" vol="100"/>
          <note pos="1344" pan="0" len="144" key="61" vol="100"/>
          <note pos="1347" pan="0" len="141" key="64" vol="100"/>
          <note pos="1350" pan="0" len="138" key="68" vol="100"/>
          <note pos="1503" pan="0" len="213" key="55" vol="100"/>
          <note pos="1506" pan="0" len="210" key="58" vol="100"/>
          <note pos="1509" pan="0" len="207" key="61" vol="100"/>
          <note pos="1512" pan="0" len="204" key="63" vol="100"/>
          <note pos="1515" pan="0" len="201" key="67" vol="100"/>
          <note pos="1518" pan="0" len="198" key="70" vol="100"/>
        </midiclip>
        <midiclip pos="4992" type="1" muted="0" name="" steps="16">
          <note pos="0" pan="0" len="12" key="66" vol="100"/>
          <note pos="12" pan="0" len="12" key="73" vol="100"/>
          <note pos="24" pan="0" len="12" key="78" vol="100"/>
          <note pos="36" pan="0" len="12" key="73" vol="100"/>
          <note pos="48" pan="0" len="12" key="76" vol="100"/>
          <note pos="60" pan="0" len="12" key="78" vol="100"/>
          <note pos="72" pan="0" len="12" key="81" vol="100"/>
          <note pos="84" pan="0" len="12" key="78" vol="100"/>
          <note pos="96" pan="0" len="12" key="73" vol="100"/>
          <note pos="108" pan="0" len="12" key="66" vol="100"/>
          <note pos="120" pan="0" len="12" key="73" vol="100"/>
          <note pos="132" pan="0" len="12" key="78" vol="100"/>
          <note pos="144" pan="0" len="12" key="81" vol="100"/>
          <note pos="156" pan="0" len="12" key="78" vol="100"/>
          <note pos="168" pan="0" len="12" key="81" vol="100"/>
          <note pos="180" pan="0" len="12" key="85" vol="100"/>
          <note pos="192" pan="0" len="12" key="83" vol="100"/>
          <note pos="204" pan="0" len="12" key="81" vol="100"/>
          <note pos="216" pan="0" len="12" key="80" vol="100"/>
          <note pos="228" pan="0" len="12" key="76" vol="100"/>
          <note pos="240" pan="0" len="12" key="81" vol="100"/>
          <note pos="252" pan="0" len="12" key="80" vol="100"/>
          <note pos="264" pan="0" len="12" key="76" vol="100"/>
          <note pos="276" pan="0" len="12" key="71" vol="100"/>
          <note pos="288" pan="0" len="12" key="68" vol="100"/>
          <note pos="300" pan="0" len="12" key="76" vol="100"/>
          <note pos="312" pan="0" len="12" key="71" vol="100"/>
          <note pos="324" pan="0" len="12" key="68" vol="100"/>
          <note pos="336" pan="0" len="12" key="76" vol="100"/>
          <note pos="348" pan="0" len="12" key="83" vol="100"/>
          <note pos="360" pan="0" len="12" key="80" vol="100"/>
          <note pos="372" pan="0" len="12" key="76" vol="100"/>
          <note pos="384" pan="0" len="12" key="81" vol="100"/>
          <note pos="396" pan="0" len="12" key="80" vol="100"/>
          <note pos="408" pan="0" len="12" key="76" vol="100"/>
          <note pos="420" pan="0" len="12" key="71" vol="100"/>
          <note pos="432" pan="0" len="12" key="76" vol="100"/>
          <note pos="444" pan="0" len="12" key="71" vol="100"/>
          <note pos="456" pan="0" len="12" key="68" vol="100"/>
          <note pos="468" pan="0" len="12" key="71" vol="100"/>
          <note pos="480" pan="0" len="12" key="76" vol="100"/>
          <note pos="492" pan="0" len="12" key="71" vol="100"/>
          <note pos="504" pan="0" len="12" key="68" vol="100"/>
          <note pos="516" pan="0" len="12" key="71" vol="100"/>
          <note pos="528" pan="0" len="12" key="76" vol="100"/>
          <note pos="540" pan="0" len="12" key="71" vol="100"/>
          <note pos="552" pan="0" len="12" key="80" vol="100"/>
          <note pos="564" pan="0" len="12" key="83" vol="100"/>
          <note pos="576" pan="0" len="12" key="64" vol="100"/>
          <note pos="588" pan="0" len="12" key="68" vol="100"/>
          <note pos="600" pan="0" len="12" key="71" vol="100"/>
          <note pos="612" pan="0" len="12" key="68" vol="100"/>
          <note pos="624" pan="0" len="12" key="71" vol="100"/>
          <note pos="636" pan="0" len="12" key="76" vol="100"/>
          <note pos="648" pan="0" len="12" key="71" vol="100"/>
          <note pos="660" pan="0" len="12" key="76" vol="100"/>
          <note pos="672" pan="0" len="12" key="80" vol="100"/>
          <note pos="684" pan="0" len="12" key="76" vol="100"/>
          <note pos="696" pan="0" len="12" key="80" vol="100"/>
          <note pos="708" pan="0" len="12" key="83" vol="100"/>
          <note pos="720" pan="0" len="12" key="81" vol="100"/>
          <note pos="732" pan="0" len="12" key="80" vol="100"/>
          <note pos="744" pan="0" len="12" key="76" vol="100"/>
          <note pos="756" pan="0" len="12" key="73" vol="100"/>
          <note pos="768" pan="0" len="12" key="74" vol="100"/>
          <note pos="780" pan="0" len="12" key="78" vol="100"/>
          <note pos="792" pan="0" len="12" key="81" vol="100"/>
          <note pos="804" pan="0" len="12" key="85" vol="100"/>
          <note pos="816" pan="0" len="12" key="86" vol="100"/>
          <note pos="828" pan="0" len="12" key="85" vol="100"/>
          <note pos="840" pan="0" len="12" key="81" vol="100"/>
          <note pos="852" pan="0" len="12" key="74" vol="100"/>
          <note pos="864" pan="0" len="12" key="78" vol="100"/>
          <note pos="876" pan="0" len="12" key="74" vol="100"/>
          <note pos="888" pan="0" len="12" key="78" vol="100"/>
          <note pos="900" pan="0" len="12" key="81" vol="100"/>
          <note pos="912" pan="0" len="12" key="78" vol="100"/>
          <note pos="924" pan="0" len="12" key="69" vol="100"/>
          <note pos="936" pan="0" len="12" key="74" vol="100"/>
          <note pos="948" pan="0" len="12" key="69" vol="100"/>
          <note pos="960" pan="0" len="12" key="66" vol="100"/>
          <note pos="972" pan="0" len="12" key="69" vol="100"/>
          <note pos="984" pan="0" len="12" key="74" vol="100"/>
          <note pos="996" pan="0" len="12" key="69" vol="100"/>
          <note pos="1008" pan="0" len="12" key="74" vol="100"/>
          <note pos="1020" pan="0" len="12" key="69" vol="100"/>
          <note pos="1032" pan="0" len="12" key="66" vol="100"/>
          <note pos="1044" pan="0" len="12" key="62" vol="100"/>
          <note pos="1056" pan="0" len="12" key="66" vol="100"/>
          <note pos="1068" pan="0" len="12" key="62" vol="100"/>
          <note pos="1080" pan="0" len="12" key="66" vol="100"/>
          <note pos="1092" pan="0" len="12" key="73" vol="100"/>
          <note pos="1104" pan="0" len="12" key="71" vol="100"/>
          <note pos="1116" pan="0" len="12" key="69" vol="100"/>
          <note pos="1128" pan="0" len="12" key="68" vol="100"/>
          <note pos="1140" pan="0" len="12" key="64" vol="100"/>
          <note pos="1152" pan="0" len="12" key="68" vol="100"/>
          <note pos="1164" pan="0" len="12" key="66" vol="100"/>
          <note pos="1176" pan="0" len="12" key="65" vol="100"/>
          <note pos="1188" pan="0" len="12" key="68" vol="100"/>
          <note pos="1200" pan="0" len="12" key="71" vol="100"/>
          <note pos="1212" pan="0" len="12" key="69" vol="100"/>
          <note pos="1224" pan="0" len="12" key="68" vol="100"/>
          <note pos="1236" pan="0" len="12" key="73" vol="100"/>
          <note pos="1248" pan="0" len="12" key="76" vol="100"/>
          <note pos="1260" pan="0" len="12" key="74" vol="100"/>
          <note pos="1272" pan="0" len="12" key="73" vol="100"/>
          <note pos="1284" pan="0" len="12" key="68" vol="100"/>
          <note pos="1296" pan="0" len="12" key="64" vol="100"/>
          <note pos="1308" pan="0" len="12" key="62" vol="100"/>
          <note pos="1320" pan="0" len="12" key="61" vol="100"/>
          <note pos="1332" pan="0" len="12" key="59" vol="100"/>
          <note pos="1344" pan="0" len="12" key="65" vol="100"/>
          <note pos="1356" pan="0" len="12" key="68" vol="100"/>
          <note pos="1368" pan="0" len="12" key="73" vol="100"/>
          <note pos="1380" pan="0" len="12" key="77" vol="100"/>
          <note pos="1392" pan="0" len="12" key="80" vol="100"/>
          <note pos="1404" pan="0" len="12" key="73" vol="100"/>
          <note pos="1416" pan="0" len="12" key="77" vol="100"/>
          <note pos="1428" pan="0" len="12" key="80" vol="100"/>
          <note pos="1440" pan="0" len="12" key="73" vol="100"/>
          <note pos="1452" pan="0" len="12" key="77" vol="100"/>
          <note pos="1464" pan="0" len="12" key="80" vol="100"/>
          <note pos="1476" pan="0" len="12" key="83" vol="100"/>
          <note pos="1488" pan="0" len="12" key="81" vol="100"/>
          <note pos="1500" pan="0" len="12" key="80" vol="100"/>
          <note pos="1512" pan="0" len="12" key="78" vol="100"/>
          <note pos="1524" pan="0" len="12" key="76" vol="100"/>
        </midiclip>
        <midiclip pos="6528" type="1" muted="0" name="" steps="16">
          <note pos="0" pan="0" len="12" key="80" vol="100"/>
          <note pos="12" pan="0" len="12" key="78" vol="100"/>
          <note pos="24" pan="0" len="12" key="77" vol="100"/>
          <note pos="36" pan="0" len="12" key="73" vol="100"/>
          <note pos="48" pan="0" len="12" key="80" vol="100"/>
          <note pos="60" pan="0" len="12" key="78" vol="100"/>
          <note pos="72" pan="0" len="12" key="77" vol="100"/>
          <note pos="84" pan="0" len="12" key="73" vol="100"/>
          <note pos="96" pan="0" len="12" key="80" vol="100"/>
          <note pos="108" pan="0" len="12" key="78" vol="100"/>
          <note pos="120" pan="0" len="12" key="77" vol="100"/>
          <note pos="132" pan="0" len="12" key="73" vol="100"/>
          <note pos="144" pan="0" len="12" key="80" vol="100"/>
          <note pos="156" pan="0" len="12" key="78" vol="100"/>
          <note pos="168" pan="0" len="12" key="77" vol="100"/>
          <note pos="180" pan="0" len="12" key="73" vol="100"/>
        </midiclip>
        <midiclip pos="2688" type="1" muted="0" name="" steps="16">
          <note pos="0" pan="0" len="360" key="56" vol="100"/>
          <note pos="24" pan="0" len="312" key="59" vol="100"/>
          <note pos="48" pan="0" len="264" key="63" vol="100"/>
          <note pos="72" pan="0" len="216" key="66" vol="100"/>
          <note pos="96" pan="0" len="168" key="68" vol="100"/>
          <note pos="120" pan="0" len="408" key="70" vol="100"/>
          <note pos="144" pan="0" len="96" key="71" vol="100"/>
          <note pos="168" pan="0" len="48" key="75" vol="100"/>
          <note pos="192" pan="0" len="336" key="78" vol="100"/>
          <note pos="216" pan="0" len="312" key="75" vol="100"/>
          <note pos="240" pan="0" len="288" key="71" vol="100"/>
          <note pos="264" pan="0" len="264" key="68" vol="100"/>
          <note pos="288" pan="0" len="240" key="66" vol="100"/>
          <note pos="312" pan="0" len="216" key="63" vol="100"/>
          <note pos="336" pan="0" len="192" key="59" vol="100"/>
          <note pos="360" pan="0" len="168" key="56" vol="100"/>
        </midiclip>
        <midiclip pos="9792" type="1" muted="0" name="" steps="16">
          <note pos="0" pan="0" len="36" key="72" vol="100"/>
          <note pos="0" pan="0" len="36" key="68" vol="100"/>
          <note pos="0" pan="0" len="36" key="65" vol="100"/>
          <note pos="0" pan="0" len="36" key="60" vol="100"/>
          <note pos="36" pan="0" len="12" key="75" vol="100"/>
          <note pos="36" pan="0" len="12" key="68" vol="100"/>
          <note pos="36" pan="0" len="12" key="65" vol="100"/>
          <note pos="36" pan="0" len="12" key="60" vol="100"/>
          <note pos="72" pan="0" len="24" key="70" vol="100"/>
          <note pos="96" pan="0" len="12" key="72" vol="100"/>
          <note pos="96" pan="0" len="12" key="67" vol="100"/>
          <note pos="96" pan="0" len="12" key="63" vol="100"/>
          <note pos="96" pan="0" len="12" key="58" vol="100"/>
          <note pos="120" pan="0" len="12" key="67" vol="100"/>
          <note pos="120" pan="0" len="12" key="63" vol="100"/>
          <note pos="120" pan="0" len="12" key="58" vol="100"/>
          <note pos="144" pan="0" len="12" key="67" vol="100"/>
          <note pos="144" pan="0" len="12" key="63" vol="100"/>
          <note pos="144" pan="0" len="12" key="58" vol="100"/>
          <note pos="168" pan="0" len="12" key="67" vol="100"/>
          <note pos="168" pan="0" len="12" key="63" vol="100"/>
          <note pos="168" pan="0" len="12" key="58" vol="100"/>
          <note pos="192" pan="0" len="36" key="68" vol="100"/>
          <note pos="192" pan="0" len="36" key="65" vol="100"/>
          <note pos="192" pan="0" len="36" key="61" vol="100"/>
          <note pos="192" pan="0" len="36" key="58" vol="100"/>
          <note pos="228" pan="0" len="12" key="70" vol="100"/>
          <note pos="228" pan="0" len="12" key="68" vol="100"/>
          <note pos="228" pan="0" len="12" key="65" vol="100"/>
          <note pos="228" pan="0" len="12" key="61" vol="100"/>
          <note pos="264" pan="0" len="24" key="75" vol="100"/>
          <note pos="288" pan="0" len="24" key="72" vol="100"/>
          <note pos="288" pan="0" len="24" key="68" vol="100"/>
          <note pos="288" pan="0" len="24" key="65" vol="100"/>
          <note pos="288" pan="0" len="24" key="60" vol="100"/>
          <note pos="312" pan="0" len="12" key="68" vol="100"/>
          <note pos="312" pan="0" len="12" key="65" vol="100"/>
          <note pos="312" pan="0" len="12" key="60" vol="100"/>
          <note pos="336" pan="0" len="24" key="65" vol="100"/>
          <note pos="336" pan="0" len="24" key="63" vol="100"/>
          <note pos="336" pan="0" len="24" key="60" vol="100"/>
          <note pos="336" pan="0" len="24" key="56" vol="100"/>
          <note pos="360" pan="0" len="12" key="67" vol="100"/>
          <note pos="360" pan="0" len="12" key="65" vol="100"/>
          <note pos="360" pan="0" len="12" key="60" vol="100"/>
          <note pos="384" pan="0" len="36" key="72" vol="100"/>
          <note pos="384" pan="0" len="36" key="68" vol="100"/>
          <note pos="384" pan="0" len="36" key="65" vol="100"/>
          <note pos="384" pan="0" len="36" key="60" vol="100"/>
          <note pos="420" pan="0" len="12" key="75" vol="100"/>
          <note pos="420" pan="0" len="12" key="68" vol="100"/>
          <note pos="420" pan="0" len="12" key="65" vol="100"/>
          <note pos="420" pan="0" len="12" key="60" vol="100"/>
          <note pos="456" pan="0" len="24" key="70" vol="100"/>
          <note pos="480" pan="0" len="12" key="72" vol="100"/>
          <note pos="480" pan="0" len="12" key="67" vol="100"/>
          <note pos="480" pan="0" len="12" key="63" vol="100"/>
          <note pos="480" pan="0" len="12" key="58" vol="100"/>
          <note pos="504" pan="0" len="12" key="67" vol="100"/>
          <note pos="504" pan="0" len="12" key="63" vol="100"/>
          <note pos="504" pan="0" len="12" key="58" vol="100"/>
          <note pos="528" pan="0" len="24" key="72" vol="100"/>
          <note pos="528" pan="0" len="24" key="67" vol="100"/>
          <note pos="528" pan="0" len="24" key="63" vol="100"/>
          <note pos="528" pan="0" len="24" key="58" vol="100"/>
          <note pos="552" pan="0" len="12" key="75" vol="100"/>
          <note pos="552" pan="0" len="12" key="70" vol="100"/>
          <note pos="552" pan="0" len="12" key="67" vol="100"/>
          <note pos="552" pan="0" len="12" key="63" vol="100"/>
          <note pos="576" pan="0" len="36" key="79" vol="100"/>
          <note pos="576" pan="0" len="36" key="73" vol="100"/>
          <note pos="576" pan="0" len="36" key="68" vol="100"/>
          <note pos="576" pan="0" len="36" key="65" vol="100"/>
          <note pos="612" pan="0" len="12" key="80" vol="100"/>
          <note pos="612" pan="0" len="12" key="73" vol="100"/>
          <note pos="612" pan="0" len="12" key="68" vol="100"/>
          <note pos="612" pan="0" len="12" key="65" vol="100"/>
          <note pos="648" pan="0" len="24" key="77" vol="100"/>
          <note pos="672" pan="0" len="72" key="72" vol="100"/>
          <note pos="672" pan="0" len="72" key="68" vol="100"/>
          <note pos="672" pan="0" len="72" key="65" vol="100"/>
          <note pos="672" pan="0" len="72" key="60" vol="100"/>
          <note pos="744" pan="0" len="24" key="65" vol="100"/>
          <note pos="744" pan="0" len="24" key="60" vol="100"/>
          <note pos="744" pan="0" len="24" key="56" vol="100"/>
        </midiclip>
      </track>
      <track type="5" mutedBeforeSolo="0" solo="0" muted="0" name="Guitar>Volume">
        <automationtrack/>
        <automationclip pos="960" mute="0" prog="0" len="192" tens="1" name="Guitar>Volume">
          <time pos="0" value="65" outValue="65"/>
          <object id="5908"/>
        </automationclip>
        <automationclip pos="6528" mute="0" prog="1" len="192" tens="1" name="Guitar>Volume">
          <time pos="0" value="100" outValue="100"/>
          <time pos="192" value="33" outValue="33"/>
          <object id="5908"/>
        </automationclip>
        <automationclip pos="4992" mute="0" prog="0" len="192" tens="1" name="Guitar>Volume">
          <time pos="0" value="100" outValue="100"/>
          <object id="5908"/>
        </automationclip>
      </track>
      <track type="0" mutedBeforeSolo="1" solo="0" muted="0" name="Drums>Power">
        <instrumenttrack pan="0" basenote="69" enabled="0" enablecc="0" lastkey="127" scale="0" range_import="1" keymap="0" usemasterpitch="0" mixch="4" vol="100" pitchrange="12" pitch="0" firstkey="0">
          <midicontrollers cc78="0" cc9="0" cc44="0" cc86="0" cc117="0" cc74="0" cc15="0" cc89="0" cc65="0" cc70="0" cc20="0" cc79="0" cc124="0" cc51="0" cc95="0" cc98="0" cc104="0" cc30="0" cc41="0" cc5="0" cc90="0" cc67="0" cc6="0" cc48="0" cc3="0" cc23="0" cc99="0" cc113="0" cc118="0" cc37="0" cc1="0" cc22="0" cc88="0" cc62="0" cc114="0" cc8="0" cc7="0" cc77="0" cc85="0" cc106="0" cc36="0" cc26="0" cc76="0" cc110="0" cc19="0" cc66="0" cc11="0" cc81="0" cc35="0" cc47="0" cc63="0" cc87="0" cc101="0" cc27="0" cc100="0" cc42="0" cc119="0" cc34="0" cc17="0" cc39="0" cc0="0" cc97="0" cc14="0" cc10="0" cc116="0" cc18="0" cc2="0" cc60="0" cc125="0" cc46="0" cc105="0" cc56="0" cc25="0" cc102="0" cc45="0" cc108="0" cc43="0" cc71="0" cc69="0" cc93="0" cc32="0" cc73="0" cc57="0" cc112="0" cc29="0" cc54="0" cc91="0" cc31="0" cc16="0" cc84="0" cc49="0" cc103="0" cc50="0" cc82="0" cc122="0" cc126="0" cc123="0" cc24="0" cc92="0" cc38="0" cc68="0" cc28="0" cc94="0" cc72="0" cc61="0" cc4="0" cc75="0" cc115="0" cc33="0" cc55="0" cc59="0" cc120="0" cc52="0" cc53="0" cc121="0" cc12="0" cc83="0" cc96="0" cc40="0" cc127="0" cc13="0" cc64="0" cc111="0" cc109="0" cc58="0" cc21="0" cc80="0" cc107="0"/>
          <instrument name="sf2player">
            <sf2player bank="128" src="usersoundfont:Touhou.sf2" chorusOn="0" chorusNum="3" chorusDepth="8" chorusSpeed="0.3" reverbOn="0" reverbRoomSize="0.2" chorusLevel="2" reverbLevel="0.9" patch="32" gain="0.34" reverbDamping="0" reverbWidth="0.5">
              <key/>
            </sf2player>
          </instrument>
          <eldata fres="0.5" fcut="14000" ftype="0" fwet="0">
            <elvol pdel="0" amt="0" rel="0.1" hold="0.5" latt="0" dec="0.5" lamt="0" lspd_syncmode="0" x100="0" lspd_numerator="4" sustain="0.5" lpdel="0" lspd_denominator="4" userwavefile="" lshp="0" att="0" lspd="0.1" ctlenvamt="0"/>
            <elcut pdel="0" amt="0" rel="0.1" hold="0.5" latt="0" dec="0.5" lamt="0" lspd_syncmode="0" x100="0" lspd_numerator="4" sustain="0.5" lpdel="0" lspd_denominator="4" userwavefile="" lshp="0" att="0" lspd="0.1" ctlenvamt="0"/>
            <elres pdel="0" amt="0" rel="0.1" hold="0.5" latt="0" dec="0.5" lamt="0" lspd_syncmode="0" x100="0" lspd_numerator="4" sustain="0.5" lpdel="0" lspd_denominator="4" userwavefile="" lshp="0" att="0" lspd="0.1" ctlenvamt="0"/>
          </eldata>
          <chordcreator chord="0" chord-enabled="0" chordrange="1"/>
          <arpeggiator arpcycle="0" arp-enabled="0" arpgate="100" arpdir="0" arprepeats="1" arptime_numerator="4" arptime_denominator="4" arpmode="0" arptime_syncmode="0" arprange="1" arptime="200" arpskip="0" arp="0" arpmiss="0"/>
          <midiport fixedinputvelocity="-1" inputcontroller="0" writable="0" fixedoutputvelocity="-1" fixedoutputnote="-1" basevelocity="63" inputchannel="0" outputchannel="1" outputprogram="1" readable="1" outputcontroller="0" inports=""/>
          <fxchain enabled="0" numofeffects="0"/>
        </instrumenttrack>
        <midiclip pos="1152" type="1" muted="0" name="" steps="16">
          <note pos="0" pan="0" len="12" key="36" vol="100"/>
          <note pos="24" pan="0" len="12" key="42" vol="100"/>
          <note pos="48" pan="0" len="12" key="40" vol="100"/>
          <note pos="48" pan="0" len="12" key="36" vol="100"/>
          <note pos="72" pan="0" len="12" key="42" vol="100"/>
          <note pos="96" pan="0" len="12" key="36" vol="100"/>
          <note pos="120" pan="0" len="12" key="42" vol="100"/>
          <note pos="144" pan="0" len="12" key="40" vol="100"/>
          <note pos="144" pan="0" len="12" key="36" vol="100"/>
          <note pos="168" pan="0" len="12" key="42" vol="100"/>
        </midiclip>
        <midiclip pos="1536" type="1" muted="0" name="" steps="16">
          <note pos="0" pan="0" len="12" key="36" vol="100"/>
          <note pos="24" pan="0" len="12" key="42" vol="100"/>
          <note pos="48" pan="0" len="12" key="40" vol="100"/>
          <note pos="48" pan="0" len="12" key="36" vol="100"/>
          <note pos="72" pan="0" len="12" key="42" vol="100"/>
          <note pos="96" pan="0" len="12" key="36" vol="100"/>
          <note pos="120" pan="0" len="12" key="42" vol="100"/>
          <note pos="144" pan="0" len="12" key="40" vol="100"/>
          <note pos="144" pan="0" len="12" key="36" vol="100"/>
          <note pos="168" pan="0" len="12" key="42" vol="100"/>
        </midiclip>
        <midiclip pos="1728" type="1" muted="0" name="" steps="16">
          <note pos="0" pan="0" len="12" key="36" vol="100"/>
          <note pos="24" pan="0" len="12" key="42" vol="100"/>
          <note pos="48" pan="0" len="12" key="40" vol="100"/>
          <note pos="48" pan="0" len="12" key="36" vol="100"/>
          <note pos="72" pan="0" len="12" key="42" vol="100"/>
          <note pos="96" pan="0" len="12" key="36" vol="100"/>
          <note pos="120" pan="0" len="12" key="47" vol="100"/>
          <note pos="120" pan="0" len="12" key="42" vol="100"/>
          <note pos="132" pan="0" len="12" key="45" vol="100"/>
          <note pos="144" pan="0" len="12" key="43" vol="100"/>
          <note pos="144" pan="0" len="12" key="40" vol="100"/>
          <note pos="144" pan="0" len="12" key="36" vol="100"/>
          <note pos="168" pan="0" len="12" key="42" vol="100"/>
          <note pos="168" pan="0" len="12" key="41" vol="100"/>
        </midiclip>
        <midiclip pos="1920" type="1" muted="0" name="" steps="16">
          <note pos="0" pan="0" len="12" key="36" vol="100"/>
          <note pos="24" pan="0" len="12" key="42" vol="100"/>
          <note pos="48" pan="0" len="12" key="40" vol="100"/>
          <note pos="48" pan="0" len="12" key="36" vol="100"/>
          <note pos="72" pan="0" len="12" key="42" vol="100"/>
          <note pos="96" pan="0" len="12" key="36" vol="100"/>
          <note pos="120" pan="0" len="12" key="42" vol="100"/>
          <note pos="144" pan="0" len="12" key="40" vol="100"/>
          <note pos="144" pan="0" len="12" key="36" vol="100"/>
          <note pos="168" pan="0" len="12" key="42" vol="100"/>
        </midiclip>
        <midiclip pos="2304" type="1" muted="0" name="" steps="16">
          <note pos="0" pan="0" len="12" key="36" vol="100"/>
          <note pos="24" pan="0" len="12" key="42" vol="100"/>
          <note pos="48" pan="0" len="12" key="40" vol="100"/>
          <note pos="48" pan="0" len="12" key="36" vol="100"/>
          <note pos="72" pan="0" len="12" key="42" vol="100"/>
          <note pos="96" pan="0" len="12" key="36" vol="100"/>
          <note pos="120" pan="0" len="12" key="42" vol="100"/>
          <note pos="144" pan="0" len="12" key="40" vol="100"/>
          <note pos="144" pan="0" len="12" key="36" vol="100"/>
          <note pos="168" pan="0" len="12" key="42" vol="100"/>
        </midiclip>
        <midiclip pos="2496" type="1" muted="0" name="" steps="16">
          <note pos="0" pan="0" len="12" key="36" vol="100"/>
          <note pos="24" pan="0" len="12" key="42" vol="100"/>
          <note pos="36" pan="0" len="12" key="44" vol="100"/>
          <note pos="48" pan="0" len="12" key="46" vol="100"/>
          <note pos="48" pan="0" len="12" key="40" vol="100"/>
          <note pos="48" pan="0" len="12" key="36" vol="100"/>
          <note pos="72" pan="0" len="12" key="42" vol="100"/>
          <note pos="96" pan="0" len="12" key="36" vol="100"/>
          <note pos="120" pan="0" len="12" key="46" vol="100"/>
          <note pos="120" pan="0" len="12" key="42" vol="100"/>
          <note pos="144" pan="0" len="12" key="40" vol="100"/>
          <note pos="144" pan="0" len="12" key="36" vol="100"/>
          <note pos="168" pan="0" len="12" key="46" vol="100"/>
          <note pos="168" pan="0" len="12" key="42" vol="100"/>
        </midiclip>
        <midiclip pos="3072" type="1" muted="0" name="" steps="16">
          <note pos="0" pan="0" len="12" key="36" vol="100"/>
          <note pos="24" pan="0" len="12" key="42" vol="100"/>
          <note pos="48" pan="0" len="12" key="42" vol="100"/>
          <note pos="72" pan="0" len="12" key="36" vol="100"/>
          <note pos="96" pan="0" len="12" key="42" vol="100"/>
          <note pos="120" pan="0" len="12" key="42" vol="100"/>
          <note pos="132" pan="0" len="12" key="42" vol="100"/>
          <note pos="144" pan="0" len="12" key="36" vol="100"/>
          <note pos="168" pan="0" len="12" key="42" vol="100"/>
          <note pos="192" pan="0" len="12" key="40" vol="100"/>
          <note pos="192" pan="0" len="12" key="36" vol="100"/>
          <note pos="216" pan="0" len="12" key="42" vol="100"/>
          <note pos="240" pan="0" len="12" key="36" vol="100"/>
          <note pos="264" pan="0" len="12" key="42" vol="100"/>
          <note pos="288" pan="0" len="12" key="42" vol="100"/>
          <note pos="312" pan="0" len="12" key="36" vol="100"/>
          <note pos="336" pan="0" len="12" key="42" vol="100"/>
          <note pos="360" pan="0" len="12" key="42" vol="100"/>
          <note pos="384" pan="0" len="12" key="46" vol="100"/>
          <note pos="384" pan="0" len="12" key="36" vol="100"/>
          <note pos="408" pan="0" len="12" key="42" vol="100"/>
          <note pos="432" pan="0" len="12" key="40" vol="100"/>
          <note pos="432" pan="0" len="12" key="36" vol="100"/>
          <note pos="456" pan="0" len="12" key="42" vol="100"/>
          <note pos="480" pan="0" len="12" key="36" vol="100"/>
          <note pos="504" pan="0" len="12" key="42" vol="100"/>
          <note pos="528" pan="0" len="12" key="42" vol="100"/>
          <note pos="552" pan="0" len="12" key="36" vol="100"/>
          <note pos="576" pan="0" len="12" key="42" vol="100"/>
          <note pos="600" pan="0" len="12" key="42" vol="100"/>
          <note pos="612" pan="0" len="12" key="42" vol="100"/>
          <note pos="624" pan="0" len="12" key="36" vol="100"/>
          <note pos="648" pan="0" len="12" key="42" vol="100"/>
          <note pos="672" pan="0" len="12" key="40" vol="100"/>
          <note pos="672" pan="0" len="12" key="36" vol="100"/>
          <note pos="696" pan="0" len="12" key="42" vol="100"/>
          <note pos="720" pan="0" len="12" key="36" vol="100"/>
          <note pos="744" pan="0" len="12" key="42" vol="100"/>
          <note pos="768" pan="0" len="12" key="42" vol="100"/>
          <note pos="792" pan="0" len="12" key="36" vol="100"/>
          <note pos="816" pan="0" len="12" key="42" vol="100"/>
          <note pos="840" pan="0" len="12" key="42" vol="100"/>
          <note pos="864" pan="0" len="12" key="46" vol="100"/>
          <note pos="864" pan="0" len="12" key="36" vol="100"/>
          <note pos="888" pan="0" len="12" key="42" vol="100"/>
          <note pos="912" pan="0" len="12" key="40" vol="100"/>
          <note pos="912" pan="0" len="12" key="36" vol="100"/>
          <note pos="936" pan="0" len="12" key="42" vol="100"/>
        </midiclip>
        <midiclip pos="4032" type="1" muted="0" name="" steps="16">
          <note pos="0" pan="0" len="12" key="36" vol="100"/>
          <note pos="24" pan="0" len="12" key="42" vol="100"/>
          <note pos="48" pan="0" len="12" key="42" vol="100"/>
          <note pos="72" pan="0" len="12" key="36" vol="100"/>
          <note pos="96" pan="0" len="12" key="42" vol="100"/>
          <note pos="120" pan="0" len="12" key="42" vol="100"/>
          <note pos="132" pan="0" len="12" key="42" vol="100"/>
          <note pos="144" pan="0" len="12" key="36" vol="100"/>
          <note pos="168" pan="0" len="12" key="42" vol="100"/>
          <note pos="192" pan="0" len="12" key="40" vol="100"/>
          <note pos="192" pan="0" len="12" key="36" vol="100"/>
          <note pos="216" pan="0" len="12" key="42" vol="100"/>
          <note pos="240" pan="0" len="12" key="36" vol="100"/>
          <note pos="264" pan="0" len="12" key="42" vol="100"/>
          <note pos="288" pan="0" len="12" key="42" vol="100"/>
          <note pos="312" pan="0" len="12" key="36" vol="100"/>
          <note pos="336" pan="0" len="12" key="42" vol="100"/>
          <note pos="360" pan="0" len="12" key="42" vol="100"/>
          <note pos="384" pan="0" len="12" key="46" vol="100"/>
          <note pos="384" pan="0" len="12" key="36" vol="100"/>
          <note pos="408" pan="0" len="12" key="42" vol="100"/>
          <note pos="432" pan="0" len="12" key="40" vol="100"/>
          <note pos="432" pan="0" len="12" key="36" vol="100"/>
          <note pos="456" pan="0" len="12" key="42" vol="100"/>
          <note pos="480" pan="0" len="12" key="36" vol="100"/>
          <note pos="504" pan="0" len="12" key="42" vol="100"/>
          <note pos="528" pan="0" len="12" key="42" vol="100"/>
          <note pos="552" pan="0" len="12" key="36" vol="100"/>
          <note pos="576" pan="0" len="12" key="42" vol="100"/>
          <note pos="600" pan="0" len="12" key="42" vol="100"/>
          <note pos="612" pan="0" len="12" key="42" vol="100"/>
          <note pos="624" pan="0" len="12" key="36" vol="100"/>
          <note pos="648" pan="0" len="12" key="42" vol="100"/>
          <note pos="672" pan="0" len="12" key="40" vol="100"/>
          <note pos="672" pan="0" len="12" key="36" vol="100"/>
          <note pos="696" pan="0" len="12" key="42" vol="100"/>
          <note pos="720" pan="0" len="12" key="36" vol="100"/>
          <note pos="744" pan="0" len="12" key="42" vol="100"/>
          <note pos="768" pan="0" len="12" key="42" vol="100"/>
          <note pos="792" pan="0" len="12" key="36" vol="100"/>
          <note pos="816" pan="0" len="12" key="42" vol="100"/>
          <note pos="840" pan="0" len="12" key="42" vol="100"/>
          <note pos="864" pan="0" len="12" key="46" vol="100"/>
          <note pos="864" pan="0" len="12" key="36" vol="100"/>
          <note pos="888" pan="0" len="12" key="42" vol="100"/>
          <note pos="912" pan="0" len="12" key="40" vol="100"/>
          <note pos="912" pan="0" len="12" key="36" vol="100"/>
          <note pos="936" pan="0" len="12" key="42" vol="100"/>
        </midiclip>
        <midiclip pos="4992" type="1" muted="0" name="" steps="16">
          <note pos="0" pan="0" len="12" key="36" vol="100"/>
          <note pos="24" pan="0" len="12" key="36" vol="100"/>
          <note pos="48" pan="0" len="12" key="42" vol="100"/>
          <note pos="48" pan="0" len="12" key="40" vol="100"/>
          <note pos="48" pan="0" len="12" key="36" vol="100"/>
          <note pos="72" pan="0" len="12" key="42" vol="100"/>
          <note pos="96" pan="0" len="12" key="36" vol="100"/>
          <note pos="120" pan="0" len="12" key="36" vol="100"/>
          <note pos="144" pan="0" len="12" key="40" vol="100"/>
          <note pos="144" pan="0" len="12" key="36" vol="100"/>
          <note pos="168" pan="0" len="12" key="42" vol="100"/>
        </midiclip>
        <midiclip pos="5184" type="1" muted="0" name="" steps="16">
          <note pos="0" pan="0" len="12" key="36" vol="100"/>
          <note pos="24" pan="0" len="12" key="36" vol="100"/>
          <note pos="48" pan="0" len="12" key="42" vol="100"/>
          <note pos="48" pan="0" len="12" key="40" vol="100"/>
          <note pos="48" pan="0" len="12" key="36" vol="100"/>
          <note pos="72" pan="0" len="12" key="36" vol="100"/>
          <note pos="96" pan="0" len="12" key="36" vol="100"/>
          <note pos="120" pan="0" len="12" key="36" vol="100"/>
          <note pos="144" pan="0" len="12" key="40" vol="100"/>
          <note pos="144" pan="0" len="12" key="36" vol="100"/>
          <note pos="168" pan="0" len="12" key="42" vol="100"/>
        </midiclip>
        <midiclip pos="5376" type="1" muted="0" name="" steps="16">
          <note pos="0" pan="0" len="12" key="36" vol="100"/>
          <note pos="24" pan="0" len="12" key="36" vol="100"/>
          <note pos="48" pan="0" len="12" key="42" vol="100"/>
          <note pos="48" pan="0" len="12" key="40" vol="100"/>
          <note pos="48" pan="0" len="12" key="36" vol="100"/>
          <note pos="72" pan="0" len="12" key="42" vol="100"/>
          <note pos="96" pan="0" len="12" key="36" vol="100"/>
          <note pos="120" pan="0" len="12" key="36" vol="100"/>
          <note pos="144" pan="0" len="12" key="40" vol="100"/>
          <note pos="144" pan="0" len="12" key="36" vol="100"/>
          <note pos="168" pan="0" len="12" key="42" vol="100"/>
        </midiclip>
        <midiclip pos="6528" type="1" muted="0" name="" steps="16">
          <note pos="0" pan="0" len="12" key="36" vol="100"/>
          <note pos="48" pan="0" len="12" key="36" vol="100"/>
          <note pos="96" pan="0" len="12" key="36" vol="100"/>
          <note pos="144" pan="0" len="12" key="36" vol="100"/>
        </midiclip>
        <midiclip pos="960" type="1" muted="0" name="" steps="16">
          <note pos="0" pan="0" len="12" key="36" vol="100"/>
          <note pos="24" pan="0" len="12" key="42" vol="100"/>
          <note pos="48" pan="0" len="12" key="42" vol="100"/>
          <note pos="72" pan="0" len="12" key="36" vol="100"/>
          <note pos="96" pan="0" len="12" key="46" vol="100"/>
          <note pos="120" pan="0" len="12" key="42" vol="100"/>
          <note pos="144" pan="0" len="12" key="42" vol="100"/>
          <note pos="144" pan="0" len="12" key="36" vol="100"/>
          <note pos="168" pan="0" len="12" key="42" vol="100"/>
        </midiclip>
        <midiclip pos="7104" type="1" muted="0" name="" steps="16">
          <note pos="0" pan="0" len="12" key="36" vol="100"/>
          <note pos="72" pan="0" len="12" key="36" vol="100"/>
          <note pos="144" pan="0" len="12" key="40" vol="100"/>
          <note pos="216" pan="0" len="12" key="46" vol="100"/>
          <note pos="216" pan="0" len="12" key="36" vol="100"/>
          <note pos="288" pan="0" len="12" key="36" vol="100"/>
          <note pos="336" pan="0" len="12" key="36" vol="100"/>
        </midiclip>
        <midiclip pos="6720" type="1" muted="0" name="" steps="16">
          <note pos="0" pan="0" len="12" key="46" vol="100"/>
          <note pos="0" pan="0" len="12" key="36" vol="100"/>
          <note pos="72" pan="0" len="12" key="36" vol="100"/>
          <note pos="144" pan="0" len="12" key="38" vol="100"/>
          <note pos="216" pan="0" len="12" key="36" vol="100"/>
          <note pos="288" pan="0" len="12" key="36" vol="100"/>
          <note pos="336" pan="0" len="12" key="36" vol="100"/>
        </midiclip>
        <midiclip pos="7872" type="1" muted="0" name="" steps="16">
          <note pos="0" pan="0" len="12" key="36" vol="100"/>
          <note pos="72" pan="0" len="12" key="36" vol="100"/>
          <note pos="144" pan="0" len="12" key="40" vol="100"/>
          <note pos="216" pan="0" len="12" key="46" vol="100"/>
          <note pos="216" pan="0" len="12" key="36" vol="100"/>
          <note pos="288" pan="0" len="12" key="36" vol="100"/>
          <note pos="336" pan="0" len="12" key="36" vol="100"/>
        </midiclip>
        <midiclip pos="7488" type="1" muted="0" name="" steps="16">
          <note pos="0" pan="0" len="12" key="46" vol="100"/>
          <note pos="0" pan="0" len="12" key="36" vol="100"/>
          <note pos="72" pan="0" len="12" key="36" vol="100"/>
          <note pos="144" pan="0" len="12" key="38" vol="100"/>
          <note pos="216" pan="0" len="12" key="36" vol="100"/>
          <note pos="288" pan="0" len="12" key="36" vol="100"/>
          <note pos="336" pan="0" len="12" key="36" vol="100"/>
        </midiclip>
        <midiclip pos="8256" type="1" muted="0" name="" steps="16">
          <note pos="0" pan="0" len="12" key="46" vol="100"/>
          <note pos="0" pan="0" len="12" key="36" vol="100"/>
        </midiclip>
        <midiclip pos="5568" type="1" muted="0" name="" steps="16">
          <note pos="0" pan="0" len="12" key="36" vol="100"/>
          <note pos="24" pan="0" len="12" key="36" vol="100"/>
          <note pos="48" pan="0" len="12" key="42" vol="100"/>
          <note pos="48" pan="0" len="12" key="40" vol="100"/>
          <note pos="48" pan="0" len="12" key="36" vol="100"/>
          <note pos="72" pan="0" len="12" key="42" vol="100"/>
          <note pos="96" pan="0" len="12" key="36" vol="100"/>
          <note pos="120" pan="0" len="12" key="36" vol="100"/>
          <note pos="144" pan="0" len="12" key="40" vol="100"/>
          <note pos="144" pan="0" len="12" key="36" vol="100"/>
          <note pos="168" pan="0" len="12" key="36" vol="100"/>
        </midiclip>
        <midiclip pos="0" type="1" muted="0" name="" steps="16">
          <note pos="0" pan="0" len="12" key="36" vol="100"/>
          <note pos="72" pan="0" len="12" key="36" vol="100"/>
          <note pos="144" pan="0" len="12" key="36" vol="100"/>
          <note pos="192" pan="0" len="12" key="40" vol="100"/>
          <note pos="192" pan="0" len="12" key="36" vol="100"/>
          <note pos="216" pan="0" len="12" key="46" vol="100"/>
          <note pos="240" pan="0" len="12" key="36" vol="100"/>
          <note pos="312" pan="0" len="12" key="36" vol="100"/>
          <note pos="384" pan="0" len="12" key="46" vol="100"/>
          <note pos="384" pan="0" len="12" key="36" vol="100"/>
          <note pos="432" pan="0" len="12" key="40" vol="100"/>
          <note pos="432" pan="0" len="12" key="36" vol="100"/>
          <note pos="480" pan="0" len="12" key="36" vol="100"/>
          <note pos="552" pan="0" len="12" key="36" vol="100"/>
          <note pos="624" pan="0" len="12" key="36" vol="100"/>
          <note pos="672" pan="0" len="12" key="40" vol="100"/>
          <note pos="672" pan="0" len="12" key="36" vol="100"/>
          <note pos="696" pan="0" len="12" key="46" vol="100"/>
          <note pos="720" pan="0" len="12" key="36" vol="100"/>
          <note pos="792" pan="0" len="12" key="36" vol="100"/>
          <note pos="864" pan="0" len="12" key="46" vol="100"/>
          <note pos="864" pan="0" len="12" key="36" vol="100"/>
          <note pos="912" pan="0" len="12" key="40" vol="100"/>
          <note pos="912" pan="0" len="12" key="36" vol="100"/>
        </midiclip>
        <midiclip pos="1344" type="1" muted="0" name="" steps="16">
          <note pos="0" pan="0" len="12" key="36" vol="100"/>
          <note pos="24" pan="0" len="12" key="42" vol="100"/>
          <note pos="48" pan="0" len="12" key="40" vol="100"/>
          <note pos="48" pan="0" len="12" key="36" vol="100"/>
          <note pos="72" pan="0" len="12" key="42" vol="100"/>
          <note pos="96" pan="0" len="12" key="36" vol="100"/>
          <note pos="120" pan="0" len="12" key="42" vol="100"/>
          <note pos="144" pan="0" len="12" key="40" vol="100"/>
          <note pos="144" pan="0" len="12" key="36" vol="100"/>
          <note pos="168" pan="0" len="12" key="42" vol="100"/>
        </midiclip>
        <midiclip pos="2112" type="1" muted="0" name="" steps="16">
          <note pos="0" pan="0" len="12" key="36" vol="100"/>
          <note pos="24" pan="0" len="12" key="42" vol="100"/>
          <note pos="48" pan="0" len="12" key="40" vol="100"/>
          <note pos="48" pan="0" len="12" key="36" vol="100"/>
          <note pos="72" pan="0" len="12" key="42" vol="100"/>
          <note pos="96" pan="0" len="12" key="36" vol="100"/>
          <note pos="120" pan="0" len="12" key="42" vol="100"/>
          <note pos="144" pan="0" len="12" key="40" vol="100"/>
          <note pos="144" pan="0" len="12" key="36" vol="100"/>
          <note pos="168" pan="0" len="12" key="42" vol="100"/>
        </midiclip>
        <midiclip pos="2688" type="1" muted="0" name="" steps="16">
          <note pos="0" pan="0" len="12" key="36" vol="100"/>
          <note pos="24" pan="0" len="12" key="42" vol="100"/>
          <note pos="48" pan="0" len="12" key="40" vol="100"/>
          <note pos="48" pan="0" len="12" key="36" vol="100"/>
          <note pos="72" pan="0" len="12" key="42" vol="100"/>
          <note pos="96" pan="0" len="12" key="36" vol="100"/>
          <note pos="120" pan="0" len="12" key="42" vol="100"/>
          <note pos="144" pan="0" len="12" key="40" vol="100"/>
          <note pos="144" pan="0" len="12" key="36" vol="100"/>
          <note pos="168" pan="0" len="12" key="42" vol="100"/>
        </midiclip>
        <midiclip pos="2880" type="1" muted="0" name="" steps="16">
          <note pos="0" pan="0" len="12" key="36" vol="100"/>
          <note pos="24" pan="0" len="12" key="42" vol="100"/>
          <note pos="36" pan="0" len="12" key="44" vol="100"/>
          <note pos="48" pan="0" len="12" key="46" vol="100"/>
          <note pos="48" pan="0" len="12" key="40" vol="100"/>
          <note pos="48" pan="0" len="12" key="36" vol="100"/>
          <note pos="72" pan="0" len="12" key="42" vol="100"/>
          <note pos="96" pan="0" len="12" key="36" vol="100"/>
          <note pos="120" pan="0" len="12" key="46" vol="100"/>
          <note pos="120" pan="0" len="12" key="42" vol="100"/>
          <note pos="144" pan="0" len="12" key="40" vol="100"/>
          <note pos="144" pan="0" len="12" key="36" vol="100"/>
          <note pos="168" pan="0" len="12" key="46" vol="100"/>
          <note pos="168" pan="0" len="12" key="42" vol="100"/>
        </midiclip>
        <midiclip pos="5760" type="1" muted="0" name="" steps="16">
          <note pos="0" pan="0" len="12" key="36" vol="100"/>
          <note pos="24" pan="0" len="12" key="36" vol="100"/>
          <note pos="48" pan="0" len="12" key="42" vol="100"/>
          <note pos="48" pan="0" len="12" key="40" vol="100"/>
          <note pos="48" pan="0" len="12" key="36" vol="100"/>
          <note pos="72" pan="0" len="12" key="42" vol="100"/>
          <note pos="96" pan="0" len="12" key="36" vol="100"/>
          <note pos="120" pan="0" len="12" key="36" vol="100"/>
          <note pos="144" pan="0" len="12" key="40" vol="100"/>
          <note pos="144" pan="0" len="12" key="36" vol="100"/>
          <note pos="168" pan="0" len="12" key="42" vol="100"/>
        </midiclip>
        <midiclip pos="5952" type="1" muted="0" name="" steps="16">
          <note pos="0" pan="0" len="12" key="36" vol="100"/>
          <note pos="24" pan="0" len="12" key="36" vol="100"/>
          <note pos="48" pan="0" len="12" key="42" vol="100"/>
          <note pos="48" pan="0" len="12" key="40" vol="100"/>
          <note pos="48" pan="0" len="12" key="36" vol="100"/>
          <note pos="72" pan="0" len="12" key="36" vol="100"/>
          <note pos="96" pan="0" len="12" key="36" vol="100"/>
          <note pos="120" pan="0" len="12" key="36" vol="100"/>
          <note pos="144" pan="0" len="12" key="40" vol="100"/>
          <note pos="144" pan="0" len="12" key="36" vol="100"/>
          <note pos="168" pan="0" len="12" key="42" vol="100"/>
        </midiclip>
        <midiclip pos="6144" type="1" muted="0" name="" steps="16">
          <note pos="0" pan="0" len="12" key="36" vol="100"/>
          <note pos="24" pan="0" len="12" key="36" vol="100"/>
          <note pos="48" pan="0" len="12" key="42" vol="100"/>
          <note pos="48" pan="0" len="12" key="40" vol="100"/>
          <note pos="48" pan="0" len="12" key="36" vol="100"/>
          <note pos="72" pan="0" len="12" key="42" vol="100"/>
          <note pos="96" pan="0" len="12" key="36" vol="100"/>
          <note pos="120" pan="0" len="12" key="36" vol="100"/>
          <note pos="144" pan="0" len="12" key="40" vol="100"/>
          <note pos="144" pan="0" len="12" key="36" vol="100"/>
          <note pos="168" pan="0" len="12" key="42" vol="100"/>
        </midiclip>
        <midiclip pos="6336" type="1" muted="0" name="" steps="16">
          <note pos="0" pan="0" len="12" key="36" vol="100"/>
          <note pos="24" pan="0" len="12" key="36" vol="100"/>
          <note pos="48" pan="0" len="12" key="42" vol="100"/>
          <note pos="48" pan="0" len="12" key="40" vol="100"/>
          <note pos="48" pan="0" len="12" key="36" vol="100"/>
          <note pos="72" pan="0" len="12" key="42" vol="100"/>
          <note pos="96" pan="0" len="12" key="36" vol="100"/>
          <note pos="120" pan="0" len="12" key="36" vol="100"/>
          <note pos="144" pan="0" len="12" key="40" vol="100"/>
          <note pos="144" pan="0" len="12" key="36" vol="100"/>
          <note pos="168" pan="0" len="12" key="36" vol="100"/>
        </midiclip>
        <midiclip pos="9792" type="1" muted="0" name="" steps="16">
          <note pos="0" pan="0" len="12" key="36" vol="100"/>
          <note pos="24" pan="0" len="12" key="44" vol="100"/>
          <note pos="24" pan="0" len="12" key="36" vol="100"/>
          <note pos="48" pan="0" len="12" key="40" vol="100"/>
          <note pos="72" pan="0" len="12" key="44" vol="100"/>
          <note pos="72" pan="0" len="12" key="36" vol="100"/>
          <note pos="84" pan="0" len="12" key="38" vol="100"/>
          <note pos="96" pan="0" len="12" key="36" vol="100"/>
          <note pos="120" pan="0" len="12" key="44" vol="100"/>
          <note pos="120" pan="0" len="12" key="36" vol="100"/>
          <note pos="144" pan="0" len="12" key="40" vol="100"/>
          <note pos="168" pan="0" len="12" key="44" vol="100"/>
          <note pos="168" pan="0" len="12" key="36" vol="100"/>
          <note pos="192" pan="0" len="12" key="36" vol="100"/>
          <note pos="216" pan="0" len="12" key="44" vol="100"/>
          <note pos="216" pan="0" len="12" key="36" vol="100"/>
          <note pos="240" pan="0" len="12" key="40" vol="100"/>
          <note pos="264" pan="0" len="12" key="44" vol="100"/>
          <note pos="264" pan="0" len="12" key="36" vol="100"/>
          <note pos="276" pan="0" len="12" key="38" vol="100"/>
          <note pos="288" pan="0" len="12" key="36" vol="100"/>
          <note pos="312" pan="0" len="12" key="44" vol="100"/>
          <note pos="312" pan="0" len="12" key="36" vol="100"/>
          <note pos="336" pan="0" len="12" key="40" vol="100"/>
          <note pos="348" pan="0" len="12" key="42" vol="100"/>
          <note pos="360" pan="0" len="12" key="44" vol="100"/>
          <note pos="360" pan="0" len="12" key="36" vol="100"/>
        </midiclip>
        <midiclip pos="10176" type="1" muted="0" name="" steps="16">
          <note pos="0" pan="0" len="12" key="36" vol="100"/>
          <note pos="24" pan="0" len="12" key="44" vol="100"/>
          <note pos="24" pan="0" len="12" key="36" vol="100"/>
          <note pos="48" pan="0" len="12" key="40" vol="100"/>
          <note pos="72" pan="0" len="12" key="44" vol="100"/>
          <note pos="72" pan="0" len="12" key="36" vol="100"/>
          <note pos="84" pan="0" len="12" key="38" vol="100"/>
          <note pos="96" pan="0" len="12" key="36" vol="100"/>
          <note pos="120" pan="0" len="12" key="44" vol="100"/>
          <note pos="120" pan="0" len="12" key="36" vol="100"/>
          <note pos="144" pan="0" len="12" key="40" vol="100"/>
          <note pos="168" pan="0" len="12" key="44" vol="100"/>
          <note pos="168" pan="0" len="12" key="36" vol="100"/>
          <note pos="192" pan="0" len="12" key="36" vol="100"/>
          <note pos="216" pan="0" len="12" key="44" vol="100"/>
          <note pos="216" pan="0" len="12" key="36" vol="100"/>
          <note pos="240" pan="0" len="12" key="40" vol="100"/>
          <note pos="264" pan="0" len="12" key="44" vol="100"/>
          <note pos="264" pan="0" len="12" key="36" vol="100"/>
          <note pos="276" pan="0" len="12" key="38" vol="100"/>
          <note pos="288" pan="0" len="12" key="36" vol="100"/>
          <note pos="312" pan="0" len="12" key="44" vol="100"/>
          <note pos="312" pan="0" len="12" key="36" vol="100"/>
          <note pos="336" pan="0" len="12" key="40" vol="100"/>
          <note pos="348" pan="0" len="12" key="42" vol="100"/>
          <note pos="360" pan="0" len="12" key="44" vol="100"/>
          <note pos="360" pan="0" len="12" key="36" vol="100"/>
        </midiclip>
        <midiclip pos="10560" type="1" muted="0" name="" steps="16">
          <note pos="0" pan="0" len="12" key="36" vol="100"/>
          <note pos="24" pan="0" len="12" key="44" vol="100"/>
          <note pos="24" pan="0" len="12" key="36" vol="100"/>
          <note pos="48" pan="0" len="12" key="40" vol="100"/>
          <note pos="72" pan="0" len="12" key="44" vol="100"/>
          <note pos="72" pan="0" len="12" key="36" vol="100"/>
          <note pos="84" pan="0" len="12" key="38" vol="100"/>
          <note pos="96" pan="0" len="12" key="36" vol="100"/>
          <note pos="120" pan="0" len="12" key="44" vol="100"/>
          <note pos="120" pan="0" len="12" key="36" vol="100"/>
          <note pos="144" pan="0" len="12" key="40" vol="100"/>
          <note pos="168" pan="0" len="12" key="44" vol="100"/>
          <note pos="168" pan="0" len="12" key="36" vol="100"/>
          <note pos="192" pan="0" len="12" key="36" vol="100"/>
          <note pos="216" pan="0" len="12" key="44" vol="100"/>
          <note pos="216" pan="0" len="12" key="36" vol="100"/>
          <note pos="240" pan="0" len="12" key="40" vol="100"/>
          <note pos="264" pan="0" len="12" key="44" vol="100"/>
          <note pos="264" pan="0" len="12" key="36" vol="100"/>
          <note pos="276" pan="0" len="12" key="38" vol="100"/>
          <note pos="288" pan="0" len="12" key="36" vol="100"/>
          <note pos="312" pan="0" len="12" key="44" vol="100"/>
          <note pos="312" pan="0" len="12" key="36" vol="100"/>
          <note pos="336" pan="0" len="12" key="40" vol="100"/>
          <note pos="348" pan="0" len="12" key="42" vol="100"/>
          <note pos="360" pan="0" len="12" key="44" vol="100"/>
          <note pos="360" pan="0" len="12" key="36" vol="100"/>
        </midiclip>
        <midiclip pos="10944" type="1" muted="0" name="" steps="16">
          <note pos="0" pan="0" len="12" key="36" vol="100"/>
          <note pos="24" pan="0" len="12" key="44" vol="100"/>
          <note pos="24" pan="0" len="12" key="36" vol="100"/>
          <note pos="48" pan="0" len="12" key="40" vol="100"/>
          <note pos="72" pan="0" len="12" key="44" vol="100"/>
          <note pos="72" pan="0" len="12" key="36" vol="100"/>
          <note pos="84" pan="0" len="12" key="38" vol="100"/>
          <note pos="96" pan="0" len="12" key="36" vol="100"/>
          <note pos="120" pan="0" len="12" key="44" vol="100"/>
          <note pos="120" pan="0" len="12" key="36" vol="100"/>
          <note pos="144" pan="0" len="12" key="40" vol="100"/>
          <note pos="168" pan="0" len="12" key="44" vol="100"/>
          <note pos="168" pan="0" len="12" key="36" vol="100"/>
          <note pos="192" pan="0" len="12" key="36" vol="100"/>
          <note pos="216" pan="0" len="12" key="44" vol="100"/>
          <note pos="216" pan="0" len="12" key="36" vol="100"/>
          <note pos="240" pan="0" len="12" key="40" vol="100"/>
          <note pos="264" pan="0" len="12" key="44" vol="100"/>
          <note pos="264" pan="0" len="12" key="36" vol="100"/>
          <note pos="276" pan="0" len="12" key="38" vol="100"/>
          <note pos="288" pan="0" len="12" key="36" vol="100"/>
          <note pos="312" pan="0" len="12" key="44" vol="100"/>
          <note pos="312" pan="0" len="12" key="36" vol="100"/>
          <note pos="336" pan="0" len="12" key="40" vol="100"/>
          <note pos="348" pan="0" len="12" key="42" vol="100"/>
          <note pos="360" pan="0" len="12" key="44" vol="100"/>
          <note pos="360" pan="0" len="12" key="36" vol="100"/>
        </midiclip>
      </track>
      <track type="0" mutedBeforeSolo="1" solo="0" muted="0" trackheight="32" name="Drums>Natural">
        <instrumenttrack pan="0" basenote="69" enabled="0" enablecc="0" lastkey="127" scale="0" range_import="1" keymap="0" usemasterpitch="0" mixch="4" vol="100" pitchrange="12" pitch="0" firstkey="0">
          <midicontrollers cc78="0" cc9="0" cc44="0" cc86="0" cc117="0" cc74="0" cc15="0" cc89="0" cc65="0" cc70="0" cc20="0" cc79="0" cc124="0" cc51="0" cc95="0" cc98="0" cc104="0" cc30="0" cc41="0" cc5="0" cc90="0" cc67="0" cc6="0" cc48="0" cc3="0" cc23="0" cc99="0" cc113="0" cc118="0" cc37="0" cc1="0" cc22="0" cc88="0" cc62="0" cc114="0" cc8="0" cc7="0" cc77="0" cc85="0" cc106="0" cc36="0" cc26="0" cc76="0" cc110="0" cc19="0" cc66="0" cc11="0" cc81="0" cc35="0" cc47="0" cc63="0" cc87="0" cc101="0" cc27="0" cc100="0" cc42="0" cc119="0" cc34="0" cc17="0" cc39="0" cc0="0" cc97="0" cc14="0" cc10="0" cc116="0" cc18="0" cc2="0" cc60="0" cc125="0" cc46="0" cc105="0" cc56="0" cc25="0" cc102="0" cc45="0" cc108="0" cc43="0" cc71="0" cc69="0" cc93="0" cc32="0" cc73="0" cc57="0" cc112="0" cc29="0" cc54="0" cc91="0" cc31="0" cc16="0" cc84="0" cc49="0" cc103="0" cc50="0" cc82="0" cc122="0" cc126="0" cc123="0" cc24="0" cc92="0" cc38="0" cc68="0" cc28="0" cc94="0" cc72="0" cc61="0" cc4="0" cc75="0" cc115="0" cc33="0" cc55="0" cc59="0" cc120="0" cc52="0" cc53="0" cc121="0" cc12="0" cc83="0" cc96="0" cc40="0" cc127="0" cc13="0" cc64="0" cc111="0" cc109="0" cc58="0" cc21="0" cc80="0" cc107="0"/>
          <instrument name="sf2player">
            <sf2player bank="128" src="usersoundfont:drums_ken_ardency_mono.sf2" chorusOn="0" chorusNum="3" chorusDepth="8" chorusSpeed="0.3" reverbOn="0" reverbRoomSize="0.2" chorusLevel="2" reverbLevel="0.9" patch="0" gain="0.22" reverbDamping="0" reverbWidth="0.5">
              <key/>
            </sf2player>
          </instrument>
          <eldata fres="0.5" fcut="14000" ftype="0" fwet="0">
            <elvol pdel="0" amt="0" rel="0.1" hold="0.5" latt="0" dec="0.5" lamt="0" lspd_syncmode="0" x100="0" lspd_numerator="4" sustain="0.5" lpdel="0" lspd_denominator="4" userwavefile="" lshp="0" att="0" lspd="0.1" ctlenvamt="0"/>
            <elcut pdel="0" amt="0" rel="0.1" hold="0.5" latt="0" dec="0.5" lamt="0" lspd_syncmode="0" x100="0" lspd_numerator="4" sustain="0.5" lpdel="0" lspd_denominator="4" userwavefile="" lshp="0" att="0" lspd="0.1" ctlenvamt="0"/>
            <elres pdel="0" amt="0" rel="0.1" hold="0.5" latt="0" dec="0.5" lamt="0" lspd_syncmode="0" x100="0" lspd_numerator="4" sustain="0.5" lpdel="0" lspd_denominator="4" userwavefile="" lshp="0" att="0" lspd="0.1" ctlenvamt="0"/>
          </eldata>
          <chordcreator chord="0" chord-enabled="0" chordrange="1"/>
          <arpeggiator arpcycle="0" arp-enabled="0" arpgate="100" arpdir="0" arprepeats="1" arptime_numerator="4" arptime_denominator="4" arpmode="0" arptime_syncmode="0" arprange="1" arptime="200" arpskip="0" arp="0" arpmiss="0"/>
          <midiport fixedinputvelocity="-1" inputcontroller="0" writable="0" fixedoutputvelocity="-1" fixedoutputnote="-1" basevelocity="127" inputchannel="0" outputchannel="1" outputprogram="1" readable="1" outputcontroller="0" inports=""/>
          <fxchain enabled="0" numofeffects="0"/>
        </instrumenttrack>
        <midiclip pos="1152" type="1" muted="0" name="" steps="16">
          <note pos="0" pan="0" len="12" key="36" vol="100"/>
          <note pos="24" pan="0" len="12" key="42" vol="100"/>
          <note pos="48" pan="0" len="12" key="40" vol="100"/>
          <note pos="48" pan="0" len="12" key="36" vol="100"/>
          <note pos="72" pan="0" len="12" key="42" vol="100"/>
          <note pos="96" pan="0" len="12" key="36" vol="100"/>
          <note pos="120" pan="0" len="12" key="42" vol="100"/>
          <note pos="144" pan="0" len="12" key="40" vol="100"/>
          <note pos="144" pan="0" len="12" key="36" vol="100"/>
          <note pos="168" pan="0" len="12" key="42" vol="100"/>
        </midiclip>
        <midiclip pos="1536" type="1" muted="0" name="" steps="16">
          <note pos="0" pan="0" len="12" key="36" vol="100"/>
          <note pos="24" pan="0" len="12" key="42" vol="100"/>
          <note pos="48" pan="0" len="12" key="40" vol="100"/>
          <note pos="48" pan="0" len="12" key="36" vol="100"/>
          <note pos="72" pan="0" len="12" key="42" vol="100"/>
          <note pos="96" pan="0" len="12" key="36" vol="100"/>
          <note pos="120" pan="0" len="12" key="42" vol="100"/>
          <note pos="144" pan="0" len="12" key="40" vol="100"/>
          <note pos="144" pan="0" len="12" key="36" vol="100"/>
          <note pos="168" pan="0" len="12" key="42" vol="100"/>
        </midiclip>
        <midiclip pos="1728" type="1" muted="0" name="" steps="16">
          <note pos="0" pan="0" len="12" key="36" vol="100"/>
          <note pos="24" pan="0" len="12" key="42" vol="100"/>
          <note pos="48" pan="0" len="12" key="40" vol="100"/>
          <note pos="48" pan="0" len="12" key="36" vol="100"/>
          <note pos="72" pan="0" len="12" key="42" vol="100"/>
          <note pos="96" pan="0" len="12" key="36" vol="100"/>
          <note pos="120" pan="0" len="12" key="47" vol="100"/>
          <note pos="120" pan="0" len="12" key="42" vol="100"/>
          <note pos="132" pan="0" len="12" key="45" vol="100"/>
          <note pos="144" pan="0" len="12" key="43" vol="100"/>
          <note pos="144" pan="0" len="12" key="40" vol="100"/>
          <note pos="144" pan="0" len="12" key="36" vol="100"/>
          <note pos="168" pan="0" len="12" key="42" vol="100"/>
          <note pos="168" pan="0" len="12" key="41" vol="100"/>
        </midiclip>
        <midiclip pos="1920" type="1" muted="0" name="" steps="16">
          <note pos="0" pan="0" len="12" key="36" vol="100"/>
          <note pos="24" pan="0" len="12" key="42" vol="100"/>
          <note pos="48" pan="0" len="12" key="40" vol="100"/>
          <note pos="48" pan="0" len="12" key="36" vol="100"/>
          <note pos="72" pan="0" len="12" key="42" vol="100"/>
          <note pos="96" pan="0" len="12" key="36" vol="100"/>
          <note pos="120" pan="0" len="12" key="42" vol="100"/>
          <note pos="144" pan="0" len="12" key="40" vol="100"/>
          <note pos="144" pan="0" len="12" key="36" vol="100"/>
          <note pos="168" pan="0" len="12" key="42" vol="100"/>
        </midiclip>
        <midiclip pos="2304" type="1" muted="0" name="" steps="16">
          <note pos="0" pan="0" len="12" key="36" vol="100"/>
          <note pos="24" pan="0" len="12" key="42" vol="100"/>
          <note pos="48" pan="0" len="12" key="40" vol="100"/>
          <note pos="48" pan="0" len="12" key="36" vol="100"/>
          <note pos="72" pan="0" len="12" key="42" vol="100"/>
          <note pos="96" pan="0" len="12" key="36" vol="100"/>
          <note pos="120" pan="0" len="12" key="42" vol="100"/>
          <note pos="144" pan="0" len="12" key="40" vol="100"/>
          <note pos="144" pan="0" len="12" key="36" vol="100"/>
          <note pos="168" pan="0" len="12" key="42" vol="100"/>
        </midiclip>
        <midiclip pos="2496" type="1" muted="0" name="" steps="16">
          <note pos="0" pan="0" len="12" key="36" vol="100"/>
          <note pos="24" pan="0" len="12" key="42" vol="100"/>
          <note pos="36" pan="0" len="12" key="44" vol="100"/>
          <note pos="48" pan="0" len="12" key="46" vol="100"/>
          <note pos="48" pan="0" len="12" key="40" vol="100"/>
          <note pos="48" pan="0" len="12" key="36" vol="100"/>
          <note pos="72" pan="0" len="12" key="42" vol="100"/>
          <note pos="96" pan="0" len="12" key="36" vol="100"/>
          <note pos="120" pan="0" len="12" key="46" vol="100"/>
          <note pos="120" pan="0" len="12" key="42" vol="100"/>
          <note pos="144" pan="0" len="12" key="40" vol="100"/>
          <note pos="144" pan="0" len="12" key="36" vol="100"/>
          <note pos="168" pan="0" len="12" key="46" vol="100"/>
          <note pos="168" pan="0" len="12" key="42" vol="100"/>
        </midiclip>
        <midiclip pos="3072" type="1" muted="0" name="" steps="16">
          <note pos="0" pan="0" len="12" key="36" vol="100"/>
          <note pos="24" pan="0" len="12" key="42" vol="100"/>
          <note pos="48" pan="0" len="12" key="42" vol="100"/>
          <note pos="72" pan="0" len="12" key="36" vol="100"/>
          <note pos="96" pan="0" len="12" key="42" vol="100"/>
          <note pos="120" pan="0" len="12" key="42" vol="100"/>
          <note pos="132" pan="0" len="12" key="42" vol="100"/>
          <note pos="144" pan="0" len="12" key="36" vol="100"/>
          <note pos="168" pan="0" len="12" key="42" vol="100"/>
          <note pos="192" pan="0" len="12" key="40" vol="100"/>
          <note pos="192" pan="0" len="12" key="36" vol="100"/>
          <note pos="216" pan="0" len="12" key="42" vol="100"/>
          <note pos="240" pan="0" len="12" key="36" vol="100"/>
          <note pos="264" pan="0" len="12" key="42" vol="100"/>
          <note pos="288" pan="0" len="12" key="42" vol="100"/>
          <note pos="312" pan="0" len="12" key="36" vol="100"/>
          <note pos="336" pan="0" len="12" key="42" vol="100"/>
          <note pos="360" pan="0" len="12" key="42" vol="100"/>
          <note pos="384" pan="0" len="12" key="46" vol="100"/>
          <note pos="384" pan="0" len="12" key="36" vol="100"/>
          <note pos="408" pan="0" len="12" key="42" vol="100"/>
          <note pos="432" pan="0" len="12" key="40" vol="100"/>
          <note pos="432" pan="0" len="12" key="36" vol="100"/>
          <note pos="456" pan="0" len="12" key="42" vol="100"/>
          <note pos="480" pan="0" len="12" key="36" vol="100"/>
          <note pos="504" pan="0" len="12" key="42" vol="100"/>
          <note pos="528" pan="0" len="12" key="42" vol="100"/>
          <note pos="552" pan="0" len="12" key="36" vol="100"/>
          <note pos="576" pan="0" len="12" key="42" vol="100"/>
          <note pos="600" pan="0" len="12" key="42" vol="100"/>
          <note pos="612" pan="0" len="12" key="42" vol="100"/>
          <note pos="624" pan="0" len="12" key="36" vol="100"/>
          <note pos="648" pan="0" len="12" key="42" vol="100"/>
          <note pos="672" pan="0" len="12" key="40" vol="100"/>
          <note pos="672" pan="0" len="12" key="36" vol="100"/>
          <note pos="696" pan="0" len="12" key="42" vol="100"/>
          <note pos="720" pan="0" len="12" key="36" vol="100"/>
          <note pos="744" pan="0" len="12" key="42" vol="100"/>
          <note pos="768" pan="0" len="12" key="42" vol="100"/>
          <note pos="792" pan="0" len="12" key="36" vol="100"/>
          <note pos="816" pan="0" len="12" key="42" vol="100"/>
          <note pos="840" pan="0" len="12" key="42" vol="100"/>
          <note pos="864" pan="0" len="12" key="46" vol="100"/>
          <note pos="864" pan="0" len="12" key="36" vol="100"/>
          <note pos="888" pan="0" len="12" key="42" vol="100"/>
          <note pos="912" pan="0" len="12" key="40" vol="100"/>
          <note pos="912" pan="0" len="12" key="36" vol="100"/>
          <note pos="936" pan="0" len="12" key="42" vol="100"/>
        </midiclip>
        <midiclip pos="4032" type="1" muted="0" name="" steps="16">
          <note pos="0" pan="0" len="12" key="36" vol="100"/>
          <note pos="24" pan="0" len="12" key="42" vol="100"/>
          <note pos="48" pan="0" len="12" key="42" vol="100"/>
          <note pos="72" pan="0" len="12" key="36" vol="100"/>
          <note pos="96" pan="0" len="12" key="42" vol="100"/>
          <note pos="120" pan="0" len="12" key="42" vol="100"/>
          <note pos="132" pan="0" len="12" key="42" vol="100"/>
          <note pos="144" pan="0" len="12" key="36" vol="100"/>
          <note pos="168" pan="0" len="12" key="42" vol="100"/>
          <note pos="192" pan="0" len="12" key="40" vol="100"/>
          <note pos="192" pan="0" len="12" key="36" vol="100"/>
          <note pos="216" pan="0" len="12" key="42" vol="100"/>
          <note pos="240" pan="0" len="12" key="36" vol="100"/>
          <note pos="264" pan="0" len="12" key="42" vol="100"/>
          <note pos="288" pan="0" len="12" key="42" vol="100"/>
          <note pos="312" pan="0" len="12" key="36" vol="100"/>
          <note pos="336" pan="0" len="12" key="42" vol="100"/>
          <note pos="360" pan="0" len="12" key="42" vol="100"/>
          <note pos="384" pan="0" len="12" key="46" vol="100"/>
          <note pos="384" pan="0" len="12" key="36" vol="100"/>
          <note pos="408" pan="0" len="12" key="42" vol="100"/>
          <note pos="432" pan="0" len="12" key="40" vol="100"/>
          <note pos="432" pan="0" len="12" key="36" vol="100"/>
          <note pos="456" pan="0" len="12" key="42" vol="100"/>
          <note pos="480" pan="0" len="12" key="36" vol="100"/>
          <note pos="504" pan="0" len="12" key="42" vol="100"/>
          <note pos="528" pan="0" len="12" key="42" vol="100"/>
          <note pos="552" pan="0" len="12" key="36" vol="100"/>
          <note pos="576" pan="0" len="12" key="42" vol="100"/>
          <note pos="600" pan="0" len="12" key="42" vol="100"/>
          <note pos="612" pan="0" len="12" key="42" vol="100"/>
          <note pos="624" pan="0" len="12" key="36" vol="100"/>
          <note pos="648" pan="0" len="12" key="42" vol="100"/>
          <note pos="672" pan="0" len="12" key="40" vol="100"/>
          <note pos="672" pan="0" len="12" key="36" vol="100"/>
          <note pos="696" pan="0" len="12" key="42" vol="100"/>
          <note pos="720" pan="0" len="12" key="36" vol="100"/>
          <note pos="744" pan="0" len="12" key="42" vol="100"/>
          <note pos="768" pan="0" len="12" key="42" vol="100"/>
          <note pos="792" pan="0" len="12" key="36" vol="100"/>
          <note pos="816" pan="0" len="12" key="42" vol="100"/>
          <note pos="840" pan="0" len="12" key="42" vol="100"/>
          <note pos="864" pan="0" len="12" key="46" vol="100"/>
          <note pos="864" pan="0" len="12" key="36" vol="100"/>
          <note pos="888" pan="0" len="12" key="42" vol="100"/>
          <note pos="912" pan="0" len="12" key="40" vol="100"/>
          <note pos="912" pan="0" len="12" key="36" vol="100"/>
          <note pos="936" pan="0" len="12" key="42" vol="100"/>
        </midiclip>
        <midiclip pos="960" type="1" muted="0" name="" steps="16">
          <note pos="0" pan="0" len="12" key="36" vol="100"/>
          <note pos="24" pan="0" len="12" key="42" vol="100"/>
          <note pos="48" pan="0" len="12" key="42" vol="100"/>
          <note pos="72" pan="0" len="12" key="36" vol="100"/>
          <note pos="96" pan="0" len="12" key="46" vol="100"/>
          <note pos="120" pan="0" len="12" key="42" vol="100"/>
          <note pos="144" pan="0" len="12" key="42" vol="100"/>
          <note pos="144" pan="0" len="12" key="36" vol="100"/>
          <note pos="168" pan="0" len="12" key="42" vol="100"/>
        </midiclip>
        <midiclip pos="0" type="1" muted="0" name="" steps="16">
          <note pos="0" pan="0" len="12" key="36" vol="100"/>
          <note pos="72" pan="0" len="12" key="36" vol="100"/>
          <note pos="144" pan="0" len="12" key="36" vol="100"/>
          <note pos="192" pan="0" len="12" key="40" vol="100"/>
          <note pos="192" pan="0" len="12" key="36" vol="100"/>
          <note pos="216" pan="0" len="12" key="46" vol="100"/>
          <note pos="240" pan="0" len="12" key="36" vol="100"/>
          <note pos="312" pan="0" len="12" key="36" vol="100"/>
          <note pos="384" pan="0" len="12" key="46" vol="100"/>
          <note pos="384" pan="0" len="12" key="36" vol="100"/>
          <note pos="432" pan="0" len="12" key="40" vol="100"/>
          <note pos="432" pan="0" len="12" key="36" vol="100"/>
          <note pos="480" pan="0" len="12" key="36" vol="100"/>
          <note pos="552" pan="0" len="12" key="36" vol="100"/>
          <note pos="624" pan="0" len="12" key="36" vol="100"/>
          <note pos="672" pan="0" len="12" key="40" vol="100"/>
          <note pos="672" pan="0" len="12" key="36" vol="100"/>
          <note pos="696" pan="0" len="12" key="46" vol="100"/>
          <note pos="720" pan="0" len="12" key="36" vol="100"/>
          <note pos="792" pan="0" len="12" key="36" vol="100"/>
          <note pos="864" pan="0" len="12" key="46" vol="100"/>
          <note pos="864" pan="0" len="12" key="36" vol="100"/>
          <note pos="912" pan="0" len="12" key="40" vol="100"/>
          <note pos="912" pan="0" len="12" key="36" vol="100"/>
        </midiclip>
        <midiclip pos="1344" type="1" muted="0" name="" steps="16">
          <note pos="0" pan="0" len="12" key="36" vol="100"/>
          <note pos="24" pan="0" len="12" key="42" vol="100"/>
          <note pos="48" pan="0" len="12" key="40" vol="100"/>
          <note pos="48" pan="0" len="12" key="36" vol="100"/>
          <note pos="72" pan="0" len="12" key="42" vol="100"/>
          <note pos="96" pan="0" len="12" key="36" vol="100"/>
          <note pos="120" pan="0" len="12" key="42" vol="100"/>
          <note pos="144" pan="0" len="12" key="40" vol="100"/>
          <note pos="144" pan="0" len="12" key="36" vol="100"/>
          <note pos="168" pan="0" len="12" key="42" vol="100"/>
        </midiclip>
        <midiclip pos="2112" type="1" muted="0" name="" steps="16">
          <note pos="0" pan="0" len="12" key="36" vol="100"/>
          <note pos="24" pan="0" len="12" key="42" vol="100"/>
          <note pos="48" pan="0" len="12" key="40" vol="100"/>
          <note pos="48" pan="0" len="12" key="36" vol="100"/>
          <note pos="72" pan="0" len="12" key="42" vol="100"/>
          <note pos="96" pan="0" len="12" key="36" vol="100"/>
          <note pos="120" pan="0" len="12" key="42" vol="100"/>
          <note pos="144" pan="0" len="12" key="40" vol="100"/>
          <note pos="144" pan="0" len="12" key="36" vol="100"/>
          <note pos="168" pan="0" len="12" key="42" vol="100"/>
        </midiclip>
        <midiclip pos="2688" type="1" muted="0" name="" steps="16">
          <note pos="0" pan="0" len="12" key="36" vol="100"/>
          <note pos="24" pan="0" len="12" key="42" vol="100"/>
          <note pos="48" pan="0" len="12" key="40" vol="100"/>
          <note pos="48" pan="0" len="12" key="36" vol="100"/>
          <note pos="72" pan="0" len="12" key="42" vol="100"/>
          <note pos="96" pan="0" len="12" key="36" vol="100"/>
          <note pos="120" pan="0" len="12" key="42" vol="100"/>
          <note pos="144" pan="0" len="12" key="40" vol="100"/>
          <note pos="144" pan="0" len="12" key="36" vol="100"/>
          <note pos="168" pan="0" len="12" key="42" vol="100"/>
        </midiclip>
        <midiclip pos="2880" type="1" muted="0" name="" steps="16">
          <note pos="0" pan="0" len="12" key="36" vol="100"/>
          <note pos="24" pan="0" len="12" key="42" vol="100"/>
          <note pos="36" pan="0" len="12" key="44" vol="100"/>
          <note pos="48" pan="0" len="12" key="46" vol="100"/>
          <note pos="48" pan="0" len="12" key="40" vol="100"/>
          <note pos="48" pan="0" len="12" key="36" vol="100"/>
          <note pos="72" pan="0" len="12" key="42" vol="100"/>
          <note pos="96" pan="0" len="12" key="36" vol="100"/>
          <note pos="120" pan="0" len="12" key="46" vol="100"/>
          <note pos="120" pan="0" len="12" key="42" vol="100"/>
          <note pos="144" pan="0" len="12" key="40" vol="100"/>
          <note pos="144" pan="0" len="12" key="36" vol="100"/>
          <note pos="168" pan="0" len="12" key="46" vol="100"/>
          <note pos="168" pan="0" len="12" key="42" vol="100"/>
        </midiclip>
        <midiclip pos="4992" type="1" muted="0" name="" steps="16">
          <note pos="0" pan="0" len="12" key="36" vol="100"/>
          <note pos="24" pan="0" len="12" key="36" vol="100"/>
          <note pos="48" pan="0" len="12" key="42" vol="100"/>
          <note pos="48" pan="0" len="12" key="40" vol="100"/>
          <note pos="48" pan="0" len="12" key="36" vol="100"/>
          <note pos="72" pan="0" len="12" key="42" vol="100"/>
          <note pos="96" pan="0" len="12" key="36" vol="100"/>
          <note pos="120" pan="0" len="12" key="36" vol="100"/>
          <note pos="144" pan="0" len="12" key="40" vol="100"/>
          <note pos="144" pan="0" len="12" key="36" vol="100"/>
          <note pos="168" pan="0" len="12" key="42" vol="100"/>
        </midiclip>
        <midiclip pos="5184" type="1" muted="0" name="" steps="16">
          <note pos="0" pan="0" len="12" key="36" vol="100"/>
          <note pos="24" pan="0" len="12" key="36" vol="100"/>
          <note pos="48" pan="0" len="12" key="42" vol="100"/>
          <note pos="48" pan="0" len="12" key="40" vol="100"/>
          <note pos="48" pan="0" len="12" key="36" vol="100"/>
          <note pos="72" pan="0" len="12" key="36" vol="100"/>
          <note pos="96" pan="0" len="12" key="36" vol="100"/>
          <note pos="120" pan="0" len="12" key="36" vol="100"/>
          <note pos="144" pan="0" len="12" key="40" vol="100"/>
          <note pos="144" pan="0" len="12" key="36" vol="100"/>
          <note pos="168" pan="0" len="12" key="42" vol="100"/>
        </midiclip>
        <midiclip pos="5376" type="1" muted="0" name="" steps="16">
          <note pos="0" pan="0" len="12" key="36" vol="100"/>
          <note pos="24" pan="0" len="12" key="36" vol="100"/>
          <note pos="48" pan="0" len="12" key="42" vol="100"/>
          <note pos="48" pan="0" len="12" key="40" vol="100"/>
          <note pos="48" pan="0" len="12" key="36" vol="100"/>
          <note pos="72" pan="0" len="12" key="42" vol="100"/>
          <note pos="96" pan="0" len="12" key="36" vol="100"/>
          <note pos="120" pan="0" len="12" key="36" vol="100"/>
          <note pos="144" pan="0" len="12" key="40" vol="100"/>
          <note pos="144" pan="0" len="12" key="36" vol="100"/>
          <note pos="168" pan="0" len="12" key="42" vol="100"/>
        </midiclip>
        <midiclip pos="6528" type="1" muted="0" name="" steps="16">
          <note pos="0" pan="0" len="12" key="36" vol="100"/>
          <note pos="48" pan="0" len="12" key="36" vol="100"/>
          <note pos="96" pan="0" len="12" key="36" vol="100"/>
          <note pos="144" pan="0" len="12" key="36" vol="100"/>
        </midiclip>
        <midiclip pos="7104" type="1" muted="0" name="" steps="16">
          <note pos="0" pan="0" len="12" key="36" vol="100"/>
          <note pos="72" pan="0" len="12" key="36" vol="100"/>
          <note pos="144" pan="0" len="12" key="40" vol="100"/>
          <note pos="216" pan="0" len="12" key="46" vol="100"/>
          <note pos="216" pan="0" len="12" key="36" vol="100"/>
          <note pos="288" pan="0" len="12" key="36" vol="100"/>
          <note pos="336" pan="0" len="12" key="36" vol="100"/>
        </midiclip>
        <midiclip pos="6720" type="1" muted="0" name="" steps="16">
          <note pos="0" pan="0" len="12" key="46" vol="100"/>
          <note pos="0" pan="0" len="12" key="36" vol="100"/>
          <note pos="72" pan="0" len="12" key="36" vol="100"/>
          <note pos="144" pan="0" len="12" key="38" vol="100"/>
          <note pos="216" pan="0" len="12" key="36" vol="100"/>
          <note pos="288" pan="0" len="12" key="36" vol="100"/>
          <note pos="336" pan="0" len="12" key="36" vol="100"/>
        </midiclip>
        <midiclip pos="7872" type="1" muted="0" name="" steps="16">
          <note pos="0" pan="0" len="12" key="36" vol="100"/>
          <note pos="72" pan="0" len="12" key="36" vol="100"/>
          <note pos="144" pan="0" len="12" key="40" vol="100"/>
          <note pos="216" pan="0" len="12" key="46" vol="100"/>
          <note pos="216" pan="0" len="12" key="36" vol="100"/>
          <note pos="288" pan="0" len="12" key="36" vol="100"/>
          <note pos="336" pan="0" len="12" key="36" vol="100"/>
        </midiclip>
        <midiclip pos="7488" type="1" muted="0" name="" steps="16">
          <note pos="0" pan="0" len="12" key="46" vol="100"/>
          <note pos="0" pan="0" len="12" key="36" vol="100"/>
          <note pos="72" pan="0" len="12" key="36" vol="100"/>
          <note pos="144" pan="0" len="12" key="38" vol="100"/>
          <note pos="216" pan="0" len="12" key="36" vol="100"/>
          <note pos="288" pan="0" len="12" key="36" vol="100"/>
          <note pos="336" pan="0" len="12" key="36" vol="100"/>
        </midiclip>
        <midiclip pos="8256" type="1" muted="0" name="" steps="16">
          <note pos="0" pan="0" len="12" key="46" vol="100"/>
          <note pos="0" pan="0" len="12" key="36" vol="100"/>
        </midiclip>
        <midiclip pos="5568" type="1" muted="0" name="" steps="16">
          <note pos="0" pan="0" len="12" key="36" vol="100"/>
          <note pos="24" pan="0" len="12" key="36" vol="100"/>
          <note pos="48" pan="0" len="12" key="42" vol="100"/>
          <note pos="48" pan="0" len="12" key="40" vol="100"/>
          <note pos="48" pan="0" len="12" key="36" vol="100"/>
          <note pos="72" pan="0" len="12" key="42" vol="100"/>
          <note pos="96" pan="0" len="12" key="36" vol="100"/>
          <note pos="120" pan="0" len="12" key="36" vol="100"/>
          <note pos="144" pan="0" len="12" key="40" vol="100"/>
          <note pos="144" pan="0" len="12" key="36" vol="100"/>
          <note pos="168" pan="0" len="12" key="36" vol="100"/>
        </midiclip>
        <midiclip pos="5760" type="1" muted="0" name="" steps="16">
          <note pos="0" pan="0" len="12" key="36" vol="100"/>
          <note pos="24" pan="0" len="12" key="36" vol="100"/>
          <note pos="48" pan="0" len="12" key="42" vol="100"/>
          <note pos="48" pan="0" len="12" key="40" vol="100"/>
          <note pos="48" pan="0" len="12" key="36" vol="100"/>
          <note pos="72" pan="0" len="12" key="42" vol="100"/>
          <note pos="96" pan="0" len="12" key="36" vol="100"/>
          <note pos="120" pan="0" len="12" key="36" vol="100"/>
          <note pos="144" pan="0" len="12" key="40" vol="100"/>
          <note pos="144" pan="0" len="12" key="36" vol="100"/>
          <note pos="168" pan="0" len="12" key="42" vol="100"/>
        </midiclip>
        <midiclip pos="5952" type="1" muted="0" name="" steps="16">
          <note pos="0" pan="0" len="12" key="36" vol="100"/>
          <note pos="24" pan="0" len="12" key="36" vol="100"/>
          <note pos="48" pan="0" len="12" key="42" vol="100"/>
          <note pos="48" pan="0" len="12" key="40" vol="100"/>
          <note pos="48" pan="0" len="12" key="36" vol="100"/>
          <note pos="72" pan="0" len="12" key="36" vol="100"/>
          <note pos="96" pan="0" len="12" key="36" vol="100"/>
          <note pos="120" pan="0" len="12" key="36" vol="100"/>
          <note pos="144" pan="0" len="12" key="40" vol="100"/>
          <note pos="144" pan="0" len="12" key="36" vol="100"/>
          <note pos="168" pan="0" len="12" key="42" vol="100"/>
        </midiclip>
        <midiclip pos="6144" type="1" muted="0" name="" steps="16">
          <note pos="0" pan="0" len="12" key="36" vol="100"/>
          <note pos="24" pan="0" len="12" key="36" vol="100"/>
          <note pos="48" pan="0" len="12" key="42" vol="100"/>
          <note pos="48" pan="0" len="12" key="40" vol="100"/>
          <note pos="48" pan="0" len="12" key="36" vol="100"/>
          <note pos="72" pan="0" len="12" key="42" vol="100"/>
          <note pos="96" pan="0" len="12" key="36" vol="100"/>
          <note pos="120" pan="0" len="12" key="36" vol="100"/>
          <note pos="144" pan="0" len="12" key="40" vol="100"/>
          <note pos="144" pan="0" len="12" key="36" vol="100"/>
          <note pos="168" pan="0" len="12" key="42" vol="100"/>
        </midiclip>
        <midiclip pos="6336" type="1" muted="0" name="" steps="16">
          <note pos="0" pan="0" len="12" key="36" vol="100"/>
          <note pos="24" pan="0" len="12" key="36" vol="100"/>
          <note pos="48" pan="0" len="12" key="42" vol="100"/>
          <note pos="48" pan="0" len="12" key="40" vol="100"/>
          <note pos="48" pan="0" len="12" key="36" vol="100"/>
          <note pos="72" pan="0" len="12" key="42" vol="100"/>
          <note pos="96" pan="0" len="12" key="36" vol="100"/>
          <note pos="120" pan="0" len="12" key="36" vol="100"/>
          <note pos="144" pan="0" len="12" key="40" vol="100"/>
          <note pos="144" pan="0" len="12" key="36" vol="100"/>
          <note pos="168" pan="0" len="12" key="36" vol="100"/>
        </midiclip>
        <midiclip pos="9792" type="1" muted="0" name="" steps="16">
          <note pos="0" pan="0" len="12" key="36" vol="100"/>
          <note pos="24" pan="0" len="12" key="44" vol="100"/>
          <note pos="24" pan="0" len="12" key="36" vol="100"/>
          <note pos="48" pan="0" len="12" key="40" vol="100"/>
          <note pos="72" pan="0" len="12" key="44" vol="100"/>
          <note pos="72" pan="0" len="12" key="36" vol="100"/>
          <note pos="84" pan="0" len="12" key="38" vol="100"/>
          <note pos="96" pan="0" len="12" key="36" vol="100"/>
          <note pos="120" pan="0" len="12" key="44" vol="100"/>
          <note pos="120" pan="0" len="12" key="36" vol="100"/>
          <note pos="144" pan="0" len="12" key="40" vol="100"/>
          <note pos="168" pan="0" len="12" key="44" vol="100"/>
          <note pos="168" pan="0" len="12" key="36" vol="100"/>
          <note pos="192" pan="0" len="12" key="36" vol="100"/>
          <note pos="216" pan="0" len="12" key="44" vol="100"/>
          <note pos="216" pan="0" len="12" key="36" vol="100"/>
          <note pos="240" pan="0" len="12" key="40" vol="100"/>
          <note pos="264" pan="0" len="12" key="44" vol="100"/>
          <note pos="264" pan="0" len="12" key="36" vol="100"/>
          <note pos="276" pan="0" len="12" key="38" vol="100"/>
          <note pos="288" pan="0" len="12" key="36" vol="100"/>
          <note pos="312" pan="0" len="12" key="44" vol="100"/>
          <note pos="312" pan="0" len="12" key="36" vol="100"/>
          <note pos="336" pan="0" len="12" key="40" vol="100"/>
          <note pos="348" pan="0" len="12" key="42" vol="100"/>
          <note pos="360" pan="0" len="12" key="44" vol="100"/>
          <note pos="360" pan="0" len="12" key="36" vol="100"/>
        </midiclip>
        <midiclip pos="10176" type="1" muted="0" name="" steps="16">
          <note pos="0" pan="0" len="12" key="36" vol="100"/>
          <note pos="24" pan="0" len="12" key="44" vol="100"/>
          <note pos="24" pan="0" len="12" key="36" vol="100"/>
          <note pos="48" pan="0" len="12" key="40" vol="100"/>
          <note pos="72" pan="0" len="12" key="44" vol="100"/>
          <note pos="72" pan="0" len="12" key="36" vol="100"/>
          <note pos="84" pan="0" len="12" key="38" vol="100"/>
          <note pos="96" pan="0" len="12" key="36" vol="100"/>
          <note pos="120" pan="0" len="12" key="44" vol="100"/>
          <note pos="120" pan="0" len="12" key="36" vol="100"/>
          <note pos="144" pan="0" len="12" key="40" vol="100"/>
          <note pos="168" pan="0" len="12" key="44" vol="100"/>
          <note pos="168" pan="0" len="12" key="36" vol="100"/>
          <note pos="192" pan="0" len="12" key="36" vol="100"/>
          <note pos="216" pan="0" len="12" key="44" vol="100"/>
          <note pos="216" pan="0" len="12" key="36" vol="100"/>
          <note pos="240" pan="0" len="12" key="40" vol="100"/>
          <note pos="264" pan="0" len="12" key="44" vol="100"/>
          <note pos="264" pan="0" len="12" key="36" vol="100"/>
          <note pos="276" pan="0" len="12" key="38" vol="100"/>
          <note pos="288" pan="0" len="12" key="36" vol="100"/>
          <note pos="312" pan="0" len="12" key="44" vol="100"/>
          <note pos="312" pan="0" len="12" key="36" vol="100"/>
          <note pos="336" pan="0" len="12" key="40" vol="100"/>
          <note pos="348" pan="0" len="12" key="42" vol="100"/>
          <note pos="360" pan="0" len="12" key="44" vol="100"/>
          <note pos="360" pan="0" len="12" key="36" vol="100"/>
        </midiclip>
        <midiclip pos="10560" type="1" muted="0" name="" steps="16">
          <note pos="0" pan="0" len="12" key="36" vol="100"/>
          <note pos="24" pan="0" len="12" key="44" vol="100"/>
          <note pos="24" pan="0" len="12" key="36" vol="100"/>
          <note pos="48" pan="0" len="12" key="40" vol="100"/>
          <note pos="72" pan="0" len="12" key="44" vol="100"/>
          <note pos="72" pan="0" len="12" key="36" vol="100"/>
          <note pos="84" pan="0" len="12" key="38" vol="100"/>
          <note pos="96" pan="0" len="12" key="36" vol="100"/>
          <note pos="120" pan="0" len="12" key="44" vol="100"/>
          <note pos="120" pan="0" len="12" key="36" vol="100"/>
          <note pos="144" pan="0" len="12" key="40" vol="100"/>
          <note pos="168" pan="0" len="12" key="44" vol="100"/>
          <note pos="168" pan="0" len="12" key="36" vol="100"/>
          <note pos="192" pan="0" len="12" key="36" vol="100"/>
          <note pos="216" pan="0" len="12" key="44" vol="100"/>
          <note pos="216" pan="0" len="12" key="36" vol="100"/>
          <note pos="240" pan="0" len="12" key="40" vol="100"/>
          <note pos="264" pan="0" len="12" key="44" vol="100"/>
          <note pos="264" pan="0" len="12" key="36" vol="100"/>
          <note pos="276" pan="0" len="12" key="38" vol="100"/>
          <note pos="288" pan="0" len="12" key="36" vol="100"/>
          <note pos="312" pan="0" len="12" key="44" vol="100"/>
          <note pos="312" pan="0" len="12" key="36" vol="100"/>
          <note pos="336" pan="0" len="12" key="40" vol="100"/>
          <note pos="348" pan="0" len="12" key="42" vol="100"/>
          <note pos="360" pan="0" len="12" key="44" vol="100"/>
          <note pos="360" pan="0" len="12" key="36" vol="100"/>
        </midiclip>
        <midiclip pos="10944" type="1" muted="0" name="" steps="16">
          <note pos="0" pan="0" len="12" key="36" vol="100"/>
          <note pos="24" pan="0" len="12" key="44" vol="100"/>
          <note pos="24" pan="0" len="12" key="36" vol="100"/>
          <note pos="48" pan="0" len="12" key="40" vol="100"/>
          <note pos="72" pan="0" len="12" key="44" vol="100"/>
          <note pos="72" pan="0" len="12" key="36" vol="100"/>
          <note pos="84" pan="0" len="12" key="38" vol="100"/>
          <note pos="96" pan="0" len="12" key="36" vol="100"/>
          <note pos="120" pan="0" len="12" key="44" vol="100"/>
          <note pos="120" pan="0" len="12" key="36" vol="100"/>
          <note pos="144" pan="0" len="12" key="40" vol="100"/>
          <note pos="168" pan="0" len="12" key="44" vol="100"/>
          <note pos="168" pan="0" len="12" key="36" vol="100"/>
          <note pos="192" pan="0" len="12" key="36" vol="100"/>
          <note pos="216" pan="0" len="12" key="44" vol="100"/>
          <note pos="216" pan="0" len="12" key="36" vol="100"/>
          <note pos="240" pan="0" len="12" key="40" vol="100"/>
          <note pos="264" pan="0" len="12" key="44" vol="100"/>
          <note pos="264" pan="0" len="12" key="36" vol="100"/>
          <note pos="276" pan="0" len="12" key="38" vol="100"/>
          <note pos="288" pan="0" len="12" key="36" vol="100"/>
          <note pos="312" pan="0" len="12" key="44" vol="100"/>
          <note pos="312" pan="0" len="12" key="36" vol="100"/>
          <note pos="336" pan="0" len="12" key="40" vol="100"/>
          <note pos="348" pan="0" len="12" key="42" vol="100"/>
          <note pos="360" pan="0" len="12" key="44" vol="100"/>
          <note pos="360" pan="0" len="12" key="36" vol="100"/>
        </midiclip>
      </track>
    </trackcontainer>
    <track type="6" mutedBeforeSolo="0" solo="0" muted="0" name="Automation track">
      <automationtrack/>
      <automationclip pos="0" mute="0" prog="0" len="192" tens="1" name="Numerator"/>
      <automationclip pos="0" mute="0" prog="0" len="192" tens="1" name="Denominator"/>
      <automationclip pos="0" mute="0" prog="0" len="192" tens="1" name="Tempo"/>
      <automationclip pos="0" mute="0" prog="0" len="192" tens="1" name="Master volume"/>
      <automationclip pos="0" mute="0" prog="0" len="192" tens="1" name="Master pitch"/>
    </track>
    <mixer maximized="0" width="1049" x="2" y="586" visible="1" minimized="0" height="333">
      <mixerchannel soloed="0" volume="1.5" num="0" muted="0" name="Master">
        <fxchain enabled="1" numofeffects="0"/>
      </mixerchannel>
      <mixerchannel soloed="0" num="1" muted="0" name="Fade">
        <fxchain enabled="1" numofeffects="0"/>
        <volume id="15691" value="1" scale_type="linear"/>
        <send channel="0" amount="1"/>
      </mixerchannel>
      <mixerchannel soloed="0" volume="0.42" num="2" muted="0" name="Oboe">
        <fxchain enabled="1" numofeffects="1">
          <effect autoquit_denominator="4" autoquit="1" autoquit_syncmode="0" wet="1" name="vsteffect" on="1" autoquit_numerator="4" gate="0">
            <vsteffectcontrols plugin="Effects\Classic Reverb\Classic Reverb.dll" program="0" param3="3:Hi Damp:0.23" param2="2:Predelay:0.5" param4="4:Lo Cut:0.3" param5="5:Early Ref.:0.5" guivisible="0" param6="6:Mix:0.2" param0="0:Size:0.81" numparams="8" param1="1:Damping:0.24" param7="7:Level:0.5"/>
            <key>
              <attribute value="Effects\Classic Reverb\Classic Reverb.dll" name="file"/>
            </key>
          </effect>
        </fxchain>
        <send channel="1" amount="1"/>
      </mixerchannel>
      <mixerchannel soloed="0" volume="0.55" num="3" muted="0" name="Sax">
        <fxchain enabled="1" numofeffects="2">
          <effect autoquit_denominator="4" autoquit="1" autoquit_syncmode="0" wet="1" name="vsteffect" on="1" autoquit_numerator="4" gate="0">
            <vsteffectcontrols plugin="Effects\Classic Reverb\Classic Reverb.dll" program="0" param3="3:Hi Damp:0.36" param2="2:Predelay:0.5" param4="4:Lo Cut:0.3" param5="5:Early Ref.:0" guivisible="0" param6="6:Mix:0.2" param0="0:Size:0.68" numparams="8" param1="1:Damping:0.28" param7="7:Level:0.5"/>
            <key>
              <attribute value="Effects\Classic Reverb\Classic Reverb.dll" name="file"/>
            </key>
          </effect>
          <effect autoquit_denominator="4" autoquit="1" autoquit_syncmode="0" wet="1" name="vsteffect" on="1" autoquit_numerator="4" gate="0">
            <vsteffectcontrols numparams="14" param9="9:Quality:0.7" param1="1:Mono:0" param8="8:Ping-Pong:0" param4="4:T.S.N.:0" param0="0:Pan:0.5" param10="10:Low Cut:0" param2="2:Type:0.5" plugin="Effects\Classic Delay\Classic Delay.dll" param3="3:Sync:1" param7="7:Feedback:0.4" guivisible="0" param12="12:Mix:0.1" param13="13:Level:0.5" param11="11:Hi Cut:0.9" param5="5:T.S.D.:0.33" program="0" param6="6:Time:0.5"/>
            <key>
              <attribute value="Effects\Classic Delay\Classic Delay.dll" name="file"/>
            </key>
          </effect>
        </fxchain>
        <send channel="1" amount="1"/>
      </mixerchannel>
      <mixerchannel soloed="0" volume="1.35" num="4" muted="0" name="Drums">
        <fxchain enabled="1" numofeffects="2">
          <effect autoquit_denominator="4" autoquit="1" autoquit_syncmode="0" wet="1" name="vsteffect" on="1" autoquit_numerator="4" gate="0">
            <vsteffectcontrols plugin="Effects\Classic Reverb\Classic Reverb.dll" program="0" param3="3:Hi Damp:0.5" param2="2:Predelay:0.5" param4="4:Lo Cut:0.3" param5="5:Early Ref.:0" guivisible="0" param6="6:Mix:0.1" param0="0:Size:0.88" numparams="8" param1="1:Damping:0.3" param7="7:Level:0.5"/>
            <key>
              <attribute value="Effects\Classic Reverb\Classic Reverb.dll" name="file"/>
            </key>
          </effect>
          <effect autoquit_denominator="4" autoquit="1" autoquit_syncmode="0" wet="1" name="vsteffect" on="1" autoquit_numerator="4" gate="0">
            <vsteffectcontrols numparams="14" param9="9:Quality:0" param1="1:Mono:0" param8="8:Ping-Pong:0" param4="4:T.S.N.:0" param0="0:Pan:0.5" param10="10:Low Cut:0" param2="2:Type:0.5" plugin="Effects\Classic Delay\Classic Delay.dll" param3="3:Sync:1" param7="7:Feedback:0" guivisible="0" param12="12:Mix:0.1" param13="13:Level:0.5" param11="11:Hi Cut:0.9" param5="5:T.S.D.:0.26" program="0" param6="6:Time:0.5"/>
            <key>
              <attribute value="Effects\Classic Delay\Classic Delay.dll" name="file"/>
            </key>
          </effect>
        </fxchain>
        <send channel="1" amount="1"/>
      </mixerchannel>
      <mixerchannel soloed="0" volume="1.25" num="5" muted="0" name="Bass">
        <fxchain enabled="1" numofeffects="1">
          <effect autoquit_denominator="4" autoquit="1" autoquit_syncmode="0" wet="1" name="vsteffect" on="1" autoquit_numerator="4" gate="0">
            <vsteffectcontrols plugin="Effects\Classic Reverb\Classic Reverb.dll" program="0" param3="3:Hi Damp:0.5" param2="2:Predelay:0.5" param4="4:Lo Cut:0.3" param5="5:Early Ref.:0" guivisible="0" param6="6:Mix:0.2" param0="0:Size:0.74" numparams="8" param1="1:Damping:0.3" param7="7:Level:0.5"/>
            <key>
              <attribute value="Effects\Classic Reverb\Classic Reverb.dll" name="file"/>
            </key>
          </effect>
        </fxchain>
        <send channel="1" amount="1"/>
      </mixerchannel>
      <mixerchannel soloed="0" volume="0.22" num="6" muted="0" name="Piano">
        <fxchain enabled="1" numofeffects="2">
          <effect autoquit_denominator="4" autoquit="1" autoquit_syncmode="0" wet="1" name="vsteffect" on="1" autoquit_numerator="4" gate="0">
            <vsteffectcontrols plugin="Effects\Classic Reverb\Classic Reverb.dll" program="0" param3="3:Hi Damp:0.33" param2="2:Predelay:0.5" param4="4:Lo Cut:0.3" param5="5:Early Ref.:0" guivisible="0" param6="6:Mix:0.18" param0="0:Size:0.87" numparams="8" param1="1:Damping:0.28" param7="7:Level:0.5"/>
            <key>
              <attribute value="Effects\Classic Reverb\Classic Reverb.dll" name="file"/>
            </key>
          </effect>
          <effect autoquit_denominator="4" autoquit="1" autoquit_syncmode="0" wet="1" name="vsteffect" on="1" autoquit_numerator="4" gate="0">
            <vsteffectcontrols numparams="14" param9="9:Quality:0.5" param1="1:Mono:0" param8="8:Ping-Pong:0" param4="4:T.S.N.:0" param0="0:Pan:0.5" param10="10:Low Cut:0" param2="2:Type:0.5" plugin="Effects\Classic Delay\Classic Delay.dll" param3="3:Sync:1" param7="7:Feedback:0.25" guivisible="0" param12="12:Mix:0.12" param13="13:Level:0.5" param11="11:Hi Cut:0.9" param5="5:T.S.D.:0.47" program="0" param6="6:Time:0.5"/>
            <key>
              <attribute value="Effects\Classic Delay\Classic Delay.dll" name="file"/>
            </key>
          </effect>
        </fxchain>
        <send channel="1" amount="1"/>
      </mixerchannel>
      <mixerchannel soloed="0" volume="0.28" num="7" muted="0" name="Guitar">
        <fxchain enabled="1" numofeffects="2">
          <effect autoquit_denominator="4" autoquit="1" autoquit_syncmode="0" wet="1" name="vsteffect" on="1" autoquit_numerator="4" gate="0">
            <vsteffectcontrols plugin="Effects\Classic Reverb\Classic Reverb.dll" program="0" param3="3:Hi Damp:0.39" param2="2:Predelay:0.5" param4="4:Lo Cut:0.3" param5="5:Early Ref.:0" guivisible="0" param6="6:Mix:0.3" param0="0:Size:0.87" numparams="8" param1="1:Damping:0.13" param7="7:Level:0.5"/>
            <key>
              <attribute value="Effects\Classic Reverb\Classic Reverb.dll" name="file"/>
            </key>
          </effect>
          <effect autoquit_denominator="4" autoquit="1" autoquit_syncmode="0" wet="1" name="vsteffect" on="1" autoquit_numerator="4" gate="0">
            <vsteffectcontrols numparams="14" param9="9:Quality:0.7" param1="1:Mono:0" param8="8:Ping-Pong:1" param4="4:T.S.N.:0.01" param0="0:Pan:0" param10="10:Low Cut:0" param2="2:Type:0.5" plugin="Effects\Classic Delay\Classic Delay.dll" param3="3:Sync:1" param7="7:Feedback:0.7" guivisible="0" param12="12:Mix:0.2" param13="13:Level:0.5" param11="11:Hi Cut:0.9" param5="5:T.S.D.:0.53" program="0" param6="6:Time:0.5"/>
            <key>
              <attribute value="Effects\Classic Delay\Classic Delay.dll" name="file"/>
            </key>
          </effect>
        </fxchain>
        <send channel="1" amount="1"/>
      </mixerchannel>
    </mixer>
    <ControllerRackView maximized="0" width="350" x="550" y="475" visible="0" minimized="0" height="200"/>
    <pianoroll maximized="0" width="970" x="77" y="182" visible="1" minimized="0" height="602"/>
    <automationeditor maximized="0" width="860" x="984" y="253" visible="0" minimized="0" height="400"/>
    <projectnotes maximized="0" width="799" x="1054" y="1" visible="1" minimized="0" height="918"><![CDATA[<!DOCTYPE HTML PUBLIC "-//W3C//DTD HTML 4.0//EN" "http://www.w3.org/TR/REC-html40/strict.dtd">
<html><head><meta name="qrichtext" content="1" /><style type="text/css">
p, li { white-space: pre-wrap; }
</style></head><body style=" font-family:'MS Shell Dlg 2'; font-size:8.25pt; font-weight:400; font-style:normal;">
<p style=" margin-top:0px; margin-bottom:0px; margin-left:0px; margin-right:0px; -qt-block-indent:0; text-indent:0px;"><span style=" color:#e0e0e0;">Greetings.</span></p>
<p style=" margin-top:0px; margin-bottom:0px; margin-left:0px; margin-right:0px; -qt-block-indent:0; text-indent:0px;"><span style=" color:#e0e0e0;">Please use this in LMMS 1.3 or higher. Previous versions require editing to load correctly.</span></p>
<p style="-qt-paragraph-type:empty; margin-top:0px; margin-bottom:0px; margin-left:0px; margin-right:0px; -qt-block-indent:0; text-indent:0px; color:#e0e0e0;"><br /></p>
<p style=" margin-top:0px; margin-bottom:0px; margin-left:0px; margin-right:0px; -qt-block-indent:0; text-indent:0px;"><span style=" color:#e0e0e0;">Instruments:</span></p>
<p style=" margin-top:0px; margin-bottom:0px; margin-left:0px; margin-right:0px; -qt-block-indent:0; text-indent:0px;">Touhou.sf2: The venerable Touhou soundfont. Freely available.</p>
<p style=" margin-top:0px; margin-bottom:0px; margin-left:0px; margin-right:0px; -qt-block-indent:0; text-indent:0px;">Pseudo_Realistic_T_Sax_edit.sf2: An even-volume edit of the Pseudo_Realistic_T_Sax.sf2 on Musical Artifacts. No current known license holder, and no one has claimed ownership.</p>
<p style=" margin-top:0px; margin-bottom:0px; margin-left:0px; margin-right:0px; -qt-block-indent:0; text-indent:0px;">SGM-V2.01.sf2: The good ol' SGM soundfont. SF2 is freely available.</p>
<p style=" margin-top:0px; margin-bottom:0px; margin-left:0px; margin-right:0px; -qt-block-indent:0; text-indent:0px;">drums_ken_ardency_mono.sf: You can find drums_ken_ardency.sf2 on the internet. This is a mono edit that keeps stereo samples, yet removes the toms being shifted left and right.</p>
<p style="-qt-paragraph-type:empty; margin-top:0px; margin-bottom:0px; margin-left:0px; margin-right:0px; -qt-block-indent:0; text-indent:0px;"><br /></p>
<p style=" margin-top:0px; margin-bottom:0px; margin-left:0px; margin-right:0px; -qt-block-indent:0; text-indent:0px;"><span style=" color:#e0e0e0;">Effects:</span></p>
<p style=" margin-top:0px; margin-bottom:0px; margin-left:0px; margin-right:0px; -qt-block-indent:0; text-indent:0px;"><span style=" color:#e0e0e0;">Classic Reverb, Classic Delay: Kjrhus Audio Classic Collection. Should be available even in the trial version of Acoustica's Mixcraft.</span></p>
<p style="-qt-paragraph-type:empty; margin-top:0px; margin-bottom:0px; margin-left:0px; margin-right:0px; -qt-block-indent:0; text-indent:0px; color:#e0e0e0;"><br /></p>
<p style=" margin-top:0px; margin-bottom:0px; margin-left:0px; margin-right:0px; -qt-block-indent:0; text-indent:0px;"><span style=" color:#e0e0e0;">Released as .mmp, adjust paths as desired.</span></p>
<p style="-qt-paragraph-type:empty; margin-top:0px; margin-bottom:0px; margin-left:0px; margin-right:0px; -qt-block-indent:0; text-indent:0px; color:#e0e0e0;"><br /></p>
<p style="-qt-paragraph-type:empty; margin-top:0px; margin-bottom:0px; margin-left:0px; margin-right:0px; -qt-block-indent:0; text-indent:0px; color:#e0e0e0;"><br /></p>
<p style=" margin-top:0px; margin-bottom:0px; margin-left:0px; margin-right:0px; -qt-block-indent:0; text-indent:0px;">Please note that the author explicitely wishes to have eventual derivates or redistributions distributed ONLY as .mmp files, not .mmpz.</p>
<p style=" margin-top:0px; margin-bottom:0px; margin-left:0px; margin-right:0px; -qt-block-indent:0; text-indent:0px;">There is nothing the license can do from stopping you as saving it as .mmpz, except that the author will insult you severely.</p>
<p style="-qt-paragraph-type:empty; margin-top:0px; margin-bottom:0px; margin-left:0px; margin-right:0px; -qt-block-indent:0; text-indent:0px;"><br /></p>
<p style=" margin-top:0px; margin-bottom:0px; margin-left:0px; margin-right:0px; -qt-block-indent:0; text-indent:0px;">Should you have received this file as an .mmpz, please insult its forwarder.</p>
<p style=" margin-top:0px; margin-bottom:0px; margin-left:0px; margin-right:0px; -qt-block-indent:0; text-indent:0px;">To convert the file into .mmp, follow these steps:</p>
<p style="-qt-paragraph-type:empty; margin-top:0px; margin-bottom:0px; margin-left:0px; margin-right:0px; -qt-block-indent:0; text-indent:0px;"><br /></p>
<p style=" margin-top:0px; margin-bottom:0px; margin-left:0px; margin-right:0px; -qt-block-indent:0; text-indent:0px;">1.: Create a a file called &quot;Decompress.cmd&quot; in the LMMS directory. (Where lmms.exe is located.)</p>
<p style=" margin-top:0px; margin-bottom:0px; margin-left:0px; margin-right:0px; -qt-block-indent:0; text-indent:0px;">2.: Right click on file, click &quot;Edit&quot;.</p>
<p style=" margin-top:0px; margin-bottom:0px; margin-left:0px; margin-right:0px; -qt-block-indent:0; text-indent:0px;">3.: Put the following line into the file:</p>
<p style="-qt-paragraph-type:empty; margin-top:0px; margin-bottom:0px; margin-left:0px; margin-right:0px; -qt-block-indent:0; text-indent:0px;"><br /></p>
<p style=" margin-top:0px; margin-bottom:0px; margin-left:0px; margin-right:0px; -qt-block-indent:0; text-indent:0px;">&quot;%~dp0LMMS.exe&quot; -d &quot;%*&quot; &gt; &quot;%*.mmp&quot;</p>
<p style="-qt-paragraph-type:empty; margin-top:0px; margin-bottom:0px; margin-left:0px; margin-right:0px; -qt-block-indent:0; text-indent:0px;"><br /></p>
<p style=" margin-top:0px; margin-bottom:0px; margin-left:0px; margin-right:0px; -qt-block-indent:0; text-indent:0px;">This does the following:</p>
<p style=" margin-top:0px; margin-bottom:0px; margin-left:0px; margin-right:0px; -qt-block-indent:0; text-indent:0px;">%~dp0 return the folder where the .cmd file is located.</p>
<p style=" margin-top:0px; margin-bottom:0px; margin-left:0px; margin-right:0px; -qt-block-indent:0; text-indent:0px;">It then calls LMMS.exe inside that folder.</p>
<p style=" margin-top:0px; margin-bottom:0px; margin-left:0px; margin-right:0px; -qt-block-indent:0; text-indent:0px;">-d is the decompress option for an .mmpz file.</p>
<p style=" margin-top:0px; margin-bottom:0px; margin-left:0px; margin-right:0px; -qt-block-indent:0; text-indent:0px;">%* returns any parameters given to the .cmd file.</p>
<p style=" margin-top:0px; margin-bottom:0px; margin-left:0px; margin-right:0px; -qt-block-indent:0; text-indent:0px;">&gt; sends the output into a file.</p>
<p style="-qt-paragraph-type:empty; margin-top:0px; margin-bottom:0px; margin-left:0px; margin-right:0px; -qt-block-indent:0; text-indent:0px;"><br /></p>
<p style=" margin-top:0px; margin-bottom:0px; margin-left:0px; margin-right:0px; -qt-block-indent:0; text-indent:0px;">If you drag an .mmpz file onto the .cmd file, it will decompress it into &quot;[filename].mmpz.mmp&quot;, at the original location.</p></body></html>]]></projectnotes>
    <timeline lp0pos="9792" lpstate="1" stopbehaviour="1" lp1pos="11328"/>
    <controllers/>
    <scales>
      <scale description="empty">
        <interval den="1" num="1"/>
      </scale>
      <scale description="empty">
        <interval den="1" num="1"/>
      </scale>
      <scale description="empty">
        <interval den="1" num="1"/>
      </scale>
      <scale description="empty">
        <interval den="1" num="1"/>
      </scale>
      <scale description="empty">
        <interval den="1" num="1"/>
      </scale>
      <scale description="empty">
        <interval den="1" num="1"/>
      </scale>
      <scale description="empty">
        <interval den="1" num="1"/>
      </scale>
      <scale description="empty">
        <interval den="1" num="1"/>
      </scale>
      <scale description="empty">
        <interval den="1" num="1"/>
      </scale>
      <scale description="empty">
        <interval den="1" num="1"/>
      </scale>
    </scales>
    <keymaps>
      <keymap middle_key="60" base_key="69" first_key="0" description="empty" last_key="127" base_freq="440"/>
      <keymap middle_key="60" base_key="69" first_key="0" description="empty" last_key="127" base_freq="440"/>
      <keymap middle_key="60" base_key="69" first_key="0" description="empty" last_key="127" base_freq="440"/>
      <keymap middle_key="60" base_key="69" first_key="0" description="empty" last_key="127" base_freq="440"/>
      <keymap middle_key="60" base_key="69" first_key="0" description="empty" last_key="127" base_freq="440"/>
      <keymap middle_key="60" base_key="69" first_key="0" description="empty" last_key="127" base_freq="440"/>
      <keymap middle_key="60" base_key="69" first_key="0" description="empty" last_key="127" base_freq="440"/>
      <keymap middle_key="60" base_key="69" first_key="0" description="empty" last_key="127" base_freq="440"/>
      <keymap middle_key="60" base_key="69" first_key="0" description="empty" last_key="127" base_freq="440"/>
      <keymap middle_key="60" base_key="69" first_key="0" description="empty" last_key="127" base_freq="440"/>
    </keymaps>
  </song>
</lmms-project>
