<?xml version="1.0"?>
<!DOCTYPE lmms-project>
<lmms-project version="23" creatorversion="1.3.0-alpha.1.231+g49b1f83e4" type="song" creator="LMMS">
  <head timesig_numerator="4" mastervol="100" masterpitch="0" bpm="77" timesig_denominator="4"/>
  <song>
    <trackcontainer height="482" type="song" visible="1" minimized="0" x="1" width="773" maximized="0" y="1">
      <track name="Proteus3" mutedBeforeSolo="0" type="0" muted="0" solo="0">
        <instrumenttrack scale="0" pan="0" enabled="0" keymap="0" enablecc="0" range_import="1" usemasterpitch="1" vol="101.6" basenote="69" lastkey="127" pitch="0" firstkey="0" pitchrange="1" mixch="3">
          <midicontrollers cc59="0" cc89="0" cc29="0" cc88="0" cc90="0" cc57="0" cc44="0" cc67="0" cc97="0" cc119="0" cc62="0" cc73="0" cc99="0" cc27="0" cc15="0" cc102="0" cc126="0" cc23="0" cc32="0" cc103="0" cc114="0" cc116="0" cc0="0" cc37="0" cc26="0" cc4="0" cc101="0" cc78="0" cc100="0" cc66="0" cc55="0" cc16="0" cc71="0" cc61="0" cc6="0" cc7="0" cc113="0" cc76="0" cc93="0" cc38="0" cc28="0" cc91="0" cc5="0" cc86="0" cc18="0" cc24="0" cc75="0" cc115="0" cc117="0" cc79="0" cc85="0" cc60="0" cc48="0" cc74="0" cc120="0" cc122="0" cc36="0" cc104="0" cc8="0" cc49="0" cc118="0" cc40="0" cc50="0" cc96="0" cc77="0" cc3="0" cc83="0" cc41="0" cc124="0" cc1="0" cc112="0" cc56="0" cc125="0" cc94="0" cc108="0" cc46="0" cc69="0" cc42="0" cc68="0" cc2="0" cc12="0" cc107="0" cc17="0" cc54="0" cc64="0" cc31="0" cc30="0" cc43="0" cc20="0" cc72="0" cc51="0" cc35="0" cc58="0" cc19="0" cc123="0" cc9="0" cc106="0" cc82="0" cc65="0" cc110="0" cc47="0" cc87="0" cc84="0" cc53="0" cc22="0" cc34="0" cc63="0" cc39="0" cc13="0" cc33="0" cc92="0" cc81="0" cc105="0" cc95="0" cc121="0" cc111="0" cc11="0" cc52="0" cc14="0" cc45="0" cc21="0" cc109="0" cc10="0" cc25="0" cc98="0" cc70="0" cc80="0" cc127="0"/>
          <instrument name="sf2player">
            <sf2player reverbRoomSize="0.2" chorusDepth="8" patch="96" chorusSpeed="0.3" reverbOn="0" src="usersoundfont:Proteus3.sf2" reverbDamping="0" chorusLevel="2" bank="0" reverbLevel="0.9" chorusNum="3" reverbWidth="0.5" chorusOn="0" gain="0.5">
              <key/>
            </sf2player>
          </instrument>
          <eldata fwet="0" fcut="14000" fres="0.5" ftype="0">
            <elvol lspd_denominator="4" dec="0.5" latt="0" sustain="0.5" lspd_syncmode="0" ctlenvamt="0" att="0" lshp="0" x100="0" lamt="0" lspd_numerator="4" hold="0.5" rel="0.1" pdel="0" lspd="0.1" amt="0" lpdel="0" userwavefile=""/>
            <elcut lspd_denominator="4" dec="0.5" latt="0" sustain="0.5" lspd_syncmode="0" ctlenvamt="0" att="0" lshp="0" x100="0" lamt="0" lspd_numerator="4" hold="0.5" rel="0.1" pdel="0" lspd="0.1" amt="0" lpdel="0" userwavefile=""/>
            <elres lspd_denominator="4" dec="0.5" latt="0" sustain="0.5" lspd_syncmode="0" ctlenvamt="0" att="0" lshp="0" x100="0" lamt="0" lspd_numerator="4" hold="0.5" rel="0.1" pdel="0" lspd="0.1" amt="0" lpdel="0" userwavefile=""/>
          </eldata>
          <chordcreator chord-enabled="0" chordrange="1" chord="0"/>
          <arpeggiator arp="0" arptime_syncmode="0" arpcycle="0" arprepeats="1" arptime="200" arptime_denominator="4" arpmode="0" arptime_numerator="4" arp-enabled="0" arprange="1" arpgate="100" arpskip="0" arpmiss="0" arpdir="0"/>
          <midiport inputcontroller="0" fixedoutputnote="-1" outputprogram="1" outputchannel="1" readable="1" fixedoutputvelocity="-1" inputchannel="0" writable="0" outputcontroller="0" fixedinputvelocity="-1" basevelocity="63" inports=""/>
          <fxchain enabled="0" numofeffects="0"/>
        </instrumenttrack>
        <midiclip name="" steps="16" type="1" muted="0" pos="1536">
          <note pan="0" len="24" vol="100" pos="0" key="52"/>
          <note pan="0" len="12" vol="100" pos="0" key="40"/>
          <note pan="0" len="24" vol="100" pos="12" key="28"/>
          <note pan="0" len="12" vol="100" pos="24" key="52"/>
          <note pan="0" len="12" vol="100" pos="36" key="64"/>
          <note pan="0" len="12" vol="100" pos="36" key="59"/>
          <note pan="0" len="36" vol="100" pos="36" key="40"/>
          <note pan="0" len="24" vol="100" pos="72" key="64"/>
          <note pan="0" len="24" vol="100" pos="72" key="59"/>
          <note pan="0" len="24" vol="100" pos="72" key="40"/>
          <note pan="0" len="24" vol="100" pos="96" key="54"/>
          <note pan="0" len="12" vol="100" pos="96" key="38"/>
          <note pan="0" len="24" vol="100" pos="108" key="26"/>
          <note pan="0" len="12" vol="100" pos="120" key="54"/>
          <note pan="0" len="12" vol="100" pos="132" key="66"/>
          <note pan="0" len="12" vol="100" pos="132" key="62"/>
          <note pan="0" len="36" vol="100" pos="132" key="38"/>
          <note pan="0" len="24" vol="100" pos="168" key="66"/>
          <note pan="0" len="24" vol="100" pos="168" key="62"/>
          <note pan="0" len="24" vol="100" pos="168" key="38"/>
          <note pan="0" len="24" vol="100" pos="192" key="55"/>
          <note pan="0" len="24" vol="100" pos="192" key="45"/>
          <note pan="0" len="12" vol="100" pos="216" key="55"/>
          <note pan="0" len="24" vol="100" pos="216" key="33"/>
          <note pan="0" len="12" vol="100" pos="228" key="67"/>
          <note pan="0" len="12" vol="100" pos="228" key="57"/>
          <note pan="0" len="24" vol="100" pos="240" key="45"/>
          <note pan="0" len="24" vol="100" pos="264" key="67"/>
          <note pan="0" len="24" vol="100" pos="264" key="57"/>
          <note pan="0" len="24" vol="100" pos="264" key="48"/>
          <note pan="0" len="24" vol="100" pos="288" key="54"/>
          <note pan="0" len="12" vol="100" pos="288" key="47"/>
          <note pan="0" len="24" vol="100" pos="300" key="35"/>
          <note pan="0" len="12" vol="100" pos="312" key="54"/>
          <note pan="0" len="12" vol="100" pos="324" key="66"/>
          <note pan="0" len="12" vol="100" pos="324" key="59"/>
          <note pan="0" len="36" vol="100" pos="324" key="47"/>
          <note pan="0" len="24" vol="100" pos="360" key="66"/>
          <note pan="0" len="24" vol="100" pos="360" key="59"/>
          <note pan="0" len="24" vol="100" pos="360" key="43"/>
          <note pan="0" len="24" vol="100" pos="384" key="52"/>
          <note pan="0" len="12" vol="100" pos="384" key="40"/>
          <note pan="0" len="24" vol="100" pos="396" key="28"/>
          <note pan="0" len="12" vol="100" pos="408" key="52"/>
          <note pan="0" len="12" vol="100" pos="420" key="64"/>
          <note pan="0" len="12" vol="100" pos="420" key="59"/>
          <note pan="0" len="36" vol="100" pos="420" key="40"/>
          <note pan="0" len="24" vol="100" pos="456" key="64"/>
          <note pan="0" len="24" vol="100" pos="456" key="59"/>
          <note pan="0" len="24" vol="100" pos="456" key="40"/>
          <note pan="0" len="24" vol="100" pos="480" key="54"/>
          <note pan="0" len="12" vol="100" pos="480" key="38"/>
          <note pan="0" len="24" vol="100" pos="492" key="26"/>
          <note pan="0" len="12" vol="100" pos="504" key="54"/>
          <note pan="0" len="12" vol="100" pos="516" key="66"/>
          <note pan="0" len="12" vol="100" pos="516" key="62"/>
          <note pan="0" len="36" vol="100" pos="516" key="38"/>
          <note pan="0" len="24" vol="100" pos="552" key="66"/>
          <note pan="0" len="24" vol="100" pos="552" key="62"/>
          <note pan="0" len="24" vol="100" pos="552" key="38"/>
          <note pan="0" len="24" vol="100" pos="576" key="55"/>
          <note pan="0" len="24" vol="100" pos="576" key="45"/>
          <note pan="0" len="12" vol="100" pos="600" key="55"/>
          <note pan="0" len="24" vol="100" pos="600" key="33"/>
          <note pan="0" len="12" vol="100" pos="612" key="67"/>
          <note pan="0" len="12" vol="100" pos="612" key="57"/>
          <note pan="0" len="24" vol="100" pos="624" key="45"/>
          <note pan="0" len="24" vol="100" pos="648" key="67"/>
          <note pan="0" len="24" vol="100" pos="648" key="57"/>
          <note pan="0" len="24" vol="100" pos="648" key="48"/>
          <note pan="0" len="24" vol="100" pos="672" key="54"/>
          <note pan="0" len="12" vol="100" pos="672" key="47"/>
          <note pan="0" len="24" vol="100" pos="684" key="35"/>
          <note pan="0" len="12" vol="100" pos="696" key="54"/>
          <note pan="0" len="12" vol="100" pos="708" key="66"/>
          <note pan="0" len="12" vol="100" pos="708" key="59"/>
          <note pan="0" len="36" vol="100" pos="708" key="47"/>
          <note pan="0" len="24" vol="100" pos="744" key="66"/>
          <note pan="0" len="24" vol="100" pos="744" key="59"/>
          <note pan="0" len="24" vol="100" pos="744" key="43"/>
        </midiclip>
        <midiclip name="" steps="16" type="1" muted="0" pos="3072">
          <note pan="0" len="12" vol="100" pos="0" key="67"/>
          <note pan="0" len="12" vol="100" pos="0" key="64"/>
          <note pan="0" len="12" vol="100" pos="0" key="59"/>
          <note pan="0" len="12" vol="100" pos="0" key="52"/>
          <note pan="0" len="12" vol="100" pos="12" key="67"/>
          <note pan="0" len="12" vol="100" pos="12" key="64"/>
          <note pan="0" len="12" vol="100" pos="12" key="59"/>
          <note pan="0" len="24" vol="100" pos="12" key="43"/>
          <note pan="0" len="24" vol="100" pos="36" key="67"/>
          <note pan="0" len="24" vol="100" pos="36" key="64"/>
          <note pan="0" len="24" vol="100" pos="36" key="58"/>
          <note pan="0" len="24" vol="100" pos="36" key="42"/>
          <note pan="0" len="36" vol="100" pos="60" key="67"/>
          <note pan="0" len="36" vol="100" pos="60" key="64"/>
          <note pan="0" len="36" vol="100" pos="60" key="57"/>
          <note pan="0" len="36" vol="100" pos="60" key="40"/>
          <note pan="0" len="12" vol="100" pos="96" key="66"/>
          <note pan="0" len="12" vol="100" pos="96" key="62"/>
          <note pan="0" len="12" vol="100" pos="96" key="57"/>
          <note pan="0" len="12" vol="100" pos="96" key="50"/>
          <note pan="0" len="12" vol="100" pos="108" key="66"/>
          <note pan="0" len="12" vol="100" pos="108" key="62"/>
          <note pan="0" len="12" vol="100" pos="108" key="57"/>
          <note pan="0" len="24" vol="100" pos="108" key="42"/>
          <note pan="0" len="24" vol="100" pos="132" key="66"/>
          <note pan="0" len="24" vol="100" pos="132" key="62"/>
          <note pan="0" len="24" vol="100" pos="132" key="56"/>
          <note pan="0" len="24" vol="100" pos="132" key="40"/>
          <note pan="0" len="36" vol="100" pos="156" key="66"/>
          <note pan="0" len="36" vol="100" pos="156" key="62"/>
          <note pan="0" len="36" vol="100" pos="156" key="55"/>
          <note pan="0" len="24" vol="100" pos="156" key="38"/>
          <note pan="0" len="12" vol="100" pos="180" key="43"/>
          <note pan="0" len="12" vol="100" pos="192" key="67"/>
          <note pan="0" len="12" vol="100" pos="192" key="59"/>
          <note pan="0" len="12" vol="100" pos="192" key="52"/>
          <note pan="0" len="24" vol="100" pos="192" key="47"/>
          <note pan="0" len="12" vol="100" pos="216" key="68"/>
          <note pan="0" len="12" vol="100" pos="216" key="63"/>
          <note pan="0" len="12" vol="100" pos="216" key="54"/>
          <note pan="0" len="24" vol="100" pos="216" key="48"/>
          <note pan="0" len="12" vol="100" pos="240" key="69"/>
          <note pan="0" len="12" vol="100" pos="240" key="63"/>
          <note pan="0" len="12" vol="100" pos="240" key="55"/>
          <note pan="0" len="24" vol="100" pos="240" key="47"/>
          <note pan="0" len="12" vol="100" pos="264" key="71"/>
          <note pan="0" len="12" vol="100" pos="264" key="64"/>
          <note pan="0" len="12" vol="100" pos="264" key="57"/>
          <note pan="0" len="24" vol="100" pos="264" key="48"/>
          <note pan="0" len="12" vol="100" pos="288" key="74"/>
          <note pan="0" len="12" vol="100" pos="288" key="66"/>
          <note pan="0" len="12" vol="100" pos="288" key="59"/>
          <note pan="0" len="12" vol="100" pos="288" key="47"/>
          <note pan="0" len="12" vol="100" pos="300" key="69"/>
          <note pan="0" len="12" vol="100" pos="300" key="64"/>
          <note pan="0" len="12" vol="100" pos="300" key="60"/>
          <note pan="0" len="24" vol="100" pos="300" key="43"/>
          <note pan="0" len="24" vol="100" pos="324" key="68"/>
          <note pan="0" len="24" vol="100" pos="324" key="63"/>
          <note pan="0" len="24" vol="100" pos="324" key="59"/>
          <note pan="0" len="24" vol="100" pos="324" key="42"/>
          <note pan="0" len="36" vol="100" pos="348" key="67"/>
          <note pan="0" len="36" vol="100" pos="348" key="62"/>
          <note pan="0" len="36" vol="100" pos="348" key="55"/>
          <note pan="0" len="36" vol="100" pos="348" key="40"/>
          <note pan="0" len="12" vol="100" pos="384" key="67"/>
          <note pan="0" len="12" vol="100" pos="384" key="64"/>
          <note pan="0" len="12" vol="100" pos="384" key="59"/>
          <note pan="0" len="12" vol="100" pos="384" key="40"/>
          <note pan="0" len="12" vol="100" pos="396" key="67"/>
          <note pan="0" len="12" vol="100" pos="396" key="64"/>
          <note pan="0" len="12" vol="100" pos="396" key="59"/>
          <note pan="0" len="24" vol="100" pos="396" key="28"/>
          <note pan="0" len="24" vol="100" pos="420" key="67"/>
          <note pan="0" len="24" vol="100" pos="420" key="64"/>
          <note pan="0" len="24" vol="100" pos="420" key="58"/>
          <note pan="0" len="24" vol="100" pos="420" key="40"/>
          <note pan="0" len="24" vol="100" pos="444" key="67"/>
          <note pan="0" len="24" vol="100" pos="444" key="64"/>
          <note pan="0" len="24" vol="100" pos="444" key="57"/>
          <note pan="0" len="36" vol="100" pos="444" key="40"/>
          <note pan="0" len="12" vol="100" pos="468" key="64"/>
          <note pan="0" len="12" vol="100" pos="468" key="57"/>
          <note pan="0" len="12" vol="100" pos="468" key="55"/>
          <note pan="0" len="12" vol="100" pos="480" key="66"/>
          <note pan="0" len="12" vol="100" pos="480" key="62"/>
          <note pan="0" len="12" vol="100" pos="480" key="57"/>
          <note pan="0" len="12" vol="100" pos="480" key="38"/>
          <note pan="0" len="12" vol="100" pos="492" key="66"/>
          <note pan="0" len="12" vol="100" pos="492" key="62"/>
          <note pan="0" len="12" vol="100" pos="492" key="57"/>
          <note pan="0" len="24" vol="100" pos="492" key="26"/>
          <note pan="0" len="24" vol="100" pos="516" key="66"/>
          <note pan="0" len="24" vol="100" pos="516" key="62"/>
          <note pan="0" len="24" vol="100" pos="516" key="56"/>
          <note pan="0" len="24" vol="100" pos="516" key="38"/>
          <note pan="0" len="24" vol="100" pos="540" key="66"/>
          <note pan="0" len="24" vol="100" pos="540" key="62"/>
          <note pan="0" len="24" vol="100" pos="540" key="55"/>
          <note pan="0" len="12" vol="100" pos="540" key="38"/>
          <note pan="0" len="24" vol="100" pos="552" key="26"/>
          <note pan="0" len="12" vol="100" pos="564" key="66"/>
          <note pan="0" len="12" vol="100" pos="564" key="64"/>
          <note pan="0" len="12" vol="100" pos="564" key="57"/>
          <note pan="0" len="36" vol="100" pos="576" key="67"/>
          <note pan="0" len="12" vol="100" pos="576" key="64"/>
          <note pan="0" len="12" vol="100" pos="576" key="59"/>
          <note pan="0" len="24" vol="100" pos="576" key="45"/>
          <note pan="0" len="24" vol="100" pos="588" key="64"/>
          <note pan="0" len="24" vol="100" pos="588" key="59"/>
          <note pan="0" len="24" vol="100" pos="600" key="33"/>
          <note pan="0" len="24" vol="100" pos="612" key="64"/>
          <note pan="0" len="24" vol="100" pos="612" key="59"/>
          <note pan="0" len="24" vol="100" pos="612" key="57"/>
          <note pan="0" len="24" vol="100" pos="624" key="45"/>
          <note pan="0" len="12" vol="100" pos="636" key="67"/>
          <note pan="0" len="12" vol="100" pos="636" key="64"/>
          <note pan="0" len="36" vol="100" pos="636" key="59"/>
          <note pan="0" len="24" vol="100" pos="648" key="64"/>
          <note pan="0" len="24" vol="100" pos="648" key="55"/>
          <note pan="0" len="24" vol="100" pos="648" key="48"/>
          <note pan="0" len="24" vol="100" pos="672" key="66"/>
          <note pan="0" len="36" vol="100" pos="672" key="63"/>
          <note pan="0" len="24" vol="100" pos="672" key="59"/>
          <note pan="0" len="12" vol="100" pos="672" key="47"/>
          <note pan="0" len="24" vol="100" pos="684" key="35"/>
          <note pan="0" len="12" vol="100" pos="696" key="59"/>
          <note pan="0" len="12" vol="100" pos="696" key="54"/>
          <note pan="0" len="24" vol="100" pos="708" key="67"/>
          <note pan="0" len="36" vol="100" pos="708" key="63"/>
          <note pan="0" len="24" vol="100" pos="708" key="59"/>
          <note pan="0" len="24" vol="100" pos="708" key="47"/>
          <note pan="0" len="12" vol="100" pos="732" key="67"/>
          <note pan="0" len="12" vol="100" pos="732" key="59"/>
          <note pan="0" len="12" vol="100" pos="732" key="35"/>
          <note pan="0" len="24" vol="100" pos="744" key="66"/>
          <note pan="0" len="24" vol="100" pos="744" key="63"/>
          <note pan="0" len="24" vol="100" pos="744" key="57"/>
          <note pan="0" len="24" vol="100" pos="744" key="42"/>
        </midiclip>
        <midiclip name="" steps="16" type="1" muted="0" pos="0">
          <note pan="0" len="12" vol="100" pos="0" key="40"/>
          <note pan="0" len="12" vol="100" pos="24" key="40"/>
          <note pan="0" len="12" vol="100" pos="48" key="40"/>
          <note pan="0" len="12" vol="100" pos="96" key="38"/>
          <note pan="0" len="12" vol="100" pos="120" key="38"/>
          <note pan="0" len="12" vol="100" pos="168" key="38"/>
          <note pan="0" len="12" vol="100" pos="192" key="45"/>
          <note pan="0" len="12" vol="100" pos="216" key="33"/>
          <note pan="0" len="12" vol="100" pos="240" key="45"/>
          <note pan="0" len="12" vol="100" pos="288" key="47"/>
          <note pan="0" len="12" vol="100" pos="336" key="47"/>
          <note pan="0" len="12" vol="100" pos="360" key="43"/>
          <note pan="0" len="12" vol="100" pos="384" key="40"/>
          <note pan="0" len="12" vol="100" pos="408" key="40"/>
          <note pan="0" len="12" vol="100" pos="432" key="40"/>
          <note pan="0" len="12" vol="100" pos="480" key="38"/>
          <note pan="0" len="12" vol="100" pos="504" key="38"/>
          <note pan="0" len="12" vol="100" pos="552" key="38"/>
          <note pan="0" len="12" vol="100" pos="576" key="45"/>
          <note pan="0" len="12" vol="100" pos="600" key="33"/>
          <note pan="0" len="12" vol="100" pos="624" key="45"/>
          <note pan="0" len="12" vol="100" pos="672" key="47"/>
          <note pan="0" len="12" vol="100" pos="720" key="48"/>
          <note pan="0" len="12" vol="100" pos="744" key="47"/>
        </midiclip>
        <midiclip name="" steps="16" type="1" muted="0" pos="768">
          <note pan="0" len="36" vol="100" pos="0" key="64"/>
          <note pan="0" len="12" vol="100" pos="0" key="40"/>
          <note pan="0" len="12" vol="100" pos="24" key="40"/>
          <note pan="0" len="36" vol="100" pos="36" key="59"/>
          <note pan="0" len="12" vol="100" pos="48" key="40"/>
          <note pan="0" len="36" vol="100" pos="72" key="62"/>
          <note pan="0" len="12" vol="100" pos="96" key="38"/>
          <note pan="0" len="36" vol="100" pos="108" key="57"/>
          <note pan="0" len="12" vol="100" pos="120" key="38"/>
          <note pan="0" len="144" vol="100" pos="144" key="59"/>
          <note pan="0" len="12" vol="100" pos="168" key="38"/>
          <note pan="0" len="12" vol="100" pos="192" key="45"/>
          <note pan="0" len="12" vol="100" pos="216" key="33"/>
          <note pan="0" len="12" vol="100" pos="240" key="45"/>
          <note pan="0" len="12" vol="100" pos="288" key="47"/>
          <note pan="0" len="12" vol="100" pos="336" key="47"/>
          <note pan="0" len="12" vol="100" pos="360" key="43"/>
          <note pan="0" len="36" vol="100" pos="384" key="64"/>
          <note pan="0" len="12" vol="100" pos="384" key="40"/>
          <note pan="0" len="12" vol="100" pos="408" key="40"/>
          <note pan="0" len="36" vol="100" pos="420" key="59"/>
          <note pan="0" len="12" vol="100" pos="432" key="40"/>
          <note pan="0" len="36" vol="100" pos="456" key="62"/>
          <note pan="0" len="12" vol="100" pos="480" key="69"/>
          <note pan="0" len="12" vol="100" pos="480" key="38"/>
          <note pan="0" len="24" vol="100" pos="492" key="57"/>
          <note pan="0" len="12" vol="100" pos="504" key="38"/>
          <note pan="0" len="12" vol="100" pos="516" key="52"/>
          <note pan="0" len="36" vol="100" pos="528" key="59"/>
          <note pan="0" len="12" vol="100" pos="552" key="38"/>
          <note pan="0" len="168" vol="100" pos="564" key="71"/>
          <note pan="0" len="12" vol="100" pos="576" key="45"/>
          <note pan="0" len="12" vol="100" pos="600" key="33"/>
          <note pan="0" len="12" vol="100" pos="624" key="45"/>
          <note pan="0" len="12" vol="100" pos="672" key="47"/>
          <note pan="0" len="24" vol="100" pos="696" key="43"/>
          <note pan="0" len="12" vol="100" pos="720" key="42"/>
          <note pan="0" len="24" vol="100" pos="744" key="41"/>
        </midiclip>
        <midiclip name="" steps="16" type="1" muted="0" pos="3840">
          <note pan="0" len="36" vol="100" pos="0" key="71"/>
          <note pan="0" len="36" vol="100" pos="0" key="67"/>
          <note pan="0" len="36" vol="100" pos="0" key="64"/>
          <note pan="0" len="36" vol="100" pos="0" key="59"/>
          <note pan="0" len="24" vol="100" pos="0" key="40"/>
          <note pan="0" len="24" vol="100" pos="24" key="40"/>
          <note pan="0" len="12" vol="100" pos="36" key="74"/>
          <note pan="0" len="12" vol="100" pos="36" key="71"/>
          <note pan="0" len="12" vol="100" pos="36" key="67"/>
          <note pan="0" len="12" vol="100" pos="36" key="64"/>
          <note pan="0" len="24" vol="100" pos="48" key="52"/>
          <note pan="0" len="24" vol="100" pos="72" key="69"/>
          <note pan="0" len="12" vol="100" pos="72" key="40"/>
          <note pan="0" len="12" vol="100" pos="84" key="39"/>
          <note pan="0" len="12" vol="100" pos="96" key="71"/>
          <note pan="0" len="12" vol="100" pos="96" key="66"/>
          <note pan="0" len="12" vol="100" pos="96" key="62"/>
          <note pan="0" len="12" vol="100" pos="96" key="57"/>
          <note pan="0" len="24" vol="100" pos="96" key="38"/>
          <note pan="0" len="12" vol="100" pos="120" key="66"/>
          <note pan="0" len="12" vol="100" pos="120" key="62"/>
          <note pan="0" len="12" vol="100" pos="120" key="57"/>
          <note pan="0" len="24" vol="100" pos="120" key="50"/>
          <note pan="0" len="12" vol="100" pos="144" key="66"/>
          <note pan="0" len="12" vol="100" pos="144" key="62"/>
          <note pan="0" len="12" vol="100" pos="144" key="57"/>
          <note pan="0" len="24" vol="100" pos="144" key="38"/>
          <note pan="0" len="12" vol="100" pos="168" key="66"/>
          <note pan="0" len="12" vol="100" pos="168" key="62"/>
          <note pan="0" len="12" vol="100" pos="168" key="57"/>
          <note pan="0" len="24" vol="100" pos="168" key="38"/>
          <note pan="0" len="36" vol="100" pos="192" key="67"/>
          <note pan="0" len="36" vol="100" pos="192" key="64"/>
          <note pan="0" len="36" vol="100" pos="192" key="60"/>
          <note pan="0" len="36" vol="100" pos="192" key="57"/>
          <note pan="0" len="24" vol="100" pos="192" key="45"/>
          <note pan="0" len="24" vol="100" pos="216" key="45"/>
          <note pan="0" len="12" vol="100" pos="228" key="69"/>
          <note pan="0" len="12" vol="100" pos="228" key="67"/>
          <note pan="0" len="12" vol="100" pos="228" key="64"/>
          <note pan="0" len="12" vol="100" pos="228" key="60"/>
          <note pan="0" len="24" vol="100" pos="240" key="45"/>
          <note pan="0" len="24" vol="100" pos="264" key="74"/>
          <note pan="0" len="12" vol="100" pos="264" key="43"/>
          <note pan="0" len="12" vol="100" pos="276" key="42"/>
          <note pan="0" len="24" vol="100" pos="288" key="71"/>
          <note pan="0" len="24" vol="100" pos="288" key="67"/>
          <note pan="0" len="24" vol="100" pos="288" key="64"/>
          <note pan="0" len="24" vol="100" pos="288" key="59"/>
          <note pan="0" len="24" vol="100" pos="288" key="40"/>
          <note pan="0" len="12" vol="100" pos="312" key="67"/>
          <note pan="0" len="12" vol="100" pos="312" key="64"/>
          <note pan="0" len="12" vol="100" pos="312" key="59"/>
          <note pan="0" len="24" vol="100" pos="312" key="40"/>
          <note pan="0" len="24" vol="100" pos="336" key="64"/>
          <note pan="0" len="24" vol="100" pos="336" key="62"/>
          <note pan="0" len="24" vol="100" pos="336" key="59"/>
          <note pan="0" len="24" vol="100" pos="336" key="55"/>
          <note pan="0" len="24" vol="100" pos="336" key="40"/>
          <note pan="0" len="12" vol="100" pos="360" key="66"/>
          <note pan="0" len="12" vol="100" pos="360" key="64"/>
          <note pan="0" len="12" vol="100" pos="360" key="59"/>
          <note pan="0" len="24" vol="100" pos="360" key="42"/>
          <note pan="0" len="36" vol="100" pos="384" key="71"/>
          <note pan="0" len="36" vol="100" pos="384" key="67"/>
          <note pan="0" len="36" vol="100" pos="384" key="64"/>
          <note pan="0" len="36" vol="100" pos="384" key="59"/>
          <note pan="0" len="24" vol="100" pos="384" key="43"/>
          <note pan="0" len="24" vol="100" pos="408" key="55"/>
          <note pan="0" len="12" vol="100" pos="420" key="74"/>
          <note pan="0" len="12" vol="100" pos="420" key="71"/>
          <note pan="0" len="12" vol="100" pos="420" key="67"/>
          <note pan="0" len="12" vol="100" pos="420" key="64"/>
          <note pan="0" len="24" vol="100" pos="432" key="43"/>
          <note pan="0" len="24" vol="100" pos="456" key="69"/>
          <note pan="0" len="12" vol="100" pos="456" key="42"/>
          <note pan="0" len="12" vol="100" pos="468" key="40"/>
          <note pan="0" len="12" vol="100" pos="480" key="71"/>
          <note pan="0" len="12" vol="100" pos="480" key="66"/>
          <note pan="0" len="12" vol="100" pos="480" key="62"/>
          <note pan="0" len="12" vol="100" pos="480" key="57"/>
          <note pan="0" len="24" vol="100" pos="480" key="38"/>
          <note pan="0" len="12" vol="100" pos="504" key="66"/>
          <note pan="0" len="12" vol="100" pos="504" key="62"/>
          <note pan="0" len="12" vol="100" pos="504" key="57"/>
          <note pan="0" len="24" vol="100" pos="504" key="50"/>
          <note pan="0" len="24" vol="100" pos="528" key="71"/>
          <note pan="0" len="24" vol="100" pos="528" key="66"/>
          <note pan="0" len="24" vol="100" pos="528" key="62"/>
          <note pan="0" len="24" vol="100" pos="528" key="57"/>
          <note pan="0" len="24" vol="100" pos="528" key="38"/>
          <note pan="0" len="12" vol="100" pos="552" key="74"/>
          <note pan="0" len="12" vol="100" pos="552" key="69"/>
          <note pan="0" len="12" vol="100" pos="552" key="66"/>
          <note pan="0" len="12" vol="100" pos="552" key="62"/>
          <note pan="0" len="24" vol="100" pos="552" key="40"/>
          <note pan="0" len="36" vol="100" pos="576" key="78"/>
          <note pan="0" len="36" vol="100" pos="576" key="76"/>
          <note pan="0" len="36" vol="100" pos="576" key="72"/>
          <note pan="0" len="36" vol="100" pos="576" key="67"/>
          <note pan="0" len="24" vol="100" pos="576" key="45"/>
          <note pan="0" len="24" vol="100" pos="600" key="45"/>
          <note pan="0" len="12" vol="100" pos="612" key="79"/>
          <note pan="0" len="12" vol="100" pos="612" key="76"/>
          <note pan="0" len="12" vol="100" pos="612" key="72"/>
          <note pan="0" len="12" vol="100" pos="612" key="67"/>
          <note pan="0" len="24" vol="100" pos="624" key="45"/>
          <note pan="0" len="24" vol="100" pos="648" key="76"/>
          <note pan="0" len="12" vol="100" pos="648" key="43"/>
          <note pan="0" len="12" vol="100" pos="660" key="42"/>
          <note pan="0" len="72" vol="100" pos="672" key="71"/>
          <note pan="0" len="72" vol="100" pos="672" key="67"/>
          <note pan="0" len="72" vol="100" pos="672" key="64"/>
          <note pan="0" len="72" vol="100" pos="672" key="59"/>
          <note pan="0" len="24" vol="100" pos="672" key="40"/>
          <note pan="0" len="24" vol="100" pos="696" key="40"/>
          <note pan="0" len="24" vol="100" pos="720" key="38"/>
          <note pan="0" len="24" vol="100" pos="744" key="64"/>
          <note pan="0" len="24" vol="100" pos="744" key="59"/>
          <note pan="0" len="24" vol="100" pos="744" key="55"/>
          <note pan="0" len="24" vol="100" pos="744" key="43"/>
        </midiclip>
        <midiclip name="" steps="16" type="1" muted="0" pos="2304">
          <note pan="0" len="96" vol="100" pos="0" key="64"/>
          <note pan="0" len="24" vol="100" pos="0" key="59"/>
          <note pan="0" len="12" vol="100" pos="0" key="40"/>
          <note pan="0" len="24" vol="100" pos="12" key="28"/>
          <note pan="0" len="12" vol="100" pos="24" key="59"/>
          <note pan="0" len="12" vol="100" pos="36" key="59"/>
          <note pan="0" len="12" vol="100" pos="36" key="55"/>
          <note pan="0" len="36" vol="100" pos="36" key="40"/>
          <note pan="0" len="24" vol="100" pos="72" key="59"/>
          <note pan="0" len="24" vol="100" pos="72" key="55"/>
          <note pan="0" len="24" vol="100" pos="72" key="40"/>
          <note pan="0" len="96" vol="100" pos="96" key="71"/>
          <note pan="0" len="24" vol="100" pos="96" key="66"/>
          <note pan="0" len="12" vol="100" pos="96" key="38"/>
          <note pan="0" len="24" vol="100" pos="108" key="26"/>
          <note pan="0" len="12" vol="100" pos="120" key="66"/>
          <note pan="0" len="12" vol="100" pos="132" key="66"/>
          <note pan="0" len="12" vol="100" pos="132" key="62"/>
          <note pan="0" len="36" vol="100" pos="132" key="38"/>
          <note pan="0" len="24" vol="100" pos="168" key="66"/>
          <note pan="0" len="24" vol="100" pos="168" key="62"/>
          <note pan="0" len="24" vol="100" pos="168" key="38"/>
          <note pan="0" len="24" vol="100" pos="192" key="72"/>
          <note pan="0" len="24" vol="100" pos="192" key="67"/>
          <note pan="0" len="24" vol="100" pos="192" key="45"/>
          <note pan="0" len="12" vol="100" pos="216" key="55"/>
          <note pan="0" len="24" vol="100" pos="216" key="33"/>
          <note pan="0" len="36" vol="100" pos="228" key="69"/>
          <note pan="0" len="36" vol="100" pos="228" key="64"/>
          <note pan="0" len="36" vol="100" pos="228" key="59"/>
          <note pan="0" len="24" vol="100" pos="240" key="45"/>
          <note pan="0" len="24" vol="100" pos="264" key="72"/>
          <note pan="0" len="12" vol="100" pos="264" key="67"/>
          <note pan="0" len="12" vol="100" pos="264" key="64"/>
          <note pan="0" len="24" vol="100" pos="264" key="48"/>
          <note pan="0" len="96" vol="100" pos="288" key="71"/>
          <note pan="0" len="24" vol="100" pos="288" key="66"/>
          <note pan="0" len="24" vol="100" pos="288" key="63"/>
          <note pan="0" len="12" vol="100" pos="288" key="47"/>
          <note pan="0" len="24" vol="100" pos="300" key="35"/>
          <note pan="0" len="12" vol="100" pos="312" key="66"/>
          <note pan="0" len="12" vol="100" pos="324" key="66"/>
          <note pan="0" len="12" vol="100" pos="324" key="63"/>
          <note pan="0" len="36" vol="100" pos="324" key="47"/>
          <note pan="0" len="24" vol="100" pos="360" key="63"/>
          <note pan="0" len="24" vol="100" pos="360" key="59"/>
          <note pan="0" len="24" vol="100" pos="360" key="43"/>
          <note pan="0" len="96" vol="100" pos="384" key="76"/>
          <note pan="0" len="24" vol="100" pos="384" key="71"/>
          <note pan="0" len="12" vol="100" pos="384" key="40"/>
          <note pan="0" len="24" vol="100" pos="396" key="28"/>
          <note pan="0" len="12" vol="100" pos="408" key="64"/>
          <note pan="0" len="12" vol="100" pos="420" key="71"/>
          <note pan="0" len="12" vol="100" pos="420" key="64"/>
          <note pan="0" len="36" vol="100" pos="420" key="40"/>
          <note pan="0" len="24" vol="100" pos="456" key="71"/>
          <note pan="0" len="24" vol="100" pos="456" key="64"/>
          <note pan="0" len="24" vol="100" pos="456" key="40"/>
          <note pan="0" len="96" vol="100" pos="480" key="74"/>
          <note pan="0" len="24" vol="100" pos="480" key="69"/>
          <note pan="0" len="12" vol="100" pos="480" key="38"/>
          <note pan="0" len="24" vol="100" pos="492" key="26"/>
          <note pan="0" len="12" vol="100" pos="504" key="66"/>
          <note pan="0" len="12" vol="100" pos="516" key="69"/>
          <note pan="0" len="12" vol="100" pos="516" key="62"/>
          <note pan="0" len="36" vol="100" pos="516" key="38"/>
          <note pan="0" len="24" vol="100" pos="552" key="69"/>
          <note pan="0" len="24" vol="100" pos="552" key="62"/>
          <note pan="0" len="24" vol="100" pos="552" key="38"/>
          <note pan="0" len="24" vol="100" pos="576" key="72"/>
          <note pan="0" len="24" vol="100" pos="576" key="67"/>
          <note pan="0" len="24" vol="100" pos="576" key="45"/>
          <note pan="0" len="12" vol="100" pos="600" key="55"/>
          <note pan="0" len="24" vol="100" pos="600" key="33"/>
          <note pan="0" len="36" vol="100" pos="612" key="69"/>
          <note pan="0" len="36" vol="100" pos="612" key="64"/>
          <note pan="0" len="36" vol="100" pos="612" key="59"/>
          <note pan="0" len="24" vol="100" pos="624" key="45"/>
          <note pan="0" len="24" vol="100" pos="648" key="67"/>
          <note pan="0" len="12" vol="100" pos="648" key="64"/>
          <note pan="0" len="12" vol="100" pos="648" key="59"/>
          <note pan="0" len="24" vol="100" pos="648" key="48"/>
          <note pan="0" len="24" vol="100" pos="672" key="66"/>
          <note pan="0" len="24" vol="100" pos="672" key="63"/>
          <note pan="0" len="24" vol="100" pos="672" key="59"/>
          <note pan="0" len="12" vol="100" pos="672" key="47"/>
          <note pan="0" len="24" vol="100" pos="684" key="35"/>
          <note pan="0" len="12" vol="100" pos="696" key="54"/>
          <note pan="0" len="12" vol="100" pos="708" key="62"/>
          <note pan="0" len="12" vol="100" pos="708" key="54"/>
          <note pan="0" len="36" vol="100" pos="708" key="47"/>
          <note pan="0" len="24" vol="100" pos="744" key="63"/>
          <note pan="0" len="24" vol="100" pos="744" key="54"/>
          <note pan="0" len="24" vol="100" pos="744" key="51"/>
        </midiclip>
        <midiclip name="" steps="16" type="1" muted="0" pos="6336">
          <note pan="0" len="24" vol="100" pos="0" key="71"/>
          <note pan="0" len="12" vol="100" pos="0" key="67"/>
          <note pan="0" len="12" vol="100" pos="0" key="64"/>
          <note pan="0" len="12" vol="100" pos="0" key="59"/>
          <note pan="0" len="24" vol="100" pos="0" key="40"/>
          <note pan="0" len="12" vol="100" pos="24" key="64"/>
          <note pan="0" len="12" vol="100" pos="24" key="59"/>
          <note pan="0" len="12" vol="100" pos="24" key="55"/>
          <note pan="0" len="24" vol="100" pos="24" key="40"/>
          <note pan="0" len="24" vol="100" pos="36" key="74"/>
          <note pan="0" len="12" vol="100" pos="36" key="67"/>
          <note pan="0" len="12" vol="100" pos="36" key="64"/>
          <note pan="0" len="12" vol="100" pos="36" key="59"/>
          <note pan="0" len="24" vol="100" pos="48" key="52"/>
          <note pan="0" len="12" vol="100" pos="60" key="64"/>
          <note pan="0" len="12" vol="100" pos="60" key="59"/>
          <note pan="0" len="12" vol="100" pos="60" key="55"/>
          <note pan="0" len="12" vol="100" pos="72" key="69"/>
          <note pan="0" len="12" vol="100" pos="72" key="67"/>
          <note pan="0" len="12" vol="100" pos="72" key="64"/>
          <note pan="0" len="12" vol="100" pos="72" key="59"/>
          <note pan="0" len="12" vol="100" pos="72" key="40"/>
          <note pan="0" len="12" vol="100" pos="84" key="39"/>
          <note pan="0" len="24" vol="100" pos="96" key="71"/>
          <note pan="0" len="12" vol="100" pos="96" key="66"/>
          <note pan="0" len="12" vol="100" pos="96" key="62"/>
          <note pan="0" len="12" vol="100" pos="96" key="57"/>
          <note pan="0" len="24" vol="100" pos="96" key="38"/>
          <note pan="0" len="12" vol="100" pos="120" key="62"/>
          <note pan="0" len="12" vol="100" pos="120" key="57"/>
          <note pan="0" len="12" vol="100" pos="120" key="54"/>
          <note pan="0" len="24" vol="100" pos="120" key="50"/>
          <note pan="0" len="12" vol="100" pos="132" key="66"/>
          <note pan="0" len="12" vol="100" pos="132" key="62"/>
          <note pan="0" len="12" vol="100" pos="132" key="57"/>
          <note pan="0" len="24" vol="100" pos="144" key="38"/>
          <note pan="0" len="12" vol="100" pos="156" key="62"/>
          <note pan="0" len="12" vol="100" pos="156" key="57"/>
          <note pan="0" len="12" vol="100" pos="156" key="54"/>
          <note pan="0" len="12" vol="100" pos="168" key="66"/>
          <note pan="0" len="12" vol="100" pos="168" key="62"/>
          <note pan="0" len="12" vol="100" pos="168" key="57"/>
          <note pan="0" len="24" vol="100" pos="168" key="38"/>
          <note pan="0" len="24" vol="100" pos="192" key="67"/>
          <note pan="0" len="12" vol="100" pos="192" key="64"/>
          <note pan="0" len="12" vol="100" pos="192" key="60"/>
          <note pan="0" len="12" vol="100" pos="192" key="57"/>
          <note pan="0" len="24" vol="100" pos="192" key="45"/>
          <note pan="0" len="12" vol="100" pos="216" key="64"/>
          <note pan="0" len="12" vol="100" pos="216" key="60"/>
          <note pan="0" len="12" vol="100" pos="216" key="55"/>
          <note pan="0" len="24" vol="100" pos="216" key="45"/>
          <note pan="0" len="24" vol="100" pos="228" key="69"/>
          <note pan="0" len="12" vol="100" pos="228" key="67"/>
          <note pan="0" len="12" vol="100" pos="228" key="64"/>
          <note pan="0" len="12" vol="100" pos="228" key="60"/>
          <note pan="0" len="24" vol="100" pos="240" key="45"/>
          <note pan="0" len="12" vol="100" pos="252" key="67"/>
          <note pan="0" len="12" vol="100" pos="252" key="64"/>
          <note pan="0" len="12" vol="100" pos="252" key="60"/>
          <note pan="0" len="24" vol="100" pos="264" key="74"/>
          <note pan="0" len="12" vol="100" pos="264" key="71"/>
          <note pan="0" len="12" vol="100" pos="264" key="67"/>
          <note pan="0" len="12" vol="100" pos="264" key="64"/>
          <note pan="0" len="12" vol="100" pos="264" key="43"/>
          <note pan="0" len="12" vol="100" pos="276" key="42"/>
          <note pan="0" len="24" vol="100" pos="288" key="71"/>
          <note pan="0" len="12" vol="100" pos="288" key="67"/>
          <note pan="0" len="12" vol="100" pos="288" key="64"/>
          <note pan="0" len="12" vol="100" pos="288" key="59"/>
          <note pan="0" len="24" vol="100" pos="288" key="40"/>
          <note pan="0" len="12" vol="100" pos="312" key="64"/>
          <note pan="0" len="12" vol="100" pos="312" key="59"/>
          <note pan="0" len="12" vol="100" pos="312" key="55"/>
          <note pan="0" len="24" vol="100" pos="312" key="40"/>
          <note pan="0" len="12" vol="100" pos="324" key="67"/>
          <note pan="0" len="12" vol="100" pos="324" key="64"/>
          <note pan="0" len="12" vol="100" pos="324" key="59"/>
          <note pan="0" len="12" vol="100" pos="336" key="64"/>
          <note pan="0" len="24" vol="100" pos="336" key="40"/>
          <note pan="0" len="12" vol="100" pos="348" key="64"/>
          <note pan="0" len="12" vol="100" pos="348" key="59"/>
          <note pan="0" len="12" vol="100" pos="348" key="55"/>
          <note pan="0" len="24" vol="100" pos="360" key="66"/>
          <note pan="0" len="12" vol="100" pos="360" key="64"/>
          <note pan="0" len="12" vol="100" pos="360" key="59"/>
          <note pan="0" len="24" vol="100" pos="360" key="42"/>
          <note pan="0" len="24" vol="100" pos="384" key="79"/>
          <note pan="0" len="12" vol="100" pos="384" key="76"/>
          <note pan="0" len="12" vol="100" pos="384" key="71"/>
          <note pan="0" len="12" vol="100" pos="384" key="67"/>
          <note pan="0" len="48" vol="100" pos="384" key="43"/>
          <note pan="0" len="12" vol="100" pos="408" key="64"/>
          <note pan="0" len="12" vol="100" pos="408" key="59"/>
          <note pan="0" len="12" vol="100" pos="408" key="55"/>
          <note pan="0" len="12" vol="100" pos="408" key="55"/>
          <note pan="0" len="24" vol="100" pos="420" key="78"/>
          <note pan="0" len="12" vol="100" pos="420" key="71"/>
          <note pan="0" len="12" vol="100" pos="420" key="67"/>
          <note pan="0" len="12" vol="100" pos="420" key="64"/>
          <note pan="0" len="24" vol="100" pos="432" key="43"/>
          <note pan="0" len="12" vol="100" pos="444" key="64"/>
          <note pan="0" len="12" vol="100" pos="444" key="59"/>
          <note pan="0" len="12" vol="100" pos="444" key="55"/>
          <note pan="0" len="24" vol="100" pos="456" key="76"/>
          <note pan="0" len="12" vol="100" pos="456" key="71"/>
          <note pan="0" len="12" vol="100" pos="456" key="67"/>
          <note pan="0" len="12" vol="100" pos="456" key="64"/>
          <note pan="0" len="12" vol="100" pos="456" key="42"/>
          <note pan="0" len="12" vol="100" pos="468" key="40"/>
          <note pan="0" len="24" vol="100" pos="480" key="71"/>
          <note pan="0" len="12" vol="100" pos="480" key="66"/>
          <note pan="0" len="12" vol="100" pos="480" key="62"/>
          <note pan="0" len="12" vol="100" pos="480" key="57"/>
          <note pan="0" len="24" vol="100" pos="480" key="38"/>
          <note pan="0" len="12" vol="100" pos="504" key="62"/>
          <note pan="0" len="12" vol="100" pos="504" key="57"/>
          <note pan="0" len="12" vol="100" pos="504" key="54"/>
          <note pan="0" len="24" vol="100" pos="504" key="50"/>
          <note pan="0" len="12" vol="100" pos="516" key="66"/>
          <note pan="0" len="12" vol="100" pos="516" key="62"/>
          <note pan="0" len="12" vol="100" pos="516" key="57"/>
          <note pan="0" len="12" vol="100" pos="528" key="71"/>
          <note pan="0" len="24" vol="100" pos="528" key="38"/>
          <note pan="0" len="12" vol="100" pos="540" key="62"/>
          <note pan="0" len="12" vol="100" pos="540" key="57"/>
          <note pan="0" len="12" vol="100" pos="540" key="54"/>
          <note pan="0" len="24" vol="100" pos="552" key="74"/>
          <note pan="0" len="12" vol="100" pos="552" key="66"/>
          <note pan="0" len="12" vol="100" pos="552" key="62"/>
          <note pan="0" len="12" vol="100" pos="552" key="57"/>
          <note pan="0" len="24" vol="100" pos="552" key="40"/>
          <note pan="0" len="24" vol="100" pos="576" key="78"/>
          <note pan="0" len="12" vol="100" pos="576" key="72"/>
          <note pan="0" len="12" vol="100" pos="576" key="67"/>
          <note pan="0" len="12" vol="100" pos="576" key="64"/>
          <note pan="0" len="24" vol="100" pos="576" key="45"/>
          <note pan="0" len="12" vol="100" pos="600" key="64"/>
          <note pan="0" len="12" vol="100" pos="600" key="60"/>
          <note pan="0" len="12" vol="100" pos="600" key="55"/>
          <note pan="0" len="24" vol="100" pos="600" key="45"/>
          <note pan="0" len="24" vol="100" pos="612" key="79"/>
          <note pan="0" len="12" vol="100" pos="612" key="72"/>
          <note pan="0" len="12" vol="100" pos="612" key="67"/>
          <note pan="0" len="12" vol="100" pos="612" key="64"/>
          <note pan="0" len="24" vol="100" pos="624" key="45"/>
          <note pan="0" len="12" vol="100" pos="636" key="72"/>
          <note pan="0" len="12" vol="100" pos="636" key="67"/>
          <note pan="0" len="12" vol="100" pos="636" key="64"/>
          <note pan="0" len="24" vol="100" pos="648" key="81"/>
          <note pan="0" len="12" vol="100" pos="648" key="76"/>
          <note pan="0" len="12" vol="100" pos="648" key="72"/>
          <note pan="0" len="12" vol="100" pos="648" key="67"/>
          <note pan="0" len="12" vol="100" pos="648" key="43"/>
          <note pan="0" len="12" vol="100" pos="660" key="42"/>
          <note pan="0" len="72" vol="100" pos="672" key="83"/>
          <note pan="0" len="72" vol="100" pos="672" key="79"/>
          <note pan="0" len="72" vol="100" pos="672" key="76"/>
          <note pan="0" len="72" vol="100" pos="672" key="71"/>
          <note pan="0" len="96" vol="100" pos="672" key="40"/>
        </midiclip>
        <midiclip name="" steps="16" type="1" muted="0" pos="4608">
          <note pan="0" len="36" vol="100" pos="0" key="71"/>
          <note pan="0" len="36" vol="100" pos="0" key="67"/>
          <note pan="0" len="36" vol="100" pos="0" key="64"/>
          <note pan="0" len="36" vol="100" pos="0" key="59"/>
          <note pan="0" len="24" vol="100" pos="0" key="40"/>
          <note pan="0" len="24" vol="100" pos="24" key="40"/>
          <note pan="0" len="12" vol="100" pos="36" key="74"/>
          <note pan="0" len="12" vol="100" pos="36" key="71"/>
          <note pan="0" len="12" vol="100" pos="36" key="67"/>
          <note pan="0" len="12" vol="100" pos="36" key="64"/>
          <note pan="0" len="24" vol="100" pos="48" key="52"/>
          <note pan="0" len="24" vol="100" pos="72" key="69"/>
          <note pan="0" len="12" vol="100" pos="72" key="40"/>
          <note pan="0" len="12" vol="100" pos="84" key="39"/>
          <note pan="0" len="12" vol="100" pos="96" key="71"/>
          <note pan="0" len="12" vol="100" pos="96" key="66"/>
          <note pan="0" len="12" vol="100" pos="96" key="62"/>
          <note pan="0" len="12" vol="100" pos="96" key="57"/>
          <note pan="0" len="24" vol="100" pos="96" key="38"/>
          <note pan="0" len="12" vol="100" pos="120" key="66"/>
          <note pan="0" len="12" vol="100" pos="120" key="62"/>
          <note pan="0" len="12" vol="100" pos="120" key="57"/>
          <note pan="0" len="24" vol="100" pos="120" key="50"/>
          <note pan="0" len="12" vol="100" pos="144" key="66"/>
          <note pan="0" len="12" vol="100" pos="144" key="62"/>
          <note pan="0" len="12" vol="100" pos="144" key="57"/>
          <note pan="0" len="24" vol="100" pos="144" key="38"/>
          <note pan="0" len="12" vol="100" pos="168" key="66"/>
          <note pan="0" len="12" vol="100" pos="168" key="62"/>
          <note pan="0" len="12" vol="100" pos="168" key="57"/>
          <note pan="0" len="24" vol="100" pos="168" key="38"/>
          <note pan="0" len="36" vol="100" pos="192" key="67"/>
          <note pan="0" len="36" vol="100" pos="192" key="64"/>
          <note pan="0" len="36" vol="100" pos="192" key="60"/>
          <note pan="0" len="36" vol="100" pos="192" key="57"/>
          <note pan="0" len="24" vol="100" pos="192" key="45"/>
          <note pan="0" len="24" vol="100" pos="216" key="45"/>
          <note pan="0" len="12" vol="100" pos="228" key="69"/>
          <note pan="0" len="12" vol="100" pos="228" key="67"/>
          <note pan="0" len="12" vol="100" pos="228" key="64"/>
          <note pan="0" len="12" vol="100" pos="228" key="60"/>
          <note pan="0" len="24" vol="100" pos="240" key="45"/>
          <note pan="0" len="24" vol="100" pos="264" key="74"/>
          <note pan="0" len="12" vol="100" pos="264" key="43"/>
          <note pan="0" len="12" vol="100" pos="276" key="42"/>
          <note pan="0" len="24" vol="100" pos="288" key="71"/>
          <note pan="0" len="24" vol="100" pos="288" key="67"/>
          <note pan="0" len="24" vol="100" pos="288" key="64"/>
          <note pan="0" len="24" vol="100" pos="288" key="59"/>
          <note pan="0" len="24" vol="100" pos="288" key="40"/>
          <note pan="0" len="12" vol="100" pos="312" key="67"/>
          <note pan="0" len="12" vol="100" pos="312" key="64"/>
          <note pan="0" len="12" vol="100" pos="312" key="59"/>
          <note pan="0" len="24" vol="100" pos="312" key="40"/>
          <note pan="0" len="24" vol="100" pos="336" key="67"/>
          <note pan="0" len="24" vol="100" pos="336" key="64"/>
          <note pan="0" len="24" vol="100" pos="336" key="62"/>
          <note pan="0" len="24" vol="100" pos="336" key="59"/>
          <note pan="0" len="24" vol="100" pos="336" key="40"/>
          <note pan="0" len="12" vol="100" pos="360" key="71"/>
          <note pan="0" len="12" vol="100" pos="360" key="69"/>
          <note pan="0" len="12" vol="100" pos="360" key="66"/>
          <note pan="0" len="12" vol="100" pos="360" key="64"/>
          <note pan="0" len="24" vol="100" pos="360" key="42"/>
          <note pan="0" len="36" vol="100" pos="384" key="79"/>
          <note pan="0" len="36" vol="100" pos="384" key="76"/>
          <note pan="0" len="36" vol="100" pos="384" key="74"/>
          <note pan="0" len="36" vol="100" pos="384" key="71"/>
          <note pan="0" len="24" vol="100" pos="384" key="43"/>
          <note pan="0" len="24" vol="100" pos="408" key="55"/>
          <note pan="0" len="12" vol="100" pos="420" key="78"/>
          <note pan="0" len="12" vol="100" pos="420" key="76"/>
          <note pan="0" len="12" vol="100" pos="420" key="74"/>
          <note pan="0" len="12" vol="100" pos="420" key="71"/>
          <note pan="0" len="24" vol="100" pos="432" key="43"/>
          <note pan="0" len="24" vol="100" pos="456" key="76"/>
          <note pan="0" len="24" vol="100" pos="456" key="71"/>
          <note pan="0" len="24" vol="100" pos="456" key="67"/>
          <note pan="0" len="12" vol="100" pos="456" key="42"/>
          <note pan="0" len="12" vol="100" pos="468" key="40"/>
          <note pan="0" len="12" vol="100" pos="480" key="71"/>
          <note pan="0" len="12" vol="100" pos="480" key="69"/>
          <note pan="0" len="12" vol="100" pos="480" key="66"/>
          <note pan="0" len="12" vol="100" pos="480" key="62"/>
          <note pan="0" len="24" vol="100" pos="480" key="38"/>
          <note pan="0" len="12" vol="100" pos="504" key="66"/>
          <note pan="0" len="12" vol="100" pos="504" key="62"/>
          <note pan="0" len="12" vol="100" pos="504" key="57"/>
          <note pan="0" len="24" vol="100" pos="504" key="50"/>
          <note pan="0" len="24" vol="100" pos="528" key="71"/>
          <note pan="0" len="24" vol="100" pos="528" key="66"/>
          <note pan="0" len="24" vol="100" pos="528" key="62"/>
          <note pan="0" len="24" vol="100" pos="528" key="57"/>
          <note pan="0" len="24" vol="100" pos="528" key="38"/>
          <note pan="0" len="12" vol="100" pos="552" key="74"/>
          <note pan="0" len="12" vol="100" pos="552" key="69"/>
          <note pan="0" len="12" vol="100" pos="552" key="66"/>
          <note pan="0" len="12" vol="100" pos="552" key="62"/>
          <note pan="0" len="24" vol="100" pos="552" key="40"/>
          <note pan="0" len="36" vol="100" pos="576" key="78"/>
          <note pan="0" len="36" vol="100" pos="576" key="76"/>
          <note pan="0" len="36" vol="100" pos="576" key="72"/>
          <note pan="0" len="36" vol="100" pos="576" key="69"/>
          <note pan="0" len="24" vol="100" pos="576" key="45"/>
          <note pan="0" len="24" vol="100" pos="600" key="45"/>
          <note pan="0" len="12" vol="100" pos="612" key="79"/>
          <note pan="0" len="12" vol="100" pos="612" key="76"/>
          <note pan="0" len="12" vol="100" pos="612" key="72"/>
          <note pan="0" len="12" vol="100" pos="612" key="69"/>
          <note pan="0" len="24" vol="100" pos="624" key="45"/>
          <note pan="0" len="24" vol="100" pos="648" key="81"/>
          <note pan="0" len="24" vol="100" pos="648" key="78"/>
          <note pan="0" len="24" vol="100" pos="648" key="74"/>
          <note pan="0" len="12" vol="100" pos="648" key="43"/>
          <note pan="0" len="12" vol="100" pos="660" key="42"/>
          <note pan="0" len="72" vol="100" pos="672" key="83"/>
          <note pan="0" len="72" vol="100" pos="672" key="79"/>
          <note pan="0" len="72" vol="100" pos="672" key="76"/>
          <note pan="0" len="72" vol="100" pos="672" key="71"/>
          <note pan="0" len="72" vol="100" pos="672" key="40"/>
        </midiclip>
      </track>
      <track name="GeneralUser GS v1" mutedBeforeSolo="0" type="0" muted="0" solo="0">
        <instrumenttrack scale="0" pan="0" enabled="0" keymap="0" enablecc="0" range_import="1" usemasterpitch="1" vol="101.6" basenote="69" lastkey="127" pitch="0" firstkey="0" pitchrange="1" mixch="2">
          <midicontrollers cc59="0" cc89="0" cc29="0" cc88="0" cc90="0" cc57="0" cc44="0" cc67="0" cc97="0" cc119="0" cc62="0" cc73="0" cc99="0" cc27="0" cc15="0" cc102="0" cc126="0" cc23="0" cc32="0" cc103="0" cc114="0" cc116="0" cc0="0" cc37="0" cc26="0" cc4="0" cc101="0" cc78="0" cc100="0" cc66="0" cc55="0" cc16="0" cc71="0" cc61="0" cc6="0" cc7="0" cc113="0" cc76="0" cc93="0" cc38="0" cc28="0" cc91="0" cc5="0" cc86="0" cc18="0" cc24="0" cc75="0" cc115="0" cc117="0" cc79="0" cc85="0" cc60="0" cc48="0" cc74="0" cc120="0" cc122="0" cc36="0" cc104="0" cc8="0" cc49="0" cc118="0" cc40="0" cc50="0" cc96="0" cc77="0" cc3="0" cc83="0" cc41="0" cc124="0" cc1="0" cc112="0" cc56="0" cc125="0" cc94="0" cc108="0" cc46="0" cc69="0" cc42="0" cc68="0" cc2="0" cc12="0" cc107="0" cc17="0" cc54="0" cc64="0" cc31="0" cc30="0" cc43="0" cc20="0" cc72="0" cc51="0" cc35="0" cc58="0" cc19="0" cc123="0" cc9="0" cc106="0" cc82="0" cc65="0" cc110="0" cc47="0" cc87="0" cc84="0" cc53="0" cc22="0" cc34="0" cc63="0" cc39="0" cc13="0" cc33="0" cc92="0" cc81="0" cc105="0" cc95="0" cc121="0" cc111="0" cc11="0" cc52="0" cc14="0" cc45="0" cc21="0" cc109="0" cc10="0" cc25="0" cc98="0" cc70="0" cc80="0" cc127="0"/>
          <instrument name="sf2player">
            <sf2player reverbRoomSize="0.2" chorusDepth="8" patch="102" chorusSpeed="0.3" reverbOn="0" src="usersoundfont:GeneralUser GS v1.471.sf2" reverbDamping="0" chorusLevel="2" bank="0" reverbLevel="0.9" chorusNum="3" reverbWidth="0.5" chorusOn="0" gain="0.42">
              <key/>
            </sf2player>
          </instrument>
          <eldata fwet="0" fcut="14000" fres="0.5" ftype="0">
            <elvol lspd_denominator="4" dec="0.5" latt="0" sustain="0.5" lspd_syncmode="0" ctlenvamt="0" att="0" lshp="0" x100="0" lamt="0" lspd_numerator="4" hold="0.5" rel="0.1" pdel="0" lspd="0.1" amt="0" lpdel="0" userwavefile=""/>
            <elcut lspd_denominator="4" dec="0.5" latt="0" sustain="0.5" lspd_syncmode="0" ctlenvamt="0" att="0" lshp="0" x100="0" lamt="0" lspd_numerator="4" hold="0.5" rel="0.1" pdel="0" lspd="0.1" amt="0" lpdel="0" userwavefile=""/>
            <elres lspd_denominator="4" dec="0.5" latt="0" sustain="0.5" lspd_syncmode="0" ctlenvamt="0" att="0" lshp="0" x100="0" lamt="0" lspd_numerator="4" hold="0.5" rel="0.1" pdel="0" lspd="0.1" amt="0" lpdel="0" userwavefile=""/>
          </eldata>
          <chordcreator chord-enabled="0" chordrange="1" chord="0"/>
          <arpeggiator arp="0" arptime_syncmode="0" arpcycle="0" arprepeats="1" arptime="200" arptime_denominator="4" arpmode="0" arptime_numerator="4" arp-enabled="0" arprange="1" arpgate="100" arpskip="0" arpmiss="0" arpdir="0"/>
          <midiport inputcontroller="0" fixedoutputnote="-1" outputprogram="1" outputchannel="1" readable="1" fixedoutputvelocity="-1" inputchannel="0" writable="0" outputcontroller="0" fixedinputvelocity="-1" basevelocity="63" inports=""/>
          <fxchain enabled="0" numofeffects="0"/>
        </instrumenttrack>
        <midiclip name="" steps="16" type="1" muted="0" pos="1536">
          <note pan="0" len="12" vol="100" pos="0" key="52"/>
          <note pan="0" len="12" vol="100" pos="0" key="40"/>
          <note pan="0" len="12" vol="100" pos="12" key="28"/>
          <note pan="0" len="12" vol="100" pos="24" key="52"/>
          <note pan="0" len="12" vol="100" pos="36" key="64"/>
          <note pan="0" len="12" vol="100" pos="36" key="59"/>
          <note pan="0" len="12" vol="100" pos="36" key="40"/>
          <note pan="0" len="12" vol="100" pos="72" key="64"/>
          <note pan="0" len="12" vol="100" pos="72" key="59"/>
          <note pan="0" len="12" vol="100" pos="72" key="40"/>
          <note pan="0" len="12" vol="100" pos="96" key="54"/>
          <note pan="0" len="12" vol="100" pos="96" key="38"/>
          <note pan="0" len="12" vol="100" pos="108" key="26"/>
          <note pan="0" len="12" vol="100" pos="120" key="54"/>
          <note pan="0" len="12" vol="100" pos="132" key="66"/>
          <note pan="0" len="12" vol="100" pos="132" key="62"/>
          <note pan="0" len="12" vol="100" pos="132" key="38"/>
          <note pan="0" len="12" vol="100" pos="168" key="66"/>
          <note pan="0" len="12" vol="100" pos="168" key="62"/>
          <note pan="0" len="12" vol="100" pos="168" key="38"/>
          <note pan="0" len="12" vol="100" pos="192" key="55"/>
          <note pan="0" len="12" vol="100" pos="192" key="45"/>
          <note pan="0" len="12" vol="100" pos="216" key="55"/>
          <note pan="0" len="12" vol="100" pos="216" key="33"/>
          <note pan="0" len="12" vol="100" pos="228" key="67"/>
          <note pan="0" len="12" vol="100" pos="228" key="57"/>
          <note pan="0" len="12" vol="100" pos="240" key="45"/>
          <note pan="0" len="12" vol="100" pos="264" key="67"/>
          <note pan="0" len="12" vol="100" pos="264" key="57"/>
          <note pan="0" len="12" vol="100" pos="264" key="48"/>
          <note pan="0" len="12" vol="100" pos="288" key="54"/>
          <note pan="0" len="12" vol="100" pos="288" key="47"/>
          <note pan="0" len="12" vol="100" pos="300" key="35"/>
          <note pan="0" len="12" vol="100" pos="312" key="54"/>
          <note pan="0" len="12" vol="100" pos="324" key="66"/>
          <note pan="0" len="12" vol="100" pos="324" key="59"/>
          <note pan="0" len="12" vol="100" pos="324" key="47"/>
          <note pan="0" len="12" vol="100" pos="360" key="66"/>
          <note pan="0" len="12" vol="100" pos="360" key="59"/>
          <note pan="0" len="12" vol="100" pos="360" key="43"/>
          <note pan="0" len="12" vol="100" pos="384" key="52"/>
          <note pan="0" len="12" vol="100" pos="384" key="40"/>
          <note pan="0" len="12" vol="100" pos="396" key="28"/>
          <note pan="0" len="12" vol="100" pos="408" key="52"/>
          <note pan="0" len="12" vol="100" pos="420" key="64"/>
          <note pan="0" len="12" vol="100" pos="420" key="59"/>
          <note pan="0" len="12" vol="100" pos="420" key="40"/>
          <note pan="0" len="12" vol="100" pos="456" key="64"/>
          <note pan="0" len="12" vol="100" pos="456" key="59"/>
          <note pan="0" len="12" vol="100" pos="456" key="40"/>
          <note pan="0" len="12" vol="100" pos="480" key="54"/>
          <note pan="0" len="12" vol="100" pos="480" key="38"/>
          <note pan="0" len="12" vol="100" pos="492" key="26"/>
          <note pan="0" len="12" vol="100" pos="504" key="54"/>
          <note pan="0" len="12" vol="100" pos="516" key="66"/>
          <note pan="0" len="12" vol="100" pos="516" key="62"/>
          <note pan="0" len="12" vol="100" pos="516" key="38"/>
          <note pan="0" len="12" vol="100" pos="552" key="66"/>
          <note pan="0" len="12" vol="100" pos="552" key="62"/>
          <note pan="0" len="12" vol="100" pos="552" key="38"/>
          <note pan="0" len="12" vol="100" pos="576" key="55"/>
          <note pan="0" len="12" vol="100" pos="576" key="45"/>
          <note pan="0" len="12" vol="100" pos="600" key="55"/>
          <note pan="0" len="12" vol="100" pos="600" key="33"/>
          <note pan="0" len="12" vol="100" pos="612" key="67"/>
          <note pan="0" len="12" vol="100" pos="612" key="57"/>
          <note pan="0" len="12" vol="100" pos="624" key="45"/>
          <note pan="0" len="12" vol="100" pos="648" key="67"/>
          <note pan="0" len="12" vol="100" pos="648" key="57"/>
          <note pan="0" len="12" vol="100" pos="648" key="48"/>
          <note pan="0" len="12" vol="100" pos="672" key="54"/>
          <note pan="0" len="12" vol="100" pos="672" key="47"/>
          <note pan="0" len="12" vol="100" pos="684" key="35"/>
          <note pan="0" len="12" vol="100" pos="696" key="54"/>
          <note pan="0" len="12" vol="100" pos="708" key="66"/>
          <note pan="0" len="12" vol="100" pos="708" key="59"/>
          <note pan="0" len="12" vol="100" pos="708" key="47"/>
          <note pan="0" len="12" vol="100" pos="744" key="66"/>
          <note pan="0" len="12" vol="100" pos="744" key="59"/>
          <note pan="0" len="12" vol="100" pos="744" key="43"/>
        </midiclip>
        <midiclip name="" steps="16" type="1" muted="0" pos="3072">
          <note pan="0" len="12" vol="96" pos="0" key="67"/>
          <note pan="0" len="12" vol="96" pos="0" key="64"/>
          <note pan="0" len="12" vol="96" pos="0" key="59"/>
          <note pan="0" len="12" vol="96" pos="0" key="52"/>
          <note pan="0" len="12" vol="96" pos="12" key="67"/>
          <note pan="0" len="12" vol="96" pos="12" key="64"/>
          <note pan="0" len="12" vol="96" pos="12" key="59"/>
          <note pan="0" len="12" vol="96" pos="12" key="43"/>
          <note pan="0" len="12" vol="96" pos="36" key="67"/>
          <note pan="0" len="12" vol="96" pos="36" key="64"/>
          <note pan="0" len="12" vol="96" pos="36" key="58"/>
          <note pan="0" len="12" vol="96" pos="36" key="42"/>
          <note pan="0" len="12" vol="96" pos="60" key="67"/>
          <note pan="0" len="12" vol="96" pos="60" key="64"/>
          <note pan="0" len="12" vol="96" pos="60" key="57"/>
          <note pan="0" len="12" vol="96" pos="60" key="40"/>
          <note pan="0" len="12" vol="96" pos="96" key="66"/>
          <note pan="0" len="12" vol="96" pos="96" key="62"/>
          <note pan="0" len="12" vol="96" pos="96" key="57"/>
          <note pan="0" len="12" vol="96" pos="96" key="50"/>
          <note pan="0" len="12" vol="96" pos="108" key="66"/>
          <note pan="0" len="12" vol="96" pos="108" key="62"/>
          <note pan="0" len="12" vol="96" pos="108" key="57"/>
          <note pan="0" len="12" vol="96" pos="108" key="42"/>
          <note pan="0" len="12" vol="96" pos="132" key="66"/>
          <note pan="0" len="12" vol="96" pos="132" key="62"/>
          <note pan="0" len="12" vol="96" pos="132" key="56"/>
          <note pan="0" len="12" vol="96" pos="132" key="40"/>
          <note pan="0" len="12" vol="96" pos="156" key="66"/>
          <note pan="0" len="12" vol="96" pos="156" key="62"/>
          <note pan="0" len="12" vol="96" pos="156" key="55"/>
          <note pan="0" len="12" vol="96" pos="156" key="38"/>
          <note pan="0" len="12" vol="96" pos="180" key="43"/>
          <note pan="0" len="12" vol="96" pos="192" key="67"/>
          <note pan="0" len="12" vol="96" pos="192" key="59"/>
          <note pan="0" len="12" vol="96" pos="192" key="52"/>
          <note pan="0" len="12" vol="96" pos="192" key="47"/>
          <note pan="0" len="12" vol="96" pos="216" key="68"/>
          <note pan="0" len="12" vol="96" pos="216" key="63"/>
          <note pan="0" len="12" vol="96" pos="216" key="54"/>
          <note pan="0" len="12" vol="96" pos="216" key="48"/>
          <note pan="0" len="12" vol="96" pos="240" key="69"/>
          <note pan="0" len="12" vol="96" pos="240" key="63"/>
          <note pan="0" len="12" vol="96" pos="240" key="55"/>
          <note pan="0" len="12" vol="96" pos="240" key="47"/>
          <note pan="0" len="12" vol="96" pos="264" key="71"/>
          <note pan="0" len="12" vol="96" pos="264" key="64"/>
          <note pan="0" len="12" vol="96" pos="264" key="57"/>
          <note pan="0" len="12" vol="96" pos="264" key="48"/>
          <note pan="0" len="12" vol="96" pos="288" key="74"/>
          <note pan="0" len="12" vol="96" pos="288" key="66"/>
          <note pan="0" len="12" vol="96" pos="288" key="59"/>
          <note pan="0" len="12" vol="96" pos="288" key="47"/>
          <note pan="0" len="12" vol="96" pos="300" key="69"/>
          <note pan="0" len="12" vol="96" pos="300" key="64"/>
          <note pan="0" len="12" vol="96" pos="300" key="60"/>
          <note pan="0" len="12" vol="96" pos="300" key="43"/>
          <note pan="0" len="12" vol="96" pos="324" key="68"/>
          <note pan="0" len="12" vol="96" pos="324" key="63"/>
          <note pan="0" len="12" vol="96" pos="324" key="59"/>
          <note pan="0" len="12" vol="96" pos="324" key="42"/>
          <note pan="0" len="12" vol="96" pos="348" key="67"/>
          <note pan="0" len="12" vol="96" pos="348" key="62"/>
          <note pan="0" len="12" vol="96" pos="348" key="55"/>
          <note pan="0" len="12" vol="96" pos="348" key="40"/>
          <note pan="0" len="12" vol="96" pos="384" key="67"/>
          <note pan="0" len="12" vol="96" pos="384" key="64"/>
          <note pan="0" len="12" vol="96" pos="384" key="59"/>
          <note pan="0" len="12" vol="96" pos="384" key="40"/>
          <note pan="0" len="12" vol="96" pos="396" key="67"/>
          <note pan="0" len="12" vol="96" pos="396" key="64"/>
          <note pan="0" len="12" vol="96" pos="396" key="59"/>
          <note pan="0" len="12" vol="96" pos="396" key="28"/>
          <note pan="0" len="12" vol="96" pos="420" key="67"/>
          <note pan="0" len="12" vol="96" pos="420" key="64"/>
          <note pan="0" len="12" vol="96" pos="420" key="58"/>
          <note pan="0" len="12" vol="96" pos="420" key="40"/>
          <note pan="0" len="12" vol="96" pos="444" key="67"/>
          <note pan="0" len="12" vol="96" pos="444" key="64"/>
          <note pan="0" len="12" vol="96" pos="444" key="57"/>
          <note pan="0" len="12" vol="96" pos="444" key="40"/>
          <note pan="0" len="12" vol="96" pos="468" key="64"/>
          <note pan="0" len="12" vol="96" pos="468" key="57"/>
          <note pan="0" len="12" vol="96" pos="468" key="55"/>
          <note pan="0" len="12" vol="96" pos="480" key="66"/>
          <note pan="0" len="12" vol="96" pos="480" key="62"/>
          <note pan="0" len="12" vol="96" pos="480" key="57"/>
          <note pan="0" len="12" vol="96" pos="480" key="38"/>
          <note pan="0" len="12" vol="96" pos="492" key="66"/>
          <note pan="0" len="12" vol="96" pos="492" key="62"/>
          <note pan="0" len="12" vol="96" pos="492" key="57"/>
          <note pan="0" len="12" vol="96" pos="492" key="26"/>
          <note pan="0" len="12" vol="96" pos="516" key="66"/>
          <note pan="0" len="12" vol="96" pos="516" key="62"/>
          <note pan="0" len="12" vol="96" pos="516" key="56"/>
          <note pan="0" len="12" vol="96" pos="516" key="38"/>
          <note pan="0" len="12" vol="96" pos="540" key="66"/>
          <note pan="0" len="12" vol="96" pos="540" key="62"/>
          <note pan="0" len="12" vol="96" pos="540" key="55"/>
          <note pan="0" len="12" vol="96" pos="540" key="38"/>
          <note pan="0" len="12" vol="96" pos="552" key="26"/>
          <note pan="0" len="12" vol="96" pos="564" key="66"/>
          <note pan="0" len="12" vol="96" pos="564" key="64"/>
          <note pan="0" len="12" vol="96" pos="564" key="57"/>
          <note pan="0" len="12" vol="96" pos="576" key="67"/>
          <note pan="0" len="12" vol="96" pos="576" key="64"/>
          <note pan="0" len="12" vol="96" pos="576" key="59"/>
          <note pan="0" len="12" vol="96" pos="576" key="45"/>
          <note pan="0" len="12" vol="96" pos="588" key="64"/>
          <note pan="0" len="12" vol="96" pos="588" key="59"/>
          <note pan="0" len="12" vol="96" pos="600" key="33"/>
          <note pan="0" len="12" vol="96" pos="612" key="64"/>
          <note pan="0" len="12" vol="96" pos="612" key="59"/>
          <note pan="0" len="12" vol="96" pos="612" key="57"/>
          <note pan="0" len="12" vol="96" pos="624" key="45"/>
          <note pan="0" len="12" vol="96" pos="636" key="67"/>
          <note pan="0" len="12" vol="96" pos="636" key="64"/>
          <note pan="0" len="12" vol="96" pos="636" key="59"/>
          <note pan="0" len="12" vol="96" pos="648" key="64"/>
          <note pan="0" len="12" vol="96" pos="648" key="55"/>
          <note pan="0" len="12" vol="96" pos="648" key="48"/>
          <note pan="0" len="12" vol="96" pos="672" key="66"/>
          <note pan="0" len="12" vol="96" pos="672" key="63"/>
          <note pan="0" len="12" vol="96" pos="672" key="59"/>
          <note pan="0" len="12" vol="96" pos="672" key="47"/>
          <note pan="0" len="12" vol="96" pos="684" key="35"/>
          <note pan="0" len="12" vol="96" pos="696" key="59"/>
          <note pan="0" len="12" vol="96" pos="696" key="54"/>
          <note pan="0" len="12" vol="96" pos="708" key="67"/>
          <note pan="0" len="12" vol="96" pos="708" key="63"/>
          <note pan="0" len="12" vol="96" pos="708" key="59"/>
          <note pan="0" len="12" vol="96" pos="708" key="47"/>
          <note pan="0" len="12" vol="96" pos="732" key="67"/>
          <note pan="0" len="12" vol="96" pos="732" key="59"/>
          <note pan="0" len="12" vol="96" pos="732" key="35"/>
          <note pan="0" len="12" vol="96" pos="744" key="66"/>
          <note pan="0" len="12" vol="96" pos="744" key="63"/>
          <note pan="0" len="12" vol="96" pos="744" key="57"/>
          <note pan="0" len="12" vol="96" pos="744" key="42"/>
        </midiclip>
        <midiclip name="" steps="16" type="1" muted="0" pos="0">
          <note pan="0" len="12" vol="100" pos="0" key="40"/>
          <note pan="0" len="12" vol="100" pos="24" key="40"/>
          <note pan="0" len="12" vol="100" pos="48" key="40"/>
          <note pan="0" len="12" vol="100" pos="96" key="38"/>
          <note pan="0" len="12" vol="100" pos="120" key="38"/>
          <note pan="0" len="12" vol="100" pos="168" key="38"/>
          <note pan="0" len="12" vol="100" pos="192" key="45"/>
          <note pan="0" len="12" vol="100" pos="216" key="33"/>
          <note pan="0" len="12" vol="100" pos="240" key="45"/>
          <note pan="0" len="12" vol="100" pos="288" key="47"/>
          <note pan="0" len="12" vol="100" pos="336" key="47"/>
          <note pan="0" len="12" vol="100" pos="360" key="43"/>
          <note pan="0" len="12" vol="100" pos="384" key="40"/>
          <note pan="0" len="12" vol="100" pos="408" key="40"/>
          <note pan="0" len="12" vol="100" pos="432" key="40"/>
          <note pan="0" len="12" vol="100" pos="480" key="38"/>
          <note pan="0" len="12" vol="100" pos="504" key="38"/>
          <note pan="0" len="12" vol="100" pos="552" key="38"/>
          <note pan="0" len="12" vol="100" pos="576" key="45"/>
          <note pan="0" len="12" vol="100" pos="600" key="33"/>
          <note pan="0" len="12" vol="100" pos="624" key="45"/>
          <note pan="0" len="12" vol="100" pos="672" key="47"/>
          <note pan="0" len="12" vol="100" pos="720" key="48"/>
          <note pan="0" len="12" vol="100" pos="744" key="47"/>
        </midiclip>
        <midiclip name="" steps="16" type="1" muted="0" pos="768">
          <note pan="0" len="12" vol="100" pos="0" key="64"/>
          <note pan="0" len="12" vol="100" pos="0" key="40"/>
          <note pan="0" len="12" vol="100" pos="24" key="40"/>
          <note pan="0" len="12" vol="100" pos="36" key="59"/>
          <note pan="0" len="12" vol="100" pos="48" key="40"/>
          <note pan="0" len="12" vol="100" pos="72" key="62"/>
          <note pan="0" len="12" vol="100" pos="96" key="38"/>
          <note pan="0" len="12" vol="100" pos="108" key="57"/>
          <note pan="0" len="12" vol="100" pos="120" key="38"/>
          <note pan="0" len="12" vol="100" pos="144" key="59"/>
          <note pan="0" len="12" vol="100" pos="168" key="38"/>
          <note pan="0" len="12" vol="100" pos="192" key="45"/>
          <note pan="0" len="12" vol="100" pos="216" key="33"/>
          <note pan="0" len="12" vol="100" pos="240" key="45"/>
          <note pan="0" len="12" vol="100" pos="288" key="47"/>
          <note pan="0" len="12" vol="100" pos="336" key="47"/>
          <note pan="0" len="12" vol="100" pos="360" key="43"/>
          <note pan="0" len="12" vol="100" pos="384" key="64"/>
          <note pan="0" len="12" vol="100" pos="384" key="40"/>
          <note pan="0" len="12" vol="100" pos="408" key="40"/>
          <note pan="0" len="12" vol="100" pos="420" key="59"/>
          <note pan="0" len="12" vol="100" pos="432" key="40"/>
          <note pan="0" len="12" vol="100" pos="456" key="62"/>
          <note pan="0" len="12" vol="100" pos="480" key="69"/>
          <note pan="0" len="12" vol="100" pos="480" key="38"/>
          <note pan="0" len="12" vol="100" pos="492" key="57"/>
          <note pan="0" len="12" vol="100" pos="504" key="38"/>
          <note pan="0" len="12" vol="100" pos="516" key="52"/>
          <note pan="0" len="12" vol="100" pos="528" key="59"/>
          <note pan="0" len="12" vol="100" pos="552" key="38"/>
          <note pan="0" len="12" vol="100" pos="564" key="71"/>
          <note pan="0" len="12" vol="100" pos="576" key="45"/>
          <note pan="0" len="12" vol="100" pos="600" key="33"/>
          <note pan="0" len="12" vol="100" pos="624" key="45"/>
          <note pan="0" len="12" vol="100" pos="672" key="47"/>
          <note pan="0" len="12" vol="100" pos="696" key="43"/>
          <note pan="0" len="12" vol="100" pos="720" key="42"/>
          <note pan="0" len="12" vol="100" pos="744" key="41"/>
        </midiclip>
        <midiclip name="" steps="16" type="1" muted="0" pos="3840">
          <note pan="0" len="12" vol="100" pos="0" key="71"/>
          <note pan="0" len="12" vol="100" pos="0" key="67"/>
          <note pan="0" len="12" vol="100" pos="0" key="64"/>
          <note pan="0" len="12" vol="100" pos="0" key="59"/>
          <note pan="0" len="12" vol="100" pos="0" key="40"/>
          <note pan="0" len="12" vol="100" pos="24" key="40"/>
          <note pan="0" len="12" vol="100" pos="36" key="74"/>
          <note pan="0" len="12" vol="100" pos="36" key="71"/>
          <note pan="0" len="12" vol="100" pos="36" key="67"/>
          <note pan="0" len="12" vol="100" pos="36" key="64"/>
          <note pan="0" len="12" vol="100" pos="48" key="52"/>
          <note pan="0" len="12" vol="100" pos="72" key="69"/>
          <note pan="0" len="12" vol="100" pos="72" key="40"/>
          <note pan="0" len="12" vol="100" pos="84" key="39"/>
          <note pan="0" len="12" vol="100" pos="96" key="71"/>
          <note pan="0" len="12" vol="100" pos="96" key="66"/>
          <note pan="0" len="12" vol="100" pos="96" key="62"/>
          <note pan="0" len="12" vol="100" pos="96" key="57"/>
          <note pan="0" len="12" vol="100" pos="96" key="38"/>
          <note pan="0" len="12" vol="100" pos="120" key="66"/>
          <note pan="0" len="12" vol="100" pos="120" key="62"/>
          <note pan="0" len="12" vol="100" pos="120" key="57"/>
          <note pan="0" len="12" vol="100" pos="120" key="50"/>
          <note pan="0" len="12" vol="100" pos="144" key="66"/>
          <note pan="0" len="12" vol="100" pos="144" key="62"/>
          <note pan="0" len="12" vol="100" pos="144" key="57"/>
          <note pan="0" len="12" vol="100" pos="144" key="38"/>
          <note pan="0" len="12" vol="100" pos="168" key="66"/>
          <note pan="0" len="12" vol="100" pos="168" key="62"/>
          <note pan="0" len="12" vol="100" pos="168" key="57"/>
          <note pan="0" len="12" vol="100" pos="168" key="38"/>
          <note pan="0" len="12" vol="100" pos="192" key="67"/>
          <note pan="0" len="12" vol="100" pos="192" key="64"/>
          <note pan="0" len="12" vol="100" pos="192" key="60"/>
          <note pan="0" len="12" vol="100" pos="192" key="57"/>
          <note pan="0" len="12" vol="100" pos="192" key="45"/>
          <note pan="0" len="12" vol="100" pos="216" key="45"/>
          <note pan="0" len="12" vol="100" pos="228" key="69"/>
          <note pan="0" len="12" vol="100" pos="228" key="67"/>
          <note pan="0" len="12" vol="100" pos="228" key="64"/>
          <note pan="0" len="12" vol="100" pos="228" key="60"/>
          <note pan="0" len="12" vol="100" pos="240" key="45"/>
          <note pan="0" len="12" vol="100" pos="264" key="74"/>
          <note pan="0" len="12" vol="100" pos="264" key="43"/>
          <note pan="0" len="12" vol="100" pos="276" key="42"/>
          <note pan="0" len="12" vol="100" pos="288" key="71"/>
          <note pan="0" len="12" vol="100" pos="288" key="67"/>
          <note pan="0" len="12" vol="100" pos="288" key="64"/>
          <note pan="0" len="12" vol="100" pos="288" key="59"/>
          <note pan="0" len="12" vol="100" pos="288" key="40"/>
          <note pan="0" len="12" vol="100" pos="312" key="67"/>
          <note pan="0" len="12" vol="100" pos="312" key="64"/>
          <note pan="0" len="12" vol="100" pos="312" key="59"/>
          <note pan="0" len="12" vol="100" pos="312" key="40"/>
          <note pan="0" len="12" vol="100" pos="336" key="64"/>
          <note pan="0" len="12" vol="100" pos="336" key="62"/>
          <note pan="0" len="12" vol="100" pos="336" key="59"/>
          <note pan="0" len="12" vol="100" pos="336" key="55"/>
          <note pan="0" len="12" vol="100" pos="336" key="40"/>
          <note pan="0" len="12" vol="100" pos="360" key="66"/>
          <note pan="0" len="12" vol="100" pos="360" key="64"/>
          <note pan="0" len="12" vol="100" pos="360" key="59"/>
          <note pan="0" len="12" vol="100" pos="360" key="42"/>
          <note pan="0" len="12" vol="100" pos="384" key="71"/>
          <note pan="0" len="12" vol="100" pos="384" key="67"/>
          <note pan="0" len="12" vol="100" pos="384" key="64"/>
          <note pan="0" len="12" vol="100" pos="384" key="59"/>
          <note pan="0" len="12" vol="100" pos="384" key="43"/>
          <note pan="0" len="12" vol="100" pos="408" key="55"/>
          <note pan="0" len="12" vol="100" pos="420" key="74"/>
          <note pan="0" len="12" vol="100" pos="420" key="71"/>
          <note pan="0" len="12" vol="100" pos="420" key="67"/>
          <note pan="0" len="12" vol="100" pos="420" key="64"/>
          <note pan="0" len="12" vol="100" pos="432" key="43"/>
          <note pan="0" len="12" vol="100" pos="456" key="69"/>
          <note pan="0" len="12" vol="100" pos="456" key="42"/>
          <note pan="0" len="12" vol="100" pos="468" key="40"/>
          <note pan="0" len="12" vol="100" pos="480" key="71"/>
          <note pan="0" len="12" vol="100" pos="480" key="66"/>
          <note pan="0" len="12" vol="100" pos="480" key="62"/>
          <note pan="0" len="12" vol="100" pos="480" key="57"/>
          <note pan="0" len="12" vol="100" pos="480" key="38"/>
          <note pan="0" len="12" vol="100" pos="504" key="66"/>
          <note pan="0" len="12" vol="100" pos="504" key="62"/>
          <note pan="0" len="12" vol="100" pos="504" key="57"/>
          <note pan="0" len="12" vol="100" pos="504" key="50"/>
          <note pan="0" len="12" vol="100" pos="528" key="71"/>
          <note pan="0" len="12" vol="100" pos="528" key="66"/>
          <note pan="0" len="12" vol="100" pos="528" key="62"/>
          <note pan="0" len="12" vol="100" pos="528" key="57"/>
          <note pan="0" len="12" vol="100" pos="528" key="38"/>
          <note pan="0" len="12" vol="100" pos="552" key="74"/>
          <note pan="0" len="12" vol="100" pos="552" key="69"/>
          <note pan="0" len="12" vol="100" pos="552" key="66"/>
          <note pan="0" len="12" vol="100" pos="552" key="62"/>
          <note pan="0" len="12" vol="100" pos="552" key="40"/>
          <note pan="0" len="12" vol="100" pos="576" key="78"/>
          <note pan="0" len="12" vol="100" pos="576" key="76"/>
          <note pan="0" len="12" vol="100" pos="576" key="72"/>
          <note pan="0" len="12" vol="100" pos="576" key="67"/>
          <note pan="0" len="12" vol="100" pos="576" key="45"/>
          <note pan="0" len="12" vol="100" pos="600" key="45"/>
          <note pan="0" len="12" vol="100" pos="612" key="79"/>
          <note pan="0" len="12" vol="100" pos="612" key="76"/>
          <note pan="0" len="12" vol="100" pos="612" key="72"/>
          <note pan="0" len="12" vol="100" pos="612" key="67"/>
          <note pan="0" len="12" vol="100" pos="624" key="45"/>
          <note pan="0" len="12" vol="100" pos="648" key="76"/>
          <note pan="0" len="12" vol="100" pos="648" key="43"/>
          <note pan="0" len="12" vol="100" pos="660" key="42"/>
          <note pan="0" len="12" vol="100" pos="672" key="71"/>
          <note pan="0" len="12" vol="100" pos="672" key="67"/>
          <note pan="0" len="12" vol="100" pos="672" key="64"/>
          <note pan="0" len="12" vol="100" pos="672" key="59"/>
          <note pan="0" len="12" vol="100" pos="672" key="40"/>
          <note pan="0" len="12" vol="100" pos="696" key="40"/>
          <note pan="0" len="12" vol="100" pos="720" key="38"/>
          <note pan="0" len="12" vol="100" pos="744" key="64"/>
          <note pan="0" len="12" vol="100" pos="744" key="59"/>
          <note pan="0" len="12" vol="100" pos="744" key="55"/>
          <note pan="0" len="12" vol="100" pos="744" key="43"/>
        </midiclip>
        <midiclip name="" steps="16" type="1" muted="0" pos="2304">
          <note pan="0" len="12" vol="100" pos="0" key="64"/>
          <note pan="0" len="12" vol="100" pos="0" key="59"/>
          <note pan="0" len="12" vol="100" pos="0" key="40"/>
          <note pan="0" len="12" vol="100" pos="12" key="28"/>
          <note pan="0" len="12" vol="100" pos="24" key="59"/>
          <note pan="0" len="12" vol="100" pos="36" key="59"/>
          <note pan="0" len="12" vol="100" pos="36" key="55"/>
          <note pan="0" len="12" vol="100" pos="36" key="40"/>
          <note pan="0" len="12" vol="100" pos="72" key="59"/>
          <note pan="0" len="12" vol="100" pos="72" key="55"/>
          <note pan="0" len="12" vol="100" pos="72" key="40"/>
          <note pan="0" len="12" vol="100" pos="96" key="71"/>
          <note pan="0" len="12" vol="100" pos="96" key="66"/>
          <note pan="0" len="12" vol="100" pos="96" key="38"/>
          <note pan="0" len="12" vol="100" pos="108" key="26"/>
          <note pan="0" len="12" vol="100" pos="120" key="66"/>
          <note pan="0" len="12" vol="100" pos="132" key="66"/>
          <note pan="0" len="12" vol="100" pos="132" key="62"/>
          <note pan="0" len="12" vol="100" pos="132" key="38"/>
          <note pan="0" len="12" vol="100" pos="168" key="66"/>
          <note pan="0" len="12" vol="100" pos="168" key="62"/>
          <note pan="0" len="12" vol="100" pos="168" key="38"/>
          <note pan="0" len="12" vol="100" pos="192" key="72"/>
          <note pan="0" len="12" vol="100" pos="192" key="67"/>
          <note pan="0" len="12" vol="100" pos="192" key="45"/>
          <note pan="0" len="12" vol="100" pos="216" key="55"/>
          <note pan="0" len="12" vol="100" pos="216" key="33"/>
          <note pan="0" len="12" vol="100" pos="228" key="69"/>
          <note pan="0" len="12" vol="100" pos="228" key="64"/>
          <note pan="0" len="12" vol="100" pos="228" key="59"/>
          <note pan="0" len="12" vol="100" pos="240" key="45"/>
          <note pan="0" len="12" vol="100" pos="264" key="72"/>
          <note pan="0" len="12" vol="100" pos="264" key="67"/>
          <note pan="0" len="12" vol="100" pos="264" key="64"/>
          <note pan="0" len="12" vol="100" pos="264" key="48"/>
          <note pan="0" len="12" vol="100" pos="288" key="71"/>
          <note pan="0" len="12" vol="100" pos="288" key="66"/>
          <note pan="0" len="12" vol="100" pos="288" key="63"/>
          <note pan="0" len="12" vol="100" pos="288" key="47"/>
          <note pan="0" len="12" vol="100" pos="300" key="35"/>
          <note pan="0" len="12" vol="100" pos="312" key="66"/>
          <note pan="0" len="12" vol="100" pos="324" key="66"/>
          <note pan="0" len="12" vol="100" pos="324" key="63"/>
          <note pan="0" len="12" vol="100" pos="324" key="47"/>
          <note pan="0" len="12" vol="100" pos="360" key="63"/>
          <note pan="0" len="12" vol="100" pos="360" key="59"/>
          <note pan="0" len="12" vol="100" pos="360" key="43"/>
          <note pan="0" len="12" vol="100" pos="384" key="76"/>
          <note pan="0" len="12" vol="100" pos="384" key="71"/>
          <note pan="0" len="12" vol="100" pos="384" key="40"/>
          <note pan="0" len="12" vol="100" pos="396" key="28"/>
          <note pan="0" len="12" vol="100" pos="408" key="64"/>
          <note pan="0" len="12" vol="100" pos="420" key="71"/>
          <note pan="0" len="12" vol="100" pos="420" key="64"/>
          <note pan="0" len="12" vol="100" pos="420" key="40"/>
          <note pan="0" len="12" vol="100" pos="456" key="71"/>
          <note pan="0" len="12" vol="100" pos="456" key="64"/>
          <note pan="0" len="12" vol="100" pos="456" key="40"/>
          <note pan="0" len="12" vol="100" pos="480" key="74"/>
          <note pan="0" len="12" vol="100" pos="480" key="69"/>
          <note pan="0" len="12" vol="100" pos="480" key="38"/>
          <note pan="0" len="12" vol="100" pos="492" key="26"/>
          <note pan="0" len="12" vol="100" pos="504" key="66"/>
          <note pan="0" len="12" vol="100" pos="516" key="69"/>
          <note pan="0" len="12" vol="100" pos="516" key="62"/>
          <note pan="0" len="12" vol="100" pos="516" key="38"/>
          <note pan="0" len="12" vol="100" pos="552" key="69"/>
          <note pan="0" len="12" vol="100" pos="552" key="62"/>
          <note pan="0" len="12" vol="100" pos="552" key="38"/>
          <note pan="0" len="12" vol="100" pos="576" key="72"/>
          <note pan="0" len="12" vol="100" pos="576" key="67"/>
          <note pan="0" len="12" vol="100" pos="576" key="45"/>
          <note pan="0" len="12" vol="100" pos="600" key="55"/>
          <note pan="0" len="12" vol="100" pos="600" key="33"/>
          <note pan="0" len="12" vol="100" pos="612" key="69"/>
          <note pan="0" len="12" vol="100" pos="612" key="64"/>
          <note pan="0" len="12" vol="100" pos="612" key="59"/>
          <note pan="0" len="12" vol="100" pos="624" key="45"/>
          <note pan="0" len="12" vol="100" pos="648" key="67"/>
          <note pan="0" len="12" vol="100" pos="648" key="64"/>
          <note pan="0" len="12" vol="100" pos="648" key="59"/>
          <note pan="0" len="12" vol="100" pos="648" key="48"/>
          <note pan="0" len="12" vol="100" pos="672" key="66"/>
          <note pan="0" len="12" vol="100" pos="672" key="63"/>
          <note pan="0" len="12" vol="100" pos="672" key="59"/>
          <note pan="0" len="12" vol="100" pos="672" key="47"/>
          <note pan="0" len="12" vol="100" pos="684" key="35"/>
          <note pan="0" len="12" vol="100" pos="696" key="54"/>
          <note pan="0" len="12" vol="100" pos="708" key="62"/>
          <note pan="0" len="12" vol="100" pos="708" key="54"/>
          <note pan="0" len="12" vol="100" pos="708" key="47"/>
          <note pan="0" len="12" vol="100" pos="744" key="63"/>
          <note pan="0" len="12" vol="100" pos="744" key="54"/>
          <note pan="0" len="12" vol="100" pos="744" key="51"/>
        </midiclip>
        <midiclip name="" steps="16" type="1" muted="0" pos="6336">
          <note pan="0" len="24" vol="100" pos="0" key="71"/>
          <note pan="0" len="12" vol="100" pos="0" key="67"/>
          <note pan="0" len="12" vol="100" pos="0" key="64"/>
          <note pan="0" len="12" vol="100" pos="0" key="59"/>
          <note pan="0" len="24" vol="100" pos="0" key="40"/>
          <note pan="0" len="12" vol="100" pos="24" key="64"/>
          <note pan="0" len="12" vol="100" pos="24" key="59"/>
          <note pan="0" len="12" vol="100" pos="24" key="55"/>
          <note pan="0" len="24" vol="100" pos="24" key="40"/>
          <note pan="0" len="24" vol="100" pos="36" key="74"/>
          <note pan="0" len="12" vol="100" pos="36" key="67"/>
          <note pan="0" len="12" vol="100" pos="36" key="64"/>
          <note pan="0" len="12" vol="100" pos="36" key="59"/>
          <note pan="0" len="24" vol="100" pos="48" key="52"/>
          <note pan="0" len="12" vol="100" pos="60" key="64"/>
          <note pan="0" len="12" vol="100" pos="60" key="59"/>
          <note pan="0" len="12" vol="100" pos="60" key="55"/>
          <note pan="0" len="12" vol="100" pos="72" key="69"/>
          <note pan="0" len="12" vol="100" pos="72" key="67"/>
          <note pan="0" len="12" vol="100" pos="72" key="64"/>
          <note pan="0" len="12" vol="100" pos="72" key="59"/>
          <note pan="0" len="12" vol="100" pos="72" key="40"/>
          <note pan="0" len="12" vol="100" pos="84" key="39"/>
          <note pan="0" len="24" vol="100" pos="96" key="71"/>
          <note pan="0" len="12" vol="100" pos="96" key="66"/>
          <note pan="0" len="12" vol="100" pos="96" key="62"/>
          <note pan="0" len="12" vol="100" pos="96" key="57"/>
          <note pan="0" len="24" vol="100" pos="96" key="38"/>
          <note pan="0" len="12" vol="100" pos="120" key="62"/>
          <note pan="0" len="12" vol="100" pos="120" key="57"/>
          <note pan="0" len="12" vol="100" pos="120" key="54"/>
          <note pan="0" len="24" vol="100" pos="120" key="50"/>
          <note pan="0" len="12" vol="100" pos="132" key="66"/>
          <note pan="0" len="12" vol="100" pos="132" key="62"/>
          <note pan="0" len="12" vol="100" pos="132" key="57"/>
          <note pan="0" len="24" vol="100" pos="144" key="38"/>
          <note pan="0" len="12" vol="100" pos="156" key="62"/>
          <note pan="0" len="12" vol="100" pos="156" key="57"/>
          <note pan="0" len="12" vol="100" pos="156" key="54"/>
          <note pan="0" len="12" vol="100" pos="168" key="66"/>
          <note pan="0" len="12" vol="100" pos="168" key="62"/>
          <note pan="0" len="12" vol="100" pos="168" key="57"/>
          <note pan="0" len="24" vol="100" pos="168" key="38"/>
          <note pan="0" len="24" vol="100" pos="192" key="67"/>
          <note pan="0" len="12" vol="100" pos="192" key="64"/>
          <note pan="0" len="12" vol="100" pos="192" key="60"/>
          <note pan="0" len="12" vol="100" pos="192" key="57"/>
          <note pan="0" len="24" vol="100" pos="192" key="45"/>
          <note pan="0" len="12" vol="100" pos="216" key="64"/>
          <note pan="0" len="12" vol="100" pos="216" key="60"/>
          <note pan="0" len="12" vol="100" pos="216" key="55"/>
          <note pan="0" len="24" vol="100" pos="216" key="45"/>
          <note pan="0" len="24" vol="100" pos="228" key="69"/>
          <note pan="0" len="12" vol="100" pos="228" key="67"/>
          <note pan="0" len="12" vol="100" pos="228" key="64"/>
          <note pan="0" len="12" vol="100" pos="228" key="60"/>
          <note pan="0" len="24" vol="100" pos="240" key="45"/>
          <note pan="0" len="12" vol="100" pos="252" key="67"/>
          <note pan="0" len="12" vol="100" pos="252" key="64"/>
          <note pan="0" len="12" vol="100" pos="252" key="60"/>
          <note pan="0" len="24" vol="100" pos="264" key="74"/>
          <note pan="0" len="12" vol="100" pos="264" key="71"/>
          <note pan="0" len="12" vol="100" pos="264" key="67"/>
          <note pan="0" len="12" vol="100" pos="264" key="64"/>
          <note pan="0" len="12" vol="100" pos="264" key="43"/>
          <note pan="0" len="12" vol="100" pos="276" key="42"/>
          <note pan="0" len="24" vol="100" pos="288" key="71"/>
          <note pan="0" len="12" vol="100" pos="288" key="67"/>
          <note pan="0" len="12" vol="100" pos="288" key="64"/>
          <note pan="0" len="12" vol="100" pos="288" key="59"/>
          <note pan="0" len="24" vol="100" pos="288" key="40"/>
          <note pan="0" len="12" vol="100" pos="312" key="64"/>
          <note pan="0" len="12" vol="100" pos="312" key="59"/>
          <note pan="0" len="12" vol="100" pos="312" key="55"/>
          <note pan="0" len="24" vol="100" pos="312" key="40"/>
          <note pan="0" len="12" vol="100" pos="324" key="67"/>
          <note pan="0" len="12" vol="100" pos="324" key="64"/>
          <note pan="0" len="12" vol="100" pos="324" key="59"/>
          <note pan="0" len="12" vol="100" pos="336" key="64"/>
          <note pan="0" len="24" vol="100" pos="336" key="40"/>
          <note pan="0" len="12" vol="100" pos="348" key="64"/>
          <note pan="0" len="12" vol="100" pos="348" key="59"/>
          <note pan="0" len="12" vol="100" pos="348" key="55"/>
          <note pan="0" len="24" vol="100" pos="360" key="66"/>
          <note pan="0" len="12" vol="100" pos="360" key="64"/>
          <note pan="0" len="12" vol="100" pos="360" key="59"/>
          <note pan="0" len="24" vol="100" pos="360" key="42"/>
          <note pan="0" len="24" vol="100" pos="384" key="79"/>
          <note pan="0" len="12" vol="100" pos="384" key="76"/>
          <note pan="0" len="12" vol="100" pos="384" key="71"/>
          <note pan="0" len="12" vol="100" pos="384" key="67"/>
          <note pan="0" len="48" vol="100" pos="384" key="43"/>
          <note pan="0" len="12" vol="100" pos="408" key="64"/>
          <note pan="0" len="12" vol="100" pos="408" key="59"/>
          <note pan="0" len="12" vol="100" pos="408" key="55"/>
          <note pan="0" len="12" vol="100" pos="408" key="55"/>
          <note pan="0" len="24" vol="100" pos="420" key="78"/>
          <note pan="0" len="12" vol="100" pos="420" key="71"/>
          <note pan="0" len="12" vol="100" pos="420" key="67"/>
          <note pan="0" len="12" vol="100" pos="420" key="64"/>
          <note pan="0" len="24" vol="100" pos="432" key="43"/>
          <note pan="0" len="12" vol="100" pos="444" key="64"/>
          <note pan="0" len="12" vol="100" pos="444" key="59"/>
          <note pan="0" len="12" vol="100" pos="444" key="55"/>
          <note pan="0" len="24" vol="100" pos="456" key="76"/>
          <note pan="0" len="12" vol="100" pos="456" key="71"/>
          <note pan="0" len="12" vol="100" pos="456" key="67"/>
          <note pan="0" len="12" vol="100" pos="456" key="64"/>
          <note pan="0" len="12" vol="100" pos="456" key="42"/>
          <note pan="0" len="12" vol="100" pos="468" key="40"/>
          <note pan="0" len="24" vol="100" pos="480" key="71"/>
          <note pan="0" len="12" vol="100" pos="480" key="66"/>
          <note pan="0" len="12" vol="100" pos="480" key="62"/>
          <note pan="0" len="12" vol="100" pos="480" key="57"/>
          <note pan="0" len="24" vol="100" pos="480" key="38"/>
          <note pan="0" len="12" vol="100" pos="504" key="62"/>
          <note pan="0" len="12" vol="100" pos="504" key="57"/>
          <note pan="0" len="12" vol="100" pos="504" key="54"/>
          <note pan="0" len="24" vol="100" pos="504" key="50"/>
          <note pan="0" len="12" vol="100" pos="516" key="66"/>
          <note pan="0" len="12" vol="100" pos="516" key="62"/>
          <note pan="0" len="12" vol="100" pos="516" key="57"/>
          <note pan="0" len="12" vol="100" pos="528" key="71"/>
          <note pan="0" len="24" vol="100" pos="528" key="38"/>
          <note pan="0" len="12" vol="100" pos="540" key="62"/>
          <note pan="0" len="12" vol="100" pos="540" key="57"/>
          <note pan="0" len="12" vol="100" pos="540" key="54"/>
          <note pan="0" len="24" vol="100" pos="552" key="74"/>
          <note pan="0" len="12" vol="100" pos="552" key="66"/>
          <note pan="0" len="12" vol="100" pos="552" key="62"/>
          <note pan="0" len="12" vol="100" pos="552" key="57"/>
          <note pan="0" len="24" vol="100" pos="552" key="40"/>
          <note pan="0" len="24" vol="100" pos="576" key="78"/>
          <note pan="0" len="12" vol="100" pos="576" key="72"/>
          <note pan="0" len="12" vol="100" pos="576" key="67"/>
          <note pan="0" len="12" vol="100" pos="576" key="64"/>
          <note pan="0" len="24" vol="100" pos="576" key="45"/>
          <note pan="0" len="12" vol="100" pos="600" key="64"/>
          <note pan="0" len="12" vol="100" pos="600" key="60"/>
          <note pan="0" len="12" vol="100" pos="600" key="55"/>
          <note pan="0" len="24" vol="100" pos="600" key="45"/>
          <note pan="0" len="24" vol="100" pos="612" key="79"/>
          <note pan="0" len="12" vol="100" pos="612" key="72"/>
          <note pan="0" len="12" vol="100" pos="612" key="67"/>
          <note pan="0" len="12" vol="100" pos="612" key="64"/>
          <note pan="0" len="24" vol="100" pos="624" key="45"/>
          <note pan="0" len="12" vol="100" pos="636" key="72"/>
          <note pan="0" len="12" vol="100" pos="636" key="67"/>
          <note pan="0" len="12" vol="100" pos="636" key="64"/>
          <note pan="0" len="24" vol="100" pos="648" key="81"/>
          <note pan="0" len="12" vol="100" pos="648" key="76"/>
          <note pan="0" len="12" vol="100" pos="648" key="72"/>
          <note pan="0" len="12" vol="100" pos="648" key="67"/>
          <note pan="0" len="12" vol="100" pos="648" key="43"/>
          <note pan="0" len="12" vol="100" pos="660" key="42"/>
          <note pan="0" len="72" vol="100" pos="672" key="83"/>
          <note pan="0" len="72" vol="100" pos="672" key="79"/>
          <note pan="0" len="72" vol="100" pos="672" key="76"/>
          <note pan="0" len="72" vol="100" pos="672" key="71"/>
          <note pan="0" len="96" vol="100" pos="672" key="40"/>
        </midiclip>
        <midiclip name="" steps="16" type="1" muted="0" pos="4608">
          <note pan="0" len="12" vol="100" pos="0" key="71"/>
          <note pan="0" len="12" vol="100" pos="0" key="67"/>
          <note pan="0" len="12" vol="100" pos="0" key="64"/>
          <note pan="0" len="12" vol="100" pos="0" key="59"/>
          <note pan="0" len="12" vol="100" pos="0" key="40"/>
          <note pan="0" len="12" vol="100" pos="24" key="40"/>
          <note pan="0" len="12" vol="100" pos="36" key="74"/>
          <note pan="0" len="12" vol="100" pos="36" key="71"/>
          <note pan="0" len="12" vol="100" pos="36" key="67"/>
          <note pan="0" len="12" vol="100" pos="36" key="64"/>
          <note pan="0" len="12" vol="100" pos="48" key="52"/>
          <note pan="0" len="12" vol="100" pos="72" key="69"/>
          <note pan="0" len="12" vol="100" pos="72" key="40"/>
          <note pan="0" len="12" vol="100" pos="84" key="39"/>
          <note pan="0" len="12" vol="100" pos="96" key="71"/>
          <note pan="0" len="12" vol="100" pos="96" key="66"/>
          <note pan="0" len="12" vol="100" pos="96" key="62"/>
          <note pan="0" len="12" vol="100" pos="96" key="57"/>
          <note pan="0" len="12" vol="100" pos="96" key="38"/>
          <note pan="0" len="12" vol="100" pos="120" key="66"/>
          <note pan="0" len="12" vol="100" pos="120" key="62"/>
          <note pan="0" len="12" vol="100" pos="120" key="57"/>
          <note pan="0" len="12" vol="100" pos="120" key="50"/>
          <note pan="0" len="12" vol="100" pos="144" key="66"/>
          <note pan="0" len="12" vol="100" pos="144" key="62"/>
          <note pan="0" len="12" vol="100" pos="144" key="57"/>
          <note pan="0" len="12" vol="100" pos="144" key="38"/>
          <note pan="0" len="12" vol="100" pos="168" key="66"/>
          <note pan="0" len="12" vol="100" pos="168" key="62"/>
          <note pan="0" len="12" vol="100" pos="168" key="57"/>
          <note pan="0" len="12" vol="100" pos="168" key="38"/>
          <note pan="0" len="12" vol="100" pos="192" key="67"/>
          <note pan="0" len="12" vol="100" pos="192" key="64"/>
          <note pan="0" len="12" vol="100" pos="192" key="60"/>
          <note pan="0" len="12" vol="100" pos="192" key="57"/>
          <note pan="0" len="12" vol="100" pos="192" key="45"/>
          <note pan="0" len="12" vol="100" pos="216" key="45"/>
          <note pan="0" len="12" vol="100" pos="228" key="69"/>
          <note pan="0" len="12" vol="100" pos="228" key="67"/>
          <note pan="0" len="12" vol="100" pos="228" key="64"/>
          <note pan="0" len="12" vol="100" pos="228" key="60"/>
          <note pan="0" len="12" vol="100" pos="240" key="45"/>
          <note pan="0" len="12" vol="100" pos="264" key="74"/>
          <note pan="0" len="12" vol="100" pos="264" key="43"/>
          <note pan="0" len="12" vol="100" pos="276" key="42"/>
          <note pan="0" len="12" vol="100" pos="288" key="71"/>
          <note pan="0" len="12" vol="100" pos="288" key="67"/>
          <note pan="0" len="12" vol="100" pos="288" key="64"/>
          <note pan="0" len="12" vol="100" pos="288" key="59"/>
          <note pan="0" len="12" vol="100" pos="288" key="40"/>
          <note pan="0" len="12" vol="100" pos="312" key="67"/>
          <note pan="0" len="12" vol="100" pos="312" key="64"/>
          <note pan="0" len="12" vol="100" pos="312" key="59"/>
          <note pan="0" len="12" vol="100" pos="312" key="40"/>
          <note pan="0" len="12" vol="100" pos="336" key="67"/>
          <note pan="0" len="12" vol="100" pos="336" key="64"/>
          <note pan="0" len="12" vol="100" pos="336" key="62"/>
          <note pan="0" len="12" vol="100" pos="336" key="59"/>
          <note pan="0" len="12" vol="100" pos="336" key="40"/>
          <note pan="0" len="12" vol="100" pos="360" key="71"/>
          <note pan="0" len="12" vol="100" pos="360" key="69"/>
          <note pan="0" len="12" vol="100" pos="360" key="66"/>
          <note pan="0" len="12" vol="100" pos="360" key="64"/>
          <note pan="0" len="12" vol="100" pos="360" key="42"/>
          <note pan="0" len="12" vol="100" pos="384" key="79"/>
          <note pan="0" len="12" vol="100" pos="384" key="76"/>
          <note pan="0" len="12" vol="100" pos="384" key="74"/>
          <note pan="0" len="12" vol="100" pos="384" key="71"/>
          <note pan="0" len="12" vol="100" pos="384" key="43"/>
          <note pan="0" len="12" vol="100" pos="408" key="55"/>
          <note pan="0" len="12" vol="100" pos="420" key="78"/>
          <note pan="0" len="12" vol="100" pos="420" key="76"/>
          <note pan="0" len="12" vol="100" pos="420" key="74"/>
          <note pan="0" len="12" vol="100" pos="420" key="71"/>
          <note pan="0" len="12" vol="100" pos="432" key="43"/>
          <note pan="0" len="12" vol="100" pos="456" key="76"/>
          <note pan="0" len="12" vol="100" pos="456" key="71"/>
          <note pan="0" len="12" vol="100" pos="456" key="67"/>
          <note pan="0" len="12" vol="100" pos="456" key="42"/>
          <note pan="0" len="12" vol="100" pos="468" key="40"/>
          <note pan="0" len="12" vol="100" pos="480" key="71"/>
          <note pan="0" len="12" vol="100" pos="480" key="69"/>
          <note pan="0" len="12" vol="100" pos="480" key="66"/>
          <note pan="0" len="12" vol="100" pos="480" key="62"/>
          <note pan="0" len="12" vol="100" pos="480" key="38"/>
          <note pan="0" len="12" vol="100" pos="504" key="66"/>
          <note pan="0" len="12" vol="100" pos="504" key="62"/>
          <note pan="0" len="12" vol="100" pos="504" key="57"/>
          <note pan="0" len="12" vol="100" pos="504" key="50"/>
          <note pan="0" len="12" vol="100" pos="528" key="71"/>
          <note pan="0" len="12" vol="100" pos="528" key="66"/>
          <note pan="0" len="12" vol="100" pos="528" key="62"/>
          <note pan="0" len="12" vol="100" pos="528" key="57"/>
          <note pan="0" len="12" vol="100" pos="528" key="38"/>
          <note pan="0" len="12" vol="100" pos="552" key="74"/>
          <note pan="0" len="12" vol="100" pos="552" key="69"/>
          <note pan="0" len="12" vol="100" pos="552" key="66"/>
          <note pan="0" len="12" vol="100" pos="552" key="62"/>
          <note pan="0" len="12" vol="100" pos="552" key="40"/>
          <note pan="0" len="12" vol="100" pos="576" key="78"/>
          <note pan="0" len="12" vol="100" pos="576" key="76"/>
          <note pan="0" len="12" vol="100" pos="576" key="72"/>
          <note pan="0" len="12" vol="100" pos="576" key="69"/>
          <note pan="0" len="12" vol="100" pos="576" key="45"/>
          <note pan="0" len="12" vol="100" pos="600" key="45"/>
          <note pan="0" len="12" vol="100" pos="612" key="79"/>
          <note pan="0" len="12" vol="100" pos="612" key="76"/>
          <note pan="0" len="12" vol="100" pos="612" key="72"/>
          <note pan="0" len="12" vol="100" pos="612" key="69"/>
          <note pan="0" len="12" vol="100" pos="624" key="45"/>
          <note pan="0" len="12" vol="100" pos="648" key="81"/>
          <note pan="0" len="12" vol="100" pos="648" key="78"/>
          <note pan="0" len="12" vol="100" pos="648" key="74"/>
          <note pan="0" len="12" vol="100" pos="648" key="43"/>
          <note pan="0" len="12" vol="100" pos="660" key="42"/>
          <note pan="0" len="12" vol="100" pos="672" key="83"/>
          <note pan="0" len="12" vol="100" pos="672" key="79"/>
          <note pan="0" len="12" vol="100" pos="672" key="76"/>
          <note pan="0" len="12" vol="100" pos="672" key="71"/>
          <note pan="0" len="12" vol="100" pos="672" key="40"/>
        </midiclip>
      </track>
      <track name="MasonHamlin-A-v7" mutedBeforeSolo="0" type="0" muted="0" solo="0">
        <instrumenttrack scale="0" pan="0" enabled="0" keymap="0" enablecc="0" range_import="1" usemasterpitch="1" vol="37.6" basenote="69" lastkey="127" pitch="0" firstkey="0" pitchrange="1" mixch="1">
          <midicontrollers cc59="0" cc89="0" cc29="0" cc88="0" cc90="0" cc57="0" cc44="0" cc67="0" cc97="0" cc119="0" cc62="0" cc73="0" cc99="0" cc27="0" cc15="0" cc102="0" cc126="0" cc23="0" cc32="0" cc103="0" cc114="0" cc116="0" cc0="0" cc37="0" cc26="0" cc4="0" cc101="0" cc78="0" cc100="0" cc66="0" cc55="0" cc16="0" cc71="0" cc61="0" cc6="0" cc7="0" cc113="0" cc76="0" cc93="0" cc38="0" cc28="0" cc91="0" cc5="0" cc86="0" cc18="0" cc24="0" cc75="0" cc115="0" cc117="0" cc79="0" cc85="0" cc60="0" cc48="0" cc74="0" cc120="0" cc122="0" cc36="0" cc104="0" cc8="0" cc49="0" cc118="0" cc40="0" cc50="0" cc96="0" cc77="0" cc3="0" cc83="0" cc41="0" cc124="0" cc1="0" cc112="0" cc56="0" cc125="0" cc94="0" cc108="0" cc46="0" cc69="0" cc42="0" cc68="0" cc2="0" cc12="0" cc107="0" cc17="0" cc54="0" cc64="0" cc31="0" cc30="0" cc43="0" cc20="0" cc72="0" cc51="0" cc35="0" cc58="0" cc19="0" cc123="0" cc9="0" cc106="0" cc82="0" cc65="0" cc110="0" cc47="0" cc87="0" cc84="0" cc53="0" cc22="0" cc34="0" cc63="0" cc39="0" cc13="0" cc33="0" cc92="0" cc81="0" cc105="0" cc95="0" cc121="0" cc111="0" cc11="0" cc52="0" cc14="0" cc45="0" cc21="0" cc109="0" cc10="0" cc25="0" cc98="0" cc70="0" cc80="0" cc127="0"/>
          <instrument name="sf2player">
            <sf2player reverbRoomSize="0.2" chorusDepth="8" patch="5" chorusSpeed="0.3" reverbOn="0" src="usersoundfont:MasonHamlin-A-v7.sf2" reverbDamping="0" chorusLevel="2" bank="0" reverbLevel="0.9" chorusNum="3" reverbWidth="0.5" chorusOn="0" gain="0.32">
              <key/>
            </sf2player>
          </instrument>
          <eldata fwet="0" fcut="14000" fres="0.5" ftype="0">
            <elvol lspd_denominator="4" dec="0.5" latt="0" sustain="0.5" lspd_syncmode="0" ctlenvamt="0" att="0" lshp="0" x100="0" lamt="0" lspd_numerator="4" hold="0.5" rel="0.1" pdel="0" lspd="0.1" amt="0" lpdel="0" userwavefile=""/>
            <elcut lspd_denominator="4" dec="0.5" latt="0" sustain="0.5" lspd_syncmode="0" ctlenvamt="0" att="0" lshp="0" x100="0" lamt="0" lspd_numerator="4" hold="0.5" rel="0.1" pdel="0" lspd="0.1" amt="0" lpdel="0" userwavefile=""/>
            <elres lspd_denominator="4" dec="0.5" latt="0" sustain="0.5" lspd_syncmode="0" ctlenvamt="0" att="0" lshp="0" x100="0" lamt="0" lspd_numerator="4" hold="0.5" rel="0.1" pdel="0" lspd="0.1" amt="0" lpdel="0" userwavefile=""/>
          </eldata>
          <chordcreator chord-enabled="0" chordrange="1" chord="0"/>
          <arpeggiator arp="0" arptime_syncmode="0" arpcycle="0" arprepeats="1" arptime="200" arptime_denominator="4" arpmode="0" arptime_numerator="4" arp-enabled="0" arprange="1" arpgate="100" arpskip="0" arpmiss="0" arpdir="0"/>
          <midiport inputcontroller="0" fixedoutputnote="-1" outputprogram="1" outputchannel="1" readable="1" fixedoutputvelocity="-1" inputchannel="0" writable="0" outputcontroller="0" fixedinputvelocity="-1" basevelocity="127" inports=""/>
          <fxchain enabled="0" numofeffects="0"/>
        </instrumenttrack>
        <midiclip name="" steps="16" type="1" muted="0" pos="1536">
          <note pan="0" len="24" vol="100" pos="0" key="52"/>
          <note pan="0" len="12" vol="100" pos="0" key="40"/>
          <note pan="0" len="24" vol="100" pos="12" key="28"/>
          <note pan="0" len="12" vol="100" pos="24" key="52"/>
          <note pan="0" len="12" vol="100" pos="36" key="64"/>
          <note pan="0" len="12" vol="100" pos="36" key="59"/>
          <note pan="0" len="36" vol="100" pos="36" key="40"/>
          <note pan="0" len="24" vol="100" pos="72" key="64"/>
          <note pan="0" len="24" vol="100" pos="72" key="59"/>
          <note pan="0" len="24" vol="100" pos="72" key="40"/>
          <note pan="0" len="24" vol="100" pos="96" key="54"/>
          <note pan="0" len="12" vol="100" pos="96" key="38"/>
          <note pan="0" len="24" vol="100" pos="108" key="26"/>
          <note pan="0" len="12" vol="100" pos="120" key="54"/>
          <note pan="0" len="12" vol="100" pos="132" key="66"/>
          <note pan="0" len="12" vol="100" pos="132" key="62"/>
          <note pan="0" len="36" vol="100" pos="132" key="38"/>
          <note pan="0" len="24" vol="100" pos="168" key="66"/>
          <note pan="0" len="24" vol="100" pos="168" key="62"/>
          <note pan="0" len="24" vol="100" pos="168" key="38"/>
          <note pan="0" len="24" vol="100" pos="192" key="55"/>
          <note pan="0" len="24" vol="100" pos="192" key="45"/>
          <note pan="0" len="12" vol="100" pos="216" key="55"/>
          <note pan="0" len="24" vol="100" pos="216" key="33"/>
          <note pan="0" len="12" vol="100" pos="228" key="67"/>
          <note pan="0" len="12" vol="100" pos="228" key="57"/>
          <note pan="0" len="24" vol="100" pos="240" key="45"/>
          <note pan="0" len="24" vol="100" pos="264" key="67"/>
          <note pan="0" len="24" vol="100" pos="264" key="57"/>
          <note pan="0" len="24" vol="100" pos="264" key="48"/>
          <note pan="0" len="24" vol="100" pos="288" key="54"/>
          <note pan="0" len="12" vol="100" pos="288" key="47"/>
          <note pan="0" len="24" vol="100" pos="300" key="35"/>
          <note pan="0" len="12" vol="100" pos="312" key="54"/>
          <note pan="0" len="12" vol="100" pos="324" key="66"/>
          <note pan="0" len="12" vol="100" pos="324" key="59"/>
          <note pan="0" len="36" vol="100" pos="324" key="47"/>
          <note pan="0" len="24" vol="100" pos="360" key="66"/>
          <note pan="0" len="24" vol="100" pos="360" key="59"/>
          <note pan="0" len="24" vol="100" pos="360" key="43"/>
          <note pan="0" len="24" vol="100" pos="384" key="52"/>
          <note pan="0" len="12" vol="100" pos="384" key="40"/>
          <note pan="0" len="24" vol="100" pos="396" key="28"/>
          <note pan="0" len="12" vol="100" pos="408" key="52"/>
          <note pan="0" len="12" vol="100" pos="420" key="64"/>
          <note pan="0" len="12" vol="100" pos="420" key="59"/>
          <note pan="0" len="36" vol="100" pos="420" key="40"/>
          <note pan="0" len="24" vol="100" pos="456" key="64"/>
          <note pan="0" len="24" vol="100" pos="456" key="59"/>
          <note pan="0" len="24" vol="100" pos="456" key="40"/>
          <note pan="0" len="24" vol="100" pos="480" key="54"/>
          <note pan="0" len="12" vol="100" pos="480" key="38"/>
          <note pan="0" len="24" vol="100" pos="492" key="26"/>
          <note pan="0" len="12" vol="100" pos="504" key="54"/>
          <note pan="0" len="12" vol="100" pos="516" key="66"/>
          <note pan="0" len="12" vol="100" pos="516" key="62"/>
          <note pan="0" len="36" vol="100" pos="516" key="38"/>
          <note pan="0" len="24" vol="100" pos="552" key="66"/>
          <note pan="0" len="24" vol="100" pos="552" key="62"/>
          <note pan="0" len="24" vol="100" pos="552" key="38"/>
          <note pan="0" len="24" vol="100" pos="576" key="55"/>
          <note pan="0" len="24" vol="100" pos="576" key="45"/>
          <note pan="0" len="12" vol="100" pos="600" key="55"/>
          <note pan="0" len="24" vol="100" pos="600" key="33"/>
          <note pan="0" len="12" vol="100" pos="612" key="67"/>
          <note pan="0" len="12" vol="100" pos="612" key="57"/>
          <note pan="0" len="24" vol="100" pos="624" key="45"/>
          <note pan="0" len="24" vol="100" pos="648" key="67"/>
          <note pan="0" len="24" vol="100" pos="648" key="57"/>
          <note pan="0" len="24" vol="100" pos="648" key="48"/>
          <note pan="0" len="24" vol="100" pos="672" key="54"/>
          <note pan="0" len="12" vol="100" pos="672" key="47"/>
          <note pan="0" len="24" vol="100" pos="684" key="35"/>
          <note pan="0" len="12" vol="100" pos="696" key="54"/>
          <note pan="0" len="12" vol="100" pos="708" key="66"/>
          <note pan="0" len="12" vol="100" pos="708" key="59"/>
          <note pan="0" len="36" vol="100" pos="708" key="47"/>
          <note pan="0" len="24" vol="100" pos="744" key="66"/>
          <note pan="0" len="24" vol="100" pos="744" key="59"/>
          <note pan="0" len="24" vol="100" pos="744" key="43"/>
        </midiclip>
        <midiclip name="" steps="16" type="1" muted="0" pos="3072">
          <note pan="0" len="12" vol="100" pos="0" key="67"/>
          <note pan="0" len="12" vol="100" pos="0" key="64"/>
          <note pan="0" len="12" vol="100" pos="0" key="59"/>
          <note pan="0" len="12" vol="100" pos="0" key="52"/>
          <note pan="0" len="12" vol="100" pos="12" key="67"/>
          <note pan="0" len="12" vol="100" pos="12" key="64"/>
          <note pan="0" len="12" vol="100" pos="12" key="59"/>
          <note pan="0" len="24" vol="100" pos="12" key="43"/>
          <note pan="0" len="24" vol="100" pos="36" key="67"/>
          <note pan="0" len="24" vol="100" pos="36" key="64"/>
          <note pan="0" len="24" vol="100" pos="36" key="58"/>
          <note pan="0" len="24" vol="100" pos="36" key="42"/>
          <note pan="0" len="36" vol="100" pos="60" key="67"/>
          <note pan="0" len="36" vol="100" pos="60" key="64"/>
          <note pan="0" len="36" vol="100" pos="60" key="57"/>
          <note pan="0" len="36" vol="100" pos="60" key="40"/>
          <note pan="0" len="12" vol="100" pos="96" key="66"/>
          <note pan="0" len="12" vol="100" pos="96" key="62"/>
          <note pan="0" len="12" vol="100" pos="96" key="57"/>
          <note pan="0" len="12" vol="100" pos="96" key="50"/>
          <note pan="0" len="12" vol="100" pos="108" key="66"/>
          <note pan="0" len="12" vol="100" pos="108" key="62"/>
          <note pan="0" len="12" vol="100" pos="108" key="57"/>
          <note pan="0" len="24" vol="100" pos="108" key="42"/>
          <note pan="0" len="24" vol="100" pos="132" key="66"/>
          <note pan="0" len="24" vol="100" pos="132" key="62"/>
          <note pan="0" len="24" vol="100" pos="132" key="56"/>
          <note pan="0" len="24" vol="100" pos="132" key="40"/>
          <note pan="0" len="36" vol="100" pos="156" key="66"/>
          <note pan="0" len="36" vol="100" pos="156" key="62"/>
          <note pan="0" len="36" vol="100" pos="156" key="55"/>
          <note pan="0" len="24" vol="100" pos="156" key="38"/>
          <note pan="0" len="12" vol="100" pos="180" key="43"/>
          <note pan="0" len="12" vol="100" pos="192" key="67"/>
          <note pan="0" len="12" vol="100" pos="192" key="59"/>
          <note pan="0" len="12" vol="100" pos="192" key="52"/>
          <note pan="0" len="24" vol="100" pos="192" key="47"/>
          <note pan="0" len="12" vol="100" pos="216" key="68"/>
          <note pan="0" len="12" vol="100" pos="216" key="63"/>
          <note pan="0" len="12" vol="100" pos="216" key="54"/>
          <note pan="0" len="24" vol="100" pos="216" key="48"/>
          <note pan="0" len="12" vol="100" pos="240" key="69"/>
          <note pan="0" len="12" vol="100" pos="240" key="63"/>
          <note pan="0" len="12" vol="100" pos="240" key="55"/>
          <note pan="0" len="24" vol="100" pos="240" key="47"/>
          <note pan="0" len="12" vol="100" pos="264" key="71"/>
          <note pan="0" len="12" vol="100" pos="264" key="64"/>
          <note pan="0" len="12" vol="100" pos="264" key="57"/>
          <note pan="0" len="24" vol="100" pos="264" key="48"/>
          <note pan="0" len="12" vol="100" pos="288" key="74"/>
          <note pan="0" len="12" vol="100" pos="288" key="66"/>
          <note pan="0" len="12" vol="100" pos="288" key="59"/>
          <note pan="0" len="12" vol="100" pos="288" key="47"/>
          <note pan="0" len="12" vol="100" pos="300" key="69"/>
          <note pan="0" len="12" vol="100" pos="300" key="64"/>
          <note pan="0" len="12" vol="100" pos="300" key="60"/>
          <note pan="0" len="24" vol="100" pos="300" key="43"/>
          <note pan="0" len="24" vol="100" pos="324" key="68"/>
          <note pan="0" len="24" vol="100" pos="324" key="63"/>
          <note pan="0" len="24" vol="100" pos="324" key="59"/>
          <note pan="0" len="24" vol="100" pos="324" key="42"/>
          <note pan="0" len="36" vol="100" pos="348" key="67"/>
          <note pan="0" len="36" vol="100" pos="348" key="62"/>
          <note pan="0" len="36" vol="100" pos="348" key="55"/>
          <note pan="0" len="36" vol="100" pos="348" key="40"/>
          <note pan="0" len="12" vol="100" pos="384" key="67"/>
          <note pan="0" len="12" vol="100" pos="384" key="64"/>
          <note pan="0" len="12" vol="100" pos="384" key="59"/>
          <note pan="0" len="12" vol="100" pos="384" key="40"/>
          <note pan="0" len="12" vol="100" pos="396" key="67"/>
          <note pan="0" len="12" vol="100" pos="396" key="64"/>
          <note pan="0" len="12" vol="100" pos="396" key="59"/>
          <note pan="0" len="24" vol="100" pos="396" key="28"/>
          <note pan="0" len="24" vol="100" pos="420" key="67"/>
          <note pan="0" len="24" vol="100" pos="420" key="64"/>
          <note pan="0" len="24" vol="100" pos="420" key="58"/>
          <note pan="0" len="24" vol="100" pos="420" key="40"/>
          <note pan="0" len="24" vol="100" pos="444" key="67"/>
          <note pan="0" len="24" vol="100" pos="444" key="64"/>
          <note pan="0" len="24" vol="100" pos="444" key="57"/>
          <note pan="0" len="36" vol="100" pos="444" key="40"/>
          <note pan="0" len="12" vol="100" pos="468" key="64"/>
          <note pan="0" len="12" vol="100" pos="468" key="57"/>
          <note pan="0" len="12" vol="100" pos="468" key="55"/>
          <note pan="0" len="12" vol="100" pos="480" key="66"/>
          <note pan="0" len="12" vol="100" pos="480" key="62"/>
          <note pan="0" len="12" vol="100" pos="480" key="57"/>
          <note pan="0" len="12" vol="100" pos="480" key="38"/>
          <note pan="0" len="12" vol="100" pos="492" key="66"/>
          <note pan="0" len="12" vol="100" pos="492" key="62"/>
          <note pan="0" len="12" vol="100" pos="492" key="57"/>
          <note pan="0" len="24" vol="100" pos="492" key="26"/>
          <note pan="0" len="24" vol="100" pos="516" key="66"/>
          <note pan="0" len="24" vol="100" pos="516" key="62"/>
          <note pan="0" len="24" vol="100" pos="516" key="56"/>
          <note pan="0" len="24" vol="100" pos="516" key="38"/>
          <note pan="0" len="24" vol="100" pos="540" key="66"/>
          <note pan="0" len="24" vol="100" pos="540" key="62"/>
          <note pan="0" len="24" vol="100" pos="540" key="55"/>
          <note pan="0" len="12" vol="100" pos="540" key="38"/>
          <note pan="0" len="24" vol="100" pos="552" key="26"/>
          <note pan="0" len="12" vol="100" pos="564" key="66"/>
          <note pan="0" len="12" vol="100" pos="564" key="64"/>
          <note pan="0" len="12" vol="100" pos="564" key="57"/>
          <note pan="0" len="36" vol="100" pos="576" key="67"/>
          <note pan="0" len="12" vol="100" pos="576" key="64"/>
          <note pan="0" len="12" vol="100" pos="576" key="59"/>
          <note pan="0" len="24" vol="100" pos="576" key="45"/>
          <note pan="0" len="24" vol="100" pos="588" key="64"/>
          <note pan="0" len="24" vol="100" pos="588" key="59"/>
          <note pan="0" len="24" vol="100" pos="600" key="33"/>
          <note pan="0" len="24" vol="100" pos="612" key="64"/>
          <note pan="0" len="24" vol="100" pos="612" key="59"/>
          <note pan="0" len="24" vol="100" pos="612" key="57"/>
          <note pan="0" len="24" vol="100" pos="624" key="45"/>
          <note pan="0" len="12" vol="100" pos="636" key="67"/>
          <note pan="0" len="12" vol="100" pos="636" key="64"/>
          <note pan="0" len="36" vol="100" pos="636" key="59"/>
          <note pan="0" len="24" vol="100" pos="648" key="64"/>
          <note pan="0" len="24" vol="100" pos="648" key="55"/>
          <note pan="0" len="24" vol="100" pos="648" key="48"/>
          <note pan="0" len="24" vol="100" pos="672" key="66"/>
          <note pan="0" len="36" vol="100" pos="672" key="63"/>
          <note pan="0" len="24" vol="100" pos="672" key="59"/>
          <note pan="0" len="12" vol="100" pos="672" key="47"/>
          <note pan="0" len="24" vol="100" pos="684" key="35"/>
          <note pan="0" len="12" vol="100" pos="696" key="59"/>
          <note pan="0" len="12" vol="100" pos="696" key="54"/>
          <note pan="0" len="24" vol="100" pos="708" key="67"/>
          <note pan="0" len="36" vol="100" pos="708" key="63"/>
          <note pan="0" len="24" vol="100" pos="708" key="59"/>
          <note pan="0" len="24" vol="100" pos="708" key="47"/>
          <note pan="0" len="12" vol="100" pos="732" key="67"/>
          <note pan="0" len="12" vol="100" pos="732" key="59"/>
          <note pan="0" len="12" vol="100" pos="732" key="35"/>
          <note pan="0" len="24" vol="100" pos="744" key="66"/>
          <note pan="0" len="24" vol="100" pos="744" key="63"/>
          <note pan="0" len="24" vol="100" pos="744" key="57"/>
          <note pan="0" len="24" vol="100" pos="744" key="42"/>
        </midiclip>
        <midiclip name="" steps="16" type="1" muted="0" pos="0">
          <note pan="0" len="12" vol="100" pos="0" key="40"/>
          <note pan="0" len="12" vol="100" pos="24" key="40"/>
          <note pan="0" len="12" vol="100" pos="48" key="40"/>
          <note pan="0" len="12" vol="100" pos="96" key="38"/>
          <note pan="0" len="12" vol="100" pos="120" key="38"/>
          <note pan="0" len="12" vol="100" pos="168" key="38"/>
          <note pan="0" len="12" vol="100" pos="192" key="45"/>
          <note pan="0" len="12" vol="100" pos="216" key="33"/>
          <note pan="0" len="12" vol="100" pos="240" key="45"/>
          <note pan="0" len="12" vol="100" pos="288" key="47"/>
          <note pan="0" len="12" vol="100" pos="336" key="47"/>
          <note pan="0" len="12" vol="100" pos="360" key="43"/>
          <note pan="0" len="12" vol="100" pos="384" key="40"/>
          <note pan="0" len="12" vol="100" pos="408" key="40"/>
          <note pan="0" len="12" vol="100" pos="432" key="40"/>
          <note pan="0" len="12" vol="100" pos="480" key="38"/>
          <note pan="0" len="12" vol="100" pos="504" key="38"/>
          <note pan="0" len="12" vol="100" pos="552" key="38"/>
          <note pan="0" len="12" vol="100" pos="576" key="45"/>
          <note pan="0" len="12" vol="100" pos="600" key="33"/>
          <note pan="0" len="12" vol="100" pos="624" key="45"/>
          <note pan="0" len="12" vol="100" pos="672" key="47"/>
          <note pan="0" len="12" vol="100" pos="720" key="48"/>
          <note pan="0" len="12" vol="100" pos="744" key="47"/>
        </midiclip>
        <midiclip name="" steps="16" type="1" muted="0" pos="768">
          <note pan="0" len="36" vol="100" pos="0" key="64"/>
          <note pan="0" len="12" vol="100" pos="0" key="40"/>
          <note pan="0" len="12" vol="100" pos="24" key="40"/>
          <note pan="0" len="36" vol="100" pos="36" key="59"/>
          <note pan="0" len="12" vol="100" pos="48" key="40"/>
          <note pan="0" len="36" vol="100" pos="72" key="62"/>
          <note pan="0" len="12" vol="100" pos="96" key="38"/>
          <note pan="0" len="36" vol="100" pos="108" key="57"/>
          <note pan="0" len="12" vol="100" pos="120" key="38"/>
          <note pan="0" len="144" vol="100" pos="144" key="59"/>
          <note pan="0" len="12" vol="100" pos="168" key="38"/>
          <note pan="0" len="12" vol="100" pos="192" key="45"/>
          <note pan="0" len="12" vol="100" pos="216" key="33"/>
          <note pan="0" len="12" vol="100" pos="240" key="45"/>
          <note pan="0" len="12" vol="100" pos="288" key="47"/>
          <note pan="0" len="12" vol="100" pos="336" key="47"/>
          <note pan="0" len="12" vol="100" pos="360" key="43"/>
          <note pan="0" len="36" vol="100" pos="384" key="64"/>
          <note pan="0" len="12" vol="100" pos="384" key="40"/>
          <note pan="0" len="12" vol="100" pos="408" key="40"/>
          <note pan="0" len="36" vol="100" pos="420" key="59"/>
          <note pan="0" len="12" vol="100" pos="432" key="40"/>
          <note pan="0" len="36" vol="100" pos="456" key="62"/>
          <note pan="0" len="12" vol="100" pos="480" key="69"/>
          <note pan="0" len="12" vol="100" pos="480" key="38"/>
          <note pan="0" len="24" vol="100" pos="492" key="57"/>
          <note pan="0" len="12" vol="100" pos="504" key="38"/>
          <note pan="0" len="12" vol="100" pos="516" key="52"/>
          <note pan="0" len="36" vol="100" pos="528" key="59"/>
          <note pan="0" len="12" vol="100" pos="552" key="38"/>
          <note pan="0" len="168" vol="100" pos="564" key="71"/>
          <note pan="0" len="12" vol="100" pos="576" key="45"/>
          <note pan="0" len="12" vol="100" pos="600" key="33"/>
          <note pan="0" len="12" vol="100" pos="624" key="45"/>
          <note pan="0" len="12" vol="100" pos="672" key="47"/>
          <note pan="0" len="24" vol="100" pos="696" key="43"/>
          <note pan="0" len="12" vol="100" pos="720" key="42"/>
          <note pan="0" len="24" vol="100" pos="744" key="41"/>
        </midiclip>
        <midiclip name="" steps="16" type="1" muted="0" pos="3840">
          <note pan="0" len="36" vol="100" pos="0" key="71"/>
          <note pan="0" len="36" vol="100" pos="0" key="67"/>
          <note pan="0" len="36" vol="100" pos="0" key="64"/>
          <note pan="0" len="36" vol="100" pos="0" key="59"/>
          <note pan="0" len="24" vol="100" pos="0" key="40"/>
          <note pan="0" len="24" vol="100" pos="24" key="40"/>
          <note pan="0" len="12" vol="100" pos="36" key="74"/>
          <note pan="0" len="12" vol="100" pos="36" key="71"/>
          <note pan="0" len="12" vol="100" pos="36" key="67"/>
          <note pan="0" len="12" vol="100" pos="36" key="64"/>
          <note pan="0" len="24" vol="100" pos="48" key="52"/>
          <note pan="0" len="24" vol="100" pos="72" key="69"/>
          <note pan="0" len="12" vol="100" pos="72" key="40"/>
          <note pan="0" len="12" vol="100" pos="84" key="39"/>
          <note pan="0" len="12" vol="100" pos="96" key="71"/>
          <note pan="0" len="12" vol="100" pos="96" key="66"/>
          <note pan="0" len="12" vol="100" pos="96" key="62"/>
          <note pan="0" len="12" vol="100" pos="96" key="57"/>
          <note pan="0" len="24" vol="100" pos="96" key="38"/>
          <note pan="0" len="12" vol="100" pos="120" key="66"/>
          <note pan="0" len="12" vol="100" pos="120" key="62"/>
          <note pan="0" len="12" vol="100" pos="120" key="57"/>
          <note pan="0" len="24" vol="100" pos="120" key="50"/>
          <note pan="0" len="12" vol="100" pos="144" key="66"/>
          <note pan="0" len="12" vol="100" pos="144" key="62"/>
          <note pan="0" len="12" vol="100" pos="144" key="57"/>
          <note pan="0" len="24" vol="100" pos="144" key="38"/>
          <note pan="0" len="12" vol="100" pos="168" key="66"/>
          <note pan="0" len="12" vol="100" pos="168" key="62"/>
          <note pan="0" len="12" vol="100" pos="168" key="57"/>
          <note pan="0" len="24" vol="100" pos="168" key="38"/>
          <note pan="0" len="36" vol="100" pos="192" key="67"/>
          <note pan="0" len="36" vol="100" pos="192" key="64"/>
          <note pan="0" len="36" vol="100" pos="192" key="60"/>
          <note pan="0" len="36" vol="100" pos="192" key="57"/>
          <note pan="0" len="24" vol="100" pos="192" key="45"/>
          <note pan="0" len="24" vol="100" pos="216" key="45"/>
          <note pan="0" len="12" vol="100" pos="228" key="69"/>
          <note pan="0" len="12" vol="100" pos="228" key="67"/>
          <note pan="0" len="12" vol="100" pos="228" key="64"/>
          <note pan="0" len="12" vol="100" pos="228" key="60"/>
          <note pan="0" len="24" vol="100" pos="240" key="45"/>
          <note pan="0" len="24" vol="100" pos="264" key="74"/>
          <note pan="0" len="12" vol="100" pos="264" key="43"/>
          <note pan="0" len="12" vol="100" pos="276" key="42"/>
          <note pan="0" len="24" vol="100" pos="288" key="71"/>
          <note pan="0" len="24" vol="100" pos="288" key="67"/>
          <note pan="0" len="24" vol="100" pos="288" key="64"/>
          <note pan="0" len="24" vol="100" pos="288" key="59"/>
          <note pan="0" len="24" vol="100" pos="288" key="40"/>
          <note pan="0" len="12" vol="100" pos="312" key="67"/>
          <note pan="0" len="12" vol="100" pos="312" key="64"/>
          <note pan="0" len="12" vol="100" pos="312" key="59"/>
          <note pan="0" len="24" vol="100" pos="312" key="40"/>
          <note pan="0" len="24" vol="100" pos="336" key="64"/>
          <note pan="0" len="24" vol="100" pos="336" key="62"/>
          <note pan="0" len="24" vol="100" pos="336" key="59"/>
          <note pan="0" len="24" vol="100" pos="336" key="55"/>
          <note pan="0" len="24" vol="100" pos="336" key="40"/>
          <note pan="0" len="12" vol="100" pos="360" key="66"/>
          <note pan="0" len="12" vol="100" pos="360" key="64"/>
          <note pan="0" len="12" vol="100" pos="360" key="59"/>
          <note pan="0" len="24" vol="100" pos="360" key="42"/>
          <note pan="0" len="36" vol="100" pos="384" key="71"/>
          <note pan="0" len="36" vol="100" pos="384" key="67"/>
          <note pan="0" len="36" vol="100" pos="384" key="64"/>
          <note pan="0" len="36" vol="100" pos="384" key="59"/>
          <note pan="0" len="24" vol="100" pos="384" key="43"/>
          <note pan="0" len="24" vol="100" pos="408" key="55"/>
          <note pan="0" len="12" vol="100" pos="420" key="74"/>
          <note pan="0" len="12" vol="100" pos="420" key="71"/>
          <note pan="0" len="12" vol="100" pos="420" key="67"/>
          <note pan="0" len="12" vol="100" pos="420" key="64"/>
          <note pan="0" len="24" vol="100" pos="432" key="43"/>
          <note pan="0" len="24" vol="100" pos="456" key="69"/>
          <note pan="0" len="12" vol="100" pos="456" key="42"/>
          <note pan="0" len="12" vol="100" pos="468" key="40"/>
          <note pan="0" len="12" vol="100" pos="480" key="71"/>
          <note pan="0" len="12" vol="100" pos="480" key="66"/>
          <note pan="0" len="12" vol="100" pos="480" key="62"/>
          <note pan="0" len="12" vol="100" pos="480" key="57"/>
          <note pan="0" len="24" vol="100" pos="480" key="38"/>
          <note pan="0" len="12" vol="100" pos="504" key="66"/>
          <note pan="0" len="12" vol="100" pos="504" key="62"/>
          <note pan="0" len="12" vol="100" pos="504" key="57"/>
          <note pan="0" len="24" vol="100" pos="504" key="50"/>
          <note pan="0" len="24" vol="100" pos="528" key="71"/>
          <note pan="0" len="24" vol="100" pos="528" key="66"/>
          <note pan="0" len="24" vol="100" pos="528" key="62"/>
          <note pan="0" len="24" vol="100" pos="528" key="57"/>
          <note pan="0" len="24" vol="100" pos="528" key="38"/>
          <note pan="0" len="12" vol="100" pos="552" key="74"/>
          <note pan="0" len="12" vol="100" pos="552" key="69"/>
          <note pan="0" len="12" vol="100" pos="552" key="66"/>
          <note pan="0" len="12" vol="100" pos="552" key="62"/>
          <note pan="0" len="24" vol="100" pos="552" key="40"/>
          <note pan="0" len="36" vol="100" pos="576" key="78"/>
          <note pan="0" len="36" vol="100" pos="576" key="76"/>
          <note pan="0" len="36" vol="100" pos="576" key="72"/>
          <note pan="0" len="36" vol="100" pos="576" key="67"/>
          <note pan="0" len="24" vol="100" pos="576" key="45"/>
          <note pan="0" len="24" vol="100" pos="600" key="45"/>
          <note pan="0" len="12" vol="100" pos="612" key="79"/>
          <note pan="0" len="12" vol="100" pos="612" key="76"/>
          <note pan="0" len="12" vol="100" pos="612" key="72"/>
          <note pan="0" len="12" vol="100" pos="612" key="67"/>
          <note pan="0" len="24" vol="100" pos="624" key="45"/>
          <note pan="0" len="24" vol="100" pos="648" key="76"/>
          <note pan="0" len="12" vol="100" pos="648" key="43"/>
          <note pan="0" len="12" vol="100" pos="660" key="42"/>
          <note pan="0" len="72" vol="100" pos="672" key="71"/>
          <note pan="0" len="72" vol="100" pos="672" key="67"/>
          <note pan="0" len="72" vol="100" pos="672" key="64"/>
          <note pan="0" len="72" vol="100" pos="672" key="59"/>
          <note pan="0" len="24" vol="100" pos="672" key="40"/>
          <note pan="0" len="24" vol="100" pos="696" key="40"/>
          <note pan="0" len="24" vol="100" pos="720" key="38"/>
          <note pan="0" len="24" vol="100" pos="744" key="64"/>
          <note pan="0" len="24" vol="100" pos="744" key="59"/>
          <note pan="0" len="24" vol="100" pos="744" key="55"/>
          <note pan="0" len="24" vol="100" pos="744" key="43"/>
        </midiclip>
        <midiclip name="" steps="16" type="1" muted="0" pos="2304">
          <note pan="0" len="96" vol="100" pos="0" key="64"/>
          <note pan="0" len="24" vol="100" pos="0" key="59"/>
          <note pan="0" len="12" vol="100" pos="0" key="40"/>
          <note pan="0" len="24" vol="100" pos="12" key="28"/>
          <note pan="0" len="12" vol="100" pos="24" key="59"/>
          <note pan="0" len="12" vol="100" pos="36" key="59"/>
          <note pan="0" len="12" vol="100" pos="36" key="55"/>
          <note pan="0" len="36" vol="100" pos="36" key="40"/>
          <note pan="0" len="24" vol="100" pos="72" key="59"/>
          <note pan="0" len="24" vol="100" pos="72" key="55"/>
          <note pan="0" len="24" vol="100" pos="72" key="40"/>
          <note pan="0" len="96" vol="100" pos="96" key="71"/>
          <note pan="0" len="24" vol="100" pos="96" key="66"/>
          <note pan="0" len="12" vol="100" pos="96" key="38"/>
          <note pan="0" len="24" vol="100" pos="108" key="26"/>
          <note pan="0" len="12" vol="100" pos="120" key="66"/>
          <note pan="0" len="12" vol="100" pos="132" key="66"/>
          <note pan="0" len="12" vol="100" pos="132" key="62"/>
          <note pan="0" len="36" vol="100" pos="132" key="38"/>
          <note pan="0" len="24" vol="100" pos="168" key="66"/>
          <note pan="0" len="24" vol="100" pos="168" key="62"/>
          <note pan="0" len="24" vol="100" pos="168" key="38"/>
          <note pan="0" len="24" vol="100" pos="192" key="72"/>
          <note pan="0" len="24" vol="100" pos="192" key="67"/>
          <note pan="0" len="24" vol="100" pos="192" key="45"/>
          <note pan="0" len="12" vol="100" pos="216" key="55"/>
          <note pan="0" len="24" vol="100" pos="216" key="33"/>
          <note pan="0" len="36" vol="100" pos="228" key="69"/>
          <note pan="0" len="36" vol="100" pos="228" key="64"/>
          <note pan="0" len="36" vol="100" pos="228" key="59"/>
          <note pan="0" len="24" vol="100" pos="240" key="45"/>
          <note pan="0" len="24" vol="100" pos="264" key="72"/>
          <note pan="0" len="12" vol="100" pos="264" key="67"/>
          <note pan="0" len="12" vol="100" pos="264" key="64"/>
          <note pan="0" len="24" vol="100" pos="264" key="48"/>
          <note pan="0" len="96" vol="100" pos="288" key="71"/>
          <note pan="0" len="24" vol="100" pos="288" key="66"/>
          <note pan="0" len="24" vol="100" pos="288" key="63"/>
          <note pan="0" len="12" vol="100" pos="288" key="47"/>
          <note pan="0" len="24" vol="100" pos="300" key="35"/>
          <note pan="0" len="12" vol="100" pos="312" key="66"/>
          <note pan="0" len="12" vol="100" pos="324" key="66"/>
          <note pan="0" len="12" vol="100" pos="324" key="63"/>
          <note pan="0" len="36" vol="100" pos="324" key="47"/>
          <note pan="0" len="24" vol="100" pos="360" key="63"/>
          <note pan="0" len="24" vol="100" pos="360" key="59"/>
          <note pan="0" len="24" vol="100" pos="360" key="43"/>
          <note pan="0" len="96" vol="100" pos="384" key="76"/>
          <note pan="0" len="24" vol="100" pos="384" key="71"/>
          <note pan="0" len="12" vol="100" pos="384" key="40"/>
          <note pan="0" len="24" vol="100" pos="396" key="28"/>
          <note pan="0" len="12" vol="100" pos="408" key="64"/>
          <note pan="0" len="12" vol="100" pos="420" key="71"/>
          <note pan="0" len="12" vol="100" pos="420" key="64"/>
          <note pan="0" len="36" vol="100" pos="420" key="40"/>
          <note pan="0" len="24" vol="100" pos="456" key="71"/>
          <note pan="0" len="24" vol="100" pos="456" key="64"/>
          <note pan="0" len="24" vol="100" pos="456" key="40"/>
          <note pan="0" len="96" vol="100" pos="480" key="74"/>
          <note pan="0" len="24" vol="100" pos="480" key="69"/>
          <note pan="0" len="12" vol="100" pos="480" key="38"/>
          <note pan="0" len="24" vol="100" pos="492" key="26"/>
          <note pan="0" len="12" vol="100" pos="504" key="66"/>
          <note pan="0" len="12" vol="100" pos="516" key="69"/>
          <note pan="0" len="12" vol="100" pos="516" key="62"/>
          <note pan="0" len="36" vol="100" pos="516" key="38"/>
          <note pan="0" len="24" vol="100" pos="552" key="69"/>
          <note pan="0" len="24" vol="100" pos="552" key="62"/>
          <note pan="0" len="24" vol="100" pos="552" key="38"/>
          <note pan="0" len="24" vol="100" pos="576" key="72"/>
          <note pan="0" len="24" vol="100" pos="576" key="67"/>
          <note pan="0" len="24" vol="100" pos="576" key="45"/>
          <note pan="0" len="12" vol="100" pos="600" key="55"/>
          <note pan="0" len="24" vol="100" pos="600" key="33"/>
          <note pan="0" len="36" vol="100" pos="612" key="69"/>
          <note pan="0" len="36" vol="100" pos="612" key="64"/>
          <note pan="0" len="36" vol="100" pos="612" key="59"/>
          <note pan="0" len="24" vol="100" pos="624" key="45"/>
          <note pan="0" len="24" vol="100" pos="648" key="67"/>
          <note pan="0" len="12" vol="100" pos="648" key="64"/>
          <note pan="0" len="12" vol="100" pos="648" key="59"/>
          <note pan="0" len="24" vol="100" pos="648" key="48"/>
          <note pan="0" len="24" vol="100" pos="672" key="66"/>
          <note pan="0" len="24" vol="100" pos="672" key="63"/>
          <note pan="0" len="24" vol="100" pos="672" key="59"/>
          <note pan="0" len="12" vol="100" pos="672" key="47"/>
          <note pan="0" len="24" vol="100" pos="684" key="35"/>
          <note pan="0" len="12" vol="100" pos="696" key="54"/>
          <note pan="0" len="12" vol="100" pos="708" key="62"/>
          <note pan="0" len="12" vol="100" pos="708" key="54"/>
          <note pan="0" len="36" vol="100" pos="708" key="47"/>
          <note pan="0" len="24" vol="100" pos="744" key="63"/>
          <note pan="0" len="24" vol="100" pos="744" key="54"/>
          <note pan="0" len="24" vol="100" pos="744" key="51"/>
        </midiclip>
        <midiclip name="" steps="16" type="1" muted="0" pos="4608">
          <note pan="0" len="36" vol="100" pos="0" key="71"/>
          <note pan="0" len="36" vol="100" pos="0" key="67"/>
          <note pan="0" len="36" vol="100" pos="0" key="64"/>
          <note pan="0" len="36" vol="100" pos="0" key="59"/>
          <note pan="0" len="24" vol="100" pos="0" key="40"/>
          <note pan="0" len="24" vol="100" pos="24" key="40"/>
          <note pan="0" len="12" vol="100" pos="36" key="74"/>
          <note pan="0" len="12" vol="100" pos="36" key="71"/>
          <note pan="0" len="12" vol="100" pos="36" key="67"/>
          <note pan="0" len="12" vol="100" pos="36" key="64"/>
          <note pan="0" len="24" vol="100" pos="48" key="52"/>
          <note pan="0" len="24" vol="100" pos="72" key="69"/>
          <note pan="0" len="12" vol="100" pos="72" key="40"/>
          <note pan="0" len="12" vol="100" pos="84" key="39"/>
          <note pan="0" len="12" vol="100" pos="96" key="71"/>
          <note pan="0" len="12" vol="100" pos="96" key="66"/>
          <note pan="0" len="12" vol="100" pos="96" key="62"/>
          <note pan="0" len="12" vol="100" pos="96" key="57"/>
          <note pan="0" len="24" vol="100" pos="96" key="38"/>
          <note pan="0" len="12" vol="100" pos="120" key="66"/>
          <note pan="0" len="12" vol="100" pos="120" key="62"/>
          <note pan="0" len="12" vol="100" pos="120" key="57"/>
          <note pan="0" len="24" vol="100" pos="120" key="50"/>
          <note pan="0" len="12" vol="100" pos="144" key="66"/>
          <note pan="0" len="12" vol="100" pos="144" key="62"/>
          <note pan="0" len="12" vol="100" pos="144" key="57"/>
          <note pan="0" len="24" vol="100" pos="144" key="38"/>
          <note pan="0" len="12" vol="100" pos="168" key="66"/>
          <note pan="0" len="12" vol="100" pos="168" key="62"/>
          <note pan="0" len="12" vol="100" pos="168" key="57"/>
          <note pan="0" len="24" vol="100" pos="168" key="38"/>
          <note pan="0" len="36" vol="100" pos="192" key="67"/>
          <note pan="0" len="36" vol="100" pos="192" key="64"/>
          <note pan="0" len="36" vol="100" pos="192" key="60"/>
          <note pan="0" len="36" vol="100" pos="192" key="57"/>
          <note pan="0" len="24" vol="100" pos="192" key="45"/>
          <note pan="0" len="24" vol="100" pos="216" key="45"/>
          <note pan="0" len="12" vol="100" pos="228" key="69"/>
          <note pan="0" len="12" vol="100" pos="228" key="67"/>
          <note pan="0" len="12" vol="100" pos="228" key="64"/>
          <note pan="0" len="12" vol="100" pos="228" key="60"/>
          <note pan="0" len="24" vol="100" pos="240" key="45"/>
          <note pan="0" len="24" vol="100" pos="264" key="74"/>
          <note pan="0" len="12" vol="100" pos="264" key="43"/>
          <note pan="0" len="12" vol="100" pos="276" key="42"/>
          <note pan="0" len="24" vol="100" pos="288" key="71"/>
          <note pan="0" len="24" vol="100" pos="288" key="67"/>
          <note pan="0" len="24" vol="100" pos="288" key="64"/>
          <note pan="0" len="24" vol="100" pos="288" key="59"/>
          <note pan="0" len="24" vol="100" pos="288" key="40"/>
          <note pan="0" len="12" vol="100" pos="312" key="67"/>
          <note pan="0" len="12" vol="100" pos="312" key="64"/>
          <note pan="0" len="12" vol="100" pos="312" key="59"/>
          <note pan="0" len="24" vol="100" pos="312" key="40"/>
          <note pan="0" len="24" vol="100" pos="336" key="67"/>
          <note pan="0" len="24" vol="100" pos="336" key="64"/>
          <note pan="0" len="24" vol="100" pos="336" key="62"/>
          <note pan="0" len="24" vol="100" pos="336" key="59"/>
          <note pan="0" len="24" vol="100" pos="336" key="40"/>
          <note pan="0" len="12" vol="100" pos="360" key="71"/>
          <note pan="0" len="12" vol="100" pos="360" key="69"/>
          <note pan="0" len="12" vol="100" pos="360" key="66"/>
          <note pan="0" len="12" vol="100" pos="360" key="64"/>
          <note pan="0" len="24" vol="100" pos="360" key="42"/>
          <note pan="0" len="36" vol="100" pos="384" key="79"/>
          <note pan="0" len="36" vol="100" pos="384" key="76"/>
          <note pan="0" len="36" vol="100" pos="384" key="74"/>
          <note pan="0" len="36" vol="100" pos="384" key="71"/>
          <note pan="0" len="24" vol="100" pos="384" key="43"/>
          <note pan="0" len="24" vol="100" pos="408" key="55"/>
          <note pan="0" len="12" vol="100" pos="420" key="78"/>
          <note pan="0" len="12" vol="100" pos="420" key="76"/>
          <note pan="0" len="12" vol="100" pos="420" key="74"/>
          <note pan="0" len="12" vol="100" pos="420" key="71"/>
          <note pan="0" len="24" vol="100" pos="432" key="43"/>
          <note pan="0" len="24" vol="100" pos="456" key="76"/>
          <note pan="0" len="24" vol="100" pos="456" key="71"/>
          <note pan="0" len="24" vol="100" pos="456" key="67"/>
          <note pan="0" len="12" vol="100" pos="456" key="42"/>
          <note pan="0" len="12" vol="100" pos="468" key="40"/>
          <note pan="0" len="12" vol="100" pos="480" key="71"/>
          <note pan="0" len="12" vol="100" pos="480" key="69"/>
          <note pan="0" len="12" vol="100" pos="480" key="66"/>
          <note pan="0" len="12" vol="100" pos="480" key="62"/>
          <note pan="0" len="24" vol="100" pos="480" key="38"/>
          <note pan="0" len="12" vol="100" pos="504" key="66"/>
          <note pan="0" len="12" vol="100" pos="504" key="62"/>
          <note pan="0" len="12" vol="100" pos="504" key="57"/>
          <note pan="0" len="24" vol="100" pos="504" key="50"/>
          <note pan="0" len="24" vol="100" pos="528" key="71"/>
          <note pan="0" len="24" vol="100" pos="528" key="66"/>
          <note pan="0" len="24" vol="100" pos="528" key="62"/>
          <note pan="0" len="24" vol="100" pos="528" key="57"/>
          <note pan="0" len="24" vol="100" pos="528" key="38"/>
          <note pan="0" len="12" vol="100" pos="552" key="74"/>
          <note pan="0" len="12" vol="100" pos="552" key="69"/>
          <note pan="0" len="12" vol="100" pos="552" key="66"/>
          <note pan="0" len="12" vol="100" pos="552" key="62"/>
          <note pan="0" len="24" vol="100" pos="552" key="40"/>
          <note pan="0" len="36" vol="100" pos="576" key="78"/>
          <note pan="0" len="36" vol="100" pos="576" key="76"/>
          <note pan="0" len="36" vol="100" pos="576" key="72"/>
          <note pan="0" len="36" vol="100" pos="576" key="69"/>
          <note pan="0" len="24" vol="100" pos="576" key="45"/>
          <note pan="0" len="24" vol="100" pos="600" key="45"/>
          <note pan="0" len="12" vol="100" pos="612" key="79"/>
          <note pan="0" len="12" vol="100" pos="612" key="76"/>
          <note pan="0" len="12" vol="100" pos="612" key="72"/>
          <note pan="0" len="12" vol="100" pos="612" key="69"/>
          <note pan="0" len="24" vol="100" pos="624" key="45"/>
          <note pan="0" len="24" vol="100" pos="648" key="81"/>
          <note pan="0" len="24" vol="100" pos="648" key="78"/>
          <note pan="0" len="24" vol="100" pos="648" key="74"/>
          <note pan="0" len="12" vol="100" pos="648" key="43"/>
          <note pan="0" len="12" vol="100" pos="660" key="42"/>
          <note pan="0" len="72" vol="100" pos="672" key="83"/>
          <note pan="0" len="72" vol="100" pos="672" key="79"/>
          <note pan="0" len="72" vol="100" pos="672" key="76"/>
          <note pan="0" len="72" vol="100" pos="672" key="71"/>
          <note pan="0" len="72" vol="100" pos="672" key="40"/>
        </midiclip>
      </track>
      <track name="FluidR3 GM" mutedBeforeSolo="0" type="0" muted="0" solo="0">
        <instrumenttrack scale="0" pan="0" enabled="0" keymap="0" enablecc="0" range_import="1" usemasterpitch="1" vol="100" basenote="69" lastkey="127" pitch="0" firstkey="0" pitchrange="1" mixch="1">
          <midicontrollers cc59="0" cc89="0" cc29="0" cc88="0" cc90="0" cc57="0" cc44="0" cc67="0" cc97="0" cc119="0" cc62="0" cc73="0" cc99="0" cc27="0" cc15="0" cc102="0" cc126="0" cc23="0" cc32="0" cc103="0" cc114="0" cc116="0" cc0="0" cc37="0" cc26="0" cc4="0" cc101="0" cc78="0" cc100="0" cc66="0" cc55="0" cc16="0" cc71="0" cc61="0" cc6="0" cc7="0" cc113="0" cc76="0" cc93="0" cc38="0" cc28="0" cc91="0" cc5="0" cc86="0" cc18="0" cc24="0" cc75="0" cc115="0" cc117="0" cc79="0" cc85="0" cc60="0" cc48="0" cc74="0" cc120="0" cc122="0" cc36="0" cc104="0" cc8="0" cc49="0" cc118="0" cc40="0" cc50="0" cc96="0" cc77="0" cc3="0" cc83="0" cc41="0" cc124="0" cc1="0" cc112="0" cc56="0" cc125="0" cc94="0" cc108="0" cc46="0" cc69="0" cc42="0" cc68="0" cc2="0" cc12="0" cc107="0" cc17="0" cc54="0" cc64="0" cc31="0" cc30="0" cc43="0" cc20="0" cc72="0" cc51="0" cc35="0" cc58="0" cc19="0" cc123="0" cc9="0" cc106="0" cc82="0" cc65="0" cc110="0" cc47="0" cc87="0" cc84="0" cc53="0" cc22="0" cc34="0" cc63="0" cc39="0" cc13="0" cc33="0" cc92="0" cc81="0" cc105="0" cc95="0" cc121="0" cc111="0" cc11="0" cc52="0" cc14="0" cc45="0" cc21="0" cc109="0" cc10="0" cc25="0" cc98="0" cc70="0" cc80="0" cc127="0"/>
          <instrument name="sf2player">
            <sf2player reverbRoomSize="0.2" chorusDepth="8" patch="32" chorusSpeed="0.3" reverbOn="0" src="usersoundfont:FluidR3 GM.sf2" reverbDamping="0" chorusLevel="2" bank="128" reverbLevel="0.9" chorusNum="3" reverbWidth="0.5" chorusOn="0" gain="0.28">
              <key/>
            </sf2player>
          </instrument>
          <eldata fwet="0" fcut="14000" fres="0.5" ftype="0">
            <elvol lspd_denominator="4" dec="0.5" latt="0" sustain="0.5" lspd_syncmode="0" ctlenvamt="0" att="0" lshp="0" x100="0" lamt="0" lspd_numerator="4" hold="0.5" rel="0.1" pdel="0" lspd="0.1" amt="0" lpdel="0" userwavefile=""/>
            <elcut lspd_denominator="4" dec="0.5" latt="0" sustain="0.5" lspd_syncmode="0" ctlenvamt="0" att="0" lshp="0" x100="0" lamt="0" lspd_numerator="4" hold="0.5" rel="0.1" pdel="0" lspd="0.1" amt="0" lpdel="0" userwavefile=""/>
            <elres lspd_denominator="4" dec="0.5" latt="0" sustain="0.5" lspd_syncmode="0" ctlenvamt="0" att="0" lshp="0" x100="0" lamt="0" lspd_numerator="4" hold="0.5" rel="0.1" pdel="0" lspd="0.1" amt="0" lpdel="0" userwavefile=""/>
          </eldata>
          <chordcreator chord-enabled="0" chordrange="1" chord="0"/>
          <arpeggiator arp="0" arptime_syncmode="0" arpcycle="0" arprepeats="1" arptime="200" arptime_denominator="4" arpmode="0" arptime_numerator="4" arp-enabled="0" arprange="1" arpgate="100" arpskip="0" arpmiss="0" arpdir="0"/>
          <midiport inputcontroller="0" fixedoutputnote="-1" outputprogram="1" outputchannel="1" readable="1" fixedoutputvelocity="-1" inputchannel="0" writable="0" outputcontroller="0" fixedinputvelocity="-1" basevelocity="127" inports=""/>
          <fxchain enabled="0" numofeffects="0"/>
        </instrumenttrack>
        <midiclip name="" steps="16" type="1" muted="0" pos="1536">
          <note pan="0" len="12" vol="100" pos="0" key="35"/>
          <note pan="0" len="12" vol="100" pos="36" key="36"/>
          <note pan="0" len="12" vol="100" pos="48" key="40"/>
          <note pan="0" len="12" vol="100" pos="48" key="36"/>
          <note pan="0" len="12" vol="100" pos="72" key="36"/>
          <note pan="0" len="12" vol="100" pos="96" key="36"/>
          <note pan="0" len="12" vol="100" pos="132" key="36"/>
          <note pan="0" len="12" vol="100" pos="144" key="39"/>
          <note pan="0" len="12" vol="100" pos="144" key="36"/>
          <note pan="0" len="12" vol="100" pos="168" key="35"/>
          <note pan="0" len="12" vol="100" pos="192" key="36"/>
          <note pan="0" len="12" vol="100" pos="228" key="41"/>
          <note pan="0" len="12" vol="100" pos="228" key="35"/>
          <note pan="0" len="12" vol="100" pos="240" key="40"/>
          <note pan="0" len="12" vol="100" pos="240" key="35"/>
          <note pan="0" len="12" vol="100" pos="264" key="36"/>
          <note pan="0" len="12" vol="100" pos="288" key="36"/>
          <note pan="0" len="12" vol="100" pos="324" key="35"/>
          <note pan="0" len="12" vol="100" pos="336" key="36"/>
          <note pan="0" len="12" vol="100" pos="348" key="45"/>
          <note pan="0" len="12" vol="100" pos="360" key="43"/>
          <note pan="0" len="12" vol="100" pos="360" key="35"/>
        </midiclip>
        <midiclip name="" steps="16" type="1" muted="0" pos="3072">
          <note pan="0" len="12" vol="100" pos="0" key="35"/>
          <note pan="0" len="12" vol="100" pos="12" key="35"/>
          <note pan="0" len="12" vol="100" pos="36" key="40"/>
          <note pan="0" len="12" vol="100" pos="36" key="36"/>
          <note pan="0" len="12" vol="100" pos="48" key="36"/>
          <note pan="0" len="12" vol="100" pos="72" key="40"/>
          <note pan="0" len="12" vol="100" pos="96" key="35"/>
          <note pan="0" len="12" vol="100" pos="108" key="35"/>
          <note pan="0" len="12" vol="100" pos="132" key="45"/>
          <note pan="0" len="12" vol="100" pos="144" key="43"/>
          <note pan="0" len="12" vol="100" pos="144" key="36"/>
          <note pan="0" len="12" vol="100" pos="156" key="36"/>
          <note pan="0" len="12" vol="100" pos="168" key="39"/>
          <note pan="0" len="12" vol="100" pos="192" key="36"/>
          <note pan="0" len="12" vol="100" pos="228" key="36"/>
          <note pan="0" len="12" vol="100" pos="288" key="36"/>
          <note pan="0" len="12" vol="100" pos="324" key="36"/>
          <note pan="0" len="12" vol="100" pos="348" key="36"/>
        </midiclip>
        <midiclip name="" steps="16" type="1" muted="0" pos="3648">
          <note pan="0" len="12" vol="100" pos="0" key="36"/>
          <note pan="0" len="12" vol="100" pos="36" key="41"/>
          <note pan="0" len="12" vol="100" pos="36" key="35"/>
          <note pan="0" len="12" vol="100" pos="48" key="40"/>
          <note pan="0" len="12" vol="100" pos="48" key="35"/>
          <note pan="0" len="12" vol="100" pos="72" key="36"/>
          <note pan="0" len="12" vol="100" pos="96" key="36"/>
          <note pan="0" len="12" vol="100" pos="132" key="35"/>
          <note pan="0" len="12" vol="100" pos="144" key="36"/>
          <note pan="0" len="12" vol="100" pos="156" key="45"/>
          <note pan="0" len="12" vol="100" pos="168" key="43"/>
          <note pan="0" len="12" vol="100" pos="168" key="35"/>
        </midiclip>
        <midiclip name="" steps="16" type="1" muted="0" pos="3456">
          <note pan="0" len="12" vol="100" pos="0" key="35"/>
          <note pan="0" len="12" vol="100" pos="12" key="35"/>
          <note pan="0" len="12" vol="100" pos="36" key="40"/>
          <note pan="0" len="12" vol="100" pos="36" key="36"/>
          <note pan="0" len="12" vol="100" pos="48" key="36"/>
          <note pan="0" len="12" vol="100" pos="72" key="40"/>
          <note pan="0" len="12" vol="100" pos="96" key="35"/>
          <note pan="0" len="12" vol="100" pos="108" key="35"/>
          <note pan="0" len="12" vol="100" pos="132" key="45"/>
          <note pan="0" len="12" vol="100" pos="144" key="43"/>
          <note pan="0" len="12" vol="100" pos="144" key="36"/>
          <note pan="0" len="12" vol="100" pos="156" key="36"/>
          <note pan="0" len="12" vol="100" pos="168" key="39"/>
        </midiclip>
        <midiclip name="" steps="16" type="1" muted="0" pos="1920">
          <note pan="0" len="12" vol="100" pos="0" key="35"/>
          <note pan="0" len="12" vol="100" pos="36" key="36"/>
          <note pan="0" len="12" vol="100" pos="48" key="40"/>
          <note pan="0" len="12" vol="100" pos="48" key="36"/>
          <note pan="0" len="12" vol="100" pos="72" key="36"/>
          <note pan="0" len="12" vol="100" pos="96" key="36"/>
          <note pan="0" len="12" vol="100" pos="132" key="36"/>
          <note pan="0" len="12" vol="100" pos="144" key="39"/>
          <note pan="0" len="12" vol="100" pos="144" key="36"/>
          <note pan="0" len="12" vol="100" pos="168" key="35"/>
          <note pan="0" len="12" vol="100" pos="192" key="36"/>
          <note pan="0" len="12" vol="100" pos="228" key="41"/>
          <note pan="0" len="12" vol="100" pos="228" key="35"/>
          <note pan="0" len="12" vol="100" pos="240" key="40"/>
          <note pan="0" len="12" vol="100" pos="240" key="35"/>
          <note pan="0" len="12" vol="100" pos="264" key="36"/>
          <note pan="0" len="12" vol="100" pos="288" key="36"/>
          <note pan="0" len="12" vol="100" pos="324" key="35"/>
          <note pan="0" len="12" vol="100" pos="336" key="36"/>
          <note pan="0" len="12" vol="100" pos="348" key="45"/>
          <note pan="0" len="12" vol="100" pos="360" key="43"/>
          <note pan="0" len="12" vol="100" pos="360" key="35"/>
        </midiclip>
        <midiclip name="" steps="16" type="1" muted="0" pos="2304">
          <note pan="0" len="12" vol="100" pos="0" key="35"/>
          <note pan="0" len="12" vol="100" pos="36" key="36"/>
          <note pan="0" len="12" vol="100" pos="48" key="40"/>
          <note pan="0" len="12" vol="100" pos="48" key="36"/>
          <note pan="0" len="12" vol="100" pos="72" key="36"/>
          <note pan="0" len="12" vol="100" pos="96" key="36"/>
          <note pan="0" len="12" vol="100" pos="132" key="36"/>
          <note pan="0" len="12" vol="100" pos="144" key="39"/>
          <note pan="0" len="12" vol="100" pos="144" key="36"/>
          <note pan="0" len="12" vol="100" pos="168" key="35"/>
          <note pan="0" len="12" vol="100" pos="192" key="36"/>
          <note pan="0" len="12" vol="100" pos="228" key="41"/>
          <note pan="0" len="12" vol="100" pos="228" key="35"/>
          <note pan="0" len="12" vol="100" pos="240" key="40"/>
          <note pan="0" len="12" vol="100" pos="240" key="35"/>
          <note pan="0" len="12" vol="100" pos="264" key="36"/>
          <note pan="0" len="12" vol="100" pos="288" key="36"/>
          <note pan="0" len="12" vol="100" pos="324" key="35"/>
          <note pan="0" len="12" vol="100" pos="336" key="36"/>
          <note pan="0" len="12" vol="100" pos="348" key="45"/>
          <note pan="0" len="12" vol="100" pos="360" key="43"/>
          <note pan="0" len="12" vol="100" pos="360" key="35"/>
        </midiclip>
        <midiclip name="" steps="16" type="1" muted="0" pos="2688">
          <note pan="0" len="12" vol="100" pos="0" key="35"/>
          <note pan="0" len="12" vol="100" pos="36" key="36"/>
          <note pan="0" len="12" vol="100" pos="48" key="40"/>
          <note pan="0" len="12" vol="100" pos="48" key="36"/>
          <note pan="0" len="12" vol="100" pos="72" key="36"/>
          <note pan="0" len="12" vol="100" pos="96" key="36"/>
          <note pan="0" len="12" vol="100" pos="132" key="36"/>
          <note pan="0" len="12" vol="100" pos="144" key="39"/>
          <note pan="0" len="12" vol="100" pos="144" key="36"/>
          <note pan="0" len="12" vol="100" pos="168" key="35"/>
          <note pan="0" len="12" vol="100" pos="192" key="36"/>
          <note pan="0" len="12" vol="100" pos="228" key="41"/>
          <note pan="0" len="12" vol="100" pos="228" key="35"/>
          <note pan="0" len="12" vol="100" pos="240" key="40"/>
          <note pan="0" len="12" vol="100" pos="240" key="35"/>
          <note pan="0" len="12" vol="100" pos="264" key="36"/>
          <note pan="0" len="12" vol="100" pos="288" key="36"/>
          <note pan="0" len="12" vol="100" pos="324" key="35"/>
          <note pan="0" len="12" vol="100" pos="336" key="36"/>
          <note pan="0" len="12" vol="100" pos="348" key="45"/>
          <note pan="0" len="12" vol="100" pos="360" key="43"/>
          <note pan="0" len="12" vol="100" pos="360" key="35"/>
        </midiclip>
        <midiclip name="" steps="16" type="1" muted="0" pos="3840">
          <note pan="0" len="12" vol="100" pos="0" key="35"/>
          <note pan="0" len="12" vol="100" pos="36" key="36"/>
          <note pan="0" len="12" vol="100" pos="48" key="40"/>
          <note pan="0" len="12" vol="100" pos="48" key="36"/>
          <note pan="0" len="12" vol="100" pos="72" key="36"/>
          <note pan="0" len="12" vol="100" pos="96" key="36"/>
          <note pan="0" len="12" vol="100" pos="132" key="36"/>
          <note pan="0" len="12" vol="100" pos="144" key="39"/>
          <note pan="0" len="12" vol="100" pos="144" key="36"/>
          <note pan="0" len="12" vol="100" pos="168" key="35"/>
          <note pan="0" len="12" vol="100" pos="192" key="36"/>
          <note pan="0" len="12" vol="100" pos="228" key="41"/>
          <note pan="0" len="12" vol="100" pos="228" key="35"/>
          <note pan="0" len="12" vol="100" pos="240" key="40"/>
          <note pan="0" len="12" vol="100" pos="240" key="35"/>
          <note pan="0" len="12" vol="100" pos="264" key="36"/>
          <note pan="0" len="12" vol="100" pos="288" key="36"/>
          <note pan="0" len="12" vol="100" pos="324" key="35"/>
          <note pan="0" len="12" vol="100" pos="336" key="36"/>
          <note pan="0" len="12" vol="100" pos="348" key="45"/>
          <note pan="0" len="12" vol="100" pos="360" key="43"/>
          <note pan="0" len="12" vol="100" pos="360" key="35"/>
        </midiclip>
        <midiclip name="" steps="16" type="1" muted="0" pos="4224">
          <note pan="0" len="12" vol="100" pos="0" key="35"/>
          <note pan="0" len="12" vol="100" pos="36" key="36"/>
          <note pan="0" len="12" vol="100" pos="48" key="40"/>
          <note pan="0" len="12" vol="100" pos="48" key="36"/>
          <note pan="0" len="12" vol="100" pos="72" key="36"/>
          <note pan="0" len="12" vol="100" pos="96" key="36"/>
          <note pan="0" len="12" vol="100" pos="132" key="36"/>
          <note pan="0" len="12" vol="100" pos="144" key="39"/>
          <note pan="0" len="12" vol="100" pos="144" key="36"/>
          <note pan="0" len="12" vol="100" pos="168" key="35"/>
          <note pan="0" len="12" vol="100" pos="192" key="36"/>
          <note pan="0" len="12" vol="100" pos="228" key="41"/>
          <note pan="0" len="12" vol="100" pos="228" key="35"/>
          <note pan="0" len="12" vol="100" pos="240" key="40"/>
          <note pan="0" len="12" vol="100" pos="240" key="35"/>
          <note pan="0" len="12" vol="100" pos="264" key="36"/>
          <note pan="0" len="12" vol="100" pos="288" key="36"/>
          <note pan="0" len="12" vol="100" pos="324" key="35"/>
          <note pan="0" len="12" vol="100" pos="336" key="36"/>
          <note pan="0" len="12" vol="100" pos="348" key="45"/>
          <note pan="0" len="12" vol="100" pos="360" key="43"/>
          <note pan="0" len="12" vol="100" pos="360" key="35"/>
        </midiclip>
        <midiclip name="" steps="16" type="1" muted="0" pos="4608">
          <note pan="0" len="12" vol="100" pos="0" key="35"/>
          <note pan="0" len="12" vol="100" pos="36" key="36"/>
          <note pan="0" len="12" vol="100" pos="48" key="40"/>
          <note pan="0" len="12" vol="100" pos="48" key="36"/>
          <note pan="0" len="12" vol="100" pos="72" key="36"/>
          <note pan="0" len="12" vol="100" pos="96" key="36"/>
          <note pan="0" len="12" vol="100" pos="132" key="36"/>
          <note pan="0" len="12" vol="100" pos="144" key="39"/>
          <note pan="0" len="12" vol="100" pos="144" key="36"/>
          <note pan="0" len="12" vol="100" pos="168" key="35"/>
          <note pan="0" len="12" vol="100" pos="192" key="36"/>
          <note pan="0" len="12" vol="100" pos="228" key="41"/>
          <note pan="0" len="12" vol="100" pos="228" key="35"/>
          <note pan="0" len="12" vol="100" pos="240" key="40"/>
          <note pan="0" len="12" vol="100" pos="240" key="35"/>
          <note pan="0" len="12" vol="100" pos="264" key="36"/>
          <note pan="0" len="12" vol="100" pos="288" key="36"/>
          <note pan="0" len="12" vol="100" pos="324" key="35"/>
          <note pan="0" len="12" vol="100" pos="336" key="36"/>
          <note pan="0" len="12" vol="100" pos="348" key="45"/>
          <note pan="0" len="12" vol="100" pos="360" key="43"/>
          <note pan="0" len="12" vol="100" pos="360" key="35"/>
        </midiclip>
        <midiclip name="" steps="16" type="1" muted="0" pos="4992">
          <note pan="0" len="12" vol="100" pos="0" key="35"/>
          <note pan="0" len="12" vol="100" pos="36" key="36"/>
          <note pan="0" len="12" vol="100" pos="48" key="40"/>
          <note pan="0" len="12" vol="100" pos="48" key="36"/>
          <note pan="0" len="12" vol="100" pos="72" key="36"/>
          <note pan="0" len="12" vol="100" pos="96" key="36"/>
          <note pan="0" len="12" vol="100" pos="132" key="36"/>
          <note pan="0" len="12" vol="100" pos="144" key="39"/>
          <note pan="0" len="12" vol="100" pos="144" key="36"/>
          <note pan="0" len="12" vol="100" pos="168" key="35"/>
          <note pan="0" len="12" vol="100" pos="192" key="36"/>
          <note pan="0" len="12" vol="100" pos="228" key="41"/>
          <note pan="0" len="12" vol="100" pos="228" key="35"/>
          <note pan="0" len="12" vol="100" pos="240" key="40"/>
          <note pan="0" len="12" vol="100" pos="240" key="35"/>
          <note pan="0" len="12" vol="100" pos="264" key="36"/>
          <note pan="0" len="12" vol="100" pos="288" key="36"/>
          <note pan="0" len="12" vol="100" pos="324" key="35"/>
          <note pan="0" len="12" vol="100" pos="336" key="36"/>
          <note pan="0" len="12" vol="100" pos="348" key="45"/>
          <note pan="0" len="12" vol="100" pos="360" key="43"/>
          <note pan="0" len="12" vol="100" pos="360" key="35"/>
        </midiclip>
      </track>
    </trackcontainer>
    <track name="Automation track" mutedBeforeSolo="0" type="6" muted="0" solo="0">
      <automationtrack/>
      <automationclip name="Numerator" mute="0" len="192" tens="1" prog="0" pos="0"/>
      <automationclip name="Denominator" mute="0" len="192" tens="1" prog="0" pos="0"/>
      <automationclip name="Tempo" mute="0" len="192" tens="1" prog="0" pos="0"/>
      <automationclip name="Master volume" mute="0" len="192" tens="1" prog="0" pos="0"/>
      <automationclip name="Master pitch" mute="0" len="192" tens="1" prog="0" pos="0"/>
    </track>
    <mixer height="333" visible="1" minimized="0" x="1" width="1655" maximized="0" y="487">
      <mixerchannel name="Master" soloed="0" num="0" volume="1.302" muted="0">
        <fxchain enabled="0" numofeffects="0"/>
      </mixerchannel>
      <mixerchannel name="MasonHamlin-A-v7" soloed="0" num="1" volume="1" muted="0">
        <fxchain enabled="1" numofeffects="1">
          <effect autoquit_denominator="4" name="vsteffect" autoquit_syncmode="0" autoquit="1" wet="1" autoquit_numerator="4" on="1" gate="0">
            <vsteffectcontrols param5="5:Early Ref.:0" plugin="Effects\Classic Reverb\Classic Reverb.dll" numparams="8" param1="1:Damping:0.3" param0="0:Size:1" param3="3:Hi Damp:0.5" program="0" param2="2:Predelay:0.5" param4="4:Lo Cut:0" param7="7:Level:0.5" guivisible="0" param6="6:Mix:0.44"/>
            <key>
              <attribute name="file" value="Effects\Classic Reverb\Classic Reverb.dll"/>
            </key>
          </effect>
        </fxchain>
        <send amount="1" channel="0"/>
      </mixerchannel>
      <mixerchannel name="GeneralUser GS v1" soloed="0" num="2" volume="1" muted="0">
        <fxchain enabled="0" numofeffects="0"/>
        <send amount="1" channel="0"/>
      </mixerchannel>
      <mixerchannel name="Proteus3" soloed="0" num="3" volume="1" muted="0">
        <fxchain enabled="0" numofeffects="0"/>
        <send amount="1" channel="0"/>
      </mixerchannel>
    </mixer>
    <ControllerRackView height="200" visible="0" minimized="0" x="550" width="350" maximized="0" y="487"/>
    <pianoroll height="652" visible="0" minimized="0" x="251" width="1140" maximized="0" y="235"/>
    <automationeditor height="400" visible="0" minimized="0" x="872" width="860" maximized="0" y="256"/>
    <projectnotes height="400" visible="0" minimized="0" x="700" width="689" maximized="0" y="10"><![CDATA[<!DOCTYPE HTML PUBLIC "-//W3C//DTD HTML 4.0//EN" "http://www.w3.org/TR/REC-html40/strict.dtd">
<html><head><meta name="qrichtext" content="1" /><style type="text/css">
p, li { white-space: pre-wrap; }
</style></head><body style=" font-family:'MS Shell Dlg 2'; font-size:8.25pt; font-weight:400; font-style:normal;">
<p style=" margin-top:0px; margin-bottom:0px; margin-left:0px; margin-right:0px; -qt-block-indent:0; text-indent:0px;"><span style=" color:#e0e0e0;">&lt;&lt;&lt;&lt;&lt;&lt;</span></p></body></html>]]></projectnotes>
    <timeline stopbehaviour="1" lp0pos="0" lpstate="1" lp1pos="5376"/>
    <controllers/>
    <scales>
      <scale description="empty">
        <interval num="1" den="1"/>
      </scale>
      <scale description="empty">
        <interval num="1" den="1"/>
      </scale>
      <scale description="empty">
        <interval num="1" den="1"/>
      </scale>
      <scale description="empty">
        <interval num="1" den="1"/>
      </scale>
      <scale description="empty">
        <interval num="1" den="1"/>
      </scale>
      <scale description="empty">
        <interval num="1" den="1"/>
      </scale>
      <scale description="empty">
        <interval num="1" den="1"/>
      </scale>
      <scale description="empty">
        <interval num="1" den="1"/>
      </scale>
      <scale description="empty">
        <interval num="1" den="1"/>
      </scale>
      <scale description="empty">
        <interval num="1" den="1"/>
      </scale>
    </scales>
    <keymaps>
      <keymap base_freq="440" base_key="69" description="empty" first_key="0" middle_key="60" last_key="127"/>
      <keymap base_freq="440" base_key="69" description="empty" first_key="0" middle_key="60" last_key="127"/>
      <keymap base_freq="440" base_key="69" description="empty" first_key="0" middle_key="60" last_key="127"/>
      <keymap base_freq="440" base_key="69" description="empty" first_key="0" middle_key="60" last_key="127"/>
      <keymap base_freq="440" base_key="69" description="empty" first_key="0" middle_key="60" last_key="127"/>
      <keymap base_freq="440" base_key="69" description="empty" first_key="0" middle_key="60" last_key="127"/>
      <keymap base_freq="440" base_key="69" description="empty" first_key="0" middle_key="60" last_key="127"/>
      <keymap base_freq="440" base_key="69" description="empty" first_key="0" middle_key="60" last_key="127"/>
      <keymap base_freq="440" base_key="69" description="empty" first_key="0" middle_key="60" last_key="127"/>
      <keymap base_freq="440" base_key="69" description="empty" first_key="0" middle_key="60" last_key="127"/>
    </keymaps>
  </song>
</lmms-project>
