<?xml version="1.0"?>
<!DOCTYPE lmms-project>
<lmms-project creatorversion="1.3.0-alpha.1.33+g4f74151f0" version="18" type="song" creator="LMMS">
  <head bpm="82" masterpitch="0" mastervol="100" timesig_denominator="4" timesig_numerator="4"/>
  <song>
    <trackcontainer minimized="0" width="1033" x="1" height="600" visible="1" maximized="0" type="song" y="1">
      <track mutedBeforeSolo="0" solo="0" muted="0" name="Omnichord" type="0">
        <instrumenttrack pan="0" pitch="0" usemasterpitch="1" vol="100" basenote="45" fxch="0" pitchrange="1">
          <instrument name="vestige">
            <vestige guivisible="1" plugin="uservst:Instruments/sforzando/sforzando VST_x86.dll" program="0" chunk="Q0VHUEIFAAB4nI1UTY+bMBC9V+p/sHzfYBMgoQq7SjerikPUStk9rybGyVpr7BSbdNtf34EkBFWNgAvM85uvZ2YWDx+lJkdZOWVNRvmEUfJw//nTYlkp2MBR9s7SJKXkUNmiFj5fIcB4RJFL8FlspPfK7B35WYNW/jceU+J8JaFEOKPTkJISPjYtstTaivXXjMYc4XW+yr/Xfm0L2XpB7W0JHpNutPUZZX1Iy6PUGVUGY9elNJ4SrY7y5IxMJzIaNi/QgAAnd0Q2JU2c0Gf4Eb1kldEE6Xttt6Cfa9MWiUDQNYS5iSpa0ECJ0R+/BC8O1QhWythgZUWb3wVu90cWygfizVaFAjNBgJItmPcc3e+wo05DjCXewJimhebgYDUqlUSU+GsJh+1rBWYvzxSPhmsPyt6nFR5vp99yWfuz/etVg0PhwvnletqO1qDMpaMj6PqkdvBfCu8o7BYlHKZMhynRMCUepiTDlNkwZT5MSYcpnI3gjNCXjxCYj1CYj5CY39b4B1RQ/ivyhLHZfBYxHs/4PEnnMQtvuvFpr9lJlCYsCdM0YmwapnHam7igGbmL8bTbSeH7Q3j+zU+zuCy3Shohr3PWbqP+topO20p0q6FL9O0lvwQF4XF75NdF09pPne2kxjJk8Qzb0zg2QRbBZTui8RcEXWPO">
              <key/>
            </vestige>
          </instrument>
          <eldata fres="0.5" fwet="0" fcut="14000" ftype="0">
            <elvol lshp="0" lspd="0.1" att="0" lpdel="0" pdel="0" rel="0.1" lspd_denominator="4" lspd_syncmode="0" dec="0.5" x100="0" userwavefile="" lamt="0" latt="0" hold="0.5" ctlenvamt="0" lspd_numerator="4" amt="0" sustain="0.5"/>
            <elcut lshp="0" lspd="0.1" att="0" lpdel="0" pdel="0" rel="0.1" lspd_denominator="4" lspd_syncmode="0" dec="0.5" x100="0" userwavefile="" lamt="0" latt="0" hold="0.5" ctlenvamt="0" lspd_numerator="4" amt="0" sustain="0.5"/>
            <elres lshp="0" lspd="0.1" att="0" lpdel="0" pdel="0" rel="0.1" lspd_denominator="4" lspd_syncmode="0" dec="0.5" x100="0" userwavefile="" lamt="0" latt="0" hold="0.5" ctlenvamt="0" lspd_numerator="4" amt="0" sustain="0.5"/>
          </eldata>
          <chordcreator chord="0" chord-enabled="0" chordrange="1"/>
          <arpeggiator arpmode="0" arpcycle="0" arpgate="100" arptime_denominator="4" arpdir="0" arp="0" arptime_syncmode="0" arptime_numerator="4" arptime="200" arpskip="0" arprange="1" arpmiss="0" arp-enabled="0"/>
          <midiport fixedinputvelocity="-1" writable="0" outputchannel="1" fixedoutputnote="-1" readable="1" inputcontroller="0" outputprogram="1" inports="" basevelocity="63" fixedoutputvelocity="-1" inputchannel="0" outputcontroller="0"/>
          <fxchain enabled="0" numofeffects="0"/>
        </instrumenttrack>
        <pattern muted="0" pos="0" name="" steps="16" type="1">
          <note pan="0" len="192" pos="189" vol="100" key="12"/>
          <note pan="0" len="192" pos="189" vol="100" key="2"/>
          <note pan="0" len="12" pos="192" vol="100" key="60"/>
          <note pan="0" len="12" pos="192" vol="100" key="36"/>
          <note pan="0" len="12" pos="216" vol="100" key="69"/>
          <note pan="0" len="12" pos="216" vol="100" key="36"/>
          <note pan="0" len="12" pos="216" vol="100" key="24"/>
          <note pan="0" len="12" pos="240" vol="100" key="68"/>
          <note pan="0" len="12" pos="264" vol="100" key="66"/>
          <note pan="0" len="12" pos="264" vol="100" key="24"/>
          <note pan="0" len="12" pos="288" vol="100" key="64"/>
          <note pan="0" len="12" pos="312" vol="100" key="61"/>
          <note pan="0" len="12" pos="312" vol="100" key="24"/>
          <note pan="0" len="24" pos="336" vol="100" key="36"/>
          <note pan="0" len="12" pos="360" vol="100" key="24"/>
          <note pan="0" len="192" pos="381" vol="100" key="15"/>
          <note pan="0" len="192" pos="381" vol="100" key="4"/>
          <note pan="0" len="12" pos="384" vol="100" key="63"/>
          <note pan="0" len="12" pos="384" vol="100" key="36"/>
          <note pan="0" len="12" pos="408" vol="100" key="65"/>
          <note pan="0" len="12" pos="408" vol="100" key="36"/>
          <note pan="0" len="12" pos="408" vol="100" key="24"/>
          <note pan="0" len="12" pos="432" vol="100" key="68"/>
          <note pan="0" len="12" pos="456" vol="100" key="64"/>
          <note pan="0" len="12" pos="456" vol="100" key="24"/>
          <note pan="0" len="12" pos="480" vol="100" key="63"/>
          <note pan="0" len="12" pos="504" vol="100" key="24"/>
          <note pan="0" len="24" pos="528" vol="100" key="36"/>
          <note pan="0" len="12" pos="552" vol="100" key="24"/>
          <note pan="0" len="192" pos="573" vol="100" key="20"/>
          <note pan="0" len="192" pos="573" vol="100" key="0"/>
          <note pan="0" len="12" pos="576" vol="100" key="68"/>
          <note pan="0" len="12" pos="576" vol="100" key="36"/>
          <note pan="0" len="12" pos="600" vol="100" key="64"/>
          <note pan="0" len="12" pos="600" vol="100" key="36"/>
          <note pan="0" len="12" pos="600" vol="100" key="24"/>
          <note pan="0" len="12" pos="624" vol="100" key="66"/>
          <note pan="0" len="12" pos="648" vol="100" key="67"/>
          <note pan="0" len="12" pos="648" vol="100" key="24"/>
          <note pan="0" len="12" pos="672" vol="100" key="61"/>
          <note pan="0" len="12" pos="696" vol="100" key="65"/>
          <note pan="0" len="12" pos="696" vol="100" key="24"/>
          <note pan="0" len="24" pos="720" vol="100" key="36"/>
          <note pan="0" len="12" pos="744" vol="100" key="24"/>
          <note pan="0" len="192" pos="765" vol="100" key="19"/>
          <note pan="0" len="192" pos="765" vol="100" key="2"/>
          <note pan="0" len="12" pos="768" vol="100" key="60"/>
          <note pan="0" len="12" pos="768" vol="100" key="36"/>
          <note pan="0" len="12" pos="780" vol="100" key="61"/>
          <note pan="0" len="12" pos="792" vol="100" key="62"/>
          <note pan="0" len="12" pos="792" vol="100" key="36"/>
          <note pan="0" len="12" pos="792" vol="100" key="24"/>
          <note pan="0" len="12" pos="804" vol="100" key="63"/>
          <note pan="0" len="12" pos="816" vol="100" key="64"/>
          <note pan="0" len="12" pos="840" vol="100" key="62"/>
          <note pan="0" len="12" pos="840" vol="100" key="24"/>
          <note pan="0" len="12" pos="852" vol="100" key="63"/>
          <note pan="0" len="12" pos="864" vol="100" key="64"/>
          <note pan="0" len="12" pos="876" vol="100" key="65"/>
          <note pan="0" len="12" pos="888" vol="100" key="66"/>
          <note pan="0" len="12" pos="888" vol="100" key="24"/>
          <note pan="0" len="24" pos="912" vol="100" key="36"/>
          <note pan="0" len="12" pos="936" vol="100" key="63"/>
          <note pan="0" len="12" pos="936" vol="100" key="24"/>
          <note pan="0" len="96" pos="957" vol="100" key="17"/>
          <note pan="0" len="96" pos="957" vol="100" key="5"/>
          <note pan="0" len="12" pos="960" vol="100" key="68"/>
          <note pan="0" len="12" pos="960" vol="100" key="66"/>
          <note pan="0" len="12" pos="960" vol="100" key="63"/>
          <note pan="0" len="12" pos="960" vol="100" key="36"/>
          <note pan="0" len="12" pos="984" vol="100" key="36"/>
          <note pan="0" len="12" pos="984" vol="100" key="24"/>
          <note pan="0" len="12" pos="1008" vol="100" key="60"/>
          <note pan="0" len="12" pos="1020" vol="100" key="61"/>
          <note pan="0" len="12" pos="1032" vol="100" key="62"/>
          <note pan="0" len="12" pos="1032" vol="100" key="24"/>
          <note pan="0" len="96" pos="1053" vol="100" key="15"/>
          <note pan="0" len="96" pos="1053" vol="100" key="4"/>
          <note pan="0" len="12" pos="1056" vol="100" key="67"/>
          <note pan="0" len="12" pos="1056" vol="100" key="65"/>
          <note pan="0" len="12" pos="1056" vol="100" key="61"/>
          <note pan="0" len="12" pos="1080" vol="100" key="24"/>
          <note pan="0" len="24" pos="1104" vol="100" key="36"/>
          <note pan="0" len="12" pos="1128" vol="100" key="62"/>
          <note pan="0" len="12" pos="1128" vol="100" key="24"/>
          <note pan="0" len="48" pos="1149" vol="100" key="14"/>
          <note pan="0" len="48" pos="1149" vol="100" key="0"/>
          <note pan="0" len="12" pos="1152" vol="100" key="62"/>
          <note pan="0" len="12" pos="1152" vol="100" key="61"/>
          <note pan="0" len="12" pos="1152" vol="100" key="60"/>
          <note pan="0" len="12" pos="1152" vol="100" key="36"/>
          <note pan="0" len="12" pos="1176" vol="100" key="65"/>
          <note pan="0" len="12" pos="1176" vol="100" key="64"/>
          <note pan="0" len="12" pos="1176" vol="100" key="63"/>
          <note pan="0" len="12" pos="1176" vol="100" key="36"/>
          <note pan="0" len="12" pos="1176" vol="100" key="24"/>
          <note pan="0" len="48" pos="1197" vol="100" key="12"/>
          <note pan="0" len="48" pos="1197" vol="100" key="2"/>
          <note pan="0" len="12" pos="1200" vol="100" key="65"/>
          <note pan="0" len="12" pos="1200" vol="100" key="64"/>
          <note pan="0" len="12" pos="1200" vol="100" key="63"/>
          <note pan="0" len="12" pos="1224" vol="100" key="68"/>
          <note pan="0" len="12" pos="1224" vol="100" key="67"/>
          <note pan="0" len="12" pos="1224" vol="100" key="66"/>
          <note pan="0" len="12" pos="1224" vol="100" key="24"/>
          <note pan="0" len="96" pos="1245" vol="100" key="14"/>
          <note pan="0" len="240" pos="1245" vol="100" key="0"/>
          <note pan="0" len="12" pos="1248" vol="100" key="67"/>
          <note pan="0" len="12" pos="1248" vol="100" key="66"/>
          <note pan="0" len="12" pos="1248" vol="100" key="65"/>
          <note pan="0" len="12" pos="1272" vol="100" key="24"/>
          <note pan="0" len="24" pos="1296" vol="100" key="36"/>
          <note pan="0" len="12" pos="1296" vol="100" key="29"/>
          <note pan="0" len="12" pos="1308" vol="100" key="29"/>
          <note pan="0" len="12" pos="1320" vol="100" key="29"/>
          <note pan="0" len="12" pos="1320" vol="100" key="24"/>
          <note pan="0" len="12" pos="1332" vol="100" key="29"/>
          <note pan="0" len="96" pos="1341" vol="100" key="17"/>
          <note pan="0" len="12" pos="1344" vol="100" key="65"/>
          <note pan="0" len="12" pos="1344" vol="100" key="64"/>
          <note pan="0" len="12" pos="1344" vol="100" key="63"/>
          <note pan="0" len="12" pos="1344" vol="100" key="36"/>
          <note pan="0" len="12" pos="1344" vol="100" key="29"/>
          <note pan="0" len="12" pos="1344" vol="100" key="26"/>
          <note pan="0" len="12" pos="1368" vol="100" key="36"/>
          <note pan="0" len="12" pos="1368" vol="100" key="24"/>
          <note pan="0" len="12" pos="1380" vol="100" key="29"/>
          <note pan="0" len="12" pos="1392" vol="100" key="28"/>
          <note pan="0" len="12" pos="1416" vol="100" key="64"/>
          <note pan="0" len="12" pos="1416" vol="100" key="63"/>
          <note pan="0" len="12" pos="1416" vol="100" key="62"/>
          <note pan="0" len="12" pos="1416" vol="100" key="29"/>
          <note pan="0" len="12" pos="1416" vol="100" key="24"/>
          <note pan="0" len="96" pos="1437" vol="100" key="16"/>
          <note pan="0" len="12" pos="1440" vol="100" key="64"/>
          <note pan="0" len="12" pos="1440" vol="100" key="63"/>
          <note pan="0" len="12" pos="1440" vol="100" key="62"/>
          <note pan="0" len="12" pos="1440" vol="100" key="29"/>
          <note pan="0" len="12" pos="1440" vol="100" key="26"/>
          <note pan="0" len="12" pos="1464" vol="100" key="29"/>
          <note pan="0" len="12" pos="1464" vol="100" key="24"/>
          <note pan="0" len="240" pos="1485" vol="100" key="2"/>
          <note pan="0" len="24" pos="1488" vol="100" key="36"/>
          <note pan="0" len="12" pos="1488" vol="100" key="28"/>
          <note pan="0" len="12" pos="1512" vol="100" key="63"/>
          <note pan="0" len="12" pos="1512" vol="100" key="62"/>
          <note pan="0" len="12" pos="1512" vol="100" key="61"/>
          <note pan="0" len="12" pos="1512" vol="100" key="27"/>
          <note pan="0" len="12" pos="1512" vol="100" key="24"/>
          <note pan="0" len="192" pos="1533" vol="100" key="15"/>
          <note pan="0" len="12" pos="1536" vol="100" key="63"/>
          <note pan="0" len="12" pos="1536" vol="100" key="62"/>
          <note pan="0" len="12" pos="1536" vol="100" key="61"/>
          <note pan="0" len="12" pos="1536" vol="100" key="36"/>
          <note pan="0" len="12" pos="1536" vol="100" key="29"/>
          <note pan="0" len="12" pos="1536" vol="100" key="26"/>
          <note pan="0" len="12" pos="1560" vol="100" key="36"/>
          <note pan="0" len="12" pos="1560" vol="100" key="24"/>
          <note pan="0" len="12" pos="1572" vol="100" key="29"/>
          <note pan="0" len="12" pos="1584" vol="100" key="28"/>
          <note pan="0" len="12" pos="1608" vol="100" key="60"/>
          <note pan="0" len="12" pos="1608" vol="100" key="29"/>
          <note pan="0" len="12" pos="1608" vol="100" key="24"/>
          <note pan="0" len="12" pos="1632" vol="100" key="61"/>
          <note pan="0" len="12" pos="1632" vol="100" key="29"/>
          <note pan="0" len="12" pos="1632" vol="100" key="26"/>
          <note pan="0" len="12" pos="1656" vol="100" key="62"/>
          <note pan="0" len="12" pos="1656" vol="100" key="29"/>
          <note pan="0" len="12" pos="1656" vol="100" key="24"/>
          <note pan="0" len="12" pos="1680" vol="100" key="64"/>
          <note pan="0" len="12" pos="1680" vol="100" key="63"/>
          <note pan="0" len="12" pos="1680" vol="100" key="61"/>
          <note pan="0" len="24" pos="1680" vol="100" key="36"/>
          <note pan="0" len="12" pos="1680" vol="100" key="29"/>
          <note pan="0" len="12" pos="1680" vol="100" key="28"/>
          <note pan="0" len="12" pos="1692" vol="100" key="29"/>
          <note pan="0" len="12" pos="1704" vol="100" key="29"/>
          <note pan="0" len="12" pos="1704" vol="100" key="27"/>
          <note pan="0" len="12" pos="1704" vol="100" key="24"/>
          <note pan="0" len="12" pos="1716" vol="100" key="29"/>
          <note pan="0" len="96" pos="1725" vol="100" key="14"/>
          <note pan="0" len="96" pos="1725" vol="100" key="4"/>
          <note pan="0" len="12" pos="1728" vol="100" key="64"/>
          <note pan="0" len="12" pos="1728" vol="100" key="63"/>
          <note pan="0" len="12" pos="1728" vol="100" key="62"/>
          <note pan="0" len="12" pos="1728" vol="100" key="36"/>
          <note pan="0" len="12" pos="1728" vol="100" key="29"/>
          <note pan="0" len="12" pos="1728" vol="100" key="26"/>
          <note pan="0" len="12" pos="1752" vol="100" key="36"/>
          <note pan="0" len="12" pos="1752" vol="100" key="24"/>
          <note pan="0" len="12" pos="1764" vol="100" key="29"/>
          <note pan="0" len="12" pos="1776" vol="100" key="61"/>
          <note pan="0" len="12" pos="1776" vol="100" key="28"/>
          <note pan="0" len="12" pos="1800" vol="100" key="64"/>
          <note pan="0" len="12" pos="1800" vol="100" key="63"/>
          <note pan="0" len="12" pos="1800" vol="100" key="62"/>
          <note pan="0" len="12" pos="1800" vol="100" key="29"/>
          <note pan="0" len="12" pos="1800" vol="100" key="24"/>
          <note pan="0" len="96" pos="1821" vol="100" key="15"/>
          <note pan="0" len="96" pos="1821" vol="100" key="5"/>
          <note pan="0" len="12" pos="1824" vol="100" key="63"/>
          <note pan="0" len="12" pos="1824" vol="100" key="62"/>
          <note pan="0" len="12" pos="1824" vol="100" key="29"/>
          <note pan="0" len="12" pos="1824" vol="100" key="26"/>
          <note pan="0" len="12" pos="1848" vol="100" key="65"/>
          <note pan="0" len="12" pos="1848" vol="100" key="64"/>
          <note pan="0" len="12" pos="1848" vol="100" key="29"/>
          <note pan="0" len="12" pos="1848" vol="100" key="24"/>
          <note pan="0" len="12" pos="1872" vol="100" key="67"/>
          <note pan="0" len="12" pos="1872" vol="100" key="66"/>
          <note pan="0" len="24" pos="1872" vol="100" key="36"/>
          <note pan="0" len="12" pos="1872" vol="100" key="28"/>
          <note pan="0" len="12" pos="1896" vol="100" key="70"/>
          <note pan="0" len="12" pos="1896" vol="100" key="69"/>
          <note pan="0" len="12" pos="1896" vol="100" key="27"/>
          <note pan="0" len="12" pos="1896" vol="100" key="24"/>
          <note pan="0" len="192" pos="1917" vol="100" key="19"/>
          <note pan="0" len="288" pos="1917" vol="100" key="0"/>
          <note pan="0" len="12" pos="1920" vol="100" key="71"/>
          <note pan="0" len="12" pos="1920" vol="100" key="36"/>
          <note pan="0" len="12" pos="1920" vol="100" key="29"/>
          <note pan="0" len="12" pos="1920" vol="100" key="26"/>
          <note pan="0" len="12" pos="1932" vol="100" key="66"/>
          <note pan="0" len="12" pos="1944" vol="100" key="70"/>
          <note pan="0" len="12" pos="1944" vol="100" key="36"/>
          <note pan="0" len="12" pos="1944" vol="100" key="24"/>
          <note pan="0" len="12" pos="1956" vol="100" key="64"/>
          <note pan="0" len="12" pos="1956" vol="100" key="29"/>
          <note pan="0" len="12" pos="1968" vol="100" key="69"/>
          <note pan="0" len="12" pos="1968" vol="100" key="28"/>
          <note pan="0" len="12" pos="1980" vol="100" key="65"/>
          <note pan="0" len="12" pos="1992" vol="100" key="68"/>
          <note pan="0" len="12" pos="1992" vol="100" key="29"/>
          <note pan="0" len="12" pos="1992" vol="100" key="24"/>
          <note pan="0" len="12" pos="2004" vol="100" key="63"/>
          <note pan="0" len="12" pos="2016" vol="100" key="67"/>
          <note pan="0" len="12" pos="2016" vol="100" key="29"/>
          <note pan="0" len="12" pos="2016" vol="100" key="26"/>
          <note pan="0" len="12" pos="2028" vol="100" key="64"/>
          <note pan="0" len="12" pos="2040" vol="100" key="66"/>
          <note pan="0" len="12" pos="2040" vol="100" key="29"/>
          <note pan="0" len="12" pos="2040" vol="100" key="24"/>
          <note pan="0" len="12" pos="2052" vol="100" key="61"/>
          <note pan="0" len="12" pos="2064" vol="100" key="65"/>
          <note pan="0" len="24" pos="2064" vol="100" key="36"/>
          <note pan="0" len="12" pos="2064" vol="100" key="29"/>
          <note pan="0" len="12" pos="2064" vol="100" key="28"/>
          <note pan="0" len="12" pos="2076" vol="100" key="62"/>
          <note pan="0" len="12" pos="2076" vol="100" key="29"/>
          <note pan="0" len="12" pos="2088" vol="100" key="64"/>
          <note pan="0" len="12" pos="2088" vol="100" key="29"/>
          <note pan="0" len="12" pos="2088" vol="100" key="27"/>
          <note pan="0" len="12" pos="2088" vol="100" key="24"/>
          <note pan="0" len="12" pos="2100" vol="100" key="29"/>
          <note pan="0" len="96" pos="2109" vol="100" key="13"/>
          <note pan="0" len="12" pos="2112" vol="100" key="61"/>
          <note pan="0" len="12" pos="2112" vol="100" key="36"/>
          <note pan="0" len="12" pos="2112" vol="100" key="29"/>
          <note pan="0" len="12" pos="2112" vol="100" key="26"/>
          <note pan="0" len="12" pos="2124" vol="100" key="63"/>
          <note pan="0" len="12" pos="2136" vol="100" key="62"/>
          <note pan="0" len="12" pos="2136" vol="100" key="36"/>
          <note pan="0" len="12" pos="2136" vol="100" key="24"/>
          <note pan="0" len="12" pos="2148" vol="100" key="65"/>
          <note pan="0" len="12" pos="2148" vol="100" key="29"/>
          <note pan="0" len="12" pos="2160" vol="100" key="64"/>
          <note pan="0" len="12" pos="2160" vol="100" key="28"/>
          <note pan="0" len="12" pos="2184" vol="100" key="63"/>
          <note pan="0" len="12" pos="2184" vol="100" key="29"/>
          <note pan="0" len="12" pos="2184" vol="100" key="24"/>
          <note pan="0" len="96" pos="2205" vol="100" key="12"/>
          <note pan="0" len="96" pos="2205" vol="100" key="4"/>
          <note pan="0" len="12" pos="2208" vol="100" key="61"/>
          <note pan="0" len="12" pos="2208" vol="100" key="29"/>
          <note pan="0" len="12" pos="2208" vol="100" key="26"/>
          <note pan="0" len="12" pos="2220" vol="100" key="63"/>
          <note pan="0" len="12" pos="2232" vol="100" key="62"/>
          <note pan="0" len="12" pos="2232" vol="100" key="29"/>
          <note pan="0" len="12" pos="2232" vol="100" key="24"/>
          <note pan="0" len="12" pos="2244" vol="100" key="65"/>
          <note pan="0" len="12" pos="2256" vol="100" key="64"/>
          <note pan="0" len="24" pos="2256" vol="100" key="36"/>
          <note pan="0" len="12" pos="2256" vol="100" key="28"/>
          <note pan="0" len="12" pos="2280" vol="100" key="63"/>
          <note pan="0" len="12" pos="2280" vol="100" key="27"/>
          <note pan="0" len="12" pos="2280" vol="100" key="24"/>
          <note pan="0" len="192" pos="2301" vol="100" key="17"/>
          <note pan="0" len="96" pos="2301" vol="100" key="9"/>
          <note pan="0" len="12" pos="2304" vol="100" key="63"/>
          <note pan="0" len="12" pos="2304" vol="100" key="36"/>
          <note pan="0" len="12" pos="2304" vol="100" key="29"/>
          <note pan="0" len="12" pos="2304" vol="100" key="26"/>
          <note pan="0" len="12" pos="2316" vol="100" key="64"/>
          <note pan="0" len="12" pos="2328" vol="100" key="65"/>
          <note pan="0" len="12" pos="2328" vol="100" key="36"/>
          <note pan="0" len="12" pos="2328" vol="100" key="24"/>
          <note pan="0" len="12" pos="2340" vol="100" key="66"/>
          <note pan="0" len="12" pos="2340" vol="100" key="29"/>
          <note pan="0" len="12" pos="2352" vol="100" key="67"/>
          <note pan="0" len="12" pos="2352" vol="100" key="28"/>
          <note pan="0" len="12" pos="2376" vol="100" key="64"/>
          <note pan="0" len="12" pos="2376" vol="100" key="29"/>
          <note pan="0" len="12" pos="2376" vol="100" key="24"/>
          <note pan="0" len="96" pos="2397" vol="100" key="5"/>
          <note pan="0" len="12" pos="2400" vol="100" key="63"/>
          <note pan="0" len="12" pos="2400" vol="100" key="29"/>
          <note pan="0" len="12" pos="2400" vol="100" key="26"/>
          <note pan="0" len="12" pos="2412" vol="100" key="64"/>
          <note pan="0" len="12" pos="2424" vol="100" key="65"/>
          <note pan="0" len="12" pos="2424" vol="100" key="29"/>
          <note pan="0" len="12" pos="2424" vol="100" key="24"/>
          <note pan="0" len="12" pos="2436" vol="100" key="66"/>
          <note pan="0" len="12" pos="2448" vol="100" key="67"/>
          <note pan="0" len="24" pos="2448" vol="100" key="36"/>
          <note pan="0" len="12" pos="2448" vol="100" key="29"/>
          <note pan="0" len="12" pos="2448" vol="100" key="28"/>
          <note pan="0" len="12" pos="2460" vol="100" key="29"/>
          <note pan="0" len="12" pos="2472" vol="100" key="64"/>
          <note pan="0" len="12" pos="2472" vol="100" key="29"/>
          <note pan="0" len="12" pos="2472" vol="100" key="27"/>
          <note pan="0" len="12" pos="2472" vol="100" key="24"/>
          <note pan="0" len="12" pos="2484" vol="100" key="29"/>
          <note pan="0" len="96" pos="2493" vol="100" key="13"/>
          <note pan="0" len="192" pos="2493" vol="100" key="0"/>
          <note pan="0" len="12" pos="2496" vol="100" key="60"/>
          <note pan="0" len="12" pos="2496" vol="100" key="36"/>
          <note pan="0" len="12" pos="2496" vol="100" key="29"/>
          <note pan="0" len="12" pos="2496" vol="100" key="26"/>
          <note pan="0" len="12" pos="2508" vol="100" key="61"/>
          <note pan="0" len="12" pos="2520" vol="100" key="62"/>
          <note pan="0" len="12" pos="2520" vol="100" key="36"/>
          <note pan="0" len="12" pos="2520" vol="100" key="24"/>
          <note pan="0" len="12" pos="2532" vol="100" key="63"/>
          <note pan="0" len="12" pos="2532" vol="100" key="29"/>
          <note pan="0" len="12" pos="2544" vol="100" key="64"/>
          <note pan="0" len="12" pos="2544" vol="100" key="28"/>
          <note pan="0" len="12" pos="2556" vol="100" key="65"/>
          <note pan="0" len="12" pos="2568" vol="100" key="66"/>
          <note pan="0" len="12" pos="2568" vol="100" key="29"/>
          <note pan="0" len="12" pos="2568" vol="100" key="24"/>
          <note pan="0" len="12" pos="2580" vol="100" key="67"/>
          <note pan="0" len="96" pos="2589" vol="100" key="16"/>
          <note pan="0" len="12" pos="2592" vol="100" key="68"/>
          <note pan="0" len="12" pos="2592" vol="100" key="29"/>
          <note pan="0" len="12" pos="2592" vol="100" key="26"/>
          <note pan="0" len="12" pos="2604" vol="100" key="67"/>
          <note pan="0" len="12" pos="2616" vol="100" key="66"/>
          <note pan="0" len="12" pos="2616" vol="100" key="29"/>
          <note pan="0" len="12" pos="2616" vol="100" key="24"/>
          <note pan="0" len="12" pos="2628" vol="100" key="65"/>
          <note pan="0" len="12" pos="2640" vol="100" key="64"/>
          <note pan="0" len="24" pos="2640" vol="100" key="36"/>
          <note pan="0" len="12" pos="2640" vol="100" key="28"/>
          <note pan="0" len="12" pos="2652" vol="100" key="63"/>
          <note pan="0" len="12" pos="2664" vol="100" key="62"/>
          <note pan="0" len="12" pos="2664" vol="100" key="27"/>
          <note pan="0" len="12" pos="2664" vol="100" key="24"/>
          <note pan="0" len="12" pos="2676" vol="100" key="61"/>
          <note pan="0" len="192" pos="2685" vol="100" key="12"/>
          <note pan="0" len="192" pos="2685" vol="100" key="4"/>
          <note pan="0" len="12" pos="2688" vol="100" key="68"/>
          <note pan="0" len="12" pos="2688" vol="100" key="67"/>
          <note pan="0" len="12" pos="2688" vol="100" key="66"/>
          <note pan="0" len="12" pos="2688" vol="100" key="36"/>
          <note pan="0" len="12" pos="2688" vol="100" key="29"/>
          <note pan="0" len="12" pos="2688" vol="100" key="26"/>
          <note pan="0" len="12" pos="2712" vol="100" key="63"/>
          <note pan="0" len="12" pos="2712" vol="100" key="36"/>
          <note pan="0" len="12" pos="2712" vol="100" key="24"/>
          <note pan="0" len="12" pos="2724" vol="100" key="66"/>
          <note pan="0" len="12" pos="2724" vol="100" key="65"/>
          <note pan="0" len="12" pos="2724" vol="100" key="64"/>
          <note pan="0" len="12" pos="2724" vol="100" key="29"/>
          <note pan="0" len="12" pos="2736" vol="100" key="28"/>
          <note pan="0" len="12" pos="2748" vol="100" key="61"/>
          <note pan="0" len="12" pos="2760" vol="100" key="64"/>
          <note pan="0" len="12" pos="2760" vol="100" key="63"/>
          <note pan="0" len="12" pos="2760" vol="100" key="62"/>
          <note pan="0" len="12" pos="2760" vol="100" key="29"/>
          <note pan="0" len="12" pos="2760" vol="100" key="24"/>
          <note pan="0" len="12" pos="2784" vol="100" key="60"/>
          <note pan="0" len="12" pos="2784" vol="100" key="29"/>
          <note pan="0" len="12" pos="2784" vol="100" key="26"/>
          <note pan="0" len="12" pos="2796" vol="100" key="63"/>
          <note pan="0" len="12" pos="2796" vol="100" key="62"/>
          <note pan="0" len="12" pos="2796" vol="100" key="61"/>
          <note pan="0" len="12" pos="2808" vol="100" key="29"/>
          <note pan="0" len="12" pos="2808" vol="100" key="24"/>
          <note pan="0" len="12" pos="2832" vol="100" key="62"/>
          <note pan="0" len="12" pos="2832" vol="100" key="61"/>
          <note pan="0" len="12" pos="2832" vol="100" key="60"/>
          <note pan="0" len="24" pos="2832" vol="100" key="36"/>
          <note pan="0" len="12" pos="2832" vol="100" key="29"/>
          <note pan="0" len="12" pos="2832" vol="100" key="28"/>
          <note pan="0" len="12" pos="2844" vol="100" key="29"/>
          <note pan="0" len="12" pos="2856" vol="100" key="29"/>
          <note pan="0" len="12" pos="2856" vol="100" key="27"/>
          <note pan="0" len="12" pos="2856" vol="100" key="24"/>
          <note pan="0" len="12" pos="2868" vol="100" key="29"/>
          <note pan="0" len="192" pos="2877" vol="100" key="17"/>
          <note pan="0" len="192" pos="2877" vol="100" key="0"/>
          <note pan="0" len="12" pos="2880" vol="100" key="60"/>
          <note pan="0" len="12" pos="2880" vol="100" key="36"/>
          <note pan="0" len="12" pos="2892" vol="100" key="63"/>
          <note pan="0" len="12" pos="2904" vol="100" key="62"/>
          <note pan="0" len="12" pos="2904" vol="100" key="36"/>
          <note pan="0" len="12" pos="2904" vol="100" key="24"/>
          <note pan="0" len="12" pos="2916" vol="100" key="61"/>
          <note pan="0" len="12" pos="2928" vol="100" key="66"/>
          <note pan="0" len="12" pos="2940" vol="100" key="65"/>
          <note pan="0" len="12" pos="2952" vol="100" key="64"/>
          <note pan="0" len="12" pos="2952" vol="100" key="24"/>
          <note pan="0" len="12" pos="2964" vol="100" key="69"/>
          <note pan="0" len="12" pos="2976" vol="100" key="68"/>
          <note pan="0" len="12" pos="2988" vol="100" key="67"/>
          <note pan="0" len="12" pos="3000" vol="100" key="71"/>
          <note pan="0" len="12" pos="3000" vol="100" key="24"/>
          <note pan="0" len="12" pos="3012" vol="100" key="70"/>
          <note pan="0" len="12" pos="3024" vol="100" key="69"/>
          <note pan="0" len="24" pos="3024" vol="100" key="36"/>
        </pattern>
      </track>
    </trackcontainer>
    <track mutedBeforeSolo="0" solo="0" muted="0" name="Automation track" type="6">
      <automationtrack/>
      <automationpattern len="192" prog="0" tens="1" pos="0" mute="0" name="Numerator"/>
      <automationpattern len="192" prog="0" tens="1" pos="0" mute="0" name="Denominator"/>
      <automationpattern len="192" prog="0" tens="1" pos="0" mute="0" name="Tempo"/>
      <automationpattern len="192" prog="0" tens="1" pos="0" mute="0" name="Master volume"/>
      <automationpattern len="192" prog="0" tens="1" pos="0" mute="0" name="Master pitch"/>
    </track>
    <fxmixer minimized="0" width="1893" x="1" height="333" visible="1" maximized="0" y="600">
      <fxchannel soloed="0" muted="0" name="Master" volume="1" num="0">
        <fxchain enabled="0" numofeffects="0"/>
      </fxchannel>
    </fxmixer>
    <ControllerRackView minimized="0" width="350" x="550" height="200" visible="0" maximized="0" y="487"/>
    <pianoroll minimized="0" width="860" x="24" height="600" visible="1" maximized="0" y="142"/>
    <automationeditor minimized="0" width="860" x="1" height="400" visible="0" maximized="0" y="1"/>
    <projectnotes minimized="0" width="689" x="700" height="400" visible="0" maximized="0" y="10"><![CDATA[<!DOCTYPE HTML PUBLIC "-//W3C//DTD HTML 4.0//EN" "http://www.w3.org/TR/REC-html40/strict.dtd">
<html><head><meta name="qrichtext" content="1" /><style type="text/css">
p, li { white-space: pre-wrap; }
</style></head><body style=" font-family:'MS Shell Dlg 2'; font-size:8.25pt; font-weight:400; font-style:normal;">
<p style=" margin-top:0px; margin-bottom:0px; margin-left:0px; margin-right:0px; -qt-block-indent:0; text-indent:0px;"><span style=" color:#e0e0e0;">&lt;&lt;&lt;&lt;&lt;&lt;</span></p></body></html>]]></projectnotes>
    <timeline lp1pos="3072" lpstate="1" lp0pos="0" stopbehaviour="1"/>
    <controllers/>
  </song>
</lmms-project>
