<?xml version="1.0"?>
<!DOCTYPE lmms-project>
<lmms-project creator="LMMS" version="22" type="song" creatorversion="1.3.0-alpha.1.169+g6f97adf2e">
  <head mastervol="100" masterpitch="0">
    <bpm value="120" scale_type="linear" id="16520"/>
    <timesig_numerator value="3" scale_type="linear" id="29675"/>
    <timesig_denominator value="4" scale_type="linear" id="6215"/>
  </head>
  <song>
    <trackcontainer maximized="0" y="1" visible="1" height="587" x="1" width="1033" type="song" minimized="0">
      <track muted="0" mutedBeforeSolo="0" type="5" solo="0" name="MIDI Time Signature Numerator">
        <automationtrack/>
        <automationpattern len="192" pos="0" tens="1" prog="0" mute="0" name="Numerator">
          <time value="3" outValue="3" pos="0"/>
          <object id="29675"/>
        </automationpattern>
      </track>
      <track muted="0" mutedBeforeSolo="0" type="5" solo="0" name="MIDI Time Signature Denominator">
        <automationtrack/>
        <automationpattern len="192" pos="0" tens="1" prog="0" mute="0" name="Denominator">
          <time value="4" outValue="4" pos="0"/>
          <object id="6215"/>
        </automationpattern>
      </track>
      <track muted="0" mutedBeforeSolo="0" type="0" solo="0" name="Sonatina_Symphonic_Orchestra">
        <instrumenttrack pitchrange="2" scale="0" basenote="69" range_import="1" pitch="0" vol="35" lastkey="127" enablecc="0" pan="-14.9606" usemasterpitch="1" firstkey="0" mixch="4" enabled="0" keymap="0">
          <midicontrollers cc29="0" cc74="0" cc121="0" cc76="0" cc70="0" cc81="0" cc48="0" cc92="0" cc116="0" cc68="0" cc93="0" cc103="0" cc2="0" cc80="0" cc120="0" cc69="0" cc104="0" cc9="0" cc54="0" cc114="0" cc22="0" cc118="0" cc100="0" cc108="0" cc47="0" cc110="0" cc65="0" cc3="0" cc38="0" cc34="0" cc95="0" cc56="0" cc63="0" cc12="0" cc84="0" cc82="0" cc64="0" cc60="0" cc43="0" cc20="0" cc44="0" cc14="0" cc85="0" cc17="0" cc30="0" cc102="0" cc50="0" cc99="0" cc35="0" cc28="0" cc107="0" cc53="0" cc78="0" cc18="0" cc19="0" cc72="0" cc119="0" cc111="0" cc5="0" cc112="0" cc126="0" cc4="0" cc33="0" cc94="0" cc8="0" cc83="0" cc0="0" cc36="0" cc42="0" cc113="0" cc88="0" cc49="0" cc51="0" cc55="0" cc77="0" cc39="0" cc106="0" cc7="0" cc15="0" cc1="0" cc27="0" cc75="0" cc96="0" cc59="0" cc105="0" cc123="0" cc66="0" cc41="0" cc25="0" cc125="0" cc62="0" cc40="0" cc109="0" cc98="0" cc117="0" cc101="0" cc122="0" cc86="0" cc31="0" cc23="0" cc79="0" cc73="0" cc124="0" cc46="0" cc24="0" cc57="0" cc11="0" cc32="0" cc71="0" cc87="0" cc10="0" cc61="0" cc90="0" cc115="0" cc37="0" cc89="0" cc13="0" cc67="0" cc26="0" cc21="0" cc58="0" cc91="0" cc45="0" cc52="0" cc16="0" cc6="0" cc127="0" cc97="0"/>
          <instrument name="sf2player">
            <sf2player reverbWidth="0.5" chorusLevel="2" chorusNum="3" reverbLevel="0.9" reverbRoomSize="0.2" reverbDamping="0" chorusDepth="8" patch="12" chorusOn="0" chorusSpeed="0.3" bank="0" reverbOn="0" gain="1" src="usersoundfont:Sonatina_Symphonic_Orchestra.sf2">
              <key/>
            </sf2player>
          </instrument>
          <eldata ftype="0" fwet="0" fcut="14000" fres="0.5">
            <elvol lamt="0" x100="0" lspd_numerator="4" ctlenvamt="0" lpdel="0" hold="0.5" lshp="0" lspd="0.1" att="0" lspd_syncmode="0" lspd_denominator="4" pdel="0" latt="0" sustain="0.5" amt="0" rel="0.1" userwavefile="" dec="0.5"/>
            <elcut lamt="0" x100="0" lspd_numerator="4" ctlenvamt="0" lpdel="0" hold="0.5" lshp="0" lspd="0.1" att="0" lspd_syncmode="0" lspd_denominator="4" pdel="0" latt="0" sustain="0.5" amt="0" rel="0.1" userwavefile="" dec="0.5"/>
            <elres lamt="0" x100="0" lspd_numerator="4" ctlenvamt="0" lpdel="0" hold="0.5" lshp="0" lspd="0.1" att="0" lspd_syncmode="0" lspd_denominator="4" pdel="0" latt="0" sustain="0.5" amt="0" rel="0.1" userwavefile="" dec="0.5"/>
          </eldata>
          <chordcreator chord="0" chord-enabled="0" chordrange="1"/>
          <arpeggiator arpgate="100" arprange="1" arprepeats="1" arptime_numerator="4" arpmiss="0" arpmode="0" arpskip="0" arptime="200" arpdir="0" arpcycle="0" arp-enabled="0" arp="0" arptime_syncmode="0" arptime_denominator="4"/>
          <midiport fixedoutputvelocity="-1" outputprogram="1" basevelocity="63" fixedoutputnote="-1" fixedinputvelocity="-1" inputchannel="0" inputcontroller="0" outputchannel="1" outputcontroller="0" writable="0" readable="0"/>
          <fxchain numofeffects="0" enabled="0"/>
        </instrumenttrack>
        <pattern muted="0" pos="0" type="1" steps="12" name="">
          <note len="96" pos="0" key="69" vol="173" pan="0"/>
          <note len="48" pos="96" key="67" vol="173" pan="0"/>
          <note len="96" pos="144" key="64" vol="173" pan="0"/>
          <note len="48" pos="240" key="62" vol="173" pan="0"/>
          <note len="96" pos="288" key="60" vol="173" pan="0"/>
          <note len="48" pos="384" key="62" vol="173" pan="0"/>
          <note len="24" pos="432" key="64" vol="173" pan="0"/>
          <note len="24" pos="456" key="65" vol="173" pan="0"/>
          <note len="96" pos="480" key="64" vol="173" pan="0"/>
          <note len="96" pos="576" key="62" vol="173" pan="0"/>
          <note len="48" pos="672" key="60" vol="173" pan="0"/>
          <note len="96" pos="720" key="59" vol="173" pan="0"/>
          <note len="48" pos="816" key="62" vol="173" pan="0"/>
          <note len="276" pos="864" key="64" vol="173" pan="0"/>
          <note len="96" pos="1152" key="69" vol="173" pan="0"/>
          <note len="48" pos="1248" key="67" vol="173" pan="0"/>
          <note len="96" pos="1296" key="64" vol="173" pan="0"/>
          <note len="48" pos="1392" key="62" vol="173" pan="0"/>
          <note len="96" pos="1440" key="60" vol="173" pan="0"/>
          <note len="48" pos="1536" key="62" vol="173" pan="0"/>
          <note len="24" pos="1584" key="64" vol="173" pan="0"/>
          <note len="24" pos="1608" key="65" vol="173" pan="0"/>
          <note len="96" pos="1632" key="64" vol="173" pan="0"/>
          <note len="96" pos="1728" key="62" vol="173" pan="0"/>
          <note len="48" pos="1824" key="60" vol="173" pan="0"/>
          <note len="96" pos="1872" key="59" vol="173" pan="0"/>
          <note len="48" pos="1968" key="55" vol="173" pan="0"/>
          <note len="576" pos="2016" key="57" vol="173" pan="0"/>
          <note len="240" pos="2592" key="55" vol="173" pan="0"/>
          <note len="48" pos="2832" key="52" vol="173" pan="0"/>
          <note len="288" pos="2880" key="53" vol="173" pan="0"/>
          <note len="144" pos="3168" key="60" vol="173" pan="0"/>
          <note len="144" pos="3312" key="59" vol="173" pan="0"/>
        </pattern>
      </track>
      <track muted="0" mutedBeforeSolo="0" type="0" solo="0" name="Sonatina_Symphonic_Orchestra">
        <instrumenttrack pitchrange="2" scale="0" basenote="69" range_import="1" pitch="0" vol="94.2" lastkey="127" enablecc="0" pan="-14.9606" usemasterpitch="1" firstkey="0" mixch="4" enabled="0" keymap="0">
          <midicontrollers cc29="0" cc74="0" cc121="0" cc76="0" cc70="0" cc81="0" cc48="0" cc92="0" cc116="0" cc68="0" cc93="0" cc103="0" cc2="0" cc80="0" cc120="0" cc69="0" cc104="0" cc9="0" cc54="0" cc114="0" cc22="0" cc118="0" cc100="0" cc108="0" cc47="0" cc110="0" cc65="0" cc3="0" cc38="0" cc34="0" cc95="0" cc56="0" cc63="0" cc12="0" cc84="0" cc82="0" cc64="0" cc60="0" cc43="0" cc20="0" cc44="0" cc14="0" cc85="0" cc17="0" cc30="0" cc102="0" cc50="0" cc99="0" cc35="0" cc28="0" cc107="0" cc53="0" cc78="0" cc18="0" cc19="0" cc72="0" cc119="0" cc111="0" cc5="0" cc112="0" cc126="0" cc4="0" cc33="0" cc94="0" cc8="0" cc83="0" cc0="0" cc36="0" cc42="0" cc113="0" cc88="0" cc49="0" cc51="0" cc55="0" cc77="0" cc39="0" cc106="0" cc7="0" cc15="0" cc1="0" cc27="0" cc75="0" cc96="0" cc59="0" cc105="0" cc123="0" cc66="0" cc41="0" cc25="0" cc125="0" cc62="0" cc40="0" cc109="0" cc98="0" cc117="0" cc101="0" cc122="0" cc86="0" cc31="0" cc23="0" cc79="0" cc73="0" cc124="0" cc46="0" cc24="0" cc57="0" cc11="0" cc32="0" cc71="0" cc87="0" cc10="0" cc61="0" cc90="0" cc115="0" cc37="0" cc89="0" cc13="0" cc67="0" cc26="0" cc21="0" cc58="0" cc91="0" cc45="0" cc52="0" cc16="0" cc6="0" cc127="0" cc97="0"/>
          <instrument name="sf2player">
            <sf2player reverbWidth="0.5" chorusLevel="2" chorusNum="3" reverbLevel="0.9" reverbRoomSize="0.2" reverbDamping="0" chorusDepth="8" patch="12" chorusOn="0" chorusSpeed="0.3" bank="0" reverbOn="0" gain="1" src="usersoundfont:Sonatina_Symphonic_Orchestra.sf2">
              <key/>
            </sf2player>
          </instrument>
          <eldata ftype="0" fwet="0" fcut="14000" fres="0.5">
            <elvol lamt="0" x100="0" lspd_numerator="4" ctlenvamt="0" lpdel="0" hold="0.5" lshp="0" lspd="0.1" att="0" lspd_syncmode="0" lspd_denominator="4" pdel="0" latt="0" sustain="0.5" amt="0" rel="0.1" userwavefile="" dec="0.5"/>
            <elcut lamt="0" x100="0" lspd_numerator="4" ctlenvamt="0" lpdel="0" hold="0.5" lshp="0" lspd="0.1" att="0" lspd_syncmode="0" lspd_denominator="4" pdel="0" latt="0" sustain="0.5" amt="0" rel="0.1" userwavefile="" dec="0.5"/>
            <elres lamt="0" x100="0" lspd_numerator="4" ctlenvamt="0" lpdel="0" hold="0.5" lshp="0" lspd="0.1" att="0" lspd_syncmode="0" lspd_denominator="4" pdel="0" latt="0" sustain="0.5" amt="0" rel="0.1" userwavefile="" dec="0.5"/>
          </eldata>
          <chordcreator chord="0" chord-enabled="0" chordrange="1"/>
          <arpeggiator arpgate="100" arprange="1" arprepeats="1" arptime_numerator="4" arpmiss="0" arpmode="0" arpskip="0" arptime="200" arpdir="0" arpcycle="0" arp-enabled="0" arp="0" arptime_syncmode="0" arptime_denominator="4"/>
          <midiport fixedoutputvelocity="-1" outputprogram="1" basevelocity="63" fixedoutputnote="-1" fixedinputvelocity="-1" inputchannel="0" inputcontroller="0" outputchannel="1" outputcontroller="0" writable="0" readable="0"/>
          <fxchain numofeffects="0" enabled="0"/>
        </instrumenttrack>
        <pattern muted="0" pos="7296" type="1" steps="12" name="">
          <note len="12" pos="48" key="65" vol="173" pan="0"/>
          <note len="12" pos="72" key="69" vol="173" pan="0"/>
          <note len="12" pos="96" key="72" vol="173" pan="0"/>
          <note len="12" pos="120" key="76" vol="173" pan="0"/>
          <note len="12" pos="144" key="77" vol="173" pan="0"/>
          <note len="12" pos="168" key="79" vol="173" pan="0"/>
          <note len="12" pos="192" key="81" vol="173" pan="0"/>
          <note len="12" pos="216" key="84" vol="173" pan="0"/>
          <note len="12" pos="240" key="65" vol="173" pan="0"/>
          <note len="12" pos="264" key="69" vol="173" pan="0"/>
          <note len="12" pos="288" key="72" vol="173" pan="0"/>
          <note len="12" pos="312" key="76" vol="173" pan="0"/>
          <note len="12" pos="336" key="77" vol="173" pan="0"/>
          <note len="12" pos="360" key="79" vol="173" pan="0"/>
          <note len="12" pos="384" key="81" vol="173" pan="0"/>
          <note len="12" pos="408" key="84" vol="173" pan="0"/>
          <note len="12" pos="432" key="67" vol="173" pan="0"/>
          <note len="12" pos="456" key="71" vol="173" pan="0"/>
          <note len="12" pos="480" key="74" vol="173" pan="0"/>
          <note len="12" pos="504" key="78" vol="173" pan="0"/>
          <note len="12" pos="528" key="79" vol="173" pan="0"/>
          <note len="12" pos="552" key="81" vol="173" pan="0"/>
          <note len="12" pos="576" key="83" vol="173" pan="0"/>
          <note len="12" pos="600" key="86" vol="173" pan="0"/>
          <note len="12" pos="624" key="67" vol="173" pan="0"/>
          <note len="12" pos="648" key="71" vol="173" pan="0"/>
          <note len="12" pos="672" key="74" vol="173" pan="0"/>
          <note len="12" pos="696" key="78" vol="173" pan="0"/>
          <note len="12" pos="720" key="79" vol="173" pan="0"/>
          <note len="12" pos="744" key="81" vol="173" pan="0"/>
          <note len="12" pos="768" key="86" vol="173" pan="0"/>
          <note len="12" pos="792" key="84" vol="173" pan="0"/>
          <note len="12" pos="816" key="65" vol="173" pan="0"/>
          <note len="12" pos="840" key="69" vol="173" pan="0"/>
          <note len="12" pos="864" key="72" vol="173" pan="0"/>
          <note len="12" pos="888" key="76" vol="173" pan="0"/>
          <note len="12" pos="912" key="77" vol="173" pan="0"/>
          <note len="12" pos="936" key="79" vol="173" pan="0"/>
          <note len="12" pos="960" key="81" vol="173" pan="0"/>
          <note len="12" pos="984" key="84" vol="173" pan="0"/>
          <note len="12" pos="1008" key="65" vol="173" pan="0"/>
          <note len="12" pos="1032" key="69" vol="173" pan="0"/>
          <note len="12" pos="1056" key="72" vol="173" pan="0"/>
          <note len="12" pos="1080" key="76" vol="173" pan="0"/>
          <note len="12" pos="1104" key="77" vol="173" pan="0"/>
          <note len="12" pos="1128" key="79" vol="173" pan="0"/>
          <note len="12" pos="1152" key="81" vol="173" pan="0"/>
          <note len="12" pos="1176" key="84" vol="173" pan="0"/>
          <note len="12" pos="1200" key="67" vol="173" pan="0"/>
          <note len="12" pos="1224" key="71" vol="173" pan="0"/>
          <note len="12" pos="1248" key="74" vol="173" pan="0"/>
          <note len="12" pos="1272" key="78" vol="173" pan="0"/>
          <note len="12" pos="1296" key="79" vol="173" pan="0"/>
          <note len="12" pos="1320" key="81" vol="173" pan="0"/>
          <note len="12" pos="1344" key="83" vol="173" pan="0"/>
          <note len="12" pos="1368" key="86" vol="173" pan="0"/>
          <note len="12" pos="1392" key="67" vol="173" pan="0"/>
          <note len="12" pos="1416" key="71" vol="173" pan="0"/>
          <note len="12" pos="1440" key="74" vol="173" pan="0"/>
          <note len="12" pos="1464" key="78" vol="173" pan="0"/>
          <note len="12" pos="1488" key="79" vol="173" pan="0"/>
          <note len="12" pos="1512" key="81" vol="173" pan="0"/>
          <note len="12" pos="1536" key="86" vol="173" pan="0"/>
          <note len="12" pos="1560" key="84" vol="173" pan="0"/>
          <note len="12" pos="1584" key="65" vol="173" pan="0"/>
          <note len="12" pos="1608" key="69" vol="173" pan="0"/>
          <note len="12" pos="1632" key="72" vol="173" pan="0"/>
          <note len="12" pos="1656" key="76" vol="173" pan="0"/>
          <note len="12" pos="1680" key="77" vol="173" pan="0"/>
          <note len="12" pos="1704" key="79" vol="173" pan="0"/>
          <note len="12" pos="1728" key="81" vol="173" pan="0"/>
          <note len="12" pos="1752" key="84" vol="173" pan="0"/>
          <note len="12" pos="1776" key="65" vol="173" pan="0"/>
          <note len="12" pos="1800" key="69" vol="173" pan="0"/>
          <note len="12" pos="1824" key="72" vol="173" pan="0"/>
          <note len="12" pos="1848" key="76" vol="173" pan="0"/>
          <note len="12" pos="1872" key="77" vol="173" pan="0"/>
          <note len="12" pos="1896" key="79" vol="173" pan="0"/>
          <note len="12" pos="1920" key="81" vol="173" pan="0"/>
          <note len="12" pos="1944" key="84" vol="173" pan="0"/>
          <note len="12" pos="1968" key="67" vol="173" pan="0"/>
          <note len="12" pos="1992" key="71" vol="173" pan="0"/>
          <note len="12" pos="2016" key="74" vol="173" pan="0"/>
          <note len="12" pos="2040" key="78" vol="173" pan="0"/>
          <note len="12" pos="2064" key="79" vol="173" pan="0"/>
          <note len="12" pos="2088" key="81" vol="173" pan="0"/>
          <note len="12" pos="2112" key="83" vol="173" pan="0"/>
          <note len="12" pos="2136" key="86" vol="173" pan="0"/>
          <note len="12" pos="2160" key="67" vol="173" pan="0"/>
          <note len="12" pos="2184" key="71" vol="173" pan="0"/>
          <note len="12" pos="2208" key="74" vol="173" pan="0"/>
          <note len="12" pos="2232" key="78" vol="173" pan="0"/>
          <note len="12" pos="2256" key="79" vol="173" pan="0"/>
          <note len="12" pos="2280" key="81" vol="173" pan="0"/>
          <note len="12" pos="2304" key="86" vol="173" pan="0"/>
          <note len="12" pos="2328" key="84" vol="173" pan="0"/>
          <note len="12" pos="2352" key="65" vol="173" pan="0"/>
          <note len="12" pos="2376" key="69" vol="173" pan="0"/>
          <note len="12" pos="2400" key="72" vol="173" pan="0"/>
          <note len="12" pos="2424" key="76" vol="173" pan="0"/>
          <note len="12" pos="2448" key="77" vol="173" pan="0"/>
          <note len="12" pos="2472" key="79" vol="173" pan="0"/>
          <note len="12" pos="2496" key="81" vol="173" pan="0"/>
          <note len="12" pos="2520" key="84" vol="173" pan="0"/>
          <note len="12" pos="2544" key="65" vol="173" pan="0"/>
          <note len="12" pos="2568" key="69" vol="173" pan="0"/>
          <note len="12" pos="2592" key="72" vol="173" pan="0"/>
          <note len="12" pos="2616" key="76" vol="173" pan="0"/>
          <note len="12" pos="2640" key="77" vol="173" pan="0"/>
          <note len="12" pos="2664" key="79" vol="173" pan="0"/>
          <note len="12" pos="2688" key="81" vol="173" pan="0"/>
          <note len="12" pos="2712" key="84" vol="173" pan="0"/>
          <note len="12" pos="2736" key="67" vol="173" pan="0"/>
          <note len="12" pos="2760" key="71" vol="173" pan="0"/>
          <note len="12" pos="2784" key="74" vol="173" pan="0"/>
          <note len="12" pos="2808" key="78" vol="173" pan="0"/>
          <note len="12" pos="2832" key="79" vol="173" pan="0"/>
          <note len="12" pos="2856" key="81" vol="173" pan="0"/>
          <note len="12" pos="2880" key="83" vol="173" pan="0"/>
          <note len="12" pos="2904" key="86" vol="173" pan="0"/>
          <note len="12" pos="2928" key="67" vol="173" pan="0"/>
          <note len="12" pos="2952" key="71" vol="173" pan="0"/>
          <note len="12" pos="2976" key="74" vol="173" pan="0"/>
          <note len="12" pos="3000" key="78" vol="173" pan="0"/>
          <note len="12" pos="3024" key="79" vol="173" pan="0"/>
          <note len="12" pos="3048" key="81" vol="173" pan="0"/>
          <note len="12" pos="3072" key="86" vol="173" pan="0"/>
          <note len="12" pos="3096" key="84" vol="173" pan="0"/>
          <note len="12" pos="3120" key="65" vol="173" pan="0"/>
          <note len="12" pos="3144" key="69" vol="173" pan="0"/>
          <note len="12" pos="3168" key="72" vol="173" pan="0"/>
          <note len="12" pos="3192" key="76" vol="173" pan="0"/>
          <note len="12" pos="3216" key="77" vol="173" pan="0"/>
          <note len="12" pos="3240" key="79" vol="173" pan="0"/>
          <note len="12" pos="3264" key="81" vol="173" pan="0"/>
          <note len="12" pos="3288" key="84" vol="173" pan="0"/>
          <note len="12" pos="3312" key="65" vol="173" pan="0"/>
          <note len="12" pos="3336" key="69" vol="173" pan="0"/>
          <note len="12" pos="3360" key="72" vol="173" pan="0"/>
          <note len="12" pos="3384" key="76" vol="173" pan="0"/>
          <note len="12" pos="3408" key="77" vol="173" pan="0"/>
          <note len="12" pos="3432" key="79" vol="173" pan="0"/>
          <note len="12" pos="3456" key="81" vol="173" pan="0"/>
          <note len="12" pos="3480" key="84" vol="173" pan="0"/>
          <note len="12" pos="3504" key="67" vol="173" pan="0"/>
          <note len="12" pos="3528" key="71" vol="173" pan="0"/>
          <note len="12" pos="3552" key="74" vol="173" pan="0"/>
          <note len="12" pos="3576" key="78" vol="173" pan="0"/>
          <note len="12" pos="3600" key="79" vol="173" pan="0"/>
          <note len="12" pos="3624" key="81" vol="173" pan="0"/>
          <note len="12" pos="3648" key="83" vol="173" pan="0"/>
          <note len="12" pos="3672" key="86" vol="173" pan="0"/>
          <note len="12" pos="3696" key="67" vol="173" pan="0"/>
          <note len="12" pos="3720" key="71" vol="173" pan="0"/>
          <note len="12" pos="3744" key="74" vol="173" pan="0"/>
          <note len="12" pos="3768" key="78" vol="173" pan="0"/>
          <note len="12" pos="3792" key="79" vol="173" pan="0"/>
          <note len="12" pos="3816" key="81" vol="173" pan="0"/>
          <note len="12" pos="3840" key="86" vol="173" pan="0"/>
          <note len="12" pos="3864" key="84" vol="173" pan="0"/>
          <note len="12" pos="3888" key="65" vol="173" pan="0"/>
          <note len="12" pos="3912" key="69" vol="173" pan="0"/>
          <note len="12" pos="3936" key="72" vol="173" pan="0"/>
          <note len="12" pos="3960" key="76" vol="173" pan="0"/>
          <note len="12" pos="3984" key="77" vol="173" pan="0"/>
          <note len="12" pos="4008" key="79" vol="173" pan="0"/>
          <note len="12" pos="4032" key="81" vol="173" pan="0"/>
          <note len="12" pos="4056" key="84" vol="173" pan="0"/>
          <note len="12" pos="4080" key="65" vol="173" pan="0"/>
          <note len="12" pos="4104" key="69" vol="173" pan="0"/>
          <note len="12" pos="4128" key="72" vol="173" pan="0"/>
          <note len="12" pos="4152" key="76" vol="173" pan="0"/>
          <note len="12" pos="4176" key="77" vol="173" pan="0"/>
          <note len="12" pos="4200" key="79" vol="173" pan="0"/>
          <note len="12" pos="4224" key="81" vol="173" pan="0"/>
          <note len="12" pos="4248" key="84" vol="173" pan="0"/>
          <note len="12" pos="4272" key="67" vol="173" pan="0"/>
          <note len="12" pos="4296" key="71" vol="173" pan="0"/>
          <note len="12" pos="4320" key="74" vol="173" pan="0"/>
          <note len="12" pos="4344" key="78" vol="173" pan="0"/>
          <note len="12" pos="4368" key="79" vol="173" pan="0"/>
          <note len="12" pos="4392" key="81" vol="173" pan="0"/>
          <note len="12" pos="4416" key="83" vol="173" pan="0"/>
          <note len="12" pos="4440" key="86" vol="173" pan="0"/>
          <note len="12" pos="4464" key="67" vol="173" pan="0"/>
          <note len="12" pos="4488" key="71" vol="173" pan="0"/>
          <note len="12" pos="4512" key="74" vol="173" pan="0"/>
          <note len="12" pos="4536" key="78" vol="173" pan="0"/>
          <note len="12" pos="4560" key="79" vol="173" pan="0"/>
          <note len="12" pos="4584" key="81" vol="173" pan="0"/>
          <note len="12" pos="4608" key="86" vol="173" pan="0"/>
          <note len="12" pos="4632" key="84" vol="173" pan="0"/>
          <note len="12" pos="4656" key="65" vol="173" pan="0"/>
          <note len="12" pos="4680" key="69" vol="173" pan="0"/>
          <note len="12" pos="4704" key="72" vol="173" pan="0"/>
          <note len="12" pos="4728" key="76" vol="173" pan="0"/>
          <note len="12" pos="4752" key="77" vol="173" pan="0"/>
          <note len="12" pos="4776" key="79" vol="173" pan="0"/>
          <note len="12" pos="4800" key="81" vol="173" pan="0"/>
          <note len="12" pos="4824" key="84" vol="173" pan="0"/>
          <note len="12" pos="4848" key="65" vol="173" pan="0"/>
          <note len="12" pos="4872" key="69" vol="173" pan="0"/>
          <note len="12" pos="4896" key="72" vol="173" pan="0"/>
          <note len="12" pos="4920" key="76" vol="173" pan="0"/>
          <note len="12" pos="4944" key="77" vol="173" pan="0"/>
          <note len="12" pos="4968" key="79" vol="173" pan="0"/>
          <note len="12" pos="4992" key="81" vol="173" pan="0"/>
          <note len="12" pos="5016" key="84" vol="173" pan="0"/>
          <note len="12" pos="5040" key="67" vol="173" pan="0"/>
          <note len="12" pos="5064" key="71" vol="173" pan="0"/>
          <note len="12" pos="5088" key="74" vol="173" pan="0"/>
          <note len="12" pos="5112" key="78" vol="173" pan="0"/>
          <note len="12" pos="5136" key="79" vol="173" pan="0"/>
          <note len="12" pos="5160" key="81" vol="173" pan="0"/>
          <note len="12" pos="5184" key="83" vol="173" pan="0"/>
          <note len="12" pos="5208" key="86" vol="173" pan="0"/>
          <note len="12" pos="5232" key="67" vol="173" pan="0"/>
          <note len="12" pos="5256" key="71" vol="173" pan="0"/>
          <note len="12" pos="5280" key="74" vol="173" pan="0"/>
          <note len="12" pos="5304" key="78" vol="173" pan="0"/>
          <note len="12" pos="5328" key="79" vol="173" pan="0"/>
          <note len="12" pos="5352" key="81" vol="173" pan="0"/>
          <note len="12" pos="5376" key="86" vol="173" pan="0"/>
          <note len="12" pos="5400" key="84" vol="173" pan="0"/>
          <note len="12" pos="5424" key="65" vol="173" pan="0"/>
          <note len="12" pos="5448" key="69" vol="173" pan="0"/>
          <note len="12" pos="5472" key="72" vol="173" pan="0"/>
          <note len="12" pos="5496" key="76" vol="173" pan="0"/>
          <note len="12" pos="5520" key="77" vol="173" pan="0"/>
          <note len="12" pos="5544" key="79" vol="173" pan="0"/>
          <note len="12" pos="5568" key="81" vol="173" pan="0"/>
          <note len="12" pos="5592" key="84" vol="173" pan="0"/>
          <note len="12" pos="5616" key="65" vol="173" pan="0"/>
          <note len="12" pos="5640" key="69" vol="173" pan="0"/>
          <note len="12" pos="5664" key="72" vol="173" pan="0"/>
          <note len="12" pos="5688" key="76" vol="173" pan="0"/>
          <note len="12" pos="5712" key="77" vol="173" pan="0"/>
          <note len="12" pos="5736" key="79" vol="173" pan="0"/>
          <note len="12" pos="5760" key="81" vol="173" pan="0"/>
          <note len="12" pos="5784" key="84" vol="173" pan="0"/>
          <note len="12" pos="5808" key="67" vol="173" pan="0"/>
          <note len="12" pos="5832" key="71" vol="173" pan="0"/>
          <note len="12" pos="5856" key="74" vol="173" pan="0"/>
          <note len="12" pos="5880" key="78" vol="173" pan="0"/>
          <note len="12" pos="5904" key="79" vol="173" pan="0"/>
          <note len="12" pos="5928" key="81" vol="173" pan="0"/>
          <note len="12" pos="5952" key="83" vol="173" pan="0"/>
          <note len="12" pos="5976" key="86" vol="173" pan="0"/>
          <note len="12" pos="6000" key="67" vol="173" pan="0"/>
          <note len="12" pos="6024" key="71" vol="173" pan="0"/>
          <note len="12" pos="6048" key="74" vol="173" pan="0"/>
          <note len="12" pos="6072" key="78" vol="173" pan="0"/>
          <note len="12" pos="6096" key="79" vol="173" pan="0"/>
          <note len="12" pos="6120" key="81" vol="173" pan="0"/>
          <note len="12" pos="6144" key="86" vol="173" pan="0"/>
          <note len="12" pos="6168" key="84" vol="173" pan="0"/>
          <note len="12" pos="6192" key="65" vol="173" pan="0"/>
          <note len="12" pos="6216" key="69" vol="173" pan="0"/>
          <note len="12" pos="6240" key="72" vol="173" pan="0"/>
          <note len="12" pos="6264" key="76" vol="173" pan="0"/>
          <note len="12" pos="6288" key="77" vol="173" pan="0"/>
          <note len="12" pos="6312" key="79" vol="173" pan="0"/>
          <note len="12" pos="6336" key="81" vol="173" pan="0"/>
          <note len="12" pos="6360" key="84" vol="173" pan="0"/>
          <note len="12" pos="6384" key="65" vol="173" pan="0"/>
          <note len="12" pos="6408" key="69" vol="173" pan="0"/>
          <note len="12" pos="6432" key="72" vol="173" pan="0"/>
          <note len="12" pos="6456" key="76" vol="173" pan="0"/>
          <note len="12" pos="6480" key="77" vol="173" pan="0"/>
          <note len="12" pos="6504" key="79" vol="173" pan="0"/>
          <note len="12" pos="6528" key="81" vol="173" pan="0"/>
          <note len="12" pos="6552" key="84" vol="173" pan="0"/>
          <note len="12" pos="6576" key="67" vol="173" pan="0"/>
          <note len="12" pos="6600" key="71" vol="173" pan="0"/>
          <note len="12" pos="6624" key="74" vol="173" pan="0"/>
          <note len="12" pos="6648" key="78" vol="173" pan="0"/>
          <note len="12" pos="6672" key="79" vol="173" pan="0"/>
          <note len="12" pos="6696" key="81" vol="173" pan="0"/>
          <note len="12" pos="6720" key="83" vol="173" pan="0"/>
          <note len="12" pos="6744" key="86" vol="173" pan="0"/>
          <note len="12" pos="6768" key="67" vol="173" pan="0"/>
          <note len="12" pos="6792" key="71" vol="173" pan="0"/>
          <note len="12" pos="6816" key="74" vol="173" pan="0"/>
          <note len="12" pos="6840" key="78" vol="173" pan="0"/>
          <note len="12" pos="6864" key="79" vol="173" pan="0"/>
          <note len="12" pos="6888" key="81" vol="173" pan="0"/>
          <note len="12" pos="6912" key="86" vol="173" pan="0"/>
          <note len="12" pos="6936" key="84" vol="173" pan="0"/>
          <note len="12" pos="6960" key="65" vol="173" pan="0"/>
          <note len="12" pos="6984" key="69" vol="173" pan="0"/>
          <note len="12" pos="7008" key="72" vol="173" pan="0"/>
          <note len="12" pos="7032" key="76" vol="173" pan="0"/>
          <note len="12" pos="7056" key="77" vol="173" pan="0"/>
          <note len="12" pos="7080" key="79" vol="173" pan="0"/>
          <note len="12" pos="7104" key="81" vol="173" pan="0"/>
          <note len="12" pos="7128" key="84" vol="173" pan="0"/>
          <note len="12" pos="7152" key="65" vol="173" pan="0"/>
          <note len="12" pos="7176" key="69" vol="173" pan="0"/>
          <note len="12" pos="7200" key="72" vol="173" pan="0"/>
          <note len="12" pos="7224" key="76" vol="173" pan="0"/>
          <note len="12" pos="7248" key="77" vol="173" pan="0"/>
          <note len="12" pos="7272" key="79" vol="173" pan="0"/>
          <note len="12" pos="7296" key="81" vol="173" pan="0"/>
          <note len="12" pos="7320" key="84" vol="173" pan="0"/>
          <note len="12" pos="7344" key="67" vol="173" pan="0"/>
          <note len="12" pos="7368" key="71" vol="173" pan="0"/>
          <note len="12" pos="7392" key="74" vol="173" pan="0"/>
          <note len="12" pos="7416" key="78" vol="173" pan="0"/>
          <note len="12" pos="7440" key="79" vol="173" pan="0"/>
          <note len="12" pos="7464" key="81" vol="173" pan="0"/>
          <note len="12" pos="7488" key="83" vol="173" pan="0"/>
          <note len="12" pos="7512" key="86" vol="173" pan="0"/>
          <note len="12" pos="7536" key="67" vol="173" pan="0"/>
          <note len="12" pos="7560" key="71" vol="173" pan="0"/>
          <note len="12" pos="7584" key="74" vol="173" pan="0"/>
          <note len="12" pos="7608" key="78" vol="173" pan="0"/>
          <note len="12" pos="7632" key="79" vol="173" pan="0"/>
          <note len="12" pos="7656" key="81" vol="173" pan="0"/>
          <note len="12" pos="7680" key="86" vol="173" pan="0"/>
          <note len="12" pos="7704" key="84" vol="173" pan="0"/>
          <note len="12" pos="7728" key="65" vol="173" pan="0"/>
          <note len="12" pos="7752" key="69" vol="173" pan="0"/>
          <note len="12" pos="7776" key="72" vol="173" pan="0"/>
          <note len="12" pos="7800" key="76" vol="173" pan="0"/>
          <note len="12" pos="7824" key="77" vol="173" pan="0"/>
          <note len="12" pos="7848" key="79" vol="173" pan="0"/>
          <note len="12" pos="7872" key="81" vol="173" pan="0"/>
          <note len="12" pos="7896" key="84" vol="173" pan="0"/>
          <note len="12" pos="7920" key="65" vol="173" pan="0"/>
          <note len="12" pos="7944" key="69" vol="173" pan="0"/>
          <note len="12" pos="7968" key="72" vol="173" pan="0"/>
          <note len="12" pos="7992" key="76" vol="173" pan="0"/>
          <note len="12" pos="8016" key="77" vol="173" pan="0"/>
          <note len="12" pos="8040" key="79" vol="173" pan="0"/>
          <note len="12" pos="8064" key="81" vol="173" pan="0"/>
          <note len="12" pos="8088" key="84" vol="173" pan="0"/>
          <note len="12" pos="8112" key="67" vol="173" pan="0"/>
          <note len="12" pos="8136" key="71" vol="173" pan="0"/>
          <note len="12" pos="8160" key="74" vol="173" pan="0"/>
          <note len="12" pos="8184" key="78" vol="173" pan="0"/>
          <note len="12" pos="8208" key="79" vol="173" pan="0"/>
          <note len="12" pos="8232" key="81" vol="173" pan="0"/>
          <note len="12" pos="8256" key="83" vol="173" pan="0"/>
          <note len="12" pos="8280" key="86" vol="173" pan="0"/>
          <note len="12" pos="8304" key="67" vol="173" pan="0"/>
          <note len="12" pos="8328" key="71" vol="173" pan="0"/>
          <note len="12" pos="8352" key="74" vol="173" pan="0"/>
          <note len="12" pos="8376" key="78" vol="173" pan="0"/>
          <note len="12" pos="8400" key="79" vol="173" pan="0"/>
          <note len="12" pos="8424" key="81" vol="173" pan="0"/>
          <note len="12" pos="8448" key="86" vol="173" pan="0"/>
          <note len="12" pos="8472" key="84" vol="173" pan="0"/>
          <note len="12" pos="8496" key="65" vol="173" pan="0"/>
          <note len="12" pos="8520" key="69" vol="173" pan="0"/>
          <note len="12" pos="8544" key="72" vol="173" pan="0"/>
          <note len="12" pos="8568" key="76" vol="173" pan="0"/>
          <note len="12" pos="8592" key="77" vol="173" pan="0"/>
          <note len="12" pos="8616" key="79" vol="173" pan="0"/>
          <note len="12" pos="8640" key="81" vol="173" pan="0"/>
          <note len="12" pos="8664" key="84" vol="173" pan="0"/>
          <note len="12" pos="8688" key="65" vol="173" pan="0"/>
          <note len="12" pos="8712" key="69" vol="173" pan="0"/>
          <note len="12" pos="8736" key="72" vol="173" pan="0"/>
          <note len="12" pos="8760" key="76" vol="173" pan="0"/>
          <note len="12" pos="8784" key="77" vol="173" pan="0"/>
          <note len="12" pos="8808" key="79" vol="173" pan="0"/>
          <note len="12" pos="8832" key="81" vol="173" pan="0"/>
          <note len="12" pos="8856" key="84" vol="173" pan="0"/>
          <note len="12" pos="8880" key="67" vol="173" pan="0"/>
          <note len="12" pos="8904" key="71" vol="173" pan="0"/>
          <note len="12" pos="8928" key="74" vol="173" pan="0"/>
          <note len="12" pos="8952" key="78" vol="173" pan="0"/>
          <note len="12" pos="8976" key="79" vol="173" pan="0"/>
          <note len="12" pos="9000" key="81" vol="173" pan="0"/>
          <note len="12" pos="9024" key="83" vol="173" pan="0"/>
          <note len="12" pos="9048" key="86" vol="173" pan="0"/>
          <note len="12" pos="9072" key="79" vol="173" pan="0"/>
        </pattern>
      </track>
      <track muted="0" mutedBeforeSolo="0" type="0" solo="0" name="squidfont_orchestral">
        <instrumenttrack pitchrange="2" scale="0" basenote="69" range_import="1" pitch="0" vol="128.3" lastkey="127" enablecc="0" pan="19.685" usemasterpitch="1" firstkey="0" mixch="3" enabled="0" keymap="0">
          <midicontrollers cc29="0" cc74="0" cc121="0" cc76="0" cc70="0" cc81="0" cc48="0" cc92="0" cc116="0" cc68="0" cc93="0" cc103="0" cc2="0" cc80="0" cc120="0" cc69="0" cc104="0" cc9="0" cc54="0" cc114="0" cc22="0" cc118="0" cc100="0" cc108="0" cc47="0" cc110="0" cc65="0" cc3="0" cc38="0" cc34="0" cc95="0" cc56="0" cc63="0" cc12="0" cc84="0" cc82="0" cc64="0" cc60="0" cc43="0" cc20="0" cc44="0" cc14="0" cc85="0" cc17="0" cc30="0" cc102="0" cc50="0" cc99="0" cc35="0" cc28="0" cc107="0" cc53="0" cc78="0" cc18="0" cc19="0" cc72="0" cc119="0" cc111="0" cc5="0" cc112="0" cc126="0" cc4="0" cc33="0" cc94="0" cc8="0" cc83="0" cc0="0" cc36="0" cc42="0" cc113="0" cc88="0" cc49="0" cc51="0" cc55="0" cc77="0" cc39="0" cc106="0" cc7="0" cc15="0" cc1="0" cc27="0" cc75="0" cc96="0" cc59="0" cc105="0" cc123="0" cc66="0" cc41="0" cc25="0" cc125="0" cc62="0" cc40="0" cc109="0" cc98="0" cc117="0" cc101="0" cc122="0" cc86="0" cc31="0" cc23="0" cc79="0" cc73="0" cc124="0" cc46="0" cc24="0" cc57="0" cc11="0" cc32="0" cc71="0" cc87="0" cc10="0" cc61="0" cc90="0" cc115="0" cc37="0" cc89="0" cc13="0" cc67="0" cc26="0" cc21="0" cc58="0" cc91="0" cc45="0" cc52="0" cc16="0" cc6="0" cc127="0" cc97="0"/>
          <instrument name="sf2player">
            <sf2player reverbWidth="0.5" chorusLevel="2" chorusNum="3" reverbLevel="0.9" reverbRoomSize="0.2" reverbDamping="0" chorusDepth="8" patch="24" chorusOn="0" chorusSpeed="0.3" bank="0" reverbOn="0" gain="1" src="usersoundfont:squidfont_orchestral.sf2">
              <key/>
            </sf2player>
          </instrument>
          <eldata ftype="0" fwet="0" fcut="14000" fres="0.5">
            <elvol lamt="0" x100="0" lspd_numerator="4" ctlenvamt="0" lpdel="0" hold="0.5" lshp="0" lspd="0.1" att="0" lspd_syncmode="0" lspd_denominator="4" pdel="0" latt="0" sustain="0.5" amt="0" rel="0.1" userwavefile="" dec="0.5"/>
            <elcut lamt="0" x100="0" lspd_numerator="4" ctlenvamt="0" lpdel="0" hold="0.5" lshp="0" lspd="0.1" att="0" lspd_syncmode="0" lspd_denominator="4" pdel="0" latt="0" sustain="0.5" amt="0" rel="0.1" userwavefile="" dec="0.5"/>
            <elres lamt="0" x100="0" lspd_numerator="4" ctlenvamt="0" lpdel="0" hold="0.5" lshp="0" lspd="0.1" att="0" lspd_syncmode="0" lspd_denominator="4" pdel="0" latt="0" sustain="0.5" amt="0" rel="0.1" userwavefile="" dec="0.5"/>
          </eldata>
          <chordcreator chord="0" chord-enabled="0" chordrange="1"/>
          <arpeggiator arpgate="100" arprange="1" arprepeats="1" arptime_numerator="4" arpmiss="0" arpmode="0" arpskip="0" arptime="200" arpdir="0" arpcycle="0" arp-enabled="0" arp="0" arptime_syncmode="0" arptime_denominator="4"/>
          <midiport fixedoutputvelocity="-1" outputprogram="1" basevelocity="63" fixedoutputnote="-1" fixedinputvelocity="-1" inputchannel="0" inputcontroller="0" outputchannel="1" outputcontroller="0" writable="0" readable="0"/>
          <fxchain numofeffects="0" enabled="0"/>
        </instrumenttrack>
        <pattern muted="0" pos="2112" type="1" steps="12" name="">
          <note len="48" pos="96" key="59" vol="173" pan="0"/>
          <note len="48" pos="144" key="60" vol="173" pan="0"/>
          <note len="240" pos="192" key="64" vol="173" pan="0"/>
          <note len="48" pos="432" key="62" vol="173" pan="0"/>
          <note len="240" pos="480" key="59" vol="173" pan="0"/>
          <note len="48" pos="720" key="55" vol="173" pan="0"/>
          <note len="288" pos="768" key="57" vol="173" pan="0"/>
          <note len="288" pos="1056" key="55" vol="173" pan="0"/>
        </pattern>
        <pattern muted="0" pos="11904" type="1" steps="12" name="">
          <note len="48" pos="0" key="65" vol="173" pan="0"/>
          <note len="288" pos="48" key="72" vol="173" pan="0"/>
          <note len="96" pos="336" key="76" vol="173" pan="0"/>
          <note len="336" pos="432" key="74" vol="173" pan="0"/>
          <note len="48" pos="768" key="71" vol="173" pan="0"/>
          <note len="288" pos="816" key="69" vol="173" pan="0"/>
          <note len="96" pos="1104" key="76" vol="173" pan="0"/>
          <note len="336" pos="1200" key="74" vol="173" pan="0"/>
          <note len="48" pos="1536" key="71" vol="173" pan="0"/>
          <note len="288" pos="1584" key="72" vol="173" pan="0"/>
          <note len="96" pos="1872" key="76" vol="173" pan="0"/>
          <note len="336" pos="1968" key="74" vol="173" pan="0"/>
          <note len="48" pos="2304" key="71" vol="173" pan="0"/>
          <note len="288" pos="2352" key="69" vol="173" pan="0"/>
          <note len="96" pos="2640" key="76" vol="173" pan="0"/>
          <note len="336" pos="2736" key="74" vol="173" pan="0"/>
          <note len="48" pos="3072" key="71" vol="173" pan="0"/>
          <note len="288" pos="3120" key="72" vol="173" pan="0"/>
          <note len="96" pos="3408" key="76" vol="173" pan="0"/>
          <note len="336" pos="3504" key="74" vol="173" pan="0"/>
          <note len="48" pos="3840" key="71" vol="173" pan="0"/>
          <note len="288" pos="3888" key="69" vol="173" pan="0"/>
          <note len="96" pos="4176" key="76" vol="173" pan="0"/>
          <note len="384" pos="4272" key="74" vol="173" pan="0"/>
        </pattern>
      </track>
      <track muted="0" mutedBeforeSolo="0" type="0" solo="0" name="squidfont_orchestral">
        <instrumenttrack pitchrange="2" scale="0" basenote="69" range_import="1" pitch="0" vol="82.3" lastkey="127" enablecc="0" pan="14.9606" usemasterpitch="1" firstkey="0" mixch="3" enabled="0" keymap="0">
          <midicontrollers cc29="0" cc74="0" cc121="0" cc76="0" cc70="0" cc81="0" cc48="0" cc92="0" cc116="0" cc68="0" cc93="0" cc103="0" cc2="0" cc80="0" cc120="0" cc69="0" cc104="0" cc9="0" cc54="0" cc114="0" cc22="0" cc118="0" cc100="0" cc108="0" cc47="0" cc110="0" cc65="0" cc3="0" cc38="0" cc34="0" cc95="0" cc56="0" cc63="0" cc12="0" cc84="0" cc82="0" cc64="0" cc60="0" cc43="0" cc20="0" cc44="0" cc14="0" cc85="0" cc17="0" cc30="0" cc102="0" cc50="0" cc99="0" cc35="0" cc28="0" cc107="0" cc53="0" cc78="0" cc18="0" cc19="0" cc72="0" cc119="0" cc111="0" cc5="0" cc112="0" cc126="0" cc4="0" cc33="0" cc94="0" cc8="0" cc83="0" cc0="0" cc36="0" cc42="0" cc113="0" cc88="0" cc49="0" cc51="0" cc55="0" cc77="0" cc39="0" cc106="0" cc7="0" cc15="0" cc1="0" cc27="0" cc75="0" cc96="0" cc59="0" cc105="0" cc123="0" cc66="0" cc41="0" cc25="0" cc125="0" cc62="0" cc40="0" cc109="0" cc98="0" cc117="0" cc101="0" cc122="0" cc86="0" cc31="0" cc23="0" cc79="0" cc73="0" cc124="0" cc46="0" cc24="0" cc57="0" cc11="0" cc32="0" cc71="0" cc87="0" cc10="0" cc61="0" cc90="0" cc115="0" cc37="0" cc89="0" cc13="0" cc67="0" cc26="0" cc21="0" cc58="0" cc91="0" cc45="0" cc52="0" cc16="0" cc6="0" cc127="0" cc97="0"/>
          <instrument name="sf2player">
            <sf2player reverbWidth="0.5" chorusLevel="2" chorusNum="3" reverbLevel="0.9" reverbRoomSize="0.2" reverbDamping="0" chorusDepth="8" patch="24" chorusOn="0" chorusSpeed="0.3" bank="0" reverbOn="0" gain="1" src="usersoundfont:squidfont_orchestral.sf2">
              <key/>
            </sf2player>
          </instrument>
          <eldata ftype="0" fwet="0" fcut="14000" fres="0.5">
            <elvol lamt="0" x100="0" lspd_numerator="4" ctlenvamt="0" lpdel="0" hold="0.5" lshp="0" lspd="0.1" att="0" lspd_syncmode="0" lspd_denominator="4" pdel="0" latt="0" sustain="0.5" amt="0" rel="0.1" userwavefile="" dec="0.5"/>
            <elcut lamt="0" x100="0" lspd_numerator="4" ctlenvamt="0" lpdel="0" hold="0.5" lshp="0" lspd="0.1" att="0" lspd_syncmode="0" lspd_denominator="4" pdel="0" latt="0" sustain="0.5" amt="0" rel="0.1" userwavefile="" dec="0.5"/>
            <elres lamt="0" x100="0" lspd_numerator="4" ctlenvamt="0" lpdel="0" hold="0.5" lshp="0" lspd="0.1" att="0" lspd_syncmode="0" lspd_denominator="4" pdel="0" latt="0" sustain="0.5" amt="0" rel="0.1" userwavefile="" dec="0.5"/>
          </eldata>
          <chordcreator chord="0" chord-enabled="0" chordrange="1"/>
          <arpeggiator arpgate="100" arprange="1" arprepeats="1" arptime_numerator="4" arpmiss="0" arpmode="0" arpskip="0" arptime="200" arpdir="0" arpcycle="0" arp-enabled="0" arp="0" arptime_syncmode="0" arptime_denominator="4"/>
          <midiport fixedoutputvelocity="-1" outputprogram="1" basevelocity="63" fixedoutputnote="-1" fixedinputvelocity="-1" inputchannel="0" inputcontroller="0" outputchannel="1" outputcontroller="0" writable="0" readable="0"/>
          <fxchain numofeffects="0" enabled="0"/>
        </instrumenttrack>
        <pattern muted="0" pos="2112" type="1" steps="12" name="">
          <note len="48" pos="108" key="59" vol="173" pan="0"/>
          <note len="48" pos="156" key="60" vol="173" pan="0"/>
          <note len="240" pos="204" key="64" vol="173" pan="0"/>
          <note len="48" pos="444" key="62" vol="173" pan="0"/>
          <note len="240" pos="492" key="59" vol="173" pan="0"/>
          <note len="48" pos="732" key="55" vol="173" pan="0"/>
          <note len="288" pos="780" key="57" vol="173" pan="0"/>
          <note len="288" pos="1068" key="55" vol="173" pan="0"/>
        </pattern>
        <pattern muted="0" pos="11904" type="1" steps="12" name="">
          <note len="48" pos="12" key="65" vol="173" pan="0"/>
          <note len="288" pos="60" key="72" vol="173" pan="0"/>
          <note len="96" pos="348" key="76" vol="173" pan="0"/>
          <note len="336" pos="444" key="74" vol="173" pan="0"/>
          <note len="48" pos="780" key="71" vol="173" pan="0"/>
          <note len="288" pos="828" key="69" vol="173" pan="0"/>
          <note len="96" pos="1116" key="76" vol="173" pan="0"/>
          <note len="336" pos="1212" key="74" vol="173" pan="0"/>
          <note len="48" pos="1548" key="71" vol="173" pan="0"/>
          <note len="288" pos="1596" key="72" vol="173" pan="0"/>
          <note len="96" pos="1884" key="76" vol="173" pan="0"/>
          <note len="336" pos="1980" key="74" vol="173" pan="0"/>
          <note len="48" pos="2316" key="71" vol="173" pan="0"/>
          <note len="288" pos="2364" key="69" vol="173" pan="0"/>
          <note len="96" pos="2652" key="76" vol="173" pan="0"/>
          <note len="336" pos="2748" key="74" vol="173" pan="0"/>
          <note len="48" pos="3084" key="71" vol="173" pan="0"/>
          <note len="288" pos="3132" key="72" vol="173" pan="0"/>
          <note len="96" pos="3420" key="76" vol="173" pan="0"/>
          <note len="336" pos="3516" key="74" vol="173" pan="0"/>
          <note len="48" pos="3852" key="71" vol="173" pan="0"/>
          <note len="288" pos="3900" key="69" vol="173" pan="0"/>
          <note len="96" pos="4188" key="76" vol="173" pan="0"/>
          <note len="384" pos="4284" key="74" vol="173" pan="0"/>
        </pattern>
      </track>
      <track muted="0" mutedBeforeSolo="0" type="0" solo="0" name="GeneralUser GS v1">
        <instrumenttrack pitchrange="2" scale="0" basenote="69" range_import="1" pitch="0" vol="58.6" lastkey="127" enablecc="0" pan="-24.4094" usemasterpitch="1" firstkey="0" mixch="3" enabled="0" keymap="0">
          <midicontrollers cc29="0" cc74="0" cc121="0" cc76="0" cc70="0" cc81="0" cc48="0" cc92="0" cc116="0" cc68="0" cc93="0" cc103="0" cc2="0" cc80="0" cc120="0" cc69="0" cc104="0" cc9="0" cc54="0" cc114="0" cc22="0" cc118="0" cc100="0" cc108="0" cc47="0" cc110="0" cc65="0" cc3="0" cc38="0" cc34="0" cc95="0" cc56="0" cc63="0" cc12="0" cc84="0" cc82="0" cc64="0" cc60="0" cc43="0" cc20="0" cc44="0" cc14="0" cc85="0" cc17="0" cc30="0" cc102="0" cc50="0" cc99="0" cc35="0" cc28="0" cc107="0" cc53="0" cc78="0" cc18="0" cc19="0" cc72="0" cc119="0" cc111="0" cc5="0" cc112="0" cc126="0" cc4="0" cc33="0" cc94="0" cc8="0" cc83="0" cc0="0" cc36="0" cc42="0" cc113="0" cc88="0" cc49="0" cc51="0" cc55="0" cc77="0" cc39="0" cc106="0" cc7="0" cc15="0" cc1="0" cc27="0" cc75="0" cc96="0" cc59="0" cc105="0" cc123="0" cc66="0" cc41="0" cc25="0" cc125="0" cc62="0" cc40="0" cc109="0" cc98="0" cc117="0" cc101="0" cc122="0" cc86="0" cc31="0" cc23="0" cc79="0" cc73="0" cc124="0" cc46="0" cc24="0" cc57="0" cc11="0" cc32="0" cc71="0" cc87="0" cc10="0" cc61="0" cc90="0" cc115="0" cc37="0" cc89="0" cc13="0" cc67="0" cc26="0" cc21="0" cc58="0" cc91="0" cc45="0" cc52="0" cc16="0" cc6="0" cc127="0" cc97="0"/>
          <instrument name="sf2player">
            <sf2player reverbWidth="0.5" chorusLevel="2" chorusNum="3" reverbLevel="0.9" reverbRoomSize="0.2" reverbDamping="0" chorusDepth="8" patch="60" chorusOn="0" chorusSpeed="0.3" bank="1" reverbOn="0" gain="1" src="usersoundfont:GeneralUser GS v1.471.sf2">
              <key/>
            </sf2player>
          </instrument>
          <eldata ftype="0" fwet="0" fcut="14000" fres="0.5">
            <elvol lamt="0" x100="0" lspd_numerator="4" ctlenvamt="0" lpdel="0" hold="0.5" lshp="0" lspd="0.1" att="0" lspd_syncmode="0" lspd_denominator="4" pdel="0" latt="0" sustain="0.5" amt="0" rel="0.1" userwavefile="" dec="0.5"/>
            <elcut lamt="0" x100="0" lspd_numerator="4" ctlenvamt="0" lpdel="0" hold="0.5" lshp="0" lspd="0.1" att="0" lspd_syncmode="0" lspd_denominator="4" pdel="0" latt="0" sustain="0.5" amt="0" rel="0.1" userwavefile="" dec="0.5"/>
            <elres lamt="0" x100="0" lspd_numerator="4" ctlenvamt="0" lpdel="0" hold="0.5" lshp="0" lspd="0.1" att="0" lspd_syncmode="0" lspd_denominator="4" pdel="0" latt="0" sustain="0.5" amt="0" rel="0.1" userwavefile="" dec="0.5"/>
          </eldata>
          <chordcreator chord="0" chord-enabled="0" chordrange="1"/>
          <arpeggiator arpgate="100" arprange="1" arprepeats="1" arptime_numerator="4" arpmiss="0" arpmode="0" arpskip="0" arptime="200" arpdir="0" arpcycle="0" arp-enabled="0" arp="0" arptime_syncmode="0" arptime_denominator="4"/>
          <midiport fixedoutputvelocity="-1" outputprogram="1" basevelocity="63" fixedoutputnote="-1" fixedinputvelocity="-1" inputchannel="0" inputcontroller="0" outputchannel="1" outputcontroller="0" writable="0" readable="0"/>
          <fxchain numofeffects="0" enabled="0"/>
        </instrumenttrack>
        <pattern muted="0" pos="3264" type="1" steps="12" name="">
          <note len="36" pos="144" key="60" vol="173" pan="0"/>
          <note len="24" pos="168" key="59" vol="173" pan="0"/>
          <note len="192" pos="192" key="57" vol="173" pan="0"/>
          <note len="24" pos="432" key="60" vol="173" pan="0"/>
          <note len="24" pos="456" key="59" vol="173" pan="0"/>
          <note len="144" pos="480" key="60" vol="173" pan="0"/>
          <note len="144" pos="624" key="59" vol="173" pan="0"/>
          <note len="192" pos="768" key="57" vol="173" pan="0"/>
          <note len="24" pos="1008" key="60" vol="173" pan="0"/>
          <note len="24" pos="1032" key="59" vol="173" pan="0"/>
          <note len="96" pos="1056" key="60" vol="173" pan="0"/>
          <note len="48" pos="1152" key="57" vol="173" pan="0"/>
          <note len="96" pos="1200" key="59" vol="173" pan="0"/>
          <note len="48" pos="1296" key="52" vol="173" pan="0"/>
          <note len="144" pos="1344" key="53" vol="173" pan="0"/>
          <note len="48" pos="1584" key="57" vol="173" pan="0"/>
          <note len="144" pos="1632" key="55" vol="173" pan="0"/>
          <note len="72" pos="1776" key="60" vol="173" pan="0"/>
          <note len="24" pos="1848" key="59" vol="173" pan="0"/>
          <note len="48" pos="1872" key="55" vol="173" pan="0"/>
          <note len="144" pos="1920" key="53" vol="173" pan="0"/>
          <note len="48" pos="2160" key="57" vol="173" pan="0"/>
          <note len="144" pos="2208" key="55" vol="173" pan="0"/>
          <note len="72" pos="2352" key="60" vol="173" pan="0"/>
          <note len="24" pos="2424" key="62" vol="173" pan="0"/>
          <note len="48" pos="2448" key="59" vol="173" pan="0"/>
          <note len="144" pos="2496" key="57" vol="173" pan="0"/>
          <note len="48" pos="2736" key="60" vol="173" pan="0"/>
          <note len="144" pos="2784" key="59" vol="173" pan="0"/>
          <note len="72" pos="2928" key="60" vol="173" pan="0"/>
          <note len="24" pos="3000" key="62" vol="173" pan="0"/>
          <note len="48" pos="3024" key="64" vol="173" pan="0"/>
          <note len="144" pos="3072" key="65" vol="173" pan="0"/>
          <note len="48" pos="3312" key="69" vol="173" pan="0"/>
          <note len="144" pos="3360" key="67" vol="173" pan="0"/>
          <note len="48" pos="3504" key="71" vol="173" pan="0"/>
          <note len="96" pos="3552" key="74" vol="173" pan="0"/>
          <note len="144" pos="3648" key="71" vol="173" pan="0"/>
          <note len="144" pos="3792" key="67" vol="173" pan="0"/>
          <note len="48" pos="3936" key="71" vol="173" pan="0"/>
          <note len="48" pos="3984" key="74" vol="173" pan="0"/>
          <note len="48" pos="4032" key="67" vol="173" pan="0"/>
          <note len="288" pos="4080" key="69" vol="173" pan="0"/>
          <note len="96" pos="4368" key="53" vol="173" pan="0"/>
          <note len="384" pos="4464" key="55" vol="173" pan="0"/>
        </pattern>
        <pattern muted="0" pos="10368" type="1" steps="12" name="">
          <note len="336" pos="96" key="60" vol="113" pan="0"/>
          <note len="336" pos="96" key="57" vol="113" pan="0"/>
          <note len="336" pos="96" key="53" vol="113" pan="0"/>
          <note len="336" pos="480" key="62" vol="113" pan="0"/>
          <note len="336" pos="480" key="59" vol="113" pan="0"/>
          <note len="336" pos="480" key="55" vol="113" pan="0"/>
          <note len="336" pos="864" key="60" vol="113" pan="0"/>
          <note len="336" pos="864" key="57" vol="113" pan="0"/>
          <note len="336" pos="864" key="53" vol="113" pan="0"/>
          <note len="336" pos="1248" key="62" vol="113" pan="0"/>
          <note len="336" pos="1248" key="59" vol="113" pan="0"/>
          <note len="336" pos="1248" key="55" vol="113" pan="0"/>
          <note len="336" pos="1632" key="60" vol="113" pan="0"/>
          <note len="336" pos="1632" key="57" vol="113" pan="0"/>
          <note len="336" pos="1632" key="53" vol="113" pan="0"/>
          <note len="336" pos="2016" key="62" vol="113" pan="0"/>
          <note len="336" pos="2016" key="59" vol="113" pan="0"/>
          <note len="336" pos="2016" key="55" vol="113" pan="0"/>
          <note len="336" pos="2400" key="60" vol="113" pan="0"/>
          <note len="336" pos="2400" key="57" vol="113" pan="0"/>
          <note len="336" pos="2400" key="53" vol="113" pan="0"/>
          <note len="336" pos="2784" key="62" vol="113" pan="0"/>
          <note len="336" pos="2784" key="59" vol="113" pan="0"/>
          <note len="336" pos="2784" key="55" vol="113" pan="0"/>
          <note len="336" pos="3168" key="60" vol="113" pan="0"/>
          <note len="336" pos="3168" key="57" vol="113" pan="0"/>
          <note len="336" pos="3168" key="53" vol="113" pan="0"/>
          <note len="336" pos="3552" key="62" vol="113" pan="0"/>
          <note len="336" pos="3552" key="59" vol="113" pan="0"/>
          <note len="336" pos="3552" key="55" vol="113" pan="0"/>
          <note len="336" pos="3936" key="60" vol="113" pan="0"/>
          <note len="336" pos="3936" key="57" vol="113" pan="0"/>
          <note len="336" pos="3936" key="53" vol="113" pan="0"/>
          <note len="336" pos="4320" key="62" vol="113" pan="0"/>
          <note len="336" pos="4320" key="59" vol="113" pan="0"/>
          <note len="336" pos="4320" key="55" vol="113" pan="0"/>
          <note len="336" pos="4704" key="60" vol="113" pan="0"/>
          <note len="336" pos="4704" key="57" vol="113" pan="0"/>
          <note len="336" pos="4704" key="53" vol="113" pan="0"/>
          <note len="336" pos="5088" key="62" vol="113" pan="0"/>
          <note len="336" pos="5088" key="59" vol="113" pan="0"/>
          <note len="336" pos="5088" key="55" vol="113" pan="0"/>
          <note len="336" pos="5472" key="60" vol="113" pan="0"/>
          <note len="336" pos="5472" key="57" vol="113" pan="0"/>
          <note len="336" pos="5472" key="53" vol="113" pan="0"/>
          <note len="336" pos="5856" key="62" vol="113" pan="0"/>
          <note len="336" pos="5856" key="59" vol="113" pan="0"/>
          <note len="336" pos="5856" key="55" vol="113" pan="0"/>
          <note len="192" pos="6192" key="65" vol="113" pan="0"/>
          <note len="192" pos="6192" key="60" vol="113" pan="0"/>
        </pattern>
      </track>
      <track muted="0" mutedBeforeSolo="0" type="0" solo="0" name="Sonatina_Symphonic_Orchestra">
        <instrumenttrack pitchrange="2" scale="0" basenote="69" range_import="1" pitch="0" vol="57.3" lastkey="127" enablecc="0" pan="-14.9606" usemasterpitch="1" firstkey="0" mixch="3" enabled="0" keymap="0">
          <midicontrollers cc29="0" cc74="0" cc121="0" cc76="0" cc70="0" cc81="0" cc48="0" cc92="0" cc116="0" cc68="0" cc93="0" cc103="0" cc2="0" cc80="0" cc120="0" cc69="0" cc104="0" cc9="0" cc54="0" cc114="0" cc22="0" cc118="0" cc100="0" cc108="0" cc47="0" cc110="0" cc65="0" cc3="0" cc38="0" cc34="0" cc95="0" cc56="0" cc63="0" cc12="0" cc84="0" cc82="0" cc64="0" cc60="0" cc43="0" cc20="0" cc44="0" cc14="0" cc85="0" cc17="0" cc30="0" cc102="0" cc50="0" cc99="0" cc35="0" cc28="0" cc107="0" cc53="0" cc78="0" cc18="0" cc19="0" cc72="0" cc119="0" cc111="0" cc5="0" cc112="0" cc126="0" cc4="0" cc33="0" cc94="0" cc8="0" cc83="0" cc0="0" cc36="0" cc42="0" cc113="0" cc88="0" cc49="0" cc51="0" cc55="0" cc77="0" cc39="0" cc106="0" cc7="0" cc15="0" cc1="0" cc27="0" cc75="0" cc96="0" cc59="0" cc105="0" cc123="0" cc66="0" cc41="0" cc25="0" cc125="0" cc62="0" cc40="0" cc109="0" cc98="0" cc117="0" cc101="0" cc122="0" cc86="0" cc31="0" cc23="0" cc79="0" cc73="0" cc124="0" cc46="0" cc24="0" cc57="0" cc11="0" cc32="0" cc71="0" cc87="0" cc10="0" cc61="0" cc90="0" cc115="0" cc37="0" cc89="0" cc13="0" cc67="0" cc26="0" cc21="0" cc58="0" cc91="0" cc45="0" cc52="0" cc16="0" cc6="0" cc127="0" cc97="0"/>
          <instrument name="sf2player">
            <sf2player reverbWidth="0.5" chorusLevel="2" chorusNum="3" reverbLevel="0.9" reverbRoomSize="0.2" reverbDamping="0" chorusDepth="8" patch="30" chorusOn="0" chorusSpeed="0.3" bank="0" reverbOn="0" gain="1" src="usersoundfont:Sonatina_Symphonic_Orchestra.sf2">
              <key/>
            </sf2player>
          </instrument>
          <eldata ftype="0" fwet="0" fcut="14000" fres="0.5">
            <elvol lamt="0" x100="0" lspd_numerator="4" ctlenvamt="0" lpdel="0" hold="0.5" lshp="0" lspd="0.1" att="0" lspd_syncmode="0" lspd_denominator="4" pdel="0" latt="0" sustain="0.5" amt="0" rel="0.1" userwavefile="" dec="0.5"/>
            <elcut lamt="0" x100="0" lspd_numerator="4" ctlenvamt="0" lpdel="0" hold="0.5" lshp="0" lspd="0.1" att="0" lspd_syncmode="0" lspd_denominator="4" pdel="0" latt="0" sustain="0.5" amt="0" rel="0.1" userwavefile="" dec="0.5"/>
            <elres lamt="0" x100="0" lspd_numerator="4" ctlenvamt="0" lpdel="0" hold="0.5" lshp="0" lspd="0.1" att="0" lspd_syncmode="0" lspd_denominator="4" pdel="0" latt="0" sustain="0.5" amt="0" rel="0.1" userwavefile="" dec="0.5"/>
          </eldata>
          <chordcreator chord="0" chord-enabled="0" chordrange="1"/>
          <arpeggiator arpgate="100" arprange="1" arprepeats="1" arptime_numerator="4" arpmiss="0" arpmode="0" arpskip="0" arptime="200" arpdir="0" arpcycle="0" arp-enabled="0" arp="0" arptime_syncmode="0" arptime_denominator="4"/>
          <midiport fixedoutputvelocity="-1" outputprogram="1" basevelocity="63" fixedoutputnote="-1" fixedinputvelocity="-1" inputchannel="0" inputcontroller="0" outputchannel="1" outputcontroller="0" writable="0" readable="0"/>
          <fxchain numofeffects="0" enabled="0"/>
        </instrumenttrack>
        <pattern muted="0" pos="3264" type="1" steps="12" name="">
          <note len="36" pos="156" key="60" vol="173" pan="0"/>
          <note len="24" pos="180" key="59" vol="173" pan="0"/>
          <note len="192" pos="204" key="57" vol="173" pan="0"/>
          <note len="24" pos="444" key="60" vol="173" pan="0"/>
          <note len="24" pos="468" key="59" vol="173" pan="0"/>
          <note len="144" pos="492" key="60" vol="173" pan="0"/>
          <note len="144" pos="636" key="59" vol="173" pan="0"/>
          <note len="192" pos="780" key="57" vol="173" pan="0"/>
          <note len="24" pos="1020" key="60" vol="173" pan="0"/>
          <note len="24" pos="1044" key="59" vol="173" pan="0"/>
          <note len="96" pos="1068" key="60" vol="173" pan="0"/>
          <note len="48" pos="1164" key="57" vol="173" pan="0"/>
          <note len="96" pos="1212" key="59" vol="173" pan="0"/>
          <note len="48" pos="1308" key="52" vol="173" pan="0"/>
          <note len="144" pos="1356" key="53" vol="173" pan="0"/>
          <note len="48" pos="1596" key="57" vol="173" pan="0"/>
          <note len="144" pos="1644" key="55" vol="173" pan="0"/>
          <note len="72" pos="1788" key="60" vol="173" pan="0"/>
          <note len="24" pos="1860" key="59" vol="173" pan="0"/>
          <note len="48" pos="1884" key="55" vol="173" pan="0"/>
          <note len="144" pos="1932" key="53" vol="173" pan="0"/>
          <note len="48" pos="2172" key="57" vol="173" pan="0"/>
          <note len="144" pos="2220" key="55" vol="173" pan="0"/>
          <note len="72" pos="2364" key="60" vol="173" pan="0"/>
          <note len="24" pos="2436" key="62" vol="173" pan="0"/>
          <note len="48" pos="2460" key="59" vol="173" pan="0"/>
          <note len="144" pos="2508" key="57" vol="173" pan="0"/>
          <note len="48" pos="2748" key="60" vol="173" pan="0"/>
          <note len="144" pos="2796" key="59" vol="173" pan="0"/>
          <note len="72" pos="2940" key="60" vol="173" pan="0"/>
          <note len="24" pos="3012" key="62" vol="173" pan="0"/>
          <note len="48" pos="3036" key="64" vol="173" pan="0"/>
          <note len="144" pos="3084" key="65" vol="173" pan="0"/>
          <note len="48" pos="3324" key="69" vol="173" pan="0"/>
          <note len="144" pos="3372" key="67" vol="173" pan="0"/>
          <note len="48" pos="3516" key="71" vol="173" pan="0"/>
          <note len="96" pos="3564" key="74" vol="173" pan="0"/>
          <note len="144" pos="3660" key="71" vol="173" pan="0"/>
          <note len="144" pos="3804" key="67" vol="173" pan="0"/>
          <note len="48" pos="3948" key="71" vol="173" pan="0"/>
          <note len="48" pos="3996" key="74" vol="173" pan="0"/>
          <note len="48" pos="4044" key="67" vol="173" pan="0"/>
          <note len="288" pos="4092" key="69" vol="173" pan="0"/>
          <note len="96" pos="4380" key="53" vol="173" pan="0"/>
          <note len="384" pos="4476" key="55" vol="173" pan="0"/>
        </pattern>
        <pattern muted="0" pos="10368" type="1" steps="12" name="">
          <note len="336" pos="108" key="60" vol="123" pan="0"/>
          <note len="336" pos="108" key="57" vol="123" pan="0"/>
          <note len="336" pos="108" key="53" vol="123" pan="0"/>
          <note len="336" pos="492" key="62" vol="123" pan="0"/>
          <note len="336" pos="492" key="59" vol="123" pan="0"/>
          <note len="336" pos="492" key="55" vol="123" pan="0"/>
          <note len="336" pos="876" key="60" vol="123" pan="0"/>
          <note len="336" pos="876" key="57" vol="123" pan="0"/>
          <note len="336" pos="876" key="53" vol="123" pan="0"/>
          <note len="336" pos="1260" key="62" vol="123" pan="0"/>
          <note len="336" pos="1260" key="59" vol="123" pan="0"/>
          <note len="336" pos="1260" key="55" vol="123" pan="0"/>
          <note len="336" pos="1644" key="60" vol="123" pan="0"/>
          <note len="336" pos="1644" key="57" vol="123" pan="0"/>
          <note len="336" pos="1644" key="53" vol="123" pan="0"/>
          <note len="336" pos="2028" key="62" vol="123" pan="0"/>
          <note len="336" pos="2028" key="59" vol="123" pan="0"/>
          <note len="336" pos="2028" key="55" vol="123" pan="0"/>
          <note len="336" pos="2412" key="60" vol="123" pan="0"/>
          <note len="336" pos="2412" key="57" vol="123" pan="0"/>
          <note len="336" pos="2412" key="53" vol="123" pan="0"/>
          <note len="336" pos="2796" key="62" vol="123" pan="0"/>
          <note len="336" pos="2796" key="59" vol="123" pan="0"/>
          <note len="336" pos="2796" key="55" vol="123" pan="0"/>
          <note len="336" pos="3180" key="60" vol="123" pan="0"/>
          <note len="336" pos="3180" key="57" vol="123" pan="0"/>
          <note len="336" pos="3180" key="53" vol="123" pan="0"/>
          <note len="336" pos="3564" key="62" vol="123" pan="0"/>
          <note len="336" pos="3564" key="59" vol="123" pan="0"/>
          <note len="336" pos="3564" key="55" vol="123" pan="0"/>
          <note len="336" pos="3948" key="60" vol="123" pan="0"/>
          <note len="336" pos="3948" key="57" vol="123" pan="0"/>
          <note len="336" pos="3948" key="53" vol="123" pan="0"/>
          <note len="336" pos="4332" key="62" vol="123" pan="0"/>
          <note len="336" pos="4332" key="59" vol="123" pan="0"/>
          <note len="336" pos="4332" key="55" vol="123" pan="0"/>
          <note len="336" pos="4716" key="60" vol="123" pan="0"/>
          <note len="336" pos="4716" key="57" vol="123" pan="0"/>
          <note len="336" pos="4716" key="53" vol="123" pan="0"/>
          <note len="336" pos="5100" key="62" vol="123" pan="0"/>
          <note len="336" pos="5100" key="59" vol="123" pan="0"/>
          <note len="336" pos="5100" key="55" vol="123" pan="0"/>
          <note len="336" pos="5484" key="60" vol="123" pan="0"/>
          <note len="336" pos="5484" key="57" vol="123" pan="0"/>
          <note len="336" pos="5484" key="53" vol="123" pan="0"/>
          <note len="336" pos="5868" key="62" vol="123" pan="0"/>
          <note len="336" pos="5868" key="59" vol="123" pan="0"/>
          <note len="336" pos="5868" key="55" vol="123" pan="0"/>
          <note len="192" pos="6204" key="65" vol="123" pan="0"/>
          <note len="192" pos="6204" key="60" vol="123" pan="0"/>
        </pattern>
      </track>
      <track muted="0" mutedBeforeSolo="0" type="0" solo="0" name="squidfont_orchestral">
        <instrumenttrack pitchrange="2" scale="0" basenote="69" range_import="1" pitch="0" vol="40.7" lastkey="127" enablecc="0" pan="100" usemasterpitch="1" firstkey="0" mixch="3" enabled="0" keymap="0">
          <midicontrollers cc29="0" cc74="0" cc121="0" cc76="0" cc70="0" cc81="0" cc48="0" cc92="0" cc116="0" cc68="0" cc93="0" cc103="0" cc2="0" cc80="0" cc120="0" cc69="0" cc104="0" cc9="0" cc54="0" cc114="0" cc22="0" cc118="0" cc100="0" cc108="0" cc47="0" cc110="0" cc65="0" cc3="0" cc38="0" cc34="0" cc95="0" cc56="0" cc63="0" cc12="0" cc84="0" cc82="0" cc64="0" cc60="0" cc43="0" cc20="0" cc44="0" cc14="0" cc85="0" cc17="0" cc30="0" cc102="0" cc50="0" cc99="0" cc35="0" cc28="0" cc107="0" cc53="0" cc78="0" cc18="0" cc19="0" cc72="0" cc119="0" cc111="0" cc5="0" cc112="0" cc126="0" cc4="0" cc33="0" cc94="0" cc8="0" cc83="0" cc0="0" cc36="0" cc42="0" cc113="0" cc88="0" cc49="0" cc51="0" cc55="0" cc77="0" cc39="0" cc106="0" cc7="0" cc15="0" cc1="0" cc27="0" cc75="0" cc96="0" cc59="0" cc105="0" cc123="0" cc66="0" cc41="0" cc25="0" cc125="0" cc62="0" cc40="0" cc109="0" cc98="0" cc117="0" cc101="0" cc122="0" cc86="0" cc31="0" cc23="0" cc79="0" cc73="0" cc124="0" cc46="0" cc24="0" cc57="0" cc11="0" cc32="0" cc71="0" cc87="0" cc10="0" cc61="0" cc90="0" cc115="0" cc37="0" cc89="0" cc13="0" cc67="0" cc26="0" cc21="0" cc58="0" cc91="0" cc45="0" cc52="0" cc16="0" cc6="0" cc127="0" cc97="0"/>
          <instrument name="sf2player">
            <sf2player reverbWidth="0.5" chorusLevel="2" chorusNum="3" reverbLevel="0.9" reverbRoomSize="0.2" reverbDamping="0" chorusDepth="8" patch="46" chorusOn="0" chorusSpeed="0.3" bank="0" reverbOn="0" gain="1" src="usersoundfont:squidfont_orchestral.sf2">
              <key/>
            </sf2player>
          </instrument>
          <eldata ftype="0" fwet="0" fcut="14000" fres="0.5">
            <elvol lamt="0" x100="0" lspd_numerator="4" ctlenvamt="0" lpdel="0" hold="0.5" lshp="0" lspd="0.1" att="0" lspd_syncmode="0" lspd_denominator="4" pdel="0" latt="0" sustain="0.5" amt="0" rel="0.1" userwavefile="" dec="0.5"/>
            <elcut lamt="0" x100="0" lspd_numerator="4" ctlenvamt="0" lpdel="0" hold="0.5" lshp="0" lspd="0.1" att="0" lspd_syncmode="0" lspd_denominator="4" pdel="0" latt="0" sustain="0.5" amt="0" rel="0.1" userwavefile="" dec="0.5"/>
            <elres lamt="0" x100="0" lspd_numerator="4" ctlenvamt="0" lpdel="0" hold="0.5" lshp="0" lspd="0.1" att="0" lspd_syncmode="0" lspd_denominator="4" pdel="0" latt="0" sustain="0.5" amt="0" rel="0.1" userwavefile="" dec="0.5"/>
          </eldata>
          <chordcreator chord="0" chord-enabled="0" chordrange="1"/>
          <arpeggiator arpgate="100" arprange="1" arprepeats="1" arptime_numerator="4" arpmiss="0" arpmode="0" arpskip="0" arptime="200" arpdir="0" arpcycle="0" arp-enabled="0" arp="0" arptime_syncmode="0" arptime_denominator="4"/>
          <midiport fixedoutputvelocity="-1" outputprogram="1" basevelocity="63" fixedoutputnote="-1" fixedinputvelocity="-1" inputchannel="0" inputcontroller="0" outputchannel="1" outputcontroller="0" writable="0" readable="0"/>
          <fxchain numofeffects="0" enabled="0"/>
        </instrumenttrack>
        <pattern muted="0" pos="1152" type="1" steps="12" name="">
          <note len="288" pos="0" key="64" vol="173" pan="0"/>
          <note len="288" pos="0" key="57" vol="173" pan="0"/>
          <note len="288" pos="288" key="60" vol="173" pan="0"/>
          <note len="288" pos="288" key="55" vol="173" pan="0"/>
          <note len="288" pos="576" key="59" vol="173" pan="0"/>
          <note len="288" pos="576" key="55" vol="173" pan="0"/>
          <note len="288" pos="864" key="60" vol="173" pan="0"/>
          <note len="288" pos="864" key="53" vol="173" pan="0"/>
          <note len="288" pos="1152" key="64" vol="173" pan="0"/>
          <note len="288" pos="1152" key="57" vol="173" pan="0"/>
          <note len="288" pos="1440" key="59" vol="173" pan="0"/>
          <note len="288" pos="1440" key="55" vol="173" pan="0"/>
          <note len="288" pos="1728" key="57" vol="173" pan="0"/>
          <note len="288" pos="1728" key="53" vol="173" pan="0"/>
          <note len="288" pos="2016" key="62" vol="173" pan="0"/>
          <note len="288" pos="2016" key="55" vol="173" pan="0"/>
          <note len="288" pos="2304" key="60" vol="173" pan="0"/>
          <note len="288" pos="2304" key="53" vol="173" pan="0"/>
          <note len="288" pos="2592" key="67" vol="173" pan="0"/>
          <note len="288" pos="2592" key="59" vol="173" pan="0"/>
          <note len="288" pos="2880" key="60" vol="173" pan="0"/>
          <note len="288" pos="2880" key="53" vol="173" pan="0"/>
          <note len="288" pos="3168" key="59" vol="173" pan="0"/>
          <note len="288" pos="3168" key="50" vol="173" pan="0"/>
          <note len="288" pos="3456" key="60" vol="173" pan="0"/>
          <note len="288" pos="3456" key="53" vol="173" pan="0"/>
          <note len="288" pos="3744" key="67" vol="173" pan="0"/>
          <note len="288" pos="3744" key="59" vol="173" pan="0"/>
          <note len="288" pos="4032" key="60" vol="173" pan="0"/>
          <note len="288" pos="4032" key="53" vol="173" pan="0"/>
          <note len="288" pos="4320" key="59" vol="173" pan="0"/>
          <note len="288" pos="4320" key="50" vol="173" pan="0"/>
          <note len="288" pos="4608" key="60" vol="173" pan="0"/>
          <note len="288" pos="4608" key="53" vol="173" pan="0"/>
          <note len="288" pos="4896" key="67" vol="173" pan="0"/>
          <note len="288" pos="4896" key="59" vol="173" pan="0"/>
          <note len="288" pos="5184" key="65" vol="173" pan="0"/>
          <note len="288" pos="5184" key="57" vol="173" pan="0"/>
          <note len="720" pos="5472" key="59" vol="173" pan="0"/>
          <note len="720" pos="5472" key="50" vol="173" pan="0"/>
          <note len="384" pos="6192" key="65" vol="173" pan="0"/>
          <note len="384" pos="6192" key="60" vol="173" pan="0"/>
          <note len="384" pos="6576" key="67" vol="173" pan="0"/>
          <note len="384" pos="6576" key="62" vol="173" pan="0"/>
          <note len="384" pos="6960" key="65" vol="173" pan="0"/>
          <note len="384" pos="6960" key="60" vol="173" pan="0"/>
          <note len="384" pos="7344" key="59" vol="173" pan="0"/>
          <note len="384" pos="7344" key="55" vol="173" pan="0"/>
          <note len="384" pos="7728" key="53" vol="173" pan="0"/>
          <note len="384" pos="7728" key="48" vol="173" pan="0"/>
          <note len="384" pos="8112" key="59" vol="173" pan="0"/>
          <note len="384" pos="8112" key="55" vol="173" pan="0"/>
          <note len="384" pos="8496" key="57" vol="173" pan="0"/>
          <note len="384" pos="8496" key="53" vol="173" pan="0"/>
          <note len="384" pos="8880" key="59" vol="173" pan="0"/>
          <note len="384" pos="8880" key="55" vol="173" pan="0"/>
          <note len="384" pos="9264" key="53" vol="173" pan="0"/>
          <note len="384" pos="9264" key="48" vol="173" pan="0"/>
          <note len="384" pos="9648" key="59" vol="173" pan="0"/>
          <note len="384" pos="9648" key="55" vol="173" pan="0"/>
          <note len="384" pos="10032" key="57" vol="173" pan="0"/>
          <note len="384" pos="10032" key="53" vol="173" pan="0"/>
          <note len="384" pos="10416" key="59" vol="173" pan="0"/>
          <note len="384" pos="10416" key="55" vol="173" pan="0"/>
          <note len="384" pos="10800" key="53" vol="173" pan="0"/>
          <note len="384" pos="10800" key="48" vol="173" pan="0"/>
          <note len="384" pos="11184" key="59" vol="173" pan="0"/>
          <note len="384" pos="11184" key="55" vol="173" pan="0"/>
          <note len="384" pos="11568" key="57" vol="173" pan="0"/>
          <note len="384" pos="11568" key="53" vol="173" pan="0"/>
          <note len="384" pos="11952" key="59" vol="173" pan="0"/>
          <note len="384" pos="11952" key="55" vol="173" pan="0"/>
          <note len="384" pos="12336" key="53" vol="173" pan="0"/>
          <note len="384" pos="12336" key="48" vol="173" pan="0"/>
          <note len="384" pos="12720" key="59" vol="173" pan="0"/>
          <note len="384" pos="12720" key="55" vol="173" pan="0"/>
          <note len="384" pos="13104" key="57" vol="173" pan="0"/>
          <note len="384" pos="13104" key="53" vol="173" pan="0"/>
          <note len="384" pos="13488" key="59" vol="173" pan="0"/>
          <note len="384" pos="13488" key="55" vol="173" pan="0"/>
          <note len="384" pos="13872" key="53" vol="173" pan="0"/>
          <note len="384" pos="13872" key="48" vol="173" pan="0"/>
          <note len="384" pos="14256" key="59" vol="173" pan="0"/>
          <note len="384" pos="14256" key="55" vol="173" pan="0"/>
          <note len="384" pos="14640" key="57" vol="173" pan="0"/>
          <note len="384" pos="14640" key="53" vol="173" pan="0"/>
          <note len="384" pos="15024" key="59" vol="173" pan="0"/>
          <note len="384" pos="15024" key="55" vol="173" pan="0"/>
          <note len="192" pos="15408" key="60" vol="173" pan="0"/>
          <note len="192" pos="15408" key="57" vol="173" pan="0"/>
        </pattern>
      </track>
      <track muted="0" mutedBeforeSolo="0" type="0" solo="0" name="squidfont_orchestral">
        <instrumenttrack pitchrange="2" scale="0" basenote="69" range_import="1" pitch="0" vol="46.3" lastkey="127" enablecc="0" pan="-87.4016" usemasterpitch="1" firstkey="0" mixch="3" enabled="0" keymap="0">
          <midicontrollers cc29="0" cc74="0" cc121="0" cc76="0" cc70="0" cc81="0" cc48="0" cc92="0" cc116="0" cc68="0" cc93="0" cc103="0" cc2="0" cc80="0" cc120="0" cc69="0" cc104="0" cc9="0" cc54="0" cc114="0" cc22="0" cc118="0" cc100="0" cc108="0" cc47="0" cc110="0" cc65="0" cc3="0" cc38="0" cc34="0" cc95="0" cc56="0" cc63="0" cc12="0" cc84="0" cc82="0" cc64="0" cc60="0" cc43="0" cc20="0" cc44="0" cc14="0" cc85="0" cc17="0" cc30="0" cc102="0" cc50="0" cc99="0" cc35="0" cc28="0" cc107="0" cc53="0" cc78="0" cc18="0" cc19="0" cc72="0" cc119="0" cc111="0" cc5="0" cc112="0" cc126="0" cc4="0" cc33="0" cc94="0" cc8="0" cc83="0" cc0="0" cc36="0" cc42="0" cc113="0" cc88="0" cc49="0" cc51="0" cc55="0" cc77="0" cc39="0" cc106="0" cc7="0" cc15="0" cc1="0" cc27="0" cc75="0" cc96="0" cc59="0" cc105="0" cc123="0" cc66="0" cc41="0" cc25="0" cc125="0" cc62="0" cc40="0" cc109="0" cc98="0" cc117="0" cc101="0" cc122="0" cc86="0" cc31="0" cc23="0" cc79="0" cc73="0" cc124="0" cc46="0" cc24="0" cc57="0" cc11="0" cc32="0" cc71="0" cc87="0" cc10="0" cc61="0" cc90="0" cc115="0" cc37="0" cc89="0" cc13="0" cc67="0" cc26="0" cc21="0" cc58="0" cc91="0" cc45="0" cc52="0" cc16="0" cc6="0" cc127="0" cc97="0"/>
          <instrument name="sf2player">
            <sf2player reverbWidth="0.5" chorusLevel="2" chorusNum="3" reverbLevel="0.9" reverbRoomSize="0.2" reverbDamping="0" chorusDepth="8" patch="46" chorusOn="0" chorusSpeed="0.3" bank="0" reverbOn="0" gain="1" src="usersoundfont:squidfont_orchestral.sf2">
              <key/>
            </sf2player>
          </instrument>
          <eldata ftype="0" fwet="0" fcut="14000" fres="0.5">
            <elvol lamt="0" x100="0" lspd_numerator="4" ctlenvamt="0" lpdel="0" hold="0.5" lshp="0" lspd="0.1" att="0" lspd_syncmode="0" lspd_denominator="4" pdel="0" latt="0" sustain="0.5" amt="0" rel="0.1" userwavefile="" dec="0.5"/>
            <elcut lamt="0" x100="0" lspd_numerator="4" ctlenvamt="0" lpdel="0" hold="0.5" lshp="0" lspd="0.1" att="0" lspd_syncmode="0" lspd_denominator="4" pdel="0" latt="0" sustain="0.5" amt="0" rel="0.1" userwavefile="" dec="0.5"/>
            <elres lamt="0" x100="0" lspd_numerator="4" ctlenvamt="0" lpdel="0" hold="0.5" lshp="0" lspd="0.1" att="0" lspd_syncmode="0" lspd_denominator="4" pdel="0" latt="0" sustain="0.5" amt="0" rel="0.1" userwavefile="" dec="0.5"/>
          </eldata>
          <chordcreator chord="0" chord-enabled="0" chordrange="1"/>
          <arpeggiator arpgate="100" arprange="1" arprepeats="1" arptime_numerator="4" arpmiss="0" arpmode="0" arpskip="0" arptime="200" arpdir="0" arpcycle="0" arp-enabled="0" arp="0" arptime_syncmode="0" arptime_denominator="4"/>
          <midiport fixedoutputvelocity="-1" outputprogram="1" basevelocity="63" fixedoutputnote="-1" fixedinputvelocity="-1" inputchannel="0" inputcontroller="0" outputchannel="1" outputcontroller="0" writable="0" readable="0"/>
          <fxchain numofeffects="0" enabled="0"/>
        </instrumenttrack>
        <pattern muted="0" pos="1152" type="1" steps="12" name="">
          <note len="288" pos="6" key="64" vol="173" pan="0"/>
          <note len="288" pos="6" key="57" vol="173" pan="0"/>
          <note len="287" pos="294" key="60" vol="173" pan="0"/>
          <note len="287" pos="294" key="55" vol="173" pan="0"/>
          <note len="288" pos="582" key="59" vol="173" pan="0"/>
          <note len="288" pos="582" key="55" vol="173" pan="0"/>
          <note len="288" pos="870" key="60" vol="173" pan="0"/>
          <note len="288" pos="870" key="53" vol="173" pan="0"/>
          <note len="288" pos="1158" key="64" vol="173" pan="0"/>
          <note len="288" pos="1158" key="57" vol="173" pan="0"/>
          <note len="288" pos="1446" key="59" vol="173" pan="0"/>
          <note len="288" pos="1446" key="55" vol="173" pan="0"/>
          <note len="288" pos="1734" key="57" vol="173" pan="0"/>
          <note len="288" pos="1734" key="53" vol="173" pan="0"/>
          <note len="288" pos="2022" key="62" vol="173" pan="0"/>
          <note len="288" pos="2022" key="55" vol="173" pan="0"/>
          <note len="288" pos="2310" key="60" vol="173" pan="0"/>
          <note len="288" pos="2310" key="53" vol="173" pan="0"/>
          <note len="288" pos="2598" key="67" vol="173" pan="0"/>
          <note len="288" pos="2598" key="59" vol="173" pan="0"/>
          <note len="288" pos="2886" key="60" vol="173" pan="0"/>
          <note len="288" pos="2886" key="53" vol="173" pan="0"/>
          <note len="288" pos="3174" key="59" vol="173" pan="0"/>
          <note len="288" pos="3174" key="50" vol="173" pan="0"/>
          <note len="288" pos="3462" key="60" vol="173" pan="0"/>
          <note len="288" pos="3462" key="53" vol="173" pan="0"/>
          <note len="288" pos="3750" key="67" vol="173" pan="0"/>
          <note len="288" pos="3750" key="59" vol="173" pan="0"/>
          <note len="288" pos="4038" key="60" vol="173" pan="0"/>
          <note len="288" pos="4038" key="53" vol="173" pan="0"/>
          <note len="288" pos="4326" key="59" vol="173" pan="0"/>
          <note len="288" pos="4326" key="50" vol="173" pan="0"/>
          <note len="288" pos="4614" key="60" vol="173" pan="0"/>
          <note len="288" pos="4614" key="53" vol="173" pan="0"/>
          <note len="288" pos="4902" key="67" vol="173" pan="0"/>
          <note len="288" pos="4902" key="59" vol="173" pan="0"/>
          <note len="288" pos="5190" key="65" vol="173" pan="0"/>
          <note len="288" pos="5190" key="57" vol="173" pan="0"/>
          <note len="720" pos="5478" key="59" vol="173" pan="0"/>
          <note len="720" pos="5478" key="50" vol="173" pan="0"/>
          <note len="384" pos="6198" key="65" vol="173" pan="0"/>
          <note len="384" pos="6198" key="60" vol="173" pan="0"/>
          <note len="384" pos="6582" key="67" vol="173" pan="0"/>
          <note len="384" pos="6582" key="62" vol="173" pan="0"/>
          <note len="384" pos="6966" key="65" vol="173" pan="0"/>
          <note len="384" pos="6966" key="60" vol="173" pan="0"/>
          <note len="384" pos="7350" key="59" vol="173" pan="0"/>
          <note len="384" pos="7350" key="55" vol="173" pan="0"/>
          <note len="384" pos="7734" key="53" vol="173" pan="0"/>
          <note len="384" pos="7734" key="48" vol="173" pan="0"/>
          <note len="384" pos="8118" key="59" vol="173" pan="0"/>
          <note len="384" pos="8118" key="55" vol="173" pan="0"/>
          <note len="384" pos="8502" key="57" vol="173" pan="0"/>
          <note len="384" pos="8502" key="53" vol="173" pan="0"/>
          <note len="384" pos="8886" key="59" vol="173" pan="0"/>
          <note len="384" pos="8886" key="55" vol="173" pan="0"/>
          <note len="384" pos="9270" key="53" vol="173" pan="0"/>
          <note len="384" pos="9270" key="48" vol="173" pan="0"/>
          <note len="384" pos="9654" key="59" vol="173" pan="0"/>
          <note len="384" pos="9654" key="55" vol="173" pan="0"/>
          <note len="384" pos="10038" key="57" vol="173" pan="0"/>
          <note len="384" pos="10038" key="53" vol="173" pan="0"/>
          <note len="384" pos="10422" key="59" vol="173" pan="0"/>
          <note len="384" pos="10422" key="55" vol="173" pan="0"/>
          <note len="383" pos="10806" key="53" vol="173" pan="0"/>
          <note len="383" pos="10806" key="48" vol="173" pan="0"/>
          <note len="384" pos="11190" key="59" vol="173" pan="0"/>
          <note len="384" pos="11190" key="55" vol="173" pan="0"/>
          <note len="384" pos="11574" key="57" vol="173" pan="0"/>
          <note len="384" pos="11574" key="53" vol="173" pan="0"/>
          <note len="384" pos="11958" key="59" vol="173" pan="0"/>
          <note len="384" pos="11958" key="55" vol="173" pan="0"/>
          <note len="384" pos="12342" key="53" vol="173" pan="0"/>
          <note len="384" pos="12342" key="48" vol="173" pan="0"/>
          <note len="384" pos="12726" key="59" vol="173" pan="0"/>
          <note len="384" pos="12726" key="55" vol="173" pan="0"/>
          <note len="384" pos="13110" key="57" vol="173" pan="0"/>
          <note len="384" pos="13110" key="53" vol="173" pan="0"/>
          <note len="384" pos="13494" key="59" vol="173" pan="0"/>
          <note len="384" pos="13494" key="55" vol="173" pan="0"/>
          <note len="384" pos="13878" key="53" vol="173" pan="0"/>
          <note len="384" pos="13878" key="48" vol="173" pan="0"/>
          <note len="384" pos="14262" key="59" vol="173" pan="0"/>
          <note len="384" pos="14262" key="55" vol="173" pan="0"/>
          <note len="384" pos="14646" key="57" vol="173" pan="0"/>
          <note len="384" pos="14646" key="53" vol="173" pan="0"/>
          <note len="384" pos="15030" key="59" vol="173" pan="0"/>
          <note len="384" pos="15030" key="55" vol="173" pan="0"/>
          <note len="192" pos="15414" key="60" vol="173" pan="0"/>
          <note len="192" pos="15414" key="57" vol="173" pan="0"/>
        </pattern>
      </track>
      <track muted="0" mutedBeforeSolo="0" type="0" solo="0" name="squidfont_orchestral">
        <instrumenttrack pitchrange="2" scale="0" basenote="69" range_import="1" pitch="0" vol="100" lastkey="127" enablecc="0" pan="0" usemasterpitch="1" firstkey="0" mixch="3" enabled="0" keymap="0">
          <midicontrollers cc29="0" cc74="0" cc121="0" cc76="0" cc70="0" cc81="0" cc48="0" cc92="0" cc116="0" cc68="0" cc93="0" cc103="0" cc2="0" cc80="0" cc120="0" cc69="0" cc104="0" cc9="0" cc54="0" cc114="0" cc22="0" cc118="0" cc100="0" cc108="0" cc47="0" cc110="0" cc65="0" cc3="0" cc38="0" cc34="0" cc95="0" cc56="0" cc63="0" cc12="0" cc84="0" cc82="0" cc64="0" cc60="0" cc43="0" cc20="0" cc44="0" cc14="0" cc85="0" cc17="0" cc30="0" cc102="0" cc50="0" cc99="0" cc35="0" cc28="0" cc107="0" cc53="0" cc78="0" cc18="0" cc19="0" cc72="0" cc119="0" cc111="0" cc5="0" cc112="0" cc126="0" cc4="0" cc33="0" cc94="0" cc8="0" cc83="0" cc0="0" cc36="0" cc42="0" cc113="0" cc88="0" cc49="0" cc51="0" cc55="0" cc77="0" cc39="0" cc106="0" cc7="0" cc15="0" cc1="0" cc27="0" cc75="0" cc96="0" cc59="0" cc105="0" cc123="0" cc66="0" cc41="0" cc25="0" cc125="0" cc62="0" cc40="0" cc109="0" cc98="0" cc117="0" cc101="0" cc122="0" cc86="0" cc31="0" cc23="0" cc79="0" cc73="0" cc124="0" cc46="0" cc24="0" cc57="0" cc11="0" cc32="0" cc71="0" cc87="0" cc10="0" cc61="0" cc90="0" cc115="0" cc37="0" cc89="0" cc13="0" cc67="0" cc26="0" cc21="0" cc58="0" cc91="0" cc45="0" cc52="0" cc16="0" cc6="0" cc127="0" cc97="0"/>
          <instrument name="sf2player">
            <sf2player reverbWidth="0.5" chorusLevel="2" chorusNum="3" reverbLevel="0.9" reverbRoomSize="0.2" reverbDamping="0" chorusDepth="8" patch="9" chorusOn="0" chorusSpeed="0.3" bank="0" reverbOn="0" gain="1" src="usersoundfont:squidfont_orchestral.sf2">
              <key/>
            </sf2player>
          </instrument>
          <eldata ftype="0" fwet="0" fcut="14000" fres="0.5">
            <elvol lamt="0" x100="0" lspd_numerator="4" ctlenvamt="0" lpdel="0" hold="0.5" lshp="0" lspd="0.1" att="0" lspd_syncmode="0" lspd_denominator="4" pdel="0" latt="0" sustain="0.5" amt="0" rel="0.1" userwavefile="" dec="0.5"/>
            <elcut lamt="0" x100="0" lspd_numerator="4" ctlenvamt="0" lpdel="0" hold="0.5" lshp="0" lspd="0.1" att="0" lspd_syncmode="0" lspd_denominator="4" pdel="0" latt="0" sustain="0.5" amt="0" rel="0.1" userwavefile="" dec="0.5"/>
            <elres lamt="0" x100="0" lspd_numerator="4" ctlenvamt="0" lpdel="0" hold="0.5" lshp="0" lspd="0.1" att="0" lspd_syncmode="0" lspd_denominator="4" pdel="0" latt="0" sustain="0.5" amt="0" rel="0.1" userwavefile="" dec="0.5"/>
          </eldata>
          <chordcreator chord="0" chord-enabled="0" chordrange="1"/>
          <arpeggiator arpgate="100" arprange="1" arprepeats="1" arptime_numerator="4" arpmiss="0" arpmode="0" arpskip="0" arptime="200" arpdir="0" arpcycle="0" arp-enabled="0" arp="0" arptime_syncmode="0" arptime_denominator="4"/>
          <midiport fixedoutputvelocity="-1" outputprogram="1" basevelocity="63" fixedoutputnote="-1" fixedinputvelocity="-1" inputchannel="0" inputcontroller="0" outputchannel="1" outputcontroller="0" writable="0" readable="0"/>
          <fxchain numofeffects="0" enabled="0"/>
        </instrumenttrack>
        <pattern muted="0" pos="13440" type="1" steps="12" name="">
          <note len="48" pos="48" key="53" vol="173" pan="0"/>
          <note len="48" pos="96" key="57" vol="173" pan="0"/>
          <note len="48" pos="144" key="60" vol="173" pan="0"/>
          <note len="48" pos="192" key="64" vol="173" pan="0"/>
          <note len="48" pos="240" key="65" vol="173" pan="0"/>
          <note len="48" pos="288" key="60" vol="173" pan="0"/>
          <note len="48" pos="336" key="57" vol="173" pan="0"/>
          <note len="48" pos="384" key="53" vol="173" pan="0"/>
          <note len="48" pos="432" key="55" vol="173" pan="0"/>
          <note len="48" pos="480" key="59" vol="173" pan="0"/>
          <note len="48" pos="528" key="62" vol="173" pan="0"/>
          <note len="48" pos="576" key="64" vol="173" pan="0"/>
          <note len="48" pos="624" key="67" vol="173" pan="0"/>
          <note len="48" pos="672" key="62" vol="173" pan="0"/>
          <note len="48" pos="720" key="59" vol="173" pan="0"/>
          <note len="48" pos="768" key="55" vol="173" pan="0"/>
          <note len="48" pos="816" key="53" vol="173" pan="0"/>
          <note len="48" pos="864" key="57" vol="173" pan="0"/>
          <note len="48" pos="912" key="60" vol="173" pan="0"/>
          <note len="48" pos="960" key="64" vol="173" pan="0"/>
          <note len="48" pos="1008" key="65" vol="173" pan="0"/>
          <note len="48" pos="1056" key="60" vol="173" pan="0"/>
          <note len="48" pos="1104" key="57" vol="173" pan="0"/>
          <note len="48" pos="1152" key="53" vol="173" pan="0"/>
          <note len="48" pos="1200" key="55" vol="173" pan="0"/>
          <note len="48" pos="1248" key="59" vol="173" pan="0"/>
          <note len="48" pos="1296" key="62" vol="173" pan="0"/>
          <note len="48" pos="1344" key="64" vol="173" pan="0"/>
          <note len="48" pos="1392" key="67" vol="173" pan="0"/>
          <note len="48" pos="1440" key="62" vol="173" pan="0"/>
          <note len="48" pos="1488" key="59" vol="173" pan="0"/>
          <note len="48" pos="1536" key="55" vol="173" pan="0"/>
          <note len="48" pos="1584" key="53" vol="173" pan="0"/>
          <note len="48" pos="1632" key="57" vol="173" pan="0"/>
          <note len="48" pos="1680" key="60" vol="173" pan="0"/>
          <note len="48" pos="1728" key="64" vol="173" pan="0"/>
          <note len="48" pos="1776" key="65" vol="173" pan="0"/>
          <note len="48" pos="1824" key="60" vol="173" pan="0"/>
          <note len="48" pos="1872" key="57" vol="173" pan="0"/>
          <note len="48" pos="1920" key="53" vol="173" pan="0"/>
          <note len="48" pos="1968" key="55" vol="173" pan="0"/>
          <note len="48" pos="2016" key="59" vol="173" pan="0"/>
          <note len="48" pos="2064" key="62" vol="173" pan="0"/>
          <note len="48" pos="2112" key="64" vol="173" pan="0"/>
          <note len="48" pos="2160" key="67" vol="173" pan="0"/>
          <note len="48" pos="2208" key="62" vol="173" pan="0"/>
          <note len="48" pos="2256" key="59" vol="173" pan="0"/>
          <note len="48" pos="2304" key="55" vol="173" pan="0"/>
          <note len="48" pos="2352" key="53" vol="173" pan="0"/>
          <note len="48" pos="2400" key="57" vol="173" pan="0"/>
          <note len="48" pos="2448" key="60" vol="173" pan="0"/>
          <note len="48" pos="2496" key="64" vol="173" pan="0"/>
          <note len="48" pos="2544" key="65" vol="173" pan="0"/>
          <note len="48" pos="2592" key="60" vol="173" pan="0"/>
          <note len="48" pos="2640" key="57" vol="173" pan="0"/>
          <note len="48" pos="2688" key="53" vol="173" pan="0"/>
          <note len="48" pos="2736" key="55" vol="173" pan="0"/>
          <note len="48" pos="2784" key="59" vol="173" pan="0"/>
          <note len="48" pos="2832" key="62" vol="173" pan="0"/>
          <note len="48" pos="2880" key="64" vol="173" pan="0"/>
          <note len="192" pos="2928" key="67" vol="173" pan="0"/>
          <note len="192" pos="3120" key="65" vol="173" pan="0"/>
        </pattern>
      </track>
      <track muted="0" mutedBeforeSolo="0" type="0" solo="0" name=" ">
        <instrumenttrack pitchrange="2" scale="0" basenote="69" range_import="1" pitch="0" vol="100" lastkey="127" enablecc="0" pan="0" usemasterpitch="1" firstkey="0" mixch="0" enabled="0" keymap="0">
          <midicontrollers cc29="0" cc74="0" cc121="0" cc76="0" cc70="0" cc81="0" cc48="0" cc92="0" cc116="0" cc68="0" cc93="0" cc103="0" cc2="0" cc80="0" cc120="0" cc69="0" cc104="0" cc9="0" cc54="0" cc114="0" cc22="0" cc118="0" cc100="0" cc108="0" cc47="0" cc110="0" cc65="0" cc3="0" cc38="0" cc34="0" cc95="0" cc56="0" cc63="0" cc12="0" cc84="0" cc82="0" cc64="0" cc60="0" cc43="0" cc20="0" cc44="0" cc14="0" cc85="0" cc17="0" cc30="0" cc102="0" cc50="0" cc99="0" cc35="0" cc28="0" cc107="0" cc53="0" cc78="0" cc18="0" cc19="0" cc72="0" cc119="0" cc111="0" cc5="0" cc112="0" cc126="0" cc4="0" cc33="0" cc94="0" cc8="0" cc83="0" cc0="0" cc36="0" cc42="0" cc113="0" cc88="0" cc49="0" cc51="0" cc55="0" cc77="0" cc39="0" cc106="0" cc7="0" cc15="0" cc1="0" cc27="0" cc75="0" cc96="0" cc59="0" cc105="0" cc123="0" cc66="0" cc41="0" cc25="0" cc125="0" cc62="0" cc40="0" cc109="0" cc98="0" cc117="0" cc101="0" cc122="0" cc86="0" cc31="0" cc23="0" cc79="0" cc73="0" cc124="0" cc46="0" cc24="0" cc57="0" cc11="0" cc32="0" cc71="0" cc87="0" cc10="0" cc61="0" cc90="0" cc115="0" cc37="0" cc89="0" cc13="0" cc67="0" cc26="0" cc21="0" cc58="0" cc91="0" cc45="0" cc52="0" cc16="0" cc6="0" cc127="0" cc97="0"/>
          <instrument name="sf2player">
            <sf2player reverbWidth="0.5" chorusLevel="2" chorusNum="3" reverbLevel="0.9" reverbRoomSize="0.2" reverbDamping="0" chorusDepth="8" patch="0" chorusOn="0" chorusSpeed="0.3" bank="0" reverbOn="0" gain="1" src="usersoundfont:gm.sf2">
              <key/>
            </sf2player>
          </instrument>
          <eldata ftype="0" fwet="0" fcut="14000" fres="0.5">
            <elvol lamt="0" x100="0" lspd_numerator="4" ctlenvamt="0" lpdel="0" hold="0.5" lshp="0" lspd="0.1" att="0" lspd_syncmode="0" lspd_denominator="4" pdel="0" latt="0" sustain="0.5" amt="0" rel="0.1" userwavefile="" dec="0.5"/>
            <elcut lamt="0" x100="0" lspd_numerator="4" ctlenvamt="0" lpdel="0" hold="0.5" lshp="0" lspd="0.1" att="0" lspd_syncmode="0" lspd_denominator="4" pdel="0" latt="0" sustain="0.5" amt="0" rel="0.1" userwavefile="" dec="0.5"/>
            <elres lamt="0" x100="0" lspd_numerator="4" ctlenvamt="0" lpdel="0" hold="0.5" lshp="0" lspd="0.1" att="0" lspd_syncmode="0" lspd_denominator="4" pdel="0" latt="0" sustain="0.5" amt="0" rel="0.1" userwavefile="" dec="0.5"/>
          </eldata>
          <chordcreator chord="0" chord-enabled="0" chordrange="1"/>
          <arpeggiator arpgate="100" arprange="1" arprepeats="1" arptime_numerator="4" arpmiss="0" arpmode="0" arpskip="0" arptime="200" arpdir="0" arpcycle="0" arp-enabled="0" arp="0" arptime_syncmode="0" arptime_denominator="4"/>
          <midiport fixedoutputvelocity="-1" outputprogram="1" basevelocity="63" fixedoutputnote="-1" fixedinputvelocity="-1" inputchannel="0" inputcontroller="0" outputchannel="1" outputcontroller="0" writable="0" readable="0"/>
          <fxchain numofeffects="0" enabled="0"/>
        </instrumenttrack>
        <pattern muted="0" pos="0" type="0" steps="12" name=""/>
      </track>
      <track muted="0" mutedBeforeSolo="0" type="0" solo="0" name="squidfont_orchestral">
        <instrumenttrack pitchrange="2" scale="0" basenote="69" range_import="1" pitch="0" vol="148.8" lastkey="127" enablecc="0" pan="0" usemasterpitch="1" firstkey="0" mixch="3" enabled="0" keymap="0">
          <midicontrollers cc29="0" cc74="0" cc121="0" cc76="0" cc70="0" cc81="0" cc48="0" cc92="0" cc116="0" cc68="0" cc93="0" cc103="0" cc2="0" cc80="0" cc120="0" cc69="0" cc104="0" cc9="0" cc54="0" cc114="0" cc22="0" cc118="0" cc100="0" cc108="0" cc47="0" cc110="0" cc65="0" cc3="0" cc38="0" cc34="0" cc95="0" cc56="0" cc63="0" cc12="0" cc84="0" cc82="0" cc64="0" cc60="0" cc43="0" cc20="0" cc44="0" cc14="0" cc85="0" cc17="0" cc30="0" cc102="0" cc50="0" cc99="0" cc35="0" cc28="0" cc107="0" cc53="0" cc78="0" cc18="0" cc19="0" cc72="0" cc119="0" cc111="0" cc5="0" cc112="0" cc126="0" cc4="0" cc33="0" cc94="0" cc8="0" cc83="0" cc0="0" cc36="0" cc42="0" cc113="0" cc88="0" cc49="0" cc51="0" cc55="0" cc77="0" cc39="0" cc106="0" cc7="0" cc15="0" cc1="0" cc27="0" cc75="0" cc96="0" cc59="0" cc105="0" cc123="0" cc66="0" cc41="0" cc25="0" cc125="0" cc62="0" cc40="0" cc109="0" cc98="0" cc117="0" cc101="0" cc122="0" cc86="0" cc31="0" cc23="0" cc79="0" cc73="0" cc124="0" cc46="0" cc24="0" cc57="0" cc11="0" cc32="0" cc71="0" cc87="0" cc10="0" cc61="0" cc90="0" cc115="0" cc37="0" cc89="0" cc13="0" cc67="0" cc26="0" cc21="0" cc58="0" cc91="0" cc45="0" cc52="0" cc16="0" cc6="0" cc127="0" cc97="0"/>
          <instrument name="sf2player">
            <sf2player reverbWidth="0.5" chorusLevel="2" chorusNum="3" reverbLevel="0.9" reverbRoomSize="0.2" reverbDamping="0" chorusDepth="8" patch="17" chorusOn="0" chorusSpeed="0.3" bank="0" reverbOn="0" gain="1" src="usersoundfont:squidfont_orchestral.sf2">
              <key/>
            </sf2player>
          </instrument>
          <eldata ftype="0" fwet="0" fcut="14000" fres="0.5">
            <elvol lamt="0" x100="0" lspd_numerator="4" ctlenvamt="0" lpdel="0" hold="0.5" lshp="0" lspd="0.1" att="0" lspd_syncmode="0" lspd_denominator="4" pdel="0" latt="0" sustain="0.5" amt="0" rel="0.1" userwavefile="" dec="0.5"/>
            <elcut lamt="0" x100="0" lspd_numerator="4" ctlenvamt="0" lpdel="0" hold="0.5" lshp="0" lspd="0.1" att="0" lspd_syncmode="0" lspd_denominator="4" pdel="0" latt="0" sustain="0.5" amt="0" rel="0.1" userwavefile="" dec="0.5"/>
            <elres lamt="0" x100="0" lspd_numerator="4" ctlenvamt="0" lpdel="0" hold="0.5" lshp="0" lspd="0.1" att="0" lspd_syncmode="0" lspd_denominator="4" pdel="0" latt="0" sustain="0.5" amt="0" rel="0.1" userwavefile="" dec="0.5"/>
          </eldata>
          <chordcreator chord="0" chord-enabled="0" chordrange="1"/>
          <arpeggiator arpgate="100" arprange="1" arprepeats="1" arptime_numerator="4" arpmiss="0" arpmode="0" arpskip="0" arptime="200" arpdir="0" arpcycle="0" arp-enabled="0" arp="0" arptime_syncmode="0" arptime_denominator="4"/>
          <midiport fixedoutputvelocity="-1" outputprogram="1" basevelocity="63" fixedoutputnote="-1" fixedinputvelocity="-1" inputchannel="0" inputcontroller="0" outputchannel="1" outputcontroller="0" writable="0" readable="0"/>
          <fxchain numofeffects="0" enabled="0"/>
        </instrumenttrack>
        <pattern muted="0" pos="3456" type="1" steps="12" name="">
          <note len="48" pos="0" key="29" vol="157" pan="0"/>
          <note len="48" pos="48" key="33" vol="157" pan="0"/>
          <note len="48" pos="96" key="40" vol="157" pan="0"/>
          <note len="48" pos="144" key="41" vol="157" pan="0"/>
          <note len="48" pos="192" key="40" vol="157" pan="0"/>
          <note len="48" pos="240" key="36" vol="157" pan="0"/>
          <note len="48" pos="288" key="31" vol="157" pan="0"/>
          <note len="48" pos="336" key="35" vol="157" pan="0"/>
          <note len="48" pos="384" key="38" vol="157" pan="0"/>
          <note len="48" pos="432" key="43" vol="157" pan="0"/>
          <note len="48" pos="480" key="38" vol="157" pan="0"/>
          <note len="48" pos="528" key="35" vol="157" pan="0"/>
          <note len="48" pos="576" key="29" vol="157" pan="0"/>
          <note len="48" pos="624" key="33" vol="157" pan="0"/>
          <note len="48" pos="672" key="40" vol="157" pan="0"/>
          <note len="48" pos="720" key="41" vol="157" pan="0"/>
          <note len="48" pos="768" key="40" vol="157" pan="0"/>
          <note len="48" pos="816" key="36" vol="157" pan="0"/>
          <note len="48" pos="864" key="31" vol="157" pan="0"/>
          <note len="48" pos="912" key="35" vol="157" pan="0"/>
          <note len="48" pos="960" key="38" vol="157" pan="0"/>
          <note len="96" pos="1008" key="43" vol="157" pan="0"/>
          <note len="48" pos="1152" key="29" vol="157" pan="0"/>
          <note len="48" pos="1200" key="33" vol="157" pan="0"/>
          <note len="48" pos="1248" key="36" vol="157" pan="0"/>
          <note len="48" pos="1296" key="41" vol="157" pan="0"/>
          <note len="48" pos="1344" key="36" vol="157" pan="0"/>
          <note len="48" pos="1392" key="33" vol="157" pan="0"/>
          <note len="48" pos="1440" key="31" vol="157" pan="0"/>
          <note len="48" pos="1488" key="35" vol="157" pan="0"/>
          <note len="48" pos="1536" key="38" vol="157" pan="0"/>
          <note len="48" pos="1584" key="43" vol="157" pan="0"/>
          <note len="48" pos="1632" key="38" vol="157" pan="0"/>
          <note len="48" pos="1680" key="35" vol="157" pan="0"/>
          <note len="48" pos="1728" key="29" vol="157" pan="0"/>
          <note len="48" pos="1776" key="33" vol="157" pan="0"/>
          <note len="48" pos="1824" key="36" vol="157" pan="0"/>
          <note len="48" pos="1872" key="41" vol="157" pan="0"/>
          <note len="48" pos="1920" key="36" vol="157" pan="0"/>
          <note len="48" pos="1968" key="33" vol="157" pan="0"/>
          <note len="48" pos="2016" key="31" vol="157" pan="0"/>
          <note len="48" pos="2064" key="35" vol="157" pan="0"/>
          <note len="48" pos="2112" key="38" vol="157" pan="0"/>
          <note len="48" pos="2160" key="43" vol="157" pan="0"/>
          <note len="48" pos="2208" key="38" vol="157" pan="0"/>
          <note len="48" pos="2256" key="35" vol="157" pan="0"/>
          <note len="48" pos="2304" key="29" vol="157" pan="0"/>
          <note len="48" pos="2352" key="33" vol="157" pan="0"/>
          <note len="48" pos="2400" key="36" vol="157" pan="0"/>
          <note len="48" pos="2448" key="41" vol="157" pan="0"/>
          <note len="48" pos="2496" key="36" vol="157" pan="0"/>
          <note len="48" pos="2544" key="33" vol="157" pan="0"/>
          <note len="48" pos="2592" key="31" vol="157" pan="0"/>
          <note len="48" pos="2640" key="35" vol="157" pan="0"/>
          <note len="48" pos="2688" key="38" vol="157" pan="0"/>
          <note len="48" pos="2736" key="43" vol="157" pan="0"/>
          <note len="48" pos="2784" key="38" vol="157" pan="0"/>
          <note len="48" pos="2832" key="35" vol="157" pan="0"/>
          <note len="48" pos="2880" key="29" vol="157" pan="0"/>
          <note len="48" pos="2928" key="33" vol="157" pan="0"/>
          <note len="48" pos="2976" key="36" vol="157" pan="0"/>
          <note len="48" pos="3024" key="41" vol="157" pan="0"/>
          <note len="48" pos="3072" key="36" vol="157" pan="0"/>
          <note len="48" pos="3120" key="33" vol="157" pan="0"/>
          <note len="48" pos="3168" key="31" vol="157" pan="0"/>
          <note len="48" pos="3216" key="35" vol="157" pan="0"/>
          <note len="48" pos="3264" key="38" vol="157" pan="0"/>
          <note len="576" pos="3312" key="43" vol="157" pan="0"/>
          <note len="384" pos="3888" key="29" vol="173" pan="0"/>
          <note len="384" pos="4272" key="31" vol="173" pan="0"/>
          <note len="288" pos="4656" key="33" vol="173" pan="0"/>
          <note len="96" pos="4944" key="36" vol="173" pan="0"/>
          <note len="192" pos="5040" key="35" vol="173" pan="0"/>
          <note len="192" pos="5232" key="31" vol="173" pan="0"/>
          <note len="384" pos="5424" key="29" vol="173" pan="0"/>
          <note len="384" pos="5808" key="31" vol="173" pan="0"/>
          <note len="288" pos="6192" key="33" vol="173" pan="0"/>
          <note len="96" pos="6480" key="36" vol="173" pan="0"/>
          <note len="192" pos="6576" key="35" vol="173" pan="0"/>
          <note len="192" pos="6768" key="31" vol="173" pan="0"/>
          <note len="384" pos="6960" key="29" vol="173" pan="0"/>
          <note len="384" pos="7344" key="31" vol="173" pan="0"/>
          <note len="288" pos="7728" key="33" vol="173" pan="0"/>
          <note len="96" pos="8016" key="36" vol="173" pan="0"/>
          <note len="192" pos="8112" key="35" vol="173" pan="0"/>
          <note len="192" pos="8304" key="31" vol="173" pan="0"/>
          <note len="384" pos="8496" key="29" vol="173" pan="0"/>
          <note len="384" pos="8880" key="31" vol="173" pan="0"/>
          <note len="288" pos="9264" key="33" vol="173" pan="0"/>
          <note len="96" pos="9552" key="36" vol="173" pan="0"/>
          <note len="192" pos="9648" key="35" vol="173" pan="0"/>
          <note len="192" pos="9840" key="31" vol="173" pan="0"/>
          <note len="384" pos="10032" key="29" vol="173" pan="0"/>
          <note len="384" pos="10416" key="31" vol="173" pan="0"/>
          <note len="288" pos="10800" key="33" vol="173" pan="0"/>
          <note len="96" pos="11088" key="36" vol="173" pan="0"/>
          <note len="192" pos="11184" key="35" vol="173" pan="0"/>
          <note len="192" pos="11376" key="31" vol="173" pan="0"/>
          <note len="384" pos="11568" key="29" vol="173" pan="0"/>
          <note len="384" pos="11952" key="31" vol="173" pan="0"/>
          <note len="288" pos="12336" key="33" vol="173" pan="0"/>
          <note len="96" pos="12624" key="36" vol="173" pan="0"/>
          <note len="192" pos="12720" key="35" vol="173" pan="0"/>
          <note len="192" pos="12912" key="31" vol="173" pan="0"/>
          <note len="192" pos="13104" key="29" vol="173" pan="0"/>
        </pattern>
      </track>
      <track muted="0" mutedBeforeSolo="0" type="0" solo="0" name="squidfont_orchestral">
        <instrumenttrack pitchrange="2" scale="0" basenote="57" range_import="1" pitch="0" vol="100" lastkey="127" enablecc="0" pan="0" usemasterpitch="1" firstkey="0" mixch="3" enabled="0" keymap="0">
          <midicontrollers cc29="0" cc74="0" cc121="0" cc76="0" cc70="0" cc81="0" cc48="0" cc92="0" cc116="0" cc68="0" cc93="0" cc103="0" cc2="0" cc80="0" cc120="0" cc69="0" cc104="0" cc9="0" cc54="0" cc114="0" cc22="0" cc118="0" cc100="0" cc108="0" cc47="0" cc110="0" cc65="0" cc3="0" cc38="0" cc34="0" cc95="0" cc56="0" cc63="0" cc12="0" cc84="0" cc82="0" cc64="0" cc60="0" cc43="0" cc20="0" cc44="0" cc14="0" cc85="0" cc17="0" cc30="0" cc102="0" cc50="0" cc99="0" cc35="0" cc28="0" cc107="0" cc53="0" cc78="0" cc18="0" cc19="0" cc72="0" cc119="0" cc111="0" cc5="0" cc112="0" cc126="0" cc4="0" cc33="0" cc94="0" cc8="0" cc83="0" cc0="0" cc36="0" cc42="0" cc113="0" cc88="0" cc49="0" cc51="0" cc55="0" cc77="0" cc39="0" cc106="0" cc7="0" cc15="0" cc1="0" cc27="0" cc75="0" cc96="0" cc59="0" cc105="0" cc123="0" cc66="0" cc41="0" cc25="0" cc125="0" cc62="0" cc40="0" cc109="0" cc98="0" cc117="0" cc101="0" cc122="0" cc86="0" cc31="0" cc23="0" cc79="0" cc73="0" cc124="0" cc46="0" cc24="0" cc57="0" cc11="0" cc32="0" cc71="0" cc87="0" cc10="0" cc61="0" cc90="0" cc115="0" cc37="0" cc89="0" cc13="0" cc67="0" cc26="0" cc21="0" cc58="0" cc91="0" cc45="0" cc52="0" cc16="0" cc6="0" cc127="0" cc97="0"/>
          <instrument name="sf2player">
            <sf2player reverbWidth="0.5" chorusLevel="2" chorusNum="3" reverbLevel="0.9" reverbRoomSize="0.2" reverbDamping="0" chorusDepth="8" patch="16" chorusOn="0" chorusSpeed="0.3" bank="0" reverbOn="0" gain="1" src="usersoundfont:squidfont_orchestral.sf2">
              <key/>
            </sf2player>
          </instrument>
          <eldata ftype="0" fwet="0" fcut="14000" fres="0.5">
            <elvol lamt="0" x100="0" lspd_numerator="4" ctlenvamt="0" lpdel="0" hold="0.5" lshp="0" lspd="0.1" att="0" lspd_syncmode="0" lspd_denominator="4" pdel="0" latt="0" sustain="0.5" amt="0" rel="0.1" userwavefile="" dec="0.5"/>
            <elcut lamt="0" x100="0" lspd_numerator="4" ctlenvamt="0" lpdel="0" hold="0.5" lshp="0" lspd="0.1" att="0" lspd_syncmode="0" lspd_denominator="4" pdel="0" latt="0" sustain="0.5" amt="0" rel="0.1" userwavefile="" dec="0.5"/>
            <elres lamt="0" x100="0" lspd_numerator="4" ctlenvamt="0" lpdel="0" hold="0.5" lshp="0" lspd="0.1" att="0" lspd_syncmode="0" lspd_denominator="4" pdel="0" latt="0" sustain="0.5" amt="0" rel="0.1" userwavefile="" dec="0.5"/>
          </eldata>
          <chordcreator chord="0" chord-enabled="0" chordrange="1"/>
          <arpeggiator arpgate="100" arprange="1" arprepeats="1" arptime_numerator="4" arpmiss="0" arpmode="0" arpskip="0" arptime="200" arpdir="0" arpcycle="0" arp-enabled="0" arp="0" arptime_syncmode="0" arptime_denominator="4"/>
          <midiport fixedoutputvelocity="-1" outputprogram="1" basevelocity="63" fixedoutputnote="-1" fixedinputvelocity="-1" inputchannel="0" inputcontroller="0" outputchannel="1" outputcontroller="0" writable="0" readable="0"/>
          <fxchain numofeffects="0" enabled="0"/>
        </instrumenttrack>
        <pattern muted="0" pos="3456" type="1" steps="12" name="">
          <note len="48" pos="0" key="29" vol="157" pan="0"/>
          <note len="48" pos="48" key="33" vol="157" pan="0"/>
          <note len="48" pos="96" key="40" vol="157" pan="0"/>
          <note len="48" pos="144" key="41" vol="157" pan="0"/>
          <note len="48" pos="192" key="40" vol="157" pan="0"/>
          <note len="48" pos="240" key="36" vol="157" pan="0"/>
          <note len="48" pos="288" key="31" vol="157" pan="0"/>
          <note len="48" pos="336" key="35" vol="157" pan="0"/>
          <note len="48" pos="384" key="38" vol="157" pan="0"/>
          <note len="48" pos="432" key="43" vol="157" pan="0"/>
          <note len="48" pos="480" key="38" vol="157" pan="0"/>
          <note len="48" pos="528" key="35" vol="157" pan="0"/>
          <note len="48" pos="576" key="29" vol="157" pan="0"/>
          <note len="48" pos="624" key="33" vol="157" pan="0"/>
          <note len="48" pos="672" key="40" vol="157" pan="0"/>
          <note len="48" pos="720" key="41" vol="157" pan="0"/>
          <note len="48" pos="768" key="40" vol="157" pan="0"/>
          <note len="48" pos="816" key="36" vol="157" pan="0"/>
          <note len="48" pos="864" key="31" vol="157" pan="0"/>
          <note len="48" pos="912" key="35" vol="157" pan="0"/>
          <note len="48" pos="960" key="38" vol="157" pan="0"/>
          <note len="96" pos="1008" key="43" vol="157" pan="0"/>
          <note len="48" pos="1152" key="29" vol="157" pan="0"/>
          <note len="48" pos="1200" key="33" vol="157" pan="0"/>
          <note len="48" pos="1248" key="36" vol="157" pan="0"/>
          <note len="48" pos="1296" key="41" vol="157" pan="0"/>
          <note len="48" pos="1344" key="36" vol="157" pan="0"/>
          <note len="48" pos="1392" key="33" vol="157" pan="0"/>
          <note len="48" pos="1440" key="31" vol="157" pan="0"/>
          <note len="48" pos="1488" key="35" vol="157" pan="0"/>
          <note len="48" pos="1536" key="38" vol="157" pan="0"/>
          <note len="48" pos="1584" key="43" vol="157" pan="0"/>
          <note len="48" pos="1632" key="38" vol="157" pan="0"/>
          <note len="48" pos="1680" key="35" vol="157" pan="0"/>
          <note len="48" pos="1728" key="29" vol="157" pan="0"/>
          <note len="48" pos="1776" key="33" vol="157" pan="0"/>
          <note len="48" pos="1824" key="36" vol="157" pan="0"/>
          <note len="48" pos="1872" key="41" vol="157" pan="0"/>
          <note len="48" pos="1920" key="36" vol="157" pan="0"/>
          <note len="48" pos="1968" key="33" vol="157" pan="0"/>
          <note len="48" pos="2016" key="31" vol="157" pan="0"/>
          <note len="48" pos="2064" key="35" vol="157" pan="0"/>
          <note len="48" pos="2112" key="38" vol="157" pan="0"/>
          <note len="48" pos="2160" key="43" vol="157" pan="0"/>
          <note len="48" pos="2208" key="38" vol="157" pan="0"/>
          <note len="48" pos="2256" key="35" vol="157" pan="0"/>
          <note len="48" pos="2304" key="29" vol="157" pan="0"/>
          <note len="48" pos="2352" key="33" vol="157" pan="0"/>
          <note len="48" pos="2400" key="36" vol="157" pan="0"/>
          <note len="48" pos="2448" key="41" vol="157" pan="0"/>
          <note len="48" pos="2496" key="36" vol="157" pan="0"/>
          <note len="48" pos="2544" key="33" vol="157" pan="0"/>
          <note len="48" pos="2592" key="31" vol="157" pan="0"/>
          <note len="48" pos="2640" key="35" vol="157" pan="0"/>
          <note len="48" pos="2688" key="38" vol="157" pan="0"/>
          <note len="48" pos="2736" key="43" vol="157" pan="0"/>
          <note len="48" pos="2784" key="38" vol="157" pan="0"/>
          <note len="48" pos="2832" key="35" vol="157" pan="0"/>
          <note len="48" pos="2880" key="29" vol="157" pan="0"/>
          <note len="48" pos="2928" key="33" vol="157" pan="0"/>
          <note len="48" pos="2976" key="36" vol="157" pan="0"/>
          <note len="48" pos="3024" key="41" vol="157" pan="0"/>
          <note len="48" pos="3072" key="36" vol="157" pan="0"/>
          <note len="48" pos="3120" key="33" vol="157" pan="0"/>
          <note len="48" pos="3168" key="31" vol="157" pan="0"/>
          <note len="48" pos="3216" key="35" vol="157" pan="0"/>
          <note len="48" pos="3264" key="38" vol="157" pan="0"/>
          <note len="576" pos="3312" key="43" vol="157" pan="0"/>
          <note len="384" pos="3888" key="29" vol="173" pan="0"/>
          <note len="384" pos="4272" key="31" vol="173" pan="0"/>
          <note len="288" pos="4656" key="33" vol="173" pan="0"/>
          <note len="96" pos="4944" key="36" vol="173" pan="0"/>
          <note len="192" pos="5040" key="35" vol="173" pan="0"/>
          <note len="192" pos="5232" key="31" vol="173" pan="0"/>
          <note len="384" pos="5424" key="29" vol="173" pan="0"/>
          <note len="384" pos="5808" key="31" vol="173" pan="0"/>
          <note len="288" pos="6192" key="33" vol="173" pan="0"/>
          <note len="96" pos="6480" key="36" vol="173" pan="0"/>
          <note len="192" pos="6576" key="35" vol="173" pan="0"/>
          <note len="192" pos="6768" key="31" vol="173" pan="0"/>
          <note len="384" pos="6960" key="29" vol="173" pan="0"/>
          <note len="384" pos="7344" key="31" vol="173" pan="0"/>
          <note len="288" pos="7728" key="33" vol="173" pan="0"/>
          <note len="96" pos="8016" key="36" vol="173" pan="0"/>
          <note len="192" pos="8112" key="35" vol="173" pan="0"/>
          <note len="192" pos="8304" key="31" vol="173" pan="0"/>
          <note len="384" pos="8496" key="29" vol="173" pan="0"/>
          <note len="384" pos="8880" key="31" vol="173" pan="0"/>
          <note len="288" pos="9264" key="33" vol="173" pan="0"/>
          <note len="96" pos="9552" key="36" vol="173" pan="0"/>
          <note len="192" pos="9648" key="35" vol="173" pan="0"/>
          <note len="192" pos="9840" key="31" vol="173" pan="0"/>
          <note len="384" pos="10032" key="29" vol="173" pan="0"/>
          <note len="384" pos="10416" key="31" vol="173" pan="0"/>
          <note len="288" pos="10800" key="33" vol="173" pan="0"/>
          <note len="96" pos="11088" key="36" vol="173" pan="0"/>
          <note len="192" pos="11184" key="35" vol="173" pan="0"/>
          <note len="192" pos="11376" key="31" vol="173" pan="0"/>
          <note len="384" pos="11568" key="29" vol="173" pan="0"/>
          <note len="384" pos="11952" key="31" vol="173" pan="0"/>
          <note len="288" pos="12336" key="33" vol="173" pan="0"/>
          <note len="96" pos="12624" key="36" vol="173" pan="0"/>
          <note len="192" pos="12720" key="35" vol="173" pan="0"/>
          <note len="192" pos="12912" key="31" vol="173" pan="0"/>
          <note len="192" pos="13104" key="29" vol="173" pan="0"/>
        </pattern>
        <pattern muted="0" pos="2304" type="1" steps="12" name="">
          <note len="288" pos="0" key="45" vol="173" pan="0"/>
          <note len="288" pos="288" key="43" vol="173" pan="0"/>
          <note len="288" pos="576" key="41" vol="173" pan="0"/>
          <note len="288" pos="864" key="43" vol="173" pan="0"/>
        </pattern>
      </track>
    </trackcontainer>
    <track muted="0" mutedBeforeSolo="0" type="6" solo="0" name="Automation track">
      <automationtrack/>
      <automationpattern len="192" pos="0" tens="1" prog="0" mute="0" name="Numerator"/>
      <automationpattern len="192" pos="0" tens="1" prog="0" mute="0" name="Denominator"/>
      <automationpattern len="192" pos="0" tens="1" prog="0" mute="0" name="Tempo"/>
      <automationpattern len="192" pos="0" tens="1" prog="0" mute="0" name="Master volume"/>
      <automationpattern len="192" pos="0" tens="1" prog="0" mute="0" name="Master pitch"/>
      <automationpattern len="192" pos="0" tens="1" prog="0" mute="0" name="Tempo">
        <time value="120" outValue="120" pos="0"/>
        <object id="16520"/>
      </automationpattern>
    </track>
    <mixer maximized="0" y="600" visible="1" height="333" x="1" width="1893" minimized="0">
      <mixerchannel muted="0" num="0" volume="0.674" soloed="0" name="Master">
        <fxchain numofeffects="0" enabled="0"/>
      </mixerchannel>
      <mixerchannel muted="0" num="1" volume="1" soloed="0" name="Direct">
        <fxchain numofeffects="0" enabled="0"/>
        <send amount="1" channel="0"/>
      </mixerchannel>
      <mixerchannel muted="0" num="2" volume="1" soloed="0" name="Hall">
        <fxchain numofeffects="1" enabled="1">
          <effect gate="0" on="1" autoquit_numerator="4" autoquit="1" autoquit_syncmode="0" autoquit_denominator="4" wet="1" name="vsteffect">
            <vsteffectcontrols plugin="Effects\Classic Reverb\Classic Reverb.dll" param4="4:Lo Cut:0.3" guivisible="0" param3="3:Hi Damp:0.5" param1="1:Damping:0.3" param2="2:Predelay:0.5" param0="0:Size:1" param6="6:Mix:1" program="17" param7="7:Level:0.5" param5="5:Early Ref.:0.6" numparams="8"/>
            <key>
              <attribute value="Effects\Classic Reverb\Classic Reverb.dll" name="file"/>
            </key>
          </effect>
        </fxchain>
        <send amount="1" channel="0"/>
      </mixerchannel>
      <mixerchannel muted="0" num="3" volume="1" soloed="0" name="squidfont_orchestral">
        <fxchain numofeffects="0" enabled="0"/>
        <send amount="0.6" channel="2"/>
        <send amount="1" channel="1"/>
      </mixerchannel>
      <mixerchannel muted="0" num="4" volume="1" soloed="0" name="Sonatina_Symphonic_Orchestra">
        <fxchain numofeffects="0" enabled="0"/>
        <send amount="1" channel="2"/>
      </mixerchannel>
    </mixer>
    <ControllerRackView maximized="0" y="487" visible="0" height="200" x="550" width="350" minimized="0"/>
    <pianoroll maximized="0" y="85" visible="0" height="600" x="714" width="970" minimized="0"/>
    <automationeditor maximized="0" y="1" visible="0" height="400" x="1" width="860" minimized="0"/>
    <projectnotes maximized="0" y="10" visible="0" height="400" x="700" width="689" minimized="0"><![CDATA[<!DOCTYPE HTML PUBLIC "-//W3C//DTD HTML 4.0//EN" "http://www.w3.org/TR/REC-html40/strict.dtd">
<html><head><meta name="qrichtext" content="1" /><style type="text/css">
p, li { white-space: pre-wrap; }
</style></head><body style=" font-family:'MS Shell Dlg 2'; font-size:8.25pt; font-weight:400; font-style:normal;">
<p style=" margin-top:0px; margin-bottom:0px; margin-left:0px; margin-right:0px; -qt-block-indent:0; text-indent:0px;"><span style=" color:#e0e0e0;">&lt;&lt;&lt;&lt;&lt;&lt;</span></p></body></html>]]></projectnotes>
    <timeline lp0pos="0" lpstate="0" lp1pos="192" stopbehaviour="1"/>
    <controllers/>
    <scales>
      <scale description="empty">
        <interval num="1" den="1"/>
      </scale>
      <scale description="empty">
        <interval num="1" den="1"/>
      </scale>
      <scale description="empty">
        <interval num="1" den="1"/>
      </scale>
      <scale description="empty">
        <interval num="1" den="1"/>
      </scale>
      <scale description="empty">
        <interval num="1" den="1"/>
      </scale>
      <scale description="empty">
        <interval num="1" den="1"/>
      </scale>
      <scale description="empty">
        <interval num="1" den="1"/>
      </scale>
      <scale description="empty">
        <interval num="1" den="1"/>
      </scale>
      <scale description="empty">
        <interval num="1" den="1"/>
      </scale>
      <scale description="empty">
        <interval num="1" den="1"/>
      </scale>
    </scales>
    <keymaps>
      <keymap description="empty" base_freq="440" middle_key="60" first_key="0" last_key="127" base_key="69"/>
      <keymap description="empty" base_freq="440" middle_key="60" first_key="0" last_key="127" base_key="69"/>
      <keymap description="empty" base_freq="440" middle_key="60" first_key="0" last_key="127" base_key="69"/>
      <keymap description="empty" base_freq="440" middle_key="60" first_key="0" last_key="127" base_key="69"/>
      <keymap description="empty" base_freq="440" middle_key="60" first_key="0" last_key="127" base_key="69"/>
      <keymap description="empty" base_freq="440" middle_key="60" first_key="0" last_key="127" base_key="69"/>
      <keymap description="empty" base_freq="440" middle_key="60" first_key="0" last_key="127" base_key="69"/>
      <keymap description="empty" base_freq="440" middle_key="60" first_key="0" last_key="127" base_key="69"/>
      <keymap description="empty" base_freq="440" middle_key="60" first_key="0" last_key="127" base_key="69"/>
      <keymap description="empty" base_freq="440" middle_key="60" first_key="0" last_key="127" base_key="69"/>
    </keymaps>
  </song>
</lmms-project>
