<?xml version="1.0"?>
<!DOCTYPE lmms-project>
<lmms-project creatorversion="1.3.0-alpha.1.714+pr7535.gfe6055ea6" type="song" version="30" creator="LMMS">
  <head masterpitch="0" timesig_numerator="4" timesig_denominator="4" mastervol="100" bpm="123"/>
  <song>
    <trackcontainer width="1367" x="1" type="song" height="513" visible="1" y="1" maximized="0" minimized="0">
      <track muted="1" name="MasonHamlin-A-v7" mutedBeforeSolo="1" type="0" solo="0">
        <instrumenttrack pitchrange="1" enabled="0" scale="0" basenote="69" firstkey="0" range_import="1" vol="100" pitch="0" usemasterpitch="1" keymap="0" pan="0" mixch="0" enablecc="0" lastkey="127">
          <midicontrollers cc67="0" cc88="0" cc93="0" cc105="0" cc4="0" cc66="0" cc46="0" cc14="0" cc85="0" cc89="0" cc103="0" cc90="0" cc96="0" cc99="0" cc70="0" cc121="0" cc108="0" cc37="0" cc125="0" cc36="0" cc94="0" cc114="0" cc79="0" cc116="0" cc23="0" cc109="0" cc52="0" cc104="0" cc49="0" cc112="0" cc120="0" cc98="0" cc54="0" cc31="0" cc78="0" cc65="0" cc29="0" cc86="0" cc56="0" cc122="0" cc24="0" cc80="0" cc15="0" cc117="0" cc25="0" cc39="0" cc68="0" cc63="0" cc44="0" cc27="0" cc61="0" cc64="0" cc91="0" cc97="0" cc6="0" cc20="0" cc32="0" cc127="0" cc48="0" cc118="0" cc69="0" cc126="0" cc58="0" cc71="0" cc30="0" cc53="0" cc40="0" cc113="0" cc33="0" cc102="0" cc42="0" cc110="0" cc62="0" cc9="0" cc26="0" cc5="0" cc1="0" cc77="0" cc10="0" cc43="0" cc115="0" cc13="0" cc38="0" cc16="0" cc84="0" cc95="0" cc8="0" cc107="0" cc41="0" cc60="0" cc3="0" cc45="0" cc12="0" cc87="0" cc22="0" cc35="0" cc11="0" cc18="0" cc0="0" cc28="0" cc76="0" cc21="0" cc92="0" cc83="0" cc100="0" cc50="0" cc72="0" cc74="0" cc7="0" cc51="0" cc17="0" cc106="0" cc119="0" cc19="0" cc81="0" cc34="0" cc55="0" cc111="0" cc75="0" cc59="0" cc57="0" cc123="0" cc124="0" cc47="0" cc2="0" cc73="0" cc82="0" cc101="0"/>
          <instrument name="sf2player">
            <sf2player gain="1" reverbOn="0" reverbWidth="0.5" chorusDepth="8" chorusNum="3" chorusLevel="2" reverbRoomSize="0.2" src="usersoundfont:MasonHamlin-A-v7.sf2" chorusSpeed="0.30000001" reverbDamping="0" patch="0" bank="0" reverbLevel="0.89999998" chorusOn="0">
              <key/>
            </sf2player>
          </instrument>
          <eldata fwet="0" fres="0.5" fcut="14000" ftype="0">
            <elvol x100="0" rel="0.1" lshp="0" dec="0.5" sustain="0.5" lspd="0.1" hold="0.5" pdel="0" ctlenvamt="0" latt="0" lspd_syncmode="0" att="0" amt="0" lspd_numerator="4" lpdel="0" lspd_denominator="4" userwavefile="" lamt="0"/>
            <elcut x100="0" rel="0.1" lshp="0" dec="0.5" sustain="0.5" lspd="0.1" hold="0.5" pdel="0" ctlenvamt="0" latt="0" lspd_syncmode="0" att="0" amt="0" lspd_numerator="4" lpdel="0" lspd_denominator="4" userwavefile="" lamt="0"/>
            <elres x100="0" rel="0.1" lshp="0" dec="0.5" sustain="0.5" lspd="0.1" hold="0.5" pdel="0" ctlenvamt="0" latt="0" lspd_syncmode="0" att="0" amt="0" lspd_numerator="4" lpdel="0" lspd_denominator="4" userwavefile="" lamt="0"/>
          </eldata>
          <chordcreator chordrange="1" chord="0" chord-enabled="0"/>
          <arpeggiator arptime_numerator="4" arprange="1" arp-enabled="0" arpcycle="0" arprepeats="1" arpmiss="0" arpskip="0" arptime="200" arpmode="0" arptime_syncmode="0" arpgate="100" arpdir="0" arp="0" arptime_denominator="4"/>
          <midiport outputprogram="1" readable="1" inputchannel="0" fixedoutputnote="-1" fixedinputvelocity="-1" writable="0" basevelocity="63" outputchannel="1" fixedoutputvelocity="-1" inputcontroller="-1" outputcontroller="-1" inports=""/>
          <fxchain enabled="0" numofeffects="0"/>
        </instrumenttrack>
        <midiclip muted="0" name="" pos="0" type="1" steps="16">
          <note pos="0" key="70" len="24" type="0" vol="100" pan="0"/>
          <note pos="0" key="65" len="6" type="0" vol="100" pan="0"/>
          <note pos="0" key="61" len="6" type="0" vol="100" pan="0"/>
          <note pos="0" key="58" len="6" type="0" vol="100" pan="0"/>
          <note pos="0" key="34" len="96" type="0" vol="100" pan="0"/>
          <note pos="24" key="73" len="24" type="0" vol="100" pan="0"/>
          <note pos="24" key="65" len="6" type="0" vol="100" pan="0"/>
          <note pos="24" key="61" len="6" type="0" vol="100" pan="0"/>
          <note pos="24" key="58" len="6" type="0" vol="100" pan="0"/>
          <note pos="48" key="77" len="12" type="0" vol="100" pan="0"/>
          <note pos="48" key="65" len="6" type="0" vol="100" pan="0"/>
          <note pos="48" key="61" len="6" type="0" vol="100" pan="0"/>
          <note pos="48" key="58" len="6" type="0" vol="100" pan="0"/>
          <note pos="72" key="80" len="48" type="0" vol="100" pan="0"/>
          <note pos="72" key="65" len="6" type="0" vol="100" pan="0"/>
          <note pos="72" key="61" len="6" type="0" vol="100" pan="0"/>
          <note pos="72" key="58" len="6" type="0" vol="100" pan="0"/>
          <note pos="96" key="65" len="6" type="0" vol="100" pan="0"/>
          <note pos="96" key="61" len="6" type="0" vol="100" pan="0"/>
          <note pos="96" key="58" len="6" type="0" vol="100" pan="0"/>
          <note pos="96" key="37" len="96" type="0" vol="100" pan="0"/>
          <note pos="120" key="77" len="24" type="0" vol="100" pan="0"/>
          <note pos="120" key="65" len="6" type="0" vol="100" pan="0"/>
          <note pos="120" key="61" len="6" type="0" vol="100" pan="0"/>
          <note pos="120" key="58" len="6" type="0" vol="100" pan="0"/>
          <note pos="144" key="73" len="12" type="0" vol="100" pan="0"/>
          <note pos="144" key="65" len="6" type="0" vol="100" pan="0"/>
          <note pos="144" key="61" len="6" type="0" vol="100" pan="0"/>
          <note pos="144" key="58" len="6" type="0" vol="100" pan="0"/>
          <note pos="168" key="75" len="48" type="0" vol="100" pan="0"/>
          <note pos="168" key="63" len="6" type="0" vol="100" pan="0"/>
          <note pos="168" key="61" len="6" type="0" vol="100" pan="0"/>
          <note pos="168" key="58" len="6" type="0" vol="100" pan="0"/>
          <note pos="192" key="63" len="6" type="0" vol="100" pan="0"/>
          <note pos="192" key="61" len="6" type="0" vol="100" pan="0"/>
          <note pos="192" key="58" len="6" type="0" vol="100" pan="0"/>
          <note pos="192" key="39" len="96" type="0" vol="100" pan="0"/>
          <note pos="216" key="77" len="24" type="0" vol="100" pan="0"/>
          <note pos="216" key="63" len="6" type="0" vol="100" pan="0"/>
          <note pos="216" key="61" len="6" type="0" vol="100" pan="0"/>
          <note pos="216" key="58" len="6" type="0" vol="100" pan="0"/>
          <note pos="240" key="79" len="12" type="0" vol="100" pan="0"/>
          <note pos="240" key="63" len="6" type="0" vol="100" pan="0"/>
          <note pos="240" key="61" len="6" type="0" vol="100" pan="0"/>
          <note pos="240" key="58" len="6" type="0" vol="100" pan="0"/>
          <note pos="264" key="82" len="48" type="0" vol="100" pan="0"/>
          <note pos="264" key="63" len="6" type="0" vol="100" pan="0"/>
          <note pos="264" key="61" len="6" type="0" vol="100" pan="0"/>
          <note pos="264" key="58" len="6" type="0" vol="100" pan="0"/>
          <note pos="288" key="63" len="6" type="0" vol="100" pan="0"/>
          <note pos="288" key="61" len="6" type="0" vol="100" pan="0"/>
          <note pos="288" key="58" len="6" type="0" vol="100" pan="0"/>
          <note pos="288" key="43" len="96" type="0" vol="100" pan="0"/>
          <note pos="312" key="79" len="24" type="0" vol="100" pan="0"/>
          <note pos="312" key="63" len="6" type="0" vol="100" pan="0"/>
          <note pos="312" key="61" len="6" type="0" vol="100" pan="0"/>
          <note pos="312" key="58" len="6" type="0" vol="100" pan="0"/>
          <note pos="336" key="75" len="48" type="0" vol="100" pan="0"/>
          <note pos="336" key="63" len="6" type="0" vol="100" pan="0"/>
          <note pos="336" key="61" len="6" type="0" vol="100" pan="0"/>
          <note pos="336" key="58" len="6" type="0" vol="100" pan="0"/>
          <note pos="360" key="63" len="6" type="0" vol="100" pan="0"/>
          <note pos="360" key="61" len="6" type="0" vol="100" pan="0"/>
          <note pos="360" key="58" len="6" type="0" vol="100" pan="0"/>
          <note pos="384" key="80" len="24" type="0" vol="100" pan="0"/>
          <note pos="384" key="68" len="6" type="0" vol="100" pan="0"/>
          <note pos="384" key="65" len="6" type="0" vol="100" pan="0"/>
          <note pos="384" key="61" len="6" type="0" vol="100" pan="0"/>
          <note pos="384" key="37" len="96" type="0" vol="100" pan="0"/>
          <note pos="408" key="77" len="24" type="0" vol="100" pan="0"/>
          <note pos="408" key="68" len="6" type="0" vol="100" pan="0"/>
          <note pos="408" key="65" len="6" type="0" vol="100" pan="0"/>
          <note pos="408" key="61" len="6" type="0" vol="100" pan="0"/>
          <note pos="432" key="82" len="12" type="0" vol="100" pan="0"/>
          <note pos="432" key="68" len="6" type="0" vol="100" pan="0"/>
          <note pos="432" key="65" len="6" type="0" vol="100" pan="0"/>
          <note pos="432" key="61" len="6" type="0" vol="100" pan="0"/>
          <note pos="456" key="80" len="48" type="0" vol="100" pan="0"/>
          <note pos="456" key="68" len="6" type="0" vol="100" pan="0"/>
          <note pos="456" key="65" len="6" type="0" vol="100" pan="0"/>
          <note pos="456" key="61" len="6" type="0" vol="100" pan="0"/>
          <note pos="480" key="68" len="6" type="0" vol="100" pan="0"/>
          <note pos="480" key="65" len="6" type="0" vol="100" pan="0"/>
          <note pos="480" key="61" len="6" type="0" vol="100" pan="0"/>
          <note pos="480" key="41" len="96" type="0" vol="100" pan="0"/>
          <note pos="504" key="77" len="24" type="0" vol="100" pan="0"/>
          <note pos="504" key="68" len="6" type="0" vol="100" pan="0"/>
          <note pos="504" key="65" len="6" type="0" vol="100" pan="0"/>
          <note pos="504" key="61" len="6" type="0" vol="100" pan="0"/>
          <note pos="528" key="80" len="12" type="0" vol="100" pan="0"/>
          <note pos="528" key="68" len="6" type="0" vol="100" pan="0"/>
          <note pos="528" key="65" len="6" type="0" vol="100" pan="0"/>
          <note pos="528" key="61" len="6" type="0" vol="100" pan="0"/>
          <note pos="552" key="79" len="48" type="0" vol="100" pan="0"/>
          <note pos="552" key="67" len="6" type="0" vol="100" pan="0"/>
          <note pos="552" key="63" len="6" type="0" vol="100" pan="0"/>
          <note pos="552" key="58" len="6" type="0" vol="100" pan="0"/>
          <note pos="576" key="67" len="6" type="0" vol="100" pan="0"/>
          <note pos="576" key="63" len="6" type="0" vol="100" pan="0"/>
          <note pos="576" key="58" len="6" type="0" vol="100" pan="0"/>
          <note pos="576" key="34" len="96" type="0" vol="100" pan="0"/>
          <note pos="600" key="77" len="24" type="0" vol="100" pan="0"/>
          <note pos="600" key="67" len="6" type="0" vol="100" pan="0"/>
          <note pos="600" key="63" len="6" type="0" vol="100" pan="0"/>
          <note pos="600" key="58" len="6" type="0" vol="100" pan="0"/>
          <note pos="624" key="79" len="24" type="0" vol="100" pan="0"/>
          <note pos="624" key="67" len="6" type="0" vol="100" pan="0"/>
          <note pos="624" key="63" len="6" type="0" vol="100" pan="0"/>
          <note pos="624" key="58" len="6" type="0" vol="100" pan="0"/>
          <note pos="648" key="80" len="12" type="0" vol="100" pan="0"/>
          <note pos="648" key="67" len="6" type="0" vol="100" pan="0"/>
          <note pos="648" key="63" len="6" type="0" vol="100" pan="0"/>
          <note pos="648" key="58" len="6" type="0" vol="100" pan="0"/>
          <note pos="672" key="79" len="24" type="0" vol="100" pan="0"/>
          <note pos="672" key="67" len="6" type="0" vol="100" pan="0"/>
          <note pos="672" key="63" len="6" type="0" vol="100" pan="0"/>
          <note pos="672" key="58" len="6" type="0" vol="100" pan="0"/>
          <note pos="672" key="39" len="96" type="0" vol="100" pan="0"/>
          <note pos="696" key="77" len="24" type="0" vol="100" pan="0"/>
          <note pos="696" key="67" len="6" type="0" vol="100" pan="0"/>
          <note pos="696" key="63" len="6" type="0" vol="100" pan="0"/>
          <note pos="696" key="58" len="6" type="0" vol="100" pan="0"/>
          <note pos="720" key="73" len="24" type="0" vol="100" pan="0"/>
          <note pos="720" key="67" len="6" type="0" vol="100" pan="0"/>
          <note pos="720" key="63" len="6" type="0" vol="100" pan="0"/>
          <note pos="720" key="58" len="6" type="0" vol="100" pan="0"/>
          <note pos="744" key="70" len="24" type="0" vol="100" pan="0"/>
          <note pos="744" key="65" len="6" type="0" vol="100" pan="0"/>
          <note pos="744" key="61" len="6" type="0" vol="100" pan="0"/>
          <note pos="744" key="58" len="6" type="0" vol="100" pan="0"/>
        </midiclip>
      </track>
      <track muted="0" name="FluidR3 GM" mutedBeforeSolo="0" type="0" solo="0">
        <instrumenttrack pitchrange="1" enabled="0" scale="0" basenote="69" firstkey="0" range_import="1" vol="100" pitch="0" usemasterpitch="1" keymap="0" pan="0" mixch="1" enablecc="0" lastkey="127">
          <midicontrollers cc67="0" cc88="0" cc93="0" cc105="0" cc4="0" cc66="0" cc46="0" cc14="0" cc85="0" cc89="0" cc103="0" cc90="0" cc96="0" cc99="0" cc70="0" cc121="0" cc108="0" cc37="0" cc125="0" cc36="0" cc94="0" cc114="0" cc79="0" cc116="0" cc23="0" cc109="0" cc52="0" cc104="0" cc49="0" cc112="0" cc120="0" cc98="0" cc54="0" cc31="0" cc78="0" cc65="0" cc29="0" cc86="0" cc56="0" cc122="0" cc24="0" cc80="0" cc15="0" cc117="0" cc25="0" cc39="0" cc68="0" cc63="0" cc44="0" cc27="0" cc61="0" cc64="0" cc91="0" cc97="0" cc6="0" cc20="0" cc32="0" cc127="0" cc48="0" cc118="0" cc69="0" cc126="0" cc58="0" cc71="0" cc30="0" cc53="0" cc40="0" cc113="0" cc33="0" cc102="0" cc42="0" cc110="0" cc62="0" cc9="0" cc26="0" cc5="0" cc1="0" cc77="0" cc10="0" cc43="0" cc115="0" cc13="0" cc38="0" cc16="0" cc84="0" cc95="0" cc8="0" cc107="0" cc41="0" cc60="0" cc3="0" cc45="0" cc12="0" cc87="0" cc22="0" cc35="0" cc11="0" cc18="0" cc0="0" cc28="0" cc76="0" cc21="0" cc92="0" cc83="0" cc100="0" cc50="0" cc72="0" cc74="0" cc7="0" cc51="0" cc17="0" cc106="0" cc119="0" cc19="0" cc81="0" cc34="0" cc55="0" cc111="0" cc75="0" cc59="0" cc57="0" cc123="0" cc124="0" cc47="0" cc2="0" cc73="0" cc82="0" cc101="0"/>
          <instrument name="sf2player">
            <sf2player gain="0.34" reverbOn="0" reverbWidth="0.5" chorusDepth="8" chorusNum="3" chorusLevel="2" reverbRoomSize="0.2" src="usersoundfont:FluidR3 GM.sf2" chorusSpeed="0.30000001" reverbDamping="0" patch="62" bank="8" reverbLevel="0.89999998" chorusOn="0">
              <key/>
            </sf2player>
          </instrument>
          <eldata fwet="0" fres="0.5" fcut="14000" ftype="0">
            <elvol x100="0" rel="0.1" lshp="0" dec="0.5" sustain="0.5" lspd="0.1" hold="0.5" pdel="0" ctlenvamt="0" latt="0" lspd_syncmode="0" att="0" amt="0" lspd_numerator="4" lpdel="0" lspd_denominator="4" userwavefile="" lamt="0"/>
            <elcut x100="0" rel="0.1" lshp="0" dec="0.5" sustain="0.5" lspd="0.1" hold="0.5" pdel="0" ctlenvamt="0" latt="0" lspd_syncmode="0" att="0" amt="0" lspd_numerator="4" lpdel="0" lspd_denominator="4" userwavefile="" lamt="0"/>
            <elres x100="0" rel="0.1" lshp="0" dec="0.5" sustain="0.5" lspd="0.1" hold="0.5" pdel="0" ctlenvamt="0" latt="0" lspd_syncmode="0" att="0" amt="0" lspd_numerator="4" lpdel="0" lspd_denominator="4" userwavefile="" lamt="0"/>
          </eldata>
          <chordcreator chordrange="1" chord="0" chord-enabled="0"/>
          <arpeggiator arptime_numerator="4" arprange="1" arp-enabled="0" arpcycle="0" arprepeats="1" arpmiss="0" arpskip="0" arptime="200" arpmode="0" arptime_syncmode="0" arpgate="100" arpdir="0" arp="0" arptime_denominator="4"/>
          <midiport outputprogram="1" readable="1" inputchannel="0" fixedoutputnote="-1" fixedinputvelocity="-1" writable="0" basevelocity="127" outputchannel="1" fixedoutputvelocity="-1" inputcontroller="-1" outputcontroller="-1" inports=""/>
          <fxchain enabled="0" numofeffects="0"/>
        </instrumenttrack>
        <midiclip muted="0" name="" pos="768" type="1" steps="16">
          <note pos="0" key="67" len="3" type="0" vol="100" pan="0"/>
          <note pos="0" key="63" len="3" type="0" vol="100" pan="0"/>
          <note pos="0" key="60" len="3" type="0" vol="100" pan="0"/>
          <note pos="24" key="67" len="3" type="0" vol="100" pan="0"/>
          <note pos="24" key="63" len="3" type="0" vol="100" pan="0"/>
          <note pos="24" key="60" len="3" type="0" vol="100" pan="0"/>
          <note pos="48" key="67" len="3" type="0" vol="100" pan="0"/>
          <note pos="48" key="63" len="3" type="0" vol="100" pan="0"/>
          <note pos="48" key="60" len="3" type="0" vol="100" pan="0"/>
          <note pos="72" key="67" len="3" type="0" vol="100" pan="0"/>
          <note pos="72" key="63" len="3" type="0" vol="100" pan="0"/>
          <note pos="72" key="60" len="3" type="0" vol="100" pan="0"/>
          <note pos="96" key="67" len="3" type="0" vol="100" pan="0"/>
          <note pos="96" key="63" len="3" type="0" vol="100" pan="0"/>
          <note pos="96" key="60" len="3" type="0" vol="100" pan="0"/>
          <note pos="120" key="67" len="3" type="0" vol="100" pan="0"/>
          <note pos="120" key="63" len="3" type="0" vol="100" pan="0"/>
          <note pos="120" key="60" len="3" type="0" vol="100" pan="0"/>
          <note pos="144" key="67" len="3" type="0" vol="100" pan="0"/>
          <note pos="144" key="63" len="3" type="0" vol="100" pan="0"/>
          <note pos="144" key="60" len="3" type="0" vol="100" pan="0"/>
          <note pos="168" key="65" len="3" type="0" vol="100" pan="0"/>
          <note pos="168" key="63" len="3" type="0" vol="100" pan="0"/>
          <note pos="168" key="60" len="3" type="0" vol="100" pan="0"/>
          <note pos="192" key="65" len="3" type="0" vol="100" pan="0"/>
          <note pos="192" key="63" len="3" type="0" vol="100" pan="0"/>
          <note pos="192" key="60" len="3" type="0" vol="100" pan="0"/>
          <note pos="216" key="65" len="3" type="0" vol="100" pan="0"/>
          <note pos="216" key="63" len="3" type="0" vol="100" pan="0"/>
          <note pos="216" key="60" len="3" type="0" vol="100" pan="0"/>
          <note pos="240" key="65" len="3" type="0" vol="100" pan="0"/>
          <note pos="240" key="63" len="3" type="0" vol="100" pan="0"/>
          <note pos="240" key="60" len="3" type="0" vol="100" pan="0"/>
          <note pos="264" key="65" len="3" type="0" vol="100" pan="0"/>
          <note pos="264" key="63" len="3" type="0" vol="100" pan="0"/>
          <note pos="264" key="60" len="3" type="0" vol="100" pan="0"/>
          <note pos="288" key="65" len="3" type="0" vol="100" pan="0"/>
          <note pos="288" key="63" len="3" type="0" vol="100" pan="0"/>
          <note pos="288" key="60" len="3" type="0" vol="100" pan="0"/>
          <note pos="312" key="65" len="3" type="0" vol="100" pan="0"/>
          <note pos="312" key="63" len="3" type="0" vol="100" pan="0"/>
          <note pos="312" key="60" len="3" type="0" vol="100" pan="0"/>
          <note pos="336" key="63" len="3" type="0" vol="100" pan="0"/>
          <note pos="336" key="60" len="3" type="0" vol="100" pan="0"/>
          <note pos="336" key="55" len="3" type="0" vol="100" pan="0"/>
          <note pos="360" key="67" len="3" type="0" vol="100" pan="0"/>
          <note pos="360" key="63" len="3" type="0" vol="100" pan="0"/>
          <note pos="360" key="60" len="3" type="0" vol="100" pan="0"/>
          <note pos="384" key="70" len="3" type="0" vol="100" pan="0"/>
          <note pos="384" key="67" len="3" type="0" vol="100" pan="0"/>
          <note pos="384" key="63" len="3" type="0" vol="100" pan="0"/>
          <note pos="408" key="70" len="3" type="0" vol="100" pan="0"/>
          <note pos="408" key="67" len="3" type="0" vol="100" pan="0"/>
          <note pos="408" key="63" len="3" type="0" vol="100" pan="0"/>
          <note pos="432" key="70" len="3" type="0" vol="100" pan="0"/>
          <note pos="432" key="67" len="3" type="0" vol="100" pan="0"/>
          <note pos="432" key="63" len="3" type="0" vol="100" pan="0"/>
          <note pos="456" key="70" len="3" type="0" vol="100" pan="0"/>
          <note pos="456" key="67" len="3" type="0" vol="100" pan="0"/>
          <note pos="456" key="63" len="3" type="0" vol="100" pan="0"/>
          <note pos="480" key="70" len="3" type="0" vol="100" pan="0"/>
          <note pos="480" key="67" len="3" type="0" vol="100" pan="0"/>
          <note pos="480" key="63" len="3" type="0" vol="100" pan="0"/>
          <note pos="504" key="70" len="3" type="0" vol="100" pan="0"/>
          <note pos="504" key="67" len="3" type="0" vol="100" pan="0"/>
          <note pos="504" key="63" len="3" type="0" vol="100" pan="0"/>
          <note pos="528" key="70" len="3" type="0" vol="100" pan="0"/>
          <note pos="528" key="67" len="3" type="0" vol="100" pan="0"/>
          <note pos="528" key="63" len="3" type="0" vol="100" pan="0"/>
          <note pos="552" key="69" len="3" type="0" vol="100" pan="0"/>
          <note pos="552" key="65" len="3" type="0" vol="100" pan="0"/>
          <note pos="552" key="60" len="3" type="0" vol="100" pan="0"/>
          <note pos="576" key="69" len="3" type="0" vol="100" pan="0"/>
          <note pos="576" key="65" len="3" type="0" vol="100" pan="0"/>
          <note pos="576" key="60" len="3" type="0" vol="100" pan="0"/>
          <note pos="600" key="69" len="3" type="0" vol="100" pan="0"/>
          <note pos="600" key="65" len="3" type="0" vol="100" pan="0"/>
          <note pos="600" key="60" len="3" type="0" vol="100" pan="0"/>
          <note pos="624" key="69" len="3" type="0" vol="100" pan="0"/>
          <note pos="624" key="65" len="3" type="0" vol="100" pan="0"/>
          <note pos="624" key="60" len="3" type="0" vol="100" pan="0"/>
          <note pos="648" key="69" len="3" type="0" vol="100" pan="0"/>
          <note pos="648" key="65" len="3" type="0" vol="100" pan="0"/>
          <note pos="648" key="60" len="3" type="0" vol="100" pan="0"/>
          <note pos="672" key="69" len="3" type="0" vol="100" pan="0"/>
          <note pos="672" key="65" len="3" type="0" vol="100" pan="0"/>
          <note pos="672" key="60" len="3" type="0" vol="100" pan="0"/>
          <note pos="696" key="69" len="3" type="0" vol="100" pan="0"/>
          <note pos="696" key="65" len="3" type="0" vol="100" pan="0"/>
          <note pos="696" key="60" len="3" type="0" vol="100" pan="0"/>
          <note pos="720" key="69" len="3" type="0" vol="100" pan="0"/>
          <note pos="720" key="63" len="3" type="0" vol="100" pan="0"/>
          <note pos="720" key="60" len="3" type="0" vol="100" pan="0"/>
          <note pos="744" key="67" len="3" type="0" vol="100" pan="0"/>
          <note pos="744" key="63" len="3" type="0" vol="100" pan="0"/>
          <note pos="744" key="60" len="3" type="0" vol="100" pan="0"/>
        </midiclip>
        <midiclip muted="0" name="" pos="384" type="1" steps="16">
          <note pos="0" key="70" len="3" type="0" vol="100" pan="0"/>
          <note pos="0" key="65" len="3" type="0" vol="100" pan="0"/>
          <note pos="0" key="60" len="3" type="0" vol="100" pan="0"/>
          <note pos="24" key="70" len="3" type="0" vol="100" pan="0"/>
          <note pos="24" key="65" len="3" type="0" vol="100" pan="0"/>
          <note pos="24" key="60" len="3" type="0" vol="100" pan="0"/>
          <note pos="48" key="70" len="3" type="0" vol="100" pan="0"/>
          <note pos="48" key="65" len="3" type="0" vol="100" pan="0"/>
          <note pos="48" key="60" len="3" type="0" vol="100" pan="0"/>
          <note pos="72" key="70" len="48" type="0" vol="100" pan="0"/>
          <note pos="72" key="65" len="48" type="0" vol="100" pan="0"/>
          <note pos="72" key="60" len="48" type="0" vol="100" pan="0"/>
          <note pos="120" key="67" len="3" type="0" vol="100" pan="0"/>
          <note pos="120" key="63" len="3" type="0" vol="100" pan="0"/>
          <note pos="120" key="58" len="3" type="0" vol="100" pan="0"/>
          <note pos="144" key="69" len="3" type="0" vol="100" pan="0"/>
          <note pos="144" key="65" len="3" type="0" vol="100" pan="0"/>
          <note pos="144" key="60" len="3" type="0" vol="100" pan="0"/>
          <note pos="168" key="70" len="3" type="0" vol="100" pan="0"/>
          <note pos="168" key="65" len="3" type="0" vol="100" pan="0"/>
          <note pos="168" key="60" len="3" type="0" vol="100" pan="0"/>
          <note pos="192" key="72" len="3" type="0" vol="100" pan="0"/>
          <note pos="192" key="69" len="3" type="0" vol="100" pan="0"/>
          <note pos="192" key="65" len="3" type="0" vol="100" pan="0"/>
          <note pos="216" key="72" len="3" type="0" vol="100" pan="0"/>
          <note pos="216" key="69" len="3" type="0" vol="100" pan="0"/>
          <note pos="216" key="65" len="3" type="0" vol="100" pan="0"/>
          <note pos="240" key="72" len="3" type="0" vol="100" pan="0"/>
          <note pos="240" key="69" len="3" type="0" vol="100" pan="0"/>
          <note pos="240" key="65" len="3" type="0" vol="100" pan="0"/>
          <note pos="264" key="72" len="60" type="0" vol="100" pan="0"/>
          <note pos="264" key="69" len="60" type="0" vol="100" pan="0"/>
          <note pos="264" key="65" len="60" type="0" vol="100" pan="0"/>
          <note pos="336" key="70" len="42" type="0" vol="100" pan="0"/>
          <note pos="336" key="67" len="42" type="0" vol="100" pan="0"/>
          <note pos="336" key="63" len="42" type="0" vol="100" pan="0"/>
        </midiclip>
        <midiclip muted="0" name="" pos="1536" type="1" steps="16">
          <note pos="0" key="67" len="3" type="0" vol="100" pan="0"/>
          <note pos="0" key="63" len="3" type="0" vol="100" pan="0"/>
          <note pos="0" key="60" len="3" type="0" vol="100" pan="0"/>
          <note pos="24" key="67" len="3" type="0" vol="100" pan="0"/>
          <note pos="24" key="63" len="3" type="0" vol="100" pan="0"/>
          <note pos="24" key="60" len="3" type="0" vol="100" pan="0"/>
          <note pos="48" key="67" len="3" type="0" vol="100" pan="0"/>
          <note pos="48" key="63" len="3" type="0" vol="100" pan="0"/>
          <note pos="48" key="60" len="3" type="0" vol="100" pan="0"/>
          <note pos="72" key="67" len="3" type="0" vol="100" pan="0"/>
          <note pos="72" key="63" len="3" type="0" vol="100" pan="0"/>
          <note pos="72" key="60" len="3" type="0" vol="100" pan="0"/>
          <note pos="96" key="67" len="3" type="0" vol="100" pan="0"/>
          <note pos="96" key="63" len="3" type="0" vol="100" pan="0"/>
          <note pos="96" key="60" len="3" type="0" vol="100" pan="0"/>
          <note pos="120" key="67" len="3" type="0" vol="100" pan="0"/>
          <note pos="120" key="63" len="3" type="0" vol="100" pan="0"/>
          <note pos="120" key="60" len="3" type="0" vol="100" pan="0"/>
          <note pos="144" key="67" len="3" type="0" vol="100" pan="0"/>
          <note pos="144" key="63" len="3" type="0" vol="100" pan="0"/>
          <note pos="144" key="60" len="3" type="0" vol="100" pan="0"/>
          <note pos="168" key="65" len="3" type="0" vol="100" pan="0"/>
          <note pos="168" key="63" len="3" type="0" vol="100" pan="0"/>
          <note pos="168" key="60" len="3" type="0" vol="100" pan="0"/>
          <note pos="192" key="65" len="3" type="0" vol="100" pan="0"/>
          <note pos="192" key="63" len="3" type="0" vol="100" pan="0"/>
          <note pos="192" key="60" len="3" type="0" vol="100" pan="0"/>
          <note pos="216" key="65" len="3" type="0" vol="100" pan="0"/>
          <note pos="216" key="63" len="3" type="0" vol="100" pan="0"/>
          <note pos="216" key="60" len="3" type="0" vol="100" pan="0"/>
          <note pos="240" key="65" len="3" type="0" vol="100" pan="0"/>
          <note pos="240" key="63" len="3" type="0" vol="100" pan="0"/>
          <note pos="240" key="60" len="3" type="0" vol="100" pan="0"/>
          <note pos="264" key="65" len="3" type="0" vol="100" pan="0"/>
          <note pos="264" key="63" len="3" type="0" vol="100" pan="0"/>
          <note pos="264" key="60" len="3" type="0" vol="100" pan="0"/>
          <note pos="288" key="65" len="3" type="0" vol="100" pan="0"/>
          <note pos="288" key="63" len="3" type="0" vol="100" pan="0"/>
          <note pos="288" key="60" len="3" type="0" vol="100" pan="0"/>
          <note pos="312" key="65" len="3" type="0" vol="100" pan="0"/>
          <note pos="312" key="63" len="3" type="0" vol="100" pan="0"/>
          <note pos="312" key="60" len="3" type="0" vol="100" pan="0"/>
          <note pos="336" key="63" len="3" type="0" vol="100" pan="0"/>
          <note pos="336" key="60" len="3" type="0" vol="100" pan="0"/>
          <note pos="336" key="55" len="3" type="0" vol="100" pan="0"/>
          <note pos="360" key="67" len="3" type="0" vol="100" pan="0"/>
          <note pos="360" key="63" len="3" type="0" vol="100" pan="0"/>
          <note pos="360" key="60" len="3" type="0" vol="100" pan="0"/>
          <note pos="384" key="70" len="3" type="0" vol="100" pan="0"/>
          <note pos="384" key="67" len="3" type="0" vol="100" pan="0"/>
          <note pos="384" key="63" len="3" type="0" vol="100" pan="0"/>
          <note pos="408" key="70" len="3" type="0" vol="100" pan="0"/>
          <note pos="408" key="67" len="3" type="0" vol="100" pan="0"/>
          <note pos="408" key="63" len="3" type="0" vol="100" pan="0"/>
          <note pos="432" key="70" len="3" type="0" vol="100" pan="0"/>
          <note pos="432" key="67" len="3" type="0" vol="100" pan="0"/>
          <note pos="432" key="63" len="3" type="0" vol="100" pan="0"/>
          <note pos="456" key="70" len="3" type="0" vol="100" pan="0"/>
          <note pos="456" key="67" len="3" type="0" vol="100" pan="0"/>
          <note pos="456" key="63" len="3" type="0" vol="100" pan="0"/>
          <note pos="480" key="70" len="3" type="0" vol="100" pan="0"/>
          <note pos="480" key="67" len="3" type="0" vol="100" pan="0"/>
          <note pos="480" key="63" len="3" type="0" vol="100" pan="0"/>
          <note pos="504" key="70" len="3" type="0" vol="100" pan="0"/>
          <note pos="504" key="67" len="3" type="0" vol="100" pan="0"/>
          <note pos="504" key="63" len="3" type="0" vol="100" pan="0"/>
          <note pos="528" key="70" len="3" type="0" vol="100" pan="0"/>
          <note pos="528" key="67" len="3" type="0" vol="100" pan="0"/>
          <note pos="528" key="63" len="3" type="0" vol="100" pan="0"/>
          <note pos="552" key="69" len="3" type="0" vol="100" pan="0"/>
          <note pos="552" key="65" len="3" type="0" vol="100" pan="0"/>
          <note pos="552" key="60" len="3" type="0" vol="100" pan="0"/>
          <note pos="576" key="69" len="3" type="0" vol="100" pan="0"/>
          <note pos="576" key="65" len="3" type="0" vol="100" pan="0"/>
          <note pos="576" key="60" len="3" type="0" vol="100" pan="0"/>
          <note pos="600" key="69" len="3" type="0" vol="100" pan="0"/>
          <note pos="600" key="65" len="3" type="0" vol="100" pan="0"/>
          <note pos="600" key="60" len="3" type="0" vol="100" pan="0"/>
          <note pos="624" key="69" len="3" type="0" vol="100" pan="0"/>
          <note pos="624" key="65" len="3" type="0" vol="100" pan="0"/>
          <note pos="624" key="60" len="3" type="0" vol="100" pan="0"/>
          <note pos="648" key="69" len="3" type="0" vol="100" pan="0"/>
          <note pos="648" key="65" len="3" type="0" vol="100" pan="0"/>
          <note pos="648" key="60" len="3" type="0" vol="100" pan="0"/>
          <note pos="672" key="69" len="3" type="0" vol="100" pan="0"/>
          <note pos="672" key="65" len="3" type="0" vol="100" pan="0"/>
          <note pos="672" key="60" len="3" type="0" vol="100" pan="0"/>
          <note pos="696" key="69" len="3" type="0" vol="100" pan="0"/>
          <note pos="696" key="65" len="3" type="0" vol="100" pan="0"/>
          <note pos="696" key="60" len="3" type="0" vol="100" pan="0"/>
          <note pos="720" key="69" len="3" type="0" vol="100" pan="0"/>
          <note pos="720" key="63" len="3" type="0" vol="100" pan="0"/>
          <note pos="720" key="60" len="3" type="0" vol="100" pan="0"/>
          <note pos="744" key="67" len="3" type="0" vol="100" pan="0"/>
          <note pos="744" key="63" len="3" type="0" vol="100" pan="0"/>
          <note pos="744" key="60" len="3" type="0" vol="100" pan="0"/>
        </midiclip>
        <midiclip muted="0" name="" pos="2304" type="1" steps="16">
          <note pos="0" key="67" len="3" type="0" vol="100" pan="0"/>
          <note pos="0" key="63" len="3" type="0" vol="100" pan="0"/>
          <note pos="0" key="60" len="3" type="0" vol="100" pan="0"/>
          <note pos="24" key="67" len="3" type="0" vol="100" pan="0"/>
          <note pos="24" key="63" len="3" type="0" vol="100" pan="0"/>
          <note pos="24" key="60" len="3" type="0" vol="100" pan="0"/>
          <note pos="48" key="67" len="3" type="0" vol="100" pan="0"/>
          <note pos="48" key="63" len="3" type="0" vol="100" pan="0"/>
          <note pos="48" key="60" len="3" type="0" vol="100" pan="0"/>
          <note pos="72" key="67" len="3" type="0" vol="100" pan="0"/>
          <note pos="72" key="63" len="3" type="0" vol="100" pan="0"/>
          <note pos="72" key="60" len="3" type="0" vol="100" pan="0"/>
          <note pos="96" key="67" len="3" type="0" vol="100" pan="0"/>
          <note pos="96" key="63" len="3" type="0" vol="100" pan="0"/>
          <note pos="96" key="60" len="3" type="0" vol="100" pan="0"/>
          <note pos="120" key="67" len="3" type="0" vol="100" pan="0"/>
          <note pos="120" key="63" len="3" type="0" vol="100" pan="0"/>
          <note pos="120" key="60" len="3" type="0" vol="100" pan="0"/>
          <note pos="144" key="67" len="3" type="0" vol="100" pan="0"/>
          <note pos="144" key="63" len="3" type="0" vol="100" pan="0"/>
          <note pos="144" key="60" len="3" type="0" vol="100" pan="0"/>
          <note pos="168" key="65" len="3" type="0" vol="100" pan="0"/>
          <note pos="168" key="63" len="3" type="0" vol="100" pan="0"/>
          <note pos="168" key="60" len="3" type="0" vol="100" pan="0"/>
          <note pos="192" key="65" len="3" type="0" vol="100" pan="0"/>
          <note pos="192" key="63" len="3" type="0" vol="100" pan="0"/>
          <note pos="192" key="60" len="3" type="0" vol="100" pan="0"/>
          <note pos="216" key="65" len="3" type="0" vol="100" pan="0"/>
          <note pos="216" key="63" len="3" type="0" vol="100" pan="0"/>
          <note pos="216" key="60" len="3" type="0" vol="100" pan="0"/>
          <note pos="240" key="65" len="3" type="0" vol="100" pan="0"/>
          <note pos="240" key="63" len="3" type="0" vol="100" pan="0"/>
          <note pos="240" key="60" len="3" type="0" vol="100" pan="0"/>
          <note pos="264" key="65" len="3" type="0" vol="100" pan="0"/>
          <note pos="264" key="63" len="3" type="0" vol="100" pan="0"/>
          <note pos="264" key="60" len="3" type="0" vol="100" pan="0"/>
          <note pos="288" key="65" len="3" type="0" vol="100" pan="0"/>
          <note pos="288" key="63" len="3" type="0" vol="100" pan="0"/>
          <note pos="288" key="60" len="3" type="0" vol="100" pan="0"/>
          <note pos="312" key="65" len="3" type="0" vol="100" pan="0"/>
          <note pos="312" key="63" len="3" type="0" vol="100" pan="0"/>
          <note pos="312" key="60" len="3" type="0" vol="100" pan="0"/>
          <note pos="336" key="63" len="3" type="0" vol="100" pan="0"/>
          <note pos="336" key="60" len="3" type="0" vol="100" pan="0"/>
          <note pos="336" key="55" len="3" type="0" vol="100" pan="0"/>
          <note pos="360" key="67" len="3" type="0" vol="100" pan="0"/>
          <note pos="360" key="63" len="3" type="0" vol="100" pan="0"/>
          <note pos="360" key="60" len="3" type="0" vol="100" pan="0"/>
          <note pos="384" key="70" len="3" type="0" vol="100" pan="0"/>
          <note pos="384" key="67" len="3" type="0" vol="100" pan="0"/>
          <note pos="384" key="63" len="3" type="0" vol="100" pan="0"/>
          <note pos="408" key="70" len="3" type="0" vol="100" pan="0"/>
          <note pos="408" key="67" len="3" type="0" vol="100" pan="0"/>
          <note pos="408" key="63" len="3" type="0" vol="100" pan="0"/>
          <note pos="432" key="70" len="3" type="0" vol="100" pan="0"/>
          <note pos="432" key="67" len="3" type="0" vol="100" pan="0"/>
          <note pos="432" key="63" len="3" type="0" vol="100" pan="0"/>
          <note pos="456" key="70" len="3" type="0" vol="100" pan="0"/>
          <note pos="456" key="67" len="3" type="0" vol="100" pan="0"/>
          <note pos="456" key="63" len="3" type="0" vol="100" pan="0"/>
          <note pos="480" key="70" len="3" type="0" vol="100" pan="0"/>
          <note pos="480" key="67" len="3" type="0" vol="100" pan="0"/>
          <note pos="480" key="63" len="3" type="0" vol="100" pan="0"/>
          <note pos="504" key="70" len="3" type="0" vol="100" pan="0"/>
          <note pos="504" key="67" len="3" type="0" vol="100" pan="0"/>
          <note pos="504" key="63" len="3" type="0" vol="100" pan="0"/>
          <note pos="528" key="70" len="3" type="0" vol="100" pan="0"/>
          <note pos="528" key="67" len="3" type="0" vol="100" pan="0"/>
          <note pos="528" key="63" len="3" type="0" vol="100" pan="0"/>
          <note pos="552" key="69" len="3" type="0" vol="100" pan="0"/>
          <note pos="552" key="65" len="3" type="0" vol="100" pan="0"/>
          <note pos="552" key="60" len="3" type="0" vol="100" pan="0"/>
          <note pos="576" key="69" len="3" type="0" vol="100" pan="0"/>
          <note pos="576" key="65" len="3" type="0" vol="100" pan="0"/>
          <note pos="576" key="60" len="3" type="0" vol="100" pan="0"/>
          <note pos="600" key="69" len="3" type="0" vol="100" pan="0"/>
          <note pos="600" key="65" len="3" type="0" vol="100" pan="0"/>
          <note pos="600" key="60" len="3" type="0" vol="100" pan="0"/>
          <note pos="624" key="69" len="3" type="0" vol="100" pan="0"/>
          <note pos="624" key="65" len="3" type="0" vol="100" pan="0"/>
          <note pos="624" key="60" len="3" type="0" vol="100" pan="0"/>
          <note pos="648" key="69" len="3" type="0" vol="100" pan="0"/>
          <note pos="648" key="65" len="3" type="0" vol="100" pan="0"/>
          <note pos="648" key="60" len="3" type="0" vol="100" pan="0"/>
          <note pos="672" key="69" len="3" type="0" vol="100" pan="0"/>
          <note pos="672" key="65" len="3" type="0" vol="100" pan="0"/>
          <note pos="672" key="60" len="3" type="0" vol="100" pan="0"/>
          <note pos="696" key="69" len="3" type="0" vol="100" pan="0"/>
          <note pos="696" key="65" len="3" type="0" vol="100" pan="0"/>
          <note pos="696" key="60" len="3" type="0" vol="100" pan="0"/>
          <note pos="720" key="69" len="3" type="0" vol="100" pan="0"/>
          <note pos="720" key="63" len="3" type="0" vol="100" pan="0"/>
          <note pos="720" key="60" len="3" type="0" vol="100" pan="0"/>
          <note pos="744" key="67" len="3" type="0" vol="100" pan="0"/>
          <note pos="744" key="63" len="3" type="0" vol="100" pan="0"/>
          <note pos="744" key="60" len="3" type="0" vol="100" pan="0"/>
        </midiclip>
        <midiclip muted="0" name="" pos="3072" type="1" steps="16">
          <note pos="0" key="67" len="3" type="0" vol="100" pan="0"/>
          <note pos="0" key="63" len="3" type="0" vol="100" pan="0"/>
          <note pos="0" key="58" len="3" type="0" vol="100" pan="0"/>
          <note pos="24" key="67" len="3" type="0" vol="100" pan="0"/>
          <note pos="24" key="63" len="3" type="0" vol="100" pan="0"/>
          <note pos="24" key="58" len="3" type="0" vol="100" pan="0"/>
          <note pos="48" key="67" len="3" type="0" vol="100" pan="0"/>
          <note pos="48" key="63" len="3" type="0" vol="100" pan="0"/>
          <note pos="48" key="58" len="3" type="0" vol="100" pan="0"/>
          <note pos="72" key="63" len="3" type="0" vol="100" pan="0"/>
          <note pos="72" key="58" len="3" type="0" vol="100" pan="0"/>
          <note pos="72" key="55" len="3" type="0" vol="100" pan="0"/>
          <note pos="96" key="63" len="3" type="0" vol="100" pan="0"/>
          <note pos="96" key="58" len="3" type="0" vol="100" pan="0"/>
          <note pos="96" key="55" len="3" type="0" vol="100" pan="0"/>
          <note pos="120" key="63" len="3" type="0" vol="100" pan="0"/>
          <note pos="120" key="58" len="3" type="0" vol="100" pan="0"/>
          <note pos="120" key="55" len="3" type="0" vol="100" pan="0"/>
          <note pos="144" key="67" len="3" type="0" vol="100" pan="0"/>
          <note pos="144" key="63" len="3" type="0" vol="100" pan="0"/>
          <note pos="144" key="58" len="3" type="0" vol="100" pan="0"/>
          <note pos="168" key="70" len="3" type="0" vol="100" pan="0"/>
          <note pos="168" key="67" len="3" type="0" vol="100" pan="0"/>
          <note pos="168" key="63" len="3" type="0" vol="100" pan="0"/>
          <note pos="192" key="69" len="3" type="0" vol="100" pan="0"/>
          <note pos="192" key="65" len="3" type="0" vol="100" pan="0"/>
          <note pos="192" key="60" len="3" type="0" vol="100" pan="0"/>
          <note pos="216" key="67" len="3" type="0" vol="100" pan="0"/>
          <note pos="216" key="63" len="3" type="0" vol="100" pan="0"/>
          <note pos="216" key="58" len="3" type="0" vol="100" pan="0"/>
          <note pos="240" key="65" len="3" type="0" vol="100" pan="0"/>
          <note pos="240" key="60" len="3" type="0" vol="100" pan="0"/>
          <note pos="240" key="57" len="3" type="0" vol="100" pan="0"/>
          <note pos="264" key="60" len="3" type="0" vol="100" pan="0"/>
          <note pos="264" key="57" len="3" type="0" vol="100" pan="0"/>
          <note pos="264" key="53" len="3" type="0" vol="100" pan="0"/>
          <note pos="288" key="60" len="3" type="0" vol="100" pan="0"/>
          <note pos="288" key="57" len="3" type="0" vol="100" pan="0"/>
          <note pos="288" key="53" len="3" type="0" vol="100" pan="0"/>
          <note pos="312" key="60" len="3" type="0" vol="100" pan="0"/>
          <note pos="312" key="57" len="3" type="0" vol="100" pan="0"/>
          <note pos="312" key="53" len="3" type="0" vol="100" pan="0"/>
          <note pos="336" key="65" len="3" type="0" vol="100" pan="0"/>
          <note pos="336" key="60" len="3" type="0" vol="100" pan="0"/>
          <note pos="336" key="57" len="3" type="0" vol="100" pan="0"/>
          <note pos="360" key="69" len="3" type="0" vol="100" pan="0"/>
          <note pos="360" key="65" len="3" type="0" vol="100" pan="0"/>
          <note pos="360" key="60" len="3" type="0" vol="100" pan="0"/>
        </midiclip>
        <midiclip muted="0" name="" pos="3456" type="1" steps="16">
          <note pos="0" key="67" len="3" type="0" vol="100" pan="0"/>
          <note pos="0" key="63" len="3" type="0" vol="100" pan="0"/>
          <note pos="0" key="58" len="3" type="0" vol="100" pan="0"/>
          <note pos="24" key="67" len="3" type="0" vol="100" pan="0"/>
          <note pos="24" key="63" len="3" type="0" vol="100" pan="0"/>
          <note pos="24" key="58" len="3" type="0" vol="100" pan="0"/>
          <note pos="48" key="67" len="3" type="0" vol="100" pan="0"/>
          <note pos="48" key="63" len="3" type="0" vol="100" pan="0"/>
          <note pos="48" key="58" len="3" type="0" vol="100" pan="0"/>
          <note pos="72" key="63" len="3" type="0" vol="100" pan="0"/>
          <note pos="72" key="58" len="3" type="0" vol="100" pan="0"/>
          <note pos="72" key="55" len="3" type="0" vol="100" pan="0"/>
          <note pos="96" key="63" len="3" type="0" vol="100" pan="0"/>
          <note pos="96" key="58" len="3" type="0" vol="100" pan="0"/>
          <note pos="96" key="55" len="3" type="0" vol="100" pan="0"/>
          <note pos="120" key="63" len="3" type="0" vol="100" pan="0"/>
          <note pos="120" key="58" len="3" type="0" vol="100" pan="0"/>
          <note pos="120" key="55" len="3" type="0" vol="100" pan="0"/>
          <note pos="144" key="67" len="3" type="0" vol="100" pan="0"/>
          <note pos="144" key="63" len="3" type="0" vol="100" pan="0"/>
          <note pos="144" key="58" len="3" type="0" vol="100" pan="0"/>
          <note pos="168" key="70" len="3" type="0" vol="100" pan="0"/>
          <note pos="168" key="67" len="3" type="0" vol="100" pan="0"/>
          <note pos="168" key="63" len="3" type="0" vol="100" pan="0"/>
          <note pos="192" key="69" len="3" type="0" vol="100" pan="0"/>
          <note pos="192" key="65" len="3" type="0" vol="100" pan="0"/>
          <note pos="192" key="60" len="3" type="0" vol="100" pan="0"/>
          <note pos="216" key="67" len="3" type="0" vol="100" pan="0"/>
          <note pos="216" key="63" len="3" type="0" vol="100" pan="0"/>
          <note pos="216" key="58" len="3" type="0" vol="100" pan="0"/>
          <note pos="240" key="65" len="3" type="0" vol="100" pan="0"/>
          <note pos="240" key="60" len="3" type="0" vol="100" pan="0"/>
          <note pos="240" key="57" len="3" type="0" vol="100" pan="0"/>
          <note pos="264" key="60" len="3" type="0" vol="100" pan="0"/>
          <note pos="264" key="57" len="3" type="0" vol="100" pan="0"/>
          <note pos="264" key="53" len="3" type="0" vol="100" pan="0"/>
          <note pos="288" key="60" len="3" type="0" vol="100" pan="0"/>
          <note pos="288" key="57" len="3" type="0" vol="100" pan="0"/>
          <note pos="288" key="53" len="3" type="0" vol="100" pan="0"/>
          <note pos="312" key="60" len="3" type="0" vol="100" pan="0"/>
          <note pos="312" key="57" len="3" type="0" vol="100" pan="0"/>
          <note pos="312" key="53" len="3" type="0" vol="100" pan="0"/>
          <note pos="336" key="65" len="3" type="0" vol="100" pan="0"/>
          <note pos="336" key="60" len="3" type="0" vol="100" pan="0"/>
          <note pos="336" key="57" len="3" type="0" vol="100" pan="0"/>
          <note pos="360" key="69" len="3" type="0" vol="100" pan="0"/>
          <note pos="360" key="65" len="3" type="0" vol="100" pan="0"/>
          <note pos="360" key="60" len="3" type="0" vol="100" pan="0"/>
        </midiclip>
        <midiclip muted="0" name="" pos="4032" type="1" steps="16">
          <note pos="0" key="67" len="3" type="0" vol="100" pan="0"/>
          <note pos="0" key="63" len="3" type="0" vol="100" pan="0"/>
          <note pos="0" key="60" len="3" type="0" vol="100" pan="0"/>
          <note pos="24" key="67" len="3" type="0" vol="100" pan="0"/>
          <note pos="24" key="63" len="3" type="0" vol="100" pan="0"/>
          <note pos="24" key="60" len="3" type="0" vol="100" pan="0"/>
          <note pos="48" key="67" len="3" type="0" vol="100" pan="0"/>
          <note pos="48" key="63" len="3" type="0" vol="100" pan="0"/>
          <note pos="48" key="60" len="3" type="0" vol="100" pan="0"/>
          <note pos="72" key="65" len="3" type="0" vol="100" pan="0"/>
          <note pos="72" key="62" len="3" type="0" vol="100" pan="0"/>
          <note pos="72" key="58" len="3" type="0" vol="100" pan="0"/>
          <note pos="96" key="65" len="3" type="0" vol="100" pan="0"/>
          <note pos="96" key="62" len="3" type="0" vol="100" pan="0"/>
          <note pos="96" key="58" len="3" type="0" vol="100" pan="0"/>
          <note pos="120" key="65" len="3" type="0" vol="100" pan="0"/>
          <note pos="120" key="62" len="3" type="0" vol="100" pan="0"/>
          <note pos="120" key="58" len="3" type="0" vol="100" pan="0"/>
          <note pos="144" key="62" len="3" type="0" vol="100" pan="0"/>
          <note pos="144" key="58" len="3" type="0" vol="100" pan="0"/>
          <note pos="144" key="55" len="3" type="0" vol="100" pan="0"/>
          <note pos="168" key="62" len="3" type="0" vol="100" pan="0"/>
          <note pos="168" key="58" len="3" type="0" vol="100" pan="0"/>
          <note pos="168" key="55" len="3" type="0" vol="100" pan="0"/>
          <note pos="192" key="65" len="3" type="0" vol="100" pan="0"/>
          <note pos="192" key="60" len="3" type="0" vol="100" pan="0"/>
          <note pos="192" key="57" len="3" type="0" vol="100" pan="0"/>
          <note pos="216" key="65" len="3" type="0" vol="100" pan="0"/>
          <note pos="216" key="60" len="3" type="0" vol="100" pan="0"/>
          <note pos="216" key="57" len="3" type="0" vol="100" pan="0"/>
          <note pos="240" key="65" len="3" type="0" vol="100" pan="0"/>
          <note pos="240" key="60" len="3" type="0" vol="100" pan="0"/>
          <note pos="240" key="57" len="3" type="0" vol="100" pan="0"/>
          <note pos="264" key="62" len="3" type="0" vol="100" pan="0"/>
          <note pos="264" key="59" len="3" type="0" vol="100" pan="0"/>
          <note pos="264" key="55" len="3" type="0" vol="100" pan="0"/>
          <note pos="288" key="62" len="3" type="0" vol="100" pan="0"/>
          <note pos="288" key="59" len="3" type="0" vol="100" pan="0"/>
          <note pos="288" key="55" len="3" type="0" vol="100" pan="0"/>
          <note pos="312" key="62" len="3" type="0" vol="100" pan="0"/>
          <note pos="312" key="59" len="3" type="0" vol="100" pan="0"/>
          <note pos="312" key="55" len="3" type="0" vol="100" pan="0"/>
          <note pos="336" key="62" len="3" type="0" vol="100" pan="0"/>
          <note pos="336" key="59" len="3" type="0" vol="100" pan="0"/>
          <note pos="336" key="55" len="3" type="0" vol="100" pan="0"/>
          <note pos="360" key="62" len="3" type="0" vol="100" pan="0"/>
          <note pos="360" key="59" len="3" type="0" vol="100" pan="0"/>
          <note pos="360" key="55" len="3" type="0" vol="100" pan="0"/>
        </midiclip>
        <midiclip muted="0" name="" pos="4416" type="1" steps="16">
          <note pos="0" key="67" len="3" type="0" vol="100" pan="0"/>
          <note pos="0" key="63" len="3" type="0" vol="100" pan="0"/>
          <note pos="0" key="60" len="3" type="0" vol="100" pan="0"/>
          <note pos="24" key="67" len="3" type="0" vol="100" pan="0"/>
          <note pos="24" key="63" len="3" type="0" vol="100" pan="0"/>
          <note pos="24" key="60" len="3" type="0" vol="100" pan="0"/>
          <note pos="48" key="67" len="3" type="0" vol="100" pan="0"/>
          <note pos="48" key="63" len="3" type="0" vol="100" pan="0"/>
          <note pos="48" key="60" len="3" type="0" vol="100" pan="0"/>
          <note pos="72" key="65" len="3" type="0" vol="100" pan="0"/>
          <note pos="72" key="62" len="3" type="0" vol="100" pan="0"/>
          <note pos="72" key="58" len="3" type="0" vol="100" pan="0"/>
          <note pos="96" key="65" len="3" type="0" vol="100" pan="0"/>
          <note pos="96" key="62" len="3" type="0" vol="100" pan="0"/>
          <note pos="96" key="58" len="3" type="0" vol="100" pan="0"/>
          <note pos="120" key="65" len="3" type="0" vol="100" pan="0"/>
          <note pos="120" key="62" len="3" type="0" vol="100" pan="0"/>
          <note pos="120" key="58" len="3" type="0" vol="100" pan="0"/>
          <note pos="144" key="62" len="3" type="0" vol="100" pan="0"/>
          <note pos="144" key="58" len="3" type="0" vol="100" pan="0"/>
          <note pos="144" key="55" len="3" type="0" vol="100" pan="0"/>
          <note pos="168" key="62" len="3" type="0" vol="100" pan="0"/>
          <note pos="168" key="58" len="3" type="0" vol="100" pan="0"/>
          <note pos="168" key="55" len="3" type="0" vol="100" pan="0"/>
          <note pos="192" key="65" len="3" type="0" vol="100" pan="0"/>
          <note pos="192" key="60" len="3" type="0" vol="100" pan="0"/>
          <note pos="192" key="57" len="3" type="0" vol="100" pan="0"/>
          <note pos="216" key="65" len="3" type="0" vol="100" pan="0"/>
          <note pos="216" key="60" len="3" type="0" vol="100" pan="0"/>
          <note pos="216" key="57" len="3" type="0" vol="100" pan="0"/>
          <note pos="240" key="65" len="3" type="0" vol="100" pan="0"/>
          <note pos="240" key="60" len="3" type="0" vol="100" pan="0"/>
          <note pos="240" key="57" len="3" type="0" vol="100" pan="0"/>
          <note pos="264" key="62" len="3" type="0" vol="100" pan="0"/>
          <note pos="264" key="59" len="3" type="0" vol="100" pan="0"/>
          <note pos="264" key="55" len="3" type="0" vol="100" pan="0"/>
          <note pos="288" key="62" len="3" type="0" vol="100" pan="0"/>
          <note pos="288" key="59" len="3" type="0" vol="100" pan="0"/>
          <note pos="288" key="55" len="3" type="0" vol="100" pan="0"/>
          <note pos="312" key="62" len="3" type="0" vol="100" pan="0"/>
          <note pos="312" key="59" len="3" type="0" vol="100" pan="0"/>
          <note pos="312" key="55" len="3" type="0" vol="100" pan="0"/>
          <note pos="336" key="62" len="3" type="0" vol="100" pan="0"/>
          <note pos="336" key="59" len="3" type="0" vol="100" pan="0"/>
          <note pos="336" key="55" len="3" type="0" vol="100" pan="0"/>
          <note pos="360" key="62" len="3" type="0" vol="100" pan="0"/>
          <note pos="360" key="59" len="3" type="0" vol="100" pan="0"/>
          <note pos="360" key="55" len="3" type="0" vol="100" pan="0"/>
        </midiclip>
      </track>
      <track muted="0" name="GiantSoundfontV6" mutedBeforeSolo="0" type="0" solo="0">
        <instrumenttrack pitchrange="1" enabled="0" scale="0" basenote="69" firstkey="0" range_import="1" vol="100" pitch="0" usemasterpitch="1" keymap="0" pan="0" mixch="2" enablecc="0" lastkey="127">
          <midicontrollers cc67="0" cc88="0" cc93="0" cc105="0" cc4="0" cc66="0" cc46="0" cc14="0" cc85="0" cc89="0" cc103="0" cc90="0" cc96="0" cc99="0" cc70="0" cc121="0" cc108="0" cc37="0" cc125="0" cc36="0" cc94="0" cc114="0" cc79="0" cc116="0" cc23="0" cc109="0" cc52="0" cc104="0" cc49="0" cc112="0" cc120="0" cc98="0" cc54="0" cc31="0" cc78="0" cc65="0" cc29="0" cc86="0" cc56="0" cc122="0" cc24="0" cc80="0" cc15="0" cc117="0" cc25="0" cc39="0" cc68="0" cc63="0" cc44="0" cc27="0" cc61="0" cc64="0" cc91="0" cc97="0" cc6="0" cc20="0" cc32="0" cc127="0" cc48="0" cc118="0" cc69="0" cc126="0" cc58="0" cc71="0" cc30="0" cc53="0" cc40="0" cc113="0" cc33="0" cc102="0" cc42="0" cc110="0" cc62="0" cc9="0" cc26="0" cc5="0" cc1="0" cc77="0" cc10="0" cc43="0" cc115="0" cc13="0" cc38="0" cc16="0" cc84="0" cc95="0" cc8="0" cc107="0" cc41="0" cc60="0" cc3="0" cc45="0" cc12="0" cc87="0" cc22="0" cc35="0" cc11="0" cc18="0" cc0="0" cc28="0" cc76="0" cc21="0" cc92="0" cc83="0" cc100="0" cc50="0" cc72="0" cc74="0" cc7="0" cc51="0" cc17="0" cc106="0" cc119="0" cc19="0" cc81="0" cc34="0" cc55="0" cc111="0" cc75="0" cc59="0" cc57="0" cc123="0" cc124="0" cc47="0" cc2="0" cc73="0" cc82="0" cc101="0"/>
          <instrument name="sf2player">
            <sf2player gain="0.75999999" reverbOn="0" reverbWidth="0.5" chorusDepth="8" chorusNum="3" chorusLevel="2" reverbRoomSize="0.2" src="usersoundfont:GiantSoundfontV6.6_WIPMelodicBank.sf2" chorusSpeed="0.30000001" reverbDamping="0" patch="103" bank="0" reverbLevel="0.89999998" chorusOn="0">
              <key/>
            </sf2player>
          </instrument>
          <eldata fwet="0" fres="0.5" fcut="14000" ftype="0">
            <elvol x100="0" rel="0.1" lshp="0" dec="0.5" sustain="0.5" lspd="0.1" hold="0.5" pdel="0" ctlenvamt="0" latt="0" lspd_syncmode="0" att="0" amt="0" lspd_numerator="4" lpdel="0" lspd_denominator="4" userwavefile="" lamt="0"/>
            <elcut x100="0" rel="0.1" lshp="0" dec="0.5" sustain="0.5" lspd="0.1" hold="0.5" pdel="0" ctlenvamt="0" latt="0" lspd_syncmode="0" att="0" amt="0" lspd_numerator="4" lpdel="0" lspd_denominator="4" userwavefile="" lamt="0"/>
            <elres x100="0" rel="0.1" lshp="0" dec="0.5" sustain="0.5" lspd="0.1" hold="0.5" pdel="0" ctlenvamt="0" latt="0" lspd_syncmode="0" att="0" amt="0" lspd_numerator="4" lpdel="0" lspd_denominator="4" userwavefile="" lamt="0"/>
          </eldata>
          <chordcreator chordrange="1" chord="0" chord-enabled="0"/>
          <arpeggiator arptime_numerator="4" arprange="1" arp-enabled="0" arpcycle="0" arprepeats="1" arpmiss="0" arpskip="0" arptime="200" arpmode="0" arptime_syncmode="0" arpgate="100" arpdir="0" arp="0" arptime_denominator="4"/>
          <midiport outputprogram="1" readable="1" inputchannel="0" fixedoutputnote="-1" fixedinputvelocity="-1" writable="0" basevelocity="127" outputchannel="1" fixedoutputvelocity="-1" inputcontroller="-1" outputcontroller="-1" inports=""/>
          <fxchain enabled="0" numofeffects="0"/>
        </instrumenttrack>
        <midiclip muted="0" name="" pos="1536" type="1" steps="16">
          <note pos="0" key="48" len="24" type="0" vol="100" pan="0"/>
          <note pos="24" key="51" len="24" type="0" vol="100" pan="0"/>
          <note pos="48" key="55" len="12" type="0" vol="100" pan="0"/>
          <note pos="72" key="58" len="48" type="0" vol="100" pan="0"/>
          <note pos="120" key="55" len="24" type="0" vol="100" pan="0"/>
          <note pos="144" key="51" len="12" type="0" vol="100" pan="0"/>
          <note pos="168" key="53" len="48" type="0" vol="100" pan="0"/>
          <note pos="216" key="55" len="24" type="0" vol="100" pan="0"/>
          <note pos="240" key="57" len="12" type="0" vol="100" pan="0"/>
          <note pos="264" key="60" len="48" type="0" vol="100" pan="0"/>
          <note pos="312" key="57" len="24" type="0" vol="100" pan="0"/>
          <note pos="336" key="53" len="36" type="0" vol="100" pan="0"/>
          <note pos="384" key="58" len="24" type="0" vol="100" pan="0"/>
          <note pos="408" key="55" len="24" type="0" vol="100" pan="0"/>
          <note pos="432" key="60" len="12" type="0" vol="100" pan="0"/>
          <note pos="456" key="58" len="48" type="0" vol="100" pan="0"/>
          <note pos="504" key="55" len="24" type="0" vol="100" pan="0"/>
          <note pos="528" key="58" len="12" type="0" vol="100" pan="0"/>
          <note pos="552" key="57" len="48" type="0" vol="100" pan="0"/>
          <note pos="600" key="55" len="24" type="0" vol="100" pan="0"/>
          <note pos="624" key="57" len="12" type="0" vol="100" pan="0"/>
          <note pos="648" key="58" len="24" type="0" vol="100" pan="0"/>
          <note pos="672" key="57" len="24" type="0" vol="100" pan="0"/>
          <note pos="696" key="55" len="24" type="0" vol="100" pan="0"/>
          <note pos="720" key="51" len="24" type="0" vol="100" pan="0"/>
          <note pos="744" key="48" len="24" type="0" vol="100" pan="0"/>
        </midiclip>
        <midiclip muted="0" name="" pos="0" type="1" steps="16">
          <note pos="0" key="48" len="12" type="0" vol="100" pan="0"/>
          <note pos="24" key="51" len="12" type="0" vol="100" pan="0"/>
          <note pos="48" key="55" len="12" type="0" vol="100" pan="0"/>
          <note pos="72" key="60" len="12" type="0" vol="100" pan="0"/>
          <note pos="144" key="58" len="12" type="0" vol="100" pan="0"/>
          <note pos="168" key="51" len="12" type="0" vol="100" pan="0"/>
        </midiclip>
        <midiclip muted="0" name="" pos="192" type="1" steps="16">
          <note pos="0" key="48" len="12" type="0" vol="100" pan="0"/>
          <note pos="24" key="51" len="12" type="0" vol="100" pan="0"/>
          <note pos="48" key="55" len="12" type="0" vol="100" pan="0"/>
          <note pos="72" key="60" len="12" type="0" vol="100" pan="0"/>
          <note pos="96" key="63" len="12" type="0" vol="100" pan="0"/>
          <note pos="144" key="55" len="12" type="0" vol="100" pan="0"/>
          <note pos="168" key="51" len="12" type="0" vol="100" pan="0"/>
        </midiclip>
        <midiclip muted="0" name="" pos="384" type="1" steps="16">
          <note pos="0" key="48" len="12" type="0" vol="100" pan="0"/>
          <note pos="24" key="51" len="12" type="0" vol="100" pan="0"/>
          <note pos="48" key="55" len="12" type="0" vol="100" pan="0"/>
          <note pos="72" key="60" len="12" type="0" vol="100" pan="0"/>
          <note pos="96" key="63" len="12" type="0" vol="100" pan="0"/>
          <note pos="120" key="55" len="12" type="0" vol="100" pan="0"/>
          <note pos="144" key="58" len="12" type="0" vol="100" pan="0"/>
          <note pos="168" key="51" len="12" type="0" vol="100" pan="0"/>
        </midiclip>
        <midiclip muted="0" name="" pos="576" type="1" steps="16">
          <note pos="0" key="53" len="12" type="0" vol="100" pan="0"/>
          <note pos="24" key="48" len="12" type="0" vol="100" pan="0"/>
          <note pos="48" key="57" len="12" type="0" vol="100" pan="0"/>
          <note pos="72" key="53" len="12" type="0" vol="100" pan="0"/>
          <note pos="96" key="60" len="12" type="0" vol="100" pan="0"/>
          <note pos="120" key="55" len="12" type="0" vol="100" pan="0"/>
          <note pos="144" key="58" len="12" type="0" vol="100" pan="0"/>
          <note pos="168" key="51" len="12" type="0" vol="100" pan="0"/>
        </midiclip>
        <midiclip muted="0" name="" pos="768" type="1" steps="16">
          <note pos="0" key="48" len="12" type="0" vol="100" pan="0"/>
        </midiclip>
        <midiclip muted="0" name="" pos="2304" type="1" steps="16">
          <note pos="0" key="60" len="24" type="0" vol="100" pan="0"/>
          <note pos="24" key="63" len="24" type="0" vol="100" pan="0"/>
          <note pos="48" key="67" len="12" type="0" vol="100" pan="0"/>
          <note pos="72" key="70" len="48" type="0" vol="100" pan="0"/>
          <note pos="120" key="67" len="24" type="0" vol="100" pan="0"/>
          <note pos="144" key="63" len="12" type="0" vol="100" pan="0"/>
          <note pos="168" key="65" len="48" type="0" vol="100" pan="0"/>
          <note pos="216" key="67" len="24" type="0" vol="100" pan="0"/>
          <note pos="240" key="69" len="12" type="0" vol="100" pan="0"/>
          <note pos="264" key="72" len="48" type="0" vol="100" pan="0"/>
          <note pos="312" key="69" len="24" type="0" vol="100" pan="0"/>
          <note pos="336" key="65" len="36" type="0" vol="100" pan="0"/>
          <note pos="384" key="70" len="24" type="0" vol="100" pan="0"/>
          <note pos="408" key="67" len="24" type="0" vol="100" pan="0"/>
          <note pos="432" key="72" len="12" type="0" vol="100" pan="0"/>
          <note pos="456" key="70" len="48" type="0" vol="100" pan="0"/>
          <note pos="504" key="67" len="24" type="0" vol="100" pan="0"/>
          <note pos="528" key="70" len="12" type="0" vol="100" pan="0"/>
          <note pos="552" key="69" len="48" type="0" vol="100" pan="0"/>
          <note pos="600" key="67" len="24" type="0" vol="100" pan="0"/>
          <note pos="624" key="69" len="12" type="0" vol="100" pan="0"/>
          <note pos="648" key="70" len="24" type="0" vol="100" pan="0"/>
          <note pos="672" key="69" len="24" type="0" vol="100" pan="0"/>
          <note pos="696" key="67" len="24" type="0" vol="100" pan="0"/>
          <note pos="720" key="63" len="24" type="0" vol="100" pan="0"/>
          <note pos="744" key="60" len="24" type="0" vol="100" pan="0"/>
        </midiclip>
        <midiclip muted="0" name="" pos="3072" type="1" steps="16">
          <note pos="0" key="63" len="12" type="0" vol="100" pan="0"/>
          <note pos="24" key="67" len="12" type="0" vol="100" pan="0"/>
          <note pos="48" key="58" len="12" type="0" vol="100" pan="0"/>
          <note pos="72" key="63" len="12" type="0" vol="100" pan="0"/>
          <note pos="120" key="58" len="12" type="0" vol="100" pan="0"/>
          <note pos="144" key="67" len="12" type="0" vol="100" pan="0"/>
          <note pos="168" key="70" len="12" type="0" vol="100" pan="0"/>
          <note pos="192" key="69" len="12" type="0" vol="100" pan="0"/>
          <note pos="216" key="67" len="12" type="0" vol="100" pan="0"/>
          <note pos="240" key="65" len="12" type="0" vol="100" pan="0"/>
          <note pos="264" key="60" len="12" type="0" vol="100" pan="0"/>
          <note pos="336" key="65" len="12" type="0" vol="100" pan="0"/>
          <note pos="360" key="69" len="12" type="0" vol="100" pan="0"/>
        </midiclip>
        <midiclip muted="0" name="" pos="3456" type="1" steps="16">
          <note pos="0" key="63" len="12" type="0" vol="100" pan="0"/>
          <note pos="24" key="67" len="12" type="0" vol="100" pan="0"/>
          <note pos="48" key="58" len="12" type="0" vol="100" pan="0"/>
          <note pos="72" key="63" len="12" type="0" vol="100" pan="0"/>
          <note pos="120" key="58" len="12" type="0" vol="100" pan="0"/>
          <note pos="144" key="67" len="12" type="0" vol="100" pan="0"/>
          <note pos="168" key="70" len="12" type="0" vol="100" pan="0"/>
          <note pos="192" key="69" len="12" type="0" vol="100" pan="0"/>
          <note pos="216" key="70" len="12" type="0" vol="100" pan="0"/>
          <note pos="240" key="72" len="12" type="0" vol="100" pan="0"/>
          <note pos="264" key="63" len="12" type="0" vol="100" pan="0"/>
          <note pos="288" key="65" len="12" type="0" vol="100" pan="0"/>
          <note pos="312" key="67" len="12" type="0" vol="100" pan="0"/>
          <note pos="336" key="69" len="12" type="0" vol="100" pan="0"/>
          <note pos="360" key="70" len="12" type="0" vol="100" pan="0"/>
          <note pos="384" key="67" len="12" type="0" vol="100" pan="0"/>
        </midiclip>
      </track>
      <track muted="0" name="SGM-V2" mutedBeforeSolo="0" type="0" solo="0">
        <instrumenttrack pitchrange="1" enabled="0" scale="0" basenote="69" firstkey="0" range_import="1" vol="70.400002" pitch="0" usemasterpitch="1" keymap="0" pan="0" mixch="3" enablecc="0" lastkey="127">
          <midicontrollers cc67="0" cc88="0" cc93="0" cc105="0" cc4="0" cc66="0" cc46="0" cc14="0" cc85="0" cc89="0" cc103="0" cc90="0" cc96="0" cc99="0" cc70="0" cc121="0" cc108="0" cc37="0" cc125="0" cc36="0" cc94="0" cc114="0" cc79="0" cc116="0" cc23="0" cc109="0" cc52="0" cc104="0" cc49="0" cc112="0" cc120="0" cc98="0" cc54="0" cc31="0" cc78="0" cc65="0" cc29="0" cc86="0" cc56="0" cc122="0" cc24="0" cc80="0" cc15="0" cc117="0" cc25="0" cc39="0" cc68="0" cc63="0" cc44="0" cc27="0" cc61="0" cc64="0" cc91="0" cc97="0" cc6="0" cc20="0" cc32="0" cc127="0" cc48="0" cc118="0" cc69="0" cc126="0" cc58="0" cc71="0" cc30="0" cc53="0" cc40="0" cc113="0" cc33="0" cc102="0" cc42="0" cc110="0" cc62="0" cc9="0" cc26="0" cc5="0" cc1="0" cc77="0" cc10="0" cc43="0" cc115="0" cc13="0" cc38="0" cc16="0" cc84="0" cc95="0" cc8="0" cc107="0" cc41="0" cc60="0" cc3="0" cc45="0" cc12="0" cc87="0" cc22="0" cc35="0" cc11="0" cc18="0" cc0="0" cc28="0" cc76="0" cc21="0" cc92="0" cc83="0" cc100="0" cc50="0" cc72="0" cc74="0" cc7="0" cc51="0" cc17="0" cc106="0" cc119="0" cc19="0" cc81="0" cc34="0" cc55="0" cc111="0" cc75="0" cc59="0" cc57="0" cc123="0" cc124="0" cc47="0" cc2="0" cc73="0" cc82="0" cc101="0"/>
          <instrument name="sf2player">
            <sf2player gain="1" reverbOn="0" reverbWidth="0.5" chorusDepth="8" chorusNum="3" chorusLevel="2" reverbRoomSize="0.2" src="usersoundfont:SGM-V2.01.sf2" chorusSpeed="0.30000001" reverbDamping="0" patch="38" bank="20" reverbLevel="0.89999998" chorusOn="0">
              <key/>
            </sf2player>
          </instrument>
          <eldata fwet="0" fres="0.5" fcut="14000" ftype="0">
            <elvol x100="0" rel="0.1" lshp="0" dec="0.5" sustain="0.5" lspd="0.1" hold="0.5" pdel="0" ctlenvamt="0" latt="0" lspd_syncmode="0" att="0" amt="0" lspd_numerator="4" lpdel="0" lspd_denominator="4" userwavefile="" lamt="0"/>
            <elcut x100="0" rel="0.1" lshp="0" dec="0.5" sustain="0.5" lspd="0.1" hold="0.5" pdel="0" ctlenvamt="0" latt="0" lspd_syncmode="0" att="0" amt="0" lspd_numerator="4" lpdel="0" lspd_denominator="4" userwavefile="" lamt="0"/>
            <elres x100="0" rel="0.1" lshp="0" dec="0.5" sustain="0.5" lspd="0.1" hold="0.5" pdel="0" ctlenvamt="0" latt="0" lspd_syncmode="0" att="0" amt="0" lspd_numerator="4" lpdel="0" lspd_denominator="4" userwavefile="" lamt="0"/>
          </eldata>
          <chordcreator chordrange="1" chord="0" chord-enabled="0"/>
          <arpeggiator arptime_numerator="4" arprange="1" arp-enabled="0" arpcycle="0" arprepeats="1" arpmiss="0" arpskip="0" arptime="200" arpmode="0" arptime_syncmode="0" arpgate="100" arpdir="0" arp="0" arptime_denominator="4"/>
          <midiport outputprogram="1" readable="1" inputchannel="0" fixedoutputnote="-1" fixedinputvelocity="-1" writable="0" basevelocity="127" outputchannel="1" fixedoutputvelocity="-1" inputcontroller="-1" outputcontroller="-1" inports=""/>
          <fxchain enabled="0" numofeffects="0"/>
        </instrumenttrack>
        <midiclip muted="0" name="" pos="576" type="1" steps="16">
          <note pos="144" key="41" len="48" type="0" vol="100" pan="0">
            <automationclip>
              <detuning name="Note detuning" pos="0" prog="1" tens="1" mute="0" len="192">
                <time lockedTan="0" pos="0" inTan="0" value="0" outValue="0" outTan="1.1666666"/>
                <time lockedTan="0" pos="6" inTan="0.29166666" value="7" outValue="7" outTan="0.29166666"/>
                <time lockedTan="0" pos="24" inTan="-0.5" value="7" outValue="7" outTan="-0.5"/>
                <time lockedTan="0" pos="30" inTan="0" value="-5" outValue="-5" outTan="0"/>
                <object id="5559"/>
              </detuning>
            </automationclip>
          </note>
        </midiclip>
        <midiclip muted="0" name="" pos="768" type="1" steps="16">
          <note pos="0" key="36" len="36" type="0" vol="100" pan="0"/>
          <note pos="48" key="34" len="12" type="0" vol="100" pan="0"/>
          <note pos="72" key="36" len="12" type="0" vol="100" pan="0"/>
          <note pos="96" key="39" len="36" type="0" vol="100" pan="0"/>
          <note pos="144" key="36" len="12" type="0" vol="100" pan="0"/>
          <note pos="168" key="39" len="12" type="0" vol="100" pan="0"/>
          <note pos="192" key="41" len="36" type="0" vol="100" pan="0"/>
          <note pos="240" key="36" len="12" type="0" vol="100" pan="0"/>
          <note pos="264" key="41" len="12" type="0" vol="100" pan="0"/>
          <note pos="288" key="45" len="48" type="0" vol="100" pan="0"/>
          <note pos="336" key="43" len="12" type="0" vol="100" pan="0"/>
          <note pos="360" key="41" len="12" type="0" vol="100" pan="0"/>
          <note pos="384" key="39" len="36" type="0" vol="100" pan="0"/>
          <note pos="432" key="36" len="12" type="0" vol="100" pan="0"/>
          <note pos="456" key="39" len="12" type="0" vol="100" pan="0"/>
          <note pos="480" key="43" len="36" type="0" vol="100" pan="0"/>
          <note pos="528" key="41" len="12" type="0" vol="100" pan="0"/>
          <note pos="552" key="39" len="12" type="0" vol="100" pan="0"/>
          <note pos="576" key="36" len="36" type="0" vol="100" pan="0"/>
          <note pos="624" key="34" len="12" type="0" vol="100" pan="0"/>
          <note pos="648" key="43" len="12" type="0" vol="100" pan="0"/>
          <note pos="672" key="41" len="48" type="0" vol="100" pan="0">
            <automationclip>
              <detuning name="Note detuning" pos="0" prog="1" tens="1" mute="0" len="192">
                <time lockedTan="0" pos="0" inTan="0" value="0" outValue="0" outTan="1.1666666"/>
                <time lockedTan="0" pos="6" inTan="0.29166666" value="7" outValue="7" outTan="0.29166666"/>
                <time lockedTan="0" pos="24" inTan="-0.5" value="7" outValue="7" outTan="-0.5"/>
                <time lockedTan="0" pos="30" inTan="0" value="-5" outValue="-5" outTan="0"/>
                <object id="23705"/>
              </detuning>
            </automationclip>
          </note>
          <note pos="720" key="41" len="48" type="0" vol="100" pan="0">
            <automationclip>
              <detuning name="Note detuning" pos="0" prog="1" tens="1" mute="0" len="192">
                <time lockedTan="0" pos="0" inTan="0" value="0" outValue="0" outTan="1.1666666"/>
                <time lockedTan="0" pos="6" inTan="0.29166666" value="7" outValue="7" outTan="0.29166666"/>
                <time lockedTan="0" pos="24" inTan="-0.5" value="7" outValue="7" outTan="-0.5"/>
                <time lockedTan="0" pos="30" inTan="0" value="-5" outValue="-5" outTan="0"/>
                <object id="2945"/>
              </detuning>
            </automationclip>
          </note>
        </midiclip>
        <midiclip muted="0" name="" pos="1536" type="1" steps="16">
          <note pos="0" key="36" len="36" type="0" vol="100" pan="0"/>
          <note pos="48" key="34" len="12" type="0" vol="100" pan="0"/>
          <note pos="72" key="36" len="12" type="0" vol="100" pan="0"/>
          <note pos="96" key="39" len="36" type="0" vol="100" pan="0"/>
          <note pos="144" key="36" len="12" type="0" vol="100" pan="0"/>
          <note pos="168" key="39" len="12" type="0" vol="100" pan="0"/>
          <note pos="192" key="41" len="36" type="0" vol="100" pan="0"/>
          <note pos="240" key="36" len="12" type="0" vol="100" pan="0"/>
          <note pos="264" key="41" len="12" type="0" vol="100" pan="0"/>
          <note pos="288" key="45" len="48" type="0" vol="100" pan="0"/>
          <note pos="336" key="43" len="12" type="0" vol="100" pan="0"/>
          <note pos="360" key="41" len="12" type="0" vol="100" pan="0"/>
          <note pos="384" key="39" len="36" type="0" vol="100" pan="0"/>
          <note pos="432" key="36" len="12" type="0" vol="100" pan="0"/>
          <note pos="456" key="39" len="12" type="0" vol="100" pan="0"/>
          <note pos="480" key="43" len="36" type="0" vol="100" pan="0"/>
          <note pos="528" key="41" len="12" type="0" vol="100" pan="0"/>
          <note pos="552" key="39" len="12" type="0" vol="100" pan="0"/>
          <note pos="576" key="36" len="36" type="0" vol="100" pan="0"/>
          <note pos="624" key="34" len="12" type="0" vol="100" pan="0"/>
          <note pos="648" key="43" len="12" type="0" vol="100" pan="0"/>
          <note pos="672" key="41" len="48" type="0" vol="100" pan="0">
            <automationclip>
              <detuning name="Note detuning" pos="0" prog="1" tens="1" mute="0" len="192">
                <time lockedTan="0" pos="0" inTan="0" value="0" outValue="0" outTan="1.1666666"/>
                <time lockedTan="0" pos="6" inTan="0.29166666" value="7" outValue="7" outTan="0.29166666"/>
                <time lockedTan="0" pos="24" inTan="-0.5" value="7" outValue="7" outTan="-0.5"/>
                <time lockedTan="0" pos="30" inTan="0" value="-5" outValue="-5" outTan="0"/>
                <object id="24945"/>
              </detuning>
            </automationclip>
          </note>
          <note pos="720" key="41" len="48" type="0" vol="100" pan="0">
            <automationclip>
              <detuning name="Note detuning" pos="0" prog="1" tens="1" mute="0" len="192">
                <time lockedTan="0" pos="0" inTan="0" value="0" outValue="0" outTan="1.1666666"/>
                <time lockedTan="0" pos="6" inTan="0.29166666" value="7" outValue="7" outTan="0.29166666"/>
                <time lockedTan="0" pos="24" inTan="-0.5" value="7" outValue="7" outTan="-0.5"/>
                <time lockedTan="0" pos="30" inTan="0" value="-5" outValue="-5" outTan="0"/>
                <object id="15639"/>
              </detuning>
            </automationclip>
          </note>
        </midiclip>
        <midiclip muted="0" name="" pos="2304" type="1" steps="16">
          <note pos="0" key="36" len="36" type="0" vol="100" pan="0"/>
          <note pos="48" key="34" len="12" type="0" vol="100" pan="0"/>
          <note pos="72" key="36" len="12" type="0" vol="100" pan="0"/>
          <note pos="96" key="39" len="36" type="0" vol="100" pan="0"/>
          <note pos="144" key="36" len="12" type="0" vol="100" pan="0"/>
          <note pos="168" key="39" len="12" type="0" vol="100" pan="0"/>
          <note pos="192" key="41" len="36" type="0" vol="100" pan="0"/>
          <note pos="240" key="36" len="12" type="0" vol="100" pan="0"/>
          <note pos="264" key="41" len="12" type="0" vol="100" pan="0"/>
          <note pos="288" key="45" len="48" type="0" vol="100" pan="0"/>
          <note pos="336" key="43" len="12" type="0" vol="100" pan="0"/>
          <note pos="360" key="41" len="12" type="0" vol="100" pan="0"/>
          <note pos="384" key="39" len="36" type="0" vol="100" pan="0"/>
          <note pos="432" key="36" len="12" type="0" vol="100" pan="0"/>
          <note pos="456" key="39" len="12" type="0" vol="100" pan="0"/>
          <note pos="480" key="43" len="36" type="0" vol="100" pan="0"/>
          <note pos="528" key="41" len="12" type="0" vol="100" pan="0"/>
          <note pos="552" key="39" len="12" type="0" vol="100" pan="0"/>
          <note pos="576" key="36" len="36" type="0" vol="100" pan="0"/>
          <note pos="624" key="34" len="12" type="0" vol="100" pan="0"/>
          <note pos="648" key="43" len="12" type="0" vol="100" pan="0"/>
          <note pos="672" key="41" len="48" type="0" vol="100" pan="0">
            <automationclip>
              <detuning name="Note detuning" pos="0" prog="1" tens="1" mute="0" len="192">
                <time lockedTan="0" pos="0" inTan="0" value="0" outValue="0" outTan="1.1666666"/>
                <time lockedTan="0" pos="6" inTan="0.29166666" value="7" outValue="7" outTan="0.29166666"/>
                <time lockedTan="0" pos="24" inTan="-0.5" value="7" outValue="7" outTan="-0.5"/>
                <time lockedTan="0" pos="30" inTan="0" value="-5" outValue="-5" outTan="0"/>
                <object id="6811"/>
              </detuning>
            </automationclip>
          </note>
          <note pos="720" key="41" len="48" type="0" vol="100" pan="0">
            <automationclip>
              <detuning name="Note detuning" pos="0" prog="1" tens="1" mute="0" len="192">
                <time lockedTan="0" pos="0" inTan="0" value="0" outValue="0" outTan="1.1666666"/>
                <time lockedTan="0" pos="6" inTan="0.29166666" value="7" outValue="7" outTan="0.29166666"/>
                <time lockedTan="0" pos="24" inTan="-0.5" value="7" outValue="7" outTan="-0.5"/>
                <time lockedTan="0" pos="30" inTan="0" value="-5" outValue="-5" outTan="0"/>
                <object id="7451"/>
              </detuning>
            </automationclip>
          </note>
        </midiclip>
        <midiclip muted="0" name="" pos="3072" type="1" steps="16">
          <note pos="0" key="39" len="36" type="0" vol="100" pan="0"/>
          <note pos="48" key="46" len="12" type="0" vol="100" pan="0"/>
          <note pos="72" key="39" len="12" type="0" vol="100" pan="0"/>
          <note pos="96" key="34" len="36" type="0" vol="100" pan="0"/>
          <note pos="144" key="39" len="12" type="0" vol="100" pan="0"/>
          <note pos="168" key="46" len="12" type="0" vol="100" pan="0"/>
          <note pos="192" key="41" len="36" type="0" vol="100" pan="0"/>
          <note pos="240" key="36" len="12" type="0" vol="100" pan="0"/>
          <note pos="264" key="41" len="12" type="0" vol="100" pan="0"/>
          <note pos="288" key="45" len="12" type="0" vol="100" pan="0"/>
          <note pos="312" key="41" len="12" type="0" vol="100" pan="0"/>
          <note pos="336" key="48" len="12" type="0" vol="100" pan="0"/>
          <note pos="360" key="45" len="12" type="0" vol="100" pan="0"/>
        </midiclip>
        <midiclip muted="0" name="" pos="3456" type="1" steps="16">
          <note pos="0" key="39" len="36" type="0" vol="100" pan="0"/>
          <note pos="48" key="46" len="12" type="0" vol="100" pan="0"/>
          <note pos="72" key="39" len="12" type="0" vol="100" pan="0"/>
          <note pos="96" key="34" len="36" type="0" vol="100" pan="0"/>
          <note pos="144" key="39" len="12" type="0" vol="100" pan="0"/>
          <note pos="168" key="46" len="12" type="0" vol="100" pan="0"/>
          <note pos="192" key="41" len="36" type="0" vol="100" pan="0"/>
          <note pos="240" key="36" len="12" type="0" vol="100" pan="0"/>
          <note pos="264" key="41" len="12" type="0" vol="100" pan="0"/>
          <note pos="288" key="45" len="12" type="0" vol="100" pan="0"/>
          <note pos="312" key="41" len="12" type="0" vol="100" pan="0"/>
          <note pos="336" key="48" len="12" type="0" vol="100" pan="0"/>
          <note pos="360" key="45" len="12" type="0" vol="100" pan="0"/>
        </midiclip>
        <midiclip muted="0" name="" pos="3840" type="1" steps="16">
          <note pos="0" key="48" len="12" type="0" vol="100" pan="0"/>
          <note pos="24" key="36" len="12" type="0" vol="100" pan="0"/>
          <note pos="48" key="36" len="12" type="0" vol="100" pan="0"/>
          <note pos="72" key="48" len="12" type="0" vol="100" pan="0"/>
          <note pos="96" key="36" len="12" type="0" vol="100" pan="0"/>
          <note pos="120" key="36" len="12" type="0" vol="100" pan="0"/>
          <note pos="144" key="36" len="12" type="0" vol="100" pan="0"/>
          <note pos="168" key="48" len="12" type="0" vol="100" pan="0"/>
        </midiclip>
        <midiclip muted="0" name="" pos="4032" type="1" steps="16">
          <note pos="0" key="36" len="36" type="0" vol="100" pan="0"/>
          <note pos="48" key="27" len="12" type="0" vol="100" pan="0"/>
          <note pos="72" key="34" len="36" type="0" vol="100" pan="0"/>
          <note pos="120" key="24" len="12" type="0" vol="100" pan="0"/>
          <note pos="144" key="31" len="36" type="0" vol="100" pan="0"/>
          <note pos="192" key="29" len="36" type="0" vol="100" pan="0"/>
          <note pos="240" key="24" len="12" type="0" vol="100" pan="0"/>
          <note pos="264" key="31" len="108" type="0" vol="100" pan="0"/>
        </midiclip>
        <midiclip muted="0" name="" pos="4416" type="1" steps="16">
          <note pos="0" key="36" len="36" type="0" vol="100" pan="0"/>
          <note pos="48" key="27" len="12" type="0" vol="100" pan="0"/>
          <note pos="72" key="34" len="36" type="0" vol="100" pan="0"/>
          <note pos="120" key="24" len="12" type="0" vol="100" pan="0"/>
          <note pos="144" key="31" len="36" type="0" vol="100" pan="0"/>
          <note pos="192" key="29" len="36" type="0" vol="100" pan="0"/>
          <note pos="240" key="24" len="12" type="0" vol="100" pan="0"/>
          <note pos="264" key="31" len="108" type="0" vol="100" pan="0"/>
        </midiclip>
      </track>
      <track muted="0" name="SGM-V2" mutedBeforeSolo="0" type="0" solo="0">
        <instrumenttrack pitchrange="1" enabled="0" scale="0" basenote="69" firstkey="0" range_import="1" vol="100" pitch="0" usemasterpitch="0" keymap="0" pan="0" mixch="4" enablecc="0" lastkey="127">
          <midicontrollers cc67="0" cc88="0" cc93="0" cc105="0" cc4="0" cc66="0" cc46="0" cc14="0" cc85="0" cc89="0" cc103="0" cc90="0" cc96="0" cc99="0" cc70="0" cc121="0" cc108="0" cc37="0" cc125="0" cc36="0" cc94="0" cc114="0" cc79="0" cc116="0" cc23="0" cc109="0" cc52="0" cc104="0" cc49="0" cc112="0" cc120="0" cc98="0" cc54="0" cc31="0" cc78="0" cc65="0" cc29="0" cc86="0" cc56="0" cc122="0" cc24="0" cc80="0" cc15="0" cc117="0" cc25="0" cc39="0" cc68="0" cc63="0" cc44="0" cc27="0" cc61="0" cc64="0" cc91="0" cc97="0" cc6="0" cc20="0" cc32="0" cc127="0" cc48="0" cc118="0" cc69="0" cc126="0" cc58="0" cc71="0" cc30="0" cc53="0" cc40="0" cc113="0" cc33="0" cc102="0" cc42="0" cc110="0" cc62="0" cc9="0" cc26="0" cc5="0" cc1="0" cc77="0" cc10="0" cc43="0" cc115="0" cc13="0" cc38="0" cc16="0" cc84="0" cc95="0" cc8="0" cc107="0" cc41="0" cc60="0" cc3="0" cc45="0" cc12="0" cc87="0" cc22="0" cc35="0" cc11="0" cc18="0" cc0="0" cc28="0" cc76="0" cc21="0" cc92="0" cc83="0" cc100="0" cc50="0" cc72="0" cc74="0" cc7="0" cc51="0" cc17="0" cc106="0" cc119="0" cc19="0" cc81="0" cc34="0" cc55="0" cc111="0" cc75="0" cc59="0" cc57="0" cc123="0" cc124="0" cc47="0" cc2="0" cc73="0" cc82="0" cc101="0"/>
          <instrument name="sf2player">
            <sf2player gain="3.5599999" reverbOn="0" reverbWidth="0.5" chorusDepth="8" chorusNum="3" chorusLevel="2" reverbRoomSize="0.2" src="usersoundfont:SGM-V2.01.sf2" chorusSpeed="0.30000001" reverbDamping="0" patch="8" bank="128" reverbLevel="0.89999998" chorusOn="0">
              <key/>
            </sf2player>
          </instrument>
          <eldata fwet="0" fres="0.5" fcut="14000" ftype="0">
            <elvol x100="0" rel="0.1" lshp="0" dec="0.5" sustain="0.5" lspd="0.1" hold="0.5" pdel="0" ctlenvamt="0" latt="0" lspd_syncmode="0" att="0" amt="0" lspd_numerator="4" lpdel="0" lspd_denominator="4" userwavefile="" lamt="0"/>
            <elcut x100="0" rel="0.1" lshp="0" dec="0.5" sustain="0.5" lspd="0.1" hold="0.5" pdel="0" ctlenvamt="0" latt="0" lspd_syncmode="0" att="0" amt="0" lspd_numerator="4" lpdel="0" lspd_denominator="4" userwavefile="" lamt="0"/>
            <elres x100="0" rel="0.1" lshp="0" dec="0.5" sustain="0.5" lspd="0.1" hold="0.5" pdel="0" ctlenvamt="0" latt="0" lspd_syncmode="0" att="0" amt="0" lspd_numerator="4" lpdel="0" lspd_denominator="4" userwavefile="" lamt="0"/>
          </eldata>
          <chordcreator chordrange="1" chord="0" chord-enabled="0"/>
          <arpeggiator arptime_numerator="4" arprange="1" arp-enabled="0" arpcycle="0" arprepeats="1" arpmiss="0" arpskip="0" arptime="200" arpmode="0" arptime_syncmode="0" arpgate="100" arpdir="0" arp="0" arptime_denominator="4"/>
          <midiport outputprogram="1" readable="1" inputchannel="0" fixedoutputnote="-1" fixedinputvelocity="-1" writable="0" basevelocity="63" outputchannel="1" fixedoutputvelocity="-1" inputcontroller="-1" outputcontroller="-1" inports=""/>
          <fxchain enabled="0" numofeffects="0"/>
        </instrumenttrack>
        <midiclip muted="0" name="" pos="768" type="1" steps="16">
          <note pos="0" key="36" len="12" type="0" vol="100" pan="0"/>
          <note pos="24" key="44" len="12" type="0" vol="100" pan="0"/>
          <note pos="48" key="38" len="12" type="0" vol="100" pan="0"/>
          <note pos="72" key="42" len="12" type="0" vol="100" pan="0"/>
          <note pos="72" key="36" len="12" type="0" vol="100" pan="0"/>
          <note pos="96" key="46" len="12" type="0" vol="100" pan="0"/>
          <note pos="120" key="44" len="12" type="0" vol="100" pan="0"/>
          <note pos="120" key="36" len="12" type="0" vol="100" pan="0"/>
          <note pos="144" key="38" len="12" type="0" vol="100" pan="0"/>
          <note pos="168" key="51" len="12" type="0" vol="100" pan="0"/>
          <note pos="192" key="36" len="12" type="0" vol="100" pan="0"/>
          <note pos="216" key="44" len="12" type="0" vol="100" pan="0"/>
          <note pos="216" key="36" len="12" type="0" vol="100" pan="0"/>
          <note pos="240" key="38" len="12" type="0" vol="100" pan="0"/>
          <note pos="264" key="42" len="12" type="0" vol="100" pan="0"/>
          <note pos="264" key="36" len="12" type="0" vol="100" pan="0"/>
          <note pos="288" key="46" len="12" type="0" vol="100" pan="0"/>
          <note pos="312" key="44" len="12" type="0" vol="100" pan="0"/>
          <note pos="312" key="36" len="12" type="0" vol="100" pan="0"/>
          <note pos="336" key="46" len="12" type="0" vol="100" pan="0"/>
          <note pos="336" key="38" len="12" type="0" vol="100" pan="0"/>
          <note pos="360" key="44" len="12" type="0" vol="100" pan="0"/>
          <note pos="360" key="38" len="12" type="0" vol="100" pan="0"/>
          <note pos="372" key="38" len="12" type="0" vol="100" pan="0"/>
        </midiclip>
        <midiclip muted="0" name="" pos="1152" type="1" steps="16">
          <note pos="0" key="36" len="12" type="0" vol="100" pan="0"/>
          <note pos="24" key="44" len="12" type="0" vol="100" pan="0"/>
          <note pos="48" key="38" len="12" type="0" vol="100" pan="0"/>
          <note pos="72" key="42" len="12" type="0" vol="100" pan="0"/>
          <note pos="72" key="36" len="12" type="0" vol="100" pan="0"/>
          <note pos="96" key="46" len="12" type="0" vol="100" pan="0"/>
          <note pos="120" key="44" len="12" type="0" vol="100" pan="0"/>
          <note pos="120" key="36" len="12" type="0" vol="100" pan="0"/>
          <note pos="144" key="38" len="12" type="0" vol="100" pan="0"/>
          <note pos="168" key="51" len="12" type="0" vol="100" pan="0"/>
          <note pos="192" key="36" len="12" type="0" vol="100" pan="0"/>
          <note pos="216" key="44" len="12" type="0" vol="100" pan="0"/>
          <note pos="216" key="36" len="12" type="0" vol="100" pan="0"/>
          <note pos="240" key="38" len="12" type="0" vol="100" pan="0"/>
          <note pos="264" key="42" len="12" type="0" vol="100" pan="0"/>
          <note pos="264" key="36" len="12" type="0" vol="100" pan="0"/>
          <note pos="288" key="46" len="12" type="0" vol="100" pan="0"/>
          <note pos="312" key="44" len="12" type="0" vol="100" pan="0"/>
          <note pos="312" key="36" len="12" type="0" vol="100" pan="0"/>
          <note pos="336" key="46" len="12" type="0" vol="100" pan="0"/>
          <note pos="336" key="38" len="12" type="0" vol="100" pan="0"/>
          <note pos="360" key="44" len="12" type="0" vol="100" pan="0"/>
          <note pos="360" key="38" len="12" type="0" vol="100" pan="0"/>
          <note pos="372" key="38" len="12" type="0" vol="100" pan="0"/>
        </midiclip>
        <midiclip muted="0" name="" pos="1536" type="1" steps="16">
          <note pos="0" key="36" len="12" type="0" vol="100" pan="0"/>
          <note pos="24" key="44" len="12" type="0" vol="100" pan="0"/>
          <note pos="48" key="38" len="12" type="0" vol="100" pan="0"/>
          <note pos="72" key="42" len="12" type="0" vol="100" pan="0"/>
          <note pos="72" key="36" len="12" type="0" vol="100" pan="0"/>
          <note pos="96" key="46" len="12" type="0" vol="100" pan="0"/>
          <note pos="120" key="44" len="12" type="0" vol="100" pan="0"/>
          <note pos="120" key="36" len="12" type="0" vol="100" pan="0"/>
          <note pos="144" key="38" len="12" type="0" vol="100" pan="0"/>
          <note pos="168" key="51" len="12" type="0" vol="100" pan="0"/>
          <note pos="192" key="36" len="12" type="0" vol="100" pan="0"/>
          <note pos="216" key="44" len="12" type="0" vol="100" pan="0"/>
          <note pos="216" key="36" len="12" type="0" vol="100" pan="0"/>
          <note pos="240" key="38" len="12" type="0" vol="100" pan="0"/>
          <note pos="264" key="42" len="12" type="0" vol="100" pan="0"/>
          <note pos="264" key="36" len="12" type="0" vol="100" pan="0"/>
          <note pos="288" key="46" len="12" type="0" vol="100" pan="0"/>
          <note pos="312" key="44" len="12" type="0" vol="100" pan="0"/>
          <note pos="312" key="36" len="12" type="0" vol="100" pan="0"/>
          <note pos="336" key="46" len="12" type="0" vol="100" pan="0"/>
          <note pos="336" key="38" len="12" type="0" vol="100" pan="0"/>
          <note pos="360" key="44" len="12" type="0" vol="100" pan="0"/>
          <note pos="360" key="38" len="12" type="0" vol="100" pan="0"/>
          <note pos="372" key="38" len="12" type="0" vol="100" pan="0"/>
        </midiclip>
        <midiclip muted="0" name="" pos="1920" type="1" steps="16">
          <note pos="0" key="36" len="12" type="0" vol="100" pan="0"/>
          <note pos="24" key="44" len="12" type="0" vol="100" pan="0"/>
          <note pos="48" key="38" len="12" type="0" vol="100" pan="0"/>
          <note pos="72" key="42" len="12" type="0" vol="100" pan="0"/>
          <note pos="72" key="36" len="12" type="0" vol="100" pan="0"/>
          <note pos="96" key="46" len="12" type="0" vol="100" pan="0"/>
          <note pos="120" key="44" len="12" type="0" vol="100" pan="0"/>
          <note pos="120" key="36" len="12" type="0" vol="100" pan="0"/>
          <note pos="144" key="38" len="12" type="0" vol="100" pan="0"/>
          <note pos="168" key="51" len="12" type="0" vol="100" pan="0"/>
          <note pos="192" key="36" len="12" type="0" vol="100" pan="0"/>
          <note pos="216" key="44" len="12" type="0" vol="100" pan="0"/>
          <note pos="216" key="36" len="12" type="0" vol="100" pan="0"/>
          <note pos="240" key="38" len="12" type="0" vol="100" pan="0"/>
          <note pos="264" key="42" len="12" type="0" vol="100" pan="0"/>
          <note pos="264" key="36" len="12" type="0" vol="100" pan="0"/>
          <note pos="288" key="46" len="12" type="0" vol="100" pan="0"/>
          <note pos="312" key="44" len="12" type="0" vol="100" pan="0"/>
          <note pos="312" key="36" len="12" type="0" vol="100" pan="0"/>
          <note pos="336" key="46" len="12" type="0" vol="100" pan="0"/>
          <note pos="336" key="38" len="12" type="0" vol="100" pan="0"/>
          <note pos="360" key="44" len="12" type="0" vol="100" pan="0"/>
          <note pos="360" key="38" len="12" type="0" vol="100" pan="0"/>
          <note pos="372" key="38" len="12" type="0" vol="100" pan="0"/>
        </midiclip>
        <midiclip muted="0" name="" pos="0" type="1" steps="16">
          <note pos="0" key="36" len="12" type="0" vol="100" pan="0"/>
          <note pos="72" key="36" len="12" type="0" vol="100" pan="0"/>
          <note pos="120" key="36" len="12" type="0" vol="100" pan="0"/>
          <note pos="192" key="36" len="12" type="0" vol="100" pan="0"/>
          <note pos="216" key="36" len="12" type="0" vol="100" pan="0"/>
          <note pos="264" key="36" len="12" type="0" vol="100" pan="0"/>
          <note pos="312" key="36" len="12" type="0" vol="100" pan="0"/>
        </midiclip>
        <midiclip muted="0" name="" pos="384" type="1" steps="16">
          <note pos="0" key="36" len="12" type="0" vol="100" pan="0"/>
          <note pos="72" key="36" len="12" type="0" vol="100" pan="0"/>
          <note pos="120" key="36" len="12" type="0" vol="100" pan="0"/>
          <note pos="192" key="36" len="12" type="0" vol="100" pan="0"/>
          <note pos="216" key="36" len="12" type="0" vol="100" pan="0"/>
          <note pos="264" key="36" len="12" type="0" vol="100" pan="0"/>
          <note pos="312" key="36" len="12" type="0" vol="100" pan="0"/>
        </midiclip>
        <midiclip muted="0" name="" pos="2304" type="1" steps="16">
          <note pos="0" key="36" len="12" type="0" vol="100" pan="0"/>
          <note pos="24" key="44" len="12" type="0" vol="100" pan="0"/>
          <note pos="48" key="38" len="12" type="0" vol="100" pan="0"/>
          <note pos="72" key="42" len="12" type="0" vol="100" pan="0"/>
          <note pos="72" key="36" len="12" type="0" vol="100" pan="0"/>
          <note pos="96" key="46" len="12" type="0" vol="100" pan="0"/>
          <note pos="120" key="44" len="12" type="0" vol="100" pan="0"/>
          <note pos="120" key="36" len="12" type="0" vol="100" pan="0"/>
          <note pos="144" key="38" len="12" type="0" vol="100" pan="0"/>
          <note pos="168" key="51" len="12" type="0" vol="100" pan="0"/>
          <note pos="192" key="36" len="12" type="0" vol="100" pan="0"/>
          <note pos="216" key="44" len="12" type="0" vol="100" pan="0"/>
          <note pos="216" key="36" len="12" type="0" vol="100" pan="0"/>
          <note pos="240" key="38" len="12" type="0" vol="100" pan="0"/>
          <note pos="264" key="42" len="12" type="0" vol="100" pan="0"/>
          <note pos="264" key="36" len="12" type="0" vol="100" pan="0"/>
          <note pos="288" key="46" len="12" type="0" vol="100" pan="0"/>
          <note pos="312" key="44" len="12" type="0" vol="100" pan="0"/>
          <note pos="312" key="36" len="12" type="0" vol="100" pan="0"/>
          <note pos="336" key="46" len="12" type="0" vol="100" pan="0"/>
          <note pos="336" key="38" len="12" type="0" vol="100" pan="0"/>
          <note pos="360" key="44" len="12" type="0" vol="100" pan="0"/>
          <note pos="360" key="38" len="12" type="0" vol="100" pan="0"/>
          <note pos="372" key="38" len="12" type="0" vol="100" pan="0"/>
        </midiclip>
        <midiclip muted="0" name="" pos="2688" type="1" steps="16">
          <note pos="0" key="36" len="12" type="0" vol="100" pan="0"/>
          <note pos="24" key="44" len="12" type="0" vol="100" pan="0"/>
          <note pos="48" key="38" len="12" type="0" vol="100" pan="0"/>
          <note pos="72" key="42" len="12" type="0" vol="100" pan="0"/>
          <note pos="72" key="36" len="12" type="0" vol="100" pan="0"/>
          <note pos="96" key="46" len="12" type="0" vol="100" pan="0"/>
          <note pos="120" key="44" len="12" type="0" vol="100" pan="0"/>
          <note pos="120" key="36" len="12" type="0" vol="100" pan="0"/>
          <note pos="144" key="38" len="12" type="0" vol="100" pan="0"/>
          <note pos="168" key="51" len="12" type="0" vol="100" pan="0"/>
          <note pos="192" key="36" len="12" type="0" vol="100" pan="0"/>
          <note pos="216" key="44" len="12" type="0" vol="100" pan="0"/>
          <note pos="216" key="36" len="12" type="0" vol="100" pan="0"/>
          <note pos="240" key="38" len="12" type="0" vol="100" pan="0"/>
          <note pos="264" key="42" len="12" type="0" vol="100" pan="0"/>
          <note pos="264" key="36" len="12" type="0" vol="100" pan="0"/>
          <note pos="288" key="46" len="12" type="0" vol="100" pan="0"/>
          <note pos="312" key="44" len="12" type="0" vol="100" pan="0"/>
          <note pos="312" key="36" len="12" type="0" vol="100" pan="0"/>
          <note pos="336" key="46" len="12" type="0" vol="100" pan="0"/>
          <note pos="336" key="38" len="12" type="0" vol="100" pan="0"/>
          <note pos="360" key="44" len="12" type="0" vol="100" pan="0"/>
          <note pos="360" key="38" len="12" type="0" vol="100" pan="0"/>
          <note pos="372" key="38" len="12" type="0" vol="100" pan="0"/>
        </midiclip>
        <midiclip muted="0" name="" pos="3072" type="1" steps="16">
          <note pos="0" key="36" len="12" type="0" vol="100" pan="0"/>
          <note pos="24" key="44" len="12" type="0" vol="100" pan="0"/>
          <note pos="48" key="38" len="12" type="0" vol="100" pan="0"/>
          <note pos="72" key="42" len="12" type="0" vol="100" pan="0"/>
          <note pos="72" key="36" len="12" type="0" vol="100" pan="0"/>
          <note pos="96" key="46" len="12" type="0" vol="100" pan="0"/>
          <note pos="120" key="44" len="12" type="0" vol="100" pan="0"/>
          <note pos="120" key="36" len="12" type="0" vol="100" pan="0"/>
          <note pos="144" key="38" len="12" type="0" vol="100" pan="0"/>
          <note pos="168" key="51" len="12" type="0" vol="100" pan="0"/>
          <note pos="192" key="36" len="12" type="0" vol="100" pan="0"/>
          <note pos="216" key="44" len="12" type="0" vol="100" pan="0"/>
          <note pos="216" key="36" len="12" type="0" vol="100" pan="0"/>
          <note pos="240" key="38" len="12" type="0" vol="100" pan="0"/>
          <note pos="264" key="42" len="12" type="0" vol="100" pan="0"/>
          <note pos="264" key="36" len="12" type="0" vol="100" pan="0"/>
          <note pos="288" key="46" len="12" type="0" vol="100" pan="0"/>
          <note pos="312" key="44" len="12" type="0" vol="100" pan="0"/>
          <note pos="312" key="36" len="12" type="0" vol="100" pan="0"/>
          <note pos="336" key="46" len="12" type="0" vol="100" pan="0"/>
          <note pos="336" key="38" len="12" type="0" vol="100" pan="0"/>
          <note pos="360" key="44" len="12" type="0" vol="100" pan="0"/>
          <note pos="360" key="38" len="12" type="0" vol="100" pan="0"/>
          <note pos="372" key="38" len="12" type="0" vol="100" pan="0"/>
        </midiclip>
        <midiclip muted="0" name="" pos="3456" type="1" steps="16">
          <note pos="0" key="36" len="12" type="0" vol="100" pan="0"/>
          <note pos="24" key="44" len="12" type="0" vol="100" pan="0"/>
          <note pos="48" key="38" len="12" type="0" vol="100" pan="0"/>
          <note pos="72" key="42" len="12" type="0" vol="100" pan="0"/>
          <note pos="72" key="36" len="12" type="0" vol="100" pan="0"/>
          <note pos="96" key="46" len="12" type="0" vol="100" pan="0"/>
          <note pos="120" key="44" len="12" type="0" vol="100" pan="0"/>
          <note pos="120" key="36" len="12" type="0" vol="100" pan="0"/>
          <note pos="144" key="38" len="12" type="0" vol="100" pan="0"/>
          <note pos="168" key="51" len="12" type="0" vol="100" pan="0"/>
          <note pos="192" key="36" len="12" type="0" vol="100" pan="0"/>
          <note pos="216" key="44" len="12" type="0" vol="100" pan="0"/>
          <note pos="216" key="36" len="12" type="0" vol="100" pan="0"/>
          <note pos="240" key="38" len="12" type="0" vol="100" pan="0"/>
          <note pos="264" key="42" len="12" type="0" vol="100" pan="0"/>
          <note pos="264" key="36" len="12" type="0" vol="100" pan="0"/>
          <note pos="288" key="46" len="12" type="0" vol="100" pan="0"/>
          <note pos="312" key="44" len="12" type="0" vol="100" pan="0"/>
          <note pos="312" key="36" len="12" type="0" vol="100" pan="0"/>
          <note pos="336" key="46" len="12" type="0" vol="100" pan="0"/>
          <note pos="336" key="38" len="12" type="0" vol="100" pan="0"/>
          <note pos="360" key="44" len="12" type="0" vol="100" pan="0"/>
          <note pos="360" key="38" len="12" type="0" vol="100" pan="0"/>
          <note pos="372" key="38" len="12" type="0" vol="100" pan="0"/>
        </midiclip>
        <midiclip muted="0" name="" pos="4032" type="1" steps="16">
          <note pos="0" key="36" len="12" type="0" vol="100" pan="0"/>
          <note pos="36" key="42" len="12" type="0" vol="100" pan="0"/>
          <note pos="36" key="36" len="12" type="0" vol="100" pan="0"/>
          <note pos="72" key="38" len="12" type="0" vol="100" pan="0"/>
          <note pos="72" key="36" len="12" type="0" vol="100" pan="0"/>
          <note pos="108" key="42" len="12" type="0" vol="100" pan="0"/>
          <note pos="108" key="36" len="12" type="0" vol="100" pan="0"/>
          <note pos="144" key="46" len="12" type="0" vol="100" pan="0"/>
          <note pos="144" key="36" len="12" type="0" vol="100" pan="0"/>
          <note pos="180" key="44" len="12" type="0" vol="100" pan="0"/>
          <note pos="180" key="36" len="12" type="0" vol="100" pan="0"/>
        </midiclip>
        <midiclip muted="0" name="" pos="4224" type="1" steps="16">
          <note pos="0" key="36" len="12" type="0" vol="100" pan="0"/>
          <note pos="36" key="46" len="12" type="0" vol="100" pan="0"/>
          <note pos="36" key="38" len="12" type="0" vol="100" pan="0"/>
          <note pos="36" key="36" len="12" type="0" vol="100" pan="0"/>
          <note pos="72" key="44" len="12" type="0" vol="100" pan="0"/>
          <note pos="72" key="36" len="12" type="0" vol="100" pan="0"/>
          <note pos="96" key="42" len="12" type="0" vol="100" pan="0"/>
          <note pos="96" key="38" len="12" type="0" vol="100" pan="0"/>
          <note pos="96" key="36" len="12" type="0" vol="100" pan="0"/>
          <note pos="132" key="46" len="12" type="0" vol="100" pan="0"/>
          <note pos="132" key="36" len="12" type="0" vol="100" pan="0"/>
          <note pos="168" key="44" len="12" type="0" vol="100" pan="0"/>
          <note pos="168" key="36" len="12" type="0" vol="100" pan="0"/>
        </midiclip>
        <midiclip muted="0" name="" pos="4416" type="1" steps="16">
          <note pos="0" key="36" len="12" type="0" vol="100" pan="0"/>
          <note pos="36" key="42" len="12" type="0" vol="100" pan="0"/>
          <note pos="36" key="36" len="12" type="0" vol="100" pan="0"/>
          <note pos="72" key="38" len="12" type="0" vol="100" pan="0"/>
          <note pos="72" key="36" len="12" type="0" vol="100" pan="0"/>
          <note pos="108" key="42" len="12" type="0" vol="100" pan="0"/>
          <note pos="108" key="36" len="12" type="0" vol="100" pan="0"/>
          <note pos="144" key="46" len="12" type="0" vol="100" pan="0"/>
          <note pos="144" key="36" len="12" type="0" vol="100" pan="0"/>
          <note pos="180" key="44" len="12" type="0" vol="100" pan="0"/>
          <note pos="180" key="36" len="12" type="0" vol="100" pan="0"/>
        </midiclip>
        <midiclip muted="0" name="" pos="4608" type="1" steps="16">
          <note pos="0" key="36" len="12" type="0" vol="100" pan="0"/>
          <note pos="36" key="46" len="12" type="0" vol="100" pan="0"/>
          <note pos="36" key="38" len="12" type="0" vol="100" pan="0"/>
          <note pos="36" key="36" len="12" type="0" vol="100" pan="0"/>
          <note pos="72" key="44" len="12" type="0" vol="100" pan="0"/>
          <note pos="72" key="36" len="12" type="0" vol="100" pan="0"/>
          <note pos="96" key="42" len="12" type="0" vol="100" pan="0"/>
          <note pos="96" key="38" len="12" type="0" vol="100" pan="0"/>
          <note pos="96" key="36" len="12" type="0" vol="100" pan="0"/>
          <note pos="132" key="46" len="12" type="0" vol="100" pan="0"/>
          <note pos="132" key="36" len="12" type="0" vol="100" pan="0"/>
          <note pos="168" key="44" len="12" type="0" vol="100" pan="0"/>
          <note pos="168" key="36" len="12" type="0" vol="100" pan="0"/>
        </midiclip>
      </track>
      <track muted="1" name="Touhou" mutedBeforeSolo="1" type="0" solo="0">
        <instrumenttrack pitchrange="1" enabled="0" scale="0" basenote="69" firstkey="0" range_import="1" vol="100" pitch="0" usemasterpitch="1" keymap="0" pan="0" mixch="0" enablecc="0" lastkey="127">
          <midicontrollers cc67="0" cc88="0" cc93="0" cc105="0" cc4="0" cc66="0" cc46="0" cc14="0" cc85="0" cc89="0" cc103="0" cc90="0" cc96="0" cc99="0" cc70="0" cc121="0" cc108="0" cc37="0" cc125="0" cc36="0" cc94="0" cc114="0" cc79="0" cc116="0" cc23="0" cc109="0" cc52="0" cc104="0" cc49="0" cc112="0" cc120="0" cc98="0" cc54="0" cc31="0" cc78="0" cc65="0" cc29="0" cc86="0" cc56="0" cc122="0" cc24="0" cc80="0" cc15="0" cc117="0" cc25="0" cc39="0" cc68="0" cc63="0" cc44="0" cc27="0" cc61="0" cc64="0" cc91="0" cc97="0" cc6="0" cc20="0" cc32="0" cc127="0" cc48="0" cc118="0" cc69="0" cc126="0" cc58="0" cc71="0" cc30="0" cc53="0" cc40="0" cc113="0" cc33="0" cc102="0" cc42="0" cc110="0" cc62="0" cc9="0" cc26="0" cc5="0" cc1="0" cc77="0" cc10="0" cc43="0" cc115="0" cc13="0" cc38="0" cc16="0" cc84="0" cc95="0" cc8="0" cc107="0" cc41="0" cc60="0" cc3="0" cc45="0" cc12="0" cc87="0" cc22="0" cc35="0" cc11="0" cc18="0" cc0="0" cc28="0" cc76="0" cc21="0" cc92="0" cc83="0" cc100="0" cc50="0" cc72="0" cc74="0" cc7="0" cc51="0" cc17="0" cc106="0" cc119="0" cc19="0" cc81="0" cc34="0" cc55="0" cc111="0" cc75="0" cc59="0" cc57="0" cc123="0" cc124="0" cc47="0" cc2="0" cc73="0" cc82="0" cc101="0"/>
          <instrument name="sf2player">
            <sf2player gain="1" reverbOn="0" reverbWidth="0.5" chorusDepth="8" chorusNum="3" chorusLevel="2" reverbRoomSize="0.2" src="usersoundfont:Touhou.sf2" chorusSpeed="0.30000001" reverbDamping="0" patch="43" bank="0" reverbLevel="0.89999998" chorusOn="0">
              <key/>
            </sf2player>
          </instrument>
          <eldata fwet="0" fres="0.5" fcut="14000" ftype="0">
            <elvol x100="0" rel="0.1" lshp="0" dec="0.5" sustain="0.5" lspd="0.1" hold="0.5" pdel="0" ctlenvamt="0" latt="0" lspd_syncmode="0" att="0" amt="0" lspd_numerator="4" lpdel="0" lspd_denominator="4" userwavefile="" lamt="0"/>
            <elcut x100="0" rel="0.1" lshp="0" dec="0.5" sustain="0.5" lspd="0.1" hold="0.5" pdel="0" ctlenvamt="0" latt="0" lspd_syncmode="0" att="0" amt="0" lspd_numerator="4" lpdel="0" lspd_denominator="4" userwavefile="" lamt="0"/>
            <elres x100="0" rel="0.1" lshp="0" dec="0.5" sustain="0.5" lspd="0.1" hold="0.5" pdel="0" ctlenvamt="0" latt="0" lspd_syncmode="0" att="0" amt="0" lspd_numerator="4" lpdel="0" lspd_denominator="4" userwavefile="" lamt="0"/>
          </eldata>
          <chordcreator chordrange="1" chord="0" chord-enabled="0"/>
          <arpeggiator arptime_numerator="4" arprange="1" arp-enabled="0" arpcycle="0" arprepeats="1" arpmiss="0" arpskip="0" arptime="200" arpmode="0" arptime_syncmode="0" arpgate="100" arpdir="0" arp="0" arptime_denominator="4"/>
          <midiport outputprogram="1" readable="1" inputchannel="0" fixedoutputnote="-1" fixedinputvelocity="-1" writable="0" basevelocity="63" outputchannel="1" fixedoutputvelocity="-1" inputcontroller="-1" outputcontroller="-1" inports=""/>
          <fxchain enabled="0" numofeffects="0"/>
        </instrumenttrack>
        <midiclip muted="0" name="" pos="1536" type="1" steps="16">
          <note pos="0" key="36" len="96" type="0" vol="100" pan="0"/>
          <note pos="96" key="39" len="96" type="0" vol="100" pan="0"/>
          <note pos="192" key="41" len="96" type="0" vol="100" pan="0"/>
          <note pos="288" key="45" len="96" type="0" vol="100" pan="0"/>
          <note pos="384" key="39" len="96" type="0" vol="100" pan="0"/>
          <note pos="480" key="43" len="96" type="0" vol="100" pan="0"/>
          <note pos="576" key="36" len="96" type="0" vol="100" pan="0"/>
          <note pos="672" key="41" len="96" type="0" vol="100" pan="0"/>
        </midiclip>
      </track>
    </trackcontainer>
    <track muted="0" name="Automation track" mutedBeforeSolo="0" type="6" solo="0">
      <automationtrack/>
      <automationclip name="Numerator" pos="0" prog="0" tens="1" mute="0" len="192"/>
      <automationclip name="Denominator" pos="0" prog="0" tens="1" mute="0" len="192"/>
      <automationclip name="Tempo" pos="0" prog="0" tens="1" mute="0" len="192"/>
      <automationclip name="Master volume" pos="0" prog="0" tens="1" mute="0" len="192"/>
      <automationclip name="Master pitch" pos="0" prog="0" tens="1" mute="0" len="192"/>
    </track>
    <mixer width="874" x="18" height="369" visible="1" y="532" maximized="0" minimized="0">
      <mixerchannel muted="0" name="Master" num="0" volume="1" soloed="0">
        <fxchain enabled="1" numofeffects="2">
          <effect autoquit_syncmode="0" name="eq" autoquit_denominator="4" autoquit="1" on="1" wet="1" autoquit_numerator="4" gate="0">
            <Eq HP24="0" Peak4bw="0.30000001" Peak4gain="0" Peak2bw="0.30000001" HPres="0.70700002" Peak4active="0" Lowshelfgain="0" Peak2active="0" Peak2gain="0" AnalyseIn="1" Outputgain="0" Lowshelfactive="0" HighShelfres="1.4" LP12="1" LP48="0" LPactive="1" Highshelfactive="0" HP12="0" HP48="1" HPactive="1" Peak1bw="0.30000001" LowShelfres="1.4" Peak3bw="0.30000001" Peak3active="0" LP="0" HP="2" Peak1active="0" LPres="0.70700002" Peak3gain="0" HighShelfgain="0" LP24="0" AnalyseOut="1">
              <Inputgain value="0" id="2885" scale_type="log"/>
              <Peak1gain value="0" id="17275" scale_type="log"/>
              <HPfreq value="31" id="32652" scale_type="log"/>
              <LowShelffreq value="80" id="19546" scale_type="log"/>
              <Peak1freq value="120" id="3212" scale_type="log"/>
              <Peak2freq value="250" id="29788" scale_type="log"/>
              <Peak3freq value="2000" id="12078" scale_type="log"/>
              <Peak4freq value="4000" id="9627" scale_type="log"/>
              <Highshelffreq value="12000" id="5265" scale_type="log"/>
              <LPfreq value="18000" id="15396" scale_type="log"/>
            </Eq>
            <key/>
          </effect>
          <effect autoquit_syncmode="0" name="eq" autoquit_denominator="4" autoquit="1" on="1" wet="1" autoquit_numerator="4" gate="0">
            <Eq HP24="0" Peak4bw="0.30000001" Peak4gain="0" Peak2bw="0.30000001" HPres="0.70700002" Peak4active="0" Lowshelfgain="0" Peak2active="0" Peak2gain="0" AnalyseIn="1" Outputgain="0" Lowshelfactive="0" HighShelfres="1.4" LP12="1" LP48="0" LPactive="1" Highshelfactive="0" HP12="0" HP48="1" HPactive="1" Peak1bw="0.30000001" LowShelfres="1.4" Peak3bw="0.30000001" Peak3active="0" LP="0" HP="2" Peak1active="0" LPres="0.70700002" Peak3gain="0" HighShelfgain="0" LP24="0" AnalyseOut="1">
              <Inputgain value="0" id="18633" scale_type="log"/>
              <Peak1gain value="0" id="10603" scale_type="log"/>
              <HPfreq value="31" id="30086" scale_type="log"/>
              <LowShelffreq value="80" id="24058" scale_type="log"/>
              <Peak1freq value="120" id="4733" scale_type="log"/>
              <Peak2freq value="250" id="29176" scale_type="log"/>
              <Peak3freq value="2000" id="18519" scale_type="log"/>
              <Peak4freq value="4000" id="25335" scale_type="log"/>
              <Highshelffreq value="12000" id="1362" scale_type="log"/>
              <LPfreq value="18000" id="9533" scale_type="log"/>
            </Eq>
            <key/>
          </effect>
        </fxchain>
      </mixerchannel>
      <mixerchannel muted="0" name="ChoriumRevA" num="1" volume="1" soloed="0">
        <fxchain enabled="1" numofeffects="2">
          <effect autoquit_syncmode="0" name="eq" autoquit_denominator="4" autoquit="1" on="1" wet="1" autoquit_numerator="4" gate="0">
            <Eq HP24="0" Peak4bw="1.9520001" Peak4gain="-3.96" Peak2bw="0.30000001" HPres="0.70700002" Peak4active="1" Lowshelfgain="-6.6600003" Peak2active="0" Peak2gain="0" AnalyseIn="1" Outputgain="0" Lowshelfactive="0" HighShelfres="0.70700002" LP12="1" LP48="0" LPactive="0" Highshelfactive="0" HP12="0" HP48="1" HPactive="1" Peak1bw="4" LowShelfres="0.70700002" Peak3bw="0.30000001" Peak3active="0" LP="0" HP="2" Peak1active="1" LPres="0.70700002" Peak3gain="0" HighShelfgain="0" LP24="0" AnalyseOut="1">
              <Inputgain value="0" id="4092" scale_type="log"/>
              <Peak1gain value="-9.7200003" id="13468" scale_type="log"/>
              <HPfreq value="31.000004" id="11017" scale_type="log"/>
              <LowShelffreq value="540.77515" id="20931" scale_type="log"/>
              <Peak1freq value="135.2057" id="1734" scale_type="log"/>
              <Peak2freq value="249.99995" id="32732" scale_type="log"/>
              <Peak3freq value="1999.9996" id="20788" scale_type="log"/>
              <Peak4freq value="8486.4619" id="22669" scale_type="log"/>
              <Highshelffreq value="11999.999" id="31950" scale_type="log"/>
              <LPfreq value="17999.996" id="7124" scale_type="log"/>
            </Eq>
            <key/>
          </effect>
          <effect autoquit_syncmode="0" name="vsteffect" autoquit_denominator="4" autoquit="1" on="1" wet="1" autoquit_numerator="4" gate="0">
            <vsteffectcontrols plugin="Effects\Classic Reverb\Classic Reverb.dll" numparams="8" param5="5:Early Ref.:0" param1="1:Damping:0.37" param6="6:Mix:0.2" param0="0:Size:0.84" param3="3:Hi Damp:0.5" program="0" param2="2:Predelay:0.5" param4="4:Lo Cut:0.3" param7="7:Level:0.5" guivisible="0"/>
            <key>
              <attribute name="file" value="Effects\Classic Reverb\Classic Reverb.dll"/>
            </key>
          </effect>
        </fxchain>
        <send channel="0" amount="1"/>
      </mixerchannel>
      <mixerchannel muted="0" name="GiantSoundfontV6" num="2" volume="1" soloed="0">
        <fxchain enabled="1" numofeffects="1">
          <effect autoquit_syncmode="0" name="vsteffect" autoquit_denominator="4" autoquit="1" on="1" wet="1" autoquit_numerator="4" gate="0">
            <vsteffectcontrols param6="6:Time:0.5" param5="5:T.S.D.:0.47" param7="7:Feedback:0.3" param0="0" param3="3:Sync:1" param4="4:T.S.N.:0.15" guivisible="0" program="0" plugin="Effects\Classic Delay\Classic Delay.dll" param11="11:Hi Cut:1" param9="9:Quality:1" param10="10:Low Cut:1" param13="13:Level:0.5" param8="8:Ping-Pong:1" param1="1:Mono:0" param12="12:Mix:0.22" param2="2:Type:0.5" numparams="14">
              <connection>
                <param0 id="0"/>
              </connection>
            </vsteffectcontrols>
            <key>
              <attribute name="file" value="Effects\Classic Delay\Classic Delay.dll"/>
            </key>
          </effect>
        </fxchain>
        <send channel="0" amount="1"/>
      </mixerchannel>
      <mixerchannel muted="0" name="Touhou" num="3" volume="1" soloed="0">
        <fxchain enabled="1" numofeffects="1">
          <effect autoquit_syncmode="0" name="vsteffect" autoquit_denominator="4" autoquit="1" on="1" wet="1" autoquit_numerator="4" gate="0">
            <vsteffectcontrols plugin="Effects\Classic Reverb\Classic Reverb.dll" numparams="8" param5="5:Early Ref.:0.6" param1="1:Damping:0.3" param6="6:Mix:0.12" param0="0:Size:0.75" param3="3:Hi Damp:1" program="0" param2="2:Predelay:0.5" param4="4:Lo Cut:0.3" param7="7:Level:0.5" guivisible="0"/>
            <key>
              <attribute name="file" value="Effects\Classic Reverb\Classic Reverb.dll"/>
            </key>
          </effect>
        </fxchain>
        <send channel="0" amount="1"/>
      </mixerchannel>
      <mixerchannel muted="0" name="GeneralUser GS v1" num="4" volume="1" soloed="0">
        <fxchain enabled="1" numofeffects="2">
          <effect autoquit_syncmode="0" name="stereomatrix" autoquit_denominator="4" autoquit="1" on="1" wet="1" autoquit_numerator="4" gate="0">
            <stereomatrixcontrols r-r="0.5" l-r="0.5" r-l="0.5" l-l="0.5"/>
            <key/>
          </effect>
          <effect autoquit_syncmode="0" name="vsteffect" autoquit_denominator="4" autoquit="1" on="1" wet="1" autoquit_numerator="4" gate="0">
            <vsteffectcontrols plugin="Effects\Classic Reverb\Classic Reverb.dll" numparams="8" param5="5:Early Ref.:0" param1="1:Damping:0.3" param6="6:Mix:0.14" param0="0:Size:0.91" param3="3:Hi Damp:0.5" program="0" param2="2:Predelay:0.5" param4="4:Lo Cut:1" param7="7:Level:0.5" guivisible="0"/>
            <key>
              <attribute name="file" value="Effects\Classic Reverb\Classic Reverb.dll"/>
            </key>
          </effect>
        </fxchain>
        <send channel="0" amount="1"/>
      </mixerchannel>
    </mixer>
    <ControllerRackView width="350" x="550" height="200" visible="0" y="487" maximized="0" minimized="0"/>
    <pianoroll width="970" x="553" stopbehaviour="1" height="593" visible="0" y="329" maximized="0" minimized="0"/>
    <automationeditor width="860" x="588" height="400" visible="0" y="241" maximized="0" minimized="0"/>
    <projectnotes width="692" x="879" height="528" visible="1" y="392" maximized="0" minimized="0"><![CDATA[<!DOCTYPE HTML PUBLIC "-//W3C//DTD HTML 4.0//EN" "http://www.w3.org/TR/REC-html40/strict.dtd">
<html><head><meta name="qrichtext" content="1" /><style type="text/css">
p, li { white-space: pre-wrap; }
</style></head><body style=" font-family:'MS Shell Dlg 2'; font-size:8.25pt; font-weight:400; font-style:normal;">
<p style=" margin-top:0px; margin-bottom:0px; margin-left:0px; margin-right:0px; -qt-block-indent:0; text-indent:0px;"><span style=" color:#e0e0e0;">Greetings.</span></p>
<p style=" margin-top:0px; margin-bottom:0px; margin-left:0px; margin-right:0px; -qt-block-indent:0; text-indent:0px;"><span style=" color:#e0e0e0;">Please use this in LMMS 1.3 or higher. Previous versions require editing to load correctly.</span></p>
<p style="-qt-paragraph-type:empty; margin-top:0px; margin-bottom:0px; margin-left:0px; margin-right:0px; -qt-block-indent:0; text-indent:0px; color:#e0e0e0;"><br /></p>
<p style=" margin-top:0px; margin-bottom:0px; margin-left:0px; margin-right:0px; -qt-block-indent:0; text-indent:0px;"><span style=" color:#e0e0e0;">Instruments:</span></p>
<p style="-qt-paragraph-type:empty; margin-top:0px; margin-bottom:0px; margin-left:0px; margin-right:0px; -qt-block-indent:0; text-indent:0px; color:#e0e0e0;"><br /></p>
<p style=" margin-top:0px; margin-bottom:0px; margin-left:0px; margin-right:0px; -qt-block-indent:0; text-indent:0px;"><span style=" color:#e0e0e0;">Effects:</span></p>
<p style="-qt-paragraph-type:empty; margin-top:0px; margin-bottom:0px; margin-left:0px; margin-right:0px; -qt-block-indent:0; text-indent:0px; color:#e0e0e0;"><br /></p>
<p style=" margin-top:0px; margin-bottom:0px; margin-left:0px; margin-right:0px; -qt-block-indent:0; text-indent:0px;"><span style=" color:#e0e0e0;">Released as .mmp, adjust paths as desired.</span></p>
<p style=" margin-top:0px; margin-bottom:0px; margin-left:0px; margin-right:0px; -qt-block-indent:0; text-indent:0px;"><span style=" color:#e0e0e0;">____</span></p>
<p style="-qt-paragraph-type:empty; margin-top:0px; margin-bottom:0px; margin-left:0px; margin-right:0px; -qt-block-indent:0; text-indent:0px; color:#e0e0e0;"><br /></p>
<p style=" margin-top:0px; margin-bottom:0px; margin-left:0px; margin-right:0px; -qt-block-indent:0; text-indent:0px;">Please note that the author explicitely wishes to have eventual derivates or redistributions distributed ONLY as .mmp files, not .mmpz.</p>
<p style=" margin-top:0px; margin-bottom:0px; margin-left:0px; margin-right:0px; -qt-block-indent:0; text-indent:0px;">There is nothing the license can do from stopping you as saving it as .mmpz, except that the author will insult you severely.</p>
<p style="-qt-paragraph-type:empty; margin-top:0px; margin-bottom:0px; margin-left:0px; margin-right:0px; -qt-block-indent:0; text-indent:0px;"><br /></p>
<p style=" margin-top:0px; margin-bottom:0px; margin-left:0px; margin-right:0px; -qt-block-indent:0; text-indent:0px;">Should you have received this file as an .mmpz, please insult its forwarder.</p>
<p style=" margin-top:0px; margin-bottom:0px; margin-left:0px; margin-right:0px; -qt-block-indent:0; text-indent:0px;">To convert the file into .mmp, follow these steps:</p>
<p style="-qt-paragraph-type:empty; margin-top:0px; margin-bottom:0px; margin-left:0px; margin-right:0px; -qt-block-indent:0; text-indent:0px;"><br /></p>
<p style=" margin-top:0px; margin-bottom:0px; margin-left:0px; margin-right:0px; -qt-block-indent:0; text-indent:0px;">1.: Create a a file called &quot;Decompress.cmd&quot; in the LMMS directory. (Where lmms.exe is located.)</p>
<p style=" margin-top:0px; margin-bottom:0px; margin-left:0px; margin-right:0px; -qt-block-indent:0; text-indent:0px;">2.: Right click on file, click &quot;Edit&quot;.</p>
<p style=" margin-top:0px; margin-bottom:0px; margin-left:0px; margin-right:0px; -qt-block-indent:0; text-indent:0px;">3.: Put the following line into the file:</p>
<p style="-qt-paragraph-type:empty; margin-top:0px; margin-bottom:0px; margin-left:0px; margin-right:0px; -qt-block-indent:0; text-indent:0px;"><br /></p>
<p style=" margin-top:0px; margin-bottom:0px; margin-left:0px; margin-right:0px; -qt-block-indent:0; text-indent:0px;">&quot;%~dp0LMMS.exe&quot; -d &quot;%*&quot; &gt; &quot;%*.mmp&quot;</p>
<p style="-qt-paragraph-type:empty; margin-top:0px; margin-bottom:0px; margin-left:0px; margin-right:0px; -qt-block-indent:0; text-indent:0px;"><br /></p>
<p style=" margin-top:0px; margin-bottom:0px; margin-left:0px; margin-right:0px; -qt-block-indent:0; text-indent:0px;">This does the following:</p>
<p style=" margin-top:0px; margin-bottom:0px; margin-left:0px; margin-right:0px; -qt-block-indent:0; text-indent:0px;">%~dp0 return the folder where the .cmd file is located.</p>
<p style=" margin-top:0px; margin-bottom:0px; margin-left:0px; margin-right:0px; -qt-block-indent:0; text-indent:0px;">It then calls LMMS.exe inside that folder.</p>
<p style=" margin-top:0px; margin-bottom:0px; margin-left:0px; margin-right:0px; -qt-block-indent:0; text-indent:0px;">-d is the decompress option for an .mmpz file.</p>
<p style=" margin-top:0px; margin-bottom:0px; margin-left:0px; margin-right:0px; -qt-block-indent:0; text-indent:0px;">%* returns any parameters given to the .cmd file.</p>
<p style=" margin-top:0px; margin-bottom:0px; margin-left:0px; margin-right:0px; -qt-block-indent:0; text-indent:0px;">&gt; sends the output into a file.</p>
<p style="-qt-paragraph-type:empty; margin-top:0px; margin-bottom:0px; margin-left:0px; margin-right:0px; -qt-block-indent:0; text-indent:0px;"><br /></p>
<p style=" margin-top:0px; margin-bottom:0px; margin-left:0px; margin-right:0px; -qt-block-indent:0; text-indent:0px;">If you drag an .mmpz file onto the .cmd file, it will decompress it into &quot;[filename].mmpz.mmp&quot;, at the original location.</p>
<p style="-qt-paragraph-type:empty; margin-top:0px; margin-bottom:0px; margin-left:0px; margin-right:0px; -qt-block-indent:0; text-indent:0px;"><br /></p></body></html>]]></projectnotes>
    <timeline lp1pos="4800" lpstate="1" stopbehaviour="1" lp0pos="0"/>
    <controllers>
      <lfocontroller multiplier="0" name="Controller 1" base="0.5" speed="0.97560972" phase="0" wave="0" type="1" speed_numerator="4" speed_syncmode="3" speed_denominator="4" amount="0.77999997" userwavefile=""/>
    </controllers>
    <scales>
      <scale description="empty">
        <interval den="1" num="1"/>
      </scale>
      <scale description="empty">
        <interval den="1" num="1"/>
      </scale>
      <scale description="empty">
        <interval den="1" num="1"/>
      </scale>
      <scale description="empty">
        <interval den="1" num="1"/>
      </scale>
      <scale description="empty">
        <interval den="1" num="1"/>
      </scale>
      <scale description="empty">
        <interval den="1" num="1"/>
      </scale>
      <scale description="empty">
        <interval den="1" num="1"/>
      </scale>
      <scale description="empty">
        <interval den="1" num="1"/>
      </scale>
      <scale description="empty">
        <interval den="1" num="1"/>
      </scale>
      <scale description="empty">
        <interval den="1" num="1"/>
      </scale>
    </scales>
    <keymaps>
      <keymap base_key="69" base_freq="440" first_key="0" last_key="127" middle_key="60" description="empty"/>
      <keymap base_key="69" base_freq="440" first_key="0" last_key="127" middle_key="60" description="empty"/>
      <keymap base_key="69" base_freq="440" first_key="0" last_key="127" middle_key="60" description="empty"/>
      <keymap base_key="69" base_freq="440" first_key="0" last_key="127" middle_key="60" description="empty"/>
      <keymap base_key="69" base_freq="440" first_key="0" last_key="127" middle_key="60" description="empty"/>
      <keymap base_key="69" base_freq="440" first_key="0" last_key="127" middle_key="60" description="empty"/>
      <keymap base_key="69" base_freq="440" first_key="0" last_key="127" middle_key="60" description="empty"/>
      <keymap base_key="69" base_freq="440" first_key="0" last_key="127" middle_key="60" description="empty"/>
      <keymap base_key="69" base_freq="440" first_key="0" last_key="127" middle_key="60" description="empty"/>
      <keymap base_key="69" base_freq="440" first_key="0" last_key="127" middle_key="60" description="empty"/>
    </keymaps>
  </song>
</lmms-project>
