<?xml version="1.0"?>
<!DOCTYPE lmms-project>
<lmms-project version="23" type="song" creatorversion="1.3.0-alpha.1.231+g49b1f83e4" creator="LMMS">
  <head timesig_numerator="4" timesig_denominator="4" masterpitch="0" bpm="125" mastervol="100"/>
  <song>
    <trackcontainer height="600" visible="1" x="30" y="32" width="1033" type="song" maximized="1" minimized="0">
      <track type="0" muted="0" mutedBeforeSolo="0" solo="0" name="Touhou">
        <instrumenttrack pitchrange="1" firstkey="0" vol="100" pitch="0" pan="0" enabled="0" lastkey="127" enablecc="0" scale="0" mixch="1" usemasterpitch="1" basenote="69" keymap="0" range_import="1">
          <midicontrollers cc4="0" cc56="0" cc35="0" cc44="0" cc2="0" cc38="0" cc124="0" cc24="0" cc97="0" cc16="0" cc123="0" cc61="0" cc84="0" cc79="0" cc6="0" cc91="0" cc29="0" cc67="0" cc28="0" cc23="0" cc65="0" cc8="0" cc33="0" cc14="0" cc31="0" cc70="0" cc119="0" cc12="0" cc43="0" cc1="0" cc114="0" cc20="0" cc73="0" cc11="0" cc63="0" cc46="0" cc34="0" cc66="0" cc125="0" cc42="0" cc40="0" cc37="0" cc58="0" cc55="0" cc95="0" cc126="0" cc36="0" cc48="0" cc81="0" cc50="0" cc64="0" cc93="0" cc80="0" cc82="0" cc103="0" cc19="0" cc83="0" cc25="0" cc26="0" cc75="0" cc109="0" cc106="0" cc41="0" cc17="0" cc102="0" cc92="0" cc78="0" cc13="0" cc112="0" cc120="0" cc107="0" cc0="0" cc53="0" cc18="0" cc62="0" cc68="0" cc122="0" cc49="0" cc86="0" cc113="0" cc45="0" cc7="0" cc87="0" cc27="0" cc21="0" cc3="0" cc85="0" cc100="0" cc104="0" cc96="0" cc39="0" cc76="0" cc32="0" cc98="0" cc57="0" cc101="0" cc59="0" cc60="0" cc47="0" cc117="0" cc72="0" cc111="0" cc5="0" cc71="0" cc89="0" cc54="0" cc88="0" cc108="0" cc77="0" cc115="0" cc118="0" cc9="0" cc121="0" cc90="0" cc110="0" cc51="0" cc52="0" cc127="0" cc69="0" cc99="0" cc74="0" cc30="0" cc15="0" cc10="0" cc22="0" cc94="0" cc105="0" cc116="0"/>
          <instrument name="sf2player">
            <sf2player reverbWidth="0.5" reverbOn="0" chorusDepth="8" reverbRoomSize="0.2" chorusNum="3" chorusLevel="2" chorusOn="0" src="usersoundfont:Touhou.sf2" chorusSpeed="0.3" patch="68" reverbDamping="0" reverbLevel="0.9" bank="0" gain="0.6">
              <key/>
            </sf2player>
          </instrument>
          <eldata fres="0.5" fwet="0" ftype="0" fcut="14000">
            <elvol lpdel="0" hold="0.5" lamt="0" pdel="0" latt="0" ctlenvamt="0" amt="0" sustain="0.5" lspd_syncmode="0" lspd="0.1" x100="0" dec="0.5" lspd_denominator="4" lshp="0" att="0" rel="0.1" lspd_numerator="4" userwavefile=""/>
            <elcut lpdel="0" hold="0.5" lamt="0" pdel="0" latt="0" ctlenvamt="0" amt="0" sustain="0.5" lspd_syncmode="0" lspd="0.1" x100="0" dec="0.5" lspd_denominator="4" lshp="0" att="0" rel="0.1" lspd_numerator="4" userwavefile=""/>
            <elres lpdel="0" hold="0.5" lamt="0" pdel="0" latt="0" ctlenvamt="0" amt="0" sustain="0.5" lspd_syncmode="0" lspd="0.1" x100="0" dec="0.5" lspd_denominator="4" lshp="0" att="0" rel="0.1" lspd_numerator="4" userwavefile=""/>
          </eldata>
          <chordcreator chordrange="1" chord-enabled="0" chord="0"/>
          <arpeggiator arprepeats="1" arp-enabled="0" arpskip="0" arptime="200" arptime_syncmode="0" arp="0" arptime_numerator="4" arpgate="100" arpmiss="0" arptime_denominator="4" arpdir="0" arprange="1" arpcycle="0" arpmode="0"/>
          <midiport basevelocity="63" outputchannel="1" fixedinputvelocity="-1" fixedoutputnote="-1" readable="1" fixedoutputvelocity="-1" writable="0" inputcontroller="0" outputprogram="1" inports="" inputchannel="0" outputcontroller="0"/>
          <fxchain numofeffects="0" enabled="0"/>
        </instrumenttrack>
        <midiclip type="1" muted="0" steps="16" name="" pos="0">
          <note vol="100" pan="0" len="12" key="80" pos="336"/>
          <note vol="100" pan="0" len="144" key="80" pos="360"/>
          <note vol="100" pan="0" len="24" key="80" pos="528"/>
          <note vol="100" pan="0" len="48" key="78" pos="552"/>
          <note vol="100" pan="0" len="48" key="75" pos="600"/>
          <note vol="100" pan="0" len="48" key="73" pos="648"/>
          <note vol="100" pan="0" len="48" key="71" pos="696"/>
          <note vol="100" pan="0" len="48" key="73" pos="768"/>
          <note vol="100" pan="0" len="24" key="71" pos="816"/>
          <note vol="100" pan="0" len="48" key="73" pos="840"/>
          <note vol="100" pan="0" len="48" key="78" pos="888"/>
          <note vol="100" pan="0" len="120" key="75" pos="936"/>
          <note vol="100" pan="0" len="12" key="80" pos="1104"/>
          <note vol="100" pan="0" len="144" key="80" pos="1128"/>
          <note vol="100" pan="0" len="24" key="80" pos="1296"/>
          <note vol="100" pan="0" len="48" key="78" pos="1320"/>
          <note vol="100" pan="0" len="48" key="75" pos="1368"/>
          <note vol="100" pan="0" len="48" key="73" pos="1416"/>
          <note vol="100" pan="0" len="48" key="71" pos="1464"/>
          <note vol="100" pan="0" len="48" key="76" pos="1536"/>
          <note vol="100" pan="0" len="24" key="71" pos="1584"/>
          <note vol="100" pan="0" len="48" key="68" pos="1608"/>
          <note vol="100" pan="0" len="48" key="76" pos="1656"/>
          <note vol="100" pan="0" len="72" key="75" pos="1704"/>
          <note vol="100" pan="0" len="48" key="73" pos="1776"/>
          <note vol="100" pan="0" len="48" key="71" pos="1824"/>
          <note vol="100" pan="0" len="48" key="70" pos="1872"/>
        </midiclip>
        <midiclip type="1" muted="0" steps="16" name="" pos="8256">
          <note vol="100" pan="0" len="72" key="71" pos="0"/>
          <note vol="100" pan="0" len="24" key="71" pos="72"/>
          <note vol="100" pan="0" len="24" key="71" pos="120"/>
          <note vol="100" pan="0" len="24" key="70" pos="144"/>
          <note vol="100" pan="0" len="24" key="68" pos="168"/>
          <note vol="100" pan="0" len="24" key="67" pos="192"/>
          <note vol="100" pan="0" len="72" key="63" pos="216"/>
          <note vol="100" pan="0" len="48" key="61" pos="288"/>
          <note vol="100" pan="0" len="96" key="59" pos="336"/>
        </midiclip>
        <midiclip type="1" muted="0" steps="16" name="" pos="1920">
          <note vol="100" pan="0" len="144" key="68" pos="0"/>
        </midiclip>
        <midiclip type="1" muted="0" steps="16" name="" pos="9984">
          <note vol="100" pan="0" len="12" key="66" pos="0"/>
          <note vol="100" pan="0" len="12" key="73" pos="12"/>
          <note vol="100" pan="0" len="12" key="78" pos="24"/>
          <note vol="100" pan="0" len="12" key="73" pos="36"/>
          <note vol="100" pan="0" len="12" key="76" pos="48"/>
          <note vol="100" pan="0" len="12" key="78" pos="60"/>
          <note vol="100" pan="0" len="12" key="81" pos="72"/>
          <note vol="100" pan="0" len="12" key="78" pos="84"/>
          <note vol="100" pan="0" len="12" key="73" pos="96"/>
          <note vol="100" pan="0" len="12" key="66" pos="108"/>
          <note vol="100" pan="0" len="12" key="73" pos="120"/>
          <note vol="100" pan="0" len="12" key="78" pos="132"/>
          <note vol="100" pan="0" len="12" key="81" pos="144"/>
          <note vol="100" pan="0" len="12" key="78" pos="156"/>
          <note vol="100" pan="0" len="12" key="81" pos="168"/>
          <note vol="100" pan="0" len="12" key="85" pos="180"/>
          <note vol="100" pan="0" len="12" key="83" pos="192"/>
          <note vol="100" pan="0" len="12" key="81" pos="204"/>
          <note vol="100" pan="0" len="12" key="80" pos="216"/>
          <note vol="100" pan="0" len="12" key="76" pos="228"/>
          <note vol="100" pan="0" len="12" key="81" pos="240"/>
          <note vol="100" pan="0" len="12" key="80" pos="252"/>
          <note vol="100" pan="0" len="12" key="76" pos="264"/>
          <note vol="100" pan="0" len="12" key="71" pos="276"/>
          <note vol="100" pan="0" len="12" key="68" pos="288"/>
          <note vol="100" pan="0" len="12" key="76" pos="300"/>
          <note vol="100" pan="0" len="12" key="71" pos="312"/>
          <note vol="100" pan="0" len="12" key="68" pos="324"/>
          <note vol="100" pan="0" len="12" key="76" pos="336"/>
          <note vol="100" pan="0" len="12" key="83" pos="348"/>
          <note vol="100" pan="0" len="12" key="80" pos="360"/>
          <note vol="100" pan="0" len="12" key="76" pos="372"/>
          <note vol="100" pan="0" len="12" key="81" pos="384"/>
          <note vol="100" pan="0" len="12" key="80" pos="396"/>
          <note vol="100" pan="0" len="12" key="76" pos="408"/>
          <note vol="100" pan="0" len="12" key="71" pos="420"/>
          <note vol="100" pan="0" len="12" key="76" pos="432"/>
          <note vol="100" pan="0" len="12" key="71" pos="444"/>
          <note vol="100" pan="0" len="12" key="68" pos="456"/>
          <note vol="100" pan="0" len="12" key="71" pos="468"/>
          <note vol="100" pan="0" len="12" key="76" pos="480"/>
          <note vol="100" pan="0" len="12" key="71" pos="492"/>
          <note vol="100" pan="0" len="12" key="68" pos="504"/>
          <note vol="100" pan="0" len="12" key="71" pos="516"/>
          <note vol="100" pan="0" len="12" key="76" pos="528"/>
          <note vol="100" pan="0" len="12" key="71" pos="540"/>
          <note vol="100" pan="0" len="12" key="80" pos="552"/>
          <note vol="100" pan="0" len="12" key="83" pos="564"/>
          <note vol="100" pan="0" len="12" key="64" pos="576"/>
          <note vol="100" pan="0" len="12" key="68" pos="588"/>
          <note vol="100" pan="0" len="12" key="71" pos="600"/>
          <note vol="100" pan="0" len="12" key="68" pos="612"/>
          <note vol="100" pan="0" len="12" key="71" pos="624"/>
          <note vol="100" pan="0" len="12" key="76" pos="636"/>
          <note vol="100" pan="0" len="12" key="71" pos="648"/>
          <note vol="100" pan="0" len="12" key="76" pos="660"/>
          <note vol="100" pan="0" len="12" key="80" pos="672"/>
          <note vol="100" pan="0" len="12" key="76" pos="684"/>
          <note vol="100" pan="0" len="12" key="80" pos="696"/>
          <note vol="100" pan="0" len="12" key="83" pos="708"/>
          <note vol="100" pan="0" len="12" key="81" pos="720"/>
          <note vol="100" pan="0" len="12" key="80" pos="732"/>
          <note vol="100" pan="0" len="12" key="76" pos="744"/>
          <note vol="100" pan="0" len="12" key="73" pos="756"/>
          <note vol="100" pan="0" len="12" key="74" pos="768"/>
          <note vol="100" pan="0" len="12" key="78" pos="780"/>
          <note vol="100" pan="0" len="12" key="81" pos="792"/>
          <note vol="100" pan="0" len="12" key="85" pos="804"/>
          <note vol="100" pan="0" len="12" key="86" pos="816"/>
          <note vol="100" pan="0" len="12" key="85" pos="828"/>
          <note vol="100" pan="0" len="12" key="81" pos="840"/>
          <note vol="100" pan="0" len="12" key="74" pos="852"/>
          <note vol="100" pan="0" len="12" key="78" pos="864"/>
          <note vol="100" pan="0" len="12" key="74" pos="876"/>
          <note vol="100" pan="0" len="12" key="78" pos="888"/>
          <note vol="100" pan="0" len="12" key="81" pos="900"/>
          <note vol="100" pan="0" len="12" key="78" pos="912"/>
          <note vol="100" pan="0" len="12" key="69" pos="924"/>
          <note vol="100" pan="0" len="12" key="74" pos="936"/>
          <note vol="100" pan="0" len="12" key="69" pos="948"/>
          <note vol="100" pan="0" len="12" key="66" pos="960"/>
          <note vol="100" pan="0" len="12" key="69" pos="972"/>
          <note vol="100" pan="0" len="12" key="74" pos="984"/>
          <note vol="100" pan="0" len="12" key="69" pos="996"/>
          <note vol="100" pan="0" len="12" key="74" pos="1008"/>
          <note vol="100" pan="0" len="12" key="69" pos="1020"/>
          <note vol="100" pan="0" len="12" key="66" pos="1032"/>
          <note vol="100" pan="0" len="12" key="62" pos="1044"/>
          <note vol="100" pan="0" len="12" key="66" pos="1056"/>
          <note vol="100" pan="0" len="12" key="62" pos="1068"/>
          <note vol="100" pan="0" len="12" key="66" pos="1080"/>
          <note vol="100" pan="0" len="12" key="73" pos="1092"/>
          <note vol="100" pan="0" len="12" key="71" pos="1104"/>
          <note vol="100" pan="0" len="12" key="69" pos="1116"/>
          <note vol="100" pan="0" len="12" key="68" pos="1128"/>
          <note vol="100" pan="0" len="12" key="64" pos="1140"/>
          <note vol="100" pan="0" len="12" key="68" pos="1152"/>
          <note vol="100" pan="0" len="12" key="66" pos="1164"/>
          <note vol="100" pan="0" len="12" key="65" pos="1176"/>
          <note vol="100" pan="0" len="12" key="68" pos="1188"/>
          <note vol="100" pan="0" len="12" key="71" pos="1200"/>
          <note vol="100" pan="0" len="12" key="69" pos="1212"/>
          <note vol="100" pan="0" len="12" key="68" pos="1224"/>
          <note vol="100" pan="0" len="12" key="73" pos="1236"/>
          <note vol="100" pan="0" len="12" key="76" pos="1248"/>
          <note vol="100" pan="0" len="12" key="74" pos="1260"/>
          <note vol="100" pan="0" len="12" key="73" pos="1272"/>
          <note vol="100" pan="0" len="12" key="68" pos="1284"/>
          <note vol="100" pan="0" len="12" key="64" pos="1296"/>
          <note vol="100" pan="0" len="12" key="62" pos="1308"/>
          <note vol="100" pan="0" len="12" key="61" pos="1320"/>
          <note vol="100" pan="0" len="12" key="59" pos="1332"/>
          <note vol="100" pan="0" len="12" key="65" pos="1344"/>
          <note vol="100" pan="0" len="12" key="68" pos="1356"/>
          <note vol="100" pan="0" len="12" key="73" pos="1368"/>
          <note vol="100" pan="0" len="12" key="77" pos="1380"/>
          <note vol="100" pan="0" len="12" key="80" pos="1392"/>
          <note vol="100" pan="0" len="12" key="73" pos="1404"/>
          <note vol="100" pan="0" len="12" key="77" pos="1416"/>
          <note vol="100" pan="0" len="12" key="80" pos="1428"/>
          <note vol="100" pan="0" len="12" key="73" pos="1440"/>
          <note vol="100" pan="0" len="12" key="77" pos="1452"/>
          <note vol="100" pan="0" len="12" key="80" pos="1464"/>
          <note vol="100" pan="0" len="12" key="83" pos="1476"/>
          <note vol="100" pan="0" len="12" key="81" pos="1488"/>
          <note vol="100" pan="0" len="12" key="80" pos="1500"/>
          <note vol="100" pan="0" len="12" key="78" pos="1512"/>
          <note vol="100" pan="0" len="12" key="76" pos="1524"/>
        </midiclip>
        <midiclip type="1" muted="0" steps="16" name="" pos="5568">
          <note vol="100" pan="0" len="96" key="78" pos="0"/>
          <note vol="100" pan="0" len="48" key="76" pos="96"/>
          <note vol="100" pan="0" len="96" key="75" pos="144"/>
          <note vol="100" pan="0" len="96" key="71" pos="240"/>
          <note vol="100" pan="0" len="96" key="73" pos="384"/>
          <note vol="100" pan="0" len="48" key="71" pos="480"/>
          <note vol="100" pan="0" len="96" key="69" pos="528"/>
          <note vol="100" pan="0" len="96" key="66" pos="624"/>
          <note vol="100" pan="0" len="96" key="69" pos="768"/>
          <note vol="100" pan="0" len="48" key="73" pos="864"/>
          <note vol="100" pan="0" len="96" key="73" pos="912"/>
          <note vol="100" pan="0" len="48" key="71" pos="1008"/>
          <note vol="100" pan="0" len="48" key="71" pos="1056"/>
          <note vol="100" pan="0" len="96" key="71" pos="1152"/>
          <note vol="100" pan="0" len="48" key="71" pos="1248"/>
          <note vol="100" pan="0" len="96" key="70" pos="1296"/>
          <note vol="100" pan="0" len="144" key="66" pos="1392"/>
        </midiclip>
      </track>
      <track type="0" muted="0" mutedBeforeSolo="0" solo="0" name="SGM-V2">
        <instrumenttrack pitchrange="1" firstkey="0" vol="100" pitch="0" pan="0" enabled="0" lastkey="127" enablecc="0" scale="0" mixch="2" usemasterpitch="1" basenote="69" keymap="0" range_import="1">
          <midicontrollers cc4="0" cc56="0" cc35="0" cc44="0" cc2="0" cc38="0" cc124="0" cc24="0" cc97="0" cc16="0" cc123="0" cc61="0" cc84="0" cc79="0" cc6="0" cc91="0" cc29="0" cc67="0" cc28="0" cc23="0" cc65="0" cc8="0" cc33="0" cc14="0" cc31="0" cc70="0" cc119="0" cc12="0" cc43="0" cc1="0" cc114="0" cc20="0" cc73="0" cc11="0" cc63="0" cc46="0" cc34="0" cc66="0" cc125="0" cc42="0" cc40="0" cc37="0" cc58="0" cc55="0" cc95="0" cc126="0" cc36="0" cc48="0" cc81="0" cc50="0" cc64="0" cc93="0" cc80="0" cc82="0" cc103="0" cc19="0" cc83="0" cc25="0" cc26="0" cc75="0" cc109="0" cc106="0" cc41="0" cc17="0" cc102="0" cc92="0" cc78="0" cc13="0" cc112="0" cc120="0" cc107="0" cc0="0" cc53="0" cc18="0" cc62="0" cc68="0" cc122="0" cc49="0" cc86="0" cc113="0" cc45="0" cc7="0" cc87="0" cc27="0" cc21="0" cc3="0" cc85="0" cc100="0" cc104="0" cc96="0" cc39="0" cc76="0" cc32="0" cc98="0" cc57="0" cc101="0" cc59="0" cc60="0" cc47="0" cc117="0" cc72="0" cc111="0" cc5="0" cc71="0" cc89="0" cc54="0" cc88="0" cc108="0" cc77="0" cc115="0" cc118="0" cc9="0" cc121="0" cc90="0" cc110="0" cc51="0" cc52="0" cc127="0" cc69="0" cc99="0" cc74="0" cc30="0" cc15="0" cc10="0" cc22="0" cc94="0" cc105="0" cc116="0"/>
          <instrument name="sf2player">
            <sf2player reverbWidth="0.5" reverbOn="0" chorusDepth="8" reverbRoomSize="0.2" chorusNum="3" chorusLevel="2" chorusOn="0" src="usersoundfont:SGM-V2.01.sf2" chorusSpeed="0.3" patch="67" reverbDamping="0" reverbLevel="0.9" bank="0" gain="1">
              <key/>
            </sf2player>
          </instrument>
          <eldata fres="0.5" fwet="0" ftype="0" fcut="14000">
            <elvol lpdel="0" hold="0.5" lamt="0" pdel="0" latt="0" ctlenvamt="0" amt="0" sustain="0.5" lspd_syncmode="0" lspd="0.1" x100="0" dec="0.5" lspd_denominator="4" lshp="0" att="0" rel="0.1" lspd_numerator="4" userwavefile=""/>
            <elcut lpdel="0" hold="0.5" lamt="0" pdel="0" latt="0" ctlenvamt="0" amt="0" sustain="0.5" lspd_syncmode="0" lspd="0.1" x100="0" dec="0.5" lspd_denominator="4" lshp="0" att="0" rel="0.1" lspd_numerator="4" userwavefile=""/>
            <elres lpdel="0" hold="0.5" lamt="0" pdel="0" latt="0" ctlenvamt="0" amt="0" sustain="0.5" lspd_syncmode="0" lspd="0.1" x100="0" dec="0.5" lspd_denominator="4" lshp="0" att="0" rel="0.1" lspd_numerator="4" userwavefile=""/>
          </eldata>
          <chordcreator chordrange="1" chord-enabled="0" chord="0"/>
          <arpeggiator arprepeats="1" arp-enabled="0" arpskip="0" arptime="200" arptime_syncmode="0" arp="0" arptime_numerator="4" arpgate="100" arpmiss="0" arptime_denominator="4" arpdir="0" arprange="1" arpcycle="0" arpmode="0"/>
          <midiport basevelocity="63" outputchannel="1" fixedinputvelocity="-1" fixedoutputnote="-1" readable="1" fixedoutputvelocity="-1" writable="0" inputcontroller="0" outputprogram="1" inports="" inputchannel="0" outputcontroller="0"/>
          <fxchain numofeffects="0" enabled="0"/>
        </instrumenttrack>
        <midiclip type="1" muted="0" steps="16" name="" pos="0">
          <note vol="100" pan="0" len="12" key="63" pos="336"/>
          <note vol="100" pan="0" len="12" key="59" pos="336"/>
          <note vol="100" pan="0" len="144" key="63" pos="360"/>
          <note vol="100" pan="0" len="144" key="59" pos="360"/>
          <note vol="100" pan="0" len="24" key="59" pos="528"/>
          <note vol="100" pan="0" len="24" key="56" pos="528"/>
          <note vol="100" pan="0" len="96" key="61" pos="552"/>
          <note vol="100" pan="0" len="96" key="58" pos="552"/>
          <note vol="100" pan="0" len="48" key="59" pos="648"/>
          <note vol="100" pan="0" len="48" key="56" pos="648"/>
          <note vol="100" pan="0" len="60" key="58" pos="696"/>
          <note vol="100" pan="0" len="60" key="54" pos="696"/>
          <note vol="100" pan="0" len="168" key="56" pos="768"/>
          <note vol="100" pan="0" len="168" key="53" pos="768"/>
          <note vol="100" pan="0" len="156" key="58" pos="936"/>
          <note vol="100" pan="0" len="156" key="55" pos="936"/>
          <note vol="100" pan="0" len="12" key="59" pos="1104"/>
          <note vol="100" pan="0" len="12" key="56" pos="1104"/>
          <note vol="100" pan="0" len="144" key="63" pos="1128"/>
          <note vol="100" pan="0" len="144" key="59" pos="1128"/>
          <note vol="100" pan="0" len="24" key="59" pos="1296"/>
          <note vol="100" pan="0" len="24" key="56" pos="1296"/>
          <note vol="100" pan="0" len="96" key="61" pos="1320"/>
          <note vol="100" pan="0" len="96" key="58" pos="1320"/>
          <note vol="100" pan="0" len="108" key="59" pos="1416"/>
          <note vol="100" pan="0" len="108" key="56" pos="1416"/>
          <note vol="100" pan="0" len="168" key="56" pos="1536"/>
          <note vol="100" pan="0" len="168" key="52" pos="1536"/>
          <note vol="100" pan="0" len="72" key="58" pos="1704"/>
          <note vol="100" pan="0" len="72" key="55" pos="1704"/>
          <note vol="100" pan="0" len="36" key="63" pos="1776"/>
          <note vol="100" pan="0" len="36" key="59" pos="1776"/>
          <note vol="100" pan="0" len="36" key="61" pos="1824"/>
          <note vol="100" pan="0" len="36" key="58" pos="1824"/>
          <note vol="100" pan="0" len="36" key="59" pos="1872"/>
          <note vol="100" pan="0" len="36" key="56" pos="1872"/>
        </midiclip>
        <midiclip type="1" muted="0" steps="16" name="" pos="8256">
          <note vol="100" pan="0" len="72" key="71" pos="0"/>
          <note vol="100" pan="0" len="24" key="71" pos="72"/>
          <note vol="100" pan="0" len="24" key="71" pos="120"/>
          <note vol="100" pan="0" len="24" key="70" pos="144"/>
          <note vol="100" pan="0" len="24" key="68" pos="168"/>
          <note vol="100" pan="0" len="24" key="67" pos="192"/>
          <note vol="100" pan="0" len="72" key="63" pos="216"/>
          <note vol="100" pan="0" len="48" key="61" pos="288"/>
          <note vol="100" pan="0" len="96" key="59" pos="336"/>
        </midiclip>
        <midiclip type="1" muted="0" steps="16" name="" pos="2880">
          <note vol="100" pan="0" len="72" key="51" pos="0"/>
          <note vol="100" pan="0" len="72" key="54" pos="72"/>
          <note vol="100" pan="0" len="24" key="56" pos="144"/>
          <note vol="100" pan="0" len="24" key="54" pos="168"/>
          <note vol="100" pan="0" len="24" key="57" pos="192"/>
          <note vol="100" pan="0" len="24" key="56" pos="216"/>
          <note vol="100" pan="0" len="72" key="51" pos="240"/>
          <note vol="100" pan="0" len="72" key="54" pos="312"/>
          <note vol="100" pan="0" len="24" key="56" pos="384"/>
          <note vol="100" pan="0" len="24" key="54" pos="408"/>
          <note vol="100" pan="0" len="24" key="59" pos="432"/>
          <note vol="100" pan="0" len="12" key="57" pos="456"/>
          <note vol="100" pan="0" len="72" key="57" pos="480"/>
          <note vol="100" pan="0" len="72" key="59" pos="552"/>
          <note vol="100" pan="0" len="24" key="60" pos="624"/>
          <note vol="100" pan="0" len="24" key="59" pos="648"/>
          <note vol="100" pan="0" len="24" key="64" pos="672"/>
          <note vol="100" pan="0" len="24" key="60" pos="696"/>
          <note vol="100" pan="0" len="72" key="57" pos="720"/>
          <note vol="100" pan="0" len="72" key="59" pos="792"/>
          <note vol="100" pan="0" len="24" key="60" pos="864"/>
          <note vol="100" pan="0" len="24" key="59" pos="888"/>
          <note vol="100" pan="0" len="24" key="64" pos="912"/>
          <note vol="100" pan="0" len="12" key="65" pos="936"/>
        </midiclip>
        <midiclip type="1" muted="0" steps="16" name="" pos="1920">
          <note vol="100" pan="0" len="72" key="51" pos="0"/>
          <note vol="100" pan="0" len="72" key="54" pos="72"/>
          <note vol="100" pan="0" len="24" key="56" pos="144"/>
          <note vol="100" pan="0" len="24" key="54" pos="168"/>
          <note vol="100" pan="0" len="24" key="57" pos="192"/>
          <note vol="100" pan="0" len="24" key="56" pos="216"/>
          <note vol="100" pan="0" len="72" key="51" pos="240"/>
          <note vol="100" pan="0" len="72" key="54" pos="312"/>
          <note vol="100" pan="0" len="24" key="56" pos="384"/>
          <note vol="100" pan="0" len="24" key="54" pos="408"/>
          <note vol="100" pan="0" len="24" key="59" pos="432"/>
          <note vol="100" pan="0" len="12" key="57" pos="456"/>
          <note vol="100" pan="0" len="72" key="57" pos="480"/>
          <note vol="100" pan="0" len="72" key="59" pos="552"/>
          <note vol="100" pan="0" len="24" key="60" pos="624"/>
          <note vol="100" pan="0" len="24" key="59" pos="648"/>
          <note vol="100" pan="0" len="24" key="64" pos="672"/>
          <note vol="100" pan="0" len="24" key="60" pos="696"/>
          <note vol="100" pan="0" len="72" key="57" pos="720"/>
          <note vol="100" pan="0" len="72" key="59" pos="792"/>
          <note vol="100" pan="0" len="24" key="60" pos="864"/>
          <note vol="100" pan="0" len="24" key="59" pos="888"/>
          <note vol="100" pan="0" len="24" key="64" pos="912"/>
          <note vol="100" pan="0" len="12" key="60" pos="936"/>
        </midiclip>
        <midiclip type="1" muted="0" steps="16" name="" pos="7680">
          <note vol="100" pan="0" len="72" key="66" pos="0"/>
          <note vol="100" pan="0" len="48" key="65" pos="72"/>
          <note vol="100" pan="0" len="24" key="64" pos="120"/>
          <note vol="100" pan="0" len="36" key="62" pos="144"/>
          <note vol="100" pan="0" len="36" key="64" pos="180"/>
          <note vol="100" pan="0" len="72" key="59" pos="216"/>
        </midiclip>
        <midiclip type="1" muted="0" steps="16" name="" pos="3840">
          <note vol="100" pan="0" len="144" key="66" pos="0"/>
        </midiclip>
        <midiclip type="1" muted="0" steps="16" name="" pos="5568">
          <note vol="100" pan="0" len="144" key="61" pos="0"/>
          <note vol="100" pan="0" len="144" key="57" pos="0"/>
          <note vol="100" pan="0" len="192" key="63" pos="144"/>
          <note vol="100" pan="0" len="192" key="59" pos="144"/>
          <note vol="100" pan="0" len="144" key="61" pos="384"/>
          <note vol="100" pan="0" len="144" key="58" pos="384"/>
          <note vol="100" pan="0" len="192" key="57" pos="528"/>
          <note vol="100" pan="0" len="192" key="54" pos="528"/>
          <note vol="100" pan="0" len="144" key="64" pos="768"/>
          <note vol="100" pan="0" len="144" key="57" pos="768"/>
          <note vol="100" pan="0" len="192" key="63" pos="912"/>
          <note vol="100" pan="0" len="192" key="59" pos="912"/>
          <note vol="100" pan="0" len="144" key="64" pos="1152"/>
          <note vol="100" pan="0" len="144" key="59" pos="1152"/>
          <note vol="100" pan="0" len="192" key="61" pos="1296"/>
          <note vol="100" pan="0" len="192" key="58" pos="1296"/>
        </midiclip>
      </track>
      <track type="0" muted="0" mutedBeforeSolo="0" solo="0" name="Drums>Power">
        <instrumenttrack pitchrange="1" firstkey="0" vol="100" pitch="0" pan="0" enabled="0" lastkey="127" enablecc="0" scale="0" mixch="3" usemasterpitch="1" basenote="69" keymap="0" range_import="1">
          <midicontrollers cc4="0" cc56="0" cc35="0" cc44="0" cc2="0" cc38="0" cc124="0" cc24="0" cc97="0" cc16="0" cc123="0" cc61="0" cc84="0" cc79="0" cc6="0" cc91="0" cc29="0" cc67="0" cc28="0" cc23="0" cc65="0" cc8="0" cc33="0" cc14="0" cc31="0" cc70="0" cc119="0" cc12="0" cc43="0" cc1="0" cc114="0" cc20="0" cc73="0" cc11="0" cc63="0" cc46="0" cc34="0" cc66="0" cc125="0" cc42="0" cc40="0" cc37="0" cc58="0" cc55="0" cc95="0" cc126="0" cc36="0" cc48="0" cc81="0" cc50="0" cc64="0" cc93="0" cc80="0" cc82="0" cc103="0" cc19="0" cc83="0" cc25="0" cc26="0" cc75="0" cc109="0" cc106="0" cc41="0" cc17="0" cc102="0" cc92="0" cc78="0" cc13="0" cc112="0" cc120="0" cc107="0" cc0="0" cc53="0" cc18="0" cc62="0" cc68="0" cc122="0" cc49="0" cc86="0" cc113="0" cc45="0" cc7="0" cc87="0" cc27="0" cc21="0" cc3="0" cc85="0" cc100="0" cc104="0" cc96="0" cc39="0" cc76="0" cc32="0" cc98="0" cc57="0" cc101="0" cc59="0" cc60="0" cc47="0" cc117="0" cc72="0" cc111="0" cc5="0" cc71="0" cc89="0" cc54="0" cc88="0" cc108="0" cc77="0" cc115="0" cc118="0" cc9="0" cc121="0" cc90="0" cc110="0" cc51="0" cc52="0" cc127="0" cc69="0" cc99="0" cc74="0" cc30="0" cc15="0" cc10="0" cc22="0" cc94="0" cc105="0" cc116="0"/>
          <instrument name="sf2player">
            <sf2player reverbWidth="0.5" reverbOn="0" chorusDepth="8" reverbRoomSize="0.2" chorusNum="3" chorusLevel="2" chorusOn="0" src="usersoundfont:Touhou.sf2" chorusSpeed="0.3" patch="16" reverbDamping="0" reverbLevel="0.9" bank="128" gain="0.5">
              <key/>
            </sf2player>
          </instrument>
          <eldata fres="0.5" fwet="0" ftype="0" fcut="14000">
            <elvol lpdel="0" hold="0.5" lamt="0" pdel="0" latt="0" ctlenvamt="0" amt="0" sustain="0.5" lspd_syncmode="0" lspd="0.1" x100="0" dec="0.5" lspd_denominator="4" lshp="0" att="0" rel="0.1" lspd_numerator="4" userwavefile=""/>
            <elcut lpdel="0" hold="0.5" lamt="0" pdel="0" latt="0" ctlenvamt="0" amt="0" sustain="0.5" lspd_syncmode="0" lspd="0.1" x100="0" dec="0.5" lspd_denominator="4" lshp="0" att="0" rel="0.1" lspd_numerator="4" userwavefile=""/>
            <elres lpdel="0" hold="0.5" lamt="0" pdel="0" latt="0" ctlenvamt="0" amt="0" sustain="0.5" lspd_syncmode="0" lspd="0.1" x100="0" dec="0.5" lspd_denominator="4" lshp="0" att="0" rel="0.1" lspd_numerator="4" userwavefile=""/>
          </eldata>
          <chordcreator chordrange="1" chord-enabled="0" chord="0"/>
          <arpeggiator arprepeats="1" arp-enabled="0" arpskip="0" arptime="200" arptime_syncmode="0" arp="0" arptime_numerator="4" arpgate="100" arpmiss="0" arptime_denominator="4" arpdir="0" arprange="1" arpcycle="0" arpmode="0"/>
          <midiport basevelocity="63" outputchannel="1" fixedinputvelocity="-1" fixedoutputnote="-1" readable="1" fixedoutputvelocity="-1" writable="0" inputcontroller="0" outputprogram="1" inports="" inputchannel="0" outputcontroller="0"/>
          <fxchain numofeffects="0" enabled="0"/>
        </instrumenttrack>
        <midiclip type="1" muted="0" steps="16" name="" pos="0">
          <note vol="100" pan="0" len="12" key="36" pos="0"/>
          <note vol="100" pan="0" len="12" key="42" pos="24"/>
          <note vol="100" pan="0" len="12" key="40" pos="48"/>
          <note vol="100" pan="0" len="12" key="36" pos="48"/>
          <note vol="100" pan="0" len="12" key="42" pos="72"/>
          <note vol="100" pan="0" len="12" key="36" pos="96"/>
          <note vol="100" pan="0" len="12" key="42" pos="120"/>
          <note vol="100" pan="0" len="12" key="40" pos="144"/>
          <note vol="100" pan="0" len="12" key="36" pos="144"/>
          <note vol="100" pan="0" len="12" key="42" pos="168"/>
        </midiclip>
        <midiclip type="1" muted="0" steps="16" name="" pos="192">
          <note vol="100" pan="0" len="12" key="36" pos="0"/>
          <note vol="100" pan="0" len="12" key="42" pos="24"/>
          <note vol="100" pan="0" len="12" key="40" pos="48"/>
          <note vol="100" pan="0" len="12" key="36" pos="48"/>
          <note vol="100" pan="0" len="12" key="42" pos="72"/>
          <note vol="100" pan="0" len="12" key="36" pos="96"/>
          <note vol="100" pan="0" len="12" key="42" pos="120"/>
          <note vol="100" pan="0" len="12" key="40" pos="144"/>
          <note vol="100" pan="0" len="12" key="36" pos="144"/>
          <note vol="100" pan="0" len="12" key="42" pos="168"/>
        </midiclip>
        <midiclip type="1" muted="0" steps="16" name="" pos="384">
          <note vol="100" pan="0" len="12" key="36" pos="0"/>
          <note vol="100" pan="0" len="12" key="42" pos="24"/>
          <note vol="100" pan="0" len="12" key="40" pos="48"/>
          <note vol="100" pan="0" len="12" key="36" pos="48"/>
          <note vol="100" pan="0" len="12" key="42" pos="72"/>
          <note vol="100" pan="0" len="12" key="36" pos="96"/>
          <note vol="100" pan="0" len="12" key="42" pos="120"/>
          <note vol="100" pan="0" len="12" key="40" pos="144"/>
          <note vol="100" pan="0" len="12" key="36" pos="144"/>
          <note vol="100" pan="0" len="12" key="42" pos="168"/>
        </midiclip>
        <midiclip type="1" muted="0" steps="16" name="" pos="576">
          <note vol="100" pan="0" len="12" key="36" pos="0"/>
          <note vol="100" pan="0" len="12" key="42" pos="24"/>
          <note vol="100" pan="0" len="12" key="40" pos="48"/>
          <note vol="100" pan="0" len="12" key="36" pos="48"/>
          <note vol="100" pan="0" len="12" key="42" pos="72"/>
          <note vol="100" pan="0" len="12" key="36" pos="96"/>
          <note vol="100" pan="0" len="12" key="42" pos="120"/>
          <note vol="100" pan="0" len="12" key="40" pos="144"/>
          <note vol="100" pan="0" len="12" key="36" pos="144"/>
          <note vol="100" pan="0" len="12" key="42" pos="168"/>
        </midiclip>
        <midiclip type="1" muted="0" steps="16" name="" pos="768">
          <note vol="100" pan="0" len="12" key="36" pos="0"/>
          <note vol="100" pan="0" len="12" key="42" pos="24"/>
          <note vol="100" pan="0" len="12" key="40" pos="48"/>
          <note vol="100" pan="0" len="12" key="36" pos="48"/>
          <note vol="100" pan="0" len="12" key="42" pos="72"/>
          <note vol="100" pan="0" len="12" key="36" pos="96"/>
          <note vol="100" pan="0" len="12" key="42" pos="120"/>
          <note vol="100" pan="0" len="12" key="40" pos="144"/>
          <note vol="100" pan="0" len="12" key="36" pos="144"/>
          <note vol="100" pan="0" len="12" key="42" pos="168"/>
        </midiclip>
        <midiclip type="1" muted="0" steps="16" name="" pos="960">
          <note vol="100" pan="0" len="12" key="36" pos="0"/>
          <note vol="100" pan="0" len="12" key="42" pos="24"/>
          <note vol="100" pan="0" len="12" key="40" pos="48"/>
          <note vol="100" pan="0" len="12" key="36" pos="48"/>
          <note vol="100" pan="0" len="12" key="42" pos="72"/>
          <note vol="100" pan="0" len="12" key="36" pos="96"/>
          <note vol="100" pan="0" len="12" key="47" pos="120"/>
          <note vol="100" pan="0" len="12" key="42" pos="120"/>
          <note vol="100" pan="0" len="12" key="45" pos="132"/>
          <note vol="100" pan="0" len="12" key="43" pos="144"/>
          <note vol="100" pan="0" len="12" key="40" pos="144"/>
          <note vol="100" pan="0" len="12" key="36" pos="144"/>
          <note vol="100" pan="0" len="12" key="42" pos="168"/>
          <note vol="100" pan="0" len="12" key="41" pos="168"/>
        </midiclip>
        <midiclip type="1" muted="0" steps="16" name="" pos="1152">
          <note vol="100" pan="0" len="12" key="36" pos="0"/>
          <note vol="100" pan="0" len="12" key="42" pos="24"/>
          <note vol="100" pan="0" len="12" key="40" pos="48"/>
          <note vol="100" pan="0" len="12" key="36" pos="48"/>
          <note vol="100" pan="0" len="12" key="42" pos="72"/>
          <note vol="100" pan="0" len="12" key="36" pos="96"/>
          <note vol="100" pan="0" len="12" key="42" pos="120"/>
          <note vol="100" pan="0" len="12" key="40" pos="144"/>
          <note vol="100" pan="0" len="12" key="36" pos="144"/>
          <note vol="100" pan="0" len="12" key="42" pos="168"/>
        </midiclip>
        <midiclip type="1" muted="0" steps="16" name="" pos="1344">
          <note vol="100" pan="0" len="12" key="36" pos="0"/>
          <note vol="100" pan="0" len="12" key="42" pos="24"/>
          <note vol="100" pan="0" len="12" key="40" pos="48"/>
          <note vol="100" pan="0" len="12" key="36" pos="48"/>
          <note vol="100" pan="0" len="12" key="42" pos="72"/>
          <note vol="100" pan="0" len="12" key="36" pos="96"/>
          <note vol="100" pan="0" len="12" key="42" pos="120"/>
          <note vol="100" pan="0" len="12" key="40" pos="144"/>
          <note vol="100" pan="0" len="12" key="36" pos="144"/>
          <note vol="100" pan="0" len="12" key="42" pos="168"/>
        </midiclip>
        <midiclip type="1" muted="0" steps="16" name="" pos="1536">
          <note vol="100" pan="0" len="12" key="36" pos="0"/>
          <note vol="100" pan="0" len="12" key="42" pos="24"/>
          <note vol="100" pan="0" len="12" key="40" pos="48"/>
          <note vol="100" pan="0" len="12" key="36" pos="48"/>
          <note vol="100" pan="0" len="12" key="42" pos="72"/>
          <note vol="100" pan="0" len="12" key="36" pos="96"/>
          <note vol="100" pan="0" len="12" key="42" pos="120"/>
          <note vol="100" pan="0" len="12" key="40" pos="144"/>
          <note vol="100" pan="0" len="12" key="36" pos="144"/>
          <note vol="100" pan="0" len="12" key="42" pos="168"/>
        </midiclip>
        <midiclip type="1" muted="0" steps="16" name="" pos="1728">
          <note vol="100" pan="0" len="12" key="36" pos="0"/>
          <note vol="100" pan="0" len="12" key="42" pos="24"/>
          <note vol="100" pan="0" len="12" key="44" pos="36"/>
          <note vol="100" pan="0" len="12" key="46" pos="48"/>
          <note vol="100" pan="0" len="12" key="40" pos="48"/>
          <note vol="100" pan="0" len="12" key="36" pos="48"/>
          <note vol="100" pan="0" len="12" key="42" pos="72"/>
          <note vol="100" pan="0" len="12" key="36" pos="96"/>
          <note vol="100" pan="0" len="12" key="46" pos="120"/>
          <note vol="100" pan="0" len="12" key="42" pos="120"/>
          <note vol="100" pan="0" len="12" key="40" pos="144"/>
          <note vol="100" pan="0" len="12" key="36" pos="144"/>
          <note vol="100" pan="0" len="12" key="46" pos="168"/>
          <note vol="100" pan="0" len="12" key="42" pos="168"/>
        </midiclip>
        <midiclip type="1" muted="0" steps="16" name="" pos="1920">
          <note vol="100" pan="0" len="12" key="36" pos="0"/>
          <note vol="100" pan="0" len="12" key="42" pos="24"/>
          <note vol="100" pan="0" len="12" key="42" pos="48"/>
          <note vol="100" pan="0" len="12" key="36" pos="72"/>
          <note vol="100" pan="0" len="12" key="42" pos="96"/>
          <note vol="100" pan="0" len="12" key="42" pos="120"/>
          <note vol="100" pan="0" len="12" key="42" pos="132"/>
          <note vol="100" pan="0" len="12" key="36" pos="144"/>
          <note vol="100" pan="0" len="12" key="42" pos="168"/>
          <note vol="100" pan="0" len="12" key="38" pos="192"/>
          <note vol="100" pan="0" len="12" key="36" pos="192"/>
          <note vol="100" pan="0" len="12" key="42" pos="216"/>
          <note vol="100" pan="0" len="12" key="36" pos="240"/>
          <note vol="100" pan="0" len="12" key="42" pos="264"/>
          <note vol="100" pan="0" len="12" key="42" pos="288"/>
          <note vol="100" pan="0" len="12" key="36" pos="312"/>
          <note vol="100" pan="0" len="12" key="42" pos="336"/>
          <note vol="100" pan="0" len="12" key="42" pos="360"/>
          <note vol="100" pan="0" len="12" key="46" pos="384"/>
          <note vol="100" pan="0" len="12" key="36" pos="384"/>
          <note vol="100" pan="0" len="12" key="42" pos="408"/>
          <note vol="100" pan="0" len="12" key="38" pos="432"/>
          <note vol="100" pan="0" len="12" key="36" pos="432"/>
          <note vol="100" pan="0" len="12" key="42" pos="456"/>
          <note vol="100" pan="0" len="12" key="36" pos="480"/>
          <note vol="100" pan="0" len="12" key="42" pos="504"/>
          <note vol="100" pan="0" len="12" key="42" pos="528"/>
          <note vol="100" pan="0" len="12" key="36" pos="552"/>
          <note vol="100" pan="0" len="12" key="42" pos="576"/>
          <note vol="100" pan="0" len="12" key="42" pos="600"/>
          <note vol="100" pan="0" len="12" key="42" pos="612"/>
          <note vol="100" pan="0" len="12" key="36" pos="624"/>
          <note vol="100" pan="0" len="12" key="42" pos="648"/>
          <note vol="100" pan="0" len="12" key="38" pos="672"/>
          <note vol="100" pan="0" len="12" key="36" pos="672"/>
          <note vol="100" pan="0" len="12" key="42" pos="696"/>
          <note vol="100" pan="0" len="12" key="36" pos="720"/>
          <note vol="100" pan="0" len="12" key="42" pos="744"/>
          <note vol="100" pan="0" len="12" key="42" pos="768"/>
          <note vol="100" pan="0" len="12" key="36" pos="792"/>
          <note vol="100" pan="0" len="12" key="42" pos="816"/>
          <note vol="100" pan="0" len="12" key="42" pos="840"/>
          <note vol="100" pan="0" len="12" key="46" pos="864"/>
          <note vol="100" pan="0" len="12" key="36" pos="864"/>
          <note vol="100" pan="0" len="12" key="42" pos="888"/>
          <note vol="100" pan="0" len="12" key="38" pos="912"/>
          <note vol="100" pan="0" len="12" key="36" pos="912"/>
          <note vol="100" pan="0" len="12" key="42" pos="936"/>
        </midiclip>
        <midiclip type="1" muted="0" steps="16" name="" pos="2880">
          <note vol="100" pan="0" len="12" key="36" pos="0"/>
          <note vol="100" pan="0" len="12" key="42" pos="24"/>
          <note vol="100" pan="0" len="12" key="42" pos="48"/>
          <note vol="100" pan="0" len="12" key="36" pos="72"/>
          <note vol="100" pan="0" len="12" key="42" pos="96"/>
          <note vol="100" pan="0" len="12" key="42" pos="120"/>
          <note vol="100" pan="0" len="12" key="42" pos="132"/>
          <note vol="100" pan="0" len="12" key="36" pos="144"/>
          <note vol="100" pan="0" len="12" key="42" pos="168"/>
          <note vol="100" pan="0" len="12" key="38" pos="192"/>
          <note vol="100" pan="0" len="12" key="36" pos="192"/>
          <note vol="100" pan="0" len="12" key="42" pos="216"/>
          <note vol="100" pan="0" len="12" key="36" pos="240"/>
          <note vol="100" pan="0" len="12" key="42" pos="264"/>
          <note vol="100" pan="0" len="12" key="42" pos="288"/>
          <note vol="100" pan="0" len="12" key="36" pos="312"/>
          <note vol="100" pan="0" len="12" key="42" pos="336"/>
          <note vol="100" pan="0" len="12" key="42" pos="360"/>
          <note vol="100" pan="0" len="12" key="46" pos="384"/>
          <note vol="100" pan="0" len="12" key="36" pos="384"/>
          <note vol="100" pan="0" len="12" key="42" pos="408"/>
          <note vol="100" pan="0" len="12" key="38" pos="432"/>
          <note vol="100" pan="0" len="12" key="36" pos="432"/>
          <note vol="100" pan="0" len="12" key="42" pos="456"/>
          <note vol="100" pan="0" len="12" key="36" pos="480"/>
          <note vol="100" pan="0" len="12" key="42" pos="504"/>
          <note vol="100" pan="0" len="12" key="42" pos="528"/>
          <note vol="100" pan="0" len="12" key="36" pos="552"/>
          <note vol="100" pan="0" len="12" key="42" pos="576"/>
          <note vol="100" pan="0" len="12" key="42" pos="600"/>
          <note vol="100" pan="0" len="12" key="42" pos="612"/>
          <note vol="100" pan="0" len="12" key="36" pos="624"/>
          <note vol="100" pan="0" len="12" key="42" pos="648"/>
          <note vol="100" pan="0" len="12" key="38" pos="672"/>
          <note vol="100" pan="0" len="12" key="36" pos="672"/>
          <note vol="100" pan="0" len="12" key="42" pos="696"/>
          <note vol="100" pan="0" len="12" key="36" pos="720"/>
          <note vol="100" pan="0" len="12" key="42" pos="744"/>
          <note vol="100" pan="0" len="12" key="42" pos="768"/>
          <note vol="100" pan="0" len="12" key="36" pos="792"/>
          <note vol="100" pan="0" len="12" key="42" pos="816"/>
          <note vol="100" pan="0" len="12" key="42" pos="840"/>
          <note vol="100" pan="0" len="12" key="46" pos="864"/>
          <note vol="100" pan="0" len="12" key="36" pos="864"/>
          <note vol="100" pan="0" len="12" key="42" pos="888"/>
          <note vol="100" pan="0" len="12" key="38" pos="912"/>
          <note vol="100" pan="0" len="12" key="36" pos="912"/>
          <note vol="100" pan="0" len="12" key="42" pos="936"/>
        </midiclip>
        <midiclip type="1" muted="0" steps="16" name="" pos="7680">
          <note vol="100" pan="0" len="12" key="36" pos="0"/>
          <note vol="100" pan="0" len="12" key="36" pos="36"/>
          <note vol="100" pan="0" len="12" key="46" pos="72"/>
          <note vol="100" pan="0" len="12" key="40" pos="72"/>
          <note vol="100" pan="0" len="12" key="36" pos="72"/>
          <note vol="100" pan="0" len="12" key="36" pos="120"/>
          <note vol="100" pan="0" len="12" key="36" pos="144"/>
          <note vol="100" pan="0" len="12" key="36" pos="180"/>
          <note vol="100" pan="0" len="12" key="38" pos="216"/>
          <note vol="100" pan="0" len="12" key="36" pos="216"/>
        </midiclip>
        <midiclip type="1" muted="0" steps="16" name="" pos="3840">
          <note vol="100" pan="0" len="12" key="36" pos="0"/>
          <note vol="100" pan="0" len="12" key="36" pos="24"/>
          <note vol="100" pan="0" len="12" key="42" pos="48"/>
          <note vol="100" pan="0" len="12" key="40" pos="48"/>
          <note vol="100" pan="0" len="12" key="36" pos="48"/>
          <note vol="100" pan="0" len="12" key="42" pos="72"/>
          <note vol="100" pan="0" len="12" key="36" pos="96"/>
          <note vol="100" pan="0" len="12" key="36" pos="120"/>
          <note vol="100" pan="0" len="12" key="40" pos="144"/>
          <note vol="100" pan="0" len="12" key="36" pos="144"/>
          <note vol="100" pan="0" len="12" key="42" pos="168"/>
        </midiclip>
        <midiclip type="1" muted="0" steps="16" name="" pos="4032">
          <note vol="100" pan="0" len="12" key="36" pos="0"/>
          <note vol="100" pan="0" len="12" key="36" pos="24"/>
          <note vol="100" pan="0" len="12" key="42" pos="48"/>
          <note vol="100" pan="0" len="12" key="40" pos="48"/>
          <note vol="100" pan="0" len="12" key="36" pos="48"/>
          <note vol="100" pan="0" len="12" key="42" pos="72"/>
          <note vol="100" pan="0" len="12" key="36" pos="96"/>
          <note vol="100" pan="0" len="12" key="36" pos="120"/>
          <note vol="100" pan="0" len="12" key="40" pos="144"/>
          <note vol="100" pan="0" len="12" key="36" pos="144"/>
          <note vol="100" pan="0" len="12" key="42" pos="168"/>
        </midiclip>
        <midiclip type="1" muted="0" steps="16" name="" pos="4224">
          <note vol="100" pan="0" len="12" key="36" pos="0"/>
          <note vol="100" pan="0" len="12" key="36" pos="24"/>
          <note vol="100" pan="0" len="12" key="42" pos="48"/>
          <note vol="100" pan="0" len="12" key="40" pos="48"/>
          <note vol="100" pan="0" len="12" key="36" pos="48"/>
          <note vol="100" pan="0" len="12" key="42" pos="72"/>
          <note vol="100" pan="0" len="12" key="36" pos="96"/>
          <note vol="100" pan="0" len="12" key="36" pos="120"/>
          <note vol="100" pan="0" len="12" key="40" pos="144"/>
          <note vol="100" pan="0" len="12" key="36" pos="144"/>
          <note vol="100" pan="0" len="12" key="42" pos="168"/>
        </midiclip>
        <midiclip type="1" muted="0" steps="16" name="" pos="4416">
          <note vol="100" pan="0" len="12" key="36" pos="0"/>
          <note vol="100" pan="0" len="12" key="36" pos="24"/>
          <note vol="100" pan="0" len="12" key="42" pos="48"/>
          <note vol="100" pan="0" len="12" key="40" pos="48"/>
          <note vol="100" pan="0" len="12" key="36" pos="48"/>
          <note vol="100" pan="0" len="12" key="42" pos="72"/>
          <note vol="100" pan="0" len="12" key="36" pos="96"/>
          <note vol="100" pan="0" len="12" key="36" pos="120"/>
          <note vol="100" pan="0" len="12" key="40" pos="144"/>
          <note vol="100" pan="0" len="12" key="36" pos="144"/>
          <note vol="100" pan="0" len="12" key="42" pos="168"/>
        </midiclip>
        <midiclip type="1" muted="0" steps="16" name="" pos="4608">
          <note vol="100" pan="0" len="12" key="36" pos="0"/>
          <note vol="100" pan="0" len="12" key="36" pos="24"/>
          <note vol="100" pan="0" len="12" key="42" pos="48"/>
          <note vol="100" pan="0" len="12" key="40" pos="48"/>
          <note vol="100" pan="0" len="12" key="36" pos="48"/>
          <note vol="100" pan="0" len="12" key="42" pos="72"/>
          <note vol="100" pan="0" len="12" key="36" pos="96"/>
          <note vol="100" pan="0" len="12" key="36" pos="120"/>
          <note vol="100" pan="0" len="12" key="40" pos="144"/>
          <note vol="100" pan="0" len="12" key="36" pos="144"/>
          <note vol="100" pan="0" len="12" key="42" pos="168"/>
        </midiclip>
        <midiclip type="1" muted="0" steps="16" name="" pos="4800">
          <note vol="100" pan="0" len="12" key="36" pos="0"/>
          <note vol="100" pan="0" len="12" key="36" pos="24"/>
          <note vol="100" pan="0" len="12" key="42" pos="48"/>
          <note vol="100" pan="0" len="12" key="40" pos="48"/>
          <note vol="100" pan="0" len="12" key="36" pos="48"/>
          <note vol="100" pan="0" len="12" key="42" pos="72"/>
          <note vol="100" pan="0" len="12" key="36" pos="96"/>
          <note vol="100" pan="0" len="12" key="36" pos="120"/>
          <note vol="100" pan="0" len="12" key="40" pos="144"/>
          <note vol="100" pan="0" len="12" key="36" pos="144"/>
          <note vol="100" pan="0" len="12" key="42" pos="168"/>
        </midiclip>
        <midiclip type="1" muted="0" steps="16" name="" pos="4992">
          <note vol="100" pan="0" len="12" key="36" pos="0"/>
          <note vol="100" pan="0" len="12" key="36" pos="24"/>
          <note vol="100" pan="0" len="12" key="42" pos="48"/>
          <note vol="100" pan="0" len="12" key="40" pos="48"/>
          <note vol="100" pan="0" len="12" key="36" pos="48"/>
          <note vol="100" pan="0" len="12" key="42" pos="72"/>
          <note vol="100" pan="0" len="12" key="36" pos="96"/>
          <note vol="100" pan="0" len="12" key="36" pos="120"/>
          <note vol="100" pan="0" len="12" key="40" pos="144"/>
          <note vol="100" pan="0" len="12" key="36" pos="144"/>
          <note vol="100" pan="0" len="12" key="42" pos="168"/>
        </midiclip>
        <midiclip type="1" muted="0" steps="16" name="" pos="5184">
          <note vol="100" pan="0" len="12" key="36" pos="0"/>
          <note vol="100" pan="0" len="12" key="36" pos="24"/>
          <note vol="100" pan="0" len="12" key="42" pos="48"/>
          <note vol="100" pan="0" len="12" key="40" pos="48"/>
          <note vol="100" pan="0" len="12" key="36" pos="48"/>
          <note vol="100" pan="0" len="12" key="42" pos="72"/>
          <note vol="100" pan="0" len="12" key="36" pos="96"/>
          <note vol="100" pan="0" len="12" key="36" pos="120"/>
          <note vol="100" pan="0" len="12" key="40" pos="144"/>
          <note vol="100" pan="0" len="12" key="36" pos="144"/>
          <note vol="100" pan="0" len="12" key="42" pos="168"/>
        </midiclip>
        <midiclip type="1" muted="0" steps="16" name="" pos="5376">
          <note vol="100" pan="0" len="12" key="36" pos="0"/>
          <note vol="100" pan="0" len="12" key="36" pos="48"/>
          <note vol="100" pan="0" len="12" key="36" pos="96"/>
          <note vol="100" pan="0" len="12" key="36" pos="144"/>
        </midiclip>
      </track>
      <track type="0" muted="0" mutedBeforeSolo="0" solo="0" name="Drums>Natural">
        <instrumenttrack pitchrange="1" firstkey="0" vol="100" pitch="0" pan="0" enabled="0" lastkey="127" enablecc="0" scale="0" mixch="3" usemasterpitch="1" basenote="69" keymap="0" range_import="1">
          <midicontrollers cc4="0" cc56="0" cc35="0" cc44="0" cc2="0" cc38="0" cc124="0" cc24="0" cc97="0" cc16="0" cc123="0" cc61="0" cc84="0" cc79="0" cc6="0" cc91="0" cc29="0" cc67="0" cc28="0" cc23="0" cc65="0" cc8="0" cc33="0" cc14="0" cc31="0" cc70="0" cc119="0" cc12="0" cc43="0" cc1="0" cc114="0" cc20="0" cc73="0" cc11="0" cc63="0" cc46="0" cc34="0" cc66="0" cc125="0" cc42="0" cc40="0" cc37="0" cc58="0" cc55="0" cc95="0" cc126="0" cc36="0" cc48="0" cc81="0" cc50="0" cc64="0" cc93="0" cc80="0" cc82="0" cc103="0" cc19="0" cc83="0" cc25="0" cc26="0" cc75="0" cc109="0" cc106="0" cc41="0" cc17="0" cc102="0" cc92="0" cc78="0" cc13="0" cc112="0" cc120="0" cc107="0" cc0="0" cc53="0" cc18="0" cc62="0" cc68="0" cc122="0" cc49="0" cc86="0" cc113="0" cc45="0" cc7="0" cc87="0" cc27="0" cc21="0" cc3="0" cc85="0" cc100="0" cc104="0" cc96="0" cc39="0" cc76="0" cc32="0" cc98="0" cc57="0" cc101="0" cc59="0" cc60="0" cc47="0" cc117="0" cc72="0" cc111="0" cc5="0" cc71="0" cc89="0" cc54="0" cc88="0" cc108="0" cc77="0" cc115="0" cc118="0" cc9="0" cc121="0" cc90="0" cc110="0" cc51="0" cc52="0" cc127="0" cc69="0" cc99="0" cc74="0" cc30="0" cc15="0" cc10="0" cc22="0" cc94="0" cc105="0" cc116="0"/>
          <instrument name="sf2player">
            <sf2player reverbWidth="0.5" reverbOn="0" chorusDepth="8" reverbRoomSize="0.2" chorusNum="3" chorusLevel="2" chorusOn="0" src="usersoundfont:drums_ken_ardency_mono.sf2" chorusSpeed="0.3" patch="0" reverbDamping="0" reverbLevel="0.9" bank="128" gain="0.34">
              <key/>
            </sf2player>
          </instrument>
          <eldata fres="0.5" fwet="0" ftype="0" fcut="14000">
            <elvol lpdel="0" hold="0.5" lamt="0" pdel="0" latt="0" ctlenvamt="0" amt="0" sustain="0.5" lspd_syncmode="0" lspd="0.1" x100="0" dec="0.5" lspd_denominator="4" lshp="0" att="0" rel="0.1" lspd_numerator="4" userwavefile=""/>
            <elcut lpdel="0" hold="0.5" lamt="0" pdel="0" latt="0" ctlenvamt="0" amt="0" sustain="0.5" lspd_syncmode="0" lspd="0.1" x100="0" dec="0.5" lspd_denominator="4" lshp="0" att="0" rel="0.1" lspd_numerator="4" userwavefile=""/>
            <elres lpdel="0" hold="0.5" lamt="0" pdel="0" latt="0" ctlenvamt="0" amt="0" sustain="0.5" lspd_syncmode="0" lspd="0.1" x100="0" dec="0.5" lspd_denominator="4" lshp="0" att="0" rel="0.1" lspd_numerator="4" userwavefile=""/>
          </eldata>
          <chordcreator chordrange="1" chord-enabled="0" chord="0"/>
          <arpeggiator arprepeats="1" arp-enabled="0" arpskip="0" arptime="200" arptime_syncmode="0" arp="0" arptime_numerator="4" arpgate="100" arpmiss="0" arptime_denominator="4" arpdir="0" arprange="1" arpcycle="0" arpmode="0"/>
          <midiport basevelocity="127" outputchannel="1" fixedinputvelocity="-1" fixedoutputnote="-1" readable="1" fixedoutputvelocity="-1" writable="0" inputcontroller="0" outputprogram="1" inports="" inputchannel="0" outputcontroller="0"/>
          <fxchain numofeffects="0" enabled="0"/>
        </instrumenttrack>
        <midiclip type="1" muted="0" steps="16" name="" pos="0">
          <note vol="100" pan="0" len="12" key="36" pos="0"/>
          <note vol="100" pan="0" len="12" key="42" pos="24"/>
          <note vol="100" pan="0" len="12" key="40" pos="48"/>
          <note vol="100" pan="0" len="12" key="36" pos="48"/>
          <note vol="100" pan="0" len="12" key="42" pos="72"/>
          <note vol="100" pan="0" len="12" key="36" pos="96"/>
          <note vol="100" pan="0" len="12" key="42" pos="120"/>
          <note vol="100" pan="0" len="12" key="40" pos="144"/>
          <note vol="100" pan="0" len="12" key="36" pos="144"/>
          <note vol="100" pan="0" len="12" key="42" pos="168"/>
        </midiclip>
        <midiclip type="1" muted="0" steps="16" name="" pos="192">
          <note vol="100" pan="0" len="12" key="36" pos="0"/>
          <note vol="100" pan="0" len="12" key="42" pos="24"/>
          <note vol="100" pan="0" len="12" key="40" pos="48"/>
          <note vol="100" pan="0" len="12" key="36" pos="48"/>
          <note vol="100" pan="0" len="12" key="42" pos="72"/>
          <note vol="100" pan="0" len="12" key="36" pos="96"/>
          <note vol="100" pan="0" len="12" key="42" pos="120"/>
          <note vol="100" pan="0" len="12" key="40" pos="144"/>
          <note vol="100" pan="0" len="12" key="36" pos="144"/>
          <note vol="100" pan="0" len="12" key="42" pos="168"/>
        </midiclip>
        <midiclip type="1" muted="0" steps="16" name="" pos="384">
          <note vol="100" pan="0" len="12" key="36" pos="0"/>
          <note vol="100" pan="0" len="12" key="42" pos="24"/>
          <note vol="100" pan="0" len="12" key="40" pos="48"/>
          <note vol="100" pan="0" len="12" key="36" pos="48"/>
          <note vol="100" pan="0" len="12" key="42" pos="72"/>
          <note vol="100" pan="0" len="12" key="36" pos="96"/>
          <note vol="100" pan="0" len="12" key="42" pos="120"/>
          <note vol="100" pan="0" len="12" key="40" pos="144"/>
          <note vol="100" pan="0" len="12" key="36" pos="144"/>
          <note vol="100" pan="0" len="12" key="42" pos="168"/>
        </midiclip>
        <midiclip type="1" muted="0" steps="16" name="" pos="576">
          <note vol="100" pan="0" len="12" key="36" pos="0"/>
          <note vol="100" pan="0" len="12" key="42" pos="24"/>
          <note vol="100" pan="0" len="12" key="40" pos="48"/>
          <note vol="100" pan="0" len="12" key="36" pos="48"/>
          <note vol="100" pan="0" len="12" key="42" pos="72"/>
          <note vol="100" pan="0" len="12" key="36" pos="96"/>
          <note vol="100" pan="0" len="12" key="42" pos="120"/>
          <note vol="100" pan="0" len="12" key="40" pos="144"/>
          <note vol="100" pan="0" len="12" key="36" pos="144"/>
          <note vol="100" pan="0" len="12" key="42" pos="168"/>
        </midiclip>
        <midiclip type="1" muted="0" steps="16" name="" pos="768">
          <note vol="100" pan="0" len="12" key="36" pos="0"/>
          <note vol="100" pan="0" len="12" key="42" pos="24"/>
          <note vol="100" pan="0" len="12" key="40" pos="48"/>
          <note vol="100" pan="0" len="12" key="36" pos="48"/>
          <note vol="100" pan="0" len="12" key="42" pos="72"/>
          <note vol="100" pan="0" len="12" key="36" pos="96"/>
          <note vol="100" pan="0" len="12" key="42" pos="120"/>
          <note vol="100" pan="0" len="12" key="40" pos="144"/>
          <note vol="100" pan="0" len="12" key="36" pos="144"/>
          <note vol="100" pan="0" len="12" key="42" pos="168"/>
        </midiclip>
        <midiclip type="1" muted="0" steps="16" name="" pos="960">
          <note vol="100" pan="0" len="12" key="36" pos="0"/>
          <note vol="100" pan="0" len="12" key="42" pos="24"/>
          <note vol="100" pan="0" len="12" key="40" pos="48"/>
          <note vol="100" pan="0" len="12" key="36" pos="48"/>
          <note vol="100" pan="0" len="12" key="42" pos="72"/>
          <note vol="100" pan="0" len="12" key="36" pos="96"/>
          <note vol="100" pan="0" len="12" key="47" pos="120"/>
          <note vol="100" pan="0" len="12" key="42" pos="120"/>
          <note vol="100" pan="0" len="12" key="45" pos="132"/>
          <note vol="100" pan="0" len="12" key="43" pos="144"/>
          <note vol="100" pan="0" len="12" key="40" pos="144"/>
          <note vol="100" pan="0" len="12" key="36" pos="144"/>
          <note vol="100" pan="0" len="12" key="42" pos="168"/>
          <note vol="100" pan="0" len="12" key="41" pos="168"/>
        </midiclip>
        <midiclip type="1" muted="0" steps="16" name="" pos="1152">
          <note vol="100" pan="0" len="12" key="36" pos="0"/>
          <note vol="100" pan="0" len="12" key="42" pos="24"/>
          <note vol="100" pan="0" len="12" key="40" pos="48"/>
          <note vol="100" pan="0" len="12" key="36" pos="48"/>
          <note vol="100" pan="0" len="12" key="42" pos="72"/>
          <note vol="100" pan="0" len="12" key="36" pos="96"/>
          <note vol="100" pan="0" len="12" key="42" pos="120"/>
          <note vol="100" pan="0" len="12" key="40" pos="144"/>
          <note vol="100" pan="0" len="12" key="36" pos="144"/>
          <note vol="100" pan="0" len="12" key="42" pos="168"/>
        </midiclip>
        <midiclip type="1" muted="0" steps="16" name="" pos="1344">
          <note vol="100" pan="0" len="12" key="36" pos="0"/>
          <note vol="100" pan="0" len="12" key="42" pos="24"/>
          <note vol="100" pan="0" len="12" key="40" pos="48"/>
          <note vol="100" pan="0" len="12" key="36" pos="48"/>
          <note vol="100" pan="0" len="12" key="42" pos="72"/>
          <note vol="100" pan="0" len="12" key="36" pos="96"/>
          <note vol="100" pan="0" len="12" key="42" pos="120"/>
          <note vol="100" pan="0" len="12" key="40" pos="144"/>
          <note vol="100" pan="0" len="12" key="36" pos="144"/>
          <note vol="100" pan="0" len="12" key="42" pos="168"/>
        </midiclip>
        <midiclip type="1" muted="0" steps="16" name="" pos="1536">
          <note vol="100" pan="0" len="12" key="36" pos="0"/>
          <note vol="100" pan="0" len="12" key="42" pos="24"/>
          <note vol="100" pan="0" len="12" key="40" pos="48"/>
          <note vol="100" pan="0" len="12" key="36" pos="48"/>
          <note vol="100" pan="0" len="12" key="42" pos="72"/>
          <note vol="100" pan="0" len="12" key="36" pos="96"/>
          <note vol="100" pan="0" len="12" key="42" pos="120"/>
          <note vol="100" pan="0" len="12" key="40" pos="144"/>
          <note vol="100" pan="0" len="12" key="36" pos="144"/>
          <note vol="100" pan="0" len="12" key="42" pos="168"/>
        </midiclip>
        <midiclip type="1" muted="0" steps="16" name="" pos="1728">
          <note vol="100" pan="0" len="12" key="36" pos="0"/>
          <note vol="100" pan="0" len="12" key="42" pos="24"/>
          <note vol="100" pan="0" len="12" key="44" pos="36"/>
          <note vol="100" pan="0" len="12" key="46" pos="48"/>
          <note vol="100" pan="0" len="12" key="40" pos="48"/>
          <note vol="100" pan="0" len="12" key="36" pos="48"/>
          <note vol="100" pan="0" len="12" key="42" pos="72"/>
          <note vol="100" pan="0" len="12" key="36" pos="96"/>
          <note vol="100" pan="0" len="12" key="46" pos="120"/>
          <note vol="100" pan="0" len="12" key="42" pos="120"/>
          <note vol="100" pan="0" len="12" key="40" pos="144"/>
          <note vol="100" pan="0" len="12" key="36" pos="144"/>
          <note vol="100" pan="0" len="12" key="46" pos="168"/>
          <note vol="100" pan="0" len="12" key="42" pos="168"/>
        </midiclip>
        <midiclip type="1" muted="0" steps="16" name="" pos="1920">
          <note vol="100" pan="0" len="12" key="36" pos="0"/>
          <note vol="100" pan="0" len="12" key="42" pos="24"/>
          <note vol="100" pan="0" len="12" key="42" pos="48"/>
          <note vol="100" pan="0" len="12" key="36" pos="72"/>
          <note vol="100" pan="0" len="12" key="42" pos="96"/>
          <note vol="100" pan="0" len="12" key="42" pos="120"/>
          <note vol="100" pan="0" len="12" key="42" pos="132"/>
          <note vol="100" pan="0" len="12" key="36" pos="144"/>
          <note vol="100" pan="0" len="12" key="42" pos="168"/>
          <note vol="100" pan="0" len="12" key="38" pos="192"/>
          <note vol="100" pan="0" len="12" key="36" pos="192"/>
          <note vol="100" pan="0" len="12" key="42" pos="216"/>
          <note vol="100" pan="0" len="12" key="36" pos="240"/>
          <note vol="100" pan="0" len="12" key="42" pos="264"/>
          <note vol="100" pan="0" len="12" key="42" pos="288"/>
          <note vol="100" pan="0" len="12" key="36" pos="312"/>
          <note vol="100" pan="0" len="12" key="42" pos="336"/>
          <note vol="100" pan="0" len="12" key="42" pos="360"/>
          <note vol="100" pan="0" len="12" key="46" pos="384"/>
          <note vol="100" pan="0" len="12" key="36" pos="384"/>
          <note vol="100" pan="0" len="12" key="42" pos="408"/>
          <note vol="100" pan="0" len="12" key="38" pos="432"/>
          <note vol="100" pan="0" len="12" key="36" pos="432"/>
          <note vol="100" pan="0" len="12" key="42" pos="456"/>
          <note vol="100" pan="0" len="12" key="36" pos="480"/>
          <note vol="100" pan="0" len="12" key="42" pos="504"/>
          <note vol="100" pan="0" len="12" key="42" pos="528"/>
          <note vol="100" pan="0" len="12" key="36" pos="552"/>
          <note vol="100" pan="0" len="12" key="42" pos="576"/>
          <note vol="100" pan="0" len="12" key="42" pos="600"/>
          <note vol="100" pan="0" len="12" key="42" pos="612"/>
          <note vol="100" pan="0" len="12" key="36" pos="624"/>
          <note vol="100" pan="0" len="12" key="42" pos="648"/>
          <note vol="100" pan="0" len="12" key="38" pos="672"/>
          <note vol="100" pan="0" len="12" key="36" pos="672"/>
          <note vol="100" pan="0" len="12" key="42" pos="696"/>
          <note vol="100" pan="0" len="12" key="36" pos="720"/>
          <note vol="100" pan="0" len="12" key="42" pos="744"/>
          <note vol="100" pan="0" len="12" key="42" pos="768"/>
          <note vol="100" pan="0" len="12" key="36" pos="792"/>
          <note vol="100" pan="0" len="12" key="42" pos="816"/>
          <note vol="100" pan="0" len="12" key="42" pos="840"/>
          <note vol="100" pan="0" len="12" key="46" pos="864"/>
          <note vol="100" pan="0" len="12" key="36" pos="864"/>
          <note vol="100" pan="0" len="12" key="42" pos="888"/>
          <note vol="100" pan="0" len="12" key="38" pos="912"/>
          <note vol="100" pan="0" len="12" key="36" pos="912"/>
          <note vol="100" pan="0" len="12" key="42" pos="936"/>
        </midiclip>
        <midiclip type="1" muted="0" steps="16" name="" pos="2880">
          <note vol="100" pan="0" len="12" key="36" pos="0"/>
          <note vol="100" pan="0" len="12" key="42" pos="24"/>
          <note vol="100" pan="0" len="12" key="42" pos="48"/>
          <note vol="100" pan="0" len="12" key="36" pos="72"/>
          <note vol="100" pan="0" len="12" key="42" pos="96"/>
          <note vol="100" pan="0" len="12" key="42" pos="120"/>
          <note vol="100" pan="0" len="12" key="42" pos="132"/>
          <note vol="100" pan="0" len="12" key="36" pos="144"/>
          <note vol="100" pan="0" len="12" key="42" pos="168"/>
          <note vol="100" pan="0" len="12" key="38" pos="192"/>
          <note vol="100" pan="0" len="12" key="36" pos="192"/>
          <note vol="100" pan="0" len="12" key="42" pos="216"/>
          <note vol="100" pan="0" len="12" key="36" pos="240"/>
          <note vol="100" pan="0" len="12" key="42" pos="264"/>
          <note vol="100" pan="0" len="12" key="42" pos="288"/>
          <note vol="100" pan="0" len="12" key="36" pos="312"/>
          <note vol="100" pan="0" len="12" key="42" pos="336"/>
          <note vol="100" pan="0" len="12" key="42" pos="360"/>
          <note vol="100" pan="0" len="12" key="46" pos="384"/>
          <note vol="100" pan="0" len="12" key="36" pos="384"/>
          <note vol="100" pan="0" len="12" key="42" pos="408"/>
          <note vol="100" pan="0" len="12" key="38" pos="432"/>
          <note vol="100" pan="0" len="12" key="36" pos="432"/>
          <note vol="100" pan="0" len="12" key="42" pos="456"/>
          <note vol="100" pan="0" len="12" key="36" pos="480"/>
          <note vol="100" pan="0" len="12" key="42" pos="504"/>
          <note vol="100" pan="0" len="12" key="42" pos="528"/>
          <note vol="100" pan="0" len="12" key="36" pos="552"/>
          <note vol="100" pan="0" len="12" key="42" pos="576"/>
          <note vol="100" pan="0" len="12" key="42" pos="600"/>
          <note vol="100" pan="0" len="12" key="42" pos="612"/>
          <note vol="100" pan="0" len="12" key="36" pos="624"/>
          <note vol="100" pan="0" len="12" key="42" pos="648"/>
          <note vol="100" pan="0" len="12" key="38" pos="672"/>
          <note vol="100" pan="0" len="12" key="36" pos="672"/>
          <note vol="100" pan="0" len="12" key="42" pos="696"/>
          <note vol="100" pan="0" len="12" key="36" pos="720"/>
          <note vol="100" pan="0" len="12" key="42" pos="744"/>
          <note vol="100" pan="0" len="12" key="42" pos="768"/>
          <note vol="100" pan="0" len="12" key="36" pos="792"/>
          <note vol="100" pan="0" len="12" key="42" pos="816"/>
          <note vol="100" pan="0" len="12" key="42" pos="840"/>
          <note vol="100" pan="0" len="12" key="46" pos="864"/>
          <note vol="100" pan="0" len="12" key="36" pos="864"/>
          <note vol="100" pan="0" len="12" key="42" pos="888"/>
          <note vol="100" pan="0" len="12" key="38" pos="912"/>
          <note vol="100" pan="0" len="12" key="36" pos="912"/>
          <note vol="100" pan="0" len="12" key="42" pos="936"/>
        </midiclip>
        <midiclip type="1" muted="0" steps="16" name="" pos="7680">
          <note vol="100" pan="0" len="12" key="36" pos="0"/>
          <note vol="100" pan="0" len="12" key="36" pos="36"/>
          <note vol="100" pan="0" len="12" key="46" pos="72"/>
          <note vol="100" pan="0" len="12" key="40" pos="72"/>
          <note vol="100" pan="0" len="12" key="36" pos="72"/>
          <note vol="100" pan="0" len="12" key="36" pos="120"/>
          <note vol="100" pan="0" len="12" key="36" pos="144"/>
          <note vol="100" pan="0" len="12" key="36" pos="180"/>
          <note vol="100" pan="0" len="12" key="38" pos="216"/>
          <note vol="100" pan="0" len="12" key="36" pos="216"/>
        </midiclip>
        <midiclip type="1" muted="0" steps="16" name="" pos="3840">
          <note vol="100" pan="0" len="12" key="36" pos="0"/>
          <note vol="100" pan="0" len="12" key="36" pos="24"/>
          <note vol="100" pan="0" len="12" key="42" pos="48"/>
          <note vol="100" pan="0" len="12" key="40" pos="48"/>
          <note vol="100" pan="0" len="12" key="36" pos="48"/>
          <note vol="100" pan="0" len="12" key="42" pos="72"/>
          <note vol="100" pan="0" len="12" key="36" pos="96"/>
          <note vol="100" pan="0" len="12" key="36" pos="120"/>
          <note vol="100" pan="0" len="12" key="40" pos="144"/>
          <note vol="100" pan="0" len="12" key="36" pos="144"/>
          <note vol="100" pan="0" len="12" key="42" pos="168"/>
        </midiclip>
        <midiclip type="1" muted="0" steps="16" name="" pos="4032">
          <note vol="100" pan="0" len="12" key="36" pos="0"/>
          <note vol="100" pan="0" len="12" key="36" pos="24"/>
          <note vol="100" pan="0" len="12" key="42" pos="48"/>
          <note vol="100" pan="0" len="12" key="40" pos="48"/>
          <note vol="100" pan="0" len="12" key="36" pos="48"/>
          <note vol="100" pan="0" len="12" key="42" pos="72"/>
          <note vol="100" pan="0" len="12" key="36" pos="96"/>
          <note vol="100" pan="0" len="12" key="36" pos="120"/>
          <note vol="100" pan="0" len="12" key="40" pos="144"/>
          <note vol="100" pan="0" len="12" key="36" pos="144"/>
          <note vol="100" pan="0" len="12" key="42" pos="168"/>
        </midiclip>
        <midiclip type="1" muted="0" steps="16" name="" pos="4224">
          <note vol="100" pan="0" len="12" key="36" pos="0"/>
          <note vol="100" pan="0" len="12" key="36" pos="24"/>
          <note vol="100" pan="0" len="12" key="42" pos="48"/>
          <note vol="100" pan="0" len="12" key="40" pos="48"/>
          <note vol="100" pan="0" len="12" key="36" pos="48"/>
          <note vol="100" pan="0" len="12" key="42" pos="72"/>
          <note vol="100" pan="0" len="12" key="36" pos="96"/>
          <note vol="100" pan="0" len="12" key="36" pos="120"/>
          <note vol="100" pan="0" len="12" key="40" pos="144"/>
          <note vol="100" pan="0" len="12" key="36" pos="144"/>
          <note vol="100" pan="0" len="12" key="42" pos="168"/>
        </midiclip>
        <midiclip type="1" muted="0" steps="16" name="" pos="4416">
          <note vol="100" pan="0" len="12" key="36" pos="0"/>
          <note vol="100" pan="0" len="12" key="36" pos="24"/>
          <note vol="100" pan="0" len="12" key="42" pos="48"/>
          <note vol="100" pan="0" len="12" key="40" pos="48"/>
          <note vol="100" pan="0" len="12" key="36" pos="48"/>
          <note vol="100" pan="0" len="12" key="42" pos="72"/>
          <note vol="100" pan="0" len="12" key="36" pos="96"/>
          <note vol="100" pan="0" len="12" key="36" pos="120"/>
          <note vol="100" pan="0" len="12" key="40" pos="144"/>
          <note vol="100" pan="0" len="12" key="36" pos="144"/>
          <note vol="100" pan="0" len="12" key="42" pos="168"/>
        </midiclip>
        <midiclip type="1" muted="0" steps="16" name="" pos="4608">
          <note vol="100" pan="0" len="12" key="36" pos="0"/>
          <note vol="100" pan="0" len="12" key="36" pos="24"/>
          <note vol="100" pan="0" len="12" key="42" pos="48"/>
          <note vol="100" pan="0" len="12" key="40" pos="48"/>
          <note vol="100" pan="0" len="12" key="36" pos="48"/>
          <note vol="100" pan="0" len="12" key="42" pos="72"/>
          <note vol="100" pan="0" len="12" key="36" pos="96"/>
          <note vol="100" pan="0" len="12" key="36" pos="120"/>
          <note vol="100" pan="0" len="12" key="40" pos="144"/>
          <note vol="100" pan="0" len="12" key="36" pos="144"/>
          <note vol="100" pan="0" len="12" key="42" pos="168"/>
        </midiclip>
        <midiclip type="1" muted="0" steps="16" name="" pos="4800">
          <note vol="100" pan="0" len="12" key="36" pos="0"/>
          <note vol="100" pan="0" len="12" key="36" pos="24"/>
          <note vol="100" pan="0" len="12" key="42" pos="48"/>
          <note vol="100" pan="0" len="12" key="40" pos="48"/>
          <note vol="100" pan="0" len="12" key="36" pos="48"/>
          <note vol="100" pan="0" len="12" key="42" pos="72"/>
          <note vol="100" pan="0" len="12" key="36" pos="96"/>
          <note vol="100" pan="0" len="12" key="36" pos="120"/>
          <note vol="100" pan="0" len="12" key="40" pos="144"/>
          <note vol="100" pan="0" len="12" key="36" pos="144"/>
          <note vol="100" pan="0" len="12" key="42" pos="168"/>
        </midiclip>
        <midiclip type="1" muted="0" steps="16" name="" pos="4992">
          <note vol="100" pan="0" len="12" key="36" pos="0"/>
          <note vol="100" pan="0" len="12" key="36" pos="24"/>
          <note vol="100" pan="0" len="12" key="42" pos="48"/>
          <note vol="100" pan="0" len="12" key="40" pos="48"/>
          <note vol="100" pan="0" len="12" key="36" pos="48"/>
          <note vol="100" pan="0" len="12" key="42" pos="72"/>
          <note vol="100" pan="0" len="12" key="36" pos="96"/>
          <note vol="100" pan="0" len="12" key="36" pos="120"/>
          <note vol="100" pan="0" len="12" key="40" pos="144"/>
          <note vol="100" pan="0" len="12" key="36" pos="144"/>
          <note vol="100" pan="0" len="12" key="42" pos="168"/>
        </midiclip>
        <midiclip type="1" muted="0" steps="16" name="" pos="5184">
          <note vol="100" pan="0" len="12" key="36" pos="0"/>
          <note vol="100" pan="0" len="12" key="36" pos="24"/>
          <note vol="100" pan="0" len="12" key="42" pos="48"/>
          <note vol="100" pan="0" len="12" key="40" pos="48"/>
          <note vol="100" pan="0" len="12" key="36" pos="48"/>
          <note vol="100" pan="0" len="12" key="42" pos="72"/>
          <note vol="100" pan="0" len="12" key="36" pos="96"/>
          <note vol="100" pan="0" len="12" key="36" pos="120"/>
          <note vol="100" pan="0" len="12" key="40" pos="144"/>
          <note vol="100" pan="0" len="12" key="36" pos="144"/>
          <note vol="100" pan="0" len="12" key="42" pos="168"/>
        </midiclip>
        <midiclip type="1" muted="0" steps="16" name="" pos="5376">
          <note vol="100" pan="0" len="12" key="36" pos="0"/>
          <note vol="100" pan="0" len="12" key="36" pos="48"/>
          <note vol="100" pan="0" len="12" key="36" pos="96"/>
          <note vol="100" pan="0" len="12" key="36" pos="144"/>
        </midiclip>
      </track>
      <track type="0" muted="0" mutedBeforeSolo="0" solo="0" name="Bass>Acoustic">
        <instrumenttrack pitchrange="1" firstkey="0" vol="100" pitch="0" pan="0" enabled="0" lastkey="127" enablecc="0" scale="0" mixch="4" usemasterpitch="1" basenote="69" keymap="0" range_import="1">
          <midicontrollers cc4="0" cc56="0" cc35="0" cc44="0" cc2="0" cc38="0" cc124="0" cc24="0" cc97="0" cc16="0" cc123="0" cc61="0" cc84="0" cc79="0" cc6="0" cc91="0" cc29="0" cc67="0" cc28="0" cc23="0" cc65="0" cc8="0" cc33="0" cc14="0" cc31="0" cc70="0" cc119="0" cc12="0" cc43="0" cc1="0" cc114="0" cc20="0" cc73="0" cc11="0" cc63="0" cc46="0" cc34="0" cc66="0" cc125="0" cc42="0" cc40="0" cc37="0" cc58="0" cc55="0" cc95="0" cc126="0" cc36="0" cc48="0" cc81="0" cc50="0" cc64="0" cc93="0" cc80="0" cc82="0" cc103="0" cc19="0" cc83="0" cc25="0" cc26="0" cc75="0" cc109="0" cc106="0" cc41="0" cc17="0" cc102="0" cc92="0" cc78="0" cc13="0" cc112="0" cc120="0" cc107="0" cc0="0" cc53="0" cc18="0" cc62="0" cc68="0" cc122="0" cc49="0" cc86="0" cc113="0" cc45="0" cc7="0" cc87="0" cc27="0" cc21="0" cc3="0" cc85="0" cc100="0" cc104="0" cc96="0" cc39="0" cc76="0" cc32="0" cc98="0" cc57="0" cc101="0" cc59="0" cc60="0" cc47="0" cc117="0" cc72="0" cc111="0" cc5="0" cc71="0" cc89="0" cc54="0" cc88="0" cc108="0" cc77="0" cc115="0" cc118="0" cc9="0" cc121="0" cc90="0" cc110="0" cc51="0" cc52="0" cc127="0" cc69="0" cc99="0" cc74="0" cc30="0" cc15="0" cc10="0" cc22="0" cc94="0" cc105="0" cc116="0"/>
          <instrument name="sf2player">
            <sf2player reverbWidth="0.5" reverbOn="0" chorusDepth="8" reverbRoomSize="0.2" chorusNum="3" chorusLevel="2" chorusOn="0" src="usersoundfont:SGM-V2.01.sf2" chorusSpeed="0.3" patch="32" reverbDamping="0" reverbLevel="0.9" bank="0" gain="0.7">
              <key/>
            </sf2player>
          </instrument>
          <eldata fres="0.5" fwet="0" ftype="0" fcut="14000">
            <elvol lpdel="0" hold="0.5" lamt="0" pdel="0" latt="0" ctlenvamt="0" amt="0" sustain="0.5" lspd_syncmode="0" lspd="0.1" x100="0" dec="0.5" lspd_denominator="4" lshp="0" att="0" rel="0.1" lspd_numerator="4" userwavefile=""/>
            <elcut lpdel="0" hold="0.5" lamt="0" pdel="0" latt="0" ctlenvamt="0" amt="0" sustain="0.5" lspd_syncmode="0" lspd="0.1" x100="0" dec="0.5" lspd_denominator="4" lshp="0" att="0" rel="0.1" lspd_numerator="4" userwavefile=""/>
            <elres lpdel="0" hold="0.5" lamt="0" pdel="0" latt="0" ctlenvamt="0" amt="0" sustain="0.5" lspd_syncmode="0" lspd="0.1" x100="0" dec="0.5" lspd_denominator="4" lshp="0" att="0" rel="0.1" lspd_numerator="4" userwavefile=""/>
          </eldata>
          <chordcreator chordrange="1" chord-enabled="0" chord="0"/>
          <arpeggiator arprepeats="1" arp-enabled="0" arpskip="0" arptime="200" arptime_syncmode="0" arp="0" arptime_numerator="4" arpgate="100" arpmiss="0" arptime_denominator="4" arpdir="0" arprange="1" arpcycle="0" arpmode="0"/>
          <midiport basevelocity="63" outputchannel="1" fixedinputvelocity="-1" fixedoutputnote="-1" readable="1" fixedoutputvelocity="-1" writable="0" inputcontroller="0" outputprogram="1" inports="" inputchannel="0" outputcontroller="0"/>
          <fxchain numofeffects="0" enabled="0"/>
        </instrumenttrack>
        <midiclip type="1" muted="0" steps="16" name="" pos="0">
          <note vol="100" pan="0" len="24" key="32" pos="0"/>
          <note vol="100" pan="0" len="12" key="32" pos="48"/>
          <note vol="100" pan="0" len="24" key="32" pos="72"/>
          <note vol="100" pan="0" len="12" key="32" pos="120"/>
          <note vol="100" pan="0" len="24" key="32" pos="144"/>
          <note vol="100" pan="0" len="12" key="32" pos="192"/>
          <note vol="100" pan="0" len="24" key="32" pos="216"/>
          <note vol="100" pan="0" len="12" key="32" pos="264"/>
          <note vol="100" pan="0" len="24" key="32" pos="288"/>
          <note vol="100" pan="0" len="12" key="32" pos="336"/>
          <note vol="100" pan="0" len="12" key="32" pos="360"/>
          <note vol="100" pan="0" len="12" key="32" pos="384"/>
          <note vol="100" pan="0" len="12" key="32" pos="408"/>
          <note vol="100" pan="0" len="12" key="32" pos="432"/>
          <note vol="100" pan="0" len="12" key="32" pos="456"/>
          <note vol="100" pan="0" len="12" key="32" pos="480"/>
          <note vol="100" pan="0" len="12" key="32" pos="504"/>
          <note vol="100" pan="0" len="12" key="32" pos="528"/>
          <note vol="100" pan="0" len="12" key="32" pos="552"/>
          <note vol="100" pan="0" len="12" key="37" pos="576"/>
          <note vol="100" pan="0" len="12" key="37" pos="600"/>
          <note vol="100" pan="0" len="12" key="37" pos="624"/>
          <note vol="100" pan="0" len="12" key="37" pos="648"/>
          <note vol="100" pan="0" len="12" key="37" pos="672"/>
          <note vol="100" pan="0" len="12" key="37" pos="696"/>
          <note vol="100" pan="0" len="12" key="37" pos="720"/>
          <note vol="100" pan="0" len="12" key="37" pos="744"/>
          <note vol="100" pan="0" len="12" key="25" pos="768"/>
          <note vol="100" pan="0" len="12" key="25" pos="792"/>
          <note vol="100" pan="0" len="12" key="25" pos="816"/>
          <note vol="100" pan="0" len="12" key="25" pos="840"/>
          <note vol="100" pan="0" len="12" key="25" pos="864"/>
          <note vol="100" pan="0" len="12" key="25" pos="888"/>
          <note vol="100" pan="0" len="12" key="25" pos="912"/>
          <note vol="100" pan="0" len="12" key="25" pos="936"/>
          <note vol="100" pan="0" len="12" key="27" pos="960"/>
          <note vol="100" pan="0" len="12" key="27" pos="984"/>
          <note vol="100" pan="0" len="12" key="27" pos="1008"/>
          <note vol="100" pan="0" len="12" key="27" pos="1032"/>
          <note vol="100" pan="0" len="12" key="27" pos="1056"/>
          <note vol="100" pan="0" len="12" key="27" pos="1080"/>
          <note vol="100" pan="0" len="12" key="30" pos="1104"/>
          <note vol="100" pan="0" len="12" key="32" pos="1128"/>
          <note vol="100" pan="0" len="12" key="32" pos="1152"/>
          <note vol="100" pan="0" len="12" key="32" pos="1176"/>
          <note vol="100" pan="0" len="12" key="32" pos="1200"/>
          <note vol="100" pan="0" len="12" key="32" pos="1224"/>
          <note vol="100" pan="0" len="12" key="32" pos="1248"/>
          <note vol="100" pan="0" len="12" key="32" pos="1272"/>
          <note vol="100" pan="0" len="12" key="32" pos="1296"/>
          <note vol="100" pan="0" len="12" key="32" pos="1320"/>
          <note vol="100" pan="0" len="12" key="37" pos="1344"/>
          <note vol="100" pan="0" len="12" key="37" pos="1368"/>
          <note vol="100" pan="0" len="12" key="37" pos="1392"/>
          <note vol="100" pan="0" len="12" key="37" pos="1416"/>
          <note vol="100" pan="0" len="12" key="37" pos="1440"/>
          <note vol="100" pan="0" len="12" key="37" pos="1464"/>
          <note vol="100" pan="0" len="12" key="37" pos="1488"/>
          <note vol="100" pan="0" len="12" key="37" pos="1512"/>
          <note vol="100" pan="0" len="12" key="25" pos="1536"/>
          <note vol="100" pan="0" len="12" key="25" pos="1560"/>
          <note vol="100" pan="0" len="12" key="25" pos="1584"/>
          <note vol="100" pan="0" len="12" key="25" pos="1608"/>
          <note vol="100" pan="0" len="12" key="25" pos="1632"/>
          <note vol="100" pan="0" len="12" key="25" pos="1656"/>
          <note vol="100" pan="0" len="12" key="25" pos="1680"/>
          <note vol="100" pan="0" len="12" key="25" pos="1704"/>
          <note vol="100" pan="0" len="12" key="27" pos="1728"/>
          <note vol="100" pan="0" len="12" key="27" pos="1752"/>
          <note vol="100" pan="0" len="36" key="27" pos="1776"/>
          <note vol="100" pan="0" len="36" key="34" pos="1824"/>
          <note vol="100" pan="0" len="36" key="37" pos="1872"/>
        </midiclip>
        <midiclip type="1" muted="0" steps="16" name="" pos="1920">
          <note vol="100" pan="0" len="48" key="32" pos="0"/>
          <note vol="100" pan="0" len="24" key="35" pos="48"/>
          <note vol="100" pan="0" len="48" key="37" pos="72"/>
          <note vol="100" pan="0" len="24" key="35" pos="120"/>
          <note vol="100" pan="0" len="24" key="39" pos="144"/>
          <note vol="100" pan="0" len="24" key="37" pos="168"/>
          <note vol="100" pan="0" len="24" key="35" pos="192"/>
          <note vol="100" pan="0" len="24" key="37" pos="216"/>
          <note vol="100" pan="0" len="48" key="32" pos="240"/>
          <note vol="100" pan="0" len="24" key="35" pos="288"/>
          <note vol="100" pan="0" len="48" key="37" pos="312"/>
          <note vol="100" pan="0" len="24" key="35" pos="360"/>
          <note vol="100" pan="0" len="24" key="39" pos="384"/>
          <note vol="100" pan="0" len="24" key="37" pos="408"/>
          <note vol="100" pan="0" len="24" key="35" pos="432"/>
          <note vol="100" pan="0" len="24" key="37" pos="456"/>
          <note vol="100" pan="0" len="48" key="35" pos="480"/>
          <note vol="100" pan="0" len="24" key="38" pos="528"/>
          <note vol="100" pan="0" len="48" key="40" pos="552"/>
          <note vol="100" pan="0" len="24" key="38" pos="600"/>
          <note vol="100" pan="0" len="24" key="41" pos="624"/>
          <note vol="100" pan="0" len="24" key="40" pos="648"/>
          <note vol="100" pan="0" len="24" key="38" pos="672"/>
          <note vol="100" pan="0" len="24" key="40" pos="696"/>
          <note vol="100" pan="0" len="48" key="35" pos="720"/>
          <note vol="100" pan="0" len="24" key="38" pos="768"/>
          <note vol="100" pan="0" len="48" key="40" pos="792"/>
          <note vol="100" pan="0" len="24" key="38" pos="840"/>
          <note vol="100" pan="0" len="24" key="41" pos="864"/>
          <note vol="100" pan="0" len="24" key="40" pos="888"/>
          <note vol="100" pan="0" len="24" key="38" pos="912"/>
          <note vol="100" pan="0" len="24" key="40" pos="936"/>
        </midiclip>
        <midiclip type="1" muted="0" steps="16" name="" pos="2880">
          <note vol="100" pan="0" len="48" key="32" pos="0"/>
          <note vol="100" pan="0" len="24" key="35" pos="48"/>
          <note vol="100" pan="0" len="48" key="37" pos="72"/>
          <note vol="100" pan="0" len="24" key="35" pos="120"/>
          <note vol="100" pan="0" len="24" key="39" pos="144"/>
          <note vol="100" pan="0" len="24" key="37" pos="168"/>
          <note vol="100" pan="0" len="24" key="35" pos="192"/>
          <note vol="100" pan="0" len="24" key="37" pos="216"/>
          <note vol="100" pan="0" len="48" key="32" pos="240"/>
          <note vol="100" pan="0" len="24" key="35" pos="288"/>
          <note vol="100" pan="0" len="48" key="37" pos="312"/>
          <note vol="100" pan="0" len="24" key="35" pos="360"/>
          <note vol="100" pan="0" len="24" key="39" pos="384"/>
          <note vol="100" pan="0" len="24" key="37" pos="408"/>
          <note vol="100" pan="0" len="24" key="35" pos="432"/>
          <note vol="100" pan="0" len="24" key="37" pos="456"/>
          <note vol="100" pan="0" len="48" key="35" pos="480"/>
          <note vol="100" pan="0" len="24" key="38" pos="528"/>
          <note vol="100" pan="0" len="48" key="40" pos="552"/>
          <note vol="100" pan="0" len="24" key="38" pos="600"/>
          <note vol="100" pan="0" len="24" key="41" pos="624"/>
          <note vol="100" pan="0" len="24" key="40" pos="648"/>
          <note vol="100" pan="0" len="24" key="38" pos="672"/>
          <note vol="100" pan="0" len="24" key="40" pos="696"/>
          <note vol="100" pan="0" len="48" key="35" pos="720"/>
          <note vol="100" pan="0" len="24" key="38" pos="768"/>
          <note vol="100" pan="0" len="48" key="40" pos="792"/>
          <note vol="100" pan="0" len="24" key="38" pos="840"/>
          <note vol="100" pan="0" len="24" key="41" pos="864"/>
          <note vol="100" pan="0" len="24" key="40" pos="888"/>
          <note vol="100" pan="0" len="24" key="38" pos="912"/>
          <note vol="100" pan="0" len="24" key="40" pos="936"/>
        </midiclip>
        <midiclip type="1" muted="0" steps="16" name="" pos="7680">
          <note vol="100" pan="0" len="48" key="42" pos="0"/>
          <note vol="100" pan="0" len="48" key="46" pos="72"/>
          <note vol="100" pan="0" len="36" key="40" pos="144"/>
          <note vol="100" pan="0" len="36" key="42" pos="180"/>
          <note vol="100" pan="0" len="360" key="35" pos="216"/>
        </midiclip>
        <midiclip type="1" muted="0" steps="16" name="" pos="3840">
          <note vol="100" pan="0" len="36" key="42" pos="0"/>
          <note vol="100" pan="0" len="36" key="30" pos="36"/>
          <note vol="100" pan="0" len="36" key="42" pos="72"/>
          <note vol="100" pan="0" len="36" key="30" pos="108"/>
          <note vol="100" pan="0" len="36" key="42" pos="144"/>
          <note vol="100" pan="0" len="36" key="30" pos="180"/>
          <note vol="100" pan="0" len="36" key="42" pos="216"/>
          <note vol="100" pan="0" len="36" key="30" pos="252"/>
          <note vol="100" pan="0" len="36" key="42" pos="288"/>
          <note vol="100" pan="0" len="36" key="30" pos="324"/>
          <note vol="100" pan="0" len="24" key="42" pos="360"/>
        </midiclip>
        <midiclip type="1" muted="0" steps="16" name="" pos="4224">
          <note vol="100" pan="0" len="36" key="40" pos="0"/>
          <note vol="100" pan="0" len="36" key="28" pos="36"/>
          <note vol="100" pan="0" len="36" key="40" pos="72"/>
          <note vol="100" pan="0" len="36" key="28" pos="108"/>
          <note vol="100" pan="0" len="36" key="40" pos="144"/>
          <note vol="100" pan="0" len="36" key="28" pos="180"/>
          <note vol="100" pan="0" len="36" key="40" pos="216"/>
          <note vol="100" pan="0" len="36" key="28" pos="252"/>
          <note vol="100" pan="0" len="36" key="40" pos="288"/>
          <note vol="100" pan="0" len="36" key="33" pos="324"/>
          <note vol="100" pan="0" len="24" key="40" pos="360"/>
        </midiclip>
        <midiclip type="1" muted="0" steps="16" name="" pos="4608">
          <note vol="100" pan="0" len="36" key="38" pos="0"/>
          <note vol="100" pan="0" len="36" key="33" pos="36"/>
          <note vol="100" pan="0" len="36" key="38" pos="72"/>
          <note vol="100" pan="0" len="36" key="33" pos="108"/>
          <note vol="100" pan="0" len="36" key="38" pos="144"/>
          <note vol="100" pan="0" len="36" key="33" pos="180"/>
          <note vol="100" pan="0" len="36" key="38" pos="216"/>
          <note vol="100" pan="0" len="36" key="33" pos="252"/>
          <note vol="100" pan="0" len="36" key="38" pos="288"/>
          <note vol="100" pan="0" len="36" key="33" pos="324"/>
          <note vol="100" pan="0" len="24" key="38" pos="360"/>
        </midiclip>
        <midiclip type="1" muted="0" steps="16" name="" pos="4992">
          <note vol="100" pan="0" len="36" key="37" pos="0"/>
          <note vol="100" pan="0" len="36" key="32" pos="36"/>
          <note vol="100" pan="0" len="36" key="37" pos="72"/>
          <note vol="100" pan="0" len="36" key="32" pos="108"/>
          <note vol="100" pan="0" len="36" key="37" pos="144"/>
          <note vol="100" pan="0" len="36" key="32" pos="180"/>
          <note vol="100" pan="0" len="36" key="37" pos="216"/>
          <note vol="100" pan="0" len="36" key="29" pos="252"/>
          <note vol="100" pan="0" len="36" key="37" pos="288"/>
          <note vol="100" pan="0" len="36" key="29" pos="324"/>
          <note vol="100" pan="0" len="216" key="37" pos="360"/>
        </midiclip>
        <midiclip type="1" muted="0" steps="16" name="" pos="5568">
          <note vol="100" pan="0" len="144" key="45" pos="0"/>
          <note vol="100" pan="0" len="240" key="47" pos="144"/>
          <note vol="100" pan="0" len="144" key="42" pos="384"/>
          <note vol="100" pan="0" len="240" key="35" pos="528"/>
          <note vol="100" pan="0" len="144" key="33" pos="768"/>
          <note vol="100" pan="0" len="240" key="39" pos="912"/>
          <note vol="100" pan="0" len="144" key="35" pos="1152"/>
          <note vol="100" pan="0" len="240" key="30" pos="1296"/>
        </midiclip>
      </track>
      <track type="0" muted="0" mutedBeforeSolo="0" solo="0" name="Bass>Fretless">
        <instrumenttrack pitchrange="1" firstkey="0" vol="100" pitch="0" pan="0" enabled="0" lastkey="127" enablecc="0" scale="0" mixch="4" usemasterpitch="1" basenote="69" keymap="0" range_import="1">
          <midicontrollers cc4="0" cc56="0" cc35="0" cc44="0" cc2="0" cc38="0" cc124="0" cc24="0" cc97="0" cc16="0" cc123="0" cc61="0" cc84="0" cc79="0" cc6="0" cc91="0" cc29="0" cc67="0" cc28="0" cc23="0" cc65="0" cc8="0" cc33="0" cc14="0" cc31="0" cc70="0" cc119="0" cc12="0" cc43="0" cc1="0" cc114="0" cc20="0" cc73="0" cc11="0" cc63="0" cc46="0" cc34="0" cc66="0" cc125="0" cc42="0" cc40="0" cc37="0" cc58="0" cc55="0" cc95="0" cc126="0" cc36="0" cc48="0" cc81="0" cc50="0" cc64="0" cc93="0" cc80="0" cc82="0" cc103="0" cc19="0" cc83="0" cc25="0" cc26="0" cc75="0" cc109="0" cc106="0" cc41="0" cc17="0" cc102="0" cc92="0" cc78="0" cc13="0" cc112="0" cc120="0" cc107="0" cc0="0" cc53="0" cc18="0" cc62="0" cc68="0" cc122="0" cc49="0" cc86="0" cc113="0" cc45="0" cc7="0" cc87="0" cc27="0" cc21="0" cc3="0" cc85="0" cc100="0" cc104="0" cc96="0" cc39="0" cc76="0" cc32="0" cc98="0" cc57="0" cc101="0" cc59="0" cc60="0" cc47="0" cc117="0" cc72="0" cc111="0" cc5="0" cc71="0" cc89="0" cc54="0" cc88="0" cc108="0" cc77="0" cc115="0" cc118="0" cc9="0" cc121="0" cc90="0" cc110="0" cc51="0" cc52="0" cc127="0" cc69="0" cc99="0" cc74="0" cc30="0" cc15="0" cc10="0" cc22="0" cc94="0" cc105="0" cc116="0"/>
          <instrument name="sf2player">
            <sf2player reverbWidth="0.5" reverbOn="0" chorusDepth="8" reverbRoomSize="0.2" chorusNum="3" chorusLevel="2" chorusOn="0" src="usersoundfont:SGM-V2.01.sf2" chorusSpeed="0.3" patch="35" reverbDamping="0" reverbLevel="0.9" bank="0" gain="1">
              <key/>
            </sf2player>
          </instrument>
          <eldata fres="0.5" fwet="0" ftype="0" fcut="14000">
            <elvol lpdel="0" hold="0.5" lamt="0" pdel="0" latt="0" ctlenvamt="0" amt="0" sustain="0.5" lspd_syncmode="0" lspd="0.1" x100="0" dec="0.5" lspd_denominator="4" lshp="0" att="0" rel="0.1" lspd_numerator="4" userwavefile=""/>
            <elcut lpdel="0" hold="0.5" lamt="0" pdel="0" latt="0" ctlenvamt="0" amt="0" sustain="0.5" lspd_syncmode="0" lspd="0.1" x100="0" dec="0.5" lspd_denominator="4" lshp="0" att="0" rel="0.1" lspd_numerator="4" userwavefile=""/>
            <elres lpdel="0" hold="0.5" lamt="0" pdel="0" latt="0" ctlenvamt="0" amt="0" sustain="0.5" lspd_syncmode="0" lspd="0.1" x100="0" dec="0.5" lspd_denominator="4" lshp="0" att="0" rel="0.1" lspd_numerator="4" userwavefile=""/>
          </eldata>
          <chordcreator chordrange="1" chord-enabled="0" chord="0"/>
          <arpeggiator arprepeats="1" arp-enabled="0" arpskip="0" arptime="200" arptime_syncmode="0" arp="0" arptime_numerator="4" arpgate="100" arpmiss="0" arptime_denominator="4" arpdir="0" arprange="1" arpcycle="0" arpmode="0"/>
          <midiport basevelocity="63" outputchannel="1" fixedinputvelocity="-1" fixedoutputnote="-1" readable="1" fixedoutputvelocity="-1" writable="0" inputcontroller="0" outputprogram="1" inports="" inputchannel="0" outputcontroller="0"/>
          <fxchain numofeffects="0" enabled="0"/>
        </instrumenttrack>
        <midiclip type="1" muted="0" steps="16" name="" pos="1920">
          <note vol="100" pan="0" len="48" key="32" pos="0"/>
          <note vol="100" pan="0" len="24" key="35" pos="48"/>
          <note vol="100" pan="0" len="48" key="37" pos="72"/>
          <note vol="100" pan="0" len="24" key="35" pos="120"/>
          <note vol="100" pan="0" len="24" key="39" pos="144"/>
          <note vol="100" pan="0" len="24" key="37" pos="168"/>
          <note vol="100" pan="0" len="24" key="35" pos="192"/>
          <note vol="100" pan="0" len="24" key="37" pos="216"/>
          <note vol="100" pan="0" len="48" key="32" pos="240"/>
          <note vol="100" pan="0" len="24" key="35" pos="288"/>
          <note vol="100" pan="0" len="48" key="37" pos="312"/>
          <note vol="100" pan="0" len="24" key="35" pos="360"/>
          <note vol="100" pan="0" len="24" key="39" pos="384"/>
          <note vol="100" pan="0" len="24" key="37" pos="408"/>
          <note vol="100" pan="0" len="24" key="35" pos="432"/>
          <note vol="100" pan="0" len="24" key="37" pos="456"/>
          <note vol="100" pan="0" len="48" key="35" pos="480"/>
          <note vol="100" pan="0" len="24" key="38" pos="528"/>
          <note vol="100" pan="0" len="48" key="40" pos="552"/>
          <note vol="100" pan="0" len="24" key="38" pos="600"/>
          <note vol="100" pan="0" len="24" key="41" pos="624"/>
          <note vol="100" pan="0" len="24" key="40" pos="648"/>
          <note vol="100" pan="0" len="24" key="38" pos="672"/>
          <note vol="100" pan="0" len="24" key="40" pos="696"/>
          <note vol="100" pan="0" len="48" key="35" pos="720"/>
          <note vol="100" pan="0" len="24" key="38" pos="768"/>
          <note vol="100" pan="0" len="48" key="40" pos="792"/>
          <note vol="100" pan="0" len="24" key="38" pos="840"/>
          <note vol="100" pan="0" len="24" key="41" pos="864"/>
          <note vol="100" pan="0" len="24" key="40" pos="888"/>
          <note vol="100" pan="0" len="24" key="38" pos="912"/>
          <note vol="100" pan="0" len="24" key="40" pos="936"/>
        </midiclip>
        <midiclip type="1" muted="0" steps="16" name="" pos="2880">
          <note vol="100" pan="0" len="48" key="32" pos="0"/>
          <note vol="100" pan="0" len="24" key="35" pos="48"/>
          <note vol="100" pan="0" len="48" key="37" pos="72"/>
          <note vol="100" pan="0" len="24" key="35" pos="120"/>
          <note vol="100" pan="0" len="24" key="39" pos="144"/>
          <note vol="100" pan="0" len="24" key="37" pos="168"/>
          <note vol="100" pan="0" len="24" key="35" pos="192"/>
          <note vol="100" pan="0" len="24" key="37" pos="216"/>
          <note vol="100" pan="0" len="48" key="32" pos="240"/>
          <note vol="100" pan="0" len="24" key="35" pos="288"/>
          <note vol="100" pan="0" len="48" key="37" pos="312"/>
          <note vol="100" pan="0" len="24" key="35" pos="360"/>
          <note vol="100" pan="0" len="24" key="39" pos="384"/>
          <note vol="100" pan="0" len="24" key="37" pos="408"/>
          <note vol="100" pan="0" len="24" key="35" pos="432"/>
          <note vol="100" pan="0" len="24" key="37" pos="456"/>
          <note vol="100" pan="0" len="48" key="35" pos="480"/>
          <note vol="100" pan="0" len="24" key="38" pos="528"/>
          <note vol="100" pan="0" len="48" key="40" pos="552"/>
          <note vol="100" pan="0" len="24" key="38" pos="600"/>
          <note vol="100" pan="0" len="24" key="41" pos="624"/>
          <note vol="100" pan="0" len="24" key="40" pos="648"/>
          <note vol="100" pan="0" len="24" key="38" pos="672"/>
          <note vol="100" pan="0" len="24" key="40" pos="696"/>
          <note vol="100" pan="0" len="48" key="35" pos="720"/>
          <note vol="100" pan="0" len="24" key="38" pos="768"/>
          <note vol="100" pan="0" len="48" key="40" pos="792"/>
          <note vol="100" pan="0" len="24" key="38" pos="840"/>
          <note vol="100" pan="0" len="24" key="41" pos="864"/>
          <note vol="100" pan="0" len="24" key="40" pos="888"/>
          <note vol="100" pan="0" len="24" key="38" pos="912"/>
          <note vol="100" pan="0" len="24" key="40" pos="936"/>
        </midiclip>
        <midiclip type="1" muted="0" steps="16" name="" pos="7680">
          <note vol="100" pan="0" len="48" key="42" pos="0"/>
          <note vol="100" pan="0" len="48" key="46" pos="72"/>
          <note vol="100" pan="0" len="36" key="40" pos="144"/>
          <note vol="100" pan="0" len="36" key="42" pos="180"/>
          <note vol="100" pan="0" len="360" key="35" pos="216"/>
        </midiclip>
        <midiclip type="1" muted="0" steps="16" name="" pos="3840">
          <note vol="100" pan="0" len="36" key="42" pos="0"/>
          <note vol="100" pan="0" len="36" key="30" pos="36"/>
          <note vol="100" pan="0" len="36" key="42" pos="72"/>
          <note vol="100" pan="0" len="36" key="30" pos="108"/>
          <note vol="100" pan="0" len="36" key="42" pos="144"/>
          <note vol="100" pan="0" len="36" key="30" pos="180"/>
          <note vol="100" pan="0" len="36" key="42" pos="216"/>
          <note vol="100" pan="0" len="36" key="30" pos="252"/>
          <note vol="100" pan="0" len="36" key="42" pos="288"/>
          <note vol="100" pan="0" len="36" key="30" pos="324"/>
          <note vol="100" pan="0" len="24" key="42" pos="360"/>
        </midiclip>
        <midiclip type="1" muted="0" steps="16" name="" pos="4608">
          <note vol="100" pan="0" len="36" key="38" pos="0"/>
          <note vol="100" pan="0" len="36" key="33" pos="36"/>
          <note vol="100" pan="0" len="36" key="38" pos="72"/>
          <note vol="100" pan="0" len="36" key="33" pos="108"/>
          <note vol="100" pan="0" len="36" key="38" pos="144"/>
          <note vol="100" pan="0" len="36" key="33" pos="180"/>
          <note vol="100" pan="0" len="36" key="38" pos="216"/>
          <note vol="100" pan="0" len="36" key="33" pos="252"/>
          <note vol="100" pan="0" len="36" key="38" pos="288"/>
          <note vol="100" pan="0" len="36" key="33" pos="324"/>
          <note vol="100" pan="0" len="24" key="38" pos="360"/>
        </midiclip>
        <midiclip type="1" muted="0" steps="16" name="" pos="4224">
          <note vol="100" pan="0" len="36" key="40" pos="0"/>
          <note vol="100" pan="0" len="36" key="28" pos="36"/>
          <note vol="100" pan="0" len="36" key="40" pos="72"/>
          <note vol="100" pan="0" len="36" key="28" pos="108"/>
          <note vol="100" pan="0" len="36" key="40" pos="144"/>
          <note vol="100" pan="0" len="36" key="28" pos="180"/>
          <note vol="100" pan="0" len="36" key="40" pos="216"/>
          <note vol="100" pan="0" len="36" key="28" pos="252"/>
          <note vol="100" pan="0" len="36" key="40" pos="288"/>
          <note vol="100" pan="0" len="36" key="33" pos="324"/>
          <note vol="100" pan="0" len="24" key="40" pos="360"/>
        </midiclip>
        <midiclip type="1" muted="0" steps="16" name="" pos="5568">
          <note vol="100" pan="0" len="144" key="45" pos="0"/>
          <note vol="100" pan="0" len="240" key="47" pos="144"/>
          <note vol="100" pan="0" len="144" key="42" pos="384"/>
          <note vol="100" pan="0" len="240" key="35" pos="528"/>
          <note vol="100" pan="0" len="144" key="33" pos="768"/>
          <note vol="100" pan="0" len="240" key="39" pos="912"/>
          <note vol="100" pan="0" len="144" key="35" pos="1152"/>
          <note vol="100" pan="0" len="240" key="30" pos="1296"/>
        </midiclip>
        <midiclip type="1" muted="0" steps="16" name="" pos="4992">
          <note vol="100" pan="0" len="36" key="37" pos="0"/>
          <note vol="100" pan="0" len="36" key="32" pos="36"/>
          <note vol="100" pan="0" len="36" key="37" pos="72"/>
          <note vol="100" pan="0" len="36" key="32" pos="108"/>
          <note vol="100" pan="0" len="36" key="37" pos="144"/>
          <note vol="100" pan="0" len="36" key="32" pos="180"/>
          <note vol="100" pan="0" len="36" key="37" pos="216"/>
          <note vol="100" pan="0" len="36" key="29" pos="252"/>
          <note vol="100" pan="0" len="36" key="37" pos="288"/>
          <note vol="100" pan="0" len="36" key="29" pos="324"/>
          <note vol="100" pan="0" len="216" key="37" pos="360"/>
        </midiclip>
        <midiclip type="1" muted="0" steps="16" name="" pos="0">
          <note vol="100" pan="0" len="24" key="32" pos="0"/>
          <note vol="100" pan="0" len="12" key="32" pos="48"/>
          <note vol="100" pan="0" len="24" key="32" pos="72"/>
          <note vol="100" pan="0" len="12" key="32" pos="120"/>
          <note vol="100" pan="0" len="24" key="32" pos="144"/>
          <note vol="100" pan="0" len="12" key="32" pos="192"/>
          <note vol="100" pan="0" len="24" key="32" pos="216"/>
          <note vol="100" pan="0" len="12" key="32" pos="264"/>
          <note vol="100" pan="0" len="24" key="32" pos="288"/>
          <note vol="100" pan="0" len="12" key="32" pos="336"/>
          <note vol="100" pan="0" len="12" key="32" pos="360"/>
          <note vol="100" pan="0" len="12" key="32" pos="384"/>
          <note vol="100" pan="0" len="12" key="32" pos="408"/>
          <note vol="100" pan="0" len="12" key="32" pos="432"/>
          <note vol="100" pan="0" len="12" key="32" pos="456"/>
          <note vol="100" pan="0" len="12" key="32" pos="480"/>
          <note vol="100" pan="0" len="12" key="32" pos="504"/>
          <note vol="100" pan="0" len="12" key="32" pos="528"/>
          <note vol="100" pan="0" len="12" key="32" pos="552"/>
          <note vol="100" pan="0" len="12" key="37" pos="576"/>
          <note vol="100" pan="0" len="12" key="37" pos="600"/>
          <note vol="100" pan="0" len="12" key="37" pos="624"/>
          <note vol="100" pan="0" len="12" key="37" pos="648"/>
          <note vol="100" pan="0" len="12" key="37" pos="672"/>
          <note vol="100" pan="0" len="12" key="37" pos="696"/>
          <note vol="100" pan="0" len="12" key="37" pos="720"/>
          <note vol="100" pan="0" len="12" key="37" pos="744"/>
          <note vol="100" pan="0" len="12" key="25" pos="768"/>
          <note vol="100" pan="0" len="12" key="25" pos="792"/>
          <note vol="100" pan="0" len="12" key="25" pos="816"/>
          <note vol="100" pan="0" len="12" key="25" pos="840"/>
          <note vol="100" pan="0" len="12" key="25" pos="864"/>
          <note vol="100" pan="0" len="12" key="25" pos="888"/>
          <note vol="100" pan="0" len="12" key="25" pos="912"/>
          <note vol="100" pan="0" len="12" key="25" pos="936"/>
          <note vol="100" pan="0" len="12" key="27" pos="960"/>
          <note vol="100" pan="0" len="12" key="27" pos="984"/>
          <note vol="100" pan="0" len="12" key="27" pos="1008"/>
          <note vol="100" pan="0" len="12" key="27" pos="1032"/>
          <note vol="100" pan="0" len="12" key="27" pos="1056"/>
          <note vol="100" pan="0" len="12" key="27" pos="1080"/>
          <note vol="100" pan="0" len="12" key="30" pos="1104"/>
          <note vol="100" pan="0" len="12" key="32" pos="1128"/>
          <note vol="100" pan="0" len="12" key="32" pos="1152"/>
          <note vol="100" pan="0" len="12" key="32" pos="1176"/>
          <note vol="100" pan="0" len="12" key="32" pos="1200"/>
          <note vol="100" pan="0" len="12" key="32" pos="1224"/>
          <note vol="100" pan="0" len="12" key="32" pos="1248"/>
          <note vol="100" pan="0" len="12" key="32" pos="1272"/>
          <note vol="100" pan="0" len="12" key="32" pos="1296"/>
          <note vol="100" pan="0" len="12" key="32" pos="1320"/>
          <note vol="100" pan="0" len="12" key="37" pos="1344"/>
          <note vol="100" pan="0" len="12" key="37" pos="1368"/>
          <note vol="100" pan="0" len="12" key="37" pos="1392"/>
          <note vol="100" pan="0" len="12" key="37" pos="1416"/>
          <note vol="100" pan="0" len="12" key="37" pos="1440"/>
          <note vol="100" pan="0" len="12" key="37" pos="1464"/>
          <note vol="100" pan="0" len="12" key="37" pos="1488"/>
          <note vol="100" pan="0" len="12" key="37" pos="1512"/>
          <note vol="100" pan="0" len="12" key="25" pos="1536"/>
          <note vol="100" pan="0" len="12" key="25" pos="1560"/>
          <note vol="100" pan="0" len="12" key="25" pos="1584"/>
          <note vol="100" pan="0" len="12" key="25" pos="1608"/>
          <note vol="100" pan="0" len="12" key="25" pos="1632"/>
          <note vol="100" pan="0" len="12" key="25" pos="1656"/>
          <note vol="100" pan="0" len="12" key="25" pos="1680"/>
          <note vol="100" pan="0" len="12" key="25" pos="1704"/>
          <note vol="100" pan="0" len="12" key="27" pos="1728"/>
          <note vol="100" pan="0" len="12" key="27" pos="1752"/>
          <note vol="100" pan="0" len="36" key="27" pos="1776"/>
          <note vol="100" pan="0" len="36" key="34" pos="1824"/>
          <note vol="100" pan="0" len="36" key="37" pos="1872"/>
        </midiclip>
      </track>
      <track type="0" muted="0" mutedBeforeSolo="0" solo="0" name="SGM-V2">
        <instrumenttrack pitchrange="1" firstkey="0" vol="100" pitch="0" pan="0" enabled="0" lastkey="127" enablecc="0" scale="0" mixch="5" usemasterpitch="1" basenote="69" keymap="0" range_import="1">
          <midicontrollers cc4="0" cc56="0" cc35="0" cc44="0" cc2="0" cc38="0" cc124="0" cc24="0" cc97="0" cc16="0" cc123="0" cc61="0" cc84="0" cc79="0" cc6="0" cc91="0" cc29="0" cc67="0" cc28="0" cc23="0" cc65="0" cc8="0" cc33="0" cc14="0" cc31="0" cc70="0" cc119="0" cc12="0" cc43="0" cc1="0" cc114="0" cc20="0" cc73="0" cc11="0" cc63="0" cc46="0" cc34="0" cc66="0" cc125="0" cc42="0" cc40="0" cc37="0" cc58="0" cc55="0" cc95="0" cc126="0" cc36="0" cc48="0" cc81="0" cc50="0" cc64="0" cc93="0" cc80="0" cc82="0" cc103="0" cc19="0" cc83="0" cc25="0" cc26="0" cc75="0" cc109="0" cc106="0" cc41="0" cc17="0" cc102="0" cc92="0" cc78="0" cc13="0" cc112="0" cc120="0" cc107="0" cc0="0" cc53="0" cc18="0" cc62="0" cc68="0" cc122="0" cc49="0" cc86="0" cc113="0" cc45="0" cc7="0" cc87="0" cc27="0" cc21="0" cc3="0" cc85="0" cc100="0" cc104="0" cc96="0" cc39="0" cc76="0" cc32="0" cc98="0" cc57="0" cc101="0" cc59="0" cc60="0" cc47="0" cc117="0" cc72="0" cc111="0" cc5="0" cc71="0" cc89="0" cc54="0" cc88="0" cc108="0" cc77="0" cc115="0" cc118="0" cc9="0" cc121="0" cc90="0" cc110="0" cc51="0" cc52="0" cc127="0" cc69="0" cc99="0" cc74="0" cc30="0" cc15="0" cc10="0" cc22="0" cc94="0" cc105="0" cc116="0"/>
          <instrument name="sf2player">
            <sf2player reverbWidth="0.5" reverbOn="0" chorusDepth="8" reverbRoomSize="0.2" chorusNum="3" chorusLevel="2" chorusOn="0" src="usersoundfont:SGM-V2.01.sf2" chorusSpeed="0.3" patch="0" reverbDamping="0" reverbLevel="0.9" bank="0" gain="0.26">
              <key/>
            </sf2player>
          </instrument>
          <eldata fres="0.5" fwet="0" ftype="0" fcut="14000">
            <elvol lpdel="0" hold="0.5" lamt="0" pdel="0" latt="0" ctlenvamt="0" amt="0" sustain="0.5" lspd_syncmode="0" lspd="0.1" x100="0" dec="0.5" lspd_denominator="4" lshp="0" att="0" rel="0.1" lspd_numerator="4" userwavefile=""/>
            <elcut lpdel="0" hold="0.5" lamt="0" pdel="0" latt="0" ctlenvamt="0" amt="0" sustain="0.5" lspd_syncmode="0" lspd="0.1" x100="0" dec="0.5" lspd_denominator="4" lshp="0" att="0" rel="0.1" lspd_numerator="4" userwavefile=""/>
            <elres lpdel="0" hold="0.5" lamt="0" pdel="0" latt="0" ctlenvamt="0" amt="0" sustain="0.5" lspd_syncmode="0" lspd="0.1" x100="0" dec="0.5" lspd_denominator="4" lshp="0" att="0" rel="0.1" lspd_numerator="4" userwavefile=""/>
          </eldata>
          <chordcreator chordrange="1" chord-enabled="0" chord="0"/>
          <arpeggiator arprepeats="1" arp-enabled="0" arpskip="0" arptime="200" arptime_syncmode="0" arp="0" arptime_numerator="4" arpgate="100" arpmiss="0" arptime_denominator="4" arpdir="0" arprange="1" arpcycle="0" arpmode="0"/>
          <midiport basevelocity="127" outputchannel="1" fixedinputvelocity="-1" fixedoutputnote="-1" readable="1" fixedoutputvelocity="-1" writable="0" inputcontroller="0" outputprogram="1" inports="" inputchannel="0" outputcontroller="0"/>
          <fxchain numofeffects="0" enabled="0"/>
        </instrumenttrack>
        <midiclip type="1" muted="0" steps="16" name="" pos="2880">
          <note vol="100" pan="0" len="24" key="75" pos="0"/>
          <note vol="100" pan="0" len="24" key="71" pos="0"/>
          <note vol="100" pan="0" len="24" key="68" pos="0"/>
          <note vol="100" pan="0" len="24" key="74" pos="72"/>
          <note vol="100" pan="0" len="24" key="70" pos="72"/>
          <note vol="100" pan="0" len="24" key="66" pos="72"/>
          <note vol="100" pan="0" len="24" key="73" pos="144"/>
          <note vol="100" pan="0" len="24" key="68" pos="144"/>
          <note vol="100" pan="0" len="24" key="66" pos="144"/>
          <note vol="100" pan="0" len="24" key="63" pos="192"/>
          <note vol="100" pan="0" len="24" key="66" pos="216"/>
          <note vol="100" pan="0" len="24" key="75" pos="240"/>
          <note vol="100" pan="0" len="24" key="71" pos="240"/>
          <note vol="100" pan="0" len="24" key="68" pos="240"/>
          <note vol="100" pan="0" len="24" key="74" pos="312"/>
          <note vol="100" pan="0" len="24" key="68" pos="312"/>
          <note vol="100" pan="0" len="24" key="66" pos="312"/>
          <note vol="100" pan="0" len="24" key="73" pos="384"/>
          <note vol="100" pan="0" len="24" key="70" pos="384"/>
          <note vol="100" pan="0" len="24" key="68" pos="384"/>
          <note vol="100" pan="0" len="24" key="66" pos="408"/>
          <note vol="100" pan="0" len="24" key="63" pos="432"/>
          <note vol="100" pan="0" len="24" key="66" pos="456"/>
          <note vol="100" pan="0" len="24" key="74" pos="480"/>
          <note vol="100" pan="0" len="24" key="71" pos="480"/>
          <note vol="100" pan="0" len="24" key="69" pos="480"/>
          <note vol="100" pan="0" len="24" key="73" pos="552"/>
          <note vol="100" pan="0" len="24" key="71" pos="552"/>
          <note vol="100" pan="0" len="24" key="69" pos="552"/>
          <note vol="100" pan="0" len="24" key="74" pos="624"/>
          <note vol="100" pan="0" len="24" key="71" pos="624"/>
          <note vol="100" pan="0" len="24" key="69" pos="624"/>
          <note vol="100" pan="0" len="24" key="66" pos="672"/>
          <note vol="100" pan="0" len="24" key="68" pos="696"/>
          <note vol="100" pan="0" len="24" key="74" pos="720"/>
          <note vol="100" pan="0" len="24" key="71" pos="720"/>
          <note vol="100" pan="0" len="24" key="69" pos="720"/>
          <note vol="100" pan="0" len="24" key="73" pos="792"/>
          <note vol="100" pan="0" len="24" key="71" pos="792"/>
          <note vol="100" pan="0" len="24" key="69" pos="792"/>
          <note vol="100" pan="0" len="24" key="74" pos="864"/>
          <note vol="100" pan="0" len="24" key="71" pos="864"/>
          <note vol="100" pan="0" len="24" key="69" pos="864"/>
          <note vol="100" pan="0" len="24" key="64" pos="888"/>
          <note vol="100" pan="0" len="24" key="66" pos="912"/>
          <note vol="100" pan="0" len="24" key="69" pos="936"/>
        </midiclip>
        <midiclip type="1" muted="0" steps="16" name="" pos="8832">
          <note vol="100" pan="0" len="36" key="78" pos="0"/>
          <note vol="100" pan="0" len="36" key="74" pos="0"/>
          <note vol="100" pan="0" len="48" key="42" pos="0"/>
          <note vol="100" pan="0" len="12" key="78" pos="36"/>
          <note vol="100" pan="0" len="12" key="74" pos="36"/>
          <note vol="100" pan="0" len="24" key="77" pos="72"/>
          <note vol="100" pan="0" len="24" key="73" pos="72"/>
          <note vol="100" pan="0" len="48" key="46" pos="72"/>
          <note vol="100" pan="0" len="24" key="76" pos="120"/>
          <note vol="100" pan="0" len="24" key="71" pos="120"/>
          <note vol="100" pan="0" len="36" key="74" pos="144"/>
          <note vol="100" pan="0" len="36" key="70" pos="144"/>
          <note vol="100" pan="0" len="36" key="40" pos="144"/>
          <note vol="100" pan="0" len="12" key="76" pos="180"/>
          <note vol="100" pan="0" len="12" key="73" pos="180"/>
          <note vol="100" pan="0" len="36" key="42" pos="180"/>
          <note vol="100" pan="0" len="360" key="71" pos="216"/>
          <note vol="100" pan="0" len="360" key="66" pos="216"/>
          <note vol="100" pan="0" len="360" key="35" pos="216"/>
        </midiclip>
        <midiclip type="1" muted="0" steps="16" name="" pos="3840">
          <note vol="100" pan="0" len="48" key="78" pos="0"/>
          <note vol="100" pan="0" len="48" key="73" pos="0"/>
          <note vol="100" pan="0" len="48" key="69" pos="0"/>
          <note vol="100" pan="0" len="48" key="78" pos="72"/>
          <note vol="100" pan="0" len="48" key="73" pos="72"/>
          <note vol="100" pan="0" len="48" key="69" pos="72"/>
          <note vol="100" pan="0" len="48" key="78" pos="144"/>
          <note vol="100" pan="0" len="48" key="73" pos="144"/>
          <note vol="100" pan="0" len="48" key="69" pos="144"/>
        </midiclip>
        <midiclip type="1" muted="0" steps="16" name="" pos="4032">
          <note vol="100" pan="0" len="48" key="78" pos="0"/>
          <note vol="100" pan="0" len="48" key="73" pos="0"/>
          <note vol="100" pan="0" len="48" key="69" pos="0"/>
          <note vol="100" pan="0" len="48" key="78" pos="72"/>
          <note vol="100" pan="0" len="48" key="73" pos="72"/>
          <note vol="100" pan="0" len="48" key="69" pos="72"/>
          <note vol="100" pan="0" len="48" key="78" pos="144"/>
          <note vol="100" pan="0" len="48" key="73" pos="144"/>
          <note vol="100" pan="0" len="48" key="69" pos="144"/>
        </midiclip>
        <midiclip type="1" muted="0" steps="16" name="" pos="4224">
          <note vol="100" pan="0" len="48" key="78" pos="0"/>
          <note vol="100" pan="0" len="48" key="73" pos="0"/>
          <note vol="100" pan="0" len="48" key="69" pos="0"/>
          <note vol="100" pan="0" len="48" key="78" pos="72"/>
          <note vol="100" pan="0" len="48" key="73" pos="72"/>
          <note vol="100" pan="0" len="48" key="69" pos="72"/>
          <note vol="100" pan="0" len="48" key="78" pos="144"/>
          <note vol="100" pan="0" len="48" key="73" pos="144"/>
          <note vol="100" pan="0" len="48" key="69" pos="144"/>
        </midiclip>
        <midiclip type="1" muted="0" steps="16" name="" pos="4416">
          <note vol="100" pan="0" len="48" key="69" pos="0"/>
          <note vol="100" pan="0" len="48" key="66" pos="0"/>
          <note vol="100" pan="0" len="48" key="61" pos="0"/>
          <note vol="100" pan="0" len="48" key="69" pos="72"/>
          <note vol="100" pan="0" len="48" key="66" pos="72"/>
          <note vol="100" pan="0" len="48" key="61" pos="72"/>
          <note vol="100" pan="0" len="48" key="69" pos="144"/>
          <note vol="100" pan="0" len="48" key="66" pos="144"/>
          <note vol="100" pan="0" len="48" key="61" pos="144"/>
        </midiclip>
        <midiclip type="1" muted="0" steps="16" name="" pos="4608">
          <note vol="100" pan="0" len="48" key="74" pos="0"/>
          <note vol="100" pan="0" len="48" key="69" pos="0"/>
          <note vol="100" pan="0" len="48" key="66" pos="0"/>
          <note vol="100" pan="0" len="48" key="74" pos="72"/>
          <note vol="100" pan="0" len="48" key="69" pos="72"/>
          <note vol="100" pan="0" len="48" key="66" pos="72"/>
          <note vol="100" pan="0" len="48" key="74" pos="144"/>
          <note vol="100" pan="0" len="48" key="69" pos="144"/>
          <note vol="100" pan="0" len="48" key="66" pos="144"/>
        </midiclip>
        <midiclip type="1" muted="0" steps="16" name="" pos="4800">
          <note vol="100" pan="0" len="48" key="74" pos="0"/>
          <note vol="100" pan="0" len="48" key="69" pos="0"/>
          <note vol="100" pan="0" len="48" key="66" pos="0"/>
          <note vol="100" pan="0" len="48" key="74" pos="72"/>
          <note vol="100" pan="0" len="48" key="69" pos="72"/>
          <note vol="100" pan="0" len="48" key="66" pos="72"/>
          <note vol="100" pan="0" len="48" key="74" pos="144"/>
          <note vol="100" pan="0" len="48" key="69" pos="144"/>
          <note vol="100" pan="0" len="48" key="66" pos="144"/>
        </midiclip>
        <midiclip type="1" muted="0" steps="16" name="" pos="4992">
          <note vol="100" pan="0" len="48" key="74" pos="0"/>
          <note vol="100" pan="0" len="48" key="71" pos="0"/>
          <note vol="100" pan="0" len="48" key="68" pos="0"/>
          <note vol="100" pan="0" len="48" key="74" pos="72"/>
          <note vol="100" pan="0" len="48" key="71" pos="72"/>
          <note vol="100" pan="0" len="48" key="68" pos="72"/>
          <note vol="100" pan="0" len="48" key="74" pos="144"/>
          <note vol="100" pan="0" len="48" key="71" pos="144"/>
          <note vol="100" pan="0" len="48" key="68" pos="144"/>
        </midiclip>
        <midiclip type="1" muted="0" steps="16" name="" pos="5184">
          <note vol="100" pan="0" len="384" key="73" pos="0"/>
          <note vol="100" pan="0" len="384" key="68" pos="0"/>
          <note vol="100" pan="0" len="384" key="65" pos="0"/>
        </midiclip>
        <midiclip type="1" muted="0" steps="16" name="" pos="5568">
          <note vol="100" pan="0" len="96" key="78" pos="0"/>
          <note vol="100" pan="0" len="144" key="59" pos="0"/>
          <note vol="100" pan="0" len="144" key="57" pos="0"/>
          <note vol="100" pan="0" len="144" key="52" pos="0"/>
          <note vol="100" pan="0" len="48" key="76" pos="96"/>
          <note vol="100" pan="0" len="96" key="75" pos="144"/>
          <note vol="100" pan="0" len="240" key="63" pos="144"/>
          <note vol="100" pan="0" len="240" key="59" pos="144"/>
          <note vol="100" pan="0" len="240" key="54" pos="144"/>
          <note vol="100" pan="0" len="96" key="71" pos="240"/>
          <note vol="100" pan="0" len="96" key="73" pos="384"/>
          <note vol="100" pan="0" len="144" key="61" pos="384"/>
          <note vol="100" pan="0" len="144" key="58" pos="384"/>
          <note vol="100" pan="0" len="144" key="54" pos="384"/>
          <note vol="100" pan="0" len="48" key="71" pos="480"/>
          <note vol="100" pan="0" len="96" key="69" pos="528"/>
          <note vol="100" pan="0" len="240" key="59" pos="528"/>
          <note vol="100" pan="0" len="240" key="57" pos="528"/>
          <note vol="100" pan="0" len="240" key="52" pos="528"/>
          <note vol="100" pan="0" len="96" key="66" pos="624"/>
          <note vol="100" pan="0" len="96" key="69" pos="768"/>
          <note vol="100" pan="0" len="144" key="57" pos="768"/>
          <note vol="100" pan="0" len="144" key="54" pos="768"/>
          <note vol="100" pan="0" len="144" key="52" pos="768"/>
          <note vol="100" pan="0" len="48" key="73" pos="864"/>
          <note vol="100" pan="0" len="96" key="73" pos="912"/>
          <note vol="100" pan="0" len="240" key="59" pos="912"/>
          <note vol="100" pan="0" len="240" key="54" pos="912"/>
          <note vol="100" pan="0" len="240" key="51" pos="912"/>
          <note vol="100" pan="0" len="48" key="71" pos="1008"/>
          <note vol="100" pan="0" len="48" key="71" pos="1056"/>
          <note vol="100" pan="0" len="96" key="71" pos="1152"/>
          <note vol="100" pan="0" len="144" key="59" pos="1152"/>
          <note vol="100" pan="0" len="144" key="57" pos="1152"/>
          <note vol="100" pan="0" len="144" key="52" pos="1152"/>
          <note vol="100" pan="0" len="48" key="71" pos="1248"/>
          <note vol="100" pan="0" len="96" key="70" pos="1296"/>
          <note vol="100" pan="0" len="240" key="61" pos="1296"/>
          <note vol="100" pan="0" len="240" key="58" pos="1296"/>
          <note vol="100" pan="0" len="240" key="54" pos="1296"/>
          <note vol="100" pan="0" len="96" key="66" pos="1392"/>
        </midiclip>
      </track>
      <track type="0" muted="0" mutedBeforeSolo="0" solo="0" name="Touhou">
        <instrumenttrack pitchrange="1" firstkey="0" vol="100" pitch="0" pan="0" enabled="0" lastkey="127" enablecc="0" scale="0" mixch="6" usemasterpitch="1" basenote="69" keymap="0" range_import="1">
          <midicontrollers cc4="0" cc56="0" cc35="0" cc44="0" cc2="0" cc38="0" cc124="0" cc24="0" cc97="0" cc16="0" cc123="0" cc61="0" cc84="0" cc79="0" cc6="0" cc91="0" cc29="0" cc67="0" cc28="0" cc23="0" cc65="0" cc8="0" cc33="0" cc14="0" cc31="0" cc70="0" cc119="0" cc12="0" cc43="0" cc1="0" cc114="0" cc20="0" cc73="0" cc11="0" cc63="0" cc46="0" cc34="0" cc66="0" cc125="0" cc42="0" cc40="0" cc37="0" cc58="0" cc55="0" cc95="0" cc126="0" cc36="0" cc48="0" cc81="0" cc50="0" cc64="0" cc93="0" cc80="0" cc82="0" cc103="0" cc19="0" cc83="0" cc25="0" cc26="0" cc75="0" cc109="0" cc106="0" cc41="0" cc17="0" cc102="0" cc92="0" cc78="0" cc13="0" cc112="0" cc120="0" cc107="0" cc0="0" cc53="0" cc18="0" cc62="0" cc68="0" cc122="0" cc49="0" cc86="0" cc113="0" cc45="0" cc7="0" cc87="0" cc27="0" cc21="0" cc3="0" cc85="0" cc100="0" cc104="0" cc96="0" cc39="0" cc76="0" cc32="0" cc98="0" cc57="0" cc101="0" cc59="0" cc60="0" cc47="0" cc117="0" cc72="0" cc111="0" cc5="0" cc71="0" cc89="0" cc54="0" cc88="0" cc108="0" cc77="0" cc115="0" cc118="0" cc9="0" cc121="0" cc90="0" cc110="0" cc51="0" cc52="0" cc127="0" cc69="0" cc99="0" cc74="0" cc30="0" cc15="0" cc10="0" cc22="0" cc94="0" cc105="0" cc116="0"/>
          <instrument name="sf2player">
            <sf2player reverbWidth="0.5" reverbOn="0" chorusDepth="8" reverbRoomSize="0.2" chorusNum="3" chorusLevel="2" chorusOn="0" src="usersoundfont:Touhou.sf2" chorusSpeed="0.3" patch="24" reverbDamping="0" reverbLevel="0.9" bank="0" gain="0.4">
              <key/>
            </sf2player>
          </instrument>
          <eldata fres="0.5" fwet="0" ftype="0" fcut="14000">
            <elvol lpdel="0" hold="0.5" lamt="0" pdel="0" latt="0" ctlenvamt="0" amt="0" sustain="0.5" lspd_syncmode="0" lspd="0.1" x100="0" dec="0.5" lspd_denominator="4" lshp="0" att="0" rel="0.1" lspd_numerator="4" userwavefile=""/>
            <elcut lpdel="0" hold="0.5" lamt="0" pdel="0" latt="0" ctlenvamt="0" amt="0" sustain="0.5" lspd_syncmode="0" lspd="0.1" x100="0" dec="0.5" lspd_denominator="4" lshp="0" att="0" rel="0.1" lspd_numerator="4" userwavefile=""/>
            <elres lpdel="0" hold="0.5" lamt="0" pdel="0" latt="0" ctlenvamt="0" amt="0" sustain="0.5" lspd_syncmode="0" lspd="0.1" x100="0" dec="0.5" lspd_denominator="4" lshp="0" att="0" rel="0.1" lspd_numerator="4" userwavefile=""/>
          </eldata>
          <chordcreator chordrange="1" chord-enabled="0" chord="0"/>
          <arpeggiator arprepeats="1" arp-enabled="0" arpskip="0" arptime="200" arptime_syncmode="0" arp="0" arptime_numerator="4" arpgate="100" arpmiss="0" arptime_denominator="4" arpdir="0" arprange="1" arpcycle="0" arpmode="0"/>
          <midiport basevelocity="63" outputchannel="1" fixedinputvelocity="-1" fixedoutputnote="-1" readable="1" fixedoutputvelocity="-1" writable="0" inputcontroller="0" outputprogram="1" inports="" inputchannel="0" outputcontroller="0"/>
          <fxchain numofeffects="0" enabled="0"/>
        </instrumenttrack>
        <midiclip type="1" muted="0" steps="16" name="" pos="192">
          <note vol="100" pan="0" len="177" key="56" pos="159"/>
          <note vol="100" pan="0" len="174" key="61" pos="162"/>
          <note vol="100" pan="0" len="171" key="63" pos="165"/>
          <note vol="100" pan="0" len="168" key="66" pos="168"/>
          <note vol="100" pan="0" len="165" key="68" pos="171"/>
          <note vol="100" pan="0" len="162" key="71" pos="174"/>
          <note vol="100" pan="0" len="201" key="58" pos="351"/>
          <note vol="100" pan="0" len="198" key="61" pos="354"/>
          <note vol="100" pan="0" len="195" key="66" pos="357"/>
          <note vol="100" pan="0" len="192" key="68" pos="360"/>
          <note vol="100" pan="0" len="189" key="70" pos="363"/>
          <note vol="100" pan="0" len="186" key="73" pos="366"/>
          <note vol="100" pan="0" len="153" key="49" pos="567"/>
          <note vol="100" pan="0" len="150" key="53" pos="570"/>
          <note vol="100" pan="0" len="147" key="56" pos="573"/>
          <note vol="100" pan="0" len="144" key="61" pos="576"/>
          <note vol="100" pan="0" len="141" key="65" pos="579"/>
          <note vol="100" pan="0" len="138" key="68" pos="582"/>
          <note vol="100" pan="0" len="177" key="55" pos="735"/>
          <note vol="100" pan="0" len="174" key="58" pos="738"/>
          <note vol="100" pan="0" len="171" key="61" pos="741"/>
          <note vol="100" pan="0" len="168" key="63" pos="744"/>
          <note vol="100" pan="0" len="165" key="67" pos="747"/>
          <note vol="100" pan="0" len="162" key="70" pos="750"/>
          <note vol="100" pan="0" len="177" key="56" pos="927"/>
          <note vol="100" pan="0" len="174" key="61" pos="930"/>
          <note vol="100" pan="0" len="171" key="63" pos="933"/>
          <note vol="100" pan="0" len="168" key="66" pos="936"/>
          <note vol="100" pan="0" len="165" key="68" pos="939"/>
          <note vol="100" pan="0" len="162" key="71" pos="942"/>
          <note vol="100" pan="0" len="201" key="58" pos="1119"/>
          <note vol="100" pan="0" len="198" key="61" pos="1122"/>
          <note vol="100" pan="0" len="195" key="66" pos="1125"/>
          <note vol="100" pan="0" len="192" key="68" pos="1128"/>
          <note vol="100" pan="0" len="189" key="70" pos="1131"/>
          <note vol="100" pan="0" len="186" key="73" pos="1134"/>
          <note vol="100" pan="0" len="153" key="49" pos="1335"/>
          <note vol="100" pan="0" len="150" key="52" pos="1338"/>
          <note vol="100" pan="0" len="147" key="56" pos="1341"/>
          <note vol="100" pan="0" len="144" key="61" pos="1344"/>
          <note vol="100" pan="0" len="141" key="64" pos="1347"/>
          <note vol="100" pan="0" len="138" key="68" pos="1350"/>
          <note vol="100" pan="0" len="225" key="55" pos="1503"/>
          <note vol="100" pan="0" len="222" key="58" pos="1506"/>
          <note vol="100" pan="0" len="219" key="61" pos="1509"/>
          <note vol="100" pan="0" len="216" key="63" pos="1512"/>
          <note vol="100" pan="0" len="213" key="67" pos="1515"/>
          <note vol="100" pan="0" len="210" key="70" pos="1518"/>
        </midiclip>
        <midiclip type="1" muted="0" steps="16" name="" pos="3840">
          <note vol="100" pan="0" len="12" key="66" pos="0"/>
          <note vol="100" pan="0" len="12" key="73" pos="12"/>
          <note vol="100" pan="0" len="12" key="78" pos="24"/>
          <note vol="100" pan="0" len="12" key="73" pos="36"/>
          <note vol="100" pan="0" len="12" key="76" pos="48"/>
          <note vol="100" pan="0" len="12" key="78" pos="60"/>
          <note vol="100" pan="0" len="12" key="81" pos="72"/>
          <note vol="100" pan="0" len="12" key="78" pos="84"/>
          <note vol="100" pan="0" len="12" key="73" pos="96"/>
          <note vol="100" pan="0" len="12" key="66" pos="108"/>
          <note vol="100" pan="0" len="12" key="73" pos="120"/>
          <note vol="100" pan="0" len="12" key="78" pos="132"/>
          <note vol="100" pan="0" len="12" key="81" pos="144"/>
          <note vol="100" pan="0" len="12" key="78" pos="156"/>
          <note vol="100" pan="0" len="12" key="81" pos="168"/>
          <note vol="100" pan="0" len="12" key="85" pos="180"/>
          <note vol="100" pan="0" len="12" key="83" pos="192"/>
          <note vol="100" pan="0" len="12" key="81" pos="204"/>
          <note vol="100" pan="0" len="12" key="80" pos="216"/>
          <note vol="100" pan="0" len="12" key="76" pos="228"/>
          <note vol="100" pan="0" len="12" key="81" pos="240"/>
          <note vol="100" pan="0" len="12" key="80" pos="252"/>
          <note vol="100" pan="0" len="12" key="76" pos="264"/>
          <note vol="100" pan="0" len="12" key="71" pos="276"/>
          <note vol="100" pan="0" len="12" key="68" pos="288"/>
          <note vol="100" pan="0" len="12" key="76" pos="300"/>
          <note vol="100" pan="0" len="12" key="71" pos="312"/>
          <note vol="100" pan="0" len="12" key="68" pos="324"/>
          <note vol="100" pan="0" len="12" key="76" pos="336"/>
          <note vol="100" pan="0" len="12" key="83" pos="348"/>
          <note vol="100" pan="0" len="12" key="80" pos="360"/>
          <note vol="100" pan="0" len="12" key="76" pos="372"/>
          <note vol="100" pan="0" len="12" key="81" pos="384"/>
          <note vol="100" pan="0" len="12" key="80" pos="396"/>
          <note vol="100" pan="0" len="12" key="76" pos="408"/>
          <note vol="100" pan="0" len="12" key="71" pos="420"/>
          <note vol="100" pan="0" len="12" key="76" pos="432"/>
          <note vol="100" pan="0" len="12" key="71" pos="444"/>
          <note vol="100" pan="0" len="12" key="68" pos="456"/>
          <note vol="100" pan="0" len="12" key="71" pos="468"/>
          <note vol="100" pan="0" len="12" key="76" pos="480"/>
          <note vol="100" pan="0" len="12" key="71" pos="492"/>
          <note vol="100" pan="0" len="12" key="68" pos="504"/>
          <note vol="100" pan="0" len="12" key="71" pos="516"/>
          <note vol="100" pan="0" len="12" key="76" pos="528"/>
          <note vol="100" pan="0" len="12" key="71" pos="540"/>
          <note vol="100" pan="0" len="12" key="80" pos="552"/>
          <note vol="100" pan="0" len="12" key="83" pos="564"/>
          <note vol="100" pan="0" len="12" key="64" pos="576"/>
          <note vol="100" pan="0" len="12" key="68" pos="588"/>
          <note vol="100" pan="0" len="12" key="71" pos="600"/>
          <note vol="100" pan="0" len="12" key="68" pos="612"/>
          <note vol="100" pan="0" len="12" key="71" pos="624"/>
          <note vol="100" pan="0" len="12" key="76" pos="636"/>
          <note vol="100" pan="0" len="12" key="71" pos="648"/>
          <note vol="100" pan="0" len="12" key="76" pos="660"/>
          <note vol="100" pan="0" len="12" key="80" pos="672"/>
          <note vol="100" pan="0" len="12" key="76" pos="684"/>
          <note vol="100" pan="0" len="12" key="80" pos="696"/>
          <note vol="100" pan="0" len="12" key="83" pos="708"/>
          <note vol="100" pan="0" len="12" key="81" pos="720"/>
          <note vol="100" pan="0" len="12" key="80" pos="732"/>
          <note vol="100" pan="0" len="12" key="76" pos="744"/>
          <note vol="100" pan="0" len="12" key="73" pos="756"/>
          <note vol="100" pan="0" len="12" key="74" pos="768"/>
          <note vol="100" pan="0" len="12" key="78" pos="780"/>
          <note vol="100" pan="0" len="12" key="81" pos="792"/>
          <note vol="100" pan="0" len="12" key="85" pos="804"/>
          <note vol="100" pan="0" len="12" key="86" pos="816"/>
          <note vol="100" pan="0" len="12" key="85" pos="828"/>
          <note vol="100" pan="0" len="12" key="81" pos="840"/>
          <note vol="100" pan="0" len="12" key="74" pos="852"/>
          <note vol="100" pan="0" len="12" key="78" pos="864"/>
          <note vol="100" pan="0" len="12" key="74" pos="876"/>
          <note vol="100" pan="0" len="12" key="78" pos="888"/>
          <note vol="100" pan="0" len="12" key="81" pos="900"/>
          <note vol="100" pan="0" len="12" key="78" pos="912"/>
          <note vol="100" pan="0" len="12" key="69" pos="924"/>
          <note vol="100" pan="0" len="12" key="74" pos="936"/>
          <note vol="100" pan="0" len="12" key="69" pos="948"/>
          <note vol="100" pan="0" len="12" key="66" pos="960"/>
          <note vol="100" pan="0" len="12" key="69" pos="972"/>
          <note vol="100" pan="0" len="12" key="74" pos="984"/>
          <note vol="100" pan="0" len="12" key="69" pos="996"/>
          <note vol="100" pan="0" len="12" key="74" pos="1008"/>
          <note vol="100" pan="0" len="12" key="69" pos="1020"/>
          <note vol="100" pan="0" len="12" key="66" pos="1032"/>
          <note vol="100" pan="0" len="12" key="62" pos="1044"/>
          <note vol="100" pan="0" len="12" key="66" pos="1056"/>
          <note vol="100" pan="0" len="12" key="62" pos="1068"/>
          <note vol="100" pan="0" len="12" key="66" pos="1080"/>
          <note vol="100" pan="0" len="12" key="73" pos="1092"/>
          <note vol="100" pan="0" len="12" key="71" pos="1104"/>
          <note vol="100" pan="0" len="12" key="69" pos="1116"/>
          <note vol="100" pan="0" len="12" key="68" pos="1128"/>
          <note vol="100" pan="0" len="12" key="64" pos="1140"/>
          <note vol="100" pan="0" len="12" key="68" pos="1152"/>
          <note vol="100" pan="0" len="12" key="66" pos="1164"/>
          <note vol="100" pan="0" len="12" key="65" pos="1176"/>
          <note vol="100" pan="0" len="12" key="68" pos="1188"/>
          <note vol="100" pan="0" len="12" key="71" pos="1200"/>
          <note vol="100" pan="0" len="12" key="69" pos="1212"/>
          <note vol="100" pan="0" len="12" key="68" pos="1224"/>
          <note vol="100" pan="0" len="12" key="73" pos="1236"/>
          <note vol="100" pan="0" len="12" key="76" pos="1248"/>
          <note vol="100" pan="0" len="12" key="74" pos="1260"/>
          <note vol="100" pan="0" len="12" key="73" pos="1272"/>
          <note vol="100" pan="0" len="12" key="68" pos="1284"/>
          <note vol="100" pan="0" len="12" key="64" pos="1296"/>
          <note vol="100" pan="0" len="12" key="62" pos="1308"/>
          <note vol="100" pan="0" len="12" key="61" pos="1320"/>
          <note vol="100" pan="0" len="12" key="59" pos="1332"/>
          <note vol="100" pan="0" len="12" key="65" pos="1344"/>
          <note vol="100" pan="0" len="12" key="68" pos="1356"/>
          <note vol="100" pan="0" len="12" key="73" pos="1368"/>
          <note vol="100" pan="0" len="12" key="77" pos="1380"/>
          <note vol="100" pan="0" len="12" key="80" pos="1392"/>
          <note vol="100" pan="0" len="12" key="73" pos="1404"/>
          <note vol="100" pan="0" len="12" key="77" pos="1416"/>
          <note vol="100" pan="0" len="12" key="80" pos="1428"/>
          <note vol="100" pan="0" len="12" key="73" pos="1440"/>
          <note vol="100" pan="0" len="12" key="77" pos="1452"/>
          <note vol="100" pan="0" len="12" key="80" pos="1464"/>
          <note vol="100" pan="0" len="12" key="83" pos="1476"/>
          <note vol="100" pan="0" len="12" key="81" pos="1488"/>
          <note vol="100" pan="0" len="12" key="80" pos="1500"/>
          <note vol="100" pan="0" len="12" key="78" pos="1512"/>
          <note vol="100" pan="0" len="12" key="76" pos="1524"/>
        </midiclip>
        <midiclip type="1" muted="0" steps="16" name="" pos="5376">
          <note vol="100" pan="0" len="12" key="80" pos="0"/>
          <note vol="100" pan="0" len="12" key="78" pos="12"/>
          <note vol="100" pan="0" len="12" key="77" pos="24"/>
          <note vol="100" pan="0" len="12" key="73" pos="36"/>
          <note vol="100" pan="0" len="12" key="80" pos="48"/>
          <note vol="100" pan="0" len="12" key="78" pos="60"/>
          <note vol="100" pan="0" len="12" key="77" pos="72"/>
          <note vol="100" pan="0" len="12" key="73" pos="84"/>
          <note vol="100" pan="0" len="12" key="80" pos="96"/>
          <note vol="100" pan="0" len="12" key="78" pos="108"/>
          <note vol="100" pan="0" len="12" key="77" pos="120"/>
          <note vol="100" pan="0" len="12" key="73" pos="132"/>
          <note vol="100" pan="0" len="12" key="80" pos="144"/>
          <note vol="100" pan="0" len="12" key="78" pos="156"/>
          <note vol="100" pan="0" len="12" key="77" pos="168"/>
          <note vol="100" pan="0" len="12" key="73" pos="180"/>
        </midiclip>
      </track>
      <track type="0" muted="1" mutedBeforeSolo="1" solo="0" name="Guitar">
        <instrumenttrack pitchrange="1" firstkey="0" vol="100" pitch="0" pan="0" enabled="0" lastkey="127" enablecc="0" scale="0" mixch="6" usemasterpitch="1" basenote="69" keymap="0" range_import="1">
          <midicontrollers cc4="0" cc56="0" cc35="0" cc44="0" cc2="0" cc38="0" cc124="0" cc24="0" cc97="0" cc16="0" cc123="0" cc61="0" cc84="0" cc79="0" cc6="0" cc91="0" cc29="0" cc67="0" cc28="0" cc23="0" cc65="0" cc8="0" cc33="0" cc14="0" cc31="0" cc70="0" cc119="0" cc12="0" cc43="0" cc1="0" cc114="0" cc20="0" cc73="0" cc11="0" cc63="0" cc46="0" cc34="0" cc66="0" cc125="0" cc42="0" cc40="0" cc37="0" cc58="0" cc55="0" cc95="0" cc126="0" cc36="0" cc48="0" cc81="0" cc50="0" cc64="0" cc93="0" cc80="0" cc82="0" cc103="0" cc19="0" cc83="0" cc25="0" cc26="0" cc75="0" cc109="0" cc106="0" cc41="0" cc17="0" cc102="0" cc92="0" cc78="0" cc13="0" cc112="0" cc120="0" cc107="0" cc0="0" cc53="0" cc18="0" cc62="0" cc68="0" cc122="0" cc49="0" cc86="0" cc113="0" cc45="0" cc7="0" cc87="0" cc27="0" cc21="0" cc3="0" cc85="0" cc100="0" cc104="0" cc96="0" cc39="0" cc76="0" cc32="0" cc98="0" cc57="0" cc101="0" cc59="0" cc60="0" cc47="0" cc117="0" cc72="0" cc111="0" cc5="0" cc71="0" cc89="0" cc54="0" cc88="0" cc108="0" cc77="0" cc115="0" cc118="0" cc9="0" cc121="0" cc90="0" cc110="0" cc51="0" cc52="0" cc127="0" cc69="0" cc99="0" cc74="0" cc30="0" cc15="0" cc10="0" cc22="0" cc94="0" cc105="0" cc116="0"/>
          <instrument name="sf2player">
            <sf2player reverbWidth="0.5" reverbOn="0" chorusDepth="8" reverbRoomSize="0.2" chorusNum="3" chorusLevel="2" chorusOn="0" src="usersoundfont:Touhou.sf2" chorusSpeed="0.3" patch="27" reverbDamping="0" reverbLevel="0.9" bank="0" gain="0.4">
              <key/>
            </sf2player>
          </instrument>
          <eldata fres="0.5" fwet="0" ftype="0" fcut="14000">
            <elvol lpdel="0" hold="0.5" lamt="0" pdel="0" latt="0" ctlenvamt="0" amt="0" sustain="0.5" lspd_syncmode="0" lspd="0.1" x100="0" dec="0.5" lspd_denominator="4" lshp="0" att="0" rel="0.1" lspd_numerator="4" userwavefile=""/>
            <elcut lpdel="0" hold="0.5" lamt="0" pdel="0" latt="0" ctlenvamt="0" amt="0" sustain="0.5" lspd_syncmode="0" lspd="0.1" x100="0" dec="0.5" lspd_denominator="4" lshp="0" att="0" rel="0.1" lspd_numerator="4" userwavefile=""/>
            <elres lpdel="0" hold="0.5" lamt="0" pdel="0" latt="0" ctlenvamt="0" amt="0" sustain="0.5" lspd_syncmode="0" lspd="0.1" x100="0" dec="0.5" lspd_denominator="4" lshp="0" att="0" rel="0.1" lspd_numerator="4" userwavefile=""/>
          </eldata>
          <chordcreator chordrange="1" chord-enabled="0" chord="0"/>
          <arpeggiator arprepeats="1" arp-enabled="0" arpskip="0" arptime="200" arptime_syncmode="0" arp="0" arptime_numerator="4" arpgate="100" arpmiss="0" arptime_denominator="4" arpdir="0" arprange="1" arpcycle="0" arpmode="0"/>
          <midiport basevelocity="63" outputchannel="1" fixedinputvelocity="-1" fixedoutputnote="-1" readable="0" fixedoutputvelocity="-1" writable="0" inputcontroller="0" outputprogram="1" inputchannel="0" outputcontroller="0"/>
          <fxchain numofeffects="0" enabled="0"/>
        </instrumenttrack>
        <midiclip type="1" muted="0" steps="16" name="" pos="384">
          <note vol="100" pan="0" len="192" key="44" pos="0"/>
          <note vol="100" pan="0" len="189" key="49" pos="3"/>
          <note vol="100" pan="0" len="186" key="51" pos="6"/>
          <note vol="100" pan="0" len="183" key="54" pos="9"/>
          <note vol="100" pan="0" len="180" key="56" pos="12"/>
          <note vol="100" pan="0" len="177" key="59" pos="15"/>
        </midiclip>
        <midiclip type="1" muted="0" steps="16" name="" pos="576">
          <note vol="100" pan="0" len="192" key="46" pos="0"/>
          <note vol="100" pan="0" len="189" key="49" pos="3"/>
          <note vol="100" pan="0" len="186" key="54" pos="6"/>
          <note vol="100" pan="0" len="183" key="56" pos="9"/>
          <note vol="100" pan="0" len="180" key="58" pos="12"/>
          <note vol="100" pan="0" len="177" key="61" pos="15"/>
        </midiclip>
        <midiclip type="1" muted="0" steps="16" name="" pos="768">
          <note vol="100" pan="0" len="192" key="37" pos="0"/>
          <note vol="100" pan="0" len="189" key="41" pos="3"/>
          <note vol="100" pan="0" len="186" key="44" pos="6"/>
          <note vol="100" pan="0" len="183" key="49" pos="9"/>
          <note vol="100" pan="0" len="180" key="53" pos="12"/>
          <note vol="100" pan="0" len="177" key="56" pos="15"/>
        </midiclip>
        <midiclip type="1" muted="0" steps="16" name="" pos="960">
          <note vol="100" pan="0" len="192" key="43" pos="0"/>
          <note vol="100" pan="0" len="189" key="46" pos="3"/>
          <note vol="100" pan="0" len="186" key="49" pos="6"/>
          <note vol="100" pan="0" len="183" key="51" pos="9"/>
          <note vol="100" pan="0" len="180" key="55" pos="12"/>
          <note vol="100" pan="0" len="177" key="58" pos="15"/>
        </midiclip>
        <midiclip type="1" muted="0" steps="16" name="" pos="1152">
          <note vol="100" pan="0" len="192" key="44" pos="0"/>
          <note vol="100" pan="0" len="189" key="49" pos="3"/>
          <note vol="100" pan="0" len="186" key="51" pos="6"/>
          <note vol="100" pan="0" len="183" key="54" pos="9"/>
          <note vol="100" pan="0" len="180" key="56" pos="12"/>
          <note vol="100" pan="0" len="177" key="59" pos="15"/>
        </midiclip>
        <midiclip type="1" muted="0" steps="16" name="" pos="1344">
          <note vol="100" pan="0" len="192" key="46" pos="0"/>
          <note vol="100" pan="0" len="189" key="49" pos="3"/>
          <note vol="100" pan="0" len="186" key="54" pos="6"/>
          <note vol="100" pan="0" len="183" key="56" pos="9"/>
          <note vol="100" pan="0" len="180" key="58" pos="12"/>
          <note vol="100" pan="0" len="177" key="61" pos="15"/>
        </midiclip>
        <midiclip type="1" muted="0" steps="16" name="" pos="1536">
          <note vol="100" pan="0" len="192" key="37" pos="0"/>
          <note vol="100" pan="0" len="189" key="40" pos="3"/>
          <note vol="100" pan="0" len="186" key="44" pos="6"/>
          <note vol="100" pan="0" len="183" key="49" pos="9"/>
          <note vol="100" pan="0" len="180" key="52" pos="12"/>
          <note vol="100" pan="0" len="177" key="56" pos="15"/>
        </midiclip>
        <midiclip type="1" muted="0" steps="16" name="" pos="1728">
          <note vol="100" pan="0" len="192" key="43" pos="0"/>
          <note vol="100" pan="0" len="189" key="46" pos="3"/>
          <note vol="100" pan="0" len="186" key="49" pos="6"/>
          <note vol="100" pan="0" len="183" key="51" pos="9"/>
          <note vol="100" pan="0" len="180" key="55" pos="12"/>
          <note vol="100" pan="0" len="177" key="58" pos="15"/>
        </midiclip>
      </track>
    </trackcontainer>
    <track type="6" muted="0" mutedBeforeSolo="0" solo="0" name="Automation track">
      <automationtrack/>
      <automationclip mute="0" prog="0" len="192" name="Numerator" pos="0" tens="1"/>
      <automationclip mute="0" prog="0" len="192" name="Denominator" pos="0" tens="1"/>
      <automationclip mute="0" prog="0" len="192" name="Tempo" pos="0" tens="1"/>
      <automationclip mute="0" prog="0" len="192" name="Master volume" pos="0" tens="1"/>
      <automationclip mute="0" prog="0" len="192" name="Master pitch" pos="0" tens="1"/>
    </track>
    <mixer height="333" visible="1" x="1" y="600" width="1893" maximized="0" minimized="0">
      <mixerchannel soloed="0" muted="0" num="0" volume="1" name="Master">
        <fxchain numofeffects="0" enabled="0"/>
      </mixerchannel>
      <mixerchannel soloed="0" muted="0" num="1" volume="1" name="Lead">
        <fxchain numofeffects="1" enabled="1">
          <effect autoquit_denominator="4" autoquit_numerator="4" autoquit="1" gate="0" on="1" autoquit_syncmode="0" wet="1" name="vsteffect">
            <vsteffectcontrols param3="3:Hi Damp:0.35" numparams="8" param7="7:Level:0.5" program="0" guivisible="0" param0="0:Size:0.81" plugin="Effects\Classic Reverb\Classic Reverb.dll" param4="4:Lo Cut:0.3" param6="6:Mix:0.3" param1="1:Damping:0.19" param2="2:Predelay:0.5" param5="5:Early Ref.:0.5"/>
            <key>
              <attribute value="Effects\Classic Reverb\Classic Reverb.dll" name="file"/>
            </key>
          </effect>
        </fxchain>
        <send channel="0" amount="1"/>
      </mixerchannel>
      <mixerchannel soloed="0" muted="0" num="2" volume="1" name="Saxual">
        <fxchain numofeffects="1" enabled="1">
          <effect autoquit_denominator="4" autoquit_numerator="4" autoquit="1" gate="0" on="1" autoquit_syncmode="0" wet="1" name="vsteffect">
            <vsteffectcontrols param3="3:Hi Damp:0.22" numparams="8" param7="7:Level:0.5" program="0" guivisible="0" param0="0:Size:0.8" plugin="Effects\Classic Reverb\Classic Reverb.dll" param4="4:Lo Cut:0.3" param6="6:Mix:0.15" param1="1:Damping:0.17" param2="2:Predelay:0.5" param5="5:Early Ref.:0"/>
            <key>
              <attribute value="Effects\Classic Reverb\Classic Reverb.dll" name="file"/>
            </key>
          </effect>
        </fxchain>
        <send channel="0" amount="1"/>
      </mixerchannel>
      <mixerchannel soloed="0" muted="0" num="3" volume="1" name="Drums">
        <fxchain numofeffects="1" enabled="1">
          <effect autoquit_denominator="4" autoquit_numerator="4" autoquit="1" gate="0" on="1" autoquit_syncmode="0" wet="1" name="vsteffect">
            <vsteffectcontrols param3="3:Hi Damp:0.5" numparams="8" param7="7:Level:0.5" program="0" guivisible="0" param0="0:Size:0.88" plugin="Effects\Classic Reverb\Classic Reverb.dll" param4="4:Lo Cut:0.3" param6="6:Mix:0.1" param1="1:Damping:0.3" param2="2:Predelay:0.5" param5="5:Early Ref.:0"/>
            <key>
              <attribute value="Effects\Classic Reverb\Classic Reverb.dll" name="file"/>
            </key>
          </effect>
        </fxchain>
        <send channel="0" amount="1"/>
      </mixerchannel>
      <mixerchannel soloed="0" muted="0" num="4" volume="1" name="Bass">
        <fxchain numofeffects="1" enabled="1">
          <effect autoquit_denominator="4" autoquit_numerator="4" autoquit="1" gate="0" on="1" autoquit_syncmode="0" wet="1" name="vsteffect">
            <vsteffectcontrols param3="3:Hi Damp:0.5" numparams="8" param7="7:Level:0.5" program="0" guivisible="0" param0="0:Size:0.74" plugin="Effects\Classic Reverb\Classic Reverb.dll" param4="4:Lo Cut:0.3" param6="6:Mix:0.2" param1="1:Damping:0.3" param2="2:Predelay:0.5" param5="5:Early Ref.:0"/>
            <key>
              <attribute value="Effects\Classic Reverb\Classic Reverb.dll" name="file"/>
            </key>
          </effect>
        </fxchain>
        <send channel="0" amount="1"/>
      </mixerchannel>
      <mixerchannel soloed="0" muted="0" num="5" volume="1" name="Piano">
        <fxchain numofeffects="1" enabled="1">
          <effect autoquit_denominator="4" autoquit_numerator="4" autoquit="1" gate="0" on="1" autoquit_syncmode="0" wet="1" name="vsteffect">
            <vsteffectcontrols param3="3:Hi Damp:0.44" numparams="8" param7="7:Level:0.5" program="0" guivisible="0" param0="0:Size:0.71" plugin="Effects\Classic Reverb\Classic Reverb.dll" param4="4:Lo Cut:0.3" param6="6:Mix:0.2" param1="1:Damping:0.29" param2="2:Predelay:0.5" param5="5:Early Ref.:0"/>
            <key>
              <attribute value="Effects\Classic Reverb\Classic Reverb.dll" name="file"/>
            </key>
          </effect>
        </fxchain>
        <send channel="0" amount="1"/>
      </mixerchannel>
      <mixerchannel soloed="0" muted="0" num="6" volume="1" name="Guitar">
        <fxchain numofeffects="1" enabled="1">
          <effect autoquit_denominator="4" autoquit_numerator="4" autoquit="1" gate="0" on="1" autoquit_syncmode="0" wet="1" name="vsteffect">
            <vsteffectcontrols param3="3:Hi Damp:0.39" numparams="8" param7="7:Level:0.5" program="0" guivisible="0" param0="0:Size:0.88" plugin="Effects\Classic Reverb\Classic Reverb.dll" param4="4:Lo Cut:0.3" param6="6:Mix:0.35" param1="1:Damping:0.13" param2="2:Predelay:0.5" param5="5:Early Ref.:0"/>
            <key>
              <attribute value="Effects\Classic Reverb\Classic Reverb.dll" name="file"/>
            </key>
          </effect>
        </fxchain>
        <send channel="0" amount="1"/>
      </mixerchannel>
    </mixer>
    <ControllerRackView height="200" visible="0" x="550" y="487" width="350" maximized="0" minimized="0"/>
    <pianoroll height="601" visible="1" x="646" y="416" width="969" maximized="0" minimized="0"/>
    <automationeditor height="400" visible="0" x="1" y="1" width="860" maximized="0" minimized="0"/>
    <projectnotes height="400" visible="0" x="700" y="10" width="686" maximized="0" minimized="0"><![CDATA[<!DOCTYPE HTML PUBLIC "-//W3C//DTD HTML 4.0//EN" "http://www.w3.org/TR/REC-html40/strict.dtd">
<html><head><meta name="qrichtext" content="1" /><style type="text/css">
p, li { white-space: pre-wrap; }
</style></head><body style=" font-family:'MS Shell Dlg 2'; font-size:8.25pt; font-weight:400; font-style:normal;">
<p style=" margin-top:0px; margin-bottom:0px; margin-left:0px; margin-right:0px; -qt-block-indent:0; text-indent:0px;"><span style=" color:#e0e0e0;">&lt;&lt;&lt;&lt;&lt;&lt;</span></p></body></html>]]></projectnotes>
    <timeline lp0pos="0" lpstate="1" stopbehaviour="1" lp1pos="7296"/>
    <controllers/>
    <scales>
      <scale description="empty">
        <interval den="1" num="1"/>
      </scale>
      <scale description="empty">
        <interval den="1" num="1"/>
      </scale>
      <scale description="empty">
        <interval den="1" num="1"/>
      </scale>
      <scale description="empty">
        <interval den="1" num="1"/>
      </scale>
      <scale description="empty">
        <interval den="1" num="1"/>
      </scale>
      <scale description="empty">
        <interval den="1" num="1"/>
      </scale>
      <scale description="empty">
        <interval den="1" num="1"/>
      </scale>
      <scale description="empty">
        <interval den="1" num="1"/>
      </scale>
      <scale description="empty">
        <interval den="1" num="1"/>
      </scale>
      <scale description="empty">
        <interval den="1" num="1"/>
      </scale>
    </scales>
    <keymaps>
      <keymap middle_key="60" base_freq="440" first_key="0" description="empty" base_key="69" last_key="127"/>
      <keymap middle_key="60" base_freq="440" first_key="0" description="empty" base_key="69" last_key="127"/>
      <keymap middle_key="60" base_freq="440" first_key="0" description="empty" base_key="69" last_key="127"/>
      <keymap middle_key="60" base_freq="440" first_key="0" description="empty" base_key="69" last_key="127"/>
      <keymap middle_key="60" base_freq="440" first_key="0" description="empty" base_key="69" last_key="127"/>
      <keymap middle_key="60" base_freq="440" first_key="0" description="empty" base_key="69" last_key="127"/>
      <keymap middle_key="60" base_freq="440" first_key="0" description="empty" base_key="69" last_key="127"/>
      <keymap middle_key="60" base_freq="440" first_key="0" description="empty" base_key="69" last_key="127"/>
      <keymap middle_key="60" base_freq="440" first_key="0" description="empty" base_key="69" last_key="127"/>
      <keymap middle_key="60" base_freq="440" first_key="0" description="empty" base_key="69" last_key="127"/>
    </keymaps>
  </song>
</lmms-project>
