<?xml version="1.0"?>
<!DOCTYPE lmms-project>
<lmms-project creatorversion="1.3.0-alpha.1.231+g49b1f83e4" version="23" type="song" creator="LMMS">
  <head bpm="116" timesig_denominator="4" masterpitch="0" timesig_numerator="4" mastervol="100"/>
  <song>
    <trackcontainer maximized="0" height="600" type="song" x="1" visible="1" width="1388" minimized="0" y="1">
      <track name="Annotations" muted="0" type="1" solo="0" mutedBeforeSolo="1">
        <patterntrack>
          <trackcontainer maximized="0" height="400" type="patternstore" x="610" visible="1" width="700" minimized="0" y="5"/>
        </patterntrack>
        <patternclip name="Gegen den" pos="0" len="192" muted="0"/>
        <patternclip name="Wind wirke ich kurz-" pos="192" len="192" muted="0"/>
        <patternclip name="-atmig, doch ich weiß," pos="384" len="192" muted="0"/>
        <patternclip name="dass das nicht intressiert" pos="576" len="192" muted="0"/>
        <patternclip name="Oh" pos="768" len="192" muted="0"/>
      </track>
      <track name="Touhou" muted="0" type="0" solo="0" mutedBeforeSolo="0">
        <instrumenttrack pitch="0" firstkey="0" lastkey="127" enabled="0" pan="0" scale="0" pitchrange="1" mixch="1" usemasterpitch="1" keymap="0" enablecc="0" vol="100" basenote="69" range_import="1">
          <midicontrollers cc27="0" cc125="0" cc109="0" cc48="0" cc22="0" cc75="0" cc67="0" cc15="0" cc90="0" cc5="0" cc3="0" cc21="0" cc52="0" cc89="0" cc106="0" cc117="0" cc61="0" cc36="0" cc77="0" cc35="0" cc83="0" cc8="0" cc11="0" cc45="0" cc85="0" cc14="0" cc71="0" cc49="0" cc51="0" cc12="0" cc122="0" cc126="0" cc29="0" cc68="0" cc82="0" cc93="0" cc64="0" cc72="0" cc97="0" cc70="0" cc17="0" cc111="0" cc50="0" cc56="0" cc28="0" cc40="0" cc94="0" cc34="0" cc23="0" cc81="0" cc18="0" cc127="0" cc30="0" cc115="0" cc26="0" cc53="0" cc66="0" cc99="0" cc54="0" cc9="0" cc41="0" cc62="0" cc69="0" cc59="0" cc32="0" cc74="0" cc87="0" cc91="0" cc103="0" cc33="0" cc88="0" cc25="0" cc24="0" cc10="0" cc1="0" cc19="0" cc16="0" cc47="0" cc58="0" cc102="0" cc121="0" cc112="0" cc65="0" cc104="0" cc123="0" cc80="0" cc13="0" cc107="0" cc6="0" cc124="0" cc101="0" cc76="0" cc46="0" cc110="0" cc108="0" cc78="0" cc79="0" cc4="0" cc96="0" cc20="0" cc2="0" cc84="0" cc105="0" cc113="0" cc116="0" cc86="0" cc63="0" cc38="0" cc42="0" cc100="0" cc60="0" cc0="0" cc118="0" cc43="0" cc39="0" cc7="0" cc73="0" cc95="0" cc57="0" cc44="0" cc92="0" cc55="0" cc119="0" cc98="0" cc37="0" cc31="0" cc114="0" cc120="0"/>
          <instrument name="sf2player">
            <sf2player patch="0" bank="0" reverbDamping="0" reverbRoomSize="0.2" reverbLevel="0.9" chorusSpeed="0.3" reverbOn="0" src="usersoundfont:Touhou.sf2" reverbWidth="0.5" chorusLevel="2" gain="0.2" chorusDepth="8" chorusOn="0" chorusNum="3">
              <key/>
            </sf2player>
          </instrument>
          <eldata fcut="14000" ftype="0" fres="0.5" fwet="0">
            <elvol lspd_denominator="4" amt="0" userwavefile="" hold="0.5" x100="0" pdel="0" att="0" sustain="0.5" lspd_syncmode="0" ctlenvamt="0" latt="0" dec="0.5" rel="0.1" lshp="0" lamt="0" lspd_numerator="4" lspd="0.1" lpdel="0"/>
            <elcut lspd_denominator="4" amt="0" userwavefile="" hold="0.5" x100="0" pdel="0" att="0" sustain="0.5" lspd_syncmode="0" ctlenvamt="0" latt="0" dec="0.5" rel="0.1" lshp="0" lamt="0" lspd_numerator="4" lspd="0.1" lpdel="0"/>
            <elres lspd_denominator="4" amt="0" userwavefile="" hold="0.5" x100="0" pdel="0" att="0" sustain="0.5" lspd_syncmode="0" ctlenvamt="0" latt="0" dec="0.5" rel="0.1" lshp="0" lamt="0" lspd_numerator="4" lspd="0.1" lpdel="0"/>
          </eldata>
          <chordcreator chordrange="1" chord-enabled="0" chord="0"/>
          <arpeggiator arptime="200" arpmiss="0" arpdir="0" arprange="1" arptime_numerator="4" arpmode="0" arpskip="0" arp="0" arptime_syncmode="0" arpcycle="0" arptime_denominator="4" arp-enabled="0" arprepeats="1" arpgate="100"/>
          <midiport outputcontroller="0" basevelocity="127" outputprogram="1" writable="0" outputchannel="1" fixedinputvelocity="-1" inputchannel="0" inputcontroller="0" readable="1" inports="" fixedoutputvelocity="-1" fixedoutputnote="-1"/>
          <fxchain enabled="0" numofeffects="0"/>
        </instrumenttrack>
        <midiclip name="" pos="1728" muted="0" type="1" steps="16">
          <note key="62" pos="0" pan="0" len="192" vol="100"/>
          <note key="59" pos="0" pan="0" len="192" vol="100"/>
          <note key="55" pos="0" pan="0" len="48" vol="100"/>
          <note key="50" pos="0" pan="0" len="144" vol="100"/>
          <note key="31" pos="0" pan="0" len="192" vol="100"/>
          <note key="55" pos="48" pan="0" len="144" vol="100"/>
          <note key="50" pos="144" pan="0" len="48" vol="100"/>
          <note key="57" pos="192" pan="0" len="144" vol="100"/>
          <note key="54" pos="192" pan="0" len="48" vol="100"/>
          <note key="50" pos="192" pan="0" len="192" vol="100"/>
          <note key="30" pos="192" pan="0" len="192" vol="100"/>
          <note key="54" pos="240" pan="0" len="144" vol="100"/>
          <note key="57" pos="336" pan="0" len="48" vol="100"/>
          <note key="60" pos="384" pan="0" len="48" vol="100"/>
          <note key="55" pos="384" pan="0" len="144" vol="100"/>
          <note key="52" pos="384" pan="0" len="192" vol="100"/>
          <note key="28" pos="384" pan="0" len="192" vol="100"/>
          <note key="60" pos="432" pan="0" len="144" vol="100"/>
          <note key="55" pos="528" pan="0" len="48" vol="100"/>
          <note key="59" pos="576" pan="0" len="36" vol="100"/>
          <note key="55" pos="576" pan="0" len="36" vol="100"/>
          <note key="52" pos="576" pan="0" len="36" vol="100"/>
          <note key="31" pos="576" pan="0" len="36" vol="100"/>
          <note key="59" pos="612" pan="0" len="12" vol="100"/>
          <note key="55" pos="612" pan="0" len="12" vol="100"/>
          <note key="52" pos="612" pan="0" len="12" vol="100"/>
          <note key="28" pos="612" pan="0" len="12" vol="100"/>
          <note key="57" pos="648" pan="0" len="120" vol="100"/>
          <note key="54" pos="648" pan="0" len="120" vol="100"/>
          <note key="50" pos="648" pan="0" len="120" vol="100"/>
          <note key="26" pos="648" pan="0" len="120" vol="100"/>
        </midiclip>
        <midiclip name="" pos="2496" muted="0" type="1" steps="16">
          <note key="59" pos="0" pan="0" len="48" vol="100"/>
          <note key="55" pos="0" pan="0" len="144" vol="100"/>
          <note key="50" pos="0" pan="0" len="192" vol="100"/>
          <note key="31" pos="0" pan="0" len="192" vol="100"/>
          <note key="59" pos="48" pan="0" len="144" vol="100"/>
          <note key="55" pos="144" pan="0" len="48" vol="100"/>
          <note key="62" pos="192" pan="0" len="48" vol="100"/>
          <note key="57" pos="192" pan="0" len="192" vol="100"/>
          <note key="54" pos="192" pan="0" len="144" vol="100"/>
          <note key="30" pos="192" pan="0" len="192" vol="100"/>
          <note key="62" pos="240" pan="0" len="144" vol="100"/>
          <note key="54" pos="336" pan="0" len="48" vol="100"/>
          <note key="60" pos="384" pan="0" len="144" vol="100"/>
          <note key="57" pos="384" pan="0" len="48" vol="100"/>
          <note key="52" pos="384" pan="0" len="192" vol="100"/>
          <note key="40" pos="384" pan="0" len="192" vol="100"/>
          <note key="57" pos="432" pan="0" len="144" vol="100"/>
          <note key="60" pos="528" pan="0" len="48" vol="100"/>
          <note key="59" pos="576" pan="0" len="36" vol="100"/>
          <note key="55" pos="576" pan="0" len="36" vol="100"/>
          <note key="52" pos="576" pan="0" len="36" vol="100"/>
          <note key="43" pos="576" pan="0" len="36" vol="100"/>
          <note key="59" pos="612" pan="0" len="12" vol="100"/>
          <note key="55" pos="612" pan="0" len="12" vol="100"/>
          <note key="52" pos="612" pan="0" len="12" vol="100"/>
          <note key="40" pos="612" pan="0" len="12" vol="100"/>
          <note key="62" pos="648" pan="0" len="120" vol="100"/>
          <note key="57" pos="648" pan="0" len="120" vol="100"/>
          <note key="54" pos="648" pan="0" len="120" vol="100"/>
          <note key="38" pos="648" pan="0" len="120" vol="100"/>
          <note key="62" pos="768" pan="0" len="48" vol="100"/>
          <note key="57" pos="768" pan="0" len="48" vol="100"/>
          <note key="29" pos="768" pan="0" len="48" vol="100"/>
          <note key="60" pos="816" pan="0" len="48" vol="100"/>
          <note key="56" pos="816" pan="0" len="48" vol="100"/>
          <note key="30" pos="816" pan="0" len="48" vol="100"/>
          <note key="59" pos="864" pan="0" len="48" vol="100"/>
          <note key="55" pos="864" pan="0" len="48" vol="100"/>
          <note key="31" pos="864" pan="0" len="48" vol="100"/>
          <note key="58" pos="912" pan="0" len="48" vol="100"/>
          <note key="53" pos="912" pan="0" len="48" vol="100"/>
          <note key="32" pos="912" pan="0" len="48" vol="100"/>
        </midiclip>
        <midiclip name="" pos="0" muted="0" type="1" steps="16">
          <note key="71" pos="120" pan="0" len="24" vol="100"/>
          <note key="71" pos="144" pan="0" len="24" vol="100"/>
          <note key="72" pos="168" pan="0" len="24" vol="100"/>
          <note key="74" pos="192" pan="0" len="48" vol="100"/>
          <note key="67" pos="192" pan="0" len="144" vol="100"/>
          <note key="62" pos="192" pan="0" len="48" vol="100"/>
          <note key="59" pos="192" pan="0" len="192" vol="100"/>
          <note key="31" pos="192" pan="0" len="36" vol="100"/>
          <note key="43" pos="228" pan="0" len="24" vol="100"/>
          <note key="74" pos="240" pan="0" len="24" vol="100"/>
          <note key="62" pos="240" pan="0" len="144" vol="100"/>
          <note key="74" pos="264" pan="0" len="48" vol="100"/>
          <note key="31" pos="264" pan="0" len="72" vol="100"/>
          <note key="83" pos="312" pan="0" len="48" vol="100"/>
          <note key="67" pos="336" pan="0" len="48" vol="100"/>
          <note key="31" pos="336" pan="0" len="24" vol="100"/>
          <note key="83" pos="360" pan="0" len="48" vol="100"/>
          <note key="43" pos="360" pan="0" len="24" vol="100"/>
          <note key="69" pos="384" pan="0" len="192" vol="100"/>
          <note key="66" pos="384" pan="0" len="48" vol="100"/>
          <note key="62" pos="384" pan="0" len="144" vol="100"/>
          <note key="35" pos="384" pan="0" len="36" vol="100"/>
          <note key="81" pos="408" pan="0" len="48" vol="100"/>
          <note key="47" pos="420" pan="0" len="24" vol="100"/>
          <note key="66" pos="432" pan="0" len="144" vol="100"/>
          <note key="81" pos="456" pan="0" len="48" vol="100"/>
          <note key="35" pos="456" pan="0" len="72" vol="100"/>
          <note key="79" pos="504" pan="0" len="24" vol="100"/>
          <note key="78" pos="528" pan="0" len="24" vol="100"/>
          <note key="62" pos="528" pan="0" len="48" vol="100"/>
          <note key="35" pos="528" pan="0" len="24" vol="100"/>
          <note key="76" pos="552" pan="0" len="48" vol="100"/>
          <note key="47" pos="552" pan="0" len="24" vol="100"/>
          <note key="64" pos="576" pan="0" len="192" vol="100"/>
          <note key="60" pos="576" pan="0" len="48" vol="100"/>
          <note key="55" pos="576" pan="0" len="144" vol="100"/>
          <note key="36" pos="576" pan="0" len="36" vol="100"/>
          <note key="76" pos="600" pan="0" len="24" vol="100"/>
          <note key="48" pos="612" pan="0" len="24" vol="100"/>
          <note key="76" pos="624" pan="0" len="24" vol="100"/>
          <note key="60" pos="624" pan="0" len="144" vol="100"/>
          <note key="76" pos="648" pan="0" len="48" vol="100"/>
          <note key="36" pos="648" pan="0" len="72" vol="100"/>
          <note key="76" pos="696" pan="0" len="24" vol="100"/>
          <note key="78" pos="720" pan="0" len="24" vol="100"/>
          <note key="55" pos="720" pan="0" len="48" vol="100"/>
          <note key="36" pos="720" pan="0" len="24" vol="100"/>
          <note key="79" pos="744" pan="0" len="96" vol="100"/>
          <note key="48" pos="744" pan="0" len="24" vol="100"/>
          <note key="67" pos="768" pan="0" len="36" vol="100"/>
          <note key="64" pos="768" pan="0" len="36" vol="100"/>
          <note key="60" pos="768" pan="0" len="36" vol="100"/>
          <note key="38" pos="768" pan="0" len="36" vol="100"/>
          <note key="67" pos="804" pan="0" len="36" vol="100"/>
          <note key="64" pos="804" pan="0" len="36" vol="100"/>
          <note key="60" pos="804" pan="0" len="36" vol="100"/>
          <note key="26" pos="804" pan="0" len="24" vol="100"/>
          <note key="78" pos="840" pan="0" len="48" vol="100"/>
          <note key="69" pos="840" pan="0" len="36" vol="100"/>
          <note key="66" pos="840" pan="0" len="36" vol="100"/>
          <note key="62" pos="840" pan="0" len="36" vol="100"/>
          <note key="38" pos="840" pan="0" len="36" vol="100"/>
          <note key="69" pos="876" pan="0" len="36" vol="100"/>
          <note key="66" pos="876" pan="0" len="36" vol="100"/>
          <note key="62" pos="876" pan="0" len="36" vol="100"/>
          <note key="26" pos="876" pan="0" len="24" vol="100"/>
          <note key="71" pos="888" pan="0" len="24" vol="100"/>
          <note key="71" pos="912" pan="0" len="24" vol="100"/>
          <note key="69" pos="912" pan="0" len="48" vol="100"/>
          <note key="66" pos="912" pan="0" len="48" vol="100"/>
          <note key="62" pos="912" pan="0" len="48" vol="100"/>
          <note key="26" pos="912" pan="0" len="24" vol="100"/>
          <note key="72" pos="936" pan="0" len="24" vol="100"/>
          <note key="26" pos="936" pan="0" len="24" vol="100"/>
          <note key="74" pos="960" pan="0" len="48" vol="100"/>
          <note key="67" pos="960" pan="0" len="192" vol="100"/>
          <note key="62" pos="960" pan="0" len="144" vol="100"/>
          <note key="59" pos="960" pan="0" len="48" vol="100"/>
          <note key="31" pos="960" pan="0" len="36" vol="100"/>
          <note key="43" pos="996" pan="0" len="24" vol="100"/>
          <note key="74" pos="1008" pan="0" len="24" vol="100"/>
          <note key="59" pos="1008" pan="0" len="144" vol="100"/>
          <note key="74" pos="1032" pan="0" len="48" vol="100"/>
          <note key="31" pos="1032" pan="0" len="72" vol="100"/>
          <note key="83" pos="1080" pan="0" len="48" vol="100"/>
          <note key="62" pos="1104" pan="0" len="48" vol="100"/>
          <note key="31" pos="1104" pan="0" len="24" vol="100"/>
          <note key="83" pos="1128" pan="0" len="48" vol="100"/>
          <note key="43" pos="1128" pan="0" len="24" vol="100"/>
          <note key="69" pos="1152" pan="0" len="144" vol="100"/>
          <note key="66" pos="1152" pan="0" len="48" vol="100"/>
          <note key="62" pos="1152" pan="0" len="192" vol="100"/>
          <note key="35" pos="1152" pan="0" len="36" vol="100"/>
          <note key="84" pos="1176" pan="0" len="48" vol="100"/>
          <note key="47" pos="1188" pan="0" len="24" vol="100"/>
          <note key="66" pos="1200" pan="0" len="144" vol="100"/>
          <note key="81" pos="1224" pan="0" len="48" vol="100"/>
          <note key="35" pos="1224" pan="0" len="72" vol="100"/>
          <note key="79" pos="1272" pan="0" len="24" vol="100"/>
          <note key="78" pos="1296" pan="0" len="24" vol="100"/>
          <note key="69" pos="1296" pan="0" len="48" vol="100"/>
          <note key="35" pos="1296" pan="0" len="24" vol="100"/>
          <note key="76" pos="1320" pan="0" len="48" vol="100"/>
          <note key="47" pos="1320" pan="0" len="24" vol="100"/>
          <note key="67" pos="1344" pan="0" len="192" vol="100"/>
          <note key="64" pos="1344" pan="0" len="48" vol="100"/>
          <note key="60" pos="1344" pan="0" len="144" vol="100"/>
          <note key="43" pos="1344" pan="0" len="36" vol="100"/>
          <note key="76" pos="1368" pan="0" len="24" vol="100"/>
          <note key="36" pos="1380" pan="0" len="24" vol="100"/>
          <note key="76" pos="1392" pan="0" len="24" vol="100"/>
          <note key="64" pos="1392" pan="0" len="144" vol="100"/>
          <note key="76" pos="1416" pan="0" len="48" vol="100"/>
          <note key="43" pos="1416" pan="0" len="72" vol="100"/>
          <note key="74" pos="1464" pan="0" len="24" vol="100"/>
          <note key="76" pos="1488" pan="0" len="24" vol="100"/>
          <note key="60" pos="1488" pan="0" len="48" vol="100"/>
          <note key="43" pos="1488" pan="0" len="24" vol="100"/>
          <note key="78" pos="1512" pan="0" len="72" vol="100"/>
          <note key="36" pos="1512" pan="0" len="24" vol="100"/>
          <note key="66" pos="1536" pan="0" len="144" vol="100"/>
          <note key="62" pos="1536" pan="0" len="48" vol="100"/>
          <note key="57" pos="1536" pan="0" len="144" vol="100"/>
          <note key="38" pos="1536" pan="0" len="36" vol="100"/>
          <note key="50" pos="1572" pan="0" len="24" vol="100"/>
          <note key="76" pos="1584" pan="0" len="48" vol="100"/>
          <note key="62" pos="1584" pan="0" len="96" vol="100"/>
          <note key="38" pos="1608" pan="0" len="72" vol="100"/>
          <note key="72" pos="1632" pan="0" len="48" vol="100"/>
          <note key="71" pos="1680" pan="0" len="48" vol="100"/>
          <note key="69" pos="1680" pan="0" len="48" vol="100"/>
          <note key="66" pos="1680" pan="0" len="48" vol="100"/>
          <note key="60" pos="1680" pan="0" len="48" vol="100"/>
          <note key="38" pos="1680" pan="0" len="24" vol="100"/>
          <note key="50" pos="1704" pan="0" len="24" vol="100"/>
        </midiclip>
        <midiclip name="" pos="3456" muted="0" type="1" steps="16">
          <note key="62" pos="0" pan="0" len="96" vol="100"/>
          <note key="57" pos="0" pan="0" len="96" vol="100"/>
          <note key="53" pos="0" pan="0" len="96" vol="100"/>
          <note key="38" pos="0" pan="0" len="96" vol="100"/>
          <note key="72" pos="24" pan="0" len="24" vol="100"/>
          <note key="74" pos="48" pan="0" len="24" vol="100"/>
          <note key="72" pos="72" pan="0" len="24" vol="100"/>
          <note key="74" pos="96" pan="0" len="48" vol="100"/>
          <note key="65" pos="96" pan="0" len="72" vol="100"/>
          <note key="62" pos="96" pan="0" len="72" vol="100"/>
          <note key="48" pos="96" pan="0" len="72" vol="100"/>
          <note key="41" pos="96" pan="0" len="72" vol="100"/>
          <note key="72" pos="144" pan="0" len="24" vol="100"/>
          <note key="74" pos="168" pan="0" len="48" vol="100"/>
          <note key="67" pos="168" pan="0" len="216" vol="100"/>
          <note key="60" pos="168" pan="0" len="216" vol="100"/>
          <note key="55" pos="168" pan="0" len="216" vol="100"/>
          <note key="43" pos="168" pan="0" len="96" vol="100"/>
          <note key="84" pos="216" pan="0" len="48" vol="100"/>
          <note key="83" pos="264" pan="0" len="48" vol="100"/>
          <note key="48" pos="264" pan="0" len="120" vol="100"/>
          <note key="79" pos="312" pan="0" len="48" vol="100"/>
          <note key="77" pos="360" pan="0" len="24" vol="100"/>
          <note key="60" pos="384" pan="0" len="96" vol="100"/>
          <note key="57" pos="384" pan="0" len="96" vol="100"/>
          <note key="50" pos="384" pan="0" len="96" vol="100"/>
          <note key="45" pos="384" pan="0" len="96" vol="100"/>
          <note key="72" pos="408" pan="0" len="24" vol="100"/>
          <note key="74" pos="432" pan="0" len="24" vol="100"/>
          <note key="72" pos="456" pan="0" len="24" vol="100"/>
          <note key="74" pos="480" pan="0" len="48" vol="100"/>
          <note key="65" pos="480" pan="0" len="72" vol="100"/>
          <note key="62" pos="480" pan="0" len="72" vol="100"/>
          <note key="48" pos="480" pan="0" len="72" vol="100"/>
          <note key="41" pos="480" pan="0" len="72" vol="100"/>
          <note key="72" pos="528" pan="0" len="24" vol="100"/>
          <note key="74" pos="552" pan="0" len="48" vol="100"/>
          <note key="65" pos="552" pan="0" len="216" vol="100"/>
          <note key="59" pos="552" pan="0" len="216" vol="100"/>
          <note key="55" pos="552" pan="0" len="216" vol="100"/>
          <note key="43" pos="552" pan="0" len="96" vol="100"/>
          <note key="84" pos="600" pan="0" len="48" vol="100"/>
          <note key="83" pos="648" pan="0" len="48" vol="100"/>
          <note key="41" pos="648" pan="0" len="72" vol="100"/>
          <note key="81" pos="696" pan="0" len="24" vol="100"/>
          <note key="79" pos="720" pan="0" len="24" vol="100"/>
          <note key="40" pos="720" pan="0" len="48" vol="100"/>
          <note key="76" pos="744" pan="0" len="24" vol="100"/>
        </midiclip>
        <midiclip name="" pos="25344" muted="0" type="1" steps="16">
          <note key="88" pos="0" pan="0" len="48" vol="100"/>
          <note key="52" pos="0" pan="0" len="96" vol="100"/>
          <note key="45" pos="0" pan="0" len="192" vol="100"/>
          <note key="81" pos="48" pan="0" len="48" vol="100"/>
          <note key="72" pos="48" pan="0" len="48" vol="100"/>
          <note key="69" pos="48" pan="0" len="48" vol="100"/>
          <note key="40" pos="48" pan="0" len="144" vol="100"/>
          <note key="81" pos="96" pan="0" len="48" vol="100"/>
          <note key="76" pos="96" pan="0" len="48" vol="100"/>
          <note key="72" pos="96" pan="0" len="48" vol="100"/>
          <note key="52" pos="96" pan="0" len="96" vol="100"/>
          <note key="88" pos="144" pan="0" len="48" vol="100"/>
          <note key="72" pos="144" pan="0" len="48" vol="100"/>
          <note key="69" pos="144" pan="0" len="48" vol="100"/>
          <note key="57" pos="144" pan="0" len="48" vol="100"/>
          <note key="87" pos="192" pan="0" len="48" vol="100"/>
          <note key="54" pos="192" pan="0" len="96" vol="100"/>
          <note key="47" pos="192" pan="0" len="192" vol="100"/>
          <note key="81" pos="240" pan="0" len="48" vol="100"/>
          <note key="71" pos="240" pan="0" len="48" vol="100"/>
          <note key="66" pos="240" pan="0" len="48" vol="100"/>
          <note key="42" pos="240" pan="0" len="144" vol="100"/>
          <note key="81" pos="288" pan="0" len="48" vol="100"/>
          <note key="75" pos="288" pan="0" len="48" vol="100"/>
          <note key="71" pos="288" pan="0" len="48" vol="100"/>
          <note key="54" pos="288" pan="0" len="96" vol="100"/>
          <note key="87" pos="336" pan="0" len="48" vol="100"/>
          <note key="71" pos="336" pan="0" len="48" vol="100"/>
          <note key="66" pos="336" pan="0" len="48" vol="100"/>
          <note key="59" pos="336" pan="0" len="48" vol="100"/>
          <note key="88" pos="384" pan="0" len="48" vol="100"/>
          <note key="45" pos="384" pan="0" len="192" vol="100"/>
          <note key="41" pos="384" pan="0" len="192" vol="100"/>
          <note key="81" pos="432" pan="0" len="48" vol="100"/>
          <note key="72" pos="432" pan="0" len="48" vol="100"/>
          <note key="69" pos="432" pan="0" len="48" vol="100"/>
          <note key="48" pos="432" pan="0" len="144" vol="100"/>
          <note key="81" pos="480" pan="0" len="48" vol="100"/>
          <note key="77" pos="480" pan="0" len="48" vol="100"/>
          <note key="72" pos="480" pan="0" len="48" vol="100"/>
          <note key="52" pos="480" pan="0" len="96" vol="100"/>
          <note key="88" pos="528" pan="0" len="48" vol="100"/>
          <note key="72" pos="528" pan="0" len="48" vol="100"/>
          <note key="69" pos="528" pan="0" len="48" vol="100"/>
          <note key="55" pos="528" pan="0" len="48" vol="100"/>
          <note key="90" pos="576" pan="0" len="24" vol="100"/>
          <note key="51" pos="576" pan="0" len="192" vol="100"/>
          <note key="47" pos="576" pan="0" len="192" vol="100"/>
          <note key="91" pos="600" pan="0" len="24" vol="100"/>
          <note key="90" pos="624" pan="0" len="24" vol="100"/>
          <note key="75" pos="624" pan="0" len="48" vol="100"/>
          <note key="71" pos="624" pan="0" len="48" vol="100"/>
          <note key="42" pos="624" pan="0" len="144" vol="100"/>
          <note key="91" pos="648" pan="0" len="24" vol="100"/>
          <note key="88" pos="672" pan="0" len="24" vol="100"/>
          <note key="78" pos="672" pan="0" len="48" vol="100"/>
          <note key="74" pos="672" pan="0" len="48" vol="100"/>
          <note key="54" pos="672" pan="0" len="96" vol="100"/>
          <note key="90" pos="696" pan="0" len="24" vol="100"/>
          <note key="88" pos="720" pan="0" len="24" vol="100"/>
          <note key="76" pos="720" pan="0" len="48" vol="100"/>
          <note key="71" pos="720" pan="0" len="48" vol="100"/>
          <note key="53" pos="720" pan="0" len="48" vol="100"/>
          <note key="86" pos="744" pan="0" len="24" vol="100"/>
          <note key="83" pos="768" pan="0" len="48" vol="100"/>
          <note key="52" pos="768" pan="0" len="192" vol="100"/>
          <note key="47" pos="768" pan="0" len="192" vol="100"/>
          <note key="81" pos="816" pan="0" len="48" vol="100"/>
          <note key="69" pos="816" pan="0" len="48" vol="100"/>
          <note key="67" pos="816" pan="0" len="48" vol="100"/>
          <note key="40" pos="816" pan="0" len="144" vol="100"/>
          <note key="79" pos="864" pan="0" len="48" vol="100"/>
          <note key="71" pos="864" pan="0" len="96" vol="100"/>
          <note key="69" pos="864" pan="0" len="96" vol="100"/>
          <note key="55" pos="864" pan="0" len="96" vol="100"/>
          <note key="83" pos="912" pan="0" len="48" vol="100"/>
          <note key="57" pos="912" pan="0" len="48" vol="100"/>
          <note key="81" pos="960" pan="0" len="48" vol="100"/>
          <note key="50" pos="960" pan="0" len="144" vol="100"/>
          <note key="43" pos="960" pan="0" len="144" vol="100"/>
          <note key="79" pos="1008" pan="0" len="48" vol="100"/>
          <note key="64" pos="1008" pan="0" len="48" vol="100"/>
          <note key="62" pos="1008" pan="0" len="48" vol="100"/>
          <note key="38" pos="1008" pan="0" len="96" vol="100"/>
          <note key="76" pos="1056" pan="0" len="48" vol="100"/>
          <note key="67" pos="1056" pan="0" len="96" vol="100"/>
          <note key="64" pos="1056" pan="0" len="96" vol="100"/>
          <note key="52" pos="1056" pan="0" len="48" vol="100"/>
          <note key="74" pos="1104" pan="0" len="48" vol="100"/>
          <note key="43" pos="1104" pan="0" len="48" vol="100"/>
          <note key="36" pos="1104" pan="0" len="48" vol="100"/>
          <note key="73" pos="1152" pan="0" len="48" vol="100"/>
          <note key="45" pos="1152" pan="0" len="192" vol="100"/>
          <note key="40" pos="1152" pan="0" len="192" vol="100"/>
          <note key="81" pos="1200" pan="0" len="48" vol="100"/>
          <note key="61" pos="1200" pan="0" len="48" vol="100"/>
          <note key="57" pos="1200" pan="0" len="48" vol="100"/>
          <note key="37" pos="1200" pan="0" len="144" vol="100"/>
          <note key="76" pos="1248" pan="0" len="48" vol="100"/>
          <note key="64" pos="1248" pan="0" len="48" vol="100"/>
          <note key="61" pos="1248" pan="0" len="48" vol="100"/>
          <note key="49" pos="1248" pan="0" len="96" vol="100"/>
          <note key="81" pos="1296" pan="0" len="48" vol="100"/>
          <note key="61" pos="1296" pan="0" len="48" vol="100"/>
          <note key="57" pos="1296" pan="0" len="48" vol="100"/>
          <note key="52" pos="1296" pan="0" len="48" vol="100"/>
          <note key="83" pos="1344" pan="0" len="192" vol="100"/>
          <note key="63" pos="1344" pan="0" len="192" vol="100"/>
          <note key="59" pos="1344" pan="0" len="192" vol="100"/>
          <note key="51" pos="1344" pan="0" len="192" vol="100"/>
          <note key="42" pos="1344" pan="0" len="192" vol="100"/>
          <note key="35" pos="1344" pan="0" len="192" vol="100"/>
        </midiclip>
        <midiclip name="" pos="27840" muted="0" type="1" steps="16">
          <note key="61" pos="144" pan="0" len="24" vol="100"/>
          <note key="62" pos="168" pan="0" len="24" vol="100"/>
          <note key="63" pos="192" pan="0" len="48" vol="100"/>
          <note key="51" pos="192" pan="0" len="192" vol="100"/>
          <note key="46" pos="192" pan="0" len="192" vol="100"/>
          <note key="39" pos="192" pan="0" len="192" vol="100"/>
          <note key="61" pos="240" pan="0" len="24" vol="100"/>
          <note key="66" pos="264" pan="0" len="48" vol="100"/>
          <note key="63" pos="312" pan="0" len="48" vol="100"/>
          <note key="70" pos="360" pan="0" len="48" vol="100"/>
          <note key="54" pos="384" pan="0" len="192" vol="100"/>
          <note key="46" pos="384" pan="0" len="192" vol="100"/>
          <note key="37" pos="384" pan="0" len="192" vol="100"/>
          <note key="68" pos="408" pan="0" len="24" vol="100"/>
          <note key="66" pos="432" pan="0" len="24" vol="100"/>
          <note key="63" pos="456" pan="0" len="48" vol="100"/>
          <note key="63" pos="504" pan="0" len="24" vol="100"/>
          <note key="66" pos="528" pan="0" len="24" vol="100"/>
          <note key="68" pos="552" pan="0" len="24" vol="100"/>
          <note key="73" pos="576" pan="0" len="48" vol="100"/>
          <note key="56" pos="576" pan="0" len="192" vol="100"/>
          <note key="48" pos="576" pan="0" len="192" vol="100"/>
          <note key="36" pos="576" pan="0" len="192" vol="100"/>
          <note key="72" pos="624" pan="0" len="72" vol="100"/>
          <note key="73" pos="696" pan="0" len="48" vol="100"/>
          <note key="72" pos="744" pan="0" len="48" vol="100"/>
          <note key="58" pos="768" pan="0" len="192" vol="100"/>
          <note key="54" pos="768" pan="0" len="192" vol="100"/>
          <note key="35" pos="768" pan="0" len="96" vol="100"/>
          <note key="73" pos="792" pan="0" len="24" vol="100"/>
          <note key="72" pos="816" pan="0" len="24" vol="100"/>
          <note key="70" pos="840" pan="0" len="48" vol="100"/>
          <note key="34" pos="864" pan="0" len="96" vol="100"/>
          <note key="68" pos="888" pan="0" len="24" vol="100"/>
          <note key="66" pos="912" pan="0" len="48" vol="100"/>
        </midiclip>
        <midiclip name="" pos="22272" muted="0" type="1" steps="16">
          <note key="88" pos="0" pan="0" len="48" vol="100"/>
          <note key="52" pos="0" pan="0" len="96" vol="100"/>
          <note key="45" pos="0" pan="0" len="192" vol="100"/>
          <note key="81" pos="48" pan="0" len="48" vol="100"/>
          <note key="72" pos="48" pan="0" len="48" vol="100"/>
          <note key="69" pos="48" pan="0" len="96" vol="100"/>
          <note key="40" pos="48" pan="0" len="144" vol="100"/>
          <note key="81" pos="96" pan="0" len="48" vol="100"/>
          <note key="76" pos="96" pan="0" len="96" vol="100"/>
          <note key="72" pos="96" pan="0" len="48" vol="100"/>
          <note key="52" pos="96" pan="0" len="96" vol="100"/>
          <note key="88" pos="144" pan="0" len="48" vol="100"/>
          <note key="72" pos="144" pan="0" len="48" vol="100"/>
          <note key="69" pos="144" pan="0" len="48" vol="100"/>
          <note key="57" pos="144" pan="0" len="48" vol="100"/>
          <note key="87" pos="192" pan="0" len="48" vol="100"/>
          <note key="54" pos="192" pan="0" len="96" vol="100"/>
          <note key="47" pos="192" pan="0" len="192" vol="100"/>
          <note key="81" pos="240" pan="0" len="48" vol="100"/>
          <note key="71" pos="240" pan="0" len="48" vol="100"/>
          <note key="66" pos="240" pan="0" len="96" vol="100"/>
          <note key="42" pos="240" pan="0" len="144" vol="100"/>
          <note key="81" pos="288" pan="0" len="48" vol="100"/>
          <note key="75" pos="288" pan="0" len="96" vol="100"/>
          <note key="71" pos="288" pan="0" len="48" vol="100"/>
          <note key="54" pos="288" pan="0" len="96" vol="100"/>
          <note key="87" pos="336" pan="0" len="48" vol="100"/>
          <note key="71" pos="336" pan="0" len="48" vol="100"/>
          <note key="66" pos="336" pan="0" len="48" vol="100"/>
          <note key="59" pos="336" pan="0" len="48" vol="100"/>
          <note key="88" pos="384" pan="0" len="48" vol="100"/>
          <note key="45" pos="384" pan="0" len="192" vol="100"/>
          <note key="41" pos="384" pan="0" len="192" vol="100"/>
          <note key="81" pos="432" pan="0" len="48" vol="100"/>
          <note key="72" pos="432" pan="0" len="48" vol="100"/>
          <note key="69" pos="432" pan="0" len="96" vol="100"/>
          <note key="48" pos="432" pan="0" len="144" vol="100"/>
          <note key="81" pos="480" pan="0" len="48" vol="100"/>
          <note key="77" pos="480" pan="0" len="96" vol="100"/>
          <note key="72" pos="480" pan="0" len="48" vol="100"/>
          <note key="52" pos="480" pan="0" len="96" vol="100"/>
          <note key="88" pos="528" pan="0" len="48" vol="100"/>
          <note key="72" pos="528" pan="0" len="48" vol="100"/>
          <note key="69" pos="528" pan="0" len="48" vol="100"/>
          <note key="55" pos="528" pan="0" len="48" vol="100"/>
          <note key="90" pos="576" pan="0" len="24" vol="100"/>
          <note key="51" pos="576" pan="0" len="192" vol="100"/>
          <note key="47" pos="576" pan="0" len="192" vol="100"/>
          <note key="91" pos="600" pan="0" len="24" vol="100"/>
          <note key="90" pos="624" pan="0" len="24" vol="100"/>
          <note key="75" pos="624" pan="0" len="144" vol="100"/>
          <note key="71" pos="624" pan="0" len="96" vol="100"/>
          <note key="42" pos="624" pan="0" len="144" vol="100"/>
          <note key="91" pos="648" pan="0" len="24" vol="100"/>
          <note key="88" pos="672" pan="0" len="24" vol="100"/>
          <note key="78" pos="672" pan="0" len="96" vol="100"/>
          <note key="74" pos="672" pan="0" len="96" vol="100"/>
          <note key="54" pos="672" pan="0" len="96" vol="100"/>
          <note key="90" pos="696" pan="0" len="24" vol="100"/>
          <note key="88" pos="720" pan="0" len="24" vol="100"/>
          <note key="76" pos="720" pan="0" len="48" vol="100"/>
          <note key="71" pos="720" pan="0" len="48" vol="100"/>
          <note key="53" pos="720" pan="0" len="48" vol="100"/>
          <note key="86" pos="744" pan="0" len="24" vol="100"/>
          <note key="83" pos="768" pan="0" len="48" vol="100"/>
          <note key="52" pos="768" pan="0" len="192" vol="100"/>
          <note key="47" pos="768" pan="0" len="192" vol="100"/>
          <note key="81" pos="816" pan="0" len="48" vol="100"/>
          <note key="69" pos="816" pan="0" len="48" vol="100"/>
          <note key="67" pos="816" pan="0" len="144" vol="100"/>
          <note key="40" pos="816" pan="0" len="144" vol="100"/>
          <note key="79" pos="864" pan="0" len="48" vol="100"/>
          <note key="71" pos="864" pan="0" len="96" vol="100"/>
          <note key="69" pos="864" pan="0" len="96" vol="100"/>
          <note key="55" pos="864" pan="0" len="96" vol="100"/>
          <note key="83" pos="912" pan="0" len="48" vol="100"/>
          <note key="57" pos="912" pan="0" len="48" vol="100"/>
          <note key="81" pos="960" pan="0" len="48" vol="100"/>
          <note key="50" pos="960" pan="0" len="192" vol="100"/>
          <note key="43" pos="960" pan="0" len="144" vol="100"/>
          <note key="79" pos="1008" pan="0" len="48" vol="100"/>
          <note key="64" pos="1008" pan="0" len="48" vol="100"/>
          <note key="62" pos="1008" pan="0" len="144" vol="100"/>
          <note key="38" pos="1008" pan="0" len="144" vol="100"/>
          <note key="76" pos="1056" pan="0" len="48" vol="100"/>
          <note key="67" pos="1056" pan="0" len="96" vol="100"/>
          <note key="64" pos="1056" pan="0" len="96" vol="100"/>
          <note key="52" pos="1056" pan="0" len="96" vol="100"/>
          <note key="74" pos="1104" pan="0" len="48" vol="100"/>
          <note key="43" pos="1104" pan="0" len="48" vol="100"/>
          <note key="36" pos="1104" pan="0" len="48" vol="100"/>
          <note key="73" pos="1152" pan="0" len="48" vol="100"/>
          <note key="45" pos="1152" pan="0" len="192" vol="100"/>
          <note key="40" pos="1152" pan="0" len="192" vol="100"/>
          <note key="81" pos="1200" pan="0" len="48" vol="100"/>
          <note key="61" pos="1200" pan="0" len="48" vol="100"/>
          <note key="57" pos="1200" pan="0" len="96" vol="100"/>
          <note key="37" pos="1200" pan="0" len="144" vol="100"/>
          <note key="76" pos="1248" pan="0" len="48" vol="100"/>
          <note key="64" pos="1248" pan="0" len="96" vol="100"/>
          <note key="61" pos="1248" pan="0" len="48" vol="100"/>
          <note key="49" pos="1248" pan="0" len="96" vol="100"/>
          <note key="81" pos="1296" pan="0" len="48" vol="100"/>
          <note key="61" pos="1296" pan="0" len="48" vol="100"/>
          <note key="57" pos="1296" pan="0" len="48" vol="100"/>
          <note key="52" pos="1296" pan="0" len="48" vol="100"/>
          <note key="83" pos="1344" pan="0" len="192" vol="100"/>
          <note key="63" pos="1344" pan="0" len="192" vol="100"/>
          <note key="59" pos="1344" pan="0" len="192" vol="100"/>
          <note key="51" pos="1344" pan="0" len="192" vol="100"/>
          <note key="42" pos="1344" pan="0" len="192" vol="100"/>
          <note key="35" pos="1344" pan="0" len="192" vol="100"/>
        </midiclip>
        <midiclip name="" pos="4224" muted="0" type="1" steps="16">
          <note key="69" pos="0" pan="0" len="48" vol="100"/>
          <note key="64" pos="0" pan="0" len="48" vol="100"/>
          <note key="45" pos="0" pan="0" len="192" vol="100"/>
          <note key="33" pos="0" pan="0" len="192" vol="100"/>
          <note key="48" pos="24" pan="0" len="168" vol="100"/>
          <note key="69" pos="48" pan="0" len="24" vol="100"/>
          <note key="64" pos="48" pan="0" len="24" vol="100"/>
          <note key="52" pos="48" pan="0" len="144" vol="100"/>
          <note key="69" pos="72" pan="0" len="48" vol="100"/>
          <note key="64" pos="72" pan="0" len="48" vol="100"/>
          <note key="57" pos="72" pan="0" len="120" vol="100"/>
          <note key="76" pos="120" pan="0" len="48" vol="100"/>
          <note key="72" pos="120" pan="0" len="48" vol="100"/>
          <note key="76" pos="168" pan="0" len="48" vol="100"/>
          <note key="72" pos="168" pan="0" len="48" vol="100"/>
          <note key="43" pos="192" pan="0" len="192" vol="100"/>
          <note key="31" pos="192" pan="0" len="192" vol="100"/>
          <note key="74" pos="216" pan="0" len="48" vol="100"/>
          <note key="71" pos="216" pan="0" len="48" vol="100"/>
          <note key="47" pos="216" pan="0" len="168" vol="100"/>
          <note key="52" pos="240" pan="0" len="144" vol="100"/>
          <note key="74" pos="264" pan="0" len="48" vol="100"/>
          <note key="71" pos="264" pan="0" len="48" vol="100"/>
          <note key="55" pos="264" pan="0" len="120" vol="100"/>
          <note key="72" pos="312" pan="0" len="24" vol="100"/>
          <note key="69" pos="312" pan="0" len="24" vol="100"/>
          <note key="71" pos="336" pan="0" len="24" vol="100"/>
          <note key="67" pos="336" pan="0" len="24" vol="100"/>
          <note key="69" pos="360" pan="0" len="48" vol="100"/>
          <note key="65" pos="360" pan="0" len="48" vol="100"/>
          <note key="41" pos="384" pan="0" len="192" vol="100"/>
          <note key="36" pos="384" pan="0" len="192" vol="100"/>
          <note key="69" pos="408" pan="0" len="24" vol="100"/>
          <note key="65" pos="408" pan="0" len="24" vol="100"/>
          <note key="45" pos="408" pan="0" len="168" vol="100"/>
          <note key="69" pos="432" pan="0" len="24" vol="100"/>
          <note key="65" pos="432" pan="0" len="24" vol="100"/>
          <note key="48" pos="432" pan="0" len="144" vol="100"/>
          <note key="69" pos="456" pan="0" len="48" vol="100"/>
          <note key="65" pos="456" pan="0" len="48" vol="100"/>
          <note key="53" pos="456" pan="0" len="120" vol="100"/>
          <note key="69" pos="504" pan="0" len="24" vol="100"/>
          <note key="65" pos="504" pan="0" len="24" vol="100"/>
          <note key="71" pos="528" pan="0" len="24" vol="100"/>
          <note key="67" pos="528" pan="0" len="24" vol="100"/>
          <note key="72" pos="552" pan="0" len="144" vol="100"/>
          <note key="69" pos="552" pan="0" len="144" vol="100"/>
          <note key="41" pos="576" pan="0" len="192" vol="100"/>
          <note key="38" pos="576" pan="0" len="192" vol="100"/>
          <note key="45" pos="612" pan="0" len="156" vol="100"/>
          <note key="53" pos="648" pan="0" len="120" vol="100"/>
          <note key="64" pos="696" pan="0" len="24" vol="100"/>
          <note key="59" pos="696" pan="0" len="24" vol="100"/>
          <note key="31" pos="696" pan="0" len="72" vol="100"/>
          <note key="64" pos="720" pan="0" len="24" vol="100"/>
          <note key="60" pos="720" pan="0" len="24" vol="100"/>
          <note key="67" pos="744" pan="0" len="24" vol="100"/>
          <note key="62" pos="744" pan="0" len="24" vol="100"/>
          <note key="69" pos="768" pan="0" len="48" vol="100"/>
          <note key="64" pos="768" pan="0" len="48" vol="100"/>
          <note key="45" pos="768" pan="0" len="192" vol="100"/>
          <note key="33" pos="768" pan="0" len="192" vol="100"/>
          <note key="48" pos="792" pan="0" len="168" vol="100"/>
          <note key="69" pos="816" pan="0" len="24" vol="100"/>
          <note key="64" pos="816" pan="0" len="24" vol="100"/>
          <note key="52" pos="816" pan="0" len="144" vol="100"/>
          <note key="69" pos="840" pan="0" len="48" vol="100"/>
          <note key="64" pos="840" pan="0" len="48" vol="100"/>
          <note key="57" pos="840" pan="0" len="120" vol="100"/>
          <note key="76" pos="888" pan="0" len="48" vol="100"/>
          <note key="72" pos="888" pan="0" len="48" vol="100"/>
          <note key="76" pos="936" pan="0" len="48" vol="100"/>
          <note key="72" pos="936" pan="0" len="48" vol="100"/>
          <note key="43" pos="960" pan="0" len="192" vol="100"/>
          <note key="31" pos="960" pan="0" len="192" vol="100"/>
          <note key="77" pos="984" pan="0" len="48" vol="100"/>
          <note key="74" pos="984" pan="0" len="48" vol="100"/>
          <note key="47" pos="984" pan="0" len="168" vol="100"/>
          <note key="52" pos="1008" pan="0" len="144" vol="100"/>
          <note key="74" pos="1032" pan="0" len="48" vol="100"/>
          <note key="71" pos="1032" pan="0" len="48" vol="100"/>
          <note key="55" pos="1032" pan="0" len="120" vol="100"/>
          <note key="72" pos="1080" pan="0" len="24" vol="100"/>
          <note key="69" pos="1080" pan="0" len="24" vol="100"/>
          <note key="71" pos="1104" pan="0" len="24" vol="100"/>
          <note key="67" pos="1104" pan="0" len="24" vol="100"/>
          <note key="69" pos="1128" pan="0" len="48" vol="100"/>
          <note key="65" pos="1128" pan="0" len="48" vol="100"/>
          <note key="41" pos="1152" pan="0" len="192" vol="100"/>
          <note key="36" pos="1152" pan="0" len="192" vol="100"/>
          <note key="69" pos="1176" pan="0" len="24" vol="100"/>
          <note key="65" pos="1176" pan="0" len="24" vol="100"/>
          <note key="45" pos="1176" pan="0" len="168" vol="100"/>
          <note key="69" pos="1200" pan="0" len="24" vol="100"/>
          <note key="65" pos="1200" pan="0" len="24" vol="100"/>
          <note key="48" pos="1200" pan="0" len="144" vol="100"/>
          <note key="69" pos="1224" pan="0" len="48" vol="100"/>
          <note key="65" pos="1224" pan="0" len="48" vol="100"/>
          <note key="53" pos="1224" pan="0" len="120" vol="100"/>
          <note key="69" pos="1272" pan="0" len="24" vol="100"/>
          <note key="65" pos="1272" pan="0" len="24" vol="100"/>
          <note key="71" pos="1296" pan="0" len="24" vol="100"/>
          <note key="67" pos="1296" pan="0" len="24" vol="100"/>
          <note key="72" pos="1320" pan="0" len="144" vol="100"/>
          <note key="69" pos="1320" pan="0" len="144" vol="100"/>
          <note key="41" pos="1344" pan="0" len="192" vol="100"/>
          <note key="38" pos="1344" pan="0" len="192" vol="100"/>
          <note key="45" pos="1380" pan="0" len="156" vol="100"/>
          <note key="53" pos="1416" pan="0" len="120" vol="100"/>
          <note key="31" pos="1464" pan="0" len="72" vol="100"/>
          <note key="67" pos="1488" pan="0" len="48" vol="100"/>
        </midiclip>
        <midiclip name="" pos="16512" muted="0" type="1" steps="16">
          <note key="62" pos="144" pan="0" len="24" vol="100"/>
          <note key="64" pos="168" pan="0" len="24" vol="100"/>
          <note key="65" pos="192" pan="0" len="72" vol="100"/>
          <note key="62" pos="192" pan="0" len="72" vol="100"/>
          <note key="57" pos="192" pan="0" len="72" vol="100"/>
          <note key="38" pos="192" pan="0" len="24" vol="100"/>
          <note key="33" pos="216" pan="0" len="24" vol="100"/>
          <note key="69" pos="240" pan="0" len="24" vol="100"/>
          <note key="38" pos="240" pan="0" len="24" vol="100"/>
          <note key="67" pos="264" pan="0" len="96" vol="100"/>
          <note key="62" pos="264" pan="0" len="48" vol="100"/>
          <note key="59" pos="264" pan="0" len="96" vol="100"/>
          <note key="43" pos="264" pan="0" len="48" vol="100"/>
          <note key="62" pos="312" pan="0" len="48" vol="100"/>
          <note key="40" pos="312" pan="0" len="24" vol="100"/>
          <note key="38" pos="336" pan="0" len="24" vol="100"/>
          <note key="59" pos="360" pan="0" len="96" vol="100"/>
          <note key="55" pos="360" pan="0" len="48" vol="100"/>
          <note key="50" pos="360" pan="0" len="96" vol="100"/>
          <note key="35" pos="360" pan="0" len="48" vol="100"/>
          <note key="55" pos="408" pan="0" len="48" vol="100"/>
          <note key="31" pos="408" pan="0" len="24" vol="100"/>
          <note key="67" pos="432" pan="0" len="24" vol="100"/>
          <note key="35" pos="432" pan="0" len="24" vol="100"/>
          <note key="65" pos="456" pan="0" len="120" vol="100"/>
          <note key="62" pos="456" pan="0" len="72" vol="100"/>
          <note key="57" pos="456" pan="0" len="120" vol="100"/>
          <note key="41" pos="456" pan="0" len="48" vol="100"/>
          <note key="40" pos="504" pan="0" len="24" vol="100"/>
          <note key="62" pos="528" pan="0" len="48" vol="100"/>
          <note key="38" pos="528" pan="0" len="24" vol="100"/>
          <note key="64" pos="552" pan="0" len="24" vol="100"/>
          <note key="36" pos="552" pan="0" len="24" vol="100"/>
          <note key="65" pos="576" pan="0" len="72" vol="100"/>
          <note key="62" pos="576" pan="0" len="72" vol="100"/>
          <note key="60" pos="576" pan="0" len="72" vol="100"/>
          <note key="57" pos="576" pan="0" len="72" vol="100"/>
          <note key="38" pos="576" pan="0" len="24" vol="100"/>
          <note key="33" pos="600" pan="0" len="24" vol="100"/>
          <note key="69" pos="624" pan="0" len="24" vol="100"/>
          <note key="38" pos="624" pan="0" len="24" vol="100"/>
          <note key="67" pos="648" pan="0" len="96" vol="100"/>
          <note key="62" pos="648" pan="0" len="48" vol="100"/>
          <note key="59" pos="648" pan="0" len="96" vol="100"/>
          <note key="43" pos="648" pan="0" len="48" vol="100"/>
          <note key="62" pos="696" pan="0" len="48" vol="100"/>
          <note key="38" pos="696" pan="0" len="48" vol="100"/>
          <note key="35" pos="720" pan="0" len="24" vol="100"/>
          <note key="71" pos="744" pan="0" len="72" vol="100"/>
          <note key="67" pos="744" pan="0" len="96" vol="100"/>
          <note key="64" pos="744" pan="0" len="96" vol="100"/>
          <note key="62" pos="744" pan="0" len="96" vol="100"/>
          <note key="47" pos="744" pan="0" len="48" vol="100"/>
          <note key="72" pos="792" pan="0" len="48" vol="100"/>
          <note key="45" pos="792" pan="0" len="24" vol="100"/>
          <note key="71" pos="816" pan="0" len="24" vol="100"/>
          <note key="43" pos="816" pan="0" len="24" vol="100"/>
          <note key="69" pos="840" pan="0" len="72" vol="100"/>
          <note key="65" pos="840" pan="0" len="72" vol="100"/>
          <note key="62" pos="840" pan="0" len="72" vol="100"/>
          <note key="45" pos="840" pan="0" len="48" vol="100"/>
          <note key="43" pos="888" pan="0" len="24" vol="100"/>
          <note key="69" pos="912" pan="0" len="24" vol="100"/>
          <note key="65" pos="912" pan="0" len="24" vol="100"/>
          <note key="62" pos="912" pan="0" len="24" vol="100"/>
          <note key="41" pos="912" pan="0" len="24" vol="100"/>
          <note key="67" pos="936" pan="0" len="24" vol="100"/>
          <note key="64" pos="936" pan="0" len="24" vol="100"/>
          <note key="60" pos="936" pan="0" len="24" vol="100"/>
          <note key="40" pos="936" pan="0" len="24" vol="100"/>
          <note key="65" pos="960" pan="0" len="72" vol="100"/>
          <note key="62" pos="960" pan="0" len="72" vol="100"/>
          <note key="57" pos="960" pan="0" len="72" vol="100"/>
          <note key="38" pos="960" pan="0" len="24" vol="100"/>
          <note key="33" pos="984" pan="0" len="24" vol="100"/>
          <note key="69" pos="1008" pan="0" len="24" vol="100"/>
          <note key="38" pos="1008" pan="0" len="24" vol="100"/>
          <note key="67" pos="1032" pan="0" len="96" vol="100"/>
          <note key="62" pos="1032" pan="0" len="48" vol="100"/>
          <note key="59" pos="1032" pan="0" len="96" vol="100"/>
          <note key="43" pos="1032" pan="0" len="48" vol="100"/>
          <note key="62" pos="1080" pan="0" len="48" vol="100"/>
          <note key="40" pos="1080" pan="0" len="24" vol="100"/>
          <note key="38" pos="1104" pan="0" len="24" vol="100"/>
          <note key="65" pos="1128" pan="0" len="96" vol="100"/>
          <note key="60" pos="1128" pan="0" len="72" vol="100"/>
          <note key="57" pos="1128" pan="0" len="96" vol="100"/>
          <note key="36" pos="1128" pan="0" len="48" vol="100"/>
          <note key="62" pos="1176" pan="0" len="48" vol="100"/>
          <note key="31" pos="1176" pan="0" len="24" vol="100"/>
          <note key="60" pos="1200" pan="0" len="24" vol="100"/>
          <note key="36" pos="1200" pan="0" len="24" vol="100"/>
          <note key="62" pos="1224" pan="0" len="48" vol="100"/>
          <note key="59" pos="1224" pan="0" len="48" vol="100"/>
          <note key="55" pos="1224" pan="0" len="48" vol="100"/>
          <note key="40" pos="1224" pan="0" len="48" vol="100"/>
          <note key="61" pos="1296" pan="0" len="48" vol="100"/>
          <note key="58" pos="1296" pan="0" len="48" vol="100"/>
          <note key="57" pos="1296" pan="0" len="48" vol="100"/>
          <note key="55" pos="1296" pan="0" len="48" vol="100"/>
          <note key="39" pos="1296" pan="0" len="48" vol="100"/>
          <note key="62" pos="1344" pan="0" len="72" vol="100"/>
          <note key="60" pos="1344" pan="0" len="72" vol="100"/>
          <note key="57" pos="1344" pan="0" len="72" vol="100"/>
          <note key="53" pos="1344" pan="0" len="72" vol="100"/>
          <note key="45" pos="1344" pan="0" len="24" vol="100"/>
          <note key="38" pos="1368" pan="0" len="24" vol="100"/>
          <note key="65" pos="1392" pan="0" len="24" vol="100"/>
          <note key="45" pos="1392" pan="0" len="24" vol="100"/>
          <note key="62" pos="1416" pan="0" len="96" vol="100"/>
          <note key="59" pos="1416" pan="0" len="96" vol="100"/>
          <note key="55" pos="1416" pan="0" len="96" vol="100"/>
          <note key="43" pos="1416" pan="0" len="48" vol="100"/>
          <note key="69" pos="1464" pan="0" len="48" vol="100"/>
          <note key="38" pos="1464" pan="0" len="24" vol="100"/>
          <note key="35" pos="1488" pan="0" len="24" vol="100"/>
          <note key="67" pos="1512" pan="0" len="72" vol="100"/>
          <note key="64" pos="1512" pan="0" len="96" vol="100"/>
          <note key="62" pos="1512" pan="0" len="96" vol="100"/>
          <note key="59" pos="1512" pan="0" len="96" vol="100"/>
          <note key="43" pos="1512" pan="0" len="48" vol="100"/>
          <note key="69" pos="1560" pan="0" len="48" vol="100"/>
          <note key="41" pos="1560" pan="0" len="24" vol="100"/>
          <note key="67" pos="1584" pan="0" len="24" vol="100"/>
          <note key="40" pos="1584" pan="0" len="24" vol="100"/>
          <note key="65" pos="1608" pan="0" len="120" vol="100"/>
          <note key="62" pos="1608" pan="0" len="120" vol="100"/>
          <note key="57" pos="1608" pan="0" len="120" vol="100"/>
          <note key="38" pos="1608" pan="0" len="48" vol="100"/>
          <note key="36" pos="1656" pan="0" len="24" vol="100"/>
          <note key="38" pos="1680" pan="0" len="24" vol="100"/>
          <note key="45" pos="1704" pan="0" len="24" vol="100"/>
          <note key="65" pos="1728" pan="0" len="72" vol="100"/>
          <note key="60" pos="1728" pan="0" len="72" vol="100"/>
          <note key="56" pos="1728" pan="0" len="72" vol="100"/>
          <note key="53" pos="1728" pan="0" len="24" vol="100"/>
          <note key="48" pos="1752" pan="0" len="24" vol="100"/>
          <note key="53" pos="1776" pan="0" len="24" vol="100"/>
          <note key="68" pos="1800" pan="0" len="120" vol="100"/>
          <note key="65" pos="1800" pan="0" len="120" vol="100"/>
          <note key="61" pos="1800" pan="0" len="120" vol="100"/>
          <note key="49" pos="1800" pan="0" len="48" vol="100"/>
          <note key="41" pos="1848" pan="0" len="24" vol="100"/>
          <note key="44" pos="1872" pan="0" len="24" vol="100"/>
          <note key="49" pos="1896" pan="0" len="24" vol="100"/>
          <note key="67" pos="1920" pan="0" len="72" vol="100"/>
          <note key="63" pos="1920" pan="0" len="72" vol="100"/>
          <note key="60" pos="1920" pan="0" len="72" vol="100"/>
          <note key="51" pos="1920" pan="0" len="24" vol="100"/>
          <note key="46" pos="1944" pan="0" len="24" vol="100"/>
          <note key="51" pos="1968" pan="0" len="24" vol="100"/>
          <note key="64" pos="1992" pan="0" len="120" vol="100"/>
          <note key="60" pos="1992" pan="0" len="120" vol="100"/>
          <note key="55" pos="1992" pan="0" len="120" vol="100"/>
          <note key="48" pos="1992" pan="0" len="48" vol="100"/>
          <note key="43" pos="2040" pan="0" len="24" vol="100"/>
          <note key="58" pos="2064" pan="0" len="48" vol="100"/>
          <note key="46" pos="2064" pan="0" len="24" vol="100"/>
          <note key="57" pos="2088" pan="0" len="24" vol="100"/>
          <note key="45" pos="2088" pan="0" len="24" vol="100"/>
          <note key="68" pos="2112" pan="0" len="72" vol="100"/>
          <note key="65" pos="2112" pan="0" len="72" vol="100"/>
          <note key="60" pos="2112" pan="0" len="72" vol="100"/>
          <note key="56" pos="2112" pan="0" len="48" vol="100"/>
          <note key="44" pos="2112" pan="0" len="24" vol="100"/>
          <note key="53" pos="2136" pan="0" len="48" vol="100"/>
          <note key="41" pos="2136" pan="0" len="24" vol="100"/>
          <note key="56" pos="2160" pan="0" len="24" vol="100"/>
          <note key="48" pos="2160" pan="0" len="24" vol="100"/>
          <note key="74" pos="2184" pan="0" len="120" vol="100"/>
          <note key="70" pos="2184" pan="0" len="120" vol="100"/>
          <note key="65" pos="2184" pan="0" len="120" vol="100"/>
          <note key="62" pos="2184" pan="0" len="120" vol="100"/>
          <note key="34" pos="2184" pan="0" len="48" vol="100"/>
          <note key="58" pos="2232" pan="0" len="72" vol="100"/>
          <note key="41" pos="2232" pan="0" len="24" vol="100"/>
          <note key="53" pos="2256" pan="0" len="24" vol="100"/>
          <note key="52" pos="2280" pan="0" len="24" vol="100"/>
          <note key="77" pos="2304" pan="0" len="72" vol="100"/>
          <note key="74" pos="2304" pan="0" len="72" vol="100"/>
          <note key="70" pos="2304" pan="0" len="72" vol="100"/>
          <note key="65" pos="2304" pan="0" len="72" vol="100"/>
          <note key="38" pos="2304" pan="0" len="24" vol="100"/>
          <note key="63" pos="2328" pan="0" len="48" vol="100"/>
          <note key="34" pos="2328" pan="0" len="24" vol="100"/>
          <note key="62" pos="2352" pan="0" len="24" vol="100"/>
          <note key="46" pos="2352" pan="0" len="24" vol="100"/>
          <note key="72" pos="2376" pan="0" len="48" vol="100"/>
          <note key="68" pos="2376" pan="0" len="48" vol="100"/>
          <note key="65" pos="2376" pan="0" len="48" vol="100"/>
          <note key="60" pos="2376" pan="0" len="48" vol="100"/>
          <note key="44" pos="2376" pan="0" len="48" vol="100"/>
          <note key="68" pos="2424" pan="0" len="24" vol="100"/>
          <note key="65" pos="2424" pan="0" len="24" vol="100"/>
          <note key="60" pos="2424" pan="0" len="24" vol="100"/>
          <note key="43" pos="2424" pan="0" len="24" vol="100"/>
          <note key="65" pos="2448" pan="0" len="12" vol="100"/>
          <note key="60" pos="2448" pan="0" len="12" vol="100"/>
          <note key="56" pos="2448" pan="0" len="12" vol="100"/>
          <note key="42" pos="2448" pan="0" len="12" vol="100"/>
          <note key="60" pos="2472" pan="0" len="24" vol="100"/>
          <note key="56" pos="2472" pan="0" len="24" vol="100"/>
          <note key="53" pos="2472" pan="0" len="24" vol="100"/>
          <note key="41" pos="2472" pan="0" len="24" vol="100"/>
          <note key="65" pos="2496" pan="0" len="72" vol="100"/>
          <note key="60" pos="2496" pan="0" len="72" vol="100"/>
          <note key="56" pos="2496" pan="0" len="72" vol="100"/>
          <note key="53" pos="2496" pan="0" len="24" vol="100"/>
          <note key="48" pos="2520" pan="0" len="24" vol="100"/>
          <note key="53" pos="2544" pan="0" len="24" vol="100"/>
          <note key="68" pos="2568" pan="0" len="120" vol="100"/>
          <note key="65" pos="2568" pan="0" len="120" vol="100"/>
          <note key="61" pos="2568" pan="0" len="120" vol="100"/>
          <note key="49" pos="2568" pan="0" len="48" vol="100"/>
          <note key="46" pos="2616" pan="0" len="24" vol="100"/>
          <note key="44" pos="2640" pan="0" len="24" vol="100"/>
          <note key="49" pos="2664" pan="0" len="24" vol="100"/>
          <note key="70" pos="2688" pan="0" len="72" vol="100"/>
          <note key="67" pos="2688" pan="0" len="72" vol="100"/>
          <note key="63" pos="2688" pan="0" len="72" vol="100"/>
          <note key="51" pos="2688" pan="0" len="24" vol="100"/>
          <note key="46" pos="2712" pan="0" len="24" vol="100"/>
          <note key="51" pos="2736" pan="0" len="24" vol="100"/>
          <note key="72" pos="2760" pan="0" len="72" vol="100"/>
          <note key="68" pos="2760" pan="0" len="72" vol="100"/>
          <note key="64" pos="2760" pan="0" len="72" vol="100"/>
          <note key="60" pos="2760" pan="0" len="72" vol="100"/>
          <note key="52" pos="2760" pan="0" len="48" vol="100"/>
          <note key="36" pos="2808" pan="0" len="24" vol="100"/>
          <note key="70" pos="2832" pan="0" len="48" vol="100"/>
          <note key="67" pos="2832" pan="0" len="48" vol="100"/>
          <note key="65" pos="2832" pan="0" len="48" vol="100"/>
          <note key="62" pos="2832" pan="0" len="48" vol="100"/>
          <note key="43" pos="2832" pan="0" len="24" vol="100"/>
          <note key="66" pos="2856" pan="0" len="24" vol="100"/>
          <note key="42" pos="2856" pan="0" len="24" vol="100"/>
          <note key="72" pos="2880" pan="0" len="48" vol="100"/>
          <note key="68" pos="2880" pan="0" len="48" vol="100"/>
          <note key="65" pos="2880" pan="0" len="48" vol="100"/>
          <note key="63" pos="2880" pan="0" len="48" vol="100"/>
          <note key="41" pos="2880" pan="0" len="24" vol="100"/>
          <note key="36" pos="2904" pan="0" len="24" vol="100"/>
          <note key="72" pos="2928" pan="0" len="12" vol="100"/>
          <note key="68" pos="2928" pan="0" len="12" vol="100"/>
          <note key="65" pos="2928" pan="0" len="12" vol="100"/>
          <note key="39" pos="2928" pan="0" len="12" vol="100"/>
          <note key="70" pos="2952" pan="0" len="48" vol="100"/>
          <note key="67" pos="2952" pan="0" len="48" vol="100"/>
          <note key="65" pos="2952" pan="0" len="48" vol="100"/>
          <note key="62" pos="2952" pan="0" len="48" vol="100"/>
          <note key="38" pos="2952" pan="0" len="48" vol="100"/>
          <note key="74" pos="3000" pan="0" len="72" vol="100"/>
          <note key="70" pos="3000" pan="0" len="72" vol="100"/>
          <note key="68" pos="3000" pan="0" len="72" vol="100"/>
          <note key="65" pos="3000" pan="0" len="72" vol="100"/>
          <note key="46" pos="3000" pan="0" len="48" vol="100"/>
          <note key="36" pos="3048" pan="0" len="24" vol="100"/>
          <note key="74" pos="3072" pan="0" len="24" vol="100"/>
          <note key="70" pos="3072" pan="0" len="24" vol="100"/>
          <note key="68" pos="3072" pan="0" len="60" vol="100"/>
          <note key="65" pos="3072" pan="0" len="60" vol="100"/>
          <note key="38" pos="3072" pan="0" len="24" vol="100"/>
          <note key="74" pos="3096" pan="0" len="12" vol="100"/>
          <note key="70" pos="3096" pan="0" len="12" vol="100"/>
          <note key="34" pos="3096" pan="0" len="24" vol="100"/>
          <note key="74" pos="3108" pan="0" len="12" vol="100"/>
          <note key="70" pos="3108" pan="0" len="12" vol="100"/>
          <note key="74" pos="3120" pan="0" len="12" vol="100"/>
          <note key="70" pos="3120" pan="0" len="12" vol="100"/>
          <note key="46" pos="3120" pan="0" len="12" vol="100"/>
          <note key="72" pos="3144" pan="0" len="24" vol="100"/>
          <note key="68" pos="3144" pan="0" len="24" vol="100"/>
          <note key="65" pos="3144" pan="0" len="72" vol="100"/>
          <note key="44" pos="3144" pan="0" len="48" vol="100"/>
          <note key="72" pos="3168" pan="0" len="12" vol="100"/>
          <note key="68" pos="3168" pan="0" len="12" vol="100"/>
          <note key="72" pos="3180" pan="0" len="12" vol="100"/>
          <note key="68" pos="3180" pan="0" len="12" vol="100"/>
          <note key="72" pos="3192" pan="0" len="24" vol="100"/>
          <note key="68" pos="3192" pan="0" len="24" vol="100"/>
          <note key="41" pos="3192" pan="0" len="48" vol="100"/>
          <note key="68" pos="3216" pan="0" len="24" vol="100"/>
          <note key="65" pos="3216" pan="0" len="24" vol="100"/>
          <note key="60" pos="3216" pan="0" len="24" vol="100"/>
          <note key="68" pos="3240" pan="0" len="12" vol="100"/>
          <note key="65" pos="3240" pan="0" len="12" vol="100"/>
          <note key="60" pos="3240" pan="0" len="12" vol="100"/>
          <note key="39" pos="3240" pan="0" len="24" vol="100"/>
          <note key="68" pos="3252" pan="0" len="12" vol="100"/>
          <note key="65" pos="3252" pan="0" len="12" vol="100"/>
          <note key="60" pos="3252" pan="0" len="12" vol="100"/>
          <note key="77" pos="3264" pan="0" len="384" vol="100"/>
          <note key="72" pos="3264" pan="0" len="384" vol="100"/>
          <note key="68" pos="3264" pan="0" len="384" vol="100"/>
          <note key="41" pos="3264" pan="0" len="384" vol="100"/>
          <note key="73" pos="3648" pan="0" len="384" vol="100"/>
          <note key="70" pos="3648" pan="0" len="192" vol="100"/>
          <note key="65" pos="3648" pan="0" len="288" vol="100"/>
          <note key="46" pos="3648" pan="0" len="384" vol="100"/>
          <note key="68" pos="3840" pan="0" len="96" vol="100"/>
          <note key="70" pos="3936" pan="0" len="96" vol="100"/>
          <note key="63" pos="3936" pan="0" len="48" vol="100"/>
          <note key="67" pos="3984" pan="0" len="48" vol="100"/>
          <note key="72" pos="4032" pan="0" len="288" vol="100"/>
          <note key="67" pos="4032" pan="0" len="384" vol="100"/>
          <note key="64" pos="4032" pan="0" len="288" vol="100"/>
          <note key="43" pos="4032" pan="0" len="384" vol="100"/>
          <note key="74" pos="4320" pan="0" len="48" vol="100"/>
          <note key="65" pos="4320" pan="0" len="48" vol="100"/>
          <note key="72" pos="4368" pan="0" len="48" vol="100"/>
          <note key="64" pos="4368" pan="0" len="48" vol="100"/>
          <note key="69" pos="4416" pan="0" len="384" vol="100"/>
          <note key="65" pos="4416" pan="0" len="384" vol="100"/>
          <note key="60" pos="4416" pan="0" len="384" vol="100"/>
          <note key="41" pos="4416" pan="0" len="384" vol="100"/>
        </midiclip>
        <midiclip name="" pos="31296" muted="0" type="1" steps="16">
          <note key="71" pos="120" pan="0" len="24" vol="100"/>
          <note key="71" pos="144" pan="0" len="24" vol="100"/>
          <note key="72" pos="168" pan="0" len="24" vol="100"/>
          <note key="74" pos="192" pan="0" len="48" vol="100"/>
          <note key="67" pos="192" pan="0" len="144" vol="100"/>
          <note key="62" pos="192" pan="0" len="48" vol="100"/>
          <note key="59" pos="192" pan="0" len="192" vol="100"/>
          <note key="31" pos="192" pan="0" len="36" vol="100"/>
          <note key="43" pos="228" pan="0" len="24" vol="100"/>
          <note key="74" pos="240" pan="0" len="24" vol="100"/>
          <note key="62" pos="240" pan="0" len="144" vol="100"/>
          <note key="74" pos="264" pan="0" len="48" vol="100"/>
          <note key="31" pos="264" pan="0" len="72" vol="100"/>
          <note key="83" pos="312" pan="0" len="48" vol="100"/>
          <note key="67" pos="336" pan="0" len="48" vol="100"/>
          <note key="31" pos="336" pan="0" len="24" vol="100"/>
          <note key="83" pos="360" pan="0" len="48" vol="100"/>
          <note key="43" pos="360" pan="0" len="24" vol="100"/>
          <note key="69" pos="384" pan="0" len="192" vol="100"/>
          <note key="66" pos="384" pan="0" len="48" vol="100"/>
          <note key="62" pos="384" pan="0" len="144" vol="100"/>
          <note key="35" pos="384" pan="0" len="36" vol="100"/>
          <note key="81" pos="408" pan="0" len="48" vol="100"/>
          <note key="47" pos="420" pan="0" len="24" vol="100"/>
          <note key="66" pos="432" pan="0" len="144" vol="100"/>
          <note key="81" pos="456" pan="0" len="48" vol="100"/>
          <note key="35" pos="456" pan="0" len="72" vol="100"/>
          <note key="79" pos="504" pan="0" len="24" vol="100"/>
          <note key="78" pos="528" pan="0" len="24" vol="100"/>
          <note key="62" pos="528" pan="0" len="48" vol="100"/>
          <note key="35" pos="528" pan="0" len="24" vol="100"/>
          <note key="76" pos="552" pan="0" len="48" vol="100"/>
          <note key="47" pos="552" pan="0" len="24" vol="100"/>
          <note key="64" pos="576" pan="0" len="192" vol="100"/>
          <note key="60" pos="576" pan="0" len="48" vol="100"/>
          <note key="55" pos="576" pan="0" len="144" vol="100"/>
          <note key="36" pos="576" pan="0" len="36" vol="100"/>
          <note key="76" pos="600" pan="0" len="24" vol="100"/>
          <note key="48" pos="612" pan="0" len="24" vol="100"/>
          <note key="76" pos="624" pan="0" len="24" vol="100"/>
          <note key="60" pos="624" pan="0" len="144" vol="100"/>
          <note key="76" pos="648" pan="0" len="24" vol="100"/>
          <note key="36" pos="648" pan="0" len="72" vol="100"/>
          <note key="76" pos="672" pan="0" len="24" vol="100"/>
          <note key="74" pos="696" pan="0" len="24" vol="100"/>
          <note key="78" pos="720" pan="0" len="24" vol="100"/>
          <note key="55" pos="720" pan="0" len="48" vol="100"/>
          <note key="36" pos="720" pan="0" len="24" vol="100"/>
          <note key="79" pos="744" pan="0" len="48" vol="100"/>
          <note key="48" pos="744" pan="0" len="24" vol="100"/>
          <note key="67" pos="768" pan="0" len="36" vol="100"/>
          <note key="64" pos="768" pan="0" len="36" vol="100"/>
          <note key="60" pos="768" pan="0" len="36" vol="100"/>
          <note key="38" pos="768" pan="0" len="36" vol="100"/>
          <note key="79" pos="792" pan="0" len="48" vol="100"/>
          <note key="67" pos="804" pan="0" len="36" vol="100"/>
          <note key="64" pos="804" pan="0" len="36" vol="100"/>
          <note key="60" pos="804" pan="0" len="36" vol="100"/>
          <note key="26" pos="804" pan="0" len="24" vol="100"/>
          <note key="78" pos="840" pan="0" len="48" vol="100"/>
          <note key="69" pos="840" pan="0" len="36" vol="100"/>
          <note key="66" pos="840" pan="0" len="36" vol="100"/>
          <note key="62" pos="840" pan="0" len="36" vol="100"/>
          <note key="38" pos="840" pan="0" len="36" vol="100"/>
          <note key="69" pos="876" pan="0" len="36" vol="100"/>
          <note key="66" pos="876" pan="0" len="36" vol="100"/>
          <note key="62" pos="876" pan="0" len="36" vol="100"/>
          <note key="26" pos="876" pan="0" len="24" vol="100"/>
          <note key="71" pos="888" pan="0" len="24" vol="100"/>
          <note key="71" pos="912" pan="0" len="24" vol="100"/>
          <note key="69" pos="912" pan="0" len="48" vol="100"/>
          <note key="66" pos="912" pan="0" len="48" vol="100"/>
          <note key="62" pos="912" pan="0" len="48" vol="100"/>
          <note key="26" pos="912" pan="0" len="24" vol="100"/>
          <note key="72" pos="936" pan="0" len="24" vol="100"/>
          <note key="26" pos="936" pan="0" len="24" vol="100"/>
          <note key="74" pos="960" pan="0" len="48" vol="100"/>
          <note key="67" pos="960" pan="0" len="192" vol="100"/>
          <note key="62" pos="960" pan="0" len="144" vol="100"/>
          <note key="59" pos="960" pan="0" len="48" vol="100"/>
          <note key="31" pos="960" pan="0" len="36" vol="100"/>
          <note key="43" pos="996" pan="0" len="24" vol="100"/>
          <note key="74" pos="1008" pan="0" len="24" vol="100"/>
          <note key="59" pos="1008" pan="0" len="144" vol="100"/>
          <note key="74" pos="1032" pan="0" len="48" vol="100"/>
          <note key="31" pos="1032" pan="0" len="72" vol="100"/>
          <note key="83" pos="1080" pan="0" len="48" vol="100"/>
          <note key="62" pos="1104" pan="0" len="48" vol="100"/>
          <note key="31" pos="1104" pan="0" len="24" vol="100"/>
          <note key="83" pos="1128" pan="0" len="48" vol="100"/>
          <note key="43" pos="1128" pan="0" len="24" vol="100"/>
          <note key="69" pos="1152" pan="0" len="144" vol="100"/>
          <note key="66" pos="1152" pan="0" len="48" vol="100"/>
          <note key="62" pos="1152" pan="0" len="192" vol="100"/>
          <note key="35" pos="1152" pan="0" len="36" vol="100"/>
          <note key="84" pos="1176" pan="0" len="48" vol="100"/>
          <note key="47" pos="1188" pan="0" len="24" vol="100"/>
          <note key="66" pos="1200" pan="0" len="144" vol="100"/>
          <note key="81" pos="1224" pan="0" len="48" vol="100"/>
          <note key="35" pos="1224" pan="0" len="72" vol="100"/>
          <note key="79" pos="1272" pan="0" len="24" vol="100"/>
          <note key="78" pos="1296" pan="0" len="24" vol="100"/>
          <note key="69" pos="1296" pan="0" len="48" vol="100"/>
          <note key="35" pos="1296" pan="0" len="24" vol="100"/>
          <note key="76" pos="1320" pan="0" len="48" vol="100"/>
          <note key="47" pos="1320" pan="0" len="24" vol="100"/>
          <note key="67" pos="1344" pan="0" len="192" vol="100"/>
          <note key="64" pos="1344" pan="0" len="48" vol="100"/>
          <note key="60" pos="1344" pan="0" len="144" vol="100"/>
          <note key="43" pos="1344" pan="0" len="36" vol="100"/>
          <note key="76" pos="1368" pan="0" len="24" vol="100"/>
          <note key="36" pos="1380" pan="0" len="24" vol="100"/>
          <note key="76" pos="1392" pan="0" len="24" vol="100"/>
          <note key="64" pos="1392" pan="0" len="144" vol="100"/>
          <note key="76" pos="1416" pan="0" len="48" vol="100"/>
          <note key="43" pos="1416" pan="0" len="72" vol="100"/>
          <note key="74" pos="1464" pan="0" len="24" vol="100"/>
          <note key="76" pos="1488" pan="0" len="24" vol="100"/>
          <note key="60" pos="1488" pan="0" len="48" vol="100"/>
          <note key="43" pos="1488" pan="0" len="24" vol="100"/>
          <note key="78" pos="1512" pan="0" len="72" vol="100"/>
          <note key="36" pos="1512" pan="0" len="24" vol="100"/>
          <note key="66" pos="1536" pan="0" len="144" vol="100"/>
          <note key="62" pos="1536" pan="0" len="48" vol="100"/>
          <note key="57" pos="1536" pan="0" len="144" vol="100"/>
          <note key="38" pos="1536" pan="0" len="36" vol="100"/>
          <note key="50" pos="1572" pan="0" len="24" vol="100"/>
          <note key="76" pos="1584" pan="0" len="48" vol="100"/>
          <note key="62" pos="1584" pan="0" len="96" vol="100"/>
          <note key="38" pos="1608" pan="0" len="72" vol="100"/>
          <note key="72" pos="1632" pan="0" len="48" vol="100"/>
          <note key="71" pos="1680" pan="0" len="48" vol="100"/>
          <note key="69" pos="1680" pan="0" len="48" vol="100"/>
          <note key="66" pos="1680" pan="0" len="48" vol="100"/>
          <note key="60" pos="1680" pan="0" len="48" vol="100"/>
          <note key="38" pos="1680" pan="0" len="24" vol="100"/>
          <note key="50" pos="1704" pan="0" len="24" vol="100"/>
        </midiclip>
        <midiclip name="" pos="6528" muted="0" type="1" steps="16">
          <note key="69" pos="0" pan="0" len="48" vol="100"/>
          <note key="45" pos="0" pan="0" len="192" vol="100"/>
          <note key="33" pos="0" pan="0" len="192" vol="100"/>
          <note key="48" pos="24" pan="0" len="168" vol="100"/>
          <note key="72" pos="48" pan="0" len="24" vol="100"/>
          <note key="52" pos="48" pan="0" len="144" vol="100"/>
          <note key="76" pos="72" pan="0" len="48" vol="100"/>
          <note key="57" pos="72" pan="0" len="120" vol="100"/>
          <note key="72" pos="120" pan="0" len="72" vol="100"/>
          <note key="55" pos="120" pan="0" len="72" vol="100"/>
          <note key="50" pos="168" pan="0" len="24" vol="100"/>
          <note key="79" pos="192" pan="0" len="48" vol="100"/>
          <note key="43" pos="192" pan="0" len="192" vol="100"/>
          <note key="35" pos="192" pan="0" len="192" vol="100"/>
          <note key="47" pos="216" pan="0" len="168" vol="100"/>
          <note key="78" pos="240" pan="0" len="24" vol="100"/>
          <note key="50" pos="240" pan="0" len="144" vol="100"/>
          <note key="76" pos="264" pan="0" len="72" vol="100"/>
          <note key="55" pos="264" pan="0" len="120" vol="100"/>
          <note key="57" pos="312" pan="0" len="72" vol="100"/>
          <note key="74" pos="336" pan="0" len="48" vol="100"/>
          <note key="52" pos="360" pan="0" len="24" vol="100"/>
          <note key="69" pos="384" pan="0" len="192" vol="100"/>
          <note key="45" pos="384" pan="0" len="192" vol="100"/>
          <note key="38" pos="384" pan="0" len="192" vol="100"/>
          <note key="48" pos="408" pan="0" len="168" vol="100"/>
          <note key="54" pos="432" pan="0" len="144" vol="100"/>
          <note key="57" pos="456" pan="0" len="120" vol="100"/>
          <note key="59" pos="528" pan="0" len="48" vol="100"/>
          <note key="55" pos="552" pan="0" len="24" vol="100"/>
          <note key="74" pos="576" pan="0" len="192" vol="100"/>
          <note key="45" pos="576" pan="0" len="192" vol="100"/>
          <note key="38" pos="576" pan="0" len="192" vol="100"/>
          <note key="48" pos="600" pan="0" len="168" vol="100"/>
          <note key="50" pos="624" pan="0" len="144" vol="100"/>
          <note key="54" pos="648" pan="0" len="120" vol="100"/>
          <note key="55" pos="696" pan="0" len="72" vol="100"/>
          <note key="57" pos="744" pan="0" len="24" vol="100"/>
          <note key="77" pos="768" pan="0" len="144" vol="100"/>
          <note key="41" pos="768" pan="0" len="192" vol="100"/>
          <note key="36" pos="768" pan="0" len="192" vol="100"/>
          <note key="48" pos="792" pan="0" len="168" vol="100"/>
          <note key="53" pos="816" pan="0" len="144" vol="100"/>
          <note key="57" pos="840" pan="0" len="96" vol="100"/>
          <note key="60" pos="888" pan="0" len="72" vol="100"/>
          <note key="74" pos="912" pan="0" len="48" vol="100"/>
          <note key="57" pos="936" pan="0" len="24" vol="100"/>
          <note key="76" pos="960" pan="0" len="96" vol="100"/>
          <note key="41" pos="960" pan="0" len="192" vol="100"/>
          <note key="33" pos="960" pan="0" len="192" vol="100"/>
          <note key="48" pos="984" pan="0" len="168" vol="100"/>
          <note key="53" pos="1008" pan="0" len="144" vol="100"/>
          <note key="57" pos="1032" pan="0" len="120" vol="100"/>
          <note key="74" pos="1056" pan="0" len="24" vol="100"/>
          <note key="72" pos="1080" pan="0" len="24" vol="100"/>
          <note key="71" pos="1104" pan="0" len="24" vol="100"/>
          <note key="59" pos="1104" pan="0" len="48" vol="100"/>
          <note key="69" pos="1128" pan="0" len="24" vol="100"/>
          <note key="60" pos="1128" pan="0" len="24" vol="100"/>
          <note key="71" pos="1152" pan="0" len="72" vol="100"/>
          <note key="43" pos="1152" pan="0" len="192" vol="100"/>
          <note key="35" pos="1152" pan="0" len="192" vol="100"/>
          <note key="47" pos="1176" pan="0" len="168" vol="100"/>
          <note key="50" pos="1200" pan="0" len="144" vol="100"/>
          <note key="74" pos="1224" pan="0" len="72" vol="100"/>
          <note key="55" pos="1224" pan="0" len="120" vol="100"/>
          <note key="57" pos="1272" pan="0" len="72" vol="100"/>
          <note key="67" pos="1296" pan="0" len="48" vol="100"/>
          <note key="52" pos="1320" pan="0" len="24" vol="100"/>
          <note key="66" pos="1344" pan="0" len="192" vol="100"/>
          <note key="45" pos="1344" pan="0" len="192" vol="100"/>
          <note key="38" pos="1344" pan="0" len="192" vol="100"/>
          <note key="47" pos="1368" pan="0" len="168" vol="100"/>
          <note key="50" pos="1392" pan="0" len="144" vol="100"/>
          <note key="57" pos="1416" pan="0" len="120" vol="100"/>
          <note key="64" pos="1488" pan="0" len="24" vol="100"/>
          <note key="62" pos="1512" pan="0" len="24" vol="100"/>
          <note key="65" pos="1536" pan="0" len="192" vol="100"/>
          <note key="60" pos="1536" pan="0" len="192" vol="100"/>
          <note key="57" pos="1536" pan="0" len="192" vol="100"/>
          <note key="53" pos="1536" pan="0" len="192" vol="100"/>
          <note key="48" pos="1536" pan="0" len="192" vol="100"/>
          <note key="29" pos="1536" pan="0" len="192" vol="100"/>
          <note key="67" pos="1728" pan="0" len="192" vol="100"/>
          <note key="64" pos="1728" pan="0" len="192" vol="100"/>
          <note key="60" pos="1728" pan="0" len="192" vol="100"/>
          <note key="55" pos="1728" pan="0" len="192" vol="100"/>
          <note key="52" pos="1728" pan="0" len="192" vol="100"/>
          <note key="31" pos="1728" pan="0" len="192" vol="100"/>
          <note key="69" pos="1920" pan="0" len="192" vol="100"/>
          <note key="64" pos="1920" pan="0" len="192" vol="100"/>
          <note key="60" pos="1920" pan="0" len="192" vol="100"/>
          <note key="57" pos="1920" pan="0" len="192" vol="100"/>
          <note key="52" pos="1920" pan="0" len="192" vol="100"/>
          <note key="33" pos="1920" pan="0" len="192" vol="100"/>
          <note key="71" pos="2112" pan="0" len="120" vol="100"/>
          <note key="67" pos="2112" pan="0" len="120" vol="100"/>
          <note key="62" pos="2112" pan="0" len="192" vol="100"/>
          <note key="59" pos="2112" pan="0" len="192" vol="100"/>
          <note key="55" pos="2112" pan="0" len="192" vol="100"/>
          <note key="38" pos="2112" pan="0" len="96" vol="100"/>
          <note key="35" pos="2208" pan="0" len="96" vol="100"/>
          <note key="71" pos="2232" pan="0" len="24" vol="100"/>
          <note key="67" pos="2232" pan="0" len="24" vol="100"/>
          <note key="71" pos="2256" pan="0" len="24" vol="100"/>
          <note key="67" pos="2256" pan="0" len="24" vol="100"/>
          <note key="72" pos="2280" pan="0" len="24" vol="100"/>
          <note key="69" pos="2280" pan="0" len="24" vol="100"/>
          <note key="74" pos="2304" pan="0" len="48" vol="100"/>
          <note key="71" pos="2304" pan="0" len="48" vol="100"/>
          <note key="67" pos="2304" pan="0" len="144" vol="100"/>
          <note key="62" pos="2304" pan="0" len="48" vol="100"/>
          <note key="59" pos="2304" pan="0" len="192" vol="100"/>
          <note key="31" pos="2304" pan="0" len="36" vol="100"/>
          <note key="43" pos="2340" pan="0" len="24" vol="100"/>
          <note key="74" pos="2352" pan="0" len="24" vol="100"/>
          <note key="71" pos="2352" pan="0" len="24" vol="100"/>
          <note key="62" pos="2352" pan="0" len="144" vol="100"/>
          <note key="74" pos="2376" pan="0" len="48" vol="100"/>
          <note key="71" pos="2376" pan="0" len="48" vol="100"/>
          <note key="31" pos="2376" pan="0" len="72" vol="100"/>
          <note key="83" pos="2424" pan="0" len="48" vol="100"/>
          <note key="76" pos="2424" pan="0" len="48" vol="100"/>
          <note key="67" pos="2448" pan="0" len="48" vol="100"/>
          <note key="31" pos="2448" pan="0" len="24" vol="100"/>
          <note key="83" pos="2472" pan="0" len="48" vol="100"/>
          <note key="76" pos="2472" pan="0" len="48" vol="100"/>
          <note key="43" pos="2472" pan="0" len="24" vol="100"/>
          <note key="69" pos="2496" pan="0" len="192" vol="100"/>
          <note key="66" pos="2496" pan="0" len="48" vol="100"/>
          <note key="62" pos="2496" pan="0" len="144" vol="100"/>
          <note key="35" pos="2496" pan="0" len="36" vol="100"/>
          <note key="81" pos="2520" pan="0" len="48" vol="100"/>
          <note key="74" pos="2520" pan="0" len="48" vol="100"/>
          <note key="47" pos="2532" pan="0" len="24" vol="100"/>
          <note key="66" pos="2544" pan="0" len="144" vol="100"/>
          <note key="81" pos="2568" pan="0" len="48" vol="100"/>
          <note key="74" pos="2568" pan="0" len="48" vol="100"/>
          <note key="35" pos="2568" pan="0" len="72" vol="100"/>
          <note key="79" pos="2616" pan="0" len="24" vol="100"/>
          <note key="71" pos="2616" pan="0" len="24" vol="100"/>
          <note key="78" pos="2640" pan="0" len="24" vol="100"/>
          <note key="71" pos="2640" pan="0" len="24" vol="100"/>
          <note key="62" pos="2640" pan="0" len="48" vol="100"/>
          <note key="35" pos="2640" pan="0" len="24" vol="100"/>
          <note key="76" pos="2664" pan="0" len="48" vol="100"/>
          <note key="72" pos="2664" pan="0" len="48" vol="100"/>
          <note key="47" pos="2664" pan="0" len="24" vol="100"/>
          <note key="64" pos="2688" pan="0" len="192" vol="100"/>
          <note key="60" pos="2688" pan="0" len="48" vol="100"/>
          <note key="55" pos="2688" pan="0" len="144" vol="100"/>
          <note key="36" pos="2688" pan="0" len="36" vol="100"/>
          <note key="76" pos="2712" pan="0" len="24" vol="100"/>
          <note key="72" pos="2712" pan="0" len="24" vol="100"/>
          <note key="48" pos="2724" pan="0" len="24" vol="100"/>
          <note key="76" pos="2736" pan="0" len="24" vol="100"/>
          <note key="72" pos="2736" pan="0" len="24" vol="100"/>
          <note key="60" pos="2736" pan="0" len="144" vol="100"/>
          <note key="76" pos="2760" pan="0" len="48" vol="100"/>
          <note key="72" pos="2760" pan="0" len="48" vol="100"/>
          <note key="36" pos="2760" pan="0" len="72" vol="100"/>
          <note key="76" pos="2808" pan="0" len="24" vol="100"/>
          <note key="71" pos="2808" pan="0" len="24" vol="100"/>
          <note key="78" pos="2832" pan="0" len="24" vol="100"/>
          <note key="72" pos="2832" pan="0" len="24" vol="100"/>
          <note key="55" pos="2832" pan="0" len="48" vol="100"/>
          <note key="36" pos="2832" pan="0" len="24" vol="100"/>
          <note key="79" pos="2856" pan="0" len="96" vol="100"/>
          <note key="74" pos="2856" pan="0" len="96" vol="100"/>
          <note key="48" pos="2856" pan="0" len="24" vol="100"/>
          <note key="67" pos="2880" pan="0" len="36" vol="100"/>
          <note key="64" pos="2880" pan="0" len="36" vol="100"/>
          <note key="60" pos="2880" pan="0" len="36" vol="100"/>
          <note key="38" pos="2880" pan="0" len="36" vol="100"/>
          <note key="67" pos="2916" pan="0" len="36" vol="100"/>
          <note key="64" pos="2916" pan="0" len="36" vol="100"/>
          <note key="60" pos="2916" pan="0" len="36" vol="100"/>
          <note key="26" pos="2916" pan="0" len="24" vol="100"/>
          <note key="78" pos="2952" pan="0" len="48" vol="100"/>
          <note key="74" pos="2952" pan="0" len="48" vol="100"/>
          <note key="69" pos="2952" pan="0" len="36" vol="100"/>
          <note key="66" pos="2952" pan="0" len="36" vol="100"/>
          <note key="62" pos="2952" pan="0" len="36" vol="100"/>
          <note key="38" pos="2952" pan="0" len="36" vol="100"/>
          <note key="69" pos="2988" pan="0" len="36" vol="100"/>
          <note key="66" pos="2988" pan="0" len="36" vol="100"/>
          <note key="62" pos="2988" pan="0" len="36" vol="100"/>
          <note key="26" pos="2988" pan="0" len="24" vol="100"/>
          <note key="71" pos="3000" pan="0" len="24" vol="100"/>
          <note key="71" pos="3024" pan="0" len="24" vol="100"/>
          <note key="69" pos="3024" pan="0" len="48" vol="100"/>
          <note key="66" pos="3024" pan="0" len="48" vol="100"/>
          <note key="62" pos="3024" pan="0" len="48" vol="100"/>
          <note key="26" pos="3024" pan="0" len="24" vol="100"/>
          <note key="72" pos="3048" pan="0" len="24" vol="100"/>
          <note key="26" pos="3048" pan="0" len="24" vol="100"/>
          <note key="74" pos="3072" pan="0" len="48" vol="100"/>
          <note key="71" pos="3072" pan="0" len="48" vol="100"/>
          <note key="67" pos="3072" pan="0" len="192" vol="100"/>
          <note key="62" pos="3072" pan="0" len="144" vol="100"/>
          <note key="59" pos="3072" pan="0" len="48" vol="100"/>
          <note key="31" pos="3072" pan="0" len="36" vol="100"/>
          <note key="43" pos="3108" pan="0" len="24" vol="100"/>
          <note key="74" pos="3120" pan="0" len="24" vol="100"/>
          <note key="71" pos="3120" pan="0" len="24" vol="100"/>
          <note key="59" pos="3120" pan="0" len="144" vol="100"/>
          <note key="74" pos="3144" pan="0" len="48" vol="100"/>
          <note key="71" pos="3144" pan="0" len="48" vol="100"/>
          <note key="31" pos="3144" pan="0" len="72" vol="100"/>
          <note key="83" pos="3192" pan="0" len="48" vol="100"/>
          <note key="76" pos="3192" pan="0" len="48" vol="100"/>
          <note key="62" pos="3216" pan="0" len="48" vol="100"/>
          <note key="31" pos="3216" pan="0" len="24" vol="100"/>
          <note key="83" pos="3240" pan="0" len="48" vol="100"/>
          <note key="76" pos="3240" pan="0" len="48" vol="100"/>
          <note key="43" pos="3240" pan="0" len="24" vol="100"/>
          <note key="69" pos="3264" pan="0" len="144" vol="100"/>
          <note key="66" pos="3264" pan="0" len="48" vol="100"/>
          <note key="62" pos="3264" pan="0" len="192" vol="100"/>
          <note key="35" pos="3264" pan="0" len="36" vol="100"/>
          <note key="84" pos="3288" pan="0" len="48" vol="100"/>
          <note key="78" pos="3288" pan="0" len="48" vol="100"/>
          <note key="47" pos="3300" pan="0" len="24" vol="100"/>
          <note key="66" pos="3312" pan="0" len="144" vol="100"/>
          <note key="81" pos="3336" pan="0" len="48" vol="100"/>
          <note key="74" pos="3336" pan="0" len="48" vol="100"/>
          <note key="35" pos="3336" pan="0" len="72" vol="100"/>
          <note key="79" pos="3384" pan="0" len="24" vol="100"/>
          <note key="71" pos="3384" pan="0" len="24" vol="100"/>
          <note key="78" pos="3408" pan="0" len="24" vol="100"/>
          <note key="71" pos="3408" pan="0" len="24" vol="100"/>
          <note key="69" pos="3408" pan="0" len="48" vol="100"/>
          <note key="35" pos="3408" pan="0" len="24" vol="100"/>
          <note key="76" pos="3432" pan="0" len="48" vol="100"/>
          <note key="72" pos="3432" pan="0" len="48" vol="100"/>
          <note key="47" pos="3432" pan="0" len="24" vol="100"/>
          <note key="67" pos="3456" pan="0" len="192" vol="100"/>
          <note key="64" pos="3456" pan="0" len="48" vol="100"/>
          <note key="60" pos="3456" pan="0" len="144" vol="100"/>
          <note key="43" pos="3456" pan="0" len="36" vol="100"/>
          <note key="76" pos="3480" pan="0" len="24" vol="100"/>
          <note key="72" pos="3480" pan="0" len="24" vol="100"/>
          <note key="36" pos="3492" pan="0" len="24" vol="100"/>
          <note key="76" pos="3504" pan="0" len="24" vol="100"/>
          <note key="72" pos="3504" pan="0" len="24" vol="100"/>
          <note key="64" pos="3504" pan="0" len="144" vol="100"/>
          <note key="76" pos="3528" pan="0" len="48" vol="100"/>
          <note key="72" pos="3528" pan="0" len="48" vol="100"/>
          <note key="43" pos="3528" pan="0" len="72" vol="100"/>
          <note key="74" pos="3576" pan="0" len="24" vol="100"/>
          <note key="71" pos="3576" pan="0" len="24" vol="100"/>
          <note key="76" pos="3600" pan="0" len="24" vol="100"/>
          <note key="72" pos="3600" pan="0" len="24" vol="100"/>
          <note key="60" pos="3600" pan="0" len="48" vol="100"/>
          <note key="43" pos="3600" pan="0" len="24" vol="100"/>
          <note key="78" pos="3624" pan="0" len="72" vol="100"/>
          <note key="74" pos="3624" pan="0" len="72" vol="100"/>
          <note key="36" pos="3624" pan="0" len="24" vol="100"/>
          <note key="66" pos="3648" pan="0" len="144" vol="100"/>
          <note key="62" pos="3648" pan="0" len="48" vol="100"/>
          <note key="57" pos="3648" pan="0" len="144" vol="100"/>
          <note key="38" pos="3648" pan="0" len="36" vol="100"/>
          <note key="50" pos="3684" pan="0" len="24" vol="100"/>
          <note key="76" pos="3696" pan="0" len="48" vol="100"/>
          <note key="72" pos="3696" pan="0" len="48" vol="100"/>
          <note key="62" pos="3696" pan="0" len="96" vol="100"/>
          <note key="38" pos="3720" pan="0" len="72" vol="100"/>
          <note key="78" pos="3744" pan="0" len="48" vol="100"/>
          <note key="74" pos="3744" pan="0" len="48" vol="100"/>
          <note key="76" pos="3792" pan="0" len="48" vol="100"/>
          <note key="72" pos="3792" pan="0" len="48" vol="100"/>
          <note key="66" pos="3792" pan="0" len="48" vol="100"/>
          <note key="60" pos="3792" pan="0" len="48" vol="100"/>
          <note key="38" pos="3792" pan="0" len="24" vol="100"/>
          <note key="50" pos="3816" pan="0" len="24" vol="100"/>
        </midiclip>
        <midiclip name="" pos="10368" muted="0" type="1" steps="16">
          <note key="71" pos="0" pan="0" len="168" vol="100"/>
          <note key="67" pos="0" pan="0" len="108" vol="100"/>
          <note key="62" pos="0" pan="0" len="96" vol="100"/>
          <note key="47" pos="0" pan="0" len="768" vol="100"/>
          <note key="31" pos="0" pan="0" len="768" vol="100"/>
          <note key="50" pos="12" pan="0" len="756" vol="100"/>
          <note key="55" pos="24" pan="0" len="48" vol="100"/>
          <note key="59" pos="36" pan="0" len="48" vol="100"/>
          <note key="55" pos="72" pan="0" len="696" vol="100"/>
          <note key="59" pos="84" pan="0" len="684" vol="100"/>
          <note key="62" pos="96" pan="0" len="48" vol="100"/>
          <note key="67" pos="108" pan="0" len="48" vol="100"/>
          <note key="62" pos="144" pan="0" len="624" vol="100"/>
          <note key="67" pos="156" pan="0" len="612" vol="100"/>
          <note key="71" pos="168" pan="0" len="48" vol="100"/>
          <note key="74" pos="180" pan="0" len="48" vol="100"/>
          <note key="71" pos="216" pan="0" len="552" vol="100"/>
          <note key="74" pos="228" pan="0" len="144" vol="100"/>
          <note key="79" pos="240" pan="0" len="528" vol="100"/>
          <note key="83" pos="252" pan="0" len="84" vol="100"/>
          <note key="83" pos="336" pan="0" len="432" vol="100"/>
          <note key="81" pos="348" pan="0" len="420" vol="100"/>
          <note key="78" pos="360" pan="0" len="408" vol="100"/>
          <note key="74" pos="372" pan="0" len="396" vol="100"/>
        </midiclip>
        <midiclip name="" pos="5760" muted="0" type="1" steps="16">
          <note key="69" pos="0" pan="0" len="48" vol="100"/>
          <note key="45" pos="0" pan="0" len="192" vol="100"/>
          <note key="33" pos="0" pan="0" len="192" vol="100"/>
          <note key="48" pos="24" pan="0" len="168" vol="100"/>
          <note key="72" pos="48" pan="0" len="24" vol="100"/>
          <note key="52" pos="48" pan="0" len="144" vol="100"/>
          <note key="76" pos="72" pan="0" len="48" vol="100"/>
          <note key="57" pos="72" pan="0" len="120" vol="100"/>
          <note key="72" pos="120" pan="0" len="72" vol="100"/>
          <note key="55" pos="120" pan="0" len="72" vol="100"/>
          <note key="50" pos="168" pan="0" len="24" vol="100"/>
          <note key="71" pos="192" pan="0" len="48" vol="100"/>
          <note key="43" pos="192" pan="0" len="192" vol="100"/>
          <note key="35" pos="192" pan="0" len="192" vol="100"/>
          <note key="47" pos="216" pan="0" len="168" vol="100"/>
          <note key="69" pos="240" pan="0" len="24" vol="100"/>
          <note key="50" pos="240" pan="0" len="144" vol="100"/>
          <note key="71" pos="264" pan="0" len="72" vol="100"/>
          <note key="55" pos="264" pan="0" len="120" vol="100"/>
          <note key="57" pos="312" pan="0" len="72" vol="100"/>
          <note key="67" pos="336" pan="0" len="48" vol="100"/>
          <note key="52" pos="360" pan="0" len="24" vol="100"/>
          <note key="66" pos="384" pan="0" len="192" vol="100"/>
          <note key="45" pos="384" pan="0" len="192" vol="100"/>
          <note key="38" pos="384" pan="0" len="192" vol="100"/>
          <note key="48" pos="408" pan="0" len="168" vol="100"/>
          <note key="54" pos="432" pan="0" len="144" vol="100"/>
          <note key="57" pos="456" pan="0" len="120" vol="100"/>
          <note key="50" pos="504" pan="0" len="72" vol="100"/>
          <note key="59" pos="528" pan="0" len="48" vol="100"/>
          <note key="55" pos="552" pan="0" len="24" vol="100"/>
          <note key="62" pos="576" pan="0" len="192" vol="100"/>
          <note key="45" pos="576" pan="0" len="192" vol="100"/>
          <note key="38" pos="576" pan="0" len="192" vol="100"/>
          <note key="48" pos="600" pan="0" len="168" vol="100"/>
          <note key="50" pos="624" pan="0" len="144" vol="100"/>
          <note key="54" pos="648" pan="0" len="120" vol="100"/>
          <note key="55" pos="696" pan="0" len="72" vol="100"/>
          <note key="57" pos="744" pan="0" len="24" vol="100"/>
        </midiclip>
      </track>
      <track name="Touhou" muted="0" type="0" solo="0" mutedBeforeSolo="0">
        <instrumenttrack pitch="0" firstkey="0" lastkey="127" enabled="0" pan="0" scale="0" pitchrange="1" mixch="0" usemasterpitch="1" keymap="0" enablecc="0" vol="100" basenote="69" range_import="1">
          <midicontrollers cc27="0" cc125="0" cc109="0" cc48="0" cc22="0" cc75="0" cc67="0" cc15="0" cc90="0" cc5="0" cc3="0" cc21="0" cc52="0" cc89="0" cc106="0" cc117="0" cc61="0" cc36="0" cc77="0" cc35="0" cc83="0" cc8="0" cc11="0" cc45="0" cc85="0" cc14="0" cc71="0" cc49="0" cc51="0" cc12="0" cc122="0" cc126="0" cc29="0" cc68="0" cc82="0" cc93="0" cc64="0" cc72="0" cc97="0" cc70="0" cc17="0" cc111="0" cc50="0" cc56="0" cc28="0" cc40="0" cc94="0" cc34="0" cc23="0" cc81="0" cc18="0" cc127="0" cc30="0" cc115="0" cc26="0" cc53="0" cc66="0" cc99="0" cc54="0" cc9="0" cc41="0" cc62="0" cc69="0" cc59="0" cc32="0" cc74="0" cc87="0" cc91="0" cc103="0" cc33="0" cc88="0" cc25="0" cc24="0" cc10="0" cc1="0" cc19="0" cc16="0" cc47="0" cc58="0" cc102="0" cc121="0" cc112="0" cc65="0" cc104="0" cc123="0" cc80="0" cc13="0" cc107="0" cc6="0" cc124="0" cc101="0" cc76="0" cc46="0" cc110="0" cc108="0" cc78="0" cc79="0" cc4="0" cc96="0" cc20="0" cc2="0" cc84="0" cc105="0" cc113="0" cc116="0" cc86="0" cc63="0" cc38="0" cc42="0" cc100="0" cc60="0" cc0="0" cc118="0" cc43="0" cc39="0" cc7="0" cc73="0" cc95="0" cc57="0" cc44="0" cc92="0" cc55="0" cc119="0" cc98="0" cc37="0" cc31="0" cc114="0" cc120="0"/>
          <instrument name="sf2player">
            <sf2player patch="48" bank="0" reverbDamping="0" reverbRoomSize="0.2" reverbLevel="0.9" chorusSpeed="0.3" reverbOn="0" src="usersoundfont:Touhou.sf2" reverbWidth="0.5" chorusLevel="2" gain="0.24" chorusDepth="8" chorusOn="0" chorusNum="3">
              <key/>
            </sf2player>
          </instrument>
          <eldata fcut="14000" ftype="0" fres="0.5" fwet="0">
            <elvol lspd_denominator="4" amt="0" userwavefile="" hold="0.5" x100="0" pdel="0" att="0" sustain="0.5" lspd_syncmode="0" ctlenvamt="0" latt="0" dec="0.5" rel="0.1" lshp="0" lamt="0" lspd_numerator="4" lspd="0.1" lpdel="0"/>
            <elcut lspd_denominator="4" amt="0" userwavefile="" hold="0.5" x100="0" pdel="0" att="0" sustain="0.5" lspd_syncmode="0" ctlenvamt="0" latt="0" dec="0.5" rel="0.1" lshp="0" lamt="0" lspd_numerator="4" lspd="0.1" lpdel="0"/>
            <elres lspd_denominator="4" amt="0" userwavefile="" hold="0.5" x100="0" pdel="0" att="0" sustain="0.5" lspd_syncmode="0" ctlenvamt="0" latt="0" dec="0.5" rel="0.1" lshp="0" lamt="0" lspd_numerator="4" lspd="0.1" lpdel="0"/>
          </eldata>
          <chordcreator chordrange="1" chord-enabled="0" chord="0"/>
          <arpeggiator arptime="200" arpmiss="0" arpdir="0" arprange="1" arptime_numerator="4" arpmode="0" arpskip="0" arp="0" arptime_syncmode="0" arpcycle="0" arptime_denominator="4" arp-enabled="0" arprepeats="1" arpgate="100"/>
          <midiport outputcontroller="0" basevelocity="63" outputprogram="1" writable="0" outputchannel="1" fixedinputvelocity="-1" inputchannel="0" inputcontroller="0" readable="1" inports="" fixedoutputvelocity="-1" fixedoutputnote="-1"/>
          <fxchain enabled="0" numofeffects="0"/>
        </instrumenttrack>
        <midiclip name="" pos="25344" muted="0" type="1" steps="16">
          <note key="88" pos="0" pan="0" len="48" vol="100"/>
          <note key="52" pos="0" pan="0" len="192" vol="100"/>
          <note key="45" pos="0" pan="0" len="192" vol="100"/>
          <note key="81" pos="48" pan="0" len="48" vol="100"/>
          <note key="72" pos="48" pan="0" len="48" vol="100"/>
          <note key="69" pos="48" pan="0" len="48" vol="100"/>
          <note key="81" pos="96" pan="0" len="48" vol="100"/>
          <note key="76" pos="96" pan="0" len="48" vol="100"/>
          <note key="72" pos="96" pan="0" len="48" vol="100"/>
          <note key="88" pos="144" pan="0" len="48" vol="100"/>
          <note key="72" pos="144" pan="0" len="48" vol="100"/>
          <note key="69" pos="144" pan="0" len="48" vol="100"/>
          <note key="87" pos="192" pan="0" len="48" vol="100"/>
          <note key="54" pos="192" pan="0" len="192" vol="100"/>
          <note key="47" pos="192" pan="0" len="192" vol="100"/>
          <note key="81" pos="240" pan="0" len="48" vol="100"/>
          <note key="71" pos="240" pan="0" len="48" vol="100"/>
          <note key="66" pos="240" pan="0" len="48" vol="100"/>
          <note key="81" pos="288" pan="0" len="48" vol="100"/>
          <note key="75" pos="288" pan="0" len="48" vol="100"/>
          <note key="71" pos="288" pan="0" len="48" vol="100"/>
          <note key="87" pos="336" pan="0" len="48" vol="100"/>
          <note key="71" pos="336" pan="0" len="48" vol="100"/>
          <note key="66" pos="336" pan="0" len="48" vol="100"/>
          <note key="88" pos="384" pan="0" len="48" vol="100"/>
          <note key="45" pos="384" pan="0" len="192" vol="100"/>
          <note key="41" pos="384" pan="0" len="192" vol="100"/>
          <note key="81" pos="432" pan="0" len="48" vol="100"/>
          <note key="72" pos="432" pan="0" len="48" vol="100"/>
          <note key="69" pos="432" pan="0" len="48" vol="100"/>
          <note key="81" pos="480" pan="0" len="48" vol="100"/>
          <note key="77" pos="480" pan="0" len="48" vol="100"/>
          <note key="72" pos="480" pan="0" len="48" vol="100"/>
          <note key="88" pos="528" pan="0" len="48" vol="100"/>
          <note key="72" pos="528" pan="0" len="48" vol="100"/>
          <note key="69" pos="528" pan="0" len="48" vol="100"/>
          <note key="90" pos="576" pan="0" len="24" vol="100"/>
          <note key="51" pos="576" pan="0" len="192" vol="100"/>
          <note key="47" pos="576" pan="0" len="192" vol="100"/>
          <note key="91" pos="600" pan="0" len="24" vol="100"/>
          <note key="90" pos="624" pan="0" len="24" vol="100"/>
          <note key="75" pos="624" pan="0" len="48" vol="100"/>
          <note key="71" pos="624" pan="0" len="48" vol="100"/>
          <note key="91" pos="648" pan="0" len="24" vol="100"/>
          <note key="88" pos="672" pan="0" len="24" vol="100"/>
          <note key="78" pos="672" pan="0" len="48" vol="100"/>
          <note key="74" pos="672" pan="0" len="48" vol="100"/>
          <note key="90" pos="696" pan="0" len="24" vol="100"/>
          <note key="88" pos="720" pan="0" len="24" vol="100"/>
          <note key="76" pos="720" pan="0" len="48" vol="100"/>
          <note key="71" pos="720" pan="0" len="48" vol="100"/>
          <note key="86" pos="744" pan="0" len="24" vol="100"/>
          <note key="83" pos="768" pan="0" len="48" vol="100"/>
          <note key="52" pos="768" pan="0" len="192" vol="100"/>
          <note key="47" pos="768" pan="0" len="192" vol="100"/>
          <note key="81" pos="816" pan="0" len="48" vol="100"/>
          <note key="69" pos="816" pan="0" len="48" vol="100"/>
          <note key="67" pos="816" pan="0" len="48" vol="100"/>
          <note key="79" pos="864" pan="0" len="48" vol="100"/>
          <note key="71" pos="864" pan="0" len="96" vol="100"/>
          <note key="69" pos="864" pan="0" len="96" vol="100"/>
          <note key="83" pos="912" pan="0" len="48" vol="100"/>
          <note key="81" pos="960" pan="0" len="48" vol="100"/>
          <note key="50" pos="960" pan="0" len="144" vol="100"/>
          <note key="43" pos="960" pan="0" len="144" vol="100"/>
          <note key="79" pos="1008" pan="0" len="48" vol="100"/>
          <note key="64" pos="1008" pan="0" len="48" vol="100"/>
          <note key="62" pos="1008" pan="0" len="48" vol="100"/>
          <note key="76" pos="1056" pan="0" len="48" vol="100"/>
          <note key="67" pos="1056" pan="0" len="96" vol="100"/>
          <note key="64" pos="1056" pan="0" len="96" vol="100"/>
          <note key="74" pos="1104" pan="0" len="48" vol="100"/>
          <note key="43" pos="1104" pan="0" len="48" vol="100"/>
          <note key="36" pos="1104" pan="0" len="48" vol="100"/>
          <note key="73" pos="1152" pan="0" len="48" vol="100"/>
          <note key="45" pos="1152" pan="0" len="192" vol="100"/>
          <note key="40" pos="1152" pan="0" len="192" vol="100"/>
          <note key="81" pos="1200" pan="0" len="48" vol="100"/>
          <note key="61" pos="1200" pan="0" len="48" vol="100"/>
          <note key="57" pos="1200" pan="0" len="48" vol="100"/>
          <note key="76" pos="1248" pan="0" len="48" vol="100"/>
          <note key="64" pos="1248" pan="0" len="48" vol="100"/>
          <note key="61" pos="1248" pan="0" len="48" vol="100"/>
          <note key="81" pos="1296" pan="0" len="48" vol="100"/>
          <note key="61" pos="1296" pan="0" len="48" vol="100"/>
          <note key="57" pos="1296" pan="0" len="48" vol="100"/>
          <note key="83" pos="1344" pan="0" len="192" vol="100"/>
          <note key="63" pos="1344" pan="0" len="192" vol="100"/>
          <note key="59" pos="1344" pan="0" len="192" vol="100"/>
          <note key="42" pos="1344" pan="0" len="192" vol="100"/>
          <note key="35" pos="1344" pan="0" len="192" vol="100"/>
        </midiclip>
        <midiclip name="" pos="22080" muted="0" type="1" steps="16">
          <note key="61" pos="144" pan="0" len="24" vol="100"/>
          <note key="62" pos="168" pan="0" len="24" vol="100"/>
          <note key="63" pos="192" pan="0" len="48" vol="100"/>
          <note key="51" pos="192" pan="0" len="192" vol="100"/>
          <note key="46" pos="192" pan="0" len="192" vol="100"/>
          <note key="39" pos="192" pan="0" len="192" vol="100"/>
          <note key="61" pos="240" pan="0" len="24" vol="100"/>
          <note key="66" pos="264" pan="0" len="48" vol="100"/>
          <note key="63" pos="312" pan="0" len="48" vol="100"/>
          <note key="70" pos="360" pan="0" len="48" vol="100"/>
          <note key="54" pos="384" pan="0" len="192" vol="100"/>
          <note key="46" pos="384" pan="0" len="192" vol="100"/>
          <note key="37" pos="384" pan="0" len="192" vol="100"/>
          <note key="68" pos="408" pan="0" len="24" vol="100"/>
          <note key="66" pos="432" pan="0" len="24" vol="100"/>
          <note key="63" pos="456" pan="0" len="48" vol="100"/>
          <note key="63" pos="504" pan="0" len="24" vol="100"/>
          <note key="66" pos="528" pan="0" len="24" vol="100"/>
          <note key="68" pos="552" pan="0" len="24" vol="100"/>
          <note key="73" pos="576" pan="0" len="48" vol="100"/>
          <note key="56" pos="576" pan="0" len="192" vol="100"/>
          <note key="48" pos="576" pan="0" len="192" vol="100"/>
          <note key="36" pos="576" pan="0" len="192" vol="100"/>
          <note key="72" pos="624" pan="0" len="72" vol="100"/>
          <note key="73" pos="696" pan="0" len="48" vol="100"/>
          <note key="72" pos="744" pan="0" len="48" vol="100"/>
          <note key="58" pos="768" pan="0" len="192" vol="100"/>
          <note key="54" pos="768" pan="0" len="192" vol="100"/>
          <note key="35" pos="768" pan="0" len="96" vol="100"/>
          <note key="73" pos="792" pan="0" len="24" vol="100"/>
          <note key="72" pos="816" pan="0" len="24" vol="100"/>
          <note key="70" pos="840" pan="0" len="48" vol="100"/>
          <note key="34" pos="864" pan="0" len="96" vol="100"/>
          <note key="68" pos="888" pan="0" len="24" vol="100"/>
          <note key="66" pos="912" pan="0" len="48" vol="100"/>
        </midiclip>
        <midiclip name="" pos="16512" muted="0" type="1" steps="16">
          <note key="62" pos="144" pan="0" len="24" vol="100"/>
          <note key="64" pos="168" pan="0" len="24" vol="100"/>
          <note key="65" pos="192" pan="0" len="72" vol="100"/>
          <note key="62" pos="192" pan="0" len="72" vol="100"/>
          <note key="57" pos="192" pan="0" len="72" vol="100"/>
          <note key="38" pos="192" pan="0" len="24" vol="100"/>
          <note key="33" pos="216" pan="0" len="24" vol="100"/>
          <note key="69" pos="240" pan="0" len="24" vol="100"/>
          <note key="38" pos="240" pan="0" len="24" vol="100"/>
          <note key="67" pos="264" pan="0" len="96" vol="100"/>
          <note key="62" pos="264" pan="0" len="48" vol="100"/>
          <note key="59" pos="264" pan="0" len="96" vol="100"/>
          <note key="43" pos="264" pan="0" len="48" vol="100"/>
          <note key="62" pos="312" pan="0" len="48" vol="100"/>
          <note key="40" pos="312" pan="0" len="24" vol="100"/>
          <note key="38" pos="336" pan="0" len="24" vol="100"/>
          <note key="59" pos="360" pan="0" len="96" vol="100"/>
          <note key="55" pos="360" pan="0" len="48" vol="100"/>
          <note key="50" pos="360" pan="0" len="96" vol="100"/>
          <note key="35" pos="360" pan="0" len="48" vol="100"/>
          <note key="55" pos="408" pan="0" len="48" vol="100"/>
          <note key="31" pos="408" pan="0" len="24" vol="100"/>
          <note key="67" pos="432" pan="0" len="24" vol="100"/>
          <note key="35" pos="432" pan="0" len="24" vol="100"/>
          <note key="65" pos="456" pan="0" len="120" vol="100"/>
          <note key="62" pos="456" pan="0" len="72" vol="100"/>
          <note key="57" pos="456" pan="0" len="120" vol="100"/>
          <note key="41" pos="456" pan="0" len="48" vol="100"/>
          <note key="40" pos="504" pan="0" len="24" vol="100"/>
          <note key="62" pos="528" pan="0" len="48" vol="100"/>
          <note key="38" pos="528" pan="0" len="24" vol="100"/>
          <note key="64" pos="552" pan="0" len="24" vol="100"/>
          <note key="36" pos="552" pan="0" len="24" vol="100"/>
          <note key="65" pos="576" pan="0" len="72" vol="100"/>
          <note key="62" pos="576" pan="0" len="72" vol="100"/>
          <note key="60" pos="576" pan="0" len="72" vol="100"/>
          <note key="57" pos="576" pan="0" len="72" vol="100"/>
          <note key="38" pos="576" pan="0" len="24" vol="100"/>
          <note key="33" pos="600" pan="0" len="24" vol="100"/>
          <note key="69" pos="624" pan="0" len="24" vol="100"/>
          <note key="38" pos="624" pan="0" len="24" vol="100"/>
          <note key="67" pos="648" pan="0" len="96" vol="100"/>
          <note key="62" pos="648" pan="0" len="48" vol="100"/>
          <note key="59" pos="648" pan="0" len="96" vol="100"/>
          <note key="43" pos="648" pan="0" len="48" vol="100"/>
          <note key="62" pos="696" pan="0" len="48" vol="100"/>
          <note key="38" pos="696" pan="0" len="48" vol="100"/>
          <note key="35" pos="720" pan="0" len="24" vol="100"/>
          <note key="71" pos="744" pan="0" len="72" vol="100"/>
          <note key="67" pos="744" pan="0" len="96" vol="100"/>
          <note key="64" pos="744" pan="0" len="96" vol="100"/>
          <note key="62" pos="744" pan="0" len="96" vol="100"/>
          <note key="47" pos="744" pan="0" len="48" vol="100"/>
          <note key="72" pos="792" pan="0" len="48" vol="100"/>
          <note key="45" pos="792" pan="0" len="24" vol="100"/>
          <note key="71" pos="816" pan="0" len="24" vol="100"/>
          <note key="43" pos="816" pan="0" len="24" vol="100"/>
          <note key="69" pos="840" pan="0" len="72" vol="100"/>
          <note key="65" pos="840" pan="0" len="72" vol="100"/>
          <note key="62" pos="840" pan="0" len="72" vol="100"/>
          <note key="45" pos="840" pan="0" len="48" vol="100"/>
          <note key="43" pos="888" pan="0" len="24" vol="100"/>
          <note key="69" pos="912" pan="0" len="24" vol="100"/>
          <note key="65" pos="912" pan="0" len="24" vol="100"/>
          <note key="62" pos="912" pan="0" len="24" vol="100"/>
          <note key="41" pos="912" pan="0" len="24" vol="100"/>
          <note key="67" pos="936" pan="0" len="24" vol="100"/>
          <note key="64" pos="936" pan="0" len="24" vol="100"/>
          <note key="60" pos="936" pan="0" len="24" vol="100"/>
          <note key="40" pos="936" pan="0" len="24" vol="100"/>
          <note key="65" pos="960" pan="0" len="72" vol="100"/>
          <note key="62" pos="960" pan="0" len="72" vol="100"/>
          <note key="57" pos="960" pan="0" len="72" vol="100"/>
          <note key="38" pos="960" pan="0" len="24" vol="100"/>
          <note key="33" pos="984" pan="0" len="24" vol="100"/>
          <note key="69" pos="1008" pan="0" len="24" vol="100"/>
          <note key="38" pos="1008" pan="0" len="24" vol="100"/>
          <note key="67" pos="1032" pan="0" len="96" vol="100"/>
          <note key="62" pos="1032" pan="0" len="48" vol="100"/>
          <note key="59" pos="1032" pan="0" len="96" vol="100"/>
          <note key="43" pos="1032" pan="0" len="48" vol="100"/>
          <note key="62" pos="1080" pan="0" len="48" vol="100"/>
          <note key="40" pos="1080" pan="0" len="24" vol="100"/>
          <note key="38" pos="1104" pan="0" len="24" vol="100"/>
          <note key="65" pos="1128" pan="0" len="96" vol="100"/>
          <note key="60" pos="1128" pan="0" len="72" vol="100"/>
          <note key="57" pos="1128" pan="0" len="96" vol="100"/>
          <note key="36" pos="1128" pan="0" len="48" vol="100"/>
          <note key="62" pos="1176" pan="0" len="48" vol="100"/>
          <note key="31" pos="1176" pan="0" len="24" vol="100"/>
          <note key="60" pos="1200" pan="0" len="24" vol="100"/>
          <note key="36" pos="1200" pan="0" len="24" vol="100"/>
          <note key="62" pos="1224" pan="0" len="48" vol="100"/>
          <note key="59" pos="1224" pan="0" len="48" vol="100"/>
          <note key="55" pos="1224" pan="0" len="48" vol="100"/>
          <note key="40" pos="1224" pan="0" len="48" vol="100"/>
          <note key="61" pos="1296" pan="0" len="48" vol="100"/>
          <note key="58" pos="1296" pan="0" len="48" vol="100"/>
          <note key="57" pos="1296" pan="0" len="48" vol="100"/>
          <note key="55" pos="1296" pan="0" len="48" vol="100"/>
          <note key="39" pos="1296" pan="0" len="48" vol="100"/>
          <note key="62" pos="1344" pan="0" len="72" vol="100"/>
          <note key="60" pos="1344" pan="0" len="72" vol="100"/>
          <note key="57" pos="1344" pan="0" len="72" vol="100"/>
          <note key="53" pos="1344" pan="0" len="72" vol="100"/>
          <note key="45" pos="1344" pan="0" len="24" vol="100"/>
          <note key="38" pos="1368" pan="0" len="24" vol="100"/>
          <note key="65" pos="1392" pan="0" len="24" vol="100"/>
          <note key="45" pos="1392" pan="0" len="24" vol="100"/>
          <note key="62" pos="1416" pan="0" len="96" vol="100"/>
          <note key="59" pos="1416" pan="0" len="96" vol="100"/>
          <note key="55" pos="1416" pan="0" len="96" vol="100"/>
          <note key="43" pos="1416" pan="0" len="48" vol="100"/>
          <note key="69" pos="1464" pan="0" len="48" vol="100"/>
          <note key="38" pos="1464" pan="0" len="24" vol="100"/>
          <note key="35" pos="1488" pan="0" len="24" vol="100"/>
          <note key="67" pos="1512" pan="0" len="72" vol="100"/>
          <note key="64" pos="1512" pan="0" len="96" vol="100"/>
          <note key="62" pos="1512" pan="0" len="96" vol="100"/>
          <note key="59" pos="1512" pan="0" len="96" vol="100"/>
          <note key="43" pos="1512" pan="0" len="48" vol="100"/>
          <note key="69" pos="1560" pan="0" len="48" vol="100"/>
          <note key="41" pos="1560" pan="0" len="24" vol="100"/>
          <note key="67" pos="1584" pan="0" len="24" vol="100"/>
          <note key="40" pos="1584" pan="0" len="24" vol="100"/>
          <note key="65" pos="1608" pan="0" len="120" vol="100"/>
          <note key="62" pos="1608" pan="0" len="120" vol="100"/>
          <note key="57" pos="1608" pan="0" len="120" vol="100"/>
          <note key="38" pos="1608" pan="0" len="48" vol="100"/>
          <note key="36" pos="1656" pan="0" len="24" vol="100"/>
          <note key="38" pos="1680" pan="0" len="24" vol="100"/>
          <note key="45" pos="1704" pan="0" len="24" vol="100"/>
          <note key="65" pos="1728" pan="0" len="72" vol="100"/>
          <note key="60" pos="1728" pan="0" len="72" vol="100"/>
          <note key="56" pos="1728" pan="0" len="72" vol="100"/>
          <note key="53" pos="1728" pan="0" len="24" vol="100"/>
          <note key="48" pos="1752" pan="0" len="24" vol="100"/>
          <note key="53" pos="1776" pan="0" len="24" vol="100"/>
          <note key="68" pos="1800" pan="0" len="120" vol="100"/>
          <note key="65" pos="1800" pan="0" len="120" vol="100"/>
          <note key="61" pos="1800" pan="0" len="120" vol="100"/>
          <note key="49" pos="1800" pan="0" len="48" vol="100"/>
          <note key="41" pos="1848" pan="0" len="24" vol="100"/>
          <note key="44" pos="1872" pan="0" len="24" vol="100"/>
          <note key="49" pos="1896" pan="0" len="24" vol="100"/>
          <note key="67" pos="1920" pan="0" len="72" vol="100"/>
          <note key="63" pos="1920" pan="0" len="72" vol="100"/>
          <note key="60" pos="1920" pan="0" len="72" vol="100"/>
          <note key="51" pos="1920" pan="0" len="24" vol="100"/>
          <note key="46" pos="1944" pan="0" len="24" vol="100"/>
          <note key="51" pos="1968" pan="0" len="24" vol="100"/>
          <note key="64" pos="1992" pan="0" len="120" vol="100"/>
          <note key="60" pos="1992" pan="0" len="120" vol="100"/>
          <note key="55" pos="1992" pan="0" len="120" vol="100"/>
          <note key="48" pos="1992" pan="0" len="48" vol="100"/>
          <note key="43" pos="2040" pan="0" len="24" vol="100"/>
          <note key="58" pos="2064" pan="0" len="48" vol="100"/>
          <note key="46" pos="2064" pan="0" len="24" vol="100"/>
          <note key="57" pos="2088" pan="0" len="24" vol="100"/>
          <note key="45" pos="2088" pan="0" len="24" vol="100"/>
          <note key="68" pos="2112" pan="0" len="72" vol="100"/>
          <note key="65" pos="2112" pan="0" len="72" vol="100"/>
          <note key="60" pos="2112" pan="0" len="72" vol="100"/>
          <note key="56" pos="2112" pan="0" len="48" vol="100"/>
          <note key="44" pos="2112" pan="0" len="24" vol="100"/>
          <note key="53" pos="2136" pan="0" len="48" vol="100"/>
          <note key="41" pos="2136" pan="0" len="24" vol="100"/>
          <note key="56" pos="2160" pan="0" len="24" vol="100"/>
          <note key="48" pos="2160" pan="0" len="24" vol="100"/>
          <note key="74" pos="2184" pan="0" len="120" vol="100"/>
          <note key="70" pos="2184" pan="0" len="120" vol="100"/>
          <note key="65" pos="2184" pan="0" len="120" vol="100"/>
          <note key="62" pos="2184" pan="0" len="120" vol="100"/>
          <note key="34" pos="2184" pan="0" len="48" vol="100"/>
          <note key="58" pos="2232" pan="0" len="72" vol="100"/>
          <note key="41" pos="2232" pan="0" len="24" vol="100"/>
          <note key="53" pos="2256" pan="0" len="24" vol="100"/>
          <note key="52" pos="2280" pan="0" len="24" vol="100"/>
          <note key="77" pos="2304" pan="0" len="72" vol="100"/>
          <note key="74" pos="2304" pan="0" len="72" vol="100"/>
          <note key="70" pos="2304" pan="0" len="72" vol="100"/>
          <note key="65" pos="2304" pan="0" len="72" vol="100"/>
          <note key="38" pos="2304" pan="0" len="24" vol="100"/>
          <note key="63" pos="2328" pan="0" len="48" vol="100"/>
          <note key="34" pos="2328" pan="0" len="24" vol="100"/>
          <note key="62" pos="2352" pan="0" len="24" vol="100"/>
          <note key="46" pos="2352" pan="0" len="24" vol="100"/>
          <note key="72" pos="2376" pan="0" len="48" vol="100"/>
          <note key="68" pos="2376" pan="0" len="48" vol="100"/>
          <note key="65" pos="2376" pan="0" len="48" vol="100"/>
          <note key="60" pos="2376" pan="0" len="48" vol="100"/>
          <note key="44" pos="2376" pan="0" len="48" vol="100"/>
          <note key="68" pos="2424" pan="0" len="24" vol="100"/>
          <note key="65" pos="2424" pan="0" len="24" vol="100"/>
          <note key="60" pos="2424" pan="0" len="24" vol="100"/>
          <note key="43" pos="2424" pan="0" len="24" vol="100"/>
          <note key="65" pos="2448" pan="0" len="12" vol="100"/>
          <note key="60" pos="2448" pan="0" len="12" vol="100"/>
          <note key="56" pos="2448" pan="0" len="12" vol="100"/>
          <note key="42" pos="2448" pan="0" len="12" vol="100"/>
          <note key="60" pos="2472" pan="0" len="24" vol="100"/>
          <note key="56" pos="2472" pan="0" len="24" vol="100"/>
          <note key="53" pos="2472" pan="0" len="24" vol="100"/>
          <note key="41" pos="2472" pan="0" len="24" vol="100"/>
          <note key="65" pos="2496" pan="0" len="72" vol="100"/>
          <note key="60" pos="2496" pan="0" len="72" vol="100"/>
          <note key="56" pos="2496" pan="0" len="72" vol="100"/>
          <note key="53" pos="2496" pan="0" len="24" vol="100"/>
          <note key="48" pos="2520" pan="0" len="24" vol="100"/>
          <note key="53" pos="2544" pan="0" len="24" vol="100"/>
          <note key="68" pos="2568" pan="0" len="120" vol="100"/>
          <note key="65" pos="2568" pan="0" len="120" vol="100"/>
          <note key="61" pos="2568" pan="0" len="120" vol="100"/>
          <note key="49" pos="2568" pan="0" len="48" vol="100"/>
          <note key="46" pos="2616" pan="0" len="24" vol="100"/>
          <note key="44" pos="2640" pan="0" len="24" vol="100"/>
          <note key="49" pos="2664" pan="0" len="24" vol="100"/>
          <note key="70" pos="2688" pan="0" len="72" vol="100"/>
          <note key="67" pos="2688" pan="0" len="72" vol="100"/>
          <note key="63" pos="2688" pan="0" len="72" vol="100"/>
          <note key="51" pos="2688" pan="0" len="24" vol="100"/>
          <note key="46" pos="2712" pan="0" len="24" vol="100"/>
          <note key="51" pos="2736" pan="0" len="24" vol="100"/>
          <note key="72" pos="2760" pan="0" len="72" vol="100"/>
          <note key="68" pos="2760" pan="0" len="72" vol="100"/>
          <note key="64" pos="2760" pan="0" len="72" vol="100"/>
          <note key="60" pos="2760" pan="0" len="72" vol="100"/>
          <note key="52" pos="2760" pan="0" len="48" vol="100"/>
          <note key="36" pos="2808" pan="0" len="24" vol="100"/>
          <note key="70" pos="2832" pan="0" len="48" vol="100"/>
          <note key="67" pos="2832" pan="0" len="48" vol="100"/>
          <note key="65" pos="2832" pan="0" len="48" vol="100"/>
          <note key="62" pos="2832" pan="0" len="48" vol="100"/>
          <note key="43" pos="2832" pan="0" len="24" vol="100"/>
          <note key="66" pos="2856" pan="0" len="24" vol="100"/>
          <note key="42" pos="2856" pan="0" len="24" vol="100"/>
          <note key="72" pos="2880" pan="0" len="48" vol="100"/>
          <note key="68" pos="2880" pan="0" len="48" vol="100"/>
          <note key="65" pos="2880" pan="0" len="48" vol="100"/>
          <note key="63" pos="2880" pan="0" len="48" vol="100"/>
          <note key="41" pos="2880" pan="0" len="24" vol="100"/>
          <note key="36" pos="2904" pan="0" len="24" vol="100"/>
          <note key="72" pos="2928" pan="0" len="12" vol="100"/>
          <note key="68" pos="2928" pan="0" len="12" vol="100"/>
          <note key="65" pos="2928" pan="0" len="12" vol="100"/>
          <note key="39" pos="2928" pan="0" len="12" vol="100"/>
          <note key="70" pos="2952" pan="0" len="48" vol="100"/>
          <note key="67" pos="2952" pan="0" len="48" vol="100"/>
          <note key="65" pos="2952" pan="0" len="48" vol="100"/>
          <note key="62" pos="2952" pan="0" len="48" vol="100"/>
          <note key="38" pos="2952" pan="0" len="48" vol="100"/>
          <note key="74" pos="3000" pan="0" len="72" vol="100"/>
          <note key="70" pos="3000" pan="0" len="72" vol="100"/>
          <note key="68" pos="3000" pan="0" len="72" vol="100"/>
          <note key="65" pos="3000" pan="0" len="72" vol="100"/>
          <note key="46" pos="3000" pan="0" len="48" vol="100"/>
          <note key="36" pos="3048" pan="0" len="24" vol="100"/>
          <note key="74" pos="3072" pan="0" len="24" vol="100"/>
          <note key="70" pos="3072" pan="0" len="24" vol="100"/>
          <note key="68" pos="3072" pan="0" len="60" vol="100"/>
          <note key="65" pos="3072" pan="0" len="60" vol="100"/>
          <note key="38" pos="3072" pan="0" len="24" vol="100"/>
          <note key="74" pos="3096" pan="0" len="12" vol="100"/>
          <note key="70" pos="3096" pan="0" len="12" vol="100"/>
          <note key="34" pos="3096" pan="0" len="24" vol="100"/>
          <note key="74" pos="3108" pan="0" len="12" vol="100"/>
          <note key="70" pos="3108" pan="0" len="12" vol="100"/>
          <note key="74" pos="3120" pan="0" len="12" vol="100"/>
          <note key="70" pos="3120" pan="0" len="12" vol="100"/>
          <note key="46" pos="3120" pan="0" len="12" vol="100"/>
          <note key="72" pos="3144" pan="0" len="24" vol="100"/>
          <note key="68" pos="3144" pan="0" len="24" vol="100"/>
          <note key="65" pos="3144" pan="0" len="72" vol="100"/>
          <note key="44" pos="3144" pan="0" len="48" vol="100"/>
          <note key="72" pos="3168" pan="0" len="12" vol="100"/>
          <note key="68" pos="3168" pan="0" len="12" vol="100"/>
          <note key="72" pos="3180" pan="0" len="12" vol="100"/>
          <note key="68" pos="3180" pan="0" len="12" vol="100"/>
          <note key="72" pos="3192" pan="0" len="24" vol="100"/>
          <note key="68" pos="3192" pan="0" len="24" vol="100"/>
          <note key="41" pos="3192" pan="0" len="48" vol="100"/>
          <note key="68" pos="3216" pan="0" len="24" vol="100"/>
          <note key="65" pos="3216" pan="0" len="24" vol="100"/>
          <note key="60" pos="3216" pan="0" len="24" vol="100"/>
          <note key="68" pos="3240" pan="0" len="12" vol="100"/>
          <note key="65" pos="3240" pan="0" len="12" vol="100"/>
          <note key="60" pos="3240" pan="0" len="12" vol="100"/>
          <note key="39" pos="3240" pan="0" len="24" vol="100"/>
          <note key="68" pos="3252" pan="0" len="12" vol="100"/>
          <note key="65" pos="3252" pan="0" len="12" vol="100"/>
          <note key="60" pos="3252" pan="0" len="12" vol="100"/>
          <note key="77" pos="3264" pan="0" len="384" vol="100"/>
          <note key="72" pos="3264" pan="0" len="384" vol="100"/>
          <note key="68" pos="3264" pan="0" len="384" vol="100"/>
          <note key="41" pos="3264" pan="0" len="384" vol="100"/>
          <note key="73" pos="3648" pan="0" len="384" vol="100"/>
          <note key="70" pos="3648" pan="0" len="192" vol="100"/>
          <note key="65" pos="3648" pan="0" len="288" vol="100"/>
          <note key="46" pos="3648" pan="0" len="384" vol="100"/>
          <note key="68" pos="3840" pan="0" len="96" vol="100"/>
          <note key="70" pos="3936" pan="0" len="96" vol="100"/>
          <note key="63" pos="3936" pan="0" len="48" vol="100"/>
          <note key="67" pos="3984" pan="0" len="48" vol="100"/>
          <note key="72" pos="4032" pan="0" len="288" vol="100"/>
          <note key="67" pos="4032" pan="0" len="384" vol="100"/>
          <note key="64" pos="4032" pan="0" len="288" vol="100"/>
          <note key="43" pos="4032" pan="0" len="384" vol="100"/>
          <note key="74" pos="4320" pan="0" len="48" vol="100"/>
          <note key="65" pos="4320" pan="0" len="48" vol="100"/>
          <note key="72" pos="4368" pan="0" len="48" vol="100"/>
          <note key="64" pos="4368" pan="0" len="48" vol="100"/>
          <note key="69" pos="4416" pan="0" len="384" vol="100"/>
          <note key="65" pos="4416" pan="0" len="384" vol="100"/>
          <note key="60" pos="4416" pan="0" len="384" vol="100"/>
          <note key="41" pos="4416" pan="0" len="384" vol="100"/>
        </midiclip>
        <midiclip name="" pos="1728" muted="0" type="1" steps="16">
          <note key="62" pos="0" pan="0" len="192" vol="100"/>
          <note key="59" pos="0" pan="0" len="192" vol="100"/>
          <note key="55" pos="0" pan="0" len="48" vol="100"/>
          <note key="50" pos="0" pan="0" len="144" vol="100"/>
          <note key="31" pos="0" pan="0" len="192" vol="100"/>
          <note key="55" pos="48" pan="0" len="144" vol="100"/>
          <note key="50" pos="144" pan="0" len="48" vol="100"/>
          <note key="57" pos="192" pan="0" len="144" vol="100"/>
          <note key="54" pos="192" pan="0" len="48" vol="100"/>
          <note key="50" pos="192" pan="0" len="192" vol="100"/>
          <note key="30" pos="192" pan="0" len="192" vol="100"/>
          <note key="54" pos="240" pan="0" len="144" vol="100"/>
          <note key="57" pos="336" pan="0" len="48" vol="100"/>
          <note key="60" pos="384" pan="0" len="48" vol="100"/>
          <note key="55" pos="384" pan="0" len="144" vol="100"/>
          <note key="52" pos="384" pan="0" len="192" vol="100"/>
          <note key="28" pos="384" pan="0" len="192" vol="100"/>
          <note key="60" pos="432" pan="0" len="144" vol="100"/>
          <note key="55" pos="528" pan="0" len="48" vol="100"/>
          <note key="59" pos="576" pan="0" len="36" vol="100"/>
          <note key="55" pos="576" pan="0" len="36" vol="100"/>
          <note key="52" pos="576" pan="0" len="36" vol="100"/>
          <note key="31" pos="576" pan="0" len="36" vol="100"/>
          <note key="59" pos="612" pan="0" len="12" vol="100"/>
          <note key="55" pos="612" pan="0" len="12" vol="100"/>
          <note key="52" pos="612" pan="0" len="12" vol="100"/>
          <note key="28" pos="612" pan="0" len="12" vol="100"/>
          <note key="57" pos="648" pan="0" len="120" vol="100"/>
          <note key="54" pos="648" pan="0" len="120" vol="100"/>
          <note key="50" pos="648" pan="0" len="120" vol="100"/>
          <note key="26" pos="648" pan="0" len="120" vol="100"/>
        </midiclip>
        <midiclip name="" pos="2496" muted="0" type="1" steps="16">
          <note key="59" pos="0" pan="0" len="48" vol="100"/>
          <note key="55" pos="0" pan="0" len="144" vol="100"/>
          <note key="50" pos="0" pan="0" len="192" vol="100"/>
          <note key="31" pos="0" pan="0" len="192" vol="100"/>
          <note key="59" pos="48" pan="0" len="144" vol="100"/>
          <note key="55" pos="144" pan="0" len="48" vol="100"/>
          <note key="62" pos="192" pan="0" len="48" vol="100"/>
          <note key="57" pos="192" pan="0" len="192" vol="100"/>
          <note key="54" pos="192" pan="0" len="144" vol="100"/>
          <note key="30" pos="192" pan="0" len="192" vol="100"/>
          <note key="62" pos="240" pan="0" len="144" vol="100"/>
          <note key="54" pos="336" pan="0" len="48" vol="100"/>
          <note key="60" pos="384" pan="0" len="144" vol="100"/>
          <note key="57" pos="384" pan="0" len="48" vol="100"/>
          <note key="52" pos="384" pan="0" len="192" vol="100"/>
          <note key="40" pos="384" pan="0" len="192" vol="100"/>
          <note key="57" pos="432" pan="0" len="144" vol="100"/>
          <note key="60" pos="528" pan="0" len="48" vol="100"/>
          <note key="59" pos="576" pan="0" len="36" vol="100"/>
          <note key="55" pos="576" pan="0" len="36" vol="100"/>
          <note key="52" pos="576" pan="0" len="36" vol="100"/>
          <note key="43" pos="576" pan="0" len="36" vol="100"/>
          <note key="59" pos="612" pan="0" len="12" vol="100"/>
          <note key="55" pos="612" pan="0" len="12" vol="100"/>
          <note key="52" pos="612" pan="0" len="12" vol="100"/>
          <note key="40" pos="612" pan="0" len="12" vol="100"/>
          <note key="62" pos="648" pan="0" len="120" vol="100"/>
          <note key="57" pos="648" pan="0" len="120" vol="100"/>
          <note key="54" pos="648" pan="0" len="120" vol="100"/>
          <note key="38" pos="648" pan="0" len="120" vol="100"/>
          <note key="62" pos="768" pan="0" len="48" vol="100"/>
          <note key="57" pos="768" pan="0" len="48" vol="100"/>
          <note key="29" pos="768" pan="0" len="48" vol="100"/>
          <note key="60" pos="816" pan="0" len="48" vol="100"/>
          <note key="56" pos="816" pan="0" len="48" vol="100"/>
          <note key="30" pos="816" pan="0" len="48" vol="100"/>
          <note key="59" pos="864" pan="0" len="48" vol="100"/>
          <note key="55" pos="864" pan="0" len="48" vol="100"/>
          <note key="31" pos="864" pan="0" len="48" vol="100"/>
          <note key="58" pos="912" pan="0" len="48" vol="100"/>
          <note key="53" pos="912" pan="0" len="48" vol="100"/>
          <note key="32" pos="912" pan="0" len="48" vol="100"/>
        </midiclip>
        <midiclip name="" pos="0" muted="0" type="1" steps="16">
          <note key="71" pos="120" pan="0" len="24" vol="100"/>
          <note key="71" pos="144" pan="0" len="24" vol="100"/>
          <note key="72" pos="168" pan="0" len="24" vol="100"/>
          <note key="74" pos="192" pan="0" len="48" vol="100"/>
          <note key="67" pos="192" pan="0" len="144" vol="100"/>
          <note key="62" pos="192" pan="0" len="48" vol="100"/>
          <note key="59" pos="192" pan="0" len="192" vol="100"/>
          <note key="31" pos="192" pan="0" len="36" vol="100"/>
          <note key="43" pos="228" pan="0" len="24" vol="100"/>
          <note key="74" pos="240" pan="0" len="24" vol="100"/>
          <note key="62" pos="240" pan="0" len="144" vol="100"/>
          <note key="74" pos="264" pan="0" len="48" vol="100"/>
          <note key="31" pos="264" pan="0" len="72" vol="100"/>
          <note key="83" pos="312" pan="0" len="48" vol="100"/>
          <note key="67" pos="336" pan="0" len="48" vol="100"/>
          <note key="31" pos="336" pan="0" len="24" vol="100"/>
          <note key="83" pos="360" pan="0" len="48" vol="100"/>
          <note key="43" pos="360" pan="0" len="24" vol="100"/>
          <note key="69" pos="384" pan="0" len="192" vol="100"/>
          <note key="66" pos="384" pan="0" len="48" vol="100"/>
          <note key="62" pos="384" pan="0" len="144" vol="100"/>
          <note key="35" pos="384" pan="0" len="36" vol="100"/>
          <note key="81" pos="408" pan="0" len="48" vol="100"/>
          <note key="47" pos="420" pan="0" len="24" vol="100"/>
          <note key="66" pos="432" pan="0" len="144" vol="100"/>
          <note key="81" pos="456" pan="0" len="48" vol="100"/>
          <note key="35" pos="456" pan="0" len="72" vol="100"/>
          <note key="79" pos="504" pan="0" len="24" vol="100"/>
          <note key="78" pos="528" pan="0" len="24" vol="100"/>
          <note key="62" pos="528" pan="0" len="48" vol="100"/>
          <note key="35" pos="528" pan="0" len="24" vol="100"/>
          <note key="76" pos="552" pan="0" len="48" vol="100"/>
          <note key="47" pos="552" pan="0" len="24" vol="100"/>
          <note key="64" pos="576" pan="0" len="192" vol="100"/>
          <note key="60" pos="576" pan="0" len="48" vol="100"/>
          <note key="55" pos="576" pan="0" len="144" vol="100"/>
          <note key="36" pos="576" pan="0" len="36" vol="100"/>
          <note key="76" pos="600" pan="0" len="24" vol="100"/>
          <note key="48" pos="612" pan="0" len="24" vol="100"/>
          <note key="76" pos="624" pan="0" len="24" vol="100"/>
          <note key="60" pos="624" pan="0" len="144" vol="100"/>
          <note key="76" pos="648" pan="0" len="48" vol="100"/>
          <note key="36" pos="648" pan="0" len="72" vol="100"/>
          <note key="76" pos="696" pan="0" len="24" vol="100"/>
          <note key="78" pos="720" pan="0" len="24" vol="100"/>
          <note key="55" pos="720" pan="0" len="48" vol="100"/>
          <note key="36" pos="720" pan="0" len="24" vol="100"/>
          <note key="79" pos="744" pan="0" len="96" vol="100"/>
          <note key="48" pos="744" pan="0" len="24" vol="100"/>
          <note key="67" pos="768" pan="0" len="36" vol="100"/>
          <note key="64" pos="768" pan="0" len="36" vol="100"/>
          <note key="60" pos="768" pan="0" len="36" vol="100"/>
          <note key="38" pos="768" pan="0" len="36" vol="100"/>
          <note key="67" pos="804" pan="0" len="36" vol="100"/>
          <note key="64" pos="804" pan="0" len="36" vol="100"/>
          <note key="60" pos="804" pan="0" len="36" vol="100"/>
          <note key="26" pos="804" pan="0" len="24" vol="100"/>
          <note key="78" pos="840" pan="0" len="48" vol="100"/>
          <note key="69" pos="840" pan="0" len="36" vol="100"/>
          <note key="66" pos="840" pan="0" len="36" vol="100"/>
          <note key="62" pos="840" pan="0" len="36" vol="100"/>
          <note key="38" pos="840" pan="0" len="36" vol="100"/>
          <note key="69" pos="876" pan="0" len="36" vol="100"/>
          <note key="66" pos="876" pan="0" len="36" vol="100"/>
          <note key="62" pos="876" pan="0" len="36" vol="100"/>
          <note key="26" pos="876" pan="0" len="24" vol="100"/>
          <note key="71" pos="888" pan="0" len="24" vol="100"/>
          <note key="71" pos="912" pan="0" len="24" vol="100"/>
          <note key="69" pos="912" pan="0" len="48" vol="100"/>
          <note key="66" pos="912" pan="0" len="48" vol="100"/>
          <note key="62" pos="912" pan="0" len="48" vol="100"/>
          <note key="26" pos="912" pan="0" len="24" vol="100"/>
          <note key="72" pos="936" pan="0" len="24" vol="100"/>
          <note key="26" pos="936" pan="0" len="24" vol="100"/>
          <note key="74" pos="960" pan="0" len="48" vol="100"/>
          <note key="67" pos="960" pan="0" len="192" vol="100"/>
          <note key="62" pos="960" pan="0" len="144" vol="100"/>
          <note key="59" pos="960" pan="0" len="48" vol="100"/>
          <note key="31" pos="960" pan="0" len="36" vol="100"/>
          <note key="43" pos="996" pan="0" len="24" vol="100"/>
          <note key="74" pos="1008" pan="0" len="24" vol="100"/>
          <note key="59" pos="1008" pan="0" len="144" vol="100"/>
          <note key="74" pos="1032" pan="0" len="48" vol="100"/>
          <note key="31" pos="1032" pan="0" len="72" vol="100"/>
          <note key="83" pos="1080" pan="0" len="48" vol="100"/>
          <note key="62" pos="1104" pan="0" len="48" vol="100"/>
          <note key="31" pos="1104" pan="0" len="24" vol="100"/>
          <note key="83" pos="1128" pan="0" len="48" vol="100"/>
          <note key="43" pos="1128" pan="0" len="24" vol="100"/>
          <note key="69" pos="1152" pan="0" len="144" vol="100"/>
          <note key="66" pos="1152" pan="0" len="48" vol="100"/>
          <note key="62" pos="1152" pan="0" len="192" vol="100"/>
          <note key="35" pos="1152" pan="0" len="36" vol="100"/>
          <note key="84" pos="1176" pan="0" len="48" vol="100"/>
          <note key="47" pos="1188" pan="0" len="24" vol="100"/>
          <note key="66" pos="1200" pan="0" len="144" vol="100"/>
          <note key="81" pos="1224" pan="0" len="48" vol="100"/>
          <note key="35" pos="1224" pan="0" len="72" vol="100"/>
          <note key="79" pos="1272" pan="0" len="24" vol="100"/>
          <note key="78" pos="1296" pan="0" len="24" vol="100"/>
          <note key="69" pos="1296" pan="0" len="48" vol="100"/>
          <note key="35" pos="1296" pan="0" len="24" vol="100"/>
          <note key="76" pos="1320" pan="0" len="48" vol="100"/>
          <note key="47" pos="1320" pan="0" len="24" vol="100"/>
          <note key="67" pos="1344" pan="0" len="192" vol="100"/>
          <note key="64" pos="1344" pan="0" len="48" vol="100"/>
          <note key="60" pos="1344" pan="0" len="144" vol="100"/>
          <note key="43" pos="1344" pan="0" len="36" vol="100"/>
          <note key="76" pos="1368" pan="0" len="24" vol="100"/>
          <note key="36" pos="1380" pan="0" len="24" vol="100"/>
          <note key="76" pos="1392" pan="0" len="24" vol="100"/>
          <note key="64" pos="1392" pan="0" len="144" vol="100"/>
          <note key="76" pos="1416" pan="0" len="48" vol="100"/>
          <note key="43" pos="1416" pan="0" len="72" vol="100"/>
          <note key="74" pos="1464" pan="0" len="24" vol="100"/>
          <note key="76" pos="1488" pan="0" len="24" vol="100"/>
          <note key="60" pos="1488" pan="0" len="48" vol="100"/>
          <note key="43" pos="1488" pan="0" len="24" vol="100"/>
          <note key="78" pos="1512" pan="0" len="72" vol="100"/>
          <note key="36" pos="1512" pan="0" len="24" vol="100"/>
          <note key="66" pos="1536" pan="0" len="144" vol="100"/>
          <note key="62" pos="1536" pan="0" len="48" vol="100"/>
          <note key="57" pos="1536" pan="0" len="144" vol="100"/>
          <note key="38" pos="1536" pan="0" len="36" vol="100"/>
          <note key="50" pos="1572" pan="0" len="24" vol="100"/>
          <note key="76" pos="1584" pan="0" len="48" vol="100"/>
          <note key="62" pos="1584" pan="0" len="96" vol="100"/>
          <note key="38" pos="1608" pan="0" len="72" vol="100"/>
          <note key="72" pos="1632" pan="0" len="48" vol="100"/>
          <note key="71" pos="1680" pan="0" len="48" vol="100"/>
          <note key="69" pos="1680" pan="0" len="48" vol="100"/>
          <note key="66" pos="1680" pan="0" len="48" vol="100"/>
          <note key="60" pos="1680" pan="0" len="48" vol="100"/>
          <note key="38" pos="1680" pan="0" len="24" vol="100"/>
          <note key="50" pos="1704" pan="0" len="24" vol="100"/>
        </midiclip>
        <midiclip name="" pos="3456" muted="0" type="1" steps="16">
          <note key="62" pos="0" pan="0" len="96" vol="100"/>
          <note key="57" pos="0" pan="0" len="96" vol="100"/>
          <note key="53" pos="0" pan="0" len="96" vol="100"/>
          <note key="38" pos="0" pan="0" len="96" vol="100"/>
          <note key="72" pos="24" pan="0" len="24" vol="100"/>
          <note key="74" pos="48" pan="0" len="24" vol="100"/>
          <note key="72" pos="72" pan="0" len="24" vol="100"/>
          <note key="74" pos="96" pan="0" len="48" vol="100"/>
          <note key="65" pos="96" pan="0" len="72" vol="100"/>
          <note key="62" pos="96" pan="0" len="72" vol="100"/>
          <note key="48" pos="96" pan="0" len="72" vol="100"/>
          <note key="41" pos="96" pan="0" len="72" vol="100"/>
          <note key="72" pos="144" pan="0" len="24" vol="100"/>
          <note key="74" pos="168" pan="0" len="48" vol="100"/>
          <note key="67" pos="168" pan="0" len="216" vol="100"/>
          <note key="60" pos="168" pan="0" len="216" vol="100"/>
          <note key="55" pos="168" pan="0" len="216" vol="100"/>
          <note key="43" pos="168" pan="0" len="96" vol="100"/>
          <note key="84" pos="216" pan="0" len="48" vol="100"/>
          <note key="83" pos="264" pan="0" len="48" vol="100"/>
          <note key="48" pos="264" pan="0" len="120" vol="100"/>
          <note key="79" pos="312" pan="0" len="48" vol="100"/>
          <note key="77" pos="360" pan="0" len="24" vol="100"/>
          <note key="60" pos="384" pan="0" len="96" vol="100"/>
          <note key="57" pos="384" pan="0" len="96" vol="100"/>
          <note key="50" pos="384" pan="0" len="96" vol="100"/>
          <note key="45" pos="384" pan="0" len="96" vol="100"/>
          <note key="72" pos="408" pan="0" len="24" vol="100"/>
          <note key="74" pos="432" pan="0" len="24" vol="100"/>
          <note key="72" pos="456" pan="0" len="24" vol="100"/>
          <note key="74" pos="480" pan="0" len="48" vol="100"/>
          <note key="65" pos="480" pan="0" len="72" vol="100"/>
          <note key="62" pos="480" pan="0" len="72" vol="100"/>
          <note key="48" pos="480" pan="0" len="72" vol="100"/>
          <note key="41" pos="480" pan="0" len="72" vol="100"/>
          <note key="72" pos="528" pan="0" len="24" vol="100"/>
          <note key="74" pos="552" pan="0" len="48" vol="100"/>
          <note key="65" pos="552" pan="0" len="216" vol="100"/>
          <note key="59" pos="552" pan="0" len="216" vol="100"/>
          <note key="55" pos="552" pan="0" len="216" vol="100"/>
          <note key="43" pos="552" pan="0" len="96" vol="100"/>
          <note key="84" pos="600" pan="0" len="48" vol="100"/>
          <note key="83" pos="648" pan="0" len="48" vol="100"/>
          <note key="41" pos="648" pan="0" len="72" vol="100"/>
          <note key="81" pos="696" pan="0" len="24" vol="100"/>
          <note key="79" pos="720" pan="0" len="24" vol="100"/>
          <note key="40" pos="720" pan="0" len="48" vol="100"/>
          <note key="76" pos="744" pan="0" len="24" vol="100"/>
        </midiclip>
        <midiclip name="" pos="4224" muted="0" type="1" steps="16">
          <note key="69" pos="0" pan="0" len="48" vol="100"/>
          <note key="64" pos="0" pan="0" len="48" vol="100"/>
          <note key="45" pos="0" pan="0" len="192" vol="100"/>
          <note key="33" pos="0" pan="0" len="192" vol="100"/>
          <note key="48" pos="24" pan="0" len="168" vol="100"/>
          <note key="69" pos="48" pan="0" len="24" vol="100"/>
          <note key="64" pos="48" pan="0" len="24" vol="100"/>
          <note key="52" pos="48" pan="0" len="144" vol="100"/>
          <note key="69" pos="72" pan="0" len="48" vol="100"/>
          <note key="64" pos="72" pan="0" len="48" vol="100"/>
          <note key="57" pos="72" pan="0" len="120" vol="100"/>
          <note key="76" pos="120" pan="0" len="48" vol="100"/>
          <note key="72" pos="120" pan="0" len="48" vol="100"/>
          <note key="76" pos="168" pan="0" len="48" vol="100"/>
          <note key="72" pos="168" pan="0" len="48" vol="100"/>
          <note key="43" pos="192" pan="0" len="192" vol="100"/>
          <note key="31" pos="192" pan="0" len="192" vol="100"/>
          <note key="74" pos="216" pan="0" len="48" vol="100"/>
          <note key="71" pos="216" pan="0" len="48" vol="100"/>
          <note key="47" pos="216" pan="0" len="168" vol="100"/>
          <note key="52" pos="240" pan="0" len="144" vol="100"/>
          <note key="74" pos="264" pan="0" len="48" vol="100"/>
          <note key="71" pos="264" pan="0" len="48" vol="100"/>
          <note key="55" pos="264" pan="0" len="120" vol="100"/>
          <note key="72" pos="312" pan="0" len="24" vol="100"/>
          <note key="69" pos="312" pan="0" len="24" vol="100"/>
          <note key="71" pos="336" pan="0" len="24" vol="100"/>
          <note key="67" pos="336" pan="0" len="24" vol="100"/>
          <note key="69" pos="360" pan="0" len="48" vol="100"/>
          <note key="65" pos="360" pan="0" len="48" vol="100"/>
          <note key="41" pos="384" pan="0" len="192" vol="100"/>
          <note key="36" pos="384" pan="0" len="192" vol="100"/>
          <note key="69" pos="408" pan="0" len="24" vol="100"/>
          <note key="65" pos="408" pan="0" len="24" vol="100"/>
          <note key="45" pos="408" pan="0" len="168" vol="100"/>
          <note key="69" pos="432" pan="0" len="24" vol="100"/>
          <note key="65" pos="432" pan="0" len="24" vol="100"/>
          <note key="48" pos="432" pan="0" len="144" vol="100"/>
          <note key="69" pos="456" pan="0" len="48" vol="100"/>
          <note key="65" pos="456" pan="0" len="48" vol="100"/>
          <note key="53" pos="456" pan="0" len="120" vol="100"/>
          <note key="69" pos="504" pan="0" len="24" vol="100"/>
          <note key="65" pos="504" pan="0" len="24" vol="100"/>
          <note key="71" pos="528" pan="0" len="24" vol="100"/>
          <note key="67" pos="528" pan="0" len="24" vol="100"/>
          <note key="72" pos="552" pan="0" len="144" vol="100"/>
          <note key="69" pos="552" pan="0" len="144" vol="100"/>
          <note key="41" pos="576" pan="0" len="192" vol="100"/>
          <note key="38" pos="576" pan="0" len="192" vol="100"/>
          <note key="45" pos="612" pan="0" len="156" vol="100"/>
          <note key="53" pos="648" pan="0" len="120" vol="100"/>
          <note key="64" pos="696" pan="0" len="24" vol="100"/>
          <note key="59" pos="696" pan="0" len="24" vol="100"/>
          <note key="31" pos="696" pan="0" len="72" vol="100"/>
          <note key="64" pos="720" pan="0" len="24" vol="100"/>
          <note key="60" pos="720" pan="0" len="24" vol="100"/>
          <note key="67" pos="744" pan="0" len="24" vol="100"/>
          <note key="62" pos="744" pan="0" len="24" vol="100"/>
          <note key="69" pos="768" pan="0" len="48" vol="100"/>
          <note key="64" pos="768" pan="0" len="48" vol="100"/>
          <note key="45" pos="768" pan="0" len="192" vol="100"/>
          <note key="33" pos="768" pan="0" len="192" vol="100"/>
          <note key="48" pos="792" pan="0" len="168" vol="100"/>
          <note key="69" pos="816" pan="0" len="24" vol="100"/>
          <note key="64" pos="816" pan="0" len="24" vol="100"/>
          <note key="52" pos="816" pan="0" len="144" vol="100"/>
          <note key="69" pos="840" pan="0" len="48" vol="100"/>
          <note key="64" pos="840" pan="0" len="48" vol="100"/>
          <note key="57" pos="840" pan="0" len="120" vol="100"/>
          <note key="76" pos="888" pan="0" len="48" vol="100"/>
          <note key="72" pos="888" pan="0" len="48" vol="100"/>
          <note key="76" pos="936" pan="0" len="48" vol="100"/>
          <note key="72" pos="936" pan="0" len="48" vol="100"/>
          <note key="43" pos="960" pan="0" len="192" vol="100"/>
          <note key="31" pos="960" pan="0" len="192" vol="100"/>
          <note key="77" pos="984" pan="0" len="48" vol="100"/>
          <note key="74" pos="984" pan="0" len="48" vol="100"/>
          <note key="47" pos="984" pan="0" len="168" vol="100"/>
          <note key="52" pos="1008" pan="0" len="144" vol="100"/>
          <note key="74" pos="1032" pan="0" len="48" vol="100"/>
          <note key="71" pos="1032" pan="0" len="48" vol="100"/>
          <note key="55" pos="1032" pan="0" len="120" vol="100"/>
          <note key="72" pos="1080" pan="0" len="24" vol="100"/>
          <note key="69" pos="1080" pan="0" len="24" vol="100"/>
          <note key="71" pos="1104" pan="0" len="24" vol="100"/>
          <note key="67" pos="1104" pan="0" len="24" vol="100"/>
          <note key="69" pos="1128" pan="0" len="48" vol="100"/>
          <note key="65" pos="1128" pan="0" len="48" vol="100"/>
          <note key="41" pos="1152" pan="0" len="192" vol="100"/>
          <note key="36" pos="1152" pan="0" len="192" vol="100"/>
          <note key="69" pos="1176" pan="0" len="24" vol="100"/>
          <note key="65" pos="1176" pan="0" len="24" vol="100"/>
          <note key="45" pos="1176" pan="0" len="168" vol="100"/>
          <note key="69" pos="1200" pan="0" len="24" vol="100"/>
          <note key="65" pos="1200" pan="0" len="24" vol="100"/>
          <note key="48" pos="1200" pan="0" len="144" vol="100"/>
          <note key="69" pos="1224" pan="0" len="48" vol="100"/>
          <note key="65" pos="1224" pan="0" len="48" vol="100"/>
          <note key="53" pos="1224" pan="0" len="120" vol="100"/>
          <note key="69" pos="1272" pan="0" len="24" vol="100"/>
          <note key="65" pos="1272" pan="0" len="24" vol="100"/>
          <note key="71" pos="1296" pan="0" len="24" vol="100"/>
          <note key="67" pos="1296" pan="0" len="24" vol="100"/>
          <note key="72" pos="1320" pan="0" len="144" vol="100"/>
          <note key="69" pos="1320" pan="0" len="144" vol="100"/>
          <note key="41" pos="1344" pan="0" len="192" vol="100"/>
          <note key="38" pos="1344" pan="0" len="192" vol="100"/>
          <note key="45" pos="1380" pan="0" len="156" vol="100"/>
          <note key="53" pos="1416" pan="0" len="120" vol="100"/>
          <note key="31" pos="1464" pan="0" len="72" vol="100"/>
          <note key="67" pos="1488" pan="0" len="48" vol="100"/>
        </midiclip>
        <midiclip name="" pos="6528" muted="0" type="1" steps="16">
          <note key="69" pos="0" pan="0" len="48" vol="100"/>
          <note key="45" pos="0" pan="0" len="192" vol="100"/>
          <note key="33" pos="0" pan="0" len="192" vol="100"/>
          <note key="48" pos="24" pan="0" len="168" vol="100"/>
          <note key="72" pos="48" pan="0" len="24" vol="100"/>
          <note key="52" pos="48" pan="0" len="144" vol="100"/>
          <note key="76" pos="72" pan="0" len="48" vol="100"/>
          <note key="57" pos="72" pan="0" len="120" vol="100"/>
          <note key="72" pos="120" pan="0" len="72" vol="100"/>
          <note key="55" pos="120" pan="0" len="72" vol="100"/>
          <note key="50" pos="168" pan="0" len="24" vol="100"/>
          <note key="79" pos="192" pan="0" len="48" vol="100"/>
          <note key="43" pos="192" pan="0" len="192" vol="100"/>
          <note key="35" pos="192" pan="0" len="192" vol="100"/>
          <note key="47" pos="216" pan="0" len="168" vol="100"/>
          <note key="78" pos="240" pan="0" len="24" vol="100"/>
          <note key="50" pos="240" pan="0" len="144" vol="100"/>
          <note key="76" pos="264" pan="0" len="72" vol="100"/>
          <note key="55" pos="264" pan="0" len="120" vol="100"/>
          <note key="57" pos="312" pan="0" len="72" vol="100"/>
          <note key="74" pos="336" pan="0" len="48" vol="100"/>
          <note key="52" pos="360" pan="0" len="24" vol="100"/>
          <note key="69" pos="384" pan="0" len="192" vol="100"/>
          <note key="45" pos="384" pan="0" len="192" vol="100"/>
          <note key="38" pos="384" pan="0" len="192" vol="100"/>
          <note key="48" pos="408" pan="0" len="168" vol="100"/>
          <note key="54" pos="432" pan="0" len="144" vol="100"/>
          <note key="57" pos="456" pan="0" len="120" vol="100"/>
          <note key="59" pos="528" pan="0" len="48" vol="100"/>
          <note key="55" pos="552" pan="0" len="24" vol="100"/>
          <note key="74" pos="576" pan="0" len="192" vol="100"/>
          <note key="45" pos="576" pan="0" len="192" vol="100"/>
          <note key="38" pos="576" pan="0" len="192" vol="100"/>
          <note key="48" pos="600" pan="0" len="168" vol="100"/>
          <note key="50" pos="624" pan="0" len="144" vol="100"/>
          <note key="54" pos="648" pan="0" len="120" vol="100"/>
          <note key="55" pos="696" pan="0" len="72" vol="100"/>
          <note key="57" pos="744" pan="0" len="24" vol="100"/>
          <note key="77" pos="768" pan="0" len="144" vol="100"/>
          <note key="41" pos="768" pan="0" len="192" vol="100"/>
          <note key="36" pos="768" pan="0" len="192" vol="100"/>
          <note key="48" pos="792" pan="0" len="168" vol="100"/>
          <note key="53" pos="816" pan="0" len="144" vol="100"/>
          <note key="57" pos="840" pan="0" len="96" vol="100"/>
          <note key="60" pos="888" pan="0" len="72" vol="100"/>
          <note key="74" pos="912" pan="0" len="48" vol="100"/>
          <note key="57" pos="936" pan="0" len="24" vol="100"/>
          <note key="76" pos="960" pan="0" len="96" vol="100"/>
          <note key="41" pos="960" pan="0" len="192" vol="100"/>
          <note key="33" pos="960" pan="0" len="192" vol="100"/>
          <note key="48" pos="984" pan="0" len="168" vol="100"/>
          <note key="53" pos="1008" pan="0" len="144" vol="100"/>
          <note key="57" pos="1032" pan="0" len="120" vol="100"/>
          <note key="74" pos="1056" pan="0" len="24" vol="100"/>
          <note key="72" pos="1080" pan="0" len="24" vol="100"/>
          <note key="71" pos="1104" pan="0" len="24" vol="100"/>
          <note key="59" pos="1104" pan="0" len="48" vol="100"/>
          <note key="69" pos="1128" pan="0" len="24" vol="100"/>
          <note key="60" pos="1128" pan="0" len="24" vol="100"/>
          <note key="71" pos="1152" pan="0" len="72" vol="100"/>
          <note key="43" pos="1152" pan="0" len="192" vol="100"/>
          <note key="35" pos="1152" pan="0" len="192" vol="100"/>
          <note key="47" pos="1176" pan="0" len="168" vol="100"/>
          <note key="50" pos="1200" pan="0" len="144" vol="100"/>
          <note key="74" pos="1224" pan="0" len="72" vol="100"/>
          <note key="55" pos="1224" pan="0" len="120" vol="100"/>
          <note key="57" pos="1272" pan="0" len="72" vol="100"/>
          <note key="67" pos="1296" pan="0" len="48" vol="100"/>
          <note key="52" pos="1320" pan="0" len="24" vol="100"/>
          <note key="66" pos="1344" pan="0" len="192" vol="100"/>
          <note key="45" pos="1344" pan="0" len="192" vol="100"/>
          <note key="38" pos="1344" pan="0" len="192" vol="100"/>
          <note key="47" pos="1368" pan="0" len="168" vol="100"/>
          <note key="50" pos="1392" pan="0" len="144" vol="100"/>
          <note key="57" pos="1416" pan="0" len="120" vol="100"/>
          <note key="59" pos="1488" pan="0" len="24" vol="100"/>
          <note key="55" pos="1512" pan="0" len="24" vol="100"/>
          <note key="65" pos="1536" pan="0" len="192" vol="100"/>
          <note key="60" pos="1536" pan="0" len="192" vol="100"/>
          <note key="57" pos="1536" pan="0" len="192" vol="100"/>
          <note key="53" pos="1536" pan="0" len="192" vol="100"/>
          <note key="48" pos="1536" pan="0" len="192" vol="100"/>
          <note key="29" pos="1536" pan="0" len="192" vol="100"/>
          <note key="67" pos="1728" pan="0" len="192" vol="100"/>
          <note key="64" pos="1728" pan="0" len="192" vol="100"/>
          <note key="60" pos="1728" pan="0" len="192" vol="100"/>
          <note key="55" pos="1728" pan="0" len="192" vol="100"/>
          <note key="52" pos="1728" pan="0" len="192" vol="100"/>
          <note key="31" pos="1728" pan="0" len="192" vol="100"/>
          <note key="69" pos="1920" pan="0" len="192" vol="100"/>
          <note key="64" pos="1920" pan="0" len="192" vol="100"/>
          <note key="60" pos="1920" pan="0" len="192" vol="100"/>
          <note key="57" pos="1920" pan="0" len="192" vol="100"/>
          <note key="52" pos="1920" pan="0" len="192" vol="100"/>
          <note key="33" pos="1920" pan="0" len="192" vol="100"/>
          <note key="71" pos="2112" pan="0" len="120" vol="100"/>
          <note key="67" pos="2112" pan="0" len="120" vol="100"/>
          <note key="62" pos="2112" pan="0" len="192" vol="100"/>
          <note key="59" pos="2112" pan="0" len="192" vol="100"/>
          <note key="55" pos="2112" pan="0" len="192" vol="100"/>
          <note key="38" pos="2112" pan="0" len="96" vol="100"/>
          <note key="35" pos="2208" pan="0" len="96" vol="100"/>
          <note key="71" pos="2232" pan="0" len="24" vol="100"/>
          <note key="67" pos="2232" pan="0" len="24" vol="100"/>
          <note key="71" pos="2256" pan="0" len="24" vol="100"/>
          <note key="67" pos="2256" pan="0" len="24" vol="100"/>
          <note key="72" pos="2280" pan="0" len="24" vol="100"/>
          <note key="69" pos="2280" pan="0" len="24" vol="100"/>
          <note key="74" pos="2304" pan="0" len="48" vol="100"/>
          <note key="71" pos="2304" pan="0" len="48" vol="100"/>
          <note key="67" pos="2304" pan="0" len="144" vol="100"/>
          <note key="62" pos="2304" pan="0" len="48" vol="100"/>
          <note key="59" pos="2304" pan="0" len="192" vol="100"/>
          <note key="31" pos="2304" pan="0" len="36" vol="100"/>
          <note key="43" pos="2340" pan="0" len="24" vol="100"/>
          <note key="74" pos="2352" pan="0" len="24" vol="100"/>
          <note key="71" pos="2352" pan="0" len="24" vol="100"/>
          <note key="62" pos="2352" pan="0" len="144" vol="100"/>
          <note key="74" pos="2376" pan="0" len="48" vol="100"/>
          <note key="71" pos="2376" pan="0" len="48" vol="100"/>
          <note key="31" pos="2376" pan="0" len="72" vol="100"/>
          <note key="83" pos="2424" pan="0" len="48" vol="100"/>
          <note key="76" pos="2424" pan="0" len="48" vol="100"/>
          <note key="67" pos="2448" pan="0" len="48" vol="100"/>
          <note key="31" pos="2448" pan="0" len="24" vol="100"/>
          <note key="83" pos="2472" pan="0" len="48" vol="100"/>
          <note key="76" pos="2472" pan="0" len="48" vol="100"/>
          <note key="43" pos="2472" pan="0" len="24" vol="100"/>
          <note key="69" pos="2496" pan="0" len="192" vol="100"/>
          <note key="66" pos="2496" pan="0" len="48" vol="100"/>
          <note key="62" pos="2496" pan="0" len="144" vol="100"/>
          <note key="35" pos="2496" pan="0" len="36" vol="100"/>
          <note key="81" pos="2520" pan="0" len="48" vol="100"/>
          <note key="74" pos="2520" pan="0" len="48" vol="100"/>
          <note key="47" pos="2532" pan="0" len="24" vol="100"/>
          <note key="66" pos="2544" pan="0" len="144" vol="100"/>
          <note key="81" pos="2568" pan="0" len="48" vol="100"/>
          <note key="74" pos="2568" pan="0" len="48" vol="100"/>
          <note key="35" pos="2568" pan="0" len="72" vol="100"/>
          <note key="79" pos="2616" pan="0" len="24" vol="100"/>
          <note key="71" pos="2616" pan="0" len="24" vol="100"/>
          <note key="78" pos="2640" pan="0" len="24" vol="100"/>
          <note key="71" pos="2640" pan="0" len="24" vol="100"/>
          <note key="62" pos="2640" pan="0" len="48" vol="100"/>
          <note key="35" pos="2640" pan="0" len="24" vol="100"/>
          <note key="76" pos="2664" pan="0" len="48" vol="100"/>
          <note key="72" pos="2664" pan="0" len="48" vol="100"/>
          <note key="47" pos="2664" pan="0" len="24" vol="100"/>
          <note key="64" pos="2688" pan="0" len="192" vol="100"/>
          <note key="60" pos="2688" pan="0" len="48" vol="100"/>
          <note key="55" pos="2688" pan="0" len="144" vol="100"/>
          <note key="36" pos="2688" pan="0" len="36" vol="100"/>
          <note key="76" pos="2712" pan="0" len="24" vol="100"/>
          <note key="72" pos="2712" pan="0" len="24" vol="100"/>
          <note key="48" pos="2724" pan="0" len="24" vol="100"/>
          <note key="76" pos="2736" pan="0" len="24" vol="100"/>
          <note key="72" pos="2736" pan="0" len="24" vol="100"/>
          <note key="60" pos="2736" pan="0" len="144" vol="100"/>
          <note key="76" pos="2760" pan="0" len="48" vol="100"/>
          <note key="72" pos="2760" pan="0" len="48" vol="100"/>
          <note key="36" pos="2760" pan="0" len="72" vol="100"/>
          <note key="76" pos="2808" pan="0" len="24" vol="100"/>
          <note key="71" pos="2808" pan="0" len="24" vol="100"/>
          <note key="78" pos="2832" pan="0" len="24" vol="100"/>
          <note key="72" pos="2832" pan="0" len="24" vol="100"/>
          <note key="55" pos="2832" pan="0" len="48" vol="100"/>
          <note key="36" pos="2832" pan="0" len="24" vol="100"/>
          <note key="79" pos="2856" pan="0" len="96" vol="100"/>
          <note key="74" pos="2856" pan="0" len="96" vol="100"/>
          <note key="48" pos="2856" pan="0" len="24" vol="100"/>
          <note key="67" pos="2880" pan="0" len="36" vol="100"/>
          <note key="64" pos="2880" pan="0" len="36" vol="100"/>
          <note key="60" pos="2880" pan="0" len="36" vol="100"/>
          <note key="38" pos="2880" pan="0" len="36" vol="100"/>
          <note key="67" pos="2916" pan="0" len="36" vol="100"/>
          <note key="64" pos="2916" pan="0" len="36" vol="100"/>
          <note key="60" pos="2916" pan="0" len="36" vol="100"/>
          <note key="26" pos="2916" pan="0" len="24" vol="100"/>
          <note key="78" pos="2952" pan="0" len="48" vol="100"/>
          <note key="74" pos="2952" pan="0" len="48" vol="100"/>
          <note key="69" pos="2952" pan="0" len="36" vol="100"/>
          <note key="66" pos="2952" pan="0" len="36" vol="100"/>
          <note key="62" pos="2952" pan="0" len="36" vol="100"/>
          <note key="38" pos="2952" pan="0" len="36" vol="100"/>
          <note key="69" pos="2988" pan="0" len="36" vol="100"/>
          <note key="66" pos="2988" pan="0" len="36" vol="100"/>
          <note key="62" pos="2988" pan="0" len="36" vol="100"/>
          <note key="26" pos="2988" pan="0" len="24" vol="100"/>
          <note key="71" pos="3000" pan="0" len="24" vol="100"/>
          <note key="71" pos="3024" pan="0" len="24" vol="100"/>
          <note key="69" pos="3024" pan="0" len="48" vol="100"/>
          <note key="66" pos="3024" pan="0" len="48" vol="100"/>
          <note key="62" pos="3024" pan="0" len="48" vol="100"/>
          <note key="26" pos="3024" pan="0" len="24" vol="100"/>
          <note key="72" pos="3048" pan="0" len="24" vol="100"/>
          <note key="26" pos="3048" pan="0" len="24" vol="100"/>
          <note key="74" pos="3072" pan="0" len="48" vol="100"/>
          <note key="71" pos="3072" pan="0" len="48" vol="100"/>
          <note key="67" pos="3072" pan="0" len="192" vol="100"/>
          <note key="62" pos="3072" pan="0" len="144" vol="100"/>
          <note key="59" pos="3072" pan="0" len="48" vol="100"/>
          <note key="31" pos="3072" pan="0" len="36" vol="100"/>
          <note key="43" pos="3108" pan="0" len="24" vol="100"/>
          <note key="74" pos="3120" pan="0" len="24" vol="100"/>
          <note key="71" pos="3120" pan="0" len="24" vol="100"/>
          <note key="59" pos="3120" pan="0" len="144" vol="100"/>
          <note key="74" pos="3144" pan="0" len="48" vol="100"/>
          <note key="71" pos="3144" pan="0" len="48" vol="100"/>
          <note key="31" pos="3144" pan="0" len="72" vol="100"/>
          <note key="83" pos="3192" pan="0" len="48" vol="100"/>
          <note key="76" pos="3192" pan="0" len="48" vol="100"/>
          <note key="62" pos="3216" pan="0" len="48" vol="100"/>
          <note key="31" pos="3216" pan="0" len="24" vol="100"/>
          <note key="83" pos="3240" pan="0" len="48" vol="100"/>
          <note key="76" pos="3240" pan="0" len="48" vol="100"/>
          <note key="43" pos="3240" pan="0" len="24" vol="100"/>
          <note key="69" pos="3264" pan="0" len="144" vol="100"/>
          <note key="66" pos="3264" pan="0" len="48" vol="100"/>
          <note key="62" pos="3264" pan="0" len="192" vol="100"/>
          <note key="35" pos="3264" pan="0" len="36" vol="100"/>
          <note key="84" pos="3288" pan="0" len="48" vol="100"/>
          <note key="78" pos="3288" pan="0" len="48" vol="100"/>
          <note key="47" pos="3300" pan="0" len="24" vol="100"/>
          <note key="66" pos="3312" pan="0" len="144" vol="100"/>
          <note key="81" pos="3336" pan="0" len="48" vol="100"/>
          <note key="74" pos="3336" pan="0" len="48" vol="100"/>
          <note key="35" pos="3336" pan="0" len="72" vol="100"/>
          <note key="79" pos="3384" pan="0" len="24" vol="100"/>
          <note key="71" pos="3384" pan="0" len="24" vol="100"/>
          <note key="78" pos="3408" pan="0" len="24" vol="100"/>
          <note key="71" pos="3408" pan="0" len="24" vol="100"/>
          <note key="69" pos="3408" pan="0" len="48" vol="100"/>
          <note key="35" pos="3408" pan="0" len="24" vol="100"/>
          <note key="76" pos="3432" pan="0" len="48" vol="100"/>
          <note key="72" pos="3432" pan="0" len="48" vol="100"/>
          <note key="47" pos="3432" pan="0" len="24" vol="100"/>
          <note key="67" pos="3456" pan="0" len="192" vol="100"/>
          <note key="64" pos="3456" pan="0" len="48" vol="100"/>
          <note key="60" pos="3456" pan="0" len="144" vol="100"/>
          <note key="43" pos="3456" pan="0" len="36" vol="100"/>
          <note key="76" pos="3480" pan="0" len="24" vol="100"/>
          <note key="72" pos="3480" pan="0" len="24" vol="100"/>
          <note key="36" pos="3492" pan="0" len="24" vol="100"/>
          <note key="76" pos="3504" pan="0" len="24" vol="100"/>
          <note key="72" pos="3504" pan="0" len="24" vol="100"/>
          <note key="64" pos="3504" pan="0" len="144" vol="100"/>
          <note key="76" pos="3528" pan="0" len="48" vol="100"/>
          <note key="72" pos="3528" pan="0" len="48" vol="100"/>
          <note key="43" pos="3528" pan="0" len="72" vol="100"/>
          <note key="74" pos="3576" pan="0" len="24" vol="100"/>
          <note key="71" pos="3576" pan="0" len="24" vol="100"/>
          <note key="76" pos="3600" pan="0" len="24" vol="100"/>
          <note key="72" pos="3600" pan="0" len="24" vol="100"/>
          <note key="60" pos="3600" pan="0" len="48" vol="100"/>
          <note key="43" pos="3600" pan="0" len="24" vol="100"/>
          <note key="78" pos="3624" pan="0" len="72" vol="100"/>
          <note key="74" pos="3624" pan="0" len="72" vol="100"/>
          <note key="36" pos="3624" pan="0" len="24" vol="100"/>
          <note key="66" pos="3648" pan="0" len="144" vol="100"/>
          <note key="62" pos="3648" pan="0" len="48" vol="100"/>
          <note key="57" pos="3648" pan="0" len="144" vol="100"/>
          <note key="38" pos="3648" pan="0" len="36" vol="100"/>
          <note key="50" pos="3684" pan="0" len="24" vol="100"/>
          <note key="76" pos="3696" pan="0" len="48" vol="100"/>
          <note key="72" pos="3696" pan="0" len="48" vol="100"/>
          <note key="62" pos="3696" pan="0" len="96" vol="100"/>
          <note key="38" pos="3720" pan="0" len="72" vol="100"/>
          <note key="78" pos="3744" pan="0" len="48" vol="100"/>
          <note key="74" pos="3744" pan="0" len="48" vol="100"/>
          <note key="76" pos="3792" pan="0" len="48" vol="100"/>
          <note key="72" pos="3792" pan="0" len="48" vol="100"/>
          <note key="66" pos="3792" pan="0" len="48" vol="100"/>
          <note key="60" pos="3792" pan="0" len="48" vol="100"/>
          <note key="38" pos="3792" pan="0" len="24" vol="100"/>
          <note key="50" pos="3816" pan="0" len="24" vol="100"/>
        </midiclip>
        <midiclip name="" pos="10368" muted="0" type="1" steps="16">
          <note key="71" pos="0" pan="0" len="168" vol="100"/>
          <note key="67" pos="0" pan="0" len="108" vol="100"/>
          <note key="62" pos="0" pan="0" len="96" vol="100"/>
          <note key="47" pos="0" pan="0" len="768" vol="100"/>
          <note key="31" pos="0" pan="0" len="768" vol="100"/>
          <note key="50" pos="12" pan="0" len="756" vol="100"/>
          <note key="55" pos="24" pan="0" len="48" vol="100"/>
          <note key="59" pos="36" pan="0" len="48" vol="100"/>
          <note key="55" pos="72" pan="0" len="696" vol="100"/>
          <note key="59" pos="84" pan="0" len="684" vol="100"/>
          <note key="62" pos="96" pan="0" len="48" vol="100"/>
          <note key="67" pos="108" pan="0" len="48" vol="100"/>
          <note key="62" pos="144" pan="0" len="624" vol="100"/>
          <note key="67" pos="156" pan="0" len="612" vol="100"/>
          <note key="71" pos="168" pan="0" len="48" vol="100"/>
          <note key="74" pos="180" pan="0" len="48" vol="100"/>
          <note key="71" pos="216" pan="0" len="552" vol="100"/>
          <note key="74" pos="228" pan="0" len="144" vol="100"/>
          <note key="79" pos="240" pan="0" len="528" vol="100"/>
          <note key="83" pos="252" pan="0" len="84" vol="100"/>
          <note key="83" pos="336" pan="0" len="432" vol="100"/>
          <note key="81" pos="348" pan="0" len="420" vol="100"/>
          <note key="78" pos="360" pan="0" len="408" vol="100"/>
          <note key="74" pos="372" pan="0" len="396" vol="100"/>
        </midiclip>
        <midiclip name="" pos="5760" muted="0" type="1" steps="16">
          <note key="69" pos="0" pan="0" len="48" vol="100"/>
          <note key="45" pos="0" pan="0" len="192" vol="100"/>
          <note key="33" pos="0" pan="0" len="192" vol="100"/>
          <note key="48" pos="24" pan="0" len="168" vol="100"/>
          <note key="72" pos="48" pan="0" len="24" vol="100"/>
          <note key="52" pos="48" pan="0" len="144" vol="100"/>
          <note key="76" pos="72" pan="0" len="48" vol="100"/>
          <note key="57" pos="72" pan="0" len="120" vol="100"/>
          <note key="72" pos="120" pan="0" len="72" vol="100"/>
          <note key="55" pos="120" pan="0" len="72" vol="100"/>
          <note key="50" pos="168" pan="0" len="24" vol="100"/>
          <note key="71" pos="192" pan="0" len="48" vol="100"/>
          <note key="43" pos="192" pan="0" len="192" vol="100"/>
          <note key="35" pos="192" pan="0" len="192" vol="100"/>
          <note key="47" pos="216" pan="0" len="168" vol="100"/>
          <note key="69" pos="240" pan="0" len="24" vol="100"/>
          <note key="50" pos="240" pan="0" len="144" vol="100"/>
          <note key="71" pos="264" pan="0" len="72" vol="100"/>
          <note key="55" pos="264" pan="0" len="120" vol="100"/>
          <note key="57" pos="312" pan="0" len="72" vol="100"/>
          <note key="67" pos="336" pan="0" len="48" vol="100"/>
          <note key="52" pos="360" pan="0" len="24" vol="100"/>
          <note key="66" pos="384" pan="0" len="192" vol="100"/>
          <note key="45" pos="384" pan="0" len="192" vol="100"/>
          <note key="38" pos="384" pan="0" len="192" vol="100"/>
          <note key="48" pos="408" pan="0" len="168" vol="100"/>
          <note key="54" pos="432" pan="0" len="144" vol="100"/>
          <note key="57" pos="456" pan="0" len="120" vol="100"/>
          <note key="59" pos="528" pan="0" len="48" vol="100"/>
          <note key="55" pos="552" pan="0" len="24" vol="100"/>
          <note key="62" pos="576" pan="0" len="192" vol="100"/>
          <note key="45" pos="576" pan="0" len="192" vol="100"/>
          <note key="38" pos="576" pan="0" len="192" vol="100"/>
          <note key="48" pos="600" pan="0" len="168" vol="100"/>
          <note key="50" pos="624" pan="0" len="144" vol="100"/>
          <note key="54" pos="648" pan="0" len="120" vol="100"/>
          <note key="55" pos="696" pan="0" len="72" vol="100"/>
          <note key="57" pos="744" pan="0" len="24" vol="100"/>
        </midiclip>
      </track>
      <track name="Touhou" muted="1" type="0" solo="0" mutedBeforeSolo="1">
        <instrumenttrack pitch="0" firstkey="0" lastkey="127" enabled="0" pan="0" scale="0" pitchrange="1" mixch="0" usemasterpitch="1" keymap="0" enablecc="0" vol="100" basenote="69" range_import="1">
          <midicontrollers cc27="0" cc125="0" cc109="0" cc48="0" cc22="0" cc75="0" cc67="0" cc15="0" cc90="0" cc5="0" cc3="0" cc21="0" cc52="0" cc89="0" cc106="0" cc117="0" cc61="0" cc36="0" cc77="0" cc35="0" cc83="0" cc8="0" cc11="0" cc45="0" cc85="0" cc14="0" cc71="0" cc49="0" cc51="0" cc12="0" cc122="0" cc126="0" cc29="0" cc68="0" cc82="0" cc93="0" cc64="0" cc72="0" cc97="0" cc70="0" cc17="0" cc111="0" cc50="0" cc56="0" cc28="0" cc40="0" cc94="0" cc34="0" cc23="0" cc81="0" cc18="0" cc127="0" cc30="0" cc115="0" cc26="0" cc53="0" cc66="0" cc99="0" cc54="0" cc9="0" cc41="0" cc62="0" cc69="0" cc59="0" cc32="0" cc74="0" cc87="0" cc91="0" cc103="0" cc33="0" cc88="0" cc25="0" cc24="0" cc10="0" cc1="0" cc19="0" cc16="0" cc47="0" cc58="0" cc102="0" cc121="0" cc112="0" cc65="0" cc104="0" cc123="0" cc80="0" cc13="0" cc107="0" cc6="0" cc124="0" cc101="0" cc76="0" cc46="0" cc110="0" cc108="0" cc78="0" cc79="0" cc4="0" cc96="0" cc20="0" cc2="0" cc84="0" cc105="0" cc113="0" cc116="0" cc86="0" cc63="0" cc38="0" cc42="0" cc100="0" cc60="0" cc0="0" cc118="0" cc43="0" cc39="0" cc7="0" cc73="0" cc95="0" cc57="0" cc44="0" cc92="0" cc55="0" cc119="0" cc98="0" cc37="0" cc31="0" cc114="0" cc120="0"/>
          <instrument name="sf2player">
            <sf2player patch="34" bank="0" reverbDamping="0" reverbRoomSize="0.2" reverbLevel="0.9" chorusSpeed="0.3" reverbOn="0" src="usersoundfont:Touhou.sf2" reverbWidth="0.5" chorusLevel="2" gain="0.7" chorusDepth="8" chorusOn="0" chorusNum="3">
              <key/>
            </sf2player>
          </instrument>
          <eldata fcut="14000" ftype="0" fres="0.5" fwet="0">
            <elvol lspd_denominator="4" amt="0" userwavefile="" hold="0.5" x100="0" pdel="0" att="0" sustain="0.5" lspd_syncmode="0" ctlenvamt="0" latt="0" dec="0.5" rel="0.1" lshp="0" lamt="0" lspd_numerator="4" lspd="0.1" lpdel="0"/>
            <elcut lspd_denominator="4" amt="0" userwavefile="" hold="0.5" x100="0" pdel="0" att="0" sustain="0.5" lspd_syncmode="0" ctlenvamt="0" latt="0" dec="0.5" rel="0.1" lshp="0" lamt="0" lspd_numerator="4" lspd="0.1" lpdel="0"/>
            <elres lspd_denominator="4" amt="0" userwavefile="" hold="0.5" x100="0" pdel="0" att="0" sustain="0.5" lspd_syncmode="0" ctlenvamt="0" latt="0" dec="0.5" rel="0.1" lshp="0" lamt="0" lspd_numerator="4" lspd="0.1" lpdel="0"/>
          </eldata>
          <chordcreator chordrange="1" chord-enabled="0" chord="0"/>
          <arpeggiator arptime="200" arpmiss="0" arpdir="0" arprange="1" arptime_numerator="4" arpmode="0" arpskip="0" arp="0" arptime_syncmode="0" arpcycle="0" arptime_denominator="4" arp-enabled="0" arprepeats="1" arpgate="100"/>
          <midiport outputcontroller="0" basevelocity="127" outputprogram="1" writable="0" outputchannel="1" fixedinputvelocity="-1" inputchannel="0" inputcontroller="0" readable="1" inports="" fixedoutputvelocity="-1" fixedoutputnote="-1"/>
          <fxchain enabled="0" numofeffects="0"/>
        </instrumenttrack>
      </track>
      <track name="SGM-V2" muted="0" type="0" solo="0" mutedBeforeSolo="0">
        <instrumenttrack pitch="0" firstkey="0" lastkey="127" enabled="0" pan="0" scale="0" pitchrange="1" mixch="0" usemasterpitch="0" keymap="0" enablecc="0" vol="70.4" basenote="69" range_import="1">
          <midicontrollers cc27="0" cc125="0" cc109="0" cc48="0" cc22="0" cc75="0" cc67="0" cc15="0" cc90="0" cc5="0" cc3="0" cc21="0" cc52="0" cc89="0" cc106="0" cc117="0" cc61="0" cc36="0" cc77="0" cc35="0" cc83="0" cc8="0" cc11="0" cc45="0" cc85="0" cc14="0" cc71="0" cc49="0" cc51="0" cc12="0" cc122="0" cc126="0" cc29="0" cc68="0" cc82="0" cc93="0" cc64="0" cc72="0" cc97="0" cc70="0" cc17="0" cc111="0" cc50="0" cc56="0" cc28="0" cc40="0" cc94="0" cc34="0" cc23="0" cc81="0" cc18="0" cc127="0" cc30="0" cc115="0" cc26="0" cc53="0" cc66="0" cc99="0" cc54="0" cc9="0" cc41="0" cc62="0" cc69="0" cc59="0" cc32="0" cc74="0" cc87="0" cc91="0" cc103="0" cc33="0" cc88="0" cc25="0" cc24="0" cc10="0" cc1="0" cc19="0" cc16="0" cc47="0" cc58="0" cc102="0" cc121="0" cc112="0" cc65="0" cc104="0" cc123="0" cc80="0" cc13="0" cc107="0" cc6="0" cc124="0" cc101="0" cc76="0" cc46="0" cc110="0" cc108="0" cc78="0" cc79="0" cc4="0" cc96="0" cc20="0" cc2="0" cc84="0" cc105="0" cc113="0" cc116="0" cc86="0" cc63="0" cc38="0" cc42="0" cc100="0" cc60="0" cc0="0" cc118="0" cc43="0" cc39="0" cc7="0" cc73="0" cc95="0" cc57="0" cc44="0" cc92="0" cc55="0" cc119="0" cc98="0" cc37="0" cc31="0" cc114="0" cc120="0"/>
          <instrument name="sf2player">
            <sf2player patch="8" bank="128" reverbDamping="0" reverbRoomSize="0.2" reverbLevel="0.9" chorusSpeed="0.3" reverbOn="0" src="usersoundfont:SGM-V2.01.sf2" reverbWidth="0.5" chorusLevel="2" gain="1" chorusDepth="8" chorusOn="0" chorusNum="3">
              <key/>
            </sf2player>
          </instrument>
          <eldata fcut="14000" ftype="0" fres="0.5" fwet="0">
            <elvol lspd_denominator="4" amt="0" userwavefile="" hold="0.5" x100="0" pdel="0" att="0" sustain="0.5" lspd_syncmode="0" ctlenvamt="0" latt="0" dec="0.5" rel="0.1" lshp="0" lamt="0" lspd_numerator="4" lspd="0.1" lpdel="0"/>
            <elcut lspd_denominator="4" amt="0" userwavefile="" hold="0.5" x100="0" pdel="0" att="0" sustain="0.5" lspd_syncmode="0" ctlenvamt="0" latt="0" dec="0.5" rel="0.1" lshp="0" lamt="0" lspd_numerator="4" lspd="0.1" lpdel="0"/>
            <elres lspd_denominator="4" amt="0" userwavefile="" hold="0.5" x100="0" pdel="0" att="0" sustain="0.5" lspd_syncmode="0" ctlenvamt="0" latt="0" dec="0.5" rel="0.1" lshp="0" lamt="0" lspd_numerator="4" lspd="0.1" lpdel="0"/>
          </eldata>
          <chordcreator chordrange="1" chord-enabled="0" chord="0"/>
          <arpeggiator arptime="200" arpmiss="0" arpdir="0" arprange="1" arptime_numerator="4" arpmode="0" arpskip="0" arp="0" arptime_syncmode="0" arpcycle="0" arptime_denominator="4" arp-enabled="0" arprepeats="1" arpgate="100"/>
          <midiport outputcontroller="0" basevelocity="127" outputprogram="1" writable="0" outputchannel="1" fixedinputvelocity="-1" inputchannel="0" inputcontroller="0" readable="1" inports="" fixedoutputvelocity="-1" fixedoutputnote="-1"/>
          <fxchain enabled="0" numofeffects="0"/>
        </instrumenttrack>
        <midiclip name="" pos="0" muted="0" type="1" steps="16">
          <note key="40" pos="108" pan="0" len="12" vol="100"/>
          <note key="38" pos="120" pan="0" len="12" vol="100"/>
          <note key="44" pos="132" pan="0" len="12" vol="100"/>
          <note key="46" pos="144" pan="0" len="12" vol="100"/>
          <note key="40" pos="144" pan="0" len="12" vol="100"/>
          <note key="36" pos="144" pan="0" len="12" vol="100"/>
        </midiclip>
        <midiclip name="" pos="192" muted="0" type="1" steps="16">
          <note key="42" pos="0" pan="0" len="12" vol="100"/>
          <note key="36" pos="0" pan="0" len="12" vol="100"/>
          <note key="46" pos="24" pan="0" len="12" vol="100"/>
          <note key="44" pos="48" pan="0" len="12" vol="100"/>
          <note key="44" pos="72" pan="0" len="12" vol="100"/>
          <note key="36" pos="72" pan="0" len="12" vol="100"/>
          <note key="40" pos="96" pan="0" len="12" vol="100"/>
          <note key="46" pos="120" pan="0" len="12" vol="100"/>
          <note key="36" pos="120" pan="0" len="12" vol="100"/>
          <note key="44" pos="144" pan="0" len="12" vol="100"/>
          <note key="42" pos="168" pan="0" len="12" vol="100"/>
          <note key="38" pos="168" pan="0" len="12" vol="100"/>
          <note key="36" pos="192" pan="0" len="12" vol="100"/>
          <note key="46" pos="216" pan="0" len="12" vol="100"/>
          <note key="36" pos="216" pan="0" len="12" vol="100"/>
          <note key="44" pos="240" pan="0" len="12" vol="100"/>
          <note key="44" pos="264" pan="0" len="12" vol="100"/>
          <note key="36" pos="264" pan="0" len="12" vol="100"/>
          <note key="40" pos="288" pan="0" len="12" vol="100"/>
          <note key="46" pos="312" pan="0" len="12" vol="100"/>
          <note key="36" pos="312" pan="0" len="12" vol="100"/>
          <note key="44" pos="336" pan="0" len="12" vol="100"/>
          <note key="36" pos="348" pan="0" len="12" vol="100"/>
          <note key="38" pos="360" pan="0" len="12" vol="100"/>
          <note key="44" pos="372" pan="0" len="12" vol="100"/>
        </midiclip>
        <midiclip name="" pos="576" muted="0" type="1" steps="16">
          <note key="42" pos="0" pan="0" len="12" vol="100"/>
          <note key="36" pos="0" pan="0" len="12" vol="100"/>
          <note key="46" pos="24" pan="0" len="12" vol="100"/>
          <note key="44" pos="48" pan="0" len="12" vol="100"/>
          <note key="44" pos="72" pan="0" len="12" vol="100"/>
          <note key="36" pos="72" pan="0" len="12" vol="100"/>
          <note key="40" pos="96" pan="0" len="12" vol="100"/>
          <note key="46" pos="120" pan="0" len="12" vol="100"/>
          <note key="36" pos="120" pan="0" len="12" vol="100"/>
          <note key="44" pos="144" pan="0" len="12" vol="100"/>
          <note key="42" pos="168" pan="0" len="12" vol="100"/>
          <note key="38" pos="168" pan="0" len="12" vol="100"/>
          <note key="36" pos="192" pan="0" len="12" vol="100"/>
          <note key="46" pos="216" pan="0" len="12" vol="100"/>
          <note key="36" pos="216" pan="0" len="12" vol="100"/>
          <note key="44" pos="240" pan="0" len="12" vol="100"/>
          <note key="44" pos="264" pan="0" len="12" vol="100"/>
          <note key="36" pos="264" pan="0" len="12" vol="100"/>
          <note key="40" pos="288" pan="0" len="12" vol="100"/>
          <note key="46" pos="312" pan="0" len="12" vol="100"/>
          <note key="36" pos="312" pan="0" len="12" vol="100"/>
          <note key="44" pos="336" pan="0" len="12" vol="100"/>
          <note key="36" pos="348" pan="0" len="12" vol="100"/>
          <note key="38" pos="360" pan="0" len="12" vol="100"/>
          <note key="44" pos="372" pan="0" len="12" vol="100"/>
        </midiclip>
        <midiclip name="" pos="960" muted="0" type="1" steps="16">
          <note key="42" pos="0" pan="0" len="12" vol="100"/>
          <note key="36" pos="0" pan="0" len="12" vol="100"/>
          <note key="46" pos="24" pan="0" len="12" vol="100"/>
          <note key="44" pos="48" pan="0" len="12" vol="100"/>
          <note key="44" pos="72" pan="0" len="12" vol="100"/>
          <note key="36" pos="72" pan="0" len="12" vol="100"/>
          <note key="40" pos="96" pan="0" len="12" vol="100"/>
          <note key="46" pos="120" pan="0" len="12" vol="100"/>
          <note key="36" pos="120" pan="0" len="12" vol="100"/>
          <note key="44" pos="144" pan="0" len="12" vol="100"/>
          <note key="42" pos="168" pan="0" len="12" vol="100"/>
          <note key="38" pos="168" pan="0" len="12" vol="100"/>
          <note key="36" pos="192" pan="0" len="12" vol="100"/>
          <note key="46" pos="216" pan="0" len="12" vol="100"/>
          <note key="36" pos="216" pan="0" len="12" vol="100"/>
          <note key="44" pos="240" pan="0" len="12" vol="100"/>
          <note key="44" pos="264" pan="0" len="12" vol="100"/>
          <note key="36" pos="264" pan="0" len="12" vol="100"/>
          <note key="40" pos="288" pan="0" len="12" vol="100"/>
          <note key="46" pos="312" pan="0" len="12" vol="100"/>
          <note key="36" pos="312" pan="0" len="12" vol="100"/>
          <note key="44" pos="336" pan="0" len="12" vol="100"/>
          <note key="36" pos="348" pan="0" len="12" vol="100"/>
          <note key="38" pos="360" pan="0" len="12" vol="100"/>
          <note key="44" pos="372" pan="0" len="12" vol="100"/>
        </midiclip>
        <midiclip name="" pos="1344" muted="0" type="1" steps="16">
          <note key="42" pos="0" pan="0" len="12" vol="100"/>
          <note key="36" pos="0" pan="0" len="12" vol="100"/>
          <note key="46" pos="24" pan="0" len="12" vol="100"/>
          <note key="44" pos="48" pan="0" len="12" vol="100"/>
          <note key="44" pos="72" pan="0" len="12" vol="100"/>
          <note key="36" pos="72" pan="0" len="12" vol="100"/>
          <note key="40" pos="96" pan="0" len="12" vol="100"/>
          <note key="46" pos="120" pan="0" len="12" vol="100"/>
          <note key="36" pos="120" pan="0" len="12" vol="100"/>
          <note key="44" pos="144" pan="0" len="12" vol="100"/>
          <note key="42" pos="168" pan="0" len="12" vol="100"/>
          <note key="38" pos="168" pan="0" len="12" vol="100"/>
          <note key="36" pos="192" pan="0" len="12" vol="100"/>
          <note key="46" pos="216" pan="0" len="12" vol="100"/>
          <note key="36" pos="216" pan="0" len="12" vol="100"/>
          <note key="44" pos="240" pan="0" len="12" vol="100"/>
          <note key="44" pos="264" pan="0" len="12" vol="100"/>
          <note key="36" pos="264" pan="0" len="12" vol="100"/>
          <note key="40" pos="288" pan="0" len="12" vol="100"/>
          <note key="46" pos="312" pan="0" len="12" vol="100"/>
          <note key="36" pos="312" pan="0" len="12" vol="100"/>
          <note key="44" pos="336" pan="0" len="12" vol="100"/>
          <note key="36" pos="348" pan="0" len="12" vol="100"/>
          <note key="38" pos="360" pan="0" len="12" vol="100"/>
          <note key="44" pos="372" pan="0" len="12" vol="100"/>
        </midiclip>
        <midiclip name="" pos="1728" muted="0" type="1" steps="16">
          <note key="36" pos="0" pan="0" len="12" vol="100"/>
          <note key="42" pos="24" pan="0" len="12" vol="100"/>
          <note key="44" pos="48" pan="0" len="12" vol="100"/>
          <note key="44" pos="72" pan="0" len="12" vol="100"/>
          <note key="36" pos="72" pan="0" len="12" vol="100"/>
          <note key="46" pos="96" pan="0" len="12" vol="100"/>
          <note key="40" pos="96" pan="0" len="12" vol="100"/>
          <note key="36" pos="120" pan="0" len="12" vol="100"/>
          <note key="44" pos="144" pan="0" len="12" vol="100"/>
          <note key="42" pos="168" pan="0" len="12" vol="100"/>
          <note key="38" pos="168" pan="0" len="12" vol="100"/>
          <note key="36" pos="192" pan="0" len="12" vol="100"/>
          <note key="46" pos="216" pan="0" len="12" vol="100"/>
          <note key="36" pos="228" pan="0" len="12" vol="100"/>
          <note key="44" pos="240" pan="0" len="12" vol="100"/>
          <note key="44" pos="264" pan="0" len="12" vol="100"/>
          <note key="36" pos="264" pan="0" len="12" vol="100"/>
          <note key="40" pos="288" pan="0" len="12" vol="100"/>
          <note key="44" pos="312" pan="0" len="12" vol="100"/>
          <note key="36" pos="312" pan="0" len="12" vol="100"/>
          <note key="42" pos="336" pan="0" len="12" vol="100"/>
          <note key="44" pos="360" pan="0" len="12" vol="100"/>
          <note key="36" pos="360" pan="0" len="12" vol="100"/>
        </midiclip>
        <midiclip name="" pos="2112" muted="0" type="1" steps="16">
          <note key="36" pos="0" pan="0" len="12" vol="100"/>
          <note key="42" pos="24" pan="0" len="12" vol="100"/>
          <note key="44" pos="48" pan="0" len="12" vol="100"/>
          <note key="44" pos="72" pan="0" len="12" vol="100"/>
          <note key="36" pos="72" pan="0" len="12" vol="100"/>
          <note key="46" pos="96" pan="0" len="12" vol="100"/>
          <note key="40" pos="96" pan="0" len="12" vol="100"/>
          <note key="36" pos="120" pan="0" len="12" vol="100"/>
          <note key="44" pos="144" pan="0" len="12" vol="100"/>
          <note key="42" pos="168" pan="0" len="12" vol="100"/>
          <note key="38" pos="168" pan="0" len="12" vol="100"/>
          <note key="36" pos="192" pan="0" len="12" vol="100"/>
          <note key="46" pos="216" pan="0" len="12" vol="100"/>
          <note key="36" pos="228" pan="0" len="12" vol="100"/>
          <note key="44" pos="240" pan="0" len="12" vol="100"/>
          <note key="44" pos="264" pan="0" len="12" vol="100"/>
          <note key="36" pos="264" pan="0" len="12" vol="100"/>
          <note key="40" pos="288" pan="0" len="12" vol="100"/>
          <note key="44" pos="312" pan="0" len="12" vol="100"/>
          <note key="36" pos="312" pan="0" len="12" vol="100"/>
          <note key="42" pos="336" pan="0" len="12" vol="100"/>
          <note key="44" pos="360" pan="0" len="12" vol="100"/>
          <note key="36" pos="360" pan="0" len="12" vol="100"/>
        </midiclip>
        <midiclip name="" pos="2496" muted="0" type="1" steps="16">
          <note key="36" pos="0" pan="0" len="12" vol="100"/>
          <note key="42" pos="24" pan="0" len="12" vol="100"/>
          <note key="44" pos="48" pan="0" len="12" vol="100"/>
          <note key="44" pos="72" pan="0" len="12" vol="100"/>
          <note key="36" pos="72" pan="0" len="12" vol="100"/>
          <note key="46" pos="96" pan="0" len="12" vol="100"/>
          <note key="40" pos="96" pan="0" len="12" vol="100"/>
          <note key="36" pos="120" pan="0" len="12" vol="100"/>
          <note key="44" pos="144" pan="0" len="12" vol="100"/>
          <note key="42" pos="168" pan="0" len="12" vol="100"/>
          <note key="38" pos="168" pan="0" len="12" vol="100"/>
          <note key="36" pos="192" pan="0" len="12" vol="100"/>
          <note key="46" pos="216" pan="0" len="12" vol="100"/>
          <note key="36" pos="228" pan="0" len="12" vol="100"/>
          <note key="44" pos="240" pan="0" len="12" vol="100"/>
          <note key="44" pos="264" pan="0" len="12" vol="100"/>
          <note key="36" pos="264" pan="0" len="12" vol="100"/>
          <note key="40" pos="288" pan="0" len="12" vol="100"/>
          <note key="44" pos="312" pan="0" len="12" vol="100"/>
          <note key="36" pos="312" pan="0" len="12" vol="100"/>
          <note key="42" pos="336" pan="0" len="12" vol="100"/>
          <note key="44" pos="360" pan="0" len="12" vol="100"/>
          <note key="36" pos="360" pan="0" len="12" vol="100"/>
        </midiclip>
        <midiclip name="" pos="2880" muted="0" type="1" steps="16">
          <note key="36" pos="0" pan="0" len="12" vol="100"/>
          <note key="42" pos="24" pan="0" len="12" vol="100"/>
          <note key="44" pos="48" pan="0" len="12" vol="100"/>
          <note key="44" pos="72" pan="0" len="12" vol="100"/>
          <note key="36" pos="72" pan="0" len="12" vol="100"/>
          <note key="46" pos="96" pan="0" len="12" vol="100"/>
          <note key="40" pos="96" pan="0" len="12" vol="100"/>
          <note key="36" pos="120" pan="0" len="12" vol="100"/>
          <note key="44" pos="144" pan="0" len="12" vol="100"/>
          <note key="42" pos="168" pan="0" len="12" vol="100"/>
          <note key="38" pos="168" pan="0" len="12" vol="100"/>
          <note key="36" pos="192" pan="0" len="12" vol="100"/>
          <note key="46" pos="216" pan="0" len="12" vol="100"/>
          <note key="36" pos="228" pan="0" len="12" vol="100"/>
          <note key="44" pos="240" pan="0" len="12" vol="100"/>
          <note key="44" pos="264" pan="0" len="12" vol="100"/>
          <note key="36" pos="264" pan="0" len="12" vol="100"/>
          <note key="40" pos="288" pan="0" len="12" vol="100"/>
          <note key="44" pos="312" pan="0" len="12" vol="100"/>
          <note key="36" pos="312" pan="0" len="12" vol="100"/>
          <note key="42" pos="336" pan="0" len="12" vol="100"/>
          <note key="44" pos="360" pan="0" len="12" vol="100"/>
          <note key="36" pos="360" pan="0" len="12" vol="100"/>
        </midiclip>
        <midiclip name="" pos="3456" muted="0" type="1" steps="16">
          <note key="36" pos="0" pan="0" len="12" vol="100"/>
          <note key="42" pos="24" pan="0" len="12" vol="100"/>
          <note key="44" pos="48" pan="0" len="12" vol="100"/>
          <note key="44" pos="72" pan="0" len="12" vol="100"/>
          <note key="36" pos="72" pan="0" len="12" vol="100"/>
          <note key="46" pos="96" pan="0" len="12" vol="100"/>
          <note key="40" pos="96" pan="0" len="12" vol="100"/>
          <note key="36" pos="120" pan="0" len="12" vol="100"/>
          <note key="44" pos="144" pan="0" len="12" vol="100"/>
          <note key="46" pos="156" pan="0" len="12" vol="100"/>
          <note key="42" pos="168" pan="0" len="12" vol="100"/>
          <note key="38" pos="168" pan="0" len="12" vol="100"/>
          <note key="36" pos="192" pan="0" len="12" vol="100"/>
          <note key="42" pos="216" pan="0" len="12" vol="100"/>
          <note key="44" pos="240" pan="0" len="12" vol="100"/>
          <note key="46" pos="264" pan="0" len="12" vol="100"/>
          <note key="36" pos="264" pan="0" len="12" vol="100"/>
          <note key="40" pos="288" pan="0" len="12" vol="100"/>
          <note key="44" pos="312" pan="0" len="12" vol="100"/>
          <note key="36" pos="312" pan="0" len="12" vol="100"/>
          <note key="42" pos="336" pan="0" len="12" vol="100"/>
          <note key="44" pos="360" pan="0" len="12" vol="100"/>
          <note key="36" pos="360" pan="0" len="12" vol="100"/>
        </midiclip>
        <midiclip name="" pos="4224" muted="0" type="1" steps="16">
          <note key="36" pos="0" pan="0" len="12" vol="100"/>
          <note key="42" pos="24" pan="0" len="12" vol="100"/>
          <note key="44" pos="48" pan="0" len="12" vol="100"/>
          <note key="36" pos="48" pan="0" len="12" vol="100"/>
          <note key="44" pos="72" pan="0" len="12" vol="100"/>
          <note key="46" pos="96" pan="0" len="12" vol="100"/>
          <note key="40" pos="96" pan="0" len="12" vol="100"/>
          <note key="36" pos="120" pan="0" len="12" vol="100"/>
          <note key="44" pos="144" pan="0" len="12" vol="100"/>
          <note key="42" pos="168" pan="0" len="12" vol="100"/>
          <note key="38" pos="168" pan="0" len="12" vol="100"/>
          <note key="36" pos="192" pan="0" len="12" vol="100"/>
          <note key="46" pos="216" pan="0" len="12" vol="100"/>
          <note key="44" pos="240" pan="0" len="12" vol="100"/>
          <note key="36" pos="240" pan="0" len="12" vol="100"/>
          <note key="44" pos="264" pan="0" len="12" vol="100"/>
          <note key="46" pos="288" pan="0" len="12" vol="100"/>
          <note key="40" pos="288" pan="0" len="12" vol="100"/>
          <note key="36" pos="312" pan="0" len="12" vol="100"/>
          <note key="42" pos="336" pan="0" len="12" vol="100"/>
          <note key="44" pos="360" pan="0" len="12" vol="100"/>
        </midiclip>
        <midiclip name="" pos="3840" muted="0" type="1" steps="16">
          <note key="36" pos="0" pan="0" len="12" vol="100"/>
          <note key="42" pos="24" pan="0" len="12" vol="100"/>
          <note key="44" pos="48" pan="0" len="12" vol="100"/>
          <note key="44" pos="72" pan="0" len="12" vol="100"/>
          <note key="36" pos="72" pan="0" len="12" vol="100"/>
          <note key="46" pos="96" pan="0" len="12" vol="100"/>
          <note key="40" pos="96" pan="0" len="12" vol="100"/>
          <note key="36" pos="120" pan="0" len="12" vol="100"/>
          <note key="44" pos="144" pan="0" len="12" vol="100"/>
          <note key="46" pos="156" pan="0" len="12" vol="100"/>
          <note key="42" pos="168" pan="0" len="12" vol="100"/>
          <note key="38" pos="168" pan="0" len="12" vol="100"/>
          <note key="36" pos="192" pan="0" len="12" vol="100"/>
          <note key="42" pos="216" pan="0" len="12" vol="100"/>
          <note key="44" pos="240" pan="0" len="12" vol="100"/>
          <note key="46" pos="264" pan="0" len="12" vol="100"/>
          <note key="36" pos="264" pan="0" len="12" vol="100"/>
          <note key="40" pos="288" pan="0" len="12" vol="100"/>
          <note key="44" pos="312" pan="0" len="12" vol="100"/>
          <note key="36" pos="312" pan="0" len="12" vol="100"/>
          <note key="42" pos="336" pan="0" len="12" vol="100"/>
          <note key="44" pos="360" pan="0" len="12" vol="100"/>
          <note key="36" pos="360" pan="0" len="12" vol="100"/>
        </midiclip>
        <midiclip name="" pos="4608" muted="0" type="1" steps="16">
          <note key="36" pos="0" pan="0" len="12" vol="100"/>
          <note key="42" pos="24" pan="0" len="12" vol="100"/>
          <note key="44" pos="48" pan="0" len="12" vol="100"/>
          <note key="36" pos="48" pan="0" len="12" vol="100"/>
          <note key="44" pos="72" pan="0" len="12" vol="100"/>
          <note key="46" pos="96" pan="0" len="12" vol="100"/>
          <note key="40" pos="96" pan="0" len="12" vol="100"/>
          <note key="36" pos="120" pan="0" len="12" vol="100"/>
          <note key="44" pos="144" pan="0" len="12" vol="100"/>
          <note key="42" pos="168" pan="0" len="12" vol="100"/>
          <note key="38" pos="168" pan="0" len="12" vol="100"/>
          <note key="36" pos="192" pan="0" len="12" vol="100"/>
          <note key="46" pos="216" pan="0" len="12" vol="100"/>
          <note key="44" pos="240" pan="0" len="12" vol="100"/>
          <note key="36" pos="240" pan="0" len="12" vol="100"/>
          <note key="44" pos="264" pan="0" len="12" vol="100"/>
          <note key="46" pos="288" pan="0" len="12" vol="100"/>
          <note key="40" pos="288" pan="0" len="12" vol="100"/>
          <note key="36" pos="312" pan="0" len="12" vol="100"/>
          <note key="42" pos="336" pan="0" len="12" vol="100"/>
          <note key="44" pos="360" pan="0" len="12" vol="100"/>
        </midiclip>
        <midiclip name="" pos="4992" muted="0" type="1" steps="16">
          <note key="36" pos="0" pan="0" len="12" vol="100"/>
          <note key="42" pos="24" pan="0" len="12" vol="100"/>
          <note key="44" pos="48" pan="0" len="12" vol="100"/>
          <note key="36" pos="48" pan="0" len="12" vol="100"/>
          <note key="44" pos="72" pan="0" len="12" vol="100"/>
          <note key="46" pos="96" pan="0" len="12" vol="100"/>
          <note key="40" pos="96" pan="0" len="12" vol="100"/>
          <note key="36" pos="120" pan="0" len="12" vol="100"/>
          <note key="44" pos="144" pan="0" len="12" vol="100"/>
          <note key="42" pos="168" pan="0" len="12" vol="100"/>
          <note key="38" pos="168" pan="0" len="12" vol="100"/>
          <note key="36" pos="192" pan="0" len="12" vol="100"/>
          <note key="46" pos="216" pan="0" len="12" vol="100"/>
          <note key="44" pos="240" pan="0" len="12" vol="100"/>
          <note key="36" pos="240" pan="0" len="12" vol="100"/>
          <note key="44" pos="264" pan="0" len="12" vol="100"/>
          <note key="46" pos="288" pan="0" len="12" vol="100"/>
          <note key="40" pos="288" pan="0" len="12" vol="100"/>
          <note key="36" pos="312" pan="0" len="12" vol="100"/>
          <note key="42" pos="336" pan="0" len="12" vol="100"/>
          <note key="44" pos="360" pan="0" len="12" vol="100"/>
        </midiclip>
        <midiclip name="" pos="5376" muted="0" type="1" steps="16">
          <note key="36" pos="0" pan="0" len="12" vol="100"/>
          <note key="42" pos="24" pan="0" len="12" vol="100"/>
          <note key="44" pos="48" pan="0" len="12" vol="100"/>
          <note key="36" pos="48" pan="0" len="12" vol="100"/>
          <note key="44" pos="72" pan="0" len="12" vol="100"/>
          <note key="46" pos="96" pan="0" len="12" vol="100"/>
          <note key="40" pos="96" pan="0" len="12" vol="100"/>
          <note key="36" pos="120" pan="0" len="12" vol="100"/>
          <note key="44" pos="144" pan="0" len="12" vol="100"/>
          <note key="42" pos="168" pan="0" len="12" vol="100"/>
          <note key="38" pos="168" pan="0" len="12" vol="100"/>
          <note key="36" pos="192" pan="0" len="12" vol="100"/>
          <note key="46" pos="216" pan="0" len="12" vol="100"/>
          <note key="44" pos="240" pan="0" len="12" vol="100"/>
          <note key="36" pos="240" pan="0" len="12" vol="100"/>
          <note key="44" pos="264" pan="0" len="12" vol="100"/>
          <note key="46" pos="288" pan="0" len="12" vol="100"/>
          <note key="40" pos="288" pan="0" len="12" vol="100"/>
          <note key="36" pos="312" pan="0" len="12" vol="100"/>
          <note key="42" pos="336" pan="0" len="12" vol="100"/>
          <note key="44" pos="360" pan="0" len="12" vol="100"/>
        </midiclip>
        <midiclip name="" pos="16704" muted="0" type="1" steps="16">
          <note key="36" pos="0" pan="0" len="12" vol="100"/>
          <note key="42" pos="24" pan="0" len="12" vol="100"/>
          <note key="44" pos="48" pan="0" len="12" vol="100"/>
          <note key="36" pos="48" pan="0" len="12" vol="100"/>
          <note key="44" pos="72" pan="0" len="12" vol="100"/>
          <note key="46" pos="96" pan="0" len="12" vol="100"/>
          <note key="40" pos="96" pan="0" len="12" vol="100"/>
          <note key="36" pos="120" pan="0" len="12" vol="100"/>
          <note key="44" pos="144" pan="0" len="12" vol="100"/>
          <note key="42" pos="168" pan="0" len="12" vol="100"/>
          <note key="38" pos="168" pan="0" len="12" vol="100"/>
          <note key="36" pos="192" pan="0" len="12" vol="100"/>
          <note key="46" pos="216" pan="0" len="12" vol="100"/>
          <note key="44" pos="240" pan="0" len="12" vol="100"/>
          <note key="36" pos="240" pan="0" len="12" vol="100"/>
          <note key="44" pos="264" pan="0" len="12" vol="100"/>
          <note key="46" pos="288" pan="0" len="12" vol="100"/>
          <note key="40" pos="288" pan="0" len="12" vol="100"/>
          <note key="36" pos="312" pan="0" len="12" vol="100"/>
          <note key="42" pos="336" pan="0" len="12" vol="100"/>
          <note key="44" pos="360" pan="0" len="12" vol="100"/>
        </midiclip>
        <midiclip name="" pos="17088" muted="0" type="1" steps="16">
          <note key="36" pos="0" pan="0" len="12" vol="100"/>
          <note key="42" pos="24" pan="0" len="12" vol="100"/>
          <note key="44" pos="48" pan="0" len="12" vol="100"/>
          <note key="36" pos="48" pan="0" len="12" vol="100"/>
          <note key="44" pos="72" pan="0" len="12" vol="100"/>
          <note key="46" pos="96" pan="0" len="12" vol="100"/>
          <note key="40" pos="96" pan="0" len="12" vol="100"/>
          <note key="36" pos="120" pan="0" len="12" vol="100"/>
          <note key="44" pos="144" pan="0" len="12" vol="100"/>
          <note key="42" pos="168" pan="0" len="12" vol="100"/>
          <note key="38" pos="168" pan="0" len="12" vol="100"/>
          <note key="36" pos="192" pan="0" len="12" vol="100"/>
          <note key="46" pos="216" pan="0" len="12" vol="100"/>
          <note key="44" pos="240" pan="0" len="12" vol="100"/>
          <note key="36" pos="240" pan="0" len="12" vol="100"/>
          <note key="44" pos="264" pan="0" len="12" vol="100"/>
          <note key="46" pos="288" pan="0" len="12" vol="100"/>
          <note key="40" pos="288" pan="0" len="12" vol="100"/>
          <note key="36" pos="312" pan="0" len="12" vol="100"/>
          <note key="42" pos="336" pan="0" len="12" vol="100"/>
          <note key="44" pos="360" pan="0" len="12" vol="100"/>
        </midiclip>
        <midiclip name="" pos="17472" muted="0" type="1" steps="16">
          <note key="36" pos="0" pan="0" len="12" vol="100"/>
          <note key="42" pos="24" pan="0" len="12" vol="100"/>
          <note key="44" pos="48" pan="0" len="12" vol="100"/>
          <note key="36" pos="48" pan="0" len="12" vol="100"/>
          <note key="44" pos="72" pan="0" len="12" vol="100"/>
          <note key="46" pos="96" pan="0" len="12" vol="100"/>
          <note key="40" pos="96" pan="0" len="12" vol="100"/>
          <note key="36" pos="120" pan="0" len="12" vol="100"/>
          <note key="44" pos="144" pan="0" len="12" vol="100"/>
          <note key="42" pos="168" pan="0" len="12" vol="100"/>
          <note key="38" pos="168" pan="0" len="12" vol="100"/>
          <note key="36" pos="192" pan="0" len="12" vol="100"/>
          <note key="46" pos="216" pan="0" len="12" vol="100"/>
          <note key="44" pos="240" pan="0" len="12" vol="100"/>
          <note key="36" pos="240" pan="0" len="12" vol="100"/>
          <note key="44" pos="264" pan="0" len="12" vol="100"/>
          <note key="46" pos="288" pan="0" len="12" vol="100"/>
          <note key="40" pos="288" pan="0" len="12" vol="100"/>
          <note key="36" pos="312" pan="0" len="12" vol="100"/>
          <note key="42" pos="336" pan="0" len="12" vol="100"/>
          <note key="44" pos="360" pan="0" len="12" vol="100"/>
        </midiclip>
        <midiclip name="" pos="17856" muted="0" type="1" steps="16">
          <note key="36" pos="0" pan="0" len="12" vol="100"/>
          <note key="42" pos="24" pan="0" len="12" vol="100"/>
          <note key="44" pos="48" pan="0" len="12" vol="100"/>
          <note key="36" pos="48" pan="0" len="12" vol="100"/>
          <note key="44" pos="72" pan="0" len="12" vol="100"/>
          <note key="46" pos="96" pan="0" len="12" vol="100"/>
          <note key="40" pos="96" pan="0" len="12" vol="100"/>
          <note key="36" pos="120" pan="0" len="12" vol="100"/>
          <note key="44" pos="144" pan="0" len="12" vol="100"/>
          <note key="42" pos="168" pan="0" len="12" vol="100"/>
          <note key="38" pos="168" pan="0" len="12" vol="100"/>
          <note key="36" pos="192" pan="0" len="12" vol="100"/>
          <note key="46" pos="216" pan="0" len="12" vol="100"/>
          <note key="44" pos="240" pan="0" len="12" vol="100"/>
          <note key="36" pos="240" pan="0" len="12" vol="100"/>
          <note key="44" pos="264" pan="0" len="12" vol="100"/>
          <note key="46" pos="288" pan="0" len="12" vol="100"/>
          <note key="40" pos="288" pan="0" len="12" vol="100"/>
          <note key="36" pos="312" pan="0" len="12" vol="100"/>
          <note key="42" pos="336" pan="0" len="12" vol="100"/>
          <note key="44" pos="360" pan="0" len="12" vol="100"/>
        </midiclip>
        <midiclip name="" pos="18240" muted="0" type="1" steps="16">
          <note key="36" pos="0" pan="0" len="12" vol="100"/>
          <note key="42" pos="24" pan="0" len="12" vol="100"/>
          <note key="44" pos="48" pan="0" len="12" vol="100"/>
          <note key="36" pos="48" pan="0" len="12" vol="100"/>
          <note key="44" pos="72" pan="0" len="12" vol="100"/>
          <note key="46" pos="96" pan="0" len="12" vol="100"/>
          <note key="40" pos="96" pan="0" len="12" vol="100"/>
          <note key="36" pos="120" pan="0" len="12" vol="100"/>
          <note key="44" pos="144" pan="0" len="12" vol="100"/>
          <note key="42" pos="168" pan="0" len="12" vol="100"/>
          <note key="38" pos="168" pan="0" len="12" vol="100"/>
          <note key="36" pos="192" pan="0" len="12" vol="100"/>
          <note key="46" pos="216" pan="0" len="12" vol="100"/>
          <note key="44" pos="240" pan="0" len="12" vol="100"/>
          <note key="36" pos="240" pan="0" len="12" vol="100"/>
          <note key="44" pos="264" pan="0" len="12" vol="100"/>
          <note key="46" pos="288" pan="0" len="12" vol="100"/>
          <note key="40" pos="288" pan="0" len="12" vol="100"/>
          <note key="36" pos="312" pan="0" len="12" vol="100"/>
          <note key="42" pos="336" pan="0" len="12" vol="100"/>
          <note key="44" pos="360" pan="0" len="12" vol="100"/>
        </midiclip>
        <midiclip name="" pos="18624" muted="0" type="1" steps="16">
          <note key="36" pos="0" pan="0" len="12" vol="100"/>
          <note key="42" pos="24" pan="0" len="12" vol="100"/>
          <note key="44" pos="48" pan="0" len="12" vol="100"/>
          <note key="36" pos="48" pan="0" len="12" vol="100"/>
          <note key="44" pos="72" pan="0" len="12" vol="100"/>
          <note key="46" pos="96" pan="0" len="12" vol="100"/>
          <note key="40" pos="96" pan="0" len="12" vol="100"/>
          <note key="36" pos="120" pan="0" len="12" vol="100"/>
          <note key="44" pos="144" pan="0" len="12" vol="100"/>
          <note key="42" pos="168" pan="0" len="12" vol="100"/>
          <note key="38" pos="168" pan="0" len="12" vol="100"/>
          <note key="36" pos="192" pan="0" len="12" vol="100"/>
          <note key="46" pos="216" pan="0" len="12" vol="100"/>
          <note key="44" pos="240" pan="0" len="12" vol="100"/>
          <note key="36" pos="240" pan="0" len="12" vol="100"/>
          <note key="44" pos="264" pan="0" len="12" vol="100"/>
          <note key="46" pos="288" pan="0" len="12" vol="100"/>
          <note key="40" pos="288" pan="0" len="12" vol="100"/>
          <note key="36" pos="312" pan="0" len="12" vol="100"/>
          <note key="42" pos="336" pan="0" len="12" vol="100"/>
          <note key="44" pos="360" pan="0" len="12" vol="100"/>
        </midiclip>
        <midiclip name="" pos="19008" muted="0" type="1" steps="16">
          <note key="36" pos="0" pan="0" len="12" vol="100"/>
          <note key="42" pos="24" pan="0" len="12" vol="100"/>
          <note key="44" pos="48" pan="0" len="12" vol="100"/>
          <note key="36" pos="48" pan="0" len="12" vol="100"/>
          <note key="44" pos="72" pan="0" len="12" vol="100"/>
          <note key="46" pos="96" pan="0" len="12" vol="100"/>
          <note key="40" pos="96" pan="0" len="12" vol="100"/>
          <note key="36" pos="120" pan="0" len="12" vol="100"/>
          <note key="44" pos="144" pan="0" len="12" vol="100"/>
          <note key="42" pos="168" pan="0" len="12" vol="100"/>
          <note key="38" pos="168" pan="0" len="12" vol="100"/>
          <note key="36" pos="192" pan="0" len="12" vol="100"/>
          <note key="46" pos="216" pan="0" len="12" vol="100"/>
          <note key="44" pos="240" pan="0" len="12" vol="100"/>
          <note key="36" pos="240" pan="0" len="12" vol="100"/>
          <note key="44" pos="264" pan="0" len="12" vol="100"/>
          <note key="46" pos="288" pan="0" len="12" vol="100"/>
          <note key="40" pos="288" pan="0" len="12" vol="100"/>
          <note key="36" pos="312" pan="0" len="12" vol="100"/>
          <note key="42" pos="336" pan="0" len="12" vol="100"/>
          <note key="44" pos="360" pan="0" len="12" vol="100"/>
        </midiclip>
        <midiclip name="" pos="19392" muted="0" type="1" steps="16">
          <note key="36" pos="0" pan="0" len="12" vol="100"/>
          <note key="42" pos="24" pan="0" len="12" vol="100"/>
          <note key="44" pos="48" pan="0" len="12" vol="100"/>
          <note key="36" pos="48" pan="0" len="12" vol="100"/>
          <note key="44" pos="72" pan="0" len="12" vol="100"/>
          <note key="46" pos="96" pan="0" len="12" vol="100"/>
          <note key="40" pos="96" pan="0" len="12" vol="100"/>
          <note key="36" pos="120" pan="0" len="12" vol="100"/>
          <note key="44" pos="144" pan="0" len="12" vol="100"/>
          <note key="42" pos="168" pan="0" len="12" vol="100"/>
          <note key="38" pos="168" pan="0" len="12" vol="100"/>
          <note key="36" pos="192" pan="0" len="12" vol="100"/>
          <note key="46" pos="216" pan="0" len="12" vol="100"/>
          <note key="44" pos="240" pan="0" len="12" vol="100"/>
          <note key="36" pos="240" pan="0" len="12" vol="100"/>
          <note key="44" pos="264" pan="0" len="12" vol="100"/>
          <note key="46" pos="288" pan="0" len="12" vol="100"/>
          <note key="40" pos="288" pan="0" len="12" vol="100"/>
          <note key="36" pos="312" pan="0" len="12" vol="100"/>
          <note key="42" pos="336" pan="0" len="12" vol="100"/>
          <note key="44" pos="360" pan="0" len="12" vol="100"/>
        </midiclip>
        <midiclip name="" pos="19776" muted="0" type="1" steps="16">
          <note key="36" pos="0" pan="0" len="12" vol="100"/>
          <note key="42" pos="24" pan="0" len="12" vol="100"/>
          <note key="44" pos="48" pan="0" len="12" vol="100"/>
          <note key="36" pos="48" pan="0" len="12" vol="100"/>
          <note key="44" pos="72" pan="0" len="12" vol="100"/>
          <note key="46" pos="96" pan="0" len="12" vol="100"/>
          <note key="40" pos="96" pan="0" len="12" vol="100"/>
          <note key="36" pos="120" pan="0" len="12" vol="100"/>
          <note key="44" pos="144" pan="0" len="12" vol="100"/>
          <note key="42" pos="168" pan="0" len="12" vol="100"/>
          <note key="38" pos="168" pan="0" len="12" vol="100"/>
          <note key="36" pos="192" pan="0" len="12" vol="100"/>
          <note key="46" pos="216" pan="0" len="12" vol="100"/>
          <note key="44" pos="240" pan="0" len="12" vol="100"/>
          <note key="36" pos="240" pan="0" len="12" vol="100"/>
          <note key="44" pos="264" pan="0" len="12" vol="100"/>
          <note key="46" pos="288" pan="0" len="12" vol="100"/>
          <note key="40" pos="288" pan="0" len="12" vol="100"/>
          <note key="36" pos="312" pan="0" len="12" vol="100"/>
          <note key="42" pos="336" pan="0" len="12" vol="100"/>
          <note key="44" pos="360" pan="0" len="12" vol="100"/>
        </midiclip>
        <midiclip name="" pos="20160" muted="0" type="1" steps="16">
          <note key="36" pos="0" pan="0" len="12" vol="100"/>
          <note key="42" pos="24" pan="0" len="12" vol="100"/>
          <note key="44" pos="48" pan="0" len="12" vol="100"/>
          <note key="36" pos="48" pan="0" len="12" vol="100"/>
          <note key="44" pos="72" pan="0" len="12" vol="100"/>
          <note key="46" pos="96" pan="0" len="12" vol="100"/>
          <note key="40" pos="96" pan="0" len="12" vol="100"/>
          <note key="36" pos="120" pan="0" len="12" vol="100"/>
          <note key="44" pos="144" pan="0" len="12" vol="100"/>
          <note key="42" pos="168" pan="0" len="12" vol="100"/>
          <note key="38" pos="168" pan="0" len="12" vol="100"/>
          <note key="36" pos="192" pan="0" len="12" vol="100"/>
          <note key="46" pos="216" pan="0" len="12" vol="100"/>
          <note key="44" pos="240" pan="0" len="12" vol="100"/>
          <note key="36" pos="240" pan="0" len="12" vol="100"/>
          <note key="44" pos="264" pan="0" len="12" vol="100"/>
          <note key="46" pos="288" pan="0" len="12" vol="100"/>
          <note key="40" pos="288" pan="0" len="12" vol="100"/>
          <note key="36" pos="312" pan="0" len="12" vol="100"/>
          <note key="42" pos="336" pan="0" len="12" vol="100"/>
          <note key="44" pos="360" pan="0" len="12" vol="100"/>
        </midiclip>
        <midiclip name="" pos="20544" muted="0" type="1" steps="16">
          <note key="36" pos="0" pan="0" len="12" vol="100"/>
          <note key="42" pos="24" pan="0" len="12" vol="100"/>
          <note key="44" pos="48" pan="0" len="12" vol="100"/>
          <note key="36" pos="48" pan="0" len="12" vol="100"/>
          <note key="44" pos="72" pan="0" len="12" vol="100"/>
          <note key="46" pos="96" pan="0" len="12" vol="100"/>
          <note key="40" pos="96" pan="0" len="12" vol="100"/>
          <note key="36" pos="120" pan="0" len="12" vol="100"/>
          <note key="44" pos="144" pan="0" len="12" vol="100"/>
          <note key="42" pos="168" pan="0" len="12" vol="100"/>
          <note key="38" pos="168" pan="0" len="12" vol="100"/>
          <note key="36" pos="192" pan="0" len="12" vol="100"/>
          <note key="46" pos="216" pan="0" len="12" vol="100"/>
          <note key="44" pos="240" pan="0" len="12" vol="100"/>
          <note key="36" pos="240" pan="0" len="12" vol="100"/>
          <note key="44" pos="264" pan="0" len="12" vol="100"/>
          <note key="46" pos="288" pan="0" len="12" vol="100"/>
          <note key="40" pos="288" pan="0" len="12" vol="100"/>
          <note key="36" pos="312" pan="0" len="12" vol="100"/>
          <note key="42" pos="336" pan="0" len="12" vol="100"/>
          <note key="44" pos="360" pan="0" len="12" vol="100"/>
        </midiclip>
        <midiclip name="" pos="20928" muted="0" type="1" steps="16">
          <note key="36" pos="0" pan="0" len="12" vol="100"/>
          <note key="42" pos="24" pan="0" len="12" vol="100"/>
          <note key="44" pos="48" pan="0" len="12" vol="100"/>
          <note key="36" pos="48" pan="0" len="12" vol="100"/>
          <note key="44" pos="72" pan="0" len="12" vol="100"/>
          <note key="46" pos="96" pan="0" len="12" vol="100"/>
          <note key="40" pos="96" pan="0" len="12" vol="100"/>
          <note key="36" pos="120" pan="0" len="12" vol="100"/>
          <note key="44" pos="144" pan="0" len="12" vol="100"/>
          <note key="42" pos="168" pan="0" len="12" vol="100"/>
          <note key="38" pos="168" pan="0" len="12" vol="100"/>
          <note key="36" pos="192" pan="0" len="12" vol="100"/>
          <note key="46" pos="216" pan="0" len="12" vol="100"/>
          <note key="44" pos="240" pan="0" len="12" vol="100"/>
          <note key="36" pos="240" pan="0" len="12" vol="100"/>
          <note key="44" pos="264" pan="0" len="12" vol="100"/>
          <note key="46" pos="288" pan="0" len="12" vol="100"/>
          <note key="40" pos="288" pan="0" len="12" vol="100"/>
          <note key="36" pos="312" pan="0" len="12" vol="100"/>
          <note key="42" pos="336" pan="0" len="12" vol="100"/>
          <note key="44" pos="360" pan="0" len="12" vol="100"/>
        </midiclip>
        <midiclip name="" pos="5760" muted="0" type="1" steps="16">
          <note key="36" pos="0" pan="0" len="12" vol="100"/>
          <note key="42" pos="24" pan="0" len="12" vol="100"/>
          <note key="44" pos="48" pan="0" len="12" vol="100"/>
          <note key="36" pos="48" pan="0" len="12" vol="100"/>
          <note key="44" pos="72" pan="0" len="12" vol="100"/>
          <note key="46" pos="96" pan="0" len="12" vol="100"/>
          <note key="40" pos="96" pan="0" len="12" vol="100"/>
          <note key="36" pos="120" pan="0" len="12" vol="100"/>
          <note key="44" pos="144" pan="0" len="12" vol="100"/>
          <note key="42" pos="168" pan="0" len="12" vol="100"/>
          <note key="38" pos="168" pan="0" len="12" vol="100"/>
          <note key="36" pos="192" pan="0" len="12" vol="100"/>
          <note key="46" pos="216" pan="0" len="12" vol="100"/>
          <note key="44" pos="240" pan="0" len="12" vol="100"/>
          <note key="36" pos="240" pan="0" len="12" vol="100"/>
          <note key="44" pos="264" pan="0" len="12" vol="100"/>
          <note key="46" pos="288" pan="0" len="12" vol="100"/>
          <note key="40" pos="288" pan="0" len="12" vol="100"/>
          <note key="36" pos="312" pan="0" len="12" vol="100"/>
          <note key="42" pos="336" pan="0" len="12" vol="100"/>
          <note key="44" pos="360" pan="0" len="12" vol="100"/>
        </midiclip>
        <midiclip name="" pos="6144" muted="0" type="1" steps="16">
          <note key="36" pos="0" pan="0" len="12" vol="100"/>
          <note key="42" pos="24" pan="0" len="12" vol="100"/>
          <note key="44" pos="48" pan="0" len="12" vol="100"/>
          <note key="36" pos="48" pan="0" len="12" vol="100"/>
          <note key="44" pos="72" pan="0" len="12" vol="100"/>
          <note key="46" pos="96" pan="0" len="12" vol="100"/>
          <note key="40" pos="96" pan="0" len="12" vol="100"/>
          <note key="36" pos="120" pan="0" len="12" vol="100"/>
          <note key="44" pos="144" pan="0" len="12" vol="100"/>
          <note key="42" pos="168" pan="0" len="12" vol="100"/>
          <note key="38" pos="168" pan="0" len="12" vol="100"/>
          <note key="36" pos="192" pan="0" len="12" vol="100"/>
          <note key="46" pos="216" pan="0" len="12" vol="100"/>
          <note key="44" pos="240" pan="0" len="12" vol="100"/>
          <note key="36" pos="240" pan="0" len="12" vol="100"/>
          <note key="44" pos="264" pan="0" len="12" vol="100"/>
          <note key="46" pos="288" pan="0" len="12" vol="100"/>
          <note key="40" pos="288" pan="0" len="12" vol="100"/>
          <note key="36" pos="312" pan="0" len="12" vol="100"/>
          <note key="42" pos="336" pan="0" len="12" vol="100"/>
          <note key="44" pos="360" pan="0" len="12" vol="100"/>
        </midiclip>
        <midiclip name="" pos="6528" muted="0" type="1" steps="16">
          <note key="36" pos="0" pan="0" len="12" vol="100"/>
          <note key="42" pos="24" pan="0" len="12" vol="100"/>
          <note key="44" pos="48" pan="0" len="12" vol="100"/>
          <note key="36" pos="48" pan="0" len="12" vol="100"/>
          <note key="44" pos="72" pan="0" len="12" vol="100"/>
          <note key="46" pos="96" pan="0" len="12" vol="100"/>
          <note key="40" pos="96" pan="0" len="12" vol="100"/>
          <note key="36" pos="120" pan="0" len="12" vol="100"/>
          <note key="44" pos="144" pan="0" len="12" vol="100"/>
          <note key="42" pos="168" pan="0" len="12" vol="100"/>
          <note key="38" pos="168" pan="0" len="12" vol="100"/>
          <note key="36" pos="192" pan="0" len="12" vol="100"/>
          <note key="46" pos="216" pan="0" len="12" vol="100"/>
          <note key="44" pos="240" pan="0" len="12" vol="100"/>
          <note key="36" pos="240" pan="0" len="12" vol="100"/>
          <note key="44" pos="264" pan="0" len="12" vol="100"/>
          <note key="46" pos="288" pan="0" len="12" vol="100"/>
          <note key="40" pos="288" pan="0" len="12" vol="100"/>
          <note key="36" pos="312" pan="0" len="12" vol="100"/>
          <note key="42" pos="336" pan="0" len="12" vol="100"/>
          <note key="44" pos="360" pan="0" len="12" vol="100"/>
        </midiclip>
        <midiclip name="" pos="6912" muted="0" type="1" steps="16">
          <note key="36" pos="0" pan="0" len="12" vol="100"/>
          <note key="42" pos="24" pan="0" len="12" vol="100"/>
          <note key="44" pos="48" pan="0" len="12" vol="100"/>
          <note key="36" pos="48" pan="0" len="12" vol="100"/>
          <note key="44" pos="72" pan="0" len="12" vol="100"/>
          <note key="46" pos="96" pan="0" len="12" vol="100"/>
          <note key="40" pos="96" pan="0" len="12" vol="100"/>
          <note key="36" pos="120" pan="0" len="12" vol="100"/>
          <note key="44" pos="144" pan="0" len="12" vol="100"/>
          <note key="42" pos="168" pan="0" len="12" vol="100"/>
          <note key="38" pos="168" pan="0" len="12" vol="100"/>
          <note key="36" pos="192" pan="0" len="12" vol="100"/>
          <note key="46" pos="216" pan="0" len="12" vol="100"/>
          <note key="44" pos="240" pan="0" len="12" vol="100"/>
          <note key="36" pos="240" pan="0" len="12" vol="100"/>
          <note key="44" pos="264" pan="0" len="12" vol="100"/>
          <note key="46" pos="288" pan="0" len="12" vol="100"/>
          <note key="40" pos="288" pan="0" len="12" vol="100"/>
          <note key="36" pos="312" pan="0" len="12" vol="100"/>
          <note key="42" pos="336" pan="0" len="12" vol="100"/>
          <note key="44" pos="360" pan="0" len="12" vol="100"/>
        </midiclip>
        <midiclip name="" pos="7296" muted="0" type="1" steps="16">
          <note key="36" pos="0" pan="0" len="12" vol="100"/>
          <note key="42" pos="24" pan="0" len="12" vol="100"/>
          <note key="44" pos="48" pan="0" len="12" vol="100"/>
          <note key="36" pos="48" pan="0" len="12" vol="100"/>
          <note key="44" pos="72" pan="0" len="12" vol="100"/>
          <note key="46" pos="96" pan="0" len="12" vol="100"/>
          <note key="40" pos="96" pan="0" len="12" vol="100"/>
          <note key="36" pos="120" pan="0" len="12" vol="100"/>
          <note key="44" pos="144" pan="0" len="12" vol="100"/>
          <note key="42" pos="168" pan="0" len="12" vol="100"/>
          <note key="38" pos="168" pan="0" len="12" vol="100"/>
          <note key="36" pos="192" pan="0" len="12" vol="100"/>
          <note key="46" pos="216" pan="0" len="12" vol="100"/>
          <note key="44" pos="240" pan="0" len="12" vol="100"/>
          <note key="36" pos="240" pan="0" len="12" vol="100"/>
          <note key="44" pos="264" pan="0" len="12" vol="100"/>
          <note key="46" pos="288" pan="0" len="12" vol="100"/>
          <note key="40" pos="288" pan="0" len="12" vol="100"/>
          <note key="36" pos="312" pan="0" len="12" vol="100"/>
          <note key="42" pos="336" pan="0" len="12" vol="100"/>
          <note key="44" pos="360" pan="0" len="12" vol="100"/>
        </midiclip>
        <midiclip name="" pos="7680" muted="0" type="1" steps="16">
          <note key="36" pos="0" pan="0" len="12" vol="100"/>
          <note key="42" pos="24" pan="0" len="12" vol="100"/>
          <note key="44" pos="48" pan="0" len="12" vol="100"/>
          <note key="36" pos="48" pan="0" len="12" vol="100"/>
          <note key="44" pos="72" pan="0" len="12" vol="100"/>
          <note key="46" pos="96" pan="0" len="12" vol="100"/>
          <note key="40" pos="96" pan="0" len="12" vol="100"/>
          <note key="36" pos="120" pan="0" len="12" vol="100"/>
          <note key="44" pos="144" pan="0" len="12" vol="100"/>
          <note key="42" pos="168" pan="0" len="12" vol="100"/>
          <note key="38" pos="168" pan="0" len="12" vol="100"/>
          <note key="36" pos="192" pan="0" len="12" vol="100"/>
          <note key="46" pos="216" pan="0" len="12" vol="100"/>
          <note key="44" pos="240" pan="0" len="12" vol="100"/>
          <note key="36" pos="240" pan="0" len="12" vol="100"/>
          <note key="44" pos="264" pan="0" len="12" vol="100"/>
          <note key="46" pos="288" pan="0" len="12" vol="100"/>
          <note key="40" pos="288" pan="0" len="12" vol="100"/>
          <note key="36" pos="312" pan="0" len="12" vol="100"/>
          <note key="42" pos="336" pan="0" len="12" vol="100"/>
          <note key="44" pos="360" pan="0" len="12" vol="100"/>
        </midiclip>
        <midiclip name="" pos="8064" muted="0" type="1" steps="16">
          <note key="36" pos="0" pan="0" len="12" vol="100"/>
          <note key="42" pos="24" pan="0" len="12" vol="100"/>
          <note key="44" pos="48" pan="0" len="12" vol="100"/>
          <note key="36" pos="48" pan="0" len="12" vol="100"/>
          <note key="44" pos="72" pan="0" len="12" vol="100"/>
          <note key="46" pos="96" pan="0" len="12" vol="100"/>
          <note key="40" pos="96" pan="0" len="12" vol="100"/>
          <note key="36" pos="120" pan="0" len="12" vol="100"/>
          <note key="44" pos="144" pan="0" len="12" vol="100"/>
          <note key="42" pos="168" pan="0" len="12" vol="100"/>
          <note key="38" pos="168" pan="0" len="12" vol="100"/>
          <note key="36" pos="192" pan="0" len="12" vol="100"/>
          <note key="46" pos="216" pan="0" len="12" vol="100"/>
          <note key="44" pos="240" pan="0" len="12" vol="100"/>
          <note key="36" pos="240" pan="0" len="12" vol="100"/>
          <note key="44" pos="264" pan="0" len="12" vol="100"/>
          <note key="46" pos="288" pan="0" len="12" vol="100"/>
          <note key="40" pos="288" pan="0" len="12" vol="100"/>
          <note key="36" pos="312" pan="0" len="12" vol="100"/>
          <note key="42" pos="336" pan="0" len="12" vol="100"/>
          <note key="44" pos="360" pan="0" len="12" vol="100"/>
        </midiclip>
        <midiclip name="" pos="8448" muted="0" type="1" steps="16">
          <note key="36" pos="0" pan="0" len="12" vol="100"/>
          <note key="42" pos="24" pan="0" len="12" vol="100"/>
          <note key="44" pos="48" pan="0" len="12" vol="100"/>
          <note key="36" pos="48" pan="0" len="12" vol="100"/>
          <note key="44" pos="72" pan="0" len="12" vol="100"/>
          <note key="46" pos="96" pan="0" len="12" vol="100"/>
          <note key="40" pos="96" pan="0" len="12" vol="100"/>
          <note key="36" pos="120" pan="0" len="12" vol="100"/>
          <note key="44" pos="144" pan="0" len="12" vol="100"/>
          <note key="42" pos="168" pan="0" len="12" vol="100"/>
          <note key="38" pos="168" pan="0" len="12" vol="100"/>
          <note key="36" pos="192" pan="0" len="12" vol="100"/>
          <note key="46" pos="216" pan="0" len="12" vol="100"/>
          <note key="44" pos="240" pan="0" len="12" vol="100"/>
          <note key="36" pos="240" pan="0" len="12" vol="100"/>
          <note key="44" pos="264" pan="0" len="12" vol="100"/>
          <note key="46" pos="288" pan="0" len="12" vol="100"/>
          <note key="40" pos="288" pan="0" len="12" vol="100"/>
          <note key="36" pos="312" pan="0" len="12" vol="100"/>
          <note key="42" pos="336" pan="0" len="12" vol="100"/>
          <note key="44" pos="360" pan="0" len="12" vol="100"/>
        </midiclip>
        <midiclip name="" pos="8832" muted="0" type="1" steps="16">
          <note key="42" pos="0" pan="0" len="12" vol="100"/>
          <note key="36" pos="0" pan="0" len="12" vol="100"/>
          <note key="46" pos="24" pan="0" len="12" vol="100"/>
          <note key="44" pos="48" pan="0" len="12" vol="100"/>
          <note key="44" pos="72" pan="0" len="12" vol="100"/>
          <note key="36" pos="72" pan="0" len="12" vol="100"/>
          <note key="40" pos="96" pan="0" len="12" vol="100"/>
          <note key="46" pos="120" pan="0" len="12" vol="100"/>
          <note key="36" pos="120" pan="0" len="12" vol="100"/>
          <note key="44" pos="144" pan="0" len="12" vol="100"/>
          <note key="42" pos="168" pan="0" len="12" vol="100"/>
          <note key="38" pos="168" pan="0" len="12" vol="100"/>
          <note key="36" pos="192" pan="0" len="12" vol="100"/>
          <note key="46" pos="216" pan="0" len="12" vol="100"/>
          <note key="36" pos="216" pan="0" len="12" vol="100"/>
          <note key="44" pos="240" pan="0" len="12" vol="100"/>
          <note key="44" pos="264" pan="0" len="12" vol="100"/>
          <note key="36" pos="264" pan="0" len="12" vol="100"/>
          <note key="40" pos="288" pan="0" len="12" vol="100"/>
          <note key="46" pos="312" pan="0" len="12" vol="100"/>
          <note key="36" pos="312" pan="0" len="12" vol="100"/>
          <note key="44" pos="336" pan="0" len="12" vol="100"/>
          <note key="36" pos="348" pan="0" len="12" vol="100"/>
          <note key="38" pos="360" pan="0" len="12" vol="100"/>
          <note key="44" pos="372" pan="0" len="12" vol="100"/>
        </midiclip>
        <midiclip name="" pos="9216" muted="0" type="1" steps="16">
          <note key="42" pos="0" pan="0" len="12" vol="100"/>
          <note key="36" pos="0" pan="0" len="12" vol="100"/>
          <note key="46" pos="24" pan="0" len="12" vol="100"/>
          <note key="44" pos="48" pan="0" len="12" vol="100"/>
          <note key="44" pos="72" pan="0" len="12" vol="100"/>
          <note key="36" pos="72" pan="0" len="12" vol="100"/>
          <note key="40" pos="96" pan="0" len="12" vol="100"/>
          <note key="46" pos="120" pan="0" len="12" vol="100"/>
          <note key="36" pos="120" pan="0" len="12" vol="100"/>
          <note key="44" pos="144" pan="0" len="12" vol="100"/>
          <note key="42" pos="168" pan="0" len="12" vol="100"/>
          <note key="38" pos="168" pan="0" len="12" vol="100"/>
          <note key="36" pos="192" pan="0" len="12" vol="100"/>
          <note key="46" pos="216" pan="0" len="12" vol="100"/>
          <note key="36" pos="216" pan="0" len="12" vol="100"/>
          <note key="44" pos="240" pan="0" len="12" vol="100"/>
          <note key="44" pos="264" pan="0" len="12" vol="100"/>
          <note key="36" pos="264" pan="0" len="12" vol="100"/>
          <note key="40" pos="288" pan="0" len="12" vol="100"/>
          <note key="46" pos="312" pan="0" len="12" vol="100"/>
          <note key="36" pos="312" pan="0" len="12" vol="100"/>
          <note key="44" pos="336" pan="0" len="12" vol="100"/>
          <note key="36" pos="348" pan="0" len="12" vol="100"/>
          <note key="38" pos="360" pan="0" len="12" vol="100"/>
          <note key="44" pos="372" pan="0" len="12" vol="100"/>
        </midiclip>
        <midiclip name="" pos="9600" muted="0" type="1" steps="16">
          <note key="42" pos="0" pan="0" len="12" vol="100"/>
          <note key="36" pos="0" pan="0" len="12" vol="100"/>
          <note key="46" pos="24" pan="0" len="12" vol="100"/>
          <note key="44" pos="48" pan="0" len="12" vol="100"/>
          <note key="44" pos="72" pan="0" len="12" vol="100"/>
          <note key="36" pos="72" pan="0" len="12" vol="100"/>
          <note key="40" pos="96" pan="0" len="12" vol="100"/>
          <note key="46" pos="120" pan="0" len="12" vol="100"/>
          <note key="36" pos="120" pan="0" len="12" vol="100"/>
          <note key="44" pos="144" pan="0" len="12" vol="100"/>
          <note key="42" pos="168" pan="0" len="12" vol="100"/>
          <note key="38" pos="168" pan="0" len="12" vol="100"/>
          <note key="36" pos="192" pan="0" len="12" vol="100"/>
          <note key="46" pos="216" pan="0" len="12" vol="100"/>
          <note key="36" pos="216" pan="0" len="12" vol="100"/>
          <note key="44" pos="240" pan="0" len="12" vol="100"/>
          <note key="44" pos="264" pan="0" len="12" vol="100"/>
          <note key="36" pos="264" pan="0" len="12" vol="100"/>
          <note key="40" pos="288" pan="0" len="12" vol="100"/>
          <note key="46" pos="312" pan="0" len="12" vol="100"/>
          <note key="36" pos="312" pan="0" len="12" vol="100"/>
          <note key="44" pos="336" pan="0" len="12" vol="100"/>
          <note key="36" pos="348" pan="0" len="12" vol="100"/>
          <note key="38" pos="360" pan="0" len="12" vol="100"/>
          <note key="44" pos="372" pan="0" len="12" vol="100"/>
        </midiclip>
        <midiclip name="" pos="9984" muted="0" type="1" steps="16">
          <note key="42" pos="0" pan="0" len="12" vol="100"/>
          <note key="36" pos="0" pan="0" len="12" vol="100"/>
          <note key="46" pos="24" pan="0" len="12" vol="100"/>
          <note key="44" pos="48" pan="0" len="12" vol="100"/>
          <note key="44" pos="72" pan="0" len="12" vol="100"/>
          <note key="36" pos="72" pan="0" len="12" vol="100"/>
          <note key="40" pos="96" pan="0" len="12" vol="100"/>
          <note key="46" pos="120" pan="0" len="12" vol="100"/>
          <note key="36" pos="120" pan="0" len="12" vol="100"/>
          <note key="44" pos="144" pan="0" len="12" vol="100"/>
          <note key="42" pos="168" pan="0" len="12" vol="100"/>
          <note key="38" pos="168" pan="0" len="12" vol="100"/>
          <note key="36" pos="192" pan="0" len="12" vol="100"/>
          <note key="46" pos="216" pan="0" len="12" vol="100"/>
          <note key="36" pos="216" pan="0" len="12" vol="100"/>
          <note key="44" pos="240" pan="0" len="12" vol="100"/>
          <note key="44" pos="264" pan="0" len="12" vol="100"/>
          <note key="36" pos="264" pan="0" len="12" vol="100"/>
          <note key="40" pos="288" pan="0" len="12" vol="100"/>
          <note key="46" pos="312" pan="0" len="12" vol="100"/>
          <note key="36" pos="312" pan="0" len="12" vol="100"/>
          <note key="44" pos="336" pan="0" len="12" vol="100"/>
          <note key="36" pos="348" pan="0" len="12" vol="100"/>
          <note key="38" pos="360" pan="0" len="12" vol="100"/>
          <note key="44" pos="372" pan="0" len="12" vol="100"/>
        </midiclip>
      </track>
      <track name="Touhou" muted="1" type="0" solo="0" mutedBeforeSolo="0">
        <instrumenttrack pitch="0" firstkey="0" lastkey="127" enabled="0" pan="0" scale="0" pitchrange="1" mixch="0" usemasterpitch="1" keymap="0" enablecc="0" vol="100" basenote="69" range_import="1">
          <midicontrollers cc27="0" cc125="0" cc109="0" cc48="0" cc22="0" cc75="0" cc67="0" cc15="0" cc90="0" cc5="0" cc3="0" cc21="0" cc52="0" cc89="0" cc106="0" cc117="0" cc61="0" cc36="0" cc77="0" cc35="0" cc83="0" cc8="0" cc11="0" cc45="0" cc85="0" cc14="0" cc71="0" cc49="0" cc51="0" cc12="0" cc122="0" cc126="0" cc29="0" cc68="0" cc82="0" cc93="0" cc64="0" cc72="0" cc97="0" cc70="0" cc17="0" cc111="0" cc50="0" cc56="0" cc28="0" cc40="0" cc94="0" cc34="0" cc23="0" cc81="0" cc18="0" cc127="0" cc30="0" cc115="0" cc26="0" cc53="0" cc66="0" cc99="0" cc54="0" cc9="0" cc41="0" cc62="0" cc69="0" cc59="0" cc32="0" cc74="0" cc87="0" cc91="0" cc103="0" cc33="0" cc88="0" cc25="0" cc24="0" cc10="0" cc1="0" cc19="0" cc16="0" cc47="0" cc58="0" cc102="0" cc121="0" cc112="0" cc65="0" cc104="0" cc123="0" cc80="0" cc13="0" cc107="0" cc6="0" cc124="0" cc101="0" cc76="0" cc46="0" cc110="0" cc108="0" cc78="0" cc79="0" cc4="0" cc96="0" cc20="0" cc2="0" cc84="0" cc105="0" cc113="0" cc116="0" cc86="0" cc63="0" cc38="0" cc42="0" cc100="0" cc60="0" cc0="0" cc118="0" cc43="0" cc39="0" cc7="0" cc73="0" cc95="0" cc57="0" cc44="0" cc92="0" cc55="0" cc119="0" cc98="0" cc37="0" cc31="0" cc114="0" cc120="0"/>
          <instrument name="sf2player">
            <sf2player patch="25" bank="0" reverbDamping="0" reverbRoomSize="0.2" reverbLevel="0.9" chorusSpeed="0.3" reverbOn="0" src="usersoundfont:Touhou.sf2" reverbWidth="0.5" chorusLevel="2" gain="0.16" chorusDepth="8" chorusOn="0" chorusNum="3">
              <key/>
            </sf2player>
          </instrument>
          <eldata fcut="14000" ftype="0" fres="0.5" fwet="0">
            <elvol lspd_denominator="4" amt="0" userwavefile="" hold="0.5" x100="0" pdel="0" att="0" sustain="0.5" lspd_syncmode="0" ctlenvamt="0" latt="0" dec="0.5" rel="0.1" lshp="0" lamt="0" lspd_numerator="4" lspd="0.1" lpdel="0"/>
            <elcut lspd_denominator="4" amt="0" userwavefile="" hold="0.5" x100="0" pdel="0" att="0" sustain="0.5" lspd_syncmode="0" ctlenvamt="0" latt="0" dec="0.5" rel="0.1" lshp="0" lamt="0" lspd_numerator="4" lspd="0.1" lpdel="0"/>
            <elres lspd_denominator="4" amt="0" userwavefile="" hold="0.5" x100="0" pdel="0" att="0" sustain="0.5" lspd_syncmode="0" ctlenvamt="0" latt="0" dec="0.5" rel="0.1" lshp="0" lamt="0" lspd_numerator="4" lspd="0.1" lpdel="0"/>
          </eldata>
          <chordcreator chordrange="1" chord-enabled="0" chord="0"/>
          <arpeggiator arptime="200" arpmiss="0" arpdir="0" arprange="1" arptime_numerator="4" arpmode="0" arpskip="0" arp="0" arptime_syncmode="0" arpcycle="0" arptime_denominator="4" arp-enabled="0" arprepeats="1" arpgate="100"/>
          <midiport outputcontroller="0" basevelocity="127" outputprogram="1" writable="0" outputchannel="1" fixedinputvelocity="-1" inputchannel="0" inputcontroller="0" readable="1" inports="" fixedoutputvelocity="-1" fixedoutputnote="-1"/>
          <fxchain enabled="0" numofeffects="0"/>
        </instrumenttrack>
        <midiclip name="" pos="22080" muted="0" type="1" steps="16">
          <note key="88" pos="0" pan="0" len="48" vol="100"/>
          <note key="52" pos="0" pan="0" len="96" vol="100"/>
          <note key="45" pos="0" pan="0" len="192" vol="100"/>
          <note key="81" pos="48" pan="0" len="48" vol="100"/>
          <note key="72" pos="48" pan="0" len="48" vol="100"/>
          <note key="69" pos="48" pan="0" len="96" vol="100"/>
          <note key="40" pos="48" pan="0" len="144" vol="100"/>
          <note key="81" pos="96" pan="0" len="48" vol="100"/>
          <note key="76" pos="96" pan="0" len="96" vol="100"/>
          <note key="72" pos="96" pan="0" len="48" vol="100"/>
          <note key="52" pos="96" pan="0" len="96" vol="100"/>
          <note key="88" pos="144" pan="0" len="48" vol="100"/>
          <note key="72" pos="144" pan="0" len="48" vol="100"/>
          <note key="69" pos="144" pan="0" len="48" vol="100"/>
          <note key="57" pos="144" pan="0" len="48" vol="100"/>
          <note key="87" pos="192" pan="0" len="48" vol="100"/>
          <note key="54" pos="192" pan="0" len="96" vol="100"/>
          <note key="47" pos="192" pan="0" len="192" vol="100"/>
          <note key="81" pos="240" pan="0" len="48" vol="100"/>
          <note key="71" pos="240" pan="0" len="48" vol="100"/>
          <note key="66" pos="240" pan="0" len="96" vol="100"/>
          <note key="42" pos="240" pan="0" len="144" vol="100"/>
          <note key="81" pos="288" pan="0" len="48" vol="100"/>
          <note key="75" pos="288" pan="0" len="96" vol="100"/>
          <note key="71" pos="288" pan="0" len="48" vol="100"/>
          <note key="54" pos="288" pan="0" len="96" vol="100"/>
          <note key="87" pos="336" pan="0" len="48" vol="100"/>
          <note key="71" pos="336" pan="0" len="48" vol="100"/>
          <note key="66" pos="336" pan="0" len="48" vol="100"/>
          <note key="59" pos="336" pan="0" len="48" vol="100"/>
          <note key="88" pos="384" pan="0" len="48" vol="100"/>
          <note key="45" pos="384" pan="0" len="192" vol="100"/>
          <note key="41" pos="384" pan="0" len="192" vol="100"/>
          <note key="81" pos="432" pan="0" len="48" vol="100"/>
          <note key="72" pos="432" pan="0" len="48" vol="100"/>
          <note key="69" pos="432" pan="0" len="96" vol="100"/>
          <note key="48" pos="432" pan="0" len="144" vol="100"/>
          <note key="81" pos="480" pan="0" len="48" vol="100"/>
          <note key="77" pos="480" pan="0" len="96" vol="100"/>
          <note key="72" pos="480" pan="0" len="48" vol="100"/>
          <note key="52" pos="480" pan="0" len="96" vol="100"/>
          <note key="88" pos="528" pan="0" len="48" vol="100"/>
          <note key="72" pos="528" pan="0" len="48" vol="100"/>
          <note key="69" pos="528" pan="0" len="48" vol="100"/>
          <note key="55" pos="528" pan="0" len="48" vol="100"/>
          <note key="90" pos="576" pan="0" len="24" vol="100"/>
          <note key="51" pos="576" pan="0" len="192" vol="100"/>
          <note key="47" pos="576" pan="0" len="192" vol="100"/>
          <note key="91" pos="600" pan="0" len="24" vol="100"/>
          <note key="90" pos="624" pan="0" len="24" vol="100"/>
          <note key="75" pos="624" pan="0" len="144" vol="100"/>
          <note key="71" pos="624" pan="0" len="96" vol="100"/>
          <note key="42" pos="624" pan="0" len="144" vol="100"/>
          <note key="91" pos="648" pan="0" len="24" vol="100"/>
          <note key="88" pos="672" pan="0" len="24" vol="100"/>
          <note key="78" pos="672" pan="0" len="96" vol="100"/>
          <note key="74" pos="672" pan="0" len="96" vol="100"/>
          <note key="54" pos="672" pan="0" len="96" vol="100"/>
          <note key="90" pos="696" pan="0" len="24" vol="100"/>
          <note key="88" pos="720" pan="0" len="24" vol="100"/>
          <note key="76" pos="720" pan="0" len="48" vol="100"/>
          <note key="71" pos="720" pan="0" len="48" vol="100"/>
          <note key="53" pos="720" pan="0" len="48" vol="100"/>
          <note key="86" pos="744" pan="0" len="24" vol="100"/>
          <note key="83" pos="768" pan="0" len="48" vol="100"/>
          <note key="52" pos="768" pan="0" len="192" vol="100"/>
          <note key="47" pos="768" pan="0" len="192" vol="100"/>
          <note key="81" pos="816" pan="0" len="48" vol="100"/>
          <note key="69" pos="816" pan="0" len="48" vol="100"/>
          <note key="67" pos="816" pan="0" len="144" vol="100"/>
          <note key="40" pos="816" pan="0" len="144" vol="100"/>
          <note key="79" pos="864" pan="0" len="48" vol="100"/>
          <note key="71" pos="864" pan="0" len="96" vol="100"/>
          <note key="69" pos="864" pan="0" len="96" vol="100"/>
          <note key="55" pos="864" pan="0" len="96" vol="100"/>
          <note key="83" pos="912" pan="0" len="48" vol="100"/>
          <note key="57" pos="912" pan="0" len="48" vol="100"/>
          <note key="81" pos="960" pan="0" len="48" vol="100"/>
          <note key="50" pos="960" pan="0" len="192" vol="100"/>
          <note key="43" pos="960" pan="0" len="144" vol="100"/>
          <note key="79" pos="1008" pan="0" len="48" vol="100"/>
          <note key="64" pos="1008" pan="0" len="48" vol="100"/>
          <note key="62" pos="1008" pan="0" len="144" vol="100"/>
          <note key="38" pos="1008" pan="0" len="144" vol="100"/>
          <note key="76" pos="1056" pan="0" len="48" vol="100"/>
          <note key="67" pos="1056" pan="0" len="96" vol="100"/>
          <note key="64" pos="1056" pan="0" len="96" vol="100"/>
          <note key="52" pos="1056" pan="0" len="96" vol="100"/>
          <note key="74" pos="1104" pan="0" len="48" vol="100"/>
          <note key="43" pos="1104" pan="0" len="48" vol="100"/>
          <note key="36" pos="1104" pan="0" len="48" vol="100"/>
          <note key="73" pos="1152" pan="0" len="48" vol="100"/>
          <note key="45" pos="1152" pan="0" len="192" vol="100"/>
          <note key="40" pos="1152" pan="0" len="192" vol="100"/>
          <note key="81" pos="1200" pan="0" len="48" vol="100"/>
          <note key="61" pos="1200" pan="0" len="48" vol="100"/>
          <note key="57" pos="1200" pan="0" len="96" vol="100"/>
          <note key="37" pos="1200" pan="0" len="144" vol="100"/>
          <note key="76" pos="1248" pan="0" len="48" vol="100"/>
          <note key="64" pos="1248" pan="0" len="96" vol="100"/>
          <note key="61" pos="1248" pan="0" len="48" vol="100"/>
          <note key="49" pos="1248" pan="0" len="96" vol="100"/>
          <note key="81" pos="1296" pan="0" len="48" vol="100"/>
          <note key="61" pos="1296" pan="0" len="48" vol="100"/>
          <note key="57" pos="1296" pan="0" len="48" vol="100"/>
          <note key="52" pos="1296" pan="0" len="48" vol="100"/>
          <note key="83" pos="1344" pan="0" len="192" vol="100"/>
          <note key="63" pos="1344" pan="0" len="192" vol="100"/>
          <note key="59" pos="1344" pan="0" len="192" vol="100"/>
          <note key="51" pos="1344" pan="0" len="192" vol="100"/>
          <note key="42" pos="1344" pan="0" len="192" vol="100"/>
          <note key="35" pos="1344" pan="0" len="192" vol="100"/>
        </midiclip>
        <midiclip name="" pos="23616" muted="0" type="1" steps="16">
          <note key="76" pos="0" pan="0" len="48" vol="100"/>
          <note key="52" pos="0" pan="0" len="96" vol="100"/>
          <note key="45" pos="0" pan="0" len="192" vol="100"/>
          <note key="69" pos="48" pan="0" len="48" vol="100"/>
          <note key="60" pos="48" pan="0" len="48" vol="100"/>
          <note key="57" pos="48" pan="0" len="96" vol="100"/>
          <note key="40" pos="48" pan="0" len="144" vol="100"/>
          <note key="69" pos="96" pan="0" len="48" vol="100"/>
          <note key="64" pos="96" pan="0" len="96" vol="100"/>
          <note key="60" pos="96" pan="0" len="48" vol="100"/>
          <note key="52" pos="96" pan="0" len="96" vol="100"/>
          <note key="76" pos="144" pan="0" len="48" vol="100"/>
          <note key="60" pos="144" pan="0" len="48" vol="100"/>
          <note key="57" pos="144" pan="0" len="48" vol="100"/>
          <note key="75" pos="192" pan="0" len="48" vol="100"/>
          <note key="54" pos="192" pan="0" len="48" vol="100"/>
          <note key="47" pos="192" pan="0" len="192" vol="100"/>
          <note key="69" pos="240" pan="0" len="48" vol="100"/>
          <note key="59" pos="240" pan="0" len="48" vol="100"/>
          <note key="54" pos="240" pan="0" len="48" vol="100"/>
          <note key="42" pos="240" pan="0" len="144" vol="100"/>
          <note key="69" pos="288" pan="0" len="48" vol="100"/>
          <note key="63" pos="288" pan="0" len="96" vol="100"/>
          <note key="59" pos="288" pan="0" len="48" vol="100"/>
          <note key="54" pos="288" pan="0" len="48" vol="100"/>
          <note key="75" pos="336" pan="0" len="48" vol="100"/>
          <note key="59" pos="336" pan="0" len="48" vol="100"/>
          <note key="54" pos="336" pan="0" len="48" vol="100"/>
          <note key="76" pos="384" pan="0" len="48" vol="100"/>
          <note key="45" pos="384" pan="0" len="192" vol="100"/>
          <note key="41" pos="384" pan="0" len="192" vol="100"/>
          <note key="69" pos="432" pan="0" len="48" vol="100"/>
          <note key="60" pos="432" pan="0" len="48" vol="100"/>
          <note key="57" pos="432" pan="0" len="96" vol="100"/>
          <note key="48" pos="432" pan="0" len="144" vol="100"/>
          <note key="69" pos="480" pan="0" len="48" vol="100"/>
          <note key="65" pos="480" pan="0" len="96" vol="100"/>
          <note key="60" pos="480" pan="0" len="48" vol="100"/>
          <note key="52" pos="480" pan="0" len="96" vol="100"/>
          <note key="76" pos="528" pan="0" len="48" vol="100"/>
          <note key="60" pos="528" pan="0" len="48" vol="100"/>
          <note key="57" pos="528" pan="0" len="48" vol="100"/>
          <note key="55" pos="528" pan="0" len="48" vol="100"/>
          <note key="78" pos="576" pan="0" len="24" vol="100"/>
          <note key="51" pos="576" pan="0" len="192" vol="100"/>
          <note key="47" pos="576" pan="0" len="192" vol="100"/>
          <note key="79" pos="600" pan="0" len="24" vol="100"/>
          <note key="78" pos="624" pan="0" len="24" vol="100"/>
          <note key="63" pos="624" pan="0" len="144" vol="100"/>
          <note key="59" pos="624" pan="0" len="96" vol="100"/>
          <note key="42" pos="624" pan="0" len="144" vol="100"/>
          <note key="79" pos="648" pan="0" len="24" vol="100"/>
          <note key="76" pos="672" pan="0" len="24" vol="100"/>
          <note key="66" pos="672" pan="0" len="96" vol="100"/>
          <note key="62" pos="672" pan="0" len="96" vol="100"/>
          <note key="54" pos="672" pan="0" len="96" vol="100"/>
          <note key="78" pos="696" pan="0" len="24" vol="100"/>
          <note key="76" pos="720" pan="0" len="24" vol="100"/>
          <note key="64" pos="720" pan="0" len="48" vol="100"/>
          <note key="59" pos="720" pan="0" len="48" vol="100"/>
          <note key="53" pos="720" pan="0" len="48" vol="100"/>
          <note key="74" pos="744" pan="0" len="24" vol="100"/>
          <note key="71" pos="768" pan="0" len="48" vol="100"/>
          <note key="52" pos="768" pan="0" len="192" vol="100"/>
          <note key="47" pos="768" pan="0" len="192" vol="100"/>
          <note key="69" pos="816" pan="0" len="48" vol="100"/>
          <note key="57" pos="816" pan="0" len="48" vol="100"/>
          <note key="55" pos="816" pan="0" len="48" vol="100"/>
          <note key="40" pos="816" pan="0" len="144" vol="100"/>
          <note key="67" pos="864" pan="0" len="48" vol="100"/>
          <note key="59" pos="864" pan="0" len="96" vol="100"/>
          <note key="57" pos="864" pan="0" len="48" vol="100"/>
          <note key="55" pos="864" pan="0" len="96" vol="100"/>
          <note key="71" pos="912" pan="0" len="48" vol="100"/>
          <note key="57" pos="912" pan="0" len="48" vol="100"/>
          <note key="69" pos="960" pan="0" len="48" vol="100"/>
          <note key="50" pos="960" pan="0" len="48" vol="100"/>
          <note key="43" pos="960" pan="0" len="144" vol="100"/>
          <note key="67" pos="1008" pan="0" len="48" vol="100"/>
          <note key="52" pos="1008" pan="0" len="48" vol="100"/>
          <note key="50" pos="1008" pan="0" len="144" vol="100"/>
          <note key="38" pos="1008" pan="0" len="144" vol="100"/>
          <note key="64" pos="1056" pan="0" len="48" vol="100"/>
          <note key="55" pos="1056" pan="0" len="96" vol="100"/>
          <note key="52" pos="1056" pan="0" len="96" vol="100"/>
          <note key="62" pos="1104" pan="0" len="48" vol="100"/>
          <note key="43" pos="1104" pan="0" len="48" vol="100"/>
          <note key="36" pos="1104" pan="0" len="48" vol="100"/>
          <note key="61" pos="1152" pan="0" len="48" vol="100"/>
          <note key="45" pos="1152" pan="0" len="48" vol="100"/>
          <note key="40" pos="1152" pan="0" len="192" vol="100"/>
          <note key="69" pos="1200" pan="0" len="48" vol="100"/>
          <note key="49" pos="1200" pan="0" len="48" vol="100"/>
          <note key="45" pos="1200" pan="0" len="96" vol="100"/>
          <note key="37" pos="1200" pan="0" len="144" vol="100"/>
          <note key="64" pos="1248" pan="0" len="48" vol="100"/>
          <note key="52" pos="1248" pan="0" len="48" vol="100"/>
          <note key="49" pos="1248" pan="0" len="48" vol="100"/>
          <note key="69" pos="1296" pan="0" len="48" vol="100"/>
          <note key="52" pos="1296" pan="0" len="48" vol="100"/>
          <note key="49" pos="1296" pan="0" len="48" vol="100"/>
          <note key="45" pos="1296" pan="0" len="48" vol="100"/>
          <note key="71" pos="1344" pan="0" len="192" vol="100"/>
          <note key="51" pos="1344" pan="0" len="192" vol="100"/>
          <note key="47" pos="1344" pan="0" len="192" vol="100"/>
          <note key="42" pos="1344" pan="0" len="192" vol="100"/>
          <note key="35" pos="1344" pan="0" len="192" vol="100"/>
        </midiclip>
        <midiclip name="" pos="4224" muted="0" type="1" steps="16">
          <note key="57" pos="0" pan="0" len="192" vol="100"/>
          <note key="45" pos="0" pan="0" len="192" vol="100"/>
          <note key="60" pos="24" pan="0" len="168" vol="100"/>
          <note key="64" pos="48" pan="0" len="144" vol="100"/>
          <note key="69" pos="72" pan="0" len="120" vol="100"/>
          <note key="55" pos="192" pan="0" len="192" vol="100"/>
          <note key="43" pos="192" pan="0" len="192" vol="100"/>
          <note key="59" pos="216" pan="0" len="168" vol="100"/>
          <note key="64" pos="240" pan="0" len="144" vol="100"/>
          <note key="67" pos="264" pan="0" len="120" vol="100"/>
          <note key="53" pos="384" pan="0" len="192" vol="100"/>
          <note key="48" pos="384" pan="0" len="192" vol="100"/>
          <note key="57" pos="408" pan="0" len="168" vol="100"/>
          <note key="60" pos="432" pan="0" len="144" vol="100"/>
          <note key="65" pos="456" pan="0" len="120" vol="100"/>
          <note key="53" pos="576" pan="0" len="192" vol="100"/>
          <note key="50" pos="576" pan="0" len="192" vol="100"/>
          <note key="57" pos="612" pan="0" len="156" vol="100"/>
          <note key="65" pos="648" pan="0" len="120" vol="100"/>
          <note key="43" pos="696" pan="0" len="72" vol="100"/>
          <note key="57" pos="768" pan="0" len="192" vol="100"/>
          <note key="45" pos="768" pan="0" len="192" vol="100"/>
          <note key="60" pos="792" pan="0" len="168" vol="100"/>
          <note key="64" pos="816" pan="0" len="144" vol="100"/>
          <note key="69" pos="840" pan="0" len="120" vol="100"/>
          <note key="55" pos="960" pan="0" len="192" vol="100"/>
          <note key="43" pos="960" pan="0" len="192" vol="100"/>
          <note key="59" pos="984" pan="0" len="168" vol="100"/>
          <note key="64" pos="1008" pan="0" len="144" vol="100"/>
          <note key="67" pos="1032" pan="0" len="120" vol="100"/>
          <note key="53" pos="1152" pan="0" len="192" vol="100"/>
          <note key="48" pos="1152" pan="0" len="192" vol="100"/>
          <note key="57" pos="1176" pan="0" len="168" vol="100"/>
          <note key="60" pos="1200" pan="0" len="144" vol="100"/>
          <note key="65" pos="1224" pan="0" len="120" vol="100"/>
          <note key="53" pos="1344" pan="0" len="192" vol="100"/>
          <note key="50" pos="1344" pan="0" len="192" vol="100"/>
          <note key="57" pos="1380" pan="0" len="156" vol="100"/>
          <note key="65" pos="1416" pan="0" len="120" vol="100"/>
          <note key="43" pos="1464" pan="0" len="72" vol="100"/>
        </midiclip>
      </track>
      <track name="MasonHamlin-A-v7" muted="1" type="0" solo="0" mutedBeforeSolo="1">
        <instrumenttrack pitch="0" firstkey="0" lastkey="127" enabled="0" pan="0" scale="0" pitchrange="1" mixch="0" usemasterpitch="1" keymap="0" enablecc="0" vol="100" basenote="69" range_import="1">
          <midicontrollers cc27="0" cc125="0" cc109="0" cc48="0" cc22="0" cc75="0" cc67="0" cc15="0" cc90="0" cc5="0" cc3="0" cc21="0" cc52="0" cc89="0" cc106="0" cc117="0" cc61="0" cc36="0" cc77="0" cc35="0" cc83="0" cc8="0" cc11="0" cc45="0" cc85="0" cc14="0" cc71="0" cc49="0" cc51="0" cc12="0" cc122="0" cc126="0" cc29="0" cc68="0" cc82="0" cc93="0" cc64="0" cc72="0" cc97="0" cc70="0" cc17="0" cc111="0" cc50="0" cc56="0" cc28="0" cc40="0" cc94="0" cc34="0" cc23="0" cc81="0" cc18="0" cc127="0" cc30="0" cc115="0" cc26="0" cc53="0" cc66="0" cc99="0" cc54="0" cc9="0" cc41="0" cc62="0" cc69="0" cc59="0" cc32="0" cc74="0" cc87="0" cc91="0" cc103="0" cc33="0" cc88="0" cc25="0" cc24="0" cc10="0" cc1="0" cc19="0" cc16="0" cc47="0" cc58="0" cc102="0" cc121="0" cc112="0" cc65="0" cc104="0" cc123="0" cc80="0" cc13="0" cc107="0" cc6="0" cc124="0" cc101="0" cc76="0" cc46="0" cc110="0" cc108="0" cc78="0" cc79="0" cc4="0" cc96="0" cc20="0" cc2="0" cc84="0" cc105="0" cc113="0" cc116="0" cc86="0" cc63="0" cc38="0" cc42="0" cc100="0" cc60="0" cc0="0" cc118="0" cc43="0" cc39="0" cc7="0" cc73="0" cc95="0" cc57="0" cc44="0" cc92="0" cc55="0" cc119="0" cc98="0" cc37="0" cc31="0" cc114="0" cc120="0"/>
          <instrument name="sf2player">
            <sf2player patch="0" bank="0" reverbDamping="0" reverbRoomSize="0.2" reverbLevel="0.9" chorusSpeed="0.3" reverbOn="0" src="usersoundfont:MasonHamlin-A-v7.sf2" reverbWidth="0.5" chorusLevel="2" gain="0.16" chorusDepth="8" chorusOn="0" chorusNum="3">
              <key/>
            </sf2player>
          </instrument>
          <eldata fcut="14000" ftype="0" fres="0.5" fwet="0">
            <elvol lspd_denominator="4" amt="0" userwavefile="" hold="0.5" x100="0" pdel="0" att="0" sustain="0.5" lspd_syncmode="0" ctlenvamt="0" latt="0" dec="0.5" rel="0.1" lshp="0" lamt="0" lspd_numerator="4" lspd="0.1" lpdel="0"/>
            <elcut lspd_denominator="4" amt="0" userwavefile="" hold="0.5" x100="0" pdel="0" att="0" sustain="0.5" lspd_syncmode="0" ctlenvamt="0" latt="0" dec="0.5" rel="0.1" lshp="0" lamt="0" lspd_numerator="4" lspd="0.1" lpdel="0"/>
            <elres lspd_denominator="4" amt="0" userwavefile="" hold="0.5" x100="0" pdel="0" att="0" sustain="0.5" lspd_syncmode="0" ctlenvamt="0" latt="0" dec="0.5" rel="0.1" lshp="0" lamt="0" lspd_numerator="4" lspd="0.1" lpdel="0"/>
          </eldata>
          <chordcreator chordrange="1" chord-enabled="0" chord="0"/>
          <arpeggiator arptime="200" arpmiss="0" arpdir="0" arprange="1" arptime_numerator="4" arpmode="0" arpskip="0" arp="0" arptime_syncmode="0" arpcycle="0" arptime_denominator="4" arp-enabled="0" arprepeats="1" arpgate="100"/>
          <midiport outputcontroller="0" basevelocity="127" outputprogram="1" writable="0" outputchannel="1" fixedinputvelocity="-1" inputchannel="0" inputcontroller="0" readable="1" inports="" fixedoutputvelocity="-1" fixedoutputnote="-1"/>
          <fxchain enabled="0" numofeffects="0"/>
        </instrumenttrack>
        <midiclip name="" pos="22080" muted="0" type="1" steps="16">
          <note key="88" pos="0" pan="0" len="48" vol="100"/>
          <note key="52" pos="0" pan="0" len="96" vol="100"/>
          <note key="45" pos="0" pan="0" len="192" vol="100"/>
          <note key="81" pos="48" pan="0" len="48" vol="100"/>
          <note key="72" pos="48" pan="0" len="48" vol="100"/>
          <note key="69" pos="48" pan="0" len="96" vol="100"/>
          <note key="40" pos="48" pan="0" len="144" vol="100"/>
          <note key="81" pos="96" pan="0" len="48" vol="100"/>
          <note key="76" pos="96" pan="0" len="96" vol="100"/>
          <note key="72" pos="96" pan="0" len="48" vol="100"/>
          <note key="52" pos="96" pan="0" len="96" vol="100"/>
          <note key="88" pos="144" pan="0" len="48" vol="100"/>
          <note key="72" pos="144" pan="0" len="48" vol="100"/>
          <note key="69" pos="144" pan="0" len="48" vol="100"/>
          <note key="57" pos="144" pan="0" len="48" vol="100"/>
          <note key="87" pos="192" pan="0" len="48" vol="100"/>
          <note key="54" pos="192" pan="0" len="96" vol="100"/>
          <note key="47" pos="192" pan="0" len="192" vol="100"/>
          <note key="81" pos="240" pan="0" len="48" vol="100"/>
          <note key="71" pos="240" pan="0" len="48" vol="100"/>
          <note key="66" pos="240" pan="0" len="96" vol="100"/>
          <note key="42" pos="240" pan="0" len="144" vol="100"/>
          <note key="81" pos="288" pan="0" len="48" vol="100"/>
          <note key="75" pos="288" pan="0" len="96" vol="100"/>
          <note key="71" pos="288" pan="0" len="48" vol="100"/>
          <note key="54" pos="288" pan="0" len="96" vol="100"/>
          <note key="87" pos="336" pan="0" len="48" vol="100"/>
          <note key="71" pos="336" pan="0" len="48" vol="100"/>
          <note key="66" pos="336" pan="0" len="48" vol="100"/>
          <note key="59" pos="336" pan="0" len="48" vol="100"/>
          <note key="88" pos="384" pan="0" len="48" vol="100"/>
          <note key="45" pos="384" pan="0" len="192" vol="100"/>
          <note key="41" pos="384" pan="0" len="192" vol="100"/>
          <note key="81" pos="432" pan="0" len="48" vol="100"/>
          <note key="72" pos="432" pan="0" len="48" vol="100"/>
          <note key="69" pos="432" pan="0" len="96" vol="100"/>
          <note key="48" pos="432" pan="0" len="144" vol="100"/>
          <note key="81" pos="480" pan="0" len="48" vol="100"/>
          <note key="77" pos="480" pan="0" len="96" vol="100"/>
          <note key="72" pos="480" pan="0" len="48" vol="100"/>
          <note key="52" pos="480" pan="0" len="96" vol="100"/>
          <note key="88" pos="528" pan="0" len="48" vol="100"/>
          <note key="72" pos="528" pan="0" len="48" vol="100"/>
          <note key="69" pos="528" pan="0" len="48" vol="100"/>
          <note key="55" pos="528" pan="0" len="48" vol="100"/>
          <note key="90" pos="576" pan="0" len="24" vol="100"/>
          <note key="51" pos="576" pan="0" len="192" vol="100"/>
          <note key="47" pos="576" pan="0" len="192" vol="100"/>
          <note key="91" pos="600" pan="0" len="24" vol="100"/>
          <note key="90" pos="624" pan="0" len="24" vol="100"/>
          <note key="75" pos="624" pan="0" len="144" vol="100"/>
          <note key="71" pos="624" pan="0" len="96" vol="100"/>
          <note key="42" pos="624" pan="0" len="144" vol="100"/>
          <note key="91" pos="648" pan="0" len="24" vol="100"/>
          <note key="88" pos="672" pan="0" len="24" vol="100"/>
          <note key="78" pos="672" pan="0" len="96" vol="100"/>
          <note key="74" pos="672" pan="0" len="96" vol="100"/>
          <note key="54" pos="672" pan="0" len="96" vol="100"/>
          <note key="90" pos="696" pan="0" len="24" vol="100"/>
          <note key="88" pos="720" pan="0" len="24" vol="100"/>
          <note key="76" pos="720" pan="0" len="48" vol="100"/>
          <note key="71" pos="720" pan="0" len="48" vol="100"/>
          <note key="53" pos="720" pan="0" len="48" vol="100"/>
          <note key="86" pos="744" pan="0" len="24" vol="100"/>
          <note key="83" pos="768" pan="0" len="48" vol="100"/>
          <note key="52" pos="768" pan="0" len="192" vol="100"/>
          <note key="47" pos="768" pan="0" len="192" vol="100"/>
          <note key="81" pos="816" pan="0" len="48" vol="100"/>
          <note key="69" pos="816" pan="0" len="48" vol="100"/>
          <note key="67" pos="816" pan="0" len="144" vol="100"/>
          <note key="40" pos="816" pan="0" len="144" vol="100"/>
          <note key="79" pos="864" pan="0" len="48" vol="100"/>
          <note key="71" pos="864" pan="0" len="96" vol="100"/>
          <note key="69" pos="864" pan="0" len="96" vol="100"/>
          <note key="55" pos="864" pan="0" len="96" vol="100"/>
          <note key="83" pos="912" pan="0" len="48" vol="100"/>
          <note key="57" pos="912" pan="0" len="48" vol="100"/>
          <note key="81" pos="960" pan="0" len="48" vol="100"/>
          <note key="50" pos="960" pan="0" len="192" vol="100"/>
          <note key="43" pos="960" pan="0" len="144" vol="100"/>
          <note key="79" pos="1008" pan="0" len="48" vol="100"/>
          <note key="64" pos="1008" pan="0" len="48" vol="100"/>
          <note key="62" pos="1008" pan="0" len="144" vol="100"/>
          <note key="38" pos="1008" pan="0" len="144" vol="100"/>
          <note key="76" pos="1056" pan="0" len="48" vol="100"/>
          <note key="67" pos="1056" pan="0" len="96" vol="100"/>
          <note key="64" pos="1056" pan="0" len="96" vol="100"/>
          <note key="52" pos="1056" pan="0" len="96" vol="100"/>
          <note key="74" pos="1104" pan="0" len="48" vol="100"/>
          <note key="43" pos="1104" pan="0" len="48" vol="100"/>
          <note key="36" pos="1104" pan="0" len="48" vol="100"/>
          <note key="73" pos="1152" pan="0" len="48" vol="100"/>
          <note key="45" pos="1152" pan="0" len="192" vol="100"/>
          <note key="40" pos="1152" pan="0" len="192" vol="100"/>
          <note key="81" pos="1200" pan="0" len="48" vol="100"/>
          <note key="61" pos="1200" pan="0" len="48" vol="100"/>
          <note key="57" pos="1200" pan="0" len="96" vol="100"/>
          <note key="37" pos="1200" pan="0" len="144" vol="100"/>
          <note key="76" pos="1248" pan="0" len="48" vol="100"/>
          <note key="64" pos="1248" pan="0" len="96" vol="100"/>
          <note key="61" pos="1248" pan="0" len="48" vol="100"/>
          <note key="49" pos="1248" pan="0" len="96" vol="100"/>
          <note key="81" pos="1296" pan="0" len="48" vol="100"/>
          <note key="61" pos="1296" pan="0" len="48" vol="100"/>
          <note key="57" pos="1296" pan="0" len="48" vol="100"/>
          <note key="52" pos="1296" pan="0" len="48" vol="100"/>
          <note key="83" pos="1344" pan="0" len="192" vol="100"/>
          <note key="63" pos="1344" pan="0" len="192" vol="100"/>
          <note key="59" pos="1344" pan="0" len="192" vol="100"/>
          <note key="51" pos="1344" pan="0" len="192" vol="100"/>
          <note key="42" pos="1344" pan="0" len="192" vol="100"/>
          <note key="35" pos="1344" pan="0" len="192" vol="100"/>
        </midiclip>
        <midiclip name="" pos="23616" muted="0" type="1" steps="16">
          <note key="76" pos="0" pan="0" len="48" vol="100"/>
          <note key="52" pos="0" pan="0" len="96" vol="100"/>
          <note key="45" pos="0" pan="0" len="192" vol="100"/>
          <note key="69" pos="48" pan="0" len="48" vol="100"/>
          <note key="60" pos="48" pan="0" len="48" vol="100"/>
          <note key="57" pos="48" pan="0" len="96" vol="100"/>
          <note key="40" pos="48" pan="0" len="144" vol="100"/>
          <note key="69" pos="96" pan="0" len="48" vol="100"/>
          <note key="64" pos="96" pan="0" len="96" vol="100"/>
          <note key="60" pos="96" pan="0" len="48" vol="100"/>
          <note key="52" pos="96" pan="0" len="96" vol="100"/>
          <note key="76" pos="144" pan="0" len="48" vol="100"/>
          <note key="60" pos="144" pan="0" len="48" vol="100"/>
          <note key="57" pos="144" pan="0" len="48" vol="100"/>
          <note key="75" pos="192" pan="0" len="48" vol="100"/>
          <note key="54" pos="192" pan="0" len="48" vol="100"/>
          <note key="47" pos="192" pan="0" len="192" vol="100"/>
          <note key="69" pos="240" pan="0" len="48" vol="100"/>
          <note key="59" pos="240" pan="0" len="48" vol="100"/>
          <note key="54" pos="240" pan="0" len="48" vol="100"/>
          <note key="42" pos="240" pan="0" len="144" vol="100"/>
          <note key="69" pos="288" pan="0" len="48" vol="100"/>
          <note key="63" pos="288" pan="0" len="96" vol="100"/>
          <note key="59" pos="288" pan="0" len="48" vol="100"/>
          <note key="54" pos="288" pan="0" len="48" vol="100"/>
          <note key="75" pos="336" pan="0" len="48" vol="100"/>
          <note key="59" pos="336" pan="0" len="48" vol="100"/>
          <note key="54" pos="336" pan="0" len="48" vol="100"/>
          <note key="76" pos="384" pan="0" len="48" vol="100"/>
          <note key="45" pos="384" pan="0" len="192" vol="100"/>
          <note key="41" pos="384" pan="0" len="192" vol="100"/>
          <note key="69" pos="432" pan="0" len="48" vol="100"/>
          <note key="60" pos="432" pan="0" len="48" vol="100"/>
          <note key="57" pos="432" pan="0" len="96" vol="100"/>
          <note key="48" pos="432" pan="0" len="144" vol="100"/>
          <note key="69" pos="480" pan="0" len="48" vol="100"/>
          <note key="65" pos="480" pan="0" len="96" vol="100"/>
          <note key="60" pos="480" pan="0" len="48" vol="100"/>
          <note key="52" pos="480" pan="0" len="96" vol="100"/>
          <note key="76" pos="528" pan="0" len="48" vol="100"/>
          <note key="60" pos="528" pan="0" len="48" vol="100"/>
          <note key="57" pos="528" pan="0" len="48" vol="100"/>
          <note key="55" pos="528" pan="0" len="48" vol="100"/>
          <note key="78" pos="576" pan="0" len="24" vol="100"/>
          <note key="51" pos="576" pan="0" len="192" vol="100"/>
          <note key="47" pos="576" pan="0" len="192" vol="100"/>
          <note key="79" pos="600" pan="0" len="24" vol="100"/>
          <note key="78" pos="624" pan="0" len="24" vol="100"/>
          <note key="63" pos="624" pan="0" len="144" vol="100"/>
          <note key="59" pos="624" pan="0" len="96" vol="100"/>
          <note key="42" pos="624" pan="0" len="144" vol="100"/>
          <note key="79" pos="648" pan="0" len="24" vol="100"/>
          <note key="76" pos="672" pan="0" len="24" vol="100"/>
          <note key="66" pos="672" pan="0" len="96" vol="100"/>
          <note key="62" pos="672" pan="0" len="96" vol="100"/>
          <note key="54" pos="672" pan="0" len="96" vol="100"/>
          <note key="78" pos="696" pan="0" len="24" vol="100"/>
          <note key="76" pos="720" pan="0" len="24" vol="100"/>
          <note key="64" pos="720" pan="0" len="48" vol="100"/>
          <note key="59" pos="720" pan="0" len="48" vol="100"/>
          <note key="53" pos="720" pan="0" len="48" vol="100"/>
          <note key="74" pos="744" pan="0" len="24" vol="100"/>
          <note key="71" pos="768" pan="0" len="48" vol="100"/>
          <note key="52" pos="768" pan="0" len="192" vol="100"/>
          <note key="47" pos="768" pan="0" len="192" vol="100"/>
          <note key="69" pos="816" pan="0" len="48" vol="100"/>
          <note key="57" pos="816" pan="0" len="48" vol="100"/>
          <note key="55" pos="816" pan="0" len="48" vol="100"/>
          <note key="40" pos="816" pan="0" len="144" vol="100"/>
          <note key="67" pos="864" pan="0" len="48" vol="100"/>
          <note key="59" pos="864" pan="0" len="96" vol="100"/>
          <note key="57" pos="864" pan="0" len="48" vol="100"/>
          <note key="55" pos="864" pan="0" len="96" vol="100"/>
          <note key="71" pos="912" pan="0" len="48" vol="100"/>
          <note key="57" pos="912" pan="0" len="48" vol="100"/>
          <note key="69" pos="960" pan="0" len="48" vol="100"/>
          <note key="50" pos="960" pan="0" len="48" vol="100"/>
          <note key="43" pos="960" pan="0" len="144" vol="100"/>
          <note key="67" pos="1008" pan="0" len="48" vol="100"/>
          <note key="52" pos="1008" pan="0" len="48" vol="100"/>
          <note key="50" pos="1008" pan="0" len="144" vol="100"/>
          <note key="38" pos="1008" pan="0" len="144" vol="100"/>
          <note key="64" pos="1056" pan="0" len="48" vol="100"/>
          <note key="55" pos="1056" pan="0" len="96" vol="100"/>
          <note key="52" pos="1056" pan="0" len="96" vol="100"/>
          <note key="62" pos="1104" pan="0" len="48" vol="100"/>
          <note key="43" pos="1104" pan="0" len="48" vol="100"/>
          <note key="36" pos="1104" pan="0" len="48" vol="100"/>
          <note key="61" pos="1152" pan="0" len="48" vol="100"/>
          <note key="45" pos="1152" pan="0" len="48" vol="100"/>
          <note key="40" pos="1152" pan="0" len="192" vol="100"/>
          <note key="69" pos="1200" pan="0" len="48" vol="100"/>
          <note key="49" pos="1200" pan="0" len="48" vol="100"/>
          <note key="45" pos="1200" pan="0" len="96" vol="100"/>
          <note key="37" pos="1200" pan="0" len="144" vol="100"/>
          <note key="64" pos="1248" pan="0" len="48" vol="100"/>
          <note key="52" pos="1248" pan="0" len="48" vol="100"/>
          <note key="49" pos="1248" pan="0" len="48" vol="100"/>
          <note key="69" pos="1296" pan="0" len="48" vol="100"/>
          <note key="52" pos="1296" pan="0" len="48" vol="100"/>
          <note key="49" pos="1296" pan="0" len="48" vol="100"/>
          <note key="45" pos="1296" pan="0" len="48" vol="100"/>
          <note key="71" pos="1344" pan="0" len="192" vol="100"/>
          <note key="51" pos="1344" pan="0" len="192" vol="100"/>
          <note key="47" pos="1344" pan="0" len="192" vol="100"/>
          <note key="42" pos="1344" pan="0" len="192" vol="100"/>
          <note key="35" pos="1344" pan="0" len="192" vol="100"/>
        </midiclip>
        <midiclip name="" pos="18816" muted="0" type="1" steps="16">
          <note key="69" pos="0" pan="0" len="48" vol="100"/>
          <note key="64" pos="0" pan="0" len="48" vol="100"/>
          <note key="45" pos="0" pan="0" len="192" vol="100"/>
          <note key="33" pos="0" pan="0" len="192" vol="100"/>
          <note key="48" pos="24" pan="0" len="168" vol="100"/>
          <note key="69" pos="48" pan="0" len="24" vol="100"/>
          <note key="64" pos="48" pan="0" len="24" vol="100"/>
          <note key="52" pos="48" pan="0" len="144" vol="100"/>
          <note key="69" pos="72" pan="0" len="48" vol="100"/>
          <note key="64" pos="72" pan="0" len="48" vol="100"/>
          <note key="57" pos="72" pan="0" len="120" vol="100"/>
          <note key="76" pos="120" pan="0" len="48" vol="100"/>
          <note key="72" pos="120" pan="0" len="48" vol="100"/>
          <note key="76" pos="168" pan="0" len="48" vol="100"/>
          <note key="72" pos="168" pan="0" len="48" vol="100"/>
          <note key="43" pos="192" pan="0" len="192" vol="100"/>
          <note key="31" pos="192" pan="0" len="192" vol="100"/>
          <note key="74" pos="216" pan="0" len="48" vol="100"/>
          <note key="71" pos="216" pan="0" len="48" vol="100"/>
          <note key="47" pos="216" pan="0" len="168" vol="100"/>
          <note key="52" pos="240" pan="0" len="144" vol="100"/>
          <note key="74" pos="264" pan="0" len="48" vol="100"/>
          <note key="71" pos="264" pan="0" len="48" vol="100"/>
          <note key="55" pos="264" pan="0" len="120" vol="100"/>
          <note key="72" pos="312" pan="0" len="24" vol="100"/>
          <note key="69" pos="312" pan="0" len="24" vol="100"/>
          <note key="71" pos="336" pan="0" len="24" vol="100"/>
          <note key="67" pos="336" pan="0" len="24" vol="100"/>
          <note key="69" pos="360" pan="0" len="48" vol="100"/>
          <note key="65" pos="360" pan="0" len="48" vol="100"/>
          <note key="41" pos="384" pan="0" len="192" vol="100"/>
          <note key="36" pos="384" pan="0" len="192" vol="100"/>
          <note key="69" pos="408" pan="0" len="24" vol="100"/>
          <note key="65" pos="408" pan="0" len="24" vol="100"/>
          <note key="45" pos="408" pan="0" len="168" vol="100"/>
          <note key="69" pos="432" pan="0" len="24" vol="100"/>
          <note key="65" pos="432" pan="0" len="24" vol="100"/>
          <note key="48" pos="432" pan="0" len="144" vol="100"/>
          <note key="69" pos="456" pan="0" len="48" vol="100"/>
          <note key="65" pos="456" pan="0" len="48" vol="100"/>
          <note key="53" pos="456" pan="0" len="120" vol="100"/>
          <note key="69" pos="504" pan="0" len="24" vol="100"/>
          <note key="65" pos="504" pan="0" len="24" vol="100"/>
          <note key="71" pos="528" pan="0" len="24" vol="100"/>
          <note key="67" pos="528" pan="0" len="24" vol="100"/>
          <note key="72" pos="552" pan="0" len="144" vol="100"/>
          <note key="69" pos="552" pan="0" len="144" vol="100"/>
          <note key="41" pos="576" pan="0" len="192" vol="100"/>
          <note key="38" pos="576" pan="0" len="192" vol="100"/>
          <note key="45" pos="612" pan="0" len="156" vol="100"/>
          <note key="53" pos="648" pan="0" len="120" vol="100"/>
          <note key="64" pos="696" pan="0" len="24" vol="100"/>
          <note key="59" pos="696" pan="0" len="24" vol="100"/>
          <note key="31" pos="696" pan="0" len="72" vol="100"/>
          <note key="64" pos="720" pan="0" len="24" vol="100"/>
          <note key="60" pos="720" pan="0" len="24" vol="100"/>
          <note key="67" pos="744" pan="0" len="24" vol="100"/>
          <note key="62" pos="744" pan="0" len="24" vol="100"/>
          <note key="69" pos="768" pan="0" len="48" vol="100"/>
          <note key="64" pos="768" pan="0" len="48" vol="100"/>
          <note key="45" pos="768" pan="0" len="192" vol="100"/>
          <note key="33" pos="768" pan="0" len="192" vol="100"/>
          <note key="48" pos="792" pan="0" len="168" vol="100"/>
          <note key="69" pos="816" pan="0" len="24" vol="100"/>
          <note key="64" pos="816" pan="0" len="24" vol="100"/>
          <note key="52" pos="816" pan="0" len="144" vol="100"/>
          <note key="69" pos="840" pan="0" len="48" vol="100"/>
          <note key="64" pos="840" pan="0" len="48" vol="100"/>
          <note key="57" pos="840" pan="0" len="120" vol="100"/>
          <note key="76" pos="888" pan="0" len="48" vol="100"/>
          <note key="72" pos="888" pan="0" len="48" vol="100"/>
          <note key="76" pos="936" pan="0" len="48" vol="100"/>
          <note key="72" pos="936" pan="0" len="48" vol="100"/>
          <note key="43" pos="960" pan="0" len="192" vol="100"/>
          <note key="31" pos="960" pan="0" len="192" vol="100"/>
          <note key="77" pos="984" pan="0" len="48" vol="100"/>
          <note key="74" pos="984" pan="0" len="48" vol="100"/>
          <note key="47" pos="984" pan="0" len="168" vol="100"/>
          <note key="52" pos="1008" pan="0" len="144" vol="100"/>
          <note key="74" pos="1032" pan="0" len="48" vol="100"/>
          <note key="71" pos="1032" pan="0" len="48" vol="100"/>
          <note key="55" pos="1032" pan="0" len="120" vol="100"/>
          <note key="72" pos="1080" pan="0" len="24" vol="100"/>
          <note key="69" pos="1080" pan="0" len="24" vol="100"/>
          <note key="71" pos="1104" pan="0" len="24" vol="100"/>
          <note key="67" pos="1104" pan="0" len="24" vol="100"/>
          <note key="69" pos="1128" pan="0" len="48" vol="100"/>
          <note key="65" pos="1128" pan="0" len="48" vol="100"/>
          <note key="41" pos="1152" pan="0" len="192" vol="100"/>
          <note key="36" pos="1152" pan="0" len="192" vol="100"/>
          <note key="69" pos="1176" pan="0" len="24" vol="100"/>
          <note key="65" pos="1176" pan="0" len="24" vol="100"/>
          <note key="45" pos="1176" pan="0" len="168" vol="100"/>
          <note key="69" pos="1200" pan="0" len="24" vol="100"/>
          <note key="65" pos="1200" pan="0" len="24" vol="100"/>
          <note key="48" pos="1200" pan="0" len="144" vol="100"/>
          <note key="69" pos="1224" pan="0" len="48" vol="100"/>
          <note key="65" pos="1224" pan="0" len="48" vol="100"/>
          <note key="53" pos="1224" pan="0" len="120" vol="100"/>
          <note key="69" pos="1272" pan="0" len="24" vol="100"/>
          <note key="65" pos="1272" pan="0" len="24" vol="100"/>
          <note key="71" pos="1296" pan="0" len="24" vol="100"/>
          <note key="67" pos="1296" pan="0" len="24" vol="100"/>
          <note key="72" pos="1320" pan="0" len="144" vol="100"/>
          <note key="69" pos="1320" pan="0" len="144" vol="100"/>
          <note key="41" pos="1344" pan="0" len="192" vol="100"/>
          <note key="38" pos="1344" pan="0" len="192" vol="100"/>
          <note key="45" pos="1380" pan="0" len="156" vol="100"/>
          <note key="53" pos="1416" pan="0" len="120" vol="100"/>
          <note key="64" pos="1464" pan="0" len="24" vol="100"/>
          <note key="59" pos="1464" pan="0" len="24" vol="100"/>
          <note key="31" pos="1464" pan="0" len="72" vol="100"/>
          <note key="64" pos="1488" pan="0" len="24" vol="100"/>
          <note key="60" pos="1488" pan="0" len="24" vol="100"/>
          <note key="67" pos="1512" pan="0" len="24" vol="100"/>
          <note key="62" pos="1512" pan="0" len="24" vol="100"/>
        </midiclip>
        <midiclip name="" pos="4224" muted="0" type="1" steps="16">
          <note key="69" pos="0" pan="0" len="48" vol="100"/>
          <note key="64" pos="0" pan="0" len="48" vol="100"/>
          <note key="45" pos="0" pan="0" len="192" vol="100"/>
          <note key="33" pos="0" pan="0" len="192" vol="100"/>
          <note key="48" pos="24" pan="0" len="168" vol="100"/>
          <note key="69" pos="48" pan="0" len="24" vol="100"/>
          <note key="64" pos="48" pan="0" len="24" vol="100"/>
          <note key="52" pos="48" pan="0" len="144" vol="100"/>
          <note key="69" pos="72" pan="0" len="48" vol="100"/>
          <note key="64" pos="72" pan="0" len="48" vol="100"/>
          <note key="57" pos="72" pan="0" len="120" vol="100"/>
          <note key="76" pos="120" pan="0" len="48" vol="100"/>
          <note key="72" pos="120" pan="0" len="48" vol="100"/>
          <note key="76" pos="168" pan="0" len="48" vol="100"/>
          <note key="72" pos="168" pan="0" len="48" vol="100"/>
          <note key="43" pos="192" pan="0" len="192" vol="100"/>
          <note key="31" pos="192" pan="0" len="192" vol="100"/>
          <note key="74" pos="216" pan="0" len="48" vol="100"/>
          <note key="71" pos="216" pan="0" len="48" vol="100"/>
          <note key="47" pos="216" pan="0" len="168" vol="100"/>
          <note key="52" pos="240" pan="0" len="144" vol="100"/>
          <note key="74" pos="264" pan="0" len="48" vol="100"/>
          <note key="71" pos="264" pan="0" len="48" vol="100"/>
          <note key="55" pos="264" pan="0" len="120" vol="100"/>
          <note key="72" pos="312" pan="0" len="24" vol="100"/>
          <note key="69" pos="312" pan="0" len="24" vol="100"/>
          <note key="71" pos="336" pan="0" len="24" vol="100"/>
          <note key="67" pos="336" pan="0" len="24" vol="100"/>
          <note key="69" pos="360" pan="0" len="48" vol="100"/>
          <note key="65" pos="360" pan="0" len="48" vol="100"/>
          <note key="41" pos="384" pan="0" len="192" vol="100"/>
          <note key="36" pos="384" pan="0" len="192" vol="100"/>
          <note key="69" pos="408" pan="0" len="24" vol="100"/>
          <note key="65" pos="408" pan="0" len="24" vol="100"/>
          <note key="45" pos="408" pan="0" len="168" vol="100"/>
          <note key="69" pos="432" pan="0" len="24" vol="100"/>
          <note key="65" pos="432" pan="0" len="24" vol="100"/>
          <note key="48" pos="432" pan="0" len="144" vol="100"/>
          <note key="69" pos="456" pan="0" len="48" vol="100"/>
          <note key="65" pos="456" pan="0" len="48" vol="100"/>
          <note key="53" pos="456" pan="0" len="120" vol="100"/>
          <note key="69" pos="504" pan="0" len="24" vol="100"/>
          <note key="65" pos="504" pan="0" len="24" vol="100"/>
          <note key="71" pos="528" pan="0" len="24" vol="100"/>
          <note key="67" pos="528" pan="0" len="24" vol="100"/>
          <note key="72" pos="552" pan="0" len="144" vol="100"/>
          <note key="69" pos="552" pan="0" len="144" vol="100"/>
          <note key="41" pos="576" pan="0" len="192" vol="100"/>
          <note key="38" pos="576" pan="0" len="192" vol="100"/>
          <note key="45" pos="612" pan="0" len="156" vol="100"/>
          <note key="53" pos="648" pan="0" len="120" vol="100"/>
          <note key="64" pos="696" pan="0" len="24" vol="100"/>
          <note key="59" pos="696" pan="0" len="24" vol="100"/>
          <note key="31" pos="696" pan="0" len="72" vol="100"/>
          <note key="64" pos="720" pan="0" len="24" vol="100"/>
          <note key="60" pos="720" pan="0" len="24" vol="100"/>
          <note key="67" pos="744" pan="0" len="24" vol="100"/>
          <note key="62" pos="744" pan="0" len="24" vol="100"/>
          <note key="69" pos="768" pan="0" len="48" vol="100"/>
          <note key="64" pos="768" pan="0" len="48" vol="100"/>
          <note key="45" pos="768" pan="0" len="192" vol="100"/>
          <note key="33" pos="768" pan="0" len="192" vol="100"/>
          <note key="48" pos="792" pan="0" len="168" vol="100"/>
          <note key="69" pos="816" pan="0" len="24" vol="100"/>
          <note key="64" pos="816" pan="0" len="24" vol="100"/>
          <note key="52" pos="816" pan="0" len="144" vol="100"/>
          <note key="69" pos="840" pan="0" len="48" vol="100"/>
          <note key="64" pos="840" pan="0" len="48" vol="100"/>
          <note key="57" pos="840" pan="0" len="120" vol="100"/>
          <note key="76" pos="888" pan="0" len="48" vol="100"/>
          <note key="72" pos="888" pan="0" len="48" vol="100"/>
          <note key="76" pos="936" pan="0" len="48" vol="100"/>
          <note key="72" pos="936" pan="0" len="48" vol="100"/>
          <note key="43" pos="960" pan="0" len="192" vol="100"/>
          <note key="31" pos="960" pan="0" len="192" vol="100"/>
          <note key="77" pos="984" pan="0" len="48" vol="100"/>
          <note key="74" pos="984" pan="0" len="48" vol="100"/>
          <note key="47" pos="984" pan="0" len="168" vol="100"/>
          <note key="52" pos="1008" pan="0" len="144" vol="100"/>
          <note key="74" pos="1032" pan="0" len="48" vol="100"/>
          <note key="71" pos="1032" pan="0" len="48" vol="100"/>
          <note key="55" pos="1032" pan="0" len="120" vol="100"/>
          <note key="72" pos="1080" pan="0" len="24" vol="100"/>
          <note key="69" pos="1080" pan="0" len="24" vol="100"/>
          <note key="71" pos="1104" pan="0" len="24" vol="100"/>
          <note key="67" pos="1104" pan="0" len="24" vol="100"/>
          <note key="69" pos="1128" pan="0" len="48" vol="100"/>
          <note key="65" pos="1128" pan="0" len="48" vol="100"/>
          <note key="41" pos="1152" pan="0" len="192" vol="100"/>
          <note key="36" pos="1152" pan="0" len="192" vol="100"/>
          <note key="69" pos="1176" pan="0" len="24" vol="100"/>
          <note key="65" pos="1176" pan="0" len="24" vol="100"/>
          <note key="45" pos="1176" pan="0" len="168" vol="100"/>
          <note key="69" pos="1200" pan="0" len="24" vol="100"/>
          <note key="65" pos="1200" pan="0" len="24" vol="100"/>
          <note key="48" pos="1200" pan="0" len="144" vol="100"/>
          <note key="69" pos="1224" pan="0" len="48" vol="100"/>
          <note key="65" pos="1224" pan="0" len="48" vol="100"/>
          <note key="53" pos="1224" pan="0" len="120" vol="100"/>
          <note key="69" pos="1272" pan="0" len="24" vol="100"/>
          <note key="65" pos="1272" pan="0" len="24" vol="100"/>
          <note key="71" pos="1296" pan="0" len="24" vol="100"/>
          <note key="67" pos="1296" pan="0" len="24" vol="100"/>
          <note key="72" pos="1320" pan="0" len="144" vol="100"/>
          <note key="69" pos="1320" pan="0" len="144" vol="100"/>
          <note key="41" pos="1344" pan="0" len="192" vol="100"/>
          <note key="38" pos="1344" pan="0" len="192" vol="100"/>
          <note key="45" pos="1380" pan="0" len="156" vol="100"/>
          <note key="53" pos="1416" pan="0" len="120" vol="100"/>
          <note key="64" pos="1464" pan="0" len="24" vol="100"/>
          <note key="59" pos="1464" pan="0" len="24" vol="100"/>
          <note key="31" pos="1464" pan="0" len="72" vol="100"/>
          <note key="64" pos="1488" pan="0" len="24" vol="100"/>
          <note key="60" pos="1488" pan="0" len="24" vol="100"/>
          <note key="67" pos="1512" pan="0" len="24" vol="100"/>
          <note key="62" pos="1512" pan="0" len="24" vol="100"/>
        </midiclip>
      </track>
    </trackcontainer>
    <track name="Automation track" muted="0" type="6" solo="0" mutedBeforeSolo="0">
      <automationtrack/>
      <automationclip tens="1" name="Numerator" pos="0" len="192" prog="0" mute="0"/>
      <automationclip tens="1" name="Denominator" pos="0" len="192" prog="0" mute="0"/>
      <automationclip tens="1" name="Tempo" pos="0" len="192" prog="0" mute="0"/>
      <automationclip tens="1" name="Master volume" pos="0" len="192" prog="0" mute="0"/>
      <automationclip tens="1" name="Master pitch" pos="0" len="192" prog="0" mute="0"/>
    </track>
    <mixer maximized="0" height="333" x="1" visible="1" width="1893" minimized="0" y="600">
      <mixerchannel name="Master" muted="0" soloed="0" num="0" volume="1">
        <fxchain enabled="0" numofeffects="0"/>
      </mixerchannel>
      <mixerchannel name="Touhou" muted="0" soloed="0" num="1" volume="1">
        <fxchain enabled="1" numofeffects="1">
          <effect name="vsteffect" autoquit_syncmode="0" wet="1" gate="0" autoquit_numerator="4" autoquit_denominator="4" on="1" autoquit="1">
            <vsteffectcontrols param2="2:Predelay:0.5" param6="6:Mix:0.12" program="0" param1="1:Damping:0.24" param3="3:Hi Damp:0.07" plugin="Effects\Classic Reverb\Classic Reverb.dll" param4="4:Lo Cut:0" guivisible="0" numparams="8" param7="7:Level:0.5" param5="5:Early Ref.:0" param0="0:Size:1"/>
            <key>
              <attribute value="Effects\Classic Reverb\Classic Reverb.dll" name="file"/>
            </key>
          </effect>
        </fxchain>
        <send channel="0" amount="1"/>
      </mixerchannel>
    </mixer>
    <ControllerRackView maximized="0" height="200" x="550" visible="0" width="350" minimized="0" y="487"/>
    <pianoroll maximized="0" height="600" x="224" visible="0" width="970" minimized="0" y="274"/>
    <automationeditor maximized="0" height="400" x="1" visible="0" width="860" minimized="0" y="1"/>
    <projectnotes maximized="0" height="400" x="700" visible="0" width="686" minimized="0" y="10"><![CDATA[<!DOCTYPE HTML PUBLIC "-//W3C//DTD HTML 4.0//EN" "http://www.w3.org/TR/REC-html40/strict.dtd">
<html><head><meta name="qrichtext" content="1" /><style type="text/css">
p, li { white-space: pre-wrap; }
</style></head><body style=" font-family:'MS Shell Dlg 2'; font-size:8.25pt; font-weight:400; font-style:normal;">
<p style=" margin-top:0px; margin-bottom:0px; margin-left:0px; margin-right:0px; -qt-block-indent:0; text-indent:0px;"><span style=" color:#e0e0e0;">&lt;&lt;&lt;&lt;&lt;&lt;</span></p></body></html>]]></projectnotes>
    <timeline stopbehaviour="1" lpstate="1" lp0pos="0" lp1pos="11136"/>
    <controllers/>
    <scales>
      <scale description="empty">
        <interval num="1" den="1"/>
      </scale>
      <scale description="empty">
        <interval num="1" den="1"/>
      </scale>
      <scale description="empty">
        <interval num="1" den="1"/>
      </scale>
      <scale description="empty">
        <interval num="1" den="1"/>
      </scale>
      <scale description="empty">
        <interval num="1" den="1"/>
      </scale>
      <scale description="empty">
        <interval num="1" den="1"/>
      </scale>
      <scale description="empty">
        <interval num="1" den="1"/>
      </scale>
      <scale description="empty">
        <interval num="1" den="1"/>
      </scale>
      <scale description="empty">
        <interval num="1" den="1"/>
      </scale>
      <scale description="empty">
        <interval num="1" den="1"/>
      </scale>
    </scales>
    <keymaps>
      <keymap first_key="0" last_key="127" base_freq="440" description="empty" base_key="69" middle_key="60"/>
      <keymap first_key="0" last_key="127" base_freq="440" description="empty" base_key="69" middle_key="60"/>
      <keymap first_key="0" last_key="127" base_freq="440" description="empty" base_key="69" middle_key="60"/>
      <keymap first_key="0" last_key="127" base_freq="440" description="empty" base_key="69" middle_key="60"/>
      <keymap first_key="0" last_key="127" base_freq="440" description="empty" base_key="69" middle_key="60"/>
      <keymap first_key="0" last_key="127" base_freq="440" description="empty" base_key="69" middle_key="60"/>
      <keymap first_key="0" last_key="127" base_freq="440" description="empty" base_key="69" middle_key="60"/>
      <keymap first_key="0" last_key="127" base_freq="440" description="empty" base_key="69" middle_key="60"/>
      <keymap first_key="0" last_key="127" base_freq="440" description="empty" base_key="69" middle_key="60"/>
      <keymap first_key="0" last_key="127" base_freq="440" description="empty" base_key="69" middle_key="60"/>
    </keymaps>
  </song>
</lmms-project>
