<?xml version="1.0"?>
<!DOCTYPE lmms-project>
<lmms-project version="23" creator="LMMS" creatorversion="1.3.0-alpha.1.231+g49b1f83e4" type="song">
  <head timesig_numerator="4" timesig_denominator="4" bpm="115" masterpitch="0" mastervol="100"/>
  <song>
    <trackcontainer x="1" minimized="0" width="964" maximized="0" visible="1" y="1" type="song" height="915">
      <track solo="0" muted="0" mutedBeforeSolo="0" type="0" name="Piano">
        <instrumenttrack lastkey="127" usemasterpitch="1" pan="0" pitchrange="1" basenote="69" enabled="0" firstkey="0" keymap="0" enablecc="0" vol="100" range_import="1" mixch="3" scale="0" pitch="0">
          <midicontrollers cc66="0" cc52="0" cc64="0" cc28="0" cc48="0" cc7="0" cc96="0" cc124="0" cc53="0" cc54="0" cc9="0" cc8="0" cc79="0" cc85="0" cc18="0" cc81="0" cc43="0" cc123="0" cc46="0" cc95="0" cc111="0" cc1="0" cc59="0" cc115="0" cc4="0" cc62="0" cc110="0" cc0="0" cc109="0" cc116="0" cc51="0" cc44="0" cc34="0" cc71="0" cc45="0" cc88="0" cc122="0" cc92="0" cc127="0" cc16="0" cc73="0" cc100="0" cc55="0" cc105="0" cc82="0" cc29="0" cc13="0" cc112="0" cc42="0" cc38="0" cc25="0" cc14="0" cc98="0" cc119="0" cc126="0" cc114="0" cc76="0" cc101="0" cc47="0" cc80="0" cc68="0" cc90="0" cc121="0" cc30="0" cc19="0" cc36="0" cc31="0" cc24="0" cc41="0" cc83="0" cc60="0" cc108="0" cc113="0" cc56="0" cc94="0" cc67="0" cc63="0" cc3="0" cc6="0" cc103="0" cc49="0" cc11="0" cc10="0" cc102="0" cc57="0" cc77="0" cc86="0" cc93="0" cc120="0" cc72="0" cc26="0" cc21="0" cc35="0" cc74="0" cc27="0" cc99="0" cc33="0" cc106="0" cc125="0" cc5="0" cc17="0" cc84="0" cc107="0" cc58="0" cc37="0" cc15="0" cc104="0" cc87="0" cc20="0" cc2="0" cc65="0" cc78="0" cc91="0" cc50="0" cc22="0" cc39="0" cc97="0" cc40="0" cc23="0" cc32="0" cc75="0" cc12="0" cc70="0" cc61="0" cc69="0" cc89="0" cc118="0" cc117="0"/>
          <instrument name="sf2player">
            <sf2player reverbRoomSize="0.2" reverbLevel="0.9" chorusOn="0" reverbWidth="0.5" reverbDamping="0" gain="0.2" chorusDepth="8" chorusSpeed="0.3" patch="0" reverbOn="0" chorusNum="3" chorusLevel="2" src="usersoundfont:SGM-V2.01.sf2" bank="0">
              <key/>
            </sf2player>
          </instrument>
          <eldata ftype="0" fcut="14000" fwet="0" fres="0.5">
            <elvol lspd_numerator="4" lspd_denominator="4" lshp="0" lspd="0.1" hold="0.5" amt="0" lamt="0" rel="0.1" ctlenvamt="0" lpdel="0" latt="0" userwavefile="" lspd_syncmode="0" sustain="0.5" pdel="0" x100="0" att="0" dec="0.5"/>
            <elcut lspd_numerator="4" lspd_denominator="4" lshp="0" lspd="0.1" hold="0.5" amt="0" lamt="0" rel="0.1" ctlenvamt="0" lpdel="0" latt="0" userwavefile="" lspd_syncmode="0" sustain="0.5" pdel="0" x100="0" att="0" dec="0.5"/>
            <elres lspd_numerator="4" lspd_denominator="4" lshp="0" lspd="0.1" hold="0.5" amt="0" lamt="0" rel="0.1" ctlenvamt="0" lpdel="0" latt="0" userwavefile="" lspd_syncmode="0" sustain="0.5" pdel="0" x100="0" att="0" dec="0.5"/>
          </eldata>
          <chordcreator chord="0" chordrange="1" chord-enabled="0"/>
          <arpeggiator arpgate="100" arp-enabled="0" arprepeats="1" arpmode="0" arprange="1" arpcycle="0" arpmiss="0" arpskip="0" arptime_denominator="4" arptime="200" arptime_syncmode="0" arp="0" arptime_numerator="4" arpdir="0"/>
          <midiport inputcontroller="0" inputchannel="0" fixedoutputnote="-1" outputprogram="1" readable="1" fixedinputvelocity="-1" fixedoutputvelocity="-1" writable="0" inports="" outputcontroller="0" basevelocity="127" outputchannel="1"/>
          <fxchain enabled="0" numofeffects="0"/>
        </instrumenttrack>
        <midiclip muted="0" steps="16" pos="2304" type="1" name="">
          <note pan="0" key="60" len="168" vol="100" pos="0"/>
          <note pan="0" key="57" len="168" vol="100" pos="0"/>
          <note pan="0" key="52" len="168" vol="100" pos="0"/>
          <note pan="0" key="81" len="12" vol="100" pos="24"/>
          <note pan="0" key="81" len="24" vol="100" pos="48"/>
          <note pan="0" key="79" len="24" vol="100" pos="72"/>
          <note pan="0" key="81" len="84" vol="100" pos="96"/>
          <note pan="0" key="81" len="24" vol="100" pos="192"/>
          <note pan="0" key="59" len="168" vol="100" pos="192"/>
          <note pan="0" key="55" len="168" vol="100" pos="192"/>
          <note pan="0" key="50" len="168" vol="100" pos="192"/>
          <note pan="0" key="79" len="24" vol="100" pos="216"/>
          <note pan="0" key="81" len="12" vol="100" pos="240"/>
          <note pan="0" key="81" len="48" vol="100" pos="264"/>
          <note pan="0" key="84" len="60" vol="100" pos="312"/>
          <note pan="0" key="62" len="168" vol="100" pos="384"/>
          <note pan="0" key="57" len="168" vol="100" pos="384"/>
          <note pan="0" key="53" len="168" vol="100" pos="384"/>
          <note pan="0" key="86" len="12" vol="100" pos="408"/>
          <note pan="0" key="86" len="24" vol="100" pos="432"/>
          <note pan="0" key="84" len="24" vol="100" pos="456"/>
          <note pan="0" key="86" len="48" vol="100" pos="480"/>
          <note pan="0" key="84" len="48" vol="100" pos="528"/>
          <note pan="0" key="86" len="24" vol="100" pos="576"/>
          <note pan="0" key="60" len="168" vol="100" pos="576"/>
          <note pan="0" key="57" len="168" vol="100" pos="576"/>
          <note pan="0" key="52" len="168" vol="100" pos="576"/>
          <note pan="0" key="84" len="48" vol="100" pos="600"/>
          <note pan="0" key="81" len="120" vol="100" pos="648"/>
          <note pan="0" key="76" len="168" vol="100" pos="768"/>
          <note pan="0" key="72" len="168" vol="100" pos="768"/>
          <note pan="0" key="69" len="168" vol="100" pos="768"/>
          <note pan="0" key="74" len="168" vol="100" pos="960"/>
          <note pan="0" key="71" len="168" vol="100" pos="960"/>
          <note pan="0" key="69" len="168" vol="100" pos="960"/>
          <note pan="0" key="74" len="168" vol="100" pos="1152"/>
          <note pan="0" key="71" len="168" vol="100" pos="1152"/>
          <note pan="0" key="67" len="168" vol="100" pos="1152"/>
        </midiclip>
        <midiclip muted="0" steps="16" pos="0" type="1" name="">
          <note pan="0" key="52" len="168" vol="100" pos="0"/>
          <note pan="0" key="57" len="168" vol="100" pos="12"/>
          <note pan="0" key="60" len="168" vol="100" pos="24"/>
          <note pan="0" key="50" len="168" vol="100" pos="192"/>
          <note pan="0" key="55" len="168" vol="100" pos="204"/>
          <note pan="0" key="59" len="168" vol="100" pos="216"/>
          <note pan="0" key="53" len="168" vol="100" pos="384"/>
          <note pan="0" key="57" len="168" vol="100" pos="396"/>
          <note pan="0" key="62" len="168" vol="100" pos="408"/>
          <note pan="0" key="52" len="168" vol="100" pos="576"/>
          <note pan="0" key="57" len="168" vol="100" pos="588"/>
          <note pan="0" key="60" len="168" vol="100" pos="600"/>
        </midiclip>
        <midiclip muted="0" steps="16" pos="768" type="1" name="">
          <note pan="0" key="52" len="168" vol="100" pos="0"/>
          <note pan="0" key="57" len="168" vol="100" pos="12"/>
          <note pan="0" key="60" len="168" vol="100" pos="24"/>
          <note pan="0" key="50" len="168" vol="100" pos="192"/>
          <note pan="0" key="55" len="168" vol="100" pos="204"/>
          <note pan="0" key="59" len="168" vol="100" pos="216"/>
          <note pan="0" key="53" len="168" vol="100" pos="384"/>
          <note pan="0" key="57" len="168" vol="100" pos="396"/>
          <note pan="0" key="62" len="168" vol="100" pos="408"/>
          <note pan="0" key="52" len="504" vol="100" pos="576"/>
          <note pan="0" key="57" len="504" vol="100" pos="588"/>
          <note pan="0" key="60" len="504" vol="100" pos="600"/>
        </midiclip>
        <midiclip muted="0" steps="16" pos="10176" type="1" name="">
          <note pan="0" key="81" len="12" vol="100" pos="24"/>
          <note pan="0" key="76" len="12" vol="100" pos="24"/>
          <note pan="0" key="72" len="12" vol="100" pos="24"/>
          <note pan="0" key="81" len="24" vol="100" pos="48"/>
          <note pan="0" key="76" len="24" vol="100" pos="48"/>
          <note pan="0" key="72" len="24" vol="100" pos="48"/>
          <note pan="0" key="79" len="24" vol="100" pos="72"/>
          <note pan="0" key="74" len="24" vol="100" pos="72"/>
          <note pan="0" key="71" len="24" vol="100" pos="72"/>
          <note pan="0" key="81" len="84" vol="100" pos="96"/>
          <note pan="0" key="76" len="84" vol="100" pos="96"/>
          <note pan="0" key="72" len="84" vol="100" pos="96"/>
          <note pan="0" key="81" len="24" vol="100" pos="192"/>
          <note pan="0" key="76" len="24" vol="100" pos="192"/>
          <note pan="0" key="72" len="24" vol="100" pos="192"/>
          <note pan="0" key="79" len="24" vol="100" pos="216"/>
          <note pan="0" key="74" len="24" vol="100" pos="216"/>
          <note pan="0" key="71" len="24" vol="100" pos="216"/>
          <note pan="0" key="81" len="12" vol="100" pos="240"/>
          <note pan="0" key="76" len="12" vol="100" pos="240"/>
          <note pan="0" key="72" len="12" vol="100" pos="240"/>
          <note pan="0" key="81" len="48" vol="100" pos="264"/>
          <note pan="0" key="76" len="48" vol="100" pos="264"/>
          <note pan="0" key="72" len="48" vol="100" pos="264"/>
          <note pan="0" key="84" len="60" vol="100" pos="312"/>
          <note pan="0" key="79" len="60" vol="100" pos="312"/>
          <note pan="0" key="76" len="60" vol="100" pos="312"/>
          <note pan="0" key="86" len="12" vol="100" pos="408"/>
          <note pan="0" key="81" len="12" vol="100" pos="408"/>
          <note pan="0" key="77" len="12" vol="100" pos="408"/>
          <note pan="0" key="86" len="24" vol="100" pos="432"/>
          <note pan="0" key="81" len="24" vol="100" pos="432"/>
          <note pan="0" key="77" len="24" vol="100" pos="432"/>
          <note pan="0" key="84" len="24" vol="100" pos="456"/>
          <note pan="0" key="79" len="24" vol="100" pos="456"/>
          <note pan="0" key="76" len="24" vol="100" pos="456"/>
          <note pan="0" key="86" len="48" vol="100" pos="480"/>
          <note pan="0" key="81" len="48" vol="100" pos="480"/>
          <note pan="0" key="77" len="48" vol="100" pos="480"/>
          <note pan="0" key="84" len="48" vol="100" pos="528"/>
          <note pan="0" key="79" len="48" vol="100" pos="528"/>
          <note pan="0" key="76" len="48" vol="100" pos="528"/>
          <note pan="0" key="86" len="24" vol="100" pos="576"/>
          <note pan="0" key="81" len="24" vol="100" pos="576"/>
          <note pan="0" key="77" len="24" vol="100" pos="576"/>
          <note pan="0" key="84" len="48" vol="100" pos="600"/>
          <note pan="0" key="79" len="48" vol="100" pos="600"/>
          <note pan="0" key="76" len="48" vol="100" pos="600"/>
          <note pan="0" key="81" len="120" vol="100" pos="648"/>
          <note pan="0" key="76" len="120" vol="100" pos="648"/>
          <note pan="0" key="72" len="120" vol="100" pos="648"/>
          <note pan="0" key="81" len="192" vol="100" pos="768"/>
          <note pan="0" key="76" len="192" vol="100" pos="768"/>
          <note pan="0" key="72" len="192" vol="100" pos="768"/>
          <note pan="0" key="81" len="192" vol="100" pos="960"/>
          <note pan="0" key="74" len="192" vol="100" pos="960"/>
          <note pan="0" key="71" len="192" vol="100" pos="960"/>
          <note pan="0" key="79" len="192" vol="100" pos="1152"/>
          <note pan="0" key="74" len="192" vol="100" pos="1152"/>
          <note pan="0" key="71" len="192" vol="100" pos="1152"/>
        </midiclip>
        <midiclip muted="0" steps="16" pos="13248" type="1" name="">
          <note pan="0" key="60" len="1536" vol="100" pos="0"/>
          <note pan="0" key="57" len="1536" vol="100" pos="0"/>
          <note pan="0" key="52" len="1536" vol="100" pos="0"/>
        </midiclip>
        <midiclip muted="0" steps="16" pos="8448" type="1" name="">
          <note pan="0" key="81" len="144" vol="100" pos="0"/>
          <note pan="0" key="76" len="24" vol="100" pos="144"/>
          <note pan="0" key="80" len="168" vol="100" pos="168"/>
          <note pan="0" key="78" len="144" vol="100" pos="384"/>
          <note pan="0" key="80" len="24" vol="100" pos="528"/>
          <note pan="0" key="76" len="72" vol="100" pos="552"/>
          <note pan="0" key="75" len="48" vol="100" pos="624"/>
          <note pan="0" key="73" len="48" vol="100" pos="672"/>
          <note pan="0" key="73" len="144" vol="100" pos="768"/>
          <note pan="0" key="76" len="24" vol="100" pos="912"/>
          <note pan="0" key="71" len="72" vol="100" pos="936"/>
          <note pan="0" key="68" len="48" vol="100" pos="1008"/>
          <note pan="0" key="76" len="48" vol="100" pos="1056"/>
          <note pan="0" key="75" len="144" vol="100" pos="1152"/>
          <note pan="0" key="79" len="24" vol="100" pos="1296"/>
          <note pan="0" key="74" len="72" vol="100" pos="1320"/>
          <note pan="0" key="83" len="36" vol="100" pos="1440"/>
          <note pan="0" key="79" len="36" vol="100" pos="1476"/>
        </midiclip>
        <midiclip muted="0" steps="16" pos="7296" type="1" name="">
          <note pan="0" key="64" len="48" vol="100" pos="0"/>
          <note pan="0" key="76" len="12" vol="100" pos="48"/>
          <note pan="0" key="74" len="48" vol="100" pos="72"/>
          <note pan="0" key="76" len="12" vol="100" pos="120"/>
          <note pan="0" key="79" len="48" vol="100" pos="192"/>
          <note pan="0" key="76" len="12" vol="100" pos="240"/>
          <note pan="0" key="74" len="48" vol="100" pos="264"/>
          <note pan="0" key="76" len="12" vol="100" pos="312"/>
        </midiclip>
        <midiclip muted="0" steps="16" pos="11520" type="1" name="">
          <note pan="0" key="95" len="36" vol="100" pos="96"/>
          <note pan="0" key="91" len="36" vol="100" pos="96"/>
          <note pan="0" key="83" len="36" vol="100" pos="96"/>
          <note pan="0" key="91" len="36" vol="100" pos="132"/>
          <note pan="0" key="86" len="36" vol="100" pos="132"/>
          <note pan="0" key="79" len="36" vol="100" pos="132"/>
        </midiclip>
        <midiclip muted="0" steps="16" pos="8064" type="1" name="">
          <note pan="0" key="68" len="48" vol="100" pos="0"/>
          <note pan="0" key="76" len="12" vol="100" pos="48"/>
          <note pan="0" key="71" len="48" vol="100" pos="72"/>
          <note pan="0" key="76" len="12" vol="100" pos="120"/>
          <note pan="0" key="67" len="48" vol="100" pos="192"/>
          <note pan="0" key="76" len="12" vol="100" pos="240"/>
          <note pan="0" key="71" len="72" vol="100" pos="264"/>
          <note pan="0" key="74" len="48" vol="100" pos="336"/>
        </midiclip>
        <midiclip muted="0" steps="16" pos="3840" type="1" name="">
          <note pan="0" key="76" len="24" vol="100" pos="0"/>
          <note pan="0" key="72" len="24" vol="100" pos="0"/>
          <note pan="0" key="81" len="12" vol="100" pos="24"/>
          <note pan="0" key="81" len="24" vol="100" pos="48"/>
          <note pan="0" key="79" len="24" vol="100" pos="72"/>
          <note pan="0" key="77" len="24" vol="100" pos="72"/>
          <note pan="0" key="74" len="24" vol="100" pos="72"/>
          <note pan="0" key="81" len="84" vol="100" pos="96"/>
          <note pan="0" key="76" len="84" vol="100" pos="96"/>
          <note pan="0" key="72" len="84" vol="100" pos="96"/>
          <note pan="0" key="69" len="48" vol="100" pos="144"/>
          <note pan="0" key="81" len="24" vol="100" pos="192"/>
          <note pan="0" key="71" len="48" vol="100" pos="192"/>
          <note pan="0" key="67" len="48" vol="100" pos="192"/>
          <note pan="0" key="79" len="24" vol="100" pos="216"/>
          <note pan="0" key="81" len="12" vol="100" pos="240"/>
          <note pan="0" key="62" len="24" vol="100" pos="240"/>
          <note pan="0" key="81" len="48" vol="100" pos="264"/>
          <note pan="0" key="74" len="108" vol="100" pos="264"/>
          <note pan="0" key="71" len="108" vol="100" pos="264"/>
          <note pan="0" key="84" len="60" vol="100" pos="312"/>
          <note pan="0" key="72" len="48" vol="100" pos="336"/>
          <note pan="0" key="79" len="84" vol="100" pos="384"/>
          <note pan="0" key="76" len="84" vol="100" pos="384"/>
          <note pan="0" key="86" len="12" vol="100" pos="408"/>
          <note pan="0" key="86" len="24" vol="100" pos="432"/>
          <note pan="0" key="84" len="24" vol="100" pos="456"/>
          <note pan="0" key="72" len="24" vol="100" pos="456"/>
          <note pan="0" key="86" len="48" vol="100" pos="480"/>
          <note pan="0" key="79" len="84" vol="100" pos="480"/>
          <note pan="0" key="74" len="84" vol="100" pos="480"/>
          <note pan="0" key="84" len="48" vol="100" pos="528"/>
          <note pan="0" key="72" len="48" vol="100" pos="528"/>
          <note pan="0" key="86" len="24" vol="100" pos="576"/>
          <note pan="0" key="76" len="48" vol="100" pos="576"/>
          <note pan="0" key="69" len="84" vol="100" pos="576"/>
          <note pan="0" key="88" len="48" vol="100" pos="600"/>
          <note pan="0" key="76" len="48" vol="100" pos="624"/>
          <note pan="0" key="81" len="108" vol="100" pos="648"/>
          <note pan="0" key="72" len="84" vol="100" pos="672"/>
          <note pan="0" key="64" len="84" vol="100" pos="672"/>
          <note pan="0" key="69" len="48" vol="100" pos="720"/>
          <note pan="0" key="62" len="84" vol="100" pos="768"/>
          <note pan="0" key="69" len="84" vol="100" pos="792"/>
          <note pan="0" key="72" len="84" vol="100" pos="816"/>
          <note pan="0" key="76" len="84" vol="100" pos="840"/>
          <note pan="0" key="69" len="24" vol="100" pos="912"/>
          <note pan="0" key="67" len="24" vol="100" pos="936"/>
          <note pan="0" key="64" len="84" vol="100" pos="960"/>
          <note pan="0" key="67" len="84" vol="100" pos="984"/>
          <note pan="0" key="71" len="84" vol="100" pos="1008"/>
          <note pan="0" key="76" len="84" vol="100" pos="1032"/>
          <note pan="0" key="68" len="24" vol="100" pos="1104"/>
          <note pan="0" key="71" len="24" vol="100" pos="1128"/>
          <note pan="0" key="64" len="84" vol="100" pos="1152"/>
          <note pan="0" key="68" len="84" vol="100" pos="1176"/>
          <note pan="0" key="71" len="84" vol="100" pos="1200"/>
          <note pan="0" key="76" len="84" vol="100" pos="1224"/>
          <note pan="0" key="68" len="48" vol="100" pos="1296"/>
          <note pan="0" key="74" len="180" vol="100" pos="1344"/>
          <note pan="0" key="69" len="180" vol="100" pos="1344"/>
          <note pan="0" key="67" len="180" vol="100" pos="1344"/>
        </midiclip>
        <midiclip muted="0" steps="16" pos="11712" type="1" name="">
          <note pan="0" key="76" len="24" vol="100" pos="0"/>
          <note pan="0" key="72" len="24" vol="100" pos="0"/>
          <note pan="0" key="81" len="12" vol="100" pos="24"/>
          <note pan="0" key="81" len="24" vol="100" pos="48"/>
          <note pan="0" key="79" len="24" vol="100" pos="72"/>
          <note pan="0" key="77" len="24" vol="100" pos="72"/>
          <note pan="0" key="74" len="24" vol="100" pos="72"/>
          <note pan="0" key="81" len="84" vol="100" pos="96"/>
          <note pan="0" key="76" len="84" vol="100" pos="96"/>
          <note pan="0" key="72" len="84" vol="100" pos="96"/>
          <note pan="0" key="69" len="48" vol="100" pos="144"/>
          <note pan="0" key="81" len="24" vol="100" pos="192"/>
          <note pan="0" key="71" len="48" vol="100" pos="192"/>
          <note pan="0" key="67" len="48" vol="100" pos="192"/>
          <note pan="0" key="79" len="24" vol="100" pos="216"/>
          <note pan="0" key="81" len="12" vol="100" pos="240"/>
          <note pan="0" key="62" len="24" vol="100" pos="240"/>
          <note pan="0" key="81" len="48" vol="100" pos="264"/>
          <note pan="0" key="74" len="108" vol="100" pos="264"/>
          <note pan="0" key="71" len="108" vol="100" pos="264"/>
          <note pan="0" key="84" len="60" vol="100" pos="312"/>
          <note pan="0" key="72" len="48" vol="100" pos="336"/>
          <note pan="0" key="79" len="84" vol="100" pos="384"/>
          <note pan="0" key="76" len="84" vol="100" pos="384"/>
          <note pan="0" key="86" len="12" vol="100" pos="408"/>
          <note pan="0" key="86" len="24" vol="100" pos="432"/>
          <note pan="0" key="84" len="24" vol="100" pos="456"/>
          <note pan="0" key="72" len="24" vol="100" pos="456"/>
          <note pan="0" key="86" len="48" vol="100" pos="480"/>
          <note pan="0" key="79" len="84" vol="100" pos="480"/>
          <note pan="0" key="74" len="84" vol="100" pos="480"/>
          <note pan="0" key="84" len="48" vol="100" pos="528"/>
          <note pan="0" key="72" len="48" vol="100" pos="528"/>
          <note pan="0" key="86" len="24" vol="100" pos="576"/>
          <note pan="0" key="76" len="48" vol="100" pos="576"/>
          <note pan="0" key="69" len="84" vol="100" pos="576"/>
          <note pan="0" key="88" len="48" vol="100" pos="600"/>
          <note pan="0" key="76" len="48" vol="100" pos="624"/>
          <note pan="0" key="81" len="108" vol="100" pos="648"/>
          <note pan="0" key="72" len="84" vol="100" pos="672"/>
          <note pan="0" key="64" len="84" vol="100" pos="672"/>
          <note pan="0" key="69" len="48" vol="100" pos="720"/>
          <note pan="0" key="62" len="84" vol="100" pos="768"/>
          <note pan="0" key="69" len="84" vol="100" pos="792"/>
          <note pan="0" key="72" len="84" vol="100" pos="816"/>
          <note pan="0" key="76" len="84" vol="100" pos="840"/>
          <note pan="0" key="69" len="24" vol="100" pos="912"/>
          <note pan="0" key="67" len="24" vol="100" pos="936"/>
          <note pan="0" key="64" len="84" vol="100" pos="960"/>
          <note pan="0" key="67" len="84" vol="100" pos="984"/>
          <note pan="0" key="71" len="84" vol="100" pos="1008"/>
          <note pan="0" key="76" len="84" vol="100" pos="1032"/>
          <note pan="0" key="68" len="24" vol="100" pos="1104"/>
          <note pan="0" key="71" len="24" vol="100" pos="1128"/>
          <note pan="0" key="64" len="84" vol="100" pos="1152"/>
          <note pan="0" key="68" len="84" vol="100" pos="1176"/>
          <note pan="0" key="71" len="84" vol="100" pos="1200"/>
          <note pan="0" key="76" len="84" vol="100" pos="1224"/>
          <note pan="0" key="68" len="48" vol="100" pos="1296"/>
          <note pan="0" key="74" len="180" vol="100" pos="1344"/>
          <note pan="0" key="69" len="180" vol="100" pos="1344"/>
          <note pan="0" key="67" len="180" vol="100" pos="1344"/>
        </midiclip>
      </track>
      <track solo="0" muted="0" mutedBeforeSolo="0" type="0" name="Lead">
        <instrumenttrack lastkey="127" usemasterpitch="1" pan="0" pitchrange="12" basenote="81" enabled="0" firstkey="0" keymap="0" enablecc="0" range_import="1" mixch="4" scale="0">
          <vol scale_type="linear" id="31387" value="36.7969"/>
          <pitch scale_type="linear" id="21158" value="0"/>
          <midicontrollers cc66="0" cc52="0" cc64="0" cc28="0" cc48="0" cc7="0" cc96="0" cc124="0" cc53="0" cc54="0" cc9="0" cc8="0" cc79="0" cc85="0" cc18="0" cc81="0" cc43="0" cc123="0" cc46="0" cc95="0" cc111="0" cc1="0" cc59="0" cc115="0" cc4="0" cc62="0" cc110="0" cc0="0" cc109="0" cc116="0" cc51="0" cc44="0" cc34="0" cc71="0" cc45="0" cc88="0" cc122="0" cc92="0" cc127="0" cc16="0" cc73="0" cc100="0" cc55="0" cc105="0" cc82="0" cc29="0" cc13="0" cc112="0" cc42="0" cc38="0" cc25="0" cc14="0" cc98="0" cc119="0" cc126="0" cc114="0" cc76="0" cc101="0" cc47="0" cc80="0" cc68="0" cc90="0" cc121="0" cc30="0" cc19="0" cc36="0" cc31="0" cc24="0" cc41="0" cc83="0" cc60="0" cc108="0" cc113="0" cc56="0" cc94="0" cc67="0" cc63="0" cc3="0" cc6="0" cc103="0" cc49="0" cc11="0" cc10="0" cc102="0" cc57="0" cc77="0" cc86="0" cc93="0" cc120="0" cc72="0" cc26="0" cc21="0" cc35="0" cc74="0" cc27="0" cc99="0" cc33="0" cc106="0" cc125="0" cc5="0" cc17="0" cc84="0" cc107="0" cc58="0" cc37="0" cc15="0" cc104="0" cc87="0" cc20="0" cc2="0" cc65="0" cc78="0" cc91="0" cc50="0" cc22="0" cc39="0" cc97="0" cc40="0" cc23="0" cc32="0" cc75="0" cc12="0" cc70="0" cc61="0" cc69="0" cc89="0" cc118="0" cc117="0"/>
          <instrument name="sf2player">
            <sf2player reverbRoomSize="0.2" reverbLevel="0.9" chorusOn="0" reverbWidth="0.5" reverbDamping="0" gain="1" chorusDepth="8" chorusSpeed="0.3" patch="70" reverbOn="0" chorusNum="3" chorusLevel="2" src="usersoundfont:GenesiSF.SF2" bank="0">
              <key/>
            </sf2player>
          </instrument>
          <eldata ftype="0" fcut="14000" fwet="0" fres="0.5">
            <elvol lspd_numerator="4" lspd_denominator="4" lshp="0" lspd="0.1" hold="0.5" amt="0" lamt="0" rel="0.1" ctlenvamt="0" lpdel="0" latt="0" userwavefile="" lspd_syncmode="0" sustain="0.5" pdel="0" x100="0" att="0" dec="0.5"/>
            <elcut lspd_numerator="4" lspd_denominator="4" lshp="0" lspd="0.1" hold="0.5" amt="0" lamt="0" rel="0.1" ctlenvamt="0" lpdel="0" latt="0" userwavefile="" lspd_syncmode="0" sustain="0.5" pdel="0" x100="0" att="0" dec="0.5"/>
            <elres lspd_numerator="4" lspd_denominator="4" lshp="0" lspd="0.1" hold="0.5" amt="0" lamt="0" rel="0.1" ctlenvamt="0" lpdel="0" latt="0" userwavefile="" lspd_syncmode="0" sustain="0.5" pdel="0" x100="0" att="0" dec="0.5"/>
          </eldata>
          <chordcreator chord="0" chordrange="1" chord-enabled="0"/>
          <arpeggiator arpgate="100" arp-enabled="0" arprepeats="1" arpmode="0" arprange="1" arpcycle="0" arpmiss="0" arpskip="0" arptime_denominator="4" arptime="200" arptime_syncmode="0" arp="0" arptime_numerator="4" arpdir="0"/>
          <midiport inputcontroller="0" inputchannel="0" fixedoutputnote="-1" outputprogram="1" readable="1" fixedinputvelocity="-1" fixedoutputvelocity="-1" writable="0" inports="" outputcontroller="0" basevelocity="63" outputchannel="1"/>
          <fxchain enabled="0" numofeffects="0"/>
        </instrumenttrack>
        <midiclip muted="0" steps="16" pos="2304" type="1" name="">
          <note pan="0" key="81" len="12" vol="100" pos="24"/>
          <note pan="0" key="81" len="24" vol="100" pos="48"/>
          <note pan="0" key="79" len="24" vol="100" pos="72"/>
          <note pan="0" key="81" len="84" vol="100" pos="96"/>
          <note pan="0" key="81" len="24" vol="100" pos="192"/>
          <note pan="0" key="79" len="24" vol="100" pos="216"/>
          <note pan="0" key="81" len="12" vol="100" pos="240"/>
          <note pan="0" key="81" len="48" vol="100" pos="264"/>
          <note pan="0" key="84" len="60" vol="100" pos="312"/>
          <note pan="0" key="86" len="12" vol="100" pos="408"/>
          <note pan="0" key="86" len="24" vol="100" pos="432"/>
          <note pan="0" key="84" len="24" vol="100" pos="456"/>
          <note pan="0" key="86" len="48" vol="100" pos="480"/>
          <note pan="0" key="84" len="48" vol="100" pos="528"/>
          <note pan="0" key="86" len="24" vol="100" pos="576"/>
          <note pan="0" key="84" len="48" vol="100" pos="600"/>
          <note pan="0" key="81" len="312" vol="100" pos="648"/>
        </midiclip>
        <midiclip muted="0" steps="16" pos="3840" type="1" name="">
          <note pan="0" key="81" len="12" vol="100" pos="24"/>
          <note pan="0" key="81" len="24" vol="100" pos="48"/>
          <note pan="0" key="79" len="24" vol="100" pos="72"/>
          <note pan="0" key="81" len="84" vol="100" pos="96"/>
          <note pan="0" key="81" len="24" vol="100" pos="192"/>
          <note pan="0" key="79" len="24" vol="100" pos="216"/>
          <note pan="0" key="81" len="12" vol="100" pos="240"/>
          <note pan="0" key="81" len="48" vol="100" pos="264"/>
          <note pan="0" key="84" len="60" vol="100" pos="312"/>
          <note pan="0" key="86" len="12" vol="100" pos="408"/>
          <note pan="0" key="86" len="24" vol="100" pos="432"/>
          <note pan="0" key="84" len="24" vol="100" pos="456"/>
          <note pan="0" key="86" len="48" vol="100" pos="480"/>
          <note pan="0" key="84" len="48" vol="100" pos="528"/>
          <note pan="0" key="86" len="24" vol="100" pos="576"/>
          <note pan="0" key="88" len="48" vol="100" pos="600"/>
          <note pan="0" key="81" len="312" vol="100" pos="648"/>
        </midiclip>
        <midiclip muted="0" steps="16" pos="0" type="1" name="">
          <note pan="0" key="81" len="36" vol="100" pos="24"/>
          <note pan="0" key="79" len="36" vol="100" pos="60"/>
          <note pan="0" key="81" len="84" vol="100" pos="96"/>
          <note pan="0" key="81" len="36" vol="100" pos="216"/>
          <note pan="0" key="79" len="36" vol="100" pos="252"/>
          <note pan="0" key="81" len="36" vol="100" pos="288"/>
          <note pan="0" key="84" len="48" vol="100" pos="324"/>
          <note pan="0" key="86" len="36" vol="100" pos="408"/>
          <note pan="0" key="84" len="36" vol="100" pos="444"/>
          <note pan="0" key="86" len="48" vol="100" pos="480"/>
          <note pan="0" key="84" len="48" vol="100" pos="528"/>
          <note pan="0" key="86" len="24" vol="100" pos="576"/>
          <note pan="0" key="84" len="48" vol="100" pos="600"/>
          <note pan="0" key="81" len="120" vol="100" pos="648"/>
        </midiclip>
        <midiclip muted="0" steps="16" pos="768" type="1" name="">
          <note pan="0" key="88" len="36" vol="100" pos="24"/>
          <note pan="0" key="84" len="36" vol="100" pos="60"/>
          <note pan="0" key="81" len="84" vol="100" pos="96"/>
          <note pan="0" key="79" len="36" vol="100" pos="216"/>
          <note pan="0" key="76" len="36" vol="100" pos="252"/>
          <note pan="0" key="79" len="36" vol="100" pos="288"/>
          <note pan="0" key="74" len="48" vol="100" pos="324"/>
          <note pan="0" key="86" len="36" vol="100" pos="408"/>
          <note pan="0" key="84" len="36" vol="100" pos="444"/>
          <note pan="0" key="81" len="48" vol="100" pos="480"/>
          <note pan="0" key="84" len="48" vol="100" pos="528"/>
          <note pan="0" key="81" len="24" vol="100" pos="576"/>
          <note pan="0" key="84" len="48" vol="100" pos="600"/>
          <note pan="0" key="81" len="300" vol="100" pos="648"/>
        </midiclip>
        <midiclip muted="0" steps="16" pos="6720" type="1" name="">
          <note pan="0" key="76" len="96" vol="100" pos="0"/>
          <note pan="0" key="79" len="96" vol="100" pos="96"/>
          <note pan="0" key="81" len="288" vol="100" pos="192"/>
          <note pan="0" key="79" len="96" vol="100" pos="480"/>
          <note pan="0" key="76" len="288" vol="100" pos="576"/>
          <note pan="0" key="79" len="48" vol="100" pos="912"/>
          <note pan="0" key="81" len="72" vol="100" pos="960"/>
          <note pan="0" key="84" len="72" vol="100" pos="1032"/>
          <note pan="0" key="81" len="72" vol="100" pos="1104"/>
          <note pan="0" key="84" len="72" vol="100" pos="1176"/>
          <note pan="0" key="81" len="48" vol="100" pos="1248"/>
          <note pan="0" key="76" len="48" vol="100" pos="1296"/>
          <note pan="0" key="80" len="192" vol="100" pos="1344"/>
          <note pan="0" key="79" len="168" vol="100" pos="1536"/>
        </midiclip>
        <midiclip muted="0" steps="16" pos="11712" type="1" name="">
          <note pan="0" key="81" len="12" vol="100" pos="24"/>
          <note pan="0" key="81" len="24" vol="100" pos="48"/>
          <note pan="0" key="79" len="24" vol="100" pos="72"/>
          <note pan="0" key="81" len="84" vol="100" pos="96"/>
          <note pan="0" key="81" len="24" vol="100" pos="192"/>
          <note pan="0" key="79" len="24" vol="100" pos="216"/>
          <note pan="0" key="81" len="12" vol="100" pos="240"/>
          <note pan="0" key="81" len="48" vol="100" pos="264"/>
          <note pan="0" key="84" len="60" vol="100" pos="312"/>
          <note pan="0" key="86" len="12" vol="100" pos="408"/>
          <note pan="0" key="86" len="24" vol="100" pos="432"/>
          <note pan="0" key="84" len="24" vol="100" pos="456"/>
          <note pan="0" key="86" len="48" vol="100" pos="480"/>
          <note pan="0" key="84" len="48" vol="100" pos="528"/>
          <note pan="0" key="86" len="24" vol="100" pos="576"/>
          <note pan="0" key="88" len="48" vol="100" pos="600"/>
          <note pan="0" key="81" len="312" vol="100" pos="648"/>
        </midiclip>
        <midiclip muted="0" steps="16" pos="11328" type="1" name="">
          <note pan="0" key="91" len="324" vol="100" pos="0"/>
        </midiclip>
        <midiclip muted="0" steps="16" pos="8448" type="1" name="">
          <note pan="0" key="81" len="144" vol="100" pos="0"/>
          <note pan="0" key="76" len="144" vol="100" pos="0"/>
          <note pan="0" key="72" len="144" vol="100" pos="0"/>
          <note pan="0" key="76" len="24" vol="100" pos="144"/>
          <note pan="0" key="71" len="24" vol="100" pos="144"/>
          <note pan="0" key="68" len="24" vol="100" pos="144"/>
          <note pan="0" key="80" len="168" vol="100" pos="168"/>
          <note pan="0" key="76" len="168" vol="100" pos="168"/>
          <note pan="0" key="71" len="168" vol="100" pos="168"/>
          <note pan="0" key="78" len="144" vol="100" pos="384"/>
          <note pan="0" key="72" len="144" vol="100" pos="384"/>
          <note pan="0" key="68" len="144" vol="100" pos="384"/>
          <note pan="0" key="80" len="24" vol="100" pos="528"/>
          <note pan="0" key="76" len="24" vol="100" pos="528"/>
          <note pan="0" key="71" len="24" vol="100" pos="528"/>
          <note pan="0" key="76" len="168" vol="100" pos="552"/>
          <note pan="0" key="73" len="168" vol="100" pos="552"/>
          <note pan="0" key="68" len="168" vol="100" pos="552"/>
          <note pan="0" key="73" len="144" vol="100" pos="768"/>
          <note pan="0" key="69" len="144" vol="100" pos="768"/>
          <note pan="0" key="64" len="144" vol="100" pos="768"/>
          <note pan="0" key="76" len="24" vol="100" pos="912"/>
          <note pan="0" key="71" len="24" vol="100" pos="912"/>
          <note pan="0" key="68" len="24" vol="100" pos="912"/>
          <note pan="0" key="71" len="120" vol="100" pos="936"/>
          <note pan="0" key="68" len="72" vol="100" pos="936"/>
          <note pan="0" key="64" len="72" vol="100" pos="936"/>
          <note pan="0" key="68" len="48" vol="100" pos="1008"/>
          <note pan="0" key="64" len="96" vol="100" pos="1008"/>
          <note pan="0" key="76" len="48" vol="100" pos="1056"/>
          <note pan="0" key="71" len="48" vol="100" pos="1056"/>
          <note pan="0" key="78" len="144" vol="100" pos="1152"/>
          <note pan="0" key="75" len="144" vol="100" pos="1152"/>
          <note pan="0" key="71" len="144" vol="100" pos="1152"/>
          <note pan="0" key="81" len="24" vol="100" pos="1296"/>
          <note pan="0" key="79" len="24" vol="100" pos="1296"/>
          <note pan="0" key="74" len="24" vol="100" pos="1296"/>
          <note pan="0" key="91" len="168" vol="100" pos="1320"/>
          <note pan="0" key="83" len="168" vol="100" pos="1320"/>
          <note pan="0" key="74" len="168" vol="100" pos="1320"/>
        </midiclip>
        <midiclip muted="0" steps="16" pos="13248" type="1" name="">
          <note pan="0" key="81" len="144" vol="100" pos="0"/>
          <note pan="0" key="84" len="144" vol="100" pos="144"/>
          <note pan="0" key="76" len="144" vol="100" pos="288"/>
          <note pan="0" key="79" len="144" vol="100" pos="432"/>
        </midiclip>
        <midiclip muted="0" steps="16" pos="13824" type="1" name="">
          <note pan="0" key="81" len="144" vol="100" pos="0"/>
          <note pan="0" key="84" len="144" vol="100" pos="144"/>
          <note pan="0" key="76" len="144" vol="100" pos="288"/>
          <note pan="0" key="79" len="144" vol="100" pos="432"/>
        </midiclip>
        <midiclip muted="0" steps="16" pos="14400" type="1" name="">
          <note pan="0" key="81" len="144" vol="100" pos="0"/>
          <note pan="0" key="84" len="144" vol="100" pos="144"/>
          <note pan="0" key="76" len="96" vol="100" pos="288"/>
        </midiclip>
        <midiclip muted="0" steps="16" pos="13056" type="1" name="">
          <note pan="0" key="79" len="192" vol="100" pos="0"/>
        </midiclip>
      </track>
      <track solo="0" muted="0" mutedBeforeSolo="0" type="5" name="Lead>Volume">
        <automationtrack/>
        <automationclip tens="1" len="192" mute="0" prog="0" pos="2304" name="Lead>Volume">
          <time pos="0" outValue="100" value="100"/>
          <object id="31387"/>
        </automationclip>
        <automationclip tens="1" len="192" mute="0" prog="0" pos="3840" name="Lead>Volume">
          <time pos="0" outValue="100" value="100"/>
          <object id="31387"/>
        </automationclip>
        <automationclip tens="1" len="192" mute="0" prog="1" pos="3072" name="Lead>Volume">
          <time pos="0" outValue="100" value="100"/>
          <time pos="192" outValue="0" value="0"/>
          <object id="31387"/>
        </automationclip>
        <automationclip tens="1" len="192" mute="0" prog="1" pos="4608" name="Lead>Volume">
          <time pos="0" outValue="100" value="100"/>
          <time pos="192" outValue="0" value="0"/>
          <object id="31387"/>
        </automationclip>
        <automationclip tens="1" len="192" mute="0" prog="0" pos="0" name="Lead>Volume">
          <time pos="0" outValue="100" value="100"/>
          <object id="31387"/>
        </automationclip>
        <automationclip tens="1" len="192" mute="0" prog="1" pos="1536" name="Lead>Volume">
          <time pos="0" outValue="100" value="100"/>
          <time pos="192" outValue="0" value="0"/>
          <object id="31387"/>
        </automationclip>
        <automationclip tens="1" len="192" mute="0" prog="1" pos="6720" name="Lead>Volume">
          <time pos="0" outValue="0" value="0"/>
          <time pos="192" outValue="80" value="80"/>
          <object id="31387"/>
        </automationclip>
        <automationclip tens="1" len="192" mute="0" prog="0" pos="6912" name="Lead>Volume">
          <time pos="0" outValue="80" value="80"/>
          <object id="31387"/>
        </automationclip>
        <automationclip tens="1" len="384" mute="0" prog="1" pos="8064" name="Lead>Volume">
          <time pos="0" outValue="80" value="80"/>
          <time pos="384" outValue="35" value="35"/>
          <object id="31387"/>
        </automationclip>
        <automationclip tens="1" len="192" mute="0" prog="0" pos="11712" name="Lead>Volume">
          <time pos="0" outValue="100" value="100"/>
          <object id="31387"/>
        </automationclip>
        <automationclip tens="1" len="192" mute="0" prog="1" pos="12480" name="Lead>Volume">
          <time pos="0" outValue="100" value="100"/>
          <time pos="192" outValue="0" value="0"/>
          <object id="31387"/>
        </automationclip>
        <automationclip tens="1" len="384" mute="0" prog="1" pos="11328" name="Lead>Volume">
          <time pos="0" outValue="0" value="0"/>
          <time pos="384" outValue="100" value="100"/>
          <object id="31387"/>
        </automationclip>
        <automationclip tens="1" len="192" mute="0" prog="1" pos="9792" name="Lead>Volume">
          <time pos="0" outValue="35" value="35"/>
          <time pos="144" outValue="100" value="100"/>
          <object id="31387"/>
        </automationclip>
        <automationclip tens="1" len="1536" mute="0" prog="1" pos="13248" name="Lead>Volume">
          <time pos="0" outValue="40" value="40"/>
          <time pos="1536" outValue="0" value="0"/>
          <object id="31387"/>
        </automationclip>
        <automationclip tens="1" len="192" mute="0" prog="1" pos="13056" name="Lead>Volume">
          <time pos="0" outValue="0" value="0"/>
          <time pos="192" outValue="40" value="40"/>
          <object id="31387"/>
        </automationclip>
      </track>
      <track solo="0" muted="0" mutedBeforeSolo="0" type="5" name="Lead>Pitch">
        <automationtrack/>
        <automationclip tens="0" len="192" mute="0" prog="1" pos="11328" name="Lead>Pitch">
          <time pos="0" outValue="-500" value="-500"/>
          <time pos="24" outValue="0" value="0"/>
          <object id="21158"/>
        </automationclip>
        <automationclip tens="1" len="192" mute="0" prog="0" pos="0" name="Lead>Pitch">
          <time pos="0" outValue="0" value="0"/>
          <object id="21158"/>
        </automationclip>
        <automationclip tens="0" len="192" mute="0" prog="2" pos="6720" name="Lead>Pitch">
          <time pos="0" outValue="-200" value="-200"/>
          <time pos="24" outValue="0" value="0"/>
          <object id="21158"/>
        </automationclip>
        <automationclip tens="0" len="192" mute="0" prog="2" pos="11520" name="Lead>Pitch">
          <time pos="0" outValue="0" value="0"/>
          <time pos="12" outValue="5" value="5"/>
          <time pos="24" outValue="-10" value="-10"/>
          <time pos="36" outValue="15" value="15"/>
          <time pos="48" outValue="-20" value="-20"/>
          <time pos="60" outValue="25" value="25"/>
          <time pos="72" outValue="-25" value="-25"/>
          <time pos="84" outValue="25" value="25"/>
          <time pos="96" outValue="-25" value="-25"/>
          <time pos="108" outValue="25" value="25"/>
          <time pos="120" outValue="-25" value="-25"/>
          <time pos="132" outValue="25" value="25"/>
          <time pos="144" outValue="-20" value="-20"/>
          <time pos="156" outValue="15" value="15"/>
          <time pos="168" outValue="-10" value="-10"/>
          <time pos="180" outValue="5" value="5"/>
          <time pos="192" outValue="0" value="0"/>
          <object id="21158"/>
        </automationclip>
      </track>
      <track solo="0" muted="0" mutedBeforeSolo="0" type="0" name="Offlead">
        <instrumenttrack lastkey="127" usemasterpitch="1" pan="0" pitchrange="12" basenote="69" enabled="0" firstkey="0" keymap="0" enablecc="0" range_import="1" mixch="5" scale="0">
          <vol scale_type="linear" id="25197" value="0"/>
          <pitch scale_type="linear" id="19794" value="-200"/>
          <midicontrollers cc66="0" cc52="0" cc64="0" cc28="0" cc48="0" cc7="0" cc96="0" cc124="0" cc53="0" cc54="0" cc9="0" cc8="0" cc79="0" cc85="0" cc18="0" cc81="0" cc43="0" cc123="0" cc46="0" cc95="0" cc111="0" cc1="0" cc59="0" cc115="0" cc4="0" cc62="0" cc110="0" cc0="0" cc109="0" cc116="0" cc51="0" cc44="0" cc34="0" cc71="0" cc45="0" cc88="0" cc122="0" cc92="0" cc127="0" cc16="0" cc73="0" cc100="0" cc55="0" cc105="0" cc82="0" cc29="0" cc13="0" cc112="0" cc42="0" cc38="0" cc25="0" cc14="0" cc98="0" cc119="0" cc126="0" cc114="0" cc76="0" cc101="0" cc47="0" cc80="0" cc68="0" cc90="0" cc121="0" cc30="0" cc19="0" cc36="0" cc31="0" cc24="0" cc41="0" cc83="0" cc60="0" cc108="0" cc113="0" cc56="0" cc94="0" cc67="0" cc63="0" cc3="0" cc6="0" cc103="0" cc49="0" cc11="0" cc10="0" cc102="0" cc57="0" cc77="0" cc86="0" cc93="0" cc120="0" cc72="0" cc26="0" cc21="0" cc35="0" cc74="0" cc27="0" cc99="0" cc33="0" cc106="0" cc125="0" cc5="0" cc17="0" cc84="0" cc107="0" cc58="0" cc37="0" cc15="0" cc104="0" cc87="0" cc20="0" cc2="0" cc65="0" cc78="0" cc91="0" cc50="0" cc22="0" cc39="0" cc97="0" cc40="0" cc23="0" cc32="0" cc75="0" cc12="0" cc70="0" cc61="0" cc69="0" cc89="0" cc118="0" cc117="0"/>
          <instrument name="sf2player">
            <sf2player reverbRoomSize="0.2" reverbLevel="0.9" chorusOn="0" reverbWidth="0.5" reverbDamping="0" gain="1" chorusDepth="8" chorusSpeed="0.3" patch="30" reverbOn="0" chorusNum="3" chorusLevel="2" src="usersoundfont:SGM-V2.01.sf2" bank="0">
              <key/>
            </sf2player>
          </instrument>
          <eldata ftype="0" fcut="14000" fwet="0" fres="0.5">
            <elvol lspd_numerator="4" lspd_denominator="4" lshp="0" lspd="0.1" hold="0.5" amt="0" lamt="0" rel="0.1" ctlenvamt="0" lpdel="0" latt="0" userwavefile="" lspd_syncmode="0" sustain="0.5" pdel="0" x100="0" att="0" dec="0.5"/>
            <elcut lspd_numerator="4" lspd_denominator="4" lshp="0" lspd="0.1" hold="0.5" amt="0" lamt="0" rel="0.1" ctlenvamt="0" lpdel="0" latt="0" userwavefile="" lspd_syncmode="0" sustain="0.5" pdel="0" x100="0" att="0" dec="0.5"/>
            <elres lspd_numerator="4" lspd_denominator="4" lshp="0" lspd="0.1" hold="0.5" amt="0" lamt="0" rel="0.1" ctlenvamt="0" lpdel="0" latt="0" userwavefile="" lspd_syncmode="0" sustain="0.5" pdel="0" x100="0" att="0" dec="0.5"/>
          </eldata>
          <chordcreator chord="0" chordrange="1" chord-enabled="0"/>
          <arpeggiator arpgate="100" arp-enabled="0" arprepeats="1" arpmode="0" arprange="1" arpcycle="0" arpmiss="0" arpskip="0" arptime_denominator="4" arptime="200" arptime_syncmode="0" arp="0" arptime_numerator="4" arpdir="0"/>
          <midiport inputcontroller="0" inputchannel="0" fixedoutputnote="-1" outputprogram="1" readable="1" fixedinputvelocity="-1" fixedoutputvelocity="-1" writable="0" inports="" outputcontroller="0" basevelocity="63" outputchannel="1"/>
          <fxchain enabled="0" numofeffects="0"/>
        </instrumenttrack>
        <midiclip muted="0" steps="16" pos="2880" type="1" name="">
          <note pan="0" key="64" len="24" vol="100" pos="192"/>
          <note pan="0" key="72" len="24" vol="100" pos="216"/>
          <note pan="0" key="71" len="24" vol="100" pos="240"/>
          <note pan="0" key="69" len="72" vol="100" pos="264"/>
          <note pan="0" key="72" len="24" vol="100" pos="336"/>
          <note pan="0" key="67" len="72" vol="100" pos="360"/>
          <note pan="0" key="64" len="24" vol="100" pos="432"/>
          <note pan="0" key="71" len="72" vol="100" pos="456"/>
          <note pan="0" key="67" len="24" vol="100" pos="528"/>
          <note pan="0" key="74" len="396" vol="100" pos="552"/>
        </midiclip>
        <midiclip muted="0" steps="16" pos="4416" type="1" name="">
          <note pan="0" key="69" len="24" vol="100" pos="192"/>
          <note pan="0" key="72" len="24" vol="100" pos="216"/>
          <note pan="0" key="69" len="24" vol="100" pos="240"/>
          <note pan="0" key="64" len="72" vol="100" pos="264"/>
          <note pan="0" key="72" len="24" vol="100" pos="336"/>
          <note pan="0" key="71" len="72" vol="100" pos="360"/>
          <note pan="0" key="67" len="24" vol="100" pos="432"/>
          <note pan="0" key="69" len="72" vol="100" pos="456"/>
          <note pan="0" key="68" len="24" vol="100" pos="528"/>
          <note pan="0" key="76" len="396" vol="100" pos="552"/>
        </midiclip>
        <midiclip muted="0" steps="16" pos="5952" type="1" name="">
          <note pan="0" key="69" len="96" vol="100" pos="0"/>
          <note pan="0" key="67" len="96" vol="100" pos="96"/>
          <note pan="0" key="64" len="384" vol="100" pos="192"/>
          <note pan="0" key="62" len="384" vol="100" pos="576"/>
        </midiclip>
        <midiclip muted="0" steps="16" pos="10752" type="1" name="">
          <note pan="0" key="62" len="24" vol="100" pos="120"/>
          <note pan="0" key="64" len="24" vol="100" pos="144"/>
          <note pan="0" key="65" len="72" vol="100" pos="168"/>
          <note pan="0" key="72" len="24" vol="100" pos="240"/>
          <note pan="0" key="71" len="72" vol="100" pos="264"/>
          <note pan="0" key="67" len="24" vol="100" pos="336"/>
          <note pan="0" key="64" len="72" vol="100" pos="360"/>
          <note pan="0" key="72" len="24" vol="100" pos="432"/>
          <note pan="0" key="71" len="72" vol="100" pos="456"/>
          <note pan="0" key="67" len="24" vol="100" pos="528"/>
          <note pan="0" key="71" len="48" vol="100" pos="552"/>
          <note pan="0" key="67" len="24" vol="100" pos="600"/>
          <note pan="0" key="67" len="336" vol="100" pos="624"/>
        </midiclip>
        <midiclip muted="0" steps="16" pos="12288" type="1" name="">
          <note pan="0" key="69" len="24" vol="100" pos="192"/>
          <note pan="0" key="72" len="24" vol="100" pos="216"/>
          <note pan="0" key="69" len="24" vol="100" pos="240"/>
          <note pan="0" key="64" len="72" vol="100" pos="264"/>
          <note pan="0" key="72" len="24" vol="100" pos="336"/>
          <note pan="0" key="71" len="72" vol="100" pos="360"/>
          <note pan="0" key="67" len="24" vol="100" pos="432"/>
          <note pan="0" key="69" len="72" vol="100" pos="456"/>
          <note pan="0" key="68" len="24" vol="100" pos="528"/>
          <note pan="0" key="76" len="396" vol="100" pos="552"/>
        </midiclip>
      </track>
      <track solo="0" muted="0" mutedBeforeSolo="0" type="5" name="Offlead>Volume">
        <automationtrack/>
        <automationclip tens="1" len="192" mute="0" prog="0" pos="2880" name="Offlead>Volume">
          <time pos="0" outValue="100" value="100"/>
          <object id="25197"/>
        </automationclip>
        <automationclip tens="1" len="384" mute="0" prog="1" pos="3456" name="Offlead>Volume">
          <time pos="0" outValue="100" value="100"/>
          <time pos="384" outValue="0" value="0"/>
          <object id="25197"/>
        </automationclip>
        <automationclip tens="1" len="192" mute="0" prog="0" pos="4416" name="Offlead>Volume">
          <time pos="0" outValue="100" value="100"/>
          <object id="25197"/>
        </automationclip>
        <automationclip tens="1" len="384" mute="0" prog="1" pos="4992" name="Offlead>Volume">
          <time pos="0" outValue="100" value="100"/>
          <time pos="384" outValue="0" value="0"/>
          <object id="25197"/>
        </automationclip>
        <automationclip tens="1" len="192" mute="0" prog="0" pos="5952" name="Offlead>Volume">
          <time pos="0" outValue="70" value="70"/>
          <object id="25197"/>
        </automationclip>
        <automationclip tens="1" len="768" mute="0" prog="1" pos="6144" name="Offlead>Volume">
          <time pos="0" outValue="70" value="70"/>
          <time pos="768" outValue="25" value="25"/>
          <object id="25197"/>
        </automationclip>
        <automationclip tens="1" len="192" mute="0" prog="0" pos="10752" name="Offlead>Volume">
          <time pos="0" outValue="100" value="100"/>
          <object id="25197"/>
        </automationclip>
        <automationclip tens="1" len="384" mute="0" prog="1" pos="11328" name="Offlead>Volume">
          <time pos="0" outValue="100" value="100"/>
          <time pos="384" outValue="0" value="0"/>
          <object id="25197"/>
        </automationclip>
        <automationclip tens="1" len="192" mute="0" prog="0" pos="12288" name="Offlead>Volume">
          <time pos="0" outValue="100" value="100"/>
          <object id="25197"/>
        </automationclip>
        <automationclip tens="1" len="384" mute="0" prog="1" pos="12864" name="Offlead>Volume">
          <time pos="0" outValue="100" value="100"/>
          <time pos="384" outValue="0" value="0"/>
          <object id="25197"/>
        </automationclip>
      </track>
      <track solo="0" muted="0" mutedBeforeSolo="0" type="5" name="Offlead>Pitch">
        <automationtrack/>
        <automationclip tens="0" len="288" mute="0" prog="2" pos="3456" name="Offlead>Pitch">
          <time pos="0" outValue="0" value="0"/>
          <time pos="12" outValue="15" value="15"/>
          <time pos="36" outValue="-15" value="-15"/>
          <time pos="60" outValue="15" value="15"/>
          <time pos="72" outValue="-15" value="-15"/>
          <time pos="84" outValue="15" value="15"/>
          <time pos="96" outValue="-15" value="-15"/>
          <time pos="108" outValue="15" value="15"/>
          <time pos="120" outValue="-15" value="-15"/>
          <time pos="132" outValue="15" value="15"/>
          <time pos="144" outValue="-15" value="-15"/>
          <time pos="156" outValue="15" value="15"/>
          <time pos="168" outValue="0" value="0"/>
          <time pos="180" outValue="-15" value="-15"/>
          <time pos="192" outValue="0" value="0"/>
          <time pos="204" outValue="15" value="15"/>
          <time pos="216" outValue="0" value="0"/>
          <time pos="228" outValue="-15" value="-15"/>
          <time pos="240" outValue="0" value="0"/>
          <time pos="252" outValue="15" value="15"/>
          <time pos="264" outValue="0" value="0"/>
          <time pos="276" outValue="-15" value="-15"/>
          <time pos="288" outValue="0" value="0"/>
          <object id="19794"/>
        </automationclip>
        <automationclip tens="1" len="192" mute="0" prog="0" pos="2880" name="Offlead>Pitch">
          <time pos="0" outValue="0" value="0"/>
          <object id="19794"/>
        </automationclip>
        <automationclip tens="0" len="288" mute="0" prog="2" pos="4992" name="Offlead>Pitch">
          <time pos="0" outValue="0" value="0"/>
          <time pos="12" outValue="15" value="15"/>
          <time pos="36" outValue="-15" value="-15"/>
          <time pos="60" outValue="15" value="15"/>
          <time pos="72" outValue="-15" value="-15"/>
          <time pos="84" outValue="15" value="15"/>
          <time pos="96" outValue="-15" value="-15"/>
          <time pos="108" outValue="15" value="15"/>
          <time pos="120" outValue="-15" value="-15"/>
          <time pos="132" outValue="15" value="15"/>
          <time pos="144" outValue="-15" value="-15"/>
          <time pos="156" outValue="15" value="15"/>
          <time pos="168" outValue="0" value="0"/>
          <time pos="180" outValue="-15" value="-15"/>
          <time pos="192" outValue="0" value="0"/>
          <time pos="216" outValue="-200" value="-200"/>
          <object id="19794"/>
        </automationclip>
        <automationclip tens="1" len="192" mute="0" prog="0" pos="4416" name="Offlead>Pitch">
          <time pos="0" outValue="0" value="0"/>
          <object id="19794"/>
        </automationclip>
        <automationclip tens="1" len="192" mute="0" prog="0" pos="5952" name="Offlead>Pitch">
          <time pos="0" outValue="0" value="0"/>
          <object id="19794"/>
        </automationclip>
        <automationclip tens="0" len="384" mute="0" prog="2" pos="6528" name="Offlead>Pitch">
          <time pos="0" outValue="0" value="0"/>
          <time pos="192" outValue="0" value="0"/>
          <time pos="216" outValue="197" value="197"/>
          <object id="19794"/>
        </automationclip>
        <automationclip tens="1" len="192" mute="0" prog="0" pos="10752" name="Offlead>Pitch">
          <time pos="0" outValue="0" value="0"/>
          <object id="19794"/>
        </automationclip>
        <automationclip tens="0" len="288" mute="0" prog="2" pos="12864" name="Offlead>Pitch">
          <time pos="0" outValue="0" value="0"/>
          <time pos="12" outValue="15" value="15"/>
          <time pos="36" outValue="-15" value="-15"/>
          <time pos="60" outValue="15" value="15"/>
          <time pos="72" outValue="-15" value="-15"/>
          <time pos="84" outValue="15" value="15"/>
          <time pos="96" outValue="-15" value="-15"/>
          <time pos="108" outValue="15" value="15"/>
          <time pos="120" outValue="-15" value="-15"/>
          <time pos="132" outValue="15" value="15"/>
          <time pos="144" outValue="-15" value="-15"/>
          <time pos="156" outValue="15" value="15"/>
          <time pos="168" outValue="0" value="0"/>
          <time pos="180" outValue="-15" value="-15"/>
          <time pos="192" outValue="0" value="0"/>
          <time pos="216" outValue="-200" value="-200"/>
          <object id="19794"/>
        </automationclip>
        <automationclip tens="1" len="192" mute="0" prog="0" pos="12288" name="Offlead>Pitch">
          <time pos="0" outValue="0" value="0"/>
          <object id="19794"/>
        </automationclip>
        <automationclip tens="0" len="288" mute="0" prog="2" pos="11328" name="Offlead>Pitch">
          <time pos="0" outValue="0" value="0"/>
          <time pos="12" outValue="15" value="15"/>
          <time pos="36" outValue="-15" value="-15"/>
          <time pos="60" outValue="15" value="15"/>
          <time pos="72" outValue="-15" value="-15"/>
          <time pos="84" outValue="15" value="15"/>
          <time pos="96" outValue="-15" value="-15"/>
          <time pos="108" outValue="15" value="15"/>
          <time pos="120" outValue="-15" value="-15"/>
          <time pos="132" outValue="15" value="15"/>
          <time pos="144" outValue="-15" value="-15"/>
          <time pos="156" outValue="15" value="15"/>
          <time pos="168" outValue="0" value="0"/>
          <time pos="180" outValue="-15" value="-15"/>
          <time pos="192" outValue="0" value="0"/>
          <time pos="204" outValue="15" value="15"/>
          <time pos="216" outValue="0" value="0"/>
          <time pos="228" outValue="-15" value="-15"/>
          <time pos="240" outValue="0" value="0"/>
          <time pos="252" outValue="15" value="15"/>
          <time pos="264" outValue="0" value="0"/>
          <time pos="276" outValue="-15" value="-15"/>
          <time pos="288" outValue="0" value="0"/>
          <object id="19794"/>
        </automationclip>
      </track>
      <track solo="0" muted="0" mutedBeforeSolo="0" type="0" name="Siren">
        <instrumenttrack lastkey="127" usemasterpitch="1" pan="0" pitchrange="12" basenote="69" enabled="0" firstkey="0" keymap="0" enablecc="0" range_import="1" mixch="6" scale="0">
          <vol scale_type="linear" id="25113" value="100"/>
          <pitch scale_type="linear" id="29064" value="0"/>
          <midicontrollers cc66="0" cc52="0" cc64="0" cc28="0" cc48="0" cc7="0" cc96="0" cc124="0" cc53="0" cc54="0" cc9="0" cc8="0" cc79="0" cc85="0" cc18="0" cc81="0" cc43="0" cc123="0" cc46="0" cc95="0" cc111="0" cc1="0" cc59="0" cc115="0" cc4="0" cc62="0" cc110="0" cc0="0" cc109="0" cc116="0" cc51="0" cc44="0" cc34="0" cc71="0" cc45="0" cc88="0" cc122="0" cc92="0" cc127="0" cc16="0" cc73="0" cc100="0" cc55="0" cc105="0" cc82="0" cc29="0" cc13="0" cc112="0" cc42="0" cc38="0" cc25="0" cc14="0" cc98="0" cc119="0" cc126="0" cc114="0" cc76="0" cc101="0" cc47="0" cc80="0" cc68="0" cc90="0" cc121="0" cc30="0" cc19="0" cc36="0" cc31="0" cc24="0" cc41="0" cc83="0" cc60="0" cc108="0" cc113="0" cc56="0" cc94="0" cc67="0" cc63="0" cc3="0" cc6="0" cc103="0" cc49="0" cc11="0" cc10="0" cc102="0" cc57="0" cc77="0" cc86="0" cc93="0" cc120="0" cc72="0" cc26="0" cc21="0" cc35="0" cc74="0" cc27="0" cc99="0" cc33="0" cc106="0" cc125="0" cc5="0" cc17="0" cc84="0" cc107="0" cc58="0" cc37="0" cc15="0" cc104="0" cc87="0" cc20="0" cc2="0" cc65="0" cc78="0" cc91="0" cc50="0" cc22="0" cc39="0" cc97="0" cc40="0" cc23="0" cc32="0" cc75="0" cc12="0" cc70="0" cc61="0" cc69="0" cc89="0" cc118="0" cc117="0"/>
          <instrument name="sf2player">
            <sf2player reverbRoomSize="0.2" reverbLevel="0.9" chorusOn="0" reverbWidth="0.5" reverbDamping="0" gain="1" chorusDepth="8" chorusSpeed="0.3" patch="29" reverbOn="0" chorusNum="3" chorusLevel="2" src="usersoundfont:SGM-V2.01.sf2" bank="0">
              <key/>
            </sf2player>
          </instrument>
          <eldata ftype="0" fcut="14000" fwet="0" fres="0.5">
            <elvol lspd_numerator="4" lspd_denominator="4" lshp="0" lspd="0.1" hold="0.5" amt="0" lamt="0" rel="0.1" ctlenvamt="0" lpdel="0" latt="0" userwavefile="" lspd_syncmode="0" sustain="0.5" pdel="0" x100="0" att="0" dec="0.5"/>
            <elcut lspd_numerator="4" lspd_denominator="4" lshp="0" lspd="0.1" hold="0.5" amt="0" lamt="0" rel="0.1" ctlenvamt="0" lpdel="0" latt="0" userwavefile="" lspd_syncmode="0" sustain="0.5" pdel="0" x100="0" att="0" dec="0.5"/>
            <elres lspd_numerator="4" lspd_denominator="4" lshp="0" lspd="0.1" hold="0.5" amt="0" lamt="0" rel="0.1" ctlenvamt="0" lpdel="0" latt="0" userwavefile="" lspd_syncmode="0" sustain="0.5" pdel="0" x100="0" att="0" dec="0.5"/>
          </eldata>
          <chordcreator chord="0" chordrange="1" chord-enabled="0"/>
          <arpeggiator arpgate="100" arp-enabled="0" arprepeats="1" arpmode="0" arprange="1" arpcycle="0" arpmiss="0" arpskip="0" arptime_denominator="4" arptime="200" arptime_syncmode="0" arp="0" arptime_numerator="4" arpdir="0"/>
          <midiport inputcontroller="0" inputchannel="0" fixedoutputnote="-1" outputprogram="1" readable="1" fixedinputvelocity="-1" fixedoutputvelocity="-1" writable="0" inports="" outputcontroller="0" basevelocity="63" outputchannel="1"/>
          <fxchain enabled="0" numofeffects="0"/>
        </instrumenttrack>
        <midiclip muted="0" steps="16" pos="12288" type="1" name="">
          <note pan="0" key="88" len="192" vol="100" pos="0"/>
          <note pan="0" key="93" len="576" vol="100" pos="192"/>
        </midiclip>
      </track>
      <track solo="0" muted="0" mutedBeforeSolo="0" type="5" name="Siren>Volume">
        <automationtrack/>
        <automationclip tens="1" len="768" mute="0" prog="1" pos="12288" name="Siren>Volume">
          <time pos="0" outValue="0" value="0"/>
          <time pos="192" outValue="100" value="100"/>
          <time pos="768" outValue="20" value="20"/>
          <object id="25113"/>
        </automationclip>
        <automationclip tens="1" len="768" mute="0" prog="1" pos="13248" name="Siren>Volume">
          <time pos="0" outValue="100" value="100"/>
          <object id="25113"/>
        </automationclip>
      </track>
      <track solo="0" muted="0" mutedBeforeSolo="0" type="5" name="Siren>Pitch">
        <automationtrack/>
        <automationclip tens="0" len="384" mute="0" prog="1" pos="12480" name="Siren>Pitch">
          <time pos="0" outValue="0" value="0"/>
          <time pos="144" outValue="0" value="0"/>
          <time pos="192" outValue="-200" value="-200"/>
          <time pos="336" outValue="-200" value="-200"/>
          <time pos="384" outValue="-100" value="-100"/>
          <object id="29064"/>
        </automationclip>
        <automationclip tens="1" len="192" mute="0" prog="0" pos="12288" name="Siren>Pitch">
          <time pos="0" outValue="0" value="0"/>
          <object id="29064"/>
        </automationclip>
        <automationclip tens="1" len="192" mute="0" prog="0" pos="13248" name="Siren>Pitch">
          <time pos="0" outValue="0" value="0"/>
          <object id="29064"/>
        </automationclip>
      </track>
      <track solo="0" muted="0" mutedBeforeSolo="0" type="0" name="Pizzicato">
        <instrumenttrack lastkey="127" usemasterpitch="1" pan="0" pitchrange="1" basenote="69" enabled="0" firstkey="0" keymap="0" enablecc="0" vol="100" range_import="1" mixch="7" scale="0" pitch="0">
          <midicontrollers cc66="0" cc52="0" cc64="0" cc28="0" cc48="0" cc7="0" cc96="0" cc124="0" cc53="0" cc54="0" cc9="0" cc8="0" cc79="0" cc85="0" cc18="0" cc81="0" cc43="0" cc123="0" cc46="0" cc95="0" cc111="0" cc1="0" cc59="0" cc115="0" cc4="0" cc62="0" cc110="0" cc0="0" cc109="0" cc116="0" cc51="0" cc44="0" cc34="0" cc71="0" cc45="0" cc88="0" cc122="0" cc92="0" cc127="0" cc16="0" cc73="0" cc100="0" cc55="0" cc105="0" cc82="0" cc29="0" cc13="0" cc112="0" cc42="0" cc38="0" cc25="0" cc14="0" cc98="0" cc119="0" cc126="0" cc114="0" cc76="0" cc101="0" cc47="0" cc80="0" cc68="0" cc90="0" cc121="0" cc30="0" cc19="0" cc36="0" cc31="0" cc24="0" cc41="0" cc83="0" cc60="0" cc108="0" cc113="0" cc56="0" cc94="0" cc67="0" cc63="0" cc3="0" cc6="0" cc103="0" cc49="0" cc11="0" cc10="0" cc102="0" cc57="0" cc77="0" cc86="0" cc93="0" cc120="0" cc72="0" cc26="0" cc21="0" cc35="0" cc74="0" cc27="0" cc99="0" cc33="0" cc106="0" cc125="0" cc5="0" cc17="0" cc84="0" cc107="0" cc58="0" cc37="0" cc15="0" cc104="0" cc87="0" cc20="0" cc2="0" cc65="0" cc78="0" cc91="0" cc50="0" cc22="0" cc39="0" cc97="0" cc40="0" cc23="0" cc32="0" cc75="0" cc12="0" cc70="0" cc61="0" cc69="0" cc89="0" cc118="0" cc117="0"/>
          <instrument name="sf2player">
            <sf2player reverbRoomSize="0.2" reverbLevel="0.9" chorusOn="0" reverbWidth="0.5" reverbDamping="0" gain="1" chorusDepth="8" chorusSpeed="0.3" patch="45" reverbOn="0" chorusNum="3" chorusLevel="2" src="usersoundfont:SGM-V2.01.sf2" bank="0">
              <key/>
            </sf2player>
          </instrument>
          <eldata ftype="0" fcut="14000" fwet="0" fres="0.5">
            <elvol lspd_numerator="4" lspd_denominator="4" lshp="0" lspd="0.1" hold="0.5" amt="0" lamt="0" rel="0.1" ctlenvamt="0" lpdel="0" latt="0" userwavefile="" lspd_syncmode="0" sustain="0.5" pdel="0" x100="0" att="0" dec="0.5"/>
            <elcut lspd_numerator="4" lspd_denominator="4" lshp="0" lspd="0.1" hold="0.5" amt="0" lamt="0" rel="0.1" ctlenvamt="0" lpdel="0" latt="0" userwavefile="" lspd_syncmode="0" sustain="0.5" pdel="0" x100="0" att="0" dec="0.5"/>
            <elres lspd_numerator="4" lspd_denominator="4" lshp="0" lspd="0.1" hold="0.5" amt="0" lamt="0" rel="0.1" ctlenvamt="0" lpdel="0" latt="0" userwavefile="" lspd_syncmode="0" sustain="0.5" pdel="0" x100="0" att="0" dec="0.5"/>
          </eldata>
          <chordcreator chord="0" chordrange="1" chord-enabled="1"/>
          <arpeggiator arpgate="100" arp-enabled="0" arprepeats="1" arpmode="0" arprange="1" arpcycle="0" arpmiss="0" arpskip="0" arptime_denominator="4" arptime="200" arptime_syncmode="0" arp="0" arptime_numerator="4" arpdir="0"/>
          <midiport inputcontroller="0" inputchannel="0" fixedoutputnote="-1" outputprogram="1" readable="0" fixedinputvelocity="-1" fixedoutputvelocity="-1" writable="0" outputcontroller="0" basevelocity="63" outputchannel="1"/>
          <fxchain enabled="0" numofeffects="0"/>
        </instrumenttrack>
        <midiclip muted="0" steps="16" pos="2880" type="1" name="">
          <note pan="0" key="38" len="24" vol="100" pos="120"/>
          <note pan="0" key="40" len="24" vol="100" pos="144"/>
          <note pan="0" key="41" len="60" vol="100" pos="168"/>
          <note pan="0" key="48" len="24" vol="100" pos="240"/>
          <note pan="0" key="47" len="72" vol="100" pos="264"/>
          <note pan="0" key="43" len="24" vol="100" pos="336"/>
          <note pan="0" key="40" len="60" vol="100" pos="360"/>
          <note pan="0" key="48" len="24" vol="100" pos="432"/>
          <note pan="0" key="47" len="72" vol="100" pos="456"/>
          <note pan="0" key="43" len="24" vol="100" pos="528"/>
          <note pan="0" key="47" len="48" vol="100" pos="552"/>
          <note pan="0" key="43" len="12" vol="100" pos="600"/>
          <note pan="0" key="43" len="132" vol="100" pos="624"/>
        </midiclip>
        <midiclip muted="0" steps="16" pos="4416" type="1" name="">
          <note pan="0" key="38" len="24" vol="100" pos="120"/>
          <note pan="0" key="40" len="24" vol="100" pos="144"/>
          <note pan="0" key="41" len="60" vol="100" pos="168"/>
          <note pan="0" key="48" len="24" vol="100" pos="240"/>
          <note pan="0" key="47" len="72" vol="100" pos="264"/>
          <note pan="0" key="43" len="24" vol="100" pos="336"/>
          <note pan="0" key="40" len="60" vol="100" pos="360"/>
          <note pan="0" key="48" len="24" vol="100" pos="432"/>
          <note pan="0" key="47" len="72" vol="100" pos="456"/>
          <note pan="0" key="43" len="24" vol="100" pos="528"/>
          <note pan="0" key="47" len="48" vol="100" pos="552"/>
          <note pan="0" key="44" len="12" vol="100" pos="600"/>
          <note pan="0" key="44" len="132" vol="100" pos="624"/>
        </midiclip>
        <midiclip muted="0" steps="16" pos="10752" type="1" name="">
          <note pan="0" key="40" len="24" vol="100" pos="192"/>
          <note pan="0" key="48" len="24" vol="100" pos="216"/>
          <note pan="0" key="47" len="24" vol="100" pos="240"/>
          <note pan="0" key="45" len="72" vol="100" pos="264"/>
          <note pan="0" key="48" len="24" vol="100" pos="336"/>
          <note pan="0" key="43" len="72" vol="100" pos="360"/>
          <note pan="0" key="40" len="24" vol="100" pos="432"/>
          <note pan="0" key="47" len="72" vol="100" pos="456"/>
          <note pan="0" key="43" len="24" vol="100" pos="528"/>
          <note pan="0" key="50" len="216" vol="100" pos="552"/>
        </midiclip>
        <midiclip muted="0" steps="16" pos="12288" type="1" name="">
          <note pan="0" key="38" len="24" vol="100" pos="120"/>
          <note pan="0" key="40" len="24" vol="100" pos="144"/>
          <note pan="0" key="41" len="60" vol="100" pos="168"/>
          <note pan="0" key="48" len="24" vol="100" pos="240"/>
          <note pan="0" key="47" len="72" vol="100" pos="264"/>
          <note pan="0" key="43" len="24" vol="100" pos="336"/>
          <note pan="0" key="40" len="60" vol="100" pos="360"/>
          <note pan="0" key="48" len="24" vol="100" pos="432"/>
          <note pan="0" key="47" len="72" vol="100" pos="456"/>
          <note pan="0" key="43" len="24" vol="100" pos="528"/>
          <note pan="0" key="47" len="48" vol="100" pos="552"/>
          <note pan="0" key="44" len="12" vol="100" pos="600"/>
          <note pan="0" key="44" len="132" vol="100" pos="624"/>
        </midiclip>
      </track>
      <track solo="0" muted="0" mutedBeforeSolo="0" type="0" name="Bass">
        <instrumenttrack lastkey="127" usemasterpitch="1" pan="0" pitchrange="1" basenote="69" enabled="0" firstkey="0" keymap="0" enablecc="0" range_import="1" mixch="8" scale="0" pitch="0">
          <vol scale_type="linear" id="31580" value="91.9271"/>
          <midicontrollers cc66="0" cc52="0" cc64="0" cc28="0" cc48="0" cc7="0" cc96="0" cc124="0" cc53="0" cc54="0" cc9="0" cc8="0" cc79="0" cc85="0" cc18="0" cc81="0" cc43="0" cc123="0" cc46="0" cc95="0" cc111="0" cc1="0" cc59="0" cc115="0" cc4="0" cc62="0" cc110="0" cc0="0" cc109="0" cc116="0" cc51="0" cc44="0" cc34="0" cc71="0" cc45="0" cc88="0" cc122="0" cc92="0" cc127="0" cc16="0" cc73="0" cc100="0" cc55="0" cc105="0" cc82="0" cc29="0" cc13="0" cc112="0" cc42="0" cc38="0" cc25="0" cc14="0" cc98="0" cc119="0" cc126="0" cc114="0" cc76="0" cc101="0" cc47="0" cc80="0" cc68="0" cc90="0" cc121="0" cc30="0" cc19="0" cc36="0" cc31="0" cc24="0" cc41="0" cc83="0" cc60="0" cc108="0" cc113="0" cc56="0" cc94="0" cc67="0" cc63="0" cc3="0" cc6="0" cc103="0" cc49="0" cc11="0" cc10="0" cc102="0" cc57="0" cc77="0" cc86="0" cc93="0" cc120="0" cc72="0" cc26="0" cc21="0" cc35="0" cc74="0" cc27="0" cc99="0" cc33="0" cc106="0" cc125="0" cc5="0" cc17="0" cc84="0" cc107="0" cc58="0" cc37="0" cc15="0" cc104="0" cc87="0" cc20="0" cc2="0" cc65="0" cc78="0" cc91="0" cc50="0" cc22="0" cc39="0" cc97="0" cc40="0" cc23="0" cc32="0" cc75="0" cc12="0" cc70="0" cc61="0" cc69="0" cc89="0" cc118="0" cc117="0"/>
          <instrument name="sf2player">
            <sf2player reverbRoomSize="0.2" reverbLevel="0.9" chorusOn="0" reverbWidth="0.5" reverbDamping="0" gain="1" chorusDepth="8" chorusSpeed="0.3" patch="35" reverbOn="0" chorusNum="3" chorusLevel="2" src="usersoundfont:SGM-V2.01.sf2" bank="0">
              <key/>
            </sf2player>
          </instrument>
          <eldata ftype="0" fcut="14000" fwet="0" fres="0.5">
            <elvol lspd_numerator="4" lspd_denominator="4" lshp="0" lspd="0.1" hold="0.5" amt="0" lamt="0" rel="0.1" ctlenvamt="0" lpdel="0" latt="0" userwavefile="" lspd_syncmode="0" sustain="0.5" pdel="0" x100="0" att="0" dec="0.5"/>
            <elcut lspd_numerator="4" lspd_denominator="4" lshp="0" lspd="0.1" hold="0.5" amt="0" lamt="0" rel="0.1" ctlenvamt="0" lpdel="0" latt="0" userwavefile="" lspd_syncmode="0" sustain="0.5" pdel="0" x100="0" att="0" dec="0.5"/>
            <elres lspd_numerator="4" lspd_denominator="4" lshp="0" lspd="0.1" hold="0.5" amt="0" lamt="0" rel="0.1" ctlenvamt="0" lpdel="0" latt="0" userwavefile="" lspd_syncmode="0" sustain="0.5" pdel="0" x100="0" att="0" dec="0.5"/>
          </eldata>
          <chordcreator chord="0" chordrange="1" chord-enabled="0"/>
          <arpeggiator arpgate="100" arp-enabled="0" arprepeats="1" arpmode="0" arprange="1" arpcycle="0" arpmiss="0" arpskip="0" arptime_denominator="4" arptime="200" arptime_syncmode="0" arp="0" arptime_numerator="4" arpdir="0"/>
          <midiport inputcontroller="0" inputchannel="0" fixedoutputnote="-1" outputprogram="1" readable="1" fixedinputvelocity="-1" fixedoutputvelocity="-1" writable="0" inports="" outputcontroller="0" basevelocity="63" outputchannel="1"/>
          <fxchain enabled="0" numofeffects="0"/>
        </instrumenttrack>
        <midiclip muted="0" steps="16" pos="2304" type="1" name="">
          <note pan="0" key="33" len="12" vol="100" pos="0"/>
          <note pan="0" key="45" len="24" vol="100" pos="24"/>
          <note pan="0" key="33" len="12" vol="100" pos="48"/>
          <note pan="0" key="31" len="12" vol="100" pos="72"/>
          <note pan="0" key="33" len="12" vol="100" pos="84"/>
          <note pan="0" key="45" len="24" vol="100" pos="120"/>
          <note pan="0" key="33" len="12" vol="100" pos="144"/>
          <note pan="0" key="33" len="12" vol="100" pos="168"/>
          <note pan="0" key="31" len="12" vol="100" pos="192"/>
          <note pan="0" key="31" len="12" vol="100" pos="216"/>
          <note pan="0" key="43" len="12" vol="100" pos="240"/>
          <note pan="0" key="29" len="12" vol="100" pos="264"/>
          <note pan="0" key="31" len="24" vol="100" pos="276"/>
          <note pan="0" key="43" len="12" vol="100" pos="312"/>
          <note pan="0" key="31" len="12" vol="100" pos="336"/>
          <note pan="0" key="30" len="12" vol="100" pos="360"/>
          <note pan="0" key="29" len="12" vol="100" pos="384"/>
          <note pan="0" key="29" len="12" vol="100" pos="408"/>
          <note pan="0" key="36" len="12" vol="100" pos="432"/>
          <note pan="0" key="29" len="12" vol="100" pos="456"/>
          <note pan="0" key="36" len="12" vol="100" pos="468"/>
          <note pan="0" key="41" len="24" vol="100" pos="504"/>
          <note pan="0" key="36" len="12" vol="100" pos="528"/>
          <note pan="0" key="35" len="12" vol="100" pos="552"/>
          <note pan="0" key="33" len="12" vol="100" pos="576"/>
          <note pan="0" key="33" len="12" vol="100" pos="600"/>
          <note pan="0" key="28" len="12" vol="100" pos="624"/>
          <note pan="0" key="31" len="12" vol="100" pos="648"/>
          <note pan="0" key="33" len="12" vol="100" pos="660"/>
          <note pan="0" key="36" len="24" vol="100" pos="696"/>
          <note pan="0" key="28" len="12" vol="100" pos="720"/>
          <note pan="0" key="31" len="12" vol="100" pos="744"/>
          <note pan="0" key="36" len="36" vol="100" pos="768"/>
          <note pan="0" key="35" len="36" vol="100" pos="804"/>
          <note pan="0" key="31" len="36" vol="100" pos="840"/>
          <note pan="0" key="28" len="36" vol="100" pos="876"/>
          <note pan="0" key="31" len="36" vol="100" pos="912"/>
          <note pan="0" key="35" len="36" vol="100" pos="960"/>
          <note pan="0" key="31" len="36" vol="100" pos="996"/>
          <note pan="0" key="28" len="36" vol="100" pos="1032"/>
          <note pan="0" key="31" len="36" vol="100" pos="1068"/>
          <note pan="0" key="35" len="36" vol="100" pos="1104"/>
          <note pan="0" key="31" len="36" vol="100" pos="1152"/>
          <note pan="0" key="35" len="36" vol="100" pos="1188"/>
          <note pan="0" key="31" len="36" vol="100" pos="1224"/>
          <note pan="0" key="38" len="36" vol="100" pos="1260"/>
          <note pan="0" key="35" len="36" vol="100" pos="1296"/>
          <note pan="0" key="36" len="36" vol="100" pos="1344"/>
          <note pan="0" key="33" len="36" vol="100" pos="1380"/>
          <note pan="0" key="31" len="36" vol="100" pos="1416"/>
          <note pan="0" key="35" len="36" vol="100" pos="1452"/>
          <note pan="0" key="28" len="36" vol="100" pos="1488"/>
        </midiclip>
        <midiclip muted="0" steps="16" pos="3840" type="1" name="">
          <note pan="0" key="33" len="12" vol="100" pos="0"/>
          <note pan="0" key="45" len="24" vol="100" pos="24"/>
          <note pan="0" key="33" len="12" vol="100" pos="48"/>
          <note pan="0" key="31" len="12" vol="100" pos="72"/>
          <note pan="0" key="33" len="12" vol="100" pos="84"/>
          <note pan="0" key="45" len="24" vol="100" pos="120"/>
          <note pan="0" key="33" len="12" vol="100" pos="144"/>
          <note pan="0" key="33" len="12" vol="100" pos="168"/>
          <note pan="0" key="31" len="12" vol="100" pos="192"/>
          <note pan="0" key="31" len="12" vol="100" pos="216"/>
          <note pan="0" key="43" len="12" vol="100" pos="240"/>
          <note pan="0" key="29" len="12" vol="100" pos="264"/>
          <note pan="0" key="31" len="24" vol="100" pos="276"/>
          <note pan="0" key="43" len="12" vol="100" pos="312"/>
          <note pan="0" key="31" len="12" vol="100" pos="336"/>
          <note pan="0" key="30" len="12" vol="100" pos="360"/>
          <note pan="0" key="29" len="12" vol="100" pos="384"/>
          <note pan="0" key="29" len="12" vol="100" pos="408"/>
          <note pan="0" key="36" len="12" vol="100" pos="432"/>
          <note pan="0" key="29" len="12" vol="100" pos="456"/>
          <note pan="0" key="36" len="12" vol="100" pos="468"/>
          <note pan="0" key="41" len="24" vol="100" pos="504"/>
          <note pan="0" key="36" len="12" vol="100" pos="528"/>
          <note pan="0" key="35" len="12" vol="100" pos="552"/>
          <note pan="0" key="33" len="12" vol="100" pos="576"/>
          <note pan="0" key="33" len="12" vol="100" pos="600"/>
          <note pan="0" key="28" len="12" vol="100" pos="624"/>
          <note pan="0" key="31" len="12" vol="100" pos="648"/>
          <note pan="0" key="33" len="12" vol="100" pos="660"/>
          <note pan="0" key="36" len="24" vol="100" pos="696"/>
          <note pan="0" key="28" len="12" vol="100" pos="720"/>
          <note pan="0" key="31" len="12" vol="100" pos="744"/>
          <note pan="0" key="36" len="36" vol="100" pos="768"/>
          <note pan="0" key="35" len="36" vol="100" pos="804"/>
          <note pan="0" key="31" len="36" vol="100" pos="840"/>
          <note pan="0" key="28" len="36" vol="100" pos="876"/>
          <note pan="0" key="31" len="36" vol="100" pos="912"/>
          <note pan="0" key="35" len="36" vol="100" pos="960"/>
          <note pan="0" key="31" len="36" vol="100" pos="996"/>
          <note pan="0" key="28" len="36" vol="100" pos="1032"/>
          <note pan="0" key="31" len="36" vol="100" pos="1068"/>
          <note pan="0" key="35" len="36" vol="100" pos="1104"/>
          <note pan="0" key="32" len="36" vol="100" pos="1152"/>
          <note pan="0" key="35" len="36" vol="100" pos="1188"/>
          <note pan="0" key="32" len="36" vol="100" pos="1224"/>
          <note pan="0" key="40" len="36" vol="100" pos="1260"/>
          <note pan="0" key="35" len="48" vol="100" pos="1296"/>
          <note pan="0" key="28" len="192" vol="100" pos="1344"/>
        </midiclip>
        <midiclip muted="0" steps="16" pos="8448" type="1" name="">
          <note pan="0" key="36" len="168" vol="100" pos="0"/>
          <note pan="0" key="28" len="192" vol="100" pos="168"/>
          <note pan="0" key="30" len="168" vol="100" pos="384"/>
          <note pan="0" key="37" len="96" vol="100" pos="552"/>
          <note pan="0" key="35" len="6" vol="100" pos="660"/>
          <note pan="0" key="37" len="6" vol="100" pos="666"/>
          <note pan="0" key="38" len="24" vol="100" pos="672"/>
          <note pan="0" key="37" len="12" vol="100" pos="696"/>
          <note pan="0" key="35" len="24" vol="100" pos="720"/>
          <note pan="0" key="37" len="12" vol="100" pos="744"/>
          <note pan="0" key="33" len="144" vol="100" pos="768"/>
          <note pan="0" key="37" len="24" vol="100" pos="912"/>
          <note pan="0" key="32" len="48" vol="100" pos="936"/>
          <note pan="0" key="35" len="48" vol="100" pos="984"/>
          <note pan="0" key="28" len="72" vol="100" pos="1032"/>
          <note pan="0" key="35" len="120" vol="100" pos="1152"/>
          <note pan="0" key="33" len="48" vol="100" pos="1272"/>
          <note pan="0" key="31" len="120" vol="100" pos="1320"/>
          <note pan="0" key="31" len="36" vol="100" pos="1440"/>
          <note pan="0" key="38" len="36" vol="100" pos="1476"/>
          <note pan="0" key="31" len="24" vol="100" pos="1512"/>
        </midiclip>
        <midiclip muted="0" steps="16" pos="0" type="1" name="">
          <note pan="0" key="33" len="192" vol="100" pos="0"/>
          <note pan="0" key="31" len="192" vol="100" pos="192"/>
          <note pan="0" key="29" len="192" vol="100" pos="384"/>
          <note pan="0" key="33" len="192" vol="100" pos="576"/>
        </midiclip>
        <midiclip muted="0" steps="16" pos="768" type="1" name="">
          <note pan="0" key="33" len="192" vol="100" pos="0"/>
          <note pan="0" key="31" len="192" vol="100" pos="192"/>
          <note pan="0" key="29" len="192" vol="100" pos="384"/>
          <note pan="0" key="33" len="528" vol="100" pos="576"/>
        </midiclip>
        <midiclip muted="0" steps="16" pos="5376" type="1" name="">
          <note pan="0" key="36" len="48" vol="100" pos="0"/>
          <note pan="0" key="36" len="24" vol="100" pos="48"/>
          <note pan="0" key="38" len="12" vol="100" pos="96"/>
          <note pan="0" key="38" len="24" vol="100" pos="120"/>
          <note pan="0" key="40" len="48" vol="100" pos="168"/>
          <note pan="0" key="40" len="24" vol="100" pos="216"/>
          <note pan="0" key="40" len="24" vol="100" pos="264"/>
          <note pan="0" key="43" len="48" vol="100" pos="288"/>
          <note pan="0" key="43" len="24" vol="100" pos="336"/>
          <note pan="0" key="40" len="48" vol="100" pos="384"/>
          <note pan="0" key="40" len="24" vol="100" pos="432"/>
          <note pan="0" key="35" len="12" vol="100" pos="480"/>
          <note pan="0" key="35" len="24" vol="100" pos="504"/>
          <note pan="0" key="28" len="48" vol="100" pos="552"/>
          <note pan="0" key="28" len="24" vol="100" pos="600"/>
          <note pan="0" key="28" len="24" vol="100" pos="648"/>
          <note pan="0" key="28" len="48" vol="100" pos="672"/>
          <note pan="0" key="28" len="24" vol="100" pos="720"/>
        </midiclip>
        <midiclip muted="0" steps="16" pos="6144" type="1" name="">
          <note pan="0" key="36" len="48" vol="100" pos="0"/>
          <note pan="0" key="36" len="24" vol="100" pos="48"/>
          <note pan="0" key="38" len="12" vol="100" pos="96"/>
          <note pan="0" key="38" len="24" vol="100" pos="120"/>
          <note pan="0" key="41" len="48" vol="100" pos="168"/>
          <note pan="0" key="41" len="24" vol="100" pos="216"/>
          <note pan="0" key="41" len="24" vol="100" pos="264"/>
          <note pan="0" key="43" len="48" vol="100" pos="288"/>
          <note pan="0" key="43" len="24" vol="100" pos="336"/>
          <note pan="0" key="40" len="48" vol="100" pos="384"/>
          <note pan="0" key="40" len="24" vol="100" pos="432"/>
          <note pan="0" key="35" len="12" vol="100" pos="480"/>
          <note pan="0" key="35" len="24" vol="100" pos="504"/>
          <note pan="0" key="32" len="48" vol="100" pos="552"/>
          <note pan="0" key="32" len="24" vol="100" pos="600"/>
          <note pan="0" key="32" len="24" vol="100" pos="648"/>
          <note pan="0" key="28" len="48" vol="100" pos="672"/>
          <note pan="0" key="28" len="24" vol="100" pos="720"/>
        </midiclip>
        <midiclip muted="0" steps="16" pos="6912" type="1" name="">
          <note pan="0" key="36" len="48" vol="100" pos="0"/>
          <note pan="0" key="36" len="24" vol="100" pos="48"/>
          <note pan="0" key="38" len="12" vol="100" pos="96"/>
          <note pan="0" key="38" len="24" vol="100" pos="120"/>
          <note pan="0" key="40" len="48" vol="100" pos="168"/>
          <note pan="0" key="40" len="24" vol="100" pos="216"/>
          <note pan="0" key="40" len="24" vol="100" pos="264"/>
          <note pan="0" key="43" len="48" vol="100" pos="288"/>
          <note pan="0" key="43" len="24" vol="100" pos="336"/>
          <note pan="0" key="40" len="48" vol="100" pos="384"/>
          <note pan="0" key="40" len="24" vol="100" pos="432"/>
          <note pan="0" key="35" len="12" vol="100" pos="480"/>
          <note pan="0" key="35" len="24" vol="100" pos="504"/>
          <note pan="0" key="28" len="48" vol="100" pos="552"/>
          <note pan="0" key="28" len="24" vol="100" pos="600"/>
          <note pan="0" key="28" len="24" vol="100" pos="648"/>
          <note pan="0" key="30" len="48" vol="100" pos="672"/>
          <note pan="0" key="32" len="24" vol="100" pos="720"/>
        </midiclip>
        <midiclip muted="0" steps="16" pos="7680" type="1" name="">
          <note pan="0" key="36" len="48" vol="100" pos="0"/>
          <note pan="0" key="36" len="24" vol="100" pos="48"/>
          <note pan="0" key="41" len="12" vol="100" pos="96"/>
          <note pan="0" key="41" len="24" vol="100" pos="120"/>
          <note pan="0" key="33" len="48" vol="100" pos="168"/>
          <note pan="0" key="33" len="24" vol="100" pos="216"/>
          <note pan="0" key="36" len="24" vol="100" pos="264"/>
          <note pan="0" key="41" len="48" vol="100" pos="288"/>
          <note pan="0" key="29" len="24" vol="100" pos="336"/>
          <note pan="0" key="40" len="48" vol="100" pos="384"/>
          <note pan="0" key="40" len="24" vol="100" pos="432"/>
          <note pan="0" key="35" len="12" vol="100" pos="480"/>
          <note pan="0" key="35" len="24" vol="100" pos="504"/>
          <note pan="0" key="28" len="48" vol="100" pos="552"/>
          <note pan="0" key="28" len="24" vol="100" pos="600"/>
          <note pan="0" key="28" len="24" vol="100" pos="648"/>
          <note pan="0" key="28" len="48" vol="100" pos="672"/>
          <note pan="0" key="28" len="24" vol="100" pos="720"/>
        </midiclip>
        <midiclip muted="0" steps="16" pos="13248" type="1" name="">
          <note pan="0" key="33" len="1536" vol="100" pos="0"/>
        </midiclip>
        <midiclip muted="0" steps="16" pos="10176" type="1" name="">
          <note pan="0" key="33" len="12" vol="100" pos="0"/>
          <note pan="0" key="45" len="24" vol="100" pos="24"/>
          <note pan="0" key="33" len="12" vol="100" pos="48"/>
          <note pan="0" key="31" len="12" vol="100" pos="72"/>
          <note pan="0" key="33" len="12" vol="100" pos="84"/>
          <note pan="0" key="45" len="24" vol="100" pos="120"/>
          <note pan="0" key="33" len="12" vol="100" pos="144"/>
          <note pan="0" key="33" len="12" vol="100" pos="168"/>
          <note pan="0" key="31" len="12" vol="100" pos="192"/>
          <note pan="0" key="31" len="12" vol="100" pos="216"/>
          <note pan="0" key="43" len="12" vol="100" pos="240"/>
          <note pan="0" key="29" len="12" vol="100" pos="264"/>
          <note pan="0" key="31" len="24" vol="100" pos="276"/>
          <note pan="0" key="43" len="12" vol="100" pos="312"/>
          <note pan="0" key="31" len="12" vol="100" pos="336"/>
          <note pan="0" key="30" len="12" vol="100" pos="360"/>
          <note pan="0" key="29" len="12" vol="100" pos="384"/>
          <note pan="0" key="29" len="12" vol="100" pos="408"/>
          <note pan="0" key="36" len="12" vol="100" pos="432"/>
          <note pan="0" key="29" len="12" vol="100" pos="456"/>
          <note pan="0" key="36" len="12" vol="100" pos="468"/>
          <note pan="0" key="41" len="24" vol="100" pos="504"/>
          <note pan="0" key="36" len="12" vol="100" pos="528"/>
          <note pan="0" key="35" len="12" vol="100" pos="552"/>
          <note pan="0" key="33" len="12" vol="100" pos="576"/>
          <note pan="0" key="33" len="12" vol="100" pos="600"/>
          <note pan="0" key="28" len="12" vol="100" pos="624"/>
          <note pan="0" key="31" len="12" vol="100" pos="648"/>
          <note pan="0" key="33" len="12" vol="100" pos="660"/>
          <note pan="0" key="36" len="24" vol="100" pos="696"/>
          <note pan="0" key="28" len="12" vol="100" pos="720"/>
          <note pan="0" key="31" len="12" vol="100" pos="744"/>
          <note pan="0" key="36" len="36" vol="100" pos="768"/>
          <note pan="0" key="35" len="36" vol="100" pos="804"/>
          <note pan="0" key="31" len="36" vol="100" pos="840"/>
          <note pan="0" key="28" len="36" vol="100" pos="876"/>
          <note pan="0" key="31" len="36" vol="100" pos="912"/>
          <note pan="0" key="35" len="36" vol="100" pos="960"/>
          <note pan="0" key="31" len="36" vol="100" pos="996"/>
          <note pan="0" key="28" len="36" vol="100" pos="1032"/>
          <note pan="0" key="31" len="36" vol="100" pos="1068"/>
          <note pan="0" key="35" len="36" vol="100" pos="1104"/>
          <note pan="0" key="31" len="36" vol="100" pos="1152"/>
          <note pan="0" key="35" len="36" vol="100" pos="1188"/>
          <note pan="0" key="31" len="36" vol="100" pos="1224"/>
          <note pan="0" key="38" len="36" vol="100" pos="1260"/>
          <note pan="0" key="35" len="36" vol="100" pos="1296"/>
          <note pan="0" key="36" len="36" vol="100" pos="1344"/>
          <note pan="0" key="33" len="36" vol="100" pos="1380"/>
          <note pan="0" key="31" len="36" vol="100" pos="1416"/>
          <note pan="0" key="35" len="36" vol="100" pos="1452"/>
          <note pan="0" key="28" len="36" vol="100" pos="1488"/>
        </midiclip>
        <midiclip muted="0" steps="16" pos="11712" type="1" name="">
          <note pan="0" key="33" len="12" vol="100" pos="0"/>
          <note pan="0" key="45" len="24" vol="100" pos="24"/>
          <note pan="0" key="33" len="12" vol="100" pos="48"/>
          <note pan="0" key="31" len="12" vol="100" pos="72"/>
          <note pan="0" key="33" len="12" vol="100" pos="84"/>
          <note pan="0" key="45" len="24" vol="100" pos="120"/>
          <note pan="0" key="33" len="12" vol="100" pos="144"/>
          <note pan="0" key="33" len="12" vol="100" pos="168"/>
          <note pan="0" key="31" len="12" vol="100" pos="192"/>
          <note pan="0" key="31" len="12" vol="100" pos="216"/>
          <note pan="0" key="43" len="12" vol="100" pos="240"/>
          <note pan="0" key="29" len="12" vol="100" pos="264"/>
          <note pan="0" key="31" len="24" vol="100" pos="276"/>
          <note pan="0" key="43" len="12" vol="100" pos="312"/>
          <note pan="0" key="31" len="12" vol="100" pos="336"/>
          <note pan="0" key="30" len="12" vol="100" pos="360"/>
          <note pan="0" key="29" len="12" vol="100" pos="384"/>
          <note pan="0" key="29" len="12" vol="100" pos="408"/>
          <note pan="0" key="36" len="12" vol="100" pos="432"/>
          <note pan="0" key="29" len="12" vol="100" pos="456"/>
          <note pan="0" key="36" len="12" vol="100" pos="468"/>
          <note pan="0" key="41" len="24" vol="100" pos="504"/>
          <note pan="0" key="36" len="12" vol="100" pos="528"/>
          <note pan="0" key="35" len="12" vol="100" pos="552"/>
          <note pan="0" key="33" len="12" vol="100" pos="576"/>
          <note pan="0" key="33" len="12" vol="100" pos="600"/>
          <note pan="0" key="28" len="12" vol="100" pos="624"/>
          <note pan="0" key="31" len="12" vol="100" pos="648"/>
          <note pan="0" key="33" len="12" vol="100" pos="660"/>
          <note pan="0" key="36" len="24" vol="100" pos="696"/>
          <note pan="0" key="28" len="12" vol="100" pos="720"/>
          <note pan="0" key="31" len="12" vol="100" pos="744"/>
          <note pan="0" key="36" len="36" vol="100" pos="768"/>
          <note pan="0" key="35" len="36" vol="100" pos="804"/>
          <note pan="0" key="31" len="36" vol="100" pos="840"/>
          <note pan="0" key="28" len="36" vol="100" pos="876"/>
          <note pan="0" key="31" len="36" vol="100" pos="912"/>
          <note pan="0" key="35" len="36" vol="100" pos="960"/>
          <note pan="0" key="31" len="36" vol="100" pos="996"/>
          <note pan="0" key="28" len="36" vol="100" pos="1032"/>
          <note pan="0" key="31" len="36" vol="100" pos="1068"/>
          <note pan="0" key="35" len="36" vol="100" pos="1104"/>
          <note pan="0" key="32" len="36" vol="100" pos="1152"/>
          <note pan="0" key="35" len="36" vol="100" pos="1188"/>
          <note pan="0" key="32" len="36" vol="100" pos="1224"/>
          <note pan="0" key="40" len="36" vol="100" pos="1260"/>
          <note pan="0" key="35" len="48" vol="100" pos="1296"/>
          <note pan="0" key="28" len="192" vol="100" pos="1344"/>
        </midiclip>
      </track>
      <track solo="0" muted="0" mutedBeforeSolo="0" type="5" name="Bass>Volume">
        <automationtrack/>
        <automationclip tens="1" len="1536" mute="0" prog="1" pos="13248" name="Bass>Volume">
          <time pos="0" outValue="100" value="100"/>
          <time pos="1536" outValue="0" value="0"/>
          <object id="31580"/>
        </automationclip>
        <automationclip tens="1" len="192" mute="0" prog="0" pos="0" name="Bass>Volume">
          <time pos="0" outValue="100" value="100"/>
          <object id="31580"/>
        </automationclip>
      </track>
      <track solo="0" muted="0" mutedBeforeSolo="0" type="5" name="Chords>Volume">
        <automationtrack/>
        <automationclip tens="1" len="192" mute="0" prog="0" pos="0" name="Chords>Sting>Volume">
          <time pos="0" outValue="100" value="100"/>
          <object id="2025"/>
          <object id="25298"/>
          <object id="18381"/>
        </automationclip>
        <automationclip tens="1" len="1536" mute="0" prog="1" pos="13248" name="Chords>Sweep>Volume">
          <time pos="0" outValue="100" value="100"/>
          <time pos="1536" outValue="0" value="0"/>
          <object id="18381"/>
          <object id="25298"/>
          <object id="2025"/>
        </automationclip>
      </track>
      <track solo="0" muted="0" mutedBeforeSolo="0" type="0" name="Chords>Sting">
        <instrumenttrack lastkey="127" usemasterpitch="1" pan="0" pitchrange="1" basenote="57" enabled="0" firstkey="0" keymap="0" enablecc="0" range_import="1" mixch="10" scale="0" pitch="0">
          <vol scale_type="linear" id="2025" value="91.9271"/>
          <midicontrollers cc66="0" cc52="0" cc64="0" cc28="0" cc48="0" cc7="0" cc96="0" cc124="0" cc53="0" cc54="0" cc9="0" cc8="0" cc79="0" cc85="0" cc18="0" cc81="0" cc43="0" cc123="0" cc46="0" cc95="0" cc111="0" cc1="0" cc59="0" cc115="0" cc4="0" cc62="0" cc110="0" cc0="0" cc109="0" cc116="0" cc51="0" cc44="0" cc34="0" cc71="0" cc45="0" cc88="0" cc122="0" cc92="0" cc127="0" cc16="0" cc73="0" cc100="0" cc55="0" cc105="0" cc82="0" cc29="0" cc13="0" cc112="0" cc42="0" cc38="0" cc25="0" cc14="0" cc98="0" cc119="0" cc126="0" cc114="0" cc76="0" cc101="0" cc47="0" cc80="0" cc68="0" cc90="0" cc121="0" cc30="0" cc19="0" cc36="0" cc31="0" cc24="0" cc41="0" cc83="0" cc60="0" cc108="0" cc113="0" cc56="0" cc94="0" cc67="0" cc63="0" cc3="0" cc6="0" cc103="0" cc49="0" cc11="0" cc10="0" cc102="0" cc57="0" cc77="0" cc86="0" cc93="0" cc120="0" cc72="0" cc26="0" cc21="0" cc35="0" cc74="0" cc27="0" cc99="0" cc33="0" cc106="0" cc125="0" cc5="0" cc17="0" cc84="0" cc107="0" cc58="0" cc37="0" cc15="0" cc104="0" cc87="0" cc20="0" cc2="0" cc65="0" cc78="0" cc91="0" cc50="0" cc22="0" cc39="0" cc97="0" cc40="0" cc23="0" cc32="0" cc75="0" cc12="0" cc70="0" cc61="0" cc69="0" cc89="0" cc118="0" cc117="0"/>
          <instrument name="sf2player">
            <sf2player reverbRoomSize="0.2" reverbLevel="0.9" chorusOn="0" reverbWidth="0.5" reverbDamping="0" gain="1" chorusDepth="8" chorusSpeed="0.3" patch="98" reverbOn="0" chorusNum="3" chorusLevel="2" src="usersoundfont:SGM-V2.01.sf2" bank="10">
              <key/>
            </sf2player>
          </instrument>
          <eldata ftype="0" fcut="14000" fwet="0" fres="0.5">
            <elvol lspd_numerator="4" lspd_denominator="4" lshp="0" lspd="0.1" hold="0.5" amt="0" lamt="0" rel="0.1" ctlenvamt="0" lpdel="0" latt="0" userwavefile="" lspd_syncmode="0" sustain="0.5" pdel="0" x100="0" att="0" dec="0.5"/>
            <elcut lspd_numerator="4" lspd_denominator="4" lshp="0" lspd="0.1" hold="0.5" amt="0" lamt="0" rel="0.1" ctlenvamt="0" lpdel="0" latt="0" userwavefile="" lspd_syncmode="0" sustain="0.5" pdel="0" x100="0" att="0" dec="0.5"/>
            <elres lspd_numerator="4" lspd_denominator="4" lshp="0" lspd="0.1" hold="0.5" amt="0" lamt="0" rel="0.1" ctlenvamt="0" lpdel="0" latt="0" userwavefile="" lspd_syncmode="0" sustain="0.5" pdel="0" x100="0" att="0" dec="0.5"/>
          </eldata>
          <chordcreator chord="0" chordrange="1" chord-enabled="0"/>
          <arpeggiator arpgate="100" arp-enabled="0" arprepeats="1" arpmode="0" arprange="1" arpcycle="0" arpmiss="0" arpskip="0" arptime_denominator="4" arptime="200" arptime_syncmode="0" arp="0" arptime_numerator="4" arpdir="0"/>
          <midiport inputcontroller="0" inputchannel="0" fixedoutputnote="-1" outputprogram="1" readable="1" fixedinputvelocity="-1" fixedoutputvelocity="-1" writable="0" inports="" outputcontroller="0" basevelocity="63" outputchannel="1"/>
          <fxchain enabled="0" numofeffects="0"/>
        </instrumenttrack>
        <midiclip muted="0" steps="16" pos="2304" type="1" name="">
          <note pan="0" key="60" len="168" vol="100" pos="0"/>
          <note pan="0" key="57" len="168" vol="100" pos="0"/>
          <note pan="0" key="52" len="168" vol="100" pos="0"/>
          <note pan="0" key="59" len="168" vol="100" pos="192"/>
          <note pan="0" key="55" len="168" vol="100" pos="192"/>
          <note pan="0" key="50" len="168" vol="100" pos="192"/>
          <note pan="0" key="62" len="168" vol="100" pos="384"/>
          <note pan="0" key="57" len="168" vol="100" pos="384"/>
          <note pan="0" key="53" len="168" vol="100" pos="384"/>
          <note pan="0" key="60" len="168" vol="100" pos="576"/>
          <note pan="0" key="57" len="168" vol="100" pos="576"/>
          <note pan="0" key="52" len="168" vol="100" pos="576"/>
          <note pan="0" key="64" len="168" vol="100" pos="768"/>
          <note pan="0" key="60" len="168" vol="100" pos="768"/>
          <note pan="0" key="57" len="168" vol="100" pos="768"/>
          <note pan="0" key="62" len="168" vol="100" pos="960"/>
          <note pan="0" key="59" len="168" vol="100" pos="960"/>
          <note pan="0" key="57" len="168" vol="100" pos="960"/>
          <note pan="0" key="62" len="168" vol="100" pos="1152"/>
          <note pan="0" key="59" len="168" vol="100" pos="1152"/>
          <note pan="0" key="55" len="168" vol="100" pos="1152"/>
          <note pan="0" key="60" len="84" vol="100" pos="1344"/>
          <note pan="0" key="57" len="84" vol="100" pos="1344"/>
          <note pan="0" key="52" len="84" vol="100" pos="1344"/>
          <note pan="0" key="62" len="84" vol="100" pos="1440"/>
          <note pan="0" key="59" len="84" vol="100" pos="1440"/>
          <note pan="0" key="55" len="84" vol="100" pos="1440"/>
        </midiclip>
        <midiclip muted="0" steps="16" pos="3840" type="1" name="">
          <note pan="0" key="60" len="168" vol="100" pos="0"/>
          <note pan="0" key="57" len="168" vol="100" pos="0"/>
          <note pan="0" key="52" len="168" vol="100" pos="0"/>
          <note pan="0" key="59" len="168" vol="100" pos="192"/>
          <note pan="0" key="55" len="168" vol="100" pos="192"/>
          <note pan="0" key="50" len="168" vol="100" pos="192"/>
          <note pan="0" key="62" len="168" vol="100" pos="384"/>
          <note pan="0" key="57" len="168" vol="100" pos="384"/>
          <note pan="0" key="53" len="168" vol="100" pos="384"/>
          <note pan="0" key="60" len="168" vol="100" pos="576"/>
          <note pan="0" key="57" len="168" vol="100" pos="576"/>
          <note pan="0" key="52" len="168" vol="100" pos="576"/>
          <note pan="0" key="64" len="168" vol="100" pos="768"/>
          <note pan="0" key="60" len="168" vol="100" pos="768"/>
          <note pan="0" key="57" len="168" vol="100" pos="768"/>
          <note pan="0" key="64" len="168" vol="100" pos="960"/>
          <note pan="0" key="59" len="168" vol="100" pos="960"/>
          <note pan="0" key="55" len="168" vol="100" pos="960"/>
          <note pan="0" key="64" len="168" vol="100" pos="1152"/>
          <note pan="0" key="59" len="168" vol="100" pos="1152"/>
          <note pan="0" key="56" len="168" vol="100" pos="1152"/>
          <note pan="0" key="62" len="180" vol="100" pos="1344"/>
          <note pan="0" key="57" len="180" vol="100" pos="1344"/>
          <note pan="0" key="55" len="180" vol="100" pos="1344"/>
        </midiclip>
        <midiclip muted="0" steps="16" pos="5376" type="1" name="">
          <note pan="0" key="60" len="360" vol="100" pos="0"/>
          <note pan="0" key="57" len="360" vol="100" pos="0"/>
          <note pan="0" key="52" len="360" vol="100" pos="0"/>
          <note pan="0" key="59" len="360" vol="100" pos="384"/>
          <note pan="0" key="56" len="360" vol="100" pos="384"/>
          <note pan="0" key="52" len="360" vol="100" pos="384"/>
          <note pan="0" key="60" len="360" vol="100" pos="768"/>
          <note pan="0" key="57" len="360" vol="100" pos="768"/>
          <note pan="0" key="53" len="360" vol="100" pos="768"/>
          <note pan="0" key="64" len="168" vol="100" pos="1152"/>
          <note pan="0" key="59" len="360" vol="100" pos="1152"/>
          <note pan="0" key="56" len="360" vol="100" pos="1152"/>
          <note pan="0" key="62" len="168" vol="100" pos="1344"/>
        </midiclip>
        <midiclip muted="0" steps="16" pos="6912" type="1" name="">
          <note pan="0" key="64" len="360" vol="100" pos="0"/>
          <note pan="0" key="60" len="360" vol="100" pos="0"/>
          <note pan="0" key="57" len="360" vol="100" pos="0"/>
          <note pan="0" key="64" len="360" vol="100" pos="384"/>
          <note pan="0" key="59" len="360" vol="100" pos="384"/>
          <note pan="0" key="56" len="360" vol="100" pos="384"/>
          <note pan="0" key="65" len="360" vol="100" pos="768"/>
          <note pan="0" key="60" len="360" vol="100" pos="768"/>
          <note pan="0" key="57" len="360" vol="100" pos="768"/>
          <note pan="0" key="68" len="168" vol="100" pos="1152"/>
          <note pan="0" key="64" len="360" vol="100" pos="1152"/>
          <note pan="0" key="59" len="360" vol="100" pos="1152"/>
          <note pan="0" key="67" len="168" vol="100" pos="1344"/>
        </midiclip>
        <midiclip muted="0" steps="16" pos="8448" type="1" name="">
          <note pan="0" key="69" len="168" vol="100" pos="0"/>
          <note pan="0" key="64" len="168" vol="100" pos="0"/>
          <note pan="0" key="60" len="168" vol="100" pos="0"/>
          <note pan="0" key="68" len="168" vol="100" pos="168"/>
          <note pan="0" key="64" len="168" vol="100" pos="168"/>
          <note pan="0" key="59" len="168" vol="100" pos="168"/>
          <note pan="0" key="66" len="168" vol="100" pos="384"/>
          <note pan="0" key="60" len="168" vol="100" pos="384"/>
          <note pan="0" key="56" len="168" vol="100" pos="384"/>
          <note pan="0" key="64" len="168" vol="100" pos="552"/>
          <note pan="0" key="61" len="168" vol="100" pos="552"/>
          <note pan="0" key="56" len="168" vol="100" pos="552"/>
          <note pan="0" key="61" len="168" vol="100" pos="768"/>
          <note pan="0" key="57" len="168" vol="100" pos="768"/>
          <note pan="0" key="52" len="168" vol="100" pos="768"/>
          <note pan="0" key="59" len="120" vol="100" pos="936"/>
          <note pan="0" key="56" len="168" vol="100" pos="936"/>
          <note pan="0" key="52" len="168" vol="100" pos="936"/>
          <note pan="0" key="64" len="48" vol="100" pos="1056"/>
          <note pan="0" key="63" len="168" vol="100" pos="1152"/>
          <note pan="0" key="59" len="168" vol="100" pos="1152"/>
          <note pan="0" key="54" len="168" vol="100" pos="1152"/>
          <note pan="0" key="62" len="168" vol="100" pos="1320"/>
          <note pan="0" key="59" len="168" vol="100" pos="1320"/>
          <note pan="0" key="55" len="168" vol="100" pos="1320"/>
        </midiclip>
        <midiclip muted="0" steps="16" pos="11712" type="1" name="">
          <note pan="0" key="60" len="168" vol="100" pos="0"/>
          <note pan="0" key="57" len="168" vol="100" pos="0"/>
          <note pan="0" key="52" len="168" vol="100" pos="0"/>
          <note pan="0" key="59" len="168" vol="100" pos="192"/>
          <note pan="0" key="55" len="168" vol="100" pos="192"/>
          <note pan="0" key="50" len="168" vol="100" pos="192"/>
          <note pan="0" key="62" len="168" vol="100" pos="384"/>
          <note pan="0" key="57" len="168" vol="100" pos="384"/>
          <note pan="0" key="53" len="168" vol="100" pos="384"/>
          <note pan="0" key="60" len="168" vol="100" pos="576"/>
          <note pan="0" key="57" len="168" vol="100" pos="576"/>
          <note pan="0" key="52" len="168" vol="100" pos="576"/>
          <note pan="0" key="64" len="168" vol="100" pos="768"/>
          <note pan="0" key="60" len="168" vol="100" pos="768"/>
          <note pan="0" key="57" len="168" vol="100" pos="768"/>
          <note pan="0" key="64" len="168" vol="100" pos="960"/>
          <note pan="0" key="59" len="168" vol="100" pos="960"/>
          <note pan="0" key="55" len="168" vol="100" pos="960"/>
          <note pan="0" key="64" len="168" vol="100" pos="1152"/>
          <note pan="0" key="59" len="168" vol="100" pos="1152"/>
          <note pan="0" key="56" len="168" vol="100" pos="1152"/>
          <note pan="0" key="62" len="180" vol="100" pos="1344"/>
          <note pan="0" key="57" len="180" vol="100" pos="1344"/>
          <note pan="0" key="55" len="180" vol="100" pos="1344"/>
        </midiclip>
        <midiclip muted="0" steps="16" pos="13248" type="1" name="">
          <note pan="0" key="60" len="1536" vol="100" pos="0"/>
          <note pan="0" key="57" len="1536" vol="100" pos="0"/>
          <note pan="0" key="52" len="1536" vol="100" pos="0"/>
        </midiclip>
        <midiclip muted="0" steps="16" pos="10176" type="1" name="">
          <note pan="0" key="60" len="168" vol="100" pos="0"/>
          <note pan="0" key="57" len="168" vol="100" pos="0"/>
          <note pan="0" key="52" len="168" vol="100" pos="0"/>
          <note pan="0" key="59" len="168" vol="100" pos="192"/>
          <note pan="0" key="55" len="168" vol="100" pos="192"/>
          <note pan="0" key="50" len="168" vol="100" pos="192"/>
          <note pan="0" key="62" len="168" vol="100" pos="384"/>
          <note pan="0" key="57" len="168" vol="100" pos="384"/>
          <note pan="0" key="53" len="168" vol="100" pos="384"/>
          <note pan="0" key="60" len="168" vol="100" pos="576"/>
          <note pan="0" key="57" len="168" vol="100" pos="576"/>
          <note pan="0" key="52" len="168" vol="100" pos="576"/>
          <note pan="0" key="64" len="168" vol="100" pos="768"/>
          <note pan="0" key="60" len="168" vol="100" pos="768"/>
          <note pan="0" key="57" len="168" vol="100" pos="768"/>
          <note pan="0" key="62" len="168" vol="100" pos="960"/>
          <note pan="0" key="59" len="168" vol="100" pos="960"/>
          <note pan="0" key="57" len="168" vol="100" pos="960"/>
          <note pan="0" key="62" len="168" vol="100" pos="1152"/>
          <note pan="0" key="59" len="168" vol="100" pos="1152"/>
          <note pan="0" key="55" len="168" vol="100" pos="1152"/>
          <note pan="0" key="64" len="84" vol="100" pos="1344"/>
          <note pan="0" key="60" len="84" vol="100" pos="1344"/>
          <note pan="0" key="57" len="84" vol="100" pos="1344"/>
          <note pan="0" key="62" len="84" vol="100" pos="1440"/>
          <note pan="0" key="59" len="84" vol="100" pos="1440"/>
          <note pan="0" key="55" len="84" vol="100" pos="1440"/>
        </midiclip>
      </track>
      <track solo="0" muted="0" mutedBeforeSolo="0" type="0" name="Chords>Mellow">
        <instrumenttrack lastkey="127" usemasterpitch="1" pan="0" pitchrange="1" basenote="69" enabled="0" firstkey="0" keymap="0" enablecc="0" range_import="1" mixch="11" scale="0" pitch="0">
          <vol scale_type="linear" id="25298" value="91.9271"/>
          <midicontrollers cc66="0" cc52="0" cc64="0" cc28="0" cc48="0" cc7="0" cc96="0" cc124="0" cc53="0" cc54="0" cc9="0" cc8="0" cc79="0" cc85="0" cc18="0" cc81="0" cc43="0" cc123="0" cc46="0" cc95="0" cc111="0" cc1="0" cc59="0" cc115="0" cc4="0" cc62="0" cc110="0" cc0="0" cc109="0" cc116="0" cc51="0" cc44="0" cc34="0" cc71="0" cc45="0" cc88="0" cc122="0" cc92="0" cc127="0" cc16="0" cc73="0" cc100="0" cc55="0" cc105="0" cc82="0" cc29="0" cc13="0" cc112="0" cc42="0" cc38="0" cc25="0" cc14="0" cc98="0" cc119="0" cc126="0" cc114="0" cc76="0" cc101="0" cc47="0" cc80="0" cc68="0" cc90="0" cc121="0" cc30="0" cc19="0" cc36="0" cc31="0" cc24="0" cc41="0" cc83="0" cc60="0" cc108="0" cc113="0" cc56="0" cc94="0" cc67="0" cc63="0" cc3="0" cc6="0" cc103="0" cc49="0" cc11="0" cc10="0" cc102="0" cc57="0" cc77="0" cc86="0" cc93="0" cc120="0" cc72="0" cc26="0" cc21="0" cc35="0" cc74="0" cc27="0" cc99="0" cc33="0" cc106="0" cc125="0" cc5="0" cc17="0" cc84="0" cc107="0" cc58="0" cc37="0" cc15="0" cc104="0" cc87="0" cc20="0" cc2="0" cc65="0" cc78="0" cc91="0" cc50="0" cc22="0" cc39="0" cc97="0" cc40="0" cc23="0" cc32="0" cc75="0" cc12="0" cc70="0" cc61="0" cc69="0" cc89="0" cc118="0" cc117="0"/>
          <instrument name="sf2player">
            <sf2player reverbRoomSize="0.2" reverbLevel="0.9" chorusOn="0" reverbWidth="0.5" reverbDamping="0" gain="0.9" chorusDepth="8" chorusSpeed="0.3" patch="103" reverbOn="0" chorusNum="3" chorusLevel="2" src="usersoundfont:SGM-V2.01.sf2" bank="9">
              <key/>
            </sf2player>
          </instrument>
          <eldata ftype="0" fcut="14000" fwet="0" fres="0.5">
            <elvol lspd_numerator="4" lspd_denominator="4" lshp="0" lspd="0.1" hold="0.5" amt="0" lamt="0" rel="0.1" ctlenvamt="0" lpdel="0" latt="0" userwavefile="" lspd_syncmode="0" sustain="0.5" pdel="0" x100="0" att="0" dec="0.5"/>
            <elcut lspd_numerator="4" lspd_denominator="4" lshp="0" lspd="0.1" hold="0.5" amt="0" lamt="0" rel="0.1" ctlenvamt="0" lpdel="0" latt="0" userwavefile="" lspd_syncmode="0" sustain="0.5" pdel="0" x100="0" att="0" dec="0.5"/>
            <elres lspd_numerator="4" lspd_denominator="4" lshp="0" lspd="0.1" hold="0.5" amt="0" lamt="0" rel="0.1" ctlenvamt="0" lpdel="0" latt="0" userwavefile="" lspd_syncmode="0" sustain="0.5" pdel="0" x100="0" att="0" dec="0.5"/>
          </eldata>
          <chordcreator chord="0" chordrange="1" chord-enabled="0"/>
          <arpeggiator arpgate="100" arp-enabled="0" arprepeats="1" arpmode="0" arprange="1" arpcycle="0" arpmiss="0" arpskip="0" arptime_denominator="4" arptime="200" arptime_syncmode="0" arp="0" arptime_numerator="4" arpdir="0"/>
          <midiport inputcontroller="0" inputchannel="0" fixedoutputnote="-1" outputprogram="1" readable="1" fixedinputvelocity="-1" fixedoutputvelocity="-1" writable="0" inports="" outputcontroller="0" basevelocity="63" outputchannel="1"/>
          <fxchain enabled="0" numofeffects="0"/>
        </instrumenttrack>
        <midiclip muted="0" steps="16" pos="2304" type="1" name="">
          <note pan="0" key="60" len="168" vol="100" pos="0"/>
          <note pan="0" key="57" len="168" vol="100" pos="0"/>
          <note pan="0" key="52" len="168" vol="100" pos="0"/>
          <note pan="0" key="59" len="168" vol="100" pos="192"/>
          <note pan="0" key="55" len="168" vol="100" pos="192"/>
          <note pan="0" key="50" len="168" vol="100" pos="192"/>
          <note pan="0" key="62" len="168" vol="100" pos="384"/>
          <note pan="0" key="57" len="168" vol="100" pos="384"/>
          <note pan="0" key="53" len="168" vol="100" pos="384"/>
          <note pan="0" key="60" len="168" vol="100" pos="576"/>
          <note pan="0" key="57" len="168" vol="100" pos="576"/>
          <note pan="0" key="52" len="168" vol="100" pos="576"/>
          <note pan="0" key="64" len="168" vol="100" pos="768"/>
          <note pan="0" key="60" len="168" vol="100" pos="768"/>
          <note pan="0" key="57" len="168" vol="100" pos="768"/>
          <note pan="0" key="62" len="168" vol="100" pos="960"/>
          <note pan="0" key="59" len="168" vol="100" pos="960"/>
          <note pan="0" key="57" len="168" vol="100" pos="960"/>
          <note pan="0" key="62" len="168" vol="100" pos="1152"/>
          <note pan="0" key="59" len="168" vol="100" pos="1152"/>
          <note pan="0" key="55" len="168" vol="100" pos="1152"/>
          <note pan="0" key="60" len="84" vol="100" pos="1344"/>
          <note pan="0" key="57" len="84" vol="100" pos="1344"/>
          <note pan="0" key="52" len="84" vol="100" pos="1344"/>
          <note pan="0" key="62" len="84" vol="100" pos="1440"/>
          <note pan="0" key="59" len="84" vol="100" pos="1440"/>
          <note pan="0" key="55" len="84" vol="100" pos="1440"/>
        </midiclip>
        <midiclip muted="0" steps="16" pos="3840" type="1" name="">
          <note pan="0" key="60" len="168" vol="100" pos="0"/>
          <note pan="0" key="57" len="168" vol="100" pos="0"/>
          <note pan="0" key="52" len="168" vol="100" pos="0"/>
          <note pan="0" key="59" len="168" vol="100" pos="192"/>
          <note pan="0" key="55" len="168" vol="100" pos="192"/>
          <note pan="0" key="50" len="168" vol="100" pos="192"/>
          <note pan="0" key="62" len="168" vol="100" pos="384"/>
          <note pan="0" key="57" len="168" vol="100" pos="384"/>
          <note pan="0" key="53" len="168" vol="100" pos="384"/>
          <note pan="0" key="60" len="168" vol="100" pos="576"/>
          <note pan="0" key="57" len="168" vol="100" pos="576"/>
          <note pan="0" key="52" len="168" vol="100" pos="576"/>
          <note pan="0" key="64" len="168" vol="100" pos="768"/>
          <note pan="0" key="60" len="168" vol="100" pos="768"/>
          <note pan="0" key="57" len="168" vol="100" pos="768"/>
          <note pan="0" key="64" len="168" vol="100" pos="960"/>
          <note pan="0" key="59" len="168" vol="100" pos="960"/>
          <note pan="0" key="55" len="168" vol="100" pos="960"/>
          <note pan="0" key="64" len="168" vol="100" pos="1152"/>
          <note pan="0" key="59" len="168" vol="100" pos="1152"/>
          <note pan="0" key="56" len="168" vol="100" pos="1152"/>
          <note pan="0" key="62" len="180" vol="100" pos="1344"/>
          <note pan="0" key="57" len="180" vol="100" pos="1344"/>
          <note pan="0" key="55" len="180" vol="100" pos="1344"/>
        </midiclip>
        <midiclip muted="0" steps="16" pos="5376" type="1" name="">
          <note pan="0" key="60" len="360" vol="100" pos="0"/>
          <note pan="0" key="57" len="360" vol="100" pos="0"/>
          <note pan="0" key="52" len="360" vol="100" pos="0"/>
          <note pan="0" key="59" len="360" vol="100" pos="384"/>
          <note pan="0" key="56" len="360" vol="100" pos="384"/>
          <note pan="0" key="52" len="360" vol="100" pos="384"/>
          <note pan="0" key="60" len="360" vol="100" pos="768"/>
          <note pan="0" key="57" len="360" vol="100" pos="768"/>
          <note pan="0" key="53" len="360" vol="100" pos="768"/>
          <note pan="0" key="64" len="168" vol="100" pos="1152"/>
          <note pan="0" key="59" len="360" vol="100" pos="1152"/>
          <note pan="0" key="56" len="360" vol="100" pos="1152"/>
          <note pan="0" key="62" len="168" vol="100" pos="1344"/>
        </midiclip>
        <midiclip muted="0" steps="16" pos="6912" type="1" name="">
          <note pan="0" key="64" len="360" vol="100" pos="0"/>
          <note pan="0" key="60" len="360" vol="100" pos="0"/>
          <note pan="0" key="57" len="360" vol="100" pos="0"/>
          <note pan="0" key="64" len="360" vol="100" pos="384"/>
          <note pan="0" key="59" len="360" vol="100" pos="384"/>
          <note pan="0" key="56" len="360" vol="100" pos="384"/>
          <note pan="0" key="65" len="360" vol="100" pos="768"/>
          <note pan="0" key="60" len="360" vol="100" pos="768"/>
          <note pan="0" key="57" len="360" vol="100" pos="768"/>
          <note pan="0" key="68" len="168" vol="100" pos="1152"/>
          <note pan="0" key="64" len="360" vol="100" pos="1152"/>
          <note pan="0" key="59" len="360" vol="100" pos="1152"/>
          <note pan="0" key="67" len="168" vol="100" pos="1344"/>
        </midiclip>
        <midiclip muted="0" steps="16" pos="8448" type="1" name="">
          <note pan="0" key="69" len="168" vol="100" pos="0"/>
          <note pan="0" key="64" len="168" vol="100" pos="0"/>
          <note pan="0" key="60" len="168" vol="100" pos="0"/>
          <note pan="0" key="68" len="168" vol="100" pos="168"/>
          <note pan="0" key="64" len="168" vol="100" pos="168"/>
          <note pan="0" key="59" len="168" vol="100" pos="168"/>
          <note pan="0" key="66" len="168" vol="100" pos="384"/>
          <note pan="0" key="60" len="168" vol="100" pos="384"/>
          <note pan="0" key="56" len="168" vol="100" pos="384"/>
          <note pan="0" key="64" len="168" vol="100" pos="552"/>
          <note pan="0" key="61" len="168" vol="100" pos="552"/>
          <note pan="0" key="56" len="168" vol="100" pos="552"/>
          <note pan="0" key="61" len="168" vol="100" pos="768"/>
          <note pan="0" key="57" len="168" vol="100" pos="768"/>
          <note pan="0" key="52" len="168" vol="100" pos="768"/>
          <note pan="0" key="59" len="120" vol="100" pos="936"/>
          <note pan="0" key="56" len="168" vol="100" pos="936"/>
          <note pan="0" key="52" len="168" vol="100" pos="936"/>
          <note pan="0" key="64" len="48" vol="100" pos="1056"/>
          <note pan="0" key="63" len="168" vol="100" pos="1152"/>
          <note pan="0" key="59" len="168" vol="100" pos="1152"/>
          <note pan="0" key="54" len="168" vol="100" pos="1152"/>
          <note pan="0" key="62" len="168" vol="100" pos="1320"/>
          <note pan="0" key="59" len="168" vol="100" pos="1320"/>
          <note pan="0" key="55" len="168" vol="100" pos="1320"/>
        </midiclip>
        <midiclip muted="0" steps="16" pos="11712" type="1" name="">
          <note pan="0" key="60" len="168" vol="100" pos="0"/>
          <note pan="0" key="57" len="168" vol="100" pos="0"/>
          <note pan="0" key="52" len="168" vol="100" pos="0"/>
          <note pan="0" key="59" len="168" vol="100" pos="192"/>
          <note pan="0" key="55" len="168" vol="100" pos="192"/>
          <note pan="0" key="50" len="168" vol="100" pos="192"/>
          <note pan="0" key="62" len="168" vol="100" pos="384"/>
          <note pan="0" key="57" len="168" vol="100" pos="384"/>
          <note pan="0" key="53" len="168" vol="100" pos="384"/>
          <note pan="0" key="60" len="168" vol="100" pos="576"/>
          <note pan="0" key="57" len="168" vol="100" pos="576"/>
          <note pan="0" key="52" len="168" vol="100" pos="576"/>
          <note pan="0" key="64" len="168" vol="100" pos="768"/>
          <note pan="0" key="60" len="168" vol="100" pos="768"/>
          <note pan="0" key="57" len="168" vol="100" pos="768"/>
          <note pan="0" key="64" len="168" vol="100" pos="960"/>
          <note pan="0" key="59" len="168" vol="100" pos="960"/>
          <note pan="0" key="55" len="168" vol="100" pos="960"/>
          <note pan="0" key="64" len="168" vol="100" pos="1152"/>
          <note pan="0" key="59" len="168" vol="100" pos="1152"/>
          <note pan="0" key="56" len="168" vol="100" pos="1152"/>
          <note pan="0" key="62" len="180" vol="100" pos="1344"/>
          <note pan="0" key="57" len="180" vol="100" pos="1344"/>
          <note pan="0" key="55" len="180" vol="100" pos="1344"/>
        </midiclip>
        <midiclip muted="0" steps="16" pos="13248" type="1" name="">
          <note pan="0" key="60" len="1536" vol="100" pos="0"/>
          <note pan="0" key="57" len="1536" vol="100" pos="0"/>
          <note pan="0" key="52" len="1536" vol="100" pos="0"/>
        </midiclip>
        <midiclip muted="0" steps="16" pos="10176" type="1" name="">
          <note pan="0" key="60" len="168" vol="100" pos="0"/>
          <note pan="0" key="57" len="168" vol="100" pos="0"/>
          <note pan="0" key="52" len="168" vol="100" pos="0"/>
          <note pan="0" key="59" len="168" vol="100" pos="192"/>
          <note pan="0" key="55" len="168" vol="100" pos="192"/>
          <note pan="0" key="50" len="168" vol="100" pos="192"/>
          <note pan="0" key="62" len="168" vol="100" pos="384"/>
          <note pan="0" key="57" len="168" vol="100" pos="384"/>
          <note pan="0" key="53" len="168" vol="100" pos="384"/>
          <note pan="0" key="60" len="168" vol="100" pos="576"/>
          <note pan="0" key="57" len="168" vol="100" pos="576"/>
          <note pan="0" key="52" len="168" vol="100" pos="576"/>
          <note pan="0" key="64" len="168" vol="100" pos="768"/>
          <note pan="0" key="60" len="168" vol="100" pos="768"/>
          <note pan="0" key="57" len="168" vol="100" pos="768"/>
          <note pan="0" key="62" len="168" vol="100" pos="960"/>
          <note pan="0" key="59" len="168" vol="100" pos="960"/>
          <note pan="0" key="57" len="168" vol="100" pos="960"/>
          <note pan="0" key="62" len="168" vol="100" pos="1152"/>
          <note pan="0" key="59" len="168" vol="100" pos="1152"/>
          <note pan="0" key="55" len="168" vol="100" pos="1152"/>
          <note pan="0" key="64" len="84" vol="100" pos="1344"/>
          <note pan="0" key="60" len="84" vol="100" pos="1344"/>
          <note pan="0" key="57" len="84" vol="100" pos="1344"/>
          <note pan="0" key="62" len="84" vol="100" pos="1440"/>
          <note pan="0" key="59" len="84" vol="100" pos="1440"/>
          <note pan="0" key="55" len="84" vol="100" pos="1440"/>
        </midiclip>
      </track>
      <track solo="0" muted="0" mutedBeforeSolo="0" type="0" name="Chords>Sweep">
        <instrumenttrack lastkey="127" usemasterpitch="1" pan="0" pitchrange="1" basenote="69" enabled="0" firstkey="0" keymap="0" enablecc="0" range_import="1" mixch="12" scale="0" pitch="0">
          <vol scale_type="linear" id="18381" value="91.9271"/>
          <midicontrollers cc66="0" cc52="0" cc64="0" cc28="0" cc48="0" cc7="0" cc96="0" cc124="0" cc53="0" cc54="0" cc9="0" cc8="0" cc79="0" cc85="0" cc18="0" cc81="0" cc43="0" cc123="0" cc46="0" cc95="0" cc111="0" cc1="0" cc59="0" cc115="0" cc4="0" cc62="0" cc110="0" cc0="0" cc109="0" cc116="0" cc51="0" cc44="0" cc34="0" cc71="0" cc45="0" cc88="0" cc122="0" cc92="0" cc127="0" cc16="0" cc73="0" cc100="0" cc55="0" cc105="0" cc82="0" cc29="0" cc13="0" cc112="0" cc42="0" cc38="0" cc25="0" cc14="0" cc98="0" cc119="0" cc126="0" cc114="0" cc76="0" cc101="0" cc47="0" cc80="0" cc68="0" cc90="0" cc121="0" cc30="0" cc19="0" cc36="0" cc31="0" cc24="0" cc41="0" cc83="0" cc60="0" cc108="0" cc113="0" cc56="0" cc94="0" cc67="0" cc63="0" cc3="0" cc6="0" cc103="0" cc49="0" cc11="0" cc10="0" cc102="0" cc57="0" cc77="0" cc86="0" cc93="0" cc120="0" cc72="0" cc26="0" cc21="0" cc35="0" cc74="0" cc27="0" cc99="0" cc33="0" cc106="0" cc125="0" cc5="0" cc17="0" cc84="0" cc107="0" cc58="0" cc37="0" cc15="0" cc104="0" cc87="0" cc20="0" cc2="0" cc65="0" cc78="0" cc91="0" cc50="0" cc22="0" cc39="0" cc97="0" cc40="0" cc23="0" cc32="0" cc75="0" cc12="0" cc70="0" cc61="0" cc69="0" cc89="0" cc118="0" cc117="0"/>
          <instrument name="sf2player">
            <sf2player reverbRoomSize="0.2" reverbLevel="0.9" chorusOn="0" reverbWidth="0.5" reverbDamping="0" gain="1" chorusDepth="8" chorusSpeed="0.3" patch="95" reverbOn="0" chorusNum="3" chorusLevel="2" src="usersoundfont:GeneralUser GS v1.471.sf2" bank="0">
              <key/>
            </sf2player>
          </instrument>
          <eldata ftype="0" fcut="14000" fwet="0" fres="0.5">
            <elvol lspd_numerator="4" lspd_denominator="4" lshp="0" lspd="0.1" hold="0.5" amt="0" lamt="0" rel="0.1" ctlenvamt="0" lpdel="0" latt="0" userwavefile="" lspd_syncmode="0" sustain="0.5" pdel="0" x100="0" att="0" dec="0.5"/>
            <elcut lspd_numerator="4" lspd_denominator="4" lshp="0" lspd="0.1" hold="0.5" amt="0" lamt="0" rel="0.1" ctlenvamt="0" lpdel="0" latt="0" userwavefile="" lspd_syncmode="0" sustain="0.5" pdel="0" x100="0" att="0" dec="0.5"/>
            <elres lspd_numerator="4" lspd_denominator="4" lshp="0" lspd="0.1" hold="0.5" amt="0" lamt="0" rel="0.1" ctlenvamt="0" lpdel="0" latt="0" userwavefile="" lspd_syncmode="0" sustain="0.5" pdel="0" x100="0" att="0" dec="0.5"/>
          </eldata>
          <chordcreator chord="0" chordrange="1" chord-enabled="0"/>
          <arpeggiator arpgate="100" arp-enabled="0" arprepeats="1" arpmode="0" arprange="1" arpcycle="0" arpmiss="0" arpskip="0" arptime_denominator="4" arptime="200" arptime_syncmode="0" arp="0" arptime_numerator="4" arpdir="0"/>
          <midiport inputcontroller="0" inputchannel="0" fixedoutputnote="-1" outputprogram="1" readable="0" fixedinputvelocity="-1" fixedoutputvelocity="-1" writable="0" outputcontroller="0" basevelocity="63" outputchannel="1"/>
          <fxchain enabled="0" numofeffects="0"/>
        </instrumenttrack>
        <midiclip muted="0" steps="16" pos="2304" type="1" name="">
          <note pan="0" key="60" len="168" vol="100" pos="0"/>
          <note pan="0" key="57" len="168" vol="100" pos="0"/>
          <note pan="0" key="52" len="168" vol="100" pos="0"/>
          <note pan="0" key="59" len="168" vol="100" pos="192"/>
          <note pan="0" key="55" len="168" vol="100" pos="192"/>
          <note pan="0" key="50" len="168" vol="100" pos="192"/>
          <note pan="0" key="62" len="168" vol="100" pos="384"/>
          <note pan="0" key="57" len="168" vol="100" pos="384"/>
          <note pan="0" key="53" len="168" vol="100" pos="384"/>
          <note pan="0" key="60" len="168" vol="100" pos="576"/>
          <note pan="0" key="57" len="168" vol="100" pos="576"/>
          <note pan="0" key="52" len="168" vol="100" pos="576"/>
          <note pan="0" key="64" len="168" vol="100" pos="768"/>
          <note pan="0" key="60" len="168" vol="100" pos="768"/>
          <note pan="0" key="57" len="168" vol="100" pos="768"/>
          <note pan="0" key="62" len="168" vol="100" pos="960"/>
          <note pan="0" key="59" len="168" vol="100" pos="960"/>
          <note pan="0" key="57" len="168" vol="100" pos="960"/>
          <note pan="0" key="62" len="168" vol="100" pos="1152"/>
          <note pan="0" key="59" len="168" vol="100" pos="1152"/>
          <note pan="0" key="55" len="168" vol="100" pos="1152"/>
          <note pan="0" key="60" len="84" vol="100" pos="1344"/>
          <note pan="0" key="57" len="84" vol="100" pos="1344"/>
          <note pan="0" key="52" len="84" vol="100" pos="1344"/>
          <note pan="0" key="62" len="84" vol="100" pos="1440"/>
          <note pan="0" key="59" len="84" vol="100" pos="1440"/>
          <note pan="0" key="55" len="84" vol="100" pos="1440"/>
        </midiclip>
        <midiclip muted="0" steps="16" pos="3840" type="1" name="">
          <note pan="0" key="60" len="168" vol="100" pos="0"/>
          <note pan="0" key="57" len="168" vol="100" pos="0"/>
          <note pan="0" key="52" len="168" vol="100" pos="0"/>
          <note pan="0" key="59" len="168" vol="100" pos="192"/>
          <note pan="0" key="55" len="168" vol="100" pos="192"/>
          <note pan="0" key="50" len="168" vol="100" pos="192"/>
          <note pan="0" key="62" len="168" vol="100" pos="384"/>
          <note pan="0" key="57" len="168" vol="100" pos="384"/>
          <note pan="0" key="53" len="168" vol="100" pos="384"/>
          <note pan="0" key="60" len="168" vol="100" pos="576"/>
          <note pan="0" key="57" len="168" vol="100" pos="576"/>
          <note pan="0" key="52" len="168" vol="100" pos="576"/>
          <note pan="0" key="64" len="168" vol="100" pos="768"/>
          <note pan="0" key="60" len="168" vol="100" pos="768"/>
          <note pan="0" key="57" len="168" vol="100" pos="768"/>
          <note pan="0" key="64" len="168" vol="100" pos="960"/>
          <note pan="0" key="59" len="168" vol="100" pos="960"/>
          <note pan="0" key="55" len="168" vol="100" pos="960"/>
          <note pan="0" key="64" len="168" vol="100" pos="1152"/>
          <note pan="0" key="59" len="168" vol="100" pos="1152"/>
          <note pan="0" key="56" len="168" vol="100" pos="1152"/>
          <note pan="0" key="62" len="180" vol="100" pos="1344"/>
          <note pan="0" key="57" len="180" vol="100" pos="1344"/>
          <note pan="0" key="55" len="180" vol="100" pos="1344"/>
        </midiclip>
        <midiclip muted="0" steps="16" pos="5376" type="1" name="">
          <note pan="0" key="60" len="360" vol="100" pos="0"/>
          <note pan="0" key="57" len="360" vol="100" pos="0"/>
          <note pan="0" key="52" len="360" vol="100" pos="0"/>
          <note pan="0" key="59" len="360" vol="100" pos="384"/>
          <note pan="0" key="56" len="360" vol="100" pos="384"/>
          <note pan="0" key="52" len="360" vol="100" pos="384"/>
          <note pan="0" key="60" len="360" vol="100" pos="768"/>
          <note pan="0" key="57" len="360" vol="100" pos="768"/>
          <note pan="0" key="53" len="360" vol="100" pos="768"/>
          <note pan="0" key="64" len="168" vol="100" pos="1152"/>
          <note pan="0" key="59" len="360" vol="100" pos="1152"/>
          <note pan="0" key="56" len="360" vol="100" pos="1152"/>
          <note pan="0" key="62" len="168" vol="100" pos="1344"/>
        </midiclip>
        <midiclip muted="0" steps="16" pos="6912" type="1" name="">
          <note pan="0" key="64" len="360" vol="100" pos="0"/>
          <note pan="0" key="60" len="360" vol="100" pos="0"/>
          <note pan="0" key="57" len="360" vol="100" pos="0"/>
          <note pan="0" key="64" len="360" vol="100" pos="384"/>
          <note pan="0" key="59" len="360" vol="100" pos="384"/>
          <note pan="0" key="56" len="360" vol="100" pos="384"/>
          <note pan="0" key="65" len="360" vol="100" pos="768"/>
          <note pan="0" key="60" len="360" vol="100" pos="768"/>
          <note pan="0" key="57" len="360" vol="100" pos="768"/>
          <note pan="0" key="68" len="168" vol="100" pos="1152"/>
          <note pan="0" key="64" len="360" vol="100" pos="1152"/>
          <note pan="0" key="59" len="360" vol="100" pos="1152"/>
          <note pan="0" key="67" len="168" vol="100" pos="1344"/>
        </midiclip>
        <midiclip muted="0" steps="16" pos="8448" type="1" name="">
          <note pan="0" key="69" len="168" vol="100" pos="0"/>
          <note pan="0" key="64" len="168" vol="100" pos="0"/>
          <note pan="0" key="60" len="168" vol="100" pos="0"/>
          <note pan="0" key="68" len="168" vol="100" pos="168"/>
          <note pan="0" key="64" len="168" vol="100" pos="168"/>
          <note pan="0" key="59" len="168" vol="100" pos="168"/>
          <note pan="0" key="66" len="168" vol="100" pos="384"/>
          <note pan="0" key="60" len="168" vol="100" pos="384"/>
          <note pan="0" key="56" len="168" vol="100" pos="384"/>
          <note pan="0" key="64" len="168" vol="100" pos="552"/>
          <note pan="0" key="61" len="168" vol="100" pos="552"/>
          <note pan="0" key="56" len="168" vol="100" pos="552"/>
          <note pan="0" key="61" len="168" vol="100" pos="768"/>
          <note pan="0" key="57" len="168" vol="100" pos="768"/>
          <note pan="0" key="52" len="168" vol="100" pos="768"/>
          <note pan="0" key="59" len="120" vol="100" pos="936"/>
          <note pan="0" key="56" len="168" vol="100" pos="936"/>
          <note pan="0" key="52" len="168" vol="100" pos="936"/>
          <note pan="0" key="64" len="48" vol="100" pos="1056"/>
          <note pan="0" key="63" len="168" vol="100" pos="1152"/>
          <note pan="0" key="59" len="168" vol="100" pos="1152"/>
          <note pan="0" key="54" len="168" vol="100" pos="1152"/>
          <note pan="0" key="62" len="168" vol="100" pos="1320"/>
          <note pan="0" key="59" len="168" vol="100" pos="1320"/>
          <note pan="0" key="55" len="168" vol="100" pos="1320"/>
        </midiclip>
        <midiclip muted="0" steps="16" pos="11712" type="1" name="">
          <note pan="0" key="60" len="168" vol="100" pos="0"/>
          <note pan="0" key="57" len="168" vol="100" pos="0"/>
          <note pan="0" key="52" len="168" vol="100" pos="0"/>
          <note pan="0" key="59" len="168" vol="100" pos="192"/>
          <note pan="0" key="55" len="168" vol="100" pos="192"/>
          <note pan="0" key="50" len="168" vol="100" pos="192"/>
          <note pan="0" key="62" len="168" vol="100" pos="384"/>
          <note pan="0" key="57" len="168" vol="100" pos="384"/>
          <note pan="0" key="53" len="168" vol="100" pos="384"/>
          <note pan="0" key="60" len="168" vol="100" pos="576"/>
          <note pan="0" key="57" len="168" vol="100" pos="576"/>
          <note pan="0" key="52" len="168" vol="100" pos="576"/>
          <note pan="0" key="64" len="168" vol="100" pos="768"/>
          <note pan="0" key="60" len="168" vol="100" pos="768"/>
          <note pan="0" key="57" len="168" vol="100" pos="768"/>
          <note pan="0" key="64" len="168" vol="100" pos="960"/>
          <note pan="0" key="59" len="168" vol="100" pos="960"/>
          <note pan="0" key="55" len="168" vol="100" pos="960"/>
          <note pan="0" key="64" len="168" vol="100" pos="1152"/>
          <note pan="0" key="59" len="168" vol="100" pos="1152"/>
          <note pan="0" key="56" len="168" vol="100" pos="1152"/>
          <note pan="0" key="62" len="180" vol="100" pos="1344"/>
          <note pan="0" key="57" len="180" vol="100" pos="1344"/>
          <note pan="0" key="55" len="180" vol="100" pos="1344"/>
        </midiclip>
        <midiclip muted="0" steps="16" pos="13248" type="1" name="">
          <note pan="0" key="60" len="1536" vol="100" pos="0"/>
          <note pan="0" key="57" len="1536" vol="100" pos="0"/>
          <note pan="0" key="52" len="1536" vol="100" pos="0"/>
        </midiclip>
        <midiclip muted="0" steps="16" pos="10176" type="1" name="">
          <note pan="0" key="60" len="168" vol="100" pos="0"/>
          <note pan="0" key="57" len="168" vol="100" pos="0"/>
          <note pan="0" key="52" len="168" vol="100" pos="0"/>
          <note pan="0" key="59" len="168" vol="100" pos="192"/>
          <note pan="0" key="55" len="168" vol="100" pos="192"/>
          <note pan="0" key="50" len="168" vol="100" pos="192"/>
          <note pan="0" key="62" len="168" vol="100" pos="384"/>
          <note pan="0" key="57" len="168" vol="100" pos="384"/>
          <note pan="0" key="53" len="168" vol="100" pos="384"/>
          <note pan="0" key="60" len="168" vol="100" pos="576"/>
          <note pan="0" key="57" len="168" vol="100" pos="576"/>
          <note pan="0" key="52" len="168" vol="100" pos="576"/>
          <note pan="0" key="64" len="168" vol="100" pos="768"/>
          <note pan="0" key="60" len="168" vol="100" pos="768"/>
          <note pan="0" key="57" len="168" vol="100" pos="768"/>
          <note pan="0" key="62" len="168" vol="100" pos="960"/>
          <note pan="0" key="59" len="168" vol="100" pos="960"/>
          <note pan="0" key="57" len="168" vol="100" pos="960"/>
          <note pan="0" key="62" len="168" vol="100" pos="1152"/>
          <note pan="0" key="59" len="168" vol="100" pos="1152"/>
          <note pan="0" key="55" len="168" vol="100" pos="1152"/>
          <note pan="0" key="64" len="84" vol="100" pos="1344"/>
          <note pan="0" key="60" len="84" vol="100" pos="1344"/>
          <note pan="0" key="57" len="84" vol="100" pos="1344"/>
          <note pan="0" key="62" len="84" vol="100" pos="1440"/>
          <note pan="0" key="59" len="84" vol="100" pos="1440"/>
          <note pan="0" key="55" len="84" vol="100" pos="1440"/>
        </midiclip>
      </track>
      <track solo="0" muted="0" mutedBeforeSolo="0" type="0" name="Drums>Soft">
        <instrumenttrack lastkey="127" usemasterpitch="0" pan="0" pitchrange="1" basenote="69" enabled="0" firstkey="0" keymap="0" enablecc="0" vol="100" range_import="1" mixch="13" scale="0" pitch="0">
          <midicontrollers cc66="0" cc52="0" cc64="0" cc28="0" cc48="0" cc7="0" cc96="0" cc124="0" cc53="0" cc54="0" cc9="0" cc8="0" cc79="0" cc85="0" cc18="0" cc81="0" cc43="0" cc123="0" cc46="0" cc95="0" cc111="0" cc1="0" cc59="0" cc115="0" cc4="0" cc62="0" cc110="0" cc0="0" cc109="0" cc116="0" cc51="0" cc44="0" cc34="0" cc71="0" cc45="0" cc88="0" cc122="0" cc92="0" cc127="0" cc16="0" cc73="0" cc100="0" cc55="0" cc105="0" cc82="0" cc29="0" cc13="0" cc112="0" cc42="0" cc38="0" cc25="0" cc14="0" cc98="0" cc119="0" cc126="0" cc114="0" cc76="0" cc101="0" cc47="0" cc80="0" cc68="0" cc90="0" cc121="0" cc30="0" cc19="0" cc36="0" cc31="0" cc24="0" cc41="0" cc83="0" cc60="0" cc108="0" cc113="0" cc56="0" cc94="0" cc67="0" cc63="0" cc3="0" cc6="0" cc103="0" cc49="0" cc11="0" cc10="0" cc102="0" cc57="0" cc77="0" cc86="0" cc93="0" cc120="0" cc72="0" cc26="0" cc21="0" cc35="0" cc74="0" cc27="0" cc99="0" cc33="0" cc106="0" cc125="0" cc5="0" cc17="0" cc84="0" cc107="0" cc58="0" cc37="0" cc15="0" cc104="0" cc87="0" cc20="0" cc2="0" cc65="0" cc78="0" cc91="0" cc50="0" cc22="0" cc39="0" cc97="0" cc40="0" cc23="0" cc32="0" cc75="0" cc12="0" cc70="0" cc61="0" cc69="0" cc89="0" cc118="0" cc117="0"/>
          <instrument name="sf2player">
            <sf2player reverbRoomSize="0.2" reverbLevel="0.9" chorusOn="0" reverbWidth="0.5" reverbDamping="0" gain="0.8" chorusDepth="8" chorusSpeed="0.3" patch="0" reverbOn="0" chorusNum="3" chorusLevel="2" src="usersoundfont:drums_ken_ardency_mono.sf2" bank="128">
              <key/>
            </sf2player>
          </instrument>
          <eldata ftype="0" fcut="14000" fwet="0" fres="0.5">
            <elvol lspd_numerator="4" lspd_denominator="4" lshp="0" lspd="0.1" hold="0.5" amt="0" lamt="0" rel="0.1" ctlenvamt="0" lpdel="0" latt="0" userwavefile="" lspd_syncmode="0" sustain="0.5" pdel="0" x100="0" att="0" dec="0.5"/>
            <elcut lspd_numerator="4" lspd_denominator="4" lshp="0" lspd="0.1" hold="0.5" amt="0" lamt="0" rel="0.1" ctlenvamt="0" lpdel="0" latt="0" userwavefile="" lspd_syncmode="0" sustain="0.5" pdel="0" x100="0" att="0" dec="0.5"/>
            <elres lspd_numerator="4" lspd_denominator="4" lshp="0" lspd="0.1" hold="0.5" amt="0" lamt="0" rel="0.1" ctlenvamt="0" lpdel="0" latt="0" userwavefile="" lspd_syncmode="0" sustain="0.5" pdel="0" x100="0" att="0" dec="0.5"/>
          </eldata>
          <chordcreator chord="0" chordrange="1" chord-enabled="0"/>
          <arpeggiator arpgate="100" arp-enabled="0" arprepeats="1" arpmode="0" arprange="1" arpcycle="0" arpmiss="0" arpskip="0" arptime_denominator="4" arptime="200" arptime_syncmode="0" arp="0" arptime_numerator="4" arpdir="0"/>
          <midiport inputcontroller="0" inputchannel="0" fixedoutputnote="-1" outputprogram="1" readable="0" fixedinputvelocity="-1" fixedoutputvelocity="-1" writable="0" outputcontroller="0" basevelocity="63" outputchannel="1"/>
          <fxchain enabled="0" numofeffects="0"/>
        </instrumenttrack>
        <midiclip muted="0" steps="16" pos="5376" type="1" name="">
          <note pan="0" key="35" len="12" vol="100" pos="0"/>
          <note pan="0" key="44" len="12" vol="100" pos="24"/>
          <note pan="0" key="35" len="12" vol="100" pos="72"/>
          <note pan="0" key="35" len="12" vol="100" pos="96"/>
          <note pan="0" key="44" len="12" vol="100" pos="120"/>
          <note pan="0" key="35" len="12" vol="100" pos="144"/>
        </midiclip>
        <midiclip muted="0" steps="16" pos="5568" type="1" name="">
          <note pan="0" key="35" len="12" vol="100" pos="0"/>
          <note pan="0" key="44" len="12" vol="100" pos="24"/>
          <note pan="0" key="35" len="12" vol="100" pos="72"/>
          <note pan="0" key="35" len="12" vol="100" pos="96"/>
          <note pan="0" key="44" len="12" vol="100" pos="120"/>
          <note pan="0" key="48" len="12" vol="100" pos="144"/>
          <note pan="0" key="35" len="12" vol="100" pos="144"/>
          <note pan="0" key="47" len="12" vol="100" pos="180"/>
        </midiclip>
        <midiclip muted="0" steps="16" pos="5760" type="1" name="">
          <note pan="0" key="35" len="12" vol="100" pos="0"/>
          <note pan="0" key="44" len="12" vol="100" pos="24"/>
          <note pan="0" key="35" len="12" vol="100" pos="72"/>
          <note pan="0" key="35" len="12" vol="100" pos="96"/>
          <note pan="0" key="44" len="12" vol="100" pos="120"/>
          <note pan="0" key="35" len="12" vol="100" pos="144"/>
        </midiclip>
        <midiclip muted="0" steps="16" pos="5952" type="1" name="">
          <note pan="0" key="35" len="12" vol="100" pos="0"/>
          <note pan="0" key="44" len="12" vol="100" pos="24"/>
          <note pan="0" key="35" len="12" vol="100" pos="72"/>
          <note pan="0" key="35" len="12" vol="100" pos="96"/>
          <note pan="0" key="44" len="12" vol="100" pos="120"/>
          <note pan="0" key="39" len="24" vol="100" pos="144"/>
          <note pan="0" key="35" len="12" vol="100" pos="144"/>
          <note pan="0" key="40" len="12" vol="100" pos="168"/>
        </midiclip>
        <midiclip muted="0" steps="16" pos="6144" type="1" name="">
          <note pan="0" key="35" len="12" vol="100" pos="0"/>
          <note pan="0" key="44" len="12" vol="100" pos="24"/>
          <note pan="0" key="35" len="12" vol="100" pos="72"/>
          <note pan="0" key="35" len="12" vol="100" pos="96"/>
          <note pan="0" key="44" len="12" vol="100" pos="120"/>
          <note pan="0" key="35" len="12" vol="100" pos="144"/>
        </midiclip>
        <midiclip muted="0" steps="16" pos="6336" type="1" name="">
          <note pan="0" key="35" len="12" vol="100" pos="0"/>
          <note pan="0" key="44" len="12" vol="100" pos="24"/>
          <note pan="0" key="35" len="12" vol="100" pos="72"/>
          <note pan="0" key="35" len="12" vol="100" pos="96"/>
          <note pan="0" key="44" len="12" vol="100" pos="120"/>
          <note pan="0" key="48" len="12" vol="100" pos="144"/>
          <note pan="0" key="35" len="12" vol="100" pos="144"/>
          <note pan="0" key="47" len="12" vol="100" pos="180"/>
        </midiclip>
        <midiclip muted="0" steps="16" pos="6528" type="1" name="">
          <note pan="0" key="35" len="12" vol="100" pos="0"/>
          <note pan="0" key="44" len="12" vol="100" pos="24"/>
          <note pan="0" key="35" len="12" vol="100" pos="72"/>
          <note pan="0" key="35" len="12" vol="100" pos="96"/>
          <note pan="0" key="44" len="12" vol="100" pos="120"/>
          <note pan="0" key="35" len="12" vol="100" pos="144"/>
        </midiclip>
        <midiclip muted="0" steps="16" pos="6720" type="1" name="">
          <note pan="0" key="35" len="12" vol="100" pos="0"/>
          <note pan="0" key="44" len="12" vol="100" pos="24"/>
          <note pan="0" key="35" len="12" vol="100" pos="72"/>
          <note pan="0" key="35" len="12" vol="100" pos="96"/>
          <note pan="0" key="44" len="12" vol="100" pos="120"/>
          <note pan="0" key="39" len="24" vol="100" pos="144"/>
          <note pan="0" key="35" len="12" vol="100" pos="144"/>
          <note pan="0" key="40" len="12" vol="100" pos="168"/>
        </midiclip>
        <midiclip muted="0" steps="16" pos="6912" type="1" name="">
          <note pan="0" key="35" len="12" vol="100" pos="0"/>
          <note pan="0" key="44" len="12" vol="100" pos="24"/>
          <note pan="0" key="35" len="12" vol="100" pos="72"/>
          <note pan="0" key="35" len="12" vol="100" pos="96"/>
          <note pan="0" key="44" len="12" vol="100" pos="120"/>
          <note pan="0" key="35" len="12" vol="100" pos="144"/>
        </midiclip>
        <midiclip muted="0" steps="16" pos="7104" type="1" name="">
          <note pan="0" key="35" len="12" vol="100" pos="0"/>
          <note pan="0" key="44" len="12" vol="100" pos="24"/>
          <note pan="0" key="35" len="12" vol="100" pos="72"/>
          <note pan="0" key="35" len="12" vol="100" pos="96"/>
          <note pan="0" key="44" len="12" vol="100" pos="120"/>
          <note pan="0" key="48" len="12" vol="100" pos="144"/>
          <note pan="0" key="35" len="12" vol="100" pos="144"/>
          <note pan="0" key="47" len="12" vol="100" pos="180"/>
        </midiclip>
        <midiclip muted="0" steps="16" pos="7296" type="1" name="">
          <note pan="0" key="35" len="12" vol="100" pos="0"/>
          <note pan="0" key="44" len="12" vol="100" pos="24"/>
          <note pan="0" key="35" len="12" vol="100" pos="72"/>
          <note pan="0" key="35" len="12" vol="100" pos="96"/>
          <note pan="0" key="44" len="12" vol="100" pos="120"/>
          <note pan="0" key="35" len="12" vol="100" pos="144"/>
        </midiclip>
        <midiclip muted="0" steps="16" pos="7488" type="1" name="">
          <note pan="0" key="35" len="12" vol="100" pos="0"/>
          <note pan="0" key="44" len="12" vol="100" pos="24"/>
          <note pan="0" key="35" len="12" vol="100" pos="72"/>
          <note pan="0" key="35" len="12" vol="100" pos="96"/>
          <note pan="0" key="44" len="12" vol="100" pos="120"/>
          <note pan="0" key="39" len="24" vol="100" pos="144"/>
          <note pan="0" key="35" len="12" vol="100" pos="144"/>
          <note pan="0" key="40" len="12" vol="100" pos="168"/>
        </midiclip>
        <midiclip muted="0" steps="16" pos="7680" type="1" name="">
          <note pan="0" key="35" len="12" vol="100" pos="0"/>
          <note pan="0" key="44" len="12" vol="100" pos="24"/>
          <note pan="0" key="35" len="12" vol="100" pos="72"/>
          <note pan="0" key="35" len="12" vol="100" pos="96"/>
          <note pan="0" key="44" len="12" vol="100" pos="120"/>
          <note pan="0" key="35" len="12" vol="100" pos="144"/>
        </midiclip>
        <midiclip muted="0" steps="16" pos="7872" type="1" name="">
          <note pan="0" key="35" len="12" vol="100" pos="0"/>
          <note pan="0" key="44" len="12" vol="100" pos="24"/>
          <note pan="0" key="35" len="12" vol="100" pos="72"/>
          <note pan="0" key="35" len="12" vol="100" pos="96"/>
          <note pan="0" key="44" len="12" vol="100" pos="120"/>
          <note pan="0" key="48" len="12" vol="100" pos="144"/>
          <note pan="0" key="35" len="12" vol="100" pos="144"/>
          <note pan="0" key="47" len="12" vol="100" pos="180"/>
        </midiclip>
        <midiclip muted="0" steps="16" pos="8064" type="1" name="">
          <note pan="0" key="35" len="12" vol="100" pos="0"/>
          <note pan="0" key="44" len="12" vol="100" pos="24"/>
          <note pan="0" key="35" len="12" vol="100" pos="72"/>
          <note pan="0" key="35" len="12" vol="100" pos="96"/>
          <note pan="0" key="44" len="12" vol="100" pos="120"/>
          <note pan="0" key="35" len="12" vol="100" pos="144"/>
        </midiclip>
        <midiclip muted="0" steps="16" pos="8256" type="1" name="">
          <note pan="0" key="35" len="12" vol="100" pos="0"/>
          <note pan="0" key="44" len="12" vol="100" pos="24"/>
          <note pan="0" key="35" len="12" vol="100" pos="72"/>
          <note pan="0" key="35" len="12" vol="100" pos="96"/>
          <note pan="0" key="44" len="12" vol="100" pos="120"/>
          <note pan="0" key="39" len="24" vol="100" pos="144"/>
          <note pan="0" key="35" len="12" vol="100" pos="144"/>
          <note pan="0" key="40" len="12" vol="100" pos="168"/>
        </midiclip>
        <midiclip muted="0" steps="16" pos="1920" type="1" name="">
          <note pan="0" key="44" len="12" vol="100" pos="0"/>
          <note pan="0" key="44" len="12" vol="100" pos="96"/>
        </midiclip>
        <midiclip muted="0" steps="16" pos="2112" type="1" name="">
          <note pan="0" key="44" len="12" vol="100" pos="0"/>
          <note pan="0" key="44" len="12" vol="100" pos="48"/>
          <note pan="0" key="44" len="12" vol="100" pos="96"/>
          <note pan="0" key="44" len="12" vol="100" pos="144"/>
          <note pan="0" key="46" len="12" vol="100" pos="168"/>
        </midiclip>
        <midiclip muted="0" steps="16" pos="5184" type="1" name="">
          <note pan="0" key="44" len="12" vol="100" pos="24"/>
          <note pan="0" key="52" len="12" vol="100" pos="48"/>
          <note pan="0" key="44" len="12" vol="100" pos="120"/>
        </midiclip>
        <midiclip muted="0" steps="16" pos="11520" type="1" name="">
          <note pan="0" key="52" len="12" vol="100" pos="0"/>
          <note pan="0" key="43" len="12" vol="100" pos="0"/>
          <note pan="0" key="36" len="12" vol="100" pos="0"/>
          <note pan="0" key="56" len="12" vol="100" pos="36"/>
          <note pan="0" key="48" len="12" vol="100" pos="36"/>
          <note pan="0" key="36" len="12" vol="100" pos="36"/>
          <note pan="0" key="49" len="12" vol="100" pos="72"/>
          <note pan="0" key="41" len="12" vol="100" pos="72"/>
          <note pan="0" key="36" len="12" vol="100" pos="72"/>
          <note pan="0" key="53" len="12" vol="100" pos="108"/>
          <note pan="0" key="43" len="12" vol="100" pos="108"/>
          <note pan="0" key="36" len="12" vol="100" pos="108"/>
          <note pan="0" key="39" len="12" vol="100" pos="120"/>
          <note pan="0" key="52" len="12" vol="100" pos="144"/>
          <note pan="0" key="38" len="12" vol="100" pos="144"/>
          <note pan="0" key="36" len="12" vol="100" pos="144"/>
        </midiclip>
        <midiclip muted="0" steps="16" pos="9984" type="1" name="">
          <note pan="0" key="52" len="12" vol="100" pos="0"/>
          <note pan="0" key="43" len="12" vol="100" pos="0"/>
          <note pan="0" key="36" len="12" vol="100" pos="0"/>
          <note pan="0" key="45" len="12" vol="100" pos="24"/>
          <note pan="0" key="56" len="12" vol="100" pos="36"/>
          <note pan="0" key="48" len="12" vol="100" pos="36"/>
          <note pan="0" key="36" len="12" vol="100" pos="36"/>
          <note pan="0" key="49" len="12" vol="100" pos="72"/>
          <note pan="0" key="41" len="12" vol="100" pos="72"/>
          <note pan="0" key="36" len="12" vol="100" pos="72"/>
          <note pan="0" key="45" len="12" vol="100" pos="96"/>
          <note pan="0" key="53" len="12" vol="100" pos="108"/>
          <note pan="0" key="43" len="12" vol="100" pos="108"/>
          <note pan="0" key="36" len="12" vol="100" pos="108"/>
          <note pan="0" key="39" len="12" vol="100" pos="120"/>
          <note pan="0" key="52" len="12" vol="100" pos="144"/>
          <note pan="0" key="45" len="12" vol="100" pos="144"/>
          <note pan="0" key="38" len="12" vol="100" pos="144"/>
          <note pan="0" key="36" len="12" vol="100" pos="144"/>
        </midiclip>
        <midiclip muted="0" steps="16" pos="9792" type="1" name="">
          <note pan="0" key="36" len="12" vol="100" pos="168"/>
          <note pan="0" key="40" len="12" vol="100" pos="180"/>
          <note pan="0" key="36" len="12" vol="100" pos="180"/>
        </midiclip>
        <midiclip muted="0" steps="16" pos="13056" type="1" name="">
          <note pan="0" key="44" len="12" vol="100" pos="24"/>
          <note pan="0" key="52" len="12" vol="100" pos="48"/>
          <note pan="0" key="44" len="12" vol="100" pos="120"/>
        </midiclip>
      </track>
      <track solo="0" muted="0" mutedBeforeSolo="0" type="0" name="Drums>Hard">
        <instrumenttrack lastkey="127" usemasterpitch="0" pan="0" pitchrange="1" basenote="69" enabled="0" firstkey="0" keymap="0" enablecc="0" vol="100" range_import="1" mixch="14" scale="0" pitch="0">
          <midicontrollers cc66="0" cc52="0" cc64="0" cc28="0" cc48="0" cc7="0" cc96="0" cc124="0" cc53="0" cc54="0" cc9="0" cc8="0" cc79="0" cc85="0" cc18="0" cc81="0" cc43="0" cc123="0" cc46="0" cc95="0" cc111="0" cc1="0" cc59="0" cc115="0" cc4="0" cc62="0" cc110="0" cc0="0" cc109="0" cc116="0" cc51="0" cc44="0" cc34="0" cc71="0" cc45="0" cc88="0" cc122="0" cc92="0" cc127="0" cc16="0" cc73="0" cc100="0" cc55="0" cc105="0" cc82="0" cc29="0" cc13="0" cc112="0" cc42="0" cc38="0" cc25="0" cc14="0" cc98="0" cc119="0" cc126="0" cc114="0" cc76="0" cc101="0" cc47="0" cc80="0" cc68="0" cc90="0" cc121="0" cc30="0" cc19="0" cc36="0" cc31="0" cc24="0" cc41="0" cc83="0" cc60="0" cc108="0" cc113="0" cc56="0" cc94="0" cc67="0" cc63="0" cc3="0" cc6="0" cc103="0" cc49="0" cc11="0" cc10="0" cc102="0" cc57="0" cc77="0" cc86="0" cc93="0" cc120="0" cc72="0" cc26="0" cc21="0" cc35="0" cc74="0" cc27="0" cc99="0" cc33="0" cc106="0" cc125="0" cc5="0" cc17="0" cc84="0" cc107="0" cc58="0" cc37="0" cc15="0" cc104="0" cc87="0" cc20="0" cc2="0" cc65="0" cc78="0" cc91="0" cc50="0" cc22="0" cc39="0" cc97="0" cc40="0" cc23="0" cc32="0" cc75="0" cc12="0" cc70="0" cc61="0" cc69="0" cc89="0" cc118="0" cc117="0"/>
          <instrument name="sf2player">
            <sf2player reverbRoomSize="0.2" reverbLevel="0.9" chorusOn="0" reverbWidth="0.5" reverbDamping="0" gain="0.2" chorusDepth="8" chorusSpeed="0.3" patch="0" reverbOn="0" chorusNum="3" chorusLevel="2" src="usersoundfont:drums_ken_ardency_mono.sf2" bank="128">
              <key/>
            </sf2player>
          </instrument>
          <eldata ftype="0" fcut="14000" fwet="0" fres="0.5">
            <elvol lspd_numerator="4" lspd_denominator="4" lshp="0" lspd="0.1" hold="0.5" amt="0" lamt="0" rel="0.1" ctlenvamt="0" lpdel="0" latt="0" userwavefile="" lspd_syncmode="0" sustain="0.5" pdel="0" x100="0" att="0" dec="0.5"/>
            <elcut lspd_numerator="4" lspd_denominator="4" lshp="0" lspd="0.1" hold="0.5" amt="0" lamt="0" rel="0.1" ctlenvamt="0" lpdel="0" latt="0" userwavefile="" lspd_syncmode="0" sustain="0.5" pdel="0" x100="0" att="0" dec="0.5"/>
            <elres lspd_numerator="4" lspd_denominator="4" lshp="0" lspd="0.1" hold="0.5" amt="0" lamt="0" rel="0.1" ctlenvamt="0" lpdel="0" latt="0" userwavefile="" lspd_syncmode="0" sustain="0.5" pdel="0" x100="0" att="0" dec="0.5"/>
          </eldata>
          <chordcreator chord="0" chordrange="1" chord-enabled="0"/>
          <arpeggiator arpgate="100" arp-enabled="0" arprepeats="1" arpmode="0" arprange="1" arpcycle="0" arpmiss="0" arpskip="0" arptime_denominator="4" arptime="200" arptime_syncmode="0" arp="0" arptime_numerator="4" arpdir="0"/>
          <midiport inputcontroller="0" inputchannel="0" fixedoutputnote="-1" outputprogram="1" readable="1" fixedinputvelocity="-1" fixedoutputvelocity="-1" writable="0" inports="" outputcontroller="0" basevelocity="127" outputchannel="1"/>
          <fxchain enabled="0" numofeffects="0"/>
        </instrumenttrack>
        <midiclip muted="0" steps="16" pos="2304" type="1" name="">
          <note pan="0" key="35" len="12" vol="100" pos="0"/>
          <note pan="0" key="44" len="12" vol="100" pos="24"/>
          <note pan="0" key="40" len="12" vol="100" pos="48"/>
          <note pan="0" key="35" len="12" vol="100" pos="48"/>
          <note pan="0" key="44" len="12" vol="100" pos="72"/>
          <note pan="0" key="35" len="12" vol="100" pos="96"/>
          <note pan="0" key="44" len="12" vol="100" pos="120"/>
          <note pan="0" key="40" len="12" vol="100" pos="144"/>
          <note pan="0" key="35" len="12" vol="100" pos="144"/>
          <note pan="0" key="44" len="12" vol="100" pos="168"/>
        </midiclip>
        <midiclip muted="0" steps="16" pos="2496" type="1" name="">
          <note pan="0" key="35" len="12" vol="100" pos="0"/>
          <note pan="0" key="44" len="12" vol="100" pos="24"/>
          <note pan="0" key="40" len="12" vol="100" pos="48"/>
          <note pan="0" key="35" len="12" vol="100" pos="48"/>
          <note pan="0" key="44" len="12" vol="100" pos="72"/>
          <note pan="0" key="35" len="12" vol="100" pos="96"/>
          <note pan="0" key="44" len="12" vol="100" pos="120"/>
          <note pan="0" key="40" len="12" vol="100" pos="144"/>
          <note pan="0" key="35" len="12" vol="100" pos="144"/>
          <note pan="0" key="44" len="12" vol="100" pos="168"/>
        </midiclip>
        <midiclip muted="0" steps="16" pos="2688" type="1" name="">
          <note pan="0" key="35" len="12" vol="100" pos="0"/>
          <note pan="0" key="44" len="12" vol="100" pos="24"/>
          <note pan="0" key="40" len="12" vol="100" pos="48"/>
          <note pan="0" key="35" len="12" vol="100" pos="48"/>
          <note pan="0" key="44" len="12" vol="100" pos="72"/>
          <note pan="0" key="35" len="12" vol="100" pos="96"/>
          <note pan="0" key="44" len="12" vol="100" pos="120"/>
          <note pan="0" key="40" len="12" vol="100" pos="144"/>
          <note pan="0" key="35" len="12" vol="100" pos="144"/>
          <note pan="0" key="44" len="12" vol="100" pos="168"/>
        </midiclip>
        <midiclip muted="0" steps="16" pos="2880" type="1" name="">
          <note pan="0" key="35" len="12" vol="100" pos="0"/>
          <note pan="0" key="44" len="12" vol="100" pos="24"/>
          <note pan="0" key="40" len="12" vol="100" pos="48"/>
          <note pan="0" key="35" len="12" vol="100" pos="48"/>
          <note pan="0" key="44" len="12" vol="100" pos="72"/>
          <note pan="0" key="35" len="12" vol="100" pos="96"/>
          <note pan="0" key="50" len="12" vol="100" pos="120"/>
          <note pan="0" key="44" len="12" vol="100" pos="120"/>
          <note pan="0" key="50" len="12" vol="100" pos="132"/>
          <note pan="0" key="47" len="12" vol="100" pos="144"/>
          <note pan="0" key="40" len="12" vol="100" pos="144"/>
          <note pan="0" key="35" len="12" vol="100" pos="144"/>
          <note pan="0" key="47" len="12" vol="100" pos="156"/>
          <note pan="0" key="43" len="12" vol="100" pos="168"/>
          <note pan="0" key="41" len="12" vol="100" pos="168"/>
        </midiclip>
        <midiclip muted="0" steps="16" pos="3072" type="1" name="">
          <note pan="0" key="49" len="12" vol="100" pos="0"/>
          <note pan="0" key="43" len="12" vol="100" pos="0"/>
          <note pan="0" key="35" len="12" vol="100" pos="0"/>
          <note pan="0" key="47" len="12" vol="100" pos="36"/>
          <note pan="0" key="35" len="12" vol="100" pos="48"/>
          <note pan="0" key="44" len="12" vol="100" pos="72"/>
          <note pan="0" key="40" len="12" vol="100" pos="72"/>
          <note pan="0" key="35" len="12" vol="100" pos="96"/>
          <note pan="0" key="35" len="12" vol="100" pos="108"/>
          <note pan="0" key="45" len="12" vol="100" pos="120"/>
          <note pan="0" key="43" len="12" vol="100" pos="144"/>
          <note pan="0" key="41" len="12" vol="100" pos="168"/>
          <note pan="0" key="52" len="12" vol="100" pos="192"/>
          <note pan="0" key="44" len="12" vol="100" pos="192"/>
          <note pan="0" key="43" len="12" vol="100" pos="192"/>
          <note pan="0" key="35" len="12" vol="100" pos="192"/>
          <note pan="0" key="35" len="12" vol="100" pos="216"/>
          <note pan="0" key="50" len="12" vol="100" pos="228"/>
          <note pan="0" key="35" len="12" vol="100" pos="228"/>
          <note pan="0" key="39" len="12" vol="100" pos="252"/>
          <note pan="0" key="44" len="12" vol="100" pos="264"/>
          <note pan="0" key="40" len="12" vol="100" pos="264"/>
          <note pan="0" key="44" len="12" vol="100" pos="276"/>
          <note pan="0" key="48" len="12" vol="100" pos="288"/>
          <note pan="0" key="35" len="12" vol="100" pos="312"/>
          <note pan="0" key="35" len="12" vol="100" pos="324"/>
          <note pan="0" key="43" len="12" vol="100" pos="336"/>
          <note pan="0" key="43" len="12" vol="100" pos="348"/>
          <note pan="0" key="47" len="12" vol="100" pos="360"/>
          <note pan="0" key="54" len="12" vol="100" pos="384"/>
          <note pan="0" key="43" len="12" vol="100" pos="384"/>
          <note pan="0" key="42" len="12" vol="100" pos="384"/>
          <note pan="0" key="35" len="12" vol="100" pos="384"/>
          <note pan="0" key="46" len="12" vol="100" pos="420"/>
          <note pan="0" key="44" len="12" vol="100" pos="432"/>
          <note pan="0" key="46" len="12" vol="100" pos="456"/>
          <note pan="0" key="35" len="12" vol="100" pos="456"/>
          <note pan="0" key="44" len="12" vol="100" pos="468"/>
          <note pan="0" key="35" len="12" vol="100" pos="480"/>
          <note pan="0" key="46" len="12" vol="100" pos="492"/>
          <note pan="0" key="44" len="12" vol="100" pos="504"/>
          <note pan="0" key="35" len="12" vol="100" pos="516"/>
          <note pan="0" key="44" len="12" vol="100" pos="528"/>
          <note pan="0" key="44" len="12" vol="100" pos="552"/>
          <note pan="0" key="35" len="12" vol="100" pos="552"/>
          <note pan="0" key="35" len="12" vol="100" pos="576"/>
          <note pan="0" key="35" len="12" vol="100" pos="624"/>
          <note pan="0" key="35" len="12" vol="100" pos="672"/>
          <note pan="0" key="35" len="12" vol="100" pos="720"/>
          <note pan="0" key="35" len="12" vol="100" pos="744"/>
        </midiclip>
        <midiclip muted="0" steps="16" pos="3840" type="1" name="">
          <note pan="0" key="35" len="12" vol="100" pos="0"/>
          <note pan="0" key="44" len="12" vol="100" pos="24"/>
          <note pan="0" key="40" len="12" vol="100" pos="48"/>
          <note pan="0" key="35" len="12" vol="100" pos="48"/>
          <note pan="0" key="44" len="12" vol="100" pos="72"/>
          <note pan="0" key="35" len="12" vol="100" pos="96"/>
          <note pan="0" key="44" len="12" vol="100" pos="120"/>
          <note pan="0" key="40" len="12" vol="100" pos="144"/>
          <note pan="0" key="35" len="12" vol="100" pos="144"/>
          <note pan="0" key="44" len="12" vol="100" pos="168"/>
        </midiclip>
        <midiclip muted="0" steps="16" pos="4032" type="1" name="">
          <note pan="0" key="35" len="12" vol="100" pos="0"/>
          <note pan="0" key="44" len="12" vol="100" pos="24"/>
          <note pan="0" key="40" len="12" vol="100" pos="48"/>
          <note pan="0" key="35" len="12" vol="100" pos="48"/>
          <note pan="0" key="44" len="12" vol="100" pos="72"/>
          <note pan="0" key="35" len="12" vol="100" pos="96"/>
          <note pan="0" key="44" len="12" vol="100" pos="120"/>
          <note pan="0" key="40" len="12" vol="100" pos="144"/>
          <note pan="0" key="35" len="12" vol="100" pos="144"/>
          <note pan="0" key="44" len="12" vol="100" pos="168"/>
        </midiclip>
        <midiclip muted="0" steps="16" pos="4224" type="1" name="">
          <note pan="0" key="35" len="12" vol="100" pos="0"/>
          <note pan="0" key="44" len="12" vol="100" pos="24"/>
          <note pan="0" key="40" len="12" vol="100" pos="48"/>
          <note pan="0" key="35" len="12" vol="100" pos="48"/>
          <note pan="0" key="44" len="12" vol="100" pos="72"/>
          <note pan="0" key="35" len="12" vol="100" pos="96"/>
          <note pan="0" key="44" len="12" vol="100" pos="120"/>
          <note pan="0" key="40" len="12" vol="100" pos="144"/>
          <note pan="0" key="35" len="12" vol="100" pos="144"/>
          <note pan="0" key="44" len="12" vol="100" pos="168"/>
        </midiclip>
        <midiclip muted="0" steps="16" pos="4416" type="1" name="">
          <note pan="0" key="35" len="12" vol="100" pos="0"/>
          <note pan="0" key="44" len="12" vol="100" pos="24"/>
          <note pan="0" key="40" len="12" vol="100" pos="48"/>
          <note pan="0" key="35" len="12" vol="100" pos="48"/>
          <note pan="0" key="44" len="12" vol="100" pos="72"/>
          <note pan="0" key="35" len="12" vol="100" pos="96"/>
          <note pan="0" key="50" len="12" vol="100" pos="120"/>
          <note pan="0" key="44" len="12" vol="100" pos="120"/>
          <note pan="0" key="50" len="12" vol="100" pos="132"/>
          <note pan="0" key="47" len="12" vol="100" pos="144"/>
          <note pan="0" key="40" len="12" vol="100" pos="144"/>
          <note pan="0" key="35" len="12" vol="100" pos="144"/>
          <note pan="0" key="47" len="12" vol="100" pos="156"/>
          <note pan="0" key="43" len="12" vol="100" pos="168"/>
          <note pan="0" key="41" len="12" vol="100" pos="168"/>
        </midiclip>
        <midiclip muted="0" steps="16" pos="4608" type="1" name="">
          <note pan="0" key="49" len="12" vol="100" pos="0"/>
          <note pan="0" key="43" len="12" vol="100" pos="0"/>
          <note pan="0" key="35" len="12" vol="100" pos="0"/>
          <note pan="0" key="47" len="12" vol="100" pos="36"/>
          <note pan="0" key="35" len="12" vol="100" pos="48"/>
          <note pan="0" key="44" len="12" vol="100" pos="72"/>
          <note pan="0" key="40" len="12" vol="100" pos="72"/>
          <note pan="0" key="35" len="12" vol="100" pos="96"/>
          <note pan="0" key="35" len="12" vol="100" pos="108"/>
          <note pan="0" key="45" len="12" vol="100" pos="120"/>
          <note pan="0" key="43" len="12" vol="100" pos="144"/>
          <note pan="0" key="41" len="12" vol="100" pos="168"/>
          <note pan="0" key="52" len="12" vol="100" pos="192"/>
          <note pan="0" key="44" len="12" vol="100" pos="192"/>
          <note pan="0" key="43" len="12" vol="100" pos="192"/>
          <note pan="0" key="35" len="12" vol="100" pos="192"/>
          <note pan="0" key="35" len="12" vol="100" pos="216"/>
          <note pan="0" key="50" len="12" vol="100" pos="228"/>
          <note pan="0" key="35" len="12" vol="100" pos="228"/>
          <note pan="0" key="39" len="12" vol="100" pos="252"/>
          <note pan="0" key="44" len="12" vol="100" pos="264"/>
          <note pan="0" key="40" len="12" vol="100" pos="264"/>
          <note pan="0" key="44" len="12" vol="100" pos="276"/>
          <note pan="0" key="48" len="12" vol="100" pos="288"/>
          <note pan="0" key="35" len="12" vol="100" pos="312"/>
          <note pan="0" key="35" len="12" vol="100" pos="324"/>
          <note pan="0" key="43" len="12" vol="100" pos="336"/>
          <note pan="0" key="43" len="12" vol="100" pos="348"/>
          <note pan="0" key="47" len="12" vol="100" pos="360"/>
          <note pan="0" key="54" len="12" vol="100" pos="384"/>
          <note pan="0" key="43" len="12" vol="100" pos="384"/>
          <note pan="0" key="42" len="12" vol="100" pos="384"/>
          <note pan="0" key="35" len="12" vol="100" pos="384"/>
          <note pan="0" key="46" len="12" vol="100" pos="420"/>
          <note pan="0" key="44" len="12" vol="100" pos="432"/>
          <note pan="0" key="46" len="12" vol="100" pos="456"/>
          <note pan="0" key="35" len="12" vol="100" pos="456"/>
          <note pan="0" key="44" len="12" vol="100" pos="468"/>
          <note pan="0" key="35" len="12" vol="100" pos="480"/>
          <note pan="0" key="46" len="12" vol="100" pos="492"/>
          <note pan="0" key="44" len="12" vol="100" pos="504"/>
          <note pan="0" key="35" len="12" vol="100" pos="516"/>
          <note pan="0" key="44" len="12" vol="100" pos="528"/>
          <note pan="0" key="44" len="12" vol="100" pos="552"/>
          <note pan="0" key="35" len="12" vol="100" pos="552"/>
          <note pan="0" key="35" len="12" vol="100" pos="576"/>
          <note pan="0" key="35" len="12" vol="100" pos="624"/>
          <note pan="0" key="35" len="12" vol="100" pos="672"/>
          <note pan="0" key="35" len="12" vol="100" pos="720"/>
          <note pan="0" key="35" len="12" vol="100" pos="744"/>
        </midiclip>
        <midiclip muted="0" steps="16" pos="2112" type="1" name="">
          <note pan="0" key="35" len="12" vol="100" pos="0"/>
          <note pan="0" key="35" len="12" vol="100" pos="48"/>
          <note pan="0" key="35" len="12" vol="100" pos="96"/>
          <note pan="0" key="35" len="12" vol="100" pos="144"/>
        </midiclip>
        <midiclip muted="0" steps="16" pos="10944" type="1" name="">
          <note pan="0" key="49" len="12" vol="100" pos="0"/>
          <note pan="0" key="43" len="12" vol="100" pos="0"/>
          <note pan="0" key="35" len="12" vol="100" pos="0"/>
          <note pan="0" key="47" len="12" vol="100" pos="36"/>
          <note pan="0" key="35" len="12" vol="100" pos="48"/>
          <note pan="0" key="44" len="12" vol="100" pos="72"/>
          <note pan="0" key="40" len="12" vol="100" pos="72"/>
          <note pan="0" key="35" len="12" vol="100" pos="96"/>
          <note pan="0" key="35" len="12" vol="100" pos="108"/>
          <note pan="0" key="45" len="12" vol="100" pos="120"/>
          <note pan="0" key="43" len="12" vol="100" pos="144"/>
          <note pan="0" key="41" len="12" vol="100" pos="168"/>
          <note pan="0" key="52" len="12" vol="100" pos="192"/>
          <note pan="0" key="44" len="12" vol="100" pos="192"/>
          <note pan="0" key="43" len="12" vol="100" pos="192"/>
          <note pan="0" key="35" len="12" vol="100" pos="192"/>
          <note pan="0" key="35" len="12" vol="100" pos="216"/>
          <note pan="0" key="50" len="12" vol="100" pos="228"/>
          <note pan="0" key="35" len="12" vol="100" pos="228"/>
          <note pan="0" key="39" len="12" vol="100" pos="252"/>
          <note pan="0" key="44" len="12" vol="100" pos="264"/>
          <note pan="0" key="40" len="12" vol="100" pos="264"/>
          <note pan="0" key="44" len="12" vol="100" pos="276"/>
          <note pan="0" key="48" len="12" vol="100" pos="288"/>
          <note pan="0" key="35" len="12" vol="100" pos="312"/>
          <note pan="0" key="35" len="12" vol="100" pos="324"/>
          <note pan="0" key="43" len="12" vol="100" pos="336"/>
          <note pan="0" key="43" len="12" vol="100" pos="348"/>
          <note pan="0" key="47" len="12" vol="100" pos="360"/>
          <note pan="0" key="54" len="12" vol="100" pos="384"/>
          <note pan="0" key="43" len="12" vol="100" pos="384"/>
          <note pan="0" key="42" len="12" vol="100" pos="384"/>
          <note pan="0" key="35" len="12" vol="100" pos="384"/>
          <note pan="0" key="46" len="12" vol="100" pos="420"/>
          <note pan="0" key="44" len="12" vol="100" pos="432"/>
          <note pan="0" key="46" len="12" vol="100" pos="456"/>
          <note pan="0" key="35" len="12" vol="100" pos="456"/>
          <note pan="0" key="44" len="12" vol="100" pos="468"/>
          <note pan="0" key="35" len="12" vol="100" pos="480"/>
          <note pan="0" key="46" len="12" vol="100" pos="492"/>
          <note pan="0" key="44" len="12" vol="100" pos="504"/>
          <note pan="0" key="35" len="12" vol="100" pos="516"/>
          <note pan="0" key="44" len="12" vol="100" pos="528"/>
          <note pan="0" key="44" len="12" vol="100" pos="552"/>
          <note pan="0" key="35" len="12" vol="100" pos="552"/>
        </midiclip>
        <midiclip muted="0" steps="16" pos="10176" type="1" name="">
          <note pan="0" key="35" len="12" vol="100" pos="0"/>
          <note pan="0" key="44" len="12" vol="100" pos="24"/>
          <note pan="0" key="40" len="12" vol="100" pos="48"/>
          <note pan="0" key="35" len="12" vol="100" pos="48"/>
          <note pan="0" key="44" len="12" vol="100" pos="72"/>
          <note pan="0" key="35" len="12" vol="100" pos="96"/>
          <note pan="0" key="44" len="12" vol="100" pos="120"/>
          <note pan="0" key="40" len="12" vol="100" pos="144"/>
          <note pan="0" key="35" len="12" vol="100" pos="144"/>
          <note pan="0" key="44" len="12" vol="100" pos="168"/>
        </midiclip>
        <midiclip muted="0" steps="16" pos="10368" type="1" name="">
          <note pan="0" key="35" len="12" vol="100" pos="0"/>
          <note pan="0" key="44" len="12" vol="100" pos="24"/>
          <note pan="0" key="40" len="12" vol="100" pos="48"/>
          <note pan="0" key="35" len="12" vol="100" pos="48"/>
          <note pan="0" key="44" len="12" vol="100" pos="72"/>
          <note pan="0" key="35" len="12" vol="100" pos="96"/>
          <note pan="0" key="44" len="12" vol="100" pos="120"/>
          <note pan="0" key="40" len="12" vol="100" pos="144"/>
          <note pan="0" key="35" len="12" vol="100" pos="144"/>
          <note pan="0" key="44" len="12" vol="100" pos="168"/>
        </midiclip>
        <midiclip muted="0" steps="16" pos="10560" type="1" name="">
          <note pan="0" key="35" len="12" vol="100" pos="0"/>
          <note pan="0" key="44" len="12" vol="100" pos="24"/>
          <note pan="0" key="40" len="12" vol="100" pos="48"/>
          <note pan="0" key="35" len="12" vol="100" pos="48"/>
          <note pan="0" key="44" len="12" vol="100" pos="72"/>
          <note pan="0" key="35" len="12" vol="100" pos="96"/>
          <note pan="0" key="44" len="12" vol="100" pos="120"/>
          <note pan="0" key="40" len="12" vol="100" pos="144"/>
          <note pan="0" key="35" len="12" vol="100" pos="144"/>
          <note pan="0" key="44" len="12" vol="100" pos="168"/>
        </midiclip>
        <midiclip muted="0" steps="16" pos="10752" type="1" name="">
          <note pan="0" key="35" len="12" vol="100" pos="0"/>
          <note pan="0" key="44" len="12" vol="100" pos="24"/>
          <note pan="0" key="40" len="12" vol="100" pos="48"/>
          <note pan="0" key="35" len="12" vol="100" pos="48"/>
          <note pan="0" key="44" len="12" vol="100" pos="72"/>
          <note pan="0" key="35" len="12" vol="100" pos="96"/>
          <note pan="0" key="50" len="12" vol="100" pos="120"/>
          <note pan="0" key="44" len="12" vol="100" pos="120"/>
          <note pan="0" key="50" len="12" vol="100" pos="132"/>
          <note pan="0" key="47" len="12" vol="100" pos="144"/>
          <note pan="0" key="40" len="12" vol="100" pos="144"/>
          <note pan="0" key="35" len="12" vol="100" pos="144"/>
          <note pan="0" key="47" len="12" vol="100" pos="156"/>
          <note pan="0" key="43" len="12" vol="100" pos="168"/>
          <note pan="0" key="41" len="12" vol="100" pos="168"/>
        </midiclip>
        <midiclip muted="0" steps="16" pos="11712" type="1" name="">
          <note pan="0" key="35" len="12" vol="100" pos="0"/>
          <note pan="0" key="44" len="12" vol="100" pos="24"/>
          <note pan="0" key="40" len="12" vol="100" pos="48"/>
          <note pan="0" key="35" len="12" vol="100" pos="48"/>
          <note pan="0" key="44" len="12" vol="100" pos="72"/>
          <note pan="0" key="35" len="12" vol="100" pos="96"/>
          <note pan="0" key="44" len="12" vol="100" pos="120"/>
          <note pan="0" key="40" len="12" vol="100" pos="144"/>
          <note pan="0" key="35" len="12" vol="100" pos="144"/>
          <note pan="0" key="44" len="12" vol="100" pos="168"/>
        </midiclip>
        <midiclip muted="0" steps="16" pos="11904" type="1" name="">
          <note pan="0" key="35" len="12" vol="100" pos="0"/>
          <note pan="0" key="44" len="12" vol="100" pos="24"/>
          <note pan="0" key="40" len="12" vol="100" pos="48"/>
          <note pan="0" key="35" len="12" vol="100" pos="48"/>
          <note pan="0" key="44" len="12" vol="100" pos="72"/>
          <note pan="0" key="35" len="12" vol="100" pos="96"/>
          <note pan="0" key="44" len="12" vol="100" pos="120"/>
          <note pan="0" key="40" len="12" vol="100" pos="144"/>
          <note pan="0" key="35" len="12" vol="100" pos="144"/>
          <note pan="0" key="44" len="12" vol="100" pos="168"/>
        </midiclip>
        <midiclip muted="0" steps="16" pos="12096" type="1" name="">
          <note pan="0" key="35" len="12" vol="100" pos="0"/>
          <note pan="0" key="44" len="12" vol="100" pos="24"/>
          <note pan="0" key="40" len="12" vol="100" pos="48"/>
          <note pan="0" key="35" len="12" vol="100" pos="48"/>
          <note pan="0" key="44" len="12" vol="100" pos="72"/>
          <note pan="0" key="35" len="12" vol="100" pos="96"/>
          <note pan="0" key="44" len="12" vol="100" pos="120"/>
          <note pan="0" key="40" len="12" vol="100" pos="144"/>
          <note pan="0" key="35" len="12" vol="100" pos="144"/>
          <note pan="0" key="44" len="12" vol="100" pos="168"/>
        </midiclip>
        <midiclip muted="0" steps="16" pos="12288" type="1" name="">
          <note pan="0" key="35" len="12" vol="100" pos="0"/>
          <note pan="0" key="44" len="12" vol="100" pos="24"/>
          <note pan="0" key="40" len="12" vol="100" pos="48"/>
          <note pan="0" key="35" len="12" vol="100" pos="48"/>
          <note pan="0" key="44" len="12" vol="100" pos="72"/>
          <note pan="0" key="35" len="12" vol="100" pos="96"/>
          <note pan="0" key="50" len="12" vol="100" pos="120"/>
          <note pan="0" key="44" len="12" vol="100" pos="120"/>
          <note pan="0" key="50" len="12" vol="100" pos="132"/>
          <note pan="0" key="47" len="12" vol="100" pos="144"/>
          <note pan="0" key="40" len="12" vol="100" pos="144"/>
          <note pan="0" key="35" len="12" vol="100" pos="144"/>
          <note pan="0" key="47" len="12" vol="100" pos="156"/>
          <note pan="0" key="43" len="12" vol="100" pos="168"/>
          <note pan="0" key="41" len="12" vol="100" pos="168"/>
        </midiclip>
        <midiclip muted="0" steps="16" pos="12480" type="1" name="">
          <note pan="0" key="49" len="12" vol="100" pos="0"/>
          <note pan="0" key="43" len="12" vol="100" pos="0"/>
          <note pan="0" key="35" len="12" vol="100" pos="0"/>
          <note pan="0" key="47" len="12" vol="100" pos="36"/>
          <note pan="0" key="35" len="12" vol="100" pos="48"/>
          <note pan="0" key="44" len="12" vol="100" pos="72"/>
          <note pan="0" key="40" len="12" vol="100" pos="72"/>
          <note pan="0" key="35" len="12" vol="100" pos="96"/>
          <note pan="0" key="35" len="12" vol="100" pos="108"/>
          <note pan="0" key="45" len="12" vol="100" pos="120"/>
          <note pan="0" key="43" len="12" vol="100" pos="144"/>
          <note pan="0" key="41" len="12" vol="100" pos="168"/>
          <note pan="0" key="52" len="12" vol="100" pos="192"/>
          <note pan="0" key="44" len="12" vol="100" pos="192"/>
          <note pan="0" key="43" len="12" vol="100" pos="192"/>
          <note pan="0" key="35" len="12" vol="100" pos="192"/>
          <note pan="0" key="35" len="12" vol="100" pos="216"/>
          <note pan="0" key="50" len="12" vol="100" pos="228"/>
          <note pan="0" key="35" len="12" vol="100" pos="228"/>
          <note pan="0" key="39" len="12" vol="100" pos="252"/>
          <note pan="0" key="44" len="12" vol="100" pos="264"/>
          <note pan="0" key="40" len="12" vol="100" pos="264"/>
          <note pan="0" key="44" len="12" vol="100" pos="276"/>
          <note pan="0" key="48" len="12" vol="100" pos="288"/>
          <note pan="0" key="35" len="12" vol="100" pos="312"/>
          <note pan="0" key="35" len="12" vol="100" pos="324"/>
          <note pan="0" key="43" len="12" vol="100" pos="336"/>
          <note pan="0" key="43" len="12" vol="100" pos="348"/>
          <note pan="0" key="47" len="12" vol="100" pos="360"/>
          <note pan="0" key="54" len="12" vol="100" pos="384"/>
          <note pan="0" key="43" len="12" vol="100" pos="384"/>
          <note pan="0" key="42" len="12" vol="100" pos="384"/>
          <note pan="0" key="35" len="12" vol="100" pos="384"/>
          <note pan="0" key="46" len="12" vol="100" pos="420"/>
          <note pan="0" key="44" len="12" vol="100" pos="432"/>
          <note pan="0" key="46" len="12" vol="100" pos="456"/>
          <note pan="0" key="35" len="12" vol="100" pos="456"/>
          <note pan="0" key="44" len="12" vol="100" pos="468"/>
          <note pan="0" key="35" len="12" vol="100" pos="480"/>
          <note pan="0" key="46" len="12" vol="100" pos="492"/>
          <note pan="0" key="44" len="12" vol="100" pos="504"/>
          <note pan="0" key="35" len="12" vol="100" pos="516"/>
          <note pan="0" key="44" len="12" vol="100" pos="528"/>
          <note pan="0" key="44" len="12" vol="100" pos="552"/>
          <note pan="0" key="35" len="12" vol="100" pos="552"/>
          <note pan="0" key="35" len="12" vol="100" pos="576"/>
          <note pan="0" key="35" len="12" vol="100" pos="624"/>
          <note pan="0" key="35" len="12" vol="100" pos="672"/>
          <note pan="0" key="35" len="12" vol="100" pos="720"/>
          <note pan="0" key="35" len="12" vol="100" pos="744"/>
        </midiclip>
      </track>
      <track solo="0" muted="0" mutedBeforeSolo="0" type="0" name="Drums>Delay">
        <instrumenttrack lastkey="127" usemasterpitch="0" pan="0" pitchrange="1" basenote="69" enabled="0" firstkey="0" keymap="0" enablecc="0" range_import="1" mixch="15" scale="0" pitch="0">
          <vol scale_type="linear" id="21474" value="108.073"/>
          <midicontrollers cc66="0" cc52="0" cc64="0" cc28="0" cc48="0" cc7="0" cc96="0" cc124="0" cc53="0" cc54="0" cc9="0" cc8="0" cc79="0" cc85="0" cc18="0" cc81="0" cc43="0" cc123="0" cc46="0" cc95="0" cc111="0" cc1="0" cc59="0" cc115="0" cc4="0" cc62="0" cc110="0" cc0="0" cc109="0" cc116="0" cc51="0" cc44="0" cc34="0" cc71="0" cc45="0" cc88="0" cc122="0" cc92="0" cc127="0" cc16="0" cc73="0" cc100="0" cc55="0" cc105="0" cc82="0" cc29="0" cc13="0" cc112="0" cc42="0" cc38="0" cc25="0" cc14="0" cc98="0" cc119="0" cc126="0" cc114="0" cc76="0" cc101="0" cc47="0" cc80="0" cc68="0" cc90="0" cc121="0" cc30="0" cc19="0" cc36="0" cc31="0" cc24="0" cc41="0" cc83="0" cc60="0" cc108="0" cc113="0" cc56="0" cc94="0" cc67="0" cc63="0" cc3="0" cc6="0" cc103="0" cc49="0" cc11="0" cc10="0" cc102="0" cc57="0" cc77="0" cc86="0" cc93="0" cc120="0" cc72="0" cc26="0" cc21="0" cc35="0" cc74="0" cc27="0" cc99="0" cc33="0" cc106="0" cc125="0" cc5="0" cc17="0" cc84="0" cc107="0" cc58="0" cc37="0" cc15="0" cc104="0" cc87="0" cc20="0" cc2="0" cc65="0" cc78="0" cc91="0" cc50="0" cc22="0" cc39="0" cc97="0" cc40="0" cc23="0" cc32="0" cc75="0" cc12="0" cc70="0" cc61="0" cc69="0" cc89="0" cc118="0" cc117="0"/>
          <instrument name="sf2player">
            <sf2player reverbRoomSize="0.2" reverbLevel="0.9" chorusOn="0" reverbWidth="0.5" reverbDamping="0" gain="0.24" chorusDepth="8" chorusSpeed="0.3" patch="0" reverbOn="0" chorusNum="3" chorusLevel="2" src="usersoundfont:drums_ken_ardency_mono.sf2" bank="128">
              <key/>
            </sf2player>
          </instrument>
          <eldata ftype="0" fcut="14000" fwet="0" fres="0.5">
            <elvol lspd_numerator="4" lspd_denominator="4" lshp="0" lspd="0.1" hold="0.5" amt="0" lamt="0" rel="0.1" ctlenvamt="0" lpdel="0" latt="0" userwavefile="" lspd_syncmode="0" sustain="0.5" pdel="0" x100="0" att="0" dec="0.5"/>
            <elcut lspd_numerator="4" lspd_denominator="4" lshp="0" lspd="0.1" hold="0.5" amt="0" lamt="0" rel="0.1" ctlenvamt="0" lpdel="0" latt="0" userwavefile="" lspd_syncmode="0" sustain="0.5" pdel="0" x100="0" att="0" dec="0.5"/>
            <elres lspd_numerator="4" lspd_denominator="4" lshp="0" lspd="0.1" hold="0.5" amt="0" lamt="0" rel="0.1" ctlenvamt="0" lpdel="0" latt="0" userwavefile="" lspd_syncmode="0" sustain="0.5" pdel="0" x100="0" att="0" dec="0.5"/>
          </eldata>
          <chordcreator chord="0" chordrange="1" chord-enabled="0"/>
          <arpeggiator arpgate="100" arp-enabled="0" arprepeats="1" arpmode="0" arprange="1" arpcycle="0" arpmiss="0" arpskip="0" arptime_denominator="4" arptime="200" arptime_syncmode="0" arp="0" arptime_numerator="4" arpdir="0"/>
          <midiport inputcontroller="0" inputchannel="0" fixedoutputnote="-1" outputprogram="1" readable="1" fixedinputvelocity="-1" fixedoutputvelocity="-1" writable="0" inports="" outputcontroller="0" basevelocity="127" outputchannel="1"/>
          <fxchain enabled="0" numofeffects="0"/>
        </instrumenttrack>
        <midiclip muted="0" steps="16" pos="5376" type="1" name="">
          <note pan="0" key="51" len="72" vol="100" pos="0"/>
          <note pan="0" key="51" len="72" vol="100" pos="72"/>
          <note pan="0" key="51" len="48" vol="100" pos="144"/>
        </midiclip>
        <midiclip muted="0" steps="16" pos="5568" type="1" name="">
          <note pan="0" key="51" len="72" vol="100" pos="0"/>
          <note pan="0" key="51" len="72" vol="100" pos="72"/>
          <note pan="0" key="49" len="48" vol="100" pos="72"/>
          <note pan="0" key="56" len="48" vol="100" pos="96"/>
          <note pan="0" key="53" len="48" vol="100" pos="144"/>
          <note pan="0" key="51" len="48" vol="100" pos="144"/>
        </midiclip>
        <midiclip muted="0" steps="16" pos="5760" type="1" name="">
          <note pan="0" key="51" len="72" vol="100" pos="0"/>
          <note pan="0" key="51" len="72" vol="100" pos="72"/>
          <note pan="0" key="51" len="48" vol="100" pos="144"/>
        </midiclip>
        <midiclip muted="0" steps="16" pos="5952" type="1" name="">
          <note pan="0" key="51" len="72" vol="100" pos="0"/>
          <note pan="0" key="46" len="48" vol="100" pos="48"/>
          <note pan="0" key="51" len="72" vol="100" pos="72"/>
          <note pan="0" key="53" len="48" vol="100" pos="144"/>
          <note pan="0" key="51" len="48" vol="100" pos="144"/>
        </midiclip>
        <midiclip muted="0" steps="16" pos="6144" type="1" name="">
          <note pan="0" key="51" len="72" vol="100" pos="0"/>
          <note pan="0" key="51" len="72" vol="100" pos="72"/>
          <note pan="0" key="51" len="48" vol="100" pos="144"/>
        </midiclip>
        <midiclip muted="0" steps="16" pos="6336" type="1" name="">
          <note pan="0" key="51" len="72" vol="100" pos="0"/>
          <note pan="0" key="56" len="48" vol="100" pos="72"/>
          <note pan="0" key="51" len="72" vol="100" pos="72"/>
          <note pan="0" key="49" len="48" vol="100" pos="96"/>
          <note pan="0" key="53" len="48" vol="100" pos="144"/>
          <note pan="0" key="51" len="48" vol="100" pos="144"/>
        </midiclip>
        <midiclip muted="0" steps="16" pos="6528" type="1" name="">
          <note pan="0" key="51" len="72" vol="100" pos="0"/>
          <note pan="0" key="51" len="72" vol="100" pos="72"/>
          <note pan="0" key="51" len="48" vol="100" pos="144"/>
        </midiclip>
        <midiclip muted="0" steps="16" pos="6720" type="1" name="">
          <note pan="0" key="51" len="72" vol="100" pos="0"/>
          <note pan="0" key="46" len="48" vol="100" pos="48"/>
          <note pan="0" key="51" len="72" vol="100" pos="72"/>
          <note pan="0" key="53" len="48" vol="100" pos="144"/>
          <note pan="0" key="51" len="48" vol="100" pos="144"/>
        </midiclip>
        <midiclip muted="0" steps="16" pos="6912" type="1" name="">
          <note pan="0" key="51" len="72" vol="100" pos="0"/>
          <note pan="0" key="51" len="72" vol="100" pos="72"/>
          <note pan="0" key="51" len="48" vol="100" pos="144"/>
        </midiclip>
        <midiclip muted="0" steps="16" pos="7104" type="1" name="">
          <note pan="0" key="51" len="72" vol="100" pos="0"/>
          <note pan="0" key="51" len="72" vol="100" pos="72"/>
          <note pan="0" key="49" len="48" vol="100" pos="72"/>
          <note pan="0" key="56" len="48" vol="100" pos="96"/>
          <note pan="0" key="53" len="48" vol="100" pos="144"/>
          <note pan="0" key="51" len="48" vol="100" pos="144"/>
        </midiclip>
        <midiclip muted="0" steps="16" pos="7296" type="1" name="">
          <note pan="0" key="51" len="72" vol="100" pos="0"/>
          <note pan="0" key="51" len="72" vol="100" pos="72"/>
          <note pan="0" key="51" len="48" vol="100" pos="144"/>
        </midiclip>
        <midiclip muted="0" steps="16" pos="7488" type="1" name="">
          <note pan="0" key="51" len="72" vol="100" pos="0"/>
          <note pan="0" key="46" len="48" vol="100" pos="48"/>
          <note pan="0" key="51" len="72" vol="100" pos="72"/>
          <note pan="0" key="53" len="48" vol="100" pos="144"/>
          <note pan="0" key="51" len="48" vol="100" pos="144"/>
        </midiclip>
        <midiclip muted="0" steps="16" pos="7680" type="1" name="">
          <note pan="0" key="51" len="72" vol="100" pos="0"/>
          <note pan="0" key="51" len="72" vol="100" pos="72"/>
          <note pan="0" key="51" len="48" vol="100" pos="144"/>
        </midiclip>
        <midiclip muted="0" steps="16" pos="8064" type="1" name="">
          <note pan="0" key="51" len="72" vol="100" pos="0"/>
          <note pan="0" key="51" len="72" vol="100" pos="72"/>
          <note pan="0" key="51" len="48" vol="100" pos="144"/>
        </midiclip>
        <midiclip muted="0" steps="16" pos="8256" type="1" name="">
          <note pan="0" key="51" len="72" vol="100" pos="0"/>
          <note pan="0" key="46" len="48" vol="100" pos="48"/>
          <note pan="0" key="51" len="72" vol="100" pos="72"/>
          <note pan="0" key="53" len="48" vol="100" pos="144"/>
          <note pan="0" key="51" len="48" vol="100" pos="144"/>
        </midiclip>
        <midiclip muted="0" steps="16" pos="7872" type="1" name="">
          <note pan="0" key="51" len="72" vol="100" pos="0"/>
          <note pan="0" key="56" len="48" vol="100" pos="72"/>
          <note pan="0" key="51" len="72" vol="100" pos="72"/>
          <note pan="0" key="49" len="48" vol="100" pos="96"/>
          <note pan="0" key="53" len="48" vol="100" pos="144"/>
          <note pan="0" key="51" len="48" vol="100" pos="144"/>
        </midiclip>
        <midiclip muted="0" steps="16" pos="5184" type="1" name="">
          <note pan="0" key="51" len="48" vol="100" pos="0"/>
          <note pan="0" key="51" len="48" vol="100" pos="48"/>
          <note pan="0" key="51" len="48" vol="100" pos="96"/>
          <note pan="0" key="54" len="12" vol="100" pos="144"/>
          <note pan="0" key="51" len="48" vol="100" pos="144"/>
        </midiclip>
        <midiclip muted="0" steps="16" pos="3648" type="1" name="">
          <note pan="0" key="51" len="48" vol="100" pos="24"/>
          <note pan="0" key="51" len="48" vol="100" pos="120"/>
        </midiclip>
        <midiclip muted="0" steps="16" pos="13056" type="1" name="">
          <note pan="0" key="51" len="48" vol="100" pos="0"/>
          <note pan="0" key="51" len="48" vol="100" pos="48"/>
          <note pan="0" key="51" len="48" vol="100" pos="96"/>
          <note pan="0" key="54" len="12" vol="100" pos="144"/>
          <note pan="0" key="51" len="48" vol="100" pos="144"/>
          <note pan="0" key="53" len="12" vol="100" pos="168"/>
        </midiclip>
        <midiclip muted="0" steps="16" pos="13248" type="1" name="">
          <note pan="0" key="51" len="72" vol="100" pos="0"/>
          <note pan="0" key="51" len="72" vol="100" pos="72"/>
          <note pan="0" key="51" len="48" vol="100" pos="144"/>
        </midiclip>
        <midiclip muted="0" steps="16" pos="13440" type="1" name="">
          <note pan="0" key="51" len="72" vol="100" pos="0"/>
          <note pan="0" key="51" len="72" vol="100" pos="72"/>
          <note pan="0" key="51" len="48" vol="100" pos="144"/>
        </midiclip>
        <midiclip muted="0" steps="16" pos="13632" type="1" name="">
          <note pan="0" key="51" len="72" vol="100" pos="0"/>
          <note pan="0" key="51" len="72" vol="100" pos="72"/>
          <note pan="0" key="51" len="48" vol="100" pos="144"/>
        </midiclip>
        <midiclip muted="0" steps="16" pos="13824" type="1" name="">
          <note pan="0" key="51" len="72" vol="100" pos="0"/>
          <note pan="0" key="51" len="72" vol="100" pos="72"/>
          <note pan="0" key="51" len="48" vol="100" pos="144"/>
        </midiclip>
        <midiclip muted="0" steps="16" pos="14016" type="1" name="">
          <note pan="0" key="51" len="72" vol="100" pos="0"/>
          <note pan="0" key="51" len="72" vol="100" pos="72"/>
          <note pan="0" key="51" len="48" vol="100" pos="144"/>
        </midiclip>
        <midiclip muted="0" steps="16" pos="14208" type="1" name="">
          <note pan="0" key="51" len="72" vol="100" pos="0"/>
          <note pan="0" key="51" len="72" vol="100" pos="72"/>
          <note pan="0" key="51" len="48" vol="100" pos="144"/>
        </midiclip>
        <midiclip muted="0" steps="16" pos="14400" type="1" name="">
          <note pan="0" key="51" len="72" vol="100" pos="0"/>
          <note pan="0" key="51" len="72" vol="100" pos="72"/>
          <note pan="0" key="51" len="48" vol="100" pos="144"/>
        </midiclip>
        <midiclip muted="0" steps="16" pos="11520" type="1" name="">
          <note pan="0" key="52" len="12" vol="100" pos="0"/>
          <note pan="0" key="43" len="12" vol="100" pos="0"/>
          <note pan="0" key="36" len="12" vol="100" pos="0"/>
          <note pan="0" key="56" len="12" vol="100" pos="36"/>
          <note pan="0" key="48" len="12" vol="100" pos="36"/>
          <note pan="0" key="36" len="12" vol="100" pos="36"/>
          <note pan="0" key="49" len="12" vol="100" pos="72"/>
          <note pan="0" key="41" len="12" vol="100" pos="72"/>
          <note pan="0" key="36" len="12" vol="100" pos="72"/>
          <note pan="0" key="53" len="12" vol="100" pos="108"/>
          <note pan="0" key="43" len="12" vol="100" pos="108"/>
          <note pan="0" key="36" len="12" vol="100" pos="108"/>
          <note pan="0" key="39" len="12" vol="100" pos="120"/>
          <note pan="0" key="52" len="12" vol="100" pos="144"/>
          <note pan="0" key="38" len="12" vol="100" pos="144"/>
          <note pan="0" key="36" len="12" vol="100" pos="144"/>
        </midiclip>
        <midiclip muted="0" steps="16" pos="9792" type="1" name="">
          <note pan="0" key="36" len="12" vol="100" pos="168"/>
          <note pan="0" key="40" len="12" vol="100" pos="180"/>
          <note pan="0" key="36" len="12" vol="100" pos="180"/>
        </midiclip>
        <midiclip muted="0" steps="16" pos="14592" type="1" name="">
          <note pan="0" key="51" len="72" vol="100" pos="0"/>
          <note pan="0" key="51" len="72" vol="100" pos="72"/>
          <note pan="0" key="51" len="48" vol="100" pos="144"/>
        </midiclip>
        <midiclip muted="0" steps="16" pos="9984" type="1" name="">
          <note pan="0" key="52" len="12" vol="100" pos="0"/>
          <note pan="0" key="43" len="12" vol="100" pos="0"/>
          <note pan="0" key="36" len="12" vol="100" pos="0"/>
          <note pan="0" key="45" len="12" vol="100" pos="24"/>
          <note pan="0" key="56" len="12" vol="100" pos="36"/>
          <note pan="0" key="48" len="12" vol="100" pos="36"/>
          <note pan="0" key="36" len="12" vol="100" pos="36"/>
          <note pan="0" key="49" len="12" vol="100" pos="72"/>
          <note pan="0" key="41" len="12" vol="100" pos="72"/>
          <note pan="0" key="36" len="12" vol="100" pos="72"/>
          <note pan="0" key="45" len="12" vol="100" pos="96"/>
          <note pan="0" key="53" len="12" vol="100" pos="108"/>
          <note pan="0" key="43" len="12" vol="100" pos="108"/>
          <note pan="0" key="36" len="12" vol="100" pos="108"/>
          <note pan="0" key="39" len="12" vol="100" pos="120"/>
          <note pan="0" key="52" len="12" vol="100" pos="144"/>
          <note pan="0" key="45" len="12" vol="100" pos="144"/>
          <note pan="0" key="38" len="12" vol="100" pos="144"/>
          <note pan="0" key="36" len="12" vol="100" pos="144"/>
        </midiclip>
      </track>
      <track solo="0" muted="0" mutedBeforeSolo="0" type="5" name="Drums>Delay>Volume">
        <automationtrack/>
        <automationclip tens="1" len="192" mute="0" prog="1" pos="5184" name="Drums>Delay>Volume">
          <time pos="0" outValue="0" value="0"/>
          <time pos="192" outValue="100" value="100"/>
          <object id="21474"/>
        </automationclip>
        <automationclip tens="1" len="192" mute="0" prog="0" pos="5376" name="Drums>Delay>Volume">
          <time pos="0" outValue="100" value="100"/>
          <object id="21474"/>
        </automationclip>
        <automationclip tens="1" len="192" mute="0" prog="1" pos="3648" name="Drums>Delay>Volume">
          <time pos="0" outValue="50" value="50"/>
          <time pos="192" outValue="100" value="100"/>
          <object id="21474"/>
        </automationclip>
        <automationclip tens="1" len="192" mute="0" prog="1" pos="13056" name="Drums>Delay>Volume">
          <time pos="0" outValue="0" value="0"/>
          <time pos="192" outValue="100" value="100"/>
          <object id="21474"/>
        </automationclip>
        <automationclip tens="1" len="1536" mute="0" prog="1" pos="13248" name="Drums>Delay>Volume">
          <time pos="0" outValue="100" value="100"/>
          <time pos="1536" outValue="200" value="200"/>
          <object id="21474"/>
        </automationclip>
        <automationclip tens="1" len="192" mute="0" prog="0" pos="9792" name="Drums>Delay>Volume">
          <time pos="0" outValue="60" value="60"/>
          <object id="21474"/>
        </automationclip>
        <automationclip tens="1" len="192" mute="0" prog="0" pos="11520" name="Drums>Delay>Volume">
          <time pos="0" outValue="80" value="80"/>
          <object id="21474"/>
        </automationclip>
      </track>
      <track solo="0" muted="0" mutedBeforeSolo="0" type="5" name="Master>Volume">
        <automationtrack/>
        <automationclip tens="1" len="1536" mute="0" prog="1" pos="13248" name="Master>Volume">
          <time pos="0" outValue="1" value="1"/>
          <time pos="1536" outValue="0" value="0"/>
          <object id="12192"/>
        </automationclip>
        <automationclip tens="1" len="192" mute="0" prog="0" pos="0" name="Master>Volume">
          <time pos="0" outValue="1" value="1"/>
          <object id="12192"/>
        </automationclip>
      </track>
    </trackcontainer>
    <track solo="0" muted="0" mutedBeforeSolo="0" type="6" name="Automation track">
      <automationtrack/>
      <automationclip tens="1" len="192" mute="0" prog="0" pos="0" name="Numerator"/>
      <automationclip tens="1" len="192" mute="0" prog="0" pos="0" name="Denominator"/>
      <automationclip tens="1" len="192" mute="0" prog="0" pos="0" name="Tempo"/>
      <automationclip tens="1" len="192" mute="0" prog="0" pos="0" name="Master volume"/>
      <automationclip tens="1" len="192" mute="0" prog="0" pos="0" name="Master pitch"/>
    </track>
    <mixer x="966" minimized="0" width="844" maximized="0" visible="1" y="585" height="333">
      <mixerchannel muted="0" soloed="0" num="0" name="Master">
        <fxchain enabled="1" numofeffects="1">
          <effect on="1" autoquit="1" autoquit_syncmode="0" autoquit_denominator="4" autoquit_numerator="4" gate="0" wet="1" name="vsteffect">
            <vsteffectcontrols guivisible="0" chunk="UGFyYW1ldGVycwAAATNQQVJBTQABAmlkAAEMBWNoZXdfZGVwdGgAdmFsdWUAAQUFMC4wAABQQVJBTQABAmlkAAELBWNoZXdfZnJlcQB2YWx1ZQABBQUwLjAAAFBBUkFNAAECaWQAAQoFY2hld192YXIAdmFsdWUAAQUFMC4wAABQQVJBTQABAmlkAAEJBWRlZ19hbXQAdmFsdWUAAQUFMC4wAABQQVJBTQABAmlkAAELBWRlZ19kZXB0aAB2YWx1ZQABBQUwLjAAAFBBUkFNAAECaWQAAQkFZGVnX3ZhcgB2YWx1ZQABBQUwLjAAAFBBUkFNAAECaWQAAQcFZGVwdGgAdmFsdWUAARMFMC4xOTk5OTk5ODgwNzkwNzEAAFBBUkFNAAECaWQAAQcFZHJpdmUAdmFsdWUAARQFMC42NTk5OTk5NjY2MjEzOTg5AABQQVJBTQABAmlkAAEIBWRyeXdldAB2YWx1ZQABBwUxMDAuMAAAUEFSQU0AAQJpZAABBQVnYXAAdmFsdWUAAQkEAAAAgJmZ+T8AUEFSQU0AAQJpZAABCAVoX2Jhc3MAdmFsdWUAAQUFMC4wAABQQVJBTQABAmlkAAEKBWhfdHJlYmxlAHZhbHVlAAEFBTAuMAAAUEFSQU0AAQJpZAABCAVpbmdhaW4AdmFsdWUAAQUFMC4wAABQQVJBTQABAmlkAAEGBW1vZGUAdmFsdWUAAQkEAAAAAAAAFEAAUEFSQU0AAQJpZAABBAVvcwB2YWx1ZQABCQQAAAAAAAAAAABQQVJBTQABAmlkAAEJBW91dGdhaW4AdmFsdWUAAQkEAAAAgOtRGMAAUEFSQU0AAQJpZAABBgVyYXRlAHZhbHVlAAETBTAuMTk5OTk5OTg4MDc5MDcxAABQQVJBTQABAmlkAAEFBXNhdAB2YWx1ZQABBgUwLjc1AABQQVJBTQABAmlkAAEJBXNwYWNpbmcAdmFsdWUAAQkEAAAAYAO50T8AUEFSQU0AAQJpZAABBwVzcGVlZAB2YWx1ZQABCQQAAAAAAAA+QABQQVJBTQABAmlkAAEHBXRoaWNrAHZhbHVlAAEJBAAAAGAn/hJAAFBBUkFNAAECaWQAAQcFd2lkdGgAdmFsdWUAARQFMC4zNTk5OTk5ODQ1MDI3OTI0AABQQVJBTQABAmlkAAELBXdvd19kZXB0aAB2YWx1ZQABCQQAAACAmZnJPwBQQVJBTQABAmlkAAEKBXdvd19yYXRlAHZhbHVlAAEJBAAAAICZmck/AFBBUkFNAAECaWQAAQgFcHJlc2V0AHZhbHVlAAEDBTEAAFBBUkFNAAECaWQAAQkFb3NfbW9kZQB2YWx1ZQABCQQAAAAAAAAAAABQQVJBTQABAmlkAAESBW9zX3JlbmRlcl9mYWN0b3IAdmFsdWUAAQkEAAAAAAAA8D8AUEFSQU0AAQJpZAABEAVvc19yZW5kZXJfbW9kZQB2YWx1ZQABCQQAAAAAAAAAAABQQVJBTQABAmlkAAEZBW9zX3JlbmRlcl9saWtlX3JlYWx0aW1lAHZhbHVlAAEJBAAAAAAAAPA/AFBBUkFNAAEBaWQAAQkFYXppbXV0aAAAUEFSQU0AAQFpZAABDAVjaGV3X29ub2ZmAABQQVJBTQABAWlkAAEKBWNvbXBfYW10AABQQVJBTQABAWlkAAENBWNvbXBfYXR0YWNrAABQQVJBTQABAWlkAAEMBWNvbXBfb25vZmYAAFBBUkFNAAEBaWQAAQ4FY29tcF9yZWxlYXNlAABQQVJBTQABAWlkAAEJBWRlZ19lbnYAAFBBUkFNAAEBaWQAAQsFZGVnX29ub2ZmAABQQVJBTQABAWlkAAENBWRlZ19wb2ludDF4AABQQVJBTQABAWlkAAEPBWZsdXR0ZXJfb25vZmYAAFBBUkFNAAEBaWQAAQkFaF90ZnJlcQAAUEFSQU0AAQFpZAABDAVoeXN0X29ub2ZmAABQQVJBTQABAWlkAAEMBWlmaWx0X2hpZ2gAAFBBUkFNAAEBaWQAAQsFaWZpbHRfbG93AABQQVJBTQABAWlkAAEOBWlmaWx0X21ha2V1cAAAUEFSQU0AAQFpZAABDQVpZmlsdF9vbm9mZgAAUEFSQU0AAQFpZAABDAVsb3NzX29ub2ZmAABQQVJBTQABAWlkAAELBW1peF9ncm91cAAAUEFSQU0AAQFpZAABDAV0b25lX29ub2ZmAABQQVJBTQABAWlkAAELBXdvd19kcmlmdAAAUEFSQU0AAQFpZAABCQV3b3dfdmFyAABsYXN0LXNpemUAAAA=" plugin="Effects\ChowTapeModel\CHOWTapeModel.dll" program="1"/>
            <key>
              <attribute value="Effects\ChowTapeModel\CHOWTapeModel.dll" name="file"/>
            </key>
          </effect>
        </fxchain>
        <volume scale_type="linear" id="12192" value="0.919271"/>
      </mixerchannel>
      <mixerchannel volume="1" muted="0" soloed="0" num="1" name="Direct">
        <fxchain enabled="1" numofeffects="0"/>
        <send channel="0" amount="1"/>
      </mixerchannel>
      <mixerchannel volume="1" muted="0" soloed="0" num="2" name="Hall">
        <fxchain enabled="1" numofeffects="1">
          <effect on="1" autoquit="1" autoquit_syncmode="0" autoquit_denominator="4" autoquit_numerator="4" gate="0" wet="1" name="vsteffect">
            <vsteffectcontrols param0="0:Size:0.86" param3="3:Hi Damp:0.16" guivisible="0" numparams="8" param4="4:Lo Cut:0.47" param5="5:Early Ref.:0" param6="6:Mix:1" plugin="Effects\Classic Reverb\Classic Reverb.dll" param1="1:Damping:0.23" param2="2:Predelay:0.5" program="0" param7="7:Level:0.5"/>
            <key>
              <attribute value="Effects\Classic Reverb\Classic Reverb.dll" name="file"/>
            </key>
          </effect>
        </fxchain>
        <send channel="0" amount="1"/>
      </mixerchannel>
      <mixerchannel volume="0.7" muted="0" soloed="0" num="3" name="Piano">
        <fxchain enabled="1" numofeffects="2">
          <effect on="1" autoquit="1" autoquit_syncmode="0" autoquit_denominator="4" autoquit_numerator="4" gate="0" wet="1" name="stereomatrix">
            <stereomatrixcontrols r-l="0.1" r-r="0.9" l-l="0.9" l-r="0.1"/>
            <key/>
          </effect>
          <effect on="1" autoquit="1" autoquit_syncmode="0" autoquit_denominator="4" autoquit_numerator="4" gate="0" wet="1" name="vsteffect">
            <vsteffectcontrols param0="0:Bypass:0" param3="3:Cut:0.23" guivisible="0" numparams="4" plugin="Effects\DeadDuckSoftware\DD Filter.dll" param1="1:Mode:0.333333" param2="2:Slope:0" program="0"/>
            <key>
              <attribute value="Effects\DeadDuckSoftware\DD Filter.dll" name="file"/>
            </key>
          </effect>
        </fxchain>
        <send channel="2" amount="0.4"/>
        <send channel="1" amount="1"/>
      </mixerchannel>
      <mixerchannel volume="0.45" muted="0" soloed="0" num="4" name="Lead">
        <fxchain enabled="1" numofeffects="1">
          <effect on="1" autoquit="1" autoquit_syncmode="0" autoquit_denominator="4" autoquit_numerator="4" gate="0" wet="1" name="vsteffect">
            <vsteffectcontrols param10="10:Low Cut:0" param7="7:Feedback:0.49" param3="3:Sync:1" param0="0:Pan:0.33" param2="2:Type:0.5" param1="1:Mono:0" param4="4:T.S.N.:0.14" plugin="Effects\Classic Delay\Classic Delay.dll" param12="12:Mix:0.14" param6="6:Time:0.5" program="0" param5="5:T.S.D.:0.54" param11="11:Hi Cut:0.9" numparams="14" param13="13:Level:0.5" param9="9:Quality:0.28" guivisible="0" param8="8:Ping-Pong:1"/>
            <key>
              <attribute value="Effects\Classic Delay\Classic Delay.dll" name="file"/>
            </key>
          </effect>
        </fxchain>
        <send channel="1" amount="1"/>
        <send channel="2" amount="0.3"/>
      </mixerchannel>
      <mixerchannel volume="0.7" muted="0" soloed="0" num="5" name="Offlead">
        <fxchain enabled="1" numofeffects="2">
          <effect on="1" autoquit="1" autoquit_syncmode="0" autoquit_denominator="4" autoquit_numerator="4" gate="0" wet="1" name="vsteffect">
            <vsteffectcontrols param10="10:Low Cut:1" param7="7:Feedback:0.7" param3="3:Sync:1" param0="0:Pan:1" param2="2:Type:0.5" param1="1:Mono:0" param4="4:T.S.N.:0.13" plugin="Effects\Classic Delay\Classic Delay.dll" param12="12:Mix:0.24" param6="6:Time:0.5" program="0" param5="5:T.S.D.:0.2" param11="11:Hi Cut:0.9" numparams="14" param13="13:Level:0.5" param9="9:Quality:0.5" guivisible="0" param8="8:Ping-Pong:1"/>
            <key>
              <attribute value="Effects\Classic Delay\Classic Delay.dll" name="file"/>
            </key>
          </effect>
          <effect on="1" autoquit="1" autoquit_syncmode="0" autoquit_denominator="4" autoquit_numerator="4" gate="0" wet="1" name="vsteffect">
            <vsteffectcontrols param0="0:Bypass:0" param3="3:Cut:0.395" guivisible="0" numparams="4" plugin="Effects\DeadDuckSoftware\DD Filter.dll" param1="1:Mode:0.666667" param2="2:Slope:0" program="0"/>
            <key>
              <attribute value="Effects\DeadDuckSoftware\DD Filter.dll" name="file"/>
            </key>
          </effect>
        </fxchain>
        <send channel="1" amount="1"/>
        <send channel="2" amount="0.1"/>
      </mixerchannel>
      <mixerchannel volume="0.35" muted="0" soloed="0" num="6" name="Siren">
        <fxchain enabled="1" numofeffects="1">
          <effect on="1" autoquit="1" autoquit_syncmode="0" autoquit_denominator="4" autoquit_numerator="4" gate="0" wet="1" name="vsteffect">
            <vsteffectcontrols param0="0:Bypass:0" guivisible="0" numparams="3" plugin="Effects\DeadDuckSoftware\DD RingMod.dll" param1="1:Rate:0.545" param2="2:Mix:0.28" program="0"/>
            <key>
              <attribute value="Effects\DeadDuckSoftware\DD RingMod.dll" name="file"/>
            </key>
          </effect>
        </fxchain>
        <send channel="5" amount="1"/>
      </mixerchannel>
      <mixerchannel volume="0.7" muted="0" soloed="0" num="7" name="Pizzicato">
        <fxchain enabled="1" numofeffects="1">
          <effect on="1" autoquit="1" autoquit_syncmode="0" autoquit_denominator="4" autoquit_numerator="4" gate="0" wet="1" name="stereomatrix">
            <stereomatrixcontrols r-l="0" r-r="1" l-l="-1" l-r="0"/>
            <key/>
          </effect>
        </fxchain>
        <send channel="1" amount="1"/>
        <send channel="2" amount="1"/>
      </mixerchannel>
      <mixerchannel volume="1" muted="0" soloed="0" num="8" name="Bass">
        <fxchain enabled="1" numofeffects="0"/>
        <send channel="2" amount="0.196"/>
        <send channel="1" amount="1"/>
      </mixerchannel>
      <mixerchannel volume="1" muted="0" soloed="0" num="9" name="Chords">
        <fxchain enabled="1" numofeffects="0"/>
        <send channel="1" amount="1"/>
      </mixerchannel>
      <mixerchannel volume="0.3" muted="0" soloed="0" num="10" name="Chords>Sting">
        <fxchain enabled="1" numofeffects="0"/>
        <send channel="9" amount="1"/>
      </mixerchannel>
      <mixerchannel volume="0.4" muted="0" soloed="0" num="11" name="Chords>Mellow">
        <fxchain enabled="1" numofeffects="0"/>
        <send channel="9" amount="1"/>
      </mixerchannel>
      <mixerchannel volume="0.1" muted="0" soloed="0" num="12" name="Chords>Sweep">
        <fxchain enabled="1" numofeffects="0"/>
        <send channel="9" amount="1"/>
      </mixerchannel>
      <mixerchannel volume="1" muted="0" soloed="0" num="13" name="Drums>Soft">
        <fxchain enabled="1" numofeffects="0"/>
        <send channel="1" amount="1"/>
        <send channel="2" amount="0.3"/>
      </mixerchannel>
      <mixerchannel volume="1" muted="0" soloed="0" num="14" name="Drums>Hard">
        <fxchain enabled="1" numofeffects="0"/>
        <send channel="1" amount="1"/>
        <send channel="2" amount="0.08"/>
      </mixerchannel>
      <mixerchannel volume="0.9" muted="0" soloed="0" num="15" name="Drums>Delay">
        <fxchain enabled="1" numofeffects="1">
          <effect on="1" autoquit="1" autoquit_syncmode="0" autoquit_denominator="4" autoquit_numerator="4" gate="0" wet="1" name="vsteffect">
            <vsteffectcontrols param10="10:Low Cut:0" param7="7:Feedback:0.3" param3="3:Sync:1" param0="0:Pan:0.75" param2="2:Type:0.5" param1="1:Mono:0" param4="4:T.S.N.:0" plugin="Effects\Classic Delay\Classic Delay.dll" param12="12:Mix:0.4" param6="6:Time:0.5" program="0" param5="5:T.S.D.:0.51" param11="11:Hi Cut:0.9" numparams="14" param13="13:Level:0.5" param9="9:Quality:0.7" guivisible="0" param8="8:Ping-Pong:1"/>
            <key>
              <attribute value="Effects\Classic Delay\Classic Delay.dll" name="file"/>
            </key>
          </effect>
        </fxchain>
        <send channel="1" amount="1"/>
        <send channel="2" amount="0.4"/>
      </mixerchannel>
    </mixer>
    <ControllerRackView x="550" minimized="0" width="350" maximized="0" visible="0" y="616" height="200"/>
    <pianoroll x="893" minimized="0" width="970" maximized="0" visible="0" y="16" height="731"/>
    <automationeditor x="945" minimized="0" width="860" maximized="0" visible="0" y="103" height="403"/>
    <projectnotes x="967" minimized="0" width="841" maximized="0" visible="1" y="1" height="582"><![CDATA[<!DOCTYPE HTML PUBLIC "-//W3C//DTD HTML 4.0//EN" "http://www.w3.org/TR/REC-html40/strict.dtd">
<html><head><meta name="qrichtext" content="1" /><style type="text/css">
p, li { white-space: pre-wrap; }
</style></head><body style=" font-family:'MS Shell Dlg 2'; font-size:8.25pt; font-weight:400; font-style:normal;">
<p style=" margin-top:0px; margin-bottom:0px; margin-left:0px; margin-right:0px; -qt-block-indent:0; text-indent:0px;"><span style=" color:#e0e0e0;">Greetings.</span></p>
<p style=" margin-top:0px; margin-bottom:0px; margin-left:0px; margin-right:0px; -qt-block-indent:0; text-indent:0px;"><span style=" color:#e0e0e0;">Please use this in LMMS 1.3 or higher. Previous versions require editing to load correctly.</span></p>
<p style="-qt-paragraph-type:empty; margin-top:0px; margin-bottom:0px; margin-left:0px; margin-right:0px; -qt-block-indent:0; text-indent:0px; color:#e0e0e0;"><br /></p>
<p style=" margin-top:0px; margin-bottom:0px; margin-left:0px; margin-right:0px; -qt-block-indent:0; text-indent:0px;"><span style=" color:#e0e0e0;">Instruments:</span></p>
<p style=" margin-top:0px; margin-bottom:0px; margin-left:0px; margin-right:0px; -qt-block-indent:0; text-indent:0px;">SGM-V2.01: The good ol' SGM soundfont. Wonderful piano. SF2 is freely available.</p>
<p style=" margin-top:0px; margin-bottom:0px; margin-left:0px; margin-right:0px; -qt-block-indent:0; text-indent:0px;">Drums by Ken Ardency: You can find this SF2 on the internet. This is a mono edit that keeps stereo samples, yet removes the toms being shifted left and right.</p>
<p style=" margin-top:0px; margin-bottom:0px; margin-left:0px; margin-right:0px; -qt-block-indent:0; text-indent:0px;">GenesiSF: An SF2 comprised of Sega Genesis/Mega Drive instruments. Freely available.</p>
<p style=" margin-top:0px; margin-bottom:0px; margin-left:0px; margin-right:0px; -qt-block-indent:0; text-indent:0px;">GeneralUser GS: An SF2 suitable for many tasks. Freely available.</p>
<p style="-qt-paragraph-type:empty; margin-top:0px; margin-bottom:0px; margin-left:0px; margin-right:0px; -qt-block-indent:0; text-indent:0px; color:#e0e0e0;"><br /></p>
<p style=" margin-top:0px; margin-bottom:0px; margin-left:0px; margin-right:0px; -qt-block-indent:0; text-indent:0px;"><span style=" color:#e0e0e0;">Classic Delay, Classic Reverb: Kjrhus Audio Classic Collection. Should be available even in the trial version of Acoustica's Mixcraft.</span></p>
<p style=" margin-top:0px; margin-bottom:0px; margin-left:0px; margin-right:0px; -qt-block-indent:0; text-indent:0px;"><span style=" color:#e0e0e0;">DD-Filter, DD-RingMod: Dead Duck MDA variants. Freely available.</span></p>
<p style=" margin-top:0px; margin-bottom:0px; margin-left:0px; margin-right:0px; -qt-block-indent:0; text-indent:0px;"><span style=" color:#e0e0e0;">ChowTapeModel: Freely available.</span></p>
<p style=" margin-top:0px; margin-bottom:0px; margin-left:0px; margin-right:0px; -qt-block-indent:0; text-indent:0px;"><span style=" color:#e0e0e0;">Stereo Matrix: Built into LMMS.</span></p>
<p style="-qt-paragraph-type:empty; margin-top:0px; margin-bottom:0px; margin-left:0px; margin-right:0px; -qt-block-indent:0; text-indent:0px; color:#e0e0e0;"><br /></p>
<p style=" margin-top:0px; margin-bottom:0px; margin-left:0px; margin-right:0px; -qt-block-indent:0; text-indent:0px;"><span style=" color:#e0e0e0;">Released as .mmp, adjust paths as desired.</span></p>
<p style="-qt-paragraph-type:empty; margin-top:0px; margin-bottom:0px; margin-left:0px; margin-right:0px; -qt-block-indent:0; text-indent:0px; color:#e0e0e0;"><br /></p>
<p style="-qt-paragraph-type:empty; margin-top:0px; margin-bottom:0px; margin-left:0px; margin-right:0px; -qt-block-indent:0; text-indent:0px; color:#e0e0e0;"><br /></p>
<p style=" margin-top:0px; margin-bottom:0px; margin-left:0px; margin-right:0px; -qt-block-indent:0; text-indent:0px;">Please note that the author explicitely wishes to have eventual derivates or redistributions distributed ONLY as .mmp files, not .mmpz.</p>
<p style=" margin-top:0px; margin-bottom:0px; margin-left:0px; margin-right:0px; -qt-block-indent:0; text-indent:0px;">There is nothing the license can do from stopping you as saving it as .mmpz, except that the author will insult you severely.</p>
<p style="-qt-paragraph-type:empty; margin-top:0px; margin-bottom:0px; margin-left:0px; margin-right:0px; -qt-block-indent:0; text-indent:0px;"><br /></p>
<p style=" margin-top:0px; margin-bottom:0px; margin-left:0px; margin-right:0px; -qt-block-indent:0; text-indent:0px;">Should you have received this file as an .mmpz, please insult its forwarder.</p>
<p style=" margin-top:0px; margin-bottom:0px; margin-left:0px; margin-right:0px; -qt-block-indent:0; text-indent:0px;">To convert the file into .mmp, follow these steps:</p>
<p style="-qt-paragraph-type:empty; margin-top:0px; margin-bottom:0px; margin-left:0px; margin-right:0px; -qt-block-indent:0; text-indent:0px;"><br /></p>
<p style=" margin-top:0px; margin-bottom:0px; margin-left:0px; margin-right:0px; -qt-block-indent:0; text-indent:0px;">1.: Create a a file called &quot;Decompress.cmd&quot; in the LMMS directory. (Where lmms.exe is located.)</p>
<p style=" margin-top:0px; margin-bottom:0px; margin-left:0px; margin-right:0px; -qt-block-indent:0; text-indent:0px;">2.: Right click on file, click &quot;Edit&quot;.</p>
<p style=" margin-top:0px; margin-bottom:0px; margin-left:0px; margin-right:0px; -qt-block-indent:0; text-indent:0px;">3.: Put the following line into the file:</p>
<p style="-qt-paragraph-type:empty; margin-top:0px; margin-bottom:0px; margin-left:0px; margin-right:0px; -qt-block-indent:0; text-indent:0px;"><br /></p>
<p style=" margin-top:0px; margin-bottom:0px; margin-left:0px; margin-right:0px; -qt-block-indent:0; text-indent:0px;">&quot;%~dp0LMMS.exe&quot; -d &quot;%*&quot; &gt; &quot;%*.mmp&quot;</p>
<p style="-qt-paragraph-type:empty; margin-top:0px; margin-bottom:0px; margin-left:0px; margin-right:0px; -qt-block-indent:0; text-indent:0px;"><br /></p>
<p style=" margin-top:0px; margin-bottom:0px; margin-left:0px; margin-right:0px; -qt-block-indent:0; text-indent:0px;">This does the following:</p>
<p style=" margin-top:0px; margin-bottom:0px; margin-left:0px; margin-right:0px; -qt-block-indent:0; text-indent:0px;">%~dp0 return the folder where the .cmd file is located.</p>
<p style=" margin-top:0px; margin-bottom:0px; margin-left:0px; margin-right:0px; -qt-block-indent:0; text-indent:0px;">It then calls LMMS.exe inside that folder.</p>
<p style=" margin-top:0px; margin-bottom:0px; margin-left:0px; margin-right:0px; -qt-block-indent:0; text-indent:0px;">-d is the decompress option for an .mmpz file.</p>
<p style=" margin-top:0px; margin-bottom:0px; margin-left:0px; margin-right:0px; -qt-block-indent:0; text-indent:0px;">%* returns any parameters given to the .cmd file.</p>
<p style=" margin-top:0px; margin-bottom:0px; margin-left:0px; margin-right:0px; -qt-block-indent:0; text-indent:0px;">&gt; sends the output into a file.</p>
<p style="-qt-paragraph-type:empty; margin-top:0px; margin-bottom:0px; margin-left:0px; margin-right:0px; -qt-block-indent:0; text-indent:0px;"><br /></p>
<p style=" margin-top:0px; margin-bottom:0px; margin-left:0px; margin-right:0px; -qt-block-indent:0; text-indent:0px;">If you drag an .mmpz file onto the .cmd file, it will decompress it into &quot;[filename].mmpz.mmp&quot;, at the original location.</p>
<p style="-qt-paragraph-type:empty; margin-top:0px; margin-bottom:0px; margin-left:0px; margin-right:0px; -qt-block-indent:0; text-indent:0px;"><br /></p></body></html>]]></projectnotes>
    <timeline lpstate="1" lp1pos="16128" lp0pos="0" stopbehaviour="1"/>
    <controllers/>
    <scales>
      <scale description="empty">
        <interval den="1" num="1"/>
      </scale>
      <scale description="empty">
        <interval den="1" num="1"/>
      </scale>
      <scale description="empty">
        <interval den="1" num="1"/>
      </scale>
      <scale description="empty">
        <interval den="1" num="1"/>
      </scale>
      <scale description="empty">
        <interval den="1" num="1"/>
      </scale>
      <scale description="empty">
        <interval den="1" num="1"/>
      </scale>
      <scale description="empty">
        <interval den="1" num="1"/>
      </scale>
      <scale description="empty">
        <interval den="1" num="1"/>
      </scale>
      <scale description="empty">
        <interval den="1" num="1"/>
      </scale>
      <scale description="empty">
        <interval den="1" num="1"/>
      </scale>
    </scales>
    <keymaps>
      <keymap description="empty" base_freq="440" last_key="127" first_key="0" base_key="69" middle_key="60"/>
      <keymap description="empty" base_freq="440" last_key="127" first_key="0" base_key="69" middle_key="60"/>
      <keymap description="empty" base_freq="440" last_key="127" first_key="0" base_key="69" middle_key="60"/>
      <keymap description="empty" base_freq="440" last_key="127" first_key="0" base_key="69" middle_key="60"/>
      <keymap description="empty" base_freq="440" last_key="127" first_key="0" base_key="69" middle_key="60"/>
      <keymap description="empty" base_freq="440" last_key="127" first_key="0" base_key="69" middle_key="60"/>
      <keymap description="empty" base_freq="440" last_key="127" first_key="0" base_key="69" middle_key="60"/>
      <keymap description="empty" base_freq="440" last_key="127" first_key="0" base_key="69" middle_key="60"/>
      <keymap description="empty" base_freq="440" last_key="127" first_key="0" base_key="69" middle_key="60"/>
      <keymap description="empty" base_freq="440" last_key="127" first_key="0" base_key="69" middle_key="60"/>
    </keymaps>
  </song>
</lmms-project>
