<?xml version="1.0"?>
<!DOCTYPE multimedia-project>
<multimedia-project version="1.0" creator="Linux MultiMedia Studio (LMMS)" creatorversion="0.4.13" type="song">
  <head timesig_numerator="4" mastervol="100" timesig_denominator="4" masterpitch="0">
    <bpm value="120" id="3727289"/>
  </head>
  <song>
    <trackcontainer width="1096" x="5" y="5" maximized="0" height="734" visible="1" type="song" minimized="0">
      <track muted="0" type="0" name="Standard-Preset">
        <instrumenttrack pan="0" fxch="0" pitch="0" basenote="57" vol="100">
          <instrument name="tripleoscillator">
            <tripleoscillator phoffset2="0" userwavefile0="" finer0="0" userwavefile1="" finer1="0" userwavefile2="" finer2="0" coarse0="0" coarse1="-12" coarse2="-24" finel0="0" finel1="0" modalgo1="2" modalgo2="2" finel2="0" pan0="0" modalgo3="2" pan1="0" stphdetun0="0" pan2="0" stphdetun1="0" wavetype0="0" stphdetun2="0" wavetype1="0" wavetype2="0" vol0="33" vol1="33" phoffset0="0" phoffset1="0" vol2="33"/>
          </instrument>
          <eldata fres="0.5" ftype="0" fcut="14000" fwet="0">
            <elvol lspd_denominator="4" pdel="0" userwavefile="" dec="0.5" lamt="0" syncmode="0" latt="0" rel="0.1" sus="0.5" amt="0" x100="0" att="0" lpdel="0" hold="0.5" lshp="0" lspd="0.1" ctlenvamt="0" lspd_numerator="4"/>
            <elcut lspd_denominator="4" pdel="0" userwavefile="" dec="0.5" lamt="0" syncmode="0" latt="0" rel="0.1" sus="0.5" amt="0" x100="0" att="0" lpdel="0" hold="0.5" lshp="0" lspd="0.1" ctlenvamt="0" lspd_numerator="4"/>
            <elres lspd_denominator="4" pdel="0" userwavefile="" dec="0.5" lamt="0" syncmode="0" latt="0" rel="0.1" sus="0.5" amt="0" x100="0" att="0" lpdel="0" hold="0.5" lshp="0" lspd="0.1" ctlenvamt="0" lspd_numerator="4"/>
          </eldata>
          <chordcreator chord="0" chordrange="1" chord-enabled="0"/>
          <arpeggiator arptime="100" arprange="1" arptime_denominator="4" syncmode="0" arpmode="0" arp-enabled="0" arp="0" arptime_numerator="4" arpdir="0" arpgate="100"/>
          <midiport inputcontroller="0" fixedoutputvelocity="-1" inputchannel="0" outputcontroller="0" writable="0" outputchannel="1" fixedinputvelocity="-1" outputprogram="1" readable="0"/>
          <fxchain numofeffects="0" enabled="0"/>
        </instrumenttrack>
      </track>
      <track muted="0" type="2" name="Sample-Spur">
        <sampletrack vol="100">
          <fxchain numofeffects="0" enabled="0"/>
        </sampletrack>
      </track>
      <track muted="0" type="1" name="Beat/Bassline 0">
        <bbtrack>
          <trackcontainer width="504" x="610" y="5" maximized="0" height="300" visible="1" type="bbtrackcontainer" minimized="0">
            <track muted="0" type="0" name="Standard-Preset">
              <instrumenttrack pan="0" fxch="0" pitch="0" basenote="57" vol="100">
                <instrument name="tripleoscillator">
                  <tripleoscillator phoffset2="0" userwavefile0="" finer0="0" userwavefile1="" finer1="0" userwavefile2="" finer2="0" coarse0="0" coarse1="-12" coarse2="-24" finel0="0" finel1="0" modalgo1="2" modalgo2="2" finel2="0" pan0="0" modalgo3="2" pan1="0" stphdetun0="0" pan2="0" stphdetun1="0" wavetype0="0" stphdetun2="0" wavetype1="0" wavetype2="0" vol0="33" vol1="33" phoffset0="0" phoffset1="0" vol2="33"/>
                </instrument>
                <eldata fres="0.5" ftype="0" fcut="14000" fwet="0">
                  <elvol lspd_denominator="4" pdel="0" userwavefile="" dec="0.5" lamt="0" syncmode="0" latt="0" rel="0.1" sus="0.5" amt="0" x100="0" att="0" lpdel="0" hold="0.5" lshp="0" lspd="0.1" ctlenvamt="0" lspd_numerator="4"/>
                  <elcut lspd_denominator="4" pdel="0" userwavefile="" dec="0.5" lamt="0" syncmode="0" latt="0" rel="0.1" sus="0.5" amt="0" x100="0" att="0" lpdel="0" hold="0.5" lshp="0" lspd="0.1" ctlenvamt="0" lspd_numerator="4"/>
                  <elres lspd_denominator="4" pdel="0" userwavefile="" dec="0.5" lamt="0" syncmode="0" latt="0" rel="0.1" sus="0.5" amt="0" x100="0" att="0" lpdel="0" hold="0.5" lshp="0" lspd="0.1" ctlenvamt="0" lspd_numerator="4"/>
                </eldata>
                <chordcreator chord="0" chordrange="1" chord-enabled="0"/>
                <arpeggiator arptime="100" arprange="1" arptime_denominator="4" syncmode="0" arpmode="0" arp-enabled="0" arp="0" arptime_numerator="4" arpdir="0" arpgate="100"/>
                <midiport inputcontroller="0" fixedoutputvelocity="-1" inputchannel="0" outputcontroller="0" writable="0" outputchannel="1" fixedinputvelocity="-1" outputprogram="1" readable="0"/>
                <fxchain numofeffects="0" enabled="0"/>
              </instrumenttrack>
              <pattern steps="16" muted="0" type="0" name="Standard-Preset" pos="0" len="192" frozen="0"/>
            </track>
          </trackcontainer>
        </bbtrack>
      </track>
      <track muted="0" type="5" name="Automation track">
        <automationtrack/>
      </track>
      <track muted="0" type="0" name="Standard-Preset">
        <instrumenttrack pan="0" fxch="0" pitch="0" basenote="57" vol="124.5">
          <instrument name="sf2player">
            <sf2player patch="29" chorusLevel="2" chorusDepth="8" reverbOn="0" reverbRoomSize="0.2" chorusOn="0" chorusSpeed="0.3" reverbDamping="0" chorusNum="3" reverbLevel="0.9" bank="0" reverbWidth="0.5" src="C:\VST32\Soundfonts\SF2\GenesiSF.SF2" gain="1"/>
          </instrument>
          <eldata fres="0.5" ftype="0" fcut="14000" fwet="0">
            <elvol lspd_denominator="4" pdel="0" userwavefile="" dec="0.5" lamt="0" syncmode="0" latt="0" rel="0.1" sus="0.5" amt="0" x100="0" att="0" lpdel="0" hold="0.5" lshp="0" lspd="0.1" ctlenvamt="0" lspd_numerator="4"/>
            <elcut lspd_denominator="4" pdel="0" userwavefile="" dec="0.5" lamt="0" syncmode="0" latt="0" rel="0.1" sus="0.5" amt="0" x100="0" att="0" lpdel="0" hold="0.5" lshp="0" lspd="0.1" ctlenvamt="0" lspd_numerator="4"/>
            <elres lspd_denominator="4" pdel="0" userwavefile="" dec="0.5" lamt="0" syncmode="0" latt="0" rel="0.1" sus="0.5" amt="0" x100="0" att="0" lpdel="0" hold="0.5" lshp="0" lspd="0.1" ctlenvamt="0" lspd_numerator="4"/>
          </eldata>
          <chordcreator chord="0" chordrange="1" chord-enabled="0"/>
          <arpeggiator arptime="100" arprange="1" arptime_denominator="4" syncmode="0" arpmode="0" arp-enabled="0" arp="0" arptime_numerator="4" arpdir="0" arpgate="100"/>
          <midiport inputcontroller="0" fixedoutputvelocity="-1" inputchannel="0" outputcontroller="0" writable="0" outputchannel="1" fixedinputvelocity="-1" outputprogram="1" readable="0"/>
          <fxchain numofeffects="0" enabled="0"/>
        </instrumenttrack>
        <pattern steps="16" muted="0" type="1" name="Standard-Preset" pos="3648" len="3264" frozen="0">
          <note pan="0" key="52" vol="60" pos="144" len="48"/>
          <note pan="0" key="57" vol="60" pos="192" len="192"/>
          <note pan="0" key="59" vol="60" pos="384" len="72"/>
          <note pan="0" key="60" vol="60" pos="456" len="72"/>
          <note pan="0" key="52" vol="60" pos="528" len="48"/>
          <note pan="0" key="57" vol="60" pos="576" len="192"/>
          <note pan="0" key="59" vol="60" pos="768" len="48"/>
          <note pan="0" key="60" vol="60" pos="816" len="48"/>
          <note pan="0" key="64" vol="60" pos="864" len="72"/>
          <note pan="0" key="52" vol="60" pos="936" len="12"/>
          <note pan="0" key="57" vol="60" pos="948" len="12"/>
          <note pan="0" key="55" vol="60" pos="960" len="96"/>
          <note pan="0" key="50" vol="60" pos="1056" len="96"/>
          <note pan="0" key="55" vol="60" pos="1152" len="72"/>
          <note pan="0" key="50" vol="60" pos="1224" len="120"/>
          <note pan="0" key="52" vol="60" pos="1344" len="384"/>
          <note pan="0" key="45" vol="60" pos="1440" len="288"/>
          <note pan="0" key="40" vol="60" pos="1536" len="192"/>
          <note pan="0" key="33" vol="60" pos="1632" len="96"/>
          <note pan="0" key="45" vol="60" pos="1728" len="384"/>
          <note pan="0" key="52" vol="60" pos="1728" len="336"/>
          <note pan="0" key="57" vol="60" pos="1728" len="192"/>
          <note pan="0" key="59" vol="60" pos="1920" len="72"/>
          <note pan="0" key="60" vol="60" pos="1992" len="72"/>
          <note pan="0" key="52" vol="60" pos="2064" len="48"/>
          <note pan="0" key="45" vol="60" pos="2112" len="384"/>
          <note pan="0" key="52" vol="60" pos="2112" len="360"/>
          <note pan="0" key="57" vol="60" pos="2112" len="192"/>
          <note pan="0" key="59" vol="60" pos="2304" len="48"/>
          <note pan="0" key="60" vol="60" pos="2352" len="48"/>
          <note pan="0" key="64" vol="60" pos="2400" len="72"/>
          <note pan="0" key="52" vol="60" pos="2472" len="12"/>
          <note pan="0" key="57" vol="60" pos="2484" len="12"/>
          <note pan="0" key="43" vol="60" pos="2496" len="192"/>
          <note pan="0" key="50" vol="60" pos="2496" len="96"/>
          <note pan="0" key="55" vol="60" pos="2496" len="96"/>
          <note pan="0" key="47" vol="60" pos="2592" len="96"/>
          <note pan="0" key="50" vol="60" pos="2592" len="96"/>
          <note pan="0" key="50" vol="60" pos="2688" len="72"/>
          <note pan="0" key="43" vol="60" pos="2688" len="192"/>
          <note pan="0" key="55" vol="60" pos="2688" len="72"/>
          <note pan="0" key="50" vol="60" pos="2760" len="72"/>
          <note pan="0" key="47" vol="60" pos="2760" len="120"/>
          <note pan="0" key="55" vol="60" pos="2832" len="48"/>
          <note pan="0" key="50" vol="60" pos="2880" len="192"/>
          <note pan="0" key="45" vol="60" pos="2880" len="384"/>
          <note pan="0" key="57" vol="60" pos="2880" len="384"/>
          <note pan="0" key="49" vol="60" pos="3072" len="192"/>
          <note pan="0" key="33" vol="60" pos="3168" len="96"/>
        </pattern>
      </track>
      <track muted="0" type="0" name="Standard-Preset">
        <instrumenttrack pan="49.6" fxch="0" pitch="0" basenote="57" vol="66.5">
          <instrument name="sf2player">
            <sf2player patch="29" chorusLevel="2" chorusDepth="8" reverbOn="0" reverbRoomSize="0.2" chorusOn="0" chorusSpeed="0.3" reverbDamping="0" chorusNum="3" reverbLevel="0.9" bank="0" reverbWidth="0.5" src="C:\VST32\Soundfonts\SF2\GenesiSF.SF2" gain="1"/>
          </instrument>
          <eldata fres="0.5" ftype="0" fcut="14000" fwet="0">
            <elvol lspd_denominator="4" pdel="0" userwavefile="" dec="0.5" lamt="0" syncmode="0" latt="0" rel="0.1" sus="0.5" amt="0" x100="0" att="0" lpdel="0" hold="0.5" lshp="0" lspd="0.1" ctlenvamt="0" lspd_numerator="4"/>
            <elcut lspd_denominator="4" pdel="0" userwavefile="" dec="0.5" lamt="0" syncmode="0" latt="0" rel="0.1" sus="0.5" amt="0" x100="0" att="0" lpdel="0" hold="0.5" lshp="0" lspd="0.1" ctlenvamt="0" lspd_numerator="4"/>
            <elres lspd_denominator="4" pdel="0" userwavefile="" dec="0.5" lamt="0" syncmode="0" latt="0" rel="0.1" sus="0.5" amt="0" x100="0" att="0" lpdel="0" hold="0.5" lshp="0" lspd="0.1" ctlenvamt="0" lspd_numerator="4"/>
          </eldata>
          <chordcreator chord="0" chordrange="1" chord-enabled="0"/>
          <arpeggiator arptime="100" arprange="1" arptime_denominator="4" syncmode="0" arpmode="0" arp-enabled="0" arp="0" arptime_numerator="4" arpdir="0" arpgate="100"/>
          <midiport inputcontroller="0" fixedoutputvelocity="-1" inputchannel="0" outputcontroller="0" writable="0" outputchannel="1" fixedinputvelocity="-1" outputprogram="1" readable="0"/>
          <fxchain numofeffects="0" enabled="0"/>
        </instrumenttrack>
        <pattern steps="16" muted="0" type="1" name="Standard-Preset" pos="3648" len="3456" frozen="0">
          <note pan="0" key="52" vol="60" pos="168" len="48"/>
          <note pan="0" key="57" vol="60" pos="216" len="192"/>
          <note pan="0" key="59" vol="60" pos="408" len="72"/>
          <note pan="0" key="60" vol="60" pos="480" len="72"/>
          <note pan="0" key="52" vol="60" pos="552" len="48"/>
          <note pan="0" key="57" vol="60" pos="600" len="192"/>
          <note pan="0" key="59" vol="60" pos="792" len="48"/>
          <note pan="0" key="60" vol="60" pos="840" len="48"/>
          <note pan="0" key="64" vol="60" pos="888" len="72"/>
          <note pan="0" key="52" vol="60" pos="960" len="12"/>
          <note pan="0" key="57" vol="60" pos="972" len="12"/>
          <note pan="0" key="55" vol="60" pos="984" len="96"/>
          <note pan="0" key="50" vol="60" pos="1080" len="96"/>
          <note pan="0" key="55" vol="60" pos="1176" len="72"/>
          <note pan="0" key="50" vol="60" pos="1248" len="120"/>
          <note pan="0" key="52" vol="60" pos="1368" len="384"/>
          <note pan="0" key="45" vol="60" pos="1464" len="288"/>
          <note pan="0" key="40" vol="60" pos="1560" len="192"/>
          <note pan="0" key="33" vol="60" pos="1656" len="96"/>
          <note pan="0" key="57" vol="60" pos="1752" len="192"/>
          <note pan="0" key="52" vol="60" pos="1752" len="336"/>
          <note pan="0" key="45" vol="60" pos="1752" len="384"/>
          <note pan="0" key="59" vol="60" pos="1944" len="72"/>
          <note pan="0" key="60" vol="60" pos="2016" len="72"/>
          <note pan="0" key="52" vol="60" pos="2088" len="48"/>
          <note pan="0" key="45" vol="60" pos="2136" len="384"/>
          <note pan="0" key="52" vol="60" pos="2136" len="360"/>
          <note pan="0" key="57" vol="60" pos="2136" len="192"/>
          <note pan="0" key="59" vol="60" pos="2328" len="48"/>
          <note pan="0" key="60" vol="60" pos="2376" len="48"/>
          <note pan="0" key="64" vol="60" pos="2424" len="72"/>
          <note pan="0" key="52" vol="60" pos="2496" len="12"/>
          <note pan="0" key="57" vol="60" pos="2508" len="12"/>
          <note pan="0" key="55" vol="60" pos="2520" len="96"/>
          <note pan="0" key="50" vol="60" pos="2520" len="96"/>
          <note pan="0" key="43" vol="60" pos="2520" len="192"/>
          <note pan="0" key="47" vol="60" pos="2616" len="96"/>
          <note pan="0" key="50" vol="60" pos="2616" len="96"/>
          <note pan="0" key="50" vol="60" pos="2712" len="72"/>
          <note pan="0" key="43" vol="60" pos="2712" len="192"/>
          <note pan="0" key="55" vol="60" pos="2712" len="72"/>
          <note pan="0" key="50" vol="60" pos="2784" len="72"/>
          <note pan="0" key="47" vol="60" pos="2784" len="120"/>
          <note pan="0" key="55" vol="60" pos="2856" len="48"/>
          <note pan="0" key="50" vol="60" pos="2904" len="192"/>
          <note pan="0" key="45" vol="60" pos="2904" len="384"/>
          <note pan="0" key="57" vol="60" pos="2904" len="384"/>
          <note pan="0" key="49" vol="60" pos="3096" len="192"/>
          <note pan="0" key="33" vol="60" pos="3192" len="96"/>
        </pattern>
      </track>
      <track muted="0" type="0" name="Standard-Preset">
        <instrumenttrack pan="-49.6" fxch="0" pitch="0" basenote="57" vol="23.6">
          <instrument name="sf2player">
            <sf2player patch="29" chorusLevel="2" chorusDepth="8" reverbOn="0" reverbRoomSize="0.2" chorusOn="0" chorusSpeed="0.3" reverbDamping="0" chorusNum="3" reverbLevel="0.9" bank="0" reverbWidth="0.5" src="C:\VST32\Soundfonts\SF2\GenesiSF.SF2" gain="1"/>
          </instrument>
          <eldata fres="0.5" ftype="0" fcut="14000" fwet="0">
            <elvol lspd_denominator="4" pdel="0" userwavefile="" dec="0.5" lamt="0" syncmode="0" latt="0" rel="0.1" sus="0.5" amt="0" x100="0" att="0" lpdel="0" hold="0.5" lshp="0" lspd="0.1" ctlenvamt="0" lspd_numerator="4"/>
            <elcut lspd_denominator="4" pdel="0" userwavefile="" dec="0.5" lamt="0" syncmode="0" latt="0" rel="0.1" sus="0.5" amt="0" x100="0" att="0" lpdel="0" hold="0.5" lshp="0" lspd="0.1" ctlenvamt="0" lspd_numerator="4"/>
            <elres lspd_denominator="4" pdel="0" userwavefile="" dec="0.5" lamt="0" syncmode="0" latt="0" rel="0.1" sus="0.5" amt="0" x100="0" att="0" lpdel="0" hold="0.5" lshp="0" lspd="0.1" ctlenvamt="0" lspd_numerator="4"/>
          </eldata>
          <chordcreator chord="0" chordrange="1" chord-enabled="0"/>
          <arpeggiator arptime="100" arprange="1" arptime_denominator="4" syncmode="0" arpmode="0" arp-enabled="0" arp="0" arptime_numerator="4" arpdir="0" arpgate="100"/>
          <midiport inputcontroller="0" fixedoutputvelocity="-1" inputchannel="0" outputcontroller="0" writable="0" outputchannel="1" fixedinputvelocity="-1" outputprogram="1" readable="0"/>
          <fxchain numofeffects="0" enabled="0"/>
        </instrumenttrack>
        <pattern steps="16" muted="0" type="1" name="Standard-Preset" pos="3840" len="3264" frozen="0">
          <note pan="0" key="52" vol="60" pos="0" len="48"/>
          <note pan="0" key="57" vol="60" pos="48" len="192"/>
          <note pan="0" key="59" vol="60" pos="240" len="72"/>
          <note pan="0" key="60" vol="60" pos="312" len="72"/>
          <note pan="0" key="52" vol="60" pos="384" len="48"/>
          <note pan="0" key="57" vol="60" pos="432" len="192"/>
          <note pan="0" key="59" vol="60" pos="624" len="48"/>
          <note pan="0" key="60" vol="60" pos="672" len="48"/>
          <note pan="0" key="64" vol="60" pos="720" len="72"/>
          <note pan="0" key="52" vol="60" pos="792" len="12"/>
          <note pan="0" key="57" vol="60" pos="804" len="12"/>
          <note pan="0" key="55" vol="60" pos="816" len="96"/>
          <note pan="0" key="50" vol="60" pos="912" len="96"/>
          <note pan="0" key="55" vol="60" pos="1008" len="72"/>
          <note pan="0" key="50" vol="60" pos="1080" len="120"/>
          <note pan="0" key="52" vol="60" pos="1200" len="384"/>
          <note pan="0" key="45" vol="60" pos="1296" len="288"/>
          <note pan="0" key="40" vol="60" pos="1392" len="192"/>
          <note pan="0" key="33" vol="60" pos="1488" len="96"/>
          <note pan="0" key="45" vol="60" pos="1584" len="384"/>
          <note pan="0" key="52" vol="60" pos="1584" len="336"/>
          <note pan="0" key="57" vol="60" pos="1584" len="192"/>
          <note pan="0" key="59" vol="60" pos="1776" len="72"/>
          <note pan="0" key="60" vol="60" pos="1848" len="72"/>
          <note pan="0" key="52" vol="60" pos="1920" len="48"/>
          <note pan="0" key="45" vol="60" pos="1968" len="384"/>
          <note pan="0" key="52" vol="60" pos="1968" len="360"/>
          <note pan="0" key="57" vol="60" pos="1968" len="192"/>
          <note pan="0" key="59" vol="60" pos="2160" len="48"/>
          <note pan="0" key="60" vol="60" pos="2208" len="48"/>
          <note pan="0" key="64" vol="60" pos="2256" len="72"/>
          <note pan="0" key="52" vol="60" pos="2328" len="12"/>
          <note pan="0" key="57" vol="60" pos="2340" len="12"/>
          <note pan="0" key="43" vol="60" pos="2352" len="192"/>
          <note pan="0" key="50" vol="60" pos="2352" len="96"/>
          <note pan="0" key="55" vol="60" pos="2352" len="96"/>
          <note pan="0" key="47" vol="60" pos="2448" len="96"/>
          <note pan="0" key="50" vol="60" pos="2448" len="96"/>
          <note pan="0" key="50" vol="60" pos="2544" len="72"/>
          <note pan="0" key="43" vol="60" pos="2544" len="192"/>
          <note pan="0" key="55" vol="60" pos="2544" len="72"/>
          <note pan="0" key="50" vol="60" pos="2616" len="72"/>
          <note pan="0" key="47" vol="60" pos="2616" len="120"/>
          <note pan="0" key="55" vol="60" pos="2688" len="48"/>
          <note pan="0" key="50" vol="60" pos="2736" len="192"/>
          <note pan="0" key="45" vol="60" pos="2736" len="384"/>
          <note pan="0" key="57" vol="60" pos="2736" len="384"/>
          <note pan="0" key="49" vol="60" pos="2928" len="192"/>
          <note pan="0" key="33" vol="60" pos="3024" len="96"/>
        </pattern>
      </track>
      <track muted="0" type="0" name="Standard-Preset">
        <instrumenttrack pan="0.8" fxch="0" pitch="0" basenote="57" vol="100">
          <instrument name="sf2player">
            <sf2player patch="26" chorusLevel="2" chorusDepth="8" reverbOn="0" reverbRoomSize="0.2" chorusOn="0" chorusSpeed="0.3" reverbDamping="0" chorusNum="3" reverbLevel="0.9" bank="0" reverbWidth="0.5" src="C:\VST32\Soundfonts\SF2\GenesiSF.SF2" gain="1"/>
          </instrument>
          <eldata fres="0.5" ftype="0" fcut="14000" fwet="0">
            <elvol lspd_denominator="4" pdel="0" userwavefile="" dec="0.5" lamt="0" syncmode="0" latt="0" rel="0.1" sus="0.5" amt="0" x100="0" att="0" lpdel="0" hold="0.5" lshp="0" lspd="0.1" ctlenvamt="0" lspd_numerator="4"/>
            <elcut lspd_denominator="4" pdel="0" userwavefile="" dec="0.5" lamt="0" syncmode="0" latt="0" rel="0.1" sus="0.5" amt="0" x100="0" att="0" lpdel="0" hold="0.5" lshp="0" lspd="0.1" ctlenvamt="0" lspd_numerator="4"/>
            <elres lspd_denominator="4" pdel="0" userwavefile="" dec="0.5" lamt="0" syncmode="0" latt="0" rel="0.1" sus="0.5" amt="0" x100="0" att="0" lpdel="0" hold="0.5" lshp="0" lspd="0.1" ctlenvamt="0" lspd_numerator="4"/>
          </eldata>
          <chordcreator chord="0" chordrange="1" chord-enabled="0"/>
          <arpeggiator arptime="100" arprange="1" arptime_denominator="4" syncmode="0" arpmode="0" arp-enabled="0" arp="0" arptime_numerator="4" arpdir="0" arpgate="100"/>
          <midiport inputcontroller="0" fixedoutputvelocity="-1" inputchannel="0" outputcontroller="0" writable="0" outputchannel="1" fixedinputvelocity="-1" outputprogram="1" readable="0"/>
          <fxchain numofeffects="0" enabled="0"/>
        </instrumenttrack>
        <pattern steps="16" muted="0" type="1" name="Standard-Preset" pos="768" len="5952" frozen="0">
          <note pan="0" key="57" vol="60" pos="0" len="12"/>
          <note pan="0" key="52" vol="60" pos="12" len="12"/>
          <note pan="0" key="57" vol="60" pos="24" len="12"/>
          <note pan="0" key="52" vol="60" pos="36" len="12"/>
          <note pan="0" key="57" vol="60" pos="48" len="12"/>
          <note pan="0" key="59" vol="60" pos="60" len="12"/>
          <note pan="0" key="60" vol="60" pos="72" len="24"/>
          <note pan="0" key="64" vol="60" pos="144" len="24"/>
          <note pan="0" key="62" vol="60" pos="168" len="12"/>
          <note pan="0" key="59" vol="60" pos="180" len="12"/>
          <note pan="0" key="57" vol="60" pos="192" len="12"/>
          <note pan="0" key="52" vol="60" pos="204" len="12"/>
          <note pan="0" key="57" vol="60" pos="216" len="72"/>
          <note pan="0" key="53" vol="60" pos="288" len="36"/>
          <note pan="0" key="55" vol="60" pos="324" len="36"/>
          <note pan="0" key="52" vol="60" pos="360" len="24"/>
          <note pan="0" key="57" vol="60" pos="384" len="12"/>
          <note pan="0" key="52" vol="60" pos="396" len="12"/>
          <note pan="0" key="57" vol="60" pos="408" len="12"/>
          <note pan="0" key="52" vol="60" pos="420" len="12"/>
          <note pan="0" key="57" vol="60" pos="432" len="12"/>
          <note pan="0" key="59" vol="60" pos="444" len="12"/>
          <note pan="0" key="60" vol="60" pos="456" len="72"/>
          <note pan="0" key="59" vol="60" pos="528" len="24"/>
          <note pan="0" key="64" vol="60" pos="552" len="96"/>
          <note pan="0" key="64" vol="60" pos="672" len="36"/>
          <note pan="0" key="62" vol="60" pos="708" len="36"/>
          <note pan="0" key="57" vol="60" pos="744" len="24"/>
          <note pan="0" key="55" vol="60" pos="768" len="24"/>
          <note pan="0" key="50" vol="60" pos="804" len="24"/>
          <note pan="0" key="55" vol="60" pos="840" len="24"/>
          <note pan="0" key="50" vol="60" pos="876" len="24"/>
          <note pan="0" key="55" vol="60" pos="912" len="24"/>
          <note pan="0" key="56" vol="60" pos="936" len="24"/>
          <note pan="0" key="55" vol="60" pos="960" len="24"/>
          <note pan="0" key="50" vol="60" pos="996" len="24"/>
          <note pan="0" key="55" vol="60" pos="1032" len="24"/>
          <note pan="0" key="50" vol="60" pos="1068" len="24"/>
          <note pan="0" key="55" vol="60" pos="1104" len="24"/>
          <note pan="0" key="59" vol="60" pos="1128" len="24"/>
          <note pan="0" key="57" vol="60" pos="1152" len="192"/>
          <note pan="0" key="45" vol="60" pos="1248" len="96"/>
          <note pan="0" key="57" vol="60" pos="1536" len="12"/>
          <note pan="0" key="52" vol="60" pos="1548" len="12"/>
          <note pan="0" key="57" vol="60" pos="1560" len="12"/>
          <note pan="0" key="52" vol="60" pos="1572" len="12"/>
          <note pan="0" key="57" vol="60" pos="1584" len="12"/>
          <note pan="0" key="59" vol="60" pos="1596" len="12"/>
          <note pan="0" key="60" vol="60" pos="1608" len="24"/>
          <note pan="0" key="64" vol="60" pos="1680" len="24"/>
          <note pan="0" key="62" vol="60" pos="1704" len="12"/>
          <note pan="0" key="59" vol="60" pos="1716" len="12"/>
          <note pan="0" key="57" vol="60" pos="1728" len="12"/>
          <note pan="0" key="52" vol="60" pos="1740" len="12"/>
          <note pan="0" key="57" vol="60" pos="1752" len="72"/>
          <note pan="0" key="53" vol="60" pos="1824" len="36"/>
          <note pan="0" key="55" vol="60" pos="1860" len="36"/>
          <note pan="0" key="52" vol="60" pos="1896" len="24"/>
          <note pan="0" key="57" vol="60" pos="1920" len="12"/>
          <note pan="0" key="52" vol="60" pos="1932" len="12"/>
          <note pan="0" key="57" vol="60" pos="1944" len="12"/>
          <note pan="0" key="52" vol="60" pos="1956" len="12"/>
          <note pan="0" key="57" vol="60" pos="1968" len="12"/>
          <note pan="0" key="59" vol="60" pos="1980" len="12"/>
          <note pan="0" key="60" vol="60" pos="1992" len="72"/>
          <note pan="0" key="59" vol="60" pos="2064" len="24"/>
          <note pan="0" key="64" vol="60" pos="2088" len="96"/>
          <note pan="0" key="64" vol="60" pos="2208" len="36"/>
          <note pan="0" key="62" vol="60" pos="2244" len="36"/>
          <note pan="0" key="57" vol="60" pos="2280" len="24"/>
          <note pan="0" key="55" vol="60" pos="2304" len="24"/>
          <note pan="0" key="50" vol="60" pos="2340" len="24"/>
          <note pan="0" key="55" vol="60" pos="2376" len="24"/>
          <note pan="0" key="50" vol="60" pos="2412" len="24"/>
          <note pan="0" key="55" vol="60" pos="2448" len="24"/>
          <note pan="0" key="56" vol="60" pos="2472" len="24"/>
          <note pan="0" key="55" vol="60" pos="2496" len="24"/>
          <note pan="0" key="50" vol="60" pos="2532" len="24"/>
          <note pan="0" key="55" vol="60" pos="2568" len="24"/>
          <note pan="0" key="50" vol="60" pos="2604" len="24"/>
          <note pan="0" key="55" vol="60" pos="2640" len="24"/>
          <note pan="0" key="59" vol="60" pos="2664" len="24"/>
          <note pan="0" key="57" vol="60" pos="2688" len="192"/>
          <note pan="0" key="45" vol="60" pos="2784" len="96"/>
          <note pan="0" key="57" vol="60" pos="3072" len="12"/>
          <note pan="0" key="52" vol="60" pos="3084" len="12"/>
          <note pan="0" key="57" vol="60" pos="3096" len="12"/>
          <note pan="0" key="52" vol="60" pos="3108" len="12"/>
          <note pan="0" key="57" vol="60" pos="3120" len="12"/>
          <note pan="0" key="59" vol="60" pos="3132" len="12"/>
          <note pan="0" key="60" vol="60" pos="3144" len="24"/>
          <note pan="0" key="64" vol="60" pos="3216" len="24"/>
          <note pan="0" key="62" vol="60" pos="3240" len="12"/>
          <note pan="0" key="59" vol="60" pos="3252" len="12"/>
          <note pan="0" key="57" vol="60" pos="3264" len="12"/>
          <note pan="0" key="52" vol="60" pos="3276" len="12"/>
          <note pan="0" key="57" vol="60" pos="3288" len="72"/>
          <note pan="0" key="53" vol="60" pos="3360" len="36"/>
          <note pan="0" key="55" vol="60" pos="3396" len="36"/>
          <note pan="0" key="52" vol="60" pos="3432" len="24"/>
          <note pan="0" key="57" vol="60" pos="3456" len="12"/>
          <note pan="0" key="52" vol="60" pos="3468" len="12"/>
          <note pan="0" key="57" vol="60" pos="3480" len="12"/>
          <note pan="0" key="52" vol="60" pos="3492" len="12"/>
          <note pan="0" key="57" vol="60" pos="3504" len="12"/>
          <note pan="0" key="59" vol="60" pos="3516" len="12"/>
          <note pan="0" key="60" vol="60" pos="3528" len="72"/>
          <note pan="0" key="59" vol="60" pos="3600" len="24"/>
          <note pan="0" key="64" vol="60" pos="3624" len="96"/>
          <note pan="0" key="64" vol="60" pos="3744" len="36"/>
          <note pan="0" key="62" vol="60" pos="3780" len="36"/>
          <note pan="0" key="57" vol="60" pos="3816" len="24"/>
          <note pan="0" key="55" vol="60" pos="3840" len="24"/>
          <note pan="0" key="50" vol="60" pos="3876" len="24"/>
          <note pan="0" key="55" vol="60" pos="3912" len="24"/>
          <note pan="0" key="50" vol="60" pos="3948" len="24"/>
          <note pan="0" key="55" vol="60" pos="3984" len="24"/>
          <note pan="0" key="56" vol="60" pos="4008" len="24"/>
          <note pan="0" key="55" vol="60" pos="4032" len="24"/>
          <note pan="0" key="50" vol="60" pos="4068" len="24"/>
          <note pan="0" key="55" vol="60" pos="4104" len="24"/>
          <note pan="0" key="50" vol="60" pos="4140" len="24"/>
          <note pan="0" key="55" vol="60" pos="4176" len="24"/>
          <note pan="0" key="59" vol="60" pos="4200" len="24"/>
          <note pan="0" key="57" vol="60" pos="4224" len="192"/>
          <note pan="0" key="45" vol="60" pos="4320" len="96"/>
          <note pan="0" key="57" vol="60" pos="4608" len="12"/>
          <note pan="0" key="52" vol="60" pos="4620" len="12"/>
          <note pan="0" key="57" vol="60" pos="4632" len="12"/>
          <note pan="0" key="52" vol="60" pos="4644" len="12"/>
          <note pan="0" key="57" vol="60" pos="4656" len="12"/>
          <note pan="0" key="59" vol="60" pos="4668" len="12"/>
          <note pan="0" key="60" vol="60" pos="4680" len="24"/>
          <note pan="0" key="64" vol="60" pos="4752" len="24"/>
          <note pan="0" key="62" vol="60" pos="4776" len="12"/>
          <note pan="0" key="59" vol="60" pos="4788" len="12"/>
          <note pan="0" key="57" vol="60" pos="4800" len="12"/>
          <note pan="0" key="52" vol="60" pos="4812" len="12"/>
          <note pan="0" key="57" vol="60" pos="4824" len="72"/>
          <note pan="0" key="53" vol="60" pos="4896" len="36"/>
          <note pan="0" key="55" vol="60" pos="4932" len="36"/>
          <note pan="0" key="52" vol="60" pos="4968" len="24"/>
          <note pan="0" key="57" vol="60" pos="4992" len="12"/>
          <note pan="0" key="52" vol="60" pos="5004" len="12"/>
          <note pan="0" key="57" vol="60" pos="5016" len="12"/>
          <note pan="0" key="52" vol="60" pos="5028" len="12"/>
          <note pan="0" key="57" vol="60" pos="5040" len="12"/>
          <note pan="0" key="59" vol="60" pos="5052" len="12"/>
          <note pan="0" key="60" vol="60" pos="5064" len="72"/>
          <note pan="0" key="59" vol="60" pos="5136" len="24"/>
          <note pan="0" key="64" vol="60" pos="5160" len="96"/>
          <note pan="0" key="64" vol="60" pos="5280" len="36"/>
          <note pan="0" key="62" vol="60" pos="5316" len="36"/>
          <note pan="0" key="57" vol="60" pos="5352" len="24"/>
          <note pan="0" key="55" vol="60" pos="5376" len="24"/>
          <note pan="0" key="50" vol="60" pos="5412" len="24"/>
          <note pan="0" key="55" vol="60" pos="5448" len="24"/>
          <note pan="0" key="50" vol="60" pos="5484" len="24"/>
          <note pan="0" key="55" vol="60" pos="5520" len="24"/>
          <note pan="0" key="56" vol="60" pos="5544" len="24"/>
          <note pan="0" key="55" vol="60" pos="5568" len="24"/>
          <note pan="0" key="50" vol="60" pos="5604" len="24"/>
          <note pan="0" key="55" vol="60" pos="5640" len="24"/>
          <note pan="0" key="50" vol="60" pos="5676" len="24"/>
          <note pan="0" key="55" vol="60" pos="5712" len="24"/>
          <note pan="0" key="59" vol="60" pos="5736" len="24"/>
          <note pan="0" key="57" vol="60" pos="5760" len="192"/>
          <note pan="0" key="45" vol="60" pos="5856" len="96"/>
        </pattern>
      </track>
      <track muted="0" type="0" name="Standard-Preset">
        <instrumenttrack pan="27.6" fxch="0" pitch="0" basenote="57" vol="63">
          <instrument name="sf2player">
            <sf2player patch="26" chorusLevel="2" chorusDepth="8" reverbOn="0" reverbRoomSize="0.2" chorusOn="0" chorusSpeed="0.3" reverbDamping="0" chorusNum="3" reverbLevel="0.9" bank="0" reverbWidth="0.5" src="C:\VST32\Soundfonts\SF2\GenesiSF.SF2" gain="1"/>
          </instrument>
          <eldata fres="0.5" ftype="0" fcut="14000" fwet="0">
            <elvol lspd_denominator="4" pdel="0" userwavefile="" dec="0.5" lamt="0" syncmode="0" latt="0" rel="0.1" sus="0.5" amt="0" x100="0" att="0" lpdel="0" hold="0.5" lshp="0" lspd="0.1" ctlenvamt="0" lspd_numerator="4"/>
            <elcut lspd_denominator="4" pdel="0" userwavefile="" dec="0.5" lamt="0" syncmode="0" latt="0" rel="0.1" sus="0.5" amt="0" x100="0" att="0" lpdel="0" hold="0.5" lshp="0" lspd="0.1" ctlenvamt="0" lspd_numerator="4"/>
            <elres lspd_denominator="4" pdel="0" userwavefile="" dec="0.5" lamt="0" syncmode="0" latt="0" rel="0.1" sus="0.5" amt="0" x100="0" att="0" lpdel="0" hold="0.5" lshp="0" lspd="0.1" ctlenvamt="0" lspd_numerator="4"/>
          </eldata>
          <chordcreator chord="0" chordrange="1" chord-enabled="0"/>
          <arpeggiator arptime="100" arprange="1" arptime_denominator="4" syncmode="0" arpmode="0" arp-enabled="0" arp="0" arptime_numerator="4" arpdir="0" arpgate="100"/>
          <midiport inputcontroller="0" fixedoutputvelocity="-1" inputchannel="0" outputcontroller="0" writable="0" outputchannel="1" fixedinputvelocity="-1" outputprogram="1" readable="0"/>
          <fxchain numofeffects="0" enabled="0"/>
        </instrumenttrack>
        <pattern steps="16" muted="0" type="1" name="Standard-Preset" pos="768" len="6144" frozen="0">
          <note pan="0" key="57" vol="60" pos="48" len="12"/>
          <note pan="0" key="52" vol="60" pos="60" len="12"/>
          <note pan="0" key="57" vol="60" pos="72" len="12"/>
          <note pan="0" key="52" vol="60" pos="84" len="12"/>
          <note pan="0" key="57" vol="60" pos="96" len="12"/>
          <note pan="0" key="59" vol="60" pos="108" len="12"/>
          <note pan="0" key="60" vol="60" pos="120" len="24"/>
          <note pan="0" key="64" vol="60" pos="192" len="24"/>
          <note pan="0" key="62" vol="60" pos="216" len="12"/>
          <note pan="0" key="59" vol="60" pos="228" len="12"/>
          <note pan="0" key="57" vol="60" pos="240" len="12"/>
          <note pan="0" key="52" vol="60" pos="252" len="12"/>
          <note pan="0" key="57" vol="60" pos="264" len="72"/>
          <note pan="0" key="53" vol="60" pos="336" len="36"/>
          <note pan="0" key="55" vol="60" pos="372" len="36"/>
          <note pan="0" key="52" vol="60" pos="408" len="24"/>
          <note pan="0" key="57" vol="60" pos="432" len="12"/>
          <note pan="0" key="52" vol="60" pos="444" len="12"/>
          <note pan="0" key="57" vol="60" pos="456" len="12"/>
          <note pan="0" key="52" vol="60" pos="468" len="12"/>
          <note pan="0" key="57" vol="60" pos="480" len="12"/>
          <note pan="0" key="59" vol="60" pos="492" len="12"/>
          <note pan="0" key="60" vol="60" pos="504" len="72"/>
          <note pan="0" key="59" vol="60" pos="576" len="24"/>
          <note pan="0" key="64" vol="60" pos="600" len="96"/>
          <note pan="0" key="64" vol="60" pos="720" len="36"/>
          <note pan="0" key="62" vol="60" pos="756" len="36"/>
          <note pan="0" key="57" vol="60" pos="792" len="24"/>
          <note pan="0" key="55" vol="60" pos="816" len="24"/>
          <note pan="0" key="50" vol="60" pos="852" len="24"/>
          <note pan="0" key="55" vol="60" pos="888" len="24"/>
          <note pan="0" key="50" vol="60" pos="924" len="24"/>
          <note pan="0" key="55" vol="60" pos="960" len="24"/>
          <note pan="0" key="56" vol="60" pos="984" len="24"/>
          <note pan="0" key="55" vol="60" pos="1008" len="24"/>
          <note pan="0" key="50" vol="60" pos="1044" len="24"/>
          <note pan="0" key="55" vol="60" pos="1080" len="24"/>
          <note pan="0" key="50" vol="60" pos="1116" len="24"/>
          <note pan="0" key="55" vol="60" pos="1152" len="24"/>
          <note pan="0" key="59" vol="60" pos="1176" len="24"/>
          <note pan="0" key="57" vol="60" pos="1200" len="192"/>
          <note pan="0" key="45" vol="60" pos="1296" len="96"/>
          <note pan="0" key="57" vol="60" pos="1584" len="12"/>
          <note pan="0" key="52" vol="60" pos="1596" len="12"/>
          <note pan="0" key="57" vol="60" pos="1608" len="12"/>
          <note pan="0" key="52" vol="60" pos="1620" len="12"/>
          <note pan="0" key="57" vol="60" pos="1632" len="12"/>
          <note pan="0" key="59" vol="60" pos="1644" len="12"/>
          <note pan="0" key="60" vol="60" pos="1656" len="24"/>
          <note pan="0" key="64" vol="60" pos="1728" len="24"/>
          <note pan="0" key="62" vol="60" pos="1752" len="12"/>
          <note pan="0" key="59" vol="60" pos="1764" len="12"/>
          <note pan="0" key="57" vol="60" pos="1776" len="12"/>
          <note pan="0" key="52" vol="60" pos="1788" len="12"/>
          <note pan="0" key="57" vol="60" pos="1800" len="72"/>
          <note pan="0" key="53" vol="60" pos="1872" len="36"/>
          <note pan="0" key="55" vol="60" pos="1908" len="36"/>
          <note pan="0" key="52" vol="60" pos="1944" len="24"/>
          <note pan="0" key="57" vol="60" pos="1968" len="12"/>
          <note pan="0" key="52" vol="60" pos="1980" len="12"/>
          <note pan="0" key="57" vol="60" pos="1992" len="12"/>
          <note pan="0" key="52" vol="60" pos="2004" len="12"/>
          <note pan="0" key="57" vol="60" pos="2016" len="12"/>
          <note pan="0" key="59" vol="60" pos="2028" len="12"/>
          <note pan="0" key="60" vol="60" pos="2040" len="72"/>
          <note pan="0" key="59" vol="60" pos="2112" len="24"/>
          <note pan="0" key="64" vol="60" pos="2136" len="96"/>
          <note pan="0" key="64" vol="60" pos="2256" len="36"/>
          <note pan="0" key="62" vol="60" pos="2292" len="36"/>
          <note pan="0" key="57" vol="60" pos="2328" len="24"/>
          <note pan="0" key="55" vol="60" pos="2352" len="24"/>
          <note pan="0" key="50" vol="60" pos="2388" len="24"/>
          <note pan="0" key="55" vol="60" pos="2424" len="24"/>
          <note pan="0" key="50" vol="60" pos="2460" len="24"/>
          <note pan="0" key="55" vol="60" pos="2496" len="24"/>
          <note pan="0" key="56" vol="60" pos="2520" len="24"/>
          <note pan="0" key="55" vol="60" pos="2544" len="24"/>
          <note pan="0" key="50" vol="60" pos="2580" len="24"/>
          <note pan="0" key="55" vol="60" pos="2616" len="24"/>
          <note pan="0" key="50" vol="60" pos="2652" len="24"/>
          <note pan="0" key="55" vol="60" pos="2688" len="24"/>
          <note pan="0" key="59" vol="60" pos="2712" len="24"/>
          <note pan="0" key="57" vol="60" pos="2736" len="192"/>
          <note pan="0" key="45" vol="60" pos="2832" len="96"/>
          <note pan="0" key="57" vol="60" pos="3120" len="12"/>
          <note pan="0" key="52" vol="60" pos="3132" len="12"/>
          <note pan="0" key="57" vol="60" pos="3144" len="12"/>
          <note pan="0" key="52" vol="60" pos="3156" len="12"/>
          <note pan="0" key="57" vol="60" pos="3168" len="12"/>
          <note pan="0" key="59" vol="60" pos="3180" len="12"/>
          <note pan="0" key="60" vol="60" pos="3192" len="24"/>
          <note pan="0" key="64" vol="60" pos="3264" len="24"/>
          <note pan="0" key="62" vol="60" pos="3288" len="12"/>
          <note pan="0" key="59" vol="60" pos="3300" len="12"/>
          <note pan="0" key="57" vol="60" pos="3312" len="12"/>
          <note pan="0" key="52" vol="60" pos="3324" len="12"/>
          <note pan="0" key="57" vol="60" pos="3336" len="72"/>
          <note pan="0" key="53" vol="60" pos="3408" len="36"/>
          <note pan="0" key="55" vol="60" pos="3444" len="36"/>
          <note pan="0" key="52" vol="60" pos="3480" len="24"/>
          <note pan="0" key="57" vol="60" pos="3504" len="12"/>
          <note pan="0" key="52" vol="60" pos="3516" len="12"/>
          <note pan="0" key="57" vol="60" pos="3528" len="12"/>
          <note pan="0" key="52" vol="60" pos="3540" len="12"/>
          <note pan="0" key="57" vol="60" pos="3552" len="12"/>
          <note pan="0" key="59" vol="60" pos="3564" len="12"/>
          <note pan="0" key="60" vol="60" pos="3576" len="72"/>
          <note pan="0" key="59" vol="60" pos="3648" len="24"/>
          <note pan="0" key="64" vol="60" pos="3672" len="96"/>
          <note pan="0" key="64" vol="60" pos="3792" len="36"/>
          <note pan="0" key="62" vol="60" pos="3828" len="36"/>
          <note pan="0" key="57" vol="60" pos="3864" len="24"/>
          <note pan="0" key="55" vol="60" pos="3888" len="24"/>
          <note pan="0" key="50" vol="60" pos="3924" len="24"/>
          <note pan="0" key="55" vol="60" pos="3960" len="24"/>
          <note pan="0" key="50" vol="60" pos="3996" len="24"/>
          <note pan="0" key="55" vol="60" pos="4032" len="24"/>
          <note pan="0" key="56" vol="60" pos="4056" len="24"/>
          <note pan="0" key="55" vol="60" pos="4080" len="24"/>
          <note pan="0" key="50" vol="60" pos="4116" len="24"/>
          <note pan="0" key="55" vol="60" pos="4152" len="24"/>
          <note pan="0" key="50" vol="60" pos="4188" len="24"/>
          <note pan="0" key="55" vol="60" pos="4224" len="24"/>
          <note pan="0" key="59" vol="60" pos="4248" len="24"/>
          <note pan="0" key="57" vol="60" pos="4272" len="192"/>
          <note pan="0" key="45" vol="60" pos="4368" len="96"/>
          <note pan="0" key="57" vol="60" pos="4656" len="12"/>
          <note pan="0" key="52" vol="60" pos="4668" len="12"/>
          <note pan="0" key="57" vol="60" pos="4680" len="12"/>
          <note pan="0" key="52" vol="60" pos="4692" len="12"/>
          <note pan="0" key="57" vol="60" pos="4704" len="12"/>
          <note pan="0" key="59" vol="60" pos="4716" len="12"/>
          <note pan="0" key="60" vol="60" pos="4728" len="24"/>
          <note pan="0" key="64" vol="60" pos="4800" len="24"/>
          <note pan="0" key="62" vol="60" pos="4824" len="12"/>
          <note pan="0" key="59" vol="60" pos="4836" len="12"/>
          <note pan="0" key="57" vol="60" pos="4848" len="12"/>
          <note pan="0" key="52" vol="60" pos="4860" len="12"/>
          <note pan="0" key="57" vol="60" pos="4872" len="72"/>
          <note pan="0" key="53" vol="60" pos="4944" len="36"/>
          <note pan="0" key="55" vol="60" pos="4980" len="36"/>
          <note pan="0" key="52" vol="60" pos="5016" len="24"/>
          <note pan="0" key="57" vol="60" pos="5040" len="12"/>
          <note pan="0" key="52" vol="60" pos="5052" len="12"/>
          <note pan="0" key="57" vol="60" pos="5064" len="12"/>
          <note pan="0" key="52" vol="60" pos="5076" len="12"/>
          <note pan="0" key="57" vol="60" pos="5088" len="12"/>
          <note pan="0" key="59" vol="60" pos="5100" len="12"/>
          <note pan="0" key="60" vol="60" pos="5112" len="72"/>
          <note pan="0" key="59" vol="60" pos="5184" len="24"/>
          <note pan="0" key="64" vol="60" pos="5208" len="96"/>
          <note pan="0" key="64" vol="60" pos="5328" len="36"/>
          <note pan="0" key="62" vol="60" pos="5364" len="36"/>
          <note pan="0" key="57" vol="60" pos="5400" len="24"/>
          <note pan="0" key="55" vol="60" pos="5424" len="24"/>
          <note pan="0" key="50" vol="60" pos="5460" len="24"/>
          <note pan="0" key="55" vol="60" pos="5496" len="24"/>
          <note pan="0" key="50" vol="60" pos="5532" len="24"/>
          <note pan="0" key="55" vol="60" pos="5568" len="24"/>
          <note pan="0" key="56" vol="60" pos="5592" len="24"/>
          <note pan="0" key="55" vol="60" pos="5616" len="24"/>
          <note pan="0" key="50" vol="60" pos="5652" len="24"/>
          <note pan="0" key="55" vol="60" pos="5688" len="24"/>
          <note pan="0" key="50" vol="60" pos="5724" len="24"/>
          <note pan="0" key="55" vol="60" pos="5760" len="24"/>
          <note pan="0" key="59" vol="60" pos="5784" len="24"/>
          <note pan="0" key="57" vol="60" pos="5808" len="192"/>
          <note pan="0" key="45" vol="60" pos="5904" len="96"/>
        </pattern>
      </track>
      <track muted="0" type="0" name="Standard-Preset">
        <instrumenttrack pan="-27.6" fxch="0" pitch="0" basenote="57" vol="25.2">
          <instrument name="sf2player">
            <sf2player patch="26" chorusLevel="2" chorusDepth="8" reverbOn="0" reverbRoomSize="0.2" chorusOn="0" chorusSpeed="0.3" reverbDamping="0" chorusNum="3" reverbLevel="0.9" bank="0" reverbWidth="0.5" src="C:\VST32\Soundfonts\SF2\GenesiSF.SF2" gain="1"/>
          </instrument>
          <eldata fres="0.5" ftype="0" fcut="14000" fwet="0">
            <elvol lspd_denominator="4" pdel="0" userwavefile="" dec="0.5" lamt="0" syncmode="0" latt="0" rel="0.1" sus="0.5" amt="0" x100="0" att="0" lpdel="0" hold="0.5" lshp="0" lspd="0.1" ctlenvamt="0" lspd_numerator="4"/>
            <elcut lspd_denominator="4" pdel="0" userwavefile="" dec="0.5" lamt="0" syncmode="0" latt="0" rel="0.1" sus="0.5" amt="0" x100="0" att="0" lpdel="0" hold="0.5" lshp="0" lspd="0.1" ctlenvamt="0" lspd_numerator="4"/>
            <elres lspd_denominator="4" pdel="0" userwavefile="" dec="0.5" lamt="0" syncmode="0" latt="0" rel="0.1" sus="0.5" amt="0" x100="0" att="0" lpdel="0" hold="0.5" lshp="0" lspd="0.1" ctlenvamt="0" lspd_numerator="4"/>
          </eldata>
          <chordcreator chord="0" chordrange="1" chord-enabled="0"/>
          <arpeggiator arptime="100" arprange="1" arptime_denominator="4" syncmode="0" arpmode="0" arp-enabled="0" arp="0" arptime_numerator="4" arpdir="0" arpgate="100"/>
          <midiport inputcontroller="0" fixedoutputvelocity="-1" inputchannel="0" outputcontroller="0" writable="0" outputchannel="1" fixedinputvelocity="-1" outputprogram="1" readable="0"/>
          <fxchain numofeffects="0" enabled="0"/>
        </instrumenttrack>
        <pattern steps="16" muted="0" type="1" name="Standard-Preset" pos="768" len="6144" frozen="0">
          <note pan="0" key="57" vol="60" pos="72" len="12"/>
          <note pan="0" key="52" vol="60" pos="84" len="12"/>
          <note pan="0" key="57" vol="60" pos="96" len="12"/>
          <note pan="0" key="52" vol="60" pos="108" len="12"/>
          <note pan="0" key="57" vol="60" pos="120" len="12"/>
          <note pan="0" key="59" vol="60" pos="132" len="12"/>
          <note pan="0" key="60" vol="60" pos="144" len="24"/>
          <note pan="0" key="64" vol="60" pos="216" len="24"/>
          <note pan="0" key="62" vol="60" pos="240" len="12"/>
          <note pan="0" key="59" vol="60" pos="252" len="12"/>
          <note pan="0" key="57" vol="60" pos="264" len="12"/>
          <note pan="0" key="52" vol="60" pos="276" len="12"/>
          <note pan="0" key="57" vol="60" pos="288" len="72"/>
          <note pan="0" key="53" vol="60" pos="360" len="36"/>
          <note pan="0" key="55" vol="60" pos="396" len="36"/>
          <note pan="0" key="52" vol="60" pos="432" len="24"/>
          <note pan="0" key="57" vol="60" pos="456" len="12"/>
          <note pan="0" key="52" vol="60" pos="468" len="12"/>
          <note pan="0" key="57" vol="60" pos="480" len="12"/>
          <note pan="0" key="52" vol="60" pos="492" len="12"/>
          <note pan="0" key="57" vol="60" pos="504" len="12"/>
          <note pan="0" key="59" vol="60" pos="516" len="12"/>
          <note pan="0" key="60" vol="60" pos="528" len="72"/>
          <note pan="0" key="59" vol="60" pos="600" len="24"/>
          <note pan="0" key="64" vol="60" pos="624" len="96"/>
          <note pan="0" key="64" vol="60" pos="744" len="36"/>
          <note pan="0" key="62" vol="60" pos="780" len="36"/>
          <note pan="0" key="57" vol="60" pos="816" len="24"/>
          <note pan="0" key="55" vol="60" pos="840" len="24"/>
          <note pan="0" key="50" vol="60" pos="876" len="24"/>
          <note pan="0" key="55" vol="60" pos="912" len="24"/>
          <note pan="0" key="50" vol="60" pos="948" len="24"/>
          <note pan="0" key="55" vol="60" pos="984" len="24"/>
          <note pan="0" key="56" vol="60" pos="1008" len="24"/>
          <note pan="0" key="55" vol="60" pos="1032" len="24"/>
          <note pan="0" key="50" vol="60" pos="1068" len="24"/>
          <note pan="0" key="55" vol="60" pos="1104" len="24"/>
          <note pan="0" key="50" vol="60" pos="1140" len="24"/>
          <note pan="0" key="55" vol="60" pos="1176" len="24"/>
          <note pan="0" key="59" vol="60" pos="1200" len="24"/>
          <note pan="0" key="57" vol="60" pos="1224" len="192"/>
          <note pan="0" key="45" vol="60" pos="1320" len="96"/>
          <note pan="0" key="57" vol="60" pos="1608" len="12"/>
          <note pan="0" key="52" vol="60" pos="1620" len="12"/>
          <note pan="0" key="57" vol="60" pos="1632" len="12"/>
          <note pan="0" key="52" vol="60" pos="1644" len="12"/>
          <note pan="0" key="57" vol="60" pos="1656" len="12"/>
          <note pan="0" key="59" vol="60" pos="1668" len="12"/>
          <note pan="0" key="60" vol="60" pos="1680" len="24"/>
          <note pan="0" key="64" vol="60" pos="1752" len="24"/>
          <note pan="0" key="62" vol="60" pos="1776" len="12"/>
          <note pan="0" key="59" vol="60" pos="1788" len="12"/>
          <note pan="0" key="57" vol="60" pos="1800" len="12"/>
          <note pan="0" key="52" vol="60" pos="1812" len="12"/>
          <note pan="0" key="57" vol="60" pos="1824" len="72"/>
          <note pan="0" key="53" vol="60" pos="1896" len="36"/>
          <note pan="0" key="55" vol="60" pos="1932" len="36"/>
          <note pan="0" key="52" vol="60" pos="1968" len="24"/>
          <note pan="0" key="57" vol="60" pos="1992" len="12"/>
          <note pan="0" key="52" vol="60" pos="2004" len="12"/>
          <note pan="0" key="57" vol="60" pos="2016" len="12"/>
          <note pan="0" key="52" vol="60" pos="2028" len="12"/>
          <note pan="0" key="57" vol="60" pos="2040" len="12"/>
          <note pan="0" key="59" vol="60" pos="2052" len="12"/>
          <note pan="0" key="60" vol="60" pos="2064" len="72"/>
          <note pan="0" key="59" vol="60" pos="2136" len="24"/>
          <note pan="0" key="64" vol="60" pos="2160" len="96"/>
          <note pan="0" key="64" vol="60" pos="2280" len="36"/>
          <note pan="0" key="62" vol="60" pos="2316" len="36"/>
          <note pan="0" key="57" vol="60" pos="2352" len="24"/>
          <note pan="0" key="55" vol="60" pos="2376" len="24"/>
          <note pan="0" key="50" vol="60" pos="2412" len="24"/>
          <note pan="0" key="55" vol="60" pos="2448" len="24"/>
          <note pan="0" key="50" vol="60" pos="2484" len="24"/>
          <note pan="0" key="55" vol="60" pos="2520" len="24"/>
          <note pan="0" key="56" vol="60" pos="2544" len="24"/>
          <note pan="0" key="55" vol="60" pos="2568" len="24"/>
          <note pan="0" key="50" vol="60" pos="2604" len="24"/>
          <note pan="0" key="55" vol="60" pos="2640" len="24"/>
          <note pan="0" key="50" vol="60" pos="2676" len="24"/>
          <note pan="0" key="55" vol="60" pos="2712" len="24"/>
          <note pan="0" key="59" vol="60" pos="2736" len="24"/>
          <note pan="0" key="57" vol="60" pos="2760" len="192"/>
          <note pan="0" key="45" vol="60" pos="2856" len="96"/>
          <note pan="0" key="57" vol="60" pos="3144" len="12"/>
          <note pan="0" key="52" vol="60" pos="3156" len="12"/>
          <note pan="0" key="57" vol="60" pos="3168" len="12"/>
          <note pan="0" key="52" vol="60" pos="3180" len="12"/>
          <note pan="0" key="57" vol="60" pos="3192" len="12"/>
          <note pan="0" key="59" vol="60" pos="3204" len="12"/>
          <note pan="0" key="60" vol="60" pos="3216" len="24"/>
          <note pan="0" key="64" vol="60" pos="3288" len="24"/>
          <note pan="0" key="62" vol="60" pos="3312" len="12"/>
          <note pan="0" key="59" vol="60" pos="3324" len="12"/>
          <note pan="0" key="57" vol="60" pos="3336" len="12"/>
          <note pan="0" key="52" vol="60" pos="3348" len="12"/>
          <note pan="0" key="57" vol="60" pos="3360" len="72"/>
          <note pan="0" key="53" vol="60" pos="3432" len="36"/>
          <note pan="0" key="55" vol="60" pos="3468" len="36"/>
          <note pan="0" key="52" vol="60" pos="3504" len="24"/>
          <note pan="0" key="57" vol="60" pos="3528" len="12"/>
          <note pan="0" key="52" vol="60" pos="3540" len="12"/>
          <note pan="0" key="57" vol="60" pos="3552" len="12"/>
          <note pan="0" key="52" vol="60" pos="3564" len="12"/>
          <note pan="0" key="57" vol="60" pos="3576" len="12"/>
          <note pan="0" key="59" vol="60" pos="3588" len="12"/>
          <note pan="0" key="60" vol="60" pos="3600" len="72"/>
          <note pan="0" key="59" vol="60" pos="3672" len="24"/>
          <note pan="0" key="64" vol="60" pos="3696" len="96"/>
          <note pan="0" key="64" vol="60" pos="3816" len="36"/>
          <note pan="0" key="62" vol="60" pos="3852" len="36"/>
          <note pan="0" key="57" vol="60" pos="3888" len="24"/>
          <note pan="0" key="55" vol="60" pos="3912" len="24"/>
          <note pan="0" key="50" vol="60" pos="3948" len="24"/>
          <note pan="0" key="55" vol="60" pos="3984" len="24"/>
          <note pan="0" key="50" vol="60" pos="4020" len="24"/>
          <note pan="0" key="55" vol="60" pos="4056" len="24"/>
          <note pan="0" key="56" vol="60" pos="4080" len="24"/>
          <note pan="0" key="55" vol="60" pos="4104" len="24"/>
          <note pan="0" key="50" vol="60" pos="4140" len="24"/>
          <note pan="0" key="55" vol="60" pos="4176" len="24"/>
          <note pan="0" key="50" vol="60" pos="4212" len="24"/>
          <note pan="0" key="55" vol="60" pos="4248" len="24"/>
          <note pan="0" key="59" vol="60" pos="4272" len="24"/>
          <note pan="0" key="57" vol="60" pos="4296" len="192"/>
          <note pan="0" key="45" vol="60" pos="4392" len="96"/>
          <note pan="0" key="57" vol="60" pos="4680" len="12"/>
          <note pan="0" key="52" vol="60" pos="4692" len="12"/>
          <note pan="0" key="57" vol="60" pos="4704" len="12"/>
          <note pan="0" key="52" vol="60" pos="4716" len="12"/>
          <note pan="0" key="57" vol="60" pos="4728" len="12"/>
          <note pan="0" key="59" vol="60" pos="4740" len="12"/>
          <note pan="0" key="60" vol="60" pos="4752" len="24"/>
          <note pan="0" key="64" vol="60" pos="4824" len="24"/>
          <note pan="0" key="62" vol="60" pos="4848" len="12"/>
          <note pan="0" key="59" vol="60" pos="4860" len="12"/>
          <note pan="0" key="57" vol="60" pos="4872" len="12"/>
          <note pan="0" key="52" vol="60" pos="4884" len="12"/>
          <note pan="0" key="57" vol="60" pos="4896" len="72"/>
          <note pan="0" key="53" vol="60" pos="4968" len="36"/>
          <note pan="0" key="55" vol="60" pos="5004" len="36"/>
          <note pan="0" key="52" vol="60" pos="5040" len="24"/>
          <note pan="0" key="57" vol="60" pos="5064" len="12"/>
          <note pan="0" key="52" vol="60" pos="5076" len="12"/>
          <note pan="0" key="57" vol="60" pos="5088" len="12"/>
          <note pan="0" key="52" vol="60" pos="5100" len="12"/>
          <note pan="0" key="57" vol="60" pos="5112" len="12"/>
          <note pan="0" key="59" vol="60" pos="5124" len="12"/>
          <note pan="0" key="60" vol="60" pos="5136" len="72"/>
          <note pan="0" key="59" vol="60" pos="5208" len="24"/>
          <note pan="0" key="64" vol="60" pos="5232" len="96"/>
          <note pan="0" key="64" vol="60" pos="5352" len="36"/>
          <note pan="0" key="62" vol="60" pos="5388" len="36"/>
          <note pan="0" key="57" vol="60" pos="5424" len="24"/>
          <note pan="0" key="55" vol="60" pos="5448" len="24"/>
          <note pan="0" key="50" vol="60" pos="5484" len="24"/>
          <note pan="0" key="55" vol="60" pos="5520" len="24"/>
          <note pan="0" key="50" vol="60" pos="5556" len="24"/>
          <note pan="0" key="55" vol="60" pos="5592" len="24"/>
          <note pan="0" key="56" vol="60" pos="5616" len="24"/>
          <note pan="0" key="55" vol="60" pos="5640" len="24"/>
          <note pan="0" key="50" vol="60" pos="5676" len="24"/>
          <note pan="0" key="55" vol="60" pos="5712" len="24"/>
          <note pan="0" key="50" vol="60" pos="5748" len="24"/>
          <note pan="0" key="55" vol="60" pos="5784" len="24"/>
          <note pan="0" key="59" vol="60" pos="5808" len="24"/>
          <note pan="0" key="57" vol="60" pos="5832" len="192"/>
          <note pan="0" key="45" vol="60" pos="5928" len="96"/>
        </pattern>
      </track>
      <track width="262" x="1138" y="0" maximized="0" muted="0" height="466" visible="1" type="0" minimized="0" name="Standard-Preset" tab="0">
        <instrumenttrack pan="0.8" fxch="0" pitch="0" basenote="57" vol="98.4">
          <instrument name="sf2player">
            <sf2player patch="16" chorusLevel="2" chorusDepth="8" reverbOn="0" reverbRoomSize="0.2" chorusOn="0" chorusSpeed="0.3" reverbDamping="0" chorusNum="3" reverbLevel="0.9" bank="128" reverbWidth="0.5" src="C:\VST32\Soundfonts\SF2\GenesiSF.SF2" gain="1"/>
          </instrument>
          <eldata fres="0.5" ftype="0" fcut="14000" fwet="0">
            <elvol lspd_denominator="4" pdel="0" userwavefile="" dec="0.5" lamt="0" syncmode="0" latt="0" rel="0.1" sus="0.5" amt="0" x100="0" att="0" lpdel="0" hold="0.5" lshp="0" lspd="0.1" ctlenvamt="0" lspd_numerator="4"/>
            <elcut lspd_denominator="4" pdel="0" userwavefile="" dec="0.5" lamt="0" syncmode="0" latt="0" rel="0.1" sus="0.5" amt="0" x100="0" att="0" lpdel="0" hold="0.5" lshp="0" lspd="0.1" ctlenvamt="0" lspd_numerator="4"/>
            <elres lspd_denominator="4" pdel="0" userwavefile="" dec="0.5" lamt="0" syncmode="0" latt="0" rel="0.1" sus="0.5" amt="0" x100="0" att="0" lpdel="0" hold="0.5" lshp="0" lspd="0.1" ctlenvamt="0" lspd_numerator="4"/>
          </eldata>
          <chordcreator chord="0" chordrange="1" chord-enabled="0"/>
          <arpeggiator arptime="100" arprange="1" arptime_denominator="4" syncmode="0" arpmode="0" arp-enabled="0" arp="0" arptime_numerator="4" arpdir="0" arpgate="100"/>
          <midiport inputcontroller="0" fixedoutputvelocity="-1" inputchannel="0" outputcontroller="0" writable="0" outputchannel="1" fixedinputvelocity="-1" outputprogram="1" readable="0"/>
          <fxchain numofeffects="0" enabled="0"/>
        </instrumenttrack>
        <pattern steps="16" muted="0" type="1" name="Standard-Preset" pos="576" len="6336" frozen="0">
          <note pan="0" key="24" vol="60" pos="0" len="12"/>
          <note pan="0" key="24" vol="60" pos="12" len="12"/>
          <note pan="0" key="28" vol="60" pos="24" len="12"/>
          <note pan="0" key="28" vol="60" pos="36" len="12"/>
          <note pan="0" key="28" vol="60" pos="48" len="12"/>
          <note pan="0" key="24" vol="60" pos="48" len="12"/>
          <note pan="0" key="24" vol="60" pos="60" len="12"/>
          <note pan="0" key="28" vol="60" pos="72" len="12"/>
          <note pan="0" key="28" vol="60" pos="84" len="12"/>
          <note pan="0" key="24" vol="60" pos="96" len="12"/>
          <note pan="0" key="28" vol="60" pos="108" len="12"/>
          <note pan="0" key="24" vol="60" pos="132" len="12"/>
          <note pan="0" key="24" vol="60" pos="144" len="12"/>
          <note pan="0" key="28" vol="60" pos="144" len="12"/>
          <note pan="0" key="24" vol="60" pos="168" len="12"/>
          <note pan="0" key="28" vol="60" pos="180" len="12"/>
          <note pan="0" key="24" vol="60" pos="192" len="12"/>
          <note pan="0" key="24" vol="60" pos="240" len="12"/>
          <note pan="0" key="28" vol="60" pos="240" len="12"/>
          <note pan="0" key="24" vol="60" pos="288" len="12"/>
          <note pan="0" key="24" vol="60" pos="336" len="12"/>
          <note pan="0" key="28" vol="60" pos="336" len="12"/>
          <note pan="0" key="24" vol="60" pos="384" len="12"/>
          <note pan="0" key="24" vol="60" pos="432" len="12"/>
          <note pan="0" key="28" vol="60" pos="432" len="12"/>
          <note pan="0" key="24" vol="60" pos="480" len="12"/>
          <note pan="0" key="24" vol="60" pos="528" len="12"/>
          <note pan="0" key="28" vol="60" pos="528" len="12"/>
          <note pan="0" key="24" vol="60" pos="576" len="12"/>
          <note pan="0" key="24" vol="60" pos="624" len="12"/>
          <note pan="0" key="28" vol="60" pos="624" len="12"/>
          <note pan="0" key="24" vol="60" pos="672" len="12"/>
          <note pan="0" key="24" vol="60" pos="720" len="12"/>
          <note pan="0" key="28" vol="60" pos="720" len="12"/>
          <note pan="0" key="24" vol="60" pos="768" len="12"/>
          <note pan="0" key="24" vol="60" pos="816" len="12"/>
          <note pan="0" key="28" vol="60" pos="816" len="12"/>
          <note pan="0" key="24" vol="60" pos="864" len="12"/>
          <note pan="0" key="24" vol="60" pos="912" len="12"/>
          <note pan="0" key="28" vol="60" pos="912" len="12"/>
          <note pan="0" key="24" vol="60" pos="960" len="12"/>
          <note pan="0" key="24" vol="60" pos="1008" len="12"/>
          <note pan="0" key="28" vol="60" pos="1008" len="12"/>
          <note pan="0" key="24" vol="60" pos="1056" len="12"/>
          <note pan="0" key="24" vol="60" pos="1104" len="12"/>
          <note pan="0" key="28" vol="60" pos="1104" len="12"/>
          <note pan="0" key="24" vol="60" pos="1152" len="12"/>
          <note pan="0" key="24" vol="60" pos="1200" len="12"/>
          <note pan="0" key="28" vol="60" pos="1200" len="12"/>
          <note pan="0" key="24" vol="60" pos="1248" len="12"/>
          <note pan="0" key="24" vol="60" pos="1296" len="12"/>
          <note pan="0" key="28" vol="60" pos="1296" len="12"/>
          <note pan="0" key="24" vol="60" pos="1344" len="12"/>
          <note pan="0" key="24" vol="60" pos="1392" len="12"/>
          <note pan="0" key="28" vol="60" pos="1392" len="12"/>
          <note pan="0" key="24" vol="60" pos="1440" len="12"/>
          <note pan="0" key="24" vol="60" pos="1488" len="12"/>
          <note pan="0" key="28" vol="60" pos="1488" len="12"/>
          <note pan="0" key="24" vol="60" pos="1536" len="12"/>
          <note pan="0" key="24" vol="60" pos="1584" len="12"/>
          <note pan="0" key="28" vol="60" pos="1584" len="12"/>
          <note pan="0" key="24" vol="60" pos="1632" len="12"/>
          <note pan="0" key="24" vol="60" pos="1680" len="12"/>
          <note pan="0" key="28" vol="60" pos="1680" len="12"/>
          <note pan="0" key="24" vol="60" pos="1728" len="12"/>
          <note pan="0" key="30" vol="60" pos="1752" len="12"/>
          <note pan="0" key="30" vol="60" pos="1764" len="12"/>
          <note pan="0" key="24" vol="60" pos="1776" len="12"/>
          <note pan="0" key="28" vol="60" pos="1776" len="12"/>
          <note pan="0" key="30" vol="60" pos="1800" len="12"/>
          <note pan="0" key="30" vol="60" pos="1812" len="12"/>
          <note pan="0" key="24" vol="60" pos="1824" len="12"/>
          <note pan="0" key="30" vol="60" pos="1848" len="12"/>
          <note pan="0" key="30" vol="60" pos="1860" len="12"/>
          <note pan="0" key="24" vol="60" pos="1872" len="12"/>
          <note pan="0" key="28" vol="60" pos="1872" len="12"/>
          <note pan="0" key="30" vol="60" pos="1884" len="12"/>
          <note pan="0" key="30" vol="60" pos="1908" len="12"/>
          <note pan="0" key="24" vol="60" pos="1920" len="12"/>
          <note pan="0" key="30" vol="60" pos="1944" len="12"/>
          <note pan="0" key="30" vol="60" pos="1956" len="12"/>
          <note pan="0" key="24" vol="60" pos="1968" len="12"/>
          <note pan="0" key="28" vol="60" pos="1968" len="12"/>
          <note pan="0" key="30" vol="60" pos="1992" len="12"/>
          <note pan="0" key="30" vol="60" pos="2004" len="12"/>
          <note pan="0" key="24" vol="60" pos="2016" len="12"/>
          <note pan="0" key="30" vol="60" pos="2040" len="12"/>
          <note pan="0" key="30" vol="60" pos="2052" len="12"/>
          <note pan="0" key="24" vol="60" pos="2064" len="12"/>
          <note pan="0" key="28" vol="60" pos="2064" len="12"/>
          <note pan="0" key="30" vol="60" pos="2076" len="12"/>
          <note pan="0" key="30" vol="60" pos="2100" len="12"/>
          <note pan="0" key="24" vol="60" pos="2112" len="12"/>
          <note pan="0" key="30" vol="60" pos="2136" len="12"/>
          <note pan="0" key="30" vol="60" pos="2148" len="12"/>
          <note pan="0" key="24" vol="60" pos="2160" len="12"/>
          <note pan="0" key="28" vol="60" pos="2160" len="12"/>
          <note pan="0" key="30" vol="60" pos="2184" len="12"/>
          <note pan="0" key="30" vol="60" pos="2196" len="12"/>
          <note pan="0" key="24" vol="60" pos="2208" len="12"/>
          <note pan="0" key="30" vol="60" pos="2232" len="12"/>
          <note pan="0" key="30" vol="60" pos="2244" len="12"/>
          <note pan="0" key="24" vol="60" pos="2256" len="12"/>
          <note pan="0" key="28" vol="60" pos="2256" len="12"/>
          <note pan="0" key="30" vol="60" pos="2268" len="12"/>
          <note pan="0" key="30" vol="60" pos="2292" len="12"/>
          <note pan="0" key="24" vol="60" pos="2304" len="12"/>
          <note pan="0" key="30" vol="60" pos="2328" len="12"/>
          <note pan="0" key="30" vol="60" pos="2340" len="12"/>
          <note pan="0" key="24" vol="60" pos="2352" len="12"/>
          <note pan="0" key="28" vol="60" pos="2352" len="12"/>
          <note pan="0" key="30" vol="60" pos="2376" len="12"/>
          <note pan="0" key="30" vol="60" pos="2388" len="12"/>
          <note pan="0" key="24" vol="60" pos="2400" len="12"/>
          <note pan="0" key="30" vol="60" pos="2424" len="12"/>
          <note pan="0" key="30" vol="60" pos="2436" len="12"/>
          <note pan="0" key="24" vol="60" pos="2448" len="12"/>
          <note pan="0" key="28" vol="60" pos="2448" len="12"/>
          <note pan="0" key="30" vol="60" pos="2460" len="12"/>
          <note pan="0" key="30" vol="60" pos="2484" len="12"/>
          <note pan="0" key="24" vol="60" pos="2496" len="12"/>
          <note pan="0" key="30" vol="60" pos="2520" len="12"/>
          <note pan="0" key="30" vol="60" pos="2532" len="12"/>
          <note pan="0" key="24" vol="60" pos="2544" len="12"/>
          <note pan="0" key="28" vol="60" pos="2544" len="12"/>
          <note pan="0" key="30" vol="60" pos="2568" len="12"/>
          <note pan="0" key="30" vol="60" pos="2580" len="12"/>
          <note pan="0" key="24" vol="60" pos="2592" len="12"/>
          <note pan="0" key="30" vol="60" pos="2616" len="12"/>
          <note pan="0" key="30" vol="60" pos="2628" len="12"/>
          <note pan="0" key="24" vol="60" pos="2640" len="12"/>
          <note pan="0" key="28" vol="60" pos="2640" len="12"/>
          <note pan="0" key="30" vol="60" pos="2652" len="12"/>
          <note pan="0" key="30" vol="60" pos="2676" len="12"/>
          <note pan="0" key="24" vol="60" pos="2688" len="12"/>
          <note pan="0" key="30" vol="60" pos="2712" len="12"/>
          <note pan="0" key="30" vol="60" pos="2724" len="12"/>
          <note pan="0" key="24" vol="60" pos="2736" len="12"/>
          <note pan="0" key="28" vol="60" pos="2736" len="12"/>
          <note pan="0" key="30" vol="60" pos="2760" len="12"/>
          <note pan="0" key="30" vol="60" pos="2772" len="12"/>
          <note pan="0" key="24" vol="60" pos="2784" len="12"/>
          <note pan="0" key="30" vol="60" pos="2808" len="12"/>
          <note pan="0" key="30" vol="60" pos="2820" len="12"/>
          <note pan="0" key="24" vol="60" pos="2832" len="12"/>
          <note pan="0" key="28" vol="60" pos="2832" len="12"/>
          <note pan="0" key="30" vol="60" pos="2844" len="12"/>
          <note pan="0" key="30" vol="60" pos="2868" len="12"/>
          <note pan="0" key="24" vol="60" pos="2880" len="12"/>
          <note pan="0" key="30" vol="60" pos="2904" len="12"/>
          <note pan="0" key="30" vol="60" pos="2916" len="12"/>
          <note pan="0" key="24" vol="60" pos="2928" len="12"/>
          <note pan="0" key="28" vol="60" pos="2928" len="12"/>
          <note pan="0" key="30" vol="60" pos="2952" len="12"/>
          <note pan="0" key="30" vol="60" pos="2964" len="12"/>
          <note pan="0" key="24" vol="60" pos="2976" len="12"/>
          <note pan="0" key="30" vol="60" pos="3000" len="12"/>
          <note pan="0" key="30" vol="60" pos="3012" len="12"/>
          <note pan="0" key="24" vol="60" pos="3024" len="12"/>
          <note pan="0" key="28" vol="60" pos="3024" len="12"/>
          <note pan="0" key="30" vol="60" pos="3036" len="12"/>
          <note pan="0" key="30" vol="60" pos="3060" len="12"/>
          <note pan="0" key="24" vol="60" pos="3072" len="12"/>
          <note pan="0" key="30" vol="60" pos="3096" len="12"/>
          <note pan="0" key="30" vol="60" pos="3108" len="12"/>
          <note pan="0" key="24" vol="60" pos="3120" len="12"/>
          <note pan="0" key="28" vol="60" pos="3120" len="12"/>
          <note pan="0" key="30" vol="60" pos="3144" len="12"/>
          <note pan="0" key="30" vol="60" pos="3156" len="12"/>
          <note pan="0" key="24" vol="60" pos="3168" len="12"/>
          <note pan="0" key="30" vol="60" pos="3192" len="12"/>
          <note pan="0" key="30" vol="60" pos="3204" len="12"/>
          <note pan="0" key="24" vol="60" pos="3216" len="12"/>
          <note pan="0" key="28" vol="60" pos="3216" len="12"/>
          <note pan="0" key="30" vol="60" pos="3228" len="12"/>
          <note pan="0" key="30" vol="60" pos="3252" len="12"/>
          <note pan="0" key="24" vol="60" pos="3264" len="12"/>
          <note pan="0" key="30" vol="60" pos="3288" len="12"/>
          <note pan="0" key="30" vol="60" pos="3300" len="12"/>
          <note pan="0" key="24" vol="60" pos="3312" len="12"/>
          <note pan="0" key="28" vol="60" pos="3312" len="12"/>
          <note pan="0" key="30" vol="60" pos="3336" len="12"/>
          <note pan="0" key="30" vol="60" pos="3348" len="12"/>
          <note pan="0" key="24" vol="60" pos="3360" len="12"/>
          <note pan="0" key="30" vol="60" pos="3384" len="12"/>
          <note pan="0" key="30" vol="60" pos="3396" len="12"/>
          <note pan="0" key="24" vol="60" pos="3408" len="12"/>
          <note pan="0" key="28" vol="60" pos="3408" len="12"/>
          <note pan="0" key="30" vol="60" pos="3420" len="12"/>
          <note pan="0" key="30" vol="60" pos="3444" len="12"/>
          <note pan="0" key="28" vol="60" pos="3444" len="12"/>
          <note pan="0" key="24" vol="60" pos="3456" len="12"/>
          <note pan="0" key="30" vol="60" pos="3480" len="12"/>
          <note pan="0" key="30" vol="60" pos="3492" len="12"/>
          <note pan="0" key="24" vol="60" pos="3504" len="12"/>
          <note pan="0" key="28" vol="60" pos="3504" len="12"/>
          <note pan="0" key="30" vol="60" pos="3528" len="12"/>
          <note pan="0" key="30" vol="60" pos="3540" len="12"/>
          <note pan="0" key="24" vol="60" pos="3552" len="12"/>
          <note pan="0" key="28" vol="60" pos="3564" len="12"/>
          <note pan="0" key="30" vol="60" pos="3576" len="12"/>
          <note pan="0" key="30" vol="60" pos="3588" len="12"/>
          <note pan="0" key="24" vol="60" pos="3600" len="12"/>
          <note pan="0" key="28" vol="60" pos="3600" len="12"/>
          <note pan="0" key="30" vol="60" pos="3612" len="12"/>
          <note pan="0" key="28" vol="60" pos="3624" len="12"/>
          <note pan="0" key="30" vol="60" pos="3636" len="12"/>
          <note pan="0" key="28" vol="60" pos="3636" len="12"/>
          <note pan="0" key="24" vol="60" pos="3648" len="12"/>
          <note pan="0" key="30" vol="60" pos="3672" len="12"/>
          <note pan="0" key="30" vol="60" pos="3684" len="12"/>
          <note pan="0" key="24" vol="60" pos="3696" len="12"/>
          <note pan="0" key="28" vol="60" pos="3696" len="12"/>
          <note pan="0" key="30" vol="60" pos="3720" len="12"/>
          <note pan="0" key="30" vol="60" pos="3732" len="12"/>
          <note pan="0" key="24" vol="60" pos="3744" len="12"/>
          <note pan="0" key="30" vol="60" pos="3768" len="12"/>
          <note pan="0" key="30" vol="60" pos="3780" len="12"/>
          <note pan="0" key="24" vol="60" pos="3792" len="12"/>
          <note pan="0" key="28" vol="60" pos="3792" len="12"/>
          <note pan="0" key="30" vol="60" pos="3804" len="12"/>
          <note pan="0" key="30" vol="60" pos="3828" len="12"/>
          <note pan="0" key="28" vol="60" pos="3828" len="12"/>
          <note pan="0" key="24" vol="60" pos="3840" len="12"/>
          <note pan="0" key="30" vol="60" pos="3864" len="12"/>
          <note pan="0" key="30" vol="60" pos="3876" len="12"/>
          <note pan="0" key="24" vol="60" pos="3888" len="12"/>
          <note pan="0" key="28" vol="60" pos="3888" len="12"/>
          <note pan="0" key="30" vol="60" pos="3912" len="12"/>
          <note pan="0" key="30" vol="60" pos="3924" len="12"/>
          <note pan="0" key="24" vol="60" pos="3936" len="12"/>
          <note pan="0" key="28" vol="60" pos="3948" len="12"/>
          <note pan="0" key="30" vol="60" pos="3960" len="12"/>
          <note pan="0" key="30" vol="60" pos="3972" len="12"/>
          <note pan="0" key="24" vol="60" pos="3984" len="12"/>
          <note pan="0" key="28" vol="60" pos="3984" len="12"/>
          <note pan="0" key="30" vol="60" pos="3996" len="12"/>
          <note pan="0" key="28" vol="60" pos="4008" len="12"/>
          <note pan="0" key="30" vol="60" pos="4020" len="12"/>
          <note pan="0" key="28" vol="60" pos="4020" len="12"/>
          <note pan="0" key="24" vol="60" pos="4032" len="12"/>
          <note pan="0" key="30" vol="60" pos="4056" len="12"/>
          <note pan="0" key="30" vol="60" pos="4068" len="12"/>
          <note pan="0" key="24" vol="60" pos="4080" len="12"/>
          <note pan="0" key="28" vol="60" pos="4080" len="12"/>
          <note pan="0" key="30" vol="60" pos="4104" len="12"/>
          <note pan="0" key="30" vol="60" pos="4116" len="12"/>
          <note pan="0" key="24" vol="60" pos="4128" len="12"/>
          <note pan="0" key="30" vol="60" pos="4152" len="12"/>
          <note pan="0" key="30" vol="60" pos="4164" len="12"/>
          <note pan="0" key="24" vol="60" pos="4176" len="12"/>
          <note pan="0" key="28" vol="60" pos="4176" len="12"/>
          <note pan="0" key="30" vol="60" pos="4188" len="12"/>
          <note pan="0" key="30" vol="60" pos="4212" len="12"/>
          <note pan="0" key="28" vol="60" pos="4212" len="12"/>
          <note pan="0" key="24" vol="60" pos="4224" len="12"/>
          <note pan="0" key="30" vol="60" pos="4248" len="12"/>
          <note pan="0" key="30" vol="60" pos="4260" len="12"/>
          <note pan="0" key="24" vol="60" pos="4272" len="12"/>
          <note pan="0" key="28" vol="60" pos="4272" len="12"/>
          <note pan="0" key="30" vol="60" pos="4296" len="12"/>
          <note pan="0" key="30" vol="60" pos="4308" len="12"/>
          <note pan="0" key="24" vol="60" pos="4320" len="12"/>
          <note pan="0" key="28" vol="60" pos="4332" len="12"/>
          <note pan="0" key="30" vol="60" pos="4344" len="12"/>
          <note pan="0" key="30" vol="60" pos="4356" len="12"/>
          <note pan="0" key="24" vol="60" pos="4368" len="12"/>
          <note pan="0" key="28" vol="60" pos="4368" len="12"/>
          <note pan="0" key="30" vol="60" pos="4380" len="12"/>
          <note pan="0" key="28" vol="60" pos="4392" len="12"/>
          <note pan="0" key="30" vol="60" pos="4404" len="12"/>
          <note pan="0" key="28" vol="60" pos="4404" len="12"/>
          <note pan="0" key="24" vol="60" pos="4416" len="12"/>
          <note pan="0" key="30" vol="60" pos="4440" len="12"/>
          <note pan="0" key="30" vol="60" pos="4452" len="12"/>
          <note pan="0" key="24" vol="60" pos="4464" len="12"/>
          <note pan="0" key="28" vol="60" pos="4464" len="12"/>
          <note pan="0" key="30" vol="60" pos="4488" len="12"/>
          <note pan="0" key="30" vol="60" pos="4500" len="12"/>
          <note pan="0" key="24" vol="60" pos="4512" len="12"/>
          <note pan="0" key="30" vol="60" pos="4536" len="12"/>
          <note pan="0" key="30" vol="60" pos="4548" len="12"/>
          <note pan="0" key="24" vol="60" pos="4560" len="12"/>
          <note pan="0" key="28" vol="60" pos="4560" len="12"/>
          <note pan="0" key="30" vol="60" pos="4572" len="12"/>
          <note pan="0" key="30" vol="60" pos="4596" len="12"/>
          <note pan="0" key="28" vol="60" pos="4596" len="12"/>
          <note pan="0" key="24" vol="60" pos="4608" len="12"/>
          <note pan="0" key="30" vol="60" pos="4632" len="12"/>
          <note pan="0" key="30" vol="60" pos="4644" len="12"/>
          <note pan="0" key="24" vol="60" pos="4656" len="12"/>
          <note pan="0" key="28" vol="60" pos="4656" len="12"/>
          <note pan="0" key="30" vol="60" pos="4680" len="12"/>
          <note pan="0" key="30" vol="60" pos="4692" len="12"/>
          <note pan="0" key="24" vol="60" pos="4704" len="12"/>
          <note pan="0" key="28" vol="60" pos="4716" len="12"/>
          <note pan="0" key="30" vol="60" pos="4728" len="12"/>
          <note pan="0" key="30" vol="60" pos="4740" len="12"/>
          <note pan="0" key="24" vol="60" pos="4752" len="12"/>
          <note pan="0" key="28" vol="60" pos="4752" len="12"/>
          <note pan="0" key="30" vol="60" pos="4764" len="12"/>
          <note pan="0" key="28" vol="60" pos="4776" len="12"/>
          <note pan="0" key="30" vol="60" pos="4788" len="12"/>
          <note pan="0" key="28" vol="60" pos="4788" len="12"/>
          <note pan="0" key="24" vol="60" pos="4800" len="12"/>
          <note pan="0" key="30" vol="60" pos="4824" len="12"/>
          <note pan="0" key="30" vol="60" pos="4836" len="12"/>
          <note pan="0" key="28" vol="60" pos="4848" len="12"/>
          <note pan="0" key="24" vol="60" pos="4848" len="12"/>
          <note pan="0" key="30" vol="60" pos="4872" len="12"/>
          <note pan="0" key="30" vol="60" pos="4884" len="12"/>
          <note pan="0" key="24" vol="60" pos="4896" len="12"/>
          <note pan="0" key="30" vol="60" pos="4920" len="12"/>
          <note pan="0" key="30" vol="60" pos="4932" len="12"/>
          <note pan="0" key="28" vol="60" pos="4944" len="12"/>
          <note pan="0" key="24" vol="60" pos="4944" len="12"/>
          <note pan="0" key="30" vol="60" pos="4956" len="12"/>
          <note pan="0" key="30" vol="60" pos="4980" len="12"/>
          <note pan="0" key="28" vol="60" pos="4980" len="12"/>
          <note pan="0" key="24" vol="60" pos="4992" len="12"/>
          <note pan="0" key="30" vol="60" pos="5016" len="12"/>
          <note pan="0" key="30" vol="60" pos="5028" len="12"/>
          <note pan="0" key="28" vol="60" pos="5040" len="12"/>
          <note pan="0" key="24" vol="60" pos="5040" len="12"/>
          <note pan="0" key="30" vol="60" pos="5064" len="12"/>
          <note pan="0" key="30" vol="60" pos="5076" len="12"/>
          <note pan="0" key="24" vol="60" pos="5088" len="12"/>
          <note pan="0" key="28" vol="60" pos="5100" len="12"/>
          <note pan="0" key="30" vol="60" pos="5112" len="12"/>
          <note pan="0" key="30" vol="60" pos="5124" len="12"/>
          <note pan="0" key="28" vol="60" pos="5136" len="12"/>
          <note pan="0" key="24" vol="60" pos="5136" len="12"/>
          <note pan="0" key="30" vol="60" pos="5148" len="12"/>
          <note pan="0" key="28" vol="60" pos="5160" len="12"/>
          <note pan="0" key="30" vol="60" pos="5172" len="12"/>
          <note pan="0" key="28" vol="60" pos="5172" len="12"/>
          <note pan="0" key="24" vol="60" pos="5184" len="12"/>
          <note pan="0" key="30" vol="60" pos="5208" len="12"/>
          <note pan="0" key="30" vol="60" pos="5220" len="12"/>
          <note pan="0" key="28" vol="60" pos="5232" len="12"/>
          <note pan="0" key="24" vol="60" pos="5232" len="12"/>
          <note pan="0" key="30" vol="60" pos="5256" len="12"/>
          <note pan="0" key="30" vol="60" pos="5268" len="12"/>
          <note pan="0" key="24" vol="60" pos="5280" len="12"/>
          <note pan="0" key="30" vol="60" pos="5304" len="12"/>
          <note pan="0" key="30" vol="60" pos="5316" len="12"/>
          <note pan="0" key="28" vol="60" pos="5328" len="12"/>
          <note pan="0" key="24" vol="60" pos="5328" len="12"/>
          <note pan="0" key="30" vol="60" pos="5340" len="12"/>
          <note pan="0" key="30" vol="60" pos="5364" len="12"/>
          <note pan="0" key="28" vol="60" pos="5364" len="12"/>
          <note pan="0" key="24" vol="60" pos="5376" len="12"/>
          <note pan="0" key="30" vol="60" pos="5400" len="12"/>
          <note pan="0" key="30" vol="60" pos="5412" len="12"/>
          <note pan="0" key="28" vol="60" pos="5424" len="12"/>
          <note pan="0" key="24" vol="60" pos="5424" len="12"/>
          <note pan="0" key="30" vol="60" pos="5448" len="12"/>
          <note pan="0" key="30" vol="60" pos="5460" len="12"/>
          <note pan="0" key="24" vol="60" pos="5472" len="12"/>
          <note pan="0" key="28" vol="60" pos="5484" len="12"/>
          <note pan="0" key="30" vol="60" pos="5496" len="12"/>
          <note pan="0" key="30" vol="60" pos="5508" len="12"/>
          <note pan="0" key="28" vol="60" pos="5520" len="12"/>
          <note pan="0" key="24" vol="60" pos="5520" len="12"/>
          <note pan="0" key="30" vol="60" pos="5532" len="12"/>
          <note pan="0" key="28" vol="60" pos="5544" len="12"/>
          <note pan="0" key="30" vol="60" pos="5556" len="12"/>
          <note pan="0" key="28" vol="60" pos="5556" len="12"/>
          <note pan="0" key="24" vol="60" pos="5568" len="12"/>
          <note pan="0" key="30" vol="60" pos="5592" len="12"/>
          <note pan="0" key="30" vol="60" pos="5604" len="12"/>
          <note pan="0" key="28" vol="60" pos="5616" len="12"/>
          <note pan="0" key="24" vol="60" pos="5616" len="12"/>
          <note pan="0" key="30" vol="60" pos="5640" len="12"/>
          <note pan="0" key="30" vol="60" pos="5652" len="12"/>
          <note pan="0" key="24" vol="60" pos="5664" len="12"/>
          <note pan="0" key="30" vol="60" pos="5688" len="12"/>
          <note pan="0" key="30" vol="60" pos="5700" len="12"/>
          <note pan="0" key="28" vol="60" pos="5712" len="12"/>
          <note pan="0" key="24" vol="60" pos="5712" len="12"/>
          <note pan="0" key="30" vol="60" pos="5724" len="12"/>
          <note pan="0" key="30" vol="60" pos="5748" len="12"/>
          <note pan="0" key="28" vol="60" pos="5748" len="12"/>
          <note pan="0" key="24" vol="60" pos="5760" len="12"/>
          <note pan="0" key="30" vol="60" pos="5784" len="12"/>
          <note pan="0" key="30" vol="60" pos="5796" len="12"/>
          <note pan="0" key="28" vol="60" pos="5808" len="12"/>
          <note pan="0" key="24" vol="60" pos="5808" len="12"/>
          <note pan="0" key="30" vol="60" pos="5832" len="12"/>
          <note pan="0" key="30" vol="60" pos="5844" len="12"/>
          <note pan="0" key="24" vol="60" pos="5856" len="12"/>
          <note pan="0" key="28" vol="60" pos="5868" len="12"/>
          <note pan="0" key="30" vol="60" pos="5880" len="12"/>
          <note pan="0" key="30" vol="60" pos="5892" len="12"/>
          <note pan="0" key="28" vol="60" pos="5904" len="12"/>
          <note pan="0" key="24" vol="60" pos="5904" len="12"/>
          <note pan="0" key="30" vol="60" pos="5916" len="12"/>
          <note pan="0" key="28" vol="60" pos="5928" len="12"/>
          <note pan="0" key="30" vol="60" pos="5940" len="12"/>
          <note pan="0" key="28" vol="60" pos="5940" len="12"/>
          <note pan="0" key="24" vol="60" pos="5952" len="12"/>
          <note pan="0" key="30" vol="60" pos="5976" len="12"/>
          <note pan="0" key="30" vol="60" pos="5988" len="12"/>
          <note pan="0" key="28" vol="60" pos="6000" len="12"/>
          <note pan="0" key="24" vol="60" pos="6000" len="12"/>
          <note pan="0" key="30" vol="60" pos="6024" len="12"/>
          <note pan="0" key="30" vol="60" pos="6036" len="12"/>
          <note pan="0" key="24" vol="60" pos="6048" len="12"/>
          <note pan="0" key="30" vol="60" pos="6072" len="12"/>
          <note pan="0" key="30" vol="60" pos="6084" len="12"/>
          <note pan="0" key="28" vol="60" pos="6096" len="12"/>
          <note pan="0" key="24" vol="60" pos="6096" len="12"/>
          <note pan="0" key="30" vol="60" pos="6108" len="12"/>
          <note pan="0" key="30" vol="60" pos="6132" len="12"/>
          <note pan="0" key="28" vol="60" pos="6132" len="12"/>
          <note pan="0" key="24" vol="60" pos="6144" len="12"/>
          <note pan="0" key="30" vol="60" pos="6168" len="12"/>
          <note pan="0" key="30" vol="60" pos="6180" len="12"/>
          <note pan="0" key="28" vol="60" pos="6192" len="12"/>
          <note pan="0" key="24" vol="60" pos="6192" len="12"/>
          <note pan="0" key="30" vol="60" pos="6216" len="12"/>
          <note pan="0" key="30" vol="60" pos="6228" len="12"/>
          <note pan="0" key="24" vol="60" pos="6240" len="12"/>
          <note pan="0" key="28" vol="60" pos="6252" len="12"/>
          <note pan="0" key="30" vol="60" pos="6264" len="12"/>
          <note pan="0" key="30" vol="60" pos="6276" len="12"/>
          <note pan="0" key="28" vol="60" pos="6288" len="12"/>
          <note pan="0" key="24" vol="60" pos="6288" len="12"/>
          <note pan="0" key="30" vol="60" pos="6300" len="12"/>
          <note pan="0" key="28" vol="60" pos="6312" len="12"/>
          <note pan="0" key="30" vol="60" pos="6324" len="12"/>
          <note pan="0" key="28" vol="60" pos="6324" len="12"/>
        </pattern>
      </track>
      <track muted="0" type="0" name="Standard-Preset">
        <instrumenttrack pan="0" fxch="0" pitch="0" basenote="57" vol="100">
          <instrument name="sf2player">
            <sf2player patch="38" chorusLevel="2" chorusDepth="8" reverbOn="0" reverbRoomSize="0.2" chorusOn="0" chorusSpeed="0.3" reverbDamping="0" chorusNum="3" reverbLevel="0.9" bank="0" reverbWidth="0.5" src="C:\VST32\Soundfonts\SF2\GenesiSF.SF2" gain="1"/>
          </instrument>
          <eldata fres="0.5" ftype="0" fcut="14000" fwet="0">
            <elvol lspd_denominator="4" pdel="0" userwavefile="" dec="0.5" lamt="0" syncmode="0" latt="0" rel="0.1" sus="0.5" amt="0" x100="0" att="0" lpdel="0" hold="0.5" lshp="0" lspd="0.1" ctlenvamt="0" lspd_numerator="4"/>
            <elcut lspd_denominator="4" pdel="0" userwavefile="" dec="0.5" lamt="0" syncmode="0" latt="0" rel="0.1" sus="0.5" amt="0" x100="0" att="0" lpdel="0" hold="0.5" lshp="0" lspd="0.1" ctlenvamt="0" lspd_numerator="4"/>
            <elres lspd_denominator="4" pdel="0" userwavefile="" dec="0.5" lamt="0" syncmode="0" latt="0" rel="0.1" sus="0.5" amt="0" x100="0" att="0" lpdel="0" hold="0.5" lshp="0" lspd="0.1" ctlenvamt="0" lspd_numerator="4"/>
          </eldata>
          <chordcreator chord="0" chordrange="1" chord-enabled="0"/>
          <arpeggiator arptime="100" arprange="1" arptime_denominator="4" syncmode="0" arpmode="0" arp-enabled="0" arp="0" arptime_numerator="4" arpdir="0" arpgate="100"/>
          <midiport inputcontroller="0" fixedoutputvelocity="-1" inputchannel="0" outputcontroller="0" writable="0" outputchannel="1" fixedinputvelocity="-1" outputprogram="1" readable="0"/>
          <fxchain numofeffects="0" enabled="0"/>
        </instrumenttrack>
        <pattern steps="16" muted="0" type="1" name="Standard-Preset" pos="0" len="6912" frozen="0">
          <note pan="0" key="21" vol="60" pos="0" len="12"/>
          <note pan="0" key="21" vol="60" pos="12" len="12"/>
          <note pan="0" key="21" vol="60" pos="24" len="12"/>
          <note pan="0" key="21" vol="60" pos="48" len="12"/>
          <note pan="0" key="21" vol="60" pos="60" len="12"/>
          <note pan="0" key="21" vol="60" pos="84" len="12"/>
          <note pan="0" key="21" vol="60" pos="96" len="12"/>
          <note pan="0" key="21" vol="60" pos="120" len="12"/>
          <note pan="0" key="21" vol="60" pos="132" len="12"/>
          <note pan="0" key="21" vol="60" pos="156" len="12"/>
          <note pan="0" key="19" vol="60" pos="168" len="12"/>
          <note pan="0" key="21" vol="60" pos="192" len="12"/>
          <note pan="0" key="21" vol="60" pos="204" len="12"/>
          <note pan="0" key="21" vol="60" pos="216" len="12"/>
          <note pan="0" key="21" vol="60" pos="240" len="12"/>
          <note pan="0" key="21" vol="60" pos="252" len="12"/>
          <note pan="0" key="21" vol="60" pos="276" len="12"/>
          <note pan="0" key="21" vol="60" pos="288" len="12"/>
          <note pan="0" key="21" vol="60" pos="312" len="12"/>
          <note pan="0" key="21" vol="60" pos="324" len="12"/>
          <note pan="0" key="21" vol="60" pos="348" len="12"/>
          <note pan="0" key="19" vol="60" pos="360" len="12"/>
          <note pan="0" key="21" vol="60" pos="384" len="12"/>
          <note pan="0" key="21" vol="60" pos="396" len="12"/>
          <note pan="0" key="21" vol="60" pos="408" len="12"/>
          <note pan="0" key="21" vol="60" pos="432" len="12"/>
          <note pan="0" key="21" vol="60" pos="444" len="12"/>
          <note pan="0" key="21" vol="60" pos="468" len="12"/>
          <note pan="0" key="21" vol="60" pos="480" len="12"/>
          <note pan="0" key="21" vol="60" pos="504" len="12"/>
          <note pan="0" key="21" vol="60" pos="516" len="12"/>
          <note pan="0" key="21" vol="60" pos="540" len="12"/>
          <note pan="0" key="19" vol="60" pos="552" len="12"/>
          <note pan="0" key="21" vol="60" pos="576" len="12"/>
          <note pan="0" key="21" vol="60" pos="588" len="12"/>
          <note pan="0" key="21" vol="60" pos="600" len="12"/>
          <note pan="0" key="21" vol="60" pos="624" len="12"/>
          <note pan="0" key="21" vol="60" pos="636" len="12"/>
          <note pan="0" key="21" vol="60" pos="660" len="12"/>
          <note pan="0" key="21" vol="60" pos="672" len="12"/>
          <note pan="0" key="21" vol="60" pos="696" len="12"/>
          <note pan="0" key="21" vol="60" pos="708" len="12"/>
          <note pan="0" key="21" vol="60" pos="732" len="12"/>
          <note pan="0" key="19" vol="60" pos="744" len="12"/>
          <note pan="0" key="21" vol="60" pos="768" len="12"/>
          <note pan="0" key="21" vol="60" pos="780" len="12"/>
          <note pan="0" key="21" vol="60" pos="792" len="12"/>
          <note pan="0" key="21" vol="60" pos="816" len="12"/>
          <note pan="0" key="21" vol="60" pos="828" len="12"/>
          <note pan="0" key="21" vol="60" pos="852" len="12"/>
          <note pan="0" key="21" vol="60" pos="864" len="12"/>
          <note pan="0" key="21" vol="60" pos="888" len="12"/>
          <note pan="0" key="21" vol="60" pos="900" len="12"/>
          <note pan="0" key="21" vol="60" pos="924" len="12"/>
          <note pan="0" key="19" vol="60" pos="936" len="12"/>
          <note pan="0" key="21" vol="60" pos="960" len="12"/>
          <note pan="0" key="21" vol="60" pos="972" len="12"/>
          <note pan="0" key="21" vol="60" pos="984" len="12"/>
          <note pan="0" key="21" vol="60" pos="1008" len="12"/>
          <note pan="0" key="21" vol="60" pos="1020" len="12"/>
          <note pan="0" key="21" vol="60" pos="1044" len="12"/>
          <note pan="0" key="21" vol="60" pos="1056" len="12"/>
          <note pan="0" key="21" vol="60" pos="1080" len="12"/>
          <note pan="0" key="21" vol="60" pos="1092" len="12"/>
          <note pan="0" key="21" vol="60" pos="1116" len="12"/>
          <note pan="0" key="19" vol="60" pos="1128" len="12"/>
          <note pan="0" key="21" vol="60" pos="1152" len="12"/>
          <note pan="0" key="21" vol="60" pos="1164" len="12"/>
          <note pan="0" key="21" vol="60" pos="1176" len="12"/>
          <note pan="0" key="21" vol="60" pos="1200" len="12"/>
          <note pan="0" key="21" vol="60" pos="1212" len="12"/>
          <note pan="0" key="21" vol="60" pos="1236" len="12"/>
          <note pan="0" key="21" vol="60" pos="1248" len="12"/>
          <note pan="0" key="21" vol="60" pos="1272" len="12"/>
          <note pan="0" key="21" vol="60" pos="1284" len="12"/>
          <note pan="0" key="21" vol="60" pos="1308" len="12"/>
          <note pan="0" key="19" vol="60" pos="1320" len="12"/>
          <note pan="0" key="21" vol="60" pos="1344" len="12"/>
          <note pan="0" key="21" vol="60" pos="1356" len="12"/>
          <note pan="0" key="21" vol="60" pos="1368" len="12"/>
          <note pan="0" key="21" vol="60" pos="1392" len="12"/>
          <note pan="0" key="21" vol="60" pos="1404" len="12"/>
          <note pan="0" key="21" vol="60" pos="1428" len="12"/>
          <note pan="0" key="21" vol="60" pos="1440" len="12"/>
          <note pan="0" key="21" vol="60" pos="1464" len="12"/>
          <note pan="0" key="21" vol="60" pos="1476" len="12"/>
          <note pan="0" key="21" vol="60" pos="1500" len="12"/>
          <note pan="0" key="19" vol="60" pos="1512" len="12"/>
          <note pan="0" key="19" vol="60" pos="1536" len="12"/>
          <note pan="0" key="19" vol="60" pos="1548" len="12"/>
          <note pan="0" key="19" vol="60" pos="1572" len="12"/>
          <note pan="0" key="19" vol="60" pos="1584" len="12"/>
          <note pan="0" key="19" vol="60" pos="1608" len="12"/>
          <note pan="0" key="19" vol="60" pos="1620" len="12"/>
          <note pan="0" key="19" vol="60" pos="1644" len="12"/>
          <note pan="0" key="19" vol="60" pos="1656" len="12"/>
          <note pan="0" key="17" vol="60" pos="1680" len="24"/>
          <note pan="0" key="19" vol="60" pos="1704" len="24"/>
          <note pan="0" key="19" vol="60" pos="1728" len="12"/>
          <note pan="0" key="19" vol="60" pos="1740" len="12"/>
          <note pan="0" key="19" vol="60" pos="1764" len="12"/>
          <note pan="0" key="19" vol="60" pos="1776" len="12"/>
          <note pan="0" key="19" vol="60" pos="1800" len="12"/>
          <note pan="0" key="19" vol="60" pos="1812" len="12"/>
          <note pan="0" key="19" vol="60" pos="1836" len="12"/>
          <note pan="0" key="19" vol="60" pos="1848" len="12"/>
          <note pan="0" key="17" vol="60" pos="1872" len="24"/>
          <note pan="0" key="19" vol="60" pos="1896" len="24"/>
          <note pan="0" key="21" vol="60" pos="1920" len="12"/>
          <note pan="0" key="21" vol="60" pos="1932" len="12"/>
          <note pan="0" key="21" vol="60" pos="1944" len="12"/>
          <note pan="0" key="21" vol="60" pos="1968" len="12"/>
          <note pan="0" key="21" vol="60" pos="1980" len="12"/>
          <note pan="0" key="21" vol="60" pos="2004" len="12"/>
          <note pan="0" key="21" vol="60" pos="2016" len="12"/>
          <note pan="0" key="21" vol="60" pos="2040" len="12"/>
          <note pan="0" key="21" vol="60" pos="2052" len="12"/>
          <note pan="0" key="21" vol="60" pos="2076" len="12"/>
          <note pan="0" key="19" vol="60" pos="2088" len="12"/>
          <note pan="0" key="21" vol="60" pos="2112" len="12"/>
          <note pan="0" key="21" vol="60" pos="2124" len="12"/>
          <note pan="0" key="21" vol="60" pos="2136" len="12"/>
          <note pan="0" key="21" vol="60" pos="2160" len="12"/>
          <note pan="0" key="21" vol="60" pos="2172" len="12"/>
          <note pan="0" key="21" vol="60" pos="2196" len="12"/>
          <note pan="0" key="21" vol="60" pos="2208" len="12"/>
          <note pan="0" key="21" vol="60" pos="2232" len="12"/>
          <note pan="0" key="21" vol="60" pos="2244" len="12"/>
          <note pan="0" key="21" vol="60" pos="2268" len="12"/>
          <note pan="0" key="19" vol="60" pos="2280" len="12"/>
          <note pan="0" key="21" vol="60" pos="2304" len="12"/>
          <note pan="0" key="21" vol="60" pos="2316" len="12"/>
          <note pan="0" key="21" vol="60" pos="2328" len="12"/>
          <note pan="0" key="21" vol="60" pos="2352" len="12"/>
          <note pan="0" key="21" vol="60" pos="2364" len="12"/>
          <note pan="0" key="21" vol="60" pos="2388" len="12"/>
          <note pan="0" key="21" vol="60" pos="2400" len="12"/>
          <note pan="0" key="21" vol="60" pos="2424" len="12"/>
          <note pan="0" key="21" vol="60" pos="2436" len="12"/>
          <note pan="0" key="21" vol="60" pos="2460" len="12"/>
          <note pan="0" key="19" vol="60" pos="2472" len="12"/>
          <note pan="0" key="21" vol="60" pos="2496" len="12"/>
          <note pan="0" key="21" vol="60" pos="2508" len="12"/>
          <note pan="0" key="21" vol="60" pos="2520" len="12"/>
          <note pan="0" key="21" vol="60" pos="2544" len="12"/>
          <note pan="0" key="21" vol="60" pos="2556" len="12"/>
          <note pan="0" key="21" vol="60" pos="2580" len="12"/>
          <note pan="0" key="21" vol="60" pos="2592" len="12"/>
          <note pan="0" key="21" vol="60" pos="2616" len="12"/>
          <note pan="0" key="21" vol="60" pos="2628" len="12"/>
          <note pan="0" key="21" vol="60" pos="2652" len="12"/>
          <note pan="0" key="19" vol="60" pos="2664" len="12"/>
          <note pan="0" key="21" vol="60" pos="2688" len="12"/>
          <note pan="0" key="21" vol="60" pos="2700" len="12"/>
          <note pan="0" key="21" vol="60" pos="2712" len="12"/>
          <note pan="0" key="21" vol="60" pos="2736" len="12"/>
          <note pan="0" key="21" vol="60" pos="2748" len="12"/>
          <note pan="0" key="21" vol="60" pos="2772" len="12"/>
          <note pan="0" key="21" vol="60" pos="2784" len="12"/>
          <note pan="0" key="21" vol="60" pos="2808" len="12"/>
          <note pan="0" key="21" vol="60" pos="2820" len="12"/>
          <note pan="0" key="21" vol="60" pos="2844" len="12"/>
          <note pan="0" key="19" vol="60" pos="2856" len="12"/>
          <note pan="0" key="21" vol="60" pos="2880" len="12"/>
          <note pan="0" key="21" vol="60" pos="2892" len="12"/>
          <note pan="0" key="21" vol="60" pos="2904" len="12"/>
          <note pan="0" key="21" vol="60" pos="2928" len="12"/>
          <note pan="0" key="21" vol="60" pos="2940" len="12"/>
          <note pan="0" key="21" vol="60" pos="2964" len="12"/>
          <note pan="0" key="21" vol="60" pos="2976" len="12"/>
          <note pan="0" key="21" vol="60" pos="3000" len="12"/>
          <note pan="0" key="21" vol="60" pos="3012" len="12"/>
          <note pan="0" key="21" vol="60" pos="3036" len="12"/>
          <note pan="0" key="19" vol="60" pos="3048" len="12"/>
          <note pan="0" key="19" vol="60" pos="3072" len="12"/>
          <note pan="0" key="19" vol="60" pos="3084" len="12"/>
          <note pan="0" key="19" vol="60" pos="3108" len="12"/>
          <note pan="0" key="19" vol="60" pos="3120" len="12"/>
          <note pan="0" key="19" vol="60" pos="3144" len="12"/>
          <note pan="0" key="19" vol="60" pos="3156" len="12"/>
          <note pan="0" key="19" vol="60" pos="3180" len="12"/>
          <note pan="0" key="19" vol="60" pos="3192" len="12"/>
          <note pan="0" key="17" vol="60" pos="3216" len="24"/>
          <note pan="0" key="19" vol="60" pos="3240" len="24"/>
          <note pan="0" key="19" vol="60" pos="3264" len="12"/>
          <note pan="0" key="19" vol="60" pos="3276" len="12"/>
          <note pan="0" key="19" vol="60" pos="3300" len="12"/>
          <note pan="0" key="19" vol="60" pos="3312" len="12"/>
          <note pan="0" key="19" vol="60" pos="3336" len="12"/>
          <note pan="0" key="19" vol="60" pos="3348" len="12"/>
          <note pan="0" key="19" vol="60" pos="3372" len="12"/>
          <note pan="0" key="19" vol="60" pos="3384" len="12"/>
          <note pan="0" key="17" vol="60" pos="3408" len="24"/>
          <note pan="0" key="19" vol="60" pos="3432" len="24"/>
          <note pan="0" key="21" vol="60" pos="3456" len="12"/>
          <note pan="0" key="21" vol="60" pos="3468" len="12"/>
          <note pan="0" key="21" vol="60" pos="3480" len="12"/>
          <note pan="0" key="21" vol="60" pos="3504" len="12"/>
          <note pan="0" key="21" vol="60" pos="3516" len="12"/>
          <note pan="0" key="21" vol="60" pos="3540" len="12"/>
          <note pan="0" key="21" vol="60" pos="3552" len="12"/>
          <note pan="0" key="21" vol="60" pos="3576" len="12"/>
          <note pan="0" key="21" vol="60" pos="3588" len="12"/>
          <note pan="0" key="21" vol="60" pos="3612" len="12"/>
          <note pan="0" key="19" vol="60" pos="3624" len="12"/>
          <note pan="0" key="21" vol="60" pos="3648" len="12"/>
          <note pan="0" key="21" vol="60" pos="3660" len="12"/>
          <note pan="0" key="21" vol="60" pos="3672" len="12"/>
          <note pan="0" key="21" vol="60" pos="3696" len="12"/>
          <note pan="0" key="21" vol="60" pos="3708" len="12"/>
          <note pan="0" key="21" vol="60" pos="3732" len="12"/>
          <note pan="0" key="21" vol="60" pos="3744" len="12"/>
          <note pan="0" key="21" vol="60" pos="3768" len="12"/>
          <note pan="0" key="21" vol="60" pos="3780" len="12"/>
          <note pan="0" key="21" vol="60" pos="3804" len="12"/>
          <note pan="0" key="19" vol="60" pos="3816" len="12"/>
          <note pan="0" key="21" vol="60" pos="3840" len="12"/>
          <note pan="0" key="21" vol="60" pos="3852" len="12"/>
          <note pan="0" key="21" vol="60" pos="3864" len="12"/>
          <note pan="0" key="21" vol="60" pos="3888" len="12"/>
          <note pan="0" key="21" vol="60" pos="3900" len="12"/>
          <note pan="0" key="21" vol="60" pos="3924" len="12"/>
          <note pan="0" key="21" vol="60" pos="3936" len="12"/>
          <note pan="0" key="21" vol="60" pos="3960" len="12"/>
          <note pan="0" key="21" vol="60" pos="3972" len="12"/>
          <note pan="0" key="21" vol="60" pos="3996" len="12"/>
          <note pan="0" key="19" vol="60" pos="4008" len="12"/>
          <note pan="0" key="21" vol="60" pos="4032" len="12"/>
          <note pan="0" key="21" vol="60" pos="4044" len="12"/>
          <note pan="0" key="21" vol="60" pos="4056" len="12"/>
          <note pan="0" key="21" vol="60" pos="4080" len="12"/>
          <note pan="0" key="21" vol="60" pos="4092" len="12"/>
          <note pan="0" key="21" vol="60" pos="4116" len="12"/>
          <note pan="0" key="21" vol="60" pos="4128" len="12"/>
          <note pan="0" key="21" vol="60" pos="4152" len="12"/>
          <note pan="0" key="21" vol="60" pos="4164" len="12"/>
          <note pan="0" key="21" vol="60" pos="4188" len="12"/>
          <note pan="0" key="19" vol="60" pos="4200" len="12"/>
          <note pan="0" key="21" vol="60" pos="4224" len="12"/>
          <note pan="0" key="21" vol="60" pos="4236" len="12"/>
          <note pan="0" key="21" vol="60" pos="4248" len="12"/>
          <note pan="0" key="21" vol="60" pos="4272" len="12"/>
          <note pan="0" key="21" vol="60" pos="4284" len="12"/>
          <note pan="0" key="21" vol="60" pos="4308" len="12"/>
          <note pan="0" key="21" vol="60" pos="4320" len="12"/>
          <note pan="0" key="21" vol="60" pos="4344" len="12"/>
          <note pan="0" key="21" vol="60" pos="4356" len="12"/>
          <note pan="0" key="21" vol="60" pos="4380" len="12"/>
          <note pan="0" key="19" vol="60" pos="4392" len="12"/>
          <note pan="0" key="21" vol="60" pos="4416" len="12"/>
          <note pan="0" key="21" vol="60" pos="4428" len="12"/>
          <note pan="0" key="21" vol="60" pos="4440" len="12"/>
          <note pan="0" key="21" vol="60" pos="4464" len="12"/>
          <note pan="0" key="21" vol="60" pos="4476" len="12"/>
          <note pan="0" key="21" vol="60" pos="4500" len="12"/>
          <note pan="0" key="21" vol="60" pos="4512" len="12"/>
          <note pan="0" key="21" vol="60" pos="4536" len="12"/>
          <note pan="0" key="21" vol="60" pos="4548" len="12"/>
          <note pan="0" key="21" vol="60" pos="4572" len="12"/>
          <note pan="0" key="19" vol="60" pos="4584" len="12"/>
          <note pan="0" key="19" vol="60" pos="4608" len="12"/>
          <note pan="0" key="19" vol="60" pos="4620" len="12"/>
          <note pan="0" key="19" vol="60" pos="4644" len="12"/>
          <note pan="0" key="19" vol="60" pos="4656" len="12"/>
          <note pan="0" key="19" vol="60" pos="4680" len="12"/>
          <note pan="0" key="19" vol="60" pos="4692" len="12"/>
          <note pan="0" key="19" vol="60" pos="4716" len="12"/>
          <note pan="0" key="19" vol="60" pos="4728" len="12"/>
          <note pan="0" key="17" vol="60" pos="4752" len="24"/>
          <note pan="0" key="19" vol="60" pos="4776" len="24"/>
          <note pan="0" key="19" vol="60" pos="4800" len="12"/>
          <note pan="0" key="19" vol="60" pos="4812" len="12"/>
          <note pan="0" key="19" vol="60" pos="4836" len="12"/>
          <note pan="0" key="19" vol="60" pos="4848" len="12"/>
          <note pan="0" key="19" vol="60" pos="4872" len="12"/>
          <note pan="0" key="19" vol="60" pos="4884" len="12"/>
          <note pan="0" key="19" vol="60" pos="4908" len="12"/>
          <note pan="0" key="19" vol="60" pos="4920" len="12"/>
          <note pan="0" key="17" vol="60" pos="4944" len="24"/>
          <note pan="0" key="19" vol="60" pos="4968" len="24"/>
          <note pan="0" key="21" vol="60" pos="4992" len="12"/>
          <note pan="0" key="21" vol="60" pos="5004" len="12"/>
          <note pan="0" key="21" vol="60" pos="5016" len="12"/>
          <note pan="0" key="21" vol="60" pos="5040" len="12"/>
          <note pan="0" key="21" vol="60" pos="5052" len="12"/>
          <note pan="0" key="21" vol="60" pos="5076" len="12"/>
          <note pan="0" key="21" vol="60" pos="5088" len="12"/>
          <note pan="0" key="21" vol="60" pos="5112" len="12"/>
          <note pan="0" key="21" vol="60" pos="5124" len="12"/>
          <note pan="0" key="21" vol="60" pos="5148" len="12"/>
          <note pan="0" key="19" vol="60" pos="5160" len="12"/>
          <note pan="0" key="21" vol="60" pos="5184" len="12"/>
          <note pan="0" key="21" vol="60" pos="5196" len="12"/>
          <note pan="0" key="21" vol="60" pos="5208" len="12"/>
          <note pan="0" key="21" vol="60" pos="5232" len="12"/>
          <note pan="0" key="21" vol="60" pos="5244" len="12"/>
          <note pan="0" key="21" vol="60" pos="5268" len="12"/>
          <note pan="0" key="21" vol="60" pos="5280" len="12"/>
          <note pan="0" key="21" vol="60" pos="5304" len="12"/>
          <note pan="0" key="21" vol="60" pos="5316" len="12"/>
          <note pan="0" key="21" vol="60" pos="5340" len="12"/>
          <note pan="0" key="19" vol="60" pos="5352" len="12"/>
          <note pan="0" key="21" vol="60" pos="5376" len="12"/>
          <note pan="0" key="21" vol="60" pos="5388" len="12"/>
          <note pan="0" key="21" vol="60" pos="5400" len="12"/>
          <note pan="0" key="21" vol="60" pos="5424" len="12"/>
          <note pan="0" key="21" vol="60" pos="5436" len="12"/>
          <note pan="0" key="21" vol="60" pos="5460" len="12"/>
          <note pan="0" key="21" vol="60" pos="5472" len="12"/>
          <note pan="0" key="21" vol="60" pos="5496" len="12"/>
          <note pan="0" key="21" vol="60" pos="5508" len="12"/>
          <note pan="0" key="21" vol="60" pos="5532" len="12"/>
          <note pan="0" key="19" vol="60" pos="5544" len="12"/>
          <note pan="0" key="21" vol="60" pos="5568" len="12"/>
          <note pan="0" key="21" vol="60" pos="5580" len="12"/>
          <note pan="0" key="21" vol="60" pos="5592" len="12"/>
          <note pan="0" key="21" vol="60" pos="5616" len="12"/>
          <note pan="0" key="21" vol="60" pos="5628" len="12"/>
          <note pan="0" key="21" vol="60" pos="5652" len="12"/>
          <note pan="0" key="21" vol="60" pos="5664" len="12"/>
          <note pan="0" key="21" vol="60" pos="5688" len="12"/>
          <note pan="0" key="21" vol="60" pos="5700" len="12"/>
          <note pan="0" key="21" vol="60" pos="5724" len="12"/>
          <note pan="0" key="19" vol="60" pos="5736" len="12"/>
          <note pan="0" key="21" vol="60" pos="5760" len="12"/>
          <note pan="0" key="21" vol="60" pos="5772" len="12"/>
          <note pan="0" key="21" vol="60" pos="5784" len="12"/>
          <note pan="0" key="21" vol="60" pos="5808" len="12"/>
          <note pan="0" key="21" vol="60" pos="5820" len="12"/>
          <note pan="0" key="21" vol="60" pos="5844" len="12"/>
          <note pan="0" key="21" vol="60" pos="5856" len="12"/>
          <note pan="0" key="21" vol="60" pos="5880" len="12"/>
          <note pan="0" key="21" vol="60" pos="5892" len="12"/>
          <note pan="0" key="21" vol="60" pos="5916" len="12"/>
          <note pan="0" key="19" vol="60" pos="5928" len="12"/>
          <note pan="0" key="21" vol="60" pos="5952" len="12"/>
          <note pan="0" key="21" vol="60" pos="5964" len="12"/>
          <note pan="0" key="21" vol="60" pos="5976" len="12"/>
          <note pan="0" key="21" vol="60" pos="6000" len="12"/>
          <note pan="0" key="21" vol="60" pos="6012" len="12"/>
          <note pan="0" key="21" vol="60" pos="6036" len="12"/>
          <note pan="0" key="21" vol="60" pos="6048" len="12"/>
          <note pan="0" key="21" vol="60" pos="6072" len="12"/>
          <note pan="0" key="21" vol="60" pos="6084" len="12"/>
          <note pan="0" key="21" vol="60" pos="6108" len="12"/>
          <note pan="0" key="19" vol="60" pos="6120" len="12"/>
          <note pan="0" key="19" vol="60" pos="6144" len="12"/>
          <note pan="0" key="19" vol="60" pos="6156" len="12"/>
          <note pan="0" key="19" vol="60" pos="6180" len="12"/>
          <note pan="0" key="19" vol="60" pos="6192" len="12"/>
          <note pan="0" key="19" vol="60" pos="6216" len="12"/>
          <note pan="0" key="19" vol="60" pos="6228" len="12"/>
          <note pan="0" key="19" vol="60" pos="6252" len="12"/>
          <note pan="0" key="19" vol="60" pos="6264" len="12"/>
          <note pan="0" key="17" vol="60" pos="6288" len="24"/>
          <note pan="0" key="19" vol="60" pos="6312" len="24"/>
          <note pan="0" key="19" vol="60" pos="6336" len="12"/>
          <note pan="0" key="19" vol="60" pos="6348" len="12"/>
          <note pan="0" key="19" vol="60" pos="6372" len="12"/>
          <note pan="0" key="19" vol="60" pos="6384" len="12"/>
          <note pan="0" key="19" vol="60" pos="6408" len="12"/>
          <note pan="0" key="19" vol="60" pos="6420" len="12"/>
          <note pan="0" key="19" vol="60" pos="6444" len="12"/>
          <note pan="0" key="19" vol="60" pos="6456" len="12"/>
          <note pan="0" key="17" vol="60" pos="6480" len="24"/>
          <note pan="0" key="19" vol="60" pos="6504" len="24"/>
          <note pan="0" key="21" vol="60" pos="6528" len="12"/>
          <note pan="0" key="21" vol="60" pos="6540" len="12"/>
          <note pan="0" key="21" vol="60" pos="6552" len="12"/>
          <note pan="0" key="21" vol="60" pos="6576" len="12"/>
          <note pan="0" key="21" vol="60" pos="6588" len="12"/>
          <note pan="0" key="21" vol="60" pos="6612" len="12"/>
          <note pan="0" key="21" vol="60" pos="6624" len="12"/>
          <note pan="0" key="21" vol="60" pos="6648" len="12"/>
          <note pan="0" key="21" vol="60" pos="6660" len="12"/>
          <note pan="0" key="21" vol="60" pos="6684" len="12"/>
          <note pan="0" key="19" vol="60" pos="6696" len="12"/>
          <note pan="0" key="21" vol="60" pos="6720" len="12"/>
          <note pan="0" key="21" vol="60" pos="6732" len="12"/>
          <note pan="0" key="21" vol="60" pos="6744" len="12"/>
          <note pan="0" key="21" vol="60" pos="6768" len="12"/>
          <note pan="0" key="21" vol="60" pos="6780" len="12"/>
          <note pan="0" key="21" vol="60" pos="6804" len="12"/>
          <note pan="0" key="21" vol="60" pos="6816" len="12"/>
          <note pan="0" key="21" vol="60" pos="6840" len="12"/>
          <note pan="0" key="21" vol="60" pos="6852" len="12"/>
          <note pan="0" key="21" vol="60" pos="6876" len="12"/>
          <note pan="0" key="19" vol="60" pos="6888" len="12"/>
        </pattern>
      </track>
      <track muted="0" type="0" name="Standard-Preset">
        <instrumenttrack pan="0" fxch="0" pitch="0" basenote="57" vol="83.1">
          <instrument name="sf2player">
            <sf2player patch="39" chorusLevel="2" chorusDepth="8" reverbOn="0" reverbRoomSize="0.2" chorusOn="0" chorusSpeed="0.3" reverbDamping="0" chorusNum="3" reverbLevel="0.9" bank="0" reverbWidth="0.5" src="C:\VST32\Soundfonts\SF2\GenesiSF.SF2" gain="1"/>
          </instrument>
          <eldata fres="0.5" ftype="0" fcut="14000" fwet="0">
            <elvol lspd_denominator="4" pdel="0" userwavefile="" dec="0.5" lamt="0" syncmode="0" latt="0" rel="0.1" sus="0.5" amt="0" x100="0" att="0" lpdel="0" hold="0.5" lshp="0" lspd="0.1" ctlenvamt="0" lspd_numerator="4"/>
            <elcut lspd_denominator="4" pdel="0" userwavefile="" dec="0.5" lamt="0" syncmode="0" latt="0" rel="0.1" sus="0.5" amt="0" x100="0" att="0" lpdel="0" hold="0.5" lshp="0" lspd="0.1" ctlenvamt="0" lspd_numerator="4"/>
            <elres lspd_denominator="4" pdel="0" userwavefile="" dec="0.5" lamt="0" syncmode="0" latt="0" rel="0.1" sus="0.5" amt="0" x100="0" att="0" lpdel="0" hold="0.5" lshp="0" lspd="0.1" ctlenvamt="0" lspd_numerator="4"/>
          </eldata>
          <chordcreator chord="0" chordrange="1" chord-enabled="0"/>
          <arpeggiator arptime="100" arprange="1" arptime_denominator="4" syncmode="0" arpmode="0" arp-enabled="0" arp="0" arptime_numerator="4" arpdir="0" arpgate="100"/>
          <midiport inputcontroller="0" fixedoutputvelocity="-1" inputchannel="0" outputcontroller="0" writable="0" outputchannel="1" fixedinputvelocity="-1" outputprogram="1" readable="0"/>
          <fxchain numofeffects="0" enabled="0"/>
        </instrumenttrack>
        <pattern steps="16" muted="0" type="1" name="Standard-Preset" pos="0" len="6912" frozen="0">
          <note pan="0" key="21" vol="60" pos="12" len="12"/>
          <note pan="0" key="21" vol="60" pos="24" len="12"/>
          <note pan="0" key="21" vol="60" pos="36" len="12"/>
          <note pan="0" key="21" vol="60" pos="60" len="12"/>
          <note pan="0" key="21" vol="60" pos="72" len="12"/>
          <note pan="0" key="21" vol="60" pos="96" len="12"/>
          <note pan="0" key="21" vol="60" pos="108" len="12"/>
          <note pan="0" key="21" vol="60" pos="132" len="12"/>
          <note pan="0" key="21" vol="60" pos="144" len="12"/>
          <note pan="0" key="21" vol="60" pos="168" len="12"/>
          <note pan="0" key="19" vol="60" pos="180" len="12"/>
          <note pan="0" key="21" vol="60" pos="204" len="12"/>
          <note pan="0" key="21" vol="60" pos="216" len="12"/>
          <note pan="0" key="21" vol="60" pos="228" len="12"/>
          <note pan="0" key="21" vol="60" pos="252" len="12"/>
          <note pan="0" key="21" vol="60" pos="264" len="12"/>
          <note pan="0" key="21" vol="60" pos="288" len="12"/>
          <note pan="0" key="21" vol="60" pos="300" len="12"/>
          <note pan="0" key="21" vol="60" pos="324" len="12"/>
          <note pan="0" key="21" vol="60" pos="336" len="12"/>
          <note pan="0" key="21" vol="60" pos="360" len="12"/>
          <note pan="0" key="19" vol="60" pos="372" len="12"/>
          <note pan="0" key="21" vol="60" pos="396" len="12"/>
          <note pan="0" key="21" vol="60" pos="408" len="12"/>
          <note pan="0" key="21" vol="60" pos="420" len="12"/>
          <note pan="0" key="21" vol="60" pos="444" len="12"/>
          <note pan="0" key="21" vol="60" pos="456" len="12"/>
          <note pan="0" key="21" vol="60" pos="480" len="12"/>
          <note pan="0" key="21" vol="60" pos="492" len="12"/>
          <note pan="0" key="21" vol="60" pos="516" len="12"/>
          <note pan="0" key="21" vol="60" pos="528" len="12"/>
          <note pan="0" key="21" vol="60" pos="552" len="12"/>
          <note pan="0" key="19" vol="60" pos="564" len="12"/>
          <note pan="0" key="21" vol="60" pos="588" len="12"/>
          <note pan="0" key="21" vol="60" pos="600" len="12"/>
          <note pan="0" key="21" vol="60" pos="612" len="12"/>
          <note pan="0" key="21" vol="60" pos="636" len="12"/>
          <note pan="0" key="21" vol="60" pos="648" len="12"/>
          <note pan="0" key="21" vol="60" pos="672" len="12"/>
          <note pan="0" key="21" vol="60" pos="684" len="12"/>
          <note pan="0" key="21" vol="60" pos="708" len="12"/>
          <note pan="0" key="21" vol="60" pos="720" len="12"/>
          <note pan="0" key="21" vol="60" pos="744" len="12"/>
          <note pan="0" key="19" vol="60" pos="756" len="12"/>
          <note pan="0" key="21" vol="60" pos="780" len="12"/>
          <note pan="0" key="21" vol="60" pos="792" len="12"/>
          <note pan="0" key="21" vol="60" pos="804" len="12"/>
          <note pan="0" key="21" vol="60" pos="828" len="12"/>
          <note pan="0" key="21" vol="60" pos="840" len="12"/>
          <note pan="0" key="21" vol="60" pos="864" len="12"/>
          <note pan="0" key="21" vol="60" pos="876" len="12"/>
          <note pan="0" key="21" vol="60" pos="900" len="12"/>
          <note pan="0" key="21" vol="60" pos="912" len="12"/>
          <note pan="0" key="21" vol="60" pos="936" len="12"/>
          <note pan="0" key="19" vol="60" pos="948" len="12"/>
          <note pan="0" key="21" vol="60" pos="972" len="12"/>
          <note pan="0" key="21" vol="60" pos="984" len="12"/>
          <note pan="0" key="21" vol="60" pos="996" len="12"/>
          <note pan="0" key="21" vol="60" pos="1020" len="12"/>
          <note pan="0" key="21" vol="60" pos="1032" len="12"/>
          <note pan="0" key="21" vol="60" pos="1056" len="12"/>
          <note pan="0" key="21" vol="60" pos="1068" len="12"/>
          <note pan="0" key="21" vol="60" pos="1092" len="12"/>
          <note pan="0" key="21" vol="60" pos="1104" len="12"/>
          <note pan="0" key="21" vol="60" pos="1128" len="12"/>
          <note pan="0" key="19" vol="60" pos="1140" len="12"/>
          <note pan="0" key="21" vol="60" pos="1164" len="12"/>
          <note pan="0" key="21" vol="60" pos="1176" len="12"/>
          <note pan="0" key="21" vol="60" pos="1188" len="12"/>
          <note pan="0" key="21" vol="60" pos="1212" len="12"/>
          <note pan="0" key="21" vol="60" pos="1224" len="12"/>
          <note pan="0" key="21" vol="60" pos="1248" len="12"/>
          <note pan="0" key="21" vol="60" pos="1260" len="12"/>
          <note pan="0" key="21" vol="60" pos="1284" len="12"/>
          <note pan="0" key="21" vol="60" pos="1296" len="12"/>
          <note pan="0" key="21" vol="60" pos="1320" len="12"/>
          <note pan="0" key="19" vol="60" pos="1332" len="12"/>
          <note pan="0" key="21" vol="60" pos="1356" len="12"/>
          <note pan="0" key="21" vol="60" pos="1368" len="12"/>
          <note pan="0" key="21" vol="60" pos="1380" len="12"/>
          <note pan="0" key="21" vol="60" pos="1404" len="12"/>
          <note pan="0" key="21" vol="60" pos="1416" len="12"/>
          <note pan="0" key="21" vol="60" pos="1440" len="12"/>
          <note pan="0" key="21" vol="60" pos="1452" len="12"/>
          <note pan="0" key="21" vol="60" pos="1476" len="12"/>
          <note pan="0" key="21" vol="60" pos="1488" len="12"/>
          <note pan="0" key="21" vol="60" pos="1512" len="12"/>
          <note pan="0" key="19" vol="60" pos="1524" len="12"/>
          <note pan="0" key="19" vol="60" pos="1548" len="12"/>
          <note pan="0" key="19" vol="60" pos="1560" len="12"/>
          <note pan="0" key="19" vol="60" pos="1584" len="12"/>
          <note pan="0" key="19" vol="60" pos="1596" len="12"/>
          <note pan="0" key="19" vol="60" pos="1620" len="12"/>
          <note pan="0" key="19" vol="60" pos="1632" len="12"/>
          <note pan="0" key="19" vol="60" pos="1656" len="12"/>
          <note pan="0" key="19" vol="60" pos="1668" len="12"/>
          <note pan="0" key="17" vol="60" pos="1692" len="24"/>
          <note pan="0" key="19" vol="60" pos="1716" len="24"/>
          <note pan="0" key="19" vol="60" pos="1740" len="12"/>
          <note pan="0" key="19" vol="60" pos="1752" len="12"/>
          <note pan="0" key="19" vol="60" pos="1776" len="12"/>
          <note pan="0" key="19" vol="60" pos="1788" len="12"/>
          <note pan="0" key="19" vol="60" pos="1812" len="12"/>
          <note pan="0" key="19" vol="60" pos="1824" len="12"/>
          <note pan="0" key="19" vol="60" pos="1848" len="12"/>
          <note pan="0" key="19" vol="60" pos="1860" len="12"/>
          <note pan="0" key="17" vol="60" pos="1884" len="24"/>
          <note pan="0" key="19" vol="60" pos="1908" len="24"/>
          <note pan="0" key="21" vol="60" pos="1932" len="12"/>
          <note pan="0" key="21" vol="60" pos="1944" len="12"/>
          <note pan="0" key="21" vol="60" pos="1956" len="12"/>
          <note pan="0" key="21" vol="60" pos="1980" len="12"/>
          <note pan="0" key="21" vol="60" pos="1992" len="12"/>
          <note pan="0" key="21" vol="60" pos="2016" len="12"/>
          <note pan="0" key="21" vol="60" pos="2028" len="12"/>
          <note pan="0" key="21" vol="60" pos="2052" len="12"/>
          <note pan="0" key="21" vol="60" pos="2064" len="12"/>
          <note pan="0" key="21" vol="60" pos="2088" len="12"/>
          <note pan="0" key="19" vol="60" pos="2100" len="12"/>
          <note pan="0" key="21" vol="60" pos="2124" len="12"/>
          <note pan="0" key="21" vol="60" pos="2136" len="12"/>
          <note pan="0" key="21" vol="60" pos="2148" len="12"/>
          <note pan="0" key="21" vol="60" pos="2172" len="12"/>
          <note pan="0" key="21" vol="60" pos="2184" len="12"/>
          <note pan="0" key="21" vol="60" pos="2208" len="12"/>
          <note pan="0" key="21" vol="60" pos="2220" len="12"/>
          <note pan="0" key="21" vol="60" pos="2244" len="12"/>
          <note pan="0" key="21" vol="60" pos="2256" len="12"/>
          <note pan="0" key="21" vol="60" pos="2280" len="12"/>
          <note pan="0" key="19" vol="60" pos="2292" len="12"/>
          <note pan="0" key="21" vol="60" pos="2316" len="12"/>
          <note pan="0" key="21" vol="60" pos="2328" len="12"/>
          <note pan="0" key="21" vol="60" pos="2340" len="12"/>
          <note pan="0" key="21" vol="60" pos="2364" len="12"/>
          <note pan="0" key="21" vol="60" pos="2376" len="12"/>
          <note pan="0" key="21" vol="60" pos="2400" len="12"/>
          <note pan="0" key="21" vol="60" pos="2412" len="12"/>
          <note pan="0" key="21" vol="60" pos="2436" len="12"/>
          <note pan="0" key="21" vol="60" pos="2448" len="12"/>
          <note pan="0" key="21" vol="60" pos="2472" len="12"/>
          <note pan="0" key="19" vol="60" pos="2484" len="12"/>
          <note pan="0" key="21" vol="60" pos="2508" len="12"/>
          <note pan="0" key="21" vol="60" pos="2520" len="12"/>
          <note pan="0" key="21" vol="60" pos="2532" len="12"/>
          <note pan="0" key="21" vol="60" pos="2556" len="12"/>
          <note pan="0" key="21" vol="60" pos="2568" len="12"/>
          <note pan="0" key="21" vol="60" pos="2592" len="12"/>
          <note pan="0" key="21" vol="60" pos="2604" len="12"/>
          <note pan="0" key="21" vol="60" pos="2628" len="12"/>
          <note pan="0" key="21" vol="60" pos="2640" len="12"/>
          <note pan="0" key="21" vol="60" pos="2664" len="12"/>
          <note pan="0" key="19" vol="60" pos="2676" len="12"/>
          <note pan="0" key="21" vol="60" pos="2700" len="12"/>
          <note pan="0" key="21" vol="60" pos="2712" len="12"/>
          <note pan="0" key="21" vol="60" pos="2724" len="12"/>
          <note pan="0" key="21" vol="60" pos="2748" len="12"/>
          <note pan="0" key="21" vol="60" pos="2760" len="12"/>
          <note pan="0" key="21" vol="60" pos="2784" len="12"/>
          <note pan="0" key="21" vol="60" pos="2796" len="12"/>
          <note pan="0" key="21" vol="60" pos="2820" len="12"/>
          <note pan="0" key="21" vol="60" pos="2832" len="12"/>
          <note pan="0" key="21" vol="60" pos="2856" len="12"/>
          <note pan="0" key="19" vol="60" pos="2868" len="12"/>
          <note pan="0" key="21" vol="60" pos="2892" len="12"/>
          <note pan="0" key="21" vol="60" pos="2904" len="12"/>
          <note pan="0" key="21" vol="60" pos="2916" len="12"/>
          <note pan="0" key="21" vol="60" pos="2940" len="12"/>
          <note pan="0" key="21" vol="60" pos="2952" len="12"/>
          <note pan="0" key="21" vol="60" pos="2976" len="12"/>
          <note pan="0" key="21" vol="60" pos="2988" len="12"/>
          <note pan="0" key="21" vol="60" pos="3012" len="12"/>
          <note pan="0" key="21" vol="60" pos="3024" len="12"/>
          <note pan="0" key="21" vol="60" pos="3048" len="12"/>
          <note pan="0" key="19" vol="60" pos="3060" len="12"/>
          <note pan="0" key="19" vol="60" pos="3084" len="12"/>
          <note pan="0" key="19" vol="60" pos="3096" len="12"/>
          <note pan="0" key="19" vol="60" pos="3120" len="12"/>
          <note pan="0" key="19" vol="60" pos="3132" len="12"/>
          <note pan="0" key="19" vol="60" pos="3156" len="12"/>
          <note pan="0" key="19" vol="60" pos="3168" len="12"/>
          <note pan="0" key="19" vol="60" pos="3192" len="12"/>
          <note pan="0" key="19" vol="60" pos="3204" len="12"/>
          <note pan="0" key="17" vol="60" pos="3228" len="24"/>
          <note pan="0" key="19" vol="60" pos="3252" len="24"/>
          <note pan="0" key="19" vol="60" pos="3276" len="12"/>
          <note pan="0" key="19" vol="60" pos="3288" len="12"/>
          <note pan="0" key="19" vol="60" pos="3312" len="12"/>
          <note pan="0" key="19" vol="60" pos="3324" len="12"/>
          <note pan="0" key="19" vol="60" pos="3348" len="12"/>
          <note pan="0" key="19" vol="60" pos="3360" len="12"/>
          <note pan="0" key="19" vol="60" pos="3384" len="12"/>
          <note pan="0" key="19" vol="60" pos="3396" len="12"/>
          <note pan="0" key="17" vol="60" pos="3420" len="24"/>
          <note pan="0" key="19" vol="60" pos="3444" len="24"/>
          <note pan="0" key="21" vol="60" pos="3468" len="12"/>
          <note pan="0" key="21" vol="60" pos="3480" len="12"/>
          <note pan="0" key="21" vol="60" pos="3492" len="12"/>
          <note pan="0" key="21" vol="60" pos="3516" len="12"/>
          <note pan="0" key="21" vol="60" pos="3528" len="12"/>
          <note pan="0" key="21" vol="60" pos="3552" len="12"/>
          <note pan="0" key="21" vol="60" pos="3564" len="12"/>
          <note pan="0" key="21" vol="60" pos="3588" len="12"/>
          <note pan="0" key="21" vol="60" pos="3600" len="12"/>
          <note pan="0" key="21" vol="60" pos="3624" len="12"/>
          <note pan="0" key="19" vol="60" pos="3636" len="12"/>
          <note pan="0" key="21" vol="60" pos="3660" len="12"/>
          <note pan="0" key="21" vol="60" pos="3672" len="12"/>
          <note pan="0" key="21" vol="60" pos="3684" len="12"/>
          <note pan="0" key="21" vol="60" pos="3708" len="12"/>
          <note pan="0" key="21" vol="60" pos="3720" len="12"/>
          <note pan="0" key="21" vol="60" pos="3744" len="12"/>
          <note pan="0" key="21" vol="60" pos="3756" len="12"/>
          <note pan="0" key="21" vol="60" pos="3780" len="12"/>
          <note pan="0" key="21" vol="60" pos="3792" len="12"/>
          <note pan="0" key="21" vol="60" pos="3816" len="12"/>
          <note pan="0" key="19" vol="60" pos="3828" len="12"/>
          <note pan="0" key="21" vol="60" pos="3852" len="12"/>
          <note pan="0" key="21" vol="60" pos="3864" len="12"/>
          <note pan="0" key="21" vol="60" pos="3876" len="12"/>
          <note pan="0" key="21" vol="60" pos="3900" len="12"/>
          <note pan="0" key="21" vol="60" pos="3912" len="12"/>
          <note pan="0" key="21" vol="60" pos="3936" len="12"/>
          <note pan="0" key="21" vol="60" pos="3948" len="12"/>
          <note pan="0" key="21" vol="60" pos="3972" len="12"/>
          <note pan="0" key="21" vol="60" pos="3984" len="12"/>
          <note pan="0" key="21" vol="60" pos="4008" len="12"/>
          <note pan="0" key="19" vol="60" pos="4020" len="12"/>
          <note pan="0" key="21" vol="60" pos="4044" len="12"/>
          <note pan="0" key="21" vol="60" pos="4056" len="12"/>
          <note pan="0" key="21" vol="60" pos="4068" len="12"/>
          <note pan="0" key="21" vol="60" pos="4092" len="12"/>
          <note pan="0" key="21" vol="60" pos="4104" len="12"/>
          <note pan="0" key="21" vol="60" pos="4128" len="12"/>
          <note pan="0" key="21" vol="60" pos="4140" len="12"/>
          <note pan="0" key="21" vol="60" pos="4164" len="12"/>
          <note pan="0" key="21" vol="60" pos="4176" len="12"/>
          <note pan="0" key="21" vol="60" pos="4200" len="12"/>
          <note pan="0" key="19" vol="60" pos="4212" len="12"/>
          <note pan="0" key="21" vol="60" pos="4236" len="12"/>
          <note pan="0" key="21" vol="60" pos="4248" len="12"/>
          <note pan="0" key="21" vol="60" pos="4260" len="12"/>
          <note pan="0" key="21" vol="60" pos="4284" len="12"/>
          <note pan="0" key="21" vol="60" pos="4296" len="12"/>
          <note pan="0" key="21" vol="60" pos="4320" len="12"/>
          <note pan="0" key="21" vol="60" pos="4332" len="12"/>
          <note pan="0" key="21" vol="60" pos="4356" len="12"/>
          <note pan="0" key="21" vol="60" pos="4368" len="12"/>
          <note pan="0" key="21" vol="60" pos="4392" len="12"/>
          <note pan="0" key="19" vol="60" pos="4404" len="12"/>
          <note pan="0" key="21" vol="60" pos="4428" len="12"/>
          <note pan="0" key="21" vol="60" pos="4440" len="12"/>
          <note pan="0" key="21" vol="60" pos="4452" len="12"/>
          <note pan="0" key="21" vol="60" pos="4476" len="12"/>
          <note pan="0" key="21" vol="60" pos="4488" len="12"/>
          <note pan="0" key="21" vol="60" pos="4512" len="12"/>
          <note pan="0" key="21" vol="60" pos="4524" len="12"/>
          <note pan="0" key="21" vol="60" pos="4548" len="12"/>
          <note pan="0" key="21" vol="60" pos="4560" len="12"/>
          <note pan="0" key="21" vol="60" pos="4584" len="12"/>
          <note pan="0" key="19" vol="60" pos="4596" len="12"/>
          <note pan="0" key="19" vol="60" pos="4620" len="12"/>
          <note pan="0" key="19" vol="60" pos="4632" len="12"/>
          <note pan="0" key="19" vol="60" pos="4656" len="12"/>
          <note pan="0" key="19" vol="60" pos="4668" len="12"/>
          <note pan="0" key="19" vol="60" pos="4692" len="12"/>
          <note pan="0" key="19" vol="60" pos="4704" len="12"/>
          <note pan="0" key="19" vol="60" pos="4728" len="12"/>
          <note pan="0" key="19" vol="60" pos="4740" len="12"/>
          <note pan="0" key="17" vol="60" pos="4764" len="24"/>
          <note pan="0" key="19" vol="60" pos="4788" len="24"/>
          <note pan="0" key="19" vol="60" pos="4812" len="12"/>
          <note pan="0" key="19" vol="60" pos="4824" len="12"/>
          <note pan="0" key="19" vol="60" pos="4848" len="12"/>
          <note pan="0" key="19" vol="60" pos="4860" len="12"/>
          <note pan="0" key="19" vol="60" pos="4884" len="12"/>
          <note pan="0" key="19" vol="60" pos="4896" len="12"/>
          <note pan="0" key="19" vol="60" pos="4920" len="12"/>
          <note pan="0" key="19" vol="60" pos="4932" len="12"/>
          <note pan="0" key="17" vol="60" pos="4956" len="24"/>
          <note pan="0" key="19" vol="60" pos="4980" len="24"/>
          <note pan="0" key="21" vol="60" pos="5004" len="12"/>
          <note pan="0" key="21" vol="60" pos="5016" len="12"/>
          <note pan="0" key="21" vol="60" pos="5028" len="12"/>
          <note pan="0" key="21" vol="60" pos="5052" len="12"/>
          <note pan="0" key="21" vol="60" pos="5064" len="12"/>
          <note pan="0" key="21" vol="60" pos="5088" len="12"/>
          <note pan="0" key="21" vol="60" pos="5100" len="12"/>
          <note pan="0" key="21" vol="60" pos="5124" len="12"/>
          <note pan="0" key="21" vol="60" pos="5136" len="12"/>
          <note pan="0" key="21" vol="60" pos="5160" len="12"/>
          <note pan="0" key="19" vol="60" pos="5172" len="12"/>
          <note pan="0" key="21" vol="60" pos="5196" len="12"/>
          <note pan="0" key="21" vol="60" pos="5208" len="12"/>
          <note pan="0" key="21" vol="60" pos="5220" len="12"/>
          <note pan="0" key="21" vol="60" pos="5244" len="12"/>
          <note pan="0" key="21" vol="60" pos="5256" len="12"/>
          <note pan="0" key="21" vol="60" pos="5280" len="12"/>
          <note pan="0" key="21" vol="60" pos="5292" len="12"/>
          <note pan="0" key="21" vol="60" pos="5316" len="12"/>
          <note pan="0" key="21" vol="60" pos="5328" len="12"/>
          <note pan="0" key="21" vol="60" pos="5352" len="12"/>
          <note pan="0" key="19" vol="60" pos="5364" len="12"/>
          <note pan="0" key="21" vol="60" pos="5388" len="12"/>
          <note pan="0" key="21" vol="60" pos="5400" len="12"/>
          <note pan="0" key="21" vol="60" pos="5412" len="12"/>
          <note pan="0" key="21" vol="60" pos="5436" len="12"/>
          <note pan="0" key="21" vol="60" pos="5448" len="12"/>
          <note pan="0" key="21" vol="60" pos="5472" len="12"/>
          <note pan="0" key="21" vol="60" pos="5484" len="12"/>
          <note pan="0" key="21" vol="60" pos="5508" len="12"/>
          <note pan="0" key="21" vol="60" pos="5520" len="12"/>
          <note pan="0" key="21" vol="60" pos="5544" len="12"/>
          <note pan="0" key="19" vol="60" pos="5556" len="12"/>
          <note pan="0" key="21" vol="60" pos="5580" len="12"/>
          <note pan="0" key="21" vol="60" pos="5592" len="12"/>
          <note pan="0" key="21" vol="60" pos="5604" len="12"/>
          <note pan="0" key="21" vol="60" pos="5628" len="12"/>
          <note pan="0" key="21" vol="60" pos="5640" len="12"/>
          <note pan="0" key="21" vol="60" pos="5664" len="12"/>
          <note pan="0" key="21" vol="60" pos="5676" len="12"/>
          <note pan="0" key="21" vol="60" pos="5700" len="12"/>
          <note pan="0" key="21" vol="60" pos="5712" len="12"/>
          <note pan="0" key="21" vol="60" pos="5736" len="12"/>
          <note pan="0" key="19" vol="60" pos="5748" len="12"/>
          <note pan="0" key="21" vol="60" pos="5772" len="12"/>
          <note pan="0" key="21" vol="60" pos="5784" len="12"/>
          <note pan="0" key="21" vol="60" pos="5796" len="12"/>
          <note pan="0" key="21" vol="60" pos="5820" len="12"/>
          <note pan="0" key="21" vol="60" pos="5832" len="12"/>
          <note pan="0" key="21" vol="60" pos="5856" len="12"/>
          <note pan="0" key="21" vol="60" pos="5868" len="12"/>
          <note pan="0" key="21" vol="60" pos="5892" len="12"/>
          <note pan="0" key="21" vol="60" pos="5904" len="12"/>
          <note pan="0" key="21" vol="60" pos="5928" len="12"/>
          <note pan="0" key="19" vol="60" pos="5940" len="12"/>
          <note pan="0" key="21" vol="60" pos="5964" len="12"/>
          <note pan="0" key="21" vol="60" pos="5976" len="12"/>
          <note pan="0" key="21" vol="60" pos="5988" len="12"/>
          <note pan="0" key="21" vol="60" pos="6012" len="12"/>
          <note pan="0" key="21" vol="60" pos="6024" len="12"/>
          <note pan="0" key="21" vol="60" pos="6048" len="12"/>
          <note pan="0" key="21" vol="60" pos="6060" len="12"/>
          <note pan="0" key="21" vol="60" pos="6084" len="12"/>
          <note pan="0" key="21" vol="60" pos="6096" len="12"/>
          <note pan="0" key="21" vol="60" pos="6120" len="12"/>
          <note pan="0" key="19" vol="60" pos="6132" len="12"/>
          <note pan="0" key="19" vol="60" pos="6156" len="12"/>
          <note pan="0" key="19" vol="60" pos="6168" len="12"/>
          <note pan="0" key="19" vol="60" pos="6192" len="12"/>
          <note pan="0" key="19" vol="60" pos="6204" len="12"/>
          <note pan="0" key="19" vol="60" pos="6228" len="12"/>
          <note pan="0" key="19" vol="60" pos="6240" len="12"/>
          <note pan="0" key="19" vol="60" pos="6264" len="12"/>
          <note pan="0" key="19" vol="60" pos="6276" len="12"/>
          <note pan="0" key="17" vol="60" pos="6300" len="24"/>
          <note pan="0" key="19" vol="60" pos="6324" len="24"/>
          <note pan="0" key="19" vol="60" pos="6348" len="12"/>
          <note pan="0" key="19" vol="60" pos="6360" len="12"/>
          <note pan="0" key="19" vol="60" pos="6384" len="12"/>
          <note pan="0" key="19" vol="60" pos="6396" len="12"/>
          <note pan="0" key="19" vol="60" pos="6420" len="12"/>
          <note pan="0" key="19" vol="60" pos="6432" len="12"/>
          <note pan="0" key="19" vol="60" pos="6456" len="12"/>
          <note pan="0" key="19" vol="60" pos="6468" len="12"/>
          <note pan="0" key="17" vol="60" pos="6492" len="24"/>
          <note pan="0" key="19" vol="60" pos="6516" len="24"/>
          <note pan="0" key="21" vol="60" pos="6540" len="12"/>
          <note pan="0" key="21" vol="60" pos="6552" len="12"/>
          <note pan="0" key="21" vol="60" pos="6564" len="12"/>
          <note pan="0" key="21" vol="60" pos="6588" len="12"/>
          <note pan="0" key="21" vol="60" pos="6600" len="12"/>
          <note pan="0" key="21" vol="60" pos="6624" len="12"/>
          <note pan="0" key="21" vol="60" pos="6636" len="12"/>
          <note pan="0" key="21" vol="60" pos="6660" len="12"/>
          <note pan="0" key="21" vol="60" pos="6672" len="12"/>
          <note pan="0" key="21" vol="60" pos="6696" len="12"/>
          <note pan="0" key="19" vol="60" pos="6708" len="12"/>
          <note pan="0" key="21" vol="60" pos="6732" len="12"/>
          <note pan="0" key="21" vol="60" pos="6744" len="12"/>
          <note pan="0" key="21" vol="60" pos="6756" len="12"/>
          <note pan="0" key="21" vol="60" pos="6780" len="12"/>
          <note pan="0" key="21" vol="60" pos="6792" len="12"/>
          <note pan="0" key="21" vol="60" pos="6816" len="12"/>
          <note pan="0" key="21" vol="60" pos="6828" len="12"/>
          <note pan="0" key="21" vol="60" pos="6852" len="12"/>
          <note pan="0" key="21" vol="60" pos="6864" len="12"/>
          <note pan="0" key="21" vol="60" pos="6888" len="12"/>
          <note pan="0" key="19" vol="60" pos="6900" len="12"/>
        </pattern>
      </track>
      <track muted="0" type="0" name="Standard-Preset">
        <instrumenttrack pan="-100" fxch="0" pitch="0" basenote="57" vol="50.4">
          <instrument name="sf2player">
            <sf2player patch="50" chorusLevel="2" chorusDepth="8" reverbOn="0" reverbRoomSize="0.2" chorusOn="0" chorusSpeed="0.3" reverbDamping="0" chorusNum="3" reverbLevel="0.9" bank="0" reverbWidth="0.5" src="C:\VST32\Soundfonts\SF2\GenesiSF.SF2" gain="1"/>
          </instrument>
          <eldata fres="0.5" ftype="0" fcut="14000" fwet="0">
            <elvol lspd_denominator="4" pdel="0" userwavefile="" dec="0.5" lamt="0" syncmode="0" latt="0" rel="0.1" sus="0.5" amt="0" x100="0" att="0" lpdel="0" hold="0.5" lshp="0" lspd="0.1" ctlenvamt="0" lspd_numerator="4"/>
            <elcut lspd_denominator="4" pdel="0" userwavefile="" dec="0.5" lamt="0" syncmode="0" latt="0" rel="0.1" sus="0.5" amt="0" x100="0" att="0" lpdel="0" hold="0.5" lshp="0" lspd="0.1" ctlenvamt="0" lspd_numerator="4"/>
            <elres lspd_denominator="4" pdel="0" userwavefile="" dec="0.5" lamt="0" syncmode="0" latt="0" rel="0.1" sus="0.5" amt="0" x100="0" att="0" lpdel="0" hold="0.5" lshp="0" lspd="0.1" ctlenvamt="0" lspd_numerator="4"/>
          </eldata>
          <chordcreator chord="0" chordrange="1" chord-enabled="0"/>
          <arpeggiator arptime="100" arprange="1" arptime_denominator="4" syncmode="0" arpmode="0" arp-enabled="0" arp="0" arptime_numerator="4" arpdir="0" arpgate="100"/>
          <midiport inputcontroller="0" fixedoutputvelocity="-1" inputchannel="0" outputcontroller="0" writable="0" outputchannel="1" fixedinputvelocity="-1" outputprogram="1" readable="0"/>
          <fxchain numofeffects="0" enabled="0"/>
        </instrumenttrack>
        <pattern steps="16" muted="0" type="1" name="Standard-Preset" pos="0" len="5376" frozen="0">
          <note pan="0" key="45" vol="60" pos="0" len="1536"/>
          <note pan="0" key="52" vol="60" pos="0" len="1536"/>
          <note pan="0" key="50" vol="60" pos="1536" len="384"/>
          <note pan="0" key="43" vol="60" pos="1536" len="384"/>
          <note pan="0" key="52" vol="60" pos="1920" len="1152"/>
          <note pan="0" key="45" vol="60" pos="1920" len="1152"/>
          <note pan="0" key="50" vol="60" pos="3072" len="384"/>
          <note pan="0" key="43" vol="60" pos="3072" len="384"/>
          <note pan="0" key="52" vol="60" pos="3456" len="1152"/>
          <note pan="0" key="45" vol="60" pos="3456" len="1152"/>
          <note pan="0" key="50" vol="60" pos="4608" len="384"/>
          <note pan="0" key="43" vol="60" pos="4608" len="384"/>
          <note pan="0" key="52" vol="60" pos="4992" len="384"/>
          <note pan="0" key="45" vol="60" pos="4992" len="384"/>
        </pattern>
        <pattern steps="16" muted="0" type="1" name="Standard-Preset" pos="6144" len="768" frozen="0">
          <note pan="0" key="43" vol="60" pos="0" len="384"/>
          <note pan="0" key="50" vol="60" pos="0" len="384"/>
          <note pan="0" key="52" vol="60" pos="384" len="384"/>
          <note pan="0" key="45" vol="60" pos="384" len="384"/>
        </pattern>
      </track>
      <track muted="0" type="0" name="Standard-Preset">
        <instrumenttrack pan="100" fxch="0" pitch="0" basenote="57" vol="50.4">
          <instrument name="sf2player">
            <sf2player patch="50" chorusLevel="2" chorusDepth="8" reverbOn="0" reverbRoomSize="0.2" chorusOn="0" chorusSpeed="0.3" reverbDamping="0" chorusNum="3" reverbLevel="0.9" bank="0" reverbWidth="0.5" src="C:\VST32\Soundfonts\SF2\GenesiSF.SF2" gain="1"/>
          </instrument>
          <eldata fres="0.5" ftype="0" fcut="14000" fwet="0">
            <elvol lspd_denominator="4" pdel="0" userwavefile="" dec="0.5" lamt="0" syncmode="0" latt="0" rel="0.1" sus="0.5" amt="0" x100="0" att="0" lpdel="0" hold="0.5" lshp="0" lspd="0.1" ctlenvamt="0" lspd_numerator="4"/>
            <elcut lspd_denominator="4" pdel="0" userwavefile="" dec="0.5" lamt="0" syncmode="0" latt="0" rel="0.1" sus="0.5" amt="0" x100="0" att="0" lpdel="0" hold="0.5" lshp="0" lspd="0.1" ctlenvamt="0" lspd_numerator="4"/>
            <elres lspd_denominator="4" pdel="0" userwavefile="" dec="0.5" lamt="0" syncmode="0" latt="0" rel="0.1" sus="0.5" amt="0" x100="0" att="0" lpdel="0" hold="0.5" lshp="0" lspd="0.1" ctlenvamt="0" lspd_numerator="4"/>
          </eldata>
          <chordcreator chord="0" chordrange="1" chord-enabled="0"/>
          <arpeggiator arptime="100" arprange="1" arptime_denominator="4" syncmode="0" arpmode="0" arp-enabled="0" arp="0" arptime_numerator="4" arpdir="0" arpgate="100"/>
          <midiport inputcontroller="0" fixedoutputvelocity="-1" inputchannel="0" outputcontroller="0" writable="0" outputchannel="1" fixedinputvelocity="-1" outputprogram="1" readable="0"/>
          <fxchain numofeffects="0" enabled="0"/>
        </instrumenttrack>
        <pattern steps="16" muted="0" type="1" name="Standard-Preset" pos="0" len="5376" frozen="0">
          <note pan="0" key="52" vol="60" pos="0" len="1536"/>
          <note pan="0" key="45" vol="60" pos="0" len="1536"/>
          <note pan="0" key="50" vol="60" pos="1536" len="384"/>
          <note pan="0" key="43" vol="60" pos="1536" len="384"/>
          <note pan="0" key="45" vol="60" pos="1920" len="1152"/>
          <note pan="0" key="52" vol="60" pos="1920" len="1152"/>
          <note pan="0" key="50" vol="60" pos="3072" len="384"/>
          <note pan="0" key="43" vol="60" pos="3072" len="384"/>
          <note pan="0" key="45" vol="60" pos="3456" len="1152"/>
          <note pan="0" key="52" vol="60" pos="3456" len="1152"/>
          <note pan="0" key="50" vol="60" pos="4608" len="384"/>
          <note pan="0" key="43" vol="60" pos="4608" len="384"/>
          <note pan="0" key="52" vol="60" pos="4992" len="384"/>
          <note pan="0" key="45" vol="60" pos="4992" len="384"/>
        </pattern>
        <pattern steps="16" muted="0" type="1" name="Standard-Preset" pos="6144" len="768" frozen="0">
          <note pan="0" key="43" vol="60" pos="0" len="384"/>
          <note pan="0" key="50" vol="60" pos="0" len="384"/>
          <note pan="0" key="52" vol="60" pos="384" len="384"/>
          <note pan="0" key="45" vol="60" pos="384" len="384"/>
        </pattern>
      </track>
    </trackcontainer>
    <track muted="0" type="6" name="Automation track">
      <automationtrack/>
      <automationpattern name="Zhler" pos="0" len="192">
        <time value="4" pos="0"/>
        <object id="6960172"/>
      </automationpattern>
      <automationpattern name="Nenner" pos="0" len="192">
        <time value="4" pos="0"/>
        <object id="2492872"/>
      </automationpattern>
      <automationpattern name="Tempo" pos="0" len="192">
        <time value="120" pos="0"/>
        <object id="3727289"/>
      </automationpattern>
      <automationpattern name="Master-Lautstrke" pos="0" len="192">
        <time value="100" pos="0"/>
        <object id="6930201"/>
      </automationpattern>
      <automationpattern name="Master-Tonhhe" pos="0" len="192">
        <time value="0" pos="0"/>
        <object id="2924502"/>
      </automationpattern>
    </track>
    <fxmixer width="864" x="5" y="310" maximized="0" height="278" visible="1" minimized="0">
      <fxchannel num="0" muted="0" volume="1" name="Master">
        <fxchain numofeffects="0" enabled="0"/>
      </fxchannel>
      <fxchannel num="1" muted="0" volume="1" name="FX 1">
        <fxchain numofeffects="0" enabled="0"/>
      </fxchannel>
      <fxchannel num="2" muted="0" volume="1" name="FX 2">
        <fxchain numofeffects="0" enabled="0"/>
      </fxchannel>
      <fxchannel num="3" muted="0" volume="1" name="FX 3">
        <fxchain numofeffects="0" enabled="0"/>
      </fxchannel>
      <fxchannel num="4" muted="0" volume="1" name="FX 4">
        <fxchain numofeffects="0" enabled="0"/>
      </fxchannel>
      <fxchannel num="5" muted="0" volume="1" name="FX 5">
        <fxchain numofeffects="0" enabled="0"/>
      </fxchannel>
      <fxchannel num="6" muted="0" volume="1" name="FX 6">
        <fxchain numofeffects="0" enabled="0"/>
      </fxchannel>
      <fxchannel num="7" muted="0" volume="1" name="FX 7">
        <fxchain numofeffects="0" enabled="0"/>
      </fxchannel>
      <fxchannel num="8" muted="0" volume="1" name="FX 8">
        <fxchain numofeffects="0" enabled="0"/>
      </fxchannel>
      <fxchannel num="9" muted="0" volume="1" name="FX 9">
        <fxchain numofeffects="0" enabled="0"/>
      </fxchannel>
      <fxchannel num="10" muted="0" volume="1" name="FX 10">
        <fxchain numofeffects="0" enabled="0"/>
      </fxchannel>
      <fxchannel num="11" muted="0" volume="1" name="FX 11">
        <fxchain numofeffects="0" enabled="0"/>
      </fxchannel>
      <fxchannel num="12" muted="0" volume="1" name="FX 12">
        <fxchain numofeffects="0" enabled="0"/>
      </fxchannel>
      <fxchannel num="13" muted="0" volume="1" name="FX 13">
        <fxchain numofeffects="0" enabled="0"/>
      </fxchannel>
      <fxchannel num="14" muted="0" volume="1" name="FX 14">
        <fxchain numofeffects="0" enabled="0"/>
      </fxchannel>
      <fxchannel num="15" muted="0" volume="1" name="FX 15">
        <fxchain numofeffects="0" enabled="0"/>
      </fxchannel>
      <fxchannel num="16" muted="0" volume="1" name="FX 16">
        <fxchain numofeffects="0" enabled="0"/>
      </fxchannel>
      <fxchannel num="17" muted="0" volume="1" name="FX 17">
        <fxchain numofeffects="0" enabled="0"/>
      </fxchannel>
      <fxchannel num="18" muted="0" volume="1" name="FX 18">
        <fxchain numofeffects="0" enabled="0"/>
      </fxchannel>
      <fxchannel num="19" muted="0" volume="1" name="FX 19">
        <fxchain numofeffects="0" enabled="0"/>
      </fxchannel>
      <fxchannel num="20" muted="0" volume="1" name="FX 20">
        <fxchain numofeffects="0" enabled="0"/>
      </fxchannel>
      <fxchannel num="21" muted="0" volume="1" name="FX 21">
        <fxchain numofeffects="0" enabled="0"/>
      </fxchannel>
      <fxchannel num="22" muted="0" volume="1" name="FX 22">
        <fxchain numofeffects="0" enabled="0"/>
      </fxchannel>
      <fxchannel num="23" muted="0" volume="1" name="FX 23">
        <fxchain numofeffects="0" enabled="0"/>
      </fxchannel>
      <fxchannel num="24" muted="0" volume="1" name="FX 24">
        <fxchain numofeffects="0" enabled="0"/>
      </fxchannel>
      <fxchannel num="25" muted="0" volume="1" name="FX 25">
        <fxchain numofeffects="0" enabled="0"/>
      </fxchannel>
      <fxchannel num="26" muted="0" volume="1" name="FX 26">
        <fxchain numofeffects="0" enabled="0"/>
      </fxchannel>
      <fxchannel num="27" muted="0" volume="1" name="FX 27">
        <fxchain numofeffects="0" enabled="0"/>
      </fxchannel>
      <fxchannel num="28" muted="0" volume="1" name="FX 28">
        <fxchain numofeffects="0" enabled="0"/>
      </fxchannel>
      <fxchannel num="29" muted="0" volume="1" name="FX 29">
        <fxchain numofeffects="0" enabled="0"/>
      </fxchannel>
      <fxchannel num="30" muted="0" volume="1" name="FX 30">
        <fxchain numofeffects="0" enabled="0"/>
      </fxchannel>
      <fxchannel num="31" muted="0" volume="1" name="FX 31">
        <fxchain numofeffects="0" enabled="0"/>
      </fxchannel>
      <fxchannel num="32" muted="0" volume="1" name="FX 32">
        <fxchain numofeffects="0" enabled="0"/>
      </fxchannel>
      <fxchannel num="33" muted="0" volume="1" name="FX 33">
        <fxchain numofeffects="0" enabled="0"/>
      </fxchannel>
      <fxchannel num="34" muted="0" volume="1" name="FX 34">
        <fxchain numofeffects="0" enabled="0"/>
      </fxchannel>
      <fxchannel num="35" muted="0" volume="1" name="FX 35">
        <fxchain numofeffects="0" enabled="0"/>
      </fxchannel>
      <fxchannel num="36" muted="0" volume="1" name="FX 36">
        <fxchain numofeffects="0" enabled="0"/>
      </fxchannel>
      <fxchannel num="37" muted="0" volume="1" name="FX 37">
        <fxchain numofeffects="0" enabled="0"/>
      </fxchannel>
      <fxchannel num="38" muted="0" volume="1" name="FX 38">
        <fxchain numofeffects="0" enabled="0"/>
      </fxchannel>
      <fxchannel num="39" muted="0" volume="1" name="FX 39">
        <fxchain numofeffects="0" enabled="0"/>
      </fxchannel>
      <fxchannel num="40" muted="0" volume="1" name="FX 40">
        <fxchain numofeffects="0" enabled="0"/>
      </fxchannel>
      <fxchannel num="41" muted="0" volume="1" name="FX 41">
        <fxchain numofeffects="0" enabled="0"/>
      </fxchannel>
      <fxchannel num="42" muted="0" volume="1" name="FX 42">
        <fxchain numofeffects="0" enabled="0"/>
      </fxchannel>
      <fxchannel num="43" muted="0" volume="1" name="FX 43">
        <fxchain numofeffects="0" enabled="0"/>
      </fxchannel>
      <fxchannel num="44" muted="0" volume="1" name="FX 44">
        <fxchain numofeffects="0" enabled="0"/>
      </fxchannel>
      <fxchannel num="45" muted="0" volume="1" name="FX 45">
        <fxchain numofeffects="0" enabled="0"/>
      </fxchannel>
      <fxchannel num="46" muted="0" volume="1" name="FX 46">
        <fxchain numofeffects="0" enabled="0"/>
      </fxchannel>
      <fxchannel num="47" muted="0" volume="1" name="FX 47">
        <fxchain numofeffects="0" enabled="0"/>
      </fxchannel>
      <fxchannel num="48" muted="0" volume="1" name="FX 48">
        <fxchain numofeffects="0" enabled="0"/>
      </fxchannel>
      <fxchannel num="49" muted="0" volume="1" name="FX 49">
        <fxchain numofeffects="0" enabled="0"/>
      </fxchannel>
      <fxchannel num="50" muted="0" volume="1" name="FX 50">
        <fxchain numofeffects="0" enabled="0"/>
      </fxchannel>
      <fxchannel num="51" muted="0" volume="1" name="FX 51">
        <fxchain numofeffects="0" enabled="0"/>
      </fxchannel>
      <fxchannel num="52" muted="0" volume="1" name="FX 52">
        <fxchain numofeffects="0" enabled="0"/>
      </fxchannel>
      <fxchannel num="53" muted="0" volume="1" name="FX 53">
        <fxchain numofeffects="0" enabled="0"/>
      </fxchannel>
      <fxchannel num="54" muted="0" volume="1" name="FX 54">
        <fxchain numofeffects="0" enabled="0"/>
      </fxchannel>
      <fxchannel num="55" muted="0" volume="1" name="FX 55">
        <fxchain numofeffects="0" enabled="0"/>
      </fxchannel>
      <fxchannel num="56" muted="0" volume="1" name="FX 56">
        <fxchain numofeffects="0" enabled="0"/>
      </fxchannel>
      <fxchannel num="57" muted="0" volume="1" name="FX 57">
        <fxchain numofeffects="0" enabled="0"/>
      </fxchannel>
      <fxchannel num="58" muted="0" volume="1" name="FX 58">
        <fxchain numofeffects="0" enabled="0"/>
      </fxchannel>
      <fxchannel num="59" muted="0" volume="1" name="FX 59">
        <fxchain numofeffects="0" enabled="0"/>
      </fxchannel>
      <fxchannel num="60" muted="0" volume="1" name="FX 60">
        <fxchain numofeffects="0" enabled="0"/>
      </fxchannel>
      <fxchannel num="61" muted="0" volume="1" name="FX 61">
        <fxchain numofeffects="0" enabled="0"/>
      </fxchannel>
      <fxchannel num="62" muted="0" volume="1" name="FX 62">
        <fxchain numofeffects="0" enabled="0"/>
      </fxchannel>
      <fxchannel num="63" muted="0" volume="1" name="FX 63">
        <fxchain numofeffects="0" enabled="0"/>
      </fxchannel>
      <fxchannel num="64" muted="0" volume="1" name="FX 64">
        <fxchain numofeffects="0" enabled="0"/>
      </fxchannel>
    </fxmixer>
    <ControllerRackView width="258" x="880" y="310" maximized="0" height="172" visible="1" minimized="0"/>
    <pianoroll width="1135" x="115" y="153" maximized="0" height="480" visible="0" minimized="0"/>
    <automationeditor width="740" x="510" y="153" maximized="0" height="480" visible="0" minimized="0"/>
    <projectnotes width="400" x="700" y="10" maximized="0" height="300" visible="0" minimized="0"><![CDATA[<!DOCTYPE HTML PUBLIC "-//W3C//DTD HTML 4.0//EN" "http://www.w3.org/TR/REC-html40/strict.dtd">
<html><head><meta name="qrichtext" content="1" /><style type="text/css">
p, li { white-space: pre-wrap; }
</style></head><body style=" font-family:'MS Shell Dlg 2'; font-size:8.25pt; font-weight:400; font-style:normal;">
<p style=" margin-top:0px; margin-bottom:0px; margin-left:0px; margin-right:0px; -qt-block-indent:0; text-indent:0px;"><span style=" color:#e0e0e0;">Schreiben Sie hier Ihre Projekt-Notizen auf.</span></p></body></html>]]></projectnotes>
    <timeline lp1pos="192" lp0pos="0" lpstate="0"/>
    <controllers/>
  </song>
</multimedia-project>

