<?xml version="1.0"?>
<!DOCTYPE lmms-project>
<lmms-project type="song" creator="LMMS" version="23" creatorversion="1.3.0-alpha.1.231+g49b1f83e4">
  <head timesig_denominator="4" bpm="124" mastervol="100" masterpitch="0" timesig_numerator="4"/>
  <song>
    <trackcontainer type="song" visible="1" width="873" minimized="0" maximized="0" y="8" x="13" height="568">
      <track type="1" solo="0" mutedBeforeSolo="0" name="Annotations" muted="0">
        <patterntrack>
          <trackcontainer type="patternstore" visible="0" width="700" minimized="0" maximized="0" y="5" x="610" height="300"/>
        </patterntrack>
        <patternclip name="Stone Grinder" pos="768" muted="0" len="2112"/>
        <patternclip name="Intro" pos="2880" muted="0" len="576"/>
        <patternclip name="Silicate Dust" pos="3456" muted="0" len="1536"/>
        <patternclip name="Workday" pos="4992" muted="0" len="3072"/>
        <patternclip name="Intermezzo" pos="8064" muted="0" len="384"/>
        <patternclip name="The Future" pos="8448" muted="0" len="3072"/>
      </track>
      <track type="5" solo="0" mutedBeforeSolo="0" name="Fade>Volume" muted="0">
        <automationtrack/>
        <automationclip name="Channel 1>Volume" pos="0" prog="0" len="192" tens="1" mute="0">
          <time outValue="1" pos="0" value="1"/>
          <object id="11010"/>
        </automationclip>
        <automationclip name="Channel 1>Volume" pos="9984" prog="1" len="1536" tens="1" mute="0">
          <time outValue="1" pos="0" value="1"/>
          <time outValue="0" pos="1536" value="0"/>
          <object id="11010"/>
        </automationclip>
      </track>
      <track type="0" solo="0" mutedBeforeSolo="0" name="Lead" muted="0">
        <instrumenttrack range_import="1" enablecc="0" scale="0" vol="100" enabled="0" basenote="69" mixch="2" usemasterpitch="1" pan="0" lastkey="127" pitch="0" pitchrange="1" keymap="0" firstkey="0">
          <midicontrollers cc32="0" cc52="0" cc91="0" cc71="0" cc57="0" cc75="0" cc84="0" cc13="0" cc122="0" cc106="0" cc27="0" cc14="0" cc5="0" cc59="0" cc76="0" cc110="0" cc40="0" cc97="0" cc49="0" cc112="0" cc62="0" cc124="0" cc37="0" cc64="0" cc66="0" cc35="0" cc58="0" cc78="0" cc85="0" cc24="0" cc123="0" cc6="0" cc125="0" cc69="0" cc23="0" cc98="0" cc95="0" cc15="0" cc127="0" cc4="0" cc111="0" cc61="0" cc109="0" cc53="0" cc29="0" cc41="0" cc17="0" cc83="0" cc19="0" cc31="0" cc94="0" cc11="0" cc46="0" cc51="0" cc101="0" cc60="0" cc56="0" cc119="0" cc88="0" cc34="0" cc39="0" cc44="0" cc115="0" cc42="0" cc28="0" cc26="0" cc100="0" cc12="0" cc121="0" cc48="0" cc33="0" cc8="0" cc114="0" cc7="0" cc92="0" cc120="0" cc82="0" cc74="0" cc0="0" cc55="0" cc67="0" cc103="0" cc54="0" cc72="0" cc104="0" cc81="0" cc102="0" cc30="0" cc47="0" cc113="0" cc118="0" cc89="0" cc45="0" cc38="0" cc9="0" cc77="0" cc105="0" cc36="0" cc25="0" cc63="0" cc117="0" cc1="0" cc68="0" cc21="0" cc99="0" cc65="0" cc107="0" cc79="0" cc87="0" cc116="0" cc86="0" cc108="0" cc70="0" cc80="0" cc20="0" cc90="0" cc126="0" cc16="0" cc22="0" cc96="0" cc18="0" cc10="0" cc2="0" cc43="0" cc93="0" cc50="0" cc3="0" cc73="0"/>
          <instrument name="sf2player">
            <sf2player bank="0" patch="27" gain="0.6" chorusOn="0" src="usersoundfont:GiantSoundfontV6.6_WIPMelodicBank.sf2" chorusLevel="2" reverbRoomSize="0.2" reverbDamping="0" reverbWidth="0.5" chorusDepth="8" reverbLevel="0.9" chorusNum="3" reverbOn="0" chorusSpeed="0.3">
              <key/>
            </sf2player>
          </instrument>
          <eldata fcut="14000" fres="0.5" fwet="0" ftype="0">
            <elvol dec="0.5" lspd="0.1" pdel="0" amt="0" latt="0" lshp="0" rel="0.1" x100="0" att="0" lspd_numerator="4" ctlenvamt="0" lspd_syncmode="0" lamt="0" lpdel="0" userwavefile="" hold="0.5" sustain="0.5" lspd_denominator="4"/>
            <elcut dec="0.5" lspd="0.1" pdel="0" amt="0" latt="0" lshp="0" rel="0.1" x100="0" att="0" lspd_numerator="4" ctlenvamt="0" lspd_syncmode="0" lamt="0" lpdel="0" userwavefile="" hold="0.5" sustain="0.5" lspd_denominator="4"/>
            <elres dec="0.5" lspd="0.1" pdel="0" amt="0" latt="0" lshp="0" rel="0.1" x100="0" att="0" lspd_numerator="4" ctlenvamt="0" lspd_syncmode="0" lamt="0" lpdel="0" userwavefile="" hold="0.5" sustain="0.5" lspd_denominator="4"/>
          </eldata>
          <chordcreator chord-enabled="0" chord="0" chordrange="1"/>
          <arpeggiator arptime="200" arpgate="100" arprepeats="1" arptime_denominator="4" arp="0" arpmode="0" arp-enabled="0" arpdir="0" arprange="1" arpmiss="0" arptime_syncmode="0" arpskip="0" arptime_numerator="4" arpcycle="0"/>
          <midiport outputchannel="1" outputcontroller="0" outputprogram="1" fixedoutputnote="-1" fixedoutputvelocity="-1" inputcontroller="0" basevelocity="63" fixedinputvelocity="-1" writable="0" inports="" inputchannel="0" readable="1"/>
          <fxchain enabled="0" numofeffects="0"/>
        </instrumenttrack>
        <midiclip type="1" steps="16" name="" pos="3456" muted="0">
          <note vol="100" pos="0" pan="0" len="48" key="66"/>
          <note vol="100" pos="48" pan="0" len="48" key="54"/>
          <note vol="100" pos="96" pan="0" len="24" key="61"/>
          <note vol="100" pos="120" pan="0" len="48" key="66"/>
          <note vol="100" pos="168" pan="0" len="168" key="64"/>
          <note vol="100" pos="336" pan="0" len="24" key="59"/>
          <note vol="100" pos="360" pan="0" len="24" key="57"/>
          <note vol="100" pos="384" pan="0" len="24" key="59"/>
          <note vol="100" pos="420" pan="0" len="12" key="59"/>
          <note vol="100" pos="432" pan="0" len="24" key="57"/>
          <note vol="100" pos="456" pan="0" len="48" key="59"/>
          <note vol="100" pos="504" pan="0" len="24" key="57"/>
          <note vol="100" pos="528" pan="0" len="24" key="59"/>
          <note vol="100" pos="552" pan="0" len="24" key="57"/>
          <note vol="100" pos="576" pan="0" len="36" key="60"/>
          <note vol="100" pos="612" pan="0" len="12" key="59"/>
          <note vol="100" pos="624" pan="0" len="12" key="57"/>
          <note vol="100" pos="648" pan="0" len="36" key="59"/>
          <note vol="100" pos="684" pan="0" len="12" key="57"/>
          <note vol="100" pos="696" pan="0" len="24" key="54"/>
          <note vol="100" pos="720" pan="0" len="24" key="49"/>
          <note vol="100" pos="744" pan="0" len="24" key="52"/>
        </midiclip>
        <midiclip type="1" steps="16" name="" pos="2880" muted="0">
          <note vol="100" pos="0" pan="0" len="216" key="66"/>
          <note vol="100" pos="72" pan="0" len="216" key="69"/>
          <note vol="100" pos="144" pan="0" len="192" key="64"/>
          <note vol="100" pos="216" pan="0" len="168" key="66"/>
          <note vol="100" pos="288" pan="0" len="168" key="69"/>
          <note vol="100" pos="336" pan="0" len="24" key="62"/>
          <note vol="100" pos="360" pan="0" len="24" key="64"/>
          <note vol="100" pos="384" pan="0" len="120" key="61"/>
          <note vol="100" pos="456" pan="0" len="96" key="66"/>
          <note vol="100" pos="504" pan="0" len="24" key="61"/>
          <note vol="100" pos="528" pan="0" len="48" key="64"/>
          <note vol="100" pos="552" pan="0" len="24" key="66"/>
        </midiclip>
        <midiclip type="1" steps="16" name="" pos="8448" muted="0">
          <note vol="100" pos="0" pan="0" len="192" key="61"/>
          <note vol="100" pos="192" pan="0" len="192" key="69"/>
          <note vol="100" pos="384" pan="0" len="192" key="66"/>
          <note vol="100" pos="576" pan="0" len="96" key="69"/>
          <note vol="100" pos="672" pan="0" len="96" key="68"/>
          <note vol="100" pos="768" pan="0" len="192" key="66"/>
          <note vol="100" pos="960" pan="0" len="192" key="69"/>
          <note vol="100" pos="1152" pan="0" len="192" key="62"/>
          <note vol="100" pos="1344" pan="0" len="96" key="69"/>
          <note vol="100" pos="1440" pan="0" len="96" key="68"/>
        </midiclip>
        <midiclip type="1" steps="16" name="" pos="9984" muted="0">
          <note vol="100" pos="0" pan="0" len="168" key="69"/>
          <note vol="100" pos="0" pan="0" len="168" key="61"/>
          <note vol="100" pos="168" pan="0" len="24" key="66"/>
          <note vol="100" pos="168" pan="0" len="24" key="61"/>
          <note vol="100" pos="192" pan="0" len="144" key="73"/>
          <note vol="100" pos="192" pan="0" len="144" key="69"/>
          <note vol="100" pos="336" pan="0" len="48" key="71"/>
          <note vol="100" pos="336" pan="0" len="48" key="68"/>
          <note vol="100" pos="384" pan="0" len="168" key="69"/>
          <note vol="100" pos="384" pan="0" len="168" key="66"/>
          <note vol="100" pos="552" pan="0" len="24" key="71"/>
          <note vol="100" pos="552" pan="0" len="24" key="68"/>
          <note vol="100" pos="576" pan="0" len="96" key="73"/>
          <note vol="100" pos="576" pan="0" len="96" key="69"/>
          <note vol="100" pos="672" pan="0" len="72" key="71"/>
          <note vol="100" pos="672" pan="0" len="72" key="68"/>
          <note vol="100" pos="744" pan="0" len="24" key="69"/>
          <note vol="100" pos="744" pan="0" len="24" key="64"/>
          <note vol="100" pos="768" pan="0" len="168" key="74"/>
          <note vol="100" pos="768" pan="0" len="192" key="66"/>
          <note vol="100" pos="936" pan="0" len="24" key="73"/>
          <note vol="100" pos="960" pan="0" len="12" key="76"/>
          <note vol="100" pos="960" pan="0" len="180" key="69"/>
          <note vol="100" pos="972" pan="0" len="156" key="78"/>
          <note vol="100" pos="1128" pan="0" len="12" key="76"/>
          <note vol="100" pos="1140" pan="0" len="12" key="78"/>
          <note vol="100" pos="1140" pan="0" len="12" key="68"/>
          <note vol="100" pos="1152" pan="0" len="168" key="74"/>
          <note vol="100" pos="1152" pan="0" len="192" key="66"/>
          <note vol="100" pos="1320" pan="0" len="24" key="73"/>
          <note vol="100" pos="1344" pan="0" len="12" key="76"/>
          <note vol="100" pos="1344" pan="0" len="96" key="69"/>
          <note vol="100" pos="1356" pan="0" len="84" key="78"/>
          <note vol="100" pos="1440" pan="0" len="96" key="76"/>
          <note vol="100" pos="1440" pan="0" len="96" key="68"/>
        </midiclip>
        <midiclip type="1" steps="16" name="" pos="4224" muted="0">
          <note vol="100" pos="0" pan="0" len="48" key="66"/>
          <note vol="100" pos="48" pan="0" len="48" key="54"/>
          <note vol="100" pos="96" pan="0" len="24" key="61"/>
          <note vol="100" pos="120" pan="0" len="48" key="66"/>
          <note vol="100" pos="168" pan="0" len="168" key="69"/>
          <note vol="100" pos="336" pan="0" len="24" key="73"/>
          <note vol="100" pos="360" pan="0" len="24" key="69"/>
          <note vol="100" pos="384" pan="0" len="36" key="71"/>
          <note vol="100" pos="420" pan="0" len="12" key="69"/>
          <note vol="100" pos="432" pan="0" len="12" key="66"/>
          <note vol="100" pos="456" pan="0" len="24" key="71"/>
          <note vol="100" pos="480" pan="0" len="24" key="69"/>
          <note vol="100" pos="504" pan="0" len="24" key="66"/>
          <note vol="100" pos="528" pan="0" len="24" key="69"/>
          <note vol="100" pos="552" pan="0" len="12" key="66"/>
          <note vol="100" pos="564" pan="0" len="12" key="66"/>
          <note vol="100" pos="576" pan="0" len="24" key="69"/>
          <note vol="100" pos="600" pan="0" len="24" key="71"/>
          <note vol="100" pos="624" pan="0" len="12" key="73"/>
          <note vol="100" pos="648" pan="0" len="48" key="71"/>
          <note vol="100" pos="696" pan="0" len="12" key="69"/>
          <note vol="100" pos="708" pan="0" len="12" key="69"/>
          <note vol="100" pos="720" pan="0" len="24" key="64"/>
          <note vol="100" pos="744" pan="0" len="408" key="66"/>
        </midiclip>
      </track>
      <track type="0" solo="0" mutedBeforeSolo="0" name="Guitar>Texture" muted="0">
        <instrumenttrack range_import="1" enablecc="0" scale="0" enabled="0" basenote="69" mixch="3" usemasterpitch="1" pan="0" lastkey="127" pitch="0" pitchrange="1" keymap="0" firstkey="0">
          <vol id="1541" value="100" scale_type="linear"/>
          <midicontrollers cc32="0" cc52="0" cc91="0" cc71="0" cc57="0" cc75="0" cc84="0" cc13="0" cc122="0" cc106="0" cc27="0" cc14="0" cc5="0" cc59="0" cc76="0" cc110="0" cc40="0" cc97="0" cc49="0" cc112="0" cc62="0" cc124="0" cc37="0" cc64="0" cc66="0" cc35="0" cc58="0" cc78="0" cc85="0" cc24="0" cc123="0" cc6="0" cc125="0" cc69="0" cc23="0" cc98="0" cc95="0" cc15="0" cc127="0" cc4="0" cc111="0" cc61="0" cc109="0" cc53="0" cc29="0" cc41="0" cc17="0" cc83="0" cc19="0" cc31="0" cc94="0" cc11="0" cc46="0" cc51="0" cc101="0" cc60="0" cc56="0" cc119="0" cc88="0" cc34="0" cc39="0" cc44="0" cc115="0" cc42="0" cc28="0" cc26="0" cc100="0" cc12="0" cc121="0" cc48="0" cc33="0" cc8="0" cc114="0" cc7="0" cc92="0" cc120="0" cc82="0" cc74="0" cc0="0" cc55="0" cc67="0" cc103="0" cc54="0" cc72="0" cc104="0" cc81="0" cc102="0" cc30="0" cc47="0" cc113="0" cc118="0" cc89="0" cc45="0" cc38="0" cc9="0" cc77="0" cc105="0" cc36="0" cc25="0" cc63="0" cc117="0" cc1="0" cc68="0" cc21="0" cc99="0" cc65="0" cc107="0" cc79="0" cc87="0" cc116="0" cc86="0" cc108="0" cc70="0" cc80="0" cc20="0" cc90="0" cc126="0" cc16="0" cc22="0" cc96="0" cc18="0" cc10="0" cc2="0" cc43="0" cc93="0" cc50="0" cc3="0" cc73="0"/>
          <instrument name="sf2player">
            <sf2player bank="0" patch="25" gain="0.22" chorusOn="0" src="usersoundfont:GiantSoundfontV6.6_WIPMelodicBank.sf2" chorusLevel="2" reverbRoomSize="0.2" reverbDamping="0" reverbWidth="0.5" chorusDepth="8" reverbLevel="0.9" chorusNum="3" reverbOn="0" chorusSpeed="0.3">
              <key/>
            </sf2player>
          </instrument>
          <eldata fcut="14000" fres="0.5" fwet="0" ftype="0">
            <elvol dec="0.5" lspd="0.1" pdel="0" amt="0" latt="0" lshp="0" rel="0.1" x100="0" att="0" lspd_numerator="4" ctlenvamt="0" lspd_syncmode="0" lamt="0" lpdel="0" userwavefile="" hold="0.5" sustain="0.5" lspd_denominator="4"/>
            <elcut dec="0.5" lspd="0.1" pdel="0" amt="0" latt="0" lshp="0" rel="0.1" x100="0" att="0" lspd_numerator="4" ctlenvamt="0" lspd_syncmode="0" lamt="0" lpdel="0" userwavefile="" hold="0.5" sustain="0.5" lspd_denominator="4"/>
            <elres dec="0.5" lspd="0.1" pdel="0" amt="0" latt="0" lshp="0" rel="0.1" x100="0" att="0" lspd_numerator="4" ctlenvamt="0" lspd_syncmode="0" lamt="0" lpdel="0" userwavefile="" hold="0.5" sustain="0.5" lspd_denominator="4"/>
          </eldata>
          <chordcreator chord-enabled="0" chord="0" chordrange="1"/>
          <arpeggiator arptime="200" arpgate="100" arprepeats="1" arptime_denominator="4" arp="0" arpmode="0" arp-enabled="0" arpdir="0" arprange="1" arpmiss="0" arptime_syncmode="0" arpskip="0" arptime_numerator="4" arpcycle="0"/>
          <midiport outputchannel="1" outputcontroller="0" outputprogram="1" fixedoutputnote="-1" fixedoutputvelocity="-1" inputcontroller="0" basevelocity="63" fixedinputvelocity="-1" writable="0" inports="" inputchannel="0" readable="1"/>
          <fxchain enabled="0" numofeffects="0"/>
        </instrumenttrack>
        <midiclip type="1" steps="16" name="" pos="3456" muted="0">
          <note vol="100" pos="0" pan="0" len="144" key="61"/>
          <note vol="100" pos="0" pan="0" len="120" key="59"/>
          <note vol="100" pos="0" pan="0" len="168" key="54"/>
          <note vol="100" pos="120" pan="0" len="72" key="59"/>
          <note vol="100" pos="144" pan="0" len="48" key="61"/>
          <note vol="100" pos="168" pan="0" len="24" key="54"/>
          <note vol="100" pos="192" pan="0" len="144" key="61"/>
          <note vol="100" pos="192" pan="0" len="168" key="57"/>
          <note vol="100" pos="192" pan="0" len="192" key="52"/>
          <note vol="100" pos="288" pan="0" len="96" key="59"/>
          <note vol="100" pos="336" pan="0" len="48" key="61"/>
          <note vol="100" pos="360" pan="0" len="24" key="57"/>
          <note vol="100" pos="384" pan="0" len="144" key="59"/>
          <note vol="100" pos="384" pan="0" len="72" key="56"/>
          <note vol="100" pos="384" pan="0" len="48" key="52"/>
          <note vol="100" pos="432" pan="0" len="120" key="52"/>
          <note vol="100" pos="456" pan="0" len="48" key="56"/>
          <note vol="100" pos="504" pan="0" len="72" key="56"/>
          <note vol="100" pos="528" pan="0" len="48" key="59"/>
          <note vol="100" pos="552" pan="0" len="24" key="52"/>
          <note vol="100" pos="576" pan="0" len="48" key="61"/>
          <note vol="100" pos="576" pan="0" len="72" key="59"/>
          <note vol="100" pos="576" pan="0" len="24" key="54"/>
          <note vol="100" pos="600" pan="0" len="72" key="54"/>
          <note vol="100" pos="624" pan="0" len="48" key="61"/>
          <note vol="100" pos="648" pan="0" len="24" key="59"/>
          <note vol="100" pos="672" pan="0" len="72" key="64"/>
          <note vol="100" pos="672" pan="0" len="48" key="61"/>
          <note vol="100" pos="672" pan="0" len="24" key="57"/>
          <note vol="100" pos="696" pan="0" len="72" key="57"/>
          <note vol="100" pos="720" pan="0" len="48" key="61"/>
          <note vol="100" pos="744" pan="0" len="24" key="64"/>
        </midiclip>
        <midiclip type="1" steps="16" name="" pos="4224" muted="0">
          <note vol="100" pos="0" pan="0" len="144" key="61"/>
          <note vol="100" pos="0" pan="0" len="120" key="59"/>
          <note vol="100" pos="0" pan="0" len="168" key="54"/>
          <note vol="100" pos="120" pan="0" len="72" key="59"/>
          <note vol="100" pos="144" pan="0" len="48" key="61"/>
          <note vol="100" pos="168" pan="0" len="24" key="54"/>
          <note vol="100" pos="192" pan="0" len="144" key="61"/>
          <note vol="100" pos="192" pan="0" len="192" key="57"/>
          <note vol="100" pos="192" pan="0" len="168" key="52"/>
          <note vol="100" pos="288" pan="0" len="96" key="59"/>
          <note vol="100" pos="336" pan="0" len="48" key="61"/>
          <note vol="100" pos="360" pan="0" len="24" key="52"/>
          <note vol="100" pos="384" pan="0" len="72" key="64"/>
          <note vol="100" pos="384" pan="0" len="48" key="59"/>
          <note vol="100" pos="384" pan="0" len="96" key="56"/>
          <note vol="100" pos="432" pan="0" len="96" key="59"/>
          <note vol="100" pos="456" pan="0" len="96" key="64"/>
          <note vol="100" pos="480" pan="0" len="96" key="56"/>
          <note vol="100" pos="528" pan="0" len="48" key="59"/>
          <note vol="100" pos="552" pan="0" len="24" key="64"/>
          <note vol="100" pos="576" pan="0" len="72" key="64"/>
          <note vol="100" pos="576" pan="0" len="48" key="59"/>
          <note vol="100" pos="576" pan="0" len="24" key="54"/>
          <note vol="100" pos="600" pan="0" len="72" key="54"/>
          <note vol="100" pos="624" pan="0" len="48" key="59"/>
          <note vol="100" pos="648" pan="0" len="24" key="64"/>
          <note vol="100" pos="672" pan="0" len="48" key="63"/>
          <note vol="100" pos="672" pan="0" len="24" key="59"/>
          <note vol="100" pos="672" pan="0" len="72" key="54"/>
          <note vol="100" pos="696" pan="0" len="72" key="59"/>
          <note vol="100" pos="720" pan="0" len="48" key="63"/>
          <note vol="100" pos="744" pan="0" len="24" key="54"/>
        </midiclip>
        <midiclip type="1" steps="16" name="" pos="5760" muted="0">
          <note vol="100" pos="0" pan="0" len="144" key="61"/>
          <note vol="100" pos="0" pan="0" len="108" key="57"/>
          <note vol="100" pos="0" pan="0" len="72" key="52"/>
          <note vol="100" pos="72" pan="0" len="120" key="52"/>
          <note vol="100" pos="108" pan="0" len="84" key="57"/>
          <note vol="100" pos="144" pan="0" len="48" key="61"/>
          <note vol="100" pos="192" pan="0" len="108" key="59"/>
          <note vol="100" pos="192" pan="0" len="144" key="56"/>
          <note vol="100" pos="192" pan="0" len="72" key="51"/>
          <note vol="100" pos="264" pan="0" len="120" key="51"/>
          <note vol="100" pos="300" pan="0" len="84" key="59"/>
          <note vol="100" pos="336" pan="0" len="48" key="56"/>
          <note vol="100" pos="384" pan="0" len="108" key="59"/>
          <note vol="100" pos="384" pan="0" len="72" key="54"/>
          <note vol="100" pos="384" pan="0" len="144" key="47"/>
          <note vol="100" pos="456" pan="0" len="120" key="51"/>
          <note vol="100" pos="492" pan="0" len="84" key="54"/>
          <note vol="100" pos="528" pan="0" len="48" key="59"/>
          <note vol="100" pos="576" pan="0" len="72" key="70"/>
          <note vol="100" pos="576" pan="0" len="120" key="66"/>
          <note vol="100" pos="576" pan="0" len="144" key="61"/>
          <note vol="100" pos="648" pan="0" len="120" key="70"/>
          <note vol="100" pos="696" pan="0" len="72" key="68"/>
          <note vol="100" pos="720" pan="0" len="48" key="66"/>
        </midiclip>
        <midiclip type="1" steps="16" name="" pos="4992" muted="0">
          <note vol="100" pos="0" pan="0" len="108" key="61"/>
          <note vol="100" pos="0" pan="0" len="72" key="57"/>
          <note vol="100" pos="0" pan="0" len="144" key="54"/>
          <note vol="100" pos="72" pan="0" len="120" key="57"/>
          <note vol="100" pos="108" pan="0" len="84" key="61"/>
          <note vol="100" pos="144" pan="0" len="48" key="54"/>
          <note vol="100" pos="192" pan="0" len="108" key="64"/>
          <note vol="100" pos="192" pan="0" len="72" key="56"/>
          <note vol="100" pos="192" pan="0" len="144" key="52"/>
          <note vol="100" pos="264" pan="0" len="120" key="56"/>
          <note vol="100" pos="300" pan="0" len="84" key="64"/>
          <note vol="100" pos="336" pan="0" len="48" key="52"/>
          <note vol="100" pos="384" pan="0" len="108" key="66"/>
          <note vol="100" pos="384" pan="0" len="72" key="59"/>
          <note vol="100" pos="384" pan="0" len="144" key="54"/>
          <note vol="100" pos="456" pan="0" len="120" key="56"/>
          <note vol="100" pos="492" pan="0" len="84" key="64"/>
          <note vol="100" pos="528" pan="0" len="48" key="52"/>
          <note vol="100" pos="576" pan="0" len="72" key="63"/>
          <note vol="100" pos="576" pan="0" len="120" key="59"/>
          <note vol="100" pos="576" pan="0" len="144" key="54"/>
          <note vol="100" pos="648" pan="0" len="120" key="63"/>
          <note vol="100" pos="696" pan="0" len="72" key="61"/>
          <note vol="100" pos="720" pan="0" len="48" key="59"/>
        </midiclip>
        <midiclip type="1" steps="16" name="" pos="6528" muted="0">
          <note vol="100" pos="0" pan="0" len="168" key="64"/>
          <note vol="100" pos="0" pan="0" len="120" key="61"/>
          <note vol="100" pos="0" pan="0" len="72" key="57"/>
          <note vol="100" pos="72" pan="0" len="120" key="57"/>
          <note vol="100" pos="120" pan="0" len="72" key="61"/>
          <note vol="100" pos="168" pan="0" len="24" key="64"/>
          <note vol="100" pos="192" pan="0" len="168" key="64"/>
          <note vol="100" pos="192" pan="0" len="120" key="61"/>
          <note vol="100" pos="192" pan="0" len="72" key="59"/>
          <note vol="100" pos="264" pan="0" len="120" key="59"/>
          <note vol="100" pos="312" pan="0" len="72" key="61"/>
          <note vol="100" pos="360" pan="0" len="24" key="64"/>
          <note vol="100" pos="384" pan="0" len="120" key="63"/>
          <note vol="100" pos="384" pan="0" len="72" key="59"/>
          <note vol="100" pos="384" pan="0" len="144" key="54"/>
          <note vol="100" pos="456" pan="0" len="96" key="59"/>
          <note vol="100" pos="504" pan="0" len="72" key="63"/>
          <note vol="100" pos="528" pan="0" len="48" key="54"/>
          <note vol="100" pos="552" pan="0" len="24" key="61"/>
          <note vol="100" pos="576" pan="0" len="120" key="66"/>
          <note vol="100" pos="576" pan="0" len="72" key="61"/>
          <note vol="100" pos="576" pan="0" len="168" key="58"/>
          <note vol="100" pos="648" pan="0" len="120" key="61"/>
          <note vol="100" pos="696" pan="0" len="72" key="66"/>
          <note vol="100" pos="744" pan="0" len="24" key="58"/>
        </midiclip>
        <midiclip type="1" steps="16" name="" pos="8448" muted="0">
          <note vol="100" pos="0" pan="0" len="96" key="54"/>
          <note vol="100" pos="24" pan="0" len="72" key="57"/>
          <note vol="100" pos="48" pan="0" len="48" key="61"/>
          <note vol="100" pos="72" pan="0" len="24" key="64"/>
          <note vol="100" pos="96" pan="0" len="48" key="66"/>
          <note vol="100" pos="120" pan="0" len="72" key="69"/>
          <note vol="100" pos="144" pan="0" len="48" key="66"/>
          <note vol="100" pos="168" pan="0" len="24" key="61"/>
          <note vol="100" pos="192" pan="0" len="96" key="57"/>
          <note vol="100" pos="216" pan="0" len="72" key="54"/>
          <note vol="100" pos="240" pan="0" len="48" key="49"/>
          <note vol="100" pos="264" pan="0" len="24" key="52"/>
          <note vol="100" pos="288" pan="0" len="96" key="54"/>
          <note vol="100" pos="312" pan="0" len="72" key="56"/>
          <note vol="100" pos="336" pan="0" len="48" key="57"/>
          <note vol="100" pos="360" pan="0" len="24" key="61"/>
        </midiclip>
        <midiclip type="1" steps="16" name="" pos="9216" muted="0">
          <note vol="100" pos="0" pan="0" len="96" key="50"/>
          <note vol="100" pos="24" pan="0" len="72" key="54"/>
          <note vol="100" pos="48" pan="0" len="48" key="57"/>
          <note vol="100" pos="72" pan="0" len="24" key="61"/>
          <note vol="100" pos="96" pan="0" len="48" key="64"/>
          <note vol="100" pos="120" pan="0" len="72" key="66"/>
          <note vol="100" pos="144" pan="0" len="48" key="64"/>
          <note vol="100" pos="168" pan="0" len="24" key="57"/>
          <note vol="100" pos="192" pan="0" len="96" key="54"/>
          <note vol="100" pos="216" pan="0" len="72" key="50"/>
          <note vol="100" pos="240" pan="0" len="48" key="45"/>
          <note vol="100" pos="264" pan="0" len="24" key="49"/>
          <note vol="100" pos="288" pan="0" len="96" key="50"/>
          <note vol="100" pos="312" pan="0" len="72" key="52"/>
          <note vol="100" pos="336" pan="0" len="48" key="54"/>
          <note vol="100" pos="360" pan="0" len="24" key="57"/>
        </midiclip>
        <midiclip type="1" steps="16" name="" pos="768" muted="0">
          <note vol="100" pos="0" pan="0" len="192" key="54"/>
          <note vol="100" pos="96" pan="0" len="192" key="57"/>
          <note vol="100" pos="192" pan="0" len="192" key="62"/>
          <note vol="100" pos="240" pan="0" len="192" key="64"/>
          <note vol="100" pos="336" pan="0" len="192" key="59"/>
          <note vol="100" pos="384" pan="0" len="192" key="61"/>
          <note vol="100" pos="480" pan="0" len="192" key="49"/>
          <note vol="100" pos="576" pan="0" len="144" key="52"/>
          <note vol="100" pos="672" pan="0" len="96" key="56"/>
          <note vol="100" pos="720" pan="0" len="48" key="52"/>
          <note vol="100" pos="768" pan="0" len="192" key="69"/>
          <note vol="100" pos="768" pan="0" len="192" key="66"/>
          <note vol="100" pos="768" pan="0" len="168" key="62"/>
          <note vol="100" pos="768" pan="0" len="192" key="59"/>
          <note vol="100" pos="864" pan="0" len="96" key="50"/>
          <note vol="100" pos="888" pan="0" len="72" key="54"/>
          <note vol="100" pos="912" pan="0" len="48" key="57"/>
          <note vol="100" pos="936" pan="0" len="24" key="62"/>
          <note vol="100" pos="960" pan="0" len="192" key="73"/>
          <note vol="100" pos="960" pan="0" len="192" key="68"/>
          <note vol="100" pos="960" pan="0" len="192" key="65"/>
          <note vol="100" pos="960" pan="0" len="96" key="61"/>
          <note vol="100" pos="1032" pan="0" len="12" key="53"/>
          <note vol="100" pos="1044" pan="0" len="12" key="56"/>
          <note vol="100" pos="1056" pan="0" len="96" key="61"/>
          <note vol="100" pos="1080" pan="0" len="72" key="56"/>
          <note vol="100" pos="1104" pan="0" len="48" key="53"/>
          <note vol="100" pos="1128" pan="0" len="24" key="49"/>
          <note vol="100" pos="1152" pan="0" len="192" key="66"/>
          <note vol="100" pos="1152" pan="0" len="192" key="64"/>
          <note vol="100" pos="1152" pan="0" len="192" key="61"/>
          <note vol="100" pos="1152" pan="0" len="192" key="57"/>
          <note vol="100" pos="1224" pan="0" len="24" key="45"/>
          <note vol="100" pos="1248" pan="0" len="96" key="42"/>
          <note vol="100" pos="1272" pan="0" len="72" key="49"/>
          <note vol="100" pos="1296" pan="0" len="48" key="52"/>
          <note vol="100" pos="1320" pan="0" len="24" key="56"/>
          <note vol="100" pos="1344" pan="0" len="192" key="59"/>
          <note vol="100" pos="1344" pan="0" len="192" key="57"/>
          <note vol="100" pos="1344" pan="0" len="192" key="54"/>
          <note vol="100" pos="1344" pan="0" len="192" key="51"/>
          <note vol="100" pos="1416" pan="0" len="12" key="63"/>
          <note vol="100" pos="1428" pan="0" len="12" key="69"/>
          <note vol="100" pos="1440" pan="0" len="96" key="75"/>
          <note vol="100" pos="1464" pan="0" len="72" key="73"/>
          <note vol="100" pos="1488" pan="0" len="48" key="71"/>
          <note vol="100" pos="1512" pan="0" len="24" key="66"/>
          <note vol="100" pos="1536" pan="0" len="192" key="62"/>
          <note vol="100" pos="1536" pan="0" len="168" key="57"/>
          <note vol="100" pos="1536" pan="0" len="144" key="54"/>
          <note vol="100" pos="1536" pan="0" len="120" key="50"/>
          <note vol="100" pos="1608" pan="0" len="24" key="42"/>
          <note vol="100" pos="1632" pan="0" len="96" key="45"/>
          <note vol="100" pos="1656" pan="0" len="72" key="50"/>
          <note vol="100" pos="1680" pan="0" len="48" key="54"/>
          <note vol="100" pos="1704" pan="0" len="24" key="57"/>
          <note vol="100" pos="1728" pan="0" len="192" key="64"/>
          <note vol="100" pos="1728" pan="0" len="192" key="61"/>
          <note vol="100" pos="1728" pan="0" len="192" key="59"/>
          <note vol="100" pos="1728" pan="0" len="144" key="56"/>
          <note vol="100" pos="1800" pan="0" len="24" key="52"/>
          <note vol="100" pos="1824" pan="0" len="96" key="49"/>
          <note vol="100" pos="1848" pan="0" len="72" key="52"/>
          <note vol="100" pos="1872" pan="0" len="48" key="56"/>
          <note vol="100" pos="1896" pan="0" len="24" key="57"/>
          <note vol="100" pos="1920" pan="0" len="576" key="61"/>
          <note vol="100" pos="1920" pan="0" len="576" key="57"/>
          <note vol="100" pos="1920" pan="0" len="576" key="56"/>
          <note vol="100" pos="1920" pan="0" len="144" key="54"/>
          <note vol="100" pos="2064" pan="0" len="432" key="54"/>
        </midiclip>
        <midiclip type="1" steps="16" name="" pos="8832" muted="0">
          <note vol="100" pos="0" pan="0" len="96" key="54"/>
          <note vol="100" pos="24" pan="0" len="72" key="57"/>
          <note vol="100" pos="48" pan="0" len="48" key="61"/>
          <note vol="100" pos="72" pan="0" len="24" key="64"/>
          <note vol="100" pos="96" pan="0" len="48" key="66"/>
          <note vol="100" pos="120" pan="0" len="72" key="69"/>
          <note vol="100" pos="144" pan="0" len="48" key="66"/>
          <note vol="100" pos="168" pan="0" len="24" key="61"/>
          <note vol="100" pos="192" pan="0" len="96" key="57"/>
          <note vol="100" pos="216" pan="0" len="72" key="54"/>
          <note vol="100" pos="240" pan="0" len="48" key="49"/>
          <note vol="100" pos="264" pan="0" len="24" key="52"/>
          <note vol="100" pos="288" pan="0" len="96" key="54"/>
          <note vol="100" pos="312" pan="0" len="72" key="56"/>
          <note vol="100" pos="336" pan="0" len="48" key="57"/>
          <note vol="100" pos="360" pan="0" len="24" key="61"/>
        </midiclip>
        <midiclip type="1" steps="16" name="" pos="9600" muted="0">
          <note vol="100" pos="0" pan="0" len="96" key="50"/>
          <note vol="100" pos="24" pan="0" len="72" key="54"/>
          <note vol="100" pos="48" pan="0" len="48" key="57"/>
          <note vol="100" pos="72" pan="0" len="24" key="61"/>
          <note vol="100" pos="96" pan="0" len="48" key="64"/>
          <note vol="100" pos="120" pan="0" len="72" key="66"/>
          <note vol="100" pos="144" pan="0" len="48" key="64"/>
          <note vol="100" pos="168" pan="0" len="24" key="57"/>
          <note vol="100" pos="192" pan="0" len="96" key="54"/>
          <note vol="100" pos="216" pan="0" len="72" key="50"/>
          <note vol="100" pos="240" pan="0" len="48" key="45"/>
          <note vol="100" pos="264" pan="0" len="24" key="49"/>
          <note vol="100" pos="288" pan="0" len="96" key="50"/>
          <note vol="100" pos="312" pan="0" len="72" key="52"/>
          <note vol="100" pos="336" pan="0" len="48" key="54"/>
          <note vol="100" pos="360" pan="0" len="24" key="57"/>
        </midiclip>
        <midiclip type="1" steps="16" name="" pos="9984" muted="0">
          <note vol="100" pos="0" pan="0" len="96" key="54"/>
          <note vol="100" pos="24" pan="0" len="72" key="57"/>
          <note vol="100" pos="48" pan="0" len="48" key="61"/>
          <note vol="100" pos="72" pan="0" len="24" key="64"/>
          <note vol="100" pos="96" pan="0" len="48" key="66"/>
          <note vol="100" pos="120" pan="0" len="72" key="69"/>
          <note vol="100" pos="144" pan="0" len="48" key="66"/>
          <note vol="100" pos="168" pan="0" len="24" key="61"/>
          <note vol="100" pos="192" pan="0" len="96" key="57"/>
          <note vol="100" pos="216" pan="0" len="72" key="54"/>
          <note vol="100" pos="240" pan="0" len="48" key="49"/>
          <note vol="100" pos="264" pan="0" len="24" key="52"/>
          <note vol="100" pos="288" pan="0" len="96" key="54"/>
          <note vol="100" pos="312" pan="0" len="72" key="56"/>
          <note vol="100" pos="336" pan="0" len="48" key="57"/>
          <note vol="100" pos="360" pan="0" len="24" key="61"/>
        </midiclip>
        <midiclip type="1" steps="16" name="" pos="10752" muted="0">
          <note vol="100" pos="0" pan="0" len="96" key="50"/>
          <note vol="100" pos="24" pan="0" len="72" key="54"/>
          <note vol="100" pos="48" pan="0" len="48" key="57"/>
          <note vol="100" pos="72" pan="0" len="24" key="61"/>
          <note vol="100" pos="96" pan="0" len="48" key="64"/>
          <note vol="100" pos="120" pan="0" len="72" key="66"/>
          <note vol="100" pos="144" pan="0" len="48" key="64"/>
          <note vol="100" pos="168" pan="0" len="24" key="57"/>
          <note vol="100" pos="192" pan="0" len="96" key="54"/>
          <note vol="100" pos="216" pan="0" len="72" key="50"/>
          <note vol="100" pos="240" pan="0" len="48" key="45"/>
          <note vol="100" pos="264" pan="0" len="24" key="49"/>
          <note vol="100" pos="288" pan="0" len="96" key="50"/>
          <note vol="100" pos="312" pan="0" len="72" key="52"/>
          <note vol="100" pos="336" pan="0" len="48" key="54"/>
          <note vol="100" pos="360" pan="0" len="24" key="57"/>
        </midiclip>
        <midiclip type="1" steps="16" name="" pos="10368" muted="0">
          <note vol="100" pos="0" pan="0" len="96" key="54"/>
          <note vol="100" pos="24" pan="0" len="72" key="57"/>
          <note vol="100" pos="48" pan="0" len="48" key="61"/>
          <note vol="100" pos="72" pan="0" len="24" key="64"/>
          <note vol="100" pos="96" pan="0" len="48" key="66"/>
          <note vol="100" pos="120" pan="0" len="72" key="69"/>
          <note vol="100" pos="144" pan="0" len="48" key="66"/>
          <note vol="100" pos="168" pan="0" len="24" key="61"/>
          <note vol="100" pos="192" pan="0" len="96" key="57"/>
          <note vol="100" pos="216" pan="0" len="72" key="54"/>
          <note vol="100" pos="240" pan="0" len="48" key="49"/>
          <note vol="100" pos="264" pan="0" len="24" key="52"/>
          <note vol="100" pos="288" pan="0" len="96" key="54"/>
          <note vol="100" pos="312" pan="0" len="72" key="56"/>
          <note vol="100" pos="336" pan="0" len="48" key="57"/>
          <note vol="100" pos="360" pan="0" len="24" key="61"/>
        </midiclip>
        <midiclip type="1" steps="16" name="" pos="11136" muted="0">
          <note vol="100" pos="0" pan="0" len="96" key="50"/>
          <note vol="100" pos="24" pan="0" len="72" key="54"/>
          <note vol="100" pos="48" pan="0" len="48" key="57"/>
          <note vol="100" pos="72" pan="0" len="24" key="61"/>
          <note vol="100" pos="96" pan="0" len="48" key="64"/>
          <note vol="100" pos="120" pan="0" len="72" key="66"/>
          <note vol="100" pos="144" pan="0" len="48" key="64"/>
          <note vol="100" pos="168" pan="0" len="24" key="57"/>
          <note vol="100" pos="192" pan="0" len="96" key="54"/>
          <note vol="100" pos="216" pan="0" len="72" key="50"/>
          <note vol="100" pos="240" pan="0" len="48" key="45"/>
          <note vol="100" pos="264" pan="0" len="24" key="49"/>
          <note vol="100" pos="288" pan="0" len="96" key="50"/>
          <note vol="100" pos="312" pan="0" len="72" key="52"/>
          <note vol="100" pos="336" pan="0" len="48" key="54"/>
          <note vol="100" pos="360" pan="0" len="24" key="57"/>
        </midiclip>
        <midiclip type="1" steps="16" name="" pos="8064" muted="0">
          <note vol="100" pos="0" pan="0" len="384" key="66"/>
          <note vol="100" pos="0" pan="0" len="384" key="61"/>
          <note vol="100" pos="0" pan="0" len="288" key="57"/>
          <note vol="100" pos="192" pan="0" len="192" key="54"/>
          <note vol="100" pos="288" pan="0" len="96" key="57"/>
        </midiclip>
        <midiclip type="1" steps="16" name="" pos="7296" muted="0">
          <note vol="100" pos="0" pan="0" len="168" key="64"/>
          <note vol="100" pos="0" pan="0" len="120" key="61"/>
          <note vol="100" pos="0" pan="0" len="72" key="57"/>
          <note vol="100" pos="72" pan="0" len="120" key="57"/>
          <note vol="100" pos="120" pan="0" len="72" key="61"/>
          <note vol="100" pos="168" pan="0" len="24" key="64"/>
          <note vol="100" pos="192" pan="0" len="168" key="64"/>
          <note vol="100" pos="192" pan="0" len="120" key="61"/>
          <note vol="100" pos="192" pan="0" len="72" key="59"/>
          <note vol="100" pos="264" pan="0" len="120" key="59"/>
          <note vol="100" pos="312" pan="0" len="72" key="61"/>
          <note vol="100" pos="360" pan="0" len="24" key="64"/>
          <note vol="100" pos="384" pan="0" len="120" key="63"/>
          <note vol="100" pos="384" pan="0" len="72" key="59"/>
          <note vol="100" pos="384" pan="0" len="144" key="54"/>
          <note vol="100" pos="456" pan="0" len="96" key="59"/>
          <note vol="100" pos="504" pan="0" len="72" key="63"/>
          <note vol="100" pos="528" pan="0" len="48" key="54"/>
          <note vol="100" pos="552" pan="0" len="24" key="57"/>
          <note vol="100" pos="576" pan="0" len="72" key="61"/>
          <note vol="100" pos="576" pan="0" len="144" key="57"/>
          <note vol="100" pos="576" pan="0" len="120" key="52"/>
          <note vol="100" pos="648" pan="0" len="120" key="66"/>
          <note vol="100" pos="696" pan="0" len="72" key="59"/>
          <note vol="100" pos="720" pan="0" len="48" key="61"/>
          <note vol="100" pos="744" pan="0" len="24" key="64"/>
        </midiclip>
      </track>
      <track type="0" solo="0" mutedBeforeSolo="0" name="Guitar>Base" muted="0">
        <instrumenttrack range_import="1" enablecc="0" scale="0" enabled="0" basenote="69" mixch="3" usemasterpitch="1" pan="0" lastkey="127" pitch="0" pitchrange="1" keymap="0" firstkey="0">
          <vol id="23592" value="100" scale_type="linear"/>
          <midicontrollers cc32="0" cc52="0" cc91="0" cc71="0" cc57="0" cc75="0" cc84="0" cc13="0" cc122="0" cc106="0" cc27="0" cc14="0" cc5="0" cc59="0" cc76="0" cc110="0" cc40="0" cc97="0" cc49="0" cc112="0" cc62="0" cc124="0" cc37="0" cc64="0" cc66="0" cc35="0" cc58="0" cc78="0" cc85="0" cc24="0" cc123="0" cc6="0" cc125="0" cc69="0" cc23="0" cc98="0" cc95="0" cc15="0" cc127="0" cc4="0" cc111="0" cc61="0" cc109="0" cc53="0" cc29="0" cc41="0" cc17="0" cc83="0" cc19="0" cc31="0" cc94="0" cc11="0" cc46="0" cc51="0" cc101="0" cc60="0" cc56="0" cc119="0" cc88="0" cc34="0" cc39="0" cc44="0" cc115="0" cc42="0" cc28="0" cc26="0" cc100="0" cc12="0" cc121="0" cc48="0" cc33="0" cc8="0" cc114="0" cc7="0" cc92="0" cc120="0" cc82="0" cc74="0" cc0="0" cc55="0" cc67="0" cc103="0" cc54="0" cc72="0" cc104="0" cc81="0" cc102="0" cc30="0" cc47="0" cc113="0" cc118="0" cc89="0" cc45="0" cc38="0" cc9="0" cc77="0" cc105="0" cc36="0" cc25="0" cc63="0" cc117="0" cc1="0" cc68="0" cc21="0" cc99="0" cc65="0" cc107="0" cc79="0" cc87="0" cc116="0" cc86="0" cc108="0" cc70="0" cc80="0" cc20="0" cc90="0" cc126="0" cc16="0" cc22="0" cc96="0" cc18="0" cc10="0" cc2="0" cc43="0" cc93="0" cc50="0" cc3="0" cc73="0"/>
          <instrument name="sf2player">
            <sf2player bank="8" patch="25" gain="0.04" chorusOn="0" src="usersoundfont:Timbres of Heaven (XGM) 4.00(G).sf2" chorusLevel="2" reverbRoomSize="0.2" reverbDamping="0" reverbWidth="0.5" chorusDepth="8" reverbLevel="0.9" chorusNum="3" reverbOn="0" chorusSpeed="0.3">
              <key/>
            </sf2player>
          </instrument>
          <eldata fcut="14000" fres="0.5" fwet="0" ftype="0">
            <elvol dec="0.5" lspd="0.1" pdel="0" amt="0" latt="0" lshp="0" rel="0.1" x100="0" att="0" lspd_numerator="4" ctlenvamt="0" lspd_syncmode="0" lamt="0" lpdel="0" userwavefile="" hold="0.5" sustain="0.5" lspd_denominator="4"/>
            <elcut dec="0.5" lspd="0.1" pdel="0" amt="0" latt="0" lshp="0" rel="0.1" x100="0" att="0" lspd_numerator="4" ctlenvamt="0" lspd_syncmode="0" lamt="0" lpdel="0" userwavefile="" hold="0.5" sustain="0.5" lspd_denominator="4"/>
            <elres dec="0.5" lspd="0.1" pdel="0" amt="0" latt="0" lshp="0" rel="0.1" x100="0" att="0" lspd_numerator="4" ctlenvamt="0" lspd_syncmode="0" lamt="0" lpdel="0" userwavefile="" hold="0.5" sustain="0.5" lspd_denominator="4"/>
          </eldata>
          <chordcreator chord-enabled="0" chord="0" chordrange="1"/>
          <arpeggiator arptime="200" arpgate="100" arprepeats="1" arptime_denominator="4" arp="0" arpmode="0" arp-enabled="0" arpdir="0" arprange="1" arpmiss="0" arptime_syncmode="0" arpskip="0" arptime_numerator="4" arpcycle="0"/>
          <midiport outputchannel="1" outputcontroller="0" outputprogram="1" fixedoutputnote="-1" fixedoutputvelocity="-1" inputcontroller="0" basevelocity="63" fixedinputvelocity="-1" writable="0" inports="" inputchannel="0" readable="1"/>
          <fxchain enabled="0" numofeffects="0"/>
        </instrumenttrack>
        <midiclip type="1" steps="16" name="" pos="3456" muted="0">
          <note vol="100" pos="0" pan="0" len="144" key="61"/>
          <note vol="100" pos="0" pan="0" len="120" key="59"/>
          <note vol="100" pos="0" pan="0" len="168" key="54"/>
          <note vol="100" pos="120" pan="0" len="72" key="59"/>
          <note vol="100" pos="144" pan="0" len="48" key="61"/>
          <note vol="100" pos="168" pan="0" len="24" key="54"/>
          <note vol="100" pos="192" pan="0" len="144" key="61"/>
          <note vol="100" pos="192" pan="0" len="168" key="57"/>
          <note vol="100" pos="192" pan="0" len="192" key="52"/>
          <note vol="100" pos="288" pan="0" len="96" key="59"/>
          <note vol="100" pos="336" pan="0" len="48" key="61"/>
          <note vol="100" pos="360" pan="0" len="24" key="57"/>
          <note vol="100" pos="384" pan="0" len="144" key="59"/>
          <note vol="100" pos="384" pan="0" len="72" key="56"/>
          <note vol="100" pos="384" pan="0" len="48" key="52"/>
          <note vol="100" pos="432" pan="0" len="120" key="52"/>
          <note vol="100" pos="456" pan="0" len="48" key="56"/>
          <note vol="100" pos="504" pan="0" len="72" key="56"/>
          <note vol="100" pos="528" pan="0" len="48" key="59"/>
          <note vol="100" pos="552" pan="0" len="24" key="52"/>
          <note vol="100" pos="576" pan="0" len="48" key="61"/>
          <note vol="100" pos="576" pan="0" len="72" key="59"/>
          <note vol="100" pos="576" pan="0" len="24" key="54"/>
          <note vol="100" pos="600" pan="0" len="72" key="54"/>
          <note vol="100" pos="624" pan="0" len="48" key="61"/>
          <note vol="100" pos="648" pan="0" len="24" key="59"/>
          <note vol="100" pos="672" pan="0" len="72" key="64"/>
          <note vol="100" pos="672" pan="0" len="48" key="61"/>
          <note vol="100" pos="672" pan="0" len="24" key="57"/>
          <note vol="100" pos="696" pan="0" len="72" key="57"/>
          <note vol="100" pos="720" pan="0" len="48" key="61"/>
          <note vol="100" pos="744" pan="0" len="24" key="64"/>
        </midiclip>
        <midiclip type="1" steps="16" name="" pos="4224" muted="0">
          <note vol="100" pos="0" pan="0" len="144" key="61"/>
          <note vol="100" pos="0" pan="0" len="120" key="59"/>
          <note vol="100" pos="0" pan="0" len="168" key="54"/>
          <note vol="100" pos="120" pan="0" len="72" key="59"/>
          <note vol="100" pos="144" pan="0" len="48" key="61"/>
          <note vol="100" pos="168" pan="0" len="24" key="54"/>
          <note vol="100" pos="192" pan="0" len="144" key="61"/>
          <note vol="100" pos="192" pan="0" len="192" key="57"/>
          <note vol="100" pos="192" pan="0" len="168" key="52"/>
          <note vol="100" pos="288" pan="0" len="96" key="59"/>
          <note vol="100" pos="336" pan="0" len="48" key="61"/>
          <note vol="100" pos="360" pan="0" len="24" key="52"/>
          <note vol="100" pos="384" pan="0" len="72" key="64"/>
          <note vol="100" pos="384" pan="0" len="48" key="59"/>
          <note vol="100" pos="384" pan="0" len="96" key="56"/>
          <note vol="100" pos="432" pan="0" len="96" key="59"/>
          <note vol="100" pos="456" pan="0" len="96" key="64"/>
          <note vol="100" pos="480" pan="0" len="96" key="56"/>
          <note vol="100" pos="528" pan="0" len="48" key="59"/>
          <note vol="100" pos="552" pan="0" len="24" key="64"/>
          <note vol="100" pos="576" pan="0" len="72" key="64"/>
          <note vol="100" pos="576" pan="0" len="48" key="59"/>
          <note vol="100" pos="576" pan="0" len="24" key="54"/>
          <note vol="100" pos="600" pan="0" len="72" key="54"/>
          <note vol="100" pos="624" pan="0" len="48" key="59"/>
          <note vol="100" pos="648" pan="0" len="24" key="64"/>
          <note vol="100" pos="672" pan="0" len="48" key="63"/>
          <note vol="100" pos="672" pan="0" len="24" key="59"/>
          <note vol="100" pos="672" pan="0" len="72" key="54"/>
          <note vol="100" pos="696" pan="0" len="72" key="59"/>
          <note vol="100" pos="720" pan="0" len="48" key="63"/>
          <note vol="100" pos="744" pan="0" len="24" key="54"/>
        </midiclip>
        <midiclip type="1" steps="16" name="" pos="5760" muted="0">
          <note vol="100" pos="0" pan="0" len="144" key="61"/>
          <note vol="100" pos="0" pan="0" len="108" key="57"/>
          <note vol="100" pos="0" pan="0" len="72" key="52"/>
          <note vol="100" pos="72" pan="0" len="120" key="52"/>
          <note vol="100" pos="108" pan="0" len="84" key="57"/>
          <note vol="100" pos="144" pan="0" len="48" key="61"/>
          <note vol="100" pos="192" pan="0" len="108" key="59"/>
          <note vol="100" pos="192" pan="0" len="144" key="56"/>
          <note vol="100" pos="192" pan="0" len="72" key="51"/>
          <note vol="100" pos="264" pan="0" len="120" key="51"/>
          <note vol="100" pos="300" pan="0" len="84" key="59"/>
          <note vol="100" pos="336" pan="0" len="48" key="56"/>
          <note vol="100" pos="384" pan="0" len="108" key="59"/>
          <note vol="100" pos="384" pan="0" len="72" key="54"/>
          <note vol="100" pos="384" pan="0" len="144" key="47"/>
          <note vol="100" pos="456" pan="0" len="120" key="51"/>
          <note vol="100" pos="492" pan="0" len="84" key="54"/>
          <note vol="100" pos="528" pan="0" len="48" key="59"/>
          <note vol="100" pos="576" pan="0" len="72" key="70"/>
          <note vol="100" pos="576" pan="0" len="120" key="66"/>
          <note vol="100" pos="576" pan="0" len="144" key="61"/>
          <note vol="100" pos="648" pan="0" len="120" key="70"/>
          <note vol="100" pos="696" pan="0" len="72" key="68"/>
          <note vol="100" pos="720" pan="0" len="48" key="66"/>
        </midiclip>
        <midiclip type="1" steps="16" name="" pos="4992" muted="0">
          <note vol="100" pos="0" pan="0" len="108" key="61"/>
          <note vol="100" pos="0" pan="0" len="72" key="57"/>
          <note vol="100" pos="0" pan="0" len="144" key="54"/>
          <note vol="100" pos="72" pan="0" len="120" key="57"/>
          <note vol="100" pos="108" pan="0" len="84" key="61"/>
          <note vol="100" pos="144" pan="0" len="48" key="54"/>
          <note vol="100" pos="192" pan="0" len="108" key="64"/>
          <note vol="100" pos="192" pan="0" len="72" key="56"/>
          <note vol="100" pos="192" pan="0" len="144" key="52"/>
          <note vol="100" pos="264" pan="0" len="120" key="56"/>
          <note vol="100" pos="300" pan="0" len="84" key="64"/>
          <note vol="100" pos="336" pan="0" len="48" key="52"/>
          <note vol="100" pos="384" pan="0" len="108" key="66"/>
          <note vol="100" pos="384" pan="0" len="72" key="59"/>
          <note vol="100" pos="384" pan="0" len="144" key="54"/>
          <note vol="100" pos="456" pan="0" len="120" key="56"/>
          <note vol="100" pos="492" pan="0" len="84" key="64"/>
          <note vol="100" pos="528" pan="0" len="48" key="52"/>
          <note vol="100" pos="576" pan="0" len="72" key="63"/>
          <note vol="100" pos="576" pan="0" len="120" key="59"/>
          <note vol="100" pos="576" pan="0" len="144" key="54"/>
          <note vol="100" pos="648" pan="0" len="120" key="63"/>
          <note vol="100" pos="696" pan="0" len="72" key="61"/>
          <note vol="100" pos="720" pan="0" len="48" key="59"/>
        </midiclip>
        <midiclip type="1" steps="16" name="" pos="6528" muted="0">
          <note vol="100" pos="0" pan="0" len="168" key="64"/>
          <note vol="100" pos="0" pan="0" len="120" key="61"/>
          <note vol="100" pos="0" pan="0" len="72" key="57"/>
          <note vol="100" pos="72" pan="0" len="120" key="57"/>
          <note vol="100" pos="120" pan="0" len="72" key="61"/>
          <note vol="100" pos="168" pan="0" len="24" key="64"/>
          <note vol="100" pos="192" pan="0" len="168" key="64"/>
          <note vol="100" pos="192" pan="0" len="120" key="61"/>
          <note vol="100" pos="192" pan="0" len="72" key="59"/>
          <note vol="100" pos="264" pan="0" len="120" key="59"/>
          <note vol="100" pos="312" pan="0" len="72" key="61"/>
          <note vol="100" pos="360" pan="0" len="24" key="64"/>
          <note vol="100" pos="384" pan="0" len="120" key="63"/>
          <note vol="100" pos="384" pan="0" len="72" key="59"/>
          <note vol="100" pos="384" pan="0" len="144" key="54"/>
          <note vol="100" pos="456" pan="0" len="96" key="59"/>
          <note vol="100" pos="504" pan="0" len="72" key="63"/>
          <note vol="100" pos="528" pan="0" len="48" key="54"/>
          <note vol="100" pos="552" pan="0" len="24" key="61"/>
          <note vol="100" pos="576" pan="0" len="120" key="66"/>
          <note vol="100" pos="576" pan="0" len="72" key="61"/>
          <note vol="100" pos="576" pan="0" len="168" key="58"/>
          <note vol="100" pos="648" pan="0" len="120" key="61"/>
          <note vol="100" pos="696" pan="0" len="72" key="66"/>
          <note vol="100" pos="744" pan="0" len="24" key="58"/>
        </midiclip>
        <midiclip type="1" steps="16" name="" pos="8448" muted="0">
          <note vol="100" pos="0" pan="0" len="96" key="54"/>
          <note vol="100" pos="24" pan="0" len="72" key="57"/>
          <note vol="100" pos="48" pan="0" len="48" key="61"/>
          <note vol="100" pos="72" pan="0" len="24" key="64"/>
          <note vol="100" pos="96" pan="0" len="48" key="66"/>
          <note vol="100" pos="120" pan="0" len="72" key="69"/>
          <note vol="100" pos="144" pan="0" len="48" key="66"/>
          <note vol="100" pos="168" pan="0" len="24" key="61"/>
          <note vol="100" pos="192" pan="0" len="96" key="57"/>
          <note vol="100" pos="216" pan="0" len="72" key="54"/>
          <note vol="100" pos="240" pan="0" len="48" key="49"/>
          <note vol="100" pos="264" pan="0" len="24" key="52"/>
          <note vol="100" pos="288" pan="0" len="96" key="54"/>
          <note vol="100" pos="312" pan="0" len="72" key="56"/>
          <note vol="100" pos="336" pan="0" len="48" key="57"/>
          <note vol="100" pos="360" pan="0" len="24" key="61"/>
        </midiclip>
        <midiclip type="1" steps="16" name="" pos="9216" muted="0">
          <note vol="100" pos="0" pan="0" len="96" key="50"/>
          <note vol="100" pos="24" pan="0" len="72" key="54"/>
          <note vol="100" pos="48" pan="0" len="48" key="57"/>
          <note vol="100" pos="72" pan="0" len="24" key="61"/>
          <note vol="100" pos="96" pan="0" len="48" key="64"/>
          <note vol="100" pos="120" pan="0" len="72" key="66"/>
          <note vol="100" pos="144" pan="0" len="48" key="64"/>
          <note vol="100" pos="168" pan="0" len="24" key="57"/>
          <note vol="100" pos="192" pan="0" len="96" key="54"/>
          <note vol="100" pos="216" pan="0" len="72" key="50"/>
          <note vol="100" pos="240" pan="0" len="48" key="45"/>
          <note vol="100" pos="264" pan="0" len="24" key="49"/>
          <note vol="100" pos="288" pan="0" len="96" key="50"/>
          <note vol="100" pos="312" pan="0" len="72" key="52"/>
          <note vol="100" pos="336" pan="0" len="48" key="54"/>
          <note vol="100" pos="360" pan="0" len="24" key="57"/>
        </midiclip>
        <midiclip type="1" steps="16" name="" pos="768" muted="0">
          <note vol="100" pos="0" pan="0" len="192" key="54"/>
          <note vol="100" pos="96" pan="0" len="192" key="57"/>
          <note vol="100" pos="192" pan="0" len="192" key="62"/>
          <note vol="100" pos="240" pan="0" len="192" key="64"/>
          <note vol="100" pos="336" pan="0" len="192" key="59"/>
          <note vol="100" pos="384" pan="0" len="192" key="61"/>
          <note vol="100" pos="480" pan="0" len="192" key="49"/>
          <note vol="100" pos="576" pan="0" len="144" key="52"/>
          <note vol="100" pos="672" pan="0" len="96" key="56"/>
          <note vol="100" pos="720" pan="0" len="48" key="52"/>
          <note vol="100" pos="768" pan="0" len="192" key="69"/>
          <note vol="100" pos="768" pan="0" len="192" key="66"/>
          <note vol="100" pos="768" pan="0" len="168" key="62"/>
          <note vol="100" pos="768" pan="0" len="192" key="59"/>
          <note vol="100" pos="864" pan="0" len="96" key="50"/>
          <note vol="100" pos="888" pan="0" len="72" key="54"/>
          <note vol="100" pos="912" pan="0" len="48" key="57"/>
          <note vol="100" pos="936" pan="0" len="24" key="62"/>
          <note vol="100" pos="960" pan="0" len="192" key="73"/>
          <note vol="100" pos="960" pan="0" len="192" key="68"/>
          <note vol="100" pos="960" pan="0" len="192" key="65"/>
          <note vol="100" pos="960" pan="0" len="96" key="61"/>
          <note vol="100" pos="1032" pan="0" len="12" key="53"/>
          <note vol="100" pos="1044" pan="0" len="12" key="56"/>
          <note vol="100" pos="1056" pan="0" len="96" key="61"/>
          <note vol="100" pos="1080" pan="0" len="72" key="56"/>
          <note vol="100" pos="1104" pan="0" len="48" key="53"/>
          <note vol="100" pos="1128" pan="0" len="24" key="49"/>
          <note vol="100" pos="1152" pan="0" len="192" key="66"/>
          <note vol="100" pos="1152" pan="0" len="192" key="64"/>
          <note vol="100" pos="1152" pan="0" len="192" key="61"/>
          <note vol="100" pos="1152" pan="0" len="192" key="57"/>
          <note vol="100" pos="1224" pan="0" len="24" key="45"/>
          <note vol="100" pos="1248" pan="0" len="96" key="42"/>
          <note vol="100" pos="1272" pan="0" len="72" key="49"/>
          <note vol="100" pos="1296" pan="0" len="48" key="52"/>
          <note vol="100" pos="1320" pan="0" len="24" key="56"/>
          <note vol="100" pos="1344" pan="0" len="192" key="59"/>
          <note vol="100" pos="1344" pan="0" len="192" key="57"/>
          <note vol="100" pos="1344" pan="0" len="192" key="54"/>
          <note vol="100" pos="1344" pan="0" len="192" key="51"/>
          <note vol="100" pos="1416" pan="0" len="12" key="63"/>
          <note vol="100" pos="1428" pan="0" len="12" key="69"/>
          <note vol="100" pos="1440" pan="0" len="96" key="75"/>
          <note vol="100" pos="1464" pan="0" len="72" key="73"/>
          <note vol="100" pos="1488" pan="0" len="48" key="71"/>
          <note vol="100" pos="1512" pan="0" len="24" key="66"/>
          <note vol="100" pos="1536" pan="0" len="192" key="62"/>
          <note vol="100" pos="1536" pan="0" len="168" key="57"/>
          <note vol="100" pos="1536" pan="0" len="144" key="54"/>
          <note vol="100" pos="1536" pan="0" len="120" key="50"/>
          <note vol="100" pos="1608" pan="0" len="24" key="42"/>
          <note vol="100" pos="1632" pan="0" len="96" key="45"/>
          <note vol="100" pos="1656" pan="0" len="72" key="50"/>
          <note vol="100" pos="1680" pan="0" len="48" key="54"/>
          <note vol="100" pos="1704" pan="0" len="24" key="57"/>
          <note vol="100" pos="1728" pan="0" len="192" key="64"/>
          <note vol="100" pos="1728" pan="0" len="192" key="61"/>
          <note vol="100" pos="1728" pan="0" len="192" key="59"/>
          <note vol="100" pos="1728" pan="0" len="144" key="56"/>
          <note vol="100" pos="1800" pan="0" len="24" key="52"/>
          <note vol="100" pos="1824" pan="0" len="96" key="49"/>
          <note vol="100" pos="1848" pan="0" len="72" key="52"/>
          <note vol="100" pos="1872" pan="0" len="48" key="56"/>
          <note vol="100" pos="1896" pan="0" len="24" key="57"/>
          <note vol="100" pos="1920" pan="0" len="576" key="61"/>
          <note vol="100" pos="1920" pan="0" len="576" key="57"/>
          <note vol="100" pos="1920" pan="0" len="576" key="56"/>
          <note vol="100" pos="1920" pan="0" len="144" key="54"/>
          <note vol="100" pos="2064" pan="0" len="432" key="54"/>
        </midiclip>
        <midiclip type="1" steps="16" name="" pos="8832" muted="0">
          <note vol="100" pos="0" pan="0" len="96" key="54"/>
          <note vol="100" pos="24" pan="0" len="72" key="57"/>
          <note vol="100" pos="48" pan="0" len="48" key="61"/>
          <note vol="100" pos="72" pan="0" len="24" key="64"/>
          <note vol="100" pos="96" pan="0" len="48" key="66"/>
          <note vol="100" pos="120" pan="0" len="72" key="69"/>
          <note vol="100" pos="144" pan="0" len="48" key="66"/>
          <note vol="100" pos="168" pan="0" len="24" key="61"/>
          <note vol="100" pos="192" pan="0" len="96" key="57"/>
          <note vol="100" pos="216" pan="0" len="72" key="54"/>
          <note vol="100" pos="240" pan="0" len="48" key="49"/>
          <note vol="100" pos="264" pan="0" len="24" key="52"/>
          <note vol="100" pos="288" pan="0" len="96" key="54"/>
          <note vol="100" pos="312" pan="0" len="72" key="56"/>
          <note vol="100" pos="336" pan="0" len="48" key="57"/>
          <note vol="100" pos="360" pan="0" len="24" key="61"/>
        </midiclip>
        <midiclip type="1" steps="16" name="" pos="9600" muted="0">
          <note vol="100" pos="0" pan="0" len="96" key="50"/>
          <note vol="100" pos="24" pan="0" len="72" key="54"/>
          <note vol="100" pos="48" pan="0" len="48" key="57"/>
          <note vol="100" pos="72" pan="0" len="24" key="61"/>
          <note vol="100" pos="96" pan="0" len="48" key="64"/>
          <note vol="100" pos="120" pan="0" len="72" key="66"/>
          <note vol="100" pos="144" pan="0" len="48" key="64"/>
          <note vol="100" pos="168" pan="0" len="24" key="57"/>
          <note vol="100" pos="192" pan="0" len="96" key="54"/>
          <note vol="100" pos="216" pan="0" len="72" key="50"/>
          <note vol="100" pos="240" pan="0" len="48" key="45"/>
          <note vol="100" pos="264" pan="0" len="24" key="49"/>
          <note vol="100" pos="288" pan="0" len="96" key="50"/>
          <note vol="100" pos="312" pan="0" len="72" key="52"/>
          <note vol="100" pos="336" pan="0" len="48" key="54"/>
          <note vol="100" pos="360" pan="0" len="24" key="57"/>
        </midiclip>
        <midiclip type="1" steps="16" name="" pos="9984" muted="0">
          <note vol="100" pos="0" pan="0" len="96" key="54"/>
          <note vol="100" pos="24" pan="0" len="72" key="57"/>
          <note vol="100" pos="48" pan="0" len="48" key="61"/>
          <note vol="100" pos="72" pan="0" len="24" key="64"/>
          <note vol="100" pos="96" pan="0" len="48" key="66"/>
          <note vol="100" pos="120" pan="0" len="72" key="69"/>
          <note vol="100" pos="144" pan="0" len="48" key="66"/>
          <note vol="100" pos="168" pan="0" len="24" key="61"/>
          <note vol="100" pos="192" pan="0" len="96" key="57"/>
          <note vol="100" pos="216" pan="0" len="72" key="54"/>
          <note vol="100" pos="240" pan="0" len="48" key="49"/>
          <note vol="100" pos="264" pan="0" len="24" key="52"/>
          <note vol="100" pos="288" pan="0" len="96" key="54"/>
          <note vol="100" pos="312" pan="0" len="72" key="56"/>
          <note vol="100" pos="336" pan="0" len="48" key="57"/>
          <note vol="100" pos="360" pan="0" len="24" key="61"/>
        </midiclip>
        <midiclip type="1" steps="16" name="" pos="10752" muted="0">
          <note vol="100" pos="0" pan="0" len="96" key="50"/>
          <note vol="100" pos="24" pan="0" len="72" key="54"/>
          <note vol="100" pos="48" pan="0" len="48" key="57"/>
          <note vol="100" pos="72" pan="0" len="24" key="61"/>
          <note vol="100" pos="96" pan="0" len="48" key="64"/>
          <note vol="100" pos="120" pan="0" len="72" key="66"/>
          <note vol="100" pos="144" pan="0" len="48" key="64"/>
          <note vol="100" pos="168" pan="0" len="24" key="57"/>
          <note vol="100" pos="192" pan="0" len="96" key="54"/>
          <note vol="100" pos="216" pan="0" len="72" key="50"/>
          <note vol="100" pos="240" pan="0" len="48" key="45"/>
          <note vol="100" pos="264" pan="0" len="24" key="49"/>
          <note vol="100" pos="288" pan="0" len="96" key="50"/>
          <note vol="100" pos="312" pan="0" len="72" key="52"/>
          <note vol="100" pos="336" pan="0" len="48" key="54"/>
          <note vol="100" pos="360" pan="0" len="24" key="57"/>
        </midiclip>
        <midiclip type="1" steps="16" name="" pos="10368" muted="0">
          <note vol="100" pos="0" pan="0" len="96" key="54"/>
          <note vol="100" pos="24" pan="0" len="72" key="57"/>
          <note vol="100" pos="48" pan="0" len="48" key="61"/>
          <note vol="100" pos="72" pan="0" len="24" key="64"/>
          <note vol="100" pos="96" pan="0" len="48" key="66"/>
          <note vol="100" pos="120" pan="0" len="72" key="69"/>
          <note vol="100" pos="144" pan="0" len="48" key="66"/>
          <note vol="100" pos="168" pan="0" len="24" key="61"/>
          <note vol="100" pos="192" pan="0" len="96" key="57"/>
          <note vol="100" pos="216" pan="0" len="72" key="54"/>
          <note vol="100" pos="240" pan="0" len="48" key="49"/>
          <note vol="100" pos="264" pan="0" len="24" key="52"/>
          <note vol="100" pos="288" pan="0" len="96" key="54"/>
          <note vol="100" pos="312" pan="0" len="72" key="56"/>
          <note vol="100" pos="336" pan="0" len="48" key="57"/>
          <note vol="100" pos="360" pan="0" len="24" key="61"/>
        </midiclip>
        <midiclip type="1" steps="16" name="" pos="11136" muted="0">
          <note vol="100" pos="0" pan="0" len="96" key="50"/>
          <note vol="100" pos="24" pan="0" len="72" key="54"/>
          <note vol="100" pos="48" pan="0" len="48" key="57"/>
          <note vol="100" pos="72" pan="0" len="24" key="61"/>
          <note vol="100" pos="96" pan="0" len="48" key="64"/>
          <note vol="100" pos="120" pan="0" len="72" key="66"/>
          <note vol="100" pos="144" pan="0" len="48" key="64"/>
          <note vol="100" pos="168" pan="0" len="24" key="57"/>
          <note vol="100" pos="192" pan="0" len="96" key="54"/>
          <note vol="100" pos="216" pan="0" len="72" key="50"/>
          <note vol="100" pos="240" pan="0" len="48" key="45"/>
          <note vol="100" pos="264" pan="0" len="24" key="49"/>
          <note vol="100" pos="288" pan="0" len="96" key="50"/>
          <note vol="100" pos="312" pan="0" len="72" key="52"/>
          <note vol="100" pos="336" pan="0" len="48" key="54"/>
          <note vol="100" pos="360" pan="0" len="24" key="57"/>
        </midiclip>
        <midiclip type="1" steps="16" name="" pos="8064" muted="0">
          <note vol="100" pos="0" pan="0" len="384" key="66"/>
          <note vol="100" pos="0" pan="0" len="384" key="61"/>
          <note vol="100" pos="0" pan="0" len="288" key="57"/>
          <note vol="100" pos="192" pan="0" len="192" key="54"/>
          <note vol="100" pos="288" pan="0" len="96" key="57"/>
        </midiclip>
        <midiclip type="1" steps="16" name="" pos="7296" muted="0">
          <note vol="100" pos="0" pan="0" len="168" key="64"/>
          <note vol="100" pos="0" pan="0" len="120" key="61"/>
          <note vol="100" pos="0" pan="0" len="72" key="57"/>
          <note vol="100" pos="72" pan="0" len="120" key="57"/>
          <note vol="100" pos="120" pan="0" len="72" key="61"/>
          <note vol="100" pos="168" pan="0" len="24" key="64"/>
          <note vol="100" pos="192" pan="0" len="168" key="64"/>
          <note vol="100" pos="192" pan="0" len="120" key="61"/>
          <note vol="100" pos="192" pan="0" len="72" key="59"/>
          <note vol="100" pos="264" pan="0" len="120" key="59"/>
          <note vol="100" pos="312" pan="0" len="72" key="61"/>
          <note vol="100" pos="360" pan="0" len="24" key="64"/>
          <note vol="100" pos="384" pan="0" len="120" key="63"/>
          <note vol="100" pos="384" pan="0" len="72" key="59"/>
          <note vol="100" pos="384" pan="0" len="144" key="54"/>
          <note vol="100" pos="456" pan="0" len="96" key="59"/>
          <note vol="100" pos="504" pan="0" len="72" key="63"/>
          <note vol="100" pos="528" pan="0" len="48" key="54"/>
          <note vol="100" pos="552" pan="0" len="24" key="57"/>
          <note vol="100" pos="576" pan="0" len="72" key="61"/>
          <note vol="100" pos="576" pan="0" len="144" key="57"/>
          <note vol="100" pos="576" pan="0" len="120" key="52"/>
          <note vol="100" pos="648" pan="0" len="120" key="66"/>
          <note vol="100" pos="696" pan="0" len="72" key="59"/>
          <note vol="100" pos="720" pan="0" len="48" key="61"/>
          <note vol="100" pos="744" pan="0" len="24" key="64"/>
        </midiclip>
      </track>
      <track type="5" solo="0" mutedBeforeSolo="0" name="Guitar>Volume" muted="0">
        <automationtrack/>
        <automationclip name="Guitar>Texture>Volume" pos="0" prog="0" len="192" tens="1" mute="0">
          <time outValue="100" pos="0" value="100"/>
          <object id="1541"/>
          <object id="23592"/>
        </automationclip>
        <automationclip name="Guitar>Texture>Volume" pos="8064" prog="1" len="384" tens="1" mute="0">
          <time outValue="100" pos="0" value="100"/>
          <time outValue="60" pos="288" value="60"/>
          <time outValue="75" pos="384" value="75"/>
          <object id="1541"/>
          <object id="23592"/>
        </automationclip>
      </track>
      <track type="0" solo="0" mutedBeforeSolo="0" name="Bass" muted="0">
        <instrumenttrack range_import="1" enablecc="0" scale="0" vol="100" enabled="0" basenote="57" mixch="4" usemasterpitch="1" pan="0" lastkey="127" pitch="0" pitchrange="1" keymap="0" firstkey="0">
          <midicontrollers cc32="0" cc52="0" cc91="0" cc71="0" cc57="0" cc75="0" cc84="0" cc13="0" cc122="0" cc106="0" cc27="0" cc14="0" cc5="0" cc59="0" cc76="0" cc110="0" cc40="0" cc97="0" cc49="0" cc112="0" cc62="0" cc124="0" cc37="0" cc64="0" cc66="0" cc35="0" cc58="0" cc78="0" cc85="0" cc24="0" cc123="0" cc6="0" cc125="0" cc69="0" cc23="0" cc98="0" cc95="0" cc15="0" cc127="0" cc4="0" cc111="0" cc61="0" cc109="0" cc53="0" cc29="0" cc41="0" cc17="0" cc83="0" cc19="0" cc31="0" cc94="0" cc11="0" cc46="0" cc51="0" cc101="0" cc60="0" cc56="0" cc119="0" cc88="0" cc34="0" cc39="0" cc44="0" cc115="0" cc42="0" cc28="0" cc26="0" cc100="0" cc12="0" cc121="0" cc48="0" cc33="0" cc8="0" cc114="0" cc7="0" cc92="0" cc120="0" cc82="0" cc74="0" cc0="0" cc55="0" cc67="0" cc103="0" cc54="0" cc72="0" cc104="0" cc81="0" cc102="0" cc30="0" cc47="0" cc113="0" cc118="0" cc89="0" cc45="0" cc38="0" cc9="0" cc77="0" cc105="0" cc36="0" cc25="0" cc63="0" cc117="0" cc1="0" cc68="0" cc21="0" cc99="0" cc65="0" cc107="0" cc79="0" cc87="0" cc116="0" cc86="0" cc108="0" cc70="0" cc80="0" cc20="0" cc90="0" cc126="0" cc16="0" cc22="0" cc96="0" cc18="0" cc10="0" cc2="0" cc43="0" cc93="0" cc50="0" cc3="0" cc73="0"/>
          <instrument name="vestige">
            <vestige plugin="uservst:Instruments/basscruncher/basscruncher.dll" guivisible="0" program="0" chunk="zgANACsAAACFQAAAlC0AAD0FAACQTgAAgkkAAJ0eAADjFQAArHcAAJlYAADdYgAA1BkAAL8RAAAAAAAArxkAAOklAAD/CwAA+i8AAC9cAAAtCQAA1TgAANBtAACKEQAAeGQAAHAaAACQbwAAAgYAAJFsAABvOgAA9VoAAD0ZAACCLAAAOXgAALYcAACqAQAA1A8AAOEhAABPDwAAtW4AAKFhAABFJgAAVE0AAJ1CAAAgDwAAgAAAAP/+/wlQAGEAdABjAGgAIAAgACAAMQD//v8JUABhAHQAYwBoACAAIAAgADIA//7/CVAAYQB0AGMAaAAgACAAIAAzAP/+/wlQAGEAdABjAGgAIAAgACAANAD//v8JUABhAHQAYwBoACAAIAAgADUA//7/CVAAYQB0AGMAaAAgACAAIAA2AP/+/wlQAGEAdABjAGgAIAAgACAANwD//v8JUABhAHQAYwBoACAAIAAgADgA//7/CVAAYQB0AGMAaAAgACAAIAA5AP/+/wlQAGEAdABjAGgAIAAgADEAMAD//v8JUABhAHQAYwBoACAAIAAxADEA//7/CVAAYQB0AGMAaAAgACAAMQAyAP/+/wlQAGEAdABjAGgAIAAgADEAMwD//v8JUABhAHQAYwBoACAAIAAxADQA//7/CVAAYQB0AGMAaAAgACAAMQA1AP/+/wlQAGEAdABjAGgAIAAgADEANgD//v8JUABhAHQAYwBoACAAIAAxADcA//7/CVAAYQB0AGMAaAAgACAAMQA4AP/+/wlQAGEAdABjAGgAIAAgADEAOQD//v8JUABhAHQAYwBoACAAIAAyADAA//7/CVAAYQB0AGMAaAAgACAAMgAxAP/+/wlQAGEAdABjAGgAIAAgADIAMgD//v8JUABhAHQAYwBoACAAIAAyADMA//7/CVAAYQB0AGMAaAAgACAAMgA0AP/+/wlQAGEAdABjAGgAIAAgADIANQD//v8JUABhAHQAYwBoACAAIAAyADYA//7/CVAAYQB0AGMAaAAgACAAMgA3AP/+/wlQAGEAdABjAGgAIAAgADIAOAD//v8JUABhAHQAYwBoACAAIAAyADkA//7/CVAAYQB0AGMAaAAgACAAMwAwAP/+/wlQAGEAdABjAGgAIAAgADMAMQD//v8JUABhAHQAYwBoACAAIAAzADIA//7/CVAAYQB0AGMAaAAgACAAMwAzAP/+/wlQAGEAdABjAGgAIAAgADMANAD//v8JUABhAHQAYwBoACAAIAAzADUA//7/CVAAYQB0AGMAaAAgACAAMwA2AP/+/wlQAGEAdABjAGgAIAAgADMANwD//v8JUABhAHQAYwBoACAAIAAzADgA//7/CVAAYQB0AGMAaAAgACAAMwA5AP/+/wlQAGEAdABjAGgAIAAgADQAMAD//v8JUABhAHQAYwBoACAAIAA0ADEA//7/CVAAYQB0AGMAaAAgACAANAAyAP/+/wlQAGEAdABjAGgAIAAgADQAMwD//v8JUABhAHQAYwBoACAAIAA0ADQA//7/CVAAYQB0AGMAaAAgACAANAA1AP/+/wlQAGEAdABjAGgAIAAgADQANgD//v8JUABhAHQAYwBoACAAIAA0ADcA//7/CVAAYQB0AGMAaAAgACAANAA4AP/+/wlQAGEAdABjAGgAIAAgADQAOQD//v8JUABhAHQAYwBoACAAIAA1ADAA//7/CVAAYQB0AGMAaAAgACAANQAxAP/+/wlQAGEAdABjAGgAIAAgADUAMgD//v8JUABhAHQAYwBoACAAIAA1ADMA//7/CVAAYQB0AGMAaAAgACAANQA0AP/+/wlQAGEAdABjAGgAIAAgADUANQD//v8JUABhAHQAYwBoACAAIAA1ADYA//7/CVAAYQB0AGMAaAAgACAANQA3AP/+/wlQAGEAdABjAGgAIAAgADUAOAD//v8JUABhAHQAYwBoACAAIAA1ADkA//7/CVAAYQB0AGMAaAAgACAANgAwAP/+/wlQAGEAdABjAGgAIAAgADYAMQD//v8JUABhAHQAYwBoACAAIAA2ADIA//7/CVAAYQB0AGMAaAAgACAANgAzAP/+/wlQAGEAdABjAGgAIAAgADYANAD//v8JUABhAHQAYwBoACAAIAA2ADUA//7/CVAAYQB0AGMAaAAgACAANgA2AP/+/wlQAGEAdABjAGgAIAAgADYANwD//v8JUABhAHQAYwBoACAAIAA2ADgA//7/CVAAYQB0AGMAaAAgACAANgA5AP/+/wlQAGEAdABjAGgAIAAgADcAMAD//v8JUABhAHQAYwBoACAAIAA3ADEA//7/CVAAYQB0AGMAaAAgACAANwAyAP/+/wlQAGEAdABjAGgAIAAgADcAMwD//v8JUABhAHQAYwBoACAAIAA3ADQA//7/CVAAYQB0AGMAaAAgACAANwA1AP/+/wlQAGEAdABjAGgAIAAgADcANgD//v8JUABhAHQAYwBoACAAIAA3ADcA//7/CVAAYQB0AGMAaAAgACAANwA4AP/+/wlQAGEAdABjAGgAIAAgADcAOQD//v8JUABhAHQAYwBoACAAIAA4ADAA//7/CVAAYQB0AGMAaAAgACAAOAAxAP/+/wlQAGEAdABjAGgAIAAgADgAMgD//v8JUABhAHQAYwBoACAAIAA4ADMA//7/CVAAYQB0AGMAaAAgACAAOAA0AP/+/wlQAGEAdABjAGgAIAAgADgANQD//v8JUABhAHQAYwBoACAAIAA4ADYA//7/CVAAYQB0AGMAaAAgACAAOAA3AP/+/wlQAGEAdABjAGgAIAAgADgAOAD//v8JUABhAHQAYwBoACAAIAA4ADkA//7/CVAAYQB0AGMAaAAgACAAOQAwAP/+/wlQAGEAdABjAGgAIAAgADkAMQD//v8JUABhAHQAYwBoACAAIAA5ADIA//7/CVAAYQB0AGMAaAAgACAAOQAzAP/+/wlQAGEAdABjAGgAIAAgADkANAD//v8JUABhAHQAYwBoACAAIAA5ADUA//7/CVAAYQB0AGMAaAAgACAAOQA2AP/+/wlQAGEAdABjAGgAIAAgADkANwD//v8JUABhAHQAYwBoACAAIAA5ADgA//7/CVAAYQB0AGMAaAAgACAAOQA5AP/+/wlQAGEAdABjAGgAIAAxADAAMAD//v8JUABhAHQAYwBoACAAMQAwADEA//7/CVAAYQB0AGMAaAAgADEAMAAyAP/+/wlQAGEAdABjAGgAIAAxADAAMwD//v8JUABhAHQAYwBoACAAMQAwADQA//7/CVAAYQB0AGMAaAAgADEAMAA1AP/+/wlQAGEAdABjAGgAIAAxADAANgD//v8JUABhAHQAYwBoACAAMQAwADcA//7/CVAAYQB0AGMAaAAgADEAMAA4AP/+/wlQAGEAdABjAGgAIAAxADAAOQD//v8JUABhAHQAYwBoACAAMQAxADAA//7/CVAAYQB0AGMAaAAgADEAMQAxAP/+/wlQAGEAdABjAGgAIAAxADEAMgD//v8JUABhAHQAYwBoACAAMQAxADMA//7/CVAAYQB0AGMAaAAgADEAMQA0AP/+/wlQAGEAdABjAGgAIAAxADEANQD//v8JUABhAHQAYwBoACAAMQAxADYA//7/CVAAYQB0AGMAaAAgADEAMQA3AP/+/wlQAGEAdABjAGgAIAAxADEAOAD//v8JUABhAHQAYwBoACAAMQAxADkA//7/CVAAYQB0AGMAaAAgADEAMgAwAP/+/wlQAGEAdABjAGgAIAAxADIAMQD//v8JUABhAHQAYwBoACAAMQAyADIA//7/CVAAYQB0AGMAaAAgADEAMgAzAP/+/wlQAGEAdABjAGgAIAAxADIANAD//v8JUABhAHQAYwBoACAAMQAyADUA//7/CVAAYQB0AGMAaAAgADEAMgA2AP/+/wlQAGEAdABjAGgAIAAxADIANwD//v8JUABhAHQAYwBoACAAMQAyADgABgAAAIAAAAD8/4dAAAAAAAAAAAAAAAAAAAAAAAAAAAAAAAAAAAAAAAAAAAAAAAAAAAAAAAAAAAAAAAAAAAAAAAAAAAAAAAAAAAAAAAAAAAAAAAAAAAAAAAAAAAAAAAAAAAAAAAAAAAAAAAAAAAAAAAAAAAAAAAAAAAAAAAAAAAAAAAAAAAAAAAAAAAAAAAAAAAAAAAAAAAAAAAAAAAAAAAAAAAAAAAAAAAAAAAAAAAAAAAAAAAAAAAAAAAAAAAAAAAAAAAAAAAAAAAAAAAAAAAAAAAAAAAAAAAAAAAAAAAAAAAAAAAAAAAAAAAAAAAAAAAAAAAAAAAAAAAAAAAAAAAAAAAAAAAAAAAAAAAAAAAAAAAAAAAAAAAAAAAAAAAAAAAAAAAAAAAAAAAAAAAAAAAAAAAAAAAAAAAAAAAAAAAAAAAAAAAAAAAAAAAAAAAAAAAAAAAAAAAAAAAAAAAAAAAAAAAAAAAAAAAAAAAAAAAAAAAAAAAAAAAAAAAAAAAAAAAAAAAAAAAAAAAAAAAAAAAAAAAAAAAAAAAAAAAAAAAAAAAAAAAAAAAAAAAAAAAAAAAAAAAAAAAAAAAAAAAAAAAAAAAAAAAAAAAAAAAAAAAAAAAAAAAAAAAAAAAAAAAAAAAAAAAAAAAAAAAAAAAAAAAAAAAAAAAAAAAAAAAAAAAAAAAAAAAAAAP///////v8AAAAAAIAAAAAAAAAAAAAAAAAAAAAAAAAAAAAAAAAAAAAAAAAAAAAAAAAAAAAAAAAAAAAAAAAAAAAAAAAAAAAAAAAAAAAAAAAAAAAAAAAAAAAAAAAAAAAAAAAAAAAAAAAAAAAAAAAAAAAAAAAAAAAAAAAAAAAAAAAAAAAAAAAAAAAAAAAAAAAAAAAAAAAAAAAAAAAAAAAAAAAAAAAAAAAAAAAAAAAAAAAAAAAAAAAAAAAAAAAAAAAAAAAAAAAAAAAAAAAAAAAAAAAAAAAAAAAAAAAAAAAAAAAAAAAAAAAAAAAAAAAAAAAAAAAAAAAAAAAAAAAAAAAAAAAAAAAAAAAAAAAAAAAAAAAAAAAAAAAAAAAAAAAAAAAAAAAAAAAAAAAAAAAAAAAAAAAAAAAAAAAAAAAAAAAAAAAAAAAAAAAAAAAAAAAAAAAAAAAAAAAAAAAAAAAAAAAAAAAAAAAAAAAAAAAAAAAAAAAAAAAAAAAAAAAAAAAAAAAAAAAAAAAAAAAAAAAAAAAAAAAAAAAAAAAAAAAAAAAAAAAAAAAAAAAAAAAAAAAAAAAAAAAAAAAAAAAAAAAAAAAAAAAAAAAAAAAAAAAAAAAAAAAAAAAAAAAAAAAAAAAAAAAAAAAAAAAAAAAAAAAAAAAAAAAAAAAAAAAAAAAAAAAAAAAAAAAAAAAAAAAAAAAAAAAAAP///////v8ABgAAAAEAAAAAAAAA///////+/wAGAAAAgAAAAMbM5EAAAAAAAAAAAAAAAAAAAAAAAAAAAAAAAAAAAAAAAAAAAAAAAAAAAAAAAAAAAAAAAAAAAAAAAAAAAAAAAAAAAAAAAAAAAAAAAAAAAAAAAAAAAAAAAAAAAAAAAAAAAAAAAAAAAAAAAAAAAAAAAAAAAAAAAAAAAAAAAAAAAAAAAAAAAAAAAAAAAAAAAAAAAAAAAAAAAAAAAAAAAAAAAAAAAAAAAAAAAAAAAAAAAAAAAAAAAAAAAAAAAAAAAAAAAAAAAAAAAAAAAAAAAAAAAAAAAAAAAAAAAAAAAAAAAAAAAAAAAAAAAAAAAAAAAAAAAAAAAAAAAAAAAAAAAAAAAAAAAAAAAAAAAAAAAAAAAAAAAAAAAAAAAAAAAAAAAAAAAAAAAAAAAAAAAAAAAAAAAAAAAAAAAAAAAAAAAAAAAAAAAAAAAAAAAAAAAAAAAAAAAAAAAAAAAAAAAAAAAAAAAAAAAAAAAAAAAAAAAAAAAAAAAAAAAAAAAAAAAAAAAAAAAAAAAAAAAAAAAAAAAAAAAAAAAAAAAAAAAAAAAAAAAAAAAAAAAAAAAAAAAAAAAAAAAAAAAAAAAAAAAAAAAAAAAAAAAAAAAAAAAAAAAAAAAAAAAAAAAAAAAAAAAAAAAAAAAAAAAAAAAAAAAAAAAAAAAAAAAAAAAAAAAAAAAAAAAAAA///////+/wAGAAAAgAAAAAAAIEEAAAAAAAAAAAAAAAAAAAAAAAAAAAAAAAAAAAAAAAAAAAAAAAAAAAAAAAAAAAAAAAAAAAAAAAAAAAAAAAAAAAAAAAAAAAAAAAAAAAAAAAAAAAAAAAAAAAAAAAAAAAAAAAAAAAAAAAAAAAAAAAAAAAAAAAAAAAAAAAAAAAAAAAAAAAAAAAAAAAAAAAAAAAAAAAAAAAAAAAAAAAAAAAAAAAAAAAAAAAAAAAAAAAAAAAAAAAAAAAAAAAAAAAAAAAAAAAAAAAAAAAAAAAAAAAAAAAAAAAAAAAAAAAAAAAAAAAAAAAAAAAAAAAAAAAAAAAAAAAAAAAAAAAAAAAAAAAAAAAAAAAAAAAAAAAAAAAAAAAAAAAAAAAAAAAAAAAAAAAAAAAAAAAAAAAAAAAAAAAAAAAAAAAAAAAAAAAAAAAAAAAAAAAAAAAAAAAAAAAAAAAAAAAAAAAAAAAAAAAAAAAAAAAAAAAAAAAAAAAAAAAAAAAAAAAAAAAAAAAAAAAAAAAAAAAAAAAAAAAAAAAAAAAAAAAAAAAAAAAAAAAAAAAAAAAAAAAAAAAAAAAAAAAAAAAAAAAAAAAAAAAAAAAAAAAAAAAAAAAAAAAAAAAAAAAAAAAAAAAAAAAAAAAAAAAAAAAAAAAAAAAAAAAAAAAAAAAAAAAAAAAAAAAAAAAAAAAAA///////+/wAGAAAAgAAAAAAAoMAAAAAAAAAAAAAAAAAAAAAAAAAAAAAAAAAAAAAAAAAAAAAAAAAAAAAAAAAAAAAAAAAAAAAAAAAAAAAAAAAAAAAAAAAAAAAAAAAAAAAAAAAAAAAAAAAAAAAAAAAAAAAAAAAAAAAAAAAAAAAAAAAAAAAAAAAAAAAAAAAAAAAAAAAAAAAAAAAAAAAAAAAAAAAAAAAAAAAAAAAAAAAAAAAAAAAAAAAAAAAAAAAAAAAAAAAAAAAAAAAAAAAAAAAAAAAAAAAAAAAAAAAAAAAAAAAAAAAAAAAAAAAAAAAAAAAAAAAAAAAAAAAAAAAAAAAAAAAAAAAAAAAAAAAAAAAAAAAAAAAAAAAAAAAAAAAAAAAAAAAAAAAAAAAAAAAAAAAAAAAAAAAAAAAAAAAAAAAAAAAAAAAAAAAAAAAAAAAAAAAAAAAAAAAAAAAAAAAAAAAAAAAAAAAAAAAAAAAAAAAAAAAAAAAAAAAAAAAAAAAAAAAAAAAAAAAAAAAAAAAAAAAAAAAAAAAAAAAAAAAAAAAAAAAAAAAAAAAAAAAAAAAAAAAAAAAAAAAAAAAAAAAAAAAAAAAAAAAAAAAAAAAAAAAAAAAAAAAAAAAAAAAAAAAAAAAAAAAAAAAAAAAAAAAAAAAAAAAAAAAAAAAAAAAAAAAAAAAAAAAAAAAAAAAAAAAAAAAA///////+/wAGAAAAgAAAAGZmxkAAAAAAAAAAAAAAAAAAAAAAAAAAAAAAAAAAAAAAAAAAAAAAAAAAAAAAAAAAAAAAAAAAAAAAAAAAAAAAAAAAAAAAAAAAAAAAAAAAAAAAAAAAAAAAAAAAAAAAAAAAAAAAAAAAAAAAAAAAAAAAAAAAAAAAAAAAAAAAAAAAAAAAAAAAAAAAAAAAAAAAAAAAAAAAAAAAAAAAAAAAAAAAAAAAAAAAAAAAAAAAAAAAAAAAAAAAAAAAAAAAAAAAAAAAAAAAAAAAAAAAAAAAAAAAAAAAAAAAAAAAAAAAAAAAAAAAAAAAAAAAAAAAAAAAAAAAAAAAAAAAAAAAAAAAAAAAAAAAAAAAAAAAAAAAAAAAAAAAAAAAAAAAAAAAAAAAAAAAAAAAAAAAAAAAAAAAAAAAAAAAAAAAAAAAAAAAAAAAAAAAAAAAAAAAAAAAAAAAAAAAAAAAAAAAAAAAAAAAAAAAAAAAAAAAAAAAAAAAAAAAAAAAAAAAAAAAAAAAAAAAAAAAAAAAAAAAAAAAAAAAAAAAAAAAAAAAAAAAAAAAAAAAAAAAAAAAAAAAAAAAAAAAAAAAAAAAAAAAAAAAAAAAAAAAAAAAAAAAAAAAAAAAAAAAAAAAAAAAAAAAAAAAAAAAAAAAAAAAAAAAAAAAAAAAAAAAAAAAAAAAAAAAAAAAAAAAAAAA///////+/wAGAAAAgAAAAMTM/EAAAAAAAAAAAAAAAAAAAAAAAAAAAAAAAAAAAAAAAAAAAAAAAAAAAAAAAAAAAAAAAAAAAAAAAAAAAAAAAAAAAAAAAAAAAAAAAAAAAAAAAAAAAAAAAAAAAAAAAAAAAAAAAAAAAAAAAAAAAAAAAAAAAAAAAAAAAAAAAAAAAAAAAAAAAAAAAAAAAAAAAAAAAAAAAAAAAAAAAAAAAAAAAAAAAAAAAAAAAAAAAAAAAAAAAAAAAAAAAAAAAAAAAAAAAAAAAAAAAAAAAAAAAAAAAAAAAAAAAAAAAAAAAAAAAAAAAAAAAAAAAAAAAAAAAAAAAAAAAAAAAAAAAAAAAAAAAAAAAAAAAAAAAAAAAAAAAAAAAAAAAAAAAAAAAAAAAAAAAAAAAAAAAAAAAAAAAAAAAAAAAAAAAAAAAAAAAAAAAAAAAAAAAAAAAAAAAAAAAAAAAAAAAAAAAAAAAAAAAAAAAAAAAAAAAAAAAAAAAAAAAAAAAAAAAAAAAAAAAAAAAAAAAAAAAAAAAAAAAAAAAAAAAAAAAAAAAAAAAAAAAAAAAAAAAAAAAAAAAAAAAAAAAAAAAAAAAAAAAAAAAAAAAAAAAAAAAAAAAAAAAAAAAAAAAAAAAAAAAAAAAAAAAAAAAAAAAAAAAAAAAAAAAAAAAAAAAAAAAAAAAAAAAAAAAAAAAAAA///////+/wAGAAAAgAAAAJSZGUEAAAAAAAAAAAAAAAAAAAAAAAAAAAAAAAAAAAAAAAAAAAAAAAAAAAAAAAAAAAAAAAAAAAAAAAAAAAAAAAAAAAAAAAAAAAAAAAAAAAAAAAAAAAAAAAAAAAAAAAAAAAAAAAAAAAAAAAAAAAAAAAAAAAAAAAAAAAAAAAAAAAAAAAAAAAAAAAAAAAAAAAAAAAAAAAAAAAAAAAAAAAAAAAAAAAAAAAAAAAAAAAAAAAAAAAAAAAAAAAAAAAAAAAAAAAAAAAAAAAAAAAAAAAAAAAAAAAAAAAAAAAAAAAAAAAAAAAAAAAAAAAAAAAAAAAAAAAAAAAAAAAAAAAAAAAAAAAAAAAAAAAAAAAAAAAAAAAAAAAAAAAAAAAAAAAAAAAAAAAAAAAAAAAAAAAAAAAAAAAAAAAAAAAAAAAAAAAAAAAAAAAAAAAAAAAAAAAAAAAAAAAAAAAAAAAAAAAAAAAAAAAAAAAAAAAAAAAAAAAAAAAAAAAAAAAAAAAAAAAAAAAAAAAAAAAAAAAAAAAAAAAAAAAAAAAAAAAAAAAAAAAAAAAAAAAAAAAAAAAAAAAAAAAAAAAAAAAAAAAAAAAAAAAAAAAAAAAAAAAAAAAAAAAAAAAAAAAAAAAAAAAAAAAAAAAAAAAAAAAAAAAAAAAAAAAAAAAAAAAAAAAAAAAAAAAAAAAAA///////+/wAGAAAAgAAAADYzcz8AAAAAAAAAAAAAAAAAAAAAAAAAAAAAAAAAAAAAAAAAAAAAAAAAAAAAAAAAAAAAAAAAAAAAAAAAAAAAAAAAAAAAAAAAAAAAAAAAAAAAAAAAAAAAAAAAAAAAAAAAAAAAAAAAAAAAAAAAAAAAAAAAAAAAAAAAAAAAAAAAAAAAAAAAAAAAAAAAAAAAAAAAAAAAAAAAAAAAAAAAAAAAAAAAAAAAAAAAAAAAAAAAAAAAAAAAAAAAAAAAAAAAAAAAAAAAAAAAAAAAAAAAAAAAAAAAAAAAAAAAAAAAAAAAAAAAAAAAAAAAAAAAAAAAAAAAAAAAAAAAAAAAAAAAAAAAAAAAAAAAAAAAAAAAAAAAAAAAAAAAAAAAAAAAAAAAAAAAAAAAAAAAAAAAAAAAAAAAAAAAAAAAAAAAAAAAAAAAAAAAAAAAAAAAAAAAAAAAAAAAAAAAAAAAAAAAAAAAAAAAAAAAAAAAAAAAAAAAAAAAAAAAAAAAAAAAAAAAAAAAAAAAAAAAAAAAAAAAAAAAAAAAAAAAAAAAAAAAAAAAAAAAAAAAAAAAAAAAAAAAAAAAAAAAAAAAAAAAAAAAAAAAAAAAAAAAAAAAAAAAAAAAAAAAAAAAAAAAAAAAAAAAAAAAAAAAAAAAAAAAAAAAAAAAAAAAAAAAAAAAAAAAAAAAAAAAAAAA///////+/wAGAAAAAQAAAAAAAAD///////7/AAYAAACAAAAAnSAKQQAAAAAAAAAAAAAAAAAAAAAAAAAAAAAAAAAAAAAAAAAAAAAAAAAAAAAAAAAAAAAAAAAAAAAAAAAAAAAAAAAAAAAAAAAAAAAAAAAAAAAAAAAAAAAAAAAAAAAAAAAAAAAAAAAAAAAAAAAAAAAAAAAAAAAAAAAAAAAAAAAAAAAAAAAAAAAAAAAAAAAAAAAAAAAAAAAAAAAAAAAAAAAAAAAAAAAAAAAAAAAAAAAAAAAAAAAAAAAAAAAAAAAAAAAAAAAAAAAAAAAAAAAAAAAAAAAAAAAAAAAAAAAAAAAAAAAAAAAAAAAAAAAAAAAAAAAAAAAAAAAAAAAAAAAAAAAAAAAAAAAAAAAAAAAAAAAAAAAAAAAAAAAAAAAAAAAAAAAAAAAAAAAAAAAAAAAAAAAAAAAAAAAAAAAAAAAAAAAAAAAAAAAAAAAAAAAAAAAAAAAAAAAAAAAAAAAAAAAAAAAAAAAAAAAAAAAAAAAAAAAAAAAAAAAAAAAAAAAAAAAAAAAAAAAAAAAAAAAAAAAAAAAAAAAAAAAAAAAAAAAAAAAAAAAAAAAAAAAAAAAAAAAAAAAAAAAAAAAAAAAAAAAAAAAAAAAAAAAAAAAAAAAAAAAAAAAAAAAAAAAAAAAAAAAAAAAAAAAAAAAAAAAAAAAAAAAAAAAAAAAAAAAAAAAAAAAAAAD///////7/AAYAAAABAAAAAAAgQv///////v8ABgAAAIAAAABgkA5BAAAAAAAAAAAAAAAAAAAAAAAAAAAAAAAAAAAAAAAAAAAAAAAAAAAAAAAAAAAAAAAAAAAAAAAAAAAAAAAAAAAAAAAAAAAAAAAAAAAAAAAAAAAAAAAAAAAAAAAAAAAAAAAAAAAAAAAAAAAAAAAAAAAAAAAAAAAAAAAAAAAAAAAAAAAAAAAAAAAAAAAAAAAAAAAAAAAAAAAAAAAAAAAAAAAAAAAAAAAAAAAAAAAAAAAAAAAAAAAAAAAAAAAAAAAAAAAAAAAAAAAAAAAAAAAAAAAAAAAAAAAAAAAAAAAAAAAAAAAAAAAAAAAAAAAAAAAAAAAAAAAAAAAAAAAAAAAAAAAAAAAAAAAAAAAAAAAAAAAAAAAAAAAAAAAAAAAAAAAAAAAAAAAAAAAAAAAAAAAAAAAAAAAAAAAAAAAAAAAAAAAAAAAAAAAAAAAAAAAAAAAAAAAAAAAAAAAAAAAAAAAAAAAAAAAAAAAAAAAAAAAAAAAAAAAAAAAAAAAAAAAAAAAAAAAAAAAAAAAAAAAAAAAAAAAAAAAAAAAAAAAAAAAAAAAAAAAAAAAAAAAAAAAAAAAAAAAAAAAAAAAAAAAAAAAAAAAAAAAAAAAAAAAAAAAAAAAAAAAAAAAAAAAAAAAAAAAAAAAAAAAAAAAAAAAAAAAAAAAAAAAAAAAAAAAAAAAAAP///////v8ABgAAAAEAAAAAAAAA///////+/wAGAAAAAQAAAAAAAAD///////7/AAYAAACAAAAAP7seQQAAAAAAAAAAAAAAAAAAAAAAAAAAAAAAAAAAAAAAAAAAAAAAAAAAAAAAAAAAAAAAAAAAAAAAAAAAAAAAAAAAAAAAAAAAAAAAAAAAAAAAAAAAAAAAAAAAAAAAAAAAAAAAAAAAAAAAAAAAAAAAAAAAAAAAAAAAAAAAAAAAAAAAAAAAAAAAAAAAAAAAAAAAAAAAAAAAAAAAAAAAAAAAAAAAAAAAAAAAAAAAAAAAAAAAAAAAAAAAAAAAAAAAAAAAAAAAAAAAAAAAAAAAAAAAAAAAAAAAAAAAAAAAAAAAAAAAAAAAAAAAAAAAAAAAAAAAAAAAAAAAAAAAAAAAAAAAAAAAAAAAAAAAAAAAAAAAAAAAAAAAAAAAAAAAAAAAAAAAAAAAAAAAAAAAAAAAAAAAAAAAAAAAAAAAAAAAAAAAAAAAAAAAAAAAAAAAAAAAAAAAAAAAAAAAAAAAAAAAAAAAAAAAAAAAAAAAAAAAAAAAAAAAAAAAAAAAAAAAAAAAAAAAAAAAAAAAAAAAAAAAAAAAAAAAAAAAAAAAAAAAAAAAAAAAAAAAAAAAAAAAAAAAAAAAAAAAAAAAAAAAAAAAAAAAAAAAAAAAAAAAAAAAAAAAAAAAAAAAAAAAAAAAAAAAAAAAAAAAAAAAAAAAAAAAAAAAAAAAAAAAAAAAAAAAAAAAAAD///////7/AAYAAAABAAAAAAAAAP///////v8ABgAAAIAAAACKiZtAAAAAAAAAAAAAAAAAAAAAAAAAAAAAAAAAAAAAAAAAAAAAAAAAAAAAAAAAAAAAAAAAAAAAAAAAAAAAAAAAAAAAAAAAAAAAAAAAAAAAAAAAAAAAAAAAAAAAAAAAAAAAAAAAAAAAAAAAAAAAAAAAAAAAAAAAAAAAAAAAAAAAAAAAAAAAAAAAAAAAAAAAAAAAAAAAAAAAAAAAAAAAAAAAAAAAAAAAAAAAAAAAAAAAAAAAAAAAAAAAAAAAAAAAAAAAAAAAAAAAAAAAAAAAAAAAAAAAAAAAAAAAAAAAAAAAAAAAAAAAAAAAAAAAAAAAAAAAAAAAAAAAAAAAAAAAAAAAAAAAAAAAAAAAAAAAAAAAAAAAAAAAAAAAAAAAAAAAAAAAAAAAAAAAAAAAAAAAAAAAAAAAAAAAAAAAAAAAAAAAAAAAAAAAAAAAAAAAAAAAAAAAAAAAAAAAAAAAAAAAAAAAAAAAAAAAAAAAAAAAAAAAAAAAAAAAAAAAAAAAAAAAAAAAAAAAAAAAAAAAAAAAAAAAAAAAAAAAAAAAAAAAAAAAAAAAAAAAAAAAAAAAAAAAAAAAAAAAAAAAAAAAAAAAAAAAAAAAAAAAAAAAAAAAAAAAAAAAAAAAAAAAAAAAAAAAAAAAAAAAAAAAAAAAAAAAAAAAAAAAAAAAAAAAAAAAAAAAAP///////v8ABgAAAIAAAAAM+DtAAAAAAAAAAAAAAAAAAAAAAAAAAAAAAAAAAAAAAAAAAAAAAAAAAAAAAAAAAAAAAAAAAAAAAAAAAAAAAAAAAAAAAAAAAAAAAAAAAAAAAAAAAAAAAAAAAAAAAAAAAAAAAAAAAAAAAAAAAAAAAAAAAAAAAAAAAAAAAAAAAAAAAAAAAAAAAAAAAAAAAAAAAAAAAAAAAAAAAAAAAAAAAAAAAAAAAAAAAAAAAAAAAAAAAAAAAAAAAAAAAAAAAAAAAAAAAAAAAAAAAAAAAAAAAAAAAAAAAAAAAAAAAAAAAAAAAAAAAAAAAAAAAAAAAAAAAAAAAAAAAAAAAAAAAAAAAAAAAAAAAAAAAAAAAAAAAAAAAAAAAAAAAAAAAAAAAAAAAAAAAAAAAAAAAAAAAAAAAAAAAAAAAAAAAAAAAAAAAAAAAAAAAAAAAAAAAAAAAAAAAAAAAAAAAAAAAAAAAAAAAAAAAAAAAAAAAAAAAAAAAAAAAAAAAAAAAAAAAAAAAAAAAAAAAAAAAAAAAAAAAAAAAAAAAAAAAAAAAAAAAAAAAAAAAAAAAAAAAAAAAAAAAAAAAAAAAAAAAAAAAAAAAAAAAAAAAAAAAAAAAAAAAAAAAAAAAAAAAAAAAAAAAAAAAAAAAAAAAAAAAAAAAAAAAAAAAAAAAAAAAAAAAAAAAAAAAAAAAP///////v8ABgAAAAEAAAAAAAAA///////+/wAGAAAAAQAAAAAAAAD///////7/AAYAAAABAAAAAACgQP///////v8ABgAAAIAAAADIzKRAAAAAAAAAAAAAAAAAAAAAAAAAAAAAAAAAAAAAAAAAAAAAAAAAAAAAAAAAAAAAAAAAAAAAAAAAAAAAAAAAAAAAAAAAAAAAAAAAAAAAAAAAAAAAAAAAAAAAAAAAAAAAAAAAAAAAAAAAAAAAAAAAAAAAAAAAAAAAAAAAAAAAAAAAAAAAAAAAAAAAAAAAAAAAAAAAAAAAAAAAAAAAAAAAAAAAAAAAAAAAAAAAAAAAAAAAAAAAAAAAAAAAAAAAAAAAAAAAAAAAAAAAAAAAAAAAAAAAAAAAAAAAAAAAAAAAAAAAAAAAAAAAAAAAAAAAAAAAAAAAAAAAAAAAAAAAAAAAAAAAAAAAAAAAAAAAAAAAAAAAAAAAAAAAAAAAAAAAAAAAAAAAAAAAAAAAAAAAAAAAAAAAAAAAAAAAAAAAAAAAAAAAAAAAAAAAAAAAAAAAAAAAAAAAAAAAAAAAAAAAAAAAAAAAAAAAAAAAAAAAAAAAAAAAAAAAAAAAAAAAAAAAAAAAAAAAAAAAAAAAAAAAAAAAAAAAAAAAAAAAAAAAAAAAAAAAAAAAAAAAAAAAAAAAAAAAAAAAAAAAAAAAAAAAAAAAAAAAAAAAAAAAAAAAAAAAAAAAAAAAAAAAAAAAAAAAAAAAAAAAAAAAAAAAAAAAAAAAAAAAAAAAAAAAAAAAAAAAAP///////v8ABgAAAIAAAAAAAAAAAAAAQQAAAEEAAABBAAAAQQAAAEEAAABBAAAAQQAAAEEAAABBAAAAQQAAAEEAAABBAAAAQQAAAEEAAABBAAAAQQAAAEEAAABBAAAAQQAAAEEAAABBAAAAQQAAAEEAAABBAAAAQQAAAEEAAABBAAAAQQAAAEEAAABBAAAAQQAAAEEAAABBAAAAQQAAAEEAAABBAAAAQQAAAEEAAABBAAAAQQAAAEEAAABBAAAAQQAAAEEAAABBAAAAQQAAAEEAAABBAAAAQQAAAEEAAABBAAAAQQAAAEEAAABBAAAAQQAAAEEAAABBAAAAQQAAAEEAAABBAAAAQQAAAEEAAABBAAAAQQAAAEEAAABBAAAAQQAAAEEAAABBAAAAQQAAAEEAAABBAAAAQQAAAEEAAABBAAAAQQAAAEEAAABBAAAAQQAAAEEAAABBAAAAQQAAAEEAAABBAAAAQQAAAEEAAABBAAAAQQAAAEEAAABBAAAAQQAAAEEAAABBAAAAQQAAAEEAAABBAAAAQQAAAEEAAABBAAAAQQAAAEEAAABBAAAAQQAAAEEAAABBAAAAQQAAAEEAAABBAAAAQQAAAEEAAABBAAAAQQAAAEEAAABBAAAAQQAAAEEAAABBAAAAQQAAAEEAAABBAAAAQQAAAEEAAABBAAAAQQAAAEEAAABBAAAAQf///////v8ABgAAAIAAAACUmXlAAAAAAAAAAAAAAAAAAAAAAAAAAAAAAAAAAAAAAAAAAAAAAAAAAAAAAAAAAAAAAAAAAAAAAAAAAAAAAAAAAAAAAAAAAAAAAAAAAAAAAAAAAAAAAAAAAAAAAAAAAAAAAAAAAAAAAAAAAAAAAAAAAAAAAAAAAAAAAAAAAAAAAAAAAAAAAAAAAAAAAAAAAAAAAAAAAAAAAAAAAAAAAAAAAAAAAAAAAAAAAAAAAAAAAAAAAAAAAAAAAAAAAAAAAAAAAAAAAAAAAAAAAAAAAAAAAAAAAAAAAAAAAAAAAAAAAAAAAAAAAAAAAAAAAAAAAAAAAAAAAAAAAAAAAAAAAAAAAAAAAAAAAAAAAAAAAAAAAAAAAAAAAAAAAAAAAAAAAAAAAAAAAAAAAAAAAAAAAAAAAAAAAAAAAAAAAAAAAAAAAAAAAAAAAAAAAAAAAAAAAAAAAAAAAAAAAAAAAAAAAAAAAAAAAAAAAAAAAAAAAAAAAAAAAAAAAAAAAAAAAAAAAAAAAAAAAAAAAAAAAAAAAAAAAAAAAAAAAAAAAAAAAAAAAAAAAAAAAAAAAAAAAAAAAAAAAAAAAAAAAAAAAAAAAAAAAAAAAAAAAAAAAAAAAAAAAAAAAAAAAAAAAAAAAAAAAAAAAAAAAAAAAAAAAAAAAAAAAAAAAAAAAAAAAAAAAAAAAP///////v8ABgAAAIAAAAAAAAAAAAAAAAAAAAAAAAAAAAAAAAAAAAAAAAAAAAAAAAAAAAAAAAAAAAAAAAAAAAAAAAAAAAAAAAAAAAAAAAAAAAAAAAAAAAAAAAAAAAAAAAAAAAAAAAAAAAAAAAAAAAAAAAAAAAAAAAAAAAAAAAAAAAAAAAAAAAAAAAAAAAAAAAAAAAAAAAAAAAAAAAAAAAAAAAAAAAAAAAAAAAAAAAAAAAAAAAAAAAAAAAAAAAAAAAAAAAAAAAAAAAAAAAAAAAAAAAAAAAAAAAAAAAAAAAAAAAAAAAAAAAAAAAAAAAAAAAAAAAAAAAAAAAAAAAAAAAAAAAAAAAAAAAAAAAAAAAAAAAAAAAAAAAAAAAAAAAAAAAAAAAAAAAAAAAAAAAAAAAAAAAAAAAAAAAAAAAAAAAAAAAAAAAAAAAAAAAAAAAAAAAAAAAAAAAAAAAAAAAAAAAAAAAAAAAAAAAAAAAAAAAAAAAAAAAAAAAAAAAAAAAAAAAAAAAAAAAAAAAAAAAAAAAAAAAAAAAAAAAAAAAAAAAAAAAAAAAAAAAAAAAAAAAAAAAAAAAAAAAAAAAAAAAAAAAAAAAAAAAAAAAAAAAAAAAAAAAAAAAAAAAAAAAAAAAAAAAAAAAAAAAAAAAAAAAAAAAAAAAAAAAAAAAAAAAAAAAAAAAAAAAAAAAAAAAAAAAAAAP///////v8ABgAAAIAAAABiZgpBAAAAAAAAAAAAAAAAAAAAAAAAAAAAAAAAAAAAAAAAAAAAAAAAAAAAAAAAAAAAAAAAAAAAAAAAAAAAAAAAAAAAAAAAAAAAAAAAAAAAAAAAAAAAAAAAAAAAAAAAAAAAAAAAAAAAAAAAAAAAAAAAAAAAAAAAAAAAAAAAAAAAAAAAAAAAAAAAAAAAAAAAAAAAAAAAAAAAAAAAAAAAAAAAAAAAAAAAAAAAAAAAAAAAAAAAAAAAAAAAAAAAAAAAAAAAAAAAAAAAAAAAAAAAAAAAAAAAAAAAAAAAAAAAAAAAAAAAAAAAAAAAAAAAAAAAAAAAAAAAAAAAAAAAAAAAAAAAAAAAAAAAAAAAAAAAAAAAAAAAAAAAAAAAAAAAAAAAAAAAAAAAAAAAAAAAAAAAAAAAAAAAAAAAAAAAAAAAAAAAAAAAAAAAAAAAAAAAAAAAAAAAAAAAAAAAAAAAAAAAAAAAAAAAAAAAAAAAAAAAAAAAAAAAAAAAAAAAAAAAAAAAAAAAAAAAAAAAAAAAAAAAAAAAAAAAAAAAAAAAAAAAAAAAAAAAAAAAAAAAAAAAAAAAAAAAAAAAAAAAAAAAAAAAAAAAAAAAAAAAAAAAAAAAAAAAAAAAAAAAAAAAAAAAAAAAAAAAAAAAAAAAAAAAAAAAAAAAAAAAAAAAAAAAAAAAAAAAAP///////v8ABgAAAAEAAAAAAAAA///////+/wAGAAAAAQAAAAAAAAD///////7/AAYAAACAAAAAYmZmQAAAAAAAAAAAAAAAAAAAAAAAAAAAAAAAAAAAAAAAAAAAAAAAAAAAAAAAAAAAAAAAAAAAAAAAAAAAAAAAAAAAAAAAAAAAAAAAAAAAAAAAAAAAAAAAAAAAAAAAAAAAAAAAAAAAAAAAAAAAAAAAAAAAAAAAAAAAAAAAAAAAAAAAAAAAAAAAAAAAAAAAAAAAAAAAAAAAAAAAAAAAAAAAAAAAAAAAAAAAAAAAAAAAAAAAAAAAAAAAAAAAAAAAAAAAAAAAAAAAAAAAAAAAAAAAAAAAAAAAAAAAAAAAAAAAAAAAAAAAAAAAAAAAAAAAAAAAAAAAAAAAAAAAAAAAAAAAAAAAAAAAAAAAAAAAAAAAAAAAAAAAAAAAAAAAAAAAAAAAAAAAAAAAAAAAAAAAAAAAAAAAAAAAAAAAAAAAAAAAAAAAAAAAAAAAAAAAAAAAAAAAAAAAAAAAAAAAAAAAAAAAAAAAAAAAAAAAAAAAAAAAAAAAAAAAAAAAAAAAAAAAAAAAAAAAAAAAAAAAAAAAAAAAAAAAAAAAAAAAAAAAAAAAAAAAAAAAAAAAAAAAAAAAAAAAAAAAAAAAAAAAAAAAAAAAAAAAAAAAAAAAAAAAAAAAAAAAAAAAAAAAAAAAAAAAAAAAAAAAAAAAAAAAAAAAAAAAAAAAAAAAAAAAAAAAAAAAAAD///////7/AAYAAACAAAAA9/9PQAAAAAAAAAAAAAAAAAAAAAAAAAAAAAAAAAAAAAAAAAAAAAAAAAAAAAAAAAAAAAAAAAAAAAAAAAAAAAAAAAAAAAAAAAAAAAAAAAAAAAAAAAAAAAAAAAAAAAAAAAAAAAAAAAAAAAAAAAAAAAAAAAAAAAAAAAAAAAAAAAAAAAAAAAAAAAAAAAAAAAAAAAAAAAAAAAAAAAAAAAAAAAAAAAAAAAAAAAAAAAAAAAAAAAAAAAAAAAAAAAAAAAAAAAAAAAAAAAAAAAAAAAAAAAAAAAAAAAAAAAAAAAAAAAAAAAAAAAAAAAAAAAAAAAAAAAAAAAAAAAAAAAAAAAAAAAAAAAAAAAAAAAAAAAAAAAAAAAAAAAAAAAAAAAAAAAAAAAAAAAAAAAAAAAAAAAAAAAAAAAAAAAAAAAAAAAAAAAAAAAAAAAAAAAAAAAAAAAAAAAAAAAAAAAAAAAAAAAAAAAAAAAAAAAAAAAAAAAAAAAAAAAAAAAAAAAAAAAAAAAAAAAAAAAAAAAAAAAAAAAAAAAAAAAAAAAAAAAAAAAAAAAAAAAAAAAAAAAAAAAAAAAAAAAAAAAAAAAAAAAAAAAAAAAAAAAAAAAAAAAAAAAAAAAAAAAAAAAAAAAAAAAAAAAAAAAAAAAAAAAAAAAAAAAAAAAAAAAAAAAAAAAAAAAAAAAAAAAD///////7/AAYAAACAAAAAAADwQgAA8EIAAPBCAADwQgAA8EIAAPBCAADwQgAA8EIAAPBCAADwQgAA8EIAAPBCAADwQgAA8EIAAPBCAADwQgAA8EIAAPBCAADwQgAA8EIAAPBCAADwQgAA8EIAAPBCAADwQgAA8EIAAPBCAADwQgAA8EIAAPBCAADwQgAA8EIAAPBCAADwQgAA8EIAAPBCAADwQgAA8EIAAPBCAADwQgAA8EIAAPBCAADwQgAA8EIAAPBCAADwQgAA8EIAAPBCAADwQgAA8EIAAPBCAADwQgAA8EIAAPBCAADwQgAA8EIAAPBCAADwQgAA8EIAAPBCAADwQgAA8EIAAPBCAADwQgAA8EIAAPBCAADwQgAA8EIAAPBCAADwQgAA8EIAAPBCAADwQgAA8EIAAPBCAADwQgAA8EIAAPBCAADwQgAA8EIAAPBCAADwQgAA8EIAAPBCAADwQgAA8EIAAPBCAADwQgAA8EIAAPBCAADwQgAA8EIAAPBCAADwQgAA8EIAAPBCAADwQgAA8EIAAPBCAADwQgAA8EIAAPBCAADwQgAA8EIAAPBCAADwQgAA8EIAAPBCAADwQgAA8EIAAPBCAADwQgAA8EIAAPBCAADwQgAA8EIAAPBCAADwQgAA8EIAAPBCAADwQgAA8EIAAPBCAADwQgAA8EIAAPBCAADwQgAA8EL///////7/AAYAAAABAAAAAAAAAP///////v8ABgAAAAEAAAAAAAAA///////+/wAGAAAAgAAAAGJmFkEAAAAAAAAAAAAAAAAAAAAAAAAAAAAAAAAAAAAAAAAAAAAAAAAAAAAAAAAAAAAAAAAAAAAAAAAAAAAAAAAAAAAAAAAAAAAAAAAAAAAAAAAAAAAAAAAAAAAAAAAAAAAAAAAAAAAAAAAAAAAAAAAAAAAAAAAAAAAAAAAAAAAAAAAAAAAAAAAAAAAAAAAAAAAAAAAAAAAAAAAAAAAAAAAAAAAAAAAAAAAAAAAAAAAAAAAAAAAAAAAAAAAAAAAAAAAAAAAAAAAAAAAAAAAAAAAAAAAAAAAAAAAAAAAAAAAAAAAAAAAAAAAAAAAAAAAAAAAAAAAAAAAAAAAAAAAAAAAAAAAAAAAAAAAAAAAAAAAAAAAAAAAAAAAAAAAAAAAAAAAAAAAAAAAAAAAAAAAAAAAAAAAAAAAAAAAAAAAAAAAAAAAAAAAAAAAAAAAAAAAAAAAAAAAAAAAAAAAAAAAAAAAAAAAAAAAAAAAAAAAAAAAAAAAAAAAAAAAAAAAAAAAAAAAAAAAAAAAAAAAAAAAAAAAAAAAAAAAAAAAAAAAAAAAAAAAAAAAAAAAAAAAAAAAAAAAAAAAAAAAAAAAAAAAAAAAAAAAAAAAAAAAAAAAAAAAAAAAAAAAAAAAAAAAAAAAAAAAAAAAAAAAAAAAAAAAAAAAAAAAAAAAAAAAAAAAAAAAA///////+/wAGAAAAAQAAAAAAAAD///////7/AAYAAAABAAAAAAAAAP///////v8ABgAAAIAAAAD+xcM+AAAAAAAAAAAAAAAAAAAAAAAAAAAAAAAAAAAAAAAAAAAAAAAAAAAAAAAAAAAAAAAAAAAAAAAAAAAAAAAAAAAAAAAAAAAAAAAAAAAAAAAAAAAAAAAAAAAAAAAAAAAAAAAAAAAAAAAAAAAAAAAAAAAAAAAAAAAAAAAAAAAAAAAAAAAAAAAAAAAAAAAAAAAAAAAAAAAAAAAAAAAAAAAAAAAAAAAAAAAAAAAAAAAAAAAAAAAAAAAAAAAAAAAAAAAAAAAAAAAAAAAAAAAAAAAAAAAAAAAAAAAAAAAAAAAAAAAAAAAAAAAAAAAAAAAAAAAAAAAAAAAAAAAAAAAAAAAAAAAAAAAAAAAAAAAAAAAAAAAAAAAAAAAAAAAAAAAAAAAAAAAAAAAAAAAAAAAAAAAAAAAAAAAAAAAAAAAAAAAAAAAAAAAAAAAAAAAAAAAAAAAAAAAAAAAAAAAAAAAAAAAAAAAAAAAAAAAAAAAAAAAAAAAAAAAAAAAAAAAAAAAAAAAAAAAAAAAAAAAAAAAAAAAAAAAAAAAAAAAAAAAAAAAAAAAAAAAAAAAAAAAAAAAAAAAAAAAAAAAAAAAAAAAAAAAAAAAAAAAAAAAAAAAAAAAAAAAAAAAAAAAAAAAAAAAAAAAAAAAAAAAAAAAAAAAAAAAAAAAAAAAAAAAAAAAAAAAAAP///////v8ABgAAAAEAAAAAAAAA///////+/wAGAAAAgAAAAM3MHEAAAAAAAAAAAAAAAAAAAAAAAAAAAAAAAAAAAAAAAAAAAAAAAAAAAAAAAAAAAAAAAAAAAAAAAAAAAAAAAAAAAAAAAAAAAAAAAAAAAAAAAAAAAAAAAAAAAAAAAAAAAAAAAAAAAAAAAAAAAAAAAAAAAAAAAAAAAAAAAAAAAAAAAAAAAAAAAAAAAAAAAAAAAAAAAAAAAAAAAAAAAAAAAAAAAAAAAAAAAAAAAAAAAAAAAAAAAAAAAAAAAAAAAAAAAAAAAAAAAAAAAAAAAAAAAAAAAAAAAAAAAAAAAAAAAAAAAAAAAAAAAAAAAAAAAAAAAAAAAAAAAAAAAAAAAAAAAAAAAAAAAAAAAAAAAAAAAAAAAAAAAAAAAAAAAAAAAAAAAAAAAAAAAAAAAAAAAAAAAAAAAAAAAAAAAAAAAAAAAAAAAAAAAAAAAAAAAAAAAAAAAAAAAAAAAAAAAAAAAAAAAAAAAAAAAAAAAAAAAAAAAAAAAAAAAAAAAAAAAAAAAAAAAAAAAAAAAAAAAAAAAAAAAAAAAAAAAAAAAAAAAAAAAAAAAAAAAAAAAAAAAAAAAAAAAAAAAAAAAAAAAAAAAAAAAAAAAAAAAAAAAAAAAAAAAAAAAAAAAAAAAAAAAAAAAAAAAAAAAAAAAAAAAAAAAAAAAAAAAAAAAAAAAAAAAAAAAAAA///////+/wAGAAAAgAAAAAAAgD8AAAAAAAAAAAAAAAAAAAAAAAAAAAAAAAAAAAAAAAAAAAAAAAAAAAAAAAAAAAAAAAAAAAAAAAAAAAAAAAAAAAAAAAAAAAAAAAAAAAAAAAAAAAAAAAAAAAAAAAAAAAAAAAAAAAAAAAAAAAAAAAAAAAAAAAAAAAAAAAAAAAAAAAAAAAAAAAAAAAAAAAAAAAAAAAAAAAAAAAAAAAAAAAAAAAAAAAAAAAAAAAAAAAAAAAAAAAAAAAAAAAAAAAAAAAAAAAAAAAAAAAAAAAAAAAAAAAAAAAAAAAAAAAAAAAAAAAAAAAAAAAAAAAAAAAAAAAAAAAAAAAAAAAAAAAAAAAAAAAAAAAAAAAAAAAAAAAAAAAAAAAAAAAAAAAAAAAAAAAAAAAAAAAAAAAAAAAAAAAAAAAAAAAAAAAAAAAAAAAAAAAAAAAAAAAAAAAAAAAAAAAAAAAAAAAAAAAAAAAAAAAAAAAAAAAAAAAAAAAAAAAAAAAAAAAAAAAAAAAAAAAAAAAAAAAAAAAAAAAAAAAAAAAAAAAAAAAAAAAAAAAAAAAAAAAAAAAAAAAAAAAAAAAAAAAAAAAAAAAAAAAAAAAAAAAAAAAAAAAAAAAAAAAAAAAAAAAAAAAAAAAAAAAAAAAAAAAAAAAAAAAAAAAAAAAAAAAAAAAAAAAAAAAAAAAAAAAAA///////+/wAGAAAAgAAAAMbMzEAAAAAAAAAAAAAAAAAAAAAAAAAAAAAAAAAAAAAAAAAAAAAAAAAAAAAAAAAAAAAAAAAAAAAAAAAAAAAAAAAAAAAAAAAAAAAAAAAAAAAAAAAAAAAAAAAAAAAAAAAAAAAAAAAAAAAAAAAAAAAAAAAAAAAAAAAAAAAAAAAAAAAAAAAAAAAAAAAAAAAAAAAAAAAAAAAAAAAAAAAAAAAAAAAAAAAAAAAAAAAAAAAAAAAAAAAAAAAAAAAAAAAAAAAAAAAAAAAAAAAAAAAAAAAAAAAAAAAAAAAAAAAAAAAAAAAAAAAAAAAAAAAAAAAAAAAAAAAAAAAAAAAAAAAAAAAAAAAAAAAAAAAAAAAAAAAAAAAAAAAAAAAAAAAAAAAAAAAAAAAAAAAAAAAAAAAAAAAAAAAAAAAAAAAAAAAAAAAAAAAAAAAAAAAAAAAAAAAAAAAAAAAAAAAAAAAAAAAAAAAAAAAAAAAAAAAAAAAAAAAAAAAAAAAAAAAAAAAAAAAAAAAAAAAAAAAAAAAAAAAAAAAAAAAAAAAAAAAAAAAAAAAAAAAAAAAAAAAAAAAAAAAAAAAAAAAAAAAAAAAAAAAAAAAAAAAAAAAAAAAAAAAAAAAAAAAAAAAAAAAAAAAAAAAAAAAAAAAAAAAAAAAAAAAAAAAAAAAAAAAAAAAAAAAAAAAAAAAA///////+/wA=">
              <key/>
            </vestige>
          </instrument>
          <eldata fcut="14000" fres="0.5" fwet="0" ftype="0">
            <elvol dec="0.5" lspd="0.1" pdel="0" amt="0" latt="0" lshp="0" rel="0.1" x100="0" att="0" lspd_numerator="4" ctlenvamt="0" lspd_syncmode="0" lamt="0" lpdel="0" userwavefile="" hold="0.5" sustain="0.5" lspd_denominator="4"/>
            <elcut dec="0.5" lspd="0.1" pdel="0" amt="0" latt="0" lshp="0" rel="0.1" x100="0" att="0" lspd_numerator="4" ctlenvamt="0" lspd_syncmode="0" lamt="0" lpdel="0" userwavefile="" hold="0.5" sustain="0.5" lspd_denominator="4"/>
            <elres dec="0.5" lspd="0.1" pdel="0" amt="0" latt="0" lshp="0" rel="0.1" x100="0" att="0" lspd_numerator="4" ctlenvamt="0" lspd_syncmode="0" lamt="0" lpdel="0" userwavefile="" hold="0.5" sustain="0.5" lspd_denominator="4"/>
          </eldata>
          <chordcreator chord-enabled="0" chord="0" chordrange="1"/>
          <arpeggiator arptime="200" arpgate="100" arprepeats="1" arptime_denominator="4" arp="0" arpmode="0" arp-enabled="0" arpdir="0" arprange="1" arpmiss="0" arptime_syncmode="0" arpskip="0" arptime_numerator="4" arpcycle="0"/>
          <midiport outputchannel="1" outputcontroller="0" outputprogram="1" fixedoutputnote="-1" fixedoutputvelocity="-1" inputcontroller="0" basevelocity="63" fixedinputvelocity="-1" writable="0" inports="" inputchannel="0" readable="1"/>
          <fxchain enabled="0" numofeffects="0"/>
        </instrumenttrack>
        <midiclip type="1" steps="16" name="" pos="3456" muted="0">
          <note vol="100" pos="0" pan="0" len="12" key="42"/>
          <note vol="100" pos="24" pan="0" len="12" key="42"/>
          <note vol="100" pos="48" pan="0" len="12" key="42"/>
          <note vol="100" pos="72" pan="0" len="12" key="42"/>
          <note vol="100" pos="96" pan="0" len="12" key="42"/>
          <note vol="100" pos="120" pan="0" len="12" key="42"/>
          <note vol="100" pos="132" pan="0" len="12" key="40"/>
          <note vol="100" pos="144" pan="0" len="12" key="42"/>
          <note vol="100" pos="168" pan="0" len="12" key="42"/>
          <note vol="100" pos="192" pan="0" len="12" key="45"/>
          <note vol="100" pos="216" pan="0" len="12" key="45"/>
          <note vol="100" pos="240" pan="0" len="12" key="45"/>
          <note vol="100" pos="264" pan="0" len="12" key="45"/>
          <note vol="100" pos="288" pan="0" len="12" key="45"/>
          <note vol="100" pos="312" pan="0" len="12" key="45"/>
          <note vol="100" pos="324" pan="0" len="12" key="47"/>
          <note vol="100" pos="336" pan="0" len="12" key="45"/>
          <note vol="100" pos="360" pan="0" len="12" key="45"/>
          <note vol="100" pos="384" pan="0" len="12" key="35"/>
          <note vol="100" pos="408" pan="0" len="12" key="35"/>
          <note vol="100" pos="432" pan="0" len="12" key="35"/>
          <note vol="100" pos="456" pan="0" len="12" key="35"/>
          <note vol="100" pos="480" pan="0" len="12" key="35"/>
          <note vol="100" pos="504" pan="0" len="12" key="35"/>
          <note vol="100" pos="516" pan="0" len="12" key="37"/>
          <note vol="100" pos="528" pan="0" len="12" key="35"/>
          <note vol="100" pos="552" pan="0" len="12" key="35"/>
          <note vol="100" pos="576" pan="0" len="12" key="37"/>
          <note vol="100" pos="600" pan="0" len="12" key="37"/>
          <note vol="100" pos="624" pan="0" len="12" key="37"/>
          <note vol="100" pos="648" pan="0" len="12" key="37"/>
          <note vol="100" pos="672" pan="0" len="12" key="40"/>
          <note vol="100" pos="696" pan="0" len="12" key="40"/>
          <note vol="100" pos="708" pan="0" len="12" key="37"/>
          <note vol="100" pos="720" pan="0" len="12" key="40"/>
          <note vol="100" pos="744" pan="0" len="12" key="45"/>
        </midiclip>
        <midiclip type="1" steps="16" name="" pos="4224" muted="0">
          <note vol="100" pos="0" pan="0" len="12" key="42"/>
          <note vol="100" pos="24" pan="0" len="12" key="42"/>
          <note vol="100" pos="48" pan="0" len="12" key="42"/>
          <note vol="100" pos="72" pan="0" len="12" key="42"/>
          <note vol="100" pos="96" pan="0" len="12" key="42"/>
          <note vol="100" pos="120" pan="0" len="12" key="42"/>
          <note vol="100" pos="132" pan="0" len="12" key="40"/>
          <note vol="100" pos="144" pan="0" len="12" key="42"/>
          <note vol="100" pos="168" pan="0" len="12" key="42"/>
          <note vol="100" pos="192" pan="0" len="12" key="45"/>
          <note vol="100" pos="216" pan="0" len="12" key="45"/>
          <note vol="100" pos="240" pan="0" len="12" key="45"/>
          <note vol="100" pos="264" pan="0" len="12" key="45"/>
          <note vol="100" pos="288" pan="0" len="12" key="45"/>
          <note vol="100" pos="312" pan="0" len="12" key="45"/>
          <note vol="100" pos="324" pan="0" len="12" key="47"/>
          <note vol="100" pos="336" pan="0" len="12" key="45"/>
          <note vol="100" pos="360" pan="0" len="12" key="45"/>
          <note vol="100" pos="384" pan="0" len="12" key="35"/>
          <note vol="100" pos="408" pan="0" len="12" key="35"/>
          <note vol="100" pos="432" pan="0" len="12" key="35"/>
          <note vol="100" pos="456" pan="0" len="12" key="35"/>
          <note vol="100" pos="480" pan="0" len="12" key="35"/>
          <note vol="100" pos="504" pan="0" len="12" key="35"/>
          <note vol="100" pos="516" pan="0" len="12" key="37"/>
          <note vol="100" pos="528" pan="0" len="12" key="35"/>
          <note vol="100" pos="552" pan="0" len="12" key="35"/>
          <note vol="100" pos="576" pan="0" len="12" key="37"/>
          <note vol="100" pos="600" pan="0" len="12" key="37"/>
          <note vol="100" pos="624" pan="0" len="12" key="37"/>
          <note vol="100" pos="648" pan="0" len="12" key="37"/>
          <note vol="100" pos="672" pan="0" len="12" key="40"/>
          <note vol="100" pos="696" pan="0" len="12" key="40"/>
          <note vol="100" pos="708" pan="0" len="12" key="37"/>
          <note vol="100" pos="720" pan="0" len="12" key="40"/>
          <note vol="100" pos="744" pan="0" len="12" key="45"/>
        </midiclip>
        <midiclip type="1" steps="16" name="" pos="5760" muted="0">
          <note vol="100" pos="0" pan="0" len="24" key="33"/>
          <note vol="100" pos="24" pan="0" len="12" key="33"/>
          <note vol="100" pos="48" pan="0" len="12" key="33"/>
          <note vol="100" pos="72" pan="0" len="12" key="33"/>
          <note vol="100" pos="96" pan="0" len="24" key="33"/>
          <note vol="100" pos="120" pan="0" len="12" key="33"/>
          <note vol="100" pos="144" pan="0" len="12" key="33"/>
          <note vol="100" pos="168" pan="0" len="12" key="33"/>
          <note vol="100" pos="192" pan="0" len="24" key="39"/>
          <note vol="100" pos="216" pan="0" len="12" key="39"/>
          <note vol="100" pos="240" pan="0" len="12" key="39"/>
          <note vol="100" pos="264" pan="0" len="12" key="39"/>
          <note vol="100" pos="288" pan="0" len="24" key="39"/>
          <note vol="100" pos="312" pan="0" len="12" key="39"/>
          <note vol="100" pos="336" pan="0" len="12" key="39"/>
          <note vol="100" pos="360" pan="0" len="12" key="37"/>
          <note vol="100" pos="384" pan="0" len="24" key="35"/>
          <note vol="100" pos="408" pan="0" len="12" key="35"/>
          <note vol="100" pos="432" pan="0" len="12" key="35"/>
          <note vol="100" pos="456" pan="0" len="12" key="35"/>
          <note vol="100" pos="480" pan="0" len="24" key="35"/>
          <note vol="100" pos="504" pan="0" len="12" key="35"/>
          <note vol="100" pos="528" pan="0" len="12" key="35"/>
          <note vol="100" pos="552" pan="0" len="12" key="35"/>
          <note vol="100" pos="576" pan="0" len="24" key="30"/>
          <note vol="100" pos="600" pan="0" len="12" key="30"/>
          <note vol="100" pos="624" pan="0" len="12" key="30"/>
          <note vol="100" pos="648" pan="0" len="12" key="30"/>
          <note vol="100" pos="672" pan="0" len="24" key="30"/>
          <note vol="100" pos="696" pan="0" len="12" key="30"/>
          <note vol="100" pos="720" pan="0" len="12" key="30"/>
          <note vol="100" pos="744" pan="0" len="12" key="32"/>
        </midiclip>
        <midiclip type="1" steps="16" name="" pos="4992" muted="0">
          <note vol="100" pos="0" pan="0" len="24" key="37"/>
          <note vol="100" pos="24" pan="0" len="12" key="37"/>
          <note vol="100" pos="48" pan="0" len="12" key="37"/>
          <note vol="100" pos="72" pan="0" len="12" key="37"/>
          <note vol="100" pos="96" pan="0" len="24" key="37"/>
          <note vol="100" pos="120" pan="0" len="12" key="37"/>
          <note vol="100" pos="144" pan="0" len="12" key="37"/>
          <note vol="100" pos="168" pan="0" len="12" key="37"/>
          <note vol="100" pos="192" pan="0" len="24" key="37"/>
          <note vol="100" pos="216" pan="0" len="12" key="37"/>
          <note vol="100" pos="240" pan="0" len="12" key="37"/>
          <note vol="100" pos="264" pan="0" len="12" key="37"/>
          <note vol="100" pos="288" pan="0" len="24" key="37"/>
          <note vol="100" pos="312" pan="0" len="12" key="37"/>
          <note vol="100" pos="336" pan="0" len="12" key="37"/>
          <note vol="100" pos="360" pan="0" len="12" key="37"/>
          <note vol="100" pos="384" pan="0" len="24" key="35"/>
          <note vol="100" pos="408" pan="0" len="12" key="35"/>
          <note vol="100" pos="432" pan="0" len="12" key="35"/>
          <note vol="100" pos="456" pan="0" len="12" key="35"/>
          <note vol="100" pos="480" pan="0" len="24" key="35"/>
          <note vol="100" pos="504" pan="0" len="12" key="35"/>
          <note vol="100" pos="528" pan="0" len="12" key="35"/>
          <note vol="100" pos="552" pan="0" len="12" key="35"/>
          <note vol="100" pos="576" pan="0" len="24" key="39"/>
          <note vol="100" pos="600" pan="0" len="12" key="39"/>
          <note vol="100" pos="624" pan="0" len="12" key="39"/>
          <note vol="100" pos="648" pan="0" len="12" key="39"/>
          <note vol="100" pos="672" pan="0" len="24" key="39"/>
          <note vol="100" pos="696" pan="0" len="12" key="39"/>
          <note vol="100" pos="720" pan="0" len="12" key="39"/>
          <note vol="100" pos="744" pan="0" len="12" key="37"/>
        </midiclip>
        <midiclip type="1" steps="16" name="" pos="6528" muted="0">
          <note vol="100" pos="0" pan="0" len="24" key="33"/>
          <note vol="100" pos="24" pan="0" len="12" key="33"/>
          <note vol="100" pos="48" pan="0" len="12" key="33"/>
          <note vol="100" pos="72" pan="0" len="12" key="33"/>
          <note vol="100" pos="96" pan="0" len="24" key="33"/>
          <note vol="100" pos="120" pan="0" len="12" key="33"/>
          <note vol="100" pos="144" pan="0" len="12" key="33"/>
          <note vol="100" pos="168" pan="0" len="12" key="35"/>
          <note vol="100" pos="192" pan="0" len="24" key="37"/>
          <note vol="100" pos="216" pan="0" len="12" key="37"/>
          <note vol="100" pos="240" pan="0" len="12" key="37"/>
          <note vol="100" pos="264" pan="0" len="12" key="37"/>
          <note vol="100" pos="288" pan="0" len="24" key="37"/>
          <note vol="100" pos="312" pan="0" len="12" key="37"/>
          <note vol="100" pos="336" pan="0" len="12" key="37"/>
          <note vol="100" pos="360" pan="0" len="12" key="33"/>
          <note vol="100" pos="384" pan="0" len="24" key="35"/>
          <note vol="100" pos="408" pan="0" len="12" key="35"/>
          <note vol="100" pos="432" pan="0" len="12" key="35"/>
          <note vol="100" pos="456" pan="0" len="12" key="35"/>
          <note vol="100" pos="480" pan="0" len="24" key="35"/>
          <note vol="100" pos="504" pan="0" len="12" key="35"/>
          <note vol="100" pos="528" pan="0" len="12" key="35"/>
          <note vol="100" pos="552" pan="0" len="12" key="35"/>
          <note vol="100" pos="576" pan="0" len="24" key="34"/>
          <note vol="100" pos="600" pan="0" len="12" key="34"/>
          <note vol="100" pos="624" pan="0" len="12" key="34"/>
          <note vol="100" pos="648" pan="0" len="12" key="34"/>
          <note vol="100" pos="672" pan="0" len="24" key="34"/>
          <note vol="100" pos="696" pan="0" len="12" key="34"/>
          <note vol="100" pos="720" pan="0" len="12" key="34"/>
          <note vol="100" pos="744" pan="0" len="12" key="37"/>
        </midiclip>
        <midiclip type="1" steps="16" name="" pos="7296" muted="0">
          <note vol="100" pos="0" pan="0" len="24" key="33"/>
          <note vol="100" pos="24" pan="0" len="12" key="33"/>
          <note vol="100" pos="48" pan="0" len="12" key="33"/>
          <note vol="100" pos="72" pan="0" len="12" key="33"/>
          <note vol="100" pos="96" pan="0" len="24" key="33"/>
          <note vol="100" pos="120" pan="0" len="12" key="33"/>
          <note vol="100" pos="144" pan="0" len="12" key="33"/>
          <note vol="100" pos="168" pan="0" len="12" key="35"/>
          <note vol="100" pos="192" pan="0" len="24" key="37"/>
          <note vol="100" pos="216" pan="0" len="12" key="37"/>
          <note vol="100" pos="240" pan="0" len="12" key="37"/>
          <note vol="100" pos="264" pan="0" len="12" key="37"/>
          <note vol="100" pos="288" pan="0" len="24" key="37"/>
          <note vol="100" pos="312" pan="0" len="12" key="37"/>
          <note vol="100" pos="336" pan="0" len="12" key="37"/>
          <note vol="100" pos="360" pan="0" len="12" key="33"/>
          <note vol="100" pos="384" pan="0" len="24" key="35"/>
          <note vol="100" pos="408" pan="0" len="12" key="35"/>
          <note vol="100" pos="432" pan="0" len="12" key="35"/>
          <note vol="100" pos="456" pan="0" len="12" key="35"/>
          <note vol="100" pos="480" pan="0" len="24" key="35"/>
          <note vol="100" pos="504" pan="0" len="12" key="35"/>
          <note vol="100" pos="528" pan="0" len="12" key="35"/>
          <note vol="100" pos="552" pan="0" len="12" key="28"/>
          <note vol="100" pos="576" pan="0" len="24" key="33"/>
          <note vol="100" pos="600" pan="0" len="12" key="33"/>
          <note vol="100" pos="624" pan="0" len="12" key="33"/>
          <note vol="100" pos="648" pan="0" len="12" key="33"/>
          <note vol="100" pos="672" pan="0" len="24" key="33"/>
          <note vol="100" pos="696" pan="0" len="12" key="33"/>
          <note vol="100" pos="720" pan="0" len="12" key="28"/>
          <note vol="100" pos="744" pan="0" len="12" key="28"/>
        </midiclip>
        <midiclip type="1" steps="16" name="" pos="768" muted="0">
          <note vol="100" pos="0" pan="0" len="12" key="42"/>
          <note vol="100" pos="24" pan="0" len="12" key="42"/>
          <note vol="100" pos="48" pan="0" len="24" key="42"/>
          <note vol="100" pos="72" pan="0" len="12" key="42"/>
          <note vol="100" pos="96" pan="0" len="12" key="42"/>
          <note vol="100" pos="120" pan="0" len="12" key="42"/>
          <note vol="100" pos="144" pan="0" len="24" key="42"/>
          <note vol="100" pos="168" pan="0" len="12" key="42"/>
          <note vol="100" pos="192" pan="0" len="12" key="42"/>
          <note vol="100" pos="216" pan="0" len="12" key="42"/>
          <note vol="100" pos="240" pan="0" len="24" key="42"/>
          <note vol="100" pos="264" pan="0" len="12" key="42"/>
          <note vol="100" pos="288" pan="0" len="12" key="42"/>
          <note vol="100" pos="312" pan="0" len="12" key="42"/>
          <note vol="100" pos="336" pan="0" len="24" key="42"/>
          <note vol="100" pos="360" pan="0" len="12" key="42"/>
          <note vol="100" pos="384" pan="0" len="12" key="37"/>
          <note vol="100" pos="408" pan="0" len="12" key="37"/>
          <note vol="100" pos="432" pan="0" len="24" key="37"/>
          <note vol="100" pos="456" pan="0" len="12" key="37"/>
          <note vol="100" pos="480" pan="0" len="12" key="37"/>
          <note vol="100" pos="504" pan="0" len="12" key="37"/>
          <note vol="100" pos="528" pan="0" len="24" key="37"/>
          <note vol="100" pos="552" pan="0" len="12" key="37"/>
          <note vol="100" pos="576" pan="0" len="12" key="37"/>
          <note vol="100" pos="600" pan="0" len="12" key="37"/>
          <note vol="100" pos="624" pan="0" len="24" key="37"/>
          <note vol="100" pos="648" pan="0" len="12" key="37"/>
          <note vol="100" pos="672" pan="0" len="12" key="37"/>
          <note vol="100" pos="696" pan="0" len="12" key="37"/>
          <note vol="100" pos="720" pan="0" len="24" key="37"/>
          <note vol="100" pos="744" pan="0" len="12" key="37"/>
          <note vol="100" pos="768" pan="0" len="12" key="38"/>
          <note vol="100" pos="792" pan="0" len="12" key="38"/>
          <note vol="100" pos="816" pan="0" len="24" key="38"/>
          <note vol="100" pos="840" pan="0" len="12" key="38"/>
          <note vol="100" pos="864" pan="0" len="12" key="38"/>
          <note vol="100" pos="888" pan="0" len="12" key="38"/>
          <note vol="100" pos="912" pan="0" len="24" key="38"/>
          <note vol="100" pos="936" pan="0" len="12" key="38"/>
          <note vol="100" pos="960" pan="0" len="12" key="44"/>
          <note vol="100" pos="984" pan="0" len="12" key="44"/>
          <note vol="100" pos="1008" pan="0" len="24" key="44"/>
          <note vol="100" pos="1032" pan="0" len="12" key="44"/>
          <note vol="100" pos="1056" pan="0" len="12" key="44"/>
          <note vol="100" pos="1080" pan="0" len="12" key="44"/>
          <note vol="100" pos="1104" pan="0" len="24" key="44"/>
          <note vol="100" pos="1128" pan="0" len="12" key="44"/>
          <note vol="100" pos="1152" pan="0" len="12" key="42"/>
          <note vol="100" pos="1176" pan="0" len="12" key="42"/>
          <note vol="100" pos="1200" pan="0" len="24" key="42"/>
          <note vol="100" pos="1224" pan="0" len="12" key="42"/>
          <note vol="100" pos="1248" pan="0" len="12" key="33"/>
          <note vol="100" pos="1272" pan="0" len="12" key="33"/>
          <note vol="100" pos="1296" pan="0" len="24" key="33"/>
          <note vol="100" pos="1320" pan="0" len="12" key="33"/>
          <note vol="100" pos="1344" pan="0" len="12" key="35"/>
          <note vol="100" pos="1368" pan="0" len="12" key="35"/>
          <note vol="100" pos="1392" pan="0" len="24" key="35"/>
          <note vol="100" pos="1416" pan="0" len="12" key="35"/>
          <note vol="100" pos="1440" pan="0" len="12" key="35"/>
          <note vol="100" pos="1464" pan="0" len="12" key="35"/>
          <note vol="100" pos="1488" pan="0" len="24" key="37"/>
          <note vol="100" pos="1512" pan="0" len="12" key="40"/>
          <note vol="100" pos="1536" pan="0" len="12" key="38"/>
          <note vol="100" pos="1560" pan="0" len="12" key="38"/>
          <note vol="100" pos="1584" pan="0" len="24" key="38"/>
          <note vol="100" pos="1608" pan="0" len="12" key="38"/>
          <note vol="100" pos="1632" pan="0" len="12" key="38"/>
          <note vol="100" pos="1656" pan="0" len="12" key="38"/>
          <note vol="100" pos="1680" pan="0" len="24" key="38"/>
          <note vol="100" pos="1704" pan="0" len="12" key="38"/>
          <note vol="100" pos="1728" pan="0" len="12" key="37"/>
          <note vol="100" pos="1752" pan="0" len="12" key="37"/>
          <note vol="100" pos="1776" pan="0" len="24" key="37"/>
          <note vol="100" pos="1800" pan="0" len="12" key="37"/>
          <note vol="100" pos="1824" pan="0" len="12" key="37"/>
          <note vol="100" pos="1848" pan="0" len="12" key="37"/>
          <note vol="100" pos="1872" pan="0" len="24" key="37"/>
          <note vol="100" pos="1896" pan="0" len="12" key="37"/>
          <note vol="100" pos="1920" pan="0" len="12" key="30"/>
          <note vol="100" pos="1944" pan="0" len="12" key="30"/>
          <note vol="100" pos="1968" pan="0" len="24" key="30"/>
          <note vol="100" pos="1992" pan="0" len="12" key="30"/>
          <note vol="100" pos="2016" pan="0" len="12" key="30"/>
          <note vol="100" pos="2040" pan="0" len="12" key="30"/>
          <note vol="100" pos="2064" pan="0" len="24" key="30"/>
          <note vol="100" pos="2088" pan="0" len="12" key="30"/>
        </midiclip>
        <midiclip type="1" steps="16" name="" pos="3264" muted="0">
          <note vol="100" pos="0" pan="0" len="12" key="30"/>
          <note vol="100" pos="24" pan="0" len="12" key="30"/>
          <note vol="100" pos="48" pan="0" len="24" key="30"/>
          <note vol="100" pos="72" pan="0" len="12" key="30"/>
          <note vol="100" pos="96" pan="0" len="12" key="33"/>
          <note vol="100" pos="120" pan="0" len="12" key="33"/>
          <note vol="100" pos="144" pan="0" len="24" key="37"/>
          <note vol="100" pos="168" pan="0" len="12" key="40"/>
        </midiclip>
        <midiclip type="1" steps="16" name="" pos="8064" muted="0">
          <note vol="100" pos="0" pan="0" len="24" key="30"/>
          <note vol="100" pos="24" pan="0" len="12" key="30"/>
          <note vol="100" pos="48" pan="0" len="12" key="30"/>
          <note vol="100" pos="72" pan="0" len="12" key="30"/>
          <note vol="100" pos="96" pan="0" len="24" key="30"/>
          <note vol="100" pos="120" pan="0" len="12" key="30"/>
          <note vol="100" pos="144" pan="0" len="12" key="30"/>
          <note vol="100" pos="168" pan="0" len="12" key="30"/>
        </midiclip>
        <midiclip type="1" steps="16" name="" pos="8448" muted="0">
          <note vol="100" pos="0" pan="0" len="24" key="42"/>
          <note vol="100" pos="24" pan="0" len="12" key="42"/>
          <note vol="100" pos="48" pan="0" len="12" key="42"/>
          <note vol="100" pos="72" pan="0" len="12" key="42"/>
          <note vol="100" pos="96" pan="0" len="24" key="42"/>
          <note vol="100" pos="120" pan="0" len="12" key="42"/>
          <note vol="100" pos="144" pan="0" len="12" key="42"/>
          <note vol="100" pos="168" pan="0" len="12" key="42"/>
        </midiclip>
        <midiclip type="1" steps="16" name="" pos="8640" muted="0">
          <note vol="100" pos="0" pan="0" len="24" key="30"/>
          <note vol="100" pos="24" pan="0" len="12" key="30"/>
          <note vol="100" pos="48" pan="0" len="12" key="30"/>
          <note vol="100" pos="72" pan="0" len="12" key="30"/>
          <note vol="100" pos="96" pan="0" len="24" key="30"/>
          <note vol="100" pos="120" pan="0" len="12" key="30"/>
          <note vol="100" pos="144" pan="0" len="12" key="30"/>
          <note vol="100" pos="168" pan="0" len="12" key="30"/>
        </midiclip>
        <midiclip type="1" steps="16" name="" pos="9024" muted="0">
          <note vol="100" pos="0" pan="0" len="24" key="33"/>
          <note vol="100" pos="24" pan="0" len="12" key="33"/>
          <note vol="100" pos="48" pan="0" len="12" key="33"/>
          <note vol="100" pos="72" pan="0" len="12" key="33"/>
          <note vol="100" pos="96" pan="0" len="24" key="32"/>
          <note vol="100" pos="120" pan="0" len="12" key="32"/>
          <note vol="100" pos="144" pan="0" len="12" key="32"/>
          <note vol="100" pos="168" pan="0" len="12" key="32"/>
        </midiclip>
        <midiclip type="1" steps="16" name="" pos="8832" muted="0">
          <note vol="100" pos="0" pan="0" len="24" key="42"/>
          <note vol="100" pos="24" pan="0" len="12" key="42"/>
          <note vol="100" pos="48" pan="0" len="12" key="42"/>
          <note vol="100" pos="72" pan="0" len="12" key="42"/>
          <note vol="100" pos="96" pan="0" len="24" key="42"/>
          <note vol="100" pos="120" pan="0" len="12" key="42"/>
          <note vol="100" pos="144" pan="0" len="12" key="42"/>
          <note vol="100" pos="168" pan="0" len="12" key="42"/>
        </midiclip>
        <midiclip type="1" steps="16" name="" pos="8256" muted="0">
          <note vol="100" pos="0" pan="0" len="24" key="30"/>
          <note vol="100" pos="24" pan="0" len="12" key="30"/>
          <note vol="100" pos="48" pan="0" len="12" key="30"/>
          <note vol="100" pos="72" pan="0" len="12" key="30"/>
          <note vol="100" pos="96" pan="0" len="24" key="30"/>
          <note vol="100" pos="120" pan="0" len="12" key="30"/>
          <note vol="100" pos="144" pan="0" len="12" key="30"/>
          <note vol="100" pos="168" pan="0" len="12" key="30"/>
        </midiclip>
        <midiclip type="1" steps="16" name="" pos="9216" muted="0">
          <note vol="100" pos="0" pan="0" len="24" key="38"/>
          <note vol="100" pos="24" pan="0" len="12" key="38"/>
          <note vol="100" pos="48" pan="0" len="12" key="38"/>
          <note vol="100" pos="72" pan="0" len="12" key="38"/>
          <note vol="100" pos="96" pan="0" len="24" key="38"/>
          <note vol="100" pos="120" pan="0" len="12" key="38"/>
          <note vol="100" pos="144" pan="0" len="12" key="38"/>
          <note vol="100" pos="168" pan="0" len="12" key="38"/>
        </midiclip>
        <midiclip type="1" steps="16" name="" pos="9408" muted="0">
          <note vol="100" pos="0" pan="0" len="24" key="26"/>
          <note vol="100" pos="24" pan="0" len="12" key="26"/>
          <note vol="100" pos="48" pan="0" len="12" key="26"/>
          <note vol="100" pos="72" pan="0" len="12" key="26"/>
          <note vol="100" pos="96" pan="0" len="24" key="26"/>
          <note vol="100" pos="120" pan="0" len="12" key="26"/>
          <note vol="100" pos="144" pan="0" len="12" key="26"/>
          <note vol="100" pos="168" pan="0" len="12" key="26"/>
        </midiclip>
        <midiclip type="1" steps="16" name="" pos="9600" muted="0">
          <note vol="100" pos="0" pan="0" len="24" key="38"/>
          <note vol="100" pos="24" pan="0" len="12" key="38"/>
          <note vol="100" pos="48" pan="0" len="12" key="38"/>
          <note vol="100" pos="72" pan="0" len="12" key="38"/>
          <note vol="100" pos="96" pan="0" len="24" key="38"/>
          <note vol="100" pos="120" pan="0" len="12" key="38"/>
          <note vol="100" pos="144" pan="0" len="12" key="38"/>
          <note vol="100" pos="168" pan="0" len="12" key="38"/>
        </midiclip>
        <midiclip type="1" steps="16" name="" pos="9792" muted="0">
          <note vol="100" pos="0" pan="0" len="24" key="26"/>
          <note vol="100" pos="24" pan="0" len="12" key="26"/>
          <note vol="100" pos="48" pan="0" len="12" key="26"/>
          <note vol="100" pos="72" pan="0" len="12" key="26"/>
          <note vol="100" pos="96" pan="0" len="24" key="28"/>
          <note vol="100" pos="120" pan="0" len="12" key="28"/>
          <note vol="100" pos="144" pan="0" len="12" key="28"/>
          <note vol="100" pos="168" pan="0" len="12" key="28"/>
        </midiclip>
        <midiclip type="1" steps="16" name="" pos="9984" muted="0">
          <note vol="100" pos="0" pan="0" len="24" key="42"/>
          <note vol="100" pos="24" pan="0" len="12" key="42"/>
          <note vol="100" pos="48" pan="0" len="12" key="42"/>
          <note vol="100" pos="72" pan="0" len="12" key="42"/>
          <note vol="100" pos="96" pan="0" len="24" key="42"/>
          <note vol="100" pos="120" pan="0" len="12" key="42"/>
          <note vol="100" pos="144" pan="0" len="12" key="42"/>
          <note vol="100" pos="168" pan="0" len="12" key="42"/>
        </midiclip>
        <midiclip type="1" steps="16" name="" pos="10176" muted="0">
          <note vol="100" pos="0" pan="0" len="24" key="30"/>
          <note vol="100" pos="24" pan="0" len="12" key="30"/>
          <note vol="100" pos="48" pan="0" len="12" key="30"/>
          <note vol="100" pos="72" pan="0" len="12" key="30"/>
          <note vol="100" pos="96" pan="0" len="24" key="30"/>
          <note vol="100" pos="120" pan="0" len="12" key="30"/>
          <note vol="100" pos="144" pan="0" len="12" key="30"/>
          <note vol="100" pos="168" pan="0" len="12" key="30"/>
        </midiclip>
        <midiclip type="1" steps="16" name="" pos="10560" muted="0">
          <note vol="100" pos="0" pan="0" len="24" key="33"/>
          <note vol="100" pos="24" pan="0" len="12" key="33"/>
          <note vol="100" pos="48" pan="0" len="12" key="33"/>
          <note vol="100" pos="72" pan="0" len="12" key="33"/>
          <note vol="100" pos="96" pan="0" len="24" key="32"/>
          <note vol="100" pos="120" pan="0" len="12" key="32"/>
          <note vol="100" pos="144" pan="0" len="12" key="32"/>
          <note vol="100" pos="168" pan="0" len="12" key="32"/>
        </midiclip>
        <midiclip type="1" steps="16" name="" pos="10368" muted="0">
          <note vol="100" pos="0" pan="0" len="24" key="42"/>
          <note vol="100" pos="24" pan="0" len="12" key="42"/>
          <note vol="100" pos="48" pan="0" len="12" key="42"/>
          <note vol="100" pos="72" pan="0" len="12" key="42"/>
          <note vol="100" pos="96" pan="0" len="24" key="42"/>
          <note vol="100" pos="120" pan="0" len="12" key="42"/>
          <note vol="100" pos="144" pan="0" len="12" key="42"/>
          <note vol="100" pos="168" pan="0" len="12" key="42"/>
        </midiclip>
        <midiclip type="1" steps="16" name="" pos="10752" muted="0">
          <note vol="100" pos="0" pan="0" len="24" key="38"/>
          <note vol="100" pos="24" pan="0" len="12" key="38"/>
          <note vol="100" pos="48" pan="0" len="12" key="38"/>
          <note vol="100" pos="72" pan="0" len="12" key="38"/>
          <note vol="100" pos="96" pan="0" len="24" key="38"/>
          <note vol="100" pos="120" pan="0" len="12" key="38"/>
          <note vol="100" pos="144" pan="0" len="12" key="38"/>
          <note vol="100" pos="168" pan="0" len="12" key="38"/>
        </midiclip>
        <midiclip type="1" steps="16" name="" pos="10944" muted="0">
          <note vol="100" pos="0" pan="0" len="24" key="26"/>
          <note vol="100" pos="24" pan="0" len="12" key="26"/>
          <note vol="100" pos="48" pan="0" len="12" key="26"/>
          <note vol="100" pos="72" pan="0" len="12" key="26"/>
          <note vol="100" pos="96" pan="0" len="24" key="26"/>
          <note vol="100" pos="120" pan="0" len="12" key="26"/>
          <note vol="100" pos="144" pan="0" len="12" key="26"/>
          <note vol="100" pos="168" pan="0" len="12" key="26"/>
        </midiclip>
        <midiclip type="1" steps="16" name="" pos="11136" muted="0">
          <note vol="100" pos="0" pan="0" len="24" key="38"/>
          <note vol="100" pos="24" pan="0" len="12" key="38"/>
          <note vol="100" pos="48" pan="0" len="12" key="38"/>
          <note vol="100" pos="72" pan="0" len="12" key="38"/>
          <note vol="100" pos="96" pan="0" len="24" key="38"/>
          <note vol="100" pos="120" pan="0" len="12" key="38"/>
          <note vol="100" pos="144" pan="0" len="12" key="38"/>
          <note vol="100" pos="168" pan="0" len="12" key="38"/>
        </midiclip>
        <midiclip type="1" steps="16" name="" pos="11328" muted="0">
          <note vol="100" pos="0" pan="0" len="24" key="26"/>
          <note vol="100" pos="24" pan="0" len="12" key="26"/>
          <note vol="100" pos="48" pan="0" len="12" key="26"/>
          <note vol="100" pos="72" pan="0" len="12" key="26"/>
          <note vol="100" pos="96" pan="0" len="24" key="28"/>
          <note vol="100" pos="120" pan="0" len="12" key="28"/>
          <note vol="100" pos="144" pan="0" len="12" key="28"/>
          <note vol="100" pos="168" pan="0" len="12" key="28"/>
        </midiclip>
        <midiclip type="1" steps="16" name="" pos="2880" muted="0">
          <note vol="100" pos="0" pan="0" len="12" key="30"/>
          <note vol="100" pos="24" pan="0" len="12" key="30"/>
          <note vol="100" pos="48" pan="0" len="24" key="30"/>
          <note vol="100" pos="72" pan="0" len="12" key="30"/>
          <note vol="100" pos="96" pan="0" len="12" key="30"/>
          <note vol="100" pos="120" pan="0" len="12" key="30"/>
          <note vol="100" pos="144" pan="0" len="24" key="30"/>
          <note vol="100" pos="168" pan="0" len="12" key="30"/>
          <note vol="100" pos="192" pan="0" len="12" key="30"/>
          <note vol="100" pos="216" pan="0" len="12" key="30"/>
          <note vol="100" pos="240" pan="0" len="24" key="30"/>
          <note vol="100" pos="264" pan="0" len="12" key="30"/>
          <note vol="100" pos="288" pan="0" len="12" key="30"/>
          <note vol="100" pos="312" pan="0" len="12" key="30"/>
          <note vol="100" pos="336" pan="0" len="24" key="30"/>
          <note vol="100" pos="360" pan="0" len="12" key="30"/>
        </midiclip>
      </track>
      <track type="0" solo="0" mutedBeforeSolo="0" name="Strings" muted="0">
        <instrumenttrack range_import="1" enablecc="0" scale="0" enabled="0" basenote="69" mixch="5" usemasterpitch="1" pan="0" lastkey="127" pitch="0" pitchrange="1" keymap="0" firstkey="0">
          <vol id="19009" value="100" scale_type="linear"/>
          <midicontrollers cc32="0" cc52="0" cc91="0" cc71="0" cc57="0" cc75="0" cc84="0" cc13="0" cc122="0" cc106="0" cc27="0" cc14="0" cc5="0" cc59="0" cc76="0" cc110="0" cc40="0" cc97="0" cc49="0" cc112="0" cc62="0" cc124="0" cc37="0" cc64="0" cc66="0" cc35="0" cc58="0" cc78="0" cc85="0" cc24="0" cc123="0" cc6="0" cc125="0" cc69="0" cc23="0" cc98="0" cc95="0" cc15="0" cc127="0" cc4="0" cc111="0" cc61="0" cc109="0" cc53="0" cc29="0" cc41="0" cc17="0" cc83="0" cc19="0" cc31="0" cc94="0" cc11="0" cc46="0" cc51="0" cc101="0" cc60="0" cc56="0" cc119="0" cc88="0" cc34="0" cc39="0" cc44="0" cc115="0" cc42="0" cc28="0" cc26="0" cc100="0" cc12="0" cc121="0" cc48="0" cc33="0" cc8="0" cc114="0" cc7="0" cc92="0" cc120="0" cc82="0" cc74="0" cc0="0" cc55="0" cc67="0" cc103="0" cc54="0" cc72="0" cc104="0" cc81="0" cc102="0" cc30="0" cc47="0" cc113="0" cc118="0" cc89="0" cc45="0" cc38="0" cc9="0" cc77="0" cc105="0" cc36="0" cc25="0" cc63="0" cc117="0" cc1="0" cc68="0" cc21="0" cc99="0" cc65="0" cc107="0" cc79="0" cc87="0" cc116="0" cc86="0" cc108="0" cc70="0" cc80="0" cc20="0" cc90="0" cc126="0" cc16="0" cc22="0" cc96="0" cc18="0" cc10="0" cc2="0" cc43="0" cc93="0" cc50="0" cc3="0" cc73="0"/>
          <instrument name="sf2player">
            <sf2player bank="0" patch="48" gain="0.44" chorusOn="0" src="usersoundfont:Touhou.sf2" chorusLevel="2" reverbRoomSize="0.2" reverbDamping="0" reverbWidth="0.5" chorusDepth="8" reverbLevel="0.9" chorusNum="3" reverbOn="0" chorusSpeed="0.3">
              <key/>
            </sf2player>
          </instrument>
          <eldata fcut="14000" fres="0.5" fwet="0" ftype="0">
            <elvol dec="0.5" lspd="0.1" pdel="0" amt="0" latt="0" lshp="0" rel="0.1" x100="0" att="0" lspd_numerator="4" ctlenvamt="0" lspd_syncmode="0" lamt="0" lpdel="0" userwavefile="" hold="0.5" sustain="0.5" lspd_denominator="4"/>
            <elcut dec="0.5" lspd="0.1" pdel="0" amt="0" latt="0" lshp="0" rel="0.1" x100="0" att="0" lspd_numerator="4" ctlenvamt="0" lspd_syncmode="0" lamt="0" lpdel="0" userwavefile="" hold="0.5" sustain="0.5" lspd_denominator="4"/>
            <elres dec="0.5" lspd="0.1" pdel="0" amt="0" latt="0" lshp="0" rel="0.1" x100="0" att="0" lspd_numerator="4" ctlenvamt="0" lspd_syncmode="0" lamt="0" lpdel="0" userwavefile="" hold="0.5" sustain="0.5" lspd_denominator="4"/>
          </eldata>
          <chordcreator chord-enabled="0" chord="0" chordrange="1"/>
          <arpeggiator arptime="200" arpgate="100" arprepeats="1" arptime_denominator="4" arp="0" arpmode="0" arp-enabled="0" arpdir="0" arprange="1" arpmiss="0" arptime_syncmode="0" arpskip="0" arptime_numerator="4" arpcycle="0"/>
          <midiport outputchannel="1" outputcontroller="0" outputprogram="1" fixedoutputnote="-1" fixedoutputvelocity="-1" inputcontroller="0" basevelocity="63" fixedinputvelocity="-1" writable="0" inports="" inputchannel="0" readable="1"/>
          <fxchain enabled="0" numofeffects="0"/>
        </instrumenttrack>
        <midiclip type="1" steps="16" name="" pos="5760" muted="0">
          <note vol="100" pos="0" pan="0" len="192" key="33"/>
          <note vol="100" pos="192" pan="0" len="144" key="39"/>
          <note vol="100" pos="336" pan="0" len="24" key="39"/>
          <note vol="100" pos="360" pan="0" len="24" key="41"/>
          <note vol="100" pos="384" pan="0" len="168" key="42"/>
          <note vol="100" pos="552" pan="0" len="24" key="44"/>
          <note vol="100" pos="576" pan="0" len="144" key="46"/>
          <note vol="100" pos="720" pan="0" len="48" key="42"/>
        </midiclip>
        <midiclip type="1" steps="16" name="" pos="6528" muted="0">
          <note vol="100" pos="0" pan="0" len="72" key="45"/>
          <note vol="100" pos="72" pan="0" len="120" key="33"/>
          <note vol="100" pos="192" pan="0" len="96" key="40"/>
          <note vol="100" pos="288" pan="0" len="48" key="39"/>
          <note vol="100" pos="336" pan="0" len="48" key="37"/>
          <note vol="100" pos="384" pan="0" len="72" key="39"/>
          <note vol="100" pos="456" pan="0" len="120" key="35"/>
          <note vol="100" pos="576" pan="0" len="96" key="34"/>
          <note vol="100" pos="672" pan="0" len="96" key="37"/>
        </midiclip>
        <midiclip type="1" steps="16" name="" pos="7296" muted="0">
          <note vol="100" pos="0" pan="0" len="72" key="45"/>
          <note vol="100" pos="72" pan="0" len="120" key="33"/>
          <note vol="100" pos="192" pan="0" len="96" key="40"/>
          <note vol="100" pos="288" pan="0" len="48" key="39"/>
          <note vol="100" pos="336" pan="0" len="48" key="37"/>
          <note vol="100" pos="384" pan="0" len="72" key="39"/>
          <note vol="100" pos="456" pan="0" len="120" key="35"/>
          <note vol="100" pos="576" pan="0" len="96" key="40"/>
          <note vol="100" pos="672" pan="0" len="96" key="37"/>
        </midiclip>
        <midiclip type="1" steps="16" name="" pos="8064" muted="0">
          <note vol="100" pos="0" pan="0" len="384" key="30"/>
        </midiclip>
      </track>
      <track type="5" solo="0" mutedBeforeSolo="0" name="Strings>Volume" muted="0">
        <automationtrack/>
        <automationclip name="Strings>Volume" pos="5760" prog="0" len="192" tens="1" mute="0">
          <time outValue="100" pos="0" value="100"/>
          <object id="19009"/>
        </automationclip>
        <automationclip name="Strings>Volume" pos="8064" prog="2" len="384" tens="0" mute="0">
          <time outValue="100" pos="0" value="100"/>
          <time outValue="0" pos="384" value="0"/>
          <object id="19009"/>
        </automationclip>
        <automationclip name="Strings>Volume" pos="0" prog="0" len="192" tens="1" mute="0">
          <time outValue="100" pos="0" value="100"/>
          <object id="19009"/>
        </automationclip>
      </track>
      <track type="0" solo="0" mutedBeforeSolo="0" name="Drums" muted="0">
        <instrumenttrack range_import="1" enablecc="0" scale="0" enabled="0" basenote="69" mixch="6" usemasterpitch="0" pan="0" lastkey="127" pitch="0" pitchrange="1" keymap="0" firstkey="0">
          <vol id="3684" value="12.9322" scale_type="linear"/>
          <midicontrollers cc32="0" cc52="0" cc91="0" cc71="0" cc57="0" cc75="0" cc84="0" cc13="0" cc122="0" cc106="0" cc27="0" cc14="0" cc5="0" cc59="0" cc76="0" cc110="0" cc40="0" cc97="0" cc49="0" cc112="0" cc62="0" cc124="0" cc37="0" cc64="0" cc66="0" cc35="0" cc58="0" cc78="0" cc85="0" cc24="0" cc123="0" cc6="0" cc125="0" cc69="0" cc23="0" cc98="0" cc95="0" cc15="0" cc127="0" cc4="0" cc111="0" cc61="0" cc109="0" cc53="0" cc29="0" cc41="0" cc17="0" cc83="0" cc19="0" cc31="0" cc94="0" cc11="0" cc46="0" cc51="0" cc101="0" cc60="0" cc56="0" cc119="0" cc88="0" cc34="0" cc39="0" cc44="0" cc115="0" cc42="0" cc28="0" cc26="0" cc100="0" cc12="0" cc121="0" cc48="0" cc33="0" cc8="0" cc114="0" cc7="0" cc92="0" cc120="0" cc82="0" cc74="0" cc0="0" cc55="0" cc67="0" cc103="0" cc54="0" cc72="0" cc104="0" cc81="0" cc102="0" cc30="0" cc47="0" cc113="0" cc118="0" cc89="0" cc45="0" cc38="0" cc9="0" cc77="0" cc105="0" cc36="0" cc25="0" cc63="0" cc117="0" cc1="0" cc68="0" cc21="0" cc99="0" cc65="0" cc107="0" cc79="0" cc87="0" cc116="0" cc86="0" cc108="0" cc70="0" cc80="0" cc20="0" cc90="0" cc126="0" cc16="0" cc22="0" cc96="0" cc18="0" cc10="0" cc2="0" cc43="0" cc93="0" cc50="0" cc3="0" cc73="0"/>
          <instrument name="sf2player">
            <sf2player bank="128" patch="0" gain="0.4" chorusOn="0" src="usersoundfont:Orpheus_1.047e.sf2" chorusLevel="2" reverbRoomSize="0.2" reverbDamping="0" reverbWidth="0.5" chorusDepth="8" reverbLevel="0.9" chorusNum="3" reverbOn="0" chorusSpeed="0.3">
              <key/>
            </sf2player>
          </instrument>
          <eldata fcut="14000" fres="0.5" fwet="0" ftype="0">
            <elvol dec="0.5" lspd="0.1" pdel="0" amt="0" latt="0" lshp="0" rel="0.1" x100="0" att="0" lspd_numerator="4" ctlenvamt="0" lspd_syncmode="0" lamt="0" lpdel="0" userwavefile="" hold="0.5" sustain="0.5" lspd_denominator="4"/>
            <elcut dec="0.5" lspd="0.1" pdel="0" amt="0" latt="0" lshp="0" rel="0.1" x100="0" att="0" lspd_numerator="4" ctlenvamt="0" lspd_syncmode="0" lamt="0" lpdel="0" userwavefile="" hold="0.5" sustain="0.5" lspd_denominator="4"/>
            <elres dec="0.5" lspd="0.1" pdel="0" amt="0" latt="0" lshp="0" rel="0.1" x100="0" att="0" lspd_numerator="4" ctlenvamt="0" lspd_syncmode="0" lamt="0" lpdel="0" userwavefile="" hold="0.5" sustain="0.5" lspd_denominator="4"/>
          </eldata>
          <chordcreator chord-enabled="0" chord="0" chordrange="1"/>
          <arpeggiator arptime="200" arpgate="100" arprepeats="1" arptime_denominator="4" arp="0" arpmode="0" arp-enabled="0" arpdir="0" arprange="1" arpmiss="0" arptime_syncmode="0" arpskip="0" arptime_numerator="4" arpcycle="0"/>
          <midiport outputchannel="1" outputcontroller="0" outputprogram="1" fixedoutputnote="-1" fixedoutputvelocity="-1" inputcontroller="0" basevelocity="127" fixedinputvelocity="-1" writable="0" inports="" inputchannel="0" readable="1"/>
          <fxchain enabled="0" numofeffects="0"/>
        </instrumenttrack>
        <midiclip type="1" steps="16" name="" pos="3456" muted="0">
          <note vol="100" pos="0" pan="0" len="12" key="36"/>
          <note vol="100" pos="24" pan="0" len="12" key="42"/>
          <note vol="100" pos="24" pan="0" len="12" key="35"/>
          <note vol="100" pos="48" pan="0" len="12" key="38"/>
          <note vol="100" pos="48" pan="0" len="12" key="36"/>
          <note vol="100" pos="60" pan="0" len="12" key="44"/>
          <note vol="100" pos="72" pan="0" len="12" key="42"/>
          <note vol="100" pos="72" pan="0" len="12" key="35"/>
          <note vol="100" pos="84" pan="0" len="12" key="44"/>
          <note vol="100" pos="96" pan="0" len="12" key="36"/>
          <note vol="100" pos="120" pan="0" len="12" key="42"/>
          <note vol="100" pos="120" pan="0" len="12" key="35"/>
          <note vol="100" pos="144" pan="0" len="12" key="38"/>
          <note vol="100" pos="144" pan="0" len="12" key="36"/>
          <note vol="100" pos="156" pan="0" len="12" key="44"/>
          <note vol="100" pos="168" pan="0" len="12" key="42"/>
          <note vol="100" pos="168" pan="0" len="12" key="35"/>
          <note vol="100" pos="180" pan="0" len="12" key="53"/>
          <note vol="100" pos="192" pan="0" len="12" key="36"/>
          <note vol="100" pos="216" pan="0" len="12" key="42"/>
          <note vol="100" pos="216" pan="0" len="12" key="35"/>
          <note vol="100" pos="240" pan="0" len="12" key="38"/>
          <note vol="100" pos="240" pan="0" len="12" key="36"/>
          <note vol="100" pos="252" pan="0" len="12" key="44"/>
          <note vol="100" pos="264" pan="0" len="12" key="42"/>
          <note vol="100" pos="264" pan="0" len="12" key="35"/>
          <note vol="100" pos="276" pan="0" len="12" key="44"/>
          <note vol="100" pos="288" pan="0" len="12" key="36"/>
          <note vol="100" pos="312" pan="0" len="12" key="42"/>
          <note vol="100" pos="312" pan="0" len="12" key="35"/>
          <note vol="100" pos="336" pan="0" len="12" key="38"/>
          <note vol="100" pos="336" pan="0" len="12" key="36"/>
          <note vol="100" pos="348" pan="0" len="12" key="44"/>
          <note vol="100" pos="360" pan="0" len="12" key="46"/>
          <note vol="100" pos="360" pan="0" len="12" key="42"/>
          <note vol="100" pos="360" pan="0" len="12" key="35"/>
          <note vol="100" pos="372" pan="0" len="12" key="44"/>
        </midiclip>
        <midiclip type="1" steps="16" name="" pos="3840" muted="0">
          <note vol="100" pos="0" pan="0" len="12" key="36"/>
          <note vol="100" pos="24" pan="0" len="12" key="42"/>
          <note vol="100" pos="24" pan="0" len="12" key="35"/>
          <note vol="100" pos="48" pan="0" len="12" key="38"/>
          <note vol="100" pos="48" pan="0" len="12" key="36"/>
          <note vol="100" pos="60" pan="0" len="12" key="44"/>
          <note vol="100" pos="72" pan="0" len="12" key="42"/>
          <note vol="100" pos="72" pan="0" len="12" key="35"/>
          <note vol="100" pos="84" pan="0" len="12" key="44"/>
          <note vol="100" pos="96" pan="0" len="12" key="36"/>
          <note vol="100" pos="120" pan="0" len="12" key="42"/>
          <note vol="100" pos="120" pan="0" len="12" key="35"/>
          <note vol="100" pos="144" pan="0" len="12" key="38"/>
          <note vol="100" pos="144" pan="0" len="12" key="36"/>
          <note vol="100" pos="156" pan="0" len="12" key="44"/>
          <note vol="100" pos="168" pan="0" len="12" key="42"/>
          <note vol="100" pos="168" pan="0" len="12" key="35"/>
          <note vol="100" pos="180" pan="0" len="12" key="53"/>
          <note vol="100" pos="192" pan="0" len="12" key="36"/>
          <note vol="100" pos="216" pan="0" len="12" key="42"/>
          <note vol="100" pos="216" pan="0" len="12" key="35"/>
          <note vol="100" pos="240" pan="0" len="12" key="38"/>
          <note vol="100" pos="240" pan="0" len="12" key="36"/>
          <note vol="100" pos="252" pan="0" len="12" key="44"/>
          <note vol="100" pos="264" pan="0" len="12" key="42"/>
          <note vol="100" pos="264" pan="0" len="12" key="35"/>
          <note vol="100" pos="276" pan="0" len="12" key="44"/>
          <note vol="100" pos="288" pan="0" len="12" key="36"/>
          <note vol="100" pos="312" pan="0" len="12" key="42"/>
          <note vol="100" pos="312" pan="0" len="12" key="35"/>
          <note vol="100" pos="336" pan="0" len="12" key="38"/>
          <note vol="100" pos="336" pan="0" len="12" key="36"/>
          <note vol="100" pos="348" pan="0" len="12" key="44"/>
          <note vol="100" pos="360" pan="0" len="12" key="46"/>
          <note vol="100" pos="360" pan="0" len="12" key="42"/>
          <note vol="100" pos="360" pan="0" len="12" key="35"/>
          <note vol="100" pos="372" pan="0" len="12" key="44"/>
        </midiclip>
        <midiclip type="1" steps="16" name="" pos="4224" muted="0">
          <note vol="100" pos="0" pan="0" len="12" key="36"/>
          <note vol="100" pos="24" pan="0" len="12" key="42"/>
          <note vol="100" pos="24" pan="0" len="12" key="35"/>
          <note vol="100" pos="48" pan="0" len="12" key="38"/>
          <note vol="100" pos="48" pan="0" len="12" key="36"/>
          <note vol="100" pos="60" pan="0" len="12" key="44"/>
          <note vol="100" pos="72" pan="0" len="12" key="42"/>
          <note vol="100" pos="72" pan="0" len="12" key="35"/>
          <note vol="100" pos="84" pan="0" len="12" key="44"/>
          <note vol="100" pos="96" pan="0" len="12" key="36"/>
          <note vol="100" pos="120" pan="0" len="12" key="42"/>
          <note vol="100" pos="120" pan="0" len="12" key="35"/>
          <note vol="100" pos="144" pan="0" len="12" key="38"/>
          <note vol="100" pos="144" pan="0" len="12" key="36"/>
          <note vol="100" pos="156" pan="0" len="12" key="44"/>
          <note vol="100" pos="168" pan="0" len="12" key="42"/>
          <note vol="100" pos="168" pan="0" len="12" key="35"/>
          <note vol="100" pos="180" pan="0" len="12" key="53"/>
          <note vol="100" pos="192" pan="0" len="12" key="36"/>
          <note vol="100" pos="216" pan="0" len="12" key="42"/>
          <note vol="100" pos="216" pan="0" len="12" key="35"/>
          <note vol="100" pos="240" pan="0" len="12" key="38"/>
          <note vol="100" pos="240" pan="0" len="12" key="36"/>
          <note vol="100" pos="252" pan="0" len="12" key="44"/>
          <note vol="100" pos="264" pan="0" len="12" key="42"/>
          <note vol="100" pos="264" pan="0" len="12" key="35"/>
          <note vol="100" pos="276" pan="0" len="12" key="44"/>
          <note vol="100" pos="288" pan="0" len="12" key="36"/>
          <note vol="100" pos="312" pan="0" len="12" key="42"/>
          <note vol="100" pos="312" pan="0" len="12" key="35"/>
          <note vol="100" pos="336" pan="0" len="12" key="38"/>
          <note vol="100" pos="336" pan="0" len="12" key="36"/>
          <note vol="100" pos="348" pan="0" len="12" key="44"/>
          <note vol="100" pos="360" pan="0" len="12" key="46"/>
          <note vol="100" pos="360" pan="0" len="12" key="42"/>
          <note vol="100" pos="360" pan="0" len="12" key="35"/>
          <note vol="100" pos="372" pan="0" len="12" key="44"/>
        </midiclip>
        <midiclip type="1" steps="16" name="" pos="4608" muted="0">
          <note vol="100" pos="0" pan="0" len="12" key="36"/>
          <note vol="100" pos="24" pan="0" len="12" key="42"/>
          <note vol="100" pos="24" pan="0" len="12" key="35"/>
          <note vol="100" pos="48" pan="0" len="12" key="38"/>
          <note vol="100" pos="48" pan="0" len="12" key="36"/>
          <note vol="100" pos="60" pan="0" len="12" key="44"/>
          <note vol="100" pos="72" pan="0" len="12" key="42"/>
          <note vol="100" pos="72" pan="0" len="12" key="35"/>
          <note vol="100" pos="84" pan="0" len="12" key="44"/>
          <note vol="100" pos="96" pan="0" len="12" key="36"/>
          <note vol="100" pos="120" pan="0" len="12" key="42"/>
          <note vol="100" pos="120" pan="0" len="12" key="35"/>
          <note vol="100" pos="144" pan="0" len="12" key="38"/>
          <note vol="100" pos="144" pan="0" len="12" key="36"/>
          <note vol="100" pos="156" pan="0" len="12" key="44"/>
          <note vol="100" pos="168" pan="0" len="12" key="42"/>
          <note vol="100" pos="168" pan="0" len="12" key="35"/>
          <note vol="100" pos="180" pan="0" len="12" key="53"/>
          <note vol="100" pos="192" pan="0" len="12" key="36"/>
          <note vol="100" pos="216" pan="0" len="12" key="42"/>
          <note vol="100" pos="216" pan="0" len="12" key="35"/>
          <note vol="100" pos="240" pan="0" len="12" key="38"/>
          <note vol="100" pos="240" pan="0" len="12" key="36"/>
          <note vol="100" pos="252" pan="0" len="12" key="44"/>
          <note vol="100" pos="264" pan="0" len="12" key="42"/>
          <note vol="100" pos="264" pan="0" len="12" key="35"/>
          <note vol="100" pos="276" pan="0" len="12" key="44"/>
          <note vol="100" pos="288" pan="0" len="12" key="36"/>
          <note vol="100" pos="312" pan="0" len="12" key="42"/>
          <note vol="100" pos="312" pan="0" len="12" key="35"/>
          <note vol="100" pos="336" pan="0" len="12" key="38"/>
          <note vol="100" pos="336" pan="0" len="12" key="36"/>
          <note vol="100" pos="348" pan="0" len="12" key="44"/>
          <note vol="100" pos="360" pan="0" len="12" key="46"/>
          <note vol="100" pos="360" pan="0" len="12" key="42"/>
          <note vol="100" pos="360" pan="0" len="12" key="35"/>
          <note vol="100" pos="372" pan="0" len="12" key="44"/>
        </midiclip>
        <midiclip type="1" steps="16" name="" pos="4992" muted="0">
          <note vol="100" pos="0" pan="0" len="12" key="36"/>
          <note vol="100" pos="36" pan="0" len="12" key="42"/>
          <note vol="100" pos="48" pan="0" len="12" key="35"/>
          <note vol="100" pos="72" pan="0" len="12" key="42"/>
          <note vol="100" pos="96" pan="0" len="12" key="38"/>
          <note vol="100" pos="96" pan="0" len="12" key="36"/>
          <note vol="100" pos="144" pan="0" len="12" key="35"/>
          <note vol="100" pos="168" pan="0" len="12" key="42"/>
          <note vol="100" pos="192" pan="0" len="12" key="36"/>
          <note vol="100" pos="228" pan="0" len="12" key="42"/>
          <note vol="100" pos="240" pan="0" len="12" key="35"/>
          <note vol="100" pos="264" pan="0" len="12" key="42"/>
          <note vol="100" pos="288" pan="0" len="12" key="38"/>
          <note vol="100" pos="288" pan="0" len="12" key="36"/>
          <note vol="100" pos="336" pan="0" len="12" key="46"/>
          <note vol="100" pos="336" pan="0" len="12" key="35"/>
          <note vol="100" pos="360" pan="0" len="12" key="42"/>
        </midiclip>
        <midiclip type="1" steps="16" name="" pos="5376" muted="0">
          <note vol="100" pos="0" pan="0" len="12" key="36"/>
          <note vol="100" pos="36" pan="0" len="12" key="42"/>
          <note vol="100" pos="48" pan="0" len="12" key="35"/>
          <note vol="100" pos="72" pan="0" len="12" key="42"/>
          <note vol="100" pos="96" pan="0" len="12" key="38"/>
          <note vol="100" pos="96" pan="0" len="12" key="36"/>
          <note vol="100" pos="144" pan="0" len="12" key="35"/>
          <note vol="100" pos="168" pan="0" len="12" key="42"/>
          <note vol="100" pos="192" pan="0" len="12" key="36"/>
          <note vol="100" pos="228" pan="0" len="12" key="42"/>
          <note vol="100" pos="240" pan="0" len="12" key="35"/>
          <note vol="100" pos="264" pan="0" len="12" key="42"/>
          <note vol="100" pos="288" pan="0" len="12" key="38"/>
          <note vol="100" pos="288" pan="0" len="12" key="36"/>
          <note vol="100" pos="336" pan="0" len="12" key="51"/>
          <note vol="100" pos="336" pan="0" len="12" key="35"/>
        </midiclip>
        <midiclip type="1" steps="16" name="" pos="5760" muted="0">
          <note vol="100" pos="0" pan="0" len="12" key="36"/>
          <note vol="100" pos="36" pan="0" len="12" key="42"/>
          <note vol="100" pos="48" pan="0" len="12" key="35"/>
          <note vol="100" pos="72" pan="0" len="12" key="42"/>
          <note vol="100" pos="96" pan="0" len="12" key="38"/>
          <note vol="100" pos="96" pan="0" len="12" key="36"/>
          <note vol="100" pos="144" pan="0" len="12" key="35"/>
          <note vol="100" pos="168" pan="0" len="12" key="42"/>
          <note vol="100" pos="192" pan="0" len="12" key="36"/>
          <note vol="100" pos="228" pan="0" len="12" key="42"/>
          <note vol="100" pos="240" pan="0" len="12" key="35"/>
          <note vol="100" pos="264" pan="0" len="12" key="42"/>
          <note vol="100" pos="288" pan="0" len="12" key="38"/>
          <note vol="100" pos="288" pan="0" len="12" key="36"/>
          <note vol="100" pos="336" pan="0" len="12" key="46"/>
          <note vol="100" pos="336" pan="0" len="12" key="35"/>
          <note vol="100" pos="360" pan="0" len="12" key="42"/>
        </midiclip>
        <midiclip type="1" steps="16" name="" pos="6144" muted="0">
          <note vol="100" pos="0" pan="0" len="12" key="36"/>
          <note vol="100" pos="36" pan="0" len="12" key="42"/>
          <note vol="100" pos="48" pan="0" len="12" key="35"/>
          <note vol="100" pos="72" pan="0" len="12" key="42"/>
          <note vol="100" pos="96" pan="0" len="12" key="38"/>
          <note vol="100" pos="96" pan="0" len="12" key="36"/>
          <note vol="100" pos="144" pan="0" len="12" key="35"/>
          <note vol="100" pos="168" pan="0" len="12" key="42"/>
          <note vol="100" pos="192" pan="0" len="12" key="36"/>
          <note vol="100" pos="228" pan="0" len="12" key="42"/>
          <note vol="100" pos="240" pan="0" len="12" key="35"/>
          <note vol="100" pos="264" pan="0" len="12" key="42"/>
          <note vol="100" pos="288" pan="0" len="12" key="38"/>
          <note vol="100" pos="288" pan="0" len="12" key="36"/>
          <note vol="100" pos="336" pan="0" len="12" key="51"/>
          <note vol="100" pos="336" pan="0" len="12" key="35"/>
        </midiclip>
        <midiclip type="1" steps="16" name="" pos="6528" muted="0">
          <note vol="100" pos="0" pan="0" len="12" key="36"/>
          <note vol="100" pos="36" pan="0" len="12" key="42"/>
          <note vol="100" pos="48" pan="0" len="12" key="35"/>
          <note vol="100" pos="72" pan="0" len="12" key="42"/>
          <note vol="100" pos="96" pan="0" len="12" key="38"/>
          <note vol="100" pos="96" pan="0" len="12" key="36"/>
          <note vol="100" pos="144" pan="0" len="12" key="35"/>
          <note vol="100" pos="168" pan="0" len="12" key="42"/>
          <note vol="100" pos="192" pan="0" len="12" key="36"/>
          <note vol="100" pos="228" pan="0" len="12" key="42"/>
          <note vol="100" pos="240" pan="0" len="12" key="35"/>
          <note vol="100" pos="264" pan="0" len="12" key="42"/>
          <note vol="100" pos="288" pan="0" len="12" key="38"/>
          <note vol="100" pos="288" pan="0" len="12" key="36"/>
          <note vol="100" pos="336" pan="0" len="12" key="51"/>
          <note vol="100" pos="336" pan="0" len="12" key="35"/>
        </midiclip>
        <midiclip type="1" steps="16" name="" pos="6912" muted="0">
          <note vol="100" pos="0" pan="0" len="12" key="36"/>
          <note vol="100" pos="36" pan="0" len="12" key="42"/>
          <note vol="100" pos="48" pan="0" len="12" key="35"/>
          <note vol="100" pos="72" pan="0" len="12" key="42"/>
          <note vol="100" pos="96" pan="0" len="12" key="38"/>
          <note vol="100" pos="96" pan="0" len="12" key="36"/>
          <note vol="100" pos="144" pan="0" len="12" key="35"/>
          <note vol="100" pos="168" pan="0" len="12" key="42"/>
          <note vol="100" pos="192" pan="0" len="12" key="36"/>
          <note vol="100" pos="228" pan="0" len="12" key="42"/>
          <note vol="100" pos="240" pan="0" len="12" key="35"/>
          <note vol="100" pos="264" pan="0" len="12" key="42"/>
          <note vol="100" pos="288" pan="0" len="12" key="38"/>
          <note vol="100" pos="288" pan="0" len="12" key="36"/>
          <note vol="100" pos="336" pan="0" len="12" key="51"/>
          <note vol="100" pos="336" pan="0" len="12" key="35"/>
        </midiclip>
        <midiclip type="1" steps="16" name="" pos="7296" muted="0">
          <note vol="100" pos="0" pan="0" len="12" key="36"/>
          <note vol="100" pos="36" pan="0" len="12" key="42"/>
          <note vol="100" pos="48" pan="0" len="12" key="35"/>
          <note vol="100" pos="72" pan="0" len="12" key="42"/>
          <note vol="100" pos="96" pan="0" len="12" key="38"/>
          <note vol="100" pos="96" pan="0" len="12" key="36"/>
          <note vol="100" pos="144" pan="0" len="12" key="35"/>
          <note vol="100" pos="168" pan="0" len="12" key="42"/>
          <note vol="100" pos="192" pan="0" len="12" key="36"/>
          <note vol="100" pos="228" pan="0" len="12" key="42"/>
          <note vol="100" pos="240" pan="0" len="12" key="35"/>
          <note vol="100" pos="264" pan="0" len="12" key="42"/>
          <note vol="100" pos="288" pan="0" len="12" key="38"/>
          <note vol="100" pos="288" pan="0" len="12" key="36"/>
          <note vol="100" pos="336" pan="0" len="12" key="51"/>
          <note vol="100" pos="336" pan="0" len="12" key="35"/>
        </midiclip>
        <midiclip type="1" steps="16" name="" pos="7680" muted="0">
          <note vol="100" pos="0" pan="0" len="12" key="36"/>
          <note vol="100" pos="36" pan="0" len="12" key="42"/>
          <note vol="100" pos="48" pan="0" len="12" key="35"/>
          <note vol="100" pos="72" pan="0" len="12" key="42"/>
          <note vol="100" pos="96" pan="0" len="12" key="38"/>
          <note vol="100" pos="96" pan="0" len="12" key="36"/>
          <note vol="100" pos="144" pan="0" len="12" key="35"/>
          <note vol="100" pos="168" pan="0" len="12" key="42"/>
          <note vol="100" pos="192" pan="0" len="12" key="36"/>
          <note vol="100" pos="228" pan="0" len="12" key="42"/>
          <note vol="100" pos="240" pan="0" len="12" key="35"/>
          <note vol="100" pos="264" pan="0" len="12" key="42"/>
          <note vol="100" pos="288" pan="0" len="12" key="38"/>
          <note vol="100" pos="288" pan="0" len="12" key="36"/>
          <note vol="100" pos="336" pan="0" len="12" key="51"/>
          <note vol="100" pos="336" pan="0" len="12" key="35"/>
        </midiclip>
        <midiclip type="1" steps="16" name="" pos="3072" muted="0">
          <note vol="100" pos="0" pan="0" len="144" key="51"/>
          <note vol="100" pos="0" pan="0" len="12" key="36"/>
          <note vol="100" pos="36" pan="0" len="12" key="42"/>
          <note vol="100" pos="48" pan="0" len="12" key="46"/>
          <note vol="100" pos="72" pan="0" len="12" key="44"/>
          <note vol="100" pos="96" pan="0" len="96" key="59"/>
          <note vol="100" pos="96" pan="0" len="12" key="36"/>
          <note vol="100" pos="144" pan="0" len="96" key="51"/>
          <note vol="100" pos="144" pan="0" len="12" key="35"/>
          <note vol="100" pos="168" pan="0" len="12" key="46"/>
          <note vol="100" pos="192" pan="0" len="12" key="36"/>
          <note vol="100" pos="228" pan="0" len="12" key="42"/>
          <note vol="100" pos="240" pan="0" len="144" key="51"/>
          <note vol="100" pos="264" pan="0" len="12" key="44"/>
          <note vol="100" pos="288" pan="0" len="12" key="36"/>
          <note vol="100" pos="300" pan="0" len="12" key="42"/>
          <note vol="100" pos="336" pan="0" len="48" key="59"/>
          <note vol="100" pos="336" pan="0" len="12" key="44"/>
          <note vol="100" pos="336" pan="0" len="12" key="35"/>
          <note vol="100" pos="360" pan="0" len="12" key="44"/>
          <note vol="100" pos="372" pan="0" len="12" key="42"/>
        </midiclip>
        <midiclip type="1" steps="16" name="" pos="1536" muted="0">
          <note vol="100" pos="0" pan="0" len="72" key="53"/>
          <note vol="100" pos="72" pan="0" len="72" key="53"/>
          <note vol="100" pos="144" pan="0" len="48" key="53"/>
          <note vol="100" pos="192" pan="0" len="192" key="51"/>
          <note vol="100" pos="288" pan="0" len="96" key="59"/>
        </midiclip>
        <midiclip type="1" steps="16" name="" pos="1920" muted="0">
          <note vol="100" pos="0" pan="0" len="72" key="53"/>
          <note vol="100" pos="72" pan="0" len="72" key="53"/>
          <note vol="100" pos="144" pan="0" len="48" key="53"/>
          <note vol="100" pos="192" pan="0" len="192" key="51"/>
          <note vol="100" pos="288" pan="0" len="96" key="59"/>
        </midiclip>
        <midiclip type="1" steps="16" name="" pos="2304" muted="0">
          <note vol="100" pos="0" pan="0" len="72" key="53"/>
          <note vol="100" pos="72" pan="0" len="72" key="53"/>
          <note vol="100" pos="144" pan="0" len="48" key="53"/>
          <note vol="100" pos="192" pan="0" len="192" key="51"/>
          <note vol="100" pos="288" pan="0" len="96" key="59"/>
        </midiclip>
        <midiclip type="1" steps="16" name="" pos="2688" muted="0">
          <note vol="100" pos="0" pan="0" len="72" key="53"/>
          <note vol="100" pos="72" pan="0" len="72" key="53"/>
          <note vol="100" pos="144" pan="0" len="48" key="53"/>
          <note vol="100" pos="192" pan="0" len="192" key="51"/>
          <note vol="100" pos="288" pan="0" len="96" key="59"/>
        </midiclip>
        <midiclip type="1" steps="16" name="" pos="8064" muted="0">
          <note vol="100" pos="0" pan="0" len="384" key="59"/>
        </midiclip>
        <midiclip type="1" steps="16" name="" pos="8448" muted="0">
          <note vol="100" pos="0" pan="0" len="12" key="36"/>
          <note vol="100" pos="36" pan="0" len="12" key="42"/>
          <note vol="100" pos="72" pan="0" len="12" key="42"/>
          <note vol="100" pos="72" pan="0" len="12" key="35"/>
          <note vol="100" pos="96" pan="0" len="12" key="38"/>
          <note vol="100" pos="96" pan="0" len="12" key="36"/>
          <note vol="100" pos="144" pan="0" len="48" key="46"/>
          <note vol="100" pos="144" pan="0" len="12" key="35"/>
          <note vol="100" pos="192" pan="0" len="12" key="36"/>
          <note vol="100" pos="228" pan="0" len="12" key="42"/>
          <note vol="100" pos="264" pan="0" len="12" key="42"/>
          <note vol="100" pos="264" pan="0" len="12" key="35"/>
          <note vol="100" pos="288" pan="0" len="12" key="38"/>
          <note vol="100" pos="288" pan="0" len="12" key="36"/>
          <note vol="100" pos="336" pan="0" len="48" key="51"/>
          <note vol="100" pos="336" pan="0" len="12" key="35"/>
          <note vol="100" pos="360" pan="0" len="12" key="42"/>
        </midiclip>
        <midiclip type="1" steps="16" name="" pos="8832" muted="0">
          <note vol="100" pos="0" pan="0" len="12" key="36"/>
          <note vol="100" pos="36" pan="0" len="12" key="42"/>
          <note vol="100" pos="72" pan="0" len="12" key="42"/>
          <note vol="100" pos="72" pan="0" len="12" key="35"/>
          <note vol="100" pos="96" pan="0" len="12" key="38"/>
          <note vol="100" pos="96" pan="0" len="12" key="36"/>
          <note vol="100" pos="144" pan="0" len="48" key="46"/>
          <note vol="100" pos="144" pan="0" len="12" key="35"/>
          <note vol="100" pos="192" pan="0" len="12" key="36"/>
          <note vol="100" pos="228" pan="0" len="12" key="42"/>
          <note vol="100" pos="264" pan="0" len="12" key="42"/>
          <note vol="100" pos="264" pan="0" len="12" key="35"/>
          <note vol="100" pos="288" pan="0" len="12" key="38"/>
          <note vol="100" pos="288" pan="0" len="12" key="36"/>
          <note vol="100" pos="336" pan="0" len="48" key="51"/>
          <note vol="100" pos="336" pan="0" len="12" key="35"/>
          <note vol="100" pos="360" pan="0" len="12" key="42"/>
        </midiclip>
        <midiclip type="1" steps="16" name="" pos="9216" muted="0">
          <note vol="100" pos="0" pan="0" len="12" key="36"/>
          <note vol="100" pos="36" pan="0" len="12" key="42"/>
          <note vol="100" pos="72" pan="0" len="12" key="42"/>
          <note vol="100" pos="72" pan="0" len="12" key="35"/>
          <note vol="100" pos="96" pan="0" len="12" key="38"/>
          <note vol="100" pos="96" pan="0" len="12" key="36"/>
          <note vol="100" pos="144" pan="0" len="48" key="46"/>
          <note vol="100" pos="144" pan="0" len="12" key="35"/>
          <note vol="100" pos="192" pan="0" len="12" key="36"/>
          <note vol="100" pos="228" pan="0" len="12" key="42"/>
          <note vol="100" pos="264" pan="0" len="12" key="42"/>
          <note vol="100" pos="264" pan="0" len="12" key="35"/>
          <note vol="100" pos="288" pan="0" len="12" key="38"/>
          <note vol="100" pos="288" pan="0" len="12" key="36"/>
          <note vol="100" pos="336" pan="0" len="48" key="51"/>
          <note vol="100" pos="336" pan="0" len="12" key="35"/>
          <note vol="100" pos="360" pan="0" len="12" key="42"/>
        </midiclip>
        <midiclip type="1" steps="16" name="" pos="9600" muted="0">
          <note vol="100" pos="0" pan="0" len="12" key="36"/>
          <note vol="100" pos="36" pan="0" len="12" key="42"/>
          <note vol="100" pos="72" pan="0" len="12" key="42"/>
          <note vol="100" pos="72" pan="0" len="12" key="35"/>
          <note vol="100" pos="96" pan="0" len="12" key="38"/>
          <note vol="100" pos="96" pan="0" len="12" key="36"/>
          <note vol="100" pos="144" pan="0" len="48" key="46"/>
          <note vol="100" pos="144" pan="0" len="12" key="35"/>
          <note vol="100" pos="192" pan="0" len="12" key="36"/>
          <note vol="100" pos="228" pan="0" len="12" key="42"/>
          <note vol="100" pos="264" pan="0" len="12" key="42"/>
          <note vol="100" pos="264" pan="0" len="12" key="35"/>
          <note vol="100" pos="288" pan="0" len="12" key="38"/>
          <note vol="100" pos="288" pan="0" len="12" key="36"/>
          <note vol="100" pos="336" pan="0" len="48" key="51"/>
          <note vol="100" pos="336" pan="0" len="12" key="35"/>
          <note vol="100" pos="360" pan="0" len="12" key="42"/>
        </midiclip>
        <midiclip type="1" steps="16" name="" pos="9984" muted="0">
          <note vol="100" pos="0" pan="0" len="12" key="36"/>
          <note vol="100" pos="36" pan="0" len="12" key="42"/>
          <note vol="100" pos="72" pan="0" len="12" key="42"/>
          <note vol="100" pos="72" pan="0" len="12" key="35"/>
          <note vol="100" pos="96" pan="0" len="12" key="38"/>
          <note vol="100" pos="96" pan="0" len="12" key="36"/>
          <note vol="100" pos="144" pan="0" len="48" key="46"/>
          <note vol="100" pos="144" pan="0" len="12" key="35"/>
          <note vol="100" pos="192" pan="0" len="12" key="36"/>
          <note vol="100" pos="228" pan="0" len="12" key="42"/>
          <note vol="100" pos="264" pan="0" len="12" key="42"/>
          <note vol="100" pos="264" pan="0" len="12" key="35"/>
          <note vol="100" pos="288" pan="0" len="12" key="38"/>
          <note vol="100" pos="288" pan="0" len="12" key="36"/>
          <note vol="100" pos="336" pan="0" len="48" key="51"/>
          <note vol="100" pos="336" pan="0" len="12" key="35"/>
          <note vol="100" pos="360" pan="0" len="12" key="42"/>
        </midiclip>
        <midiclip type="1" steps="16" name="" pos="10368" muted="0">
          <note vol="100" pos="0" pan="0" len="12" key="36"/>
          <note vol="100" pos="36" pan="0" len="12" key="42"/>
          <note vol="100" pos="72" pan="0" len="12" key="42"/>
          <note vol="100" pos="72" pan="0" len="12" key="35"/>
          <note vol="100" pos="96" pan="0" len="12" key="38"/>
          <note vol="100" pos="96" pan="0" len="12" key="36"/>
          <note vol="100" pos="144" pan="0" len="48" key="46"/>
          <note vol="100" pos="144" pan="0" len="12" key="35"/>
          <note vol="100" pos="192" pan="0" len="12" key="36"/>
          <note vol="100" pos="228" pan="0" len="12" key="42"/>
          <note vol="100" pos="264" pan="0" len="12" key="42"/>
          <note vol="100" pos="264" pan="0" len="12" key="35"/>
          <note vol="100" pos="288" pan="0" len="12" key="38"/>
          <note vol="100" pos="288" pan="0" len="12" key="36"/>
          <note vol="100" pos="336" pan="0" len="48" key="51"/>
          <note vol="100" pos="336" pan="0" len="12" key="35"/>
          <note vol="100" pos="360" pan="0" len="12" key="42"/>
        </midiclip>
        <midiclip type="1" steps="16" name="" pos="10752" muted="0">
          <note vol="100" pos="0" pan="0" len="12" key="36"/>
          <note vol="100" pos="36" pan="0" len="12" key="42"/>
          <note vol="100" pos="72" pan="0" len="12" key="42"/>
          <note vol="100" pos="72" pan="0" len="12" key="35"/>
          <note vol="100" pos="96" pan="0" len="12" key="38"/>
          <note vol="100" pos="96" pan="0" len="12" key="36"/>
          <note vol="100" pos="144" pan="0" len="48" key="46"/>
          <note vol="100" pos="144" pan="0" len="12" key="35"/>
          <note vol="100" pos="192" pan="0" len="12" key="36"/>
          <note vol="100" pos="228" pan="0" len="12" key="42"/>
          <note vol="100" pos="264" pan="0" len="12" key="42"/>
          <note vol="100" pos="264" pan="0" len="12" key="35"/>
          <note vol="100" pos="288" pan="0" len="12" key="38"/>
          <note vol="100" pos="288" pan="0" len="12" key="36"/>
          <note vol="100" pos="336" pan="0" len="48" key="51"/>
          <note vol="100" pos="336" pan="0" len="12" key="35"/>
          <note vol="100" pos="360" pan="0" len="12" key="42"/>
        </midiclip>
        <midiclip type="1" steps="16" name="" pos="11136" muted="0">
          <note vol="100" pos="0" pan="0" len="12" key="36"/>
          <note vol="100" pos="36" pan="0" len="12" key="42"/>
          <note vol="100" pos="72" pan="0" len="12" key="42"/>
          <note vol="100" pos="72" pan="0" len="12" key="35"/>
          <note vol="100" pos="96" pan="0" len="12" key="38"/>
          <note vol="100" pos="96" pan="0" len="12" key="36"/>
          <note vol="100" pos="144" pan="0" len="48" key="46"/>
          <note vol="100" pos="144" pan="0" len="12" key="35"/>
          <note vol="100" pos="192" pan="0" len="12" key="36"/>
          <note vol="100" pos="228" pan="0" len="12" key="42"/>
          <note vol="100" pos="264" pan="0" len="12" key="42"/>
          <note vol="100" pos="264" pan="0" len="12" key="35"/>
          <note vol="100" pos="288" pan="0" len="12" key="38"/>
          <note vol="100" pos="288" pan="0" len="12" key="36"/>
          <note vol="100" pos="336" pan="0" len="48" key="51"/>
          <note vol="100" pos="336" pan="0" len="12" key="35"/>
          <note vol="100" pos="360" pan="0" len="12" key="42"/>
        </midiclip>
        <midiclip type="1" steps="16" name="" pos="768" muted="0">
          <note vol="100" pos="0" pan="0" len="72" key="53"/>
          <note vol="100" pos="72" pan="0" len="72" key="53"/>
          <note vol="100" pos="144" pan="0" len="48" key="53"/>
          <note vol="100" pos="192" pan="0" len="192" key="51"/>
          <note vol="100" pos="288" pan="0" len="96" key="59"/>
        </midiclip>
        <midiclip type="1" steps="16" name="" pos="1152" muted="0">
          <note vol="100" pos="0" pan="0" len="72" key="53"/>
          <note vol="100" pos="72" pan="0" len="72" key="53"/>
          <note vol="100" pos="144" pan="0" len="48" key="53"/>
          <note vol="100" pos="192" pan="0" len="192" key="51"/>
          <note vol="100" pos="288" pan="0" len="96" key="59"/>
        </midiclip>
      </track>
      <track type="5" solo="0" mutedBeforeSolo="0" name="Drums>Volume" muted="0">
        <automationtrack/>
        <automationclip name="Drums>Volume" pos="768" prog="2" len="2304" tens="1" mute="0">
          <time outValue="11" pos="0" value="11"/>
          <time outValue="100" pos="2304" value="100"/>
          <object id="3684"/>
        </automationclip>
        <automationclip name="Drums>Volume" pos="3072" prog="0" len="192" tens="1" mute="0">
          <time outValue="100" pos="0" value="100"/>
          <object id="3684"/>
        </automationclip>
        <automationclip name="Drums>Volume" pos="0" prog="0" len="192" tens="1" mute="0">
          <time outValue="12.9322" pos="0" value="12.9322"/>
          <object id="3684"/>
        </automationclip>
      </track>
    </trackcontainer>
    <track type="6" solo="0" mutedBeforeSolo="0" name="Automation track" muted="0">
      <automationtrack/>
      <automationclip name="Numerator" pos="0" prog="0" len="192" tens="1" mute="0"/>
      <automationclip name="Denominator" pos="0" prog="0" len="192" tens="1" mute="0"/>
      <automationclip name="Tempo" pos="0" prog="0" len="192" tens="1" mute="0"/>
      <automationclip name="Master volume" pos="0" prog="0" len="192" tens="1" mute="0"/>
      <automationclip name="Master pitch" pos="0" prog="0" len="192" tens="1" mute="0"/>
    </track>
    <mixer visible="1" width="1565" minimized="0" maximized="0" y="584" x="13" height="333">
      <mixerchannel volume="2" soloed="0" name="Master" muted="0" num="0">
        <fxchain enabled="1" numofeffects="2">
          <effect autoquit_syncmode="0" autoquit="1" wet="1" gate="0" autoquit_numerator="4" name="eq" on="1" autoquit_denominator="4">
            <Eq Peak3bw="0.3" Peak2gain="0" Lowshelfgain="0" LPres="0.707" HPres="0.707" Peak1active="0" HighShelfres="1.4" LowShelfres="1.4" Peak4active="0" LP24="0" LP48="1" Peak1bw="0.3" HP48="1" LP12="0" Peak4gain="0" Highshelfactive="0" HP24="0" HP12="0" HP="2" Peak3gain="0" AnalyseIn="1" Peak2active="0" Lowshelfactive="0" Peak2bw="0.3" Outputgain="0" Peak4bw="0.3" LP="2" AnalyseOut="1" HPactive="1" HighShelfgain="0" LPactive="1" Peak3active="0">
              <Inputgain id="18851" value="0" scale_type="log"/>
              <Peak1gain id="25049" value="0" scale_type="log"/>
              <HPfreq id="17839" value="31" scale_type="log"/>
              <LowShelffreq id="29184" value="80" scale_type="log"/>
              <Peak1freq id="20222" value="120" scale_type="log"/>
              <Peak2freq id="16356" value="250" scale_type="log"/>
              <Peak3freq id="3199" value="2000" scale_type="log"/>
              <Peak4freq id="25594" value="4000" scale_type="log"/>
              <Highshelffreq id="5148" value="12000" scale_type="log"/>
              <LPfreq id="21671" value="18000" scale_type="log"/>
            </Eq>
            <key/>
          </effect>
          <effect autoquit_syncmode="0" autoquit="1" wet="1" gate="0" autoquit_numerator="4" name="eq" on="1" autoquit_denominator="4">
            <Eq Peak3bw="0.3" Peak2gain="0" Lowshelfgain="0" LPres="0.707" HPres="0.707" Peak1active="0" HighShelfres="1.4" LowShelfres="1.4" Peak4active="0" LP24="0" LP48="1" Peak1bw="0.3" HP48="1" LP12="0" Peak4gain="0" Highshelfactive="0" HP24="0" HP12="0" HP="2" Peak3gain="0" AnalyseIn="1" Peak2active="0" Lowshelfactive="0" Peak2bw="0.3" Outputgain="0" Peak4bw="0.3" LP="2" AnalyseOut="1" HPactive="1" HighShelfgain="0" LPactive="1" Peak3active="0">
              <Inputgain id="3316" value="0" scale_type="log"/>
              <Peak1gain id="3822" value="0" scale_type="log"/>
              <HPfreq id="8254" value="31" scale_type="log"/>
              <LowShelffreq id="9484" value="80" scale_type="log"/>
              <Peak1freq id="23165" value="120" scale_type="log"/>
              <Peak2freq id="26944" value="250" scale_type="log"/>
              <Peak3freq id="32683" value="2000" scale_type="log"/>
              <Peak4freq id="17527" value="4000" scale_type="log"/>
              <Highshelffreq id="11612" value="12000" scale_type="log"/>
              <LPfreq id="7812" value="18000" scale_type="log"/>
            </Eq>
            <key/>
          </effect>
        </fxchain>
      </mixerchannel>
      <mixerchannel soloed="0" name="Fade" muted="0" num="1">
        <fxchain enabled="1" numofeffects="0"/>
        <volume id="11010" value="1" scale_type="linear"/>
        <send channel="0" amount="1"/>
      </mixerchannel>
      <mixerchannel volume="1" soloed="0" name="Lead" muted="0" num="2">
        <fxchain enabled="1" numofeffects="2">
          <effect autoquit_syncmode="0" autoquit="1" wet="1" gate="0" autoquit_numerator="4" name="vsteffect" on="1" autoquit_denominator="4">
            <vsteffectcontrols plugin="Effects\Voxengo Boogex Amp Simulator\Voxengo Boogex Amp Simulator.dll" guivisible="0" program="10" chunk="AAAAAAAAAAAAAAAAAAAAAGFibmsKOwMASQDjAHic7Z0LXAzr38BXKqHcLxFa6pRoUXLkOkPkWlL+yOHUVluttnbtbiq345LbcYlDHLdz6OQuRO5R7hwht9ARRaVQrpH7u7O1a3ftPrv17sza+s3nkzG78zy/Z56ZeXZmvt95HlMajebFEgjY3DB6f2ZYiLlo2VT0180v0KnnAFYgM5wjHCVaNhP9+UXxmAIBgxXG9OOweok+sBD9McMD2NxOodwANyY7rJPcKjVEXxN/tPK55P/EZCL6C+Jzw3kCFudn0f+bfZeV5FtULkSp2GECITPMn8UIY4ayBistldwqNWTyUfZHl/ynKZE5l8Fj8pmhgrLiiDMQnBd9YfV9EGWrKmZuorDsYCCz4FhTZqGrocyCk5HMQjdjmYWfa8ksdJfN3lmyQIQgciYyJPIhktcqL0uj77eRHRYUSVSDug0Urae4a0xoqqYXmPychsvPTaTzlnIlYocx/IOZYWEsTll9RojCtEeUTHF9xfpvoLA8XLb+PSX1T8yHuEv3QNmidB+ULUr3QtmidD+ULUr3RNmic225xR51yhcNxYsOXerKLzuYyi87mskvd60nv+xUX365WwP55Z8ly6hDgSgiUS6iLER8IiYRp355tTVR3DGig0AoOgimiD5vh94l5WuqPly+Oyw0nuRPUlEcSbCpNPRJKrMqGeWykCuXIJgbwWByOJKDUzBE9LUdonTfJUC1gsSeEWXRn8sNYkV28mf6MQL4UaHsyP40ZXtG2ZoVy72sddckd3W/Ay+wZt/lHsjmsIhzd4zoG2s1+UvWRbXnxPFd/kMm+ajxd0HZYQGsyH6ij9uqiSheUfUGueP15fIO4LMns/qIPmqNyFe8kuaVxJokOUr8IgLUVJLsuooRjL7tY1zV/Od6l3Nfj/6EmasoQSCfNSlQ9J2NRmUg1lZZChwri4r7lM9/K5//jXc81GzEgeEpuKpSBIkCal4KYm3VdaH4S/VtXr+H2frY1HyVdSH6jKV5KYi1EXtEzWSOt1JRCh6fNZnIe6Lo+w4alUSSQnVpWuHoujHHm8qVJogpZJWf+y40Zc2w0lVRjZD59/kLg/ksUTPJCXBVU+fya6uO4phaTy4KUSe9ia1H5K2s3mTPXPl6EdU0Q1TvxAHopaZeZFZVzL+mTP6K8+Zy8UQ7lsWXtMIDRV/9hIgot7Lm21SejCioun0ts6qy/IfzsuZHNU7HWijLX1QfASwOM2qQ6Etb9TEkqyuLM7XJ7kE5U+IVWtXyhAIe0581gIZuVWXXRUVQWlNCdqjas0JmVdV7olT5FkSwA4TBGm6BeF3Uvpb/8RcwhRpeWnxbE3VWt1HM3Y8lZEp/sNhMgcNw0Rr26DjfpVEW0XLu05GH29zC2qEiBjP5AWGie2EHD9FaXTSPKk2nLPKn7S+vu/l5aBbZsZKRHZVFjjlV0n58zEPNIrtXMrK7ssiBuT93GExPx+ioyBweg7gecBet00nzuOWpVB5Vz07jyO0lGmzxraFfxbZXmg51qUncTrmxAtjhoZJPbFBlIW5BiMaQ4c/l84mHLE6al0curbLaeLL/FS03PTPFElWCSHEebqJVGJqHjlTZgktaDeQeiGQEl+3DCh5x0nQqI6fy0fs+ksGpZGR1R12bJNxKPjKP5S/kh4dKsmCGCdlMjqh1GilazQEVWlVCVDvaFh17chDxQzJCtFLnikQuS4baz9bIuH4crn8IQ8CewvIUredYgdDfUqqO3gRHb3UAW0BcyFR0q8uTVeBXSyED0S0pR+2vlpI0qHpGH1vEkckIZgcFV/TYkiZUGXvBDcUzSlkWHG6E2jNKRTrVW+2k5oySNsgBFdxqjVpyJQ8N6MjicAMDBSyh2h8zpakqf2pzRVdxHCavogd5eTLVcbPVnNp8ZlgQS3zoVPTU/pZSWfT06FUMrHWqmgO+LA/R0VPRA16aUFnsRnVPJuIz6WpiC1j+ZXdIFY0tTVj5vS3KQhjFq3CTVp5MdVwT3BIdl8PlsdReJChLpDpmIzWntyCUyxUGs8OCKlzPkoSVb8KJ2qpoE46uYXWtRwQ7LIAbUdHWoywVKmpruaiRXGG4H0vuXmmYaIWOiJBKkiiLt++2RUL75Fsp6uI5Vjye0lubtBEbczLu/4uMR1ykVjCeOInSi+k5D3PPf36rcGErnziYF8hiBfgx/UPU/RiqSqf5EftdDqKfU3VHrLI0yiJ+YbQ8N83bHEdFZIcRu6ZiEcvSVHYbRSe0KPOKRlR3o4I6fkLCWKwKnh/iJMriLTlgtaVlrTm4ungVPF7FSZTuw6+iCYtB7kMOO5QtVPuARVkaZRGzQz0te9+trz6iYyUiKt1G+rhYs+ebLHA6KiKv7DdXXcuqPBXqyEFuZyXOR47K8zHYOTNUWJCmcLsjn1p6TetDQ18bqEiGuhQmWPEYJl/6SANV36KPKlHfklSotsESFTVcqMljDKWJlMX0Nav3Zd7A5xhyS8uSO1RwS8tToY4sa/VRiWc+DuquvFWnRNWzhtEdKx1d+e9550vWlmvPpGgYvWulo3fV/OpbPo9I4p6J+AFTd/WtIpmyuENTDnnbxhYgryrEGQRyhH5qb7FVpVMWedtcm6RD82g4qr4lORDtUsXqWzalsug/ce25LPsoZIsmzoPYa5Wob1XndX/vvqs2LDKRIPoR4cJBYtFM9I9KRC+7EuqsJawZHp8lupsXN6hE49/iu/xkVkC1uEoePhCelljJE211aBTdJZjJD2LxCYwEYh6IeSDmySyCmAdiHmICMa9ainmuWhXzjJ6Y2Wz+3y84dWLePd6E8CGZNfFhHzek2dc1oFLMow0oKwUegw9Nj+Y/+NsH92hi52taLxFfnjxxX+v3VIt5o82ftMh+/h+27Y87baL3FWCvxnctmmP6WDdiHi5fuh9bzCNPQDveYJrzCA8zHAQ09QLataTow2vY/5AooLHdjYd26hpHmoD2bPjOrbNafiJRQJv5fmKdsY8KSRLQTmAB8+wij2Ft5XMHcQLECRAntC1OoA83UBhAYQCFQR8UhqoqE3i77IkZkfuCMpnAs+kmL69hn6qFTHBmbGB+AxsDkAm0KBO0O3or4ldrE5AJtCgTFJ/bN+lMsTFOR0UkSSZAH6s6lAl8aVqXCYhHF15CPlN6+YKq8KphE7wZOXVO0twisAkoswlGhXhatT9/Wkc2AT69m51h460KzxbAJgCbQL1N8F88m5v68gnWkFaO+73EtwL0AQSIANoPtB9oP9B+oP2aT0D7qyXtd9Mq7c97WfypJGAMBbRfQvlnvm/JKaW/xxbe9IlftqA+Hhe9gzcpv4Qi2n9vQbTLlp7z8Ldj42ab7xqHP3vEOeC3YzfusOlCQZxVMkW037lRr1CXFV+wP/5amrJy1XPMdti+OodjHmHvNvpFNTXLo5T2q+bruqT937sHZNH+O7uTdnVeko8FtDY7uNqAhhdn1O/YpNNLve5u5qjd9Asd4jNIp/0vbCeZLqq5nkTav+I3S/sL1xJJo/0TZz362fdLTVxfu5txerdvfXrDdKD9QPuB9gPtB9oPtB9o/49C+/OKD2fvev2WMtpf2svZrq3tGcpo/+QrcYyomI/VgvZ/Pncy41xRQ6D9WqT9EhZOFe2f1qWpcMKsYRTS/j7H6CFFZuijRru0/6t4ssLpqIhVgPaLp9k3ddp1gBc3UEUXWtTA/hcYlbB/191CX2baK4phv2P5GaQb2J/dx9ZscspdTVUDLcP+Fw6Gbq6XUnUE+9O9bx5P7Lk7BXWGkQH7UzOySrI6JeoA9lvtz9q++1YCcm+TB/uzxod7vu7hQTns3x7rkf/OMgHTJuz3arslcVzXxxiBQcSw34PtHyK68KC78MPD/IMB9wPuB9wPuB9wv+YT4P5qiftpWsX9/9b94v+qoTeFL/f79x/lEfncCP+cv7lNbTtKR92Rebnf3Sa3u+nIUNzx1H89kpbvxHMK6XvjTlCF+yXzkryh3K9rcjHDA4M7zvF+gq1M9zr1y5Usnbzc/2Phfupe7u/ESDUQmBnjH8TPSZ5j57jTAvt2ytZr3G+zZh7dz/sm6bj/1ObTV+oM2kki7o+8b3Z78aolpOF+9okdFqYH3ujt6DLGK3ZFzOl5A3A/4H7A/YD7AfcD7gfc/6Pg/vRfizv+XfAAiU+1ifuDXXzcjXblI+NpE/f7e0XGtf6qOAQWdbgf3TO5dnG/UcMoC1bBZ2REwP0Vw/0Nk9ebJpb+QhnuD+f+FprAGk8h7q/5i0vUUl8LCnF//T8eH91q1ginoyJWgZECbobwJtddfFmnL/d7cHk86X0xqsKrBu+3imnn9250LsW8v/MFn4W0xQ10xPslk254f8HQeYLCLkd0xPvpxrb2rw5vo/zl/oJNPf50Tr2oA97/tp1vwcLfTHX0cr/RmuOLve22Uc77bbq1i/mfSZ5Wef99/sNf74c8wwisJ+b9buwwNsB+gP0A+wH2A+yvcLkA9ldH2D9zoFZhf8Os4g7bs8ZRCPsl8xVXN9lcG/0a0w3sL5tz8S13jgV9YuzDr6T2W138zwmKYb9kvjE9beidD3nYSCsf7qbwfN305K9QuuoC+1XF1WfYT1VP/jFWO2KN0jaSCPv39lr7tdaldaTB/sOxSdOavykiHfYXkAT7JVNb+dwB9gPsB9gPsB9gP8B+gP2KEaEn/wrFg578adCTPxmwH3ry1z7sh578qYP90JM/BbC/bIKe/DXIA3ry1yww9OQvF5eMnvztuya/GbyoUKYnf+IJH9B+oP1A+4H2A+2vcLmA9ldH2k9z0SrtD5lwNfNYEJW0/+i4fkZpD2romPYXnhy7YWmrmfiA9dMz3lxKxDclT9zX+n0KxbT/95chb/0ufsWa/jTjZ8fUp5hZD7P1sam6of3V9dV+CRnPPRZze5p1CTZ36h/NSwNouD7T/ljek8vPVl0knfafWWLgP7nDERJpP/9B/xaWNf8ijfYfGBw6+tnyj3r7ar9kaiufO9B+oP1A+4H2A+0H2g+0XzEiVbQ/e2eosHGry5S92l/6dcGulIBLlNH+jNlNh3XLvVotaP/LgQG/195ZC2i/Fml/gvAg3TKMTxntP3Hqbgx91kf0C+hapf03g/stn338g/qIWqP90xfWGHnJ4CMSyVYF2i+eNO3Jn0nTOu0nnmsPZvIDWHzJJ6garxq4f2SUZ7/0w48B91OG+0+XtB8fc+qsjnD/3n67O3zMO0Q57s9db9lhWKOCFOpxf8d2if5jTn7QUV/+i8OjtvwdRX1f/tuGtn7f+nOGVt/tl5y1BOMT435XppA+lDllCqB+QP2A+gH1A+rXfALUXy1Rfzeton5hsmfM4OLm1a4X/zbNW2UffcbHTyW32Fvoux+/IzA0C31zimLUfybVaJ/jgHxsfIep79see4O9Ht+1aI7pY0D9Onixn22413YFvaa0HPqM+h+sHLIVv3mOdNRvk5TxZu38oySi/uDE1is8+XtJQ/0W9YYtPxVdB9dX1P9l40en5B2XoRd/QP2A+gH1A+oH1A+o/0dB/XnFh7N3vX5L2Yv9pb2c7dranqEM9U++EseIivlYLVD/53MnM84VoYdfB9RfMdQvee2dKtQ/rUtT4YRZwyh8sb9P+ZDj1KF+8Vh0X61wOipidUP9PjSto37i+bYXN1B6bYiqb7JAP7Wd+O+6W+jLTHtFMeh3LD+DdAP6s/vYmk1OuaupZqBl0P/CwdDN9VKqjkB/uvfN44k9d6egzjAyQH9qRlZJVqdEHbzXb7U/a/vuWwk6Av1Z48M9X/egHvRvj/XIf2eZoFXQ37H8vX4iTzHo92D7h0QB6gfUr2IDAfXLLgLqB9QvOwHqr5ao316rqP/jwzFRW6IwClF/70/xy5udf4rpFvXbFnpvmlgSif8yjnuv1YyDOkL9rF7J3V0OZGCuR+f533z2Ed7q1wHqPzD2970r8nKwwuB6Td9tM8Tr2G3efMwnR69Rv4fzRHvXL9dIR/2CpN/z4x6T+VZ/RINJ+++XxJOG+rmLjubsnFZfb1H/7gv/W9i8TRagfkD9gPoB9QPqB9QPqB9QP6B+QP3oNKiLDUD9gPoB9QPql48JqB9QP6B+QP2dQtWj/vCPhtF92z/BCAwiRv1uLCGTw2H70z04TCELcD/gfsD9gPsB92s+Ae6vlri/v1Zxf8rwSCejgR46eLN/2McNafZ1DXSE+193nPT0Qjs+zmxi52taLxF323ShIM4qmWLcb9C/99whcS+wU38sTJjOqIG/gjf7Kcf9OY+XXizZQ5PGP95gmvMIDzO97sT/z7q5zC6tsknH/a2YV86effs7ibj/puEt3i9//k4a7hf+tc4zybmIxE78HU/XebHM/gFJuN9wxa6IOT1vAO4H3A+4H3A/4H7A/YD7fxTc73wps8WYhdcow/0bXVdevNERHU+buD/XwqqVD6dUZ7j/BbJzdO3i/kaZJn0P8moC7tci7l9ywGpLy1pzKMP9q+Nn9129R4Mu9bWG+yVCA3W4P3ah03VanxY4HRWxquD+abc0w/2+NK3jfuLRhQufLZBeuKEqnCzeT20f/kf+jLNN6VYMffhTxvutZ8b/feLQSR3xfsmEOsXI4P1773WzaDbxtg54v4VffOx9tjHSLSGP9wdu7lSb1n0G5byfl3L/rF2IMa5N3i85a4nnamV9+LP5AiHDn8MUCOij+ExBMCB/QP6A/AH5A/LXfALkXx2R/8zBWkX+DTqlX792zZcC5H92gdv73EH/YgvoLyYP+3gSK06ts+jlmutYXPQO3qT8EoqQf9DLuZmXn27CRzC6n6/Vdwne1dQ9e+ul/fjwfglF+YuOUYT8D/wWcmfVutvY1iaZ9l163pG+6e9u5cPdFE7tG/6qIbsukT9NYZk85L+qx9Cev600xv2H7B1o0c4Abxr3CrtBe6jXb/gftZt+oUN8BunI/1pS9OE17H9IRP6+GcMd/SceIw35NxI8fcDdV0wi8pfsa3KQf4MY887Zv64F5A/IH5A/IH9A/oD8Afn/KMhf2O2KY7TtVcqQ/zNxjwL5SGSrTeT/V/Sd9Mh1dfHqgPy/MFqem+ZtDshfj5F/zJlEm3UD51D4hj8g/x8C+TNpWkf+xHPtASw/pkB67qJqvGow/0HDztfruj0XmD9lzL/O7X94feoc0hHzpxvb2r86vE3h4QL5zL+L39F2uaN2pVDP/LfNtUk6NI+mI+bfZ8WMBnejwihn/ieOHW42NSFPq+/4D5m+ZXrbvrlYQ1o58x/NDhMyg1j04SxmwCga4H7A/YD75RYB9wPuR0yA+6sj7qf10iruT6g790vIhZEU4H7htsMPF9R4Kz3cF970iV+2oD7Fb/hvG9MxNWzwfrysDFx8hGuHFY8P+FP8hv+rZwPML97Nl/5ircv5y+nIfzXwDqaXOnzs8UgnuF9x+cd+wz+IKWSVn/vqgK/MqqhGyPz7/IXBfJaomeQEuKqpc/m1VUfpm1pPLgpRJ72JrUfkrazeZMtNlgYhqX/Pld42YzNyMcmTK33WILJedynqmJNDugYRY7Uj1ihtI4kaRK9tW7257/aTpkEsKGjn4nGptd4OdFCv9cmCoDu3FHiAKI0fS8iU4zRqWZKSNMoiTqtl+1Nu9EOF9xIUUgcz+QFhLIHAQS0cV5FOWeQhC05wHFLzNIvsWMnISp9GfZlJ99lWOEOzyO6VjOyuLHK3do+c7eoVKDx5VMiBw2MQ1wPqnjwqT6Us6tohScP9n55UFCDk00ufFvtVbHtDNX3KPFhUMSy+5BMbVFmIWxCiMWQQj/SIhyxOmpdHLq2y2vhwY+VLizPZKZaoEkQyNHnirDQRqtVA7oFIRnDZPqzgESdNpyxy2IzImENDJ6D3fSSDU8nIiKNusLPzQoPte9QweWaYkM3kiFqnijJ5aULUVUZbdGzQyUAnQyZUGRt0Mo6KTsG/88ICAwUsodofM6WpKn9qg8QGEhtIbPogsdGRESPYYQHciIq2HmWpUFGpUuf23bZIaJ98izJ1Lm3ExpyM+/9S1lvOkzkPc89/flstBscBdU7/1bkvxLgxWEyVVufo42LNnm+ywOmoiCSpc2iVVbvqXLBzZqiwIE2ng+OMYfJDlV8HV0Vxztes3pd5A5+DOEeZOJfW+ZK15doz1ayznKEph7xtYwt00FmObsW5n7j2XJZ9FOXiXH/vvqs2LDLRamc5QR9ybr02ysUIa4bHZ4nu5sUNKnHX0uK7/GRWQLW4hH0j699JPicsHLGcN0p0f0N34YeH+UNXPODmgZsHbp7ijgE3DzGBm1cd3Twtd8Vz6Gp+m6Pt+1Hg5i1psNjevetjrPen+OXNzj/FaJd4eTVMDCl28x5YW78zsZ2JR1qcC1s2ZD0+LzThwU3DI/iZooclB74cp8jNG7FSgJ3tZ4yzmu70Nl1sjF8e2yV/1tJ8bGPI1Auz1uZBVzwUjr5zYOzve1fk5WDGzXbOmcCqgfvuXWHV5u0Hve6K5xBFXfHs9hj3r1f0IhIdNCePYUafnZJIc9B+69aPnzAuS2+74in+Z+LOySPuQFc84E6AO0G2O4E+3MBiAIsBLAZ9sBiqqk/g7bInZkTuC8p8As+mm7y8hn2qFj7BmbGB+Q1sDMAn0KJP0O7orYhfrU3AJ9CiT1B8bt+kM8XGOB0VsQp0xVMhn8CXRsroO15CPlN6+YKq8KohFLwZOXVO0twiEAooEwpGhXhatT9/WkdCAT69m51h462U98QDQoH+CwW07emz+N0LvvXE4xYeGMhhBdBdw6dMAdoPtB9oP9B+oP2aT0D7qyPtp/XQKu3nJEb06mvsRwHtl8z9+4/yiHxuhLcc3Ya9wNKYYtpfVoYY/LLZ29p7dm7HFzL7DhtTGIy3fELfG3eCqp54JHMv59zk5gEPMAn1fz9h/CN+4hNKaf/3pSqbVxfaf7Cc9vdgPvSev9wAb75BuGHP0Bp63eNMzz97Xgt4cK8KDLxTOGts0u3iHaTR/hanhvGKttzVW9r/OD5mus+8g0D7gfYD7QfaD7QfaD/Q/upK+6H3AOg9QJ9oP/QeoH3aD70HQO8B5MB+6D2AatgPvQcgMwDY/8PC/v/i2dzUl08wAoOIYX9/vuguU0j3YPuHiK4/APcD7gfcD7gfcL/mE+D+aon7u2n35f66X/xfNfSmEPfPfN+SU0p/j624usnm2ujXmG5w/9f6Xbd+2p6ITxlZtD20dCqOUTrwjmQe1Cu5u8uBDKyW29Sz99MfYv0GP5xT1+Yx4H4Kcf8Rg1f7f533Bjt3YWb8bdv8KjHAzJI3/a+ENrlLOu53b2tjZnZ8H4m4/+ixh3+dT40lDfef6H21/eXiN3qO+zMA9wPuB9wPuB9wP+B+wP2A+wH3A+5Hp0FdbADuB9wPuB9wv3xMwP2A+wH3A+7vFKoe92+zqLX274BCjIC/ZbifKxAwgfYD7QfaD7QfaD/QfqD9GtH+Blql/eZtflnT8UVPCmn/nMyjBW1H1Mc/529uU9uOpqOX+63/WxwZ/o6Jj7/juW9OyA6cb7nr7fLdqRTT/gMFb2cMa/EQyyjvyn/+5q0H+o7MBtpPIe0P3XIldtmvt7DTl7c0/9S8ECvOqN+xSaeXet2Vv82aeXQ/75uk0/5Tm09fqTNoJ4m0v7NVZ+cr/faTRvvZJ3ZYmB7QX9q/5d+/GYWLLgLtB9oPtB9oP9B+oP1A+4H2A+0H2o9Og7rYANoPtB9oP9B++ZhA+4H2A+0H2t8pVD3t73Hj2tSEASXfaL8Lny3gRdFd+OFh/sFA+4H2A+0H2g+0X/MJaH+1pP39tUr7QyZczTwWNI5C2n+PNyF8SGZN/ENp73cRG17o6N3+1Q7eI287bMbpe3Jen/81CLfTSVf+ki78JfOQgxs2c73h3X4qab8kTl/3gev+2vxGGlefaX8s78nlZ6sukk77z2eyvzYO3UQi7V+2N73FqmUrSaP95+k+TQYMe6m3tH/K/bTbqwYeAdoPtB9oP9B+oP1A+4H2/yi03/lSZosxC69RRvs3uq68eKMjOp42aX+uhVUrH06pzmg/mi5ql/Y3yjTpe5BXE2i/HtP+1fGz+67e8wHNpPWc9scudLpO69MCp6MikkT70ceqdmm/eJp2SzPa70vTOu0nHl2IEZbkA1SFVw3cf+TPONuUbsWA+ynD/dYz4/8+cehkNcP9e+91s2g28bYOcL+FX3zsfbaxjnB/4OZOtWndZ1CO+3kp98/ahRhrFff/zftU70TNV1hDWjnu9+IGQk/+QPuB9tOA9gPtB9oPtF8j2u+iVdq/O8DAZXx4Pwpo/6zyd/olPfnTLvHyapgY4nHRO3iT8ksoov3/+ueHxnAm4W/Hxs023zUOX535sth38BY8dGvR8nW3j1BE+yU9+P/x19KUlaueYz7rd35suNcITyt+Hr7M9SmltF/aACks65b20xSWyaf9HU9fXR6/JB9zvpx8RFjPUK978q+X26/dIvp10mn//hEDNy+6fYhE2h+Qzn82Ku0wabT/81fxpLe0HzdY8cg96yrQfqD9QPuB9gPtB9oPtP9Hof15xYezd71+SxntL+3lbNfW9gxltH/ylThGVMzHavFu/+dzJzPOFTUE2q9F2i9h4VTR/mldmgonzBpG4bv9fY7RQ4rM0EeNdml/2f2MFU5HRawqtH/2TZ2+208QLMkyqr7Jgv0vMCph/667hb7MtFcUw37H8jNIN7A/u4+t2eSUu5qqBlqG/S8cDN1cL6XqCPane988nthzdwrqDCMD9qdmZJVkdUrUAey32p+1ffetBOTeJg/2Z40P93zdw4Ny2L891iP/nWUCpk3Yv/rrHyH9ljzDCKonhv2eXCZfdOFB78+NJG4igPUD6wfWL7MIrB9YP2IC1l8tWf8ArbJ++8wtOWOGeFDA+q2iprIZ+aWYdfncYtzj9uGjP1H5Zj+O4XVj18wJT/HHm9Ya/dOtsAX4ut35j93C9+JD36bF3Tl9mCLWP9/H+N1/ywxwz/Y7HK653cbmli+/Ht+1aI4ptW/2q36X/kd+sz+IKWSVn/vqaK/MqqhGyPz7/IXBfJaomeQEuKqpc/m1VUdxTK0nF4Wok97E1iPyVlZvss0bWQ4Et/HRr3uDDfEVXwuOuM8pwe4ux+jphRl63ePBcF7W/KjG6aQ7EDGlmS7Xg5JIdCAuDU5sfOjJMtIciLKpVG8dCMnURjF3P5aQKQdp1IIkJWmURbSc+3Tk4Ta3FB5RKKQOZvIDwlgCgYNaMq4inbLIn7a/vO7m56FZZMdKRlb6MCrmVEn78TEPNYvsXsnI7soiB+b+3GEwPV3hwaNCDhweg7geUPfgUXkqlUfVs9OK9oN8eumjYr+KbW+oJo+YidspN1YAO1zagawNqizELQjRGDKIJ3qjRGs6aV4eubTKauPJ/le03PTMFEtUCSIZmjxwVpoI1Wog90AkI7hsH1bwiJOmUxk5lY/e95EMTiUjqzvq2iSpMZvA56pAaPC5ZGODzwU+F/hc4HOBz6WSlsFYLYh4VcXngrFatO9zwVgt2ve5YKwW6nwuGKsFOm+BsVpgrBbt+FxVaawWyVlL2Bw8PkvAEoobVGJntfguP5kVUC0ukZeMFib5WDocjJf4ZqN8OBiQxkAaA2kMpDGQxjSfQBoDaYz1/5XGHGy81o95N4ACaWzE5XVTuF9r4kbGOxyCEl9hbw7gyV+LciiWxpo0b5V99JkfXjt68R3f5DV4sM/WixNa7scvJv/0qPef+ymSxtbZdM/YmZWDzS6XxcbZGZgbD/2E5T88N2jQ6gKQxkAak1sH1byBNPZ9BF1LY6eZU9bMr7GTRGnMJ811uNuCeaRJY+sO7XONaErDQRrTVBqbVsv2p9xoDQUqrUpjQxac4Dik5ulAGvsyk+6zrXCGDqSxbu0eOdvVK6BYGls7JGm4/9OTOpbGBosqhiXVuHQnjX24sfKlxZnsaiKNhc2IjDk0dIIOpLHBzs4LDbbvAWlMSR4gjYE0hk6Iak1BGgNpDKQxkMZAGgNpjAbSGEhjII2BNPbtD6QxRHKQxkAaA2kMpDEqpDGCEYilMY/wwMAouisB2ohHw6CNgTYG2hhoY6CNaT6BNlYdtbGZA7Wqja1rOOnE9BFdKdDGplovt2ZNMsHblPcxJulzjFptLPRF/83j1gXg9UftWv3L/j/wReV9jVGrjdVdObfUwu0eNsOk85r0uBzs6JYPIXWO03DQxqqqNvau4b1BPEtMj7SxWice7AlxL8aSHrouvXLrFcZv/vy04+Iaej3eWtXRxlq/f3Ciy/YdpGljL+Iz03vdfwV9jYE2BtqYNCpoY7K1AdoYaGOgjYE2pj6d6q0GbUw8gTamKgvQxkAbU5UGFRG0sQrFA22MBtoYaGOgjYE29u0PtDFEctDGQBsDbQy0MUVtjHjKWGltjCifghom+aohrVwdc2MHiO8r6R7MAPDGwBsDbwy8MfDGNJ/AG6uW3pibVr2xCdEnHvWdMJTC7sYk3ti+xwv41+4+p9gbw2xyu5uOnID7zDK5l9JzKX7wWkBXl5zdFHtjTkbYi5Cub7B0k24pHThZWL2wY1ei7hnij85+XjL8LYxRWfW8sQ1nhc1uePfVI2+s7vn9yXWH52K5Ho29HL3eY4172t777d5Xve5uzMmiyWTbGtdJ98Yalu59Ov9sPIne2KiG7XxL8laS5o0VBJbYdvrzJXhjGntjkqk6jVH5JJjZOdL9kQ68Mck201GRte6NlXZ3/MBnJOvYG/PiBgp/BG9s3riE3au+3K4m3pi7aVenkCVOOvDGTBeWdHx1aw14Y0ryAG8MvDF0QlRrCt4YeGPgjYE3Bt4YeGM08MbAGwNvDLyxb3/gjSGSgzcG3hh4Y+CNKXpjxP1Dpb0xwgqR9cIknxOmiFgaG8UOiyI6IvOkgTAGwhgIY3KLIIyBMIaYQBirlsKYdjsas8/ckjNmiAeJwtiO3l/bTLTMl45Huat8ua9b88Rxp59QJIwFRXn+1OtyGG7eD2/xs/l43DwkIvVz6izcYKnB3Wj3fXjy+P+NecTcR7IwVqu8g7Gej/m/FXoZ4qymO71NFxtL51QKY6rULBDGpImq9fiU5j0uP+t2MBejr502tnuD2rhTpq9T70lv9VoYo6qjsZjSTJfrQUkkCmNp9xyLmh9OJk0YW1DD83nym/owPiUIYyCMSaOCMCZbGyCMgTAGwhgIY+rTqd7qH04YoyOLww0MFLCEan9QlKZCHWzogxw0NdDUQFMDTe1bPNDUQFNTFxE0NdDUQFNDp1EWETQ1YgJNDTQ10NRAU9MTTY2MUTEJJUVsqbkEsyKI7waFh4KoBqIaiGogqoGopvkEolp1FNVow7Uqqv1ybK9Hm5X9SBTVJD2YGRjvcAhKfCUV1CwmJJ9sv6eEIlGt+9zuj3rkBeOnd7erb35gNM6cWNx0DGORdETMLfcWnDi2aw/Jolr3BKu1zHsfsNpuU8/eT3+IOTfqFeqy4gvGGbvA/vaVmviO0fOnDHClZkRMENXkGyEQ1b7lT/yAT7xcyHqU+ARbExT1lhdihFtNiHCZ1uIliGoaiGqNQk/mr3D8k0RRrVH01Y13ny0iTVRLW3Z0Y1u8FHo2gxExYURMaVQYEVO2NmBETGpENRgRU3UeIKqBqIZOiGpNQVRDxgVRDUQ1ENVAVANRDUQ1ENVAVANRDUQ1ENVAVKtAdBDVxH8gqoWSK6oRbVGlRTXCxpB0mSb5jNCW5Afg9OJyuOCpgacGnhp4auCpaT6Bp1YtPbVBejoC51Tr5dasSSbSETito6ayGfmlFI/A2Xz9+8J+TCZe+7/FkeHvJuH9d29ctNw+ET80oX8CO3snRSNw/ttImJH/hobPXhdS1/fJbYwZNv02v9QIr+npxxtbSI2n9q00yufgqWnTU3vX8N4gniWmR55a36/zB3Xh3cdmvBlV++dthvjSPGu/P6LBU9PEU3vSJ4SPX1hGoqc2ycHotU/nFNI8tSvr5t06G/8RPDXw1MBTk0YFT022NsBTA08NPDXw1NSnU73V4KmJJ/RBDp4aeGrgqYGn9i0eeGrgqamLCJ4aeGrgqaHTKIsInhoxgacGnhp4auCp6YmnRjzbrLSnRpTPIzwwMIruSiA84qGz5Kv/AziB7mk="/>
            <key>
              <attribute name="file" value="Effects\Voxengo Boogex Amp Simulator\Voxengo Boogex Amp Simulator.dll"/>
            </key>
          </effect>
          <effect autoquit_syncmode="0" autoquit="1" wet="1" gate="0" autoquit_numerator="4" name="vsteffect" on="1" autoquit_denominator="4">
            <vsteffectcontrols numparams="14" param5="5:T.S.D.:0.39" param6="6:Time:0.5" param4="4:T.S.N.:0.11" guivisible="0" param12="12:Mix:0.15" param1="1:Mono:0" plugin="Effects\Classic Delay\Classic Delay.dll" param9="9:Quality:0.7" program="0" param0="0:Pan:0.5" param10="10:Low Cut:0" param3="3:Sync:1" param13="13:Level:0.5" param2="2:Type:0.5" param11="11:Hi Cut:0.9" param7="7:Feedback:0.6" param8="8:Ping-Pong:1"/>
            <key>
              <attribute name="file" value="Effects\Classic Delay\Classic Delay.dll"/>
            </key>
          </effect>
        </fxchain>
        <send channel="1" amount="1"/>
      </mixerchannel>
      <mixerchannel volume="1" soloed="0" name="Guitar" muted="0" num="3">
        <fxchain enabled="1" numofeffects="2">
          <effect autoquit_syncmode="0" autoquit="1" wet="1" gate="0" autoquit_numerator="4" name="vsteffect" on="1" autoquit_denominator="4">
            <vsteffectcontrols plugin="Effects\Voxengo Boogex Amp Simulator\Voxengo Boogex Amp Simulator.dll" guivisible="0" program="8" chunk="AAAAAAAAAAAAAAAAAAAAAGFibmuHUwMA3gAfA3ic7Z0NXEv7/8AnyVN5dkVo1C1PoYQ8npPIQ0rKD3m4tdqqaW2zlsrT9fxwceMS18VFN89E5DnKM1eIS+gKUSkPeYwI/XdWm22277b+O2d37XNer8zZzvf7Oed7zvnunPN+7/M1p9FovqyICDaPSx/A4IZZiubNRX/dA4Odew9kBTMiOcJRonkL0V9gDJ8REeHA4jICOaw+ojesRH+MSCab1zmcx/RksLmd5RapJvqY+KNVvEr+T0y1RH8hAl4kP4LF6SH6/w/fVSX5FFULsVZsboSQwQ1iOXAZ4awhStdKbpFqMvUo+6NL/tOUqJznwGcIGOER5asjriDigugDm++DKFtUsfJaCvOOJjIzTtVlZrqZysw415CZ6W4mM9OjpsxMT9nqXSQzRAiiZqJCoh6ieM2KdWn0/TayuSHRRDOo20DRcoq7phZN1fQKk3+l4fKvtaSvLeTWiM11CAplcLksTnl7RonCtEOsmeLyiu3fQGF+uGz7+0jan3gd6iXdA+Wz0n1QPivdC+Wz0v1QPivdE+WzLrXlZnvVqZg1Fc86dq0rP+9oLj/vZCE/362e/Lxzffn57g3k53tI5lGHArGKxHoR60LEJ2IScepXNFsTxR0jOgiEooNgquj9tuhdUrGk6sPlu8NC40n+JBXFkQSbRkOfpDKLkrFeVnLrFRHKi3JgcDiSgzNiqOjj9oi1+64Aqhck9oyoigE8XggrunMQI9CBKYgJZ0cPoCnbM8qW1K728t5dk9rVfQ+8wn74rvZgNodFnLtjRJ/YqqlfsiyqPyeO74ovMslbjb8LyuYyWdGuorfbqIkoXlD1Bnnh9eXqZgrYU1j9RG+1QtQrXkjzRmJNlhwlgVFMNY0ku6xihBrf9jGu6rVHvSu5b0d/xixVrEGwgDU5WPSZnUbrQCytci1wrDwq7l/x+nPF60a84+EfRhwcnoqrWosQUUDN14JYWnVbKH5TfXut38tifVxavsq2EL3H0nwtiKURe0TNZIm3VLEWfAFrClH3JNHnHTRaE0kJ1WvTEke3jSXeVG5tQhhCVsW570ZT1g0rXRTVCVl+X78wVMASdZMcpruaNpdfWnUUp7R6clGINulLbD2ibmXtJnvmyreLqKUdRO1OHIC+atpFZlHF+qvL1K/42kwunmjHsgSSXniQ6KMfERHlFtZ8myqKESuqbl/LLKqs/uH87IUxjTOw5srqF7UHk8VhxAwWfWivPoZkcWVxpjVJHJwzNUGhV60oGMFnBLEG0tC9quyyqAhKW0rIDld7VsgsqnpPlCjfgig2Uxiq4RaIl0Xta/kv/wiGUMNLi29Los7q1oq1B7KEDOkXFpsR4ThctEQndJzvyiiLaD3/2cgjrW9hbVERQxkCJld0L+zoLVqqq+ZRpeWURf684/UNz0BvzSI7VTKyk7LIsaeL202IfaRZZK9KRvZSFjk4t0eHIfQMjI6KzOE7ENcDXqJlOmset6KUyqPq+Rkcub1Ehy2+NQzUbnul5VCXmsTtlCeLyY4Ml7xjh1oX4haE6AwdgngCAfGQxVnz9ZErq6w1nh54Q8vNyEq1Rq1BtLgOT9EiDpqHjlbZg0t6DeQeiHYILd+HWh5x0nIqI6cJ0Ps+2oFTycjqjrrWybiNfGQ+K0goiAyXVMHgCtkMjqh3GilazBEVWlVBVD/aBh17SgjxRTJCtFAXbSKXF0PtZ1tk3EAOLyjMIYI9leUjWs5Ji9DfSqqO3gRHbzWTHUFcyGi71RXFtPjWUqhAdEvKUfutpaQMqp3RxxZxZDqEskNCtT22pAVVxl70j+IZpawKDi9K7RmlopzqrXZWc0ZJO2SmllutUU+u5KEBHbk6vODgCJZQ7ZeZ0lKVP7V5oqs4DoOv7UFeUUx13IdqTm0BgxvCEh862p7a30oqi54xb7UD1ipNzQFfXofo6NH2gJcWVBa7Ud1TSfgsuprYEayg8jskbWNLC1Z+b4uqEMbwte7SKoqpjlsLt0bH5fD4LLUXCcoKqY7ZSM3pHRHO4wlD2dwQrdtZUrDyXTjRWtp24egWVtd7RLG5TF6Utr1HeSlU1FZyUaN5wshAlty9kodogY6IkEqKKIu3/7bVnnYpt1LVxXPSPp7SW5v0EZtyMu//jYxHXKRqGU9cROnF9NxHuRe+vFe4sJUvHMoPZrGYgYygMHVfhqrKaX7EfleD6OtU3RGrrIyyiF8dWpyf7meJoyKyucSu0S5ieZnKbqPohBZVrm1EdTcqqOMnjMtiaXl+iIsoi7fsoM3WFjXn4uriaXm8ioso3YdlogmLRe5DDjucLVT7gEVZGWURH4b7WPe9W199RKdKRFS6jfRxcRYvN1vhdFREfvl3rrqeVXkp1JGD3M5KnI8cledjqEtWuLAgXeF2R7609JrWn4a+NlBRDHUpTLDiMQyB9JEGqr1Fb1WivSWlUH2DNSpqpFCTxxhKCymLGWBR7+uCQS8x5JaWF3fUcksrSqGOLFv1UYlnPo7qrrxVl0S1s4bRnSodXfn3eZfLttZ/nE3VMHq3SkfvpvnVt3wd0cQ9E/EFpu7qW0UxZXGHpR72s48rQF5ViCsI5ggD1d5iqyqnLPL2+XbJhxfQcFR7S2og+iXt2lu2pLLoP/I68VidYpA9mrgOYq9Vor1VndcD/Pqv3rCklgTRj4gUDhaLZqJ/VCJ62YVQZy1hzfAFLNHdvLhDJTr/5t/VJ7MAqsdV8vCB8LTESp5oq8Nj6G6hDEEIS0BgJBDzQMwDMU9mFsQ8EPMQE4h5RinmuetUzKvx1MJuy//G49SJeff4EyOHZlXHPUo3pHeqa0KlmEcbWL4WeCw+LGOe4MFGf9y7SfsA83pJ+IqUSftbfaRazBtt+bT5w5f/Ytt/u9N63v4C7M2Ebi/mmj/Rj5iHy6/df1vMI09AO9FgussIbwscBDT1Atr15HlH1rL/IlFAY3uZDevcLZ40Ae358F3bZrf4TKKANuvjpDpjHxeSJKCdxJgL2kcfx9rI1w7iBIgTIE7oWpxAH26gMIDCAAqDISgMVVUm8HPbGzsi9xVlMoFP082+vh6fjUImODs2OL+BnQnIBDqUCdoeuxX1k20tkAl0KBMUnd8/+WyRGU5HRSRJJkAfq3qUCQJoOpcJiEcXvkIBQ3r5gmrwqmETvBs5bW7y/BdgE1BmE4wK87Fpd+GMnmwCfEb39qaNtyk8WwCbAGwC9TbBvwlsXtrrp1hDWgXu9xXfCtAHEiACaD/QfqD9QPuB9ms+Ae03StrvqVPan/e66HMxcwwFtF9C+Wd9bMEpoX/EFt/0T1i+qD4eP28nf3J+MUW0/96ieW5bey/A34+Nn2O5exz+/DHnYODORNxx88WCeJsUimi/S6M+4W4rv2K//flr6qrVLzF7j/11jsQ+xj5sCoxpapFHKe1Xzdf1Sfu/dw/Iov13EpN3d1mWjzFbWRxaY0LDizLrd2zS+bVBp5s51n7GxQ4JmaTT/lf2k82XVF9PIu1f+bN1p4vXk0ij/ZNmP+4R8LU6bqjpZpw/7F+f0TADaD/QfqD9QPuB9gPtB9r/X6H9eUVHHu5++54y2l/Sx6V9G/uzlNH+KVfjHWJiS42C9n85fyrz/IuGQPt1SPslLJwq2j+9a1PhxNkeFNL+fsfpYS8s0EeNbml/mXiywemoiFWA9ounOTf1mjrAlxesIoUWNbD/FUYl7N99tzCAkf6GYtjvVHEG6Qf2P+xnbzEl9a6mqoGOYf8rR1NP98tpeoL9GX43TyT1TkxFnWFkwP60zOzi7M5JeoD9NgeydyTe2oPc2+TB/uwJkT5ve3lTDvt3xHnnf7Deg+kS9vu22Zo0rtsTjMAgYtjvzQ4KE1140N0EkdygUMD9gPsB9wPuB9yv+QS43yhxP02nuP/vul+D3jT0o/DH/UEDRnlHv6yBf8nf0rp2e0pH3ZH5cb+XXW5P85HhuNPpf3slr9iF5xTS98WfpAr3S16L84bxytbmYqYHh3Sc6/cUW5Xhe3r81Wy9/Lj/v4X7qftxf2eHNJMICzP8k/g5yUvsPG96cP/ODw0a99utXUAP9LtJOu4/veXM1TqDd5GI+6PvW9xeunoZabiffXKnlfnBdwY7uozZyt1Rc3v/A7gfcD/gfsD9gPsB9wPu/6/g/oyfijpuLHiAxKe6xP2hbv5eNXbnI+PpEvcH+UbHtypTHAKLOtyPzkyuW9xfo2GMFavgCzIi4H7tcH/DlPXmSSXjKcP9kbyfw/ewJlCI+6uPd4v5NcCKQtxf/7cnx7ZZNMLpqIhVYKSAm2H8KXWXXtHrj/u9eXy+9L4Y1eBVg/fbxLYN/DA6l2Le3+Wi/2La0gZ64v2SST+8v2DYgojCrkf1xPvpZvad3hzZTvmP+ws29/rdJe2SHnj/+7YBBYt/NtfTj/trrD2x1K/9dsp5v133trH/q5WnU95/X/Dop/thzzEC64l5vyebywbYD7AfYD/AfoD9Wq8XwH5jhP2zBukU9jfMLuqwI3schbBf8rry2ma766PfYvqB/eWvPHzrneMhnx3241fTXNcU/XWSYtgved2UkT7szqc8bKSNP29zZL5+MvkrrJ2xwH5VcQ0Z9lOVyT/WZmdcjfRNJML+fX3+KKt5eR1psP9IXPL0Zu9ekA77C0iC/ZKpjXztAPsB9gPsB9gPsB9gP8B+xYiQyV+reJDJnwaZ/MmA/ZDJX/ewHzL5Uwf7IZM/BbC/fIJM/hrUAZn8NQsMmfzl4pKRyb9Tt5R3Q5YUymTyJ57wVdD+UTSg/UD7gfbLzQLtB9qPmID2GyPtp7nplPaHTbyWdTyEStp/bJxrjfQH1fRM+wtPjd3wa8tZ+MD1MzLfXU7CN6dM2t/qYyrFtP+X12HvAy+VYU1/nNnDKe0ZZtHLYn1cmn5ov2H9tD+EIWRVnPvqeK/MoqhOyPL7+oWhApaom+Qw3dW0ufzSqqP0T6snF4Vok77E1iPqVtZusutNlgUhMQZyj8fenm5bjM2f9luzEiYNN2QLIo7/9Mrz1ZdItyDOLjMJmtLhKIkWhODBgObW1f8kzYI4OCR89PMVpQab8kAytVasPZAlZMhhGrUoSUkZZRGt5z8beaT1LYVnFAqlQxkCJpcVEeGolo2rKKcs8ucdr294BnprFtmpkpGVPo2KPV3cbkLsI80ie1Uyspfq/Zuh8ORRoQYO34G4HlD35FF5KZVRn59R9B/ky0sfFgdqt73hmjxkJm6nPFlMdmS45B071LoQtyBEZ+hAPNIjHrI4a74+cmWVtUbO1CaJg3OyUq1RaxDtoMkTZ6WFUL0Gcg9EO4SW70MtjzhpOZWR0wTofR/twKlkZHVHXetkNUiewRWyGRxR76QtkpcWRPWjbdCxwSYDmwxZUGVssMk4KrKBf6eFBQdHsIRqv8yUlqr8qQ0OGzhs4LAZgsNGR0aMYnOZvChte4/yUqioVJlzD3eFCxu3vEJZmpySskW7U5mXKTPnMuc09eiee80ozLnXg5i/1N5VE8w5HZpze4SH6NZcAWXm3MnTd2Pps0vRyVx0as7dDHVdMefEJ/URdWbOzVhcbeRlk1Kk3lQVzDnxpOmoOAyazs054qHGEIaAyZI+ZkC1OK9KqHMjY3xcM448AXWOMnXuDPGs8vQ5Palz+1wTO5TmHaZcnctdb93Bo1FBKvXqXMe2SUFjTn3S07g4SyNjtm6MoX5cnO3DWn1s9SVTp3lyJGct4c3wBSzR/by4SyXuW5p/V5/MAqg+l/BvZA08yfuEkyPW89wZQvowxtSpkIgH1DxQ80DNAzVP8wnUPKNU87rrVM0TpvjEDilqZnSj7rRu1vLhsecC/HRK832FAQfwOxGmFuHvTlOs5p1Nq7HfaWA+NqHDtI9tjr/D3k7o9mKu+RNQ8/SQiIdtus9+Jb26dD0MWUF7sGroNvzmedIVNLvkzHd/LDxGooIWmtRqpY9gH2kKmlU9jxWn59XBDVVB+7qp1Dll5xUYdQfUCVAnyFYn0IcbSAwgMYDEYAgSA1U6QV7RkYe7376nLBFPSR+X9m3sz1KmE0y5Gu8QE1tqFDrBl/OnMs+/aAg6gQ51AkmaGqp0guldmwonzvagMBFPv+P0sBcW6KNGtzqBeOzYMhucjopobDqBP03nOgHxfNuXF6xCq6VGJqB20J3ddwsDGOlvKJYJnCrOIP3IBA/72VtMSb2rqcqgY5nglaOpp/vlND3JBBl+N08k9U5MRZ1hZMgEaZnZxdmdk/SQh8fmQPaOxFt79CQTZE+I9Hnbi3qZYEecd/4H6z06lQk6VuThIeoUg35vdlBYDKB+QP0qNhBQv+wsoH5A/bIToH6jRP2ddIr6Sx+Nidkag1GI+vt+Tljxw4VnmH5Rv32h3+ZJxdH4+HG8ey1nHtIT6mf1SenpdjATcz+2IOjm81LIwqMH1H9w7C/7VublYIWh9Zp+2G6K12m/Zctx/xyDRv3eLpM6uX+9Tjrqj0j+JT/+CZnZZqIaTD5wvziBNNTPW3IsZ9f0+gaL+hMv/m9xs9bZgPoB9QPqB9QPqB9QP6B+QP2A+gH1o8ugLjYA9QPqB9QPqF8+JqB+QP2A+gH1dw5Xj/ojS03n9W/3FCMwiBj1e7KEDA6HHUT35jCELBh0B3A/4H7A/YD7NZ8A9xsl7h+gU9yfOjzaucYgbz38st+jdEN6p7omesL9bztOfnaxrQBnNGkfYF4vqeL9axTjfpMBfecPjX+Fnf5t8Z4ZDtXwN/DLfhh0R6FuZe0mu95kaRA5T369VLxXct6+wk40mO4ywtvCoAfd+b1uLqNry4ekaxAtGVfPnXv/C4kaxE3TW/zxv/9CmgYh/HOdT7LLCxIH3XE6U+fV8k4PSNIgTFfujprb+x+FDK0w6A4MuqM2Lgy6o6SsstaAQXdg0B3QyUAnQ4UFnUzVHwy6g4wLEhtIbCCxwaA7kv+7XM5qPmbxdcrUuU3uqy790xEdT5fqXK6VTUt/Tone1LlXyMFMdKvONcqq1f8QvzqoczpU55YdtNnaouZcytS5NQlz+q/Zq8EQODpT5yRyIHXqXNxi5xu0fs1xOipiVVHnpt/STJ0LoOlcnSMwgJuAHSG9XEQ1OK9KjLlz9Pd4+9TuRTDmDmXunO2shI0nD5/SkzsnmVCnGBnu3L573a1+mHRbD+6cVWBC3H22GdLTJM+dC97SuTat50zK3Tl+6v1z7cPMcF26c5KzVmHMHYLvVXrMHYJDyit4kk8I4lM+6g5bECF0COIwIiLoowSMiFDIyQOSHkh6IOmBpKf5BJKeMUp6s4boVNJr0DnjxvXrARRIeucWeX7MHfw3toj+aopH6SmsKK3Oktdrb2Dx83byJ+cXUyTphbyen3Xl2WZ8hEPPCzX7L8O7mXs93Hb5AD7cdc+L/CXHKZL0Dv4cdmf1utvYtiZZnbr2viPNzeNl48/bHEltTh7VWpw+JT2awjx5OXlW9xrW++dVZnjQ0H2DrNqa4E3j32D/0B4ZdE6eY+1nXOyQkEm6jHY9ed6Rtey/SJTRAjKHOwVNOk6ajNYo4tkD3v4iEmU0yb4mR0ZrEGvZ5eFPf0BOHpAoQKIgW6JAH26gM4DOADqDIegMVIkFwu5XnebZX6NMLHguzgGUjwTDuhQL/px3JyN6XV3cGMSCrw4tzk/3swSxwIDFgtizSXbrBs2lMCcPiAX/CbGAQdO5WEA81x7ICmRESM9dVItXDbNgsMeFet125IJZQJlZUOf2X/x+dQ7rySygm9l3enNku8LDBfLNgq6Bx9rmjtqdSr1ZsH2+XfLhBTQ9mQX9Vs5scDeGS7lZcPL4kR+m7cnTaVaeoTO2zmjTPxdrSKtg/qPZXCEjhEUfzmIwIScP4H7A/YD7AfdrPgHuN0bcT+ujU9x/cJPLsiO0GApwv3D7kUeLqr2XHu6Lb/onLF9Un+KcPNvHdEzjDjmAl68DDx/h3mHlk4NBuOfmiwXxNikU4f43zwdaXrqbL/3GWpfzp/PRf6vhHcwvdyjt9VgvuF9xHnLyGHdOHlX7w5A1COxEQ9tFX/4hXYOItdkZVyN9E4kaxK4NruNdnbeRpkFsm5w3blG9BqQPTVRAkgax4N6cbudu34OcPIo1QE4edXEhJ4+SsspaA3LyQE4e0MlAJ0OFBZ1M1R/k5EHGBYkNJDaQ2CAnj+T/D3eFCxu3vIJUkXQ6nF3Zot2pzMuU5eTJnNPUo3vuNaMYzu71IOYvtXfVBHVOh+rcHuEhujVXQJk6d/L03Vj67FIKc/LcDHVdMeeEBlmAdKbOzVhcbeRlk1Kk3lRl1DlNh7Nj0EhR54YwBEyW9DEDqsV5VUKdGxnj45px5Amoc5Spc2eIZ5Wnz+lJndvnmtihNO8w5epc7nrrDh6NCvSgznVsmxQ05tQnPQ1otzQyZuvGGOoHtNs+rNXHVl8ydarOCc7OCvl3zFvFpDzEfUulk/IQ/o2sgSd5n/BwxHreKNEdDt1NEMkNgmQ8YOeBnQd2nuKOATsPMYGdZ4x2no6T8Ry+lt/6WDtXCuy8ZQ2WdvLq9gTr+zlhxQ8XnmG0y/y8arVMKbbzHtjafqhlPwuPtjrPXT50Pb4gfM+Dm6ZH8bMvHhUf/HqCIjtvxKoI7JyrGc5qusvPfKkZfmVs1/zZv+Zjm8KmXZz9Rx4k41Fr5+nOQjs49pd9K/NyMLMfds2dyKqGB+xbadP6/SeDttAOU5SMJ9F73N++85aQaKE5e3vU+OKcTJqF9nN3V8GecdkGm4yn6K9Ju6aMuAPJeMCeAHuCbHsCfbiBxwAeA3gMhuAxUGUU7L9ttaddyi3KkvH4ue2NHZH7ijKjwKfpZl9fj89GYRScHRuc38DOBIwCHRoFbY/divrJthZlRsHXMtGExVbpZDxF5/dPPltkhtNREauAURDqkhUuLEjX6yg/vkIBQ3r5gmrwqiEUvBs5bW7y/BcgFFAmFIwK87Fpd+GMnoQCfEb39qaNt1EuFAxLPexnH1egh1F+9JuL50deJx6rUwzlQsEAv/6rNyyppdtRfnZkzBb0LPiWi8czMjiYw2LS3SOnTgXaD7QfaD/QfqD9mk9A+42R9tN66ZT2c5Ki+vQ3C6SA9ktegwaM8o5+WQNvMbo1e5G1GcW0v3wdYvErFu9r7921A1/M6O8xpjAUb/GUvi/+JFW5eCSvvi65Kc2YDzAJ9f84ccJjQdJTSmn/92tV/mostP9QBe3vxXjkt3CFCd5sg3DD3mHVcEOm/b1/732d+eBeFRh6p3D22OTbRTtJo/3NT3vwX2y9a7C0/0lC7Az/BYeA9gPtB9oPtB9oP9B+oP3GSvvTR2zKybz/N2W0/+ncR7kXvrw3CtoPQ+/onvZTPfSOMdB++rg4i5ebrXA6KiJJtB89FJYeab8/Tee0n3i+PYYhkKZERLV31YD9ARb1vi4Y9BJgP2WwP73LZVvrP87qCfZLJtQZBrAfYL+yOv9NYPPSXj/FCAwihv0DBKK7TCHdmx0UJrr+ANwPuB9wP+B+wP2aT4D7jRL3d9ftj/vrfg1609CPQtw/62MLTgn9I7by2ma766PfYvrB/WX1u237vCMJnzryxY7wkmk4RunQO5LXkD4pPd0OZmI1Paedu5/xCHMd8mhuXbsngPspxP1HTd4c+GnBO+z8xVkJt+3zMckTGkPG/cveDbga3uQu6bjfq42dhcWJ/STi/mPHH/15IS2ONNx/su+1dleK3hk47s8E3A+4H3A/4H7A/YD7AfcD7gfcD7gfXQZ1sQG4H3A/4H7A/fIxAfcD7gfcD7i/c7h63L/dquYfG5mFGAF/y3E/LyKCIaH9xBiwQPuB9gPtl5kF2g+0HzEB7TdK2t9Ap7TfsvX4tR1f9aaQ9s/NOlbQZkR9/Ev+lta129P09ON+23+XRkd+YOAT7vjsnxu2ExdY736/IjGNYtp/sOD9TI/mj7DMilT+C7dsO9h/5EOg/WppfwhDyKo499XxXplFUZ2Q5ff1C0MFLFE3yWG6q2lz+aVVR+mfVk8uCtEmfYmtR9StrN1k15ssCyJ869W45T/dws5c2drsc7NCrCizfscmnV8b9BAHdmsX0AP9bpJuQZzecuZqncG7SLQguth0cbnqeoA0C4J9cqeV+UHDtSC2/r3RoXDJJYXHj6IygSwhQw7TqEVJSsooi2g9/9nII61vKTykUCgdyhAwuayICEe1bFxFOWWRP+94fcMz0FuzyE6VjKz0cVTsaWLwykeaRfaqZGQv1UdPhsKjR4UaOHwH4npA7ejiSkupjPr8jKL/IF9e+rA4ULvtDdd0TFpPFpMdKX3MbIdaF+IWhOgMHYhnesRDFmfN10eurLLWyJnaJHFwTlaqNWoNoh00eeSstBCq10DugWiH0PJ9qOURJy2nMnKaAL3vox04lYys7qhrnawGyTO4QjaDI+qdtEXy0oKoq4w26Nhgk4FNhiyoMjbYZN8eGtCRq8MLDo5gCdV+mSktVflTGxw2cNjAYTMEh42OjBjF5jJ5Udr2HuWlUFHBnNMqHphzNDDnwJwDcw7MuW9/YM4hioM5B+YcmHNGbM71+uf6tD0DizHCmuELWKK7eXGHSjRY8+/qk1kA1eMS5o2cgCf5QKrnuQnYEfwYupsgkhsUCsl4QM8DPQ/0PNDzNJ9AzzNKPW+ATvW8sInXso6HjKNQz7vHnxg5NKs6/qmk74eoDa/0lIxnjaPfyNuOW3D63py3F34KwdvrZewdyZg7ktewQxu28PwgGQ+VyXgkcfp7DVr355Z30riGrKHF8Z9eeb76Euka2oUsdlnj8M0kamjL92U0X718FWka2gW6f5OBHq8NVkObej/99upBRyEZD+gToE+QrU+gDzcQGUBkAJHBEEQGqpQCl8tZzccsvk6ZUrDJfdWlfzqi4+lSKci1smnpzynRm1KARpi6VQoaZdXqf4hfHZQCA1YK1iTM6b9m7yc0+DZwpSBusfMNWr/mOB0VkSSlAH2s6lYpEE/Tb2mmFATQdK4UEI8uxAhL8gaqwauGU3D093j71O5F4BRQ5hTYzkrYePLwKSNzCvbd6271w6TbenAKrAIT4u6zzfTkFARv6Vyb1nMm5U4BP/X+ufZhZjp1CjbyP9c7Wf0N1pBWgft9ecEw9A7QfqD9NKD9QPuB9gPt14j2u+mU9icyTdwmRLpSQPtnVyThkQy9Q7vMz6tWyxSPn7eTPzm/mCLa/3dQfngsZzL+fmz8HMvd4/A1Wa+LAoZsxcO3vVix7vZRimi/ZMid3/78NXXV6peY//pdpQ331cDTi15GLnd/Rintl3ZACvP6pf00hXnyaX/HM9dWJCzLx1yupBwV1jM16KF36uW6tl1Cv0E67T8wYtCWJbcPk0j7mRmC56PSj5BG+7+UiSeDpf24ycrHXtnXgPYD7QfaD7QfaD/QfqD9/xXan1d05OHut+8po/0lfVzat7E/Sxntn3I13iEmttQoEgh8OX8q8/yLhkD7dUj7JSycKto/vWtT4cTZHhQmEOh3nB72wgJ91OiW9pffz9jgdFTEqkL759zUawIBgmBJ5lHtTRbsf4VRCft33y0MYKS/oRj2O1WcQfqB/Q/72VtMSb2rqWqgY9j/ytHU0/1ymp5gf4bfzRNJvRNTUWcYGbA/LTO7OLtzkh5gv82B7B2Jt/Yg9zZ5sD97QqTP217elMP+HXHe+R+s92C6hP1ryn4Lc132HCOonhj2+/AYAtGFB30AL5q4iQDWD6wfWL/MLLB+YP2ICVi/UbL+gTpl/Z2ytuaMGepNAeu3iZnGdsgvwWwrXq3GPWkXOfozlb/sxzG8btzauZGpQXjTmqN/vMVdhK9LzH/iGbkPH/Y+Pf7OmSMUsf6F/mYf/l1ugvu02+l43fM2Nr9i/u2Ebi/mmlP7y37Vv6X/L/+y3zAH3nHS+cA7ir6A7hwIXuNjZftCTfGVZQVHveYWY3dXYPSMwkyDzngwnJ+9MKZxBukORGxJltuNkGQSHYjLQ5IaH366nDQHonwqMVgHQjLBwDsKNVSRgXeCc3t0GEKHgXf0OfDO0wNvaLkZMPAOVQPvtJGPDD4X+Fzgc6ktiOpNwecCnwt8LvC5/h8+FwwIU3V8LhgQRvc+FwwIo3ufCwaEoc7nggFhIHkLDAgDA8LoxueqSgPCSM5ahQFhiJ1V6QFhiLpktDDJ29LhYHzFNxsVw8GANAbSGEhjII2BNKb5BNIYSGOs/6805mjnu37Mh4EUSGMjrqybyiurjtcw2+kYkvQGe3cQTyl7kUOxNNakWcuHx54H4rXnLb0TkLIWD/XfdmliiwP4pZQfH/f9/QBF0tg6u56Zu7JzsDkVsti49iaWZsM+Y/mPzg8evKYApDGQxuSWQXVvII19H0Hf0tgZxtS1C6vtIlEa8093H+65aAFp0ti6w/vdo5rScJDGNJXGpte0/zF3noYClU6lsaGLTnIc0/L0II19nUX33144Uw/SWPe2j13a1yugWBr7Y2jy8KBnp/QsjQ0RNQxLqnHpTxr79M+q11ZnHxqJNMadGR17eNhEPUhjQ1xcFpvs2AvSmJI6QBoDaQxdENWbgjQG0hhIYyCNgTQG0hgNpDGQxkAaA2ns2x9IY4jiII2BNAbSGEhjVEhjBCMQS2PekcHBMXR3ArQRj4ZBGwNtDLQx0MZAG9N8Am3MGLWxWYN0qo2tazj55IwR3SjQxqbZrrBlTa6Ft67IMSbJOUatNhb+asCWceuYeP1Ru9eMP/AbvqQi1xi12ljdVfNLrDzvYTNrdVmbEZ+DHdv6KazOCRoO2lhV1cY+NLw3mG+NGZA2VvPkg71hXkVY8iP3X6/eeoMJmr0847S0mkGPt1Z1tLFWHx+c7LpjJ2na2KuErIw+999ArjHQxkAbk0YFbUy2NUAbA20MtDHQxtSXU73VoI2JJ9DGVFUB2hhoY6rKoCKCNqZVPNDGaKCNgTYG2hhoY9/+QBtDFAdtDLQx0MZAG1PUxoinjJXWxoj1U1DDJB81pFWoY55spvi+ku7NYBLBwBsDbwy8MZlZ8MbAG0NM4I0ZpTfmqVNvbOK8k4/7TxxGYboxiTe2/8kiwfW7Lyn2xjC73J7mIyfi/rNr3Uvt/St+6Dqzm1tOIsXemHMN7FVYt3dYRq3uqR042Vg97vGrMfdM8cfnviwb/h7GqKx63tiGc8If/vHrb0DeWN0LB1LqDs/Fcr0b+zr5fsQa97a/9/O9MoNON+Zs1WSKfbUbpHtjDUv2PVt4LoFEb2xUw7YBxXmrSPPGCoKL7Tv//hq8MY29MclkTGNUPg1ldIn2eqwHb0yyzXRUZJ17YyU9nT4JHFL07I358oKF/wVvbMG4PYmrv942Em/My7ybc9gyZz14Y+aLizu+ubVWDfhncIVsBkfUO2kL/qUFUb1aG3RscNbAWUMWVBkbnLVvDw3oyNXhBQdHsIRqv8yUlqr8qQ2mHJhyYMoZgilHR0aMYnOZvChte4/yUqio4OdpFQ/8PBr4eeDngZ8Hft63P/DzEMXBzwM/D/w88PMU/TzirqXSfh5h38j6d5L3CSNHLOeNYnNjiIRvPjQQ80DMAzFPbhbEPBDzEBOIeUYp5uk2oVunrK05Y4Z6kyjm7exb1nqSdb503M/dFfP9PZsljTvzlCIxLyTG58c+V7i4pSvevIflBNwyLCrtS9ps3ORXk7vzvPbjKRP+N+YxYz/JYl7NikRuvZ8Ifi70NcVZTXf5mS81k75SKeapUuBAzJMWMupxQC17XXne/VAuRv9j+tieDWrjzlkBzn0nvzdoMY+qhG6xJVluN0KSSRTz0u85vWh2JIU0MW9RNZ+XKe/qwzigIOaBmCeNCmKebGuAmEetmNdGPjLIcSDHgRyntiCqNwU5DhkX5DiQ40COgzRyoKmBpgaaGmhqoKmBpgaaGmhqWkQHTU38B5pauOGNPkooKWJLzS2UFUV8NjgyHEQ1ENVAVANRDUQ1zScQ1YxRVKMN16moNv74Pu/Wq1xJFNUkmeJMzHY6hiS9kQpqVhNTTrXbW0yRqNZzfs/HvfJC8TOJbetbHhyNMyYVNR3jsEQ68ujWe4tOHt+9l2RRrecemz8Y9z5htT2nnbuf8QhzadQn3G3lV4wzdlGn21er4ztHL5w60J2akUdBVJPvhEBU+1Y/8QU+6Uoh63HSU2xtSMx7flgN3GZilNv05q9BVNNAVGsUfip/pdPvJIpqjeZd23T3+RLSRLX05cc2tcFLIIMcjDwKI49Ko8LIo7KtASOPUiOqwcijqusAUQ1ENXRBVG8KohoyLohqIKqBqAaiGohqIKqBqAaiGohqIKqBqAaimhbRQVQT/4GoFk6uqEb0RZUW1QgbQ5IyTfIeoS3JD3Tqy+PwwFMDTw08NfDUwFPTfAJPzSg9tcEGOtLpNNsVtqzJtaQjndrGTGM75JdQPNJps/UfC10ZDLz2v0ujIz9MxgckblqyolMSfnjigD3sh7soGun070bCzPx3NHzOurC6AU9vYwzujNuCkhp4dZ9A/thCajy1b2uj/BU8NV16ah8a3hvMt8YMyFPrX7ZwcFf+fWzmu1G1e2w3xX/Nsw38bR54app4ak/7hQnwi8tJ9NQmO9Z4698llTRP7eq6BbfOJZSCpwaeGnhq0qjgqcm2Bnhq4KmBpwaemvpyqrcaPDXxhD7IwVMDTw08NfDUvsUDTw08NXURwVMDTw08NXQZZRHBUyMm8NTAUwNPDTw1A/HUiGeblfbUiPXzjgwOjqG7EwiPeOgs+ej/AKu4XNA="/>
            <key>
              <attribute name="file" value="Effects\Voxengo Boogex Amp Simulator\Voxengo Boogex Amp Simulator.dll"/>
            </key>
          </effect>
          <effect autoquit_syncmode="0" autoquit="1" wet="1" gate="0" autoquit_numerator="4" name="vsteffect" on="1" autoquit_denominator="4">
            <vsteffectcontrols numparams="14" param5="5:T.S.D.:0.36" param6="6:Time:0.5" param4="4:T.S.N.:0.14" guivisible="0" param12="12:Mix:0.3" param1="1:Mono:0" plugin="Effects\Classic Delay\Classic Delay.dll" param9="9:Quality:0.7" program="0" param0="0:Pan:1" param10="10:Low Cut:0" param3="3:Sync:1" param13="13:Level:0.5" param2="2:Type:0.5" param11="11:Hi Cut:0.79" param7="7:Feedback:0.7" param8="8:Ping-Pong:1"/>
            <key>
              <attribute name="file" value="Effects\Classic Delay\Classic Delay.dll"/>
            </key>
          </effect>
        </fxchain>
        <send channel="1" amount="1"/>
      </mixerchannel>
      <mixerchannel volume="1" soloed="0" name="Bass" muted="0" num="4">
        <fxchain enabled="1" numofeffects="2">
          <effect autoquit_syncmode="0" autoquit="1" wet="1" gate="0" autoquit_numerator="4" name="stereomatrix" on="1" autoquit_denominator="4">
            <stereomatrixcontrols r-r="0.5" l-l="0.5" r-l="0.5" l-r="0.5"/>
            <key/>
          </effect>
          <effect autoquit_syncmode="0" autoquit="1" wet="1" gate="0" autoquit_numerator="4" name="vsteffect" on="1" autoquit_denominator="4">
            <vsteffectcontrols numparams="8" param6="6:Mix:0.15" plugin="Effects\Classic Reverb\Classic Reverb.dll" guivisible="0" param3="3:Hi Damp:0.14" param0="0:Size:0.61" param1="1:Damping:0.4" param2="2:Predelay:0.5" param4="4:Lo Cut:0.69" param7="7:Level:0.5" program="0" param5="5:Early Ref.:0"/>
            <key>
              <attribute name="file" value="Effects\Classic Reverb\Classic Reverb.dll"/>
            </key>
          </effect>
        </fxchain>
        <send channel="1" amount="1"/>
      </mixerchannel>
      <mixerchannel volume="1" soloed="0" name="Strings" muted="0" num="5">
        <fxchain enabled="1" numofeffects="1">
          <effect autoquit_syncmode="0" autoquit="1" wet="1" gate="0" autoquit_numerator="4" name="vsteffect" on="1" autoquit_denominator="4">
            <vsteffectcontrols numparams="8" param6="6:Mix:0.25" plugin="Effects\Classic Reverb\Classic Reverb.dll" guivisible="0" param3="3:Hi Damp:0.5" param0="0:Size:0.91" param1="1:Damping:0.3" param2="2:Predelay:0.5" param4="4:Lo Cut:0.3" param7="7:Level:0.5" program="0" param5="5:Early Ref.:0"/>
            <key>
              <attribute name="file" value="Effects\Classic Reverb\Classic Reverb.dll"/>
            </key>
          </effect>
        </fxchain>
        <send channel="1" amount="1"/>
      </mixerchannel>
      <mixerchannel volume="1" soloed="0" name="Drums" muted="0" num="6">
        <fxchain enabled="1" numofeffects="3">
          <effect autoquit_syncmode="0" autoquit="1" wet="1" gate="0" autoquit_numerator="4" name="stereomatrix" on="1" autoquit_denominator="4">
            <stereomatrixcontrols r-r="0.6" l-l="0.6" r-l="0.4" l-r="0.4"/>
            <key/>
          </effect>
          <effect autoquit_syncmode="0" autoquit="1" wet="1" gate="0" autoquit_numerator="4" name="vsteffect" on="1" autoquit_denominator="4">
            <vsteffectcontrols numparams="8" param6="6:Mix:0.14" plugin="Effects\Classic Reverb\Classic Reverb.dll" guivisible="0" param3="3:Hi Damp:0" param0="0:Size:0.8" param1="1:Damping:0.4" param2="2:Predelay:0.5" param4="4:Lo Cut:0.5" param7="7:Level:0.5" program="14" param5="5:Early Ref.:0"/>
            <key>
              <attribute name="file" value="Effects\Classic Reverb\Classic Reverb.dll"/>
            </key>
          </effect>
          <effect autoquit_syncmode="0" autoquit="1" wet="1" gate="0" autoquit_numerator="4" name="vsteffect" on="1" autoquit_denominator="4">
            <vsteffectcontrols numparams="14" param5="5:T.S.D.:0.37" param6="6:Time:0.5" param4="4:T.S.N.:0.14" guivisible="0" param12="12:Mix:0.1" param1="1:Mono:0" plugin="Effects\Classic Delay\Classic Delay.dll" param9="9:Quality:1" program="0" param0="0:Pan:0.5" param10="10:Low Cut:1" param3="3:Sync:1" param13="13:Level:0.5" param2="2:Type:0.5" param11="11:Hi Cut:0.9" param7="7:Feedback:0.7" param8="8:Ping-Pong:1"/>
            <key>
              <attribute name="file" value="Effects\Classic Delay\Classic Delay.dll"/>
            </key>
          </effect>
        </fxchain>
        <send channel="1" amount="1"/>
      </mixerchannel>
    </mixer>
    <ControllerRackView visible="0" width="350" minimized="0" maximized="0" y="487" x="550" height="200"/>
    <pianoroll visible="0" width="970" minimized="0" maximized="0" y="310" x="518" height="600"/>
    <automationeditor visible="0" width="860" minimized="0" maximized="0" y="355" x="509" height="400"/>
    <projectnotes visible="1" width="686" minimized="0" maximized="0" y="6" x="889" height="571"><![CDATA[<!DOCTYPE HTML PUBLIC "-//W3C//DTD HTML 4.0//EN" "http://www.w3.org/TR/REC-html40/strict.dtd">
<html><head><meta name="qrichtext" content="1" /><style type="text/css">
p, li { white-space: pre-wrap; }
</style></head><body style=" font-family:'MS Shell Dlg 2'; font-size:8.25pt; font-weight:400; font-style:normal;">
<p style=" margin-top:0px; margin-bottom:0px; margin-left:0px; margin-right:0px; -qt-block-indent:0; text-indent:0px;"><span style=" color:#e0e0e0;">Greetings.</span></p>
<p style=" margin-top:0px; margin-bottom:0px; margin-left:0px; margin-right:0px; -qt-block-indent:0; text-indent:0px;"><span style=" color:#e0e0e0;">Please use this in LMMS 1.3 or higher. Previous versions require editing to load correctly.</span></p>
<p style="-qt-paragraph-type:empty; margin-top:0px; margin-bottom:0px; margin-left:0px; margin-right:0px; -qt-block-indent:0; text-indent:0px; color:#e0e0e0;"><br /></p>
<p style=" margin-top:0px; margin-bottom:0px; margin-left:0px; margin-right:0px; -qt-block-indent:0; text-indent:0px;"><span style=" color:#e0e0e0;">Instruments:</span></p>
<p style=" margin-top:0px; margin-bottom:0px; margin-left:0px; margin-right:0px; -qt-block-indent:0; text-indent:0px;">GiantSoundfontV6.6_WIPMelodicBank.sf2</p>
<p style=" margin-top:0px; margin-bottom:0px; margin-left:0px; margin-right:0px; -qt-block-indent:0; text-indent:0px;">Timbres of Heaven (XGM) 4.00(G).sf2</p>
<p style=" margin-top:0px; margin-bottom:0px; margin-left:0px; margin-right:0px; -qt-block-indent:0; text-indent:0px;"><span style=" color:#e0e0e0;">basscruncher.vst</span></p>
<p style=" margin-top:0px; margin-bottom:0px; margin-left:0px; margin-right:0px; -qt-block-indent:0; text-indent:0px;">Touhou.sf2</p>
<p style=" margin-top:0px; margin-bottom:0px; margin-left:0px; margin-right:0px; -qt-block-indent:0; text-indent:0px;">Orpheus_1.047e.sf2</p>
<p style="-qt-paragraph-type:empty; margin-top:0px; margin-bottom:0px; margin-left:0px; margin-right:0px; -qt-block-indent:0; text-indent:0px; color:#e0e0e0;"><br /></p>
<p style=" margin-top:0px; margin-bottom:0px; margin-left:0px; margin-right:0px; -qt-block-indent:0; text-indent:0px;"><span style=" color:#e0e0e0;">Effects:</span></p>
<p style=" margin-top:0px; margin-bottom:0px; margin-left:0px; margin-right:0px; -qt-block-indent:0; text-indent:0px;"><span style=" color:#e0e0e0;">Equalizer.lmms</span></p>
<p style=" margin-top:0px; margin-bottom:0px; margin-left:0px; margin-right:0px; -qt-block-indent:0; text-indent:0px;"><span style=" color:#e0e0e0;">Voxengo Boogex Amp Simulator.vst</span></p>
<p style=" margin-top:0px; margin-bottom:0px; margin-left:0px; margin-right:0px; -qt-block-indent:0; text-indent:0px;"><span style=" color:#e0e0e0;">Classic Delay.vst</span></p>
<p style=" margin-top:0px; margin-bottom:0px; margin-left:0px; margin-right:0px; -qt-block-indent:0; text-indent:0px;"><span style=" color:#e0e0e0;">Stereo Matrix.lmms</span></p>
<p style=" margin-top:0px; margin-bottom:0px; margin-left:0px; margin-right:0px; -qt-block-indent:0; text-indent:0px;"><span style=" color:#e0e0e0;">Classic Reverb.vst</span></p>
<p style="-qt-paragraph-type:empty; margin-top:0px; margin-bottom:0px; margin-left:0px; margin-right:0px; -qt-block-indent:0; text-indent:0px; color:#e0e0e0;"><br /></p>
<p style=" margin-top:0px; margin-bottom:0px; margin-left:0px; margin-right:0px; -qt-block-indent:0; text-indent:0px;"><span style=" color:#e0e0e0;">Released as .mmp, adjust paths as desired.</span></p>
<p style=" margin-top:0px; margin-bottom:0px; margin-left:0px; margin-right:0px; -qt-block-indent:0; text-indent:0px;"><span style=" color:#e0e0e0;">____</span></p>
<p style="-qt-paragraph-type:empty; margin-top:0px; margin-bottom:0px; margin-left:0px; margin-right:0px; -qt-block-indent:0; text-indent:0px; color:#e0e0e0;"><br /></p>
<p style=" margin-top:0px; margin-bottom:0px; margin-left:0px; margin-right:0px; -qt-block-indent:0; text-indent:0px;">Please note that the author explicitely wishes to have eventual derivates or redistributions distributed ONLY as .mmp files, not .mmpz.</p>
<p style=" margin-top:0px; margin-bottom:0px; margin-left:0px; margin-right:0px; -qt-block-indent:0; text-indent:0px;">There is nothing the license can do from stopping you as saving it as .mmpz, except that the author will insult you severely.</p>
<p style="-qt-paragraph-type:empty; margin-top:0px; margin-bottom:0px; margin-left:0px; margin-right:0px; -qt-block-indent:0; text-indent:0px;"><br /></p>
<p style=" margin-top:0px; margin-bottom:0px; margin-left:0px; margin-right:0px; -qt-block-indent:0; text-indent:0px;">Should you have received this file as an .mmpz, please insult its forwarder.</p>
<p style=" margin-top:0px; margin-bottom:0px; margin-left:0px; margin-right:0px; -qt-block-indent:0; text-indent:0px;">To convert the file into .mmp, follow these steps:</p>
<p style="-qt-paragraph-type:empty; margin-top:0px; margin-bottom:0px; margin-left:0px; margin-right:0px; -qt-block-indent:0; text-indent:0px;"><br /></p>
<p style=" margin-top:0px; margin-bottom:0px; margin-left:0px; margin-right:0px; -qt-block-indent:0; text-indent:0px;">1.: Create a a file called &quot;Decompress.cmd&quot; in the LMMS directory. (Where lmms.exe is located.)</p>
<p style=" margin-top:0px; margin-bottom:0px; margin-left:0px; margin-right:0px; -qt-block-indent:0; text-indent:0px;">2.: Right click on file, click &quot;Edit&quot;.</p>
<p style=" margin-top:0px; margin-bottom:0px; margin-left:0px; margin-right:0px; -qt-block-indent:0; text-indent:0px;">3.: Put the following line into the file:</p>
<p style="-qt-paragraph-type:empty; margin-top:0px; margin-bottom:0px; margin-left:0px; margin-right:0px; -qt-block-indent:0; text-indent:0px;"><br /></p>
<p style=" margin-top:0px; margin-bottom:0px; margin-left:0px; margin-right:0px; -qt-block-indent:0; text-indent:0px;">&quot;%~dp0LMMS.exe&quot; -d &quot;%*&quot; &gt; &quot;%*.mmp&quot;</p>
<p style="-qt-paragraph-type:empty; margin-top:0px; margin-bottom:0px; margin-left:0px; margin-right:0px; -qt-block-indent:0; text-indent:0px;"><br /></p>
<p style=" margin-top:0px; margin-bottom:0px; margin-left:0px; margin-right:0px; -qt-block-indent:0; text-indent:0px;">This does the following:</p>
<p style=" margin-top:0px; margin-bottom:0px; margin-left:0px; margin-right:0px; -qt-block-indent:0; text-indent:0px;">%~dp0 return the folder where the .cmd file is located.</p>
<p style=" margin-top:0px; margin-bottom:0px; margin-left:0px; margin-right:0px; -qt-block-indent:0; text-indent:0px;">It then calls LMMS.exe inside that folder.</p>
<p style=" margin-top:0px; margin-bottom:0px; margin-left:0px; margin-right:0px; -qt-block-indent:0; text-indent:0px;">-d is the decompress option for an .mmpz file.</p>
<p style=" margin-top:0px; margin-bottom:0px; margin-left:0px; margin-right:0px; -qt-block-indent:0; text-indent:0px;">%* returns any parameters given to the .cmd file.</p>
<p style=" margin-top:0px; margin-bottom:0px; margin-left:0px; margin-right:0px; -qt-block-indent:0; text-indent:0px;">&gt; sends the output into a file.</p>
<p style="-qt-paragraph-type:empty; margin-top:0px; margin-bottom:0px; margin-left:0px; margin-right:0px; -qt-block-indent:0; text-indent:0px;"><br /></p>
<p style=" margin-top:0px; margin-bottom:0px; margin-left:0px; margin-right:0px; -qt-block-indent:0; text-indent:0px;">If you drag an .mmpz file onto the .cmd file, it will decompress it into &quot;[filename].mmpz.mmp&quot;, at the original location.</p>
<p style="-qt-paragraph-type:empty; margin-top:0px; margin-bottom:0px; margin-left:0px; margin-right:0px; -qt-block-indent:0; text-indent:0px;"><br /></p></body></html>]]></projectnotes>
    <timeline lpstate="0" lp0pos="768" stopbehaviour="1" lp1pos="12288"/>
    <controllers/>
    <scales>
      <scale description="empty">
        <interval den="1" num="1"/>
      </scale>
      <scale description="empty">
        <interval den="1" num="1"/>
      </scale>
      <scale description="empty">
        <interval den="1" num="1"/>
      </scale>
      <scale description="empty">
        <interval den="1" num="1"/>
      </scale>
      <scale description="empty">
        <interval den="1" num="1"/>
      </scale>
      <scale description="empty">
        <interval den="1" num="1"/>
      </scale>
      <scale description="empty">
        <interval den="1" num="1"/>
      </scale>
      <scale description="empty">
        <interval den="1" num="1"/>
      </scale>
      <scale description="empty">
        <interval den="1" num="1"/>
      </scale>
      <scale description="empty">
        <interval den="1" num="1"/>
      </scale>
    </scales>
    <keymaps>
      <keymap last_key="127" description="empty" middle_key="60" base_key="69" first_key="0" base_freq="440"/>
      <keymap last_key="127" description="empty" middle_key="60" base_key="69" first_key="0" base_freq="440"/>
      <keymap last_key="127" description="empty" middle_key="60" base_key="69" first_key="0" base_freq="440"/>
      <keymap last_key="127" description="empty" middle_key="60" base_key="69" first_key="0" base_freq="440"/>
      <keymap last_key="127" description="empty" middle_key="60" base_key="69" first_key="0" base_freq="440"/>
      <keymap last_key="127" description="empty" middle_key="60" base_key="69" first_key="0" base_freq="440"/>
      <keymap last_key="127" description="empty" middle_key="60" base_key="69" first_key="0" base_freq="440"/>
      <keymap last_key="127" description="empty" middle_key="60" base_key="69" first_key="0" base_freq="440"/>
      <keymap last_key="127" description="empty" middle_key="60" base_key="69" first_key="0" base_freq="440"/>
      <keymap last_key="127" description="empty" middle_key="60" base_key="69" first_key="0" base_freq="440"/>
    </keymaps>
  </song>
</lmms-project>
