<?xml version="1.0"?>
<!DOCTYPE lmms-project>
<lmms-project type="song" version="23" creator="LMMS" creatorversion="1.3.0-alpha.1.231+g49b1f83e4">
  <head bpm="156" timesig_denominator="4" timesig_numerator="4" masterpitch="0" mastervol="100"/>
  <song>
    <trackcontainer type="song" height="582" maximized="0" width="1397" visible="1" minimized="0" x="2" y="1">
      <track name="SGM-V2" type="0" mutedBeforeSolo="0" muted="0" solo="0">
        <instrumenttrack mixch="5" firstkey="0" lastkey="127" range_import="1" vol="100" keymap="0" pitch="0" pitchrange="1" basenote="69" scale="0" enablecc="0" usemasterpitch="1" enabled="0" pan="0">
          <midicontrollers cc21="0" cc120="0" cc69="0" cc0="0" cc19="0" cc70="0" cc97="0" cc63="0" cc25="0" cc114="0" cc54="0" cc2="0" cc31="0" cc123="0" cc45="0" cc50="0" cc14="0" cc98="0" cc61="0" cc94="0" cc59="0" cc71="0" cc41="0" cc56="0" cc68="0" cc108="0" cc33="0" cc46="0" cc35="0" cc99="0" cc109="0" cc106="0" cc66="0" cc87="0" cc52="0" cc81="0" cc22="0" cc95="0" cc47="0" cc43="0" cc110="0" cc86="0" cc58="0" cc36="0" cc96="0" cc39="0" cc9="0" cc67="0" cc126="0" cc3="0" cc119="0" cc48="0" cc82="0" cc32="0" cc125="0" cc17="0" cc91="0" cc1="0" cc83="0" cc92="0" cc107="0" cc28="0" cc23="0" cc79="0" cc49="0" cc80="0" cc10="0" cc51="0" cc121="0" cc117="0" cc88="0" cc30="0" cc24="0" cc13="0" cc12="0" cc65="0" cc111="0" cc40="0" cc26="0" cc73="0" cc77="0" cc105="0" cc62="0" cc18="0" cc55="0" cc75="0" cc104="0" cc76="0" cc127="0" cc20="0" cc89="0" cc113="0" cc124="0" cc85="0" cc60="0" cc100="0" cc115="0" cc74="0" cc29="0" cc38="0" cc78="0" cc16="0" cc93="0" cc84="0" cc37="0" cc7="0" cc11="0" cc44="0" cc64="0" cc101="0" cc112="0" cc6="0" cc53="0" cc72="0" cc15="0" cc34="0" cc4="0" cc102="0" cc122="0" cc8="0" cc27="0" cc42="0" cc57="0" cc90="0" cc116="0" cc5="0" cc103="0" cc118="0"/>
          <instrument name="sf2player">
            <sf2player chorusSpeed="0.3" bank="0" reverbDamping="0" chorusDepth="8" reverbRoomSize="0.2" chorusLevel="2" src="usersoundfont:SGM-V2.01.sf2" gain="0.94" chorusOn="0" reverbLevel="0.9" reverbOn="0" chorusNum="3" patch="56" reverbWidth="0.5">
              <key/>
            </sf2player>
          </instrument>
          <eldata fres="0.5" fwet="0" fcut="14000" ftype="0">
            <elvol latt="0" x100="0" dec="0.5" hold="0.5" lspd_syncmode="0" lspd="0.1" att="0" ctlenvamt="0" lamt="0" lspd_denominator="4" lpdel="0" lshp="0" lspd_numerator="4" amt="0" rel="0.1" pdel="0" userwavefile="" sustain="0.5"/>
            <elcut latt="0" x100="0" dec="0.5" hold="0.5" lspd_syncmode="0" lspd="0.1" att="0" ctlenvamt="0" lamt="0" lspd_denominator="4" lpdel="0" lshp="0" lspd_numerator="4" amt="0" rel="0.1" pdel="0" userwavefile="" sustain="0.5"/>
            <elres latt="0" x100="0" dec="0.5" hold="0.5" lspd_syncmode="0" lspd="0.1" att="0" ctlenvamt="0" lamt="0" lspd_denominator="4" lpdel="0" lshp="0" lspd_numerator="4" amt="0" rel="0.1" pdel="0" userwavefile="" sustain="0.5"/>
          </eldata>
          <chordcreator chord-enabled="0" chordrange="1" chord="0"/>
          <arpeggiator arprepeats="1" arp="0" arptime_numerator="4" arpmode="0" arpskip="0" arptime_denominator="4" arpdir="0" arprange="1" arptime="200" arpgate="100" arp-enabled="0" arptime_syncmode="0" arpmiss="0" arpcycle="0"/>
          <midiport fixedinputvelocity="-1" inputchannel="0" writable="0" outputcontroller="0" inports="" fixedoutputvelocity="-1" outputchannel="1" outputprogram="1" readable="1" inputcontroller="0" fixedoutputnote="-1" basevelocity="63"/>
          <fxchain numofeffects="0" enabled="0"/>
        </instrumenttrack>
        <midiclip name="" type="1" steps="16" muted="0" pos="2880">
          <note key="77" vol="100" len="9" pos="0" pan="0"/>
          <note key="74" vol="100" len="9" pos="0" pan="0"/>
          <note key="77" vol="100" len="9" pos="24" pan="0"/>
          <note key="74" vol="100" len="9" pos="24" pan="0"/>
          <note key="77" vol="100" len="9" pos="48" pan="0"/>
          <note key="74" vol="100" len="9" pos="48" pan="0"/>
          <note key="76" vol="100" len="9" pos="72" pan="0"/>
          <note key="73" vol="100" len="9" pos="72" pan="0"/>
          <note key="76" vol="100" len="9" pos="96" pan="0"/>
          <note key="73" vol="100" len="9" pos="96" pan="0"/>
          <note key="75" vol="100" len="9" pos="120" pan="0"/>
          <note key="72" vol="100" len="9" pos="120" pan="0"/>
          <note key="75" vol="100" len="9" pos="144" pan="0"/>
          <note key="72" vol="100" len="9" pos="144" pan="0"/>
          <note key="74" vol="100" len="9" pos="168" pan="0"/>
          <note key="71" vol="100" len="9" pos="168" pan="0"/>
        </midiclip>
        <midiclip name="" type="1" steps="16" muted="0" pos="3648">
          <note key="62" vol="100" len="96" pos="0" pan="0"/>
          <note key="59" vol="100" len="96" pos="0" pan="0"/>
          <note key="64" vol="100" len="96" pos="96" pan="0"/>
          <note key="61" vol="100" len="96" pos="96" pan="0"/>
        </midiclip>
        <midiclip name="" type="1" steps="16" muted="0" pos="3840">
          <note key="66" vol="100" len="72" pos="0" pan="0"/>
          <note key="62" vol="100" len="72" pos="0" pan="0"/>
          <note key="59" vol="100" len="72" pos="72" pan="0"/>
          <note key="54" vol="100" len="72" pos="72" pan="0"/>
          <note key="66" vol="100" len="48" pos="144" pan="0"/>
          <note key="62" vol="100" len="48" pos="144" pan="0"/>
          <note key="65" vol="100" len="72" pos="192" pan="0"/>
          <note key="61" vol="100" len="72" pos="192" pan="0"/>
          <note key="66" vol="100" len="72" pos="264" pan="0"/>
          <note key="63" vol="100" len="72" pos="264" pan="0"/>
          <note key="68" vol="100" len="48" pos="336" pan="0"/>
          <note key="65" vol="100" len="48" pos="336" pan="0"/>
          <note key="69" vol="100" len="72" pos="384" pan="0"/>
          <note key="66" vol="100" len="72" pos="384" pan="0"/>
          <note key="66" vol="100" len="72" pos="456" pan="0"/>
          <note key="62" vol="100" len="72" pos="456" pan="0"/>
          <note key="64" vol="100" len="48" pos="528" pan="0"/>
          <note key="61" vol="100" len="48" pos="528" pan="0"/>
          <note key="63" vol="100" len="180" pos="576" pan="0"/>
          <note key="59" vol="100" len="180" pos="576" pan="0"/>
          <note key="62" vol="100" len="72" pos="768" pan="0"/>
          <note key="57" vol="100" len="72" pos="768" pan="0"/>
          <note key="59" vol="100" len="72" pos="840" pan="0"/>
          <note key="54" vol="100" len="72" pos="840" pan="0"/>
          <note key="62" vol="100" len="48" pos="912" pan="0"/>
          <note key="57" vol="100" len="48" pos="912" pan="0"/>
          <note key="61" vol="100" len="72" pos="960" pan="0"/>
          <note key="56" vol="100" len="72" pos="960" pan="0"/>
          <note key="56" vol="100" len="72" pos="1032" pan="0"/>
          <note key="53" vol="100" len="72" pos="1032" pan="0"/>
          <note key="53" vol="100" len="48" pos="1104" pan="0"/>
          <note key="49" vol="100" len="48" pos="1104" pan="0"/>
          <note key="54" vol="100" len="72" pos="1152" pan="0"/>
          <note key="51" vol="100" len="72" pos="1152" pan="0"/>
          <note key="57" vol="100" len="72" pos="1224" pan="0"/>
          <note key="54" vol="100" len="72" pos="1224" pan="0"/>
          <note key="61" vol="100" len="48" pos="1296" pan="0"/>
          <note key="57" vol="100" len="48" pos="1296" pan="0"/>
          <note key="63" vol="100" len="72" pos="1344" pan="0"/>
          <note key="59" vol="100" len="72" pos="1344" pan="0"/>
          <note key="61" vol="100" len="72" pos="1416" pan="0"/>
          <note key="57" vol="100" len="72" pos="1416" pan="0"/>
          <note key="59" vol="100" len="48" pos="1488" pan="0"/>
          <note key="54" vol="100" len="48" pos="1488" pan="0"/>
        </midiclip>
      </track>
      <track name="GiantSoundfontV6" type="0" mutedBeforeSolo="0" muted="0" solo="0">
        <instrumenttrack mixch="6" firstkey="0" lastkey="127" range_import="1" vol="100" keymap="0" pitch="0" pitchrange="1" basenote="69" scale="0" enablecc="0" usemasterpitch="1" enabled="0" pan="0">
          <midicontrollers cc21="0" cc120="0" cc69="0" cc0="0" cc19="0" cc70="0" cc97="0" cc63="0" cc25="0" cc114="0" cc54="0" cc2="0" cc31="0" cc123="0" cc45="0" cc50="0" cc14="0" cc98="0" cc61="0" cc94="0" cc59="0" cc71="0" cc41="0" cc56="0" cc68="0" cc108="0" cc33="0" cc46="0" cc35="0" cc99="0" cc109="0" cc106="0" cc66="0" cc87="0" cc52="0" cc81="0" cc22="0" cc95="0" cc47="0" cc43="0" cc110="0" cc86="0" cc58="0" cc36="0" cc96="0" cc39="0" cc9="0" cc67="0" cc126="0" cc3="0" cc119="0" cc48="0" cc82="0" cc32="0" cc125="0" cc17="0" cc91="0" cc1="0" cc83="0" cc92="0" cc107="0" cc28="0" cc23="0" cc79="0" cc49="0" cc80="0" cc10="0" cc51="0" cc121="0" cc117="0" cc88="0" cc30="0" cc24="0" cc13="0" cc12="0" cc65="0" cc111="0" cc40="0" cc26="0" cc73="0" cc77="0" cc105="0" cc62="0" cc18="0" cc55="0" cc75="0" cc104="0" cc76="0" cc127="0" cc20="0" cc89="0" cc113="0" cc124="0" cc85="0" cc60="0" cc100="0" cc115="0" cc74="0" cc29="0" cc38="0" cc78="0" cc16="0" cc93="0" cc84="0" cc37="0" cc7="0" cc11="0" cc44="0" cc64="0" cc101="0" cc112="0" cc6="0" cc53="0" cc72="0" cc15="0" cc34="0" cc4="0" cc102="0" cc122="0" cc8="0" cc27="0" cc42="0" cc57="0" cc90="0" cc116="0" cc5="0" cc103="0" cc118="0"/>
          <instrument name="sf2player">
            <sf2player chorusSpeed="0.3" bank="0" reverbDamping="0" chorusDepth="8" reverbRoomSize="0.2" chorusLevel="2" src="usersoundfont:GiantSoundfontV6.6_WIPMelodicBank.sf2" gain="3" chorusOn="0" reverbLevel="0.9" reverbOn="0" chorusNum="3" patch="80" reverbWidth="0.5">
              <key/>
            </sf2player>
          </instrument>
          <eldata fres="0.5" fwet="0" fcut="14000" ftype="0">
            <elvol latt="0" x100="0" dec="0.5" hold="0.5" lspd_syncmode="0" lspd="0.1" att="0" ctlenvamt="0" lamt="0" lspd_denominator="4" lpdel="0" lshp="0" lspd_numerator="4" amt="0" rel="0.1" pdel="0" userwavefile="" sustain="0.5"/>
            <elcut latt="0" x100="0" dec="0.5" hold="0.5" lspd_syncmode="0" lspd="0.1" att="0" ctlenvamt="0" lamt="0" lspd_denominator="4" lpdel="0" lshp="0" lspd_numerator="4" amt="0" rel="0.1" pdel="0" userwavefile="" sustain="0.5"/>
            <elres latt="0" x100="0" dec="0.5" hold="0.5" lspd_syncmode="0" lspd="0.1" att="0" ctlenvamt="0" lamt="0" lspd_denominator="4" lpdel="0" lshp="0" lspd_numerator="4" amt="0" rel="0.1" pdel="0" userwavefile="" sustain="0.5"/>
          </eldata>
          <chordcreator chord-enabled="0" chordrange="1" chord="0"/>
          <arpeggiator arprepeats="1" arp="0" arptime_numerator="4" arpmode="0" arpskip="0" arptime_denominator="4" arpdir="0" arprange="1" arptime="200" arpgate="100" arp-enabled="0" arptime_syncmode="0" arpmiss="0" arpcycle="0"/>
          <midiport fixedinputvelocity="-1" inputchannel="0" writable="0" outputcontroller="0" inports="" fixedoutputvelocity="-1" outputchannel="1" outputprogram="1" readable="1" inputcontroller="0" fixedoutputnote="-1" basevelocity="63"/>
          <fxchain numofeffects="0" enabled="0"/>
        </instrumenttrack>
        <midiclip name="" type="1" steps="16" muted="0" pos="768">
          <note key="62" vol="100" len="12" pos="0" pan="0"/>
          <note key="61" vol="100" len="12" pos="24" pan="0"/>
          <note key="59" vol="100" len="12" pos="48" pan="0"/>
          <note key="61" vol="100" len="12" pos="72" pan="0"/>
          <note key="62" vol="100" len="12" pos="96" pan="0"/>
          <note key="61" vol="100" len="12" pos="120" pan="0"/>
          <note key="59" vol="100" len="12" pos="144" pan="0"/>
          <note key="61" vol="100" len="12" pos="168" pan="0"/>
          <note key="62" vol="100" len="36" pos="192" pan="0"/>
          <note key="59" vol="100" len="36" pos="240" pan="0"/>
          <note key="59" vol="100" len="72" pos="288" pan="0"/>
          <note key="62" vol="100" len="12" pos="384" pan="0"/>
          <note key="61" vol="100" len="12" pos="408" pan="0"/>
          <note key="59" vol="100" len="12" pos="432" pan="0"/>
          <note key="61" vol="100" len="12" pos="456" pan="0"/>
          <note key="62" vol="100" len="12" pos="480" pan="0"/>
          <note key="61" vol="100" len="12" pos="504" pan="0"/>
          <note key="59" vol="100" len="12" pos="528" pan="0"/>
          <note key="61" vol="100" len="12" pos="552" pan="0"/>
          <note key="62" vol="100" len="36" pos="576" pan="0"/>
          <note key="66" vol="100" len="36" pos="624" pan="0"/>
          <note key="64" vol="100" len="36" pos="672" pan="0"/>
          <note key="62" vol="100" len="36" pos="720" pan="0"/>
          <note key="61" vol="100" len="60" pos="768" pan="0"/>
          <note key="59" vol="100" len="12" pos="840" pan="0"/>
          <note key="57" vol="100" len="72" pos="864" pan="0"/>
        </midiclip>
        <midiclip name="" type="1" steps="16" muted="0" pos="2304">
          <note key="64" vol="100" len="24" pos="0" pan="0"/>
          <note key="67" vol="100" len="24" pos="24" pan="0"/>
          <note key="71" vol="100" len="12" pos="48" pan="0"/>
          <note key="67" vol="100" len="6" pos="60" pan="0"/>
          <note key="71" vol="100" len="6" pos="66" pan="0"/>
          <note key="76" vol="100" len="24" pos="72" pan="0"/>
          <note key="71" vol="100" len="6" pos="108" pan="0"/>
          <note key="74" vol="100" len="6" pos="114" pan="0"/>
          <note key="76" vol="100" len="24" pos="120" pan="0"/>
          <note key="79" vol="100" len="6" pos="156" pan="0"/>
          <note key="76" vol="100" len="6" pos="162" pan="0"/>
          <note key="74" vol="100" len="24" pos="168" pan="0"/>
          <note key="76" vol="100" len="6" pos="204" pan="0"/>
          <note key="74" vol="100" len="6" pos="210" pan="0"/>
          <note key="71" vol="100" len="24" pos="216" pan="0"/>
          <note key="67" vol="100" len="6" pos="252" pan="0"/>
          <note key="71" vol="100" len="6" pos="258" pan="0"/>
          <note key="69" vol="100" len="24" pos="264" pan="0"/>
          <note key="69" vol="100" len="6" pos="300" pan="0"/>
          <note key="71" vol="100" len="6" pos="306" pan="0"/>
          <note key="67" vol="100" len="24" pos="312" pan="0"/>
          <note key="69" vol="100" len="24" pos="384" pan="0"/>
          <note key="71" vol="100" len="24" pos="432" pan="0"/>
          <note key="64" vol="100" len="24" pos="456" pan="0"/>
          <note key="64" vol="100" len="24" pos="504" pan="0"/>
          <note key="64" vol="100" len="24" pos="528" pan="0"/>
          <note key="69" vol="100" len="24" pos="552" pan="0"/>
          <note key="64" vol="100" len="24" pos="576" pan="0"/>
          <note key="59" vol="100" len="24" pos="600" pan="0"/>
          <note key="71" vol="100" len="24" pos="624" pan="0"/>
          <note key="64" vol="100" len="24" pos="648" pan="0"/>
          <note key="74" vol="100" len="24" pos="672" pan="0"/>
          <note key="67" vol="100" len="24" pos="696" pan="0"/>
          <note key="76" vol="100" len="24" pos="720" pan="0"/>
          <note key="71" vol="100" len="24" pos="744" pan="0"/>
        </midiclip>
        <midiclip name="" type="1" steps="16" muted="0" pos="3072">
          <note key="64" vol="100" len="24" pos="0" pan="0"/>
          <note key="67" vol="100" len="24" pos="24" pan="0"/>
          <note key="71" vol="100" len="12" pos="48" pan="0"/>
          <note key="67" vol="100" len="6" pos="60" pan="0"/>
          <note key="71" vol="100" len="6" pos="66" pan="0"/>
          <note key="76" vol="100" len="24" pos="72" pan="0"/>
          <note key="71" vol="100" len="6" pos="108" pan="0"/>
          <note key="74" vol="100" len="6" pos="114" pan="0"/>
          <note key="76" vol="100" len="24" pos="120" pan="0"/>
          <note key="79" vol="100" len="6" pos="156" pan="0"/>
          <note key="76" vol="100" len="6" pos="162" pan="0"/>
          <note key="74" vol="100" len="24" pos="168" pan="0"/>
          <note key="76" vol="100" len="6" pos="204" pan="0"/>
          <note key="74" vol="100" len="6" pos="210" pan="0"/>
          <note key="71" vol="100" len="24" pos="216" pan="0"/>
          <note key="67" vol="100" len="6" pos="252" pan="0"/>
          <note key="71" vol="100" len="6" pos="258" pan="0"/>
          <note key="69" vol="100" len="24" pos="264" pan="0"/>
          <note key="69" vol="100" len="6" pos="300" pan="0"/>
          <note key="71" vol="100" len="6" pos="306" pan="0"/>
          <note key="67" vol="100" len="24" pos="312" pan="0"/>
          <note key="64" vol="100" len="24" pos="384" pan="0"/>
          <note key="69" vol="100" len="24" pos="408" pan="0"/>
          <note key="71" vol="100" len="24" pos="432" pan="0"/>
          <note key="74" vol="100" len="24" pos="456" pan="0"/>
          <note key="71" vol="100" len="24" pos="504" pan="0"/>
          <note key="74" vol="100" len="24" pos="528" pan="0"/>
          <note key="73" vol="100" len="24" pos="552" pan="0"/>
          <note key="71" vol="100" len="24" pos="600" pan="0"/>
          <note key="73" vol="100" len="24" pos="624" pan="0"/>
          <note key="74" vol="100" len="24" pos="648" pan="0"/>
          <note key="73" vol="100" len="24" pos="672" pan="0"/>
          <note key="71" vol="100" len="24" pos="696" pan="0"/>
          <note key="69" vol="100" len="24" pos="720" pan="0"/>
          <note key="66" vol="100" len="24" pos="744" pan="0"/>
        </midiclip>
      </track>
      <track name="GeneralUser GS v1" type="0" mutedBeforeSolo="0" muted="0" solo="0">
        <instrumenttrack mixch="6" firstkey="0" lastkey="127" range_import="1" vol="100" keymap="0" pitch="0" pitchrange="1" basenote="69" scale="0" enablecc="0" usemasterpitch="1" enabled="0" pan="0">
          <midicontrollers cc21="0" cc120="0" cc69="0" cc0="0" cc19="0" cc70="0" cc97="0" cc63="0" cc25="0" cc114="0" cc54="0" cc2="0" cc31="0" cc123="0" cc45="0" cc50="0" cc14="0" cc98="0" cc61="0" cc94="0" cc59="0" cc71="0" cc41="0" cc56="0" cc68="0" cc108="0" cc33="0" cc46="0" cc35="0" cc99="0" cc109="0" cc106="0" cc66="0" cc87="0" cc52="0" cc81="0" cc22="0" cc95="0" cc47="0" cc43="0" cc110="0" cc86="0" cc58="0" cc36="0" cc96="0" cc39="0" cc9="0" cc67="0" cc126="0" cc3="0" cc119="0" cc48="0" cc82="0" cc32="0" cc125="0" cc17="0" cc91="0" cc1="0" cc83="0" cc92="0" cc107="0" cc28="0" cc23="0" cc79="0" cc49="0" cc80="0" cc10="0" cc51="0" cc121="0" cc117="0" cc88="0" cc30="0" cc24="0" cc13="0" cc12="0" cc65="0" cc111="0" cc40="0" cc26="0" cc73="0" cc77="0" cc105="0" cc62="0" cc18="0" cc55="0" cc75="0" cc104="0" cc76="0" cc127="0" cc20="0" cc89="0" cc113="0" cc124="0" cc85="0" cc60="0" cc100="0" cc115="0" cc74="0" cc29="0" cc38="0" cc78="0" cc16="0" cc93="0" cc84="0" cc37="0" cc7="0" cc11="0" cc44="0" cc64="0" cc101="0" cc112="0" cc6="0" cc53="0" cc72="0" cc15="0" cc34="0" cc4="0" cc102="0" cc122="0" cc8="0" cc27="0" cc42="0" cc57="0" cc90="0" cc116="0" cc5="0" cc103="0" cc118="0"/>
          <instrument name="sf2player">
            <sf2player chorusSpeed="0.3" bank="0" reverbDamping="0" chorusDepth="8" reverbRoomSize="0.2" chorusLevel="2" src="usersoundfont:GeneralUser GS v1.471.sf2" gain="0.265" chorusOn="0" reverbLevel="0.9" reverbOn="0" chorusNum="3" patch="85" reverbWidth="0.5">
              <key/>
            </sf2player>
          </instrument>
          <eldata fres="0.5" fwet="0" fcut="14000" ftype="0">
            <elvol latt="0" x100="0" dec="0.5" hold="0.5" lspd_syncmode="0" lspd="0.1" att="0" ctlenvamt="0" lamt="0" lspd_denominator="4" lpdel="0" lshp="0" lspd_numerator="4" amt="0" rel="0.1" pdel="0" userwavefile="" sustain="0.5"/>
            <elcut latt="0" x100="0" dec="0.5" hold="0.5" lspd_syncmode="0" lspd="0.1" att="0" ctlenvamt="0" lamt="0" lspd_denominator="4" lpdel="0" lshp="0" lspd_numerator="4" amt="0" rel="0.1" pdel="0" userwavefile="" sustain="0.5"/>
            <elres latt="0" x100="0" dec="0.5" hold="0.5" lspd_syncmode="0" lspd="0.1" att="0" ctlenvamt="0" lamt="0" lspd_denominator="4" lpdel="0" lshp="0" lspd_numerator="4" amt="0" rel="0.1" pdel="0" userwavefile="" sustain="0.5"/>
          </eldata>
          <chordcreator chord-enabled="0" chordrange="1" chord="0"/>
          <arpeggiator arprepeats="1" arp="0" arptime_numerator="4" arpmode="0" arpskip="0" arptime_denominator="4" arpdir="0" arprange="1" arptime="200" arpgate="100" arp-enabled="0" arptime_syncmode="0" arpmiss="0" arpcycle="0"/>
          <midiport fixedinputvelocity="-1" inputchannel="0" writable="0" outputcontroller="0" inports="" fixedoutputvelocity="-1" outputchannel="1" outputprogram="1" readable="1" inputcontroller="0" fixedoutputnote="-1" basevelocity="63"/>
          <fxchain numofeffects="0" enabled="0"/>
        </instrumenttrack>
        <midiclip name="" type="1" steps="16" muted="0" pos="768">
          <note key="62" vol="100" len="12" pos="0" pan="0"/>
          <note key="61" vol="100" len="12" pos="24" pan="0"/>
          <note key="62" vol="100" len="12" pos="48" pan="0"/>
          <note key="61" vol="100" len="12" pos="72" pan="0"/>
          <note key="62" vol="100" len="12" pos="96" pan="0"/>
          <note key="61" vol="100" len="12" pos="120" pan="0"/>
          <note key="62" vol="100" len="12" pos="144" pan="0"/>
          <note key="61" vol="100" len="12" pos="168" pan="0"/>
        </midiclip>
        <midiclip name="" type="1" steps="16" muted="0" pos="960">
          <note key="62" vol="100" len="12" pos="0" pan="0"/>
          <note key="61" vol="100" len="12" pos="24" pan="0"/>
          <note key="62" vol="100" len="12" pos="48" pan="0"/>
          <note key="61" vol="100" len="12" pos="72" pan="0"/>
          <note key="62" vol="100" len="12" pos="96" pan="0"/>
          <note key="61" vol="100" len="12" pos="120" pan="0"/>
          <note key="62" vol="100" len="12" pos="144" pan="0"/>
          <note key="61" vol="100" len="12" pos="168" pan="0"/>
        </midiclip>
        <midiclip name="" type="1" steps="16" muted="0" pos="1152">
          <note key="62" vol="100" len="12" pos="0" pan="0"/>
          <note key="61" vol="100" len="12" pos="24" pan="0"/>
          <note key="62" vol="100" len="12" pos="48" pan="0"/>
          <note key="61" vol="100" len="12" pos="72" pan="0"/>
          <note key="62" vol="100" len="12" pos="96" pan="0"/>
          <note key="61" vol="100" len="12" pos="120" pan="0"/>
          <note key="62" vol="100" len="12" pos="144" pan="0"/>
          <note key="61" vol="100" len="12" pos="168" pan="0"/>
        </midiclip>
        <midiclip name="" type="1" steps="16" muted="0" pos="1344">
          <note key="62" vol="100" len="12" pos="0" pan="0"/>
          <note key="61" vol="100" len="12" pos="24" pan="0"/>
          <note key="62" vol="100" len="12" pos="48" pan="0"/>
          <note key="61" vol="100" len="12" pos="72" pan="0"/>
          <note key="62" vol="100" len="12" pos="96" pan="0"/>
          <note key="61" vol="100" len="12" pos="120" pan="0"/>
          <note key="62" vol="100" len="12" pos="144" pan="0"/>
          <note key="61" vol="100" len="12" pos="168" pan="0"/>
        </midiclip>
        <midiclip name="" type="1" steps="16" muted="0" pos="1536">
          <note key="61" vol="100" len="12" pos="0" pan="0"/>
          <note key="59" vol="100" len="12" pos="24" pan="0"/>
          <note key="61" vol="100" len="12" pos="48" pan="0"/>
          <note key="59" vol="100" len="12" pos="72" pan="0"/>
          <note key="61" vol="100" len="12" pos="96" pan="0"/>
          <note key="59" vol="100" len="12" pos="120" pan="0"/>
          <note key="61" vol="100" len="12" pos="144" pan="0"/>
          <note key="59" vol="100" len="12" pos="168" pan="0"/>
        </midiclip>
        <midiclip name="" type="1" steps="16" muted="0" pos="1728">
          <note key="61" vol="100" len="12" pos="0" pan="0"/>
          <note key="59" vol="100" len="12" pos="24" pan="0"/>
          <note key="61" vol="100" len="12" pos="48" pan="0"/>
          <note key="59" vol="100" len="12" pos="72" pan="0"/>
          <note key="61" vol="100" len="12" pos="96" pan="0"/>
          <note key="59" vol="100" len="12" pos="120" pan="0"/>
          <note key="61" vol="100" len="12" pos="144" pan="0"/>
          <note key="59" vol="100" len="12" pos="168" pan="0"/>
        </midiclip>
        <midiclip name="" type="1" steps="16" muted="0" pos="1920">
          <note key="61" vol="100" len="12" pos="0" pan="0"/>
          <note key="59" vol="100" len="12" pos="24" pan="0"/>
          <note key="61" vol="100" len="12" pos="48" pan="0"/>
          <note key="59" vol="100" len="12" pos="72" pan="0"/>
          <note key="61" vol="100" len="12" pos="96" pan="0"/>
          <note key="59" vol="100" len="12" pos="120" pan="0"/>
          <note key="61" vol="100" len="12" pos="144" pan="0"/>
          <note key="59" vol="100" len="12" pos="168" pan="0"/>
        </midiclip>
        <midiclip name="" type="1" steps="16" muted="0" pos="2112">
          <note key="61" vol="100" len="12" pos="0" pan="0"/>
          <note key="59" vol="100" len="12" pos="24" pan="0"/>
          <note key="61" vol="100" len="12" pos="48" pan="0"/>
          <note key="59" vol="100" len="12" pos="72" pan="0"/>
          <note key="61" vol="100" len="12" pos="96" pan="0"/>
          <note key="59" vol="100" len="12" pos="120" pan="0"/>
          <note key="61" vol="100" len="12" pos="144" pan="0"/>
          <note key="62" vol="100" len="12" pos="168" pan="0"/>
        </midiclip>
        <midiclip name="" type="1" steps="16" muted="0" pos="0">
          <note key="62" vol="100" len="12" pos="0" pan="0"/>
          <note key="61" vol="100" len="12" pos="24" pan="0"/>
          <note key="62" vol="100" len="12" pos="48" pan="0"/>
          <note key="61" vol="100" len="12" pos="72" pan="0"/>
          <note key="62" vol="100" len="12" pos="96" pan="0"/>
          <note key="61" vol="100" len="12" pos="120" pan="0"/>
          <note key="62" vol="100" len="12" pos="144" pan="0"/>
          <note key="61" vol="100" len="12" pos="168" pan="0"/>
        </midiclip>
        <midiclip name="" type="1" steps="16" muted="0" pos="192">
          <note key="62" vol="100" len="12" pos="0" pan="0"/>
          <note key="61" vol="100" len="12" pos="24" pan="0"/>
          <note key="62" vol="100" len="12" pos="48" pan="0"/>
          <note key="61" vol="100" len="12" pos="72" pan="0"/>
          <note key="62" vol="100" len="12" pos="96" pan="0"/>
          <note key="61" vol="100" len="12" pos="120" pan="0"/>
          <note key="62" vol="100" len="12" pos="144" pan="0"/>
          <note key="61" vol="100" len="12" pos="168" pan="0"/>
        </midiclip>
        <midiclip name="" type="1" steps="16" muted="0" pos="384">
          <note key="62" vol="100" len="12" pos="0" pan="0"/>
          <note key="59" vol="100" len="12" pos="24" pan="0"/>
          <note key="62" vol="100" len="12" pos="48" pan="0"/>
          <note key="59" vol="100" len="12" pos="72" pan="0"/>
          <note key="62" vol="100" len="12" pos="96" pan="0"/>
          <note key="59" vol="100" len="12" pos="120" pan="0"/>
          <note key="62" vol="100" len="12" pos="144" pan="0"/>
          <note key="59" vol="100" len="12" pos="168" pan="0"/>
        </midiclip>
        <midiclip name="" type="1" steps="16" muted="0" pos="2304">
          <note key="64" vol="100" len="12" pos="0" pan="0"/>
          <note key="59" vol="100" len="12" pos="24" pan="0"/>
          <note key="64" vol="100" len="12" pos="48" pan="0"/>
          <note key="59" vol="100" len="12" pos="72" pan="0"/>
          <note key="64" vol="100" len="12" pos="96" pan="0"/>
          <note key="59" vol="100" len="12" pos="120" pan="0"/>
          <note key="64" vol="100" len="12" pos="144" pan="0"/>
          <note key="59" vol="100" len="12" pos="168" pan="0"/>
        </midiclip>
        <midiclip name="" type="1" steps="16" muted="0" pos="2496">
          <note key="62" vol="100" len="12" pos="0" pan="0"/>
          <note key="61" vol="100" len="12" pos="24" pan="0"/>
          <note key="62" vol="100" len="12" pos="48" pan="0"/>
          <note key="61" vol="100" len="12" pos="72" pan="0"/>
          <note key="62" vol="100" len="12" pos="96" pan="0"/>
          <note key="61" vol="100" len="12" pos="120" pan="0"/>
          <note key="62" vol="100" len="12" pos="144" pan="0"/>
          <note key="61" vol="100" len="12" pos="168" pan="0"/>
        </midiclip>
        <midiclip name="" type="1" steps="16" muted="0" pos="2688">
          <note key="61" vol="100" len="12" pos="0" pan="0"/>
          <note key="59" vol="100" len="12" pos="24" pan="0"/>
          <note key="61" vol="100" len="12" pos="48" pan="0"/>
          <note key="59" vol="100" len="12" pos="72" pan="0"/>
          <note key="61" vol="100" len="12" pos="96" pan="0"/>
          <note key="59" vol="100" len="12" pos="120" pan="0"/>
          <note key="61" vol="100" len="12" pos="144" pan="0"/>
          <note key="59" vol="100" len="12" pos="168" pan="0"/>
        </midiclip>
        <midiclip name="" type="1" steps="16" muted="0" pos="2880">
          <note key="62" vol="100" len="12" pos="0" pan="0"/>
          <note key="61" vol="100" len="12" pos="24" pan="0"/>
          <note key="62" vol="100" len="12" pos="48" pan="0"/>
          <note key="61" vol="100" len="12" pos="72" pan="0"/>
          <note key="62" vol="100" len="12" pos="96" pan="0"/>
          <note key="61" vol="100" len="12" pos="120" pan="0"/>
          <note key="62" vol="100" len="12" pos="144" pan="0"/>
          <note key="61" vol="100" len="12" pos="168" pan="0"/>
        </midiclip>
        <midiclip name="" type="1" steps="16" muted="0" pos="3264">
          <note key="62" vol="100" len="12" pos="0" pan="0"/>
          <note key="61" vol="100" len="12" pos="24" pan="0"/>
          <note key="62" vol="100" len="12" pos="48" pan="0"/>
          <note key="61" vol="100" len="12" pos="72" pan="0"/>
          <note key="62" vol="100" len="12" pos="96" pan="0"/>
          <note key="61" vol="100" len="12" pos="120" pan="0"/>
          <note key="62" vol="100" len="12" pos="144" pan="0"/>
          <note key="61" vol="100" len="12" pos="168" pan="0"/>
        </midiclip>
        <midiclip name="" type="1" steps="16" muted="0" pos="3456">
          <note key="61" vol="100" len="12" pos="0" pan="0"/>
          <note key="59" vol="100" len="12" pos="24" pan="0"/>
          <note key="61" vol="100" len="12" pos="48" pan="0"/>
          <note key="59" vol="100" len="12" pos="72" pan="0"/>
          <note key="61" vol="100" len="12" pos="96" pan="0"/>
          <note key="59" vol="100" len="12" pos="120" pan="0"/>
          <note key="61" vol="100" len="12" pos="144" pan="0"/>
          <note key="59" vol="100" len="12" pos="168" pan="0"/>
        </midiclip>
        <midiclip name="" type="1" steps="16" muted="0" pos="3648">
          <note key="62" vol="100" len="12" pos="0" pan="0"/>
          <note key="61" vol="100" len="12" pos="24" pan="0"/>
          <note key="62" vol="100" len="12" pos="48" pan="0"/>
          <note key="61" vol="100" len="12" pos="72" pan="0"/>
          <note key="62" vol="100" len="12" pos="96" pan="0"/>
          <note key="61" vol="100" len="12" pos="120" pan="0"/>
          <note key="62" vol="100" len="12" pos="144" pan="0"/>
          <note key="61" vol="100" len="12" pos="168" pan="0"/>
        </midiclip>
        <midiclip name="" type="1" steps="16" muted="0" pos="3072">
          <note key="64" vol="100" len="12" pos="0" pan="0"/>
          <note key="59" vol="100" len="12" pos="24" pan="0"/>
          <note key="64" vol="100" len="12" pos="48" pan="0"/>
          <note key="59" vol="100" len="12" pos="72" pan="0"/>
          <note key="64" vol="100" len="12" pos="96" pan="0"/>
          <note key="59" vol="100" len="12" pos="120" pan="0"/>
          <note key="64" vol="100" len="12" pos="144" pan="0"/>
          <note key="59" vol="100" len="12" pos="168" pan="0"/>
        </midiclip>
        <midiclip name="" type="1" steps="16" muted="0" pos="576">
          <note key="66" vol="100" len="12" pos="0" pan="0"/>
          <note key="59" vol="100" len="12" pos="24" pan="0"/>
          <note key="66" vol="100" len="12" pos="48" pan="0"/>
          <note key="59" vol="100" len="12" pos="72" pan="0"/>
          <note key="66" vol="100" len="12" pos="96" pan="0"/>
          <note key="59" vol="100" len="12" pos="120" pan="0"/>
          <note key="66" vol="100" len="12" pos="144" pan="0"/>
          <note key="59" vol="100" len="12" pos="168" pan="0"/>
        </midiclip>
        <midiclip name="" type="1" steps="16" muted="0" pos="3840">
          <note key="62" vol="100" len="12" pos="0" pan="0"/>
          <note key="61" vol="100" len="12" pos="24" pan="0"/>
          <note key="62" vol="100" len="12" pos="48" pan="0"/>
          <note key="61" vol="100" len="12" pos="72" pan="0"/>
          <note key="62" vol="100" len="12" pos="96" pan="0"/>
          <note key="61" vol="100" len="12" pos="120" pan="0"/>
          <note key="62" vol="100" len="12" pos="144" pan="0"/>
          <note key="61" vol="100" len="12" pos="168" pan="0"/>
        </midiclip>
        <midiclip name="" type="1" steps="16" muted="0" pos="4032">
          <note key="65" vol="100" len="12" pos="0" pan="0"/>
          <note key="63" vol="100" len="12" pos="24" pan="0"/>
          <note key="65" vol="100" len="12" pos="48" pan="0"/>
          <note key="63" vol="100" len="12" pos="72" pan="0"/>
          <note key="65" vol="100" len="12" pos="96" pan="0"/>
          <note key="63" vol="100" len="12" pos="120" pan="0"/>
          <note key="65" vol="100" len="12" pos="144" pan="0"/>
          <note key="63" vol="100" len="12" pos="168" pan="0"/>
        </midiclip>
        <midiclip name="" type="1" steps="16" muted="0" pos="4224">
          <note key="66" vol="100" len="12" pos="0" pan="0"/>
          <note key="64" vol="100" len="12" pos="24" pan="0"/>
          <note key="66" vol="100" len="12" pos="48" pan="0"/>
          <note key="64" vol="100" len="12" pos="72" pan="0"/>
          <note key="66" vol="100" len="12" pos="96" pan="0"/>
          <note key="64" vol="100" len="12" pos="120" pan="0"/>
          <note key="66" vol="100" len="12" pos="144" pan="0"/>
          <note key="64" vol="100" len="12" pos="168" pan="0"/>
        </midiclip>
        <midiclip name="" type="1" steps="16" muted="0" pos="4416">
          <note key="63" vol="100" len="12" pos="0" pan="0"/>
          <note key="61" vol="100" len="12" pos="24" pan="0"/>
          <note key="63" vol="100" len="12" pos="48" pan="0"/>
          <note key="61" vol="100" len="12" pos="72" pan="0"/>
          <note key="63" vol="100" len="12" pos="96" pan="0"/>
          <note key="61" vol="100" len="12" pos="120" pan="0"/>
          <note key="63" vol="100" len="12" pos="144" pan="0"/>
          <note key="61" vol="100" len="12" pos="168" pan="0"/>
        </midiclip>
        <midiclip name="" type="1" steps="16" muted="0" pos="4608">
          <note key="62" vol="100" len="12" pos="0" pan="0"/>
          <note key="61" vol="100" len="12" pos="24" pan="0"/>
          <note key="62" vol="100" len="12" pos="48" pan="0"/>
          <note key="61" vol="100" len="12" pos="72" pan="0"/>
          <note key="62" vol="100" len="12" pos="96" pan="0"/>
          <note key="61" vol="100" len="12" pos="120" pan="0"/>
          <note key="62" vol="100" len="12" pos="144" pan="0"/>
          <note key="61" vol="100" len="12" pos="168" pan="0"/>
        </midiclip>
        <midiclip name="" type="1" steps="16" muted="0" pos="4800">
          <note key="61" vol="100" len="12" pos="0" pan="0"/>
          <note key="59" vol="100" len="12" pos="24" pan="0"/>
          <note key="61" vol="100" len="12" pos="48" pan="0"/>
          <note key="59" vol="100" len="12" pos="72" pan="0"/>
          <note key="61" vol="100" len="12" pos="96" pan="0"/>
          <note key="59" vol="100" len="12" pos="120" pan="0"/>
          <note key="61" vol="100" len="12" pos="144" pan="0"/>
          <note key="59" vol="100" len="12" pos="168" pan="0"/>
        </midiclip>
        <midiclip name="" type="1" steps="16" muted="0" pos="4992">
          <note key="59" vol="100" len="12" pos="0" pan="0"/>
          <note key="54" vol="100" len="12" pos="24" pan="0"/>
          <note key="59" vol="100" len="12" pos="48" pan="0"/>
          <note key="54" vol="100" len="12" pos="72" pan="0"/>
          <note key="59" vol="100" len="12" pos="96" pan="0"/>
          <note key="54" vol="100" len="12" pos="120" pan="0"/>
          <note key="59" vol="100" len="12" pos="144" pan="0"/>
          <note key="54" vol="100" len="12" pos="168" pan="0"/>
        </midiclip>
        <midiclip name="" type="1" steps="16" muted="0" pos="5184">
          <note key="63" vol="100" len="12" pos="0" pan="0"/>
          <note key="59" vol="100" len="12" pos="24" pan="0"/>
          <note key="63" vol="100" len="12" pos="48" pan="0"/>
          <note key="59" vol="100" len="12" pos="72" pan="0"/>
          <note key="63" vol="100" len="12" pos="96" pan="0"/>
          <note key="59" vol="100" len="12" pos="120" pan="0"/>
          <note key="63" vol="100" len="12" pos="144" pan="0"/>
          <note key="59" vol="100" len="12" pos="168" pan="0"/>
        </midiclip>
      </track>
      <track name="GeneralUser GS v1" type="0" mutedBeforeSolo="0" muted="0" solo="0">
        <instrumenttrack mixch="4" firstkey="0" lastkey="127" range_import="1" vol="100" keymap="0" pitch="0" pitchrange="1" basenote="69" scale="0" enablecc="0" usemasterpitch="1" enabled="0" pan="0">
          <midicontrollers cc21="0" cc120="0" cc69="0" cc0="0" cc19="0" cc70="0" cc97="0" cc63="0" cc25="0" cc114="0" cc54="0" cc2="0" cc31="0" cc123="0" cc45="0" cc50="0" cc14="0" cc98="0" cc61="0" cc94="0" cc59="0" cc71="0" cc41="0" cc56="0" cc68="0" cc108="0" cc33="0" cc46="0" cc35="0" cc99="0" cc109="0" cc106="0" cc66="0" cc87="0" cc52="0" cc81="0" cc22="0" cc95="0" cc47="0" cc43="0" cc110="0" cc86="0" cc58="0" cc36="0" cc96="0" cc39="0" cc9="0" cc67="0" cc126="0" cc3="0" cc119="0" cc48="0" cc82="0" cc32="0" cc125="0" cc17="0" cc91="0" cc1="0" cc83="0" cc92="0" cc107="0" cc28="0" cc23="0" cc79="0" cc49="0" cc80="0" cc10="0" cc51="0" cc121="0" cc117="0" cc88="0" cc30="0" cc24="0" cc13="0" cc12="0" cc65="0" cc111="0" cc40="0" cc26="0" cc73="0" cc77="0" cc105="0" cc62="0" cc18="0" cc55="0" cc75="0" cc104="0" cc76="0" cc127="0" cc20="0" cc89="0" cc113="0" cc124="0" cc85="0" cc60="0" cc100="0" cc115="0" cc74="0" cc29="0" cc38="0" cc78="0" cc16="0" cc93="0" cc84="0" cc37="0" cc7="0" cc11="0" cc44="0" cc64="0" cc101="0" cc112="0" cc6="0" cc53="0" cc72="0" cc15="0" cc34="0" cc4="0" cc102="0" cc122="0" cc8="0" cc27="0" cc42="0" cc57="0" cc90="0" cc116="0" cc5="0" cc103="0" cc118="0"/>
          <instrument name="sf2player">
            <sf2player chorusSpeed="0.3" bank="0" reverbDamping="0" chorusDepth="8" reverbRoomSize="0.2" chorusLevel="2" src="usersoundfont:GeneralUser GS v1.471.sf2" gain="0.37" chorusOn="0" reverbLevel="0.9" reverbOn="0" chorusNum="3" patch="42" reverbWidth="0.5">
              <key/>
            </sf2player>
          </instrument>
          <eldata fres="0.5" fwet="0" fcut="14000" ftype="0">
            <elvol latt="0" x100="0" dec="0.5" hold="0.5" lspd_syncmode="0" lspd="0.1" att="0" ctlenvamt="0" lamt="0" lspd_denominator="4" lpdel="0" lshp="0" lspd_numerator="4" amt="0" rel="0.1" pdel="0" userwavefile="" sustain="0.5"/>
            <elcut latt="0" x100="0" dec="0.5" hold="0.5" lspd_syncmode="0" lspd="0.1" att="0" ctlenvamt="0" lamt="0" lspd_denominator="4" lpdel="0" lshp="0" lspd_numerator="4" amt="0" rel="0.1" pdel="0" userwavefile="" sustain="0.5"/>
            <elres latt="0" x100="0" dec="0.5" hold="0.5" lspd_syncmode="0" lspd="0.1" att="0" ctlenvamt="0" lamt="0" lspd_denominator="4" lpdel="0" lshp="0" lspd_numerator="4" amt="0" rel="0.1" pdel="0" userwavefile="" sustain="0.5"/>
          </eldata>
          <chordcreator chord-enabled="0" chordrange="1" chord="0"/>
          <arpeggiator arprepeats="1" arp="0" arptime_numerator="4" arpmode="0" arpskip="0" arptime_denominator="4" arpdir="0" arprange="1" arptime="200" arpgate="100" arp-enabled="0" arptime_syncmode="0" arpmiss="0" arpcycle="0"/>
          <midiport fixedinputvelocity="-1" inputchannel="0" writable="0" outputcontroller="0" inports="" fixedoutputvelocity="-1" outputchannel="1" outputprogram="1" readable="1" inputcontroller="0" fixedoutputnote="-1" basevelocity="127"/>
          <fxchain numofeffects="0" enabled="0"/>
        </instrumenttrack>
        <midiclip name="" type="1" steps="16" muted="0" pos="768">
          <note key="47" vol="100" len="36" pos="0" pan="0"/>
          <note key="54" vol="100" len="36" pos="96" pan="0"/>
          <note key="50" vol="100" len="36" pos="192" pan="0"/>
          <note key="54" vol="100" len="36" pos="288" pan="0"/>
          <note key="47" vol="100" len="36" pos="384" pan="0"/>
          <note key="54" vol="100" len="36" pos="480" pan="0"/>
          <note key="50" vol="100" len="36" pos="576" pan="0"/>
          <note key="54" vol="100" len="36" pos="672" pan="0"/>
          <note key="45" vol="100" len="36" pos="768" pan="0"/>
          <note key="52" vol="100" len="36" pos="864" pan="0"/>
          <note key="49" vol="100" len="36" pos="960" pan="0"/>
          <note key="52" vol="100" len="36" pos="1056" pan="0"/>
          <note key="45" vol="100" len="36" pos="1152" pan="0"/>
          <note key="52" vol="100" len="36" pos="1248" pan="0"/>
          <note key="49" vol="100" len="36" pos="1344" pan="0"/>
          <note key="52" vol="100" len="36" pos="1440" pan="0"/>
          <note key="54" vol="100" len="36" pos="1488" pan="0"/>
        </midiclip>
        <midiclip name="" type="1" steps="16" muted="0" pos="2304">
          <note key="40" vol="100" len="36" pos="0" pan="0"/>
          <note key="47" vol="100" len="36" pos="96" pan="0"/>
          <note key="40" vol="100" len="36" pos="192" pan="0"/>
          <note key="47" vol="100" len="36" pos="288" pan="0"/>
          <note key="45" vol="100" len="36" pos="384" pan="0"/>
          <note key="49" vol="100" len="36" pos="480" pan="0"/>
          <note key="45" vol="100" len="36" pos="576" pan="0"/>
          <note key="49" vol="100" len="36" pos="672" pan="0"/>
          <note key="47" vol="100" len="36" pos="720" pan="0"/>
        </midiclip>
        <midiclip name="" type="1" steps="16" muted="0" pos="3072">
          <note key="40" vol="100" len="36" pos="0" pan="0"/>
          <note key="47" vol="100" len="36" pos="96" pan="0"/>
          <note key="40" vol="100" len="36" pos="192" pan="0"/>
          <note key="47" vol="100" len="36" pos="288" pan="0"/>
          <note key="45" vol="100" len="36" pos="384" pan="0"/>
          <note key="50" vol="100" len="36" pos="480" pan="0"/>
          <note key="52" vol="100" len="36" pos="576" pan="0"/>
          <note key="50" vol="100" len="36" pos="672" pan="0"/>
          <note key="49" vol="100" len="36" pos="720" pan="0"/>
        </midiclip>
        <midiclip name="" type="1" steps="16" muted="0" pos="3840">
          <note key="47" vol="100" len="180" pos="0" pan="0"/>
          <note key="49" vol="100" len="180" pos="192" pan="0"/>
          <note key="50" vol="100" len="180" pos="384" pan="0"/>
          <note key="47" vol="100" len="180" pos="576" pan="0"/>
          <note key="50" vol="100" len="180" pos="768" pan="0"/>
          <note key="49" vol="100" len="180" pos="960" pan="0"/>
          <note key="42" vol="100" len="180" pos="1152" pan="0"/>
          <note key="47" vol="100" len="180" pos="1344" pan="0"/>
        </midiclip>
      </track>
      <track name="Timbres of Heaven (XGM) 4" type="0" mutedBeforeSolo="0" muted="0" solo="0">
        <instrumenttrack mixch="4" firstkey="0" lastkey="127" range_import="1" vol="100" keymap="0" pitch="0" pitchrange="1" basenote="69" scale="0" enablecc="0" usemasterpitch="1" enabled="0" pan="0">
          <midicontrollers cc21="0" cc120="0" cc69="0" cc0="0" cc19="0" cc70="0" cc97="0" cc63="0" cc25="0" cc114="0" cc54="0" cc2="0" cc31="0" cc123="0" cc45="0" cc50="0" cc14="0" cc98="0" cc61="0" cc94="0" cc59="0" cc71="0" cc41="0" cc56="0" cc68="0" cc108="0" cc33="0" cc46="0" cc35="0" cc99="0" cc109="0" cc106="0" cc66="0" cc87="0" cc52="0" cc81="0" cc22="0" cc95="0" cc47="0" cc43="0" cc110="0" cc86="0" cc58="0" cc36="0" cc96="0" cc39="0" cc9="0" cc67="0" cc126="0" cc3="0" cc119="0" cc48="0" cc82="0" cc32="0" cc125="0" cc17="0" cc91="0" cc1="0" cc83="0" cc92="0" cc107="0" cc28="0" cc23="0" cc79="0" cc49="0" cc80="0" cc10="0" cc51="0" cc121="0" cc117="0" cc88="0" cc30="0" cc24="0" cc13="0" cc12="0" cc65="0" cc111="0" cc40="0" cc26="0" cc73="0" cc77="0" cc105="0" cc62="0" cc18="0" cc55="0" cc75="0" cc104="0" cc76="0" cc127="0" cc20="0" cc89="0" cc113="0" cc124="0" cc85="0" cc60="0" cc100="0" cc115="0" cc74="0" cc29="0" cc38="0" cc78="0" cc16="0" cc93="0" cc84="0" cc37="0" cc7="0" cc11="0" cc44="0" cc64="0" cc101="0" cc112="0" cc6="0" cc53="0" cc72="0" cc15="0" cc34="0" cc4="0" cc102="0" cc122="0" cc8="0" cc27="0" cc42="0" cc57="0" cc90="0" cc116="0" cc5="0" cc103="0" cc118="0"/>
          <instrument name="sf2player">
            <sf2player chorusSpeed="0.3" bank="0" reverbDamping="0" chorusDepth="8" reverbRoomSize="0.2" chorusLevel="2" src="usersoundfont:Timbres of Heaven (XGM) 4.00(G).sf2" gain="0.25" chorusOn="0" reverbLevel="0.9" reverbOn="0" chorusNum="3" patch="42" reverbWidth="0.5">
              <key/>
            </sf2player>
          </instrument>
          <eldata fres="0.5" fwet="0" fcut="14000" ftype="0">
            <elvol latt="0" x100="0" dec="0.5" hold="0.5" lspd_syncmode="0" lspd="0.1" att="0" ctlenvamt="0" lamt="0" lspd_denominator="4" lpdel="0" lshp="0" lspd_numerator="4" amt="0" rel="0.1" pdel="0" userwavefile="" sustain="0.5"/>
            <elcut latt="0" x100="0" dec="0.5" hold="0.5" lspd_syncmode="0" lspd="0.1" att="0" ctlenvamt="0" lamt="0" lspd_denominator="4" lpdel="0" lshp="0" lspd_numerator="4" amt="0" rel="0.1" pdel="0" userwavefile="" sustain="0.5"/>
            <elres latt="0" x100="0" dec="0.5" hold="0.5" lspd_syncmode="0" lspd="0.1" att="0" ctlenvamt="0" lamt="0" lspd_denominator="4" lpdel="0" lshp="0" lspd_numerator="4" amt="0" rel="0.1" pdel="0" userwavefile="" sustain="0.5"/>
          </eldata>
          <chordcreator chord-enabled="0" chordrange="1" chord="0"/>
          <arpeggiator arprepeats="1" arp="0" arptime_numerator="4" arpmode="0" arpskip="0" arptime_denominator="4" arpdir="0" arprange="1" arptime="200" arpgate="100" arp-enabled="0" arptime_syncmode="0" arpmiss="0" arpcycle="0"/>
          <midiport fixedinputvelocity="-1" inputchannel="0" writable="0" outputcontroller="0" inports="" fixedoutputvelocity="-1" outputchannel="1" outputprogram="1" readable="1" inputcontroller="0" fixedoutputnote="-1" basevelocity="63"/>
          <fxchain numofeffects="0" enabled="0"/>
        </instrumenttrack>
        <midiclip name="" type="1" steps="16" muted="0" pos="3840">
          <note key="66" vol="100" len="72" pos="0" pan="0"/>
          <note key="62" vol="100" len="72" pos="0" pan="0"/>
          <note key="59" vol="100" len="72" pos="72" pan="0"/>
          <note key="54" vol="100" len="72" pos="72" pan="0"/>
          <note key="66" vol="100" len="48" pos="144" pan="0"/>
          <note key="62" vol="100" len="48" pos="144" pan="0"/>
          <note key="65" vol="100" len="72" pos="192" pan="0"/>
          <note key="61" vol="100" len="72" pos="192" pan="0"/>
          <note key="66" vol="100" len="72" pos="264" pan="0"/>
          <note key="63" vol="100" len="72" pos="264" pan="0"/>
          <note key="68" vol="100" len="48" pos="336" pan="0"/>
          <note key="65" vol="100" len="48" pos="336" pan="0"/>
          <note key="69" vol="100" len="72" pos="384" pan="0"/>
          <note key="66" vol="100" len="72" pos="384" pan="0"/>
          <note key="66" vol="100" len="72" pos="456" pan="0"/>
          <note key="62" vol="100" len="72" pos="456" pan="0"/>
          <note key="64" vol="100" len="48" pos="528" pan="0"/>
          <note key="61" vol="100" len="48" pos="528" pan="0"/>
          <note key="63" vol="100" len="180" pos="576" pan="0"/>
          <note key="59" vol="100" len="180" pos="576" pan="0"/>
          <note key="62" vol="100" len="72" pos="768" pan="0"/>
          <note key="57" vol="100" len="72" pos="768" pan="0"/>
          <note key="59" vol="100" len="72" pos="840" pan="0"/>
          <note key="54" vol="100" len="72" pos="840" pan="0"/>
          <note key="62" vol="100" len="48" pos="912" pan="0"/>
          <note key="57" vol="100" len="48" pos="912" pan="0"/>
          <note key="61" vol="100" len="72" pos="960" pan="0"/>
          <note key="56" vol="100" len="72" pos="960" pan="0"/>
          <note key="56" vol="100" len="72" pos="1032" pan="0"/>
          <note key="53" vol="100" len="72" pos="1032" pan="0"/>
          <note key="53" vol="100" len="48" pos="1104" pan="0"/>
          <note key="49" vol="100" len="48" pos="1104" pan="0"/>
          <note key="54" vol="100" len="72" pos="1152" pan="0"/>
          <note key="51" vol="100" len="72" pos="1152" pan="0"/>
          <note key="57" vol="100" len="72" pos="1224" pan="0"/>
          <note key="54" vol="100" len="72" pos="1224" pan="0"/>
          <note key="61" vol="100" len="48" pos="1296" pan="0"/>
          <note key="57" vol="100" len="48" pos="1296" pan="0"/>
          <note key="63" vol="100" len="72" pos="1344" pan="0"/>
          <note key="59" vol="100" len="72" pos="1344" pan="0"/>
          <note key="61" vol="100" len="72" pos="1416" pan="0"/>
          <note key="57" vol="100" len="72" pos="1416" pan="0"/>
          <note key="59" vol="100" len="48" pos="1488" pan="0"/>
          <note key="54" vol="100" len="48" pos="1488" pan="0"/>
        </midiclip>
      </track>
      <track name="GeneralUser GS v1" type="0" mutedBeforeSolo="0" muted="0" solo="0">
        <instrumenttrack mixch="3" firstkey="0" lastkey="127" range_import="1" vol="100" keymap="0" pitch="0" pitchrange="1" basenote="69" scale="0" enablecc="0" usemasterpitch="1" enabled="0" pan="0">
          <midicontrollers cc21="0" cc120="0" cc69="0" cc0="0" cc19="0" cc70="0" cc97="0" cc63="0" cc25="0" cc114="0" cc54="0" cc2="0" cc31="0" cc123="0" cc45="0" cc50="0" cc14="0" cc98="0" cc61="0" cc94="0" cc59="0" cc71="0" cc41="0" cc56="0" cc68="0" cc108="0" cc33="0" cc46="0" cc35="0" cc99="0" cc109="0" cc106="0" cc66="0" cc87="0" cc52="0" cc81="0" cc22="0" cc95="0" cc47="0" cc43="0" cc110="0" cc86="0" cc58="0" cc36="0" cc96="0" cc39="0" cc9="0" cc67="0" cc126="0" cc3="0" cc119="0" cc48="0" cc82="0" cc32="0" cc125="0" cc17="0" cc91="0" cc1="0" cc83="0" cc92="0" cc107="0" cc28="0" cc23="0" cc79="0" cc49="0" cc80="0" cc10="0" cc51="0" cc121="0" cc117="0" cc88="0" cc30="0" cc24="0" cc13="0" cc12="0" cc65="0" cc111="0" cc40="0" cc26="0" cc73="0" cc77="0" cc105="0" cc62="0" cc18="0" cc55="0" cc75="0" cc104="0" cc76="0" cc127="0" cc20="0" cc89="0" cc113="0" cc124="0" cc85="0" cc60="0" cc100="0" cc115="0" cc74="0" cc29="0" cc38="0" cc78="0" cc16="0" cc93="0" cc84="0" cc37="0" cc7="0" cc11="0" cc44="0" cc64="0" cc101="0" cc112="0" cc6="0" cc53="0" cc72="0" cc15="0" cc34="0" cc4="0" cc102="0" cc122="0" cc8="0" cc27="0" cc42="0" cc57="0" cc90="0" cc116="0" cc5="0" cc103="0" cc118="0"/>
          <instrument name="sf2player">
            <sf2player chorusSpeed="0.3" bank="1" reverbDamping="0" chorusDepth="8" reverbRoomSize="0.2" chorusLevel="2" src="usersoundfont:GeneralUser GS v1.471.sf2" gain="2.82" chorusOn="0" reverbLevel="0.9" reverbOn="0" chorusNum="3" patch="38" reverbWidth="0.5">
              <key/>
            </sf2player>
          </instrument>
          <eldata fres="0.5" fwet="0" fcut="14000" ftype="0">
            <elvol latt="0" x100="0" dec="0.5" hold="0.5" lspd_syncmode="0" lspd="0.1" att="0" ctlenvamt="0" lamt="0" lspd_denominator="4" lpdel="0" lshp="0" lspd_numerator="4" amt="0" rel="0.1" pdel="0" userwavefile="" sustain="0.5"/>
            <elcut latt="0" x100="0" dec="0.5" hold="0.5" lspd_syncmode="0" lspd="0.1" att="0" ctlenvamt="0" lamt="0" lspd_denominator="4" lpdel="0" lshp="0" lspd_numerator="4" amt="0" rel="0.1" pdel="0" userwavefile="" sustain="0.5"/>
            <elres latt="0" x100="0" dec="0.5" hold="0.5" lspd_syncmode="0" lspd="0.1" att="0" ctlenvamt="0" lamt="0" lspd_denominator="4" lpdel="0" lshp="0" lspd_numerator="4" amt="0" rel="0.1" pdel="0" userwavefile="" sustain="0.5"/>
          </eldata>
          <chordcreator chord-enabled="0" chordrange="1" chord="0"/>
          <arpeggiator arprepeats="1" arp="0" arptime_numerator="4" arpmode="0" arpskip="0" arptime_denominator="4" arpdir="0" arprange="1" arptime="200" arpgate="100" arp-enabled="0" arptime_syncmode="0" arpmiss="0" arpcycle="0"/>
          <midiport fixedinputvelocity="-1" inputchannel="0" writable="0" outputcontroller="0" inports="" fixedoutputvelocity="-1" outputchannel="1" outputprogram="1" readable="1" inputcontroller="0" fixedoutputnote="-1" basevelocity="63"/>
          <fxchain numofeffects="0" enabled="0"/>
        </instrumenttrack>
        <midiclip name="" type="1" steps="16" muted="0" pos="0">
          <note key="35" vol="100" len="12" pos="0" pan="0"/>
          <note key="35" vol="100" len="24" pos="24" pan="0"/>
          <note key="35" vol="100" len="12" pos="48" pan="0"/>
          <note key="35" vol="100" len="12" pos="72" pan="0"/>
          <note key="35" vol="100" len="12" pos="96" pan="0"/>
          <note key="35" vol="100" len="24" pos="120" pan="0"/>
          <note key="35" vol="100" len="24" pos="144" pan="0"/>
          <note key="35" vol="100" len="12" pos="168" pan="0"/>
        </midiclip>
        <midiclip name="" type="1" steps="16" muted="0" pos="192">
          <note key="35" vol="100" len="12" pos="0" pan="0"/>
          <note key="35" vol="100" len="24" pos="24" pan="0"/>
          <note key="35" vol="100" len="12" pos="48" pan="0"/>
          <note key="35" vol="100" len="12" pos="72" pan="0"/>
          <note key="35" vol="100" len="12" pos="96" pan="0"/>
          <note key="35" vol="100" len="24" pos="120" pan="0"/>
          <note key="35" vol="100" len="24" pos="144" pan="0"/>
          <note key="35" vol="100" len="12" pos="168" pan="0"/>
        </midiclip>
        <midiclip name="" type="1" steps="16" muted="0" pos="384">
          <note key="35" vol="100" len="12" pos="0" pan="0"/>
          <note key="35" vol="100" len="24" pos="24" pan="0"/>
          <note key="35" vol="100" len="12" pos="48" pan="0"/>
          <note key="35" vol="100" len="12" pos="72" pan="0"/>
          <note key="35" vol="100" len="12" pos="96" pan="0"/>
          <note key="35" vol="100" len="24" pos="120" pan="0"/>
          <note key="35" vol="100" len="24" pos="144" pan="0"/>
          <note key="35" vol="100" len="12" pos="168" pan="0"/>
        </midiclip>
        <midiclip name="" type="1" steps="16" muted="0" pos="576">
          <note key="35" vol="100" len="12" pos="0" pan="0"/>
          <note key="35" vol="100" len="24" pos="24" pan="0"/>
          <note key="35" vol="100" len="12" pos="48" pan="0"/>
          <note key="35" vol="100" len="12" pos="72" pan="0"/>
          <note key="35" vol="100" len="12" pos="96" pan="0"/>
          <note key="35" vol="100" len="24" pos="120" pan="0"/>
          <note key="35" vol="100" len="24" pos="144" pan="0"/>
          <note key="35" vol="100" len="12" pos="168" pan="0"/>
        </midiclip>
        <midiclip name="" type="1" steps="16" muted="0" pos="768">
          <note key="35" vol="100" len="12" pos="0" pan="0"/>
          <note key="35" vol="100" len="24" pos="24" pan="0"/>
          <note key="35" vol="100" len="12" pos="48" pan="0"/>
          <note key="35" vol="100" len="12" pos="72" pan="0"/>
          <note key="35" vol="100" len="12" pos="96" pan="0"/>
          <note key="35" vol="100" len="24" pos="120" pan="0"/>
          <note key="35" vol="100" len="24" pos="144" pan="0"/>
          <note key="35" vol="100" len="12" pos="168" pan="0"/>
        </midiclip>
        <midiclip name="" type="1" steps="16" muted="0" pos="960">
          <note key="35" vol="100" len="12" pos="0" pan="0"/>
          <note key="35" vol="100" len="24" pos="24" pan="0"/>
          <note key="35" vol="100" len="12" pos="48" pan="0"/>
          <note key="35" vol="100" len="12" pos="72" pan="0"/>
          <note key="35" vol="100" len="12" pos="96" pan="0"/>
          <note key="35" vol="100" len="24" pos="120" pan="0"/>
          <note key="35" vol="100" len="24" pos="144" pan="0"/>
          <note key="33" vol="100" len="12" pos="168" pan="0"/>
        </midiclip>
        <midiclip name="" type="1" steps="16" muted="0" pos="1152">
          <note key="35" vol="100" len="12" pos="0" pan="0"/>
          <note key="35" vol="100" len="24" pos="24" pan="0"/>
          <note key="35" vol="100" len="12" pos="48" pan="0"/>
          <note key="35" vol="100" len="12" pos="72" pan="0"/>
          <note key="35" vol="100" len="12" pos="96" pan="0"/>
          <note key="35" vol="100" len="24" pos="120" pan="0"/>
          <note key="35" vol="100" len="24" pos="144" pan="0"/>
          <note key="35" vol="100" len="12" pos="168" pan="0"/>
        </midiclip>
        <midiclip name="" type="1" steps="16" muted="0" pos="1344">
          <note key="35" vol="100" len="12" pos="0" pan="0"/>
          <note key="35" vol="100" len="24" pos="24" pan="0"/>
          <note key="35" vol="100" len="12" pos="48" pan="0"/>
          <note key="35" vol="100" len="12" pos="72" pan="0"/>
          <note key="35" vol="100" len="12" pos="96" pan="0"/>
          <note key="35" vol="100" len="24" pos="120" pan="0"/>
          <note key="35" vol="100" len="24" pos="144" pan="0"/>
          <note key="37" vol="100" len="12" pos="168" pan="0"/>
        </midiclip>
        <midiclip name="" type="1" steps="16" muted="0" pos="1536">
          <note key="33" vol="100" len="12" pos="0" pan="0"/>
          <note key="33" vol="100" len="24" pos="24" pan="0"/>
          <note key="33" vol="100" len="12" pos="48" pan="0"/>
          <note key="33" vol="100" len="12" pos="72" pan="0"/>
          <note key="33" vol="100" len="12" pos="96" pan="0"/>
          <note key="33" vol="100" len="24" pos="120" pan="0"/>
          <note key="33" vol="100" len="24" pos="144" pan="0"/>
          <note key="33" vol="100" len="12" pos="168" pan="0"/>
        </midiclip>
        <midiclip name="" type="1" steps="16" muted="0" pos="1728">
          <note key="33" vol="100" len="12" pos="0" pan="0"/>
          <note key="33" vol="100" len="24" pos="24" pan="0"/>
          <note key="33" vol="100" len="12" pos="48" pan="0"/>
          <note key="33" vol="100" len="12" pos="72" pan="0"/>
          <note key="33" vol="100" len="12" pos="96" pan="0"/>
          <note key="33" vol="100" len="24" pos="120" pan="0"/>
          <note key="33" vol="100" len="24" pos="144" pan="0"/>
          <note key="35" vol="100" len="12" pos="168" pan="0"/>
        </midiclip>
        <midiclip name="" type="1" steps="16" muted="0" pos="1920">
          <note key="33" vol="100" len="12" pos="0" pan="0"/>
          <note key="33" vol="100" len="24" pos="24" pan="0"/>
          <note key="33" vol="100" len="12" pos="48" pan="0"/>
          <note key="33" vol="100" len="12" pos="72" pan="0"/>
          <note key="33" vol="100" len="12" pos="96" pan="0"/>
          <note key="33" vol="100" len="24" pos="120" pan="0"/>
          <note key="33" vol="100" len="24" pos="144" pan="0"/>
          <note key="33" vol="100" len="12" pos="168" pan="0"/>
        </midiclip>
        <midiclip name="" type="1" steps="16" muted="0" pos="2112">
          <note key="33" vol="100" len="12" pos="0" pan="0"/>
          <note key="33" vol="100" len="24" pos="24" pan="0"/>
          <note key="33" vol="100" len="12" pos="48" pan="0"/>
          <note key="33" vol="100" len="12" pos="72" pan="0"/>
          <note key="33" vol="100" len="12" pos="96" pan="0"/>
          <note key="33" vol="100" len="24" pos="120" pan="0"/>
          <note key="33" vol="100" len="24" pos="144" pan="0"/>
          <note key="35" vol="100" len="12" pos="168" pan="0"/>
        </midiclip>
        <midiclip name="" type="1" steps="16" muted="0" pos="2304">
          <note key="28" vol="100" len="12" pos="0" pan="0"/>
          <note key="28" vol="100" len="24" pos="24" pan="0"/>
          <note key="28" vol="100" len="12" pos="48" pan="0"/>
          <note key="28" vol="100" len="12" pos="72" pan="0"/>
          <note key="28" vol="100" len="12" pos="96" pan="0"/>
          <note key="28" vol="100" len="24" pos="120" pan="0"/>
          <note key="28" vol="100" len="24" pos="144" pan="0"/>
          <note key="28" vol="100" len="12" pos="168" pan="0"/>
        </midiclip>
        <midiclip name="" type="1" steps="16" muted="0" pos="2496">
          <note key="28" vol="100" len="12" pos="0" pan="0"/>
          <note key="28" vol="100" len="24" pos="24" pan="0"/>
          <note key="28" vol="100" len="12" pos="48" pan="0"/>
          <note key="28" vol="100" len="12" pos="72" pan="0"/>
          <note key="28" vol="100" len="12" pos="96" pan="0"/>
          <note key="28" vol="100" len="24" pos="120" pan="0"/>
          <note key="28" vol="100" len="24" pos="144" pan="0"/>
          <note key="31" vol="100" len="12" pos="168" pan="0"/>
        </midiclip>
        <midiclip name="" type="1" steps="16" muted="0" pos="2688">
          <note key="33" vol="100" len="12" pos="0" pan="0"/>
          <note key="33" vol="100" len="24" pos="24" pan="0"/>
          <note key="33" vol="100" len="12" pos="48" pan="0"/>
          <note key="33" vol="100" len="12" pos="72" pan="0"/>
          <note key="33" vol="100" len="12" pos="96" pan="0"/>
          <note key="33" vol="100" len="24" pos="120" pan="0"/>
          <note key="33" vol="100" len="24" pos="144" pan="0"/>
          <note key="33" vol="100" len="12" pos="168" pan="0"/>
        </midiclip>
        <midiclip name="" type="1" steps="16" muted="0" pos="2880">
          <note key="33" vol="100" len="12" pos="0" pan="0"/>
          <note key="33" vol="100" len="24" pos="24" pan="0"/>
          <note key="33" vol="100" len="12" pos="48" pan="0"/>
          <note key="33" vol="100" len="12" pos="72" pan="0"/>
          <note key="33" vol="100" len="12" pos="96" pan="0"/>
          <note key="33" vol="100" len="24" pos="120" pan="0"/>
          <note key="33" vol="100" len="24" pos="144" pan="0"/>
          <note key="31" vol="100" len="12" pos="168" pan="0"/>
        </midiclip>
        <midiclip name="" type="1" steps="16" muted="0" pos="3072">
          <note key="28" vol="100" len="12" pos="0" pan="0"/>
          <note key="28" vol="100" len="24" pos="24" pan="0"/>
          <note key="28" vol="100" len="12" pos="48" pan="0"/>
          <note key="28" vol="100" len="12" pos="72" pan="0"/>
          <note key="28" vol="100" len="12" pos="96" pan="0"/>
          <note key="28" vol="100" len="24" pos="120" pan="0"/>
          <note key="28" vol="100" len="24" pos="144" pan="0"/>
          <note key="28" vol="100" len="12" pos="168" pan="0"/>
        </midiclip>
        <midiclip name="" type="1" steps="16" muted="0" pos="3264">
          <note key="28" vol="100" len="12" pos="0" pan="0"/>
          <note key="28" vol="100" len="24" pos="24" pan="0"/>
          <note key="28" vol="100" len="12" pos="48" pan="0"/>
          <note key="28" vol="100" len="12" pos="72" pan="0"/>
          <note key="28" vol="100" len="12" pos="96" pan="0"/>
          <note key="28" vol="100" len="24" pos="120" pan="0"/>
          <note key="31" vol="100" len="24" pos="144" pan="0"/>
          <note key="35" vol="100" len="12" pos="168" pan="0"/>
        </midiclip>
        <midiclip name="" type="1" steps="16" muted="0" pos="3456">
          <note key="33" vol="100" len="12" pos="0" pan="0"/>
          <note key="33" vol="100" len="24" pos="24" pan="0"/>
          <note key="33" vol="100" len="12" pos="48" pan="0"/>
          <note key="33" vol="100" len="12" pos="72" pan="0"/>
          <note key="33" vol="100" len="12" pos="96" pan="0"/>
          <note key="33" vol="100" len="24" pos="120" pan="0"/>
          <note key="33" vol="100" len="24" pos="144" pan="0"/>
          <note key="33" vol="100" len="12" pos="168" pan="0"/>
        </midiclip>
        <midiclip name="" type="1" steps="16" muted="0" pos="3648">
          <note key="33" vol="100" len="12" pos="0" pan="0"/>
          <note key="33" vol="100" len="24" pos="24" pan="0"/>
          <note key="33" vol="100" len="12" pos="48" pan="0"/>
          <note key="33" vol="100" len="12" pos="72" pan="0"/>
          <note key="33" vol="100" len="12" pos="96" pan="0"/>
          <note key="33" vol="100" len="24" pos="120" pan="0"/>
          <note key="38" vol="100" len="24" pos="144" pan="0"/>
          <note key="37" vol="100" len="12" pos="168" pan="0"/>
        </midiclip>
        <midiclip name="" type="1" steps="16" muted="0" pos="3840">
          <note key="35" vol="100" len="12" pos="0" pan="0"/>
          <note key="35" vol="100" len="24" pos="24" pan="0"/>
          <note key="35" vol="100" len="12" pos="48" pan="0"/>
          <note key="35" vol="100" len="12" pos="72" pan="0"/>
          <note key="35" vol="100" len="12" pos="96" pan="0"/>
          <note key="35" vol="100" len="24" pos="120" pan="0"/>
          <note key="35" vol="100" len="24" pos="144" pan="0"/>
          <note key="35" vol="100" len="12" pos="168" pan="0"/>
        </midiclip>
        <midiclip name="" type="1" steps="16" muted="0" pos="4032">
          <note key="37" vol="100" len="12" pos="0" pan="0"/>
          <note key="37" vol="100" len="24" pos="24" pan="0"/>
          <note key="37" vol="100" len="12" pos="48" pan="0"/>
          <note key="37" vol="100" len="12" pos="72" pan="0"/>
          <note key="37" vol="100" len="12" pos="96" pan="0"/>
          <note key="37" vol="100" len="24" pos="120" pan="0"/>
          <note key="37" vol="100" len="24" pos="144" pan="0"/>
          <note key="37" vol="100" len="12" pos="168" pan="0"/>
        </midiclip>
        <midiclip name="" type="1" steps="16" muted="0" pos="4224">
          <note key="33" vol="100" len="12" pos="0" pan="0"/>
          <note key="33" vol="100" len="24" pos="24" pan="0"/>
          <note key="33" vol="100" len="12" pos="48" pan="0"/>
          <note key="33" vol="100" len="12" pos="72" pan="0"/>
          <note key="33" vol="100" len="12" pos="96" pan="0"/>
          <note key="33" vol="100" len="24" pos="120" pan="0"/>
          <note key="33" vol="100" len="24" pos="144" pan="0"/>
          <note key="33" vol="100" len="12" pos="168" pan="0"/>
        </midiclip>
        <midiclip name="" type="1" steps="16" muted="0" pos="4416">
          <note key="35" vol="100" len="12" pos="0" pan="0"/>
          <note key="35" vol="100" len="24" pos="24" pan="0"/>
          <note key="35" vol="100" len="12" pos="48" pan="0"/>
          <note key="35" vol="100" len="12" pos="72" pan="0"/>
          <note key="35" vol="100" len="12" pos="96" pan="0"/>
          <note key="35" vol="100" len="24" pos="120" pan="0"/>
          <note key="35" vol="100" len="24" pos="144" pan="0"/>
          <note key="35" vol="100" len="12" pos="168" pan="0"/>
        </midiclip>
        <midiclip name="" type="1" steps="16" muted="0" pos="4608">
          <note key="38" vol="100" len="12" pos="0" pan="0"/>
          <note key="38" vol="100" len="24" pos="24" pan="0"/>
          <note key="38" vol="100" len="12" pos="48" pan="0"/>
          <note key="38" vol="100" len="12" pos="72" pan="0"/>
          <note key="38" vol="100" len="12" pos="96" pan="0"/>
          <note key="38" vol="100" len="24" pos="120" pan="0"/>
          <note key="38" vol="100" len="24" pos="144" pan="0"/>
          <note key="38" vol="100" len="12" pos="168" pan="0"/>
        </midiclip>
        <midiclip name="" type="1" steps="16" muted="0" pos="4800">
          <note key="32" vol="100" len="12" pos="0" pan="0"/>
          <note key="32" vol="100" len="24" pos="24" pan="0"/>
          <note key="32" vol="100" len="12" pos="48" pan="0"/>
          <note key="32" vol="100" len="12" pos="72" pan="0"/>
          <note key="32" vol="100" len="12" pos="96" pan="0"/>
          <note key="32" vol="100" len="24" pos="120" pan="0"/>
          <note key="32" vol="100" len="24" pos="144" pan="0"/>
          <note key="32" vol="100" len="12" pos="168" pan="0"/>
        </midiclip>
        <midiclip name="" type="1" steps="16" muted="0" pos="4992">
          <note key="35" vol="100" len="12" pos="0" pan="0"/>
          <note key="35" vol="100" len="24" pos="24" pan="0"/>
          <note key="35" vol="100" len="12" pos="48" pan="0"/>
          <note key="35" vol="100" len="12" pos="72" pan="0"/>
          <note key="35" vol="100" len="12" pos="96" pan="0"/>
          <note key="35" vol="100" len="24" pos="120" pan="0"/>
          <note key="35" vol="100" len="24" pos="144" pan="0"/>
          <note key="35" vol="100" len="12" pos="168" pan="0"/>
        </midiclip>
        <midiclip name="" type="1" steps="16" muted="0" pos="5184">
          <note key="30" vol="100" len="12" pos="0" pan="0"/>
          <note key="30" vol="100" len="24" pos="24" pan="0"/>
          <note key="30" vol="100" len="12" pos="48" pan="0"/>
          <note key="30" vol="100" len="12" pos="72" pan="0"/>
          <note key="30" vol="100" len="12" pos="96" pan="0"/>
          <note key="30" vol="100" len="24" pos="120" pan="0"/>
          <note key="30" vol="100" len="24" pos="144" pan="0"/>
          <note key="30" vol="100" len="12" pos="168" pan="0"/>
        </midiclip>
      </track>
      <track name="Timbres of Heaven (XGM) 4" type="0" mutedBeforeSolo="0" muted="0" solo="0">
        <instrumenttrack mixch="2" firstkey="0" lastkey="127" range_import="1" vol="100" keymap="0" pitch="-100" pitchrange="1" basenote="69" scale="0" enablecc="0" usemasterpitch="0" enabled="0" pan="0">
          <midicontrollers cc21="0" cc120="0" cc69="0" cc0="0" cc19="0" cc70="0" cc97="0" cc63="0" cc25="0" cc114="0" cc54="0" cc2="0" cc31="0" cc123="0" cc45="0" cc50="0" cc14="0" cc98="0" cc61="0" cc94="0" cc59="0" cc71="0" cc41="0" cc56="0" cc68="0" cc108="0" cc33="0" cc46="0" cc35="0" cc99="0" cc109="0" cc106="0" cc66="0" cc87="0" cc52="0" cc81="0" cc22="0" cc95="0" cc47="0" cc43="0" cc110="0" cc86="0" cc58="0" cc36="0" cc96="0" cc39="0" cc9="0" cc67="0" cc126="0" cc3="0" cc119="0" cc48="0" cc82="0" cc32="0" cc125="0" cc17="0" cc91="0" cc1="0" cc83="0" cc92="0" cc107="0" cc28="0" cc23="0" cc79="0" cc49="0" cc80="0" cc10="0" cc51="0" cc121="0" cc117="0" cc88="0" cc30="0" cc24="0" cc13="0" cc12="0" cc65="0" cc111="0" cc40="0" cc26="0" cc73="0" cc77="0" cc105="0" cc62="0" cc18="0" cc55="0" cc75="0" cc104="0" cc76="0" cc127="0" cc20="0" cc89="0" cc113="0" cc124="0" cc85="0" cc60="0" cc100="0" cc115="0" cc74="0" cc29="0" cc38="0" cc78="0" cc16="0" cc93="0" cc84="0" cc37="0" cc7="0" cc11="0" cc44="0" cc64="0" cc101="0" cc112="0" cc6="0" cc53="0" cc72="0" cc15="0" cc34="0" cc4="0" cc102="0" cc122="0" cc8="0" cc27="0" cc42="0" cc57="0" cc90="0" cc116="0" cc5="0" cc103="0" cc118="0"/>
          <instrument name="sf2player">
            <sf2player chorusSpeed="0.3" bank="128" reverbDamping="0" chorusDepth="8" reverbRoomSize="0.2" chorusLevel="2" src="usersoundfont:Timbres of Heaven (XGM) 4.00(G).sf2" gain="0.44" chorusOn="0" reverbLevel="0.9" reverbOn="0" chorusNum="3" patch="0" reverbWidth="0.5">
              <key/>
            </sf2player>
          </instrument>
          <eldata fres="0.5" fwet="0" fcut="14000" ftype="0">
            <elvol latt="0" x100="0" dec="0.5" hold="0.5" lspd_syncmode="0" lspd="0.1" att="0" ctlenvamt="0" lamt="0" lspd_denominator="4" lpdel="0" lshp="0" lspd_numerator="4" amt="0" rel="0.1" pdel="0" userwavefile="" sustain="0.5"/>
            <elcut latt="0" x100="0" dec="0.5" hold="0.5" lspd_syncmode="0" lspd="0.1" att="0" ctlenvamt="0" lamt="0" lspd_denominator="4" lpdel="0" lshp="0" lspd_numerator="4" amt="0" rel="0.1" pdel="0" userwavefile="" sustain="0.5"/>
            <elres latt="0" x100="0" dec="0.5" hold="0.5" lspd_syncmode="0" lspd="0.1" att="0" ctlenvamt="0" lamt="0" lspd_denominator="4" lpdel="0" lshp="0" lspd_numerator="4" amt="0" rel="0.1" pdel="0" userwavefile="" sustain="0.5"/>
          </eldata>
          <chordcreator chord-enabled="0" chordrange="1" chord="0"/>
          <arpeggiator arprepeats="1" arp="0" arptime_numerator="4" arpmode="0" arpskip="0" arptime_denominator="4" arpdir="0" arprange="1" arptime="200" arpgate="100" arp-enabled="0" arptime_syncmode="0" arpmiss="0" arpcycle="0"/>
          <midiport fixedinputvelocity="-1" inputchannel="0" writable="0" outputcontroller="0" inports="" fixedoutputvelocity="-1" outputchannel="1" outputprogram="1" readable="1" inputcontroller="0" fixedoutputnote="-1" basevelocity="63"/>
          <fxchain numofeffects="0" enabled="0"/>
        </instrumenttrack>
        <midiclip name="" type="1" steps="16" muted="0" pos="0">
          <note key="36" vol="100" len="12" pos="0" pan="0"/>
          <note key="42" vol="100" len="12" pos="24" pan="0"/>
          <note key="44" vol="100" len="12" pos="48" pan="0"/>
          <note key="42" vol="100" len="12" pos="72" pan="0"/>
          <note key="36" vol="100" len="12" pos="72" pan="0"/>
          <note key="38" vol="100" len="12" pos="96" pan="0"/>
          <note key="42" vol="100" len="12" pos="120" pan="0"/>
          <note key="44" vol="100" len="12" pos="144" pan="0"/>
          <note key="36" vol="100" len="12" pos="144" pan="0"/>
          <note key="42" vol="100" len="12" pos="168" pan="0"/>
          <note key="36" vol="100" len="12" pos="192" pan="0"/>
          <note key="42" vol="100" len="12" pos="216" pan="0"/>
          <note key="36" vol="100" len="12" pos="216" pan="0"/>
          <note key="44" vol="100" len="12" pos="240" pan="0"/>
          <note key="42" vol="100" len="12" pos="264" pan="0"/>
          <note key="36" vol="100" len="12" pos="264" pan="0"/>
          <note key="38" vol="100" len="12" pos="288" pan="0"/>
          <note key="42" vol="100" len="12" pos="312" pan="0"/>
          <note key="44" vol="100" len="12" pos="336" pan="0"/>
          <note key="36" vol="100" len="12" pos="336" pan="0"/>
          <note key="42" vol="100" len="12" pos="360" pan="0"/>
          <note key="36" vol="100" len="12" pos="384" pan="0"/>
          <note key="42" vol="100" len="12" pos="408" pan="0"/>
          <note key="44" vol="100" len="12" pos="432" pan="0"/>
          <note key="42" vol="100" len="12" pos="456" pan="0"/>
          <note key="36" vol="100" len="12" pos="456" pan="0"/>
          <note key="38" vol="100" len="12" pos="480" pan="0"/>
          <note key="42" vol="100" len="12" pos="504" pan="0"/>
          <note key="44" vol="100" len="12" pos="528" pan="0"/>
          <note key="36" vol="100" len="12" pos="528" pan="0"/>
          <note key="42" vol="100" len="12" pos="552" pan="0"/>
          <note key="36" vol="100" len="12" pos="576" pan="0"/>
          <note key="42" vol="100" len="12" pos="600" pan="0"/>
          <note key="36" vol="100" len="12" pos="600" pan="0"/>
          <note key="44" vol="100" len="12" pos="624" pan="0"/>
          <note key="42" vol="100" len="12" pos="648" pan="0"/>
          <note key="36" vol="100" len="12" pos="648" pan="0"/>
          <note key="38" vol="100" len="12" pos="672" pan="0"/>
          <note key="42" vol="100" len="12" pos="696" pan="0"/>
          <note key="46" vol="100" len="12" pos="720" pan="0"/>
          <note key="44" vol="100" len="12" pos="720" pan="0"/>
          <note key="42" vol="100" len="12" pos="744" pan="0"/>
        </midiclip>
        <midiclip name="" type="1" steps="16" muted="0" pos="768">
          <note key="36" vol="100" len="12" pos="0" pan="0"/>
          <note key="42" vol="100" len="12" pos="24" pan="0"/>
          <note key="44" vol="100" len="12" pos="48" pan="0"/>
          <note key="42" vol="100" len="12" pos="72" pan="0"/>
          <note key="36" vol="100" len="12" pos="72" pan="0"/>
          <note key="38" vol="100" len="12" pos="96" pan="0"/>
          <note key="42" vol="100" len="12" pos="120" pan="0"/>
          <note key="44" vol="100" len="12" pos="144" pan="0"/>
          <note key="36" vol="100" len="12" pos="144" pan="0"/>
          <note key="42" vol="100" len="12" pos="168" pan="0"/>
          <note key="36" vol="100" len="12" pos="192" pan="0"/>
          <note key="42" vol="100" len="12" pos="216" pan="0"/>
          <note key="36" vol="100" len="12" pos="216" pan="0"/>
          <note key="44" vol="100" len="12" pos="240" pan="0"/>
          <note key="42" vol="100" len="12" pos="264" pan="0"/>
          <note key="36" vol="100" len="12" pos="264" pan="0"/>
          <note key="38" vol="100" len="12" pos="288" pan="0"/>
          <note key="42" vol="100" len="12" pos="312" pan="0"/>
          <note key="44" vol="100" len="12" pos="336" pan="0"/>
          <note key="36" vol="100" len="12" pos="336" pan="0"/>
          <note key="42" vol="100" len="12" pos="360" pan="0"/>
          <note key="36" vol="100" len="12" pos="384" pan="0"/>
          <note key="42" vol="100" len="12" pos="408" pan="0"/>
          <note key="44" vol="100" len="12" pos="432" pan="0"/>
          <note key="42" vol="100" len="12" pos="456" pan="0"/>
          <note key="36" vol="100" len="12" pos="456" pan="0"/>
          <note key="38" vol="100" len="12" pos="480" pan="0"/>
          <note key="42" vol="100" len="12" pos="504" pan="0"/>
          <note key="44" vol="100" len="12" pos="528" pan="0"/>
          <note key="36" vol="100" len="12" pos="528" pan="0"/>
          <note key="42" vol="100" len="12" pos="552" pan="0"/>
          <note key="36" vol="100" len="12" pos="576" pan="0"/>
          <note key="42" vol="100" len="12" pos="600" pan="0"/>
          <note key="36" vol="100" len="12" pos="600" pan="0"/>
          <note key="44" vol="100" len="12" pos="624" pan="0"/>
          <note key="42" vol="100" len="12" pos="648" pan="0"/>
          <note key="36" vol="100" len="12" pos="648" pan="0"/>
          <note key="38" vol="100" len="12" pos="672" pan="0"/>
          <note key="42" vol="100" len="12" pos="696" pan="0"/>
          <note key="46" vol="100" len="12" pos="720" pan="0"/>
          <note key="44" vol="100" len="12" pos="720" pan="0"/>
          <note key="42" vol="100" len="12" pos="744" pan="0"/>
        </midiclip>
        <midiclip name="" type="1" steps="16" muted="0" pos="1536">
          <note key="36" vol="100" len="12" pos="0" pan="0"/>
          <note key="42" vol="100" len="12" pos="24" pan="0"/>
          <note key="44" vol="100" len="12" pos="48" pan="0"/>
          <note key="42" vol="100" len="12" pos="72" pan="0"/>
          <note key="36" vol="100" len="12" pos="72" pan="0"/>
          <note key="38" vol="100" len="12" pos="96" pan="0"/>
          <note key="42" vol="100" len="12" pos="120" pan="0"/>
          <note key="44" vol="100" len="12" pos="144" pan="0"/>
          <note key="36" vol="100" len="12" pos="144" pan="0"/>
          <note key="42" vol="100" len="12" pos="168" pan="0"/>
          <note key="36" vol="100" len="12" pos="192" pan="0"/>
          <note key="42" vol="100" len="12" pos="216" pan="0"/>
          <note key="36" vol="100" len="12" pos="216" pan="0"/>
          <note key="44" vol="100" len="12" pos="240" pan="0"/>
          <note key="42" vol="100" len="12" pos="264" pan="0"/>
          <note key="36" vol="100" len="12" pos="264" pan="0"/>
          <note key="38" vol="100" len="12" pos="288" pan="0"/>
          <note key="42" vol="100" len="12" pos="312" pan="0"/>
          <note key="44" vol="100" len="12" pos="336" pan="0"/>
          <note key="36" vol="100" len="12" pos="336" pan="0"/>
          <note key="42" vol="100" len="12" pos="360" pan="0"/>
          <note key="36" vol="100" len="12" pos="384" pan="0"/>
          <note key="42" vol="100" len="12" pos="408" pan="0"/>
          <note key="44" vol="100" len="12" pos="432" pan="0"/>
          <note key="42" vol="100" len="12" pos="456" pan="0"/>
          <note key="36" vol="100" len="12" pos="456" pan="0"/>
          <note key="38" vol="100" len="12" pos="480" pan="0"/>
          <note key="42" vol="100" len="12" pos="504" pan="0"/>
          <note key="44" vol="100" len="12" pos="528" pan="0"/>
          <note key="36" vol="100" len="12" pos="528" pan="0"/>
          <note key="42" vol="100" len="12" pos="552" pan="0"/>
          <note key="36" vol="100" len="12" pos="576" pan="0"/>
          <note key="42" vol="100" len="12" pos="600" pan="0"/>
          <note key="36" vol="100" len="12" pos="600" pan="0"/>
          <note key="44" vol="100" len="12" pos="624" pan="0"/>
          <note key="42" vol="100" len="12" pos="648" pan="0"/>
          <note key="36" vol="100" len="12" pos="648" pan="0"/>
          <note key="38" vol="100" len="12" pos="672" pan="0"/>
          <note key="42" vol="100" len="12" pos="696" pan="0"/>
          <note key="46" vol="100" len="12" pos="720" pan="0"/>
          <note key="44" vol="100" len="12" pos="720" pan="0"/>
          <note key="42" vol="100" len="12" pos="744" pan="0"/>
        </midiclip>
        <midiclip name="" type="1" steps="16" muted="0" pos="2304">
          <note key="36" vol="100" len="12" pos="0" pan="0"/>
          <note key="42" vol="100" len="12" pos="24" pan="0"/>
          <note key="44" vol="100" len="12" pos="48" pan="0"/>
          <note key="42" vol="100" len="12" pos="72" pan="0"/>
          <note key="36" vol="100" len="12" pos="72" pan="0"/>
          <note key="38" vol="100" len="12" pos="96" pan="0"/>
          <note key="42" vol="100" len="12" pos="120" pan="0"/>
          <note key="44" vol="100" len="12" pos="144" pan="0"/>
          <note key="36" vol="100" len="12" pos="144" pan="0"/>
          <note key="42" vol="100" len="12" pos="168" pan="0"/>
          <note key="36" vol="100" len="12" pos="192" pan="0"/>
          <note key="42" vol="100" len="12" pos="216" pan="0"/>
          <note key="36" vol="100" len="12" pos="216" pan="0"/>
          <note key="44" vol="100" len="12" pos="240" pan="0"/>
          <note key="42" vol="100" len="12" pos="264" pan="0"/>
          <note key="36" vol="100" len="12" pos="264" pan="0"/>
          <note key="38" vol="100" len="12" pos="288" pan="0"/>
          <note key="42" vol="100" len="12" pos="312" pan="0"/>
          <note key="44" vol="100" len="12" pos="336" pan="0"/>
          <note key="36" vol="100" len="12" pos="336" pan="0"/>
          <note key="42" vol="100" len="12" pos="360" pan="0"/>
          <note key="36" vol="100" len="12" pos="384" pan="0"/>
          <note key="42" vol="100" len="12" pos="408" pan="0"/>
          <note key="44" vol="100" len="12" pos="432" pan="0"/>
          <note key="42" vol="100" len="12" pos="456" pan="0"/>
          <note key="36" vol="100" len="12" pos="456" pan="0"/>
          <note key="38" vol="100" len="12" pos="480" pan="0"/>
          <note key="42" vol="100" len="12" pos="504" pan="0"/>
          <note key="44" vol="100" len="12" pos="528" pan="0"/>
          <note key="36" vol="100" len="12" pos="528" pan="0"/>
          <note key="42" vol="100" len="12" pos="552" pan="0"/>
          <note key="36" vol="100" len="12" pos="576" pan="0"/>
          <note key="42" vol="100" len="12" pos="600" pan="0"/>
          <note key="36" vol="100" len="12" pos="600" pan="0"/>
          <note key="44" vol="100" len="12" pos="624" pan="0"/>
          <note key="42" vol="100" len="12" pos="648" pan="0"/>
          <note key="36" vol="100" len="12" pos="648" pan="0"/>
          <note key="38" vol="100" len="12" pos="672" pan="0"/>
          <note key="42" vol="100" len="12" pos="696" pan="0"/>
          <note key="46" vol="100" len="12" pos="720" pan="0"/>
          <note key="44" vol="100" len="12" pos="720" pan="0"/>
          <note key="42" vol="100" len="12" pos="744" pan="0"/>
        </midiclip>
        <midiclip name="" type="1" steps="16" muted="0" pos="3072">
          <note key="36" vol="100" len="12" pos="0" pan="0"/>
          <note key="42" vol="100" len="12" pos="24" pan="0"/>
          <note key="44" vol="100" len="12" pos="48" pan="0"/>
          <note key="42" vol="100" len="12" pos="72" pan="0"/>
          <note key="36" vol="100" len="12" pos="72" pan="0"/>
          <note key="38" vol="100" len="12" pos="96" pan="0"/>
          <note key="42" vol="100" len="12" pos="120" pan="0"/>
          <note key="44" vol="100" len="12" pos="144" pan="0"/>
          <note key="36" vol="100" len="12" pos="144" pan="0"/>
          <note key="42" vol="100" len="12" pos="168" pan="0"/>
          <note key="36" vol="100" len="12" pos="192" pan="0"/>
          <note key="42" vol="100" len="12" pos="216" pan="0"/>
          <note key="36" vol="100" len="12" pos="216" pan="0"/>
          <note key="44" vol="100" len="12" pos="240" pan="0"/>
          <note key="42" vol="100" len="12" pos="264" pan="0"/>
          <note key="36" vol="100" len="12" pos="264" pan="0"/>
          <note key="38" vol="100" len="12" pos="288" pan="0"/>
          <note key="42" vol="100" len="12" pos="312" pan="0"/>
          <note key="44" vol="100" len="12" pos="336" pan="0"/>
          <note key="36" vol="100" len="12" pos="336" pan="0"/>
          <note key="42" vol="100" len="12" pos="360" pan="0"/>
          <note key="36" vol="100" len="12" pos="384" pan="0"/>
          <note key="42" vol="100" len="12" pos="408" pan="0"/>
          <note key="44" vol="100" len="12" pos="432" pan="0"/>
          <note key="42" vol="100" len="12" pos="456" pan="0"/>
          <note key="36" vol="100" len="12" pos="456" pan="0"/>
          <note key="38" vol="100" len="12" pos="480" pan="0"/>
          <note key="42" vol="100" len="12" pos="504" pan="0"/>
          <note key="44" vol="100" len="12" pos="528" pan="0"/>
          <note key="36" vol="100" len="12" pos="528" pan="0"/>
          <note key="42" vol="100" len="12" pos="552" pan="0"/>
          <note key="36" vol="100" len="12" pos="576" pan="0"/>
          <note key="42" vol="100" len="12" pos="600" pan="0"/>
          <note key="36" vol="100" len="12" pos="600" pan="0"/>
          <note key="44" vol="100" len="12" pos="624" pan="0"/>
          <note key="42" vol="100" len="12" pos="648" pan="0"/>
          <note key="36" vol="100" len="12" pos="648" pan="0"/>
          <note key="38" vol="100" len="12" pos="672" pan="0"/>
          <note key="42" vol="100" len="12" pos="696" pan="0"/>
          <note key="46" vol="100" len="12" pos="720" pan="0"/>
          <note key="44" vol="100" len="12" pos="720" pan="0"/>
          <note key="42" vol="100" len="12" pos="744" pan="0"/>
        </midiclip>
        <midiclip name="" type="1" steps="16" muted="0" pos="3840">
          <note key="36" vol="100" len="12" pos="0" pan="0"/>
          <note key="42" vol="100" len="12" pos="24" pan="0"/>
          <note key="44" vol="100" len="12" pos="48" pan="0"/>
          <note key="42" vol="100" len="12" pos="72" pan="0"/>
          <note key="36" vol="100" len="12" pos="72" pan="0"/>
          <note key="38" vol="100" len="12" pos="96" pan="0"/>
          <note key="42" vol="100" len="12" pos="120" pan="0"/>
          <note key="44" vol="100" len="12" pos="144" pan="0"/>
          <note key="36" vol="100" len="12" pos="144" pan="0"/>
          <note key="42" vol="100" len="12" pos="168" pan="0"/>
          <note key="36" vol="100" len="12" pos="192" pan="0"/>
          <note key="42" vol="100" len="12" pos="216" pan="0"/>
          <note key="36" vol="100" len="12" pos="216" pan="0"/>
          <note key="44" vol="100" len="12" pos="240" pan="0"/>
          <note key="42" vol="100" len="12" pos="264" pan="0"/>
          <note key="36" vol="100" len="12" pos="264" pan="0"/>
          <note key="38" vol="100" len="12" pos="288" pan="0"/>
          <note key="42" vol="100" len="12" pos="312" pan="0"/>
          <note key="44" vol="100" len="12" pos="336" pan="0"/>
          <note key="36" vol="100" len="12" pos="336" pan="0"/>
          <note key="42" vol="100" len="12" pos="360" pan="0"/>
          <note key="36" vol="100" len="12" pos="384" pan="0"/>
          <note key="42" vol="100" len="12" pos="408" pan="0"/>
          <note key="44" vol="100" len="12" pos="432" pan="0"/>
          <note key="42" vol="100" len="12" pos="456" pan="0"/>
          <note key="36" vol="100" len="12" pos="456" pan="0"/>
          <note key="38" vol="100" len="12" pos="480" pan="0"/>
          <note key="42" vol="100" len="12" pos="504" pan="0"/>
          <note key="44" vol="100" len="12" pos="528" pan="0"/>
          <note key="36" vol="100" len="12" pos="528" pan="0"/>
          <note key="42" vol="100" len="12" pos="552" pan="0"/>
          <note key="36" vol="100" len="12" pos="576" pan="0"/>
          <note key="42" vol="100" len="12" pos="600" pan="0"/>
          <note key="36" vol="100" len="12" pos="600" pan="0"/>
          <note key="44" vol="100" len="12" pos="624" pan="0"/>
          <note key="42" vol="100" len="12" pos="648" pan="0"/>
          <note key="36" vol="100" len="12" pos="648" pan="0"/>
          <note key="38" vol="100" len="12" pos="672" pan="0"/>
          <note key="42" vol="100" len="12" pos="696" pan="0"/>
          <note key="46" vol="100" len="12" pos="720" pan="0"/>
          <note key="44" vol="100" len="12" pos="720" pan="0"/>
          <note key="42" vol="100" len="12" pos="744" pan="0"/>
        </midiclip>
        <midiclip name="" type="1" steps="16" muted="0" pos="4608">
          <note key="36" vol="100" len="12" pos="0" pan="0"/>
          <note key="42" vol="100" len="12" pos="24" pan="0"/>
          <note key="44" vol="100" len="12" pos="48" pan="0"/>
          <note key="42" vol="100" len="12" pos="72" pan="0"/>
          <note key="36" vol="100" len="12" pos="72" pan="0"/>
          <note key="38" vol="100" len="12" pos="96" pan="0"/>
          <note key="42" vol="100" len="12" pos="120" pan="0"/>
          <note key="44" vol="100" len="12" pos="144" pan="0"/>
          <note key="36" vol="100" len="12" pos="144" pan="0"/>
          <note key="42" vol="100" len="12" pos="168" pan="0"/>
          <note key="36" vol="100" len="12" pos="192" pan="0"/>
          <note key="42" vol="100" len="12" pos="216" pan="0"/>
          <note key="36" vol="100" len="12" pos="216" pan="0"/>
          <note key="44" vol="100" len="12" pos="240" pan="0"/>
          <note key="42" vol="100" len="12" pos="264" pan="0"/>
          <note key="36" vol="100" len="12" pos="264" pan="0"/>
          <note key="38" vol="100" len="12" pos="288" pan="0"/>
          <note key="42" vol="100" len="12" pos="312" pan="0"/>
          <note key="44" vol="100" len="12" pos="336" pan="0"/>
          <note key="36" vol="100" len="12" pos="336" pan="0"/>
          <note key="42" vol="100" len="12" pos="360" pan="0"/>
          <note key="36" vol="100" len="12" pos="384" pan="0"/>
          <note key="42" vol="100" len="12" pos="408" pan="0"/>
          <note key="44" vol="100" len="12" pos="432" pan="0"/>
          <note key="42" vol="100" len="12" pos="456" pan="0"/>
          <note key="36" vol="100" len="12" pos="456" pan="0"/>
          <note key="38" vol="100" len="12" pos="480" pan="0"/>
          <note key="42" vol="100" len="12" pos="504" pan="0"/>
          <note key="44" vol="100" len="12" pos="528" pan="0"/>
          <note key="36" vol="100" len="12" pos="528" pan="0"/>
          <note key="42" vol="100" len="12" pos="552" pan="0"/>
          <note key="36" vol="100" len="12" pos="576" pan="0"/>
          <note key="42" vol="100" len="12" pos="600" pan="0"/>
          <note key="36" vol="100" len="12" pos="600" pan="0"/>
          <note key="44" vol="100" len="12" pos="624" pan="0"/>
          <note key="42" vol="100" len="12" pos="648" pan="0"/>
          <note key="36" vol="100" len="12" pos="648" pan="0"/>
          <note key="38" vol="100" len="12" pos="672" pan="0"/>
          <note key="42" vol="100" len="12" pos="696" pan="0"/>
          <note key="46" vol="100" len="12" pos="720" pan="0"/>
          <note key="44" vol="100" len="12" pos="720" pan="0"/>
          <note key="42" vol="100" len="12" pos="744" pan="0"/>
        </midiclip>
      </track>
    </trackcontainer>
    <track name="Automation track" type="6" mutedBeforeSolo="0" muted="0" solo="0">
      <automationtrack/>
      <automationclip name="Numerator" len="192" mute="0" pos="0" prog="0" tens="1"/>
      <automationclip name="Denominator" len="192" mute="0" pos="0" prog="0" tens="1"/>
      <automationclip name="Tempo" len="192" mute="0" pos="0" prog="0" tens="1"/>
      <automationclip name="Master volume" len="192" mute="0" pos="0" prog="0" tens="1"/>
      <automationclip name="Master pitch" len="192" mute="0" pos="0" prog="0" tens="1"/>
    </track>
    <mixer height="333" maximized="0" width="874" visible="1" minimized="0" x="2" y="586">
      <mixerchannel name="Master" muted="0" num="0" soloed="0" volume="1">
        <fxchain numofeffects="2" enabled="1">
          <effect gate="0" name="eq" autoquit_syncmode="0" autoquit_numerator="4" autoquit_denominator="4" on="1" autoquit="1" wet="1">
            <Eq LPactive="1" AnalyseOut="1" Lowshelfactive="0" LP="0" HighShelfres="1.4" Lowshelfgain="0" Highshelfactive="0" Outputgain="0" Peak1bw="0.3" Peak3gain="0" Peak2active="0" HP12="0" HPres="0.707" LP48="0" HP24="0" HP="2" Peak4gain="0" Peak4bw="0.3" HighShelfgain="0" Peak3bw="0.3" LPres="0.707" HPactive="1" Peak3active="0" AnalyseIn="1" Peak2gain="0" LowShelfres="1.4" LP24="0" Peak2bw="0.3" HP48="1" Peak1active="0" LP12="1" Peak4active="0">
              <Inputgain value="0" scale_type="log" id="2885"/>
              <Peak1gain value="0" scale_type="log" id="17275"/>
              <HPfreq value="31" scale_type="log" id="32652"/>
              <LowShelffreq value="80" scale_type="log" id="19546"/>
              <Peak1freq value="120" scale_type="log" id="3212"/>
              <Peak2freq value="250" scale_type="log" id="29788"/>
              <Peak3freq value="2000" scale_type="log" id="12078"/>
              <Peak4freq value="4000" scale_type="log" id="9627"/>
              <Highshelffreq value="12000" scale_type="log" id="5265"/>
              <LPfreq value="18000" scale_type="log" id="15396"/>
            </Eq>
            <key/>
          </effect>
          <effect gate="0" name="eq" autoquit_syncmode="0" autoquit_numerator="4" autoquit_denominator="4" on="1" autoquit="1" wet="1">
            <Eq LPactive="1" AnalyseOut="1" Lowshelfactive="0" LP="0" HighShelfres="1.4" Lowshelfgain="0" Highshelfactive="0" Outputgain="0" Peak1bw="0.3" Peak3gain="0" Peak2active="0" HP12="0" HPres="0.707" LP48="0" HP24="0" HP="2" Peak4gain="0" Peak4bw="0.3" HighShelfgain="0" Peak3bw="0.3" LPres="0.707" HPactive="1" Peak3active="0" AnalyseIn="1" Peak2gain="0" LowShelfres="1.4" LP24="0" Peak2bw="0.3" HP48="1" Peak1active="0" LP12="1" Peak4active="0">
              <Inputgain value="0" scale_type="log" id="18633"/>
              <Peak1gain value="0" scale_type="log" id="10603"/>
              <HPfreq value="31" scale_type="log" id="30086"/>
              <LowShelffreq value="80" scale_type="log" id="24058"/>
              <Peak1freq value="120" scale_type="log" id="4733"/>
              <Peak2freq value="250" scale_type="log" id="29176"/>
              <Peak3freq value="2000" scale_type="log" id="18519"/>
              <Peak4freq value="4000" scale_type="log" id="25335"/>
              <Highshelffreq value="12000" scale_type="log" id="1362"/>
              <LPfreq value="18000" scale_type="log" id="9533"/>
            </Eq>
            <key/>
          </effect>
        </fxchain>
      </mixerchannel>
      <mixerchannel name="Fade" muted="0" num="1" soloed="0" volume="1">
        <fxchain numofeffects="0" enabled="0"/>
        <send channel="0" amount="1"/>
      </mixerchannel>
      <mixerchannel name="Drums" muted="0" num="2" soloed="0" volume="1">
        <fxchain numofeffects="3" enabled="1">
          <effect gate="0" name="stereomatrix" autoquit_syncmode="0" autoquit_numerator="4" autoquit_denominator="4" on="1" autoquit="1" wet="1">
            <stereomatrixcontrols r-r="0.6" l-l="0.6" l-r="0.4" r-l="0.4"/>
            <key/>
          </effect>
          <effect gate="0" name="vsteffect" autoquit_syncmode="0" autoquit_numerator="4" autoquit_denominator="4" on="1" autoquit="1" wet="1">
            <vsteffectcontrols param13="13:Level:0.5" param12="12:Mix:0.13" param7="7:Feedback:0" param2="2:Type:0.5" guivisible="0" param3="3:Sync:1" param6="6:Time:0.5" param8="8:Ping-Pong:1" param5="5:T.S.D.:0.28" param4="4:T.S.N.:0" param0="0:Pan:0.5" plugin="Effects\Classic Delay\Classic Delay.dll" param9="9:Quality:1" program="0" param11="11:Hi Cut:0.52" param1="1:Mono:0" param10="10:Low Cut:0.14" numparams="14"/>
            <key>
              <attribute name="file" value="Effects\Classic Delay\Classic Delay.dll"/>
            </key>
          </effect>
          <effect gate="0" name="vsteffect" autoquit_syncmode="0" autoquit_numerator="4" autoquit_denominator="4" on="1" autoquit="1" wet="1">
            <vsteffectcontrols param6="6:Mix:0.22" param7="7:Level:0.5" param4="4:Lo Cut:0.65" param3="3:Hi Damp:0.63" program="14" numparams="8" param0="0:Size:0.86" param5="5:Early Ref.:0" plugin="Effects\Classic Reverb\Classic Reverb.dll" param1="1:Damping:0.26" param2="2:Predelay:0.5" guivisible="0"/>
            <key>
              <attribute name="file" value="Effects\Classic Reverb\Classic Reverb.dll"/>
            </key>
          </effect>
        </fxchain>
        <send channel="1" amount="1"/>
      </mixerchannel>
      <mixerchannel name="Bass" muted="0" num="3" soloed="0" volume="1">
        <fxchain numofeffects="1" enabled="1">
          <effect gate="0" name="vsteffect" autoquit_syncmode="0" autoquit_numerator="4" autoquit_denominator="4" on="1" autoquit="1" wet="1">
            <vsteffectcontrols param13="13:Level:0.5" param12="12:Mix:0.24" param7="7:Feedback:0.36" param2="2:Type:0.5" guivisible="0" param3="3:Sync:1" param6="6:Time:0.5" param8="8:Ping-Pong:1" param5="5:T.S.D.:0.15" param4="4:T.S.N.:0" param0="0:Pan:0.5" plugin="Effects\Classic Delay\Classic Delay.dll" param9="9:Quality:0.49" program="0" param11="11:Hi Cut:0.9" param1="1:Mono:0" param10="10:Low Cut:0" numparams="14"/>
            <key>
              <attribute name="file" value="Effects\Classic Delay\Classic Delay.dll"/>
            </key>
          </effect>
        </fxchain>
        <send channel="1" amount="1"/>
      </mixerchannel>
      <mixerchannel name="Cello" muted="0" num="4" soloed="0" volume="1">
        <fxchain numofeffects="2" enabled="1">
          <effect gate="0" name="vsteffect" autoquit_syncmode="0" autoquit_numerator="4" autoquit_denominator="4" on="1" autoquit="1" wet="1">
            <vsteffectcontrols param6="6:Mix:0.3" param7="7:Level:0.5" param4="4:Lo Cut:0.3" param3="3:Hi Damp:0.05" program="13" numparams="8" param0="0:Size:0.4" param5="5:Early Ref.:0" plugin="Effects\Classic Reverb\Classic Reverb.dll" param1="1:Damping:0.5" param2="2:Predelay:0.5" guivisible="0"/>
            <key>
              <attribute name="file" value="Effects\Classic Reverb\Classic Reverb.dll"/>
            </key>
          </effect>
          <effect gate="0" name="vsteffect" autoquit_syncmode="0" autoquit_numerator="4" autoquit_denominator="4" on="1" autoquit="1" wet="1">
            <vsteffectcontrols param13="13:Level:0.5" param12="12:Mix:0.2" param7="7:Feedback:0.7" param2="2:Type:0.5" guivisible="0" param3="3:Sync:1" param6="6:Time:0.5" param8="8:Ping-Pong:1" param5="5:T.S.D.:0.56" param4="4:T.S.N.:0" param0="0:Pan:1" plugin="Effects\Classic Delay\Classic Delay.dll" param9="9:Quality:0.7" program="0" param11="11:Hi Cut:0.9" param1="1:Mono:1" param10="10:Low Cut:0" numparams="14"/>
            <key>
              <attribute name="file" value="Effects\Classic Delay\Classic Delay.dll"/>
            </key>
          </effect>
        </fxchain>
        <send channel="1" amount="1"/>
      </mixerchannel>
      <mixerchannel name="HornEffect" muted="0" num="5" soloed="0" volume="1">
        <fxchain numofeffects="1" enabled="1">
          <effect gate="0" name="vsteffect" autoquit_syncmode="0" autoquit_numerator="4" autoquit_denominator="4" on="1" autoquit="1" wet="1">
            <vsteffectcontrols param6="6:Mix:0.36" param7="7:Level:0.5" param4="4:Lo Cut:0.6" param3="3:Hi Damp:0.56" program="7" numparams="8" param0="0:Size:1" param5="5:Early Ref.:0" plugin="Effects\Classic Reverb\Classic Reverb.dll" param1="1:Damping:0.1" param2="2:Predelay:0.8" guivisible="0"/>
            <key>
              <attribute name="file" value="Effects\Classic Reverb\Classic Reverb.dll"/>
            </key>
          </effect>
        </fxchain>
        <send channel="1" amount="1"/>
      </mixerchannel>
      <mixerchannel name="Lead" muted="0" num="6" soloed="0" volume="1">
        <fxchain numofeffects="1" enabled="1">
          <effect gate="0" name="vsteffect" autoquit_syncmode="0" autoquit_numerator="4" autoquit_denominator="4" on="1" autoquit="1" wet="1">
            <vsteffectcontrols param13="13:Level:0.5" param12="12:Mix:0.15" param7="7:Feedback:0.7" param2="2:Type:0.5" guivisible="0" param3="3:Sync:1" param6="6:Time:0.5" param8="8:Ping-Pong:1" param5="5:T.S.D.:0.4" param4="4:T.S.N.:0.13" param0="0:Pan:0.5" plugin="Effects\Classic Delay\Classic Delay.dll" param9="9:Quality:0.7" program="0" param11="11:Hi Cut:0.9" param1="1:Mono:0" param10="10:Low Cut:0" numparams="14"/>
            <key>
              <attribute name="file" value="Effects\Classic Delay\Classic Delay.dll"/>
            </key>
          </effect>
        </fxchain>
        <send channel="1" amount="1"/>
      </mixerchannel>
    </mixer>
    <ControllerRackView height="200" maximized="0" width="350" visible="0" minimized="0" x="550" y="487"/>
    <pianoroll height="386" maximized="0" width="970" visible="1" minimized="0" x="603" y="396"/>
    <automationeditor height="400" maximized="0" width="860" visible="0" minimized="0" x="1" y="1"/>
    <projectnotes height="528" maximized="0" width="692" visible="0" minimized="0" x="879" y="392"><![CDATA[<!DOCTYPE HTML PUBLIC "-//W3C//DTD HTML 4.0//EN" "http://www.w3.org/TR/REC-html40/strict.dtd">
<html><head><meta name="qrichtext" content="1" /><style type="text/css">
p, li { white-space: pre-wrap; }
</style></head><body style=" font-family:'MS Shell Dlg 2'; font-size:8.25pt; font-weight:400; font-style:normal;">
<p style=" margin-top:0px; margin-bottom:0px; margin-left:0px; margin-right:0px; -qt-block-indent:0; text-indent:0px;"><span style=" color:#e0e0e0;">Greetings.</span></p>
<p style=" margin-top:0px; margin-bottom:0px; margin-left:0px; margin-right:0px; -qt-block-indent:0; text-indent:0px;"><span style=" color:#e0e0e0;">Please use this in LMMS 1.3 or higher. Previous versions require editing to load correctly.</span></p>
<p style="-qt-paragraph-type:empty; margin-top:0px; margin-bottom:0px; margin-left:0px; margin-right:0px; -qt-block-indent:0; text-indent:0px; color:#e0e0e0;"><br /></p>
<p style=" margin-top:0px; margin-bottom:0px; margin-left:0px; margin-right:0px; -qt-block-indent:0; text-indent:0px;"><span style=" color:#e0e0e0;">Instruments:</span></p>
<p style="-qt-paragraph-type:empty; margin-top:0px; margin-bottom:0px; margin-left:0px; margin-right:0px; -qt-block-indent:0; text-indent:0px; color:#e0e0e0;"><br /></p>
<p style=" margin-top:0px; margin-bottom:0px; margin-left:0px; margin-right:0px; -qt-block-indent:0; text-indent:0px;"><span style=" color:#e0e0e0;">Effects:</span></p>
<p style="-qt-paragraph-type:empty; margin-top:0px; margin-bottom:0px; margin-left:0px; margin-right:0px; -qt-block-indent:0; text-indent:0px; color:#e0e0e0;"><br /></p>
<p style=" margin-top:0px; margin-bottom:0px; margin-left:0px; margin-right:0px; -qt-block-indent:0; text-indent:0px;"><span style=" color:#e0e0e0;">Released as .mmp, adjust paths as desired.</span></p>
<p style=" margin-top:0px; margin-bottom:0px; margin-left:0px; margin-right:0px; -qt-block-indent:0; text-indent:0px;"><span style=" color:#e0e0e0;">____</span></p>
<p style="-qt-paragraph-type:empty; margin-top:0px; margin-bottom:0px; margin-left:0px; margin-right:0px; -qt-block-indent:0; text-indent:0px; color:#e0e0e0;"><br /></p>
<p style=" margin-top:0px; margin-bottom:0px; margin-left:0px; margin-right:0px; -qt-block-indent:0; text-indent:0px;">Please note that the author explicitely wishes to have eventual derivates or redistributions distributed ONLY as .mmp files, not .mmpz.</p>
<p style=" margin-top:0px; margin-bottom:0px; margin-left:0px; margin-right:0px; -qt-block-indent:0; text-indent:0px;">There is nothing the license can do from stopping you as saving it as .mmpz, except that the author will insult you severely.</p>
<p style="-qt-paragraph-type:empty; margin-top:0px; margin-bottom:0px; margin-left:0px; margin-right:0px; -qt-block-indent:0; text-indent:0px;"><br /></p>
<p style=" margin-top:0px; margin-bottom:0px; margin-left:0px; margin-right:0px; -qt-block-indent:0; text-indent:0px;">Should you have received this file as an .mmpz, please insult its forwarder.</p>
<p style=" margin-top:0px; margin-bottom:0px; margin-left:0px; margin-right:0px; -qt-block-indent:0; text-indent:0px;">To convert the file into .mmp, follow these steps:</p>
<p style="-qt-paragraph-type:empty; margin-top:0px; margin-bottom:0px; margin-left:0px; margin-right:0px; -qt-block-indent:0; text-indent:0px;"><br /></p>
<p style=" margin-top:0px; margin-bottom:0px; margin-left:0px; margin-right:0px; -qt-block-indent:0; text-indent:0px;">1.: Create a a file called &quot;Decompress.cmd&quot; in the LMMS directory. (Where lmms.exe is located.)</p>
<p style=" margin-top:0px; margin-bottom:0px; margin-left:0px; margin-right:0px; -qt-block-indent:0; text-indent:0px;">2.: Right click on file, click &quot;Edit&quot;.</p>
<p style=" margin-top:0px; margin-bottom:0px; margin-left:0px; margin-right:0px; -qt-block-indent:0; text-indent:0px;">3.: Put the following line into the file:</p>
<p style="-qt-paragraph-type:empty; margin-top:0px; margin-bottom:0px; margin-left:0px; margin-right:0px; -qt-block-indent:0; text-indent:0px;"><br /></p>
<p style=" margin-top:0px; margin-bottom:0px; margin-left:0px; margin-right:0px; -qt-block-indent:0; text-indent:0px;">&quot;%~dp0LMMS.exe&quot; -d &quot;%*&quot; &gt; &quot;%*.mmp&quot;</p>
<p style="-qt-paragraph-type:empty; margin-top:0px; margin-bottom:0px; margin-left:0px; margin-right:0px; -qt-block-indent:0; text-indent:0px;"><br /></p>
<p style=" margin-top:0px; margin-bottom:0px; margin-left:0px; margin-right:0px; -qt-block-indent:0; text-indent:0px;">This does the following:</p>
<p style=" margin-top:0px; margin-bottom:0px; margin-left:0px; margin-right:0px; -qt-block-indent:0; text-indent:0px;">%~dp0 return the folder where the .cmd file is located.</p>
<p style=" margin-top:0px; margin-bottom:0px; margin-left:0px; margin-right:0px; -qt-block-indent:0; text-indent:0px;">It then calls LMMS.exe inside that folder.</p>
<p style=" margin-top:0px; margin-bottom:0px; margin-left:0px; margin-right:0px; -qt-block-indent:0; text-indent:0px;">-d is the decompress option for an .mmpz file.</p>
<p style=" margin-top:0px; margin-bottom:0px; margin-left:0px; margin-right:0px; -qt-block-indent:0; text-indent:0px;">%* returns any parameters given to the .cmd file.</p>
<p style=" margin-top:0px; margin-bottom:0px; margin-left:0px; margin-right:0px; -qt-block-indent:0; text-indent:0px;">&gt; sends the output into a file.</p>
<p style="-qt-paragraph-type:empty; margin-top:0px; margin-bottom:0px; margin-left:0px; margin-right:0px; -qt-block-indent:0; text-indent:0px;"><br /></p>
<p style=" margin-top:0px; margin-bottom:0px; margin-left:0px; margin-right:0px; -qt-block-indent:0; text-indent:0px;">If you drag an .mmpz file onto the .cmd file, it will decompress it into &quot;[filename].mmpz.mmp&quot;, at the original location.</p>
<p style="-qt-paragraph-type:empty; margin-top:0px; margin-bottom:0px; margin-left:0px; margin-right:0px; -qt-block-indent:0; text-indent:0px;"><br /></p></body></html>]]></projectnotes>
    <timeline stopbehaviour="1" lp1pos="5376" lpstate="1" lp0pos="0"/>
    <controllers/>
    <scales>
      <scale description="empty">
        <interval num="1" den="1"/>
      </scale>
      <scale description="empty">
        <interval num="1" den="1"/>
      </scale>
      <scale description="empty">
        <interval num="1" den="1"/>
      </scale>
      <scale description="empty">
        <interval num="1" den="1"/>
      </scale>
      <scale description="empty">
        <interval num="1" den="1"/>
      </scale>
      <scale description="empty">
        <interval num="1" den="1"/>
      </scale>
      <scale description="empty">
        <interval num="1" den="1"/>
      </scale>
      <scale description="empty">
        <interval num="1" den="1"/>
      </scale>
      <scale description="empty">
        <interval num="1" den="1"/>
      </scale>
      <scale description="empty">
        <interval num="1" den="1"/>
      </scale>
    </scales>
    <keymaps>
      <keymap base_key="69" base_freq="440" middle_key="60" description="empty" last_key="127" first_key="0"/>
      <keymap base_key="69" base_freq="440" middle_key="60" description="empty" last_key="127" first_key="0"/>
      <keymap base_key="69" base_freq="440" middle_key="60" description="empty" last_key="127" first_key="0"/>
      <keymap base_key="69" base_freq="440" middle_key="60" description="empty" last_key="127" first_key="0"/>
      <keymap base_key="69" base_freq="440" middle_key="60" description="empty" last_key="127" first_key="0"/>
      <keymap base_key="69" base_freq="440" middle_key="60" description="empty" last_key="127" first_key="0"/>
      <keymap base_key="69" base_freq="440" middle_key="60" description="empty" last_key="127" first_key="0"/>
      <keymap base_key="69" base_freq="440" middle_key="60" description="empty" last_key="127" first_key="0"/>
      <keymap base_key="69" base_freq="440" middle_key="60" description="empty" last_key="127" first_key="0"/>
      <keymap base_key="69" base_freq="440" middle_key="60" description="empty" last_key="127" first_key="0"/>
    </keymaps>
  </song>
</lmms-project>
