<?xml version="1.0"?>
<!DOCTYPE lmms-project>
<lmms-project type="song" version="23" creator="LMMS" creatorversion="1.3.0-alpha.1.231+g49b1f83e4">
  <head bpm="126" timesig_denominator="4" timesig_numerator="4" masterpitch="-5" mastervol="100"/>
  <song>
    <trackcontainer type="song" visible="1" minimized="0" x="4" height="595" y="1" maximized="0" width="1445">
      <track type="0" name="Drums>BD" solo="0" mutedBeforeSolo="0" muted="0">
        <instrumenttrack usemasterpitch="0" mixch="13" firstkey="0" keymap="0" lastkey="127" pan="0" enablecc="0" pitch="0" pitchrange="1" vol="100" basenote="64" scale="0" enabled="0" range_import="1">
          <midicontrollers cc43="0" cc74="0" cc111="0" cc119="0" cc124="0" cc108="0" cc7="0" cc49="0" cc95="0" cc116="0" cc35="0" cc98="0" cc105="0" cc14="0" cc48="0" cc65="0" cc11="0" cc17="0" cc34="0" cc23="0" cc15="0" cc22="0" cc55="0" cc68="0" cc4="0" cc28="0" cc13="0" cc44="0" cc69="0" cc3="0" cc77="0" cc73="0" cc1="0" cc80="0" cc58="0" cc120="0" cc0="0" cc21="0" cc85="0" cc115="0" cc29="0" cc66="0" cc53="0" cc90="0" cc96="0" cc37="0" cc46="0" cc25="0" cc109="0" cc52="0" cc110="0" cc75="0" cc57="0" cc92="0" cc93="0" cc125="0" cc18="0" cc122="0" cc19="0" cc32="0" cc103="0" cc86="0" cc121="0" cc6="0" cc56="0" cc94="0" cc70="0" cc64="0" cc127="0" cc59="0" cc63="0" cc9="0" cc82="0" cc78="0" cc114="0" cc104="0" cc36="0" cc30="0" cc12="0" cc10="0" cc84="0" cc76="0" cc88="0" cc20="0" cc16="0" cc101="0" cc27="0" cc8="0" cc5="0" cc81="0" cc24="0" cc99="0" cc60="0" cc102="0" cc106="0" cc26="0" cc61="0" cc39="0" cc33="0" cc38="0" cc45="0" cc100="0" cc112="0" cc126="0" cc67="0" cc50="0" cc42="0" cc113="0" cc41="0" cc87="0" cc107="0" cc2="0" cc79="0" cc123="0" cc40="0" cc71="0" cc97="0" cc83="0" cc118="0" cc62="0" cc117="0" cc72="0" cc31="0" cc54="0" cc91="0" cc89="0" cc47="0" cc51="0"/>
          <instrument name="audiofileprocessor">
            <audiofileprocessor eframe="1" lframe="0" reversed="0" sframe="0" src="usersample:sDrumBD.flac" interp="0" stutter="0" looped="0" amp="22">
              <key/>
            </audiofileprocessor>
          </instrument>
          <eldata fcut="14000" ftype="0" fres="0.5" fwet="0">
            <elvol sustain="0.5" lspd_denominator="4" dec="0.5" pdel="0" rel="0.1" userwavefile="" latt="0" lspd_numerator="4" att="0" amt="0" ctlenvamt="0" lspd="0.1" lshp="0" x100="0" lpdel="0" hold="0.5" lspd_syncmode="0" lamt="0"/>
            <elcut sustain="0.5" lspd_denominator="4" dec="0.5" pdel="0" rel="0.1" userwavefile="" latt="0" lspd_numerator="4" att="0" amt="0" ctlenvamt="0" lspd="0.1" lshp="0" x100="0" lpdel="0" hold="0.5" lspd_syncmode="0" lamt="0"/>
            <elres sustain="0.5" lspd_denominator="4" dec="0.5" pdel="0" rel="0.1" userwavefile="" latt="0" lspd_numerator="4" att="0" amt="0" ctlenvamt="0" lspd="0.1" lshp="0" x100="0" lpdel="0" hold="0.5" lspd_syncmode="0" lamt="0"/>
          </eldata>
          <chordcreator chord-enabled="0" chord="0" chordrange="1"/>
          <arpeggiator arpmode="0" arpskip="0" arprange="1" arpmiss="0" arptime_numerator="4" arptime="200" arptime_denominator="4" arpdir="0" arprepeats="1" arp-enabled="0" arpcycle="0" arpgate="100" arp="0" arptime_syncmode="0"/>
          <midiport inputcontroller="0" fixedinputvelocity="-1" fixedoutputvelocity="-1" outputcontroller="0" outputprogram="1" writable="0" fixedoutputnote="-1" outputchannel="1" basevelocity="63" inputchannel="0" inports="" readable="1"/>
          <fxchain numofeffects="0" enabled="0"/>
        </instrumenttrack>
        <midiclip type="1" steps="16" pos="576" name="" muted="0">
          <note key="48" pan="0" pos="0" vol="100" len="48"/>
          <note key="48" pan="0" pos="48" vol="100" len="48"/>
          <note key="48" pan="0" pos="96" vol="100" len="48"/>
          <note key="48" pan="0" pos="144" vol="100" len="48"/>
        </midiclip>
        <midiclip type="1" steps="16" pos="768" name="" muted="0">
          <note key="48" pan="0" pos="0" vol="100" len="48"/>
          <note key="48" pan="0" pos="48" vol="100" len="48"/>
          <note key="48" pan="0" pos="96" vol="100" len="48"/>
          <note key="48" pan="0" pos="144" vol="100" len="48"/>
        </midiclip>
        <midiclip type="1" steps="16" pos="960" name="" muted="0">
          <note key="48" pan="0" pos="0" vol="100" len="48"/>
          <note key="48" pan="0" pos="48" vol="100" len="48"/>
          <note key="48" pan="0" pos="96" vol="100" len="48"/>
          <note key="48" pan="0" pos="144" vol="100" len="48"/>
        </midiclip>
        <midiclip type="1" steps="16" pos="1152" name="" muted="0">
          <note key="48" pan="0" pos="0" vol="100" len="48"/>
          <note key="48" pan="0" pos="48" vol="100" len="48"/>
          <note key="48" pan="0" pos="96" vol="100" len="48"/>
          <note key="48" pan="0" pos="144" vol="100" len="48"/>
        </midiclip>
        <midiclip type="1" steps="16" pos="1344" name="" muted="0">
          <note key="48" pan="0" pos="0" vol="100" len="48"/>
          <note key="48" pan="0" pos="48" vol="100" len="48"/>
          <note key="48" pan="0" pos="96" vol="100" len="48"/>
          <note key="48" pan="0" pos="144" vol="100" len="48"/>
        </midiclip>
        <midiclip type="1" steps="16" pos="1536" name="" muted="0">
          <note key="48" pan="0" pos="0" vol="100" len="48"/>
          <note key="48" pan="0" pos="48" vol="100" len="48"/>
          <note key="48" pan="0" pos="96" vol="100" len="48"/>
          <note key="48" pan="0" pos="144" vol="100" len="48"/>
        </midiclip>
        <midiclip type="1" steps="16" pos="1728" name="" muted="0">
          <note key="48" pan="0" pos="0" vol="100" len="48"/>
          <note key="48" pan="0" pos="48" vol="100" len="48"/>
          <note key="48" pan="0" pos="96" vol="100" len="48"/>
          <note key="48" pan="0" pos="144" vol="100" len="48"/>
        </midiclip>
        <midiclip type="1" steps="16" pos="1920" name="" muted="0">
          <note key="48" pan="0" pos="0" vol="100" len="48"/>
          <note key="48" pan="0" pos="48" vol="100" len="48"/>
          <note key="48" pan="0" pos="96" vol="100" len="48"/>
          <note key="48" pan="0" pos="144" vol="100" len="48"/>
        </midiclip>
        <midiclip type="1" steps="16" pos="2112" name="" muted="0">
          <note key="48" pan="0" pos="0" vol="100" len="48"/>
          <note key="48" pan="0" pos="48" vol="100" len="48"/>
          <note key="48" pan="0" pos="96" vol="100" len="48"/>
          <note key="48" pan="0" pos="144" vol="100" len="48"/>
        </midiclip>
        <midiclip type="1" steps="16" pos="2304" name="" muted="0">
          <note key="48" pan="0" pos="0" vol="100" len="48"/>
          <note key="48" pan="0" pos="48" vol="100" len="48"/>
          <note key="48" pan="0" pos="96" vol="100" len="48"/>
          <note key="48" pan="0" pos="144" vol="100" len="48"/>
        </midiclip>
        <midiclip type="1" steps="16" pos="2496" name="" muted="0">
          <note key="48" pan="0" pos="0" vol="100" len="48"/>
          <note key="48" pan="0" pos="48" vol="100" len="48"/>
          <note key="48" pan="0" pos="96" vol="100" len="48"/>
          <note key="48" pan="0" pos="144" vol="100" len="48"/>
        </midiclip>
        <midiclip type="1" steps="16" pos="2688" name="" muted="0">
          <note key="48" pan="0" pos="0" vol="100" len="48"/>
          <note key="48" pan="0" pos="48" vol="100" len="48"/>
          <note key="48" pan="0" pos="96" vol="100" len="48"/>
          <note key="48" pan="0" pos="144" vol="100" len="48"/>
        </midiclip>
        <midiclip type="1" steps="16" pos="2880" name="" muted="0">
          <note key="48" pan="0" pos="0" vol="100" len="48"/>
          <note key="48" pan="0" pos="48" vol="100" len="48"/>
          <note key="48" pan="0" pos="96" vol="100" len="48"/>
          <note key="48" pan="0" pos="144" vol="100" len="48"/>
        </midiclip>
        <midiclip type="1" steps="16" pos="0" name="" muted="0">
          <note key="48" pan="0" pos="0" vol="100" len="48"/>
          <note key="48" pan="0" pos="96" vol="100" len="48"/>
        </midiclip>
        <midiclip type="1" steps="16" pos="192" name="" muted="0">
          <note key="48" pan="0" pos="0" vol="100" len="48"/>
          <note key="48" pan="0" pos="96" vol="100" len="48"/>
        </midiclip>
        <midiclip type="1" steps="16" pos="384" name="" muted="0">
          <note key="48" pan="0" pos="0" vol="100" len="48"/>
          <note key="48" pan="0" pos="96" vol="100" len="48"/>
        </midiclip>
        <midiclip type="1" steps="16" pos="3072" name="" muted="0">
          <note key="48" pan="0" pos="0" vol="100" len="48"/>
          <note key="48" pan="0" pos="48" vol="100" len="48"/>
          <note key="48" pan="0" pos="96" vol="100" len="48"/>
          <note key="48" pan="0" pos="144" vol="100" len="48"/>
        </midiclip>
        <midiclip type="1" steps="16" pos="3264" name="" muted="0">
          <note key="48" pan="0" pos="0" vol="100" len="48"/>
          <note key="48" pan="0" pos="48" vol="100" len="48"/>
          <note key="48" pan="0" pos="96" vol="100" len="48"/>
          <note key="48" pan="0" pos="144" vol="100" len="48"/>
        </midiclip>
        <midiclip type="1" steps="16" pos="3456" name="" muted="0">
          <note key="48" pan="0" pos="0" vol="100" len="48"/>
          <note key="48" pan="0" pos="48" vol="100" len="48"/>
          <note key="48" pan="0" pos="96" vol="100" len="48"/>
          <note key="48" pan="0" pos="144" vol="100" len="48"/>
        </midiclip>
        <midiclip type="1" steps="16" pos="3648" name="" muted="0">
          <note key="48" pan="0" pos="0" vol="100" len="48"/>
          <note key="48" pan="0" pos="48" vol="100" len="48"/>
          <note key="48" pan="0" pos="96" vol="100" len="48"/>
          <note key="48" pan="0" pos="144" vol="100" len="48"/>
        </midiclip>
        <midiclip type="1" steps="16" pos="3840" name="" muted="0">
          <note key="48" pan="0" pos="0" vol="100" len="48"/>
          <note key="48" pan="0" pos="48" vol="100" len="48"/>
          <note key="48" pan="0" pos="96" vol="100" len="48"/>
          <note key="48" pan="0" pos="144" vol="100" len="48"/>
        </midiclip>
        <midiclip type="1" steps="16" pos="4032" name="" muted="0">
          <note key="48" pan="0" pos="0" vol="100" len="48"/>
          <note key="48" pan="0" pos="48" vol="100" len="48"/>
          <note key="48" pan="0" pos="96" vol="100" len="48"/>
          <note key="48" pan="0" pos="144" vol="100" len="48"/>
        </midiclip>
        <midiclip type="1" steps="16" pos="4224" name="" muted="0">
          <note key="48" pan="0" pos="0" vol="100" len="48"/>
          <note key="48" pan="0" pos="48" vol="100" len="48"/>
          <note key="48" pan="0" pos="96" vol="100" len="48"/>
          <note key="48" pan="0" pos="144" vol="100" len="48"/>
        </midiclip>
        <midiclip type="1" steps="16" pos="4416" name="" muted="0">
          <note key="48" pan="0" pos="0" vol="100" len="48"/>
          <note key="48" pan="0" pos="48" vol="100" len="48"/>
          <note key="48" pan="0" pos="96" vol="100" len="48"/>
          <note key="48" pan="0" pos="144" vol="100" len="48"/>
        </midiclip>
        <midiclip type="1" steps="16" pos="4608" name="" muted="0">
          <note key="48" pan="0" pos="0" vol="100" len="48"/>
          <note key="48" pan="0" pos="48" vol="100" len="48"/>
          <note key="48" pan="0" pos="96" vol="100" len="48"/>
          <note key="48" pan="0" pos="144" vol="100" len="48"/>
        </midiclip>
        <midiclip type="1" steps="16" pos="4800" name="" muted="0">
          <note key="48" pan="0" pos="0" vol="100" len="48"/>
          <note key="48" pan="0" pos="48" vol="100" len="48"/>
          <note key="48" pan="0" pos="96" vol="100" len="48"/>
          <note key="48" pan="0" pos="144" vol="100" len="48"/>
        </midiclip>
        <midiclip type="1" steps="16" pos="4992" name="" muted="0">
          <note key="48" pan="0" pos="0" vol="100" len="48"/>
          <note key="48" pan="0" pos="48" vol="100" len="48"/>
          <note key="48" pan="0" pos="96" vol="100" len="48"/>
          <note key="48" pan="0" pos="144" vol="100" len="48"/>
        </midiclip>
        <midiclip type="1" steps="16" pos="5184" name="" muted="0">
          <note key="48" pan="0" pos="0" vol="100" len="48"/>
          <note key="48" pan="0" pos="48" vol="100" len="48"/>
          <note key="48" pan="0" pos="96" vol="100" len="48"/>
          <note key="48" pan="0" pos="144" vol="100" len="48"/>
        </midiclip>
        <midiclip type="1" steps="16" pos="5376" name="" muted="0">
          <note key="48" pan="0" pos="0" vol="100" len="48"/>
          <note key="48" pan="0" pos="48" vol="100" len="48"/>
          <note key="48" pan="0" pos="96" vol="100" len="48"/>
          <note key="48" pan="0" pos="144" vol="100" len="48"/>
        </midiclip>
        <midiclip type="1" steps="16" pos="5568" name="" muted="0">
          <note key="48" pan="0" pos="0" vol="100" len="48"/>
          <note key="48" pan="0" pos="48" vol="100" len="48"/>
          <note key="48" pan="0" pos="96" vol="100" len="48"/>
          <note key="48" pan="0" pos="144" vol="100" len="48"/>
        </midiclip>
        <midiclip type="1" steps="16" pos="5760" name="" muted="0">
          <note key="48" pan="0" pos="0" vol="100" len="48"/>
          <note key="48" pan="0" pos="48" vol="100" len="48"/>
          <note key="48" pan="0" pos="96" vol="100" len="48"/>
          <note key="48" pan="0" pos="144" vol="100" len="48"/>
        </midiclip>
        <midiclip type="1" steps="16" pos="5952" name="" muted="0">
          <note key="48" pan="0" pos="0" vol="100" len="48"/>
          <note key="48" pan="0" pos="48" vol="100" len="48"/>
          <note key="48" pan="0" pos="96" vol="100" len="48"/>
          <note key="48" pan="0" pos="144" vol="100" len="48"/>
        </midiclip>
        <midiclip type="1" steps="16" pos="6144" name="" muted="0">
          <note key="48" pan="0" pos="0" vol="100" len="48"/>
          <note key="48" pan="0" pos="48" vol="100" len="48"/>
          <note key="48" pan="0" pos="96" vol="100" len="48"/>
          <note key="48" pan="0" pos="144" vol="100" len="48"/>
        </midiclip>
        <midiclip type="1" steps="16" pos="6336" name="" muted="0">
          <note key="48" pan="0" pos="0" vol="100" len="48"/>
          <note key="48" pan="0" pos="48" vol="100" len="48"/>
          <note key="48" pan="0" pos="96" vol="100" len="48"/>
          <note key="48" pan="0" pos="144" vol="100" len="48"/>
        </midiclip>
        <midiclip type="1" steps="16" pos="7104" name="" muted="0">
          <note key="48" pan="0" pos="0" vol="100" len="48"/>
          <note key="48" pan="0" pos="48" vol="100" len="48"/>
          <note key="48" pan="0" pos="96" vol="100" len="48"/>
          <note key="48" pan="0" pos="144" vol="100" len="48"/>
        </midiclip>
        <midiclip type="1" steps="16" pos="7296" name="" muted="0">
          <note key="48" pan="0" pos="0" vol="100" len="48"/>
          <note key="48" pan="0" pos="48" vol="100" len="48"/>
          <note key="48" pan="0" pos="96" vol="100" len="48"/>
          <note key="48" pan="0" pos="144" vol="100" len="48"/>
        </midiclip>
        <midiclip type="1" steps="16" pos="7488" name="" muted="0">
          <note key="48" pan="0" pos="0" vol="100" len="48"/>
          <note key="48" pan="0" pos="48" vol="100" len="48"/>
          <note key="48" pan="0" pos="96" vol="100" len="48"/>
          <note key="48" pan="0" pos="144" vol="100" len="48"/>
        </midiclip>
        <midiclip type="1" steps="16" pos="7680" name="" muted="0">
          <note key="48" pan="0" pos="0" vol="100" len="48"/>
          <note key="48" pan="0" pos="48" vol="100" len="48"/>
          <note key="48" pan="0" pos="96" vol="100" len="48"/>
          <note key="48" pan="0" pos="144" vol="100" len="48"/>
        </midiclip>
        <midiclip type="1" steps="16" pos="7872" name="" muted="0">
          <note key="48" pan="0" pos="0" vol="100" len="48"/>
          <note key="48" pan="0" pos="48" vol="100" len="48"/>
          <note key="48" pan="0" pos="96" vol="100" len="48"/>
          <note key="48" pan="0" pos="144" vol="100" len="48"/>
        </midiclip>
        <midiclip type="1" steps="16" pos="8064" name="" muted="0">
          <note key="48" pan="0" pos="0" vol="100" len="48"/>
          <note key="48" pan="0" pos="48" vol="100" len="48"/>
          <note key="48" pan="0" pos="96" vol="100" len="48"/>
          <note key="48" pan="0" pos="144" vol="100" len="48"/>
        </midiclip>
        <midiclip type="1" steps="16" pos="8256" name="" muted="0">
          <note key="48" pan="0" pos="0" vol="100" len="48"/>
          <note key="48" pan="0" pos="48" vol="100" len="48"/>
          <note key="48" pan="0" pos="96" vol="100" len="48"/>
          <note key="48" pan="0" pos="144" vol="100" len="48"/>
        </midiclip>
        <midiclip type="1" steps="16" pos="8448" name="" muted="0">
          <note key="48" pan="0" pos="0" vol="100" len="48"/>
          <note key="48" pan="0" pos="48" vol="100" len="48"/>
          <note key="48" pan="0" pos="96" vol="100" len="48"/>
          <note key="48" pan="0" pos="144" vol="100" len="48"/>
        </midiclip>
        <midiclip type="1" steps="16" pos="8640" name="" muted="0">
          <note key="48" pan="0" pos="0" vol="100" len="48"/>
          <note key="48" pan="0" pos="48" vol="100" len="48"/>
          <note key="48" pan="0" pos="96" vol="100" len="48"/>
          <note key="48" pan="0" pos="144" vol="100" len="48"/>
        </midiclip>
        <midiclip type="1" steps="16" pos="8832" name="" muted="0">
          <note key="48" pan="0" pos="0" vol="100" len="48"/>
          <note key="48" pan="0" pos="48" vol="100" len="48"/>
          <note key="48" pan="0" pos="96" vol="100" len="48"/>
          <note key="48" pan="0" pos="144" vol="100" len="48"/>
        </midiclip>
        <midiclip type="1" steps="16" pos="9024" name="" muted="0">
          <note key="48" pan="0" pos="0" vol="100" len="48"/>
          <note key="48" pan="0" pos="48" vol="100" len="48"/>
          <note key="48" pan="0" pos="96" vol="100" len="48"/>
          <note key="48" pan="0" pos="144" vol="100" len="48"/>
        </midiclip>
        <midiclip type="1" steps="16" pos="9216" name="" muted="0">
          <note key="48" pan="0" pos="0" vol="100" len="48"/>
          <note key="48" pan="0" pos="48" vol="100" len="48"/>
          <note key="48" pan="0" pos="96" vol="100" len="48"/>
          <note key="48" pan="0" pos="144" vol="100" len="48"/>
        </midiclip>
        <midiclip type="1" steps="16" pos="9408" name="" muted="0">
          <note key="48" pan="0" pos="0" vol="100" len="48"/>
          <note key="48" pan="0" pos="48" vol="100" len="48"/>
          <note key="48" pan="0" pos="96" vol="100" len="48"/>
          <note key="48" pan="0" pos="144" vol="100" len="48"/>
        </midiclip>
        <midiclip type="1" steps="16" pos="9600" name="" muted="0">
          <note key="48" pan="0" pos="0" vol="100" len="48"/>
          <note key="48" pan="0" pos="48" vol="100" len="48"/>
          <note key="48" pan="0" pos="96" vol="100" len="48"/>
          <note key="48" pan="0" pos="144" vol="100" len="48"/>
        </midiclip>
        <midiclip type="1" steps="16" pos="9792" name="" muted="0">
          <note key="48" pan="0" pos="0" vol="100" len="48"/>
          <note key="48" pan="0" pos="48" vol="100" len="48"/>
          <note key="48" pan="0" pos="96" vol="100" len="48"/>
          <note key="48" pan="0" pos="144" vol="100" len="48"/>
        </midiclip>
        <midiclip type="1" steps="16" pos="9984" name="" muted="0">
          <note key="48" pan="0" pos="0" vol="100" len="48"/>
          <note key="48" pan="0" pos="48" vol="100" len="48"/>
          <note key="48" pan="0" pos="96" vol="100" len="48"/>
          <note key="48" pan="0" pos="144" vol="100" len="48"/>
        </midiclip>
        <midiclip type="1" steps="16" pos="10176" name="" muted="0">
          <note key="48" pan="0" pos="0" vol="100" len="48"/>
          <note key="48" pan="0" pos="48" vol="100" len="48"/>
          <note key="48" pan="0" pos="96" vol="100" len="48"/>
          <note key="48" pan="0" pos="144" vol="100" len="48"/>
        </midiclip>
        <midiclip type="1" steps="16" pos="10368" name="" muted="0">
          <note key="48" pan="0" pos="0" vol="100" len="48"/>
          <note key="48" pan="0" pos="48" vol="100" len="48"/>
          <note key="48" pan="0" pos="96" vol="100" len="48"/>
          <note key="48" pan="0" pos="144" vol="100" len="48"/>
        </midiclip>
        <midiclip type="1" steps="16" pos="10560" name="" muted="0">
          <note key="48" pan="0" pos="0" vol="100" len="48"/>
          <note key="48" pan="0" pos="48" vol="100" len="48"/>
          <note key="48" pan="0" pos="96" vol="100" len="48"/>
          <note key="48" pan="0" pos="144" vol="100" len="48"/>
        </midiclip>
        <midiclip type="1" steps="16" pos="10752" name="" muted="0">
          <note key="48" pan="0" pos="0" vol="100" len="48"/>
          <note key="48" pan="0" pos="48" vol="100" len="48"/>
          <note key="48" pan="0" pos="96" vol="100" len="48"/>
          <note key="48" pan="0" pos="144" vol="100" len="48"/>
        </midiclip>
      </track>
      <track type="0" name="Drums>HiHat" solo="0" mutedBeforeSolo="0" muted="0">
        <instrumenttrack usemasterpitch="0" mixch="14" firstkey="0" keymap="0" lastkey="127" pan="0" enablecc="0" pitch="0" pitchrange="1" vol="100" basenote="61" scale="0" enabled="0" range_import="1">
          <midicontrollers cc43="0" cc74="0" cc111="0" cc119="0" cc124="0" cc108="0" cc7="0" cc49="0" cc95="0" cc116="0" cc35="0" cc98="0" cc105="0" cc14="0" cc48="0" cc65="0" cc11="0" cc17="0" cc34="0" cc23="0" cc15="0" cc22="0" cc55="0" cc68="0" cc4="0" cc28="0" cc13="0" cc44="0" cc69="0" cc3="0" cc77="0" cc73="0" cc1="0" cc80="0" cc58="0" cc120="0" cc0="0" cc21="0" cc85="0" cc115="0" cc29="0" cc66="0" cc53="0" cc90="0" cc96="0" cc37="0" cc46="0" cc25="0" cc109="0" cc52="0" cc110="0" cc75="0" cc57="0" cc92="0" cc93="0" cc125="0" cc18="0" cc122="0" cc19="0" cc32="0" cc103="0" cc86="0" cc121="0" cc6="0" cc56="0" cc94="0" cc70="0" cc64="0" cc127="0" cc59="0" cc63="0" cc9="0" cc82="0" cc78="0" cc114="0" cc104="0" cc36="0" cc30="0" cc12="0" cc10="0" cc84="0" cc76="0" cc88="0" cc20="0" cc16="0" cc101="0" cc27="0" cc8="0" cc5="0" cc81="0" cc24="0" cc99="0" cc60="0" cc102="0" cc106="0" cc26="0" cc61="0" cc39="0" cc33="0" cc38="0" cc45="0" cc100="0" cc112="0" cc126="0" cc67="0" cc50="0" cc42="0" cc113="0" cc41="0" cc87="0" cc107="0" cc2="0" cc79="0" cc123="0" cc40="0" cc71="0" cc97="0" cc83="0" cc118="0" cc62="0" cc117="0" cc72="0" cc31="0" cc54="0" cc91="0" cc89="0" cc47="0" cc51="0"/>
          <instrument name="audiofileprocessor">
            <audiofileprocessor eframe="1" lframe="0" reversed="0" sframe="0" src="usersample:sDrumHihat.flac" interp="0" stutter="0" looped="0" amp="18">
              <key/>
            </audiofileprocessor>
          </instrument>
          <eldata fcut="14000" ftype="0" fres="0.5" fwet="0">
            <elvol sustain="0" lspd_denominator="4" dec="0" pdel="0" rel="0" userwavefile="" latt="0" lspd_numerator="4" att="0" amt="1" ctlenvamt="0" lspd="0.1" lshp="0" x100="0" lpdel="0" hold="0.096" lspd_syncmode="0" lamt="0"/>
            <elcut sustain="0.5" lspd_denominator="4" dec="0.5" pdel="0" rel="0.1" userwavefile="" latt="0" lspd_numerator="4" att="0" amt="0" ctlenvamt="0" lspd="0.1" lshp="0" x100="0" lpdel="0" hold="0.5" lspd_syncmode="0" lamt="0"/>
            <elres sustain="0.5" lspd_denominator="4" dec="0.5" pdel="0" rel="0.1" userwavefile="" latt="0" lspd_numerator="4" att="0" amt="0" ctlenvamt="0" lspd="0.1" lshp="0" x100="0" lpdel="0" hold="0.5" lspd_syncmode="0" lamt="0"/>
          </eldata>
          <chordcreator chord-enabled="0" chord="0" chordrange="1"/>
          <arpeggiator arpmode="0" arpskip="0" arprange="1" arpmiss="0" arptime_numerator="4" arptime="200" arptime_denominator="4" arpdir="0" arprepeats="1" arp-enabled="0" arpcycle="0" arpgate="100" arp="0" arptime_syncmode="0"/>
          <midiport inputcontroller="0" fixedinputvelocity="-1" fixedoutputvelocity="-1" outputcontroller="0" outputprogram="1" writable="0" fixedoutputnote="-1" outputchannel="1" basevelocity="63" inputchannel="0" inports="" readable="1"/>
          <fxchain numofeffects="0" enabled="0"/>
        </instrumenttrack>
        <midiclip type="1" steps="16" pos="1536" name="" muted="0">
          <note key="48" pan="0" pos="24" vol="100" len="12"/>
          <note key="48" pan="0" pos="72" vol="100" len="12"/>
          <note key="48" pan="0" pos="120" vol="100" len="12"/>
          <note key="48" pan="0" pos="132" vol="100" len="12"/>
          <note key="48" pan="0" pos="168" vol="100" len="12"/>
        </midiclip>
        <midiclip type="1" steps="16" pos="1728" name="" muted="0">
          <note key="48" pan="0" pos="24" vol="100" len="12"/>
          <note key="48" pan="0" pos="72" vol="100" len="12"/>
          <note key="48" pan="0" pos="120" vol="100" len="12"/>
          <note key="48" pan="0" pos="132" vol="100" len="12"/>
          <note key="48" pan="0" pos="168" vol="100" len="12"/>
        </midiclip>
        <midiclip type="1" steps="16" pos="1920" name="" muted="0">
          <note key="48" pan="0" pos="24" vol="100" len="12"/>
          <note key="48" pan="0" pos="72" vol="100" len="12"/>
          <note key="48" pan="0" pos="120" vol="100" len="12"/>
          <note key="48" pan="0" pos="132" vol="100" len="12"/>
          <note key="48" pan="0" pos="168" vol="100" len="12"/>
        </midiclip>
        <midiclip type="1" steps="16" pos="2112" name="" muted="0">
          <note key="48" pan="0" pos="24" vol="100" len="12"/>
          <note key="48" pan="0" pos="72" vol="100" len="12"/>
          <note key="48" pan="0" pos="120" vol="100" len="12"/>
          <note key="48" pan="0" pos="132" vol="100" len="12"/>
          <note key="48" pan="0" pos="168" vol="100" len="12"/>
        </midiclip>
        <midiclip type="1" steps="16" pos="2304" name="" muted="0">
          <note key="48" pan="0" pos="24" vol="100" len="12"/>
          <note key="48" pan="0" pos="72" vol="100" len="12"/>
          <note key="48" pan="0" pos="120" vol="100" len="12"/>
          <note key="48" pan="0" pos="132" vol="100" len="12"/>
          <note key="48" pan="0" pos="168" vol="100" len="12"/>
        </midiclip>
        <midiclip type="1" steps="16" pos="2496" name="" muted="0">
          <note key="48" pan="0" pos="24" vol="100" len="12"/>
          <note key="48" pan="0" pos="72" vol="100" len="12"/>
          <note key="48" pan="0" pos="120" vol="100" len="12"/>
          <note key="48" pan="0" pos="132" vol="100" len="12"/>
          <note key="48" pan="0" pos="168" vol="100" len="12"/>
        </midiclip>
        <midiclip type="1" steps="16" pos="2688" name="" muted="0">
          <note key="48" pan="0" pos="24" vol="100" len="12"/>
          <note key="48" pan="0" pos="72" vol="100" len="12"/>
          <note key="48" pan="0" pos="120" vol="100" len="12"/>
          <note key="48" pan="0" pos="132" vol="100" len="12"/>
          <note key="48" pan="0" pos="168" vol="100" len="12"/>
        </midiclip>
        <midiclip type="1" steps="16" pos="2880" name="" muted="0">
          <note key="48" pan="0" pos="24" vol="100" len="12"/>
          <note key="48" pan="0" pos="72" vol="100" len="12"/>
          <note key="48" pan="0" pos="120" vol="100" len="12"/>
          <note key="48" pan="0" pos="132" vol="100" len="12"/>
          <note key="48" pan="0" pos="168" vol="100" len="12"/>
        </midiclip>
        <midiclip type="1" steps="16" pos="1344" name="" muted="0">
          <note key="48" pan="0" pos="24" vol="100" len="12"/>
          <note key="48" pan="0" pos="72" vol="100" len="12"/>
          <note key="48" pan="0" pos="120" vol="100" len="12"/>
          <note key="48" pan="0" pos="132" vol="100" len="12"/>
          <note key="48" pan="0" pos="168" vol="100" len="12"/>
        </midiclip>
        <midiclip type="1" steps="16" pos="1152" name="" muted="0">
          <note key="48" pan="0" pos="24" vol="100" len="12"/>
          <note key="48" pan="0" pos="72" vol="100" len="12"/>
          <note key="48" pan="0" pos="120" vol="100" len="12"/>
          <note key="48" pan="0" pos="132" vol="100" len="12"/>
          <note key="48" pan="0" pos="168" vol="100" len="12"/>
        </midiclip>
        <midiclip type="1" steps="16" pos="3072" name="" muted="0">
          <note key="48" pan="0" pos="24" vol="100" len="12"/>
          <note key="48" pan="0" pos="72" vol="100" len="12"/>
          <note key="48" pan="0" pos="120" vol="100" len="12"/>
          <note key="48" pan="0" pos="132" vol="100" len="12"/>
          <note key="48" pan="0" pos="168" vol="100" len="12"/>
        </midiclip>
        <midiclip type="1" steps="16" pos="3264" name="" muted="0">
          <note key="48" pan="0" pos="24" vol="100" len="12"/>
          <note key="48" pan="0" pos="72" vol="100" len="12"/>
          <note key="48" pan="0" pos="120" vol="100" len="12"/>
          <note key="48" pan="0" pos="132" vol="100" len="12"/>
          <note key="48" pan="0" pos="168" vol="100" len="12"/>
        </midiclip>
        <midiclip type="1" steps="16" pos="3456" name="" muted="0">
          <note key="48" pan="0" pos="24" vol="100" len="12"/>
          <note key="48" pan="0" pos="72" vol="100" len="12"/>
          <note key="48" pan="0" pos="120" vol="100" len="12"/>
          <note key="48" pan="0" pos="132" vol="100" len="12"/>
          <note key="48" pan="0" pos="168" vol="100" len="12"/>
        </midiclip>
        <midiclip type="1" steps="16" pos="3648" name="" muted="0">
          <note key="48" pan="0" pos="24" vol="100" len="12"/>
          <note key="48" pan="0" pos="72" vol="100" len="12"/>
          <note key="48" pan="0" pos="120" vol="100" len="12"/>
          <note key="48" pan="0" pos="132" vol="100" len="12"/>
          <note key="48" pan="0" pos="168" vol="100" len="12"/>
        </midiclip>
        <midiclip type="1" steps="16" pos="3840" name="" muted="0">
          <note key="48" pan="0" pos="24" vol="100" len="12"/>
          <note key="48" pan="0" pos="72" vol="100" len="12"/>
          <note key="48" pan="0" pos="120" vol="100" len="12"/>
          <note key="48" pan="0" pos="132" vol="100" len="12"/>
          <note key="48" pan="0" pos="168" vol="100" len="12"/>
        </midiclip>
        <midiclip type="1" steps="16" pos="4032" name="" muted="0">
          <note key="48" pan="0" pos="24" vol="100" len="12"/>
          <note key="48" pan="0" pos="72" vol="100" len="12"/>
          <note key="48" pan="0" pos="120" vol="100" len="12"/>
          <note key="48" pan="0" pos="132" vol="100" len="12"/>
          <note key="48" pan="0" pos="168" vol="100" len="12"/>
        </midiclip>
        <midiclip type="1" steps="16" pos="4224" name="" muted="0">
          <note key="48" pan="0" pos="24" vol="100" len="12"/>
          <note key="48" pan="0" pos="72" vol="100" len="12"/>
          <note key="48" pan="0" pos="120" vol="100" len="12"/>
          <note key="48" pan="0" pos="132" vol="100" len="12"/>
          <note key="48" pan="0" pos="168" vol="100" len="12"/>
        </midiclip>
        <midiclip type="1" steps="16" pos="4416" name="" muted="0">
          <note key="48" pan="0" pos="24" vol="100" len="12"/>
          <note key="48" pan="0" pos="72" vol="100" len="12"/>
          <note key="48" pan="0" pos="120" vol="100" len="12"/>
          <note key="48" pan="0" pos="132" vol="100" len="12"/>
          <note key="48" pan="0" pos="168" vol="100" len="12"/>
        </midiclip>
        <midiclip type="1" steps="16" pos="4608" name="" muted="0">
          <note key="48" pan="0" pos="24" vol="100" len="12"/>
          <note key="48" pan="0" pos="72" vol="100" len="12"/>
          <note key="48" pan="0" pos="120" vol="100" len="12"/>
          <note key="48" pan="0" pos="132" vol="100" len="12"/>
          <note key="48" pan="0" pos="168" vol="100" len="12"/>
        </midiclip>
        <midiclip type="1" steps="16" pos="4800" name="" muted="0">
          <note key="48" pan="0" pos="24" vol="100" len="12"/>
          <note key="48" pan="0" pos="72" vol="100" len="12"/>
          <note key="48" pan="0" pos="120" vol="100" len="12"/>
          <note key="48" pan="0" pos="132" vol="100" len="12"/>
          <note key="48" pan="0" pos="168" vol="100" len="12"/>
        </midiclip>
        <midiclip type="1" steps="16" pos="768" name="" muted="0">
          <note key="48" pan="0" pos="72" vol="100" len="12"/>
          <note key="48" pan="0" pos="168" vol="100" len="12"/>
        </midiclip>
        <midiclip type="1" steps="16" pos="960" name="" muted="0">
          <note key="48" pan="0" pos="72" vol="100" len="12"/>
          <note key="48" pan="0" pos="120" vol="100" len="12"/>
        </midiclip>
        <midiclip type="1" steps="16" pos="7104" name="" muted="0">
          <note key="48" pan="0" pos="24" vol="100" len="12"/>
          <note key="48" pan="0" pos="72" vol="100" len="12"/>
          <note key="48" pan="0" pos="120" vol="100" len="12"/>
          <note key="48" pan="0" pos="132" vol="100" len="12"/>
          <note key="48" pan="0" pos="168" vol="100" len="12"/>
        </midiclip>
        <midiclip type="1" steps="16" pos="7296" name="" muted="0">
          <note key="48" pan="0" pos="24" vol="100" len="12"/>
          <note key="48" pan="0" pos="72" vol="100" len="12"/>
          <note key="48" pan="0" pos="120" vol="100" len="12"/>
          <note key="48" pan="0" pos="132" vol="100" len="12"/>
          <note key="48" pan="0" pos="168" vol="100" len="12"/>
        </midiclip>
        <midiclip type="1" steps="16" pos="7488" name="" muted="0">
          <note key="48" pan="0" pos="24" vol="100" len="12"/>
          <note key="48" pan="0" pos="72" vol="100" len="12"/>
          <note key="48" pan="0" pos="120" vol="100" len="12"/>
          <note key="48" pan="0" pos="132" vol="100" len="12"/>
          <note key="48" pan="0" pos="168" vol="100" len="12"/>
        </midiclip>
        <midiclip type="1" steps="16" pos="7680" name="" muted="0">
          <note key="48" pan="0" pos="24" vol="100" len="12"/>
          <note key="48" pan="0" pos="72" vol="100" len="12"/>
          <note key="48" pan="0" pos="120" vol="100" len="12"/>
          <note key="48" pan="0" pos="132" vol="100" len="12"/>
          <note key="48" pan="0" pos="168" vol="100" len="12"/>
        </midiclip>
        <midiclip type="1" steps="16" pos="7872" name="" muted="0">
          <note key="48" pan="0" pos="24" vol="100" len="12"/>
          <note key="48" pan="0" pos="72" vol="100" len="12"/>
          <note key="48" pan="0" pos="120" vol="100" len="12"/>
          <note key="48" pan="0" pos="132" vol="100" len="12"/>
          <note key="48" pan="0" pos="168" vol="100" len="12"/>
        </midiclip>
        <midiclip type="1" steps="16" pos="8064" name="" muted="0">
          <note key="48" pan="0" pos="24" vol="100" len="12"/>
          <note key="48" pan="0" pos="72" vol="100" len="12"/>
          <note key="48" pan="0" pos="120" vol="100" len="12"/>
          <note key="48" pan="0" pos="132" vol="100" len="12"/>
          <note key="48" pan="0" pos="168" vol="100" len="12"/>
        </midiclip>
        <midiclip type="1" steps="16" pos="8256" name="" muted="0">
          <note key="48" pan="0" pos="24" vol="100" len="12"/>
          <note key="48" pan="0" pos="72" vol="100" len="12"/>
          <note key="48" pan="0" pos="120" vol="100" len="12"/>
          <note key="48" pan="0" pos="132" vol="100" len="12"/>
          <note key="48" pan="0" pos="168" vol="100" len="12"/>
        </midiclip>
        <midiclip type="1" steps="16" pos="8448" name="" muted="0">
          <note key="48" pan="0" pos="24" vol="100" len="12"/>
          <note key="48" pan="0" pos="72" vol="100" len="12"/>
          <note key="48" pan="0" pos="120" vol="100" len="12"/>
          <note key="48" pan="0" pos="132" vol="100" len="12"/>
          <note key="48" pan="0" pos="168" vol="100" len="12"/>
        </midiclip>
        <midiclip type="1" steps="16" pos="8640" name="" muted="0">
          <note key="48" pan="0" pos="24" vol="100" len="12"/>
          <note key="48" pan="0" pos="72" vol="100" len="12"/>
          <note key="48" pan="0" pos="120" vol="100" len="12"/>
          <note key="48" pan="0" pos="132" vol="100" len="12"/>
          <note key="48" pan="0" pos="168" vol="100" len="12"/>
        </midiclip>
        <midiclip type="1" steps="16" pos="8832" name="" muted="0">
          <note key="48" pan="0" pos="24" vol="100" len="12"/>
          <note key="48" pan="0" pos="72" vol="100" len="12"/>
          <note key="48" pan="0" pos="120" vol="100" len="12"/>
          <note key="48" pan="0" pos="132" vol="100" len="12"/>
          <note key="48" pan="0" pos="168" vol="100" len="12"/>
        </midiclip>
        <midiclip type="1" steps="16" pos="9024" name="" muted="0">
          <note key="48" pan="0" pos="24" vol="100" len="12"/>
          <note key="48" pan="0" pos="72" vol="100" len="12"/>
          <note key="48" pan="0" pos="120" vol="100" len="12"/>
          <note key="48" pan="0" pos="132" vol="100" len="12"/>
          <note key="48" pan="0" pos="168" vol="100" len="12"/>
        </midiclip>
        <midiclip type="1" steps="16" pos="9216" name="" muted="0">
          <note key="48" pan="0" pos="24" vol="100" len="12"/>
          <note key="48" pan="0" pos="72" vol="100" len="12"/>
          <note key="48" pan="0" pos="120" vol="100" len="12"/>
          <note key="48" pan="0" pos="132" vol="100" len="12"/>
          <note key="48" pan="0" pos="168" vol="100" len="12"/>
        </midiclip>
        <midiclip type="1" steps="16" pos="9408" name="" muted="0">
          <note key="48" pan="0" pos="24" vol="100" len="12"/>
          <note key="48" pan="0" pos="72" vol="100" len="12"/>
          <note key="48" pan="0" pos="120" vol="100" len="12"/>
          <note key="48" pan="0" pos="132" vol="100" len="12"/>
          <note key="48" pan="0" pos="168" vol="100" len="12"/>
        </midiclip>
        <midiclip type="1" steps="16" pos="9600" name="" muted="0">
          <note key="48" pan="0" pos="24" vol="100" len="12"/>
          <note key="48" pan="0" pos="72" vol="100" len="12"/>
          <note key="48" pan="0" pos="120" vol="100" len="12"/>
          <note key="48" pan="0" pos="132" vol="100" len="12"/>
          <note key="48" pan="0" pos="168" vol="100" len="12"/>
        </midiclip>
        <midiclip type="1" steps="16" pos="9792" name="" muted="0">
          <note key="48" pan="0" pos="24" vol="100" len="12"/>
          <note key="48" pan="0" pos="72" vol="100" len="12"/>
          <note key="48" pan="0" pos="120" vol="100" len="12"/>
          <note key="48" pan="0" pos="132" vol="100" len="12"/>
          <note key="48" pan="0" pos="168" vol="100" len="12"/>
        </midiclip>
        <midiclip type="1" steps="16" pos="9984" name="" muted="0">
          <note key="48" pan="0" pos="24" vol="100" len="12"/>
          <note key="48" pan="0" pos="72" vol="100" len="12"/>
          <note key="48" pan="0" pos="120" vol="100" len="12"/>
          <note key="48" pan="0" pos="132" vol="100" len="12"/>
          <note key="48" pan="0" pos="168" vol="100" len="12"/>
        </midiclip>
        <midiclip type="1" steps="16" pos="10176" name="" muted="0">
          <note key="48" pan="0" pos="24" vol="100" len="12"/>
          <note key="48" pan="0" pos="72" vol="100" len="12"/>
          <note key="48" pan="0" pos="120" vol="100" len="12"/>
          <note key="48" pan="0" pos="132" vol="100" len="12"/>
          <note key="48" pan="0" pos="168" vol="100" len="12"/>
        </midiclip>
        <midiclip type="1" steps="16" pos="10368" name="" muted="0">
          <note key="48" pan="0" pos="24" vol="100" len="12"/>
          <note key="48" pan="0" pos="72" vol="100" len="12"/>
          <note key="48" pan="0" pos="120" vol="100" len="12"/>
          <note key="48" pan="0" pos="132" vol="100" len="12"/>
          <note key="48" pan="0" pos="168" vol="100" len="12"/>
        </midiclip>
        <midiclip type="1" steps="16" pos="10560" name="" muted="0">
          <note key="48" pan="0" pos="24" vol="100" len="12"/>
          <note key="48" pan="0" pos="72" vol="100" len="12"/>
          <note key="48" pan="0" pos="120" vol="100" len="12"/>
          <note key="48" pan="0" pos="132" vol="100" len="12"/>
          <note key="48" pan="0" pos="168" vol="100" len="12"/>
        </midiclip>
        <midiclip type="1" steps="16" pos="10752" name="" muted="0">
          <note key="48" pan="0" pos="24" vol="100" len="12"/>
          <note key="48" pan="0" pos="72" vol="100" len="12"/>
          <note key="48" pan="0" pos="120" vol="100" len="12"/>
          <note key="48" pan="0" pos="132" vol="100" len="12"/>
          <note key="48" pan="0" pos="168" vol="100" len="12"/>
        </midiclip>
      </track>
      <track type="0" name="Chords>Sting" solo="0" mutedBeforeSolo="0" muted="0">
        <instrumenttrack usemasterpitch="1" mixch="3" firstkey="0" keymap="0" lastkey="127" pan="0" enablecc="0" pitch="0" pitchrange="1" vol="100" basenote="69" scale="0" enabled="0" range_import="1">
          <midicontrollers cc43="0" cc74="0" cc111="0" cc119="0" cc124="0" cc108="0" cc7="0" cc49="0" cc95="0" cc116="0" cc35="0" cc98="0" cc105="0" cc14="0" cc48="0" cc65="0" cc11="0" cc17="0" cc34="0" cc23="0" cc15="0" cc22="0" cc55="0" cc68="0" cc4="0" cc28="0" cc13="0" cc44="0" cc69="0" cc3="0" cc77="0" cc73="0" cc1="0" cc80="0" cc58="0" cc120="0" cc0="0" cc21="0" cc85="0" cc115="0" cc29="0" cc66="0" cc53="0" cc90="0" cc96="0" cc37="0" cc46="0" cc25="0" cc109="0" cc52="0" cc110="0" cc75="0" cc57="0" cc92="0" cc93="0" cc125="0" cc18="0" cc122="0" cc19="0" cc32="0" cc103="0" cc86="0" cc121="0" cc6="0" cc56="0" cc94="0" cc70="0" cc64="0" cc127="0" cc59="0" cc63="0" cc9="0" cc82="0" cc78="0" cc114="0" cc104="0" cc36="0" cc30="0" cc12="0" cc10="0" cc84="0" cc76="0" cc88="0" cc20="0" cc16="0" cc101="0" cc27="0" cc8="0" cc5="0" cc81="0" cc24="0" cc99="0" cc60="0" cc102="0" cc106="0" cc26="0" cc61="0" cc39="0" cc33="0" cc38="0" cc45="0" cc100="0" cc112="0" cc126="0" cc67="0" cc50="0" cc42="0" cc113="0" cc41="0" cc87="0" cc107="0" cc2="0" cc79="0" cc123="0" cc40="0" cc71="0" cc97="0" cc83="0" cc118="0" cc62="0" cc117="0" cc72="0" cc31="0" cc54="0" cc91="0" cc89="0" cc47="0" cc51="0"/>
          <instrument name="sf2player">
            <sf2player bank="0" reverbDamping="0" chorusNum="0" gain="0.7" chorusOn="0" chorusLevel="0" chorusSpeed="0.52" patch="5" reverbRoomSize="0.2" reverbLevel="0.9" reverbWidth="0.5" chorusDepth="0" src="usersoundfont:C64 Waveform Bank.sf2" reverbOn="0">
              <key/>
            </sf2player>
          </instrument>
          <eldata fcut="14000" ftype="0" fres="0.5" fwet="0">
            <elvol sustain="0.5" lspd_denominator="4" dec="0.5" pdel="0" rel="0.1" userwavefile="" latt="0" lspd_numerator="4" att="0" amt="0" ctlenvamt="0" lspd="0.1" lshp="0" x100="0" lpdel="0" hold="0.5" lspd_syncmode="0" lamt="0"/>
            <elcut sustain="0.5" lspd_denominator="4" dec="0.5" pdel="0" rel="0.1" userwavefile="" latt="0" lspd_numerator="4" att="0" amt="0" ctlenvamt="0" lspd="0.1" lshp="0" x100="0" lpdel="0" hold="0.5" lspd_syncmode="0" lamt="0"/>
            <elres sustain="0.5" lspd_denominator="4" dec="0.5" pdel="0" rel="0.1" userwavefile="" latt="0" lspd_numerator="4" att="0" amt="0" ctlenvamt="0" lspd="0.1" lshp="0" x100="0" lpdel="0" hold="0.5" lspd_syncmode="0" lamt="0"/>
          </eldata>
          <chordcreator chord-enabled="0" chord="0" chordrange="1"/>
          <arpeggiator arpmode="0" arpskip="0" arprange="1" arpmiss="0" arptime_numerator="3" arptime="357.143" arptime_denominator="4" arpdir="0" arprepeats="1" arp-enabled="0" arpcycle="0" arpgate="100" arp="0" arptime_syncmode="8"/>
          <midiport inputcontroller="0" fixedinputvelocity="-1" fixedoutputvelocity="-1" outputcontroller="0" outputprogram="1" writable="0" fixedoutputnote="-1" outputchannel="1" basevelocity="63" inputchannel="0" inports="" readable="1"/>
          <fxchain numofeffects="0" enabled="0"/>
        </instrumenttrack>
        <midiclip type="1" steps="16" pos="3072" name="" muted="0">
          <note key="72" pan="0" pos="0" vol="100" len="72"/>
          <note key="69" pan="0" pos="0" vol="100" len="72"/>
          <note key="67" pan="0" pos="0" vol="100" len="72"/>
          <note key="65" pan="0" pos="0" vol="100" len="72"/>
          <note key="31" pan="0" pos="0" vol="100" len="72"/>
          <note key="70" pan="0" pos="72" vol="100" len="120"/>
          <note key="67" pan="0" pos="72" vol="100" len="120"/>
          <note key="65" pan="0" pos="72" vol="100" len="120"/>
          <note key="63" pan="0" pos="72" vol="100" len="120"/>
          <note key="27" pan="0" pos="72" vol="100" len="120"/>
          <note key="69" pan="0" pos="192" vol="100" len="72"/>
          <note key="67" pan="0" pos="192" vol="100" len="72"/>
          <note key="65" pan="0" pos="192" vol="100" len="72"/>
          <note key="62" pan="0" pos="192" vol="100" len="72"/>
          <note key="29" pan="0" pos="192" vol="100" len="72"/>
          <note key="67" pan="0" pos="264" vol="100" len="72"/>
          <note key="65" pan="0" pos="264" vol="100" len="72"/>
          <note key="62" pan="0" pos="264" vol="100" len="72"/>
          <note key="60" pan="0" pos="264" vol="100" len="72"/>
          <note key="26" pan="0" pos="264" vol="100" len="120"/>
          <note key="66" pan="0" pos="336" vol="100" len="48"/>
          <note key="63" pan="0" pos="336" vol="100" len="48"/>
          <note key="60" pan="0" pos="336" vol="100" len="48"/>
          <note key="57" pan="0" pos="336" vol="100" len="48"/>
          <note key="62" pan="0" pos="384" vol="100" len="192"/>
          <note key="60" pan="0" pos="384" vol="100" len="192"/>
          <note key="58" pan="0" pos="384" vol="100" len="192"/>
          <note key="55" pan="0" pos="384" vol="100" len="192"/>
          <note key="31" pan="0" pos="384" vol="100" len="192"/>
          <note key="67" pan="0" pos="576" vol="100" len="192"/>
          <note key="63" pan="0" pos="576" vol="100" len="192"/>
          <note key="60" pan="0" pos="576" vol="100" len="192"/>
          <note key="58" pan="0" pos="576" vol="100" len="192"/>
          <note key="27" pan="0" pos="576" vol="100" len="192"/>
          <note key="69" pan="0" pos="768" vol="100" len="192"/>
          <note key="65" pan="0" pos="768" vol="100" len="192"/>
          <note key="62" pan="0" pos="768" vol="100" len="192"/>
          <note key="60" pan="0" pos="768" vol="100" len="192"/>
          <note key="29" pan="0" pos="768" vol="100" len="192"/>
          <note key="66" pan="0" pos="960" vol="100" len="192"/>
          <note key="62" pan="0" pos="960" vol="100" len="192"/>
          <note key="60" pan="0" pos="960" vol="100" len="192"/>
          <note key="57" pan="0" pos="960" vol="100" len="192"/>
          <note key="26" pan="0" pos="960" vol="100" len="192"/>
          <note key="70" pan="0" pos="1152" vol="100" len="192"/>
          <note key="67" pan="0" pos="1152" vol="100" len="192"/>
          <note key="65" pan="0" pos="1152" vol="100" len="192"/>
          <note key="62" pan="0" pos="1152" vol="100" len="192"/>
          <note key="31" pan="0" pos="1152" vol="100" len="192"/>
          <note key="70" pan="0" pos="1344" vol="100" len="192"/>
          <note key="67" pan="0" pos="1344" vol="100" len="192"/>
          <note key="65" pan="0" pos="1344" vol="100" len="192"/>
          <note key="63" pan="0" pos="1344" vol="100" len="192"/>
          <note key="27" pan="0" pos="1344" vol="100" len="192"/>
          <note key="72" pan="0" pos="1536" vol="100" len="192"/>
          <note key="69" pan="0" pos="1536" vol="100" len="192"/>
          <note key="66" pan="0" pos="1536" vol="100" len="192"/>
          <note key="62" pan="0" pos="1536" vol="100" len="192"/>
          <note key="30" pan="0" pos="1536" vol="100" len="192"/>
          <note key="74" pan="0" pos="1728" vol="100" len="192"/>
          <note key="72" pan="0" pos="1728" vol="100" len="192"/>
          <note key="69" pan="0" pos="1728" vol="100" len="192"/>
          <note key="66" pan="0" pos="1728" vol="100" len="192"/>
          <note key="26" pan="0" pos="1728" vol="100" len="192"/>
        </midiclip>
        <midiclip type="1" steps="16" pos="1536" name="" muted="0">
          <note key="72" pan="0" pos="0" vol="100" len="72"/>
          <note key="69" pan="0" pos="0" vol="100" len="72"/>
          <note key="67" pan="0" pos="0" vol="100" len="72"/>
          <note key="65" pan="0" pos="0" vol="100" len="72"/>
          <note key="31" pan="0" pos="0" vol="100" len="72"/>
          <note key="70" pan="0" pos="72" vol="100" len="120"/>
          <note key="67" pan="0" pos="72" vol="100" len="120"/>
          <note key="65" pan="0" pos="72" vol="100" len="120"/>
          <note key="63" pan="0" pos="72" vol="100" len="120"/>
          <note key="27" pan="0" pos="72" vol="100" len="120"/>
          <note key="72" pan="0" pos="192" vol="100" len="72"/>
          <note key="69" pan="0" pos="192" vol="100" len="72"/>
          <note key="67" pan="0" pos="192" vol="100" len="72"/>
          <note key="65" pan="0" pos="192" vol="100" len="72"/>
          <note key="29" pan="0" pos="192" vol="100" len="72"/>
          <note key="74" pan="0" pos="264" vol="100" len="120"/>
          <note key="70" pan="0" pos="264" vol="100" len="120"/>
          <note key="67" pan="0" pos="264" vol="100" len="120"/>
          <note key="65" pan="0" pos="264" vol="100" len="120"/>
          <note key="31" pan="0" pos="264" vol="100" len="120"/>
          <note key="77" pan="0" pos="384" vol="100" len="72"/>
          <note key="74" pan="0" pos="384" vol="100" len="72"/>
          <note key="72" pan="0" pos="384" vol="100" len="72"/>
          <note key="70" pan="0" pos="384" vol="100" len="72"/>
          <note key="34" pan="0" pos="384" vol="100" len="72"/>
          <note key="76" pan="0" pos="456" vol="100" len="120"/>
          <note key="72" pan="0" pos="456" vol="100" len="120"/>
          <note key="70" pan="0" pos="456" vol="100" len="120"/>
          <note key="67" pan="0" pos="456" vol="100" len="120"/>
          <note key="36" pan="0" pos="456" vol="100" len="312"/>
          <note key="72" pan="0" pos="576" vol="100" len="72"/>
          <note key="70" pan="0" pos="576" vol="100" len="72"/>
          <note key="67" pan="0" pos="576" vol="100" len="72"/>
          <note key="64" pan="0" pos="576" vol="100" len="72"/>
          <note key="70" pan="0" pos="648" vol="100" len="120"/>
          <note key="67" pan="0" pos="648" vol="100" len="120"/>
          <note key="64" pan="0" pos="648" vol="100" len="120"/>
          <note key="60" pan="0" pos="648" vol="100" len="120"/>
        </midiclip>
        <midiclip type="1" steps="16" pos="2304" name="" muted="0">
          <note key="69" pan="0" pos="0" vol="100" len="72"/>
          <note key="65" pan="0" pos="0" vol="100" len="72"/>
          <note key="62" pan="0" pos="0" vol="100" len="72"/>
          <note key="58" pan="0" pos="0" vol="100" len="72"/>
          <note key="26" pan="0" pos="0" vol="100" len="72"/>
          <note key="72" pan="0" pos="72" vol="100" len="120"/>
          <note key="70" pan="0" pos="72" vol="100" len="120"/>
          <note key="67" pan="0" pos="72" vol="100" len="120"/>
          <note key="63" pan="0" pos="72" vol="100" len="120"/>
          <note key="27" pan="0" pos="72" vol="100" len="120"/>
          <note key="74" pan="0" pos="192" vol="100" len="72"/>
          <note key="70" pan="0" pos="192" vol="100" len="72"/>
          <note key="67" pan="0" pos="192" vol="100" len="72"/>
          <note key="65" pan="0" pos="192" vol="100" len="72"/>
          <note key="29" pan="0" pos="192" vol="100" len="72"/>
          <note key="72" pan="0" pos="264" vol="100" len="72"/>
          <note key="69" pan="0" pos="264" vol="100" len="72"/>
          <note key="66" pan="0" pos="264" vol="100" len="72"/>
          <note key="62" pan="0" pos="264" vol="100" len="72"/>
          <note key="30" pan="0" pos="264" vol="100" len="72"/>
          <note key="70" pan="0" pos="336" vol="100" len="48"/>
          <note key="67" pan="0" pos="336" vol="100" len="48"/>
          <note key="64" pan="0" pos="336" vol="100" len="48"/>
          <note key="62" pan="0" pos="336" vol="100" len="48"/>
          <note key="33" pan="0" pos="336" vol="100" len="48"/>
          <note key="65" pan="0" pos="384" vol="100" len="120"/>
          <note key="62" pan="0" pos="384" vol="100" len="120"/>
          <note key="58" pan="0" pos="384" vol="100" len="120"/>
          <note key="55" pan="0" pos="384" vol="100" len="120"/>
          <note key="31" pan="0" pos="384" vol="100" len="384"/>
          <note key="65" pan="0" pos="504" vol="100" len="72"/>
          <note key="62" pan="0" pos="504" vol="100" len="72"/>
          <note key="58" pan="0" pos="504" vol="100" len="72"/>
          <note key="55" pan="0" pos="504" vol="100" len="72"/>
          <note key="62" pan="0" pos="576" vol="100" len="72"/>
          <note key="58" pan="0" pos="576" vol="100" len="72"/>
          <note key="55" pan="0" pos="576" vol="100" len="72"/>
          <note key="53" pan="0" pos="576" vol="100" len="72"/>
          <note key="65" pan="0" pos="648" vol="100" len="120"/>
          <note key="62" pan="0" pos="648" vol="100" len="120"/>
          <note key="58" pan="0" pos="648" vol="100" len="120"/>
          <note key="55" pan="0" pos="648" vol="100" len="120"/>
        </midiclip>
        <midiclip type="1" steps="16" pos="6912" name="" muted="0">
          <note key="62" pan="0" pos="144" vol="100" len="24"/>
          <note key="64" pan="0" pos="168" vol="100" len="24"/>
          <note key="65" pan="0" pos="192" vol="100" len="48"/>
          <note key="62" pan="0" pos="192" vol="100" len="48"/>
          <note key="57" pan="0" pos="192" vol="100" len="48"/>
          <note key="69" pan="0" pos="240" vol="100" len="24"/>
          <note key="67" pan="0" pos="264" vol="100" len="48"/>
          <note key="62" pan="0" pos="264" vol="100" len="48"/>
          <note key="59" pan="0" pos="264" vol="100" len="48"/>
          <note key="62" pan="0" pos="312" vol="100" len="48"/>
          <note key="59" pan="0" pos="360" vol="100" len="48"/>
          <note key="55" pan="0" pos="360" vol="100" len="48"/>
          <note key="50" pan="0" pos="360" vol="100" len="48"/>
          <note key="55" pan="0" pos="408" vol="100" len="24"/>
          <note key="67" pan="0" pos="432" vol="100" len="24"/>
          <note key="65" pan="0" pos="456" vol="100" len="72"/>
          <note key="62" pan="0" pos="456" vol="100" len="72"/>
          <note key="57" pan="0" pos="456" vol="100" len="72"/>
          <note key="62" pan="0" pos="528" vol="100" len="24"/>
          <note key="64" pan="0" pos="552" vol="100" len="24"/>
          <note key="65" pan="0" pos="576" vol="100" len="48"/>
          <note key="62" pan="0" pos="576" vol="100" len="48"/>
          <note key="60" pan="0" pos="576" vol="100" len="48"/>
          <note key="57" pan="0" pos="576" vol="100" len="48"/>
          <note key="69" pan="0" pos="624" vol="100" len="24"/>
          <note key="67" pan="0" pos="648" vol="100" len="48"/>
          <note key="62" pan="0" pos="648" vol="100" len="48"/>
          <note key="59" pan="0" pos="648" vol="100" len="48"/>
          <note key="62" pan="0" pos="696" vol="100" len="48"/>
          <note key="71" pan="0" pos="744" vol="100" len="48"/>
          <note key="67" pan="0" pos="744" vol="100" len="48"/>
          <note key="64" pan="0" pos="744" vol="100" len="48"/>
          <note key="62" pan="0" pos="744" vol="100" len="48"/>
          <note key="72" pan="0" pos="792" vol="100" len="24"/>
          <note key="71" pan="0" pos="816" vol="100" len="24"/>
          <note key="69" pan="0" pos="840" vol="100" len="72"/>
          <note key="65" pan="0" pos="840" vol="100" len="72"/>
          <note key="62" pan="0" pos="840" vol="100" len="72"/>
          <note key="69" pan="0" pos="912" vol="100" len="24"/>
          <note key="65" pan="0" pos="912" vol="100" len="24"/>
          <note key="62" pan="0" pos="912" vol="100" len="24"/>
          <note key="67" pan="0" pos="936" vol="100" len="24"/>
          <note key="64" pan="0" pos="936" vol="100" len="24"/>
          <note key="60" pan="0" pos="936" vol="100" len="24"/>
          <note key="65" pan="0" pos="960" vol="100" len="48"/>
          <note key="62" pan="0" pos="960" vol="100" len="48"/>
          <note key="57" pan="0" pos="960" vol="100" len="48"/>
          <note key="69" pan="0" pos="1008" vol="100" len="24"/>
          <note key="67" pan="0" pos="1032" vol="100" len="48"/>
          <note key="62" pan="0" pos="1032" vol="100" len="48"/>
          <note key="59" pan="0" pos="1032" vol="100" len="48"/>
          <note key="62" pan="0" pos="1080" vol="100" len="48"/>
          <note key="65" pan="0" pos="1128" vol="100" len="48"/>
          <note key="60" pan="0" pos="1128" vol="100" len="48"/>
          <note key="57" pan="0" pos="1128" vol="100" len="48"/>
          <note key="62" pan="0" pos="1176" vol="100" len="24"/>
          <note key="60" pan="0" pos="1200" vol="100" len="24"/>
          <note key="62" pan="0" pos="1224" vol="100" len="48"/>
          <note key="59" pan="0" pos="1224" vol="100" len="48"/>
          <note key="55" pan="0" pos="1224" vol="100" len="48"/>
          <note key="61" pan="0" pos="1296" vol="100" len="48"/>
          <note key="58" pan="0" pos="1296" vol="100" len="48"/>
          <note key="57" pan="0" pos="1296" vol="100" len="48"/>
          <note key="55" pan="0" pos="1296" vol="100" len="48"/>
          <note key="62" pan="0" pos="1344" vol="100" len="48"/>
          <note key="60" pan="0" pos="1344" vol="100" len="48"/>
          <note key="57" pan="0" pos="1344" vol="100" len="48"/>
          <note key="53" pan="0" pos="1344" vol="100" len="48"/>
          <note key="65" pan="0" pos="1392" vol="100" len="24"/>
          <note key="62" pan="0" pos="1416" vol="100" len="48"/>
          <note key="59" pan="0" pos="1416" vol="100" len="48"/>
          <note key="55" pan="0" pos="1416" vol="100" len="48"/>
          <note key="69" pan="0" pos="1464" vol="100" len="48"/>
          <note key="67" pan="0" pos="1512" vol="100" len="48"/>
          <note key="64" pan="0" pos="1512" vol="100" len="48"/>
          <note key="62" pan="0" pos="1512" vol="100" len="48"/>
          <note key="59" pan="0" pos="1512" vol="100" len="48"/>
          <note key="69" pan="0" pos="1560" vol="100" len="24"/>
          <note key="67" pan="0" pos="1584" vol="100" len="24"/>
          <note key="65" pan="0" pos="1608" vol="100" len="120"/>
          <note key="62" pan="0" pos="1608" vol="100" len="120"/>
          <note key="57" pan="0" pos="1608" vol="100" len="120"/>
          <note key="65" pan="0" pos="1728" vol="100" len="72"/>
          <note key="60" pan="0" pos="1728" vol="100" len="72"/>
          <note key="56" pan="0" pos="1728" vol="100" len="72"/>
          <note key="68" pan="0" pos="1800" vol="100" len="120"/>
          <note key="65" pan="0" pos="1800" vol="100" len="120"/>
          <note key="61" pan="0" pos="1800" vol="100" len="120"/>
          <note key="67" pan="0" pos="1920" vol="100" len="72"/>
          <note key="63" pan="0" pos="1920" vol="100" len="72"/>
          <note key="60" pan="0" pos="1920" vol="100" len="72"/>
          <note key="64" pan="0" pos="1992" vol="100" len="72"/>
          <note key="60" pan="0" pos="1992" vol="100" len="72"/>
          <note key="55" pan="0" pos="1992" vol="100" len="72"/>
          <note key="58" pan="0" pos="2064" vol="100" len="24"/>
          <note key="57" pan="0" pos="2088" vol="100" len="24"/>
          <note key="68" pan="0" pos="2112" vol="100" len="24"/>
          <note key="65" pan="0" pos="2112" vol="100" len="24"/>
          <note key="60" pan="0" pos="2112" vol="100" len="24"/>
          <note key="56" pan="0" pos="2112" vol="100" len="24"/>
          <note key="53" pan="0" pos="2136" vol="100" len="24"/>
          <note key="56" pan="0" pos="2160" vol="100" len="24"/>
          <note key="74" pan="0" pos="2184" vol="100" len="48"/>
          <note key="70" pan="0" pos="2184" vol="100" len="48"/>
          <note key="65" pan="0" pos="2184" vol="100" len="48"/>
          <note key="62" pan="0" pos="2184" vol="100" len="48"/>
          <note key="58" pan="0" pos="2232" vol="100" len="72"/>
          <note key="77" pan="0" pos="2304" vol="100" len="24"/>
          <note key="74" pan="0" pos="2304" vol="100" len="24"/>
          <note key="70" pan="0" pos="2304" vol="100" len="24"/>
          <note key="65" pan="0" pos="2304" vol="100" len="24"/>
          <note key="63" pan="0" pos="2328" vol="100" len="24"/>
          <note key="62" pan="0" pos="2352" vol="100" len="24"/>
          <note key="72" pan="0" pos="2376" vol="100" len="48"/>
          <note key="68" pan="0" pos="2376" vol="100" len="48"/>
          <note key="65" pan="0" pos="2376" vol="100" len="48"/>
          <note key="60" pan="0" pos="2376" vol="100" len="48"/>
          <note key="68" pan="0" pos="2424" vol="100" len="24"/>
          <note key="65" pan="0" pos="2424" vol="100" len="24"/>
          <note key="60" pan="0" pos="2424" vol="100" len="24"/>
          <note key="65" pan="0" pos="2448" vol="100" len="12"/>
          <note key="60" pan="0" pos="2448" vol="100" len="12"/>
          <note key="56" pan="0" pos="2448" vol="100" len="12"/>
          <note key="60" pan="0" pos="2472" vol="100" len="24"/>
          <note key="56" pan="0" pos="2472" vol="100" len="24"/>
          <note key="53" pan="0" pos="2472" vol="100" len="24"/>
          <note key="65" pan="0" pos="2496" vol="100" len="72"/>
          <note key="60" pan="0" pos="2496" vol="100" len="72"/>
          <note key="56" pan="0" pos="2496" vol="100" len="72"/>
          <note key="68" pan="0" pos="2568" vol="100" len="120"/>
          <note key="65" pan="0" pos="2568" vol="100" len="120"/>
          <note key="61" pan="0" pos="2568" vol="100" len="120"/>
          <note key="70" pan="0" pos="2688" vol="100" len="72"/>
          <note key="67" pan="0" pos="2688" vol="100" len="72"/>
          <note key="63" pan="0" pos="2688" vol="100" len="72"/>
          <note key="72" pan="0" pos="2760" vol="100" len="72"/>
          <note key="68" pan="0" pos="2760" vol="100" len="72"/>
          <note key="64" pan="0" pos="2760" vol="100" len="72"/>
          <note key="60" pan="0" pos="2760" vol="100" len="72"/>
          <note key="70" pan="0" pos="2832" vol="100" len="24"/>
          <note key="67" pan="0" pos="2832" vol="100" len="24"/>
          <note key="65" pan="0" pos="2832" vol="100" len="24"/>
          <note key="62" pan="0" pos="2832" vol="100" len="24"/>
          <note key="66" pan="0" pos="2856" vol="100" len="24"/>
          <note key="72" pan="0" pos="2880" vol="100" len="48"/>
          <note key="68" pan="0" pos="2880" vol="100" len="48"/>
          <note key="65" pan="0" pos="2880" vol="100" len="48"/>
          <note key="63" pan="0" pos="2880" vol="100" len="48"/>
          <note key="72" pan="0" pos="2928" vol="100" len="12"/>
          <note key="68" pan="0" pos="2928" vol="100" len="12"/>
          <note key="65" pan="0" pos="2928" vol="100" len="12"/>
          <note key="70" pan="0" pos="2952" vol="100" len="48"/>
          <note key="67" pan="0" pos="2952" vol="100" len="48"/>
          <note key="65" pan="0" pos="2952" vol="100" len="48"/>
          <note key="62" pan="0" pos="2952" vol="100" len="48"/>
          <note key="74" pan="0" pos="3000" vol="100" len="72"/>
          <note key="70" pan="0" pos="3000" vol="100" len="72"/>
          <note key="68" pan="0" pos="3000" vol="100" len="72"/>
          <note key="65" pan="0" pos="3000" vol="100" len="72"/>
          <note key="74" pan="0" pos="3072" vol="100" len="24"/>
          <note key="70" pan="0" pos="3072" vol="100" len="24"/>
          <note key="68" pan="0" pos="3072" vol="100" len="24"/>
          <note key="65" pan="0" pos="3072" vol="100" len="24"/>
          <note key="74" pan="0" pos="3096" vol="100" len="12"/>
          <note key="70" pan="0" pos="3096" vol="100" len="12"/>
          <note key="74" pan="0" pos="3108" vol="100" len="12"/>
          <note key="70" pan="0" pos="3108" vol="100" len="12"/>
          <note key="74" pan="0" pos="3120" vol="100" len="12"/>
          <note key="70" pan="0" pos="3120" vol="100" len="12"/>
          <note key="72" pan="0" pos="3144" vol="100" len="24"/>
          <note key="68" pan="0" pos="3144" vol="100" len="24"/>
          <note key="65" pan="0" pos="3144" vol="100" len="24"/>
          <note key="72" pan="0" pos="3168" vol="100" len="12"/>
          <note key="68" pan="0" pos="3168" vol="100" len="12"/>
          <note key="72" pan="0" pos="3180" vol="100" len="12"/>
          <note key="68" pan="0" pos="3180" vol="100" len="12"/>
          <note key="72" pan="0" pos="3192" vol="100" len="24"/>
          <note key="68" pan="0" pos="3192" vol="100" len="24"/>
          <note key="68" pan="0" pos="3216" vol="100" len="24"/>
          <note key="65" pan="0" pos="3216" vol="100" len="24"/>
          <note key="60" pan="0" pos="3216" vol="100" len="24"/>
          <note key="68" pan="0" pos="3240" vol="100" len="12"/>
          <note key="65" pan="0" pos="3240" vol="100" len="12"/>
          <note key="60" pan="0" pos="3240" vol="100" len="12"/>
          <note key="68" pan="0" pos="3252" vol="100" len="12"/>
          <note key="65" pan="0" pos="3252" vol="100" len="12"/>
          <note key="60" pan="0" pos="3252" vol="100" len="12"/>
          <note key="77" pan="0" pos="3264" vol="100" len="384"/>
          <note key="72" pan="0" pos="3264" vol="100" len="384"/>
          <note key="68" pan="0" pos="3264" vol="100" len="384"/>
          <note key="73" pan="0" pos="3648" vol="100" len="192"/>
          <note key="70" pan="0" pos="3648" vol="100" len="192"/>
          <note key="65" pan="0" pos="3648" vol="100" len="192"/>
          <note key="68" pan="0" pos="3840" vol="100" len="96"/>
          <note key="70" pan="0" pos="3936" vol="100" len="48"/>
          <note key="63" pan="0" pos="3936" vol="100" len="48"/>
          <note key="67" pan="0" pos="3984" vol="100" len="48"/>
          <note key="72" pan="0" pos="4032" vol="100" len="288"/>
          <note key="67" pan="0" pos="4032" vol="100" len="288"/>
          <note key="64" pan="0" pos="4032" vol="100" len="288"/>
          <note key="74" pan="0" pos="4320" vol="100" len="48"/>
          <note key="65" pan="0" pos="4320" vol="100" len="48"/>
          <note key="72" pan="0" pos="4368" vol="100" len="48"/>
          <note key="64" pan="0" pos="4368" vol="100" len="48"/>
          <note key="69" pan="0" pos="4416" vol="100" len="384"/>
          <note key="65" pan="0" pos="4416" vol="100" len="384"/>
          <note key="60" pan="0" pos="4416" vol="100" len="384"/>
        </midiclip>
      </track>
      <track type="0" name="Chords>Pad" solo="0" mutedBeforeSolo="0" muted="0">
        <instrumenttrack usemasterpitch="1" mixch="3" firstkey="0" keymap="0" lastkey="127" pan="0" enablecc="0" pitch="0" pitchrange="1" vol="100" basenote="69" scale="0" enabled="0" range_import="1">
          <midicontrollers cc43="0" cc74="0" cc111="0" cc119="0" cc124="0" cc108="0" cc7="0" cc49="0" cc95="0" cc116="0" cc35="0" cc98="0" cc105="0" cc14="0" cc48="0" cc65="0" cc11="0" cc17="0" cc34="0" cc23="0" cc15="0" cc22="0" cc55="0" cc68="0" cc4="0" cc28="0" cc13="0" cc44="0" cc69="0" cc3="0" cc77="0" cc73="0" cc1="0" cc80="0" cc58="0" cc120="0" cc0="0" cc21="0" cc85="0" cc115="0" cc29="0" cc66="0" cc53="0" cc90="0" cc96="0" cc37="0" cc46="0" cc25="0" cc109="0" cc52="0" cc110="0" cc75="0" cc57="0" cc92="0" cc93="0" cc125="0" cc18="0" cc122="0" cc19="0" cc32="0" cc103="0" cc86="0" cc121="0" cc6="0" cc56="0" cc94="0" cc70="0" cc64="0" cc127="0" cc59="0" cc63="0" cc9="0" cc82="0" cc78="0" cc114="0" cc104="0" cc36="0" cc30="0" cc12="0" cc10="0" cc84="0" cc76="0" cc88="0" cc20="0" cc16="0" cc101="0" cc27="0" cc8="0" cc5="0" cc81="0" cc24="0" cc99="0" cc60="0" cc102="0" cc106="0" cc26="0" cc61="0" cc39="0" cc33="0" cc38="0" cc45="0" cc100="0" cc112="0" cc126="0" cc67="0" cc50="0" cc42="0" cc113="0" cc41="0" cc87="0" cc107="0" cc2="0" cc79="0" cc123="0" cc40="0" cc71="0" cc97="0" cc83="0" cc118="0" cc62="0" cc117="0" cc72="0" cc31="0" cc54="0" cc91="0" cc89="0" cc47="0" cc51="0"/>
          <instrument name="sf2player">
            <sf2player bank="0" reverbDamping="0" chorusNum="3" gain="0.14" chorusOn="0" chorusLevel="2" chorusSpeed="0.3" patch="4" reverbRoomSize="0.2" reverbLevel="0.9" reverbWidth="0.5" chorusDepth="8" src="usersoundfont:C64 Waveform Bank.sf2" reverbOn="0">
              <key/>
            </sf2player>
          </instrument>
          <eldata fcut="14000" ftype="0" fres="0.5" fwet="0">
            <elvol sustain="0.5" lspd_denominator="4" dec="0.5" pdel="0" rel="0.1" userwavefile="" latt="0" lspd_numerator="4" att="0" amt="0" ctlenvamt="0" lspd="0.1" lshp="0" x100="0" lpdel="0" hold="0.5" lspd_syncmode="0" lamt="0"/>
            <elcut sustain="0.5" lspd_denominator="4" dec="0.5" pdel="0" rel="0.1" userwavefile="" latt="0" lspd_numerator="4" att="0" amt="0" ctlenvamt="0" lspd="0.1" lshp="0" x100="0" lpdel="0" hold="0.5" lspd_syncmode="0" lamt="0"/>
            <elres sustain="0.5" lspd_denominator="4" dec="0.5" pdel="0" rel="0.1" userwavefile="" latt="0" lspd_numerator="4" att="0" amt="0" ctlenvamt="0" lspd="0.1" lshp="0" x100="0" lpdel="0" hold="0.5" lspd_syncmode="0" lamt="0"/>
          </eldata>
          <chordcreator chord-enabled="0" chord="0" chordrange="1"/>
          <arpeggiator arpmode="0" arpskip="0" arprange="1" arpmiss="0" arptime_numerator="4" arptime="200" arptime_denominator="4" arpdir="0" arprepeats="1" arp-enabled="0" arpcycle="0" arpgate="100" arp="0" arptime_syncmode="0"/>
          <midiport inputcontroller="0" fixedinputvelocity="-1" fixedoutputvelocity="-1" outputcontroller="0" outputprogram="1" writable="0" fixedoutputnote="-1" outputchannel="1" basevelocity="63" inputchannel="0" inports="" readable="1"/>
          <fxchain numofeffects="0" enabled="0"/>
        </instrumenttrack>
        <midiclip type="1" steps="16" pos="3072" name="" muted="0">
          <note key="72" pan="0" pos="0" vol="100" len="72"/>
          <note key="69" pan="0" pos="0" vol="100" len="72"/>
          <note key="67" pan="0" pos="0" vol="100" len="72"/>
          <note key="65" pan="0" pos="0" vol="100" len="72"/>
          <note key="31" pan="0" pos="0" vol="100" len="72"/>
          <note key="70" pan="0" pos="72" vol="100" len="120"/>
          <note key="67" pan="0" pos="72" vol="100" len="120"/>
          <note key="65" pan="0" pos="72" vol="100" len="120"/>
          <note key="63" pan="0" pos="72" vol="100" len="120"/>
          <note key="27" pan="0" pos="72" vol="100" len="120"/>
          <note key="69" pan="0" pos="192" vol="100" len="72"/>
          <note key="67" pan="0" pos="192" vol="100" len="72"/>
          <note key="65" pan="0" pos="192" vol="100" len="72"/>
          <note key="62" pan="0" pos="192" vol="100" len="72"/>
          <note key="29" pan="0" pos="192" vol="100" len="72"/>
          <note key="67" pan="0" pos="264" vol="100" len="72"/>
          <note key="65" pan="0" pos="264" vol="100" len="72"/>
          <note key="62" pan="0" pos="264" vol="100" len="72"/>
          <note key="60" pan="0" pos="264" vol="100" len="72"/>
          <note key="26" pan="0" pos="264" vol="100" len="120"/>
          <note key="66" pan="0" pos="336" vol="100" len="48"/>
          <note key="63" pan="0" pos="336" vol="100" len="48"/>
          <note key="60" pan="0" pos="336" vol="100" len="48"/>
          <note key="57" pan="0" pos="336" vol="100" len="48"/>
          <note key="62" pan="0" pos="384" vol="100" len="192"/>
          <note key="60" pan="0" pos="384" vol="100" len="192"/>
          <note key="58" pan="0" pos="384" vol="100" len="192"/>
          <note key="55" pan="0" pos="384" vol="100" len="192"/>
          <note key="31" pan="0" pos="384" vol="100" len="192"/>
          <note key="67" pan="0" pos="576" vol="100" len="192"/>
          <note key="63" pan="0" pos="576" vol="100" len="192"/>
          <note key="60" pan="0" pos="576" vol="100" len="192"/>
          <note key="58" pan="0" pos="576" vol="100" len="192"/>
          <note key="27" pan="0" pos="576" vol="100" len="192"/>
          <note key="69" pan="0" pos="768" vol="100" len="192"/>
          <note key="65" pan="0" pos="768" vol="100" len="192"/>
          <note key="62" pan="0" pos="768" vol="100" len="192"/>
          <note key="60" pan="0" pos="768" vol="100" len="192"/>
          <note key="29" pan="0" pos="768" vol="100" len="192"/>
          <note key="66" pan="0" pos="960" vol="100" len="192"/>
          <note key="62" pan="0" pos="960" vol="100" len="192"/>
          <note key="60" pan="0" pos="960" vol="100" len="192"/>
          <note key="57" pan="0" pos="960" vol="100" len="192"/>
          <note key="26" pan="0" pos="960" vol="100" len="192"/>
          <note key="70" pan="0" pos="1152" vol="100" len="192"/>
          <note key="67" pan="0" pos="1152" vol="100" len="192"/>
          <note key="65" pan="0" pos="1152" vol="100" len="192"/>
          <note key="62" pan="0" pos="1152" vol="100" len="192"/>
          <note key="31" pan="0" pos="1152" vol="100" len="192"/>
          <note key="70" pan="0" pos="1344" vol="100" len="192"/>
          <note key="67" pan="0" pos="1344" vol="100" len="192"/>
          <note key="65" pan="0" pos="1344" vol="100" len="192"/>
          <note key="63" pan="0" pos="1344" vol="100" len="192"/>
          <note key="27" pan="0" pos="1344" vol="100" len="192"/>
          <note key="72" pan="0" pos="1536" vol="100" len="192"/>
          <note key="69" pan="0" pos="1536" vol="100" len="192"/>
          <note key="66" pan="0" pos="1536" vol="100" len="192"/>
          <note key="62" pan="0" pos="1536" vol="100" len="192"/>
          <note key="30" pan="0" pos="1536" vol="100" len="192"/>
          <note key="74" pan="0" pos="1728" vol="100" len="192"/>
          <note key="72" pan="0" pos="1728" vol="100" len="192"/>
          <note key="69" pan="0" pos="1728" vol="100" len="192"/>
          <note key="66" pan="0" pos="1728" vol="100" len="192"/>
          <note key="26" pan="0" pos="1728" vol="100" len="192"/>
        </midiclip>
        <midiclip type="1" steps="16" pos="1536" name="" muted="0">
          <note key="72" pan="0" pos="0" vol="100" len="72"/>
          <note key="69" pan="0" pos="0" vol="100" len="72"/>
          <note key="67" pan="0" pos="0" vol="100" len="72"/>
          <note key="65" pan="0" pos="0" vol="100" len="72"/>
          <note key="31" pan="0" pos="0" vol="100" len="72"/>
          <note key="70" pan="0" pos="72" vol="100" len="120"/>
          <note key="67" pan="0" pos="72" vol="100" len="120"/>
          <note key="65" pan="0" pos="72" vol="100" len="120"/>
          <note key="63" pan="0" pos="72" vol="100" len="120"/>
          <note key="27" pan="0" pos="72" vol="100" len="120"/>
          <note key="72" pan="0" pos="192" vol="100" len="72"/>
          <note key="69" pan="0" pos="192" vol="100" len="72"/>
          <note key="67" pan="0" pos="192" vol="100" len="72"/>
          <note key="65" pan="0" pos="192" vol="100" len="72"/>
          <note key="29" pan="0" pos="192" vol="100" len="72"/>
          <note key="74" pan="0" pos="264" vol="100" len="120"/>
          <note key="70" pan="0" pos="264" vol="100" len="120"/>
          <note key="67" pan="0" pos="264" vol="100" len="120"/>
          <note key="65" pan="0" pos="264" vol="100" len="120"/>
          <note key="31" pan="0" pos="264" vol="100" len="120"/>
          <note key="77" pan="0" pos="384" vol="100" len="72"/>
          <note key="74" pan="0" pos="384" vol="100" len="72"/>
          <note key="72" pan="0" pos="384" vol="100" len="72"/>
          <note key="70" pan="0" pos="384" vol="100" len="72"/>
          <note key="34" pan="0" pos="384" vol="100" len="72"/>
          <note key="76" pan="0" pos="456" vol="100" len="120"/>
          <note key="72" pan="0" pos="456" vol="100" len="120"/>
          <note key="70" pan="0" pos="456" vol="100" len="120"/>
          <note key="67" pan="0" pos="456" vol="100" len="120"/>
          <note key="36" pan="0" pos="456" vol="100" len="312"/>
          <note key="72" pan="0" pos="576" vol="100" len="72"/>
          <note key="70" pan="0" pos="576" vol="100" len="72"/>
          <note key="67" pan="0" pos="576" vol="100" len="72"/>
          <note key="64" pan="0" pos="576" vol="100" len="72"/>
          <note key="70" pan="0" pos="648" vol="100" len="120"/>
          <note key="67" pan="0" pos="648" vol="100" len="120"/>
          <note key="64" pan="0" pos="648" vol="100" len="120"/>
          <note key="60" pan="0" pos="648" vol="100" len="120"/>
        </midiclip>
        <midiclip type="1" steps="16" pos="2304" name="" muted="0">
          <note key="69" pan="0" pos="0" vol="100" len="72"/>
          <note key="65" pan="0" pos="0" vol="100" len="72"/>
          <note key="62" pan="0" pos="0" vol="100" len="72"/>
          <note key="58" pan="0" pos="0" vol="100" len="72"/>
          <note key="26" pan="0" pos="0" vol="100" len="72"/>
          <note key="72" pan="0" pos="72" vol="100" len="120"/>
          <note key="70" pan="0" pos="72" vol="100" len="120"/>
          <note key="67" pan="0" pos="72" vol="100" len="120"/>
          <note key="63" pan="0" pos="72" vol="100" len="120"/>
          <note key="27" pan="0" pos="72" vol="100" len="120"/>
          <note key="74" pan="0" pos="192" vol="100" len="72"/>
          <note key="70" pan="0" pos="192" vol="100" len="72"/>
          <note key="67" pan="0" pos="192" vol="100" len="72"/>
          <note key="65" pan="0" pos="192" vol="100" len="72"/>
          <note key="29" pan="0" pos="192" vol="100" len="72"/>
          <note key="72" pan="0" pos="264" vol="100" len="72"/>
          <note key="69" pan="0" pos="264" vol="100" len="72"/>
          <note key="66" pan="0" pos="264" vol="100" len="72"/>
          <note key="62" pan="0" pos="264" vol="100" len="72"/>
          <note key="30" pan="0" pos="264" vol="100" len="72"/>
          <note key="70" pan="0" pos="336" vol="100" len="48"/>
          <note key="67" pan="0" pos="336" vol="100" len="48"/>
          <note key="64" pan="0" pos="336" vol="100" len="48"/>
          <note key="62" pan="0" pos="336" vol="100" len="48"/>
          <note key="33" pan="0" pos="336" vol="100" len="48"/>
          <note key="65" pan="0" pos="384" vol="100" len="120"/>
          <note key="62" pan="0" pos="384" vol="100" len="120"/>
          <note key="58" pan="0" pos="384" vol="100" len="120"/>
          <note key="55" pan="0" pos="384" vol="100" len="120"/>
          <note key="31" pan="0" pos="384" vol="100" len="384"/>
          <note key="65" pan="0" pos="504" vol="100" len="72"/>
          <note key="62" pan="0" pos="504" vol="100" len="72"/>
          <note key="58" pan="0" pos="504" vol="100" len="72"/>
          <note key="55" pan="0" pos="504" vol="100" len="72"/>
          <note key="62" pan="0" pos="576" vol="100" len="72"/>
          <note key="58" pan="0" pos="576" vol="100" len="72"/>
          <note key="55" pan="0" pos="576" vol="100" len="72"/>
          <note key="53" pan="0" pos="576" vol="100" len="72"/>
          <note key="65" pan="0" pos="648" vol="100" len="120"/>
          <note key="62" pan="0" pos="648" vol="100" len="120"/>
          <note key="58" pan="0" pos="648" vol="100" len="120"/>
          <note key="55" pan="0" pos="648" vol="100" len="120"/>
        </midiclip>
        <midiclip type="1" steps="16" pos="6912" name="" muted="0">
          <note key="62" pan="0" pos="144" vol="100" len="24"/>
          <note key="64" pan="0" pos="168" vol="100" len="24"/>
          <note key="65" pan="0" pos="192" vol="100" len="48"/>
          <note key="62" pan="0" pos="192" vol="100" len="48"/>
          <note key="57" pan="0" pos="192" vol="100" len="48"/>
          <note key="69" pan="0" pos="240" vol="100" len="24"/>
          <note key="67" pan="0" pos="264" vol="100" len="48"/>
          <note key="62" pan="0" pos="264" vol="100" len="48"/>
          <note key="59" pan="0" pos="264" vol="100" len="48"/>
          <note key="62" pan="0" pos="312" vol="100" len="48"/>
          <note key="59" pan="0" pos="360" vol="100" len="48"/>
          <note key="55" pan="0" pos="360" vol="100" len="48"/>
          <note key="50" pan="0" pos="360" vol="100" len="48"/>
          <note key="55" pan="0" pos="408" vol="100" len="24"/>
          <note key="67" pan="0" pos="432" vol="100" len="24"/>
          <note key="65" pan="0" pos="456" vol="100" len="72"/>
          <note key="62" pan="0" pos="456" vol="100" len="72"/>
          <note key="57" pan="0" pos="456" vol="100" len="72"/>
          <note key="62" pan="0" pos="528" vol="100" len="24"/>
          <note key="64" pan="0" pos="552" vol="100" len="24"/>
          <note key="65" pan="0" pos="576" vol="100" len="48"/>
          <note key="62" pan="0" pos="576" vol="100" len="48"/>
          <note key="60" pan="0" pos="576" vol="100" len="48"/>
          <note key="57" pan="0" pos="576" vol="100" len="48"/>
          <note key="69" pan="0" pos="624" vol="100" len="24"/>
          <note key="67" pan="0" pos="648" vol="100" len="48"/>
          <note key="62" pan="0" pos="648" vol="100" len="48"/>
          <note key="59" pan="0" pos="648" vol="100" len="48"/>
          <note key="62" pan="0" pos="696" vol="100" len="48"/>
          <note key="71" pan="0" pos="744" vol="100" len="48"/>
          <note key="67" pan="0" pos="744" vol="100" len="48"/>
          <note key="64" pan="0" pos="744" vol="100" len="48"/>
          <note key="62" pan="0" pos="744" vol="100" len="48"/>
          <note key="72" pan="0" pos="792" vol="100" len="24"/>
          <note key="71" pan="0" pos="816" vol="100" len="24"/>
          <note key="69" pan="0" pos="840" vol="100" len="72"/>
          <note key="65" pan="0" pos="840" vol="100" len="72"/>
          <note key="62" pan="0" pos="840" vol="100" len="72"/>
          <note key="69" pan="0" pos="912" vol="100" len="24"/>
          <note key="65" pan="0" pos="912" vol="100" len="24"/>
          <note key="62" pan="0" pos="912" vol="100" len="24"/>
          <note key="67" pan="0" pos="936" vol="100" len="24"/>
          <note key="64" pan="0" pos="936" vol="100" len="24"/>
          <note key="60" pan="0" pos="936" vol="100" len="24"/>
          <note key="65" pan="0" pos="960" vol="100" len="48"/>
          <note key="62" pan="0" pos="960" vol="100" len="48"/>
          <note key="57" pan="0" pos="960" vol="100" len="48"/>
          <note key="69" pan="0" pos="1008" vol="100" len="24"/>
          <note key="67" pan="0" pos="1032" vol="100" len="48"/>
          <note key="62" pan="0" pos="1032" vol="100" len="48"/>
          <note key="59" pan="0" pos="1032" vol="100" len="48"/>
          <note key="62" pan="0" pos="1080" vol="100" len="48"/>
          <note key="65" pan="0" pos="1128" vol="100" len="48"/>
          <note key="60" pan="0" pos="1128" vol="100" len="48"/>
          <note key="57" pan="0" pos="1128" vol="100" len="48"/>
          <note key="62" pan="0" pos="1176" vol="100" len="24"/>
          <note key="60" pan="0" pos="1200" vol="100" len="24"/>
          <note key="62" pan="0" pos="1224" vol="100" len="48"/>
          <note key="59" pan="0" pos="1224" vol="100" len="48"/>
          <note key="55" pan="0" pos="1224" vol="100" len="48"/>
          <note key="61" pan="0" pos="1296" vol="100" len="48"/>
          <note key="58" pan="0" pos="1296" vol="100" len="48"/>
          <note key="57" pan="0" pos="1296" vol="100" len="48"/>
          <note key="55" pan="0" pos="1296" vol="100" len="48"/>
          <note key="62" pan="0" pos="1344" vol="100" len="48"/>
          <note key="60" pan="0" pos="1344" vol="100" len="48"/>
          <note key="57" pan="0" pos="1344" vol="100" len="48"/>
          <note key="53" pan="0" pos="1344" vol="100" len="48"/>
          <note key="65" pan="0" pos="1392" vol="100" len="24"/>
          <note key="62" pan="0" pos="1416" vol="100" len="48"/>
          <note key="59" pan="0" pos="1416" vol="100" len="48"/>
          <note key="55" pan="0" pos="1416" vol="100" len="48"/>
          <note key="69" pan="0" pos="1464" vol="100" len="48"/>
          <note key="67" pan="0" pos="1512" vol="100" len="48"/>
          <note key="64" pan="0" pos="1512" vol="100" len="48"/>
          <note key="62" pan="0" pos="1512" vol="100" len="48"/>
          <note key="59" pan="0" pos="1512" vol="100" len="48"/>
          <note key="69" pan="0" pos="1560" vol="100" len="24"/>
          <note key="67" pan="0" pos="1584" vol="100" len="24"/>
          <note key="65" pan="0" pos="1608" vol="100" len="120"/>
          <note key="62" pan="0" pos="1608" vol="100" len="120"/>
          <note key="57" pan="0" pos="1608" vol="100" len="120"/>
          <note key="65" pan="0" pos="1728" vol="100" len="72"/>
          <note key="60" pan="0" pos="1728" vol="100" len="72"/>
          <note key="56" pan="0" pos="1728" vol="100" len="72"/>
          <note key="68" pan="0" pos="1800" vol="100" len="120"/>
          <note key="65" pan="0" pos="1800" vol="100" len="120"/>
          <note key="61" pan="0" pos="1800" vol="100" len="120"/>
          <note key="67" pan="0" pos="1920" vol="100" len="72"/>
          <note key="63" pan="0" pos="1920" vol="100" len="72"/>
          <note key="60" pan="0" pos="1920" vol="100" len="72"/>
          <note key="64" pan="0" pos="1992" vol="100" len="72"/>
          <note key="60" pan="0" pos="1992" vol="100" len="72"/>
          <note key="55" pan="0" pos="1992" vol="100" len="72"/>
          <note key="58" pan="0" pos="2064" vol="100" len="24"/>
          <note key="57" pan="0" pos="2088" vol="100" len="24"/>
          <note key="68" pan="0" pos="2112" vol="100" len="24"/>
          <note key="65" pan="0" pos="2112" vol="100" len="24"/>
          <note key="60" pan="0" pos="2112" vol="100" len="24"/>
          <note key="56" pan="0" pos="2112" vol="100" len="24"/>
          <note key="53" pan="0" pos="2136" vol="100" len="24"/>
          <note key="56" pan="0" pos="2160" vol="100" len="24"/>
          <note key="74" pan="0" pos="2184" vol="100" len="48"/>
          <note key="70" pan="0" pos="2184" vol="100" len="48"/>
          <note key="65" pan="0" pos="2184" vol="100" len="48"/>
          <note key="62" pan="0" pos="2184" vol="100" len="48"/>
          <note key="58" pan="0" pos="2232" vol="100" len="72"/>
          <note key="77" pan="0" pos="2304" vol="100" len="24"/>
          <note key="74" pan="0" pos="2304" vol="100" len="24"/>
          <note key="70" pan="0" pos="2304" vol="100" len="24"/>
          <note key="65" pan="0" pos="2304" vol="100" len="24"/>
          <note key="63" pan="0" pos="2328" vol="100" len="24"/>
          <note key="62" pan="0" pos="2352" vol="100" len="24"/>
          <note key="72" pan="0" pos="2376" vol="100" len="48"/>
          <note key="68" pan="0" pos="2376" vol="100" len="48"/>
          <note key="65" pan="0" pos="2376" vol="100" len="48"/>
          <note key="60" pan="0" pos="2376" vol="100" len="48"/>
          <note key="68" pan="0" pos="2424" vol="100" len="24"/>
          <note key="65" pan="0" pos="2424" vol="100" len="24"/>
          <note key="60" pan="0" pos="2424" vol="100" len="24"/>
          <note key="65" pan="0" pos="2448" vol="100" len="12"/>
          <note key="60" pan="0" pos="2448" vol="100" len="12"/>
          <note key="56" pan="0" pos="2448" vol="100" len="12"/>
          <note key="60" pan="0" pos="2472" vol="100" len="24"/>
          <note key="56" pan="0" pos="2472" vol="100" len="24"/>
          <note key="53" pan="0" pos="2472" vol="100" len="24"/>
          <note key="65" pan="0" pos="2496" vol="100" len="72"/>
          <note key="60" pan="0" pos="2496" vol="100" len="72"/>
          <note key="56" pan="0" pos="2496" vol="100" len="72"/>
          <note key="68" pan="0" pos="2568" vol="100" len="120"/>
          <note key="65" pan="0" pos="2568" vol="100" len="120"/>
          <note key="61" pan="0" pos="2568" vol="100" len="120"/>
          <note key="70" pan="0" pos="2688" vol="100" len="72"/>
          <note key="67" pan="0" pos="2688" vol="100" len="72"/>
          <note key="63" pan="0" pos="2688" vol="100" len="72"/>
          <note key="72" pan="0" pos="2760" vol="100" len="72"/>
          <note key="68" pan="0" pos="2760" vol="100" len="72"/>
          <note key="64" pan="0" pos="2760" vol="100" len="72"/>
          <note key="60" pan="0" pos="2760" vol="100" len="72"/>
          <note key="70" pan="0" pos="2832" vol="100" len="24"/>
          <note key="67" pan="0" pos="2832" vol="100" len="24"/>
          <note key="65" pan="0" pos="2832" vol="100" len="24"/>
          <note key="62" pan="0" pos="2832" vol="100" len="24"/>
          <note key="66" pan="0" pos="2856" vol="100" len="24"/>
          <note key="72" pan="0" pos="2880" vol="100" len="48"/>
          <note key="68" pan="0" pos="2880" vol="100" len="48"/>
          <note key="65" pan="0" pos="2880" vol="100" len="48"/>
          <note key="63" pan="0" pos="2880" vol="100" len="48"/>
          <note key="72" pan="0" pos="2928" vol="100" len="12"/>
          <note key="68" pan="0" pos="2928" vol="100" len="12"/>
          <note key="65" pan="0" pos="2928" vol="100" len="12"/>
          <note key="70" pan="0" pos="2952" vol="100" len="48"/>
          <note key="67" pan="0" pos="2952" vol="100" len="48"/>
          <note key="65" pan="0" pos="2952" vol="100" len="48"/>
          <note key="62" pan="0" pos="2952" vol="100" len="48"/>
          <note key="74" pan="0" pos="3000" vol="100" len="72"/>
          <note key="70" pan="0" pos="3000" vol="100" len="72"/>
          <note key="68" pan="0" pos="3000" vol="100" len="72"/>
          <note key="65" pan="0" pos="3000" vol="100" len="72"/>
          <note key="74" pan="0" pos="3072" vol="100" len="24"/>
          <note key="70" pan="0" pos="3072" vol="100" len="24"/>
          <note key="68" pan="0" pos="3072" vol="100" len="24"/>
          <note key="65" pan="0" pos="3072" vol="100" len="24"/>
          <note key="74" pan="0" pos="3096" vol="100" len="12"/>
          <note key="70" pan="0" pos="3096" vol="100" len="12"/>
          <note key="74" pan="0" pos="3108" vol="100" len="12"/>
          <note key="70" pan="0" pos="3108" vol="100" len="12"/>
          <note key="74" pan="0" pos="3120" vol="100" len="12"/>
          <note key="70" pan="0" pos="3120" vol="100" len="12"/>
          <note key="72" pan="0" pos="3144" vol="100" len="24"/>
          <note key="68" pan="0" pos="3144" vol="100" len="24"/>
          <note key="65" pan="0" pos="3144" vol="100" len="24"/>
          <note key="72" pan="0" pos="3168" vol="100" len="12"/>
          <note key="68" pan="0" pos="3168" vol="100" len="12"/>
          <note key="72" pan="0" pos="3180" vol="100" len="12"/>
          <note key="68" pan="0" pos="3180" vol="100" len="12"/>
          <note key="72" pan="0" pos="3192" vol="100" len="24"/>
          <note key="68" pan="0" pos="3192" vol="100" len="24"/>
          <note key="68" pan="0" pos="3216" vol="100" len="24"/>
          <note key="65" pan="0" pos="3216" vol="100" len="24"/>
          <note key="60" pan="0" pos="3216" vol="100" len="24"/>
          <note key="68" pan="0" pos="3240" vol="100" len="12"/>
          <note key="65" pan="0" pos="3240" vol="100" len="12"/>
          <note key="60" pan="0" pos="3240" vol="100" len="12"/>
          <note key="68" pan="0" pos="3252" vol="100" len="12"/>
          <note key="65" pan="0" pos="3252" vol="100" len="12"/>
          <note key="60" pan="0" pos="3252" vol="100" len="12"/>
          <note key="77" pan="0" pos="3264" vol="100" len="384"/>
          <note key="72" pan="0" pos="3264" vol="100" len="384"/>
          <note key="68" pan="0" pos="3264" vol="100" len="384"/>
          <note key="73" pan="0" pos="3648" vol="100" len="192"/>
          <note key="70" pan="0" pos="3648" vol="100" len="192"/>
          <note key="65" pan="0" pos="3648" vol="100" len="192"/>
          <note key="68" pan="0" pos="3840" vol="100" len="96"/>
          <note key="70" pan="0" pos="3936" vol="100" len="48"/>
          <note key="63" pan="0" pos="3936" vol="100" len="48"/>
          <note key="67" pan="0" pos="3984" vol="100" len="48"/>
          <note key="72" pan="0" pos="4032" vol="100" len="288"/>
          <note key="67" pan="0" pos="4032" vol="100" len="288"/>
          <note key="64" pan="0" pos="4032" vol="100" len="288"/>
          <note key="74" pan="0" pos="4320" vol="100" len="48"/>
          <note key="65" pan="0" pos="4320" vol="100" len="48"/>
          <note key="72" pan="0" pos="4368" vol="100" len="48"/>
          <note key="64" pan="0" pos="4368" vol="100" len="48"/>
          <note key="69" pan="0" pos="4416" vol="100" len="384"/>
          <note key="65" pan="0" pos="4416" vol="100" len="384"/>
          <note key="60" pan="0" pos="4416" vol="100" len="384"/>
        </midiclip>
      </track>
      <track type="0" name="Bass>Sample" solo="0" mutedBeforeSolo="0" muted="0">
        <instrumenttrack usemasterpitch="1" mixch="7" firstkey="0" keymap="0" lastkey="127" pan="0" enablecc="0" pitch="20" pitchrange="1" vol="100" basenote="60" scale="0" enabled="0" range_import="1">
          <midicontrollers cc43="0" cc74="0" cc111="0" cc119="0" cc124="0" cc108="0" cc7="0" cc49="0" cc95="0" cc116="0" cc35="0" cc98="0" cc105="0" cc14="0" cc48="0" cc65="0" cc11="0" cc17="0" cc34="0" cc23="0" cc15="0" cc22="0" cc55="0" cc68="0" cc4="0" cc28="0" cc13="0" cc44="0" cc69="0" cc3="0" cc77="0" cc73="0" cc1="0" cc80="0" cc58="0" cc120="0" cc0="0" cc21="0" cc85="0" cc115="0" cc29="0" cc66="0" cc53="0" cc90="0" cc96="0" cc37="0" cc46="0" cc25="0" cc109="0" cc52="0" cc110="0" cc75="0" cc57="0" cc92="0" cc93="0" cc125="0" cc18="0" cc122="0" cc19="0" cc32="0" cc103="0" cc86="0" cc121="0" cc6="0" cc56="0" cc94="0" cc70="0" cc64="0" cc127="0" cc59="0" cc63="0" cc9="0" cc82="0" cc78="0" cc114="0" cc104="0" cc36="0" cc30="0" cc12="0" cc10="0" cc84="0" cc76="0" cc88="0" cc20="0" cc16="0" cc101="0" cc27="0" cc8="0" cc5="0" cc81="0" cc24="0" cc99="0" cc60="0" cc102="0" cc106="0" cc26="0" cc61="0" cc39="0" cc33="0" cc38="0" cc45="0" cc100="0" cc112="0" cc126="0" cc67="0" cc50="0" cc42="0" cc113="0" cc41="0" cc87="0" cc107="0" cc2="0" cc79="0" cc123="0" cc40="0" cc71="0" cc97="0" cc83="0" cc118="0" cc62="0" cc117="0" cc72="0" cc31="0" cc54="0" cc91="0" cc89="0" cc47="0" cc51="0"/>
          <instrument name="audiofileprocessor">
            <audiofileprocessor eframe="1" lframe="0" reversed="0" sframe="0" src="usersample:sBass.flac" interp="0" stutter="0" looped="0" amp="16">
              <key/>
            </audiofileprocessor>
          </instrument>
          <eldata fcut="14000" ftype="0" fres="0.5" fwet="0">
            <elvol sustain="0.5" lspd_denominator="4" dec="0.5" pdel="0" rel="0.1" userwavefile="" latt="0" lspd_numerator="4" att="0" amt="0" ctlenvamt="0" lspd="0.1" lshp="0" x100="0" lpdel="0" hold="0.5" lspd_syncmode="0" lamt="0"/>
            <elcut sustain="0.5" lspd_denominator="4" dec="0.5" pdel="0" rel="0.1" userwavefile="" latt="0" lspd_numerator="4" att="0" amt="0" ctlenvamt="0" lspd="0.1" lshp="0" x100="0" lpdel="0" hold="0.5" lspd_syncmode="0" lamt="0"/>
            <elres sustain="0.5" lspd_denominator="4" dec="0.5" pdel="0" rel="0.1" userwavefile="" latt="0" lspd_numerator="4" att="0" amt="0" ctlenvamt="0" lspd="0.1" lshp="0" x100="0" lpdel="0" hold="0.5" lspd_syncmode="0" lamt="0"/>
          </eldata>
          <chordcreator chord-enabled="0" chord="0" chordrange="1"/>
          <arpeggiator arpmode="0" arpskip="0" arprange="1" arpmiss="0" arptime_numerator="4" arptime="200" arptime_denominator="4" arpdir="0" arprepeats="1" arp-enabled="0" arpcycle="0" arpgate="100" arp="0" arptime_syncmode="0"/>
          <midiport inputcontroller="0" fixedinputvelocity="-1" fixedoutputvelocity="-1" outputcontroller="0" outputprogram="1" writable="0" fixedoutputnote="-1" outputchannel="1" basevelocity="63" inputchannel="0" inports="" readable="1"/>
          <fxchain numofeffects="0" enabled="0"/>
        </instrumenttrack>
        <midiclip type="1" steps="16" pos="0" name="" muted="0">
          <note key="31" pan="0" pos="0" vol="100" len="36"/>
          <note key="31" pan="0" pos="36" vol="100" len="12"/>
          <note key="27" pan="0" pos="72" vol="100" len="48"/>
          <note key="27" pan="0" pos="120" vol="100" len="12"/>
          <note key="27" pan="0" pos="144" vol="100" len="24"/>
          <note key="27" pan="0" pos="168" vol="100" len="12"/>
          <note key="29" pan="0" pos="192" vol="100" len="36"/>
          <note key="29" pan="0" pos="228" vol="100" len="12"/>
          <note key="31" pan="0" pos="264" vol="100" len="48"/>
          <note key="31" pan="0" pos="312" vol="100" len="12"/>
          <note key="31" pan="0" pos="336" vol="100" len="24"/>
          <note key="31" pan="0" pos="360" vol="100" len="12"/>
          <note key="34" pan="0" pos="384" vol="100" len="36"/>
          <note key="31" pan="0" pos="420" vol="100" len="12"/>
          <note key="36" pan="0" pos="456" vol="100" len="48"/>
          <note key="24" pan="0" pos="504" vol="100" len="12"/>
          <note key="24" pan="0" pos="528" vol="100" len="12"/>
          <note key="24" pan="0" pos="552" vol="100" len="12"/>
          <note key="24" pan="0" pos="576" vol="100" len="12"/>
          <note key="24" pan="0" pos="600" vol="100" len="12"/>
          <note key="24" pan="0" pos="624" vol="100" len="12"/>
          <note key="24" pan="0" pos="648" vol="100" len="48"/>
          <note key="24" pan="0" pos="696" vol="100" len="12"/>
          <note key="24" pan="0" pos="720" vol="100" len="12"/>
          <note key="24" pan="0" pos="744" vol="100" len="12"/>
        </midiclip>
        <midiclip type="1" steps="16" pos="768" name="" muted="0">
          <note key="31" pan="0" pos="0" vol="100" len="36"/>
          <note key="31" pan="0" pos="36" vol="100" len="12"/>
          <note key="27" pan="0" pos="72" vol="100" len="48"/>
          <note key="27" pan="0" pos="120" vol="100" len="12"/>
          <note key="27" pan="0" pos="144" vol="100" len="24"/>
          <note key="27" pan="0" pos="168" vol="100" len="12"/>
          <note key="29" pan="0" pos="192" vol="100" len="36"/>
          <note key="29" pan="0" pos="228" vol="100" len="12"/>
          <note key="31" pan="0" pos="264" vol="100" len="48"/>
          <note key="31" pan="0" pos="312" vol="100" len="12"/>
          <note key="31" pan="0" pos="336" vol="100" len="24"/>
          <note key="31" pan="0" pos="360" vol="100" len="12"/>
          <note key="34" pan="0" pos="384" vol="100" len="36"/>
          <note key="31" pan="0" pos="420" vol="100" len="12"/>
          <note key="36" pan="0" pos="456" vol="100" len="48"/>
          <note key="24" pan="0" pos="504" vol="100" len="12"/>
          <note key="24" pan="0" pos="528" vol="100" len="12"/>
          <note key="24" pan="0" pos="552" vol="100" len="12"/>
          <note key="24" pan="0" pos="576" vol="100" len="12"/>
          <note key="24" pan="0" pos="600" vol="100" len="12"/>
          <note key="24" pan="0" pos="624" vol="100" len="12"/>
          <note key="24" pan="0" pos="648" vol="100" len="48"/>
          <note key="24" pan="0" pos="696" vol="100" len="12"/>
          <note key="24" pan="0" pos="720" vol="100" len="12"/>
          <note key="24" pan="0" pos="744" vol="100" len="12"/>
        </midiclip>
        <midiclip type="1" steps="16" pos="1536" name="" muted="0">
          <note key="31" pan="0" pos="0" vol="100" len="36"/>
          <note key="31" pan="0" pos="36" vol="100" len="12"/>
          <note key="27" pan="0" pos="72" vol="100" len="48"/>
          <note key="27" pan="0" pos="120" vol="100" len="12"/>
          <note key="27" pan="0" pos="144" vol="100" len="24"/>
          <note key="27" pan="0" pos="168" vol="100" len="12"/>
          <note key="29" pan="0" pos="192" vol="100" len="36"/>
          <note key="29" pan="0" pos="228" vol="100" len="12"/>
          <note key="31" pan="0" pos="264" vol="100" len="48"/>
          <note key="31" pan="0" pos="312" vol="100" len="12"/>
          <note key="31" pan="0" pos="336" vol="100" len="24"/>
          <note key="31" pan="0" pos="360" vol="100" len="12"/>
          <note key="34" pan="0" pos="384" vol="100" len="36"/>
          <note key="31" pan="0" pos="420" vol="100" len="12"/>
          <note key="36" pan="0" pos="456" vol="100" len="48"/>
          <note key="24" pan="0" pos="504" vol="100" len="12"/>
          <note key="24" pan="0" pos="528" vol="100" len="12"/>
          <note key="24" pan="0" pos="552" vol="100" len="12"/>
          <note key="36" pan="0" pos="576" vol="100" len="12"/>
          <note key="38" pan="0" pos="600" vol="100" len="12"/>
          <note key="36" pan="0" pos="624" vol="100" len="12"/>
          <note key="34" pan="0" pos="648" vol="100" len="48"/>
          <note key="31" pan="0" pos="696" vol="100" len="12"/>
          <note key="29" pan="0" pos="720" vol="100" len="12"/>
          <note key="26" pan="0" pos="744" vol="100" len="12"/>
        </midiclip>
        <midiclip type="1" steps="16" pos="2304" name="" muted="0">
          <note key="31" pan="0" pos="0" vol="100" len="36"/>
          <note key="31" pan="0" pos="36" vol="100" len="12"/>
          <note key="27" pan="0" pos="72" vol="100" len="48"/>
          <note key="27" pan="0" pos="120" vol="100" len="12"/>
          <note key="27" pan="0" pos="144" vol="100" len="24"/>
          <note key="27" pan="0" pos="168" vol="100" len="12"/>
          <note key="29" pan="0" pos="192" vol="100" len="36"/>
          <note key="29" pan="0" pos="228" vol="100" len="12"/>
          <note key="30" pan="0" pos="264" vol="100" len="48"/>
          <note key="30" pan="0" pos="312" vol="100" len="12"/>
          <note key="33" pan="0" pos="336" vol="100" len="24"/>
          <note key="33" pan="0" pos="360" vol="100" len="12"/>
          <note key="31" pan="0" pos="384" vol="100" len="36"/>
          <note key="31" pan="0" pos="420" vol="100" len="12"/>
          <note key="43" pan="0" pos="456" vol="100" len="24"/>
          <note key="26" pan="0" pos="480" vol="100" len="12"/>
          <note key="26" pan="0" pos="504" vol="100" len="12"/>
          <note key="29" pan="0" pos="528" vol="100" len="12"/>
          <note key="30" pan="0" pos="552" vol="100" len="12"/>
          <note key="31" pan="0" pos="576" vol="100" len="36"/>
          <note key="31" pan="0" pos="612" vol="100" len="12"/>
          <note key="43" pan="0" pos="648" vol="100" len="24"/>
          <note key="26" pan="0" pos="672" vol="100" len="12"/>
          <note key="26" pan="0" pos="696" vol="100" len="12"/>
          <note key="29" pan="0" pos="720" vol="100" len="12"/>
          <note key="30" pan="0" pos="744" vol="100" len="12"/>
        </midiclip>
        <midiclip type="1" steps="16" pos="3072" name="" muted="0">
          <note key="31" pan="0" pos="0" vol="100" len="36"/>
          <note key="31" pan="0" pos="36" vol="100" len="12"/>
          <note key="27" pan="0" pos="72" vol="100" len="48"/>
          <note key="27" pan="0" pos="120" vol="100" len="12"/>
          <note key="27" pan="0" pos="144" vol="100" len="24"/>
          <note key="27" pan="0" pos="168" vol="100" len="12"/>
          <note key="29" pan="0" pos="192" vol="100" len="36"/>
          <note key="29" pan="0" pos="228" vol="100" len="12"/>
          <note key="26" pan="0" pos="264" vol="100" len="48"/>
          <note key="26" pan="0" pos="312" vol="100" len="12"/>
          <note key="33" pan="0" pos="336" vol="100" len="24"/>
          <note key="33" pan="0" pos="360" vol="100" len="12"/>
          <note key="31" pan="0" pos="384" vol="100" len="36"/>
          <note key="31" pan="0" pos="420" vol="100" len="12"/>
          <note key="31" pan="0" pos="456" vol="100" len="48"/>
          <note key="31" pan="0" pos="504" vol="100" len="12"/>
          <note key="31" pan="0" pos="528" vol="100" len="12"/>
          <note key="31" pan="0" pos="552" vol="100" len="12"/>
          <note key="34" pan="0" pos="576" vol="100" len="12"/>
          <note key="36" pan="0" pos="600" vol="100" len="12"/>
          <note key="38" pan="0" pos="624" vol="100" len="12"/>
          <note key="36" pan="0" pos="648" vol="100" len="12"/>
          <note key="34" pan="0" pos="672" vol="100" len="48"/>
          <note key="31" pan="0" pos="720" vol="100" len="12"/>
          <note key="26" pan="0" pos="744" vol="100" len="12"/>
          <note key="29" pan="0" pos="768" vol="100" len="36"/>
          <note key="29" pan="0" pos="804" vol="100" len="12"/>
          <note key="29" pan="0" pos="840" vol="100" len="48"/>
          <note key="29" pan="0" pos="888" vol="100" len="12"/>
          <note key="29" pan="0" pos="912" vol="100" len="12"/>
          <note key="29" pan="0" pos="936" vol="100" len="12"/>
          <note key="38" pan="0" pos="960" vol="100" len="12"/>
          <note key="39" pan="0" pos="984" vol="100" len="12"/>
          <note key="41" pan="0" pos="1008" vol="100" len="12"/>
          <note key="39" pan="0" pos="1032" vol="100" len="12"/>
          <note key="36" pan="0" pos="1056" vol="100" len="48"/>
          <note key="34" pan="0" pos="1104" vol="100" len="12"/>
          <note key="33" pan="0" pos="1128" vol="100" len="12"/>
          <note key="31" pan="0" pos="1152" vol="100" len="36"/>
          <note key="31" pan="0" pos="1188" vol="100" len="12"/>
          <note key="31" pan="0" pos="1224" vol="100" len="48"/>
          <note key="31" pan="0" pos="1272" vol="100" len="12"/>
          <note key="31" pan="0" pos="1296" vol="100" len="12"/>
          <note key="31" pan="0" pos="1320" vol="100" len="12"/>
          <note key="34" pan="0" pos="1344" vol="100" len="12"/>
          <note key="36" pan="0" pos="1368" vol="100" len="12"/>
          <note key="38" pan="0" pos="1392" vol="100" len="12"/>
          <note key="36" pan="0" pos="1416" vol="100" len="12"/>
          <note key="34" pan="0" pos="1440" vol="100" len="48"/>
          <note key="31" pan="0" pos="1488" vol="100" len="12"/>
          <note key="26" pan="0" pos="1512" vol="100" len="12"/>
          <note key="30" pan="0" pos="1536" vol="100" len="36"/>
          <note key="30" pan="0" pos="1572" vol="100" len="12"/>
          <note key="30" pan="0" pos="1608" vol="100" len="48"/>
          <note key="30" pan="0" pos="1656" vol="100" len="12"/>
          <note key="30" pan="0" pos="1680" vol="100" len="12"/>
          <note key="30" pan="0" pos="1704" vol="100" len="12"/>
          <note key="33" pan="0" pos="1728" vol="100" len="12"/>
          <note key="31" pan="0" pos="1752" vol="100" len="12"/>
          <note key="30" pan="0" pos="1776" vol="100" len="12"/>
          <note key="27" pan="0" pos="1800" vol="100" len="12"/>
          <note key="26" pan="0" pos="1824" vol="100" len="96"/>
        </midiclip>
        <midiclip type="1" steps="16" pos="4992" name="" muted="0">
          <note key="31" pan="0" pos="0" vol="100" len="48"/>
          <note key="26" pan="0" pos="48" vol="100" len="12"/>
          <note key="29" pan="0" pos="84" vol="100" len="12"/>
          <note key="31" pan="0" pos="120" vol="100" len="48"/>
          <note key="29" pan="0" pos="168" vol="100" len="12"/>
          <note key="29" pan="0" pos="192" vol="100" len="48"/>
          <note key="24" pan="0" pos="240" vol="100" len="12"/>
          <note key="27" pan="0" pos="276" vol="100" len="12"/>
          <note key="29" pan="0" pos="312" vol="100" len="48"/>
          <note key="27" pan="0" pos="360" vol="100" len="12"/>
          <note key="27" pan="0" pos="384" vol="100" len="48"/>
          <note key="22" pan="0" pos="432" vol="100" len="12"/>
          <note key="26" pan="0" pos="468" vol="100" len="12"/>
          <note key="27" pan="0" pos="504" vol="100" len="48"/>
          <note key="26" pan="0" pos="552" vol="100" len="12"/>
          <note key="26" pan="0" pos="576" vol="100" len="48"/>
          <note key="21" pan="0" pos="624" vol="100" len="12"/>
          <note key="33" pan="0" pos="660" vol="100" len="12"/>
          <note key="30" pan="0" pos="672" vol="100" len="48"/>
          <note key="26" pan="0" pos="720" vol="100" len="12"/>
          <note key="29" pan="0" pos="756" vol="100" len="12"/>
          <note key="31" pan="0" pos="768" vol="100" len="48"/>
          <note key="26" pan="0" pos="816" vol="100" len="12"/>
          <note key="29" pan="0" pos="852" vol="100" len="12"/>
          <note key="31" pan="0" pos="888" vol="100" len="48"/>
          <note key="29" pan="0" pos="936" vol="100" len="12"/>
          <note key="29" pan="0" pos="960" vol="100" len="48"/>
          <note key="24" pan="0" pos="1008" vol="100" len="12"/>
          <note key="27" pan="0" pos="1044" vol="100" len="12"/>
          <note key="29" pan="0" pos="1080" vol="100" len="48"/>
          <note key="27" pan="0" pos="1128" vol="100" len="12"/>
          <note key="27" pan="0" pos="1152" vol="100" len="48"/>
          <note key="22" pan="0" pos="1200" vol="100" len="12"/>
          <note key="26" pan="0" pos="1236" vol="100" len="12"/>
          <note key="27" pan="0" pos="1272" vol="100" len="48"/>
          <note key="26" pan="0" pos="1320" vol="100" len="12"/>
          <note key="30" pan="0" pos="1344" vol="100" len="192"/>
        </midiclip>
        <midiclip type="1" steps="16" pos="7104" name="" muted="0">
          <note key="38" pan="0" pos="0" vol="100" len="24"/>
          <note key="33" pan="0" pos="24" vol="100" len="24"/>
          <note key="38" pan="0" pos="48" vol="100" len="24"/>
          <note key="43" pan="0" pos="72" vol="100" len="48"/>
          <note key="40" pan="0" pos="120" vol="100" len="24"/>
          <note key="38" pan="0" pos="144" vol="100" len="24"/>
          <note key="35" pan="0" pos="168" vol="100" len="48"/>
          <note key="31" pan="0" pos="216" vol="100" len="24"/>
          <note key="35" pan="0" pos="240" vol="100" len="24"/>
          <note key="41" pan="0" pos="264" vol="100" len="48"/>
          <note key="40" pan="0" pos="312" vol="100" len="24"/>
          <note key="38" pan="0" pos="336" vol="100" len="24"/>
          <note key="36" pan="0" pos="360" vol="100" len="24"/>
          <note key="38" pan="0" pos="384" vol="100" len="24"/>
          <note key="33" pan="0" pos="408" vol="100" len="24"/>
          <note key="38" pan="0" pos="432" vol="100" len="24"/>
          <note key="43" pan="0" pos="456" vol="100" len="48"/>
          <note key="38" pan="0" pos="504" vol="100" len="24"/>
          <note key="35" pan="0" pos="528" vol="100" len="24"/>
          <note key="47" pan="0" pos="552" vol="100" len="48"/>
          <note key="45" pan="0" pos="600" vol="100" len="24"/>
          <note key="43" pan="0" pos="624" vol="100" len="24"/>
          <note key="45" pan="0" pos="648" vol="100" len="48"/>
          <note key="43" pan="0" pos="696" vol="100" len="24"/>
          <note key="41" pan="0" pos="720" vol="100" len="24"/>
          <note key="40" pan="0" pos="744" vol="100" len="24"/>
          <note key="38" pan="0" pos="768" vol="100" len="24"/>
          <note key="33" pan="0" pos="792" vol="100" len="24"/>
          <note key="38" pan="0" pos="816" vol="100" len="24"/>
          <note key="43" pan="0" pos="840" vol="100" len="48"/>
          <note key="40" pan="0" pos="888" vol="100" len="24"/>
          <note key="38" pan="0" pos="912" vol="100" len="24"/>
          <note key="36" pan="0" pos="936" vol="100" len="48"/>
          <note key="31" pan="0" pos="984" vol="100" len="24"/>
          <note key="36" pan="0" pos="1008" vol="100" len="24"/>
          <note key="40" pan="0" pos="1032" vol="100" len="48"/>
          <note key="39" pan="0" pos="1104" vol="100" len="48"/>
          <note key="45" pan="0" pos="1152" vol="100" len="24"/>
          <note key="38" pan="0" pos="1176" vol="100" len="24"/>
          <note key="45" pan="0" pos="1200" vol="100" len="24"/>
          <note key="43" pan="0" pos="1224" vol="100" len="48"/>
          <note key="38" pan="0" pos="1272" vol="100" len="24"/>
          <note key="35" pan="0" pos="1296" vol="100" len="24"/>
          <note key="43" pan="0" pos="1320" vol="100" len="48"/>
          <note key="41" pan="0" pos="1368" vol="100" len="24"/>
          <note key="40" pan="0" pos="1392" vol="100" len="24"/>
          <note key="38" pan="0" pos="1416" vol="100" len="48"/>
          <note key="36" pan="0" pos="1464" vol="100" len="24"/>
          <note key="38" pan="0" pos="1488" vol="100" len="24"/>
          <note key="45" pan="0" pos="1512" vol="100" len="24"/>
          <note key="53" pan="0" pos="1536" vol="100" len="24"/>
          <note key="48" pan="0" pos="1560" vol="100" len="24"/>
          <note key="53" pan="0" pos="1584" vol="100" len="24"/>
          <note key="49" pan="0" pos="1608" vol="100" len="48"/>
          <note key="41" pan="0" pos="1656" vol="100" len="24"/>
          <note key="44" pan="0" pos="1680" vol="100" len="24"/>
          <note key="49" pan="0" pos="1704" vol="100" len="24"/>
          <note key="51" pan="0" pos="1728" vol="100" len="24"/>
          <note key="46" pan="0" pos="1752" vol="100" len="24"/>
          <note key="51" pan="0" pos="1776" vol="100" len="24"/>
          <note key="48" pan="0" pos="1800" vol="100" len="48"/>
          <note key="43" pan="0" pos="1848" vol="100" len="24"/>
          <note key="46" pan="0" pos="1872" vol="100" len="24"/>
          <note key="45" pan="0" pos="1896" vol="100" len="24"/>
          <note key="44" pan="0" pos="1920" vol="100" len="24"/>
          <note key="41" pan="0" pos="1944" vol="100" len="24"/>
          <note key="48" pan="0" pos="1968" vol="100" len="24"/>
          <note key="34" pan="0" pos="1992" vol="100" len="48"/>
          <note key="41" pan="0" pos="2040" vol="100" len="24"/>
          <note key="53" pan="0" pos="2064" vol="100" len="24"/>
          <note key="52" pan="0" pos="2088" vol="100" len="24"/>
          <note key="38" pan="0" pos="2112" vol="100" len="24"/>
          <note key="34" pan="0" pos="2136" vol="100" len="24"/>
          <note key="46" pan="0" pos="2160" vol="100" len="24"/>
          <note key="44" pan="0" pos="2184" vol="100" len="48"/>
          <note key="43" pan="0" pos="2232" vol="100" len="24"/>
          <note key="42" pan="0" pos="2256" vol="100" len="12"/>
          <note key="41" pan="0" pos="2280" vol="100" len="24"/>
          <note key="53" pan="0" pos="2304" vol="100" len="24"/>
          <note key="48" pan="0" pos="2328" vol="100" len="24"/>
          <note key="53" pan="0" pos="2352" vol="100" len="24"/>
          <note key="49" pan="0" pos="2376" vol="100" len="48"/>
          <note key="46" pan="0" pos="2424" vol="100" len="24"/>
          <note key="44" pan="0" pos="2448" vol="100" len="24"/>
          <note key="49" pan="0" pos="2472" vol="100" len="24"/>
          <note key="51" pan="0" pos="2496" vol="100" len="24"/>
          <note key="46" pan="0" pos="2520" vol="100" len="24"/>
          <note key="51" pan="0" pos="2544" vol="100" len="24"/>
          <note key="52" pan="0" pos="2568" vol="100" len="48"/>
          <note key="36" pan="0" pos="2616" vol="100" len="24"/>
          <note key="43" pan="0" pos="2640" vol="100" len="24"/>
          <note key="42" pan="0" pos="2664" vol="100" len="24"/>
          <note key="41" pan="0" pos="2688" vol="100" len="24"/>
          <note key="36" pan="0" pos="2712" vol="100" len="24"/>
          <note key="39" pan="0" pos="2736" vol="100" len="12"/>
          <note key="38" pan="0" pos="2760" vol="100" len="48"/>
          <note key="46" pan="0" pos="2808" vol="100" len="48"/>
          <note key="36" pan="0" pos="2856" vol="100" len="24"/>
          <note key="38" pan="0" pos="2880" vol="100" len="24"/>
          <note key="34" pan="0" pos="2904" vol="100" len="24"/>
          <note key="46" pan="0" pos="2928" vol="100" len="12"/>
          <note key="44" pan="0" pos="2952" vol="100" len="48"/>
          <note key="41" pan="0" pos="3000" vol="100" len="48"/>
          <note key="39" pan="0" pos="3048" vol="100" len="24"/>
          <note key="41" pan="0" pos="3072" vol="100" len="384"/>
          <note key="46" pan="0" pos="3456" vol="100" len="384"/>
          <note key="43" pan="0" pos="3840" vol="100" len="384"/>
          <note key="41" pan="0" pos="4224" vol="100" len="384"/>
        </midiclip>
      </track>
      <track type="0" name="Bass>Pulse" solo="0" mutedBeforeSolo="0" muted="0">
        <instrumenttrack usemasterpitch="1" mixch="8" firstkey="0" keymap="0" lastkey="127" pan="0" enablecc="0" pitch="0" pitchrange="1" vol="100" basenote="69" scale="0" enabled="0" range_import="1">
          <midicontrollers cc43="0" cc74="0" cc111="0" cc119="0" cc124="0" cc108="0" cc7="0" cc49="0" cc95="0" cc116="0" cc35="0" cc98="0" cc105="0" cc14="0" cc48="0" cc65="0" cc11="0" cc17="0" cc34="0" cc23="0" cc15="0" cc22="0" cc55="0" cc68="0" cc4="0" cc28="0" cc13="0" cc44="0" cc69="0" cc3="0" cc77="0" cc73="0" cc1="0" cc80="0" cc58="0" cc120="0" cc0="0" cc21="0" cc85="0" cc115="0" cc29="0" cc66="0" cc53="0" cc90="0" cc96="0" cc37="0" cc46="0" cc25="0" cc109="0" cc52="0" cc110="0" cc75="0" cc57="0" cc92="0" cc93="0" cc125="0" cc18="0" cc122="0" cc19="0" cc32="0" cc103="0" cc86="0" cc121="0" cc6="0" cc56="0" cc94="0" cc70="0" cc64="0" cc127="0" cc59="0" cc63="0" cc9="0" cc82="0" cc78="0" cc114="0" cc104="0" cc36="0" cc30="0" cc12="0" cc10="0" cc84="0" cc76="0" cc88="0" cc20="0" cc16="0" cc101="0" cc27="0" cc8="0" cc5="0" cc81="0" cc24="0" cc99="0" cc60="0" cc102="0" cc106="0" cc26="0" cc61="0" cc39="0" cc33="0" cc38="0" cc45="0" cc100="0" cc112="0" cc126="0" cc67="0" cc50="0" cc42="0" cc113="0" cc41="0" cc87="0" cc107="0" cc2="0" cc79="0" cc123="0" cc40="0" cc71="0" cc97="0" cc83="0" cc118="0" cc62="0" cc117="0" cc72="0" cc31="0" cc54="0" cc91="0" cc89="0" cc47="0" cc51="0"/>
          <instrument name="sf2player">
            <sf2player bank="0" reverbDamping="0" chorusNum="3" gain="0.3" chorusOn="0" chorusLevel="2" chorusSpeed="0.3" patch="3" reverbRoomSize="0.2" reverbLevel="0.9" reverbWidth="0.5" chorusDepth="8" src="usersoundfont:C64 Waveform Bank.sf2" reverbOn="0">
              <key/>
            </sf2player>
          </instrument>
          <eldata fcut="14000" ftype="0" fres="0.5" fwet="0">
            <elvol sustain="0.5" lspd_denominator="4" dec="0.5" pdel="0" rel="0.1" userwavefile="" latt="0" lspd_numerator="4" att="0" amt="0" ctlenvamt="0" lspd="0.1" lshp="0" x100="0" lpdel="0" hold="0.5" lspd_syncmode="0" lamt="0"/>
            <elcut sustain="0.5" lspd_denominator="4" dec="0.5" pdel="0" rel="0.1" userwavefile="" latt="0" lspd_numerator="4" att="0" amt="0" ctlenvamt="0" lspd="0.1" lshp="0" x100="0" lpdel="0" hold="0.5" lspd_syncmode="0" lamt="0"/>
            <elres sustain="0.5" lspd_denominator="4" dec="0.5" pdel="0" rel="0.1" userwavefile="" latt="0" lspd_numerator="4" att="0" amt="0" ctlenvamt="0" lspd="0.1" lshp="0" x100="0" lpdel="0" hold="0.5" lspd_syncmode="0" lamt="0"/>
          </eldata>
          <chordcreator chord-enabled="0" chord="0" chordrange="1"/>
          <arpeggiator arpmode="0" arpskip="0" arprange="1" arpmiss="0" arptime_numerator="4" arptime="200" arptime_denominator="4" arpdir="0" arprepeats="1" arp-enabled="0" arpcycle="0" arpgate="100" arp="0" arptime_syncmode="0"/>
          <midiport inputcontroller="0" fixedinputvelocity="-1" fixedoutputvelocity="-1" outputcontroller="0" outputprogram="1" writable="0" fixedoutputnote="-1" outputchannel="1" basevelocity="63" inputchannel="0" inports="" readable="1"/>
          <fxchain numofeffects="0" enabled="0"/>
        </instrumenttrack>
        <midiclip type="1" steps="16" pos="0" name="" muted="0">
          <note key="31" pan="0" pos="0" vol="100" len="36"/>
          <note key="31" pan="0" pos="36" vol="100" len="12"/>
          <note key="27" pan="0" pos="72" vol="100" len="48"/>
          <note key="27" pan="0" pos="120" vol="100" len="12"/>
          <note key="27" pan="0" pos="144" vol="100" len="24"/>
          <note key="27" pan="0" pos="168" vol="100" len="12"/>
          <note key="29" pan="0" pos="192" vol="100" len="36"/>
          <note key="29" pan="0" pos="228" vol="100" len="12"/>
          <note key="31" pan="0" pos="264" vol="100" len="48"/>
          <note key="31" pan="0" pos="312" vol="100" len="12"/>
          <note key="31" pan="0" pos="336" vol="100" len="24"/>
          <note key="31" pan="0" pos="360" vol="100" len="12"/>
          <note key="34" pan="0" pos="384" vol="100" len="36"/>
          <note key="31" pan="0" pos="420" vol="100" len="12"/>
          <note key="36" pan="0" pos="456" vol="100" len="48"/>
          <note key="24" pan="0" pos="504" vol="100" len="12"/>
          <note key="24" pan="0" pos="528" vol="100" len="12"/>
          <note key="24" pan="0" pos="552" vol="100" len="12"/>
          <note key="24" pan="0" pos="576" vol="100" len="12"/>
          <note key="24" pan="0" pos="600" vol="100" len="12"/>
          <note key="24" pan="0" pos="624" vol="100" len="12"/>
          <note key="24" pan="0" pos="648" vol="100" len="48"/>
          <note key="24" pan="0" pos="696" vol="100" len="12"/>
          <note key="24" pan="0" pos="720" vol="100" len="12"/>
          <note key="24" pan="0" pos="744" vol="100" len="12"/>
        </midiclip>
        <midiclip type="1" steps="16" pos="768" name="" muted="0">
          <note key="31" pan="0" pos="0" vol="100" len="36"/>
          <note key="31" pan="0" pos="36" vol="100" len="12"/>
          <note key="27" pan="0" pos="72" vol="100" len="48"/>
          <note key="27" pan="0" pos="120" vol="100" len="12"/>
          <note key="27" pan="0" pos="144" vol="100" len="24"/>
          <note key="27" pan="0" pos="168" vol="100" len="12"/>
          <note key="29" pan="0" pos="192" vol="100" len="36"/>
          <note key="29" pan="0" pos="228" vol="100" len="12"/>
          <note key="31" pan="0" pos="264" vol="100" len="48"/>
          <note key="31" pan="0" pos="312" vol="100" len="12"/>
          <note key="31" pan="0" pos="336" vol="100" len="24"/>
          <note key="31" pan="0" pos="360" vol="100" len="12"/>
          <note key="34" pan="0" pos="384" vol="100" len="36"/>
          <note key="31" pan="0" pos="420" vol="100" len="12"/>
          <note key="36" pan="0" pos="456" vol="100" len="48"/>
          <note key="24" pan="0" pos="504" vol="100" len="12"/>
          <note key="24" pan="0" pos="528" vol="100" len="12"/>
          <note key="24" pan="0" pos="552" vol="100" len="12"/>
          <note key="24" pan="0" pos="576" vol="100" len="12"/>
          <note key="24" pan="0" pos="600" vol="100" len="12"/>
          <note key="24" pan="0" pos="624" vol="100" len="12"/>
          <note key="24" pan="0" pos="648" vol="100" len="48"/>
          <note key="24" pan="0" pos="696" vol="100" len="12"/>
          <note key="24" pan="0" pos="720" vol="100" len="12"/>
          <note key="24" pan="0" pos="744" vol="100" len="12"/>
        </midiclip>
        <midiclip type="1" steps="16" pos="1536" name="" muted="0">
          <note key="31" pan="0" pos="0" vol="100" len="36"/>
          <note key="31" pan="0" pos="36" vol="100" len="12"/>
          <note key="27" pan="0" pos="72" vol="100" len="48"/>
          <note key="27" pan="0" pos="120" vol="100" len="12"/>
          <note key="27" pan="0" pos="144" vol="100" len="24"/>
          <note key="27" pan="0" pos="168" vol="100" len="12"/>
          <note key="29" pan="0" pos="192" vol="100" len="36"/>
          <note key="29" pan="0" pos="228" vol="100" len="12"/>
          <note key="31" pan="0" pos="264" vol="100" len="48"/>
          <note key="31" pan="0" pos="312" vol="100" len="12"/>
          <note key="31" pan="0" pos="336" vol="100" len="24"/>
          <note key="31" pan="0" pos="360" vol="100" len="12"/>
          <note key="34" pan="0" pos="384" vol="100" len="36"/>
          <note key="31" pan="0" pos="420" vol="100" len="12"/>
          <note key="36" pan="0" pos="456" vol="100" len="48"/>
          <note key="24" pan="0" pos="504" vol="100" len="12"/>
          <note key="24" pan="0" pos="528" vol="100" len="12"/>
          <note key="24" pan="0" pos="552" vol="100" len="12"/>
          <note key="36" pan="0" pos="576" vol="100" len="12"/>
          <note key="38" pan="0" pos="600" vol="100" len="12"/>
          <note key="36" pan="0" pos="624" vol="100" len="12"/>
          <note key="34" pan="0" pos="648" vol="100" len="48"/>
          <note key="31" pan="0" pos="696" vol="100" len="12"/>
          <note key="29" pan="0" pos="720" vol="100" len="12"/>
          <note key="26" pan="0" pos="744" vol="100" len="12"/>
        </midiclip>
        <midiclip type="1" steps="16" pos="2304" name="" muted="0">
          <note key="31" pan="0" pos="0" vol="100" len="36"/>
          <note key="31" pan="0" pos="36" vol="100" len="12"/>
          <note key="27" pan="0" pos="72" vol="100" len="48"/>
          <note key="27" pan="0" pos="120" vol="100" len="12"/>
          <note key="27" pan="0" pos="144" vol="100" len="24"/>
          <note key="27" pan="0" pos="168" vol="100" len="12"/>
          <note key="29" pan="0" pos="192" vol="100" len="36"/>
          <note key="29" pan="0" pos="228" vol="100" len="12"/>
          <note key="30" pan="0" pos="264" vol="100" len="48"/>
          <note key="30" pan="0" pos="312" vol="100" len="12"/>
          <note key="33" pan="0" pos="336" vol="100" len="24"/>
          <note key="33" pan="0" pos="360" vol="100" len="12"/>
          <note key="31" pan="0" pos="384" vol="100" len="36"/>
          <note key="31" pan="0" pos="420" vol="100" len="12"/>
          <note key="43" pan="0" pos="456" vol="100" len="24"/>
          <note key="26" pan="0" pos="480" vol="100" len="12"/>
          <note key="26" pan="0" pos="504" vol="100" len="12"/>
          <note key="29" pan="0" pos="528" vol="100" len="12"/>
          <note key="30" pan="0" pos="552" vol="100" len="12"/>
          <note key="31" pan="0" pos="576" vol="100" len="36"/>
          <note key="31" pan="0" pos="612" vol="100" len="12"/>
          <note key="43" pan="0" pos="648" vol="100" len="24"/>
          <note key="26" pan="0" pos="672" vol="100" len="12"/>
          <note key="26" pan="0" pos="696" vol="100" len="12"/>
          <note key="29" pan="0" pos="720" vol="100" len="12"/>
          <note key="30" pan="0" pos="744" vol="100" len="12"/>
        </midiclip>
        <midiclip type="1" steps="16" pos="3072" name="" muted="0">
          <note key="31" pan="0" pos="0" vol="100" len="36"/>
          <note key="31" pan="0" pos="36" vol="100" len="12"/>
          <note key="27" pan="0" pos="72" vol="100" len="48"/>
          <note key="27" pan="0" pos="120" vol="100" len="12"/>
          <note key="27" pan="0" pos="144" vol="100" len="24"/>
          <note key="27" pan="0" pos="168" vol="100" len="12"/>
          <note key="29" pan="0" pos="192" vol="100" len="36"/>
          <note key="29" pan="0" pos="228" vol="100" len="12"/>
          <note key="26" pan="0" pos="264" vol="100" len="48"/>
          <note key="26" pan="0" pos="312" vol="100" len="12"/>
          <note key="33" pan="0" pos="336" vol="100" len="24"/>
          <note key="33" pan="0" pos="360" vol="100" len="12"/>
          <note key="31" pan="0" pos="384" vol="100" len="36"/>
          <note key="31" pan="0" pos="420" vol="100" len="12"/>
          <note key="31" pan="0" pos="456" vol="100" len="48"/>
          <note key="31" pan="0" pos="504" vol="100" len="12"/>
          <note key="31" pan="0" pos="528" vol="100" len="12"/>
          <note key="31" pan="0" pos="552" vol="100" len="12"/>
          <note key="34" pan="0" pos="576" vol="100" len="12"/>
          <note key="36" pan="0" pos="600" vol="100" len="12"/>
          <note key="38" pan="0" pos="624" vol="100" len="12"/>
          <note key="36" pan="0" pos="648" vol="100" len="12"/>
          <note key="34" pan="0" pos="672" vol="100" len="48"/>
          <note key="31" pan="0" pos="720" vol="100" len="12"/>
          <note key="26" pan="0" pos="744" vol="100" len="12"/>
          <note key="29" pan="0" pos="768" vol="100" len="36"/>
          <note key="29" pan="0" pos="804" vol="100" len="12"/>
          <note key="29" pan="0" pos="840" vol="100" len="48"/>
          <note key="29" pan="0" pos="888" vol="100" len="12"/>
          <note key="29" pan="0" pos="912" vol="100" len="12"/>
          <note key="29" pan="0" pos="936" vol="100" len="12"/>
          <note key="38" pan="0" pos="960" vol="100" len="12"/>
          <note key="39" pan="0" pos="984" vol="100" len="12"/>
          <note key="41" pan="0" pos="1008" vol="100" len="12"/>
          <note key="39" pan="0" pos="1032" vol="100" len="12"/>
          <note key="36" pan="0" pos="1056" vol="100" len="48"/>
          <note key="34" pan="0" pos="1104" vol="100" len="12"/>
          <note key="33" pan="0" pos="1128" vol="100" len="12"/>
          <note key="31" pan="0" pos="1152" vol="100" len="36"/>
          <note key="31" pan="0" pos="1188" vol="100" len="12"/>
          <note key="31" pan="0" pos="1224" vol="100" len="48"/>
          <note key="31" pan="0" pos="1272" vol="100" len="12"/>
          <note key="31" pan="0" pos="1296" vol="100" len="12"/>
          <note key="31" pan="0" pos="1320" vol="100" len="12"/>
          <note key="34" pan="0" pos="1344" vol="100" len="12"/>
          <note key="36" pan="0" pos="1368" vol="100" len="12"/>
          <note key="38" pan="0" pos="1392" vol="100" len="12"/>
          <note key="36" pan="0" pos="1416" vol="100" len="12"/>
          <note key="34" pan="0" pos="1440" vol="100" len="48"/>
          <note key="31" pan="0" pos="1488" vol="100" len="12"/>
          <note key="26" pan="0" pos="1512" vol="100" len="12"/>
          <note key="30" pan="0" pos="1536" vol="100" len="36"/>
          <note key="30" pan="0" pos="1572" vol="100" len="12"/>
          <note key="30" pan="0" pos="1608" vol="100" len="48"/>
          <note key="30" pan="0" pos="1656" vol="100" len="12"/>
          <note key="30" pan="0" pos="1680" vol="100" len="12"/>
          <note key="30" pan="0" pos="1704" vol="100" len="12"/>
          <note key="33" pan="0" pos="1728" vol="100" len="12"/>
          <note key="31" pan="0" pos="1752" vol="100" len="12"/>
          <note key="30" pan="0" pos="1776" vol="100" len="12"/>
          <note key="27" pan="0" pos="1800" vol="100" len="12"/>
          <note key="26" pan="0" pos="1824" vol="100" len="96"/>
        </midiclip>
        <midiclip type="1" steps="16" pos="4992" name="" muted="0">
          <note key="31" pan="0" pos="0" vol="100" len="48"/>
          <note key="26" pan="0" pos="48" vol="100" len="12"/>
          <note key="29" pan="0" pos="84" vol="100" len="12"/>
          <note key="31" pan="0" pos="120" vol="100" len="48"/>
          <note key="29" pan="0" pos="168" vol="100" len="12"/>
          <note key="29" pan="0" pos="192" vol="100" len="48"/>
          <note key="24" pan="0" pos="240" vol="100" len="12"/>
          <note key="27" pan="0" pos="276" vol="100" len="12"/>
          <note key="29" pan="0" pos="312" vol="100" len="48"/>
          <note key="27" pan="0" pos="360" vol="100" len="12"/>
          <note key="27" pan="0" pos="384" vol="100" len="48"/>
          <note key="22" pan="0" pos="432" vol="100" len="12"/>
          <note key="26" pan="0" pos="468" vol="100" len="12"/>
          <note key="27" pan="0" pos="504" vol="100" len="48"/>
          <note key="26" pan="0" pos="552" vol="100" len="12"/>
          <note key="26" pan="0" pos="576" vol="100" len="48"/>
          <note key="21" pan="0" pos="624" vol="100" len="12"/>
          <note key="33" pan="0" pos="660" vol="100" len="12"/>
          <note key="30" pan="0" pos="672" vol="100" len="48"/>
          <note key="26" pan="0" pos="720" vol="100" len="12"/>
          <note key="29" pan="0" pos="756" vol="100" len="12"/>
          <note key="31" pan="0" pos="768" vol="100" len="48"/>
          <note key="26" pan="0" pos="816" vol="100" len="12"/>
          <note key="29" pan="0" pos="852" vol="100" len="12"/>
          <note key="31" pan="0" pos="888" vol="100" len="48"/>
          <note key="29" pan="0" pos="936" vol="100" len="12"/>
          <note key="29" pan="0" pos="960" vol="100" len="48"/>
          <note key="24" pan="0" pos="1008" vol="100" len="12"/>
          <note key="27" pan="0" pos="1044" vol="100" len="12"/>
          <note key="29" pan="0" pos="1080" vol="100" len="48"/>
          <note key="27" pan="0" pos="1128" vol="100" len="12"/>
          <note key="27" pan="0" pos="1152" vol="100" len="48"/>
          <note key="22" pan="0" pos="1200" vol="100" len="12"/>
          <note key="26" pan="0" pos="1236" vol="100" len="12"/>
          <note key="27" pan="0" pos="1272" vol="100" len="48"/>
          <note key="26" pan="0" pos="1320" vol="100" len="12"/>
          <note key="30" pan="0" pos="1344" vol="100" len="192"/>
        </midiclip>
        <midiclip type="1" steps="16" pos="7104" name="" muted="0">
          <note key="38" pan="0" pos="0" vol="100" len="24"/>
          <note key="33" pan="0" pos="24" vol="100" len="24"/>
          <note key="38" pan="0" pos="48" vol="100" len="24"/>
          <note key="43" pan="0" pos="72" vol="100" len="48"/>
          <note key="40" pan="0" pos="120" vol="100" len="24"/>
          <note key="38" pan="0" pos="144" vol="100" len="24"/>
          <note key="35" pan="0" pos="168" vol="100" len="48"/>
          <note key="31" pan="0" pos="216" vol="100" len="24"/>
          <note key="35" pan="0" pos="240" vol="100" len="24"/>
          <note key="41" pan="0" pos="264" vol="100" len="48"/>
          <note key="40" pan="0" pos="312" vol="100" len="24"/>
          <note key="38" pan="0" pos="336" vol="100" len="24"/>
          <note key="36" pan="0" pos="360" vol="100" len="24"/>
          <note key="38" pan="0" pos="384" vol="100" len="24"/>
          <note key="33" pan="0" pos="408" vol="100" len="24"/>
          <note key="38" pan="0" pos="432" vol="100" len="24"/>
          <note key="43" pan="0" pos="456" vol="100" len="48"/>
          <note key="38" pan="0" pos="504" vol="100" len="24"/>
          <note key="35" pan="0" pos="528" vol="100" len="24"/>
          <note key="47" pan="0" pos="552" vol="100" len="48"/>
          <note key="45" pan="0" pos="600" vol="100" len="24"/>
          <note key="43" pan="0" pos="624" vol="100" len="24"/>
          <note key="45" pan="0" pos="648" vol="100" len="48"/>
          <note key="43" pan="0" pos="696" vol="100" len="24"/>
          <note key="41" pan="0" pos="720" vol="100" len="24"/>
          <note key="40" pan="0" pos="744" vol="100" len="24"/>
          <note key="38" pan="0" pos="768" vol="100" len="24"/>
          <note key="33" pan="0" pos="792" vol="100" len="24"/>
          <note key="38" pan="0" pos="816" vol="100" len="24"/>
          <note key="43" pan="0" pos="840" vol="100" len="48"/>
          <note key="40" pan="0" pos="888" vol="100" len="24"/>
          <note key="38" pan="0" pos="912" vol="100" len="24"/>
          <note key="36" pan="0" pos="936" vol="100" len="48"/>
          <note key="31" pan="0" pos="984" vol="100" len="24"/>
          <note key="36" pan="0" pos="1008" vol="100" len="24"/>
          <note key="40" pan="0" pos="1032" vol="100" len="48"/>
          <note key="39" pan="0" pos="1104" vol="100" len="48"/>
          <note key="45" pan="0" pos="1152" vol="100" len="24"/>
          <note key="38" pan="0" pos="1176" vol="100" len="24"/>
          <note key="45" pan="0" pos="1200" vol="100" len="24"/>
          <note key="43" pan="0" pos="1224" vol="100" len="48"/>
          <note key="38" pan="0" pos="1272" vol="100" len="24"/>
          <note key="35" pan="0" pos="1296" vol="100" len="24"/>
          <note key="43" pan="0" pos="1320" vol="100" len="48"/>
          <note key="41" pan="0" pos="1368" vol="100" len="24"/>
          <note key="40" pan="0" pos="1392" vol="100" len="24"/>
          <note key="38" pan="0" pos="1416" vol="100" len="48"/>
          <note key="36" pan="0" pos="1464" vol="100" len="24"/>
          <note key="38" pan="0" pos="1488" vol="100" len="24"/>
          <note key="45" pan="0" pos="1512" vol="100" len="24"/>
          <note key="53" pan="0" pos="1536" vol="100" len="24"/>
          <note key="48" pan="0" pos="1560" vol="100" len="24"/>
          <note key="53" pan="0" pos="1584" vol="100" len="24"/>
          <note key="49" pan="0" pos="1608" vol="100" len="48"/>
          <note key="41" pan="0" pos="1656" vol="100" len="24"/>
          <note key="44" pan="0" pos="1680" vol="100" len="24"/>
          <note key="49" pan="0" pos="1704" vol="100" len="24"/>
          <note key="51" pan="0" pos="1728" vol="100" len="24"/>
          <note key="46" pan="0" pos="1752" vol="100" len="24"/>
          <note key="51" pan="0" pos="1776" vol="100" len="24"/>
          <note key="48" pan="0" pos="1800" vol="100" len="48"/>
          <note key="43" pan="0" pos="1848" vol="100" len="24"/>
          <note key="46" pan="0" pos="1872" vol="100" len="24"/>
          <note key="45" pan="0" pos="1896" vol="100" len="24"/>
          <note key="44" pan="0" pos="1920" vol="100" len="24"/>
          <note key="41" pan="0" pos="1944" vol="100" len="24"/>
          <note key="48" pan="0" pos="1968" vol="100" len="24"/>
          <note key="34" pan="0" pos="1992" vol="100" len="48"/>
          <note key="41" pan="0" pos="2040" vol="100" len="24"/>
          <note key="53" pan="0" pos="2064" vol="100" len="24"/>
          <note key="52" pan="0" pos="2088" vol="100" len="24"/>
          <note key="38" pan="0" pos="2112" vol="100" len="24"/>
          <note key="34" pan="0" pos="2136" vol="100" len="24"/>
          <note key="46" pan="0" pos="2160" vol="100" len="24"/>
          <note key="44" pan="0" pos="2184" vol="100" len="48"/>
          <note key="43" pan="0" pos="2232" vol="100" len="24"/>
          <note key="42" pan="0" pos="2256" vol="100" len="12"/>
          <note key="41" pan="0" pos="2280" vol="100" len="24"/>
          <note key="53" pan="0" pos="2304" vol="100" len="24"/>
          <note key="48" pan="0" pos="2328" vol="100" len="24"/>
          <note key="53" pan="0" pos="2352" vol="100" len="24"/>
          <note key="49" pan="0" pos="2376" vol="100" len="48"/>
          <note key="46" pan="0" pos="2424" vol="100" len="24"/>
          <note key="44" pan="0" pos="2448" vol="100" len="24"/>
          <note key="49" pan="0" pos="2472" vol="100" len="24"/>
          <note key="51" pan="0" pos="2496" vol="100" len="24"/>
          <note key="46" pan="0" pos="2520" vol="100" len="24"/>
          <note key="51" pan="0" pos="2544" vol="100" len="24"/>
          <note key="52" pan="0" pos="2568" vol="100" len="48"/>
          <note key="36" pan="0" pos="2616" vol="100" len="24"/>
          <note key="43" pan="0" pos="2640" vol="100" len="24"/>
          <note key="42" pan="0" pos="2664" vol="100" len="24"/>
          <note key="41" pan="0" pos="2688" vol="100" len="24"/>
          <note key="36" pan="0" pos="2712" vol="100" len="24"/>
          <note key="39" pan="0" pos="2736" vol="100" len="12"/>
          <note key="38" pan="0" pos="2760" vol="100" len="48"/>
          <note key="46" pan="0" pos="2808" vol="100" len="48"/>
          <note key="36" pan="0" pos="2856" vol="100" len="24"/>
          <note key="38" pan="0" pos="2880" vol="100" len="24"/>
          <note key="34" pan="0" pos="2904" vol="100" len="24"/>
          <note key="46" pan="0" pos="2928" vol="100" len="12"/>
          <note key="44" pan="0" pos="2952" vol="100" len="48"/>
          <note key="41" pan="0" pos="3000" vol="100" len="48"/>
          <note key="39" pan="0" pos="3048" vol="100" len="24"/>
          <note key="41" pan="0" pos="3072" vol="100" len="384"/>
          <note key="46" pan="0" pos="3456" vol="100" len="384"/>
          <note key="43" pan="0" pos="3840" vol="100" len="384"/>
          <note key="41" pan="0" pos="4224" vol="100" len="384"/>
        </midiclip>
      </track>
      <track type="0" name="Bass>Saw" solo="0" mutedBeforeSolo="0" muted="0">
        <instrumenttrack usemasterpitch="1" mixch="9" firstkey="0" keymap="0" lastkey="127" pan="0" enablecc="0" pitch="0" pitchrange="1" basenote="57" scale="0" enabled="0" range_import="1">
          <vol value="100" id="29800" scale_type="linear"/>
          <midicontrollers cc43="0" cc74="0" cc111="0" cc119="0" cc124="0" cc108="0" cc7="0" cc49="0" cc95="0" cc116="0" cc35="0" cc98="0" cc105="0" cc14="0" cc48="0" cc65="0" cc11="0" cc17="0" cc34="0" cc23="0" cc15="0" cc22="0" cc55="0" cc68="0" cc4="0" cc28="0" cc13="0" cc44="0" cc69="0" cc3="0" cc77="0" cc73="0" cc1="0" cc80="0" cc58="0" cc120="0" cc0="0" cc21="0" cc85="0" cc115="0" cc29="0" cc66="0" cc53="0" cc90="0" cc96="0" cc37="0" cc46="0" cc25="0" cc109="0" cc52="0" cc110="0" cc75="0" cc57="0" cc92="0" cc93="0" cc125="0" cc18="0" cc122="0" cc19="0" cc32="0" cc103="0" cc86="0" cc121="0" cc6="0" cc56="0" cc94="0" cc70="0" cc64="0" cc127="0" cc59="0" cc63="0" cc9="0" cc82="0" cc78="0" cc114="0" cc104="0" cc36="0" cc30="0" cc12="0" cc10="0" cc84="0" cc76="0" cc88="0" cc20="0" cc16="0" cc101="0" cc27="0" cc8="0" cc5="0" cc81="0" cc24="0" cc99="0" cc60="0" cc102="0" cc106="0" cc26="0" cc61="0" cc39="0" cc33="0" cc38="0" cc45="0" cc100="0" cc112="0" cc126="0" cc67="0" cc50="0" cc42="0" cc113="0" cc41="0" cc87="0" cc107="0" cc2="0" cc79="0" cc123="0" cc40="0" cc71="0" cc97="0" cc83="0" cc118="0" cc62="0" cc117="0" cc72="0" cc31="0" cc54="0" cc91="0" cc89="0" cc47="0" cc51="0"/>
          <instrument name="sf2player">
            <sf2player bank="0" reverbDamping="0" chorusNum="3" gain="0.34" chorusOn="0" chorusLevel="2" chorusSpeed="0.3" patch="5" reverbRoomSize="0.2" reverbLevel="0.9" reverbWidth="0.5" chorusDepth="8" src="usersoundfont:C64 Waveform Bank.sf2" reverbOn="0">
              <key/>
            </sf2player>
          </instrument>
          <eldata fcut="14000" ftype="0" fres="0.5" fwet="0">
            <elvol sustain="0.5" lspd_denominator="4" dec="0.5" pdel="0" rel="0.1" userwavefile="" latt="0" lspd_numerator="4" att="0" amt="0" ctlenvamt="0" lspd="0.1" lshp="0" x100="0" lpdel="0" hold="0.5" lspd_syncmode="0" lamt="0"/>
            <elcut sustain="0.5" lspd_denominator="4" dec="0.5" pdel="0" rel="0.1" userwavefile="" latt="0" lspd_numerator="4" att="0" amt="0" ctlenvamt="0" lspd="0.1" lshp="0" x100="0" lpdel="0" hold="0.5" lspd_syncmode="0" lamt="0"/>
            <elres sustain="0.5" lspd_denominator="4" dec="0.5" pdel="0" rel="0.1" userwavefile="" latt="0" lspd_numerator="4" att="0" amt="0" ctlenvamt="0" lspd="0.1" lshp="0" x100="0" lpdel="0" hold="0.5" lspd_syncmode="0" lamt="0"/>
          </eldata>
          <chordcreator chord-enabled="0" chord="0" chordrange="1"/>
          <arpeggiator arpmode="0" arpskip="0" arprange="1" arpmiss="0" arptime_numerator="4" arptime="200" arptime_denominator="4" arpdir="0" arprepeats="1" arp-enabled="0" arpcycle="0" arpgate="100" arp="0" arptime_syncmode="0"/>
          <midiport inputcontroller="0" fixedinputvelocity="-1" fixedoutputvelocity="-1" outputcontroller="0" outputprogram="1" writable="0" fixedoutputnote="-1" outputchannel="1" basevelocity="63" inputchannel="0" inports="" readable="1"/>
          <fxchain numofeffects="0" enabled="0"/>
        </instrumenttrack>
        <midiclip type="1" steps="16" pos="768" name="" muted="0">
          <note key="31" pan="0" pos="0" vol="100" len="36"/>
          <note key="31" pan="0" pos="36" vol="100" len="12"/>
          <note key="27" pan="0" pos="72" vol="100" len="48"/>
          <note key="27" pan="0" pos="120" vol="100" len="12"/>
          <note key="27" pan="0" pos="144" vol="100" len="24"/>
          <note key="27" pan="0" pos="168" vol="100" len="12"/>
          <note key="29" pan="0" pos="192" vol="100" len="36"/>
          <note key="29" pan="0" pos="228" vol="100" len="12"/>
          <note key="31" pan="0" pos="264" vol="100" len="48"/>
          <note key="31" pan="0" pos="312" vol="100" len="12"/>
          <note key="31" pan="0" pos="336" vol="100" len="24"/>
          <note key="31" pan="0" pos="360" vol="100" len="12"/>
          <note key="34" pan="0" pos="384" vol="100" len="36"/>
          <note key="31" pan="0" pos="420" vol="100" len="12"/>
          <note key="36" pan="0" pos="456" vol="100" len="48"/>
          <note key="24" pan="0" pos="504" vol="100" len="12"/>
          <note key="24" pan="0" pos="528" vol="100" len="12"/>
          <note key="24" pan="0" pos="552" vol="100" len="12"/>
          <note key="24" pan="0" pos="576" vol="100" len="12"/>
          <note key="24" pan="0" pos="600" vol="100" len="12"/>
          <note key="24" pan="0" pos="624" vol="100" len="12"/>
          <note key="24" pan="0" pos="648" vol="100" len="48"/>
          <note key="24" pan="0" pos="696" vol="100" len="12"/>
          <note key="24" pan="0" pos="720" vol="100" len="12"/>
          <note key="24" pan="0" pos="744" vol="100" len="12"/>
        </midiclip>
        <midiclip type="1" steps="16" pos="1536" name="" muted="0">
          <note key="31" pan="0" pos="0" vol="100" len="36"/>
          <note key="31" pan="0" pos="36" vol="100" len="12"/>
          <note key="27" pan="0" pos="72" vol="100" len="48"/>
          <note key="27" pan="0" pos="120" vol="100" len="12"/>
          <note key="27" pan="0" pos="144" vol="100" len="24"/>
          <note key="27" pan="0" pos="168" vol="100" len="12"/>
          <note key="29" pan="0" pos="192" vol="100" len="36"/>
          <note key="29" pan="0" pos="228" vol="100" len="12"/>
          <note key="31" pan="0" pos="264" vol="100" len="48"/>
          <note key="31" pan="0" pos="312" vol="100" len="12"/>
          <note key="31" pan="0" pos="336" vol="100" len="24"/>
          <note key="31" pan="0" pos="360" vol="100" len="12"/>
          <note key="34" pan="0" pos="384" vol="100" len="36"/>
          <note key="31" pan="0" pos="420" vol="100" len="12"/>
          <note key="36" pan="0" pos="456" vol="100" len="48"/>
          <note key="24" pan="0" pos="504" vol="100" len="12"/>
          <note key="24" pan="0" pos="528" vol="100" len="12"/>
          <note key="24" pan="0" pos="552" vol="100" len="12"/>
          <note key="36" pan="0" pos="576" vol="100" len="12"/>
          <note key="38" pan="0" pos="600" vol="100" len="12"/>
          <note key="36" pan="0" pos="624" vol="100" len="12"/>
          <note key="34" pan="0" pos="648" vol="100" len="48"/>
          <note key="31" pan="0" pos="696" vol="100" len="12"/>
          <note key="29" pan="0" pos="720" vol="100" len="12"/>
          <note key="26" pan="0" pos="744" vol="100" len="12"/>
        </midiclip>
        <midiclip type="1" steps="16" pos="2304" name="" muted="0">
          <note key="31" pan="0" pos="0" vol="100" len="36"/>
          <note key="31" pan="0" pos="36" vol="100" len="12"/>
          <note key="27" pan="0" pos="72" vol="100" len="48"/>
          <note key="27" pan="0" pos="120" vol="100" len="12"/>
          <note key="27" pan="0" pos="144" vol="100" len="24"/>
          <note key="27" pan="0" pos="168" vol="100" len="12"/>
          <note key="29" pan="0" pos="192" vol="100" len="36"/>
          <note key="29" pan="0" pos="228" vol="100" len="12"/>
          <note key="30" pan="0" pos="264" vol="100" len="48"/>
          <note key="30" pan="0" pos="312" vol="100" len="12"/>
          <note key="33" pan="0" pos="336" vol="100" len="24"/>
          <note key="33" pan="0" pos="360" vol="100" len="12"/>
          <note key="31" pan="0" pos="384" vol="100" len="36"/>
          <note key="31" pan="0" pos="420" vol="100" len="12"/>
          <note key="43" pan="0" pos="456" vol="100" len="24"/>
          <note key="26" pan="0" pos="480" vol="100" len="12"/>
          <note key="26" pan="0" pos="504" vol="100" len="12"/>
          <note key="29" pan="0" pos="528" vol="100" len="12"/>
          <note key="30" pan="0" pos="552" vol="100" len="12"/>
          <note key="31" pan="0" pos="576" vol="100" len="36"/>
          <note key="31" pan="0" pos="612" vol="100" len="12"/>
          <note key="43" pan="0" pos="648" vol="100" len="24"/>
          <note key="26" pan="0" pos="672" vol="100" len="12"/>
          <note key="26" pan="0" pos="696" vol="100" len="12"/>
          <note key="29" pan="0" pos="720" vol="100" len="12"/>
          <note key="30" pan="0" pos="744" vol="100" len="12"/>
        </midiclip>
        <midiclip type="1" steps="16" pos="3072" name="" muted="0">
          <note key="31" pan="0" pos="0" vol="100" len="36"/>
          <note key="31" pan="0" pos="36" vol="100" len="12"/>
          <note key="27" pan="0" pos="72" vol="100" len="48"/>
          <note key="27" pan="0" pos="120" vol="100" len="12"/>
          <note key="27" pan="0" pos="144" vol="100" len="24"/>
          <note key="27" pan="0" pos="168" vol="100" len="12"/>
          <note key="29" pan="0" pos="192" vol="100" len="36"/>
          <note key="29" pan="0" pos="228" vol="100" len="12"/>
          <note key="26" pan="0" pos="264" vol="100" len="48"/>
          <note key="26" pan="0" pos="312" vol="100" len="12"/>
          <note key="33" pan="0" pos="336" vol="100" len="24"/>
          <note key="33" pan="0" pos="360" vol="100" len="12"/>
          <note key="31" pan="0" pos="384" vol="100" len="36"/>
          <note key="31" pan="0" pos="420" vol="100" len="12"/>
          <note key="31" pan="0" pos="456" vol="100" len="48"/>
          <note key="31" pan="0" pos="504" vol="100" len="12"/>
          <note key="31" pan="0" pos="528" vol="100" len="12"/>
          <note key="31" pan="0" pos="552" vol="100" len="12"/>
          <note key="34" pan="0" pos="576" vol="100" len="12"/>
          <note key="36" pan="0" pos="600" vol="100" len="12"/>
          <note key="38" pan="0" pos="624" vol="100" len="12"/>
          <note key="36" pan="0" pos="648" vol="100" len="12"/>
          <note key="34" pan="0" pos="672" vol="100" len="48"/>
          <note key="31" pan="0" pos="720" vol="100" len="12"/>
          <note key="26" pan="0" pos="744" vol="100" len="12"/>
          <note key="29" pan="0" pos="768" vol="100" len="36"/>
          <note key="29" pan="0" pos="804" vol="100" len="12"/>
          <note key="29" pan="0" pos="840" vol="100" len="48"/>
          <note key="29" pan="0" pos="888" vol="100" len="12"/>
          <note key="29" pan="0" pos="912" vol="100" len="12"/>
          <note key="29" pan="0" pos="936" vol="100" len="12"/>
          <note key="38" pan="0" pos="960" vol="100" len="12"/>
          <note key="39" pan="0" pos="984" vol="100" len="12"/>
          <note key="41" pan="0" pos="1008" vol="100" len="12"/>
          <note key="39" pan="0" pos="1032" vol="100" len="12"/>
          <note key="36" pan="0" pos="1056" vol="100" len="48"/>
          <note key="34" pan="0" pos="1104" vol="100" len="12"/>
          <note key="33" pan="0" pos="1128" vol="100" len="12"/>
          <note key="31" pan="0" pos="1152" vol="100" len="36"/>
          <note key="31" pan="0" pos="1188" vol="100" len="12"/>
          <note key="31" pan="0" pos="1224" vol="100" len="48"/>
          <note key="31" pan="0" pos="1272" vol="100" len="12"/>
          <note key="31" pan="0" pos="1296" vol="100" len="12"/>
          <note key="31" pan="0" pos="1320" vol="100" len="12"/>
          <note key="34" pan="0" pos="1344" vol="100" len="12"/>
          <note key="36" pan="0" pos="1368" vol="100" len="12"/>
          <note key="38" pan="0" pos="1392" vol="100" len="12"/>
          <note key="36" pan="0" pos="1416" vol="100" len="12"/>
          <note key="34" pan="0" pos="1440" vol="100" len="48"/>
          <note key="31" pan="0" pos="1488" vol="100" len="12"/>
          <note key="26" pan="0" pos="1512" vol="100" len="12"/>
          <note key="30" pan="0" pos="1536" vol="100" len="36"/>
          <note key="30" pan="0" pos="1572" vol="100" len="12"/>
          <note key="30" pan="0" pos="1608" vol="100" len="48"/>
          <note key="30" pan="0" pos="1656" vol="100" len="12"/>
          <note key="30" pan="0" pos="1680" vol="100" len="12"/>
          <note key="30" pan="0" pos="1704" vol="100" len="12"/>
          <note key="33" pan="0" pos="1728" vol="100" len="12"/>
          <note key="31" pan="0" pos="1752" vol="100" len="12"/>
          <note key="30" pan="0" pos="1776" vol="100" len="12"/>
          <note key="27" pan="0" pos="1800" vol="100" len="12"/>
          <note key="26" pan="0" pos="1824" vol="100" len="96"/>
        </midiclip>
        <midiclip type="1" steps="16" pos="4992" name="" muted="0">
          <note key="31" pan="0" pos="0" vol="100" len="48"/>
          <note key="26" pan="0" pos="48" vol="100" len="12"/>
          <note key="29" pan="0" pos="84" vol="100" len="12"/>
          <note key="31" pan="0" pos="120" vol="100" len="48"/>
          <note key="29" pan="0" pos="168" vol="100" len="12"/>
          <note key="29" pan="0" pos="192" vol="100" len="48"/>
          <note key="24" pan="0" pos="240" vol="100" len="12"/>
          <note key="27" pan="0" pos="276" vol="100" len="12"/>
          <note key="29" pan="0" pos="312" vol="100" len="48"/>
          <note key="27" pan="0" pos="360" vol="100" len="12"/>
          <note key="27" pan="0" pos="384" vol="100" len="48"/>
          <note key="22" pan="0" pos="432" vol="100" len="12"/>
          <note key="26" pan="0" pos="468" vol="100" len="12"/>
          <note key="27" pan="0" pos="504" vol="100" len="48"/>
          <note key="26" pan="0" pos="552" vol="100" len="12"/>
          <note key="26" pan="0" pos="576" vol="100" len="48"/>
          <note key="21" pan="0" pos="624" vol="100" len="12"/>
          <note key="33" pan="0" pos="660" vol="100" len="12"/>
          <note key="30" pan="0" pos="672" vol="100" len="48"/>
          <note key="26" pan="0" pos="720" vol="100" len="12"/>
          <note key="29" pan="0" pos="756" vol="100" len="12"/>
          <note key="31" pan="0" pos="768" vol="100" len="48"/>
          <note key="26" pan="0" pos="816" vol="100" len="12"/>
          <note key="29" pan="0" pos="852" vol="100" len="12"/>
          <note key="31" pan="0" pos="888" vol="100" len="48"/>
          <note key="29" pan="0" pos="936" vol="100" len="12"/>
          <note key="29" pan="0" pos="960" vol="100" len="48"/>
          <note key="24" pan="0" pos="1008" vol="100" len="12"/>
          <note key="27" pan="0" pos="1044" vol="100" len="12"/>
          <note key="29" pan="0" pos="1080" vol="100" len="48"/>
          <note key="27" pan="0" pos="1128" vol="100" len="12"/>
          <note key="27" pan="0" pos="1152" vol="100" len="48"/>
          <note key="22" pan="0" pos="1200" vol="100" len="12"/>
          <note key="26" pan="0" pos="1236" vol="100" len="12"/>
          <note key="27" pan="0" pos="1272" vol="100" len="48"/>
          <note key="26" pan="0" pos="1320" vol="100" len="12"/>
          <note key="30" pan="0" pos="1344" vol="100" len="192"/>
        </midiclip>
        <midiclip type="1" steps="16" pos="7104" name="" muted="0">
          <note key="38" pan="0" pos="0" vol="100" len="24"/>
          <note key="33" pan="0" pos="24" vol="100" len="24"/>
          <note key="38" pan="0" pos="48" vol="100" len="24"/>
          <note key="43" pan="0" pos="72" vol="100" len="48"/>
          <note key="40" pan="0" pos="120" vol="100" len="24"/>
          <note key="38" pan="0" pos="144" vol="100" len="24"/>
          <note key="35" pan="0" pos="168" vol="100" len="48"/>
          <note key="31" pan="0" pos="216" vol="100" len="24"/>
          <note key="35" pan="0" pos="240" vol="100" len="24"/>
          <note key="41" pan="0" pos="264" vol="100" len="48"/>
          <note key="40" pan="0" pos="312" vol="100" len="24"/>
          <note key="38" pan="0" pos="336" vol="100" len="24"/>
          <note key="36" pan="0" pos="360" vol="100" len="24"/>
          <note key="38" pan="0" pos="384" vol="100" len="24"/>
          <note key="33" pan="0" pos="408" vol="100" len="24"/>
          <note key="38" pan="0" pos="432" vol="100" len="24"/>
          <note key="43" pan="0" pos="456" vol="100" len="48"/>
          <note key="38" pan="0" pos="504" vol="100" len="24"/>
          <note key="35" pan="0" pos="528" vol="100" len="24"/>
          <note key="47" pan="0" pos="552" vol="100" len="48"/>
          <note key="45" pan="0" pos="600" vol="100" len="24"/>
          <note key="43" pan="0" pos="624" vol="100" len="24"/>
          <note key="45" pan="0" pos="648" vol="100" len="48"/>
          <note key="43" pan="0" pos="696" vol="100" len="24"/>
          <note key="41" pan="0" pos="720" vol="100" len="24"/>
          <note key="40" pan="0" pos="744" vol="100" len="24"/>
          <note key="38" pan="0" pos="768" vol="100" len="24"/>
          <note key="33" pan="0" pos="792" vol="100" len="24"/>
          <note key="38" pan="0" pos="816" vol="100" len="24"/>
          <note key="43" pan="0" pos="840" vol="100" len="48"/>
          <note key="40" pan="0" pos="888" vol="100" len="24"/>
          <note key="38" pan="0" pos="912" vol="100" len="24"/>
          <note key="36" pan="0" pos="936" vol="100" len="48"/>
          <note key="31" pan="0" pos="984" vol="100" len="24"/>
          <note key="36" pan="0" pos="1008" vol="100" len="24"/>
          <note key="40" pan="0" pos="1032" vol="100" len="48"/>
          <note key="39" pan="0" pos="1104" vol="100" len="48"/>
          <note key="45" pan="0" pos="1152" vol="100" len="24"/>
          <note key="38" pan="0" pos="1176" vol="100" len="24"/>
          <note key="45" pan="0" pos="1200" vol="100" len="24"/>
          <note key="43" pan="0" pos="1224" vol="100" len="48"/>
          <note key="38" pan="0" pos="1272" vol="100" len="24"/>
          <note key="35" pan="0" pos="1296" vol="100" len="24"/>
          <note key="43" pan="0" pos="1320" vol="100" len="48"/>
          <note key="41" pan="0" pos="1368" vol="100" len="24"/>
          <note key="40" pan="0" pos="1392" vol="100" len="24"/>
          <note key="38" pan="0" pos="1416" vol="100" len="48"/>
          <note key="36" pan="0" pos="1464" vol="100" len="24"/>
          <note key="38" pan="0" pos="1488" vol="100" len="24"/>
          <note key="45" pan="0" pos="1512" vol="100" len="24"/>
          <note key="53" pan="0" pos="1536" vol="100" len="24"/>
          <note key="48" pan="0" pos="1560" vol="100" len="24"/>
          <note key="53" pan="0" pos="1584" vol="100" len="24"/>
          <note key="49" pan="0" pos="1608" vol="100" len="48"/>
          <note key="41" pan="0" pos="1656" vol="100" len="24"/>
          <note key="44" pan="0" pos="1680" vol="100" len="24"/>
          <note key="49" pan="0" pos="1704" vol="100" len="24"/>
          <note key="51" pan="0" pos="1728" vol="100" len="24"/>
          <note key="46" pan="0" pos="1752" vol="100" len="24"/>
          <note key="51" pan="0" pos="1776" vol="100" len="24"/>
          <note key="48" pan="0" pos="1800" vol="100" len="48"/>
          <note key="43" pan="0" pos="1848" vol="100" len="24"/>
          <note key="46" pan="0" pos="1872" vol="100" len="24"/>
          <note key="45" pan="0" pos="1896" vol="100" len="24"/>
          <note key="44" pan="0" pos="1920" vol="100" len="24"/>
          <note key="41" pan="0" pos="1944" vol="100" len="24"/>
          <note key="48" pan="0" pos="1968" vol="100" len="24"/>
          <note key="34" pan="0" pos="1992" vol="100" len="48"/>
          <note key="41" pan="0" pos="2040" vol="100" len="24"/>
          <note key="53" pan="0" pos="2064" vol="100" len="24"/>
          <note key="52" pan="0" pos="2088" vol="100" len="24"/>
          <note key="38" pan="0" pos="2112" vol="100" len="24"/>
          <note key="34" pan="0" pos="2136" vol="100" len="24"/>
          <note key="46" pan="0" pos="2160" vol="100" len="24"/>
          <note key="44" pan="0" pos="2184" vol="100" len="48"/>
          <note key="43" pan="0" pos="2232" vol="100" len="24"/>
          <note key="42" pan="0" pos="2256" vol="100" len="12"/>
          <note key="41" pan="0" pos="2280" vol="100" len="24"/>
          <note key="53" pan="0" pos="2304" vol="100" len="24"/>
          <note key="48" pan="0" pos="2328" vol="100" len="24"/>
          <note key="53" pan="0" pos="2352" vol="100" len="24"/>
          <note key="49" pan="0" pos="2376" vol="100" len="48"/>
          <note key="46" pan="0" pos="2424" vol="100" len="24"/>
          <note key="44" pan="0" pos="2448" vol="100" len="24"/>
          <note key="49" pan="0" pos="2472" vol="100" len="24"/>
          <note key="51" pan="0" pos="2496" vol="100" len="24"/>
          <note key="46" pan="0" pos="2520" vol="100" len="24"/>
          <note key="51" pan="0" pos="2544" vol="100" len="24"/>
          <note key="52" pan="0" pos="2568" vol="100" len="48"/>
          <note key="36" pan="0" pos="2616" vol="100" len="24"/>
          <note key="43" pan="0" pos="2640" vol="100" len="24"/>
          <note key="42" pan="0" pos="2664" vol="100" len="24"/>
          <note key="41" pan="0" pos="2688" vol="100" len="24"/>
          <note key="36" pan="0" pos="2712" vol="100" len="24"/>
          <note key="39" pan="0" pos="2736" vol="100" len="12"/>
          <note key="38" pan="0" pos="2760" vol="100" len="48"/>
          <note key="46" pan="0" pos="2808" vol="100" len="48"/>
          <note key="36" pan="0" pos="2856" vol="100" len="24"/>
          <note key="38" pan="0" pos="2880" vol="100" len="24"/>
          <note key="34" pan="0" pos="2904" vol="100" len="24"/>
          <note key="46" pan="0" pos="2928" vol="100" len="12"/>
          <note key="44" pan="0" pos="2952" vol="100" len="48"/>
          <note key="41" pan="0" pos="3000" vol="100" len="48"/>
          <note key="39" pan="0" pos="3048" vol="100" len="24"/>
          <note key="41" pan="0" pos="3072" vol="100" len="384"/>
          <note key="46" pan="0" pos="3456" vol="100" len="384"/>
          <note key="43" pan="0" pos="3840" vol="100" len="384"/>
          <note key="41" pan="0" pos="4224" vol="100" len="384"/>
        </midiclip>
      </track>
      <track type="5" name="Bass>Saw>Volume" solo="0" trackheight="32" mutedBeforeSolo="0" muted="0">
        <automationtrack/>
        <automationclip tens="1" mute="0" prog="1" pos="1152" name="C64 Waveform Bank>Volume" len="384">
          <time value="100" pos="0" outValue="100"/>
          <object id="29800"/>
        </automationclip>
        <automationclip tens="1" mute="0" prog="0" pos="0" name="Bass>Saw>Volume" len="192">
          <time value="0" pos="0" outValue="0"/>
          <object id="29800"/>
        </automationclip>
      </track>
      <track type="0" name="Blip" solo="0" mutedBeforeSolo="0" muted="0">
        <instrumenttrack usemasterpitch="1" mixch="10" firstkey="0" keymap="0" lastkey="127" pan="0" enablecc="0" pitch="0" pitchrange="1" vol="100" basenote="69" scale="0" enabled="0" range_import="1">
          <midicontrollers cc43="0" cc74="0" cc111="0" cc119="0" cc124="0" cc108="0" cc7="0" cc49="0" cc95="0" cc116="0" cc35="0" cc98="0" cc105="0" cc14="0" cc48="0" cc65="0" cc11="0" cc17="0" cc34="0" cc23="0" cc15="0" cc22="0" cc55="0" cc68="0" cc4="0" cc28="0" cc13="0" cc44="0" cc69="0" cc3="0" cc77="0" cc73="0" cc1="0" cc80="0" cc58="0" cc120="0" cc0="0" cc21="0" cc85="0" cc115="0" cc29="0" cc66="0" cc53="0" cc90="0" cc96="0" cc37="0" cc46="0" cc25="0" cc109="0" cc52="0" cc110="0" cc75="0" cc57="0" cc92="0" cc93="0" cc125="0" cc18="0" cc122="0" cc19="0" cc32="0" cc103="0" cc86="0" cc121="0" cc6="0" cc56="0" cc94="0" cc70="0" cc64="0" cc127="0" cc59="0" cc63="0" cc9="0" cc82="0" cc78="0" cc114="0" cc104="0" cc36="0" cc30="0" cc12="0" cc10="0" cc84="0" cc76="0" cc88="0" cc20="0" cc16="0" cc101="0" cc27="0" cc8="0" cc5="0" cc81="0" cc24="0" cc99="0" cc60="0" cc102="0" cc106="0" cc26="0" cc61="0" cc39="0" cc33="0" cc38="0" cc45="0" cc100="0" cc112="0" cc126="0" cc67="0" cc50="0" cc42="0" cc113="0" cc41="0" cc87="0" cc107="0" cc2="0" cc79="0" cc123="0" cc40="0" cc71="0" cc97="0" cc83="0" cc118="0" cc62="0" cc117="0" cc72="0" cc31="0" cc54="0" cc91="0" cc89="0" cc47="0" cc51="0"/>
          <instrument name="vestige">
            <vestige program="0" chunk="AACAP4mIiD0AAIA/AAAAAAAAAD8AAIA/AAAAPwAAAD8AAAA/AAAAPwAAAD8AAAA/AAAAPwAAQD8AAEA/AABAPwAAQD8AAEA/AABAPwAAQD8AAEA/AABAPwAAQD8AAEA/AABAPwAAQD8AAEA/AABAPwAAQD8AAEA/AABAPwAAQD8AAEA/AABAPwAAQD8AAEA/AABAPwAAQD8AAEA/AABAPwAAQD8AAEA/AABAPwAAQD8AAEA/AABAPwAAQD8AAEA/AABAPwAAQD8AAEA/AABAPwAAQD8AAEA/AABAPwAAQD8AAEA/AABAPwAAQD8AAEA/AABAPwAAQD8AAEA/AABAPwAAQD8AAEA/AABAPwAAQD/MzEw9AAAAAAAAgD+JiIg9AACAPwAAAAAAAAAAAAAwPwAAAD8AAMA+AACgPgAAwD4AAOA+AAAAPwAAAD8AAAAAAAAAAAAAAAAAAAAAAAAAAAAAAAAAAAAAAAAAAAAAAAAAAAAAAAAAAAAAAAAAAAAAAAAAAAAAAAAAAAAAAAAAAAAAAAAAAAAAAAAAAAAAAAAAAAAAAAAAAAAAAAAAAAAAAAAAAAAAAAAAAAAAAAAAAAAAAAAAAAAAAAAAAAAAAAAAAAAAAAAAAAAAAAAAAAAAAAAAAAAAAAAAAAAAAAAAAAAAAAAAAAAAAAAAAAAAAAAAAAAAAAAAAAAAAAAAAAAAAAAAAAAAAAAAAAAAAAAAAAAAAAAAAAAAAAAAAAAAAAAAAAAAsMyMPgAAAAAAAAAAAAAAAAAAAAAAAAAAAAAAAAAAAAAAAAAAAAAAPwAAgD+JiIg9AABgPwAAAAAAAAA/AAAAPwAAAD8AAAA/AAAAPwAAAD8AAAA/AAAAPwAAAD8AAAAAAAAAAAAAAAAAAAAAAAAAAAAAAAAAAAAAAAAAAAAAAAAAAAAAAAAAAAAAAAAAAAAAAAAAAAAAAAAAAAAAAAAAAAAAAAAAAAAAAAAAAAAAAAAAAAAAAAAAAAAAAAAAAAAAAAAAAAAAAAAAAAAAAAAAAAAAAAAAAAAAAAAAAAAAAAAAAAAAAAAAAAAAAAAAAAAAAAAAAAAAAAAAAAAAAAAAAAAAAAAAAAAAAAAAAAAAAAAAAAAAAAAAAAAAAAAAAAAAAAAAAAAAAAAAAAAAAAAAAAAAAAAAAAAATI4rPszMTD0AAAAAAAAAPwAAAAAAAAAAAACAPwAAgD+JiIg9AACAPwAAgD+amRk/iYiIPomIiD6JiIg+iYgIPgAAAAAAAAAAAAAAAImIiD6JiAg+iYgIPgAAAACJiAg/8O7uPvDu7j7OzMw+zszMPs7MzD7OzMw+zszMPquqqj6rqqo+iYiIPomIiD7OzEw+zsxMPomICD6JiAg+iYgIPomIiD2JiIg9iYiIPQAAAACJiIg9AAAAAAAAAAAAAAAAAAAAAAAAAAAAAAAAAAAAAAAAAAAAAAAAAAAAAAAAAAAAAAAAAAAAAAAAAAAAAAAAAAAAAAAAAAAAAAAAAAAAAAAAAAAAAAAAAAAAAAAAAAAAAAAAAAAAAAAAAAAAAAAAAAAAAAAAAAAAAAAAAAAAAAAAAABEZWZhdWx0IFNxdWFyZQBudABzABgOMwUADTMFQBMzBQAAgD+JiIg9AACAPwAAAAAAAEA/AABAPwAAQD8AAEA/AABAPwAAQD8AAEA/AABAPwAAAAAAAAAAAAAAAAAAAAAAAAAAAAAAAAAAAAAAAAAAAAAAAAAAAAAAAAAAAAAAAAAAAAAAAAAAAAAAAAAAAAAAAAAAAAAAAAAAAAAAAAAAAAAAAAAAAAAAAAAAAAAAAAAAAAAAAAAAAAAAAAAAAAAAAAAAAAAAAAAAAAAAAAAAAAAAAAAAAAAAAAAAAAAAAAAAAAAAAAAAAAAAAAAAAAAAAAAAAAAAAAAAAAAAAAAAAAAAAAAAAAAAAAAAAAAAAAAAAAAAAAAAAAAAAAAAAAAAAAAAAAAAAAAAAAAAAAAA5W+CPQAAgD8AAIA/tYiIPQAAgD8AAAAAAAAAPwAAAD8AAAA/AAAAPwAAAD8AAAA/AAAAPwAAAD8AAAAAAAAAAAAAAAAAAAAAAAAAAAAAAAAAAAAAAAAAAAAAAAAAAAAAAAAAAAAAAAAAAAAAAAAAAAAAAAAAAAAAAAAAAAAAAAAAAAAAAAAAAAAAAAAAAAAAAAAAAAAAAAAAAAAAAAAAAAAAAAAAAAAAAAAAAAAAAAAAAAAAAAAAAAAAAAAAAAAAAAAAAAAAAAAAAAAAAAAAAAAAAAAAAAAAAAAAAAAAAAAAAAAAAAAAAAAAAAAAAAAAAAAAAAAAAAAAAAAAAAAAAAAAAAAAAAAAAAAAAAAAAAAAAAAAAAAAAEyOKz6fjoc9AACAP97MjD4AAAAAAAAAAAAAAAAAAAAAAAAAAAAAAAAAAAAAAAAAAAAAAAAAAIA/tYiIPQAAgD8AAAAAAAAAPwAAAD8AAAA/AAAAPwAAAD8AAAA/AAAAPwAAAD8AAAAAAAAAAAAAAAAAAAAAAAAAAAAAAAAAAAAAAAAAAAAAAAAAAAAAAAAAAAAAAAAAAAAAAAAAAAAAAAAAAAAAAAAAAAAAAAAAAAAAAAAAAAAAAAAAAAAAAAAAAAAAAAAAAAAAAAAAAAAAAAAAAAAAAAAAAAAAAAAAAAAAAAAAAAAAAAAAAAAAAAAAAAAAAAAAAAAAAAAAAAAAAAAAAAAAAAAAAAAAAAAAAAAAAAAAAAAAAAAAAAAAAAAAAAAAAAAAAAAAAAAAAAAAAAAAAAAAAAAAAAAAAAAAAAAAAAAAAEyOKz64HoU9AACAPwAAAD8AAAAAAAAAAAAAgD8AAIA/tYiIPQAAgD+8uzs/vLs7P7y7Oz+8uzs/vLs7P7y7Oz+8uzs/vLs7P4mICD6JiAg+AAAAAAAAAAAAAAAAAAAAAAAAAAAAAAAAAAAAAAAAAAAAAAAAAAAAAAAAAAAAAAAAAAAAAAAAAAAAAAAAAAAAAAAAAAAAAAAAAAAAAAAAAAAAAAAAAAAAAAAAAAAAAAAAAAAAAAAAAAAAAAAAAAAAAAAAAAAAAAAAAAAAAAAAAAAAAAAAAAAAAAAAAAAAAAAAAAAAAAAAAAAAAAAAAAAAAAAAAAAAAAAAAAAAAAAAAAAAAAAAAAAAAAAAAAAAAAAAAAAAAAAAAAAAAAAAAAAAAAAAAAAAAAAAuB6FPQAAgD8AAIA+RGVmYXVsdCBUcmlhbmdsZQAAcwAYDjMFAA0zBUATMwUAAIA/tYiIPQAAgD8AAAAAAABAPwAAQD8AAEA/AABAPwAAQD8AAEA/AABAPwAAQD8AAAAAAAAAAAAAAAAAAAAAAAAAAAAAAAAAAAAAAAAAAAAAAAAAAAAAAAAAAAAAAAAAAAAAAAAAAAAAAAAAAAAAAAAAAAAAAAAAAAAAAAAAAAAAAAAAAAAAAAAAAAAAAAAAAAAAAAAAAAAAAAAAAAAAAAAAAAAAAAAAAAAAAAAAAAAAAAAAAAAAAAAAAAAAAAAAAAAAAAAAAAAAAAAAAAAAAAAAAAAAAAAAAAAAAAAAAAAAAAAAAAAAAAAAAAAAAAAAAAAAAAAAAAAAAAAAAAAAAAAAAAAAAAAAAAAAAAAAAJ+Ohz0AAIA/AACAP7WIiD0AAIA/AAAAAAAAAD8AAAA/AAAAPwAAAD8AAAA/AAAAPwAAAD8AAAA/AAAAAAAAAAAAAAAAAAAAAAAAAAAAAAAAAAAAAAAAAAAAAAAAAAAAAAAAAAAAAAAAAAAAAAAAAAAAAAAAAAAAAAAAAAAAAAAAAAAAAAAAAAAAAAAAAAAAAAAAAAAAAAAAAAAAAAAAAAAAAAAAAAAAAAAAAAAAAAAAAAAAAAAAAAAAAAAAAAAAAAAAAAAAAAAAAAAAAAAAAAAAAAAAAAAAAAAAAAAAAAAAAAAAAAAAAAAAAAAAAAAAAAAAAAAAAAAAAAAAAAAAAAAAAAAAAAAAAAAAAAAAAAAAAAAAAAAAAABMjis+n46HPQAAgD86MwM/AAAAAAAAAAAAAAAAAAAAAAAAAAAAAAAAAAAAAAAAAAAAAAAAAACAP7WIiD0AAIA/AAAAAAAAAD8AAAA/AAAAPwAAAD8AAAA/AAAAPwAAAD8AAAA/AAAAAAAAAAAAAAAAAAAAAAAAAAAAAAAAAAAAAAAAAAAAAAAAAAAAAAAAAAAAAAAAAAAAAAAAAAAAAAAAAAAAAAAAAAAAAAAAAAAAAAAAAAAAAAAAAAAAAAAAAAAAAAAAAAAAAAAAAAAAAAAAAAAAAAAAAAAAAAAAAAAAAAAAAAAAAAAAAAAAAAAAAAAAAAAAAAAAAAAAAAAAAAAAAAAAAAAAAAAAAAAAAAAAAAAAAAAAAAAAAAAAAAAAAAAAAAAAAAAAAAAAAAAAAAAAAAAAAAAAAAAAAAAAAAAAAAAAAABMjis+uB6FPQAAgD8AAAA/AAAAAAAAAAAAAIA/AACAP7WIiD0AAIA/trs7P7a7Oz+2uzs/trs7P7a7Oz+2uzs/trs7P7a7Oz8AAAAAAAAAAAAAAAAAAAAAAAAAAAAAAAAAAAAAAAAAAAAAAAAAAAAAAAAAAAAAAAAAAAAAAAAAAAAAAAAAAAAAAAAAAAAAAAAAAAAAAAAAAAAAAAAAAAAAAAAAAAAAAAAAAAAAAAAAAAAAAAAAAAAAAAAAAAAAAAAAAAAAAAAAAAAAAAAAAAAAAAAAAAAAAAAAAAAAAAAAAAAAAAAAAAAAAAAAAAAAAAAAAAAAAAAAAAAAAAAAAAAAAAAAAAAAAAAAAAAAAAAAAAAAAAAAAAAAAAAAAAAAAAAAAAAAAAAAALgehT0AAIA/AAAAP0RlZmF1bHQgTm9pc2UAcHMAaW50AME0BQC/NAWwxDQFAACAP+/ubr0AAAA/AAAAAAAAAAAAAAAAAAAAAAAAAAAAAAAAAAAAAAAAAAAAAAAAAAAAAAAAAAAAAAAAAAAAAAAAAAAAAAAAAAAAAAAAAAAAAAAAAAAAAAAAAAAAAAAAAAAAAAAAAAAAAAAAAAAAAAAAAAAAAAAAAAAAAAAAAAAAAAAAAAAAAAAAAAAAAAAAAAAAAAAAAAAAAAAAAAAAAAAAAAAAAAAAAAAAAAAAAAAAAAAAAAAAAAAAAAAAAAAAAAAAAAAAAAAAAAAAAAAAAAAAAAAAAAAAAAAAAAAAAAAAAAAAAAAAAAAAAAAAAAAAAAAAAAAAAAAAAAAAAAAAAAAAAAAAAAAAAAAAAAAAAAAAAAA/AAAAAAAAgD/v7m69AAAAPwAAAAAAAAAAAAAAAAAAAAAAAAAAAAAAAAAAAAAAAAAAAAAAAAAAAAAAAAAAAAAAAAAAAAAAAAAAAAAAAAAAAAAAAAAAAAAAAAAAAAAAAAAAAAAAAAAAAAAAAAAAAAAAAAAAAAAAAAAAAAAAAAAAAAAAAAAAAAAAAAAAAAAAAAAAAAAAAAAAAAAAAAAAAAAAAAAAAAAAAAAAAAAAAAAAAAAAAAAAAAAAAAAAAAAAAAAAAAAAAAAAAAAAAAAAAAAAAAAAAAAAAAAAAAAAAAAAAAAAAAAAAAAAAAAAAAAAAAAAAAAAAAAAAAAAAAAAAAAAAAAAAAAAAAAAAAAAAAAAAAAAAAAAAAAAAAAAAD8AAAAAzcyMPgAAAAAAAAAAAAAAAAAAAAAAAAAAAAAAAAAAAAAAAAAAAAAAAAAAgD/v7m69AAAAPwAAAAAAAAAAAAAAAAAAAAAAAAAAAAAAAAAAAAAAAAAAAAAAAAAAAAAAAAAAAAAAAAAAAAAAAAAAAAAAAAAAAAAAAAAAAAAAAAAAAAAAAAAAAAAAAAAAAAAAAAAAAAAAAAAAAAAAAAAAAAAAAAAAAAAAAAAAAAAAAAAAAAAAAAAAAAAAAAAAAAAAAAAAAAAAAAAAAAAAAAAAAAAAAAAAAAAAAAAAAAAAAAAAAAAAAAAAAAAAAAAAAAAAAAAAAAAAAAAAAAAAAAAAAAAAAAAAAAAAAAAAAAAAAAAAAAAAAAAAAAAAAAAAAAAAAAAAAAAAAAAAAAAAAAAAAAAAAAAAAAAAAAAAAAAAAAAAAD8AAAAAAAAAAAAAAAAAAAAAAAAAAAAAgD/v7m69AAAAPwAAAAAAAAAAAAAAAAAAAAAAAAAAAAAAAAAAAAAAAAAAAAAAAAAAAAAAAAAAAAAAAAAAAAAAAAAAAAAAAAAAAAAAAAAAAAAAAAAAAAAAAAAAAAAAAAAAAAAAAAAAAAAAAAAAAAAAAAAAAAAAAAAAAAAAAAAAAAAAAAAAAAAAAAAAAAAAAAAAAAAAAAAAAAAAAAAAAAAAAAAAAAAAAAAAAAAAAAAAAAAAAAAAAAAAAAAAAAAAAAAAAAAAAAAAAAAAAAAAAAAAAAAAAAAAAAAAAAAAAAAAAAAAAAAAAAAAAAAAAAAAAAAAAAAAAAAAAAAAAAAAAAAAAAAAAAAAAAAAAAAAAAA/AAAAAAAAAABQcm9ncmFtIDQAAEZPIFN0ZXBzAHjRNBAA0TQQQNA0EAAAgD/v7m69AAAAPwAAAAAAAAAAAAAAAAAAAAAAAAAAAAAAAAAAAAAAAAAAAAAAAAAAAAAAAAAAAAAAAAAAAAAAAAAAAAAAAAAAAAAAAAAAAAAAAAAAAAAAAAAAAAAAAAAAAAAAAAAAAAAAAAAAAAAAAAAAAAAAAAAAAAAAAAAAAAAAAAAAAAAAAAAAAAAAAAAAAAAAAAAAAAAAAAAAAAAAAAAAAAAAAAAAAAAAAAAAAAAAAAAAAAAAAAAAAAAAAAAAAAAAAAAAAAAAAAAAAAAAAAAAAAAAAAAAAAAAAAAAAAAAAAAAAAAAAAAAAAAAAAAAAAAAAAAAAAAAAAAAAAAAAAAAAAAAAAAAAAAAAAAAAAAAPwAAAAAAAIA/7+5uvQAAAD8AAAAAAAAAAAAAAAAAAAAAAAAAAAAAAAAAAAAAAAAAAAAAAAAAAAAAAAAAAAAAAAAAAAAAAAAAAAAAAAAAAAAAAAAAAAAAAAAAAAAAAAAAAAAAAAAAAAAAAAAAAAAAAAAAAAAAAAAAAAAAAAAAAAAAAAAAAAAAAAAAAAAAAAAAAAAAAAAAAAAAAAAAAAAAAAAAAAAAAAAAAAAAAAAAAAAAAAAAAAAAAAAAAAAAAAAAAAAAAAAAAAAAAAAAAAAAAAAAAAAAAAAAAAAAAAAAAAAAAAAAAAAAAAAAAAAAAAAAAAAAAAAAAAAAAAAAAAAAAAAAAAAAAAAAAAAAAAAAAAAAAAAAAAAAAAAAAAA/AAAAAAAAAAAAAAAAAAAAAAAAAAAAAAAAAAAAAAAAAAAAAAAAAAAAAAAAAAAAAIA/7+5uvQAAAD8AAAAAAAAAAAAAAAAAAAAAAAAAAAAAAAAAAAAAAAAAAAAAAAAAAAAAAAAAAAAAAAAAAAAAAAAAAAAAAAAAAAAAAAAAAAAAAAAAAAAAAAAAAAAAAAAAAAAAAAAAAAAAAAAAAAAAAAAAAAAAAAAAAAAAAAAAAAAAAAAAAAAAAAAAAAAAAAAAAAAAAAAAAAAAAAAAAAAAAAAAAAAAAAAAAAAAAAAAAAAAAAAAAAAAAAAAAAAAAAAAAAAAAAAAAAAAAAAAAAAAAAAAAAAAAAAAAAAAAAAAAAAAAAAAAAAAAAAAAAAAAAAAAAAAAAAAAAAAAAAAAAAAAAAAAAAAAAAAAAAAAAAAAAAAAAAAAAA/AAAAAAAAAAAAAAAAAAAAAAAAAAAAAIA/7+5uvQAAAD8AAAAAAAAAAAAAAAAAAAAAAAAAAAAAAAAAAAAAAAAAAAAAAAAAAAAAAAAAAAAAAAAAAAAAAAAAAAAAAAAAAAAAAAAAAAAAAAAAAAAAAAAAAAAAAAAAAAAAAAAAAAAAAAAAAAAAAAAAAAAAAAAAAAAAAAAAAAAAAAAAAAAAAAAAAAAAAAAAAAAAAAAAAAAAAAAAAAAAAAAAAAAAAAAAAAAAAAAAAAAAAAAAAAAAAAAAAAAAAAAAAAAAAAAAAAAAAAAAAAAAAAAAAAAAAAAAAAAAAAAAAAAAAAAAAAAAAAAAAAAAAAAAAAAAAAAAAAAAAAAAAAAAAAAAAAAAAAAAAAAAAAAAPwAAAAAAAAAAUHJvZ3JhbSA1AABvb3AgUG9pbnQAXTtzAGIgZWN4LGUAAIA/7+5uvQAAAD8AAAAAAAAAAAAAAAAAAAAAAAAAAAAAAAAAAAAAAAAAAAAAAAAAAAAAAAAAAAAAAAAAAAAAAAAAAAAAAAAAAAAAAAAAAAAAAAAAAAAAAAAAAAAAAAAAAAAAAAAAAAAAAAAAAAAAAAAAAAAAAAAAAAAAAAAAAAAAAAAAAAAAAAAAAAAAAAAAAAAAAAAAAAAAAAAAAAAAAAAAAAAAAAAAAAAAAAAAAAAAAAAAAAAAAAAAAAAAAAAAAAAAAAAAAAAAAAAAAAAAAAAAAAAAAAAAAAAAAAAAAAAAAAAAAAAAAAAAAAAAAAAAAAAAAAAAAAAAAAAAAAAAAAAAAAAAAAAAAAAAAAAAAAAAAD8AAAAAAACAP+/ubr0AAAA/AAAAAAAAAAAAAAAAAAAAAAAAAAAAAAAAAAAAAAAAAAAAAAAAAAAAAAAAAAAAAAAAAAAAAAAAAAAAAAAAAAAAAAAAAAAAAAAAAAAAAAAAAAAAAAAAAAAAAAAAAAAAAAAAAAAAAAAAAAAAAAAAAAAAAAAAAAAAAAAAAAAAAAAAAAAAAAAAAAAAAAAAAAAAAAAAAAAAAAAAAAAAAAAAAAAAAAAAAAAAAAAAAAAAAAAAAAAAAAAAAAAAAAAAAAAAAAAAAAAAAAAAAAAAAAAAAAAAAAAAAAAAAAAAAAAAAAAAAAAAAAAAAAAAAAAAAAAAAAAAAAAAAAAAAAAAAAAAAAAAAAAAAAAAAAAAAAAAPwAAAAAAAEA+AAAAAAAAAAAAAAAAAAAAAAAAAAAAAAAAAAAAAAAAAAAAAAAAAACAP+/ubr0AAAA/AAAAAAAAAAAAAAAAAAAAAAAAAAAAAAAAAAAAAAAAAAAAAAAAAAAAAAAAAAAAAAAAAAAAAAAAAAAAAAAAAAAAAAAAAAAAAAAAAAAAAAAAAAAAAAAAAAAAAAAAAAAAAAAAAAAAAAAAAAAAAAAAAAAAAAAAAAAAAAAAAAAAAAAAAAAAAAAAAAAAAAAAAAAAAAAAAAAAAAAAAAAAAAAAAAAAAAAAAAAAAAAAAAAAAAAAAAAAAAAAAAAAAAAAAAAAAAAAAAAAAAAAAAAAAAAAAAAAAAAAAAAAAAAAAAAAAAAAAAAAAAAAAAAAAAAAAAAAAAAAAAAAAAAAAAAAAAAAAAAAAAAAAAAAAAAAAAAAPwAAAAAAAAAAAAAAAAAAAAAAAAAAAACAP+/ubr0AAAA/AAAAAAAAAAAAAAAAAAAAAAAAAAAAAAAAAAAAAAAAAAAAAAAAAAAAAAAAAAAAAAAAAAAAAAAAAAAAAAAAAAAAAAAAAAAAAAAAAAAAAAAAAAAAAAAAAAAAAAAAAAAAAAAAAAAAAAAAAAAAAAAAAAAAAAAAAAAAAAAAAAAAAAAAAAAAAAAAAAAAAAAAAAAAAAAAAAAAAAAAAAAAAAAAAAAAAAAAAAAAAAAAAAAAAAAAAAAAAAAAAAAAAAAAAAAAAAAAAAAAAAAAAAAAAAAAAAAAAAAAAAAAAAAAAAAAAAAAAAAAAAAAAAAAAAAAAAAAAAAAAAAAAAAAAAAAAAAAAAAAAAAAAD8AAAAAAAAAAFByb2dyYW0gNgBMRk8gU3RlcHMAANE0EADRNBBA0DQQAACAP+/ubr0AAAA/AAAAAAAAAAAAAAAAAAAAAAAAAAAAAAAAAAAAAAAAAAAAAAAAAAAAAAAAAAAAAAAAAAAAAAAAAAAAAAAAAAAAAAAAAAAAAAAAAAAAAAAAAAAAAAAAAAAAAAAAAAAAAAAAAAAAAAAAAAAAAAAAAAAAAAAAAAAAAAAAAAAAAAAAAAAAAAAAAAAAAAAAAAAAAAAAAAAAAAAAAAAAAAAAAAAAAAAAAAAAAAAAAAAAAAAAAAAAAAAAAAAAAAAAAAAAAAAAAAAAAAAAAAAAAAAAAAAAAAAAAAAAAAAAAAAAAAAAAAAAAAAAAAAAAAAAAAAAAAAAAAAAAAAAAAAAAAAAAAAAAAAAAAAAAAA/AAAAAAAAgD/v7m69AAAAPwAAAAAAAAAAAAAAAAAAAAAAAAAAAAAAAAAAAAAAAAAAAAAAAAAAAAAAAAAAAAAAAAAAAAAAAAAAAAAAAAAAAAAAAAAAAAAAAAAAAAAAAAAAAAAAAAAAAAAAAAAAAAAAAAAAAAAAAAAAAAAAAAAAAAAAAAAAAAAAAAAAAAAAAAAAAAAAAAAAAAAAAAAAAAAAAAAAAAAAAAAAAAAAAAAAAAAAAAAAAAAAAAAAAAAAAAAAAAAAAAAAAAAAAAAAAAAAAAAAAAAAAAAAAAAAAAAAAAAAAAAAAAAAAAAAAAAAAAAAAAAAAAAAAAAAAAAAAAAAAAAAAAAAAAAAAAAAAAAAAAAAAAAAAAAAAAAAAD8AAAAAAACAPQAAAAAAAAAAAAAAAAAAAAAAAAAAAAAAAAAAAAAAAAAAAAAAAAAAgD/v7m69AAAAPwAAAAAAAAAAAAAAAAAAAAAAAAAAAAAAAAAAAAAAAAAAAAAAAAAAAAAAAAAAAAAAAAAAAAAAAAAAAAAAAAAAAAAAAAAAAAAAAAAAAAAAAAAAAAAAAAAAAAAAAAAAAAAAAAAAAAAAAAAAAAAAAAAAAAAAAAAAAAAAAAAAAAAAAAAAAAAAAAAAAAAAAAAAAAAAAAAAAAAAAAAAAAAAAAAAAAAAAAAAAAAAAAAAAAAAAAAAAAAAAAAAAAAAAAAAAAAAAAAAAAAAAAAAAAAAAAAAAAAAAAAAAAAAAAAAAAAAAAAAAAAAAAAAAAAAAAAAAAAAAAAAAAAAAAAAAAAAAAAAAAAAAAAAAAAAAAAAAD8AAAAAAAAAAAAAAAAAAAAAAAAAAAAAgD/v7m69AAAAPwAAAAAAAAAAAAAAAAAAAAAAAAAAAAAAAAAAAAAAAAAAAAAAAAAAAAAAAAAAAAAAAAAAAAAAAAAAAAAAAAAAAAAAAAAAAAAAAAAAAAAAAAAAAAAAAAAAAAAAAAAAAAAAAAAAAAAAAAAAAAAAAAAAAAAAAAAAAAAAAAAAAAAAAAAAAAAAAAAAAAAAAAAAAAAAAAAAAAAAAAAAAAAAAAAAAAAAAAAAAAAAAAAAAAAAAAAAAAAAAAAAAAAAAAAAAAAAAAAAAAAAAAAAAAAAAAAAAAAAAAAAAAAAAAAAAAAAAAAAAAAAAAAAAAAAAAAAAAAAAAAAAAAAAAAAAAAAAAAAAAAAAAA/AAAAAAAAAABQcm9ncmFtIDcAIFN0ZXBzAG1lAAAYKQkAGCkJSBcpCQAAgD/v7m69AAAAPwAAAAAAAAAAAAAAAAAAAAAAAAAAAAAAAAAAAAAAAAAAAAAAAAAAAAAAAAAAAAAAAAAAAAAAAAAAAAAAAAAAAAAAAAAAAAAAAAAAAAAAAAAAAAAAAAAAAAAAAAAAAAAAAAAAAAAAAAAAAAAAAAAAAAAAAAAAAAAAAAAAAAAAAAAAAAAAAAAAAAAAAAAAAAAAAAAAAAAAAAAAAAAAAAAAAAAAAAAAAAAAAAAAAAAAAAAAAAAAAAAAAAAAAAAAAAAAAAAAAAAAAAAAAAAAAAAAAAAAAAAAAAAAAAAAAAAAAAAAAAAAAAAAAAAAAAAAAAAAAAAAAAAAAAAAAAAAAAAAAAAAAAAAAAAAPwAAAAAAAIA/7+5uvQAAAD8AAAAAAAAAAAAAAAAAAAAAAAAAAAAAAAAAAAAAAAAAAAAAAAAAAAAAAAAAAAAAAAAAAAAAAAAAAAAAAAAAAAAAAAAAAAAAAAAAAAAAAAAAAAAAAAAAAAAAAAAAAAAAAAAAAAAAAAAAAAAAAAAAAAAAAAAAAAAAAAAAAAAAAAAAAAAAAAAAAAAAAAAAAAAAAAAAAAAAAAAAAAAAAAAAAAAAAAAAAAAAAAAAAAAAAAAAAAAAAAAAAAAAAAAAAAAAAAAAAAAAAAAAAAAAAAAAAAAAAAAAAAAAAAAAAAAAAAAAAAAAAAAAAAAAAAAAAAAAAAAAAAAAAAAAAAAAAAAAAAAAAAAAAAAAAAAAAAA/AAAAAM3MTD0AAAAAAAAAAAAAAAAAAAAAAAAAAAAAAAAAAAAAAAAAAAAAAAAAAIA/7+5uvQAAAD8AAAAAAAAAAAAAAAAAAAAAAAAAAAAAAAAAAAAAAAAAAAAAAAAAAAAAAAAAAAAAAAAAAAAAAAAAAAAAAAAAAAAAAAAAAAAAAAAAAAAAAAAAAAAAAAAAAAAAAAAAAAAAAAAAAAAAAAAAAAAAAAAAAAAAAAAAAAAAAAAAAAAAAAAAAAAAAAAAAAAAAAAAAAAAAAAAAAAAAAAAAAAAAAAAAAAAAAAAAAAAAAAAAAAAAAAAAAAAAAAAAAAAAAAAAAAAAAAAAAAAAAAAAAAAAAAAAAAAAAAAAAAAAAAAAAAAAAAAAAAAAAAAAAAAAAAAAAAAAAAAAAAAAAAAAAAAAAAAAAAAAAAAAAAAAAAAAAA/AAAAAAAAAAAAAAAAAAAAAAAAAAAAAIA/7+5uvQAAAD8AAAAAAAAAAAAAAAAAAAAAAAAAAAAAAAAAAAAAAAAAAAAAAAAAAAAAAAAAAAAAAAAAAAAAAAAAAAAAAAAAAAAAAAAAAAAAAAAAAAAAAAAAAAAAAAAAAAAAAAAAAAAAAAAAAAAAAAAAAAAAAAAAAAAAAAAAAAAAAAAAAAAAAAAAAAAAAAAAAAAAAAAAAAAAAAAAAAAAAAAAAAAAAAAAAAAAAAAAAAAAAAAAAAAAAAAAAAAAAAAAAAAAAAAAAAAAAAAAAAAAAAAAAAAAAAAAAAAAAAAAAAAAAAAAAAAAAAAAAAAAAAAAAAAAAAAAAAAAAAAAAAAAAAAAAAAAAAAAAAAAAAAAPwAAAAAAAAAAUHJvZ3JhbSA4AABGTyBTdGVwcwB40TQQANE0EEDQNBAAAIA/7+5uvQAAAD8AAAAAAAAAAAAAAAAAAAAAAAAAAAAAAAAAAAAAAAAAAAAAAAAAAAAAAAAAAAAAAAAAAAAAAAAAAAAAAAAAAAAAAAAAAAAAAAAAAAAAAAAAAAAAAAAAAAAAAAAAAAAAAAAAAAAAAAAAAAAAAAAAAAAAAAAAAAAAAAAAAAAAAAAAAAAAAAAAAAAAAAAAAAAAAAAAAAAAAAAAAAAAAAAAAAAAAAAAAAAAAAAAAAAAAAAAAAAAAAAAAAAAAAAAAAAAAAAAAAAAAAAAAAAAAAAAAAAAAAAAAAAAAAAAAAAAAAAAAAAAAAAAAAAAAAAAAAAAAAAAAAAAAAAAAAAAAAAAAAAAAAAAAAAAAD8AAAAAAACAP+/ubr0AAAA/AAAAAAAAAAAAAAAAAAAAAAAAAAAAAAAAAAAAAAAAAAAAAAAAAAAAAAAAAAAAAAAAAAAAAAAAAAAAAAAAAAAAAAAAAAAAAAAAAAAAAAAAAAAAAAAAAAAAAAAAAAAAAAAAAAAAAAAAAAAAAAAAAAAAAAAAAAAAAAAAAAAAAAAAAAAAAAAAAAAAAAAAAAAAAAAAAAAAAAAAAAAAAAAAAAAAAAAAAAAAAAAAAAAAAAAAAAAAAAAAAAAAAAAAAAAAAAAAAAAAAAAAAAAAAAAAAAAAAAAAAAAAAAAAAAAAAAAAAAAAAAAAAAAAAAAAAAAAAAAAAAAAAAAAAAAAAAAAAAAAAAAAAAAAAAAAAAAAPwAAAAAzM7M9AAAAAAAAAAAAAAAAAAAAAAAAAAAAAAAAAAAAAAAAAAAAAAAAAACAP+/ubr0AAAA/AAAAAAAAAAAAAAAAAAAAAAAAAAAAAAAAAAAAAAAAAAAAAAAAAAAAAAAAAAAAAAAAAAAAAAAAAAAAAAAAAAAAAAAAAAAAAAAAAAAAAAAAAAAAAAAAAAAAAAAAAAAAAAAAAAAAAAAAAAAAAAAAAAAAAAAAAAAAAAAAAAAAAAAAAAAAAAAAAAAAAAAAAAAAAAAAAAAAAAAAAAAAAAAAAAAAAAAAAAAAAAAAAAAAAAAAAAAAAAAAAAAAAAAAAAAAAAAAAAAAAAAAAAAAAAAAAAAAAAAAAAAAAAAAAAAAAAAAAAAAAAAAAAAAAAAAAAAAAAAAAAAAAAAAAAAAAAAAAAAAAAAAAAAAAAAAAAAAPwAAAAAAAAAAAAAAAAAAAAAAAAAAAACAP+/ubr0AAAA/AAAAAAAAAAAAAAAAAAAAAAAAAAAAAAAAAAAAAAAAAAAAAAAAAAAAAAAAAAAAAAAAAAAAAAAAAAAAAAAAAAAAAAAAAAAAAAAAAAAAAAAAAAAAAAAAAAAAAAAAAAAAAAAAAAAAAAAAAAAAAAAAAAAAAAAAAAAAAAAAAAAAAAAAAAAAAAAAAAAAAAAAAAAAAAAAAAAAAAAAAAAAAAAAAAAAAAAAAAAAAAAAAAAAAAAAAAAAAAAAAAAAAAAAAAAAAAAAAAAAAAAAAAAAAAAAAAAAAAAAAAAAAAAAAAAAAAAAAAAAAAAAAAAAAAAAAAAAAAAAAAAAAAAAAAAAAAAAAAAAAAAAAD8AAAAAAAAAAFByb2dyYW0gOQBMb29wIFBvaW50ANE0EADRNBBA0DQQAACAP+/ubr0AAAA/AAAAAAAAAAAAAAAAAAAAAAAAAAAAAAAAAAAAAAAAAAAAAAAAAAAAAAAAAAAAAAAAAAAAAAAAAAAAAAAAAAAAAAAAAAAAAAAAAAAAAAAAAAAAAAAAAAAAAAAAAAAAAAAAAAAAAAAAAAAAAAAAAAAAAAAAAAAAAAAAAAAAAAAAAAAAAAAAAAAAAAAAAAAAAAAAAAAAAAAAAAAAAAAAAAAAAAAAAAAAAAAAAAAAAAAAAAAAAAAAAAAAAAAAAAAAAAAAAAAAAAAAAAAAAAAAAAAAAAAAAAAAAAAAAAAAAAAAAAAAAAAAAAAAAAAAAAAAAAAAAAAAAAAAAAAAAAAAAAAAAAAAAAAAAAA/AAAAAAAAgD/v7m69AAAAPwAAAAAAAAAAAAAAAAAAAAAAAAAAAAAAAAAAAAAAAAAAAAAAAAAAAAAAAAAAAAAAAAAAAAAAAAAAAAAAAAAAAAAAAAAAAAAAAAAAAAAAAAAAAAAAAAAAAAAAAAAAAAAAAAAAAAAAAAAAAAAAAAAAAAAAAAAAAAAAAAAAAAAAAAAAAAAAAAAAAAAAAAAAAAAAAAAAAAAAAAAAAAAAAAAAAAAAAAAAAAAAAAAAAAAAAAAAAAAAAAAAAAAAAAAAAAAAAAAAAAAAAAAAAAAAAAAAAAAAAAAAAAAAAAAAAAAAAAAAAAAAAAAAAAAAAAAAAAAAAAAAAAAAAAAAAAAAAAAAAAAAAAAAAAAAAAAAAD8AAAAAAAAAAAAAAAAAAAAAAAAAAAAAAAAAAAAAAAAAAAAAAAAAAAAAAAAAAAAAgD/v7m69AAAAPwAAAAAAAAAAAAAAAAAAAAAAAAAAAAAAAAAAAAAAAAAAAAAAAAAAAAAAAAAAAAAAAAAAAAAAAAAAAAAAAAAAAAAAAAAAAAAAAAAAAAAAAAAAAAAAAAAAAAAAAAAAAAAAAAAAAAAAAAAAAAAAAAAAAAAAAAAAAAAAAAAAAAAAAAAAAAAAAAAAAAAAAAAAAAAAAAAAAAAAAAAAAAAAAAAAAAAAAAAAAAAAAAAAAAAAAAAAAAAAAAAAAAAAAAAAAAAAAAAAAAAAAAAAAAAAAAAAAAAAAAAAAAAAAAAAAAAAAAAAAAAAAAAAAAAAAAAAAAAAAAAAAAAAAAAAAAAAAAAAAAAAAAAAAAAAAAAAAD8AAAAAAAAAAAAAAAAAAAAAAAAAAAAAgD/v7m69AAAAPwAAAAAAAAAAAAAAAAAAAAAAAAAAAAAAAAAAAAAAAAAAAAAAAAAAAAAAAAAAAAAAAAAAAAAAAAAAAAAAAAAAAAAAAAAAAAAAAAAAAAAAAAAAAAAAAAAAAAAAAAAAAAAAAAAAAAAAAAAAAAAAAAAAAAAAAAAAAAAAAAAAAAAAAAAAAAAAAAAAAAAAAAAAAAAAAAAAAAAAAAAAAAAAAAAAAAAAAAAAAAAAAAAAAAAAAAAAAAAAAAAAAAAAAAAAAAAAAAAAAAAAAAAAAAAAAAAAAAAAAAAAAAAAAAAAAAAAAAAAAAAAAAAAAAAAAAAAAAAAAAAAAAAAAAAAAAAAAAAAAAAAAAA/AAAAAAAAAABQcm9ncmFtIDEwABAg1TQQI9U0EHjRNBB70TQQQNA0EAAAgD/v7m69AAAAPwAAAAAAAAAAAAAAAAAAAAAAAAAAAAAAAAAAAAAAAAAAAAAAAAAAAAAAAAAAAAAAAAAAAAAAAAAAAAAAAAAAAAAAAAAAAAAAAAAAAAAAAAAAAAAAAAAAAAAAAAAAAAAAAAAAAAAAAAAAAAAAAAAAAAAAAAAAAAAAAAAAAAAAAAAAAAAAAAAAAAAAAAAAAAAAAAAAAAAAAAAAAAAAAAAAAAAAAAAAAAAAAAAAAAAAAAAAAAAAAAAAAAAAAAAAAAAAAAAAAAAAAAAAAAAAAAAAAAAAAAAAAAAAAAAAAAAAAAAAAAAAAAAAAAAAAAAAAAAAAAAAAAAAAAAAAAAAAAAAAAAAAAAAAAAAPwAAAAAAAIA/7+5uvQAAAD8AAAAAAAAAAAAAAAAAAAAAAAAAAAAAAAAAAAAAAAAAAAAAAAAAAAAAAAAAAAAAAAAAAAAAAAAAAAAAAAAAAAAAAAAAAAAAAAAAAAAAAAAAAAAAAAAAAAAAAAAAAAAAAAAAAAAAAAAAAAAAAAAAAAAAAAAAAAAAAAAAAAAAAAAAAAAAAAAAAAAAAAAAAAAAAAAAAAAAAAAAAAAAAAAAAAAAAAAAAAAAAAAAAAAAAAAAAAAAAAAAAAAAAAAAAAAAAAAAAAAAAAAAAAAAAAAAAAAAAAAAAAAAAAAAAAAAAAAAAAAAAAAAAAAAAAAAAAAAAAAAAAAAAAAAAAAAAAAAAAAAAAAAAAAAAAAAAAA/AAAAAGZmxj4AAAAAAAAAAAAAAAAAAAAAAAAAAAAAAAAAAAAAAAAAAAAAAAAAAIA/7+5uvQAAAD8AAAAAAAAAAAAAAAAAAAAAAAAAAAAAAAAAAAAAAAAAAAAAAAAAAAAAAAAAAAAAAAAAAAAAAAAAAAAAAAAAAAAAAAAAAAAAAAAAAAAAAAAAAAAAAAAAAAAAAAAAAAAAAAAAAAAAAAAAAAAAAAAAAAAAAAAAAAAAAAAAAAAAAAAAAAAAAAAAAAAAAAAAAAAAAAAAAAAAAAAAAAAAAAAAAAAAAAAAAAAAAAAAAAAAAAAAAAAAAAAAAAAAAAAAAAAAAAAAAAAAAAAAAAAAAAAAAAAAAAAAAAAAAAAAAAAAAAAAAAAAAAAAAAAAAAAAAAAAAAAAAAAAAAAAAAAAAAAAAAAAAAAAAAAAAAAAAAA/AAAAAAAAAAAAAAAAAAAAAAAAAAAAAIA/7+5uvQAAAD8AAAAAAAAAAAAAAAAAAAAAAAAAAAAAAAAAAAAAAAAAAAAAAAAAAAAAAAAAAAAAAAAAAAAAAAAAAAAAAAAAAAAAAAAAAAAAAAAAAAAAAAAAAAAAAAAAAAAAAAAAAAAAAAAAAAAAAAAAAAAAAAAAAAAAAAAAAAAAAAAAAAAAAAAAAAAAAAAAAAAAAAAAAAAAAAAAAAAAAAAAAAAAAAAAAAAAAAAAAAAAAAAAAAAAAAAAAAAAAAAAAAAAAAAAAAAAAAAAAAAAAAAAAAAAAAAAAAAAAAAAAAAAAAAAAAAAAAAAAAAAAAAAAAAAAAAAAAAAAAAAAAAAAAAAAAAAAAAAAAAAAAAAPwAAAAAAAAAAUHJvZ3JhbSAxMQBvb3AgUG9pbnQA0TQQANE0EEDQNBAAAIA/7+5uvQAAAD8AAAAAAAAAAAAAAAAAAAAAAAAAAAAAAAAAAAAAAAAAAAAAAAAAAAAAAAAAAAAAAAAAAAAAAAAAAAAAAAAAAAAAAAAAAAAAAAAAAAAAAAAAAAAAAAAAAAAAAAAAAAAAAAAAAAAAAAAAAAAAAAAAAAAAAAAAAAAAAAAAAAAAAAAAAAAAAAAAAAAAAAAAAAAAAAAAAAAAAAAAAAAAAAAAAAAAAAAAAAAAAAAAAAAAAAAAAAAAAAAAAAAAAAAAAAAAAAAAAAAAAAAAAAAAAAAAAAAAAAAAAAAAAAAAAAAAAAAAAAAAAAAAAAAAAAAAAAAAAAAAAAAAAAAAAAAAAAAAAAAAAAAAAAAAAD8AAAAAAACAP+/ubr0AAAA/AAAAAAAAAAAAAAAAAAAAAAAAAAAAAAAAAAAAAAAAAAAAAAAAAAAAAAAAAAAAAAAAAAAAAAAAAAAAAAAAAAAAAAAAAAAAAAAAAAAAAAAAAAAAAAAAAAAAAAAAAAAAAAAAAAAAAAAAAAAAAAAAAAAAAAAAAAAAAAAAAAAAAAAAAAAAAAAAAAAAAAAAAAAAAAAAAAAAAAAAAAAAAAAAAAAAAAAAAAAAAAAAAAAAAAAAAAAAAAAAAAAAAAAAAAAAAAAAAAAAAAAAAAAAAAAAAAAAAAAAAAAAAAAAAAAAAAAAAAAAAAAAAAAAAAAAAAAAAAAAAAAAAAAAAAAAAAAAAAAAAAAAAAAAAAAAAAAAPwAAAADNzAw+AAAAAAAAAAAAAAAAAAAAAAAAAAAAAAAAAAAAAAAAAAAAAAAAAACAP+/ubr0AAAA/AAAAAAAAAAAAAAAAAAAAAAAAAAAAAAAAAAAAAAAAAAAAAAAAAAAAAAAAAAAAAAAAAAAAAAAAAAAAAAAAAAAAAAAAAAAAAAAAAAAAAAAAAAAAAAAAAAAAAAAAAAAAAAAAAAAAAAAAAAAAAAAAAAAAAAAAAAAAAAAAAAAAAAAAAAAAAAAAAAAAAAAAAAAAAAAAAAAAAAAAAAAAAAAAAAAAAAAAAAAAAAAAAAAAAAAAAAAAAAAAAAAAAAAAAAAAAAAAAAAAAAAAAAAAAAAAAAAAAAAAAAAAAAAAAAAAAAAAAAAAAAAAAAAAAAAAAAAAAAAAAAAAAAAAAAAAAAAAAAAAAAAAAAAAAAAAAAAAPwAAAAAAAAAAAAAAAAAAAAAAAAAAAACAP+/ubr0AAAA/AAAAAAAAAAAAAAAAAAAAAAAAAAAAAAAAAAAAAAAAAAAAAAAAAAAAAAAAAAAAAAAAAAAAAAAAAAAAAAAAAAAAAAAAAAAAAAAAAAAAAAAAAAAAAAAAAAAAAAAAAAAAAAAAAAAAAAAAAAAAAAAAAAAAAAAAAAAAAAAAAAAAAAAAAAAAAAAAAAAAAAAAAAAAAAAAAAAAAAAAAAAAAAAAAAAAAAAAAAAAAAAAAAAAAAAAAAAAAAAAAAAAAAAAAAAAAAAAAAAAAAAAAAAAAAAAAAAAAAAAAAAAAAAAAAAAAAAAAAAAAAAAAAAAAAAAAAAAAAAAAAAAAAAAAAAAAAAAAAAAAAAAAD8AAAAAAAAAAFByb2dyYW0gMTIAdGVwIFRpbWUAANI0EADw+wIo8PsCAACAP+/ubr0AAAA/AAAAAAAAAAAAAAAAAAAAAAAAAAAAAAAAAAAAAAAAAAAAAAAAAAAAAAAAAAAAAAAAAAAAAAAAAAAAAAAAAAAAAAAAAAAAAAAAAAAAAAAAAAAAAAAAAAAAAAAAAAAAAAAAAAAAAAAAAAAAAAAAAAAAAAAAAAAAAAAAAAAAAAAAAAAAAAAAAAAAAAAAAAAAAAAAAAAAAAAAAAAAAAAAAAAAAAAAAAAAAAAAAAAAAAAAAAAAAAAAAAAAAAAAAAAAAAAAAAAAAAAAAAAAAAAAAAAAAAAAAAAAAAAAAAAAAAAAAAAAAAAAAAAAAAAAAAAAAAAAAAAAAAAAAAAAAAAAAAAAAAAAAAAAAAA/AAAAAAAAgD/v7m69AAAAPwAAAAAAAAAAAAAAAAAAAAAAAAAAAAAAAAAAAAAAAAAAAAAAAAAAAAAAAAAAAAAAAAAAAAAAAAAAAAAAAAAAAAAAAAAAAAAAAAAAAAAAAAAAAAAAAAAAAAAAAAAAAAAAAAAAAAAAAAAAAAAAAAAAAAAAAAAAAAAAAAAAAAAAAAAAAAAAAAAAAAAAAAAAAAAAAAAAAAAAAAAAAAAAAAAAAAAAAAAAAAAAAAAAAAAAAAAAAAAAAAAAAAAAAAAAAAAAAAAAAAAAAAAAAAAAAAAAAAAAAAAAAAAAAAAAAAAAAAAAAAAAAAAAAAAAAAAAAAAAAAAAAAAAAAAAAAAAAAAAAAAAAAAAAAAAAAAAAD8AAAAAzczMPQAAAAAAAAAAAAAAAAAAAAAAAAAAAAAAAAAAAAAAAAAAAAAAAAAAgD/v7m69AAAAPwAAAAAAAAAAAAAAAAAAAAAAAAAAAAAAAAAAAAAAAAAAAAAAAAAAAAAAAAAAAAAAAAAAAAAAAAAAAAAAAAAAAAAAAAAAAAAAAAAAAAAAAAAAAAAAAAAAAAAAAAAAAAAAAAAAAAAAAAAAAAAAAAAAAAAAAAAAAAAAAAAAAAAAAAAAAAAAAAAAAAAAAAAAAAAAAAAAAAAAAAAAAAAAAAAAAAAAAAAAAAAAAAAAAAAAAAAAAAAAAAAAAAAAAAAAAAAAAAAAAAAAAAAAAAAAAAAAAAAAAAAAAAAAAAAAAAAAAAAAAAAAAAAAAAAAAAAAAAAAAAAAAAAAAAAAAAAAAAAAAAAAAAAAAAAAAAAAAD8AAAAAAAAAAAAAAAAAAAAAAAAAAAAAgD/v7m69AAAAPwAAAAAAAAAAAAAAAAAAAAAAAAAAAAAAAAAAAAAAAAAAAAAAAAAAAAAAAAAAAAAAAAAAAAAAAAAAAAAAAAAAAAAAAAAAAAAAAAAAAAAAAAAAAAAAAAAAAAAAAAAAAAAAAAAAAAAAAAAAAAAAAAAAAAAAAAAAAAAAAAAAAAAAAAAAAAAAAAAAAAAAAAAAAAAAAAAAAAAAAAAAAAAAAAAAAAAAAAAAAAAAAAAAAAAAAAAAAAAAAAAAAAAAAAAAAAAAAAAAAAAAAAAAAAAAAAAAAAAAAAAAAAAAAAAAAAAAAAAAAAAAAAAAAAAAAAAAAAAAAAAAAAAAAAAAAAAAAAAAAAAAAAA/AAAAAAAAAABQcm9ncmFtIDEzAFN0ZXBzAG1lAAAYKQkAGCkJSBcpCQAAgD/v7m69AAAAPwAAAAAAAAAAAAAAAAAAAAAAAAAAAAAAAAAAAAAAAAAAAAAAAAAAAAAAAAAAAAAAAAAAAAAAAAAAAAAAAAAAAAAAAAAAAAAAAAAAAAAAAAAAAAAAAAAAAAAAAAAAAAAAAAAAAAAAAAAAAAAAAAAAAAAAAAAAAAAAAAAAAAAAAAAAAAAAAAAAAAAAAAAAAAAAAAAAAAAAAAAAAAAAAAAAAAAAAAAAAAAAAAAAAAAAAAAAAAAAAAAAAAAAAAAAAAAAAAAAAAAAAAAAAAAAAAAAAAAAAAAAAAAAAAAAAAAAAAAAAAAAAAAAAAAAAAAAAAAAAAAAAAAAAAAAAAAAAAAAAAAAAAAAAAAAPwAAAAAAAIA/7+5uvQAAAD8AAAAAAAAAAAAAAAAAAAAAAAAAAAAAAAAAAAAAAAAAAAAAAAAAAAAAAAAAAAAAAAAAAAAAAAAAAAAAAAAAAAAAAAAAAAAAAAAAAAAAAAAAAAAAAAAAAAAAAAAAAAAAAAAAAAAAAAAAAAAAAAAAAAAAAAAAAAAAAAAAAAAAAAAAAAAAAAAAAAAAAAAAAAAAAAAAAAAAAAAAAAAAAAAAAAAAAAAAAAAAAAAAAAAAAAAAAAAAAAAAAAAAAAAAAAAAAAAAAAAAAAAAAAAAAAAAAAAAAAAAAAAAAAAAAAAAAAAAAAAAAAAAAAAAAAAAAAAAAAAAAAAAAAAAAAAAAAAAAAAAAAAAAAAAAAAAAAA/AAAAAAAAAAAAAAAAAAAAAAAAAAAAAAAAAAAAAAAAAAAAAAAAAAAAAAAAAAAAAIA/7+5uvQAAAD8AAAAAAAAAAAAAAAAAAAAAAAAAAAAAAAAAAAAAAAAAAAAAAAAAAAAAAAAAAAAAAAAAAAAAAAAAAAAAAAAAAAAAAAAAAAAAAAAAAAAAAAAAAAAAAAAAAAAAAAAAAAAAAAAAAAAAAAAAAAAAAAAAAAAAAAAAAAAAAAAAAAAAAAAAAAAAAAAAAAAAAAAAAAAAAAAAAAAAAAAAAAAAAAAAAAAAAAAAAAAAAAAAAAAAAAAAAAAAAAAAAAAAAAAAAAAAAAAAAAAAAAAAAAAAAAAAAAAAAAAAAAAAAAAAAAAAAAAAAAAAAAAAAAAAAAAAAAAAAAAAAAAAAAAAAAAAAAAAAAAAAAAAAAAAAAAAAAA/AAAAAAAAAAAAAAAAAAAAAAAAAAAAAIA/7+5uvQAAAD8AAAAAAAAAAAAAAAAAAAAAAAAAAAAAAAAAAAAAAAAAAAAAAAAAAAAAAAAAAAAAAAAAAAAAAAAAAAAAAAAAAAAAAAAAAAAAAAAAAAAAAAAAAAAAAAAAAAAAAAAAAAAAAAAAAAAAAAAAAAAAAAAAAAAAAAAAAAAAAAAAAAAAAAAAAAAAAAAAAAAAAAAAAAAAAAAAAAAAAAAAAAAAAAAAAAAAAAAAAAAAAAAAAAAAAAAAAAAAAAAAAAAAAAAAAAAAAAAAAAAAAAAAAAAAAAAAAAAAAAAAAAAAAAAAAAAAAAAAAAAAAAAAAAAAAAAAAAAAAAAAAAAAAAAAAAAAAAAAAAAAAAAAPwAAAAAAAAAAUHJvZ3JhbSAxNABTdGVwcwBtZQAAGCkJABgpCUgXKQkAAIA/7+5uvQAAAD8AAAAAAAAAAAAAAAAAAAAAAAAAAAAAAAAAAAAAAAAAAAAAAAAAAAAAAAAAAAAAAAAAAAAAAAAAAAAAAAAAAAAAAAAAAAAAAAAAAAAAAAAAAAAAAAAAAAAAAAAAAAAAAAAAAAAAAAAAAAAAAAAAAAAAAAAAAAAAAAAAAAAAAAAAAAAAAAAAAAAAAAAAAAAAAAAAAAAAAAAAAAAAAAAAAAAAAAAAAAAAAAAAAAAAAAAAAAAAAAAAAAAAAAAAAAAAAAAAAAAAAAAAAAAAAAAAAAAAAAAAAAAAAAAAAAAAAAAAAAAAAAAAAAAAAAAAAAAAAAAAAAAAAAAAAAAAAAAAAAAAAAAAAAAAAD8AAAAAAACAP+/ubr0AAAA/AAAAAAAAAAAAAAAAAAAAAAAAAAAAAAAAAAAAAAAAAAAAAAAAAAAAAAAAAAAAAAAAAAAAAAAAAAAAAAAAAAAAAAAAAAAAAAAAAAAAAAAAAAAAAAAAAAAAAAAAAAAAAAAAAAAAAAAAAAAAAAAAAAAAAAAAAAAAAAAAAAAAAAAAAAAAAAAAAAAAAAAAAAAAAAAAAAAAAAAAAAAAAAAAAAAAAAAAAAAAAAAAAAAAAAAAAAAAAAAAAAAAAAAAAAAAAAAAAAAAAAAAAAAAAAAAAAAAAAAAAAAAAAAAAAAAAAAAAAAAAAAAAAAAAAAAAAAAAAAAAAAAAAAAAAAAAAAAAAAAAAAAAAAAAAAAAAAAPwAAAAAAAIA9AAAAAAAAAAAAAAAAAAAAAAAAAAAAAAAAAAAAAAAAAAAAAAAAAACAP+/ubr0AAAA/AAAAAAAAAAAAAAAAAAAAAAAAAAAAAAAAAAAAAAAAAAAAAAAAAAAAAAAAAAAAAAAAAAAAAAAAAAAAAAAAAAAAAAAAAAAAAAAAAAAAAAAAAAAAAAAAAAAAAAAAAAAAAAAAAAAAAAAAAAAAAAAAAAAAAAAAAAAAAAAAAAAAAAAAAAAAAAAAAAAAAAAAAAAAAAAAAAAAAAAAAAAAAAAAAAAAAAAAAAAAAAAAAAAAAAAAAAAAAAAAAAAAAAAAAAAAAAAAAAAAAAAAAAAAAAAAAAAAAAAAAAAAAAAAAAAAAAAAAAAAAAAAAAAAAAAAAAAAAAAAAAAAAAAAAAAAAAAAAAAAAAAAAAAAAAAAAAAAPwAAAAAAAAAAAAAAAAAAAAAAAAAAAACAP+/ubr0AAAA/AAAAAAAAAAAAAAAAAAAAAAAAAAAAAAAAAAAAAAAAAAAAAAAAAAAAAAAAAAAAAAAAAAAAAAAAAAAAAAAAAAAAAAAAAAAAAAAAAAAAAAAAAAAAAAAAAAAAAAAAAAAAAAAAAAAAAAAAAAAAAAAAAAAAAAAAAAAAAAAAAAAAAAAAAAAAAAAAAAAAAAAAAAAAAAAAAAAAAAAAAAAAAAAAAAAAAAAAAAAAAAAAAAAAAAAAAAAAAAAAAAAAAAAAAAAAAAAAAAAAAAAAAAAAAAAAAAAAAAAAAAAAAAAAAAAAAAAAAAAAAAAAAAAAAAAAAAAAAAAAAAAAAAAAAAAAAAAAAAAAAAAAAD8AAAAAAAAAAFByb2dyYW0gMTUAb29wIFBvaW50AF07cwBiIGVjeCxlAACAP+/ubr0AAAA/AAAAAAAAAAAAAAAAAAAAAAAAAAAAAAAAAAAAAAAAAAAAAAAAAAAAAAAAAAAAAAAAAAAAAAAAAAAAAAAAAAAAAAAAAAAAAAAAAAAAAAAAAAAAAAAAAAAAAAAAAAAAAAAAAAAAAAAAAAAAAAAAAAAAAAAAAAAAAAAAAAAAAAAAAAAAAAAAAAAAAAAAAAAAAAAAAAAAAAAAAAAAAAAAAAAAAAAAAAAAAAAAAAAAAAAAAAAAAAAAAAAAAAAAAAAAAAAAAAAAAAAAAAAAAAAAAAAAAAAAAAAAAAAAAAAAAAAAAAAAAAAAAAAAAAAAAAAAAAAAAAAAAAAAAAAAAAAAAAAAAAAAAAAAAAA/AAAAAAAAgD/v7m69AAAAPwAAAAAAAAAAAAAAAAAAAAAAAAAAAAAAAAAAAAAAAAAAAAAAAAAAAAAAAAAAAAAAAAAAAAAAAAAAAAAAAAAAAAAAAAAAAAAAAAAAAAAAAAAAAAAAAAAAAAAAAAAAAAAAAAAAAAAAAAAAAAAAAAAAAAAAAAAAAAAAAAAAAAAAAAAAAAAAAAAAAAAAAAAAAAAAAAAAAAAAAAAAAAAAAAAAAAAAAAAAAAAAAAAAAAAAAAAAAAAAAAAAAAAAAAAAAAAAAAAAAAAAAAAAAAAAAAAAAAAAAAAAAAAAAAAAAAAAAAAAAAAAAAAAAAAAAAAAAAAAAAAAAAAAAAAAAAAAAAAAAAAAAAAAAAAAAAAAAD8AAAAAAACAPQAAAAAAAAAAAAAAAAAAAAAAAAAAAAAAAAAAAAAAAAAAAAAAAAAAgD/v7m69AAAAPwAAAAAAAAAAAAAAAAAAAAAAAAAAAAAAAAAAAAAAAAAAAAAAAAAAAAAAAAAAAAAAAAAAAAAAAAAAAAAAAAAAAAAAAAAAAAAAAAAAAAAAAAAAAAAAAAAAAAAAAAAAAAAAAAAAAAAAAAAAAAAAAAAAAAAAAAAAAAAAAAAAAAAAAAAAAAAAAAAAAAAAAAAAAAAAAAAAAAAAAAAAAAAAAAAAAAAAAAAAAAAAAAAAAAAAAAAAAAAAAAAAAAAAAAAAAAAAAAAAAAAAAAAAAAAAAAAAAAAAAAAAAAAAAAAAAAAAAAAAAAAAAAAAAAAAAAAAAAAAAAAAAAAAAAAAAAAAAAAAAAAAAAAAAAAAAAAAAD8AAAAAAAAAAAAAAAAAAAAAAAAAAAAAgD/v7m69AAAAPwAAAAAAAAAAAAAAAAAAAAAAAAAAAAAAAAAAAAAAAAAAAAAAAAAAAAAAAAAAAAAAAAAAAAAAAAAAAAAAAAAAAAAAAAAAAAAAAAAAAAAAAAAAAAAAAAAAAAAAAAAAAAAAAAAAAAAAAAAAAAAAAAAAAAAAAAAAAAAAAAAAAAAAAAAAAAAAAAAAAAAAAAAAAAAAAAAAAAAAAAAAAAAAAAAAAAAAAAAAAAAAAAAAAAAAAAAAAAAAAAAAAAAAAAAAAAAAAAAAAAAAAAAAAAAAAAAAAAAAAAAAAAAAAAAAAAAAAAAAAAAAAAAAAAAAAAAAAAAAAAAAAAAAAAAAAAAAAAAAAAAAAAA/AAAAAAAAAABQcm9ncmFtIDE2AG9vcCBQb2ludABdO3MAYiBlY3gsZQAAgD/v7m69AAAAPwAAAAAAAAAAAAAAAAAAAAAAAAAAAAAAAAAAAAAAAAAAAAAAAAAAAAAAAAAAAAAAAAAAAAAAAAAAAAAAAAAAAAAAAAAAAAAAAAAAAAAAAAAAAAAAAAAAAAAAAAAAAAAAAAAAAAAAAAAAAAAAAAAAAAAAAAAAAAAAAAAAAAAAAAAAAAAAAAAAAAAAAAAAAAAAAAAAAAAAAAAAAAAAAAAAAAAAAAAAAAAAAAAAAAAAAAAAAAAAAAAAAAAAAAAAAAAAAAAAAAAAAAAAAAAAAAAAAAAAAAAAAAAAAAAAAAAAAAAAAAAAAAAAAAAAAAAAAAAAAAAAAAAAAAAAAAAAAAAAAAAAAAAAAAAAPwAAAAAAAIA/7+5uvQAAAD8AAAAAAAAAAAAAAAAAAAAAAAAAAAAAAAAAAAAAAAAAAAAAAAAAAAAAAAAAAAAAAAAAAAAAAAAAAAAAAAAAAAAAAAAAAAAAAAAAAAAAAAAAAAAAAAAAAAAAAAAAAAAAAAAAAAAAAAAAAAAAAAAAAAAAAAAAAAAAAAAAAAAAAAAAAAAAAAAAAAAAAAAAAAAAAAAAAAAAAAAAAAAAAAAAAAAAAAAAAAAAAAAAAAAAAAAAAAAAAAAAAAAAAAAAAAAAAAAAAAAAAAAAAAAAAAAAAAAAAAAAAAAAAAAAAAAAAAAAAAAAAAAAAAAAAAAAAAAAAAAAAAAAAAAAAAAAAAAAAAAAAAAAAAAAAAAAAAA/AAAAAM3MzDwAAAAAAAAAAAAAAAAAAAAAAAAAAAAAAAAAAAAAAAAAAAAAAAAAAIA/7+5uvQAAAD8AAAAAAAAAAAAAAAAAAAAAAAAAAAAAAAAAAAAAAAAAAAAAAAAAAAAAAAAAAAAAAAAAAAAAAAAAAAAAAAAAAAAAAAAAAAAAAAAAAAAAAAAAAAAAAAAAAAAAAAAAAAAAAAAAAAAAAAAAAAAAAAAAAAAAAAAAAAAAAAAAAAAAAAAAAAAAAAAAAAAAAAAAAAAAAAAAAAAAAAAAAAAAAAAAAAAAAAAAAAAAAAAAAAAAAAAAAAAAAAAAAAAAAAAAAAAAAAAAAAAAAAAAAAAAAAAAAAAAAAAAAAAAAAAAAAAAAAAAAAAAAAAAAAAAAAAAAAAAAAAAAAAAAAAAAAAAAAAAAAAAAAAAAAAAAAAAAAA/AAAAAAAAAAAAAAAAAAAAAAAAAAAAAIA/7+5uvQAAAD8AAAAAAAAAAAAAAAAAAAAAAAAAAAAAAAAAAAAAAAAAAAAAAAAAAAAAAAAAAAAAAAAAAAAAAAAAAAAAAAAAAAAAAAAAAAAAAAAAAAAAAAAAAAAAAAAAAAAAAAAAAAAAAAAAAAAAAAAAAAAAAAAAAAAAAAAAAAAAAAAAAAAAAAAAAAAAAAAAAAAAAAAAAAAAAAAAAAAAAAAAAAAAAAAAAAAAAAAAAAAAAAAAAAAAAAAAAAAAAAAAAAAAAAAAAAAAAAAAAAAAAAAAAAAAAAAAAAAAAAAAAAAAAAAAAAAAAAAAAAAAAAAAAAAAAAAAAAAAAAAAAAAAAAAAAAAAAAAAAAAAAAAAPwAAAAAAAAAAUHJvZ3JhbSAxNwBzZQBwcwBpbnQAwTQFAL80BbDENAUAAIA/7+5uvQAAAD8AAAAAAAAAAAAAAAAAAAAAAAAAAAAAAAAAAAAAAAAAAAAAAAAAAAAAAAAAAAAAAAAAAAAAAAAAAAAAAAAAAAAAAAAAAAAAAAAAAAAAAAAAAAAAAAAAAAAAAAAAAAAAAAAAAAAAAAAAAAAAAAAAAAAAAAAAAAAAAAAAAAAAAAAAAAAAAAAAAAAAAAAAAAAAAAAAAAAAAAAAAAAAAAAAAAAAAAAAAAAAAAAAAAAAAAAAAAAAAAAAAAAAAAAAAAAAAAAAAAAAAAAAAAAAAAAAAAAAAAAAAAAAAAAAAAAAAAAAAAAAAAAAAAAAAAAAAAAAAAAAAAAAAAAAAAAAAAAAAAAAAAAAAAAAAD8AAAAAAACAP+/ubr0AAAA/AAAAAAAAAAAAAAAAAAAAAAAAAAAAAAAAAAAAAAAAAAAAAAAAAAAAAAAAAAAAAAAAAAAAAAAAAAAAAAAAAAAAAAAAAAAAAAAAAAAAAAAAAAAAAAAAAAAAAAAAAAAAAAAAAAAAAAAAAAAAAAAAAAAAAAAAAAAAAAAAAAAAAAAAAAAAAAAAAAAAAAAAAAAAAAAAAAAAAAAAAAAAAAAAAAAAAAAAAAAAAAAAAAAAAAAAAAAAAAAAAAAAAAAAAAAAAAAAAAAAAAAAAAAAAAAAAAAAAAAAAAAAAAAAAAAAAAAAAAAAAAAAAAAAAAAAAAAAAAAAAAAAAAAAAAAAAAAAAAAAAAAAAAAAAAAAAAAAPwAAAAAAAAAAAAAAAAAAAAAAAAAAAAAAAAAAAAAAAAAAAAAAAAAAAAAAAAAAAACAP+/ubr0AAAA/AAAAAAAAAAAAAAAAAAAAAAAAAAAAAAAAAAAAAAAAAAAAAAAAAAAAAAAAAAAAAAAAAAAAAAAAAAAAAAAAAAAAAAAAAAAAAAAAAAAAAAAAAAAAAAAAAAAAAAAAAAAAAAAAAAAAAAAAAAAAAAAAAAAAAAAAAAAAAAAAAAAAAAAAAAAAAAAAAAAAAAAAAAAAAAAAAAAAAAAAAAAAAAAAAAAAAAAAAAAAAAAAAAAAAAAAAAAAAAAAAAAAAAAAAAAAAAAAAAAAAAAAAAAAAAAAAAAAAAAAAAAAAAAAAAAAAAAAAAAAAAAAAAAAAAAAAAAAAAAAAAAAAAAAAAAAAAAAAAAAAAAAAAAAAAAAAAAAPwAAAAAAAAAAAAAAAAAAAAAAAAAAAACAP+/ubr0AAAA/AAAAAAAAAAAAAAAAAAAAAAAAAAAAAAAAAAAAAAAAAAAAAAAAAAAAAAAAAAAAAAAAAAAAAAAAAAAAAAAAAAAAAAAAAAAAAAAAAAAAAAAAAAAAAAAAAAAAAAAAAAAAAAAAAAAAAAAAAAAAAAAAAAAAAAAAAAAAAAAAAAAAAAAAAAAAAAAAAAAAAAAAAAAAAAAAAAAAAAAAAAAAAAAAAAAAAAAAAAAAAAAAAAAAAAAAAAAAAAAAAAAAAAAAAAAAAAAAAAAAAAAAAAAAAAAAAAAAAAAAAAAAAAAAAAAAAAAAAAAAAAAAAAAAAAAAAAAAAAAAAAAAAAAAAAAAAAAAAAAAAAAAAD8AAAAAAAAAAFByb2dyYW0gMTgAYXJlAFBvaW50AOyFALBR8QWg+RQQAACAP+/ubr0AAAA/AAAAAAAAAAAAAAAAAAAAAAAAAAAAAAAAAAAAAAAAAAAAAAAAAAAAAAAAAAAAAAAAAAAAAAAAAAAAAAAAAAAAAAAAAAAAAAAAAAAAAAAAAAAAAAAAAAAAAAAAAAAAAAAAAAAAAAAAAAAAAAAAAAAAAAAAAAAAAAAAAAAAAAAAAAAAAAAAAAAAAAAAAAAAAAAAAAAAAAAAAAAAAAAAAAAAAAAAAAAAAAAAAAAAAAAAAAAAAAAAAAAAAAAAAAAAAAAAAAAAAAAAAAAAAAAAAAAAAAAAAAAAAAAAAAAAAAAAAAAAAAAAAAAAAAAAAAAAAAAAAAAAAAAAAAAAAAAAAAAAAAAAAAAAAAA/AAAAAAAAgD/v7m69AAAAPwAAAAAAAAAAAAAAAAAAAAAAAAAAAAAAAAAAAAAAAAAAAAAAAAAAAAAAAAAAAAAAAAAAAAAAAAAAAAAAAAAAAAAAAAAAAAAAAAAAAAAAAAAAAAAAAAAAAAAAAAAAAAAAAAAAAAAAAAAAAAAAAAAAAAAAAAAAAAAAAAAAAAAAAAAAAAAAAAAAAAAAAAAAAAAAAAAAAAAAAAAAAAAAAAAAAAAAAAAAAAAAAAAAAAAAAAAAAAAAAAAAAAAAAAAAAAAAAAAAAAAAAAAAAAAAAAAAAAAAAAAAAAAAAAAAAAAAAAAAAAAAAAAAAAAAAAAAAAAAAAAAAAAAAAAAAAAAAAAAAAAAAAAAAAAAAAAAAD8AAAAAAAAAAAAAAAAAAAAAAAAAAAAAAAAAAAAAAAAAAAAAAAAAAAAAAAAAAAAAgD/v7m69AAAAPwAAAAAAAAAAAAAAAAAAAAAAAAAAAAAAAAAAAAAAAAAAAAAAAAAAAAAAAAAAAAAAAAAAAAAAAAAAAAAAAAAAAAAAAAAAAAAAAAAAAAAAAAAAAAAAAAAAAAAAAAAAAAAAAAAAAAAAAAAAAAAAAAAAAAAAAAAAAAAAAAAAAAAAAAAAAAAAAAAAAAAAAAAAAAAAAAAAAAAAAAAAAAAAAAAAAAAAAAAAAAAAAAAAAAAAAAAAAAAAAAAAAAAAAAAAAAAAAAAAAAAAAAAAAAAAAAAAAAAAAAAAAAAAAAAAAAAAAAAAAAAAAAAAAAAAAAAAAAAAAAAAAAAAAAAAAAAAAAAAAAAAAAAAAAAAAAAAAD8AAAAAAAAAAAAAAAAAAAAAAAAAAAAAgD/v7m69AAAAPwAAAAAAAAAAAAAAAAAAAAAAAAAAAAAAAAAAAAAAAAAAAAAAAAAAAAAAAAAAAAAAAAAAAAAAAAAAAAAAAAAAAAAAAAAAAAAAAAAAAAAAAAAAAAAAAAAAAAAAAAAAAAAAAAAAAAAAAAAAAAAAAAAAAAAAAAAAAAAAAAAAAAAAAAAAAAAAAAAAAAAAAAAAAAAAAAAAAAAAAAAAAAAAAAAAAAAAAAAAAAAAAAAAAAAAAAAAAAAAAAAAAAAAAAAAAAAAAAAAAAAAAAAAAAAAAAAAAAAAAAAAAAAAAAAAAAAAAAAAAAAAAAAAAAAAAAAAAAAAAAAAAAAAAAAAAAAAAAAAAAAAAAA/AAAAAAAAAABQcm9ncmFtIDE5AHNlAHBzAGludADBNAUAvzQFsMQ0BQAAgD/v7m69AAAAPwAAAAAAAAAAAAAAAAAAAAAAAAAAAAAAAAAAAAAAAAAAAAAAAAAAAAAAAAAAAAAAAAAAAAAAAAAAAAAAAAAAAAAAAAAAAAAAAAAAAAAAAAAAAAAAAAAAAAAAAAAAAAAAAAAAAAAAAAAAAAAAAAAAAAAAAAAAAAAAAAAAAAAAAAAAAAAAAAAAAAAAAAAAAAAAAAAAAAAAAAAAAAAAAAAAAAAAAAAAAAAAAAAAAAAAAAAAAAAAAAAAAAAAAAAAAAAAAAAAAAAAAAAAAAAAAAAAAAAAAAAAAAAAAAAAAAAAAAAAAAAAAAAAAAAAAAAAAAAAAAAAAAAAAAAAAAAAAAAAAAAAAAAAAAAAPwAAAAAAAIA/7+5uvQAAAD8AAAAAAAAAAAAAAAAAAAAAAAAAAAAAAAAAAAAAAAAAAAAAAAAAAAAAAAAAAAAAAAAAAAAAAAAAAAAAAAAAAAAAAAAAAAAAAAAAAAAAAAAAAAAAAAAAAAAAAAAAAAAAAAAAAAAAAAAAAAAAAAAAAAAAAAAAAAAAAAAAAAAAAAAAAAAAAAAAAAAAAAAAAAAAAAAAAAAAAAAAAAAAAAAAAAAAAAAAAAAAAAAAAAAAAAAAAAAAAAAAAAAAAAAAAAAAAAAAAAAAAAAAAAAAAAAAAAAAAAAAAAAAAAAAAAAAAAAAAAAAAAAAAAAAAAAAAAAAAAAAAAAAAAAAAAAAAAAAAAAAAAAAAAAAAAAAAAA/AAAAAAAAAAAAAAAAAAAAAAAAAAAAAAAAAAAAAAAAAAAAAAAAAAAAAAAAAAAAAIA/7+5uvQAAAD8AAAAAAAAAAAAAAAAAAAAAAAAAAAAAAAAAAAAAAAAAAAAAAAAAAAAAAAAAAAAAAAAAAAAAAAAAAAAAAAAAAAAAAAAAAAAAAAAAAAAAAAAAAAAAAAAAAAAAAAAAAAAAAAAAAAAAAAAAAAAAAAAAAAAAAAAAAAAAAAAAAAAAAAAAAAAAAAAAAAAAAAAAAAAAAAAAAAAAAAAAAAAAAAAAAAAAAAAAAAAAAAAAAAAAAAAAAAAAAAAAAAAAAAAAAAAAAAAAAAAAAAAAAAAAAAAAAAAAAAAAAAAAAAAAAAAAAAAAAAAAAAAAAAAAAAAAAAAAAAAAAAAAAAAAAAAAAAAAAAAAAAAAAAAAAAAAAAA/AAAAAAAAAAAAAAAAAAAAAAAAAAAAAIA/7+5uvQAAAD8AAAAAAAAAAAAAAAAAAAAAAAAAAAAAAAAAAAAAAAAAAAAAAAAAAAAAAAAAAAAAAAAAAAAAAAAAAAAAAAAAAAAAAAAAAAAAAAAAAAAAAAAAAAAAAAAAAAAAAAAAAAAAAAAAAAAAAAAAAAAAAAAAAAAAAAAAAAAAAAAAAAAAAAAAAAAAAAAAAAAAAAAAAAAAAAAAAAAAAAAAAAAAAAAAAAAAAAAAAAAAAAAAAAAAAAAAAAAAAAAAAAAAAAAAAAAAAAAAAAAAAAAAAAAAAAAAAAAAAAAAAAAAAAAAAAAAAAAAAAAAAAAAAAAAAAAAAAAAAAAAAAAAAAAAAAAAAAAAAAAAAAAAPwAAAAAAAAAAUHJvZ3JhbSAyMABQb2ludABpbnQAU/EFANI0EEfSNBA=" plugin="uservst:Instruments/NESVST/NES VST 1.2.dll" guivisible="0">
              <key/>
            </vestige>
          </instrument>
          <eldata fcut="14000" ftype="0" fres="0.5" fwet="0">
            <elvol sustain="0.5" lspd_denominator="4" dec="0.5" pdel="0" rel="0.1" userwavefile="" latt="0" lspd_numerator="4" att="0" amt="0" ctlenvamt="0" lspd="0.1" lshp="0" x100="0" lpdel="0" hold="0.5" lspd_syncmode="0" lamt="0"/>
            <elcut sustain="0.5" lspd_denominator="4" dec="0.5" pdel="0" rel="0.1" userwavefile="" latt="0" lspd_numerator="4" att="0" amt="0" ctlenvamt="0" lspd="0.1" lshp="0" x100="0" lpdel="0" hold="0.5" lspd_syncmode="0" lamt="0"/>
            <elres sustain="0.5" lspd_denominator="4" dec="0.5" pdel="0" rel="0.1" userwavefile="" latt="0" lspd_numerator="4" att="0" amt="0" ctlenvamt="0" lspd="0.1" lshp="0" x100="0" lpdel="0" hold="0.5" lspd_syncmode="0" lamt="0"/>
          </eldata>
          <chordcreator chord-enabled="0" chord="0" chordrange="1"/>
          <arpeggiator arpmode="0" arpskip="0" arprange="1" arpmiss="0" arptime_numerator="4" arptime="200" arptime_denominator="4" arpdir="0" arprepeats="1" arp-enabled="0" arpcycle="0" arpgate="100" arp="0" arptime_syncmode="0"/>
          <midiport inputcontroller="0" fixedinputvelocity="-1" fixedoutputvelocity="-1" outputcontroller="0" outputprogram="1" writable="0" fixedoutputnote="-1" outputchannel="1" basevelocity="63" inputchannel="0" readable="0"/>
          <fxchain numofeffects="0" enabled="0"/>
        </instrumenttrack>
        <midiclip type="1" steps="16" pos="0" name="" muted="0">
          <note key="65" pan="0" pos="0" vol="100" len="12"/>
          <note key="69" pan="0" pos="24" vol="100" len="12"/>
          <note key="67" pan="0" pos="48" vol="100" len="12"/>
          <note key="63" pan="0" pos="72" vol="100" len="12"/>
          <note key="67" pan="0" pos="96" vol="100" len="12"/>
          <note key="65" pan="0" pos="120" vol="100" len="12"/>
          <note key="70" pan="0" pos="144" vol="100" len="12"/>
          <note key="65" pan="0" pos="192" vol="100" len="12"/>
          <note key="69" pan="0" pos="216" vol="100" len="12"/>
          <note key="67" pan="0" pos="240" vol="100" len="12"/>
          <note key="65" pan="0" pos="264" vol="100" len="12"/>
          <note key="70" pan="0" pos="288" vol="100" len="12"/>
          <note key="67" pan="0" pos="312" vol="100" len="12"/>
          <note key="74" pan="0" pos="336" vol="100" len="12"/>
          <note key="70" pan="0" pos="384" vol="100" len="12"/>
          <note key="74" pan="0" pos="408" vol="100" len="12"/>
          <note key="72" pan="0" pos="432" vol="100" len="12"/>
          <note key="67" pan="0" pos="456" vol="100" len="12"/>
          <note key="72" pan="0" pos="480" vol="100" len="12"/>
          <note key="70" pan="0" pos="504" vol="100" len="12"/>
          <note key="76" pan="0" pos="528" vol="100" len="12"/>
          <note key="64" pan="0" pos="576" vol="100" len="12"/>
          <note key="70" pan="0" pos="600" vol="100" len="12"/>
          <note key="67" pan="0" pos="624" vol="100" len="12"/>
          <note key="60" pan="0" pos="648" vol="100" len="12"/>
          <note key="67" pan="0" pos="672" vol="100" len="12"/>
          <note key="64" pan="0" pos="696" vol="100" len="12"/>
          <note key="70" pan="0" pos="720" vol="100" len="12"/>
        </midiclip>
        <midiclip type="1" steps="16" pos="768" name="" muted="0">
          <note key="65" pan="0" pos="0" vol="100" len="24"/>
          <note key="69" pan="0" pos="24" vol="100" len="24"/>
          <note key="67" pan="0" pos="48" vol="100" len="24"/>
          <note key="63" pan="0" pos="72" vol="100" len="24"/>
          <note key="67" pan="0" pos="96" vol="100" len="24"/>
          <note key="65" pan="0" pos="120" vol="100" len="24"/>
          <note key="70" pan="0" pos="144" vol="100" len="24"/>
          <note key="65" pan="0" pos="192" vol="100" len="24"/>
          <note key="69" pan="0" pos="216" vol="100" len="24"/>
          <note key="67" pan="0" pos="240" vol="100" len="24"/>
          <note key="65" pan="0" pos="264" vol="100" len="24"/>
          <note key="70" pan="0" pos="288" vol="100" len="24"/>
          <note key="67" pan="0" pos="312" vol="100" len="24"/>
          <note key="74" pan="0" pos="336" vol="100" len="24"/>
          <note key="70" pan="0" pos="384" vol="100" len="24"/>
          <note key="74" pan="0" pos="408" vol="100" len="24"/>
          <note key="72" pan="0" pos="432" vol="100" len="24"/>
          <note key="67" pan="0" pos="456" vol="100" len="24"/>
          <note key="72" pan="0" pos="480" vol="100" len="24"/>
          <note key="70" pan="0" pos="504" vol="100" len="24"/>
          <note key="76" pan="0" pos="528" vol="100" len="24"/>
          <note key="64" pan="0" pos="576" vol="100" len="24"/>
          <note key="70" pan="0" pos="600" vol="100" len="24"/>
          <note key="67" pan="0" pos="624" vol="100" len="24"/>
          <note key="60" pan="0" pos="648" vol="100" len="24"/>
          <note key="67" pan="0" pos="672" vol="100" len="24"/>
          <note key="64" pan="0" pos="696" vol="100" len="24"/>
          <note key="70" pan="0" pos="720" vol="100" len="24"/>
        </midiclip>
      </track>
      <track type="0" name="Noise" solo="0" mutedBeforeSolo="0" muted="0">
        <instrumenttrack usemasterpitch="0" mixch="11" firstkey="0" keymap="0" lastkey="127" pan="0" enablecc="0" pitch="0" pitchrange="1" vol="100" basenote="69" scale="0" enabled="0" range_import="1">
          <midicontrollers cc43="0" cc74="0" cc111="0" cc119="0" cc124="0" cc108="0" cc7="0" cc49="0" cc95="0" cc116="0" cc35="0" cc98="0" cc105="0" cc14="0" cc48="0" cc65="0" cc11="0" cc17="0" cc34="0" cc23="0" cc15="0" cc22="0" cc55="0" cc68="0" cc4="0" cc28="0" cc13="0" cc44="0" cc69="0" cc3="0" cc77="0" cc73="0" cc1="0" cc80="0" cc58="0" cc120="0" cc0="0" cc21="0" cc85="0" cc115="0" cc29="0" cc66="0" cc53="0" cc90="0" cc96="0" cc37="0" cc46="0" cc25="0" cc109="0" cc52="0" cc110="0" cc75="0" cc57="0" cc92="0" cc93="0" cc125="0" cc18="0" cc122="0" cc19="0" cc32="0" cc103="0" cc86="0" cc121="0" cc6="0" cc56="0" cc94="0" cc70="0" cc64="0" cc127="0" cc59="0" cc63="0" cc9="0" cc82="0" cc78="0" cc114="0" cc104="0" cc36="0" cc30="0" cc12="0" cc10="0" cc84="0" cc76="0" cc88="0" cc20="0" cc16="0" cc101="0" cc27="0" cc8="0" cc5="0" cc81="0" cc24="0" cc99="0" cc60="0" cc102="0" cc106="0" cc26="0" cc61="0" cc39="0" cc33="0" cc38="0" cc45="0" cc100="0" cc112="0" cc126="0" cc67="0" cc50="0" cc42="0" cc113="0" cc41="0" cc87="0" cc107="0" cc2="0" cc79="0" cc123="0" cc40="0" cc71="0" cc97="0" cc83="0" cc118="0" cc62="0" cc117="0" cc72="0" cc31="0" cc54="0" cc91="0" cc89="0" cc47="0" cc51="0"/>
          <instrument name="vestige">
            <vestige program="0" chunk="AACAP4mIiD0AAIA/AAAAAAAAAD8AAAA/AAAAPwAAAD8AAAA/AAAAPwAAAD8AAAA/AAAAPwAAQD8AAEA/AABAPwAAQD8AAEA/AABAPwAAQD8AAEA/AABAPwAAQD8AAEA/AABAPwAAQD8AAEA/AABAPwAAQD8AAEA/AABAPwAAQD8AAEA/AABAPwAAQD8AAEA/AABAPwAAQD8AAEA/AABAPwAAQD8AAEA/AABAPwAAQD8AAEA/AABAPwAAQD8AAEA/AABAPwAAQD8AAEA/AABAPwAAQD8AAEA/AABAPwAAQD8AAEA/AABAPwAAQD8AAEA/AABAPwAAQD8AAEA/AABAPwAAQD8AAEA/AABAPwAAQD/MzEw9AAAAAAAAgD+JiIg9AACAPwAAAAAAAAAAAAAAPwAAAD8AAAA/AAAAPwAAAD8AAAA/AAAAPwAAAD8AAAAAAAAAAAAAAAAAAAAAAAAAAAAAAAAAAAAAAAAAAAAAAAAAAAAAAAAAAAAAAAAAAAAAAAAAAAAAAAAAAAAAAAAAAAAAAAAAAAAAAAAAAAAAAAAAAAAAAAAAAAAAAAAAAAAAAAAAAAAAAAAAAAAAAAAAAAAAAAAAAAAAAAAAAAAAAAAAAAAAAAAAAAAAAAAAAAAAAAAAAAAAAAAAAAAAAAAAAAAAAAAAAAAAAAAAAAAAAAAAAAAAAAAAAAAAAAAAAAAAAAAAAAAAAAAAAAAAAAAAAAAAAAAAAAAAAAAAAAAAAAAAAAAAsMyMPgAAAAAAAAAAAAAAAAAAAAAAAAAAAAAAAAAAAAAAAAAAAAAAPwAAgD+JiIg9AABgPwAAAAAAAAA/AAAAPwAAAD8AAAA/AAAAPwAAAD8AAAA/AAAAPwAAAD8AAAAAAAAAAAAAAAAAAAAAAAAAAAAAAAAAAAAAAAAAAAAAAAAAAAAAAAAAAAAAAAAAAAAAAAAAAAAAAAAAAAAAAAAAAAAAAAAAAAAAAAAAAAAAAAAAAAAAAAAAAAAAAAAAAAAAAAAAAAAAAAAAAAAAAAAAAAAAAAAAAAAAAAAAAAAAAAAAAAAAAAAAAAAAAAAAAAAAAAAAAAAAAAAAAAAAAAAAAAAAAAAAAAAAAAAAAAAAAAAAAAAAAAAAAAAAAAAAAAAAAAAAAAAAAAAAAAAAAAAAAAAAAAAAAAAATI4rPszMTD0AAAAAAAAAPwAAAAAAAAAAAACAPwAAgD+JiIg9AACAPwAAgD+8uzs/q6oqP4mICD/OzMw+iYiIPomICD4AAAAAAAAAAImIiD6JiAg+iYgIPgAAAACJiAg/8O7uPvDu7j7OzMw+zszMPs7MzD7OzMw+zszMPquqqj6rqqo+iYiIPomIiD7OzEw+zsxMPomICD6JiAg+iYgIPomIiD2JiIg9iYiIPQAAAACJiIg9AAAAAAAAAAAAAAAAAAAAAAAAAAAAAAAAAAAAAAAAAAAAAAAAAAAAAAAAAAAAAAAAAAAAAAAAAAAAAAAAAAAAAAAAAAAAAAAAAAAAAAAAAAAAAAAAAAAAAAAAAAAAAAAAAAAAAAAAAAAAAAAAAAAAAAAAAAAAAAAAAAAAAAAAAD9EZWZhdWx0IFNxdWFyZQBUaW1lAADT6gIA6BgQWNPqAgAAgD+JiIg9AACAPwAAAAAAAEA/AABAPwAAQD8AAEA/AABAPwAAQD8AAEA/AABAPwAAAAAAAAAAAAAAAAAAAAAAAAAAAAAAAAAAAAAAAAAAAAAAAAAAAAAAAAAAAAAAAAAAAAAAAAAAAAAAAAAAAAAAAAAAAAAAAAAAAAAAAAAAAAAAAAAAAAAAAAAAAAAAAAAAAAAAAAAAAAAAAAAAAAAAAAAAAAAAAAAAAAAAAAAAAAAAAAAAAAAAAAAAAAAAAAAAAAAAAAAAAAAAAAAAAAAAAAAAAAAAAAAAAAAAAAAAAAAAAAAAAAAAAAAAAAAAAAAAAAAAAAAAAAAAAAAAAAAAAAAAAAAAAAAAAAAAAAAA5W+CPQAAgD8AAIA/tYiIPQAAgD8AAAAAAAAAPwAAAD8AAAA/AAAAPwAAAD8AAAA/AAAAPwAAAD8AAAAAAAAAAAAAAAAAAAAAAAAAAAAAAAAAAAAAAAAAAAAAAAAAAAAAAAAAAAAAAAAAAAAAAAAAAAAAAAAAAAAAAAAAAAAAAAAAAAAAAAAAAAAAAAAAAAAAAAAAAAAAAAAAAAAAAAAAAAAAAAAAAAAAAAAAAAAAAAAAAAAAAAAAAAAAAAAAAAAAAAAAAAAAAAAAAAAAAAAAAAAAAAAAAAAAAAAAAAAAAAAAAAAAAAAAAAAAAAAAAAAAAAAAAAAAAAAAAAAAAAAAAAAAAAAAAAAAAAAAAAAAAAAAAAAAAAAAAEyOKz6fjoc9AACAP97MjD4AAAAAAAAAAAAAAAAAAAAAAAAAAAAAAAAAAAAAAAAAAAAAAAAAAIA/tYiIPQAAgD8AAAAAAAAAPwAAAD8AAAA/AAAAPwAAAD8AAAA/AAAAPwAAAD8AAAAAAAAAAAAAAAAAAAAAAAAAAAAAAAAAAAAAAAAAAAAAAAAAAAAAAAAAAAAAAAAAAAAAAAAAAAAAAAAAAAAAAAAAAAAAAAAAAAAAAAAAAAAAAAAAAAAAAAAAAAAAAAAAAAAAAAAAAAAAAAAAAAAAAAAAAAAAAAAAAAAAAAAAAAAAAAAAAAAAAAAAAAAAAAAAAAAAAAAAAAAAAAAAAAAAAAAAAAAAAAAAAAAAAAAAAAAAAAAAAAAAAAAAAAAAAAAAAAAAAAAAAAAAAAAAAAAAAAAAAAAAAAAAAAAAAAAAAEyOKz64HoU9AACAPwAAAD8AAAAAAAAAAAAAgD8AAIA/tYiIPQAAgD+8uzs/vLs7P7y7Oz+8uzs/vLs7P7y7Oz+8uzs/vLs7P4mICD6JiAg+AAAAAAAAAAAAAAAAAAAAAAAAAAAAAAAAAAAAAAAAAAAAAAAAAAAAAAAAAAAAAAAAAAAAAAAAAAAAAAAAAAAAAAAAAAAAAAAAAAAAAAAAAAAAAAAAAAAAAAAAAAAAAAAAAAAAAAAAAAAAAAAAAAAAAAAAAAAAAAAAAAAAAAAAAAAAAAAAAAAAAAAAAAAAAAAAAAAAAAAAAAAAAAAAAAAAAAAAAAAAAAAAAAAAAAAAAAAAAAAAAAAAAAAAAAAAAAAAAAAAAAAAAAAAAAAAAAAAAAAAAAAAAAAAuB6FPQAAgD8AAIA+RGVmYXVsdCBUcmlhbmdsZQBwcwAA1eoCANPqAljV6gIAAIA/tYiIPQAAgD8AAAAAAABAPwAAQD8AAEA/AABAPwAAQD8AAEA/AABAPwAAQD8AAAAAAAAAAAAAAAAAAAAAAAAAAAAAAAAAAAAAAAAAAAAAAAAAAAAAAAAAAAAAAAAAAAAAAAAAAAAAAAAAAAAAAAAAAAAAAAAAAAAAAAAAAAAAAAAAAAAAAAAAAAAAAAAAAAAAAAAAAAAAAAAAAAAAAAAAAAAAAAAAAAAAAAAAAAAAAAAAAAAAAAAAAAAAAAAAAAAAAAAAAAAAAAAAAAAAAAAAAAAAAAAAAAAAAAAAAAAAAAAAAAAAAAAAAAAAAAAAAAAAAAAAAAAAAAAAAAAAAAAAAAAAAAAAAAAAAAAAAJ+Ohz0AAIA/AACAP7WIiD0AAIA/AAAAAAAAAD8AAAA/AAAAPwAAAD8AAAA/AAAAPwAAAD8AAAA/AAAAAAAAAAAAAAAAAAAAAAAAAAAAAAAAAAAAAAAAAAAAAAAAAAAAAAAAAAAAAAAAAAAAAAAAAAAAAAAAAAAAAAAAAAAAAAAAAAAAAAAAAAAAAAAAAAAAAAAAAAAAAAAAAAAAAAAAAAAAAAAAAAAAAAAAAAAAAAAAAAAAAAAAAAAAAAAAAAAAAAAAAAAAAAAAAAAAAAAAAAAAAAAAAAAAAAAAAAAAAAAAAAAAAAAAAAAAAAAAAAAAAAAAAAAAAAAAAAAAAAAAAAAAAAAAAAAAAAAAAAAAAAAAAAAAAAAAAABMjis+n46HPQAAgD86MwM/AAAAAAAAAAAAAAAAAAAAAAAAAAAAAAAAAAAAAAAAAAAAAAAAAACAP7WIiD0AAIA/AAAAAAAAAD8AAAA/AAAAPwAAAD8AAAA/AAAAPwAAAD8AAAA/AAAAAAAAAAAAAAAAAAAAAAAAAAAAAAAAAAAAAAAAAAAAAAAAAAAAAAAAAAAAAAAAAAAAAAAAAAAAAAAAAAAAAAAAAAAAAAAAAAAAAAAAAAAAAAAAAAAAAAAAAAAAAAAAAAAAAAAAAAAAAAAAAAAAAAAAAAAAAAAAAAAAAAAAAAAAAAAAAAAAAAAAAAAAAAAAAAAAAAAAAAAAAAAAAAAAAAAAAAAAAAAAAAAAAAAAAAAAAAAAAAAAAAAAAAAAAAAAAAAAAAAAAAAAAAAAAAAAAAAAAAAAAAAAAAAAAAAAAABMjis+uB6FPQAAgD8AAAA/AAAAAAAAAAAAAIA/AACAP7WIiD0AAIA/trs7P7a7Oz+2uzs/trs7P7a7Oz+2uzs/trs7P7a7Oz8AAAAAAAAAAAAAAAAAAAAAAAAAAAAAAAAAAAAAAAAAAAAAAAAAAAAAAAAAAAAAAAAAAAAAAAAAAAAAAAAAAAAAAAAAAAAAAAAAAAAAAAAAAAAAAAAAAAAAAAAAAAAAAAAAAAAAAAAAAAAAAAAAAAAAAAAAAAAAAAAAAAAAAAAAAAAAAAAAAAAAAAAAAAAAAAAAAAAAAAAAAAAAAAAAAAAAAAAAAAAAAAAAAAAAAAAAAAAAAAAAAAAAAAAAAAAAAAAAAAAAAAAAAAAAAAAAAAAAAAAAAAAAAAAAAAAAAAAAALgehT0AAIA/AAAAP0RlZmF1bHQgTm9pc2UAcHMAcHMAANXqAgDSNBBH0jQQAACAP+/ubr0AAAA/AAAAAAAAAAAAAAAAAAAAAAAAAAAAAAAAAAAAAAAAAAAAAAAAAAAAAAAAAAAAAAAAAAAAAAAAAAAAAAAAAAAAAAAAAAAAAAAAAAAAAAAAAAAAAAAAAAAAAAAAAAAAAAAAAAAAAAAAAAAAAAAAAAAAAAAAAAAAAAAAAAAAAAAAAAAAAAAAAAAAAAAAAAAAAAAAAAAAAAAAAAAAAAAAAAAAAAAAAAAAAAAAAAAAAAAAAAAAAAAAAAAAAAAAAAAAAAAAAAAAAAAAAAAAAAAAAAAAAAAAAAAAAAAAAAAAAAAAAAAAAAAAAAAAAAAAAAAAAAAAAAAAAAAAAAAAAAAAAAAAAAAAAAAAAAA/AAAAAAAAgD/v7m69AAAAPwAAAAAAAAAAAAAAAAAAAAAAAAAAAAAAAAAAAAAAAAAAAAAAAAAAAAAAAAAAAAAAAAAAAAAAAAAAAAAAAAAAAAAAAAAAAAAAAAAAAAAAAAAAAAAAAAAAAAAAAAAAAAAAAAAAAAAAAAAAAAAAAAAAAAAAAAAAAAAAAAAAAAAAAAAAAAAAAAAAAAAAAAAAAAAAAAAAAAAAAAAAAAAAAAAAAAAAAAAAAAAAAAAAAAAAAAAAAAAAAAAAAAAAAAAAAAAAAAAAAAAAAAAAAAAAAAAAAAAAAAAAAAAAAAAAAAAAAAAAAAAAAAAAAAAAAAAAAAAAAAAAAAAAAAAAAAAAAAAAAAAAAAAAAAAAAAAAAD8AAAAAzcyMPgAAAAAAAAAAAAAAAAAAAAAAAAAAAAAAAAAAAAAAAAAAAAAAAAAAgD/v7m69AAAAPwAAAAAAAAAAAAAAAAAAAAAAAAAAAAAAAAAAAAAAAAAAAAAAAAAAAAAAAAAAAAAAAAAAAAAAAAAAAAAAAAAAAAAAAAAAAAAAAAAAAAAAAAAAAAAAAAAAAAAAAAAAAAAAAAAAAAAAAAAAAAAAAAAAAAAAAAAAAAAAAAAAAAAAAAAAAAAAAAAAAAAAAAAAAAAAAAAAAAAAAAAAAAAAAAAAAAAAAAAAAAAAAAAAAAAAAAAAAAAAAAAAAAAAAAAAAAAAAAAAAAAAAAAAAAAAAAAAAAAAAAAAAAAAAAAAAAAAAAAAAAAAAAAAAAAAAAAAAAAAAAAAAAAAAAAAAAAAAAAAAAAAAAAAAAAAAAAAAD8AAAAAAAAAAAAAAAAAAAAAAAAAAAAAgD/v7m69AAAAPwAAAAAAAAAAAAAAAAAAAAAAAAAAAAAAAAAAAAAAAAAAAAAAAAAAAAAAAAAAAAAAAAAAAAAAAAAAAAAAAAAAAAAAAAAAAAAAAAAAAAAAAAAAAAAAAAAAAAAAAAAAAAAAAAAAAAAAAAAAAAAAAAAAAAAAAAAAAAAAAAAAAAAAAAAAAAAAAAAAAAAAAAAAAAAAAAAAAAAAAAAAAAAAAAAAAAAAAAAAAAAAAAAAAAAAAAAAAAAAAAAAAAAAAAAAAAAAAAAAAAAAAAAAAAAAAAAAAAAAAAAAAAAAAAAAAAAAAAAAAAAAAAAAAAAAAAAAAAAAAAAAAAAAAAAAAAAAAAAAAAAAAAA/AAAAAAAAAABQcm9ncmFtIDQAAFBvaW50AABudADRNBAA0TQQQNA0EAAAgD/v7m69AAAAPwAAAAAAAAAAAAAAAAAAAAAAAAAAAAAAAAAAAAAAAAAAAAAAAAAAAAAAAAAAAAAAAAAAAAAAAAAAAAAAAAAAAAAAAAAAAAAAAAAAAAAAAAAAAAAAAAAAAAAAAAAAAAAAAAAAAAAAAAAAAAAAAAAAAAAAAAAAAAAAAAAAAAAAAAAAAAAAAAAAAAAAAAAAAAAAAAAAAAAAAAAAAAAAAAAAAAAAAAAAAAAAAAAAAAAAAAAAAAAAAAAAAAAAAAAAAAAAAAAAAAAAAAAAAAAAAAAAAAAAAAAAAAAAAAAAAAAAAAAAAAAAAAAAAAAAAAAAAAAAAAAAAAAAAAAAAAAAAAAAAAAAAAAAAAAAPwAAAAAAAIA/7+5uvQAAAD8AAAAAAAAAAAAAAAAAAAAAAAAAAAAAAAAAAAAAAAAAAAAAAAAAAAAAAAAAAAAAAAAAAAAAAAAAAAAAAAAAAAAAAAAAAAAAAAAAAAAAAAAAAAAAAAAAAAAAAAAAAAAAAAAAAAAAAAAAAAAAAAAAAAAAAAAAAAAAAAAAAAAAAAAAAAAAAAAAAAAAAAAAAAAAAAAAAAAAAAAAAAAAAAAAAAAAAAAAAAAAAAAAAAAAAAAAAAAAAAAAAAAAAAAAAAAAAAAAAAAAAAAAAAAAAAAAAAAAAAAAAAAAAAAAAAAAAAAAAAAAAAAAAAAAAAAAAAAAAAAAAAAAAAAAAAAAAAAAAAAAAAAAAAAAAAAAAAA/AAAAAAAAAAAAAAAAAAAAAAAAAAAAAAAAAAAAAAAAAAAAAAAAAAAAAAAAAAAAAIA/7+5uvQAAAD8AAAAAAAAAAAAAAAAAAAAAAAAAAAAAAAAAAAAAAAAAAAAAAAAAAAAAAAAAAAAAAAAAAAAAAAAAAAAAAAAAAAAAAAAAAAAAAAAAAAAAAAAAAAAAAAAAAAAAAAAAAAAAAAAAAAAAAAAAAAAAAAAAAAAAAAAAAAAAAAAAAAAAAAAAAAAAAAAAAAAAAAAAAAAAAAAAAAAAAAAAAAAAAAAAAAAAAAAAAAAAAAAAAAAAAAAAAAAAAAAAAAAAAAAAAAAAAAAAAAAAAAAAAAAAAAAAAAAAAAAAAAAAAAAAAAAAAAAAAAAAAAAAAAAAAAAAAAAAAAAAAAAAAAAAAAAAAAAAAAAAAAAAAAAAAAAAAAA/AAAAAAAAAAAAAAAAAAAAAAAAAAAAAIA/7+5uvQAAAD8AAAAAAAAAAAAAAAAAAAAAAAAAAAAAAAAAAAAAAAAAAAAAAAAAAAAAAAAAAAAAAAAAAAAAAAAAAAAAAAAAAAAAAAAAAAAAAAAAAAAAAAAAAAAAAAAAAAAAAAAAAAAAAAAAAAAAAAAAAAAAAAAAAAAAAAAAAAAAAAAAAAAAAAAAAAAAAAAAAAAAAAAAAAAAAAAAAAAAAAAAAAAAAAAAAAAAAAAAAAAAAAAAAAAAAAAAAAAAAAAAAAAAAAAAAAAAAAAAAAAAAAAAAAAAAAAAAAAAAAAAAAAAAAAAAAAAAAAAAAAAAAAAAAAAAAAAAAAAAAAAAAAAAAAAAAAAAAAAAAAAAAAAPwAAAAAAAAAAUHJvZ3JhbSA1AFN0ZXAgVGltZQCE1TQQANU0EJTVNBAAAIA/7+5uvQAAAD8AAAAAAAAAAAAAAAAAAAAAAAAAAAAAAAAAAAAAAAAAAAAAAAAAAAAAAAAAAAAAAAAAAAAAAAAAAAAAAAAAAAAAAAAAAAAAAAAAAAAAAAAAAAAAAAAAAAAAAAAAAAAAAAAAAAAAAAAAAAAAAAAAAAAAAAAAAAAAAAAAAAAAAAAAAAAAAAAAAAAAAAAAAAAAAAAAAAAAAAAAAAAAAAAAAAAAAAAAAAAAAAAAAAAAAAAAAAAAAAAAAAAAAAAAAAAAAAAAAAAAAAAAAAAAAAAAAAAAAAAAAAAAAAAAAAAAAAAAAAAAAAAAAAAAAAAAAAAAAAAAAAAAAAAAAAAAAAAAAAAAAAAAAAAAAD8AAAAAAACAP+/ubr0AAAA/AAAAAAAAAAAAAAAAAAAAAAAAAAAAAAAAAAAAAAAAAAAAAAAAAAAAAAAAAAAAAAAAAAAAAAAAAAAAAAAAAAAAAAAAAAAAAAAAAAAAAAAAAAAAAAAAAAAAAAAAAAAAAAAAAAAAAAAAAAAAAAAAAAAAAAAAAAAAAAAAAAAAAAAAAAAAAAAAAAAAAAAAAAAAAAAAAAAAAAAAAAAAAAAAAAAAAAAAAAAAAAAAAAAAAAAAAAAAAAAAAAAAAAAAAAAAAAAAAAAAAAAAAAAAAAAAAAAAAAAAAAAAAAAAAAAAAAAAAAAAAAAAAAAAAAAAAAAAAAAAAAAAAAAAAAAAAAAAAAAAAAAAAAAAAAAAAAAAPwAAAAAAAEA+AAAAAAAAAAAAAAAAAAAAAAAAAAAAAAAAAAAAAAAAAAAAAAAAAACAP+/ubr0AAAA/AAAAAAAAAAAAAAAAAAAAAAAAAAAAAAAAAAAAAAAAAAAAAAAAAAAAAAAAAAAAAAAAAAAAAAAAAAAAAAAAAAAAAAAAAAAAAAAAAAAAAAAAAAAAAAAAAAAAAAAAAAAAAAAAAAAAAAAAAAAAAAAAAAAAAAAAAAAAAAAAAAAAAAAAAAAAAAAAAAAAAAAAAAAAAAAAAAAAAAAAAAAAAAAAAAAAAAAAAAAAAAAAAAAAAAAAAAAAAAAAAAAAAAAAAAAAAAAAAAAAAAAAAAAAAAAAAAAAAAAAAAAAAAAAAAAAAAAAAAAAAAAAAAAAAAAAAAAAAAAAAAAAAAAAAAAAAAAAAAAAAAAAAAAAAAAAAAAAPwAAAAAAAAAAAAAAAAAAAAAAAAAAAACAP+/ubr0AAAA/AAAAAAAAAAAAAAAAAAAAAAAAAAAAAAAAAAAAAAAAAAAAAAAAAAAAAAAAAAAAAAAAAAAAAAAAAAAAAAAAAAAAAAAAAAAAAAAAAAAAAAAAAAAAAAAAAAAAAAAAAAAAAAAAAAAAAAAAAAAAAAAAAAAAAAAAAAAAAAAAAAAAAAAAAAAAAAAAAAAAAAAAAAAAAAAAAAAAAAAAAAAAAAAAAAAAAAAAAAAAAAAAAAAAAAAAAAAAAAAAAAAAAAAAAAAAAAAAAAAAAAAAAAAAAAAAAAAAAAAAAAAAAAAAAAAAAAAAAAAAAAAAAAAAAAAAAAAAAAAAAAAAAAAAAAAAAAAAAAAAAAAAAD8AAAAAAAAAAFByb2dyYW0gNgB1YXJlAGgA1eoCCNXqAgDSNBBH0jQQAACAP+/ubr0AAAA/AAAAAAAAAAAAAAAAAAAAAAAAAAAAAAAAAAAAAAAAAAAAAAAAAAAAAAAAAAAAAAAAAAAAAAAAAAAAAAAAAAAAAAAAAAAAAAAAAAAAAAAAAAAAAAAAAAAAAAAAAAAAAAAAAAAAAAAAAAAAAAAAAAAAAAAAAAAAAAAAAAAAAAAAAAAAAAAAAAAAAAAAAAAAAAAAAAAAAAAAAAAAAAAAAAAAAAAAAAAAAAAAAAAAAAAAAAAAAAAAAAAAAAAAAAAAAAAAAAAAAAAAAAAAAAAAAAAAAAAAAAAAAAAAAAAAAAAAAAAAAAAAAAAAAAAAAAAAAAAAAAAAAAAAAAAAAAAAAAAAAAAAAAAAAAA/AAAAAAAAgD/v7m69AAAAPwAAAAAAAAAAAAAAAAAAAAAAAAAAAAAAAAAAAAAAAAAAAAAAAAAAAAAAAAAAAAAAAAAAAAAAAAAAAAAAAAAAAAAAAAAAAAAAAAAAAAAAAAAAAAAAAAAAAAAAAAAAAAAAAAAAAAAAAAAAAAAAAAAAAAAAAAAAAAAAAAAAAAAAAAAAAAAAAAAAAAAAAAAAAAAAAAAAAAAAAAAAAAAAAAAAAAAAAAAAAAAAAAAAAAAAAAAAAAAAAAAAAAAAAAAAAAAAAAAAAAAAAAAAAAAAAAAAAAAAAAAAAAAAAAAAAAAAAAAAAAAAAAAAAAAAAAAAAAAAAAAAAAAAAAAAAAAAAAAAAAAAAAAAAAAAAAAAAD8AAAAAAACAPQAAAAAAAAAAAAAAAAAAAAAAAAAAAAAAAAAAAAAAAAAAAAAAAAAAgD/v7m69AAAAPwAAAAAAAAAAAAAAAAAAAAAAAAAAAAAAAAAAAAAAAAAAAAAAAAAAAAAAAAAAAAAAAAAAAAAAAAAAAAAAAAAAAAAAAAAAAAAAAAAAAAAAAAAAAAAAAAAAAAAAAAAAAAAAAAAAAAAAAAAAAAAAAAAAAAAAAAAAAAAAAAAAAAAAAAAAAAAAAAAAAAAAAAAAAAAAAAAAAAAAAAAAAAAAAAAAAAAAAAAAAAAAAAAAAAAAAAAAAAAAAAAAAAAAAAAAAAAAAAAAAAAAAAAAAAAAAAAAAAAAAAAAAAAAAAAAAAAAAAAAAAAAAAAAAAAAAAAAAAAAAAAAAAAAAAAAAAAAAAAAAAAAAAAAAAAAAAAAAD8AAAAAAAAAAAAAAAAAAAAAAAAAAAAAgD/v7m69AAAAPwAAAAAAAAAAAAAAAAAAAAAAAAAAAAAAAAAAAAAAAAAAAAAAAAAAAAAAAAAAAAAAAAAAAAAAAAAAAAAAAAAAAAAAAAAAAAAAAAAAAAAAAAAAAAAAAAAAAAAAAAAAAAAAAAAAAAAAAAAAAAAAAAAAAAAAAAAAAAAAAAAAAAAAAAAAAAAAAAAAAAAAAAAAAAAAAAAAAAAAAAAAAAAAAAAAAAAAAAAAAAAAAAAAAAAAAAAAAAAAAAAAAAAAAAAAAAAAAAAAAAAAAAAAAAAAAAAAAAAAAAAAAAAAAAAAAAAAAAAAAAAAAAAAAAAAAAAAAAAAAAAAAAAAAAAAAAAAAAAAAAAAAAA/AAAAAAAAAABQcm9ncmFtIDcAU3RlcCBUaW1lAIgkMAUAIDAFoBwwBQAAgD/v7m69AAAAPwAAAAAAAAAAAAAAAAAAAAAAAAAAAAAAAAAAAAAAAAAAAAAAAAAAAAAAAAAAAAAAAAAAAAAAAAAAAAAAAAAAAAAAAAAAAAAAAAAAAAAAAAAAAAAAAAAAAAAAAAAAAAAAAAAAAAAAAAAAAAAAAAAAAAAAAAAAAAAAAAAAAAAAAAAAAAAAAAAAAAAAAAAAAAAAAAAAAAAAAAAAAAAAAAAAAAAAAAAAAAAAAAAAAAAAAAAAAAAAAAAAAAAAAAAAAAAAAAAAAAAAAAAAAAAAAAAAAAAAAAAAAAAAAAAAAAAAAAAAAAAAAAAAAAAAAAAAAAAAAAAAAAAAAAAAAAAAAAAAAAAAAAAAAAAAPwAAAAAAAIA/7+5uvQAAAD8AAAAAAAAAAAAAAAAAAAAAAAAAAAAAAAAAAAAAAAAAAAAAAAAAAAAAAAAAAAAAAAAAAAAAAAAAAAAAAAAAAAAAAAAAAAAAAAAAAAAAAAAAAAAAAAAAAAAAAAAAAAAAAAAAAAAAAAAAAAAAAAAAAAAAAAAAAAAAAAAAAAAAAAAAAAAAAAAAAAAAAAAAAAAAAAAAAAAAAAAAAAAAAAAAAAAAAAAAAAAAAAAAAAAAAAAAAAAAAAAAAAAAAAAAAAAAAAAAAAAAAAAAAAAAAAAAAAAAAAAAAAAAAAAAAAAAAAAAAAAAAAAAAAAAAAAAAAAAAAAAAAAAAAAAAAAAAAAAAAAAAAAAAAAAAAAAAAA/AAAAAM3MTD0AAAAAAAAAAAAAAAAAAAAAAAAAAAAAAAAAAAAAAAAAAAAAAAAAAIA/7+5uvQAAAD8AAAAAAAAAAAAAAAAAAAAAAAAAAAAAAAAAAAAAAAAAAAAAAAAAAAAAAAAAAAAAAAAAAAAAAAAAAAAAAAAAAAAAAAAAAAAAAAAAAAAAAAAAAAAAAAAAAAAAAAAAAAAAAAAAAAAAAAAAAAAAAAAAAAAAAAAAAAAAAAAAAAAAAAAAAAAAAAAAAAAAAAAAAAAAAAAAAAAAAAAAAAAAAAAAAAAAAAAAAAAAAAAAAAAAAAAAAAAAAAAAAAAAAAAAAAAAAAAAAAAAAAAAAAAAAAAAAAAAAAAAAAAAAAAAAAAAAAAAAAAAAAAAAAAAAAAAAAAAAAAAAAAAAAAAAAAAAAAAAAAAAAAAAAAAAAAAAAA/AAAAAAAAAAAAAAAAAAAAAAAAAAAAAIA/7+5uvQAAAD8AAAAAAAAAAAAAAAAAAAAAAAAAAAAAAAAAAAAAAAAAAAAAAAAAAAAAAAAAAAAAAAAAAAAAAAAAAAAAAAAAAAAAAAAAAAAAAAAAAAAAAAAAAAAAAAAAAAAAAAAAAAAAAAAAAAAAAAAAAAAAAAAAAAAAAAAAAAAAAAAAAAAAAAAAAAAAAAAAAAAAAAAAAAAAAAAAAAAAAAAAAAAAAAAAAAAAAAAAAAAAAAAAAAAAAAAAAAAAAAAAAAAAAAAAAAAAAAAAAAAAAAAAAAAAAAAAAAAAAAAAAAAAAAAAAAAAAAAAAAAAAAAAAAAAAAAAAAAAAAAAAAAAAAAAAAAAAAAAAAAAAAAAPwAAAAAAAAAAUHJvZ3JhbSA4AABzZQBTdGVwcwAsqio/YNPqAqD5FBAAAIA/7+5uvQAAAD8AAAAAAAAAAAAAAAAAAAAAAAAAAAAAAAAAAAAAAAAAAAAAAAAAAAAAAAAAAAAAAAAAAAAAAAAAAAAAAAAAAAAAAAAAAAAAAAAAAAAAAAAAAAAAAAAAAAAAAAAAAAAAAAAAAAAAAAAAAAAAAAAAAAAAAAAAAAAAAAAAAAAAAAAAAAAAAAAAAAAAAAAAAAAAAAAAAAAAAAAAAAAAAAAAAAAAAAAAAAAAAAAAAAAAAAAAAAAAAAAAAAAAAAAAAAAAAAAAAAAAAAAAAAAAAAAAAAAAAAAAAAAAAAAAAAAAAAAAAAAAAAAAAAAAAAAAAAAAAAAAAAAAAAAAAAAAAAAAAAAAAAAAAAAAAD8AAAAAAACAP+/ubr0AAAA/AAAAAAAAAAAAAAAAAAAAAAAAAAAAAAAAAAAAAAAAAAAAAAAAAAAAAAAAAAAAAAAAAAAAAAAAAAAAAAAAAAAAAAAAAAAAAAAAAAAAAAAAAAAAAAAAAAAAAAAAAAAAAAAAAAAAAAAAAAAAAAAAAAAAAAAAAAAAAAAAAAAAAAAAAAAAAAAAAAAAAAAAAAAAAAAAAAAAAAAAAAAAAAAAAAAAAAAAAAAAAAAAAAAAAAAAAAAAAAAAAAAAAAAAAAAAAAAAAAAAAAAAAAAAAAAAAAAAAAAAAAAAAAAAAAAAAAAAAAAAAAAAAAAAAAAAAAAAAAAAAAAAAAAAAAAAAAAAAAAAAAAAAAAAAAAAAAAAPwAAAAAzM7M9AAAAAAAAAAAAAAAAAAAAAAAAAAAAAAAAAAAAAAAAAAAAAAAAAACAP+/ubr0AAAA/AAAAAAAAAAAAAAAAAAAAAAAAAAAAAAAAAAAAAAAAAAAAAAAAAAAAAAAAAAAAAAAAAAAAAAAAAAAAAAAAAAAAAAAAAAAAAAAAAAAAAAAAAAAAAAAAAAAAAAAAAAAAAAAAAAAAAAAAAAAAAAAAAAAAAAAAAAAAAAAAAAAAAAAAAAAAAAAAAAAAAAAAAAAAAAAAAAAAAAAAAAAAAAAAAAAAAAAAAAAAAAAAAAAAAAAAAAAAAAAAAAAAAAAAAAAAAAAAAAAAAAAAAAAAAAAAAAAAAAAAAAAAAAAAAAAAAAAAAAAAAAAAAAAAAAAAAAAAAAAAAAAAAAAAAAAAAAAAAAAAAAAAAAAAAAAAAAAAPwAAAAAAAAAAAAAAAAAAAAAAAAAAAACAP+/ubr0AAAA/AAAAAAAAAAAAAAAAAAAAAAAAAAAAAAAAAAAAAAAAAAAAAAAAAAAAAAAAAAAAAAAAAAAAAAAAAAAAAAAAAAAAAAAAAAAAAAAAAAAAAAAAAAAAAAAAAAAAAAAAAAAAAAAAAAAAAAAAAAAAAAAAAAAAAAAAAAAAAAAAAAAAAAAAAAAAAAAAAAAAAAAAAAAAAAAAAAAAAAAAAAAAAAAAAAAAAAAAAAAAAAAAAAAAAAAAAAAAAAAAAAAAAAAAAAAAAAAAAAAAAAAAAAAAAAAAAAAAAAAAAAAAAAAAAAAAAAAAAAAAAAAAAAAAAAAAAAAAAAAAAAAAAAAAAAAAAAAAAAAAAAAAAD8AAAAAAAAAAFByb2dyYW0gOQAARk8gU3RlcHMAaNPqAgDoGBBY0+oCAACAP+/ubr0AAAA/AAAAAAAAAAAAAAAAAAAAAAAAAAAAAAAAAAAAAAAAAAAAAAAAAAAAAAAAAAAAAAAAAAAAAAAAAAAAAAAAAAAAAAAAAAAAAAAAAAAAAAAAAAAAAAAAAAAAAAAAAAAAAAAAAAAAAAAAAAAAAAAAAAAAAAAAAAAAAAAAAAAAAAAAAAAAAAAAAAAAAAAAAAAAAAAAAAAAAAAAAAAAAAAAAAAAAAAAAAAAAAAAAAAAAAAAAAAAAAAAAAAAAAAAAAAAAAAAAAAAAAAAAAAAAAAAAAAAAAAAAAAAAAAAAAAAAAAAAAAAAAAAAAAAAAAAAAAAAAAAAAAAAAAAAAAAAAAAAAAAAAAAAAAAAAA/AAAAAAAAgD/v7m69AAAAPwAAAAAAAAAAAAAAAAAAAAAAAAAAAAAAAAAAAAAAAAAAAAAAAAAAAAAAAAAAAAAAAAAAAAAAAAAAAAAAAAAAAAAAAAAAAAAAAAAAAAAAAAAAAAAAAAAAAAAAAAAAAAAAAAAAAAAAAAAAAAAAAAAAAAAAAAAAAAAAAAAAAAAAAAAAAAAAAAAAAAAAAAAAAAAAAAAAAAAAAAAAAAAAAAAAAAAAAAAAAAAAAAAAAAAAAAAAAAAAAAAAAAAAAAAAAAAAAAAAAAAAAAAAAAAAAAAAAAAAAAAAAAAAAAAAAAAAAAAAAAAAAAAAAAAAAAAAAAAAAAAAAAAAAAAAAAAAAAAAAAAAAAAAAAAAAAAAAD8AAAAAAAAAAAAAAAAAAAAAAAAAAAAAAAAAAAAAAAAAAAAAAAAAAAAAAAAAAAAAgD/v7m69AAAAPwAAAAAAAAAAAAAAAAAAAAAAAAAAAAAAAAAAAAAAAAAAAAAAAAAAAAAAAAAAAAAAAAAAAAAAAAAAAAAAAAAAAAAAAAAAAAAAAAAAAAAAAAAAAAAAAAAAAAAAAAAAAAAAAAAAAAAAAAAAAAAAAAAAAAAAAAAAAAAAAAAAAAAAAAAAAAAAAAAAAAAAAAAAAAAAAAAAAAAAAAAAAAAAAAAAAAAAAAAAAAAAAAAAAAAAAAAAAAAAAAAAAAAAAAAAAAAAAAAAAAAAAAAAAAAAAAAAAAAAAAAAAAAAAAAAAAAAAAAAAAAAAAAAAAAAAAAAAAAAAAAAAAAAAAAAAAAAAAAAAAAAAAAAAAAAAAAAAD8AAAAAAAAAAAAAAAAAAAAAAAAAAAAAgD/v7m69AAAAPwAAAAAAAAAAAAAAAAAAAAAAAAAAAAAAAAAAAAAAAAAAAAAAAAAAAAAAAAAAAAAAAAAAAAAAAAAAAAAAAAAAAAAAAAAAAAAAAAAAAAAAAAAAAAAAAAAAAAAAAAAAAAAAAAAAAAAAAAAAAAAAAAAAAAAAAAAAAAAAAAAAAAAAAAAAAAAAAAAAAAAAAAAAAAAAAAAAAAAAAAAAAAAAAAAAAAAAAAAAAAAAAAAAAAAAAAAAAAAAAAAAAAAAAAAAAAAAAAAAAAAAAAAAAAAAAAAAAAAAAAAAAAAAAAAAAAAAAAAAAAAAAAAAAAAAAAAAAAAAAAAAAAAAAAAAAAAAAAAAAAAAAAA/AAAAAAAAAABQcm9ncmFtIDEwAG9vcCBQb2ludADshQAA0+oCoPkUEAAAgD/v7m69AAAAPwAAAAAAAAAAAAAAAAAAAAAAAAAAAAAAAAAAAAAAAAAAAAAAAAAAAAAAAAAAAAAAAAAAAAAAAAAAAAAAAAAAAAAAAAAAAAAAAAAAAAAAAAAAAAAAAAAAAAAAAAAAAAAAAAAAAAAAAAAAAAAAAAAAAAAAAAAAAAAAAAAAAAAAAAAAAAAAAAAAAAAAAAAAAAAAAAAAAAAAAAAAAAAAAAAAAAAAAAAAAAAAAAAAAAAAAAAAAAAAAAAAAAAAAAAAAAAAAAAAAAAAAAAAAAAAAAAAAAAAAAAAAAAAAAAAAAAAAAAAAAAAAAAAAAAAAAAAAAAAAAAAAAAAAAAAAAAAAAAAAAAAAAAAAAAAPwAAAAAAAIA/7+5uvQAAAD8AAAAAAAAAAAAAAAAAAAAAAAAAAAAAAAAAAAAAAAAAAAAAAAAAAAAAAAAAAAAAAAAAAAAAAAAAAAAAAAAAAAAAAAAAAAAAAAAAAAAAAAAAAAAAAAAAAAAAAAAAAAAAAAAAAAAAAAAAAAAAAAAAAAAAAAAAAAAAAAAAAAAAAAAAAAAAAAAAAAAAAAAAAAAAAAAAAAAAAAAAAAAAAAAAAAAAAAAAAAAAAAAAAAAAAAAAAAAAAAAAAAAAAAAAAAAAAAAAAAAAAAAAAAAAAAAAAAAAAAAAAAAAAAAAAAAAAAAAAAAAAAAAAAAAAAAAAAAAAAAAAAAAAAAAAAAAAAAAAAAAAAAAAAAAAAAAAAA/AAAAAGZmxj4AAAAAAAAAAAAAAAAAAAAAAAAAAAAAAAAAAAAAAAAAAAAAAAAAAIA/7+5uvQAAAD8AAAAAAAAAAAAAAAAAAAAAAAAAAAAAAAAAAAAAAAAAAAAAAAAAAAAAAAAAAAAAAAAAAAAAAAAAAAAAAAAAAAAAAAAAAAAAAAAAAAAAAAAAAAAAAAAAAAAAAAAAAAAAAAAAAAAAAAAAAAAAAAAAAAAAAAAAAAAAAAAAAAAAAAAAAAAAAAAAAAAAAAAAAAAAAAAAAAAAAAAAAAAAAAAAAAAAAAAAAAAAAAAAAAAAAAAAAAAAAAAAAAAAAAAAAAAAAAAAAAAAAAAAAAAAAAAAAAAAAAAAAAAAAAAAAAAAAAAAAAAAAAAAAAAAAAAAAAAAAAAAAAAAAAAAAAAAAAAAAAAAAAAAAAAAAAAAAAA/AAAAAAAAAAAAAAAAAAAAAAAAAAAAAIA/7+5uvQAAAD8AAAAAAAAAAAAAAAAAAAAAAAAAAAAAAAAAAAAAAAAAAAAAAAAAAAAAAAAAAAAAAAAAAAAAAAAAAAAAAAAAAAAAAAAAAAAAAAAAAAAAAAAAAAAAAAAAAAAAAAAAAAAAAAAAAAAAAAAAAAAAAAAAAAAAAAAAAAAAAAAAAAAAAAAAAAAAAAAAAAAAAAAAAAAAAAAAAAAAAAAAAAAAAAAAAAAAAAAAAAAAAAAAAAAAAAAAAAAAAAAAAAAAAAAAAAAAAAAAAAAAAAAAAAAAAAAAAAAAAAAAAAAAAAAAAAAAAAAAAAAAAAAAAAAAAAAAAAAAAAAAAAAAAAAAAAAAAAAAAAAAAAAAPwAAAAAAAAAAUHJvZ3JhbSAxMQBvb3AgUG9pbnQA7IUAANPqAqD5FBAAAIA/7+5uvQAAAD8AAAAAAAAAAAAAAAAAAAAAAAAAAAAAAAAAAAAAAAAAAAAAAAAAAAAAAAAAAAAAAAAAAAAAAAAAAAAAAAAAAAAAAAAAAAAAAAAAAAAAAAAAAAAAAAAAAAAAAAAAAAAAAAAAAAAAAAAAAAAAAAAAAAAAAAAAAAAAAAAAAAAAAAAAAAAAAAAAAAAAAAAAAAAAAAAAAAAAAAAAAAAAAAAAAAAAAAAAAAAAAAAAAAAAAAAAAAAAAAAAAAAAAAAAAAAAAAAAAAAAAAAAAAAAAAAAAAAAAAAAAAAAAAAAAAAAAAAAAAAAAAAAAAAAAAAAAAAAAAAAAAAAAAAAAAAAAAAAAAAAAAAAAAAAAD8AAAAAAACAP+/ubr0AAAA/AAAAAAAAAAAAAAAAAAAAAAAAAAAAAAAAAAAAAAAAAAAAAAAAAAAAAAAAAAAAAAAAAAAAAAAAAAAAAAAAAAAAAAAAAAAAAAAAAAAAAAAAAAAAAAAAAAAAAAAAAAAAAAAAAAAAAAAAAAAAAAAAAAAAAAAAAAAAAAAAAAAAAAAAAAAAAAAAAAAAAAAAAAAAAAAAAAAAAAAAAAAAAAAAAAAAAAAAAAAAAAAAAAAAAAAAAAAAAAAAAAAAAAAAAAAAAAAAAAAAAAAAAAAAAAAAAAAAAAAAAAAAAAAAAAAAAAAAAAAAAAAAAAAAAAAAAAAAAAAAAAAAAAAAAAAAAAAAAAAAAAAAAAAAAAAAAAAAPwAAAADNzAw+AAAAAAAAAAAAAAAAAAAAAAAAAAAAAAAAAAAAAAAAAAAAAAAAAACAP+/ubr0AAAA/AAAAAAAAAAAAAAAAAAAAAAAAAAAAAAAAAAAAAAAAAAAAAAAAAAAAAAAAAAAAAAAAAAAAAAAAAAAAAAAAAAAAAAAAAAAAAAAAAAAAAAAAAAAAAAAAAAAAAAAAAAAAAAAAAAAAAAAAAAAAAAAAAAAAAAAAAAAAAAAAAAAAAAAAAAAAAAAAAAAAAAAAAAAAAAAAAAAAAAAAAAAAAAAAAAAAAAAAAAAAAAAAAAAAAAAAAAAAAAAAAAAAAAAAAAAAAAAAAAAAAAAAAAAAAAAAAAAAAAAAAAAAAAAAAAAAAAAAAAAAAAAAAAAAAAAAAAAAAAAAAAAAAAAAAAAAAAAAAAAAAAAAAAAAAAAAAAAAPwAAAAAAAAAAAAAAAAAAAAAAAAAAAACAP+/ubr0AAAA/AAAAAAAAAAAAAAAAAAAAAAAAAAAAAAAAAAAAAAAAAAAAAAAAAAAAAAAAAAAAAAAAAAAAAAAAAAAAAAAAAAAAAAAAAAAAAAAAAAAAAAAAAAAAAAAAAAAAAAAAAAAAAAAAAAAAAAAAAAAAAAAAAAAAAAAAAAAAAAAAAAAAAAAAAAAAAAAAAAAAAAAAAAAAAAAAAAAAAAAAAAAAAAAAAAAAAAAAAAAAAAAAAAAAAAAAAAAAAAAAAAAAAAAAAAAAAAAAAAAAAAAAAAAAAAAAAAAAAAAAAAAAAAAAAAAAAAAAAAAAAAAAAAAAAAAAAAAAAAAAAAAAAAAAAAAAAAAAAAAAAAAAAD8AAAAAAAAAAFByb2dyYW0gMTIAdGVwIFRpbWUALOyFAADT6gKg+RQQAACAP+/ubr0AAAA/AAAAAAAAAAAAAAAAAAAAAAAAAAAAAAAAAAAAAAAAAAAAAAAAAAAAAAAAAAAAAAAAAAAAAAAAAAAAAAAAAAAAAAAAAAAAAAAAAAAAAAAAAAAAAAAAAAAAAAAAAAAAAAAAAAAAAAAAAAAAAAAAAAAAAAAAAAAAAAAAAAAAAAAAAAAAAAAAAAAAAAAAAAAAAAAAAAAAAAAAAAAAAAAAAAAAAAAAAAAAAAAAAAAAAAAAAAAAAAAAAAAAAAAAAAAAAAAAAAAAAAAAAAAAAAAAAAAAAAAAAAAAAAAAAAAAAAAAAAAAAAAAAAAAAAAAAAAAAAAAAAAAAAAAAAAAAAAAAAAAAAAAAAAAAAA/AAAAAAAAgD/v7m69AAAAPwAAAAAAAAAAAAAAAAAAAAAAAAAAAAAAAAAAAAAAAAAAAAAAAAAAAAAAAAAAAAAAAAAAAAAAAAAAAAAAAAAAAAAAAAAAAAAAAAAAAAAAAAAAAAAAAAAAAAAAAAAAAAAAAAAAAAAAAAAAAAAAAAAAAAAAAAAAAAAAAAAAAAAAAAAAAAAAAAAAAAAAAAAAAAAAAAAAAAAAAAAAAAAAAAAAAAAAAAAAAAAAAAAAAAAAAAAAAAAAAAAAAAAAAAAAAAAAAAAAAAAAAAAAAAAAAAAAAAAAAAAAAAAAAAAAAAAAAAAAAAAAAAAAAAAAAAAAAAAAAAAAAAAAAAAAAAAAAAAAAAAAAAAAAAAAAAAAAD8AAAAAzczMPQAAAAAAAAAAAAAAAAAAAAAAAAAAAAAAAAAAAAAAAAAAAAAAAAAAgD/v7m69AAAAPwAAAAAAAAAAAAAAAAAAAAAAAAAAAAAAAAAAAAAAAAAAAAAAAAAAAAAAAAAAAAAAAAAAAAAAAAAAAAAAAAAAAAAAAAAAAAAAAAAAAAAAAAAAAAAAAAAAAAAAAAAAAAAAAAAAAAAAAAAAAAAAAAAAAAAAAAAAAAAAAAAAAAAAAAAAAAAAAAAAAAAAAAAAAAAAAAAAAAAAAAAAAAAAAAAAAAAAAAAAAAAAAAAAAAAAAAAAAAAAAAAAAAAAAAAAAAAAAAAAAAAAAAAAAAAAAAAAAAAAAAAAAAAAAAAAAAAAAAAAAAAAAAAAAAAAAAAAAAAAAAAAAAAAAAAAAAAAAAAAAAAAAAAAAAAAAAAAAD8AAAAAAAAAAAAAAAAAAAAAAAAAAAAAgD/v7m69AAAAPwAAAAAAAAAAAAAAAAAAAAAAAAAAAAAAAAAAAAAAAAAAAAAAAAAAAAAAAAAAAAAAAAAAAAAAAAAAAAAAAAAAAAAAAAAAAAAAAAAAAAAAAAAAAAAAAAAAAAAAAAAAAAAAAAAAAAAAAAAAAAAAAAAAAAAAAAAAAAAAAAAAAAAAAAAAAAAAAAAAAAAAAAAAAAAAAAAAAAAAAAAAAAAAAAAAAAAAAAAAAAAAAAAAAAAAAAAAAAAAAAAAAAAAAAAAAAAAAAAAAAAAAAAAAAAAAAAAAAAAAAAAAAAAAAAAAAAAAAAAAAAAAAAAAAAAAAAAAAAAAAAAAAAAAAAAAAAAAAAAAAAAAAA/AAAAAAAAAABQcm9ncmFtIDEzAHRlcCBUaW1lAADRNBAA0TQQQNA0EAAAgD/v7m69AAAAPwAAAAAAAAAAAAAAAAAAAAAAAAAAAAAAAAAAAAAAAAAAAAAAAAAAAAAAAAAAAAAAAAAAAAAAAAAAAAAAAAAAAAAAAAAAAAAAAAAAAAAAAAAAAAAAAAAAAAAAAAAAAAAAAAAAAAAAAAAAAAAAAAAAAAAAAAAAAAAAAAAAAAAAAAAAAAAAAAAAAAAAAAAAAAAAAAAAAAAAAAAAAAAAAAAAAAAAAAAAAAAAAAAAAAAAAAAAAAAAAAAAAAAAAAAAAAAAAAAAAAAAAAAAAAAAAAAAAAAAAAAAAAAAAAAAAAAAAAAAAAAAAAAAAAAAAAAAAAAAAAAAAAAAAAAAAAAAAAAAAAAAAAAAAAAAPwAAAAAAAIA/7+5uvQAAAD8AAAAAAAAAAAAAAAAAAAAAAAAAAAAAAAAAAAAAAAAAAAAAAAAAAAAAAAAAAAAAAAAAAAAAAAAAAAAAAAAAAAAAAAAAAAAAAAAAAAAAAAAAAAAAAAAAAAAAAAAAAAAAAAAAAAAAAAAAAAAAAAAAAAAAAAAAAAAAAAAAAAAAAAAAAAAAAAAAAAAAAAAAAAAAAAAAAAAAAAAAAAAAAAAAAAAAAAAAAAAAAAAAAAAAAAAAAAAAAAAAAAAAAAAAAAAAAAAAAAAAAAAAAAAAAAAAAAAAAAAAAAAAAAAAAAAAAAAAAAAAAAAAAAAAAAAAAAAAAAAAAAAAAAAAAAAAAAAAAAAAAAAAAAAAAAAAAAA/AAAAAAAAAAAAAAAAAAAAAAAAAAAAAAAAAAAAAAAAAAAAAAAAAAAAAAAAAAAAAIA/7+5uvQAAAD8AAAAAAAAAAAAAAAAAAAAAAAAAAAAAAAAAAAAAAAAAAAAAAAAAAAAAAAAAAAAAAAAAAAAAAAAAAAAAAAAAAAAAAAAAAAAAAAAAAAAAAAAAAAAAAAAAAAAAAAAAAAAAAAAAAAAAAAAAAAAAAAAAAAAAAAAAAAAAAAAAAAAAAAAAAAAAAAAAAAAAAAAAAAAAAAAAAAAAAAAAAAAAAAAAAAAAAAAAAAAAAAAAAAAAAAAAAAAAAAAAAAAAAAAAAAAAAAAAAAAAAAAAAAAAAAAAAAAAAAAAAAAAAAAAAAAAAAAAAAAAAAAAAAAAAAAAAAAAAAAAAAAAAAAAAAAAAAAAAAAAAAAAAAAAAAAAAAA/AAAAAAAAAAAAAAAAAAAAAAAAAAAAAIA/7+5uvQAAAD8AAAAAAAAAAAAAAAAAAAAAAAAAAAAAAAAAAAAAAAAAAAAAAAAAAAAAAAAAAAAAAAAAAAAAAAAAAAAAAAAAAAAAAAAAAAAAAAAAAAAAAAAAAAAAAAAAAAAAAAAAAAAAAAAAAAAAAAAAAAAAAAAAAAAAAAAAAAAAAAAAAAAAAAAAAAAAAAAAAAAAAAAAAAAAAAAAAAAAAAAAAAAAAAAAAAAAAAAAAAAAAAAAAAAAAAAAAAAAAAAAAAAAAAAAAAAAAAAAAAAAAAAAAAAAAAAAAAAAAAAAAAAAAAAAAAAAAAAAAAAAAAAAAAAAAAAAAAAAAAAAAAAAAAAAAAAAAAAAAAAAAAAAPwAAAAAAAAAAUHJvZ3JhbSAxNABhcmUAcwBpbnQA1eoCANI0EEfSNBAAAIA/7+5uvQAAAD8AAAAAAAAAAAAAAAAAAAAAAAAAAAAAAAAAAAAAAAAAAAAAAAAAAAAAAAAAAAAAAAAAAAAAAAAAAAAAAAAAAAAAAAAAAAAAAAAAAAAAAAAAAAAAAAAAAAAAAAAAAAAAAAAAAAAAAAAAAAAAAAAAAAAAAAAAAAAAAAAAAAAAAAAAAAAAAAAAAAAAAAAAAAAAAAAAAAAAAAAAAAAAAAAAAAAAAAAAAAAAAAAAAAAAAAAAAAAAAAAAAAAAAAAAAAAAAAAAAAAAAAAAAAAAAAAAAAAAAAAAAAAAAAAAAAAAAAAAAAAAAAAAAAAAAAAAAAAAAAAAAAAAAAAAAAAAAAAAAAAAAAAAAAAAAD8AAAAAAACAP+/ubr0AAAA/AAAAAAAAAAAAAAAAAAAAAAAAAAAAAAAAAAAAAAAAAAAAAAAAAAAAAAAAAAAAAAAAAAAAAAAAAAAAAAAAAAAAAAAAAAAAAAAAAAAAAAAAAAAAAAAAAAAAAAAAAAAAAAAAAAAAAAAAAAAAAAAAAAAAAAAAAAAAAAAAAAAAAAAAAAAAAAAAAAAAAAAAAAAAAAAAAAAAAAAAAAAAAAAAAAAAAAAAAAAAAAAAAAAAAAAAAAAAAAAAAAAAAAAAAAAAAAAAAAAAAAAAAAAAAAAAAAAAAAAAAAAAAAAAAAAAAAAAAAAAAAAAAAAAAAAAAAAAAAAAAAAAAAAAAAAAAAAAAAAAAAAAAAAAAAAAAAAAPwAAAAAAAIA9AAAAAAAAAAAAAAAAAAAAAAAAAAAAAAAAAAAAAAAAAAAAAAAAAACAP+/ubr0AAAA/AAAAAAAAAAAAAAAAAAAAAAAAAAAAAAAAAAAAAAAAAAAAAAAAAAAAAAAAAAAAAAAAAAAAAAAAAAAAAAAAAAAAAAAAAAAAAAAAAAAAAAAAAAAAAAAAAAAAAAAAAAAAAAAAAAAAAAAAAAAAAAAAAAAAAAAAAAAAAAAAAAAAAAAAAAAAAAAAAAAAAAAAAAAAAAAAAAAAAAAAAAAAAAAAAAAAAAAAAAAAAAAAAAAAAAAAAAAAAAAAAAAAAAAAAAAAAAAAAAAAAAAAAAAAAAAAAAAAAAAAAAAAAAAAAAAAAAAAAAAAAAAAAAAAAAAAAAAAAAAAAAAAAAAAAAAAAAAAAAAAAAAAAAAAAAAAAAAAPwAAAAAAAAAAAAAAAAAAAAAAAAAAAACAP+/ubr0AAAA/AAAAAAAAAAAAAAAAAAAAAAAAAAAAAAAAAAAAAAAAAAAAAAAAAAAAAAAAAAAAAAAAAAAAAAAAAAAAAAAAAAAAAAAAAAAAAAAAAAAAAAAAAAAAAAAAAAAAAAAAAAAAAAAAAAAAAAAAAAAAAAAAAAAAAAAAAAAAAAAAAAAAAAAAAAAAAAAAAAAAAAAAAAAAAAAAAAAAAAAAAAAAAAAAAAAAAAAAAAAAAAAAAAAAAAAAAAAAAAAAAAAAAAAAAAAAAAAAAAAAAAAAAAAAAAAAAAAAAAAAAAAAAAAAAAAAAAAAAAAAAAAAAAAAAAAAAAAAAAAAAAAAAAAAAAAAAAAAAAAAAAAAAD8AAAAAAAAAAFByb2dyYW0gMTUAc2UAcHMAcHMAANXqAgDSNBBH0jQQAACAP+/ubr0AAAA/AAAAAAAAAAAAAAAAAAAAAAAAAAAAAAAAAAAAAAAAAAAAAAAAAAAAAAAAAAAAAAAAAAAAAAAAAAAAAAAAAAAAAAAAAAAAAAAAAAAAAAAAAAAAAAAAAAAAAAAAAAAAAAAAAAAAAAAAAAAAAAAAAAAAAAAAAAAAAAAAAAAAAAAAAAAAAAAAAAAAAAAAAAAAAAAAAAAAAAAAAAAAAAAAAAAAAAAAAAAAAAAAAAAAAAAAAAAAAAAAAAAAAAAAAAAAAAAAAAAAAAAAAAAAAAAAAAAAAAAAAAAAAAAAAAAAAAAAAAAAAAAAAAAAAAAAAAAAAAAAAAAAAAAAAAAAAAAAAAAAAAAAAAAAAAA/AAAAAAAAgD/v7m69AAAAPwAAAAAAAAAAAAAAAAAAAAAAAAAAAAAAAAAAAAAAAAAAAAAAAAAAAAAAAAAAAAAAAAAAAAAAAAAAAAAAAAAAAAAAAAAAAAAAAAAAAAAAAAAAAAAAAAAAAAAAAAAAAAAAAAAAAAAAAAAAAAAAAAAAAAAAAAAAAAAAAAAAAAAAAAAAAAAAAAAAAAAAAAAAAAAAAAAAAAAAAAAAAAAAAAAAAAAAAAAAAAAAAAAAAAAAAAAAAAAAAAAAAAAAAAAAAAAAAAAAAAAAAAAAAAAAAAAAAAAAAAAAAAAAAAAAAAAAAAAAAAAAAAAAAAAAAAAAAAAAAAAAAAAAAAAAAAAAAAAAAAAAAAAAAAAAAAAAAD8AAAAAAACAPQAAAAAAAAAAAAAAAAAAAAAAAAAAAAAAAAAAAAAAAAAAAAAAAAAAgD/v7m69AAAAPwAAAAAAAAAAAAAAAAAAAAAAAAAAAAAAAAAAAAAAAAAAAAAAAAAAAAAAAAAAAAAAAAAAAAAAAAAAAAAAAAAAAAAAAAAAAAAAAAAAAAAAAAAAAAAAAAAAAAAAAAAAAAAAAAAAAAAAAAAAAAAAAAAAAAAAAAAAAAAAAAAAAAAAAAAAAAAAAAAAAAAAAAAAAAAAAAAAAAAAAAAAAAAAAAAAAAAAAAAAAAAAAAAAAAAAAAAAAAAAAAAAAAAAAAAAAAAAAAAAAAAAAAAAAAAAAAAAAAAAAAAAAAAAAAAAAAAAAAAAAAAAAAAAAAAAAAAAAAAAAAAAAAAAAAAAAAAAAAAAAAAAAAAAAAAAAAAAAD8AAAAAAAAAAAAAAAAAAAAAAAAAAAAAgD/v7m69AAAAPwAAAAAAAAAAAAAAAAAAAAAAAAAAAAAAAAAAAAAAAAAAAAAAAAAAAAAAAAAAAAAAAAAAAAAAAAAAAAAAAAAAAAAAAAAAAAAAAAAAAAAAAAAAAAAAAAAAAAAAAAAAAAAAAAAAAAAAAAAAAAAAAAAAAAAAAAAAAAAAAAAAAAAAAAAAAAAAAAAAAAAAAAAAAAAAAAAAAAAAAAAAAAAAAAAAAAAAAAAAAAAAAAAAAAAAAAAAAAAAAAAAAAAAAAAAAAAAAAAAAAAAAAAAAAAAAAAAAAAAAAAAAAAAAAAAAAAAAAAAAAAAAAAAAAAAAAAAAAAAAAAAAAAAAAAAAAAAAAAAAAAAAAA/AAAAAAAAAABQcm9ncmFtIDE2AGFuZ2xlAHBzAADV6gIA0+oCWNXqAgAAgD/v7m69AAAAPwAAAAAAAAAAAAAAAAAAAAAAAAAAAAAAAAAAAAAAAAAAAAAAAAAAAAAAAAAAAAAAAAAAAAAAAAAAAAAAAAAAAAAAAAAAAAAAAAAAAAAAAAAAAAAAAAAAAAAAAAAAAAAAAAAAAAAAAAAAAAAAAAAAAAAAAAAAAAAAAAAAAAAAAAAAAAAAAAAAAAAAAAAAAAAAAAAAAAAAAAAAAAAAAAAAAAAAAAAAAAAAAAAAAAAAAAAAAAAAAAAAAAAAAAAAAAAAAAAAAAAAAAAAAAAAAAAAAAAAAAAAAAAAAAAAAAAAAAAAAAAAAAAAAAAAAAAAAAAAAAAAAAAAAAAAAAAAAAAAAAAAAAAAAAAAPwAAAAAAAIA/7+5uvQAAAD8AAAAAAAAAAAAAAAAAAAAAAAAAAAAAAAAAAAAAAAAAAAAAAAAAAAAAAAAAAAAAAAAAAAAAAAAAAAAAAAAAAAAAAAAAAAAAAAAAAAAAAAAAAAAAAAAAAAAAAAAAAAAAAAAAAAAAAAAAAAAAAAAAAAAAAAAAAAAAAAAAAAAAAAAAAAAAAAAAAAAAAAAAAAAAAAAAAAAAAAAAAAAAAAAAAAAAAAAAAAAAAAAAAAAAAAAAAAAAAAAAAAAAAAAAAAAAAAAAAAAAAAAAAAAAAAAAAAAAAAAAAAAAAAAAAAAAAAAAAAAAAAAAAAAAAAAAAAAAAAAAAAAAAAAAAAAAAAAAAAAAAAAAAAAAAAAAAAA/AAAAAM3MzDwAAAAAAAAAAAAAAAAAAAAAAAAAAAAAAAAAAAAAAAAAAAAAAAAAAIA/7+5uvQAAAD8AAAAAAAAAAAAAAAAAAAAAAAAAAAAAAAAAAAAAAAAAAAAAAAAAAAAAAAAAAAAAAAAAAAAAAAAAAAAAAAAAAAAAAAAAAAAAAAAAAAAAAAAAAAAAAAAAAAAAAAAAAAAAAAAAAAAAAAAAAAAAAAAAAAAAAAAAAAAAAAAAAAAAAAAAAAAAAAAAAAAAAAAAAAAAAAAAAAAAAAAAAAAAAAAAAAAAAAAAAAAAAAAAAAAAAAAAAAAAAAAAAAAAAAAAAAAAAAAAAAAAAAAAAAAAAAAAAAAAAAAAAAAAAAAAAAAAAAAAAAAAAAAAAAAAAAAAAAAAAAAAAAAAAAAAAAAAAAAAAAAAAAAAAAAAAAAAAAA/AAAAAAAAAAAAAAAAAAAAAAAAAAAAAIA/7+5uvQAAAD8AAAAAAAAAAAAAAAAAAAAAAAAAAAAAAAAAAAAAAAAAAAAAAAAAAAAAAAAAAAAAAAAAAAAAAAAAAAAAAAAAAAAAAAAAAAAAAAAAAAAAAAAAAAAAAAAAAAAAAAAAAAAAAAAAAAAAAAAAAAAAAAAAAAAAAAAAAAAAAAAAAAAAAAAAAAAAAAAAAAAAAAAAAAAAAAAAAAAAAAAAAAAAAAAAAAAAAAAAAAAAAAAAAAAAAAAAAAAAAAAAAAAAAAAAAAAAAAAAAAAAAAAAAAAAAAAAAAAAAAAAAAAAAAAAAAAAAAAAAAAAAAAAAAAAAAAAAAAAAAAAAAAAAAAAAAAAAAAAAAAAAAAAPwAAAAAAAAAAUHJvZ3JhbSAxNwB0ZXAgVGltZQCIJDAFACAwBaAcMAUAAIA/7+5uvQAAAD8AAAAAAAAAAAAAAAAAAAAAAAAAAAAAAAAAAAAAAAAAAAAAAAAAAAAAAAAAAAAAAAAAAAAAAAAAAAAAAAAAAAAAAAAAAAAAAAAAAAAAAAAAAAAAAAAAAAAAAAAAAAAAAAAAAAAAAAAAAAAAAAAAAAAAAAAAAAAAAAAAAAAAAAAAAAAAAAAAAAAAAAAAAAAAAAAAAAAAAAAAAAAAAAAAAAAAAAAAAAAAAAAAAAAAAAAAAAAAAAAAAAAAAAAAAAAAAAAAAAAAAAAAAAAAAAAAAAAAAAAAAAAAAAAAAAAAAAAAAAAAAAAAAAAAAAAAAAAAAAAAAAAAAAAAAAAAAAAAAAAAAAAAAAAAAD8AAAAAAACAP+/ubr0AAAA/AAAAAAAAAAAAAAAAAAAAAAAAAAAAAAAAAAAAAAAAAAAAAAAAAAAAAAAAAAAAAAAAAAAAAAAAAAAAAAAAAAAAAAAAAAAAAAAAAAAAAAAAAAAAAAAAAAAAAAAAAAAAAAAAAAAAAAAAAAAAAAAAAAAAAAAAAAAAAAAAAAAAAAAAAAAAAAAAAAAAAAAAAAAAAAAAAAAAAAAAAAAAAAAAAAAAAAAAAAAAAAAAAAAAAAAAAAAAAAAAAAAAAAAAAAAAAAAAAAAAAAAAAAAAAAAAAAAAAAAAAAAAAAAAAAAAAAAAAAAAAAAAAAAAAAAAAAAAAAAAAAAAAAAAAAAAAAAAAAAAAAAAAAAAAAAAAAAAPwAAAAAAAAAAAAAAAAAAAAAAAAAAAAAAAAAAAAAAAAAAAAAAAAAAAAAAAAAAAACAP+/ubr0AAAA/AAAAAAAAAAAAAAAAAAAAAAAAAAAAAAAAAAAAAAAAAAAAAAAAAAAAAAAAAAAAAAAAAAAAAAAAAAAAAAAAAAAAAAAAAAAAAAAAAAAAAAAAAAAAAAAAAAAAAAAAAAAAAAAAAAAAAAAAAAAAAAAAAAAAAAAAAAAAAAAAAAAAAAAAAAAAAAAAAAAAAAAAAAAAAAAAAAAAAAAAAAAAAAAAAAAAAAAAAAAAAAAAAAAAAAAAAAAAAAAAAAAAAAAAAAAAAAAAAAAAAAAAAAAAAAAAAAAAAAAAAAAAAAAAAAAAAAAAAAAAAAAAAAAAAAAAAAAAAAAAAAAAAAAAAAAAAAAAAAAAAAAAAAAAAAAAAAAAPwAAAAAAAAAAAAAAAAAAAAAAAAAAAACAP+/ubr0AAAA/AAAAAAAAAAAAAAAAAAAAAAAAAAAAAAAAAAAAAAAAAAAAAAAAAAAAAAAAAAAAAAAAAAAAAAAAAAAAAAAAAAAAAAAAAAAAAAAAAAAAAAAAAAAAAAAAAAAAAAAAAAAAAAAAAAAAAAAAAAAAAAAAAAAAAAAAAAAAAAAAAAAAAAAAAAAAAAAAAAAAAAAAAAAAAAAAAAAAAAAAAAAAAAAAAAAAAAAAAAAAAAAAAAAAAAAAAAAAAAAAAAAAAAAAAAAAAAAAAAAAAAAAAAAAAAAAAAAAAAAAAAAAAAAAAAAAAAAAAAAAAAAAAAAAAAAAAAAAAAAAAAAAAAAAAAAAAAAAAAAAAAAAAD8AAAAAAAAAAFByb2dyYW0gMTgAcERvd24A1eoCCNXqAgDT6gJY1eoCAACAP+/ubr0AAAA/AAAAAAAAAAAAAAAAAAAAAAAAAAAAAAAAAAAAAAAAAAAAAAAAAAAAAAAAAAAAAAAAAAAAAAAAAAAAAAAAAAAAAAAAAAAAAAAAAAAAAAAAAAAAAAAAAAAAAAAAAAAAAAAAAAAAAAAAAAAAAAAAAAAAAAAAAAAAAAAAAAAAAAAAAAAAAAAAAAAAAAAAAAAAAAAAAAAAAAAAAAAAAAAAAAAAAAAAAAAAAAAAAAAAAAAAAAAAAAAAAAAAAAAAAAAAAAAAAAAAAAAAAAAAAAAAAAAAAAAAAAAAAAAAAAAAAAAAAAAAAAAAAAAAAAAAAAAAAAAAAAAAAAAAAAAAAAAAAAAAAAAAAAAAAAA/AAAAAAAAgD/v7m69AAAAPwAAAAAAAAAAAAAAAAAAAAAAAAAAAAAAAAAAAAAAAAAAAAAAAAAAAAAAAAAAAAAAAAAAAAAAAAAAAAAAAAAAAAAAAAAAAAAAAAAAAAAAAAAAAAAAAAAAAAAAAAAAAAAAAAAAAAAAAAAAAAAAAAAAAAAAAAAAAAAAAAAAAAAAAAAAAAAAAAAAAAAAAAAAAAAAAAAAAAAAAAAAAAAAAAAAAAAAAAAAAAAAAAAAAAAAAAAAAAAAAAAAAAAAAAAAAAAAAAAAAAAAAAAAAAAAAAAAAAAAAAAAAAAAAAAAAAAAAAAAAAAAAAAAAAAAAAAAAAAAAAAAAAAAAAAAAAAAAAAAAAAAAAAAAAAAAAAAAD8AAAAAAAAAAAAAAAAAAAAAAAAAAAAAAAAAAAAAAAAAAAAAAAAAAAAAAAAAAAAAgD/v7m69AAAAPwAAAAAAAAAAAAAAAAAAAAAAAAAAAAAAAAAAAAAAAAAAAAAAAAAAAAAAAAAAAAAAAAAAAAAAAAAAAAAAAAAAAAAAAAAAAAAAAAAAAAAAAAAAAAAAAAAAAAAAAAAAAAAAAAAAAAAAAAAAAAAAAAAAAAAAAAAAAAAAAAAAAAAAAAAAAAAAAAAAAAAAAAAAAAAAAAAAAAAAAAAAAAAAAAAAAAAAAAAAAAAAAAAAAAAAAAAAAAAAAAAAAAAAAAAAAAAAAAAAAAAAAAAAAAAAAAAAAAAAAAAAAAAAAAAAAAAAAAAAAAAAAAAAAAAAAAAAAAAAAAAAAAAAAAAAAAAAAAAAAAAAAAAAAAAAAAAAAD8AAAAAAAAAAAAAAAAAAAAAAAAAAAAAgD/v7m69AAAAPwAAAAAAAAAAAAAAAAAAAAAAAAAAAAAAAAAAAAAAAAAAAAAAAAAAAAAAAAAAAAAAAAAAAAAAAAAAAAAAAAAAAAAAAAAAAAAAAAAAAAAAAAAAAAAAAAAAAAAAAAAAAAAAAAAAAAAAAAAAAAAAAAAAAAAAAAAAAAAAAAAAAAAAAAAAAAAAAAAAAAAAAAAAAAAAAAAAAAAAAAAAAAAAAAAAAAAAAAAAAAAAAAAAAAAAAAAAAAAAAAAAAAAAAAAAAAAAAAAAAAAAAAAAAAAAAAAAAAAAAAAAAAAAAAAAAAAAAAAAAAAAAAAAAAAAAAAAAAAAAAAAAAAAAAAAAAAAAAAAAAAAAAA/AAAAAAAAAABQcm9ncmFtIDE5AHBEb3duANXqAgjV6gIA0+oCWNXqAgAAgD/v7m69AAAAPwAAAAAAAAAAAAAAAAAAAAAAAAAAAAAAAAAAAAAAAAAAAAAAAAAAAAAAAAAAAAAAAAAAAAAAAAAAAAAAAAAAAAAAAAAAAAAAAAAAAAAAAAAAAAAAAAAAAAAAAAAAAAAAAAAAAAAAAAAAAAAAAAAAAAAAAAAAAAAAAAAAAAAAAAAAAAAAAAAAAAAAAAAAAAAAAAAAAAAAAAAAAAAAAAAAAAAAAAAAAAAAAAAAAAAAAAAAAAAAAAAAAAAAAAAAAAAAAAAAAAAAAAAAAAAAAAAAAAAAAAAAAAAAAAAAAAAAAAAAAAAAAAAAAAAAAAAAAAAAAAAAAAAAAAAAAAAAAAAAAAAAAAAAAAAAPwAAAAAAAIA/7+5uvQAAAD8AAAAAAAAAAAAAAAAAAAAAAAAAAAAAAAAAAAAAAAAAAAAAAAAAAAAAAAAAAAAAAAAAAAAAAAAAAAAAAAAAAAAAAAAAAAAAAAAAAAAAAAAAAAAAAAAAAAAAAAAAAAAAAAAAAAAAAAAAAAAAAAAAAAAAAAAAAAAAAAAAAAAAAAAAAAAAAAAAAAAAAAAAAAAAAAAAAAAAAAAAAAAAAAAAAAAAAAAAAAAAAAAAAAAAAAAAAAAAAAAAAAAAAAAAAAAAAAAAAAAAAAAAAAAAAAAAAAAAAAAAAAAAAAAAAAAAAAAAAAAAAAAAAAAAAAAAAAAAAAAAAAAAAAAAAAAAAAAAAAAAAAAAAAAAAAAAAAA/AAAAAAAAAAAAAAAAAAAAAAAAAAAAAAAAAAAAAAAAAAAAAAAAAAAAAAAAAAAAAIA/7+5uvQAAAD8AAAAAAAAAAAAAAAAAAAAAAAAAAAAAAAAAAAAAAAAAAAAAAAAAAAAAAAAAAAAAAAAAAAAAAAAAAAAAAAAAAAAAAAAAAAAAAAAAAAAAAAAAAAAAAAAAAAAAAAAAAAAAAAAAAAAAAAAAAAAAAAAAAAAAAAAAAAAAAAAAAAAAAAAAAAAAAAAAAAAAAAAAAAAAAAAAAAAAAAAAAAAAAAAAAAAAAAAAAAAAAAAAAAAAAAAAAAAAAAAAAAAAAAAAAAAAAAAAAAAAAAAAAAAAAAAAAAAAAAAAAAAAAAAAAAAAAAAAAAAAAAAAAAAAAAAAAAAAAAAAAAAAAAAAAAAAAAAAAAAAAAAAAAAAAAAAAAA/AAAAAAAAAAAAAAAAAAAAAAAAAAAAAIA/7+5uvQAAAD8AAAAAAAAAAAAAAAAAAAAAAAAAAAAAAAAAAAAAAAAAAAAAAAAAAAAAAAAAAAAAAAAAAAAAAAAAAAAAAAAAAAAAAAAAAAAAAAAAAAAAAAAAAAAAAAAAAAAAAAAAAAAAAAAAAAAAAAAAAAAAAAAAAAAAAAAAAAAAAAAAAAAAAAAAAAAAAAAAAAAAAAAAAAAAAAAAAAAAAAAAAAAAAAAAAAAAAAAAAAAAAAAAAAAAAAAAAAAAAAAAAAAAAAAAAAAAAAAAAAAAAAAAAAAAAAAAAAAAAAAAAAAAAAAAAAAAAAAAAAAAAAAAAAAAAAAAAAAAAAAAAAAAAAAAAAAAAAAAAAAAAAAAPwAAAAAAAAAAUHJvZ3JhbSAyMABhcmUAcwBpbnQA1eoCANI0EEfSNBA=" plugin="uservst:Instruments/NESVST/NES VST 1.2.dll" guivisible="0">
              <key/>
            </vestige>
          </instrument>
          <eldata fcut="14000" ftype="0" fres="0.5" fwet="0">
            <elvol sustain="0.5" lspd_denominator="4" dec="0.5" pdel="0" rel="0.1" userwavefile="" latt="0" lspd_numerator="4" att="0" amt="0" ctlenvamt="0" lspd="0.1" lshp="0" x100="0" lpdel="0" hold="0.5" lspd_syncmode="0" lamt="0"/>
            <elcut sustain="0.5" lspd_denominator="4" dec="0.5" pdel="0" rel="0.1" userwavefile="" latt="0" lspd_numerator="4" att="0" amt="0" ctlenvamt="0" lspd="0.1" lshp="0" x100="0" lpdel="0" hold="0.5" lspd_syncmode="0" lamt="0"/>
            <elres sustain="0.5" lspd_denominator="4" dec="0.5" pdel="0" rel="0.1" userwavefile="" latt="0" lspd_numerator="4" att="0" amt="0" ctlenvamt="0" lspd="0.1" lshp="0" x100="0" lpdel="0" hold="0.5" lspd_syncmode="0" lamt="0"/>
          </eldata>
          <chordcreator chord-enabled="0" chord="0" chordrange="1"/>
          <arpeggiator arpmode="0" arpskip="0" arprange="1" arpmiss="0" arptime_numerator="4" arptime="200" arptime_denominator="4" arpdir="0" arprepeats="1" arp-enabled="0" arpcycle="0" arpgate="100" arp="0" arptime_syncmode="0"/>
          <midiport inputcontroller="0" fixedinputvelocity="-1" fixedoutputvelocity="-1" outputcontroller="0" outputprogram="1" writable="0" fixedoutputnote="-1" outputchannel="1" basevelocity="63" inputchannel="0" inports="" readable="1"/>
          <fxchain numofeffects="0" enabled="0"/>
        </instrumenttrack>
        <midiclip type="1" steps="16" pos="1152" name="" muted="0">
          <note key="65" pan="0" pos="0" vol="100" len="24"/>
          <note key="69" pan="0" pos="24" vol="100" len="24"/>
          <note key="67" pan="0" pos="48" vol="100" len="24"/>
          <note key="63" pan="0" pos="72" vol="100" len="24"/>
          <note key="67" pan="0" pos="96" vol="100" len="24"/>
          <note key="65" pan="0" pos="120" vol="100" len="24"/>
          <note key="70" pan="0" pos="144" vol="100" len="24"/>
          <note key="65" pan="0" pos="192" vol="100" len="24"/>
          <note key="69" pan="0" pos="216" vol="100" len="24"/>
          <note key="67" pan="0" pos="240" vol="100" len="24"/>
          <note key="65" pan="0" pos="264" vol="100" len="24"/>
          <note key="70" pan="0" pos="288" vol="100" len="24"/>
          <note key="67" pan="0" pos="312" vol="100" len="24"/>
          <note key="74" pan="0" pos="336" vol="100" len="24"/>
          <note key="70" pan="0" pos="384" vol="100" len="24"/>
          <note key="74" pan="0" pos="408" vol="100" len="24"/>
          <note key="72" pan="0" pos="432" vol="100" len="24"/>
          <note key="67" pan="0" pos="456" vol="100" len="24"/>
          <note key="72" pan="0" pos="480" vol="100" len="24"/>
          <note key="70" pan="0" pos="504" vol="100" len="24"/>
          <note key="76" pan="0" pos="528" vol="100" len="24"/>
          <note key="64" pan="0" pos="576" vol="100" len="24"/>
          <note key="70" pan="0" pos="600" vol="100" len="24"/>
          <note key="67" pan="0" pos="624" vol="100" len="24"/>
          <note key="60" pan="0" pos="648" vol="100" len="24"/>
          <note key="67" pan="0" pos="672" vol="100" len="24"/>
          <note key="64" pan="0" pos="696" vol="100" len="24"/>
          <note key="70" pan="0" pos="720" vol="100" len="24"/>
        </midiclip>
        <midiclip type="1" steps="16" pos="1920" name="" muted="0">
          <note key="60" pan="0" pos="0" vol="100" len="24"/>
          <note key="69" pan="0" pos="24" vol="100" len="24"/>
          <note key="65" pan="0" pos="48" vol="100" len="24"/>
          <note key="63" pan="0" pos="72" vol="100" len="24"/>
          <note key="70" pan="0" pos="96" vol="100" len="24"/>
          <note key="67" pan="0" pos="120" vol="100" len="24"/>
          <note key="72" pan="0" pos="144" vol="100" len="24"/>
          <note key="62" pan="0" pos="192" vol="100" len="24"/>
          <note key="74" pan="0" pos="216" vol="100" len="24"/>
          <note key="70" pan="0" pos="240" vol="100" len="24"/>
          <note key="62" pan="0" pos="264" vol="100" len="24"/>
          <note key="69" pan="0" pos="288" vol="100" len="24"/>
          <note key="66" pan="0" pos="312" vol="100" len="24"/>
          <note key="67" pan="0" pos="336" vol="100" len="24"/>
          <note key="55" pan="0" pos="384" vol="100" len="24"/>
          <note key="62" pan="0" pos="408" vol="100" len="24"/>
          <note key="58" pan="0" pos="432" vol="100" len="24"/>
          <note key="60" pan="0" pos="456" vol="100" len="24"/>
          <note key="65" pan="0" pos="480" vol="100" len="24"/>
          <note key="55" pan="0" pos="504" vol="100" len="24"/>
          <note key="62" pan="0" pos="528" vol="100" len="24"/>
          <note key="53" pan="0" pos="576" vol="100" len="24"/>
          <note key="58" pan="0" pos="600" vol="100" len="24"/>
          <note key="55" pan="0" pos="624" vol="100" len="24"/>
          <note key="60" pan="0" pos="648" vol="100" len="24"/>
          <note key="55" pan="0" pos="672" vol="100" len="24"/>
          <note key="60" pan="0" pos="696" vol="100" len="24"/>
          <note key="58" pan="0" pos="720" vol="100" len="24"/>
        </midiclip>
        <midiclip type="1" steps="16" pos="2688" name="" muted="0">
          <note key="65" pan="0" pos="0" vol="100" len="24"/>
          <note key="69" pan="0" pos="24" vol="100" len="24"/>
          <note key="67" pan="0" pos="48" vol="100" len="24"/>
          <note key="63" pan="0" pos="72" vol="100" len="24"/>
          <note key="67" pan="0" pos="96" vol="100" len="24"/>
          <note key="65" pan="0" pos="120" vol="100" len="24"/>
          <note key="70" pan="0" pos="144" vol="100" len="24"/>
          <note key="65" pan="0" pos="192" vol="100" len="24"/>
          <note key="69" pan="0" pos="216" vol="100" len="24"/>
          <note key="67" pan="0" pos="240" vol="100" len="24"/>
          <note key="65" pan="0" pos="264" vol="100" len="24"/>
          <note key="70" pan="0" pos="288" vol="100" len="24"/>
          <note key="67" pan="0" pos="312" vol="100" len="24"/>
          <note key="74" pan="0" pos="336" vol="100" len="24"/>
          <note key="70" pan="0" pos="384" vol="100" len="24"/>
          <note key="74" pan="0" pos="408" vol="100" len="24"/>
          <note key="72" pan="0" pos="432" vol="100" len="24"/>
          <note key="67" pan="0" pos="456" vol="100" len="24"/>
          <note key="72" pan="0" pos="480" vol="100" len="24"/>
          <note key="70" pan="0" pos="504" vol="100" len="24"/>
          <note key="76" pan="0" pos="528" vol="100" len="24"/>
          <note key="64" pan="0" pos="576" vol="100" len="24"/>
          <note key="70" pan="0" pos="600" vol="100" len="24"/>
          <note key="67" pan="0" pos="624" vol="100" len="24"/>
          <note key="60" pan="0" pos="648" vol="100" len="24"/>
          <note key="67" pan="0" pos="672" vol="100" len="24"/>
          <note key="64" pan="0" pos="696" vol="100" len="24"/>
          <note key="70" pan="0" pos="720" vol="100" len="24"/>
        </midiclip>
        <midiclip type="1" steps="16" pos="3456" name="" muted="0">
          <note key="60" pan="0" pos="0" vol="100" len="24"/>
          <note key="69" pan="0" pos="24" vol="100" len="24"/>
          <note key="65" pan="0" pos="48" vol="100" len="24"/>
          <note key="63" pan="0" pos="72" vol="100" len="24"/>
          <note key="70" pan="0" pos="96" vol="100" len="24"/>
          <note key="67" pan="0" pos="120" vol="100" len="24"/>
          <note key="72" pan="0" pos="144" vol="100" len="24"/>
          <note key="62" pan="0" pos="192" vol="100" len="24"/>
          <note key="74" pan="0" pos="216" vol="100" len="24"/>
          <note key="70" pan="0" pos="240" vol="100" len="24"/>
          <note key="62" pan="0" pos="264" vol="100" len="24"/>
          <note key="69" pan="0" pos="288" vol="100" len="24"/>
          <note key="66" pan="0" pos="312" vol="100" len="24"/>
          <note key="67" pan="0" pos="336" vol="100" len="24"/>
          <note key="55" pan="0" pos="384" vol="100" len="24"/>
          <note key="62" pan="0" pos="408" vol="100" len="24"/>
          <note key="58" pan="0" pos="432" vol="100" len="24"/>
          <note key="60" pan="0" pos="456" vol="100" len="24"/>
          <note key="65" pan="0" pos="480" vol="100" len="24"/>
          <note key="55" pan="0" pos="504" vol="100" len="24"/>
          <note key="62" pan="0" pos="528" vol="100" len="24"/>
          <note key="53" pan="0" pos="576" vol="100" len="24"/>
          <note key="58" pan="0" pos="600" vol="100" len="24"/>
          <note key="55" pan="0" pos="624" vol="100" len="24"/>
          <note key="60" pan="0" pos="648" vol="100" len="24"/>
          <note key="55" pan="0" pos="672" vol="100" len="24"/>
          <note key="60" pan="0" pos="696" vol="100" len="24"/>
          <note key="58" pan="0" pos="720" vol="100" len="24"/>
        </midiclip>
        <midiclip type="1" steps="16" pos="4224" name="" muted="0">
          <note key="65" pan="0" pos="0" vol="100" len="24"/>
          <note key="69" pan="0" pos="24" vol="100" len="24"/>
          <note key="67" pan="0" pos="48" vol="100" len="24"/>
          <note key="63" pan="0" pos="72" vol="100" len="24"/>
          <note key="67" pan="0" pos="96" vol="100" len="24"/>
          <note key="65" pan="0" pos="120" vol="100" len="24"/>
          <note key="70" pan="0" pos="144" vol="100" len="24"/>
          <note key="65" pan="0" pos="192" vol="100" len="24"/>
          <note key="69" pan="0" pos="216" vol="100" len="24"/>
          <note key="67" pan="0" pos="240" vol="100" len="24"/>
          <note key="65" pan="0" pos="264" vol="100" len="24"/>
          <note key="70" pan="0" pos="288" vol="100" len="24"/>
          <note key="67" pan="0" pos="312" vol="100" len="24"/>
          <note key="74" pan="0" pos="336" vol="100" len="24"/>
          <note key="70" pan="0" pos="384" vol="100" len="24"/>
          <note key="74" pan="0" pos="408" vol="100" len="24"/>
          <note key="72" pan="0" pos="432" vol="100" len="24"/>
          <note key="67" pan="0" pos="456" vol="100" len="24"/>
          <note key="72" pan="0" pos="480" vol="100" len="24"/>
          <note key="70" pan="0" pos="504" vol="100" len="24"/>
          <note key="76" pan="0" pos="528" vol="100" len="24"/>
          <note key="64" pan="0" pos="576" vol="100" len="24"/>
          <note key="70" pan="0" pos="600" vol="100" len="24"/>
          <note key="67" pan="0" pos="624" vol="100" len="24"/>
          <note key="60" pan="0" pos="648" vol="100" len="24"/>
          <note key="67" pan="0" pos="672" vol="100" len="24"/>
          <note key="64" pan="0" pos="696" vol="100" len="24"/>
          <note key="70" pan="0" pos="720" vol="100" len="24"/>
        </midiclip>
        <midiclip type="1" steps="16" pos="4992" name="" muted="0">
          <note key="65" pan="0" pos="0" vol="100" len="24"/>
          <note key="69" pan="0" pos="24" vol="100" len="24"/>
          <note key="67" pan="0" pos="48" vol="100" len="24"/>
          <note key="63" pan="0" pos="72" vol="100" len="24"/>
          <note key="67" pan="0" pos="96" vol="100" len="24"/>
          <note key="65" pan="0" pos="120" vol="100" len="24"/>
          <note key="70" pan="0" pos="144" vol="100" len="24"/>
          <note key="65" pan="0" pos="192" vol="100" len="24"/>
          <note key="69" pan="0" pos="216" vol="100" len="24"/>
          <note key="67" pan="0" pos="240" vol="100" len="24"/>
          <note key="65" pan="0" pos="264" vol="100" len="24"/>
          <note key="70" pan="0" pos="288" vol="100" len="24"/>
          <note key="67" pan="0" pos="312" vol="100" len="24"/>
          <note key="74" pan="0" pos="336" vol="100" len="24"/>
          <note key="70" pan="0" pos="384" vol="100" len="24"/>
          <note key="74" pan="0" pos="408" vol="100" len="24"/>
          <note key="72" pan="0" pos="432" vol="100" len="24"/>
          <note key="67" pan="0" pos="456" vol="100" len="24"/>
          <note key="72" pan="0" pos="480" vol="100" len="24"/>
          <note key="70" pan="0" pos="504" vol="100" len="24"/>
          <note key="76" pan="0" pos="528" vol="100" len="24"/>
          <note key="64" pan="0" pos="576" vol="100" len="24"/>
          <note key="70" pan="0" pos="600" vol="100" len="24"/>
          <note key="67" pan="0" pos="624" vol="100" len="24"/>
          <note key="60" pan="0" pos="648" vol="100" len="24"/>
          <note key="67" pan="0" pos="672" vol="100" len="24"/>
          <note key="64" pan="0" pos="696" vol="100" len="24"/>
          <note key="70" pan="0" pos="720" vol="100" len="24"/>
        </midiclip>
        <midiclip type="1" steps="16" pos="5760" name="" muted="0">
          <note key="65" pan="0" pos="0" vol="100" len="24"/>
          <note key="69" pan="0" pos="24" vol="100" len="24"/>
          <note key="67" pan="0" pos="48" vol="100" len="24"/>
          <note key="63" pan="0" pos="72" vol="100" len="24"/>
          <note key="67" pan="0" pos="96" vol="100" len="24"/>
          <note key="65" pan="0" pos="120" vol="100" len="24"/>
          <note key="70" pan="0" pos="144" vol="100" len="24"/>
          <note key="65" pan="0" pos="192" vol="100" len="24"/>
          <note key="69" pan="0" pos="216" vol="100" len="24"/>
          <note key="67" pan="0" pos="240" vol="100" len="24"/>
          <note key="65" pan="0" pos="264" vol="100" len="24"/>
          <note key="70" pan="0" pos="288" vol="100" len="24"/>
          <note key="67" pan="0" pos="312" vol="100" len="24"/>
          <note key="74" pan="0" pos="336" vol="100" len="24"/>
          <note key="70" pan="0" pos="384" vol="100" len="24"/>
          <note key="74" pan="0" pos="408" vol="100" len="24"/>
          <note key="72" pan="0" pos="432" vol="100" len="24"/>
          <note key="67" pan="0" pos="456" vol="100" len="24"/>
          <note key="72" pan="0" pos="480" vol="100" len="24"/>
          <note key="70" pan="0" pos="504" vol="100" len="24"/>
          <note key="76" pan="0" pos="528" vol="100" len="24"/>
          <note key="64" pan="0" pos="576" vol="100" len="24"/>
          <note key="70" pan="0" pos="600" vol="100" len="24"/>
          <note key="67" pan="0" pos="624" vol="100" len="24"/>
          <note key="60" pan="0" pos="648" vol="100" len="24"/>
          <note key="67" pan="0" pos="672" vol="100" len="24"/>
          <note key="64" pan="0" pos="696" vol="100" len="24"/>
          <note key="70" pan="0" pos="720" vol="100" len="24"/>
        </midiclip>
        <midiclip type="1" steps="16" pos="7104" name="" muted="0">
          <note key="65" pan="0" pos="0" vol="100" len="24"/>
          <note key="69" pan="0" pos="24" vol="100" len="24"/>
          <note key="67" pan="0" pos="48" vol="100" len="24"/>
          <note key="63" pan="0" pos="72" vol="100" len="24"/>
          <note key="67" pan="0" pos="96" vol="100" len="24"/>
          <note key="65" pan="0" pos="120" vol="100" len="24"/>
          <note key="70" pan="0" pos="144" vol="100" len="24"/>
          <note key="65" pan="0" pos="192" vol="100" len="24"/>
          <note key="69" pan="0" pos="216" vol="100" len="24"/>
          <note key="67" pan="0" pos="240" vol="100" len="24"/>
          <note key="65" pan="0" pos="264" vol="100" len="24"/>
          <note key="70" pan="0" pos="288" vol="100" len="24"/>
          <note key="67" pan="0" pos="312" vol="100" len="24"/>
          <note key="74" pan="0" pos="336" vol="100" len="24"/>
          <note key="70" pan="0" pos="384" vol="100" len="24"/>
          <note key="74" pan="0" pos="408" vol="100" len="24"/>
          <note key="72" pan="0" pos="432" vol="100" len="24"/>
          <note key="67" pan="0" pos="456" vol="100" len="24"/>
          <note key="72" pan="0" pos="480" vol="100" len="24"/>
          <note key="70" pan="0" pos="504" vol="100" len="24"/>
          <note key="76" pan="0" pos="528" vol="100" len="24"/>
          <note key="64" pan="0" pos="576" vol="100" len="24"/>
          <note key="70" pan="0" pos="600" vol="100" len="24"/>
          <note key="67" pan="0" pos="624" vol="100" len="24"/>
          <note key="60" pan="0" pos="648" vol="100" len="24"/>
          <note key="67" pan="0" pos="672" vol="100" len="24"/>
          <note key="64" pan="0" pos="696" vol="100" len="24"/>
          <note key="70" pan="0" pos="720" vol="100" len="24"/>
        </midiclip>
        <midiclip type="1" steps="16" pos="7872" name="" muted="0">
          <note key="60" pan="0" pos="0" vol="100" len="24"/>
          <note key="69" pan="0" pos="24" vol="100" len="24"/>
          <note key="65" pan="0" pos="48" vol="100" len="24"/>
          <note key="63" pan="0" pos="72" vol="100" len="24"/>
          <note key="70" pan="0" pos="96" vol="100" len="24"/>
          <note key="67" pan="0" pos="120" vol="100" len="24"/>
          <note key="72" pan="0" pos="144" vol="100" len="24"/>
          <note key="62" pan="0" pos="192" vol="100" len="24"/>
          <note key="74" pan="0" pos="216" vol="100" len="24"/>
          <note key="70" pan="0" pos="240" vol="100" len="24"/>
          <note key="62" pan="0" pos="264" vol="100" len="24"/>
          <note key="69" pan="0" pos="288" vol="100" len="24"/>
          <note key="66" pan="0" pos="312" vol="100" len="24"/>
          <note key="67" pan="0" pos="336" vol="100" len="24"/>
          <note key="55" pan="0" pos="384" vol="100" len="24"/>
          <note key="62" pan="0" pos="408" vol="100" len="24"/>
          <note key="58" pan="0" pos="432" vol="100" len="24"/>
          <note key="60" pan="0" pos="456" vol="100" len="24"/>
          <note key="65" pan="0" pos="480" vol="100" len="24"/>
          <note key="55" pan="0" pos="504" vol="100" len="24"/>
          <note key="62" pan="0" pos="528" vol="100" len="24"/>
          <note key="53" pan="0" pos="576" vol="100" len="24"/>
          <note key="58" pan="0" pos="600" vol="100" len="24"/>
          <note key="55" pan="0" pos="624" vol="100" len="24"/>
          <note key="60" pan="0" pos="648" vol="100" len="24"/>
          <note key="55" pan="0" pos="672" vol="100" len="24"/>
          <note key="60" pan="0" pos="696" vol="100" len="24"/>
          <note key="58" pan="0" pos="720" vol="100" len="24"/>
        </midiclip>
        <midiclip type="1" steps="16" pos="8640" name="" muted="0">
          <note key="65" pan="0" pos="0" vol="100" len="24"/>
          <note key="69" pan="0" pos="24" vol="100" len="24"/>
          <note key="67" pan="0" pos="48" vol="100" len="24"/>
          <note key="63" pan="0" pos="72" vol="100" len="24"/>
          <note key="67" pan="0" pos="96" vol="100" len="24"/>
          <note key="65" pan="0" pos="120" vol="100" len="24"/>
          <note key="70" pan="0" pos="144" vol="100" len="24"/>
          <note key="65" pan="0" pos="192" vol="100" len="24"/>
          <note key="69" pan="0" pos="216" vol="100" len="24"/>
          <note key="67" pan="0" pos="240" vol="100" len="24"/>
          <note key="65" pan="0" pos="264" vol="100" len="24"/>
          <note key="70" pan="0" pos="288" vol="100" len="24"/>
          <note key="67" pan="0" pos="312" vol="100" len="24"/>
          <note key="74" pan="0" pos="336" vol="100" len="24"/>
          <note key="70" pan="0" pos="384" vol="100" len="24"/>
          <note key="74" pan="0" pos="408" vol="100" len="24"/>
          <note key="72" pan="0" pos="432" vol="100" len="24"/>
          <note key="67" pan="0" pos="456" vol="100" len="24"/>
          <note key="72" pan="0" pos="480" vol="100" len="24"/>
          <note key="70" pan="0" pos="504" vol="100" len="24"/>
          <note key="76" pan="0" pos="528" vol="100" len="24"/>
          <note key="64" pan="0" pos="576" vol="100" len="24"/>
          <note key="70" pan="0" pos="600" vol="100" len="24"/>
          <note key="67" pan="0" pos="624" vol="100" len="24"/>
          <note key="60" pan="0" pos="648" vol="100" len="24"/>
          <note key="67" pan="0" pos="672" vol="100" len="24"/>
          <note key="64" pan="0" pos="696" vol="100" len="24"/>
          <note key="70" pan="0" pos="720" vol="100" len="24"/>
        </midiclip>
        <midiclip type="1" steps="16" pos="9408" name="" muted="0">
          <note key="60" pan="0" pos="0" vol="100" len="24"/>
          <note key="69" pan="0" pos="24" vol="100" len="24"/>
          <note key="65" pan="0" pos="48" vol="100" len="24"/>
          <note key="63" pan="0" pos="72" vol="100" len="24"/>
          <note key="70" pan="0" pos="96" vol="100" len="24"/>
          <note key="67" pan="0" pos="120" vol="100" len="24"/>
          <note key="72" pan="0" pos="144" vol="100" len="24"/>
          <note key="62" pan="0" pos="192" vol="100" len="24"/>
          <note key="74" pan="0" pos="216" vol="100" len="24"/>
          <note key="70" pan="0" pos="240" vol="100" len="24"/>
          <note key="62" pan="0" pos="264" vol="100" len="24"/>
          <note key="69" pan="0" pos="288" vol="100" len="24"/>
          <note key="66" pan="0" pos="312" vol="100" len="24"/>
          <note key="67" pan="0" pos="336" vol="100" len="24"/>
          <note key="55" pan="0" pos="384" vol="100" len="24"/>
          <note key="62" pan="0" pos="408" vol="100" len="24"/>
          <note key="58" pan="0" pos="432" vol="100" len="24"/>
          <note key="60" pan="0" pos="456" vol="100" len="24"/>
          <note key="65" pan="0" pos="480" vol="100" len="24"/>
          <note key="55" pan="0" pos="504" vol="100" len="24"/>
          <note key="62" pan="0" pos="528" vol="100" len="24"/>
          <note key="53" pan="0" pos="576" vol="100" len="24"/>
          <note key="58" pan="0" pos="600" vol="100" len="24"/>
          <note key="55" pan="0" pos="624" vol="100" len="24"/>
          <note key="60" pan="0" pos="648" vol="100" len="24"/>
          <note key="55" pan="0" pos="672" vol="100" len="24"/>
          <note key="60" pan="0" pos="696" vol="100" len="24"/>
          <note key="58" pan="0" pos="720" vol="100" len="24"/>
        </midiclip>
        <midiclip type="1" steps="16" pos="10176" name="" muted="0">
          <note key="65" pan="0" pos="0" vol="100" len="24"/>
          <note key="69" pan="0" pos="24" vol="100" len="24"/>
          <note key="67" pan="0" pos="48" vol="100" len="24"/>
          <note key="63" pan="0" pos="72" vol="100" len="24"/>
          <note key="67" pan="0" pos="96" vol="100" len="24"/>
          <note key="65" pan="0" pos="120" vol="100" len="24"/>
          <note key="70" pan="0" pos="144" vol="100" len="24"/>
          <note key="65" pan="0" pos="192" vol="100" len="24"/>
          <note key="69" pan="0" pos="216" vol="100" len="24"/>
          <note key="67" pan="0" pos="240" vol="100" len="24"/>
          <note key="65" pan="0" pos="264" vol="100" len="24"/>
          <note key="70" pan="0" pos="288" vol="100" len="24"/>
          <note key="67" pan="0" pos="312" vol="100" len="24"/>
          <note key="74" pan="0" pos="336" vol="100" len="24"/>
          <note key="70" pan="0" pos="384" vol="100" len="24"/>
          <note key="74" pan="0" pos="408" vol="100" len="24"/>
          <note key="72" pan="0" pos="432" vol="100" len="24"/>
          <note key="67" pan="0" pos="456" vol="100" len="24"/>
          <note key="72" pan="0" pos="480" vol="100" len="24"/>
          <note key="70" pan="0" pos="504" vol="100" len="24"/>
          <note key="76" pan="0" pos="528" vol="100" len="24"/>
          <note key="64" pan="0" pos="576" vol="100" len="24"/>
          <note key="70" pan="0" pos="600" vol="100" len="24"/>
          <note key="67" pan="0" pos="624" vol="100" len="24"/>
          <note key="60" pan="0" pos="648" vol="100" len="24"/>
          <note key="67" pan="0" pos="672" vol="100" len="24"/>
          <note key="64" pan="0" pos="696" vol="100" len="24"/>
          <note key="70" pan="0" pos="720" vol="100" len="24"/>
        </midiclip>
        <midiclip type="1" steps="16" pos="10944" name="" muted="0">
          <note key="60" pan="0" pos="0" vol="100" len="24"/>
          <note key="69" pan="0" pos="24" vol="100" len="24"/>
          <note key="65" pan="0" pos="48" vol="100" len="24"/>
          <note key="63" pan="0" pos="72" vol="100" len="24"/>
          <note key="70" pan="0" pos="96" vol="100" len="24"/>
          <note key="67" pan="0" pos="120" vol="100" len="24"/>
          <note key="72" pan="0" pos="144" vol="100" len="24"/>
          <note key="62" pan="0" pos="192" vol="100" len="24"/>
          <note key="74" pan="0" pos="216" vol="100" len="24"/>
          <note key="70" pan="0" pos="240" vol="100" len="24"/>
          <note key="62" pan="0" pos="264" vol="100" len="24"/>
          <note key="69" pan="0" pos="288" vol="100" len="24"/>
          <note key="66" pan="0" pos="312" vol="100" len="24"/>
          <note key="67" pan="0" pos="336" vol="100" len="24"/>
          <note key="55" pan="0" pos="384" vol="100" len="24"/>
          <note key="62" pan="0" pos="408" vol="100" len="24"/>
          <note key="58" pan="0" pos="432" vol="100" len="24"/>
          <note key="60" pan="0" pos="456" vol="100" len="24"/>
          <note key="65" pan="0" pos="480" vol="100" len="24"/>
          <note key="55" pan="0" pos="504" vol="100" len="24"/>
          <note key="62" pan="0" pos="528" vol="100" len="24"/>
          <note key="53" pan="0" pos="576" vol="100" len="24"/>
          <note key="58" pan="0" pos="600" vol="100" len="24"/>
          <note key="55" pan="0" pos="624" vol="100" len="24"/>
          <note key="60" pan="0" pos="648" vol="100" len="24"/>
          <note key="55" pan="0" pos="672" vol="100" len="24"/>
          <note key="60" pan="0" pos="696" vol="100" len="24"/>
          <note key="58" pan="0" pos="720" vol="100" len="24"/>
        </midiclip>
      </track>
      <track type="0" name="Piano>Bass" solo="0" mutedBeforeSolo="0" muted="0">
        <instrumenttrack usemasterpitch="1" mixch="4" firstkey="0" keymap="0" lastkey="127" pan="0" enablecc="0" pitch="0" pitchrange="1" vol="100" basenote="69" scale="0" enabled="0" range_import="1">
          <midicontrollers cc43="0" cc74="0" cc111="0" cc119="0" cc124="0" cc108="0" cc7="0" cc49="0" cc95="0" cc116="0" cc35="0" cc98="0" cc105="0" cc14="0" cc48="0" cc65="0" cc11="0" cc17="0" cc34="0" cc23="0" cc15="0" cc22="0" cc55="0" cc68="0" cc4="0" cc28="0" cc13="0" cc44="0" cc69="0" cc3="0" cc77="0" cc73="0" cc1="0" cc80="0" cc58="0" cc120="0" cc0="0" cc21="0" cc85="0" cc115="0" cc29="0" cc66="0" cc53="0" cc90="0" cc96="0" cc37="0" cc46="0" cc25="0" cc109="0" cc52="0" cc110="0" cc75="0" cc57="0" cc92="0" cc93="0" cc125="0" cc18="0" cc122="0" cc19="0" cc32="0" cc103="0" cc86="0" cc121="0" cc6="0" cc56="0" cc94="0" cc70="0" cc64="0" cc127="0" cc59="0" cc63="0" cc9="0" cc82="0" cc78="0" cc114="0" cc104="0" cc36="0" cc30="0" cc12="0" cc10="0" cc84="0" cc76="0" cc88="0" cc20="0" cc16="0" cc101="0" cc27="0" cc8="0" cc5="0" cc81="0" cc24="0" cc99="0" cc60="0" cc102="0" cc106="0" cc26="0" cc61="0" cc39="0" cc33="0" cc38="0" cc45="0" cc100="0" cc112="0" cc126="0" cc67="0" cc50="0" cc42="0" cc113="0" cc41="0" cc87="0" cc107="0" cc2="0" cc79="0" cc123="0" cc40="0" cc71="0" cc97="0" cc83="0" cc118="0" cc62="0" cc117="0" cc72="0" cc31="0" cc54="0" cc91="0" cc89="0" cc47="0" cc51="0"/>
          <instrument name="sf2player">
            <sf2player bank="0" reverbDamping="0" chorusNum="3" gain="1" chorusOn="0" chorusLevel="2" chorusSpeed="0.3" patch="1" reverbRoomSize="0.2" reverbLevel="0.9" reverbWidth="0.5" chorusDepth="8" src="usersoundfont:FluidR3 GM.sf2" reverbOn="0">
              <key/>
            </sf2player>
          </instrument>
          <eldata fcut="14000" ftype="0" fres="0.5" fwet="0">
            <elvol sustain="0.5" lspd_denominator="4" dec="0.5" pdel="0" rel="0.1" userwavefile="" latt="0" lspd_numerator="4" att="0" amt="0" ctlenvamt="0" lspd="0.1" lshp="0" x100="0" lpdel="0" hold="0.5" lspd_syncmode="0" lamt="0"/>
            <elcut sustain="0.5" lspd_denominator="4" dec="0.5" pdel="0" rel="0.1" userwavefile="" latt="0" lspd_numerator="4" att="0" amt="0" ctlenvamt="0" lspd="0.1" lshp="0" x100="0" lpdel="0" hold="0.5" lspd_syncmode="0" lamt="0"/>
            <elres sustain="0.5" lspd_denominator="4" dec="0.5" pdel="0" rel="0.1" userwavefile="" latt="0" lspd_numerator="4" att="0" amt="0" ctlenvamt="0" lspd="0.1" lshp="0" x100="0" lpdel="0" hold="0.5" lspd_syncmode="0" lamt="0"/>
          </eldata>
          <chordcreator chord-enabled="0" chord="0" chordrange="1"/>
          <arpeggiator arpmode="0" arpskip="0" arprange="1" arpmiss="0" arptime_numerator="4" arptime="200" arptime_denominator="4" arpdir="0" arprepeats="1" arp-enabled="0" arpcycle="0" arpgate="100" arp="0" arptime_syncmode="0"/>
          <midiport inputcontroller="0" fixedinputvelocity="-1" fixedoutputvelocity="-1" outputcontroller="0" outputprogram="1" writable="0" fixedoutputnote="-1" outputchannel="1" basevelocity="63" inputchannel="0" inports="" readable="1"/>
          <fxchain numofeffects="0" enabled="0"/>
        </instrumenttrack>
        <midiclip type="1" steps="16" pos="1536" name="" muted="0">
          <note key="31" pan="0" pos="0" vol="100" len="36"/>
          <note key="31" pan="0" pos="36" vol="100" len="12"/>
          <note key="27" pan="0" pos="72" vol="100" len="48"/>
          <note key="27" pan="0" pos="120" vol="100" len="12"/>
          <note key="27" pan="0" pos="144" vol="100" len="24"/>
          <note key="27" pan="0" pos="168" vol="100" len="12"/>
          <note key="29" pan="0" pos="192" vol="100" len="36"/>
          <note key="29" pan="0" pos="228" vol="100" len="12"/>
          <note key="31" pan="0" pos="264" vol="100" len="48"/>
          <note key="31" pan="0" pos="312" vol="100" len="12"/>
          <note key="31" pan="0" pos="336" vol="100" len="24"/>
          <note key="31" pan="0" pos="360" vol="100" len="12"/>
          <note key="34" pan="0" pos="384" vol="100" len="36"/>
          <note key="31" pan="0" pos="420" vol="100" len="12"/>
          <note key="36" pan="0" pos="456" vol="100" len="48"/>
          <note key="24" pan="0" pos="504" vol="100" len="12"/>
          <note key="24" pan="0" pos="528" vol="100" len="12"/>
          <note key="24" pan="0" pos="552" vol="100" len="12"/>
          <note key="36" pan="0" pos="576" vol="100" len="12"/>
          <note key="38" pan="0" pos="600" vol="100" len="12"/>
          <note key="36" pan="0" pos="624" vol="100" len="12"/>
          <note key="34" pan="0" pos="648" vol="100" len="48"/>
          <note key="31" pan="0" pos="696" vol="100" len="12"/>
          <note key="29" pan="0" pos="720" vol="100" len="12"/>
          <note key="26" pan="0" pos="744" vol="100" len="12"/>
        </midiclip>
        <midiclip type="1" steps="16" pos="2304" name="" muted="0">
          <note key="31" pan="0" pos="0" vol="100" len="36"/>
          <note key="31" pan="0" pos="36" vol="100" len="12"/>
          <note key="27" pan="0" pos="72" vol="100" len="48"/>
          <note key="27" pan="0" pos="120" vol="100" len="12"/>
          <note key="27" pan="0" pos="144" vol="100" len="24"/>
          <note key="27" pan="0" pos="168" vol="100" len="12"/>
          <note key="29" pan="0" pos="192" vol="100" len="36"/>
          <note key="29" pan="0" pos="228" vol="100" len="12"/>
          <note key="30" pan="0" pos="264" vol="100" len="48"/>
          <note key="30" pan="0" pos="312" vol="100" len="12"/>
          <note key="33" pan="0" pos="336" vol="100" len="24"/>
          <note key="33" pan="0" pos="360" vol="100" len="12"/>
          <note key="31" pan="0" pos="384" vol="100" len="36"/>
          <note key="31" pan="0" pos="420" vol="100" len="12"/>
          <note key="43" pan="0" pos="456" vol="100" len="24"/>
          <note key="26" pan="0" pos="480" vol="100" len="12"/>
          <note key="26" pan="0" pos="504" vol="100" len="12"/>
          <note key="29" pan="0" pos="528" vol="100" len="12"/>
          <note key="30" pan="0" pos="552" vol="100" len="12"/>
          <note key="31" pan="0" pos="576" vol="100" len="36"/>
          <note key="31" pan="0" pos="612" vol="100" len="12"/>
          <note key="43" pan="0" pos="648" vol="100" len="24"/>
          <note key="26" pan="0" pos="672" vol="100" len="12"/>
          <note key="26" pan="0" pos="696" vol="100" len="12"/>
          <note key="29" pan="0" pos="720" vol="100" len="12"/>
          <note key="30" pan="0" pos="744" vol="100" len="12"/>
        </midiclip>
        <midiclip type="1" steps="16" pos="3072" name="" muted="0">
          <note key="31" pan="0" pos="0" vol="100" len="36"/>
          <note key="31" pan="0" pos="36" vol="100" len="12"/>
          <note key="27" pan="0" pos="72" vol="100" len="48"/>
          <note key="27" pan="0" pos="120" vol="100" len="12"/>
          <note key="27" pan="0" pos="144" vol="100" len="24"/>
          <note key="27" pan="0" pos="168" vol="100" len="12"/>
          <note key="29" pan="0" pos="192" vol="100" len="36"/>
          <note key="29" pan="0" pos="228" vol="100" len="12"/>
          <note key="26" pan="0" pos="264" vol="100" len="48"/>
          <note key="26" pan="0" pos="312" vol="100" len="12"/>
          <note key="33" pan="0" pos="336" vol="100" len="24"/>
          <note key="33" pan="0" pos="360" vol="100" len="12"/>
          <note key="31" pan="0" pos="384" vol="100" len="36"/>
          <note key="31" pan="0" pos="420" vol="100" len="12"/>
          <note key="31" pan="0" pos="456" vol="100" len="48"/>
          <note key="31" pan="0" pos="504" vol="100" len="12"/>
          <note key="31" pan="0" pos="528" vol="100" len="12"/>
          <note key="31" pan="0" pos="552" vol="100" len="12"/>
          <note key="34" pan="0" pos="576" vol="100" len="12"/>
          <note key="36" pan="0" pos="600" vol="100" len="12"/>
          <note key="38" pan="0" pos="624" vol="100" len="12"/>
          <note key="36" pan="0" pos="648" vol="100" len="12"/>
          <note key="34" pan="0" pos="672" vol="100" len="48"/>
          <note key="31" pan="0" pos="720" vol="100" len="12"/>
          <note key="26" pan="0" pos="744" vol="100" len="12"/>
          <note key="29" pan="0" pos="768" vol="100" len="36"/>
          <note key="29" pan="0" pos="804" vol="100" len="12"/>
          <note key="29" pan="0" pos="840" vol="100" len="48"/>
          <note key="29" pan="0" pos="888" vol="100" len="12"/>
          <note key="29" pan="0" pos="912" vol="100" len="12"/>
          <note key="29" pan="0" pos="936" vol="100" len="12"/>
          <note key="38" pan="0" pos="960" vol="100" len="12"/>
          <note key="39" pan="0" pos="984" vol="100" len="12"/>
          <note key="41" pan="0" pos="1008" vol="100" len="12"/>
          <note key="39" pan="0" pos="1032" vol="100" len="12"/>
          <note key="36" pan="0" pos="1056" vol="100" len="48"/>
          <note key="34" pan="0" pos="1104" vol="100" len="12"/>
          <note key="33" pan="0" pos="1128" vol="100" len="12"/>
          <note key="31" pan="0" pos="1152" vol="100" len="36"/>
          <note key="31" pan="0" pos="1188" vol="100" len="12"/>
          <note key="31" pan="0" pos="1224" vol="100" len="48"/>
          <note key="31" pan="0" pos="1272" vol="100" len="12"/>
          <note key="31" pan="0" pos="1296" vol="100" len="12"/>
          <note key="31" pan="0" pos="1320" vol="100" len="12"/>
          <note key="34" pan="0" pos="1344" vol="100" len="12"/>
          <note key="36" pan="0" pos="1368" vol="100" len="12"/>
          <note key="38" pan="0" pos="1392" vol="100" len="12"/>
          <note key="36" pan="0" pos="1416" vol="100" len="12"/>
          <note key="34" pan="0" pos="1440" vol="100" len="48"/>
          <note key="31" pan="0" pos="1488" vol="100" len="12"/>
          <note key="26" pan="0" pos="1512" vol="100" len="12"/>
          <note key="30" pan="0" pos="1536" vol="100" len="36"/>
          <note key="30" pan="0" pos="1572" vol="100" len="12"/>
          <note key="30" pan="0" pos="1608" vol="100" len="48"/>
          <note key="30" pan="0" pos="1656" vol="100" len="12"/>
          <note key="30" pan="0" pos="1680" vol="100" len="12"/>
          <note key="30" pan="0" pos="1704" vol="100" len="12"/>
          <note key="33" pan="0" pos="1728" vol="100" len="12"/>
          <note key="31" pan="0" pos="1752" vol="100" len="12"/>
          <note key="30" pan="0" pos="1776" vol="100" len="12"/>
          <note key="27" pan="0" pos="1800" vol="100" len="12"/>
          <note key="26" pan="0" pos="1824" vol="100" len="96"/>
        </midiclip>
        <midiclip type="1" steps="16" pos="768" name="" muted="0">
          <note key="34" pan="0" pos="384" vol="100" len="36"/>
          <note key="31" pan="0" pos="420" vol="100" len="12"/>
          <note key="36" pan="0" pos="456" vol="100" len="48"/>
          <note key="24" pan="0" pos="504" vol="100" len="12"/>
          <note key="24" pan="0" pos="528" vol="100" len="12"/>
          <note key="24" pan="0" pos="552" vol="100" len="12"/>
          <note key="24" pan="0" pos="576" vol="100" len="12"/>
          <note key="24" pan="0" pos="600" vol="100" len="12"/>
          <note key="24" pan="0" pos="624" vol="100" len="12"/>
          <note key="24" pan="0" pos="648" vol="100" len="48"/>
          <note key="24" pan="0" pos="696" vol="100" len="12"/>
          <note key="24" pan="0" pos="720" vol="100" len="12"/>
          <note key="24" pan="0" pos="744" vol="100" len="12"/>
        </midiclip>
        <midiclip type="1" steps="16" pos="4992" name="" muted="0">
          <note key="43" pan="0" pos="0" vol="100" len="48"/>
          <note key="38" pan="0" pos="48" vol="100" len="12"/>
          <note key="41" pan="0" pos="84" vol="100" len="12"/>
          <note key="43" pan="0" pos="120" vol="100" len="48"/>
          <note key="41" pan="0" pos="168" vol="100" len="12"/>
          <note key="41" pan="0" pos="192" vol="100" len="48"/>
          <note key="36" pan="0" pos="240" vol="100" len="12"/>
          <note key="39" pan="0" pos="276" vol="100" len="12"/>
          <note key="41" pan="0" pos="312" vol="100" len="48"/>
          <note key="39" pan="0" pos="360" vol="100" len="12"/>
          <note key="39" pan="0" pos="384" vol="100" len="48"/>
          <note key="34" pan="0" pos="432" vol="100" len="12"/>
          <note key="38" pan="0" pos="468" vol="100" len="12"/>
          <note key="39" pan="0" pos="504" vol="100" len="48"/>
          <note key="38" pan="0" pos="552" vol="100" len="12"/>
          <note key="38" pan="0" pos="576" vol="100" len="48"/>
          <note key="33" pan="0" pos="624" vol="100" len="12"/>
          <note key="45" pan="0" pos="660" vol="100" len="12"/>
          <note key="42" pan="0" pos="672" vol="100" len="48"/>
          <note key="38" pan="0" pos="720" vol="100" len="12"/>
          <note key="41" pan="0" pos="756" vol="100" len="12"/>
          <note key="43" pan="0" pos="768" vol="100" len="48"/>
          <note key="38" pan="0" pos="816" vol="100" len="12"/>
          <note key="41" pan="0" pos="852" vol="100" len="12"/>
          <note key="43" pan="0" pos="888" vol="100" len="48"/>
          <note key="41" pan="0" pos="936" vol="100" len="12"/>
          <note key="41" pan="0" pos="960" vol="100" len="48"/>
          <note key="36" pan="0" pos="1008" vol="100" len="12"/>
          <note key="39" pan="0" pos="1044" vol="100" len="12"/>
          <note key="41" pan="0" pos="1080" vol="100" len="48"/>
          <note key="39" pan="0" pos="1128" vol="100" len="12"/>
          <note key="39" pan="0" pos="1152" vol="100" len="48"/>
          <note key="34" pan="0" pos="1200" vol="100" len="12"/>
          <note key="38" pan="0" pos="1236" vol="100" len="12"/>
          <note key="39" pan="0" pos="1272" vol="100" len="48"/>
          <note key="38" pan="0" pos="1320" vol="100" len="12"/>
          <note key="42" pan="0" pos="1344" vol="100" len="192"/>
        </midiclip>
        <midiclip type="1" steps="16" pos="7104" name="" muted="0">
          <note key="38" pan="0" pos="0" vol="100" len="24"/>
          <note key="33" pan="0" pos="24" vol="100" len="24"/>
          <note key="38" pan="0" pos="48" vol="100" len="24"/>
          <note key="43" pan="0" pos="72" vol="100" len="24"/>
          <note key="31" pan="0" pos="96" vol="100" len="24"/>
          <note key="40" pan="0" pos="120" vol="100" len="24"/>
          <note key="38" pan="0" pos="144" vol="100" len="24"/>
          <note key="35" pan="0" pos="168" vol="100" len="24"/>
          <note key="47" pan="0" pos="192" vol="100" len="24"/>
          <note key="31" pan="0" pos="216" vol="100" len="24"/>
          <note key="35" pan="0" pos="240" vol="100" len="24"/>
          <note key="41" pan="0" pos="264" vol="100" len="24"/>
          <note key="29" pan="0" pos="288" vol="100" len="24"/>
          <note key="40" pan="0" pos="312" vol="100" len="24"/>
          <note key="38" pan="0" pos="336" vol="100" len="24"/>
          <note key="36" pan="0" pos="360" vol="100" len="24"/>
          <note key="38" pan="0" pos="384" vol="100" len="24"/>
          <note key="33" pan="0" pos="408" vol="100" len="24"/>
          <note key="38" pan="0" pos="432" vol="100" len="24"/>
          <note key="43" pan="0" pos="456" vol="100" len="24"/>
          <note key="31" pan="0" pos="480" vol="100" len="24"/>
          <note key="38" pan="0" pos="504" vol="100" len="24"/>
          <note key="35" pan="0" pos="528" vol="100" len="24"/>
          <note key="47" pan="0" pos="552" vol="100" len="24"/>
          <note key="35" pan="0" pos="576" vol="100" len="24"/>
          <note key="45" pan="0" pos="600" vol="100" len="24"/>
          <note key="43" pan="0" pos="624" vol="100" len="24"/>
          <note key="45" pan="0" pos="648" vol="100" len="24"/>
          <note key="33" pan="0" pos="672" vol="100" len="24"/>
          <note key="43" pan="0" pos="696" vol="100" len="24"/>
          <note key="41" pan="0" pos="720" vol="100" len="24"/>
          <note key="40" pan="0" pos="744" vol="100" len="24"/>
          <note key="38" pan="0" pos="768" vol="100" len="24"/>
          <note key="33" pan="0" pos="792" vol="100" len="24"/>
          <note key="38" pan="0" pos="816" vol="100" len="24"/>
          <note key="43" pan="0" pos="840" vol="100" len="24"/>
          <note key="31" pan="0" pos="864" vol="100" len="24"/>
          <note key="40" pan="0" pos="888" vol="100" len="24"/>
          <note key="38" pan="0" pos="912" vol="100" len="24"/>
          <note key="36" pan="0" pos="936" vol="100" len="24"/>
          <note key="48" pan="0" pos="960" vol="100" len="24"/>
          <note key="31" pan="0" pos="984" vol="100" len="24"/>
          <note key="36" pan="0" pos="1008" vol="100" len="24"/>
          <note key="40" pan="0" pos="1032" vol="100" len="24"/>
          <note key="52" pan="0" pos="1056" vol="100" len="24"/>
          <note key="39" pan="0" pos="1104" vol="100" len="24"/>
          <note key="51" pan="0" pos="1128" vol="100" len="24"/>
          <note key="45" pan="0" pos="1152" vol="100" len="24"/>
          <note key="38" pan="0" pos="1176" vol="100" len="24"/>
          <note key="45" pan="0" pos="1200" vol="100" len="24"/>
          <note key="43" pan="0" pos="1224" vol="100" len="24"/>
          <note key="31" pan="0" pos="1248" vol="100" len="24"/>
          <note key="38" pan="0" pos="1272" vol="100" len="24"/>
          <note key="35" pan="0" pos="1296" vol="100" len="24"/>
          <note key="43" pan="0" pos="1320" vol="100" len="24"/>
          <note key="31" pan="0" pos="1344" vol="100" len="24"/>
          <note key="41" pan="0" pos="1368" vol="100" len="24"/>
          <note key="40" pan="0" pos="1392" vol="100" len="24"/>
          <note key="38" pan="0" pos="1416" vol="100" len="24"/>
          <note key="50" pan="0" pos="1440" vol="100" len="24"/>
          <note key="36" pan="0" pos="1464" vol="100" len="24"/>
          <note key="38" pan="0" pos="1488" vol="100" len="24"/>
          <note key="45" pan="0" pos="1512" vol="100" len="24"/>
          <note key="53" pan="0" pos="1536" vol="100" len="24"/>
          <note key="48" pan="0" pos="1560" vol="100" len="24"/>
          <note key="53" pan="0" pos="1584" vol="100" len="24"/>
          <note key="49" pan="0" pos="1608" vol="100" len="24"/>
          <note key="37" pan="0" pos="1632" vol="100" len="24"/>
          <note key="41" pan="0" pos="1656" vol="100" len="24"/>
          <note key="44" pan="0" pos="1680" vol="100" len="24"/>
          <note key="49" pan="0" pos="1704" vol="100" len="24"/>
          <note key="51" pan="0" pos="1728" vol="100" len="24"/>
          <note key="46" pan="0" pos="1752" vol="100" len="24"/>
          <note key="51" pan="0" pos="1776" vol="100" len="24"/>
          <note key="48" pan="0" pos="1800" vol="100" len="24"/>
          <note key="36" pan="0" pos="1824" vol="100" len="24"/>
          <note key="43" pan="0" pos="1848" vol="100" len="24"/>
          <note key="46" pan="0" pos="1872" vol="100" len="24"/>
          <note key="45" pan="0" pos="1896" vol="100" len="24"/>
          <note key="44" pan="0" pos="1920" vol="100" len="24"/>
          <note key="41" pan="0" pos="1944" vol="100" len="24"/>
          <note key="48" pan="0" pos="1968" vol="100" len="24"/>
          <note key="34" pan="0" pos="1992" vol="100" len="24"/>
          <note key="46" pan="0" pos="2016" vol="100" len="24"/>
          <note key="41" pan="0" pos="2040" vol="100" len="24"/>
          <note key="53" pan="0" pos="2064" vol="100" len="24"/>
          <note key="52" pan="0" pos="2088" vol="100" len="24"/>
          <note key="38" pan="0" pos="2112" vol="100" len="24"/>
          <note key="34" pan="0" pos="2136" vol="100" len="24"/>
          <note key="46" pan="0" pos="2160" vol="100" len="24"/>
          <note key="44" pan="0" pos="2184" vol="100" len="24"/>
          <note key="32" pan="0" pos="2208" vol="100" len="24"/>
          <note key="43" pan="0" pos="2232" vol="100" len="24"/>
          <note key="42" pan="0" pos="2256" vol="100" len="12"/>
          <note key="41" pan="0" pos="2280" vol="100" len="24"/>
          <note key="53" pan="0" pos="2304" vol="100" len="24"/>
          <note key="48" pan="0" pos="2328" vol="100" len="24"/>
          <note key="53" pan="0" pos="2352" vol="100" len="24"/>
          <note key="49" pan="0" pos="2376" vol="100" len="24"/>
          <note key="37" pan="0" pos="2400" vol="100" len="24"/>
          <note key="46" pan="0" pos="2424" vol="100" len="24"/>
          <note key="44" pan="0" pos="2448" vol="100" len="24"/>
          <note key="49" pan="0" pos="2472" vol="100" len="24"/>
          <note key="51" pan="0" pos="2496" vol="100" len="24"/>
          <note key="46" pan="0" pos="2520" vol="100" len="24"/>
          <note key="51" pan="0" pos="2544" vol="100" len="24"/>
          <note key="52" pan="0" pos="2568" vol="100" len="24"/>
          <note key="40" pan="0" pos="2592" vol="100" len="24"/>
          <note key="36" pan="0" pos="2616" vol="100" len="24"/>
          <note key="43" pan="0" pos="2640" vol="100" len="24"/>
          <note key="42" pan="0" pos="2664" vol="100" len="24"/>
          <note key="41" pan="0" pos="2688" vol="100" len="24"/>
          <note key="36" pan="0" pos="2712" vol="100" len="24"/>
          <note key="39" pan="0" pos="2736" vol="100" len="12"/>
          <note key="38" pan="0" pos="2760" vol="100" len="24"/>
          <note key="50" pan="0" pos="2784" vol="100" len="24"/>
          <note key="46" pan="0" pos="2808" vol="100" len="24"/>
          <note key="34" pan="0" pos="2832" vol="100" len="24"/>
          <note key="36" pan="0" pos="2856" vol="100" len="24"/>
          <note key="38" pan="0" pos="2880" vol="100" len="24"/>
          <note key="34" pan="0" pos="2904" vol="100" len="24"/>
          <note key="46" pan="0" pos="2928" vol="100" len="12"/>
          <note key="44" pan="0" pos="2952" vol="100" len="24"/>
          <note key="32" pan="0" pos="2976" vol="100" len="24"/>
          <note key="41" pan="0" pos="3000" vol="100" len="24"/>
          <note key="53" pan="0" pos="3024" vol="100" len="24"/>
          <note key="39" pan="0" pos="3048" vol="100" len="24"/>
          <note key="41" pan="0" pos="3072" vol="100" len="384"/>
          <note key="46" pan="0" pos="3456" vol="100" len="384"/>
          <note key="43" pan="0" pos="3840" vol="100" len="384"/>
          <note key="41" pan="0" pos="4224" vol="100" len="384"/>
        </midiclip>
        <midiclip type="1" steps="16" pos="6912" name="" muted="0">
          <note key="62" pan="0" pos="144" vol="100" len="24"/>
          <note key="64" pan="0" pos="168" vol="100" len="24"/>
          <note key="65" pan="0" pos="192" vol="100" len="72"/>
          <note key="62" pan="0" pos="192" vol="100" len="72"/>
          <note key="57" pan="0" pos="192" vol="100" len="72"/>
          <note key="69" pan="0" pos="240" vol="100" len="24"/>
          <note key="67" pan="0" pos="264" vol="100" len="96"/>
          <note key="62" pan="0" pos="264" vol="100" len="48"/>
          <note key="59" pan="0" pos="264" vol="100" len="96"/>
          <note key="62" pan="0" pos="312" vol="100" len="48"/>
          <note key="59" pan="0" pos="360" vol="100" len="96"/>
          <note key="55" pan="0" pos="360" vol="100" len="48"/>
          <note key="50" pan="0" pos="360" vol="100" len="96"/>
          <note key="55" pan="0" pos="408" vol="100" len="48"/>
          <note key="67" pan="0" pos="432" vol="100" len="24"/>
          <note key="65" pan="0" pos="456" vol="100" len="120"/>
          <note key="62" pan="0" pos="456" vol="100" len="72"/>
          <note key="57" pan="0" pos="456" vol="100" len="120"/>
          <note key="62" pan="0" pos="528" vol="100" len="48"/>
          <note key="64" pan="0" pos="552" vol="100" len="24"/>
          <note key="65" pan="0" pos="576" vol="100" len="72"/>
          <note key="62" pan="0" pos="576" vol="100" len="72"/>
          <note key="60" pan="0" pos="576" vol="100" len="72"/>
          <note key="57" pan="0" pos="576" vol="100" len="72"/>
          <note key="69" pan="0" pos="624" vol="100" len="24"/>
          <note key="67" pan="0" pos="648" vol="100" len="96"/>
          <note key="62" pan="0" pos="648" vol="100" len="48"/>
          <note key="59" pan="0" pos="648" vol="100" len="96"/>
          <note key="62" pan="0" pos="696" vol="100" len="48"/>
          <note key="71" pan="0" pos="744" vol="100" len="72"/>
          <note key="67" pan="0" pos="744" vol="100" len="96"/>
          <note key="64" pan="0" pos="744" vol="100" len="96"/>
          <note key="62" pan="0" pos="744" vol="100" len="96"/>
          <note key="72" pan="0" pos="792" vol="100" len="48"/>
          <note key="71" pan="0" pos="816" vol="100" len="24"/>
          <note key="69" pan="0" pos="840" vol="100" len="72"/>
          <note key="65" pan="0" pos="840" vol="100" len="72"/>
          <note key="62" pan="0" pos="840" vol="100" len="72"/>
          <note key="69" pan="0" pos="912" vol="100" len="24"/>
          <note key="65" pan="0" pos="912" vol="100" len="24"/>
          <note key="62" pan="0" pos="912" vol="100" len="24"/>
          <note key="67" pan="0" pos="936" vol="100" len="24"/>
          <note key="64" pan="0" pos="936" vol="100" len="24"/>
          <note key="60" pan="0" pos="936" vol="100" len="24"/>
          <note key="65" pan="0" pos="960" vol="100" len="72"/>
          <note key="62" pan="0" pos="960" vol="100" len="72"/>
          <note key="57" pan="0" pos="960" vol="100" len="72"/>
          <note key="69" pan="0" pos="1008" vol="100" len="24"/>
          <note key="67" pan="0" pos="1032" vol="100" len="96"/>
          <note key="62" pan="0" pos="1032" vol="100" len="48"/>
          <note key="59" pan="0" pos="1032" vol="100" len="96"/>
          <note key="62" pan="0" pos="1080" vol="100" len="48"/>
          <note key="65" pan="0" pos="1128" vol="100" len="96"/>
          <note key="60" pan="0" pos="1128" vol="100" len="72"/>
          <note key="57" pan="0" pos="1128" vol="100" len="96"/>
          <note key="62" pan="0" pos="1176" vol="100" len="48"/>
          <note key="60" pan="0" pos="1200" vol="100" len="24"/>
          <note key="62" pan="0" pos="1224" vol="100" len="48"/>
          <note key="59" pan="0" pos="1224" vol="100" len="48"/>
          <note key="55" pan="0" pos="1224" vol="100" len="48"/>
          <note key="61" pan="0" pos="1296" vol="100" len="48"/>
          <note key="58" pan="0" pos="1296" vol="100" len="48"/>
          <note key="57" pan="0" pos="1296" vol="100" len="48"/>
          <note key="55" pan="0" pos="1296" vol="100" len="48"/>
          <note key="62" pan="0" pos="1344" vol="100" len="72"/>
          <note key="60" pan="0" pos="1344" vol="100" len="72"/>
          <note key="57" pan="0" pos="1344" vol="100" len="72"/>
          <note key="53" pan="0" pos="1344" vol="100" len="72"/>
          <note key="65" pan="0" pos="1392" vol="100" len="24"/>
          <note key="62" pan="0" pos="1416" vol="100" len="96"/>
          <note key="59" pan="0" pos="1416" vol="100" len="96"/>
          <note key="55" pan="0" pos="1416" vol="100" len="96"/>
          <note key="69" pan="0" pos="1464" vol="100" len="48"/>
          <note key="67" pan="0" pos="1512" vol="100" len="72"/>
          <note key="64" pan="0" pos="1512" vol="100" len="96"/>
          <note key="62" pan="0" pos="1512" vol="100" len="96"/>
          <note key="59" pan="0" pos="1512" vol="100" len="96"/>
          <note key="69" pan="0" pos="1560" vol="100" len="48"/>
          <note key="67" pan="0" pos="1584" vol="100" len="24"/>
          <note key="65" pan="0" pos="1608" vol="100" len="120"/>
          <note key="62" pan="0" pos="1608" vol="100" len="120"/>
          <note key="57" pan="0" pos="1608" vol="100" len="120"/>
          <note key="65" pan="0" pos="1728" vol="100" len="72"/>
          <note key="60" pan="0" pos="1728" vol="100" len="72"/>
          <note key="56" pan="0" pos="1728" vol="100" len="72"/>
          <note key="68" pan="0" pos="1800" vol="100" len="120"/>
          <note key="65" pan="0" pos="1800" vol="100" len="120"/>
          <note key="61" pan="0" pos="1800" vol="100" len="120"/>
          <note key="67" pan="0" pos="1920" vol="100" len="72"/>
          <note key="63" pan="0" pos="1920" vol="100" len="72"/>
          <note key="60" pan="0" pos="1920" vol="100" len="72"/>
          <note key="64" pan="0" pos="1992" vol="100" len="120"/>
          <note key="60" pan="0" pos="1992" vol="100" len="120"/>
          <note key="55" pan="0" pos="1992" vol="100" len="120"/>
          <note key="58" pan="0" pos="2064" vol="100" len="48"/>
          <note key="57" pan="0" pos="2088" vol="100" len="24"/>
          <note key="68" pan="0" pos="2112" vol="100" len="72"/>
          <note key="65" pan="0" pos="2112" vol="100" len="72"/>
          <note key="60" pan="0" pos="2112" vol="100" len="72"/>
          <note key="56" pan="0" pos="2112" vol="100" len="48"/>
          <note key="53" pan="0" pos="2136" vol="100" len="48"/>
          <note key="56" pan="0" pos="2160" vol="100" len="24"/>
          <note key="74" pan="0" pos="2184" vol="100" len="120"/>
          <note key="70" pan="0" pos="2184" vol="100" len="120"/>
          <note key="65" pan="0" pos="2184" vol="100" len="120"/>
          <note key="62" pan="0" pos="2184" vol="100" len="120"/>
          <note key="58" pan="0" pos="2232" vol="100" len="72"/>
          <note key="77" pan="0" pos="2304" vol="100" len="72"/>
          <note key="74" pan="0" pos="2304" vol="100" len="72"/>
          <note key="70" pan="0" pos="2304" vol="100" len="72"/>
          <note key="65" pan="0" pos="2304" vol="100" len="72"/>
          <note key="63" pan="0" pos="2328" vol="100" len="48"/>
          <note key="62" pan="0" pos="2352" vol="100" len="24"/>
          <note key="72" pan="0" pos="2376" vol="100" len="48"/>
          <note key="68" pan="0" pos="2376" vol="100" len="48"/>
          <note key="65" pan="0" pos="2376" vol="100" len="48"/>
          <note key="60" pan="0" pos="2376" vol="100" len="48"/>
          <note key="68" pan="0" pos="2424" vol="100" len="24"/>
          <note key="65" pan="0" pos="2424" vol="100" len="24"/>
          <note key="60" pan="0" pos="2424" vol="100" len="24"/>
          <note key="65" pan="0" pos="2448" vol="100" len="12"/>
          <note key="60" pan="0" pos="2448" vol="100" len="12"/>
          <note key="56" pan="0" pos="2448" vol="100" len="12"/>
          <note key="60" pan="0" pos="2472" vol="100" len="24"/>
          <note key="56" pan="0" pos="2472" vol="100" len="24"/>
          <note key="53" pan="0" pos="2472" vol="100" len="24"/>
          <note key="65" pan="0" pos="2496" vol="100" len="72"/>
          <note key="60" pan="0" pos="2496" vol="100" len="72"/>
          <note key="56" pan="0" pos="2496" vol="100" len="72"/>
          <note key="68" pan="0" pos="2568" vol="100" len="120"/>
          <note key="65" pan="0" pos="2568" vol="100" len="120"/>
          <note key="61" pan="0" pos="2568" vol="100" len="120"/>
          <note key="70" pan="0" pos="2688" vol="100" len="72"/>
          <note key="67" pan="0" pos="2688" vol="100" len="72"/>
          <note key="63" pan="0" pos="2688" vol="100" len="72"/>
          <note key="72" pan="0" pos="2760" vol="100" len="72"/>
          <note key="68" pan="0" pos="2760" vol="100" len="72"/>
          <note key="64" pan="0" pos="2760" vol="100" len="72"/>
          <note key="60" pan="0" pos="2760" vol="100" len="72"/>
          <note key="70" pan="0" pos="2832" vol="100" len="48"/>
          <note key="67" pan="0" pos="2832" vol="100" len="48"/>
          <note key="65" pan="0" pos="2832" vol="100" len="48"/>
          <note key="62" pan="0" pos="2832" vol="100" len="48"/>
          <note key="66" pan="0" pos="2856" vol="100" len="24"/>
          <note key="72" pan="0" pos="2880" vol="100" len="48"/>
          <note key="68" pan="0" pos="2880" vol="100" len="48"/>
          <note key="65" pan="0" pos="2880" vol="100" len="48"/>
          <note key="63" pan="0" pos="2880" vol="100" len="48"/>
          <note key="72" pan="0" pos="2928" vol="100" len="12"/>
          <note key="68" pan="0" pos="2928" vol="100" len="12"/>
          <note key="65" pan="0" pos="2928" vol="100" len="12"/>
          <note key="70" pan="0" pos="2952" vol="100" len="48"/>
          <note key="67" pan="0" pos="2952" vol="100" len="48"/>
          <note key="65" pan="0" pos="2952" vol="100" len="48"/>
          <note key="62" pan="0" pos="2952" vol="100" len="48"/>
          <note key="74" pan="0" pos="3000" vol="100" len="72"/>
          <note key="70" pan="0" pos="3000" vol="100" len="72"/>
          <note key="68" pan="0" pos="3000" vol="100" len="72"/>
          <note key="65" pan="0" pos="3000" vol="100" len="72"/>
          <note key="74" pan="0" pos="3072" vol="100" len="24"/>
          <note key="70" pan="0" pos="3072" vol="100" len="24"/>
          <note key="68" pan="0" pos="3072" vol="100" len="60"/>
          <note key="65" pan="0" pos="3072" vol="100" len="60"/>
          <note key="74" pan="0" pos="3096" vol="100" len="12"/>
          <note key="70" pan="0" pos="3096" vol="100" len="12"/>
          <note key="74" pan="0" pos="3108" vol="100" len="12"/>
          <note key="70" pan="0" pos="3108" vol="100" len="12"/>
          <note key="74" pan="0" pos="3120" vol="100" len="12"/>
          <note key="70" pan="0" pos="3120" vol="100" len="12"/>
          <note key="72" pan="0" pos="3144" vol="100" len="24"/>
          <note key="68" pan="0" pos="3144" vol="100" len="24"/>
          <note key="65" pan="0" pos="3144" vol="100" len="72"/>
          <note key="72" pan="0" pos="3168" vol="100" len="12"/>
          <note key="68" pan="0" pos="3168" vol="100" len="12"/>
          <note key="72" pan="0" pos="3180" vol="100" len="12"/>
          <note key="68" pan="0" pos="3180" vol="100" len="12"/>
          <note key="72" pan="0" pos="3192" vol="100" len="24"/>
          <note key="68" pan="0" pos="3192" vol="100" len="24"/>
          <note key="68" pan="0" pos="3216" vol="100" len="24"/>
          <note key="65" pan="0" pos="3216" vol="100" len="24"/>
          <note key="60" pan="0" pos="3216" vol="100" len="24"/>
          <note key="68" pan="0" pos="3240" vol="100" len="12"/>
          <note key="65" pan="0" pos="3240" vol="100" len="12"/>
          <note key="60" pan="0" pos="3240" vol="100" len="12"/>
          <note key="68" pan="0" pos="3252" vol="100" len="12"/>
          <note key="65" pan="0" pos="3252" vol="100" len="12"/>
          <note key="60" pan="0" pos="3252" vol="100" len="12"/>
          <note key="77" pan="0" pos="3264" vol="100" len="384"/>
          <note key="72" pan="0" pos="3264" vol="100" len="384"/>
          <note key="68" pan="0" pos="3264" vol="100" len="384"/>
          <note key="73" pan="0" pos="3648" vol="100" len="384"/>
          <note key="70" pan="0" pos="3648" vol="100" len="192"/>
          <note key="65" pan="0" pos="3648" vol="100" len="288"/>
          <note key="68" pan="0" pos="3840" vol="100" len="96"/>
          <note key="70" pan="0" pos="3936" vol="100" len="96"/>
          <note key="63" pan="0" pos="3936" vol="100" len="48"/>
          <note key="67" pan="0" pos="3984" vol="100" len="48"/>
          <note key="72" pan="0" pos="4032" vol="100" len="288"/>
          <note key="67" pan="0" pos="4032" vol="100" len="384"/>
          <note key="64" pan="0" pos="4032" vol="100" len="288"/>
          <note key="74" pan="0" pos="4320" vol="100" len="48"/>
          <note key="65" pan="0" pos="4320" vol="100" len="48"/>
          <note key="72" pan="0" pos="4368" vol="100" len="48"/>
          <note key="64" pan="0" pos="4368" vol="100" len="48"/>
          <note key="69" pan="0" pos="4416" vol="100" len="384"/>
          <note key="65" pan="0" pos="4416" vol="100" len="384"/>
          <note key="60" pan="0" pos="4416" vol="100" len="384"/>
        </midiclip>
      </track>
      <track type="0" name="Piano>Texture" solo="0" mutedBeforeSolo="1" muted="1">
        <instrumenttrack usemasterpitch="1" mixch="5" firstkey="0" keymap="0" lastkey="127" pan="0" enablecc="0" pitch="0" pitchrange="1" vol="100" basenote="69" scale="0" enabled="0" range_import="1">
          <midicontrollers cc43="0" cc74="0" cc111="0" cc119="0" cc124="0" cc108="0" cc7="0" cc49="0" cc95="0" cc116="0" cc35="0" cc98="0" cc105="0" cc14="0" cc48="0" cc65="0" cc11="0" cc17="0" cc34="0" cc23="0" cc15="0" cc22="0" cc55="0" cc68="0" cc4="0" cc28="0" cc13="0" cc44="0" cc69="0" cc3="0" cc77="0" cc73="0" cc1="0" cc80="0" cc58="0" cc120="0" cc0="0" cc21="0" cc85="0" cc115="0" cc29="0" cc66="0" cc53="0" cc90="0" cc96="0" cc37="0" cc46="0" cc25="0" cc109="0" cc52="0" cc110="0" cc75="0" cc57="0" cc92="0" cc93="0" cc125="0" cc18="0" cc122="0" cc19="0" cc32="0" cc103="0" cc86="0" cc121="0" cc6="0" cc56="0" cc94="0" cc70="0" cc64="0" cc127="0" cc59="0" cc63="0" cc9="0" cc82="0" cc78="0" cc114="0" cc104="0" cc36="0" cc30="0" cc12="0" cc10="0" cc84="0" cc76="0" cc88="0" cc20="0" cc16="0" cc101="0" cc27="0" cc8="0" cc5="0" cc81="0" cc24="0" cc99="0" cc60="0" cc102="0" cc106="0" cc26="0" cc61="0" cc39="0" cc33="0" cc38="0" cc45="0" cc100="0" cc112="0" cc126="0" cc67="0" cc50="0" cc42="0" cc113="0" cc41="0" cc87="0" cc107="0" cc2="0" cc79="0" cc123="0" cc40="0" cc71="0" cc97="0" cc83="0" cc118="0" cc62="0" cc117="0" cc72="0" cc31="0" cc54="0" cc91="0" cc89="0" cc47="0" cc51="0"/>
          <instrument name="sf2player">
            <sf2player bank="0" reverbDamping="0" chorusNum="3" gain="1" chorusOn="0" chorusLevel="2" chorusSpeed="0.3" patch="0" reverbRoomSize="0.2" reverbLevel="0.9" reverbWidth="0.5" chorusDepth="8" src="usersoundfont:FluidR3 GM.sf2" reverbOn="0">
              <key/>
            </sf2player>
          </instrument>
          <eldata fcut="14000" ftype="0" fres="0.5" fwet="0">
            <elvol sustain="0.5" lspd_denominator="4" dec="0.5" pdel="0" rel="0.1" userwavefile="" latt="0" lspd_numerator="4" att="0" amt="0" ctlenvamt="0" lspd="0.1" lshp="0" x100="0" lpdel="0" hold="0.5" lspd_syncmode="0" lamt="0"/>
            <elcut sustain="0.5" lspd_denominator="4" dec="0.5" pdel="0" rel="0.1" userwavefile="" latt="0" lspd_numerator="4" att="0" amt="0" ctlenvamt="0" lspd="0.1" lshp="0" x100="0" lpdel="0" hold="0.5" lspd_syncmode="0" lamt="0"/>
            <elres sustain="0.5" lspd_denominator="4" dec="0.5" pdel="0" rel="0.1" userwavefile="" latt="0" lspd_numerator="4" att="0" amt="0" ctlenvamt="0" lspd="0.1" lshp="0" x100="0" lpdel="0" hold="0.5" lspd_syncmode="0" lamt="0"/>
          </eldata>
          <chordcreator chord-enabled="0" chord="0" chordrange="1"/>
          <arpeggiator arpmode="0" arpskip="0" arprange="1" arpmiss="0" arptime_numerator="4" arptime="200" arptime_denominator="4" arpdir="0" arprepeats="1" arp-enabled="0" arpcycle="0" arpgate="100" arp="0" arptime_syncmode="0"/>
          <midiport inputcontroller="0" fixedinputvelocity="-1" fixedoutputvelocity="-1" outputcontroller="0" outputprogram="1" writable="0" fixedoutputnote="-1" outputchannel="1" basevelocity="63" inputchannel="0" inports="" readable="1"/>
          <fxchain numofeffects="0" enabled="0"/>
        </instrumenttrack>
        <midiclip type="1" steps="16" pos="1536" name="" muted="0">
          <note key="72" pan="0" pos="0" vol="100" len="48"/>
          <note key="69" pan="0" pos="0" vol="100" len="48"/>
          <note key="67" pan="0" pos="0" vol="100" len="48"/>
          <note key="65" pan="0" pos="0" vol="100" len="48"/>
          <note key="65" pan="0" pos="48" vol="100" len="24"/>
          <note key="70" pan="0" pos="72" vol="100" len="120"/>
          <note key="67" pan="0" pos="72" vol="100" len="120"/>
          <note key="65" pan="0" pos="72" vol="100" len="120"/>
          <note key="63" pan="0" pos="72" vol="100" len="120"/>
          <note key="72" pan="0" pos="192" vol="100" len="48"/>
          <note key="69" pan="0" pos="192" vol="100" len="48"/>
          <note key="67" pan="0" pos="192" vol="100" len="48"/>
          <note key="65" pan="0" pos="192" vol="100" len="48"/>
          <note key="65" pan="0" pos="240" vol="100" len="24"/>
          <note key="74" pan="0" pos="264" vol="100" len="120"/>
          <note key="70" pan="0" pos="264" vol="100" len="120"/>
          <note key="67" pan="0" pos="264" vol="100" len="120"/>
          <note key="65" pan="0" pos="264" vol="100" len="120"/>
          <note key="77" pan="0" pos="384" vol="100" len="48"/>
          <note key="74" pan="0" pos="384" vol="100" len="48"/>
          <note key="72" pan="0" pos="384" vol="100" len="48"/>
          <note key="70" pan="0" pos="384" vol="100" len="48"/>
          <note key="70" pan="0" pos="432" vol="100" len="24"/>
          <note key="76" pan="0" pos="456" vol="100" len="120"/>
          <note key="72" pan="0" pos="456" vol="100" len="120"/>
          <note key="70" pan="0" pos="456" vol="100" len="120"/>
          <note key="67" pan="0" pos="456" vol="100" len="120"/>
          <note key="72" pan="0" pos="576" vol="100" len="24"/>
          <note key="70" pan="0" pos="576" vol="100" len="72"/>
          <note key="67" pan="0" pos="576" vol="100" len="72"/>
          <note key="64" pan="0" pos="576" vol="100" len="72"/>
          <note key="74" pan="0" pos="600" vol="100" len="24"/>
          <note key="72" pan="0" pos="624" vol="100" len="24"/>
          <note key="70" pan="0" pos="648" vol="100" len="72"/>
          <note key="67" pan="0" pos="648" vol="100" len="120"/>
          <note key="64" pan="0" pos="648" vol="100" len="120"/>
          <note key="60" pan="0" pos="648" vol="100" len="120"/>
          <note key="72" pan="0" pos="696" vol="100" len="24"/>
          <note key="70" pan="0" pos="720" vol="100" len="24"/>
          <note key="69" pan="0" pos="744" vol="100" len="24"/>
        </midiclip>
        <midiclip type="1" steps="16" pos="2304" name="" muted="0">
          <note key="69" pan="0" pos="0" vol="100" len="48"/>
          <note key="65" pan="0" pos="0" vol="100" len="48"/>
          <note key="62" pan="0" pos="0" vol="100" len="48"/>
          <note key="58" pan="0" pos="0" vol="100" len="48"/>
          <note key="65" pan="0" pos="48" vol="100" len="24"/>
          <note key="72" pan="0" pos="72" vol="100" len="120"/>
          <note key="70" pan="0" pos="72" vol="100" len="120"/>
          <note key="67" pan="0" pos="72" vol="100" len="120"/>
          <note key="63" pan="0" pos="72" vol="100" len="120"/>
          <note key="74" pan="0" pos="192" vol="100" len="48"/>
          <note key="70" pan="0" pos="192" vol="100" len="48"/>
          <note key="67" pan="0" pos="192" vol="100" len="48"/>
          <note key="65" pan="0" pos="192" vol="100" len="48"/>
          <note key="65" pan="0" pos="240" vol="100" len="24"/>
          <note key="72" pan="0" pos="264" vol="100" len="72"/>
          <note key="69" pan="0" pos="264" vol="100" len="72"/>
          <note key="66" pan="0" pos="264" vol="100" len="72"/>
          <note key="62" pan="0" pos="264" vol="100" len="72"/>
          <note key="70" pan="0" pos="336" vol="100" len="48"/>
          <note key="67" pan="0" pos="336" vol="100" len="48"/>
          <note key="64" pan="0" pos="336" vol="100" len="48"/>
          <note key="62" pan="0" pos="336" vol="100" len="48"/>
          <note key="65" pan="0" pos="384" vol="100" len="36"/>
          <note key="62" pan="0" pos="384" vol="100" len="48"/>
          <note key="58" pan="0" pos="384" vol="100" len="120"/>
          <note key="55" pan="0" pos="384" vol="100" len="120"/>
          <note key="65" pan="0" pos="420" vol="100" len="36"/>
          <note key="62" pan="0" pos="432" vol="100" len="24"/>
          <note key="70" pan="0" pos="456" vol="100" len="48"/>
          <note key="67" pan="0" pos="456" vol="100" len="48"/>
          <note key="67" pan="0" pos="504" vol="100" len="48"/>
          <note key="62" pan="0" pos="504" vol="100" len="72"/>
          <note key="58" pan="0" pos="504" vol="100" len="72"/>
          <note key="55" pan="0" pos="504" vol="100" len="72"/>
          <note key="65" pan="0" pos="552" vol="100" len="24"/>
          <note key="65" pan="0" pos="576" vol="100" len="36"/>
          <note key="60" pan="0" pos="576" vol="100" len="48"/>
          <note key="58" pan="0" pos="576" vol="100" len="72"/>
          <note key="55" pan="0" pos="576" vol="100" len="72"/>
          <note key="65" pan="0" pos="612" vol="100" len="36"/>
          <note key="60" pan="0" pos="624" vol="100" len="24"/>
          <note key="67" pan="0" pos="648" vol="100" len="120"/>
          <note key="62" pan="0" pos="648" vol="100" len="120"/>
          <note key="58" pan="0" pos="648" vol="100" len="120"/>
          <note key="55" pan="0" pos="648" vol="100" len="120"/>
        </midiclip>
        <midiclip type="1" steps="16" pos="3072" name="" muted="0">
          <note key="72" pan="0" pos="0" vol="100" len="48"/>
          <note key="69" pan="0" pos="0" vol="100" len="48"/>
          <note key="67" pan="0" pos="0" vol="100" len="48"/>
          <note key="65" pan="0" pos="0" vol="100" len="48"/>
          <note key="65" pan="0" pos="48" vol="100" len="24"/>
          <note key="70" pan="0" pos="72" vol="100" len="120"/>
          <note key="67" pan="0" pos="72" vol="100" len="120"/>
          <note key="65" pan="0" pos="72" vol="100" len="120"/>
          <note key="63" pan="0" pos="72" vol="100" len="120"/>
          <note key="69" pan="0" pos="192" vol="100" len="48"/>
          <note key="67" pan="0" pos="192" vol="100" len="48"/>
          <note key="65" pan="0" pos="192" vol="100" len="48"/>
          <note key="62" pan="0" pos="192" vol="100" len="48"/>
          <note key="62" pan="0" pos="240" vol="100" len="24"/>
          <note key="67" pan="0" pos="264" vol="100" len="72"/>
          <note key="65" pan="0" pos="264" vol="100" len="72"/>
          <note key="62" pan="0" pos="264" vol="100" len="72"/>
          <note key="60" pan="0" pos="264" vol="100" len="72"/>
          <note key="66" pan="0" pos="336" vol="100" len="48"/>
          <note key="63" pan="0" pos="336" vol="100" len="48"/>
          <note key="60" pan="0" pos="336" vol="100" len="48"/>
          <note key="57" pan="0" pos="336" vol="100" len="48"/>
          <note key="62" pan="0" pos="384" vol="100" len="192"/>
          <note key="60" pan="0" pos="384" vol="100" len="192"/>
          <note key="58" pan="0" pos="384" vol="100" len="192"/>
          <note key="55" pan="0" pos="384" vol="100" len="192"/>
          <note key="67" pan="0" pos="576" vol="100" len="144"/>
          <note key="63" pan="0" pos="576" vol="100" len="192"/>
          <note key="60" pan="0" pos="576" vol="100" len="192"/>
          <note key="58" pan="0" pos="576" vol="100" len="192"/>
          <note key="65" pan="0" pos="720" vol="100" len="48"/>
          <note key="69" pan="0" pos="768" vol="100" len="96"/>
          <note key="65" pan="0" pos="768" vol="100" len="192"/>
          <note key="62" pan="0" pos="768" vol="100" len="192"/>
          <note key="60" pan="0" pos="768" vol="100" len="192"/>
          <note key="67" pan="0" pos="864" vol="100" len="72"/>
          <note key="69" pan="0" pos="936" vol="100" len="12"/>
          <note key="67" pan="0" pos="948" vol="100" len="12"/>
          <note key="66" pan="0" pos="960" vol="100" len="192"/>
          <note key="62" pan="0" pos="960" vol="100" len="192"/>
          <note key="60" pan="0" pos="960" vol="100" len="192"/>
          <note key="57" pan="0" pos="960" vol="100" len="192"/>
          <note key="70" pan="0" pos="1152" vol="100" len="144"/>
          <note key="67" pan="0" pos="1152" vol="100" len="144"/>
          <note key="65" pan="0" pos="1152" vol="100" len="192"/>
          <note key="62" pan="0" pos="1152" vol="100" len="192"/>
          <note key="67" pan="0" pos="1296" vol="100" len="48"/>
          <note key="70" pan="0" pos="1344" vol="100" len="144"/>
          <note key="67" pan="0" pos="1344" vol="100" len="192"/>
          <note key="65" pan="0" pos="1344" vol="100" len="192"/>
          <note key="63" pan="0" pos="1344" vol="100" len="192"/>
          <note key="72" pan="0" pos="1488" vol="100" len="24"/>
          <note key="70" pan="0" pos="1512" vol="100" len="24"/>
          <note key="72" pan="0" pos="1536" vol="100" len="144"/>
          <note key="69" pan="0" pos="1536" vol="100" len="192"/>
          <note key="66" pan="0" pos="1536" vol="100" len="192"/>
          <note key="62" pan="0" pos="1536" vol="100" len="192"/>
          <note key="70" pan="0" pos="1680" vol="100" len="48"/>
          <note key="74" pan="0" pos="1728" vol="100" len="192"/>
          <note key="72" pan="0" pos="1728" vol="100" len="192"/>
          <note key="69" pan="0" pos="1728" vol="100" len="192"/>
          <note key="66" pan="0" pos="1728" vol="100" len="192"/>
        </midiclip>
        <midiclip type="1" steps="16" pos="4992" name="" muted="0">
          <note key="70" pan="0" pos="0" vol="100" len="192"/>
          <note key="67" pan="0" pos="0" vol="100" len="192"/>
          <note key="65" pan="0" pos="0" vol="100" len="192"/>
          <note key="62" pan="0" pos="0" vol="100" len="192"/>
          <note key="69" pan="0" pos="192" vol="100" len="192"/>
          <note key="65" pan="0" pos="192" vol="100" len="192"/>
          <note key="62" pan="0" pos="192" vol="100" len="192"/>
          <note key="60" pan="0" pos="192" vol="100" len="192"/>
          <note key="82" pan="0" pos="384" vol="100" len="192"/>
          <note key="79" pan="0" pos="384" vol="100" len="192"/>
          <note key="75" pan="0" pos="384" vol="100" len="192"/>
          <note key="81" pan="0" pos="576" vol="100" len="96"/>
          <note key="77" pan="0" pos="576" vol="100" len="96"/>
          <note key="74" pan="0" pos="576" vol="100" len="96"/>
          <note key="81" pan="0" pos="672" vol="100" len="96"/>
          <note key="78" pan="0" pos="672" vol="100" len="96"/>
          <note key="74" pan="0" pos="672" vol="100" len="96"/>
          <note key="82" pan="0" pos="768" vol="100" len="72"/>
          <note key="79" pan="0" pos="768" vol="100" len="72"/>
          <note key="74" pan="0" pos="768" vol="100" len="72"/>
          <note key="70" pan="0" pos="768" vol="100" len="72"/>
          <note key="81" pan="0" pos="840" vol="100" len="72"/>
          <note key="78" pan="0" pos="840" vol="100" len="72"/>
          <note key="74" pan="0" pos="840" vol="100" len="72"/>
          <note key="69" pan="0" pos="840" vol="100" len="72"/>
          <note key="82" pan="0" pos="912" vol="100" len="48"/>
          <note key="79" pan="0" pos="912" vol="100" len="48"/>
          <note key="74" pan="0" pos="912" vol="100" len="48"/>
          <note key="69" pan="0" pos="912" vol="100" len="48"/>
          <note key="79" pan="0" pos="960" vol="100" len="72"/>
          <note key="75" pan="0" pos="960" vol="100" len="72"/>
          <note key="70" pan="0" pos="960" vol="100" len="72"/>
          <note key="67" pan="0" pos="960" vol="100" len="72"/>
          <note key="77" pan="0" pos="1032" vol="100" len="72"/>
          <note key="74" pan="0" pos="1032" vol="100" len="72"/>
          <note key="70" pan="0" pos="1032" vol="100" len="72"/>
          <note key="66" pan="0" pos="1032" vol="100" len="72"/>
          <note key="73" pan="0" pos="1104" vol="100" len="48"/>
          <note key="69" pan="0" pos="1104" vol="100" len="48"/>
          <note key="65" pan="0" pos="1104" vol="100" len="48"/>
          <note key="70" pan="0" pos="1152" vol="100" len="72"/>
          <note key="67" pan="0" pos="1152" vol="100" len="72"/>
          <note key="65" pan="0" pos="1152" vol="100" len="72"/>
          <note key="63" pan="0" pos="1152" vol="100" len="72"/>
          <note key="67" pan="0" pos="1224" vol="100" len="72"/>
          <note key="65" pan="0" pos="1224" vol="100" len="72"/>
          <note key="63" pan="0" pos="1224" vol="100" len="72"/>
          <note key="58" pan="0" pos="1224" vol="100" len="72"/>
          <note key="65" pan="0" pos="1296" vol="100" len="48"/>
          <note key="63" pan="0" pos="1296" vol="100" len="48"/>
          <note key="58" pan="0" pos="1296" vol="100" len="48"/>
          <note key="55" pan="0" pos="1296" vol="100" len="48"/>
          <note key="66" pan="0" pos="1344" vol="100" len="192"/>
          <note key="62" pan="0" pos="1344" vol="100" len="192"/>
          <note key="60" pan="0" pos="1344" vol="100" len="192"/>
          <note key="57" pan="0" pos="1344" vol="100" len="192"/>
          <note key="54" pan="0" pos="1344" vol="100" len="192"/>
        </midiclip>
      </track>
      <track type="0" name="Guitar" solo="0" mutedBeforeSolo="1" muted="1">
        <instrumenttrack usemasterpitch="1" mixch="15" firstkey="0" keymap="0" lastkey="127" pan="0" enablecc="0" pitchrange="12" vol="100" basenote="69" scale="0" enabled="0" range_import="1">
          <pitch value="0" id="24247" scale_type="linear"/>
          <midicontrollers cc43="0" cc74="0" cc111="0" cc119="0" cc124="0" cc108="0" cc7="0" cc49="0" cc95="0" cc116="0" cc35="0" cc98="0" cc105="0" cc14="0" cc48="0" cc65="0" cc11="0" cc17="0" cc34="0" cc23="0" cc15="0" cc22="0" cc55="0" cc68="0" cc4="0" cc28="0" cc13="0" cc44="0" cc69="0" cc3="0" cc77="0" cc73="0" cc1="0" cc80="0" cc58="0" cc120="0" cc0="0" cc21="0" cc85="0" cc115="0" cc29="0" cc66="0" cc53="0" cc90="0" cc96="0" cc37="0" cc46="0" cc25="0" cc109="0" cc52="0" cc110="0" cc75="0" cc57="0" cc92="0" cc93="0" cc125="0" cc18="0" cc122="0" cc19="0" cc32="0" cc103="0" cc86="0" cc121="0" cc6="0" cc56="0" cc94="0" cc70="0" cc64="0" cc127="0" cc59="0" cc63="0" cc9="0" cc82="0" cc78="0" cc114="0" cc104="0" cc36="0" cc30="0" cc12="0" cc10="0" cc84="0" cc76="0" cc88="0" cc20="0" cc16="0" cc101="0" cc27="0" cc8="0" cc5="0" cc81="0" cc24="0" cc99="0" cc60="0" cc102="0" cc106="0" cc26="0" cc61="0" cc39="0" cc33="0" cc38="0" cc45="0" cc100="0" cc112="0" cc126="0" cc67="0" cc50="0" cc42="0" cc113="0" cc41="0" cc87="0" cc107="0" cc2="0" cc79="0" cc123="0" cc40="0" cc71="0" cc97="0" cc83="0" cc118="0" cc62="0" cc117="0" cc72="0" cc31="0" cc54="0" cc91="0" cc89="0" cc47="0" cc51="0"/>
          <instrument name="sf2player">
            <sf2player bank="0" reverbDamping="0" chorusNum="3" gain="2" chorusOn="0" chorusLevel="2" chorusSpeed="0.3" patch="25" reverbRoomSize="0.2" reverbLevel="0.9" reverbWidth="0.5" chorusDepth="8" src="usersoundfont:TimGM6mb.sf2" reverbOn="0">
              <key/>
            </sf2player>
          </instrument>
          <eldata fcut="14000" ftype="0" fres="0.5" fwet="0">
            <elvol sustain="0.5" lspd_denominator="4" dec="0.5" pdel="0" rel="0.1" userwavefile="" latt="0" lspd_numerator="4" att="0" amt="0" ctlenvamt="0" lspd="0.1" lshp="0" x100="0" lpdel="0" hold="0.5" lspd_syncmode="0" lamt="0"/>
            <elcut sustain="0.5" lspd_denominator="4" dec="0.5" pdel="0" rel="0.1" userwavefile="" latt="0" lspd_numerator="4" att="0" amt="0" ctlenvamt="0" lspd="0.1" lshp="0" x100="0" lpdel="0" hold="0.5" lspd_syncmode="0" lamt="0"/>
            <elres sustain="0.5" lspd_denominator="4" dec="0.5" pdel="0" rel="0.1" userwavefile="" latt="0" lspd_numerator="4" att="0" amt="0" ctlenvamt="0" lspd="0.1" lshp="0" x100="0" lpdel="0" hold="0.5" lspd_syncmode="0" lamt="0"/>
          </eldata>
          <chordcreator chord-enabled="0" chord="0" chordrange="1"/>
          <arpeggiator arpmode="0" arpskip="0" arprange="1" arpmiss="0" arptime_numerator="4" arptime="200" arptime_denominator="4" arpdir="0" arprepeats="1" arp-enabled="0" arpcycle="0" arpgate="100" arp="0" arptime_syncmode="0"/>
          <midiport inputcontroller="0" fixedinputvelocity="-1" fixedoutputvelocity="-1" outputcontroller="0" outputprogram="1" writable="0" fixedoutputnote="-1" outputchannel="1" basevelocity="63" inputchannel="0" inports="" readable="1"/>
          <fxchain numofeffects="0" enabled="0"/>
        </instrumenttrack>
        <midiclip type="1" steps="16" pos="4992" name="" muted="0">
          <note key="67" pan="0" pos="0" vol="100" len="24"/>
          <note key="74" pan="0" pos="24" vol="100" len="24"/>
          <note key="74" pan="0" pos="48" vol="100" len="36"/>
          <note key="72" pan="0" pos="84" vol="100" len="12"/>
          <note key="74" pan="0" pos="96" vol="100" len="24"/>
          <note key="77" pan="0" pos="120" vol="100" len="48"/>
          <note key="74" pan="0" pos="168" vol="100" len="24"/>
          <note key="65" pan="0" pos="192" vol="100" len="24"/>
          <note key="79" pan="0" pos="216" vol="100" len="24"/>
          <note key="77" pan="0" pos="240" vol="100" len="12"/>
          <note key="74" pan="0" pos="252" vol="100" len="12"/>
          <note key="72" pan="0" pos="264" vol="100" len="108"/>
          <note key="81" pan="0" pos="372" vol="100" len="12"/>
          <note key="82" pan="0" pos="384" vol="100" len="24"/>
          <note key="86" pan="0" pos="408" vol="100" len="24"/>
          <note key="86" pan="0" pos="432" vol="100" len="36"/>
          <note key="84" pan="0" pos="468" vol="100" len="12"/>
          <note key="86" pan="0" pos="480" vol="100" len="24"/>
          <note key="82" pan="0" pos="504" vol="100" len="48"/>
          <note key="79" pan="0" pos="552" vol="100" len="24"/>
          <note key="81" pan="0" pos="576" vol="100" len="24"/>
          <note key="86" pan="0" pos="600" vol="100" len="24"/>
          <note key="86" pan="0" pos="624" vol="100" len="12"/>
          <note key="87" pan="0" pos="636" vol="100" len="12"/>
          <note key="86" pan="0" pos="648" vol="100" len="240"/>
          <note key="84" pan="0" pos="888" vol="100" len="72"/>
          <note key="75" pan="0" pos="960" vol="100" len="72"/>
          <note key="77" pan="0" pos="1032" vol="100" len="72"/>
          <note key="79" pan="0" pos="1104" vol="100" len="24"/>
          <note key="75" pan="0" pos="1128" vol="100" len="24"/>
          <note key="87" pan="0" pos="1152" vol="100" len="36"/>
          <note key="79" pan="0" pos="1188" vol="100" len="36"/>
          <note key="82" pan="0" pos="1224" vol="100" len="36"/>
          <note key="75" pan="0" pos="1260" vol="100" len="36"/>
          <note key="79" pan="0" pos="1296" vol="100" len="36"/>
          <note key="75" pan="0" pos="1332" vol="100" len="12"/>
          <note key="86" pan="0" pos="1344" vol="100" len="192"/>
        </midiclip>
      </track>
      <track type="5" name="Guitar>Pitch" solo="0" mutedBeforeSolo="0" muted="0">
        <automationtrack/>
        <automationclip tens="1" mute="0" prog="0" pos="4992" name="Guitar>Pitch" len="192">
          <time value="0" pos="0" outValue="0"/>
          <object id="24247"/>
        </automationclip>
        <automationclip tens="0" mute="0" prog="1" pos="5568" name="Guitar>Pitch" len="192">
          <time value="0" pos="0" outValue="0"/>
          <time value="0" pos="96" outValue="0"/>
          <time value="-1200" pos="192" outValue="-1200"/>
          <object id="24247"/>
        </automationclip>
        <automationclip tens="1" mute="0" prog="0" pos="5952" name="Guitar>Pitch" len="192">
          <time value="0" pos="0" outValue="0"/>
          <object id="24247"/>
        </automationclip>
      </track>
    </trackcontainer>
    <track type="6" name="Automation track" solo="0" mutedBeforeSolo="0" muted="0">
      <automationtrack/>
      <automationclip tens="1" mute="0" prog="0" pos="0" name="Numerator" len="192"/>
      <automationclip tens="1" mute="0" prog="0" pos="0" name="Denominator" len="192"/>
      <automationclip tens="1" mute="0" prog="0" pos="0" name="Tempo" len="192"/>
      <automationclip tens="1" mute="0" prog="0" pos="0" name="Master volume" len="192"/>
      <automationclip tens="1" mute="0" prog="0" pos="0" name="Master pitch" len="192"/>
    </track>
    <mixer visible="1" minimized="0" x="1" height="333" y="600" maximized="0" width="1489">
      <mixerchannel volume="0.5" num="0" name="Master" soloed="0" muted="0">
        <fxchain numofeffects="0" enabled="0"/>
      </mixerchannel>
      <mixerchannel volume="1" num="1" name="Direct" soloed="0" muted="0">
        <fxchain numofeffects="0" enabled="0"/>
        <send amount="1" channel="0"/>
      </mixerchannel>
      <mixerchannel volume="1" num="2" name="Hall" soloed="0" muted="0">
        <fxchain numofeffects="1" enabled="1">
          <effect autoquit="1" autoquit_syncmode="0" autoquit_denominator="4" on="1" wet="1" name="reverbsc" autoquit_numerator="4" gate="0">
            <ReverbSCControls input_gain="0" output_gain="0" size="0.66" color="2245.6"/>
            <key/>
          </effect>
        </fxchain>
        <send amount="1" channel="0"/>
      </mixerchannel>
      <mixerchannel volume="1" num="3" name="Chords" soloed="0" muted="0">
        <fxchain numofeffects="0" enabled="0"/>
        <send amount="1" channel="1"/>
      </mixerchannel>
      <mixerchannel volume="1" num="4" name="Piano>Bass" soloed="0" muted="0">
        <fxchain numofeffects="1" enabled="1">
          <effect autoquit="1" autoquit_syncmode="0" autoquit_denominator="4" on="1" wet="1" name="stereomatrix" autoquit_numerator="4" gate="0">
            <stereomatrixcontrols r-l="1" l-l="1" l-r="-1" r-r="1"/>
            <key/>
          </effect>
        </fxchain>
        <send amount="1" channel="1"/>
      </mixerchannel>
      <mixerchannel volume="1" num="5" name="Piano>Texture" soloed="0" muted="0">
        <fxchain numofeffects="0" enabled="0"/>
        <send amount="1" channel="2"/>
        <send amount="1" channel="1"/>
      </mixerchannel>
      <mixerchannel volume="1" num="6" name="Bass" soloed="0" muted="0">
        <fxchain numofeffects="0" enabled="0"/>
        <send amount="1" channel="1"/>
      </mixerchannel>
      <mixerchannel volume="1" num="7" name="Bass>Sample" soloed="0" muted="0">
        <fxchain numofeffects="0" enabled="0"/>
        <send amount="1" channel="6"/>
      </mixerchannel>
      <mixerchannel volume="1" num="8" name="Bass>Pulse" soloed="0" muted="0">
        <fxchain numofeffects="0" enabled="0"/>
        <send amount="1" channel="6"/>
      </mixerchannel>
      <mixerchannel volume="1" num="9" name="Bass>Saw" soloed="0" muted="0">
        <fxchain numofeffects="0" enabled="0"/>
        <send amount="1" channel="6"/>
      </mixerchannel>
      <mixerchannel volume="1" num="10" name="Blip" soloed="0" muted="0">
        <fxchain numofeffects="0" enabled="0"/>
        <send amount="1" channel="1"/>
      </mixerchannel>
      <mixerchannel volume="1" num="11" name="Noise" soloed="0" muted="0">
        <fxchain numofeffects="0" enabled="0"/>
        <send amount="1" channel="1"/>
      </mixerchannel>
      <mixerchannel volume="1" num="12" name="Drums" soloed="0" muted="0">
        <fxchain numofeffects="0" enabled="0"/>
        <send amount="1" channel="1"/>
      </mixerchannel>
      <mixerchannel volume="1" num="13" name="Drums>BD" soloed="0" muted="0">
        <fxchain numofeffects="0" enabled="0"/>
        <send amount="1" channel="12"/>
      </mixerchannel>
      <mixerchannel volume="1" num="14" name="Drums>HiHat" soloed="0" muted="0">
        <fxchain numofeffects="0" enabled="0"/>
        <send amount="1" channel="12"/>
      </mixerchannel>
      <mixerchannel volume="1" num="15" name="Guitar" soloed="0" muted="0">
        <fxchain numofeffects="3" enabled="1">
          <effect autoquit="1" autoquit_syncmode="0" autoquit_denominator="4" on="1" wet="1" name="vsteffect" autoquit_numerator="4" gate="0">
            <vsteffectcontrols param2="2:Knee:0" param5="5:Level:0.3" param1="1:Ratio:1" program="0" param0="0:Threshold:0" param4="4:Release:0" numparams="6" plugin="Effects\Classic Compressor\Classic Compressor.dll" param3="3:Attack:0" guivisible="0"/>
            <key>
              <attribute value="Effects\Classic Compressor\Classic Compressor.dll" name="file"/>
            </key>
          </effect>
          <effect autoquit="1" autoquit_syncmode="0" autoquit_denominator="4" on="1" wet="1" name="vsteffect" autoquit_numerator="4" gate="0">
            <vsteffectcontrols param2="2:Mix:0.28" param1="1:Rate:0.235" program="0" param0="0:Bypass:0" numparams="3" plugin="Effects\DeadDuckSoftware\DD RingMod.dll" guivisible="0"/>
            <key>
              <attribute value="Effects\DeadDuckSoftware\DD RingMod.dll" name="file"/>
            </key>
          </effect>
          <effect autoquit="1" autoquit_syncmode="0" autoquit_denominator="4" on="1" wet="1" name="vsteffect" autoquit_numerator="4" gate="0">
            <vsteffectcontrols program="15" chunk="AAAAAAAAAAAAAAAAAAAAAGFibmsjOwMAYgBHAXic7Z0LXEzp38BHKqEQIhsaaksUSlau5yRySRflj1y2pmaq0TSTaVK5X0LWJfddy+7S5q4otWxSudsVsksuK0KlUHKJCL1zpmY0Y+bMTO+cM6b5PZ9PjjNznuf3nOdc5pzz/T7PMaRQKD6MiAgmh00dSWOHmvLnDfl/AwOCHIeMYgTRIlm8Sfx5I/5fQEw4LSLCjsGmBbAYQ/kfmPH/aJF0JqdvGIfuTmOy+4ot0oz/NfZHqZ8K/48lA/5fMJcTGR7BYH3H/3+nL4oSfotXClYrJjuCR2MHMuzYtDDGWKm1ElukWYNypP1Rhf8xwQrn2IXTuLSwiLrqCAqIuMD/wuLLINIWlSzcQGLeXqfBjEPzBjMDdBvMOOo1mBmo32DmuxYNZgY1LN5JOIOFwErGCsTKwbK3qK9L+y/XkckOjsaaQd4K8peT3DQGFFmpEhGfUlDxqYFo+o1YjZhsu8AQGpvNYNW1ZxQ/TC+cmkkuL9n+7STmJzRsf29h+2PTcR6iLVA3K9oGdbOirVA3K9oOdbOiLVE369RSbHZwq/pZXcGsff/W4vP2huLzDkbi8wPaiM87thWfH9hOfP474TzeroBVEasXVhcsPhYTi9O2vtk6Sm4Y/k7A4+8Ec/mf98TfJPVLyt5dvtgtFE7iByk/jjDYPAr+QdpgUSLqZSZWr4gQTpQdjcUS7pwR4/hf2+DU7osMeGdBbMvwixjJ4QQzovsG0gLs6NyYMGb0SIq0LSNtSeVKrzu7K1K6vN+BSqTTF6UHMVkM7Nidwv/GUk75wmXxzufY/l3/Qyb8qMMXQZlsOiPamf9xDzkRBQvKXiEDtK1Y2XQucw5jOP+jbjjlChaSVub39/TKT1xYgoo3EmO2cC8JiKLLaaSGy0pG0Pu8jVFZ0+/aXC56NfkDYiqjBkFcxuwg/ndWCtUBW1pmLVCkLirqVz9dVD/9De1zrJNn+oRsVFYtgvkBFa8FtrTstpD8pfo8bTvYaMeWnBKZbcH/jKF4LbClcbaInGSKdpVRi3AuYw5W9iz+970Vqokwh+zadEXx28YUNRGrTTCNx6g/9l0o0k7DUhfFOwmZflk+L4TL4J8mWXRXOW0uvrTsKA45bcSiYG0yDFt7nLKltVvDeou3C7+l7fjtju2APnLapcGikuVjP+AuZX2aDTJ8jmyckv3K5dNHZEJ4wcqYDnlIZ7F4/A3L4ArPwqP5X32LE1FsYcXXqT4bVlF527rBotLKF65DF2nl89uDzmDRYsbwv7SWH0O4uLQ48zomj3kwN1Hip6c+Y0Q4LZAxioJ/Vm24LF4EqS3FY4bJPSoaLCp7S1RLX4MoJp0XouAaCJbF+3kW//GPoPEUvLT4vCTentRdsvQABo8m+sFi0iLsJ/CXsMWP80UeaRGHPAybsXtyEdITL2IIjUtn8++F7b34S/VXPKoon7TIH/a/+Mc9wEuxyA6NjOwgLfL/9nyLml0uUyyyRyMje0iLvCHUvXln00KEiheZFW6HXQ948Jfpq3jc+lzSop4P3HyMxz6L4q4vdsIW3BoGKre+onzyLjVduMyIcAZX+JEVXmWwexDsbGgXyOFysacsjopXSCyvtOa40oVhkLWpMNscrwbRgjLc+YvYKR46WuYpXHjawN0E0XYhdRtRyV1OlE9m5MUT8Td+tB2rkZFxdrvqmFVOVxaloxbikcMZgTxuZJiwCBqbx6Sx+KenifzF7PFCy8qIdyLtgR97TjD2S+LJX6ifMpHrsuFtZ0vcuAEsTmCoXQRzLsObv5yDEqE/55QdvSOKv9Z0ZgR2JaPsWtdnU+JnS6IA/j0pS+7PlpQ8eO2Mv29he6ZdCDM4RNl9S5RRZuy4fyWPKGlFsDhRco8oGflkr7WjnCNKdEamK7nWCp/KJZ4aUHGrwwkKimDw5P6aSc3V+EObw7+MY9HCld3J67PJjlso59Dm0tjBDMGuo+yh/TmntOh5sVvtkG45cnb4ujL4e4+yO7woo7TY7VufSkEXU+XEjmAE1t0iKRtblLHxW5tfBC8mXOlTWn022XENUHP8uCxOOEPuRYK0TLJjtpdzeEeEcTi8ECY7WOl2FmZs/Ckcay1lT+H4LSzv7BHFZNM5UcqePepy4UXtJhY1msOLDGCI3Sy58RfogxNSShZp8VJvmiX1yryRLS+eg/LxpN7b+LocjvcsqsSNh12kKhlPkEVaPG+TXT4+bh8kLmzFM4eEBzEY9ABaYKi8H0NZ+RTfY78ogf9zKm+PlZZHWsSzU4NK2lnpoHgRmWxs0ygXsS5PY9eRf0DzC1c2orwbFbz9J5TNYCh5fAiySIvXM+NG1PeWBqi8eErur4Is0uJ9quUnJB53G7KYYUye3Ccs0vJIi1gY5m0+7HZb+REdGhFR6jpWnE+dfbZCH6XiRQyv+82Vd2aVnqux+yqrEccjS+bxGOJ0J4xXmitxuyOeW3RN60/BvzaQkQ3vUhjjAD48Lk30Q4PX4PyPGtHgwlx4DW6OFzWSp8hzDKmZpMV8PXHesrTl5QjumtZlt1dyTetz4Z2ULOVHxR762Mu79JadE6+dFYzu0OjoUg/mSaHeFr0unMlWMPqARkcfIC06umCgjW6HvQjeIRaN3TRhv2DyLr9lZJMWd3z2MV/rLaW4lxWCAoJYvAC599iy8kmLvG+5VdqxFRQUr72FJWAnJuXau2FOadG/5dhyGLYxuKc0QRnYVmtEe8s6rkf6jtj6y2oRpPeM5I0RqGb8f2RC+oYLSSsztPhwV70bNxDMmwnnMvi384IzKnb27/JFeQ0WwDvlSnn6gJlaAimPv9ZhMVSXEBo3mMHFQBKoeaDmgZrXYBbUPFDzcBKoeVqp5rmqVM3Te2Jktft/00lU8+6Gz4wcd6c56lbzS65tax0y1TzKqLpaoPHo+LxY7v3f/FCvjjb+hm1S0A2Zs1K7vSNbzZts+qRL4fP/kH0bb3WPTS1FXs4YUL7M8LF61DxUvHZft5qnOgVNMt7JdvOdPL2MUOIVtErpYpUGKWjX0mKPb2P+TqCCxvTQH993QAJhCtqzCQf3LvnmA4EK2uJ3s1pNfVRGkIKWhdBX2ESfkLjjB3MCzAkwJ1RuTuDvbuAwgMMADoMmOAxgEygVD2wCCtgEYBOATQA2QYMHZxSwCcAmAJsAbAKlY2uDTfBfIpOT8+IJYkypx/0+glsB6igMRADtB9oPtB9oP9B+xRPQfq2k/e4qpf3FLyo+VNGnkED7hZR/8btvWNXUd8iq636J6+PaogmxB8Jnl1SRRPvvxsW67BmyAn0zNWGp6aFp6LNHrPSAA8mo/a6LpQkWmSTRfqf2Q8NcNn1CNv66Lnvz1ueItVtqq+Pxj5C3OwNiTIyKSaX9svm6Omn/l+4BUbT/VnLaoX5rSxB6N6M/ftShoBX5bft07PuChAFniKP9GTYLLvZOzCec9ldazzZc3XwHgbR/0yJz24vXUgij/bOWPPrO/1NzVFMHnHF8m7ojzzgPaD/QfqD9QPuB9gPtB9r/tdD+4orjhYdevSGN9lcPdbLpYX2WNNo/50qCXUx8jVbQ/o/nT+WfLzcG2q9C2i9k4WTR/vn9TXgzl7iRSPuHn6CGlhvh7zWqpf21gmSBUvEiNgHaL0hLrytG+/0oKqf92PNtH06QjDG0yIH9lQiZsP/Q7TJ/Wu5LkmG/Q/0RpB7YXzjc2mhO9m1FVQMVw/5Ke11310s5aoL9eb7XT6YMSc7GO8KIgP05+QVVBX1T1AD7LY4W7E++kYS7tYmD/QUzIr1fDfYiHfbv3+JV8tY8CVEl7PfpsSdl2oDHCIZBBLDfixkYyr/woLpwI9mBIYD7AfcD7gfcD7hf8QS4XytxP0WluP/v1p8CXxr7kti5P3DkJK/o53rox5Ld3VvakPrenQad+z2sigYZTgxDHU7/Nzhtw0H0QRn1SEIWWbhfOK0qHs+p3VaE6KaP7bPM9wmyOc/n9PQrBWrp3P914X7yOvf3tcvRiTDSR98LnpM8R85z5geN6Fuo0bjfatsKaoDvdcJx/+ndZ660GnOQQNwffc/o5pqtawnD/cysA2aG6a819v0y+psORS0b8i/gfsD9gPsB9wPuB9wPuP9rwf1531f0+a30Pi4+VSXuD3Hx89A7VIIbT5W4P9AnOqFbreQ7sMjD/ZUIebhfzzjGjFH6ETci4H7lcL9x5g7DlOrppOH+SM6isCTGDBJxf/PpLjHr/M1IxP1tNz7O2GvUHqXiRSQI9+Mfj6rF/ddDw+e0XnNZrZ37vTjh4aL7YrwGbxq83yK+Z8DbyUUk8/5+F/1WUda0UxPvFyb18P7S8Ssiyvr/qSbeT9W3tn15fB/pnftLdw3+ySnnLzXw/jc9/UtXLTJUU+d+vW0n1/ja7COd91sN7Bn/P4NilfL+e9yH398LfYZgWE/A+92ZbCbAfoD9APsB9gPsV7peAPu1EfYvHq1S2G9cUNF7f8E0EmG/cLrp6i6ra5NfIeqB/XVTDrrn1ongD3ap6JUc5x8rfs8iGfYLpzvzcsffel+MTLTw4+yKLFHPSP4StdMW2C8rribDfrJG8o+3OLBFL3cngbD/yNCfa1tc2k4Y7D++JW1+59flhMP+UoJgvzD1EC8dYD/AfoD9APsB9gPsB9gvGRFG8lcqHozkT4GR/ImA/TCSv+phP4zkTx7sh5H8SYD9dQlG8legDBjJX7HAMJK/WFwiRvK3HZD5euzqsgYj+WNP+ID2A+0H2g+0H2i/0vUC2q+NtJ/iolLaHzrz6p0TwWTS/oxpznq595upmfaXnZr6y7qui9FROxbkv76Ugu7KnJXa7V02ybT/hxehbwL+qkVMvl34nUPOU8RosNGOLTnqof3a2rVfSMaLTsTfnG9ZhSyft7FzNZ2CajLt3xL+5PKzrX8RTvvPrtUJnNP7TwJpP/f+yC7mzX8ljPanjw2b/GxDjcZ27RemHuKlA+0H2g+0H2g/0H6g/UD7JSOSRfsLD4bxOnS9TFrX/urauEPZ9Euk0f78pSZuA4uuagXtfzGa/kPLgy2A9quQ9ifx/qCas7mk0f6s07fjqUtq8Dugq5T2Xw9x3rD05Hv5EVVG+xesajbxkk4NLpJtCrRfkBQdyZ9GUTntx55rj6Vx6Qyu8BO8Fm8auH9ijLdz3vHHgPtJw/1nqnrNiD99Tk24/4hzcu+a4mOk4/6iHea93dqXZpOP+/v0TAmccuq9msbyXxMZs+e3GPLH8t83vtu7bh/zVdq3X3jUYoxPgPtdaTzqeNrcuYD6AfUD6gfUD6hf8QSoXytR/0CVon5epnf82IrOWjeKf/fOXQsznnHR05ldjpT5H0VvRegahb0+TTLqP5ujl+owqgSZ0Xveux4nXiOvZgwoX2b4GFC/Gjr2M3WPWG+iNhfVQ5NR//3N4/ai188Tjvqt0vJf/7wyg0DUH5LSbZM39whhqN+sjduG07GtUE1F/Z921jhmHrgMo/gD6gfUD6gfUD+gfkD9XwvqL644Xnjo1RvSOvZXD3Wy6WF9ljTUP+dKgl1MfI1WoP6P50/lny/Hf/06oH7lUL+w2ztZqH9+fxPezCVuJHbsH17/ynHyUL/gXXS1FigVL6K2oX4/ispRP/Z824cTJLo2xGtvokA/uYP4H7pd5k/LfUky6HeoP4LUA/oLh1sbzcm+rahmoGLQX2mv6+56KUdNoD/P9/rJlCHJ2XhHGBGgPye/oKqgb4oa+vVbHC3Yn3wjSU2gv2BGpPerweSD/v1bvEremiepFPT3qe/Xj5UpAP1ezMDQGED9gPplrCCg/oazgPoB9TdMgPq1EvXbqhT11zycErMnBiER9Q/7kLih04WniHpRv3WZ765ZVdHo9Gmcu10X/qEm1M8YmjnIJT0fcc1YEXj9WQ306lcD6k+f+sORTcUPkLKQNiZv9+mirWx27z7h90CjUb+X0yxb10/XCEf9EWk/lCQ8JrJXf1S72UfvVSUShvo5qzMeHJzfVmNRf/LF/63q3L0AUD+gfkD9gPoB9QPqB9QPqB9QP6B+/Dx4FxuA+gH1A+oH1C8eE1A/oH5A/YD6+4bJR/2RNbqxI3o9QTAMIkD97gwejcViBlK9WDQeA3A/4H7A/YD7AfcrngD3ayXuH6lS3J89IdpRb7SXGnr2u9X8kmvbWkdNuP9Vn9lPL/bkorSONv6GbVJQ910XSxMsMknG/Tojhy0fl1CJnN64KmmBXTP0JfTsJx33P3i87q+qwxRR/JPt5jt5ehlp9CD+P7UuovXvWkg47u9Ku3Lu3JsfCMT913VvhE//6QfCcD/v1+3eaU7lBA7i73CmVeV62/sE4X7dTYeilg35F3A/4H7A/YD7AfcD7gfc/7XgfqdLd7pMWXWNNNy/03XzX//2wY+nStxfZGbR1Y9VrTbcX4k7OLpqcX/7OwYj/ghvDrhfhbh/bbrFnm9aLCMN9/+YuHTEj4cVGFJfZbhfKDSQh/u3rHL8hzK8C0rFi9hUcP/8G4rhfn+KynE/9ujChcuMEF244TU4Ubyf3DH8//wpwTp7YAWM4U8a77dcnPhb1rFTauL9woR3iBHB+4/cHWjWadZNNfB+s4DELfeY+rhuCXG8P2h335aUQQtJ5/3h2ffO2YTqo6rk/cKjFnuuVjeGP5MbwbMLZNEiIqiTuLSIEED+gPwB+QPyB+SveALkr43If/FYlSL/dn3z/rl2zZ8E5H8uzv1d0Zi/kThq5Ry3mlNIRU6r1S+2/YMkxB4In11SRRLyD36x/M7lp7tQT7tBF1qMWIsOMPQo3HvpKDrBOam8ZPUJkpB/+qLQW1u330T2drxj23/ILVFPfw8LP86uSHJ7+MuG7OpE/hSJeeKQ/9bB44cs2qyPBo47Mtqspw5qkvAS+ZfyUKN7+GfYLLjYOzGfcOR/LS32+Dbm7wQif//8CQ6Bs04QhvzbRzy9z0mtIBD5C7c1Mci/Xbxpv8LvfwbkD8gfkD8gf0D+gPwB+X8tyJ838IpDrPVV0pD/M8GIAiW4yFaVyP/X2Ft50dtbo9qA/D/ZfXN+vq8pIH8NRv7xZ1Osto9eRmIPf0D+XwXyp1FUjvyx59qjGAG0CNGxi9fiTYP5j3G70GbA/iJg/qQx/1Y3fw8f3uqYmpg/Vd/a9uXxfRIPF4hn/v0DMnoWTTqUTT7z37fcKu3YCoqamP/wTQvb3Y5hk878s04c7zQvqVilffzHLdizoMeIIsSYUs/8JzPZPFowgzqBQaMD7gfcD7gfcD/gfsUT4H5txP2UoSrF/ek7ndYep8SQgPt5+44/jGv2RrS7r7rul7g+ri3JPfz3TemTwx57FK2rAwf1dO296XF6IMk9/F8+G2X61+0S0S/W9ge/Ov75XzO0t+Gl3jWDH6kF90vOa0sPf1lxNRn3IyeNLeM+/ks47o+3OLBFL3cngbj/4C/O050d9xKG+/fOLp4W16Yd4QP6lxKE+1fcXTrg3M27gPsB9wPuB9wPuB9wP+D+rwX3Fx4M43XoehkXn6p0QP/auEPZ9Euk9fDPX2riNrDoqlYM6P9iNP2HlgdbAO5XIe5P4v1BNWdzScP9Wadvx1OX1JDYw/96iPOGpScVGFNAZbh/wapmEy/p1OAi2SaD+xUd0J9GIQT3j6Vx6Qyu8BO8Fm8auH9ijLdz3vHHgPtJw/1nqnrNiD99Tk24/4hzcu+a4mOk4/6iHea93dqXqgH39+mZEjjl1Hs1Dem/JjJmz28x5A/pv298t3fdPuarFPdzzy4O/m/KKwTjegLcP4l/H0B14UayA6FzP9B+oP1A+yU3DNB+nAS0Xxtpv4o79x+7WtI9o5czCbR/bbs1th4DHiPDPiRu6HThKUK5FF7czECXZNp/39LyrYH1YjTa7Dx7/bgd6IqwpPvXdf9Ez5Y/rEr/dJIk2u+5OQI556yPMkwO+hqu0UcvT+1fsmRdCbIzdN7FJT8XQ+d+Eml/+tQfjmwqfoDodzq4bCajGep/ZJNF9zfvNZr2HyOpc3+y17S/fWJXE0j7Hb3c9D46phFG+xcNdOYmTSvQ2M79Fb/POjjH8xbQfqD9QPuB9gPtB9oPtP9rof2pN82SemXeIK1zv6/L4XjPokrSaL+3yS4fH7cPWkH7z04NKmlnpQO0X4W0v2fGjajvLQ1Io/2fsDfbI/FNunN/xfnU2Wcr9FEqXsQmQPtDnO6E8Upz1Tqevw+PSxNdvuA1eNOA/a8nzluWtrwcYD9psH9SqLdFrwtn1AT70QUDbXQ77CUd9o/PPuZrvaVUDeP5q7dv/7ccWw7DNoZ02D/Sd8TWX1YbqHY8//15S7iDSj/37XePDApiMehU18i5c4H2A+0H2g+0H2i/4glovzbSfspgldJ+VkrU0BH6ASTQfuE0cOQkr+jneug3k7sz48z1Sab9dXWIRy8bvWl5+OB+dBVthNuUshD0myfUIwlZZPXtF059nIoyO9PvI0Lq/27mjEfclCek0v4va1U31Rba/0c97R9Me+i7coMO2vkX3i+HxzdDNZn2D/lpyDX6/btNYCj/siVT025WHCCM9nc57RZevue2xtL+x4nxC/xW/AG0H2g/0H6g/UD7gfYD7ddW2p/rufNB/r2/SaP9T5Y9LLrw8Y1W0H4Yyl/1tJ/sofy1gfZTp20xer7LDKXiRSSI9uO/WkONtN+PonLajz3fnkLjhonaHaceTQP2+xu1+bRi9HOA/aTB/tx+lyzNfz6rJtgvTHhHGMB+gP3SyvwvkcnJefEEwTCIAPaP5PLvMnlUL2ZgKP/6A3A/4H7A/YD7AfcrngD3ayXuH6jazv2tPwW+NPYlEfcvfvcNq5r6Dtl0dZfVtcmvEPXg/tq2A/Z+2J+Czp1Yvj+seh6KkDqUv3AaPDRzkEt6PtLCfd65e3kPEeexD5e1tnoMuJ9E3P+nzsuj3694jZy/uDjxpnUJInxCo8m4f+3rkVfCOt4mHPd79LAyMjqZSiDuzzjx8NcLOVsIw/1Zw672ulzxWsNxfz7gfsD9gPsB9wPuB9wPuB9wP+B+wP34efAuNgD3A+4H3A+4Xzwm4H7A/YD7Aff3DZOP+/eZtfj5N3oZgsHfOtzPiYigAe0H2g+0H2g/0H6g/UD7FaL97VRK+027T9/Wp3IIibR/2Z2M0h6ebdGPJbu7t7ShqKlzv+V/a6Ij39LQGbe8U5eFHkC55ofebEjOIZn2p5e+WejW5SGSXz+U/8rde9NHTCwE2k8i7Q/bc2XL+u9vIGcu7+n8oXMZUpHftk/Hvi80eih/q20rqAG+1wmn/ad3n7nSasxBAml/P4t+TlecjxJG+5lZB8wM0zWX9u/5+ze7stV/Ae0H2g+0H2g/0H6g/UD7gfYD7Qfaj58H72IDaD/QfqD9QPvFYwLtB9oPtB9of98w+bR/8L/X5iWNqkKwR8gC2j+BQaOPiWTyaFw/16l+dZX0cw6bRAHuD9wfuL/YLHB/4P44Cbi/VnJ/1fbyH5O122hhPoNE7i85JZH7o0hdVNSvfrqofvob2udYJ8/0Cdkkc3/JadvBRju25JSohftLpq+b+wfTeIz6Y18e+W2wKN5JyPTL8nkhXAb/NMmiu8ppc/GlZUcZl9NGLArWJsOwtccpW1q7Naw3UT7EhPCClTEd8kSjHgjnifchJNdJdT6EcB2I9iHmdUwe82BuIoE+hDACUT5EXarWWB9CmLpLlh7A4NHEgI1cqCQlj7SI81tYf1sU+1DicYVE7hAal85mRETYy6XkMvJJizwuLotln1OsWGSHRkaW/iB9MdVvX9lCxSJ7NDKyh7TIA3s+crJpUyrxEFKiBFa4HXY9IO8hpPRc0qL+PC5tQuDTU5ImhHh+0WPjAOXWN0yRx83Y7dRYfsMwuMJPrPDqgt2CYCdDO+zpHvaQxVHx+ojlldYa7//d/MLsbGG2OV4Nou0UefgsNRPeWQN3C0TbhdRtQyX3OFE+aZHZC6Pjj42fib/to+1YjYyMs9eNdXJapbP/sBw4T2PzmDQW/+ykLJwXZcQ7j/bAjw1eGXhluBllxgav7PNDAypudThBQREMntwfM6m5Gn9og80GNhvYbJpgs1FxI0Yx2XROlLJnj7pceFGbqkPn63I43rOokjSHzttkl4+P2wetcOjOTg0qaWelAw6dCh26nhk3or63NACHToUOXcX51NlnK/RRKl5Eghw6/H1VjQ6dP0XlDh2GAXx4XJrohwavwTlNQqJ7PXHesrTl5SDRkSbRTQr1tuh14YyaJDp0wUAb3Q57JfrngUQHEp18ie7XD0Gec8/nI5g2E85l8G/nBWfUGfzZLl+U12ABvFMuRvFkuHjCRYwp9c6eDycIXscDoh6IehQQ9UDUA1GvYR4Q9WSukItKRb1kuo7LjEhnEkS9JfUD8whfx0O5FF7czEAXTYg9ED67pIqkAXr+DiwJi2fNRt9MTVhqemga+uOdFxX+Y/egYXvLN2y/+SdJop7wNTwbf12XvXnrc8Rvx8Ea4yN6aG7F88j1rk9JFfVEJyCJefWKehSJeeIG6BHG6XPm6obEtSWI0+XMP3ltdDX6dTxtipx7rqb+Q7iQdtRz9O7VN48RKKTR87jPJuUeJ0xI+1grSBorpKE6mx55FFyFAXpApACRgmiRAn93A6UBlAZQGjRBaSBLLiiuOF546NUb0uSC6qFONj2sz5ImF8y5kmAXE1+jFXLBx/On8s+XG4NcoEK5QIjeyZIL5vc34c1c4kaiXDD8BDW03Ah/r1GtXFB3P2OBUvEiNgG5QJCWXlfrAD0YwRLO47U3UW5BJUKmW3Dodpk/LfclyW6BQ/0RpB63oHC4tdGc7NuKmg0qdgsq7XXdXS/lqMktyPO9fjJlSHI23hFGhFuQk19QVdA3RQ1ugcXRgv3JN5JwtzZxbkHBjEjvV4O9SHcL9m/xKnlrnoSo0i34sXZjqPPaZwhG9QSw35tD4/IvPKgjOdHYTQSwfmD9wPobzALrB9aPk4D1ayXrH6VS1m97Z8+DKeO8SGD9FjHzmHYl1Yhl/dRs2uNekZM/IOQOytN6y7ZlkdmBqEmLyd/eYMeh25NLHrtHHkHHv8lNuHXmOEmsf6Wf/tv/1uug3r0O2F9zv4ksr59/NWNA+TLDx2ph/Zr1Mh7NHJTHQeWD8kj6AqpzIDgdMmqPhOiim2pL//RYVoXc3oBQ88ryNfolRWQNyhNffcfln+A0Ah2IS2NTOhx7sh4G5flqBuUxX/504vHuN9QwKM+H/S/+cQ/wUsOgPPGnq3rNiFdwICKVDsoTVPRd77HUPJIH5RGkZ2fUPCiPO4POjBT1nVDfoDxPjr6kFOXd0ZJBeQQph6uGQXkEqXuaHLMJfC4lQoPP1TA2+Fzgc4HPBT4X+FwyadlXM1gMvHCNOJ8LXrimep8LXrimep8LXrhGns8FL1yDsWLghWswVoxqfK6mNFaM8KiVGCsG21iNHisGK6uBFib8GHOI6saHEdxsUF24kezAEJDGQBoDaQykMZDGFE8gjYE0xvj/SmP2Vj47prwdRYI05nl5+1xObXNUT/+AfXDKS+R1OppZW/6AZGmsY+euhRnPAtCWsWtu+WduQ0P89v4185uj6F+Z3z4a9tNRkqSx7VaD8g8WPECW1sti02x0TPXHf0BKHp4fM+bHUpDGQBoTWwbv9AbS2JcR1C2NnaHN3bay2UECpTG/XNcJ7nErCJPGth9LdY0yoaAgjcGb3OBNbsL/w5vcGrYGvMmNHGlM+Ca3HuKRQRoDaQykMbkZ8c6mII2BNAbSGEhjII2BNEYBaQykMZDGQBr7/AfSGE52kMZAGgNpDKQxMqQxjBEIpDGvyKCgGKorBtqwR8OgjYE2BtoYaGOgjSmeQBvTRm1s8WiVamPbjWdnLfAcQII2Ns9ygyVjtgHavX6MMeGYY+RqY2GVI3dP205H20469OP0oxvR1fVjjZGrjbXevLzazP0ustCg37a8hAdIxp73oa1OUlDQxpqqNvbW+O6YcHNEg7SxFln3D4d6VCBpD13XXbnxEuF2fn7GYU0zjX7fWtPRxrq9u5/Vf/8BwrSxysQ7eUPvvYSxxkAbA21MFBW0sYatAdoYaGOgjYE2Jj+f7LUGbUyQQBuTVQRoY6CNycqDFxG0MaXigTZGAW0MtDHQxkAb+/wH2hhOdtDGQBsDbQy0MUltDHvK2GhtDKufhBom/MqYUq+OuTPpgvtKqheNDt4YeGPgjYE3Bt6Y4gm8Ma30xtxV6o3NjM16NGLmeBKHGxN6Y6mP47jXbj8n2RtDrIoGGU6cifotMbibPWQd+sc1+gCXB8kke2OOekhl6IDXSJ7BwOzerAKkDfvElZi7uuijcx/XTngD76hset7YL+d4nf71HaFB3ljrC0czW08oQoq8Ovg4+LxDOgyxvrvobq1GDzfmaNZxjnWzfwj3xoyrjzxdeS6RQG9sknFP/6rizYR5Y6VBVdZ9f3oB3pjC3pgwadM7Kp+E0PpFezxSgzcmXGcqXmSVe2PVgxzec+0y1eyN+XCCeF+DN7ZiWlLy1k83tcQb8zAc4Bi61lEN3pjhqqo+L29sA29MShngjYE3hp8R72wK3hh4Y+CNgTcG3hh4YxTwxsAbA28MvLHPf+CN4WQHbwy8MfDGwBuT9Maw+4dGe2OYFdLQCxN+jpkiAmlsEpMdgw1E5k0BYQyEMRDGxGZBGANhDCeBMKaVwphqBxqzvbPnwZRxXgQKYweG1XafZV4ieh/lofr5Ee6dU6adeUKSMBYc4/3t0Mts1NQZ7fKd6QzUNDQq52POElRnnc7tWI9UNHPG/6Y8oqUSLIy1qB9gbMhj7qIyH12UYXLQ13CNvmhKpjAmS80CYUyUSavfT2k6+PKzgX8UIdSf508d1K4l6njH33HY7DcaLYyRNdBYfPUdl3+C0wgUxnLvOpR3Pp5JmDAW18z7eebrtvB+ShDGQBgTRQVhrGFrgDAGwhgIYyCMyc8ne62/OmGMilsdTlBQBIMn9wdFai68nQ1/JwdNDTQ10NRAU/scDzQ10NTkRQRNDTQ10NTw80iLCJoalkBTA00NNDXQ1DREUyPirZiYkiKw1FxCGFHYd2Miw0BUA1ENRDUQ1UBUUzyBqKaNohplgkpFteknjnh13+xMoKgmHMFMR/+AfXDKS5GgZjYz81Svw1UkiWqDlg96NLg4BD2T3LOtafpklDarwmSK3WrRGzH33I3LOnHoMMGi2qAki59pd98jLd3nnbuX9xBxaj80zGXTJ4Q1Nc725pXm6IHJK+eOciXnjZggqomfhEBU+1w+9gM+63IZ41HKE2RbcMyb8FA91GJmlMv8Li9AVFNAVGsfdqpkk8NPBIpq7WOv7rz9bDVholru+oydPdBqGNkM3ogJb8QURYU3YjZsDXgjJjmiGrwRU3YZIKqBqIafEe9sCqIablwQ1UBUA1ENRDUQ1UBUA1ENRDUQ1UBUA1ENRDUlooOoJvgDUS2MWFENOxc1WlTDbAzhkGnCzzBtSfwFnD4cFgc8NfDUwFMDTw08NcUTeGpa6amN0dA3cM6z3GDJmG0gegOnZcw8pl1JNclv4Oy8412ZM42GtvxvTXTk29noyOSdqzfYpqDHZo5MYhYeJOkNnH+35+WXvKagS7eHtvZ/chOhsRfc5Fbroc29A8KnlpHjqX2ujfQpeGqq9NTeGt8dE26OaJCnNqJ25Zj+4feQha8ntfxuny66rtgyYGMseGqKeGpPhody0YvrCfTUZtvrvfLrl02Yp3Zl+4ob5xJrwFMDTw08NVFU8NQatgZ4auCpgacGnpr8fLLXGjw1QcLfycFTA08NPDXw1D7HA08NPDV5EcFTA08NPDX8PNIigqeGJfDUwFMDTw08NQ3x1LBnm4321LD6eUUGBcVQXTGEhz10Fn71f26l7Ko=" plugin="Effects\Voxengo Boogex Amp Simulator\Voxengo Boogex Amp Simulator.dll" guivisible="0"/>
            <key>
              <attribute value="Effects\Voxengo Boogex Amp Simulator\Voxengo Boogex Amp Simulator.dll" name="file"/>
            </key>
          </effect>
        </fxchain>
        <send amount="1" channel="1"/>
        <send amount="0.5" channel="2"/>
      </mixerchannel>
    </mixer>
    <ControllerRackView visible="0" minimized="0" x="550" height="200" y="487" maximized="0" width="350"/>
    <pianoroll visible="0" minimized="0" x="268" height="622" y="277" maximized="0" width="970"/>
    <automationeditor visible="0" minimized="0" x="796" height="400" y="287" maximized="0" width="860"/>
    <projectnotes visible="0" minimized="0" x="700" height="400" y="10" maximized="0" width="689"><![CDATA[<!DOCTYPE HTML PUBLIC "-//W3C//DTD HTML 4.0//EN" "http://www.w3.org/TR/REC-html40/strict.dtd">
<html><head><meta name="qrichtext" content="1" /><style type="text/css">
p, li { white-space: pre-wrap; }
</style></head><body style=" font-family:'MS Shell Dlg 2'; font-size:8.25pt; font-weight:400; font-style:normal;">
<p style=" margin-top:0px; margin-bottom:0px; margin-left:0px; margin-right:0px; -qt-block-indent:0; text-indent:0px;"><span style=" color:#e0e0e0;">&lt;&lt;&lt;&lt;&lt;&lt;</span></p></body></html>]]></projectnotes>
    <timeline lp1pos="10176" stopbehaviour="1" lpstate="1" lp0pos="7104"/>
    <controllers/>
    <scales>
      <scale description="empty">
        <interval num="1" den="1"/>
      </scale>
      <scale description="empty">
        <interval num="1" den="1"/>
      </scale>
      <scale description="empty">
        <interval num="1" den="1"/>
      </scale>
      <scale description="empty">
        <interval num="1" den="1"/>
      </scale>
      <scale description="empty">
        <interval num="1" den="1"/>
      </scale>
      <scale description="empty">
        <interval num="1" den="1"/>
      </scale>
      <scale description="empty">
        <interval num="1" den="1"/>
      </scale>
      <scale description="empty">
        <interval num="1" den="1"/>
      </scale>
      <scale description="empty">
        <interval num="1" den="1"/>
      </scale>
      <scale description="empty">
        <interval num="1" den="1"/>
      </scale>
    </scales>
    <keymaps>
      <keymap last_key="127" middle_key="60" base_freq="440" first_key="0" base_key="69" description="empty"/>
      <keymap last_key="127" middle_key="60" base_freq="440" first_key="0" base_key="69" description="empty"/>
      <keymap last_key="127" middle_key="60" base_freq="440" first_key="0" base_key="69" description="empty"/>
      <keymap last_key="127" middle_key="60" base_freq="440" first_key="0" base_key="69" description="empty"/>
      <keymap last_key="127" middle_key="60" base_freq="440" first_key="0" base_key="69" description="empty"/>
      <keymap last_key="127" middle_key="60" base_freq="440" first_key="0" base_key="69" description="empty"/>
      <keymap last_key="127" middle_key="60" base_freq="440" first_key="0" base_key="69" description="empty"/>
      <keymap last_key="127" middle_key="60" base_freq="440" first_key="0" base_key="69" description="empty"/>
      <keymap last_key="127" middle_key="60" base_freq="440" first_key="0" base_key="69" description="empty"/>
      <keymap last_key="127" middle_key="60" base_freq="440" first_key="0" base_key="69" description="empty"/>
    </keymaps>
  </song>
</lmms-project>
