<?xml version="1.0"?>
<!DOCTYPE multimedia-project>
<multimedia-project version="1.0" creator="Linux MultiMedia Studio (LMMS)" creatorversion="0.4.13" type="song">
  <head timesig_numerator="4" mastervol="100" timesig_denominator="4" masterpitch="0">
    <bpm value="120" id="3727289"/>
  </head>
  <song>
    <trackcontainer width="1096" x="5" y="5" maximized="0" height="716" visible="1" type="song" minimized="0">
      <track muted="0" type="0" name="Standard-Preset">
        <instrumenttrack pan="0" fxch="0" pitch="0" basenote="57" vol="100">
          <instrument name="tripleoscillator">
            <tripleoscillator phoffset2="0" userwavefile0="" finer0="0" userwavefile1="" finer1="0" userwavefile2="" finer2="0" coarse0="0" coarse1="-12" coarse2="-24" finel0="0" finel1="0" modalgo1="2" modalgo2="2" finel2="0" pan0="0" modalgo3="2" pan1="0" stphdetun0="0" pan2="0" stphdetun1="0" wavetype0="0" stphdetun2="0" wavetype1="0" wavetype2="0" vol0="33" vol1="33" phoffset0="0" phoffset1="0" vol2="33"/>
          </instrument>
          <eldata fres="0.5" ftype="0" fcut="14000" fwet="0">
            <elvol lspd_denominator="4" pdel="0" userwavefile="" dec="0.5" lamt="0" syncmode="0" latt="0" rel="0.1" sus="0.5" amt="0" x100="0" att="0" lpdel="0" hold="0.5" lshp="0" lspd="0.1" ctlenvamt="0" lspd_numerator="4"/>
            <elcut lspd_denominator="4" pdel="0" userwavefile="" dec="0.5" lamt="0" syncmode="0" latt="0" rel="0.1" sus="0.5" amt="0" x100="0" att="0" lpdel="0" hold="0.5" lshp="0" lspd="0.1" ctlenvamt="0" lspd_numerator="4"/>
            <elres lspd_denominator="4" pdel="0" userwavefile="" dec="0.5" lamt="0" syncmode="0" latt="0" rel="0.1" sus="0.5" amt="0" x100="0" att="0" lpdel="0" hold="0.5" lshp="0" lspd="0.1" ctlenvamt="0" lspd_numerator="4"/>
          </eldata>
          <chordcreator chord="0" chordrange="1" chord-enabled="0"/>
          <arpeggiator arptime="100" arprange="1" arptime_denominator="4" syncmode="0" arpmode="0" arp-enabled="0" arp="0" arptime_numerator="4" arpdir="0" arpgate="100"/>
          <midiport inputcontroller="0" fixedoutputvelocity="-1" inputchannel="0" outputcontroller="0" writable="0" outputchannel="1" fixedinputvelocity="-1" outputprogram="1" readable="0"/>
          <fxchain numofeffects="0" enabled="0"/>
        </instrumenttrack>
      </track>
      <track muted="0" type="2" name="Sample-Spur">
        <sampletrack vol="100">
          <fxchain numofeffects="0" enabled="0"/>
        </sampletrack>
      </track>
      <track muted="0" type="1" name="Beat/Bassline 0">
        <bbtrack>
          <trackcontainer width="504" x="610" y="5" maximized="0" height="300" visible="1" type="bbtrackcontainer" minimized="0">
            <track muted="0" type="0" name="Standard-Preset">
              <instrumenttrack pan="0" fxch="0" pitch="0" basenote="57" vol="100">
                <instrument name="tripleoscillator">
                  <tripleoscillator phoffset2="0" userwavefile0="" finer0="0" userwavefile1="" finer1="0" userwavefile2="" finer2="0" coarse0="0" coarse1="-12" coarse2="-24" finel0="0" finel1="0" modalgo1="2" modalgo2="2" finel2="0" pan0="0" modalgo3="2" pan1="0" stphdetun0="0" pan2="0" stphdetun1="0" wavetype0="0" stphdetun2="0" wavetype1="0" wavetype2="0" vol0="33" vol1="33" phoffset0="0" phoffset1="0" vol2="33"/>
                </instrument>
                <eldata fres="0.5" ftype="0" fcut="14000" fwet="0">
                  <elvol lspd_denominator="4" pdel="0" userwavefile="" dec="0.5" lamt="0" syncmode="0" latt="0" rel="0.1" sus="0.5" amt="0" x100="0" att="0" lpdel="0" hold="0.5" lshp="0" lspd="0.1" ctlenvamt="0" lspd_numerator="4"/>
                  <elcut lspd_denominator="4" pdel="0" userwavefile="" dec="0.5" lamt="0" syncmode="0" latt="0" rel="0.1" sus="0.5" amt="0" x100="0" att="0" lpdel="0" hold="0.5" lshp="0" lspd="0.1" ctlenvamt="0" lspd_numerator="4"/>
                  <elres lspd_denominator="4" pdel="0" userwavefile="" dec="0.5" lamt="0" syncmode="0" latt="0" rel="0.1" sus="0.5" amt="0" x100="0" att="0" lpdel="0" hold="0.5" lshp="0" lspd="0.1" ctlenvamt="0" lspd_numerator="4"/>
                </eldata>
                <chordcreator chord="0" chordrange="1" chord-enabled="0"/>
                <arpeggiator arptime="100" arprange="1" arptime_denominator="4" syncmode="0" arpmode="0" arp-enabled="0" arp="0" arptime_numerator="4" arpdir="0" arpgate="100"/>
                <midiport inputcontroller="0" fixedoutputvelocity="-1" inputchannel="0" outputcontroller="0" writable="0" outputchannel="1" fixedinputvelocity="-1" outputprogram="1" readable="0"/>
                <fxchain numofeffects="0" enabled="0"/>
              </instrumenttrack>
              <pattern steps="16" muted="0" type="0" name="Standard-Preset" pos="0" len="192" frozen="0"/>
            </track>
          </trackcontainer>
        </bbtrack>
      </track>
      <track muted="0" type="5" name="Automation track">
        <automationtrack/>
      </track>
      <track muted="0" type="0" name="Standard-Preset">
        <instrumenttrack pan="0" fxch="0" pitch="0" basenote="57" vol="100">
          <instrument name="sf2player">
            <sf2player patch="0" chorusLevel="2" chorusDepth="8" reverbOn="0" reverbRoomSize="0.2" chorusOn="0" chorusSpeed="0.3" reverbDamping="0" chorusNum="3" reverbLevel="0.9" bank="128" reverbWidth="0.5" src="C:\VST32\Soundfonts\SF2\GenesiSF.SF2" gain="1"/>
          </instrument>
          <eldata fres="0.5" ftype="0" fcut="14000" fwet="0">
            <elvol lspd_denominator="4" pdel="0" userwavefile="" dec="0.5" lamt="0" syncmode="0" latt="0" rel="0.1" sus="0.5" amt="0" x100="0" att="0" lpdel="0" hold="0.5" lshp="0" lspd="0.1" ctlenvamt="0" lspd_numerator="4"/>
            <elcut lspd_denominator="4" pdel="0" userwavefile="" dec="0.5" lamt="0" syncmode="0" latt="0" rel="0.1" sus="0.5" amt="0" x100="0" att="0" lpdel="0" hold="0.5" lshp="0" lspd="0.1" ctlenvamt="0" lspd_numerator="4"/>
            <elres lspd_denominator="4" pdel="0" userwavefile="" dec="0.5" lamt="0" syncmode="0" latt="0" rel="0.1" sus="0.5" amt="0" x100="0" att="0" lpdel="0" hold="0.5" lshp="0" lspd="0.1" ctlenvamt="0" lspd_numerator="4"/>
          </eldata>
          <chordcreator chord="0" chordrange="1" chord-enabled="0"/>
          <arpeggiator arptime="100" arprange="1" arptime_denominator="4" syncmode="0" arpmode="0" arp-enabled="0" arp="0" arptime_numerator="4" arpdir="0" arpgate="100"/>
          <midiport inputcontroller="0" fixedoutputvelocity="-1" inputchannel="0" outputcontroller="0" writable="0" outputchannel="1" fixedinputvelocity="-1" outputprogram="1" readable="0"/>
          <fxchain numofeffects="0" enabled="0"/>
        </instrumenttrack>
        <pattern steps="16" muted="0" type="1" name="Standard-Preset" pos="1152" len="3840" frozen="0">
          <note pan="0" key="23" vol="60" pos="0" len="12"/>
          <note pan="0" key="32" vol="60" pos="24" len="12"/>
          <note pan="0" key="23" vol="60" pos="48" len="12"/>
          <note pan="0" key="32" vol="60" pos="72" len="12"/>
          <note pan="0" key="32" vol="60" pos="84" len="12"/>
          <note pan="0" key="23" vol="60" pos="96" len="12"/>
          <note pan="0" key="32" vol="60" pos="120" len="12"/>
          <note pan="0" key="23" vol="60" pos="144" len="12"/>
          <note pan="0" key="32" vol="60" pos="168" len="12"/>
          <note pan="0" key="32" vol="60" pos="180" len="12"/>
          <note pan="0" key="23" vol="60" pos="192" len="12"/>
          <note pan="0" key="32" vol="60" pos="216" len="12"/>
          <note pan="0" key="23" vol="60" pos="240" len="12"/>
          <note pan="0" key="32" vol="60" pos="264" len="12"/>
          <note pan="0" key="32" vol="60" pos="276" len="12"/>
          <note pan="0" key="23" vol="60" pos="288" len="12"/>
          <note pan="0" key="32" vol="60" pos="312" len="12"/>
          <note pan="0" key="23" vol="60" pos="336" len="12"/>
          <note pan="0" key="32" vol="60" pos="360" len="12"/>
          <note pan="0" key="32" vol="60" pos="372" len="12"/>
          <note pan="0" key="23" vol="60" pos="384" len="12"/>
          <note pan="0" key="32" vol="60" pos="408" len="12"/>
          <note pan="0" key="23" vol="60" pos="432" len="12"/>
          <note pan="0" key="32" vol="60" pos="456" len="12"/>
          <note pan="0" key="32" vol="60" pos="468" len="12"/>
          <note pan="0" key="23" vol="60" pos="480" len="12"/>
          <note pan="0" key="32" vol="60" pos="504" len="12"/>
          <note pan="0" key="23" vol="60" pos="528" len="12"/>
          <note pan="0" key="32" vol="60" pos="552" len="12"/>
          <note pan="0" key="32" vol="60" pos="564" len="12"/>
          <note pan="0" key="23" vol="60" pos="576" len="12"/>
          <note pan="0" key="28" vol="60" pos="576" len="12"/>
          <note pan="0" key="32" vol="60" pos="600" len="12"/>
          <note pan="0" key="28" vol="60" pos="612" len="12"/>
          <note pan="0" key="23" vol="60" pos="624" len="12"/>
          <note pan="0" key="32" vol="60" pos="648" len="12"/>
          <note pan="0" key="28" vol="60" pos="648" len="12"/>
          <note pan="0" key="32" vol="60" pos="660" len="12"/>
          <note pan="0" key="23" vol="60" pos="672" len="12"/>
          <note pan="0" key="28" vol="60" pos="684" len="12"/>
          <note pan="0" key="32" vol="60" pos="696" len="12"/>
          <note pan="0" key="23" vol="60" pos="720" len="12"/>
          <note pan="0" key="28" vol="60" pos="720" len="12"/>
          <note pan="0" key="32" vol="60" pos="744" len="12"/>
          <note pan="0" key="28" vol="60" pos="744" len="12"/>
          <note pan="0" key="32" vol="60" pos="756" len="12"/>
          <note pan="0" key="24" vol="60" pos="756" len="12"/>
          <note pan="0" key="28" vol="60" pos="756" len="12"/>
          <note pan="0" key="23" vol="60" pos="768" len="12"/>
          <note pan="0" key="32" vol="60" pos="792" len="12"/>
          <note pan="0" key="23" vol="60" pos="816" len="12"/>
          <note pan="0" key="28" vol="60" pos="816" len="12"/>
          <note pan="0" key="32" vol="60" pos="840" len="12"/>
          <note pan="0" key="32" vol="60" pos="852" len="12"/>
          <note pan="0" key="23" vol="60" pos="864" len="12"/>
          <note pan="0" key="32" vol="60" pos="888" len="12"/>
          <note pan="0" key="23" vol="60" pos="912" len="12"/>
          <note pan="0" key="28" vol="60" pos="912" len="12"/>
          <note pan="0" key="32" vol="60" pos="936" len="12"/>
          <note pan="0" key="32" vol="60" pos="948" len="12"/>
          <note pan="0" key="23" vol="60" pos="960" len="12"/>
          <note pan="0" key="32" vol="60" pos="984" len="12"/>
          <note pan="0" key="23" vol="60" pos="1008" len="12"/>
          <note pan="0" key="28" vol="60" pos="1008" len="12"/>
          <note pan="0" key="32" vol="60" pos="1032" len="12"/>
          <note pan="0" key="32" vol="60" pos="1044" len="12"/>
          <note pan="0" key="23" vol="60" pos="1056" len="12"/>
          <note pan="0" key="32" vol="60" pos="1080" len="12"/>
          <note pan="0" key="23" vol="60" pos="1104" len="12"/>
          <note pan="0" key="28" vol="60" pos="1104" len="12"/>
          <note pan="0" key="32" vol="60" pos="1128" len="12"/>
          <note pan="0" key="32" vol="60" pos="1140" len="12"/>
          <note pan="0" key="23" vol="60" pos="1152" len="12"/>
          <note pan="0" key="32" vol="60" pos="1176" len="12"/>
          <note pan="0" key="23" vol="60" pos="1200" len="12"/>
          <note pan="0" key="28" vol="60" pos="1200" len="12"/>
          <note pan="0" key="32" vol="60" pos="1224" len="12"/>
          <note pan="0" key="32" vol="60" pos="1236" len="12"/>
          <note pan="0" key="23" vol="60" pos="1248" len="12"/>
          <note pan="0" key="32" vol="60" pos="1272" len="12"/>
          <note pan="0" key="23" vol="60" pos="1296" len="12"/>
          <note pan="0" key="28" vol="60" pos="1296" len="12"/>
          <note pan="0" key="32" vol="60" pos="1320" len="12"/>
          <note pan="0" key="32" vol="60" pos="1332" len="12"/>
          <note pan="0" key="23" vol="60" pos="1344" len="12"/>
          <note pan="0" key="32" vol="60" pos="1368" len="12"/>
          <note pan="0" key="23" vol="60" pos="1392" len="12"/>
          <note pan="0" key="28" vol="60" pos="1392" len="12"/>
          <note pan="0" key="32" vol="60" pos="1416" len="12"/>
          <note pan="0" key="32" vol="60" pos="1428" len="12"/>
          <note pan="0" key="23" vol="60" pos="1440" len="12"/>
          <note pan="0" key="32" vol="60" pos="1464" len="12"/>
          <note pan="0" key="23" vol="60" pos="1488" len="12"/>
          <note pan="0" key="28" vol="60" pos="1488" len="12"/>
          <note pan="0" key="32" vol="60" pos="1512" len="12"/>
          <note pan="0" key="32" vol="60" pos="1524" len="12"/>
          <note pan="0" key="23" vol="60" pos="1536" len="12"/>
          <note pan="0" key="32" vol="60" pos="1560" len="12"/>
          <note pan="0" key="23" vol="60" pos="1584" len="12"/>
          <note pan="0" key="28" vol="60" pos="1584" len="12"/>
          <note pan="0" key="32" vol="60" pos="1608" len="12"/>
          <note pan="0" key="32" vol="60" pos="1620" len="12"/>
          <note pan="0" key="23" vol="60" pos="1632" len="12"/>
          <note pan="0" key="32" vol="60" pos="1656" len="12"/>
          <note pan="0" key="23" vol="60" pos="1680" len="12"/>
          <note pan="0" key="28" vol="60" pos="1680" len="12"/>
          <note pan="0" key="32" vol="60" pos="1704" len="12"/>
          <note pan="0" key="32" vol="60" pos="1716" len="12"/>
          <note pan="0" key="23" vol="60" pos="1728" len="12"/>
          <note pan="0" key="32" vol="60" pos="1752" len="12"/>
          <note pan="0" key="23" vol="60" pos="1776" len="12"/>
          <note pan="0" key="28" vol="60" pos="1776" len="12"/>
          <note pan="0" key="32" vol="60" pos="1800" len="12"/>
          <note pan="0" key="32" vol="60" pos="1812" len="12"/>
          <note pan="0" key="23" vol="60" pos="1824" len="12"/>
          <note pan="0" key="32" vol="60" pos="1848" len="12"/>
          <note pan="0" key="23" vol="60" pos="1872" len="12"/>
          <note pan="0" key="28" vol="60" pos="1872" len="12"/>
          <note pan="0" key="32" vol="60" pos="1896" len="12"/>
          <note pan="0" key="32" vol="60" pos="1908" len="12"/>
          <note pan="0" key="23" vol="60" pos="1920" len="12"/>
          <note pan="0" key="32" vol="60" pos="1944" len="12"/>
          <note pan="0" key="23" vol="60" pos="1968" len="12"/>
          <note pan="0" key="28" vol="60" pos="1968" len="12"/>
          <note pan="0" key="32" vol="60" pos="1992" len="12"/>
          <note pan="0" key="32" vol="60" pos="2004" len="12"/>
          <note pan="0" key="23" vol="60" pos="2016" len="12"/>
          <note pan="0" key="32" vol="60" pos="2040" len="12"/>
          <note pan="0" key="23" vol="60" pos="2064" len="12"/>
          <note pan="0" key="28" vol="60" pos="2064" len="12"/>
          <note pan="0" key="32" vol="60" pos="2088" len="12"/>
          <note pan="0" key="32" vol="60" pos="2100" len="12"/>
          <note pan="0" key="23" vol="60" pos="2112" len="12"/>
          <note pan="0" key="32" vol="60" pos="2136" len="12"/>
          <note pan="0" key="23" vol="60" pos="2160" len="12"/>
          <note pan="0" key="28" vol="60" pos="2160" len="12"/>
          <note pan="0" key="32" vol="60" pos="2184" len="12"/>
          <note pan="0" key="32" vol="60" pos="2196" len="12"/>
          <note pan="0" key="23" vol="60" pos="2208" len="12"/>
          <note pan="0" key="32" vol="60" pos="2232" len="12"/>
          <note pan="0" key="23" vol="60" pos="2256" len="12"/>
          <note pan="0" key="28" vol="60" pos="2256" len="12"/>
          <note pan="0" key="32" vol="60" pos="2280" len="12"/>
          <note pan="0" key="32" vol="60" pos="2292" len="12"/>
          <note pan="0" key="23" vol="60" pos="2304" len="12"/>
          <note pan="0" key="32" vol="60" pos="2328" len="12"/>
          <note pan="0" key="23" vol="60" pos="2352" len="12"/>
          <note pan="0" key="28" vol="60" pos="2352" len="12"/>
          <note pan="0" key="32" vol="60" pos="2376" len="12"/>
          <note pan="0" key="32" vol="60" pos="2388" len="12"/>
          <note pan="0" key="23" vol="60" pos="2400" len="12"/>
          <note pan="0" key="32" vol="60" pos="2424" len="12"/>
          <note pan="0" key="23" vol="60" pos="2448" len="12"/>
          <note pan="0" key="28" vol="60" pos="2448" len="12"/>
          <note pan="0" key="32" vol="60" pos="2472" len="12"/>
          <note pan="0" key="32" vol="60" pos="2484" len="12"/>
          <note pan="0" key="23" vol="60" pos="2496" len="12"/>
          <note pan="0" key="32" vol="60" pos="2520" len="12"/>
          <note pan="0" key="23" vol="60" pos="2544" len="12"/>
          <note pan="0" key="28" vol="60" pos="2544" len="12"/>
          <note pan="0" key="32" vol="60" pos="2568" len="12"/>
          <note pan="0" key="32" vol="60" pos="2580" len="12"/>
          <note pan="0" key="23" vol="60" pos="2592" len="12"/>
          <note pan="0" key="32" vol="60" pos="2616" len="12"/>
          <note pan="0" key="23" vol="60" pos="2640" len="12"/>
          <note pan="0" key="28" vol="60" pos="2640" len="12"/>
          <note pan="0" key="32" vol="60" pos="2664" len="12"/>
          <note pan="0" key="32" vol="60" pos="2676" len="12"/>
          <note pan="0" key="23" vol="60" pos="2688" len="12"/>
          <note pan="0" key="32" vol="60" pos="2712" len="12"/>
          <note pan="0" key="23" vol="60" pos="2736" len="12"/>
          <note pan="0" key="28" vol="60" pos="2736" len="12"/>
          <note pan="0" key="32" vol="60" pos="2760" len="12"/>
          <note pan="0" key="32" vol="60" pos="2772" len="12"/>
          <note pan="0" key="23" vol="60" pos="2784" len="12"/>
          <note pan="0" key="32" vol="60" pos="2808" len="12"/>
          <note pan="0" key="23" vol="60" pos="2832" len="12"/>
          <note pan="0" key="28" vol="60" pos="2832" len="12"/>
          <note pan="0" key="32" vol="60" pos="2856" len="12"/>
          <note pan="0" key="32" vol="60" pos="2868" len="12"/>
          <note pan="0" key="23" vol="60" pos="2880" len="12"/>
          <note pan="0" key="32" vol="60" pos="2904" len="12"/>
          <note pan="0" key="23" vol="60" pos="2928" len="12"/>
          <note pan="0" key="28" vol="60" pos="2928" len="12"/>
          <note pan="0" key="32" vol="60" pos="2952" len="12"/>
          <note pan="0" key="32" vol="60" pos="2964" len="12"/>
          <note pan="0" key="23" vol="60" pos="2976" len="12"/>
          <note pan="0" key="32" vol="60" pos="3000" len="12"/>
          <note pan="0" key="23" vol="60" pos="3024" len="12"/>
          <note pan="0" key="28" vol="60" pos="3024" len="12"/>
          <note pan="0" key="32" vol="60" pos="3048" len="12"/>
          <note pan="0" key="32" vol="60" pos="3060" len="12"/>
          <note pan="0" key="23" vol="60" pos="3072" len="12"/>
          <note pan="0" key="32" vol="60" pos="3096" len="12"/>
          <note pan="0" key="23" vol="60" pos="3120" len="12"/>
          <note pan="0" key="28" vol="60" pos="3120" len="12"/>
          <note pan="0" key="32" vol="60" pos="3144" len="12"/>
          <note pan="0" key="32" vol="60" pos="3156" len="12"/>
          <note pan="0" key="23" vol="60" pos="3168" len="12"/>
          <note pan="0" key="32" vol="60" pos="3192" len="12"/>
          <note pan="0" key="23" vol="60" pos="3216" len="12"/>
          <note pan="0" key="28" vol="60" pos="3216" len="12"/>
          <note pan="0" key="32" vol="60" pos="3240" len="12"/>
          <note pan="0" key="32" vol="60" pos="3252" len="12"/>
          <note pan="0" key="23" vol="60" pos="3264" len="12"/>
          <note pan="0" key="32" vol="60" pos="3288" len="12"/>
          <note pan="0" key="23" vol="60" pos="3312" len="12"/>
          <note pan="0" key="28" vol="60" pos="3312" len="12"/>
          <note pan="0" key="32" vol="60" pos="3336" len="12"/>
          <note pan="0" key="32" vol="60" pos="3348" len="12"/>
          <note pan="0" key="23" vol="60" pos="3360" len="12"/>
          <note pan="0" key="32" vol="60" pos="3384" len="12"/>
          <note pan="0" key="23" vol="60" pos="3408" len="12"/>
          <note pan="0" key="28" vol="60" pos="3408" len="12"/>
          <note pan="0" key="32" vol="60" pos="3432" len="12"/>
          <note pan="0" key="32" vol="60" pos="3444" len="12"/>
          <note pan="0" key="23" vol="60" pos="3456" len="12"/>
          <note pan="0" key="32" vol="60" pos="3480" len="12"/>
          <note pan="0" key="23" vol="60" pos="3504" len="12"/>
          <note pan="0" key="28" vol="60" pos="3504" len="12"/>
          <note pan="0" key="32" vol="60" pos="3528" len="12"/>
          <note pan="0" key="32" vol="60" pos="3540" len="12"/>
          <note pan="0" key="23" vol="60" pos="3552" len="12"/>
          <note pan="0" key="32" vol="60" pos="3576" len="12"/>
          <note pan="0" key="23" vol="60" pos="3600" len="12"/>
          <note pan="0" key="28" vol="60" pos="3600" len="12"/>
          <note pan="0" key="32" vol="60" pos="3624" len="12"/>
          <note pan="0" key="32" vol="60" pos="3636" len="12"/>
          <note pan="0" key="23" vol="60" pos="3648" len="12"/>
          <note pan="0" key="32" vol="60" pos="3672" len="12"/>
          <note pan="0" key="23" vol="60" pos="3696" len="12"/>
          <note pan="0" key="28" vol="60" pos="3696" len="12"/>
          <note pan="0" key="32" vol="60" pos="3720" len="12"/>
          <note pan="0" key="32" vol="60" pos="3732" len="12"/>
          <note pan="0" key="23" vol="60" pos="3744" len="12"/>
          <note pan="0" key="32" vol="60" pos="3768" len="12"/>
          <note pan="0" key="23" vol="60" pos="3792" len="12"/>
          <note pan="0" key="28" vol="60" pos="3792" len="12"/>
          <note pan="0" key="32" vol="60" pos="3816" len="12"/>
          <note pan="0" key="32" vol="60" pos="3828" len="12"/>
        </pattern>
      </track>
      <track muted="0" type="0" name="Standard-Preset">
        <instrumenttrack pan="0" fxch="0" pitch="0" basenote="57" vol="100">
          <instrument name="sf2player">
            <sf2player patch="54" chorusLevel="2" chorusDepth="8" reverbOn="0" reverbRoomSize="0.2" chorusOn="0" chorusSpeed="0.3" reverbDamping="0" chorusNum="3" reverbLevel="0.9" bank="0" reverbWidth="0.5" src="C:\VST32\Soundfonts\SF2\GenesiSF.SF2" gain="1"/>
          </instrument>
          <eldata fres="0.5" ftype="0" fcut="14000" fwet="0">
            <elvol lspd_denominator="4" pdel="0" userwavefile="" dec="0.5" lamt="0" syncmode="0" latt="0" rel="0.1" sus="0.5" amt="0" x100="0" att="0" lpdel="0" hold="0.5" lshp="0" lspd="0.1" ctlenvamt="0" lspd_numerator="4"/>
            <elcut lspd_denominator="4" pdel="0" userwavefile="" dec="0.5" lamt="0" syncmode="0" latt="0" rel="0.1" sus="0.5" amt="0" x100="0" att="0" lpdel="0" hold="0.5" lshp="0" lspd="0.1" ctlenvamt="0" lspd_numerator="4"/>
            <elres lspd_denominator="4" pdel="0" userwavefile="" dec="0.5" lamt="0" syncmode="0" latt="0" rel="0.1" sus="0.5" amt="0" x100="0" att="0" lpdel="0" hold="0.5" lshp="0" lspd="0.1" ctlenvamt="0" lspd_numerator="4"/>
          </eldata>
          <chordcreator chord="0" chordrange="1" chord-enabled="0"/>
          <arpeggiator arptime="100" arprange="1" arptime_denominator="4" syncmode="0" arpmode="0" arp-enabled="0" arp="0" arptime_numerator="4" arpdir="0" arpgate="100"/>
          <midiport inputcontroller="0" fixedoutputvelocity="-1" inputchannel="0" outputcontroller="0" writable="0" outputchannel="1" fixedinputvelocity="-1" outputprogram="1" readable="0"/>
          <fxchain numofeffects="0" enabled="0"/>
        </instrumenttrack>
        <pattern steps="16" muted="0" type="1" name="Standard-Preset" pos="0" len="4992" frozen="0">
          <note pan="0" key="47" vol="60" pos="0" len="1152"/>
          <note pan="0" key="43" vol="60" pos="0" len="1152"/>
          <note pan="0" key="40" vol="60" pos="0" len="1152"/>
          <note pan="0" key="47" vol="60" pos="1152" len="768"/>
          <note pan="0" key="43" vol="60" pos="1152" len="768"/>
          <note pan="0" key="40" vol="60" pos="1152" len="768"/>
          <note pan="0" key="47" vol="60" pos="1920" len="1536"/>
          <note pan="0" key="43" vol="60" pos="1920" len="1536"/>
          <note pan="0" key="40" vol="60" pos="1920" len="1536"/>
          <note pan="0" key="47" vol="60" pos="3456" len="1536"/>
          <note pan="0" key="43" vol="60" pos="3456" len="1536"/>
          <note pan="0" key="40" vol="60" pos="3456" len="1536"/>
        </pattern>
      </track>
      <track muted="0" type="0" name="Standard-Preset">
        <instrumenttrack pan="-21.3" fxch="0" pitch="0" basenote="57" vol="88.9">
          <instrument name="sf2player">
            <sf2player patch="27" chorusLevel="2" chorusDepth="8" reverbOn="0" reverbRoomSize="0.2" chorusOn="0" chorusSpeed="0.3" reverbDamping="0" chorusNum="3" reverbLevel="0.9" bank="0" reverbWidth="0.5" src="C:\VST32\Soundfonts\SF2\GenesiSF.SF2" gain="1"/>
          </instrument>
          <eldata fres="0.5" ftype="0" fcut="14000" fwet="0">
            <elvol lspd_denominator="4" pdel="0" userwavefile="" dec="0.5" lamt="0" syncmode="0" latt="0" rel="0.1" sus="0.5" amt="0" x100="0" att="0" lpdel="0" hold="0.5" lshp="0" lspd="0.1" ctlenvamt="0" lspd_numerator="4"/>
            <elcut lspd_denominator="4" pdel="0" userwavefile="" dec="0.5" lamt="0" syncmode="0" latt="0" rel="0.1" sus="0.5" amt="0" x100="0" att="0" lpdel="0" hold="0.5" lshp="0" lspd="0.1" ctlenvamt="0" lspd_numerator="4"/>
            <elres lspd_denominator="4" pdel="0" userwavefile="" dec="0.5" lamt="0" syncmode="0" latt="0" rel="0.1" sus="0.5" amt="0" x100="0" att="0" lpdel="0" hold="0.5" lshp="0" lspd="0.1" ctlenvamt="0" lspd_numerator="4"/>
          </eldata>
          <chordcreator chord="0" chordrange="1" chord-enabled="0"/>
          <arpeggiator arptime="100" arprange="1" arptime_denominator="4" syncmode="0" arpmode="0" arp-enabled="0" arp="0" arptime_numerator="4" arpdir="0" arpgate="100"/>
          <midiport inputcontroller="0" fixedoutputvelocity="-1" inputchannel="0" outputcontroller="0" writable="0" outputchannel="1" fixedinputvelocity="-1" outputprogram="1" readable="0"/>
          <fxchain numofeffects="0" enabled="0"/>
        </instrumenttrack>
        <pattern steps="16" muted="0" type="1" name="Standard-Preset" pos="3456" len="1536" frozen="0">
          <note pan="0" key="52" vol="60" pos="0" len="24"/>
          <note pan="0" key="47" vol="60" pos="24" len="24"/>
          <note pan="0" key="47" vol="60" pos="48" len="24"/>
          <note pan="0" key="55" vol="60" pos="72" len="24"/>
          <note pan="0" key="47" vol="60" pos="96" len="24"/>
          <note pan="0" key="47" vol="60" pos="120" len="24"/>
          <note pan="0" key="59" vol="60" pos="144" len="24"/>
          <note pan="0" key="47" vol="60" pos="168" len="24"/>
          <note pan="0" key="57" vol="60" pos="192" len="24"/>
          <note pan="0" key="47" vol="60" pos="216" len="24"/>
          <note pan="0" key="47" vol="60" pos="240" len="24"/>
          <note pan="0" key="55" vol="60" pos="264" len="24"/>
          <note pan="0" key="47" vol="60" pos="288" len="24"/>
          <note pan="0" key="47" vol="60" pos="312" len="24"/>
          <note pan="0" key="54" vol="60" pos="336" len="24"/>
          <note pan="0" key="47" vol="60" pos="360" len="24"/>
          <note pan="0" key="52" vol="60" pos="384" len="24"/>
          <note pan="0" key="47" vol="60" pos="408" len="24"/>
          <note pan="0" key="47" vol="60" pos="432" len="24"/>
          <note pan="0" key="55" vol="60" pos="456" len="24"/>
          <note pan="0" key="47" vol="60" pos="480" len="24"/>
          <note pan="0" key="47" vol="60" pos="504" len="24"/>
          <note pan="0" key="59" vol="60" pos="528" len="24"/>
          <note pan="0" key="47" vol="60" pos="552" len="24"/>
          <note pan="0" key="57" vol="60" pos="576" len="24"/>
          <note pan="0" key="47" vol="60" pos="600" len="24"/>
          <note pan="0" key="47" vol="60" pos="624" len="24"/>
          <note pan="0" key="55" vol="60" pos="648" len="24"/>
          <note pan="0" key="47" vol="60" pos="672" len="24"/>
          <note pan="0" key="47" vol="60" pos="696" len="24"/>
          <note pan="0" key="54" vol="60" pos="720" len="24"/>
          <note pan="0" key="47" vol="60" pos="744" len="24"/>
          <note pan="0" key="52" vol="60" pos="768" len="24"/>
          <note pan="0" key="47" vol="60" pos="792" len="24"/>
          <note pan="0" key="47" vol="60" pos="816" len="24"/>
          <note pan="0" key="55" vol="60" pos="840" len="24"/>
          <note pan="0" key="47" vol="60" pos="864" len="24"/>
          <note pan="0" key="47" vol="60" pos="888" len="24"/>
          <note pan="0" key="59" vol="60" pos="912" len="24"/>
          <note pan="0" key="47" vol="60" pos="936" len="24"/>
          <note pan="0" key="57" vol="60" pos="960" len="24"/>
          <note pan="0" key="47" vol="60" pos="984" len="24"/>
          <note pan="0" key="47" vol="60" pos="1008" len="24"/>
          <note pan="0" key="55" vol="60" pos="1032" len="24"/>
          <note pan="0" key="47" vol="60" pos="1056" len="24"/>
          <note pan="0" key="47" vol="60" pos="1080" len="24"/>
          <note pan="0" key="54" vol="60" pos="1104" len="24"/>
          <note pan="0" key="47" vol="60" pos="1128" len="24"/>
          <note pan="0" key="50" vol="60" pos="1152" len="24"/>
          <note pan="0" key="45" vol="60" pos="1176" len="24"/>
          <note pan="0" key="45" vol="60" pos="1200" len="24"/>
          <note pan="0" key="54" vol="60" pos="1224" len="24"/>
          <note pan="0" key="45" vol="60" pos="1248" len="24"/>
          <note pan="0" key="45" vol="60" pos="1272" len="24"/>
          <note pan="0" key="57" vol="60" pos="1296" len="24"/>
          <note pan="0" key="45" vol="60" pos="1320" len="24"/>
          <note pan="0" key="55" vol="60" pos="1344" len="24"/>
          <note pan="0" key="45" vol="60" pos="1368" len="24"/>
          <note pan="0" key="45" vol="60" pos="1392" len="24"/>
          <note pan="0" key="54" vol="60" pos="1416" len="24"/>
          <note pan="0" key="45" vol="60" pos="1440" len="24"/>
          <note pan="0" key="45" vol="60" pos="1464" len="24"/>
          <note pan="0" key="50" vol="60" pos="1488" len="24"/>
          <note pan="0" key="47" vol="60" pos="1512" len="24"/>
        </pattern>
      </track>
      <track muted="0" type="0" name="Standard-Preset">
        <instrumenttrack pan="11.8" fxch="0" pitch="0" basenote="57" vol="55.7">
          <instrument name="sf2player">
            <sf2player patch="27" chorusLevel="2" chorusDepth="8" reverbOn="0" reverbRoomSize="0.2" chorusOn="0" chorusSpeed="0.3" reverbDamping="0" chorusNum="3" reverbLevel="0.9" bank="0" reverbWidth="0.5" src="C:\VST32\Soundfonts\SF2\GenesiSF.SF2" gain="1"/>
          </instrument>
          <eldata fres="0.5" ftype="0" fcut="14000" fwet="0">
            <elvol lspd_denominator="4" pdel="0" userwavefile="" dec="0.5" lamt="0" syncmode="0" latt="0" rel="0.1" sus="0.5" amt="0" x100="0" att="0" lpdel="0" hold="0.5" lshp="0" lspd="0.1" ctlenvamt="0" lspd_numerator="4"/>
            <elcut lspd_denominator="4" pdel="0" userwavefile="" dec="0.5" lamt="0" syncmode="0" latt="0" rel="0.1" sus="0.5" amt="0" x100="0" att="0" lpdel="0" hold="0.5" lshp="0" lspd="0.1" ctlenvamt="0" lspd_numerator="4"/>
            <elres lspd_denominator="4" pdel="0" userwavefile="" dec="0.5" lamt="0" syncmode="0" latt="0" rel="0.1" sus="0.5" amt="0" x100="0" att="0" lpdel="0" hold="0.5" lshp="0" lspd="0.1" ctlenvamt="0" lspd_numerator="4"/>
          </eldata>
          <chordcreator chord="0" chordrange="1" chord-enabled="0"/>
          <arpeggiator arptime="100" arprange="1" arptime_denominator="4" syncmode="0" arpmode="0" arp-enabled="0" arp="0" arptime_numerator="4" arpdir="0" arpgate="100"/>
          <midiport inputcontroller="0" fixedoutputvelocity="-1" inputchannel="0" outputcontroller="0" writable="0" outputchannel="1" fixedinputvelocity="-1" outputprogram="1" readable="0"/>
          <fxchain numofeffects="0" enabled="0"/>
        </instrumenttrack>
        <pattern steps="16" muted="0" type="1" name="Standard-Preset" pos="3456" len="1728" frozen="0">
          <note pan="0" key="52" vol="60" pos="12" len="24"/>
          <note pan="0" key="47" vol="60" pos="36" len="24"/>
          <note pan="0" key="47" vol="60" pos="60" len="24"/>
          <note pan="0" key="55" vol="60" pos="84" len="24"/>
          <note pan="0" key="47" vol="60" pos="108" len="24"/>
          <note pan="0" key="47" vol="60" pos="132" len="24"/>
          <note pan="0" key="59" vol="60" pos="156" len="24"/>
          <note pan="0" key="47" vol="60" pos="180" len="24"/>
          <note pan="0" key="57" vol="60" pos="204" len="24"/>
          <note pan="0" key="47" vol="60" pos="228" len="24"/>
          <note pan="0" key="47" vol="60" pos="252" len="24"/>
          <note pan="0" key="55" vol="60" pos="276" len="24"/>
          <note pan="0" key="47" vol="60" pos="300" len="24"/>
          <note pan="0" key="47" vol="60" pos="324" len="24"/>
          <note pan="0" key="54" vol="60" pos="348" len="24"/>
          <note pan="0" key="47" vol="60" pos="372" len="24"/>
          <note pan="0" key="52" vol="60" pos="396" len="24"/>
          <note pan="0" key="47" vol="60" pos="420" len="24"/>
          <note pan="0" key="47" vol="60" pos="444" len="24"/>
          <note pan="0" key="55" vol="60" pos="468" len="24"/>
          <note pan="0" key="47" vol="60" pos="492" len="24"/>
          <note pan="0" key="47" vol="60" pos="516" len="24"/>
          <note pan="0" key="59" vol="60" pos="540" len="24"/>
          <note pan="0" key="47" vol="60" pos="564" len="24"/>
          <note pan="0" key="57" vol="60" pos="588" len="24"/>
          <note pan="0" key="47" vol="60" pos="612" len="24"/>
          <note pan="0" key="47" vol="60" pos="636" len="24"/>
          <note pan="0" key="55" vol="60" pos="660" len="24"/>
          <note pan="0" key="47" vol="60" pos="684" len="24"/>
          <note pan="0" key="47" vol="60" pos="708" len="24"/>
          <note pan="0" key="54" vol="60" pos="732" len="24"/>
          <note pan="0" key="47" vol="60" pos="756" len="24"/>
          <note pan="0" key="52" vol="60" pos="780" len="24"/>
          <note pan="0" key="47" vol="60" pos="804" len="24"/>
          <note pan="0" key="47" vol="60" pos="828" len="24"/>
          <note pan="0" key="55" vol="60" pos="852" len="24"/>
          <note pan="0" key="47" vol="60" pos="876" len="24"/>
          <note pan="0" key="47" vol="60" pos="900" len="24"/>
          <note pan="0" key="59" vol="60" pos="924" len="24"/>
          <note pan="0" key="47" vol="60" pos="948" len="24"/>
          <note pan="0" key="57" vol="60" pos="972" len="24"/>
          <note pan="0" key="47" vol="60" pos="996" len="24"/>
          <note pan="0" key="47" vol="60" pos="1020" len="24"/>
          <note pan="0" key="55" vol="60" pos="1044" len="24"/>
          <note pan="0" key="47" vol="60" pos="1068" len="24"/>
          <note pan="0" key="47" vol="60" pos="1092" len="24"/>
          <note pan="0" key="54" vol="60" pos="1116" len="24"/>
          <note pan="0" key="47" vol="60" pos="1140" len="24"/>
          <note pan="0" key="50" vol="60" pos="1164" len="24"/>
          <note pan="0" key="45" vol="60" pos="1188" len="24"/>
          <note pan="0" key="45" vol="60" pos="1212" len="24"/>
          <note pan="0" key="54" vol="60" pos="1236" len="24"/>
          <note pan="0" key="45" vol="60" pos="1260" len="24"/>
          <note pan="0" key="45" vol="60" pos="1284" len="24"/>
          <note pan="0" key="57" vol="60" pos="1308" len="24"/>
          <note pan="0" key="45" vol="60" pos="1332" len="24"/>
          <note pan="0" key="55" vol="60" pos="1356" len="24"/>
          <note pan="0" key="45" vol="60" pos="1380" len="24"/>
          <note pan="0" key="45" vol="60" pos="1404" len="24"/>
          <note pan="0" key="54" vol="60" pos="1428" len="24"/>
          <note pan="0" key="45" vol="60" pos="1452" len="24"/>
          <note pan="0" key="45" vol="60" pos="1476" len="24"/>
          <note pan="0" key="50" vol="60" pos="1500" len="24"/>
          <note pan="0" key="47" vol="60" pos="1524" len="24"/>
        </pattern>
      </track>
      <track muted="0" type="0" name="Standard-Preset">
        <instrumenttrack pan="0" fxch="0" pitch="0" basenote="57" vol="77.2">
          <instrument name="sf2player">
            <sf2player patch="25" chorusLevel="2" chorusDepth="8" reverbOn="0" reverbRoomSize="0.2" chorusOn="0" chorusSpeed="0.3" reverbDamping="0" chorusNum="3" reverbLevel="0.9" bank="0" reverbWidth="0.5" src="C:\VST32\Soundfonts\SF2\GenesiSF.SF2" gain="1"/>
          </instrument>
          <eldata fres="0.5" ftype="0" fcut="14000" fwet="0">
            <elvol lspd_denominator="4" pdel="0" userwavefile="" dec="0.5" lamt="0" syncmode="0" latt="0" rel="0.1" sus="0.5" amt="0" x100="0" att="0" lpdel="0" hold="0.5" lshp="0" lspd="0.1" ctlenvamt="0" lspd_numerator="4"/>
            <elcut lspd_denominator="4" pdel="0" userwavefile="" dec="0.5" lamt="0" syncmode="0" latt="0" rel="0.1" sus="0.5" amt="0" x100="0" att="0" lpdel="0" hold="0.5" lshp="0" lspd="0.1" ctlenvamt="0" lspd_numerator="4"/>
            <elres lspd_denominator="4" pdel="0" userwavefile="" dec="0.5" lamt="0" syncmode="0" latt="0" rel="0.1" sus="0.5" amt="0" x100="0" att="0" lpdel="0" hold="0.5" lshp="0" lspd="0.1" ctlenvamt="0" lspd_numerator="4"/>
          </eldata>
          <chordcreator chord="0" chordrange="1" chord-enabled="0"/>
          <arpeggiator arptime="100" arprange="1" arptime_denominator="4" syncmode="0" arpmode="0" arp-enabled="0" arp="0" arptime_numerator="4" arpdir="0" arpgate="100"/>
          <midiport inputcontroller="0" fixedoutputvelocity="-1" inputchannel="0" outputcontroller="0" writable="0" outputchannel="1" fixedinputvelocity="-1" outputprogram="1" readable="0"/>
          <fxchain numofeffects="0" enabled="0"/>
        </instrumenttrack>
        <pattern steps="16" muted="0" type="1" name="Standard-Preset" pos="384" len="960" frozen="0">
          <note pan="0" key="52" vol="60" pos="0" len="192"/>
          <note pan="0" key="50" vol="60" pos="192" len="192"/>
          <note pan="0" key="47" vol="60" pos="384" len="192"/>
          <note pan="0" key="45" vol="60" pos="576" len="24"/>
          <note pan="0" key="47" vol="60" pos="600" len="72"/>
          <note pan="0" key="50" vol="60" pos="672" len="72"/>
          <note pan="0" key="47" vol="60" pos="744" len="24"/>
          <note pan="0" key="52" vol="60" pos="768" len="192"/>
        </pattern>
      </track>
      <track muted="0" type="0" name="Standard-Preset">
        <instrumenttrack pan="26" fxch="0" pitch="0" basenote="57" vol="73.2">
          <instrument name="sf2player">
            <sf2player patch="25" chorusLevel="2" chorusDepth="8" reverbOn="0" reverbRoomSize="0.2" chorusOn="0" chorusSpeed="0.3" reverbDamping="0" chorusNum="3" reverbLevel="0.9" bank="0" reverbWidth="0.5" src="C:\VST32\Soundfonts\SF2\GenesiSF.SF2" gain="1"/>
          </instrument>
          <eldata fres="0.5" ftype="0" fcut="14000" fwet="0">
            <elvol lspd_denominator="4" pdel="0" userwavefile="" dec="0.5" lamt="0" syncmode="0" latt="0" rel="0.1" sus="0.5" amt="0" x100="0" att="0" lpdel="0" hold="0.5" lshp="0" lspd="0.1" ctlenvamt="0" lspd_numerator="4"/>
            <elcut lspd_denominator="4" pdel="0" userwavefile="" dec="0.5" lamt="0" syncmode="0" latt="0" rel="0.1" sus="0.5" amt="0" x100="0" att="0" lpdel="0" hold="0.5" lshp="0" lspd="0.1" ctlenvamt="0" lspd_numerator="4"/>
            <elres lspd_denominator="4" pdel="0" userwavefile="" dec="0.5" lamt="0" syncmode="0" latt="0" rel="0.1" sus="0.5" amt="0" x100="0" att="0" lpdel="0" hold="0.5" lshp="0" lspd="0.1" ctlenvamt="0" lspd_numerator="4"/>
          </eldata>
          <chordcreator chord="0" chordrange="1" chord-enabled="0"/>
          <arpeggiator arptime="100" arprange="1" arptime_denominator="4" syncmode="0" arpmode="0" arp-enabled="0" arp="0" arptime_numerator="4" arpdir="0" arpgate="100"/>
          <midiport inputcontroller="0" fixedoutputvelocity="-1" inputchannel="0" outputcontroller="0" writable="0" outputchannel="1" fixedinputvelocity="-1" outputprogram="1" readable="0"/>
          <fxchain numofeffects="0" enabled="0"/>
        </instrumenttrack>
        <pattern steps="16" muted="0" type="1" name="Standard-Preset" pos="384" len="1152" frozen="0">
          <note pan="0" key="52" vol="60" pos="12" len="192"/>
          <note pan="0" key="50" vol="60" pos="204" len="192"/>
          <note pan="0" key="47" vol="60" pos="396" len="192"/>
          <note pan="0" key="45" vol="60" pos="588" len="24"/>
          <note pan="0" key="47" vol="60" pos="612" len="72"/>
          <note pan="0" key="50" vol="60" pos="684" len="72"/>
          <note pan="0" key="47" vol="60" pos="756" len="24"/>
          <note pan="0" key="52" vol="60" pos="780" len="192"/>
        </pattern>
      </track>
      <track muted="0" type="0" name="Standard-Preset">
        <instrumenttrack pan="-26" fxch="0" pitch="0" basenote="57" vol="46.1">
          <instrument name="sf2player">
            <sf2player patch="25" chorusLevel="2" chorusDepth="8" reverbOn="0" reverbRoomSize="0.2" chorusOn="0" chorusSpeed="0.3" reverbDamping="0" chorusNum="3" reverbLevel="0.9" bank="0" reverbWidth="0.5" src="C:\VST32\Soundfonts\SF2\GenesiSF.SF2" gain="1"/>
          </instrument>
          <eldata fres="0.5" ftype="0" fcut="14000" fwet="0">
            <elvol lspd_denominator="4" pdel="0" userwavefile="" dec="0.5" lamt="0" syncmode="0" latt="0" rel="0.1" sus="0.5" amt="0" x100="0" att="0" lpdel="0" hold="0.5" lshp="0" lspd="0.1" ctlenvamt="0" lspd_numerator="4"/>
            <elcut lspd_denominator="4" pdel="0" userwavefile="" dec="0.5" lamt="0" syncmode="0" latt="0" rel="0.1" sus="0.5" amt="0" x100="0" att="0" lpdel="0" hold="0.5" lshp="0" lspd="0.1" ctlenvamt="0" lspd_numerator="4"/>
            <elres lspd_denominator="4" pdel="0" userwavefile="" dec="0.5" lamt="0" syncmode="0" latt="0" rel="0.1" sus="0.5" amt="0" x100="0" att="0" lpdel="0" hold="0.5" lshp="0" lspd="0.1" ctlenvamt="0" lspd_numerator="4"/>
          </eldata>
          <chordcreator chord="0" chordrange="1" chord-enabled="0"/>
          <arpeggiator arptime="100" arprange="1" arptime_denominator="4" syncmode="0" arpmode="0" arp-enabled="0" arp="0" arptime_numerator="4" arpdir="0" arpgate="100"/>
          <midiport inputcontroller="0" fixedoutputvelocity="-1" inputchannel="0" outputcontroller="0" writable="0" outputchannel="1" fixedinputvelocity="-1" outputprogram="1" readable="0"/>
          <fxchain numofeffects="0" enabled="0"/>
        </instrumenttrack>
        <pattern steps="16" muted="0" type="1" name="Standard-Preset" pos="384" len="1152" frozen="0">
          <note pan="0" key="52" vol="60" pos="48" len="192"/>
          <note pan="0" key="50" vol="60" pos="240" len="192"/>
          <note pan="0" key="47" vol="60" pos="432" len="192"/>
          <note pan="0" key="45" vol="60" pos="624" len="24"/>
          <note pan="0" key="47" vol="60" pos="648" len="72"/>
          <note pan="0" key="50" vol="60" pos="720" len="72"/>
          <note pan="0" key="47" vol="60" pos="792" len="24"/>
          <note pan="0" key="52" vol="60" pos="816" len="192"/>
        </pattern>
      </track>
      <track muted="0" type="0" name="Standard-Preset">
        <instrumenttrack pan="0" fxch="0" pitch="0" basenote="57" vol="100">
          <instrument name="sf2player">
            <sf2player patch="50" chorusLevel="2" chorusDepth="8" reverbOn="0" reverbRoomSize="0.2" chorusOn="0" chorusSpeed="0.3" reverbDamping="0" chorusNum="3" reverbLevel="0.9" bank="0" reverbWidth="0.5" src="C:\VST32\Soundfonts\SF2\GenesiSF.SF2" gain="1"/>
          </instrument>
          <eldata fres="0.5" ftype="0" fcut="14000" fwet="0">
            <elvol lspd_denominator="4" pdel="0" userwavefile="" dec="0.5" lamt="0" syncmode="0" latt="0" rel="0.1" sus="0.5" amt="0" x100="0" att="0" lpdel="0" hold="0.5" lshp="0" lspd="0.1" ctlenvamt="0" lspd_numerator="4"/>
            <elcut lspd_denominator="4" pdel="0" userwavefile="" dec="0.5" lamt="0" syncmode="0" latt="0" rel="0.1" sus="0.5" amt="0" x100="0" att="0" lpdel="0" hold="0.5" lshp="0" lspd="0.1" ctlenvamt="0" lspd_numerator="4"/>
            <elres lspd_denominator="4" pdel="0" userwavefile="" dec="0.5" lamt="0" syncmode="0" latt="0" rel="0.1" sus="0.5" amt="0" x100="0" att="0" lpdel="0" hold="0.5" lshp="0" lspd="0.1" ctlenvamt="0" lspd_numerator="4"/>
          </eldata>
          <chordcreator chord="0" chordrange="1" chord-enabled="0"/>
          <arpeggiator arptime="100" arprange="1" arptime_denominator="4" syncmode="0" arpmode="0" arp-enabled="0" arp="0" arptime_numerator="4" arpdir="0" arpgate="100"/>
          <midiport inputcontroller="0" fixedoutputvelocity="-1" inputchannel="0" outputcontroller="0" writable="0" outputchannel="1" fixedinputvelocity="-1" outputprogram="1" readable="0"/>
          <fxchain numofeffects="0" enabled="0"/>
        </instrumenttrack>
        <pattern steps="16" muted="0" type="1" name="Standard-Preset" pos="0" len="4992" frozen="0">
          <note pan="0" key="28" vol="60" pos="0" len="1152"/>
          <note pan="0" key="16" vol="60" pos="0" len="1152"/>
          <note pan="0" key="28" vol="60" pos="1152" len="768"/>
          <note pan="0" key="16" vol="60" pos="1152" len="768"/>
          <note pan="0" key="28" vol="60" pos="1920" len="1536"/>
          <note pan="0" key="16" vol="60" pos="1920" len="1536"/>
          <note pan="0" key="28" vol="60" pos="3456" len="1536"/>
          <note pan="0" key="16" vol="60" pos="3456" len="1536"/>
        </pattern>
      </track>
      <track muted="0" type="0" name="Standard-Preset">
        <instrumenttrack pan="0" fxch="0" pitch="0" basenote="57" vol="66.1">
          <instrument name="sf2player">
            <sf2player patch="28" chorusLevel="2" chorusDepth="8" reverbOn="0" reverbRoomSize="0.2" chorusOn="0" chorusSpeed="0.3" reverbDamping="0" chorusNum="3" reverbLevel="0.9" bank="0" reverbWidth="0.5" src="C:\VST32\Soundfonts\SF2\GenesiSF.SF2" gain="1"/>
          </instrument>
          <eldata fres="0.5" ftype="0" fcut="14000" fwet="0">
            <elvol lspd_denominator="4" pdel="0" userwavefile="" dec="0.5" lamt="0" syncmode="0" latt="0" rel="0.1" sus="0.5" amt="0" x100="0" att="0" lpdel="0" hold="0.5" lshp="0" lspd="0.1" ctlenvamt="0" lspd_numerator="4"/>
            <elcut lspd_denominator="4" pdel="0" userwavefile="" dec="0.5" lamt="0" syncmode="0" latt="0" rel="0.1" sus="0.5" amt="0" x100="0" att="0" lpdel="0" hold="0.5" lshp="0" lspd="0.1" ctlenvamt="0" lspd_numerator="4"/>
            <elres lspd_denominator="4" pdel="0" userwavefile="" dec="0.5" lamt="0" syncmode="0" latt="0" rel="0.1" sus="0.5" amt="0" x100="0" att="0" lpdel="0" hold="0.5" lshp="0" lspd="0.1" ctlenvamt="0" lspd_numerator="4"/>
          </eldata>
          <chordcreator chord="0" chordrange="1" chord-enabled="0"/>
          <arpeggiator arptime="100" arprange="1" arptime_denominator="4" syncmode="0" arpmode="0" arp-enabled="0" arp="0" arptime_numerator="4" arpdir="0" arpgate="100"/>
          <midiport inputcontroller="0" fixedoutputvelocity="-1" inputchannel="0" outputcontroller="0" writable="0" outputchannel="1" fixedinputvelocity="-1" outputprogram="1" readable="0"/>
          <fxchain numofeffects="0" enabled="0"/>
        </instrumenttrack>
        <pattern steps="16" muted="0" type="1" name="Standard-Preset" pos="0" len="4992" frozen="0">
          <note pan="0" key="76" vol="60" pos="0" len="2"/>
          <note pan="0" key="71" vol="60" pos="12" len="2"/>
          <note pan="0" key="67" vol="60" pos="24" len="2"/>
          <note pan="0" key="64" vol="60" pos="36" len="2"/>
          <note pan="0" key="76" vol="60" pos="48" len="2"/>
          <note pan="0" key="71" vol="60" pos="60" len="2"/>
          <note pan="0" key="67" vol="60" pos="72" len="2"/>
          <note pan="0" key="64" vol="60" pos="84" len="2"/>
          <note pan="0" key="76" vol="60" pos="96" len="2"/>
          <note pan="0" key="71" vol="60" pos="108" len="2"/>
          <note pan="0" key="67" vol="60" pos="120" len="2"/>
          <note pan="0" key="64" vol="60" pos="132" len="2"/>
          <note pan="0" key="76" vol="60" pos="144" len="2"/>
          <note pan="0" key="71" vol="60" pos="156" len="2"/>
          <note pan="0" key="67" vol="60" pos="168" len="2"/>
          <note pan="0" key="64" vol="60" pos="180" len="2"/>
          <note pan="0" key="76" vol="60" pos="192" len="2"/>
          <note pan="0" key="71" vol="60" pos="204" len="2"/>
          <note pan="0" key="67" vol="60" pos="216" len="2"/>
          <note pan="0" key="64" vol="60" pos="228" len="2"/>
          <note pan="0" key="76" vol="60" pos="240" len="2"/>
          <note pan="0" key="71" vol="60" pos="252" len="2"/>
          <note pan="0" key="67" vol="60" pos="264" len="2"/>
          <note pan="0" key="64" vol="60" pos="276" len="2"/>
          <note pan="0" key="76" vol="60" pos="288" len="2"/>
          <note pan="0" key="71" vol="60" pos="300" len="2"/>
          <note pan="0" key="67" vol="60" pos="312" len="2"/>
          <note pan="0" key="64" vol="60" pos="324" len="2"/>
          <note pan="0" key="76" vol="60" pos="336" len="2"/>
          <note pan="0" key="71" vol="60" pos="348" len="2"/>
          <note pan="0" key="67" vol="60" pos="360" len="2"/>
          <note pan="0" key="64" vol="60" pos="372" len="2"/>
          <note pan="0" key="76" vol="60" pos="384" len="2"/>
          <note pan="0" key="71" vol="60" pos="396" len="2"/>
          <note pan="0" key="67" vol="60" pos="408" len="2"/>
          <note pan="0" key="64" vol="60" pos="420" len="2"/>
          <note pan="0" key="76" vol="60" pos="432" len="2"/>
          <note pan="0" key="71" vol="60" pos="444" len="2"/>
          <note pan="0" key="67" vol="60" pos="456" len="2"/>
          <note pan="0" key="64" vol="60" pos="468" len="2"/>
          <note pan="0" key="76" vol="60" pos="480" len="2"/>
          <note pan="0" key="71" vol="60" pos="492" len="2"/>
          <note pan="0" key="67" vol="60" pos="504" len="2"/>
          <note pan="0" key="64" vol="60" pos="516" len="2"/>
          <note pan="0" key="76" vol="60" pos="528" len="2"/>
          <note pan="0" key="71" vol="60" pos="540" len="2"/>
          <note pan="0" key="67" vol="60" pos="552" len="2"/>
          <note pan="0" key="64" vol="60" pos="564" len="2"/>
          <note pan="0" key="76" vol="60" pos="576" len="2"/>
          <note pan="0" key="71" vol="60" pos="588" len="2"/>
          <note pan="0" key="67" vol="60" pos="600" len="2"/>
          <note pan="0" key="64" vol="60" pos="612" len="2"/>
          <note pan="0" key="76" vol="60" pos="624" len="2"/>
          <note pan="0" key="71" vol="60" pos="636" len="2"/>
          <note pan="0" key="67" vol="60" pos="648" len="2"/>
          <note pan="0" key="64" vol="60" pos="660" len="2"/>
          <note pan="0" key="76" vol="60" pos="672" len="2"/>
          <note pan="0" key="71" vol="60" pos="684" len="2"/>
          <note pan="0" key="67" vol="60" pos="696" len="2"/>
          <note pan="0" key="64" vol="60" pos="708" len="2"/>
          <note pan="0" key="76" vol="60" pos="720" len="2"/>
          <note pan="0" key="71" vol="60" pos="732" len="2"/>
          <note pan="0" key="67" vol="60" pos="744" len="2"/>
          <note pan="0" key="64" vol="60" pos="756" len="2"/>
          <note pan="0" key="76" vol="60" pos="768" len="2"/>
          <note pan="0" key="71" vol="60" pos="780" len="2"/>
          <note pan="0" key="67" vol="60" pos="792" len="2"/>
          <note pan="0" key="64" vol="60" pos="804" len="2"/>
          <note pan="0" key="76" vol="60" pos="816" len="2"/>
          <note pan="0" key="71" vol="60" pos="828" len="2"/>
          <note pan="0" key="67" vol="60" pos="840" len="2"/>
          <note pan="0" key="64" vol="60" pos="852" len="2"/>
          <note pan="0" key="76" vol="60" pos="864" len="2"/>
          <note pan="0" key="71" vol="60" pos="876" len="2"/>
          <note pan="0" key="67" vol="60" pos="888" len="2"/>
          <note pan="0" key="64" vol="60" pos="900" len="2"/>
          <note pan="0" key="76" vol="60" pos="912" len="2"/>
          <note pan="0" key="71" vol="60" pos="924" len="2"/>
          <note pan="0" key="67" vol="60" pos="936" len="2"/>
          <note pan="0" key="64" vol="60" pos="948" len="2"/>
          <note pan="0" key="76" vol="60" pos="960" len="2"/>
          <note pan="0" key="71" vol="60" pos="972" len="2"/>
          <note pan="0" key="67" vol="60" pos="984" len="2"/>
          <note pan="0" key="64" vol="60" pos="996" len="2"/>
          <note pan="0" key="76" vol="60" pos="1008" len="2"/>
          <note pan="0" key="71" vol="60" pos="1020" len="2"/>
          <note pan="0" key="67" vol="60" pos="1032" len="2"/>
          <note pan="0" key="64" vol="60" pos="1044" len="2"/>
          <note pan="0" key="76" vol="60" pos="1056" len="2"/>
          <note pan="0" key="71" vol="60" pos="1068" len="2"/>
          <note pan="0" key="67" vol="60" pos="1080" len="2"/>
          <note pan="0" key="64" vol="60" pos="1092" len="2"/>
          <note pan="0" key="76" vol="60" pos="1104" len="2"/>
          <note pan="0" key="71" vol="60" pos="1116" len="2"/>
          <note pan="0" key="67" vol="60" pos="1128" len="2"/>
          <note pan="0" key="64" vol="60" pos="1140" len="2"/>
          <note pan="0" key="76" vol="60" pos="1152" len="2"/>
          <note pan="0" key="71" vol="60" pos="1164" len="2"/>
          <note pan="0" key="67" vol="60" pos="1176" len="2"/>
          <note pan="0" key="64" vol="60" pos="1188" len="2"/>
          <note pan="0" key="76" vol="60" pos="1200" len="2"/>
          <note pan="0" key="71" vol="60" pos="1212" len="2"/>
          <note pan="0" key="67" vol="60" pos="1224" len="2"/>
          <note pan="0" key="64" vol="60" pos="1236" len="2"/>
          <note pan="0" key="76" vol="60" pos="1248" len="2"/>
          <note pan="0" key="71" vol="60" pos="1260" len="2"/>
          <note pan="0" key="67" vol="60" pos="1272" len="2"/>
          <note pan="0" key="64" vol="60" pos="1284" len="2"/>
          <note pan="0" key="76" vol="60" pos="1296" len="2"/>
          <note pan="0" key="71" vol="60" pos="1308" len="2"/>
          <note pan="0" key="67" vol="60" pos="1320" len="2"/>
          <note pan="0" key="64" vol="60" pos="1332" len="2"/>
          <note pan="0" key="76" vol="60" pos="1344" len="2"/>
          <note pan="0" key="71" vol="60" pos="1356" len="2"/>
          <note pan="0" key="67" vol="60" pos="1368" len="2"/>
          <note pan="0" key="64" vol="60" pos="1380" len="2"/>
          <note pan="0" key="76" vol="60" pos="1392" len="2"/>
          <note pan="0" key="71" vol="60" pos="1404" len="2"/>
          <note pan="0" key="67" vol="60" pos="1416" len="2"/>
          <note pan="0" key="64" vol="60" pos="1428" len="2"/>
          <note pan="0" key="76" vol="60" pos="1440" len="2"/>
          <note pan="0" key="71" vol="60" pos="1452" len="2"/>
          <note pan="0" key="67" vol="60" pos="1464" len="2"/>
          <note pan="0" key="64" vol="60" pos="1476" len="2"/>
          <note pan="0" key="76" vol="60" pos="1488" len="2"/>
          <note pan="0" key="71" vol="60" pos="1500" len="2"/>
          <note pan="0" key="67" vol="60" pos="1512" len="2"/>
          <note pan="0" key="64" vol="60" pos="1524" len="2"/>
          <note pan="0" key="76" vol="60" pos="1536" len="2"/>
          <note pan="0" key="71" vol="60" pos="1548" len="2"/>
          <note pan="0" key="67" vol="60" pos="1560" len="2"/>
          <note pan="0" key="64" vol="60" pos="1572" len="2"/>
          <note pan="0" key="76" vol="60" pos="1584" len="2"/>
          <note pan="0" key="71" vol="60" pos="1596" len="2"/>
          <note pan="0" key="67" vol="60" pos="1608" len="2"/>
          <note pan="0" key="64" vol="60" pos="1620" len="2"/>
          <note pan="0" key="76" vol="60" pos="1632" len="2"/>
          <note pan="0" key="71" vol="60" pos="1644" len="2"/>
          <note pan="0" key="67" vol="60" pos="1656" len="2"/>
          <note pan="0" key="64" vol="60" pos="1668" len="2"/>
          <note pan="0" key="76" vol="60" pos="1680" len="2"/>
          <note pan="0" key="71" vol="60" pos="1692" len="2"/>
          <note pan="0" key="67" vol="60" pos="1704" len="2"/>
          <note pan="0" key="64" vol="60" pos="1716" len="2"/>
          <note pan="0" key="76" vol="60" pos="1728" len="2"/>
          <note pan="0" key="71" vol="60" pos="1740" len="2"/>
          <note pan="0" key="67" vol="60" pos="1752" len="2"/>
          <note pan="0" key="64" vol="60" pos="1764" len="2"/>
          <note pan="0" key="76" vol="60" pos="1776" len="2"/>
          <note pan="0" key="71" vol="60" pos="1788" len="2"/>
          <note pan="0" key="67" vol="60" pos="1800" len="2"/>
          <note pan="0" key="64" vol="60" pos="1812" len="2"/>
          <note pan="0" key="76" vol="60" pos="1824" len="2"/>
          <note pan="0" key="71" vol="60" pos="1836" len="2"/>
          <note pan="0" key="67" vol="60" pos="1848" len="2"/>
          <note pan="0" key="64" vol="60" pos="1860" len="2"/>
          <note pan="0" key="76" vol="60" pos="1872" len="2"/>
          <note pan="0" key="71" vol="60" pos="1884" len="2"/>
          <note pan="0" key="67" vol="60" pos="1896" len="2"/>
          <note pan="0" key="64" vol="60" pos="1908" len="2"/>
          <note pan="0" key="76" vol="60" pos="1920" len="2"/>
          <note pan="0" key="71" vol="60" pos="1932" len="2"/>
          <note pan="0" key="67" vol="60" pos="1944" len="2"/>
          <note pan="0" key="64" vol="60" pos="1956" len="2"/>
          <note pan="0" key="76" vol="60" pos="1968" len="2"/>
          <note pan="0" key="71" vol="60" pos="1980" len="2"/>
          <note pan="0" key="67" vol="60" pos="1992" len="2"/>
          <note pan="0" key="64" vol="60" pos="2004" len="2"/>
          <note pan="0" key="76" vol="60" pos="2016" len="2"/>
          <note pan="0" key="71" vol="60" pos="2028" len="2"/>
          <note pan="0" key="67" vol="60" pos="2040" len="2"/>
          <note pan="0" key="64" vol="60" pos="2052" len="2"/>
          <note pan="0" key="76" vol="60" pos="2064" len="2"/>
          <note pan="0" key="71" vol="60" pos="2076" len="2"/>
          <note pan="0" key="67" vol="60" pos="2088" len="2"/>
          <note pan="0" key="64" vol="60" pos="2100" len="2"/>
          <note pan="0" key="74" vol="60" pos="2112" len="2"/>
          <note pan="0" key="69" vol="60" pos="2124" len="2"/>
          <note pan="0" key="66" vol="60" pos="2136" len="2"/>
          <note pan="0" key="62" vol="60" pos="2148" len="2"/>
          <note pan="0" key="74" vol="60" pos="2160" len="2"/>
          <note pan="0" key="69" vol="60" pos="2172" len="2"/>
          <note pan="0" key="66" vol="60" pos="2184" len="2"/>
          <note pan="0" key="62" vol="60" pos="2196" len="2"/>
          <note pan="0" key="74" vol="60" pos="2208" len="2"/>
          <note pan="0" key="69" vol="60" pos="2220" len="2"/>
          <note pan="0" key="66" vol="60" pos="2232" len="2"/>
          <note pan="0" key="62" vol="60" pos="2244" len="2"/>
          <note pan="0" key="74" vol="60" pos="2256" len="2"/>
          <note pan="0" key="69" vol="60" pos="2268" len="2"/>
          <note pan="0" key="66" vol="60" pos="2280" len="2"/>
          <note pan="0" key="62" vol="60" pos="2292" len="2"/>
          <note pan="0" key="76" vol="60" pos="2304" len="2"/>
          <note pan="0" key="71" vol="60" pos="2316" len="2"/>
          <note pan="0" key="67" vol="60" pos="2328" len="2"/>
          <note pan="0" key="64" vol="60" pos="2340" len="2"/>
          <note pan="0" key="76" vol="60" pos="2352" len="2"/>
          <note pan="0" key="71" vol="60" pos="2364" len="2"/>
          <note pan="0" key="67" vol="60" pos="2376" len="2"/>
          <note pan="0" key="64" vol="60" pos="2388" len="2"/>
          <note pan="0" key="76" vol="60" pos="2400" len="2"/>
          <note pan="0" key="71" vol="60" pos="2412" len="2"/>
          <note pan="0" key="67" vol="60" pos="2424" len="2"/>
          <note pan="0" key="64" vol="60" pos="2436" len="2"/>
          <note pan="0" key="76" vol="60" pos="2448" len="2"/>
          <note pan="0" key="71" vol="60" pos="2460" len="2"/>
          <note pan="0" key="67" vol="60" pos="2472" len="2"/>
          <note pan="0" key="64" vol="60" pos="2484" len="2"/>
          <note pan="0" key="74" vol="60" pos="2496" len="2"/>
          <note pan="0" key="69" vol="60" pos="2508" len="2"/>
          <note pan="0" key="66" vol="60" pos="2520" len="2"/>
          <note pan="0" key="62" vol="60" pos="2532" len="2"/>
          <note pan="0" key="74" vol="60" pos="2544" len="2"/>
          <note pan="0" key="69" vol="60" pos="2556" len="2"/>
          <note pan="0" key="66" vol="60" pos="2568" len="2"/>
          <note pan="0" key="62" vol="60" pos="2580" len="2"/>
          <note pan="0" key="74" vol="60" pos="2592" len="2"/>
          <note pan="0" key="69" vol="60" pos="2604" len="2"/>
          <note pan="0" key="66" vol="60" pos="2616" len="2"/>
          <note pan="0" key="62" vol="60" pos="2628" len="2"/>
          <note pan="0" key="74" vol="60" pos="2640" len="2"/>
          <note pan="0" key="69" vol="60" pos="2652" len="2"/>
          <note pan="0" key="66" vol="60" pos="2664" len="2"/>
          <note pan="0" key="62" vol="60" pos="2676" len="2"/>
          <note pan="0" key="76" vol="60" pos="2688" len="2"/>
          <note pan="0" key="71" vol="60" pos="2700" len="2"/>
          <note pan="0" key="67" vol="60" pos="2712" len="2"/>
          <note pan="0" key="64" vol="60" pos="2724" len="2"/>
          <note pan="0" key="76" vol="60" pos="2736" len="2"/>
          <note pan="0" key="71" vol="60" pos="2748" len="2"/>
          <note pan="0" key="67" vol="60" pos="2760" len="2"/>
          <note pan="0" key="64" vol="60" pos="2772" len="2"/>
          <note pan="0" key="76" vol="60" pos="2784" len="2"/>
          <note pan="0" key="71" vol="60" pos="2796" len="2"/>
          <note pan="0" key="67" vol="60" pos="2808" len="2"/>
          <note pan="0" key="64" vol="60" pos="2820" len="2"/>
          <note pan="0" key="76" vol="60" pos="2832" len="2"/>
          <note pan="0" key="71" vol="60" pos="2844" len="2"/>
          <note pan="0" key="67" vol="60" pos="2856" len="2"/>
          <note pan="0" key="64" vol="60" pos="2868" len="2"/>
          <note pan="0" key="74" vol="60" pos="2880" len="2"/>
          <note pan="0" key="69" vol="60" pos="2892" len="2"/>
          <note pan="0" key="66" vol="60" pos="2904" len="2"/>
          <note pan="0" key="62" vol="60" pos="2916" len="2"/>
          <note pan="0" key="74" vol="60" pos="2928" len="2"/>
          <note pan="0" key="69" vol="60" pos="2940" len="2"/>
          <note pan="0" key="66" vol="60" pos="2952" len="2"/>
          <note pan="0" key="62" vol="60" pos="2964" len="2"/>
          <note pan="0" key="74" vol="60" pos="2976" len="2"/>
          <note pan="0" key="69" vol="60" pos="2988" len="2"/>
          <note pan="0" key="66" vol="60" pos="3000" len="2"/>
          <note pan="0" key="62" vol="60" pos="3012" len="2"/>
          <note pan="0" key="74" vol="60" pos="3024" len="2"/>
          <note pan="0" key="69" vol="60" pos="3036" len="2"/>
          <note pan="0" key="66" vol="60" pos="3048" len="2"/>
          <note pan="0" key="62" vol="60" pos="3060" len="2"/>
          <note pan="0" key="76" vol="60" pos="3072" len="2"/>
          <note pan="0" key="71" vol="60" pos="3084" len="2"/>
          <note pan="0" key="67" vol="60" pos="3096" len="2"/>
          <note pan="0" key="64" vol="60" pos="3108" len="2"/>
          <note pan="0" key="76" vol="60" pos="3120" len="2"/>
          <note pan="0" key="71" vol="60" pos="3132" len="2"/>
          <note pan="0" key="67" vol="60" pos="3144" len="2"/>
          <note pan="0" key="64" vol="60" pos="3156" len="2"/>
          <note pan="0" key="76" vol="60" pos="3168" len="2"/>
          <note pan="0" key="71" vol="60" pos="3180" len="2"/>
          <note pan="0" key="67" vol="60" pos="3192" len="2"/>
          <note pan="0" key="64" vol="60" pos="3204" len="2"/>
          <note pan="0" key="76" vol="60" pos="3216" len="2"/>
          <note pan="0" key="71" vol="60" pos="3228" len="2"/>
          <note pan="0" key="67" vol="60" pos="3240" len="2"/>
          <note pan="0" key="64" vol="60" pos="3252" len="2"/>
          <note pan="0" key="74" vol="60" pos="3264" len="2"/>
          <note pan="0" key="69" vol="60" pos="3276" len="2"/>
          <note pan="0" key="66" vol="60" pos="3288" len="2"/>
          <note pan="0" key="62" vol="60" pos="3300" len="2"/>
          <note pan="0" key="74" vol="60" pos="3312" len="2"/>
          <note pan="0" key="69" vol="60" pos="3324" len="2"/>
          <note pan="0" key="66" vol="60" pos="3336" len="2"/>
          <note pan="0" key="62" vol="60" pos="3348" len="2"/>
          <note pan="0" key="74" vol="60" pos="3360" len="2"/>
          <note pan="0" key="69" vol="60" pos="3372" len="2"/>
          <note pan="0" key="66" vol="60" pos="3384" len="2"/>
          <note pan="0" key="62" vol="60" pos="3396" len="2"/>
          <note pan="0" key="74" vol="60" pos="3408" len="2"/>
          <note pan="0" key="69" vol="60" pos="3420" len="2"/>
          <note pan="0" key="66" vol="60" pos="3432" len="2"/>
          <note pan="0" key="62" vol="60" pos="3444" len="2"/>
          <note pan="0" key="76" vol="60" pos="3456" len="2"/>
          <note pan="0" key="71" vol="60" pos="3468" len="2"/>
          <note pan="0" key="67" vol="60" pos="3480" len="2"/>
          <note pan="0" key="64" vol="60" pos="3492" len="2"/>
          <note pan="0" key="76" vol="60" pos="3504" len="2"/>
          <note pan="0" key="71" vol="60" pos="3516" len="2"/>
          <note pan="0" key="67" vol="60" pos="3528" len="2"/>
          <note pan="0" key="64" vol="60" pos="3540" len="2"/>
          <note pan="0" key="76" vol="60" pos="3552" len="2"/>
          <note pan="0" key="71" vol="60" pos="3564" len="2"/>
          <note pan="0" key="67" vol="60" pos="3576" len="2"/>
          <note pan="0" key="64" vol="60" pos="3588" len="2"/>
          <note pan="0" key="76" vol="60" pos="3600" len="2"/>
          <note pan="0" key="71" vol="60" pos="3612" len="2"/>
          <note pan="0" key="67" vol="60" pos="3624" len="2"/>
          <note pan="0" key="64" vol="60" pos="3636" len="2"/>
          <note pan="0" key="74" vol="60" pos="3648" len="2"/>
          <note pan="0" key="69" vol="60" pos="3660" len="2"/>
          <note pan="0" key="66" vol="60" pos="3672" len="2"/>
          <note pan="0" key="62" vol="60" pos="3684" len="2"/>
          <note pan="0" key="74" vol="60" pos="3696" len="2"/>
          <note pan="0" key="69" vol="60" pos="3708" len="2"/>
          <note pan="0" key="66" vol="60" pos="3720" len="2"/>
          <note pan="0" key="62" vol="60" pos="3732" len="2"/>
          <note pan="0" key="74" vol="60" pos="3744" len="2"/>
          <note pan="0" key="69" vol="60" pos="3756" len="2"/>
          <note pan="0" key="66" vol="60" pos="3768" len="2"/>
          <note pan="0" key="62" vol="60" pos="3780" len="2"/>
          <note pan="0" key="74" vol="60" pos="3792" len="2"/>
          <note pan="0" key="69" vol="60" pos="3804" len="2"/>
          <note pan="0" key="66" vol="60" pos="3816" len="2"/>
          <note pan="0" key="62" vol="60" pos="3828" len="2"/>
          <note pan="0" key="76" vol="60" pos="3840" len="2"/>
          <note pan="0" key="71" vol="60" pos="3852" len="2"/>
          <note pan="0" key="67" vol="60" pos="3864" len="2"/>
          <note pan="0" key="64" vol="60" pos="3876" len="2"/>
          <note pan="0" key="76" vol="60" pos="3888" len="2"/>
          <note pan="0" key="71" vol="60" pos="3900" len="2"/>
          <note pan="0" key="67" vol="60" pos="3912" len="2"/>
          <note pan="0" key="64" vol="60" pos="3924" len="2"/>
          <note pan="0" key="76" vol="60" pos="3936" len="2"/>
          <note pan="0" key="71" vol="60" pos="3948" len="2"/>
          <note pan="0" key="67" vol="60" pos="3960" len="2"/>
          <note pan="0" key="64" vol="60" pos="3972" len="2"/>
          <note pan="0" key="76" vol="60" pos="3984" len="2"/>
          <note pan="0" key="71" vol="60" pos="3996" len="2"/>
          <note pan="0" key="67" vol="60" pos="4008" len="2"/>
          <note pan="0" key="64" vol="60" pos="4020" len="2"/>
          <note pan="0" key="74" vol="60" pos="4032" len="2"/>
          <note pan="0" key="69" vol="60" pos="4044" len="2"/>
          <note pan="0" key="66" vol="60" pos="4056" len="2"/>
          <note pan="0" key="62" vol="60" pos="4068" len="2"/>
          <note pan="0" key="74" vol="60" pos="4080" len="2"/>
          <note pan="0" key="69" vol="60" pos="4092" len="2"/>
          <note pan="0" key="66" vol="60" pos="4104" len="2"/>
          <note pan="0" key="62" vol="60" pos="4116" len="2"/>
          <note pan="0" key="74" vol="60" pos="4128" len="2"/>
          <note pan="0" key="69" vol="60" pos="4140" len="2"/>
          <note pan="0" key="66" vol="60" pos="4152" len="2"/>
          <note pan="0" key="62" vol="60" pos="4164" len="2"/>
          <note pan="0" key="74" vol="60" pos="4176" len="2"/>
          <note pan="0" key="69" vol="60" pos="4188" len="2"/>
          <note pan="0" key="66" vol="60" pos="4200" len="2"/>
          <note pan="0" key="62" vol="60" pos="4212" len="2"/>
          <note pan="0" key="76" vol="60" pos="4224" len="2"/>
          <note pan="0" key="71" vol="60" pos="4236" len="2"/>
          <note pan="0" key="67" vol="60" pos="4248" len="2"/>
          <note pan="0" key="64" vol="60" pos="4260" len="2"/>
          <note pan="0" key="76" vol="60" pos="4272" len="2"/>
          <note pan="0" key="71" vol="60" pos="4284" len="2"/>
          <note pan="0" key="67" vol="60" pos="4296" len="2"/>
          <note pan="0" key="64" vol="60" pos="4308" len="2"/>
          <note pan="0" key="76" vol="60" pos="4320" len="2"/>
          <note pan="0" key="71" vol="60" pos="4332" len="2"/>
          <note pan="0" key="67" vol="60" pos="4344" len="2"/>
          <note pan="0" key="64" vol="60" pos="4356" len="2"/>
          <note pan="0" key="76" vol="60" pos="4368" len="2"/>
          <note pan="0" key="71" vol="60" pos="4380" len="2"/>
          <note pan="0" key="67" vol="60" pos="4392" len="2"/>
          <note pan="0" key="64" vol="60" pos="4404" len="2"/>
          <note pan="0" key="74" vol="60" pos="4416" len="2"/>
          <note pan="0" key="69" vol="60" pos="4428" len="2"/>
          <note pan="0" key="66" vol="60" pos="4440" len="2"/>
          <note pan="0" key="62" vol="60" pos="4452" len="2"/>
          <note pan="0" key="74" vol="60" pos="4464" len="2"/>
          <note pan="0" key="69" vol="60" pos="4476" len="2"/>
          <note pan="0" key="66" vol="60" pos="4488" len="2"/>
          <note pan="0" key="62" vol="60" pos="4500" len="2"/>
          <note pan="0" key="74" vol="60" pos="4512" len="2"/>
          <note pan="0" key="69" vol="60" pos="4524" len="2"/>
          <note pan="0" key="66" vol="60" pos="4536" len="2"/>
          <note pan="0" key="62" vol="60" pos="4548" len="2"/>
          <note pan="0" key="74" vol="60" pos="4560" len="2"/>
          <note pan="0" key="69" vol="60" pos="4572" len="2"/>
          <note pan="0" key="66" vol="60" pos="4584" len="2"/>
          <note pan="0" key="62" vol="60" pos="4596" len="2"/>
          <note pan="0" key="74" vol="60" pos="4608" len="2"/>
          <note pan="0" key="69" vol="60" pos="4620" len="2"/>
          <note pan="0" key="66" vol="60" pos="4632" len="2"/>
          <note pan="0" key="62" vol="60" pos="4644" len="2"/>
          <note pan="0" key="74" vol="60" pos="4656" len="2"/>
          <note pan="0" key="69" vol="60" pos="4668" len="2"/>
          <note pan="0" key="66" vol="60" pos="4680" len="2"/>
          <note pan="0" key="62" vol="60" pos="4692" len="2"/>
          <note pan="0" key="74" vol="60" pos="4704" len="2"/>
          <note pan="0" key="69" vol="60" pos="4716" len="2"/>
          <note pan="0" key="66" vol="60" pos="4728" len="2"/>
          <note pan="0" key="62" vol="60" pos="4740" len="2"/>
          <note pan="0" key="74" vol="60" pos="4752" len="2"/>
          <note pan="0" key="69" vol="60" pos="4764" len="2"/>
          <note pan="0" key="66" vol="60" pos="4776" len="2"/>
          <note pan="0" key="62" vol="60" pos="4788" len="2"/>
          <note pan="0" key="74" vol="60" pos="4800" len="2"/>
          <note pan="0" key="69" vol="60" pos="4812" len="2"/>
          <note pan="0" key="66" vol="60" pos="4824" len="2"/>
          <note pan="0" key="62" vol="60" pos="4836" len="2"/>
          <note pan="0" key="74" vol="60" pos="4848" len="2"/>
          <note pan="0" key="69" vol="60" pos="4860" len="2"/>
          <note pan="0" key="66" vol="60" pos="4872" len="2"/>
          <note pan="0" key="62" vol="60" pos="4884" len="2"/>
          <note pan="0" key="74" vol="60" pos="4896" len="2"/>
          <note pan="0" key="69" vol="60" pos="4908" len="2"/>
          <note pan="0" key="66" vol="60" pos="4920" len="2"/>
          <note pan="0" key="62" vol="60" pos="4932" len="2"/>
          <note pan="0" key="74" vol="60" pos="4944" len="2"/>
          <note pan="0" key="69" vol="60" pos="4956" len="2"/>
          <note pan="0" key="66" vol="60" pos="4968" len="2"/>
          <note pan="0" key="62" vol="60" pos="4980" len="2"/>
        </pattern>
      </track>
      <track muted="0" type="0" name="tracknames">
        <instrumenttrack pan="5.5" fxch="0" pitch="0" basenote="57" vol="43.3">
          <instrument name="sf2player">
            <sf2player patch="28" chorusLevel="2" chorusDepth="8" reverbOn="0" reverbRoomSize="0.2" chorusOn="0" chorusSpeed="0.3" reverbDamping="0" chorusNum="3" reverbLevel="0.9" bank="0" reverbWidth="0.5" src="C:\VST32\Soundfonts\SF2\GenesiSF.SF2" gain="1"/>
          </instrument>
          <eldata fres="0.5" ftype="0" fcut="14000" fwet="0">
            <elvol lspd_denominator="4" pdel="0" userwavefile="" dec="0.5" lamt="0" syncmode="0" latt="0" rel="0.1" sus="0.5" amt="0" x100="0" att="0" lpdel="0" hold="0.5" lshp="0" lspd="0.1" ctlenvamt="0" lspd_numerator="4"/>
            <elcut lspd_denominator="4" pdel="0" userwavefile="" dec="0.5" lamt="0" syncmode="0" latt="0" rel="0.1" sus="0.5" amt="0" x100="0" att="0" lpdel="0" hold="0.5" lshp="0" lspd="0.1" ctlenvamt="0" lspd_numerator="4"/>
            <elres lspd_denominator="4" pdel="0" userwavefile="" dec="0.5" lamt="0" syncmode="0" latt="0" rel="0.1" sus="0.5" amt="0" x100="0" att="0" lpdel="0" hold="0.5" lshp="0" lspd="0.1" ctlenvamt="0" lspd_numerator="4"/>
          </eldata>
          <chordcreator chord="0" chordrange="1" chord-enabled="0"/>
          <arpeggiator arptime="100" arprange="1" arptime_denominator="4" syncmode="0" arpmode="0" arp-enabled="0" arp="0" arptime_numerator="4" arpdir="0" arpgate="100"/>
          <midiport inputcontroller="0" fixedoutputvelocity="-1" inputchannel="0" outputcontroller="0" writable="0" outputchannel="1" fixedinputvelocity="-1" outputprogram="1" readable="0"/>
          <fxchain numofeffects="0" enabled="0"/>
        </instrumenttrack>
        <pattern steps="16" muted="0" type="1" name="tracknames" pos="0" len="4992" frozen="0">
          <note pan="0" key="52" vol="60" pos="0" len="2"/>
          <note pan="0" key="47" vol="60" pos="12" len="2"/>
          <note pan="0" key="43" vol="60" pos="24" len="2"/>
          <note pan="0" key="40" vol="60" pos="36" len="2"/>
          <note pan="0" key="52" vol="60" pos="48" len="2"/>
          <note pan="0" key="47" vol="60" pos="60" len="2"/>
          <note pan="0" key="43" vol="60" pos="72" len="2"/>
          <note pan="0" key="40" vol="60" pos="84" len="2"/>
          <note pan="0" key="52" vol="60" pos="96" len="2"/>
          <note pan="0" key="47" vol="60" pos="108" len="2"/>
          <note pan="0" key="43" vol="60" pos="120" len="2"/>
          <note pan="0" key="40" vol="60" pos="132" len="2"/>
          <note pan="0" key="52" vol="60" pos="144" len="2"/>
          <note pan="0" key="47" vol="60" pos="156" len="2"/>
          <note pan="0" key="43" vol="60" pos="168" len="2"/>
          <note pan="0" key="40" vol="60" pos="180" len="2"/>
          <note pan="0" key="52" vol="60" pos="192" len="2"/>
          <note pan="0" key="47" vol="60" pos="204" len="2"/>
          <note pan="0" key="43" vol="60" pos="216" len="2"/>
          <note pan="0" key="40" vol="60" pos="228" len="2"/>
          <note pan="0" key="52" vol="60" pos="240" len="2"/>
          <note pan="0" key="47" vol="60" pos="252" len="2"/>
          <note pan="0" key="43" vol="60" pos="264" len="2"/>
          <note pan="0" key="40" vol="60" pos="276" len="2"/>
          <note pan="0" key="52" vol="60" pos="288" len="2"/>
          <note pan="0" key="47" vol="60" pos="300" len="2"/>
          <note pan="0" key="43" vol="60" pos="312" len="2"/>
          <note pan="0" key="40" vol="60" pos="324" len="2"/>
          <note pan="0" key="52" vol="60" pos="336" len="2"/>
          <note pan="0" key="47" vol="60" pos="348" len="2"/>
          <note pan="0" key="43" vol="60" pos="360" len="2"/>
          <note pan="0" key="40" vol="60" pos="372" len="2"/>
          <note pan="0" key="52" vol="60" pos="384" len="2"/>
          <note pan="0" key="47" vol="60" pos="396" len="2"/>
          <note pan="0" key="43" vol="60" pos="408" len="2"/>
          <note pan="0" key="40" vol="60" pos="420" len="2"/>
          <note pan="0" key="52" vol="60" pos="432" len="2"/>
          <note pan="0" key="47" vol="60" pos="444" len="2"/>
          <note pan="0" key="43" vol="60" pos="456" len="2"/>
          <note pan="0" key="40" vol="60" pos="468" len="2"/>
          <note pan="0" key="52" vol="60" pos="480" len="2"/>
          <note pan="0" key="47" vol="60" pos="492" len="2"/>
          <note pan="0" key="43" vol="60" pos="504" len="2"/>
          <note pan="0" key="40" vol="60" pos="516" len="2"/>
          <note pan="0" key="52" vol="60" pos="528" len="2"/>
          <note pan="0" key="47" vol="60" pos="540" len="2"/>
          <note pan="0" key="43" vol="60" pos="552" len="2"/>
          <note pan="0" key="40" vol="60" pos="564" len="2"/>
          <note pan="0" key="52" vol="60" pos="576" len="2"/>
          <note pan="0" key="47" vol="60" pos="588" len="2"/>
          <note pan="0" key="43" vol="60" pos="600" len="2"/>
          <note pan="0" key="40" vol="60" pos="612" len="2"/>
          <note pan="0" key="52" vol="60" pos="624" len="2"/>
          <note pan="0" key="47" vol="60" pos="636" len="2"/>
          <note pan="0" key="43" vol="60" pos="648" len="2"/>
          <note pan="0" key="40" vol="60" pos="660" len="2"/>
          <note pan="0" key="52" vol="60" pos="672" len="2"/>
          <note pan="0" key="47" vol="60" pos="684" len="2"/>
          <note pan="0" key="43" vol="60" pos="696" len="2"/>
          <note pan="0" key="40" vol="60" pos="708" len="2"/>
          <note pan="0" key="52" vol="60" pos="720" len="2"/>
          <note pan="0" key="47" vol="60" pos="732" len="2"/>
          <note pan="0" key="43" vol="60" pos="744" len="2"/>
          <note pan="0" key="40" vol="60" pos="756" len="2"/>
          <note pan="0" key="52" vol="60" pos="768" len="2"/>
          <note pan="0" key="47" vol="60" pos="780" len="2"/>
          <note pan="0" key="43" vol="60" pos="792" len="2"/>
          <note pan="0" key="40" vol="60" pos="804" len="2"/>
          <note pan="0" key="52" vol="60" pos="816" len="2"/>
          <note pan="0" key="47" vol="60" pos="828" len="2"/>
          <note pan="0" key="43" vol="60" pos="840" len="2"/>
          <note pan="0" key="40" vol="60" pos="852" len="2"/>
          <note pan="0" key="52" vol="60" pos="864" len="2"/>
          <note pan="0" key="47" vol="60" pos="876" len="2"/>
          <note pan="0" key="43" vol="60" pos="888" len="2"/>
          <note pan="0" key="40" vol="60" pos="900" len="2"/>
          <note pan="0" key="52" vol="60" pos="912" len="2"/>
          <note pan="0" key="47" vol="60" pos="924" len="2"/>
          <note pan="0" key="43" vol="60" pos="936" len="2"/>
          <note pan="0" key="40" vol="60" pos="948" len="2"/>
          <note pan="0" key="52" vol="60" pos="960" len="2"/>
          <note pan="0" key="47" vol="60" pos="972" len="2"/>
          <note pan="0" key="43" vol="60" pos="984" len="2"/>
          <note pan="0" key="40" vol="60" pos="996" len="2"/>
          <note pan="0" key="52" vol="60" pos="1008" len="2"/>
          <note pan="0" key="47" vol="60" pos="1020" len="2"/>
          <note pan="0" key="43" vol="60" pos="1032" len="2"/>
          <note pan="0" key="40" vol="60" pos="1044" len="2"/>
          <note pan="0" key="52" vol="60" pos="1056" len="2"/>
          <note pan="0" key="47" vol="60" pos="1068" len="2"/>
          <note pan="0" key="43" vol="60" pos="1080" len="2"/>
          <note pan="0" key="40" vol="60" pos="1092" len="2"/>
          <note pan="0" key="52" vol="60" pos="1104" len="2"/>
          <note pan="0" key="47" vol="60" pos="1116" len="2"/>
          <note pan="0" key="43" vol="60" pos="1128" len="2"/>
          <note pan="0" key="40" vol="60" pos="1140" len="2"/>
          <note pan="0" key="52" vol="60" pos="1152" len="2"/>
          <note pan="0" key="47" vol="60" pos="1164" len="2"/>
          <note pan="0" key="43" vol="60" pos="1176" len="2"/>
          <note pan="0" key="40" vol="60" pos="1188" len="2"/>
          <note pan="0" key="52" vol="60" pos="1200" len="2"/>
          <note pan="0" key="47" vol="60" pos="1212" len="2"/>
          <note pan="0" key="43" vol="60" pos="1224" len="2"/>
          <note pan="0" key="40" vol="60" pos="1236" len="2"/>
          <note pan="0" key="52" vol="60" pos="1248" len="2"/>
          <note pan="0" key="47" vol="60" pos="1260" len="2"/>
          <note pan="0" key="43" vol="60" pos="1272" len="2"/>
          <note pan="0" key="40" vol="60" pos="1284" len="2"/>
          <note pan="0" key="52" vol="60" pos="1296" len="2"/>
          <note pan="0" key="47" vol="60" pos="1308" len="2"/>
          <note pan="0" key="43" vol="60" pos="1320" len="2"/>
          <note pan="0" key="40" vol="60" pos="1332" len="2"/>
          <note pan="0" key="52" vol="60" pos="1344" len="2"/>
          <note pan="0" key="47" vol="60" pos="1356" len="2"/>
          <note pan="0" key="43" vol="60" pos="1368" len="2"/>
          <note pan="0" key="40" vol="60" pos="1380" len="2"/>
          <note pan="0" key="52" vol="60" pos="1392" len="2"/>
          <note pan="0" key="47" vol="60" pos="1404" len="2"/>
          <note pan="0" key="43" vol="60" pos="1416" len="2"/>
          <note pan="0" key="40" vol="60" pos="1428" len="2"/>
          <note pan="0" key="52" vol="60" pos="1440" len="2"/>
          <note pan="0" key="47" vol="60" pos="1452" len="2"/>
          <note pan="0" key="43" vol="60" pos="1464" len="2"/>
          <note pan="0" key="40" vol="60" pos="1476" len="2"/>
          <note pan="0" key="52" vol="60" pos="1488" len="2"/>
          <note pan="0" key="47" vol="60" pos="1500" len="2"/>
          <note pan="0" key="43" vol="60" pos="1512" len="2"/>
          <note pan="0" key="40" vol="60" pos="1524" len="2"/>
          <note pan="0" key="52" vol="60" pos="1536" len="2"/>
          <note pan="0" key="47" vol="60" pos="1548" len="2"/>
          <note pan="0" key="43" vol="60" pos="1560" len="2"/>
          <note pan="0" key="40" vol="60" pos="1572" len="2"/>
          <note pan="0" key="52" vol="60" pos="1584" len="2"/>
          <note pan="0" key="47" vol="60" pos="1596" len="2"/>
          <note pan="0" key="43" vol="60" pos="1608" len="2"/>
          <note pan="0" key="40" vol="60" pos="1620" len="2"/>
          <note pan="0" key="52" vol="60" pos="1632" len="2"/>
          <note pan="0" key="47" vol="60" pos="1644" len="2"/>
          <note pan="0" key="43" vol="60" pos="1656" len="2"/>
          <note pan="0" key="40" vol="60" pos="1668" len="2"/>
          <note pan="0" key="52" vol="60" pos="1680" len="2"/>
          <note pan="0" key="47" vol="60" pos="1692" len="2"/>
          <note pan="0" key="43" vol="60" pos="1704" len="2"/>
          <note pan="0" key="40" vol="60" pos="1716" len="2"/>
          <note pan="0" key="52" vol="60" pos="1728" len="2"/>
          <note pan="0" key="47" vol="60" pos="1740" len="2"/>
          <note pan="0" key="43" vol="60" pos="1752" len="2"/>
          <note pan="0" key="40" vol="60" pos="1764" len="2"/>
          <note pan="0" key="52" vol="60" pos="1776" len="2"/>
          <note pan="0" key="47" vol="60" pos="1788" len="2"/>
          <note pan="0" key="43" vol="60" pos="1800" len="2"/>
          <note pan="0" key="40" vol="60" pos="1812" len="2"/>
          <note pan="0" key="52" vol="60" pos="1824" len="2"/>
          <note pan="0" key="47" vol="60" pos="1836" len="2"/>
          <note pan="0" key="43" vol="60" pos="1848" len="2"/>
          <note pan="0" key="40" vol="60" pos="1860" len="2"/>
          <note pan="0" key="52" vol="60" pos="1872" len="2"/>
          <note pan="0" key="47" vol="60" pos="1884" len="2"/>
          <note pan="0" key="43" vol="60" pos="1896" len="2"/>
          <note pan="0" key="40" vol="60" pos="1908" len="2"/>
          <note pan="0" key="52" vol="60" pos="1920" len="2"/>
          <note pan="0" key="47" vol="60" pos="1932" len="2"/>
          <note pan="0" key="43" vol="60" pos="1944" len="2"/>
          <note pan="0" key="40" vol="60" pos="1956" len="2"/>
          <note pan="0" key="52" vol="60" pos="1968" len="2"/>
          <note pan="0" key="47" vol="60" pos="1980" len="2"/>
          <note pan="0" key="43" vol="60" pos="1992" len="2"/>
          <note pan="0" key="40" vol="60" pos="2004" len="2"/>
          <note pan="0" key="52" vol="60" pos="2016" len="2"/>
          <note pan="0" key="47" vol="60" pos="2028" len="2"/>
          <note pan="0" key="43" vol="60" pos="2040" len="2"/>
          <note pan="0" key="40" vol="60" pos="2052" len="2"/>
          <note pan="0" key="52" vol="60" pos="2064" len="2"/>
          <note pan="0" key="47" vol="60" pos="2076" len="2"/>
          <note pan="0" key="43" vol="60" pos="2088" len="2"/>
          <note pan="0" key="40" vol="60" pos="2100" len="2"/>
          <note pan="0" key="50" vol="60" pos="2112" len="2"/>
          <note pan="0" key="45" vol="60" pos="2124" len="2"/>
          <note pan="0" key="42" vol="60" pos="2136" len="2"/>
          <note pan="0" key="38" vol="60" pos="2148" len="2"/>
          <note pan="0" key="50" vol="60" pos="2160" len="2"/>
          <note pan="0" key="45" vol="60" pos="2172" len="2"/>
          <note pan="0" key="42" vol="60" pos="2184" len="2"/>
          <note pan="0" key="38" vol="60" pos="2196" len="2"/>
          <note pan="0" key="50" vol="60" pos="2208" len="2"/>
          <note pan="0" key="45" vol="60" pos="2220" len="2"/>
          <note pan="0" key="42" vol="60" pos="2232" len="2"/>
          <note pan="0" key="38" vol="60" pos="2244" len="2"/>
          <note pan="0" key="50" vol="60" pos="2256" len="2"/>
          <note pan="0" key="45" vol="60" pos="2268" len="2"/>
          <note pan="0" key="42" vol="60" pos="2280" len="2"/>
          <note pan="0" key="38" vol="60" pos="2292" len="2"/>
          <note pan="0" key="52" vol="60" pos="2304" len="2"/>
          <note pan="0" key="47" vol="60" pos="2316" len="2"/>
          <note pan="0" key="43" vol="60" pos="2328" len="2"/>
          <note pan="0" key="40" vol="60" pos="2340" len="2"/>
          <note pan="0" key="52" vol="60" pos="2352" len="2"/>
          <note pan="0" key="47" vol="60" pos="2364" len="2"/>
          <note pan="0" key="43" vol="60" pos="2376" len="2"/>
          <note pan="0" key="40" vol="60" pos="2388" len="2"/>
          <note pan="0" key="52" vol="60" pos="2400" len="2"/>
          <note pan="0" key="47" vol="60" pos="2412" len="2"/>
          <note pan="0" key="43" vol="60" pos="2424" len="2"/>
          <note pan="0" key="40" vol="60" pos="2436" len="2"/>
          <note pan="0" key="52" vol="60" pos="2448" len="2"/>
          <note pan="0" key="47" vol="60" pos="2460" len="2"/>
          <note pan="0" key="43" vol="60" pos="2472" len="2"/>
          <note pan="0" key="40" vol="60" pos="2484" len="2"/>
          <note pan="0" key="50" vol="60" pos="2496" len="2"/>
          <note pan="0" key="45" vol="60" pos="2508" len="2"/>
          <note pan="0" key="42" vol="60" pos="2520" len="2"/>
          <note pan="0" key="38" vol="60" pos="2532" len="2"/>
          <note pan="0" key="50" vol="60" pos="2544" len="2"/>
          <note pan="0" key="45" vol="60" pos="2556" len="2"/>
          <note pan="0" key="42" vol="60" pos="2568" len="2"/>
          <note pan="0" key="38" vol="60" pos="2580" len="2"/>
          <note pan="0" key="50" vol="60" pos="2592" len="2"/>
          <note pan="0" key="45" vol="60" pos="2604" len="2"/>
          <note pan="0" key="42" vol="60" pos="2616" len="2"/>
          <note pan="0" key="38" vol="60" pos="2628" len="2"/>
          <note pan="0" key="50" vol="60" pos="2640" len="2"/>
          <note pan="0" key="45" vol="60" pos="2652" len="2"/>
          <note pan="0" key="42" vol="60" pos="2664" len="2"/>
          <note pan="0" key="38" vol="60" pos="2676" len="2"/>
          <note pan="0" key="52" vol="60" pos="2688" len="2"/>
          <note pan="0" key="47" vol="60" pos="2700" len="2"/>
          <note pan="0" key="43" vol="60" pos="2712" len="2"/>
          <note pan="0" key="40" vol="60" pos="2724" len="2"/>
          <note pan="0" key="52" vol="60" pos="2736" len="2"/>
          <note pan="0" key="47" vol="60" pos="2748" len="2"/>
          <note pan="0" key="43" vol="60" pos="2760" len="2"/>
          <note pan="0" key="40" vol="60" pos="2772" len="2"/>
          <note pan="0" key="52" vol="60" pos="2784" len="2"/>
          <note pan="0" key="47" vol="60" pos="2796" len="2"/>
          <note pan="0" key="43" vol="60" pos="2808" len="2"/>
          <note pan="0" key="40" vol="60" pos="2820" len="2"/>
          <note pan="0" key="52" vol="60" pos="2832" len="2"/>
          <note pan="0" key="47" vol="60" pos="2844" len="2"/>
          <note pan="0" key="43" vol="60" pos="2856" len="2"/>
          <note pan="0" key="40" vol="60" pos="2868" len="2"/>
          <note pan="0" key="50" vol="60" pos="2880" len="2"/>
          <note pan="0" key="45" vol="60" pos="2892" len="2"/>
          <note pan="0" key="42" vol="60" pos="2904" len="2"/>
          <note pan="0" key="38" vol="60" pos="2916" len="2"/>
          <note pan="0" key="50" vol="60" pos="2928" len="2"/>
          <note pan="0" key="45" vol="60" pos="2940" len="2"/>
          <note pan="0" key="42" vol="60" pos="2952" len="2"/>
          <note pan="0" key="38" vol="60" pos="2964" len="2"/>
          <note pan="0" key="50" vol="60" pos="2976" len="2"/>
          <note pan="0" key="45" vol="60" pos="2988" len="2"/>
          <note pan="0" key="42" vol="60" pos="3000" len="2"/>
          <note pan="0" key="38" vol="60" pos="3012" len="2"/>
          <note pan="0" key="50" vol="60" pos="3024" len="2"/>
          <note pan="0" key="45" vol="60" pos="3036" len="2"/>
          <note pan="0" key="42" vol="60" pos="3048" len="2"/>
          <note pan="0" key="38" vol="60" pos="3060" len="2"/>
          <note pan="0" key="52" vol="60" pos="3072" len="2"/>
          <note pan="0" key="47" vol="60" pos="3084" len="2"/>
          <note pan="0" key="43" vol="60" pos="3096" len="2"/>
          <note pan="0" key="40" vol="60" pos="3108" len="2"/>
          <note pan="0" key="52" vol="60" pos="3120" len="2"/>
          <note pan="0" key="47" vol="60" pos="3132" len="2"/>
          <note pan="0" key="43" vol="60" pos="3144" len="2"/>
          <note pan="0" key="40" vol="60" pos="3156" len="2"/>
          <note pan="0" key="52" vol="60" pos="3168" len="2"/>
          <note pan="0" key="47" vol="60" pos="3180" len="2"/>
          <note pan="0" key="43" vol="60" pos="3192" len="2"/>
          <note pan="0" key="40" vol="60" pos="3204" len="2"/>
          <note pan="0" key="52" vol="60" pos="3216" len="2"/>
          <note pan="0" key="47" vol="60" pos="3228" len="2"/>
          <note pan="0" key="43" vol="60" pos="3240" len="2"/>
          <note pan="0" key="40" vol="60" pos="3252" len="2"/>
          <note pan="0" key="50" vol="60" pos="3264" len="2"/>
          <note pan="0" key="45" vol="60" pos="3276" len="2"/>
          <note pan="0" key="42" vol="60" pos="3288" len="2"/>
          <note pan="0" key="38" vol="60" pos="3300" len="2"/>
          <note pan="0" key="50" vol="60" pos="3312" len="2"/>
          <note pan="0" key="45" vol="60" pos="3324" len="2"/>
          <note pan="0" key="42" vol="60" pos="3336" len="2"/>
          <note pan="0" key="38" vol="60" pos="3348" len="2"/>
          <note pan="0" key="50" vol="60" pos="3360" len="2"/>
          <note pan="0" key="45" vol="60" pos="3372" len="2"/>
          <note pan="0" key="42" vol="60" pos="3384" len="2"/>
          <note pan="0" key="38" vol="60" pos="3396" len="2"/>
          <note pan="0" key="50" vol="60" pos="3408" len="2"/>
          <note pan="0" key="45" vol="60" pos="3420" len="2"/>
          <note pan="0" key="42" vol="60" pos="3432" len="2"/>
          <note pan="0" key="38" vol="60" pos="3444" len="2"/>
          <note pan="0" key="52" vol="60" pos="3456" len="2"/>
          <note pan="0" key="47" vol="60" pos="3468" len="2"/>
          <note pan="0" key="43" vol="60" pos="3480" len="2"/>
          <note pan="0" key="40" vol="60" pos="3492" len="2"/>
          <note pan="0" key="52" vol="60" pos="3504" len="2"/>
          <note pan="0" key="47" vol="60" pos="3516" len="2"/>
          <note pan="0" key="43" vol="60" pos="3528" len="2"/>
          <note pan="0" key="40" vol="60" pos="3540" len="2"/>
          <note pan="0" key="52" vol="60" pos="3552" len="2"/>
          <note pan="0" key="47" vol="60" pos="3564" len="2"/>
          <note pan="0" key="43" vol="60" pos="3576" len="2"/>
          <note pan="0" key="40" vol="60" pos="3588" len="2"/>
          <note pan="0" key="52" vol="60" pos="3600" len="2"/>
          <note pan="0" key="47" vol="60" pos="3612" len="2"/>
          <note pan="0" key="43" vol="60" pos="3624" len="2"/>
          <note pan="0" key="40" vol="60" pos="3636" len="2"/>
          <note pan="0" key="50" vol="60" pos="3648" len="2"/>
          <note pan="0" key="45" vol="60" pos="3660" len="2"/>
          <note pan="0" key="42" vol="60" pos="3672" len="2"/>
          <note pan="0" key="38" vol="60" pos="3684" len="2"/>
          <note pan="0" key="50" vol="60" pos="3696" len="2"/>
          <note pan="0" key="45" vol="60" pos="3708" len="2"/>
          <note pan="0" key="42" vol="60" pos="3720" len="2"/>
          <note pan="0" key="38" vol="60" pos="3732" len="2"/>
          <note pan="0" key="50" vol="60" pos="3744" len="2"/>
          <note pan="0" key="45" vol="60" pos="3756" len="2"/>
          <note pan="0" key="42" vol="60" pos="3768" len="2"/>
          <note pan="0" key="38" vol="60" pos="3780" len="2"/>
          <note pan="0" key="50" vol="60" pos="3792" len="2"/>
          <note pan="0" key="45" vol="60" pos="3804" len="2"/>
          <note pan="0" key="42" vol="60" pos="3816" len="2"/>
          <note pan="0" key="38" vol="60" pos="3828" len="2"/>
          <note pan="0" key="52" vol="60" pos="3840" len="2"/>
          <note pan="0" key="47" vol="60" pos="3852" len="2"/>
          <note pan="0" key="43" vol="60" pos="3864" len="2"/>
          <note pan="0" key="40" vol="60" pos="3876" len="2"/>
          <note pan="0" key="52" vol="60" pos="3888" len="2"/>
          <note pan="0" key="47" vol="60" pos="3900" len="2"/>
          <note pan="0" key="43" vol="60" pos="3912" len="2"/>
          <note pan="0" key="40" vol="60" pos="3924" len="2"/>
          <note pan="0" key="52" vol="60" pos="3936" len="2"/>
          <note pan="0" key="47" vol="60" pos="3948" len="2"/>
          <note pan="0" key="43" vol="60" pos="3960" len="2"/>
          <note pan="0" key="40" vol="60" pos="3972" len="2"/>
          <note pan="0" key="52" vol="60" pos="3984" len="2"/>
          <note pan="0" key="47" vol="60" pos="3996" len="2"/>
          <note pan="0" key="43" vol="60" pos="4008" len="2"/>
          <note pan="0" key="40" vol="60" pos="4020" len="2"/>
          <note pan="0" key="50" vol="60" pos="4032" len="2"/>
          <note pan="0" key="45" vol="60" pos="4044" len="2"/>
          <note pan="0" key="42" vol="60" pos="4056" len="2"/>
          <note pan="0" key="38" vol="60" pos="4068" len="2"/>
          <note pan="0" key="50" vol="60" pos="4080" len="2"/>
          <note pan="0" key="45" vol="60" pos="4092" len="2"/>
          <note pan="0" key="42" vol="60" pos="4104" len="2"/>
          <note pan="0" key="38" vol="60" pos="4116" len="2"/>
          <note pan="0" key="50" vol="60" pos="4128" len="2"/>
          <note pan="0" key="45" vol="60" pos="4140" len="2"/>
          <note pan="0" key="42" vol="60" pos="4152" len="2"/>
          <note pan="0" key="38" vol="60" pos="4164" len="2"/>
          <note pan="0" key="50" vol="60" pos="4176" len="2"/>
          <note pan="0" key="45" vol="60" pos="4188" len="2"/>
          <note pan="0" key="42" vol="60" pos="4200" len="2"/>
          <note pan="0" key="38" vol="60" pos="4212" len="2"/>
          <note pan="0" key="52" vol="60" pos="4224" len="2"/>
          <note pan="0" key="47" vol="60" pos="4236" len="2"/>
          <note pan="0" key="43" vol="60" pos="4248" len="2"/>
          <note pan="0" key="40" vol="60" pos="4260" len="2"/>
          <note pan="0" key="52" vol="60" pos="4272" len="2"/>
          <note pan="0" key="47" vol="60" pos="4284" len="2"/>
          <note pan="0" key="43" vol="60" pos="4296" len="2"/>
          <note pan="0" key="40" vol="60" pos="4308" len="2"/>
          <note pan="0" key="52" vol="60" pos="4320" len="2"/>
          <note pan="0" key="47" vol="60" pos="4332" len="2"/>
          <note pan="0" key="43" vol="60" pos="4344" len="2"/>
          <note pan="0" key="40" vol="60" pos="4356" len="2"/>
          <note pan="0" key="52" vol="60" pos="4368" len="2"/>
          <note pan="0" key="47" vol="60" pos="4380" len="2"/>
          <note pan="0" key="43" vol="60" pos="4392" len="2"/>
          <note pan="0" key="40" vol="60" pos="4404" len="2"/>
          <note pan="0" key="50" vol="60" pos="4416" len="2"/>
          <note pan="0" key="45" vol="60" pos="4428" len="2"/>
          <note pan="0" key="42" vol="60" pos="4440" len="2"/>
          <note pan="0" key="38" vol="60" pos="4452" len="2"/>
          <note pan="0" key="50" vol="60" pos="4464" len="2"/>
          <note pan="0" key="45" vol="60" pos="4476" len="2"/>
          <note pan="0" key="42" vol="60" pos="4488" len="2"/>
          <note pan="0" key="38" vol="60" pos="4500" len="2"/>
          <note pan="0" key="50" vol="60" pos="4512" len="2"/>
          <note pan="0" key="45" vol="60" pos="4524" len="2"/>
          <note pan="0" key="42" vol="60" pos="4536" len="2"/>
          <note pan="0" key="38" vol="60" pos="4548" len="2"/>
          <note pan="0" key="50" vol="60" pos="4560" len="2"/>
          <note pan="0" key="45" vol="60" pos="4572" len="2"/>
          <note pan="0" key="42" vol="60" pos="4584" len="2"/>
          <note pan="0" key="38" vol="60" pos="4596" len="2"/>
          <note pan="0" key="50" vol="60" pos="4608" len="2"/>
          <note pan="0" key="45" vol="60" pos="4620" len="2"/>
          <note pan="0" key="42" vol="60" pos="4632" len="2"/>
          <note pan="0" key="38" vol="60" pos="4644" len="2"/>
          <note pan="0" key="50" vol="60" pos="4656" len="2"/>
          <note pan="0" key="45" vol="60" pos="4668" len="2"/>
          <note pan="0" key="42" vol="60" pos="4680" len="2"/>
          <note pan="0" key="38" vol="60" pos="4692" len="2"/>
          <note pan="0" key="50" vol="60" pos="4704" len="2"/>
          <note pan="0" key="45" vol="60" pos="4716" len="2"/>
          <note pan="0" key="42" vol="60" pos="4728" len="2"/>
          <note pan="0" key="38" vol="60" pos="4740" len="2"/>
          <note pan="0" key="50" vol="60" pos="4752" len="2"/>
          <note pan="0" key="45" vol="60" pos="4764" len="2"/>
          <note pan="0" key="42" vol="60" pos="4776" len="2"/>
          <note pan="0" key="38" vol="60" pos="4788" len="2"/>
          <note pan="0" key="50" vol="60" pos="4800" len="2"/>
          <note pan="0" key="45" vol="60" pos="4812" len="2"/>
          <note pan="0" key="42" vol="60" pos="4824" len="2"/>
          <note pan="0" key="38" vol="60" pos="4836" len="2"/>
          <note pan="0" key="50" vol="60" pos="4848" len="2"/>
          <note pan="0" key="45" vol="60" pos="4860" len="2"/>
          <note pan="0" key="42" vol="60" pos="4872" len="2"/>
          <note pan="0" key="38" vol="60" pos="4884" len="2"/>
          <note pan="0" key="50" vol="60" pos="4896" len="2"/>
          <note pan="0" key="45" vol="60" pos="4908" len="2"/>
          <note pan="0" key="42" vol="60" pos="4920" len="2"/>
          <note pan="0" key="38" vol="60" pos="4932" len="2"/>
          <note pan="0" key="50" vol="60" pos="4944" len="2"/>
          <note pan="0" key="45" vol="60" pos="4956" len="2"/>
          <note pan="0" key="42" vol="60" pos="4968" len="2"/>
          <note pan="0" key="38" vol="60" pos="4980" len="2"/>
        </pattern>
      </track>
      <track muted="0" type="0" name="Standard-Preset">
        <instrumenttrack pan="-3.9" fxch="0" pitch="0" basenote="57" vol="74">
          <instrument name="sf2player">
            <sf2player patch="28" chorusLevel="2" chorusDepth="8" reverbOn="0" reverbRoomSize="0.2" chorusOn="0" chorusSpeed="0.3" reverbDamping="0" chorusNum="3" reverbLevel="0.9" bank="0" reverbWidth="0.5" src="C:\VST32\Soundfonts\SF2\GenesiSF.SF2" gain="1"/>
          </instrument>
          <eldata fres="0.5" ftype="0" fcut="14000" fwet="0">
            <elvol lspd_denominator="4" pdel="0" userwavefile="" dec="0.5" lamt="0" syncmode="0" latt="0" rel="0.1" sus="0.5" amt="0" x100="0" att="0" lpdel="0" hold="0.5" lshp="0" lspd="0.1" ctlenvamt="0" lspd_numerator="4"/>
            <elcut lspd_denominator="4" pdel="0" userwavefile="" dec="0.5" lamt="0" syncmode="0" latt="0" rel="0.1" sus="0.5" amt="0" x100="0" att="0" lpdel="0" hold="0.5" lshp="0" lspd="0.1" ctlenvamt="0" lspd_numerator="4"/>
            <elres lspd_denominator="4" pdel="0" userwavefile="" dec="0.5" lamt="0" syncmode="0" latt="0" rel="0.1" sus="0.5" amt="0" x100="0" att="0" lpdel="0" hold="0.5" lshp="0" lspd="0.1" ctlenvamt="0" lspd_numerator="4"/>
          </eldata>
          <chordcreator chord="0" chordrange="1" chord-enabled="0"/>
          <arpeggiator arptime="100" arprange="1" arptime_denominator="4" syncmode="0" arpmode="0" arp-enabled="0" arp="0" arptime_numerator="4" arpdir="0" arpgate="100"/>
          <midiport inputcontroller="0" fixedoutputvelocity="-1" inputchannel="0" outputcontroller="0" writable="0" outputchannel="1" fixedinputvelocity="-1" outputprogram="1" readable="0"/>
          <fxchain numofeffects="0" enabled="0"/>
        </instrumenttrack>
        <pattern steps="16" muted="0" type="1" name="Standard-Preset" pos="0" len="5184" frozen="0">
          <note pan="0" key="64" vol="60" pos="12" len="2"/>
          <note pan="0" key="59" vol="60" pos="24" len="2"/>
          <note pan="0" key="55" vol="60" pos="36" len="2"/>
          <note pan="0" key="52" vol="60" pos="48" len="2"/>
          <note pan="0" key="64" vol="60" pos="60" len="2"/>
          <note pan="0" key="59" vol="60" pos="72" len="2"/>
          <note pan="0" key="55" vol="60" pos="84" len="2"/>
          <note pan="0" key="52" vol="60" pos="96" len="2"/>
          <note pan="0" key="64" vol="60" pos="108" len="2"/>
          <note pan="0" key="59" vol="60" pos="120" len="2"/>
          <note pan="0" key="55" vol="60" pos="132" len="2"/>
          <note pan="0" key="52" vol="60" pos="144" len="2"/>
          <note pan="0" key="64" vol="60" pos="156" len="2"/>
          <note pan="0" key="59" vol="60" pos="168" len="2"/>
          <note pan="0" key="55" vol="60" pos="180" len="2"/>
          <note pan="0" key="52" vol="60" pos="192" len="2"/>
          <note pan="0" key="64" vol="60" pos="204" len="2"/>
          <note pan="0" key="59" vol="60" pos="216" len="2"/>
          <note pan="0" key="55" vol="60" pos="228" len="2"/>
          <note pan="0" key="52" vol="60" pos="240" len="2"/>
          <note pan="0" key="64" vol="60" pos="252" len="2"/>
          <note pan="0" key="59" vol="60" pos="264" len="2"/>
          <note pan="0" key="55" vol="60" pos="276" len="2"/>
          <note pan="0" key="52" vol="60" pos="288" len="2"/>
          <note pan="0" key="64" vol="60" pos="300" len="2"/>
          <note pan="0" key="59" vol="60" pos="312" len="2"/>
          <note pan="0" key="55" vol="60" pos="324" len="2"/>
          <note pan="0" key="52" vol="60" pos="336" len="2"/>
          <note pan="0" key="64" vol="60" pos="348" len="2"/>
          <note pan="0" key="59" vol="60" pos="360" len="2"/>
          <note pan="0" key="55" vol="60" pos="372" len="2"/>
          <note pan="0" key="52" vol="60" pos="384" len="2"/>
          <note pan="0" key="64" vol="60" pos="396" len="2"/>
          <note pan="0" key="59" vol="60" pos="408" len="2"/>
          <note pan="0" key="55" vol="60" pos="420" len="2"/>
          <note pan="0" key="52" vol="60" pos="432" len="2"/>
          <note pan="0" key="64" vol="60" pos="444" len="2"/>
          <note pan="0" key="59" vol="60" pos="456" len="2"/>
          <note pan="0" key="55" vol="60" pos="468" len="2"/>
          <note pan="0" key="52" vol="60" pos="480" len="2"/>
          <note pan="0" key="64" vol="60" pos="492" len="2"/>
          <note pan="0" key="59" vol="60" pos="504" len="2"/>
          <note pan="0" key="55" vol="60" pos="516" len="2"/>
          <note pan="0" key="52" vol="60" pos="528" len="2"/>
          <note pan="0" key="64" vol="60" pos="540" len="2"/>
          <note pan="0" key="59" vol="60" pos="552" len="2"/>
          <note pan="0" key="55" vol="60" pos="564" len="2"/>
          <note pan="0" key="52" vol="60" pos="576" len="2"/>
          <note pan="0" key="64" vol="60" pos="588" len="2"/>
          <note pan="0" key="59" vol="60" pos="600" len="2"/>
          <note pan="0" key="55" vol="60" pos="612" len="2"/>
          <note pan="0" key="52" vol="60" pos="624" len="2"/>
          <note pan="0" key="64" vol="60" pos="636" len="2"/>
          <note pan="0" key="59" vol="60" pos="648" len="2"/>
          <note pan="0" key="55" vol="60" pos="660" len="2"/>
          <note pan="0" key="52" vol="60" pos="672" len="2"/>
          <note pan="0" key="64" vol="60" pos="684" len="2"/>
          <note pan="0" key="59" vol="60" pos="696" len="2"/>
          <note pan="0" key="55" vol="60" pos="708" len="2"/>
          <note pan="0" key="52" vol="60" pos="720" len="2"/>
          <note pan="0" key="64" vol="60" pos="732" len="2"/>
          <note pan="0" key="59" vol="60" pos="744" len="2"/>
          <note pan="0" key="55" vol="60" pos="756" len="2"/>
          <note pan="0" key="52" vol="60" pos="768" len="2"/>
          <note pan="0" key="64" vol="60" pos="780" len="2"/>
          <note pan="0" key="59" vol="60" pos="792" len="2"/>
          <note pan="0" key="55" vol="60" pos="804" len="2"/>
          <note pan="0" key="52" vol="60" pos="816" len="2"/>
          <note pan="0" key="64" vol="60" pos="828" len="2"/>
          <note pan="0" key="59" vol="60" pos="840" len="2"/>
          <note pan="0" key="55" vol="60" pos="852" len="2"/>
          <note pan="0" key="52" vol="60" pos="864" len="2"/>
          <note pan="0" key="64" vol="60" pos="876" len="2"/>
          <note pan="0" key="59" vol="60" pos="888" len="2"/>
          <note pan="0" key="55" vol="60" pos="900" len="2"/>
          <note pan="0" key="52" vol="60" pos="912" len="2"/>
          <note pan="0" key="64" vol="60" pos="924" len="2"/>
          <note pan="0" key="59" vol="60" pos="936" len="2"/>
          <note pan="0" key="55" vol="60" pos="948" len="2"/>
          <note pan="0" key="52" vol="60" pos="960" len="2"/>
          <note pan="0" key="64" vol="60" pos="972" len="2"/>
          <note pan="0" key="59" vol="60" pos="984" len="2"/>
          <note pan="0" key="55" vol="60" pos="996" len="2"/>
          <note pan="0" key="52" vol="60" pos="1008" len="2"/>
          <note pan="0" key="64" vol="60" pos="1020" len="2"/>
          <note pan="0" key="59" vol="60" pos="1032" len="2"/>
          <note pan="0" key="55" vol="60" pos="1044" len="2"/>
          <note pan="0" key="52" vol="60" pos="1056" len="2"/>
          <note pan="0" key="64" vol="60" pos="1068" len="2"/>
          <note pan="0" key="59" vol="60" pos="1080" len="2"/>
          <note pan="0" key="55" vol="60" pos="1092" len="2"/>
          <note pan="0" key="52" vol="60" pos="1104" len="2"/>
          <note pan="0" key="64" vol="60" pos="1116" len="2"/>
          <note pan="0" key="59" vol="60" pos="1128" len="2"/>
          <note pan="0" key="55" vol="60" pos="1140" len="2"/>
          <note pan="0" key="52" vol="60" pos="1152" len="2"/>
          <note pan="0" key="64" vol="60" pos="1164" len="2"/>
          <note pan="0" key="59" vol="60" pos="1176" len="2"/>
          <note pan="0" key="55" vol="60" pos="1188" len="2"/>
          <note pan="0" key="52" vol="60" pos="1200" len="2"/>
          <note pan="0" key="64" vol="60" pos="1212" len="2"/>
          <note pan="0" key="59" vol="60" pos="1224" len="2"/>
          <note pan="0" key="55" vol="60" pos="1236" len="2"/>
          <note pan="0" key="52" vol="60" pos="1248" len="2"/>
          <note pan="0" key="64" vol="60" pos="1260" len="2"/>
          <note pan="0" key="59" vol="60" pos="1272" len="2"/>
          <note pan="0" key="55" vol="60" pos="1284" len="2"/>
          <note pan="0" key="52" vol="60" pos="1296" len="2"/>
          <note pan="0" key="64" vol="60" pos="1308" len="2"/>
          <note pan="0" key="59" vol="60" pos="1320" len="2"/>
          <note pan="0" key="55" vol="60" pos="1332" len="2"/>
          <note pan="0" key="52" vol="60" pos="1344" len="2"/>
          <note pan="0" key="64" vol="60" pos="1356" len="2"/>
          <note pan="0" key="59" vol="60" pos="1368" len="2"/>
          <note pan="0" key="55" vol="60" pos="1380" len="2"/>
          <note pan="0" key="52" vol="60" pos="1392" len="2"/>
          <note pan="0" key="64" vol="60" pos="1404" len="2"/>
          <note pan="0" key="59" vol="60" pos="1416" len="2"/>
          <note pan="0" key="55" vol="60" pos="1428" len="2"/>
          <note pan="0" key="52" vol="60" pos="1440" len="2"/>
          <note pan="0" key="64" vol="60" pos="1452" len="2"/>
          <note pan="0" key="59" vol="60" pos="1464" len="2"/>
          <note pan="0" key="55" vol="60" pos="1476" len="2"/>
          <note pan="0" key="52" vol="60" pos="1488" len="2"/>
          <note pan="0" key="64" vol="60" pos="1500" len="2"/>
          <note pan="0" key="59" vol="60" pos="1512" len="2"/>
          <note pan="0" key="55" vol="60" pos="1524" len="2"/>
          <note pan="0" key="52" vol="60" pos="1536" len="2"/>
          <note pan="0" key="64" vol="60" pos="1548" len="2"/>
          <note pan="0" key="59" vol="60" pos="1560" len="2"/>
          <note pan="0" key="55" vol="60" pos="1572" len="2"/>
          <note pan="0" key="52" vol="60" pos="1584" len="2"/>
          <note pan="0" key="64" vol="60" pos="1596" len="2"/>
          <note pan="0" key="59" vol="60" pos="1608" len="2"/>
          <note pan="0" key="55" vol="60" pos="1620" len="2"/>
          <note pan="0" key="52" vol="60" pos="1632" len="2"/>
          <note pan="0" key="64" vol="60" pos="1644" len="2"/>
          <note pan="0" key="59" vol="60" pos="1656" len="2"/>
          <note pan="0" key="55" vol="60" pos="1668" len="2"/>
          <note pan="0" key="52" vol="60" pos="1680" len="2"/>
          <note pan="0" key="64" vol="60" pos="1692" len="2"/>
          <note pan="0" key="59" vol="60" pos="1704" len="2"/>
          <note pan="0" key="55" vol="60" pos="1716" len="2"/>
          <note pan="0" key="52" vol="60" pos="1728" len="2"/>
          <note pan="0" key="64" vol="60" pos="1740" len="2"/>
          <note pan="0" key="59" vol="60" pos="1752" len="2"/>
          <note pan="0" key="55" vol="60" pos="1764" len="2"/>
          <note pan="0" key="52" vol="60" pos="1776" len="2"/>
          <note pan="0" key="64" vol="60" pos="1788" len="2"/>
          <note pan="0" key="59" vol="60" pos="1800" len="2"/>
          <note pan="0" key="55" vol="60" pos="1812" len="2"/>
          <note pan="0" key="52" vol="60" pos="1824" len="2"/>
          <note pan="0" key="64" vol="60" pos="1836" len="2"/>
          <note pan="0" key="59" vol="60" pos="1848" len="2"/>
          <note pan="0" key="55" vol="60" pos="1860" len="2"/>
          <note pan="0" key="52" vol="60" pos="1872" len="2"/>
          <note pan="0" key="64" vol="60" pos="1884" len="2"/>
          <note pan="0" key="59" vol="60" pos="1896" len="2"/>
          <note pan="0" key="55" vol="60" pos="1908" len="2"/>
          <note pan="0" key="52" vol="60" pos="1920" len="2"/>
          <note pan="0" key="64" vol="60" pos="1932" len="2"/>
          <note pan="0" key="59" vol="60" pos="1944" len="2"/>
          <note pan="0" key="55" vol="60" pos="1956" len="2"/>
          <note pan="0" key="52" vol="60" pos="1968" len="2"/>
          <note pan="0" key="64" vol="60" pos="1980" len="2"/>
          <note pan="0" key="59" vol="60" pos="1992" len="2"/>
          <note pan="0" key="55" vol="60" pos="2004" len="2"/>
          <note pan="0" key="52" vol="60" pos="2016" len="2"/>
          <note pan="0" key="64" vol="60" pos="2028" len="2"/>
          <note pan="0" key="59" vol="60" pos="2040" len="2"/>
          <note pan="0" key="55" vol="60" pos="2052" len="2"/>
          <note pan="0" key="52" vol="60" pos="2064" len="2"/>
          <note pan="0" key="64" vol="60" pos="2076" len="2"/>
          <note pan="0" key="59" vol="60" pos="2088" len="2"/>
          <note pan="0" key="55" vol="60" pos="2100" len="2"/>
          <note pan="0" key="52" vol="60" pos="2112" len="2"/>
          <note pan="0" key="62" vol="60" pos="2124" len="2"/>
          <note pan="0" key="57" vol="60" pos="2136" len="2"/>
          <note pan="0" key="54" vol="60" pos="2148" len="2"/>
          <note pan="0" key="50" vol="60" pos="2160" len="2"/>
          <note pan="0" key="62" vol="60" pos="2172" len="2"/>
          <note pan="0" key="57" vol="60" pos="2184" len="2"/>
          <note pan="0" key="54" vol="60" pos="2196" len="2"/>
          <note pan="0" key="50" vol="60" pos="2208" len="2"/>
          <note pan="0" key="62" vol="60" pos="2220" len="2"/>
          <note pan="0" key="57" vol="60" pos="2232" len="2"/>
          <note pan="0" key="54" vol="60" pos="2244" len="2"/>
          <note pan="0" key="50" vol="60" pos="2256" len="2"/>
          <note pan="0" key="62" vol="60" pos="2268" len="2"/>
          <note pan="0" key="57" vol="60" pos="2280" len="2"/>
          <note pan="0" key="54" vol="60" pos="2292" len="2"/>
          <note pan="0" key="50" vol="60" pos="2304" len="2"/>
          <note pan="0" key="64" vol="60" pos="2316" len="2"/>
          <note pan="0" key="59" vol="60" pos="2328" len="2"/>
          <note pan="0" key="55" vol="60" pos="2340" len="2"/>
          <note pan="0" key="52" vol="60" pos="2352" len="2"/>
          <note pan="0" key="64" vol="60" pos="2364" len="2"/>
          <note pan="0" key="59" vol="60" pos="2376" len="2"/>
          <note pan="0" key="55" vol="60" pos="2388" len="2"/>
          <note pan="0" key="52" vol="60" pos="2400" len="2"/>
          <note pan="0" key="64" vol="60" pos="2412" len="2"/>
          <note pan="0" key="59" vol="60" pos="2424" len="2"/>
          <note pan="0" key="55" vol="60" pos="2436" len="2"/>
          <note pan="0" key="52" vol="60" pos="2448" len="2"/>
          <note pan="0" key="64" vol="60" pos="2460" len="2"/>
          <note pan="0" key="59" vol="60" pos="2472" len="2"/>
          <note pan="0" key="55" vol="60" pos="2484" len="2"/>
          <note pan="0" key="52" vol="60" pos="2496" len="2"/>
          <note pan="0" key="62" vol="60" pos="2508" len="2"/>
          <note pan="0" key="57" vol="60" pos="2520" len="2"/>
          <note pan="0" key="54" vol="60" pos="2532" len="2"/>
          <note pan="0" key="50" vol="60" pos="2544" len="2"/>
          <note pan="0" key="62" vol="60" pos="2556" len="2"/>
          <note pan="0" key="57" vol="60" pos="2568" len="2"/>
          <note pan="0" key="54" vol="60" pos="2580" len="2"/>
          <note pan="0" key="50" vol="60" pos="2592" len="2"/>
          <note pan="0" key="62" vol="60" pos="2604" len="2"/>
          <note pan="0" key="57" vol="60" pos="2616" len="2"/>
          <note pan="0" key="54" vol="60" pos="2628" len="2"/>
          <note pan="0" key="50" vol="60" pos="2640" len="2"/>
          <note pan="0" key="62" vol="60" pos="2652" len="2"/>
          <note pan="0" key="57" vol="60" pos="2664" len="2"/>
          <note pan="0" key="54" vol="60" pos="2676" len="2"/>
          <note pan="0" key="50" vol="60" pos="2688" len="2"/>
          <note pan="0" key="64" vol="60" pos="2700" len="2"/>
          <note pan="0" key="59" vol="60" pos="2712" len="2"/>
          <note pan="0" key="55" vol="60" pos="2724" len="2"/>
          <note pan="0" key="52" vol="60" pos="2736" len="2"/>
          <note pan="0" key="64" vol="60" pos="2748" len="2"/>
          <note pan="0" key="59" vol="60" pos="2760" len="2"/>
          <note pan="0" key="55" vol="60" pos="2772" len="2"/>
          <note pan="0" key="52" vol="60" pos="2784" len="2"/>
          <note pan="0" key="64" vol="60" pos="2796" len="2"/>
          <note pan="0" key="59" vol="60" pos="2808" len="2"/>
          <note pan="0" key="55" vol="60" pos="2820" len="2"/>
          <note pan="0" key="52" vol="60" pos="2832" len="2"/>
          <note pan="0" key="64" vol="60" pos="2844" len="2"/>
          <note pan="0" key="59" vol="60" pos="2856" len="2"/>
          <note pan="0" key="55" vol="60" pos="2868" len="2"/>
          <note pan="0" key="52" vol="60" pos="2880" len="2"/>
          <note pan="0" key="62" vol="60" pos="2892" len="2"/>
          <note pan="0" key="57" vol="60" pos="2904" len="2"/>
          <note pan="0" key="54" vol="60" pos="2916" len="2"/>
          <note pan="0" key="50" vol="60" pos="2928" len="2"/>
          <note pan="0" key="62" vol="60" pos="2940" len="2"/>
          <note pan="0" key="57" vol="60" pos="2952" len="2"/>
          <note pan="0" key="54" vol="60" pos="2964" len="2"/>
          <note pan="0" key="50" vol="60" pos="2976" len="2"/>
          <note pan="0" key="62" vol="60" pos="2988" len="2"/>
          <note pan="0" key="57" vol="60" pos="3000" len="2"/>
          <note pan="0" key="54" vol="60" pos="3012" len="2"/>
          <note pan="0" key="50" vol="60" pos="3024" len="2"/>
          <note pan="0" key="62" vol="60" pos="3036" len="2"/>
          <note pan="0" key="57" vol="60" pos="3048" len="2"/>
          <note pan="0" key="54" vol="60" pos="3060" len="2"/>
          <note pan="0" key="50" vol="60" pos="3072" len="2"/>
          <note pan="0" key="64" vol="60" pos="3084" len="2"/>
          <note pan="0" key="59" vol="60" pos="3096" len="2"/>
          <note pan="0" key="55" vol="60" pos="3108" len="2"/>
          <note pan="0" key="52" vol="60" pos="3120" len="2"/>
          <note pan="0" key="64" vol="60" pos="3132" len="2"/>
          <note pan="0" key="59" vol="60" pos="3144" len="2"/>
          <note pan="0" key="55" vol="60" pos="3156" len="2"/>
          <note pan="0" key="52" vol="60" pos="3168" len="2"/>
          <note pan="0" key="64" vol="60" pos="3180" len="2"/>
          <note pan="0" key="59" vol="60" pos="3192" len="2"/>
          <note pan="0" key="55" vol="60" pos="3204" len="2"/>
          <note pan="0" key="52" vol="60" pos="3216" len="2"/>
          <note pan="0" key="64" vol="60" pos="3228" len="2"/>
          <note pan="0" key="59" vol="60" pos="3240" len="2"/>
          <note pan="0" key="55" vol="60" pos="3252" len="2"/>
          <note pan="0" key="52" vol="60" pos="3264" len="2"/>
          <note pan="0" key="62" vol="60" pos="3276" len="2"/>
          <note pan="0" key="57" vol="60" pos="3288" len="2"/>
          <note pan="0" key="54" vol="60" pos="3300" len="2"/>
          <note pan="0" key="50" vol="60" pos="3312" len="2"/>
          <note pan="0" key="62" vol="60" pos="3324" len="2"/>
          <note pan="0" key="57" vol="60" pos="3336" len="2"/>
          <note pan="0" key="54" vol="60" pos="3348" len="2"/>
          <note pan="0" key="50" vol="60" pos="3360" len="2"/>
          <note pan="0" key="62" vol="60" pos="3372" len="2"/>
          <note pan="0" key="57" vol="60" pos="3384" len="2"/>
          <note pan="0" key="54" vol="60" pos="3396" len="2"/>
          <note pan="0" key="50" vol="60" pos="3408" len="2"/>
          <note pan="0" key="62" vol="60" pos="3420" len="2"/>
          <note pan="0" key="57" vol="60" pos="3432" len="2"/>
          <note pan="0" key="54" vol="60" pos="3444" len="2"/>
          <note pan="0" key="50" vol="60" pos="3456" len="2"/>
          <note pan="0" key="64" vol="60" pos="3468" len="2"/>
          <note pan="0" key="59" vol="60" pos="3480" len="2"/>
          <note pan="0" key="55" vol="60" pos="3492" len="2"/>
          <note pan="0" key="52" vol="60" pos="3504" len="2"/>
          <note pan="0" key="64" vol="60" pos="3516" len="2"/>
          <note pan="0" key="59" vol="60" pos="3528" len="2"/>
          <note pan="0" key="55" vol="60" pos="3540" len="2"/>
          <note pan="0" key="52" vol="60" pos="3552" len="2"/>
          <note pan="0" key="64" vol="60" pos="3564" len="2"/>
          <note pan="0" key="59" vol="60" pos="3576" len="2"/>
          <note pan="0" key="55" vol="60" pos="3588" len="2"/>
          <note pan="0" key="52" vol="60" pos="3600" len="2"/>
          <note pan="0" key="64" vol="60" pos="3612" len="2"/>
          <note pan="0" key="59" vol="60" pos="3624" len="2"/>
          <note pan="0" key="55" vol="60" pos="3636" len="2"/>
          <note pan="0" key="52" vol="60" pos="3648" len="2"/>
          <note pan="0" key="62" vol="60" pos="3660" len="2"/>
          <note pan="0" key="57" vol="60" pos="3672" len="2"/>
          <note pan="0" key="54" vol="60" pos="3684" len="2"/>
          <note pan="0" key="50" vol="60" pos="3696" len="2"/>
          <note pan="0" key="62" vol="60" pos="3708" len="2"/>
          <note pan="0" key="57" vol="60" pos="3720" len="2"/>
          <note pan="0" key="54" vol="60" pos="3732" len="2"/>
          <note pan="0" key="50" vol="60" pos="3744" len="2"/>
          <note pan="0" key="62" vol="60" pos="3756" len="2"/>
          <note pan="0" key="57" vol="60" pos="3768" len="2"/>
          <note pan="0" key="54" vol="60" pos="3780" len="2"/>
          <note pan="0" key="50" vol="60" pos="3792" len="2"/>
          <note pan="0" key="62" vol="60" pos="3804" len="2"/>
          <note pan="0" key="57" vol="60" pos="3816" len="2"/>
          <note pan="0" key="54" vol="60" pos="3828" len="2"/>
          <note pan="0" key="50" vol="60" pos="3840" len="2"/>
          <note pan="0" key="64" vol="60" pos="3852" len="2"/>
          <note pan="0" key="59" vol="60" pos="3864" len="2"/>
          <note pan="0" key="55" vol="60" pos="3876" len="2"/>
          <note pan="0" key="52" vol="60" pos="3888" len="2"/>
          <note pan="0" key="64" vol="60" pos="3900" len="2"/>
          <note pan="0" key="59" vol="60" pos="3912" len="2"/>
          <note pan="0" key="55" vol="60" pos="3924" len="2"/>
          <note pan="0" key="52" vol="60" pos="3936" len="2"/>
          <note pan="0" key="64" vol="60" pos="3948" len="2"/>
          <note pan="0" key="59" vol="60" pos="3960" len="2"/>
          <note pan="0" key="55" vol="60" pos="3972" len="2"/>
          <note pan="0" key="52" vol="60" pos="3984" len="2"/>
          <note pan="0" key="64" vol="60" pos="3996" len="2"/>
          <note pan="0" key="59" vol="60" pos="4008" len="2"/>
          <note pan="0" key="55" vol="60" pos="4020" len="2"/>
          <note pan="0" key="52" vol="60" pos="4032" len="2"/>
          <note pan="0" key="62" vol="60" pos="4044" len="2"/>
          <note pan="0" key="57" vol="60" pos="4056" len="2"/>
          <note pan="0" key="54" vol="60" pos="4068" len="2"/>
          <note pan="0" key="50" vol="60" pos="4080" len="2"/>
          <note pan="0" key="62" vol="60" pos="4092" len="2"/>
          <note pan="0" key="57" vol="60" pos="4104" len="2"/>
          <note pan="0" key="54" vol="60" pos="4116" len="2"/>
          <note pan="0" key="50" vol="60" pos="4128" len="2"/>
          <note pan="0" key="62" vol="60" pos="4140" len="2"/>
          <note pan="0" key="57" vol="60" pos="4152" len="2"/>
          <note pan="0" key="54" vol="60" pos="4164" len="2"/>
          <note pan="0" key="50" vol="60" pos="4176" len="2"/>
          <note pan="0" key="62" vol="60" pos="4188" len="2"/>
          <note pan="0" key="57" vol="60" pos="4200" len="2"/>
          <note pan="0" key="54" vol="60" pos="4212" len="2"/>
          <note pan="0" key="50" vol="60" pos="4224" len="2"/>
          <note pan="0" key="64" vol="60" pos="4236" len="2"/>
          <note pan="0" key="59" vol="60" pos="4248" len="2"/>
          <note pan="0" key="55" vol="60" pos="4260" len="2"/>
          <note pan="0" key="52" vol="60" pos="4272" len="2"/>
          <note pan="0" key="64" vol="60" pos="4284" len="2"/>
          <note pan="0" key="59" vol="60" pos="4296" len="2"/>
          <note pan="0" key="55" vol="60" pos="4308" len="2"/>
          <note pan="0" key="52" vol="60" pos="4320" len="2"/>
          <note pan="0" key="64" vol="60" pos="4332" len="2"/>
          <note pan="0" key="59" vol="60" pos="4344" len="2"/>
          <note pan="0" key="55" vol="60" pos="4356" len="2"/>
          <note pan="0" key="52" vol="60" pos="4368" len="2"/>
          <note pan="0" key="64" vol="60" pos="4380" len="2"/>
          <note pan="0" key="59" vol="60" pos="4392" len="2"/>
          <note pan="0" key="55" vol="60" pos="4404" len="2"/>
          <note pan="0" key="52" vol="60" pos="4416" len="2"/>
          <note pan="0" key="62" vol="60" pos="4428" len="2"/>
          <note pan="0" key="57" vol="60" pos="4440" len="2"/>
          <note pan="0" key="54" vol="60" pos="4452" len="2"/>
          <note pan="0" key="50" vol="60" pos="4464" len="2"/>
          <note pan="0" key="62" vol="60" pos="4476" len="2"/>
          <note pan="0" key="57" vol="60" pos="4488" len="2"/>
          <note pan="0" key="54" vol="60" pos="4500" len="2"/>
          <note pan="0" key="50" vol="60" pos="4512" len="2"/>
          <note pan="0" key="62" vol="60" pos="4524" len="2"/>
          <note pan="0" key="57" vol="60" pos="4536" len="2"/>
          <note pan="0" key="54" vol="60" pos="4548" len="2"/>
          <note pan="0" key="50" vol="60" pos="4560" len="2"/>
          <note pan="0" key="62" vol="60" pos="4572" len="2"/>
          <note pan="0" key="57" vol="60" pos="4584" len="2"/>
          <note pan="0" key="54" vol="60" pos="4596" len="2"/>
          <note pan="0" key="50" vol="60" pos="4608" len="2"/>
          <note pan="0" key="62" vol="60" pos="4620" len="2"/>
          <note pan="0" key="57" vol="60" pos="4632" len="2"/>
          <note pan="0" key="54" vol="60" pos="4644" len="2"/>
          <note pan="0" key="50" vol="60" pos="4656" len="2"/>
          <note pan="0" key="62" vol="60" pos="4668" len="2"/>
          <note pan="0" key="57" vol="60" pos="4680" len="2"/>
          <note pan="0" key="54" vol="60" pos="4692" len="2"/>
          <note pan="0" key="50" vol="60" pos="4704" len="2"/>
          <note pan="0" key="62" vol="60" pos="4716" len="2"/>
          <note pan="0" key="57" vol="60" pos="4728" len="2"/>
          <note pan="0" key="54" vol="60" pos="4740" len="2"/>
          <note pan="0" key="50" vol="60" pos="4752" len="2"/>
          <note pan="0" key="62" vol="60" pos="4764" len="2"/>
          <note pan="0" key="57" vol="60" pos="4776" len="2"/>
          <note pan="0" key="54" vol="60" pos="4788" len="2"/>
          <note pan="0" key="50" vol="60" pos="4800" len="2"/>
          <note pan="0" key="62" vol="60" pos="4812" len="2"/>
          <note pan="0" key="57" vol="60" pos="4824" len="2"/>
          <note pan="0" key="54" vol="60" pos="4836" len="2"/>
          <note pan="0" key="50" vol="60" pos="4848" len="2"/>
          <note pan="0" key="62" vol="60" pos="4860" len="2"/>
          <note pan="0" key="57" vol="60" pos="4872" len="2"/>
          <note pan="0" key="54" vol="60" pos="4884" len="2"/>
          <note pan="0" key="50" vol="60" pos="4896" len="2"/>
          <note pan="0" key="62" vol="60" pos="4908" len="2"/>
          <note pan="0" key="57" vol="60" pos="4920" len="2"/>
          <note pan="0" key="54" vol="60" pos="4932" len="2"/>
          <note pan="0" key="50" vol="60" pos="4944" len="2"/>
          <note pan="0" key="62" vol="60" pos="4956" len="2"/>
          <note pan="0" key="57" vol="60" pos="4968" len="2"/>
          <note pan="0" key="54" vol="60" pos="4980" len="2"/>
          <note pan="0" key="50" vol="60" pos="4992" len="2"/>
        </pattern>
      </track>
    </trackcontainer>
    <track muted="0" type="6" name="Automation track">
      <automationtrack/>
      <automationpattern name="Zhler" pos="0" len="192">
        <time value="4" pos="0"/>
      </automationpattern>
      <automationpattern name="Nenner" pos="0" len="192">
        <time value="4" pos="0"/>
      </automationpattern>
      <automationpattern name="Tempo" pos="0" len="192">
        <time value="120" pos="0"/>
        <object id="3727289"/>
      </automationpattern>
      <automationpattern name="Master-Lautstrke" pos="0" len="192">
        <time value="100" pos="0"/>
      </automationpattern>
      <automationpattern name="Master-Tonhhe" pos="0" len="192">
        <time value="0" pos="0"/>
      </automationpattern>
    </track>
    <fxmixer width="864" x="5" y="310" maximized="0" height="278" visible="1" minimized="0">
      <fxchannel num="0" muted="0" volume="1" name="Master">
        <fxchain numofeffects="0" enabled="0"/>
      </fxchannel>
      <fxchannel num="1" muted="0" volume="1" name="FX 1">
        <fxchain numofeffects="0" enabled="0"/>
      </fxchannel>
      <fxchannel num="2" muted="0" volume="1" name="FX 2">
        <fxchain numofeffects="0" enabled="0"/>
      </fxchannel>
      <fxchannel num="3" muted="0" volume="1" name="FX 3">
        <fxchain numofeffects="0" enabled="0"/>
      </fxchannel>
      <fxchannel num="4" muted="0" volume="1" name="FX 4">
        <fxchain numofeffects="0" enabled="0"/>
      </fxchannel>
      <fxchannel num="5" muted="0" volume="1" name="FX 5">
        <fxchain numofeffects="0" enabled="0"/>
      </fxchannel>
      <fxchannel num="6" muted="0" volume="1" name="FX 6">
        <fxchain numofeffects="0" enabled="0"/>
      </fxchannel>
      <fxchannel num="7" muted="0" volume="1" name="FX 7">
        <fxchain numofeffects="0" enabled="0"/>
      </fxchannel>
      <fxchannel num="8" muted="0" volume="1" name="FX 8">
        <fxchain numofeffects="0" enabled="0"/>
      </fxchannel>
      <fxchannel num="9" muted="0" volume="1" name="FX 9">
        <fxchain numofeffects="0" enabled="0"/>
      </fxchannel>
      <fxchannel num="10" muted="0" volume="1" name="FX 10">
        <fxchain numofeffects="0" enabled="0"/>
      </fxchannel>
      <fxchannel num="11" muted="0" volume="1" name="FX 11">
        <fxchain numofeffects="0" enabled="0"/>
      </fxchannel>
      <fxchannel num="12" muted="0" volume="1" name="FX 12">
        <fxchain numofeffects="0" enabled="0"/>
      </fxchannel>
      <fxchannel num="13" muted="0" volume="1" name="FX 13">
        <fxchain numofeffects="0" enabled="0"/>
      </fxchannel>
      <fxchannel num="14" muted="0" volume="1" name="FX 14">
        <fxchain numofeffects="0" enabled="0"/>
      </fxchannel>
      <fxchannel num="15" muted="0" volume="1" name="FX 15">
        <fxchain numofeffects="0" enabled="0"/>
      </fxchannel>
      <fxchannel num="16" muted="0" volume="1" name="FX 16">
        <fxchain numofeffects="0" enabled="0"/>
      </fxchannel>
      <fxchannel num="17" muted="0" volume="1" name="FX 17">
        <fxchain numofeffects="0" enabled="0"/>
      </fxchannel>
      <fxchannel num="18" muted="0" volume="1" name="FX 18">
        <fxchain numofeffects="0" enabled="0"/>
      </fxchannel>
      <fxchannel num="19" muted="0" volume="1" name="FX 19">
        <fxchain numofeffects="0" enabled="0"/>
      </fxchannel>
      <fxchannel num="20" muted="0" volume="1" name="FX 20">
        <fxchain numofeffects="0" enabled="0"/>
      </fxchannel>
      <fxchannel num="21" muted="0" volume="1" name="FX 21">
        <fxchain numofeffects="0" enabled="0"/>
      </fxchannel>
      <fxchannel num="22" muted="0" volume="1" name="FX 22">
        <fxchain numofeffects="0" enabled="0"/>
      </fxchannel>
      <fxchannel num="23" muted="0" volume="1" name="FX 23">
        <fxchain numofeffects="0" enabled="0"/>
      </fxchannel>
      <fxchannel num="24" muted="0" volume="1" name="FX 24">
        <fxchain numofeffects="0" enabled="0"/>
      </fxchannel>
      <fxchannel num="25" muted="0" volume="1" name="FX 25">
        <fxchain numofeffects="0" enabled="0"/>
      </fxchannel>
      <fxchannel num="26" muted="0" volume="1" name="FX 26">
        <fxchain numofeffects="0" enabled="0"/>
      </fxchannel>
      <fxchannel num="27" muted="0" volume="1" name="FX 27">
        <fxchain numofeffects="0" enabled="0"/>
      </fxchannel>
      <fxchannel num="28" muted="0" volume="1" name="FX 28">
        <fxchain numofeffects="0" enabled="0"/>
      </fxchannel>
      <fxchannel num="29" muted="0" volume="1" name="FX 29">
        <fxchain numofeffects="0" enabled="0"/>
      </fxchannel>
      <fxchannel num="30" muted="0" volume="1" name="FX 30">
        <fxchain numofeffects="0" enabled="0"/>
      </fxchannel>
      <fxchannel num="31" muted="0" volume="1" name="FX 31">
        <fxchain numofeffects="0" enabled="0"/>
      </fxchannel>
      <fxchannel num="32" muted="0" volume="1" name="FX 32">
        <fxchain numofeffects="0" enabled="0"/>
      </fxchannel>
      <fxchannel num="33" muted="0" volume="1" name="FX 33">
        <fxchain numofeffects="0" enabled="0"/>
      </fxchannel>
      <fxchannel num="34" muted="0" volume="1" name="FX 34">
        <fxchain numofeffects="0" enabled="0"/>
      </fxchannel>
      <fxchannel num="35" muted="0" volume="1" name="FX 35">
        <fxchain numofeffects="0" enabled="0"/>
      </fxchannel>
      <fxchannel num="36" muted="0" volume="1" name="FX 36">
        <fxchain numofeffects="0" enabled="0"/>
      </fxchannel>
      <fxchannel num="37" muted="0" volume="1" name="FX 37">
        <fxchain numofeffects="0" enabled="0"/>
      </fxchannel>
      <fxchannel num="38" muted="0" volume="1" name="FX 38">
        <fxchain numofeffects="0" enabled="0"/>
      </fxchannel>
      <fxchannel num="39" muted="0" volume="1" name="FX 39">
        <fxchain numofeffects="0" enabled="0"/>
      </fxchannel>
      <fxchannel num="40" muted="0" volume="1" name="FX 40">
        <fxchain numofeffects="0" enabled="0"/>
      </fxchannel>
      <fxchannel num="41" muted="0" volume="1" name="FX 41">
        <fxchain numofeffects="0" enabled="0"/>
      </fxchannel>
      <fxchannel num="42" muted="0" volume="1" name="FX 42">
        <fxchain numofeffects="0" enabled="0"/>
      </fxchannel>
      <fxchannel num="43" muted="0" volume="1" name="FX 43">
        <fxchain numofeffects="0" enabled="0"/>
      </fxchannel>
      <fxchannel num="44" muted="0" volume="1" name="FX 44">
        <fxchain numofeffects="0" enabled="0"/>
      </fxchannel>
      <fxchannel num="45" muted="0" volume="1" name="FX 45">
        <fxchain numofeffects="0" enabled="0"/>
      </fxchannel>
      <fxchannel num="46" muted="0" volume="1" name="FX 46">
        <fxchain numofeffects="0" enabled="0"/>
      </fxchannel>
      <fxchannel num="47" muted="0" volume="1" name="FX 47">
        <fxchain numofeffects="0" enabled="0"/>
      </fxchannel>
      <fxchannel num="48" muted="0" volume="1" name="FX 48">
        <fxchain numofeffects="0" enabled="0"/>
      </fxchannel>
      <fxchannel num="49" muted="0" volume="1" name="FX 49">
        <fxchain numofeffects="0" enabled="0"/>
      </fxchannel>
      <fxchannel num="50" muted="0" volume="1" name="FX 50">
        <fxchain numofeffects="0" enabled="0"/>
      </fxchannel>
      <fxchannel num="51" muted="0" volume="1" name="FX 51">
        <fxchain numofeffects="0" enabled="0"/>
      </fxchannel>
      <fxchannel num="52" muted="0" volume="1" name="FX 52">
        <fxchain numofeffects="0" enabled="0"/>
      </fxchannel>
      <fxchannel num="53" muted="0" volume="1" name="FX 53">
        <fxchain numofeffects="0" enabled="0"/>
      </fxchannel>
      <fxchannel num="54" muted="0" volume="1" name="FX 54">
        <fxchain numofeffects="0" enabled="0"/>
      </fxchannel>
      <fxchannel num="55" muted="0" volume="1" name="FX 55">
        <fxchain numofeffects="0" enabled="0"/>
      </fxchannel>
      <fxchannel num="56" muted="0" volume="1" name="FX 56">
        <fxchain numofeffects="0" enabled="0"/>
      </fxchannel>
      <fxchannel num="57" muted="0" volume="1" name="FX 57">
        <fxchain numofeffects="0" enabled="0"/>
      </fxchannel>
      <fxchannel num="58" muted="0" volume="1" name="FX 58">
        <fxchain numofeffects="0" enabled="0"/>
      </fxchannel>
      <fxchannel num="59" muted="0" volume="1" name="FX 59">
        <fxchain numofeffects="0" enabled="0"/>
      </fxchannel>
      <fxchannel num="60" muted="0" volume="1" name="FX 60">
        <fxchain numofeffects="0" enabled="0"/>
      </fxchannel>
      <fxchannel num="61" muted="0" volume="1" name="FX 61">
        <fxchain numofeffects="0" enabled="0"/>
      </fxchannel>
      <fxchannel num="62" muted="0" volume="1" name="FX 62">
        <fxchain numofeffects="0" enabled="0"/>
      </fxchannel>
      <fxchannel num="63" muted="0" volume="1" name="FX 63">
        <fxchain numofeffects="0" enabled="0"/>
      </fxchannel>
      <fxchannel num="64" muted="0" volume="1" name="FX 64">
        <fxchain numofeffects="0" enabled="0"/>
      </fxchannel>
    </fxmixer>
    <ControllerRackView width="258" x="880" y="310" maximized="0" height="172" visible="1" minimized="0"/>
    <pianoroll width="1135" x="115" y="153" maximized="0" height="480" visible="0" minimized="0"/>
    <automationeditor width="740" x="510" y="153" maximized="0" height="480" visible="0" minimized="0"/>
    <projectnotes width="400" x="700" y="10" maximized="0" height="300" visible="0" minimized="0"><![CDATA[<!DOCTYPE HTML PUBLIC "-//W3C//DTD HTML 4.0//EN" "http://www.w3.org/TR/REC-html40/strict.dtd">
<html><head><meta name="qrichtext" content="1" /><style type="text/css">
p, li { white-space: pre-wrap; }
</style></head><body style=" font-family:'MS Shell Dlg 2'; font-size:8.25pt; font-weight:400; font-style:normal;">
<p style=" margin-top:0px; margin-bottom:0px; margin-left:0px; margin-right:0px; -qt-block-indent:0; text-indent:0px;"><span style=" font-size:8pt; color:#e0e0e0;">Schreiben Sie hier Ihre Projekt-Notizen auf.</span></p></body></html>]]></projectnotes>
    <timeline lp1pos="192" lp0pos="0" lpstate="0"/>
    <controllers/>
  </song>
</multimedia-project>

