<?xml version="1.0"?>
<!DOCTYPE lmms-project>
<lmms-project creatorversion="1.3.0-alpha.1.33+g4f74151f0" type="song" version="18" creator="LMMS">
  <head masterpitch="0" mastervol="152">
    <bpm value="100" scale_type="linear" id="17924"/>
    <timesig_numerator value="4" scale_type="linear" id="26644"/>
    <timesig_denominator value="4" scale_type="linear" id="6974"/>
  </head>
  <song>
    <trackcontainer x="324" y="620" visible="0" minimized="0" height="600" type="song" width="1033" maximized="0">
      <track type="5" muted="0" name="MIDI Time Signature Numerator" mutedBeforeSolo="0" solo="0">
        <automationtrack/>
        <automationpattern pos="0" tens="1" mute="0" prog="0" len="192" name="Numerator">
          <time value="4" pos="0"/>
          <object id="26644"/>
        </automationpattern>
      </track>
      <track type="5" muted="0" name="MIDI Time Signature Denominator" mutedBeforeSolo="0" solo="0">
        <automationtrack/>
        <automationpattern pos="0" tens="1" mute="0" prog="0" len="192" name="Denominator">
          <time value="4" pos="0"/>
          <object id="6974"/>
        </automationpattern>
      </track>
      <track type="0" muted="1" name="Acoustic Piano" mutedBeforeSolo="0" solo="0">
        <instrumenttrack usemasterpitch="1" fxch="0" basenote="57" vol="100" pan="0" pitch="0" pitchrange="2">
          <instrument name="sf2player">
            <sf2player src="usersoundfont:GeneralUser GS MuseScore v1.442.sf2" reverbOn="0" reverbWidth="0.5" reverbDamping="0" chorusSpeed="0.3" patch="0" chorusLevel="2" reverbLevel="0.9" bank="0" chorusNum="3" chorusDepth="8" chorusOn="0" gain="1" reverbRoomSize="0.2">
              <key/>
            </sf2player>
          </instrument>
          <eldata fcut="14000" fres="0.5" fwet="0" ftype="0">
            <elvol rel="0.1" userwavefile="" lspd_syncmode="0" lspd_numerator="4" sustain="0.5" lpdel="0" lshp="0" latt="0" lamt="0" x100="0" lspd="0.1" lspd_denominator="4" amt="0" hold="0.5" att="0" ctlenvamt="0" dec="0.5" pdel="0"/>
            <elcut rel="0.1" userwavefile="" lspd_syncmode="0" lspd_numerator="4" sustain="0.5" lpdel="0" lshp="0" latt="0" lamt="0" x100="0" lspd="0.1" lspd_denominator="4" amt="0" hold="0.5" att="0" ctlenvamt="0" dec="0.5" pdel="0"/>
            <elres rel="0.1" userwavefile="" lspd_syncmode="0" lspd_numerator="4" sustain="0.5" lpdel="0" lshp="0" latt="0" lamt="0" x100="0" lspd="0.1" lspd_denominator="4" amt="0" hold="0.5" att="0" ctlenvamt="0" dec="0.5" pdel="0"/>
          </eldata>
          <chordcreator chord-enabled="0" chordrange="1" chord="0"/>
          <arpeggiator arpcycle="0" arptime="200" arptime_numerator="4" arpgate="100" arpdir="0" arptime_denominator="4" arp="0" arpskip="0" arp-enabled="0" arpmiss="0" arptime_syncmode="0" arprange="1" arpmode="0"/>
          <midiport inputcontroller="0" writable="0" readable="0" inputchannel="0" basevelocity="63" fixedinputvelocity="-1" outputcontroller="0" fixedoutputvelocity="-1" outputchannel="1" fixedoutputnote="-1" outputprogram="1"/>
          <fxchain enabled="0" numofeffects="0"/>
        </instrumenttrack>
        <pattern pos="0" steps="16" type="0" muted="0" name=""/>
      </track>
      <track type="0" muted="1" name="GenesiSF" mutedBeforeSolo="0" solo="0">
        <instrumenttrack usemasterpitch="1" fxch="0" basenote="57" vol="100" pan="0" pitch="0" pitchrange="2">
          <instrument name="sf2player">
            <sf2player src="usersoundfont:GenesiSF.SF2" reverbOn="0" reverbWidth="0.5" reverbDamping="0" chorusSpeed="0.3" patch="70" chorusLevel="2" reverbLevel="0" bank="0" chorusNum="3" chorusDepth="8" chorusOn="0" gain="1" reverbRoomSize="0.2">
              <key/>
            </sf2player>
          </instrument>
          <eldata fcut="14000" fres="0.5" fwet="0" ftype="0">
            <elvol rel="0.1" userwavefile="" lspd_syncmode="0" lspd_numerator="4" sustain="0.5" lpdel="0" lshp="0" latt="0" lamt="0" x100="0" lspd="0.1" lspd_denominator="4" amt="0" hold="0.5" att="0" ctlenvamt="0" dec="0.5" pdel="0"/>
            <elcut rel="0.1" userwavefile="" lspd_syncmode="0" lspd_numerator="4" sustain="0.5" lpdel="0" lshp="0" latt="0" lamt="0" x100="0" lspd="0.1" lspd_denominator="4" amt="0" hold="0.5" att="0" ctlenvamt="0" dec="0.5" pdel="0"/>
            <elres rel="0.1" userwavefile="" lspd_syncmode="0" lspd_numerator="4" sustain="0.5" lpdel="0" lshp="0" latt="0" lamt="0" x100="0" lspd="0.1" lspd_denominator="4" amt="0" hold="0.5" att="0" ctlenvamt="0" dec="0.5" pdel="0"/>
          </eldata>
          <chordcreator chord-enabled="0" chordrange="1" chord="0"/>
          <arpeggiator arpcycle="0" arptime="200" arptime_numerator="4" arpgate="100" arpdir="0" arptime_denominator="4" arp="0" arpskip="0" arp-enabled="0" arpmiss="0" arptime_syncmode="0" arprange="1" arpmode="0"/>
          <midiport inputcontroller="0" writable="0" readable="0" inputchannel="0" basevelocity="63" fixedinputvelocity="-1" outputcontroller="0" fixedoutputvelocity="-1" outputchannel="1" fixedoutputnote="-1" outputprogram="1"/>
          <fxchain enabled="0" numofeffects="0"/>
        </instrumenttrack>
        <pattern pos="1536" steps="16" type="1" muted="0" name="">
          <note pos="0" len="36" vol="100" key="55" pan="0"/>
          <note pos="36" len="60" vol="100" key="55" pan="0"/>
          <note pos="96" len="36" vol="100" key="54" pan="0"/>
          <note pos="132" len="36" vol="100" key="55" pan="0"/>
          <note pos="168" len="24" vol="100" key="54" pan="0"/>
          <note pos="192" len="96" vol="100" key="54" pan="0"/>
          <note pos="288" len="96" vol="100" key="52" pan="0"/>
          <note pos="384" len="36" vol="100" key="55" pan="0"/>
          <note pos="420" len="60" vol="100" key="55" pan="0"/>
          <note pos="480" len="36" vol="100" key="57" pan="0"/>
          <note pos="516" len="36" vol="100" key="55" pan="0"/>
          <note pos="552" len="24" vol="100" key="57" pan="0"/>
          <note pos="576" len="96" vol="100" key="54" pan="0"/>
          <note pos="672" len="96" vol="100" key="52" pan="0"/>
          <note pos="768" len="36" vol="100" key="47" pan="0"/>
          <note pos="804" len="36" vol="100" key="52" pan="0"/>
          <note pos="840" len="24" vol="100" key="55" pan="0"/>
          <note pos="864" len="36" vol="100" key="54" pan="0"/>
          <note pos="900" len="36" vol="100" key="52" pan="0"/>
          <note pos="936" len="24" vol="100" key="54" pan="0"/>
          <note pos="960" len="36" vol="100" key="55" pan="0"/>
          <note pos="996" len="36" vol="100" key="54" pan="0"/>
          <note pos="1032" len="120" vol="100" key="52" pan="0"/>
          <note pos="1152" len="36" vol="100" key="57" pan="0"/>
          <note pos="1188" len="36" vol="100" key="55" pan="0"/>
          <note pos="1224" len="24" vol="100" key="54" pan="0"/>
          <note pos="1248" len="36" vol="100" key="55" pan="0"/>
          <note pos="1284" len="36" vol="100" key="54" pan="0"/>
          <note pos="1320" len="24" vol="100" key="52" pan="0"/>
          <note pos="1344" len="36" vol="100" key="48" pan="0"/>
          <note pos="1380" len="36" vol="100" key="52" pan="0"/>
          <note pos="1416" len="120" vol="100" key="55" pan="0"/>
          <note pos="1536" len="36" vol="100" key="59" pan="0"/>
          <note pos="1572" len="36" vol="100" key="52" pan="0"/>
          <note pos="1608" len="24" vol="100" key="59" pan="0"/>
          <note pos="1632" len="36" vol="100" key="57" pan="0"/>
          <note pos="1668" len="36" vol="100" key="54" pan="0"/>
          <note pos="1704" len="24" vol="100" key="57" pan="0"/>
          <note pos="1728" len="36" vol="100" key="55" pan="0"/>
          <note pos="1764" len="36" vol="100" key="54" pan="0"/>
          <note pos="1800" len="120" vol="100" key="52" pan="0"/>
          <note pos="1920" len="36" vol="100" key="52" pan="0"/>
          <note pos="1956" len="36" vol="100" key="55" pan="0"/>
          <note pos="1992" len="24" vol="100" key="52" pan="0"/>
          <note pos="2016" len="36" vol="100" key="50" pan="0"/>
          <note pos="2052" len="36" vol="100" key="54" pan="0"/>
          <note pos="2088" len="24" vol="100" key="50" pan="0"/>
          <note pos="2112" len="96" vol="100" key="49" pan="0"/>
          <note pos="2208" len="36" vol="100" key="57" pan="0"/>
          <note pos="2244" len="36" vol="100" key="55" pan="0"/>
          <note pos="2280" len="24" vol="100" key="54" pan="0"/>
          <note pos="2304" len="192" vol="100" key="55" pan="0"/>
        </pattern>
        <pattern pos="8640" steps="16" type="1" muted="0" name="">
          <note pos="0" len="36" vol="100" key="55" pan="0"/>
          <note pos="36" len="60" vol="100" key="55" pan="0"/>
          <note pos="96" len="36" vol="100" key="54" pan="0"/>
          <note pos="132" len="36" vol="100" key="55" pan="0"/>
          <note pos="168" len="24" vol="100" key="54" pan="0"/>
          <note pos="192" len="96" vol="100" key="54" pan="0"/>
          <note pos="288" len="96" vol="100" key="52" pan="0"/>
          <note pos="384" len="36" vol="100" key="55" pan="0"/>
          <note pos="420" len="60" vol="100" key="55" pan="0"/>
          <note pos="480" len="36" vol="100" key="57" pan="0"/>
          <note pos="516" len="36" vol="100" key="55" pan="0"/>
          <note pos="552" len="24" vol="100" key="57" pan="0"/>
          <note pos="576" len="96" vol="100" key="54" pan="0"/>
          <note pos="672" len="96" vol="100" key="52" pan="0"/>
          <note pos="768" len="36" vol="100" key="47" pan="0"/>
          <note pos="804" len="36" vol="100" key="52" pan="0"/>
          <note pos="840" len="24" vol="100" key="55" pan="0"/>
          <note pos="864" len="36" vol="100" key="54" pan="0"/>
          <note pos="900" len="36" vol="100" key="52" pan="0"/>
          <note pos="936" len="24" vol="100" key="54" pan="0"/>
          <note pos="960" len="36" vol="100" key="55" pan="0"/>
          <note pos="996" len="36" vol="100" key="54" pan="0"/>
          <note pos="1032" len="120" vol="100" key="52" pan="0"/>
          <note pos="1152" len="36" vol="100" key="57" pan="0"/>
          <note pos="1188" len="36" vol="100" key="55" pan="0"/>
          <note pos="1224" len="24" vol="100" key="54" pan="0"/>
          <note pos="1248" len="36" vol="100" key="55" pan="0"/>
          <note pos="1284" len="36" vol="100" key="54" pan="0"/>
          <note pos="1320" len="24" vol="100" key="52" pan="0"/>
          <note pos="1344" len="36" vol="100" key="48" pan="0"/>
          <note pos="1380" len="36" vol="100" key="52" pan="0"/>
          <note pos="1416" len="120" vol="100" key="55" pan="0"/>
          <note pos="1536" len="36" vol="100" key="59" pan="0"/>
          <note pos="1572" len="36" vol="100" key="52" pan="0"/>
          <note pos="1608" len="24" vol="100" key="59" pan="0"/>
          <note pos="1632" len="36" vol="100" key="57" pan="0"/>
          <note pos="1668" len="36" vol="100" key="54" pan="0"/>
          <note pos="1704" len="24" vol="100" key="57" pan="0"/>
          <note pos="1728" len="36" vol="100" key="55" pan="0"/>
          <note pos="1764" len="36" vol="100" key="54" pan="0"/>
          <note pos="1800" len="120" vol="100" key="52" pan="0"/>
          <note pos="1920" len="36" vol="100" key="52" pan="0"/>
          <note pos="1956" len="36" vol="100" key="55" pan="0"/>
          <note pos="1992" len="24" vol="100" key="52" pan="0"/>
          <note pos="2016" len="36" vol="100" key="50" pan="0"/>
          <note pos="2052" len="36" vol="100" key="54" pan="0"/>
          <note pos="2088" len="24" vol="100" key="50" pan="0"/>
          <note pos="2112" len="384" vol="100" key="49" pan="0"/>
        </pattern>
      </track>
      <track type="0" muted="1" name="Acoustic Piano" mutedBeforeSolo="0" solo="0">
        <instrumenttrack usemasterpitch="1" fxch="0" basenote="57" vol="100" pan="0" pitch="0" pitchrange="2">
          <instrument name="sf2player">
            <sf2player src="usersoundfont:GeneralUser GS MuseScore v1.442.sf2" reverbOn="0" reverbWidth="0.5" reverbDamping="0" chorusSpeed="0.3" patch="38" chorusLevel="2" reverbLevel="0.9" bank="0" chorusNum="3" chorusDepth="8" chorusOn="0" gain="1" reverbRoomSize="0.2">
              <key/>
            </sf2player>
          </instrument>
          <eldata fcut="14000" fres="0.5" fwet="0" ftype="0">
            <elvol rel="0.1" userwavefile="" lspd_syncmode="0" lspd_numerator="4" sustain="0.5" lpdel="0" lshp="0" latt="0" lamt="0" x100="0" lspd="0.1" lspd_denominator="4" amt="0" hold="0.5" att="0" ctlenvamt="0" dec="0.5" pdel="0"/>
            <elcut rel="0.1" userwavefile="" lspd_syncmode="0" lspd_numerator="4" sustain="0.5" lpdel="0" lshp="0" latt="0" lamt="0" x100="0" lspd="0.1" lspd_denominator="4" amt="0" hold="0.5" att="0" ctlenvamt="0" dec="0.5" pdel="0"/>
            <elres rel="0.1" userwavefile="" lspd_syncmode="0" lspd_numerator="4" sustain="0.5" lpdel="0" lshp="0" latt="0" lamt="0" x100="0" lspd="0.1" lspd_denominator="4" amt="0" hold="0.5" att="0" ctlenvamt="0" dec="0.5" pdel="0"/>
          </eldata>
          <chordcreator chord-enabled="0" chordrange="1" chord="0"/>
          <arpeggiator arpcycle="0" arptime="200" arptime_numerator="4" arpgate="100" arpdir="0" arptime_denominator="4" arp="0" arpskip="0" arp-enabled="0" arpmiss="0" arptime_syncmode="0" arprange="1" arpmode="0"/>
          <midiport inputcontroller="0" writable="0" readable="0" inputchannel="0" basevelocity="63" fixedinputvelocity="-1" outputcontroller="0" fixedoutputvelocity="-1" outputchannel="1" fixedoutputnote="-1" outputprogram="1"/>
          <fxchain enabled="0" numofeffects="0"/>
        </instrumenttrack>
        <pattern pos="0" steps="16" type="1" muted="0" name="">
          <note pos="0" len="36" vol="100" key="16" pan="0"/>
          <note pos="36" len="36" vol="100" key="28" pan="0"/>
          <note pos="72" len="24" vol="100" key="16" pan="0"/>
          <note pos="96" len="36" vol="100" key="26" pan="0"/>
          <note pos="132" len="36" vol="100" key="28" pan="0"/>
          <note pos="168" len="24" vol="100" key="16" pan="0"/>
          <note pos="192" len="36" vol="100" key="14" pan="0"/>
          <note pos="228" len="36" vol="100" key="26" pan="0"/>
          <note pos="264" len="24" vol="100" key="14" pan="0"/>
          <note pos="288" len="36" vol="100" key="23" pan="0"/>
          <note pos="324" len="36" vol="100" key="26" pan="0"/>
          <note pos="360" len="24" vol="100" key="14" pan="0"/>
          <note pos="384" len="36" vol="100" key="24" pan="0"/>
          <note pos="420" len="36" vol="100" key="36" pan="0"/>
          <note pos="456" len="24" vol="100" key="24" pan="0"/>
          <note pos="480" len="36" vol="100" key="31" pan="0"/>
          <note pos="516" len="36" vol="100" key="36" pan="0"/>
          <note pos="552" len="24" vol="100" key="24" pan="0"/>
          <note pos="576" len="36" vol="100" key="23" pan="0"/>
          <note pos="612" len="36" vol="100" key="35" pan="0"/>
          <note pos="648" len="24" vol="100" key="23" pan="0"/>
          <note pos="672" len="36" vol="100" key="30" pan="0"/>
          <note pos="708" len="36" vol="100" key="31" pan="0"/>
          <note pos="744" len="24" vol="100" key="30" pan="0"/>
          <note pos="768" len="24" vol="100" key="24" pan="0"/>
          <note pos="792" len="12" vol="100" key="19" pan="0"/>
          <note pos="804" len="12" vol="100" key="36" pan="0"/>
          <note pos="828" len="12" vol="100" key="24" pan="0"/>
          <note pos="840" len="12" vol="100" key="24" pan="0"/>
          <note pos="852" len="12" vol="100" key="24" pan="0"/>
          <note pos="864" len="12" vol="100" key="26" pan="0"/>
          <note pos="888" len="12" vol="100" key="24" pan="0"/>
          <note pos="912" len="12" vol="100" key="26" pan="0"/>
          <note pos="936" len="12" vol="100" key="21" pan="0"/>
          <note pos="960" len="24" vol="100" key="23" pan="0"/>
          <note pos="984" len="12" vol="100" key="18" pan="0"/>
          <note pos="996" len="12" vol="100" key="30" pan="0"/>
          <note pos="1020" len="12" vol="100" key="23" pan="0"/>
          <note pos="1032" len="12" vol="100" key="23" pan="0"/>
          <note pos="1044" len="12" vol="100" key="23" pan="0"/>
          <note pos="1056" len="12" vol="100" key="24" pan="0"/>
          <note pos="1080" len="12" vol="100" key="23" pan="0"/>
          <note pos="1104" len="12" vol="100" key="24" pan="0"/>
          <note pos="1128" len="12" vol="100" key="19" pan="0"/>
          <note pos="1152" len="24" vol="100" key="24" pan="0"/>
          <note pos="1176" len="12" vol="100" key="19" pan="0"/>
          <note pos="1188" len="12" vol="100" key="36" pan="0"/>
          <note pos="1212" len="12" vol="100" key="24" pan="0"/>
          <note pos="1224" len="12" vol="100" key="24" pan="0"/>
          <note pos="1236" len="12" vol="100" key="24" pan="0"/>
          <note pos="1248" len="12" vol="100" key="26" pan="0"/>
          <note pos="1272" len="12" vol="100" key="24" pan="0"/>
          <note pos="1296" len="12" vol="100" key="26" pan="0"/>
          <note pos="1320" len="12" vol="100" key="21" pan="0"/>
          <note pos="1344" len="24" vol="100" key="23" pan="0"/>
          <note pos="1368" len="12" vol="100" key="18" pan="0"/>
          <note pos="1380" len="12" vol="100" key="30" pan="0"/>
          <note pos="1404" len="12" vol="100" key="23" pan="0"/>
          <note pos="1416" len="12" vol="100" key="23" pan="0"/>
          <note pos="1428" len="12" vol="100" key="23" pan="0"/>
          <note pos="1440" len="12" vol="100" key="21" pan="0"/>
          <note pos="1452" len="12" vol="100" key="21" pan="0"/>
          <note pos="1464" len="12" vol="100" key="21" pan="0"/>
          <note pos="1476" len="12" vol="100" key="33" pan="0"/>
          <note pos="1500" len="12" vol="100" key="21" pan="0"/>
          <note pos="1512" len="12" vol="100" key="21" pan="0"/>
          <note pos="1536" len="24" vol="100" key="24" pan="0"/>
          <note pos="1560" len="12" vol="100" key="19" pan="0"/>
          <note pos="1572" len="12" vol="100" key="36" pan="0"/>
          <note pos="1596" len="12" vol="100" key="24" pan="0"/>
          <note pos="1608" len="12" vol="100" key="24" pan="0"/>
          <note pos="1620" len="12" vol="100" key="24" pan="0"/>
          <note pos="1632" len="12" vol="100" key="26" pan="0"/>
          <note pos="1656" len="12" vol="100" key="24" pan="0"/>
          <note pos="1680" len="12" vol="100" key="26" pan="0"/>
          <note pos="1704" len="12" vol="100" key="21" pan="0"/>
          <note pos="1728" len="24" vol="100" key="23" pan="0"/>
          <note pos="1752" len="12" vol="100" key="18" pan="0"/>
          <note pos="1764" len="12" vol="100" key="30" pan="0"/>
          <note pos="1788" len="12" vol="100" key="23" pan="0"/>
          <note pos="1800" len="12" vol="100" key="23" pan="0"/>
          <note pos="1812" len="12" vol="100" key="23" pan="0"/>
          <note pos="1824" len="12" vol="100" key="24" pan="0"/>
          <note pos="1848" len="12" vol="100" key="23" pan="0"/>
          <note pos="1872" len="12" vol="100" key="24" pan="0"/>
          <note pos="1896" len="12" vol="100" key="19" pan="0"/>
          <note pos="1920" len="24" vol="100" key="24" pan="0"/>
          <note pos="1944" len="12" vol="100" key="19" pan="0"/>
          <note pos="1956" len="12" vol="100" key="36" pan="0"/>
          <note pos="1980" len="12" vol="100" key="24" pan="0"/>
          <note pos="1992" len="12" vol="100" key="24" pan="0"/>
          <note pos="2004" len="12" vol="100" key="24" pan="0"/>
          <note pos="2016" len="12" vol="100" key="26" pan="0"/>
          <note pos="2040" len="12" vol="100" key="24" pan="0"/>
          <note pos="2064" len="12" vol="100" key="26" pan="0"/>
          <note pos="2088" len="12" vol="100" key="21" pan="0"/>
          <note pos="2112" len="24" vol="100" key="23" pan="0"/>
          <note pos="2136" len="12" vol="100" key="18" pan="0"/>
          <note pos="2148" len="12" vol="100" key="30" pan="0"/>
          <note pos="2172" len="12" vol="100" key="23" pan="0"/>
          <note pos="2184" len="12" vol="100" key="23" pan="0"/>
          <note pos="2196" len="12" vol="100" key="23" pan="0"/>
          <note pos="2208" len="12" vol="100" key="21" pan="0"/>
          <note pos="2220" len="12" vol="100" key="21" pan="0"/>
          <note pos="2232" len="12" vol="100" key="21" pan="0"/>
          <note pos="2244" len="12" vol="100" key="33" pan="0"/>
          <note pos="2268" len="12" vol="100" key="21" pan="0"/>
          <note pos="2280" len="12" vol="100" key="21" pan="0"/>
          <note pos="2304" len="24" vol="100" key="23" pan="0"/>
          <note pos="2328" len="12" vol="100" key="23" pan="0"/>
          <note pos="2340" len="12" vol="100" key="23" pan="0"/>
          <note pos="2364" len="12" vol="100" key="23" pan="0"/>
          <note pos="2376" len="12" vol="100" key="23" pan="0"/>
          <note pos="2388" len="12" vol="100" key="23" pan="0"/>
          <note pos="2400" len="12" vol="100" key="21" pan="0"/>
          <note pos="2424" len="12" vol="100" key="26" pan="0"/>
          <note pos="2448" len="12" vol="100" key="21" pan="0"/>
          <note pos="2472" len="12" vol="100" key="18" pan="0"/>
          <note pos="2496" len="24" vol="100" key="19" pan="0"/>
          <note pos="2520" len="12" vol="100" key="16" pan="0"/>
          <note pos="2532" len="12" vol="100" key="12" pan="0"/>
          <note pos="2556" len="12" vol="100" key="19" pan="0"/>
          <note pos="2568" len="12" vol="100" key="16" pan="0"/>
          <note pos="2580" len="12" vol="100" key="12" pan="0"/>
          <note pos="2592" len="12" vol="100" key="23" pan="0"/>
          <note pos="2616" len="12" vol="100" key="23" pan="0"/>
          <note pos="2640" len="12" vol="100" key="21" pan="0"/>
          <note pos="2664" len="12" vol="100" key="19" pan="0"/>
          <note pos="2688" len="24" vol="100" key="28" pan="0"/>
          <note pos="2712" len="12" vol="100" key="28" pan="0"/>
          <note pos="2724" len="12" vol="100" key="28" pan="0"/>
          <note pos="2748" len="12" vol="100" key="28" pan="0"/>
          <note pos="2760" len="12" vol="100" key="28" pan="0"/>
          <note pos="2772" len="12" vol="100" key="28" pan="0"/>
          <note pos="2784" len="12" vol="100" key="26" pan="0"/>
          <note pos="2808" len="12" vol="100" key="21" pan="0"/>
          <note pos="2832" len="12" vol="100" key="18" pan="0"/>
          <note pos="2856" len="12" vol="100" key="26" pan="0"/>
          <note pos="2880" len="24" vol="100" key="24" pan="0"/>
          <note pos="2904" len="12" vol="100" key="19" pan="0"/>
          <note pos="2916" len="12" vol="100" key="16" pan="0"/>
          <note pos="2940" len="12" vol="100" key="24" pan="0"/>
          <note pos="2952" len="12" vol="100" key="19" pan="0"/>
          <note pos="2964" len="12" vol="100" key="16" pan="0"/>
          <note pos="2976" len="12" vol="100" key="24" pan="0"/>
          <note pos="3000" len="12" vol="100" key="24" pan="0"/>
          <note pos="3024" len="12" vol="100" key="26" pan="0"/>
          <note pos="3048" len="12" vol="100" key="28" pan="0"/>
          <note pos="3072" len="24" vol="100" key="28" pan="0"/>
          <note pos="3096" len="12" vol="100" key="28" pan="0"/>
          <note pos="3108" len="12" vol="100" key="28" pan="0"/>
          <note pos="3132" len="12" vol="100" key="28" pan="0"/>
          <note pos="3144" len="12" vol="100" key="28" pan="0"/>
          <note pos="3156" len="12" vol="100" key="28" pan="0"/>
          <note pos="3168" len="12" vol="100" key="26" pan="0"/>
          <note pos="3192" len="12" vol="100" key="21" pan="0"/>
          <note pos="3216" len="12" vol="100" key="18" pan="0"/>
          <note pos="3240" len="12" vol="100" key="26" pan="0"/>
          <note pos="3264" len="24" vol="100" key="19" pan="0"/>
          <note pos="3288" len="12" vol="100" key="16" pan="0"/>
          <note pos="3300" len="12" vol="100" key="12" pan="0"/>
          <note pos="3324" len="12" vol="100" key="19" pan="0"/>
          <note pos="3336" len="12" vol="100" key="16" pan="0"/>
          <note pos="3348" len="12" vol="100" key="12" pan="0"/>
          <note pos="3360" len="12" vol="100" key="23" pan="0"/>
          <note pos="3384" len="12" vol="100" key="23" pan="0"/>
          <note pos="3408" len="12" vol="100" key="21" pan="0"/>
          <note pos="3432" len="12" vol="100" key="19" pan="0"/>
          <note pos="3456" len="24" vol="100" key="19" pan="0"/>
          <note pos="3480" len="12" vol="100" key="19" pan="0"/>
          <note pos="3492" len="12" vol="100" key="19" pan="0"/>
          <note pos="3516" len="12" vol="100" key="19" pan="0"/>
          <note pos="3528" len="12" vol="100" key="24" pan="0"/>
          <note pos="3540" len="12" vol="100" key="19" pan="0"/>
          <note pos="3552" len="12" vol="100" key="23" pan="0"/>
          <note pos="3576" len="12" vol="100" key="26" pan="0"/>
          <note pos="3600" len="12" vol="100" key="23" pan="0"/>
          <note pos="3624" len="12" vol="100" key="18" pan="0"/>
          <note pos="3648" len="24" vol="100" key="21" pan="0"/>
          <note pos="3672" len="12" vol="100" key="16" pan="0"/>
          <note pos="3684" len="12" vol="100" key="16" pan="0"/>
          <note pos="3708" len="12" vol="100" key="21" pan="0"/>
          <note pos="3720" len="12" vol="100" key="16" pan="0"/>
          <note pos="3732" len="12" vol="100" key="16" pan="0"/>
          <note pos="3744" len="12" vol="100" key="21" pan="0"/>
          <note pos="3768" len="12" vol="100" key="21" pan="0"/>
          <note pos="3792" len="12" vol="100" key="23" pan="0"/>
          <note pos="3816" len="12" vol="100" key="24" pan="0"/>
          <note pos="3840" len="192" vol="100" key="24" pan="0"/>
        </pattern>
        <pattern pos="6336" steps="16" type="1" muted="0" name="">
          <note pos="24" len="12" vol="100" key="31" pan="0"/>
          <note pos="36" len="12" vol="100" key="30" pan="0"/>
          <note pos="72" len="12" vol="100" key="28" pan="0"/>
          <note pos="120" len="12" vol="100" key="31" pan="0"/>
          <note pos="132" len="12" vol="100" key="30" pan="0"/>
          <note pos="168" len="12" vol="100" key="28" pan="0"/>
          <note pos="216" len="12" vol="100" key="31" pan="0"/>
          <note pos="228" len="12" vol="100" key="30" pan="0"/>
          <note pos="264" len="12" vol="100" key="28" pan="0"/>
          <note pos="312" len="12" vol="100" key="31" pan="0"/>
          <note pos="324" len="12" vol="100" key="30" pan="0"/>
          <note pos="360" len="12" vol="100" key="28" pan="0"/>
          <note pos="408" len="12" vol="100" key="31" pan="0"/>
          <note pos="420" len="12" vol="100" key="30" pan="0"/>
          <note pos="456" len="12" vol="100" key="28" pan="0"/>
          <note pos="504" len="12" vol="100" key="31" pan="0"/>
          <note pos="516" len="12" vol="100" key="30" pan="0"/>
          <note pos="552" len="12" vol="100" key="28" pan="0"/>
          <note pos="600" len="12" vol="100" key="31" pan="0"/>
          <note pos="612" len="12" vol="100" key="30" pan="0"/>
          <note pos="648" len="12" vol="100" key="28" pan="0"/>
          <note pos="696" len="12" vol="100" key="31" pan="0"/>
          <note pos="708" len="12" vol="100" key="30" pan="0"/>
          <note pos="744" len="12" vol="100" key="28" pan="0"/>
          <note pos="768" len="36" vol="100" key="24" pan="0"/>
          <note pos="804" len="12" vol="100" key="36" pan="0"/>
          <note pos="840" len="12" vol="100" key="24" pan="0"/>
          <note pos="864" len="36" vol="100" key="23" pan="0"/>
          <note pos="900" len="12" vol="100" key="35" pan="0"/>
          <note pos="936" len="12" vol="100" key="23" pan="0"/>
          <note pos="960" len="36" vol="100" key="24" pan="0"/>
          <note pos="996" len="12" vol="100" key="36" pan="0"/>
          <note pos="1032" len="12" vol="100" key="24" pan="0"/>
          <note pos="1056" len="12" vol="100" key="24" pan="0"/>
          <note pos="1080" len="12" vol="100" key="36" pan="0"/>
          <note pos="1104" len="12" vol="100" key="24" pan="0"/>
          <note pos="1128" len="12" vol="100" key="23" pan="0"/>
          <note pos="1152" len="36" vol="100" key="24" pan="0"/>
          <note pos="1188" len="12" vol="100" key="36" pan="0"/>
          <note pos="1224" len="12" vol="100" key="24" pan="0"/>
          <note pos="1248" len="36" vol="100" key="23" pan="0"/>
          <note pos="1284" len="12" vol="100" key="35" pan="0"/>
          <note pos="1320" len="12" vol="100" key="23" pan="0"/>
          <note pos="1344" len="36" vol="100" key="24" pan="0"/>
          <note pos="1380" len="12" vol="100" key="36" pan="0"/>
          <note pos="1416" len="12" vol="100" key="24" pan="0"/>
          <note pos="1440" len="12" vol="100" key="24" pan="0"/>
          <note pos="1464" len="12" vol="100" key="36" pan="0"/>
          <note pos="1488" len="12" vol="100" key="24" pan="0"/>
          <note pos="1512" len="12" vol="100" key="23" pan="0"/>
          <note pos="1536" len="36" vol="100" key="24" pan="0"/>
          <note pos="1572" len="12" vol="100" key="36" pan="0"/>
          <note pos="1608" len="12" vol="100" key="24" pan="0"/>
          <note pos="1632" len="36" vol="100" key="23" pan="0"/>
          <note pos="1668" len="12" vol="100" key="35" pan="0"/>
          <note pos="1704" len="12" vol="100" key="23" pan="0"/>
          <note pos="1728" len="36" vol="100" key="28" pan="0"/>
          <note pos="1764" len="12" vol="100" key="40" pan="0"/>
          <note pos="1800" len="12" vol="100" key="28" pan="0"/>
          <note pos="1824" len="12" vol="100" key="28" pan="0"/>
          <note pos="1848" len="12" vol="100" key="40" pan="0"/>
          <note pos="1872" len="12" vol="100" key="28" pan="0"/>
          <note pos="1896" len="12" vol="100" key="27" pan="0"/>
          <note pos="1920" len="36" vol="100" key="25" pan="0"/>
          <note pos="1956" len="12" vol="100" key="37" pan="0"/>
          <note pos="1992" len="12" vol="100" key="25" pan="0"/>
          <note pos="2016" len="12" vol="100" key="23" pan="0"/>
          <note pos="2040" len="12" vol="100" key="28" pan="0"/>
          <note pos="2064" len="12" vol="100" key="30" pan="0"/>
          <note pos="2088" len="12" vol="100" key="35" pan="0"/>
          <note pos="2112" len="48" vol="100" key="23" pan="0"/>
          <note pos="2208" len="36" vol="100" key="23" pan="0"/>
          <note pos="2244" len="36" vol="100" key="30" pan="0"/>
          <note pos="2280" len="24" vol="100" key="35" pan="0"/>
          <note pos="2304" len="24" vol="100" key="24" pan="0"/>
          <note pos="2328" len="12" vol="100" key="19" pan="0"/>
          <note pos="2340" len="12" vol="100" key="36" pan="0"/>
          <note pos="2364" len="12" vol="100" key="24" pan="0"/>
          <note pos="2376" len="12" vol="100" key="24" pan="0"/>
          <note pos="2388" len="12" vol="100" key="24" pan="0"/>
          <note pos="2400" len="12" vol="100" key="26" pan="0"/>
          <note pos="2424" len="12" vol="100" key="24" pan="0"/>
          <note pos="2448" len="12" vol="100" key="26" pan="0"/>
          <note pos="2472" len="12" vol="100" key="21" pan="0"/>
          <note pos="2496" len="24" vol="100" key="23" pan="0"/>
          <note pos="2520" len="12" vol="100" key="18" pan="0"/>
          <note pos="2532" len="12" vol="100" key="30" pan="0"/>
          <note pos="2556" len="12" vol="100" key="23" pan="0"/>
          <note pos="2568" len="12" vol="100" key="23" pan="0"/>
          <note pos="2580" len="12" vol="100" key="23" pan="0"/>
          <note pos="2592" len="12" vol="100" key="24" pan="0"/>
          <note pos="2616" len="12" vol="100" key="23" pan="0"/>
          <note pos="2640" len="12" vol="100" key="24" pan="0"/>
          <note pos="2664" len="12" vol="100" key="19" pan="0"/>
          <note pos="2688" len="24" vol="100" key="24" pan="0"/>
          <note pos="2712" len="12" vol="100" key="19" pan="0"/>
          <note pos="2724" len="12" vol="100" key="36" pan="0"/>
          <note pos="2748" len="12" vol="100" key="24" pan="0"/>
          <note pos="2760" len="12" vol="100" key="24" pan="0"/>
          <note pos="2772" len="12" vol="100" key="24" pan="0"/>
          <note pos="2784" len="12" vol="100" key="26" pan="0"/>
          <note pos="2808" len="12" vol="100" key="24" pan="0"/>
          <note pos="2832" len="12" vol="100" key="26" pan="0"/>
          <note pos="2856" len="12" vol="100" key="21" pan="0"/>
          <note pos="2880" len="24" vol="100" key="23" pan="0"/>
          <note pos="2904" len="12" vol="100" key="18" pan="0"/>
          <note pos="2916" len="12" vol="100" key="30" pan="0"/>
          <note pos="2940" len="12" vol="100" key="23" pan="0"/>
          <note pos="2952" len="12" vol="100" key="23" pan="0"/>
          <note pos="2964" len="12" vol="100" key="23" pan="0"/>
          <note pos="2976" len="12" vol="100" key="21" pan="0"/>
          <note pos="2988" len="12" vol="100" key="21" pan="0"/>
          <note pos="3000" len="12" vol="100" key="21" pan="0"/>
          <note pos="3012" len="12" vol="100" key="33" pan="0"/>
          <note pos="3036" len="12" vol="100" key="21" pan="0"/>
          <note pos="3048" len="12" vol="100" key="21" pan="0"/>
          <note pos="3072" len="24" vol="100" key="23" pan="0"/>
          <note pos="3096" len="12" vol="100" key="23" pan="0"/>
          <note pos="3108" len="12" vol="100" key="23" pan="0"/>
          <note pos="3132" len="12" vol="100" key="23" pan="0"/>
          <note pos="3144" len="12" vol="100" key="23" pan="0"/>
          <note pos="3156" len="12" vol="100" key="23" pan="0"/>
          <note pos="3168" len="12" vol="100" key="21" pan="0"/>
          <note pos="3192" len="12" vol="100" key="26" pan="0"/>
          <note pos="3216" len="12" vol="100" key="21" pan="0"/>
          <note pos="3240" len="12" vol="100" key="18" pan="0"/>
          <note pos="3264" len="24" vol="100" key="19" pan="0"/>
          <note pos="3288" len="12" vol="100" key="16" pan="0"/>
          <note pos="3300" len="12" vol="100" key="12" pan="0"/>
          <note pos="3324" len="12" vol="100" key="19" pan="0"/>
          <note pos="3336" len="12" vol="100" key="16" pan="0"/>
          <note pos="3348" len="12" vol="100" key="12" pan="0"/>
          <note pos="3360" len="12" vol="100" key="23" pan="0"/>
          <note pos="3384" len="12" vol="100" key="23" pan="0"/>
          <note pos="3408" len="12" vol="100" key="21" pan="0"/>
          <note pos="3432" len="12" vol="100" key="19" pan="0"/>
          <note pos="3456" len="24" vol="100" key="28" pan="0"/>
          <note pos="3480" len="12" vol="100" key="28" pan="0"/>
          <note pos="3492" len="12" vol="100" key="28" pan="0"/>
          <note pos="3516" len="12" vol="100" key="28" pan="0"/>
          <note pos="3528" len="12" vol="100" key="28" pan="0"/>
          <note pos="3540" len="12" vol="100" key="28" pan="0"/>
          <note pos="3552" len="12" vol="100" key="26" pan="0"/>
          <note pos="3576" len="12" vol="100" key="21" pan="0"/>
          <note pos="3600" len="12" vol="100" key="18" pan="0"/>
          <note pos="3624" len="12" vol="100" key="26" pan="0"/>
          <note pos="3648" len="24" vol="100" key="24" pan="0"/>
          <note pos="3672" len="12" vol="100" key="19" pan="0"/>
          <note pos="3684" len="12" vol="100" key="16" pan="0"/>
          <note pos="3708" len="12" vol="100" key="24" pan="0"/>
          <note pos="3720" len="12" vol="100" key="19" pan="0"/>
          <note pos="3732" len="12" vol="100" key="16" pan="0"/>
          <note pos="3744" len="12" vol="100" key="24" pan="0"/>
          <note pos="3768" len="12" vol="100" key="24" pan="0"/>
          <note pos="3792" len="12" vol="100" key="26" pan="0"/>
          <note pos="3816" len="12" vol="100" key="28" pan="0"/>
          <note pos="3840" len="24" vol="100" key="28" pan="0"/>
          <note pos="3864" len="12" vol="100" key="28" pan="0"/>
          <note pos="3876" len="12" vol="100" key="28" pan="0"/>
          <note pos="3900" len="12" vol="100" key="28" pan="0"/>
          <note pos="3912" len="12" vol="100" key="28" pan="0"/>
          <note pos="3924" len="12" vol="100" key="28" pan="0"/>
          <note pos="3936" len="12" vol="100" key="26" pan="0"/>
          <note pos="3960" len="12" vol="100" key="21" pan="0"/>
          <note pos="3984" len="12" vol="100" key="18" pan="0"/>
          <note pos="4008" len="12" vol="100" key="26" pan="0"/>
          <note pos="4032" len="24" vol="100" key="19" pan="0"/>
          <note pos="4056" len="12" vol="100" key="16" pan="0"/>
          <note pos="4068" len="12" vol="100" key="12" pan="0"/>
          <note pos="4092" len="12" vol="100" key="19" pan="0"/>
          <note pos="4104" len="12" vol="100" key="16" pan="0"/>
          <note pos="4116" len="12" vol="100" key="12" pan="0"/>
          <note pos="4128" len="12" vol="100" key="23" pan="0"/>
          <note pos="4152" len="12" vol="100" key="23" pan="0"/>
          <note pos="4176" len="12" vol="100" key="21" pan="0"/>
          <note pos="4200" len="12" vol="100" key="19" pan="0"/>
          <note pos="4224" len="24" vol="100" key="19" pan="0"/>
          <note pos="4248" len="12" vol="100" key="19" pan="0"/>
          <note pos="4260" len="12" vol="100" key="19" pan="0"/>
          <note pos="4284" len="12" vol="100" key="19" pan="0"/>
          <note pos="4296" len="12" vol="100" key="24" pan="0"/>
          <note pos="4308" len="12" vol="100" key="19" pan="0"/>
          <note pos="4320" len="12" vol="100" key="23" pan="0"/>
          <note pos="4344" len="12" vol="100" key="26" pan="0"/>
          <note pos="4368" len="12" vol="100" key="23" pan="0"/>
          <note pos="4392" len="12" vol="100" key="18" pan="0"/>
          <note pos="4416" len="24" vol="100" key="21" pan="0"/>
          <note pos="4440" len="12" vol="100" key="16" pan="0"/>
          <note pos="4452" len="12" vol="100" key="16" pan="0"/>
          <note pos="4476" len="12" vol="100" key="21" pan="0"/>
          <note pos="4488" len="12" vol="100" key="16" pan="0"/>
          <note pos="4500" len="12" vol="100" key="16" pan="0"/>
          <note pos="4512" len="288" vol="100" key="21" pan="0"/>
        </pattern>
      </track>
      <track type="0" muted="1" name="Acoustic Piano" mutedBeforeSolo="0" solo="0">
        <instrumenttrack usemasterpitch="1" fxch="0" basenote="57" vol="100" pan="0" pitch="0" pitchrange="2">
          <instrument name="sf2player">
            <sf2player src="usersoundfont:GeneralUser GS MuseScore v1.442.sf2" reverbOn="0" reverbWidth="0.5" reverbDamping="0" chorusSpeed="0.3" patch="11" chorusLevel="2" reverbLevel="0.9" bank="0" chorusNum="3" chorusDepth="8" chorusOn="0" gain="1" reverbRoomSize="0.2">
              <key/>
            </sf2player>
          </instrument>
          <eldata fcut="14000" fres="0.5" fwet="0" ftype="0">
            <elvol rel="0.1" userwavefile="" lspd_syncmode="0" lspd_numerator="4" sustain="0.5" lpdel="0" lshp="0" latt="0" lamt="0" x100="0" lspd="0.1" lspd_denominator="4" amt="0" hold="0.5" att="0" ctlenvamt="0" dec="0.5" pdel="0"/>
            <elcut rel="0.1" userwavefile="" lspd_syncmode="0" lspd_numerator="4" sustain="0.5" lpdel="0" lshp="0" latt="0" lamt="0" x100="0" lspd="0.1" lspd_denominator="4" amt="0" hold="0.5" att="0" ctlenvamt="0" dec="0.5" pdel="0"/>
            <elres rel="0.1" userwavefile="" lspd_syncmode="0" lspd_numerator="4" sustain="0.5" lpdel="0" lshp="0" latt="0" lamt="0" x100="0" lspd="0.1" lspd_denominator="4" amt="0" hold="0.5" att="0" ctlenvamt="0" dec="0.5" pdel="0"/>
          </eldata>
          <chordcreator chord-enabled="0" chordrange="1" chord="0"/>
          <arpeggiator arpcycle="0" arptime="200" arptime_numerator="4" arpgate="100" arpdir="0" arptime_denominator="4" arp="0" arpskip="0" arp-enabled="0" arpmiss="0" arptime_syncmode="0" arprange="1" arpmode="0"/>
          <midiport inputcontroller="0" writable="0" readable="0" inputchannel="0" basevelocity="63" fixedinputvelocity="-1" outputcontroller="0" fixedoutputvelocity="-1" outputchannel="1" fixedoutputnote="-1" outputprogram="1"/>
          <fxchain enabled="0" numofeffects="0"/>
        </instrumenttrack>
        <pattern pos="768" steps="16" type="1" muted="0" name="">
          <note pos="0" len="24" vol="100" key="24" pan="0"/>
          <note pos="24" len="12" vol="100" key="19" pan="0"/>
          <note pos="36" len="12" vol="100" key="36" pan="0"/>
          <note pos="60" len="12" vol="100" key="24" pan="0"/>
          <note pos="72" len="12" vol="100" key="24" pan="0"/>
          <note pos="84" len="12" vol="100" key="24" pan="0"/>
          <note pos="96" len="12" vol="100" key="26" pan="0"/>
          <note pos="120" len="12" vol="100" key="24" pan="0"/>
          <note pos="144" len="12" vol="100" key="26" pan="0"/>
          <note pos="168" len="12" vol="100" key="21" pan="0"/>
          <note pos="192" len="24" vol="100" key="23" pan="0"/>
          <note pos="216" len="12" vol="100" key="18" pan="0"/>
          <note pos="228" len="12" vol="100" key="30" pan="0"/>
          <note pos="252" len="12" vol="100" key="23" pan="0"/>
          <note pos="264" len="12" vol="100" key="23" pan="0"/>
          <note pos="276" len="12" vol="100" key="23" pan="0"/>
          <note pos="288" len="12" vol="100" key="24" pan="0"/>
          <note pos="312" len="12" vol="100" key="23" pan="0"/>
          <note pos="336" len="12" vol="100" key="24" pan="0"/>
          <note pos="360" len="12" vol="100" key="19" pan="0"/>
          <note pos="384" len="24" vol="100" key="24" pan="0"/>
          <note pos="408" len="12" vol="100" key="19" pan="0"/>
          <note pos="420" len="12" vol="100" key="36" pan="0"/>
          <note pos="444" len="12" vol="100" key="24" pan="0"/>
          <note pos="456" len="12" vol="100" key="24" pan="0"/>
          <note pos="468" len="12" vol="100" key="24" pan="0"/>
          <note pos="480" len="12" vol="100" key="26" pan="0"/>
          <note pos="504" len="12" vol="100" key="24" pan="0"/>
          <note pos="528" len="12" vol="100" key="26" pan="0"/>
          <note pos="552" len="12" vol="100" key="21" pan="0"/>
          <note pos="576" len="24" vol="100" key="23" pan="0"/>
          <note pos="600" len="12" vol="100" key="18" pan="0"/>
          <note pos="612" len="12" vol="100" key="30" pan="0"/>
          <note pos="636" len="12" vol="100" key="23" pan="0"/>
          <note pos="648" len="12" vol="100" key="23" pan="0"/>
          <note pos="660" len="12" vol="100" key="23" pan="0"/>
          <note pos="672" len="12" vol="100" key="21" pan="0"/>
          <note pos="684" len="12" vol="100" key="21" pan="0"/>
          <note pos="696" len="12" vol="100" key="21" pan="0"/>
          <note pos="708" len="12" vol="100" key="33" pan="0"/>
          <note pos="732" len="12" vol="100" key="21" pan="0"/>
          <note pos="744" len="12" vol="100" key="21" pan="0"/>
          <note pos="768" len="24" vol="100" key="24" pan="0"/>
          <note pos="792" len="12" vol="100" key="19" pan="0"/>
          <note pos="804" len="12" vol="100" key="36" pan="0"/>
          <note pos="828" len="12" vol="100" key="24" pan="0"/>
          <note pos="840" len="12" vol="100" key="24" pan="0"/>
          <note pos="852" len="12" vol="100" key="24" pan="0"/>
          <note pos="864" len="12" vol="100" key="26" pan="0"/>
          <note pos="888" len="12" vol="100" key="24" pan="0"/>
          <note pos="912" len="12" vol="100" key="26" pan="0"/>
          <note pos="936" len="12" vol="100" key="21" pan="0"/>
          <note pos="960" len="24" vol="100" key="23" pan="0"/>
          <note pos="984" len="12" vol="100" key="18" pan="0"/>
          <note pos="996" len="12" vol="100" key="30" pan="0"/>
          <note pos="1020" len="12" vol="100" key="23" pan="0"/>
          <note pos="1032" len="12" vol="100" key="23" pan="0"/>
          <note pos="1044" len="12" vol="100" key="23" pan="0"/>
          <note pos="1056" len="12" vol="100" key="24" pan="0"/>
          <note pos="1080" len="12" vol="100" key="23" pan="0"/>
          <note pos="1104" len="12" vol="100" key="24" pan="0"/>
          <note pos="1128" len="12" vol="100" key="19" pan="0"/>
          <note pos="1152" len="24" vol="100" key="24" pan="0"/>
          <note pos="1176" len="12" vol="100" key="19" pan="0"/>
          <note pos="1188" len="12" vol="100" key="36" pan="0"/>
          <note pos="1212" len="12" vol="100" key="24" pan="0"/>
          <note pos="1224" len="12" vol="100" key="24" pan="0"/>
          <note pos="1236" len="12" vol="100" key="24" pan="0"/>
          <note pos="1248" len="12" vol="100" key="26" pan="0"/>
          <note pos="1272" len="12" vol="100" key="24" pan="0"/>
          <note pos="1296" len="12" vol="100" key="26" pan="0"/>
          <note pos="1320" len="12" vol="100" key="21" pan="0"/>
          <note pos="1344" len="24" vol="100" key="23" pan="0"/>
          <note pos="1368" len="12" vol="100" key="18" pan="0"/>
          <note pos="1380" len="12" vol="100" key="30" pan="0"/>
          <note pos="1404" len="12" vol="100" key="23" pan="0"/>
          <note pos="1416" len="12" vol="100" key="23" pan="0"/>
          <note pos="1428" len="12" vol="100" key="23" pan="0"/>
          <note pos="1440" len="12" vol="100" key="21" pan="0"/>
          <note pos="1452" len="12" vol="100" key="21" pan="0"/>
          <note pos="1464" len="12" vol="100" key="21" pan="0"/>
          <note pos="1476" len="12" vol="100" key="33" pan="0"/>
          <note pos="1500" len="12" vol="100" key="21" pan="0"/>
          <note pos="1512" len="12" vol="100" key="21" pan="0"/>
          <note pos="1536" len="24" vol="100" key="23" pan="0"/>
          <note pos="1560" len="12" vol="100" key="23" pan="0"/>
          <note pos="1572" len="12" vol="100" key="23" pan="0"/>
          <note pos="1596" len="12" vol="100" key="23" pan="0"/>
          <note pos="1608" len="12" vol="100" key="23" pan="0"/>
          <note pos="1620" len="12" vol="100" key="23" pan="0"/>
          <note pos="1632" len="12" vol="100" key="21" pan="0"/>
          <note pos="1656" len="12" vol="100" key="26" pan="0"/>
          <note pos="1680" len="12" vol="100" key="21" pan="0"/>
          <note pos="1704" len="12" vol="100" key="18" pan="0"/>
          <note pos="1728" len="24" vol="100" key="19" pan="0"/>
          <note pos="1752" len="12" vol="100" key="16" pan="0"/>
          <note pos="1764" len="12" vol="100" key="12" pan="0"/>
          <note pos="1788" len="12" vol="100" key="19" pan="0"/>
          <note pos="1800" len="12" vol="100" key="16" pan="0"/>
          <note pos="1812" len="12" vol="100" key="12" pan="0"/>
          <note pos="1824" len="12" vol="100" key="23" pan="0"/>
          <note pos="1848" len="12" vol="100" key="23" pan="0"/>
          <note pos="1872" len="12" vol="100" key="21" pan="0"/>
          <note pos="1896" len="12" vol="100" key="19" pan="0"/>
          <note pos="1920" len="24" vol="100" key="28" pan="0"/>
          <note pos="1944" len="12" vol="100" key="28" pan="0"/>
          <note pos="1956" len="12" vol="100" key="28" pan="0"/>
          <note pos="1980" len="12" vol="100" key="28" pan="0"/>
          <note pos="1992" len="12" vol="100" key="28" pan="0"/>
          <note pos="2004" len="12" vol="100" key="28" pan="0"/>
          <note pos="2016" len="12" vol="100" key="26" pan="0"/>
          <note pos="2040" len="12" vol="100" key="21" pan="0"/>
          <note pos="2064" len="12" vol="100" key="18" pan="0"/>
          <note pos="2088" len="12" vol="100" key="26" pan="0"/>
          <note pos="2112" len="24" vol="100" key="24" pan="0"/>
          <note pos="2136" len="12" vol="100" key="19" pan="0"/>
          <note pos="2148" len="12" vol="100" key="16" pan="0"/>
          <note pos="2172" len="12" vol="100" key="24" pan="0"/>
          <note pos="2184" len="12" vol="100" key="19" pan="0"/>
          <note pos="2196" len="12" vol="100" key="16" pan="0"/>
          <note pos="2208" len="12" vol="100" key="24" pan="0"/>
          <note pos="2232" len="12" vol="100" key="24" pan="0"/>
          <note pos="2256" len="12" vol="100" key="26" pan="0"/>
          <note pos="2280" len="12" vol="100" key="28" pan="0"/>
          <note pos="2304" len="24" vol="100" key="28" pan="0"/>
          <note pos="2328" len="12" vol="100" key="28" pan="0"/>
          <note pos="2340" len="12" vol="100" key="28" pan="0"/>
          <note pos="2364" len="12" vol="100" key="28" pan="0"/>
          <note pos="2376" len="12" vol="100" key="28" pan="0"/>
          <note pos="2388" len="12" vol="100" key="28" pan="0"/>
          <note pos="2400" len="12" vol="100" key="26" pan="0"/>
          <note pos="2424" len="12" vol="100" key="21" pan="0"/>
          <note pos="2448" len="12" vol="100" key="18" pan="0"/>
          <note pos="2472" len="12" vol="100" key="26" pan="0"/>
          <note pos="2496" len="24" vol="100" key="19" pan="0"/>
          <note pos="2520" len="12" vol="100" key="16" pan="0"/>
          <note pos="2532" len="12" vol="100" key="12" pan="0"/>
          <note pos="2556" len="12" vol="100" key="19" pan="0"/>
          <note pos="2568" len="12" vol="100" key="16" pan="0"/>
          <note pos="2580" len="12" vol="100" key="12" pan="0"/>
          <note pos="2592" len="12" vol="100" key="23" pan="0"/>
          <note pos="2616" len="12" vol="100" key="23" pan="0"/>
          <note pos="2640" len="12" vol="100" key="21" pan="0"/>
          <note pos="2664" len="12" vol="100" key="19" pan="0"/>
          <note pos="2688" len="24" vol="100" key="19" pan="0"/>
          <note pos="2712" len="12" vol="100" key="19" pan="0"/>
          <note pos="2724" len="12" vol="100" key="19" pan="0"/>
          <note pos="2748" len="12" vol="100" key="19" pan="0"/>
          <note pos="2760" len="12" vol="100" key="24" pan="0"/>
          <note pos="2772" len="12" vol="100" key="19" pan="0"/>
          <note pos="2784" len="12" vol="100" key="23" pan="0"/>
          <note pos="2808" len="12" vol="100" key="26" pan="0"/>
          <note pos="2832" len="12" vol="100" key="23" pan="0"/>
          <note pos="2856" len="12" vol="100" key="18" pan="0"/>
          <note pos="2880" len="24" vol="100" key="21" pan="0"/>
          <note pos="2904" len="12" vol="100" key="16" pan="0"/>
          <note pos="2916" len="12" vol="100" key="16" pan="0"/>
          <note pos="2940" len="12" vol="100" key="21" pan="0"/>
          <note pos="2952" len="12" vol="100" key="16" pan="0"/>
          <note pos="2964" len="12" vol="100" key="16" pan="0"/>
          <note pos="2976" len="12" vol="100" key="21" pan="0"/>
          <note pos="3000" len="12" vol="100" key="21" pan="0"/>
          <note pos="3024" len="12" vol="100" key="23" pan="0"/>
          <note pos="3048" len="12" vol="100" key="24" pan="0"/>
          <note pos="3072" len="192" vol="100" key="24" pan="0"/>
        </pattern>
        <pattern pos="8640" steps="16" type="1" muted="0" name="">
          <note pos="0" len="24" vol="100" key="24" pan="0"/>
          <note pos="24" len="12" vol="100" key="19" pan="0"/>
          <note pos="36" len="12" vol="100" key="36" pan="0"/>
          <note pos="60" len="12" vol="100" key="24" pan="0"/>
          <note pos="72" len="12" vol="100" key="24" pan="0"/>
          <note pos="84" len="12" vol="100" key="24" pan="0"/>
          <note pos="96" len="12" vol="100" key="26" pan="0"/>
          <note pos="120" len="12" vol="100" key="24" pan="0"/>
          <note pos="144" len="12" vol="100" key="26" pan="0"/>
          <note pos="168" len="12" vol="100" key="21" pan="0"/>
          <note pos="192" len="24" vol="100" key="23" pan="0"/>
          <note pos="216" len="12" vol="100" key="18" pan="0"/>
          <note pos="228" len="12" vol="100" key="30" pan="0"/>
          <note pos="252" len="12" vol="100" key="23" pan="0"/>
          <note pos="264" len="12" vol="100" key="23" pan="0"/>
          <note pos="276" len="12" vol="100" key="23" pan="0"/>
          <note pos="288" len="12" vol="100" key="24" pan="0"/>
          <note pos="312" len="12" vol="100" key="23" pan="0"/>
          <note pos="336" len="12" vol="100" key="24" pan="0"/>
          <note pos="360" len="12" vol="100" key="19" pan="0"/>
          <note pos="384" len="24" vol="100" key="24" pan="0"/>
          <note pos="408" len="12" vol="100" key="19" pan="0"/>
          <note pos="420" len="12" vol="100" key="36" pan="0"/>
          <note pos="444" len="12" vol="100" key="24" pan="0"/>
          <note pos="456" len="12" vol="100" key="24" pan="0"/>
          <note pos="468" len="12" vol="100" key="24" pan="0"/>
          <note pos="480" len="12" vol="100" key="26" pan="0"/>
          <note pos="504" len="12" vol="100" key="24" pan="0"/>
          <note pos="528" len="12" vol="100" key="26" pan="0"/>
          <note pos="552" len="12" vol="100" key="21" pan="0"/>
          <note pos="576" len="24" vol="100" key="23" pan="0"/>
          <note pos="600" len="12" vol="100" key="18" pan="0"/>
          <note pos="612" len="12" vol="100" key="30" pan="0"/>
          <note pos="636" len="12" vol="100" key="23" pan="0"/>
          <note pos="648" len="12" vol="100" key="23" pan="0"/>
          <note pos="660" len="12" vol="100" key="23" pan="0"/>
          <note pos="672" len="12" vol="100" key="21" pan="0"/>
          <note pos="684" len="12" vol="100" key="21" pan="0"/>
          <note pos="696" len="12" vol="100" key="21" pan="0"/>
          <note pos="708" len="12" vol="100" key="33" pan="0"/>
          <note pos="732" len="12" vol="100" key="21" pan="0"/>
          <note pos="744" len="12" vol="100" key="21" pan="0"/>
          <note pos="768" len="24" vol="100" key="23" pan="0"/>
          <note pos="792" len="12" vol="100" key="23" pan="0"/>
          <note pos="804" len="12" vol="100" key="23" pan="0"/>
          <note pos="828" len="12" vol="100" key="23" pan="0"/>
          <note pos="840" len="12" vol="100" key="23" pan="0"/>
          <note pos="852" len="12" vol="100" key="23" pan="0"/>
          <note pos="864" len="12" vol="100" key="21" pan="0"/>
          <note pos="888" len="12" vol="100" key="26" pan="0"/>
          <note pos="912" len="12" vol="100" key="21" pan="0"/>
          <note pos="936" len="12" vol="100" key="18" pan="0"/>
          <note pos="960" len="24" vol="100" key="19" pan="0"/>
          <note pos="984" len="12" vol="100" key="16" pan="0"/>
          <note pos="996" len="12" vol="100" key="12" pan="0"/>
          <note pos="1020" len="12" vol="100" key="19" pan="0"/>
          <note pos="1032" len="12" vol="100" key="16" pan="0"/>
          <note pos="1044" len="12" vol="100" key="12" pan="0"/>
          <note pos="1056" len="12" vol="100" key="23" pan="0"/>
          <note pos="1080" len="12" vol="100" key="23" pan="0"/>
          <note pos="1104" len="12" vol="100" key="21" pan="0"/>
          <note pos="1128" len="12" vol="100" key="19" pan="0"/>
          <note pos="1152" len="24" vol="100" key="28" pan="0"/>
          <note pos="1176" len="12" vol="100" key="28" pan="0"/>
          <note pos="1188" len="12" vol="100" key="28" pan="0"/>
          <note pos="1212" len="12" vol="100" key="28" pan="0"/>
          <note pos="1224" len="12" vol="100" key="28" pan="0"/>
          <note pos="1236" len="12" vol="100" key="28" pan="0"/>
          <note pos="1248" len="12" vol="100" key="26" pan="0"/>
          <note pos="1272" len="12" vol="100" key="21" pan="0"/>
          <note pos="1296" len="12" vol="100" key="18" pan="0"/>
          <note pos="1320" len="12" vol="100" key="26" pan="0"/>
          <note pos="1344" len="24" vol="100" key="24" pan="0"/>
          <note pos="1368" len="12" vol="100" key="19" pan="0"/>
          <note pos="1380" len="12" vol="100" key="16" pan="0"/>
          <note pos="1404" len="12" vol="100" key="24" pan="0"/>
          <note pos="1416" len="12" vol="100" key="19" pan="0"/>
          <note pos="1428" len="12" vol="100" key="16" pan="0"/>
          <note pos="1440" len="12" vol="100" key="24" pan="0"/>
          <note pos="1464" len="12" vol="100" key="24" pan="0"/>
          <note pos="1488" len="12" vol="100" key="26" pan="0"/>
          <note pos="1512" len="12" vol="100" key="28" pan="0"/>
          <note pos="1536" len="24" vol="100" key="28" pan="0"/>
          <note pos="1560" len="12" vol="100" key="28" pan="0"/>
          <note pos="1572" len="12" vol="100" key="28" pan="0"/>
          <note pos="1596" len="12" vol="100" key="28" pan="0"/>
          <note pos="1608" len="12" vol="100" key="28" pan="0"/>
          <note pos="1620" len="12" vol="100" key="28" pan="0"/>
          <note pos="1632" len="12" vol="100" key="26" pan="0"/>
          <note pos="1656" len="12" vol="100" key="21" pan="0"/>
          <note pos="1680" len="12" vol="100" key="18" pan="0"/>
          <note pos="1704" len="12" vol="100" key="26" pan="0"/>
          <note pos="1728" len="24" vol="100" key="19" pan="0"/>
          <note pos="1752" len="12" vol="100" key="16" pan="0"/>
          <note pos="1764" len="12" vol="100" key="12" pan="0"/>
          <note pos="1788" len="12" vol="100" key="19" pan="0"/>
          <note pos="1800" len="12" vol="100" key="16" pan="0"/>
          <note pos="1812" len="12" vol="100" key="12" pan="0"/>
          <note pos="1824" len="12" vol="100" key="23" pan="0"/>
          <note pos="1848" len="12" vol="100" key="23" pan="0"/>
          <note pos="1872" len="12" vol="100" key="21" pan="0"/>
          <note pos="1896" len="12" vol="100" key="19" pan="0"/>
          <note pos="1920" len="24" vol="100" key="19" pan="0"/>
          <note pos="1944" len="12" vol="100" key="19" pan="0"/>
          <note pos="1956" len="12" vol="100" key="19" pan="0"/>
          <note pos="1980" len="12" vol="100" key="19" pan="0"/>
          <note pos="1992" len="12" vol="100" key="24" pan="0"/>
          <note pos="2004" len="12" vol="100" key="19" pan="0"/>
          <note pos="2016" len="12" vol="100" key="23" pan="0"/>
          <note pos="2040" len="12" vol="100" key="26" pan="0"/>
          <note pos="2064" len="12" vol="100" key="23" pan="0"/>
          <note pos="2088" len="12" vol="100" key="18" pan="0"/>
          <note pos="2112" len="24" vol="100" key="21" pan="0"/>
          <note pos="2136" len="12" vol="100" key="16" pan="0"/>
          <note pos="2148" len="12" vol="100" key="16" pan="0"/>
          <note pos="2172" len="12" vol="100" key="21" pan="0"/>
          <note pos="2184" len="12" vol="100" key="16" pan="0"/>
          <note pos="2196" len="12" vol="100" key="16" pan="0"/>
          <note pos="2208" len="288" vol="100" key="21" pan="0"/>
        </pattern>
      </track>
      <track type="0" muted="1" name="Acoustic Piano" mutedBeforeSolo="0" solo="0">
        <instrumenttrack usemasterpitch="1" fxch="0" basenote="57" vol="100" pan="0" pitch="0" pitchrange="2">
          <instrument name="sf2player">
            <sf2player src="usersoundfont:GeneralUser GS MuseScore v1.442.sf2" reverbOn="0" reverbWidth="0.5" reverbDamping="0" chorusSpeed="0.3" patch="26" chorusLevel="2" reverbLevel="0.9" bank="0" chorusNum="3" chorusDepth="8" chorusOn="0" gain="1" reverbRoomSize="0.2">
              <key/>
            </sf2player>
          </instrument>
          <eldata fcut="14000" fres="0.5" fwet="0" ftype="0">
            <elvol rel="0.1" userwavefile="" lspd_syncmode="0" lspd_numerator="4" sustain="0.5" lpdel="0" lshp="0" latt="0" lamt="0" x100="0" lspd="0.1" lspd_denominator="4" amt="0" hold="0.5" att="0" ctlenvamt="0" dec="0.5" pdel="0"/>
            <elcut rel="0.1" userwavefile="" lspd_syncmode="0" lspd_numerator="4" sustain="0.5" lpdel="0" lshp="0" latt="0" lamt="0" x100="0" lspd="0.1" lspd_denominator="4" amt="0" hold="0.5" att="0" ctlenvamt="0" dec="0.5" pdel="0"/>
            <elres rel="0.1" userwavefile="" lspd_syncmode="0" lspd_numerator="4" sustain="0.5" lpdel="0" lshp="0" latt="0" lamt="0" x100="0" lspd="0.1" lspd_denominator="4" amt="0" hold="0.5" att="0" ctlenvamt="0" dec="0.5" pdel="0"/>
          </eldata>
          <chordcreator chord-enabled="0" chordrange="1" chord="0"/>
          <arpeggiator arpcycle="0" arptime="200" arptime_numerator="4" arpgate="100" arpdir="0" arptime_denominator="4" arp="0" arpskip="0" arp-enabled="0" arpmiss="0" arptime_syncmode="0" arprange="1" arpmode="0"/>
          <midiport inputcontroller="0" writable="0" readable="0" inputchannel="0" basevelocity="63" fixedinputvelocity="-1" outputcontroller="0" fixedoutputvelocity="-1" outputchannel="1" fixedoutputnote="-1" outputprogram="1"/>
          <fxchain enabled="0" numofeffects="0"/>
        </instrumenttrack>
        <pattern pos="0" steps="16" type="1" muted="0" name="">
          <note pos="0" len="192" vol="100" key="52" pan="0"/>
          <note pos="0" len="192" vol="100" key="47" pan="0"/>
          <note pos="0" len="192" vol="100" key="43" pan="0"/>
          <note pos="192" len="192" vol="100" key="50" pan="0"/>
          <note pos="192" len="192" vol="100" key="47" pan="0"/>
          <note pos="192" len="192" vol="100" key="43" pan="0"/>
          <note pos="384" len="192" vol="100" key="48" pan="0"/>
          <note pos="384" len="192" vol="100" key="43" pan="0"/>
          <note pos="384" len="192" vol="100" key="40" pan="0"/>
          <note pos="576" len="96" vol="100" key="51" pan="0"/>
          <note pos="576" len="96" vol="100" key="47" pan="0"/>
          <note pos="576" len="96" vol="100" key="42" pan="0"/>
          <note pos="672" len="36" vol="100" key="51" pan="0"/>
          <note pos="672" len="36" vol="100" key="47" pan="0"/>
          <note pos="672" len="36" vol="100" key="42" pan="0"/>
          <note pos="708" len="36" vol="100" key="52" pan="0"/>
          <note pos="708" len="36" vol="100" key="48" pan="0"/>
          <note pos="708" len="36" vol="100" key="43" pan="0"/>
          <note pos="744" len="24" vol="100" key="54" pan="0"/>
          <note pos="744" len="24" vol="100" key="51" pan="0"/>
          <note pos="744" len="24" vol="100" key="45" pan="0"/>
          <note pos="768" len="96" vol="100" key="55" pan="0"/>
          <note pos="768" len="96" vol="100" key="52" pan="0"/>
          <note pos="768" len="96" vol="100" key="48" pan="0"/>
          <note pos="864" len="96" vol="100" key="57" pan="0"/>
          <note pos="864" len="96" vol="100" key="54" pan="0"/>
          <note pos="864" len="96" vol="100" key="50" pan="0"/>
          <note pos="960" len="96" vol="100" key="54" pan="0"/>
          <note pos="960" len="96" vol="100" key="50" pan="0"/>
          <note pos="960" len="96" vol="100" key="47" pan="0"/>
          <note pos="1056" len="96" vol="100" key="55" pan="0"/>
          <note pos="1056" len="96" vol="100" key="52" pan="0"/>
          <note pos="1056" len="96" vol="100" key="48" pan="0"/>
          <note pos="1152" len="96" vol="100" key="55" pan="0"/>
          <note pos="1152" len="96" vol="100" key="52" pan="0"/>
          <note pos="1152" len="96" vol="100" key="48" pan="0"/>
          <note pos="1248" len="96" vol="100" key="57" pan="0"/>
          <note pos="1248" len="96" vol="100" key="54" pan="0"/>
          <note pos="1248" len="96" vol="100" key="50" pan="0"/>
          <note pos="1344" len="96" vol="100" key="54" pan="0"/>
          <note pos="1344" len="96" vol="100" key="50" pan="0"/>
          <note pos="1344" len="96" vol="100" key="47" pan="0"/>
          <note pos="1440" len="96" vol="100" key="52" pan="0"/>
          <note pos="1440" len="96" vol="100" key="49" pan="0"/>
          <note pos="1440" len="96" vol="100" key="45" pan="0"/>
          <note pos="1536" len="96" vol="100" key="55" pan="0"/>
          <note pos="1536" len="96" vol="100" key="52" pan="0"/>
          <note pos="1536" len="96" vol="100" key="48" pan="0"/>
          <note pos="1632" len="96" vol="100" key="57" pan="0"/>
          <note pos="1632" len="96" vol="100" key="54" pan="0"/>
          <note pos="1632" len="96" vol="100" key="50" pan="0"/>
          <note pos="1728" len="96" vol="100" key="54" pan="0"/>
          <note pos="1728" len="96" vol="100" key="50" pan="0"/>
          <note pos="1728" len="96" vol="100" key="47" pan="0"/>
          <note pos="1824" len="96" vol="100" key="55" pan="0"/>
          <note pos="1824" len="96" vol="100" key="52" pan="0"/>
          <note pos="1824" len="96" vol="100" key="48" pan="0"/>
          <note pos="1920" len="96" vol="100" key="55" pan="0"/>
          <note pos="1920" len="96" vol="100" key="52" pan="0"/>
          <note pos="1920" len="96" vol="100" key="48" pan="0"/>
          <note pos="2016" len="96" vol="100" key="57" pan="0"/>
          <note pos="2016" len="96" vol="100" key="54" pan="0"/>
          <note pos="2016" len="96" vol="100" key="50" pan="0"/>
          <note pos="2112" len="96" vol="100" key="54" pan="0"/>
          <note pos="2112" len="96" vol="100" key="50" pan="0"/>
          <note pos="2112" len="96" vol="100" key="47" pan="0"/>
          <note pos="2208" len="96" vol="100" key="52" pan="0"/>
          <note pos="2208" len="96" vol="100" key="49" pan="0"/>
          <note pos="2208" len="96" vol="100" key="45" pan="0"/>
          <note pos="2304" len="96" vol="100" key="55" pan="0"/>
          <note pos="2304" len="96" vol="100" key="52" pan="0"/>
          <note pos="2304" len="96" vol="100" key="47" pan="0"/>
          <note pos="2400" len="96" vol="100" key="54" pan="0"/>
          <note pos="2400" len="96" vol="100" key="50" pan="0"/>
          <note pos="2400" len="96" vol="100" key="45" pan="0"/>
          <note pos="2496" len="96" vol="100" key="52" pan="0"/>
          <note pos="2496" len="96" vol="100" key="48" pan="0"/>
          <note pos="2496" len="96" vol="100" key="43" pan="0"/>
          <note pos="2592" len="36" vol="100" key="55" pan="0"/>
          <note pos="2592" len="36" vol="100" key="52" pan="0"/>
          <note pos="2592" len="36" vol="100" key="47" pan="0"/>
          <note pos="2628" len="36" vol="100" key="54" pan="0"/>
          <note pos="2628" len="36" vol="100" key="50" pan="0"/>
          <note pos="2628" len="36" vol="100" key="45" pan="0"/>
          <note pos="2664" len="24" vol="100" key="52" pan="0"/>
          <note pos="2664" len="24" vol="100" key="48" pan="0"/>
          <note pos="2664" len="24" vol="100" key="43" pan="0"/>
          <note pos="2688" len="96" vol="100" key="55" pan="0"/>
          <note pos="2688" len="96" vol="100" key="52" pan="0"/>
          <note pos="2688" len="96" vol="100" key="47" pan="0"/>
          <note pos="2784" len="96" vol="100" key="54" pan="0"/>
          <note pos="2784" len="96" vol="100" key="50" pan="0"/>
          <note pos="2784" len="96" vol="100" key="45" pan="0"/>
          <note pos="2880" len="96" vol="100" key="52" pan="0"/>
          <note pos="2880" len="96" vol="100" key="48" pan="0"/>
          <note pos="2880" len="96" vol="100" key="43" pan="0"/>
          <note pos="2976" len="36" vol="100" key="52" pan="0"/>
          <note pos="2976" len="36" vol="100" key="48" pan="0"/>
          <note pos="2976" len="36" vol="100" key="43" pan="0"/>
          <note pos="3012" len="36" vol="100" key="54" pan="0"/>
          <note pos="3012" len="36" vol="100" key="50" pan="0"/>
          <note pos="3012" len="36" vol="100" key="45" pan="0"/>
          <note pos="3048" len="24" vol="100" key="55" pan="0"/>
          <note pos="3048" len="24" vol="100" key="52" pan="0"/>
          <note pos="3048" len="24" vol="100" key="47" pan="0"/>
          <note pos="3072" len="96" vol="100" key="55" pan="0"/>
          <note pos="3072" len="96" vol="100" key="52" pan="0"/>
          <note pos="3072" len="96" vol="100" key="47" pan="0"/>
          <note pos="3168" len="96" vol="100" key="54" pan="0"/>
          <note pos="3168" len="96" vol="100" key="50" pan="0"/>
          <note pos="3168" len="96" vol="100" key="45" pan="0"/>
          <note pos="3264" len="96" vol="100" key="52" pan="0"/>
          <note pos="3264" len="96" vol="100" key="48" pan="0"/>
          <note pos="3264" len="96" vol="100" key="43" pan="0"/>
          <note pos="3360" len="36" vol="100" key="55" pan="0"/>
          <note pos="3360" len="36" vol="100" key="52" pan="0"/>
          <note pos="3360" len="36" vol="100" key="47" pan="0"/>
          <note pos="3396" len="36" vol="100" key="54" pan="0"/>
          <note pos="3396" len="36" vol="100" key="50" pan="0"/>
          <note pos="3396" len="36" vol="100" key="45" pan="0"/>
          <note pos="3432" len="24" vol="100" key="52" pan="0"/>
          <note pos="3432" len="24" vol="100" key="48" pan="0"/>
          <note pos="3432" len="24" vol="100" key="43" pan="0"/>
          <note pos="3456" len="96" vol="100" key="55" pan="0"/>
          <note pos="3456" len="96" vol="100" key="52" pan="0"/>
          <note pos="3456" len="96" vol="100" key="48" pan="0"/>
          <note pos="3552" len="96" vol="100" key="54" pan="0"/>
          <note pos="3552" len="96" vol="100" key="50" pan="0"/>
          <note pos="3552" len="96" vol="100" key="47" pan="0"/>
          <note pos="3648" len="96" vol="100" key="52" pan="0"/>
          <note pos="3648" len="96" vol="100" key="49" pan="0"/>
          <note pos="3648" len="96" vol="100" key="45" pan="0"/>
          <note pos="3744" len="36" vol="100" key="52" pan="0"/>
          <note pos="3744" len="36" vol="100" key="49" pan="0"/>
          <note pos="3744" len="36" vol="100" key="45" pan="0"/>
          <note pos="3780" len="36" vol="100" key="54" pan="0"/>
          <note pos="3780" len="36" vol="100" key="50" pan="0"/>
          <note pos="3780" len="36" vol="100" key="47" pan="0"/>
          <note pos="3816" len="24" vol="100" key="55" pan="0"/>
          <note pos="3816" len="24" vol="100" key="52" pan="0"/>
          <note pos="3816" len="24" vol="100" key="48" pan="0"/>
          <note pos="3840" len="192" vol="100" key="55" pan="0"/>
          <note pos="3840" len="192" vol="100" key="52" pan="0"/>
          <note pos="3840" len="192" vol="100" key="48" pan="0"/>
        </pattern>
        <pattern pos="7104" steps="16" type="1" muted="0" name="">
          <note pos="0" len="96" vol="100" key="52" pan="0"/>
          <note pos="0" len="96" vol="100" key="48" pan="0"/>
          <note pos="0" len="96" vol="100" key="43" pan="0"/>
          <note pos="96" len="96" vol="100" key="51" pan="0"/>
          <note pos="96" len="96" vol="100" key="47" pan="0"/>
          <note pos="96" len="96" vol="100" key="42" pan="0"/>
          <note pos="192" len="192" vol="100" key="48" pan="0"/>
          <note pos="192" len="192" vol="100" key="43" pan="0"/>
          <note pos="192" len="192" vol="100" key="40" pan="0"/>
          <note pos="384" len="96" vol="100" key="48" pan="0"/>
          <note pos="384" len="96" vol="100" key="43" pan="0"/>
          <note pos="384" len="96" vol="100" key="40" pan="0"/>
          <note pos="480" len="96" vol="100" key="47" pan="0"/>
          <note pos="480" len="96" vol="100" key="42" pan="0"/>
          <note pos="480" len="96" vol="100" key="39" pan="0"/>
          <note pos="576" len="192" vol="100" key="43" pan="0"/>
          <note pos="576" len="192" vol="100" key="40" pan="0"/>
          <note pos="576" len="192" vol="100" key="36" pan="0"/>
          <note pos="768" len="96" vol="100" key="43" pan="0"/>
          <note pos="768" len="96" vol="100" key="40" pan="0"/>
          <note pos="768" len="96" vol="100" key="36" pan="0"/>
          <note pos="864" len="96" vol="100" key="42" pan="0"/>
          <note pos="864" len="96" vol="100" key="39" pan="0"/>
          <note pos="864" len="96" vol="100" key="35" pan="0"/>
          <note pos="960" len="192" vol="100" key="47" pan="0"/>
          <note pos="960" len="192" vol="100" key="43" pan="0"/>
          <note pos="960" len="192" vol="100" key="40" pan="0"/>
          <note pos="1152" len="96" vol="100" key="45" pan="0"/>
          <note pos="1152" len="96" vol="100" key="40" pan="0"/>
          <note pos="1152" len="96" vol="100" key="37" pan="0"/>
          <note pos="1248" len="96" vol="100" key="44" pan="0"/>
          <note pos="1248" len="96" vol="100" key="40" pan="0"/>
          <note pos="1248" len="96" vol="100" key="35" pan="0"/>
          <note pos="1344" len="192" vol="100" key="42" pan="0"/>
          <note pos="1344" len="192" vol="100" key="39" pan="0"/>
          <note pos="1344" len="192" vol="100" key="35" pan="0"/>
          <note pos="1536" len="96" vol="100" key="55" pan="0"/>
          <note pos="1536" len="96" vol="100" key="52" pan="0"/>
          <note pos="1536" len="96" vol="100" key="48" pan="0"/>
          <note pos="1632" len="96" vol="100" key="57" pan="0"/>
          <note pos="1632" len="96" vol="100" key="54" pan="0"/>
          <note pos="1632" len="96" vol="100" key="50" pan="0"/>
          <note pos="1728" len="96" vol="100" key="54" pan="0"/>
          <note pos="1728" len="96" vol="100" key="50" pan="0"/>
          <note pos="1728" len="96" vol="100" key="47" pan="0"/>
          <note pos="1824" len="96" vol="100" key="55" pan="0"/>
          <note pos="1824" len="96" vol="100" key="52" pan="0"/>
          <note pos="1824" len="96" vol="100" key="48" pan="0"/>
          <note pos="1920" len="96" vol="100" key="55" pan="0"/>
          <note pos="1920" len="96" vol="100" key="52" pan="0"/>
          <note pos="1920" len="96" vol="100" key="48" pan="0"/>
          <note pos="2016" len="96" vol="100" key="57" pan="0"/>
          <note pos="2016" len="96" vol="100" key="54" pan="0"/>
          <note pos="2016" len="96" vol="100" key="50" pan="0"/>
          <note pos="2112" len="96" vol="100" key="54" pan="0"/>
          <note pos="2112" len="96" vol="100" key="50" pan="0"/>
          <note pos="2112" len="96" vol="100" key="47" pan="0"/>
          <note pos="2208" len="96" vol="100" key="52" pan="0"/>
          <note pos="2208" len="96" vol="100" key="49" pan="0"/>
          <note pos="2208" len="96" vol="100" key="45" pan="0"/>
          <note pos="2304" len="96" vol="100" key="55" pan="0"/>
          <note pos="2304" len="96" vol="100" key="52" pan="0"/>
          <note pos="2304" len="96" vol="100" key="47" pan="0"/>
          <note pos="2400" len="96" vol="100" key="54" pan="0"/>
          <note pos="2400" len="96" vol="100" key="50" pan="0"/>
          <note pos="2400" len="96" vol="100" key="45" pan="0"/>
          <note pos="2496" len="96" vol="100" key="52" pan="0"/>
          <note pos="2496" len="96" vol="100" key="48" pan="0"/>
          <note pos="2496" len="96" vol="100" key="43" pan="0"/>
          <note pos="2592" len="36" vol="100" key="55" pan="0"/>
          <note pos="2592" len="36" vol="100" key="52" pan="0"/>
          <note pos="2592" len="36" vol="100" key="47" pan="0"/>
          <note pos="2628" len="36" vol="100" key="54" pan="0"/>
          <note pos="2628" len="36" vol="100" key="50" pan="0"/>
          <note pos="2628" len="36" vol="100" key="45" pan="0"/>
          <note pos="2664" len="24" vol="100" key="52" pan="0"/>
          <note pos="2664" len="24" vol="100" key="48" pan="0"/>
          <note pos="2664" len="24" vol="100" key="43" pan="0"/>
          <note pos="2688" len="96" vol="100" key="55" pan="0"/>
          <note pos="2688" len="96" vol="100" key="52" pan="0"/>
          <note pos="2688" len="96" vol="100" key="47" pan="0"/>
          <note pos="2784" len="96" vol="100" key="54" pan="0"/>
          <note pos="2784" len="96" vol="100" key="50" pan="0"/>
          <note pos="2784" len="96" vol="100" key="45" pan="0"/>
          <note pos="2880" len="96" vol="100" key="52" pan="0"/>
          <note pos="2880" len="96" vol="100" key="48" pan="0"/>
          <note pos="2880" len="96" vol="100" key="43" pan="0"/>
          <note pos="2976" len="36" vol="100" key="52" pan="0"/>
          <note pos="2976" len="36" vol="100" key="48" pan="0"/>
          <note pos="2976" len="36" vol="100" key="43" pan="0"/>
          <note pos="3012" len="36" vol="100" key="54" pan="0"/>
          <note pos="3012" len="36" vol="100" key="50" pan="0"/>
          <note pos="3012" len="36" vol="100" key="45" pan="0"/>
          <note pos="3048" len="24" vol="100" key="55" pan="0"/>
          <note pos="3048" len="24" vol="100" key="52" pan="0"/>
          <note pos="3048" len="24" vol="100" key="47" pan="0"/>
          <note pos="3072" len="96" vol="100" key="55" pan="0"/>
          <note pos="3072" len="96" vol="100" key="52" pan="0"/>
          <note pos="3072" len="96" vol="100" key="47" pan="0"/>
          <note pos="3168" len="96" vol="100" key="54" pan="0"/>
          <note pos="3168" len="96" vol="100" key="50" pan="0"/>
          <note pos="3168" len="96" vol="100" key="45" pan="0"/>
          <note pos="3264" len="96" vol="100" key="52" pan="0"/>
          <note pos="3264" len="96" vol="100" key="48" pan="0"/>
          <note pos="3264" len="96" vol="100" key="43" pan="0"/>
          <note pos="3360" len="36" vol="100" key="55" pan="0"/>
          <note pos="3360" len="36" vol="100" key="52" pan="0"/>
          <note pos="3360" len="36" vol="100" key="47" pan="0"/>
          <note pos="3396" len="36" vol="100" key="54" pan="0"/>
          <note pos="3396" len="36" vol="100" key="50" pan="0"/>
          <note pos="3396" len="36" vol="100" key="45" pan="0"/>
          <note pos="3432" len="24" vol="100" key="52" pan="0"/>
          <note pos="3432" len="24" vol="100" key="48" pan="0"/>
          <note pos="3432" len="24" vol="100" key="43" pan="0"/>
          <note pos="3456" len="96" vol="100" key="55" pan="0"/>
          <note pos="3456" len="96" vol="100" key="52" pan="0"/>
          <note pos="3456" len="96" vol="100" key="48" pan="0"/>
          <note pos="3552" len="96" vol="100" key="54" pan="0"/>
          <note pos="3552" len="96" vol="100" key="50" pan="0"/>
          <note pos="3552" len="96" vol="100" key="47" pan="0"/>
          <note pos="3648" len="384" vol="100" key="52" pan="0"/>
          <note pos="3648" len="384" vol="100" key="49" pan="0"/>
          <note pos="3648" len="384" vol="100" key="45" pan="0"/>
        </pattern>
      </track>
      <track type="0" muted="1" name="Acoustic Piano" mutedBeforeSolo="0" solo="0">
        <instrumenttrack usemasterpitch="1" fxch="0" basenote="57" vol="100" pan="0" pitch="0" pitchrange="2">
          <instrument name="sf2player">
            <sf2player src="usersoundfont:GeneralUser GS MuseScore v1.442.sf2" reverbOn="0" reverbWidth="0.5" reverbDamping="0" chorusSpeed="0.3" patch="0" chorusLevel="2" reverbLevel="0.9" bank="128" chorusNum="3" chorusDepth="8" chorusOn="0" gain="1" reverbRoomSize="0.2">
              <key/>
            </sf2player>
          </instrument>
          <eldata fcut="14000" fres="0.5" fwet="0" ftype="0">
            <elvol rel="0.1" userwavefile="" lspd_syncmode="0" lspd_numerator="4" sustain="0.5" lpdel="0" lshp="0" latt="0" lamt="0" x100="0" lspd="0.1" lspd_denominator="4" amt="0" hold="0.5" att="0" ctlenvamt="0" dec="0.5" pdel="0"/>
            <elcut rel="0.1" userwavefile="" lspd_syncmode="0" lspd_numerator="4" sustain="0.5" lpdel="0" lshp="0" latt="0" lamt="0" x100="0" lspd="0.1" lspd_denominator="4" amt="0" hold="0.5" att="0" ctlenvamt="0" dec="0.5" pdel="0"/>
            <elres rel="0.1" userwavefile="" lspd_syncmode="0" lspd_numerator="4" sustain="0.5" lpdel="0" lshp="0" latt="0" lamt="0" x100="0" lspd="0.1" lspd_denominator="4" amt="0" hold="0.5" att="0" ctlenvamt="0" dec="0.5" pdel="0"/>
          </eldata>
          <chordcreator chord-enabled="0" chordrange="1" chord="0"/>
          <arpeggiator arpcycle="0" arptime="200" arptime_numerator="4" arpgate="100" arpdir="0" arptime_denominator="4" arp="0" arpskip="0" arp-enabled="0" arpmiss="0" arptime_syncmode="0" arprange="1" arpmode="0"/>
          <midiport inputcontroller="0" writable="0" readable="0" inputchannel="0" basevelocity="63" fixedinputvelocity="-1" outputcontroller="0" fixedoutputvelocity="-1" outputchannel="1" fixedoutputnote="-1" outputprogram="1"/>
          <fxchain enabled="0" numofeffects="0"/>
        </instrumenttrack>
        <pattern pos="768" steps="16" type="1" muted="0" name="">
          <note pos="0" len="12" vol="100" key="34" pan="0"/>
          <note pos="0" len="12" vol="100" key="23" pan="0"/>
          <note pos="24" len="12" vol="100" key="32" pan="0"/>
          <note pos="36" len="12" vol="100" key="34" pan="0"/>
          <note pos="48" len="12" vol="100" key="28" pan="0"/>
          <note pos="48" len="12" vol="100" key="23" pan="0"/>
          <note pos="60" len="12" vol="100" key="32" pan="0"/>
          <note pos="72" len="12" vol="100" key="32" pan="0"/>
          <note pos="84" len="12" vol="100" key="32" pan="0"/>
          <note pos="96" len="12" vol="100" key="32" pan="0"/>
          <note pos="96" len="12" vol="100" key="23" pan="0"/>
          <note pos="120" len="12" vol="100" key="34" pan="0"/>
          <note pos="144" len="12" vol="100" key="32" pan="0"/>
          <note pos="144" len="12" vol="100" key="28" pan="0"/>
          <note pos="144" len="12" vol="100" key="23" pan="0"/>
          <note pos="168" len="12" vol="100" key="34" pan="0"/>
          <note pos="180" len="12" vol="100" key="31" pan="0"/>
          <note pos="192" len="12" vol="100" key="34" pan="0"/>
          <note pos="192" len="12" vol="100" key="23" pan="0"/>
          <note pos="216" len="12" vol="100" key="32" pan="0"/>
          <note pos="228" len="12" vol="100" key="34" pan="0"/>
          <note pos="240" len="12" vol="100" key="28" pan="0"/>
          <note pos="240" len="12" vol="100" key="23" pan="0"/>
          <note pos="252" len="12" vol="100" key="32" pan="0"/>
          <note pos="264" len="12" vol="100" key="32" pan="0"/>
          <note pos="276" len="12" vol="100" key="32" pan="0"/>
          <note pos="288" len="12" vol="100" key="32" pan="0"/>
          <note pos="288" len="12" vol="100" key="23" pan="0"/>
          <note pos="312" len="12" vol="100" key="34" pan="0"/>
          <note pos="336" len="12" vol="100" key="32" pan="0"/>
          <note pos="336" len="12" vol="100" key="28" pan="0"/>
          <note pos="336" len="12" vol="100" key="23" pan="0"/>
          <note pos="360" len="12" vol="100" key="34" pan="0"/>
          <note pos="372" len="12" vol="100" key="31" pan="0"/>
          <note pos="384" len="12" vol="100" key="34" pan="0"/>
          <note pos="384" len="12" vol="100" key="23" pan="0"/>
          <note pos="408" len="12" vol="100" key="32" pan="0"/>
          <note pos="420" len="12" vol="100" key="34" pan="0"/>
          <note pos="432" len="12" vol="100" key="28" pan="0"/>
          <note pos="432" len="12" vol="100" key="23" pan="0"/>
          <note pos="444" len="12" vol="100" key="32" pan="0"/>
          <note pos="456" len="12" vol="100" key="32" pan="0"/>
          <note pos="468" len="12" vol="100" key="32" pan="0"/>
          <note pos="480" len="12" vol="100" key="32" pan="0"/>
          <note pos="480" len="12" vol="100" key="23" pan="0"/>
          <note pos="504" len="12" vol="100" key="34" pan="0"/>
          <note pos="528" len="12" vol="100" key="32" pan="0"/>
          <note pos="528" len="12" vol="100" key="28" pan="0"/>
          <note pos="528" len="12" vol="100" key="23" pan="0"/>
          <note pos="552" len="12" vol="100" key="34" pan="0"/>
          <note pos="564" len="12" vol="100" key="31" pan="0"/>
          <note pos="576" len="12" vol="100" key="34" pan="0"/>
          <note pos="576" len="12" vol="100" key="23" pan="0"/>
          <note pos="600" len="12" vol="100" key="32" pan="0"/>
          <note pos="612" len="12" vol="100" key="34" pan="0"/>
          <note pos="624" len="12" vol="100" key="28" pan="0"/>
          <note pos="624" len="12" vol="100" key="23" pan="0"/>
          <note pos="636" len="12" vol="100" key="32" pan="0"/>
          <note pos="648" len="12" vol="100" key="32" pan="0"/>
          <note pos="660" len="12" vol="100" key="32" pan="0"/>
          <note pos="672" len="12" vol="100" key="38" pan="0"/>
          <note pos="672" len="12" vol="100" key="32" pan="0"/>
          <note pos="672" len="12" vol="100" key="23" pan="0"/>
          <note pos="684" len="12" vol="100" key="36" pan="0"/>
          <note pos="696" len="12" vol="100" key="34" pan="0"/>
          <note pos="696" len="12" vol="100" key="33" pan="0"/>
          <note pos="708" len="12" vol="100" key="36" pan="0"/>
          <note pos="720" len="12" vol="100" key="33" pan="0"/>
          <note pos="720" len="12" vol="100" key="32" pan="0"/>
          <note pos="720" len="12" vol="100" key="28" pan="0"/>
          <note pos="720" len="12" vol="100" key="23" pan="0"/>
          <note pos="732" len="12" vol="100" key="29" pan="0"/>
          <note pos="744" len="12" vol="100" key="34" pan="0"/>
          <note pos="756" len="12" vol="100" key="31" pan="0"/>
          <note pos="768" len="12" vol="100" key="34" pan="0"/>
          <note pos="768" len="12" vol="100" key="23" pan="0"/>
          <note pos="792" len="12" vol="100" key="32" pan="0"/>
          <note pos="804" len="12" vol="100" key="34" pan="0"/>
          <note pos="816" len="12" vol="100" key="28" pan="0"/>
          <note pos="816" len="12" vol="100" key="23" pan="0"/>
          <note pos="828" len="12" vol="100" key="32" pan="0"/>
          <note pos="840" len="12" vol="100" key="32" pan="0"/>
          <note pos="852" len="12" vol="100" key="32" pan="0"/>
          <note pos="864" len="12" vol="100" key="32" pan="0"/>
          <note pos="864" len="12" vol="100" key="23" pan="0"/>
          <note pos="888" len="12" vol="100" key="34" pan="0"/>
          <note pos="912" len="12" vol="100" key="32" pan="0"/>
          <note pos="912" len="12" vol="100" key="28" pan="0"/>
          <note pos="912" len="12" vol="100" key="23" pan="0"/>
          <note pos="936" len="12" vol="100" key="34" pan="0"/>
          <note pos="948" len="12" vol="100" key="31" pan="0"/>
          <note pos="960" len="12" vol="100" key="34" pan="0"/>
          <note pos="960" len="12" vol="100" key="23" pan="0"/>
          <note pos="984" len="12" vol="100" key="32" pan="0"/>
          <note pos="996" len="12" vol="100" key="34" pan="0"/>
          <note pos="1008" len="12" vol="100" key="28" pan="0"/>
          <note pos="1008" len="12" vol="100" key="23" pan="0"/>
          <note pos="1020" len="12" vol="100" key="32" pan="0"/>
          <note pos="1032" len="12" vol="100" key="32" pan="0"/>
          <note pos="1044" len="12" vol="100" key="32" pan="0"/>
          <note pos="1056" len="12" vol="100" key="32" pan="0"/>
          <note pos="1056" len="12" vol="100" key="23" pan="0"/>
          <note pos="1080" len="12" vol="100" key="34" pan="0"/>
          <note pos="1104" len="12" vol="100" key="32" pan="0"/>
          <note pos="1104" len="12" vol="100" key="28" pan="0"/>
          <note pos="1104" len="12" vol="100" key="23" pan="0"/>
          <note pos="1128" len="12" vol="100" key="34" pan="0"/>
          <note pos="1140" len="12" vol="100" key="31" pan="0"/>
          <note pos="1152" len="12" vol="100" key="34" pan="0"/>
          <note pos="1152" len="12" vol="100" key="23" pan="0"/>
          <note pos="1176" len="12" vol="100" key="32" pan="0"/>
          <note pos="1188" len="12" vol="100" key="34" pan="0"/>
          <note pos="1200" len="12" vol="100" key="28" pan="0"/>
          <note pos="1200" len="12" vol="100" key="23" pan="0"/>
          <note pos="1212" len="12" vol="100" key="32" pan="0"/>
          <note pos="1224" len="12" vol="100" key="32" pan="0"/>
          <note pos="1236" len="12" vol="100" key="32" pan="0"/>
          <note pos="1248" len="12" vol="100" key="32" pan="0"/>
          <note pos="1248" len="12" vol="100" key="23" pan="0"/>
          <note pos="1272" len="12" vol="100" key="34" pan="0"/>
          <note pos="1296" len="12" vol="100" key="32" pan="0"/>
          <note pos="1296" len="12" vol="100" key="28" pan="0"/>
          <note pos="1296" len="12" vol="100" key="23" pan="0"/>
          <note pos="1320" len="12" vol="100" key="34" pan="0"/>
          <note pos="1332" len="12" vol="100" key="31" pan="0"/>
          <note pos="1344" len="12" vol="100" key="34" pan="0"/>
          <note pos="1344" len="12" vol="100" key="23" pan="0"/>
          <note pos="1368" len="12" vol="100" key="32" pan="0"/>
          <note pos="1380" len="12" vol="100" key="34" pan="0"/>
          <note pos="1392" len="12" vol="100" key="28" pan="0"/>
          <note pos="1392" len="12" vol="100" key="23" pan="0"/>
          <note pos="1404" len="12" vol="100" key="32" pan="0"/>
          <note pos="1416" len="12" vol="100" key="32" pan="0"/>
          <note pos="1428" len="12" vol="100" key="32" pan="0"/>
          <note pos="1440" len="12" vol="100" key="38" pan="0"/>
          <note pos="1440" len="12" vol="100" key="32" pan="0"/>
          <note pos="1440" len="12" vol="100" key="23" pan="0"/>
          <note pos="1452" len="12" vol="100" key="36" pan="0"/>
          <note pos="1464" len="12" vol="100" key="34" pan="0"/>
          <note pos="1464" len="12" vol="100" key="33" pan="0"/>
          <note pos="1476" len="12" vol="100" key="36" pan="0"/>
          <note pos="1488" len="12" vol="100" key="33" pan="0"/>
          <note pos="1488" len="12" vol="100" key="32" pan="0"/>
          <note pos="1488" len="12" vol="100" key="28" pan="0"/>
          <note pos="1488" len="12" vol="100" key="23" pan="0"/>
          <note pos="1500" len="12" vol="100" key="29" pan="0"/>
          <note pos="1512" len="12" vol="100" key="34" pan="0"/>
          <note pos="1524" len="12" vol="100" key="31" pan="0"/>
          <note pos="1536" len="12" vol="100" key="34" pan="0"/>
          <note pos="1536" len="12" vol="100" key="23" pan="0"/>
          <note pos="1560" len="12" vol="100" key="32" pan="0"/>
          <note pos="1572" len="12" vol="100" key="34" pan="0"/>
          <note pos="1584" len="12" vol="100" key="28" pan="0"/>
          <note pos="1584" len="12" vol="100" key="23" pan="0"/>
          <note pos="1596" len="12" vol="100" key="32" pan="0"/>
          <note pos="1608" len="12" vol="100" key="32" pan="0"/>
          <note pos="1620" len="12" vol="100" key="32" pan="0"/>
          <note pos="1632" len="12" vol="100" key="32" pan="0"/>
          <note pos="1632" len="12" vol="100" key="23" pan="0"/>
          <note pos="1656" len="12" vol="100" key="34" pan="0"/>
          <note pos="1656" len="12" vol="100" key="28" pan="0"/>
          <note pos="1680" len="12" vol="100" key="32" pan="0"/>
          <note pos="1680" len="12" vol="100" key="28" pan="0"/>
          <note pos="1680" len="12" vol="100" key="23" pan="0"/>
          <note pos="1704" len="12" vol="100" key="34" pan="0"/>
          <note pos="1704" len="12" vol="100" key="28" pan="0"/>
          <note pos="1716" len="12" vol="100" key="31" pan="0"/>
          <note pos="1728" len="12" vol="100" key="34" pan="0"/>
          <note pos="1728" len="12" vol="100" key="23" pan="0"/>
          <note pos="1752" len="12" vol="100" key="32" pan="0"/>
          <note pos="1764" len="12" vol="100" key="34" pan="0"/>
          <note pos="1776" len="12" vol="100" key="28" pan="0"/>
          <note pos="1776" len="12" vol="100" key="23" pan="0"/>
          <note pos="1788" len="12" vol="100" key="32" pan="0"/>
          <note pos="1800" len="12" vol="100" key="32" pan="0"/>
          <note pos="1812" len="12" vol="100" key="32" pan="0"/>
          <note pos="1824" len="12" vol="100" key="32" pan="0"/>
          <note pos="1824" len="12" vol="100" key="28" pan="0"/>
          <note pos="1824" len="12" vol="100" key="23" pan="0"/>
          <note pos="1848" len="12" vol="100" key="34" pan="0"/>
          <note pos="1860" len="12" vol="100" key="28" pan="0"/>
          <note pos="1872" len="12" vol="100" key="32" pan="0"/>
          <note pos="1872" len="12" vol="100" key="23" pan="0"/>
          <note pos="1896" len="12" vol="100" key="34" pan="0"/>
          <note pos="1896" len="12" vol="100" key="29" pan="0"/>
          <note pos="1908" len="12" vol="100" key="31" pan="0"/>
          <note pos="1920" len="12" vol="100" key="34" pan="0"/>
          <note pos="1920" len="12" vol="100" key="23" pan="0"/>
          <note pos="1944" len="12" vol="100" key="32" pan="0"/>
          <note pos="1956" len="12" vol="100" key="34" pan="0"/>
          <note pos="1968" len="12" vol="100" key="28" pan="0"/>
          <note pos="1968" len="12" vol="100" key="23" pan="0"/>
          <note pos="1980" len="12" vol="100" key="32" pan="0"/>
          <note pos="1992" len="12" vol="100" key="32" pan="0"/>
          <note pos="2004" len="12" vol="100" key="32" pan="0"/>
          <note pos="2016" len="12" vol="100" key="32" pan="0"/>
          <note pos="2016" len="12" vol="100" key="23" pan="0"/>
          <note pos="2040" len="12" vol="100" key="34" pan="0"/>
          <note pos="2040" len="12" vol="100" key="28" pan="0"/>
          <note pos="2064" len="12" vol="100" key="32" pan="0"/>
          <note pos="2064" len="12" vol="100" key="28" pan="0"/>
          <note pos="2064" len="12" vol="100" key="23" pan="0"/>
          <note pos="2088" len="12" vol="100" key="34" pan="0"/>
          <note pos="2088" len="12" vol="100" key="28" pan="0"/>
          <note pos="2100" len="12" vol="100" key="31" pan="0"/>
          <note pos="2112" len="12" vol="100" key="34" pan="0"/>
          <note pos="2112" len="12" vol="100" key="23" pan="0"/>
          <note pos="2136" len="12" vol="100" key="32" pan="0"/>
          <note pos="2148" len="12" vol="100" key="34" pan="0"/>
          <note pos="2160" len="12" vol="100" key="28" pan="0"/>
          <note pos="2160" len="12" vol="100" key="23" pan="0"/>
          <note pos="2172" len="12" vol="100" key="32" pan="0"/>
          <note pos="2184" len="12" vol="100" key="32" pan="0"/>
          <note pos="2196" len="12" vol="100" key="32" pan="0"/>
          <note pos="2208" len="12" vol="100" key="32" pan="0"/>
          <note pos="2208" len="12" vol="100" key="28" pan="0"/>
          <note pos="2208" len="12" vol="100" key="23" pan="0"/>
          <note pos="2232" len="12" vol="100" key="34" pan="0"/>
          <note pos="2244" len="12" vol="100" key="28" pan="0"/>
          <note pos="2256" len="12" vol="100" key="32" pan="0"/>
          <note pos="2256" len="12" vol="100" key="23" pan="0"/>
          <note pos="2280" len="12" vol="100" key="34" pan="0"/>
          <note pos="2280" len="12" vol="100" key="28" pan="0"/>
          <note pos="2292" len="12" vol="100" key="31" pan="0"/>
          <note pos="2304" len="12" vol="100" key="34" pan="0"/>
          <note pos="2304" len="12" vol="100" key="23" pan="0"/>
          <note pos="2328" len="12" vol="100" key="32" pan="0"/>
          <note pos="2340" len="12" vol="100" key="34" pan="0"/>
          <note pos="2352" len="12" vol="100" key="28" pan="0"/>
          <note pos="2352" len="12" vol="100" key="23" pan="0"/>
          <note pos="2364" len="12" vol="100" key="32" pan="0"/>
          <note pos="2376" len="12" vol="100" key="32" pan="0"/>
          <note pos="2388" len="12" vol="100" key="32" pan="0"/>
          <note pos="2400" len="12" vol="100" key="32" pan="0"/>
          <note pos="2400" len="12" vol="100" key="23" pan="0"/>
          <note pos="2424" len="12" vol="100" key="34" pan="0"/>
          <note pos="2424" len="12" vol="100" key="28" pan="0"/>
          <note pos="2448" len="12" vol="100" key="32" pan="0"/>
          <note pos="2448" len="12" vol="100" key="28" pan="0"/>
          <note pos="2448" len="12" vol="100" key="23" pan="0"/>
          <note pos="2472" len="12" vol="100" key="34" pan="0"/>
          <note pos="2472" len="12" vol="100" key="28" pan="0"/>
          <note pos="2484" len="12" vol="100" key="31" pan="0"/>
          <note pos="2496" len="12" vol="100" key="34" pan="0"/>
          <note pos="2496" len="12" vol="100" key="23" pan="0"/>
          <note pos="2520" len="12" vol="100" key="32" pan="0"/>
          <note pos="2532" len="12" vol="100" key="34" pan="0"/>
          <note pos="2544" len="12" vol="100" key="28" pan="0"/>
          <note pos="2544" len="12" vol="100" key="23" pan="0"/>
          <note pos="2556" len="12" vol="100" key="32" pan="0"/>
          <note pos="2568" len="12" vol="100" key="32" pan="0"/>
          <note pos="2580" len="12" vol="100" key="32" pan="0"/>
          <note pos="2592" len="12" vol="100" key="32" pan="0"/>
          <note pos="2592" len="12" vol="100" key="28" pan="0"/>
          <note pos="2592" len="12" vol="100" key="23" pan="0"/>
          <note pos="2616" len="12" vol="100" key="34" pan="0"/>
          <note pos="2628" len="12" vol="100" key="28" pan="0"/>
          <note pos="2640" len="12" vol="100" key="32" pan="0"/>
          <note pos="2640" len="12" vol="100" key="23" pan="0"/>
          <note pos="2664" len="12" vol="100" key="34" pan="0"/>
          <note pos="2664" len="12" vol="100" key="29" pan="0"/>
          <note pos="2676" len="12" vol="100" key="31" pan="0"/>
          <note pos="2688" len="12" vol="100" key="34" pan="0"/>
          <note pos="2688" len="12" vol="100" key="23" pan="0"/>
          <note pos="2712" len="12" vol="100" key="32" pan="0"/>
          <note pos="2724" len="12" vol="100" key="34" pan="0"/>
          <note pos="2736" len="12" vol="100" key="28" pan="0"/>
          <note pos="2736" len="12" vol="100" key="23" pan="0"/>
          <note pos="2748" len="12" vol="100" key="32" pan="0"/>
          <note pos="2760" len="12" vol="100" key="32" pan="0"/>
          <note pos="2772" len="12" vol="100" key="32" pan="0"/>
          <note pos="2784" len="12" vol="100" key="32" pan="0"/>
          <note pos="2784" len="12" vol="100" key="23" pan="0"/>
          <note pos="2808" len="12" vol="100" key="34" pan="0"/>
          <note pos="2808" len="12" vol="100" key="28" pan="0"/>
          <note pos="2832" len="12" vol="100" key="32" pan="0"/>
          <note pos="2832" len="12" vol="100" key="28" pan="0"/>
          <note pos="2832" len="12" vol="100" key="23" pan="0"/>
          <note pos="2856" len="12" vol="100" key="34" pan="0"/>
          <note pos="2856" len="12" vol="100" key="28" pan="0"/>
          <note pos="2868" len="12" vol="100" key="31" pan="0"/>
          <note pos="2880" len="12" vol="100" key="34" pan="0"/>
          <note pos="2880" len="12" vol="100" key="23" pan="0"/>
          <note pos="2904" len="12" vol="100" key="32" pan="0"/>
          <note pos="2916" len="12" vol="100" key="34" pan="0"/>
          <note pos="2928" len="12" vol="100" key="28" pan="0"/>
          <note pos="2928" len="12" vol="100" key="23" pan="0"/>
          <note pos="2940" len="12" vol="100" key="32" pan="0"/>
          <note pos="2952" len="12" vol="100" key="32" pan="0"/>
          <note pos="2964" len="12" vol="100" key="32" pan="0"/>
          <note pos="2976" len="12" vol="100" key="32" pan="0"/>
          <note pos="2976" len="12" vol="100" key="28" pan="0"/>
          <note pos="2976" len="12" vol="100" key="23" pan="0"/>
          <note pos="3000" len="12" vol="100" key="34" pan="0"/>
          <note pos="3012" len="12" vol="100" key="28" pan="0"/>
          <note pos="3024" len="12" vol="100" key="32" pan="0"/>
          <note pos="3024" len="12" vol="100" key="23" pan="0"/>
          <note pos="3048" len="12" vol="100" key="34" pan="0"/>
          <note pos="3048" len="12" vol="100" key="28" pan="0"/>
          <note pos="3060" len="12" vol="100" key="31" pan="0"/>
        </pattern>
        <pattern pos="6336" steps="16" type="1" muted="0" name="">
          <note pos="24" len="12" vol="100" key="32" pan="0"/>
          <note pos="72" len="12" vol="100" key="32" pan="0"/>
          <note pos="120" len="12" vol="100" key="32" pan="0"/>
          <note pos="168" len="12" vol="100" key="32" pan="0"/>
          <note pos="216" len="12" vol="100" key="32" pan="0"/>
          <note pos="264" len="12" vol="100" key="32" pan="0"/>
          <note pos="312" len="12" vol="100" key="32" pan="0"/>
          <note pos="360" len="12" vol="100" key="32" pan="0"/>
          <note pos="408" len="12" vol="100" key="32" pan="0"/>
          <note pos="456" len="12" vol="100" key="32" pan="0"/>
          <note pos="504" len="12" vol="100" key="32" pan="0"/>
          <note pos="552" len="12" vol="100" key="32" pan="0"/>
          <note pos="600" len="12" vol="100" key="32" pan="0"/>
          <note pos="648" len="12" vol="100" key="32" pan="0"/>
          <note pos="696" len="12" vol="100" key="32" pan="0"/>
          <note pos="744" len="12" vol="100" key="32" pan="0"/>
          <note pos="768" len="12" vol="100" key="30" pan="0"/>
          <note pos="792" len="12" vol="100" key="32" pan="0"/>
          <note pos="804" len="12" vol="100" key="34" pan="0"/>
          <note pos="816" len="12" vol="100" key="32" pan="0"/>
          <note pos="840" len="12" vol="100" key="32" pan="0"/>
          <note pos="864" len="12" vol="100" key="30" pan="0"/>
          <note pos="888" len="12" vol="100" key="32" pan="0"/>
          <note pos="912" len="12" vol="100" key="34" pan="0"/>
          <note pos="936" len="12" vol="100" key="32" pan="0"/>
          <note pos="960" len="12" vol="100" key="30" pan="0"/>
          <note pos="984" len="12" vol="100" key="32" pan="0"/>
          <note pos="996" len="12" vol="100" key="34" pan="0"/>
          <note pos="1008" len="12" vol="100" key="32" pan="0"/>
          <note pos="1032" len="12" vol="100" key="32" pan="0"/>
          <note pos="1056" len="12" vol="100" key="30" pan="0"/>
          <note pos="1080" len="12" vol="100" key="32" pan="0"/>
          <note pos="1104" len="12" vol="100" key="34" pan="0"/>
          <note pos="1116" len="12" vol="100" key="34" pan="0"/>
          <note pos="1128" len="12" vol="100" key="30" pan="0"/>
          <note pos="1152" len="12" vol="100" key="30" pan="0"/>
          <note pos="1176" len="12" vol="100" key="32" pan="0"/>
          <note pos="1188" len="12" vol="100" key="34" pan="0"/>
          <note pos="1200" len="12" vol="100" key="32" pan="0"/>
          <note pos="1224" len="12" vol="100" key="32" pan="0"/>
          <note pos="1248" len="12" vol="100" key="30" pan="0"/>
          <note pos="1272" len="12" vol="100" key="32" pan="0"/>
          <note pos="1296" len="12" vol="100" key="34" pan="0"/>
          <note pos="1320" len="12" vol="100" key="32" pan="0"/>
          <note pos="1344" len="12" vol="100" key="30" pan="0"/>
          <note pos="1368" len="12" vol="100" key="32" pan="0"/>
          <note pos="1380" len="12" vol="100" key="34" pan="0"/>
          <note pos="1392" len="12" vol="100" key="32" pan="0"/>
          <note pos="1416" len="12" vol="100" key="32" pan="0"/>
          <note pos="1440" len="12" vol="100" key="30" pan="0"/>
          <note pos="1464" len="12" vol="100" key="32" pan="0"/>
          <note pos="1488" len="12" vol="100" key="34" pan="0"/>
          <note pos="1500" len="12" vol="100" key="34" pan="0"/>
          <note pos="1512" len="12" vol="100" key="30" pan="0"/>
          <note pos="1536" len="12" vol="100" key="30" pan="0"/>
          <note pos="1560" len="12" vol="100" key="32" pan="0"/>
          <note pos="1572" len="12" vol="100" key="34" pan="0"/>
          <note pos="1584" len="12" vol="100" key="32" pan="0"/>
          <note pos="1608" len="12" vol="100" key="32" pan="0"/>
          <note pos="1632" len="12" vol="100" key="30" pan="0"/>
          <note pos="1656" len="12" vol="100" key="32" pan="0"/>
          <note pos="1680" len="12" vol="100" key="34" pan="0"/>
          <note pos="1704" len="12" vol="100" key="32" pan="0"/>
          <note pos="1728" len="12" vol="100" key="30" pan="0"/>
          <note pos="1752" len="12" vol="100" key="32" pan="0"/>
          <note pos="1764" len="12" vol="100" key="34" pan="0"/>
          <note pos="1776" len="12" vol="100" key="32" pan="0"/>
          <note pos="1800" len="12" vol="100" key="32" pan="0"/>
          <note pos="1824" len="12" vol="100" key="30" pan="0"/>
          <note pos="1848" len="12" vol="100" key="32" pan="0"/>
          <note pos="1872" len="12" vol="100" key="34" pan="0"/>
          <note pos="1884" len="12" vol="100" key="34" pan="0"/>
          <note pos="1896" len="12" vol="100" key="30" pan="0"/>
          <note pos="1920" len="12" vol="100" key="30" pan="0"/>
          <note pos="1944" len="12" vol="100" key="32" pan="0"/>
          <note pos="1956" len="12" vol="100" key="34" pan="0"/>
          <note pos="1968" len="12" vol="100" key="32" pan="0"/>
          <note pos="1992" len="12" vol="100" key="32" pan="0"/>
          <note pos="2016" len="12" vol="100" key="30" pan="0"/>
          <note pos="2040" len="12" vol="100" key="32" pan="0"/>
          <note pos="2064" len="12" vol="100" key="34" pan="0"/>
          <note pos="2088" len="12" vol="100" key="32" pan="0"/>
          <note pos="2112" len="12" vol="100" key="30" pan="0"/>
          <note pos="2136" len="12" vol="100" key="32" pan="0"/>
          <note pos="2148" len="12" vol="100" key="34" pan="0"/>
          <note pos="2160" len="12" vol="100" key="32" pan="0"/>
          <note pos="2184" len="12" vol="100" key="32" pan="0"/>
          <note pos="2208" len="12" vol="100" key="30" pan="0"/>
          <note pos="2232" len="12" vol="100" key="32" pan="0"/>
          <note pos="2256" len="12" vol="100" key="34" pan="0"/>
          <note pos="2268" len="12" vol="100" key="34" pan="0"/>
          <note pos="2280" len="12" vol="100" key="30" pan="0"/>
          <note pos="2304" len="12" vol="100" key="34" pan="0"/>
          <note pos="2304" len="12" vol="100" key="23" pan="0"/>
          <note pos="2328" len="12" vol="100" key="32" pan="0"/>
          <note pos="2340" len="12" vol="100" key="34" pan="0"/>
          <note pos="2352" len="12" vol="100" key="28" pan="0"/>
          <note pos="2352" len="12" vol="100" key="23" pan="0"/>
          <note pos="2364" len="12" vol="100" key="32" pan="0"/>
          <note pos="2376" len="12" vol="100" key="32" pan="0"/>
          <note pos="2388" len="12" vol="100" key="32" pan="0"/>
          <note pos="2400" len="12" vol="100" key="32" pan="0"/>
          <note pos="2400" len="12" vol="100" key="23" pan="0"/>
          <note pos="2424" len="12" vol="100" key="34" pan="0"/>
          <note pos="2448" len="12" vol="100" key="32" pan="0"/>
          <note pos="2448" len="12" vol="100" key="28" pan="0"/>
          <note pos="2448" len="12" vol="100" key="23" pan="0"/>
          <note pos="2472" len="12" vol="100" key="34" pan="0"/>
          <note pos="2484" len="12" vol="100" key="31" pan="0"/>
          <note pos="2496" len="12" vol="100" key="34" pan="0"/>
          <note pos="2496" len="12" vol="100" key="23" pan="0"/>
          <note pos="2520" len="12" vol="100" key="32" pan="0"/>
          <note pos="2532" len="12" vol="100" key="34" pan="0"/>
          <note pos="2544" len="12" vol="100" key="28" pan="0"/>
          <note pos="2544" len="12" vol="100" key="23" pan="0"/>
          <note pos="2556" len="12" vol="100" key="32" pan="0"/>
          <note pos="2568" len="12" vol="100" key="32" pan="0"/>
          <note pos="2580" len="12" vol="100" key="32" pan="0"/>
          <note pos="2592" len="12" vol="100" key="32" pan="0"/>
          <note pos="2592" len="12" vol="100" key="23" pan="0"/>
          <note pos="2616" len="12" vol="100" key="34" pan="0"/>
          <note pos="2640" len="12" vol="100" key="32" pan="0"/>
          <note pos="2640" len="12" vol="100" key="28" pan="0"/>
          <note pos="2640" len="12" vol="100" key="23" pan="0"/>
          <note pos="2664" len="12" vol="100" key="34" pan="0"/>
          <note pos="2676" len="12" vol="100" key="31" pan="0"/>
          <note pos="2688" len="12" vol="100" key="34" pan="0"/>
          <note pos="2688" len="12" vol="100" key="23" pan="0"/>
          <note pos="2712" len="12" vol="100" key="32" pan="0"/>
          <note pos="2724" len="12" vol="100" key="34" pan="0"/>
          <note pos="2736" len="12" vol="100" key="28" pan="0"/>
          <note pos="2736" len="12" vol="100" key="23" pan="0"/>
          <note pos="2748" len="12" vol="100" key="32" pan="0"/>
          <note pos="2760" len="12" vol="100" key="32" pan="0"/>
          <note pos="2772" len="12" vol="100" key="32" pan="0"/>
          <note pos="2784" len="12" vol="100" key="32" pan="0"/>
          <note pos="2784" len="12" vol="100" key="23" pan="0"/>
          <note pos="2808" len="12" vol="100" key="34" pan="0"/>
          <note pos="2832" len="12" vol="100" key="32" pan="0"/>
          <note pos="2832" len="12" vol="100" key="28" pan="0"/>
          <note pos="2832" len="12" vol="100" key="23" pan="0"/>
          <note pos="2856" len="12" vol="100" key="34" pan="0"/>
          <note pos="2868" len="12" vol="100" key="31" pan="0"/>
          <note pos="2880" len="12" vol="100" key="34" pan="0"/>
          <note pos="2880" len="12" vol="100" key="23" pan="0"/>
          <note pos="2904" len="12" vol="100" key="32" pan="0"/>
          <note pos="2916" len="12" vol="100" key="34" pan="0"/>
          <note pos="2928" len="12" vol="100" key="28" pan="0"/>
          <note pos="2928" len="12" vol="100" key="23" pan="0"/>
          <note pos="2940" len="12" vol="100" key="32" pan="0"/>
          <note pos="2952" len="12" vol="100" key="32" pan="0"/>
          <note pos="2964" len="12" vol="100" key="32" pan="0"/>
          <note pos="2976" len="12" vol="100" key="38" pan="0"/>
          <note pos="2976" len="12" vol="100" key="32" pan="0"/>
          <note pos="2976" len="12" vol="100" key="23" pan="0"/>
          <note pos="2988" len="12" vol="100" key="36" pan="0"/>
          <note pos="3000" len="12" vol="100" key="34" pan="0"/>
          <note pos="3000" len="12" vol="100" key="33" pan="0"/>
          <note pos="3012" len="12" vol="100" key="36" pan="0"/>
          <note pos="3024" len="12" vol="100" key="33" pan="0"/>
          <note pos="3024" len="12" vol="100" key="32" pan="0"/>
          <note pos="3024" len="12" vol="100" key="28" pan="0"/>
          <note pos="3024" len="12" vol="100" key="23" pan="0"/>
          <note pos="3036" len="12" vol="100" key="29" pan="0"/>
          <note pos="3048" len="12" vol="100" key="34" pan="0"/>
          <note pos="3060" len="12" vol="100" key="31" pan="0"/>
          <note pos="3072" len="12" vol="100" key="34" pan="0"/>
          <note pos="3072" len="12" vol="100" key="23" pan="0"/>
          <note pos="3096" len="12" vol="100" key="32" pan="0"/>
          <note pos="3108" len="12" vol="100" key="34" pan="0"/>
          <note pos="3120" len="12" vol="100" key="28" pan="0"/>
          <note pos="3120" len="12" vol="100" key="23" pan="0"/>
          <note pos="3132" len="12" vol="100" key="32" pan="0"/>
          <note pos="3144" len="12" vol="100" key="32" pan="0"/>
          <note pos="3156" len="12" vol="100" key="32" pan="0"/>
          <note pos="3168" len="12" vol="100" key="32" pan="0"/>
          <note pos="3168" len="12" vol="100" key="23" pan="0"/>
          <note pos="3192" len="12" vol="100" key="34" pan="0"/>
          <note pos="3192" len="12" vol="100" key="28" pan="0"/>
          <note pos="3216" len="12" vol="100" key="32" pan="0"/>
          <note pos="3216" len="12" vol="100" key="28" pan="0"/>
          <note pos="3216" len="12" vol="100" key="23" pan="0"/>
          <note pos="3240" len="12" vol="100" key="34" pan="0"/>
          <note pos="3240" len="12" vol="100" key="28" pan="0"/>
          <note pos="3252" len="12" vol="100" key="31" pan="0"/>
          <note pos="3264" len="12" vol="100" key="34" pan="0"/>
          <note pos="3264" len="12" vol="100" key="23" pan="0"/>
          <note pos="3288" len="12" vol="100" key="32" pan="0"/>
          <note pos="3300" len="12" vol="100" key="34" pan="0"/>
          <note pos="3312" len="12" vol="100" key="28" pan="0"/>
          <note pos="3312" len="12" vol="100" key="23" pan="0"/>
          <note pos="3324" len="12" vol="100" key="32" pan="0"/>
          <note pos="3336" len="12" vol="100" key="32" pan="0"/>
          <note pos="3348" len="12" vol="100" key="32" pan="0"/>
          <note pos="3360" len="12" vol="100" key="32" pan="0"/>
          <note pos="3360" len="12" vol="100" key="28" pan="0"/>
          <note pos="3360" len="12" vol="100" key="23" pan="0"/>
          <note pos="3384" len="12" vol="100" key="34" pan="0"/>
          <note pos="3396" len="12" vol="100" key="28" pan="0"/>
          <note pos="3408" len="12" vol="100" key="32" pan="0"/>
          <note pos="3408" len="12" vol="100" key="23" pan="0"/>
          <note pos="3432" len="12" vol="100" key="34" pan="0"/>
          <note pos="3432" len="12" vol="100" key="29" pan="0"/>
          <note pos="3444" len="12" vol="100" key="31" pan="0"/>
          <note pos="3456" len="12" vol="100" key="34" pan="0"/>
          <note pos="3456" len="12" vol="100" key="23" pan="0"/>
          <note pos="3480" len="12" vol="100" key="32" pan="0"/>
          <note pos="3492" len="12" vol="100" key="34" pan="0"/>
          <note pos="3504" len="12" vol="100" key="28" pan="0"/>
          <note pos="3504" len="12" vol="100" key="23" pan="0"/>
          <note pos="3516" len="12" vol="100" key="32" pan="0"/>
          <note pos="3528" len="12" vol="100" key="32" pan="0"/>
          <note pos="3540" len="12" vol="100" key="32" pan="0"/>
          <note pos="3552" len="12" vol="100" key="32" pan="0"/>
          <note pos="3552" len="12" vol="100" key="23" pan="0"/>
          <note pos="3576" len="12" vol="100" key="34" pan="0"/>
          <note pos="3576" len="12" vol="100" key="28" pan="0"/>
          <note pos="3600" len="12" vol="100" key="32" pan="0"/>
          <note pos="3600" len="12" vol="100" key="28" pan="0"/>
          <note pos="3600" len="12" vol="100" key="23" pan="0"/>
          <note pos="3624" len="12" vol="100" key="34" pan="0"/>
          <note pos="3624" len="12" vol="100" key="28" pan="0"/>
          <note pos="3636" len="12" vol="100" key="31" pan="0"/>
          <note pos="3648" len="12" vol="100" key="34" pan="0"/>
          <note pos="3648" len="12" vol="100" key="23" pan="0"/>
          <note pos="3672" len="12" vol="100" key="32" pan="0"/>
          <note pos="3684" len="12" vol="100" key="34" pan="0"/>
          <note pos="3696" len="12" vol="100" key="28" pan="0"/>
          <note pos="3696" len="12" vol="100" key="23" pan="0"/>
          <note pos="3708" len="12" vol="100" key="32" pan="0"/>
          <note pos="3720" len="12" vol="100" key="32" pan="0"/>
          <note pos="3732" len="12" vol="100" key="32" pan="0"/>
          <note pos="3744" len="12" vol="100" key="32" pan="0"/>
          <note pos="3744" len="12" vol="100" key="28" pan="0"/>
          <note pos="3744" len="12" vol="100" key="23" pan="0"/>
          <note pos="3768" len="12" vol="100" key="34" pan="0"/>
          <note pos="3780" len="12" vol="100" key="28" pan="0"/>
          <note pos="3792" len="12" vol="100" key="32" pan="0"/>
          <note pos="3792" len="12" vol="100" key="23" pan="0"/>
          <note pos="3816" len="12" vol="100" key="34" pan="0"/>
          <note pos="3816" len="12" vol="100" key="28" pan="0"/>
          <note pos="3828" len="12" vol="100" key="31" pan="0"/>
          <note pos="3840" len="12" vol="100" key="34" pan="0"/>
          <note pos="3840" len="12" vol="100" key="23" pan="0"/>
          <note pos="3864" len="12" vol="100" key="32" pan="0"/>
          <note pos="3876" len="12" vol="100" key="34" pan="0"/>
          <note pos="3888" len="12" vol="100" key="28" pan="0"/>
          <note pos="3888" len="12" vol="100" key="23" pan="0"/>
          <note pos="3900" len="12" vol="100" key="32" pan="0"/>
          <note pos="3912" len="12" vol="100" key="32" pan="0"/>
          <note pos="3924" len="12" vol="100" key="32" pan="0"/>
          <note pos="3936" len="12" vol="100" key="32" pan="0"/>
          <note pos="3936" len="12" vol="100" key="23" pan="0"/>
          <note pos="3960" len="12" vol="100" key="34" pan="0"/>
          <note pos="3960" len="12" vol="100" key="28" pan="0"/>
          <note pos="3984" len="12" vol="100" key="32" pan="0"/>
          <note pos="3984" len="12" vol="100" key="28" pan="0"/>
          <note pos="3984" len="12" vol="100" key="23" pan="0"/>
          <note pos="4008" len="12" vol="100" key="34" pan="0"/>
          <note pos="4008" len="12" vol="100" key="28" pan="0"/>
          <note pos="4020" len="12" vol="100" key="31" pan="0"/>
          <note pos="4032" len="12" vol="100" key="34" pan="0"/>
          <note pos="4032" len="12" vol="100" key="23" pan="0"/>
          <note pos="4056" len="12" vol="100" key="32" pan="0"/>
          <note pos="4068" len="12" vol="100" key="34" pan="0"/>
          <note pos="4080" len="12" vol="100" key="28" pan="0"/>
          <note pos="4080" len="12" vol="100" key="23" pan="0"/>
          <note pos="4092" len="12" vol="100" key="32" pan="0"/>
          <note pos="4104" len="12" vol="100" key="32" pan="0"/>
          <note pos="4116" len="12" vol="100" key="32" pan="0"/>
          <note pos="4128" len="12" vol="100" key="32" pan="0"/>
          <note pos="4128" len="12" vol="100" key="28" pan="0"/>
          <note pos="4128" len="12" vol="100" key="23" pan="0"/>
          <note pos="4152" len="12" vol="100" key="34" pan="0"/>
          <note pos="4164" len="12" vol="100" key="28" pan="0"/>
          <note pos="4176" len="12" vol="100" key="32" pan="0"/>
          <note pos="4176" len="12" vol="100" key="23" pan="0"/>
          <note pos="4200" len="12" vol="100" key="34" pan="0"/>
          <note pos="4200" len="12" vol="100" key="29" pan="0"/>
          <note pos="4212" len="12" vol="100" key="31" pan="0"/>
          <note pos="4224" len="12" vol="100" key="34" pan="0"/>
          <note pos="4224" len="12" vol="100" key="23" pan="0"/>
          <note pos="4248" len="12" vol="100" key="32" pan="0"/>
          <note pos="4260" len="12" vol="100" key="34" pan="0"/>
          <note pos="4272" len="12" vol="100" key="28" pan="0"/>
          <note pos="4272" len="12" vol="100" key="23" pan="0"/>
          <note pos="4284" len="12" vol="100" key="32" pan="0"/>
          <note pos="4296" len="12" vol="100" key="32" pan="0"/>
          <note pos="4308" len="12" vol="100" key="32" pan="0"/>
          <note pos="4320" len="12" vol="100" key="32" pan="0"/>
          <note pos="4320" len="12" vol="100" key="23" pan="0"/>
          <note pos="4344" len="12" vol="100" key="34" pan="0"/>
          <note pos="4344" len="12" vol="100" key="28" pan="0"/>
          <note pos="4368" len="12" vol="100" key="32" pan="0"/>
          <note pos="4368" len="12" vol="100" key="28" pan="0"/>
          <note pos="4368" len="12" vol="100" key="23" pan="0"/>
          <note pos="4392" len="12" vol="100" key="34" pan="0"/>
          <note pos="4392" len="12" vol="100" key="28" pan="0"/>
          <note pos="4404" len="12" vol="100" key="31" pan="0"/>
          <note pos="4416" len="12" vol="100" key="34" pan="0"/>
          <note pos="4416" len="12" vol="100" key="23" pan="0"/>
          <note pos="4440" len="12" vol="100" key="32" pan="0"/>
          <note pos="4452" len="12" vol="100" key="34" pan="0"/>
          <note pos="4464" len="12" vol="100" key="28" pan="0"/>
          <note pos="4464" len="12" vol="100" key="23" pan="0"/>
          <note pos="4476" len="12" vol="100" key="32" pan="0"/>
          <note pos="4488" len="12" vol="100" key="32" pan="0"/>
          <note pos="4500" len="12" vol="100" key="32" pan="0"/>
        </pattern>
      </track>
      <track type="0" muted="1" name="Acoustic Piano" mutedBeforeSolo="0" solo="0">
        <instrumenttrack usemasterpitch="1" fxch="0" basenote="57" vol="100" pan="0" pitch="0" pitchrange="2">
          <instrument name="sf2player">
            <sf2player src="usersoundfont:GeneralUser GS MuseScore v1.442.sf2" reverbOn="0" reverbWidth="0.5" reverbDamping="0" chorusSpeed="0.3" patch="0" chorusLevel="2" reverbLevel="0.9" bank="0" chorusNum="3" chorusDepth="8" chorusOn="0" gain="1" reverbRoomSize="0.2">
              <key/>
            </sf2player>
          </instrument>
          <eldata fcut="14000" fres="0.5" fwet="0" ftype="0">
            <elvol rel="0.1" userwavefile="" lspd_syncmode="0" lspd_numerator="4" sustain="0.5" lpdel="0" lshp="0" latt="0" lamt="0" x100="0" lspd="0.1" lspd_denominator="4" amt="0" hold="0.5" att="0" ctlenvamt="0" dec="0.5" pdel="0"/>
            <elcut rel="0.1" userwavefile="" lspd_syncmode="0" lspd_numerator="4" sustain="0.5" lpdel="0" lshp="0" latt="0" lamt="0" x100="0" lspd="0.1" lspd_denominator="4" amt="0" hold="0.5" att="0" ctlenvamt="0" dec="0.5" pdel="0"/>
            <elres rel="0.1" userwavefile="" lspd_syncmode="0" lspd_numerator="4" sustain="0.5" lpdel="0" lshp="0" latt="0" lamt="0" x100="0" lspd="0.1" lspd_denominator="4" amt="0" hold="0.5" att="0" ctlenvamt="0" dec="0.5" pdel="0"/>
          </eldata>
          <chordcreator chord-enabled="0" chordrange="1" chord="0"/>
          <arpeggiator arpcycle="0" arptime="200" arptime_numerator="4" arpgate="100" arpdir="0" arptime_denominator="4" arp="0" arpskip="0" arp-enabled="0" arpmiss="0" arptime_syncmode="0" arprange="1" arpmode="0"/>
          <midiport inputcontroller="0" writable="0" readable="0" inputchannel="0" basevelocity="63" fixedinputvelocity="-1" outputcontroller="0" fixedoutputvelocity="-1" outputchannel="1" fixedoutputnote="-1" outputprogram="1"/>
          <fxchain enabled="0" numofeffects="0"/>
        </instrumenttrack>
      </track>
      <track type="0" muted="0" name="Pianissimo" mutedBeforeSolo="0" solo="1">
        <instrumenttrack usemasterpitch="1" fxch="0" basenote="57" vol="100" pan="0" pitch="0" pitchrange="1">
          <instrument name="vestige">
            <vestige param10="10:High EQ:0.5" param2="2:Reverb:0" param7="7:Chorus:0" plugin="uservst:Instruments/Pianissimo/Pianissimo.dll" param0="0:Lid:0.875" program="0" param3="3:Rev Type:0.071429" param8="8:Bass EQ:0.5" param4="4:Volume:0.069444" param6="6:SympReso:0.5" param1="1:Hammers:0.5" guivisible="1" numparams="11" param5="5:VelCurve:0.1" param9="9:Mid EQ:0.5">
              <key/>
            </vestige>
          </instrument>
          <eldata fcut="14000" fres="0.5" fwet="0" ftype="0">
            <elvol rel="0.1" userwavefile="" lspd_syncmode="0" lspd_numerator="4" sustain="0.5" lpdel="0" lshp="0" latt="0" lamt="0" x100="0" lspd="0.1" lspd_denominator="4" amt="0" hold="0.5" att="0" ctlenvamt="0" dec="0.5" pdel="0"/>
            <elcut rel="0.1" userwavefile="" lspd_syncmode="0" lspd_numerator="4" sustain="0.5" lpdel="0" lshp="0" latt="0" lamt="0" x100="0" lspd="0.1" lspd_denominator="4" amt="0" hold="0.5" att="0" ctlenvamt="0" dec="0.5" pdel="0"/>
            <elres rel="0.1" userwavefile="" lspd_syncmode="0" lspd_numerator="4" sustain="0.5" lpdel="0" lshp="0" latt="0" lamt="0" x100="0" lspd="0.1" lspd_denominator="4" amt="0" hold="0.5" att="0" ctlenvamt="0" dec="0.5" pdel="0"/>
          </eldata>
          <chordcreator chord-enabled="1" chordrange="2" chord="0"/>
          <arpeggiator arpcycle="0" arptime="150" arptime_numerator="4" arpgate="100" arpdir="0" arptime_denominator="4" arp="0" arpskip="0" arp-enabled="0" arpmiss="0" arptime_syncmode="6" arprange="1" arpmode="0"/>
          <midiport inputcontroller="0" writable="0" readable="0" inputchannel="0" basevelocity="63" fixedinputvelocity="-1" outputcontroller="0" fixedoutputvelocity="-1" outputchannel="1" fixedoutputnote="-1" outputprogram="1"/>
          <fxchain enabled="1" numofeffects="1">
            <effect autoquit_syncmode="0" autoquit_denominator="4" on="0" autoquit="1" gate="0" autoquit_numerator="4" name="vsteffect" wet="1">
              <vsteffectcontrols param2="2:Predelay:0.5" param7="7:Level:0.5" plugin="Effects\Classic Reverb\Classic Reverb.dll" param0="0:Size:1" program="0" param3="3:Hi Damp:0.5" param4="4:Lo Cut:0.3" param6="6:Mix:0.38" param1="1:Damping:0.3" guivisible="0" numparams="8" param5="5:Early Ref.:0"/>
              <key>
                <attribute value="Effects\Classic Reverb\Classic Reverb.dll" name="file"/>
              </key>
            </effect>
          </fxchain>
        </instrumenttrack>
        <pattern pos="4032" steps="16" type="1" muted="0" name="">
          <note pos="0" len="96" vol="100" key="79" pan="0"/>
          <note pos="0" len="96" vol="100" key="76" pan="0"/>
          <note pos="0" len="96" vol="100" key="72" pan="0"/>
          <note pos="0" len="24" vol="100" key="48" pan="0"/>
          <note pos="24" len="12" vol="100" key="43" pan="0"/>
          <note pos="36" len="12" vol="100" key="60" pan="0"/>
          <note pos="60" len="12" vol="100" key="48" pan="0"/>
          <note pos="72" len="12" vol="100" key="48" pan="0"/>
          <note pos="84" len="12" vol="100" key="48" pan="0"/>
          <note pos="96" len="96" vol="100" key="81" pan="0"/>
          <note pos="96" len="96" vol="100" key="78" pan="0"/>
          <note pos="96" len="96" vol="100" key="74" pan="0"/>
          <note pos="96" len="12" vol="100" key="50" pan="0"/>
          <note pos="120" len="12" vol="100" key="48" pan="0"/>
          <note pos="144" len="12" vol="100" key="50" pan="0"/>
          <note pos="168" len="12" vol="100" key="45" pan="0"/>
          <note pos="192" len="96" vol="100" key="78" pan="0"/>
          <note pos="192" len="96" vol="100" key="74" pan="0"/>
          <note pos="192" len="96" vol="100" key="71" pan="0"/>
          <note pos="192" len="24" vol="100" key="47" pan="0"/>
          <note pos="216" len="12" vol="100" key="42" pan="0"/>
          <note pos="228" len="12" vol="100" key="54" pan="0"/>
          <note pos="252" len="12" vol="100" key="47" pan="0"/>
          <note pos="264" len="12" vol="100" key="47" pan="0"/>
          <note pos="276" len="12" vol="100" key="47" pan="0"/>
          <note pos="288" len="96" vol="100" key="79" pan="0"/>
          <note pos="288" len="96" vol="100" key="76" pan="0"/>
          <note pos="288" len="96" vol="100" key="72" pan="0"/>
          <note pos="288" len="12" vol="100" key="48" pan="0"/>
          <note pos="312" len="12" vol="100" key="47" pan="0"/>
          <note pos="336" len="12" vol="100" key="48" pan="0"/>
          <note pos="360" len="12" vol="100" key="43" pan="0"/>
          <note pos="384" len="96" vol="100" key="79" pan="0"/>
          <note pos="384" len="96" vol="100" key="76" pan="0"/>
          <note pos="384" len="96" vol="100" key="72" pan="0"/>
          <note pos="384" len="24" vol="100" key="48" pan="0"/>
          <note pos="408" len="12" vol="100" key="43" pan="0"/>
          <note pos="420" len="12" vol="100" key="60" pan="0"/>
          <note pos="444" len="12" vol="100" key="48" pan="0"/>
          <note pos="456" len="12" vol="100" key="48" pan="0"/>
          <note pos="468" len="12" vol="100" key="48" pan="0"/>
          <note pos="480" len="96" vol="100" key="81" pan="0"/>
          <note pos="480" len="96" vol="100" key="78" pan="0"/>
          <note pos="480" len="96" vol="100" key="74" pan="0"/>
          <note pos="480" len="12" vol="100" key="50" pan="0"/>
          <note pos="504" len="12" vol="100" key="48" pan="0"/>
          <note pos="528" len="12" vol="100" key="50" pan="0"/>
          <note pos="552" len="12" vol="100" key="45" pan="0"/>
          <note pos="576" len="96" vol="100" key="78" pan="0"/>
          <note pos="576" len="96" vol="100" key="74" pan="0"/>
          <note pos="576" len="96" vol="100" key="71" pan="0"/>
          <note pos="576" len="24" vol="100" key="47" pan="0"/>
          <note pos="600" len="12" vol="100" key="42" pan="0"/>
          <note pos="612" len="12" vol="100" key="54" pan="0"/>
          <note pos="636" len="12" vol="100" key="47" pan="0"/>
          <note pos="648" len="12" vol="100" key="47" pan="0"/>
          <note pos="660" len="12" vol="100" key="47" pan="0"/>
          <note pos="672" len="96" vol="100" key="76" pan="0"/>
          <note pos="672" len="96" vol="100" key="73" pan="0"/>
          <note pos="672" len="96" vol="100" key="69" pan="0"/>
          <note pos="672" len="12" vol="100" key="45" pan="0"/>
          <note pos="684" len="12" vol="100" key="45" pan="0"/>
          <note pos="696" len="12" vol="100" key="45" pan="0"/>
          <note pos="708" len="12" vol="100" key="57" pan="0"/>
          <note pos="732" len="12" vol="100" key="45" pan="0"/>
          <note pos="744" len="12" vol="100" key="45" pan="0"/>
          <note pos="768" len="192" vol="100" key="76" pan="0"/>
          <note pos="768" len="192" vol="100" key="71" pan="0"/>
          <note pos="768" len="192" vol="100" key="67" pan="0"/>
          <note pos="768" len="36" vol="100" key="40" pan="0"/>
          <note pos="804" len="36" vol="100" key="52" pan="0"/>
          <note pos="840" len="24" vol="100" key="40" pan="0"/>
          <note pos="864" len="36" vol="100" key="50" pan="0"/>
          <note pos="900" len="36" vol="100" key="52" pan="0"/>
          <note pos="936" len="24" vol="100" key="40" pan="0"/>
          <note pos="960" len="192" vol="100" key="74" pan="0"/>
          <note pos="960" len="192" vol="100" key="71" pan="0"/>
          <note pos="960" len="192" vol="100" key="67" pan="0"/>
          <note pos="960" len="36" vol="100" key="38" pan="0"/>
          <note pos="996" len="36" vol="100" key="50" pan="0"/>
          <note pos="1032" len="24" vol="100" key="38" pan="0"/>
          <note pos="1056" len="36" vol="100" key="47" pan="0"/>
          <note pos="1092" len="36" vol="100" key="50" pan="0"/>
          <note pos="1128" len="24" vol="100" key="38" pan="0"/>
          <note pos="1152" len="192" vol="100" key="72" pan="0"/>
          <note pos="1152" len="192" vol="100" key="67" pan="0"/>
          <note pos="1152" len="192" vol="100" key="64" pan="0"/>
          <note pos="1152" len="36" vol="100" key="48" pan="0"/>
          <note pos="1188" len="36" vol="100" key="60" pan="0"/>
          <note pos="1224" len="24" vol="100" key="48" pan="0"/>
          <note pos="1248" len="36" vol="100" key="55" pan="0"/>
          <note pos="1284" len="36" vol="100" key="60" pan="0"/>
          <note pos="1320" len="24" vol="100" key="48" pan="0"/>
          <note pos="1344" len="96" vol="100" key="75" pan="0"/>
          <note pos="1344" len="96" vol="100" key="71" pan="0"/>
          <note pos="1344" len="96" vol="100" key="66" pan="0"/>
          <note pos="1344" len="36" vol="100" key="47" pan="0"/>
          <note pos="1380" len="36" vol="100" key="59" pan="0"/>
          <note pos="1416" len="24" vol="100" key="47" pan="0"/>
          <note pos="1440" len="36" vol="100" key="75" pan="0"/>
          <note pos="1440" len="36" vol="100" key="71" pan="0"/>
          <note pos="1440" len="36" vol="100" key="66" pan="0"/>
          <note pos="1440" len="36" vol="100" key="54" pan="0"/>
          <note pos="1476" len="36" vol="100" key="76" pan="0"/>
          <note pos="1476" len="36" vol="100" key="72" pan="0"/>
          <note pos="1476" len="36" vol="100" key="67" pan="0"/>
          <note pos="1476" len="36" vol="100" key="55" pan="0"/>
          <note pos="1512" len="24" vol="100" key="78" pan="0"/>
          <note pos="1512" len="24" vol="100" key="75" pan="0"/>
          <note pos="1512" len="24" vol="100" key="69" pan="0"/>
          <note pos="1512" len="24" vol="100" key="54" pan="0"/>
          <note pos="1536" len="192" vol="100" key="79" pan="0"/>
          <note pos="1536" len="192" vol="100" key="76" pan="0"/>
          <note pos="1536" len="192" vol="100" key="71" pan="0"/>
          <note pos="1536" len="36" vol="100" key="40" pan="0"/>
          <note pos="1572" len="36" vol="100" key="52" pan="0"/>
          <note pos="1608" len="24" vol="100" key="40" pan="0"/>
          <note pos="1632" len="36" vol="100" key="50" pan="0"/>
          <note pos="1668" len="36" vol="100" key="52" pan="0"/>
          <note pos="1704" len="24" vol="100" key="40" pan="0"/>
          <note pos="1728" len="192" vol="100" key="79" pan="0"/>
          <note pos="1728" len="192" vol="100" key="74" pan="0"/>
          <note pos="1728" len="192" vol="100" key="71" pan="0"/>
          <note pos="1728" len="36" vol="100" key="38" pan="0"/>
          <note pos="1764" len="36" vol="100" key="50" pan="0"/>
          <note pos="1800" len="24" vol="100" key="38" pan="0"/>
          <note pos="1824" len="36" vol="100" key="47" pan="0"/>
          <note pos="1860" len="36" vol="100" key="50" pan="0"/>
          <note pos="1896" len="24" vol="100" key="38" pan="0"/>
          <note pos="1920" len="192" vol="100" key="76" pan="0"/>
          <note pos="1920" len="192" vol="100" key="72" pan="0"/>
          <note pos="1920" len="192" vol="100" key="67" pan="0"/>
          <note pos="1920" len="36" vol="100" key="48" pan="0"/>
          <note pos="1956" len="36" vol="100" key="60" pan="0"/>
          <note pos="1992" len="24" vol="100" key="48" pan="0"/>
          <note pos="2016" len="36" vol="100" key="55" pan="0"/>
          <note pos="2052" len="36" vol="100" key="60" pan="0"/>
          <note pos="2088" len="24" vol="100" key="48" pan="0"/>
          <note pos="2112" len="96" vol="100" key="78" pan="0"/>
          <note pos="2112" len="96" vol="100" key="75" pan="0"/>
          <note pos="2112" len="96" vol="100" key="71" pan="0"/>
          <note pos="2112" len="36" vol="100" key="47" pan="0"/>
          <note pos="2148" len="36" vol="100" key="59" pan="0"/>
          <note pos="2184" len="24" vol="100" key="47" pan="0"/>
          <note pos="2208" len="36" vol="100" key="78" pan="0"/>
          <note pos="2208" len="36" vol="100" key="75" pan="0"/>
          <note pos="2208" len="36" vol="100" key="71" pan="0"/>
          <note pos="2208" len="36" vol="100" key="54" pan="0"/>
          <note pos="2244" len="36" vol="100" key="76" pan="0"/>
          <note pos="2244" len="36" vol="100" key="72" pan="0"/>
          <note pos="2244" len="36" vol="100" key="67" pan="0"/>
          <note pos="2244" len="36" vol="100" key="55" pan="0"/>
          <note pos="2280" len="24" vol="100" key="75" pan="0"/>
          <note pos="2280" len="24" vol="100" key="71" pan="0"/>
          <note pos="2280" len="24" vol="100" key="66" pan="0"/>
          <note pos="2280" len="24" vol="100" key="54" pan="0"/>
          <note pos="2304" len="768" vol="100" key="76" pan="0"/>
          <note pos="2304" len="768" vol="100" key="71" pan="0"/>
          <note pos="2304" len="768" vol="100" key="67" pan="0"/>
          <note pos="2304" len="36" vol="100" key="40" pan="0"/>
          <note pos="2340" len="36" vol="100" key="52" pan="0"/>
          <note pos="2376" len="24" vol="100" key="40" pan="0"/>
          <note pos="2400" len="36" vol="100" key="50" pan="0"/>
          <note pos="2436" len="36" vol="100" key="52" pan="0"/>
          <note pos="2472" len="24" vol="100" key="40" pan="0"/>
          <note pos="2496" len="36" vol="100" key="40" pan="0"/>
          <note pos="2532" len="36" vol="100" key="52" pan="0"/>
          <note pos="2568" len="24" vol="100" key="40" pan="0"/>
          <note pos="2592" len="36" vol="100" key="50" pan="0"/>
          <note pos="2628" len="36" vol="100" key="52" pan="0"/>
          <note pos="2664" len="24" vol="100" key="40" pan="0"/>
          <note pos="2688" len="36" vol="100" key="40" pan="0"/>
          <note pos="2724" len="36" vol="100" key="52" pan="0"/>
          <note pos="2760" len="24" vol="100" key="40" pan="0"/>
          <note pos="2784" len="36" vol="100" key="50" pan="0"/>
          <note pos="2820" len="36" vol="100" key="52" pan="0"/>
          <note pos="2856" len="24" vol="100" key="40" pan="0"/>
          <note pos="2880" len="36" vol="100" key="40" pan="0"/>
          <note pos="2916" len="36" vol="100" key="52" pan="0"/>
          <note pos="2952" len="24" vol="100" key="40" pan="0"/>
          <note pos="2976" len="36" vol="100" key="50" pan="0"/>
          <note pos="3012" len="36" vol="100" key="52" pan="0"/>
          <note pos="3048" len="24" vol="100" key="40" pan="0"/>
        </pattern>
        <pattern pos="8448" steps="16" type="1" muted="0" name="">
          <note pos="0" len="192" vol="100" key="66" pan="0"/>
          <note pos="0" len="192" vol="100" key="63" pan="0"/>
          <note pos="0" len="192" vol="100" key="59" pan="0"/>
          <note pos="192" len="60" vol="100" key="79" pan="0"/>
          <note pos="192" len="60" vol="100" key="76" pan="0"/>
          <note pos="192" len="60" vol="100" key="72" pan="0"/>
          <note pos="192" len="24" vol="100" key="48" pan="0"/>
          <note pos="216" len="12" vol="100" key="43" pan="0"/>
          <note pos="228" len="12" vol="100" key="60" pan="0"/>
          <note pos="252" len="36" vol="100" key="76" pan="0"/>
          <note pos="252" len="36" vol="100" key="72" pan="0"/>
          <note pos="252" len="36" vol="100" key="67" pan="0"/>
          <note pos="252" len="12" vol="100" key="48" pan="0"/>
          <note pos="264" len="12" vol="100" key="48" pan="0"/>
          <note pos="276" len="12" vol="100" key="48" pan="0"/>
          <note pos="288" len="48" vol="100" key="81" pan="0"/>
          <note pos="288" len="48" vol="100" key="78" pan="0"/>
          <note pos="288" len="48" vol="100" key="74" pan="0"/>
          <note pos="288" len="12" vol="100" key="50" pan="0"/>
          <note pos="312" len="12" vol="100" key="48" pan="0"/>
          <note pos="336" len="48" vol="100" key="78" pan="0"/>
          <note pos="336" len="48" vol="100" key="74" pan="0"/>
          <note pos="336" len="48" vol="100" key="69" pan="0"/>
          <note pos="336" len="12" vol="100" key="50" pan="0"/>
          <note pos="360" len="12" vol="100" key="45" pan="0"/>
          <note pos="384" len="60" vol="100" key="78" pan="0"/>
          <note pos="384" len="60" vol="100" key="74" pan="0"/>
          <note pos="384" len="60" vol="100" key="71" pan="0"/>
          <note pos="384" len="24" vol="100" key="47" pan="0"/>
          <note pos="408" len="12" vol="100" key="42" pan="0"/>
          <note pos="420" len="12" vol="100" key="54" pan="0"/>
          <note pos="444" len="36" vol="100" key="74" pan="0"/>
          <note pos="444" len="36" vol="100" key="71" pan="0"/>
          <note pos="444" len="36" vol="100" key="66" pan="0"/>
          <note pos="444" len="12" vol="100" key="47" pan="0"/>
          <note pos="456" len="12" vol="100" key="47" pan="0"/>
          <note pos="468" len="12" vol="100" key="47" pan="0"/>
          <note pos="480" len="96" vol="100" key="79" pan="0"/>
          <note pos="480" len="96" vol="100" key="76" pan="0"/>
          <note pos="480" len="96" vol="100" key="72" pan="0"/>
          <note pos="480" len="12" vol="100" key="48" pan="0"/>
          <note pos="504" len="12" vol="100" key="47" pan="0"/>
          <note pos="528" len="12" vol="100" key="48" pan="0"/>
          <note pos="552" len="12" vol="100" key="43" pan="0"/>
          <note pos="576" len="60" vol="100" key="79" pan="0"/>
          <note pos="576" len="60" vol="100" key="76" pan="0"/>
          <note pos="576" len="60" vol="100" key="72" pan="0"/>
          <note pos="576" len="24" vol="100" key="48" pan="0"/>
          <note pos="600" len="12" vol="100" key="43" pan="0"/>
          <note pos="612" len="12" vol="100" key="60" pan="0"/>
          <note pos="636" len="36" vol="100" key="76" pan="0"/>
          <note pos="636" len="36" vol="100" key="72" pan="0"/>
          <note pos="636" len="36" vol="100" key="67" pan="0"/>
          <note pos="636" len="12" vol="100" key="48" pan="0"/>
          <note pos="648" len="12" vol="100" key="48" pan="0"/>
          <note pos="660" len="12" vol="100" key="48" pan="0"/>
          <note pos="672" len="48" vol="100" key="81" pan="0"/>
          <note pos="672" len="48" vol="100" key="78" pan="0"/>
          <note pos="672" len="48" vol="100" key="74" pan="0"/>
          <note pos="672" len="12" vol="100" key="50" pan="0"/>
          <note pos="696" len="12" vol="100" key="48" pan="0"/>
          <note pos="720" len="48" vol="100" key="78" pan="0"/>
          <note pos="720" len="48" vol="100" key="74" pan="0"/>
          <note pos="720" len="48" vol="100" key="69" pan="0"/>
          <note pos="720" len="12" vol="100" key="50" pan="0"/>
          <note pos="744" len="12" vol="100" key="45" pan="0"/>
          <note pos="768" len="60" vol="100" key="78" pan="0"/>
          <note pos="768" len="60" vol="100" key="74" pan="0"/>
          <note pos="768" len="60" vol="100" key="71" pan="0"/>
          <note pos="768" len="24" vol="100" key="47" pan="0"/>
          <note pos="792" len="12" vol="100" key="42" pan="0"/>
          <note pos="804" len="12" vol="100" key="54" pan="0"/>
          <note pos="828" len="36" vol="100" key="74" pan="0"/>
          <note pos="828" len="36" vol="100" key="71" pan="0"/>
          <note pos="828" len="36" vol="100" key="66" pan="0"/>
          <note pos="828" len="12" vol="100" key="47" pan="0"/>
          <note pos="840" len="12" vol="100" key="47" pan="0"/>
          <note pos="852" len="12" vol="100" key="47" pan="0"/>
          <note pos="864" len="96" vol="100" key="76" pan="0"/>
          <note pos="864" len="96" vol="100" key="73" pan="0"/>
          <note pos="864" len="96" vol="100" key="69" pan="0"/>
          <note pos="864" len="12" vol="100" key="45" pan="0"/>
          <note pos="876" len="12" vol="100" key="45" pan="0"/>
          <note pos="888" len="12" vol="100" key="45" pan="0"/>
          <note pos="900" len="12" vol="100" key="57" pan="0"/>
          <note pos="924" len="12" vol="100" key="45" pan="0"/>
          <note pos="936" len="12" vol="100" key="45" pan="0"/>
          <note pos="960" len="36" vol="100" key="79" pan="0"/>
          <note pos="960" len="36" vol="100" key="76" pan="0"/>
          <note pos="960" len="36" vol="100" key="71" pan="0"/>
          <note pos="960" len="24" vol="100" key="47" pan="0"/>
          <note pos="984" len="12" vol="100" key="47" pan="0"/>
          <note pos="996" len="36" vol="100" key="76" pan="0"/>
          <note pos="996" len="36" vol="100" key="71" pan="0"/>
          <note pos="996" len="36" vol="100" key="67" pan="0"/>
          <note pos="996" len="12" vol="100" key="47" pan="0"/>
          <note pos="1020" len="12" vol="100" key="47" pan="0"/>
          <note pos="1032" len="24" vol="100" key="79" pan="0"/>
          <note pos="1032" len="24" vol="100" key="76" pan="0"/>
          <note pos="1032" len="24" vol="100" key="71" pan="0"/>
          <note pos="1032" len="12" vol="100" key="47" pan="0"/>
          <note pos="1044" len="12" vol="100" key="47" pan="0"/>
          <note pos="1056" len="48" vol="100" key="78" pan="0"/>
          <note pos="1056" len="48" vol="100" key="74" pan="0"/>
          <note pos="1056" len="48" vol="100" key="69" pan="0"/>
          <note pos="1056" len="12" vol="100" key="45" pan="0"/>
          <note pos="1080" len="12" vol="100" key="50" pan="0"/>
          <note pos="1104" len="48" vol="100" key="74" pan="0"/>
          <note pos="1104" len="48" vol="100" key="69" pan="0"/>
          <note pos="1104" len="48" vol="100" key="66" pan="0"/>
          <note pos="1104" len="12" vol="100" key="45" pan="0"/>
          <note pos="1128" len="12" vol="100" key="42" pan="0"/>
          <note pos="1152" len="96" vol="100" key="76" pan="0"/>
          <note pos="1152" len="96" vol="100" key="72" pan="0"/>
          <note pos="1152" len="96" vol="100" key="67" pan="0"/>
          <note pos="1152" len="24" vol="100" key="43" pan="0"/>
          <note pos="1176" len="12" vol="100" key="40" pan="0"/>
          <note pos="1188" len="12" vol="100" key="36" pan="0"/>
          <note pos="1212" len="12" vol="100" key="43" pan="0"/>
          <note pos="1224" len="12" vol="100" key="40" pan="0"/>
          <note pos="1236" len="12" vol="100" key="36" pan="0"/>
          <note pos="1248" len="36" vol="100" key="79" pan="0"/>
          <note pos="1248" len="36" vol="100" key="76" pan="0"/>
          <note pos="1248" len="36" vol="100" key="71" pan="0"/>
          <note pos="1248" len="12" vol="100" key="47" pan="0"/>
          <note pos="1272" len="12" vol="100" key="47" pan="0"/>
          <note pos="1284" len="36" vol="100" key="78" pan="0"/>
          <note pos="1284" len="36" vol="100" key="74" pan="0"/>
          <note pos="1284" len="36" vol="100" key="69" pan="0"/>
          <note pos="1296" len="12" vol="100" key="45" pan="0"/>
          <note pos="1320" len="24" vol="100" key="76" pan="0"/>
          <note pos="1320" len="24" vol="100" key="72" pan="0"/>
          <note pos="1320" len="24" vol="100" key="67" pan="0"/>
          <note pos="1320" len="12" vol="100" key="43" pan="0"/>
          <note pos="1344" len="36" vol="100" key="79" pan="0"/>
          <note pos="1344" len="36" vol="100" key="76" pan="0"/>
          <note pos="1344" len="36" vol="100" key="71" pan="0"/>
          <note pos="1344" len="24" vol="100" key="52" pan="0"/>
          <note pos="1368" len="12" vol="100" key="52" pan="0"/>
          <note pos="1380" len="36" vol="100" key="76" pan="0"/>
          <note pos="1380" len="36" vol="100" key="71" pan="0"/>
          <note pos="1380" len="36" vol="100" key="67" pan="0"/>
          <note pos="1380" len="12" vol="100" key="52" pan="0"/>
          <note pos="1404" len="12" vol="100" key="52" pan="0"/>
          <note pos="1416" len="24" vol="100" key="79" pan="0"/>
          <note pos="1416" len="24" vol="100" key="76" pan="0"/>
          <note pos="1416" len="24" vol="100" key="71" pan="0"/>
          <note pos="1416" len="12" vol="100" key="52" pan="0"/>
          <note pos="1428" len="12" vol="100" key="52" pan="0"/>
          <note pos="1440" len="48" vol="100" key="78" pan="0"/>
          <note pos="1440" len="48" vol="100" key="74" pan="0"/>
          <note pos="1440" len="48" vol="100" key="69" pan="0"/>
          <note pos="1440" len="12" vol="100" key="50" pan="0"/>
          <note pos="1464" len="12" vol="100" key="45" pan="0"/>
          <note pos="1488" len="48" vol="100" key="74" pan="0"/>
          <note pos="1488" len="48" vol="100" key="69" pan="0"/>
          <note pos="1488" len="48" vol="100" key="66" pan="0"/>
          <note pos="1488" len="12" vol="100" key="42" pan="0"/>
          <note pos="1512" len="12" vol="100" key="50" pan="0"/>
          <note pos="1536" len="96" vol="100" key="76" pan="0"/>
          <note pos="1536" len="96" vol="100" key="72" pan="0"/>
          <note pos="1536" len="96" vol="100" key="67" pan="0"/>
          <note pos="1536" len="24" vol="100" key="48" pan="0"/>
          <note pos="1560" len="12" vol="100" key="43" pan="0"/>
          <note pos="1572" len="12" vol="100" key="40" pan="0"/>
          <note pos="1596" len="12" vol="100" key="48" pan="0"/>
          <note pos="1608" len="12" vol="100" key="43" pan="0"/>
          <note pos="1620" len="12" vol="100" key="40" pan="0"/>
          <note pos="1632" len="36" vol="100" key="76" pan="0"/>
          <note pos="1632" len="36" vol="100" key="72" pan="0"/>
          <note pos="1632" len="36" vol="100" key="67" pan="0"/>
          <note pos="1632" len="12" vol="100" key="48" pan="0"/>
          <note pos="1656" len="12" vol="100" key="48" pan="0"/>
          <note pos="1668" len="36" vol="100" key="78" pan="0"/>
          <note pos="1668" len="36" vol="100" key="74" pan="0"/>
          <note pos="1668" len="36" vol="100" key="69" pan="0"/>
          <note pos="1680" len="12" vol="100" key="50" pan="0"/>
          <note pos="1704" len="24" vol="100" key="79" pan="0"/>
          <note pos="1704" len="24" vol="100" key="76" pan="0"/>
          <note pos="1704" len="24" vol="100" key="71" pan="0"/>
          <note pos="1704" len="12" vol="100" key="52" pan="0"/>
          <note pos="1728" len="36" vol="100" key="79" pan="0"/>
          <note pos="1728" len="36" vol="100" key="76" pan="0"/>
          <note pos="1728" len="36" vol="100" key="71" pan="0"/>
          <note pos="1728" len="24" vol="100" key="52" pan="0"/>
          <note pos="1752" len="12" vol="100" key="52" pan="0"/>
          <note pos="1764" len="36" vol="100" key="76" pan="0"/>
          <note pos="1764" len="36" vol="100" key="71" pan="0"/>
          <note pos="1764" len="36" vol="100" key="67" pan="0"/>
          <note pos="1764" len="12" vol="100" key="52" pan="0"/>
          <note pos="1788" len="12" vol="100" key="52" pan="0"/>
          <note pos="1800" len="24" vol="100" key="79" pan="0"/>
          <note pos="1800" len="24" vol="100" key="76" pan="0"/>
          <note pos="1800" len="24" vol="100" key="71" pan="0"/>
          <note pos="1800" len="12" vol="100" key="52" pan="0"/>
          <note pos="1812" len="12" vol="100" key="52" pan="0"/>
          <note pos="1824" len="48" vol="100" key="78" pan="0"/>
          <note pos="1824" len="48" vol="100" key="74" pan="0"/>
          <note pos="1824" len="48" vol="100" key="69" pan="0"/>
          <note pos="1824" len="12" vol="100" key="50" pan="0"/>
          <note pos="1848" len="12" vol="100" key="45" pan="0"/>
          <note pos="1872" len="48" vol="100" key="74" pan="0"/>
          <note pos="1872" len="48" vol="100" key="69" pan="0"/>
          <note pos="1872" len="48" vol="100" key="66" pan="0"/>
          <note pos="1872" len="12" vol="100" key="42" pan="0"/>
          <note pos="1896" len="12" vol="100" key="50" pan="0"/>
          <note pos="1920" len="96" vol="100" key="76" pan="0"/>
          <note pos="1920" len="96" vol="100" key="72" pan="0"/>
          <note pos="1920" len="96" vol="100" key="67" pan="0"/>
          <note pos="1920" len="24" vol="100" key="43" pan="0"/>
          <note pos="1944" len="12" vol="100" key="40" pan="0"/>
          <note pos="1956" len="12" vol="100" key="36" pan="0"/>
          <note pos="1980" len="12" vol="100" key="43" pan="0"/>
          <note pos="1992" len="12" vol="100" key="40" pan="0"/>
          <note pos="2004" len="12" vol="100" key="36" pan="0"/>
          <note pos="2016" len="36" vol="100" key="79" pan="0"/>
          <note pos="2016" len="36" vol="100" key="76" pan="0"/>
          <note pos="2016" len="36" vol="100" key="71" pan="0"/>
          <note pos="2016" len="12" vol="100" key="47" pan="0"/>
          <note pos="2040" len="12" vol="100" key="47" pan="0"/>
          <note pos="2052" len="36" vol="100" key="78" pan="0"/>
          <note pos="2052" len="36" vol="100" key="74" pan="0"/>
          <note pos="2052" len="36" vol="100" key="69" pan="0"/>
          <note pos="2064" len="12" vol="100" key="45" pan="0"/>
          <note pos="2088" len="24" vol="100" key="76" pan="0"/>
          <note pos="2088" len="24" vol="100" key="72" pan="0"/>
          <note pos="2088" len="24" vol="100" key="67" pan="0"/>
          <note pos="2088" len="12" vol="100" key="43" pan="0"/>
          <note pos="2112" len="36" vol="100" key="79" pan="0"/>
          <note pos="2112" len="36" vol="100" key="76" pan="0"/>
          <note pos="2112" len="36" vol="100" key="72" pan="0"/>
          <note pos="2112" len="24" vol="100" key="43" pan="0"/>
          <note pos="2136" len="12" vol="100" key="43" pan="0"/>
          <note pos="2148" len="36" vol="100" key="76" pan="0"/>
          <note pos="2148" len="36" vol="100" key="72" pan="0"/>
          <note pos="2148" len="36" vol="100" key="67" pan="0"/>
          <note pos="2148" len="12" vol="100" key="43" pan="0"/>
          <note pos="2172" len="12" vol="100" key="43" pan="0"/>
          <note pos="2184" len="24" vol="100" key="79" pan="0"/>
          <note pos="2184" len="24" vol="100" key="76" pan="0"/>
          <note pos="2184" len="24" vol="100" key="72" pan="0"/>
          <note pos="2184" len="12" vol="100" key="48" pan="0"/>
          <note pos="2196" len="12" vol="100" key="43" pan="0"/>
          <note pos="2208" len="36" vol="100" key="78" pan="0"/>
          <note pos="2208" len="36" vol="100" key="74" pan="0"/>
          <note pos="2208" len="36" vol="100" key="71" pan="0"/>
          <note pos="2208" len="12" vol="100" key="47" pan="0"/>
          <note pos="2232" len="12" vol="100" key="50" pan="0"/>
          <note pos="2244" len="36" vol="100" key="74" pan="0"/>
          <note pos="2244" len="36" vol="100" key="71" pan="0"/>
          <note pos="2244" len="36" vol="100" key="66" pan="0"/>
          <note pos="2256" len="12" vol="100" key="47" pan="0"/>
          <note pos="2280" len="24" vol="100" key="78" pan="0"/>
          <note pos="2280" len="24" vol="100" key="74" pan="0"/>
          <note pos="2280" len="24" vol="100" key="71" pan="0"/>
          <note pos="2280" len="12" vol="100" key="42" pan="0"/>
          <note pos="2304" len="384" vol="100" key="76" pan="0"/>
          <note pos="2304" len="384" vol="100" key="73" pan="0"/>
          <note pos="2304" len="384" vol="100" key="69" pan="0"/>
          <note pos="2304" len="24" vol="100" key="45" pan="0"/>
          <note pos="2328" len="12" vol="100" key="40" pan="0"/>
          <note pos="2340" len="12" vol="100" key="40" pan="0"/>
          <note pos="2364" len="12" vol="100" key="45" pan="0"/>
          <note pos="2376" len="12" vol="100" key="40" pan="0"/>
          <note pos="2388" len="12" vol="100" key="40" pan="0"/>
          <note pos="2400" len="288" vol="100" key="45" pan="0"/>
        </pattern>
      </track>
    </trackcontainer>
    <track type="6" muted="0" name="Automation track" mutedBeforeSolo="0" solo="0">
      <automationtrack/>
      <automationpattern pos="0" tens="1" mute="0" prog="0" len="192" name="Numerator"/>
      <automationpattern pos="0" tens="1" mute="0" prog="0" len="192" name="Denominator"/>
      <automationpattern pos="0" tens="1" mute="0" prog="0" len="192" name="Tempo"/>
      <automationpattern pos="0" tens="1" mute="0" prog="0" len="192" name="Master volume"/>
      <automationpattern pos="0" tens="1" mute="0" prog="0" len="192" name="Master pitch"/>
      <automationpattern pos="0" tens="1" mute="0" prog="0" len="192" name="Tempo">
        <time value="100" pos="0"/>
        <object id="17924"/>
      </automationpattern>
    </track>
    <fxmixer x="1" y="600" visible="1" minimized="0" height="333" width="1893" maximized="0">
      <fxchannel soloed="0" muted="0" name="Master" num="0" volume="1">
        <fxchain enabled="0" numofeffects="0"/>
      </fxchannel>
    </fxmixer>
    <ControllerRackView x="550" y="487" visible="0" minimized="0" height="200" width="350" maximized="0"/>
    <pianoroll x="239" y="165" visible="1" minimized="0" height="600" width="860" maximized="0"/>
    <automationeditor x="1" y="1" visible="0" minimized="0" height="400" width="860" maximized="0"/>
    <projectnotes x="700" y="10" visible="0" minimized="0" height="400" width="663" maximized="0"><![CDATA[<!DOCTYPE HTML PUBLIC "-//W3C//DTD HTML 4.0//EN" "http://www.w3.org/TR/REC-html40/strict.dtd">
<html><head><meta name="qrichtext" content="1" /><style type="text/css">
p, li { white-space: pre-wrap; }
</style></head><body style=" font-family:'MS Shell Dlg 2'; font-size:8.25pt; font-weight:400; font-style:normal;">
<p style=" margin-top:0px; margin-bottom:0px; margin-left:0px; margin-right:0px; -qt-block-indent:0; text-indent:0px;"><span style=" color:#e0e0e0;">&lt;&lt;&lt;&lt;&lt;&lt;</span></p></body></html>]]></projectnotes>
    <timeline stopbehaviour="1" lpstate="0" lp0pos="0" lp1pos="192"/>
    <controllers/>
  </song>
</lmms-project>
