<?xml version="1.0"?>
<!DOCTYPE lmms-project>
<lmms-project type="song" version="20" creatorversion="1.3.0-alpha.1.102+g89fc6c960" creator="LMMS">
  <head timesig_denominator="4" masterpitch="0" mastervol="100" timesig_numerator="4" bpm="100"/>
  <song>
    <trackcontainer type="song" maximized="0" y="6" x="14" visible="1" width="1277" height="480" minimized="0">
      <track type="0" name="Lead" solo="0" mutedBeforeSolo="0" muted="0">
        <instrumenttrack usemasterpitch="1" enablecc="0" pitch="0" fxch="1" firstkey="0" pitchrange="2" lastkey="127" pan="0" basenote="69">
          <vol scale_type="linear" value="100" id="12147"/>
          <midicontrollers cc30="0" cc106="0" cc11="0" cc111="0" cc79="0" cc86="0" cc94="0" cc41="0" cc105="0" cc48="0" cc38="0" cc72="0" cc44="0" cc4="0" cc28="0" cc102="0" cc113="0" cc7="0" cc84="0" cc99="0" cc29="0" cc123="0" cc55="0" cc40="0" cc20="0" cc65="0" cc82="0" cc0="0" cc92="0" cc10="0" cc45="0" cc59="0" cc81="0" cc103="0" cc112="0" cc63="0" cc124="0" cc22="0" cc21="0" cc9="0" cc116="0" cc47="0" cc49="0" cc119="0" cc97="0" cc117="0" cc80="0" cc76="0" cc126="0" cc93="0" cc90="0" cc54="0" cc89="0" cc120="0" cc34="0" cc32="0" cc3="0" cc71="0" cc35="0" cc16="0" cc73="0" cc53="0" cc70="0" cc37="0" cc14="0" cc25="0" cc110="0" cc51="0" cc98="0" cc50="0" cc42="0" cc91="0" cc95="0" cc77="0" cc96="0" cc100="0" cc43="0" cc23="0" cc78="0" cc57="0" cc125="0" cc36="0" cc6="0" cc62="0" cc24="0" cc61="0" cc68="0" cc108="0" cc19="0" cc58="0" cc52="0" cc87="0" cc12="0" cc122="0" cc83="0" cc121="0" cc13="0" cc74="0" cc115="0" cc31="0" cc101="0" cc107="0" cc114="0" cc64="0" cc26="0" cc15="0" cc69="0" cc118="0" cc5="0" cc17="0" cc2="0" cc104="0" cc109="0" cc60="0" cc75="0" cc67="0" cc127="0" cc66="0" cc33="0" cc85="0" cc39="0" cc18="0" cc8="0" cc46="0" cc1="0" cc27="0" cc56="0" cc88="0"/>
          <instrument name="sf2player">
            <sf2player reverbWidth="0.5" chorusSpeed="0.3" patch="70" chorusDepth="8" bank="0" chorusLevel="2" reverbOn="0" reverbDamping="0" chorusNum="3" src="usersoundfont:GenesiSF.SF2" chorusOn="0" gain="1" reverbRoomSize="0.2" reverbLevel="0.9">
              <key/>
            </sf2player>
          </instrument>
          <eldata ftype="0" fres="0.5" fwet="0" fcut="14000">
            <elvol pdel="0" rel="0.1" latt="0" lshp="0" ctlenvamt="0" x100="0" lamt="0" userwavefile="" sustain="0.5" att="0" lpdel="0" amt="0" lspd_syncmode="0" hold="0.5" lspd="0.1" lspd_denominator="4" lspd_numerator="4" dec="0.5"/>
            <elcut pdel="0" rel="0.1" latt="0" lshp="0" ctlenvamt="0" x100="0" lamt="0" userwavefile="" sustain="0.5" att="0" lpdel="0" amt="0" lspd_syncmode="0" hold="0.5" lspd="0.1" lspd_denominator="4" lspd_numerator="4" dec="0.5"/>
            <elres pdel="0" rel="0.1" latt="0" lshp="0" ctlenvamt="0" x100="0" lamt="0" userwavefile="" sustain="0.5" att="0" lpdel="0" amt="0" lspd_syncmode="0" hold="0.5" lspd="0.1" lspd_denominator="4" lspd_numerator="4" dec="0.5"/>
          </eldata>
          <chordcreator chordrange="1" chord-enabled="0" chord="0"/>
          <arpeggiator arprepeats="1" arprange="1" arpdir="0" arp="0" arpmiss="0" arpskip="0" arpgate="100" arpcycle="0" arptime_denominator="4" arpmode="0" arp-enabled="0" arptime_syncmode="0" arptime="200" arptime_numerator="4"/>
          <midiport inputcontroller="0" basevelocity="63" writable="0" outputcontroller="0" fixedoutputnote="-1" readable="0" fixedinputvelocity="-1" outputprogram="1" inputchannel="0" fixedoutputvelocity="-1" outputchannel="1"/>
          <fxchain enabled="0" numofeffects="0"/>
        </instrumenttrack>
        <pattern type="1" name="" pos="1536" steps="16" muted="0">
          <note key="67" len="36" pos="0" vol="100" pan="0"/>
          <note key="67" len="60" pos="36" vol="100" pan="0"/>
          <note key="66" len="36" pos="96" vol="100" pan="0"/>
          <note key="67" len="36" pos="132" vol="100" pan="0"/>
          <note key="66" len="24" pos="168" vol="100" pan="0"/>
          <note key="66" len="96" pos="192" vol="100" pan="0"/>
          <note key="64" len="96" pos="288" vol="100" pan="0"/>
          <note key="67" len="36" pos="384" vol="100" pan="0"/>
          <note key="67" len="60" pos="420" vol="100" pan="0"/>
          <note key="69" len="36" pos="480" vol="100" pan="0"/>
          <note key="67" len="36" pos="516" vol="100" pan="0"/>
          <note key="69" len="24" pos="552" vol="100" pan="0"/>
          <note key="66" len="96" pos="576" vol="100" pan="0"/>
          <note key="64" len="96" pos="672" vol="100" pan="0"/>
          <note key="59" len="36" pos="768" vol="100" pan="0"/>
          <note key="64" len="36" pos="804" vol="100" pan="0"/>
          <note key="67" len="24" pos="840" vol="100" pan="0"/>
          <note key="66" len="36" pos="864" vol="100" pan="0"/>
          <note key="64" len="36" pos="900" vol="100" pan="0"/>
          <note key="66" len="24" pos="936" vol="100" pan="0"/>
          <note key="67" len="36" pos="960" vol="100" pan="0"/>
          <note key="66" len="36" pos="996" vol="100" pan="0"/>
          <note key="64" len="120" pos="1032" vol="100" pan="0"/>
          <note key="69" len="36" pos="1152" vol="100" pan="0"/>
          <note key="67" len="36" pos="1188" vol="100" pan="0"/>
          <note key="66" len="24" pos="1224" vol="100" pan="0"/>
          <note key="67" len="36" pos="1248" vol="100" pan="0"/>
          <note key="66" len="36" pos="1284" vol="100" pan="0"/>
          <note key="64" len="24" pos="1320" vol="100" pan="0"/>
          <note key="60" len="36" pos="1344" vol="100" pan="0"/>
          <note key="64" len="36" pos="1380" vol="100" pan="0"/>
          <note key="67" len="120" pos="1416" vol="100" pan="0"/>
          <note key="71" len="36" pos="1536" vol="100" pan="0"/>
          <note key="64" len="36" pos="1572" vol="100" pan="0"/>
          <note key="71" len="24" pos="1608" vol="100" pan="0"/>
          <note key="69" len="36" pos="1632" vol="100" pan="0"/>
          <note key="66" len="36" pos="1668" vol="100" pan="0"/>
          <note key="69" len="24" pos="1704" vol="100" pan="0"/>
          <note key="67" len="36" pos="1728" vol="100" pan="0"/>
          <note key="66" len="36" pos="1764" vol="100" pan="0"/>
          <note key="64" len="120" pos="1800" vol="100" pan="0"/>
          <note key="64" len="36" pos="1920" vol="100" pan="0"/>
          <note key="67" len="36" pos="1956" vol="100" pan="0"/>
          <note key="64" len="24" pos="1992" vol="100" pan="0"/>
          <note key="62" len="36" pos="2016" vol="100" pan="0"/>
          <note key="66" len="36" pos="2052" vol="100" pan="0"/>
          <note key="62" len="24" pos="2088" vol="100" pan="0"/>
          <note key="61" len="96" pos="2112" vol="100" pan="0"/>
          <note key="69" len="36" pos="2208" vol="100" pan="0"/>
          <note key="67" len="36" pos="2244" vol="100" pan="0"/>
          <note key="66" len="24" pos="2280" vol="100" pan="0"/>
          <note key="67" len="192" pos="2304" vol="100" pan="0"/>
        </pattern>
        <pattern type="1" name="" pos="8640" steps="16" muted="0">
          <note key="67" len="36" pos="0" vol="100" pan="0"/>
          <note key="67" len="60" pos="36" vol="100" pan="0"/>
          <note key="66" len="36" pos="96" vol="100" pan="0"/>
          <note key="67" len="36" pos="132" vol="100" pan="0"/>
          <note key="66" len="24" pos="168" vol="100" pan="0"/>
          <note key="66" len="96" pos="192" vol="100" pan="0"/>
          <note key="64" len="96" pos="288" vol="100" pan="0"/>
          <note key="67" len="36" pos="384" vol="100" pan="0"/>
          <note key="67" len="60" pos="420" vol="100" pan="0"/>
          <note key="69" len="36" pos="480" vol="100" pan="0"/>
          <note key="67" len="36" pos="516" vol="100" pan="0"/>
          <note key="69" len="24" pos="552" vol="100" pan="0"/>
          <note key="66" len="96" pos="576" vol="100" pan="0"/>
          <note key="64" len="96" pos="672" vol="100" pan="0"/>
          <note key="59" len="36" pos="768" vol="100" pan="0"/>
          <note key="64" len="36" pos="804" vol="100" pan="0"/>
          <note key="67" len="24" pos="840" vol="100" pan="0"/>
          <note key="66" len="36" pos="864" vol="100" pan="0"/>
          <note key="64" len="36" pos="900" vol="100" pan="0"/>
          <note key="66" len="24" pos="936" vol="100" pan="0"/>
          <note key="67" len="36" pos="960" vol="100" pan="0"/>
          <note key="66" len="36" pos="996" vol="100" pan="0"/>
          <note key="64" len="120" pos="1032" vol="100" pan="0"/>
          <note key="69" len="36" pos="1152" vol="100" pan="0"/>
          <note key="67" len="36" pos="1188" vol="100" pan="0"/>
          <note key="66" len="24" pos="1224" vol="100" pan="0"/>
          <note key="67" len="36" pos="1248" vol="100" pan="0"/>
          <note key="66" len="36" pos="1284" vol="100" pan="0"/>
          <note key="64" len="24" pos="1320" vol="100" pan="0"/>
          <note key="60" len="36" pos="1344" vol="100" pan="0"/>
          <note key="64" len="36" pos="1380" vol="100" pan="0"/>
          <note key="67" len="120" pos="1416" vol="100" pan="0"/>
          <note key="71" len="36" pos="1536" vol="100" pan="0"/>
          <note key="64" len="36" pos="1572" vol="100" pan="0"/>
          <note key="71" len="24" pos="1608" vol="100" pan="0"/>
          <note key="69" len="36" pos="1632" vol="100" pan="0"/>
          <note key="66" len="36" pos="1668" vol="100" pan="0"/>
          <note key="69" len="24" pos="1704" vol="100" pan="0"/>
          <note key="67" len="36" pos="1728" vol="100" pan="0"/>
          <note key="66" len="36" pos="1764" vol="100" pan="0"/>
          <note key="64" len="120" pos="1800" vol="100" pan="0"/>
          <note key="64" len="36" pos="1920" vol="100" pan="0"/>
          <note key="67" len="36" pos="1956" vol="100" pan="0"/>
          <note key="64" len="24" pos="1992" vol="100" pan="0"/>
          <note key="62" len="36" pos="2016" vol="100" pan="0"/>
          <note key="66" len="36" pos="2052" vol="100" pan="0"/>
          <note key="62" len="24" pos="2088" vol="100" pan="0"/>
          <note key="61" len="384" pos="2112" vol="100" pan="0"/>
        </pattern>
      </track>
      <track type="5" name="Lead Audio Control" solo="0" mutedBeforeSolo="0" muted="0">
        <automationtrack/>
        <automationpattern mute="0" name="Lead>Volume" pos="3840" len="192" prog="1" tens="1">
          <time value="100" pos="0" outValue="100"/>
          <time value="0" pos="192" outValue="0"/>
          <object id="12147"/>
        </automationpattern>
        <automationpattern mute="0" name="Lead>Volume" pos="0" len="192" prog="0" tens="1">
          <time value="100" pos="0" outValue="100"/>
          <object id="12147"/>
        </automationpattern>
        <automationpattern mute="0" name="Lead>Volume" pos="10752" len="384" prog="1" tens="1">
          <time value="100" pos="0" outValue="100"/>
          <time value="0" pos="384" outValue="0"/>
          <object id="12147"/>
        </automationpattern>
        <automationpattern mute="0" name="Lead>Volume" pos="8640" len="192" prog="0" tens="1">
          <time value="100" pos="0" outValue="100"/>
          <object id="12147"/>
        </automationpattern>
      </track>
      <track type="0" name="Bass" solo="0" mutedBeforeSolo="0" muted="0">
        <instrumenttrack usemasterpitch="1" enablecc="0" pitch="0" fxch="2" firstkey="0" pitchrange="2" lastkey="127" pan="0" basenote="69">
          <vol scale_type="linear" value="100" id="13952"/>
          <midicontrollers cc30="0" cc106="0" cc11="0" cc111="0" cc79="0" cc86="0" cc94="0" cc41="0" cc105="0" cc48="0" cc38="0" cc72="0" cc44="0" cc4="0" cc28="0" cc102="0" cc113="0" cc7="0" cc84="0" cc99="0" cc29="0" cc123="0" cc55="0" cc40="0" cc20="0" cc65="0" cc82="0" cc0="0" cc92="0" cc10="0" cc45="0" cc59="0" cc81="0" cc103="0" cc112="0" cc63="0" cc124="0" cc22="0" cc21="0" cc9="0" cc116="0" cc47="0" cc49="0" cc119="0" cc97="0" cc117="0" cc80="0" cc76="0" cc126="0" cc93="0" cc90="0" cc54="0" cc89="0" cc120="0" cc34="0" cc32="0" cc3="0" cc71="0" cc35="0" cc16="0" cc73="0" cc53="0" cc70="0" cc37="0" cc14="0" cc25="0" cc110="0" cc51="0" cc98="0" cc50="0" cc42="0" cc91="0" cc95="0" cc77="0" cc96="0" cc100="0" cc43="0" cc23="0" cc78="0" cc57="0" cc125="0" cc36="0" cc6="0" cc62="0" cc24="0" cc61="0" cc68="0" cc108="0" cc19="0" cc58="0" cc52="0" cc87="0" cc12="0" cc122="0" cc83="0" cc121="0" cc13="0" cc74="0" cc115="0" cc31="0" cc101="0" cc107="0" cc114="0" cc64="0" cc26="0" cc15="0" cc69="0" cc118="0" cc5="0" cc17="0" cc2="0" cc104="0" cc109="0" cc60="0" cc75="0" cc67="0" cc127="0" cc66="0" cc33="0" cc85="0" cc39="0" cc18="0" cc8="0" cc46="0" cc1="0" cc27="0" cc56="0" cc88="0"/>
          <instrument name="sf2player">
            <sf2player reverbWidth="0.5" chorusSpeed="0.3" patch="38" chorusDepth="8" bank="1" chorusLevel="2" reverbOn="0" reverbDamping="0" chorusNum="3" src="usersoundfont:GeneralUser GS v1.471.sf2" chorusOn="0" gain="1" reverbRoomSize="0.2" reverbLevel="0.9">
              <key/>
            </sf2player>
          </instrument>
          <eldata ftype="0" fres="0.5" fwet="0" fcut="14000">
            <elvol pdel="0" rel="0.1" latt="0" lshp="0" ctlenvamt="0" x100="0" lamt="0" userwavefile="" sustain="0.5" att="0" lpdel="0" amt="0" lspd_syncmode="0" hold="0.5" lspd="0.1" lspd_denominator="4" lspd_numerator="4" dec="0.5"/>
            <elcut pdel="0" rel="0.1" latt="0" lshp="0" ctlenvamt="0" x100="0" lamt="0" userwavefile="" sustain="0.5" att="0" lpdel="0" amt="0" lspd_syncmode="0" hold="0.5" lspd="0.1" lspd_denominator="4" lspd_numerator="4" dec="0.5"/>
            <elres pdel="0" rel="0.1" latt="0" lshp="0" ctlenvamt="0" x100="0" lamt="0" userwavefile="" sustain="0.5" att="0" lpdel="0" amt="0" lspd_syncmode="0" hold="0.5" lspd="0.1" lspd_denominator="4" lspd_numerator="4" dec="0.5"/>
          </eldata>
          <chordcreator chordrange="1" chord-enabled="0" chord="0"/>
          <arpeggiator arprepeats="1" arprange="1" arpdir="0" arp="0" arpmiss="0" arpskip="0" arpgate="100" arpcycle="0" arptime_denominator="4" arpmode="0" arp-enabled="0" arptime_syncmode="0" arptime="200" arptime_numerator="4"/>
          <midiport inputcontroller="0" basevelocity="63" writable="0" outputcontroller="0" fixedoutputnote="-1" readable="0" fixedinputvelocity="-1" outputprogram="1" inputchannel="0" fixedoutputvelocity="-1" outputchannel="1"/>
          <fxchain enabled="0" numofeffects="0"/>
        </instrumenttrack>
        <pattern type="1" name="" pos="0" steps="16" muted="0">
          <note key="28" len="36" pos="0" vol="100" pan="0"/>
          <note key="40" len="36" pos="36" vol="100" pan="0"/>
          <note key="28" len="24" pos="72" vol="100" pan="0"/>
          <note key="38" len="36" pos="96" vol="100" pan="0"/>
          <note key="40" len="36" pos="132" vol="100" pan="0"/>
          <note key="28" len="24" pos="168" vol="100" pan="0"/>
          <note key="26" len="36" pos="192" vol="100" pan="0"/>
          <note key="38" len="36" pos="228" vol="100" pan="0"/>
          <note key="26" len="24" pos="264" vol="100" pan="0"/>
          <note key="35" len="36" pos="288" vol="100" pan="0"/>
          <note key="38" len="36" pos="324" vol="100" pan="0"/>
          <note key="26" len="24" pos="360" vol="100" pan="0"/>
          <note key="36" len="36" pos="384" vol="100" pan="0"/>
          <note key="48" len="36" pos="420" vol="100" pan="0"/>
          <note key="36" len="24" pos="456" vol="100" pan="0"/>
          <note key="43" len="36" pos="480" vol="100" pan="0"/>
          <note key="48" len="36" pos="516" vol="100" pan="0"/>
          <note key="36" len="24" pos="552" vol="100" pan="0"/>
          <note key="35" len="36" pos="576" vol="100" pan="0"/>
          <note key="47" len="36" pos="612" vol="100" pan="0"/>
          <note key="35" len="24" pos="648" vol="100" pan="0"/>
          <note key="42" len="36" pos="672" vol="100" pan="0"/>
          <note key="43" len="36" pos="708" vol="100" pan="0"/>
          <note key="42" len="24" pos="744" vol="100" pan="0"/>
          <note key="36" len="24" pos="768" vol="100" pan="0"/>
          <note key="31" len="12" pos="792" vol="100" pan="0"/>
          <note key="48" len="12" pos="804" vol="100" pan="0"/>
          <note key="36" len="12" pos="828" vol="100" pan="0"/>
          <note key="36" len="12" pos="840" vol="100" pan="0"/>
          <note key="36" len="12" pos="852" vol="100" pan="0"/>
          <note key="38" len="12" pos="864" vol="100" pan="0"/>
          <note key="36" len="12" pos="888" vol="100" pan="0"/>
          <note key="38" len="12" pos="912" vol="100" pan="0"/>
          <note key="33" len="12" pos="936" vol="100" pan="0"/>
          <note key="35" len="24" pos="960" vol="100" pan="0"/>
          <note key="30" len="12" pos="984" vol="100" pan="0"/>
          <note key="42" len="12" pos="996" vol="100" pan="0"/>
          <note key="35" len="12" pos="1020" vol="100" pan="0"/>
          <note key="35" len="12" pos="1032" vol="100" pan="0"/>
          <note key="35" len="12" pos="1044" vol="100" pan="0"/>
          <note key="36" len="12" pos="1056" vol="100" pan="0"/>
          <note key="35" len="12" pos="1080" vol="100" pan="0"/>
          <note key="36" len="12" pos="1104" vol="100" pan="0"/>
          <note key="31" len="12" pos="1128" vol="100" pan="0"/>
          <note key="36" len="24" pos="1152" vol="100" pan="0"/>
          <note key="31" len="12" pos="1176" vol="100" pan="0"/>
          <note key="48" len="12" pos="1188" vol="100" pan="0"/>
          <note key="36" len="12" pos="1212" vol="100" pan="0"/>
          <note key="36" len="12" pos="1224" vol="100" pan="0"/>
          <note key="36" len="12" pos="1236" vol="100" pan="0"/>
          <note key="38" len="12" pos="1248" vol="100" pan="0"/>
          <note key="36" len="12" pos="1272" vol="100" pan="0"/>
          <note key="38" len="12" pos="1296" vol="100" pan="0"/>
          <note key="33" len="12" pos="1320" vol="100" pan="0"/>
          <note key="35" len="24" pos="1344" vol="100" pan="0"/>
          <note key="30" len="12" pos="1368" vol="100" pan="0"/>
          <note key="42" len="12" pos="1380" vol="100" pan="0"/>
          <note key="35" len="12" pos="1404" vol="100" pan="0"/>
          <note key="35" len="12" pos="1416" vol="100" pan="0"/>
          <note key="35" len="12" pos="1428" vol="100" pan="0"/>
          <note key="33" len="12" pos="1440" vol="100" pan="0"/>
          <note key="33" len="12" pos="1452" vol="100" pan="0"/>
          <note key="33" len="12" pos="1464" vol="100" pan="0"/>
          <note key="45" len="12" pos="1476" vol="100" pan="0"/>
          <note key="33" len="12" pos="1500" vol="100" pan="0"/>
          <note key="33" len="12" pos="1512" vol="100" pan="0"/>
          <note key="36" len="24" pos="1536" vol="100" pan="0"/>
          <note key="31" len="12" pos="1560" vol="100" pan="0"/>
          <note key="48" len="12" pos="1572" vol="100" pan="0"/>
          <note key="36" len="12" pos="1596" vol="100" pan="0"/>
          <note key="36" len="12" pos="1608" vol="100" pan="0"/>
          <note key="36" len="12" pos="1620" vol="100" pan="0"/>
          <note key="38" len="12" pos="1632" vol="100" pan="0"/>
          <note key="36" len="12" pos="1656" vol="100" pan="0"/>
          <note key="38" len="12" pos="1680" vol="100" pan="0"/>
          <note key="33" len="12" pos="1704" vol="100" pan="0"/>
          <note key="35" len="24" pos="1728" vol="100" pan="0"/>
          <note key="30" len="12" pos="1752" vol="100" pan="0"/>
          <note key="42" len="12" pos="1764" vol="100" pan="0"/>
          <note key="35" len="12" pos="1788" vol="100" pan="0"/>
          <note key="35" len="12" pos="1800" vol="100" pan="0"/>
          <note key="35" len="12" pos="1812" vol="100" pan="0"/>
          <note key="36" len="12" pos="1824" vol="100" pan="0"/>
          <note key="35" len="12" pos="1848" vol="100" pan="0"/>
          <note key="36" len="12" pos="1872" vol="100" pan="0"/>
          <note key="31" len="12" pos="1896" vol="100" pan="0"/>
          <note key="36" len="24" pos="1920" vol="100" pan="0"/>
          <note key="31" len="12" pos="1944" vol="100" pan="0"/>
          <note key="48" len="12" pos="1956" vol="100" pan="0"/>
          <note key="36" len="12" pos="1980" vol="100" pan="0"/>
          <note key="36" len="12" pos="1992" vol="100" pan="0"/>
          <note key="36" len="12" pos="2004" vol="100" pan="0"/>
          <note key="38" len="12" pos="2016" vol="100" pan="0"/>
          <note key="36" len="12" pos="2040" vol="100" pan="0"/>
          <note key="38" len="12" pos="2064" vol="100" pan="0"/>
          <note key="33" len="12" pos="2088" vol="100" pan="0"/>
          <note key="35" len="24" pos="2112" vol="100" pan="0"/>
          <note key="30" len="12" pos="2136" vol="100" pan="0"/>
          <note key="42" len="12" pos="2148" vol="100" pan="0"/>
          <note key="35" len="12" pos="2172" vol="100" pan="0"/>
          <note key="35" len="12" pos="2184" vol="100" pan="0"/>
          <note key="35" len="12" pos="2196" vol="100" pan="0"/>
          <note key="33" len="12" pos="2208" vol="100" pan="0"/>
          <note key="33" len="12" pos="2220" vol="100" pan="0"/>
          <note key="33" len="12" pos="2232" vol="100" pan="0"/>
          <note key="45" len="12" pos="2244" vol="100" pan="0"/>
          <note key="33" len="12" pos="2268" vol="100" pan="0"/>
          <note key="33" len="12" pos="2280" vol="100" pan="0"/>
          <note key="35" len="24" pos="2304" vol="100" pan="0"/>
          <note key="35" len="12" pos="2328" vol="100" pan="0"/>
          <note key="35" len="12" pos="2340" vol="100" pan="0"/>
          <note key="35" len="12" pos="2364" vol="100" pan="0"/>
          <note key="35" len="12" pos="2376" vol="100" pan="0"/>
          <note key="35" len="12" pos="2388" vol="100" pan="0"/>
          <note key="33" len="12" pos="2400" vol="100" pan="0"/>
          <note key="38" len="12" pos="2424" vol="100" pan="0"/>
          <note key="33" len="12" pos="2448" vol="100" pan="0"/>
          <note key="30" len="12" pos="2472" vol="100" pan="0"/>
          <note key="31" len="24" pos="2496" vol="100" pan="0"/>
          <note key="28" len="12" pos="2520" vol="100" pan="0"/>
          <note key="24" len="12" pos="2532" vol="100" pan="0"/>
          <note key="31" len="12" pos="2556" vol="100" pan="0"/>
          <note key="28" len="12" pos="2568" vol="100" pan="0"/>
          <note key="24" len="12" pos="2580" vol="100" pan="0"/>
          <note key="35" len="12" pos="2592" vol="100" pan="0"/>
          <note key="35" len="12" pos="2616" vol="100" pan="0"/>
          <note key="33" len="12" pos="2640" vol="100" pan="0"/>
          <note key="31" len="12" pos="2664" vol="100" pan="0"/>
          <note key="40" len="24" pos="2688" vol="100" pan="0"/>
          <note key="40" len="12" pos="2712" vol="100" pan="0"/>
          <note key="40" len="12" pos="2724" vol="100" pan="0"/>
          <note key="40" len="12" pos="2748" vol="100" pan="0"/>
          <note key="40" len="12" pos="2760" vol="100" pan="0"/>
          <note key="40" len="12" pos="2772" vol="100" pan="0"/>
          <note key="38" len="12" pos="2784" vol="100" pan="0"/>
          <note key="33" len="12" pos="2808" vol="100" pan="0"/>
          <note key="30" len="12" pos="2832" vol="100" pan="0"/>
          <note key="38" len="12" pos="2856" vol="100" pan="0"/>
          <note key="36" len="24" pos="2880" vol="100" pan="0"/>
          <note key="31" len="12" pos="2904" vol="100" pan="0"/>
          <note key="28" len="12" pos="2916" vol="100" pan="0"/>
          <note key="36" len="12" pos="2940" vol="100" pan="0"/>
          <note key="31" len="12" pos="2952" vol="100" pan="0"/>
          <note key="28" len="12" pos="2964" vol="100" pan="0"/>
          <note key="36" len="12" pos="2976" vol="100" pan="0"/>
          <note key="36" len="12" pos="3000" vol="100" pan="0"/>
          <note key="38" len="12" pos="3024" vol="100" pan="0"/>
          <note key="40" len="12" pos="3048" vol="100" pan="0"/>
          <note key="40" len="24" pos="3072" vol="100" pan="0"/>
          <note key="40" len="12" pos="3096" vol="100" pan="0"/>
          <note key="40" len="12" pos="3108" vol="100" pan="0"/>
          <note key="40" len="12" pos="3132" vol="100" pan="0"/>
          <note key="40" len="12" pos="3144" vol="100" pan="0"/>
          <note key="40" len="12" pos="3156" vol="100" pan="0"/>
          <note key="38" len="12" pos="3168" vol="100" pan="0"/>
          <note key="33" len="12" pos="3192" vol="100" pan="0"/>
          <note key="30" len="12" pos="3216" vol="100" pan="0"/>
          <note key="38" len="12" pos="3240" vol="100" pan="0"/>
          <note key="31" len="24" pos="3264" vol="100" pan="0"/>
          <note key="28" len="12" pos="3288" vol="100" pan="0"/>
          <note key="24" len="12" pos="3300" vol="100" pan="0"/>
          <note key="31" len="12" pos="3324" vol="100" pan="0"/>
          <note key="28" len="12" pos="3336" vol="100" pan="0"/>
          <note key="24" len="12" pos="3348" vol="100" pan="0"/>
          <note key="35" len="12" pos="3360" vol="100" pan="0"/>
          <note key="35" len="12" pos="3384" vol="100" pan="0"/>
          <note key="33" len="12" pos="3408" vol="100" pan="0"/>
          <note key="31" len="12" pos="3432" vol="100" pan="0"/>
          <note key="31" len="24" pos="3456" vol="100" pan="0"/>
          <note key="31" len="12" pos="3480" vol="100" pan="0"/>
          <note key="31" len="12" pos="3492" vol="100" pan="0"/>
          <note key="31" len="12" pos="3516" vol="100" pan="0"/>
          <note key="36" len="12" pos="3528" vol="100" pan="0"/>
          <note key="31" len="12" pos="3540" vol="100" pan="0"/>
          <note key="35" len="12" pos="3552" vol="100" pan="0"/>
          <note key="38" len="12" pos="3576" vol="100" pan="0"/>
          <note key="35" len="12" pos="3600" vol="100" pan="0"/>
          <note key="30" len="12" pos="3624" vol="100" pan="0"/>
          <note key="33" len="24" pos="3648" vol="100" pan="0"/>
          <note key="28" len="12" pos="3672" vol="100" pan="0"/>
          <note key="28" len="12" pos="3684" vol="100" pan="0"/>
          <note key="33" len="12" pos="3708" vol="100" pan="0"/>
          <note key="28" len="12" pos="3720" vol="100" pan="0"/>
          <note key="28" len="12" pos="3732" vol="100" pan="0"/>
          <note key="33" len="12" pos="3744" vol="100" pan="0"/>
          <note key="33" len="12" pos="3768" vol="100" pan="0"/>
          <note key="35" len="12" pos="3792" vol="100" pan="0"/>
          <note key="36" len="12" pos="3816" vol="100" pan="0"/>
          <note key="36" len="192" pos="3840" vol="100" pan="0"/>
        </pattern>
        <pattern type="1" name="" pos="6336" steps="16" muted="0">
          <note key="43" len="12" pos="24" vol="100" pan="0"/>
          <note key="42" len="12" pos="36" vol="100" pan="0"/>
          <note key="40" len="12" pos="72" vol="100" pan="0"/>
          <note key="43" len="12" pos="120" vol="100" pan="0"/>
          <note key="42" len="12" pos="132" vol="100" pan="0"/>
          <note key="40" len="12" pos="168" vol="100" pan="0"/>
          <note key="43" len="12" pos="216" vol="100" pan="0"/>
          <note key="42" len="12" pos="228" vol="100" pan="0"/>
          <note key="40" len="12" pos="264" vol="100" pan="0"/>
          <note key="43" len="12" pos="312" vol="100" pan="0"/>
          <note key="42" len="12" pos="324" vol="100" pan="0"/>
          <note key="40" len="12" pos="360" vol="100" pan="0"/>
          <note key="43" len="12" pos="408" vol="100" pan="0"/>
          <note key="42" len="12" pos="420" vol="100" pan="0"/>
          <note key="40" len="12" pos="456" vol="100" pan="0"/>
          <note key="43" len="12" pos="504" vol="100" pan="0"/>
          <note key="42" len="12" pos="516" vol="100" pan="0"/>
          <note key="40" len="12" pos="552" vol="100" pan="0"/>
          <note key="43" len="12" pos="600" vol="100" pan="0"/>
          <note key="42" len="12" pos="612" vol="100" pan="0"/>
          <note key="40" len="12" pos="648" vol="100" pan="0"/>
          <note key="43" len="12" pos="696" vol="100" pan="0"/>
          <note key="42" len="12" pos="708" vol="100" pan="0"/>
          <note key="40" len="12" pos="744" vol="100" pan="0"/>
          <note key="36" len="36" pos="768" vol="100" pan="0"/>
          <note key="48" len="12" pos="804" vol="100" pan="0"/>
          <note key="36" len="12" pos="840" vol="100" pan="0"/>
          <note key="35" len="36" pos="864" vol="100" pan="0"/>
          <note key="47" len="12" pos="900" vol="100" pan="0"/>
          <note key="35" len="12" pos="936" vol="100" pan="0"/>
          <note key="36" len="36" pos="960" vol="100" pan="0"/>
          <note key="48" len="12" pos="996" vol="100" pan="0"/>
          <note key="36" len="12" pos="1032" vol="100" pan="0"/>
          <note key="36" len="12" pos="1056" vol="100" pan="0"/>
          <note key="48" len="12" pos="1080" vol="100" pan="0"/>
          <note key="36" len="12" pos="1104" vol="100" pan="0"/>
          <note key="35" len="12" pos="1128" vol="100" pan="0"/>
          <note key="36" len="36" pos="1152" vol="100" pan="0"/>
          <note key="48" len="12" pos="1188" vol="100" pan="0"/>
          <note key="36" len="12" pos="1224" vol="100" pan="0"/>
          <note key="35" len="36" pos="1248" vol="100" pan="0"/>
          <note key="47" len="12" pos="1284" vol="100" pan="0"/>
          <note key="35" len="12" pos="1320" vol="100" pan="0"/>
          <note key="36" len="36" pos="1344" vol="100" pan="0"/>
          <note key="48" len="12" pos="1380" vol="100" pan="0"/>
          <note key="36" len="12" pos="1416" vol="100" pan="0"/>
          <note key="36" len="12" pos="1440" vol="100" pan="0"/>
          <note key="48" len="12" pos="1464" vol="100" pan="0"/>
          <note key="36" len="12" pos="1488" vol="100" pan="0"/>
          <note key="35" len="12" pos="1512" vol="100" pan="0"/>
          <note key="36" len="36" pos="1536" vol="100" pan="0"/>
          <note key="48" len="12" pos="1572" vol="100" pan="0"/>
          <note key="36" len="12" pos="1608" vol="100" pan="0"/>
          <note key="35" len="36" pos="1632" vol="100" pan="0"/>
          <note key="47" len="12" pos="1668" vol="100" pan="0"/>
          <note key="35" len="12" pos="1704" vol="100" pan="0"/>
          <note key="40" len="36" pos="1728" vol="100" pan="0"/>
          <note key="52" len="12" pos="1764" vol="100" pan="0"/>
          <note key="40" len="12" pos="1800" vol="100" pan="0"/>
          <note key="40" len="12" pos="1824" vol="100" pan="0"/>
          <note key="52" len="12" pos="1848" vol="100" pan="0"/>
          <note key="40" len="12" pos="1872" vol="100" pan="0"/>
          <note key="39" len="12" pos="1896" vol="100" pan="0"/>
          <note key="37" len="36" pos="1920" vol="100" pan="0"/>
          <note key="49" len="12" pos="1956" vol="100" pan="0"/>
          <note key="37" len="12" pos="1992" vol="100" pan="0"/>
          <note key="35" len="12" pos="2016" vol="100" pan="0"/>
          <note key="40" len="12" pos="2040" vol="100" pan="0"/>
          <note key="42" len="12" pos="2064" vol="100" pan="0"/>
          <note key="47" len="12" pos="2088" vol="100" pan="0"/>
          <note key="35" len="48" pos="2112" vol="100" pan="0"/>
          <note key="35" len="36" pos="2208" vol="100" pan="0"/>
          <note key="42" len="36" pos="2244" vol="100" pan="0"/>
          <note key="47" len="24" pos="2280" vol="100" pan="0"/>
          <note key="36" len="24" pos="2304" vol="100" pan="0"/>
          <note key="31" len="12" pos="2328" vol="100" pan="0"/>
          <note key="48" len="12" pos="2340" vol="100" pan="0"/>
          <note key="36" len="12" pos="2364" vol="100" pan="0"/>
          <note key="36" len="12" pos="2376" vol="100" pan="0"/>
          <note key="36" len="12" pos="2388" vol="100" pan="0"/>
          <note key="38" len="12" pos="2400" vol="100" pan="0"/>
          <note key="36" len="12" pos="2424" vol="100" pan="0"/>
          <note key="38" len="12" pos="2448" vol="100" pan="0"/>
          <note key="33" len="12" pos="2472" vol="100" pan="0"/>
          <note key="35" len="24" pos="2496" vol="100" pan="0"/>
          <note key="30" len="12" pos="2520" vol="100" pan="0"/>
          <note key="42" len="12" pos="2532" vol="100" pan="0"/>
          <note key="35" len="12" pos="2556" vol="100" pan="0"/>
          <note key="35" len="12" pos="2568" vol="100" pan="0"/>
          <note key="35" len="12" pos="2580" vol="100" pan="0"/>
          <note key="36" len="12" pos="2592" vol="100" pan="0"/>
          <note key="35" len="12" pos="2616" vol="100" pan="0"/>
          <note key="36" len="12" pos="2640" vol="100" pan="0"/>
          <note key="31" len="12" pos="2664" vol="100" pan="0"/>
          <note key="36" len="24" pos="2688" vol="100" pan="0"/>
          <note key="31" len="12" pos="2712" vol="100" pan="0"/>
          <note key="48" len="12" pos="2724" vol="100" pan="0"/>
          <note key="36" len="12" pos="2748" vol="100" pan="0"/>
          <note key="36" len="12" pos="2760" vol="100" pan="0"/>
          <note key="36" len="12" pos="2772" vol="100" pan="0"/>
          <note key="38" len="12" pos="2784" vol="100" pan="0"/>
          <note key="36" len="12" pos="2808" vol="100" pan="0"/>
          <note key="38" len="12" pos="2832" vol="100" pan="0"/>
          <note key="33" len="12" pos="2856" vol="100" pan="0"/>
          <note key="35" len="24" pos="2880" vol="100" pan="0"/>
          <note key="30" len="12" pos="2904" vol="100" pan="0"/>
          <note key="42" len="12" pos="2916" vol="100" pan="0"/>
          <note key="35" len="12" pos="2940" vol="100" pan="0"/>
          <note key="35" len="12" pos="2952" vol="100" pan="0"/>
          <note key="35" len="12" pos="2964" vol="100" pan="0"/>
          <note key="33" len="12" pos="2976" vol="100" pan="0"/>
          <note key="33" len="12" pos="2988" vol="100" pan="0"/>
          <note key="33" len="12" pos="3000" vol="100" pan="0"/>
          <note key="45" len="12" pos="3012" vol="100" pan="0"/>
          <note key="33" len="12" pos="3036" vol="100" pan="0"/>
          <note key="33" len="12" pos="3048" vol="100" pan="0"/>
          <note key="35" len="24" pos="3072" vol="100" pan="0"/>
          <note key="35" len="12" pos="3096" vol="100" pan="0"/>
          <note key="35" len="12" pos="3108" vol="100" pan="0"/>
          <note key="35" len="12" pos="3132" vol="100" pan="0"/>
          <note key="35" len="12" pos="3144" vol="100" pan="0"/>
          <note key="35" len="12" pos="3156" vol="100" pan="0"/>
          <note key="33" len="12" pos="3168" vol="100" pan="0"/>
          <note key="38" len="12" pos="3192" vol="100" pan="0"/>
          <note key="33" len="12" pos="3216" vol="100" pan="0"/>
          <note key="30" len="12" pos="3240" vol="100" pan="0"/>
          <note key="31" len="24" pos="3264" vol="100" pan="0"/>
          <note key="28" len="12" pos="3288" vol="100" pan="0"/>
          <note key="24" len="12" pos="3300" vol="100" pan="0"/>
          <note key="31" len="12" pos="3324" vol="100" pan="0"/>
          <note key="28" len="12" pos="3336" vol="100" pan="0"/>
          <note key="24" len="12" pos="3348" vol="100" pan="0"/>
          <note key="35" len="12" pos="3360" vol="100" pan="0"/>
          <note key="35" len="12" pos="3384" vol="100" pan="0"/>
          <note key="33" len="12" pos="3408" vol="100" pan="0"/>
          <note key="31" len="12" pos="3432" vol="100" pan="0"/>
          <note key="40" len="24" pos="3456" vol="100" pan="0"/>
          <note key="40" len="12" pos="3480" vol="100" pan="0"/>
          <note key="40" len="12" pos="3492" vol="100" pan="0"/>
          <note key="40" len="12" pos="3516" vol="100" pan="0"/>
          <note key="40" len="12" pos="3528" vol="100" pan="0"/>
          <note key="40" len="12" pos="3540" vol="100" pan="0"/>
          <note key="38" len="12" pos="3552" vol="100" pan="0"/>
          <note key="33" len="12" pos="3576" vol="100" pan="0"/>
          <note key="30" len="12" pos="3600" vol="100" pan="0"/>
          <note key="38" len="12" pos="3624" vol="100" pan="0"/>
          <note key="36" len="24" pos="3648" vol="100" pan="0"/>
          <note key="31" len="12" pos="3672" vol="100" pan="0"/>
          <note key="28" len="12" pos="3684" vol="100" pan="0"/>
          <note key="36" len="12" pos="3708" vol="100" pan="0"/>
          <note key="31" len="12" pos="3720" vol="100" pan="0"/>
          <note key="28" len="12" pos="3732" vol="100" pan="0"/>
          <note key="36" len="12" pos="3744" vol="100" pan="0"/>
          <note key="36" len="12" pos="3768" vol="100" pan="0"/>
          <note key="38" len="12" pos="3792" vol="100" pan="0"/>
          <note key="40" len="12" pos="3816" vol="100" pan="0"/>
          <note key="40" len="24" pos="3840" vol="100" pan="0"/>
          <note key="40" len="12" pos="3864" vol="100" pan="0"/>
          <note key="40" len="12" pos="3876" vol="100" pan="0"/>
          <note key="40" len="12" pos="3900" vol="100" pan="0"/>
          <note key="40" len="12" pos="3912" vol="100" pan="0"/>
          <note key="40" len="12" pos="3924" vol="100" pan="0"/>
          <note key="38" len="12" pos="3936" vol="100" pan="0"/>
          <note key="33" len="12" pos="3960" vol="100" pan="0"/>
          <note key="30" len="12" pos="3984" vol="100" pan="0"/>
          <note key="38" len="12" pos="4008" vol="100" pan="0"/>
          <note key="31" len="24" pos="4032" vol="100" pan="0"/>
          <note key="28" len="12" pos="4056" vol="100" pan="0"/>
          <note key="24" len="12" pos="4068" vol="100" pan="0"/>
          <note key="31" len="12" pos="4092" vol="100" pan="0"/>
          <note key="28" len="12" pos="4104" vol="100" pan="0"/>
          <note key="24" len="12" pos="4116" vol="100" pan="0"/>
          <note key="35" len="12" pos="4128" vol="100" pan="0"/>
          <note key="35" len="12" pos="4152" vol="100" pan="0"/>
          <note key="33" len="12" pos="4176" vol="100" pan="0"/>
          <note key="31" len="12" pos="4200" vol="100" pan="0"/>
          <note key="31" len="24" pos="4224" vol="100" pan="0"/>
          <note key="31" len="12" pos="4248" vol="100" pan="0"/>
          <note key="31" len="12" pos="4260" vol="100" pan="0"/>
          <note key="31" len="12" pos="4284" vol="100" pan="0"/>
          <note key="36" len="12" pos="4296" vol="100" pan="0"/>
          <note key="31" len="12" pos="4308" vol="100" pan="0"/>
          <note key="35" len="12" pos="4320" vol="100" pan="0"/>
          <note key="38" len="12" pos="4344" vol="100" pan="0"/>
          <note key="35" len="12" pos="4368" vol="100" pan="0"/>
          <note key="30" len="12" pos="4392" vol="100" pan="0"/>
          <note key="33" len="24" pos="4416" vol="100" pan="0"/>
          <note key="28" len="12" pos="4440" vol="100" pan="0"/>
          <note key="28" len="12" pos="4452" vol="100" pan="0"/>
          <note key="33" len="12" pos="4476" vol="100" pan="0"/>
          <note key="28" len="12" pos="4488" vol="100" pan="0"/>
          <note key="28" len="12" pos="4500" vol="100" pan="0"/>
          <note key="33" len="288" pos="4512" vol="100" pan="0"/>
        </pattern>
      </track>
      <track type="5" name="Bass Audio Control" solo="0" mutedBeforeSolo="0" muted="0">
        <automationtrack/>
        <automationpattern mute="0" name="Bass>Volume" pos="6336" len="768" prog="1" tens="1">
          <time value="0" pos="0" outValue="0"/>
          <time value="100" pos="768" outValue="100"/>
          <object id="7286"/>
          <object id="13952"/>
        </automationpattern>
        <automationpattern mute="0" name="Bass>Volume" pos="3840" len="192" prog="1" tens="1">
          <time value="100" pos="0" outValue="100"/>
          <time value="0" pos="192" outValue="0"/>
          <object id="12147"/>
          <object id="13952"/>
        </automationpattern>
        <automationpattern mute="0" name="Bass>Volume" pos="0" len="192" prog="0" tens="1">
          <time value="100" pos="0" outValue="100"/>
          <object id="13952"/>
        </automationpattern>
        <automationpattern mute="0" name="Bass>Volume" pos="10752" len="384" prog="1" tens="1">
          <time value="100" pos="0" outValue="100"/>
          <time value="0" pos="384" outValue="0"/>
          <object id="12147"/>
          <object id="13952"/>
        </automationpattern>
      </track>
      <track type="0" name="Bass Harmonics" solo="0" mutedBeforeSolo="0" muted="0">
        <instrumenttrack usemasterpitch="1" enablecc="0" pitch="0" fxch="3" firstkey="0" pitchrange="1" lastkey="127" pan="0" basenote="57">
          <vol scale_type="linear" value="100" id="23817"/>
          <midicontrollers cc30="0" cc106="0" cc11="0" cc111="0" cc79="0" cc86="0" cc94="0" cc41="0" cc105="0" cc48="0" cc38="0" cc72="0" cc44="0" cc4="0" cc28="0" cc102="0" cc113="0" cc7="0" cc84="0" cc99="0" cc29="0" cc123="0" cc55="0" cc40="0" cc20="0" cc65="0" cc82="0" cc0="0" cc92="0" cc10="0" cc45="0" cc59="0" cc81="0" cc103="0" cc112="0" cc63="0" cc124="0" cc22="0" cc21="0" cc9="0" cc116="0" cc47="0" cc49="0" cc119="0" cc97="0" cc117="0" cc80="0" cc76="0" cc126="0" cc93="0" cc90="0" cc54="0" cc89="0" cc120="0" cc34="0" cc32="0" cc3="0" cc71="0" cc35="0" cc16="0" cc73="0" cc53="0" cc70="0" cc37="0" cc14="0" cc25="0" cc110="0" cc51="0" cc98="0" cc50="0" cc42="0" cc91="0" cc95="0" cc77="0" cc96="0" cc100="0" cc43="0" cc23="0" cc78="0" cc57="0" cc125="0" cc36="0" cc6="0" cc62="0" cc24="0" cc61="0" cc68="0" cc108="0" cc19="0" cc58="0" cc52="0" cc87="0" cc12="0" cc122="0" cc83="0" cc121="0" cc13="0" cc74="0" cc115="0" cc31="0" cc101="0" cc107="0" cc114="0" cc64="0" cc26="0" cc15="0" cc69="0" cc118="0" cc5="0" cc17="0" cc2="0" cc104="0" cc109="0" cc60="0" cc75="0" cc67="0" cc127="0" cc66="0" cc33="0" cc85="0" cc39="0" cc18="0" cc8="0" cc46="0" cc1="0" cc27="0" cc56="0" cc88="0"/>
          <instrument name="vestige">
            <vestige guivisible="0" numparams="0" program="8" plugin="uservst:Instruments/Acoustica Expanded Instruments/Acoustica Expanded Instruments.dll">
              <key/>
            </vestige>
          </instrument>
          <eldata ftype="0" fres="0.5" fwet="0" fcut="14000">
            <elvol pdel="0" rel="0.1" latt="0" lshp="0" ctlenvamt="0" x100="0" lamt="0" userwavefile="" sustain="0.5" att="0" lpdel="0" amt="0" lspd_syncmode="0" hold="0.5" lspd="0.1" lspd_denominator="4" lspd_numerator="4" dec="0.5"/>
            <elcut pdel="0" rel="0.1" latt="0" lshp="0" ctlenvamt="0" x100="0" lamt="0" userwavefile="" sustain="0.5" att="0" lpdel="0" amt="0" lspd_syncmode="0" hold="0.5" lspd="0.1" lspd_denominator="4" lspd_numerator="4" dec="0.5"/>
            <elres pdel="0" rel="0.1" latt="0" lshp="0" ctlenvamt="0" x100="0" lamt="0" userwavefile="" sustain="0.5" att="0" lpdel="0" amt="0" lspd_syncmode="0" hold="0.5" lspd="0.1" lspd_denominator="4" lspd_numerator="4" dec="0.5"/>
          </eldata>
          <chordcreator chordrange="1" chord-enabled="0" chord="0"/>
          <arpeggiator arprepeats="1" arprange="1" arpdir="0" arp="0" arpmiss="0" arpskip="0" arpgate="100" arpcycle="0" arptime_denominator="4" arpmode="0" arp-enabled="0" arptime_syncmode="0" arptime="200" arptime_numerator="4"/>
          <midiport inputcontroller="0" basevelocity="63" writable="0" outputcontroller="0" fixedoutputnote="-1" readable="0" fixedinputvelocity="-1" outputprogram="1" inputchannel="0" fixedoutputvelocity="-1" outputchannel="1"/>
          <fxchain enabled="0" numofeffects="0"/>
        </instrumenttrack>
        <pattern type="1" name="" pos="768" steps="16" muted="0">
          <note key="36" len="24" pos="0" vol="100" pan="0"/>
          <note key="31" len="12" pos="24" vol="100" pan="0"/>
          <note key="48" len="12" pos="36" vol="100" pan="0"/>
          <note key="36" len="12" pos="60" vol="100" pan="0"/>
          <note key="36" len="12" pos="72" vol="100" pan="0"/>
          <note key="36" len="12" pos="84" vol="100" pan="0"/>
          <note key="38" len="12" pos="96" vol="100" pan="0"/>
          <note key="36" len="12" pos="120" vol="100" pan="0"/>
          <note key="38" len="12" pos="144" vol="100" pan="0"/>
          <note key="33" len="12" pos="168" vol="100" pan="0"/>
          <note key="35" len="24" pos="192" vol="100" pan="0"/>
          <note key="30" len="12" pos="216" vol="100" pan="0"/>
          <note key="42" len="12" pos="228" vol="100" pan="0"/>
          <note key="35" len="12" pos="252" vol="100" pan="0"/>
          <note key="35" len="12" pos="264" vol="100" pan="0"/>
          <note key="35" len="12" pos="276" vol="100" pan="0"/>
          <note key="36" len="12" pos="288" vol="100" pan="0"/>
          <note key="35" len="12" pos="312" vol="100" pan="0"/>
          <note key="36" len="12" pos="336" vol="100" pan="0"/>
          <note key="31" len="12" pos="360" vol="100" pan="0"/>
          <note key="36" len="24" pos="384" vol="100" pan="0"/>
          <note key="31" len="12" pos="408" vol="100" pan="0"/>
          <note key="48" len="12" pos="420" vol="100" pan="0"/>
          <note key="36" len="12" pos="444" vol="100" pan="0"/>
          <note key="36" len="12" pos="456" vol="100" pan="0"/>
          <note key="36" len="12" pos="468" vol="100" pan="0"/>
          <note key="38" len="12" pos="480" vol="100" pan="0"/>
          <note key="36" len="12" pos="504" vol="100" pan="0"/>
          <note key="38" len="12" pos="528" vol="100" pan="0"/>
          <note key="33" len="12" pos="552" vol="100" pan="0"/>
          <note key="35" len="24" pos="576" vol="100" pan="0"/>
          <note key="30" len="12" pos="600" vol="100" pan="0"/>
          <note key="42" len="12" pos="612" vol="100" pan="0"/>
          <note key="35" len="12" pos="636" vol="100" pan="0"/>
          <note key="35" len="12" pos="648" vol="100" pan="0"/>
          <note key="35" len="12" pos="660" vol="100" pan="0"/>
          <note key="33" len="12" pos="672" vol="100" pan="0"/>
          <note key="33" len="12" pos="684" vol="100" pan="0"/>
          <note key="33" len="12" pos="696" vol="100" pan="0"/>
          <note key="45" len="12" pos="708" vol="100" pan="0"/>
          <note key="33" len="12" pos="732" vol="100" pan="0"/>
          <note key="33" len="12" pos="744" vol="100" pan="0"/>
          <note key="36" len="24" pos="768" vol="100" pan="0"/>
          <note key="31" len="12" pos="792" vol="100" pan="0"/>
          <note key="48" len="12" pos="804" vol="100" pan="0"/>
          <note key="36" len="12" pos="828" vol="100" pan="0"/>
          <note key="36" len="12" pos="840" vol="100" pan="0"/>
          <note key="36" len="12" pos="852" vol="100" pan="0"/>
          <note key="38" len="12" pos="864" vol="100" pan="0"/>
          <note key="36" len="12" pos="888" vol="100" pan="0"/>
          <note key="38" len="12" pos="912" vol="100" pan="0"/>
          <note key="33" len="12" pos="936" vol="100" pan="0"/>
          <note key="35" len="24" pos="960" vol="100" pan="0"/>
          <note key="30" len="12" pos="984" vol="100" pan="0"/>
          <note key="42" len="12" pos="996" vol="100" pan="0"/>
          <note key="35" len="12" pos="1020" vol="100" pan="0"/>
          <note key="35" len="12" pos="1032" vol="100" pan="0"/>
          <note key="35" len="12" pos="1044" vol="100" pan="0"/>
          <note key="36" len="12" pos="1056" vol="100" pan="0"/>
          <note key="35" len="12" pos="1080" vol="100" pan="0"/>
          <note key="36" len="12" pos="1104" vol="100" pan="0"/>
          <note key="31" len="12" pos="1128" vol="100" pan="0"/>
          <note key="36" len="24" pos="1152" vol="100" pan="0"/>
          <note key="31" len="12" pos="1176" vol="100" pan="0"/>
          <note key="48" len="12" pos="1188" vol="100" pan="0"/>
          <note key="36" len="12" pos="1212" vol="100" pan="0"/>
          <note key="36" len="12" pos="1224" vol="100" pan="0"/>
          <note key="36" len="12" pos="1236" vol="100" pan="0"/>
          <note key="38" len="12" pos="1248" vol="100" pan="0"/>
          <note key="36" len="12" pos="1272" vol="100" pan="0"/>
          <note key="38" len="12" pos="1296" vol="100" pan="0"/>
          <note key="33" len="12" pos="1320" vol="100" pan="0"/>
          <note key="35" len="24" pos="1344" vol="100" pan="0"/>
          <note key="30" len="12" pos="1368" vol="100" pan="0"/>
          <note key="42" len="12" pos="1380" vol="100" pan="0"/>
          <note key="35" len="12" pos="1404" vol="100" pan="0"/>
          <note key="35" len="12" pos="1416" vol="100" pan="0"/>
          <note key="35" len="12" pos="1428" vol="100" pan="0"/>
          <note key="33" len="12" pos="1440" vol="100" pan="0"/>
          <note key="33" len="12" pos="1452" vol="100" pan="0"/>
          <note key="33" len="12" pos="1464" vol="100" pan="0"/>
          <note key="45" len="12" pos="1476" vol="100" pan="0"/>
          <note key="33" len="12" pos="1500" vol="100" pan="0"/>
          <note key="33" len="12" pos="1512" vol="100" pan="0"/>
          <note key="35" len="24" pos="1536" vol="100" pan="0"/>
          <note key="35" len="12" pos="1560" vol="100" pan="0"/>
          <note key="35" len="12" pos="1572" vol="100" pan="0"/>
          <note key="35" len="12" pos="1596" vol="100" pan="0"/>
          <note key="35" len="12" pos="1608" vol="100" pan="0"/>
          <note key="35" len="12" pos="1620" vol="100" pan="0"/>
          <note key="33" len="12" pos="1632" vol="100" pan="0"/>
          <note key="38" len="12" pos="1656" vol="100" pan="0"/>
          <note key="33" len="12" pos="1680" vol="100" pan="0"/>
          <note key="30" len="12" pos="1704" vol="100" pan="0"/>
          <note key="31" len="24" pos="1728" vol="100" pan="0"/>
          <note key="28" len="12" pos="1752" vol="100" pan="0"/>
          <note key="24" len="12" pos="1764" vol="100" pan="0"/>
          <note key="31" len="12" pos="1788" vol="100" pan="0"/>
          <note key="28" len="12" pos="1800" vol="100" pan="0"/>
          <note key="24" len="12" pos="1812" vol="100" pan="0"/>
          <note key="35" len="12" pos="1824" vol="100" pan="0"/>
          <note key="35" len="12" pos="1848" vol="100" pan="0"/>
          <note key="33" len="12" pos="1872" vol="100" pan="0"/>
          <note key="31" len="12" pos="1896" vol="100" pan="0"/>
          <note key="40" len="24" pos="1920" vol="100" pan="0"/>
          <note key="40" len="12" pos="1944" vol="100" pan="0"/>
          <note key="40" len="12" pos="1956" vol="100" pan="0"/>
          <note key="40" len="12" pos="1980" vol="100" pan="0"/>
          <note key="40" len="12" pos="1992" vol="100" pan="0"/>
          <note key="40" len="12" pos="2004" vol="100" pan="0"/>
          <note key="38" len="12" pos="2016" vol="100" pan="0"/>
          <note key="33" len="12" pos="2040" vol="100" pan="0"/>
          <note key="30" len="12" pos="2064" vol="100" pan="0"/>
          <note key="38" len="12" pos="2088" vol="100" pan="0"/>
          <note key="36" len="24" pos="2112" vol="100" pan="0"/>
          <note key="31" len="12" pos="2136" vol="100" pan="0"/>
          <note key="28" len="12" pos="2148" vol="100" pan="0"/>
          <note key="36" len="12" pos="2172" vol="100" pan="0"/>
          <note key="31" len="12" pos="2184" vol="100" pan="0"/>
          <note key="28" len="12" pos="2196" vol="100" pan="0"/>
          <note key="36" len="12" pos="2208" vol="100" pan="0"/>
          <note key="36" len="12" pos="2232" vol="100" pan="0"/>
          <note key="38" len="12" pos="2256" vol="100" pan="0"/>
          <note key="40" len="12" pos="2280" vol="100" pan="0"/>
          <note key="40" len="24" pos="2304" vol="100" pan="0"/>
          <note key="40" len="12" pos="2328" vol="100" pan="0"/>
          <note key="40" len="12" pos="2340" vol="100" pan="0"/>
          <note key="40" len="12" pos="2364" vol="100" pan="0"/>
          <note key="40" len="12" pos="2376" vol="100" pan="0"/>
          <note key="40" len="12" pos="2388" vol="100" pan="0"/>
          <note key="38" len="12" pos="2400" vol="100" pan="0"/>
          <note key="33" len="12" pos="2424" vol="100" pan="0"/>
          <note key="30" len="12" pos="2448" vol="100" pan="0"/>
          <note key="38" len="12" pos="2472" vol="100" pan="0"/>
          <note key="31" len="24" pos="2496" vol="100" pan="0"/>
          <note key="28" len="12" pos="2520" vol="100" pan="0"/>
          <note key="24" len="12" pos="2532" vol="100" pan="0"/>
          <note key="31" len="12" pos="2556" vol="100" pan="0"/>
          <note key="28" len="12" pos="2568" vol="100" pan="0"/>
          <note key="24" len="12" pos="2580" vol="100" pan="0"/>
          <note key="35" len="12" pos="2592" vol="100" pan="0"/>
          <note key="35" len="12" pos="2616" vol="100" pan="0"/>
          <note key="33" len="12" pos="2640" vol="100" pan="0"/>
          <note key="31" len="12" pos="2664" vol="100" pan="0"/>
          <note key="31" len="24" pos="2688" vol="100" pan="0"/>
          <note key="31" len="12" pos="2712" vol="100" pan="0"/>
          <note key="31" len="12" pos="2724" vol="100" pan="0"/>
          <note key="31" len="12" pos="2748" vol="100" pan="0"/>
          <note key="36" len="12" pos="2760" vol="100" pan="0"/>
          <note key="31" len="12" pos="2772" vol="100" pan="0"/>
          <note key="35" len="12" pos="2784" vol="100" pan="0"/>
          <note key="38" len="12" pos="2808" vol="100" pan="0"/>
          <note key="35" len="12" pos="2832" vol="100" pan="0"/>
          <note key="30" len="12" pos="2856" vol="100" pan="0"/>
          <note key="33" len="24" pos="2880" vol="100" pan="0"/>
          <note key="28" len="12" pos="2904" vol="100" pan="0"/>
          <note key="28" len="12" pos="2916" vol="100" pan="0"/>
          <note key="33" len="12" pos="2940" vol="100" pan="0"/>
          <note key="28" len="12" pos="2952" vol="100" pan="0"/>
          <note key="28" len="12" pos="2964" vol="100" pan="0"/>
          <note key="33" len="12" pos="2976" vol="100" pan="0"/>
          <note key="33" len="12" pos="3000" vol="100" pan="0"/>
          <note key="35" len="12" pos="3024" vol="100" pan="0"/>
          <note key="36" len="12" pos="3048" vol="100" pan="0"/>
          <note key="36" len="192" pos="3072" vol="100" pan="0"/>
        </pattern>
        <pattern type="1" name="" pos="8640" steps="16" muted="0">
          <note key="36" len="24" pos="0" vol="100" pan="0"/>
          <note key="31" len="12" pos="24" vol="100" pan="0"/>
          <note key="48" len="12" pos="36" vol="100" pan="0"/>
          <note key="36" len="12" pos="60" vol="100" pan="0"/>
          <note key="36" len="12" pos="72" vol="100" pan="0"/>
          <note key="36" len="12" pos="84" vol="100" pan="0"/>
          <note key="38" len="12" pos="96" vol="100" pan="0"/>
          <note key="36" len="12" pos="120" vol="100" pan="0"/>
          <note key="38" len="12" pos="144" vol="100" pan="0"/>
          <note key="33" len="12" pos="168" vol="100" pan="0"/>
          <note key="35" len="24" pos="192" vol="100" pan="0"/>
          <note key="30" len="12" pos="216" vol="100" pan="0"/>
          <note key="42" len="12" pos="228" vol="100" pan="0"/>
          <note key="35" len="12" pos="252" vol="100" pan="0"/>
          <note key="35" len="12" pos="264" vol="100" pan="0"/>
          <note key="35" len="12" pos="276" vol="100" pan="0"/>
          <note key="36" len="12" pos="288" vol="100" pan="0"/>
          <note key="35" len="12" pos="312" vol="100" pan="0"/>
          <note key="36" len="12" pos="336" vol="100" pan="0"/>
          <note key="31" len="12" pos="360" vol="100" pan="0"/>
          <note key="36" len="24" pos="384" vol="100" pan="0"/>
          <note key="31" len="12" pos="408" vol="100" pan="0"/>
          <note key="48" len="12" pos="420" vol="100" pan="0"/>
          <note key="36" len="12" pos="444" vol="100" pan="0"/>
          <note key="36" len="12" pos="456" vol="100" pan="0"/>
          <note key="36" len="12" pos="468" vol="100" pan="0"/>
          <note key="38" len="12" pos="480" vol="100" pan="0"/>
          <note key="36" len="12" pos="504" vol="100" pan="0"/>
          <note key="38" len="12" pos="528" vol="100" pan="0"/>
          <note key="33" len="12" pos="552" vol="100" pan="0"/>
          <note key="35" len="24" pos="576" vol="100" pan="0"/>
          <note key="30" len="12" pos="600" vol="100" pan="0"/>
          <note key="42" len="12" pos="612" vol="100" pan="0"/>
          <note key="35" len="12" pos="636" vol="100" pan="0"/>
          <note key="35" len="12" pos="648" vol="100" pan="0"/>
          <note key="35" len="12" pos="660" vol="100" pan="0"/>
          <note key="33" len="12" pos="672" vol="100" pan="0"/>
          <note key="33" len="12" pos="684" vol="100" pan="0"/>
          <note key="33" len="12" pos="696" vol="100" pan="0"/>
          <note key="45" len="12" pos="708" vol="100" pan="0"/>
          <note key="33" len="12" pos="732" vol="100" pan="0"/>
          <note key="33" len="12" pos="744" vol="100" pan="0"/>
          <note key="35" len="24" pos="768" vol="100" pan="0"/>
          <note key="35" len="12" pos="792" vol="100" pan="0"/>
          <note key="35" len="12" pos="804" vol="100" pan="0"/>
          <note key="35" len="12" pos="828" vol="100" pan="0"/>
          <note key="35" len="12" pos="840" vol="100" pan="0"/>
          <note key="35" len="12" pos="852" vol="100" pan="0"/>
          <note key="33" len="12" pos="864" vol="100" pan="0"/>
          <note key="38" len="12" pos="888" vol="100" pan="0"/>
          <note key="33" len="12" pos="912" vol="100" pan="0"/>
          <note key="30" len="12" pos="936" vol="100" pan="0"/>
          <note key="31" len="24" pos="960" vol="100" pan="0"/>
          <note key="28" len="12" pos="984" vol="100" pan="0"/>
          <note key="24" len="12" pos="996" vol="100" pan="0"/>
          <note key="31" len="12" pos="1020" vol="100" pan="0"/>
          <note key="28" len="12" pos="1032" vol="100" pan="0"/>
          <note key="24" len="12" pos="1044" vol="100" pan="0"/>
          <note key="35" len="12" pos="1056" vol="100" pan="0"/>
          <note key="35" len="12" pos="1080" vol="100" pan="0"/>
          <note key="33" len="12" pos="1104" vol="100" pan="0"/>
          <note key="31" len="12" pos="1128" vol="100" pan="0"/>
          <note key="40" len="24" pos="1152" vol="100" pan="0"/>
          <note key="40" len="12" pos="1176" vol="100" pan="0"/>
          <note key="40" len="12" pos="1188" vol="100" pan="0"/>
          <note key="40" len="12" pos="1212" vol="100" pan="0"/>
          <note key="40" len="12" pos="1224" vol="100" pan="0"/>
          <note key="40" len="12" pos="1236" vol="100" pan="0"/>
          <note key="38" len="12" pos="1248" vol="100" pan="0"/>
          <note key="33" len="12" pos="1272" vol="100" pan="0"/>
          <note key="30" len="12" pos="1296" vol="100" pan="0"/>
          <note key="38" len="12" pos="1320" vol="100" pan="0"/>
          <note key="36" len="24" pos="1344" vol="100" pan="0"/>
          <note key="31" len="12" pos="1368" vol="100" pan="0"/>
          <note key="28" len="12" pos="1380" vol="100" pan="0"/>
          <note key="36" len="12" pos="1404" vol="100" pan="0"/>
          <note key="31" len="12" pos="1416" vol="100" pan="0"/>
          <note key="28" len="12" pos="1428" vol="100" pan="0"/>
          <note key="36" len="12" pos="1440" vol="100" pan="0"/>
          <note key="36" len="12" pos="1464" vol="100" pan="0"/>
          <note key="38" len="12" pos="1488" vol="100" pan="0"/>
          <note key="40" len="12" pos="1512" vol="100" pan="0"/>
          <note key="40" len="24" pos="1536" vol="100" pan="0"/>
          <note key="40" len="12" pos="1560" vol="100" pan="0"/>
          <note key="40" len="12" pos="1572" vol="100" pan="0"/>
          <note key="40" len="12" pos="1596" vol="100" pan="0"/>
          <note key="40" len="12" pos="1608" vol="100" pan="0"/>
          <note key="40" len="12" pos="1620" vol="100" pan="0"/>
          <note key="38" len="12" pos="1632" vol="100" pan="0"/>
          <note key="33" len="12" pos="1656" vol="100" pan="0"/>
          <note key="30" len="12" pos="1680" vol="100" pan="0"/>
          <note key="38" len="12" pos="1704" vol="100" pan="0"/>
          <note key="31" len="24" pos="1728" vol="100" pan="0"/>
          <note key="28" len="12" pos="1752" vol="100" pan="0"/>
          <note key="24" len="12" pos="1764" vol="100" pan="0"/>
          <note key="31" len="12" pos="1788" vol="100" pan="0"/>
          <note key="28" len="12" pos="1800" vol="100" pan="0"/>
          <note key="24" len="12" pos="1812" vol="100" pan="0"/>
          <note key="35" len="12" pos="1824" vol="100" pan="0"/>
          <note key="35" len="12" pos="1848" vol="100" pan="0"/>
          <note key="33" len="12" pos="1872" vol="100" pan="0"/>
          <note key="31" len="12" pos="1896" vol="100" pan="0"/>
          <note key="31" len="24" pos="1920" vol="100" pan="0"/>
          <note key="31" len="12" pos="1944" vol="100" pan="0"/>
          <note key="31" len="12" pos="1956" vol="100" pan="0"/>
          <note key="31" len="12" pos="1980" vol="100" pan="0"/>
          <note key="36" len="12" pos="1992" vol="100" pan="0"/>
          <note key="31" len="12" pos="2004" vol="100" pan="0"/>
          <note key="35" len="12" pos="2016" vol="100" pan="0"/>
          <note key="38" len="12" pos="2040" vol="100" pan="0"/>
          <note key="35" len="12" pos="2064" vol="100" pan="0"/>
          <note key="30" len="12" pos="2088" vol="100" pan="0"/>
          <note key="33" len="24" pos="2112" vol="100" pan="0"/>
          <note key="28" len="12" pos="2136" vol="100" pan="0"/>
          <note key="28" len="12" pos="2148" vol="100" pan="0"/>
          <note key="33" len="12" pos="2172" vol="100" pan="0"/>
          <note key="28" len="12" pos="2184" vol="100" pan="0"/>
          <note key="28" len="12" pos="2196" vol="100" pan="0"/>
          <note key="33" len="288" pos="2208" vol="100" pan="0"/>
        </pattern>
      </track>
      <track type="5" name="Bass Harmonics Audio Control" solo="0" mutedBeforeSolo="0" muted="0">
        <automationtrack/>
        <automationpattern mute="0" name="Bass Harmonics>Volume" pos="3840" len="192" prog="1" tens="1">
          <time value="100" pos="0" outValue="100"/>
          <time value="0" pos="192" outValue="0"/>
          <object id="12147"/>
          <object id="23817"/>
        </automationpattern>
        <automationpattern mute="0" name="Bass Harmonics>Volume" pos="0" len="192" prog="0" tens="1">
          <time value="100" pos="0" outValue="100"/>
          <object id="23817"/>
        </automationpattern>
        <automationpattern mute="0" name="Bass Harmonics>Volume" pos="10752" len="384" prog="1" tens="1">
          <time value="100" pos="0" outValue="100"/>
          <time value="0" pos="384" outValue="0"/>
          <object id="12147"/>
          <object id="23817"/>
        </automationpattern>
        <automationpattern mute="0" name="Bass Harmonics>Volume" pos="8640" len="192" prog="0" tens="1">
          <time value="100" pos="0" outValue="100"/>
          <object id="23817"/>
        </automationpattern>
      </track>
      <track type="0" name="Chords" solo="0" mutedBeforeSolo="0" muted="0">
        <instrumenttrack usemasterpitch="1" enablecc="0" pitch="0" fxch="4" firstkey="0" pitchrange="2" lastkey="127" pan="0" basenote="69">
          <vol scale_type="linear" value="100" id="17846"/>
          <midicontrollers cc30="0" cc106="0" cc11="0" cc111="0" cc79="0" cc86="0" cc94="0" cc41="0" cc105="0" cc48="0" cc38="0" cc72="0" cc44="0" cc4="0" cc28="0" cc102="0" cc113="0" cc7="0" cc84="0" cc99="0" cc29="0" cc123="0" cc55="0" cc40="0" cc20="0" cc65="0" cc82="0" cc0="0" cc92="0" cc10="0" cc45="0" cc59="0" cc81="0" cc103="0" cc112="0" cc63="0" cc124="0" cc22="0" cc21="0" cc9="0" cc116="0" cc47="0" cc49="0" cc119="0" cc97="0" cc117="0" cc80="0" cc76="0" cc126="0" cc93="0" cc90="0" cc54="0" cc89="0" cc120="0" cc34="0" cc32="0" cc3="0" cc71="0" cc35="0" cc16="0" cc73="0" cc53="0" cc70="0" cc37="0" cc14="0" cc25="0" cc110="0" cc51="0" cc98="0" cc50="0" cc42="0" cc91="0" cc95="0" cc77="0" cc96="0" cc100="0" cc43="0" cc23="0" cc78="0" cc57="0" cc125="0" cc36="0" cc6="0" cc62="0" cc24="0" cc61="0" cc68="0" cc108="0" cc19="0" cc58="0" cc52="0" cc87="0" cc12="0" cc122="0" cc83="0" cc121="0" cc13="0" cc74="0" cc115="0" cc31="0" cc101="0" cc107="0" cc114="0" cc64="0" cc26="0" cc15="0" cc69="0" cc118="0" cc5="0" cc17="0" cc2="0" cc104="0" cc109="0" cc60="0" cc75="0" cc67="0" cc127="0" cc66="0" cc33="0" cc85="0" cc39="0" cc18="0" cc8="0" cc46="0" cc1="0" cc27="0" cc56="0" cc88="0"/>
          <instrument name="sf2player">
            <sf2player reverbWidth="0.5" chorusSpeed="0.3" patch="26" chorusDepth="8" bank="8" chorusLevel="2" reverbOn="0" reverbDamping="0" chorusNum="3" src="usersoundfont:GeneralUser GS v1.471.sf2" chorusOn="0" gain="1" reverbRoomSize="0.2" reverbLevel="0.9">
              <key/>
            </sf2player>
          </instrument>
          <eldata ftype="0" fres="0.5" fwet="0" fcut="14000">
            <elvol pdel="0" rel="0.1" latt="0" lshp="0" ctlenvamt="0" x100="0" lamt="0" userwavefile="" sustain="0.5" att="0" lpdel="0" amt="0" lspd_syncmode="0" hold="0.5" lspd="0.1" lspd_denominator="4" lspd_numerator="4" dec="0.5"/>
            <elcut pdel="0" rel="0.1" latt="0" lshp="0" ctlenvamt="0" x100="0" lamt="0" userwavefile="" sustain="0.5" att="0" lpdel="0" amt="0" lspd_syncmode="0" hold="0.5" lspd="0.1" lspd_denominator="4" lspd_numerator="4" dec="0.5"/>
            <elres pdel="0" rel="0.1" latt="0" lshp="0" ctlenvamt="0" x100="0" lamt="0" userwavefile="" sustain="0.5" att="0" lpdel="0" amt="0" lspd_syncmode="0" hold="0.5" lspd="0.1" lspd_denominator="4" lspd_numerator="4" dec="0.5"/>
          </eldata>
          <chordcreator chordrange="1" chord-enabled="0" chord="0"/>
          <arpeggiator arprepeats="1" arprange="1" arpdir="0" arp="0" arpmiss="0" arpskip="0" arpgate="100" arpcycle="0" arptime_denominator="4" arpmode="0" arp-enabled="0" arptime_syncmode="0" arptime="200" arptime_numerator="4"/>
          <midiport inputcontroller="0" basevelocity="63" writable="0" outputcontroller="0" fixedoutputnote="-1" readable="0" fixedinputvelocity="-1" outputprogram="1" inputchannel="0" fixedoutputvelocity="-1" outputchannel="1"/>
          <fxchain enabled="0" numofeffects="0"/>
        </instrumenttrack>
        <pattern type="1" name="" pos="0" steps="16" muted="0">
          <note key="64" len="192" pos="0" vol="100" pan="0"/>
          <note key="59" len="192" pos="0" vol="100" pan="0"/>
          <note key="55" len="192" pos="0" vol="100" pan="0"/>
          <note key="62" len="192" pos="192" vol="100" pan="0"/>
          <note key="59" len="192" pos="192" vol="100" pan="0"/>
          <note key="55" len="192" pos="192" vol="100" pan="0"/>
          <note key="60" len="192" pos="384" vol="100" pan="0"/>
          <note key="55" len="192" pos="384" vol="100" pan="0"/>
          <note key="52" len="192" pos="384" vol="100" pan="0"/>
          <note key="63" len="96" pos="576" vol="100" pan="0"/>
          <note key="59" len="96" pos="576" vol="100" pan="0"/>
          <note key="54" len="96" pos="576" vol="100" pan="0"/>
          <note key="63" len="36" pos="672" vol="100" pan="0"/>
          <note key="59" len="36" pos="672" vol="100" pan="0"/>
          <note key="54" len="36" pos="672" vol="100" pan="0"/>
          <note key="64" len="36" pos="708" vol="100" pan="0"/>
          <note key="60" len="36" pos="708" vol="100" pan="0"/>
          <note key="55" len="36" pos="708" vol="100" pan="0"/>
          <note key="66" len="24" pos="744" vol="100" pan="0"/>
          <note key="63" len="24" pos="744" vol="100" pan="0"/>
          <note key="57" len="24" pos="744" vol="100" pan="0"/>
          <note key="67" len="96" pos="768" vol="100" pan="0"/>
          <note key="64" len="96" pos="768" vol="100" pan="0"/>
          <note key="60" len="96" pos="768" vol="100" pan="0"/>
          <note key="69" len="96" pos="864" vol="100" pan="0"/>
          <note key="66" len="96" pos="864" vol="100" pan="0"/>
          <note key="62" len="96" pos="864" vol="100" pan="0"/>
          <note key="66" len="96" pos="960" vol="100" pan="0"/>
          <note key="62" len="96" pos="960" vol="100" pan="0"/>
          <note key="59" len="96" pos="960" vol="100" pan="0"/>
          <note key="67" len="96" pos="1056" vol="100" pan="0"/>
          <note key="64" len="96" pos="1056" vol="100" pan="0"/>
          <note key="60" len="96" pos="1056" vol="100" pan="0"/>
          <note key="67" len="96" pos="1152" vol="100" pan="0"/>
          <note key="64" len="96" pos="1152" vol="100" pan="0"/>
          <note key="60" len="96" pos="1152" vol="100" pan="0"/>
          <note key="69" len="96" pos="1248" vol="100" pan="0"/>
          <note key="66" len="96" pos="1248" vol="100" pan="0"/>
          <note key="62" len="96" pos="1248" vol="100" pan="0"/>
          <note key="66" len="96" pos="1344" vol="100" pan="0"/>
          <note key="62" len="96" pos="1344" vol="100" pan="0"/>
          <note key="59" len="96" pos="1344" vol="100" pan="0"/>
          <note key="64" len="96" pos="1440" vol="100" pan="0"/>
          <note key="61" len="96" pos="1440" vol="100" pan="0"/>
          <note key="57" len="96" pos="1440" vol="100" pan="0"/>
          <note key="67" len="96" pos="1536" vol="100" pan="0"/>
          <note key="64" len="96" pos="1536" vol="100" pan="0"/>
          <note key="60" len="96" pos="1536" vol="100" pan="0"/>
          <note key="69" len="96" pos="1632" vol="100" pan="0"/>
          <note key="66" len="96" pos="1632" vol="100" pan="0"/>
          <note key="62" len="96" pos="1632" vol="100" pan="0"/>
          <note key="66" len="96" pos="1728" vol="100" pan="0"/>
          <note key="62" len="96" pos="1728" vol="100" pan="0"/>
          <note key="59" len="96" pos="1728" vol="100" pan="0"/>
          <note key="67" len="96" pos="1824" vol="100" pan="0"/>
          <note key="64" len="96" pos="1824" vol="100" pan="0"/>
          <note key="60" len="96" pos="1824" vol="100" pan="0"/>
          <note key="67" len="96" pos="1920" vol="100" pan="0"/>
          <note key="64" len="96" pos="1920" vol="100" pan="0"/>
          <note key="60" len="96" pos="1920" vol="100" pan="0"/>
          <note key="69" len="96" pos="2016" vol="100" pan="0"/>
          <note key="66" len="96" pos="2016" vol="100" pan="0"/>
          <note key="62" len="96" pos="2016" vol="100" pan="0"/>
          <note key="66" len="96" pos="2112" vol="100" pan="0"/>
          <note key="62" len="96" pos="2112" vol="100" pan="0"/>
          <note key="59" len="96" pos="2112" vol="100" pan="0"/>
          <note key="64" len="96" pos="2208" vol="100" pan="0"/>
          <note key="61" len="96" pos="2208" vol="100" pan="0"/>
          <note key="57" len="96" pos="2208" vol="100" pan="0"/>
          <note key="67" len="96" pos="2304" vol="100" pan="0"/>
          <note key="64" len="96" pos="2304" vol="100" pan="0"/>
          <note key="59" len="96" pos="2304" vol="100" pan="0"/>
          <note key="66" len="96" pos="2400" vol="100" pan="0"/>
          <note key="62" len="96" pos="2400" vol="100" pan="0"/>
          <note key="57" len="96" pos="2400" vol="100" pan="0"/>
          <note key="64" len="96" pos="2496" vol="100" pan="0"/>
          <note key="60" len="96" pos="2496" vol="100" pan="0"/>
          <note key="55" len="96" pos="2496" vol="100" pan="0"/>
          <note key="67" len="36" pos="2592" vol="100" pan="0"/>
          <note key="64" len="36" pos="2592" vol="100" pan="0"/>
          <note key="59" len="36" pos="2592" vol="100" pan="0"/>
          <note key="66" len="36" pos="2628" vol="100" pan="0"/>
          <note key="62" len="36" pos="2628" vol="100" pan="0"/>
          <note key="57" len="36" pos="2628" vol="100" pan="0"/>
          <note key="64" len="24" pos="2664" vol="100" pan="0"/>
          <note key="60" len="24" pos="2664" vol="100" pan="0"/>
          <note key="55" len="24" pos="2664" vol="100" pan="0"/>
          <note key="67" len="96" pos="2688" vol="100" pan="0"/>
          <note key="64" len="96" pos="2688" vol="100" pan="0"/>
          <note key="59" len="96" pos="2688" vol="100" pan="0"/>
          <note key="66" len="96" pos="2784" vol="100" pan="0"/>
          <note key="62" len="96" pos="2784" vol="100" pan="0"/>
          <note key="57" len="96" pos="2784" vol="100" pan="0"/>
          <note key="64" len="96" pos="2880" vol="100" pan="0"/>
          <note key="60" len="96" pos="2880" vol="100" pan="0"/>
          <note key="55" len="96" pos="2880" vol="100" pan="0"/>
          <note key="64" len="36" pos="2976" vol="100" pan="0"/>
          <note key="60" len="36" pos="2976" vol="100" pan="0"/>
          <note key="55" len="36" pos="2976" vol="100" pan="0"/>
          <note key="66" len="36" pos="3012" vol="100" pan="0"/>
          <note key="62" len="36" pos="3012" vol="100" pan="0"/>
          <note key="57" len="36" pos="3012" vol="100" pan="0"/>
          <note key="67" len="24" pos="3048" vol="100" pan="0"/>
          <note key="64" len="24" pos="3048" vol="100" pan="0"/>
          <note key="59" len="24" pos="3048" vol="100" pan="0"/>
          <note key="67" len="96" pos="3072" vol="100" pan="0"/>
          <note key="64" len="96" pos="3072" vol="100" pan="0"/>
          <note key="59" len="96" pos="3072" vol="100" pan="0"/>
          <note key="66" len="96" pos="3168" vol="100" pan="0"/>
          <note key="62" len="96" pos="3168" vol="100" pan="0"/>
          <note key="57" len="96" pos="3168" vol="100" pan="0"/>
          <note key="64" len="96" pos="3264" vol="100" pan="0"/>
          <note key="60" len="96" pos="3264" vol="100" pan="0"/>
          <note key="55" len="96" pos="3264" vol="100" pan="0"/>
          <note key="67" len="36" pos="3360" vol="100" pan="0"/>
          <note key="64" len="36" pos="3360" vol="100" pan="0"/>
          <note key="59" len="36" pos="3360" vol="100" pan="0"/>
          <note key="66" len="36" pos="3396" vol="100" pan="0"/>
          <note key="62" len="36" pos="3396" vol="100" pan="0"/>
          <note key="57" len="36" pos="3396" vol="100" pan="0"/>
          <note key="64" len="24" pos="3432" vol="100" pan="0"/>
          <note key="60" len="24" pos="3432" vol="100" pan="0"/>
          <note key="55" len="24" pos="3432" vol="100" pan="0"/>
          <note key="67" len="96" pos="3456" vol="100" pan="0"/>
          <note key="64" len="96" pos="3456" vol="100" pan="0"/>
          <note key="60" len="96" pos="3456" vol="100" pan="0"/>
          <note key="66" len="96" pos="3552" vol="100" pan="0"/>
          <note key="62" len="96" pos="3552" vol="100" pan="0"/>
          <note key="59" len="96" pos="3552" vol="100" pan="0"/>
          <note key="64" len="96" pos="3648" vol="100" pan="0"/>
          <note key="61" len="96" pos="3648" vol="100" pan="0"/>
          <note key="57" len="96" pos="3648" vol="100" pan="0"/>
          <note key="64" len="36" pos="3744" vol="100" pan="0"/>
          <note key="61" len="36" pos="3744" vol="100" pan="0"/>
          <note key="57" len="36" pos="3744" vol="100" pan="0"/>
          <note key="66" len="36" pos="3780" vol="100" pan="0"/>
          <note key="62" len="36" pos="3780" vol="100" pan="0"/>
          <note key="59" len="36" pos="3780" vol="100" pan="0"/>
          <note key="67" len="24" pos="3816" vol="100" pan="0"/>
          <note key="64" len="24" pos="3816" vol="100" pan="0"/>
          <note key="60" len="24" pos="3816" vol="100" pan="0"/>
          <note key="67" len="192" pos="3840" vol="100" pan="0"/>
          <note key="64" len="192" pos="3840" vol="100" pan="0"/>
          <note key="60" len="192" pos="3840" vol="100" pan="0"/>
        </pattern>
        <pattern type="1" name="" pos="7104" steps="16" muted="0">
          <note key="64" len="96" pos="0" vol="100" pan="0"/>
          <note key="60" len="96" pos="0" vol="100" pan="0"/>
          <note key="55" len="96" pos="0" vol="100" pan="0"/>
          <note key="63" len="96" pos="96" vol="100" pan="0"/>
          <note key="59" len="96" pos="96" vol="100" pan="0"/>
          <note key="54" len="96" pos="96" vol="100" pan="0"/>
          <note key="60" len="192" pos="192" vol="100" pan="0"/>
          <note key="55" len="192" pos="192" vol="100" pan="0"/>
          <note key="52" len="192" pos="192" vol="100" pan="0"/>
          <note key="60" len="96" pos="384" vol="100" pan="0"/>
          <note key="55" len="96" pos="384" vol="100" pan="0"/>
          <note key="52" len="96" pos="384" vol="100" pan="0"/>
          <note key="59" len="96" pos="480" vol="100" pan="0"/>
          <note key="54" len="96" pos="480" vol="100" pan="0"/>
          <note key="51" len="96" pos="480" vol="100" pan="0"/>
          <note key="55" len="192" pos="576" vol="100" pan="0"/>
          <note key="52" len="192" pos="576" vol="100" pan="0"/>
          <note key="48" len="192" pos="576" vol="100" pan="0"/>
          <note key="55" len="96" pos="768" vol="100" pan="0"/>
          <note key="52" len="96" pos="768" vol="100" pan="0"/>
          <note key="48" len="96" pos="768" vol="100" pan="0"/>
          <note key="54" len="96" pos="864" vol="100" pan="0"/>
          <note key="51" len="96" pos="864" vol="100" pan="0"/>
          <note key="47" len="96" pos="864" vol="100" pan="0"/>
          <note key="59" len="192" pos="960" vol="100" pan="0"/>
          <note key="55" len="192" pos="960" vol="100" pan="0"/>
          <note key="52" len="192" pos="960" vol="100" pan="0"/>
          <note key="57" len="96" pos="1152" vol="100" pan="0"/>
          <note key="52" len="96" pos="1152" vol="100" pan="0"/>
          <note key="49" len="96" pos="1152" vol="100" pan="0"/>
          <note key="56" len="96" pos="1248" vol="100" pan="0"/>
          <note key="52" len="96" pos="1248" vol="100" pan="0"/>
          <note key="47" len="96" pos="1248" vol="100" pan="0"/>
          <note key="54" len="192" pos="1344" vol="100" pan="0"/>
          <note key="51" len="192" pos="1344" vol="100" pan="0"/>
          <note key="47" len="192" pos="1344" vol="100" pan="0"/>
          <note key="67" len="96" pos="1536" vol="100" pan="0"/>
          <note key="64" len="96" pos="1536" vol="100" pan="0"/>
          <note key="60" len="96" pos="1536" vol="100" pan="0"/>
          <note key="69" len="96" pos="1632" vol="100" pan="0"/>
          <note key="66" len="96" pos="1632" vol="100" pan="0"/>
          <note key="62" len="96" pos="1632" vol="100" pan="0"/>
          <note key="66" len="96" pos="1728" vol="100" pan="0"/>
          <note key="62" len="96" pos="1728" vol="100" pan="0"/>
          <note key="59" len="96" pos="1728" vol="100" pan="0"/>
          <note key="67" len="96" pos="1824" vol="100" pan="0"/>
          <note key="64" len="96" pos="1824" vol="100" pan="0"/>
          <note key="60" len="96" pos="1824" vol="100" pan="0"/>
          <note key="67" len="96" pos="1920" vol="100" pan="0"/>
          <note key="64" len="96" pos="1920" vol="100" pan="0"/>
          <note key="60" len="96" pos="1920" vol="100" pan="0"/>
          <note key="69" len="96" pos="2016" vol="100" pan="0"/>
          <note key="66" len="96" pos="2016" vol="100" pan="0"/>
          <note key="62" len="96" pos="2016" vol="100" pan="0"/>
          <note key="66" len="96" pos="2112" vol="100" pan="0"/>
          <note key="62" len="96" pos="2112" vol="100" pan="0"/>
          <note key="59" len="96" pos="2112" vol="100" pan="0"/>
          <note key="64" len="96" pos="2208" vol="100" pan="0"/>
          <note key="61" len="96" pos="2208" vol="100" pan="0"/>
          <note key="57" len="96" pos="2208" vol="100" pan="0"/>
          <note key="67" len="96" pos="2304" vol="100" pan="0"/>
          <note key="64" len="96" pos="2304" vol="100" pan="0"/>
          <note key="59" len="96" pos="2304" vol="100" pan="0"/>
          <note key="66" len="96" pos="2400" vol="100" pan="0"/>
          <note key="62" len="96" pos="2400" vol="100" pan="0"/>
          <note key="57" len="96" pos="2400" vol="100" pan="0"/>
          <note key="64" len="96" pos="2496" vol="100" pan="0"/>
          <note key="60" len="96" pos="2496" vol="100" pan="0"/>
          <note key="55" len="96" pos="2496" vol="100" pan="0"/>
          <note key="67" len="36" pos="2592" vol="100" pan="0"/>
          <note key="64" len="36" pos="2592" vol="100" pan="0"/>
          <note key="59" len="36" pos="2592" vol="100" pan="0"/>
          <note key="66" len="36" pos="2628" vol="100" pan="0"/>
          <note key="62" len="36" pos="2628" vol="100" pan="0"/>
          <note key="57" len="36" pos="2628" vol="100" pan="0"/>
          <note key="64" len="24" pos="2664" vol="100" pan="0"/>
          <note key="60" len="24" pos="2664" vol="100" pan="0"/>
          <note key="55" len="24" pos="2664" vol="100" pan="0"/>
          <note key="67" len="96" pos="2688" vol="100" pan="0"/>
          <note key="64" len="96" pos="2688" vol="100" pan="0"/>
          <note key="59" len="96" pos="2688" vol="100" pan="0"/>
          <note key="66" len="96" pos="2784" vol="100" pan="0"/>
          <note key="62" len="96" pos="2784" vol="100" pan="0"/>
          <note key="57" len="96" pos="2784" vol="100" pan="0"/>
          <note key="64" len="96" pos="2880" vol="100" pan="0"/>
          <note key="60" len="96" pos="2880" vol="100" pan="0"/>
          <note key="55" len="96" pos="2880" vol="100" pan="0"/>
          <note key="64" len="36" pos="2976" vol="100" pan="0"/>
          <note key="60" len="36" pos="2976" vol="100" pan="0"/>
          <note key="55" len="36" pos="2976" vol="100" pan="0"/>
          <note key="66" len="36" pos="3012" vol="100" pan="0"/>
          <note key="62" len="36" pos="3012" vol="100" pan="0"/>
          <note key="57" len="36" pos="3012" vol="100" pan="0"/>
          <note key="67" len="24" pos="3048" vol="100" pan="0"/>
          <note key="64" len="24" pos="3048" vol="100" pan="0"/>
          <note key="59" len="24" pos="3048" vol="100" pan="0"/>
          <note key="67" len="96" pos="3072" vol="100" pan="0"/>
          <note key="64" len="96" pos="3072" vol="100" pan="0"/>
          <note key="59" len="96" pos="3072" vol="100" pan="0"/>
          <note key="66" len="96" pos="3168" vol="100" pan="0"/>
          <note key="62" len="96" pos="3168" vol="100" pan="0"/>
          <note key="57" len="96" pos="3168" vol="100" pan="0"/>
          <note key="64" len="96" pos="3264" vol="100" pan="0"/>
          <note key="60" len="96" pos="3264" vol="100" pan="0"/>
          <note key="55" len="96" pos="3264" vol="100" pan="0"/>
          <note key="67" len="36" pos="3360" vol="100" pan="0"/>
          <note key="64" len="36" pos="3360" vol="100" pan="0"/>
          <note key="59" len="36" pos="3360" vol="100" pan="0"/>
          <note key="66" len="36" pos="3396" vol="100" pan="0"/>
          <note key="62" len="36" pos="3396" vol="100" pan="0"/>
          <note key="57" len="36" pos="3396" vol="100" pan="0"/>
          <note key="64" len="24" pos="3432" vol="100" pan="0"/>
          <note key="60" len="24" pos="3432" vol="100" pan="0"/>
          <note key="55" len="24" pos="3432" vol="100" pan="0"/>
          <note key="67" len="96" pos="3456" vol="100" pan="0"/>
          <note key="64" len="96" pos="3456" vol="100" pan="0"/>
          <note key="60" len="96" pos="3456" vol="100" pan="0"/>
          <note key="66" len="96" pos="3552" vol="100" pan="0"/>
          <note key="62" len="96" pos="3552" vol="100" pan="0"/>
          <note key="59" len="96" pos="3552" vol="100" pan="0"/>
          <note key="64" len="384" pos="3648" vol="100" pan="0"/>
          <note key="61" len="384" pos="3648" vol="100" pan="0"/>
          <note key="57" len="384" pos="3648" vol="100" pan="0"/>
        </pattern>
      </track>
      <track type="5" name="Chords Audio Control" solo="0" mutedBeforeSolo="0" muted="0">
        <automationtrack/>
        <automationpattern mute="0" name="Chords>Volume" pos="3840" len="192" prog="1" tens="1">
          <time value="100" pos="0" outValue="100"/>
          <time value="0" pos="192" outValue="0"/>
          <object id="12147"/>
          <object id="17846"/>
        </automationpattern>
        <automationpattern mute="0" name="Chords>Volume" pos="0" len="192" prog="0" tens="1">
          <time value="100" pos="0" outValue="100"/>
          <object id="17846"/>
        </automationpattern>
        <automationpattern mute="0" name="Chords>Volume" pos="10752" len="384" prog="1" tens="1">
          <time value="100" pos="0" outValue="100"/>
          <time value="0" pos="384" outValue="0"/>
          <object id="12147"/>
          <object id="17846"/>
        </automationpattern>
        <automationpattern mute="0" name="Chords>Volume" pos="7104" len="192" prog="0" tens="1">
          <time value="100" pos="0" outValue="100"/>
          <object id="17846"/>
        </automationpattern>
      </track>
      <track type="0" name="Piano" solo="0" mutedBeforeSolo="0" muted="0">
        <instrumenttrack usemasterpitch="1" enablecc="0" pitch="0" fxch="5" firstkey="0" pitchrange="1" lastkey="127" pan="0" basenote="57">
          <vol scale_type="linear" value="100" id="24471"/>
          <midicontrollers cc30="0" cc106="0" cc11="0" cc111="0" cc79="0" cc86="0" cc94="0" cc41="0" cc105="0" cc48="0" cc38="0" cc72="0" cc44="0" cc4="0" cc28="0" cc102="0" cc113="0" cc7="0" cc84="0" cc99="0" cc29="0" cc123="0" cc55="0" cc40="0" cc20="0" cc65="0" cc82="0" cc0="0" cc92="0" cc10="0" cc45="0" cc59="0" cc81="0" cc103="0" cc112="0" cc63="0" cc124="0" cc22="0" cc21="0" cc9="0" cc116="0" cc47="0" cc49="0" cc119="0" cc97="0" cc117="0" cc80="0" cc76="0" cc126="0" cc93="0" cc90="0" cc54="0" cc89="0" cc120="0" cc34="0" cc32="0" cc3="0" cc71="0" cc35="0" cc16="0" cc73="0" cc53="0" cc70="0" cc37="0" cc14="0" cc25="0" cc110="0" cc51="0" cc98="0" cc50="0" cc42="0" cc91="0" cc95="0" cc77="0" cc96="0" cc100="0" cc43="0" cc23="0" cc78="0" cc57="0" cc125="0" cc36="0" cc6="0" cc62="0" cc24="0" cc61="0" cc68="0" cc108="0" cc19="0" cc58="0" cc52="0" cc87="0" cc12="0" cc122="0" cc83="0" cc121="0" cc13="0" cc74="0" cc115="0" cc31="0" cc101="0" cc107="0" cc114="0" cc64="0" cc26="0" cc15="0" cc69="0" cc118="0" cc5="0" cc17="0" cc2="0" cc104="0" cc109="0" cc60="0" cc75="0" cc67="0" cc127="0" cc66="0" cc33="0" cc85="0" cc39="0" cc18="0" cc8="0" cc46="0" cc1="0" cc27="0" cc56="0" cc88="0"/>
          <instrument name="vestige">
            <vestige param5="5:ModAmt:0.5" param3="3:Release:0" param4="4:ModRate:0.65" guivisible="0" param7="7:VelSens:0" numparams="13" param9="9:Random:0" param0="0:Hardness:0.665" param12="12:Volume:1" param8="8:Tuning:0.5" program="0" plugin="uservst:Instruments/DPiano-E/DPiano-E.dll" param1="1:Treble:0.63" param10="10:MaxPoly:0.5" param6="6:Overdrv:0.53" param11="11:Stereo:0" param2="2:Decay:0.27">
              <key/>
            </vestige>
          </instrument>
          <eldata ftype="0" fres="0.5" fwet="0" fcut="14000">
            <elvol pdel="0" rel="0.1" latt="0" lshp="0" ctlenvamt="0" x100="0" lamt="0" userwavefile="" sustain="0.5" att="0" lpdel="0" amt="0" lspd_syncmode="0" hold="0.5" lspd="0.1" lspd_denominator="4" lspd_numerator="4" dec="0.5"/>
            <elcut pdel="0" rel="0.1" latt="0" lshp="0" ctlenvamt="0" x100="0" lamt="0" userwavefile="" sustain="0.5" att="0" lpdel="0" amt="0" lspd_syncmode="0" hold="0.5" lspd="0.1" lspd_denominator="4" lspd_numerator="4" dec="0.5"/>
            <elres pdel="0" rel="0.1" latt="0" lshp="0" ctlenvamt="0" x100="0" lamt="0" userwavefile="" sustain="0.5" att="0" lpdel="0" amt="0" lspd_syncmode="0" hold="0.5" lspd="0.1" lspd_denominator="4" lspd_numerator="4" dec="0.5"/>
          </eldata>
          <chordcreator chordrange="1" chord-enabled="0" chord="0"/>
          <arpeggiator arprepeats="1" arprange="1" arpdir="0" arp="0" arpmiss="0" arpskip="0" arpgate="100" arpcycle="0" arptime_denominator="4" arpmode="0" arp-enabled="0" arptime_syncmode="0" arptime="200" arptime_numerator="4"/>
          <midiport inputcontroller="0" basevelocity="63" writable="0" outputcontroller="0" fixedoutputnote="-1" readable="0" fixedinputvelocity="-1" outputprogram="1" inputchannel="0" fixedoutputvelocity="-1" outputchannel="1"/>
          <fxchain enabled="0" numofeffects="0"/>
        </instrumenttrack>
        <pattern type="1" name="" pos="4032" steps="16" muted="0">
          <note key="55" len="96" pos="0" vol="100" pan="0"/>
          <note key="52" len="96" pos="0" vol="100" pan="0"/>
          <note key="48" len="96" pos="0" vol="100" pan="0"/>
          <note key="24" len="24" pos="0" vol="100" pan="0"/>
          <note key="19" len="12" pos="24" vol="100" pan="0"/>
          <note key="36" len="12" pos="36" vol="100" pan="0"/>
          <note key="24" len="12" pos="60" vol="100" pan="0"/>
          <note key="24" len="12" pos="72" vol="100" pan="0"/>
          <note key="24" len="12" pos="84" vol="100" pan="0"/>
          <note key="57" len="96" pos="96" vol="100" pan="0"/>
          <note key="54" len="96" pos="96" vol="100" pan="0"/>
          <note key="50" len="96" pos="96" vol="100" pan="0"/>
          <note key="26" len="12" pos="96" vol="100" pan="0"/>
          <note key="24" len="12" pos="120" vol="100" pan="0"/>
          <note key="26" len="12" pos="144" vol="100" pan="0"/>
          <note key="21" len="12" pos="168" vol="100" pan="0"/>
          <note key="54" len="96" pos="192" vol="100" pan="0"/>
          <note key="50" len="96" pos="192" vol="100" pan="0"/>
          <note key="47" len="96" pos="192" vol="100" pan="0"/>
          <note key="23" len="24" pos="192" vol="100" pan="0"/>
          <note key="18" len="12" pos="216" vol="100" pan="0"/>
          <note key="30" len="12" pos="228" vol="100" pan="0"/>
          <note key="23" len="12" pos="252" vol="100" pan="0"/>
          <note key="23" len="12" pos="264" vol="100" pan="0"/>
          <note key="23" len="12" pos="276" vol="100" pan="0"/>
          <note key="55" len="96" pos="288" vol="100" pan="0"/>
          <note key="52" len="96" pos="288" vol="100" pan="0"/>
          <note key="48" len="96" pos="288" vol="100" pan="0"/>
          <note key="24" len="12" pos="288" vol="100" pan="0"/>
          <note key="23" len="12" pos="312" vol="100" pan="0"/>
          <note key="24" len="12" pos="336" vol="100" pan="0"/>
          <note key="19" len="12" pos="360" vol="100" pan="0"/>
          <note key="55" len="96" pos="384" vol="100" pan="0"/>
          <note key="52" len="96" pos="384" vol="100" pan="0"/>
          <note key="48" len="96" pos="384" vol="100" pan="0"/>
          <note key="24" len="24" pos="384" vol="100" pan="0"/>
          <note key="19" len="12" pos="408" vol="100" pan="0"/>
          <note key="36" len="12" pos="420" vol="100" pan="0"/>
          <note key="24" len="12" pos="444" vol="100" pan="0"/>
          <note key="24" len="12" pos="456" vol="100" pan="0"/>
          <note key="24" len="12" pos="468" vol="100" pan="0"/>
          <note key="57" len="96" pos="480" vol="100" pan="0"/>
          <note key="54" len="96" pos="480" vol="100" pan="0"/>
          <note key="50" len="96" pos="480" vol="100" pan="0"/>
          <note key="26" len="12" pos="480" vol="100" pan="0"/>
          <note key="24" len="12" pos="504" vol="100" pan="0"/>
          <note key="26" len="12" pos="528" vol="100" pan="0"/>
          <note key="21" len="12" pos="552" vol="100" pan="0"/>
          <note key="54" len="96" pos="576" vol="100" pan="0"/>
          <note key="50" len="96" pos="576" vol="100" pan="0"/>
          <note key="47" len="96" pos="576" vol="100" pan="0"/>
          <note key="23" len="24" pos="576" vol="100" pan="0"/>
          <note key="18" len="12" pos="600" vol="100" pan="0"/>
          <note key="30" len="12" pos="612" vol="100" pan="0"/>
          <note key="23" len="12" pos="636" vol="100" pan="0"/>
          <note key="23" len="12" pos="648" vol="100" pan="0"/>
          <note key="23" len="12" pos="660" vol="100" pan="0"/>
          <note key="52" len="96" pos="672" vol="100" pan="0"/>
          <note key="49" len="96" pos="672" vol="100" pan="0"/>
          <note key="45" len="96" pos="672" vol="100" pan="0"/>
          <note key="21" len="12" pos="672" vol="100" pan="0"/>
          <note key="21" len="12" pos="684" vol="100" pan="0"/>
          <note key="21" len="12" pos="696" vol="100" pan="0"/>
          <note key="33" len="12" pos="708" vol="100" pan="0"/>
          <note key="21" len="12" pos="732" vol="100" pan="0"/>
          <note key="21" len="12" pos="744" vol="100" pan="0"/>
          <note key="52" len="192" pos="768" vol="100" pan="0"/>
          <note key="47" len="192" pos="768" vol="100" pan="0"/>
          <note key="43" len="192" pos="768" vol="100" pan="0"/>
          <note key="16" len="36" pos="768" vol="100" pan="0"/>
          <note key="28" len="36" pos="804" vol="100" pan="0"/>
          <note key="16" len="24" pos="840" vol="100" pan="0"/>
          <note key="26" len="36" pos="864" vol="100" pan="0"/>
          <note key="28" len="36" pos="900" vol="100" pan="0"/>
          <note key="16" len="24" pos="936" vol="100" pan="0"/>
          <note key="50" len="192" pos="960" vol="100" pan="0"/>
          <note key="47" len="192" pos="960" vol="100" pan="0"/>
          <note key="43" len="192" pos="960" vol="100" pan="0"/>
          <note key="14" len="36" pos="960" vol="100" pan="0"/>
          <note key="26" len="36" pos="996" vol="100" pan="0"/>
          <note key="14" len="24" pos="1032" vol="100" pan="0"/>
          <note key="23" len="36" pos="1056" vol="100" pan="0"/>
          <note key="26" len="36" pos="1092" vol="100" pan="0"/>
          <note key="14" len="24" pos="1128" vol="100" pan="0"/>
          <note key="48" len="192" pos="1152" vol="100" pan="0"/>
          <note key="43" len="192" pos="1152" vol="100" pan="0"/>
          <note key="40" len="192" pos="1152" vol="100" pan="0"/>
          <note key="24" len="36" pos="1152" vol="100" pan="0"/>
          <note key="36" len="36" pos="1188" vol="100" pan="0"/>
          <note key="24" len="24" pos="1224" vol="100" pan="0"/>
          <note key="31" len="36" pos="1248" vol="100" pan="0"/>
          <note key="36" len="36" pos="1284" vol="100" pan="0"/>
          <note key="24" len="24" pos="1320" vol="100" pan="0"/>
          <note key="51" len="96" pos="1344" vol="100" pan="0"/>
          <note key="47" len="96" pos="1344" vol="100" pan="0"/>
          <note key="42" len="96" pos="1344" vol="100" pan="0"/>
          <note key="23" len="36" pos="1344" vol="100" pan="0"/>
          <note key="35" len="36" pos="1380" vol="100" pan="0"/>
          <note key="23" len="24" pos="1416" vol="100" pan="0"/>
          <note key="51" len="36" pos="1440" vol="100" pan="0"/>
          <note key="47" len="36" pos="1440" vol="100" pan="0"/>
          <note key="42" len="36" pos="1440" vol="100" pan="0"/>
          <note key="30" len="36" pos="1440" vol="100" pan="0"/>
          <note key="52" len="36" pos="1476" vol="100" pan="0"/>
          <note key="48" len="36" pos="1476" vol="100" pan="0"/>
          <note key="43" len="36" pos="1476" vol="100" pan="0"/>
          <note key="31" len="36" pos="1476" vol="100" pan="0"/>
          <note key="54" len="24" pos="1512" vol="100" pan="0"/>
          <note key="51" len="24" pos="1512" vol="100" pan="0"/>
          <note key="45" len="24" pos="1512" vol="100" pan="0"/>
          <note key="30" len="24" pos="1512" vol="100" pan="0"/>
          <note key="55" len="192" pos="1536" vol="100" pan="0"/>
          <note key="52" len="192" pos="1536" vol="100" pan="0"/>
          <note key="47" len="192" pos="1536" vol="100" pan="0"/>
          <note key="16" len="36" pos="1536" vol="100" pan="0"/>
          <note key="28" len="36" pos="1572" vol="100" pan="0"/>
          <note key="16" len="24" pos="1608" vol="100" pan="0"/>
          <note key="26" len="36" pos="1632" vol="100" pan="0"/>
          <note key="28" len="36" pos="1668" vol="100" pan="0"/>
          <note key="16" len="24" pos="1704" vol="100" pan="0"/>
          <note key="55" len="192" pos="1728" vol="100" pan="0"/>
          <note key="50" len="192" pos="1728" vol="100" pan="0"/>
          <note key="47" len="192" pos="1728" vol="100" pan="0"/>
          <note key="14" len="36" pos="1728" vol="100" pan="0"/>
          <note key="26" len="36" pos="1764" vol="100" pan="0"/>
          <note key="14" len="24" pos="1800" vol="100" pan="0"/>
          <note key="23" len="36" pos="1824" vol="100" pan="0"/>
          <note key="26" len="36" pos="1860" vol="100" pan="0"/>
          <note key="14" len="24" pos="1896" vol="100" pan="0"/>
          <note key="52" len="192" pos="1920" vol="100" pan="0"/>
          <note key="48" len="192" pos="1920" vol="100" pan="0"/>
          <note key="43" len="192" pos="1920" vol="100" pan="0"/>
          <note key="24" len="36" pos="1920" vol="100" pan="0"/>
          <note key="36" len="36" pos="1956" vol="100" pan="0"/>
          <note key="24" len="24" pos="1992" vol="100" pan="0"/>
          <note key="31" len="36" pos="2016" vol="100" pan="0"/>
          <note key="36" len="36" pos="2052" vol="100" pan="0"/>
          <note key="24" len="24" pos="2088" vol="100" pan="0"/>
          <note key="54" len="96" pos="2112" vol="100" pan="0"/>
          <note key="51" len="96" pos="2112" vol="100" pan="0"/>
          <note key="47" len="96" pos="2112" vol="100" pan="0"/>
          <note key="23" len="36" pos="2112" vol="100" pan="0"/>
          <note key="35" len="36" pos="2148" vol="100" pan="0"/>
          <note key="23" len="24" pos="2184" vol="100" pan="0"/>
          <note key="54" len="36" pos="2208" vol="100" pan="0"/>
          <note key="51" len="36" pos="2208" vol="100" pan="0"/>
          <note key="47" len="36" pos="2208" vol="100" pan="0"/>
          <note key="30" len="36" pos="2208" vol="100" pan="0"/>
          <note key="52" len="36" pos="2244" vol="100" pan="0"/>
          <note key="48" len="36" pos="2244" vol="100" pan="0"/>
          <note key="43" len="36" pos="2244" vol="100" pan="0"/>
          <note key="31" len="36" pos="2244" vol="100" pan="0"/>
          <note key="51" len="24" pos="2280" vol="100" pan="0"/>
          <note key="47" len="24" pos="2280" vol="100" pan="0"/>
          <note key="42" len="24" pos="2280" vol="100" pan="0"/>
          <note key="30" len="24" pos="2280" vol="100" pan="0"/>
          <note key="52" len="768" pos="2304" vol="100" pan="0"/>
          <note key="47" len="768" pos="2304" vol="100" pan="0"/>
          <note key="43" len="768" pos="2304" vol="100" pan="0"/>
          <note key="16" len="36" pos="2304" vol="100" pan="0"/>
          <note key="28" len="36" pos="2340" vol="100" pan="0"/>
          <note key="16" len="24" pos="2376" vol="100" pan="0"/>
          <note key="26" len="36" pos="2400" vol="100" pan="0"/>
          <note key="28" len="36" pos="2436" vol="100" pan="0"/>
          <note key="16" len="24" pos="2472" vol="100" pan="0"/>
          <note key="16" len="36" pos="2496" vol="100" pan="0"/>
          <note key="28" len="36" pos="2532" vol="100" pan="0"/>
          <note key="16" len="24" pos="2568" vol="100" pan="0"/>
          <note key="26" len="36" pos="2592" vol="100" pan="0"/>
          <note key="28" len="36" pos="2628" vol="100" pan="0"/>
          <note key="16" len="24" pos="2664" vol="100" pan="0"/>
          <note key="16" len="36" pos="2688" vol="100" pan="0"/>
          <note key="28" len="36" pos="2724" vol="100" pan="0"/>
          <note key="16" len="24" pos="2760" vol="100" pan="0"/>
          <note key="26" len="36" pos="2784" vol="100" pan="0"/>
          <note key="28" len="36" pos="2820" vol="100" pan="0"/>
          <note key="16" len="24" pos="2856" vol="100" pan="0"/>
          <note key="16" len="36" pos="2880" vol="100" pan="0"/>
          <note key="28" len="36" pos="2916" vol="100" pan="0"/>
          <note key="16" len="24" pos="2952" vol="100" pan="0"/>
          <note key="26" len="36" pos="2976" vol="100" pan="0"/>
          <note key="28" len="36" pos="3012" vol="100" pan="0"/>
          <note key="16" len="24" pos="3048" vol="100" pan="0"/>
        </pattern>
        <pattern type="1" name="" pos="8448" steps="16" muted="0">
          <note key="42" len="192" pos="0" vol="100" pan="0"/>
          <note key="39" len="192" pos="0" vol="100" pan="0"/>
          <note key="35" len="192" pos="0" vol="100" pan="0"/>
          <note key="55" len="60" pos="192" vol="100" pan="0"/>
          <note key="52" len="60" pos="192" vol="100" pan="0"/>
          <note key="48" len="60" pos="192" vol="100" pan="0"/>
          <note key="24" len="24" pos="192" vol="100" pan="0"/>
          <note key="19" len="12" pos="216" vol="100" pan="0"/>
          <note key="36" len="12" pos="228" vol="100" pan="0"/>
          <note key="52" len="36" pos="252" vol="100" pan="0"/>
          <note key="48" len="36" pos="252" vol="100" pan="0"/>
          <note key="43" len="36" pos="252" vol="100" pan="0"/>
          <note key="24" len="12" pos="252" vol="100" pan="0"/>
          <note key="24" len="12" pos="264" vol="100" pan="0"/>
          <note key="24" len="12" pos="276" vol="100" pan="0"/>
          <note key="57" len="48" pos="288" vol="100" pan="0"/>
          <note key="54" len="48" pos="288" vol="100" pan="0"/>
          <note key="50" len="48" pos="288" vol="100" pan="0"/>
          <note key="26" len="12" pos="288" vol="100" pan="0"/>
          <note key="24" len="12" pos="312" vol="100" pan="0"/>
          <note key="54" len="48" pos="336" vol="100" pan="0"/>
          <note key="50" len="48" pos="336" vol="100" pan="0"/>
          <note key="45" len="48" pos="336" vol="100" pan="0"/>
          <note key="26" len="12" pos="336" vol="100" pan="0"/>
          <note key="21" len="12" pos="360" vol="100" pan="0"/>
          <note key="54" len="60" pos="384" vol="100" pan="0"/>
          <note key="50" len="60" pos="384" vol="100" pan="0"/>
          <note key="47" len="60" pos="384" vol="100" pan="0"/>
          <note key="23" len="24" pos="384" vol="100" pan="0"/>
          <note key="18" len="12" pos="408" vol="100" pan="0"/>
          <note key="30" len="12" pos="420" vol="100" pan="0"/>
          <note key="50" len="36" pos="444" vol="100" pan="0"/>
          <note key="47" len="36" pos="444" vol="100" pan="0"/>
          <note key="42" len="36" pos="444" vol="100" pan="0"/>
          <note key="23" len="12" pos="444" vol="100" pan="0"/>
          <note key="23" len="12" pos="456" vol="100" pan="0"/>
          <note key="23" len="12" pos="468" vol="100" pan="0"/>
          <note key="55" len="96" pos="480" vol="100" pan="0"/>
          <note key="52" len="96" pos="480" vol="100" pan="0"/>
          <note key="48" len="96" pos="480" vol="100" pan="0"/>
          <note key="24" len="12" pos="480" vol="100" pan="0"/>
          <note key="23" len="12" pos="504" vol="100" pan="0"/>
          <note key="24" len="12" pos="528" vol="100" pan="0"/>
          <note key="19" len="12" pos="552" vol="100" pan="0"/>
          <note key="55" len="60" pos="576" vol="100" pan="0"/>
          <note key="52" len="60" pos="576" vol="100" pan="0"/>
          <note key="48" len="60" pos="576" vol="100" pan="0"/>
          <note key="24" len="24" pos="576" vol="100" pan="0"/>
          <note key="19" len="12" pos="600" vol="100" pan="0"/>
          <note key="36" len="12" pos="612" vol="100" pan="0"/>
          <note key="52" len="36" pos="636" vol="100" pan="0"/>
          <note key="48" len="36" pos="636" vol="100" pan="0"/>
          <note key="43" len="36" pos="636" vol="100" pan="0"/>
          <note key="24" len="12" pos="636" vol="100" pan="0"/>
          <note key="24" len="12" pos="648" vol="100" pan="0"/>
          <note key="24" len="12" pos="660" vol="100" pan="0"/>
          <note key="57" len="48" pos="672" vol="100" pan="0"/>
          <note key="54" len="48" pos="672" vol="100" pan="0"/>
          <note key="50" len="48" pos="672" vol="100" pan="0"/>
          <note key="26" len="12" pos="672" vol="100" pan="0"/>
          <note key="24" len="12" pos="696" vol="100" pan="0"/>
          <note key="54" len="48" pos="720" vol="100" pan="0"/>
          <note key="50" len="48" pos="720" vol="100" pan="0"/>
          <note key="45" len="48" pos="720" vol="100" pan="0"/>
          <note key="26" len="12" pos="720" vol="100" pan="0"/>
          <note key="21" len="12" pos="744" vol="100" pan="0"/>
          <note key="54" len="60" pos="768" vol="100" pan="0"/>
          <note key="50" len="60" pos="768" vol="100" pan="0"/>
          <note key="47" len="60" pos="768" vol="100" pan="0"/>
          <note key="23" len="24" pos="768" vol="100" pan="0"/>
          <note key="18" len="12" pos="792" vol="100" pan="0"/>
          <note key="30" len="12" pos="804" vol="100" pan="0"/>
          <note key="50" len="36" pos="828" vol="100" pan="0"/>
          <note key="47" len="36" pos="828" vol="100" pan="0"/>
          <note key="42" len="36" pos="828" vol="100" pan="0"/>
          <note key="23" len="12" pos="828" vol="100" pan="0"/>
          <note key="23" len="12" pos="840" vol="100" pan="0"/>
          <note key="23" len="12" pos="852" vol="100" pan="0"/>
          <note key="52" len="96" pos="864" vol="100" pan="0"/>
          <note key="49" len="96" pos="864" vol="100" pan="0"/>
          <note key="45" len="96" pos="864" vol="100" pan="0"/>
          <note key="21" len="12" pos="864" vol="100" pan="0"/>
          <note key="21" len="12" pos="876" vol="100" pan="0"/>
          <note key="21" len="12" pos="888" vol="100" pan="0"/>
          <note key="33" len="12" pos="900" vol="100" pan="0"/>
          <note key="21" len="12" pos="924" vol="100" pan="0"/>
          <note key="21" len="12" pos="936" vol="100" pan="0"/>
          <note key="55" len="36" pos="960" vol="100" pan="0"/>
          <note key="52" len="36" pos="960" vol="100" pan="0"/>
          <note key="47" len="36" pos="960" vol="100" pan="0"/>
          <note key="23" len="24" pos="960" vol="100" pan="0"/>
          <note key="23" len="12" pos="984" vol="100" pan="0"/>
          <note key="52" len="36" pos="996" vol="100" pan="0"/>
          <note key="47" len="36" pos="996" vol="100" pan="0"/>
          <note key="43" len="36" pos="996" vol="100" pan="0"/>
          <note key="23" len="12" pos="996" vol="100" pan="0"/>
          <note key="23" len="12" pos="1020" vol="100" pan="0"/>
          <note key="55" len="24" pos="1032" vol="100" pan="0"/>
          <note key="52" len="24" pos="1032" vol="100" pan="0"/>
          <note key="47" len="24" pos="1032" vol="100" pan="0"/>
          <note key="23" len="12" pos="1032" vol="100" pan="0"/>
          <note key="23" len="12" pos="1044" vol="100" pan="0"/>
          <note key="54" len="48" pos="1056" vol="100" pan="0"/>
          <note key="50" len="48" pos="1056" vol="100" pan="0"/>
          <note key="45" len="48" pos="1056" vol="100" pan="0"/>
          <note key="21" len="12" pos="1056" vol="100" pan="0"/>
          <note key="26" len="12" pos="1080" vol="100" pan="0"/>
          <note key="50" len="48" pos="1104" vol="100" pan="0"/>
          <note key="45" len="48" pos="1104" vol="100" pan="0"/>
          <note key="42" len="48" pos="1104" vol="100" pan="0"/>
          <note key="21" len="12" pos="1104" vol="100" pan="0"/>
          <note key="18" len="12" pos="1128" vol="100" pan="0"/>
          <note key="52" len="96" pos="1152" vol="100" pan="0"/>
          <note key="48" len="96" pos="1152" vol="100" pan="0"/>
          <note key="43" len="96" pos="1152" vol="100" pan="0"/>
          <note key="19" len="24" pos="1152" vol="100" pan="0"/>
          <note key="16" len="12" pos="1176" vol="100" pan="0"/>
          <note key="12" len="12" pos="1188" vol="100" pan="0"/>
          <note key="19" len="12" pos="1212" vol="100" pan="0"/>
          <note key="16" len="12" pos="1224" vol="100" pan="0"/>
          <note key="12" len="12" pos="1236" vol="100" pan="0"/>
          <note key="55" len="36" pos="1248" vol="100" pan="0"/>
          <note key="52" len="36" pos="1248" vol="100" pan="0"/>
          <note key="47" len="36" pos="1248" vol="100" pan="0"/>
          <note key="23" len="12" pos="1248" vol="100" pan="0"/>
          <note key="23" len="12" pos="1272" vol="100" pan="0"/>
          <note key="54" len="36" pos="1284" vol="100" pan="0"/>
          <note key="50" len="36" pos="1284" vol="100" pan="0"/>
          <note key="45" len="36" pos="1284" vol="100" pan="0"/>
          <note key="21" len="12" pos="1296" vol="100" pan="0"/>
          <note key="52" len="24" pos="1320" vol="100" pan="0"/>
          <note key="48" len="24" pos="1320" vol="100" pan="0"/>
          <note key="43" len="24" pos="1320" vol="100" pan="0"/>
          <note key="19" len="12" pos="1320" vol="100" pan="0"/>
          <note key="55" len="36" pos="1344" vol="100" pan="0"/>
          <note key="52" len="36" pos="1344" vol="100" pan="0"/>
          <note key="47" len="36" pos="1344" vol="100" pan="0"/>
          <note key="28" len="24" pos="1344" vol="100" pan="0"/>
          <note key="28" len="12" pos="1368" vol="100" pan="0"/>
          <note key="52" len="36" pos="1380" vol="100" pan="0"/>
          <note key="47" len="36" pos="1380" vol="100" pan="0"/>
          <note key="43" len="36" pos="1380" vol="100" pan="0"/>
          <note key="28" len="12" pos="1380" vol="100" pan="0"/>
          <note key="28" len="12" pos="1404" vol="100" pan="0"/>
          <note key="55" len="24" pos="1416" vol="100" pan="0"/>
          <note key="52" len="24" pos="1416" vol="100" pan="0"/>
          <note key="47" len="24" pos="1416" vol="100" pan="0"/>
          <note key="28" len="12" pos="1416" vol="100" pan="0"/>
          <note key="28" len="12" pos="1428" vol="100" pan="0"/>
          <note key="54" len="48" pos="1440" vol="100" pan="0"/>
          <note key="50" len="48" pos="1440" vol="100" pan="0"/>
          <note key="45" len="48" pos="1440" vol="100" pan="0"/>
          <note key="26" len="12" pos="1440" vol="100" pan="0"/>
          <note key="21" len="12" pos="1464" vol="100" pan="0"/>
          <note key="50" len="48" pos="1488" vol="100" pan="0"/>
          <note key="45" len="48" pos="1488" vol="100" pan="0"/>
          <note key="42" len="48" pos="1488" vol="100" pan="0"/>
          <note key="18" len="12" pos="1488" vol="100" pan="0"/>
          <note key="26" len="12" pos="1512" vol="100" pan="0"/>
          <note key="52" len="96" pos="1536" vol="100" pan="0"/>
          <note key="48" len="96" pos="1536" vol="100" pan="0"/>
          <note key="43" len="96" pos="1536" vol="100" pan="0"/>
          <note key="24" len="24" pos="1536" vol="100" pan="0"/>
          <note key="19" len="12" pos="1560" vol="100" pan="0"/>
          <note key="16" len="12" pos="1572" vol="100" pan="0"/>
          <note key="24" len="12" pos="1596" vol="100" pan="0"/>
          <note key="19" len="12" pos="1608" vol="100" pan="0"/>
          <note key="16" len="12" pos="1620" vol="100" pan="0"/>
          <note key="52" len="36" pos="1632" vol="100" pan="0"/>
          <note key="48" len="36" pos="1632" vol="100" pan="0"/>
          <note key="43" len="36" pos="1632" vol="100" pan="0"/>
          <note key="24" len="12" pos="1632" vol="100" pan="0"/>
          <note key="24" len="12" pos="1656" vol="100" pan="0"/>
          <note key="54" len="36" pos="1668" vol="100" pan="0"/>
          <note key="50" len="36" pos="1668" vol="100" pan="0"/>
          <note key="45" len="36" pos="1668" vol="100" pan="0"/>
          <note key="26" len="12" pos="1680" vol="100" pan="0"/>
          <note key="55" len="24" pos="1704" vol="100" pan="0"/>
          <note key="52" len="24" pos="1704" vol="100" pan="0"/>
          <note key="47" len="24" pos="1704" vol="100" pan="0"/>
          <note key="28" len="12" pos="1704" vol="100" pan="0"/>
          <note key="55" len="36" pos="1728" vol="100" pan="0"/>
          <note key="52" len="36" pos="1728" vol="100" pan="0"/>
          <note key="47" len="36" pos="1728" vol="100" pan="0"/>
          <note key="28" len="24" pos="1728" vol="100" pan="0"/>
          <note key="28" len="12" pos="1752" vol="100" pan="0"/>
          <note key="52" len="36" pos="1764" vol="100" pan="0"/>
          <note key="47" len="36" pos="1764" vol="100" pan="0"/>
          <note key="43" len="36" pos="1764" vol="100" pan="0"/>
          <note key="28" len="12" pos="1764" vol="100" pan="0"/>
          <note key="28" len="12" pos="1788" vol="100" pan="0"/>
          <note key="55" len="24" pos="1800" vol="100" pan="0"/>
          <note key="52" len="24" pos="1800" vol="100" pan="0"/>
          <note key="47" len="24" pos="1800" vol="100" pan="0"/>
          <note key="28" len="12" pos="1800" vol="100" pan="0"/>
          <note key="28" len="12" pos="1812" vol="100" pan="0"/>
          <note key="54" len="48" pos="1824" vol="100" pan="0"/>
          <note key="50" len="48" pos="1824" vol="100" pan="0"/>
          <note key="45" len="48" pos="1824" vol="100" pan="0"/>
          <note key="26" len="12" pos="1824" vol="100" pan="0"/>
          <note key="21" len="12" pos="1848" vol="100" pan="0"/>
          <note key="50" len="48" pos="1872" vol="100" pan="0"/>
          <note key="45" len="48" pos="1872" vol="100" pan="0"/>
          <note key="42" len="48" pos="1872" vol="100" pan="0"/>
          <note key="18" len="12" pos="1872" vol="100" pan="0"/>
          <note key="26" len="12" pos="1896" vol="100" pan="0"/>
          <note key="52" len="96" pos="1920" vol="100" pan="0"/>
          <note key="48" len="96" pos="1920" vol="100" pan="0"/>
          <note key="43" len="96" pos="1920" vol="100" pan="0"/>
          <note key="19" len="24" pos="1920" vol="100" pan="0"/>
          <note key="16" len="12" pos="1944" vol="100" pan="0"/>
          <note key="12" len="12" pos="1956" vol="100" pan="0"/>
          <note key="19" len="12" pos="1980" vol="100" pan="0"/>
          <note key="16" len="12" pos="1992" vol="100" pan="0"/>
          <note key="12" len="12" pos="2004" vol="100" pan="0"/>
          <note key="55" len="36" pos="2016" vol="100" pan="0"/>
          <note key="52" len="36" pos="2016" vol="100" pan="0"/>
          <note key="47" len="36" pos="2016" vol="100" pan="0"/>
          <note key="23" len="12" pos="2016" vol="100" pan="0"/>
          <note key="23" len="12" pos="2040" vol="100" pan="0"/>
          <note key="54" len="36" pos="2052" vol="100" pan="0"/>
          <note key="50" len="36" pos="2052" vol="100" pan="0"/>
          <note key="45" len="36" pos="2052" vol="100" pan="0"/>
          <note key="21" len="12" pos="2064" vol="100" pan="0"/>
          <note key="52" len="24" pos="2088" vol="100" pan="0"/>
          <note key="48" len="24" pos="2088" vol="100" pan="0"/>
          <note key="43" len="24" pos="2088" vol="100" pan="0"/>
          <note key="19" len="12" pos="2088" vol="100" pan="0"/>
          <note key="55" len="36" pos="2112" vol="100" pan="0"/>
          <note key="52" len="36" pos="2112" vol="100" pan="0"/>
          <note key="48" len="36" pos="2112" vol="100" pan="0"/>
          <note key="19" len="24" pos="2112" vol="100" pan="0"/>
          <note key="19" len="12" pos="2136" vol="100" pan="0"/>
          <note key="52" len="36" pos="2148" vol="100" pan="0"/>
          <note key="48" len="36" pos="2148" vol="100" pan="0"/>
          <note key="43" len="36" pos="2148" vol="100" pan="0"/>
          <note key="19" len="12" pos="2148" vol="100" pan="0"/>
          <note key="19" len="12" pos="2172" vol="100" pan="0"/>
          <note key="55" len="24" pos="2184" vol="100" pan="0"/>
          <note key="52" len="24" pos="2184" vol="100" pan="0"/>
          <note key="48" len="24" pos="2184" vol="100" pan="0"/>
          <note key="24" len="12" pos="2184" vol="100" pan="0"/>
          <note key="19" len="12" pos="2196" vol="100" pan="0"/>
          <note key="54" len="36" pos="2208" vol="100" pan="0"/>
          <note key="50" len="36" pos="2208" vol="100" pan="0"/>
          <note key="47" len="36" pos="2208" vol="100" pan="0"/>
          <note key="23" len="12" pos="2208" vol="100" pan="0"/>
          <note key="26" len="12" pos="2232" vol="100" pan="0"/>
          <note key="50" len="36" pos="2244" vol="100" pan="0"/>
          <note key="47" len="36" pos="2244" vol="100" pan="0"/>
          <note key="42" len="36" pos="2244" vol="100" pan="0"/>
          <note key="23" len="12" pos="2256" vol="100" pan="0"/>
          <note key="54" len="24" pos="2280" vol="100" pan="0"/>
          <note key="50" len="24" pos="2280" vol="100" pan="0"/>
          <note key="47" len="24" pos="2280" vol="100" pan="0"/>
          <note key="18" len="12" pos="2280" vol="100" pan="0"/>
          <note key="52" len="384" pos="2304" vol="100" pan="0"/>
          <note key="49" len="384" pos="2304" vol="100" pan="0"/>
          <note key="45" len="384" pos="2304" vol="100" pan="0"/>
          <note key="21" len="24" pos="2304" vol="100" pan="0"/>
          <note key="16" len="12" pos="2328" vol="100" pan="0"/>
          <note key="16" len="12" pos="2340" vol="100" pan="0"/>
          <note key="21" len="12" pos="2364" vol="100" pan="0"/>
          <note key="16" len="12" pos="2376" vol="100" pan="0"/>
          <note key="16" len="12" pos="2388" vol="100" pan="0"/>
          <note key="21" len="288" pos="2400" vol="100" pan="0"/>
        </pattern>
      </track>
      <track type="5" name="Piano Audio Control" solo="0" mutedBeforeSolo="0" muted="0">
        <automationtrack/>
        <automationpattern mute="0" name="Piano>Volume" pos="6336" len="768" prog="1" tens="1">
          <time value="100" pos="0" outValue="100"/>
          <time value="0" pos="768" outValue="0"/>
          <object id="24471"/>
        </automationpattern>
        <automationpattern mute="0" name="Piano>Volume" pos="0" len="192" prog="0" tens="1">
          <time value="100" pos="0" outValue="100"/>
          <object id="24471"/>
        </automationpattern>
        <automationpattern mute="0" name="Piano>Volume" pos="8448" len="192" prog="1" tens="1">
          <time value="0" pos="0" outValue="0"/>
          <time value="100.7" pos="192" outValue="100.7"/>
          <object id="24471"/>
        </automationpattern>
        <automationpattern mute="0" name="Piano>Volume" pos="10752" len="408" prog="1" tens="1">
          <time value="100" pos="0" outValue="100"/>
          <time value="0" pos="384" outValue="0"/>
          <object id="24471"/>
        </automationpattern>
      </track>
      <track type="0" name="Drums" solo="0" mutedBeforeSolo="0" muted="0">
        <instrumenttrack usemasterpitch="0" enablecc="0" pitch="0" fxch="6" firstkey="0" pitchrange="1" lastkey="127" pan="0" basenote="57">
          <vol scale_type="linear" value="100" id="7286"/>
          <midicontrollers cc30="0" cc106="0" cc11="0" cc111="0" cc79="0" cc86="0" cc94="0" cc41="0" cc105="0" cc48="0" cc38="0" cc72="0" cc44="0" cc4="0" cc28="0" cc102="0" cc113="0" cc7="0" cc84="0" cc99="0" cc29="0" cc123="0" cc55="0" cc40="0" cc20="0" cc65="0" cc82="0" cc0="0" cc92="0" cc10="0" cc45="0" cc59="0" cc81="0" cc103="0" cc112="0" cc63="0" cc124="0" cc22="0" cc21="0" cc9="0" cc116="0" cc47="0" cc49="0" cc119="0" cc97="0" cc117="0" cc80="0" cc76="0" cc126="0" cc93="0" cc90="0" cc54="0" cc89="0" cc120="0" cc34="0" cc32="0" cc3="0" cc71="0" cc35="0" cc16="0" cc73="0" cc53="0" cc70="0" cc37="0" cc14="0" cc25="0" cc110="0" cc51="0" cc98="0" cc50="0" cc42="0" cc91="0" cc95="0" cc77="0" cc96="0" cc100="0" cc43="0" cc23="0" cc78="0" cc57="0" cc125="0" cc36="0" cc6="0" cc62="0" cc24="0" cc61="0" cc68="0" cc108="0" cc19="0" cc58="0" cc52="0" cc87="0" cc12="0" cc122="0" cc83="0" cc121="0" cc13="0" cc74="0" cc115="0" cc31="0" cc101="0" cc107="0" cc114="0" cc64="0" cc26="0" cc15="0" cc69="0" cc118="0" cc5="0" cc17="0" cc2="0" cc104="0" cc109="0" cc60="0" cc75="0" cc67="0" cc127="0" cc66="0" cc33="0" cc85="0" cc39="0" cc18="0" cc8="0" cc46="0" cc1="0" cc27="0" cc56="0" cc88="0"/>
          <instrument name="vestige">
            <vestige guivisible="0" numparams="0" program="2" plugin="uservst:Instruments/Acoustica Studio Drums/Acoustica Studio Drums.dll">
              <key/>
            </vestige>
          </instrument>
          <eldata ftype="0" fres="0.5" fwet="0" fcut="14000">
            <elvol pdel="0" rel="0.1" latt="0" lshp="0" ctlenvamt="0" x100="0" lamt="0" userwavefile="" sustain="0.5" att="0" lpdel="0" amt="0" lspd_syncmode="0" hold="0.5" lspd="0.1" lspd_denominator="4" lspd_numerator="4" dec="0.5"/>
            <elcut pdel="0" rel="0.1" latt="0" lshp="0" ctlenvamt="0" x100="0" lamt="0" userwavefile="" sustain="0.5" att="0" lpdel="0" amt="0" lspd_syncmode="0" hold="0.5" lspd="0.1" lspd_denominator="4" lspd_numerator="4" dec="0.5"/>
            <elres pdel="0" rel="0.1" latt="0" lshp="0" ctlenvamt="0" x100="0" lamt="0" userwavefile="" sustain="0.5" att="0" lpdel="0" amt="0" lspd_syncmode="0" hold="0.5" lspd="0.1" lspd_denominator="4" lspd_numerator="4" dec="0.5"/>
          </eldata>
          <chordcreator chordrange="1" chord-enabled="0" chord="0"/>
          <arpeggiator arprepeats="1" arprange="1" arpdir="0" arp="0" arpmiss="0" arpskip="0" arpgate="100" arpcycle="0" arptime_denominator="4" arpmode="0" arp-enabled="0" arptime_syncmode="0" arptime="200" arptime_numerator="4"/>
          <midiport inputcontroller="0" basevelocity="63" writable="0" outputcontroller="0" fixedoutputnote="-1" readable="0" fixedinputvelocity="-1" outputprogram="1" inputchannel="0" fixedoutputvelocity="-1" outputchannel="1"/>
          <fxchain enabled="0" numofeffects="0"/>
        </instrumenttrack>
        <pattern type="1" name="" pos="6336" steps="16" muted="0">
          <note key="32" len="12" pos="24" vol="100" pan="0"/>
          <note key="32" len="12" pos="72" vol="100" pan="0"/>
          <note key="32" len="12" pos="120" vol="100" pan="0"/>
          <note key="32" len="12" pos="168" vol="100" pan="0"/>
          <note key="32" len="12" pos="216" vol="100" pan="0"/>
          <note key="32" len="12" pos="264" vol="100" pan="0"/>
          <note key="32" len="12" pos="312" vol="100" pan="0"/>
          <note key="32" len="12" pos="360" vol="100" pan="0"/>
          <note key="32" len="12" pos="408" vol="100" pan="0"/>
          <note key="32" len="12" pos="456" vol="100" pan="0"/>
          <note key="32" len="12" pos="504" vol="100" pan="0"/>
          <note key="32" len="12" pos="552" vol="100" pan="0"/>
          <note key="32" len="12" pos="600" vol="100" pan="0"/>
          <note key="32" len="12" pos="648" vol="100" pan="0"/>
          <note key="32" len="12" pos="696" vol="100" pan="0"/>
          <note key="32" len="12" pos="744" vol="100" pan="0"/>
          <note key="30" len="12" pos="768" vol="100" pan="0"/>
          <note key="32" len="12" pos="792" vol="100" pan="0"/>
          <note key="34" len="12" pos="804" vol="100" pan="0"/>
          <note key="32" len="12" pos="816" vol="100" pan="0"/>
          <note key="32" len="12" pos="840" vol="100" pan="0"/>
          <note key="30" len="12" pos="864" vol="100" pan="0"/>
          <note key="32" len="12" pos="888" vol="100" pan="0"/>
          <note key="34" len="12" pos="912" vol="100" pan="0"/>
          <note key="32" len="12" pos="936" vol="100" pan="0"/>
          <note key="30" len="12" pos="960" vol="100" pan="0"/>
          <note key="32" len="12" pos="984" vol="100" pan="0"/>
          <note key="34" len="12" pos="996" vol="100" pan="0"/>
          <note key="32" len="12" pos="1008" vol="100" pan="0"/>
          <note key="32" len="12" pos="1032" vol="100" pan="0"/>
          <note key="30" len="12" pos="1056" vol="100" pan="0"/>
          <note key="32" len="12" pos="1080" vol="100" pan="0"/>
          <note key="34" len="12" pos="1104" vol="100" pan="0"/>
          <note key="34" len="12" pos="1116" vol="100" pan="0"/>
          <note key="30" len="12" pos="1128" vol="100" pan="0"/>
          <note key="30" len="12" pos="1152" vol="100" pan="0"/>
          <note key="32" len="12" pos="1176" vol="100" pan="0"/>
          <note key="34" len="12" pos="1188" vol="100" pan="0"/>
          <note key="32" len="12" pos="1200" vol="100" pan="0"/>
          <note key="32" len="12" pos="1224" vol="100" pan="0"/>
          <note key="30" len="12" pos="1248" vol="100" pan="0"/>
          <note key="32" len="12" pos="1272" vol="100" pan="0"/>
          <note key="34" len="12" pos="1296" vol="100" pan="0"/>
          <note key="32" len="12" pos="1320" vol="100" pan="0"/>
          <note key="30" len="12" pos="1344" vol="100" pan="0"/>
          <note key="32" len="12" pos="1368" vol="100" pan="0"/>
          <note key="34" len="12" pos="1380" vol="100" pan="0"/>
          <note key="32" len="12" pos="1392" vol="100" pan="0"/>
          <note key="32" len="12" pos="1416" vol="100" pan="0"/>
          <note key="30" len="12" pos="1440" vol="100" pan="0"/>
          <note key="32" len="12" pos="1464" vol="100" pan="0"/>
          <note key="34" len="12" pos="1488" vol="100" pan="0"/>
          <note key="34" len="12" pos="1500" vol="100" pan="0"/>
          <note key="30" len="12" pos="1512" vol="100" pan="0"/>
          <note key="30" len="12" pos="1536" vol="100" pan="0"/>
          <note key="32" len="12" pos="1560" vol="100" pan="0"/>
          <note key="34" len="12" pos="1572" vol="100" pan="0"/>
          <note key="32" len="12" pos="1584" vol="100" pan="0"/>
          <note key="32" len="12" pos="1608" vol="100" pan="0"/>
          <note key="30" len="12" pos="1632" vol="100" pan="0"/>
          <note key="32" len="12" pos="1656" vol="100" pan="0"/>
          <note key="34" len="12" pos="1680" vol="100" pan="0"/>
          <note key="32" len="12" pos="1704" vol="100" pan="0"/>
          <note key="30" len="12" pos="1728" vol="100" pan="0"/>
          <note key="32" len="12" pos="1752" vol="100" pan="0"/>
          <note key="34" len="12" pos="1764" vol="100" pan="0"/>
          <note key="32" len="12" pos="1776" vol="100" pan="0"/>
          <note key="32" len="12" pos="1800" vol="100" pan="0"/>
          <note key="30" len="12" pos="1824" vol="100" pan="0"/>
          <note key="32" len="12" pos="1848" vol="100" pan="0"/>
          <note key="34" len="12" pos="1872" vol="100" pan="0"/>
          <note key="34" len="12" pos="1884" vol="100" pan="0"/>
          <note key="30" len="12" pos="1896" vol="100" pan="0"/>
          <note key="30" len="12" pos="1920" vol="100" pan="0"/>
          <note key="32" len="12" pos="1944" vol="100" pan="0"/>
          <note key="34" len="12" pos="1956" vol="100" pan="0"/>
          <note key="32" len="12" pos="1968" vol="100" pan="0"/>
          <note key="32" len="12" pos="1992" vol="100" pan="0"/>
          <note key="30" len="12" pos="2016" vol="100" pan="0"/>
          <note key="32" len="12" pos="2040" vol="100" pan="0"/>
          <note key="34" len="12" pos="2064" vol="100" pan="0"/>
          <note key="32" len="12" pos="2088" vol="100" pan="0"/>
          <note key="30" len="12" pos="2112" vol="100" pan="0"/>
          <note key="32" len="12" pos="2136" vol="100" pan="0"/>
          <note key="34" len="12" pos="2148" vol="100" pan="0"/>
          <note key="32" len="12" pos="2160" vol="100" pan="0"/>
          <note key="32" len="12" pos="2184" vol="100" pan="0"/>
          <note key="30" len="12" pos="2208" vol="100" pan="0"/>
          <note key="32" len="12" pos="2232" vol="100" pan="0"/>
          <note key="34" len="12" pos="2256" vol="100" pan="0"/>
          <note key="34" len="12" pos="2268" vol="100" pan="0"/>
          <note key="30" len="12" pos="2280" vol="100" pan="0"/>
          <note key="34" len="12" pos="2304" vol="100" pan="0"/>
          <note key="23" len="12" pos="2304" vol="100" pan="0"/>
          <note key="32" len="12" pos="2328" vol="100" pan="0"/>
          <note key="34" len="12" pos="2340" vol="100" pan="0"/>
          <note key="28" len="12" pos="2352" vol="100" pan="0"/>
          <note key="23" len="12" pos="2352" vol="100" pan="0"/>
          <note key="32" len="12" pos="2364" vol="100" pan="0"/>
          <note key="32" len="12" pos="2376" vol="100" pan="0"/>
          <note key="32" len="12" pos="2388" vol="100" pan="0"/>
          <note key="32" len="12" pos="2400" vol="100" pan="0"/>
          <note key="23" len="12" pos="2400" vol="100" pan="0"/>
          <note key="34" len="12" pos="2424" vol="100" pan="0"/>
          <note key="32" len="12" pos="2448" vol="100" pan="0"/>
          <note key="28" len="12" pos="2448" vol="100" pan="0"/>
          <note key="23" len="12" pos="2448" vol="100" pan="0"/>
          <note key="34" len="12" pos="2472" vol="100" pan="0"/>
          <note key="31" len="12" pos="2484" vol="100" pan="0"/>
          <note key="34" len="12" pos="2496" vol="100" pan="0"/>
          <note key="23" len="12" pos="2496" vol="100" pan="0"/>
          <note key="32" len="12" pos="2520" vol="100" pan="0"/>
          <note key="34" len="12" pos="2532" vol="100" pan="0"/>
          <note key="28" len="12" pos="2544" vol="100" pan="0"/>
          <note key="23" len="12" pos="2544" vol="100" pan="0"/>
          <note key="32" len="12" pos="2556" vol="100" pan="0"/>
          <note key="32" len="12" pos="2568" vol="100" pan="0"/>
          <note key="32" len="12" pos="2580" vol="100" pan="0"/>
          <note key="32" len="12" pos="2592" vol="100" pan="0"/>
          <note key="23" len="12" pos="2592" vol="100" pan="0"/>
          <note key="34" len="12" pos="2616" vol="100" pan="0"/>
          <note key="32" len="12" pos="2640" vol="100" pan="0"/>
          <note key="28" len="12" pos="2640" vol="100" pan="0"/>
          <note key="23" len="12" pos="2640" vol="100" pan="0"/>
          <note key="34" len="12" pos="2664" vol="100" pan="0"/>
          <note key="31" len="12" pos="2676" vol="100" pan="0"/>
          <note key="34" len="12" pos="2688" vol="100" pan="0"/>
          <note key="23" len="12" pos="2688" vol="100" pan="0"/>
          <note key="32" len="12" pos="2712" vol="100" pan="0"/>
          <note key="34" len="12" pos="2724" vol="100" pan="0"/>
          <note key="28" len="12" pos="2736" vol="100" pan="0"/>
          <note key="23" len="12" pos="2736" vol="100" pan="0"/>
          <note key="32" len="12" pos="2748" vol="100" pan="0"/>
          <note key="32" len="12" pos="2760" vol="100" pan="0"/>
          <note key="32" len="12" pos="2772" vol="100" pan="0"/>
          <note key="32" len="12" pos="2784" vol="100" pan="0"/>
          <note key="23" len="12" pos="2784" vol="100" pan="0"/>
          <note key="34" len="12" pos="2808" vol="100" pan="0"/>
          <note key="32" len="12" pos="2832" vol="100" pan="0"/>
          <note key="28" len="12" pos="2832" vol="100" pan="0"/>
          <note key="23" len="12" pos="2832" vol="100" pan="0"/>
          <note key="34" len="12" pos="2856" vol="100" pan="0"/>
          <note key="31" len="12" pos="2868" vol="100" pan="0"/>
          <note key="34" len="12" pos="2880" vol="100" pan="0"/>
          <note key="23" len="12" pos="2880" vol="100" pan="0"/>
          <note key="32" len="12" pos="2904" vol="100" pan="0"/>
          <note key="34" len="12" pos="2916" vol="100" pan="0"/>
          <note key="28" len="12" pos="2928" vol="100" pan="0"/>
          <note key="23" len="12" pos="2928" vol="100" pan="0"/>
          <note key="32" len="12" pos="2940" vol="100" pan="0"/>
          <note key="32" len="12" pos="2952" vol="100" pan="0"/>
          <note key="32" len="12" pos="2964" vol="100" pan="0"/>
          <note key="38" len="12" pos="2976" vol="100" pan="0"/>
          <note key="32" len="12" pos="2976" vol="100" pan="0"/>
          <note key="23" len="12" pos="2976" vol="100" pan="0"/>
          <note key="36" len="12" pos="2988" vol="100" pan="0"/>
          <note key="34" len="12" pos="3000" vol="100" pan="0"/>
          <note key="33" len="12" pos="3000" vol="100" pan="0"/>
          <note key="36" len="12" pos="3012" vol="100" pan="0"/>
          <note key="33" len="12" pos="3024" vol="100" pan="0"/>
          <note key="32" len="12" pos="3024" vol="100" pan="0"/>
          <note key="28" len="12" pos="3024" vol="100" pan="0"/>
          <note key="23" len="12" pos="3024" vol="100" pan="0"/>
          <note key="29" len="12" pos="3036" vol="100" pan="0"/>
          <note key="34" len="12" pos="3048" vol="100" pan="0"/>
          <note key="31" len="12" pos="3060" vol="100" pan="0"/>
          <note key="34" len="12" pos="3072" vol="100" pan="0"/>
          <note key="23" len="12" pos="3072" vol="100" pan="0"/>
          <note key="32" len="12" pos="3096" vol="100" pan="0"/>
          <note key="34" len="12" pos="3108" vol="100" pan="0"/>
          <note key="28" len="12" pos="3120" vol="100" pan="0"/>
          <note key="23" len="12" pos="3120" vol="100" pan="0"/>
          <note key="32" len="12" pos="3132" vol="100" pan="0"/>
          <note key="32" len="12" pos="3144" vol="100" pan="0"/>
          <note key="32" len="12" pos="3156" vol="100" pan="0"/>
          <note key="32" len="12" pos="3168" vol="100" pan="0"/>
          <note key="23" len="12" pos="3168" vol="100" pan="0"/>
          <note key="34" len="12" pos="3192" vol="100" pan="0"/>
          <note key="28" len="12" pos="3192" vol="100" pan="0"/>
          <note key="32" len="12" pos="3216" vol="100" pan="0"/>
          <note key="28" len="12" pos="3216" vol="100" pan="0"/>
          <note key="23" len="12" pos="3216" vol="100" pan="0"/>
          <note key="34" len="12" pos="3240" vol="100" pan="0"/>
          <note key="28" len="12" pos="3240" vol="100" pan="0"/>
          <note key="31" len="12" pos="3252" vol="100" pan="0"/>
          <note key="34" len="12" pos="3264" vol="100" pan="0"/>
          <note key="23" len="12" pos="3264" vol="100" pan="0"/>
          <note key="32" len="12" pos="3288" vol="100" pan="0"/>
          <note key="34" len="12" pos="3300" vol="100" pan="0"/>
          <note key="28" len="12" pos="3312" vol="100" pan="0"/>
          <note key="23" len="12" pos="3312" vol="100" pan="0"/>
          <note key="32" len="12" pos="3324" vol="100" pan="0"/>
          <note key="32" len="12" pos="3336" vol="100" pan="0"/>
          <note key="32" len="12" pos="3348" vol="100" pan="0"/>
          <note key="32" len="12" pos="3360" vol="100" pan="0"/>
          <note key="28" len="12" pos="3360" vol="100" pan="0"/>
          <note key="23" len="12" pos="3360" vol="100" pan="0"/>
          <note key="34" len="12" pos="3384" vol="100" pan="0"/>
          <note key="28" len="12" pos="3396" vol="100" pan="0"/>
          <note key="32" len="12" pos="3408" vol="100" pan="0"/>
          <note key="23" len="12" pos="3408" vol="100" pan="0"/>
          <note key="34" len="12" pos="3432" vol="100" pan="0"/>
          <note key="29" len="12" pos="3432" vol="100" pan="0"/>
          <note key="31" len="12" pos="3444" vol="100" pan="0"/>
          <note key="34" len="12" pos="3456" vol="100" pan="0"/>
          <note key="23" len="12" pos="3456" vol="100" pan="0"/>
          <note key="32" len="12" pos="3480" vol="100" pan="0"/>
          <note key="34" len="12" pos="3492" vol="100" pan="0"/>
          <note key="28" len="12" pos="3504" vol="100" pan="0"/>
          <note key="23" len="12" pos="3504" vol="100" pan="0"/>
          <note key="32" len="12" pos="3516" vol="100" pan="0"/>
          <note key="32" len="12" pos="3528" vol="100" pan="0"/>
          <note key="32" len="12" pos="3540" vol="100" pan="0"/>
          <note key="32" len="12" pos="3552" vol="100" pan="0"/>
          <note key="23" len="12" pos="3552" vol="100" pan="0"/>
          <note key="34" len="12" pos="3576" vol="100" pan="0"/>
          <note key="28" len="12" pos="3576" vol="100" pan="0"/>
          <note key="32" len="12" pos="3600" vol="100" pan="0"/>
          <note key="28" len="12" pos="3600" vol="100" pan="0"/>
          <note key="23" len="12" pos="3600" vol="100" pan="0"/>
          <note key="34" len="12" pos="3624" vol="100" pan="0"/>
          <note key="28" len="12" pos="3624" vol="100" pan="0"/>
          <note key="31" len="12" pos="3636" vol="100" pan="0"/>
          <note key="34" len="12" pos="3648" vol="100" pan="0"/>
          <note key="23" len="12" pos="3648" vol="100" pan="0"/>
          <note key="32" len="12" pos="3672" vol="100" pan="0"/>
          <note key="34" len="12" pos="3684" vol="100" pan="0"/>
          <note key="28" len="12" pos="3696" vol="100" pan="0"/>
          <note key="23" len="12" pos="3696" vol="100" pan="0"/>
          <note key="32" len="12" pos="3708" vol="100" pan="0"/>
          <note key="32" len="12" pos="3720" vol="100" pan="0"/>
          <note key="32" len="12" pos="3732" vol="100" pan="0"/>
          <note key="32" len="12" pos="3744" vol="100" pan="0"/>
          <note key="28" len="12" pos="3744" vol="100" pan="0"/>
          <note key="23" len="12" pos="3744" vol="100" pan="0"/>
          <note key="34" len="12" pos="3768" vol="100" pan="0"/>
          <note key="28" len="12" pos="3780" vol="100" pan="0"/>
          <note key="32" len="12" pos="3792" vol="100" pan="0"/>
          <note key="23" len="12" pos="3792" vol="100" pan="0"/>
          <note key="34" len="12" pos="3816" vol="100" pan="0"/>
          <note key="28" len="12" pos="3816" vol="100" pan="0"/>
          <note key="31" len="12" pos="3828" vol="100" pan="0"/>
          <note key="34" len="12" pos="3840" vol="100" pan="0"/>
          <note key="23" len="12" pos="3840" vol="100" pan="0"/>
          <note key="32" len="12" pos="3864" vol="100" pan="0"/>
          <note key="34" len="12" pos="3876" vol="100" pan="0"/>
          <note key="28" len="12" pos="3888" vol="100" pan="0"/>
          <note key="23" len="12" pos="3888" vol="100" pan="0"/>
          <note key="32" len="12" pos="3900" vol="100" pan="0"/>
          <note key="32" len="12" pos="3912" vol="100" pan="0"/>
          <note key="32" len="12" pos="3924" vol="100" pan="0"/>
          <note key="32" len="12" pos="3936" vol="100" pan="0"/>
          <note key="23" len="12" pos="3936" vol="100" pan="0"/>
          <note key="34" len="12" pos="3960" vol="100" pan="0"/>
          <note key="28" len="12" pos="3960" vol="100" pan="0"/>
          <note key="32" len="12" pos="3984" vol="100" pan="0"/>
          <note key="28" len="12" pos="3984" vol="100" pan="0"/>
          <note key="23" len="12" pos="3984" vol="100" pan="0"/>
          <note key="34" len="12" pos="4008" vol="100" pan="0"/>
          <note key="28" len="12" pos="4008" vol="100" pan="0"/>
          <note key="31" len="12" pos="4020" vol="100" pan="0"/>
          <note key="34" len="12" pos="4032" vol="100" pan="0"/>
          <note key="23" len="12" pos="4032" vol="100" pan="0"/>
          <note key="32" len="12" pos="4056" vol="100" pan="0"/>
          <note key="34" len="12" pos="4068" vol="100" pan="0"/>
          <note key="28" len="12" pos="4080" vol="100" pan="0"/>
          <note key="23" len="12" pos="4080" vol="100" pan="0"/>
          <note key="32" len="12" pos="4092" vol="100" pan="0"/>
          <note key="32" len="12" pos="4104" vol="100" pan="0"/>
          <note key="32" len="12" pos="4116" vol="100" pan="0"/>
          <note key="32" len="12" pos="4128" vol="100" pan="0"/>
          <note key="28" len="12" pos="4128" vol="100" pan="0"/>
          <note key="23" len="12" pos="4128" vol="100" pan="0"/>
          <note key="34" len="12" pos="4152" vol="100" pan="0"/>
          <note key="28" len="12" pos="4164" vol="100" pan="0"/>
          <note key="32" len="12" pos="4176" vol="100" pan="0"/>
          <note key="23" len="12" pos="4176" vol="100" pan="0"/>
          <note key="34" len="12" pos="4200" vol="100" pan="0"/>
          <note key="29" len="12" pos="4200" vol="100" pan="0"/>
          <note key="31" len="12" pos="4212" vol="100" pan="0"/>
          <note key="34" len="12" pos="4224" vol="100" pan="0"/>
          <note key="23" len="12" pos="4224" vol="100" pan="0"/>
          <note key="32" len="12" pos="4248" vol="100" pan="0"/>
          <note key="34" len="12" pos="4260" vol="100" pan="0"/>
          <note key="28" len="12" pos="4272" vol="100" pan="0"/>
          <note key="23" len="12" pos="4272" vol="100" pan="0"/>
          <note key="32" len="12" pos="4284" vol="100" pan="0"/>
          <note key="32" len="12" pos="4296" vol="100" pan="0"/>
          <note key="32" len="12" pos="4308" vol="100" pan="0"/>
          <note key="32" len="12" pos="4320" vol="100" pan="0"/>
          <note key="23" len="12" pos="4320" vol="100" pan="0"/>
          <note key="34" len="12" pos="4344" vol="100" pan="0"/>
          <note key="28" len="12" pos="4344" vol="100" pan="0"/>
          <note key="32" len="12" pos="4368" vol="100" pan="0"/>
          <note key="28" len="12" pos="4368" vol="100" pan="0"/>
          <note key="23" len="12" pos="4368" vol="100" pan="0"/>
          <note key="34" len="12" pos="4392" vol="100" pan="0"/>
          <note key="28" len="12" pos="4392" vol="100" pan="0"/>
          <note key="31" len="12" pos="4404" vol="100" pan="0"/>
          <note key="34" len="12" pos="4416" vol="100" pan="0"/>
          <note key="23" len="12" pos="4416" vol="100" pan="0"/>
          <note key="32" len="12" pos="4440" vol="100" pan="0"/>
          <note key="34" len="12" pos="4452" vol="100" pan="0"/>
          <note key="28" len="12" pos="4464" vol="100" pan="0"/>
          <note key="23" len="12" pos="4464" vol="100" pan="0"/>
          <note key="32" len="12" pos="4476" vol="100" pan="0"/>
          <note key="32" len="12" pos="4488" vol="100" pan="0"/>
          <note key="32" len="12" pos="4500" vol="100" pan="0"/>
        </pattern>
        <pattern type="1" name="" pos="768" steps="16" muted="0">
          <note key="34" len="12" pos="0" vol="100" pan="0"/>
          <note key="23" len="12" pos="0" vol="100" pan="0"/>
          <note key="32" len="12" pos="24" vol="100" pan="0"/>
          <note key="34" len="12" pos="36" vol="100" pan="0"/>
          <note key="28" len="12" pos="48" vol="100" pan="0"/>
          <note key="23" len="12" pos="48" vol="100" pan="0"/>
          <note key="32" len="12" pos="60" vol="100" pan="0"/>
          <note key="32" len="12" pos="72" vol="100" pan="0"/>
          <note key="32" len="12" pos="84" vol="100" pan="0"/>
          <note key="32" len="12" pos="96" vol="100" pan="0"/>
          <note key="23" len="12" pos="96" vol="100" pan="0"/>
          <note key="34" len="12" pos="120" vol="100" pan="0"/>
          <note key="32" len="12" pos="144" vol="100" pan="0"/>
          <note key="28" len="12" pos="144" vol="100" pan="0"/>
          <note key="23" len="12" pos="144" vol="100" pan="0"/>
          <note key="34" len="12" pos="168" vol="100" pan="0"/>
          <note key="31" len="12" pos="180" vol="100" pan="0"/>
          <note key="34" len="12" pos="192" vol="100" pan="0"/>
          <note key="23" len="12" pos="192" vol="100" pan="0"/>
          <note key="32" len="12" pos="216" vol="100" pan="0"/>
          <note key="34" len="12" pos="228" vol="100" pan="0"/>
          <note key="28" len="12" pos="240" vol="100" pan="0"/>
          <note key="23" len="12" pos="240" vol="100" pan="0"/>
          <note key="32" len="12" pos="252" vol="100" pan="0"/>
          <note key="32" len="12" pos="264" vol="100" pan="0"/>
          <note key="32" len="12" pos="276" vol="100" pan="0"/>
          <note key="32" len="12" pos="288" vol="100" pan="0"/>
          <note key="23" len="12" pos="288" vol="100" pan="0"/>
          <note key="34" len="12" pos="312" vol="100" pan="0"/>
          <note key="32" len="12" pos="336" vol="100" pan="0"/>
          <note key="28" len="12" pos="336" vol="100" pan="0"/>
          <note key="23" len="12" pos="336" vol="100" pan="0"/>
          <note key="34" len="12" pos="360" vol="100" pan="0"/>
          <note key="31" len="12" pos="372" vol="100" pan="0"/>
          <note key="34" len="12" pos="384" vol="100" pan="0"/>
          <note key="23" len="12" pos="384" vol="100" pan="0"/>
          <note key="32" len="12" pos="408" vol="100" pan="0"/>
          <note key="34" len="12" pos="420" vol="100" pan="0"/>
          <note key="28" len="12" pos="432" vol="100" pan="0"/>
          <note key="23" len="12" pos="432" vol="100" pan="0"/>
          <note key="32" len="12" pos="444" vol="100" pan="0"/>
          <note key="32" len="12" pos="456" vol="100" pan="0"/>
          <note key="32" len="12" pos="468" vol="100" pan="0"/>
          <note key="32" len="12" pos="480" vol="100" pan="0"/>
          <note key="23" len="12" pos="480" vol="100" pan="0"/>
          <note key="34" len="12" pos="504" vol="100" pan="0"/>
          <note key="32" len="12" pos="528" vol="100" pan="0"/>
          <note key="28" len="12" pos="528" vol="100" pan="0"/>
          <note key="23" len="12" pos="528" vol="100" pan="0"/>
          <note key="34" len="12" pos="552" vol="100" pan="0"/>
          <note key="31" len="12" pos="564" vol="100" pan="0"/>
          <note key="34" len="12" pos="576" vol="100" pan="0"/>
          <note key="23" len="12" pos="576" vol="100" pan="0"/>
          <note key="32" len="12" pos="600" vol="100" pan="0"/>
          <note key="34" len="12" pos="612" vol="100" pan="0"/>
          <note key="28" len="12" pos="624" vol="100" pan="0"/>
          <note key="23" len="12" pos="624" vol="100" pan="0"/>
          <note key="32" len="12" pos="636" vol="100" pan="0"/>
          <note key="32" len="12" pos="648" vol="100" pan="0"/>
          <note key="32" len="12" pos="660" vol="100" pan="0"/>
          <note key="38" len="12" pos="672" vol="100" pan="0"/>
          <note key="32" len="12" pos="672" vol="100" pan="0"/>
          <note key="23" len="12" pos="672" vol="100" pan="0"/>
          <note key="36" len="12" pos="684" vol="100" pan="0"/>
          <note key="34" len="12" pos="696" vol="100" pan="0"/>
          <note key="33" len="12" pos="696" vol="100" pan="0"/>
          <note key="36" len="12" pos="708" vol="100" pan="0"/>
          <note key="33" len="12" pos="720" vol="100" pan="0"/>
          <note key="32" len="12" pos="720" vol="100" pan="0"/>
          <note key="28" len="12" pos="720" vol="100" pan="0"/>
          <note key="23" len="12" pos="720" vol="100" pan="0"/>
          <note key="29" len="12" pos="732" vol="100" pan="0"/>
          <note key="34" len="12" pos="744" vol="100" pan="0"/>
          <note key="31" len="12" pos="756" vol="100" pan="0"/>
          <note key="34" len="12" pos="768" vol="100" pan="0"/>
          <note key="23" len="12" pos="768" vol="100" pan="0"/>
          <note key="32" len="12" pos="792" vol="100" pan="0"/>
          <note key="34" len="12" pos="804" vol="100" pan="0"/>
          <note key="28" len="12" pos="816" vol="100" pan="0"/>
          <note key="23" len="12" pos="816" vol="100" pan="0"/>
          <note key="32" len="12" pos="828" vol="100" pan="0"/>
          <note key="32" len="12" pos="840" vol="100" pan="0"/>
          <note key="32" len="12" pos="852" vol="100" pan="0"/>
          <note key="32" len="12" pos="864" vol="100" pan="0"/>
          <note key="23" len="12" pos="864" vol="100" pan="0"/>
          <note key="34" len="12" pos="888" vol="100" pan="0"/>
          <note key="32" len="12" pos="912" vol="100" pan="0"/>
          <note key="28" len="12" pos="912" vol="100" pan="0"/>
          <note key="23" len="12" pos="912" vol="100" pan="0"/>
          <note key="34" len="12" pos="936" vol="100" pan="0"/>
          <note key="31" len="12" pos="948" vol="100" pan="0"/>
          <note key="34" len="12" pos="960" vol="100" pan="0"/>
          <note key="23" len="12" pos="960" vol="100" pan="0"/>
          <note key="32" len="12" pos="984" vol="100" pan="0"/>
          <note key="34" len="12" pos="996" vol="100" pan="0"/>
          <note key="28" len="12" pos="1008" vol="100" pan="0"/>
          <note key="23" len="12" pos="1008" vol="100" pan="0"/>
          <note key="32" len="12" pos="1020" vol="100" pan="0"/>
          <note key="32" len="12" pos="1032" vol="100" pan="0"/>
          <note key="32" len="12" pos="1044" vol="100" pan="0"/>
          <note key="32" len="12" pos="1056" vol="100" pan="0"/>
          <note key="23" len="12" pos="1056" vol="100" pan="0"/>
          <note key="34" len="12" pos="1080" vol="100" pan="0"/>
          <note key="32" len="12" pos="1104" vol="100" pan="0"/>
          <note key="28" len="12" pos="1104" vol="100" pan="0"/>
          <note key="23" len="12" pos="1104" vol="100" pan="0"/>
          <note key="34" len="12" pos="1128" vol="100" pan="0"/>
          <note key="31" len="12" pos="1140" vol="100" pan="0"/>
          <note key="34" len="12" pos="1152" vol="100" pan="0"/>
          <note key="23" len="12" pos="1152" vol="100" pan="0"/>
          <note key="32" len="12" pos="1176" vol="100" pan="0"/>
          <note key="34" len="12" pos="1188" vol="100" pan="0"/>
          <note key="28" len="12" pos="1200" vol="100" pan="0"/>
          <note key="23" len="12" pos="1200" vol="100" pan="0"/>
          <note key="32" len="12" pos="1212" vol="100" pan="0"/>
          <note key="32" len="12" pos="1224" vol="100" pan="0"/>
          <note key="32" len="12" pos="1236" vol="100" pan="0"/>
          <note key="32" len="12" pos="1248" vol="100" pan="0"/>
          <note key="23" len="12" pos="1248" vol="100" pan="0"/>
          <note key="34" len="12" pos="1272" vol="100" pan="0"/>
          <note key="32" len="12" pos="1296" vol="100" pan="0"/>
          <note key="28" len="12" pos="1296" vol="100" pan="0"/>
          <note key="23" len="12" pos="1296" vol="100" pan="0"/>
          <note key="34" len="12" pos="1320" vol="100" pan="0"/>
          <note key="31" len="12" pos="1332" vol="100" pan="0"/>
          <note key="34" len="12" pos="1344" vol="100" pan="0"/>
          <note key="23" len="12" pos="1344" vol="100" pan="0"/>
          <note key="32" len="12" pos="1368" vol="100" pan="0"/>
          <note key="34" len="12" pos="1380" vol="100" pan="0"/>
          <note key="28" len="12" pos="1392" vol="100" pan="0"/>
          <note key="23" len="12" pos="1392" vol="100" pan="0"/>
          <note key="32" len="12" pos="1404" vol="100" pan="0"/>
          <note key="32" len="12" pos="1416" vol="100" pan="0"/>
          <note key="32" len="12" pos="1428" vol="100" pan="0"/>
          <note key="38" len="12" pos="1440" vol="100" pan="0"/>
          <note key="32" len="12" pos="1440" vol="100" pan="0"/>
          <note key="23" len="12" pos="1440" vol="100" pan="0"/>
          <note key="36" len="12" pos="1452" vol="100" pan="0"/>
          <note key="34" len="12" pos="1464" vol="100" pan="0"/>
          <note key="33" len="12" pos="1464" vol="100" pan="0"/>
          <note key="36" len="12" pos="1476" vol="100" pan="0"/>
          <note key="33" len="12" pos="1488" vol="100" pan="0"/>
          <note key="32" len="12" pos="1488" vol="100" pan="0"/>
          <note key="28" len="12" pos="1488" vol="100" pan="0"/>
          <note key="23" len="12" pos="1488" vol="100" pan="0"/>
          <note key="29" len="12" pos="1500" vol="100" pan="0"/>
          <note key="34" len="12" pos="1512" vol="100" pan="0"/>
          <note key="31" len="12" pos="1524" vol="100" pan="0"/>
          <note key="34" len="12" pos="1536" vol="100" pan="0"/>
          <note key="23" len="12" pos="1536" vol="100" pan="0"/>
          <note key="32" len="12" pos="1560" vol="100" pan="0"/>
          <note key="34" len="12" pos="1572" vol="100" pan="0"/>
          <note key="28" len="12" pos="1584" vol="100" pan="0"/>
          <note key="23" len="12" pos="1584" vol="100" pan="0"/>
          <note key="32" len="12" pos="1596" vol="100" pan="0"/>
          <note key="32" len="12" pos="1608" vol="100" pan="0"/>
          <note key="32" len="12" pos="1620" vol="100" pan="0"/>
          <note key="32" len="12" pos="1632" vol="100" pan="0"/>
          <note key="23" len="12" pos="1632" vol="100" pan="0"/>
          <note key="34" len="12" pos="1656" vol="100" pan="0"/>
          <note key="28" len="12" pos="1656" vol="100" pan="0"/>
          <note key="32" len="12" pos="1680" vol="100" pan="0"/>
          <note key="28" len="12" pos="1680" vol="100" pan="0"/>
          <note key="23" len="12" pos="1680" vol="100" pan="0"/>
          <note key="34" len="12" pos="1704" vol="100" pan="0"/>
          <note key="28" len="12" pos="1704" vol="100" pan="0"/>
          <note key="31" len="12" pos="1716" vol="100" pan="0"/>
          <note key="34" len="12" pos="1728" vol="100" pan="0"/>
          <note key="23" len="12" pos="1728" vol="100" pan="0"/>
          <note key="32" len="12" pos="1752" vol="100" pan="0"/>
          <note key="34" len="12" pos="1764" vol="100" pan="0"/>
          <note key="28" len="12" pos="1776" vol="100" pan="0"/>
          <note key="23" len="12" pos="1776" vol="100" pan="0"/>
          <note key="32" len="12" pos="1788" vol="100" pan="0"/>
          <note key="32" len="12" pos="1800" vol="100" pan="0"/>
          <note key="32" len="12" pos="1812" vol="100" pan="0"/>
          <note key="32" len="12" pos="1824" vol="100" pan="0"/>
          <note key="28" len="12" pos="1824" vol="100" pan="0"/>
          <note key="23" len="12" pos="1824" vol="100" pan="0"/>
          <note key="34" len="12" pos="1848" vol="100" pan="0"/>
          <note key="28" len="12" pos="1860" vol="100" pan="0"/>
          <note key="32" len="12" pos="1872" vol="100" pan="0"/>
          <note key="23" len="12" pos="1872" vol="100" pan="0"/>
          <note key="34" len="12" pos="1896" vol="100" pan="0"/>
          <note key="29" len="12" pos="1896" vol="100" pan="0"/>
          <note key="31" len="12" pos="1908" vol="100" pan="0"/>
          <note key="34" len="12" pos="1920" vol="100" pan="0"/>
          <note key="23" len="12" pos="1920" vol="100" pan="0"/>
          <note key="32" len="12" pos="1944" vol="100" pan="0"/>
          <note key="34" len="12" pos="1956" vol="100" pan="0"/>
          <note key="28" len="12" pos="1968" vol="100" pan="0"/>
          <note key="23" len="12" pos="1968" vol="100" pan="0"/>
          <note key="32" len="12" pos="1980" vol="100" pan="0"/>
          <note key="32" len="12" pos="1992" vol="100" pan="0"/>
          <note key="32" len="12" pos="2004" vol="100" pan="0"/>
          <note key="32" len="12" pos="2016" vol="100" pan="0"/>
          <note key="23" len="12" pos="2016" vol="100" pan="0"/>
          <note key="34" len="12" pos="2040" vol="100" pan="0"/>
          <note key="28" len="12" pos="2040" vol="100" pan="0"/>
          <note key="32" len="12" pos="2064" vol="100" pan="0"/>
          <note key="28" len="12" pos="2064" vol="100" pan="0"/>
          <note key="23" len="12" pos="2064" vol="100" pan="0"/>
          <note key="34" len="12" pos="2088" vol="100" pan="0"/>
          <note key="28" len="12" pos="2088" vol="100" pan="0"/>
          <note key="31" len="12" pos="2100" vol="100" pan="0"/>
          <note key="34" len="12" pos="2112" vol="100" pan="0"/>
          <note key="23" len="12" pos="2112" vol="100" pan="0"/>
          <note key="32" len="12" pos="2136" vol="100" pan="0"/>
          <note key="34" len="12" pos="2148" vol="100" pan="0"/>
          <note key="28" len="12" pos="2160" vol="100" pan="0"/>
          <note key="23" len="12" pos="2160" vol="100" pan="0"/>
          <note key="32" len="12" pos="2172" vol="100" pan="0"/>
          <note key="32" len="12" pos="2184" vol="100" pan="0"/>
          <note key="32" len="12" pos="2196" vol="100" pan="0"/>
          <note key="32" len="12" pos="2208" vol="100" pan="0"/>
          <note key="28" len="12" pos="2208" vol="100" pan="0"/>
          <note key="23" len="12" pos="2208" vol="100" pan="0"/>
          <note key="34" len="12" pos="2232" vol="100" pan="0"/>
          <note key="28" len="12" pos="2244" vol="100" pan="0"/>
          <note key="32" len="12" pos="2256" vol="100" pan="0"/>
          <note key="23" len="12" pos="2256" vol="100" pan="0"/>
          <note key="34" len="12" pos="2280" vol="100" pan="0"/>
          <note key="28" len="12" pos="2280" vol="100" pan="0"/>
          <note key="31" len="12" pos="2292" vol="100" pan="0"/>
          <note key="34" len="12" pos="2304" vol="100" pan="0"/>
          <note key="23" len="12" pos="2304" vol="100" pan="0"/>
          <note key="32" len="12" pos="2328" vol="100" pan="0"/>
          <note key="34" len="12" pos="2340" vol="100" pan="0"/>
          <note key="28" len="12" pos="2352" vol="100" pan="0"/>
          <note key="23" len="12" pos="2352" vol="100" pan="0"/>
          <note key="32" len="12" pos="2364" vol="100" pan="0"/>
          <note key="32" len="12" pos="2376" vol="100" pan="0"/>
          <note key="32" len="12" pos="2388" vol="100" pan="0"/>
          <note key="32" len="12" pos="2400" vol="100" pan="0"/>
          <note key="23" len="12" pos="2400" vol="100" pan="0"/>
          <note key="34" len="12" pos="2424" vol="100" pan="0"/>
          <note key="28" len="12" pos="2424" vol="100" pan="0"/>
          <note key="32" len="12" pos="2448" vol="100" pan="0"/>
          <note key="28" len="12" pos="2448" vol="100" pan="0"/>
          <note key="23" len="12" pos="2448" vol="100" pan="0"/>
          <note key="34" len="12" pos="2472" vol="100" pan="0"/>
          <note key="28" len="12" pos="2472" vol="100" pan="0"/>
          <note key="31" len="12" pos="2484" vol="100" pan="0"/>
          <note key="34" len="12" pos="2496" vol="100" pan="0"/>
          <note key="23" len="12" pos="2496" vol="100" pan="0"/>
          <note key="32" len="12" pos="2520" vol="100" pan="0"/>
          <note key="34" len="12" pos="2532" vol="100" pan="0"/>
          <note key="28" len="12" pos="2544" vol="100" pan="0"/>
          <note key="23" len="12" pos="2544" vol="100" pan="0"/>
          <note key="32" len="12" pos="2556" vol="100" pan="0"/>
          <note key="32" len="12" pos="2568" vol="100" pan="0"/>
          <note key="32" len="12" pos="2580" vol="100" pan="0"/>
          <note key="32" len="12" pos="2592" vol="100" pan="0"/>
          <note key="28" len="12" pos="2592" vol="100" pan="0"/>
          <note key="23" len="12" pos="2592" vol="100" pan="0"/>
          <note key="34" len="12" pos="2616" vol="100" pan="0"/>
          <note key="28" len="12" pos="2628" vol="100" pan="0"/>
          <note key="32" len="12" pos="2640" vol="100" pan="0"/>
          <note key="23" len="12" pos="2640" vol="100" pan="0"/>
          <note key="34" len="12" pos="2664" vol="100" pan="0"/>
          <note key="29" len="12" pos="2664" vol="100" pan="0"/>
          <note key="31" len="12" pos="2676" vol="100" pan="0"/>
          <note key="34" len="12" pos="2688" vol="100" pan="0"/>
          <note key="23" len="12" pos="2688" vol="100" pan="0"/>
          <note key="32" len="12" pos="2712" vol="100" pan="0"/>
          <note key="34" len="12" pos="2724" vol="100" pan="0"/>
          <note key="28" len="12" pos="2736" vol="100" pan="0"/>
          <note key="23" len="12" pos="2736" vol="100" pan="0"/>
          <note key="32" len="12" pos="2748" vol="100" pan="0"/>
          <note key="32" len="12" pos="2760" vol="100" pan="0"/>
          <note key="32" len="12" pos="2772" vol="100" pan="0"/>
          <note key="32" len="12" pos="2784" vol="100" pan="0"/>
          <note key="23" len="12" pos="2784" vol="100" pan="0"/>
          <note key="34" len="12" pos="2808" vol="100" pan="0"/>
          <note key="28" len="12" pos="2808" vol="100" pan="0"/>
          <note key="32" len="12" pos="2832" vol="100" pan="0"/>
          <note key="28" len="12" pos="2832" vol="100" pan="0"/>
          <note key="23" len="12" pos="2832" vol="100" pan="0"/>
          <note key="34" len="12" pos="2856" vol="100" pan="0"/>
          <note key="28" len="12" pos="2856" vol="100" pan="0"/>
          <note key="31" len="12" pos="2868" vol="100" pan="0"/>
          <note key="34" len="12" pos="2880" vol="100" pan="0"/>
          <note key="23" len="12" pos="2880" vol="100" pan="0"/>
          <note key="32" len="12" pos="2904" vol="100" pan="0"/>
          <note key="34" len="12" pos="2916" vol="100" pan="0"/>
          <note key="28" len="12" pos="2928" vol="100" pan="0"/>
          <note key="23" len="12" pos="2928" vol="100" pan="0"/>
          <note key="32" len="12" pos="2940" vol="100" pan="0"/>
          <note key="32" len="12" pos="2952" vol="100" pan="0"/>
          <note key="32" len="12" pos="2964" vol="100" pan="0"/>
          <note key="32" len="12" pos="2976" vol="100" pan="0"/>
          <note key="28" len="12" pos="2976" vol="100" pan="0"/>
          <note key="23" len="12" pos="2976" vol="100" pan="0"/>
          <note key="34" len="12" pos="3000" vol="100" pan="0"/>
          <note key="28" len="12" pos="3012" vol="100" pan="0"/>
          <note key="32" len="12" pos="3024" vol="100" pan="0"/>
          <note key="23" len="12" pos="3024" vol="100" pan="0"/>
          <note key="34" len="12" pos="3048" vol="100" pan="0"/>
          <note key="28" len="12" pos="3048" vol="100" pan="0"/>
          <note key="31" len="12" pos="3060" vol="100" pan="0"/>
        </pattern>
      </track>
      <track type="5" name="Drums Audio Control" solo="0" mutedBeforeSolo="0" muted="0">
        <automationtrack/>
        <automationpattern mute="0" name="Drums>Volume" pos="6336" len="768" prog="1" tens="1">
          <time value="0" pos="0" outValue="0"/>
          <time value="100" pos="768" outValue="100"/>
          <object id="7286"/>
        </automationpattern>
        <automationpattern mute="0" name="Drums>Volume" pos="0" len="192" prog="0" tens="1">
          <time value="100" pos="0" outValue="100"/>
          <object id="7286"/>
        </automationpattern>
      </track>
    </trackcontainer>
    <track type="6" name="Automation track" solo="0" mutedBeforeSolo="0" muted="0">
      <automationtrack/>
      <automationpattern mute="0" name="Numerator" pos="0" len="192" prog="0" tens="1"/>
      <automationpattern mute="0" name="Denominator" pos="0" len="192" prog="0" tens="1"/>
      <automationpattern mute="0" name="Tempo" pos="0" len="192" prog="0" tens="1"/>
      <automationpattern mute="0" name="Master volume" pos="0" len="192" prog="0" tens="1"/>
      <automationpattern mute="0" name="Master pitch" pos="0" len="192" prog="0" tens="1"/>
    </track>
    <fxmixer maximized="0" y="499" x="19" visible="1" width="535" height="333" minimized="0">
      <fxchannel name="Master" num="0" volume="1" soloed="0" muted="0">
        <fxchain enabled="0" numofeffects="0"/>
      </fxchannel>
      <fxchannel name="Lead" num="1" volume="1" soloed="0" muted="0">
        <fxchain enabled="1" numofeffects="1">
          <effect name="vsteffect" autoquit_syncmode="0" gate="0" on="1" autoquit_numerator="4" autoquit_denominator="4" wet="1" autoquit="1">
            <vsteffectcontrols param5="5:Early Ref.:0.14" param3="3:Hi Damp:0.41" param4="4:Lo Cut:0" guivisible="0" param7="7:Level:0.5" numparams="8" param0="0:Size:1" program="0" plugin="Effects\Classic Reverb\Classic Reverb.dll" param1="1:Damping:0.16" param6="6:Mix:0.29" param2="2:Predelay:0.5"/>
            <key>
              <attribute name="file" value="Effects\Classic Reverb\Classic Reverb.dll"/>
            </key>
          </effect>
        </fxchain>
        <send channel="0" amount="1"/>
      </fxchannel>
      <fxchannel name="Bass" num="2" volume="1.209" soloed="0" muted="0">
        <fxchain enabled="1" numofeffects="1">
          <effect name="vsteffect" autoquit_syncmode="0" gate="0" on="1" autoquit_numerator="4" autoquit_denominator="4" wet="1" autoquit="1">
            <vsteffectcontrols param6="6:Time:0.5" param2="2:Type:0.5" param11="11:Hi Cut:1" param5="5:T.S.D.:0.46" numparams="14" param0="0:Pan:0" param7="7:Feedback:0.5" param10="10:Low Cut:0" guivisible="0" param8="8:Ping-Pong:1" param1="1:Mono:0" param13="13:Level:0.5" program="0" param9="9:Quality:0.7" param12="12:Mix:0.2" param4="4:T.S.N.:0" param3="3:Sync:1" plugin="Effects\Classic Delay\Classic Delay.dll"/>
            <key>
              <attribute name="file" value="Effects\Classic Delay\Classic Delay.dll"/>
            </key>
          </effect>
        </fxchain>
        <send channel="0" amount="1"/>
      </fxchannel>
      <fxchannel name="Bass Harmonics" num="3" volume="0.488" soloed="0" muted="0">
        <fxchain enabled="1" numofeffects="1">
          <effect name="vsteffect" autoquit_syncmode="0" gate="0" on="1" autoquit_numerator="4" autoquit_denominator="4" wet="1" autoquit="1">
            <vsteffectcontrols param6="6:Time:0.5" param2="2:Type:0.5" param11="11:Hi Cut:1" param5="5:T.S.D.:0.55" numparams="14" param0="0:Pan:1" param7="7:Feedback:0.5" param10="10:Low Cut:0" guivisible="0" param8="8:Ping-Pong:1" param1="1:Mono:0" param13="13:Level:0.5" program="0" param9="9:Quality:0.35" param12="12:Mix:0.3" param4="4:T.S.N.:0" param3="3:Sync:1" plugin="Effects\Classic Delay\Classic Delay.dll"/>
            <key>
              <attribute name="file" value="Effects\Classic Delay\Classic Delay.dll"/>
            </key>
          </effect>
        </fxchain>
        <send channel="0" amount="1"/>
      </fxchannel>
      <fxchannel name="Chords" num="4" volume="0.628" soloed="0" muted="0">
        <fxchain enabled="1" numofeffects="1">
          <effect name="vsteffect" autoquit_syncmode="0" gate="0" on="1" autoquit_numerator="4" autoquit_denominator="4" wet="1" autoquit="1">
            <vsteffectcontrols param6="6:Time:0.5" param2="2:Type:0.5" param11="11:Hi Cut:0.92" param5="5:T.S.D.:0.35" numparams="14" param0="0:Pan:1" param7="7:Feedback:0.7" param10="10:Low Cut:0" guivisible="0" param8="8:Ping-Pong:1" param1="1:Mono:0" param13="13:Level:0.5" program="0" param9="9:Quality:0.09" param12="12:Mix:0.17" param4="4:T.S.N.:0.03" param3="3:Sync:1" plugin="Effects\Classic Delay\Classic Delay.dll"/>
            <key>
              <attribute name="file" value="Effects\Classic Delay\Classic Delay.dll"/>
            </key>
          </effect>
        </fxchain>
        <send channel="0" amount="1"/>
      </fxchannel>
      <fxchannel name="Piano" num="5" volume="0.442" soloed="0" muted="0">
        <fxchain enabled="1" numofeffects="1">
          <effect name="vsteffect" autoquit_syncmode="0" gate="0" on="1" autoquit_numerator="4" autoquit_denominator="4" wet="1" autoquit="1">
            <vsteffectcontrols param5="5:Early Ref.:0.5" param3="3:Hi Damp:0.7" param4="4:Lo Cut:0.4" guivisible="0" param7="7:Level:0.5" numparams="8" param0="0:Size:1" program="0" plugin="Effects\Classic Reverb\Classic Reverb.dll" param1="1:Damping:0.7" param6="6:Mix:0.1" param2="2:Predelay:0.5"/>
            <key>
              <attribute name="file" value="Effects\Classic Reverb\Classic Reverb.dll"/>
            </key>
          </effect>
        </fxchain>
        <send channel="0" amount="1"/>
      </fxchannel>
      <fxchannel name="Drums" num="6" volume="0.651" soloed="0" muted="0">
        <fxchain enabled="1" numofeffects="3">
          <effect name="vsteffect" autoquit_syncmode="0" gate="0" on="1" autoquit_numerator="4" autoquit_denominator="4" wet="1" autoquit="1">
            <vsteffectcontrols param5="5:Output:0.5" param3="3:PostFilt:1" param4="4:Non-Lin:0.5" guivisible="0" numparams="6" param0="0:Headroom:1" program="0" plugin="Effects\mda2010\mdaDegrade.dll" param1="1:Quant:1" param2="2:Rate:0.51"/>
            <key>
              <attribute name="file" value="Effects\mda2010\mdaDegrade.dll"/>
            </key>
          </effect>
          <effect name="vsteffect" autoquit_syncmode="0" gate="0" on="1" autoquit_numerator="4" autoquit_denominator="4" wet="1" autoquit="1">
            <vsteffectcontrols guivisible="0" program="1" chunk="KVwPPgAAgD9mZmY/VVVVP5qZGT8AAAA/mpmZPgAAAAAAAAAAAAAAAAAAAAAAAAAAAAAAAAAAAAAAAAAAAAAAAAAAAAAAAAAAAAAAAAAAAAAAAAAAKVwPPgAAAACJiIg9iYgIPs3MzD4AAAA/MzMzPwAAgD8AAAAAAAAAAAAAAAAAAAAAAAAAAAAAAAAAAAAAAAAAAAAAAAAAAAAAAAAAAAAAAAAAAAAAAACAPz0KVz97FC4/w/UoP7geBT+JiIg+zczMPQAAAAAAAAAAAAAAAAAAAAAAAAAAAAAAAAAAAAAAAAAAAAAAAAAAAAAAAAAAAAAAAAAAAAApXA8+AACAP2ZmZj9EREQ/MzMzP+/u7j6amZk+AAAAAAAAAAAAAAAAAAAAAAAAAAAAAAAAAAAAAAAAAAAAAAAAAAAAAAAAAAAAAAAAAAAAAAAAAAApXA8+KVwPPgAAAADNzMw9zcxMPilcjz4fhes+MzMzPwAAgD8AAAAAAAAAAAAAAAAAAAAAAAAAAAAAAAAAAAAAAAAAAAAAAAAAAAAAAAAAAAAAAAAAAAAAAACAP2ZmZj9KREQ/MzMzP/ru7j6amZk+AAAAAAAAAAAAAAAAAAAAAAAAAAAAAAAAAAAAAAAAAAAAAAAAAAAAAAAAAAAAAAAAAAAAAAAAAAAK1yM+AACAP1VVVT9EREQ/MzMzPyIiIj/v7u4+zcxMPomICD0AAAAAAAAAAAAAAAAAAAAAAAAAAAAAAAAAAAAAAAAAAAAAAAAAAAAAAAAAAAAAAAAAAAAAq6oqPomIiD6rqqo+7+7uPjMzMz8AAIA/AAAAAAAAAAAAAAAAAAAAAAAAAAAAAAAAAAAAAAAAAAAAAAAAAAAAAAAAAAAAAAAAAAAAAAAAgD+uR2E/zcxMP8P1KD+4HgU/iYiIPs3MzD0AAAAAAAAAAAAAAAAAAAAAAAAAAAAAAAAAAAAAAAAAAAAAAAAAAAAAAAAAAAAAAAAAAAAAAACAP0RERD+rqio/IiIiP4mICD+JiIg+iYiIPQAAAAAAAAAAAAAAAAAAAAAAAAAAAAAAAAAAAAAAAAAAAAAAAAAAAAAAAAAAAAAAAAAAAAAAAAAAzczMPc3MTD6JiIg+zczMPjMzMz8AAIA/AAAAAAAAAAAAAAAAAAAAAAAAAAAAAAAAAAAAAAAAAAAAAAAAAAAAAAAAAAAAAAAAAAAAAClcDz4AAIA/zcxMP7y7Oz+rqio/ERERP5qZmT6JiAg+AAAAAAAAAAAAAAAAAAAAAAAAAAAAAAAAAAAAAAAAAAAAAAAAAAAAAAAAAAAAAAAAAAAAAAAAAAAzMzM+zcyMPgAAwD5mZuY+MzMzPwAAgD8AAAAAAAAAAAAAAAAAAAAAAAAAAAAAAAAAAAAAAAAAAAAAAAAAAAAAAAAAAAAAAAAAAAAAKVwPPgAAgD/NzEw/mpk5PwAAID/NzAw/mpmZPgAAAAAAAAAAAAAAAAAAAAAAAAAAAAAAAAAAAAAAAAAAAAAAAAAAAAAAAAAAAAAAAAAAAAAAAAAAAAAAAM3MzD3v7m4+3t3dPhERET8zMzM/AACAPwAAAAAAAAAAAAAAAAAAAAAAAAAAAAAAAAAAAAAAAAAAAAAAAAAAAAAAAAAAAAAAAAAAAAApXA8+AACAP0RERD+rqio/mpkZP97d3T6JiIg+zczMPQAAAAAAAAAAAAAAAAAAAAAAAAAAAAAAAAAAAAAAAAAAAAAAAAAAAAAAAAAAAAAAAAAAAAAAAAAACtcjPY/C9T2uR2E+H4XrPjMzMz8AAIA/AAAAAAAAAAAAAAAAAAAAAAAAAAAAAAAAAAAAAAAAAAAAAAAAAAAAAAAAAAAAAAAAAAAAAClcDz4AAIA/9ihcP6RwPT97FC4/uB4FP4mIiD7NzMw9AAAAAAAAAAAAAAAAAAAAAAAAAAAAAAAAAAAAAAAAAAAAAAAAAAAAAAAAAAAAAAAAAAAAAAAAAAAK1yM9CtcjPilcjz4fhes+MzMzPwAAgD8AAAAAAAAAAAAAAAAAAAAAAAAAAAAAAAAAAAAAAAAAAAAAAAAAAAAAAAAAAAAAAAAAAAAAAAAAAImIiD2rqio+q6qqPu/u7j4zMzM/AACAPwAAAAAAAAAAAAAAAAAAAAAAAAAAAAAAAAAAAAAAAAAAAAAAAAAAAAAAAAAAAAAAAAAAAAApXA8+AACAP1VVVT+8uzs/mpkZPwAAAD+amZk+AAAAAAAAAAAAAAAAAAAAAAAAAAAAAAAAAAAAAAAAAAAAAAAAAAAAAAAAAAAAAAAAAAAAAAAAAAAAAAAAzczMPe/ubj6rqqo+iYgIPzMzMz8AAIA/AAAAAAAAAAAAAAAAAAAAAAAAAAAAAAAAAAAAAAAAAAAAAAAAAAAAAAAAAAAAAAAAAAAAAClcDz4AAIA/3t1dPzMzMz8iIiI/AAAAP5qZmT7NzMw9AAAAAAAAAAAAAAAAAAAAAAAAAAAAAAAAAAAAAAAAAAAAAAAAAAAAAAAAAAAAAAAAAAAAAAAAAACJiIg9iYgIPpqZmT7e3d0+MzMzPwAAgD8AAAAAAAAAAAAAAAAAAAAAAAAAAAAAAAAAAAAAAAAAAAAAAAAAAAAAAAAAAAAAAAAAAAAAKVwPPgAAgD9VVVU/REREP6uqKj/v7u4+mpmZPgAAAAAAAAAAAAAAAAAAAAAAAAAAAAAAAAAAAAAAAAAAAAAAAAAAAAAAAAAAAAAAAAAAAAAAAAAAAAAAAImIiD2rqio+iYiIPgAAAD8zMzM/AACAPwAAAAAAAAAAAAAAAAAAAAAAAAAAAAAAAAAAAAAAAAAAAAAAAAAAAAAAAAAAAAAAAAAAAAA0MzM+zcw8PwAAAAAAAMA+mpkJPwEAED8AABA/AAAAAAAAgD8AAOA+zcwcP2dmpj5nZuY9AAAAAGZm5j4zM0M/zcwsP83MzDwzMxM/Q2xhc3MgQSBWYWN1dW0gdHViZSBFUQAGAKYbBpCoGwYK16M8AACAPwAAAAAAAIA/AAAAAAAAAAAAAAAAAAAAAAAAAAAAAAAAAAAAAAAAAAAAAAAAAAAAAAAAAAAAAAAAAAAAAAAAAAAAAAAAAAAAAAAAAAAK16M8AAAAAAAAAD8AAIA/AAAAAAAAAAAAAAAAAAAAAAAAAAAAAAAAAAAAAAAAAAAAAAAAAAAAAAAAAAAAAAAAAAAAAAAAAAAAAAAAAAAAAAAAAAAAAIA/AAAAAAAAgD8AAAAAAAAAAAAAAAAAAAAAAAAAAAAAAAAAAAAAAAAAAAAAAAAAAAAAAAAAAAAAAAAAAAAAAAAAAAAAAAAAAAAAAAAAAArXozwAAIA/AAAAAAAAgD8AAAAAAAAAAAAAAAAAAAAAAAAAAAAAAAAAAAAAAAAAAAAAAAAAAAAAAAAAAAAAAAAAAAAAAAAAAAAAAAAAAAAAAAAAAArXozwK16M8AAAAAAAAAD8AAIA/AAAAAAAAAAAAAAAAAAAAAAAAAAAAAAAAAAAAAAAAAAAAAAAAAAAAAAAAAAAAAAAAAAAAAAAAAAAAAAAAAAAAAAAAAAAAAIA/ZmZmP0pERD8zMzM/+u7uPpqZmT4AAAAAAAAAAAAAAAAAAAAAAAAAAAAAAAAAAAAAAAAAAAAAAAAAAAAAAAAAAAAAAAAAAAAAAAAAAArXozwAAIA/AAAAAAAAgD8AAAAAAAAAAAAAAAAAAAAAAAAAAAAAAAAAAAAAAAAAAAAAAAAAAAAAAAAAAAAAAAAAAAAAAAAAAAAAAAAAAAAAAAAAAAAAAAAAAAA/AACAPwAAAAAAAAAAAAAAAAAAAAAAAAAAAAAAAAAAAAAAAAAAAAAAAAAAAAAAAAAAAAAAAAAAAAAAAAAAAAAAAAAAAAAAAAAAAACAPwAAAAAAAIA/AAAAAAAAAAAAAAAAAAAAAAAAAAAAAAAAAAAAAAAAAAAAAAAAAAAAAAAAAAAAAAAAAAAAAAAAAAAAAAAAAAAAAAAAAAAAAIA/AAAAAAAAgD8AAAAAAAAAAAAAAAAAAAAAAAAAAAAAAAAAAAAAAAAAAAAAAAAAAAAAAAAAAAAAAAAAAAAAAAAAAAAAAAAAAAAAAAAAAAAAAAAAAAA/AACAPwAAAAAAAAAAAAAAAAAAAAAAAAAAAAAAAAAAAAAAAAAAAAAAAAAAAAAAAAAAAAAAAAAAAAAAAAAAAAAAAAAAAAAAAAAACtejPAAAgD8AAAAAAACAPwAAAAAAAAAAAAAAAAAAAAAAAAAAAAAAAAAAAAAAAAAAAAAAAAAAAAAAAAAAAAAAAAAAAAAAAAAAAAAAAAAAAAAAAAAAAAAAAAAAAD8AAIA/AAAAAAAAAAAAAAAAAAAAAAAAAAAAAAAAAAAAAAAAAAAAAAAAAAAAAAAAAAAAAAAAAAAAAAAAAAAAAAAAAAAAAAAAAAAK16M8AACAPwAAAAAAAIA/AAAAAAAAAAAAAAAAAAAAAAAAAAAAAAAAAAAAAAAAAAAAAAAAAAAAAAAAAAAAAAAAAAAAAAAAAAAAAAAAAAAAAAAAAAAAAAAAAAAAPwAAgD8AAAAAAAAAAAAAAAAAAAAAAAAAAAAAAAAAAAAAAAAAAAAAAAAAAAAAAAAAAAAAAAAAAAAAAAAAAAAAAAAAAAAAAAAAAArXozwAAIA/AAAAAAAAgD8AAAAAAAAAAAAAAAAAAAAAAAAAAAAAAAAAAAAAAAAAAAAAAAAAAAAAAAAAAAAAAAAAAAAAAAAAAAAAAAAAAAAAAAAAAAAAAAAAAAA/AACAPwAAAAAAAAAAAAAAAAAAAAAAAAAAAAAAAAAAAAAAAAAAAAAAAAAAAAAAAAAAAAAAAAAAAAAAAAAAAAAAAAAAAAAAAAAACtejPAAAgD8AAAAAAACAPwAAAAAAAAAAAAAAAAAAAAAAAAAAAAAAAAAAAAAAAAAAAAAAAAAAAAAAAAAAAAAAAAAAAAAAAAAAAAAAAAAAAAAAAAAAAAAAAAAAAD8AAIA/AAAAAAAAAAAAAAAAAAAAAAAAAAAAAAAAAAAAAAAAAAAAAAAAAAAAAAAAAAAAAAAAAAAAAAAAAAAAAAAAAAAAAAAAAAAAAAAAAAAAPwAAgD8AAAAAAAAAAAAAAAAAAAAAAAAAAAAAAAAAAAAAAAAAAAAAAAAAAAAAAAAAAAAAAAAAAAAAAAAAAAAAAAAAAAAAAAAAAArXozwAAIA/AAAAAAAAgD8AAAAAAAAAAAAAAAAAAAAAAAAAAAAAAAAAAAAAAAAAAAAAAAAAAAAAAAAAAAAAAAAAAAAAAAAAAAAAAAAAAAAAAAAAAAAAAAAAAAA/AACAPwAAAAAAAAAAAAAAAAAAAAAAAAAAAAAAAAAAAAAAAAAAAAAAAAAAAAAAAAAAAAAAAAAAAAAAAAAAAAAAAAAAAAAAAAAACtejPAAAgD8AAAAAAACAPwAAAAAAAAAAAAAAAAAAAAAAAAAAAAAAAAAAAAAAAAAAAAAAAAAAAAAAAAAAAAAAAAAAAAAAAAAAAAAAAAAAAAAAAAAAAAAAAAAAAD8AAIA/AAAAAAAAAAAAAAAAAAAAAAAAAAAAAAAAAAAAAAAAAAAAAAAAAAAAAAAAAAAAAAAAAAAAAAAAAAAAAAAAAAAAAAAAAAAK16M8AACAPwAAAAAAAIA/AAAAAAAAAAAAAAAAAAAAAAAAAAAAAAAAAAAAAAAAAAAAAAAAAAAAAAAAAAAAAAAAAAAAAAAAAAAAAAAAAAAAAAAAAAAAAAAAAAAAPwAAgD8AAAAAAAAAAAAAAAAAAAAAAAAAAAAAAAAAAAAAAAAAAAAAAAAAAAAAAAAAAAAAAAAAAAAAAAAAAAAAAAAAAAAAAAAAADMzMz6amQk/AAAAAAAAgD4zMxM/AAAAAAAAAADNzEw+AACAP2ZmNj+ZmVk+AAAAAAAAQD4AAAAAMzPzPmZmJj8yM9M+ZmaGPs3MTD9DbGFzc2ljIHdhcm0gdHViZQB5AGirGwYAqhsGuKsbBgrXozwAAIA/AADAPgAAgD4AAMA+AACAPwAAAAAAAAAAAAAAAAAAAAAAAAAAAAAAAAAAAAAAAAAAAAAAAAAAAAAAAAAAAAAAAAAAAAAAAAAAAAAAAArXozwAAAAAAACAPgAAAD8AAEA/AACAPwAAAAAAAAAAAAAAAAAAAAAAAAAAAAAAAAAAAAAAAAAAAAAAAAAAAAAAAAAAAAAAAAAAAAAAAAAAAAAAAAAAgD8AAMA+AACAPgAAwD4AAIA/AAAAAAAAAAAAAAAAAAAAAAAAAAAAAAAAAAAAAAAAAAAAAAAAAAAAAAAAAAAAAAAAAAAAAAAAAAAAAAAACtejPAAAgD8AAMA+AACAPgAAwD4AAIA/AAAAAAAAAAAAAAAAAAAAAAAAAAAAAAAAAAAAAAAAAAAAAAAAAAAAAAAAAAAAAAAAAAAAAAAAAAAAAAAACtejPArXozwAAAAAAACAPgAAAD8AAEA/AACAPwAAAAAAAAAAAAAAAAAAAAAAAAAAAAAAAAAAAAAAAAAAAAAAAAAAAAAAAAAAAAAAAAAAAAAAAAAAAAAAAAAAgD9mZmY/SkREPzMzMz/67u4+mpmZPgAAAAAAAAAAAAAAAAAAAAAAAAAAAAAAAAAAAAAAAAAAAAAAAAAAAAAAAAAAAAAAAAAAAAAAAAAACtejPAAAgD8AAMA+AACAPgAAwD4AAIA/AAAAAAAAAAAAAAAAAAAAAAAAAAAAAAAAAAAAAAAAAAAAAAAAAAAAAAAAAAAAAAAAAAAAAAAAAAAAAAAAAAAAAAAAgD4AAAA/AABAPwAAgD8AAAAAAAAAAAAAAAAAAAAAAAAAAAAAAAAAAAAAAAAAAAAAAAAAAAAAAAAAAAAAAAAAAAAAAAAAAAAAAAAAAIA/AADAPgAAgD4AAMA+AACAPwAAAAAAAAAAAAAAAAAAAAAAAAAAAAAAAAAAAAAAAAAAAAAAAAAAAAAAAAAAAAAAAAAAAAAAAAAAAAAAAAAAgD8AAMA+AACAPgAAwD4AAIA/AAAAAAAAAAAAAAAAAAAAAAAAAAAAAAAAAAAAAAAAAAAAAAAAAAAAAAAAAAAAAAAAAAAAAAAAAAAAAAAAAAAAAAAAgD4AAAA/AABAPwAAgD8AAAAAAAAAAAAAAAAAAAAAAAAAAAAAAAAAAAAAAAAAAAAAAAAAAAAAAAAAAAAAAAAAAAAAAAAAAAAAAAAK16M8AACAPwAAwD4AAIA+AADAPgAAgD8AAAAAAAAAAAAAAAAAAAAAAAAAAAAAAAAAAAAAAAAAAAAAAAAAAAAAAAAAAAAAAAAAAAAAAAAAAAAAAAAAAAAAAACAPgAAAD8AAEA/AACAPwAAAAAAAAAAAAAAAAAAAAAAAAAAAAAAAAAAAAAAAAAAAAAAAAAAAAAAAAAAAAAAAAAAAAAAAAAAAAAAAArXozwAAIA/AADAPgAAgD4AAMA+AACAPwAAAAAAAAAAAAAAAAAAAAAAAAAAAAAAAAAAAAAAAAAAAAAAAAAAAAAAAAAAAAAAAAAAAAAAAAAAAAAAAAAAAAAAAIA+AAAAPwAAQD8AAIA/AAAAAAAAAAAAAAAAAAAAAAAAAAAAAAAAAAAAAAAAAAAAAAAAAAAAAAAAAAAAAAAAAAAAAAAAAAAAAAAACtejPAAAgD8AAMA+AACAPgAAwD4AAIA/AAAAAAAAAAAAAAAAAAAAAAAAAAAAAAAAAAAAAAAAAAAAAAAAAAAAAAAAAAAAAAAAAAAAAAAAAAAAAAAAAAAAAAAAgD4AAAA/AABAPwAAgD8AAAAAAAAAAAAAAAAAAAAAAAAAAAAAAAAAAAAAAAAAAAAAAAAAAAAAAAAAAAAAAAAAAAAAAAAAAAAAAAAK16M8AACAPwAAwD4AAIA+AADAPgAAgD8AAAAAAAAAAAAAAAAAAAAAAAAAAAAAAAAAAAAAAAAAAAAAAAAAAAAAAAAAAAAAAAAAAAAAAAAAAAAAAAAAAAAAAACAPgAAAD8AAEA/AACAPwAAAAAAAAAAAAAAAAAAAAAAAAAAAAAAAAAAAAAAAAAAAAAAAAAAAAAAAAAAAAAAAAAAAAAAAAAAAAAAAAAAAAAAAIA+AAAAPwAAQD8AAIA/AAAAAAAAAAAAAAAAAAAAAAAAAAAAAAAAAAAAAAAAAAAAAAAAAAAAAAAAAAAAAAAAAAAAAAAAAAAAAAAACtejPAAAgD8AAMA+AACAPgAAwD4AAIA/AAAAAAAAAAAAAAAAAAAAAAAAAAAAAAAAAAAAAAAAAAAAAAAAAAAAAAAAAAAAAAAAAAAAAAAAAAAAAAAAAAAAAAAAgD4AAAA/AABAPwAAgD8AAAAAAAAAAAAAAAAAAAAAAAAAAAAAAAAAAAAAAAAAAAAAAAAAAAAAAAAAAAAAAAAAAAAAAAAAAAAAAAAK16M8AACAPwAAwD4AAIA+AADAPgAAgD8AAAAAAAAAAAAAAAAAAAAAAAAAAAAAAAAAAAAAAAAAAAAAAAAAAAAAAAAAAAAAAAAAAAAAAAAAAAAAAAAAAAAAAACAPgAAAD8AAEA/AACAPwAAAAAAAAAAAAAAAAAAAAAAAAAAAAAAAAAAAAAAAAAAAAAAAAAAAAAAAAAAAAAAAAAAAAAAAAAAAAAAAArXozwAAIA/AADAPgAAgD4AAMA+AACAPwAAAAAAAAAAAAAAAAAAAAAAAAAAAAAAAAAAAAAAAAAAAAAAAAAAAAAAAAAAAAAAAAAAAAAAAAAAAAAAAAAAAAAAAIA+AAAAPwAAQD8AAIA/AAAAAAAAAAAAAAAAAAAAAAAAAAAAAAAAAAAAAAAAAAAAAAAAAAAAAAAAAAAAAAAAAAAAAAAAAAAAAAAAMzMzPpqZKT8zM2M/waoqPjMzIz8AAAAAMzPzPpqZGT8AAIA/mpn5PgAAMD8zM7M9AABAPgAAAACamfk+ZmZGPwAAQD+amRk9AADgPkNsZWFuIEhGIEJvb3N0AHZpbnRhZ2UABhALNRATCzUQCtejPAAAAAAAAIA/AAAAAAAAAAAAAAAAAAAAAAAAAAAAAAAAAAAAAAAAAAAAAAAAAAAAAAAAAAAAAAAAAAAAAAAAAAAAAAAAAAAAAAAAAAAAAAAACtejPAAAAAAAAIA/AAAAAAAAAAAAAAAAAAAAAAAAAAAAAAAAAAAAAAAAAAAAAAAAAAAAAAAAAAAAAAAAAAAAAAAAAAAAAAAAAAAAAAAAAAAAAAAAAAAAAAAAgD8AAAAAAAAAAAAAAAAAAAAAAAAAAAAAAAAAAAAAAAAAAAAAAAAAAAAAAAAAAAAAAAAAAAAAAAAAAAAAAAAAAAAAAAAAAAAAAAAK16M8AAAAAAAAgD8AAAAAAAAAAAAAAAAAAAAAAAAAAAAAAAAAAAAAAAAAAAAAAAAAAAAAAAAAAAAAAAAAAAAAAAAAAAAAAAAAAAAAAAAAAAAAAAAK16M8CtejPAAAAAAAAIA/AAAAAAAAAAAAAAAAAAAAAAAAAAAAAAAAAAAAAAAAAAAAAAAAAAAAAAAAAAAAAAAAAAAAAAAAAAAAAAAAAAAAAAAAAAAAAAAAAACAP2ZmZj9KREQ/MzMzP/ru7j6amZk+AAAAAAAAAAAAAAAAAAAAAAAAAAAAAAAAAAAAAAAAAAAAAAAAAAAAAAAAAAAAAAAAAAAAAAAAAAAK16M8AAAAAAAAgD8AAAAAAAAAAAAAAAAAAAAAAAAAAAAAAAAAAAAAAAAAAAAAAAAAAAAAAAAAAAAAAAAAAAAAAAAAAAAAAAAAAAAAAAAAAAAAAAAAAAAAAACAPwAAAAAAAAAAAAAAAAAAAAAAAAAAAAAAAAAAAAAAAAAAAAAAAAAAAAAAAAAAAAAAAAAAAAAAAAAAAAAAAAAAAAAAAAAAAAAAAAAAAAAAAIA/AAAAAAAAAAAAAAAAAAAAAAAAAAAAAAAAAAAAAAAAAAAAAAAAAAAAAAAAAAAAAAAAAAAAAAAAAAAAAAAAAAAAAAAAAAAAAAAAAAAAAAAAgD8AAAAAAAAAAAAAAAAAAAAAAAAAAAAAAAAAAAAAAAAAAAAAAAAAAAAAAAAAAAAAAAAAAAAAAAAAAAAAAAAAAAAAAAAAAAAAAAAAAAAAAACAPwAAAAAAAAAAAAAAAAAAAAAAAAAAAAAAAAAAAAAAAAAAAAAAAAAAAAAAAAAAAAAAAAAAAAAAAAAAAAAAAAAAAAAAAAAAAAAAAArXozwAAAAAAACAPwAAAAAAAAAAAAAAAAAAAAAAAAAAAAAAAAAAAAAAAAAAAAAAAAAAAAAAAAAAAAAAAAAAAAAAAAAAAAAAAAAAAAAAAAAAAAAAAAAAAAAAAIA/AAAAAAAAAAAAAAAAAAAAAAAAAAAAAAAAAAAAAAAAAAAAAAAAAAAAAAAAAAAAAAAAAAAAAAAAAAAAAAAAAAAAAAAAAAAAAAAACtejPAAAAAAAAIA/AAAAAAAAAAAAAAAAAAAAAAAAAAAAAAAAAAAAAAAAAAAAAAAAAAAAAAAAAAAAAAAAAAAAAAAAAAAAAAAAAAAAAAAAAAAAAAAAAAAAAAAAgD8AAAAAAAAAAAAAAAAAAAAAAAAAAAAAAAAAAAAAAAAAAAAAAAAAAAAAAAAAAAAAAAAAAAAAAAAAAAAAAAAAAAAAAAAAAAAAAAAK16M8AAAAAAAAgD8AAAAAAAAAAAAAAAAAAAAAAAAAAAAAAAAAAAAAAAAAAAAAAAAAAAAAAAAAAAAAAAAAAAAAAAAAAAAAAAAAAAAAAAAAAAAAAAAAAAAAAACAPwAAAAAAAAAAAAAAAAAAAAAAAAAAAAAAAAAAAAAAAAAAAAAAAAAAAAAAAAAAAAAAAAAAAAAAAAAAAAAAAAAAAAAAAAAAAAAAAArXozwAAAAAAACAPwAAAAAAAAAAAAAAAAAAAAAAAAAAAAAAAAAAAAAAAAAAAAAAAAAAAAAAAAAAAAAAAAAAAAAAAAAAAAAAAAAAAAAAAAAAAAAAAAAAAAAAAIA/AAAAAAAAAAAAAAAAAAAAAAAAAAAAAAAAAAAAAAAAAAAAAAAAAAAAAAAAAAAAAAAAAAAAAAAAAAAAAAAAAAAAAAAAAAAAAAAAAAAAAAAAgD8AAAAAAAAAAAAAAAAAAAAAAAAAAAAAAAAAAAAAAAAAAAAAAAAAAAAAAAAAAAAAAAAAAAAAAAAAAAAAAAAAAAAAAAAAAAAAAAAK16M8AAAAAAAAgD8AAAAAAAAAAAAAAAAAAAAAAAAAAAAAAAAAAAAAAAAAAAAAAAAAAAAAAAAAAAAAAAAAAAAAAAAAAAAAAAAAAAAAAAAAAAAAAAAAAAAAAACAPwAAAAAAAAAAAAAAAAAAAAAAAAAAAAAAAAAAAAAAAAAAAAAAAAAAAAAAAAAAAAAAAAAAAAAAAAAAAAAAAAAAAAAAAAAAAAAAAArXozwAAAAAAACAPwAAAAAAAAAAAAAAAAAAAAAAAAAAAAAAAAAAAAAAAAAAAAAAAAAAAAAAAAAAAAAAAAAAAAAAAAAAAAAAAAAAAAAAAAAAAAAAAAAAAAAAAIA/AAAAAAAAAAAAAAAAAAAAAAAAAAAAAAAAAAAAAAAAAAAAAAAAAAAAAAAAAAAAAAAAAAAAAAAAAAAAAAAAAAAAAAAAAAAAAAAACtejPAAAAAAAAIA/AAAAAAAAAAAAAAAAAAAAAAAAAAAAAAAAAAAAAAAAAAAAAAAAAAAAAAAAAAAAAAAAAAAAAAAAAAAAAAAAAAAAAAAAAAAAAAAAAAAAAAAAgD8AAAAAAAAAAAAAAAAAAAAAAAAAAAAAAAAAAAAAAAAAAAAAAAAAAAAAAAAAAAAAAAAAAAAAAAAAAAAAAAAAAAAAAAAAAAAAAAAzMzM+AAAwPwAAQD4AACA/MzMTPwAAwD7NzOw+mpkZPwAAgD9mZjY/MzMzPwAAAAAAAKA+zczMPWZmFj/NzDw/zcwsP5qZ2T5mZiY/RGlydHkgUm9jayBuIFJvbGwAaABnZQAAALYbBqAUFRAK16M8AAAAAAAAgD8AAAAAAAAAAAAAAAAAAAAAAAAAAAAAAAAAAAAAAAAAAAAAAAAAAAAAAAAAAAAAAAAAAAAAAAAAAAAAAAAAAAAAAAAAAAAAAAAK16M8AAAAAAAAgD8AAAAAAAAAAAAAAAAAAAAAAAAAAAAAAAAAAAAAAAAAAAAAAAAAAAAAAAAAAAAAAAAAAAAAAAAAAAAAAAAAAAAAAAAAAAAAAAAAAAAAAACAPwAAAAAAAAAAAAAAAAAAAAAAAAAAAAAAAAAAAAAAAAAAAAAAAAAAAAAAAAAAAAAAAAAAAAAAAAAAAAAAAAAAAAAAAAAAAAAAAArXozwAAAAAAACAPwAAAAAAAAAAAAAAAAAAAAAAAAAAAAAAAAAAAAAAAAAAAAAAAAAAAAAAAAAAAAAAAAAAAAAAAAAAAAAAAAAAAAAAAAAAAAAAAArXozwK16M8AAAAAAAAgD8AAAAAAAAAAAAAAAAAAAAAAAAAAAAAAAAAAAAAAAAAAAAAAAAAAAAAAAAAAAAAAAAAAAAAAAAAAAAAAAAAAAAAAAAAAAAAAAAAAIA/ZmZmP0pERD8zMzM/+u7uPpqZmT4AAAAAAAAAAAAAAAAAAAAAAAAAAAAAAAAAAAAAAAAAAAAAAAAAAAAAAAAAAAAAAAAAAAAAAAAAAArXozwAAAAAAACAPwAAAAAAAAAAAAAAAAAAAAAAAAAAAAAAAAAAAAAAAAAAAAAAAAAAAAAAAAAAAAAAAAAAAAAAAAAAAAAAAAAAAAAAAAAAAAAAAAAAAAAAAIA/AAAAAAAAAAAAAAAAAAAAAAAAAAAAAAAAAAAAAAAAAAAAAAAAAAAAAAAAAAAAAAAAAAAAAAAAAAAAAAAAAAAAAAAAAAAAAAAAAAAAAAAAgD8AAAAAAAAAAAAAAAAAAAAAAAAAAAAAAAAAAAAAAAAAAAAAAAAAAAAAAAAAAAAAAAAAAAAAAAAAAAAAAAAAAAAAAAAAAAAAAAAAAAAAAACAPwAAAAAAAAAAAAAAAAAAAAAAAAAAAAAAAAAAAAAAAAAAAAAAAAAAAAAAAAAAAAAAAAAAAAAAAAAAAAAAAAAAAAAAAAAAAAAAAAAAAAAAAIA/AAAAAAAAAAAAAAAAAAAAAAAAAAAAAAAAAAAAAAAAAAAAAAAAAAAAAAAAAAAAAAAAAAAAAAAAAAAAAAAAAAAAAAAAAAAAAAAACtejPAAAAAAAAIA/AAAAAAAAAAAAAAAAAAAAAAAAAAAAAAAAAAAAAAAAAAAAAAAAAAAAAAAAAAAAAAAAAAAAAAAAAAAAAAAAAAAAAAAAAAAAAAAAAAAAAAAAgD8AAAAAAAAAAAAAAAAAAAAAAAAAAAAAAAAAAAAAAAAAAAAAAAAAAAAAAAAAAAAAAAAAAAAAAAAAAAAAAAAAAAAAAAAAAAAAAAAK16M8AAAAAAAAgD8AAAAAAAAAAAAAAAAAAAAAAAAAAAAAAAAAAAAAAAAAAAAAAAAAAAAAAAAAAAAAAAAAAAAAAAAAAAAAAAAAAAAAAAAAAAAAAAAAAAAAAACAPwAAAAAAAAAAAAAAAAAAAAAAAAAAAAAAAAAAAAAAAAAAAAAAAAAAAAAAAAAAAAAAAAAAAAAAAAAAAAAAAAAAAAAAAAAAAAAAAArXozwAAAAAAACAPwAAAAAAAAAAAAAAAAAAAAAAAAAAAAAAAAAAAAAAAAAAAAAAAAAAAAAAAAAAAAAAAAAAAAAAAAAAAAAAAAAAAAAAAAAAAAAAAAAAAAAAAIA/AAAAAAAAAAAAAAAAAAAAAAAAAAAAAAAAAAAAAAAAAAAAAAAAAAAAAAAAAAAAAAAAAAAAAAAAAAAAAAAAAAAAAAAAAAAAAAAACtejPAAAAAAAAIA/AAAAAAAAAAAAAAAAAAAAAAAAAAAAAAAAAAAAAAAAAAAAAAAAAAAAAAAAAAAAAAAAAAAAAAAAAAAAAAAAAAAAAAAAAAAAAAAAAAAAAAAAgD8AAAAAAAAAAAAAAAAAAAAAAAAAAAAAAAAAAAAAAAAAAAAAAAAAAAAAAAAAAAAAAAAAAAAAAAAAAAAAAAAAAAAAAAAAAAAAAAAAAAAAAACAPwAAAAAAAAAAAAAAAAAAAAAAAAAAAAAAAAAAAAAAAAAAAAAAAAAAAAAAAAAAAAAAAAAAAAAAAAAAAAAAAAAAAAAAAAAAAAAAAArXozwAAAAAAACAPwAAAAAAAAAAAAAAAAAAAAAAAAAAAAAAAAAAAAAAAAAAAAAAAAAAAAAAAAAAAAAAAAAAAAAAAAAAAAAAAAAAAAAAAAAAAAAAAAAAAAAAAIA/AAAAAAAAAAAAAAAAAAAAAAAAAAAAAAAAAAAAAAAAAAAAAAAAAAAAAAAAAAAAAAAAAAAAAAAAAAAAAAAAAAAAAAAAAAAAAAAACtejPAAAAAAAAIA/AAAAAAAAAAAAAAAAAAAAAAAAAAAAAAAAAAAAAAAAAAAAAAAAAAAAAAAAAAAAAAAAAAAAAAAAAAAAAAAAAAAAAAAAAAAAAAAAAAAAAAAAgD8AAAAAAAAAAAAAAAAAAAAAAAAAAAAAAAAAAAAAAAAAAAAAAAAAAAAAAAAAAAAAAAAAAAAAAAAAAAAAAAAAAAAAAAAAAAAAAAAK16M8AAAAAAAAgD8AAAAAAAAAAAAAAAAAAAAAAAAAAAAAAAAAAAAAAAAAAAAAAAAAAAAAAAAAAAAAAAAAAAAAAAAAAAAAAAAAAAAAAAAAAAAAAAAAAAAAAACAPwAAAAAAAAAAAAAAAAAAAAAAAAAAAAAAAAAAAAAAAAAAAAAAAAAAAAAAAAAAAAAAAAAAAAAAAAAAAAAAAAAAAAAAAAAAAAAAADMzMz4AABA/MzMDPwAAAD8zMxM/zcxMPpqZCT/NzEw+AACAP83MTD9mZkY/mpkZPmZmJj7NzMw9AAAAPzMzQz9mZgY/ZmbmPTMzQz9GYXQgYW5kIFdhcm0AbSB0dWJlIEVRAAYQCzUQEws1EArXozwAAAAAAACAPwAAAAAAAAAAAAAAAAAAAAAAAAAAAAAAAAAAAAAAAAAAAAAAAAAAAAAAAAAAAAAAAAAAAAAAAAAAAAAAAAAAAAAAAAAAAAAAAArXozwAAAAAAACAPwAAAAAAAAAAAAAAAAAAAAAAAAAAAAAAAAAAAAAAAAAAAAAAAAAAAAAAAAAAAAAAAAAAAAAAAAAAAAAAAAAAAAAAAAAAAAAAAAAAAAAAAIA/AAAAAAAAAAAAAAAAAAAAAAAAAAAAAAAAAAAAAAAAAAAAAAAAAAAAAAAAAAAAAAAAAAAAAAAAAAAAAAAAAAAAAAAAAAAAAAAACtejPAAAAAAAAIA/AAAAAAAAAAAAAAAAAAAAAAAAAAAAAAAAAAAAAAAAAAAAAAAAAAAAAAAAAAAAAAAAAAAAAAAAAAAAAAAAAAAAAAAAAAAAAAAACtejPArXozwAAAAAAACAPwAAAAAAAAAAAAAAAAAAAAAAAAAAAAAAAAAAAAAAAAAAAAAAAAAAAAAAAAAAAAAAAAAAAAAAAAAAAAAAAAAAAAAAAAAAAAAAAAAAgD9mZmY/SkREPzMzMz/67u4+mpmZPgAAAAAAAAAAAAAAAAAAAAAAAAAAAAAAAAAAAAAAAAAAAAAAAAAAAAAAAAAAAAAAAAAAAAAAAAAACtejPAAAAAAAAIA/AAAAAAAAAAAAAAAAAAAAAAAAAAAAAAAAAAAAAAAAAAAAAAAAAAAAAAAAAAAAAAAAAAAAAAAAAAAAAAAAAAAAAAAAAAAAAAAAAAAAAAAAgD8AAAAAAAAAAAAAAAAAAAAAAAAAAAAAAAAAAAAAAAAAAAAAAAAAAAAAAAAAAAAAAAAAAAAAAAAAAAAAAAAAAAAAAAAAAAAAAAAAAAAAAACAPwAAAAAAAAAAAAAAAAAAAAAAAAAAAAAAAAAAAAAAAAAAAAAAAAAAAAAAAAAAAAAAAAAAAAAAAAAAAAAAAAAAAAAAAAAAAAAAAAAAAAAAAIA/AAAAAAAAAAAAAAAAAAAAAAAAAAAAAAAAAAAAAAAAAAAAAAAAAAAAAAAAAAAAAAAAAAAAAAAAAAAAAAAAAAAAAAAAAAAAAAAAAAAAAAAAgD8AAAAAAAAAAAAAAAAAAAAAAAAAAAAAAAAAAAAAAAAAAAAAAAAAAAAAAAAAAAAAAAAAAAAAAAAAAAAAAAAAAAAAAAAAAAAAAAAK16M8AAAAAAAAgD8AAAAAAAAAAAAAAAAAAAAAAAAAAAAAAAAAAAAAAAAAAAAAAAAAAAAAAAAAAAAAAAAAAAAAAAAAAAAAAAAAAAAAAAAAAAAAAAAAAAAAAACAPwAAAAAAAAAAAAAAAAAAAAAAAAAAAAAAAAAAAAAAAAAAAAAAAAAAAAAAAAAAAAAAAAAAAAAAAAAAAAAAAAAAAAAAAAAAAAAAAArXozwAAAAAAACAPwAAAAAAAAAAAAAAAAAAAAAAAAAAAAAAAAAAAAAAAAAAAAAAAAAAAAAAAAAAAAAAAAAAAAAAAAAAAAAAAAAAAAAAAAAAAAAAAAAAAAAAAIA/AAAAAAAAAAAAAAAAAAAAAAAAAAAAAAAAAAAAAAAAAAAAAAAAAAAAAAAAAAAAAAAAAAAAAAAAAAAAAAAAAAAAAAAAAAAAAAAACtejPAAAAAAAAIA/AAAAAAAAAAAAAAAAAAAAAAAAAAAAAAAAAAAAAAAAAAAAAAAAAAAAAAAAAAAAAAAAAAAAAAAAAAAAAAAAAAAAAAAAAAAAAAAAAAAAAAAAgD8AAAAAAAAAAAAAAAAAAAAAAAAAAAAAAAAAAAAAAAAAAAAAAAAAAAAAAAAAAAAAAAAAAAAAAAAAAAAAAAAAAAAAAAAAAAAAAAAK16M8AAAAAAAAgD8AAAAAAAAAAAAAAAAAAAAAAAAAAAAAAAAAAAAAAAAAAAAAAAAAAAAAAAAAAAAAAAAAAAAAAAAAAAAAAAAAAAAAAAAAAAAAAAAAAAAAAACAPwAAAAAAAAAAAAAAAAAAAAAAAAAAAAAAAAAAAAAAAAAAAAAAAAAAAAAAAAAAAAAAAAAAAAAAAAAAAAAAAAAAAAAAAAAAAAAAAAAAAAAAAIA/AAAAAAAAAAAAAAAAAAAAAAAAAAAAAAAAAAAAAAAAAAAAAAAAAAAAAAAAAAAAAAAAAAAAAAAAAAAAAAAAAAAAAAAAAAAAAAAACtejPAAAAAAAAIA/AAAAAAAAAAAAAAAAAAAAAAAAAAAAAAAAAAAAAAAAAAAAAAAAAAAAAAAAAAAAAAAAAAAAAAAAAAAAAAAAAAAAAAAAAAAAAAAAAAAAAAAAgD8AAAAAAAAAAAAAAAAAAAAAAAAAAAAAAAAAAAAAAAAAAAAAAAAAAAAAAAAAAAAAAAAAAAAAAAAAAAAAAAAAAAAAAAAAAAAAAAAK16M8AAAAAAAAgD8AAAAAAAAAAAAAAAAAAAAAAAAAAAAAAAAAAAAAAAAAAAAAAAAAAAAAAAAAAAAAAAAAAAAAAAAAAAAAAAAAAAAAAAAAAAAAAAAAAAAAAACAPwAAAAAAAAAAAAAAAAAAAAAAAAAAAAAAAAAAAAAAAAAAAAAAAAAAAAAAAAAAAAAAAAAAAAAAAAAAAAAAAAAAAAAAAAAAAAAAAArXozwAAAAAAACAPwAAAAAAAAAAAAAAAAAAAAAAAAAAAAAAAAAAAAAAAAAAAAAAAAAAAAAAAAAAAAAAAAAAAAAAAAAAAAAAAAAAAAAAAAAAAAAAAAAAAAAAAIA/AAAAAAAAAAAAAAAAAAAAAAAAAAAAAAAAAAAAAAAAAAAAAAAAAAAAAAAAAAAAAAAAAAAAAAAAAAAAAAAAAAAAAAAAAAAAAAAAZmaGPs3MPD8zMzM+AAAgP2ZmFj8zM3M+MzMjP5qZGT8AAIA/AABwP83MLD+amRk9mpm5Ps3MTD3NzAw/ZmYmP2ZmFj8AAFA/mplpP0d1aXRhciAtIERpcnR5IHZpbnRhZ2UABgCqGwa4qxsGCtejPAAAAAAAAIA/AAAAAAAAAAAAAAAAAAAAAAAAAAAAAAAAAAAAAAAAAAAAAAAAAAAAAAAAAAAAAAAAAAAAAAAAAAAAAAAAAAAAAAAAAAAAAAAACtejPAAAAAAAAIA/AAAAAAAAAAAAAAAAAAAAAAAAAAAAAAAAAAAAAAAAAAAAAAAAAAAAAAAAAAAAAAAAAAAAAAAAAAAAAAAAAAAAAAAAAAAAAAAAAAAAAAAAgD8AAAAAAAAAAAAAAAAAAAAAAAAAAAAAAAAAAAAAAAAAAAAAAAAAAAAAAAAAAAAAAAAAAAAAAAAAAAAAAAAAAAAAAAAAAAAAAAAK16M8AAAAAAAAgD8AAAAAAAAAAAAAAAAAAAAAAAAAAAAAAAAAAAAAAAAAAAAAAAAAAAAAAAAAAAAAAAAAAAAAAAAAAAAAAAAAAAAAAAAAAAAAAAAK16M8CtejPAAAAAAAAIA/AAAAAAAAAAAAAAAAAAAAAAAAAAAAAAAAAAAAAAAAAAAAAAAAAAAAAAAAAAAAAAAAAAAAAAAAAAAAAAAAAAAAAAAAAAAAAAAAAACAP2ZmZj9KREQ/MzMzP/ru7j6amZk+AAAAAAAAAAAAAAAAAAAAAAAAAAAAAAAAAAAAAAAAAAAAAAAAAAAAAAAAAAAAAAAAAAAAAAAAAAAK16M8AAAAAAAAgD8AAAAAAAAAAAAAAAAAAAAAAAAAAAAAAAAAAAAAAAAAAAAAAAAAAAAAAAAAAAAAAAAAAAAAAAAAAAAAAAAAAAAAAAAAAAAAAAAAAAAAAACAPwAAAAAAAAAAAAAAAAAAAAAAAAAAAAAAAAAAAAAAAAAAAAAAAAAAAAAAAAAAAAAAAAAAAAAAAAAAAAAAAAAAAAAAAAAAAAAAAAAAAAAAAIA/AAAAAAAAAAAAAAAAAAAAAAAAAAAAAAAAAAAAAAAAAAAAAAAAAAAAAAAAAAAAAAAAAAAAAAAAAAAAAAAAAAAAAAAAAAAAAAAAAAAAAAAAgD8AAAAAAAAAAAAAAAAAAAAAAAAAAAAAAAAAAAAAAAAAAAAAAAAAAAAAAAAAAAAAAAAAAAAAAAAAAAAAAAAAAAAAAAAAAAAAAAAAAAAAAACAPwAAAAAAAAAAAAAAAAAAAAAAAAAAAAAAAAAAAAAAAAAAAAAAAAAAAAAAAAAAAAAAAAAAAAAAAAAAAAAAAAAAAAAAAAAAAAAAAArXozwAAAAAAACAPwAAAAAAAAAAAAAAAAAAAAAAAAAAAAAAAAAAAAAAAAAAAAAAAAAAAAAAAAAAAAAAAAAAAAAAAAAAAAAAAAAAAAAAAAAAAAAAAAAAAAAAAIA/AAAAAAAAAAAAAAAAAAAAAAAAAAAAAAAAAAAAAAAAAAAAAAAAAAAAAAAAAAAAAAAAAAAAAAAAAAAAAAAAAAAAAAAAAAAAAAAACtejPAAAAAAAAIA/AAAAAAAAAAAAAAAAAAAAAAAAAAAAAAAAAAAAAAAAAAAAAAAAAAAAAAAAAAAAAAAAAAAAAAAAAAAAAAAAAAAAAAAAAAAAAAAAAAAAAAAAgD8AAAAAAAAAAAAAAAAAAAAAAAAAAAAAAAAAAAAAAAAAAAAAAAAAAAAAAAAAAAAAAAAAAAAAAAAAAAAAAAAAAAAAAAAAAAAAAAAK16M8AAAAAAAAgD8AAAAAAAAAAAAAAAAAAAAAAAAAAAAAAAAAAAAAAAAAAAAAAAAAAAAAAAAAAAAAAAAAAAAAAAAAAAAAAAAAAAAAAAAAAAAAAAAAAAAAAACAPwAAAAAAAAAAAAAAAAAAAAAAAAAAAAAAAAAAAAAAAAAAAAAAAAAAAAAAAAAAAAAAAAAAAAAAAAAAAAAAAAAAAAAAAAAAAAAAAArXozwAAAAAAACAPwAAAAAAAAAAAAAAAAAAAAAAAAAAAAAAAAAAAAAAAAAAAAAAAAAAAAAAAAAAAAAAAAAAAAAAAAAAAAAAAAAAAAAAAAAAAAAAAAAAAAAAAIA/AAAAAAAAAAAAAAAAAAAAAAAAAAAAAAAAAAAAAAAAAAAAAAAAAAAAAAAAAAAAAAAAAAAAAAAAAAAAAAAAAAAAAAAAAAAAAAAAAAAAAAAAgD8AAAAAAAAAAAAAAAAAAAAAAAAAAAAAAAAAAAAAAAAAAAAAAAAAAAAAAAAAAAAAAAAAAAAAAAAAAAAAAAAAAAAAAAAAAAAAAAAK16M8AAAAAAAAgD8AAAAAAAAAAAAAAAAAAAAAAAAAAAAAAAAAAAAAAAAAAAAAAAAAAAAAAAAAAAAAAAAAAAAAAAAAAAAAAAAAAAAAAAAAAAAAAAAAAAAAAACAPwAAAAAAAAAAAAAAAAAAAAAAAAAAAAAAAAAAAAAAAAAAAAAAAAAAAAAAAAAAAAAAAAAAAAAAAAAAAAAAAAAAAAAAAAAAAAAAAArXozwAAAAAAACAPwAAAAAAAAAAAAAAAAAAAAAAAAAAAAAAAAAAAAAAAAAAAAAAAAAAAAAAAAAAAAAAAAAAAAAAAAAAAAAAAAAAAAAAAAAAAAAAAAAAAAAAAIA/AAAAAAAAAAAAAAAAAAAAAAAAAAAAAAAAAAAAAAAAAAAAAAAAAAAAAAAAAAAAAAAAAAAAAAAAAAAAAAAAAAAAAAAAAAAAAAAACtejPAAAAAAAAIA/AAAAAAAAAAAAAAAAAAAAAAAAAAAAAAAAAAAAAAAAAAAAAAAAAAAAAAAAAAAAAAAAAAAAAAAAAAAAAAAAAAAAAAAAAAAAAAAAAAAAAAAAgD8AAAAAAAAAAAAAAAAAAAAAAAAAAAAAAAAAAAAAAAAAAAAAAAAAAAAAAAAAAAAAAAAAAAAAAAAAAAAAAAAAAAAAAAAAAAAAAABmZoY+AAAgP5qZKT8AAIA+ZmYWP2ZmBj/NzCw/mpkZPwAAgD8AAAA/ZmZmP5qZGT3NzIw+zcxMPc3MDD8AAEA/ZmYWPzMzsz6amdk+R3VpdGFyIC0gQWNvdXN0aWMAZSBFUQAGAKYbBpCoGwYK16M8AAAAAAAAgD8AAAAAAAAAAAAAAAAAAAAAAAAAAAAAAAAAAAAAAAAAAAAAAAAAAAAAAAAAAAAAAAAAAAAAAAAAAAAAAAAAAAAAAAAAAAAAAAAK16M8AAAAAAAAgD8AAAAAAAAAAAAAAAAAAAAAAAAAAAAAAAAAAAAAAAAAAAAAAAAAAAAAAAAAAAAAAAAAAAAAAAAAAAAAAAAAAAAAAAAAAAAAAAAAAAAAAACAPwAAAAAAAAAAAAAAAAAAAAAAAAAAAAAAAAAAAAAAAAAAAAAAAAAAAAAAAAAAAAAAAAAAAAAAAAAAAAAAAAAAAAAAAAAAAAAAAArXozwAAAAAAACAPwAAAAAAAAAAAAAAAAAAAAAAAAAAAAAAAAAAAAAAAAAAAAAAAAAAAAAAAAAAAAAAAAAAAAAAAAAAAAAAAAAAAAAAAAAAAAAAAArXozwK16M8AAAAAAAAgD8AAAAAAAAAAAAAAAAAAAAAAAAAAAAAAAAAAAAAAAAAAAAAAAAAAAAAAAAAAAAAAAAAAAAAAAAAAAAAAAAAAAAAAAAAAAAAAAAAAIA/ZmZmP0pERD8zMzM/+u7uPpqZmT4AAAAAAAAAAAAAAAAAAAAAAAAAAAAAAAAAAAAAAAAAAAAAAAAAAAAAAAAAAAAAAAAAAAAAAAAAAArXozwAAAAAAACAPwAAAAAAAAAAAAAAAAAAAAAAAAAAAAAAAAAAAAAAAAAAAAAAAAAAAAAAAAAAAAAAAAAAAAAAAAAAAAAAAAAAAAAAAAAAAAAAAAAAAAAAAIA/AAAAAAAAAAAAAAAAAAAAAAAAAAAAAAAAAAAAAAAAAAAAAAAAAAAAAAAAAAAAAAAAAAAAAAAAAAAAAAAAAAAAAAAAAAAAAAAAAAAAAAAAgD8AAAAAAAAAAAAAAAAAAAAAAAAAAAAAAAAAAAAAAAAAAAAAAAAAAAAAAAAAAAAAAAAAAAAAAAAAAAAAAAAAAAAAAAAAAAAAAAAAAAAAAACAPwAAAAAAAAAAAAAAAAAAAAAAAAAAAAAAAAAAAAAAAAAAAAAAAAAAAAAAAAAAAAAAAAAAAAAAAAAAAAAAAAAAAAAAAAAAAAAAAAAAAAAAAIA/AAAAAAAAAAAAAAAAAAAAAAAAAAAAAAAAAAAAAAAAAAAAAAAAAAAAAAAAAAAAAAAAAAAAAAAAAAAAAAAAAAAAAAAAAAAAAAAACtejPAAAAAAAAIA/AAAAAAAAAAAAAAAAAAAAAAAAAAAAAAAAAAAAAAAAAAAAAAAAAAAAAAAAAAAAAAAAAAAAAAAAAAAAAAAAAAAAAAAAAAAAAAAAAAAAAAAAgD8AAAAAAAAAAAAAAAAAAAAAAAAAAAAAAAAAAAAAAAAAAAAAAAAAAAAAAAAAAAAAAAAAAAAAAAAAAAAAAAAAAAAAAAAAAAAAAAAK16M8AAAAAAAAgD8AAAAAAAAAAAAAAAAAAAAAAAAAAAAAAAAAAAAAAAAAAAAAAAAAAAAAAAAAAAAAAAAAAAAAAAAAAAAAAAAAAAAAAAAAAAAAAAAAAAAAAACAPwAAAAAAAAAAAAAAAAAAAAAAAAAAAAAAAAAAAAAAAAAAAAAAAAAAAAAAAAAAAAAAAAAAAAAAAAAAAAAAAAAAAAAAAAAAAAAAAArXozwAAAAAAACAPwAAAAAAAAAAAAAAAAAAAAAAAAAAAAAAAAAAAAAAAAAAAAAAAAAAAAAAAAAAAAAAAAAAAAAAAAAAAAAAAAAAAAAAAAAAAAAAAAAAAAAAAIA/AAAAAAAAAAAAAAAAAAAAAAAAAAAAAAAAAAAAAAAAAAAAAAAAAAAAAAAAAAAAAAAAAAAAAAAAAAAAAAAAAAAAAAAAAAAAAAAACtejPAAAAAAAAIA/AAAAAAAAAAAAAAAAAAAAAAAAAAAAAAAAAAAAAAAAAAAAAAAAAAAAAAAAAAAAAAAAAAAAAAAAAAAAAAAAAAAAAAAAAAAAAAAAAAAAAAAAgD8AAAAAAAAAAAAAAAAAAAAAAAAAAAAAAAAAAAAAAAAAAAAAAAAAAAAAAAAAAAAAAAAAAAAAAAAAAAAAAAAAAAAAAAAAAAAAAAAAAAAAAACAPwAAAAAAAAAAAAAAAAAAAAAAAAAAAAAAAAAAAAAAAAAAAAAAAAAAAAAAAAAAAAAAAAAAAAAAAAAAAAAAAAAAAAAAAAAAAAAAAArXozwAAAAAAACAPwAAAAAAAAAAAAAAAAAAAAAAAAAAAAAAAAAAAAAAAAAAAAAAAAAAAAAAAAAAAAAAAAAAAAAAAAAAAAAAAAAAAAAAAAAAAAAAAAAAAAAAAIA/AAAAAAAAAAAAAAAAAAAAAAAAAAAAAAAAAAAAAAAAAAAAAAAAAAAAAAAAAAAAAAAAAAAAAAAAAAAAAAAAAAAAAAAAAAAAAAAACtejPAAAAAAAAIA/AAAAAAAAAAAAAAAAAAAAAAAAAAAAAAAAAAAAAAAAAAAAAAAAAAAAAAAAAAAAAAAAAAAAAAAAAAAAAAAAAAAAAAAAAAAAAAAAAAAAAAAAgD8AAAAAAAAAAAAAAAAAAAAAAAAAAAAAAAAAAAAAAAAAAAAAAAAAAAAAAAAAAAAAAAAAAAAAAAAAAAAAAAAAAAAAAAAAAAAAAAAK16M8AAAAAAAAgD8AAAAAAAAAAAAAAAAAAAAAAAAAAAAAAAAAAAAAAAAAAAAAAAAAAAAAAAAAAAAAAAAAAAAAAAAAAAAAAAAAAAAAAAAAAAAAAAAAAAAAAACAPwAAAAAAAAAAAAAAAAAAAAAAAAAAAAAAAAAAAAAAAAAAAAAAAAAAAAAAAAAAAAAAAAAAAAAAAAAAAAAAAAAAAAAAAAAAAAAAADMzMz4zMyM/mplJPwAAwD4zMxM/AAAAAAAAAD+amRk/AACAP2Zmxj4zMyM/ZmbGPjMzsz7NzMw9ZmYmP83MLD/NzCw/MzOTPmZmBj9IRiBWaXRhbGl6ZXIAc3RpYwBlIEVRAAYAphsGkKgbBgrXozwAAAAAAACAPwAAAAAAAAAAAAAAAAAAAAAAAAAAAAAAAAAAAAAAAAAAAAAAAAAAAAAAAAAAAAAAAAAAAAAAAAAAAAAAAAAAAAAAAAAAAAAAAArXozwAAAAAAACAPwAAAAAAAAAAAAAAAAAAAAAAAAAAAAAAAAAAAAAAAAAAAAAAAAAAAAAAAAAAAAAAAAAAAAAAAAAAAAAAAAAAAAAAAAAAAAAAAAAAAAAAAIA/AAAAAAAAAAAAAAAAAAAAAAAAAAAAAAAAAAAAAAAAAAAAAAAAAAAAAAAAAAAAAAAAAAAAAAAAAAAAAAAAAAAAAAAAAAAAAAAACtejPAAAAAAAAIA/AAAAAAAAAAAAAAAAAAAAAAAAAAAAAAAAAAAAAAAAAAAAAAAAAAAAAAAAAAAAAAAAAAAAAAAAAAAAAAAAAAAAAAAAAAAAAAAACtejPArXozwAAAAAAACAPwAAAAAAAAAAAAAAAAAAAAAAAAAAAAAAAAAAAAAAAAAAAAAAAAAAAAAAAAAAAAAAAAAAAAAAAAAAAAAAAAAAAAAAAAAAAAAAAAAAgD9mZmY/SkREPzMzMz/67u4+mpmZPgAAAAAAAAAAAAAAAAAAAAAAAAAAAAAAAAAAAAAAAAAAAAAAAAAAAAAAAAAAAAAAAAAAAAAAAAAACtejPAAAAAAAAIA/AAAAAAAAAAAAAAAAAAAAAAAAAAAAAAAAAAAAAAAAAAAAAAAAAAAAAAAAAAAAAAAAAAAAAAAAAAAAAAAAAAAAAAAAAAAAAAAAAAAAAAAAgD8AAAAAAAAAAAAAAAAAAAAAAAAAAAAAAAAAAAAAAAAAAAAAAAAAAAAAAAAAAAAAAAAAAAAAAAAAAAAAAAAAAAAAAAAAAAAAAAAAAAAAAACAPwAAAAAAAAAAAAAAAAAAAAAAAAAAAAAAAAAAAAAAAAAAAAAAAAAAAAAAAAAAAAAAAAAAAAAAAAAAAAAAAAAAAAAAAAAAAAAAAAAAAAAAAIA/AAAAAAAAAAAAAAAAAAAAAAAAAAAAAAAAAAAAAAAAAAAAAAAAAAAAAAAAAAAAAAAAAAAAAAAAAAAAAAAAAAAAAAAAAAAAAAAAAAAAAAAAgD8AAAAAAAAAAAAAAAAAAAAAAAAAAAAAAAAAAAAAAAAAAAAAAAAAAAAAAAAAAAAAAAAAAAAAAAAAAAAAAAAAAAAAAAAAAAAAAAAK16M8AAAAAAAAgD8AAAAAAAAAAAAAAAAAAAAAAAAAAAAAAAAAAAAAAAAAAAAAAAAAAAAAAAAAAAAAAAAAAAAAAAAAAAAAAAAAAAAAAAAAAAAAAAAAAAAAAACAPwAAAAAAAAAAAAAAAAAAAAAAAAAAAAAAAAAAAAAAAAAAAAAAAAAAAAAAAAAAAAAAAAAAAAAAAAAAAAAAAAAAAAAAAAAAAAAAAArXozwAAAAAAACAPwAAAAAAAAAAAAAAAAAAAAAAAAAAAAAAAAAAAAAAAAAAAAAAAAAAAAAAAAAAAAAAAAAAAAAAAAAAAAAAAAAAAAAAAAAAAAAAAAAAAAAAAIA/AAAAAAAAAAAAAAAAAAAAAAAAAAAAAAAAAAAAAAAAAAAAAAAAAAAAAAAAAAAAAAAAAAAAAAAAAAAAAAAAAAAAAAAAAAAAAAAACtejPAAAAAAAAIA/AAAAAAAAAAAAAAAAAAAAAAAAAAAAAAAAAAAAAAAAAAAAAAAAAAAAAAAAAAAAAAAAAAAAAAAAAAAAAAAAAAAAAAAAAAAAAAAAAAAAAAAAgD8AAAAAAAAAAAAAAAAAAAAAAAAAAAAAAAAAAAAAAAAAAAAAAAAAAAAAAAAAAAAAAAAAAAAAAAAAAAAAAAAAAAAAAAAAAAAAAAAK16M8AAAAAAAAgD8AAAAAAAAAAAAAAAAAAAAAAAAAAAAAAAAAAAAAAAAAAAAAAAAAAAAAAAAAAAAAAAAAAAAAAAAAAAAAAAAAAAAAAAAAAAAAAAAAAAAAAACAPwAAAAAAAAAAAAAAAAAAAAAAAAAAAAAAAAAAAAAAAAAAAAAAAAAAAAAAAAAAAAAAAAAAAAAAAAAAAAAAAAAAAAAAAAAAAAAAAAAAAAAAAIA/AAAAAAAAAAAAAAAAAAAAAAAAAAAAAAAAAAAAAAAAAAAAAAAAAAAAAAAAAAAAAAAAAAAAAAAAAAAAAAAAAAAAAAAAAAAAAAAACtejPAAAAAAAAIA/AAAAAAAAAAAAAAAAAAAAAAAAAAAAAAAAAAAAAAAAAAAAAAAAAAAAAAAAAAAAAAAAAAAAAAAAAAAAAAAAAAAAAAAAAAAAAAAAAAAAAAAAgD8AAAAAAAAAAAAAAAAAAAAAAAAAAAAAAAAAAAAAAAAAAAAAAAAAAAAAAAAAAAAAAAAAAAAAAAAAAAAAAAAAAAAAAAAAAAAAAAAK16M8AAAAAAAAgD8AAAAAAAAAAAAAAAAAAAAAAAAAAAAAAAAAAAAAAAAAAAAAAAAAAAAAAAAAAAAAAAAAAAAAAAAAAAAAAAAAAAAAAAAAAAAAAAAAAAAAAACAPwAAAAAAAAAAAAAAAAAAAAAAAAAAAAAAAAAAAAAAAAAAAAAAAAAAAAAAAAAAAAAAAAAAAAAAAAAAAAAAAAAAAAAAAAAAAAAAAArXozwAAAAAAACAPwAAAAAAAAAAAAAAAAAAAAAAAAAAAAAAAAAAAAAAAAAAAAAAAAAAAAAAAAAAAAAAAAAAAAAAAAAAAAAAAAAAAAAAAAAAAAAAAAAAAAAAAIA/AAAAAAAAAAAAAAAAAAAAAAAAAAAAAAAAAAAAAAAAAAAAAAAAAAAAAAAAAAAAAAAAAAAAAAAAAAAAAAAAAAAAAAAAAAAAAAAAZmaGPjMzIz9mZmY+AAAAAAAAID8zM/M+zcwcP83MTD8AAIA/mpk5PzMzYz+amZk9AAAAAAAAgD0AABA/ZmY2P5qZCT8AAEA+AABQP01pZC1IaS4gY29sb3IgYm9vc3QARVEABhALNRATCzUQCtejPAAAAAAAAIA/AAAAAAAAAAAAAAAAAAAAAAAAAAAAAAAAAAAAAAAAAAAAAAAAAAAAAAAAAAAAAAAAAAAAAAAAAAAAAAAAAAAAAAAAAAAAAAAACtejPAAAAAAAAIA/AAAAAAAAAAAAAAAAAAAAAAAAAAAAAAAAAAAAAAAAAAAAAAAAAAAAAAAAAAAAAAAAAAAAAAAAAAAAAAAAAAAAAAAAAAAAAAAAAAAAAAAAgD8AAAAAAAAAAAAAAAAAAAAAAAAAAAAAAAAAAAAAAAAAAAAAAAAAAAAAAAAAAAAAAAAAAAAAAAAAAAAAAAAAAAAAAAAAAAAAAAAK16M8AAAAAAAAgD8AAAAAAAAAAAAAAAAAAAAAAAAAAAAAAAAAAAAAAAAAAAAAAAAAAAAAAAAAAAAAAAAAAAAAAAAAAAAAAAAAAAAAAAAAAAAAAAAK16M8CtejPAAAAAAAAIA/AAAAAAAAAAAAAAAAAAAAAAAAAAAAAAAAAAAAAAAAAAAAAAAAAAAAAAAAAAAAAAAAAAAAAAAAAAAAAAAAAAAAAAAAAAAAAAAAAACAP2ZmZj9KREQ/MzMzP/ru7j6amZk+AAAAAAAAAAAAAAAAAAAAAAAAAAAAAAAAAAAAAAAAAAAAAAAAAAAAAAAAAAAAAAAAAAAAAAAAAAAK16M8AAAAAAAAgD8AAAAAAAAAAAAAAAAAAAAAAAAAAAAAAAAAAAAAAAAAAAAAAAAAAAAAAAAAAAAAAAAAAAAAAAAAAAAAAAAAAAAAAAAAAAAAAAAAAAAAAACAPwAAAAAAAAAAAAAAAAAAAAAAAAAAAAAAAAAAAAAAAAAAAAAAAAAAAAAAAAAAAAAAAAAAAAAAAAAAAAAAAAAAAAAAAAAAAAAAAAAAAAAAAIA/AAAAAAAAAAAAAAAAAAAAAAAAAAAAAAAAAAAAAAAAAAAAAAAAAAAAAAAAAAAAAAAAAAAAAAAAAAAAAAAAAAAAAAAAAAAAAAAAAAAAAAAAgD8AAAAAAAAAAAAAAAAAAAAAAAAAAAAAAAAAAAAAAAAAAAAAAAAAAAAAAAAAAAAAAAAAAAAAAAAAAAAAAAAAAAAAAAAAAAAAAAAAAAAAAACAPwAAAAAAAAAAAAAAAAAAAAAAAAAAAAAAAAAAAAAAAAAAAAAAAAAAAAAAAAAAAAAAAAAAAAAAAAAAAAAAAAAAAAAAAAAAAAAAAArXozwAAAAAAACAPwAAAAAAAAAAAAAAAAAAAAAAAAAAAAAAAAAAAAAAAAAAAAAAAAAAAAAAAAAAAAAAAAAAAAAAAAAAAAAAAAAAAAAAAAAAAAAAAAAAAAAAAIA/AAAAAAAAAAAAAAAAAAAAAAAAAAAAAAAAAAAAAAAAAAAAAAAAAAAAAAAAAAAAAAAAAAAAAAAAAAAAAAAAAAAAAAAAAAAAAAAACtejPAAAAAAAAIA/AAAAAAAAAAAAAAAAAAAAAAAAAAAAAAAAAAAAAAAAAAAAAAAAAAAAAAAAAAAAAAAAAAAAAAAAAAAAAAAAAAAAAAAAAAAAAAAAAAAAAAAAgD8AAAAAAAAAAAAAAAAAAAAAAAAAAAAAAAAAAAAAAAAAAAAAAAAAAAAAAAAAAAAAAAAAAAAAAAAAAAAAAAAAAAAAAAAAAAAAAAAK16M8AAAAAAAAgD8AAAAAAAAAAAAAAAAAAAAAAAAAAAAAAAAAAAAAAAAAAAAAAAAAAAAAAAAAAAAAAAAAAAAAAAAAAAAAAAAAAAAAAAAAAAAAAAAAAAAAAACAPwAAAAAAAAAAAAAAAAAAAAAAAAAAAAAAAAAAAAAAAAAAAAAAAAAAAAAAAAAAAAAAAAAAAAAAAAAAAAAAAAAAAAAAAAAAAAAAAArXozwAAAAAAACAPwAAAAAAAAAAAAAAAAAAAAAAAAAAAAAAAAAAAAAAAAAAAAAAAAAAAAAAAAAAAAAAAAAAAAAAAAAAAAAAAAAAAAAAAAAAAAAAAAAAAAAAAIA/AAAAAAAAAAAAAAAAAAAAAAAAAAAAAAAAAAAAAAAAAAAAAAAAAAAAAAAAAAAAAAAAAAAAAAAAAAAAAAAAAAAAAAAAAAAAAAAAAAAAAAAAgD8AAAAAAAAAAAAAAAAAAAAAAAAAAAAAAAAAAAAAAAAAAAAAAAAAAAAAAAAAAAAAAAAAAAAAAAAAAAAAAAAAAAAAAAAAAAAAAAAK16M8AAAAAAAAgD8AAAAAAAAAAAAAAAAAAAAAAAAAAAAAAAAAAAAAAAAAAAAAAAAAAAAAAAAAAAAAAAAAAAAAAAAAAAAAAAAAAAAAAAAAAAAAAAAAAAAAAACAPwAAAAAAAAAAAAAAAAAAAAAAAAAAAAAAAAAAAAAAAAAAAAAAAAAAAAAAAAAAAAAAAAAAAAAAAAAAAAAAAAAAAAAAAAAAAAAAAArXozwAAAAAAACAPwAAAAAAAAAAAAAAAAAAAAAAAAAAAAAAAAAAAAAAAAAAAAAAAAAAAAAAAAAAAAAAAAAAAAAAAAAAAAAAAAAAAAAAAAAAAAAAAAAAAAAAAIA/AAAAAAAAAAAAAAAAAAAAAAAAAAAAAAAAAAAAAAAAAAAAAAAAAAAAAAAAAAAAAAAAAAAAAAAAAAAAAAAAAAAAAAAAAAAAAAAACtejPAAAAAAAAIA/AAAAAAAAAAAAAAAAAAAAAAAAAAAAAAAAAAAAAAAAAAAAAAAAAAAAAAAAAAAAAAAAAAAAAAAAAAAAAAAAAAAAAAAAAAAAAAAAAAAAAAAAgD8AAAAAAAAAAAAAAAAAAAAAAAAAAAAAAAAAAAAAAAAAAAAAAAAAAAAAAAAAAAAAAAAAAAAAAAAAAAAAAAAAAAAAAAAAAAAAAAAzM0M/mpkpPzMzkz4AAAA/AAAwP83MjD4AABA/zcxMPgAAgD/NzDw/AABAP5qZGT4zM3M+mpmZPgAAAD8AADA/AADgPmZmxj4zMzM/U3dlZXQgNjBzAGVyAHN0aWMAZSBFUQAGAKYbBpCoGwYK16M8AAAAAAAAAAAAAAAAAAAAAAAAAAAAAAAAAAAAAAAAAAAAAAAAAAAAAAAAAAAAAAAAAAAAAAAAAAAAAAAAAAAAAAAAAAAAAAAAAAAAAAAAAAAK16M8AAAAAAAAAAAAAAAAAAAAAAAAAAAAAAAAAAAAAAAAAAAAAAAAAAAAAAAAAAAAAAAAAAAAAAAAAAAAAAAAAAAAAAAAAAAAAAAAAAAAAAAAAAAAAAAAAAAAAAAAAAAAAAAAAAAAAAAAAAAAAAAAAAAAAAAAAAAAAAAAAAAAAAAAAAAAAAAAAAAAAAAAAAAAAAAAAAAAAAAAAAAAAAAAAAAAAArXozwAAAAAAAAAAAAAAAAAAAAAAAAAAAAAAAAAAAAAAAAAAAAAAAAAAAAAAAAAAAAAAAAAAAAAAAAAAAAAAAAAAAAAAAAAAAAAAAAAAAAAAAAAAArXozwK16M8AAAAAAAAAAAAAAAAAAAAAAAAAAAAAAAAAAAAAAAAAAAAAAAAAAAAAAAAAAAAAAAAAAAAAAAAAAAAAAAAAAAAAAAAAAAAAAAAAAAAAAAAAAAAAIA/ZmZmP0pERD8zMzM/+u7uPpqZmT4AAAAAAAAAAAAAAAAAAAAAAAAAAAAAAAAAAAAAAAAAAAAAAAAAAAAAAAAAAAAAAAAAAAAAAAAAAArXozwAAAAAAAAAAAAAAAAAAAAAAAAAAAAAAAAAAAAAAAAAAAAAAAAAAAAAAAAAAAAAAAAAAAAAAAAAAAAAAAAAAAAAAAAAAAAAAAAAAAAAAAAAAAAAAAAAAAAAAAAAAAAAAAAAAAAAAAAAAAAAAAAAAAAAAAAAAAAAAAAAAAAAAAAAAAAAAAAAAAAAAAAAAAAAAAAAAAAAAAAAAAAAAAAAAAAAAAAAAAAAAAAAAAAAAAAAAAAAAAAAAAAAAAAAAAAAAAAAAAAAAAAAAAAAAAAAAAAAAAAAAAAAAAAAAAAAAAAAAAAAAAAAAAAAAAAAAAAAAAAAAAAAAAAAAAAAAAAAAAAAAAAAAAAAAAAAAAAAAAAAAAAAAAAAAAAAAAAAAAAAAAAAAAAAAAAAAAAAAAAAAAAAAAAAAAAAAAAAAAAAAAAAAAAAAAAAAAAAAAAAAAAAAAAAAAAAAAAAAAAAAAAAAAAAAAAAAAAAAAAAAAAAAAAAAAAAAAAAAAAAAAAAAAAAAAAAAAAAAAAAAAAAAAAAAAAACtejPAAAAAAAAAAAAAAAAAAAAAAAAAAAAAAAAAAAAAAAAAAAAAAAAAAAAAAAAAAAAAAAAAAAAAAAAAAAAAAAAAAAAAAAAAAAAAAAAAAAAAAAAAAAAAAAAAAAAAAAAAAAAAAAAAAAAAAAAAAAAAAAAAAAAAAAAAAAAAAAAAAAAAAAAAAAAAAAAAAAAAAAAAAAAAAAAAAAAAAAAAAAAAAAAAAAAAAK16M8AAAAAAAAAAAAAAAAAAAAAAAAAAAAAAAAAAAAAAAAAAAAAAAAAAAAAAAAAAAAAAAAAAAAAAAAAAAAAAAAAAAAAAAAAAAAAAAAAAAAAAAAAAAAAAAAAAAAAAAAAAAAAAAAAAAAAAAAAAAAAAAAAAAAAAAAAAAAAAAAAAAAAAAAAAAAAAAAAAAAAAAAAAAAAAAAAAAAAAAAAAAAAAAAAAAAAArXozwAAAAAAAAAAAAAAAAAAAAAAAAAAAAAAAAAAAAAAAAAAAAAAAAAAAAAAAAAAAAAAAAAAAAAAAAAAAAAAAAAAAAAAAAAAAAAAAAAAAAAAAAAAAAAAAAAAAAAAAAAAAAAAAAAAAAAAAAAAAAAAAAAAAAAAAAAAAAAAAAAAAAAAAAAAAAAAAAAAAAAAAAAAAAAAAAAAAAAAAAAAAAAAAAAAAAACtejPAAAAAAAAAAAAAAAAAAAAAAAAAAAAAAAAAAAAAAAAAAAAAAAAAAAAAAAAAAAAAAAAAAAAAAAAAAAAAAAAAAAAAAAAAAAAAAAAAAAAAAAAAAAAAAAAAAAAAAAAAAAAAAAAAAAAAAAAAAAAAAAAAAAAAAAAAAAAAAAAAAAAAAAAAAAAAAAAAAAAAAAAAAAAAAAAAAAAAAAAAAAAAAAAAAAAAAAAAAAAAAAAAAAAAAAAAAAAAAAAAAAAAAAAAAAAAAAAAAAAAAAAAAAAAAAAAAAAAAAAAAAAAAAAAAAAAAAAAAAAAAAAAAAAAAAAAAAAAAAAArXozwAAAAAAAAAAAAAAAAAAAAAAAAAAAAAAAAAAAAAAAAAAAAAAAAAAAAAAAAAAAAAAAAAAAAAAAAAAAAAAAAAAAAAAAAAAAAAAAAAAAAAAAAAAAAAAAAAAAAAAAAAAAAAAAAAAAAAAAAAAAAAAAAAAAAAAAAAAAAAAAAAAAAAAAAAAAAAAAAAAAAAAAAAAAAAAAAAAAAAAAAAAAAAAAAAAAAACtejPAAAAAAAAAAAAAAAAAAAAAAAAAAAAAAAAAAAAAAAAAAAAAAAAAAAAAAAAAAAAAAAAAAAAAAAAAAAAAAAAAAAAAAAAAAAAAAAAAAAAAAAAAAAAAAAAAAAAAAAAAAAAAAAAAAAAAAAAAAAAAAAAAAAAAAAAAAAAAAAAAAAAAAAAAAAAAAAAAAAAAAAAAAAAAAAAAAAAAAAAAAAAAAAAAAAAAAK16M8AAAAAAAAAAAAAAAAAAAAAAAAAAAAAAAAAAAAAAAAAAAAAAAAAAAAAAAAAAAAAAAAAAAAAAAAAAAAAAAAAAAAAAAAAAAAAAAAAAAAAAAAAAAAAAAAAAAAAAAAAAAAAAAAAAAAAAAAAAAAAAAAAAAAAAAAAAAAAAAAAAAAAAAAAAAAAAAAAAAAAAAAAAAAAAAAAAAAAAAAAAAAAAAAAAAAAGZmhj4zMxM/mpkZPwAAAAAAACA/MzMzPwAAID/NzEw/AACAPwAAQD9mZjY/mpmZPc3MTD7NzEw9ZmbGPs3MTD8AAAA/AABAPs3MLD9XYXJtIDEyQVg3IFR1YmVzAHRoAAi4GwYAthsGWLgbBgrXozwAAAAAAAAAAAAAAAAAAAAAAAAAAAAAAAAAAAAAAAAAAAAAAAAAAAAAAAAAAAAAAAAAAAAAAAAAAAAAAAAAAAAAAAAAAAAAAAAAAAAAAAAAAArXozwAAAAAAAAAAAAAAAAAAAAAAAAAAAAAAAAAAAAAAAAAAAAAAAAAAAAAAAAAAAAAAAAAAAAAAAAAAAAAAAAAAAAAAAAAAAAAAAAAAAAAAAAAAAAAAAAAAAAAAAAAAAAAAAAAAAAAAAAAAAAAAAAAAAAAAAAAAAAAAAAAAAAAAAAAAAAAAAAAAAAAAAAAAAAAAAAAAAAAAAAAAAAAAAAAAAAACtejPAAAAAAAAAAAAAAAAAAAAAAAAAAAAAAAAAAAAAAAAAAAAAAAAAAAAAAAAAAAAAAAAAAAAAAAAAAAAAAAAAAAAAAAAAAAAAAAAAAAAAAAAAAACtejPArXozwAAAAAAAAAAAAAAAAAAAAAAAAAAAAAAAAAAAAAAAAAAAAAAAAAAAAAAAAAAAAAAAAAAAAAAAAAAAAAAAAAAAAAAAAAAAAAAAAAAAAAAAAAAAAAAAAAAIA/AAAAAAAAAAAAAAAAAAAAAAAAAAAAAAAAAAAAAAAAAAAAAAAAAAAAAAAAAAAAAAAAAAAAAAAAAAAAAAAAAAAAAAAAAAAAAAAACtejPAAAAAAAAAAAAAAAAAAAAAAAAAAAAAAAAAAAAAAAAAAAAAAAAAAAAAAAAAAAAAAAAAAAAAAAAAAAAAAAAAAAAAAAAAAAAAAAAAAAAAAAAAAAAAAAAAAAAAAAAAAAAAAAAAAAAAAAAAAAAAAAAAAAAAAAAAAAAAAAAAAAAAAAAAAAAAAAAAAAAAAAAAAAAAAAAAAAAAAAAAAAAAAAAAAAAAAAAAAAAAAAAAAAAAAAAAAAAAAAAAAAAAAAAAAAAAAAAAAAAAAAAAAAAAAAAAAAAAAAAAAAAAAAAAAAAAAAAAAAAAAAAAAAAAAAAAAAAAAAAAAAAAAAAAAAAAAAAAAAAAAAAAAAAAAAAAAAAAAAAAAAAAAAAAAAAAAAAAAAAAAAAAAAAAAAAAAAAAAAAAAAAAAAAAAAAAAAAAAAAAAAAAAAAAAAAAAAAAAAAAAAAAAAAAAAAAAAAAAAAAAAAAAAAAAAAAAAAAAAAAAAAAAAAAAAAAAAAAAAAAAAAAAAAAAAAAAAAAAAAAAAAAAAAAAAAAAK16M8AAAAAAAAAAAAAAAAAAAAAAAAAAAAAAAAAAAAAAAAAAAAAAAAAAAAAAAAAAAAAAAAAAAAAAAAAAAAAAAAAAAAAAAAAAAAAAAAAAAAAAAAAAAAAAAAAAAAAAAAAAAAAAAAAAAAAAAAAAAAAAAAAAAAAAAAAAAAAAAAAAAAAAAAAAAAAAAAAAAAAAAAAAAAAAAAAAAAAAAAAAAAAAAAAAAAAArXozwAAAAAAAAAAAAAAAAAAAAAAAAAAAAAAAAAAAAAAAAAAAAAAAAAAAAAAAAAAAAAAAAAAAAAAAAAAAAAAAAAAAAAAAAAAAAAAAAAAAAAAAAAAAAAAAAAAAAAAAAAAAAAAAAAAAAAAAAAAAAAAAAAAAAAAAAAAAAAAAAAAAAAAAAAAAAAAAAAAAAAAAAAAAAAAAAAAAAAAAAAAAAAAAAAAAAACtejPAAAAAAAAAAAAAAAAAAAAAAAAAAAAAAAAAAAAAAAAAAAAAAAAAAAAAAAAAAAAAAAAAAAAAAAAAAAAAAAAAAAAAAAAAAAAAAAAAAAAAAAAAAAAAAAAAAAAAAAAAAAAAAAAAAAAAAAAAAAAAAAAAAAAAAAAAAAAAAAAAAAAAAAAAAAAAAAAAAAAAAAAAAAAAAAAAAAAAAAAAAAAAAAAAAAAAAK16M8AAAAAAAAAAAAAAAAAAAAAAAAAAAAAAAAAAAAAAAAAAAAAAAAAAAAAAAAAAAAAAAAAAAAAAAAAAAAAAAAAAAAAAAAAAAAAAAAAAAAAAAAAAAAAAAAAAAAAAAAAAAAAAAAAAAAAAAAAAAAAAAAAAAAAAAAAAAAAAAAAAAAAAAAAAAAAAAAAAAAAAAAAAAAAAAAAAAAAAAAAAAAAAAAAAAAAAAAAAAAAAAAAAAAAAAAAAAAAAAAAAAAAAAAAAAAAAAAAAAAAAAAAAAAAAAAAAAAAAAAAAAAAAAAAAAAAAAAAAAAAAAAAAAAAAAAAAAAAAAACtejPAAAAAAAAAAAAAAAAAAAAAAAAAAAAAAAAAAAAAAAAAAAAAAAAAAAAAAAAAAAAAAAAAAAAAAAAAAAAAAAAAAAAAAAAAAAAAAAAAAAAAAAAAAAAAAAAAAAAAAAAAAAAAAAAAAAAAAAAAAAAAAAAAAAAAAAAAAAAAAAAAAAAAAAAAAAAAAAAAAAAAAAAAAAAAAAAAAAAAAAAAAAAAAAAAAAAAAK16M8AAAAAAAAAAAAAAAAAAAAAAAAAAAAAAAAAAAAAAAAAAAAAAAAAAAAAAAAAAAAAAAAAAAAAAAAAAAAAAAAAAAAAAAAAAAAAAAAAAAAAAAAAAAAAAAAAAAAAAAAAAAAAAAAAAAAAAAAAAAAAAAAAAAAAAAAAAAAAAAAAAAAAAAAAAAAAAAAAAAAAAAAAAAAAAAAAAAAAAAAAAAAAAAAAAAAAArXozwAAAAAAAAAAAAAAAAAAAAAAAAAAAAAAAAAAAAAAAAAAAAAAAAAAAAAAAAAAAAAAAAAAAAAAAAAAAAAAAAAAAAAAAAAAAAAAAAAAAAAAAAAAAAAAAAAAAAAAAAAAAAAAAAAAAAAAAAAAAAAAAAAAAAAAAAAAAAAAAAAAAAAAAAAAAAAAAAAAAAAAAAAAAAAAAAAAAAAAAAAAAAAAAAAAAAAMzNDPwAAgD+amQk/n6qqPgAAMD/NzIw+AAAQP83MTD4AAIA/AADgPmZmdj9mZqY+MzNzPpqZmT4AAAA/ZmZGPwAA4D7NzAw+ZmbmPlBpYW5vIC0gc29mdAAgYm9vc3QARVEABhALNRATCzUQCtejPAAAAAAAAAAAAAAAAAAAAAAAAAAAAAAAAAAAAAAAAAAAAAAAAAAAAAAAAAAAAAAAAAAAAAAAAAAAAAAAAAAAAAAAAAAAAAAAAAAAAAAAAAAACtejPAAAAAAAAAAAAAAAAAAAAAAAAAAAAAAAAAAAAAAAAAAAAAAAAAAAAAAAAAAAAAAAAAAAAAAAAAAAAAAAAAAAAAAAAAAAAAAAAAAAAAAAAAAAAAAAAAAAAAAAAAAAAAAAAAAAAAAAAAAAAAAAAAAAAAAAAAAAAAAAAAAAAAAAAAAAAAAAAAAAAAAAAAAAAAAAAAAAAAAAAAAAAAAAAAAAAAAK16M8AAAAAAAAAAAAAAAAAAAAAAAAAAAAAAAAAAAAAAAAAAAAAAAAAAAAAAAAAAAAAAAAAAAAAAAAAAAAAAAAAAAAAAAAAAAAAAAAAAAAAAAAAAAK16M8CtejPAAAAAAAAAAAAAAAAAAAAAAAAAAAAAAAAAAAAAAAAAAAAAAAAAAAAAAAAAAAAAAAAAAAAAAAAAAAAAAAAAAAAAAAAAAAAAAAAAAAAAAAAAAAAAAAAAAAgD8AAAAAAAAAAAAAAAAAAAAAAAAAAAAAAAAAAAAAAAAAAAAAAAAAAAAAAAAAAAAAAAAAAAAAAAAAAAAAAAAAAAAAAAAAAAAAAAAK16M8AAAAAAAAAAAAAAAAAAAAAAAAAAAAAAAAAAAAAAAAAAAAAAAAAAAAAAAAAAAAAAAAAAAAAAAAAAAAAAAAAAAAAAAAAAAAAAAAAAAAAAAAAAAAAAAAAAAAAAAAAAAAAAAAAAAAAAAAAAAAAAAAAAAAAAAAAAAAAAAAAAAAAAAAAAAAAAAAAAAAAAAAAAAAAAAAAAAAAAAAAAAAAAAAAAAAAAAAAAAAAAAAAAAAAAAAAAAAAAAAAAAAAAAAAAAAAAAAAAAAAAAAAAAAAAAAAAAAAAAAAAAAAAAAAAAAAAAAAAAAAAAAAAAAAAAAAAAAAAAAAAAAAAAAAAAAAAAAAAAAAAAAAAAAAAAAAAAAAAAAAAAAAAAAAAAAAAAAAAAAAAAAAAAAAAAAAAAAAAAAAAAAAAAAAAAAAAAAAAAAAAAAAAAAAAAAAAAAAAAAAAAAAAAAAAAAAAAAAAAAAAAAAAAAAAAAAAAAAAAAAAAAAAAAAAAAAAAAAAAAAAAAAAAAAAAAAAAAAAAAAAAAAAAAAAAAAArXozwAAAAAAAAAAAAAAAAAAAAAAAAAAAAAAAAAAAAAAAAAAAAAAAAAAAAAAAAAAAAAAAAAAAAAAAAAAAAAAAAAAAAAAAAAAAAAAAAAAAAAAAAAAAAAAAAAAAAAAAAAAAAAAAAAAAAAAAAAAAAAAAAAAAAAAAAAAAAAAAAAAAAAAAAAAAAAAAAAAAAAAAAAAAAAAAAAAAAAAAAAAAAAAAAAAAAACtejPAAAAAAAAAAAAAAAAAAAAAAAAAAAAAAAAAAAAAAAAAAAAAAAAAAAAAAAAAAAAAAAAAAAAAAAAAAAAAAAAAAAAAAAAAAAAAAAAAAAAAAAAAAAAAAAAAAAAAAAAAAAAAAAAAAAAAAAAAAAAAAAAAAAAAAAAAAAAAAAAAAAAAAAAAAAAAAAAAAAAAAAAAAAAAAAAAAAAAAAAAAAAAAAAAAAAAAK16M8AAAAAAAAAAAAAAAAAAAAAAAAAAAAAAAAAAAAAAAAAAAAAAAAAAAAAAAAAAAAAAAAAAAAAAAAAAAAAAAAAAAAAAAAAAAAAAAAAAAAAAAAAAAAAAAAAAAAAAAAAAAAAAAAAAAAAAAAAAAAAAAAAAAAAAAAAAAAAAAAAAAAAAAAAAAAAAAAAAAAAAAAAAAAAAAAAAAAAAAAAAAAAAAAAAAAAArXozwAAAAAAAAAAAAAAAAAAAAAAAAAAAAAAAAAAAAAAAAAAAAAAAAAAAAAAAAAAAAAAAAAAAAAAAAAAAAAAAAAAAAAAAAAAAAAAAAAAAAAAAAAAAAAAAAAAAAAAAAAAAAAAAAAAAAAAAAAAAAAAAAAAAAAAAAAAAAAAAAAAAAAAAAAAAAAAAAAAAAAAAAAAAAAAAAAAAAAAAAAAAAAAAAAAAAAAAAAAAAAAAAAAAAAAAAAAAAAAAAAAAAAAAAAAAAAAAAAAAAAAAAAAAAAAAAAAAAAAAAAAAAAAAAAAAAAAAAAAAAAAAAAAAAAAAAAAAAAAAAK16M8AAAAAAAAAAAAAAAAAAAAAAAAAAAAAAAAAAAAAAAAAAAAAAAAAAAAAAAAAAAAAAAAAAAAAAAAAAAAAAAAAAAAAAAAAAAAAAAAAAAAAAAAAAAAAAAAAAAAAAAAAAAAAAAAAAAAAAAAAAAAAAAAAAAAAAAAAAAAAAAAAAAAAAAAAAAAAAAAAAAAAAAAAAAAAAAAAAAAAAAAAAAAAAAAAAAAAArXozwAAAAAAAAAAAAAAAAAAAAAAAAAAAAAAAAAAAAAAAAAAAAAAAAAAAAAAAAAAAAAAAAAAAAAAAAAAAAAAAAAAAAAAAAAAAAAAAAAAAAAAAAAAAAAAAAAAAAAAAAAAAAAAAAAAAAAAAAAAAAAAAAAAAAAAAAAAAAAAAAAAAAAAAAAAAAAAAAAAAAAAAAAAAAAAAAAAAAAAAAAAAAAAAAAAAAACtejPAAAAAAAAAAAAAAAAAAAAAAAAAAAAAAAAAAAAAAAAAAAAAAAAAAAAAAAAAAAAAAAAAAAAAAAAAAAAAAAAAAAAAAAAAAAAAAAAAAAAAAAAAAAAAAAAAAAAAAAAAAAAAAAAAAAAAAAAAAAAAAAAAAAAAAAAAAAAAAAAAAAAAAAAAAAAAAAAAAAAAAAAAAAAAAAAAAAAAAAAAAAAAAAAAAAAAAAAKA+AAAgP5qZ+T7Bqio+ZmYWP2ZmBj/NzCw/AAAAAAAAgD/NzGw/AACAP5qZGT0AAMA+zcxMPc3MDD+amRk/ZmYWPzMzsz5mZkY/UGlhbm8gLSBzb2Z0IElJAGwAaABnZQAAALYbBqAUFRAK16M8AAAAAAAAAAAAAAAAAAAAAAAAAAAAAAAAAAAAAAAAAAAAAAAAAAAAAAAAAAAAAAAAAAAAAAAAAAAAAAAAAAAAAAAAAAAAAAAAAAAAAAAAAAAK16M8AAAAAAAAAAAAAAAAAAAAAAAAAAAAAAAAAAAAAAAAAAAAAAAAAAAAAAAAAAAAAAAAAAAAAAAAAAAAAAAAAAAAAAAAAAAAAAAAAAAAAAAAAAAAAAAAAAAAAAAAAAAAAAAAAAAAAAAAAAAAAAAAAAAAAAAAAAAAAAAAAAAAAAAAAAAAAAAAAAAAAAAAAAAAAAAAAAAAAAAAAAAAAAAAAAAAAArXozwAAAAAAAAAAAAAAAAAAAAAAAAAAAAAAAAAAAAAAAAAAAAAAAAAAAAAAAAAAAAAAAAAAAAAAAAAAAAAAAAAAAAAAAAAAAAAAAAAAAAAAAAAAArXozwK16M8AAAAAAAAAAAAAAAAAAAAAAAAAAAAAAAAAAAAAAAAAAAAAAAAAAAAAAAAAAAAAAAAAAAAAAAAAAAAAAAAAAAAAAAAAAAAAAAAAAAAAAAAAAAAAAAAAACAPwAAAAAAAAAAAAAAAAAAAAAAAAAAAAAAAAAAAAAAAAAAAAAAAAAAAAAAAAAAAAAAAAAAAAAAAAAAAAAAAAAAAAAAAAAAAAAAAArXozwAAAAAAAAAAAAAAAAAAAAAAAAAAAAAAAAAAAAAAAAAAAAAAAAAAAAAAAAAAAAAAAAAAAAAAAAAAAAAAAAAAAAAAAAAAAAAAAAAAAAAAAAAAAAAAAAAAAAAAAAAAAAAAAAAAAAAAAAAAAAAAAAAAAAAAAAAAAAAAAAAAAAAAAAAAAAAAAAAAAAAAAAAAAAAAAAAAAAAAAAAAAAAAAAAAAAAAAAAAAAAAAAAAAAAAAAAAAAAAAAAAAAAAAAAAAAAAAAAAAAAAAAAAAAAAAAAAAAAAAAAAAAAAAAAAAAAAAAAAAAAAAAAAAAAAAAAAAAAAAAAAAAAAAAAAAAAAAAAAAAAAAAAAAAAAAAAAAAAAAAAAAAAAAAAAAAAAAAAAAAAAAAAAAAAAAAAAAAAAAAAAAAAAAAAAAAAAAAAAAAAAAAAAAAAAAAAAAAAAAAAAAAAAAAAAAAAAAAAAAAAAAAAAAAAAAAAAAAAAAAAAAAAAAAAAAAAAAAAAAAAAAAAAAAAAAAAAAAAAAAAAAAAAAAAAAAACtejPAAAAAAAAAAAAAAAAAAAAAAAAAAAAAAAAAAAAAAAAAAAAAAAAAAAAAAAAAAAAAAAAAAAAAAAAAAAAAAAAAAAAAAAAAAAAAAAAAAAAAAAAAAAAAAAAAAAAAAAAAAAAAAAAAAAAAAAAAAAAAAAAAAAAAAAAAAAAAAAAAAAAAAAAAAAAAAAAAAAAAAAAAAAAAAAAAAAAAAAAAAAAAAAAAAAAAAK16M8AAAAAAAAAAAAAAAAAAAAAAAAAAAAAAAAAAAAAAAAAAAAAAAAAAAAAAAAAAAAAAAAAAAAAAAAAAAAAAAAAAAAAAAAAAAAAAAAAAAAAAAAAAAAAAAAAAAAAAAAAAAAAAAAAAAAAAAAAAAAAAAAAAAAAAAAAAAAAAAAAAAAAAAAAAAAAAAAAAAAAAAAAAAAAAAAAAAAAAAAAAAAAAAAAAAAAArXozwAAAAAAAAAAAAAAAAAAAAAAAAAAAAAAAAAAAAAAAAAAAAAAAAAAAAAAAAAAAAAAAAAAAAAAAAAAAAAAAAAAAAAAAAAAAAAAAAAAAAAAAAAAAAAAAAAAAAAAAAAAAAAAAAAAAAAAAAAAAAAAAAAAAAAAAAAAAAAAAAAAAAAAAAAAAAAAAAAAAAAAAAAAAAAAAAAAAAAAAAAAAAAAAAAAAAACtejPAAAAAAAAAAAAAAAAAAAAAAAAAAAAAAAAAAAAAAAAAAAAAAAAAAAAAAAAAAAAAAAAAAAAAAAAAAAAAAAAAAAAAAAAAAAAAAAAAAAAAAAAAAAAAAAAAAAAAAAAAAAAAAAAAAAAAAAAAAAAAAAAAAAAAAAAAAAAAAAAAAAAAAAAAAAAAAAAAAAAAAAAAAAAAAAAAAAAAAAAAAAAAAAAAAAAAAAAAAAAAAAAAAAAAAAAAAAAAAAAAAAAAAAAAAAAAAAAAAAAAAAAAAAAAAAAAAAAAAAAAAAAAAAAAAAAAAAAAAAAAAAAAAAAAAAAAAAAAAAAArXozwAAAAAAAAAAAAAAAAAAAAAAAAAAAAAAAAAAAAAAAAAAAAAAAAAAAAAAAAAAAAAAAAAAAAAAAAAAAAAAAAAAAAAAAAAAAAAAAAAAAAAAAAAAAAAAAAAAAAAAAAAAAAAAAAAAAAAAAAAAAAAAAAAAAAAAAAAAAAAAAAAAAAAAAAAAAAAAAAAAAAAAAAAAAAAAAAAAAAAAAAAAAAAAAAAAAAACtejPAAAAAAAAAAAAAAAAAAAAAAAAAAAAAAAAAAAAAAAAAAAAAAAAAAAAAAAAAAAAAAAAAAAAAAAAAAAAAAAAAAAAAAAAAAAAAAAAAAAAAAAAAAAAAAAAAAAAAAAAAAAAAAAAAAAAAAAAAAAAAAAAAAAAAAAAAAAAAAAAAAAAAAAAAAAAAAAAAAAAAAAAAAAAAAAAAAAAAAAAAAAAAAAAAAAAAAK16M8AAAAAAAAAAAAAAAAAAAAAAAAAAAAAAAAAAAAAAAAAAAAAAAAAAAAAAAAAAAAAAAAAAAAAAAAAAAAAAAAAAAAAAAAAAAAAAAAAAAAAAAAAAAAAAAAAAAAAAAAAAAAAAAAAAAAAAAAAAAAAAAAAAAAAAAAAAAAAAAAAAAAAAAAAAAAAAAAAAAAAAAAAAAAAAAAAAAAAAAAAAAAAAAAAAAAADMzQz/NzCw/MzPTPlBVVT8AADA/zcyMPgAAED/NzEw+AACAPzMzYz8zMyM/zcxMPjMzcz6amZk+AAAAP2ZmZj8AAOA+ZmbmPgAAMD9QaWFubyAtIHJvY2sAc3RpYwBlIEVRAAYAphsGkKgbBgrXozwAAAAAAAAAAAAAAAAAAAAAAAAAAAAAAAAAAAAAAAAAAAAAAAAAAAAAAAAAAAAAAAAAAAAAAAAAAAAAAAAAAAAAAAAAAAAAAAAAAAAAAAAAAArXozwAAAAAAAAAAAAAAAAAAAAAAAAAAAAAAAAAAAAAAAAAAAAAAAAAAAAAAAAAAAAAAAAAAAAAAAAAAAAAAAAAAAAAAAAAAAAAAAAAAAAAAAAAAAAAAAAAAAAAAAAAAAAAAAAAAAAAAAAAAAAAAAAAAAAAAAAAAAAAAAAAAAAAAAAAAAAAAAAAAAAAAAAAAAAAAAAAAAAAAAAAAAAAAAAAAAAACtejPAAAAAAAAAAAAAAAAAAAAAAAAAAAAAAAAAAAAAAAAAAAAAAAAAAAAAAAAAAAAAAAAAAAAAAAAAAAAAAAAAAAAAAAAAAAAAAAAAAAAAAAAAAACtejPArXozwAAAAAAAAAAAAAAAAAAAAAAAAAAAAAAAAAAAAAAAAAAAAAAAAAAAAAAAAAAAAAAAAAAAAAAAAAAAAAAAAAAAAAAAAAAAAAAAAAAAAAAAAAAAAAAAAAAIA/AAAAAAAAAAAAAAAAAAAAAAAAAAAAAAAAAAAAAAAAAAAAAAAAAAAAAAAAAAAAAAAAAAAAAAAAAAAAAAAAAAAAAAAAAAAAAAAACtejPAAAAAAAAAAAAAAAAAAAAAAAAAAAAAAAAAAAAAAAAAAAAAAAAAAAAAAAAAAAAAAAAAAAAAAAAAAAAAAAAAAAAAAAAAAAAAAAAAAAAAAAAAAAAAAAAAAAAAAAAAAAAAAAAAAAAAAAAAAAAAAAAAAAAAAAAAAAAAAAAAAAAAAAAAAAAAAAAAAAAAAAAAAAAAAAAAAAAAAAAAAAAAAAAAAAAAAAAAAAAAAAAAAAAAAAAAAAAAAAAAAAAAAAAAAAAAAAAAAAAAAAAAAAAAAAAAAAAAAAAAAAAAAAAAAAAAAAAAAAAAAAAAAAAAAAAAAAAAAAAAAAAAAAAAAAAAAAAAAAAAAAAAAAAAAAAAAAAAAAAAAAAAAAAAAAAAAAAAAAAAAAAAAAAAAAAAAAAAAAAAAAAAAAAAAAAAAAAAAAAAAAAAAAAAAAAAAAAAAAAAAAAAAAAAAAAAAAAAAAAAAAAAAAAAAAAAAAAAAAAAAAAAAAAAAAAAAAAAAAAAAAAAAAAAAAAAAAAAAAAAAAAAAAAAAAAAAK16M8AAAAAAAAAAAAAAAAAAAAAAAAAAAAAAAAAAAAAAAAAAAAAAAAAAAAAAAAAAAAAAAAAAAAAAAAAAAAAAAAAAAAAAAAAAAAAAAAAAAAAAAAAAAAAAAAAAAAAAAAAAAAAAAAAAAAAAAAAAAAAAAAAAAAAAAAAAAAAAAAAAAAAAAAAAAAAAAAAAAAAAAAAAAAAAAAAAAAAAAAAAAAAAAAAAAAAArXozwAAAAAAAAAAAAAAAAAAAAAAAAAAAAAAAAAAAAAAAAAAAAAAAAAAAAAAAAAAAAAAAAAAAAAAAAAAAAAAAAAAAAAAAAAAAAAAAAAAAAAAAAAAAAAAAAAAAAAAAAAAAAAAAAAAAAAAAAAAAAAAAAAAAAAAAAAAAAAAAAAAAAAAAAAAAAAAAAAAAAAAAAAAAAAAAAAAAAAAAAAAAAAAAAAAAAACtejPAAAAAAAAAAAAAAAAAAAAAAAAAAAAAAAAAAAAAAAAAAAAAAAAAAAAAAAAAAAAAAAAAAAAAAAAAAAAAAAAAAAAAAAAAAAAAAAAAAAAAAAAAAAAAAAAAAAAAAAAAAAAAAAAAAAAAAAAAAAAAAAAAAAAAAAAAAAAAAAAAAAAAAAAAAAAAAAAAAAAAAAAAAAAAAAAAAAAAAAAAAAAAAAAAAAAAAK16M8AAAAAAAAAAAAAAAAAAAAAAAAAAAAAAAAAAAAAAAAAAAAAAAAAAAAAAAAAAAAAAAAAAAAAAAAAAAAAAAAAAAAAAAAAAAAAAAAAAAAAAAAAAAAAAAAAAAAAAAAAAAAAAAAAAAAAAAAAAAAAAAAAAAAAAAAAAAAAAAAAAAAAAAAAAAAAAAAAAAAAAAAAAAAAAAAAAAAAAAAAAAAAAAAAAAAAAAAAAAAAAAAAAAAAAAAAAAAAAAAAAAAAAAAAAAAAAAAAAAAAAAAAAAAAAAAAAAAAAAAAAAAAAAAAAAAAAAAAAAAAAAAAAAAAAAAAAAAAAAACtejPAAAAAAAAAAAAAAAAAAAAAAAAAAAAAAAAAAAAAAAAAAAAAAAAAAAAAAAAAAAAAAAAAAAAAAAAAAAAAAAAAAAAAAAAAAAAAAAAAAAAAAAAAAAAAAAAAAAAAAAAAAAAAAAAAAAAAAAAAAAAAAAAAAAAAAAAAAAAAAAAAAAAAAAAAAAAAAAAAAAAAAAAAAAAAAAAAAAAAAAAAAAAAAAAAAAAAAK16M8AAAAAAAAAAAAAAAAAAAAAAAAAAAAAAAAAAAAAAAAAAAAAAAAAAAAAAAAAAAAAAAAAAAAAAAAAAAAAAAAAAAAAAAAAAAAAAAAAAAAAAAAAAAAAAAAAAAAAAAAAAAAAAAAAAAAAAAAAAAAAAAAAAAAAAAAAAAAAAAAAAAAAAAAAAAAAAAAAAAAAAAAAAAAAAAAAAAAAAAAAAAAAAAAAAAAAArXozwAAAAAAAAAAAAAAAAAAAAAAAAAAAAAAAAAAAAAAAAAAAAAAAAAAAAAAAAAAAAAAAAAAAAAAAAAAAAAAAAAAAAAAAAAAAAAAAAAAAAAAAAAAAAAAAAAAAAAAAAAAAAAAAAAAAAAAAAAAAAAAAAAAAAAAAAAAAAAAAAAAAAAAAAAAAAAAAAAAAAAAAAAAAAAAAAAAAAAAAAAAAAAAAAAAAAAMzNDP2ZmJj9mZiY+UFVVPwAAMD/NzIw+AAAQP83MTD4AAIA/AACAP5qZWT5mZgY/zcwsPwAAQD6amVk/mpk5PwAA4D7NzKw+mpkJP1BpYW5vIC0gcm9jayBJSS4AAGUgRVEABgCmGwaQqBsGCtejPAAAAAAAAAAAAAAAAAAAAAAAAAAAAAAAAAAAAAAAAAAAAAAAAAAAAAAAAAAAAAAAAAAAAAAAAAAAAAAAAAAAAAAAAAAAAAAAAAAAAAAAAAAACtejPAAAAAAAAAAAAAAAAAAAAAAAAAAAAAAAAAAAAAAAAAAAAAAAAAAAAAAAAAAAAAAAAAAAAAAAAAAAAAAAAAAAAAAAAAAAAAAAAAAAAAAAAAAAAAAAAAAAAAAAAAAAAAAAAAAAAAAAAAAAAAAAAAAAAAAAAAAAAAAAAAAAAAAAAAAAAAAAAAAAAAAAAAAAAAAAAAAAAAAAAAAAAAAAAAAAAAAK16M8AAAAAAAAAAAAAAAAAAAAAAAAAAAAAAAAAAAAAAAAAAAAAAAAAAAAAAAAAAAAAAAAAAAAAAAAAAAAAAAAAAAAAAAAAAAAAAAAAAAAAAAAAAAK16M8CtejPAAAAAAAAAAAAAAAAAAAAAAAAAAAAAAAAAAAAAAAAAAAAAAAAAAAAAAAAAAAAAAAAAAAAAAAAAAAAAAAAAAAAAAAAAAAAAAAAAAAAAAAAAAAAAAAAAAAgD8AAAAAAAAAAAAAAAAAAAAAAAAAAAAAAAAAAAAAAAAAAAAAAAAAAAAAAAAAAAAAAAAAAAAAAAAAAAAAAAAAAAAAAAAAAAAAAAAK16M8AAAAAAAAAAAAAAAAAAAAAAAAAAAAAAAAAAAAAAAAAAAAAAAAAAAAAAAAAAAAAAAAAAAAAAAAAAAAAAAAAAAAAAAAAAAAAAAAAAAAAAAAAAAAAAAAAAAAAAAAAAAAAAAAAAAAAAAAAAAAAAAAAAAAAAAAAAAAAAAAAAAAAAAAAAAAAAAAAAAAAAAAAAAAAAAAAAAAAAAAAAAAAAAAAAAAAAAAAAAAAAAAAAAAAAAAAAAAAAAAAAAAAAAAAAAAAAAAAAAAAAAAAAAAAAAAAAAAAAAAAAAAAAAAAAAAAAAAAAAAAAAAAAAAAAAAAAAAAAAAAAAAAAAAAAAAAAAAAAAAAAAAAAAAAAAAAAAAAAAAAAAAAAAAAAAAAAAAAAAAAAAAAAAAAAAAAAAAAAAAAAAAAAAAAAAAAAAAAAAAAAAAAAAAAAAAAAAAAAAAAAAAAAAAAAAAAAAAAAAAAAAAAAAAAAAAAAAAAAAAAAAAAAAAAAAAAAAAAAAAAAAAAAAAAAAAAAAAAAAAAAAAAAAAAAAAAArXozwAAAAAAAAAAAAAAAAAAAAAAAAAAAAAAAAAAAAAAAAAAAAAAAAAAAAAAAAAAAAAAAAAAAAAAAAAAAAAAAAAAAAAAAAAAAAAAAAAAAAAAAAAAAAAAAAAAAAAAAAAAAAAAAAAAAAAAAAAAAAAAAAAAAAAAAAAAAAAAAAAAAAAAAAAAAAAAAAAAAAAAAAAAAAAAAAAAAAAAAAAAAAAAAAAAAAACtejPAAAAAAAAAAAAAAAAAAAAAAAAAAAAAAAAAAAAAAAAAAAAAAAAAAAAAAAAAAAAAAAAAAAAAAAAAAAAAAAAAAAAAAAAAAAAAAAAAAAAAAAAAAAAAAAAAAAAAAAAAAAAAAAAAAAAAAAAAAAAAAAAAAAAAAAAAAAAAAAAAAAAAAAAAAAAAAAAAAAAAAAAAAAAAAAAAAAAAAAAAAAAAAAAAAAAAAK16M8AAAAAAAAAAAAAAAAAAAAAAAAAAAAAAAAAAAAAAAAAAAAAAAAAAAAAAAAAAAAAAAAAAAAAAAAAAAAAAAAAAAAAAAAAAAAAAAAAAAAAAAAAAAAAAAAAAAAAAAAAAAAAAAAAAAAAAAAAAAAAAAAAAAAAAAAAAAAAAAAAAAAAAAAAAAAAAAAAAAAAAAAAAAAAAAAAAAAAAAAAAAAAAAAAAAAAArXozwAAAAAAAAAAAAAAAAAAAAAAAAAAAAAAAAAAAAAAAAAAAAAAAAAAAAAAAAAAAAAAAAAAAAAAAAAAAAAAAAAAAAAAAAAAAAAAAAAAAAAAAAAAAAAAAAAAAAAAAAAAAAAAAAAAAAAAAAAAAAAAAAAAAAAAAAAAAAAAAAAAAAAAAAAAAAAAAAAAAAAAAAAAAAAAAAAAAAAAAAAAAAAAAAAAAAAAAAAAAAAAAAAAAAAAAAAAAAAAAAAAAAAAAAAAAAAAAAAAAAAAAAAAAAAAAAAAAAAAAAAAAAAAAAAAAAAAAAAAAAAAAAAAAAAAAAAAAAAAAAK16M8AAAAAAAAAAAAAAAAAAAAAAAAAAAAAAAAAAAAAAAAAAAAAAAAAAAAAAAAAAAAAAAAAAAAAAAAAAAAAAAAAAAAAAAAAAAAAAAAAAAAAAAAAAAAAAAAAAAAAAAAAAAAAAAAAAAAAAAAAAAAAAAAAAAAAAAAAAAAAAAAAAAAAAAAAAAAAAAAAAAAAAAAAAAAAAAAAAAAAAAAAAAAAAAAAAAAAArXozwAAAAAAAAAAAAAAAAAAAAAAAAAAAAAAAAAAAAAAAAAAAAAAAAAAAAAAAAAAAAAAAAAAAAAAAAAAAAAAAAAAAAAAAAAAAAAAAAAAAAAAAAAAAAAAAAAAAAAAAAAAAAAAAAAAAAAAAAAAAAAAAAAAAAAAAAAAAAAAAAAAAAAAAAAAAAAAAAAAAAAAAAAAAAAAAAAAAAAAAAAAAAAAAAAAAAACtejPAAAAAAAAAAAAAAAAAAAAAAAAAAAAAAAAAAAAAAAAAAAAAAAAAAAAAAAAAAAAAAAAAAAAAAAAAAAAAAAAAAAAAAAAAAAAAAAAAAAAAAAAAAAAAAAAAAAAAAAAAAAAAAAAAAAAAAAAAAAAAAAAAAAAAAAAAAAAAAAAAAAAAAAAAAAAAAAAAAAAAAAAAAAAAAAAAAAAAAAAAAAAAAAAAAAAAAzMzM+mpm5PjMzAz+fqqo+MzMTP83MTD6amQk/zcxMPgAAgD8zM3M/zcwMPpqZGT5mZiY+zczMPQAAAD8zMxM/ZmYGP83MzD0AAIA/UGlhbm8gLSBXYXJtAElJLgAAZSBFUQAGAKYbBpCoGwYK16M8AAAAAAAAAAAAAAAAAAAAAAAAAAAAAAAAAAAAAAAAAAAAAAAAAAAAAAAAAAAAAAAAAAAAAAAAAAAAAAAAAAAAAAAAAAAAAAAAAAAAAAAAAAAK16M8AAAAAAAAAAAAAAAAAAAAAAAAAAAAAAAAAAAAAAAAAAAAAAAAAAAAAAAAAAAAAAAAAAAAAAAAAAAAAAAAAAAAAAAAAAAAAAAAAAAAAAAAAAAAAAAAAAAAAAAAAAAAAAAAAAAAAAAAAAAAAAAAAAAAAAAAAAAAAAAAAAAAAAAAAAAAAAAAAAAAAAAAAAAAAAAAAAAAAAAAAAAAAAAAAAAAAArXozwAAAAAAAAAAAAAAAAAAAAAAAAAAAAAAAAAAAAAAAAAAAAAAAAAAAAAAAAAAAAAAAAAAAAAAAAAAAAAAAAAAAAAAAAAAAAAAAAAAAAAAAAAAArXozwK16M8AAAAAAAAAAAAAAAAAAAAAAAAAAAAAAAAAAAAAAAAAAAAAAAAAAAAAAAAAAAAAAAAAAAAAAAAAAAAAAAAAAAAAAAAAAAAAAAAAAAAAAAAAAAAAIA/AADAPgAAgD4AAMA+AACAPwAAAAAAAAAAAAAAAAAAAAAAAAAAAAAAAAAAAAAAAAAAAAAAAAAAAAAAAAAAAAAAAAAAAAAAAAAAAAAAAArXozwAAAAAAAAAAAAAAAAAAAAAAAAAAAAAAAAAAAAAAAAAAAAAAAAAAAAAAAAAAAAAAAAAAAAAAAAAAAAAAAAAAAAAAAAAAAAAAAAAAAAAAAAAAAAAAAAAAAAAAAAAAAAAAAAAAAAAAAAAAAAAAAAAAAAAAAAAAAAAAAAAAAAAAAAAAAAAAAAAAAAAAAAAAAAAAAAAAAAAAAAAAAAAAAAAAAAAAAAAAAAAAAAAAAAAAAAAAAAAAAAAAAAAAAAAAAAAAAAAAAAAAAAAAAAAAAAAAAAAAAAAAAAAAAAAAAAAAAAAAAAAAAAAAAAAAAAAAAAAAAAAAAAAAAAAAAAAAAAAAAAAAAAAAAAAAAAAAAAAAAAAAAAAAAAAAAAAAAAAAAAAAAAAAAAAAAAAAAAAAAAAAAAAAAAAAAAAAAAAAAAAAAAAAAAAAAAAAAAAAAAAAAAAAAAAAAAAAAAAAAAAAAAAAAAAAAAAAAAAAAAAAAAAAAAAAAAAAAAAAAAAAAAAAAAAAAAAAAAAAAAAAAAAAAAAAAAACtejPAAAAAAAAAAAAAAAAAAAAAAAAAAAAAAAAAAAAAAAAAAAAAAAAAAAAAAAAAAAAAAAAAAAAAAAAAAAAAAAAAAAAAAAAAAAAAAAAAAAAAAAAAAAAAAAAAAAAAAAAAAAAAAAAAAAAAAAAAAAAAAAAAAAAAAAAAAAAAAAAAAAAAAAAAAAAAAAAAAAAAAAAAAAAAAAAAAAAAAAAAAAAAAAAAAAAAAK16M8AAAAAAAAAAAAAAAAAAAAAAAAAAAAAAAAAAAAAAAAAAAAAAAAAAAAAAAAAAAAAAAAAAAAAAAAAAAAAAAAAAAAAAAAAAAAAAAAAAAAAAAAAAAAAAAAAAAAAAAAAAAAAAAAAAAAAAAAAAAAAAAAAAAAAAAAAAAAAAAAAAAAAAAAAAAAAAAAAAAAAAAAAAAAAAAAAAAAAAAAAAAAAAAAAAAAAArXozwAAAAAAAAAAAAAAAAAAAAAAAAAAAAAAAAAAAAAAAAAAAAAAAAAAAAAAAAAAAAAAAAAAAAAAAAAAAAAAAAAAAAAAAAAAAAAAAAAAAAAAAAAAAAAAAAAAAAAAAAAAAAAAAAAAAAAAAAAAAAAAAAAAAAAAAAAAAAAAAAAAAAAAAAAAAAAAAAAAAAAAAAAAAAAAAAAAAAAAAAAAAAAAAAAAAAACtejPAAAAAAAAAAAAAAAAAAAAAAAAAAAAAAAAAAAAAAAAAAAAAAAAAAAAAAAAAAAAAAAAAAAAAAAAAAAAAAAAAAAAAAAAAAAAAAAAAAAAAAAAAAAAAAAAAAAAAAAAAAAAAAAAAAAAAAAAAAAAAAAAAAAAAAAAAAAAAAAAAAAAAAAAAAAAAAAAAAAAAAAAAAAAAAAAAAAAAAAAAAAAAAAAAAAAAAAAAAAAAAAAAAAAAAAAAAAAAAAAAAAAAAAAAAAAAAAAAAAAAAAAAAAAAAAAAAAAAAAAAAAAAAAAAAAAAAAAAAAAAAAAAAAAAAAAAAAAAAAAArXozwAAAAAAAAAAAAAAAAAAAAAAAAAAAAAAAAAAAAAAAAAAAAAAAAAAAAAAAAAAAAAAAAAAAAAAAAAAAAAAAAAAAAAAAAAAAAAAAAAAAAAAAAAAAAAAAAAAAAAAAAAAAAAAAAAAAAAAAAAAAAAAAAAAAAAAAAAAAAAAAAAAAAAAAAAAAAAAAAAAAAAAAAAAAAAAAAAAAAAAAAAAAAAAAAAAAAACtejPAAAAAAAAAAAAAAAAAAAAAAAAAAAAAAAAAAAAAAAAAAAAAAAAAAAAAAAAAAAAAAAAAAAAAAAAAAAAAAAAAAAAAAAAAAAAAAAAAAAAAAAAAAAAAAAAAAAAAAAAAAAAAAAAAAAAAAAAAAAAAAAAAAAAAAAAAAAAAAAAAAAAAAAAAAAAAAAAAAAAAAAAAAAAAAAAAAAAAAAAAAAAAAAAAAAAAAK16M8AAAAAAAAAAAAAAAAAAAAAAAAAAAAAAAAAAAAAAAAAAAAAAAAAAAAAAAAAAAAAAAAAAAAAAAAAAAAAAAAAAAAAAAAAAAAAAAAAAAAAAAAAAAAAAAAAAAAAAAAAAAAAAAAAAAAAAAAAAAAAAAAAAAAAAAAAAAAAAAAAAAAAAAAAAAAAAAAAAAAAAAAAAAAAAAAAAAAAAAAAAAAAAAAAAAAADMzMz6amSk/MzNjP8GqKj4zMyM/AAAAADMz8z6amRk/AACAP5qZ+T4AADA/MzOzPQAAQD4AAAAAmpn5PmZmRj8AAEA/mpkZPQAA4D5QaWFubyAtIEJyaWdodABzAHRoAAi4GwYAthsGWLgbBg==" plugin="Effects\Pultronic Tube EQ\Pultronic Tube EQ.dll"/>
            <key>
              <attribute name="file" value="Effects\Pultronic Tube EQ\Pultronic Tube EQ.dll"/>
            </key>
          </effect>
          <effect name="vsteffect" autoquit_syncmode="0" gate="0" on="1" autoquit_numerator="4" autoquit_denominator="4" wet="1" autoquit="1">
            <vsteffectcontrols param5="5:Early Ref.:0.5" param3="3:Hi Damp:0.7" param4="4:Lo Cut:0.4" guivisible="0" param7="7:Level:0.5" numparams="8" param0="0:Size:1" program="0" plugin="Effects\Classic Reverb\Classic Reverb.dll" param1="1:Damping:0.7" param6="6:Mix:0.1" param2="2:Predelay:0.5"/>
            <key>
              <attribute name="file" value="Effects\Classic Reverb\Classic Reverb.dll"/>
            </key>
          </effect>
        </fxchain>
        <send channel="0" amount="1"/>
      </fxchannel>
    </fxmixer>
    <ControllerRackView maximized="0" y="487" x="550" visible="0" width="350" height="200" minimized="0"/>
    <pianoroll maximized="0" y="623" x="640" visible="0" width="970" height="600" minimized="0"/>
    <automationeditor maximized="0" y="398" x="123" visible="0" width="860" height="400" minimized="0"/>
    <projectnotes maximized="0" y="498" x="562" visible="1" width="689" height="336" minimized="0"><![CDATA[<!DOCTYPE HTML PUBLIC "-//W3C//DTD HTML 4.0//EN" "http://www.w3.org/TR/REC-html40/strict.dtd">
<html><head><meta name="qrichtext" content="1" /><style type="text/css">
p, li { white-space: pre-wrap; }
</style></head><body style=" font-family:'MS Shell Dlg 2'; font-size:8.25pt; font-weight:400; font-style:normal;">
<p style=" margin-top:0px; margin-bottom:0px; margin-left:0px; margin-right:0px; -qt-block-indent:0; text-indent:0px;"><span style=" color:#e0e0e0;">Greetings,</span></p>
<p style=" margin-top:0px; margin-bottom:0px; margin-left:0px; margin-right:0px; -qt-block-indent:0; text-indent:0px;"><span style=" color:#e0e0e0;">edit VST/SF2 paths as required.</span></p>
<p style="-qt-paragraph-type:empty; margin-top:0px; margin-bottom:0px; margin-left:0px; margin-right:0px; -qt-block-indent:0; text-indent:0px; color:#e0e0e0;"><br /></p></body></html>]]></projectnotes>
    <timeline lpstate="1" stopbehaviour="1" lp0pos="0" lp1pos="11136"/>
    <controllers/>
  </song>
</lmms-project>
